<svg xmlns="http://www.w3.org/2000/svg" width="62" height="62" viewBox="0 0 62 62"><g fill="none" fill-rule="evenodd"><path stroke="#B5D0E7" stroke-width="2" d="M52.415 9.99C57.725 15.404 61 22.82 61 31c0 16.569-13.431 30-30 30C14.431 61 1 47.569 1 31h0" stroke-linecap="round" stroke-linejoin="round"/><path fill="#043471" d="M52.211 9.785C46.782 4.357 39.283 1 31.001 1 14.43 1 1 14.432 1 31h30L52.21 9.785z"/><path stroke="#FFF" stroke-width="2" d="M52.211 9.785C46.782 4.357 39.283 1 31.001 1 14.43 1 1 14.432 1 31h30L52.21 9.785z" stroke-linecap="round" stroke-linejoin="round"/><path stroke="#FFF" stroke-width="2" d="M46.624 15.375A22.03 22.03 0 0031 8.903C18.796 8.903 8.903 18.796 8.903 31H31" stroke-linecap="round" stroke-linejoin="round"/><path stroke="#FFF" stroke-width="2" d="M17.439 31c0-7.49 6.072-13.561 13.56-13.561a13.52 13.52 0 019.589 3.97" stroke-linecap="round" stroke-linejoin="round"/><path stroke="#043471" stroke-width="2" d="M31 31L52.213 9.787" stroke-linecap="round" stroke-linejoin="round"/><path fill="#043471" d="M27.605 31a3.395 3.395 0 116.79 0 3.395 3.395 0 01-6.79 0"/><path stroke="#FFF" stroke-width="2" d="M27.605 31a3.395 3.395 0 116.79 0 3.395 3.395 0 01-6.79 0z" stroke-linecap="round" stroke-linejoin="round"/><path fill="#FFF" d="M24.268 9.472a1.749 1.749 0 113.497 0 1.749 1.749 0 01-3.497 0"/><path stroke="#FFF" stroke-width="2" d="M24.268 9.472a1.749 1.749 0 113.497 0 1.749 1.749 0 01-3.497 0z" stroke-linecap="round" stroke-linejoin="round"/><path fill="#FFF" d="M18.137 23.647a1.749 1.749 0 113.497.001 1.749 1.749 0 01-3.497 0"/><path stroke="#FFF" stroke-width="2" d="M18.137 23.647a1.749 1.749 0 113.497.001 1.749 1.749 0 01-3.497 0z" stroke-linecap="round" stroke-linejoin="round"/></g></svg>