<svg xmlns="http://www.w3.org/2000/svg" width="62" height="62" viewBox="0 0 62 62"><g fill="none" fill-rule="evenodd" transform="translate(-753 -1709)"><path fill="#043471" d="M784.056 1725c8.303.012 15.025 6.753 15.013 15.056-.012 8.303-6.753 15.025-15.056 15.013-8.303-.012-15.025-6.753-15.013-15.056.012-8.303 6.753-15.025 15.056-15.013"/><path stroke="#FEFEFE" stroke-width="1.5" d="M789 1739.888h-3.733l2.463-8.888-9.73 9.73h3.733l-2.463 8.889z" stroke-linecap="round" stroke-linejoin="round"/><path stroke="#B5D0E7" stroke-width="2" d="M754 1712.996a2.993 2.993 0 012.996-2.996h54.008a2.993 2.993 0 012.996 2.996v54.008a2.996 2.996 0 01-3.005 2.996h-53.992a2.997 2.997 0 01-3.003-2.996v-54.008z" stroke-linecap="round" stroke-linejoin="round"/><rect width="44" height="44" x="762" y="1718" stroke="#B5D0E7" stroke-width="2" stroke-linejoin="round" stroke-dasharray="8 8" rx="1"/></g></svg>