<svg xmlns="http://www.w3.org/2000/svg" width="287" height="69" viewBox="0 0 287 69">
  <g fill="none" fill-rule="evenodd">
    <path fill="#393996" d="M232.32,25.6309997 C230.41,29.2799997 227.716,32.4079997 223.546,33.5369997 C222.503,33.7109997 221.375,33.7109997 220.331,33.1899997 C219.028,27.0209997 221.982,20.4189997 226.238,15.8999997 C229.279,12.3379997 233.711,10.2539997 238.489,8.8619997 C233.799,13.2939997 235.448,20.3309997 232.32,25.6309997 L232.32,25.6309997 Z"/>
    <path fill="#393996" d="M230.148 9.9919997C223.285 14.4229997 216.681 22.8509997 218.159 31.6249997 214.51 30.3219997 212.425 26.3259997 211.903 22.4159997 211.556 18.5059997 212.859 14.3359997 216.074 11.9029997 219.722 8.8609997 223.894 5.2129997 223.981-3.00000004e-7 227.63 1.7389997 229.454 6.0829997 230.148 9.9919997L230.148 9.9919997zM86.534 41.1819997L89.749 41.1819997 89.749 35.9689997C89.749 31.7989997 91.487 30.0619997 95.743 30.0619997 97.047 30.0619997 98.35 30.3219997 99.654 30.7559997L99.654 35.5339997C99.046 35.4479997 98.437 35.4479997 98.003 35.4479997 96.526 35.4479997 95.744 36.2289997 95.744 37.5329997L95.744 41.1809997 99.567 41.1809997 99.567 46.2209997 95.744 46.2209997 95.744 67.4189997 89.75 67.4189997 89.75 46.2219997 86.535 46.2219997 86.535 41.1819997 86.534 41.1819997 86.534 41.1819997z"/>
    <polygon fill="#393996" points="101.912 30.235 101.912 30.235 107.907 30.235 107.907 67.419 101.912 67.419"/>
    <path fill="#393996" d="M119.723 45.4409997C121.635 45.4409997 122.069 48.2179997 122.069 54.2149997 122.069 60.1229997 121.635 63.0749997 119.723 63.0749997 117.986 63.0749997 117.29 60.1229997 117.29 54.2149997 117.29 48.2179997 117.899 45.4409997 119.723 45.4409997L119.723 45.4409997zM110.861 54.2999997C110.861 63.3359997 113.988 68.0289997 119.722 68.0289997 125.284 68.0289997 128.498 63.3359997 128.498 54.2999997 128.498 45.0919997 125.456 40.3999997 119.722 40.3999997 113.902 40.3999997 110.861 45.0919997 110.861 54.2999997L110.861 54.2999997 110.861 54.2999997zM135.622 41.1819997L136.926 52.3909997C137.1 53.3439997 137.273 55.2559997 137.447 58.1229997 137.622 55.7779997 137.882 53.7799997 138.142 52.2169997L139.532 41.1819997 144.572 41.1819997 145.875 52.3909997C145.962 53.3439997 146.223 55.2559997 146.396 58.1229997 146.57 55.7779997 146.83 53.7799997 147.091 52.2169997L148.481 41.1819997 152.999 41.1819997 149.351 67.4189997 143.617 67.4189997 142.054 56.8219997C141.793 54.9969997 141.533 53.2599997 141.445 51.5209997 141.273 53.6049997 141.099 55.3419997 140.838 56.8219997L138.926 67.4189997 133.541 67.4189997 130.065 41.1819997 135.622 41.1819997 135.622 41.1819997 135.622 41.1819997zM161.339 51.1729997C161.253 50.6529997 161.253 50.1299997 161.253 49.6969997 161.253 46.9159997 161.861 45.5269997 163.164 45.5269997 164.554 45.5269997 165.074 46.8289997 165.074 49.6089997 165.074 50.0429997 165.074 50.6529997 164.987 51.1719997L161.339 51.1719997 161.339 51.1729997zM171.243 60.2099997L166.725 59.1669997C166.551 61.3379997 165.421 62.6429997 163.946 62.6429997 162.121 62.6429997 161.426 60.8179997 161.426 57.0809997 161.426 56.8219997 161.426 56.4739997 161.426 56.2119997L170.983 56.2119997C171.068 55.5179997 171.068 54.8219997 171.068 54.1289997 171.068 45.0039997 168.203 40.4869997 163.164 40.4869997 157.951 40.4869997 154.649 45.3529997 154.649 54.6489997 154.649 63.2509997 158.211 68.1169997 163.423 68.1169997 167.422 68.1169997 170.115 65.4229997 171.243 60.2099997L171.243 60.2099997zM174.284 41.1819997L180.279 41.1819997 180.279 44.8299997C181.842 42.3979997 184.016 40.9209997 186.969 40.6609997L186.969 47.6099997C185.925 47.4359997 185.144 47.2639997 184.449 47.2639997 181.841 47.2639997 180.278 48.4789997 180.278 50.3039997L180.278 67.4189997 174.283 67.4189997 174.283 41.1819997 174.284 41.1819997zM192.877 58.9059997C193.051 61.7739997 193.746 63.0759997 195.483 63.0759997 196.786 63.0759997 197.83 62.1199997 197.83 60.9919997 197.83 59.4269997 196.96 58.9059997 195.483 57.7749997 191.313 54.6489997 188.273 52.7369997 188.273 48.3049997 188.273 43.5279997 191.313 40.4869997 196.177 40.4869997 200.435 40.4869997 202.954 43.0929997 203.302 48.0469997L198.263 48.8279997C198.263 48.8279997 198.263 48.7409997 198.263 48.6539997 198.263 46.4799997 197.307 45.2659997 196.003 45.2659997 195.048 45.2659997 194.092 46.1349997 194.092 47.2649997 194.092 49.0869997 195.57 49.8689997 197.741 51.3479997 201.651 54.0409997 203.823 56.1249997 203.823 60.1229997 203.823 64.8989997 200.607 68.0289997 195.569 68.0289997 190.704 68.0289997 187.924 65.1619997 187.924 60.2979997 187.924 60.1229997 187.924 59.9489997 187.924 59.6869997L192.877 58.9059997 192.877 58.9059997 192.877 58.9059997z"/>
    <path fill="#769B42" d="M-9.76996262e-15,62.9019997 L3.388,62.9019997 L3.388,42.3989997 L0.088,42.9199997 L0.088,39.1839997 C2.433,38.4899997 4.258,37.3599997 6.082,35.7089997 L9.21,35.7089997 L9.21,62.9019997 L12.598,62.9019997 L12.598,67.5069997 L-9.76996262e-15,67.5069997 L-9.76996262e-15,62.9019997 L-9.76996262e-15,62.9019997 Z"/>
    <polygon fill="#769B42" points="12.946 53.518 12.946 53.518 21.373 53.518 21.373 58.211 12.946 58.211"/>
    <path fill="#769B42" d="M31.018 54.3869997C33.364 56.5609997 34.58 58.2109997 34.58 60.2099997 34.58 62.2059997 33.364 63.5989997 31.713 63.5989997 29.975 63.5989997 29.107 62.2939997 29.107 59.8619997 29.106 58.0369997 29.801 56.0369997 31.018 54.3869997L31.018 54.3869997 31.018 54.3869997zM32.494 47.4369997C30.844 45.6119997 29.975 44.1359997 29.975 42.4859997 29.975 40.5739997 31.018 39.4439997 32.061 39.4439997 33.45 39.4439997 34.406 40.6609997 34.406 42.6579997 34.406 44.3099997 33.711 45.7869997 32.494 47.4369997L32.494 47.4369997zM28.585 51.7809997C25.457 54.2159997 23.98 56.7349997 23.98 60.0359997 23.98 64.8999997 27.108 68.0299997 31.712 68.0299997 36.577 68.0299997 39.705 64.8999997 39.705 59.5129997 39.705 55.9529997 38.228 52.9979997 35.275 50.0429997 37.881 47.6099997 39.097 45.2659997 39.097 42.2239997 39.097 38.0539997 36.317 35.1869997 31.972 35.1869997 27.975 35.1869997 24.935 38.4009997 24.935 43.1799997 24.936 46.3969997 26.152 49.2609997 28.585 51.7809997L28.585 51.7809997 28.585 51.7809997zM48.045 51.4349997C48.045 50.2169997 48.045 49.0869997 48.045 48.1309997 48.045 42.1379997 48.133 39.4439997 49.871 39.4439997 51.695 39.4439997 51.782 42.1379997 51.782 48.1309997 51.782 49.0869997 51.782 50.2169997 51.782 51.4349997 51.782 52.6499997 51.782 53.7809997 51.782 54.8229997 51.782 60.7309997 51.695 63.5109997 49.871 63.5109997 48.133 63.5109997 48.045 60.7309997 48.045 54.8229997 48.045 53.7809997 48.045 52.6499997 48.045 51.4349997L48.045 51.4349997 48.045 51.4349997zM42.052 51.5219997C42.052 62.5549997 44.571 68.0299997 49.957 68.0299997 55.083 68.0299997 57.776 62.4679997 57.776 51.5219997 57.776 40.5739997 55.17 35.1879997 49.783 35.1879997 44.744 35.1879997 42.052 40.6619997 42.052 51.5219997L42.052 51.5219997zM65.944 51.4349997C65.944 50.2169997 65.944 49.0869997 65.944 48.1309997 65.944 42.1379997 66.117 39.4439997 67.855 39.4439997 69.592 39.4439997 69.766 42.1379997 69.766 48.1309997 69.766 49.0869997 69.766 50.2169997 69.766 51.4349997 69.766 52.6499997 69.766 53.7809997 69.766 54.8229997 69.766 60.7309997 69.592 63.5109997 67.855 63.5109997 66.117 63.5109997 65.944 60.7309997 65.944 54.8229997 65.944 53.7809997 65.944 52.6499997 65.944 51.4349997L65.944 51.4349997 65.944 51.4349997zM59.949 51.5219997C59.949 62.5549997 62.555 68.0299997 67.942 68.0299997 72.981 68.0299997 75.761 62.4679997 75.761 51.5219997 75.761 40.5739997 73.068 35.1879997 67.767 35.1879997 62.729 35.1879997 59.949 40.6619997 59.949 51.5219997L59.949 51.5219997 59.949 51.5219997z"/>
    <polygon fill="#769B42" points="78.107 53.518 78.107 53.518 86.534 53.518 86.534 58.211 78.107 58.211"/>
    <path fill="#8FBA75" d="M194.442,15.4659997 C199.915,20.5909997 202.78,28.4099997 206.43,35.3609997 C209.296,43.2669997 212.076,51.6059997 211.12,60.3819997 C211.296,61.9469997 212.512,63.0749997 213.901,62.9019997 C215.292,62.7299997 216.247,61.3389997 216.073,59.6869997 L216.073,60.8179997 C216.247,50.9999997 213.468,41.6169997 209.123,33.3629997 C205.214,26.1519997 201.13,19.0269997 194.961,14.5969997 C194.788,14.4229997 194.441,14.4229997 194.266,14.6839997 C194.18,14.8569997 194.18,15.2909997 194.442,15.4659997 L194.442,15.4659997 Z"/>
    <path fill="#8FBA75" d="M218.246,33.2749997 C214.162,41.8779997 210.861,51.6929997 213.728,61.2499997 C213.902,61.9469997 214.509,62.2939997 215.206,62.2059997 C215.813,62.0349997 216.248,61.3379997 216.074,60.7299997 C214.944,55.0839997 215.118,49.3479997 216.509,43.8749997 C217.378,40.3989997 218.682,37.0979997 219.029,33.5359997 C219.116,33.2749997 219.029,33.1019997 218.767,33.0149997 C218.594,32.9289997 218.334,33.0159997 218.246,33.2749997 L218.246,33.2749997 L218.246,33.2749997 Z"/>
    <path fill="#769B42" d="M208.689 63.5109997C208.689 62.1189997 209.124 60.9909997 210.08 60.0349997 210.947 59.1669997 212.165 58.6439997 213.469 58.6439997 214.859 58.6439997 216.074 59.1659997 216.944 60.0349997 217.9 60.9909997 218.335 62.1189997 218.335 63.5109997 218.335 64.8139997 217.9 66.0309997 216.944 66.8999997 215.987 67.8559997 214.859 68.3759997 213.469 68.3759997 212.165 68.3759997 211.034 67.8559997 210.08 66.8999997 209.124 66.0309997 208.689 64.8139997 208.689 63.5109997L208.689 63.5109997zM230.41 68.0299997C224.935 68.0299997 222.069 63.5989997 222.069 54.9109997 222.069 45.5279997 225.37 40.5749997 230.495 40.5749997 235.188 40.5749997 237.795 43.7889997 237.795 49.9569997 237.795 50.2179997 237.795 50.4789997 237.795 50.8249997L232.407 50.8249997C232.407 50.3919997 232.407 50.0439997 232.407 49.6979997 232.407 46.7429997 231.799 45.2669997 230.67 45.2669997 229.107 45.2669997 228.932 47.6989997 228.932 52.5619997 228.932 59.5999997 229.28 62.8169997 230.932 62.8169997 232.321 62.8169997 233.189 61.0799997 233.189 57.6039997 233.189 57.5169997 233.189 57.3419997 233.189 57.2549997L238.23 57.4299997C238.229 64.2919997 235.275 68.0299997 230.41 68.0299997L230.41 68.0299997zM249.35 45.4409997C251.347 45.4409997 251.784 48.2179997 251.784 54.2999997 251.784 60.2099997 251.263 63.0749997 249.35 63.0749997 247.613 63.0749997 247.005 60.2099997 247.005 54.2999997 247.005 48.3049997 247.612 45.4409997 249.35 45.4409997L249.35 45.4409997zM240.573 54.2999997C240.573 63.3359997 243.702 68.0289997 249.349 68.0289997 254.996 68.0289997 258.211 63.3359997 258.211 54.2999997 258.211 45.0919997 255.17 40.4869997 249.349 40.4869997 243.615 40.4869997 240.573 45.1789997 240.573 54.2999997L240.573 54.2999997 240.573 54.2999997zM261.513 41.1819997L267.508 41.1819997 267.508 43.5279997C269.16 41.6159997 270.81 40.5739997 272.634 40.5739997 274.633 40.5739997 276.023 41.6159997 276.805 43.5279997 278.542 41.6159997 280.193 40.5739997 282.018 40.5739997 284.883 40.5739997 286.102 42.2239997 286.102 45.6989997L286.102 67.4189997 280.106 67.4189997 280.106 47.4369997C280.106 46.3969997 279.67 45.7869997 278.714 45.7869997 278.021 45.7869997 277.326 46.2229997 276.805 47.0919997L276.805 67.4189997 270.81 67.4189997 270.81 47.4369997C270.81 46.3969997 270.289 45.7869997 269.42 45.7869997 268.638 45.7869997 268.028 46.2229997 267.508 47.0919997L267.508 67.4189997 261.513 67.4189997 261.513 41.1819997 261.513 41.1819997 261.513 41.1819997z"/>
  </g>
</svg>
