<svg xmlns="http://www.w3.org/2000/svg" xmlns:xlink="http://www.w3.org/1999/xlink" width="386" height="144" viewBox="0 0 386 144"><defs><path id="a" d="M.06 0h144.506v143.94H.06z"/></defs><g fill="none" fill-rule="evenodd"><mask id="b" fill="#fff"><use xlink:href="#a"/></mask><path fill="#FFF" d="M137.562 53.267c11.613 22.314 8.886 50.414-8.931 70.204-17.821 19.788-45.478 25.439-68.879 16.221-25.271-.951-48.428-17.402-56.7-42.852-8.253-25.409.77-52.278 20.584-67.91C37.112 7.595 62.888-4.185 89.017 1.368c26.175 5.563 44.958 26.871 48.545 51.899zM53.445 84.708h5.126V79.31h-5.126V64.209h-6.214V79.31H35.836c4.58-7.688 7.252-16.576 7.252-22.788h-6.216c0 6.107-2.398 14.992-7.031 23.223v4.963h17.39v8.122h6.214v-8.122zm28.178-3.763c0 4.309-3.051 6.924-7.413 6.924-3.324 0-6.269-1.417-7.96-4.636l-5.288 3c2.835 4.854 7.415 7.251 13.466 7.251 8.996 0 13.739-6.051 13.739-12.648 0-7.195-5.342-11.722-12.267-11.722-2.29 0-5.014.492-7.25 2.073l.818-8.886h16.681v-5.779H64.342l-1.253 19.299 3.816 1.744c1.797-2.235 4.307-3.38 7.36-3.38 4.579 0 7.358 2.619 7.358 6.76zM91.976 92.83h23.714v-5.287h-8.45V56.522h-4.797c-2.345 2.288-5.887 3.652-11.231 4.633l.764 4.907c3.326-.382 7.032-1.471 8.941-2.398v23.879h-8.941v5.287z" mask="url(#b)" opacity=".2"/><path fill="#FFF" d="M137.562 53.267a61.84 61.84 0 01-.746 21.704c-3.136 14.755-11.279 27.161-22.272 35.824-7.461 11.831-18.945 21.226-33.293 25.891a61.916 61.916 0 01-21.499 3.006 61.964 61.964 0 01-18.78-11.629c-11.251-10.126-17.925-23.443-19.904-37.345-6.427-12.33-8.769-26.886-5.651-41.55a61.918 61.918 0 018.219-20.238A61.938 61.938 0 0142.9 18.645c14.258-4.633 28.976-3.826 41.912 1.276 14.034.516 27.972 5.763 39.223 15.891a62.064 62.064 0 0113.527 17.455zM53.445 84.708h5.126V79.31h-5.126V64.209h-6.214V79.31H35.836c4.58-7.688 7.252-16.576 7.252-22.788h-6.216c0 6.107-2.398 14.992-7.031 23.223v4.963h17.39v8.122h6.214v-8.122zm28.178-3.763c0 4.309-3.051 6.924-7.413 6.924-3.324 0-6.269-1.417-7.96-4.636l-5.288 3c2.835 4.854 7.415 7.251 13.466 7.251 8.996 0 13.739-6.051 13.739-12.648 0-7.195-5.342-11.722-12.267-11.722-2.29 0-5.014.492-7.25 2.073l.818-8.886h16.681v-5.779H64.342l-1.253 19.299 3.816 1.744c1.797-2.235 4.307-3.38 7.36-3.38 4.579 0 7.358 2.619 7.358 6.76zM91.976 92.83h23.714v-5.287h-8.45V56.522h-4.797c-2.345 2.288-5.887 3.652-11.231 4.633l.764 4.907c3.326-.382 7.032-1.471 8.941-2.398v23.879h-8.941v5.287z" opacity=".6"/><path fill="#FFF" d="M121.092 58.485c5.93 18.248 2.945 37.252-6.548 52.31-13.979 11.009-32.564 15.965-51.331 11.973-18.859-4.005-33.88-16.192-42.145-32.05-2.502-17.57 2.504-36.086 15.31-50.31C49.184 26.185 67.073 19.27 84.812 19.921c16.638 6.562 30.324 20.227 36.28 38.564zM53.445 84.708h5.126V79.31h-5.126V64.209h-6.214V79.31H35.836c4.58-7.688 7.252-16.576 7.252-22.788h-6.216c0 6.107-2.398 14.992-7.031 23.223v4.963h17.39v8.122h6.214v-8.122zm28.178-3.763c0 4.309-3.051 6.924-7.413 6.924-3.324 0-6.269-1.417-7.96-4.636l-5.288 3c2.835 4.854 7.415 7.251 13.466 7.251 8.996 0 13.739-6.051 13.739-12.648 0-7.195-5.342-11.722-12.267-11.722-2.29 0-5.014.492-7.25 2.073l.818-8.886h16.681v-5.779H64.342l-1.253 19.299 3.816 1.744c1.797-2.235 4.307-3.38 7.36-3.38 4.579 0 7.358 2.619 7.358 6.76zM91.976 92.83h23.714v-5.287h-8.45V56.522h-4.797c-2.345 2.288-5.887 3.652-11.231 4.633l.764 4.907c3.326-.382 7.032-1.471 8.941-2.398v23.879h-8.941v5.287zm78.301-31.617h-10.631v12.536h10.794c4.2 0 6.872-2.506 6.872-6.212 0-3.871-2.837-6.324-7.035-6.324zm7.522 31.617l-7.74-14.609h-10.413V92.83h-5.124V56.525h15.918c7.469 0 12.16 4.197 12.16 10.629 0 5.069-3.163 8.614-7.471 10.141l8.45 15.535h-5.78zm31.935-16.679c-.492-5.455-4.198-8.235-8.67-8.235-4.959 0-8.284 3.437-8.666 8.235h17.336zm4.795 3.653h-22.242c.275 5.884 3.981 9.321 9.542 9.321 3.38 0 6.161-1.311 8.395-3.709l3.161 3.108c-2.888 3.107-6.65 4.96-11.667 4.96-9.211 0-14.499-6.324-14.499-14.715 0-8.345 5.232-14.94 13.903-14.94 8.339 0 13.518 6.211 13.518 14.12 0 .871-.053 1.471-.111 1.855zm14.606 13.68c-5.559 0-9.978-2.181-12.537-6.049l3.488-2.621c2.183 3 5.451 4.581 9.323 4.581 3.815 0 6.596-1.526 6.596-4.581 0-2.886-2.563-3.432-7.797-4.414-5.56-1.035-10.14-2.673-10.14-8.23 0-5.781 5.124-8.341 10.631-8.341 5.343 0 9.268 2.396 11.504 4.741l-3.162 2.998c-2.019-2.343-4.962-3.652-8.395-3.652-2.999 0-5.998 1.092-5.998 3.816 0 2.892 3.214 3.546 7.032 4.257 5.669 1.086 11.069 2.394 11.069 8.447 0 5.395-4.307 9.048-11.614 9.048m36.959-17.333c-.492-5.455-4.2-8.235-8.668-8.235-4.964 0-8.288 3.437-8.672 8.235h17.34zm4.796 3.653h-22.243c.273 5.884 3.979 9.321 9.541 9.321 3.381 0 6.16-1.311 8.395-3.709l3.161 3.108c-2.888 3.107-6.649 4.96-11.665 4.96-9.217 0-14.503-6.324-14.503-14.715 0-8.345 5.234-14.94 13.903-14.94 8.338 0 13.521 6.211 13.521 14.12 0 .871-.057 1.471-.11 1.855zm23.214-2.785c-1.914 2.401-4.69 2.346-8.181 2.949-3.216.541-5.886 1.307-5.886 4.795 0 3.379 2.616 4.798 5.886 4.798 4.142 0 8.181-2.237 8.181-7.633v-4.909zm9.265 15.704c-.926.382-2.344.546-3.274.546-2.666 0-5.066-1.308-5.502-4.525-2.506 3.595-6.323 4.74-9.757 4.74-5.835 0-9.653-3.215-9.653-8.615 0-6.595 5.781-7.958 9.815-8.504 4.359-.597 8.992-.597 8.992-4.195 0-3.162-3.431-4.142-6.429-4.142-3.053 0-6.217 1.032-8.834 2.997l-2.18-3.601c3.326-2.288 6.869-3.595 11.341-3.595 6.432 0 10.956 2.725 10.956 9.266v13.409c0 2.074.654 3.057 2.239 3.057.651 0 1.308-.166 1.689-.436l.597 3.598zM321.682 69.5c-.93-.492-1.965-.874-3.273-.874-3.76 0-7.306 3.326-7.306 9.431V92.83h-4.743V64.483h4.743v4.795c1.91-3.053 4.744-5.341 8.233-5.341 1.635 0 3.054.49 3.871 1.035l-1.525 4.528m26.71 18.043c-2.401 3.434-6.219 5.941-11.455 5.941-8.394 0-13.738-6.377-13.738-14.826 0-8.452 5.344-14.829 13.738-14.829 5.019 0 8.835 2.345 11.289 5.885l-3.544 2.835c-1.691-2.724-4.199-4.415-7.575-4.415-5.51 0-8.89 4.528-8.89 10.524 0 6.05 3.437 10.519 8.831 10.519 3.596 0 6.053-1.799 7.689-4.251l3.655 2.617m5.055 5.287V53.909h4.743v15.263c2.344-3.436 5.56-5.343 9.703-5.343 6.107 0 9.923 3.98 9.923 10.738V92.83h-4.741V75.66c0-3.383-1.039-7.361-6.325-7.361-4.854 0-8.56 3.545-8.56 8.833V92.83h-4.743m28.023-30.052c.489 0 .782-.259.782-.685 0-.408-.293-.649-.782-.649h-1.154v1.334h1.154zm.995 2.446a.252.252 0 01-.232-.149l-.689-1.51c-.022.002-1.228.002-1.228.002v1.403c0 .14-.115.254-.256.254h-.322a.253.253 0 01-.255-.254v-4.067c0-.14.112-.256.255-.256h1.742c.953 0 1.616.595 1.616 1.446 0 .544-.274 1.008-.733 1.261l.688 1.51a.25.25 0 01-.019.245.253.253 0 01-.214.115h-.353z"/><path fill="#FFF" d="M381.137 59.458a3.481 3.481 0 00-3.476 3.477 3.481 3.481 0 003.476 3.478 3.48 3.48 0 003.477-3.478 3.48 3.48 0 00-3.477-3.477zm0 7.759a4.282 4.282 0 010-8.563 4.285 4.285 0 014.282 4.281 4.284 4.284 0 01-4.282 4.282z"/></g></svg>