<svg viewBox="0 0 175 66" xmlns="http://www.w3.org/2000/svg" xmlns:xlink="http://www.w3.org/1999/xlink"><defs><path id="a" d="M.027 0h65.515v65.258H.027z"/></defs><g fill="none" fill-rule="evenodd"><g><mask id="b" fill="#fff"><use xlink:href="#a"/></mask><path d="M62.366 24.15C60.74 12.803 52.224 3.142 40.357.62 28.511-1.897 16.825 3.443 10.716 13.116 1.733 20.203-2.358 32.385 1.384 43.904c3.75 11.538 14.249 18.997 25.706 19.428 10.609 4.179 23.148 1.617 31.227-7.354 8.078-8.972 9.314-21.712 4.05-31.828" fill="#6593B3" mask="url(#b)"/></g><path d="M62.366 24.15a28.138 28.138 0 00-6.133-7.914 28.03 28.03 0 00-17.782-7.204 28.017 28.017 0 00-19.002-.579 28.08 28.08 0 00-8.733 4.663A28.072 28.072 0 006.99 22.29 28.013 28.013 0 009.552 41.13a28.014 28.014 0 009.023 16.93 28.093 28.093 0 008.515 5.273 28.07 28.07 0 009.747-1.363A28.026 28.026 0 0051.93 50.231a28.025 28.025 0 0010.097-16.242c.71-3.33.796-6.652.338-9.84" fill="#2D6A99"/><path d="M54.9 26.515c-2.701-8.313-8.906-14.508-16.449-17.483-8.042-.296-16.153 2.84-21.958 9.288-5.806 6.448-8.076 14.843-6.941 22.809 3.747 7.19 10.557 12.714 19.107 14.53 8.508 1.81 16.934-.437 23.272-5.428 4.303-6.827 5.657-15.443 2.968-23.716" fill="#1C5189"/><path d="M24.23 38.404v3.682h-2.817v-3.682h-7.884v-2.25c2.1-3.732 3.188-7.76 3.188-10.529h2.818c0 2.817-1.212 6.846-3.288 10.332h5.166V29.11h2.817v6.847h2.324v2.447H24.23M37.005 36.698c0-1.878-1.26-3.065-3.336-3.065-1.384 0-2.522.52-3.336 1.532l-1.73-.79.568-8.75h9.886v2.62h-7.562l-.371 4.029c1.013-.717 2.248-.94 3.287-.94 3.14 0 5.561 2.052 5.561 5.314 0 2.991-2.15 5.735-6.229 5.735-2.743 0-4.82-1.087-6.105-3.288l2.398-1.36c.766 1.46 2.101 2.102 3.608 2.102 1.978 0 3.361-1.186 3.361-3.14M41.699 42.086V39.69h4.054V28.863c-.866.42-2.546.914-4.054 1.087l-.346-2.224c2.422-.445 4.028-1.063 5.091-2.1h2.175v14.063h3.831v2.397H41.7" fill="#FFFFFE"/><path d="M77.198 27.752h-4.82v5.683h4.894c1.904 0 3.116-1.136 3.116-2.816 0-1.755-1.287-2.867-3.19-2.867zm3.41 14.334L77.1 35.463h-4.72v6.623h-2.324v-16.46h7.217c3.386 0 5.513 1.903 5.513 4.82 0 2.298-1.434 3.905-3.387 4.597l3.83 7.043h-2.62zM95.087 34.524c-.223-2.473-1.904-3.733-3.931-3.733-2.248 0-3.756 1.558-3.929 3.733h7.86zm2.174 1.657H87.177c.124 2.667 1.805 4.225 4.326 4.225 1.532 0 2.793-.594 3.806-1.681l1.433 1.409c-1.31 1.409-3.015 2.249-5.29 2.249-4.176 0-6.573-2.867-6.573-6.672 0-3.783 2.372-6.773 6.303-6.773 3.78 0 6.129 2.816 6.129 6.402 0 .394-.024.666-.05.84zM103.882 42.383c-2.52 0-4.523-.99-5.683-2.743l1.58-1.188c.99 1.36 2.472 2.077 4.228 2.077 1.73 0 2.99-.692 2.99-2.077 0-1.308-1.162-1.556-3.535-2.001-2.52-.47-4.597-1.212-4.597-3.731 0-2.621 2.323-3.782 4.82-3.782 2.422 0 4.202 1.086 5.215 2.15l-1.433 1.359c-.916-1.063-2.25-1.656-3.806-1.656-1.36 0-2.72.495-2.72 1.73 0 1.311 1.458 1.608 3.189 1.93 2.57.492 5.018 1.085 5.018 3.83 0 2.445-1.953 4.102-5.266 4.102M120.638 34.524c-.223-2.473-1.904-3.733-3.93-3.733-2.25 0-3.757 1.558-3.93 3.733h7.86zm2.175 1.657h-10.084c.123 2.667 1.804 4.225 4.325 4.225 1.533 0 2.793-.594 3.806-1.681l1.433 1.409c-1.31 1.409-3.014 2.249-5.288 2.249-4.179 0-6.575-2.867-6.575-6.672 0-3.783 2.372-6.773 6.303-6.773 3.78 0 6.13 2.816 6.13 6.402 0 .394-.026.666-.05.84zM133.337 34.918c-.867 1.088-2.126 1.064-3.709 1.337-1.458.245-2.668.592-2.668 2.174 0 1.532 1.186 2.175 2.668 2.175 1.878 0 3.71-1.014 3.71-3.46v-2.226zm4.2 7.12c-.42.173-1.062.247-1.484.247-1.208 0-2.296-.593-2.494-2.051-1.136 1.63-2.867 2.149-4.424 2.149-2.645 0-4.376-1.458-4.376-3.906 0-2.99 2.621-3.608 4.45-3.856 1.976-.27 4.077-.27 4.077-1.901 0-1.434-1.556-1.878-2.915-1.878-1.384 0-2.819.468-4.005 1.358l-.988-1.632c1.507-1.037 3.114-1.63 5.141-1.63 2.916 0 4.967 1.235 4.967 4.2v6.08c0 .94.297 1.386 1.015 1.386.296 0 .593-.075.766-.198l.27 1.632zM145.84 31.51c-.421-.224-.89-.397-1.484-.397-1.704 0-3.312 1.508-3.312 4.276v6.697h-2.15V29.235h2.15v2.173c.866-1.384 2.15-2.421 3.733-2.421.74 0 1.384.222 1.755.47l-.692 2.052M157.95 39.69c-1.089 1.556-2.82 2.693-5.194 2.693-3.805 0-6.228-2.891-6.228-6.722 0-3.832 2.423-6.723 6.228-6.723 2.276 0 4.006 1.063 5.118 2.668l-1.606 1.285c-.767-1.235-1.904-2.001-3.435-2.001-2.498 0-4.03 2.053-4.03 4.771 0 2.743 1.558 4.769 4.004 4.769 1.63 0 2.744-.816 3.486-1.927l1.657 1.186M160.242 42.086V24.441h2.15v6.92c1.063-1.558 2.52-2.423 4.399-2.423 2.769 0 4.499 1.804 4.499 4.868v8.28h-2.15v-7.784c0-1.534-.47-3.337-2.867-3.337-2.201 0-3.881 1.607-3.881 4.004v7.117h-2.15" fill="#171816"/><path d="M172.946 28.462c.222 0 .355-.118.355-.311 0-.185-.133-.294-.355-.294h-.523v.605h.523zm.451 1.108a.114.114 0 01-.105-.067l-.312-.685-.557.001v.636a.116.116 0 01-.116.115h-.146a.115.115 0 01-.116-.115v-1.844c0-.063.051-.116.116-.116h.79c.432 0 .732.27.732.656a.638.638 0 01-.332.572l.312.684a.114.114 0 01-.009.111.115.115 0 01-.097.052h-.16z" fill="#1A1919"/><path d="M172.795 26.956c-.868 0-1.576.708-1.576 1.577 0 .87.708 1.577 1.576 1.577a1.578 1.578 0 000-3.154zm0 3.518a1.941 1.941 0 11.003-3.882 1.941 1.941 0 01-.003 3.882z" fill="#1A1919"/></g></svg>