<svg xmlns="http://www.w3.org/2000/svg" width="267" height="101" viewBox="0 0 267 101">
  <path d="M266.7,2.8 L266.7,97.3 C266.7,98.8 265.5,100.1 263.9,100.1 L236.1,100.1 C234.6,100.1 233.3,98.9 233.3,97.3 L233.3,2.8 C233.3,1.3 234.5,0 236.1,0 L263.9,0 C265.4,0 266.7,1.2 266.7,2.8 L266.7,2.8 Z M161.1,51.8 C161.1,70.4 171.5,76.5 189.6,76.5 L219.9,76.5 C221.4,76.5 222.7,77.7 222.7,79.3 C222.7,79.7 222.6,80 222.5,80.4 L214.2,98.4 C213.7,99.4 212.7,100.1 211.6,100.1 L184.4,100.1 C142.2,100.1 123.2,82.8 123.2,53.5 L123.2,46.9 C123.2,17.6 142.2,0.3 184.4,0.3 L211.6,0.3 C212.7,0.3 213.8,1 214.2,2 L222.5,20 C222.7,20.3 222.7,20.7 222.7,21.1 C222.7,22.6 221.5,23.9 219.9,23.9 L189.6,23.9 C171.5,23.9 161.1,29.9 161.1,48.5 L161.1,51.8 Z M2.8,100 C1.3,100 0,98.8 0,97.2 C0,97 0,96.6 0.3,96 L44.3,1.6 C44.8,0.7 45.7,0 46.8,0 L76.4,0 C77.9,0 79.2,1.3 79.2,2.8 C79.2,3.2 79.1,3.5 79,3.8 L34.9,98.4 C34.5,99.3 33.5,100 32.4,100 L2.8,100 Z M93.3,100 C92.3,100 91.2,99.4 90.8,98.4 L71.5,57 C71.3,56.6 71.2,56.2 71.2,55.8 C71.2,55.6 71.2,55.1 71.5,54.6 L86.4,22.7 C86.8,21.8 87.8,21.2 88.9,21.2 C90,21.2 91,21.8 91.4,22.8 L125.6,96.2 C125.8,96.6 125.9,97 125.9,97.4 C125.9,98.9 124.7,100.2 123.1,100.2 L93.3,100 L93.3,100 Z"/>
</svg>
