<svg xmlns="http://www.w3.org/2000/svg" width="177" height="29" viewBox="0 0 177 29">
  <g fill="none" fill-rule="evenodd">
    <path fill="#905753" d="M156.707,0.212 L167.464,0.212 L164.586,7.182 L159.586,7.182 L156.707,0.212 L156.707,0.212 Z M158.525,7.636 L155.798,0.667 L148.374,8.091 L155.344,10.818 L158.525,7.636 L158.525,7.636 Z M165.495,7.636 L168.372,0.667 L175.797,8.091 L168.827,10.818 L165.495,7.636 L165.495,7.636 Z M156.707,28.545 L167.464,28.545 L164.586,21.574 L159.586,21.574 L156.707,28.545 L156.707,28.545 Z M158.525,21.119 L155.798,28.09 L148.374,20.666 L155.344,17.938 L158.525,21.119 Z M165.495,21.119 L168.372,28.09 L175.797,20.666 L168.827,17.938 L165.495,21.119 L165.495,21.119 Z M154.889,11.878 L154.889,16.879 L147.92,19.758 L147.92,9 L154.889,11.878 Z M169.283,11.878 L169.283,16.879 L176.252,19.758 L176.252,9 L169.283,11.878 Z"/>
    <path fill="#000" fill-rule="nonzero" d="M10.958,26.574 L11.109,23.998 L7.322,23.848 L6.261,26.575 L0.504,26.575 L9.897,5.667 L16.866,5.667 L16.715,26.575 L10.958,26.575 L10.958,26.574 Z M11.412,19.455 L11.867,14.605 C11.867,13.241 12.17,11.877 12.321,10.665 L12.17,10.665 C11.715,11.877 11.261,13.241 10.806,14.605 L8.988,19.455 L11.412,19.455 L11.412,19.455 Z M24.593,24.605 C23.533,25.968 22.472,26.878 20.654,26.878 C16.866,26.878 17.018,22.331 17.624,19.302 C18.382,16.271 20.048,11.574 23.987,11.574 C25.654,11.574 26.563,12.483 26.866,13.998 L27.017,13.847 C27.017,13.241 27.169,12.635 27.32,11.877 L28.987,4.302 L34.29,4.453 L29.593,26.573 L23.987,26.573 L24.593,24.605 L24.593,24.605 Z M25.957,19.15 C26.26,17.634 26.412,16.121 25.351,16.121 C24.29,16.121 23.684,17.484 23.381,19.15 C22.927,20.666 22.927,22.181 23.987,22.181 C25.199,22.182 25.653,20.666 25.957,19.15 Z M38.684,14.15 L38.684,14.301 C39.593,12.786 41.259,11.574 42.926,11.424 C44.895,11.424 45.804,12.787 46.107,14.454 C47.016,12.939 48.38,11.424 50.35,11.424 C53.228,11.424 53.834,13.545 53.077,16.726 L50.956,26.423 L45.653,26.423 L47.32,18.544 C47.472,17.937 47.623,16.726 46.866,16.726 C46.108,16.726 45.805,17.181 45.502,17.787 C45.351,18.24 45.199,18.848 45.048,19.455 L43.533,26.574 L38.079,26.424 L39.896,18.393 C40.047,17.635 40.047,16.879 39.441,16.879 C38.684,16.879 38.381,17.332 38.078,17.938 C37.7894247,18.3924968 37.6316515,18.9177158 37.622,19.456 L36.107,26.575 L30.653,26.575 L33.834,11.879 L39.289,11.879 L38.684,14.15 L38.684,14.15 Z M52.016,26.424 L55.198,11.727 L60.652,11.727 L57.471,26.424 L52.016,26.424 L52.016,26.424 Z M66.712,14.454 C67.621,12.939 69.288,11.424 71.106,11.424 C74.288,11.424 74.439,13.999 73.833,16.726 L71.863,26.423 L66.409,26.423 L67.924,18.997 C68.227,17.634 68.379,16.878 67.47,16.878 C66.409,16.878 66.106,17.786 65.803,19.302 L64.288,26.423 L58.834,26.423 L62.016,11.726 L67.47,11.726 L66.712,14.454 L66.712,14.454 Z M72.924,26.424 L76.105,11.727 L81.409,11.727 L78.227,26.424 L72.924,26.424 Z M82.166,21.119 C82.621,21.726 83.53,22.635 84.59,22.635 C85.045,22.635 85.651,22.332 85.802,21.879 C85.954,21.272 85.499,20.969 84.59,20.666 C82.621,19.908 81.257,18.848 81.712,16.271 C82.469,13.241 85.348,11.424 88.681,11.424 C90.196,11.424 91.711,11.878 92.923,12.484 L90.195,16.574 C89.59,15.969 89.134,15.211 88.225,15.211 C87.771,15.211 87.316,15.516 87.165,15.969 C87.013,16.727 88.074,17.03 88.527,17.332 C90.345,18.09 91.71,19.15 91.255,21.424 C90.498,24.756 87.316,26.574 84.286,26.727 C82.316,26.727 80.802,26.12 79.286,25.211 L82.166,21.119 L82.166,21.119 Z M92.165,26.271 L94.286,15.969 L92.771,15.969 L93.681,11.575 L95.347,11.575 L96.256,7.333 L101.559,7.333 L100.649,11.575 L102.468,11.575 L101.559,15.969 L99.741,15.969 L97.468,26.271 L92.165,26.271 L92.165,26.271 Z M113.225,26.271 L107.922,26.271 L108.68,23.847 L108.528,23.695 C107.62,25.361 105.953,26.574 104.287,26.574 C100.498,26.574 100.802,21.574 101.409,18.847 C102.013,15.818 103.984,11.271 107.62,11.271 C109.437,11.271 110.195,12.332 110.649,13.847 L110.953,11.574 L116.408,11.574 L113.225,26.271 Z M108.831,20.666 C109.286,19.908 109.436,19.15 109.436,18.695 C109.635804,18.1103536 109.738168,17.496845 109.739,16.879 C109.739,16.272 109.589,15.666 108.983,15.666 C108.224,15.666 107.921,16.424 107.467,17.182 C107.164,17.938 107.012,18.848 106.861,19.303 C106.861,19.758 106.71,20.514 106.71,20.969 C106.71,21.574 106.861,22.03 107.468,22.03 C108.073,22.029 108.527,21.424 108.831,20.666 L108.831,20.666 Z M115.952,26.119 L118.073,15.818 L116.557,15.818 L117.466,11.574 L119.133,11.574 L119.436,9.757 C120.345,5.968 122.314,3.696 125.497,3.696 C126.405,3.696 127.164,3.848 128.071,4.151 L126.86,9.15 C126.709,8.847 126.405,8.696 125.952,8.696 C125.193,8.696 124.89,9.453 124.588,10.817 L124.436,11.423 L126.406,11.423 L125.498,15.817 L123.527,15.817 L121.256,26.118 L115.952,26.118 L115.952,26.119 L115.952,26.119 Z M126.103,26.119 L128.224,15.818 L126.709,15.818 L127.618,11.424 L129.285,11.424 L129.588,9.757 C130.497,5.968 132.466,3.696 135.648,3.696 C136.557,3.696 137.316,3.848 138.224,3.999 L137.012,9.15 C136.86,8.847 136.557,8.544 136.102,8.544 C135.345,8.544 135.042,9.453 134.74,10.817 L134.588,11.423 L136.558,11.423 L135.649,15.817 L133.679,15.817 L131.558,26.118 L126.103,26.118 L126.103,26.119 L126.103,26.119 Z M134.436,24.453 C134.436,23.545 135.042,22.787 136.102,22.787 C137.012,22.787 137.618,23.545 137.618,24.453 C137.618,25.361 137.013,26.119 136.102,26.119 C135.042,26.119 134.436,25.361 134.436,24.453 Z M137.466,24.453 C137.466,23.695 136.86,23.09 136.102,23.09 C135.193,23.09 134.587,23.695 134.587,24.453 C134.587,25.361 135.192,25.969 136.102,25.969 C136.859,25.969 137.466,25.361 137.466,24.453 Z M136.859,25.514 L136.556,25.514 L135.951,24.606 L135.647,24.606 L135.647,25.514 L135.344,25.514 L135.344,23.545 L136.101,23.545 C136.404,23.545 136.556,23.545 136.556,23.695 C136.708,23.695 136.859,23.847 136.859,24.15 C136.859,24.453 136.556,24.605 136.254,24.605 L136.859,25.514 L136.859,25.514 Z M135.951,24.453 C136.254,24.453 136.709,24.453 136.709,23.998 C136.709,23.848 136.404,23.695 136.102,23.695 L135.648,23.695 L135.648,24.453 L135.951,24.453 Z M172.919,26.879 C172.919,25.969 173.676,25.211 174.585,25.211 C175.494,25.211 176.252,25.969 176.252,26.879 C176.252,27.787 175.494,28.545 174.585,28.545 C173.676,28.545 172.919,27.787 172.919,26.879 Z M176.1,26.879 C176.1,26.119 175.495,25.361 174.585,25.361 C173.827,25.361 173.222,26.119 173.222,26.879 C173.222,27.635 173.827,28.393 174.585,28.393 C175.494,28.393 176.1,27.635 176.1,26.879 Z M175.494,27.787 L175.19,27.787 L174.585,26.879 L174.282,26.879 L174.282,27.787 L173.978,27.787 L173.978,25.969 L175.19,25.969 C175.342,26.119 175.494,26.272 175.494,26.424 C175.494,26.727 175.19,26.879 174.888,26.879 L175.494,27.787 Z M174.585,26.727 C174.888,26.727 175.343,26.727 175.343,26.424 C175.343,26.119 175.04,26.119 174.737,26.119 L174.283,26.119 L174.283,26.726 L174.585,26.726 L174.585,26.727 Z"/>
  </g>
</svg>
