<svg xmlns="http://www.w3.org/2000/svg" viewBox="-111.9 254.8 250.2 286.2"><path d="M121.1 269.2h1.7c2.1 0 3.9-.7 3.9-2.6 0-1.4-1-2.7-3.8-2.7-.9 0-1.4 0-1.9.1l.1 5.2zm0 9.2h-2.9v-16.2c1.4-.2 2.7-.5 4.9-.5 2.6 0 4.2.5 5.2 1.3.9.7 1.4 1.8 1.4 3.4 0 2.1-1.4 3.4-3.1 3.9v.1c1.4.3 2.3 1.6 2.6 4 .4 2.5.7 3.5 1 4h-3c-.4-.5-.7-2-1-4.1-.3-2-1.4-2.7-3.4-2.7h-1.7v6.8zm2.7-20.6c-6.4 0-11.6 5.4-11.6 12.1s5.2 12.1 11.7 12.1c6.4.1 11.5-5.4 11.5-12.1s-5.1-12.1-11.6-12.1c.1 0 0 0 0 0zm.1-2.4c8 0 14.4 6.5 14.4 14.5 0 8.2-6.4 14.6-14.5 14.6s-14.6-6.5-14.6-14.6c0-8 6.5-14.5 14.7-14.5-.1 0 0 0 0 0zM-84.1 515.1l-2.4-14.4c-.7-4.2-1.6-10.6-2.3-15.1h-.2c-.7 4.5-1.7 11.2-2.4 15.2l-2.6 14.4h9.9zm-11.3 9.4l-3.2 16h-11.7l14.6-66.5h14.3l13.2 66.5h-11.7l-3.1-16h-12.4zM-41.5 510.8c0-.9 0-1.9-.2-2.9-.5-3.3-2.2-6.2-5-6.2-4.8 0-6.6 6.9-6.6 15.1 0 9.3 2.5 14.6 6.4 14.6 1.8 0 3.8-.9 5-4.8.3-.8.4-1.8.4-3v-12.8zm12-38.6v54.5c0 4.3.2 9.6.4 13.8h-10.4l-.7-5.5h-.2c-1.7 3.4-5.5 6.3-10 6.3-9.9 0-14.8-10.9-14.8-24.8 0-16.8 7.3-25 15.3-25 4.2 0 6.9 2 8.2 5h.2v-24.3h12zM-4.5 532.1c4.6 0 5.7-8.6 5.7-15.8 0-6.8-1.1-15.6-5.9-15.6-5.1 0-6.1 8.8-6.1 15.6 0 8.2 1.3 15.8 6.2 15.8h.1zm-.3 9.2c-11 0-18-8.9-18-24.8 0-17.3 8.9-25 18.3-25 10.9 0 17.7 9.3 17.7 24.8 0 19.8-10.7 25-18 25zM31.9 523.3c0 1.2.2 2.3.5 3.1 1.2 4 3.2 5 4.9 5 4.6 0 6.5-5.9 6.5-15.3 0-8.6-2-14.4-6.6-14.4-2.3 0-4.2 2.5-4.8 5.1-.2.8-.4 2.1-.4 3v13.5zm-12-51.1h12v25.1h.2c2.4-3.7 5.5-5.8 10.1-5.8 9 0 13.6 10.3 13.6 23.7 0 17-6.8 26.1-15.5 26.1-4.2 0-7-1.9-9.5-6.6h-.3l-.7 5.8H19.5c.2-4 .4-9.5.4-13.8v-54.5zM84.5 511.8c.1-6.8-1.9-11.5-5.7-11.5-4.3 0-6.2 6.4-6.3 11.5h12zm-12.1 8.5c.1 8.7 4.7 11.6 10.4 11.6 3.6 0 6.7-.8 9-1.7l1.6 8.6c-3.2 1.4-8.1 2.2-12.8 2.2-12.9 0-19.9-8.8-19.9-23.8 0-16.1 8.2-25.8 18.8-25.8 10.3 0 16 8.6 16 22.5 0 3.2-.1 5-.3 6.4H72.4z"/><path fill="#ED1C24" d="M18.8 254.8h76.7v183.6M-35.2 254.8h-76.7v183.6M-8.2 322.4l48.9 116h-32l-14.6-37h-35.8"/></svg>