<svg xmlns="http://www.w3.org/2000/svg" width="270" height="51" viewBox="0 0 270 51">
  <path fill="#BA151B" fill-rule="evenodd" d="M13.4003712,23.7223987 C15.2077945,23.7073185 23.1502492,23.7374788 23.1502492,23.7374788 L18.236321,37.5629849 L13.4003712,23.7223987 Z M0.503774695,1.28743252 L17.8444956,48.4455476 C18.0364127,49.2360294 18.8555082,49.8326609 19.8398405,49.8326609 C20.8331951,49.8326609 21.6574461,49.2233982 21.8411143,48.420414 L38.5681903,1.28743252 L30.1695942,1.28743252 L24.4984378,19.4151553 L11.8621989,19.4151553 C9.87458744,13.3306489 7.94368755,7.48020651 6.43825328,1.28743252 L0.503774695,1.28743252 Z M184.884543,48.9314626 L191.455351,48.9314626 L173.712365,27.5236202 C178.027599,21.4843541 192.39367,1.41335797 192.39367,1.41335797 L183.992625,1.42586029 L168.478145,23.9489871 L168.921526,1.39827785 L161.193287,1.38306884 C161.274488,2.24908021 161.193287,49.0622858 161.193287,49.0622858 L169.050416,49.092575 C168.866104,48.0805313 168.47299,28.3543157 168.47299,28.3543157 C168.47299,27.946508 168.47299,28.1076204 168.469123,28.0698557 C168.578679,28.1957811 168.781036,28.4826901 168.971794,28.6815672 C169.7374,29.5475786 184.884543,48.9314626 184.884543,48.9314626 Z M93.3901,44.8809679 C92.1943882,44.8809679 90.7585545,44.8355987 89.5486648,44.7827538 L89.5486648,27.7074172 C90.1311184,27.6670747 90.7142164,27.6369144 91.2966699,27.6369144 C93.0085858,27.6369144 94.0220473,27.6998127 95.6189934,28.0748824 C99.1856353,28.9686051 101.584277,31.9793447 101.584277,36.9637757 C101.584277,39.1060551 101.097073,41.0847731 99.9215967,42.5171268 C98.6417198,44.1433309 98.127449,44.3245501 96.3126789,44.6971709 C95.2570705,44.9010748 94.4676197,44.8809679 93.3901,44.8809679 Z M95.5752997,48.9489916 C99.5671494,49.0170455 105.182883,48.6293446 107.497746,43.2773195 C108.186018,41.6661955 108.706734,39.627157 108.706734,37.7693377 C108.706734,30.061076 103.347491,26.050924 97.8451801,24.5329874 L112.960101,1.41335797 L104.646701,1.42586029 L90.3531957,23.699714 L89.6493279,23.699714 L89.8875164,1.36798872 L82.2693488,1.36798872 L82.2693488,48.9389382 L95.5752997,48.9489916 Z M71.8992525,40.0853607 C68.7409339,43.1666031 64.7867201,45.7544549 59.4785176,45.7544549 C55.2694884,45.7544549 51.6938242,43.7808925 48.7394095,39.7882694 C45.945076,35.9291763 45.0277664,30.4538036 45.0277664,25.2654688 C45.0277664,16.7140093 47.8165576,4.50968052 60.545855,4.50968052 C63.2395255,4.50968052 64.9462858,5.02575576 67.3745719,6.37007763 C67.3745719,6.37007763 67.4989507,21.5323011 67.3745719,23.8885378 L74.4091259,23.8885378 L74.4091259,6.73251608 C74.420726,6.63443085 74.4257527,6.52616332 74.4257527,6.42034469 C74.4257527,4.6557128 73.0306482,3.1225672 71.1742467,2.51343344 C67.14489,1.13895133 63.0396172,0.371154079 58.5411012,0.371154079 C54.6049319,0.371154079 50.7482878,1.42586029 47.2526642,3.45742321 C43.5737593,5.52417308 41.2249982,8.57280636 39.3722056,12.6936749 C37.6604186,16.5856349 37.3305893,20.7367926 37.3305893,24.9307417 C37.3305893,40.9311363 46.8226875,49.6237303 59.6975016,49.6237303 C65.026842,49.6237303 69.0813322,48.60666 73.6000839,46.1572359 C73.6000839,46.1572359 74.63971,45.4523369 74.8245381,45.2811711 L71.8992525,40.0853607 Z M134.448628,50.0944363 C138.103947,50.0944363 142.493937,49.2587141 145.832186,47.1188836 C152.727797,42.6958971 156.211691,35.5087374 156.211691,26.2070097 C156.211691,10.8988827 147.350509,0.439079067 134.337783,0.439079067 C125.56038,0.439079067 118.497212,4.88977689 114.767138,14.470938 C114.078866,16.2961481 113.794019,18.1212294 113.520772,19.9991555 C113.295215,21.7084937 113.181792,23.4227296 113.181792,25.1320677 C113.181792,32.0397941 115.251764,38.537135 119.594065,43.2798973 C123.696631,47.8036758 128.786494,50.0944363 134.448628,50.0944363 Z M147.971759,19.5183961 C148.296561,21.4315092 148.460252,23.5536818 148.460252,25.5323998 C148.460252,31.0755686 147.855758,35.6949833 145.097514,40.0274891 C142.46687,44.1433309 139.020354,46.2252898 135.000277,46.2252898 C131.84763,46.2252898 129.572723,45.1805081 127.024569,42.8972232 C122.43351,38.7561189 120.933231,31.0932265 120.933231,24.1906557 C120.933231,18.800866 121.863817,13.7207987 124.713573,9.7281756 C127.455061,5.92953188 130.584509,4.03897453 134.501473,4.03897453 C141.49504,4.03897453 146.608104,10.5917381 147.971759,19.5183961 Z M197.031129,43.2798973 C201.136273,47.8036758 206.224847,50.0944363 211.885692,50.0944363 C215.541011,50.0944363 219.933579,49.2587141 223.26925,47.1188836 C230.167439,42.6958971 233.648755,35.5087374 233.648755,26.2070097 C233.648755,10.8988827 224.790151,0.439079067 211.774847,0.439079067 C202.997444,0.439079067 195.935565,4.88977689 192.208068,14.470938 C191.514641,16.2961481 191.231083,18.1212294 190.956547,19.9991555 C190.732279,21.7084937 190.618856,23.4227296 190.618856,25.1320677 C190.618856,32.0397941 192.688828,38.537135 197.031129,43.2798973 Z M225.408823,19.5183961 C225.733625,21.4315092 225.897316,23.5536818 225.897316,25.5323998 C225.897316,31.0755686 225.292822,35.6949833 222.534578,40.0274891 C219.903934,44.1433309 216.457418,46.2252898 212.437341,46.2252898 C209.285983,46.2252898 207.009787,45.1805081 204.461633,42.8972232 C199.870574,38.7561189 198.370295,31.0932265 198.370295,24.1906557 C198.370295,18.800866 199.300881,13.7207987 202.153215,9.7281756 C204.894703,5.92953188 208.021573,4.03897453 211.943693,4.03897453 C218.932104,4.03897453 224.045167,10.5917381 225.408823,19.5183961 Z M246.316057,44.7827538 L246.316057,27.7074172 C246.89735,27.6670747 247.481222,27.6369144 248.062515,27.6369144 C249.775462,27.6369144 250.787248,27.6998127 252.385483,28.0748824 C255.950578,28.9686051 258.351797,31.9793447 258.351797,36.9637757 C258.351797,39.1060551 257.863305,41.0847731 256.687829,42.5171268 C255.406663,44.1433309 254.89497,44.3245501 253.0802,44.6971709 C252.023302,44.9010748 251.231918,44.8809679 250.155687,44.8809679 C248.959589,44.8809679 247.523755,44.8355987 246.316057,44.7827538 Z M252.342949,48.9489916 C256.332092,49.0170455 261.949115,48.6293446 264.265267,43.2773195 C264.95225,41.6661955 265.472966,39.627157 265.472966,37.7693377 C265.472966,30.061076 260.113723,26.050924 254.611412,24.5329874 L269.727622,1.41335797 L261.378133,1.42586029 L247.119041,23.699714 L246.416591,23.699714 L246.653748,1.36798872 L239.036354,1.36798872 L239.036354,48.9389382 L252.342949,48.9489916 Z" transform="matrix(1 0 0 -1 0 50.46)"/>
</svg>
