<svg viewBox="0 0 200 256" xmlns="http://www.w3.org/2000/svg" xmlns:xlink="http://www.w3.org/1999/xlink"><defs><path id="a" d="M0 .513h186.588v164.43H0z"/><path d="M1.898 118.683l-.007-.07a828.093 828.093 0 01.007.068C26.046 99.14 41.833 84.375 53.18 68.233c-11.347 16.142-27.13 30.905-51.282 50.45m0-.002v.002-.002M.631 100.15c-.003-.025-.003-.051-.005-.075.002.026.002.048.005.074m-.005-.079l-.002-.048.002.048M18.293 1.91" id="c"/><path d="M2.9 118.68a821.841 821.841 0 01-1.268-18.527v-.003c-.002-.026-.002-.048-.005-.074v-.005l-.002-.048c-1.9-33.434-1.11-56.733-.46-67.78 9.419-3.291 15.69-7.837 16.102-12.221l.143-.02 1.896-18.09a3.1 3.1 0 00-.31-.987l46.32 47.901a93.137 93.137 0 01-4.245 8.544 128.72 128.72 0 01-6.856 10.863C42.861 84.375 27.063 99.14 2.9 118.68" id="e"/><path d="M.67 2.033A3.166 3.166 0 00.335.995l.012.01c.17.34.278.683.323 1.028" id="h"/><path d="M.53.17L.522.097.53.17" id="j"/><linearGradient x1="95.586%" y1="50%" x2="1.968%" y2="50%" id="f"><stop stop-color="#C0242B" offset="0%"/><stop stop-color="#850303" offset="97.173%"/></linearGradient></defs><g fill="none" fill-rule="evenodd"><path d="M76.91 247.997c-.18-.069-.432-.103-.758-.103h-.318v1.448h.507c.306 0 .544-.061.715-.182.171-.124.256-.322.256-.594 0-.272-.135-.462-.402-.569zm-2.382 4.007v-4.987a351.041 351.041 0 012.416.01c.395.029.724.113.984.257.443.245.667.642.667 1.19 0 .42-.118.724-.351.91a1.615 1.615 0 01-.866.333c.315.069.55.162.708.288.295.24.44.612.44 1.12v.447l.01.146.036.146.046.14h-1.244a3.562 3.562 0 01-.083-.69c-.013-.3-.043-.503-.082-.61l-.368-.366-.445-.08-.288-.018h-.274v1.764h-1.306zm-.671-5.11c-.717.733-1.074 1.6-1.074 2.606 0 1.044.363 1.928 1.092 2.659a3.572 3.572 0 002.626 1.092c1.02 0 1.893-.368 2.617-1.099a3.641 3.641 0 001.087-2.652c0-1-.358-1.87-1.08-2.606-.728-.75-1.603-1.124-2.624-1.124-1.034 0-1.916.374-2.644 1.124zm5.793 5.838c-.874.848-1.925 1.268-3.149 1.268-1.267 0-2.334-.432-3.2-1.3-.867-.865-1.301-1.935-1.301-3.2 0-1.316.468-2.408 1.404-3.278.88-.815 1.912-1.222 3.097-1.222 1.24 0 2.3.44 3.179 1.32.88.88 1.32 1.94 1.32 3.18 0 1.28-.45 2.357-1.35 3.232z" fill="#C0242B"/><g transform="translate(6.497 87.5)"><mask id="b" fill="#fff"><use xlink:href="#a"/></mask><path d="M158.26 5.048c-21.661-10.012-46.878-2.87-60.298 15.795 19.654-1.686 35.765 3.113 36.457 8.362l-1.898 18.026-.144.019c.031-.359.053-.718.005-1.072-.916-6.956-17.23-10.552-36.439-8.032-19.206 2.52-34.034 10.204-33.116 17.16.046.356.16.694.285 1.033l-.347.043-6.305-16.947c-.693-5.24 13.581-14.01 32.957-17.466C76.214 2.468 50.42-5.165 28.326 5.048 2.196 17.127-10.31 48.022 10.323 84.463c14.663 25.896 37.647 45.45 82.97 80.48a2758.18 2758.18 0 0010.252-7.963C93.524 98.02 79.45 57.066 79.444 57.054v-.002c-.494-3.735 7.465-7.858 17.78-9.214 10.31-1.351 19.07.579 19.562 4.314 0 0-3.548 34.107 1.197 93.4 29.507-23.732 46.565-40.392 58.281-61.089 20.633-36.44 8.13-67.336-18.004-79.415" fill="#C0242B" mask="url(#b)"/></g><path fill="#C9242C" d="M124.497 233.502v-.002.002"/><path d="M124.064 58.18c-8.025 4.807-14.377 16.408-11.298 28.04 10.83-15.91 43.776-1.552 54.73-38.076-7.302 5.846-16.836 7.517-21.647 6.973 17.954-7.393 28.23-33.66 12.157-51.617 4.737 21.17-22.337 23.008-43.594 26.966C74.486 37.942 67.978 74.733 86.091 93.5c-2.085-22.259 15.742-35.535 37.973-35.32" fill="#C0242B"/><path d="M99.792 109.305c-21.534 2.835-38.015 12.554-37.271 18.194l6.306 17.001.348-.043c-.125-.34-.24-.68-.285-1.037-.919-6.978 13.912-14.686 33.122-17.214 19.212-2.529 35.53 1.08 36.446 8.058.048.355.027.715-.004 1.074l.143-.019 1.9-18.083c-.741-5.64-19.174-10.764-40.705-7.931" fill="#FFFFFE"/><path d="M124.497 234.03c-4.799-59.526-1.21-93.766-1.21-93.766-.497-3.75-9.358-5.688-19.786-4.331-10.432 1.361-18.482 5.5-17.982 9.25v.002c.004.012 14.24 41.125 24.376 100.315a1338.581 1338.581 0 0014.602-11.47" fill="#FFFFFE"/><g transform="translate(122.497 115.5)"><mask id="d" fill="#fff"><use xlink:href="#c"/></mask><path d="M1.898 118.683l-.007-.07a828.093 828.093 0 01.007.068C26.046 99.14 41.833 84.375 53.18 68.233c-11.347 16.142-27.13 30.905-51.282 50.45m0-.002v.002-.002M.631 100.15c-.003-.025-.003-.051-.005-.075.002.026.002.048.005.074m-.005-.079l-.002-.048.002.048M18.293 1.91" mask="url(#d)"/></g><g transform="translate(121.497 115.5)"><mask id="g" fill="#fff"><use xlink:href="#e"/></mask><path d="M2.9 118.68a821.841 821.841 0 01-1.268-18.527v-.003c-.002-.026-.002-.048-.005-.074v-.005l-.002-.048c-1.9-33.434-1.11-56.733-.46-67.78 9.419-3.291 15.69-7.837 16.102-12.221l.143-.02 1.896-18.09a3.1 3.1 0 00-.31-.987l46.32 47.901a93.137 93.137 0 01-4.245 8.544 128.72 128.72 0 01-6.856 10.863C42.861 84.375 27.063 99.14 2.9 118.68" fill="url(#f)" mask="url(#g)"/></g><path d="M124.027 233.67v-.003.003"/><g transform="translate(140.497 115.5)"><mask id="i" fill="#fff"><use xlink:href="#h"/></mask><path d="M.67 2.033A3.166 3.166 0 00.335.995l.012.01c.17.34.278.683.323 1.028" mask="url(#i)"/></g><g transform="translate(123.497 233.5)"><mask id="k" fill="#fff"><use xlink:href="#j"/></mask><path d="M.53.17L.522.097.53.17" mask="url(#k)"/></g></g></svg>