<svg xmlns="http://www.w3.org/2000/svg" width="128" height="41" viewBox="0 0 128 41">
  <g fill="#0057A2">
    <path d="M18.407,14.821 L18.554,14.669 C20.012,13.245 21.278,12.692 23.067,12.692 C26.419,12.692 29.144,15.421 29.144,18.77 L29.144,33.88 C29.144,37.23 26.418,39.958 23.067,39.958 C21.289,39.958 20.026,39.394 18.551,37.958 C18.551,37.958 15.929,35.327 15.396,34.79 C15.582,34.601 18.625,31.559 18.813,31.371 C19.001,31.566 22.04,34.594 22.04,34.594 C22.228,34.804 22.577,34.939 22.96,34.939 C23.691,34.939 24.284,34.344 24.284,33.612 L24.284,19.036 C24.284,18.294 23.704,17.712 22.96,17.712 C22.567,17.712 22.223,17.871 22.021,18.078 C22.021,18.078 21.988,18.089 22.021,18.078 C22.021,18.078 21.017,19.069 13.419,26.634 C13.419,26.634 10.518,29.527 10.326,29.719 C10.146,29.538 7.09,26.488 6.911,26.303 C7.112,26.101 18.407,14.821 18.407,14.821"/>
    <path d="M7.079,34.604 C7.183,34.5 7.767,33.933 12.099,29.604 C12.099,29.604 18.633,23.065 18.83,22.87 C19.018,23.058 22.065,26.059 22.253,26.244 C22.052,26.447 10.589,37.962 10.589,37.962 C9.101,39.397 7.84,39.958 6.08,39.958 C2.728,39.958 0,37.23 0,33.88 L0,18.77 C0,15.421 2.728,12.692 6.08,12.692 C7.848,12.692 9.121,13.249 10.598,14.673 C10.598,14.673 13.208,17.287 13.744,17.818 C13.558,18.002 10.507,21.058 10.323,21.237 C10.131,21.049 7.127,18.038 7.127,18.038 C6.921,17.834 6.566,17.712 6.189,17.712 C5.443,17.712 4.861,18.294 4.861,19.036 L4.861,33.612 C4.861,34.344 5.459,34.939 6.189,34.939 C6.546,34.939 6.862,34.816 7.079,34.604"/>
    <rect width="13.95" height="1.562" x="7.607" y="8.321"/>
    <rect width="1.613" height="4.686" x="13.78" y="2.706"/>
    <path d="M18.313,2.706 C19.44,2.706 20.429,3.658 20.429,4.738 C20.429,5.284 20.222,5.833 19.884,6.169 C19.884,6.169 18.712,7.34 18.659,7.392 L16.387,7.392 C16.659,7.122 18.616,5.165 18.616,5.165 C18.685,5.097 18.767,4.961 18.767,4.792 C18.767,4.56 18.556,4.299 18.258,4.299 L16.28,4.299 L16.28,2.706 L18.313,2.706 Z"/>
    <path d="M21.906 2.706C23.053 2.706 24.024 3.637 24.024 4.738 24.024 5.237 23.795 5.801 23.438 6.172 23.438 6.172 22.355 7.255 22.215 7.392L19.945 7.392C20.217 7.122 22.174 5.165 22.174 5.165 22.244 5.097 22.322 4.961 22.322 4.792 22.322 4.56 22.107 4.299 21.795 4.299L21.325 4.299C21.254 3.775 20.949 3.124 20.323 2.706L21.906 2.706 21.906 2.706zM8.716 4.738C8.716 3.658 9.708 2.706 10.835 2.706L12.865 2.706 12.865 4.299 10.888 4.299C10.588 4.299 10.381 4.56 10.381 4.792 10.381 4.961 10.461 5.097 10.531 5.165 10.531 5.165 12.483 7.122 12.759 7.392L10.488 7.392C10.436 7.342 9.26 6.169 9.26 6.169 8.925 5.833 8.716 5.284 8.716 4.738"/>
    <path d="M5.119 4.738C5.119 3.637 6.09 2.706 7.242 2.706L8.819 2.706C8.192 3.128 7.888 3.775 7.816 4.299L7.35 4.299C7.039 4.299 6.823 4.56 6.823 4.792 6.823 4.961 6.902 5.097 6.97 5.165 6.97 5.165 8.676 6.868 9.2 7.392L6.928 7.392C6.878 7.342 5.708 6.172 5.703 6.169 5.351 5.799 5.119 5.237 5.119 4.738M13.533 1.036C13.533.467 14.001 0 14.575 0 15.145 0 15.61.467 15.61 1.036 15.61 1.609 15.145 2.072 14.575 2.072 14.001 2.072 13.533 1.609 13.533 1.036M106.49 39.658L101.672 39.658 101.672 13.567 106.49 13.567 106.49 39.658zM65.166 13.567L65.166 22.866 65.323 22.866 65.33 22.85C66.662 20.628 68.837 20.163 70.433 20.163 75.165 20.163 77.274 22.609 77.274 28.085L77.274 39.724 72.295 39.724 72.295 29.025C72.295 25.74 71.327 24.331 69.069 24.331 66.297 24.331 65.166 25.91 65.166 29.778L65.166 39.658 60.189 39.658 60.189 13.567 65.166 13.567zM127.559 13.567L127.559 39.658 122.723 39.658C122.72 39.599 122.667 37.504 122.667 37.504L122.508 37.504 122.497 37.525C121.446 39.381 119.056 39.953 118.345 40.078 117.97 40.14 117.544 40.186 117.238 40.186 111.441 40.186 108.853 35.079 108.853 30.021 108.853 25.268 111.438 20.155 117.118 20.155 117.458 20.155 117.843 20.196 118.346 20.283 119.861 20.593 121.419 21.364 122.619 22.403L122.692 22.411 122.723 22.411 122.723 13.567 127.559 13.567zM113.772 30.156C113.772 32.997 114.955 36.303 118.285 36.303L118.351 36.303C121.22 36.269 122.927 33.948 122.927 30.101 122.927 27.211 121.726 24.099 118.351 24.037L118.285 24.033C115.417 24.033 113.772 26.267 113.772 30.156L113.772 30.156zM79.602 30.021C79.602 23.922 83.415 19.978 89.315 19.978L89.334 19.978C95.266 19.978 99.103 23.922 99.103 30.021 99.103 36.165 95.266 40.133 89.334 40.133 83.414 40.133 79.602 36.165 79.602 30.021L79.602 30.021zM84.379 30.021C84.379 31.926 84.86 36.362 89.315 36.362L89.334 36.362C93.646 36.342 94.287 32.38 94.287 30.021 94.287 27.655 93.645 23.683 89.334 23.662 84.86 23.662 84.379 28.109 84.379 30.021L84.379 30.021zM49.721 13.567C49.736 13.61 58.382 39.572 58.41 39.658L53.255 39.658C53.237 39.613 51.303 33.046 51.303 33.046L42.972 33.046C42.972 33.046 41.038 39.613 41.026 39.658L35.928 39.658C35.957 39.572 44.538 13.61 44.552 13.567L49.721 13.567zM47.185 19.181L47.067 19.181 44.066 29.348 50.212 29.348 47.209 19.181 47.185 19.181 47.185 19.181z"/>
  </g>
</svg>
