<svg viewBox="0 0 941 483" xmlns="http://www.w3.org/2000/svg"><g fill="#233776"><path d="M2.39 2.04C188.93 1.8 375.47 2 562 1.94c105.67 0 211.33-.01 317 0V476c-292.2-.02-584.39.04-876.58-.03.01-157.98.05-315.96-.03-473.93M39 38.5v400.74c267.75.01 535.49.01 803.24 0 .01-133.58.01-267.16 0-400.73C574.5 38.49 306.75 38.5 39 38.5z"/><path d="M617.04 102c24.89-3.45 50.83-.9 74.11 8.82 22.32 9.27 40.52 25.96 56.5 43.71-9.52 9.36-19.3 18.45-28.85 27.78-11.19-14.89-25.26-28.08-42.39-35.8-17.88-8.27-38.37-9.7-57.6-6.11-34.36 6.18-63.76 32.94-74.33 66.03-5.34 17.23-6.12 35.78-2.93 53.49 3.31 17.63 11.9 34.21 24.46 47.02 13.53 13.93 30.48 25.07 49.5 29.69 16.96 4.08 35.31 3.18 51.45-3.67 13.27-5.62 24.96-14.76 34.01-25.95 8.16-10.19 13.24-22.74 14.6-35.72-22.11-.13-44.23.05-66.34-.09.04-12.65 0-25.3.02-37.95 36.75-.02 73.49.01 110.24-.01.13 18.97-.7 38.17-5.58 56.6-4.67 18.52-14.99 35.27-28.06 49.06-11.92 12.58-26.41 22.85-42.54 29.28-19.71 7.97-41.41 10.11-62.47 8.25-21.57-1.89-42.62-9.37-60.46-21.65-27.94-19.27-49.73-48.34-57.49-81.64-5.56-23.92-5.15-49.26 1.34-72.95 8.84-32.02 30.74-59.55 58.19-77.82 16.32-10.87 35.21-17.74 54.62-20.37zM97.83 372c41.3-88.77 82.57-177.55 123.96-266.27 5.18.04 10.36.03 15.54 0 39.92 88.73 79.72 177.51 119.58 266.27-14.83-.09-29.67.19-44.5-.14-9.02-21.54-18.49-42.89-27.68-64.36-37.89 0-75.77.01-113.65 0-9.86 21.44-19.78 42.85-29.49 64.35-14.58.34-29.17.06-43.76.15m130.95-192.12c-13.52 29.93-27.37 59.7-40.84 89.64 24.05-.05 48.09 0 72.14-.02 2.73-.05 5.48.19 8.19-.22-13.06-29.32-25.67-58.86-38.65-88.22-.21-.29-.63-.88-.84-1.18zm169.7 192.09c.06-88.74-.03-177.49.05-266.23 13.41.03 26.82-.01 40.23.02-.01 88.75-.01 177.49 0 266.23-13.43 0-26.85.04-40.28-.02zm517 66.68c6.57-1.89 14.07.07 18.82 5.01 7.01 7.11 6.73 20.16-.85 26.77-6.02 5.8-16.04 6.44-23.01 1.99-5.54-3.4-8.91-9.96-8.48-16.45-.11-7.98 5.88-15.33 13.52-17.32m.91 2.94c-8.91 2.33-13.4 13.36-9.59 21.52 2.74 6.95 11.05 10.96 18.19 8.65 8.98-2.51 13.39-13.87 9.29-22.04-2.88-6.67-10.99-10.34-17.89-8.13z"/><path d="M913.24 445.76c4.43.3 9.11-.77 13.37.77 5.08 2.51 3.35 11.47-2.54 11.62 2.05 3.1 4.09 6.22 6.07 9.39-1.03-.03-3.07-.08-4.09-.1-1.78-2.81-3.5-5.65-5.34-8.41-.72-1.33-2.53-.58-3.69-.85-.03 3.11-.04 6.21-.02 9.33-1.27-.02-2.52-.03-3.76-.02.01-7.25 0-14.49 0-21.73m3.76 3c-.01 2.16-.01 4.31 0 6.48 2.32-.06 4.71.28 6.99-.35 2.58-.73 2.63-5.1-.01-5.8-2.27-.64-4.66-.26-6.98-.33z"/></g></svg>