<svg xmlns="http://www.w3.org/2000/svg" viewBox="0 0 206.1 91.5"><path fill="#231F20" d="M152 34.9C150.4 15.4 134 0 114.2 0c-13.7 0-26.3 7.5-33 19.2-3.3-2.3-7.2-3.6-11.3-3.6-10.7 0-19.5 8.6-19.7 19.3-9.6 5.2-15.6 15.3-15.6 26.4 0 16.6 13.5 30.1 30.1 30.1h72.9c16.6 0 30.1-13.5 30.1-30.1.1-11-6-21.1-15.7-26.4zm-14.4 52.5H64.7c-14.4 0-26-11.7-26-26.1 0-10.8 6.5-20 15.8-24-.1-.7-.2-1.4-.2-2.1 0-8.6 7-15.6 15.6-15.6 5.2 0 9.7 2.5 12.6 6.4 4.8-12.9 17.2-22.1 31.7-22.1 18.6 0 33.6 14.9 33.9 33.5 9.2 4 15.6 13.2 15.6 23.9 0 14.5-11.7 26.1-26.1 26.1z"/><path fill="none" d="M167.8 61.4c0 6.1-1.8 11.8-5 16.5h24.6c8.9 0 16.2-7.3 16.2-16.2 0-6.7-4.1-12.4-9.8-14.9.1-.4.1-.9.1-1.3 0-5.4-4.4-9.7-9.7-9.7-3.2 0-6.1 1.6-7.8 4-3-8-10.7-13.7-19.7-13.7-2.1 0-4.2.3-6.1.9.8 2.5 1.3 5.2 1.5 7.9 9.5 5.3 15.7 15.4 15.7 26.5zM33.3 19.8c-11.5 0-20.9 9.3-21.1 20.8-5.7 2.5-9.7 8.2-9.7 14.8 0 8.9 7.3 16.2 16.2 16.2h17.7c-1.2-3.2-1.8-6.7-1.8-10.3 0-11.1 6-21.2 15.6-26.4 0-1.9.3-3.7.9-5.4-3.8-5.8-10.3-9.7-17.8-9.7z"/><path fill="#231F20" d="M196.4 45.3c-.1-6.7-5.6-12-12.2-12-2.6 0-5 .8-7 2.2-4.1-7.3-12-12-20.5-12-2.4 0-4.7.4-6.9 1.1.3.8.6 1.6.8 2.4 1.9-.6 4-.9 6.1-.9 9 0 16.7 5.7 19.7 13.7 1.8-2.4 4.6-4 7.8-4 5.4 0 9.7 4.4 9.7 9.7 0 .4-.1.9-.1 1.3 5.8 2.5 9.8 8.2 9.8 14.9 0 8.9-7.3 16.2-16.2 16.2h-24.6c-.6.9-1.2 1.7-1.9 2.5h26.5c10.3 0 18.7-8.4 18.7-18.7 0-6.9-3.7-13.1-9.7-16.4zM18.7 71.7c-8.9 0-16.2-7.3-16.2-16.2 0-6.6 4-12.3 9.7-14.8.1-11.5 9.5-20.8 21.1-20.8 7.5 0 14 3.9 17.8 9.8.3-1 .7-1.9 1.1-2.8-4.4-5.8-11.4-9.5-18.9-9.5C21 17.3 10.8 26.9 9.8 39 3.8 42.3 0 48.6 0 55.5c0 10.3 8.4 18.7 18.7 18.7h18.7c-.4-.8-.7-1.7-1.1-2.5H18.7z"/><g><g fill="#F90"><path d="M68.7 62.2c1.1.6 13.9 8.5 31.7 8.4 14.6-.1 23.4-4.5 24.2-4.8 2-.8 3.1.6 1.2 1.9 0 0-10 7.7-26 7.7s-25.3-6.9-32.1-12.2c-.8-.6-.2-1.7 1-1z"/><path d="M120.6 62.7c.8-.5 3.8-2.3 7.5-2.1 3.8.2 4.7.5 4.4 2.7-.3 3-1.3 6.6-4.4 9.3-1.1.7-1-.3-.7-1 .3-.7 1.9-4.5 1.9-6.6.1-2.2-2.3-1.6-3.4-1.7-1.1-.1-4.3.3-4.9.4-.7.1-1.1-.5-.4-1z"/></g><path d="M83.3 50.1h-8.4v5.4h9.4v4.2H69.8V37h14v4.2h-8.9V46h8.4v4.1zM111 59.2c-.9.4-3.1 1-5.8 1-7.9 0-11.9-4.9-11.9-11.4 0-7.8 5.5-12.1 12.4-12.1 2.7 0 4.7.5 5.6 1l-1.1 4.1c-1-.4-2.5-.8-4.3-.8-4.1 0-7.2 2.5-7.2 7.5 0 4.6 2.7 7.4 7.3 7.4 1.6 0 3.3-.3 4.3-.7l.7 4zM120.2 59.8V55s2.2-.8 4.5-2.8c2.7-2.3 5.5-6 5.5-7.4 0-1.8-1-3.2-3.6-3.2-1.9 0-3.5.9-4.7 1.8l-1.5-3.6c1.6-1.3 4.2-2.3 7.2-2.3 5 0 7.7 2.9 7.7 6.9 0 3.5-2.3 6.2-5.2 8.9-.2.2 1.5-.8 5.6 2.4v4.2c-6.8-5.1-15.5-.1-15.5-.1z"/></g></svg>