<svg xmlns="http://www.w3.org/2000/svg" viewBox="0 0 580 217.5"><path fill="#FCB134" d="M161.2 75l-33.7-11.3V15l33.8 10-.1 50M170 25l33.8-10-.1 48.7L170 75V25M196.9 9.7L165.4 0l-31 9.7 31.1 8.3 31.4-8.3M246.2 75l-33.7-11.3V15l33.8 10-.1 50M255 25l33.8-10-.1 48.7L255 75V25M281.9 9.7L250.4 0l-31 9.7 31.1 8.3 31.4-8.3M33.8 96.2L0 86.2V135l33.7 11.2.1-50M42.5 96.2l33.8-10-.2 48.8-33.6 11.3V96.2M69.4 81l-31.5-9.7-31 9.7L38 89.3 69.4 81M118.7 146.2L85 135V86.2l33.8 10-.1 50M127.5 96.2l33.8-10-.1 48.7-33.6 11.3v-50M154.4 81l-31.5-9.7-31 9.7 31.1 8.3 31.4-8.3M76.2 217.5l-33.7-11.2v-48.8l33.8 10-.1 50M85 167.5l33.8-10-.1 48.7L85 217.5v-50M111.9 152.2l-31.5-9.7-31 9.7 31.1 8.3 31.4-8.3"/><path fill="#100F0D" d="M225.5 174.4H223c-.9 0-2.1.6-2.4 1.6l-7.5 26.5-7.4-26.4c-.2-.8-1-1.7-2.1-1.7h-2.9c-1.1 0-1.8.9-2 1.7l-6.9 26.2-7.2-26.3c-.3-1-1.5-1.6-2.4-1.6h-3.6c-.8 0-1.5.3-1.9.9-.3.4-.3.8-.2 1.1l11.1 39.1c.2.8 1 1.7 2 1.7h3.5c1 0 1.8-.7 2-1.7l6.8-26.1 7.4 26.1c.2.8.9 1.7 2 1.7h3.5c1 0 1.8-.7 2-1.7l10.6-39.1c.1-.4.1-.8-.2-1.1-.3-.6-1-.9-1.7-.9M256.2 191h-18.7c.4-5.3 3.8-10.7 9.6-10.9 6.1.2 8.9 5.5 9.1 10.9zm-9.2-16.9c-12.7 0-18.4 11.2-18.4 21.6 0 13 7.2 21.4 18.3 21.4 7.9 0 14-4 16.6-11 .1-.4.1-.8-.1-1.2-.3-.5-.8-.8-1.4-1l-3.5-.7c-.9-.1-2 .4-2.4 1.2-1.7 3.9-4.8 6.1-8.7 6.2-3.8-.1-7.2-2.3-8.8-5.7-1.3-2.7-1.5-5.4-1.5-8.1h25.5c.5 0 1.1-.2 1.5-.6.3-.3.5-.7.5-1.1-.1-10.2-4.8-21-17.6-21M295.8 195.8c0 2.4-.4 14.4-8.9 14.7-2.8-.1-5.7-1.8-7.3-4.3-1.2-1.9-1.9-4.5-2.1-7.7v-7c.1-5.4 3.9-11.3 9.4-11.5 8.5.3 8.9 13.2 8.9 15.8zm-7.6-22h-.7c-4.2 0-7.5 1.7-10 5.3v-16.5c0-.9-1-1.8-2-1.8h-3.7c-1 0-2 .8-2 1.8v51.5c0 .9 1 1.8 2 1.8h1.1c1 0 1.7-.8 2-1.6l1.1-3.6c2.7 3.8 6.7 6 11 6h.7c11.3 0 16.3-11 16.3-21.9 0-5.4-1.3-10.6-3.7-14.2-2.7-4.2-7.3-6.8-12.1-6.8M344.1 194.6c-2.4-1.7-5.2-2.3-8.1-2.9l-5.5-1c-3.9-.6-6.2-1.7-6.2-5.2 0-3.7 3.8-5.1 7-5.2 3.9.1 6.9 1.9 8.4 5 .3.7 1.1 1.2 1.9 1.2h.4l3.4-.8c.6-.1 1.1-.5 1.4-1 .2-.4.3-.8.1-1.2-2.1-6.1-7.4-9.3-15.5-9.3-7.3 0-15.1 3.3-15.1 12.3 0 6.2 3.9 10.1 11.6 11.7l6.2 1.2c3.4.6 6.8 1.8 6.8 5.4 0 5.4-6.2 5.9-8.1 6-4.2-.1-9-2-10.2-6-.2-.9-1.3-1.5-2.3-1.3l-3.6.7c-.5.1-1 .5-1.3.9-.2.4-.3.8-.2 1.2 1.9 6.6 8.3 10.6 17.1 10.7h.2c7.9 0 16.4-3.4 16.4-12.9-.1-3.8-1.8-7.3-4.8-9.5M380.3 191.1h-18.8c.4-5.3 3.8-10.7 9.6-10.9 6.3.1 9.1 5.5 9.2 10.9zm-9.1-16.9c-12.7 0-18.4 11.2-18.4 21.6 0 13 7.2 21.4 18.3 21.4 7.9 0 14-4 16.6-11 .1-.4.1-.8-.1-1.2-.3-.5-.8-.8-1.4-1l-3.5-.7c-.8-.1-2 .3-2.4 1.2-1.7 3.9-4.8 6.1-8.7 6.2-3.8-.1-7.2-2.4-8.8-5.7-1.3-2.7-1.5-5.4-1.5-8.1h25.4c.5 0 1.1-.2 1.5-.6.3-.3.5-.7.5-1.1-.1-10.2-4.7-21-17.5-21M412.7 174.6c-.5-.1-1-.1-1.4-.1-4.3 0-7.7 2.3-10.1 6.8v-3.9c0-.9-.9-1.8-2-1.8H396c-1 0-2 .8-2 1.8v37.7c0 .9.9 1.8 2 1.8h3.7c1 0 2.1-.8 2.1-1.8v-19c0-3.1.3-5.5 1.8-8.3 2.1-4 5.1-5.9 9.1-6 1 0 1.9-.9 1.9-1.9v-3.5c-.1-.8-.9-1.6-1.9-1.8M451.6 173.9h-2.9c-.9 0-2.1.7-2.4 1.6l-9.5 29.8-9.7-29.8c-.3-1-1.5-1.7-2.4-1.7h-4.2c-.8 0-1.5.3-1.9.9-.3.4-.3.8-.2 1.1l13.3 39.4c.3.8.9 1.7 2 1.7h5.1c.9 0 1.7-.6 2-1.7l12.9-39.3c.1-.4.1-.8-.2-1.1-.3-.6-1.1-.9-1.9-.9M461.3 158.8c-2.7 0-4.9 2.2-4.9 4.9s2.2 4.9 4.9 4.9 4.9-2.2 4.9-4.9-2.2-4.9-4.9-4.9M463.3 173.7h-4c-1.1 0-2.1.9-2.1 1.9v40.1c0 .5.2 1 .7 1.3.4.3.9.5 1.4.5h4c1.1 0 2.1-.9 2.1-1.8v-40.1c0-1.1-1-1.9-2.1-1.9M500.8 200.8h-3.4c-.9 0-1.7.6-2.1 1.5-1.2 5.3-4 8-8.2 8.1-8.2-.2-8.8-11.7-8.8-15.2 0-7 2.4-14.5 9.2-14.7 4.1.1 7 3 7.9 7.8.2 1 .9 1.7 1.9 1.8h3.6c1.1-.1 1.9-.9 1.9-1.9-1.3-8.6-7.2-14.1-15.2-14.1h-.6c-11.6 0-16.7 10.8-16.7 21.5 0 9.8 4.4 21.3 16.7 21.3h.6c7.8 0 13.6-5.4 15.3-14.2 0-.4-.1-.8-.4-1.2-.4-.4-1-.6-1.7-.7M533.9 191.1h-18.8c.4-5.3 3.8-10.7 9.6-10.9 6.3.1 9.1 5.5 9.2 10.9zm-9.1-16.9c-12.7 0-18.4 11.2-18.4 21.6 0 13 7.2 21.4 18.3 21.4 7.9 0 14-4 16.6-11 .1-.4.1-.8-.1-1.2-.3-.5-.8-.8-1.4-1l-3.5-.7c-.8-.1-2 .3-2.4 1.2-1.7 3.9-4.8 6.1-8.7 6.2-3.8-.1-7.2-2.4-8.8-5.7-1.3-2.7-1.5-5.4-1.5-8.1h25.5c.5 0 1.1-.2 1.5-.6.3-.3.5-.7.5-1.1-.2-10.2-4.8-21-17.6-21M574.2 194.6c-2.4-1.7-5.2-2.3-8.1-2.9l-5.5-1c-3.9-.6-6.2-1.7-6.2-5.2 0-4.7 5.9-5.1 7-5.2 4 .1 6.9 1.9 8.4 5 .3.7 1.1 1.2 1.9 1.2h.4l3.4-.8c.6-.1 1.1-.5 1.4-1 .2-.4.3-.8.1-1.2-2.1-6.1-7.4-9.3-15.5-9.3-7.3 0-15.1 3.3-15.1 12.3 0 6.2 3.9 10.1 11.6 11.7l6.2 1.2c3.4.6 6.8 1.8 6.8 5.4 0 5.4-6.2 5.9-8.1 6-3.9-.1-9-1.7-10.2-6-.2-.9-1.3-1.5-2.3-1.3l-3.6.7c-.5.1-1 .5-1.3.9-.2.4-.3.8-.2 1.2 1.8 6.6 8.3 10.6 17.1 10.7h.2c7.9 0 16.4-3.4 16.4-12.9 0-3.8-1.8-7.3-4.8-9.5M410.9 96.5v-9.1c0-1.4 1.1-2.3 2.3-2.3H454c1.3 0 2.4.9 2.4 2.3v7.8c0 1.3-1.1 3-3.1 5.7l-21.1 30.2c7.8-.2 16.1 1 23.2 5 1.6.9 2 2.2 2.2 3.5v9.7c0 1.3-1.5 2.9-3 2.1-12.5-6.6-29.2-7.3-43.1.1-1.4.8-2.9-.8-2.9-2.1v-9.2c0-1.5 0-4 1.5-6.3l24.5-35.1h-21.3c-1.4 0-2.4-.9-2.4-2.3M262.2 153.3h-12.4c-1.2-.1-2.1-1-2.2-2.1V87.5c0-1.3 1.1-2.3 2.4-2.3h11.6c1.2.1 2.2 1 2.3 2.1v8.3h.2c3-8 8.7-11.8 16.3-11.8 7.8 0 12.6 3.7 16.1 11.8 3-8 9.8-11.8 17.1-11.8 5.2 0 10.9 2.1 14.4 7 3.9 5.4 3.1 13.1 3.1 20V151c0 1.3-1.1 2.3-2.4 2.3h-12.4c-1.2-.1-2.2-1.1-2.2-2.3v-33.8c0-2.7.2-9.4-.3-11.9-.9-4.3-3.7-5.5-7.3-5.5-3 0-6.1 2-7.4 5.2-1.3 3.2-1.2 8.6-1.2 12.2V151c0 1.3-1.1 2.3-2.4 2.3H283c-1.2-.1-2.2-1.1-2.2-2.3v-33.8c0-7.1 1.2-17.5-7.6-17.5-8.9 0-8.6 10.2-8.6 17.5v33.7c0 1.4-1.1 2.4-2.4 2.4M491.5 96.9c-9.2 0-9.7 12.5-9.7 20.2 0 7.8-.1 24.4 9.6 24.4 9.6 0 10.1-13.4 10.1-21.6 0-5.4-.2-11.8-1.9-16.9-1.3-4.3-4.1-6.1-8.1-6.1zm-.1-13c18.4 0 28.4 15.8 28.4 35.9 0 19.4-11 34.8-28.4 34.8-18.1 0-27.9-15.8-27.9-35.5 0-19.8 10-35.2 27.9-35.2M543.7 153.3h-12.4c-1.2-.1-2.2-1.1-2.2-2.3V87.3c.1-1.2 1.1-2.1 2.4-2.1H543c1.1.1 2 .8 2.2 1.8v9.7h.2c3.5-8.7 8.3-12.9 16.9-12.9 5.6 0 11 2 14.5 7.5 3.2 5.1 3.2 13.7 3.2 19.8v40.1c-.1 1.1-1.1 2-2.4 2h-12.4c-1.1-.1-2.1-.9-2.2-2v-34.6c0-7 .8-17.1-7.8-17.1-3 0-5.8 2-7.2 5.1-1.7 3.9-2 7.8-2 12.1V151c.1 1.3-1 2.3-2.3 2.3M400.5 141.6c-2.3-3.1-4.7-5.7-4.7-11.5v-19.3c0-8.2.6-15.7-5.5-21.3-4.8-4.6-12.7-6.2-18.7-6.2-11.8 0-25 4.4-27.7 19-.3 1.5.8 2.4 1.9 2.6l12 1.3c1.1-.1 1.9-1.2 2.2-2.3 1-5 5.2-7.4 10-7.4 2.6 0 5.5.9 7 3.2 1.7 2.5 1.5 6 1.5 9v1.6c-7.2.8-16.6 1.3-23.3 4.3-7.8 3.4-13.2 10.2-13.2 20.3 0 12.9 8.1 19.3 18.6 19.3 8.8 0 13.6-2.1 20.4-9 2.3 3.3 3 4.8 7.1 8.3.9.5 2.1.4 2.9-.3 2.5-2.2 7-6.1 9.5-8.2 1-.9.8-2.2 0-3.4zm-24.4-5.5c-2 3.5-5.1 5.6-8.6 5.6-4.8 0-7.5-3.6-7.5-9 0-10.6 9.5-12.5 18.4-12.5v2.7c0 4.8.1 8.9-2.3 13.2z"/><g fill="#100F0D"><path d="M237.9 141.6c-2.3-3.1-4.7-5.7-4.7-11.5v-19.3c0-8.2.6-15.7-5.5-21.3-4.8-4.6-12.6-6.2-18.7-6.2-11.8 0-25 4.4-27.7 19-.3 1.5.8 2.4 1.9 2.6l12 1.3c1.1-.1 1.9-1.2 2.2-2.3 1-5 5.2-7.4 10-7.4 2.5 0 5.5.9 7 3.2 1.7 2.5 1.5 6 1.5 9v1.6c-7.2.8-16.6 1.3-23.3 4.3-7.8 3.4-13.2 10.2-13.2 20.3 0 12.9 8.1 19.3 18.6 19.3 8.8 0 13.6-2.1 20.5-9 2.3 3.3 3 4.8 7.1 8.3.9.5 2.1.4 2.9-.3 2.5-2.2 7-6.1 9.5-8.2.9-.9.7-2.2-.1-3.4zm-24.4-5.5c-2 3.5-5.1 5.6-8.6 5.6-4.8 0-7.5-3.6-7.5-9 0-10.6 9.5-12.5 18.4-12.5v2.7c0 4.8.1 8.9-2.3 13.2z"/></g></svg>