<svg viewBox="0 0 185 77" xmlns="http://www.w3.org/2000/svg"><path d="M93.5 0V37.9l7-8.3h3.7V47h-3.7V37l.1-2.5v-.1l-7.1 8.4V76.7h90.6V0H93.5zm-3.9 43v-.2l-7-8.4-.1-.1.1 2.7v10h-3.7V29.6h3.7l7 8.3V0H0v76.6h89.6V43zm-46.1 4l-2.7-4.9h-6.5l1.8-3.4H39l-3.3-6v-.1l-3.8 6.8-4.2 7.6h-4.2l10-17.5h4.3l10 17.5h-4.3zm24.6 0l-7.2-6.3v-3.4h5.6c1.9 0 2.9-.7 2.9-2.2 0-1.5-1-2.2-2.9-2.2H56.1V47h-3.7V29.6h13.9c5.6 0 6.7 3 6.7 5.6 0 4.5-3.6 5.5-6.7 5.5H66l7.7 6.4-5.6-.1zm87 0l-7.2-6.3v-3.4h5.6c1.9 0 2.9-.7 2.9-2.2 0-1.5-1-2.2-2.9-2.2h-10.4V47h-3.7V29.6h13.9c5.6 0 6.7 3 6.7 5.6 0 4.5-3.6 5.5-6.7 5.5h-.3l7.7 6.4-5.6-.1zm-24.5-2.2c-2.1 1.7-5.1 2.6-8.8 2.6-3.7 0-6.7-.9-8.8-2.6-1.9-1.6-3-3.9-3-6.5s1-4.9 3-6.5c2.1-1.7 5.1-2.6 8.8-2.6 3.7 0 6.7.9 8.8 2.6 1.9 1.6 3 3.9 3 6.5s-1.1 4.9-3 6.5zm-8.8-12.2c-5.1 0-8 2.1-8 5.7s2.9 5.7 8 5.7 8-2.1 8-5.7-2.9-5.7-8-5.7z" fill="#F60" fill-rule="evenodd"/></svg>