<svg xmlns="http://www.w3.org/2000/svg" width="783" height="199" viewBox="0 0 783 199">
  <g fill="#1A1919" fill-rule="evenodd">
    <path d="M111.949 80.392C114.287 79.438 115.407 76.77 114.453 74.433 113.498 72.095 110.83 70.975 108.493 71.929L87.835 80.366C85.497 81.32 82.766 80.044 81.812 77.707 80.857 75.369 81.892 72.492 84.23 71.537L142.073 47.915C144.411 46.96 147.164 48.29 148.119 50.627 149.074 52.965 148.016 55.788 145.679 56.743L125.02 65.18C122.682 66.134 121.562 68.802 122.516 71.14 123.471 73.477 126.138 74.598 128.476 73.643L180.114 52.555C182.451 51.6 183.572 48.933 182.617 46.595 181.662 44.258 178.995 43.137 176.657 44.092L162.208 49.993C159.87 50.947 157.137 49.672 156.183 47.335 155.228 44.997 156.265 42.119 158.603 41.165L167.806 37.406C170.144 36.451 171.265 33.784 170.31 31.446 169.355 29.108 166.688 27.988 164.35 28.942L45.32 77.553C42.982 78.507 41.862 81.175 42.817 83.513 43.771 85.85 46.439 86.971 48.776 86.016L67.7 78.288C70.038 77.333 72.792 78.663 73.746 81 74.701 83.337 73.644 86.161 71.306 87.116L4.44 114.423C2.102 115.377.982 118.045 1.936 120.383 2.891 122.72 5.559 123.841 7.896 122.886L111.949 80.392zM99.653 120.826C98.698 118.488 96.031 117.368 93.693 118.322L17.857 149.292C15.52 150.247 14.399 152.915 15.354 155.252 16.308 157.59 18.976 158.71 21.314 157.756L97.149 126.786C99.487 125.831 100.607 123.164 99.653 120.826zM6.301 103.363L32.249 92.765C34.587 91.811 35.707 89.143 34.753 86.806 33.798 84.468 31.131 83.348 28.793 84.302L2.844 94.899C.507 95.854-.614 98.522.341 100.859 1.295 103.197 3.963 104.317 6.301 103.363zM151.653 124.701L196.052 106.569C198.389 105.614 199.51 102.946 198.555 100.609 197.601 98.272 194.933 97.151 192.595 98.106L30.208 164.424C27.871 165.378 26.75 168.046 27.705 170.383 28.659 172.721 31.327 173.842 33.665 172.887L135.594 131.259C137.932 130.305 140.68 131.623 141.635 133.96 142.59 136.298 141.537 139.132 139.199 140.087L47.496 177.538C45.158 178.492 44.037 181.16 44.992 183.497 45.947 185.835 48.615 186.956 50.952 186L84.118 172.456C86.456 171.501 89.203 172.816 90.158 175.153 91.113 177.491 90.061 180.33 87.724 181.284L72.718 187.413C70.38 188.367 69.26 191.035 70.215 193.372 71.169 195.709 73.837 196.83 76.174 195.875L132.111 173.032C134.448 172.078 137.194 173.388 138.148 175.726 139.103 178.063 138.053 180.904 135.716 181.858L116.1 189.869C113.762 190.824 112.642 193.492 113.597 195.829 114.552 198.167 117.219 199.287 119.556 198.333L155.701 183.571C158.039 182.617 159.159 179.949 158.205 177.612 157.25 175.274 154.583 174.154 152.245 175.108 149.907 176.063 147.169 174.769 146.215 172.431 145.26 170.094 146.303 167.236 148.64 166.281L182.317 152.528C184.655 151.574 185.775 148.906 184.821 146.569 183.865 144.231 181.198 143.11 178.861 144.065L104.253 174.534C101.915 175.489 99.177 174.197 98.223 171.86 97.268 169.522 98.31 166.661 100.648 165.706L193.592 127.749C195.93 126.793 197.051 124.126 196.096 121.789 195.141 119.451 192.473 118.331 190.136 119.285L155.258 133.529C153.049 134.155 150.591 132.842 149.701 130.666 148.813 128.49 149.637 125.8 151.653 124.701zM32.272 128.169C31.317 125.832 28.65 124.711 26.312 125.666L9.562 132.506C7.224 133.461 6.104 136.128 7.058 138.466 8.013 140.804 10.681 141.924 13.018 140.97L29.768 134.129C32.106 133.174 33.226 130.507 32.272 128.169zM40.337 124.875C41.292 127.213 43.959 128.334 46.297 127.379L119.01 97.684C121.347 96.729 124.1 98.052 125.054 100.389 126.009 102.727 124.952 105.556 122.615 106.511L110.221 111.572C107.884 112.527 106.763 115.194 107.718 117.532 108.672 119.87 111.34 120.99 113.677 120.036L154.993 103.163C157.331 102.208 158.451 99.541 157.497 97.203 156.542 94.865 153.875 93.745 151.537 94.7L139.144 99.761C136.807 100.714 134.074 99.433 133.12 97.095 132.165 94.758 133.202 91.888 135.539 90.933L187.175 69.845C189.512 68.89 190.633 66.223 189.678 63.885 188.723 61.548 186.056 60.427 183.719 61.382L42.841 118.916C40.503 119.871 39.382 122.538 40.337 124.875zM165.562 93.909C166.516 96.247 169.184 97.367 171.522 96.413L194.236 87.136C196.573 86.182 197.694 83.514 196.74 81.177 195.785 78.839 193.117 77.719 190.78 78.673L168.065 87.95C165.728 88.904 164.607 91.572 165.562 93.909zM19.154 57.764L66.029 38.622C68.366 37.667 69.487 35 68.532 32.662 67.577 30.324 64.909 29.204 62.572 30.158L15.698 49.301C13.361 50.256 12.24 52.923 13.195 55.261 14.149 57.598 16.817 58.719 19.154 57.764zM46.377 26.473L88.086 9.44C90.423 8.485 91.544 5.818 90.589 3.48 89.635 1.143 86.967.022 84.63.977L42.921 18.01C40.583 18.964 39.463 21.632 40.417 23.97 41.372 26.307 44.04 27.428 46.377 26.473zM8.584 82.256L151.224 24.004C153.562 23.049 154.682 20.382 153.728 18.044 152.773 15.707 150.106 14.586 147.768 15.541L114.302 29.208C111.965 30.163 109.236 28.892 108.282 26.554 107.327 24.216 108.36 21.334 110.697 20.379L126.884 13.769C129.221 12.814 130.342 10.147 129.387 7.809 128.433 5.472 125.765 4.351 123.427 5.306L79.102 23.408C76.764 24.362 75.644 27.03 76.598 29.368 77.553 31.705 80.221 32.826 82.558 31.871L94.617 26.946C96.955 25.992 99.684 27.262 100.638 29.6 101.592 31.934 100.562 34.811 98.232 35.769L98.232 35.771 5.128 73.793C2.79 74.748 1.67 77.415 2.624 79.753 3.579 82.09 6.246 83.211 8.584 82.256L8.584 82.256zM318.57 78.491C318.57 75.616 317.585 73.172 315.616 71.166 313.647 69.162 311.225 68.158 308.347 68.158L258.381 68.158 258.381 91.438C259.894 90.605 261.505 89.943 263.207 89.45 264.911 88.959 266.708 88.711 268.601 88.711L318.57 88.711 318.57 78.491zM308.347 57.143C311.301 57.143 314.063 57.71 316.638 58.845 319.212 59.981 321.464 61.515 323.395 63.444 325.326 65.375 326.84 67.629 327.937 70.203 329.035 72.776 329.585 75.538 329.585 78.491L329.585 142.426C328.449 142.426 327.217 142.219 325.893 141.801 324.569 141.388 323.376 140.743 322.316 139.872 321.256 139.001 320.366 137.922 319.649 136.635 318.926 135.349 318.57 133.835 318.57 132.093L318.57 99.727 258.381 99.727 258.381 132.093C258.381 133.835 258.022 135.349 257.302 136.635 256.582 137.922 255.692 139.001 254.635 139.872 253.572 140.743 252.38 141.388 251.055 141.801 249.731 142.219 248.501 142.426 247.365 142.426L247.365 78.491C247.365 75.538 247.913 72.776 249.013 70.203 250.109 67.629 251.625 65.375 253.556 63.444 255.485 61.515 257.737 59.981 260.312 58.845 262.885 57.71 265.65 57.143 268.601 57.143L308.347 57.143 308.347 57.143zM359.572 97.911C359.572 99.653 360.198 101.167 361.446 102.454 362.695 103.74 364.189 104.385 365.932 104.385L428.278 104.385 428.278 121.078C428.278 124.029 427.728 126.793 426.63 129.367 425.532 131.942 424.019 134.194 422.088 136.123 420.157 138.054 417.905 139.57 415.331 140.665 412.756 141.765 409.993 142.313 407.04 142.313L348.443 142.313C348.443 139.133 349.446 136.503 351.453 134.421 353.457 132.339 355.898 131.297 358.779 131.297L417.262 131.297 417.262 115.4 365.819 115.4C363.394 115.4 361.123 114.944 359.005 114.036 356.885 113.126 355.03 111.878 353.441 110.289 351.849 108.698 350.601 106.844 349.692 104.725 348.785 102.604 348.33 100.334 348.33 97.911 348.33 95.489 348.785 93.218 349.692 91.096 350.601 88.978 351.849 87.123 353.441 85.531 355.03 83.942 356.885 82.693 359.005 81.785 361.123 80.876 363.394 80.422 365.819 80.422L428.278 80.422C428.278 83.603 427.291 86.232 425.324 88.315 423.356 90.397 420.933 91.438 418.056 91.438L359.572 91.438 359.572 97.911M507.015 57.143C507.015 60.323 506.01 62.953 504.006 65.035 501.999 67.117 499.558 68.158 496.68 68.158L474.649 68.272 474.649 132.207C474.649 135.084 473.608 137.506 471.526 139.473 469.444 141.444 466.814 142.426 463.634 142.426L463.634 68.272 441.603 68.158C438.725 68.158 436.283 67.117 434.28 65.035 432.273 62.953 431.269 60.323 431.269 57.143L507.015 57.143M514.983 105.747L572.901 105.747 572.901 101.884C572.901 99.009 571.914 96.568 569.948 94.561 567.978 92.555 565.556 91.551 562.678 91.551L514.983 91.551 514.983 105.747zM514.983 116.762L514.983 121.191C514.983 124.069 515.966 126.491 517.937 128.458 519.903 130.429 522.325 131.411 525.203 131.411L572.219 131.411C575.094 131.486 577.537 132.565 579.544 134.647 581.548 136.73 582.552 139.36 582.552 142.54L525.203 142.54C522.252 142.54 519.488 141.973 516.914 140.837 514.339 139.702 512.087 138.167 510.158 136.236 508.227 134.308 506.711 132.055 505.615 129.48 504.515 126.907 503.968 124.142 503.968 121.191L503.968 101.884C503.968 98.934 504.515 96.169 505.615 93.596 506.711 91.023 508.227 88.768 510.158 86.839 512.087 84.908 514.339 83.374 516.914 82.238 519.488 81.103 522.252 80.536 525.203 80.536L562.678 80.536C565.632 80.536 568.394 81.103 570.969 82.238 573.543 83.374 575.795 84.908 577.726 86.839 579.657 88.768 581.171 91.023 582.268 93.596 583.366 96.169 583.916 98.934 583.916 101.884L583.916 116.762 514.983 116.762 514.983 116.762zM679.601 134.534C681.606 136.617 682.612 139.247 682.612 142.426L623.898 142.426C620.948 142.426 618.183 141.879 615.61 140.781 613.034 139.683 610.782 138.167 608.853 136.236 606.922 134.308 605.406 132.037 604.311 129.423 603.211 126.812 602.663 124.029 602.663 121.078L602.663 101.771C602.663 98.818 603.211 96.056 604.311 93.482 605.406 90.909 606.922 88.655 608.853 86.726 610.782 84.794 613.034 83.281 615.61 82.181 618.183 81.086 620.948 80.536 623.898 80.536L682.612 80.536C682.612 83.716 681.606 86.346 679.601 88.428 677.594 90.51 675.189 91.551 672.389 91.551L613.678 91.551 613.678 121.078C613.678 123.956 614.66 126.396 616.632 128.401 618.598 130.408 621.021 131.411 623.898 131.411L672.389 131.411C675.189 131.411 677.594 132.452 679.601 134.534M702.784 67.023C702.784 64.145 703.825 61.723 705.907 59.754 707.99 57.787 710.619 56.8 713.8 56.8L713.8 83.147C716.904 81.407 720.311 80.536 724.019 80.536L761.495 80.536C764.448 80.536 767.21 81.086 769.786 82.181 772.359 83.281 774.611 84.794 776.542 86.726 778.473 88.655 780.006 90.909 781.141 93.482 782.277 96.056 782.846 98.818 782.846 101.771L782.733 132.207C782.733 133.949 782.371 135.443 781.654 136.692 780.931 137.941 780.044 139.001 778.984 139.872 777.924 140.743 776.75 141.388 775.464 141.801 774.175 142.219 772.926 142.426 771.717 142.426L771.717 101.771C771.717 98.896 770.73 96.474 768.763 94.504 766.795 92.536 764.372 91.551 761.495 91.551L713.8 91.551 713.8 132.207C713.8 135.084 712.759 137.506 710.676 139.473 708.594 141.444 705.964 142.426 702.784 142.426L702.784 67.023M450.742 175.92C450.742 174.06 451.361 172.602 452.602 171.545 453.841 170.488 455.582 169.96 457.822 169.96 460.062 169.96 461.958 170.199 463.508 170.678L463.508 173.553C462.041 173.018 460.253 172.75 458.139 172.75 455.236 172.75 453.785 173.849 453.785 176.046L453.785 178.076C453.785 179.062 453.975 179.837 454.355 180.4 454.736 180.964 455.377 181.5 456.279 182.007L461.182 184.754C463.465 185.995 464.606 187.869 464.606 190.376L464.606 192.659C464.606 194.604 463.944 196.111 462.619 197.182 461.295 198.253 459.386 198.789 456.892 198.789 454.398 198.789 452.418 198.507 450.953 197.943L450.953 195.069C452.615 195.688 454.504 195.999 456.617 195.999 459.942 195.999 461.605 194.83 461.605 192.49L461.605 190.715C461.605 189.785 461.437 189.053 461.097 188.517 460.76 187.981 460.154 187.475 459.28 186.995L454.419 184.332C451.968 183.008 450.742 181.035 450.742 178.414L450.742 175.92"/>
    <polyline points="468.875 170.171 481.177 170.171 481.177 172.834 471.876 172.834 471.876 182.937 479.992 182.937 479.992 185.6 471.876 185.6 471.876 195.914 481.177 195.914 481.177 198.577 468.875 198.577 468.875 170.171"/>
    <path d="M485.233 175.962C485.233 171.961 487.77 169.96 492.842 169.96 494.476 169.96 496.111 170.186 497.745 170.636L497.745 173.426C496.083 172.947 494.421 172.708 492.757 172.708 491.094 172.708 489.926 172.997 489.249 173.574 488.573 174.151 488.234 175.004 488.234 176.131L488.234 192.659C488.234 193.758 488.579 194.597 489.27 195.174 489.96 195.752 491.173 196.041 492.906 196.041 494.638 196.041 496.281 195.816 497.83 195.364L497.83 198.112C496.421 198.563 494.759 198.789 492.842 198.789 487.77 198.789 485.233 196.788 485.233 192.786L485.233 175.962M513.386 170.171L516.387 170.171 516.387 192.321C516.387 194.322 515.788 195.935 514.591 197.161 513.392 198.387 511.611 199 509.243 199 506.876 199 505.093 198.387 503.896 197.161 502.698 195.935 502.1 194.322 502.1 192.321L502.1 170.171 505.101 170.171 505.101 192.237C505.101 194.941 506.481 196.294 509.243 196.294 512.005 196.294 513.386 194.941 513.386 192.237L513.386 170.171M525.009 184.543L528.771 184.543C531.42 184.543 532.745 183.261 532.745 180.697L532.745 176.681C532.745 174.117 531.42 172.834 528.771 172.834L525.009 172.834 525.009 184.543zM529.194 187.164L525.009 187.164 525.009 198.577 522.008 198.577 522.008 170.171 528.898 170.171C531.153 170.171 532.857 170.742 534.012 171.883 535.168 173.024 535.746 174.582 535.746 176.554L535.746 180.739C535.746 183.782 534.534 185.755 532.111 186.657L536.634 198.577 533.336 198.577 529.194 187.164 529.194 187.164z"/>
    <polygon points="541.324 198.577 544.326 198.577 544.326 170.171 541.324 170.171"/>
    <polyline points="561.657 170.171 561.657 172.834 556.162 172.834 556.162 198.577 553.118 198.577 553.118 172.834 547.624 172.834 547.624 170.171 561.657 170.171"/>
    <path d="M572.182 198.577L569.181 198.577 569.181 188.981 562.207 170.171 565.291 170.171 568.167 177.907C568.278 178.217 569.138 180.739 570.745 185.473 571.787 182.233 573.576 177.132 576.114 170.171L579.157 170.171 572.182 188.981 572.182 198.577M582.517 198.831C581.291 198.831 580.677 198.19 580.677 196.907 580.677 195.625 581.291 194.984 582.517 194.984 583.742 194.984 584.356 195.625 584.356 196.907 584.356 198.19 583.742 198.831 582.517 198.831M596.191 176.215C596.191 174.271 596.833 172.743 598.115 171.629 599.397 170.517 601.377 169.96 604.054 169.96 605.857 169.96 607.562 170.199 609.169 170.678L609.169 173.553C607.505 173.018 605.801 172.75 604.054 172.75 602.306 172.75 601.059 173.053 600.312 173.658 599.566 174.265 599.192 175.173 599.192 176.385L599.192 192.659C599.192 194.941 600.546 196.083 603.251 196.083 605.026 196.083 606.295 195.787 607.055 195.195L607.055 184.628 610.057 184.628 610.057 197.098C608.055 198.225 605.872 198.789 603.505 198.789 598.629 198.789 596.191 196.788 596.191 192.786L596.191 176.215M626.627 170.171L629.628 170.171 629.628 192.321C629.628 194.322 629.029 195.935 627.832 197.161 626.634 198.387 624.852 199 622.484 199 620.117 199 618.334 198.387 617.137 197.161 615.939 195.935 615.341 194.322 615.341 192.321L615.341 170.171 618.342 170.171 618.342 192.237C618.342 194.941 619.722 196.294 622.484 196.294 625.245 196.294 626.627 194.941 626.627 192.237L626.627 170.171M638.335 188.009L644.802 188.009 641.548 173.088 638.335 188.009zM647.127 198.577L645.393 190.63 637.786 190.63 636.052 198.577 633.051 198.577 639.476 170.171 643.703 170.171 650.129 198.577 647.127 198.577 647.127 198.577zM656.763 184.543L660.526 184.543C663.174 184.543 664.499 183.261 664.499 180.697L664.499 176.681C664.499 174.117 663.174 172.834 660.526 172.834L656.763 172.834 656.763 184.543zM660.948 187.164L656.763 187.164 656.763 198.577 653.762 198.577 653.762 170.171 660.653 170.171C662.907 170.171 664.611 170.742 665.767 171.883 666.923 173.024 667.501 174.582 667.501 176.554L667.501 180.739C667.501 183.782 666.289 185.755 663.866 186.657L668.389 198.577 665.091 198.577 660.948 187.164 660.948 187.164zM676.165 188.009L682.633 188.009 679.378 173.088 676.165 188.009zM684.958 198.577L683.224 190.63 675.616 190.63 673.882 198.577 670.881 198.577 677.306 170.171 681.533 170.171 687.959 198.577 684.958 198.577 684.958 198.577zM704.19 193.758L703.894 184.417 703.894 170.171 706.895 170.171 706.895 198.577 703.428 198.577 697.595 183.867C697.369 183.275 696.256 180.331 694.256 175.032L694.51 184.332 694.51 198.577 691.593 198.577 691.593 170.171 695.059 170.171C699.539 181.556 702.583 189.419 704.19 193.758"/>
    <polyline points="724.226 170.171 724.226 172.834 718.73 172.834 718.73 198.577 715.687 198.577 715.687 172.834 710.192 172.834 710.192 170.171 724.226 170.171"/>
    <polyline points="727.522 170.171 739.823 170.171 739.823 172.834 730.523 172.834 730.523 182.937 738.639 182.937 738.639 185.6 730.523 185.6 730.523 195.914 739.823 195.914 739.823 198.577 727.522 198.577 727.522 170.171"/>
    <polyline points="744.302 170.171 756.604 170.171 756.604 172.834 747.303 172.834 747.303 182.937 755.42 182.937 755.42 185.6 747.303 185.6 747.303 195.914 756.604 195.914 756.604 198.577 744.302 198.577 744.302 170.171"/>
    <path d="M772.369 176.596C772.369 174.06 771.031 172.792 768.354 172.792L764.085 172.792 764.085 195.914 768.354 195.914C771.031 195.914 772.369 194.618 772.369 192.025L772.369 176.596zM761.083 170.171L768.524 170.171C770.778 170.171 772.482 170.75 773.638 171.904 774.793 173.06 775.371 174.609 775.371 176.554L775.371 192.109C775.371 194.111 774.807 195.688 773.68 196.844 772.552 198 770.862 198.577 768.608 198.577L761.083 198.577 761.083 170.171 761.083 170.171zM781.015 198.831C779.789 198.831 779.175 198.19 779.175 196.907 779.175 195.625 779.789 194.984 781.015 194.984 782.24 194.984 782.854 195.625 782.854 196.907 782.854 198.19 782.24 198.831 781.015 198.831"/>
  </g>
</svg>
