<?xml version="1.0" encoding="UTF-8" standalone="no"?>
<svg
   xmlns:dc="http://purl.org/dc/elements/1.1/"
   xmlns:cc="http://creativecommons.org/ns#"
   xmlns:rdf="http://www.w3.org/1999/02/22-rdf-syntax-ns#"
   xmlns:svg="http://www.w3.org/2000/svg"
   xmlns="http://www.w3.org/2000/svg"
   xmlns:sodipodi="http://sodipodi.sourceforge.net/DTD/sodipodi-0.dtd"
   xmlns:inkscape="http://www.inkscape.org/namespaces/inkscape"
   viewBox="0 0 554.24396 289.31439"
   height="289.31439"
   width="554.24396"
   xml:space="preserve"
   version="1.1"
   id="svg2"
   inkscape:version="0.48.5 r10040"
   sodipodi:docname="life_.svg"><sodipodi:namedview
     pagecolor="#ffffff"
     bordercolor="#666666"
     borderopacity="1"
     objecttolerance="10"
     gridtolerance="10"
     guidetolerance="10"
     inkscape:pageopacity="0"
     inkscape:pageshadow="2"
     inkscape:window-width="1366"
     inkscape:window-height="706"
     id="namedview46"
     showgrid="false"
     fit-margin-top="0"
     fit-margin-left="0"
     fit-margin-right="0"
     fit-margin-bottom="0"
     inkscape:zoom="1.7372385"
     inkscape:cx="276.82471"
     inkscape:cy="140.0044"
     inkscape:window-x="-8"
     inkscape:window-y="-8"
     inkscape:window-maximized="1"
     inkscape:current-layer="svg2" /><metadata
     id="metadata8"><rdf:RDF><cc:Work
         rdf:about=""><dc:format>image/svg+xml</dc:format><dc:type
           rdf:resource="http://purl.org/dc/dcmitype/StillImage" /></cc:Work></rdf:RDF></metadata><defs
     id="defs6" /><g
     transform="matrix(1.25,0,0,-1.25,-0.6752925,298.685)"
     id="g10"><g
       transform="scale(0.1,0.1)"
       id="g12"><path
         id="path14"
         style="fill:#ed1c24;fill-opacity:1;fill-rule:evenodd;stroke:none"
         d="m 1064.43,2278.18 -365.09,0 -7.594,-258.01 366.784,0 c 3.37,96.96 5.9,182.97 5.9,258.01"
         inkscape:connector-curvature="0" /><path
         id="path16"
         style="fill:#ed1c24;fill-opacity:1;fill-rule:evenodd;stroke:none"
         d="m 430.363,2278.18 -361.7224,0 C 70.3281,2031.13 49.25,1454.4 5.40234,548.832 L 352.793,547.145 c 0,223.441 25.293,800.175 77.57,1731.035"
         inkscape:connector-curvature="0" /><path
         id="path18"
         style="fill:#ed1c24;fill-opacity:1;fill-rule:evenodd;stroke:none"
         d="m 1040.82,1826.24 -353.289,0 C 677.414,1257.1 661.395,831.293 640.313,548.832 L 1013,547.145 c -2.53,113.828 6.74,539.625 27.82,1279.095"
         inkscape:connector-curvature="0" /><path
         id="path20"
         style="fill:#ed1c24;fill-opacity:1;fill-rule:evenodd;stroke:none"
         d="m 1233.07,1833.83 -43.85,-259.7 181.28,1.69 -32.04,-1026.988 359.2,-1.687 9.27,1025.305 236.09,0 52.28,263.91 -294.27,0 0,39.63 c 0,107.92 13.49,172.01 39.63,189.71 32.04,24.46 134.91,34.57 307.76,32.04 l 48.06,241.99 c -143.34,6.75 -247.89,6.75 -313.66,0 -125.64,-8.43 -222.6,-43 -290.05,-107.08 -64.93,-61.55 -100.34,-182.13 -107.09,-360.88 l 0,-37.94 -152.61,0"
         inkscape:connector-curvature="0" /><path
         id="path22"
         style="fill:#ed1c24;fill-opacity:1;fill-rule:evenodd;stroke:none"
         d="m 3101.54,1635.68 c -111.3,139.97 -270.66,209.95 -478.08,209.95 -169.48,3.37 -315.35,-43 -440.13,-138.28 -162.74,-124.79 -252.12,-297.64 -268.13,-520.24 -14.34,-198.985 36.25,-360.036 153.46,-481.45 107.92,-111.301 261.38,-170.324 459.52,-177.066 176.23,-5.059 336.43,10.117 482.3,43.847 l 51.43,263.911 c -117.2,-51.434 -266.44,-77.575 -446.03,-77.575 -166.11,0 -268.98,48.067 -311.14,143.344 -25.29,53.961 -37.94,110.449 -37.94,170.319 l 7.59,73.36 942.66,0 3.38,29.51 c 11.8,190.56 -27.82,344.01 -118.89,460.37 z m -708.27,-79.26 c 54.81,58.18 128.17,87.69 222.61,86.85 93.58,0.84 165.25,-35.41 214.16,-107.08 37.1,-59.03 51.43,-124.79 43.84,-198.15 l -4.21,-32.04 -577.58,2.53 c 5.91,98.65 39.63,181.28 101.18,247.89"
         inkscape:connector-curvature="0" /><path
         id="path24"
         style="fill:#ed1c24;fill-opacity:1;fill-rule:evenodd;stroke:none"
         d="m 3827.52,1480.54 8.43,339.8 -403.04,0 -7.59,-339.8 402.2,0"
         inkscape:connector-curvature="0" /><path
         id="path26"
         style="fill:#ed1c24;fill-opacity:1;fill-rule:evenodd;stroke:none"
         d="m 4309.81,2022.7 c -78.42,194.77 -134.91,317.03 -168.63,366.78 l -234.41,0 c 108.77,-197.3 177.07,-414 206.58,-650.93 14.33,-115.51 19.4,-282.46 13.49,-500 -4.21,-274.882 -63.23,-552.28 -177.06,-831.374 -44.69,-110.457 -97.81,-221.754 -160.21,-332.2112 l 260.54,0 c 69.99,106.2382 132.38,216.6992 185.5,332.2112 25.3,54.804 48.91,110.457 69.98,166.949 84.32,233.559 129.01,451.095 133.23,652.615 5.9,294.27 -37.1,559.03 -129.01,795.96"
         inkscape:connector-curvature="0" /><path
         id="path28"
         style="fill:#ed1c24;fill-opacity:1;fill-rule:evenodd;stroke:none"
         d="m 3385.69,877.664 -8.43,-337.266 406.41,0 8.43,337.266 -406.41,0"
         inkscape:connector-curvature="0" /></g></g></svg>