<svg xmlns="http://www.w3.org/2000/svg" viewBox="0 0 129.6 101.1"><g fill="#141006"><path d="M16.7 57h-4.1l-1.3-3.5H5.4L4.1 57H0l5.6-14H11l5.7 14zM8.4 45.4h-.1l-2.1 5.9h4.3l-2.1-5.9zM35 43v9.7c0 2.9-2.8 4.5-7 4.5s-7-1.7-7-4.5V43h4v8.8c0 2.3 1 3.1 3 3.1s3-.7 3-3.1V43h4zM49.1 43c4.6 0 6.4 2.3 6.4 4.1 0 1.5-1.4 3-3.4 3.5l4 6.4h-4.2l-3.6-5.8h-3.1V57h-4V43h7.9zM47 48.8c1.7 0 4.4.1 4.4-1.7 0-1.9-2.7-1.8-4.7-1.8h-1.5v3.4H47zM73.7 45.4h-8.4v3.3h7v2.4h-7v3.5h8.9V57h-13V43h12.4v2.4zM94.8 50c0 3.5-2.5 7.2-8.2 7.2-5.7 0-8.3-3.7-8.3-7.2s2.5-7.2 8.3-7.2c5.7 0 8.2 3.7 8.2 7.2zm-12.4 0c0 1.8.7 5 4.1 5 3.4 0 4.1-3.2 4.1-5 0-1.8-.7-5-4.1-5-3.4 0-4.1 3.2-4.1 5zM103.8 54.7h8.3V57H99.8V43h4v11.7zM129.1 45.4h-8.4v3.3h7v2.4h-7v3.5h8.9V57h-12.9V43h12.4v2.4z"/></g><g fill="#141006"><path d="M65.6 5c20.1 0 37.2 13.1 43.2 31.3h5.3C108 15.4 88.6 0 65.6 0 42.7 0 23.3 15.4 17.1 36.3h5.3C28.4 18.2 45.5 5 65.6 5zM65.6 96C44.7 96 27 81.8 21.7 62.5h-5.2C21.9 84.6 41.9 101 65.6 101c23.7 0 43.7-16.4 49.1-38.5h-5.2C104.2 81.8 86.6 96 65.6 96z"/></g><g fill="#141006"><path d="M39.4 75.2h2.2v.6h-3.2v-3.7h1.1v3.1zM48.5 75.8h-1.1l-.3-.9h-1.5l-.3.9h-1.1l1.5-3.7H47l1.5 3.7zm-2.2-3l-.6 1.5h1.1l-.5-1.5zM53.7 73.2c-.1-.3-.3-.5-.7-.5-.3 0-.6.2-.6.4 0 .7 2.5.2 2.5 1.6 0 .4-.5 1.1-1.8 1.1-1 0-1.7-.3-1.9-1.1l1.1-.1c.1.3.3.5.8.5.4 0 .8-.2.8-.5 0-.7-2.5-.3-2.5-1.6 0-.7.8-1.1 1.7-1.1.9 0 1.6.4 1.6 1l-1 .3zM64.5 75.8h-1l-1.6-3.7H63l1 2.7 1-2.7h1.1l-1.6 3.7zM72.1 72.8h-2.2v.9h1.8v.6h-1.8v.9h2.3v.6h-3.4v-3.7h3.3v.7zM77.4 74.6V74h1.9v1.8h-.7l-.1-.3c-.3.2-.7.3-1.1.3-1.5 0-2.2-1-2.2-1.9 0-.9.7-1.9 2.2-1.9 1 0 1.8.4 1.9 1.1l-.9.1c-.1-.4-.3-.7-1-.7-.9 0-1.1.8-1.1 1.3s.2 1.3 1.1 1.3c.8 0 1-.3.9-.7h-.9zM86.3 75.8h-1.1l-.3-.9h-1.5l-.4.9h-1l1.5-3.7h1.4l1.4 3.7zm-2.1-3l-.6 1.5h1.1l-.5-1.5zM91.5 73.2c-.1-.3-.3-.5-.7-.5-.3 0-.6.2-.6.4 0 .7 2.5.2 2.5 1.6 0 .4-.5 1.1-1.8 1.1-1 0-1.7-.3-1.9-1.1l1.1-.1c.1.3.3.5.8.5.4 0 .8-.2.8-.5 0-.7-2.5-.3-2.5-1.6 0-.7.8-1.1 1.7-1.1.9 0 1.6.4 1.6 1l-1 .3z"/></g></svg>