<svg xmlns="http://www.w3.org/2000/svg" width="338" height="98" viewBox="0 0 338 98">
  <g fill="#C00">
    <polygon points="0 72 34 0 44 0 78 72 64 72 39 18 24 51 47 51 52 61 19 61 14 72"/>
    <polygon points="65 0 99 72 109 72 143 0 129 0 104 55 79 0"/>
    <polygon points="129 72 163 0 173 0 207 72 193 72 168 18 153 51 176 51 181 61 148 61 143 72"/>
    <polygon points="196 0 226 71 213 98 227 98 274 0 259 0 233 56 211 0"/>
    <polygon points="260 72 294 0 304 0 338 72 324 72 299 18 284 51 307 51 312 61 279 61 274 72"/>
  </g>
</svg>
