<svg data-name="Layer 1" xmlns="http://www.w3.org/2000/svg" viewBox="0 0 483 460"><defs><clipPath id="a" transform="translate(192 162.5)"><path fill="none" d="M-140.5-197h280V83h-280v-280z"/></clipPath></defs><path fill="none" stroke="#dcdcdc" stroke-miterlimit="10" d="M6.5 6.5h470v453H6.5V6.5h0z"/><path fill="none" stroke="#e0e0e0" stroke-miterlimit="10" d="M5.5 5.5h472v454H5.5V5.5h0z"/><path fill="none" stroke="#e8e8e8" stroke-miterlimit="10" d="M4.5 4.5h474v455H4.5V4.5h0z"/><path fill="none" stroke="#f4f4f4" stroke-miterlimit="10" d="M3.5 3.5h476v456H3.5V3.5h0z"/><path d="M2.5 2.5h478v457H2.5V2.5zm-1-1h480v458H1.5V1.5zm-1-1h482v459H.5V.5z" fill="none" stroke="#fff" stroke-miterlimit="10"/><path fill="none" stroke="#dcdcdc" stroke-miterlimit="10" d="M6.5 453.5h470"/><path fill="none" stroke="#ddd" stroke-miterlimit="10" d="M6.5 454.5h470"/><path fill="none" stroke="#dfdfdf" stroke-miterlimit="10" d="M6.5 455.5h470"/><path fill="none" stroke="#e2e2e2" stroke-miterlimit="10" d="M6.5 456.5h470"/><path fill="none" stroke="#e6e6e6" stroke-miterlimit="10" d="M6.5 457.5h470"/><path fill="none" stroke="#ebebeb" stroke-miterlimit="10" d="M6.5 458.5h470"/><path fill="none" stroke="#f1f1f1" stroke-miterlimit="10" d="M6.5 459.5h470"/><path fill="#242f3d" d="M6.5.5h470v13H6.5V.5z"/><path fill="#fff" d="M6.5 13.5h470v439H6.5v-439z"/><path d="M148.1 104.73a15.237 15.237 0 004.9 1.68 25.637 25.637 0 006.58.7 20.181 20.181 0 006.02-.84 16.848 16.848 0 004.76-2.38 10.205 10.205 0 003.08-3.78 11.603 11.603 0 001.12-5.04 10.309 10.309 0 00-1.96-6.02c-1.26-1.68-3.5-3.08-6.58-4.06L160 83.03a12.361 12.361 0 01-4.76-2.38 4.116 4.116 0 01-1.26-3.08 4.136 4.136 0 011.96-3.78 10.91 10.91 0 015.74-1.26 19.797 19.797 0 018.26 1.68 5.805 5.805 0 001.68.56c.7 0 .98-.42.98-1.4v-1.68a2.09 2.09 0 00-.42-1.4 3.305 3.305 0 00-1.26-1.12 5.49 5.49 0 00-1.82-.7c-.7-.28-1.54-.42-2.38-.7a16.796 16.796 0 00-2.8-.42 10.482 10.482 0 00-2.94-.28 21.254 21.254 0 00-5.32.7 14.935 14.935 0 00-4.48 2.24 12.334 12.334 0 00-3.08 3.5 8.884 8.884 0 00-1.12 4.76 9.94 9.94 0 002.1 6.16c1.4 1.96 3.64 3.36 6.86 4.34l6.16 1.96a11.163 11.163 0 014.34 2.24 3.895 3.895 0 011.12 2.94 4.564 4.564 0 01-2.24 4.06c-1.54.98-3.5 1.4-6.3 1.4a20.612 20.612 0 01-5.04-.56 18.929 18.929 0 01-4.76-1.54 9.646 9.646 0 01-1.12-.42 1.776 1.776 0 00-.84-.14c-.7 0-.98.42-.98 1.4v2.1a4.088 4.088 0 00.28 1.26 4.663 4.663 0 001.54 1.26zM75.72 84.01a24.843 24.843 0 00-4.48-.28q-6.51 0-10.5 3.36a10.913 10.913 0 00-3.92 8.82 10.981 10.981 0 003.08 8.26c2.1 2.1 4.9 3.08 8.54 3.08a15.917 15.917 0 0012.6-5.88 21.06 21.06 0 001.26 2.52 10.572 10.572 0 001.54 1.96 1.71 1.71 0 001.26.56 2.234 2.234 0 001.12-.42l2.66-1.82a1.693 1.693 0 00.84-1.26 3.561 3.561 0 00-.28-.98 19.352 19.352 0 01-1.4-3.08 14.089 14.089 0 01-.42-3.78v-14c0-4.62-1.12-8.12-3.5-10.5s-6.02-3.5-11.2-3.5a25.991 25.991 0 00-6.72.84 26.302 26.302 0 00-5.32 1.96 2.559 2.559 0 00-1.12.84c-.28.28-.28.84-.28 1.54v2.1c0 .84.28 1.4.84 1.4a1.522 1.522 0 00.7-.14c.28-.14.84-.28 1.54-.56a29.035 29.035 0 014.62-1.4 17.392 17.392 0 014.62-.56c3.36 0 5.6.7 7 1.96s1.96 3.64 1.96 6.86v3.08c-1.82-.42-3.36-.7-5.04-.98zm4.9 7.56a13.692 13.692 0 01-.42 3.64 6.092 6.092 0 01-1.4 2.66 8.591 8.591 0 01-4.06 2.66 13.279 13.279 0 01-4.48.84 6.189 6.189 0 01-4.48-1.54 6.189 6.189 0 01-1.54-4.48 5.964 5.964 0 012.1-4.9q2.1-1.68 6.3-1.68c1.26 0 2.66.14 4.06.28a32.556 32.556 0 013.92.7v1.82z" fill="#252f3e"/><g clip-path="url(#a)"><path d="M102.18 104.03a4.559 4.559 0 00.84 1.68 2.432 2.432 0 001.68.42h3.64a2.432 2.432 0 001.68-.42 4.559 4.559 0 00.84-1.68l6.58-27.58 6.72 27.58a2.393 2.393 0 00.84 1.68 2.691 2.691 0 001.68.42h3.64a2.986 2.986 0 001.68-.42 3.11 3.11 0 00.84-1.68l10.36-33.04a5.706 5.706 0 00.28-.98c0-.28.14-.42.14-.7 0-.7-.28-.98-.98-.98h-3.92a2.432 2.432 0 00-1.68.42 4.559 4.559 0 00-.84 1.68l-7.42 28.7-6.86-28.84a2.393 2.393 0 00-.84-1.68 2.691 2.691 0 00-1.68-.42h-3.5a2.432 2.432 0 00-1.68.42 4.559 4.559 0 00-.84 1.68l-6.72 28.28-7.14-28.28a4.559 4.559 0 00-.84-1.68 2.432 2.432 0 00-1.68-.42h-4.2c-.7 0-.98.28-.98.98a6.873 6.873 0 00.42 1.68l9.94 33.18z" fill="#252f3e"/><path d="M165.6 124.75a125.517 125.517 0 01-48.44 9.94 126.66 126.66 0 01-63.56-16.94c-1.54-.98-2.8.7-1.4 1.96a94.275 94.275 0 0063.56 24.22c17.5 0 37.94-5.46 52.08-15.96 2.1-1.68.14-4.2-2.24-3.22z" fill="#f90"/></g><path d="M156.78 118.87c-1.26.84-.98 2.1.28 1.96 4.48-.56 14.7-1.82 16.38.56 1.82 2.24-1.96 11.76-3.64 16.1-.56 1.26.56 1.82 1.82.84 7.56-6.3 9.52-19.6 7.98-21.42-1.54-2.1-14.84-3.64-22.82 1.96z" fill="#f90"/><path d="M213.34 97.31a.513.513 0 01-.56-.56v-23.1a.513.513 0 01.56-.56h.7c.42 0 .56.14.56.56l.14 1.4a11.843 11.843 0 013.08-1.82 7.534 7.534 0 013.08-.56 6.323 6.323 0 015.18 2.38 10.093 10.093 0 011.96 6.44 10.948 10.948 0 01-1.96 6.72 6.586 6.586 0 01-5.46 2.52 8.688 8.688 0 01-5.74-2.38v8.4a.513.513 0 01-.56.56zm7-8.4a4.958 4.958 0 004.2-1.82 8.756 8.756 0 001.4-5.46q0-7.14-5.46-7.14a8.708 8.708 0 00-5.6 2.24v9.94a12.905 12.905 0 002.66 1.82 16.796 16.796 0 002.8.42zM236.3 90.59a5.068 5.068 0 01-3.78-1.4 4.554 4.554 0 01-1.4-3.64 4.885 4.885 0 011.68-3.92 6.756 6.756 0 014.62-1.4 16.37 16.37 0 014.9.84v-2.8a3.557 3.557 0 00-.98-2.94 4.932 4.932 0 00-3.22-.84 15.675 15.675 0 00-4.9.84c-.14 0-.42.14-.56.14-.28 0-.28-.14-.28-.42v-.7a.514.514 0 01.14-.42l.28-.28a15.527 15.527 0 015.74-1.12 6.84 6.84 0 014.48 1.26 4.672 4.672 0 011.4 3.78v12.04a.513.513 0 01-.56.56h-.7a.513.513 0 01-.56-.56l-.14-1.4a9.266 9.266 0 01-6.16 2.38zm.28-1.68a7.12 7.12 0 002.8-.56 21.017 21.017 0 003.08-1.54v-4.2a16.38 16.38 0 00-4.48-.56c-3.22 0-4.76 1.26-4.76 3.64a3.293 3.293 0 00.84 2.38 3.423 3.423 0 002.52.84zM250.16 90.31a.513.513 0 01-.56-.56v-16.1a.513.513 0 01.56-.56h.7c.42 0 .56.14.56.56l.14 1.96a6.191 6.191 0 012.52-1.96 6.268 6.268 0 012.8-.56h.84a.513.513 0 01.56.56v.84c0 .14 0 .14-.14.28 0 .14-.14.14-.28.14h-1.26a6.268 6.268 0 00-2.8.56 8.995 8.995 0 00-2.38 1.82v12.46a.513.513 0 01-.56.56zM267.24 90.45a4.126 4.126 0 01-3.08-1.12 4.126 4.126 0 01-1.12-3.08V74.91h-2.66a.513.513 0 01-.56-.56v-.28a.514.514 0 01.14-.42c0-.14.14-.14.42-.14l2.8-.28.28-4.48c0-.14.14-.28.14-.42.14-.14.14-.14.42-.14h.56a.513.513 0 01.56.56v4.48h4.9a.513.513 0 01.56.56v.7a.513.513 0 01-.56.56h-4.9v11.34a2.533 2.533 0 00.56 1.96 2.737 2.737 0 001.96.56 5.77 5.77 0 001.68-.14c.28 0 .42-.14.56-.14h.28a.371.371 0 01.42.42v.56a.647.647 0 01-.42.7c-.84 0-1.82.14-2.94.14zM274.8 90.31a.513.513 0 01-.56-.56v-16.1a.513.513 0 01.56-.56h.7c.42 0 .56.14.56.56l.14 1.4a11.945 11.945 0 013.5-1.82 11.097 11.097 0 013.5-.7 5.134 5.134 0 013.78 1.26 5.274 5.274 0 011.26 3.92v11.9a.513.513 0 01-.56.56h-.98a.513.513 0 01-.56-.56V78.69a4.932 4.932 0 00-.84-3.22 3.293 3.293 0 00-2.66-.98 10.982 10.982 0 00-6.58 2.24v13.16a.513.513 0 01-.56.56h-.7zM300.84 90.73c-2.66 0-4.76-.7-6.02-2.24-1.4-1.54-2.1-3.78-2.1-6.86a9.523 9.523 0 012.1-6.58 7.486 7.486 0 015.74-2.38 5.932 5.932 0 014.76 1.82 6.845 6.845 0 011.68 5.04 9.27 9.27 0 01-.14 2.1.602.602 0 01-.56.56h-11.48a8.038 8.038 0 001.54 5.32 6.156 6.156 0 004.76 1.68 12.332 12.332 0 004.62-.84 1.395 1.395 0 01.56-.14c.14 0 .14 0 .28.14 0 .14.14.14.14.28v.56a.647.647 0 01-.42.7 23.389 23.389 0 01-5.46.84zm4.2-10.22v-1.12a5.381 5.381 0 00-1.12-3.64 4.659 4.659 0 00-3.5-1.26c-3.64 0-5.46 1.96-5.74 6.02zM311.62 90.31a.513.513 0 01-.56-.56v-16.1a.513.513 0 01.56-.56h.7c.42 0 .56.14.56.56l.14 1.96a6.191 6.191 0 012.52-1.96 6.268 6.268 0 012.8-.56h.84a.513.513 0 01.56.56v.84c0 .14 0 .14-.14.28 0 .14-.14.14-.28.14h-1.26a6.268 6.268 0 00-2.8.56 8.995 8.995 0 00-2.38 1.82v12.46a.513.513 0 01-.56.56zM213.34 127.97a.513.513 0 01-.56-.56v-15.96a.513.513 0 01.56-.56h.7c.42 0 .56.14.56.56l.14 1.4a11.945 11.945 0 013.5-1.82 11.097 11.097 0 013.5-.7 5.134 5.134 0 013.78 1.26 5.274 5.274 0 011.26 3.92v11.9a.513.513 0 01-.56.56h-.98a.513.513 0 01-.56-.56v-11.06a4.932 4.932 0 00-.84-3.22 3.293 3.293 0 00-2.66-.98 10.982 10.982 0 00-6.58 2.24v13.16a.513.513 0 01-.56.56h-.7zM239.38 128.53c-2.66 0-4.76-.7-6.02-2.24-1.4-1.54-2.1-3.78-2.1-6.86a9.523 9.523 0 012.1-6.58 7.486 7.486 0 015.74-2.38 5.932 5.932 0 014.76 1.82 6.845 6.845 0 011.68 5.04 9.27 9.27 0 01-.14 2.1.602.602 0 01-.56.56h-11.48a8.038 8.038 0 001.54 5.32 6.156 6.156 0 004.76 1.68 12.332 12.332 0 004.62-.84 1.395 1.395 0 01.56-.14c.14 0 .14 0 .28.14 0 .14.14.14.14.28v.56a.647.647 0 01-.42.7 22.293 22.293 0 01-5.46.84zm4.2-10.36v-1.12a5.381 5.381 0 00-1.12-3.64 4.659 4.659 0 00-3.5-1.26c-3.64 0-5.46 1.96-5.74 6.02zM255.06 128.25a4.126 4.126 0 01-3.08-1.12 4.126 4.126 0 01-1.12-3.08v-11.48h-2.66a.513.513 0 01-.56-.56v-.28a.514.514 0 01.14-.42c0-.14.14-.14.42-.14l2.8-.28.28-4.48c0-.14.14-.28.14-.42.14-.14.14-.14.42-.14h.56a.513.513 0 01.56.56v4.48h4.9a.513.513 0 01.56.56v.7a.513.513 0 01-.56.56h-4.9v11.34a2.533 2.533 0 00.56 1.96 2.737 2.737 0 001.96.56 5.77 5.77 0 001.68-.14c.28 0 .42-.14.56-.14h.28a.371.371 0 01.42.42v.56a.647.647 0 01-.42.7 17.475 17.475 0 01-2.94.28zM266.12 127.97a.77.77 0 01-.7-.42l-5.32-15.82a1.058 1.058 0 01-.14-.56c0-.14.14-.28.42-.28h1.12c.28 0 .42.14.56.42l4.62 14.42 4.06-14.42a.647.647 0 01.7-.42h1.26a.77.77 0 01.7.42l4.06 14.42 4.76-14.56c.14-.28.28-.42.56-.42h.98c.28 0 .42.14.42.28a1.058 1.058 0 01-.14.56l-5.6 15.82a.647.647 0 01-.7.42h-1.12a.77.77 0 01-.7-.42l-4.06-14.42-4.06 14.42a.647.647 0 01-.7.42h-.98zM294.26 128.53a7.586 7.586 0 01-5.88-2.38q-2.1-2.31-2.1-6.72a10.16 10.16 0 012.1-6.72 7.586 7.586 0 015.88-2.38 7.586 7.586 0 015.88 2.38q2.1 2.31 2.1 6.72a10.16 10.16 0 01-2.1 6.72 7.586 7.586 0 01-5.88 2.38zm0-1.82c3.92 0 5.88-2.38 5.88-7.28s-1.96-7.28-5.88-7.28-5.88 2.38-5.88 7.28 1.96 7.28 5.88 7.28zM307.14 127.97a.513.513 0 01-.56-.56v-15.96a.513.513 0 01.56-.56h.7c.42 0 .56.14.56.56l.14 1.96a6.191 6.191 0 012.52-1.96 6.268 6.268 0 012.8-.56h.84a.513.513 0 01.56.56v.84c0 .14 0 .14-.14.28s-.14.14-.28.14h-1.26a6.268 6.268 0 00-2.8.56 8.993 8.993 0 00-2.38 1.82v12.46a.513.513 0 01-.56.56h-.7zM318.76 127.97a.513.513 0 01-.56-.56v-24.08a.513.513 0 01.56-.56h.98a.513.513 0 01.56.56v15.12l8.12-7.28a1.029 1.029 0 01.84-.28h1.26c.28 0 .42.14.42.28s-.14.28-.42.56l-8.26 7.28 8.96 8.26c.14.14.28.28.28.42 0 .28-.14.28-.42.28h-1.4a1.07 1.07 0 01-.7-.28l-8.68-8.12v7.84a.513.513 0 01-.56.56z" fill="#252f3e"/><path d="M67.375 245.5l-1.578-5.063h-7.578l-1.5 5.063h-5.032l7.813-22.172h5.281l7.813 22.172zm-8.125-8.516h5.563L62 227.704l-2.75 9.28zm26.811 8.516l-.39-1.438a6.773 6.773 0 01-4.703 1.797 6.34 6.34 0 01-3.547-1 6.69 6.69 0 01-2.39-2.937 11.16 11.16 0 01-.845-4.516 9.897 9.897 0 011.89-6.344 6.045 6.045 0 014.985-2.39 6.969 6.969 0 014.39 1.437v-8.297h4.673V245.5zm-3.547-3.172a5.41 5.41 0 002.938-.89v-8.454a6.21 6.21 0 00-3.172-.797 2.84 2.84 0 00-2.531 1.266 7.081 7.081 0 00-.828 3.828 6.695 6.695 0 00.875 3.813 3.13 3.13 0 002.718 1.234zm16.194 3.172l-6.219-16.36h4.969l3.484 12.173 3.547-12.172h4.828l-6.172 16.359zm22.353 0l-.375-1.438a7.957 7.957 0 01-2.296 1.422 6.583 6.583 0 01-2.5.532 5.301 5.301 0 01-3.797-1.344 4.71 4.71 0 01-1.422-3.594 4.755 4.755 0 01.766-2.687 5.162 5.162 0 012.203-1.844 7.94 7.94 0 013.39-.672 15.85 15.85 0 013.39.406v-1.593a2.647 2.647 0 00-.609-2.016 3.37 3.37 0 00-2.234-.547 19.555 19.555 0 00-5.781.984v-3.093a11.278 11.278 0 012.968-.97 17.774 17.774 0 013.641-.374q3.297 0 4.813 1.328a5.238 5.238 0 011.53 4.172V245.5zm-3.859-2.625a4.334 4.334 0 001.64-.344 6.372 6.372 0 001.579-.968v-2.782a16.55 16.55 0 00-2.516-.218q-2.797 0-2.797 2.234a2.07 2.07 0 00.547 1.531 2.092 2.092 0 001.547.547zm22.456 2.625v-10.719a2.718 2.718 0 00-.578-1.922 2.304 2.304 0 00-1.75-.609 6.505 6.505 0 00-3.5 1.094V245.5h-4.672v-16.36h3.844l.453 1.766a9.831 9.831 0 016.141-2.234 4.734 4.734 0 013.5 1.234 4.702 4.702 0 011.234 3.5V245.5zm20.897-.703a6.862 6.862 0 01-2.078.781 11.223 11.223 0 01-2.531.281 7.843 7.843 0 01-5.969-2.172 8.813 8.813 0 01-2.063-6.28 8.772 8.772 0 012.172-6.329 7.982 7.982 0 016.047-2.281 9.36 9.36 0 014.328 1.015v3.11a12.52 12.52 0 00-3.453-.547 4.328 4.328 0 00-3.312 1.14 5.198 5.198 0 00-1.047 3.594v.453a5.224 5.224 0 001.031 3.579 4.22 4.22 0 003.234 1.125 13.834 13.834 0 003.641-.578v3.109zm6.824-6.344a4.076 4.076 0 001.265 3.063 5.722 5.722 0 003.625.937 18.811 18.811 0 004.985-.797v3.11a10.041 10.041 0 01-2.672.89 15.393 15.393 0 01-3.203.328q-4.078 0-6.203-2.203-2.125-2.218-2.125-6.468a8.978 8.978 0 012.109-6.36 7.585 7.585 0 015.86-2.281 6.493 6.493 0 014.874 1.75 6.76 6.76 0 011.72 4.969 15.862 15.862 0 01-.095 1.609 10.902 10.902 0 01-.234 1.453zm3.484-6.547a3.294 3.294 0 00-2.484.938 4.226 4.226 0 00-1.032 2.734h6.266v-.547q0-3.125-2.75-3.125zm21.375 13.594l-.391-1.437a6.773 6.773 0 01-4.703 1.796 6.34 6.34 0 01-3.547-1 6.69 6.69 0 01-2.39-2.937 11.16 11.16 0 01-.844-4.516 9.896 9.896 0 011.89-6.343 6.045 6.045 0 014.985-2.391 6.969 6.969 0 014.39 1.437v-8.297h4.672V245.5zm-3.547-3.172a5.41 5.41 0 002.937-.89v-8.454a6.21 6.21 0 00-3.172-.796 2.84 2.84 0 00-2.531 1.265 7.082 7.082 0 00-.828 3.828 6.695 6.695 0 00.875 3.813 3.13 3.13 0 002.719 1.234zM69.39 315.5a.905.905 0 01-1.03-1.016v-42.5H53.75a.911.911 0 01-1.031-1.03v-1.563a.905.905 0 011.031-1.016H87a.898.898 0 011.016 1.016v1.562A.905.905 0 0187 271.984H72.375v42.5a.898.898 0 01-1.016 1.016zm39.631 1.016q-8.078 0-12.172-4.579-4.078-4.593-4.078-13.64 0-8.563 4.11-13.281 4.125-4.735 11.53-4.735 6.188 0 9.485 3.532t3.297 10.125a23.334 23.334 0 01-.265 4.093 1.098 1.098 0 01-1.157 1.016H96.724q.063 7.14 3.125 10.547 3.063 3.39 9.454 3.39a25.685 25.685 0 009.312-1.703 4.242 4.242 0 011.219-.344.607.607 0 01.484.25.852.852 0 01.203.579v1.015a1.383 1.383 0 01-.75 1.422 24.827 24.827 0 01-10.75 2.313zm8.375-20.594q.063-.953.063-2.25 0-4.89-2.39-7.406-2.376-2.516-6.985-2.516-10.75 0-11.36 12.172zm26.646 20.328q-7.875 0-11.968-4.516-4.079-4.53-4.079-13.296 0-8.704 4.141-13.297 4.156-4.594 12.047-4.594a19.898 19.898 0 017.14 1.297q.813.265.813 1.422v.953q0 .89-.813.89a2.737 2.737 0 01-.515-.062q-.297-.078-.985-.219a22.591 22.591 0 00-5.437-.672q-6.453 0-9.344 3.297t-2.89 10.578v.813q0 7.062 2.922 10.437 2.921 3.36 9.171 3.36a23.081 23.081 0 005.922-.875q.75-.204 1.047-.266a2.211 2.211 0 01.516-.078q.812 0 .812.875v.953a1.422 1.422 0 01-.734 1.438 20 20 0 01-7.766 1.562zm17.418-.75a.905.905 0 01-1.031-1.016v-48.28a.905.905 0 011.031-1.017h1.828a.905.905 0 011.031 1.016v18.969a29.232 29.232 0 016.954-3.594 21.113 21.113 0 017.109-1.297q4.969 0 7.578 2.625 2.625 2.61 2.625 7.703v23.875a.898.898 0 01-1.015 1.016h-1.844a.898.898 0 01-1.016-1.016V292.25q0-4.422-1.703-6.422-1.688-2.015-5.438-2.015a23.457 23.457 0 00-13.25 4.343v26.328a.905.905 0 01-1.03 1.016zm38.624 0a.905.905 0 01-1.031-1.016v-32.171a.905.905 0 011.031-1.016h1.36a1.01 1.01 0 011.156 1.015l.266 2.922a27.767 27.767 0 017-3.656 21.38 21.38 0 017.14-1.297q4.97 0 7.578 2.625 2.625 2.61 2.625 7.703v23.875a.898.898 0 01-1.015 1.016h-1.844a.898.898 0 01-1.016-1.016V292.25q0-4.422-1.703-6.422-1.687-2.015-5.437-2.015a23.457 23.457 0 00-13.25 4.343v26.328a.905.905 0 01-1.032 1.016zm51.608 1.016q-7.484 0-11.64-4.782-4.14-4.796-4.14-13.375 0-8.562 4.14-13.312 4.156-4.766 11.64-4.766t11.625 4.766q4.157 4.75 4.157 13.312 0 8.579-4.157 13.375-4.14 4.782-11.625 4.782zm0-3.532q11.766 0 11.766-14.625 0-14.546-11.766-14.546t-11.765 14.546q0 14.625 11.766 14.625zm30.39 2.72a5.616 5.616 0 01-4.25-1.595 6.164 6.164 0 01-1.53-4.453v-43.453a.905.905 0 011.03-1.015h1.829a.905.905 0 011.03 1.015v43.375a3.042 3.042 0 00.579 2.11 2.788 2.788 0 002.062.609 7.758 7.758 0 00.922-.063 7.288 7.288 0 01.844-.062.842.842 0 01.953.953v1.281a.987.987 0 01-.875 1.032 11.1 11.1 0 01-2.594.265zm25.235.812q-7.485 0-11.64-4.782-4.142-4.796-4.142-13.375 0-8.562 4.141-13.312 4.156-4.766 11.64-4.766t11.626 4.766q4.156 4.75 4.156 13.312 0 8.579-4.156 13.375-4.14 4.782-11.625 4.782zm0-3.532q11.765 0 11.765-14.625 0-14.546-11.765-14.546t-11.766 14.546q0 14.625 11.766 14.625zm36.655 17.344a26.745 26.745 0 01-5.578-.578 19.67 19.67 0 01-4.766-1.61 1.383 1.383 0 01-.75-1.421v-.953q0-.875.75-.875a1.706 1.706 0 01.438.062q.25.063.86.266a28.934 28.934 0 008.843 1.562q6.313 0 9.266-3.125 2.968-3.125 2.968-9.86v-3.327a20.628 20.628 0 01-5.578 3.343 15.802 15.802 0 01-5.843 1.22 13.069 13.069 0 01-10.485-4.657q-3.937-4.672-3.937-12.344 0-8.234 3.906-12.984a13.07 13.07 0 0110.656-4.766 16.296 16.296 0 0111.344 4.547l.281-2.515a1.05 1.05 0 011.156-1.016h1.36a.898.898 0 011.015 1.015v31.625q0 8.016-4.078 12.204t-11.828 4.187zm1.5-18.844q5.094 0 10.531-4.343v-18.907a20.659 20.659 0 00-5.375-3.359 14.292 14.292 0 00-5.5-1.063q-5.437 0-8.203 3.547-2.75 3.532-2.75 10.454 0 6.671 2.89 10.171t8.407 3.5zm26.244 18.844a10.01 10.01 0 01-3.125-.484 1.266 1.266 0 01-1.032-1.36v-.953q0-.875.828-.875a3.937 3.937 0 01.735.063 7.584 7.584 0 00.89.093q.547.047 1.422.047a5.26 5.26 0 003.578-1.156 11.11 11.11 0 002.547-4.156l2.313-5.703-13.39-32.922a3.13 3.13 0 01-.282-.875q0-.75.828-.75h2.172a1.13 1.13 0 011.156.89l11.36 29.235 11.484-29.235a1.115 1.115 0 011.156-.89h2.047q.812 0 .813.75a3.13 3.13 0 01-.282.875l-16.047 39.781a14.706 14.706 0 01-3.796 5.89 8.184 8.184 0 01-5.375 1.735zM58.5 385.5a.898.898 0 01-1.016-1.016v-45.093a.898.898 0 011.016-1.016h15.234q6.47 0 10.297 3.813 3.844 3.796 3.844 10.203a13.624 13.624 0 01-3.844 10.125q-3.828 3.812-10.297 3.812H61.36v18.156a.898.898 0 01-1.015 1.016zm15.094-22.781q10.062 0 10.062-10.328 0-10.407-10.062-10.407H61.359v20.735zm30.878 23.531a10.238 10.238 0 01-7.453-2.688 9.57 9.57 0 01-2.75-7.171 9.651 9.651 0 013.39-7.813q3.407-2.86 9.266-2.86a33.682 33.682 0 019.72 1.563v-5.718q0-4.141-1.97-5.938-1.968-1.813-6.53-1.813a32.505 32.505 0 00-9.923 1.704 3.488 3.488 0 01-1.031.203q-.672 0-.672-.89v-1.079a1.485 1.485 0 01.203-.844 1.463 1.463 0 01.672-.515 30.813 30.813 0 0111.36-2.11q5.984 0 8.874 2.516t2.891 7.61v24.077a.898.898 0 01-1.016 1.016h-1.437a.962.962 0 01-1.078-1.016l-.281-2.921a19.305 19.305 0 01-12.235 4.687zm.547-3.531a16.871 16.871 0 005.563-1.047 31.26 31.26 0 006.062-2.969v-8.5a33.806 33.806 0 00-8.844-1.234q-9.515 0-9.516 7.343a6.336 6.336 0 001.703 4.782 7.026 7.026 0 005.032 1.625zm26.997 2.781a.905.905 0 01-1.031-1.016v-32.171a.905.905 0 011.031-1.016h1.282a1 1 0 011.156 1.015l.343 3.954a17.129 17.129 0 015.063-4.047 12.846 12.846 0 015.61-1.188q1.093 0 1.78.063a.969.969 0 011.016 1.093v1.688a.77.77 0 01-.203.516.687.687 0 01-.547.234q-.547 0-1.031-.031-.469-.032-1.422-.032a12.725 12.725 0 00-5.547 1.157 14.689 14.689 0 00-4.64 3.734v25.031a.905.905 0 01-1.032 1.016zm32.908.406a8.223 8.223 0 01-6.125-2.14q-2.11-2.141-2.11-6.22v-22.843h-5.359a.911.911 0 01-1.031-1.031V353a1.333 1.333 0 01.203-.813 1.12 1.12 0 01.828-.343l5.5-.485.484-8.968a1.296 1.296 0 01.297-.782.978.978 0 01.719-.234h1.219a.898.898 0 011.015 1.016v8.906h9.875a.898.898 0 011.016 1.015v1.36a.905.905 0 01-1.016 1.031h-9.875v22.64q0 2.782 1.188 3.938a5.638 5.638 0 003.984 1.157 15.638 15.638 0 003.469-.344q.75-.125 1.188-.219a3.194 3.194 0 01.656-.11q.75 0 .75.813v1.016q0 1.156-.75 1.437a19.572 19.572 0 01-6.125.875zm15.1-.406a.905.905 0 01-1.031-1.016v-32.171a.905.905 0 011.03-1.016h1.36a1.01 1.01 0 011.157 1.015l.266 2.922a27.767 27.767 0 017-3.656 21.38 21.38 0 017.14-1.297q4.969 0 7.578 2.625 2.625 2.61 2.625 7.703v23.875a.898.898 0 01-1.015 1.016h-1.844a.898.898 0 01-1.016-1.016V362.25q0-4.422-1.703-6.422-1.687-2.015-5.437-2.015a23.456 23.456 0 00-13.25 4.343v26.328a.905.905 0 01-1.032 1.016zm52.077 1.016q-8.078 0-12.172-4.579-4.078-4.593-4.078-13.64 0-8.563 4.11-13.281 4.124-4.735 11.53-4.735 6.188 0 9.485 3.531t3.297 10.125a23.322 23.322 0 01-.266 4.094 1.098 1.098 0 01-1.156 1.016h-23.046q.062 7.14 3.125 10.547 3.062 3.39 9.453 3.39a25.683 25.683 0 009.312-1.703 4.244 4.244 0 011.219-.343.607.607 0 01.484.25.851.851 0 01.203.578v1.015a1.383 1.383 0 01-.75 1.422 24.827 24.827 0 01-10.75 2.313zm8.375-20.594q.063-.953.063-2.25 0-4.89-2.391-7.406-2.375-2.516-6.984-2.516-10.75 0-11.36 12.172zm13.396 19.578a.905.905 0 01-1.03-1.016v-32.171a.905.905 0 011.03-1.016h1.282a1 1 0 011.156 1.015l.344 3.954a17.129 17.129 0 015.062-4.047 12.846 12.846 0 015.61-1.188q1.093 0 1.78.063a.969.969 0 011.016 1.093v1.688a.77.77 0 01-.203.516.687.687 0 01-.547.234q-.546 0-1.03-.031-.47-.032-1.423-.032a12.725 12.725 0 00-5.547 1.157 14.688 14.688 0 00-4.64 3.734v25.031a.905.905 0 01-1.032 1.016z" fill="#535b64"/></svg>