<svg xmlns="http://www.w3.org/2000/svg" viewBox="0 0 111 38"><g fill="none"><path fill="#FFF" d="M4.071 24.7l3.258-.543c.814-.136.95-.543.95-.95 0-.95-.679-1.764-2.308-1.764-1.628 0-2.442.95-2.578 2.171l-3.257-.678c.271-2.172 2.171-4.479 5.835-4.479 4.208 0 5.836 2.443 5.836 5.157v6.65c0 .679.136 1.629.136 2.172H8.686c-.136-.407-.136-1.086-.136-1.629-.679 1.086-2.036 2.036-3.936 2.036-2.85 0-4.614-1.9-4.614-4.072 0-2.442 1.764-3.8 4.071-4.071m4.343 2.307v-.543l-2.985.407c-.95.136-1.629.679-1.629 1.765 0 .814.543 1.628 1.764 1.628 1.357-.135 2.85-.95 2.85-3.257m8.822-1.357l-4.75-6.786h4.343c.407.679 2.171 3.257 2.714 4.072l2.714-4.072h4.072l-4.75 6.65 4.885 6.922h-4.207l-2.85-4.207c-.543.678-2.307 3.392-2.714 4.207H12.62l4.615-6.786z"/><path fill="#FFF" d="M38.814 18.864L41.8 27.55l2.443-8.686h3.664L43.7 32.436h-3.664l-3.122-9.229-3.121 9.229h-3.664l-4.343-13.572h3.8l2.578 8.686 2.85-8.686zM51.571 24.7l3.258-.543c.814-.136.95-.543.95-.95 0-.95-.679-1.764-2.308-1.764-1.628 0-2.442.95-2.578 2.171l-3.257-.678c.271-2.172 2.171-4.479 5.835-4.479 4.208 0 5.836 2.443 5.836 5.157v6.65c0 .679.136 1.629.136 2.172H56.05c-.136-.407-.136-1.086-.136-1.629-.678 1.086-2.035 2.036-3.935 2.036-2.85 0-4.615-1.9-4.615-4.072.136-2.442 1.9-3.8 4.207-4.071m4.343 2.307v-.543l-2.985.407c-.95.136-1.629.679-1.629 1.765 0 .814.543 1.628 1.764 1.628 1.357-.135 2.85-.95 2.85-3.257M61.75 37.729l3.121-7.058-5.7-11.807h4.072l3.664 8.007 3.257-8.007H74.1l-8.55 18.865z"/><path fill="#D9272D" d="M109.942 13.927V9.313L103.02 5.92v6.921L76.556.22v4.614L106.82 19.22v-6.786zM83.329 17.236v4.614l4.885 2.307-7.871 8.279H85.5l9.229-9.772zM106.807 21.579l-26.6-12.758v4.615l21.172 10.178z"/></g></svg>