<svg xmlns="http://www.w3.org/2000/svg" width="59" height="46" viewBox="0 0 59 46"><path fill="#FFF" fill-rule="evenodd" d="M27.294 43.54l13.915-2.473.129-.03-7.156-8.57a1217.009 1217.009 0 01-7.155-8.609c0-.042 7.39-20.524 7.431-20.596.012-.024 5.042 8.714 12.189 21.182l12.26 21.393L59 46l-22.743-.003-22.744-.003 13.78-2.45v-.003zM0 40.93c0-.011 3.372-5.904 7.494-13.095l7.494-13.07 8.733-7.378A2946.44 2946.44 0 0132.483 0a1.55 1.55 0 01-.141.356L22.857 20.83l-9.314 20.105-6.771.009c-3.723.006-6.772 0-6.772-.012z"/></svg>