<svg xmlns="http://www.w3.org/2000/svg" viewBox="0 288.1 612 215.8"><path d="M13.6 455.8H0v-4.5h32.5v4.5H18.9V492h-5.3v-36.2M36.2 451.3h4.9v15.6c1.6-3.7 5.8-4.9 9.5-4.9 7.8 0 10.3 4.5 10.3 10.7V492H56v-20.1c0-3.7-2.5-5.8-6.2-5.8-5.8 0-8.6 4.1-8.6 9v16.4h-4.9v-40.2h-.1zM143.9 463.6c-1.2-5.8-5.8-8.6-11.5-8.6-9.9 0-14 7.8-14 16.4 0 9.5 4.1 16.9 14 16.9 7 0 11.1-4.9 11.9-11.9h5.3c-.8 10.3-7.4 16.4-17.7 16.4-12.7 0-18.9-9.5-18.9-21.4 0-11.9 6.6-21.4 19.3-21.4 8.6 0 15.6 4.5 16.9 13.2h-5.3v.4zM155.4 451.3h4.9v15.6c1.6-3.7 5.8-4.9 9.5-4.9 7.8 0 10.3 4.5 10.3 10.7V492h-4.9v-20.1c0-3.7-2.5-5.8-6.2-5.8-5.8 0-8.6 4.1-8.6 9v16.4h-4.9v-40.2h-.1zM217.8 462.4h4.5v4.5c2.1-3.3 5.3-4.9 9.5-4.9 3.7 0 7 1.2 8.2 4.9 2.1-3.3 5.3-4.9 9-4.9 5.8 0 9.9 2.5 9.9 8.6v21.8H254v-19.3c0-3.7-.8-6.6-5.8-6.6-4.5 0-7.8 2.9-7.8 7.4v18.5h-4.9v-19.3c0-3.7-1.2-6.6-5.3-6.6-5.8 0-7.8 5.3-7.8 7.4v18.5h-4.5v-30h-.1zM299.2 471.8c-.8-3.7-3.3-5.8-7.4-5.8-7 0-9 5.3-9 11.5 0 5.3 2.5 10.7 8.6 10.7 4.5 0 7.4-2.9 8.2-7h4.5c-1.2 7-5.8 11.5-13.2 11.5-9 0-14-6.2-14-15.2 0-8.6 4.5-15.6 14-15.6 6.6 0 11.9 3.3 12.7 10.3h-4.5v-.4h.1zM340.7 451.3h4.6V492h-4.6v-40.7M398.3 463.6c-1.2-5.8-5.8-8.6-11.5-8.6-9.9 0-14 7.8-14 16.4 0 9.5 4.1 16.9 14 16.9 7 0 11.1-4.9 11.9-11.9h5.3c-1.2 10.3-7.4 16.4-17.7 16.4-12.7 0-18.9-9.5-18.9-21.4 0-11.9 6.6-21.4 19.3-21.4 8.6 0 15.6 4.5 16.9 13.2h-5.3v.4zM442.7 462.4h4.5v4.5c2.1-3.3 5.3-4.9 9.5-4.9 3.7 0 7 1.2 8.2 4.9 2.1-3.3 5.3-4.9 9-4.9 5.8 0 9.9 2.5 9.9 8.6v21.8h-4.9v-19.3c0-3.7-.8-6.6-5.8-6.6-4.5 0-7.8 2.9-7.8 7.4v18.5h-4.9v-19.3c0-3.7-1.2-6.6-5.3-6.6-5.8 0-7.8 5.3-7.8 7.4v18.5h-4.9v-30h.3zM555.7 462.4h4.5v4.5c2.1-3.7 5.3-5.3 9.5-5.3 7.8 0 10.3 4.5 10.3 10.7v19.3h-4.5v-20.1c0-3.7-2.5-5.8-6.2-5.8-5.8 0-8.6 4.1-8.6 9v16.4h-4.9v-28.7h-.1zM598.8 496.1c-2.1 5.8-4.1 7.8-8.6 7.8-1.2 0-2.5 0-3.3-.4V499c.8.4 2.1.8 2.9.8 2.1 0 2.9-.8 4.1-2.9l2.1-4.9-11.5-29.2h5.3l8.6 24.2 8.2-24.2h4.9l-12.7 33.3zM92.9 482.5c-1.2 6.6-6.2 9.9-12.7 9.9-9.5 0-14-6.6-14-15.6s5.8-15.2 14-15.2c10.3 0 13.6 9.9 13.2 16.9H71.1c0 4.9 2.9 9.9 9 9.9 4.1 0 7-2.1 7.8-5.8h5v-.1zm-4.5-8.2c-.4-4.5-3.7-8.2-8.6-8.2s-8.2 3.7-8.6 8.2h17.2zM212.5 482.5c-1.2 6.6-6.2 9.9-12.7 9.9-9.5 0-14-6.6-14-15.6s5.8-15.2 14-15.2c10.3 0 13.6 9.9 13.2 16.9h-22.2c0 4.9 2.9 9.9 9 9.9 4.1 0 7-2.1 7.8-5.8h4.9v-.1zm-4.9-8.2c-.4-4.5-3.7-8.2-8.6-8.2-4.9 0-8.2 3.7-8.6 8.2h17.2zM271.7 457.4h-4.9v-5.8h4.9v5.8zm-5 5h4.9V492h-4.9v-29.6zM335.8 492c-.8.4-2.1.8-3.3.8-2.5 0-4.1-1.2-4.1-4.5-2.9 3.3-6.2 4.5-10.3 4.5-5.3 0-9.9-2.5-9.9-8.2 0-6.6 4.9-8.2 9.9-9 5.3-.8 9.9-.8 9.9-4.5 0-4.1-3.3-4.9-6.6-4.9-4.1 0-7 1.2-7.4 5.8h-4.9c.4-7.4 5.8-9.9 12.3-9.9 5.3 0 11.1 1.2 11.1 8.2v15.2c0 2.5 0 3.3 1.6 3.3.4 0 .8 0 1.6-.4v3.6h.1zm-7.8-15.2c-2.1 1.2-5.3 1.2-8.6 2.1-3.3.4-5.8 1.6-5.8 5.3 0 3.3 2.9 4.5 5.8 4.5 6.6 0 9-4.1 9-6.6v-5.3h-.4zM422.5 462c9.5 0 14.4 6.6 14.4 15.6 0 8.6-4.9 15.2-14.4 15.2s-14.4-7-14.4-15.2c.4-9.1 5.4-15.6 14.4-15.6zm0 26.3c4.9 0 9-4.1 9-11.1s-4.1-11.1-9-11.1-9 4.1-9 11.1c0 7.4 4.1 11.1 9 11.1zM491.6 462.4h4.9v4.1c1.6-3.3 5.3-4.5 9.5-4.5 9 0 13.6 7 13.6 15.6 0 8.2-4.5 15.2-13.6 15.2-2.9 0-7.4-1.2-9.5-4.5v15.2h-4.9v-41.1zm13.5 3.7c-6.6 0-9 5.8-9 11.1 0 5.8 2.5 11.1 9.5 11.1 6.6 0 9-5.8 9-11.5-.4-5.4-3.3-10.7-9.5-10.7zM551.2 492c-.8.4-2.1.8-3.3.8-2.5 0-4.1-1.2-4.1-4.5-2.9 3.3-6.2 4.5-10.3 4.5-5.3 0-9.9-2.5-9.9-8.2 0-6.6 4.9-8.2 9.9-9 5.3-.8 9.9-.8 9.9-4.5 0-4.1-3.3-4.9-6.6-4.9-4.1 0-7 1.2-7.4 5.8h-4.9c.4-7.4 5.8-9.9 12.3-9.9 5.3 0 11.1 1.2 11.1 8.2v15.2c0 2.5 0 3.3 1.6 3.3.4 0 .8 0 1.6-.4l.1 3.6zm-7.8-15.2c-2.1 1.2-5.3 1.2-8.6 2.1-3.3.4-5.8 1.6-5.8 5.3 0 3.3 2.9 4.5 5.8 4.5 6.6 0 9-4.1 9-6.6v-5.3h-.4z"/><g><path d="M219.1 288.1h61.2c22.6 0 32.5 14.8 32.5 28.8 0 9.9-3.7 16-14 22.2 12.7 4.9 19.7 13.2 19.7 26.3 0 15.6-11.5 32.5-38.2 32.5h-61.2V288.1zm33.3 84.7h22.2c7.8 0 11.5-5.8 11.5-10.7 0 2.5.8-9-10.3-9h-23v19.7h-.4zm.4-41.5h17.7c8.2 0 11.5-3.7 11.5-9.5 0-1.2-.4-8.6-9-8.6h-20.1l-.1 18.1zM353.5 288.1h35.3l40.3 109.3h-36.2l-5.3-16.4h-34.1l-4.5 16.4h-36.2l40.7-109.3zm16 32.5l-9.5 36.6h19.7l-10.2-36.6zM485.4 320.6h33.7c0-18.5-14-35.8-47.3-35.8-36.6 0-47.7 20.1-47.7 34.9 0 23.8 29.2 30 30 30.4 4.5 1.2 22.2 6.2 26.7 7.8 3.7 1.2 7.8 4.5 7.8 8.6 0 6.6-7.8 9.5-14 9.5-4.1 0-17.7-1.2-17.7-16H422c0 19.3 13.2 40.7 50.6 40.7 41.1 0 49.7-24.7 49.7-37.4 0-10.7-6.2-22.6-19.7-27.9-8.2-3.3-22.2-6.2-29.2-8.2-3.7-.8-15.2-3.3-15.2-10.7 0-9 15.2-7.8 12.7-7.8 6.7-.5 14.5 3.7 14.5 11.9zM527.7 288.1H612v28.8h-50.6v19.3h44.8v27.5H561v34.1h-33.3"/></g><path fill="#8C8C8C" d="M0 288.1v109.7h109.7V288.1H0zm76 76H33.7v-42.3H76v42.3zM143.4 321.8h42.3v42.3h-42.3z"/></svg>