<svg xmlns="http://www.w3.org/2000/svg" xmlns:xlink="http://www.w3.org/1999/xlink" viewBox="0 0 284 234"><defs><path id="a" d="M0 0h283.465v233.602H0z"/></defs><g fill="none" fill-rule="evenodd"><mask id="b" fill="#fff"><use xlink:href="#a"/></mask><path fill="#FF0030" d="M250.508 180.365c-6.131-.415-4.511-14.84-17.477-13.237-9.255 1.114-10.273 12.09-11.073 20.66-.908 9.597-2.02 17.707-4.853 16.36-2.381-1.1-1.761-5.465-2.757-18.812-1.158-15.293-4.934-23.704-14.014-25.162-11.152-1.76-15.466 15.069-17.4 21.609-1.903 6.46-5.253 9.406-7.383 9.406-1.872 0-4.966-.877-5.843-8.53-.877-7.717 5.473-20.956 14.244-30.211 26.37-27.806 64.26-47.422 64.26-90.417C248.213 21.459 219.03 0 192.19 0c-20.554 0-31.987 12.052-35.962 15.994-6.39 6.348-9.171 13.42-11.615 13.42-2.41 0-5.16-7.072-11.523-13.42C129.118 12.052 117.655 0 97.133 0c-26.85 0-56.024 21.459-56.024 62.03 0 42.996 37.857 62.612 64.252 90.418 8.77 9.255 14.956 22.443 14.228 30.21-.8 8.332-4.01 7.958-5.488 7.918-.846-.071-4.966-1.53-7.487-11.015-2.302-8.683-5.198-16.64-14.822-17.166-10.696-.652-13.506 14.108-14.415 25.807-.798 10.06-1.072 28.953-4.854 27.392-2.21-.923-3.29-22.573-5.084-39.171-1.393-12.85-3.091-40.303-10.576-45.203-9.061-5.925-17.008.727-19.504 11.249-1.842 7.869-2.131 14.375-4.488 24.969-1.76 7.805-3.743 12.846-11.408 12.846L0 180.404v11.622h4.918c27.757 1.147 35.594-1.681 38.907-14.226 2.952-11.206 4.119-24.054 4.777-27.646 1.026-5.432 4.39-8.147 5.84 7.002.745 7.526 1.448 17.132 2.584 26.88 3.407 28.682 4.292 48.499 16.836 49.526 13.905 1.187 13.984-24.324 14.9-34.423.562-6.42 1.393-24.82 4.659-22.827 4.502 2.715 2.772 25.773 24.178 26.737 12.255.564 16.742-8.721 17.54-19.012.738-9.717-8.518-24.134-21.15-36.56-30.395-29.938-51.591-45.36-51.591-78.366 0-33.69 23.498-50.402 44.045-50.402 4.509 0 18.33-.764 35.022 26.278.705 1.138 2.045 1.608 3.179 1.792 1.16-.184 2.5-.654 3.18-1.792 16.694-27.042 30.505-26.278 35.056-26.278 20.514 0 44.043 16.712 44.043 50.402 0 33.007-21.367 47.614-51.765 77.563-12.606 12.384-21.235 27.614-20.975 37.363.224 9.365 5.276 19.576 17.538 19.012 20.688-.964 19.52-17.906 23.758-27.042 2.3-4.898 5.253-4.898 5.988 2.477.79 7.734.79 9.949 1.583 17.786 1.024 10.1 4.604 21.458 13.74 20.574 7.838-.765 12.348-5.616 13.829-20.151.423-4.245.736-6.147 1.267-12.314.32-3.482 1.395-6.158 2.905-5.654 1.582.573 2.968 4.157 4.05 6.57 3.234 7.233 10.704 6.85 12.435 6.889 7.579.153 10.217.032 10.217.032l21.972-.071v-11.358c-12.632-.04-29.27-.151-32.957-.422" mask="url(#b)"/></g></svg>