<svg viewBox="0 0 53 35" fill="none" xmlns="http://www.w3.org/2000/svg"><path d="M7.944 9.589V.992l8.398 6.499c2.908 2.28 3.46 5.598 3.392 5.516-1.894-2.353-4.422-3.385-6.163-3.413L7.944 9.59z" fill="#FF9C6C"/><path d="M30.57 11.444h-6.283V34.18h6.284V11.444zM41.587.71h-6.283v33.47h6.283V.71zM52.599.71h-6.284v33.47H52.6V.71zM13.445 26.326c0 1.012-.879 1.843-1.872 1.843H6.21V17.349h5.363c1 0 1.872.821 1.872 1.844v7.134zM6.252 11.45V.724H0v33.453h13.083c3.68 0 6.662-3.131 6.662-6.996v-8.734c0-3.865-2.981-6.996-6.662-6.996H6.252z" fill="#FF5A0A"/><circle cx="27.391" cy="4.105" r="4.105" fill="#FF5A0A"/></svg>