<svg data-name="Layer 1" xmlns="http://www.w3.org/2000/svg" viewBox="0 0 781.617 224.265"><path d="M524.53 187.74c0-12.13 6.663-17.325 15.456-17.325 7.869 0 12.801 3.996 12.801 13.195v37.719h33.327v-46.385c0-20.26-13.865-28.526-32.258-28.526-15.994 0-25.855 6.397-29.054 11.064h-.273v-34.65h-33.326v98.497h33.326zM694.34 174.81c0-21.722-13.463-29.32-47.448-29.32-17.602 0-29.73 1.329-37.859 5.061-8.265 3.867-12.392 9.993-14.394 19.994h33.323c1.597-7.064 9.193-8.26 16.795-8.26 9.462 0 15.462 2.266 15.462 7.063 0 3.997-2.267 5.596-8.928 6l-28.13 1.325c-24.658 1.069-34.12 9.602-34.12 22.93 0 18.665 14.129 24.663 36.52 24.663 17.728 0 29.062-3.2 36.529-10.135a28.947 28.947 0 001.19 7.198h34.126c-1.589-2.394-3.065-5.724-3.065-11.331zm-33.315 16.532c0 12.526-12.402 15.32-23.601 15.32-8.264 0-12.39-3.19-12.39-8.262 0-4.66 2.928-6.658 9.055-7.194 11.867-1.066 21.332-1.867 26.936-3.065zM712.078 199.202c0 19.863 7.734 23.728 27.996 23.728a176.363 176.363 0 0024.261-1.601v-19.46c-3.202.136-6.269.267-8.928.267-7.2 0-10.002-.4-10.002-7.2V169.21h17.991v-20.793h-17.99V124.96h-33.328v23.458h-15.462v20.793h15.462zM62.512 146.017c-13.594 0-23.195 3.338-28.924 10.27h-.267v-33.859H0v98.504h32.256v-7.73h.267c5.996 6.928 15.194 10.663 29.99 10.663 21.592 0 41.453-11.86 41.453-38.925 0-27.058-19.86-38.923-41.454-38.923zM51.58 201.472c-12.796 0-18.259-6.133-18.259-16.531 0-10.262 5.463-16.524 18.398-16.524 11.99 0 18.125 7.195 18.125 16.524 0 9.599-5.325 16.53-18.264 16.53zM108.671 122.428h33.321v98.503h-33.321zM221.832 220.932h34.116c-1.6-2.395-3.058-5.73-3.058-11.33v-35.19c0-21.72-13.465-29.326-47.453-29.326-17.6 0-29.731 1.332-37.857 5.064-8.267 3.867-12.402 10-14.396 19.996h33.319c1.601-7.063 9.203-8.262 16.798-8.262 9.461 0 15.464 2.267 15.464 7.063 0 3.997-2.273 5.597-8.934 5.997l-28.13 1.333c-24.654 1.064-34.122 9.6-34.122 22.928 0 18.665 14.129 24.66 36.53 24.66 17.73 0 29.054-3.198 36.521-10.132a28.5 28.5 0 001.202 7.199zm-2.27-29.99c0 12.53-12.392 15.328-23.592 15.328-8.26 0-12.398-3.2-12.398-8.264 0-4.663 2.931-6.663 9.07-7.194 11.855-1.067 21.32-1.87 26.92-3.07zM256.616 184.278c0 30.26 23.993 39.587 54.647 39.587 22.934 0 50.12-3.464 53.594-33.725h-34.929c-2.263 9.464-9.194 12.132-18.525 12.132-13.207 0-19.864-7.201-19.864-18.398 0-9.73 5.207-17.993 20.125-17.993 4.267 0 8.933.665 11.998 2.266a10.494 10.494 0 016.266 9.195h34.93c-3.605-24.257-22.26-32.256-53.595-32.256-30.654 0-54.647 9.335-54.647 39.192zM470.019 148.017h-44.254l-25.193 23.596v-49.185h-33.329v98.503h33.329v-15.992l10.4-8.533 17.321 24.525h45.06l-36.528-45.723 33.194-27.191zM776.204 129.837c0-2.559-1.514-3.253-3.832-3.253h-4.53v11.778h1.065v-5.377h3.062l3.542 5.377h1.232l-3.55-5.377c1.847-.297 3.011-1.096 3.011-3.148zm-4.79 2.24h-2.508v-4.584h3.466c1.599 0 2.772.53 2.772 2.344 0 2.052-1.547 2.24-3.73 2.24z" fill="#fff"/><path d="M771.675 122.538a9.939 9.939 0 109.942 9.933 9.934 9.934 0 00-9.942-9.933zm0 18.81a8.874 8.874 0 118.873-8.877 8.865 8.865 0 01-8.873 8.877zM226.061 118.58c-.754-5.637-5.256-9.404-5.256-9.404-4.89-3.013 6.385-5.638 6.385-5.638-4.886-7.143-5.637-18.429-5.637-18.429-48.513-15.79-2.25-23.32-2.25-23.32 4.511-30.455 10.143-27.825 10.143-27.825 3.416-.512 12.49-.558 21.38-.458v.003l.116-.002.115.002v-.003c8.89-.1 17.964-.054 21.38.458 0 0 5.632-2.63 10.144 27.824 0 0 46.263 7.53-2.251 23.321 0 0-.751 11.286-5.637 18.429 0 0 11.275 2.625 6.385 5.638 0 0-4.501 3.767-5.256 9.404 0 0 34.05 5.867 39.375 15.794A82.524 82.524 0 00250.975 0h-.068a82.524 82.524 0 00-64.22 134.374c5.324-9.927 39.374-15.794 39.374-15.794z" fill="#fff"/></svg>