<svg width="222" height="20" viewBox="0 0 222 20" xmlns="http://www.w3.org/2000/svg" xmlns:xlink="http://www.w3.org/1999/xlink"><defs><path id="a" d="M0 .291h19.138v18.672H0z"/><path id="c" d="M0 18.968h143.499V.296H0z"/><path id="e" d="M.074.624h25.784v15.603H.074z"/></defs><g fill="none" fill-rule="evenodd"><g><g transform="translate(0 .005)"><mask id="b" fill="#fff"><use xlink:href="#a"/></mask><path d="M9.495 14.84c2.38 0 3.362-1.275 3.362-3.042 0-1.717-1.129-3.042-3.337-3.042-2.38 0-3.386 1.153-3.386 3.042 0 1.914 1.006 3.043 3.361 3.043zM0 .29h6.134v6.233h.049c1.055-1.276 2.822-1.89 5.324-1.89 3.975 0 7.631 2.184 7.631 7.165s-3.656 7.165-7.63 7.165c-2.724 0-4.417-.687-5.521-1.963h-.05v1.423H0V.291z" fill="#FFF" mask="url(#b)"/></g><mask id="d" fill="#fff"><use xlink:href="#c"/></mask><path fill="#FFF" mask="url(#d)" d="M19.628 18.428h6.134V.296h-6.134zM40.04 12.32c-1.03.22-2.772.367-4.956.563-1.129.098-1.668.467-1.668 1.325 0 .932.76 1.522 2.282 1.522 2.06 0 4.343-.516 4.343-2.822v-.589zM27.823 9.08c.368-1.84 1.128-2.969 2.65-3.68 1.496-.687 3.729-.932 6.968-.932 6.256 0 8.734 1.398 8.734 5.398v6.477c0 1.03.27 1.644.565 2.085h-6.282a5.338 5.338 0 01-.22-1.325c-1.375 1.276-3.46 1.865-6.723 1.865-4.122 0-6.723-1.104-6.723-4.539 0-2.454 1.742-4.024 6.28-4.22l5.178-.245c1.227-.074 1.644-.368 1.644-1.105 0-.883-1.104-1.3-2.846-1.3-1.398 0-2.797.22-3.092 1.521h-6.133zM60.356 10.405c-.074-.834-.466-1.35-1.154-1.693-.564-.294-1.422-.417-2.208-.417-2.748 0-3.705 1.521-3.705 3.312 0 2.061 1.227 3.386 3.656 3.386 1.718 0 2.994-.49 3.41-2.232h6.43c-.639 5.57-5.644 6.207-9.864 6.207-5.644 0-10.06-1.717-10.06-7.287 0-5.496 4.416-7.213 10.06-7.213 5.766 0 9.2 1.472 9.863 5.937h-6.428zM67.225.296h6.134V9.35l4.637-4.343h8.146l-6.11 5.005 6.723 8.416h-8.293l-3.19-4.514-1.913 1.57v2.944h-6.134zM90.042.296h6.134v6.38h.05c.588-.859 2.404-2.037 5.348-2.037 3.386 0 5.938 1.521 5.938 5.25v8.54h-6.134v-6.944c0-1.693-.908-2.43-2.356-2.43-1.619 0-2.846.957-2.846 3.19v6.183h-6.134V.296zM121.3 12.32c-1.03.22-2.772.367-4.956.563-1.129.098-1.669.467-1.669 1.325 0 .932.76 1.522 2.282 1.522 2.061 0 4.343-.516 4.343-2.822v-.589zm-12.219-3.24c.368-1.84 1.129-2.969 2.65-3.68 1.497-.687 3.73-.932 6.968-.932 6.257 0 8.735 1.398 8.735 5.398v6.477c0 1.03.27 1.644.564 2.085h-6.281a5.338 5.338 0 01-.22-1.325c-1.375 1.276-3.46 1.865-6.723 1.865-4.123 0-6.723-1.104-6.723-4.539 0-2.454 1.742-4.024 6.28-4.22l5.178-.245c1.227-.074 1.644-.368 1.644-1.105 0-.883-1.104-1.3-2.846-1.3-1.399 0-2.797.22-3.092 1.521h-6.134zM127.853 5.007h2.846V.69h6.134v4.318h3.312v3.828h-3.312v4.735c0 1.252.516 1.325 1.84 1.325.491 0 1.056-.024 1.644-.049v3.583c-1.08.147-2.551.294-4.465.294-3.73 0-5.153-.712-5.153-4.367V8.835h-2.846V5.007zM141.159 2.072h.461c.402 0 .687-.034.687-.412 0-.333-.216-.432-.51-.432h-.638v.844zm-.196-1.01h.833c.427 0 .707.128.707.598 0 .378-.216.525-.554.58l.652.99h-.226l-.652-.99h-.564v.99h-.196V1.062zm.706 2.718a1.633 1.633 0 10.001-3.266 1.633 1.633 0 000 3.266zm0-3.464a1.83 1.83 0 110 3.66 1.83 1.83 0 010-3.66z"/></g><path d="M171.25 14.204a4.166 4.166 0 01-4.173 4.172h-11.905A4.166 4.166 0 01151 14.204V3.024h2.67v12.683h14.909V3.023h2.67v11.181zM194.56 14.204a4.166 4.166 0 01-4.171 4.172H174.31v-2.67h17.58v-3.671h-14.13a4.166 4.166 0 01-4.173-4.172v-.668a4.166 4.166 0 014.173-4.172h16.076v2.67H176.26v3.672h14.13a4.166 4.166 0 014.172 4.172v.667z" fill="#FFF"/><g transform="translate(195.045 2.15)"><mask id="f" fill="#fff"><use xlink:href="#e"/></mask><path d="M18.015 9.941l-5.063-7.26-5.062 7.26h10.125zm7.843 6.286h-3.365l-2.56-3.615H5.971l-2.532 3.615H.074L10.115 2.181c.64-.89 1.67-1.558 2.837-1.558 1.197 0 2.197.668 2.837 1.558l10.069 14.046z" fill="#FFF" mask="url(#f)"/></g></g></svg>