<svg version="1.1" id="Layer_2_00000093170978527315577600000003343350964861407393_" xmlns="http://www.w3.org/2000/svg" x="0" y="0" viewBox="0 0 2097.2 303.7" xml:space="preserve"><style>.st0{fill:#0659ff}</style><g id="Layer_1-2"><path class="st0" d="M486.8 207.4h-49.3V151h49.3c25 0 37.6 10.3 37.6 28.2s-12.6 28.2-37.6 28.2zM437.5 61.8h47.3c20.3 0 32 8.5 32 25.5s-11.8 25-32 25h-47.3V61.8zm71.9 70.1c31.7-3.8 55.2-19.7 55.2-50.2S540.9 23 483 23h-91.9v223.1h92.8c57.8 0 88.4-23.5 88.4-62.2 0-33.5-24.7-49.9-62.9-52zM765.8 177.4c0 27.3-9.7 40.8-28.5 40.8s-28.8-12.6-28.8-40.2V86.7h-44.9v101c0 35.2 15.6 61.9 52.6 61.9 27.9 0 42.9-15.9 50.2-34.9v31.4h44.3V86.7h-44.9v90.7zM592.2 246.1h45V23h-45v223.1zM2097.2 49.6c0 18.5-15.1 33.7-33.7 33.7s-33.8-15.1-33.8-33.7 15.3-33.8 33.8-33.8c18.5-.1 33.7 15.2 33.7 33.8zm-6.2 0c0-15.3-12.2-27.5-27.5-27.5S2036 34.3 2036 49.6s12.2 27.4 27.5 27.4 27.5-12.1 27.5-27.4zm-20.1 1.9l8.5 14.6h-7l-7.9-13.5h-6.5v13.5h-6.1V31.9h13c7.7 0 12.8 4.1 12.8 10.3-.2 4.5-2.7 7.7-6.8 9.3zm-13-14.5v10.6h6.5c4.3 0 6.8-2 6.8-5.2 0-3.4-2.5-5.4-6.8-5.4h-6.5zM1985.9 213.3c-12.9 0-19.7-4.1-19.7-17.9v-75.7h34.9v-33h-34.9V49.2h-44.9v37.6h-29.7v32.9h29.7V199c0 31.7 23.5 47.3 54.9 47.3h25.2v-32.9l-15.5-.1zM1822.9 83.2c-27.9 0-43.5 16.1-50.8 36.1V86.8h-44.6v159.4h44.9v-90.7c0-28.2 10.9-40.8 29.4-40.8s29.4 12.6 29.4 40.2v91.3h44.9v-101c0-35.3-15.9-62-53.2-62zM1277.3 219.1c-24.4 0-37.3-20.3-37.3-52.6s12.9-52.8 37.3-52.8 37.3 20.3 37.3 52.8-12.9 52.6-37.3 52.6zm0-135.9c-51.1 0-83.1 34.3-83.1 83.4s32 83.1 83.1 83.1 83.1-34.3 83.1-83.1-32-83.4-83.1-83.4zM1620.6 219.1c-24.4 0-37-20.3-37-52.6s12.6-52.8 37-52.8 37.6 20.3 37.6 52.8-13.2 52.6-37.6 52.6zm35.8-96c-6.8-20.8-24.7-39.9-52.9-39.9-39.3 0-65.8 35.5-65.8 83.4s26.4 83.1 65.8 83.1c24.7 0 44.3-15 52.9-35.8v32.3h44.3V86.7h-44.3v36.4zM1451.4 220.6l-41.9-133.9h-45.3l52.2 159.4h28l-16.4 57.6h46.1l62.8-217h-47.3l-38.2 133.9zM876.2 149.9c3.8-24.9 17-36.1 35-36.1 18.8 0 32.3 13.5 34.7 36.1h-69.7zm34.9-66.7c-48.5 0-81 34.1-81 83.1s31.4 83.4 81 83.4c38.2 0 66.4-17 76.9-50.8h-45.2c-5.6 12.9-14.1 20.3-31.4 20.3-18.5 0-32.3-12.6-35.5-39.3h114.8c.6-4.4.9-8.8.9-12.6 0-50.3-31.1-84.1-80.5-84.1zM1154.4 23L1093 237.3 1031.4 23h-50l67.6 223.1h87.5L1204.3 23h-49.9zM175 0L87.6 89.8l43.7 44.9-43.7 44.9 87.4 89.8 131.1-134.7L175 0zm0 89.8l43.7 44.9-43.7 44.9-43.7-44.9L175 89.8zM0 89.8l43.8 44.9 43.7-44.9-43.7-45L0 89.8z"/></g></svg>