<svg xmlns="http://www.w3.org/2000/svg" width="270" height="125" viewBox="0 0 270 125">
  <g fill="none">
    <path fill="#000" d="M21.4,88.6 L21.4,95.3 L21.4,97.3 L23.3,97.3 C24.2,97.2 25.1,97.2 25.9,96.4 C26.9,95.3 26.9,93.5 26.9,92.9 C26.9,91 26.5,89.9 25.7,89.3 C25.1,88.8 24.1,88.6 22.6,88.6 L21.4,88.6 L21.4,88.6 Z M21.5,81 L21.5,82.7 L21.5,87.8 L23.2,87.8 C24.3,87.8 25.2,87.4 25.5,87 C25.9,86.5 26.2,85.7 26.2,84.4 C26.2,81.6 25.3,81 23.4,81 L21.5,81 Z M15,80.3 L25,80.3 C26,80.3 27.1,80.4 28.1,80.8 C30,81.7 30.1,83.6 30.1,84 C30.1,85 29.7,85.9 29,86.7 C27.8,87.9 26.3,88.1 25.1,88.2 C26.3,88.3 28.3,88.4 29.9,89.9 C30.5,90.5 31.2,91.5 31.2,93.1 C31.2,94.3 30.8,95.5 29.9,96.4 C28.5,97.8 26.7,97.9 25.1,97.9 L15,97.9 L15,97.2 L17.4,97.2 L17.4,94.7 L17.4,83 L17.4,80.9 L15,80.9 L15,80.3 Z M35.3,80.3 C36.5,80.3 36.8,80.3 37.9,80.2 L37.9,83 L37.9,95.4 L37.9,97.4 L39.6,97.4 L39.6,98.1 L32.3,98.1 L32.3,97.4 L34.2,97.4 L34.3,95.4 L34.3,83 L34.2,81 L32.3,81 L32.3,80.3 L35.3,80.3 L35.3,80.3 Z M42.2,85.8 C43.5,85.8 43.9,85.8 45.1,85.7 L45.1,88 L45.1,93.6 C45.1,94.5 45.1,95.3 45.4,95.8 C45.7,96.6 46.4,96.9 47.2,96.9 C47.9,96.9 48.6,96.6 49,96.2 C50,95.2 50,93.9 50,92.8 L50,88.3 L50,86.4 L48.1,86.4 L48.1,85.7 L50.3,85.7 C51.8,85.7 52.2,85.7 53.6,85.6 L53.5,87.9 L53.5,94.8 L53.6,97.1 L55.4,97.1 L55.4,97.8 L53.5,97.8 C51.9,97.8 51.3,97.8 50.1,97.9 L50,96 C49.5,96.6 48.2,98.1 45.4,98.1 C43.5,98.1 42.4,97.4 41.9,96.4 C41.5,95.7 41.5,94.8 41.5,94 L41.5,88.1 L41.5,86.3 L39.7,86.3 L39.7,85.6 L42.2,85.6 L42.2,85.8 Z M64.5,90.5 C64.5,88.5 64.6,86.2 62.3,86.2 C60.2,86.2 60.1,88.3 60,90.5 L64.5,90.5 L64.5,90.5 Z M68.1,94.5 C67.4,95.7 66.1,98.3 62.3,98.3 C58.4,98.3 56,95.3 56,91.8 C56,88.5 58.3,85.5 62.3,85.5 C64.8,85.5 66.2,86.6 66.8,87.2 C68.2,88.6 68.2,90.1 68.3,91.2 L59.9,91.2 C59.9,93.3 60,95.3 61,96.4 C61.6,97 62.4,97.3 63.2,97.3 C65.9,97.3 67,95 67.3,94.2 L68.1,94.5 Z M86.2,96.7 C84.3,97.4 82,98.2 79.1,98.2 C73.9,98.2 70.1,94.5 70.1,89.1 C70.1,83.3 74.5,79.9 79.5,79.9 C81,79.9 83.4,80.3 86.1,81.4 L86.1,86.4 L85.3,86.4 C85.2,85.4 85,83.9 83.4,82.4 C82.2,81.2 80.9,80.8 79.7,80.8 C78.4,80.8 77,81.4 76.2,82.2 C74.9,83.4 74.4,85.5 74.4,89.1 C74.4,92.6 74.8,94.8 76.1,96.1 C76.8,96.9 78,97.5 79.4,97.5 C80.7,97.5 82.3,97 83.6,95.6 C85.1,94 85.3,92.7 85.4,91.8 L86.2,91.8 L86.2,96.7 L86.2,96.7 Z M93.2,97.3 L95,97.3 L95,98 L87.6,98 L87.6,97.3 L89.4,97.3 L89.5,95.3 L89.5,88.7 L89.4,86.5 L87.6,86.5 L87.6,85.8 L90.4,85.8 C91.6,85.8 91.9,85.8 93,85.7 L93,87.6 L93,88.2 C93.2,87.6 93.4,87.2 93.9,86.6 C94.5,86 95.3,85.6 96.2,85.6 C97.8,85.6 98.5,86.9 98.5,88 C98.5,89.5 97.5,89.8 96.9,89.8 C96.6,89.8 95.3,89.7 95.3,88.1 C95.3,88 95.4,87.3 95.4,87.2 C95.4,86.7 95,86.7 94.9,86.7 C94.6,86.7 94.1,87.1 93.8,87.6 C93,88.9 92.9,90.9 92.9,92.3 L92.9,95.3 L93.2,97.3 L93.2,97.3 Z M103,91.4 C103,95.3 103.3,97.6 105.7,97.6 C108.1,97.6 108.3,95.3 108.3,92 C108.3,89 108.2,86.2 105.7,86.2 C103.3,86.2 103,88.5 103,91.4 L103,91.4 Z M112.2,92 C112.2,96 109,98.3 105.6,98.3 C101.9,98.3 99.2,95.6 99.2,91.9 C99.2,88 102.1,85.6 105.5,85.6 C109.6,85.4 112.2,88.3 112.2,92 Z M114.8,93.4 C114.9,94.1 115,94.7 115.4,95.5 C115.8,96.3 116.8,97.6 118.6,97.6 C120.1,97.6 121.1,96.8 121.1,95.8 C121.1,94.7 120,94.2 118.4,93.6 C116.2,92.8 114.3,92.1 114.3,89.4 C114.3,86.2 117.1,85.5 118.8,85.5 C120.2,85.5 121.3,85.9 122.5,86.3 L122.6,89.6 L121.8,89.6 C121.7,89.1 121.6,88.6 121.4,88.2 C121.1,87.5 120.1,86.3 118.5,86.3 C117.1,86.3 116.5,87.2 116.5,87.8 C116.5,88.6 117.2,88.9 117.4,89 C117.8,89.2 119.8,89.9 120.2,90.1 C121.7,90.7 123.3,91.6 123.3,93.9 C123.3,96.5 121.2,98.3 118.2,98.3 C116.5,98.3 115.3,97.8 114,97.4 L114,93.4 L114.8,93.4 L114.8,93.4 Z M125.8,93.4 C125.9,94.1 126,94.7 126.4,95.5 C126.8,96.3 127.8,97.6 129.6,97.6 C131.1,97.6 132.1,96.8 132.1,95.8 C132.1,94.7 131,94.2 129.4,93.6 C127.2,92.8 125.3,92.1 125.3,89.4 C125.3,86.2 128.1,85.5 129.8,85.5 C131.2,85.5 132.3,85.9 133.5,86.3 L133.6,89.6 L132.8,89.6 C132.7,89.1 132.6,88.6 132.4,88.2 C132.1,87.5 131.1,86.3 129.5,86.3 C128.1,86.3 127.5,87.2 127.5,87.8 C127.5,88.6 128.2,88.9 128.4,89 C128.8,89.2 130.8,89.9 131.2,90.1 C132.7,90.7 134.3,91.6 134.3,93.9 C134.3,96.5 132.2,98.3 129.2,98.3 C127.5,98.3 126.3,97.8 125,97.4 L124.9,93.4 L125.8,93.4 L125.8,93.4 Z M148.4,88.6 L148.4,95.3 L148.5,97.3 L150.4,97.3 C151.3,97.2 152.2,97.2 153,96.4 C154,95.3 154,93.5 154,92.9 C154,91 153.6,89.9 152.8,89.3 C152.2,88.8 151.2,88.6 149.7,88.6 L148.4,88.6 L148.4,88.6 Z M148.4,81 L148.4,82.7 L148.4,87.8 L150.1,87.8 C151.2,87.8 152.1,87.4 152.4,87 C152.8,86.5 153.1,85.7 153.1,84.4 C153.1,81.6 152.2,81 150.3,81 L148.4,81 Z M142,80.3 L152,80.3 C153,80.3 154.1,80.4 155.1,80.8 C157,81.7 157.1,83.6 157.1,84 C157.1,85 156.7,85.9 156,86.7 C154.8,87.9 153.3,88.1 152.1,88.2 C153.3,88.3 155.3,88.4 156.9,89.9 C157.5,90.5 158.2,91.5 158.2,93.1 C158.2,94.3 157.8,95.5 156.9,96.4 C155.5,97.8 153.7,97.9 152.1,97.9 L142,97.9 L142,97.2 L144.4,97.2 L144.5,94.7 L144.5,83 L144.4,80.9 L142,80.9 L142,80.3 Z M162.3,80.3 C163.5,80.3 163.8,80.3 164.9,80.2 L164.9,83 L164.9,95.4 L164.9,97.4 L166.6,97.4 L166.6,98.1 L159.3,98.1 L159.3,97.4 L161.2,97.4 L161.3,95.4 L161.3,83 L161.2,81 L159.3,81 L159.3,80.3 L162.3,80.3 L162.3,80.3 Z M169.2,85.8 C170.5,85.8 170.9,85.8 172.1,85.7 L172,88 L172,93.6 C172,94.5 172.1,95.3 172.3,95.8 C172.6,96.6 173.3,96.9 174.1,96.9 C174.8,96.9 175.5,96.6 175.9,96.2 C176.9,95.2 176.9,93.9 176.9,92.8 L176.9,88.3 L176.9,86.4 L175,86.4 L175,85.7 L177.2,85.7 C178.7,85.7 179.1,85.7 180.5,85.6 L180.4,87.9 L180.4,94.8 L180.5,97.1 L182.3,97.1 L182.3,97.8 L180.4,97.8 C178.8,97.8 178.2,97.8 177,97.9 L176.9,96 C176.4,96.6 175.1,98.1 172.3,98.1 C170.4,98.1 169.3,97.4 168.8,96.4 C168.4,95.7 168.4,94.8 168.4,94 L168.4,88.1 L168.4,86.3 L166.6,86.3 L166.6,85.6 L169.2,85.6 L169.2,85.8 Z M191.2,90.5 C191.2,88.5 191.2,86.2 189,86.2 C186.9,86.2 186.8,88.3 186.7,90.5 L191.2,90.5 L191.2,90.5 Z M194.9,94.5 C194.2,95.7 192.9,98.3 189.1,98.3 C185.2,98.3 182.8,95.3 182.8,91.8 C182.8,88.5 185.1,85.5 189.1,85.5 C191.6,85.5 193,86.6 193.6,87.2 C195,88.6 195,90.1 195.1,91.2 L186.7,91.2 C186.7,93.3 186.8,95.3 187.8,96.4 C188.4,97 189.2,97.3 190,97.3 C192.7,97.3 193.7,95 194.1,94.2 L194.9,94.5 Z M197.6,91.9 C197.7,92.6 197.9,93.3 198.3,94.2 C199.8,97.3 202.6,97.4 203.1,97.4 C205.1,97.4 206.8,96.2 206.8,94.4 C206.8,92.6 205.4,92 201.6,90.4 C201,90.1 200.4,89.9 199.9,89.6 C199.2,89.2 197.1,88 197.1,85.1 C197.1,82 199.6,79.9 203.1,79.9 C205.3,79.9 207,80.6 207.9,81 L208.2,85.2 L207.4,85.2 C207.1,83.9 206.9,83.2 206,82.3 C205.1,81.4 204,80.8 202.7,80.8 C200.8,80.8 199.8,82.1 199.8,83.4 C199.8,85 201.3,85.7 201.9,86 C202.8,86.4 203.6,86.7 204.5,87.1 C206.7,88 209.4,89.3 209.4,92.7 C209.4,95.9 206.9,98.3 202.6,98.3 C200.4,98.3 198.8,97.7 197.1,97.1 L197,92 L197.6,92 L197.6,91.9 Z M212.9,80.3 C214.2,80.3 214.5,80.3 215.6,80.2 L215.6,82.9 L215.6,87.7 C216.1,86.9 216.6,86.2 218,85.8 C218.6,85.6 219.2,85.5 219.8,85.5 C221.7,85.5 222.6,86.2 223,86.6 C223.9,87.5 224,88.6 224.1,89.6 L224.1,95.6 L224.1,97.4 L225.8,97.4 L225.8,98.1 L218.4,98.1 L218.4,97.4 L220.3,97.4 L220.4,95.6 L220.4,89.6 C220.4,88.6 220.4,86.7 218.4,86.7 C217.7,86.7 217,87 216.5,87.5 C215.6,88.4 215.6,89.5 215.5,90.9 L215.5,95.6 L215.5,97.4 L217.4,97.4 L217.4,98.1 L210.1,98.1 L210.1,97.4 L211.9,97.4 L212,95.6 L212,83 L211.9,81 L210.1,81 L210.1,80.3 L212.9,80.3 L212.9,80.3 Z M227.8,82.1 C227.8,81 228.7,80.1 229.8,80.1 C230.9,80.1 231.8,81 231.8,82.1 C231.8,83.2 230.9,84.1 229.8,84.1 C229.3,84.1 228.7,83.9 228.4,83.5 C228.1,83.2 227.8,82.7 227.8,82.1 L227.8,82.1 Z M228.6,85.8 C230.1,85.8 230.6,85.8 231.8,85.7 L231.7,88.5 L231.7,95.4 L231.8,97.4 L233.5,97.4 L233.5,98.1 L226.2,98.1 L226.2,97.4 L228.1,97.4 L228.1,95.4 L228.1,88.5 L228.1,86.5 L226.2,86.5 L226.2,85.8 L228.6,85.8 Z M242.8,90.5 C242.8,88.5 242.9,86.2 240.6,86.2 C238.5,86.2 238.4,88.3 238.3,90.5 L242.8,90.5 L242.8,90.5 Z M246.5,94.5 C245.8,95.7 244.5,98.3 240.7,98.3 C236.8,98.3 234.4,95.3 234.4,91.8 C234.4,88.5 236.7,85.5 240.7,85.5 C243.2,85.5 244.6,86.6 245.2,87.2 C246.6,88.6 246.6,90.1 246.7,91.2 L238.3,91.2 C238.3,93.3 238.4,95.3 239.4,96.4 C240,97 240.8,97.3 241.6,97.3 C244.3,97.3 245.4,95 245.7,94.2 L246.5,94.5 Z M250.4,80.3 C251.6,80.3 251.9,80.3 253,80.2 L253,83 L253,95.4 L253,97.4 L254.7,97.4 L254.7,98.1 L247.3,98.1 L247.3,97.4 L249.2,97.4 L249.3,95.4 L249.3,83 L249.2,81 L247.3,81 L247.3,80.3 L250.4,80.3 L250.4,80.3 Z M260.1,87.3 C259.4,88.1 259.2,89.5 259.2,91.9 C259.2,94.8 259.3,97.2 261.6,97.2 C262.2,97.2 263,97 263.5,96.4 C264.2,95.7 264.4,94.8 264.4,91.7 C264.4,89.4 264.4,86.7 261.7,86.7 C261,86.6 260.4,86.9 260.1,87.3 L260.1,87.3 Z M265,80.3 C266.5,80.3 266.9,80.3 268,80.2 L267.9,82.2 L267.9,95.5 L268,97.3 L269.8,97.3 L269.8,98 L267.4,98 C266,98 265.5,98 264.4,98.1 L264.4,96.4 C263.8,97.1 262.9,98.2 260.6,98.2 C256.8,98.2 255.3,94.8 255.3,92 C255.3,88.1 257.7,85.5 260.9,85.5 C262.5,85.5 263.3,86 263.9,86.6 C264.3,86.9 264.3,87.1 264.4,87.4 L264.4,82.4 L264.3,80.8 L262.4,80.8 L262.4,80.1 L265,80.1 L265,80.3 L265,80.3 Z M22,112.2 C21.9,112.5 21.8,112.7 21.8,113 L21.5,113.8 L20,118 L24,118 L22,112.2 L22,112.2 Z M23.2,106.7 L24,106.7 L24.8,108.8 L29.7,122 L30.5,124 L32.5,124 L32.5,124.7 L23.6,124.7 L23.6,124 L26,124 L25.4,122.1 L24.2,118.7 L19.7,118.7 L18.5,122.1 L17.9,123.9 L20.4,123.9 L20.4,124.6 L15,124.6 L15,123.9 L17,123.9 L17.7,121.9 L23.2,106.7 Z M33.9,120 C34,120.7 34.1,121.3 34.5,122.1 C34.9,122.9 35.9,124.2 37.7,124.2 C39.2,124.2 40.2,123.4 40.2,122.4 C40.2,121.3 39.1,120.8 37.5,120.2 C35.3,119.4 33.4,118.7 33.4,116 C33.4,112.8 36.2,112.1 37.9,112.1 C39.3,112.1 40.4,112.5 41.6,112.9 L41.7,116.2 L40.9,116.2 C40.8,115.7 40.7,115.2 40.5,114.8 C40.2,114.1 39.2,112.9 37.6,112.9 C36.2,112.9 35.6,113.8 35.6,114.4 C35.6,115.2 36.3,115.5 36.5,115.6 C36.9,115.8 38.9,116.5 39.3,116.7 C40.8,117.3 42.4,118.2 42.4,120.5 C42.4,123.1 40.3,124.9 37.3,124.9 C35.6,124.9 34.4,124.5 33.1,124 L33,120 L33.9,120 L33.9,120 Z M44.9,120 C45,120.7 45.1,121.3 45.5,122.1 C45.9,122.9 46.9,124.2 48.7,124.2 C50.2,124.2 51.2,123.4 51.2,122.4 C51.2,121.3 50.1,120.8 48.5,120.2 C46.3,119.4 44.4,118.7 44.4,116 C44.4,112.8 47.2,112.1 48.9,112.1 C50.3,112.1 51.4,112.5 52.6,112.9 L52.6,116.2 L51.8,116.2 C51.7,115.7 51.6,115.2 51.4,114.8 C51.1,114.1 50.1,112.9 48.5,112.9 C47.1,112.9 46.5,113.8 46.5,114.4 C46.5,115.2 47.2,115.5 47.4,115.6 C47.8,115.8 49.8,116.5 50.2,116.7 C51.7,117.3 53.3,118.2 53.3,120.5 C53.3,123.1 51.2,124.9 48.2,124.9 C46.5,124.9 45.3,124.5 44,124 L44,120 L44.9,120 L44.9,120 Z M58.8,118 C58.8,121.9 59.1,124.2 61.5,124.2 C63.9,124.2 64.1,121.9 64.1,118.6 C64.1,115.6 63.9,112.8 61.5,112.8 C59.1,112.8 58.8,115.2 58.8,118 L58.8,118 Z M67.9,118.6 C67.9,122.6 64.7,124.9 61.3,124.9 C57.6,124.9 54.9,122.2 54.9,118.5 C54.9,114.6 57.8,112.2 61.2,112.2 C65.4,112.1 67.9,114.9 67.9,118.6 Z M81.4,120.8 C81,122 80,124.9 76,124.9 C71.8,124.9 69.7,121.8 69.7,118.5 C69.7,115.4 71.7,112.1 76.5,112.1 C79.6,112.1 81.2,113.6 81.2,115 C81.2,115.7 80.9,116.7 79.5,116.7 C78.8,116.7 77.9,116.4 77.8,115.2 C77.8,114.9 77.8,114.6 77.8,114.3 C77.7,113.4 77.1,112.8 76.2,112.8 C74.2,112.8 73.8,114.9 73.8,117.7 C73.8,120.4 73.9,123.8 77.1,123.8 C78.5,123.8 79.3,123.1 79.7,122.7 C80.5,122 80.7,121.3 80.9,120.5 L81.4,120.8 L81.4,120.8 Z M83.3,108.8 C83.3,107.7 84.2,106.8 85.3,106.8 C86.4,106.8 87.3,107.7 87.3,108.8 C87.3,109.9 86.4,110.8 85.3,110.8 C84.8,110.8 84.2,110.6 83.9,110.2 C83.5,109.8 83.3,109.3 83.3,108.8 L83.3,108.8 Z M84,112.5 C85.5,112.5 86,112.5 87.2,112.4 L87.1,115.2 L87.1,122.1 L87.2,124.1 L89,124.1 L89,124.8 L81.7,124.8 L81.7,124.1 L83.6,124.1 L83.6,122.1 L83.6,115.2 L83.6,113.2 L81.7,113.2 L81.7,112.5 L84,112.5 Z M97.8,117.1 C97.4,117.3 97,117.4 96.6,117.5 C94.8,118.1 93.5,118.5 93.5,121.2 C93.5,121.8 93.5,123.7 95.4,123.7 C97.7,123.7 97.8,121 97.8,118.9 L97.8,117.1 L97.8,117.1 Z M101.2,122 C101.2,122.6 101.3,123.9 102.5,123.9 C102.7,123.9 102.9,123.9 103.1,123.8 L103.1,124.5 C101.8,124.6 101,124.6 100.1,124.6 C98.2,124.6 97.9,123.5 97.7,122.7 C97.4,123.3 96.5,124.7 93.8,124.7 C91.4,124.7 89.8,123.4 89.8,120.9 C89.8,118.5 91.4,117.9 92.1,117.7 C92.9,117.4 93.8,117.3 94.6,117.1 C95.6,116.9 96.6,116.6 97.6,116.2 L97.6,114.9 C97.6,114 97.5,112.7 95.6,112.7 C94.8,112.7 94.2,113 93.8,113.3 C93.4,113.7 93.4,114 93.4,114.7 C93.4,115.3 93.2,116.1 91.9,116.1 C91.5,116.1 90.6,116 90.6,114.9 C90.6,114.3 91,113.7 91.4,113.3 C92,112.7 93.1,112.1 96,112.1 C101,112.1 101.1,114.4 101.1,116.2 L101.1,122 L101.2,122 Z M104.9,109.1 L108.5,109.1 L108.4,111.7 L108.4,112.5 L110.9,112.5 L110.9,113.2 L108.4,113.2 L108.4,120.8 C108.4,122.4 108.5,123.8 109.7,123.8 C110.5,123.8 110.9,123.4 111.4,123 L111.9,123.5 C111.2,124.2 110.3,124.9 108.2,124.9 C104.9,124.9 104.9,122.7 104.9,121.4 L104.9,117.8 L104.9,113.2 L103,113.2 L103,112.5 L104.9,112.5 L104.9,111.7 L104.9,109.1 L104.9,109.1 Z M113.6,108.8 C113.6,107.7 114.5,106.8 115.6,106.8 C116.7,106.8 117.6,107.7 117.6,108.8 C117.6,109.9 116.7,110.8 115.6,110.8 C115.1,110.8 114.5,110.6 114.2,110.2 C113.8,109.8 113.6,109.3 113.6,108.8 L113.6,108.8 Z M114.4,112.5 C115.9,112.5 116.4,112.5 117.6,112.4 L117.6,115.2 L117.6,122.1 L117.6,124.1 L119.3,124.1 L119.3,124.8 L112,124.8 L112,124.1 L113.9,124.1 L114,122.1 L114,115.2 L113.9,113.2 L112,113.2 L112,112.5 L114.4,112.5 Z M124.2,118 C124.2,121.9 124.5,124.2 126.9,124.2 C129.3,124.2 129.5,121.9 129.5,118.6 C129.5,115.6 129.3,112.8 126.9,112.8 C124.5,112.8 124.2,115.2 124.2,118 L124.2,118 Z M133.3,118.6 C133.3,122.6 130.1,124.9 126.7,124.9 C123,124.9 120.3,122.2 120.3,118.5 C120.3,114.6 123.2,112.2 126.6,112.2 C130.8,112.1 133.3,114.9 133.3,118.6 Z M148.3,123.9 L150,123.9 L150,124.6 L142.8,124.6 L142.8,123.9 L144.6,123.9 L144.7,121.9 L144.7,115.5 C144.7,114.7 144.6,113.3 143,113.3 C142.4,113.3 141.7,113.5 141.1,114 C140,115 140,116.7 140,118.3 L140,122 L140,124 L141.8,124 L141.8,124.7 L134.5,124.7 L134.5,124 L136.3,124 L136.4,122 L136.4,115 L136.3,113.2 L134.5,113.2 L134.5,112.6 L137.1,112.6 C138.5,112.6 138.8,112.6 140,112.5 L140,114.7 C140.3,114 140.6,113.5 141.3,113 C142,112.5 143.1,112.2 144.4,112.2 C145.3,112.2 145.9,112.4 146.2,112.5 C148.1,113.2 148.2,114.9 148.3,115.9 L148.3,122.1 L148.3,123.9 L148.3,123.9 Z"/>
    <path fill="#0099D8" d="M55.9 59.5C56.4 59.5 57.2 59.6 57.2 58.9 57.2 58.4 56.7 58.3 56.3 58.3L55.2 58.3 55.2 59.6 55.9 59.6 55.9 59.5zM55.2 61.7L54.7 61.7 54.7 57.8 56.4 57.8C57.4 57.8 57.8 58.2 57.8 58.9 57.8 59.7 57.3 59.9 56.6 60L57.8 61.7 57.2 61.7 56.1 60 55.3 60 55.3 61.7 55.2 61.7zM58.9 59.8C58.9 58.1 57.7 56.9 56 56.9 54.3 56.9 53.1 58.1 53.1 59.8 53.1 61.5 54.3 62.7 56 62.7 57.7 62.6 58.9 61.4 58.9 59.8zM52.6 59.8C52.6 57.9 54.1 56.4 56 56.4 57.9 56.4 59.4 57.9 59.4 59.8 59.4 61.7 57.9 63.2 56 63.2 54.1 63.2 52.6 61.7 52.6 59.8zM116.1 59.5C116.6 59.5 117.4 59.6 117.4 58.9 117.4 58.4 116.9 58.3 116.5 58.3L115.4 58.3 115.4 59.6 116.1 59.6 116.1 59.5zM115.4 61.7L114.9 61.7 114.9 57.8 116.6 57.8C117.6 57.8 118 58.2 118 58.9 118 59.7 117.5 59.9 116.8 60L118 61.7 117.4 61.7 116.3 60 115.5 60 115.4 61.7 115.4 61.7zM119.1 59.8C119.1 58.1 117.9 56.9 116.2 56.9 114.5 56.9 113.3 58.1 113.3 59.8 113.3 61.5 114.5 62.7 116.2 62.7 117.9 62.6 119.1 61.4 119.1 59.8zM112.7 59.8C112.7 57.9 114.2 56.4 116.1 56.4 118 56.4 119.5 57.9 119.5 59.8 119.5 61.7 118 63.2 116.1 63.2 114.3 63.2 112.7 61.7 112.7 59.8zM31.5 15.4002813C31.5166612 15.4001875 31.5333279 15.4001172 31.5500001 15.4000703 31.5333377 15.4000234 31.5166715 15.4 31.5 15.4L31.5 15.4002813zM31.6 15.4002715L31.6 17.5C31.5832349 17.5 31.5665683 17.5001616 31.55 17.5004828 33.5099536 17.5384753 34.0924557 19.8092208 33.2 20.9 32.4 21.9 32.2 22.2 32.3 23.2 32.3 24 33.1 25 34.8 25.1L46.9 25.1C44.2132439 19.3284499 38.3578039 15.438306 31.6 15.4002813zM45.2 62.9L17.8 62.9 17.8 45.8.6 45.8.6 18.5 17.8 18.5 17.8 1.4 45.2 1.4 45.2 18.5 62.3 18.5 62.3 45.8 45.2 45.8 45.2 62.9zM36 27.3C33.9 27.6 33.6 29.7 34.2 30.9L42 45.5C46 42.4 48.5 37.6 48.5 32.2 48.5 30.1 48.1 28.1 47.4 26.3L36 27.3zM15.7 26.3C15 28.1 14.6 30.1 14.5 32.2 14.5 37.6 17 42.4 21 45.5L28.8 30.9C29.4 29.7 29.1 27.6 27 27.3L15.7 26.3zM31.5 15.4002813C24.7421961 15.438306 18.8867561 19.3284499 16.2 25.1L28.3 25.1C30 25 30.8 24 30.8 23.2 30.9 22.2 30.7 21.9 29.9 20.9 29.0075443 19.8092208 29.5900464 17.5384753 31.55 17.5004828 31.5334317 17.5001616 31.5167651 17.5 31.5 17.5L31.5 15.4002813zM31.5499984 15.4000703C31.566671 15.4001172 31.5833383 15.4001875 31.6 15.4002813L31.6 15.4C31.5833279 15.4 31.5666613 15.4000234 31.5500001 15.4000703zM31.5 49.1C34.9 49.1 38.2 48.1 40.8 46.3L32.6 34C32 33.2 31.1 33.1 30.5 34L22.2 46.3C24.9 48.1 28.1 49.1 31.5 49.1z"/>
    <path fill="#0099D8" d="M17.3 28.7L25.9 29.5C26.5 29.5 26.6 29.8 26.4 30.2L20.4 41.7C18.2 39.2 16.9 35.8 16.9 32.2 16.9 31 17.1 29.9 17.3 28.7M27.5 18.2C26.6 19.6 27.3 21.5 28.1 22.4 28.3 22.6 28.2 22.7 28 22.8L20.4 22.8C22.3 20.6 24.7 19 27.5 18.2M45.7 28.7C46 29.9 46.1 31 46.1 32.2 46.1 35.8 44.8 39.2 42.6 41.7L36.6 30.2C36.4 29.8 36.5 29.5 37.1 29.5L45.7 28.7zM35.6 18.2C38.4 19 40.8 20.6 42.7 22.8L35.1 22.8C34.9 22.7 34.8 22.6 35 22.4 35.8 21.5 36.5 19.6 35.6 18.2zM96.5 63.6C84.7 57.1 77.5 46.7 73.8 35.3 70 23.5 70.6 9.3 75.1.6 81.8 4 88.6 5.9 96.5 5.9 104.4 5.8 111.1 4 117.9.6 122.3 9.4 123 23.5 119.2 35.3 115.5 46.7 108.4 57.1 96.5 63.6zM114.8 33.9C117.8 25.3 118.5 15.1 115.2 7.2 110.3 8.9 107.5 9.4 104.8 9.8 102.3 10.2 100.1 10.4 96.5 10.5 92.9 10.5 90.7 10.2 88.2 9.8 85.5 9.4 82.7 8.9 77.8 7.2 74.5 15.1 75.3 25.2 78.2 33.9 81.6 43.7 86.8 52.3 96.5 58.3 106.3 52.3 111.5 43.7 114.8 33.9z"/>
    <path fill="#0099D8" d="M96.5,55.9 C89.9,51.8 82.4,42.4 79.4,30 C77.8,23.5 77.3,16.1 79.4,10.3 C82.4,11.1 85.1,11.7 88,12.1 C90.9,12.5 93.7,12.8 96.5,12.8 C99.3,12.8 102.1,12.5 105,12.1 C107.9,11.7 110.6,11.1 113.6,10.3 C115.6,16.1 115.2,23.4 113.6,30 C110.6,42.4 103.1,51.8 96.5,55.9 Z M89.5,17.2 C87.3,18.4 86.3,21.2 87.4,23.6 C88.3,25.5 90.1,26.4 92.1,27 C93.1,27.3 94,27.4 95.1,27.5 C96.4,27.6 97.5,27.7 98.7,28 C99,28.1 99.4,28.3 99.5,28.5 C99.7,29 99.6,29.5 99,29.8 C99,30.9 98.9,33.1 98.9,33.1 C98.9,33.1 104.1,32.6 103.3,27.9 C103.1,26.8 102,25.7 101,25.2 C98.4,23.9 95.6,24.4 92.9,23.5 C92.1,23.3 91.2,22.9 91,22 C90.9,21.5 90.9,20.9 91.3,20.7 C91.9,20.3 92.4,20.9 93.3,21.1 C93.9,21.2 94.6,21.2 95.1,21.1 C95.3,21 95.6,21 95.6,20.8 C95.6,20.6 95.2,20.5 95.1,20.5 C94.8,20.3 94.5,20.3 94.2,20.2 C93.7,20 93.1,19.6 92.6,19.3 C93.1,19.2 94,19.2 94.5,19.2 C94.9,19.2 96.2,19.2 96.5,19.1 C96.6,19.1 96.8,19 96.7,18.9 C96.6,18.7 96.3,18.6 96.1,18.3 C95.7,17.8 95.4,17.3 94.8,17.1 C93.1,16.5 91.2,16.3 89.5,17.2 Z M97.7,46.3 C97.7,46.2 97.7,46.1 97.6,46 C97.3,45.7 96.9,45.5 96.8,45.4 C96.5,45.2 95.8,45 95.8,45 C95.8,45 95.9,49.6 96,52 C96,52.6 96.2,52.7 96.8,52.7 C97.4,52.7 97.6,52.4 97.6,52.1 C97.6,51.4 97.7,48.1 97.7,46.3 Z M98.4,16.1 C97.3,15.9 96.3,15.4 95.3,15.1 C95.1,15 94.5,15 94.4,15.3 C94.2,15.6 94.3,16.4 94.3,16.4 C94.3,16.4 95.4,16.9 95.8,17.3 C96.1,17.5 96.3,18 96.5,18.2 C96.7,18.4 96.8,18.5 97,18.7 C97.3,19 97.4,19.2 97.3,19.4 C97.2,19.5 96.9,19.6 96.5,19.7 C95.7,19.8 95.1,19.8 95.1,19.8 C95.1,19.8 96.8,20 97.5,20.2 C97.9,20.3 98,20.4 98.2,20.6 C98.3,20.7 98.5,21.1 98.4,21.2 C97.3,20.7 96.3,20.3 95.2,20.1 C95.3,20.1 95.7,20.3 95.9,20.4 C96.1,20.5 96.1,20.7 96.1,20.8 C96,21.7 94.5,21.7 94.5,21.7 L94.6,22.9 C95.7,23.2 97.2,23.2 98.7,23.5 C98.7,23.5 98.9,23.1 99,23 C99.4,22.3 100,22 100.5,21.5 C101.4,20.7 102.2,20.1 102.9,19.5 C103.2,19.2 103.4,19.2 103.5,18.7 C103.8,17.7 102.4,17 101.9,17.2 C100.8,17.7 100.1,18.6 99.1,19.2 C98.9,19.3 98.8,19.3 98.7,19.1 C98.6,18.5 98.9,17.4 98.7,16.7 C98.6,16.3 98.6,16.3 98.4,16.1 Z M98,33.5 L98.1,28.9 C98.1,28.9 97.4,28.6 96.5,28.6 C95.2,28.5 94.7,28.5 94.7,28.5 L94.7,28.9 C94.7,28.9 94,29.1 93.9,29.2 C93.9,29.3 93.7,29.4 93.9,29.7 C94.6,30.9 95,31.5 95.3,33.2 C96.3,33.2 96.9,33.3 98,33.5 Z M90.6,32.7 C90.5,34.8 92,36.1 94.3,36.5 C95.5,36.7 96.7,36.8 98,37 C98.2,37 98.5,37.1 98.8,37.2 C99,37.3 99.1,37.5 99.2,37.6 C99.2,37.8 99.2,37.9 99.1,38.1 C99,38.3 98.8,38.3 98.8,38.3 L98.7,40.9 C98.7,40.9 99.6,40.9 100.4,40.4 C101.2,39.9 101.7,39.3 101.9,38.6 C102.1,37.7 102,37 101.3,36.2 C100.9,35.6 100.2,35.2 99.4,35 C98.3,34.6 96.2,34.4 94.7,34.1 C94.5,34.1 94.1,33.9 94,33.6 C94,33.2 94.4,33.1 94.4,33.1 C94.4,33.1 94.3,32.7 94.1,32.2 C94,31.9 93.7,31.2 93.3,30.6 C92.2,30.9 90.7,31.3 90.6,32.7 Z M97.9,37.8 C97,37.7 96.6,37.7 95.6,37.5 L95.8,41 L96.8,41.5 L97.8,42 L97.9,37.8 Z M92.7,40.2 C92.1,41.7 92.6,43 94.2,43.7 C94.9,44 95.8,44.3 96.5,44.5 C97.2,44.8 98.5,45.6 98.6,46 C98.7,46.2 98.5,46.4 98.5,46.4 L98.4,48.2 C98.4,48.2 99.1,48 99.6,47.6 C100.1,47.2 100.5,46.6 100.5,45.7 C100.5,44.7 100,44.1 98.6,43.3 C97.5,42.7 96,42.1 95,41.6 C94.9,41.6 94.6,41.4 94.7,41 C94.8,40.8 95,40.7 95,40.7 L94.8,38.6 C94.8,38.6 94.3,38.8 93.9,39 C93.5,39.2 92.9,39.6 92.7,40.2 Z M94.6,47.8 C94.3,48.1 93.7,48.6 93.9,49.8 C94,50.5 94.1,50.8 94.4,51.3 C94.6,51.7 94.9,51.8 95,51.3 C95.1,51 94.8,50.7 94.9,50.1 C95,49.5 95.3,49.3 95.3,49.3 L95.2,47.3 C95.2,47.4 94.9,47.5 94.6,47.8 Z"/>
    <path fill="#2BACE2" d="M94.6,17.8 C94.4,18 94.2,18.1 94,18.1 C93.5,18.2 93.6,17.8 93.3,17.5 C93.1,17.4 92.9,17.5 92.7,17.2 C93.4,17.2 94.4,17.2 95,17.8 C94.9,17.8 94.6,17.8 94.6,17.8"/>
    <path fill="#0099D8" d="M31.3,36.8 C31.4,36.6 31.6,36.6 31.8,36.8 L37.5,45.5 C35.7,46.3 33.7,46.8 31.6,46.8 C29.5,46.8 27.5,46.4 25.7,45.5 L31.3,36.8 C31.5,36.6 31.6,36.6 31.8,36.8"/>
  </g>
</svg>
