<svg xmlns="http://www.w3.org/2000/svg" viewBox="0 0 187.1 37.7"><path fill-rule="evenodd" clip-rule="evenodd" fill="#FFF" d="M69 21c0-2.6-.9-3.5-2.1-3.5-1.6 0-2.2 1.4-2.2 3.1v14.1h-5.4V21c0-2.8-1-3.5-1.9-3.5-1.8 0-2.4 1.9-2.4 4.8v12.4h-5.4V17.1c0-2.1 0-3.5-.1-4.6h4.9c.1 1 .1 2.2.1 3.7h.1c.8-2.4 2.2-4 5.1-4 2.6 0 3.9 1.5 4.6 3.7.8-2.1 2.1-3.7 4.9-3.7 3.9 0 5.2 3.6 5.2 8v14.5H69V21zM88.9 34.1c-1.6.5-3.2.9-4.9.9-6.9 0-8.4-7.1-8.4-11.2 0-6.8 3.1-11.7 8.8-11.7 1.8 0 2.7.6 4.3 1.1l-.3 5.1c-1-.5-2-.9-3.1-.9-4.1 0-4.1 5.7-4.1 6.5 0 4.7 2.3 6.2 4.4 6.2 1.1 0 2.2-.5 3.1-1l.2 5zM26.3 14.7V0L12.8 9.7l13.5 5M12.8 28.1l13.5 9.6V23.2l-13.5 4.9M12.8 9.7L0 18.9l12.8 9.2V9.7M99.1 15.4c-1.1-.5-2-.9-3.2-.9-2.2 0-3.2 1.9-3.2 3.5 0 2 .7 2.5 3.2 4.1 2.6 1.6 4.6 2.8 4.6 6.3 0 4-2.4 6.4-5.6 6.4-2.3 0-3.7-.6-4.8-1l.3-2.8c.6.5 2.5 1.5 4.3 1.5 2 0 3.5-1.8 3.5-3.8 0-2.1-1.1-3-3.4-4.3-3.2-1.9-4.4-3-4.4-6.1 0-4.2 3-6.1 5.5-6.1 1.3 0 2.8.4 3.5.7l-.3 2.5zM108.5 32.4c-4.8 0-4.8-7.2-4.8-9 0-1.8 0-9 4.8-9s4.8 7.2 4.8 9c0 1.8 0 9-4.8 9zm0 2.4c5.5 0 7.1-5.8 7.1-11.3 0-5.5-1.6-11.3-7.1-11.3s-7.1 5.8-7.1 11.3c0 5.5 1.6 11.3 7.1 11.3zM127.2 12.4V7.3l-2.1.7v4.4h-5.2V8.6c0-1.8.5-3.4 2.4-3.4.7 0 1.3.2 1.7.4V3.2c-.4-.1-.9-.2-1.6-.2-3.8 0-4.6 2.9-4.6 6.2v3.3h-2.9v2.3h2.9v19.7h2.1V14.8h5.2v15c0 2.5.7 5 3.5 5 1 0 2-.1 2.5-.3V32c-.4.2-.8.5-1.8.5-1.8 0-2.1-1.6-2.1-3.3V14.8h3.4l4.5 19.7h2.5l3.9-19.2h.1l4.1 19.2h2.7l4.9-22.1h-2.2l-3.9 19.4h-.1L143 12.4h-2.7l-3.8 19.4h-.1l-4-19.4h-5.2zM162.7 26c0 6-3.7 6.5-4.7 6.5-2.3 0-3.5-2.2-3.5-4.1 0-5 3.8-5 8.2-5V26zm2-6.5c0-1.6 0-7.3-5.9-7.3-2.1 0-3.4.8-5.2 2l.3 2.7c.2-.2 2.2-2.3 4.8-2.3 3.9 0 3.9 4 3.9 6.8h-1.4c-2.7 0-9.1.1-9.1 7.1 0 3.6 2.3 6.4 5.3 6.4 2.5 0 4-1 5.3-3.5h.1l.1 3.2h1.9c-.1-1.6-.2-3.3-.2-4.9V19.5h.1zM167.4 19.3c0-2.3-.1-4.5-.1-6.8h2c0 1.3.1 2.6.1 3.5h.1c1.4-3.2 3-3.8 5-3.8v2.7c-3.4 0-5 1.7-5 5.8v13.9h-2.1V19.3zM176.7 22c0-2.9 1.4-7.5 4.3-7.5 1.7 0 3.8 1.6 3.8 7.5h-8.1zm10.4 2.3c0-5.4-.6-12.2-6-12.2-3.2 0-6.7 3-6.7 11.4 0 2.2 0 11.3 7.4 11.3 2.3 0 3.5-.7 4.4-1.3l-.1-2.9c-1.1 1.1-2.8 1.8-4.1 1.8-.9 0-5.3 0-5.3-8.1h10.4zM41.9 12.1c-2.5 0-4 1.6-4.6 3.6h-.1v-13h-5.4v14l5.9 2.2-5.9 2.2v8.6c0 2.7-.1 3.9-.1 4.9h5.1c.1-.8.1-1.9.1-3.5h.1c.6 1.4 1.8 3.9 4.9 3.9 4 0 6.2-4.9 6.2-12 0-6-1.7-10.9-6.2-10.9zm-2 18.1c-2.2 0-2.7-4-2.7-6.6 0-3.6.5-6.9 2.7-6.9 2.4 0 2.6 3.3 2.6 6.9 0 2.3-.1 6.6-2.6 6.6z"/></svg>