<svg xmlns="http://www.w3.org/2000/svg" viewBox="0 0 480.6 201.1"><g fill="#5C6670"><path d="M193.1 163.3h-24.5V35.8h24.5v47.1c3.9-4.7 12.6-9.2 22-9.2 25.5 0 39.8 20.8 39.8 45.9 0 25.1-14.3 45.7-39.8 45.7-9.4 0-18-4.5-22-9.2v7.2zm0-29.4c2.7 6.1 9.2 10.2 16.5 10.2 13.1 0 21-10.6 21-24.5 0-14.1-7.8-24.7-21-24.7-7.1 0-13.7 4.3-16.5 10.2v28.8zM361.5 73.7c18 0 28.8 12.6 28.8 32.4v57.3H366v-52.2c0-9.4-4.1-15.7-12.5-15.7-6.3 0-12 3.9-13.5 11.4v56.5h-24.5v-52.2c0-9.4-3.9-15.7-12.3-15.7-6.3 0-12.2 3.9-13.8 11.4v56.5H265V75.7h24.3V83c4.3-5.5 12.4-9.2 22.2-9.2 10.4 0 18.6 4.7 23.5 11.2 5.7-6.4 14.1-11.3 26.5-11.3zM442.1 73.7c22 0 35.9 13 38.4 31.6h-23.9c-1.4-6.7-6.7-10.8-14.5-10.8-11.1 0-18 10.2-18 25.1 0 14.7 6.9 24.9 18 24.9 7.9 0 13.1-4.1 14.5-10.8h23.9c-2.5 18.8-16.4 31.6-38.4 31.6-24.9 0-42.2-18.7-42.2-45.7.1-27.3 17.4-45.9 42.2-45.9z"/></g><path fill="#FF5000" d="M16.5 201.1c-8.2 0-16.5-6.3-16.5-18.5v-28.5c0-11.3 7.3-24.1 17-29.9l39.8-23.6-39.7-23.5C7.4 71.3.1 58.5.1 47.3V18.5C.1 6.4 8.4 0 16.6 0c3.5 0 7.1 1 10.5 3.1l89.8 53.4c6.3 3.7 9.8 9.5 9.8 15.7 0 6.3-3.6 12-9.8 15.7l-21.5 12.7 21.5 12.7c6.3 3.7 9.9 9.4 9.9 15.7 0 6.2-3.6 12-9.9 15.7L27 198c-3.4 2.1-7 3.1-10.5 3.1zm59.6-89l-49 29.1c-3.7 2.2-7.4 8.6-7.4 12.9v25.4l85-50.4-28.6-17zM19.8 21.6v25.7c0 4.3 3.6 10.7 7.3 12.9l49 29 28.7-17-85-50.6z"/></svg>