<svg xmlns="http://www.w3.org/2000/svg" version="1" width="1133.858" height="215.433"><path d="M71.672 151.202h10.165c6.606 0 12.832-5.878 12.832-17.174 0-10.75-6.227-16.747-12.833-16.747H71.672v33.922zm0-58.484h8.797c7.38 0 11.47-6.62 11.47-14.034 0-7.792-4.09-14.43-11.47-14.43H71.67V92.72zM35.432 38.11h54.75c25.956 0 38.02 13.883 38.02 34.736 0 14.77-6.447 28.036-21.857 31.176v.388c18.33 1.756 25.757 17.348 25.757 31.76 0 24.177-11.66 41.098-41.92 41.098h-54.75V38.11zM192.22 155.493c11.1 0 12.31-10.173 12.31-47.796 0-37.568-1.21-47.75-12.31-47.75-11.138 0-12.245 10.182-12.245 47.75 0 37.623 1.107 47.796 12.246 47.796m0-120.108c37.062 0 49.704 20.275 49.704 72.312 0 52.092-12.642 72.35-49.703 72.35-37.03 0-49.68-20.258-49.68-72.35 0-52.037 12.65-72.312 49.68-72.312M255.566 38.112h51.807l14.65 82.445h.38l14.65-82.445h51.825V177.27h-33.906V73.59h-.45l-19.24 103.68h-26.13L289.868 73.59h-.42v103.68h-33.88V38.11zM441.09 151.202h10.11c6.613 0 12.887-5.878 12.887-17.174 0-10.75-6.274-16.747-12.887-16.747h-10.11v33.922zm0-58.484h8.773c7.38 0 11.51-6.62 11.51-14.034 0-7.792-4.13-14.43-11.51-14.43h-8.773V92.72zM404.78 38.11h54.813c25.884 0 38.003 13.883 38.003 34.736 0 14.77-6.423 28.036-21.85 31.176v.388c18.314 1.756 25.79 17.348 25.79 31.76 0 24.177-11.763 41.098-41.943 41.098H404.78V38.11zM560.386 66.597h-.403l-9.96 59.022h20.347l-9.984-59.023zM537.413 38.11h45.566l33.928 139.158h-38.62l-3.702-24.38h-28.843l-3.678 24.38h-38.573l33.92-139.157zM663.04 97.008h7.263c10.277 0 15.142-6.614 15.142-16.597 0-11.288-4.47-16.16-15.418-16.16h-6.986v32.758zm-36.238-58.896h56.76c27.632 0 38.21 15.6 38.21 37.062 0 18.51-7.295 30.55-23.805 33.138v.38c17.53 1.55 22.76 12.602 22.76 31.216v11.842c0 7.215 0 16.54 1.787 19.334 1.013 1.503 1.772 3.1 4.082 4.24v1.946h-38.612c-3.465-7.373-3.465-20.655-3.465-26.46v-9.415c0-15.774-3.165-19.88-11.883-19.88h-9.596v55.755h-36.238V38.112zM773.733 151.202h7.238c14.043 0 15.775-5.878 15.775-43.51 0-37.56-1.732-43.437-15.774-43.437h-7.237v86.947zM737.47 38.11h52.59c41.936 0 44.087 33.146 44.087 69.583 0 36.5-2.15 69.575-44.086 69.575h-52.59V38.11zM848.733 38.108h36.216v139.158h-36.217V38.108zM901.266 38.112h82.398V67.73h-46.23v23.795h43.295v28.455h-43.296v27.687h47.986v29.602h-84.154V38.11zM1034.91 97.008h7.2c10.37 0 15.22-6.614 15.22-16.597 0-11.288-4.48-16.16-15.38-16.16h-7.04v32.758zm-36.247-58.896h56.704c27.727 0 38.185 15.6 38.185 37.062 0 18.51-7.16 30.55-23.74 33.138v.38c17.586 1.55 22.807 12.602 22.807 31.216v11.842c0 7.215 0 16.54 1.763 19.334.957 1.503 1.788 3.1 4.042 4.24v1.946h-38.54c-3.505-7.373-3.505-20.655-3.505-26.46v-9.415c0-15.774-3.165-19.88-11.938-19.88h-9.532v55.755h-36.247V38.112z"/></svg>