<svg xmlns="http://www.w3.org/2000/svg" viewBox="0 0 187.1 37.4" enable-background="new 0 0 187.1 37.4"><g fill-rule="evenodd" clip-rule="evenodd"><path d="M133.8 0h-22.6c-2.5 0-5.5 1.7-6.6 3.7l-3.5 6.4c-.7 1.2-.1 3.9 1.7 3.8h13.3s-2.5 4.6-2.6 4.7c-1.1 2-4.4 2.1-3.6 0 .2-.3.8-1.4.8-1.4h-13.9s-1.8 3.3-1.9 3.4c-.8 1.5 1 2.5 2.9 2.4h23.5c1.9 0 3.9-1.1 4.7-2.5.1-.1 4.3-7.7 4.4-7.9.6-1.3-.5-2.8-2-2.8h-13.6s2.5-4.5 2.6-4.7c.8-1.1 4.1-1.8 3.7-.2-.1.2-.9 1.6-.9 1.6h13.6s1.6-2.9 2-3.5c.5-1-.3-3.1-2-3zM141.8 0l-12.9 23.1h31.2l1.9-3.6h-17.6l3.4-6h17.7l1.9-3.6h-17.7l3.2-6.3h34.1v-3.6h-45.2zM184.5 7h.2l.5 1h.6l-.6-1c.3 0 .6-.2.6-.6 0-.5-.4-.7-1-.7h-.8v2.3h.5v-1zm0-.4v-.6h.4c.2 0 .5 0 .5.3s-.1.3-.4.3h-.5zm2.6.2c0-1.4-1-2.2-2.2-2.2-1.2 0-2.2.8-2.2 2.2 0 1.4 1 2.2 2.2 2.2 1.1 0 2.2-.8 2.2-2.2zm-.6 0c0 1-.7 1.7-1.6 1.7-.9 0-1.6-.7-1.6-1.7s.7-1.7 1.6-1.7c.8 0 1.6.7 1.6 1.7zM98.5 0h-23.2c-2.4-.1-4.3.8-5.4 2.7-.4.6-9.3 16.7-9.5 17.1-.7 1.2-.2 3.4 2.1 3.3h23.1c2.2.1 4.1-1 4.9-2.2.4-.5 9.7-17.4 10-18 .7-1.3-.4-3-2-2.9zm-17.4 5.4l-7.4 13.3c-.3.8 1.5 1.4 2.2 1.4.6 0 2.6-.3 3.3-1.4.5-.8 7-12.6 7.3-13.1.5-.9-1.2-1.3-1.9-1.3-.5 0-3-.1-3.5 1.1zM.3 19.8v3.3h50c2.3-.1 4-1.5 4.5-2.4 1.2-1.3 3.5-5.5 3.9-7 .6-1.5-.5-2.7-1.1-3.2 1.1-.2 3.4-1.1 4.1-2.3.8-.8 2.8-4.4 3.2-5.6.5-1.1.5-2.6-1.4-2.6h-27.6l-10.9 19.8h-24.7zm41.7-6.2l-3.5 6.2h6.6c.9 0 1.4-.5 2.4-1.5.4-.6 1.6-2.9 1.9-3.4.4-.7.3-1.1-.8-1.2-.6-.1-6.6-.1-6.6-.1zm5-9.3l-3 5.7h6.7c.7-.1 1.7-.5 1.8-.8.2-.2 1.8-3.1 1.9-3.4.4-.7 0-1.4-.8-1.4-.9-.1-6.6-.1-6.6-.1z"/></g></svg>