<svg xmlns="http://www.w3.org/2000/svg" width="315.4" height="89.1" viewBox="0 0 315.4 89.1"><path d="M161.4 58.6c-.9 2.6-2.4 4.8-4.2 6.8-1.9 2-4.2 3.5-6.9 4.7-2.7 1.2-5.9 1.8-9.4 1.8-1.8 0-3.7 0-5.5-.1-1.8-.1-3.6-.2-5.4-.4-.3.1-.7.2-1.2.2h-1.2c-.2 0-.3-.1-.4-.2-.1-.2-.1-.3-.1-.4v-56.5l.6-.6h2.3l.7.6v26.7c1.7-2.1 3.7-3.7 6.3-4.6 2.5-1 5.2-1.4 8.1-1.4 6.1 0 10.5 1.3 13.4 3.8 2.8 2.6 4.2 6.4 4.2 11.5.2 2.8-.3 5.5-1.3 8.1zm-5.5-17.4c-2.2-2.2-5.8-3.3-10.6-3.3-1.5 0-3.1.2-4.8.7-1.7.5-3.2 1.1-4.7 2-1.4.9-2.6 1.9-3.5 3.1-.9 1.2-1.4 2.5-1.4 4v21c.4.1 1 .2 2 .3.9.1 2 .1 3.1.2h5.1c3.1 0 5.7-.5 8-1.6s4.2-2.5 5.7-4.2c1.5-1.7 2.6-3.7 3.4-6 .8-2.2 1.2-4.6 1.2-6.9-.2-4.1-1.3-7.2-3.5-9.3zm31.4-2.4c-.6-.2-1.2-.3-2-.3h-1.9c-1.6 0-3.1.3-4.6.8-1.4.5-2.7 1.2-3.8 2-1.1.9-2 1.9-2.6 3.1-.7 1.2-1 2.5-1 3.9v22.7l-.7.6h-2.3l-.7-.6v-34.8l.6-.6h2.3l.7.6v4.9c1.6-1.9 3.5-3.3 5.8-4.3s4.7-1.5 7.4-1.5h1.5c.5 0 .9.1 1.4.2l.6.6v2.3l-.7.4zm10.3-11.9h-3.5l-.7-.5v-3l.6-.6h3.5l.7.6v3l-.6.5zm-.6 44.6h-2.3l-.8-.6v-34.7l.7-.6h2.3l.7.6v34.7l-.6.6zm42.1 0h-2.3l-.7-.6v-23.1c0-1.7-.3-3.1-1-4.3-.7-1.2-1.6-2.2-2.7-3.1-1.2-.8-2.5-1.5-4.1-1.9-1.6-.4-3.3-.6-5.1-.6-1.3 0-2.8.2-4.4.7-1.7.5-3.2 1.1-4.7 1.9-1.5.8-2.7 1.8-3.7 2.9-1 1.1-1.5 2.3-1.5 3.6v23.8l-.7.6h-2.3l-.7-.6v-34.6l.7-.6h2l.7.6.3 5.5c1.6-2.1 3.7-3.7 6.2-4.8 2.5-1.1 5.3-1.6 8.2-1.6 2.4 0 4.7.2 6.7.7 2 .5 3.8 1.2 5.2 2.2 1.4 1 2.6 2.3 3.4 3.9.8 1.6 1.2 3.5 1.2 5.7v23.1l-.7.6zm39.6 17.6h-2.3l-.7-.6v-24.6c-1.5 2.6-3.6 4.6-6.2 5.9-2.6 1.4-5.5 2.1-8.9 2.1-3.3 0-6-.5-8.2-1.4-2.1-.9-3.8-2.2-5.1-3.9-1.2-1.6-2.1-3.5-2.6-5.7s-.8-4.5-.8-7c0-5.9 1.8-10.5 5.5-13.8 3.6-3.3 8.9-5 15.9-5 1.8 0 3.6 0 5.4.1l5.3.2c.4-.1.9-.1 1.3 0 .5.1.9.1 1.4.1.1 0 .2.1.3.2.1.2.1.3.1.4v52.4l-.4.6zm-8-51.1h-5.2c-2.9 0-5.5.4-7.7 1.2-2.2.8-4.1 1.9-5.6 3.3s-2.6 3.1-3.4 5c-.8 2-1.2 4.2-1.2 6.6 0 1.9.2 3.8.6 5.6.4 1.8 1.1 3.4 2 4.8 1 1.4 2.3 2.6 4 3.4 1.7.9 3.8 1.3 6.4 1.3 2.1 0 4.1-.4 5.8-1.1 1.7-.7 3.3-1.7 4.5-2.8 1.3-1.2 2.3-2.6 3-4.1.7-1.6 1.2-3.2 1.3-4.9.2-3 .4-6 .4-8.9.1-3 .1-6 0-8.9h.1c-1.5-.4-3.3-.5-5-.5zm44 34.4h-2l-.7-.6-.2-7c-1.5 2.5-3.4 4.5-5.9 5.9-2.4 1.4-5.3 2.1-8.7 2.1-3.8 0-6.9-1-9.2-3-2.4-2-3.5-4.6-3.5-7.8 0-2 .4-3.7 1.3-5 .9-1.3 2.1-2.4 3.5-3.3 1.5-.9 3.2-1.5 5.1-1.9 1.9-.4 3.8-.7 5.9-.9 2-.2 4-.2 5.9-.2 2 0 3.8 0 5.5.1v-4.1c0-3-.9-5.1-2.8-6.2-1.9-1.1-4.5-1.6-7.7-1.6-1.7 0-3.3.2-4.8.6-1.6.4-3 .8-4.2 1.3-1.2.5-2.2.9-3 1.3-.8.4-1.3.6-1.4.6-.2 0-.4-.1-.5-.4l-.2-.9v-1.7l.3-.5c.9-.5 1.9-1 3.1-1.4 1.2-.4 2.3-.7 3.5-1 1.2-.3 2.4-.4 3.6-.6 1.2-.1 2.4-.2 3.4-.2 2.2 0 4.3.2 6 .5 1.8.3 3.3.9 4.5 1.7 1.2.8 2.1 1.9 2.8 3.2.7 1.3 1 3.1 1 5.2v25.2l-.6.6zm-6.7-19.2h-3.6c-1.8 0-3.7.1-5.5.3-1.9.2-3.5.6-5.1 1.3-1.5.7-2.8 1.6-3.7 2.7-1 1.2-1.5 2.7-1.5 4.5 0 1.1.2 2.1.6 3.1.4 1 1 1.8 1.8 2.6.8.7 1.7 1.3 2.7 1.8 1.1.5 2.2.7 3.5.7 2.1 0 4-.4 5.7-1.1 1.7-.7 3.1-1.7 4.3-2.9 1.2-1.2 2.1-2.6 2.8-4.1.7-1.5 1.2-3.1 1.3-4.8.1-.7.1-1.3.1-2v-2h.1c-1-.1-2.3-.1-3.5-.1z"/><path fill="#FFF" d="M98.1 13.8l-49-13.8-49.1 13.8v58l49 16.6 49.1-16.6v-58"/><path fill="#578D40" d="M0 52.5v19.3l49 16.6 49.1-16.6v-19.3l-49.1 16.5"/><path opacity=".85" fill="#A6CE41" d="M0 33.2v19.3l49 16.5 49.1-16.5v-19.3l-49.1 16.5"/><path fill="#ECF3D4" d="M0 13.8v19.4l49 16.5 49.1-16.5v-19.4l-49.1 16.6"/><path opacity=".6" fill="#BFDD9D" d="M49 49.7l-49-16.5 49.1-13.9 49 13.9"/><path opacity=".7" fill="#ECF3D4" d="M49 30.4l-49-16.6 49.1-13.8 49 13.8"/><path opacity=".25" fill="#578D40" d="M49 69l-49-16.5 49.1-13.8 49 13.8"/><path opacity=".55" fill="#FFF" d="M98.1 71.8l-49.1 16.6v-58l49.1-16.6"/></svg>