<svg xmlns="http://www.w3.org/2000/svg" width="778" height="153" viewBox="0 0 778 153">
  <path fill="#F16924" d="M10,114.5 L29.4,114.5 L29.4,110.3 C29.4,108.7 29.3,107.3 29.2,106.3 C29.1,105.3 29,104.8 29,104.8 L29.3,104.8 L30.2,106 C31.1,107.1 32,108 33,108.9 C36.4,111.9 40.4,114 44.7,115.2 C47.7,116 50.7,116.4 53.8,116.4 C59,116.4 64.1,115.4 68.9,113.3 C73.5,111.3 77.6,108.4 80.9,104.6 C84.4,100.6 87.1,96 88.8,91 C90.7,85.3 91.6,79.3 91.5,73.3 C91.6,67.4 90.7,61.5 89,55.8 C87.5,50.8 85,46.2 81.7,42.2 C78.6,38.4 74.6,35.4 70.2,33.4 C65.5,31.3 60.3,30.2 55.1,30.3 C52,30.3 48.9,30.7 45.9,31.5 C43.5,32.2 41.1,33.1 38.9,34.4 C37.2,35.4 35.6,36.5 34.1,37.8 C33.1,38.7 32.2,39.6 31.3,40.7 L30.4,41.9 L30.1,41.9 C30.1,41.9 30.2,41.2 30.3,39.9 C30.4,38.6 30.4,37 30.5,34.9 L30.5,11 C30.5,7.2 29.6,4.4 27.9,2.7 C26.2,1 23.3,0 19.5,0 L0,0 L0,17.4 L6.5,17.4 C8.2,17.2 9.8,18.4 10,20.1 L10,114.5 Z M29.8,73.9 C29.7,69.9 30.3,65.9 31.6,62.1 C32.6,59.1 34.1,56.4 36.2,54 C38,52 40.3,50.4 42.8,49.3 C45.2,48.3 47.9,47.8 50.5,47.8 C54.3,47.8 58,48.9 61.2,51 C64.4,53.3 66.9,56.4 68.4,60 C71.5,67.8 71.9,76.5 69.3,84.5 C68.3,87.4 66.8,90.2 64.8,92.5 C63,94.6 60.8,96.3 58.2,97.5 C50,101.4 40.1,98.8 34.9,91.3 C33.2,88.8 31.9,86.1 31.1,83.2 C30.3,80.2 29.8,77 29.8,73.9 L29.8,73.9 Z M110,85.3 C110,92.8 111.2,98.8 113.5,103.4 C115.5,107.8 119,111.3 123.3,113.5 C131.2,116.9 140.1,117.5 148.4,115 C151.3,114.1 154.1,112.8 156.6,111.1 C158.9,109.6 161,107.7 162.9,105.6 C164.5,103.7 165.9,101.6 167,99.3 L167.3,99.3 C167.3,99.3 167.3,99.7 167.2,100.4 C167.1,101.1 167,102 167,103 L167,105.3 C166.8,107.9 167.9,110.3 169.8,112.1 C171.6,113.7 174.3,114.5 177.9,114.5 L196.7,114.5 L196.7,97.3 L190.3,97.3 C188.5,97.5 186.9,96.2 186.7,94.4 L186.7,32.3 L166.2,32.3 L166.2,70 C166.2,73.6 165.7,77.1 164.7,80.5 C163.7,83.7 162.2,86.7 160.2,89.3 C156.2,94.7 149.8,97.8 143.1,97.7 C139.7,97.7 137.1,97 135.3,95.6 C133.4,94.1 132,92.1 131.4,89.7 C130.6,86.8 130.3,83.9 130.3,80.9 L130.3,43.1 C130.3,39.4 129.5,36.7 127.7,34.9 C125.9,33.1 123.2,32.3 119.4,32.3 L100,32.3 L100,49.7 L106.4,49.7 C108.1,49.4 109.7,50.6 110,52.3 L110,85.3 L110,85.3 Z M205,71.4 C205,76.8 205.8,82.2 207.5,87.4 C209,92.2 211.5,96.7 214.7,100.6 C217.8,104.4 221.8,107.5 226.3,109.6 C231.2,111.9 236.6,113 242,112.9 C246.740556,113.001888 251.447398,112.080984 255.8,110.2 C259.5,108.4 262.6,105.7 264.9,102.3 L265.2,102.3 L265.2,103 C265.2,103.5 265.2,104 265.1,104.7 C265,105.4 265,106 265,106.7 L265,114.2 C265.1,117.4 264.4,120.7 263.1,123.6 C262,126.1 260.2,128.2 258,129.8 C255.8,131.4 253.3,132.6 250.6,133.3 C247.8,134 245,134.3 242.1,134.3 L242.1,152.1 C246.3,152.1 250.5,151.6 254.6,150.8 C258.7,149.9 262.7,148.5 266.4,146.6 C270.1,144.7 273.4,142.2 276.2,139.2 C279.1,136 281.4,132.3 282.8,128.2 C284.5,123.4 285.3,118.4 285.3,113.3 L285.3,53 C285.3,52.1 285.6,51.2 286.3,50.6 C287,50 287.9,49.7 288.9,49.8 L295.2,49.8 L295.2,32.3 L276.2,32.3 C274.4,32.3 272.6,32.6 271,33.4 C269.8,34 268.8,35 268.1,36.2 C267.5,37.3 267.2,38.5 267.2,39.8 L267.2,42 L266.9,42 C266.9,42 266.6,41.6 266.1,40.8 C265.3,39.8 264.4,38.8 263.5,37.9 C262.1,36.6 260.5,35.4 258.8,34.5 C256.5,33.2 254.1,32.3 251.6,31.6 C248.3,30.8 245,30.4 241.6,30.4 C236.2,30.3 230.8,31.4 225.9,33.6 C221.5,35.6 217.6,38.6 214.5,42.4 C211.4,46.2 209,50.7 207.5,55.4 C205.9,60.6 205.1,65.9 205.1,71.3 L205,71.4 Z M246.3,95.7 C242.3,95.8 238.4,94.6 235.1,92.4 C232,90.2 229.6,87.1 228.2,83.5 C226.6,79.4 225.8,75 225.8,70.6 C225.7,66.5 226.5,62.3 228,58.5 C229.3,55.2 231.6,52.5 234.5,50.5 C237.6,48.5 241.3,47.6 245,47.6 C247.7,47.6 250.3,47.9 252.9,48.7 C255.3,49.4 257.6,50.7 259.4,52.5 C261.4,54.5 263,57 263.8,59.7 C265,63.5 265.5,67.4 265.4,71.3 C265.5,75.2 264.9,79.1 263.8,82.9 C263,85.7 261.5,88.2 259.5,90.4 C257.8,92.2 255.7,93.5 253.4,94.4 C251.1,95.2 248.7,95.6 246.3,95.7 L246.3,95.7 Z M303.8,73.4 C303.8,79.1 304.8,84.8 306.9,90.2 C308.9,95.3 312,100 315.9,103.9 C319.9,107.9 324.7,111 329.9,113.1 C335.8,115.4 342,116.5 348.3,116.5 C352.4,116.5 356.5,116 360.5,115 C363.8,114.1 367.1,112.9 370.2,111.3 C372.7,110 375,108.6 377.2,106.9 C378.7,105.8 380.2,104.5 381.5,103.2 L383,101.7 L374.5,87.5 L373.3,88.7 C372.2,89.7 371.1,90.6 369.9,91.5 C368.3,92.7 366.5,93.8 364.7,94.8 C362.6,95.9 360.3,96.9 358,97.6 C355.4,98.4 352.8,98.8 350.1,98.8 C346.8,98.8 343.6,98.3 340.5,97.2 C337.5,96.2 334.7,94.5 332.3,92.4 C329.8,90.2 327.9,87.5 326.6,84.5 C325.1,81 324.4,77.3 324.5,73.5 C324.5,68.9 325.6,64.3 327.7,60.2 C329.7,56.5 332.6,53.4 336.2,51.2 C340,48.9 344.4,47.8 348.8,47.8 C350.1,47.8 351.5,47.9 352.8,48.2 C354.1,48.4 355.4,48.8 356.6,49.4 C357.7,49.9 358.7,50.5 359.5,51.4 C360.2,52.2 360.6,53.2 360.6,54.3 L360.6,58.8 L378.6,58.8 L378.6,49.1 C378.6,46.5 377.9,43.9 376.5,41.7 C375.1,39.6 373.3,37.8 371.1,36.4 C368.8,34.9 366.4,33.8 363.8,32.9 C361.2,32.1 358.6,31.4 355.9,31 C353.5,30.6 351.1,30.5 348.7,30.4 C342.2,30.3 335.8,31.5 329.8,33.9 C319.2,38 310.9,46.4 306.8,57 C304.8,62.1 303.7,67.7 303.8,73.4 L303.8,73.4 Z M398.7,114.5 L419.1,114.5 L419.1,82 C419.1,79.7 419.3,77.3 419.6,75 C419.9,72.8 420.3,70.7 420.9,68.6 C421.7,65.8 423,63.1 424.7,60.7 C427.6,56.7 431.8,53.7 436.6,52.3 C438.8,51.7 441,51.3 443.3,51.3 C444.5,51.3 445.7,51.3 446.9,51.5 C447.4,51.5 447.9,51.6 448.3,51.7 L448.3,31.5 C447.9,31.4 447.5,31.4 447.1,31.3 C446.3,31.2 445.4,31.1 444.6,31.1 C440.6,31.1 436.6,32.1 433.1,33.9 C429.6,35.8 426.5,38.3 424.1,41.4 C421.6,44.6 419.7,48.2 418.5,52.1 L418.2,52.1 C418.2,52.1 418.3,51.6 418.4,50.7 C418.5,49.8 418.5,48.5 418.6,47 L418.6,42.2 C418.6,38.7 417.7,36.2 415.8,34.6 C413.9,33 411.2,32.2 407.6,32.2 L388.9,32.2 L388.9,49.6 L395.4,49.6 C397.1,49.4 398.7,50.6 399,52.3 L399,53.2 L398.7,114.5 L398.7,114.5 Z M453.9,73.4 C453.9,79.4 455.1,85.3 457.4,90.8 C459.6,95.9 462.9,100.6 467,104.4 C471.1,108.3 476,111.3 481.3,113.3 C492.7,117.5 505.2,117.5 516.5,113.3 C521.8,111.3 526.7,108.3 530.9,104.4 C535,100.6 538.3,96 540.6,90.8 C545.3,79.7 545.3,67.2 540.6,56 C538.3,50.8 535.1,46.2 531,42.4 C526.8,38.5 522,35.5 516.6,33.5 C505.2,29.2 492.7,29.2 481.4,33.5 C476.1,35.5 471.2,38.5 467.1,42.4 C463,46.3 459.7,50.9 457.5,56 C455.1,61.5 453.9,67.4 453.9,73.4 L453.9,73.4 Z M474.6,73.4 C474.6,69.8 475.2,66.3 476.5,63 C477.7,60 479.5,57.2 481.8,54.9 C486.3,50.3 492.5,47.8 499,47.8 C509,47.7 517.9,53.8 521.6,63 C522.9,66.3 523.6,69.8 523.5,73.4 C523.5,77 522.9,80.5 521.6,83.9 C520.4,86.9 518.6,89.7 516.3,92 C514.1,94.2 511.4,96 508.5,97.2 C505.5,98.4 502.3,99.1 499,99.1 C492.6,99.1 486.4,96.6 481.8,92 C479.5,89.7 477.7,86.9 476.5,83.9 C475.2,80.5 474.6,77 474.6,73.4 L474.6,73.4 Z M575.7,114.5 L599,114.5 L612.9,67.5 C613.3,66 613.7,64.6 614,63.3 C614.3,62 614.5,60.8 614.7,60 C614.9,59.2 614.9,58.7 614.9,58.7 L615.2,58.7 C615.2,58.7 615.3,59.2 615.4,60 C615.5,60.8 615.7,62 616,63.3 C616.3,64.6 616.7,66.1 617.1,67.5 L631.1,114.5 L654.2,114.5 L673.9,52.6 C674.2,51.6 674.8,50.8 675.6,50.2 C676.5,49.8 677.4,49.6 678.4,49.7 L680.7,49.7 L680.7,32.3 L666.7,32.3 C663.4,32.2 660.8,32.9 659,34.1 C657.2,35.4 655.9,37.6 655.1,40.7 L643.2,86.3 C642.8,87.8 642.5,89.2 642.3,90.5 C642.1,91.8 641.9,92.9 641.8,93.7 C641.7,94.5 641.6,95 641.6,95 L641.3,95 C641.3,95 641.3,94.5 641.1,93.7 C640.9,92.9 640.8,91.8 640.5,90.5 C640.2,89.2 639.9,87.8 639.5,86.3 L624.2,32.6 L606.1,32.6 L590.9,86.3 C590.5,87.8 590.1,89.2 589.8,90.5 C589.5,91.8 589.3,92.9 589.1,93.7 C588.9,94.5 588.9,95 588.9,95 L588.5,95 C588.5,95 588.4,94.5 588.3,93.7 C588.2,92.9 588,91.8 587.8,90.5 C587.6,89.2 587.3,87.8 586.9,86.3 L574.8,40.7 C574,37.6 572.8,35.4 570.9,34.1 C569,32.8 566.5,32.2 563.2,32.3 L549.2,32.3 L549.2,49.7 L551.5,49.7 C552.5,49.6 553.5,49.8 554.4,50.2 C555.2,50.8 555.8,51.6 556,52.6 L575.7,114.5 L575.7,114.5 Z M685.9,73.4 C685.9,79.3 686.7,85.2 688.5,90.9 C690,95.9 692.6,100.5 695.9,104.5 C699,108.3 703,111.3 707.4,113.4 C712.2,115.5 717.3,116.6 722.5,116.5 C725.9,116.5 729.2,116.1 732.4,115.1 C735,114.3 737.4,113.2 739.6,111.8 C741.4,110.7 743,109.3 744.5,107.8 C745.5,106.8 746.4,105.7 747.2,104.5 C747.5,104.1 747.8,103.6 748.1,103.1 L748.4,103.1 L748.4,106.2 C748.4,107.7 748.7,109.2 749.4,110.5 C750.1,111.8 751.3,112.9 752.6,113.5 C754.5,114.3 756.5,114.7 758.5,114.6 L777.4,114.6 L777.4,97.3 L771.1,97.3 C769.3,97.5 767.7,96.2 767.6,94.4 L767.6,11 C767.6,7.2 766.8,4.4 765,2.7 C763.2,1 760.5,0 756.7,0 L737.2,0 L737.2,17.4 L743.7,17.4 C744.7,17.3 745.6,17.6 746.3,18.3 C747,19 747.3,20 747.2,21 L747.2,35.5 C747.2,36.9 747.2,38.1 747.3,38.9 C747.4,39.7 747.4,40.3 747.4,40.3 L747,40.3 C746.8,39.9 746.5,39.6 746.2,39.3 C745.5,38.4 744.6,37.6 743.8,36.8 C742.4,35.6 741,34.6 739.4,33.8 C737.3,32.7 735,31.9 732.7,31.3 C729.6,30.6 726.5,30.2 723.3,30.3 C718.1,30.3 713,31.3 708.3,33.4 C703.8,35.4 699.7,38.3 696.4,42 C692.9,46 690.3,50.6 688.7,55.6 C686.8,61.3 685.9,67.3 685.9,73.4 L685.9,73.4 Z M727.1,99.1 C723.3,99.2 719.6,98.1 716.4,95.9 C713.2,93.7 710.8,90.6 709.3,87 C706.2,79.2 705.9,70.5 708.4,62.5 C709.3,59.6 710.9,56.9 712.8,54.5 C716.5,50.3 721.8,47.9 727.4,47.9 C730.5,47.9 733.6,48.6 736.4,50 C738.9,51.4 741.1,53.4 742.7,55.7 C744.4,58.2 745.7,60.9 746.5,63.8 C747.3,66.8 747.7,70 747.7,73.1 C747.8,77.1 747.2,81 746,84.8 C745,87.8 743.5,90.5 741.4,92.9 C739.6,94.9 737.3,96.5 734.8,97.5 C732.3,98.7 729.7,99.2 727.1,99.1 L727.1,99.1 Z"/>
</svg>
