<svg width="147" height="54" viewBox="0 0 147 54" xmlns="http://www.w3.org/2000/svg" xmlns:xlink="http://www.w3.org/1999/xlink"><defs><path id="a" d="M.718.152h102.119v52.47H.717z"/></defs><g fill="none" fill-rule="evenodd"><g transform="translate(38.942 .58)"><mask id="b" fill="#fff"><use xlink:href="#a"/></mask><path d="M101.74 5.029C91.89-5.796 28.495 3.94 1.54 9.807l-.63.13a.231.231 0 00-.188.272.233.233 0 00.272.19l.62-.124c22.331-3.961 68.78-9.447 78.771.42 3.052 3.015 2.324 6.887-1.216 11.466 1.904 1.22 3.26 3.138 3.87 5.536 13.813-9.128 23.085-17.85 18.7-22.668M60.72 38.099c-.009.01-.017.01-.017.017-6.252 4.407-13.654 9.036-21.62 13.896l-.314.182a.237.237 0 00-.058.33.24.24 0 00.33.057l.266-.14c6.757-3.51 14.514-7.678 22.323-11.953a.883.883 0 01.123-.066A9.844 9.844 0 0160.72 38.1" fill="#B5BBC5" fill-rule="nonzero" mask="url(#b)"/></g><path d="M100.42 35.632c-.223-6.5 4.888-13.147 12.315-13.147 4.962 0 8.212 3.295 8.395 8.344.24 6.852-4.54 13.147-12.308 13.147-4.979 0-8.229-3.287-8.403-8.345v.001zm3.226.205c.123 3.805 2.546 6.928 5.697 6.928 6.113 0 8.718-7.48 8.537-12.47-.133-3.815-2.616-6.928-5.765-6.928-5.252-.008-8.651 7.438-8.47 12.47zM36.53 29.923c-.024.593-.132 1.12-.29 2.035L35.15 38.06c-.091.544.108.964.612 1.26l-.034.24-6.252-.01-.057-1.547c-.91.544-2.01 1.004-3.002 1.276-.994.255-1.797.362-2.995.362-2.019 0-3.176-.205-3.978-.905-.81-.717-1.208-1.195-1.167-2.183.034-.568.331-1.3.754-1.812.429-.52 1.025-.857 1.661-1.162.647-.304 1.406-.527 2.507-.7 1.109-.18 2.646-.354 4.705-.527 1.085-.09 1.746-.338 2.052-.461.43-.165.603-.355.66-.7.118-.627-.08-.988-.924-1.154-2.251-.444-6.478.289-8.652.825l1.183-3.18c2.87-.42 5.558-.684 8.394-.684 4.524 0 5.963 1.276 5.914 2.924zm-6.45 3.995a7.272 7.272 0 01-1.035.288c-.421.1-1.2.23-2.324.412-.777.124-1.315.28-1.622.502-.288.215-.463.47-.512.791-.059.338.049.602.339.816.298.206.795.313 1.498.313a4.87 4.87 0 001.538-.247c.505-.165.935-.387 1.257-.667.239-.206.413-.47.544-.791.084-.215.192-.683.316-1.417zm27.077-9.39c.182-1.004 1.77-1.812 3.54-1.812 1.778 0 3.077.815 2.902 1.812-.188 1.004-1.768 1.82-3.555 1.82-1.771 0-3.06-.816-2.887-1.82zM54.66 39.551l2.166-12.198h5.988L60.65 39.55H54.66zm35.867-9.611c-.025.601-.133 1.128-.298 2.035l-1.083 6.111c-.09.535.108.963.612 1.26l-.033.214-6.252.009-.05-1.558c-.91.553-2.02 1.015-3.003 1.278-.993.263-1.795.37-3.01.37-2.019 0-3.167-.197-3.97-.905-.819-.726-1.208-1.195-1.166-2.184.025-.576.322-1.31.752-1.812.429-.527 1.025-.856 1.67-1.16.646-.306 1.407-.528 2.499-.709 1.109-.174 2.654-.356 4.714-.528 1.075-.09 1.736-.33 2.043-.453.44-.165.604-.354.67-.709.107-.617-.084-.98-.918-1.152-2.267-.445-6.476.288-8.652.823l1.175-3.18c2.878-.418 5.558-.682 8.394-.682 4.508.008 5.948 1.293 5.906 2.932zm-6.452 4.002c-.272.091-.62.19-1.042.29-.421.098-1.198.221-2.324.403-.77.123-1.315.28-1.611.502-.291.206-.456.47-.522.783-.067.338.058.61.339.816.306.206.802.303 1.506.303.519 0 1.033-.073 1.538-.23.512-.173.934-.387 1.266-.668a2.05 2.05 0 00.528-.79c.084-.205.19-.675.322-1.409zM17.468 35.17c-1.952.387-3.045.535-4.972.535-2.862 0-5.136-1.416-5.01-4.01.09-1.731 2.14-5.372 7.359-5.372 1.647 0 2.928.29 4.656 1.27l.762-4.234c-2.35-.882-3.904-1.014-5.921-.997-6.85.074-13.417 3.17-14.236 9.472-.827 6.4 7.022 8.007 10.503 7.99 2.01-.008 4.103-.09 6.054-.289l.804-4.365zm48.647-7.883l.431-2.488 6.26-1.358-.67 3.839h3.069l-.579 2.454-2.978-.009-1.81 9.81s-6.03-.04-6.056 0l1.804-9.784H63.32l.462-2.471h2.333v.007zm33.406-4.588l-2.912 16.845-6.095.008 3.069-17.018 5.938.165zM35.836 43.761l2.92-16.341h5.26l-.405 2.084c.455-.627 1.182-1.138 2.19-1.549 1.019-.413 2.159-.717 3.4-.717 1.373 0 2.217.074 3.243.601 1.018.535 1.736 1.31 2.117 2.315.398.988.48 2.108.265 3.32-.356 2.018-1.34 3.599-2.96 4.768-1.606 1.17-3.052 1.475-5.113 1.484-.727 0-1.34-.075-1.844-.2-.495-.13-.893-.287-1.191-.476-.289-.19-.595-.462-.984-.89l-.977 5.602h-5.92v-.001zm10.901-13.55c-.786 0-1.497.24-2.126.71-.627.476-1.025 1.169-1.182 2.083-.19 1.062-.075 1.829.346 2.298.431.47 1.043.709 1.854.709.546 0 1.108-.1 1.521-.306.513-.272.869-.551 1.175-1.004.335-.481.56-1.03.661-1.607.174-.963.025-1.68-.421-2.157-.44-.478-1.042-.725-1.828-.725zm98.32 9.011l.471.322c-1.198 2.43-3.64 4.382-6.501 4.382-2.34 0-4.268-1.557-4.366-4.473-.191-5.231 4.73-10.082 8.758-10.082 1.729 0 3.333.75 3.398 2.604.151 4.16-5.714 5.427-9.576 5.518-.125.436-.174.873-.149 1.532.066 1.722 1.108 3.17 3.275 3.17 1.87 0 3.739-1.498 4.69-2.973zm-.53-7.511c-.033-.98-.529-1.648-1.546-1.648-2.457 0-5.07 4.794-5.517 6.722 4.027.007 7.163-2.381 7.063-5.074z" fill="#B5BBC5" fill-rule="nonzero"/><path d="M121.04 31.58c.412-.06 1.082-.133 1.372-.133.438 0 .851.083.876.52.009.255-.455 2.107-.554 2.536l-.935 4.101c-.38 1.681-.785 3.436-1.15 4.827h2.399l1.35-6.498c4.11-4.267 5.697-5.66 6.664-5.66.44 0 .737.23.76.75.026.75-.445 2.455-.602 2.95l-1.373 4.736c-.314 1.062-.545 2.026-.521 2.71.042 1.037.67 1.499 1.613 1.499 1.753 0 3.026-1.82 4.135-3.609l-.322-.583c-.447.715-1.49 2.289-2.308 2.289-.257 0-.504-.173-.512-.6-.025-.553.206-1.385.372-1.936l1.53-5.552c.413-1.533.603-2.513.596-3.04-.042-1.038-.646-1.525-1.58-1.525-1.58 0-3.673 1.154-8.115 6.237h-.066l.563-2.48c.307-1.36.604-2.775.884-3.756-1.538.552-3.738 1.17-5.094 1.434l.017.782z" fill="#B5BBC5" fill-rule="nonzero"/></g></svg>