<svg width="120" height="44" viewBox="0 0 120 44" xmlns="http://www.w3.org/2000/svg" xmlns:xlink="http://www.w3.org/1999/xlink"><defs><path id="a" d="M.546.098h83.487v42.713H.546z"/></defs><g fill="none" fill-rule="evenodd"><g transform="translate(31.8 .496)"><mask id="b" fill="#fff"><use xlink:href="#a"/></mask><path d="M83.136 4.05c-8.047-8.778-59.844-.87-81.888 3.888l-.54.134c-.136 0-.204.133-.136.2 0 .134.135.201.202.134l.542-.066c18.257-3.217 56.26-7.707 64.374.334 2.502 2.48 1.893 5.63-1.014 9.315 1.555 1.005 2.637 2.546 3.178 4.49C79.146 15.107 86.72 8.004 83.136 4.05M49.596 30.99c-5.139 3.618-11.157 7.37-17.716 11.324l-.27.134c-.068.067-.136.201-.068.268s.203.134.27.067l.203-.134a1191.368 1191.368 0 0018.258-9.717c.067 0 .067-.066.135-.066-.27-.604-.609-1.206-.812-1.876" fill="#6A778B" mask="url(#b)"/></g><path d="M82.072 29.006c-.202-5.293 3.99-10.721 10.076-10.721 4.057 0 6.694 2.68 6.83 6.768.203 5.561-3.72 10.722-10.076 10.722-4.057 0-6.694-2.681-6.83-6.769m2.638.134c.135 3.083 2.096 5.629 4.666 5.629 5.004 0 7.1-6.097 6.964-10.119-.135-3.082-2.163-5.628-4.732-5.628-4.328 0-7.1 6.03-6.898 10.118M29.802 24.315c0 .47-.135.939-.203 1.675l-.878 4.96c-.068.468.067.804.473 1.005v.201h-5.14l-.067-1.273c-.744.469-1.623.803-2.435 1.004-.81.201-1.487.27-2.434.27-1.622 0-2.57-.135-3.245-.739-.676-.602-1.015-1.005-.947-1.81 0-.468.27-1.07.608-1.473.339-.402.812-.67 1.353-.938.54-.268 1.15-.402 2.028-.537.88-.133 2.165-.267 3.855-.401.879-.067 1.42-.269 1.69-.402.338-.134.474-.268.542-.537.067-.536-.068-.803-.744-.938-1.826-.334-5.275.201-7.1.67l.946-2.613c2.367-.335 4.53-.536 6.898-.536 3.65.067 4.868 1.072 4.8 2.412M24.528 27.6a6.836 6.836 0 01-.811.2c-.339.068-1.014.202-1.894.336-.608.134-1.082.201-1.352.402-.27.2-.406.402-.406.67-.067.268.068.47.27.67.271.134.677.269 1.217.269.407 0 .88-.068 1.285-.202a3.61 3.61 0 001.015-.536c.202-.134.338-.401.473-.67 0-.134.136-.536.203-1.14M46.707 19.96c.136-.805 1.42-1.474 2.908-1.474s2.502.67 2.367 1.474c-.136.804-1.42 1.474-2.908 1.474s-2.57-.67-2.367-1.474zm-2.096 12.196l1.758-9.918h4.869l-1.758 9.918h-4.87zM73.958 24.383c0 .469-.135.937-.27 1.675l-.88 4.958c-.067.47.068.805.474 1.006v.2h-5.139l-.068-1.273c-.744.47-1.623.804-2.434 1.005-.812.202-1.488.336-2.435.336-1.622 0-2.569-.134-3.245-.737-.676-.604-1.015-1.006-.947-1.81 0-.469.27-1.072.608-1.474.339-.402.812-.67 1.353-.938.541-.268 1.15-.402 2.028-.603.88-.134 2.165-.268 3.855-.402.88-.067 1.42-.268 1.69-.336.338-.133.473-.267.542-.603.067-.535-.069-.803-.744-.938-1.826-.335-5.275.201-7.1.67l.946-2.613c2.367-.335 4.53-.536 6.898-.536 3.719 0 4.868 1.072 4.868 2.413m-5.274 3.216c-.203.067-.54.134-.88.2-.337.068-.946.202-1.892.336-.61.134-1.083.201-1.286.402-.202.134-.405.402-.405.67-.068.268.068.47.27.67.271.135.677.268 1.217.268.406 0 .812-.067 1.285-.2a3.598 3.598 0 001.014-.537c.203-.134.339-.402.407-.67.067-.134.134-.536.27-1.14M14.25 28.604c-1.623.335-2.502.47-4.057.47-2.367 0-4.193-1.14-4.125-3.284.067-1.408 1.758-4.356 6.018-4.356 1.352 0 2.367.268 3.787 1.005l.608-3.418c-1.893-.736-3.178-.803-4.869-.803C6.068 18.285.726 20.764.05 25.924c-.677 5.227 5.748 6.5 8.587 6.5 1.623 0 3.381-.067 4.937-.201l.676-3.619zM54.01 22.171l.338-2.01 5.14-1.073-.541 3.15h2.502l-.474 2.01h-2.434l-1.488 7.975h-4.936l1.488-7.974h-1.826l.406-2.011zM81.329 18.485l-2.367 13.67h-5.004l2.502-13.803zM29.261 35.573l2.367-13.268h4.328l-.338 1.675c.338-.535.946-.937 1.826-1.273.81-.335 1.758-.603 2.772-.603 1.15 0 1.825.067 2.637.47.811.469 1.42 1.07 1.758 1.875.338.805.406 1.743.203 2.68-.27 1.676-1.082 2.95-2.434 3.888-1.285.937-2.502 1.206-4.193 1.206a8.669 8.669 0 01-1.487-.134c-.406-.135-.744-.201-.947-.402-.203-.135-.474-.403-.811-.738l-.812 4.557-4.869.067zm8.926-10.99c-.676 0-1.217.201-1.758.604-.541.402-.811.937-.947 1.675-.135.87-.068 1.474.27 1.876.339.402.88.604 1.488.604.474 0 .88-.068 1.218-.27.405-.2.676-.468.946-.803.27-.402.474-.804.541-1.34.136-.805 0-1.34-.338-1.742-.338-.403-.81-.603-1.42-.603zM118.52 31.888l.406.268c-.947 2.01-2.976 3.551-5.343 3.551-1.893 0-3.516-1.273-3.583-3.618-.136-4.222 3.854-8.175 7.168-8.175 1.42 0 2.704.603 2.772 2.144.135 3.35-4.666 4.423-7.844 4.49a6.14 6.14 0 00-.136 1.273c.069 1.407.88 2.546 2.706 2.546 1.555-.067 3.11-1.274 3.854-2.48m-.406-6.098c0-.803-.406-1.34-1.285-1.34-2.028 0-4.124 3.887-4.53 5.495 3.313 0 5.883-1.943 5.815-4.155" fill="#6A778B"/><path d="M98.91 25.723a7.57 7.57 0 011.15-.135c.337 0 .676.068.743.402 0 .202-.406 1.743-.473 2.078l-.744 3.35c-.338 1.34-.608 2.815-.946 3.954h1.96l1.082-5.294c3.381-3.484 4.666-4.623 5.478-4.623.338 0 .608.2.608.603 0 .602-.338 2.01-.473 2.412l-1.15 3.887c-.27.87-.473 1.675-.405 2.21.067.872.54 1.207 1.284 1.207 1.42 0 2.502-1.474 3.381-2.948l-.27-.47c-.338.604-1.217 1.877-1.893 1.877-.203 0-.406-.134-.406-.47 0-.468.135-1.139.27-1.54l1.285-4.49c.338-1.274.474-2.01.474-2.48-.068-.87-.542-1.205-1.286-1.205-1.284 0-2.975.937-6.627 5.092h-.067l.474-2.01c.27-1.14.473-2.278.743-3.082-1.284.469-3.043.937-4.192 1.139v.536z" fill="#6A778B"/></g></svg>