<svg width="141" height="51" viewBox="0 0 141 51" xmlns="http://www.w3.org/2000/svg" xmlns:xlink="http://www.w3.org/1999/xlink"><defs><path id="a" d="M.686.145H98.3V50.3H.686z"/></defs><g fill="none" fill-rule="evenodd"><g transform="translate(37.18 .554)"><mask id="b" fill="#fff"><use xlink:href="#a"/></mask><path d="M97.251 4.807C87.836-5.54 27.238 3.767 1.473 9.374l-.602.125a.221.221 0 00-.18.26.223.223 0 00.26.181l.592-.118C22.89 6.035 67.29.791 76.84 10.223c2.917 2.882 2.221 6.583-1.163 10.96 1.82 1.166 3.116 3 3.7 5.292C92.58 17.75 101.443 9.413 97.252 4.807M58.04 36.419c-.008.008-.016.008-.016.015-5.976 4.213-13.052 8.638-20.666 13.283l-.3.174a.227.227 0 00-.056.315.229.229 0 00.316.055l.254-.134c6.459-3.354 13.874-7.339 21.338-11.425a.844.844 0 01.118-.063 9.41 9.41 0 01-.988-2.22" fill="#FFF" mask="url(#b)"/></g><path d="M95.945 34.06c-.213-6.213 4.673-12.567 11.772-12.567 4.743 0 7.85 3.15 8.025 7.976.229 6.55-4.34 12.567-11.765 12.567-4.759 0-7.866-3.142-8.032-7.977m3.084.197c.118 3.637 2.434 6.622 5.446 6.622 5.843 0 8.333-7.15 8.16-11.92-.127-3.646-2.5-6.622-5.51-6.622-5.021-.008-8.27 7.11-8.096 11.92M34.875 28.603c-.023.567-.126 1.071-.277 1.945l-1.043 5.834c-.087.52.103.921.585 1.205l-.032.228-5.977-.008-.054-1.48c-.87.52-1.922.96-2.87 1.22-.95.244-1.717.346-2.862.346-1.93 0-3.036-.196-3.803-.865-.775-.685-1.155-1.142-1.115-2.087.032-.543.316-1.243.72-1.732.41-.496.98-.819 1.588-1.11.618-.291 1.344-.504 2.396-.67 1.06-.172 2.53-.338 4.498-.503 1.037-.087 1.669-.323 1.961-.441.411-.158.577-.339.632-.67.112-.598-.078-.944-.884-1.102-2.152-.425-6.192.276-8.27.788l1.13-3.04c2.743-.4 5.313-.653 8.024-.653 4.325 0 5.7 1.22 5.653 2.795m-6.166 3.819a6.951 6.951 0 01-.989.275c-.402.095-1.146.22-2.221.394-.743.118-1.257.268-1.55.48-.276.205-.443.449-.49.756-.056.323.047.575.324.78.285.197.76.299 1.432.299.505 0 .995-.079 1.47-.236.483-.158.894-.37 1.202-.638.228-.197.395-.449.52-.756.08-.205.183-.653.302-1.354M54.592 23.446c.174-.96 1.692-1.732 3.384-1.732 1.7 0 2.941.779 2.774 1.732-.18.96-1.69 1.74-3.398 1.74-1.693 0-2.926-.78-2.76-1.74zm-2.387 14.36l2.071-11.66H60l-2.071 11.66h-5.724zM86.49 28.619c-.024.575-.127 1.078-.285 1.945l-1.035 5.842c-.087.511.103.92.585 1.204l-.032.205-5.976.008-.048-1.489c-.87.529-1.93.97-2.87 1.222-.949.251-1.716.353-2.877.353-1.93 0-3.028-.188-3.796-.865-.782-.694-1.154-1.142-1.114-2.087.024-.551.308-1.252.719-1.732.41-.504.98-.819 1.597-1.11.617-.292 1.344-.504 2.388-.677 1.06-.166 2.537-.34 4.506-.505 1.028-.086 1.66-.315 1.953-.433.42-.157.577-.338.64-.677.103-.59-.08-.937-.877-1.102-2.167-.425-6.19.276-8.27.787l1.123-3.039c2.751-.4 5.313-.653 8.024-.653 4.309.008 5.685 1.236 5.645 2.803m-6.167 3.826c-.26.087-.593.181-.996.276-.403.094-1.146.212-2.222.386-.735.118-1.257.267-1.54.48-.278.197-.436.449-.499.748-.064.323.056.583.324.78.293.197.767.29 1.44.29.496 0 .987-.07 1.47-.22.489-.165.893-.37 1.21-.638a1.96 1.96 0 00.505-.756c.08-.196.182-.645.308-1.346M16.653 33.618c-1.866.37-2.91.512-4.752.512-2.736 0-4.91-1.354-4.79-3.834.086-1.654 2.047-5.134 7.035-5.134 1.574 0 2.799.276 4.451 1.213l.728-4.047c-2.246-.843-3.732-.969-5.66-.953C7.117 21.446.84 24.406.057 30.43c-.79 6.117 6.712 7.653 10.04 7.637 1.922-.008 3.922-.086 5.787-.276l.768-4.173zM63.154 26.083l.412-2.378 5.984-1.298-.64 3.669h2.933l-.553 2.346-2.847-.008-1.731 9.377s-5.764-.039-5.788 0l1.724-9.353h-2.166l.442-2.362h2.23v.007zM95.086 21.698l-2.783 16.101-5.826.008L89.41 21.54zM34.211 41.83l2.791-15.62h5.028l-.387 1.992c.435-.599 1.13-1.087 2.094-1.48.973-.395 2.063-.686 3.25-.686 1.312 0 2.118.071 3.099.575.973.511 1.66 1.252 2.024 2.213.38.944.458 2.015.253 3.173-.34 1.929-1.281 3.44-2.83 4.558-1.534 1.118-2.917 1.41-4.887 1.418-.695 0-1.28-.071-1.762-.19-.474-.125-.854-.275-1.139-.456-.276-.181-.569-.441-.94-.85l-.934 5.354h-5.66zm10.42-12.951c-.751 0-1.431.228-2.032.677-.6.456-.98 1.118-1.13 1.992-.182 1.015-.072 1.748.331 2.197.412.448.997.677 1.772.677.522 0 1.059-.095 1.454-.292.49-.26.83-.527 1.123-.96a3.85 3.85 0 00.632-1.536c.166-.921.024-1.606-.403-2.062-.42-.457-.996-.693-1.747-.693zM138.613 37.492l.451.307c-1.146 2.323-3.479 4.189-6.215 4.189-2.237 0-4.079-1.488-4.173-4.276-.183-5 4.521-9.637 8.372-9.637 1.652 0 3.186.717 3.248 2.489.144 3.976-5.462 5.188-9.154 5.275-.119.417-.166.834-.142 1.464.063 1.646 1.059 3.031 3.13 3.031 1.787 0 3.574-1.432 4.483-2.842m-.506-7.18c-.032-.937-.506-1.575-1.478-1.575-2.349 0-4.847 4.582-5.274 6.425 3.85.007 6.847-2.276 6.752-4.85" fill="#FFF"/><path d="M115.655 30.186c.395-.056 1.035-.126 1.312-.126.419 0 .814.079.838.496.008.244-.435 2.015-.53 2.425l-.894 3.92c-.363 1.607-.75 3.284-1.098 4.614h2.292l1.29-6.211c3.929-4.079 5.446-5.41 6.371-5.41.42 0 .704.22.727.716.024.717-.426 2.347-.576 2.82l-1.313 4.527c-.3 1.015-.521 1.937-.498 2.59.04.992.64 1.433 1.542 1.433 1.676 0 2.893-1.74 3.953-3.449l-.308-.558c-.427.684-1.424 2.188-2.206 2.188-.246 0-.482-.165-.49-.574-.024-.528.197-1.323.356-1.85l1.462-5.307c.395-1.465.577-2.402.57-2.906-.04-.992-.617-1.457-1.511-1.457-1.51 0-3.51 1.103-7.756 5.961h-.063l.538-2.37c.293-1.3.577-2.653.845-3.59-1.47.527-3.573 1.118-4.869 1.37l.016.748z" fill="#FFF"/></g></svg>