<svg xmlns="http://www.w3.org/2000/svg" xmlns:xlink="http://www.w3.org/1999/xlink" viewBox="0 0 121 121"><path d="M22 20.7c-.8.4-2.5.9-4.9.9-6.8 0-10.7-4.7-10.7-10.6C6.4 3.9 11.4.2 17.5.2c2.4 0 3.7.5 4.5.9l-.8 4.2c-.9-.4-1.9-.8-3.5-.8-2.9 0-6.1 1.7-6.1 6.4 0 4.2 2.5 6.4 6.1 6.4 1.4 0 2.4-.3 3.5-.8l.8 4.2zm23.1-5.8c.2 1.9 1.8 3 4.3 3 1.5 0 3.2-.4 4.4-1.1l.7 3.6c-1.7.9-3.7 1.2-5.8 1.2-5.5 0-8.4-3.3-8.4-8.3 0-4.9 3.2-8 7.9-8 4.9 0 7.1 3.6 7.1 8.1 0 .5-.1 1.2-.1 1.6H45.1m5.5-3.3c0-1.1-.6-3.1-2.7-3.1-1.9 0-2.7 1.6-2.9 3.1h5.6zm10 9.3l-5-15.1h5l2.8 10.7h.1l2.8-10.7h5l-5 15.1zm12-10.2c0-2.2-.1-3.7-.2-5h4.3l.1 2.8h.1c.8-2.2 2.2-3.1 3.7-3.1.7 0 1.1 0 1.5.1V10c-.2 0-1.1-.1-1.6-.1-1.8.2-2.8 1.4-3.1 2.9-.1.3-.1.7-.1 1V21h-4.6V10.8zm25.9 2.6c0 4.9-3 8.2-7.8 8.2s-7.8-3.2-7.8-8.2c0-5 3-8.2 7.8-8.2s7.8 3.3 7.8 8.2m-4.8 0c0-2.5-.8-4.6-3-4.6s-3 2.1-3 4.6c0 2.5.8 4.6 3 4.6s3-2.1 3-4.6zm6.8-2.7c0-1.9-.1-3.5-.2-4.8h4.3l.1 2.1h.1c.6-1 2.2-2.6 4.7-2.6 3 0 5 2.1 5 6.5V21H110v-8.4c0-1.9-.7-3.3-2.3-3.3-1.3 0-2.1.9-2.4 1.8-.1.3-.2.7-.2 1.2V21h-4.6V10.7zM33.3 5.4c-1.8 0-3.6.8-4.5 2.2h-.1V.2l-4.6 1.6V21h4.6v-9c0-1.3.8-2.7 2.5-2.7s2.4 1.4 2.4 3.3V21h4.6v-9c0-4.5-2-6.6-4.9-6.6z" fill="#0076B8"/><defs><path id="a" d="M6.6 61V25l54 18z"/></defs><linearGradient id="b" gradientUnits="userSpaceOnUse" x1="3.048" y1="29.815" x2="46.959" y2="61.719"><stop offset=".01" stop-color="#00ABE6"/><stop offset=".3" stop-color="#00AAE5"/><stop offset=".6" stop-color="#0084C4"/><stop offset="1" stop-color="#0065AB"/></linearGradient><use xlink:href="#a" overflow="visible" fill="url(#b)"/><defs><path id="c" d="M6.6 61l54 18 54-18V25l-54 18z"/></defs><linearGradient id="d" gradientUnits="userSpaceOnUse" x1="55.278" y1="77.267" x2="76.303" y2="12.559"><stop offset="0" stop-color="#006AAF"/><stop offset=".027" stop-color="#0077BA"/><stop offset=".065" stop-color="#0088C8"/><stop offset=".105" stop-color="#0096D4"/><stop offset=".147" stop-color="#00A1DD"/><stop offset=".191" stop-color="#00A8E4"/><stop offset=".24" stop-color="#00ADE8"/><stop offset=".3" stop-color="#00B0EA"/><stop offset=".318" stop-color="#00B0EA"/><stop offset=".5" stop-color="#00B0EA"/><stop offset=".559" stop-color="#00ACE7"/><stop offset=".636" stop-color="#00A4E0"/><stop offset=".723" stop-color="#0098D6"/><stop offset=".817" stop-color="#0087C7"/><stop offset=".916" stop-color="#0072B5"/><stop offset=".95" stop-color="#006AAF"/></linearGradient><use xlink:href="#c" overflow="visible" fill="url(#d)"/><defs><path id="e" d="M6.6 102.8v-36l54 18z"/></defs><linearGradient id="f" gradientUnits="userSpaceOnUse" x1="3.045" y1="71.653" x2="46.954" y2="103.555"><stop offset="0" stop-color="#EA2440"/><stop offset=".25" stop-color="#DE223C"/><stop offset=".4" stop-color="#CC3445"/><stop offset=".575" stop-color="#B03A4A"/><stop offset="1" stop-color="#98303E"/></linearGradient><use xlink:href="#e" overflow="visible" fill="url(#f)"/><defs><path id="g" d="M114.6 66.8l-54 18-54 18 54 18 54-18z"/></defs><linearGradient id="h" gradientUnits="userSpaceOnUse" x1="55.275" y1="119.108" x2="76.304" y2="54.386"><stop offset="0" stop-color="#98303E"/><stop offset=".045" stop-color="#AA3140"/><stop offset=".113" stop-color="#C13042"/><stop offset=".185" stop-color="#D22C41"/><stop offset=".262" stop-color="#DE2840"/><stop offset=".346" stop-color="#E62540"/><stop offset=".45" stop-color="#EA2440"/><stop offset=".559" stop-color="#DA2A41"/><stop offset=".776" stop-color="#B83142"/><stop offset=".95" stop-color="#98303E"/></linearGradient><use xlink:href="#g" overflow="visible" fill="url(#h)"/></svg>