<svg xmlns="http://www.w3.org/2000/svg" xmlns:xlink="http://www.w3.org/1999/xlink" viewBox="-264 352.9 82.2 88.1"><g transform="matrix(1.25 0 0 -1.25 -610.29 153.14)"><defs><path id="a" d="M-285.5-379.1H457v967.5h-742.5z"/></defs><clipPath id="b"><use xlink:href="#a" overflow="visible"/></clipPath><g clip-path="url(#b)"><path fill="#0982C6" d="M297.798-178.637c1.2 0 8.7-3.3 8.7-15.3 0-5.7-1.9-10.5-3.1-10.5-.5 0-.7.5-.7 1.5 0 2.1.7 4 .7 8.5 0 8.7-3.6 12.3-5.2 14.3-.5.6-.8 1-.8 1.3.1 0 .2.2.4.2m19.1-.3c0-.3-.4-.7-.8-1.3-1.6-2-5.2-5.5-5.2-14.3 0-4.5.7-6.4.7-8.5 0-1-.2-1.5-.7-1.5-1.1 0-3.1 4.8-3.1 10.5 0 12 7.6 15.3 8.7 15.3.3.1.4-.1.4-.2"/><path fill="#F8971F" d="M304.402-181.038c0-1.6 1.2-2.8 2.8-2.8 1.5 0 2.8 1.3 2.8 2.8 0 1.6-1.2 2.8-2.8 2.8-1.6 0-2.8-1.3-2.8-2.8"/><path fill="#56B948" d="M292.815-176.557c-1.4.7-2.5 2-2.7 3.2 1.1.7 2.8.8 4.2.1 1.5-.7 1.9-1.8 1.9-2.9-.8-.6-1.9-1.1-3.4-.4m4.1 7.6c-.9 1.4-1.1 3.2-.6 4.5 1.4 0 2.9-.9 3.9-2.3 1-1.5.6-2.7 0-3.7-1-.2-2.3 0-3.3 1.5m2.2-7.6c-1.1 1-1.8 2.4-1.6 3.6 1.2.4 2.7 0 3.9-1 1.2-1 1.2-2.2 1-3.1-1-.3-2.1-.5-3.3.5m3.5 3.7c-.5 1.6-.2 3.4.7 4.4 1.3-.4 2.5-1.7 3-3.2.5-1.7-.1-2.8-.9-3.5-1.1.1-2.3.6-2.8 2.3m-6-11.7c-1.1-.2-2.3.1-3 .8.3.9 1.3 1.6 2.5 1.9 1.2.2 1.9-.3 2.3-.9-.2-.8-.6-1.5-1.8-1.8m-3.1 3.4c-1.3.1-2.5.9-2.9 1.8.7.8 2 1.3 3.3 1.2 1.4-.1 1.9-1 2.2-1.8-.5-.7-1.2-1.3-2.6-1.2m-.1 9.7c-1 .9-1.6 2.2-1.4 3.2 1 .3 2.4 0 3.4-.9 1.1-.9 1.1-1.9.9-2.8-.8-.3-1.8-.4-2.9.5m7 6.8c-.4 1.3-.2 2.8.6 3.7 1.1-.3 2.1-1.4 2.5-2.7.4-1.4-.1-2.3-.8-2.9-.9.1-1.9.5-2.3 1.9m-17.1-34.4c0-.1 0-.1 0 0 .1-.1.2 0 .3 0 4.1 1.5 10.1 3.3 18.6 3.8 0 .1.1.5.1.7 0 .6-.1 1.3-.1 1.4-8.7-.8-14.6-3.3-18.6-5.7-.2-.1-.3-.2-.3-.2m34.8 22.9c0 1 .4 2.2 1.9 2.9 1.4.7 3.1.6 4.2-.1-.2-1.3-1.3-2.6-2.7-3.2-1.5-.7-2.6-.2-3.4.4m-4.1 5.7c-.6.9-.9 2.2 0 3.7.9 1.4 2.5 2.4 3.9 2.3.6-1.2.4-3.1-.6-4.5-.9-1.5-2.2-1.7-3.3-1.5m-2-6.5c-.3.9-.2 2.1 1 3.1 1.1 1 2.7 1.4 3.9 1 .2-1.2-.5-2.7-1.6-3.6-1.3-1.1-2.4-.9-3.3-.5m-3 1.7c-.8.7-1.5 1.8-.9 3.5.5 1.6 1.7 2.9 3 3.2.9-1 1.2-2.8.7-4.4-.6-1.6-1.8-2.1-2.8-2.3m6.9-7.5c.4.6 1.1 1.1 2.3.9 1.1-.2 2.1-1 2.5-1.9-.6-.7-1.8-1-3-.8-1.2.3-1.6 1-1.8 1.8m2.3 2.9c.3.8.8 1.6 2.2 1.8 1.3.1 2.6-.3 3.3-1.2-.5-1-1.6-1.7-2.9-1.8-1.4-.2-2.1.4-2.6 1.2m-.2 8c-.2.8-.2 1.8.9 2.8 1 .9 2.4 1.2 3.4.9.2-1.1-.4-2.4-1.4-3.2-1.1-1-2.1-.9-2.9-.5m-6.4 5.3c-.7.6-1.2 1.5-.8 2.9.4 1.3 1.4 2.4 2.5 2.7.7-.9 1-2.3.6-3.7-.4-1.4-1.4-1.8-2.3-1.9m19.2-32.3c-3.9 2.4-9.9 4.9-18.6 5.7 0-.1-.1-.7-.1-1.4 0-.3.1-.7.1-.7 8.5-.5 14.5-2.3 18.6-3.8.1 0 .2-.1.2-.1s.1 0 .1.1c-.1 0-.2.1-.3.2m-23.7 30.9c-1.1.5-2.2 1.5-2.2 3.5 0 1.9.9 3.8 2.2 4.6 1.3-.8 2.2-2.7 2.2-4.6.1-2-1-3-2.2-3.5"/><path fill="#0982C6" d="M292.023-209.446c0-1 .8-1.8 1.8-1.8s1.8.8 1.8 1.8-.8 1.8-1.8 1.8c-1-.1-1.8-.9-1.8-1.8m14.2-9.5c0-2.8-1.1-4-2.7-4s-2.5 1.4-2.5 3.8 1.4 4.5 4 4.5c.5 0 .9-.1 1.2-.1v-4.2zm.2-4.6v-.9c0-2.5-1.5-3.5-3.5-3.5-1.7 0-3 .5-3.4.7v-2.5c.3-.1 1.7-.5 3.7-.5 3.6 0 5.9 1.5 5.9 6.5v10.8c-.5.1-2.1.6-4 .6-5 0-7.1-3.3-7.1-7 0-3.3 1.7-5.9 4.9-5.9 2.1 0 3.1 1.2 3.5 1.7-.1 0 0 0 0 0zm-17 1.6c-.8-.4-2.1-.6-3.3-.6-3.4 0-5.9 2.4-5.9 6.1 0 3.7 2.5 6.1 5.9 6.1 1.7 0 2.9-.4 3.3-.6v2.6c-.7.3-1.9.6-3.6.6-5.2 0-8.8-3.6-8.8-8.7 0-4.8 3.2-8.7 8.8-8.7 1.6 0 2.8.3 3.6.6v2.6zm44.5 3c0-2.8-1.1-4-2.7-4s-2.5 1.4-2.5 3.8 1.4 4.5 4 4.5c.5 0 .9-.1 1.2-.1v-4.2zm3.3-6.1c-.1.7-.4 2.5-.4 4.1v8c-.5.1-2.1.6-4 .6-5 0-7.1-3.3-7.1-7 0-3.3 1.7-5.9 4.9-5.9 2.3 0 3.4 1.5 3.8 2.3h.1c0-.4.1-1.7.2-2h2.5zm-41.9 12.3h-2.9v-12.3h2.9v12.3zm17.2-12.3v8.5c0 1.1-.1 3.3-.1 3.8h2.6l.1-1.7h.1c.3.5 1.3 2 3.6 2 2.8 0 4.3-2 4.3-4.6v-8h-2.9v7.4c0 1.6-.9 2.7-2.4 2.7s-2.4-1.2-2.4-2.7v-7.4h-2.9zM341.556-222.837c-.1 0-.2.1-.4.1h-.3v-.6h.6c.1 0 .2.1.2.3 0 0 0 .1-.1.2m-.3.2c.2 0 .4 0 .5-.1.2-.1.3-.2.3-.4s-.1-.3-.2-.3-.1-.1-.2-.1c.1 0 .2-.1.3-.2.1-.1.1-.2.1-.3v-.1-.1-.1h-.3v.2c0 .2-.1.3-.2.4-.1 0-.2.1-.3.1h-.2v-.7h-.3v1.7h.5zm-.9.1c-.3-.3-.4-.6-.4-.9 0-.4.1-.7.4-1 .3-.3.6-.4.9-.4.4 0 .7.1.9.4.3.3.4.6.4 1s-.1.7-.4.9c-.3.3-.6.4-.9.4s-.7-.1-.9-.4m2-2c-.3-.3-.7-.5-1.1-.5-.4 0-.8.2-1.1.5-.3.3-.5.7-.5 1.1 0 .4.2.8.5 1.1.3.3.7.5 1.1.5.4 0 .8-.2 1.1-.5.3-.3.5-.7.5-1.1 0-.5-.2-.8-.5-1.1"/></g></g></svg>