<svg xmlns="http://www.w3.org/2000/svg" width="420" height="42" viewBox="0 0 420 42"><path d="M15.456 30.982C6.802 30.982.355 24.236.355 15.67.355 7.183 6.676.266 15.67.266c5.472 0 8.785 1.91 11.624 4.623l-3.352 3.863c-2.375-2.205-4.918-3.688-8.313-3.688-5.686 0-9.799 4.665-9.799 10.518 0 5.854 4.113 10.608 9.799 10.608 3.646 0 5.982-1.485 8.527-3.862l3.352 3.393c-3.099 3.226-6.49 5.261-12.052 5.261zm17.184-.506h5.219V.776H32.64v29.7zm30.843-19.984c0 3.055-2.378 5.003-6.111 5.003h-7.636V5.53h7.594c3.861 0 6.153 1.697 6.153 4.962zm6.237 19.984l-8.017-11.245c4.155-1.145 7.082-4.115 7.082-9.033 0-5.815-4.199-9.422-11.029-9.422H44.517v29.7h5.219V20.125h6.534l7.298 10.351h6.152zm64.637-29.7h-5.217v17.096c0 5.477-2.846 8.275-7.47 8.275-4.665 0-7.509-2.971-7.509-8.486V.776h-5.217v17.096c0 8.615 4.923 13.071 12.643 13.071 7.767 0 12.77-4.456 12.77-13.324V.776zm28.341 0h-22.019v29.7h22.233v-4.669h-17.018v-7.974h14.896v-4.665h-14.896V5.443h16.804V.776zm40.594 14.894c0 5.853-4.057 10.051-10.301 10.051h-5.856V5.53h5.856c6.244 0 10.301 4.281 10.301 10.14zm5.467-.088c0-8.399-6.438-14.806-15.768-14.806h-11.075v29.7h11.075c9.33 0 15.768-6.491 15.768-14.894zM239.389.776h-5.217v17.096c0 5.477-2.84 8.275-7.466 8.275-4.669 0-7.511-2.971-7.511-8.486V.776h-5.217v17.096c0 8.615 4.921 13.071 12.641 13.071 7.767 0 12.77-4.456 12.77-13.324V.776zm23.037 7.766c0-1.995 1.782-3.566 4.835-3.566 2.716 0 5.388 1.062 8.063 3.054l2.8-3.946C275.11 1.668 271.675.353 267.349.353c-5.899 0-10.142 3.481-10.142 8.654 0 5.513 3.562 7.382 9.886 8.909 5.514 1.271 6.704 2.421 6.704 4.582 0 2.294-2.039 3.777-5.265 3.777-3.69 0-6.531-1.402-9.378-3.862l-3.136 3.734c3.563 3.182 7.852 4.754 12.388 4.754 6.235 0 10.608-3.31 10.608-8.913 0-4.964-3.268-7.213-9.547-8.737-5.682-1.359-7.041-2.377-7.041-4.709zm46.371 7.128c0 5.81-4.114 10.52-10.013 10.52-5.897 0-10.098-4.793-10.098-10.608 0-5.814 4.115-10.518 10.011-10.518 5.901 0 10.1 4.791 10.1 10.606zm5.473-.088c0-8.399-6.364-15.316-15.485-15.316-9.123 0-15.569 7-15.569 15.404 0 8.398 6.363 15.312 15.482 15.312 9.12 0 15.572-6.997 15.572-15.4zm5.471 14.894h20.83v-4.755H324.96V.776h-5.219v29.7zm47.643-29.7h-22.017v29.7h22.228v-4.669h-17.011v-7.974h14.892v-4.665h-14.892V5.443h16.8V.776zm6.069 29.7h5.217V.776h-5.217v29.7zm11.878 0h20.83v-4.755h-15.614V.776h-5.216v29.7zM98.199 15.704c0-5.812-4.196-10.601-10.1-10.601-5.895 0-10.008 4.708-10.008 10.523 0 5.803 4.2 10.599 10.102 10.599 5.893 0 10.006-4.711 10.006-10.521zM82.952 30.212c-6.307-1.976-10.336-7.801-10.336-14.508 0-8.392 6.449-15.399 15.577-15.399 9.114 0 15.482 6.922 15.482 15.321 0 6.368-3.716 11.923-9.489 14.239 2.22.899 3.526 1.983 7.031 3.699 5.45 2.667 10.534 5.08 18.364 5.08 6.161 0 12.32-2.225 15.31-4.709l1.01 1.481c-3.664 3.638-12.135 6.359-19.746 6.359-4.044 0-9.599-.569-14.667-2.866-3.45-1.564-7.799-3.906-10.82-5.379-2.111-1.026-5.858-2.659-7.716-3.318zm328.653-3.825h-1.521v-.645h3.721v.645h-1.522v4.089h-.677v-4.089h-.001zm3.245-.645h.722l1.691 2.598 1.675-2.598h.707v4.734h-.661v-3.628l-1.69 2.567h-.094l-1.675-2.567v3.628h-.676v-4.734h.001z" fill="#FDC300"/></svg>