<svg id="Layer_1" data-name="Layer 1" xmlns="http://www.w3.org/2000/svg" viewBox="0 0 72 37.95">
  <title>cisco-systems</title>
  <g>
    <g>
      <rect x="20.36" y="25.21" width="3.16" height="12.51" style="fill: #c41230"/>
      <path d="M52,30.84a5.51,5.51,0,0,0-2.66-.67,3.34,3.34,0,1,0,0,6.68A5.58,5.58,0,0,0,52,36.19v3.36a10.08,10.08,0,0,1-2.88.45,6.48,6.48,0,1,1,0-13,9.65,9.65,0,0,1,2.88.45Z" transform="translate(-3.03 -2.04)" style="fill: #c41230"/>
      <path d="M19.06,30.84a5.48,5.48,0,0,0-2.65-.67,3.34,3.34,0,1,0,0,6.68,5.54,5.54,0,0,0,2.65-.66v3.36a10,10,0,0,1-2.88.45,6.48,6.48,0,1,1,0-13,9.62,9.62,0,0,1,2.88.45Z" transform="translate(-3.03 -2.04)" style="fill: #c41230"/>
      <path d="M68.55,33.51A6.61,6.61,0,1,1,61.94,27,6.42,6.42,0,0,1,68.55,33.51Zm-6.61-3.29a3.29,3.29,0,1,0,3.27,3.29A3.23,3.23,0,0,0,61.94,30.22Z" transform="translate(-3.03 -2.04)" style="fill: #c41230"/>
      <path d="M38.53,30.1a10.83,10.83,0,0,0-2.47-.38c-1.27,0-2,.42-2,1,0,.76.93,1,1.45,1.19l.87.28a3.76,3.76,0,0,1,3,3.58c0,3.14-2.76,4.2-5.18,4.2a18.83,18.83,0,0,1-3.41-.34V36.77a11.83,11.83,0,0,0,3,.46c1.57,0,2.29-.46,2.29-1.17s-.62-1-1.41-1.25L34,34.6C32.25,34,30.79,33,30.79,30.94c0-2.34,1.75-3.91,4.66-3.91a13.48,13.48,0,0,1,3.08.4Z" transform="translate(-3.03 -2.04)" style="fill: #c41230"/>
    </g>
    <path d="M6.17,13.81a1.57,1.57,0,0,0-3.13,0v3.28a1.57,1.57,0,0,0,3.13,0Z" transform="translate(-3.03 -2.04)" style="fill: #005568"/>
    <path d="M14.78,9.5a1.57,1.57,0,0,0-3.13,0v7.59a1.57,1.57,0,0,0,3.13,0Z" transform="translate(-3.03 -2.04)" style="fill: #005568"/>
    <path d="M23.39,3.6a1.57,1.57,0,0,0-3.13,0V20.22a1.57,1.57,0,0,0,3.13,0Z" transform="translate(-3.03 -2.04)" style="fill: #005568"/>
    <path d="M32,9.5a1.57,1.57,0,0,0-3.13,0v7.59a1.57,1.57,0,0,0,3.13,0Z" transform="translate(-3.03 -2.04)" style="fill: #005568"/>
    <path d="M40.6,13.81a1.56,1.56,0,0,0-3.12,0v3.28a1.56,1.56,0,1,0,3.12,0Z" transform="translate(-3.03 -2.04)" style="fill: #005568"/>
    <path d="M49.21,9.5a1.56,1.56,0,0,0-3.12,0v7.59a1.56,1.56,0,1,0,3.12,0Z" transform="translate(-3.03 -2.04)" style="fill: #005568"/>
    <path d="M57.83,3.6a1.56,1.56,0,0,0-3.12,0V20.22a1.56,1.56,0,1,0,3.12,0Z" transform="translate(-3.03 -2.04)" style="fill: #005568"/>
    <path d="M66.44,9.5a1.57,1.57,0,0,0-3.14,0v7.59a1.57,1.57,0,0,0,3.14,0Z" transform="translate(-3.03 -2.04)" style="fill: #005568"/>
    <path d="M75,13.81a1.56,1.56,0,0,0-3.13,0v3.28a1.56,1.56,0,1,0,3.13,0Z" transform="translate(-3.03 -2.04)" style="fill: #005568"/>
  </g>
</svg>
