<svg xmlns="http://www.w3.org/2000/svg" xmlns:xlink="http://www.w3.org/1999/xlink" viewBox="94 172 800 450"><path fill="#C4122E" d="M365 590.838h-32.6v-129.3H365v129.3z"/><g transform="matrix(10.33728 0 0 -10.33728 -861.345 7843.84)"><defs><path id="a" d="M93.6 697h77.1v43.9H93.6V697z"/></defs><clipPath id="b"><use xlink:href="#a" overflow="visible"/></clipPath><g clip-path="url(#b)"><path fill="#C4122E" d="M144.096 710.6c-.1 0-1.2.6-2.7.6-2 0-3.5-1.4-3.5-3.3s1.4-3.3 3.5-3.3c1.5 0 2.5.6 2.7.7v-3.4c-.4-.1-1.5-.4-2.9-.4-3.6 0-6.7 2.4-6.7 6.5 0 3.7 2.8 6.5 6.7 6.5 1.5 0 2.6-.4 2.9-.4v-3.5zM111.143 710.6c-.1 0-1.1.6-2.7.6-2 0-3.5-1.4-3.5-3.3s1.4-3.3 3.5-3.3c1.5 0 2.5.6 2.7.7v-3.4c-.4-.1-1.5-.4-2.9-.4-3.5 0-6.7 2.4-6.7 6.5 0 3.7 2.8 6.5 6.7 6.5 1.5 0 2.6-.4 2.9-.4v-3.5zM154.027 711.22c-1.9 0-3.3-1.5-3.3-3.3 0-1.8 1.4-3.3 3.3-3.3s3.3 1.5 3.3 3.3c0 1.8-1.4 3.3-3.3 3.3m6.6-3.3c0-3.6-2.8-6.5-6.6-6.5s-6.6 2.9-6.6 6.5 2.8 6.5 6.6 6.5 6.6-3 6.6-6.5M130.612 711.34s-1.4.4-2.5.4c-1.3 0-2-.4-2-1 0-.8.9-1 1.4-1.2l1-.4c2-.7 3-2.1 3-3.6 0-3.1-2.8-4.2-5.2-4.2-1.7 0-3.3.3-3.4.3v2.9c.3-.1 1.6-.5 3-.5 1.6 0 2.3.5 2.3 1.2 0 .6-.6 1-1.4 1.2-.2.1-.5.2-.7.2-1.8.6-3.2 1.6-3.2 3.7 0 2.3 1.8 3.9 4.7 3.9 1.5 0 3-.4 3.1-.4l-.1-2.5z"/><path fill="#15495D" d="M98.254 727.63c0 .9-.7 1.6-1.6 1.6s-1.5-.8-1.5-1.6v-3.3c0-.9.7-1.6 1.6-1.6s1.6.7 1.6 1.6v3.3zM106.863 731.94c0 .9-.7 1.6-1.6 1.6-.9 0-1.6-.7-1.6-1.6v-7.6c0-.9.7-1.6 1.6-1.6.9 0 1.6.7 1.6 1.6v7.6zM115.473 737.838c0 .9-.7 1.6-1.6 1.6-.9 0-1.6-.7-1.6-1.6v-16.6c0-.9.7-1.6 1.6-1.6.9 0 1.6.7 1.6 1.6v16.6zM124.082 731.94c0 .9-.7 1.6-1.6 1.6-.9 0-1.6-.7-1.6-1.6v-7.6c0-.9.7-1.6 1.6-1.6.9 0 1.6.7 1.6 1.6v7.6zM132.682 727.63c0 .9-.7 1.6-1.6 1.6-.9 0-1.6-.7-1.6-1.6v-3.3c0-.9.7-1.6 1.6-1.6.9 0 1.6.7 1.6 1.6v3.3zM141.295 731.94c0 .9-.7 1.6-1.6 1.6-.9 0-1.6-.7-1.6-1.6v-7.6c0-.9.7-1.6 1.6-1.6.9 0 1.6.7 1.6 1.6v7.6zM149.91 737.838c0 .9-.7 1.6-1.6 1.6-.9 0-1.6-.7-1.6-1.6v-16.6c0-.9.7-1.6 1.6-1.6.9 0 1.6.7 1.6 1.6v16.6zM158.523 731.94c0 .9-.7 1.6-1.6 1.6-.9 0-1.6-.7-1.6-1.6v-7.6c0-.9.7-1.6 1.6-1.6.9 0 1.6.7 1.6 1.6v7.6zM167.12 727.63c0 .9-.7 1.6-1.6 1.6-.9 0-1.6-.7-1.6-1.6v-3.3c0-.9.7-1.6 1.6-1.6.9 0 1.6.7 1.6 1.6v3.3z"/><path fill="#C4122E" d="M165.313 703.322v-.2h-.6v-1.5h-.2v1.5h-.6v.2h1.4zM165.43 703.322h.4l.4-1.4.5 1.4h.4v-1.6h-.2v1.4l-.6-1.5h-.2l-.5 1.4v-1.4h-.2v1.7z"/></g></g></svg>