<svg xmlns="http://www.w3.org/2000/svg" width="298" height="158" viewBox="0 0 298 158">
  <path fill="#049FD9" d="M297.999994,108.35059 C297.999994,111.919692 295.097253,114.812775 291.53367,114.812775 C287.960429,114.812775 285.057688,111.919692 285.057688,108.35059 L285.057688,94.7570998 C285.057688,91.1686832 287.960429,88.2742203 291.53367,88.2742203 C295.097253,88.2742203 297.999994,91.1686832 297.999994,94.7570998 L297.999994,108.35059 Z M262.423485,126.19196 C262.423485,129.759682 259.529022,132.658284 255.875763,132.658284 C252.302522,132.658284 249.408059,129.759682 249.408059,126.19196 L249.408059,94.7570998 C249.408059,91.1686832 252.302522,88.2742203 255.875763,88.2742203 C259.529022,88.2742203 262.423485,91.1686832 262.423485,94.7570998 L262.423485,126.19196 Z M226.773856,150.600367 C226.773856,154.169469 223.879393,157.063932 220.307532,157.063932 C216.734292,157.063932 213.839829,154.169469 213.839829,150.600367 L213.839829,81.8396279 C213.839829,78.2498317 216.734292,75.3567484 220.307532,75.3567484 C223.879393,75.3567484 226.773856,78.2498317 226.773856,81.8396279 L226.773856,150.600367 Z M191.11595,126.19196 C191.11595,129.759682 188.222866,132.658284 184.649626,132.658284 C181.084663,132.658284 178.181922,129.759682 178.181922,126.19196 L178.181922,94.7570998 C178.181922,91.1686832 181.084663,88.2742203 184.649626,88.2742203 C188.222866,88.2742203 191.11595,91.1686832 191.11595,94.7570998 L191.11595,126.19196 Z M155.466321,108.35059 C155.466321,111.919692 152.573237,114.812775 149.020691,114.812775 C145.447451,114.812775 142.533673,111.919692 142.533673,108.35059 L142.533673,94.7570998 C142.533673,91.1686832 145.447451,88.2742203 149.020691,88.2742203 C152.573237,88.2742203 155.466321,91.1686832 155.466321,94.7570998 L155.466321,108.35059 Z M119.874636,126.19196 C119.874636,129.759682 116.959479,132.658284 113.387618,132.658284 C109.814377,132.658284 106.89922,129.759682 106.89922,126.19196 L106.89922,94.7570998 C106.89922,91.1686832 109.814377,88.2742203 113.387618,88.2742203 C116.959479,88.2742203 119.874636,91.1686832 119.874636,94.7570998 L119.874636,126.19196 Z M84.241563,150.600367 C84.241563,154.169469 81.3264057,157.063932 77.753165,157.063932 C74.181304,157.063932 71.2661466,154.169469 71.2661466,150.600367 L71.2661466,81.8396279 C71.2661466,78.2498317 74.181304,75.3567484 77.753165,75.3567484 C81.3264057,75.3567484 84.241563,78.2498317 84.241563,81.8396279 L84.241563,150.600367 Z M48.6071101,126.19196 C48.6071101,129.759682 45.6933324,132.658284 42.1200917,132.658284 C38.546851,132.658284 35.6330733,129.759682 35.6330733,126.19196 L35.6330733,94.7570998 C35.6330733,91.1686832 38.546851,88.2742203 42.1200917,88.2742203 C45.6933324,88.2742203 48.6071101,91.1686832 48.6071101,94.7570998 L48.6071101,126.19196 Z M12.9740368,108.35059 C12.9740368,111.919692 10.060259,114.812775 6.48701838,114.812775 C2.9179166,114.812775 0,111.919692 0,108.35059 L0,94.7570998 C0,91.1686832 2.9179166,88.2742203 6.48701838,88.2742203 C10.060259,88.2742203 12.9740368,91.1686832 12.9740368,94.7570998 L12.9740368,108.35059 Z M146.90296,51.985823 C146.513904,52.0920544 140.527691,53.63586 134.166219,53.63586 C122.122053,53.63586 114.87072,47.132286 114.87072,37.4472862 C114.87072,28.8742679 120.936951,24.5987958 128.217257,22.2989532 C129.02434,22.0326847 130.213581,21.6601847 131.005488,21.3980551 C134.246238,20.3785088 136.833043,18.8636755 136.833043,16.23962 C136.833043,13.3051479 133.843386,11.4053979 127.343951,11.4053979 C121.632284,11.4053979 116.156535,13.0388793 115.003164,13.3299812 L115.003164,1.41412034 C115.646072,1.27753701 122.153784,0 129.105738,0 C139.105293,0 150.543802,4.36928694 150.543802,17.3764348 C150.543802,23.685481 146.680839,29.4937216 138.200256,32.1895178 L134.595284,33.3373697 C132.444442,34.0161474 128.604932,35.1157122 128.604932,38.2681658 C128.604932,40.7583973 131.449729,42.5119065 136.688182,42.5119065 C141.207849,42.5119065 146.708432,40.9929343 146.90296,40.9322306 L146.90296,51.985823 L146.90296,51.985823 Z M257.329893,26.8172402 C257.329893,19.2830829 251.558902,13.1878793 243.815041,13.1878793 C236.062902,13.1878793 230.307088,19.2830829 230.307088,26.8172402 C230.307088,34.3362215 236.062902,40.4341843 243.815041,40.4341843 C251.558902,40.4341843 257.329893,34.3362215 257.329893,26.8172402 L257.329893,26.8172402 Z M243.815041,53.6193044 C227.888597,53.6193044 216.466643,41.6068695 216.466643,26.8172402 C216.466643,12.0041571 227.888597,2.13162821e-14 243.815041,2.13162821e-14 C259.740106,2.13162821e-14 271.178615,12.0041571 271.178615,26.8172402 C271.178615,41.6068695 259.740106,53.6193044 243.815041,53.6193044 L243.815041,53.6193044 Z M66.3187949,51.7637026 C65.0909245,52.1279248 60.5519431,53.6193044 54.4043136,53.6193044 C38.5027029,53.6193044 26.8296568,42.2815084 26.8296568,26.8172402 C26.8296568,10.1333794 39.7153973,2.13162821e-14 54.4043136,2.13162821e-14 C60.2401469,2.13162821e-14 64.6949708,1.38238886 66.3187949,1.84318515 L66.3187949,15.7429534 C65.7572856,15.4311571 61.4859524,12.9947312 55.3410821,12.9947312 C46.6356194,12.9947312 41.0205269,19.1216663 41.0205269,26.8172402 C41.0205269,34.7473511 46.8784342,40.6287121 55.3410821,40.6287121 C61.5908042,40.6287121 65.793156,38.1384807 66.3187949,37.8639344 L66.3187949,51.7637026 L66.3187949,51.7637026 Z M202.708977,51.7637026 C201.471449,52.1279248 196.928329,53.6193044 190.801394,53.6193044 C174.87633,53.6193044 163.203284,42.2815084 163.203284,26.8172402 C163.203284,10.1333794 176.1042,2.13162821e-14 190.801394,2.13162821e-14 C196.605496,2.13162821e-14 201.067218,1.38238886 202.708977,1.84318515 L202.708977,15.7429534 C202.135051,15.4311571 197.858199,12.9947312 191.714709,12.9947312 C183.016144,12.9947312 177.40657,19.1216663 177.40657,26.8172402 C177.40657,34.7473511 183.267237,40.6287121 191.714709,40.6287121 C197.963051,40.6287121 202.17506,38.1384807 202.708977,37.8639344 L202.708977,51.7637026 L202.708977,51.7637026 Z M97.3480442,0.921592573 L84.2801926,0.921592573 L84.2801926,52.7018507 L97.3480442,52.7018507 L97.3480442,0.921592573 Z" transform="matrix(1 0 0 -1 0 157.064)"/>
</svg>
