<svg width="141" height="65" viewBox="0 0 141 65" xmlns="http://www.w3.org/2000/svg"><g fill="#FFF" fill-rule="evenodd"><path d="M121.709 52.184c0-3.627-2.746-6.421-6.34-6.44-3.593-.018-6.415 2.77-6.422 6.414 0 3.607 2.782 6.441 6.339 6.46 3.597.013 6.417-2.81 6.423-6.438v.004zm6.549 0c0 7.193-5.603 12.662-12.946 12.655-7.343-.008-12.913-5.488-12.91-12.69.005-7.203 5.619-12.674 12.947-12.663 7.328.012 12.916 5.505 12.909 12.698zM54.407 61.38c0-.742.03-1.484-.01-2.215-.029-.506.085-.62.598-.48 2.041.556 4.117.86 6.242.723a5.959 5.959 0 002.3-.538c1.484-.73 1.614-2.31.282-3.285-.727-.533-1.582-.783-2.427-1.047-1.536-.478-3.024-1.046-4.356-1.989-3.977-2.814-3.415-9.261.696-11.654 1.814-1.056 3.785-1.423 5.842-1.41a27.23 27.23 0 015.432.65c.371.079.501.22.494.619-.03 1.42-.022 2.844 0 4.267 0 .37-.074.458-.464.362-1.67-.414-3.358-.713-5.093-.607a4.82 4.82 0 00-2.226.597c-1.078.642-1.187 1.856-.243 2.683.557.486 1.241.71 1.926.939 1.222.408 2.48.716 3.638 1.31 2.597 1.328 4.158 3.36 4.17 6.343.015 3.113-1.354 5.458-4.164 6.896-1.67.857-3.477 1.213-5.338 1.282-2.297.085-4.57-.186-6.833-.557-.371-.057-.486-.197-.473-.556.028-.782.007-1.557.007-2.333M95.88 46.922a11.39 11.39 0 00-5.69-1.269c-3.535.134-6.193 2.824-6.273 6.388a6.38 6.38 0 005.972 6.608c1.923.15 3.852-.21 5.592-1.042a.556.556 0 01.399-.111v5.131c0 1.373 0 1.384-1.375 1.703-3.432.793-6.83.789-10.074-.727-4.545-2.124-6.948-5.762-7.189-10.76-.213-4.423 1.336-8.114 4.928-10.81 2.534-1.9 5.456-2.617 8.593-2.53 1.588.047 3.164.296 4.688.742.227.065.44.097.438.444-.018 2.042-.009 4.1-.009 6.233M31.37 46.922a11.333 11.333 0 00-5.693-1.269c-3.555.136-6.214 2.856-6.267 6.455-.054 3.488 2.502 6.27 5.988 6.543 2.035.152 4.073-.26 5.89-1.189.142.158.079.329.079.482 0 1.83 0 3.66.011 5.487 0 .385-.078.575-.495.688-3.71.987-7.384 1.137-10.946-.509-4.614-2.144-6.995-5.853-7.204-10.918-.17-4.072 1.213-7.538 4.354-10.204 2.015-1.714 4.391-2.617 7.003-2.9a17.939 17.939 0 016.794.637c.353.098.501.226.496.629-.022 1.987-.01 3.981-.01 6.068M39.862 19.394v15.955c0 1.65-.955 2.91-2.412 3.215-1.91.401-3.636-.95-3.738-2.929V3.39c0-1.235.402-2.252 1.484-2.91A2.905 2.905 0 0138.3.42c1.082.607 1.577 1.575 1.579 2.794.006 4.506.006 9.013 0 13.52-.011.892-.017 1.78-.017 2.66M101.162 19.325V3.255c0-1.685.968-2.898 2.503-3.174a3.05 3.05 0 013.606 2.905v32.253a3.574 3.574 0 01-.477 1.962 3.063 3.063 0 01-3.415 1.332 3.019 3.019 0 01-2.226-2.969c-.013-4.434 0-8.866 0-13.3.006-.98.009-1.96.009-2.939M46.068 52.145c0 3.896 0 7.792.011 11.688 0 .471-.135.579-.586.571a190.91 190.91 0 00-5.154 0c-.354 0-.466-.085-.466-.456.011-7.85.011-15.7 0-23.55 0-.387.102-.5.492-.496 1.7.02 3.399.028 5.098 0 .483 0 .62.108.618.605-.024 3.881-.013 7.759-.013 11.638M124.13 22.062c0 2.493.019 4.985 0 7.478-.017 1.564-1.15 2.754-2.75 2.969a3.026 3.026 0 01-3.265-2.162 3.372 3.372 0 01-.14-.927c-.01-4.912-.01-9.824 0-14.737 0-1.298.59-2.28 1.775-2.834 1.139-.533 2.237-.371 3.228.382.798.612 1.16 1.46 1.16 2.462v7.367l-.008.002zM16.857 22.027c0-2.457-.013-4.913 0-7.37a3.07 3.07 0 015.651-1.693c.333.515.506 1.117.499 1.73 0 4.895.011 9.79 0 14.685 0 1.805-1.38 3.184-3.093 3.165-1.712-.018-3.05-1.386-3.057-3.202-.01-2.44 0-4.878 0-7.315M50.561 22.05c0-2.456-.014-4.912 0-7.368.012-1.3.6-2.277 1.785-2.83 1.141-.532 2.238-.37 3.223.4a2.9 2.9 0 011.139 2.363c.013 4.95.02 9.9 0 14.842a3.061 3.061 0 01-3.035 3.087h-.026c-1.716 0-3.069-1.367-3.082-3.178-.017-2.44-.004-4.877-.004-7.315M90.414 22.084c0 2.436.013 4.874 0 7.31-.01 1.241-.556 2.215-1.67 2.794a2.896 2.896 0 01-3.096-.186c-1.01-.673-1.373-1.67-1.37-2.86.01-4.171 0-8.35 0-12.514 0-.701-.027-1.405.02-2.104.116-1.764 1.493-3.054 3.142-2.98 1.702.076 2.96 1.401 2.969 3.171.017 2.46.005 4.915.005 7.37M.004 26.27v-3.1c.016-1.808 1.341-3.177 3.07-3.184 1.696 0 3.054 1.336 3.08 3.113.03 2.103.03 4.205 0 6.308-.024 1.786-1.37 3.137-3.065 3.137-1.696 0-3.063-1.37-3.083-3.172-.012-1.036-.002-2.069-.002-3.102M73.554 26.277c0 1.052.022 2.106 0 3.154-.045 1.67-1.134 2.872-2.761 3.08-1.399.185-2.794-.755-3.226-2.158a3.53 3.53 0 01-.147-1.037c0-2.069-.016-4.137 0-6.206.017-1.506.99-2.73 2.354-3.043a3.058 3.058 0 013.418 1.557c.25.496.375 1.047.362 1.603.003 1.019 0 2.035 0 3.05M140.974 26.292c0 1.07.026 2.143 0 3.213-.048 1.638-1.195 2.84-2.83 3.019-1.393.152-2.782-.815-3.168-2.227a4.087 4.087 0 01-.126-1.039c-.011-1.994-.017-3.99 0-5.985.013-1.74 1.031-2.99 2.588-3.228 1.866-.302 3.482 1.08 3.523 3.037.022 1.067.013 2.14.013 3.21"/></g></svg>