<svg xmlns="http://www.w3.org/2000/svg" viewBox="0 0 554.25 141.95"><defs><linearGradient id="linear-gradient" x1="5.09" y1="111.8" x2="554.25" y2="111.8" gradientUnits="userSpaceOnUse"><stop offset="0"/><stop offset=".52" stop-color="#44536b"/><stop offset="1"/></linearGradient><linearGradient id="linear-gradient-2" x1="5.09" y1="111.8" x2="554.25" y2="111.8" gradientUnits="userSpaceOnUse"><stop offset="0" stop-color="#44536b"/><stop offset="0"/><stop offset=".52" stop-color="#44536b"/><stop offset="1"/></linearGradient><filter id="luminosity-noclip" x="5.09" y="-8258.8" width="549.16" height="32766" filterUnits="userSpaceOnUse" color-interpolation-filters="sRGB"><feFlood flood-color="#44536b" result="bg"/><feBlend in="SourceGraphic" in2="bg"/></filter><filter id="luminosity-noclip-3" x="5.09" y="111.3" width="549.16" height="1.01" filterUnits="userSpaceOnUse" color-interpolation-filters="sRGB"><feFlood flood-color="#44536b" result="bg"/><feBlend in="SourceGraphic" in2="bg"/></filter><style>.cls-5,.cls-6,.cls-8{fill:#44536b}.cls-5,.cls-6{stroke:#44536b;stroke-miterlimit:2.61;fill-rule:evenodd}.cls-5{stroke-width:.75px}.cls-6{stroke-width:.58px}.cls-7{mask:url(#mask-3)}</style><mask id="mask-3" x="5.09" y="111.3" width="549.16" height="1.01" maskUnits="userSpaceOnUse"><g filter="url(#luminosity-noclip-3)" mask="url(#mask)"><path style="mix-blend-mode:multiply" fill="url(#linear-gradient)" d="M5.09 111.3h549.16v1.01H5.09z"/></g></mask></defs><g id="Layer_2" data-name="Layer 2"><g id="Layer_5" data-name="Layer 5"><path class="cls-5" d="M259.62 34.81v16.3h-1.37c-1.12-2.17-1.93-2.81-3.37-2.81-.64 0-1 .16-3.37 1.12a32.44 32.44 0 01-12.93 2.81c-15.67 0-28-10.52-28-23.78s13.26-24.9 28.2-24.9a31.34 31.34 0 0110.68 2l1.45.48 1.28.48a8.63 8.63 0 002.81.56 2.71 2.71 0 002.73-1.61 1.68 1.68 0 00.24-.4h1.21l.08 15.42h-1.69a19.3 19.3 0 00-5-9.16c-3.86-4-9-6.43-13.82-6.43-9.88 0-14.22 7.47-14.22 24.18 0 7.87 1.69 14.78 4.5 18.16 1.77 2.17 5.62 3.69 9.48 3.69a20.48 20.48 0 0019.76-16.15zM271.51 50.15V17.86h-4.98v-.97h19.28v.97h-4.98v32.29h4.98v.96h-19.28v-.96h4.98zM331.27 16.89l.24 10.68h-1.2a10.16 10.16 0 00-2.89-6.67c-2.09-2.25-4.42-3.05-8.92-3.05h-2.25v32.3h5.46v1h-20.32v-1h5.46V17.86H305c-7.47 0-12 3.61-12.21 9.72h-1.28l.4-10.68zM341.07 50.15V17.86h-4.98v-.97h19.28v.97h-4.98v32.29h4.98v.96h-19.28v-.96h4.98zM398.85 39.38l-.64 11.73h-37v-.8l26.11-32.45H376.6c-4.26 0-7.15 1-9.32 3.29-1.77 1.69-2.41 3.13-2.73 6.43h-1.28l.88-10.68h34.3v.72l-26.19 32.53h9.48c6.1 0 10.2-1.12 12.77-3.37 1.85-1.69 2.57-3.29 3.13-7.39zM442 51.11h-37.31v-1h4.9V17.86h-4.9v-1h35.59l.16 9.72h-1.21c-.24-5.46-4.34-8.76-10.84-8.76H419v14.7h2.73c6.59 0 8.51-1.45 8.51-6.59v-.24h1.21v15.46h-1.12v-.32a6.63 6.63 0 00-2.57-5.62c-1.37-1.12-3.29-1.61-6-1.61H419v16.55h9c6 0 9.24-1.12 11.17-3.78a9.34 9.34 0 001.69-5.46v-.8H442v11zM483.9 51.76l-30.28-29.65v23.22c0 3.94.8 4.82 4.34 4.82h1v1h-12v-1h1c3.21 0 4.18-1.12 4.18-4.82V20.75l-2.57-2.89h-2.65v-1h12.93l24.5 23.46-.08-15.26-.08-2.89c0-3.61-.72-4.34-4.25-4.34h-.89v-1h11.33v1h-.64c-3.37 0-4 .88-4 6.27v27.66zM522.22 16.81v11H521a15.49 15.49 0 00-5.14-8.11 13.07 13.07 0 00-8.27-2.65c-5.06 0-8.84 2.57-8.84 5.94 0 3 2.49 4.5 9.08 5.62l1.93.32c2.33.32 3.78.64 4.5.72a20.23 20.23 0 014.42 1.35 11.49 11.49 0 014.18 2.81 10.23 10.23 0 012.14 6.54c0 6.75-6.11 11.57-14.62 11.57-3.21 0-5.14-.32-10-1.85l-1-.32-2.09-.8a1.15 1.15 0 00-.56-.16 1.6 1.6 0 00-1.45.88l-.24.56c-.16.24-.16.4-.24.48a1.63 1.63 0 00-.08.4h-1l-.32-12.93h1.21a16.65 16.65 0 005.14 8.59 15.71 15.71 0 0010.6 4.1c5.14 0 9-2.81 9-6.59a5.18 5.18 0 00-2.73-4.66 22.77 22.77 0 00-6.51-1.93l-3.7-.72c-6.42-1.37-7.23-1.61-9.16-3a7.63 7.63 0 01-2.33-2.49 9.5 9.5 0 01-1.53-5.3c0-5.94 5.78-10.2 13.66-10.2a24.18 24.18 0 019.4 2 9.12 9.12 0 003.05.8c1.12 0 1.45-.48 1.53-2zM200.1 77.22a22.25 22.25 0 016.43 1.28c2.65 1.13 4.5 3.37 4.5 5.78 0 4.74-5.46 7.47-15.26 7.47h-14.7V91H185V65.57h-3.94v-.8h9.88l3.38-.08h.4c9.24 0 14.46 2.41 14.46 6.43 0 2.33-1.85 4.26-5.14 5.3a25.47 25.47 0 01-3.93.8zm-8-11.65v11.57h2.57c5 0 7.31-1.77 7.31-5.46 0-4.26-2.33-6.11-7.55-6.11zm0 12.29V91h2.57c5.7 0 8.44-2.09 8.44-6.43A6.58 6.58 0 00201.7 80c-1.45-1.69-3.05-2.17-7.07-2.17zM243.87 71.44v.64h-.24c-1.93.08-2.33.72-2.33 3.37v8c0 3.7-.64 5.54-2.41 6.91s-4 2-7.31 2a14.14 14.14 0 01-4.74-.64 9.4 9.4 0 01-4.1-2.17 6.87 6.87 0 01-1.69-5.06V72.08h-2.89v-.64h11.49v.64h-2.89v11.81c0 3.37.16 4.1 1.13 5.22a6.5 6.5 0 005.22 2c2.89 0 5.3-1 6.35-2.65.8-1.21 1-2.25 1-5.22v-8c0-2.49-.56-3.21-2.73-3.21H237v-.56zM267.73 71.44v6.51h-.8a8.78 8.78 0 00-3-4.82 7.5 7.5 0 00-4.9-1.61c-3 0-5.22 1.53-5.22 3.53 0 1.77 1.45 2.65 5.38 3.37l1.12.16A23.69 23.69 0 00263 79a14 14 0 012.57.88 6.68 6.68 0 012.49 1.61 6.18 6.18 0 011.28 3.86c0 4-3.61 6.91-8.67 6.91a17.42 17.42 0 01-5.87-1.12l-.64-.24-1.16-.51h-.4a.89.89 0 00-.8.48l-.16.32c-.08.16-.16.24-.16.32a.35.35 0 00-.08.24h-.64l-.14-7.75h.72a9.51 9.51 0 003.05 5.06 9 9 0 006.27 2.49c3 0 5.3-1.69 5.3-3.94a3 3 0 00-1.61-2.73 14.58 14.58 0 00-3.86-1.2l-2.17-.4c-3.78-.8-4.26-1-5.38-1.77a5 5 0 01-1.45-1.45 5.94 5.94 0 01-.88-3.13c0-3.53 3.45-6 8.11-6a15.14 15.14 0 015.54 1.12 5.13 5.13 0 001.77.48c.64 0 .88-.24 1-1.13zM281.23 91.12V72.08h-2.97v-.64h11.4v.64h-2.97v19.04h2.97v.64h-11.4v-.64h2.97zM320.91 92.08l-17.83-17.51V88.3c0 2.33.48 2.81 2.57 2.81h.56v.64h-7.07v-.64h.64c1.85 0 2.41-.64 2.41-2.81V73.68l-1.53-1.61h-1.53v-.64h7.63l14.46 13.9v-9l-.08-1.77c0-2.09-.48-2.49-2.57-2.49h-.48v-.64h6.67v.64h-.32c-2.09 0-2.41.48-2.41 3.7v16.3zM355.53 91.76h-22v-.64h2.89v-19h-2.89v-.64h21l.16 5.79h-.72c-.16-3.21-2.57-5.14-6.43-5.14H342v8.67h1.61c3.86 0 5-.88 5-3.93v-.16h.8v9.16h-.72v-.16a4 4 0 00-1.45-3.29 5.39 5.39 0 00-3.62-1H342v9.8h5.3c3.54 0 5.46-.64 6.59-2.25a5.49 5.49 0 001-3.21v-.24l-.08-.24h.72v6.59zM382.95 71.44v6.51h-.72a9.26 9.26 0 00-3-4.82 7.73 7.73 0 00-5-1.61c-2.81 0-5.06 1.53-5.06 3.53 0 1.77 1.45 2.65 5.22 3.37l1.12.16a24.18 24.18 0 002.73.4 14 14 0 012.57.88 6.69 6.69 0 012.49 1.61 6.2 6.2 0 011.29 3.86c0 4-3.62 6.91-8.68 6.91a16.7 16.7 0 01-5.78-1.12l-.64-.24-1.21-.48H368a1 1 0 00-.88.48l-.08.32c-.08.16-.16.24-.16.32a.35.35 0 00-.08.24h-.64L366 84h.72a9 9 0 003.05 5.06A8.82 8.82 0 00376 91.6c3 0 5.3-1.69 5.3-3.94a3.11 3.11 0 00-1.61-2.73 15.69 15.69 0 00-3.85-1.2l-2.17-.4c-3.78-.8-4.26-1-5.38-1.77a4.68 4.68 0 01-1.37-1.45A5.92 5.92 0 01366 77c0-3.53 3.37-6 8-6a15.46 15.46 0 015.54 1.12 4.73 4.73 0 001.77.48c.64 0 .88-.24.88-1.13zM412.09 71.44v6.51h-.8a8.78 8.78 0 00-3-4.82 7.49 7.49 0 00-4.9-1.61c-3 0-5.22 1.53-5.22 3.53 0 1.77 1.45 2.65 5.38 3.37l1.12.16a23.72 23.72 0 002.65.4 17.33 17.33 0 012.65.88 7 7 0 012.41 1.61 6.2 6.2 0 011.29 3.86c0 4-3.61 6.91-8.6 6.91a17.46 17.46 0 01-5.94-1.12l-.56-.24-1.21-.48H397a.89.89 0 00-.8.48l-.16.32c-.08.16-.08.24-.16.32v.24h-.64L395 84h.72a9.6 9.6 0 003.13 5.06A8.68 8.68 0 00405 91.6c3.05 0 5.3-1.69 5.3-3.94a3 3 0 00-1.61-2.73 14.58 14.58 0 00-3.86-1.2l-2.17-.4c-3.78-.8-4.26-1-5.38-1.77a3.92 3.92 0 01-1.37-1.45A5.36 5.36 0 01395 77c0-3.53 3.45-6 8.11-6a15.14 15.14 0 015.54 1.12 5.11 5.11 0 001.77.48c.72 0 .88-.24 1-1.13zM453.62 77.22A21.75 21.75 0 01460 78.5c2.65 1.13 4.5 3.37 4.5 5.78 0 4.74-5.38 7.47-15.18 7.47h-14.7V91h3.85V65.57h-3.85v-.8h9.88l3.29-.08h.4c9.24 0 14.54 2.41 14.54 6.43 0 2.33-1.93 4.26-5.22 5.3a24.28 24.28 0 01-3.86.8zm-8-11.65v11.57h2.49c5 0 7.31-1.77 7.31-5.46 0-4.26-2.25-6.11-7.55-6.11zm0 12.29V91h2.57c5.7 0 8.36-2.09 8.36-6.43a6.55 6.55 0 00-1.37-4.5c-1.45-1.69-3.06-2.17-7.15-2.17zM480 71l9.56 20.16h2.33v.64h-11.28v-.64h2.89l-2.57-5.78H474l-1.53 3.37a4.32 4.32 0 00-.4 1.53c0 .64.72.88 2.17.88h.64v.64h-7.23v-.64h.88c1.44 0 2.33-.56 3-2.25l8-17.91zm-5.62 13.74h6.27l-3.13-7.31-3.13 7.31zM518.68 92.08l-17.83-17.51V88.3c0 2.33.48 2.81 2.57 2.81h.58v.64h-7.07v-.64h.64c1.93 0 2.49-.64 2.49-2.81V73.68l-1.61-1.61h-1.53v-.64h7.63L519 85.33v-9l-.08-1.77c0-2.09-.4-2.49-2.49-2.49h-.56v-.64h6.75v.64h-.4c-2 0-2.41.48-2.41 3.7v16.3zM540.77 78.18l10.36 12.93h2.57v.64h-11.88v-.64h2.65l-7.63-9.88-.48.4v9.48h2.89v.64h-11.33v-.64h2.89v-19h-2.89v-.64h11.33v.64h-2.89v8.76l7.39-5.95c1.61-1.2 2.25-1.93 2.25-2.33s-.4-.48-1.37-.48h-1.28v-.64h9.32v.64h-.4a10.6 10.6 0 00-6.75 2.33l-4.74 3.78z"/><path class="cls-6" d="M136.56.3c15 0 27.08 9.52 27.08 21.37S150.93 43.39 136 43.39H89.49V.3zM136.3 50.82c15 0 27.08 9.6 27.08 21.37S151.27 93.9 136.3 93.9l-47.07.1V50.82zM44.93 43.55a3.63 3.63 0 000 7.27H82V94l-34.9-.1a46.81 46.81 0 110-93.61H82v43.26z"/><g class="cls-7"><g class="cls-7"><path class="cls-8" d="M5.09 112.31v-1.01h549.16v1.01"/></g></g><path class="cls-8" d="M89.35 127h1.33l5.11 11.89h-1.3l-1.72-4h-5.53l-1.74 4h-1.24zm3 6.81L90 128.32l-2.34 5.47zM112.24 127h6v1h-4.83v4.31h4.65v1.06h-4.65v5.45h-1.19zM125 127h1.14v2H125zm0 3.09h1.14v8.8H125zM133.82 130.06H135v1.14a3.44 3.44 0 012.71-1.35 3.86 3.86 0 013.07 1.44 4.3 4.3 0 01.82 2.75v4.83h-1.14V134a3.32 3.32 0 00-.64-2.17 2.75 2.75 0 00-2.11-1 2.72 2.72 0 00-2.21 1.17 3.15 3.15 0 00-.5 2v4.83h-1.21zM156.76 137.32a4.08 4.08 0 01-3.46 1.76 4.67 4.67 0 01-4.74-4.63 4.62 4.62 0 014.74-4.6 4.09 4.09 0 013.46 1.77v-1.56h1.14v8.8h-1.14zm-3.48.75a3.6 3.6 0 000-7.21 3.6 3.6 0 000 7.21zM165.56 130.06h1.14v1.14a3.44 3.44 0 012.71-1.35 3.86 3.86 0 013.07 1.44 4.3 4.3 0 01.82 2.75v4.83h-1.14V134a3.32 3.32 0 00-.64-2.17 2.75 2.75 0 00-2.11-1 2.72 2.72 0 00-2.16 1.12 3.15 3.15 0 00-.48 2.06v4.83h-1.21zM189.43 136.29a4.59 4.59 0 01-1.81 2.08 4.54 4.54 0 01-2.48.71 4.61 4.61 0 114.29-6.35h-1.33a3.56 3.56 0 100 3.57zM196.39 127h1.14v2h-1.14zm0 3.09h1.14v8.8h-1.14zM212.79 137.32a4.08 4.08 0 01-3.46 1.76 4.67 4.67 0 01-4.74-4.63 4.62 4.62 0 014.74-4.6 4.09 4.09 0 013.46 1.77v-1.56h1.14v8.8h-1.14zm-3.48.75a3.6 3.6 0 000-7.21 3.6 3.6 0 000 7.21zM221.59 127h1.14v11.89h-1.14zM240.52 135.53a2.84 2.84 0 00.55 1.6 2.51 2.51 0 001.9.89 2.42 2.42 0 002.41-2.38 2.24 2.24 0 00-.82-1.7 4 4 0 00-1.85-.8 4.28 4.28 0 01-2.25-1 2.94 2.94 0 01-.83-2.13 3.33 3.33 0 016.65 0H245a2.17 2.17 0 00-2.16-2.15 2.06 2.06 0 00-2.06 2.09 1.9 1.9 0 00.57 1.37 4.93 4.93 0 001.77.75 4.83 4.83 0 012.22 1 3.38 3.38 0 011.19 2.59 3.58 3.58 0 01-3.64 3.5 3.54 3.54 0 01-3.69-3.55zM257.79 138.06a3.46 3.46 0 003.11-2.08h1.24a4.66 4.66 0 01-4.31 3.09 4.61 4.61 0 114-6.89 5.19 5.19 0 01.62 2.68h-8a3.45 3.45 0 003.34 3.2zm3.41-4.21a3.54 3.54 0 00-3.39-3 3.5 3.5 0 00-3.37 3zM269.5 130.06h1.14v1.26a2.65 2.65 0 012.56-1.47V131a2.5 2.5 0 00-1.6.6 2.36 2.36 0 00-.91 2.09v5.13h-1.19zM279.21 130.06h1.21l3.09 7.4 3.16-7.4h1.21l-3.71 8.8h-1.24zM294.36 127h1.14v2h-1.14zm0 3.09h1.14v8.8h-1.14zM311.68 136.29a4.59 4.59 0 01-1.81 2.08 4.54 4.54 0 01-2.48.71 4.61 4.61 0 114.29-6.35h-1.33a3.56 3.56 0 100 3.57zM322.63 138.06a3.45 3.45 0 003.11-2.08H327a4.66 4.66 0 01-4.31 3.09 4.61 4.61 0 114-6.89 5.2 5.2 0 01.62 2.68h-8a3.45 3.45 0 003.32 3.2zm3.41-4.21a3.54 3.54 0 00-3.39-3 3.5 3.5 0 00-3.37 3zM334.78 136.27a1.68 1.68 0 001.65 1.79 1.6 1.6 0 001.56-1.58c0-.8-.48-1.26-1.74-1.69a4.48 4.48 0 01-1.67-.83 2.13 2.13 0 01-.67-1.6 2.51 2.51 0 012.52-2.52 2.45 2.45 0 012.47 2.4h-1.21a1.34 1.34 0 00-1.31-1.38 1.39 1.39 0 00-1.33 1.31 1.31 1.31 0 00.53 1 3.35 3.35 0 001 .46c1.83.6 2.52 1.31 2.52 2.59a2.77 2.77 0 11-5.54 0zM367.31 135.74a6.26 6.26 0 01-5.48 3.34 6.16 6.16 0 113.85-11 5 5 0 011.58 1.9h-1.33a5 5 0 00-4.13-2.18 5.09 5.09 0 000 10.19 5.24 5.24 0 003-1 5.52 5.52 0 001.21-1.26zM378.3 129.85a4.61 4.61 0 11-4.6 4.56 4.66 4.66 0 014.6-4.56zm0 8.22a3.51 3.51 0 003.44-3.66 3.38 3.38 0 00-1-2.45 3.5 3.5 0 00-2.47-1.1 3.57 3.57 0 00-3.48 3.58 3.52 3.52 0 003.52 3.62zM390 130.06h1.14v1a2.56 2.56 0 012.36-1.24 3.74 3.74 0 012.11.67 3.52 3.52 0 01.92 1 3.24 3.24 0 013-1.69 3.64 3.64 0 012.75 1.37 3.77 3.77 0 01.78 2.43v5.22h-1.13v-5.11a2.94 2.94 0 00-.57-2 2.38 2.38 0 00-1.86-.94 2.46 2.46 0 00-2 1 3.15 3.15 0 00-.41 1.86v5.11h-1.14v-5.24a2.54 2.54 0 00-2.41-2.77 2.33 2.33 0 00-2 1.07 3.11 3.11 0 00-.39 1.7v5.24H390zM411.8 142h-1.19v-11.94h1.14v1.51a4.16 4.16 0 013.51-1.72 4.61 4.61 0 11-.07 9.23 3.94 3.94 0 01-3.39-1.72zm3.46-3.89a3.53 3.53 0 003.53-3.57 3.57 3.57 0 00-3.55-3.64 3.5 3.5 0 00-3.51 3.55 3.4 3.4 0 001.1 2.7 3.49 3.49 0 002.43.91zM434.64 137.32a4.08 4.08 0 01-3.46 1.76 4.67 4.67 0 01-4.74-4.63 4.62 4.62 0 014.74-4.6 4.09 4.09 0 013.46 1.77v-1.56h1.14v8.8h-1.14zm-3.48.75a3.6 3.6 0 000-7.21 3.6 3.6 0 000 7.21zM443.44 130.06h1.14v1.14a3.44 3.44 0 012.72-1.35 3.86 3.86 0 013.07 1.44 4.29 4.29 0 01.82 2.75v4.83H450V134a3.32 3.32 0 00-.64-2.17 2.75 2.75 0 00-2.11-1 2.72 2.72 0 00-2.16 1.12 3.14 3.14 0 00-.48 2.06v4.83h-1.21zM457.6 130.06h1.3l2.8 7 3-7h1.26L460.85 142h-1.26l1.44-3.37z"/></g></g></svg>