<svg xmlns="http://www.w3.org/2000/svg" xmlns:xlink="http://www.w3.org/1999/xlink" width="353" height="132"><defs><path id="a" d="M.58.11h182.374v101.83H.58z"/></defs><g fill="none" fill-rule="evenodd"><path fill="#1A1919" d="M85.432 24.805c6.791 0 12.316-5.525 12.316-12.315 0-6.792-5.525-12.317-12.316-12.317S73.117 5.698 73.117 12.49c0 6.79 5.524 12.315 12.315 12.315"/><g transform="translate(75 30)"><mask id="b" fill="#fff"><use xlink:href="#a"/></mask><path fill="#1A1919" mask="url(#b)" d="M.58 72.197h19.851V.11H.58zm170.058 5.172c-6.79 0-12.315 5.525-12.315 12.315 0 6.79 5.525 12.316 12.315 12.316 6.791 0 12.316-5.526 12.316-12.316 0-6.79-5.525-12.315-12.316-12.315"/></g><path fill="#1A1919" d="M235.639 102.197h19.851V30.11h-19.851zM55.523 75.648l-.628.805c-2.148 2.756-4.691 4.833-7.355 6.01-2.883 1.274-5.844 1.92-8.8 1.92-5.309 0-9.706-1.678-13.071-4.985-3.363-3.305-5.068-7.608-5.068-12.788 0-5.582 1.686-10.142 5.01-13.554 3.321-3.405 7.738-5.133 13.129-5.133 3.043 0 6.018.638 8.844 1.899 3.141 1.398 5.387 3.246 7.284 5.996l.655.947 10.871-16.569-.492-.445c-5.685-5.152-11.845-8.527-18.306-10.033-3.183-.741-6.824-1.116-10.821-1.116-10.493 0-19.341 3.614-26.299 10.74C3.525 46.466 0 55.518 0 66.245c0 10.729 3.518 19.749 10.456 26.812 6.943 7.064 15.798 10.647 26.319 10.647 4.281 0 7.804-.374 10.77-1.144 3.277-.852 11.662-3.654 18.719-11.281l.435-.47-11.176-15.161m48.222-45.538v17.722h18.897v54.365h19.915V47.832h18.807V30.11h-57.619m99.618 25.444c0 2.848-.842 4.872-2.574 6.192-1.771 1.349-4.626 2.033-8.484 2.033h-2.561V46.597h2.881c3.96 0 6.78.698 8.38 2.075 1.565 1.346 2.358 3.663 2.358 6.882zm5.387 18.222c4.738-1.215 8.444-3.5 11.028-6.803 2.777-3.551 4.185-8.178 4.185-13.749 0-7.952-2.438-13.868-7.246-17.584-4.745-3.669-13.021-5.53-24.595-5.53H169.83v72.087h19.914V76.848l14.955 25.349h23.522L208.75 73.776zm88.409 5.622l14.815 22.799h22.932L309.399 64.1l23.05-33.99h-22.988l-12.279 18.907-12.325-18.907h-22.988l23.05 33.99-25.507 38.097h22.933l14.814-22.799m46.653-33.347c-4.04 0-7.325-3.285-7.325-7.324 0-4.03 3.285-7.309 7.325-7.309 4.034 0 7.315 3.279 7.315 7.309 0 4.039-3.281 7.324-7.315 7.324zm0-16.091c-4.843 0-8.784 3.933-8.784 8.767 0 4.843 3.941 8.783 8.784 8.783 4.834 0 8.767-3.94 8.767-8.783 0-4.834-3.933-8.767-8.767-8.767z"/><path fill="#1A1919" d="M346.36 36.672c0 1.026-.568 1.484-1.843 1.484h-2.68v-2.969h2.68c1.275 0 1.843.458 1.843 1.485zm1.549 0c0-2.501-2-2.874-3.192-2.874h-4.43v9.76h1.55v-4.013h2.186l2.506 3.943.045.07h1.87l-2.631-4.136c1.817-.401 2.096-1.882 2.096-2.75z"/></g></svg>