<svg xmlns="http://www.w3.org/2000/svg" width="136" height="100" viewBox="0 0 136 100">
  <g fill="none" fill-rule="evenodd" transform="matrix(1 0 0 -1 -.62 100.6)">
    <path fill="#CFB87C" d="M63.125,97.275 L62.0675,96.9175 C50.71,93.315 45.315,86.3775 44.07625,84.59125 C43.65,84.16625 40.56625,78.89125 39.11875,77.4525 C35.55125,77.0025 26.1975,74.58875 21.69375,69.25125 C19.1325,69.345 15.06375,69.28125 15.01875,69.28 C13.35,69.15875 11.9175,68.095 11.37,66.5725 C11.26375,66.27875 11.1375,65.8 11.1375,65.2125 C11.1375,64.25 11.4775,62.98375 12.80375,61.72 C13.63875,60.92125 14.99375,60.045 16.4375,59.2925 C15.85,57.13625 15.51375,54.2375 15.51375,51.58375 C15.51375,50.41375 15.58625,49.31125 15.72125,48.32625 C15.075,48.0125 14.4525,47.67875 14.04,47.4025 C13.03125,46.72 10.93375,44.9 9.46875,42.4025 C8.5375,40.8125 8.10125,39.58375 7.9725,36.52125 C7.9525,35.99875 7.88375,34.41125 7.52375,33.78375 C7.08625,33.02375 5.6275,30.9425 4.84375,29.82375 L4.0075,28.615 C3.43125,27.74625 3.06875,26.55625 2.61875,24.975 L2.445,24.3925 C2.30375,23.96 1.78125,22.75125 1.58125,22.42375 C0.925,21.42875 0.68875,20.28 0.68875,19.095 C0.68875,17.875 0.935,16.61625 1.22625,15.44 C1.9825,12.37875 5.04375,7.515 7.6275,3.62 L7.975,3.095 L7.90125,3.21875 C8.58875,1.97125 9.5425,1.19125 10.74,0.89875 C12.525,0.46625 13.83375,1.34625 14.4625,1.7675 L14.775,1.97375 C16.87,3.26 18,5.01875 18.67125,6.06875 C18.67125,6.06875 18.76,6.2025 18.84,6.32375 C19.105,6.51875 19.5425,6.8425 19.5425,6.8425 C20.8425,7.7825 21.665,8.39125 22.2175,9.0625 C24.3425,11.64125 25.37625,15.53375 25.53,17.38 L25.6725,18.91 C26.0475,22.79875 26.175,24.4225 26.175,25.3075 C26.175,25.635 26.1575,25.85875 26.1275,26.0625 C26.1275,26.055 26.1525,25.71875 26.1525,25.71875 C26.17,26.0825 26.37875,26.9975 26.565,27.53625 C27.70875,27.25375 29.18625,26.6925 29.64875,26.425 C31.0625,25.5925 35.0075,23.66375 41.005,23.69125 C47.5925,23.725 51.17625,24.61375 52.1175,24.88375 C53.4775,25.27625 56.00625,26.1 57.0175,26.63625 L56.93,26.5925 L57.11125,26.67125 C57.80625,26.9775 58.80375,27.44125 59.71125,28.13625 C63.145,28.25 65.74375,28.25 67.66,28.185 C66.50375,26.92375 65.3925,25.30625 64.69875,23.27125 C63.9775,21.16375 63.5075,18.27875 63.29375,14.6975 C63.2,13.115 63.14,11.93375 63.14,11.02 C63.14,8.97125 63.44375,8.2775 64.36125,7.43375 L65.68125,6.22 L73.1575,7.5075 C73.15125,7.5075 72.99375,7.47875 72.99375,7.47875 L74.05875,7.4975 L76.625,7.6025 C78.2175,7.80625 80.53375,8.395 82.26375,9.4425 C84.1375,10.58 85.82875,12.6525 86.21875,13.14375 C86.6575,13.595 88.45875,14.94625 89.11,15.39375 C89.1825,15.425 89.89125,15.7675 89.89125,15.7675 L92.0825,16.93125 C92.1225,16.9575 96.045,19.8175 97.53125,21.425 C98.00125,21.93875 98.66125,22.7125 99.32125,23.51125 C99.69125,23.065 100.07375,22.63 100.45875,22.20375 L100.74625,21.88625 C102.4075,20 104.51625,19.84625 105.82375,20.28875 L106.12875,20.3925 L106.41125,20.5475 C107.49625,21.14375 109.995,22.53375 110.9625,23.185 C111.17,23.275 111.7225,23.39125 111.97875,23.40625 L111.98375,23.40625 C113.53875,23.40625 115.0275,24.32375 115.81,25.11375 C115.745,25.05 115.99125,25.27625 115.99125,25.27625 C120.54875,29.48 128.71375,37.305 132.20125,42.5 C133.8275,44.92125 134.875,46.91875 135.41125,49.96375 C136.20125,54.43125 136.1275,55.55 135.68875,59.57 L135.60375,60.36125 C134.88,67.045 128.4875,74.5425 127.4225,75.405 L127.22625,75.57125 C125.98,76.64125 122.6725,79.48 116.10875,81.55875 C112.97375,82.55375 109.09125,82.74 107.32375,82.68625 C107.30125,82.69625 107.28625,82.7025 107.265,82.715 C106.9725,83.09 106.34125,83.945 106.00125,84.51875 C104.305,87.35625 101.44625,90.26 97.5025,93.15125 L97.4025,93.22625 C97.40125,93.22625 97.23625,93.3525 97.23625,93.3525 C95.97,94.3225 92.11625,97.2725 84.2725,98.8275 C73.66625,100.93 66.80875,98.5525 63.125,97.275 Z M76.2385,96.0094 L76.24445,96.00877 C78.42345,96.00157 80.85945,95.78557 83.56845,95.24897 C91.11745,93.75277 94.38645,90.91607 95.24445,90.28607 C96.09845,89.65737 100.61445,86.42637 102.86345,82.64837 C103.41215,81.73087 104.5,80.28817 104.80875,79.97067 C105.12005,79.65567 106.4523,78.93911 107.06855,79.02536 C107.61355,79.1054 111.90675,79.0645 115.00795,78.082 C121.46775,76.0357 124.3462,73.1983 125.12495,72.5683 C125.90115,71.9383 131.3983,65.3071 131.97455,59.9683 C132.44205,55.6358 132.5958,55.006 131.8183,50.5972 C131.382,48.1297 130.5355,46.5627 129.1718,44.5327 C125.0458,38.3907 113.45055,27.9162 113.2168,27.6787 C112.9831,27.44495 112.3626,27.04979 111.8926,27.04979 C111.4276,27.04979 109.7892,26.81518 109.0117,26.26268 C108.2342,25.71018 104.6543,23.74118 104.6543,23.74118 C104.6543,23.74118 104.11005,23.58462 103.4863,24.29587 C102.8638,25.00217 101.07425,26.81517 100.6855,28.15137 C100.5442,28.63637 99.5183,29.88661 98.5058,28.39161 C97.9108,27.50791 95.9384,25.08261 94.8496,23.90141 C93.7583,22.72141 90.4878,20.28021 89.9453,19.88771 C89.4003,19.49401 87.61075,18.78281 87.1445,18.46781 C86.6757,18.15161 83.9512,16.18246 83.4062,15.47371 C82.8612,14.76621 81.536,13.27036 80.371,12.56161 C79.2023,11.85285 77.4129,11.37996 76.1679,11.22371 C74.9204,11.066213 73.0534,11.22301 72.3534,11.06551 C71.6534,10.90801 66.828,10.1202 66.828,10.1202 C66.828,10.1202 66.7915,17.7192 68.1503,22.0892 C69.2078,25.4917 71.2218,27.3844 73.3593,28.4232 L83.9043,28.4232 L91.1152,35.388 L95.0507,61.999 L97.9706,61.999 L99.1073,69.6845 L86.5253,69.6845 L81.787,37.6515 L63.185,37.6515 L64.185,44.4191 L71.976,44.4191 L79.4487,51.4816 L80.9975,61.9606 L71.5327,61.9606 L70.2964,53.6012 L65.5425,53.6012 L67.9077,69.5872 L55.2727,69.5872 L54.1457,61.9876 L57.0324,61.9876 L55.7922,53.6009 L48.6125,53.6009 L52.1047,77.1929 L73.8547,77.1929 L72.7258,69.5581 L82.1184,69.5581 L83.5227,79.0269 L78.2415,86.3023 L50.4875,86.3023 C53.0865,88.6661 57.2,91.5459 63.1675,93.4371 C65.4795,94.1712 69.7005,96.0308 76.2385,96.0094 Z M41.9455,74.9044 L41.94577,74.90343 L38.49267,51.55143 L44.43217,44.41863 L54.43817,44.41863 L53.11617,35.47463 L56.85117,30.59363 C56.20114,30.23238 55.50942,29.96746 55.30817,29.86121 C54.76197,29.57241 52.74007,28.86366 51.10507,28.39241 C49.71517,27.98994 46.27857,27.36596 40.98607,27.33971 C36.55107,27.31841 33.28197,28.51961 31.49197,29.57211 C30.56577,30.11091 27.83247,31.14816 26.14627,31.33191 C25.51877,31.39941 24.27797,30.59621 23.65797,29.86121 C23.03295,29.12371 22.41037,26.29026 22.51537,25.55651 C22.61912,24.81901 21.99607,18.94151 21.89232,17.68151 C21.78732,16.42021 20.95762,13.27071 19.40012,11.38071 C18.95382,10.84071 16.90807,9.48911 16.28682,8.96661 C15.66432,8.44161 14.91302,6.34061 12.86302,5.08181 C11.90424,4.48931 11.61807,4.03134 11.09932,4.97634 C10.87302,5.38534 5.59797,12.95684 4.76922,16.31434 C4.50422,17.38064 4.01516,19.49294 4.63641,20.43544 C5.02393,21.02164 5.70041,22.61344 5.90791,23.24594 C6.11793,23.87464 6.63426,25.97459 7.05051,26.60334 C7.46551,27.23584 9.95706,30.69824 10.68331,31.96074 C11.40956,33.21824 11.55565,34.89644 11.6169,36.36894 C11.7194,38.86524 11.99565,39.49394 12.6169,40.55644 C13.7532,42.49644 15.45605,43.95674 16.0798,44.37674 C16.701,44.79671 18.31055,45.55859 19.0368,45.76734 C19.54555,45.91604 19.73782,47.13349 19.60907,47.49974 C18.68659,50.10514 19.28969,57.68424 20.43719,59.68174 C20.76969,60.25304 20.88516,61.33544 20.23016,61.57044 C18.37516,62.23294 16.22946,63.49394 15.32196,64.36144 C14.28821,65.3439 15.00915,65.61874 15.2829,65.63874 C15.5554,65.65749 21.69645,65.65202 22.1227,65.62702 C22.609,65.59702 23.4925,65.71725 23.7575,66.086 C27.8895,71.7935 38.7693,74.39565 41.9455,74.9044 Z"/>
    <path fill="#FFF" fill-rule="nonzero" d="M112.05,50.0875 C111.01375,48.51375 109.615,48.50875 109.615,48.50875 C106.44625,48.37125 106.30625,51.5375 106.30625,51.5375 C106.47125,58.375 114.2175,62.60625 116.90375,64.00375 C116.90375,64.00375 117.905,64.57625 117.405,63.70375 C114.81875,59.2 113.64125,55.85875 113.3025,54.2875 C113.3025,54.2875 112.6925,51.07 112.05,50.0875"/>
    <path fill="#FFF" fill-rule="nonzero" d="M112.05,50.0875 C111.01375,48.51375 109.615,48.50875 109.615,48.50875 C106.44625,48.37125 106.3075,51.5375 106.3075,51.5375 C106.47125,58.375 114.21875,62.60625 116.90375,64.00375 C116.90375,64.00375 117.905,64.57625 117.405,63.70375 C114.81875,59.2 113.64,55.85875 113.30125,54.2875 C113.30125,54.2875 112.6925,51.07 112.05,50.0875"/>
  </g>
</svg>
