<svg id="Layer_1" xmlns="http://www.w3.org/2000/svg" viewBox="0 0 324 391.3" enable-background="new 0 0 324 391.3"><style>.st4{fill:#fefefe}</style><g id="_x31_5.5-Trial-_x26_-free-services_4_"><g transform="translate(-228)" id="Community-Edition-Copy-5_4_"><g id="Icon-::-OFF_3_" transform="translate(228)"><g id="Group-3_4_" transform="translate(0 .068)"><defs><filter id="Adobe_OpacityMaskFilter" filterUnits="userSpaceOnUse" x="0" y="-.1" width="324" height="391.3"><feColorMatrix values="1 0 0 0 0 0 1 0 0 0 0 0 1 0 0 0 0 0 1 0"/></filter></defs><mask maskUnits="userSpaceOnUse" x="0" y="-.1" width="324" height="391.3" id="mask-2_2_"><g filter="url(#Adobe_OpacityMaskFilter)"><path id="path-1_2_" fill="#fff" d="M0-.1h324v391.3H0z"/></g></mask><path id="Fill-1_4_" d="M162-.1c105.5 0 158.5 57.2 158.5 57.2s6.1 42.4 2.2 127.7C316.9 313.8 162 391.2 162 391.2S7.1 313.8 1.3 184.9C-2.6 99.5 3.5 57.2 3.5 57.2S56.5-.1 162-.1" mask="url(#mask-2_2_)" fill="#9abfdf"/></g><path id="Fill-4_4_" d="M150.7 248L74.6 73.9.1 145.6c.1 2.4 1.2 36.8 1.1 39.3C1 293.7 134.7 375.3 134.7 375.3l74.9-60.2-58.9-67.1z" fill="#6ca3cf"/><path id="Fill-6_4_" class="st4" d="M145.7 133.5c9.5-8.6 15.5-21 15.5-34.8 0-25.9-21-46.8-46.8-46.8-25.9 0-46.8 21-46.8 46.8 0 13.8 6 26.2 15.5 34.8-24.2 11.7-41 36.4-41 65.1 0 14.2 4.1 27.4 11.2 38.5 19.1 5.4 39.7 8.4 61.1 8.4s42-3 61.1-8.4c7.1-11.2 11.2-24.3 11.2-38.5-.1-28.7-16.8-53.4-41-65.1"/><path id="Fill-8_4_" class="st4" d="M233 132.6c7.2-6.5 11.7-15.8 11.7-26.2 0-19.5-15.8-35.2-35.2-35.2-19.5 0-35.2 15.8-35.2 35.2 0 10.4 4.5 19.7 11.7 26.2-5.4 2.6-10.1 6.1-14.3 10.2 14.7 13.2 23.9 32.3 23.9 53.6 0 6.8-1 13.4-2.8 19.6 5.5.5 11.1.9 16.8.9 16.1 0 31.6-2.3 46-6.3 5.3-8.4 8.4-18.3 8.4-29-.2-21.6-12.8-40.2-31-49"/><path id="Fill-10_4_" d="M144.9 243.5c-3.8.7-7.9.9-7.9.9-2-7.6-4.2-52.8.1-67.7.3-1.2 1-2.2 1.8-3.1 1-1 26-25.5 70.8-25.5 1.9 0 45.6.3 70.8 25.5 2.8 2.8 2.8 7.4 0 10.2-2.8 2.8-7.4 2.8-10.2 0-21-21-60.2-21.3-60.6-21.3-33.3 0-53.8 15.5-59.2 20-2.5 12.6-1.4 47.1-.7 60 .2 4-1.1-.1-5.1.1-.2 0 .3.9.2.9" fill="#9abfdf"/><path id="Fill-12_4_" d="M258.7 190.9l7.3 48.3-19.4 46.9-33.5 11.4-16.1-11.4-36.4-36.9-11.9-58.3s20.8-18.1 22.8-19.4c2-1.3 71.8-6 71.8-6l15.4 25.4z" fill="#f7fafc"/><path id="Fill-14_4_" d="M240.2 261.1c-7.9-.7-16-2.9-19.8-5.1 9.6-6.1 22-18 22-32.5 0-18.1-14.7-32.8-32.8-32.8-18.1 0-32.8 15.1-32.8 33.8 0 15.5 8.2 27.7 24.5 36.2 10.6 5.6 26.5 9.7 43.2 11.8-2.8 4.1-10.2 11.2-14.5 13.6-20-3.3-37.6-10.2-49.7-20.6-12.9-11.1-19.7-25.6-19.7-42 0-27 22-49.1 49.1-49.1 27 0 49.1 22 49.1 49.1-.1 15-7.1 28.7-18.6 37.6m35.1-82.4s-22-23.4-65.7-23.4-65.7 23.4-65.7 23.4-2.5 17.3-.9 52.2c2.4 52.7 66.6 84.3 66.6 84.3s64.2-31.6 66.6-84.3c1.6-34.9-.9-52.2-.9-52.2" fill="#ed2e26"/></g></g></g></svg>