<svg xmlns="http://www.w3.org/2000/svg" width="177" height="54"><g fill="none" fill-rule="evenodd"><path fill="#00528A" fill-rule="nonzero" d="M50.083 28.033c-.515.266-1.134.5-1.861.712a29.87 29.87 0 01-2.431.555c-.903.162-1.837.247-2.813.247-2.085 0-4.013-.308-5.782-.936a11.963 11.963 0 01-4.571-2.836c-1.28-1.268-2.281-2.825-3.004-4.66-.732-1.84-1.093-3.932-1.093-6.278 0-2.348.361-4.443 1.093-6.283.723-1.832 1.739-3.388 3.045-4.658 1.304-1.272 2.87-2.238 4.69-2.902C39.18.333 41.185 0 43.375 0c1.739 0 3.331.185 4.767.556 1.441.375 2.714.825 3.82 1.351-.212.385-.38.912-.513 1.574-.13.662-.234 1.216-.315 1.656l-.237.085c-.263-.33-.634-.706-1.106-1.121a12.255 12.255 0 00-1.667-1.198 10.175 10.175 0 00-2.138-.98 8.455 8.455 0 00-2.611-.387c-1.561 0-3.005.258-4.336.784a9.316 9.316 0 00-3.486 2.42c-.986 1.099-1.76 2.479-2.312 4.147-.556 1.673-.834 3.657-.834 5.95s.278 4.273.834 5.949c.552 1.669 1.326 3.05 2.312 4.143a9.238 9.238 0 003.486 2.42c1.331.53 2.775.79 4.336.79.948 0 1.827-.126 2.63-.372a13.59 13.59 0 004.042-2.01c.54-.403.992-.75 1.361-1.056l.163.164-.356 2.442c-.238.22-.615.463-1.132.726m21.588-14.865c-.436-1.326-1.045-2.423-1.829-3.288a7.319 7.319 0 00-2.752-1.926c-1.054-.413-2.196-.62-3.427-.62-1.21 0-2.34.207-3.392.62a7.345 7.345 0 00-2.756 1.926c-.78.865-1.39 1.962-1.83 3.288-.439 1.324-.657 2.895-.657 4.714 0 1.817.218 3.387.657 4.716.44 1.324 1.05 2.42 1.83 3.283a7.286 7.286 0 002.756 1.925c1.053.417 2.182.623 3.392.623 1.231 0 2.373-.206 3.427-.623a7.26 7.26 0 002.752-1.925c.784-.862 1.393-1.959 1.83-3.283.438-1.329.66-2.9.66-4.716 0-1.82-.222-3.39-.66-4.714m-18.847-.265c.57-1.457 1.375-2.688 2.41-3.694 1.03-1.014 2.267-1.778 3.706-2.305 1.44-.522 3.014-.79 4.722-.79 1.732 0 3.316.268 4.755.79 1.44.527 2.676 1.291 3.707 2.305 1.033 1.006 1.839 2.237 2.41 3.694.574 1.458.861 3.115.861 4.98 0 1.859-.287 3.523-.86 4.978-.572 1.457-1.378 2.688-2.411 3.694-1.031 1.01-2.267 1.758-3.707 2.256-1.44.49-3.023.736-4.755.736-1.708 0-3.282-.246-4.722-.736-1.44-.498-2.676-1.245-3.707-2.256-1.034-1.006-1.84-2.237-2.41-3.694-.576-1.455-.862-3.12-.862-4.979 0-1.864.286-3.52.863-4.979m34.427-1.157c.85-1.403 1.723-2.94 2.624-4.614.475.109.872.162 1.197.162.322 0 .718-.053 1.193-.162-1.226 1.72-2.43 3.403-3.614 5.057a96.247 96.247 0 00-3.418 5.122 306.515 306.515 0 007.483 12.236 6.333 6.333 0 00-.905-.068h-1.804c-.306 0-.604.024-.904.068-.857-1.589-1.714-3.2-2.562-4.847a53.7 53.7 0 00-2.92-4.939 93.666 93.666 0 00-3.067 4.94c-.942 1.645-1.869 3.257-2.771 4.846a3.172 3.172 0 00-.63-.068h-1.127c-.209 0-.416.024-.63.068a185.88 185.88 0 003.772-5.48 393.404 393.404 0 003.677-5.648 347.26 347.26 0 00-3.368-5.642 1329.947 1329.947 0 00-3.468-5.645c.298.043.591.08.872.113.276.034.566.05.869.05.298 0 .589-.016.87-.05.282-.033.57-.07.87-.113a70.65 70.65 0 002.292 4.324c.82 1.42 1.718 2.963 2.71 4.616.95-1.422 1.87-2.864 2.759-4.326"/><path fill="#A6A9AB" fill-rule="nonzero" d="M6.73 42.572c.612 0 1.25.01 1.91.028.662.026 1.3.035 1.913.035.661 0 1.321-.005 1.985-.012.658-.012 1.32-.032 1.983-.051l-3.931-8.504-3.86 8.504zm15.685 10.41a6.713 6.713 0 00-.939-.07h-1.875c-.296 0-.605.022-.937.07a36.072 36.072 0 00-.674-1.86 75.945 75.945 0 00-.94-2.278l-1.044-2.408c-.352-.815-.684-1.588-.99-2.326-.757-.022-1.525-.039-2.302-.048-.78-.014-1.558-.018-2.339-.018-.732 0-1.451.004-2.159.018-.708.009-1.428.026-2.16.048-.755 1.74-1.441 3.4-2.053 4.974-.615 1.571-1.076 2.87-1.383 3.897-.4-.047-.837-.068-1.308-.068-.474 0-.913.021-1.312.068a839.064 839.064 0 005.595-11.65c1.817-3.861 3.65-7.79 5.49-11.784h.672c1.281 2.927 2.568 5.852 3.86 8.774.681 1.53 1.366 3.058 2.054 4.585a523.96 523.96 0 003.56 7.73c.481 1.03.878 1.81 1.184 2.345v.001z"/><path fill="#A6A9AB" d="M35.644 37.639c-.017-1.414-.062-2.387-.132-2.92.195.036.379.068.558.097.178.028.355.038.536.038.23 0 .496-.042.8-.134a102.84 102.84 0 00-.16 2.298c-.055.89-.1 1.847-.134 2.865-.038 1.019-.073 2.067-.11 3.141a203.77 203.77 0 00-.077 3.126c-.018 1.232-.2 2.332-.547 3.307-.344.972-.84 1.799-1.481 2.475a6.124 6.124 0 01-2.363 1.545c-.93.35-2.001.524-3.211.524-2.669 0-4.607-.625-5.816-1.869-1.21-1.254-1.813-3.229-1.813-5.925 0-.865.022-1.632.067-2.301a31.36 31.36 0 00.065-2.054c0-1.541-.02-2.912-.055-4.103-.03-1.01-.064-2.02-.105-3.029.21.035.442.067.694.096.248.028.48.038.692.038.196 0 .388-.01.575-.038.185-.03.375-.061.572-.096a43.81 43.81 0 00-.103 1.582c-.036.652-.072 1.391-.108 2.218-.04.89-.066 1.78-.079 2.67-.02.956-.03 1.947-.03 2.976 0 .623.01 1.274.03 1.941.015.672.08 1.323.187 1.957.105.634.277 1.24.518 1.819.24.577.582 1.082 1.026 1.512.445.436 1.007.776 1.681 1.021.677.247 1.513.372 2.51.372.978 0 1.8-.146 2.466-.439.668-.296 1.215-.68 1.641-1.159a5.277 5.277 0 001-1.653c.24-.624.411-1.275.521-1.953.106-.681.169-1.36.186-2.04a68.11 68.11 0 00.028-1.873c0-2.611-.01-4.619-.028-6.033"/><path fill="#A6A9AB" fill-rule="nonzero" d="M44.633 36.03c-.478 0-.982.006-1.505.01-.526.015-1.053.029-1.577.058-.526.022-1.033.055-1.523.088a25.5 25.5 0 00-1.311.137c.091-.32.139-.606.139-.854 0-.194-.048-.47-.139-.827 1.217.035 2.404.066 3.566.092 1.162.03 2.35.041 3.566.041 1.217 0 2.405-.012 3.568-.041 1.188-.027 2.376-.058 3.564-.092-.09.357-.135.641-.135.854 0 .231.045.506.135.827a24.71 24.71 0 00-1.313-.137 55.96 55.96 0 00-1.518-.088c-.524-.029-1.05-.043-1.575-.058-.526-.004-1.028-.01-1.51-.01a187.505 187.505 0 00-.081 5.525v4.594c0 1.174.023 2.333.068 3.467.044 1.142.097 2.264.153 3.365a16.57 16.57 0 00-2.712 0c.058-1.101.11-2.223.154-3.365.047-1.134.07-2.293.07-3.467v-4.594c0-1.849-.028-3.691-.084-5.525m24.468 3.42c-.377-1.096-.908-2.002-1.59-2.714a6.371 6.371 0 00-2.393-1.593c-.916-.342-1.909-.512-2.983-.512-1.05 0-2.035.17-2.947.512-.91.341-1.73.886-2.397 1.593-.68.712-1.211 1.618-1.591 2.714-.381 1.094-.571 2.392-.571 3.895 0 1.501.19 2.798.57 3.898.38 1.091.912 1.999 1.592 2.71a6.365 6.365 0 002.397 1.591 8.325 8.325 0 002.947.515c1.074 0 2.067-.172 2.983-.515a6.37 6.37 0 002.393-1.591c.682-.711 1.213-1.619 1.59-2.71.382-1.1.573-2.397.573-3.898 0-1.503-.191-2.8-.573-3.895m-16.391-.219c.5-1.204 1.196-2.22 2.095-3.051.9-.838 1.974-1.47 3.223-1.904 1.254-.433 2.622-.653 4.107-.653 1.51 0 2.888.22 4.14.653 1.25.434 2.325 1.066 3.224 1.904.9.831 1.595 1.847 2.097 3.051.496 1.205.744 2.574.744 4.114 0 1.538-.248 2.911-.744 4.114-.502 1.202-1.197 2.22-2.097 3.051-.899.835-1.974 1.452-3.224 1.865-1.252.404-2.63.606-4.14.606-1.485 0-2.853-.202-4.107-.606-1.25-.413-2.323-1.03-3.223-1.865-.899-.831-1.596-1.849-2.095-3.051-.5-1.203-.748-2.576-.748-4.114 0-1.54.249-2.909.748-4.114m27.487 2.642a551.398 551.398 0 003.983 7.205c.178-.333.439-.806.781-1.426.34-.62.736-1.335 1.186-2.139.449-.8.932-1.667 1.446-2.606a554.998 554.998 0 013.142-5.673c.52-.923 1.006-1.79 1.456-2.592h.353c.196 1.676.381 3.299.552 4.86.17 1.564.346 3.1.527 4.611.18 1.513.358 3.005.539 4.483.176 1.473.38 2.938.593 4.385a3.988 3.988 0 00-.634-.054h-1.267c-.207 0-.42.02-.634.054-.19-2.253-.39-4.505-.598-6.756a171.69 171.69 0 00-.727-6.682h-.054a729.95 729.95 0 00-3.654 6.565 97.966 97.966 0 00-3.414 6.82h-.24a227.02 227.02 0 00-3.39-6.615 572.788 572.788 0 01-3.549-6.77h-.05c-.128 1.082-.268 2.256-.42 3.52-.29 2.407-.538 4.818-.746 7.233a35.27 35.27 0 00-.13 2.685 7.98 7.98 0 00-.944-.054c-.343 0-.66.02-.946.054.235-1.412.476-2.905.728-4.477.252-1.573.494-3.154.73-4.744.232-1.593.45-3.157.646-4.702.198-1.549.368-3.02.515-4.416h.458a248.75 248.75 0 003.762 7.231m32.721-2.423c-.384-1.096-.917-2.002-1.597-2.714a6.352 6.352 0 00-2.392-1.593c-.916-.342-1.908-.512-2.978-.512-1.055 0-2.038.17-2.952.512a6.39 6.39 0 00-2.397 1.593c-.679.712-1.209 1.618-1.591 2.714-.38 1.094-.571 2.392-.571 3.895 0 1.501.192 2.798.571 3.898.382 1.091.912 1.999 1.591 2.71A6.404 6.404 0 00103 51.544a8.338 8.338 0 002.952.515c1.07 0 2.062-.172 2.978-.515a6.35 6.35 0 002.392-1.591c.68-.711 1.213-1.619 1.597-2.71.378-1.1.57-2.397.57-3.898 0-1.503-.192-2.8-.57-3.895m-16.395-.219c.498-1.204 1.197-2.22 2.093-3.051.9-.838 1.975-1.47 3.227-1.904 1.251-.433 2.62-.653 4.108-.653 1.505 0 2.88.22 4.135.653 1.251.434 2.327 1.066 3.225 1.904.897.831 1.597 1.847 2.094 3.051.5 1.205.746 2.574.746 4.114 0 1.538-.246 2.911-.746 4.114-.497 1.202-1.197 2.22-2.094 3.051-.898.835-1.974 1.452-3.225 1.865-1.255.404-2.63.606-4.135.606-1.489 0-2.857-.202-4.108-.606-1.252-.413-2.326-1.03-3.227-1.865-.896-.831-1.595-1.849-2.093-3.051-.5-1.203-.75-2.576-.75-4.114 0-1.54.25-2.909.75-4.114m24.519-3.201c-.478 0-.977.006-1.502.01-.527.015-1.054.029-1.578.058-.527.022-1.032.055-1.52.088-.487.04-.926.085-1.31.137.087-.32.138-.606.138-.854 0-.194-.051-.47-.139-.827 1.215.035 2.404.066 3.566.092 1.157.03 2.345.041 3.561.041 1.22 0 2.409-.012 3.57-.041 1.19-.026 2.378-.057 3.567-.092-.092.357-.143.641-.143.854 0 .231.051.506.143.827-.39-.052-.827-.097-1.315-.137a56.474 56.474 0 00-1.522-.088c-.527-.029-1.05-.043-1.573-.058-.527-.004-1.027-.01-1.506-.01a176.526 176.526 0 00-.087 5.525v4.594c0 1.174.025 2.333.069 3.467.049 1.142.1 2.264.154 3.365a16.538 16.538 0 00-2.711 0c.056-1.101.107-2.223.156-3.365.043-1.134.069-2.293.069-3.467v-4.594c0-1.849-.028-3.691-.087-5.525m11.583 2.07c-.053-1.13-.106-2.283-.173-3.458.273.035.533.066.782.092.247.03.498.041.746.041.25 0 .499-.012.748-.041.25-.026.51-.057.78-.092-.06 1.152-.117 2.304-.168 3.457a67.397 67.397 0 00-.08 3.456v4.594c0 1.174.022 2.333.08 3.467.05 1.142.107 2.264.168 3.365a20.953 20.953 0 00-3.056 0c.067-1.101.12-2.223.173-3.365.053-1.134.08-2.293.08-3.467v-4.594a74.59 74.59 0 00-.08-3.456"/><path fill="#A6A9AB" d="M142.95 50.091c-.6-1.525-1.242-3.133-1.924-4.822-.68-1.69-1.383-3.417-2.1-5.18a871.282 871.282 0 00-2.058-5.012c.251.037.498.069.735.095.453.06.911.06 1.364 0 .238-.026.482-.058.735-.095.398 1.214.845 2.484 1.324 3.813.484 1.335.99 2.689 1.526 4.064a673.953 673.953 0 001.654 4.189c.564 1.413 1.135 2.82 1.715 4.212.328-.751.686-1.59 1.068-2.521a164.882 164.882 0 002.318-5.949c.383-1.036.75-2.032 1.107-2.985.352-.958.676-1.85.966-2.674.29-.827.536-1.542.738-2.15.4.093.735.14 1.01.14.273 0 .608-.047 1.007-.14a447.308 447.308 0 00-4.09 9.506 349.55 349.55 0 00-3.768 9.419 7.122 7.122 0 00-.9-.057c-.363 0-.663.02-.9.057a570.475 570.475 0 00-1.527-3.91"/><path fill="#A6A9AB" fill-rule="nonzero" d="M156.043 38.059c-.046-1.14-.098-2.278-.156-3.417.844.035 1.682.066 2.52.092.835.03 1.675.042 2.517.042.846 0 1.679-.013 2.505-.042.826-.026 1.662-.057 2.505-.092a3.947 3.947 0 000 1.6c-.599-.033-1.148-.07-1.645-.105-.525-.038-1.05-.074-1.574-.107a84.483 84.483 0 00-1.816-.092 56.074 56.074 0 00-2.368-.04c-.015.568-.04 1.11-.07 1.625a35.586 35.586 0 00-.04 1.766c0 .691.003 1.37.015 2.027.008.66.014 1.158.014 1.495a83.02 83.02 0 004.023-.096c.543-.023 1.048-.05 1.505-.077.461-.026.897-.059 1.31-.094-.056.267-.085.54-.085.826 0 .272.029.536.085.801a32.252 32.252 0 00-1.7-.132 47.088 47.088 0 00-1.946-.067c-.646-.01-1.255-.015-1.83-.026a86.423 86.423 0 00-1.362-.012c0 .16-.006.333-.014.518a11.73 11.73 0 00-.016.71v2.643c0 1.012.004 1.85.016 2.506.008.658.022 1.159.042 1.496h1.968c.716 0 1.415-.013 2.097-.038a49.335 49.335 0 001.942-.111 12.43 12.43 0 001.59-.197c-.038.125-.059.26-.073.414-.006.15-.01.289-.01.41 0 .29.028.52.083.696a59.228 59.228 0 00-2.517-.055h-5.108c-.846 0-1.697.02-2.563.055.06-1.139.108-2.274.156-3.401.048-1.152.072-2.305.072-3.458v-4.59c0-1.178-.024-2.334-.072-3.473zm15.27-2.996h-1.162v-.421h3.057v.421h-1.164v3.654h-.73l-.001-3.654zm4.436 1.902a19.83 19.83 0 01-.043-1.595h-.027a18.2 18.2 0 01-.32 1.416l-.49 1.91h-.3l-.469-1.831a19.397 19.397 0 01-.34-1.495h-.012c.01.474-.025 1.047-.049 1.628l-.08 1.719h-.411l.244-4.075h.5l.462 1.864c.146.536.245.936.33 1.41h.019c.07-.474.165-.863.296-1.41l.459-1.864h.513l.233 4.075h-.428l-.087-1.752z"/></g></svg>