<svg width="53" height="53" viewBox="0 0 53 53" xmlns="http://www.w3.org/2000/svg"><g fill="none" fill-rule="evenodd"><path fill="#FFF" d="M0 52.8h52.799V0H0z"/><path fill="#00053E" d="M1.275 51.525h50.25V1.275H1.275z"/><g fill="#FFF"><path d="M19.65 24.525V32.1c0 .975-.975 2.175-2.25 2.175h-6.525c-1.275 0-2.25-1.275-2.25-2.175V15.6c0-.975.975-2.175 2.25-2.1H17.4c1.275 0 2.25 1.2 2.25 2.1v7.5h-4.875v-7.875c0-.3-.3-.525-.525-.525-.3 0-.675.225-.675.525v17.55c0 .45.3.6.6.6s.525-.15.525-.6v-8.25h4.95zM25.8 24.525h.6c.375 0 .6.225.6.675v9.15h4.875v-8.175c0-.375-.075-2.025-2.1-2.325 1.5 0 2.1-1.725 2.1-2.475V15.6c0-.975-.974-2.175-2.25-2.1H20.85v20.85h4.95v-9.825m0-1.425v-8.475h.675c.225 0 .525.225.525.525v7.2c0 .3-.225.675-.675.675-.375.075-.525.075-.525.075"/></g><path fill="#FFF" d="M39.225 13.425v9.75h-1.2v-9.75h-4.95v20.85h4.95v-9.75h1.2v9.825h4.95V13.425z"/><path fill="#0072BC" d="M1.275 51.6h50.25v-2.55H1.275z"/></g></svg>