<svg xmlns="http://www.w3.org/2000/svg" xmlns:xlink="http://www.w3.org/1999/xlink" viewBox="-215 384.5 180.1 24.5"><path fill="#FFF" d="M-201.645 407.227h-11.875v-.875c3.375-.25 4.125-.5 4.125-2.75v-15.125c0-1.375-.5-1.625-2-1.625h-1.375c0-.375 0-.625.125-.75.375-.375 1.75-.5 4.25-.5h6.5c8.625 0 13 3.625 13 10.875-.125 7-4.5 10.75-12.75 10.75zm-4-20.125c-.125 0-.25.125-.25.25v16.125c0 2.125.875 2.5 3.875 2.5 4.5 0 9.125-1 9.125-8.875 0-6.375-3.375-10-9.5-10h-3.25M-162.895 407.227h-10.25v-.875c2.375-.125 3.25-.25 3.5-.625.125-.25.125-.625 0-.875l-2-4.875c0-.125-.125-.125-.125-.125h-8.25c-.125 0-.125 0-.25.125l-1.375 3.5c-.5 1.125-.625 1.75-.375 2.25.25.375.75.5 1.5.5h2.625c.125.375 0 .625-.125.875-.125.125-.25.25-.625.25h-9v-.875c2.375-.375 2.75-.625 3.625-2.625l6.375-15c1.125-2.5 1.375-2.875 2.75-2.875h1.125c.125.625.375 1.25.875 2.25l7.375 16.875c.375.875.875 1.25 2.5 1.25h.625c.125.375 0 .75-.125.875h-.375zm-13.125-17.375c-.125 0-.125 0-.125.125l-3.375 8.375v.25l.125.125h6.875c.125 0 .125 0 .125-.125v-.25l-3.5-8.375c.125-.125 0-.125-.125-.125M-150.02 407.227h-9.625v-.875c2.5-.375 3.25-.75 3.25-2.25v-15.375c0-1.375-.5-1.5-2-1.5h-1.375c0-.375 0-.625.125-.75.125-.25.5-.375 1.125-.375h9v.875c-2.75.25-3.25.875-3.25 2.375v15.25c0 1.375.5 1.5 1.875 1.5h1.625c.125.375.125.75 0 .875-.25.25-.375.25-.75.25M-129.02 407.352l-8.75-17.375c0-.125-.125-.125-.125-.125-.125 0-.125.125-.125.125l-1 14.375c0 .5-.125 1 .25 1.25.375.375 1.125.5 3.25.5h1.625c.125.375.125.75 0 .875s-.25.25-.625.25h-10.375v-.875c3.375-.25 3.875-.875 4-2.375l1.375-15c0-.375 0-.75-.25-1-.375-.375-1.125-.625-3.125-.625 0-.25 0-.5.125-.75s.5-.375 1.125-.375h6.375l8 15.25c0 .125.125.125.125.125.125 0 .125 0 .125-.125l7.375-15.25h7.25c.125.25.125.625 0 .875-1.75.125-2.5.375-2.875.75-.25.375-.25.75-.25 1l1.5 15.625c.125 1.125.75 1.25 3.125 1.625 0 .5 0 .75-.125.875s-.25.125-.625.125h-11.125c-.125-.25-.125-.625 0-.875l1.625-.125c1.5-.125 2.5-.25 2.875-.75.375-.375.375-1 .25-1.5l-1.5-14c0-.125-.125-.125-.125-.125-.125 0-.125 0-.125.125l-7.75 16.125c-.75 1.126-.875 1.376-1.5 1.376M-91.145 407.227h-15.25v-.875c2.875-.25 3.875-.625 3.875-2.875v-14.625c0-1.375-.625-1.5-2-1.5h-1.375c0-.375 0-.625.125-.75.125-.25.5-.375 1.125-.375h9.75v.875c-3.25.25-4 .5-4 2.75v14.125c0 1.375.875 1.5 1.625 1.5h2c2.5 0 2.875-.25 4.25-3.125l.875-1.875c.25 0 .625 0 .75.25.125.125.125.5 0 .875-.875 2.126-1.375 3.876-1.75 5.626M-68.645 407.227H-86.02c-.125-.25 0-.625 0-.875 3.375-.25 4-.5 4-2.75v-14.75c0-1.375-.5-1.5-1.875-1.5h-1.375c0-.375 0-.625.125-.75.125-.25.5-.25 1.125-.25h15.125c.125 1.25.25 2.75.5 4.125.125.5 0 .75-.125 1-.125.125-.375.25-.625.25h-.125l-.375-1.25c-.5-2-1.25-2.625-3.125-2.625h-5.125c-.125 0-.25.125-.25.25v8.25c0 .125.125.25.25.25h3.375c1.125 0 1.375-.375 1.5-1.375l.25-1.5h.25c.25 0 .5 0 .625.125s.125.375.125.875c-.125 2-.125 4.125 0 6.125h-.75c-.375-2.375-.875-2.875-1.875-2.875h-3.375c-.125 0-.25.125-.25.25v5.5c0 1.25.375 1.876 2.625 1.876h2.75c2.5 0 2.875-.25 4.25-3.125l.875-1.875c.25 0 .625 0 .75.25.125.125.125.5 0 .875-1 2-1.5 3.875-1.875 5.5M-39.77 407.727c-3 0-4.875-.75-7.125-2.625-1.25-1.125-2.25-2.375-3-3.625-.875-1.5-1-1.625-3-1.625h-2.125c-.125 0-.25.125-.25.25v4.75c0 1.125.5 1.5 2.125 1.5h1.5c0 .5 0 .75-.125.875s-.25.125-.625.125h-9.875v-.875c2.75-.25 3.5-.625 3.5-2.625v-14.75c0-1.375-.625-1.625-2-1.625h-1.375c-.125-.375 0-.5.125-.75s.5-.375 1.125-.375c1.5-.125 3.375-.125 7.875-.125 5.875 0 9.375 2.625 9.375 7.125 0 2.625-1.5 4.625-4.25 5.75-.125 0-.125.125-.125.125 0 .125 0 .125.125.125 0 0 2.375 2.25 3.625 3.25 4.125 3.375 5.625 3.75 8.375 3.75 0 .25 0 .5-.125.75-.5.376-1.75.625-3.75.625zm-15.25-20.25c-.125 0-.25.125-.25.25v10.5c0 .125.125.25.25.25h1.5c3 0 5.875-.375 5.875-5 0-4-2.125-5.875-6.375-5.875h-1"/><path fill="#00345E" d="M-211.52 387.102h-1.5c-.25-1.375-.125-1.625 4.5-1.625h6.5c9.25 0 13.25 4.125 13.25 11 0 6.625-3.75 11-13 11h-12c-.125-.375-.125-.875 0-1.25 3.375-.25 4-.375 4-2.625v-15.125c0-1.25-.25-1.374-1.75-1.374zm18.5 9.876c0-6.125-3.25-9.75-9.375-9.75h-3.25v16.125c0 2 .75 2.25 3.625 2.25 5.5.125 9-1.75 9-8.625M-173.27 385.602c.125.75.375 1.25.875 2.375l7.375 16.875c.375.875.75 1.125 2.375 1.125h.75c.25.875 0 1.5-.875 1.5h-10.375c-.125-.375-.125-.875 0-1.25 3.5-.125 3.875-.375 3.5-1.25l-2-4.875h-8.375l-1.375 3.5c-.75 1.875-.75 2.375 1 2.375h2.875c.25.875 0 1.5-.75 1.5h-9.25c-.125-.375-.125-.875 0-1.25 2.5-.375 2.75-.5 3.625-2.625l6.375-15c1-2.5 1.5-3 3-3h1.25zm.75 12.75l-3.5-8.375-3.375 8.375h6.875M-149.395 385.977c.125.25.125.875 0 1.25-2.75.25-3.25.75-3.25 2.125v15.25c0 1.125.375 1.375 1.625 1.375h1.75c.25.875.125 1.5-.875 1.5h-9.75c-.125-.375-.125-.875 0-1.25 2.5-.375 3.125-.75 3.125-2v-15.25c0-1.125-.25-1.375-1.75-1.375h-1.5c-.25-.875 0-1.5 1.375-1.5h9.25M-112.395 385.977c.125.375.125.875 0 1.25-3 .25-3.125.75-3.125 1.625l1.5 15.625c.125 1 .625 1.125 3.125 1.5.125.875 0 1.5-.875 1.5h-11.25c-.125-.375-.125-.875 0-1.25l1.75-.125c2.75-.125 3.125-.5 3-2.125l-1.5-14-7.75 16.25c-.625 1.125-.875 1.375-1.625 1.375l-8.875-17.5-1 14.375c-.125 1.25-.125 1.625 3.25 1.625h1.75c.25.875.125 1.5-.75 1.5h-10.5c-.125-.375-.125-.875 0-1.25 3.5-.25 3.875-.875 3.875-2.125l1.375-15c.125-1-.125-1.375-3.25-1.5-.25-.75 0-1.5 1.375-1.5h6.5l8 15.375 7.375-15.375h7.625M-94.77 385.977c.125.25.125.875 0 1.25-3.375.25-4 .5-4 2.625v14.125c0 1 .5 1.375 1.5 1.375h2c2.375 0 2.75-.125 4-3l.875-2c.875 0 1.375.375 1 1.375-.625 1.875-1.25 3.75-1.625 5.75h-15.625c-.125-.375-.125-.875 0-1.25 3.125-.25 3.875-.625 3.875-2.75v-14.625c0-1.125-.375-1.375-1.75-1.375h-1.5c-.25-.875 0-1.5 1.375-1.5h9.875"/><g transform="matrix(1.25 0 0 -1.25 -290.09 922.17)"><defs><path id="a" d="M43 406.7h178.4V434H43z"/></defs><clipPath id="b"><use xlink:href="#a" overflow="visible"/></clipPath><g clip-path="url(#b)" fill="#00345E"><path d="M177.1 428.9c.1-1.2.2-2.4.4-3.5.1-.8-.2-1.2-1-1.2l-.3 1.2c-.4 1.6-1 2-2.4 2h-4.1v-6.6h2.7c.8 0 .9.3 1 .9l.2 1.3h.3c.5 0 .8-.2.7-1-.1-1.6-.1-3.4 0-5-.2-.1-.6-.1-.9 0-.3 2-.7 2.2-1.3 2.2h-2.7v-4.5c0-.9.2-1.3 2-1.3h2.2c1.9 0 2.2.1 3.2 2.4l.7 1.6c.7 0 1.1-.3.8-1.1-.5-1.5-1-3-1.3-4.6h-14.1c-.1.3-.1.7 0 1 2.7.2 3.2.3 3.2 2.1v11.8c0 .9-.2 1.1-1.4 1.1h-1.2c-.1.7 0 1.2 1.1 1.2h12.2M183.4 427.8h-1.2c-.2.7 0 1.2 1 1.2 1.2.1 2.8.1 6.4.1 4.9 0 7.6-2.3 7.6-5.8 0-2.2-1.3-3.9-3.5-4.8 0 0 1.9-1.8 2.9-2.6 3.4-2.7 4.5-2.9 6.7-2.9.2-.9-.4-1.6-3.1-1.6-2.4 0-3.9.5-5.8 2.2-.8.7-1.8 1.8-2.4 2.9-.6 1.2-.7 1.2-2.3 1.2H188v-3.8c0-.7.2-1 1.6-1h1.3c.1-.7 0-1.2-.7-1.2h-8.1c-.1.3-.1.7 0 1 2.2.2 2.7.4 2.7 2v11.8c0 1.1-.3 1.3-1.4 1.3zm5.9-8.6c2.5 0 4.6.4 4.6 3.9s-2.1 4.5-4.9 4.5h-1v-8.4h1.3"/></g></g></svg>