<svg xmlns="http://www.w3.org/2000/svg" viewBox="0 0 258.7 86.4"><g fill="#FFF"><path d="M43.2 4.7C32.6 4.7 22.9 9 16 16 9 23 4.7 32.6 4.7 43.2 4.7 53.8 9 63.5 16 70.4c7 7 16.6 11.3 27.2 11.3 10.6 0 20.3-4.3 27.2-11.3 7-7 11.3-16.6 11.3-27.2 0-10.6-4.3-20.3-11.3-27.2C63.5 9 53.8 4.7 43.2 4.7M43.2 0c23.9 0 43.2 19.3 43.2 43.2 0 23.9-19.3 43.2-43.2 43.2C19.3 86.4 0 67.1 0 43.2 0 19.3 19.3 0 43.2 0M12.8 12.8"/><path d="M22.8 42.9c0-2.5-1.7-4-4-4h-1.4v7.9h1.4c2.1 0 4-1.2 4-3.9zm25.7 2.8l-10.7 8.4-9.8-7.7c-1.4 3.4-4.8 5.7-8.7 5.7H11V33.6h8.3c4.4 0 7.5 2.8 8.7 5.7l9.8-7.7 3.6 2.8-8.9 7 1.7 1.3 8.9-7 3.6 2.8-8.9 7 1.7 1.3 8.9-7v-6.5H55v13.1h6.5v5.4h-13v-6.1zm21.2 1h6.5v5.4h-13V33.6h6.5v13.1zM107 48.3s1.9 2.3 4.9 2.3c2.1 0 3.7-1.3 3.7-3.4 0-4.7-9.3-3.7-9.3-9.6 0-2.6 2.3-4.8 5.8-4.8 1.8 0 5.1.8 5.1 3.3v1.3h-1.8v-.9c0-1.1-1.6-2-3.3-2-2.5 0-3.9 1.4-3.9 3 0 4.4 9.3 3.3 9.3 9.6 0 2.8-2.2 5.2-5.7 5.2-3.9 0-6-2.7-6-2.7l1.2-1.3zM126.1 38.1c3.7 0 5.7 2.9 5.7 6.2 0 .3-.1.9-.1.9h-10.4c.1 3.4 2.5 5.4 5.3 5.4 2.5 0 4.1-1.7 4.1-1.7l.9 1.4s-2 1.9-5 1.9c-4 0-7.1-2.9-7.1-7.1 0-4.3 3-7 6.6-7zm3.8 5.7c-.1-2.8-1.8-4.2-3.8-4.2-2.2 0-4.2 1.5-4.7 4.2h8.5zM140.8 38.1c1.5 0 4.8.6 4.8 2.9v1.2h-1.7v-.8c0-1.1-2-1.7-3.1-1.7-2.9 0-5.3 2.2-5.3 5.5s2.5 5.4 5.3 5.4 4.4-1.9 4.4-1.9l.9 1.4s-1.8 2.2-5.3 2.2c-4 0-7.1-2.9-7.1-7.1 0-4.1 3.1-7.1 7.1-7.1zM149.1 40.6c0-.4-.2-.6-.6-.6h-1.1v-1.6h1.9c1.2 0 1.6.5 1.6 1.6v6.5c0 2.1.4 4 3 4 3.1 0 5-2.7 5-5.7v-6.5h1.8v11.4c0 .4.2.6.6.6h1.1V52h-1.9c-1.1 0-1.6-.5-1.6-1.5v-.6c0-.5.1-1 .1-1h-.1c-.5 1.3-2.3 3.4-5.3 3.4-3.2 0-4.6-1.7-4.6-5.3v-6.4zM165.4 40.6c0-.4-.2-.6-.6-.6h-1.1v-1.6h1.9c1.1 0 1.6.5 1.6 1.5v.9c0 .6-.1 1-.1 1h.1c.6-2 2.2-3.6 4.3-3.6.4 0 .7.1.7.1v1.8s-.3-.1-.7-.1c-1.9 0-3.3 1.5-3.9 3.5-.3.9-.4 1.8-.4 2.6V52h-1.8V40.6zM180 38.1c3.7 0 5.7 2.9 5.7 6.2 0 .3-.1.9-.1.9h-10.4c.1 3.4 2.5 5.4 5.3 5.4 2.5 0 4.1-1.7 4.1-1.7l.9 1.4s-2 1.9-5 1.9c-4 0-7.1-2.9-7.1-7.1-.1-4.3 3-7 6.6-7zm3.8 5.7c-.1-2.8-1.8-4.2-3.8-4.2-2.2 0-4.2 1.5-4.7 4.2h8.5zM187.5 35.3c-.1-.5-.5-.6-1-.6h-.3V33h.8c1.3 0 2 .2 2.3 1.6l3.3 13.1.4 2h.1s.2-1.1.5-2l4.2-14.5h1.9l3.8 14.5c.3 1 .4 2 .4 2h.1s.2-1.1.4-2l3.3-13.1c.3-1.3.9-1.6 2.3-1.6h.8v1.7h-.3c-.5 0-.9.1-1 .6L205.1 52h-2.2l-3.5-13.2c-.3-1.2-.6-2.8-.6-2.8h-.1s-.3 1.6-.7 2.8L194.1 52h-2.2l-4.4-16.7zM217.4 38.1c4 0 7.2 3 7.2 7 0 4.1-3.2 7.2-7.1 7.2-4 0-7.2-3.1-7.2-7.2 0-3.9 3.2-7 7.1-7zm.1 12.6c2.9 0 5.3-2.4 5.3-5.5s-2.4-5.4-5.3-5.4-5.3 2.3-5.3 5.4c0 3.1 2.4 5.5 5.3 5.5zM227.5 40.6c0-.4-.2-.6-.6-.6h-1.1v-1.6h1.9c1.1 0 1.6.5 1.6 1.5v.9c0 .6-.1 1-.1 1h.1c.6-2 2.2-3.6 4.3-3.6.4 0 .7.1.7.1v1.8s-.3-.1-.7-.1c-1.9 0-3.3 1.5-3.9 3.5-.3.9-.4 1.8-.4 2.6V52h-1.8V40.6zM236.9 35.3c0-.4-.2-.6-.6-.6h-1.1v-1.6h1.9c1.2 0 1.6.4 1.6 1.6v9h1.4c.5 0 1.2-.2 1.5-.6l3.5-4.5h2.2l-3.9 5c-.7.8-1 1-1 1v.1s.4.2.8 1l2.5 4.4c.2.5.5.6 1.2.6h.7V52h-1.3c-1.3 0-1.7-.2-2.3-1.3l-2.7-4.8c-.3-.5-.9-.6-1.4-.6h-1.2V52h-1.8V35.3zM249.8 48.7s1.5 2 4.2 2c1.5 0 2.9-.7 2.9-2.2 0-3-7.6-2.4-7.6-6.8 0-2.5 2.1-3.7 4.8-3.7 1.4 0 4.1.5 4.1 2.5v1.2h-1.7v-.6c0-1-1.5-1.4-2.3-1.4-1.9 0-3 .6-3 2 0 3 7.6 2.3 7.6 6.8 0 2.3-2 3.8-4.7 3.8-3.5 0-5.2-2.4-5.2-2.4l.9-1.2z"/></g></svg>