<svg xmlns="http://www.w3.org/2000/svg" width="259" height="87" viewBox="0 0 259 87">
  <g fill="none" fill-rule="evenodd">
    <path fill="#0E89CF" fill-rule="nonzero" d="M43.2,4.7 C32.6,4.7 22.9,9 16,16 C9,23 4.7,32.6 4.7,43.2 C4.7,53.8 9,63.5 16,70.4 C23,77.4 32.6,81.7 43.2,81.7 C53.8,81.7 63.5,77.4 70.4,70.4 C77.4,63.4 81.7,53.8 81.7,43.2 C81.7,32.6 77.4,22.9 70.4,16 C63.5,9 53.8,4.7 43.2,4.7 M43.2,0 C67.1,0 86.4,19.3 86.4,43.2 C86.4,67.1 67.1,86.4 43.2,86.4 C19.3,86.4 0,67.1 0,43.2 C0,19.3 19.3,0 43.2,0"/>
    <path fill="#0E89CF" fill-rule="nonzero" d="M22.8,42.9 C22.8,40.4 21.1,38.9 18.8,38.9 L17.4,38.9 L17.4,46.8 L18.8,46.8 C20.9,46.8 22.8,45.6 22.8,42.9 Z M48.5,45.7 L37.8,54.1 L28,46.4 C26.6,49.8 23.2,52.1 19.3,52.1 L11,52.1 L11,33.6 L19.3,33.6 C23.7,33.6 26.8,36.4 28,39.3 L37.8,31.6 L41.4,34.4 L32.5,41.4 L34.2,42.7 L43.1,35.7 L46.7,38.5 L37.8,45.5 L39.5,46.8 L48.4,39.8 L48.4,33.3 L55,33.3 L55,46.4 L61.5,46.4 L61.5,51.8 L48.5,51.8 L48.5,45.7 Z M69.7,46.7 L76.2,46.7 L76.2,52.1 L63.2,52.1 L63.2,33.6 L69.7,33.6 L69.7,46.7 L69.7,46.7 Z"/>
    <g transform="translate(105 32)">
      <path fill="#8B8B8B" d="M2 16.3C2 16.3 3.9 18.6 6.9 18.6 9 18.6 10.6 17.3 10.6 15.2 10.6 10.5 1.3 11.5 1.3 5.6 1.3 3 3.6.8 7.1.8 8.9.8 12.2 1.6 12.2 4.1L12.2 5.4 10.4 5.4 10.4 4.5C10.4 3.4 8.8 2.5 7.1 2.5 4.6 2.5 3.2 3.9 3.2 5.5 3.2 9.9 12.5 8.8 12.5 15.1 12.5 17.9 10.3 20.3 6.8 20.3 2.9 20.3.8 17.6.8 17.6L2 16.3zM21.1 6.1C24.8 6.1 26.8 9 26.8 12.3 26.8 12.6 26.7 13.2 26.7 13.2L16.3 13.2C16.4 16.6 18.8 18.6 21.6 18.6 24.1 18.6 25.7 16.9 25.7 16.9L26.6 18.3C26.6 18.3 24.6 20.2 21.6 20.2 17.6 20.2 14.5 17.3 14.5 13.1 14.5 8.8 17.5 6.1 21.1 6.1L21.1 6.1z"/>
      <path fill="#FFF" d="M24.9,11.8 C24.8,9 23.1,7.6 21.1,7.6 C18.9,7.6 16.9,9.1 16.4,11.8 L24.9,11.8 Z"/>
      <path fill="#8B8B8B" d="M35.8 6.1C37.3 6.1 40.6 6.7 40.6 9L40.6 10.2 38.9 10.2 38.9 9.4C38.9 8.3 36.9 7.7 35.8 7.7 32.9 7.7 30.5 9.9 30.5 13.2 30.5 16.5 33 18.6 35.8 18.6 38.6 18.6 40.2 16.7 40.2 16.7L41.1 18.1C41.1 18.1 39.3 20.3 35.8 20.3 31.8 20.3 28.7 17.4 28.7 13.2 28.7 9.1 31.8 6.1 35.8 6.1L35.8 6.1zM44.1 8.6C44.1 8.2 43.9 8 43.5 8L42.4 8 42.4 6.4 44.3 6.4C45.5 6.4 45.9 6.9 45.9 8L45.9 14.5C45.9 16.6 46.3 18.5 48.9 18.5 52 18.5 53.9 15.8 53.9 12.8L53.9 6.3 55.7 6.3 55.7 17.7C55.7 18.1 55.9 18.3 56.3 18.3L57.4 18.3 57.4 20 55.5 20C54.4 20 53.9 19.5 53.9 18.5L53.9 17.9C53.9 17.4 54 16.9 54 16.9L53.9 16.9C53.4 18.2 51.6 20.3 48.6 20.3 45.4 20.3 44 18.6 44 15L44 8.6 44.1 8.6zM60.4 8.6C60.4 8.2 60.2 8 59.8 8L58.7 8 58.7 6.4 60.6 6.4C61.7 6.4 62.2 6.9 62.2 7.9L62.2 8.8C62.2 9.4 62.1 9.8 62.1 9.8L62.2 9.8C62.8 7.8 64.4 6.2 66.5 6.2 66.9 6.2 67.2 6.3 67.2 6.3L67.2 8.1C67.2 8.1 66.9 8 66.5 8 64.6 8 63.2 9.5 62.6 11.5 62.3 12.4 62.2 13.3 62.2 14.1L62.2 20 60.4 20 60.4 8.6zM75 6.1C78.7 6.1 80.7 9 80.7 12.3 80.7 12.6 80.6 13.2 80.6 13.2L70.2 13.2C70.3 16.6 72.7 18.6 75.5 18.6 78 18.6 79.6 16.9 79.6 16.9L80.5 18.3C80.5 18.3 78.5 20.2 75.5 20.2 71.5 20.2 68.4 17.3 68.4 13.1 68.3 8.8 71.4 6.1 75 6.1L75 6.1z"/>
      <path fill="#FFF" d="M78.8,11.8 C78.7,9 77,7.6 75,7.6 C72.8,7.6 70.8,9.1 70.3,11.8 L78.8,11.8 Z"/>
      <path fill="#8B8B8B" d="M82.5 3.3C82.4 2.8 82 2.7 81.5 2.7L81.2 2.7 81.2 1 82 1C83.3 1 84 1.2 84.3 2.6L87.6 15.7 88 17.7 88.1 17.7C88.1 17.7 88.3 16.6 88.6 15.7L92.8 1.2 94.7 1.2 98.5 15.7C98.8 16.7 98.9 17.7 98.9 17.7L99 17.7C99 17.7 99.2 16.6 99.4 15.7L102.7 2.6C103 1.3 103.6 1 105 1L105.8 1 105.8 2.7 105.5 2.7C105 2.7 104.6 2.8 104.5 3.3L100.1 20 97.9 20 94.4 6.8C94.1 5.6 93.8 4 93.8 4L93.7 4C93.7 4 93.4 5.6 93 6.8L89.1 20 86.9 20 82.5 3.3zM112.4 6.1C116.4 6.1 119.6 9.1 119.6 13.1 119.6 17.2 116.4 20.3 112.5 20.3 108.5 20.3 105.3 17.2 105.3 13.1 105.3 9.2 108.5 6.1 112.4 6.1z"/>
      <path fill="#FFF" d="M112.5,18.7 C115.4,18.7 117.8,16.3 117.8,13.2 C117.8,10.1 115.4,7.8 112.5,7.8 C109.6,7.8 107.2,10.1 107.2,13.2 C107.2,16.3 109.6,18.7 112.5,18.7 Z"/>
      <path fill="#8B8B8B" d="M122.5 8.6C122.5 8.2 122.3 8 121.9 8L120.8 8 120.8 6.4 122.7 6.4C123.8 6.4 124.3 6.9 124.3 7.9L124.3 8.8C124.3 9.4 124.2 9.8 124.2 9.8L124.3 9.8C124.9 7.8 126.5 6.2 128.6 6.2 129 6.2 129.3 6.3 129.3 6.3L129.3 8.1C129.3 8.1 129 8 128.6 8 126.7 8 125.3 9.5 124.7 11.5 124.4 12.4 124.3 13.3 124.3 14.1L124.3 20 122.5 20 122.5 8.6zM131.9 3.3C131.9 2.9 131.7 2.7 131.3 2.7L130.2 2.7 130.2 1.1 132.1 1.1C133.3 1.1 133.7 1.5 133.7 2.7L133.7 11.7 135.1 11.7C135.6 11.7 136.3 11.5 136.6 11.1L140.1 6.6 142.3 6.6 138.4 11.6C137.7 12.4 137.4 12.6 137.4 12.6L137.4 12.7C137.4 12.7 137.8 12.9 138.2 13.7L140.7 18.1C140.9 18.6 141.2 18.7 141.9 18.7L142.6 18.7 142.6 20 141.3 20C140 20 139.6 19.8 139 18.7L136.3 13.9C136 13.4 135.4 13.3 134.9 13.3L133.7 13.3 133.7 20 131.9 20 131.9 3.3 131.9 3.3zM144.8 16.7C144.8 16.7 146.3 18.7 149 18.7 150.5 18.7 151.9 18 151.9 16.5 151.9 13.5 144.3 14.1 144.3 9.7 144.3 7.2 146.4 6 149.1 6 150.5 6 153.2 6.5 153.2 8.5L153.2 9.7 151.5 9.7 151.5 9.1C151.5 8.1 150 7.7 149.2 7.7 147.3 7.7 146.2 8.3 146.2 9.7 146.2 12.7 153.8 12 153.8 16.5 153.8 18.8 151.8 20.3 149.1 20.3 145.6 20.3 143.9 17.9 143.9 17.9L144.8 16.7 144.8 16.7z"/>
    </g>
  </g>
</svg>
