<svg viewBox="0 0 82 16" xmlns="http://www.w3.org/2000/svg"><g fill="#44536b" fill-rule="nonzero"><path d="M77.102 13.275c0-1.152.969-2.106 2.137-2.106 1.169 0 2.138.954 2.138 2.106 0 1.15-.97 2.105-2.138 2.105s-2.137-.954-2.137-2.105M12.858 7.547c0 2.443-.655 4.296-1.995 5.615-1.34 1.32-3.192 1.966-5.615 1.966H.603V.528h5.016c2.309 0 4.104.59 5.387 1.796 1.225 1.236 1.852 2.949 1.852 5.223m-4.047.14c0-1.348-.256-2.33-.798-2.976-.513-.646-1.311-.955-2.394-.955h-1.14v8.17h.883c1.197 0 2.053-.336 2.623-1.038.541-.73.826-1.769.826-3.2M25.827.499h3.734v14.656h-3.734zM41.76 9.68c0 1.77-.485 3.173-1.426 4.156-.94.983-2.28 1.488-3.99 1.488-1.625 0-2.936-.505-3.905-1.516-.969-1.01-1.453-2.387-1.453-4.127 0-1.77.484-3.145 1.425-4.128.94-.982 2.28-1.46 3.99-1.46 1.054 0 1.995.225 2.822.674.826.45 1.425 1.095 1.88 1.966.428.814.656 1.797.656 2.948m-6.983 0c0 .926.114 1.656.37 2.134.257.477.656.73 1.255.73.57 0 .997-.253 1.226-.73.228-.478.37-1.208.37-2.134 0-.927-.114-1.629-.37-2.106-.229-.477-.656-.702-1.226-.702s-.97.225-1.226.702c-.285.477-.399 1.18-.399 2.106M43.241 4.262h3.734v10.894h-3.734zM43.241.499h3.734v2.443h-3.734zM54.5 12.376c.513 0 1.111-.112 1.795-.365v2.752c-.513.224-.969.365-1.425.477a8.86 8.86 0 01-1.596.14c-1.254 0-2.138-.308-2.708-.926-.541-.618-.826-1.572-.826-2.836V7.069h-1.311V4.262h1.31v-2.78l3.763-.646v3.426h2.366v2.807h-2.366v4.24c0 .702.314 1.067.998 1.067M63.107 12.376c.513 0 1.112-.112 1.796-.365v2.752c-.513.224-.97.365-1.425.477a8.86 8.86 0 01-1.596.14c-1.254 0-2.138-.308-2.708-.926-.542-.618-.827-1.572-.827-2.836V7.069h-1.31V4.262h1.31V1.454l3.763-.59v3.398h2.365v2.807H62.11v4.24c0 .702.342 1.067.997 1.067M74.85 5.357c-.884-.843-2.138-1.292-3.762-1.292-1.71 0-3.022.478-3.934 1.46-.912.983-1.368 2.387-1.368 4.24 0 1.769.485 3.145 1.482 4.127.998.955 2.395 1.432 4.19 1.432.855 0 1.596-.056 2.223-.168a5.919 5.919 0 001.796-.618l-.57-2.443a8.494 8.494 0 01-1.197.393 8.776 8.776 0 01-1.796.197c-.712 0-1.282-.168-1.71-.505-.427-.337-.627-.815-.655-1.432h6.64V9.035c0-1.6-.456-2.836-1.34-3.678zM69.606 8.36c.057-.59.228-1.039.513-1.32.285-.28.655-.42 1.111-.42.485 0 .855.168 1.14.477.285.308.428.73.456 1.263h-3.22zM23.062 5.357c-.883-.843-2.138-1.292-3.762-1.292-1.71 0-3.021.478-3.933 1.46-.912.983-1.369 2.387-1.369 4.24 0 1.769.485 3.145 1.483 4.127.997.955 2.394 1.432 4.19 1.432.854 0 1.595-.056 2.222-.168a5.919 5.919 0 001.796-.618l-.57-2.443a8.494 8.494 0 01-1.197.393 8.776 8.776 0 01-1.796.197c-.712 0-1.282-.168-1.71-.505-.427-.337-.627-.815-.655-1.432h6.64V9.035c-.028-1.6-.455-2.836-1.339-3.678zM17.79 8.36c.057-.59.228-1.039.513-1.32.285-.28.656-.42 1.112-.42.484 0 .855.168 1.14.477.285.308.427.73.456 1.263h-3.22z"/></g></svg>