<svg xmlns="http://www.w3.org/2000/svg" viewBox="0 0 88.038 68"><path fill="#019FCE" d="M88.035 41.98c-.002-2.817-.003-5.633-.002-8.45.02-.795-.068-1.596-.286-2.36-.65-2.336-2.537-4.27-4.85-4.995-2.37-.786-5.115-.262-7.026 1.346-1.277 1.052-2.186 2.542-2.52 4.164-.214.98-.154 1.99-.16 2.987-.003 2.642 0 5.283-.003 7.924-.006 2.48-.926 4.938-2.532 6.822-2.026 2.428-5.163 3.885-8.327 3.85-3.185.034-6.338-1.437-8.377-3.88-1.642-1.92-2.55-4.44-2.537-6.963.002-11.62 0-23.243 0-34.865.04-1.538-.413-3.087-1.293-4.35C49.175 1.834 47.755.794 46.156.32c-1.388-.425-2.895-.427-4.284-.01-1.686.493-3.178 1.61-4.125 3.09-.768 1.176-1.163 2.578-1.172 3.98-.003 4-.002 8-.003 12-5.392-2.52-11.665-3.064-17.416-1.55-5.962 1.534-11.31 5.31-14.76 10.408-3.594 5.225-5.082 11.837-4.1 18.1.547 3.643 1.917 7.157 3.965 10.22 1.808 2.71 4.14 5.07 6.825 6.915 2.782 1.914 5.944 3.273 9.25 3.966 5.16 1.093 10.654.58 15.508-1.496 3.053-1.287 5.837-3.19 8.182-5.527 1.493 1.483 3.153 2.804 4.96 3.884 4.237 2.575 9.236 3.855 14.186 3.686 3.892-.12 7.758-1.128 11.2-2.95 3.07-1.612 5.802-3.855 7.986-6.546 2.276-2.803 3.957-6.093 4.858-9.59.595-2.254.852-4.59.82-6.92zm-53.85 7.26c-1.087 1.343-2.498 2.43-4.086 3.116-3.018 1.34-6.65 1.203-9.552-.377-2.718-1.436-4.766-4.088-5.434-7.093-.43-1.89-.343-3.9.27-5.74.93-2.877 3.144-5.298 5.914-6.505 1.128-.5 2.344-.81 3.577-.893 3.415-.3 6.923 1.157 9.128 3.783 1.204 1.405 2.04 3.127 2.38 4.947.598 3.055-.218 6.354-2.2 8.76z"/></svg>