<svg xmlns="http://www.w3.org/2000/svg" viewBox="-274 385 62 24"><path fill="#E55154" d="M-243.8 407c16.8 0 29-4.1 29-10.4 0-6.3-12.2-10.4-29-10.4V385c17.5 0 30.1 4.6 30.1 11.6 0 7.1-12.7 11.7-30.1 11.7V407zm0-20.8c-16.8 0-29 4.1-29 10.4 0 6.4 12.2 10.4 29 10.4v1.2c-17.5 0-30.2-4.6-30.2-11.7 0-7 12.7-11.6 30.2-11.6v1.3zm-20.1 8v-1.7c0-.3-.2-.7-.7-.5-.3.2-1.3.5-1.9.8v1.4h-1.7v-2.4c1.1-.7 2.9-1.5 3.8-1.7.9-.3 2.2.2 2.2 1.6v2.5h-1.7zm1.7 0v7.3c0 1.1-1 2-1.9 1.6-1-.3-3-1.1-4.1-1.8v-7.2h1.7v6.3c.6.2 1.2.5 1.7.7.7.2.8-.1.8-.5v-6.5h1.8v.1zm8.2-6.3v14.9c0 2.3-1.6 2.3-3.2 2-1.6-.3-3.1-.5-3.1-2.5V389l1.6-.4v13.5c0 .7.7.8 1.5 1 .7.1 1.5.2 1.5-.7V388l1.7-.1zm22.2 17.1c-.7.2-1 .2-1.7.3V388c.7.1 1.1.1 1.8.2l2.9 10.5v-10.1c.7.2 1.1.2 1.7.4v15.2c-.7.2-1.1.2-1.8.3l-2.9-10V405zm10.4-2.6c-.6.2-1 .4-1.6.7v-11c-.8-.3-1.6-.6-2.4-.7v-1.7c3 .7 4.6 1.6 6.3 2.6v2c-.6-.5-1.4-1-2.3-1.4v9.5zm-28.4-8.2v-6.5c1.1-.2 2.9-.2 4.6-.2.8 0 1.9.4 1.9 1.9v4.9h-1.8v-4.7c0-.3-.2-.4-.3-.4-.2 0-2.4.1-2.6.1v5h-1.8v-.1zm6.4 0v4.2c0 1.7-1.5 2.1-2.5 2.1h-2.2v5.2c-.3 0-1.3-.1-1.7-.1v-11.4h1.7v4.6h2.3c.4 0 .7-.1.7-.7v-3.8h1.7v-.1zm8.1 0h-1.7v-4.1c0-.8-.7-.9-1.5-.9-.7-.1-1.5 0-1.5.9v4.1h-1.7v-4.6c0-2 1.6-2.2 3.2-2.1 1.6.1 3.2.4 3.2 2.4v4.3zm0 0v9.1c0 2-1.6 2.4-3.2 2.4-1.6.1-3.2-.2-3.2-2.1v-9.4h1.7v8.9c0 .9.8 1 1.5 1 .7-.1 1.5-.2 1.5-1v-8.9h1.7zM-218.6 406c0-.9.7-1.6 1.7-1.6.9 0 1.6.7 1.6 1.6 0 1-.7 1.7-1.6 1.7-.9 0-1.7-.7-1.7-1.7zm3.1 0c0-.7-.7-1.4-1.4-1.4-.8 0-1.4.7-1.4 1.4s.6 1.4 1.4 1.4c.8 0 1.4-.7 1.4-1.4zm-1.8.1v.9h-.2v-2h.6c.4 0 .7.1.7.5 0 .2-.1.4-.4.5.3.1.4.2.4.4s.1.4.1.6h-.4v-.5c0-.4-.1-.4-.5-.4h-.3zm.4-.3c.3 0 .4-.2.4-.3s-.1-.2-.3-.2h-.4v.6l.3-.1z"/></svg>