<svg xmlns="http://www.w3.org/2000/svg" viewBox="-155 336.7 300 120.3"><path fill="#E53238" d="M-116.1 363c-21.1 0-38.8 9-38.8 36 0 21.4 11.8 34.9 39.3 34.9 32.3 0 34.4-21.3 34.4-21.3h-15.7s-3.4 11.5-19.7 11.5c-13.3 0-22.9-9-22.9-21.6h59.9v-7.9c0-12.4-7.9-31.6-36.5-31.6zm-.6 10.1c12.7 0 21.3 7.8 21.3 19.4h-43.7c0-12.4 11.3-19.4 22.4-19.4z"/><path fill="#0064D2" d="M-79.6 336.8v83.6c0 4.7-.3 11.4-.3 11.4H-65s.5-4.8.5-9.2c0 0 7.4 11.5 27.5 11.5 21.1 0 35.5-14.7 35.5-35.7 0-19.6-13.2-35.3-35.5-35.3-20.9 0-27.3 11.3-27.3 11.3v-37.7h-15.3zm38.8 36.7c14.4 0 23.5 10.7 23.5 24.9 0 15.3-10.5 25.4-23.4 25.4-15.3 0-23.6-12-23.6-25.2 0-12.3 7.4-25.1 23.5-25.1z"/><path fill="#F5AF02" d="M35.6 363c-31.8 0-33.9 17.4-33.9 20.2h15.8s.8-10.2 16.9-10.2c10.5 0 18.6 4.8 18.6 14v3.3H34.6c-24.6 0-37.7 7.2-37.7 21.8 0 14.4 12 22.2 28.3 22.2 22.2 0 29.3-12.3 29.3-12.3 0 4.9.4 9.7.4 9.7H69s-.5-6-.5-9.8V389c-.1-21.5-17.5-26-32.9-26zm17.5 37.1v4.4c0 5.7-3.5 19.9-24.2 19.9-11.3 0-16.2-5.7-16.2-12.2 0-12 16.4-12.1 40.4-12.1z"/><path fill="#86B817" d="M59.9 365.7h17.8l25.6 51.2 25.5-51.2h16.1l-46.5 91.2H81.5l13.4-25.4-35-65.8z"/></svg>