<svg width="200" height="44" viewBox="0 0 200 44" xmlns="http://www.w3.org/2000/svg" xmlns:xlink="http://www.w3.org/1999/xlink"><defs><path id="a" d="M.215.043h11.502v17.044H.215z"/><path id="c" d="M.043.128h22.146v5.724H.043z"/><path id="e" d="M.257.256h14.207v14.012H.257z"/></defs><g fill="none" fill-rule="evenodd"><path d="M194.764 3.674l1.244-2.606c-.944-.384-1.974-.64-3.004-.854l-.557 1.068-.988-.129.344-1.11h-.258c-.386 0-.901-.043-1.202-.043h-.858c-.172 0-.3.043-.472.043l.343 1.11-1.073.129-.472-1.026c-1.03.171-2.06.47-3.004.897l1.116 2.478c2.017-.47 5.364-.812 8.84.043M11.245 37.122l-.086 3.204H0V23.965h10.858l.043 3.247h-7.21v3.246h6.094v2.948H3.691v3.716zM19.828 30.885c-.429-.598-1.244-.982-2.231-.982-1.846 0-2.533.94-2.533 3.93 0 3.076.601 4.015 2.533 4.015 1.244 0 1.931-.555 2.274-1.11v-5.853h-.043zm.773 9.441l-.343-1.153h-.086c-.773.897-1.932 1.41-3.562 1.41-3.434 0-5.065-2.222-5.065-6.92 0-4.316 1.674-6.793 5.022-6.793 1.244 0 2.36.427 3.218 1.196l.043-.043-.043-1.751v-2.905l3.391-.171v17.13h-2.575zM24.85 40.326V27.212l3.476-.171v13.285H24.85zm1.76-14.61c-1.331 0-1.932-.384-1.932-1.452 0-.94.644-1.452 1.931-1.452 1.33 0 1.932.512 1.932 1.452s-.601 1.452-1.932 1.452zM37.725 40.326v-8.415c0-1.453-.73-2.05-2.146-2.05-.858 0-1.76.384-2.231.982v9.44h-3.434V27.17l2.446-.171.515 1.153c.988-.854 2.275-1.324 3.649-1.324 2.79 0 4.592 1.752 4.592 5.04v8.416h-3.39v.043zM47.94 29.817c-.987 0-1.803.428-2.318 1.111v5.81c.43.64 1.202 1.153 2.318 1.153 1.545 0 2.446-.683 2.446-4.1.043-3.333-.815-3.974-2.446-3.974m.6 10.765c-1.501 0-2.703-.555-3.518-1.367l-.43 1.111h-2.317v-16.96l3.39-.17v3.076l-.043 1.751.086.043c.902-.812 2.06-1.196 3.262-1.196 3.047 0 4.979 1.965 4.979 6.792s-2.018 6.92-5.408 6.92M66.008 35.67c0 3.204-1.802 4.913-5.579 4.913-3.777 0-5.58-1.752-5.58-4.913v-8.544h3.391v8.458c0 1.325.687 1.966 2.19 1.966 1.501 0 2.188-.641 2.188-1.966v-8.458h3.39v8.544zM67.081 40.326V27.212l2.704-.129.3 2.18h.087c.815-1.581 2.103-2.393 3.648-2.393.6 0 1.073.085 1.459.213l-.215 3.332a4.997 4.997 0 00-1.459-.213c-1.76 0-3.09 1.281-3.09 3.503v6.621H67.08z" fill="#FFF"/><g transform="translate(75.107 26.827)"><mask id="b" fill="#fff"><use xlink:href="#a"/></mask><path d="M3.777 4.23c0 1.28.686 1.623 1.674 1.623 1.416 0 1.845-.428 1.845-1.624 0-1.196-.515-1.623-1.76-1.623-1.287 0-1.76.47-1.76 1.623zm-.086 7.86c-.343.341-.558.726-.558 1.067 0 .897.687 1.367 2.446 1.367 2.49 0 3.09-.47 3.09-1.238 0-.599-.343-.898-1.845-.983l-3.133-.214zm.172-4.059c-.3.171-.473.385-.473.64 0 .343.3.556.859.599l3.133.17c3.09.172 4.292 1.325 4.292 3.376 0 2.648-1.76 4.271-6.095 4.271-3.82 0-5.364-1.495-5.364-3.502 0-.77.343-1.538 1.03-2.136-.558-.428-.988-1.026-.988-1.923 0-.854.515-1.751 1.588-2.264C.987 6.622.386 5.64.386 4.144.386 1.752 1.802.043 5.451.043c1.158 0 2.36.17 3.304.726L11.03.043l.687 1.623-1.417 1.11c.13.385.215.855.215 1.41 0 2.564-1.46 4.016-5.022 4.016a19.091 19.091 0 01-1.63-.17z" fill="#FFF" mask="url(#b)"/></g><path d="M95.365 40.326v-8.415c0-1.367-.687-2.05-2.103-2.05-.987 0-1.846.426-2.275.982v9.44h-3.39V23.367l3.39-.17v2.99l-.043 1.75.086.044c.987-.812 2.189-1.154 3.305-1.154 2.79 0 4.463 1.88 4.463 5.04v8.416h-3.433v.043zM111.202 28.45l-1.631 5.597h4.163l-1.588-5.596-.43-1.71h-.042l-.472 1.71zm3.433 8.672h-5.965l-.902 3.162h-3.906l5.666-16.362h4.42l5.752 16.362h-4.12l-.945-3.162zM120.172 40.326V27.212l3.476-.171v13.285h-3.476zm1.76-14.61c-1.331 0-1.932-.384-1.932-1.452 0-.94.644-1.452 1.931-1.452 1.33 0 1.932.512 1.932 1.452s-.601 1.452-1.932 1.452zM124.979 40.326V27.212l2.703-.129.3 2.18h.087c.815-1.581 2.103-2.393 3.648-2.393.6 0 1.116.085 1.46.213l-.216 3.332a4.997 4.997 0 00-1.459-.213c-1.76 0-3.09 1.281-3.09 3.503v6.621h-3.433zM139.614 29.903c-.987 0-1.803.384-2.275 1.068v5.681c.43.641 1.159 1.154 2.232 1.154 1.502 0 2.532-.726 2.532-4.058-.043-3.119-.773-3.845-2.49-3.845m.816 10.637c-1.201 0-2.232-.257-3.09-1.068h-.086l.043 1.751v2.435h-3.433V27.212l2.403-.171.644 1.153c.901-.854 2.232-1.324 3.605-1.324 3.262 0 5.064 1.751 5.064 6.835 0 4.613-2.017 6.835-5.15 6.835M152.103 37.849c1.846 0 2.532-.855 2.532-4.101 0-3.204-.686-4.101-2.532-4.101-1.888 0-2.575.854-2.575 4.1 0 3.247.73 4.102 2.575 4.102m0 2.776c-4.206 0-6.094-2.007-6.094-6.877 0-4.828 1.888-6.878 6.094-6.878s6.052 2.05 6.052 6.878c0 4.87-1.846 6.877-6.052 6.877M159.185 40.326V27.212l2.704-.129.3 2.435h.085c.816-1.58 1.803-2.392 3.348-2.392.6 0 .816-.043 1.76-.043l.257 2.564h-2.231c-1.76 0-2.747 1.836-2.747 4.058v6.621h-3.476z" fill="#FFF"/><path d="M167.081 27.126l.558-2.99 2.661-.256v3.203h2.962v2.52H170.3v6.75c0 1.026.515 1.453 1.588 1.453.344 0 .816-.086 1.03-.171l.215 2.478c-.472.213-1.33.384-2.275.384-2.66 0-3.948-1.538-3.948-4.015v-6.835" fill="#FFF"/><g transform="translate(177.682 33.235)"><mask id="d" fill="#fff"><use xlink:href="#c"/></mask><path d="M.043 5.852C1.845 3.887 3.347 2.008 4.635.128a93.877 93.877 0 0117.554 5.468 68.527 68.527 0 00-10.214-.769c-4.035 0-8.07.342-11.932 1.025" fill="#FFF" mask="url(#d)"/></g><g transform="translate(185.408 22.555)"><mask id="f" fill="#fff"><use xlink:href="#e"/></mask><path d="M14.464 14.268C9.314 11.278 4.507 8.031.257 4.571A26.06 26.06 0 001.545.256C5.407 5.81 9.657 10.423 14.464 14.268" fill="#FFF" mask="url(#f)"/></g><path d="M197.425 36.652c-4.721-1.794-9.57-3.246-14.507-4.272.859-1.41 1.631-2.819 2.275-4.186a108.134 108.134 0 0012.232 8.458M196.91 32.765c-3.52-3.332-6.695-7.134-9.7-11.62.172-1.11.215-2.22.215-3.331v-1.026c2.189 4.998 5.493 10.552 9.485 15.977M196.18 29.69c-4.292-6.195-7.554-12.389-9.227-17.43-.687-3.674-1.932-6.109-2.575-7.177 1.587-.384 3.262-.64 4.892-.683H190.901c-.472 2.307-1.802 11.705 4.55 23.837.214.47.472.982.73 1.452" fill="#FFF"/><path d="M193.219 19.608c-2.318-7.946-1.416-13.627-1.073-15.123 1.373.129 2.704.385 4.034.727-1.03 1.708-3.004 5.937-3.004 12.602 0 .598 0 1.196.043 1.794" fill="#FFF"/></g></svg>