<svg xmlns="http://www.w3.org/2000/svg" width="466" height="103"><g fill="#7E0C6E" fill-rule="evenodd"><path d="M453.8 8.6l2.9-6.1c-2.2-.9-4.6-1.5-7-2L448.4 3l-2.3-.3.8-2.6h-.6c-.9 0-2.1-.1-2.8-.1h-2c-.4 0-.7.1-1.1.1l.8 2.6-2.5.3-1.1-2.4c-2.4.4-4.8 1.1-7 2.1l2.6 5.8c4.7-1.1 12.5-1.9 20.6.1M26.2 86.9l-.2 7.5H0V56.1h25.3l.1 7.6H8.6v7.6h14.2v6.9H8.6v8.7z"/><path fill-rule="nonzero" d="M48 94.4l-.8-2.7H47c-1.8 2.1-4.5 3.3-8.3 3.3-8 0-11.8-5.2-11.8-16.2 0-10.1 3.9-15.9 11.7-15.9 2.9 0 5.5 1 7.5 2.8l.1-.1-.1-4.1v-6.8l7.9-.4v40.1h-6zm-1.8-22.1c-1-1.4-2.9-2.3-5.2-2.3-4.3 0-5.9 2.2-5.9 9.2 0 7.2 1.4 9.4 5.9 9.4 2.9 0 4.5-1.3 5.3-2.6V72.3h-.1zM62 60.2c-3.1 0-4.5-.9-4.5-3.4 0-2.2 1.5-3.4 4.5-3.4 3.1 0 4.5 1.2 4.5 3.4s-1.4 3.4-4.5 3.4zm-4.1 34.2V63.7l8.1-.4v31.1h-8.1z"/><path d="M87.9 94.4V74.7c0-3.4-1.7-4.8-5-4.8-2 0-4.1.9-5.2 2.3v22.1h-8V63.6l5.7-.4 1.2 2.7c2.3-2 5.3-3.1 8.5-3.1 6.5 0 10.7 4.1 10.7 11.8v19.7h-7.9v.1z"/><path fill-rule="nonzero" d="M113.1 95c-3.5 0-6.3-1.3-8.2-3.2l-1 2.6h-5.4V54.7l7.9-.4v7.2l-.1 4.1.2.1c2.1-1.9 4.8-2.8 7.6-2.8 7.1 0 11.6 4.6 11.6 15.9S121 95 113.1 95m-1.4-25.2c-2.3 0-4.2 1-5.4 2.6V86c1 1.5 2.8 2.7 5.4 2.7 3.6 0 5.7-1.6 5.7-9.6.1-7.8-1.9-9.3-5.7-9.3"/><path d="M153.8 83.5c0 7.5-4.2 11.5-13 11.5s-13-4.1-13-11.5v-20h7.9v19.8c0 3.1 1.6 4.6 5.1 4.6 3.5 0 5.1-1.5 5.1-4.6V63.5h7.9v20zm2.5 10.9V63.7l6.3-.3.7 5.1h.2c1.9-3.7 4.9-5.6 8.5-5.6 1.4 0 2.5.2 3.4.5l-.5 7.8c-1-.3-2.1-.5-3.4-.5-4.1 0-7.2 3-7.2 8.2v15.5h-8z"/><path fill-rule="nonzero" d="M184 81.6c-.7.4-1.1.9-1.1 1.5 0 .8.7 1.3 2 1.4l7.3.4c7.2.4 10 3.1 10 7.9 0 6.2-4.1 10-14.2 10-8.9 0-12.5-3.5-12.5-8.2 0-1.8.8-3.6 2.4-5-1.3-1-2.3-2.4-2.3-4.5 0-2 1.2-4.1 3.7-5.3-2-1.5-3.4-3.8-3.4-7.3 0-5.6 3.3-9.6 11.8-9.6 2.7 0 5.5.4 7.7 1.7l5.3-1.7 1.6 3.8-3.3 2.6c.3.9.5 2 .5 3.3 0 6-3.4 9.4-11.7 9.4-1.3-.1-2.6-.2-3.8-.4zm-.4 9.5c-.8.8-1.3 1.7-1.3 2.5 0 2.1 1.6 3.2 5.7 3.2 5.8 0 7.2-1.1 7.2-2.9 0-1.4-.8-2.1-4.3-2.3l-7.3-.5zm.2-18.4c0 3 1.6 3.8 3.9 3.8 3.3 0 4.3-1 4.3-3.8s-1.2-3.8-4.1-3.8c-3 0-4.1 1.1-4.1 3.8z"/><path d="M222.2 94.4V74.7c0-3.2-1.6-4.8-4.9-4.8-2.3 0-4.3 1-5.3 2.3v22.1h-7.9V54.7l7.9-.4v7l-.1 4.1.2.1c2.3-1.9 5.1-2.7 7.7-2.7 6.5 0 10.4 4.4 10.4 11.8v19.7h-8v.1z"/><path fill-rule="nonzero" d="M267.1 86.9h-13.9l-2.1 7.4H242L255.2 56h10.3l13.4 38.3h-9.6l-2.2-7.4zm-8-20.3l-3.8 13.1h9.7l-3.7-13.1-1-4h-.1l-1.1 4zm25-6.4c-3.1 0-4.5-.9-4.5-3.4 0-2.2 1.5-3.4 4.5-3.4 3.1 0 4.5 1.2 4.5 3.4s-1.4 3.4-4.5 3.4zM280 94.4V63.7l8.1-.4v31.1H280z"/><path d="M291.2 94.4V63.7l6.3-.3.7 5.1h.2c1.9-3.7 4.9-5.6 8.5-5.6 1.4 0 2.6.2 3.4.5l-.5 7.8c-1-.3-2.1-.5-3.4-.5-4.1 0-7.2 3-7.2 8.2v15.5h-8z"/><path fill-rule="nonzero" d="M327.2 94.9c-2.8 0-5.2-.6-7.2-2.5h-.2l.1 4.1v5.7h-8V63.7l5.6-.4L319 66c2.1-2 5.2-3.1 8.4-3.1 7.6 0 11.8 4.1 11.8 16 0 10.8-4.7 16-12 16M325.3 70c-2.3 0-4.2.9-5.3 2.5v13.3c1 1.5 2.7 2.7 5.2 2.7 3.5 0 5.9-1.7 5.9-9.5-.1-7.3-1.8-9-5.8-9m29.1 25.1c-9.8 0-14.2-4.7-14.2-16.1 0-11.3 4.4-16.1 14.2-16.1 9.8 0 14.1 4.8 14.1 16.1 0 11.4-4.3 16.1-14.1 16.1m0-6.5c4.3 0 5.9-2 5.9-9.6 0-7.5-1.6-9.6-5.9-9.6-4.4 0-6 2-6 9.6s1.7 9.6 6 9.6"/><path d="M370.9 94.4V63.7l6.3-.3.7 5.7h.2c1.9-3.7 4.2-5.6 7.8-5.6 1.4 0 1.9-.1 4.1-.1l.6 6h-5.2c-4.1 0-6.4 4.3-6.4 9.5v15.5h-8.1z"/><path d="M389.3 63.5l1.3-7 6.2-.6v7.5h6.9v5.9h-6.9v15.8c0 2.4 1.2 3.4 3.7 3.4.8 0 1.9-.2 2.4-.4l.5 5.8c-1.1.5-3.1.9-5.3.9-6.2 0-9.2-3.6-9.2-9.4v-16m25.2 22.1c4.2-4.6 7.7-9 10.7-13.4 14 2.9 27.7 7.2 40.9 12.8-7.9-1.2-15.9-1.8-23.8-1.8-9.4 0-18.8.8-27.8 2.4m51.6-5.3c-12-7-23.2-14.6-33.1-22.7 1.3-3.3 2.3-6.7 3-10.1 9 13 18.9 23.8 30.1 32.8m-5.7-.4c-11-4.2-22.3-7.6-33.8-10 2-3.3 3.8-6.6 5.3-9.8 8.7 7 18.3 13.7 28.5 19.8m-1.2-9.1c-8.2-7.8-15.6-16.7-22.6-27.2.4-2.6.5-5.2.5-7.8v-2.4c5.1 11.7 12.8 24.7 22.1 37.4m-1.7-7.2c-10-14.5-17.6-29-21.5-40.8-1.6-8.6-4.5-14.3-6-16.8 3.7-.9 7.6-1.5 11.4-1.6h3.8c-1.1 5.4-4.2 27.4 10.6 55.8.5 1.1 1.1 2.3 1.7 3.4"/><path d="M450.2 45.9c-5.4-18.6-3.3-31.9-2.5-35.4 3.2.3 6.3.9 9.4 1.7-2.4 4-7 13.9-7 29.5 0 1.4 0 2.8.1 4.2"/></g></svg>