<svg xmlns="http://www.w3.org/2000/svg" viewBox="0 0 143.5 148.6"><path d="M89.4 33.1s2.2-1.4 1.9-3.8c-.9 1.7-1.9 1.7-1.9 1.7s1.3-2 .4-3.8l-1.3 2C90.7 22.4 78 21 78 15.6c0 0 .5-2.7 3.6-2.3-1-2.8-4.1-1.1-4.1-1.1.1-2.3 4-4.5 7.2-.9.7-1.8-.1-3.3-1.8-4.5-4-2.7-11.4 1.7-11.4 1.7s0-7.3 8.2-6.2c-1-2.4-4.2-2.7-6.9-1.8-8.8 2.7-9.6 10.9-9.6 10.9s-2.1-1.4-1-4.6c-3.2.7-3.4 8.8-3.4 8.8s-2.4-.2-3.2-4.8c-6.6 11.2.8 18.8.8 18.8s-3.5 0-5.6-5.2c-.9 5.2 2.7 8.2 2.7 8.2s-.7.5-2.2.5c.4 1.5 2.4 1.9 3.1 3.1-.2 2.1.6 5.3 1.5 7.7h-.4s-.6.3-.6 1.3c0 .9.6 1.2.6 1.2l.9.3s-.1 7.4 6.7 7.4c9.2 0 6.9-7.3 9.2-7.3 2.3 0 0 7.3 9.2 7.3 6.8 0 6.7-7.4 6.7-7.4l.9-.3s.6-.4.6-1.3c0-1-.6-1.2-.6-1.2h-.3c1.8-5.7.1-9.3.1-9.3s.7-.5 1.8 1.1c.9-1.6-1.3-2.6-1.3-2.6zm-26 19.4c-6.3 0-4.8-7.1-4.8-7.1s.3-1.2 5.2-1.2 5.2 2 5.2 2 .7 6.3-5.6 6.3zm17.6 0c-6.3 0-5.5-6.3-5.5-6.3s.3-2 5.2-2 5.2 1.2 5.2 1.2 1.4 7.1-4.9 7.1zm-.3-9.9c-4.6 0-5.8 1.2-8.5 1.2s-3.9-1.2-8.5-1.2c-2.9 0-5 .5-6.4.8.1-2.3.5-4.2.5-4.2 1.6-8 24.5-4.7 27.3-.5.9 1.4 1.4 3 1.7 4.4-1.4-.2-3.9-.5-6.1-.5z"/><path fill="#A9AFB2" d="M23.8 66.8c.9-.9 2-1.4 3.3-1.4h37.8v4.7H27.1v23.6h37.8v4.7H27.1c-1.3 0-2.4-.5-3.3-1.4-.9-.9-1.4-2-1.4-3.3V70.1c0-1.3.5-2.4 1.4-3.3zm8.4 12.7h32.7v4.7H30.6l1.6-4.7z"/><path fill="#D93B20" d="M74.3 70.1h-4.7v-4.7h4.7v4.7zm-4.7 2.4h4.7v26h-4.7v-26zM101 107.9h-3.1v-9.4H83.8c-1.3 0-2.4-.5-3.3-1.4-.9-.9-1.4-2-1.4-3.3V70.1c0-1.3.5-2.4 1.4-3.3.9-.9 2-1.4 3.3-1.4h33.1c1.3 0 2.4.5 3.3 1.4.9.9 1.4 2 1.4 3.3v23.6c0 1.3-.5 2.4-1.4 3.3-.9.9-2 1.4-3.3 1.4h-11.3l.8-4.7h10.4V70.1h-33v23.6h19.4l-2.2 14.2z"/><g fill="#4B5A64"><path d="M5.3 128.3c-.8 0-1.5-.1-2.1-.4-.6-.3-1.2-.7-1.7-1.1-.5-.5-.8-1.1-1.1-1.7-.3-.7-.4-1.4-.4-2.1 0-.7.1-1.4.4-2.1.3-.7.6-1.2 1.1-1.7.5-.5 1-.9 1.7-1.2.6-.3 1.4-.4 2.1-.4.5 0 .9 0 1.3.1s.7.2 1.1.3c.3.1.6.3.9.5.3.2.5.4.8.7l-.8.8c-.5-.4-.9-.8-1.4-1-.5-.3-1.1-.4-1.9-.4-.6 0-1.1.1-1.6.3-.5.2-.9.5-1.3.9s-.7.8-.9 1.4c-.2.5-.3 1.1-.3 1.7 0 .6.1 1.2.3 1.7.2.5.5 1 .9 1.4.4.4.8.7 1.3.9.5.2 1 .3 1.6.3.7 0 1.3-.1 1.9-.4.5-.3 1-.6 1.5-1.1l.8.8c-.3.3-.6.5-.8.8l-.9.6c-.3.2-.7.3-1.1.4H5.3zM14.4 128.3c-.6 0-1.1-.1-1.6-.3-.5-.2-.9-.5-1.3-.9s-.6-.8-.8-1.3c-.2-.5-.3-1-.3-1.6 0-.6.1-1.1.3-1.6.2-.5.5-.9.8-1.3.4-.4.8-.7 1.3-.9.5-.2 1-.3 1.6-.3.6 0 1.1.1 1.6.3.5.2.9.5 1.3.9s.6.8.8 1.3c.2.5.3 1 .3 1.6 0 .5-.1 1.1-.3 1.6-.2.5-.5.9-.8 1.3-.4.4-.8.7-1.3.9-.4.2-1 .3-1.6.3zm.1-1c.4 0 .8-.1 1.2-.2.3-.2.7-.4.9-.6l.6-.9c.1-.4.2-.7.2-1.2 0-.4-.1-.8-.2-1.2-.1-.4-.3-.7-.6-1-.3-.3-.6-.5-.9-.7-.3-.2-.7-.2-1.1-.2-.4 0-.8.1-1.2.2l-.9.6s-.4.6-.6 1c-.1.4-.2.8-.2 1.2 0 .4.1.8.2 1.2.1.4.3.7.6.9.3.3.6.5.9.6.3.2.7.3 1.1.3zM20.3 120.4h1.2v1.3c.3-.4.6-.8 1-1.1.4-.3 1-.4 1.6-.4.5 0 .9.1 1.3.2.4.2.7.4.9.6.3.3.4.6.6 1 .1.4.2.8.2 1.3v4.8h-1.2v-4.5c0-.7-.2-1.3-.6-1.7-.4-.4-.9-.6-1.6-.6-.3 0-.6.1-.9.2-.3.1-.5.3-.7.5-.2.2-.4.5-.5.8-.1.3-.2.6-.2 1v4.4h-1.2v-7.8zM31.8 128.3c-.3 0-.6 0-.9-.1-.3-.1-.5-.2-.7-.4-.2-.2-.3-.4-.5-.7-.1-.3-.2-.6-.2-1v-4.7h-1.1v-1h1.1V118h1.2v2.3h2.5v1h-2.5v4.5c0 .5.1.8.4 1 .2.2.6.3.9.3.2 0 .4 0 .6-.1.2 0 .4-.1.6-.2v1c-.2.1-.4.2-.6.2-.3.2-.5.3-.8.3zM35 117.4h1.3v1.3H35v-1.3zm.1 3h1.2v7.8h-1.2v-7.8zM38.6 120.4h1.2v1.3c.3-.4.6-.8 1-1.1.4-.3 1-.4 1.6-.4.5 0 .9.1 1.3.2s.7.4.9.6c.3.3.5.6.6 1 .1.4.2.8.2 1.3v4.8h-1.2v-4.5c0-.7-.2-1.3-.6-1.7-.4-.4-.9-.6-1.6-.6-.3 0-.6.1-.9.2-.3.1-.5.3-.7.5-.2.2-.4.5-.5.8-.1.3-.2.6-.2 1v4.4h-1.2v-7.8zM50.4 128.3c-.5 0-.9-.1-1.3-.2s-.7-.4-.9-.6c-.3-.3-.5-.6-.6-1-.1-.4-.2-.8-.2-1.3v-4.8h1.2v4.5c0 .7.2 1.3.6 1.7.4.4.9.6 1.6.6.3 0 .6-.1.9-.2.3-.1.5-.3.7-.5.2-.2.4-.5.5-.8.1-.3.2-.6.2-1v-4.4h1.1v7.8h-1.1v-1.3c-.3.4-.6.8-1 1.1-.5.3-1 .4-1.7.4zM60 128.3c-.6 0-1.1-.1-1.6-.3-.5-.2-.9-.5-1.3-.9s-.6-.8-.8-1.3c-.2-.5-.3-1-.3-1.6 0-.6.1-1.1.3-1.6.2-.5.5-.9.8-1.3.4-.4.8-.7 1.3-.9.5-.2 1-.3 1.6-.3.6 0 1.1.1 1.6.3.5.2.9.5 1.3.9s.6.8.8 1.3c.2.5.3 1 .3 1.6 0 .5-.1 1.1-.3 1.6-.2.5-.5.9-.8 1.3-.4.4-.8.7-1.3.9-.4.2-1 .3-1.6.3zm.1-1c.4 0 .8-.1 1.2-.2l.9-.6.6-.9c.1-.4.2-.7.2-1.2 0-.4-.1-.8-.2-1.2-.1-.4-.3-.7-.6-1-.3-.3-.6-.5-.9-.7-.4-.2-.7-.2-1.1-.2-.4 0-.8.1-1.2.2-.4.2-.6.4-.9.6-.2.3-.4.6-.6 1-.1.4-.2.8-.2 1.2 0 .4.1.8.2 1.2.1.4.3.7.6.9.3.3.6.5.9.6.3.2.7.3 1.1.3zM68.7 128.3c-.5 0-.9-.1-1.3-.2s-.7-.4-.9-.6c-.3-.3-.4-.6-.6-1-.1-.4-.2-.8-.2-1.3v-4.8h1.2v4.5c0 .7.2 1.3.6 1.7.4.4.9.6 1.6.6.3 0 .6-.1.9-.2.3-.1.5-.3.7-.5.2-.2.4-.5.5-.8.1-.3.2-.6.2-1v-4.4h1.1v7.8h-1.1v-1.3c-.3.4-.6.8-1 1.1-.4.3-1 .4-1.7.4zM77.4 128.3c-.6 0-1.1-.1-1.7-.3-.6-.2-1.1-.5-1.5-.8l.6-.8c.4.3.9.6 1.3.7.5.2.9.3 1.4.3.5 0 .9-.1 1.2-.3.3-.2.4-.5.4-.9 0-.2-.1-.4-.2-.5-.1-.1-.2-.3-.4-.4l-.6-.3c-.2-.1-.5-.2-.7-.2l-.9-.3c-.3-.1-.6-.2-.8-.4l-.6-.6c-.2-.2-.2-.5-.2-.9 0-.3.1-.6.2-.9.1-.3.3-.5.5-.7.2-.2.5-.3.8-.4.3-.1.7-.2 1.1-.2.5 0 1 .1 1.5.2.5.2.9.4 1.3.6l-.5.9c-.4-.2-.7-.4-1.1-.5-.4-.1-.8-.2-1.2-.2-.5 0-.8.1-1.1.3-.3.2-.4.5-.4.8 0 .2.1.3.2.5l.4.4.6.3c.2.1.5.2.8.2l.9.3c.3.1.6.2.8.4l.6.6c.1.2.2.5.2.9s-.1.7-.2 1c-.1.3-.3.5-.6.7-.2.2-.5.4-.9.5-.4-.1-.8 0-1.2 0zM90 128.3c-.8 0-1.6-.1-2.3-.4-.7-.3-1.4-.7-2-1.3l.7-.9c.6.5 1.1.9 1.7 1.1.6.2 1.2.4 1.9.4s1.3-.2 1.7-.5c.4-.3.6-.8.6-1.3 0-.2 0-.5-.1-.7-.1-.2-.2-.4-.4-.5-.2-.2-.5-.3-.8-.4-.4-.1-.8-.3-1.4-.4-.6-.1-1.1-.3-1.6-.4-.4-.2-.8-.4-1.1-.6-.3-.2-.5-.5-.6-.8-.1-.3-.2-.7-.2-1.1 0-.4.1-.8.3-1.1.2-.4.4-.7.7-.9.3-.3.7-.5 1.1-.6.4-.1.9-.2 1.4-.2.8 0 1.4.1 2 .3.6.2 1.1.5 1.7 1l-.7.9c-.5-.4-1-.7-1.5-.9-.5-.2-1-.3-1.6-.3-.7 0-1.2.2-1.6.5-.4.3-.6.7-.6 1.2 0 .2 0 .5.1.7.1.2.2.4.4.5.2.2.5.3.9.4.4.1.8.3 1.4.4 1.2.2 2 .6 2.6 1.1.6.5.8 1.1.8 1.9 0 .5-.1.9-.3 1.2-.2.4-.4.7-.7.9-.3.3-.7.5-1.1.6-.4.1-.9.2-1.4.2zM96.2 124.7c0 .4.1.8.3 1.1.2.3.4.6.6.8.2.2.5.4.8.5.3.1.6.2 1 .2.5 0 1-.1 1.4-.3.4-.2.7-.5 1.1-.8l.7.6c-.4.4-.8.8-1.3 1.1-.5.3-1.1.4-1.9.4-.5 0-1-.1-1.5-.3-.5-.2-.9-.5-1.2-.8-.3-.4-.6-.8-.8-1.3-.2-.5-.3-1-.3-1.6 0-.6.1-1.1.3-1.6.2-.5.4-.9.8-1.3.3-.4.7-.7 1.2-.9.5-.2 1-.3 1.5-.3.6 0 1.1.1 1.5.3.4.2.8.5 1.1.9.3.4.5.8.7 1.3.2.5.2 1 .2 1.6v.4h-6.2zm5-.9c0-.4-.1-.7-.2-1-.1-.3-.3-.6-.5-.8-.2-.2-.5-.4-.8-.6s-.6-.2-1-.2c-.3 0-.6.1-.9.2-.3.1-.5.3-.8.5-.2.2-.4.5-.5.8-.1.3-.2.7-.3 1h5zM107.6 128.3c-.6 0-1.1-.1-1.6-.3-.5-.2-.9-.5-1.3-.9s-.6-.8-.8-1.3c-.2-.5-.3-1-.3-1.5 0-.6.1-1.1.3-1.6.2-.5.5-.9.8-1.3.4-.4.8-.7 1.3-.9.5-.2 1-.3 1.6-.3.4 0 .7 0 1 .1.3.1.6.2.8.3.2.1.5.3.7.4.2.2.4.4.6.5l-.8.8c-.3-.3-.6-.6-1-.8-.4-.2-.8-.3-1.3-.3-.4 0-.8.1-1.1.2l-.9.6c-.2.3-.4.6-.6 1-.1.4-.2.8-.2 1.2 0 .4.1.8.2 1.2.1.4.3.7.6 1 .3.3.6.5.9.6.3.2.7.2 1.1.2.5 0 .9-.1 1.3-.3.4-.2.7-.5 1-.8l.7.7c-.4.4-.8.8-1.3 1.1-.4.3-1 .4-1.7.4zM115.2 128.3c-.5 0-.9-.1-1.3-.2s-.7-.4-.9-.6c-.3-.3-.5-.6-.6-1-.1-.4-.2-.8-.2-1.3v-4.8h1.2v4.5c0 .7.2 1.3.6 1.7.4.4.9.6 1.6.6.3 0 .6-.1.9-.2.3-.1.5-.3.7-.5.2-.2.4-.5.5-.8.1-.3.2-.6.2-1v-4.4h1.1v7.8h-1.1v-1.3c-.3.4-.6.8-1 1.1-.5.3-1 .4-1.7.4zM121.3 120.4h1.2v2c.1-.3.3-.6.5-.9.2-.3.4-.5.7-.7.3-.2.6-.3.9-.4.3-.1.7-.1 1-.1v1.2h-.1c-.4 0-.8.1-1.2.2s-.7.4-1 .7c-.3.3-.5.7-.7 1.1-.2.4-.2 1-.2 1.5v3.1h-1.2v-7.7zM127.1 117.4h1.3v1.3h-1.3v-1.3zm.1 3h1.2v7.8h-1.2v-7.8zM133.3 128.3c-.3 0-.6 0-.9-.1-.3-.1-.5-.2-.7-.4-.2-.2-.3-.4-.5-.7-.1-.3-.2-.6-.2-1v-4.7h-1v-1h1.1V118h1.2v2.3h2.5v1h-2.5v4.5c0 .5.1.8.4 1 .2.2.6.3.9.3.2 0 .4 0 .6-.1.2 0 .4-.1.6-.2v1c-.2.1-.4.2-.6.2-.4.2-.6.3-.9.3zM137.7 130.6c-.3 0-.6 0-.9-.1-.3-.1-.5-.2-.8-.3l.4-.9c.2.1.4.2.6.2.2 0 .4.1.7.1.4 0 .6-.1.9-.3.2-.2.5-.6.7-1.1l-3.5-7.7h1.3l2.8 6.5 2.5-6.5h1.2l-3.3 8c-.2.4-.3.7-.5 1-.2.3-.4.5-.6.7-.2.2-.4.3-.7.4-.3-.1-.5 0-.8 0zM32 135.6h1.2v10.5H32v-10.5zM35.8 138.4H37v1.3c.3-.4.6-.8 1-1.1.4-.3 1-.4 1.6-.4.5 0 .9.1 1.3.2.4.2.7.4.9.6.3.3.4.6.6 1 .1.4.2.8.2 1.3v4.8h-1.2v-4.5c0-.7-.2-1.3-.6-1.7-.4-.4-.9-.6-1.6-.6-.3 0-.6.1-.9.2-.3.1-.5.3-.7.5-.2.2-.4.5-.5.8-.1.3-.2.6-.2 1v4.4h-1.2v-7.8zM47.3 146.3c-.3 0-.6 0-.9-.1-.3-.1-.5-.2-.7-.4-.2-.2-.3-.4-.5-.7-.1-.3-.2-.6-.2-1v-4.7h-1.1v-1H45V136h1.2v2.3h2.5v1h-2.5v4.5c0 .5.1.8.4 1 .2.2.6.3.9.3.2 0 .4 0 .6-.1.2 0 .4-.1.6-.2v1c-.2.1-.4.2-.6.2-.2.2-.5.3-.8.3zM51 142.7c0 .4.1.8.3 1.1.2.3.4.6.6.8.2.2.5.4.8.5.3.1.6.2 1 .2.5 0 1-.1 1.4-.3.4-.2.7-.5 1.1-.8l.7.6c-.4.4-.8.8-1.3 1.1-.5.3-1.1.4-1.9.4-.5 0-1-.1-1.5-.3-.5-.2-.9-.5-1.2-.8-.4-.4-.6-.8-.8-1.3-.2-.5-.3-1-.3-1.6 0-.6.1-1.1.3-1.6.2-.5.4-.9.8-1.3.3-.4.7-.7 1.2-.9.5-.2 1-.3 1.5-.3.6 0 1.1.1 1.5.3.4.2.8.5 1.1.9.3.4.5.8.7 1.3.2.5.2 1 .2 1.6v.4H51zm5-.9c0-.4-.1-.7-.2-1-.1-.3-.3-.6-.5-.8-.2-.2-.5-.4-.8-.6-.3-.1-.6-.2-1-.2-.3 0-.6.1-.9.2-.3.1-.5.3-.8.5-.2.2-.4.5-.5.8-.1.3-.2.7-.3 1h5zM59 135.2h1.2v10.9H59v-10.9zM62.6 135.2h1.2v10.9h-1.2v-10.9zM66.2 135.4h1.3v1.3h-1.3v-1.3zm0 3h1.2v7.8h-1.2v-7.8zM73.2 148.6c-1.3 0-2.5-.4-3.5-1.1l.5-.9c.4.3.9.6 1.4.7.5.2 1 .3 1.6.3.9 0 1.5-.2 2.1-.7.5-.5.8-1.2.8-2.1v-.9c-.3.4-.8.8-1.2 1.2-.5.3-1.1.5-1.8.5-.5 0-.9-.1-1.3-.3-.4-.2-.8-.4-1.2-.7-.3-.3-.6-.7-.8-1.1-.2-.4-.3-.9-.3-1.5s.1-1.1.3-1.5c.2-.5.5-.8.8-1.1.3-.3.7-.6 1.2-.7.4-.2.9-.3 1.3-.3s.7 0 1 .1c.3.1.6.2.8.3.2.1.5.3.7.5.2.2.4.4.5.6v-1.4h1.2v6.4c0 .6-.1 1.1-.3 1.6-.2.5-.4.8-.7 1.2-.3.4-.8.6-1.3.8-.6 0-1.2.1-1.8.1zm0-4.1c.4 0 .7-.1 1.1-.2.3-.1.6-.3.9-.5.3-.2.5-.5.6-.8.2-.3.2-.7.2-1.1 0-.4-.1-.8-.2-1.1-.2-.3-.4-.6-.6-.8-.3-.2-.6-.4-.9-.5-.3-.1-.7-.2-1.1-.2-.4 0-.7.1-1 .2-.3.1-.6.3-.9.5-.2.2-.4.5-.6.8-.1.3-.2.7-.2 1.1 0 .4.1.7.2 1.1.1.3.3.6.6.8.2.2.5.4.9.5.3.1.6.2 1 .2zM80.1 142.7c0 .4.1.8.3 1.1.2.3.4.6.6.8.2.2.5.4.8.5.3.1.6.2 1 .2.5 0 1-.1 1.4-.3.4-.2.7-.5 1.1-.8l.7.6c-.4.4-.8.8-1.3 1.1-.5.3-1.1.4-1.9.4-.5 0-1-.1-1.5-.3-.5-.2-.9-.5-1.2-.8-.3-.4-.6-.8-.8-1.3-.2-.5-.3-1-.3-1.6 0-.6.1-1.1.3-1.6.2-.5.4-.9.8-1.3.3-.4.7-.7 1.2-.9.5-.2 1-.3 1.5-.3.6 0 1.1.1 1.5.3.5.2.8.5 1.1.9.3.4.5.8.7 1.3.2.5.2 1 .2 1.6v.4h-6.2zm5-.9c0-.4-.1-.7-.2-1-.1-.3-.3-.6-.5-.8-.2-.2-.5-.4-.8-.6s-.6-.2-1-.2c-.3 0-.6.1-.9.2-.3.1-.5.3-.8.5-.2.2-.4.5-.5.8-.1.3-.2.7-.3 1h5zM88 138.4h1.2v1.3c.3-.4.6-.8 1-1.1.4-.3 1-.4 1.6-.4.5 0 .9.1 1.3.2.4.2.7.4.9.6.3.3.4.6.6 1 .1.4.2.8.2 1.3v4.8h-1.2v-4.5c0-.7-.2-1.3-.6-1.7-.4-.4-.9-.6-1.6-.6-.3 0-.6.1-.9.2-.3.1-.5.3-.7.5-.2.2-.4.5-.5.8-.1.3-.2.6-.2 1v4.4H88v-7.8zM100.5 146.3c-.6 0-1.1-.1-1.6-.3-.5-.2-.9-.5-1.3-.9s-.6-.8-.8-1.3c-.2-.5-.3-1-.3-1.5 0-.6.1-1.1.3-1.6.2-.5.5-.9.8-1.3.4-.4.8-.7 1.3-.9.5-.2 1-.3 1.6-.3.4 0 .7 0 1 .1.3.1.6.2.8.3.2.1.5.3.7.4.2.2.4.4.6.5l-.8.8c-.3-.3-.6-.6-1-.8-.4-.2-.8-.3-1.3-.3-.4 0-.8.1-1.1.2l-.9.6c-.2.3-.4.6-.6 1-.1.4-.2.8-.2 1.2 0 .4.1.8.2 1.2.1.4.3.7.6 1 .3.3.6.5.9.6.3.2.7.2 1.1.2.5 0 .9-.1 1.3-.3.4-.2.7-.5 1-.8l.7.7c-.4.4-.8.8-1.3 1.1-.4.3-1 .4-1.7.4zM105.7 142.7c0 .4.1.8.3 1.1.2.3.4.6.6.8.2.2.5.4.8.5.3.1.6.2 1 .2.5 0 1-.1 1.4-.3.4-.2.7-.5 1.1-.8l.7.6c-.4.4-.8.8-1.3 1.1-.5.3-1.1.4-1.9.4-.5 0-1-.1-1.5-.3-.5-.2-.9-.5-1.2-.8-.4-.4-.6-.8-.8-1.3-.2-.5-.3-1-.3-1.6 0-.6.1-1.1.3-1.6.2-.5.4-.9.8-1.3.3-.4.7-.7 1.2-.9.5-.2 1-.3 1.5-.3.6 0 1.1.1 1.5.3.4.2.8.5 1.1.9.3.4.5.8.7 1.3.2.5.2 1 .2 1.6v.4h-6.2zm5-.9c0-.4-.1-.7-.2-1-.1-.3-.3-.6-.5-.8-.2-.2-.5-.4-.8-.6-.3-.1-.6-.2-1-.2-.3 0-.6.1-.9.2-.3.1-.5.3-.8.5-.2.2-.4.5-.5.8-.1.3-.2.7-.3 1h5z"/></g><path fill="#4B5A64" d="M114.2 135.6v.5h-.9v2.3h-.5v-2.3h-.9v-.5h2.3zm2.9 2.8l-.1-1.6v-.8c-.1.2-.2.6-.2.8l-.5 1.5h-.6l-.5-1.5c0-.2-.1-.5-.2-.8v.8l-.1 1.6h-.5l.2-2.7h.8l.5 1.3c.1.2.1.4.2.7.1-.2.1-.5.2-.7l.5-1.3h.8l.2 2.7h-.7z"/></svg>