<svg xmlns="http://www.w3.org/2000/svg" viewBox="0 0 198.89 28.35"><title>embedit</title><polygon points="19.15 11.76 3.92 18.51 19.15 25.26 19.15 28.35 0 19.87 0 17.15 19.15 8.67 19.15 11.76" style="fill:#43b649"/><path d="M40.11,27.18a5,5,0,0,0-5.39-4.94c-4.37,0-6.14,2.94-6.33,4.94ZM28,29.67c-.23,3.09,1.81,5.77,5.81,5.77a6.82,6.82,0,0,0,5.88-2.75l2.11,1.39a9.85,9.85,0,0,1-8.14,3.84c-5.54,0-8.82-3.32-8.82-8.1,0-6.07,4.15-10.06,9.91-10.06,5.05,0,8.52,3.09,8.52,7.88v2Z" transform="translate(-3.54 -10.33)" style="fill:#008fb4"/><path d="M48,35.14l2.19-12.59H47.06l.42-2.41h6l-.38,2,.07.08a9.5,9.5,0,0,1,6.15-2.45,4.26,4.26,0,0,1,4.26,2.71,10.44,10.44,0,0,1,6.75-2.71c3,0,4.52,1.88,4.52,4.07a17.6,17.6,0,0,1-.38,2.87L73,35.14h2.83l-.42,2.41H67l.42-2.41H70L71.45,27a15.48,15.48,0,0,0,.26-2.56,2,2,0,0,0-2.22-2.19c-2.3,0-4.56,1.66-5.66,2.53L62,35.14h2.64l-.42,2.41H56.07l.41-2.41H59L60.44,27a15.5,15.5,0,0,0,.26-2.56,2,2,0,0,0-2.22-2.19c-2.3,0-4.56,1.66-5.65,2.53L51,35.14h2.83l-.42,2.41H44.87l.41-2.41Z" transform="translate(-3.54 -10.33)" style="fill:#008fb4"/><path d="M91.32,22.24c-4.11,0-6.29,4.15-6.29,7.65s1.88,5.54,5.46,5.54c4.37,0,5.84-3.92,5.84-7.35s-1.92-5.84-5-5.84M85,12.74H81.86l.49-2.41h6.15L86.5,22l.08.07a7.18,7.18,0,0,1,5.58-2.3c5,0,7.35,3.81,7.35,8.14,0,5.2-3.28,10-9.2,10a6.68,6.68,0,0,1-6.44-3.66h-.08l-.57,3.28H78.39l.42-2.41h2.37Z" transform="translate(-3.54 -10.33)" style="fill:#008fb4"/><path d="M117.64,27.18a5,5,0,0,0-5.39-4.94c-4.37,0-6.14,2.94-6.33,4.94Zm-12.1,2.49c-.23,3.09,1.81,5.77,5.8,5.77a6.82,6.82,0,0,0,5.88-2.75l2.11,1.39a9.86,9.86,0,0,1-8.14,3.84c-5.54,0-8.82-3.32-8.82-8.1,0-6.07,4.15-10.06,9.91-10.06,5.06,0,8.52,3.09,8.52,7.88v2Z" transform="translate(-3.54 -10.33)" style="fill:#008fb4"/><path d="M131.89,35.44c4.3,0,6.41-3.58,6.41-7.24,0-3.32-2.19-6-5.43-6-4.3,0-6.41,3.58-6.41,7.24s2.26,6,5.43,6m5.32.15-.08-.08a8.24,8.24,0,0,1-5.65,2.41,7.77,7.77,0,0,1-8.18-8.14c0-5.28,3.28-10,9.31-10A7.44,7.44,0,0,1,139,23.07h.08l1.81-10.33h-3.32l.41-2.41h6.37L140,35.14h2.79l-.42,2.41h-5.46Z" transform="translate(-3.54 -10.33)" style="fill:#008fb4"/><polygon points="150.71 0 153.12 0 144.82 27.82 142.41 27.82 150.71 0" style="fill:#43b649"/><path d="M165.71,15.76h-4.33l.53-3.28h4.33Zm-7.16,6.78.38-2.41H165l-2.41,15h3l-.41,2.41h-8.56l.38-2.41h2.6l2-12.59Z" transform="translate(-3.54 -10.33)" style="fill:#008fb4"/><path d="M177,20.13h3.09l-.45,2.41h-3.09L174.76,32a12.1,12.1,0,0,0-.3,2c0,.75.34,1.09,1.25,1.09h2.22l-.45,2.49h-3.69c-1.59,0-2.49-.76-2.49-2.22a20.15,20.15,0,0,1,.34-2.75l1.88-10h-3.05l.45-2.41H174l1.13-6h3Z" transform="translate(-3.54 -10.33)" style="fill:#008fb4"/><polygon points="198.89 17.15 198.89 19.87 179.74 28.35 179.74 25.26 194.97 18.51 179.74 11.76 179.74 8.67 198.89 17.15" style="fill:#43b649"/></svg>