<svg xmlns="http://www.w3.org/2000/svg" width="710" height="118" viewBox="0 0 710 118">
  <g fill="none">
    <path fill="#2F4889" d="M542.586,28.222 C549.595,28.222 554.792,29.184 558.314,31.364 C560.242,32.558 561.704,34.008 562.646,35.795 C563.583,37.579 564.056,39.802 564.056,42.463 C564.056,46.354 562.506,49.608 559.384,52.196 C557.669,53.623 555.77,54.981 553.65,55.811 C553.305,55.943 553.045,56.131 553.045,56.512 C553.045,57.077 553.574,57.205 554.011,57.309 C557.501,58.167 560.421,59.541 562.694,61.445 C566.076,64.285 567.754,68.065 567.754,72.737 C567.754,76.111 567.01,79 565.514,81.4 C564.024,83.804 561.913,85.816 559.188,87.439 C556.852,88.801 554.095,89.791 550.913,90.404 C548.565,90.861 545.976,91.041 543.228,91.109 C541.873,91.145 540.515,91.153 539.16,91.169 C532.444,91.205 526.234,91.285 521.633,91.213 C519.053,91.177 516.901,90.801 515.523,90.584 L515.531,90.568 L515.15,90.456 C514.582751,90.2008868 514.219586,89.63496 514.224,89.013 C514.224,88.336 514.657,87.751 515.262,87.527 C515.642,87.391 516.128,87.431 516.528,87.403 C519.113,87.194 520.828,86.589 521.573,85.591 C522.511,84.329 522.983,81.031 522.983,75.71 L523.184,43.505 C523.216,38.248 522.759,34.965 521.918,33.672 C521.265,32.662 519.786,32.045 517.502,31.824 L516.504,31.716 C515.843332,31.5021331 515.395314,30.8874207 515.394,30.193 C515.394,29.496 515.855,28.895 516.488,28.691 L516.768,28.623 L516.765,28.623 C518.352535,28.3624918 519.956574,28.2151207 521.565,28.182 C525.849,28.078 531.859,28.21 538.467,28.214 C539.854,28.214 541.22,28.222 542.587,28.222 L542.586,28.222 Z M542.43,87.126 C545.4,86.982 547.96,86.02 549.94,84.225 C552.528,81.881 553.834,78.383 553.834,73.715 C553.834,68.905 552.368,65.685 549.406,63.365 C547.631,61.974 545.367,60.992 542.851,60.427 C541.529,60.134 539.585,59.962 538.303,60.395 C537.181,60.771 536.303,61.685 535.975,62.831 C535.795,63.461 535.838,64.105 535.838,64.751 L535.71,76.427 C535.67,80.122 535.859,82.622 536.151,83.884 C536.44,85.147 537.093,86.076 538.147,86.561 C539.481,87.178 540.987,87.191 542.43,87.126 L542.43,87.126 Z M541.789,55.494 C544.097,55.057 546.053,54.244 547.507,53.046 C549.783,51.171 550.913,47.849 550.913,43.822 C550.913,39.67 549.743,36.621 547.411,34.673 C546.021,33.515 544.149,32.542 541.937,32.121 C540.643,31.876 539.313,31.876 538.002,31.981 C535.778,32.157 535.838,33.183 535.838,35.331 L535.838,50.758 C535.838,51.515 535.766,52.368 535.991,53.102 C536.354775,54.2902826 537.305997,55.2067219 538.507,55.526 C539.521,55.795 540.759,55.686 541.789,55.494 L541.789,55.494 Z M243.053,50.334 L243.161,49.251 L243.751,48.674 L244.917,48.502 C245.297,48.458 245.686,48.414 246.083,48.362 C248.531,48.057 250.547,47.797 252.093,47.588 C252.57,47.524 253.287,47.372 253.773,47.372 C254.261,47.372 254.682,47.668 254.863,48.097 L254.954,49.039 C254.954,60.11 254.986,71.149 254.986,82.237 C255.066,84.874 255.607,87.643 258.665,87.803 L258.725,87.803 L258.965,87.819 L259.03,87.823 L259.03,87.831 C259.759,87.971 260.316,88.565 260.316,89.39 C260.316,90.216 259.599,91.029 258.725,90.98 L258.601,90.973 L249.256,90.973 L248.944,90.981 C247.481861,90.981278 246.073032,90.4319527 244.997,89.442 C244.031,88.677 243.574,87.419 242.841,87.146 C241.959,86.818 240.565,87.254 238.481,88.616 C236.858,89.655 234.378,90.68 233.08,91.133 C231.785,91.59 230.387,91.818 228.896,91.818 C224.873,91.818 221.772,90.632 219.6,88.264 C217.424,85.896 216.338,82.762 216.338,78.867 C216.338,71.447 216.282,64.109 216.282,56.737 C216.282,54.985 216.102,53.831 215.745,53.282 C215.392,52.729 214.559,52.357 213.261,52.16 C212.76,52.08 212.067,52.056 211.586,51.828 C211.03459,51.5638937 210.686006,51.0043671 210.692,50.393 C210.696,49.796 211.089,49.211 211.646,48.951 C212.046,48.766 212.576,48.806 213.008,48.786 C214.872,48.694 216.975,48.558 219.295,48.269 C221.752,47.965 223.763,47.704 225.314,47.496 C225.783,47.432 226.5,47.276 226.993,47.276 C227.478,47.276 227.903,47.576 228.079,48.005 L228.171,48.939 C228.171,57.719 228.215,67.652 228.215,76.435 C228.215,79.16 228.816,81.172 230.018,82.47 C231.216,83.768 232.823,84.417 234.835,84.417 C236.51,84.417 238.221,83.928 239.975,82.951 C241.855429,81.9344716 243.045777,79.9870805 243.093,77.85 C243.051616,68.6777289 243.038283,59.5053527 243.053,50.333 L243.053,50.334 Z M426.662,77.297 L426.658,69.907 L426.658,69.815 C426.656346,68.7821327 425.818868,67.9455501 424.786,67.945 L423.796,68.229 L420.13,70.304 C416.66,72.276 414.837,75.434 414.909,78.711 C414.977,81.957 417.546,84.598 420.767,84.598 C423.287,84.598 425.447,83.007 426.281,80.771 C426.714,79.617 426.661,78.499 426.661,77.297 L426.662,77.297 Z M438.15,58.812 L438.15,80.57 C438.15,82.518 438.394,83.928 438.88,84.806 C439.292,85.547 439.805,85.972 440.43,86.084 C441.446671,86.2539233 442.191966,87.1332273 442.193,88.164 C442.193,88.945 441.764,89.622 441.135,89.987 L441.139,89.991 C439.36,91.017 437.236,91.794 435.032,91.818 C433.029,91.818 431.342,91.338 429.996,90.436 C428.461,89.418 427.699,87.655 425.568,87.655 C423.716,87.655 422.47,89.21 421.08,90.179 C419.617,91.205 418.15,91.819 415.81,91.819 C412.256,91.819 409.335,90.564 407.03,88.068 C404.743,85.568 403.589,82.826 403.589,79.841 C403.589,74.973 406.089,71.535 411.086,69.523 C413.875,68.421 416.676,67.303 419.456,66.117 C421.529,65.231 423.22,64.462 424.522,63.805 L424.534,63.797 C425.831543,63.2063779 426.66485,61.9126403 426.666,60.487 L426.662,60.347 L426.662,59.105 C426.662,54.677 425.335,50.926 421.48,50.778 C414.62,50.513 414.04,56.432 413.19,60.84 C412.87,62.479 411.479,63.388 410.016,63.388 C408.91,63.388 407.74,62.971 406.51,62.126 C405.015,61.092 405.007,59.982 405.007,58.812 C405.007,51.908 412.537,46.526 421.492,46.647 C431.775,46.783 438.15,49.211 438.15,58.812 L438.15,58.812 Z M460.505,71.747 L460.509,89.731 L460.509,89.763 C460.509,90.4202189 459.976219,90.953 459.319,90.953 L459.275,90.949 L459.275,90.953 L449.815,90.953 C449.165,90.953 448.632,90.42 448.632,89.763 L448.632,73.16 L448.612,73.16 L448.612,58.636 C448.612,56.556 448.4,55.178 447.979,54.496 C447.651,53.956 447.006,53.639 445.984,53.523 C445.162,53.435 444.264,53.571 443.484,53.254 C442.919592,53.0202055 442.540389,52.4821576 442.51,51.872 C442.482,51.275 442.842,50.67 443.383,50.382 L444.233,50.177 C446.609,49.844 448.845,49.435 450.949,48.995 C452.423,48.69 455.068,48.43 458.682,47.545 C459.516,47.364 460.365,47.448 460.453,48.37 C460.566,51.527 462.024,52.357 466.059,49.724 C467.682,48.686 469.221,48.089 470.515,47.636 C471.813,47.179 473.212,46.951 474.702,46.951 C478.726,46.951 481.827,48.137 483.999,50.505 C486.171,52.874 487.261,56.007 487.261,59.898 C487.261,64.61 487.281,68.826 487.297,73.161 L487.273,73.161 L487.277,81.308 C487.277,84.173 487.553,87.598 490.963,87.775 L491.023,87.775 L491.268,87.791 L491.328,87.795 L491.324,87.803 C492.057,87.943 492.61,88.537 492.61,89.362 C492.61,90.187 491.9,91.001 491.023,90.949 L490.899,90.945 L481.559,90.945 L481.242,90.953 C478.024,90.953 475.384,88.316 475.384,85.066 L475.4,84.666 L475.4,73.16 C475.388,69.55 475.384,65.944 475.384,62.333 C475.384,59.604 474.783,57.597 473.584,56.295 C472.382,55 470.776,54.347 468.764,54.347 C467.089,54.347 465.378,54.84 463.623,55.814 C461.74362,56.8311364 460.553615,58.7775847 460.505,60.914 C460.521,64.525 460.513,68.136 460.505,71.746 L460.505,71.747 Z M388.731,27.236 C390.746,27.236 392.433,27.92 393.796,29.279 C395.158,30.645 395.839,32.332 395.839,34.344 C395.839,36.291 395.158,37.946 393.796,39.309 C392.433,40.671 390.746,41.352 388.731,41.352 C386.851,41.352 385.196,40.671 383.77,39.309 C382.34,37.946 381.626,36.291 381.626,34.344 C381.626,32.396 382.327,30.721 383.718,29.331 C385.116,27.936 386.788,27.235 388.731,27.235 L388.731,27.236 Z M389.965,90.944 L389.652,90.952 C386.435,90.952 383.79,88.315 383.79,85.065 L383.806,84.665 L383.806,59.794 C383.806,57.174 384.175,54.448 381.273,53.711 C380.644,53.551 379.53,53.467 378.993,53.211 C378.427277,52.9407192 378.069591,52.3669391 378.076,51.74 C378.08,51.122 378.481,50.525 379.054,50.26 C379.458,50.069 380.047,50.037 380.476,49.976 C382.468,49.668 384.363,49.371 386.142,48.986 C388.687,48.438 391.375,47.973 393.904,47.352 C394.737,47.172 395.583,47.256 395.671,48.177 L395.683,81.307 C395.683,84.173 395.959,87.599 399.373,87.775 L399.43,87.775 L399.674,87.795 L399.734,87.795 L399.734,87.803 C400.467,87.943 401.016,88.541 401.016,89.362 C401.016,90.187 400.307,91.001 399.43,90.952 L399.305,90.945 L389.965,90.945 L389.965,90.944 Z M372.45,56.408 C372.466,56.5 372.474,56.128 372.474,56.696 C372.474,57.266 372.27,58.283 371.128,58.467 C369.986,58.652 369.252,57.971 368.988,57.233 C367.638,53.575 364.808,50.733 360.417,50.733 C358.862,50.733 356.442,51.287 355.34,52.389 C354.234,53.491 353.68,54.789 353.68,56.284 C353.68,57.646 354.318,58.928 355.58,60.126 C359.763,64.093 367.12,64.061 371.709,68.353 C374.237,70.689 375.507,73.71 375.507,77.409 C375.507,82.013 373.56,85.651 369.665,88.309 C366.227,90.649 362.168,91.814 357.495,91.814 C354.835,91.814 352.35,91.426 350.05,90.648 C347.975,89.947 346.384,89.11 345.282,88.144 L345.282,88.14 L344.789,87.399 L344.789,87.391 C344.509,86.473 344.216,84.83 343.915,82.47 C343.768213,81.3157587 343.642858,80.1588929 343.539,79 L343.535,78.298 C343.659,77.408 344.436,76.708 345.362,76.708 C346.152,76.708 346.829,77.201 347.102,77.89 C349.422,84.009 352.527,87.507 358.762,87.727 C360.577,87.787 362.055,87.158 363.194,86.02 C364.328,84.886 364.897,83.411 364.897,81.592 C364.897,79.969 364.311,78.511 363.145,77.212 C361.975,75.914 360.092,74.748 357.495,73.71 C351.589,71.434 344.068,66.754 344.015,59.49 C343.968,52.397 349.565,48.638 355.812,47.264 C360.585,46.214 365.433,46.955 369.986,48.798 L370.242,48.911 L370.731,49.391 L370.935,49.912 C371.195,50.686 371.505,51.816 371.857,53.29 C372.225,54.853 372.181,54.89 372.454,56.408 L372.45,56.408 L372.45,56.408 Z M322.826,77.297 L322.822,69.907 L322.822,69.815 C322.821839,69.1355189 322.453118,68.5095941 321.85889,68.1800676 C321.264662,67.8505412 320.538448,67.8692747 319.962,68.229 L316.295,70.304 C312.825,72.276 311.001,75.434 311.073,78.711 C311.142,81.957 313.714,84.598 316.932,84.598 C319.456,84.598 321.612,83.007 322.45,80.771 C322.878,79.617 322.826,78.499 322.826,77.297 L322.826,77.297 Z M334.314,58.812 L334.314,80.57 C334.314,82.518 334.559,83.928 335.044,84.806 C335.457,85.547 335.969,85.972 336.591,86.084 C337.61067,86.2504819 338.359812,87.1308293 338.361,88.164 C338.361,88.945 337.933,89.622 337.3,89.987 L337.304,89.991 C335.524,91.017 333.404,91.794 331.197,91.818 C329.197,91.818 327.51,91.338 326.16,90.436 C324.63,89.418 323.864,87.655 321.732,87.655 C319.885,87.655 318.635,89.21 317.244,90.179 C315.782,91.205 314.315,91.819 311.971,91.819 C308.421,91.819 305.5,90.564 303.196,88.068 C300.907,85.568 299.753,82.826 299.753,79.841 C299.753,74.973 302.253,71.535 307.251,69.523 C310.044,68.421 312.841,67.303 315.621,66.117 C317.697,65.231 319.388,64.462 320.686,63.805 L320.698,63.797 L320.702,63.797 C321.996419,63.2040196 322.826281,61.9107789 322.826,60.487 L322.826,59.105 C322.826,54.677 321.5,50.926 317.649,50.778 C310.781,50.513 310.208,56.432 309.354,60.84 C309.034,62.479 307.644,63.388 306.181,63.388 C305.075,63.388 303.909,62.971 302.679,62.126 C301.18,61.092 301.172,59.982 301.172,58.812 C301.172,51.908 308.702,46.526 317.662,46.647 C327.939,46.783 334.314,49.211 334.314,58.812 L334.314,58.812 Z M273.403,90.957 L273.086,90.969 C269.869,90.969 267.228,88.329 267.228,85.082 L267.244,84.682 L267.244,59.806 C267.244,57.189 267.609,54.46 264.708,53.727 C264.078,53.567 262.968,53.479 262.436,53.222 C261.868487,52.9535146 261.508644,52.3797954 261.514,51.752 C261.518,51.134 261.919,50.537 262.492,50.272 C262.896,50.085 263.482,50.052 263.914,49.988 C265.906,49.68 267.801,49.388 269.58,49.003 C272.125,48.453 274.813,47.985 277.342,47.368 C278.175,47.188 279.021,47.272 279.109,48.189 C279.129,49.151 279.153,50.602 279.169,51.247 C279.205,52.565 280.391,52.95 281.469,51.94 C281.922,51.511 282.643,50.842 282.932,50.565 C284.306,49.391 285.657,48.518 287.232,47.712 C288.185326,47.2179233 289.243249,46.9597011 290.317,46.959 C292.2,46.959 293.755,47.54 294.989,48.71 C296.219,49.876 296.836,51.275 296.836,52.894 C296.836,54.452 296.383,55.883 295.474,57.181 C294.564,58.475 293.494,59.353 292.26,59.806 C291.743,60.002 291.319,60.098 290.994,60.098 C290.413,60.098 289.828,59.874 289.243,59.418 C287.556,58.055 285.933,57.373 284.374,57.373 C283.272,57.373 282.314,57.682 281.505,58.299 C279.313,59.966 279.117,62.402 279.117,64.863 L279.117,81.323 C279.117,84.189 279.397,87.611 282.807,87.791 L282.867,87.791 L283.108,87.807 L283.172,87.807 L283.172,87.819 C283.902,87.959 284.454,88.553 284.454,89.378 C284.454,90.203 283.745,91.013 282.868,90.965 L282.743,90.957 L273.403,90.957 L273.403,90.957 Z M183.139,28.126 C188.277,28.13 193.009,28.046 196.856,28.054 C199.673,28.058 202.013,28.402 203.704,28.574 L203.748,28.587 C204.341,28.647 204.806,29.144 204.814,29.749 L204.818,29.769 L204.818,29.773 L205.498,39.157 C205.535,39.67 205.571,40.119 205.331,40.616 C204.975414,41.3512377 204.231706,41.8193545 203.415,41.822 C202.649649,41.8154611 201.946412,41.3995477 201.572,40.732 L201.308,40.071 C200.55,37.687 199.681,35.988 198.715,34.998 C197.288,33.539 193.778,31.836 188.2,31.836 L184.402,31.836 C182.526,31.836 181.4,31.981 181.048,32.273 C180.691,32.566 180.511,33.563 180.511,35.243 L180.511,50.95 C180.511,51.711 180.439,52.561 180.659,53.294 C181.022726,54.4847915 181.975642,55.4032965 183.179,55.723 C183.821,55.891 184.514,55.843 185.171,55.843 L187.619,55.843 C191.771,55.843 194.283,55.47 195.161,54.725 C195.861,54.124 196.451,52.489 196.924,49.816 L197.112,48.886 C197.388688,48.1577927 198.084023,47.674116 198.863,47.668 C199.668423,47.6673238 200.385787,48.177146 200.65,48.938 L200.646,67.74 C200.374767,68.4816526 199.672652,68.9778721 198.883,68.986 C198.175405,68.9810972 197.529489,68.5823646 197.208,67.952 C197.036,67.608 197.008,67.222 196.944,66.846 C196.504,64.282 195.91,62.671 195.161,62.026 C194.219,61.212 191.707,60.808 187.619,60.808 L184.951,60.808 C184.273,60.808 183.632,60.78 182.971,61.004 C181.845459,61.3861899 180.977704,62.2942709 180.647,63.436 C180.467,64.066 180.511,64.71 180.511,65.36 L180.383,76.339 C180.343,80.034 180.531,82.534 180.819,83.796 C181.108,85.058 181.765,85.984 182.815,86.473 C183.58,86.826 184.554,87.01 185.688,87.106 C187.484227,87.2548934 189.287315,87.3043023 191.089,87.254 C198.755,87.066 202.213,85.234 205.291,77.301 C205.627,76.563 205.88,75.265 207.567,75.229 C208.561786,75.2290242 209.426654,75.9114882 209.658,76.879 C209.787,77.437 209.63,77.994 209.53,78.543 C209.286,79.873 209.005,81.303 208.697,82.83 C208.1,85.812 207.583,88.008 207.17,89.454 L207.15,89.486 C206.995497,89.9232575 206.601598,90.2313568 206.14,90.276 L206.124,90.28 C204.617,90.656 202.67,90.837 200.206,90.845 C195.81,90.853 190.1,91.045 183.833,91.081 C177.113,91.117 170.906,91.197 166.306,91.129 C163.721,91.085 161.569,90.712 160.191,90.496 L160.199,90.48 L159.822,90.368 C159.255142,90.112588 158.89241,89.5467249 158.897,88.925 C158.897,88.248 159.329,87.667 159.934,87.439 C160.315,87.302 160.8,87.346 161.201,87.314 C163.785,87.11 165.501,86.497 166.246,85.504 C167.183,84.245 167.656,80.947 167.656,75.622 L167.856,43.417 C167.889,38.16 167.428,34.882 166.59,33.587 C165.933,32.574 164.458,31.957 162.174,31.737 L161.177,31.624 C160.515198,31.4140989 160.065931,30.7992901 160.067,30.105 C160.067,29.405 160.527,28.807 161.157,28.603 L161.437,28.539 L161.437,28.535 C163.024627,28.2746177 164.628563,28.1259194 166.237,28.09 C170.521,27.99 176.532,28.122 183.139,28.126 L183.139,28.126 Z M595.352,77.894 L595.344,70.504 L595.344,70.413 C595.344531,69.916352 595.147474,69.4398926 594.796291,69.0887092 C594.445107,68.7375259 593.968648,68.5404685 593.472,68.541 L592.482,68.821 L588.816,70.901 C585.346,72.869 583.523,76.031 583.595,79.308 C583.663,82.554 586.235,85.195 589.453,85.195 C591.973,85.195 594.133,83.6 594.971,81.368 C595.4,80.21 595.351,79.096 595.351,77.894 L595.352,77.894 Z M606.84,59.414 L606.84,81.168 C606.84,83.115 607.08,84.525 607.565,85.403 C607.978,86.144 608.495,86.573 609.115,86.685 C610.133908,86.8494076 610.882928,87.7289127 610.883,88.761 C610.883,89.542 610.454,90.22 609.821,90.584 L609.825,90.588 C608.046,91.61 605.926,92.391 603.722,92.411 C601.719,92.411 600.032,91.931 598.685,91.037 C597.151,90.019 596.385,88.252 594.254,88.252 C592.406,88.252 591.156,89.807 589.766,90.781 C588.303,91.798 586.836,92.411 584.496,92.411 C580.942,92.411 578.021,91.165 575.716,88.665 C573.429,86.165 572.279,83.424 572.279,80.438 C572.279,75.57 574.775,72.132 579.772,70.12 C582.576722,69.021186 585.36696,67.8857557 588.142,66.714 C590.219,65.828 591.91,65.055 593.212,64.402 L593.22,64.394 L593.224,64.394 C594.519466,63.8016043 595.350812,62.5084875 595.352,61.084 L595.348,60.94 L595.348,59.706 C595.348,55.274 594.021,51.523 590.17,51.375 C583.306,51.11 582.73,57.033 581.876,61.437 C581.556,63.076 580.169,63.985 578.702,63.985 C577.6,63.985 576.426,63.568 575.2,62.723 C573.701,61.689 573.693,60.579 573.693,59.413 C573.693,52.505 581.223,47.123 590.183,47.243 C600.465,47.38 606.84,49.808 606.84,59.413 L606.84,59.414 Z M629.19,72.04 L629.198,90.02 L629.198,90.056 C629.195796,90.7116562 628.66366,91.2420037 628.008,91.242 L618.505,91.242 C617.855,91.242 617.318,90.709 617.318,90.056 L617.322,90.02 L617.318,90.02 L617.318,73.454 L617.298,73.454 L617.298,58.924 C617.298,56.849 617.09,55.47 616.669,54.784 C616.341,54.248 615.692,53.924 614.669,53.811 C613.849,53.723 612.951,53.859 612.173,53.539 C611.607202,53.3087834 611.227211,52.7702347 611.2,52.16 C611.172,51.563 611.528,50.962 612.07,50.67 L612.923,50.47 C615.295,50.133 617.531,49.724 619.635,49.287 C621.109,48.979 623.754,48.718 627.372,47.833 C628.202,47.653 629.052,47.74 629.139,48.658 C629.255,51.816 630.71,52.649 634.749,50.012 C636.372,48.975 637.907,48.378 639.205,47.925 C640.503,47.472 641.898,47.244 643.388,47.244 C647.416,47.244 650.513,48.43 652.688,50.794 C654.861,53.162 655.947,56.296 655.947,60.19 C655.947,64.903 655.967,69.114 655.987,73.454 L655.963,73.454 L655.963,81.596 C655.963,84.461 656.243,87.887 659.653,88.068 L659.713,88.068 L659.95,88.084 L660.014,88.084 L660.014,88.092 C660.747,88.232 661.3,88.825 661.3,89.651 C661.3,90.48 660.587,91.289 659.713,91.241 L659.589,91.233 L650.245,91.233 L649.932,91.241 C646.71,91.241 644.07,88.601 644.07,85.355 L644.086,84.955 L644.086,73.453 C644.078,69.839 644.07,66.233 644.07,62.622 C644.07,59.897 643.473,57.885 642.27,56.587 C641.072,55.289 639.462,54.64 637.454,54.64 C635.779,54.64 634.064,55.125 632.313,56.106 C630.432101,57.1206231 629.240244,59.0664566 629.191,61.203 C629.207,64.818 629.203,68.424 629.191,72.038 L629.19,72.04 Z M666.057,40.415 C666.057,56.711 666.065,73.729 666.065,90.026 L666.069,90.026 L666.065,90.062 C666.065,90.715 666.589,91.24 667.239,91.24 L676.65,91.24 C677.303,91.24 677.828,90.711 677.828,90.062 L677.828,90.026 C677.828,84.553 677.852,79.063 677.88,73.577 C677.888,71.706 679.583,71.341 680.449,72.764 L690.775,87.53 C692.165,89.517 693.228,91.028 696.032,91.092 L696.341,91.084 L707.533,91.084 L707.657,91.092 C708.507,91.14 709.204,90.335 709.204,89.517 C709.204,88.7 708.663,88.115 707.95,87.975 L707.95,87.967 L707.89,87.963 L707.657,87.946 L707.597,87.946 C704.463,87.838 701.642,83.947 698.861,80.546 C697.611,79.023 692.106,71.654 689.148,67.562 C687.233,65.274 688.018,63.976 689.97,62.029 L696.533,55.225 C700.809,50.468 703.442,52.131 703.45,49.563 C703.482,48.649 702.732,47.803 701.262,47.868 C697.692,47.852 692.602,47.772 689.817,47.896 C687.634,47.896 687.59,50.813 689.461,51.202 C691.849,51.658 690.911,53.738 689.966,54.924 C687.129,58.687 684.288,62.454 681.446,66.216 C680.526,67.478 679.696,67.855 678.998,67.615 C678.461,67.426 677.945,66.961 677.92,65.579 C677.985,53.586 678.129,40.871 677.916,28.906 C677.828,27.993 676.991,27.912 676.166,28.089 C673.661,28.702 670.892,29.163 668.372,29.708 C666.604,30.092 664.729,30.381 662.758,30.685 C662.328,30.749 661.748,30.782 661.343,30.965 C660.778,31.235 660.381,31.823 660.377,32.432 C660.373,33.074 660.738,33.631 661.287,33.891 C661.82,34.143 662.918,34.231 663.543,34.388 C666.416,35.118 666.056,37.818 666.056,40.415 L666.057,40.415 Z"/>
    <path fill="#FB255B" d="M52.727,115.644 C55.1427875,116.572829 57.7088051,117.049424 60.297,117.05 C62.877,117.05 65.458,116.59 67.882,115.656 C95.755,99.651 118.612,60.218 120.082,28.237 C118.468,2.191 79.402,0.5 60.312,0.617 C41.617,0.5 2.123,2.76 0.544,28.248 C2.023,60.217 24.867,99.634 52.728,115.643"/>
    <path fill="#EB7A8C" d="M61.643,2.512 C60.978,2.512 60.333,2.512 59.7,2.516 C59.243,2.516 58.77,2.512 58.29,2.512 C39.92,2.512 4.418,4.732 2.94,27.637 C3.609,41.553 7.175,56.584 15.798,70.677 C32.175,44.947 118.816,27.697 114.144,19.146 C104.94,3.926 78.277,2.512 61.644,2.512"/>
    <path fill="#FFF" d="M60.094,90.563 L60.234,90.407 C72.797,76.647 82.598,65.907 95.16,52.151 C99.047,47.896 101.664,45.604 98.01,41.16 L90.396,31.908 L71.735,27.083 L48.458,27.083 L29.797,31.908 C26.936,35.382 24.896,37.858 22.039,41.332 C19.322,44.626 21.822,48.509 24.699,51.662 L59.958,90.407 L60.094,90.563 L60.094,90.563 Z"/>
    <path fill="#FC255C" d="M89.944,33.503 C85.953,36.287 80.96,37.498 75.891,38.567 C78.52,38.335 79.891,38.215 82.523,37.978 C84.238,37.826 85.56,37.61 86.763,38.828 L92.569,44.678 C91.391,42.542 90.212,40.403 89.034,38.263 C88.301,36.929 88.277,36.965 88.938,35.594 C89.275,34.901 89.611,34.2 89.944,33.503 M28.758,50.242 C31.864,50.932 32.361,51.04 35.466,51.729 C37.506,52.178 40.731,51.749 41.649,49.878 L44.975,43.098 C44.686,47.726 42.19,53.328 47.511,54.394 L57.289,57.808 C53.033,57.471 49.134,56.329 47.367,57.339 C45.287,58.521 46.537,60.477 47.159,61.919 L55.874,82.119 C50.336,71.993 45.504,64.195 38.552,57.563 C35.722,54.871 32.417,52.983 28.758,50.243 M30.247,33.503 C33.705,36.007 38.974,37.309 44.303,38.567 C41.607,38.331 38.91,38.091 36.217,37.85 C34.547,37.702 34.55,37.702 33.364,38.896 L27.622,44.678 C28.88,42.394 30.134,40.106 31.397,37.818 C31.906,36.901 31.889,36.937 31.441,35.991 C31.04,35.161 30.639,34.336 30.247,33.503 M60.205,52.125 L60.08,52.655 L59.984,52.125 C59.471,49.717 58.954,47.305 58.438,44.897 C57.837,42.067 58.068,42.127 55.308,41.29 C52.888,40.553 50.471,39.82 48.055,39.09 C56.0214549,40.4765121 64.1675451,40.4765121 72.134,39.09 C61.038,42.456 62.633,40.757 60.204,52.125 M92.318,50.243 L85.61,51.73 C83.57,52.178 80.345,51.75 79.427,49.878 L76.106,43.098 C76.39,47.726 78.89,53.328 73.569,54.394 L63.792,57.808 C68.043,57.472 71.942,56.33 73.709,57.339 C75.789,58.522 74.539,60.477 73.918,61.919 L65.202,82.119 C70.74,71.993 75.577,64.196 82.525,57.564 C85.354,54.871 88.66,52.984 92.318,50.243"/>
  </g>
</svg>
