<svg width="151" height="28" viewBox="0 0 151 28" xmlns="http://www.w3.org/2000/svg" xmlns:xlink="http://www.w3.org/1999/xlink"><defs><path id="a" d="M.542.165h12.654V18.75H.542z"/></defs><g fill="none" fill-rule="evenodd"><path fill="#FEFEFE" d="M74.469 7.926l.005.002-.001-.002z"/><path d="M74.472 7.885l-1.097-.088c-1.507 0-2.758.776-3.628 2.134V8.04h-2.914l-.001 14.07h3.169l-.007-6.955c0-2.823 1.172-4.38 3.3-4.38l.97.15.391.112.109-3.11-.292-.043z" fill="#FEFEFE"/><g transform="translate(137 3.373)"><mask id="b" fill="#fff"><use xlink:href="#a"/></mask><path d="M6.11 10.609l6.194-5.93H8.416L3.71 9.415V.165H.543v18.578l3.164.007v-6.593c.596.716 5.457 6.58 5.457 6.58h4.032L6.11 10.61" fill="#FEFEFE" mask="url(#b)"/></g><path d="M129.74 7.718c-1.9 0-3.376.757-4.439 2.173V8.046h-2.942v14.069h3.162v-7.062c0-2.832 1.242-4.522 3.322-4.522.801 0 1.402.21 1.834.645.601.599.892 1.636.891 3.17v7.762h3.165v-8.333c0-3.961-1.726-6.057-4.994-6.057M60.081 8.05v6.584c0 1.93-.487 5.172-3.74 5.172-1.802-.11-2.508-1.355-2.508-4.44l.001-7.128v-.19H50.747v8.338c0 3.95 1.835 6.04 5.307 6.04 1.681 0 3.181-.713 4.102-1.848v1.537h3.017V8.05h-3.092zM82.754 19.758c-2.658 0-3.87-2.423-3.87-4.676.002-2.266 1.359-4.676 3.87-4.676 2.494 0 3.84 2.41 3.84 4.676 0 2.253-1.202 4.676-3.84 4.676m5.046-10c-1.292-1.292-3.037-1.975-5.046-1.975-4.188 0-7.113 3-7.114 7.299 0 4.163 3.057 7.303 7.114 7.303 4.043 0 7.092-3.14 7.092-7.303 0-2.113-.726-4.004-2.046-5.324M101.953 15.202c0 1.127-.347 2.72-1.338 3.733-.563.571-1.245.86-2.03.86-2.476 0-3.605-2.408-3.605-4.649.001-2.264 1.138-4.702 3.63-4.702.87 0 1.59.286 2.138.854.77.788 1.204 2.092 1.204 3.595V15.203m1.27-5.807c-1.044-1.046-2.422-1.575-4.091-1.575-1.814 0-3.19.576-4.15 1.655l.002-5.938h-3.095v18.567h2.984V20.67c1.034 1.087 2.58 1.748 4.288 1.748 4.456 0 6.038-4.058 6.038-7.534 0-2.23-.72-4.23-1.976-5.488M112.51 19.922c-1.191-.016-2.426-.78-2.426-2.031 0-2.252 3.165-2.496 4.525-2.496 0 0 .967.03 1.348.04v1.1c0 .998-.338 1.88-.952 2.487-.606.599-1.467.912-2.494.9zm6.732 2.189l-.052-.361-.105-2.612v-5.603c.002-2.015-.466-3.465-1.433-4.431-.952-.954-2.368-1.417-4.327-1.417-2.058-.002-3.686.719-4.69 1.324l-.104.063-.06.159.279 2.738.462-.396c.95-.806 2.376-1.307 3.717-1.305 1.998 0 2.889.82 2.99 2.674l-2.297-.046c-2.481 0-6.681 1.05-6.681 4.993 0 2.929 1.946 4.609 5.346 4.609h.005c1.969 0 3.219-.928 3.93-1.674v1.285h3.02zM41.806 10.023c1.788 0 2.887 1.296 3.145 3.615h-6.49c.34-2.223 1.595-3.615 3.345-3.615zm6.212 4.592c0-4.35-2.327-7.052-6.074-7.052-4.006 0-6.7 2.954-6.703 7.353 0 4.704 2.694 7.626 7.03 7.626 1.752 0 3.21-.26 4.459-.792l.114-.049.078-.157v-2.798l-.462.252c-1.252.652-2.446.97-3.647.97-2.535 0-4.117-1.469-4.413-4.002h9.617v-1.35zM13.446 24.874c-5.908 0-10.696-4.789-10.696-10.696S7.538 3.481 13.446 3.481c2.565 0 4.92.904 6.762 2.41l.022.018c2.422 1.994 3.158 4.592 3.174 6.563v.15a7.66 7.66 0 01-.8 3.176 6.092 6.092 0 01-2.42 2.581l-.016.006c-2.442 1.443-5.686.864-6.648-1.49l.007-.002c.127.034.276.064.445.072 1.575.067 2.918-1.126 3.001-2.7a3.566 3.566 0 00-3.374-3.752 4.445 4.445 0 00-2.808.809l-.006.003c-3.73 2.703-2.24 10.546 4.938 10.802 3.464.123 6.598-1.934 7.98-4.917l.017-.048c-1.29 4.455-5.402 7.712-10.274 7.712M23.884 1H2.49A2.492 2.492 0 000 3.493v21.39a2.491 2.491 0 002.488 2.49h21.394a2.492 2.492 0 002.491-2.49V3.493A2.49 2.49 0 0023.884 1" fill="#FEFEFE"/></g></svg>