<svg xmlns="http://www.w3.org/2000/svg" xmlns:xlink="http://www.w3.org/1999/xlink" width="122" height="35" viewBox="0 0 122 35">
  <defs>
    <polygon id="experian-logo-a" points=".211 .056 129.071 .056 129.071 42.965 .211 42.965"/>
  </defs>
  <g fill="none" fill-rule="evenodd" transform="matrix(1 0 0 -1 -7.133 40.506)">
    <mask id="experian-logo-b" fill="#fff">
      <use xlink:href="#experian-logo-a"/>
    </mask>
    <g mask="url(#experian-logo-b)">
      <g transform="translate(7.04 5.633)">
        <path fill="#007DC3" fill-rule="nonzero" d="M7.0406325,7.0406325 C7.80242894,7.80242894 8.11432896,8.99792834 8.11432896,11.0474565 C8.11432896,13.8376591 7.16102732,15.2929579 5.32483036,15.2929579 C3.27459818,15.2929579 2.03685498,13.5989817 2.03685498,10.7601986 C2.03685498,8.0425145 3.32177041,6.32460017 5.32483036,6.32460017 C5.99369045,6.32460017 6.59355234,6.567502 7.0406325,7.0406325 L7.0406325,7.0406325 Z M2.03685498,13.9791758 C2.68318505,15.3858942 3.54003002,16.9813015 5.91765162,16.9813015 C8.51846126,16.9813015 10.2363756,14.5727011 10.2363756,10.9017154 C10.2363756,7.11596727 8.4698809,4.65878653 5.75571707,4.65878653 C3.60832416,4.65878653 2.80005955,6.16196156 2.05516063,7.6651366 L2.05516063,0.418213571 L0.0570291232,0.418213571 L0.0570291232,16.7433281 L2.03685498,16.7433281 L2.03685498,13.9791758 Z" transform="translate(62.694 3.713)"/>
        <path fill="#007DC3" fill-rule="nonzero" d="M8.448759,7.74469575 C8.25654973,11.3868149 5.73177892,11.3868149 5.42199109,11.3868149 C3.56326411,11.3868149 2.4445076,10.0751451 2.32692904,7.74469575 L8.448759,7.74469575 Z M10.351842,3.95190702 C9.9047618,2.95143314 9.64073808,2.5691268 9.11409877,2.04248749 C8.11503302,1.06313551 6.84842323,0.568179043 5.42199109,0.568179043 C2.29806245,0.568179043 0.199953963,3.08942954 0.199953963,6.78787379 C0.199953963,10.4595636 2.37269315,13.0089767 5.51703963,13.0089767 C8.40229083,13.0089767 10.5201131,10.6250185 10.5201131,7.40533726 C10.5201131,7.04908126 10.4961749,6.64354083 10.4778693,6.13943154 L2.27201211,6.13943154 C2.46633356,2.16358637 5.16289581,2.16358637 5.58815002,2.16358637 C7.84960117,2.16358637 8.49593124,4.02020116 8.75432245,4.73834567 L10.351842,3.95190702 Z" transform="translate(74.2 7.76)"/>
        <path fill="#007DC3" fill-rule="nonzero" d="M2.11218975,9.8568855 C2.70853132,10.9524079 3.51609187,12.4309407 5.23118995,12.4309407 C5.47338771,12.4309407 5.75782926,12.4091148 6.06480084,12.3823604 L6.06480084,10.3095982 C5.56843624,10.3842289 5.3297588,10.4011264 5.04179693,10.4011264 C3.30557696,10.4011264 2.08543535,9.13874099 2.08543535,7.35464471 L2.08543535,0.371041333 L0.109833867,0.371041333 L0.109833867,12.144387 L2.11218975,12.144387 L2.11218975,9.8568855 Z" transform="translate(86.748 8.312)"/>
        <path fill="#007DC3" fill-rule="nonzero" d="M9.8568855,0 L7.85664181,0 L7.85664181,7.58064901 C7.85664181,9.34080714 6.95262459,10.3708517 5.42762359,10.3708517 C3.68506705,10.3708517 2.44098729,9.15071006 2.44098729,7.43702011 L2.44098729,0 L0.443559848,0 L0.443559848,11.7754579 L2.44098729,11.7754579 L2.44098729,9.67664531 C3.54003002,11.2776851 4.82635358,12.0831335 6.28165232,12.0831335 C8.40721927,12.0831335 9.8568855,10.5137765 9.8568855,8.17839871 L9.8568855,0 Z" transform="translate(111.292 8.656)"/>
        <polygon fill="#007DC3" fill-rule="nonzero" points="0 17.602 10.714 17.602 10.065 15.668 2.244 15.668 2.244 10.218 9.338 10.218 9.338 8.267 2.244 8.267 2.244 2.288 10.089 2.288 10.783 .337 0 .337" transform="translate(39.856 8.345)"/>
        <polygon fill="#007DC3" fill-rule="nonzero" points=".704 11.969 2.835 11.969 5.224 8.135 7.478 11.969 9.56 11.969 6.303 6.389 10.182 .142 8.05 .142 5.249 4.617 2.641 .142 .511 .142 4.173 6.366" transform="translate(50.848 8.542)"/>
        <polygon fill="#007DC3" fill-rule="nonzero" points="0 2.816 0 4.022 0 5.948 0 8.342 0 9.748 0 11.95 1.028 11.95 2.003 11.95 2.003 10.25 2.003 8.442 2.003 6.12 2.003 4.926 2.003 2.816 2.003 .174 1.028 .174 0 .174" transform="translate(95.104 8.482)"/>
        <path fill="#007DC3" fill-rule="nonzero" d="M2.816253,1.4081265 C2.816253,0.882191252 2.38677442,0.451304543 1.85872698,0.451304543 L1.4215037,0.451304543 C0.896272517,0.451304543 0.466089872,0.882191252 0.466089872,1.4081265 L0.466089872,1.84534978 C0.466089872,2.37339722 0.896272517,2.80146767 1.4215037,2.80146767 L1.85872698,2.80146767 C2.38677442,2.80146767 2.816253,2.37339722 2.816253,1.84534978 L2.816253,1.4081265 Z" transform="translate(94.462 22.092)"/>
        <path fill="#007DC3" fill-rule="nonzero" d="M7.0406325,2.816253 C6.4161284,2.21991143 5.79092023,1.8622473 4.98054343,1.8622473 C3.66042484,1.8622473 2.64939001,2.77330514 2.64939001,4.06033276 C2.64939001,4.6362565 2.88806745,5.20513961 3.27671037,5.63532225 C3.79842123,6.25560198 4.54402422,6.72943654 5.90779473,6.99134807 C6.53722728,7.11033476 7.0138781,7.06527471 8.08968674,6.85687199 L8.09461519,5.80852181 C8.09461519,4.32717273 7.82636709,3.58156975 7.0406325,2.816253 M9.99136158,3.46469525 L10.0152997,8.99229583 C10.0152997,10.2307431 9.98784126,12.7548098 5.67193354,12.7287595 C3.3527492,12.7181985 1.59188701,11.4994651 1.59188701,11.4994651 L2.20442204,9.87448708 C2.20442204,9.87448708 4.08215872,11.0918124 5.71065702,11.0918124 C7.90310998,11.0960368 8.09461519,9.90053742 8.09461519,8.96694955 L8.09461519,7.92845626 C8.09461519,7.92845626 6.81603632,8.28471226 5.69939201,8.20233686 C3.78504403,8.05941202 2.58954463,7.5560068 1.7510053,6.69423338 C1.08073709,6.00495546 0.703359187,5.02067504 0.703359187,4.08567904 C0.703359187,1.88407326 2.226248,0.236565252 4.31027522,0.236565252 C6.36473178,0.236565252 7.37295035,1.69468024 8.07067703,2.55434147 C8.07067703,1.52570506 8.10306394,0.236565252 9.65622747,0.236565252 C9.99136158,0.236565252 10.3011494,0.306971577 10.9214291,0.499884908 L10.9214291,1.8622473 C10.0617679,1.88407326 9.99136158,2.00658026 9.99136158,3.46469525" transform="translate(98.608 8.061)"/>
        <path fill="#007DC3" fill-rule="nonzero" d="M3.52031625,4.92844275 L2.54096427,4.92844275 C1.48486939,4.92844275 0.629432546,4.07159777 0.629432546,3.0155029 L0.629432546,2.03685498 C0.629432546,0.982168234 1.48486939,0.124619195 2.54096427,0.124619195 L3.52031625,0.124619195 C4.57077862,0.124619195 5.42832766,0.982168234 5.42832766,2.03685498 L5.42832766,3.0155029 C5.42832766,4.07159777 4.57077862,4.92844275 3.52031625,4.92844275" transform="translate(6.138 23.272)"/>
        <path fill="#007DC3" fill-rule="nonzero" d="M3.52031625,4.92844275 L2.54096427,4.92844275 C1.48486939,4.92844275 0.630136609,4.07159777 0.630136609,3.0155029 L0.630136609,2.03685498 C0.630136609,0.982168234 1.48486939,0.124619195 2.54096427,0.124619195 L3.52031625,0.124619195 C4.57077862,0.124619195 5.42903172,0.982168234 5.42903172,2.03685498 L5.42903172,3.0155029 C5.42903172,4.07159777 4.57077862,4.92844275 3.52031625,4.92844275" transform="translate(11.853 23.272)"/>
        <path fill="#007DC3" fill-rule="nonzero" d="M3.52031625,4.92844275 L2.54166833,4.92844275 C1.48486939,4.92844275 0.629432546,4.07159777 0.629432546,3.0155029 L0.629432546,2.03685498 C0.629432546,0.982168234 1.48486939,0.124619195 2.54166833,0.124619195 L3.52031625,0.124619195 C4.57077862,0.124619195 5.42832766,0.982168234 5.42832766,2.03685498 L5.42832766,3.0155029 C5.42832766,4.07159777 4.57077862,4.92844275 3.52031625,4.92844275" transform="translate(17.569 23.272)"/>
        <path fill="#007DC3" fill-rule="nonzero" d="M3.52031625,4.92844275 L2.54096427,4.92844275 C1.48486939,4.92844275 0.630136609,4.07159777 0.630136609,3.0155029 L0.630136609,2.03685498 C0.630136609,0.982168234 1.48486939,0.124619195 2.54096427,0.124619195 L3.52031625,0.124619195 C4.57077862,0.124619195 5.42903172,0.982168234 5.42903172,2.03685498 L5.42903172,3.0155029 C5.42903172,4.07159777 4.57077862,4.92844275 3.52031625,4.92844275" transform="translate(23.285 23.272)"/>
        <path fill="#007DC3" fill-rule="nonzero" d="M3.52031625,4.92844275 L2.54096427,4.92844275 C1.48486939,4.92844275 0.629432546,4.07089371 0.629432546,3.01479884 L0.629432546,2.03685498 C0.629432546,0.981464171 1.48486939,0.124619195 2.54096427,0.124619195 L3.52031625,0.124619195 C4.57077862,0.124619195 5.42832766,0.981464171 5.42832766,2.03685498 L5.42832766,3.01479884 C5.42832766,4.07089371 4.57077862,4.92844275 3.52031625,4.92844275" transform="translate(6.138 17.555)"/>
        <path fill="#007DC3" fill-rule="nonzero" d="M3.52031625,4.92844275 L2.54096427,4.92844275 C1.48486939,4.92844275 0.630136609,4.07089371 0.630136609,3.01479884 L0.630136609,2.03685498 C0.630136609,0.981464171 1.48486939,0.124619195 2.54096427,0.124619195 L3.52031625,0.124619195 C4.57077862,0.124619195 5.42903172,0.981464171 5.42903172,2.03685498 L5.42903172,3.01479884 C5.42903172,4.07089371 4.57077862,4.92844275 3.52031625,4.92844275" transform="translate(23.285 17.555)"/>
        <path fill="#007DC3" fill-rule="nonzero" d="M3.52031625,4.92844275 L2.54096427,4.92844275 C1.48486939,4.92844275 0.629432546,4.07159777 0.629432546,3.0155029 L0.629432546,2.03685498 C0.629432546,0.982168234 1.48486939,0.124619195 2.54096427,0.124619195 L3.52031625,0.124619195 C4.57077862,0.124619195 5.42832766,0.982168234 5.42832766,2.03685498 L5.42832766,3.0155029 C5.42832766,4.07159777 4.57077862,4.92844275 3.52031625,4.92844275" transform="translate(6.138 11.837)"/>
        <path fill="#007DC3" fill-rule="nonzero" d="M3.52031625,4.92844275 L2.54096427,4.92844275 C1.48486939,4.92844275 0.630136609,4.07159777 0.630136609,3.0155029 L0.630136609,2.03685498 C0.630136609,0.982168234 1.48486939,0.124619195 2.54096427,0.124619195 L3.52031625,0.124619195 C4.57077862,0.124619195 5.42903172,0.982168234 5.42903172,2.03685498 L5.42903172,3.0155029 C5.42903172,4.07159777 4.57077862,4.92844275 3.52031625,4.92844275" transform="translate(23.285 11.837)"/>
        <path fill="#007DC3" fill-rule="nonzero" d="M3.52031625,4.92844275 L2.54096427,4.92844275 C1.48486939,4.92844275 0.629432546,4.07089371 0.629432546,3.01479884 L0.629432546,2.03685498 C0.629432546,0.982168234 1.48486939,0.124619195 2.54096427,0.124619195 L3.52031625,0.124619195 C4.57077862,0.124619195 5.42832766,0.982168234 5.42832766,2.03685498 L5.42832766,3.01479884 C5.42832766,4.07089371 4.57077862,4.92844275 3.52031625,4.92844275" transform="translate(6.138 6.12)"/>
        <path fill="#007DC3" fill-rule="nonzero" d="M3.52031625,4.92844275 L2.54096427,4.92844275 C1.48486939,4.92844275 0.630136609,4.07089371 0.630136609,3.01479884 L0.630136609,2.03685498 C0.630136609,0.982168234 1.48486939,0.124619195 2.54096427,0.124619195 L3.52031625,0.124619195 C4.57077862,0.124619195 5.42903172,0.982168234 5.42903172,2.03685498 L5.42903172,3.01479884 C5.42903172,4.07089371 4.57077862,4.92844275 3.52031625,4.92844275" transform="translate(11.853 6.12)"/>
        <path fill="#007DC3" fill-rule="nonzero" d="M3.52031625,4.92844275 L2.54166833,4.92844275 C1.48486939,4.92844275 0.629432546,4.07089371 0.629432546,3.01479884 L0.629432546,2.03685498 C0.629432546,0.982168234 1.48486939,0.124619195 2.54166833,0.124619195 L3.52031625,0.124619195 C4.57077862,0.124619195 5.42832766,0.982168234 5.42832766,2.03685498 L5.42832766,3.01479884 C5.42832766,4.07089371 4.57077862,4.92844275 3.52031625,4.92844275" transform="translate(17.569 6.12)"/>
        <path fill="#007DC3" fill-rule="nonzero" d="M3.52031625,4.92844275 L2.54096427,4.92844275 C1.48486939,4.92844275 0.630136609,4.07089371 0.630136609,3.01479884 L0.630136609,2.03685498 C0.630136609,0.982168234 1.48486939,0.124619195 2.54096427,0.124619195 L3.52031625,0.124619195 C4.57077862,0.124619195 5.42903172,0.982168234 5.42903172,2.03685498 L5.42903172,3.01479884 C5.42903172,4.07089371 4.57077862,4.92844275 3.52031625,4.92844275" transform="translate(23.285 6.12)"/>
        <path fill="#007DC3" fill-rule="nonzero" d="M2.816253,4.2243795 L2.02136559,4.2243795 C1.18845877,4.2243795 0.509741793,3.54495846 0.509741793,2.70993945 L0.509741793,1.92068455 C0.509741793,1.08425741 1.18845877,0.406948559 2.02136559,0.406948559 L2.816253,0.406948559 C3.65056795,0.406948559 4.32998899,1.08425741 4.32998899,1.92068455 L4.32998899,2.70993945 C4.32998899,3.54495846 3.65056795,4.2243795 2.816253,4.2243795" transform="translate(30.121 29.72)"/>
        <path fill="#ED174C" fill-rule="nonzero" d="M2.816253,4.2243795 L2.02136559,4.2243795 C1.1877547,4.2243795 0.509741793,3.54495846 0.509741793,2.70993945 L0.509741793,1.92068455 C0.509741793,1.08425741 1.1877547,0.406948559 2.02136559,0.406948559 L2.816253,0.406948559 C3.64986389,0.406948559 4.32928492,1.08425741 4.32928492,1.92068455 L4.32928492,2.70993945 C4.32928492,3.54495846 3.64986389,4.2243795 2.816253,4.2243795" transform="translate(18.171 29.72)"/>
        <path fill="#007DC3" fill-rule="nonzero" d="M2.816253,4.2243795 L2.02136559,4.2243795 C1.1877547,4.2243795 0.509741793,3.54495846 0.509741793,2.70993945 L0.509741793,1.92068455 C0.509741793,1.08425741 1.1877547,0.406948559 2.02136559,0.406948559 L2.816253,0.406948559 C3.65056795,0.406948559 4.33069305,1.08425741 4.33069305,1.92068455 L4.33069305,2.70993945 C4.33069305,3.54495846 3.65056795,4.2243795 2.816253,4.2243795" transform="translate(12.456 29.72)"/>
        <path fill="#ED174C" fill-rule="nonzero" d="M2.816253,4.2243795 L2.02136559,4.2243795 C1.1877547,4.2243795 0.509741793,3.54495846 0.509741793,2.70993945 L0.509741793,1.92068455 C0.509741793,1.08425741 1.1877547,0.406948559 2.02136559,0.406948559 L2.816253,0.406948559 C3.64986389,0.406948559 4.32998899,1.08425741 4.32998899,1.92068455 L4.32998899,2.70993945 C4.32998899,3.54495846 3.64986389,4.2243795 2.816253,4.2243795" transform="translate(.512 29.72)"/>
        <path fill="#007DC3" fill-rule="nonzero" d="M2.816253,4.2243795 L2.02136559,4.2243795 C1.1877547,4.2243795 0.509741793,3.54495846 0.509741793,2.71064351 L0.509741793,1.91998048 C0.509741793,1.08425741 1.1877547,0.406948559 2.02136559,0.406948559 L2.816253,0.406948559 C3.64986389,0.406948559 4.32998899,1.08425741 4.32998899,1.91998048 L4.32998899,2.71064351 C4.32998899,3.54495846 3.64986389,4.2243795 2.816253,4.2243795" transform="translate(.512 17.76)"/>
        <path fill="#ED174C" fill-rule="nonzero" d="M2.816253,4.2243795 L2.02136559,4.2243795 C1.1877547,4.2243795 0.509741793,3.54495846 0.509741793,2.71064351 L0.509741793,1.91998048 C0.509741793,1.08425741 1.1877547,0.406948559 2.02136559,0.406948559 L2.816253,0.406948559 C3.64986389,0.406948559 4.32998899,1.08425741 4.32998899,1.91998048 L4.32998899,2.71064351 C4.32998899,3.54495846 3.64986389,4.2243795 2.816253,4.2243795" transform="translate(.512 6.322)"/>
        <path fill="#ED174C" fill-rule="nonzero" d="M2.816253,4.2243795 L2.02136559,4.2243795 C1.18845877,4.2243795 0.509741793,3.54495846 0.509741793,2.70993945 L0.509741793,1.91998048 C0.509741793,1.08425741 1.18845877,0.406948559 2.02136559,0.406948559 L2.816253,0.406948559 C3.65056795,0.406948559 4.32998899,1.08425741 4.32998899,1.91998048 L4.32998899,2.70993945 C4.32998899,3.54495846 3.65056795,4.2243795 2.816253,4.2243795" transform="translate(30.121 17.764)"/>
        <path fill="#007DC3" fill-rule="nonzero" d="M2.816253,4.2243795 L2.02136559,4.2243795 C1.18845877,4.2243795 0.509741793,3.54495846 0.509741793,2.71064351 L0.509741793,1.91927642 C0.509741793,1.08425741 1.18845877,0.406244495 2.02136559,0.406244495 L2.816253,0.406244495 C3.65056795,0.406244495 4.32998899,1.08425741 4.32998899,1.91927642 L4.32998899,2.71064351 C4.32998899,3.54495846 3.65056795,4.2243795 2.816253,4.2243795" transform="translate(30.121 12.052)"/>
        <path fill="#ED174C" fill-rule="nonzero" d="M2.816253,4.2243795 L2.02136559,4.2243795 C1.18845877,4.2243795 0.509741793,3.5442544 0.509741793,2.70993945 L0.509741793,1.91998048 C0.509741793,1.08355334 1.18845877,0.406244495 2.02136559,0.406244495 L2.816253,0.406244495 C3.65056795,0.406244495 4.32998899,1.08355334 4.32998899,1.91998048 L4.32998899,2.70993945 C4.32998899,3.5442544 3.65056795,4.2243795 2.816253,4.2243795" transform="translate(30.121 .1)"/>
        <path fill="#007DC3" fill-rule="nonzero" d="M2.816253,4.2243795 L2.02136559,4.2243795 C1.1877547,4.2243795 0.509741793,3.5442544 0.509741793,2.70993945 L0.509741793,1.91998048 C0.509741793,1.08355334 1.1877547,0.406244495 2.02136559,0.406244495 L2.816253,0.406244495 C3.64986389,0.406244495 4.32998899,1.08355334 4.32998899,1.91998048 L4.32998899,2.70993945 C4.32998899,3.5442544 3.64986389,4.2243795 2.816253,4.2243795" transform="translate(18.176 .1)"/>
        <path fill="#ED174C" fill-rule="nonzero" d="M2.816253,4.2243795 L2.02136559,4.2243795 C1.1877547,4.2243795 0.509741793,3.5442544 0.509741793,2.70993945 L0.509741793,1.91998048 C0.509741793,1.08355334 1.1877547,0.406244495 2.02136559,0.406244495 L2.816253,0.406244495 C3.65056795,0.406244495 4.32998899,1.08355334 4.32998899,1.91998048 L4.32998899,2.70993945 C4.32998899,3.5442544 3.65056795,4.2243795 2.816253,4.2243795" transform="translate(6.747 .1)"/>
      </g>
    </g>
  </g>
</svg>
