<?xml version="1.0" encoding="utf-8"?>
<!-- Generator: Adobe Illustrator 21.0.0, SVG Export Plug-In . SVG Version: 6.00 Build 0)  -->
<svg version="1.1" id="Layer_1" xmlns="http://www.w3.org/2000/svg" xmlns:xlink="http://www.w3.org/1999/xlink" x="0px" y="0px"
	 viewBox="0 0 113.2 39" style="enable-background:new 0 0 113.2 39;" xml:space="preserve">
<style type="text/css">
	.st0{clip-path:url(#SVGID_2_);}
	.st1{clip-path:url(#SVGID_4_);fill:#0D6EB6;}
	.st2{clip-path:url(#SVGID_4_);fill:#72217B;}
	.st3{clip-path:url(#SVGID_4_);fill:#B02383;}
	.st4{clip-path:url(#SVGID_4_);fill:#D72B80;}
	.st5{clip-path:url(#SVGID_4_);fill:#00458F;}
</style>
<g>
	<g>
		<defs>
			<rect id="SVGID_1_" x="-11.3" y="-11.5" width="130.2" height="62"/>
		</defs>
		<clipPath id="SVGID_2_">
			<use xlink:href="#SVGID_1_"  style="overflow:visible;"/>
		</clipPath>
		<g class="st0">
			<defs>
				<rect id="SVGID_3_" x="-11.3" y="-11.5" width="130.2" height="62"/>
			</defs>
			<clipPath id="SVGID_4_">
				<use xlink:href="#SVGID_3_"  style="overflow:visible;"/>
			</clipPath>
			<path class="st1" d="M19.3,10.2h-4c-1.2,0-2.1-1-2.1-2.1v-4c0-1.2,1-2.1,2.1-2.1h4c1.2,0,2.1,1,2.1,2.1v4
				C21.4,9.2,20.5,10.2,19.3,10.2"/>
			<path class="st2" d="M9,19.1H4.5c-1.3,0-2.4-1.1-2.4-2.4v-4.5c0-1.3,1.1-2.4,2.4-2.4H9c1.3,0,2.4,1.1,2.4,2.4v4.5
				C11.4,18,10.3,19.1,9,19.1"/>
			<path class="st3" d="M8.5,28.4H5.8c-0.8,0-1.5-0.7-1.5-1.5v-2.7c0-0.8,0.7-1.5,1.5-1.5h2.7c0.8,0,1.5,0.7,1.5,1.5v2.7
				C10,27.8,9.4,28.4,8.5,28.4"/>
			<path class="st4" d="M15.9,37.1h-3.2c-1,0-1.7-0.8-1.7-1.7v-3.2c0-1,0.8-1.7,1.7-1.7h3.2c1,0,1.7,0.8,1.7,1.7v3.2
				C17.6,36.3,16.9,37.1,15.9,37.1"/>
			<path class="st4" d="M27.7,11.8h-2.2c-0.7,0-1.2-0.5-1.2-1.2V8.4c0-0.7,0.5-1.2,1.2-1.2h2.2c0.7,0,1.2,0.5,1.2,1.2v2.2
				C28.9,11.3,28.4,11.8,27.7,11.8"/>
			<path class="st5" d="M76.8,13.3c0.7,0,1.3-0.6,1.3-1.3c0-0.7-0.6-1.3-1.3-1.3c-0.7,0-1.3,0.6-1.3,1.3
				C75.5,12.7,76.1,13.3,76.8,13.3"/>
			<path class="st5" d="M29.6,27.1c-0.2,0.3-0.5,0.4-0.9,0.4c-0.2,0-0.4,0-0.6-0.1c-0.3-0.2-0.5-0.5-0.5-0.9c0-0.2,0.1-0.3,0.1-0.5
				l3-4.7l-3-4.7c-0.1-0.1-0.1-0.3-0.1-0.5c0-0.3,0.2-0.7,0.5-0.9c0.2-0.1,0.3-0.1,0.5-0.1c0.3,0,0.7,0.1,0.9,0.4l2.4,3.9l2.5-3.9
				c0.2-0.3,0.5-0.4,0.9-0.4c0.2,0,0.4,0,0.5,0.1c0.3,0.2,0.5,0.5,0.5,0.9c0,0.2,0,0.4-0.1,0.5l-3,4.7l3,4.7
				c0.1,0.1,0.1,0.3,0.1,0.5c0,0.4-0.2,0.7-0.5,0.9c-0.2,0.1-0.4,0.1-0.6,0.1c-0.3,0-0.7-0.1-0.9-0.4l-2.5-3.8L29.6,27.1z"/>
			<path class="st5" d="M40.3,16.4c1.1-1,2.6-1.6,4.3-1.6c3.6,0,6.5,2.9,6.5,6.5c0,3.5-2.9,6.4-6.5,6.4c-1.6,0-3.2-0.6-4.3-1.6v5.5
				c0,0.5-0.5,1-1.1,1c-0.5,0-1-0.5-1-1V15.9c0-0.5,0.5-1,1-1c0.6,0,1.1,0.5,1.1,1V16.4z M44.6,16.9c-2.4,0-4.3,1.9-4.3,4.3
				c0,2.4,1.9,4.3,4.3,4.3c2.4,0,4.3-1.9,4.3-4.3C48.9,18.8,47,16.9,44.6,16.9"/>
			<path class="st5" d="M69.4,20.1v6.5c0,0.5-0.5,1-1,1c-0.6,0-1.1-0.5-1.1-1V15.9c0-0.5,0.5-1,1.1-1c0.5,0,1,0.4,1,1
				c0.9-0.7,2-1,3.2-1.1c0.7,0,1.2,0.5,1.2,1c0,0.6-0.5,1.1-1.2,1.1C70.9,17,69.4,17.6,69.4,20.1"/>
			<path class="st5" d="M76.8,14.9c-0.6,0-1.1,0.5-1.1,1v10.6c0,0.5,0.5,1,1.1,1c0.5,0,1-0.5,1-1V15.9
				C77.9,15.4,77.3,14.9,76.8,14.9"/>
			<path class="st5" d="M90.4,15.9c0-0.5,0.5-1,1.1-1c0.5,0,1,0.5,1,1v10.6c0,0.5-0.5,1-1,1c-0.6,0-1.1-0.5-1.1-1V26
				c-1.1,1-2.6,1.6-4.3,1.6c-3.6,0-6.5-2.9-6.5-6.5c0-3.5,2.9-6.4,6.5-6.4c1.6,0,3.1,0.6,4.3,1.6V15.9z M86.1,25.5
				c2.4,0,4.3-1.9,4.3-4.3c0-2.4-1.9-4.3-4.3-4.3c-2.4,0-4.3,1.9-4.3,4.3C81.7,23.6,83.6,25.5,86.1,25.5"/>
			<path class="st5" d="M103.3,20.2c0-1.8-1.5-3.3-3.3-3.3c-1.7,0-3.3,0.7-3.3,3.2v6.5c0,0.5-0.5,1-1,1c-0.6,0-1.1-0.5-1.1-1V15.9
				c0-0.5,0.5-1,1.1-1c0.5,0,1,0.4,1,1c0.9-0.7,2-1.1,3.3-1.1c2.9,0,5.5,2.3,5.5,5.1v6.6c0,0.5-0.5,1-1,1c-0.6,0-1.1-0.5-1.1-1V20.2
				z"/>
			<path class="st5" d="M27.1,20.9c0-3.3-3-6.1-6.4-6.1c-3.6,0-6.5,2.9-6.5,6.4c0,3.6,2.9,6.5,6.5,6.5c1.7,0,3.3-0.7,4.5-1.8
				c0.2-0.2,0.4-0.5,0.4-0.8c0-0.6-0.5-1.1-1.1-1.1c-0.3,0-0.6,0.2-0.8,0.4c-0.7,0.8-1.8,1.1-2.9,1.1c-2.1,0-3.9-1.5-4.3-3.5h9.6
				c0,0,0,0,0,0h0c0,0,0,0,0.1,0c0,0,0.1,0,0.1,0C26.7,21.9,27.1,21.4,27.1,20.9 M20.7,16.9c1.9,0,3.5,1.2,4.1,3h-8.2
				C17.1,18.2,18.7,16.9,20.7,16.9"/>
			<path class="st5" d="M65.4,20.9c-0.1-3.3-3-6.1-6.4-6.1c-3.6,0-6.5,2.9-6.5,6.4c0,3.6,2.9,6.5,6.5,6.5c1.7,0,3.3-0.7,4.5-1.8
				c0.2-0.2,0.4-0.5,0.4-0.8c0-0.6-0.5-1.1-1.1-1.1c-0.3,0-0.6,0.2-0.8,0.4c-0.7,0.8-1.8,1.1-2.9,1.1c-2.1,0-3.9-1.5-4.3-3.5h9.6
				c0,0,0,0,0,0h0c0,0,0.1,0,0.1,0c0,0,0,0,0,0C65,21.9,65.4,21.4,65.4,20.9 M59,16.9c1.9,0,3.5,1.2,4.1,3h-8.2
				C55.5,18.2,57.1,16.9,59,16.9"/>
			<path class="st5" d="M107.7,27.6c-0.1,0-0.2-0.1-0.2-0.2v-1.8h-0.4c-0.1,0-0.2-0.1-0.2-0.2c0-0.1,0.1-0.2,0.2-0.2h1.2
				c0.1,0,0.2,0.1,0.2,0.2c0,0.1-0.1,0.2-0.2,0.2h-0.4v1.8C107.8,27.5,107.8,27.6,107.7,27.6"/>
			<path class="st5" d="M109.7,27.6c-0.1,0-0.2-0.1-0.2-0.1l-0.5-1.5v1.4c0,0.1-0.1,0.2-0.2,0.2c-0.1,0-0.2-0.1-0.2-0.2v-1.9
				c0-0.1,0.1-0.3,0.3-0.3c0.1,0,0.2,0.1,0.3,0.2l0.5,1.5l0.5-1.5c0-0.1,0.1-0.2,0.3-0.2c0.1,0,0.3,0.1,0.3,0.3v1.9
				c0,0.1-0.1,0.2-0.2,0.2c-0.1,0-0.2-0.1-0.2-0.2V26c-0.1,0.2-0.2,0.6-0.3,0.9c-0.2,0.6-0.2,0.6-0.2,0.6
				C109.9,27.5,109.8,27.6,109.7,27.6"/>
		</g>
	</g>
</g>
</svg>
