<svg xmlns="http://www.w3.org/2000/svg" xmlns:xlink="http://www.w3.org/1999/xlink" width="100" height="59"><defs><path id="a" d="M.935.34h4.883v6.074H.935z"/><path id="c" d="M.326 2.068h5.049v8.622H.326z"/><path id="e" d="M.34.341h5.332v6.073H.34z"/><path id="g" d="M0 59.862h99.394V1.561H0z"/></defs><g fill="none" fill-rule="evenodd"><path fill="#44536B" d="M0 50.484v7.81h.996v-3.498h2.961v-.836H.996v-2.642h3.495v-.834z"/><g transform="translate(0 -1.424)"><g transform="translate(4.255 53.448)"><mask id="b" fill="#fff"><use xlink:href="#a"/></mask><path fill="#44536B" d="M4.965 2.949c0-1.18-.522-1.833-1.422-1.833-.806 0-1.54.665-1.66 1.833h3.082zM3.52.34c1.468 0 2.298 1.06 2.298 2.716 0 .203-.01.39-.034.536H1.897c.07 1.25.817 2.035 1.917 2.035.546 0 1.008-.177 1.436-.45l.342.643c-.498.318-1.112.594-1.895.594-1.54 0-2.762-1.13-2.762-3.025C.935 1.495 2.205.34 3.52.34z" mask="url(#b)"/></g><g transform="translate(10.638 49.172)"><mask id="d" fill="#fff"><use xlink:href="#c"/></mask><path fill="#44536B" d="M2.922 9.868c.532 0 .996-.261 1.468-.798V6.045c-.485-.44-.923-.607-1.398-.607-.923 0-1.66.893-1.66 2.215 0 1.38.584 2.215 1.59 2.215m-.096-5.251c.664 0 1.105.25 1.613.665l-.049-.986V2.068h.985v8.477H4.57l-.083-.677H4.45c-.451.44-1.066.823-1.743.823-1.444 0-2.38-1.097-2.38-3.025 0-1.882 1.184-3.05 2.5-3.05" mask="url(#d)"/></g><path fill="#44536B" d="M18.893 55.61h1.304c1.209 0 1.873-.498 1.873-1.512 0-1.024-.664-1.392-1.873-1.392h-1.304v2.904zm3.273 4.109L20.29 56.42h-1.398v3.299h-.996v-7.81h2.443c1.574 0 2.715.57 2.715 2.19 0 1.214-.69 1.94-1.745 2.214l1.981 3.406h-1.125zm5.748-3.18l-.368-1.191a76.594 76.594 0 01-.77-2.63h-.047a76.593 76.593 0 01-.77 2.63l-.38 1.19h2.335zm.249.8H25.33l-.747 2.379h-1.008l2.631-7.81h1.113l2.632 7.81H28.91l-.747-2.38zm2.702-5.43h1.173l1.506 4.19.557 1.596h.047l.545-1.597 1.494-4.19h1.161v7.81h-.936v-4.297c0-.693.083-1.619.13-2.311h-.047l-.617 1.738-1.494 4.085h-.568l-1.493-4.085-.615-1.738h-.047c.047.692.117 1.618.117 2.31v4.298h-.913v-7.81zm10.705 3.905c1.364 0 2.015-.5 2.015-1.61 0-1.128-.676-1.498-2.015-1.498h-1.268v3.108h1.268zm-2.264-3.906H41.7c1.72 0 2.868.582 2.868 2.296 0 1.645-1.172 2.418-2.868 2.418h-1.398v3.096h-.996v-7.81zm12.233 4.63l-.368-1.19a76.594 76.594 0 01-.77-2.63h-.047a76.594 76.594 0 01-.77 2.63l-.379 1.19h2.334zm.25.8h-2.833l-.746 2.38H47.2l2.632-7.81h1.113l2.632 7.81h-1.043l-.747-2.38zm2.56-3.407h.985v3.536c0 1.084.319 1.55 1.076 1.55.594 0 1.007-.299 1.553-.977v-4.109h.97v5.788h-.804l-.083-.905h-.036c-.532.631-1.102 1.048-1.893 1.048-1.224 0-1.768-.787-1.768-2.262v-3.67zm6.579.798h-.853v-.738l.9-.06.119-1.618h.817v1.618h1.55v.798h-1.55v3.215c0 .716.225 1.118.89 1.118.2 0 .46-.081.652-.154l.188.74c-.32.107-.711.214-1.066.214-1.232 0-1.647-.787-1.647-1.929V54.73zm3.722-3.489h.973v2.311l-.037 1.19c.545-.523 1.126-.953 1.92-.953 1.208 0 1.755.787 1.755 2.264v3.667h-.972v-3.536c0-1.084-.332-1.548-1.092-1.548-.591 0-.996.308-1.574.894v4.19h-.973V51.24z"/><g transform="translate(70.213 53.448)"><mask id="f" fill="#fff"><use xlink:href="#e"/></mask><path fill="#44536B" d="M3.006 5.604c.996 0 1.66-.893 1.66-2.215 0-1.334-.664-2.238-1.66-2.238-.983 0-1.657.904-1.657 2.238 0 1.322.674 2.215 1.657 2.215m0-5.263c1.411 0 2.666 1.107 2.666 3.048 0 1.916-1.255 3.026-2.666 3.026-1.41 0-2.666-1.11-2.666-3.026C.34 1.45 1.596.341 3.006.341" mask="url(#f)"/></g><path fill="#44536B" d="M77.286 53.931h.807l.083 1.048h.036c.391-.727.983-1.189 1.634-1.189.249 0 .428.034.617.118l-.19.86a1.55 1.55 0 00-.555-.097c-.487 0-1.068.357-1.46 1.334v3.714h-.972V53.93z"/><mask id="h" fill="#fff"><use xlink:href="#g"/></mask><path fill="#44536B" d="M81.283 59.719h.972V53.93h-.972v5.788zm-.179-7.61c0-.38.296-.632.675-.632.38 0 .676.252.676.633 0 .37-.295.63-.676.63-.379 0-.675-.26-.675-.63zm2.372 7.086l3.034-4.467h-2.704v-.797h3.936v.524l-3.034 4.466h3.128v.797h-4.36zm9.124-2.798c0-1.18-.52-1.832-1.42-1.832-.807 0-1.541.665-1.66 1.832h3.08zm-1.444-2.608c1.468 0 2.298 1.058 2.298 2.715 0 .203-.01.391-.034.536h-3.887c.07 1.251.817 2.036 1.917 2.036.546 0 1.008-.178 1.436-.451l.342.643c-.498.319-1.112.594-1.895.594-1.54 0-2.762-1.13-2.762-3.025 0-1.894 1.27-3.048 2.585-3.048zm5.785 5.251c.532 0 .996-.26 1.468-.797v-3.026c-.485-.44-.923-.607-1.398-.607-.923 0-1.66.894-1.66 2.215 0 1.381.584 2.215 1.59 2.215m-.095-5.25c.663 0 1.104.25 1.612.664l-.049-.985V51.24h.985v8.477h-.806l-.083-.678h-.036c-.451.44-1.066.823-1.743.823-1.444 0-2.38-1.097-2.38-3.025 0-1.881 1.185-3.049 2.5-3.049M40.774 32.276c.068-.03.11-.09.16-.139a43453.2 43453.2 0 009.876-9.98c2.373-2.396 4.743-4.793 7.113-7.19l7.366-7.444c1.485-1.498 2.966-3.001 4.453-4.5.828-.834 1.828-1.33 2.996-1.435 1.553-.143 2.826.426 3.792 1.647.734.934 1.03 2.014.919 3.192a4.26 4.26 0 01-1.251 2.68c-1.781 1.805-3.56 3.612-5.339 5.416l-7.815 7.93-5.668 5.748a8996.707 8996.707 0 01-4.489 4.554c-2.917 2.96-5.836 5.918-8.749 8.883-.47.477-.985.87-1.602 1.125-1.662.684-3.553.325-4.81-.937-2.624-2.636-5.23-5.284-7.845-7.927a6639.38 6639.38 0 00-6.473-6.538c-.678-.684-1.149-1.488-1.368-2.43-.632-2.692 1.139-5.025 3.602-5.388 1.454-.214 2.724.216 3.768 1.268a8748.07 8748.07 0 018.577 8.665l2.613 2.646c.055.054.102.118.174.154" mask="url(#h)"/><path fill="#44536B" d="M40.439 20.012c.068-.025.108-.085.16-.134 1.584-1.6 3.18-3.188 4.757-4.798 2.6-2.655 5.238-5.268 7.84-7.925 1.526-1.557 3.073-3.094 4.598-4.65a3.03 3.03 0 011.836-.922c.66-.085 1.25.09 1.77.475.803.59 1.156 1.415 1.088 2.405a2.486 2.486 0 01-.73 1.608c-1.69 1.734-3.409 3.44-5.098 5.172-1.483 1.522-2.998 3.012-4.474 4.538-1.36 1.403-2.754 2.769-4.115 4.174-1.551 1.6-3.137 3.168-4.696 4.763-.3.31-.602.62-.9.93-.432.447-.94.752-1.555.84-.817.116-1.558-.064-2.188-.622-.095-.083-.183-.177-.272-.267-2.253-2.27-4.513-4.537-6.76-6.816-.591-.599-1.187-1.197-1.77-1.804a2.891 2.891 0 01-.8-1.739 2.512 2.512 0 01.658-2.037 2.528 2.528 0 011.68-.842c.69-.07 1.296.11 1.852.508.087.062.163.137.238.212 1.61 1.623 3.23 3.237 4.83 4.87.638.655 1.285 1.3 1.92 1.952.041.04.073.088.13.11" mask="url(#h)"/></g></g></svg>