<svg version="1.1" id="Layer_1" xmlns="http://www.w3.org/2000/svg" x="0" y="0" width="267.3" height="35.6" viewBox="0 0 267.3 35.6" xml:space="preserve"><style>.st0{fill:#1b459c}.st2{fill:#fff}</style><path class="st0" d="M63.7 18.1c0 1.5-1.4 1.9-3.1 1.9h-4.3v4c1.5.3 2.2.9 2.2 1.3v.1h-5.1V12.3c-.9-.3-1.6-.9-1.6-1.3v-.1h13.3v3.6H65c-.4 0-1-.7-1.3-1.6h-7.4v4.9h7.4v.3zM71.4 25.4h-5.3v-.1c0-.4.6-1 1.3-1.3v-9.4c-.7-.2-1.3-.9-1.3-1.3v-.1h5.3v.1c0 .4-.6 1-1.3 1.3V24c.7.2 1.3.9 1.3 1.3v.1zM84 18.8c0 1.5-1.4 1.9-3.1 1.9H77V24c1 .2 1.8.9 1.8 1.3v.1h-4.4V14.6c-.7-.2-1.3-.9-1.3-1.3v-.1h12.8v3.3h-.1c-.4 0-1-.6-1.3-1.3H77v3.6h7zM99.3 13.2v3.3h-.1c-.4 0-1-.6-1.3-1.3h-3.5V24c1 .2 1.8.9 1.8 1.3v.1H90v-.1c0-.4.8-1 1.8-1.3v-8.8h-3.4c-.2.7-.9 1.3-1.3 1.3H87v-3.3h12.3zM104.6 18.2c1.2-.3 2.5-.4 3.7-.3 1.3 0 2.5.1 3.8.3v-3.6c-.7-.2-1.3-.9-1.3-1.3v-.1h5.3v.1c0 .4-.6 1-1.3 1.3V24c.7.2 1.3.9 1.3 1.3v.1h-3.9v-5c-1.2-.2-2.5-.4-3.8-.3-1.2 0-2.5.1-3.7.3V24c.7.2 1.3.9 1.3 1.3v.1h-4V14.6c-.7-.2-1.3-.9-1.3-1.3v-.1h5.3v.1c0 .4-.6 1-1.3 1.3l-.1 3.6zM139 10.9v3.6c-.4 0-1.1-.7-1.4-1.6h-4.4v11c.9.3 1.6.9 1.6 1.3h-6c0-.4.7-1.1 1.6-1.3V13H126c-.3.9-.9 1.6-1.3 1.6h-.1V11H139zM144.3 18.2c1.2-.3 2.5-.4 3.7-.3 1.3 0 2.5.1 3.8.3v-3.6c-.7-.2-1.3-.9-1.3-1.3v-.1h5.3v.1c0 .4-.6 1-1.3 1.3V24c.7.2 1.3.9 1.3 1.3v.1h-4v-5c-1.2-.2-2.5-.4-3.8-.3-1.2 0-2.5.1-3.7.3V24c.7.2 1.3.9 1.3 1.3v.1h-4V14.6c-.7-.2-1.3-.9-1.3-1.3v-.1h5.3v.1c0 .4-.6 1-1.3 1.3v3.6zM162.6 25.4h-5.3v-.1c0-.4.6-1 1.3-1.3v-9.4c-.7-.2-1.3-.9-1.3-1.3v-.1h5.3v.1c0 .4-.6 1-1.3 1.3V24c.7.2 1.3.9 1.3 1.3v.1zM169.5 25.4h-3.9V14.6c-.7-.2-1.3-.9-1.3-1.3v-.1h8.6c3 0 4.9 1 4.9 3.6 0 2-1.3 3.1-3.3 3.4l2.6 3.8c.7.1 1.5.8 1.5 1.3v.1h-3.7l-3.3-5h-3.3V24c.7.2 1.3.9 1.3 1.3l-.1.1zm3-6.8c2.2 0 2.7-.7 2.7-1.7s-.4-1.7-2.7-1.7h-4.2v3.4h4.2zM180.7 14.6c-.7-.2-1.3-.9-1.3-1.3v-.1h8.5c3.4 0 6 2 6 6.1s-2.6 6.1-6 6.1h-7.2V14.6zm6.2 8.8c2.9 0 4.3-.9 4.3-4.1s-1.4-4.1-4.3-4.1h-3.6v8.2h3.6z"/><path d="M40.1 10.7C40 4.8 35.3 0 29.4 0H0v25c0 5.9 4.8 10.6 10.7 10.7h29.4v-25z" fill="#00ae64"/><path class="st2" d="M29.4 1.9H1.9V25c0 4.8 3.9 8.7 8.7 8.7h27.5V10.6c0-4.8-3.9-8.7-8.7-8.7"/><path class="st0" d="M29.3 3.2H3.2V25c0 4.2 3.4 7.5 7.5 7.5h26.2V10.7c0-4.1-3.4-7.5-7.6-7.5"/><path class="st2" d="M18 29l6-22.8h-1.4l-6 22.9L18 29zm12.2-7.8c1-.2 1.9-.6 2.6-1.4.6-.8.9-1.8.6-2.8-.2-.9-.8-1.7-1.6-2.3-.7-.5-1.5-.8-2.3-.8h-6.4c1.6.5 2.8 1.7 3.3 3.3 0 0 1 3.1-3.2 4 0 0-.1 0 0 0 .8.3 1.5.8 2.2 1.5.5.5.8 1.2 1 1.8.7 3.3-3.3 4.1-3.3 4.1h6.2c2.2 0 3.1-1.2 3.3-1.4.7-.7 1-1.7.8-2.7-.2-.8-.6-1.6-1.3-2.1-.5-.5-1.2-.9-1.9-1.2M17 19.8c.6-.6.8-1.9.5-3-.3-1-.9-1.9-1.7-2.5-.7-.5-1.5-.9-2.4-1H6.6c1.7.5 3 1.8 3.6 3.5.7 3.5-3.3 4.2-3.3 4.2h7.5c.9 0 1.9-.4 2.6-1.2m-.7-13l-.1 5.1H6.5V6.8h9.8z"/><path class="st0" d="M212.6 23.1c2.5 0 3.4-.7 3.4-2s-.9-2.1-3.4-2.1H207v4.1h5.6zm-.1-6.4c1.8 0 3.1-.4 3.1-1.9 0-1.4-1.3-1.6-3.1-1.6H207v3.5h5.5zm.3-5.7c3.4 0 5.6.9 5.6 3.6 0 1.7-1.2 2.8-3.2 3.3 2.3.4 3.6 1.6 3.6 3.5 0 2.3-2 4.1-5.4 4.1H204v-13c-.9-.3-1.5-.9-1.5-1.3V11h10.3zM235.9 14.6c-.7-.2-1.3-.9-1.3-1.3v-.1h3.8l8 8.3v-6.9c-.7-.2-1.3-.9-1.3-1.3v-.1h5v.1c0 .4-.6 1-1.3 1.3V24c.7.2 1.3.9 1.3 1.3v.1h-3.5l-8.3-8.5V24c.7.2 1.3.9 1.3 1.3v.1h-3.7V14.6zM261 14.4c-.3-.3-.6-.6-.6-1.1v-.1h5v.1c0 .6-.8 1.2-1.4 1.3l-4.4 3.7 4.9 5.7c.6.2 1.5.7 1.5 1.3v.1h-3.7l-4.6-5.6-1.9 1.5V24c.7.2 1.3.9 1.3 1.3v.1h-3.9V14.6c-.7-.2-1.3-.9-1.3-1.3v-.1h5.2v.1c0 .4-.6 1-1.3 1.3v4.2l5.2-4.4zM226.2 16.2l-1.9 4.2c1.4-.1 2.8-.1 4.1 0l-2-4.3h-.2zm-2.3 9.1v.1h-5.1v-.1c0-.6.8-1.2 1.4-1.3l4.4-9.5c-.5-.2-1-.7-1-1.1v-.1h5.8v.1c0 .4-.6.9-1 1.1l4.7 9.5c.6.1 1.4.7 1.4 1.3v.1H229v-.1c0-.6.7-1.1 1.2-1.2l-.7-1.5c-2-.3-4.1-.3-6.1 0l-.7 1.5c.7 0 1.2.5 1.2 1.2"/></svg>