<svg xmlns="http://www.w3.org/2000/svg" viewBox="0 0 150 43"><g fill="#B6BCC6"><path d="M91.4 15.65V9.49A8.85 8.85 0 0 0 82.57.66H58.23v15C32.57 16.86 11.19 20.81 0 26.12c13.31-3.26 34.09-5.61 58.23-6.36v1.62a8.85 8.85 0 0 0 8.83 8.82H91.4V19.77c24.14.75 44.91 3.09 58.22 6.36-11.19-5.32-32.56-9.27-58.22-10.48zm-1.58 13H67a7.25 7.25 0 0 1-7.23-7.23V2.24H82.6a7.25 7.25 0 0 1 7.23 7.23v19.16l-.01.02z"/><path d="M82.53 3.29H60.85v18a6.26 6.26 0 0 0 6.24 6.24h21.69v-18a6.26 6.26 0 0 0-6.25-6.24zm-18.91 3h8.12l-.07 4.22h-8v-4.2l-.05-.02zm.24 11.81s3.33-.55 2.73-3.45a4.58 4.58 0 0 0-3-2.88h5.71a3.92 3.92 0 0 1 2 .8 3.68 3.68 0 0 1 1.41 2 2.74 2.74 0 0 1-.41 2.47 3.3 3.3 0 0 1-2.2 1h-6.25l.01.06zm8.07 6.59l5-18.92h1.18l-5 18.88h-1.19l.01.04zm13.39-1.55a3.49 3.49 0 0 1-2.75 1.16H77.4s3.25-.66 2.69-3.37a3.54 3.54 0 0 0-.8-1.53 5.34 5.34 0 0 0-1.8-1.21c3.45-.69 2.62-3.3 2.62-3.3a4.1 4.1 0 0 0-2.7-2.68h5.29a3.26 3.26 0 0 1 1.88.67 3.37 3.37 0 0 1 1.31 1.87c.21.804.02 1.66-.51 2.3a3.64 3.64 0 0 1-2.13 1.15 7.22 7.22 0 0 1 1.68 1A3.08 3.08 0 0 1 86 21a2.66 2.66 0 0 1-.68 2.16v-.02zm-73 14.93c0 1-.93 1.25-2 1.25H7.54v2.62c1 .17 1.4.57 1.4.83v.06H5.66v-8.48a1.39 1.39 0 0 1-1-.86h8.62v2.37h-.07a1.36 1.36 0 0 1-.86-1H7.54V38h4.78v.11-.04zm5.02 4.76h-3.4v-.08a1.18 1.18 0 0 1 .84-.83v-6.11a1.18 1.18 0 0 1-.85-.81v-.1h3.4v.1a1.18 1.18 0 0 1-.84.83v6.12c.408.107.729.423.84.83v.08l.01-.03zM25 38.79c0 .85-.8 1.21-1.74 1.21H21v2a1.65 1.65 0 0 1 1.31.83v.08h-3v-7a1.18 1.18 0 0 1-.89-.91v-.1h7.38V37h-.07a1.18 1.18 0 0 1-.83-.84H21v2.47h4v.16zm8.95-3.89V37h-.08a1.18 1.18 0 0 1-.87-.8h-1.89v5.73c.5.061.934.374 1.15.83v.08h-4v-.09a1.47 1.47 0 0 1 1.15-.83V36.2h-2.08a1.18 1.18 0 0 1-.83.84h-.08V34.9H33.95zm3.17 3.26a10.81 10.81 0 0 1 2.41-.23 12.67 12.67 0 0 1 2.44.23v-2.35a1.18 1.18 0 0 1-.84-.81v-.1h3.41v.1a1.18 1.18 0 0 1-.84.83v6.12c.408.107.729.423.84.83v.08H42v-3.25a12.66 12.66 0 0 0-2.44-.23 10.8 10.8 0 0 0-2.41.23v2.32c.408.107.729.423.84.83v.08H35.4v-7a1.18 1.18 0 0 1-.84-.84v-.1H38v.1a1.18 1.18 0 0 1-.84.83v2.35l-.04-.02zm23.34-4.72v2.37a1.38 1.38 0 0 1-.89-1h-2.91v7.16c.46.095.837.42 1 .86h-3.91a1.31 1.31 0 0 1 1-.86v-7.19H51.9a1.33 1.33 0 0 1-.86 1v-2.34h9.46-.04zm3.03 4.72a10.8 10.8 0 0 1 2.41-.23 12.68 12.68 0 0 1 2.44.23v-2.35a1.18 1.18 0 0 1-.84-.81v-.1h3.4v.1a1.18 1.18 0 0 1-.84.83v6.12c.408.107.729.423.84.83v.08h-2.56v-3.25a12.66 12.66 0 0 0-2.44-.23 10.78 10.78 0 0 0-2.41.23v2.32c.408.107.729.423.84.83v.08h-2.56v-7a1.18 1.18 0 0 1-.84-.84v-.1h3.41v.1a1.18 1.18 0 0 1-.84.83v2.35l-.01-.02zm11.97 4.67H72v-.08a1.18 1.18 0 0 1 .84-.83v-6.11A1.18 1.18 0 0 1 72 35v-.1h3.41v.1a1.18 1.18 0 0 1-.84.83v6.12c.408.107.729.423.84.83v.08l.05-.03zm4.54 0h-2.55v-7a1.18 1.18 0 0 1-.85-.83v-.1h5.56c1.93 0 3.19.63 3.19 2.35 0 1.33-.84 2-2.17 2.23l1.69 2.44a1.23 1.23 0 0 1 1 .83v.08h-2.4l-2.14-3.22h-2.17v2.32c.408.107.729.423.84.83v.08-.01zm1.91-4.4c1.45 0 1.72-.47 1.72-1.11 0-.64-.27-1.12-1.72-1.12h-2.75v2.23h2.76-.01zm5.7-2.62a1.17 1.17 0 0 1-.85-.81v-.1h5.5a3.63 3.63 0 0 1 3.92 4 3.63 3.63 0 0 1-3.92 4h-4.65v-7.09zm4.05 5.73c1.88 0 2.8-.57 2.8-2.67s-.92-2.67-2.8-2.67h-2.34v5.33h2.34v.01zm17.22-8.1c2.18 0 3.66.56 3.66 2.37 0 1.13-.77 1.84-2.08 2.11 1.48.27 2.35 1 2.35 2.28 0 1.48-1.28 2.64-3.53 2.64h-6.08v-8.49a1.39 1.39 0 0 1-1-.86h6.69l-.01-.05zm-.2 3.75c1.14 0 2-.26 2-1.24s-.84-1-2-1h-3.6v2.28h3.6v-.04zm0 4.13c1.6 0 2.2-.45 2.2-1.3 0-.85-.59-1.34-2.18-1.34h-3.66v2.64h3.65-.01zm15.2-5.51A1.18 1.18 0 0 1 123 35v-.1h2.44l5.23 5.38v-4.47a1.18 1.18 0 0 1-.84-.83v-.08h3.25v.1a1.17 1.17 0 0 1-.84.83v6.12c.408.107.729.423.84.83v.08h-2.26l-5.41-5.56v4.66c.408.107.729.423.84.83v.08h-2.41v-7l.04-.06zm16.34-.14a1 1 0 0 1-.39-.69v-.08h3.27v.1c-.1.429-.454.75-.89.81l-2.86 2.41 3.18 3.72a1.23 1.23 0 0 1 1 .83v.08h-2.4l-3-3.62-1.25 1v1.75c.408.107.729.423.84.83v.08h-2.56v-7a1.18 1.18 0 0 1-.84-.83v-.16h3.41v.1a1.18 1.18 0 0 1-.84.83v2.73l3.33-2.89zm-24.11 7.09v.08h-3.31v-.08c.113-.44.48-.767.93-.83l2.89-6.21A1.08 1.08 0 0 1 116 35v-.09h3.78V35a1.15 1.15 0 0 1-.68.74l3.07 6.21c.45.063.817.39.93.83v.08h-3.66v-.1a1 1 0 0 1 .8-.8l-.47-1a14.13 14.13 0 0 0-4 0l-.44 1a.91.91 0 0 1 .8.83l-.02-.03zm1.53-5.97l-1.24 2.77a11.39 11.39 0 0 1 1.34-.06 11 11 0 0 1 1.36.07l-1.31-2.79h-.15v.01z"/></g></svg>