<svg xmlns="http://www.w3.org/2000/svg" width="230" height="31"><g fill="none"><path fill="#1B459C" d="M54.853 15.586c0 1.292-1.206 1.636-2.67 1.636h-3.702v3.445c1.291.258 1.894.775 1.894 1.12v.085h-4.392v-11.28c-.775-.259-1.377-.775-1.377-1.12v-.086h11.452v3.1h-.086c-.344 0-.86-.603-1.12-1.378h-6.371v4.22h6.372v.258zm6.63 6.286H56.92v-.086c0-.344.517-.861 1.12-1.12v-8.094c-.603-.172-1.12-.775-1.12-1.12v-.085h4.564v.086c0 .344-.516.86-1.12 1.12v8.094c.604.172 1.12.775 1.12 1.12v.085zm10.85-5.683c0 1.292-1.205 1.636-2.67 1.636h-3.357v2.842c.86.172 1.55.775 1.55 1.12v.085h-3.79v-9.3c-.602-.172-1.119-.775-1.119-1.12v-.085H73.97v2.841h-.086c-.344 0-.86-.516-1.12-1.12h-6.457v3.1h6.027zm13.175-4.822v2.841h-.086c-.344 0-.86-.516-1.12-1.12H81.29v7.579c.861.172 1.55.775 1.55 1.12v.085H77.5v-.086c0-.344.689-.861 1.55-1.12V13.09h-2.928c-.172.603-.775 1.12-1.12 1.12h-.085v-2.842h10.591zm4.564 4.305c1.034-.258 2.153-.344 3.186-.258 1.12 0 2.153.086 3.273.258v-3.1c-.603-.172-1.12-.775-1.12-1.12v-.085h4.564v.086c0 .344-.517.86-1.12 1.12v8.094c.603.172 1.12.775 1.12 1.12v.085h-3.358v-4.305c-1.034-.173-2.153-.345-3.273-.259-1.033 0-2.152.086-3.186.259v3.1c.603.172 1.12.775 1.12 1.12v.085h-3.445v-9.3c-.602-.172-1.12-.775-1.12-1.12v-.085h4.565v.086c0 .344-.517.86-1.12 1.12l-.086 3.1zm29.622-6.286v3.1c-.344 0-.947-.603-1.205-1.378H114.7v9.473c.775.258 1.378.775 1.378 1.119h-5.167c0-.344.603-.947 1.378-1.12v-9.386H108.5c-.258.775-.775 1.378-1.12 1.378h-.086v-3.1h12.4v-.086zm4.564 6.286a9.985 9.985 0 0 1 3.186-.258c1.12 0 2.153.086 3.273.258v-3.1c-.603-.172-1.12-.775-1.12-1.12v-.085h4.564v.086c0 .344-.517.86-1.12 1.12v8.094c.603.172 1.12.775 1.12 1.12v.085h-3.444v-4.305c-1.034-.173-2.153-.345-3.273-.259-1.033 0-2.152.086-3.186.259v3.1c.603.172 1.12.775 1.12 1.12v.085h-3.445v-9.3c-.602-.172-1.12-.775-1.12-1.12v-.085h4.565v.086c0 .344-.517.86-1.12 1.12v3.1zm15.759 6.2h-4.564v-.086c0-.344.516-.861 1.12-1.12v-8.094c-.604-.172-1.12-.775-1.12-1.12v-.085h4.564v.086c0 .344-.517.86-1.12 1.12v8.094c.603.172 1.12.775 1.12 1.12v.085zm5.941 0H142.6v-9.3c-.603-.172-1.12-.775-1.12-1.12v-.085h7.406c2.583 0 4.22.86 4.22 3.1 0 1.722-1.12 2.67-2.842 2.927l2.239 3.273c.603.086 1.291.689 1.291 1.12v.085h-3.186l-2.841-4.305h-2.842v3.1c.603.172 1.12.775 1.12 1.12l-.087.085zm2.584-5.855c1.894 0 2.325-.603 2.325-1.464s-.345-1.464-2.325-1.464h-3.617v2.928h3.617zm7.06-3.445c-.602-.172-1.119-.775-1.119-1.12v-.085h7.32c2.928 0 5.166 1.722 5.166 5.252 0 3.531-2.238 5.253-5.166 5.253h-6.2v-9.3zm5.34 7.578c2.497 0 3.702-.775 3.702-3.53 0-2.756-1.205-3.531-3.702-3.531h-3.1v7.061h3.1z"/><path fill="#00AE64" d="M34.53 9.214C34.445 4.134 30.398 0 25.318 0H0v21.528c0 5.08 4.133 9.128 9.214 9.214H34.53V9.214z"/><path fill="#FFF" d="M25.317 1.636H1.637v19.892a7.497 7.497 0 0 0 7.49 7.491h23.681V9.128a7.497 7.497 0 0 0-7.491-7.492"/><path fill="#1B459C" d="M25.23 2.756H2.757v18.772a6.45 6.45 0 0 0 6.458 6.458h22.561V9.214c0-3.53-2.928-6.458-6.544-6.458"/><path fill="#FFF" d="M15.5 24.972L20.667 5.34H19.46l-5.167 19.72 1.206-.087zm10.506-6.716c.86-.173 1.636-.517 2.238-1.206.517-.689.775-1.55.517-2.411-.172-.775-.689-1.464-1.378-1.98-.602-.431-1.291-.69-1.98-.69h-5.511a4.27 4.27 0 0 1 2.841 2.842s.861 2.67-2.755 3.445c0 0-.086 0 0 0 .689.258 1.291.688 1.894 1.291.43.43.69 1.034.861 1.55.603 2.842-2.841 3.53-2.841 3.53h5.339c1.894 0 2.669-1.033 2.841-1.205a2.554 2.554 0 0 0 .69-2.325c-.173-.689-.518-1.378-1.12-1.808-.43-.43-1.034-.775-1.636-1.033zM14.639 17.05c.517-.517.689-1.636.43-2.583-.258-.861-.775-1.636-1.463-2.153-.603-.43-1.292-.775-2.067-.861H5.683c1.464.43 2.584 1.55 3.1 3.014.603 3.014-2.841 3.616-2.841 3.616H12.4c.775 0 1.636-.344 2.239-1.033zm-.603-11.194l-.086 4.391H5.597V5.856h8.44z"/><path fill="#1B459C" d="M183.072 19.892c2.153 0 2.928-.603 2.928-1.723 0-1.119-.775-1.808-2.928-1.808h-4.822v3.53h4.822zm-.086-5.511c1.55 0 2.67-.345 2.67-1.637 0-1.205-1.12-1.377-2.67-1.377h-4.736v3.014h4.736zm.258-4.909c2.928 0 4.823.775 4.823 3.1 0 1.464-1.034 2.411-2.756 2.842 1.98.344 3.1 1.378 3.1 3.014 0 1.98-1.722 3.53-4.65 3.53h-8.094V10.764c-.775-.258-1.292-.775-1.292-1.12v-.172h8.87zm19.892 3.1c-.603-.172-1.12-.775-1.12-1.12v-.085h3.273l6.889 7.147v-5.942c-.603-.172-1.12-.775-1.12-1.12v-.085h4.306v.086c0 .344-.517.86-1.12 1.12v8.094c.603.172 1.12.775 1.12 1.12v.085h-3.014l-7.147-7.32v6.115c.603.172 1.12.775 1.12 1.12v.085h-3.187v-9.3zm21.614-.172c-.258-.258-.517-.517-.517-.947v-.086h4.306v.086c0 .516-.689 1.033-1.206 1.12l-3.789 3.185 4.22 4.909c.517.172 1.292.602 1.292 1.12v.085h-3.187l-3.96-4.822-1.637 1.292v2.325c.603.172 1.12.775 1.12 1.12v.085h-3.359v-9.3c-.602-.172-1.12-.775-1.12-1.12v-.085h4.479v.086c0 .344-.517.86-1.12 1.12v3.616l4.478-3.789zm-29.967 1.55l-1.636 3.617a24.15 24.15 0 0 1 3.53 0l-1.721-3.703h-.173v.086zm-1.98 7.836v.086h-4.392v-.086c0-.517.689-1.033 1.206-1.12l3.789-8.18c-.431-.172-.862-.603-.862-.947v-.086h4.995v.086c0 .344-.517.775-.861.947l4.047 8.18c.517.087 1.206.603 1.206 1.12v.086h-4.737v-.086c0-.517.603-.947 1.034-1.033l-.603-1.292a17.898 17.898 0 0 0-5.253 0l-.603 1.292c.603 0 1.034.43 1.034 1.033z"/></g></svg>