<svg xmlns="http://www.w3.org/2000/svg" viewBox="0 0 474.3 256.4"><path d="M237.5 0C161.8 0 127.3 76.4 52.7 77.4v28.2c91.7-1 114.2-77.4 184.7-77.4 25.5 0 49.9 17.5 69.3 33.7 3.3-2.3 6.7-4.7 10.1-7.1 4.5-3.2 9.2-6.4 14.1-9.6C305.8 22.2 269.7 0 237.5 0z"/><path fill="#00AEEF" d="M421.9 24.8c-91.6 1-114.1 77.4-184.5 77.4-25.5 0-49.9-17.5-69.4-33.7-3.3 2.3-6.7 4.7-10.1 7.1-4.5 3.2-9.2 6.4-14.1 9.6 25.1 23 61.3 45.2 93.6 45.2 75.5 0 110-76.4 184.5-77.4V24.8z"/><path d="M48.6 218.6v-9.9H11.3l.6.6v-24.2l-.6.6H52v-11H0v80.6H11.9v-36.7l-.6.6H48.6v-.6z"/><path fill="#696A6D" d="M245 209c-4.2-1.2-10.5-3-11.4-3.3-6.3-1.9-11.2-3.4-11.2-10.6 0-7.5 5.7-12 15.1-12 2.9 0 10.5 0 14.8 6.2 2 2.7 2.6 5.7 2.9 7.8h10.6c-.3-2.9-.7-6.6-3.3-11.2-5.1-8.8-13.6-11.8-25-11.8-10.8 0-20.1 3.3-24.5 12.4-1.4 2.8-2 6.1-2 9.4 0 8.7 4.5 13.8 8.1 16.1 2.5 1.6 4.4 2.3 11.1 4.3l7.6 2.2c9.7 2.9 17.8 5.6 17.8 14.7 0 4.9-3.4 13.2-16.8 13.2-4 0-12.4-.2-17.4-7.3-2.5-3.3-3.1-6.7-3.4-9.5h-11c.3 3.2.7 7.1 3.1 12 4.1 8 10.5 11 16.4 12.6 3.4.9 7.2 1.5 11.4 1.5 13.7 0 28.8-6.1 28.8-23.2 0-16.6-13.9-21-21.7-23.5"/><path fill="#696A6D" d="M245.1 208.4c-4.1-1.2-10.4-3-11.4-3.3h-.1c-6.2-1.9-10.7-3.2-10.7-10 0-7.1 5.4-11.4 14.5-11.4 2.8 0 10.1 0 14.3 5.9 1.9 2.6 2.5 5.6 2.8 7.6l.1.5H266.4l-.1-.7v-.3c-.3-2.9-.8-6.6-3.3-11.1-4.8-8.3-12.9-12.1-25.5-12.1s-21 4.3-25.1 12.7c-1.4 2.8-2.1 6.2-2.1 9.7 0 10.5 6.4 15.4 8.4 16.6 2.6 1.6 4.6 2.3 11.3 4.3l7.7 2.2c10.5 3.2 17.3 5.9 17.3 14.1 0 5.8-4.2 12.5-16.1 12.5-5.5 0-12.5-.8-16.9-7.1-2.3-3.1-3-6.3-3.3-9.2l-.1-.5H206.3l.1.7v.2c.3 3.1.7 7.1 3.2 12 4.5 8.8 11.7 11.6 16.8 12.9 3.7 1 7.6 1.5 11.5 1.5 14.2 0 29.4-6.2 29.4-23.8 0-16.9-14.4-21.4-22.2-23.9zm20.9 24.1c0 16.6-14.6 22.6-28.2 22.6-3.9 0-7.6-.5-11.2-1.4-4.9-1.3-11.8-3.9-16-12.3-2.3-4.7-2.7-8.3-3.1-11.5v-.2l-.6.7H218l-.6-.5c.4 3 1.1 6.4 3.5 9.8 5.4 7.6 14.5 7.6 17.9 7.6 12.8 0 17.4-7.4 17.4-13.8 0-9.8-9.3-12.6-18.2-15.3l-7.7-2.2c-6.6-2-8.5-2.7-11-4.2-1.8-1.1-7.8-5.7-7.8-15.6 0-3.3.7-6.5 2-9.2 3.8-8 11.9-12 24-12s19.9 3.7 24.4 11.5c2.4 4.3 2.8 7.8 3.1 10.7v.3l.6-.7H255l.6.5c-.3-2.1-.9-5.3-3-8.1-4.6-6.4-12.4-6.4-15.3-6.4-9.7 0-15.7 4.8-15.7 12.6 0 7.6 5.4 9.2 11.6 11.1h.1c.9.2 7 2 11.4 3.3 8 2.3 21.3 6.5 21.3 22.7z"/><path d="M80.8 194.7c-17.8 0-28.4 11.7-28.4 31.2 0 8.8 2.3 16.5 6.4 21.5 7.2 9 17.4 9 21.2 9 7.2 0 15.4-1.1 21.9-8.9 4.6-5.4 7.1-13.2 7.1-22.1.1-14.8-7.3-30.7-28.2-30.7zm7.4 50.7c-2.1 1.1-4.7 1.6-7.5 1.6-8 0-12-4.7-13-6.2-3.1-4.4-3.6-11.3-3.6-15 0-4.3.6-10.3 3.5-14.7 4.4-6.6 10.8-6.6 13-6.6 5.7 0 10 2.1 12.9 6.1 3.1 4.3 3.7 10.7 3.7 15.3 0 10.1-3 16.4-9 19.5zM145.6 206.1v-10.6h-5.1c-7.6 0-13.3 3.7-16.5 10.6l1.2.3V196H114.3V255.3H125.6V235.1c0-12.4 0-18 3.7-22.7 2.2-2.8 6.5-5.7 12.3-5.7h4v-.6zM188 236.6c-.8 3.4-3.3 10.6-13.9 10.6-11.5 0-17.2-7.9-17.2-19h42.3c.2-8.7-.8-17.5-6.1-24.2-6.7-8.5-16.5-8.8-19.8-8.8-6.4 0-14.1 1.5-20.5 9.6-3.7 4.8-6.6 11.7-6.6 21.1 0 14.6 7 24.6 16.4 28.2 3.4 1.2 7.1 1.6 10.9 1.6 3.7 0 14.8 0 21.6-10 2.6-3.8 3.3-7 3.6-9.2H188zm-14.4-32.4c9.4 0 14.3 6.6 15 15.7H157c1.6-9.2 6.6-15.7 16.6-15.7"/><path d="M187.4 236.5c-1.5 6.7-6 10.2-13.3 10.2-10.4 0-16.6-6.9-16.6-18.4l-.6.6h42.9v-.6c.2-7-.3-17.1-6.2-24.6-4.7-6-11.5-9-20.3-9-5.7 0-14 1-20.9 9.8-4.5 5.9-6.8 13.1-6.8 21.5 0 13.8 6.4 24.8 16.8 28.8 3 1.1 6.5 1.6 11.1 1.6 3.8 0 15.2 0 22.1-10.3 2.5-3.8 3.3-7 3.7-9.4l.1-.7H187.5l-.1.5zm10.8 0c-.4 2.3-1.1 5.4-3.5 8.9-6.6 9.7-17.5 9.7-21.1 9.7-4.4 0-7.8-.5-10.7-1.5-9.9-3.8-16-14.4-16-27.6 0-8.2 2.2-15.1 6.5-20.8 6.6-8.4 14.6-9.3 20-9.3 8.3 0 14.8 2.9 19.3 8.5 5.7 7.1 6.1 17 5.9 23.8l.6-.6H156.4v.6c0 12.3 6.7 19.6 17.8 19.6 7.8 0 12.8-3.8 14.5-11.1l-.6.5h10.7l-.6-.7z"/><path d="M173.6 204.8c8.4 0 13.6 5.5 14.3 15.2l.6-.7H157l.6.7c1.8-10.1 7.2-15.2 16-15.2zM157 220.5H189.3l-.1-.7c-.8-10.2-6.6-16.3-15.6-16.3-9.3 0-15.3 5.6-17.2 16.2l-.1.7h.7z"/><path fill="#696A6D" d="M314.9 233.9c-1.4 7.8-6 13.3-14.7 13.3-5.6 0-10-1.9-13.1-7.1-2.7-4.5-3.3-9.7-3.3-14.8 0-21.5 14.3-21.5 16.1-21.5 4.6 0 8.9 1.9 11.4 5.7 1.2 1.9 1.8 3.7 2.1 5.4h10.8c-.4-2.7-.8-5.6-3.2-9.6-1.6-2.6-6.1-10.1-20.9-10.1-20.6 0-26.9 16.4-26.9 30.3 0 13.8 6.1 30.4 26.8 30.4 16.2 0 23.4-9 25.4-21.9h-10.5z"/><path fill="#696A6D" d="M314.3 233.8c-1 5.8-4.3 12.7-14.1 12.7-5.8 0-9.8-2.2-12.5-6.8-2.8-4.7-3.2-10.2-3.2-14.5 0-19.4 11.8-20.9 15.5-20.9 4.7 0 8.6 2 10.8 5.5 1.3 2 1.8 3.9 2.1 5.2l.1.5h12l-.1-.7-.1-.5c-.4-2.5-.9-5.4-3.2-9.3-1.6-2.6-6.3-10.4-21.4-10.4-20.3 0-27.5 16-27.5 30.9 0 7.3 2 31 27.4 31 14.9 0 23.7-7.5 26-22.4l.1-.7h-11.7l-.2.4zm10.5 0c-2.2 14.2-10.6 21.4-24.8 21.4-24.3 0-26.2-22.8-26.2-29.7 0-7 1.9-29.6 26.3-29.6 14.4 0 18.7 7.1 20.4 9.8 2.3 3.7 2.7 6.3 3.1 8.9l.1.5.6-.7h-10.8l.6.5c-.3-1.4-.8-3.5-2.2-5.6-2.5-3.8-6.8-6-11.9-6-3.9 0-16.7 1.6-16.7 22.1 0 4.5.4 10.2 3.3 15.2 3 5 7.3 7.4 13.6 7.4 8.3 0 13.7-4.9 15.3-13.8l-.6.5h10.5l-.6-.9zM378.2 247.1c-6.6 7.9-15 8.7-21.5 8.7-4.2 0-13.8-.2-20.7-8.8-4.2-5.1-6.3-12.6-6.3-21.1 0-21 11.9-30.6 27.8-30.6 19.3 0 27.7 14.2 27.7 30.1 0 10-3.1 17.2-7 21.7m-7.5-36.8c-4.4-6.2-10.9-6.4-13.4-6.4-2.6 0-9.1.2-13.5 6.9-3 4.6-3.6 10.9-3.6 15.1 0 4.6.7 11.1 3.7 15.4 2 2.8 6.4 6.4 13.5 6.4 2.8 0 5.5-.6 7.8-1.7 7.6-3.8 9.3-12.3 9.3-20 0-6-1-11.8-3.8-15.7"/><g fill="#696A6D"><path d="M377.8 246.7c-6.3 7.4-14.1 8.4-21 8.4-3.7 0-13.4 0-20.2-8.5-4-4.8-6.2-12.2-6.2-20.8 0-19 9.9-30 27.2-30 19.9 0 27 15.3 27 29.5 0 8.7-2.4 16.3-6.8 21.4zm8-21.3c0-14.9-7.4-30.8-28.3-30.8-17.8 0-28.4 11.7-28.4 31.2 0 8.8 2.3 16.5 6.4 21.5 7.2 9 17.3 9 21.2 9 7.2 0 15.4-1.1 21.9-8.9 4.7-5.3 7.2-13.1 7.2-22z"/><path d="M371.2 209.9c-3.1-4.4-7.8-6.7-13.9-6.7-6.2 0-10.9 2.4-14 7.1-3.1 4.6-3.7 10.9-3.7 15.4 0 4.7.7 11.3 3.8 15.8 1.4 2 5.7 6.7 14 6.7 3 0 5.7-.6 8-1.8 6.5-3.3 9.7-10 9.7-20.6 0-4.7-.6-11.3-3.9-15.9zm2.7 16c0 10.1-2.9 16.4-9 19.5-2.1 1.1-4.7 1.6-7.5 1.6-7.7 0-11.7-4.3-13-6.2-3.1-4.4-3.6-11.3-3.6-15 0-4.3.6-10.3 3.5-14.7 4.3-6.6 10.8-6.6 13-6.6 5.7 0 10 2.1 12.9 6.1 3.1 4.3 3.7 10.7 3.7 15.3z"/></g><path fill="#696A6D" d="M390.3 196.4h10.5v34.9c.1 2.4.2 4.7.8 6.9 2.1 6.8 8 8.9 12.7 8.9 12.8 0 13.2-12 13.3-17.9v-32.7h10.3v34.6c-.2 5.4-.6 12.5-6.2 18.3-4.5 4.5-11.2 6.4-17.8 6.4-6.6 0-13.3-1.9-17.7-6.4-5.6-5.7-5.7-12.6-6-18v-35z"/><path fill="#696A6D" d="M390.3 197h10.5l-.6-.6v34.9c.1 2.4.2 4.8.8 7 2.8 8.7 10.9 9.3 13.3 9.3 13.5 0 13.8-13 13.9-18.5v-32.7l-.6.6h10.3l-.6-.6V231c-.2 5.1-.5 12.2-6 17.9-4 3.9-10.3 6.2-17.3 6.2-7.2 0-13.3-2.2-17.2-6.2-5.3-5.4-5.6-11.9-5.8-17.1v-.5-34.9l-.7.6zm-.6 34.4v.5c.2 5.4.5 12.2 6.1 17.9 4.1 4.2 10.6 6.6 18.1 6.6 7.4 0 14-2.4 18.2-6.6 5.8-6.1 6.1-13.4 6.4-18.7V195.8H427V229.1c-.1 5.6-.3 17.3-12.7 17.3-2.2 0-9.6-.6-12.1-8.5-.5-2.1-.6-4.4-.8-6.7v-35.4h-11.7v35.6zM453.5 183.2h10.3v13.2h9.9v8.7h-9.9v49.6h-10.3v-49.6h-9.6v-8.7h9.6"/><g><path fill="#696A6D" d="M453.5 183.8h10.3l-.6-.6v13.9h10.5l-.6-.6v8.7l.6-.6h-10.5v50.2l.6-.6h-10.3l.6.6v-50.2h-10.2l.6.6v-8.7l-.6.6h10.2v-13.9l-.6.6zm0 12h-10.2V205.7h10.2l-.6-.6v50.2h11.5v-50.2l-.6.6h10.5V195.8h-10.5l.6.6v-13.9h-11.5v13.9l.6-.6z"/></g><circle fill="#696A6D" cx="236.8" cy="63.2" r="22"/></svg>