<svg xmlns="http://www.w3.org/2000/svg" width="188" height="96" viewBox="0 0 188 96"><path d="M3.306 74.558H.094v-.829h17.818l.207 6.526h-.828c-.518-2.071-.933-4.35-3.108-5.283-.725-.31-1.968-.414-3.315-.414H7.45v9.219c3.004 0 4.661-.517 4.868-3.936h.829v9.012h-.829c-.31-3.625-1.45-4.35-4.868-4.247v9.738h3.107v.829H.094v-.829h3.212V74.558zm15.228 12.224c0-3.937 3.418-7.873 7.458-7.873 3.937 0 7.459 3.936 7.459 7.873 0 4.351-2.693 8.805-7.459 8.805-4.765 0-7.458-4.454-7.458-8.805zm11.395-2.487c0-.932-.104-1.657-.415-2.382-.414-1.45-1.45-2.486-3.522-2.486-2.175 0-3.211 1.036-3.625 2.486-.207.725-.311 1.45-.311 2.382v5.18c0 .932 0 1.865.207 2.694.518 1.657 1.45 2.797 3.729 2.797s3.212-1.14 3.626-2.797a11.31 11.31 0 00.311-2.694v-5.18zm21.961-5.076v.622h-2.382V89.89c0 2.382-.518 3.522-1.45 4.454-1.037.829-2.487 1.243-4.662 1.243-1.658 0-3.211-.518-4.247-1.347-1.036-.725-1.451-2.279-1.451-4.972v-9.427h-2.382v-.622h7.769v.622h-2.383v8.702c0 3.315-.31 6.215 4.04 6.215 2.797 0 3.937-1.761 3.937-4.351V79.841H46.4v-.622h5.49zm7.148 15.332h2.383v.622h-7.77v-.622h2.383v-14.71h-2.383v-.622h7.977c2.59 0 5.697.311 5.697 3.626 0 2.694-2.796 3.626-5.076 3.937 3.73.621 4.559 2.589 4.559 6.526 0 .829.103 1.761 2.382 1.347v.518a6.513 6.513 0 01-1.968.31c-2.486 0-3.73-1.243-3.73-3.625 0-1.968-.31-3.522-.932-4.04-.725-.518-1.45-.829-2.175-.829h-1.347v7.562zm0-8.184h1.969c2.175 0 3.004-1.036 3.004-3.211 0-2.59-.725-3.315-2.901-3.315h-2.072v6.526zm20.201 9.013h-.519v-6.423h.933c.621 3.108 2.486 5.905 5.905 5.905 2.486 0 4.765-1.865 4.765-4.455 0-3.004-2.694-3.625-5.076-4.454-.622-.207-1.243-.414-1.968-.622-2.901-.932-4.455-3.107-4.455-6.215 0-3.315 2.486-5.801 5.905-5.801 1.864 0 3.211.414 4.662 1.554l1.243-1.243h.518v6.008h-1.036c-.311-3.004-2.279-5.594-5.491-5.594-2.072 0-4.04 1.554-4.04 3.729 0 2.486 1.761 2.694 3.73 3.212.828.207 1.45.517 1.968.621.621.207 1.45.415 2.175.725 2.694 1.347 3.626 3.419 3.626 6.319 0 4.04-2.59 7.045-6.734 7.045-1.554 0-3.522-.622-4.558-1.658l-1.553 1.347zm21.339-15.539v6.837c2.279 0 3.522-.311 3.626-2.901h.622v6.63h-.622c-.207-2.589-1.036-3.211-3.626-3.107v7.251h3.315c3.108 0 3.833-1.761 4.351-4.454h.622l-.207 5.076H95.088v-.622h2.383v-14.71h-2.383v-.622h13.26l.103 4.351h-.621c-.518-2.279-1.45-3.211-2.693-3.522-.622-.207-1.244-.207-2.072-.207h-2.487zm10.049 15.332v-.622h1.968l5.698-15.642h.828l5.387 15.642h1.968v.622h-7.562v-.622h2.486l-1.45-4.144h-5.18l-1.45 4.144h2.383v.622h-5.076zm4.351-5.387h4.661l-2.175-6.734-2.486 6.734zm13.985 5.594h-.415v-4.765h.622c.518 2.279 1.864 4.351 4.454 4.351 1.865 0 3.522-1.451 3.522-3.316 0-2.279-1.968-2.693-3.729-3.314-.518-.208-1.036-.311-1.45-.518-2.279-.622-3.315-2.279-3.315-4.558 0-2.487 1.865-4.351 4.351-4.351 1.346 0 2.382.31 3.418 1.139l.932-.932h.415v4.558h-.725c-.311-2.279-1.761-4.247-4.144-4.247-1.554 0-3.004 1.139-3.004 2.797 0 1.761 1.347 1.968 2.797 2.382.621.208 1.036.311 1.45.518.518.104 1.14.311 1.658.518 1.968.932 2.693 2.486 2.693 4.662 0 3.004-1.968 5.283-5.076 5.283-1.14 0-2.59-.518-3.419-1.243l-1.035 1.036zm12.741-8.598c0-3.937 3.419-7.873 7.459-7.873 3.936 0 7.355 3.936 7.355 7.873 0 4.351-2.693 8.805-7.355 8.805-4.765 0-7.459-4.454-7.459-8.805zm11.292-2.487c0-.932-.104-1.657-.311-2.382-.518-1.45-1.45-2.486-3.522-2.486-2.175 0-3.212 1.036-3.626 2.486-.207.725-.311 1.45-.311 2.382v5.18c0 .932 0 1.865.208 2.694.414 1.657 1.45 2.797 3.729 2.797s3.211-1.14 3.626-2.797c.207-.829.207-1.762.207-2.694v-5.18zm19.372 11.188h-.726l-10.048-15.124v14.192h2.279v.622h-5.387v-.622h2.279v-14.71h-2.279v-.622h6.112l7.044 10.463v-9.841h-2.279v-.622h5.387v.622h-2.382v15.642zm5.283-.103h-.415v-4.765h.725c.518 2.279 1.865 4.351 4.351 4.351 1.865 0 3.626-1.451 3.626-3.316 0-2.279-2.072-2.693-3.833-3.314-.414-.208-.932-.311-1.45-.518-2.176-.622-3.315-2.279-3.315-4.558 0-2.487 1.864-4.351 4.351-4.351 1.45 0 2.382.31 3.522 1.139l.932-.932h.414v4.558h-.828c-.207-2.279-1.658-4.247-4.04-4.247-1.554 0-3.004 1.139-3.004 2.797 0 1.761 1.243 1.968 2.693 2.382.622.208 1.14.311 1.554.518a13.76 13.76 0 011.554.518c1.968.932 2.693 2.486 2.693 4.662 0 3.004-1.968 5.283-4.972 5.283-1.14 0-2.59-.518-3.419-1.243l-1.139 1.036zm-73.053-70.255l.228-5.471v-.103c.103 0 .103.103.103.103l.311 8.08s0 .207-.103.311L93.71 34.784l.141 8.264 14.186-7.337c.207-.104.207-.207.207-.207l.415-9.945v-.207c.103 0 .103.104.103.207l.338 8.55c.253-1.234 1.157-1.717 2.252-1.817-.205 1.131-.82 1.956-2.246 1.969l.07 1.761s0 .207-.103.311l-15.184 8.914.134 7.87 17.433-8.911c.31-.208.31-.415.31-.415l.415-11.809c0-.208 0-.311.103-.311 0 0 .104.103.104.311l.414 12.534s.104.311-.103.415l-18.63 10.883.087 5.07 1.968.932v.207h-6.112v-.207l1.968-.932.086-5.013-18.628-10.94c-.208-.104-.208-.415-.208-.415l.518-12.534c0-.208 0-.311.104-.311 0 0 .103.103.103.311l.415 11.809s0 .207.207.415l17.535 8.964.134-7.866-15.183-8.971c-.207-.104-.103-.311-.103-.311l.166-5.597c-1.422-.117-2.033-.94-2.238-2.069 1.084.099 1.981.573 2.244 1.867l.138-4.664c0-.103.104-.207.104-.207.103 0 .103.104.103.207l.311 9.945s0 .103.207.207l14.289 7.39.141-8.26-2.63-1.564c-.22 1.112-.944 1.916-2.269 1.916.202-1.316.999-1.841 2.195-1.96l-3.037-1.807c-.223 1.106-.945 1.904-2.266 2.006.201-1.408.988-1.937 2.172-2.062l-1.46-.868c-.223 1.202-.946 1.998-2.266 1.998.2-1.304.984-1.929 2.161-2.06l-1.45-.863c-.225 1.197-.948 1.99-2.265 1.99.2-1.299.978-1.923 2.15-2.06L81 28.046c-.104-.104-.104-.311-.104-.311l.05-1.968c-1.412-.02-2.02-.844-2.226-2.072 1.165.097 1.965.648 2.233 1.823l.046-1.823c-1.346 0-1.968-.828-2.175-1.968 1.139.104 2.07.62 2.176 1.963l.05-1.963c-1.31-.022-1.918-.845-2.122-2.072 1.041.095 1.91.622 2.13 1.74l.043-1.645c-1.375-.136-1.971-.951-2.173-2.063 1.091.099 1.993.58 2.25 1.895l.029-.03.103.103.208 7.459s0 .103.207.207l6.32 3.305c.21-1.442 1.038-1.958 2.278-2.062-.206 1.135-.926 1.961-2.262 2.07l4.397 2.3.143-8.347-8.079-4.828c-.104 0-.104-.207-.104-.207v-.001c-1.377-.04-1.973-.856-2.175-1.968 1.116.093 1.898.52 2.196 1.581l.08-1.477c-1.345-.105-1.966-.933-2.173-2.072 1.135.104 2.065.618 2.175 2.055l.208-3.816v-.103s.104 0 .104.103l.207 5.283s0 .104.103.104l1.555.818c.108-1.443 1.038-1.958 2.174-2.061-.206 1.134-.822 1.96-2.157 2.07l5.91 3.111.123-7.203-2.737-1.6c-.207 1.137-.83 1.964-2.174 1.964.103-1.344 1.032-1.862 2.17-1.967l-1.554-.909c-.212 1.127-.937 1.945-2.274 2.047.205-1.434 1.018-1.957 2.239-2.067l-.892-.522c-.104 0-.104-.104-.104-.104l.103-1.864c-1.346 0-1.967-.83-2.175-1.969 1.139 0 2.07.62 2.176 1.965l.103-1.861v-.104c.104 0 .104 0 .104.104l.044.702c.273-1.187 1.162-1.744 2.235-1.842-.204 1.226-.812 2.05-2.22 2.072l.148 2.383v.103l4.823 2.56.253-14.784V.179c.104 0 .104 0 .104.103l.252 14.73 4.72-2.506c.104 0 .104-.103.104-.103l.207-3.315v-.104.104l.207 3.729v.104l-5.223 2.998.124 7.208 7.482-3.887c.103 0 .103-.104.103-.104l.208-5.283v-.103c.103 0 .103 0 .103.103l.207 5.698s0 .207-.103.207l-7.977 4.766.143 8.358 10.734-5.562c.104-.104.104-.207.104-.207l.078-1.865c-1.432-.01-2.047-.837-2.253-2.072 1.204.1 2.02.688 2.258 1.949zm-1.52 28.431a.685.685 0 01-.035-.02l-.6.2.207-.622-.621-.31.621-.208-.207-.725.601.3a.723.723 0 01.036-.019l.295-.591.296.592a.723.723 0 01.035.019l.602-.301-.208.725.622.208-.622.31.208.622-.6-.2a.684.684 0 01-.036.02l-.297.594-.296-.594zm-1.553-7.666a.685.685 0 01-.036-.02l-.6.2.207-.621-.621-.311.621-.207-.207-.725.583.29a.71.71 0 01.063-.03l.286-.571.287.572a.71.71 0 01.063.03l.583-.291-.269.627c.017.039.03.08.04.122l.643.183-.67.287a.92.92 0 01-.03.075l.286.57-.6-.2a.686.686 0 01-.036.02l-.297.595-.296-.595zm-4.65-5.96a.647.647 0 01-.118-.049l-.633.181.285-.57a.92.92 0 01-.03-.08l-.566-.282.539-.18a.73.73 0 01.041-.125l-.269-.628.627.27a.728.728 0 01.126-.043l.179-.538.286.572a.708.708 0 01.065.03l.582-.291-.208.725.622.208-.622.31.208.622-.6-.2a.685.685 0 01-.036.02l-.297.594-.182-.546zm2.385-5.716a.921.921 0 01-.08-.031l-.57.285.18-.633a.647.647 0 01-.048-.117l-.546-.182.594-.297a.686.686 0 01.02-.035l-.2-.601.622.207.311-.621.207.621.725-.207-.291.582a.71.71 0 01.03.065l.572.286-.538.18a.728.728 0 01-.042.125l.269.627-.627-.27a.728.728 0 01-.126.043l-.179.538-.283-.565zm9.62 10.022a.724.724 0 01-.035-.02l-.601.3.207-.725-.621-.207.621-.311-.207-.621.6.2a.685.685 0 01.036-.022l.296-.593.182.546c.042.012.081.03.119.05l.632-.181-.285.57a.92.92 0 01.03.08l.566.282-.55.183a.768.768 0 01-.04.098l.279.651-.646-.276a.677.677 0 01-.104.042l-.183.545-.295-.591zM90.53 11.367c1.139.104 2.072.621 2.175 2.072-1.346-.104-1.968-.933-2.175-2.072zm0-2.176c1.139.104 2.072.622 2.279 1.969-1.45 0-2.072-.829-2.279-1.969zm.104-2.279c1.139.104 1.968.622 2.175 2.072-1.347-.103-1.968-.932-2.175-2.072zm0-2.175c1.139.104 2.071.621 2.175 1.968-1.347 0-1.968-.828-2.175-1.968zm0-2.279c1.139.104 2.071.725 2.279 2.072-1.451-.104-2.072-.932-2.279-2.072zm.103-2.176c1.14.104 1.968.622 2.176 1.969-1.347 0-1.969-.829-2.176-1.969zm16.471 19.372c-.207 1.243-.828 2.072-2.175 2.072.104-1.347 1.036-1.968 2.175-2.072zm.104 2.072c-.207 1.14-.829 1.968-2.175 1.968.103-1.346 1.035-1.864 2.175-1.968zm-7.044-2.175c-1.347 0-1.969-.829-2.176-1.969 1.14.104 2.072.622 2.176 1.969zm-3.73 6.526c-1.45 0-2.071-.829-2.279-1.968 1.243.103 2.072.621 2.279 1.968zm12.949 14.192c1.243.104 2.176.621 2.279 1.968-1.45 0-2.071-.828-2.279-1.968zm2.486-2.901c-1.243-.103-2.175-.621-2.175-2.071 1.45.103 2.072.932 2.175 2.071zM98.507 10.953c1.45 0 2.071-.829 2.279-1.969-1.14 0-2.072.622-2.279 1.969zm-.104-1.969c1.45 0 2.072-.828 2.279-1.968-1.139.104-2.072.621-2.279 1.968zm-.104 1.14c-1.346 0-1.968-.933-2.175-2.072 1.14.104 2.072.725 2.175 2.072zm-.103 1.968c-1.347-.104-1.968-.932-2.176-2.072 1.14.104 2.072.622 2.176 2.072zm5.49 1.761c-.207 1.243-.829 2.072-2.175 2.072.103-1.347 1.036-1.968 2.175-2.072zm-.103-2.072c-1.14.104-2.072.725-2.176 2.072 1.347 0 1.968-.829 2.176-2.072zM80.896 27.734c-1.347 0-1.968-.828-2.176-1.968 1.14.104 2.072.622 2.176 1.968zm2.797-4.558c-1.14.104-2.072.726-2.175 2.072 1.346 0 1.968-.829 2.175-2.072zm-2.072 4.04c1.347-.103 1.968-.932 2.175-2.071-1.139.103-2.071.621-2.175 2.071zm3.729-1.139c-.207 1.139-.828 1.968-2.175 1.968.104-1.346 1.036-1.864 2.175-1.968zm1.658.829c-.207 1.139-.829 1.968-2.175 1.968.103-1.347 1.035-1.865 2.175-1.968zm1.657.828c-.207 1.14-.828 1.969-2.279 1.969.207-1.347 1.14-1.865 2.279-1.969zm1.036 3.73c1.347-.104 1.968-.933 2.176-2.072-1.14.103-2.072.621-2.176 2.072zM85.04 19.136c1.45 0 2.072-.828 2.279-1.968-1.243.104-2.072.621-2.279 1.968zm5.49-.31c-.207 1.139-.829 1.968-2.175 2.071.103-1.45 1.036-1.968 2.175-2.071zm1.658.828c-.208 1.14-.829 2.072-2.279 2.072.207-1.347 1.139-1.968 2.279-2.072zm-10.152 9.013c-.208 1.139-.933 1.968-2.279 1.968.207-1.347 1.035-1.865 2.279-1.968zm3.522-8.288c-.208 1.14-.829 1.969-2.279 2.072.207-1.45 1.036-1.968 2.279-2.072zm-.725 2.901c.207-1.347 1.139-1.865 2.279-1.968-.208 1.139-.829 1.968-2.279 1.968zm1.657.932c.103-1.346 1.036-1.864 2.175-1.968-.207 1.14-.828 1.968-2.175 1.968zm1.554.933c.103-1.347 1.036-1.865 2.175-1.969-.207 1.14-.828 1.969-2.175 1.969zm1.554.932c1.346 0 1.968-.829 2.175-1.968-1.139.103-2.072.621-2.175 1.968zm-.207-8.805c.103-1.347 1.035-1.865 2.175-1.968-.207 1.139-.829 1.968-2.175 1.968zm-1.969-4.455c-1.346 0-1.968-.829-2.175-1.968 1.139.104 2.072.622 2.175 1.968zm.207-3.833c-1.346 0-1.968-.828-2.175-1.968 1.139.104 2.072.621 2.175 1.968zm.311 3.108c1.347-.104 1.969-.932 2.176-2.072-1.14.104-2.072.622-2.176 2.072zm-5.49 1.658c.207 1.139.829 1.968 2.175 1.968-.103-1.347-1.036-1.865-2.175-1.968zm0-1.969c1.243.104 2.072.725 2.279 2.072-1.45 0-2.072-.829-2.279-2.072zm-7.666 20.511c1.14.104 2.072.622 2.176 1.969-1.347 0-1.969-.829-2.176-1.969zm.207-6.008c1.14.104 2.072.725 2.176 2.072-1.347 0-1.969-.829-2.176-2.072zm26.416 27.245c.207 1.139-.103 2.175-1.346 2.693-.415-1.347.207-2.175 1.346-2.693zm8.806-3.212c-1.244-.103-2.176-.725-2.176-2.071 1.45 0 2.072.932 2.176 2.071zm-11.292-4.661c-1.243-.104-2.176-.622-2.279-1.969 1.45 0 2.072.829 2.279 1.969zm9.427-12.742c-1.347-.104-1.968-.932-2.176-2.072 1.14.104 2.072.622 2.176 2.072zm-7.459 6.423c-1.346 0-2.072-.829-2.279-1.969 1.243.104 2.072.622 2.279 1.969zm14.917 2.486c-1.243-.104-2.175-.622-2.279-2.072 1.451.104 2.072.932 2.279 2.072zm-13.259-9.116c.207 1.139-.104 2.175-1.347 2.693-.414-1.346.311-2.175 1.347-2.693zm1.657 7.562c.207 1.14-.104 2.175-1.347 2.693-.414-1.346.311-2.175 1.347-2.693zM98.61 50.628c-1.346 0-1.968-.829-2.175-2.072 1.139.104 2.072.726 2.175 2.072z" fill="#1A1919" fill-rule="evenodd"/></svg>