<svg xmlns="http://www.w3.org/2000/svg" width="246" height="13" viewBox="0 0 246 13"><path fill="#FFF" d="M1.288 5.581c0-.72-.552-.9-1.288-.9v-.36h6.989v1.8H6.62c-.184-1.08-.552-1.26-2.024-1.26h-1.84V8.1h1.656c.736 0 1.104 0 1.104-1.08h.552v2.7h-.552c0-1.082-.184-1.082-1.104-1.082H2.758v2.522c0 .897.368 1.08 1.104 1.08h.367v.358H0v-.358c.736 0 1.288-.182 1.288-.722V5.581zM18.575 8.1V4.86c.184 0 .736-.18.92-.18 1.288 0 2.024.54 2.024 1.619 0 1.26-.736 1.8-2.208 1.8h-.736zm-1.47 3.42c0 .54-.368.721-1.288.721v.359h4.046v-.359c-.736 0-1.288-.181-1.288-.721V8.64h1.288c.92 1.439 1.84 3.24 2.575 3.959h2.208v-.359c-1.104-.361-1.654-.721-3.495-3.96 1.287-.361 1.84-.9 1.84-1.98 0-1.26-1.106-1.978-2.576-1.978h-4.598v.36c.92 0 1.288.18 1.288.9v5.937zM35.128 8.28c0-1.8.736-3.6 2.944-3.6 1.654 0 3.127 1.619 3.127 3.959 0 1.8-.736 3.6-2.943 3.6-1.84.001-3.128-1.622-3.128-3.959zm-1.838.179c0 2.52 2.022 4.32 4.782 4.32 2.941 0 4.781-2.34 4.781-4.32 0-2.519-1.84-4.319-4.597-4.319-2.576 0-4.966 1.62-4.966 4.319zm19.127 2.158h.552c.184 1.083.736 1.802 2.024 1.802 1.472 0 1.654-.9 1.654-1.44 0-.719-.368-1.08-1.47-1.799-2.024-.9-2.392-1.621-2.392-2.881 0-1.08.92-2.159 2.392-2.159.736 0 1.47.18 2.207.18v1.62h-.368c-.184-.72-.551-1.44-1.655-1.44-.92 0-1.472.72-1.472 1.44s.184 1.08 1.84 1.979c1.84.72 2.207 1.44 2.207 2.52 0 1.44-1.288 2.34-2.943 2.34-.92 0-1.656-.182-2.208-.362l-.368-1.8zm17.656-5.757h-1.288c-1.104 0-1.286.18-1.472 1.26h-.55l.368-2.16h.368c0 .36.368.36.736.36h5.517c.37 0 .553 0 .92-.36h.368l-.184 2.16h-.552c0-1.08-.184-1.26-.92-1.26h-1.84v6.659c0 .54.552.721 1.472.721v.359h-4.231v-.359c.92 0 1.288-.181 1.288-.721V4.86zm27.403-.36c.368 0 .736.18.736.36v.36l-1.655 1.62c-.552.54-.92 1.08-1.472 1.619-.184-.179-.184-.36-.184-.54.002-1.62 1.104-3.419 2.575-3.419zm5.151 2.879c0-.9-1.104-.18-1.104-1.26 0-.72.552-1.08 1.104-1.08s1.472.361 1.654.72c-.184 1.44-.368 2.88-1.471 3.96a5.533 5.533 0 01-4.231 1.98c-.92 0-1.84-.362-2.576-1.083-.184-.359-.552-.719-.552-1.259 0-.54.184-.9.552-1.26l.92-1.08.736-.72 3.495-3.238c.552-.54 1.656-1.62 1.656-2.16s-.368-.9-.736-.9-.552.36-.552.72v.72c0 .72-1.472 1.98-1.84 2.52-.368-.36-.736-.54-1.103-.54-2.39 0-4.598 2.878-4.598 5.038 0 2.702 1.84 4.5 4.414 4.5 3.127 0 4.597-1.98 5.333-3.238.736-1.262.92-2.52.92-3.6.368.36.92.9 1.471.9 1.104 0 2.39-1.08 2.39-2.16 0-.36-.184-.9-.736-.9-.184 0-.552.36-.552.54 0 .54.552.72.552 1.08 0 .36-.368.72-.736.72-1.103 0-1.471-2.159-3.31-2.159-1.289 0-3.128 1.26-3.128 2.699 0 .9.736 1.258 1.104 1.258.368 0 .924-.178.924-.718zm24.278 3.238h.366c.37 1.083.92 1.802 2.206 1.802 1.29 0 1.658-.9 1.658-1.44 0-.719-.552-1.08-1.658-1.799-1.838-.9-2.388-1.621-2.388-2.881 0-1.08 1.104-2.159 2.576-2.159.551 0 1.471.18 2.023.18l.182 1.62h-.37c-.181-.72-.55-1.44-1.837-1.44-.738 0-1.472.72-1.472 1.44s.37 1.08 2.024 1.979c1.838.72 2.206 1.44 2.206 2.52 0 1.44-1.286 2.34-3.128 2.34-.734 0-1.471-.182-2.205-.362l-.183-1.8zm15.448-5.217c0-.72-.734-.72-1.286-.72v-.36h3.861v.36c-.551 0-1.103 0-1.103.72V9.9c0 1.618.92 2.158 2.391 2.158 2.388 0 2.388-1.798 2.388-3.418V6.66c0-1.8-.182-1.98-1.471-1.98v-.36h3.313v.36c-.738 0-1.104.18-1.104 1.26v3.42c0 1.98-.92 3.42-3.495 3.42-2.206 0-3.496-.721-3.496-2.701V5.4h.002zm18.023.18c0-.72-.37-.9-1.286-.9v-.36h4.044v.36c-.734 0-1.286.18-1.286.9v5.58c0 .719.37.897 1.654.897 1.472 0 1.841-.178 2.575-1.618h.37l-.37 2.158h-6.987v-.358c.917 0 1.286-.182 1.286-.722V5.581zm15.82 0c0-.72-.553-.9-1.29-.9v-.36h4.047v.36c-.737 0-1.29.18-1.29.9v5.58c0 .719.186.897 1.658.897 1.468 0 1.838-.178 2.575-1.618h.367l-.552 2.158h-6.805v-.358c.737 0 1.29-.182 1.29-.722V5.581zm15.447 0c0-.72-.366-.9-1.286-.9v-.36h4.047v.36c-.737 0-1.29.18-1.29.9v5.939c0 .54.553.721 1.29.721v.359h-4.047v-.359c.92 0 1.286-.181 1.286-.721V5.58zm12.14 0c-.186-.72-.37-.9-1.104-.9v-.36h3.68v.36h-.37c-.37 0-.552.18-.552.54v.36l2.391 5.399 2.024-5.039c0-.18.182-.54.182-.72 0-.54-.552-.54-1.29-.54v-.36h3.128v.36c-.552 0-.734 0-1.286 1.08l-2.943 7.02h-.734l-3.126-7.2zM224.933 9h-2.575l1.286-3.419L224.934 9zm-.185 3.598h3.865v-.358c-.92 0-1.104-.362-1.472-1.08l-2.576-7.2-1.289.54v.18c0 .18 0 .36-.182.54l-2.392 6.298c-.182.362-.552.722-1.286.722v.358h3.128v-.358h-.183c-.37 0-.92-.182-.92-.54 0-.362.183-.9.37-1.083l.366-1.08h2.944l.551 1.621c.183.359.183.359.183.54 0 .359-.552.54-.917.54h-.185v.36h-.005zm13.058-7.017c0-.72-1.104-.9-1.286-.9v-.36h2.207l5.333 6.119V5.94c0-1.08-.366-1.26-1.286-1.26v-.36h3.126v.36c-.734 0-1.104.18-1.104.9v7.2h-.37l-5.883-6.66v4.499c0 1.261.183 1.621 1.472 1.621v.359h-3.68v-.359c1.47 0 1.47-.721 1.47-1.98v-4.68z"/></svg>