<svg viewBox="0 0 155 26" xmlns="http://www.w3.org/2000/svg"><defs><linearGradient x1="25.678%" y1="32.553%" x2="90.727%" y2="68.274%" id="a"><stop stop-color="#494CDB" offset="21.24%"/><stop stop-color="#4548D0" offset="34.69%"/><stop stop-color="#3A3CB2" offset="58.5%"/><stop stop-color="#282A82" offset="89.69%"/><stop stop-color="#212370" offset="100%"/></linearGradient><linearGradient x1="71.659%" y1="56.763%" x2="15.399%" y2="31.021%" id="b"><stop stop-color="#00BCFF" offset="0%"/><stop stop-color="#1C3E5E" offset="93.46%"/></linearGradient><linearGradient x1="24.743%" y1="73.105%" x2="92.668%" y2="17.923%" id="c"><stop stop-color="#75E078" offset="21.68%"/><stop stop-color="#72DB75" offset="32.84%"/><stop stop-color="#68CE6A" offset="45.42%"/><stop stop-color="#57B759" offset="58.69%"/><stop stop-color="#409841" offset="72.44%"/><stop stop-color="#226F23" offset="86.42%"/><stop stop-color="#004100" offset="100%"/></linearGradient></defs><g fill-rule="nonzero" fill="none"><g fill="#231F20"><path d="M52.976 4.283h14.18v3.674H57.052v3.928h8.897v3.674h-8.897v7.121H52.95V4.283zM68.668 20.02l2.41-2.864c1.667 1.368 3.436 2.23 5.564 2.23 1.667 0 2.693-.659 2.693-1.749v-.05c0-1.014-.642-1.546-3.744-2.332-3.744-.937-6.18-1.976-6.18-5.625v-.051c0-3.345 2.718-5.55 6.513-5.55 2.718 0 5.026.836 6.923 2.332L80.72 9.4c-1.64-1.14-3.282-1.824-4.846-1.824s-2.385.71-2.385 1.596v.051c0 1.217.795 1.597 4.026 2.433 3.77.963 5.923 2.306 5.923 5.524v.051c0 3.65-2.82 5.702-6.846 5.702-2.82.025-5.692-.938-7.923-2.915zM85.693 12.62h8.205v3.852h-8.205zM96.13 4.283h4.102v18.423h-4.103zM102.873 20.02l2.41-2.864c1.666 1.368 3.436 2.23 5.564 2.23 1.666 0 2.692-.659 2.692-1.749v-.05c0-1.014-.64-1.546-3.743-2.332-3.744-.937-6.18-1.976-6.18-5.625v-.051c0-3.345 2.718-5.55 6.513-5.55 2.718 0 5.025.836 6.923 2.332l-2.128 3.04c-1.641-1.14-3.282-1.824-4.846-1.824s-2.385.71-2.385 1.596v.051c0 1.217.795 1.597 4.026 2.433 3.769.963 5.923 2.306 5.923 5.524v.051c0 3.65-2.82 5.702-6.846 5.702-2.847.025-5.693-.938-7.923-2.915zM126.282 4.156h3.77l8 18.55h-4.282l-1.693-4.131h-7.871l-1.693 4.13h-4.18l7.95-18.55zm4.308 10.846l-2.487-5.98-2.462 5.98h4.95zM137.77 13.558v-.051c0-5.246 4-9.528 9.717-9.528 3.513 0 5.616 1.165 7.36 2.838l-2.616 2.965c-1.436-1.293-2.898-2.078-4.77-2.078-3.153 0-5.41 2.584-5.41 5.727v.05c0 3.168 2.206 5.778 5.41 5.778 2.129 0 3.437-.836 4.898-2.154l2.615 2.61c-1.923 2.028-4.05 3.295-7.64 3.295-5.488 0-9.564-4.182-9.564-9.452z"/></g><path d="M41.84 9.698c-.31.52-.67 1.092-1.082 1.638v.026a17.446 17.446 0 01-1.776 2.08l-.206.208c-.077.052-.129.13-.206.182a15.462 15.462 0 01-3.914 2.626 14.745 14.745 0 01-3.218 1.118c-1.107.26-2.266.39-3.45.39a15.5 15.5 0 01-6.025-1.222 15.687 15.687 0 006.617-5.252c.334-.468.643-.936.927-1.43a15.805 15.805 0 00-3.965-4.602 15.465 15.465 0 00-3.58-2.106 15.785 15.785 0 00-3.681-1.04 17.44 17.44 0 00-2.343-.182c-2.446 0-4.79.572-6.85 1.586a24.92 24.92 0 011.623-.884A25.454 25.454 0 0122.066.156c4.557 0 8.805 1.196 12.513 3.328.438.26.875.52 1.313.806a24.288 24.288 0 013.038 2.34c.54.468 1.751 1.612 2.91 3.068z" fill="url(#a)"/><path d="M44.105 13.026c-4.35 7.618-12.461 12.766-21.782 12.844.49 0 1.004-.052 1.468-.104a22.76 22.76 0 01-1.88.104h-.129c-4.943-.078-9.32-2.47-12.127-6.136a14.05 14.05 0 01-1.184-1.768c.283-.494.592-.988.927-1.43.257-.364.515-.702.824-1.014a15.496 15.496 0 015.175-3.952c1.674 2.288 3.94 4.108 6.566 5.2a15.5 15.5 0 006.025 1.222c1.184 0 2.343-.13 3.45-.39a15.231 15.231 0 003.218-1.118 15.462 15.462 0 003.914-2.626c.077-.052.129-.13.206-.182.077-.078.154-.13.206-.208a15.355 15.355 0 001.776-2.08v-.026c.412-.546.773-1.118 1.082-1.638.85 1.014 1.596 2.132 2.265 3.302z" fill="url(#b)"/><path d="M29.558 10.036c-.283.494-.592.988-.927 1.43-1.982-.936-4.197-1.43-6.54-1.43-2.368 0-4.634.546-6.642 1.482a15.496 15.496 0 00-5.176 3.952c-.283.338-.566.676-.824 1.014-.334.468-.643.936-.927 1.43.36.624.747 1.196 1.185 1.768 2.806 3.666 7.183 6.058 12.127 6.136-.747 0-1.468-.052-2.189-.104-8.393-.806-15.577-5.72-19.594-12.74a25.213 25.213 0 012.009-2.99 27.933 27.933 0 011.982-2.288 24.946 24.946 0 015.124-4.03 15.523 15.523 0 016.849-1.586c.798 0 1.57.052 2.343.182 1.287.182 2.523.546 3.682 1.04a15.465 15.465 0 013.579 2.106c1.545 1.3 2.91 2.86 3.94 4.628z" fill="url(#c)"/></g></svg>