<svg xmlns="http://www.w3.org/2000/svg" width="708.7" height="340.8" viewBox="83.7 226.4 708.7 340.8"><path fill="#EB2E2E" d="M400.8 362c0-7-5.4-14.6-12.4-14.6h51.8c-7 0-12.4 7.6-12.4 14.6v128.4c0 7.1 5.4 14.6 12.4 14.6h-51.8c7 0 12.4-7.5 12.4-14.6V362m-277.7 66h36.1c7 0 13.6 5.4 13.6 12.4l-.1-28.4h-49.6v-48.8h48.1c7.1 0 13.6 5.4 13.6 12.5v-28.5H83.7c7.1 0 12.4 7.6 12.4 14.6v128.4c0 7.1-5.3 14.6-12.4 14.6h51.9c-7.1 0-12.5-7.5-12.5-14.6V428m103.8 34.7c0 16.4 13.3 30.6 29.7 30.6s29.8-14.5 29.8-30.9V362c0-7-5.4-14.6-12.5-14.6h51.9c-7.1 0-12.5 7.6-12.5 14.6v97.7c0 31.2-25.2 49.6-56.6 49.6-31.4 0-56.8-18.3-56.8-49.6V362c0-7-5.4-14.6-12.4-14.6h51.8c-7.1 0-12.4 7.6-12.4 14.6v100.7M370.5 362c0-7 5.4-14.6 12.5-14.6h-51.9c7.1 0 12.5 7.6 12.5 14.6v160.5s-.5 28.6-22.9 44.8c0 0 50-7.1 50-54.3l-.2-151m323 100.7c0 16.4 13.3 30.6 29.8 30.6 16.3 0 29.7-14.5 29.7-30.9V362c0-7-5.4-14.6-12.4-14.6h51.8c-7 0-12.4 7.6-12.4 14.6v97.7c0 31.2-25.3 49.6-56.6 49.6-31.4 0-57-18.3-57-49.6l.1-97.7c0-7-5.4-14.6-12.5-14.6h52c-7.1 0-12.5 7.6-12.5 14.6v100.7m-51.7-89.5c-8.4-14.5-28.3-12.7-28.3-12.7-31.6 0-30.2 24.8-30.2 24.8s-2.1 12.4 13.7 21l31.8 17.3c30.6 16.9 27 40.7 27 40.7s1.3 44.8-62.6 44.8c0 0-18.6.5-29.1-3.4l-9.2-29.5c9.5 14.9 38.6 17.1 38.6 17.1 35.9-1.7 36.1-26.8 36.1-26.8s1.7-10.8-12.4-18.7l-31.6-17.3c-33-18.1-29.1-42.3-29.1-42.3s-.8-44 55.9-44c0 0 25.4.7 29.5 4.7l-.1 24.3m-192.3-25.9l-8.6 29c6.9-12.9 17.8-13.1 17.8-13.1h27.4v127.1c0 7.1-5.4 14.6-12.4 14.6h51.8c-7 0-12.4-7.5-12.4-14.6v-127H536c7.1 0 12.8 5.7 12.8 12.8l8.4-28.7-107.7-.1m-55.3-54.8c5.7 5.7 13.4 9.1 22 9.1 17.3 0 31.2-14 31.2-31.1 0-17.3-14-31.2-31.2-31.2 0 0-24-2.2-34.8 28.5v-23.1c8-10.5 20.6-18.2 34.8-18.2 24.4 0 44 19.6 44 44 0 24.3-19.6 43.9-44 43.9-12.1 0-23.1-4.9-31.1-12.8l-15.2-17c-4.1-4.2-9.8-6.7-16.1-6.7-12.7 0-22.8 10.2-22.8 22.8s10.2 22.8 22.8 22.8c0 0 16.9 2.2 27.6-18.6v18.5c-6.6 7.9-16.5 12.9-27.6 12.9-19.6 0-35.6-16-35.6-35.6s16-35.6 35.6-35.6c9.9 0 18.7 4 25.2 10.4l15.2 17"/></svg>