<svg xmlns="http://www.w3.org/2000/svg" viewBox="0 0 95.8 33.1"><path d="M42.46 13.89A7.08 7.08 0 0035.38 21v8h19.87l2.82-5.31H40.94V21.5a2.29 2.29 0 012.29-2.3h11.18a7.52 7.52 0 100-15h-13.3a5.31 5.31 0 00-5.31 5.27H54a2.24 2.24 0 012.26 2.15 2.21 2.21 0 01-2.21 2.27zM16.86 23.62a7.07 7.07 0 010-14.14h14.35V4.16H16.53a12.38 12.38 0 000 24.76h14.68v-15H15.28v5.28h10.37v4.43zM75.7 25.93h-.85a1.51 1.51 0 100 3h.85a1.51 1.51 0 100-3zm0 2.38h-.79a.88.88 0 110-1.75h.79a.88.88 0 110 1.75zM69.69 27.43a1.52 1.52 0 001.51 1.51h1.72v-.63h-1.69a.88.88 0 110-1.75h1.69v-.63H71.2a1.51 1.51 0 00-1.51 1.5zM80.55 25.93l-.66 1.8-.66-1.8h-.83l-1.12 3.01h.71l.82-2.31.74 2.01h.68l.73-2.01.82 2.31h.71l-1.11-3.01h-.83zM68.92 28.12a.41.41 0 000 .82.41.41 0 100-.82z" fill="#fff"/><path d="M80.12 7a6.21 6.21 0 00-1.71-2 4.76 4.76 0 00-2.89-1 4.53 4.53 0 00-2.81 1A6.21 6.21 0 0071 7c-4.64 8.85-11.59 21.93-11.59 21.93h6.34l9.77-18.71L80.11 19H73l2.5 4.76h7l2.7 5.16h6.34z" fill="#fff"/></svg>