<svg xmlns="http://www.w3.org/2000/svg" version="1" width="1024" height="233" viewBox="0 0 90 20.466251"><path d="M10.28 0C4.35.092 0 4.08 0 10.313c0 6.26 4.313 9.975 10.28 10.156 3.22.094 5.655-.664 8.095-1.97V8.812h-7.563l-.28 3.376h4.03v4.124c-1.13.507-2.427.764-4.25.72C6.44 16.93 3.952 14.134 4 10.093c.05-3.728 2.3-6.452 6.03-6.625 2.29-.105 4.2.546 5.5 1.655l2.533-2.563C15.96.708 13.287-.046 10.28 0zm33.407 2.906V15.53c0 3.125.985 4.69 4.376 4.69.926 0 1.668-.112 2.53-.345l.25-3c-.772.258-1.378.313-1.937.313-1.287 0-1.625-.684-1.625-1.938v-5.5h3.314l.25-3.094H47.28v-3.75h-3.593zm-17.28 3.406c-2.09 0-4.053.597-5.938 2.125l2.06 2.094c.956-.895 2.255-1.405 3.564-1.405 1.82 0 2.78.788 2.78 2.25v.156h-.624c-3.17 0-8.23.33-8.156 4.75.048 2.815 2.362 4.032 4.812 4.032 1.627 0 3.215-.448 4.188-1.656l.062 1.313h3.188v-8.72c0-3.016-1.81-4.938-5.938-4.938zm33.437 0c-1.963 0-3.284.892-4 2.032l-.094-1.688h-3.313V19.97h3.594v-7.25c0-1.68.785-3.126 2.782-3.126 2.074 0 2.188 1.87 2.188 3.344v7.03h3.625v-8.374c0-2.694-1.155-5.28-4.78-5.28zm13.25 0c-3.878 0-6.844 2.823-6.844 7 0 4.183 2.99 7 7 7 2.28 0 4.27-.757 5.938-2.812l-2.344-1.78c-1.185 1.2-2.07 1.67-3.688 1.624-1.667-.047-3.03-1.08-3.312-2.782h9.875V13.5c0-4.594-2.355-7.188-6.626-7.188zm-38.5.344V19.97h3.625v-7.032c0-1.56 1.006-3.188 3.03-3.188h.97l.28-3.094h-.906c-1.544 0-2.783.517-3.5 1.657L38 6.655h-3.406zm46.75 0V19.97h3.594v-7.032c0-1.557 1.035-3.188 3.062-3.188h1.28l.25-3.094h-1.218c-1.54 0-2.787.517-3.5 1.657l-.062-1.657h-3.406zM73 9.126c1.736-.07 3.015.972 3.125 2.655h-6.28c.24-1.475 1.407-2.59 3.155-2.655zm-44.625 5.03h.5v.563c0 3.026-5.17 3.82-5.188 1.31-.01-1.78 2.984-1.87 4.688-1.874zm59.813 2.47c-.986 0-1.813.752-1.813 1.78 0 1.038.828 1.813 1.813 1.813.977 0 1.812-.776 1.812-1.814 0-1.028-.835-1.78-1.813-1.78zm0 .31c.81.002 1.468.622 1.468 1.47 0 .863-.66 1.5-1.47 1.5-.82 0-1.467-.637-1.467-1.5 0-.848.648-1.468 1.468-1.468zm-.688.47v2.063h.313v-.907h.343l.563.906h.343l-.594-.907c.3-.038.56-.224.56-.594 0-.41-.26-.564-.75-.564h-.78zm.313.25h.437c.22 0 .438.056.438.313 0 .316-.237.343-.5.343h-.376v-.657z" fill="#ffffff"/></svg>