<svg width="93" height="75" viewBox="0 0 93 75" xmlns="http://www.w3.org/2000/svg" xmlns:xlink="http://www.w3.org/1999/xlink"><defs><path id="a" d="M.06.853h92.601V75H.06z"/></defs><g fill="none" fill-rule="evenodd"><mask id="b" fill="#fff"><use xlink:href="#a"/></mask><path d="M87.589 72.415a.456.456 0 01-.178-.036l-16.706-7.296a.673.673 0 00-.562-.007c-.715.314-1.542.628-2.247.885-4.718 1.747-9.917 2.709-15.384 2.709-7.079 0-13.677-1.623-19.352-4.457-.453-.261-.268-1.781-.509-2.491-.804-2.364-1.805-3.396-4.301-4.721-.423-.225-.692-.089-.682.337.027 1.167.209 2.423.894 3.525.254.409 1.018 1.187.627 1.073a37.818 37.818 0 01-3.944-2.957c-.401-.35-.802-.713-1.208-1.097-.298-.266.081-.892.199-1.263.742-2.339 1.427-4.635.799-7.025-.322-1.224-.755-2.41-1.718-3.376-.118-.119-.401-.36-.636-.062-.273.344-.797.927-1.081 1.75-.478 1.388-.482 2.539-.341 3.626.165 1.274 1.161 4.483.178 3.648a33.053 33.053 0 01-4.244-6.229c-.444-1.081 1.41-2.062 1.918-2.57.979-.979 2.396-2.768 2.894-5.192.601-2.928.656-4.859.532-7.828-.043-1.045-.285-1.792-.471-2.232-.144-.342-.347-.438-.774-.099-.926.733-1.553 1.585-2.178 2.465-1.161 1.633-2 3.399-2.636 5.213a20.754 20.754 0 00-.955 3.719c-.168 1.001-.047 1.778.01 2.777a29.99 29.99 0 01-1.491-5.828c-.015-.101-.031-.203-.045-.305-.05-.356-.095-.713-.133-1.069-.015-.142-.026-.285-.038-.428a29.429 29.429 0 01-.117-2.113c-.003-.14-.001-.279-.002-.418.026-.193-.001-.833.331-1.033 1.782-1.076 3.296-2.015 4.427-3.683.658-.972.836-1.27 1.211-2.647.121-.444.354-1.294.231-1.751-.058-.217-.118-.319-.448-.203-1.219.427-2.577 1.027-3.393 2.22-.446.651-1.685 2.751-1.984 2.405l.003-.013c.445-2.32 1.209-4.991 2.185-7.119.224-.457 2.215-.527 3.361-.99.928-.375 1.614-1.014 2.182-1.758.316-.413.673-.92.896-1.398.325-.693.589-1.482.71-2.057.056-.267.111-.432-.227-.425-.397.006-.732.201-1.347.441a12.696 12.696 0 00-3.043 1.702c.118-.174.236-.348.358-.52l.007-.011c.079-.111.161-.22.242-.331 1.047-1.42 2.301-2.85 3.523-4.088l.056-.058c.204-.192.591-.212.953-.276.47-.083 1.184-.261 1.595-.49.383-.212 1.199-.744 1.185-.943-.018-.258-.269-.355-.639-.355-.479 0-.581.066-.666-.113.032-.026.085-.075.117-.101l.113-.092c6.999-5.652 16.489-9.108 26.866-9.104 21.43.009 38.803 14.868 38.803 33.209 0 6.9-2.141 12.9-6.349 18.21-.433.561-1.279 1.506-1.837 2.121-.174.192-.27.597-.176.838l5.07 15.182a.457.457 0 01-.434.603zm-20.356-6.214l.661-.239c-.237.087-.461.167-.661.239zm17.281-9.31s-.058-.171-.036-.252a.335.335 0 01.083-.164c.916-1.048 2.549-3.317 2.586-3.368 3.448-5.112 5.514-11.185 5.514-17.516C92.661 16.405 74.544.852 52.196.852 44.373.852 37.07 2.76 30.88 6.06c-.587.286-1.588.797-3.995 2.424.228-.367.5-.735.659-1.12.299-.725.475-1.185.518-2.021.013-.255.05-.667-.262-.731-.26-.054-.578.117-.805.292-.821.634-1.376 1.407-1.699 2.296a25.671 25.671 0 00-.938 3.18 38.533 38.533 0 00-2.151 1.887 27.332 27.332 0 00-2.873 3.052c-.106.126-.21.253-.314.38.25-1.039.398-1.377.446-2.439.059-1.279.051-2.549-.349-3.793-.086-.267-.154-.644-.501-.687-.266-.033-.372.337-.54.53-1.447 1.664-2.03 3.574-2.225 5.593-.035.37-.001 1.09.068 1.901.106 1.259.213 1.426.33 2.309.04.301-.09.638-.257.949-.061.105-.123.21-.183.316-.021.032-.041.066-.06.097-.018.028-.031.061-.047.09a31.797 31.797 0 00-2.06 4.451 79.054 79.054 0 00-.52-2.848c-.338-1.694-.985-3.306-1.909-4.839-.224-.372-.456-.741-.67-1.118-.111-.193-.236-.452-.479-.426-.231.026-.431.234-.527.465-.344.827-.625 1.669-.769 2.535-.39 2.341.274 4.55 1.165 6.744a31.892 31.892 0 002.116 4.253c.18.306.138.611.061.931a4.97 4.97 0 00-.126.989 30.325 30.325 0 00-.254 3.889c0 .562.018 1.121.048 1.677l-.008.027c-.333-.98-.914-2.33-1.334-3.277-1.14-2.573-2.706-4.823-4.684-7.02-1.104-1.226-2.166-2.481-3.4-3.619-.501-.462-1.062-.879-1.617-1.296-.312-.234-.692-.087-.725.344-.042.543.057 1.093.102 1.639a43.489 43.489 0 001.035 6.377c.353 1.477 1.01 2.658 1.856 3.958.925 1.421 1.83 2.341 3.478 3.489 1.887 1.313 2.531 1.692 4.341 3.149.728.586 1.794 1.703 1.998 2.611.07.316.237.84.433 1.412.231.7.489 1.391.769 2.073.053.132.1.247.142.346l.017.041c-.724-.441-1.331-1.074-1.967-1.579-1.413-1.123-2.801-2.543-4.501-3.357-1.21-.578-2.282-1.094-3.644-1.439-.086-.022-.166-.062-.253-.08-.991-.212-1.016-.179-.862.664.211 1.164.46 2.309 1.067 3.394a11.64 11.64 0 002.018 2.681c1.36 1.356 3.375 2.247 5.24 3.058 1.994.867 4.039 1.661 5.961 2.648.253.13.453.294.627.474a35.285 35.285 0 002.497 3.054c.807.932 1.662 1.824 2.688 2.649.096.078.35.36.109.346-.975-.322-1.848-.535-2.882-.631-1.921-.179-3.843-.461-5.792-.302-.256.021-.537.027-.637.248-.088.196.189.278.314.4 1.286 1.259 2.905 2.512 4.585 3.32 1.636.787 3.197 1.024 5.107 1.135 1.059.062 2.01-.129 2.993-.369.885-.216 1.431-.163 2.126.205 6.573 3.961 14.58 6.287 23.221 6.287 5.808 0 11.333-1.051 16.326-2.943.59-.221 1.175-.453 1.751-.698.041-.017.078-.038.122-.036.043.002.122.04.122.04l18.845 8.245a.678.678 0 00.754-.12.68.68 0 00.168-.745l-5.77-17.18z" fill="#A28B35" mask="url(#b)"/><path d="M52.294 14.259l-.066.794h-.325c-.518 0-.787.416-.787.814v1.794h-.918v-3.402h.869l.02.424c.183-.291.502-.424.896-.424h.311M45.929 17.661h-.919v-1.799c0-.376-.032-.85-.562-.85-.511 0-.714.368-.714.796v1.853h-.919v-3.402h.852l.019.435c.183-.291.523-.518 1.025-.518.926 0 1.218.661 1.218 1.349v2.136M42.415 16.866l-.065.774c-.22.059-.416.08-.652.08-.866 0-1.117-.396-1.117-1.194V13.3h.919v.959h.914l-.064.794h-.85v1.403c0 .321.088.494.416.494.143 0 .302-.018.499-.084M40.279 14.259l-.071.794h-.25c-.517 0-.773.415-.773.814v1.794h-.92v-3.402h.871l.018.424c.183-.291.503-.424.897-.424h.228M34.119 17.284c-.624.333-1.246.525-2.068.501-1.524-.046-2.624-.992-2.624-2.591 0-1.592 1.11-2.609 2.625-2.633.767-.011 1.454.183 1.991.657l-.647.654c-.332-.283-.82-.448-1.405-.422-.953.044-1.527.737-1.54 1.689-.013 1.032.62 1.743 1.61 1.769.465.012.798-.051 1.087-.18v-1.055h-1.029l.07-.865h1.93v2.476M48.867 15.572c-.028-.43-.35-.702-.793-.685-.447.018-.744.308-.805.685h1.598zm.92.711h-2.518c.071.435.413.696.838.708.414.011.646-.114.948-.42l.6.457c-.426.525-.938.716-1.52.716-1.025 0-1.792-.716-1.792-1.784 0-1.067.764-1.784 1.754-1.784 1.091 0 1.69.661 1.69 1.834v.273zM36.803 16.177h-.128c-.435.001-1.199.023-1.196.478.004.64 1.324.437 1.324-.336v-.142zm.884-.744v2.228h-.81l-.02-.336c-.249.308-.652.419-1.068.419-.625 0-1.216-.309-1.229-1.027-.019-1.129 1.271-1.209 2.081-1.209h.162v-.045c0-.374-.247-.576-.712-.576-.334 0-.664.135-.908.363l-.53-.538c.481-.39.982-.536 1.516-.536 1.054 0 1.518.487 1.518 1.257z" fill="#161715"/><path d="M32.003 22.569c-1.071 0-1.484.857-1.484 1.705 0 .892.432 1.715 1.531 1.715 1.09 0 1.456-.867 1.456-1.75 0-.848-.47-1.67-1.503-1.67zm-2.255-.552h.799v.613h.018c.264-.498.884-.717 1.551-.717 1.493 0 2.236 1.102 2.236 2.379s-.733 2.353-2.218 2.353c-.497 0-1.211-.176-1.569-.709h-.018v2.335h-.799v-6.254zM38.661 23.846c-.037-.709-.61-1.277-1.399-1.277-.836 0-1.334.586-1.391 1.277h2.79zm.771 1.259c-.216.997-.987 1.54-2.076 1.54-1.55 0-2.283-.998-2.33-2.38 0-1.355.958-2.352 2.282-2.352 1.72 0 2.246 1.495 2.199 2.589h-3.636c-.027.786.452 1.487 1.513 1.487.657 0 1.118-.298 1.259-.884h.789zM44.08 23.846c-.038-.709-.61-1.277-1.4-1.277-.836 0-1.333.586-1.39 1.277h2.79zm.77 1.259c-.216.997-.986 1.54-2.076 1.54-1.55 0-2.282-.998-2.329-2.38 0-1.355.958-2.352 2.283-2.352 1.719 0 2.245 1.495 2.197 2.589H41.29c-.028.786.451 1.487 1.513 1.487.657 0 1.117-.298 1.258-.884h.789zM46.099 22.017h.751v.954h.019c.385-.726.92-1.085 1.784-1.058v.787c-1.286 0-1.756.682-1.756 1.828v2.011h-.798v-4.522M50.203 26.539h.356v-4.495h-.356v4.495zm0-5.343h.356v-.901h-.356v.901zM52.165 22.044h.357v.962h.018c.245-.673.977-1.067 1.729-1.067 1.7 0 1.719 1.268 1.719 1.819v2.781h-.357v-2.842c0-.463-.056-1.469-1.372-1.469-1.079 0-1.737.778-1.737 1.88v2.431h-.357v-4.495M57.536 25.044c.057.831.724 1.312 1.597 1.312.63 0 1.531-.175 1.531-.953 0-.761-.826-.875-1.653-1.033-.836-.157-1.662-.358-1.662-1.276 0-.893.93-1.155 1.747-1.155 1.023 0 1.785.411 1.785 1.434h-.357c-.009-.813-.62-1.145-1.428-1.145-.657 0-1.39.227-1.39.866 0 .717.826.831 1.606.988.958.166 1.71.376 1.71 1.321 0 .97-1.043 1.242-1.889 1.242-1.098 0-1.925-.551-1.953-1.601h.356M62.439 26.539h.357v-4.495h-.357v4.495zm0-5.343h.357v-.901h-.357v.901zM64.307 24.152c0 1.058.592 1.933 1.729 1.933 1.174 0 1.756-.919 1.756-1.933 0-1.006-.572-1.924-1.756-1.924-1.165 0-1.729.971-1.729 1.924zm3.852-2.108v4.26c0 .349 0 2.011-2.085 1.95-1.034 0-1.832-.359-1.888-1.4h.356c.076.796.752 1.111 1.541 1.111 1.69 0 1.719-1.285 1.719-1.583V25.35h-.019c-.338.665-.93 1.023-1.747 1.023-1.418 0-2.085-.97-2.085-2.221 0-1.189.723-2.213 2.085-2.213.751 0 1.484.367 1.747 1.041h.019v-.936h.357zM69.801 20.295v2.711h.019c.244-.673.977-1.067 1.728-1.067 1.701 0 1.72 1.268 1.72 1.819v2.781h-.357v-2.842c0-.463-.057-1.469-1.372-1.469-1.08 0-1.738.778-1.738 1.88v2.431h-.356v-6.244h.356M76.469 22.318h-1.052v3.139c0 .726.367.796 1.042.779v.289c-.731.043-1.437-.053-1.399-1.068v-3.139h-.892v-.289h.892v-1.4h.357v1.4h1.052v.289M77.671 25.029c.056.831.723 1.312 1.597 1.312.629 0 1.53-.175 1.53-.953 0-.761-.826-.875-1.653-1.033-.835-.157-1.662-.358-1.662-1.277 0-.892.929-1.154 1.747-1.154 1.024 0 1.785.411 1.785 1.434h-.357c-.01-.813-.621-1.145-1.428-1.145-.657 0-1.39.227-1.39.865 0 .718.826.832 1.606.989.958.166 1.71.376 1.71 1.321 0 .97-1.043 1.242-1.888 1.242-1.099 0-1.926-.552-1.954-1.601h.357" fill="#0A0B09"/><path d="M49.08 47.152a2.15 2.15 0 00-.252-.865 1.938 1.938 0 00-.541-.619 2.45 2.45 0 00-.771-.375 3.327 3.327 0 00-.943-.13c-.461 0-.87.094-1.225.282a2.7 2.7 0 00-.893.749c-.24.312-.423.668-.547 1.066a4.094 4.094 0 00-.188 1.232c0 .5.058.96.173 1.383.115.423.293.79.533 1.102.24.313.538.555.893.728.356.173.774.259 1.254.259a2.557 2.557 0 001.736-.648c.226-.202.411-.444.555-.728.144-.283.24-.593.288-.929h.548a3.48 3.48 0 01-.361 1.182 2.896 2.896 0 01-1.642 1.412 3.39 3.39 0 01-1.124.187c-.605 0-1.121-.108-1.549-.325a2.957 2.957 0 01-1.052-.871 3.698 3.698 0 01-.605-1.261 5.67 5.67 0 01-.194-1.491c0-.519.074-1.009.223-1.47.149-.461.367-.864.656-1.21a3.11 3.11 0 011.066-.822c.422-.201.907-.302 1.455-.302.403 0 .78.051 1.131.151.351.101.663.253.936.454.274.202.498.459.671.771.172.312.278.675.316 1.088h-.547M51.317 42.243v4.203h.029c.096-.279.233-.526.411-.742a2.708 2.708 0 011.39-.9 3.14 3.14 0 01.85-.116c.433 0 .8.053 1.102.158.303.106.55.246.743.418.192.173.343.368.454.584.11.216.189.434.237.656.048.22.077.434.086.641.01.206.015.387.015.54v4.582h-.547v-4.683c0-.182-.015-.413-.044-.692a2.09 2.09 0 00-.252-.799 1.84 1.84 0 00-.634-.656c-.283-.182-.675-.274-1.174-.274-.423 0-.797.078-1.124.231a2.449 2.449 0 00-.836.641 2.82 2.82 0 00-.525.98 4.082 4.082 0 00-.181 1.246v4.006h-.547V42.243h.547M58.342 48.564c0 .442.062.867.187 1.275.125.408.307.771.548 1.088.239.317.537.569.893.756.355.188.763.281 1.225.281.461 0 .869-.093 1.224-.281.356-.187.653-.439.893-.756.241-.317.423-.68.548-1.088.125-.408.187-.833.187-1.275 0-.442-.062-.867-.187-1.275a3.449 3.449 0 00-.548-1.088 2.576 2.576 0 00-2.117-1.038 2.577 2.577 0 00-2.118 1.038c-.241.317-.423.68-.548 1.088a4.328 4.328 0 00-.187 1.275zm-.548 0c0-.528.075-1.025.223-1.491.149-.466.368-.877.656-1.232a3.106 3.106 0 011.066-.843c.423-.207.908-.31 1.456-.31.547 0 1.032.103 1.455.31.422.206.778.488 1.066.843.288.355.507.766.655 1.232.149.466.224.963.224 1.491 0 .529-.075 1.028-.224 1.498a3.629 3.629 0 01-.655 1.232c-.288.351-.644.63-1.066.836-.423.207-.908.31-1.455.31-.548 0-1.033-.103-1.456-.31a3.136 3.136 0 01-1.066-.836 3.648 3.648 0 01-.656-1.232 4.958 4.958 0 01-.223-1.498zM65.8 52.267h.547v-7.406H65.8v7.406zm0-8.804h.547v-1.484H65.8v1.484zM73.618 47.152a2.15 2.15 0 00-.252-.865 1.938 1.938 0 00-.541-.619 2.471 2.471 0 00-.771-.375 3.332 3.332 0 00-.943-.13c-.461 0-.87.094-1.225.282a2.68 2.68 0 00-.893.749 3.387 3.387 0 00-.548 1.066 4.093 4.093 0 00-.187 1.232c0 .5.057.96.173 1.383.115.423.293.79.533 1.102.239.313.537.555.893.728.355.173.773.259 1.254.259a2.557 2.557 0 001.736-.648c.225-.202.41-.444.555-.728.144-.283.239-.593.288-.929h.547a3.48 3.48 0 01-.36 1.182 2.896 2.896 0 01-1.643 1.412c-.355.124-.73.187-1.123.187-.606 0-1.122-.108-1.549-.325a2.949 2.949 0 01-1.052-.871 3.68 3.68 0 01-.605-1.261 5.629 5.629 0 01-.195-1.491c0-.519.075-1.009.224-1.47a3.58 3.58 0 01.655-1.21 3.11 3.11 0 011.066-.822c.423-.201.908-.302 1.456-.302.403 0 .78.051 1.131.151.35.101.662.253.936.454.274.202.497.459.67.771.173.312.279.675.317 1.088h-.547M81.023 48.16a4.435 4.435 0 00-.201-1.145 2.87 2.87 0 00-.513-.951 2.546 2.546 0 00-.824-.655 2.406 2.406 0 00-1.105-.246 2.59 2.59 0 00-1.17.253 2.63 2.63 0 00-.853.662 2.964 2.964 0 00-.534.958 4.477 4.477 0 00-.231 1.124h5.431zm-5.446.476v.086c0 .433.058.846.173 1.24.116.394.287.739.514 1.037.226.298.51.533.852.706.341.173.739.259 1.192.259.741 0 1.329-.194 1.762-.583.434-.389.732-.93.896-1.621h.548c-.164.864-.517 1.527-1.06 1.988-.543.461-1.26.692-2.154.692-.547 0-1.025-.099-1.433-.296a2.9 2.9 0 01-1.023-.806 3.434 3.434 0 01-.613-1.211 5.423 5.423 0 01-.201-1.506c0-.518.069-1.015.209-1.491.139-.475.348-.893.626-1.253a3.1 3.1 0 011.045-.865c.418-.216.91-.324 1.477-.324.519 0 .977.096 1.376.288.398.192.732.454 1.002.786.268.331.472.715.612 1.152.139.437.209.906.209 1.405 0 .048-.003.103-.008.166a2.565 2.565 0 00-.007.151h-5.994z" fill="#A28B35"/><path fill="#161715" d="M87.385 56.881h-.729v-.245h1.748v.245h-.728v1.942h-.291v-1.942M88.971 56.636h.398l.689 1.837.692-1.837h.398v2.187h-.275v-1.819h-.006l-.683 1.819h-.248l-.683-1.819h-.007v1.819h-.275v-2.187"/><path d="M33.168 34.755c-.269-.228-.631-.342-1.086-.342-.387 0-.711.072-.972.215-.261.143-.47.333-.625.569a2.393 2.393 0 00-.335.814 4.469 4.469 0 00-.101.954c0 .302.036.597.108.883.071.287.183.541.334.765.152.223.349.401.594.536.243.135.534.202.871.202.531 0 .945-.139 1.244-.417.299-.277.482-.669.549-1.174h1.099c-.118.808-.419 1.432-.903 1.869-.484.438-1.143.657-1.976.657a3.4 3.4 0 01-1.32-.24 2.56 2.56 0 01-.96-.682 2.953 2.953 0 01-.581-1.055 4.408 4.408 0 01-.196-1.344c0-.489.064-.946.19-1.37a3.16 3.16 0 01.575-1.112 2.68 2.68 0 01.966-.745c.387-.181.837-.271 1.351-.271.37 0 .718.044 1.042.132.324.088.61.226.859.411.248.185.452.419.612.7.16.282.261.617.304 1.004h-1.112c-.084-.412-.261-.732-.531-.959M40.367 40.147v-1.035h-.026c-.227.403-.517.7-.871.89-.354.189-.77.284-1.25.284-.43 0-.788-.057-1.074-.171a1.694 1.694 0 01-.694-.486 1.82 1.82 0 01-.373-.751 4.027 4.027 0 01-.107-.967v-4.293h1.073v4.42c0 .404.118.724.354.96.235.236.559.353.972.353.329 0 .613-.05.853-.151.24-.101.44-.244.6-.43.159-.185.279-.402.359-.65.08-.248.121-.52.121-.814v-3.688h1.073v6.529h-1.01M43.739 38.688c.101.164.233.295.397.392.165.097.35.166.556.208.206.042.419.063.638.063.168 0 .345-.012.53-.038.185-.025.356-.071.511-.138a.963.963 0 00.386-.297.793.793 0 00.151-.499c0-.278-.105-.488-.315-.632a2.713 2.713 0 00-.79-.347 13.137 13.137 0 00-1.029-.24 5.278 5.278 0 01-1.029-.303 2.126 2.126 0 01-.79-.549c-.21-.236-.315-.564-.315-.985 0-.329.073-.61.221-.846.147-.236.337-.427.568-.575a2.64 2.64 0 01.783-.329 3.63 3.63 0 01.865-.106c.371 0 .711.031 1.023.094.311.063.587.173.827.328.24.156.431.367.575.632.143.265.227.596.252.991h-1.073a1.086 1.086 0 00-.165-.524 1.064 1.064 0 00-.353-.334 1.589 1.589 0 00-.473-.183 2.38 2.38 0 00-.525-.058c-.159 0-.321.013-.486.038-.164.026-.313.07-.448.133a.889.889 0 00-.328.253.632.632 0 00-.127.41c0 .185.066.339.196.461s.297.223.499.303c.202.08.429.147.682.202.253.055.505.112.758.171.269.059.532.13.789.214.257.084.484.196.682.335.197.139.358.314.48.524.122.211.183.471.183.783 0 .396-.082.724-.246.985a1.924 1.924 0 01-.644.631c-.265.16-.565.272-.897.335a5.322 5.322 0 01-.992.095 4.58 4.58 0 01-1.035-.114 2.532 2.532 0 01-.871-.372 1.9 1.9 0 01-.607-.683c-.151-.281-.235-.624-.252-1.029h1.074c.007.236.063.436.164.6M51.987 33.618v.947h-1.301v4.054c0 .126.011.227.032.303a.311.311 0 00.12.177c.058.042.14.069.246.082.105.013.242.019.41.019h.493v.947h-.821a3.83 3.83 0 01-.713-.057 1.049 1.049 0 01-.48-.208.888.888 0 01-.272-.43 2.476 2.476 0 01-.088-.732v-4.155h-1.112v-.947h1.112V31.66h1.073v1.958h1.301M53.992 37.943c.105.308.25.564.436.771a1.923 1.923 0 001.439.637c.278 0 .541-.054.79-.164.248-.109.464-.267.65-.473.185-.207.33-.463.436-.771.105-.307.157-.659.157-1.054a3.26 3.26 0 00-.157-1.055 2.302 2.302 0 00-.436-.777 1.862 1.862 0 00-.65-.479 1.949 1.949 0 00-.79-.165 1.94 1.94 0 00-.789.165 1.844 1.844 0 00-.65.479c-.186.211-.331.47-.436.777a3.26 3.26 0 00-.158 1.055c0 .395.053.747.158 1.054zm-1.093-2.399a3.04 3.04 0 01.607-1.086 2.84 2.84 0 01.997-.726c.396-.177.85-.265 1.364-.265.522 0 .979.088 1.37.265.392.176.722.419.992.726.269.307.471.669.606 1.086.135.417.202.865.202 1.345 0 .479-.067.926-.202 1.338a3.06 3.06 0 01-.606 1.08c-.27.308-.6.547-.992.72-.391.173-.848.259-1.37.259-.514 0-.968-.086-1.364-.259a2.777 2.777 0 01-.997-.72 3.047 3.047 0 01-.607-1.08 4.307 4.307 0 01-.202-1.338c0-.48.068-.928.202-1.345zM61.081 33.618v.96h.026c.488-.741 1.191-1.111 2.109-1.111.403 0 .77.084 1.098.252.329.169.56.455.695.859.219-.354.507-.627.865-.821.358-.194.751-.29 1.181-.29.328 0 .625.035.89.106.265.072.492.184.682.335.189.152.336.348.442.587.105.241.158.529.158.866v4.786h-1.074v-4.281c0-.202-.016-.392-.05-.568a1.156 1.156 0 00-.19-.461.941.941 0 00-.385-.31c-.164-.076-.377-.114-.637-.114-.531 0-.948.152-1.25.455-.304.303-.455.707-.455 1.212v4.067h-1.074v-4.281c0-.21-.019-.404-.056-.581a1.24 1.24 0 00-.196-.461.924.924 0 00-.373-.303 1.438 1.438 0 00-.6-.108c-.311 0-.579.064-.802.19a1.826 1.826 0 00-.846 1.004 1.56 1.56 0 00-.095.473v4.067h-1.073v-6.529h1.01M74.866 35.537a1.856 1.856 0 00-.391-.587 1.84 1.84 0 00-1.32-.537c-.278 0-.529.049-.752.146a1.755 1.755 0 00-.575.397c-.16.169-.286.365-.378.588a2.203 2.203 0 00-.164.713h3.75a2.23 2.23 0 00-.17-.72zm.262 4.193c-.488.371-1.103.556-1.844.556-.522 0-.974-.085-1.357-.252a2.682 2.682 0 01-.967-.708 3.025 3.025 0 01-.587-1.086 5.262 5.262 0 01-.221-1.376c0-.497.076-.952.227-1.364.152-.413.365-.771.638-1.074a2.905 2.905 0 012.204-.959c.581 0 1.063.119 1.446.359s.69.545.922.916c.231.371.391.774.48 1.212.088.438.124.855.107 1.25h-4.887a2.57 2.57 0 00.101.815c.076.257.197.484.366.682.168.198.383.356.644.474.261.117.568.176.922.176.455 0 .827-.105 1.117-.316.291-.21.482-.53.575-.959h1.061c-.143.732-.459 1.284-.947 1.654zM78.026 33.618v1.376h.025c.261-.53.581-.921.96-1.174.379-.253.859-.37 1.44-.353v1.136c-.43 0-.796.059-1.099.177-.303.118-.547.29-.733.518a2.155 2.155 0 00-.404.827 4.473 4.473 0 00-.126 1.117v2.905h-1.073v-6.529h1.01M88.63 30.95v1.394c0 .252-.027.488-.081.71a1.817 1.817 0 01-.251.584 1.315 1.315 0 01-.428.402c-.171.1-.379.151-.622.151v-.628c.143 0 .26-.036.352-.107a.805.805 0 00.227-.283c.058-.117.098-.249.119-.395.021-.147.031-.291.031-.434h-.741V30.95h1.394M82.427 38.679c.1.163.232.293.396.389.163.097.347.166.552.208.205.042.417.062.635.062.167 0 .343-.012.527-.037.185-.025.354-.071.509-.139a.947.947 0 00.383-.295.782.782 0 00.151-.496c0-.276-.105-.485-.314-.628a2.653 2.653 0 00-.785-.346 12.79 12.79 0 00-1.024-.238 5.276 5.276 0 01-1.024-.302 2.123 2.123 0 01-.785-.546c-.21-.235-.314-.561-.314-.98 0-.327.073-.607.22-.842.146-.234.335-.425.565-.571.23-.147.49-.256.779-.327.289-.071.575-.107.86-.107.369 0 .708.031 1.018.094.31.063.584.172.823.327.238.155.429.364.571.628.143.264.226.593.252.986h-1.068a1.074 1.074 0 00-.164-.521 1.074 1.074 0 00-.351-.333 1.613 1.613 0 00-.471-.182 2.41 2.41 0 00-.521-.056c-.16 0-.321.012-.484.037a1.611 1.611 0 00-.446.132.91.91 0 00-.327.251.634.634 0 00-.125.409c0 .184.064.337.194.458.13.122.295.222.497.301.2.08.426.147.678.202.251.054.502.11.754.169.267.059.529.13.785.214.255.083.481.194.678.332.197.139.356.313.477.522.122.209.183.469.183.779 0 .394-.082.72-.245.98a1.925 1.925 0 01-.641.628c-.264.159-.561.27-.892.333-.331.063-.66.094-.986.094-.36 0-.703-.038-1.03-.113a2.547 2.547 0 01-.867-.37 1.895 1.895 0 01-.603-.679c-.151-.28-.235-.622-.251-1.024h1.068c.008.235.063.433.163.597" fill="#A28B35"/><path d="M43.716 57.608c.069-.227.177-.425.323-.59.146-.166.328-.296.545-.39.218-.094.465-.141.743-.141.228 0 .442.033.642.1s.375.164.523.29c.148.126.266.283.353.471.087.188.129.406.129.653a1.633 1.633 0 01-.392 1.095 2.36 2.36 0 01-.409.382 7.829 7.829 0 01-.475.327c-.163.099-.327.197-.49.293-.163.097-.313.2-.449.309a2.035 2.035 0 00-.349.352.994.994 0 00-.189.434h2.702v.557h-3.437c.025-.312.08-.578.167-.798.086-.22.196-.412.33-.575a2.53 2.53 0 01.453-.431c.168-.123.344-.24.527-.349.223-.138.418-.266.586-.382.169-.116.308-.234.42-.352a1.27 1.27 0 00.252-.387c.057-.138.086-.299.086-.482a.917.917 0 00-.301-.69.924.924 0 00-.323-.193 1.139 1.139 0 00-.393-.067.915.915 0 00-.795.415 1.239 1.239 0 00-.181.42 1.747 1.747 0 00-.049.471h-.631a2.128 2.128 0 01.082-.742M48.641 59.823c.012.246.052.476.119.691.067.215.175.397.323.546.148.148.356.222.623.222.268 0 .476-.074.624-.222.148-.149.256-.331.323-.546.067-.215.106-.445.118-.691a12.591 12.591 0 00.015-1.091 3.673 3.673 0 00-.133-.924 1.2 1.2 0 00-.186-.389.936.936 0 00-.308-.271.906.906 0 00-.453-.104.909.909 0 00-.453.104.942.942 0 00-.307.271 1.2 1.2 0 00-.186.389 3.675 3.675 0 00-.134.924l-.003.427c0 .198.006.419.018.664zm-.672-1.258c.01-.207.035-.41.075-.608.039-.198.096-.386.17-.564.075-.178.176-.334.305-.468.128-.134.29-.24.486-.319.195-.079.429-.119.701-.119.272 0 .506.04.702.119a1.385 1.385 0 01.791.787c.073.178.13.366.17.564.04.198.064.401.074.608a12.558 12.558 0 010 1.203c-.01.208-.034.411-.074.609-.04.198-.097.384-.17.56a1.52 1.52 0 01-.305.464c-.129.134-.29.239-.483.316a1.924 1.924 0 01-.705.115c-.272 0-.506-.039-.701-.115a1.335 1.335 0 01-.486-.316 1.52 1.52 0 01-.305-.464 2.87 2.87 0 01-.17-.56 4.054 4.054 0 01-.075-.609 12.517 12.517 0 010-1.203zM53.619 61.75v-3.771h-1.366v-.505c.178 0 .351-.013.519-.041.168-.026.321-.077.457-.152.136-.074.251-.175.345-.304.094-.129.158-.292.193-.49h.482v5.263h-.63M58.35 57.786a1.148 1.148 0 00-.207-.382.975.975 0 00-.338-.264 1.075 1.075 0 00-.468-.096c-.188 0-.347.034-.478.104a.887.887 0 00-.319.278 1.177 1.177 0 00-.179.397 1.923 1.923 0 00-.055.468 1.173 1.173 0 00.293.772c.091.104.2.187.326.248a1.043 1.043 0 001.207-.252 1.13 1.13 0 00.215-.371 1.44 1.44 0 00.003-.902zm-1.658 3.288c.182.139.401.208.653.208a.941.941 0 00.868-.5c.193-.335.3-.846.32-1.534l-.015-.014a1.354 1.354 0 01-.505.53 1.351 1.351 0 01-.713.197 1.83 1.83 0 01-.712-.13 1.463 1.463 0 01-.524-.36 1.506 1.506 0 01-.319-.557 2.252 2.252 0 01-.107-.712c0-.252.042-.484.126-.694a1.54 1.54 0 01.356-.542 1.63 1.63 0 01.549-.353c.213-.084.446-.126.698-.126.248 0 .48.038.698.115.218.077.408.209.571.397.164.188.294.445.39.768.097.325.145.737.145 1.236 0 .911-.145 1.61-.434 2.097-.29.488-.754.732-1.392.732-.441 0-.807-.112-1.099-.334-.292-.223-.457-.562-.497-1.017h.631c.025.257.129.455.312.593z" fill="#161715"/></g></svg>