<svg xmlns="http://www.w3.org/2000/svg" xmlns:xlink="http://www.w3.org/1999/xlink" viewBox="0 0 310 54"><defs><path id="a" d="M.388.235h141.598V31H.388z"/></defs><g fill="none" fill-rule="evenodd"><g transform="translate(168 23)"><mask id="b" fill="#fff"><use xlink:href="#a"/></mask><path fill="#44536B" d="M99.47 5.21c1.061-1.48.179-2.621-.924-2.748-.345-.042-.65-.056-1.007.014-.648.127-1.171.451-1.682.972-1.668 1.72-.455 3.904-.455 3.904S98.05 7.21 99.47 5.21M16.267 18.862h.084c-1.296 1.848-2.662 3.567-4.77 5.807-3.186 3.368-5.998 4.523-8.121 5.158-2.413.704-1.57 1.225.084 1.17 2.233-.085 6.548-1.072 10.174-3.777 2.082-1.564 3.57-2.945 5.57-5.003l7.637-5.002h.056c-.497.775-.719 1.508-.774 2.184-.012.127-.11 1.128.567 1.903.551.634 1.434.873 2.7.83 1.793-.055 3.792-.816 6.013-2.55h.055c-.097.41-.069.705-.069.832.054.718.538 1.733 2.44 1.719 1.985-.014 3.998-1.071 6.011-2.466 1.434-.986 4.452-3.452 4.686-3.692h.055c-1.005 1.478-1.71 3.03-1.723 4.016 0 .507.11 2.142 2.552 2.142 2.728 0 4.755-1.862 5.678-2.55.884-.649 3.242-2.509 4.165-3.227.565-.437 1.365-1.057 2.165-1.635.193-.155.882-.648 1.06-.775h.056c-.703.803-1.78 2.114-2.276 2.803-1.323 1.833-1.447 2.566-1.502 3.073-.082 1.41.828 2.367 2.372 2.34 2.371 0 4.853-1.692 6.589-3.073.565-.45 1.242-.972 1.917-1.522h.056c-.552.818-.841 1.704-.8 2.396.026.803.51 2.184 2.936 2.184 2.219 0 4.067-.676 7.004-2.932.84-.649 2.233-1.943 2.797-2.535.429.125.994.14 1.42.084 1.229-.112 1.987-.493 3.02-1.197.249-.171.814-.58 1.295-.932h.056c-.937 1.057-1.819 2.001-2.44 3.031-.565.93-.842 1.733-.868 2.438-.029.76.22 1.973 2.413 2.015 2.302.056 4.065-.817 6.01-2.283.773-.565 2.606-2.071 3.489-2.705h.055c-.388.69-.567 1.38-.58 1.958-.028 1.93 1.295 3.016 3.928 3.016h.056c2.4.014 4.66-.705 7.39-2.678 1.06-.775 2.44-1.831 3.818-2.86h.055c-.936 1.437-2.123 3.227-2.508 3.903-.165.282-.206.465-.206.648 0 .141.027.324.096.451.22.367.69.437 1.544.437 1.708-.014 1.792.042 2.592-.704.758-.705 1.448-1.395 2.716-2.607.22-.212.896-.833 1.28-1.142 1.31.733 3.697 1.973 4.137 2.199 5.198 2.55 7.9 3.1 12.105 3.1 3.335 0 5.872-.606 7.928-1.62.067-.043.302-.17.426-.24.675-.395 1.049-.79 1.049-1.03 0-.28-.51-.339-1.613.057-.055.014-.276.085-.319.099-2.26.676-4.301 1-7.664.479-2.688-.423-4.122-1.155-6.203-2.057-.497-.212-2.068-1-2.413-1.184-1.158-.592-2.468-1.255-4.386-2.312 1.863-1.535 4.026-2.845 5.915-2.972.387-.042.565.197.732.564.276.62.965 1.042 1.889 1.042 1.115 0 2.025-.662 2.025-1.62 0-1.043-.69-1.594-2.025-1.62-3.186-.1-6.123 1.268-8.755 3.269-1.089.83-2.288 1.874-3.282 2.663h-.055c.165-.24.785-1.113.978-1.395 2.428-3.382 4.427-5.707 5.075-6.496a122.27 122.27 0 0 1 3.281-3.833c1.544-1.761 2.923-2.874 2.784-3.227-.192-.507-2.192.085-3.997.973-.373.183-2.097 1.14-3.791 2.804-1.972 1.972-2.676 2.93-6.204 6.89a29.387 29.387 0 0 1-3.047 2.931c-1.587 1.325-3.2 2.466-4.633 3.424-2.825 1.86-3.928 1.902-4.783 1.846-.442-.042-1.077-.282-1.297-1.085-.29-1.085-.026-2.75 2.192-5.115 1.489-1.578 2.662-1.945 3.338-2 .413-.043.55.31.689.563.274.62.979 1.014 1.873 1.014 1.103 0 2.013-.662 2.013-1.62 0-1.071-.69-1.592-2.013-1.62-1.075-.029-1.97.07-2.962.267-1.82.324-3.407 1.182-4.44 1.705-1.171.564-2.648 1.649-2.908 1.86-.745.578-1.34.958-2.124 1.592-.62.494-1.957 1.579-2.798 2.227a16.738 16.738 0 0 1-2.592 1.69c-.54.254-1.022.339-1.213.17-.276-.226-.11-.564.165-1 .248-.41.814-1.269 1.903-2.692 1.158-1.522 3.307-3.917 3.307-3.917.553-.578.455-.902.415-1.015-.194-.45-.69-.55-2.138-.55-1.68 0-2.384.085-4.191 1.536-1.626 1.297-2.15 1.762-3.047 2.41-.77.564-1.723 1.085-2.908 1.057.47-.352 1.324-1.226 1.819-1.945 1.02-1.48.952-2.86.22-3.227-.88-.408-2.302.155-3.403 1.945-.704 1.198-.883 2.367-.553 3.311-.647.69-2.137 2.001-2.702 2.424-1.516 1.1-2.179 1.423-3.005 1.775-.91.395-1.337.184-1.476.07a.474.474 0 0 1-.124-.365c0-.24.084-.465.248-.775.429-.82.965-1.635 1.889-2.917a65.6 65.6 0 0 1 1.889-2.482l.992-1.28c.22-.296.552-.677.4-1.001-.137-.324-.55-.55-1.613-.55-1.929-.014-2.205.282-2.797.832-2.083 1.888-3.173 3.112-6.04 5.383-1.503 1.196-2.742 2.17-4.12 2.86-.8.409-1.284.056-.94-.493.634-1.029 1.31-1.876 2.289-3.114 1.132-1.423 2.192-2.762 3.24-3.96.18-.197.551-.648.346-.986-.209-.367-.76-.48-1.903-.509-2.578-.055-3.227.593-4.565 1.552-1.42 1.014-2.838 2.07-3.982 2.902-.91.677-2.537 1.887-3.502 2.621-1.158.874-1.918 1.395-2.566 1.788-.826.495-1.212.439-1.434.27-.22-.17-.055-.536.153-.945.881-1.662 3.323-5.313 4.522-6.791h3.666c.386 0 .786-.184.87-.692.054-.353-.194-.69-.565-.69l-2.966.015a108.99 108.99 0 0 1 2.937-3.65c1.421-1.677 2.097-2.31 2.91-3.142.924-.958-.429-.733-.429-.733-3.915.564-6.368 3.324-6.368 3.324-1.118 1.115-1.683 1.693-3.777 4.2h-2.51c-.387 0-.786.198-.868.691-.055.352.178.69.552.69h1.558a61.121 61.121 0 0 1-2.607 2.368s-1.944 1.634-4.383 3.41c-.911.662-2 1.409-2.924 1.832-.922.435-1.157.14-1.212-.028-.055-.185.028-.465.247-.804 0 0 .939-1.338 2.028-2.761 1.103-1.452 2.178-2.692 3.197-3.89.153-.197.553-.577.373-1.028-.165-.423-.813-.522-1.847-.522-1.654 0-2.164.17-3.281 1.325h.027a2.045 2.045 0 0 0-.277-.705c-.246-.338-.757-.775-1.764-.803-1.572-.1-3.487.367-5.679 1.381-1.463.677-2.552 1.281-3.557 1.986.014-.013-1.558 1.072-1.558 1.072l-3.186 2.154c-1.2.82-2.909 1.932-4.024 2.595h-.055c.412-.55 1.79-2.48 2.275-3.17 0 0 2.618-3.58 3.28-4.538.704-1.029-.152-1.353-1.488-1.34-1.544.015-2.537.198-3.295 1.1-.8.944-1.394 1.677-2.138 2.422-4.895 5.004-8.712 5.526-10.56 5.526-.95 0-1.764-.212-2.138-.733-.302-.437-.384-1-.33-1.607.206-2.663 2.853-6.904 7.611-10.624 3.047-2.396 7.403-4.72 12.215-4.876.605-.028 1.184.212.729 1.071-.964 1.79.043 2.96 1.532 2.988 1.42.042 2.73-.62 3.157-1.776.51-1.38.067-2.55-.634-3.114-.553-.45-1.393-.76-2.703-.817-8.175-.38-14.944 3.1-16.488 3.973-2.91 1.635-7.501 5.017-9.79 8.933-.77 1.312-1.24 2.578-1.363 3.635-.319 2.848.689 5.44 5.625 5.384 3.362-.07 7.086-1.099 10.2-3.327M32.935 15.2c1.668-1.55 3.02-2.41 4.11-2.804.8-.296 1.433-.366 1.944-.227.22.057.689.27.523.944-.208.833-1.668 2.735-3.694 4.61-1.586 1.45-3.228 2.451-4.427 2.48-.44.012-.62-.227-.703-.353-.29-.45-.206-2.381 2.247-4.65" mask="url(#b)"/></g><path fill="#44536B" d="M216 15h2V0h-2zM6.031 9.071L0 0h2.226l4.767 7.691L11.788 0H14L7.969 9.071V15H6.031zM113 0h2.448l8.969 13.002h.026V0H126v15h-2.475l-8.928-12.975h-.04V15H113zM172 0h2.462l8.941 13.002h.053V0H185v15h-2.475l-8.928-12.975h-.053V15H172zM133 0h5.962C141.865 0 146 1.97 146 7.5s-4.135 7.5-7.038 7.5H133V0zm1.828 13.568h3.343c3.383 0 5.95-1.812 5.95-6.081s-2.567-6.082-5.95-6.082h-3.343v12.163zM213 15h-2.133l-1.533-3.694h-8.642L199.132 15H197l6.48-15h3.025L213 15zm-11.763-5.127h7.568l-3.555-8.44h-.472l-3.54 8.44zM302 1.433h-5.026V15h-1.962V1.433H290V0h12zM48.033 0v10.98c0 2.93-2.022 4.482-4.533 4.482-2.567 0-4.547-1.552-4.547-4.482V0H37v10.255C37 15.027 39.86 17 43.5 17c3.46 0 6.5-1.973 6.5-6.745V0h-1.967zM32 8.493C32 13.186 28.5 17 23.5 17c-5.043 0-8.5-3.8-8.5-8.507C15 3.8 18.457 0 23.5 0c5 0 8.5 3.8 8.5 8.493m-8.5-6.976c-3.938 0-6.375 3.12-6.375 6.976s2.437 6.976 6.375 6.976c3.953 0 6.375-3.134 6.375-6.976S27.453 1.517 23.5 1.517M109 8.493c0 4.693-3.502 8.507-8.493 8.507C95.474 17 92 13.2 92 8.493 92 3.8 95.46 0 100.507 0 105.484 0 109 3.8 109 8.493m-8.507-6.976c-3.942 0-6.38 3.12-6.38 6.976s2.438 6.976 6.38 6.976c3.942 0 6.38-3.134 6.38-6.976s-2.438-6.976-6.38-6.976M167 8.493c0 4.693-3.502 8.507-8.491 8.507-5.035 0-8.509-3.8-8.509-8.507C150 3.8 153.461 0 158.509 0 163.485 0 167 3.8 167 8.493m-8.507-6.976c-3.94 0-6.38 3.12-6.38 6.976s2.44 6.976 6.38 6.976c3.956 0 6.38-3.134 6.38-6.976s-2.438-6.976-6.38-6.976M271 8.493c0 4.693-3.513 8.507-8.5 8.507-5.045 0-8.5-3.8-8.5-8.507C254 3.8 257.455 0 262.5 0c5 0 8.5 3.8 8.5 8.493m-8.5-6.976c-3.938 0-6.375 3.12-6.375 6.976s2.437 6.976 6.375 6.976c3.937 0 6.375-3.134 6.375-6.976s-2.423-6.976-6.375-6.976M63.107 0c2.65 0 4.789 1.882 4.789 4.46 0 2.224-1.753 3.843-3.92 4.316L69 15h-2.429l-4.789-6.066h-3.809V15H56V0h7.107zm-.62 7.513c2.11 0 3.436-1.342 3.436-3.04 0-1.75-1.394-3.039-3.12-3.039h-4.83v6.08h4.513zM231.093 0c2.65 0 4.8 1.882 4.8 4.46 0 2.224-1.75 3.843-3.917 4.316L237 15h-2.442l-4.789-6.066h-3.794V15H224V0h7.094zm-.635 7.513c2.11 0 3.422-1.342 3.422-3.04 0-1.75-1.393-3.039-3.104-3.039h-4.83v6.08h4.512zM283.1 0c2.652 0 4.795 1.882 4.795 4.46 0 2.224-1.756 3.843-3.925 4.316L289 15h-2.431l-4.809-6.066h-3.798V15H276V0h7.1zm-.62 7.513c2.112 0 3.438-1.342 3.438-3.04 0-1.75-1.395-3.039-3.122-3.039h-4.834v6.08h4.518zM81 0h2.072v13.554H91V15H81zM239 0h7.39c3.272 0 5.61 2.005 5.61 4.768 0 2.762-2.306 4.767-5.595 4.767h-5.247V16h-2.141L239 0zm2 8l5.084-.013c2.403 0 3.916-1.257 3.916-2.98 0-1.711-1.576-2.994-3.51-2.994L241.014 2 241 8z"/></g></svg>