<svg xmlns="http://www.w3.org/2000/svg" viewBox="0 0 781 691.9"><path fill="#CFCECB" d="M248.4 581.7L111.1 344l137.3-237.8h274.5L660.2 344 522.9 581.7"/><path fill="#F4B51A" d="M271.7 551.8l-122-208.7-67-114.3c-4.9-8.4-6.9-20-6.1-31.1L6.3 319.5c-8.4 14.6-8.4 38.4 0 53l169.1 293c8.4 14.6 29.1 26.5 45.9 26.5h201.3c8.1-4.8 15.1-11.2 19.2-18.3l68.9-121.8h-239z"/><path fill="#DD462F" d="M774.7 319.5l-169.2-293 68.7 119"/><path fill="#DD462F" d="M774.7 319.5l-100.5-174c-8.7-5.3-18.7-8.7-27.6-8.7H510.5l117.7 207.5-117.5 207.5-68.9 121.8c-4.1 7.1-11.1 13.6-19.2 18.3h137c16.8 0 37.5-11.9 45.9-26.5l67.3-116.5 101.9-176.5c8.4-14.5 8.4-38.4 0-52.9z"/><path fill="#517DBF" d="M605.5 26.5C597.1 11.9 576.5 0 559.6 0H221.3c-16.8 0-37.5 11.9-45.9 26.5L76.6 197.7c-.8 11.1 1.3 22.6 6.1 31.1l66.9 114.4L269 136.8h377.5c8.9 0 18.9 3.4 27.6 8.7l-68.6-119z"/><path fill="#CFCECB" d="M149.6 343.2l122.1 208.6h239l117.5-207.5-117.7-207.5H269.1"/><path fill="#4F71A9" d="M80.9 190.2l-4.3 7.5c-.8 11.1 1.3 22.6 6.1 31.1l66.9 114.4 35.6-61.5-104.3-91.5z"/><path fill="#C3432F" d="M678.8 153.3l-4.5-7.8c-8.7-5.3-18.7-8.7-27.6-8.7H510.5l35.4 62.5 132.9-46z"/><path fill="#D19D2A" d="M411.2 691.9h11.7c8.1-4.8 15.1-11.2 19.2-18.3L511 551.8h-73.4l-26.4 140.1z"/><path fill="#FFF" d="M390.3 452.5c-59 0-107-48-107-107s48-107 107-107 107 48 107 107-48 107-107 107z"/><path fill="#CAC8C6" d="M390.3 240c58.2 0 105.5 47.2 105.5 105.5 0 58.2-47.2 105.5-105.5 105.5-58.2 0-105.5-47.2-105.5-105.5S332 240 390.3 240m0-3c-59.8 0-108.5 48.7-108.5 108.5S330.5 454 390.3 454s108.5-48.7 108.5-108.5S450.1 237 390.3 237z"/><path fill="#FFF" d="M230.1 88c-11.4 0-20.6-9.3-20.6-20.6 0-11.4 9.3-20.6 20.6-20.6 11.4 0 20.6 9.3 20.6 20.6S241.4 88 230.1 88z"/><path fill="#4472B8" d="M230.1 48.2c10.6 0 19.1 8.6 19.1 19.1 0 10.6-8.6 19.1-19.1 19.1-10.6 0-19.1-8.6-19.1-19.1-.1-10.5 8.5-19.1 19.1-19.1m0-3.1c-12.2 0-22.2 9.9-22.2 22.2 0 12.2 9.9 22.2 22.2 22.2 12.2 0 22.2-9.9 22.2-22.2-.1-12.2-10-22.2-22.2-22.2z"/><circle fill="#FFF" stroke="#4472B8" stroke-miterlimit="10" cx="549.2" cy="67.3" r="19.1"/><path fill="#FFF" d="M230.1 641.3c-11.4 0-20.6-9.3-20.6-20.6 0-11.4 9.3-20.6 20.6-20.6 11.4 0 20.6 9.3 20.6 20.6s-9.3 20.6-20.6 20.6z"/><path fill="#F3B01C" d="M230.1 601.5c10.6 0 19.1 8.6 19.1 19.1 0 10.6-8.6 19.1-19.1 19.1-10.6 0-19.1-8.6-19.1-19.1-.1-10.5 8.5-19.1 19.1-19.1m0-3c-12.2 0-22.2 9.9-22.2 22.2 0 12.2 9.9 22.2 22.2 22.2 12.2 0 22.2-9.9 22.2-22.2-.1-12.3-10-22.2-22.2-22.2z"/><g><path fill="#FFF" d="M549.2 641.3c-11.4 0-20.6-9.3-20.6-20.6 0-11.4 9.3-20.6 20.6-20.6 11.4 0 20.6 9.3 20.6 20.6.1 11.3-9.2 20.6-20.6 20.6z"/><path fill="#DE482F" d="M549.2 601.5c10.6 0 19.1 8.6 19.1 19.1 0 10.6-8.6 19.1-19.1 19.1-10.6 0-19.1-8.6-19.1-19.1 0-10.5 8.6-19.1 19.1-19.1m0-3c-12.2 0-22.2 9.9-22.2 22.2 0 12.2 9.9 22.2 22.2 22.2 12.2 0 22.2-9.9 22.2-22.2 0-12.3-9.9-22.2-22.2-22.2z"/></g><g><path fill="#FFF" d="M709.9 366.1c-11.4 0-20.6-9.3-20.6-20.6 0-11.4 9.3-20.6 20.6-20.6 11.4 0 20.6 9.3 20.6 20.6 0 11.4-9.2 20.6-20.6 20.6z"/><path fill="#DE482F" d="M709.9 326.4c10.6 0 19.1 8.6 19.1 19.1 0 10.6-8.6 19.1-19.1 19.1-10.6 0-19.1-8.6-19.1-19.1 0-10.6 8.5-19.1 19.1-19.1m0-3.1c-12.2 0-22.2 9.9-22.2 22.2 0 12.2 9.9 22.2 22.2 22.2 12.2 0 22.2-9.9 22.2-22.2 0-12.2-10-22.2-22.2-22.2z"/></g><g><path fill="#FFF" d="M69.1 366.1c-11.4 0-20.6-9.3-20.6-20.6 0-11.4 9.3-20.6 20.6-20.6s20.6 9.3 20.6 20.6c.1 11.4-9.2 20.6-20.6 20.6z"/><path fill="#F3B01C" d="M69.1 326.4c10.6 0 19.1 8.6 19.1 19.1 0 10.6-8.6 19.1-19.1 19.1-10.6 0-19.1-8.6-19.1-19.1 0-10.6 8.6-19.1 19.1-19.1m0-3.1c-12.2 0-22.2 9.9-22.2 22.2 0 12.2 9.9 22.2 22.2 22.2 12.2 0 22.2-9.9 22.2-22.2 0-12.2-10-22.2-22.2-22.2z"/></g></svg>