<svg xmlns="http://www.w3.org/2000/svg" width="148" height="120" viewBox="0 0 148 120"><g fill="#B22C2B" fill-rule="evenodd"><path d="M28.097 106.375l.015-10.176c6.379 0 8.72-.321 9.831 7.501h.674v-8.705l-17.373.006v1.198h3.008v22.397h-3.315v1.18h17.904v-9.153h-.898c-.892 6.921-2.645 7.976-7.567 7.976h-2.279v-10.883h1.321c2.207.055 3.464 1.343 3.914 5.141h.813l-.007-11.251c-.015.022-.8 0-.8 0 0 .056-.157 4.839-4.017 4.769h-1.224m-7.099.448h-9.801v1.11h3.356v8.054c-.567 2.046-3.58 2.9-4.478 2.9-6.261 0-5.812-9.159-5.812-11.612 0-2.242-.224-11.616 5.812-11.616 4.254 0 6.491 4.235 7.388 8.039h.679c0-1.566.025-9.023.01-9.005.015-.058-2.916 2.104-2.926 2.071.066-.014-1.34-2.004-5.151-2.004-7.388 0-10.097 7.372-10.075 12.515C.034 111.982 2.204 120 10.075 120c2.475 0 4.218-1.259 5.151-2.688.01-.031 3.12 2.455 3.13 2.464v-11.843h2.642v-1.11M106.624 110.837l3.574-10.709 3.809 10.709h-7.383zm-13.88-4.275h-4.019V96.184h5.14c3.018.457 3.142 3.944 3.142 5.054 0 2.684-1.122 5.324-4.263 5.324zm42.779 4.061c-.892 6.921-2.646 7.958-7.566 7.958h-.3V96.189h3.132v-1.207h-10.296v1.207h3.132v22.392h-2.484l-9.146-24.267h-1.347c.03-.015-7.598 22.018-7.614 22.083.016-.065-.575 1.891-1.83 2.133-1.157.056-1.073-.548-1.073-.761v-4.243c0-1.113-.084-3.644-1.242-4.806-1.297-1.307-3.514-1.403-3.463-1.452 0 0 5.623-1.162 5.623-6.507 0-3.747-2.605-5.609-6.959-5.774H81.729v1.206h3.162v22.393h-3.162v1.19h10.14v-1.19h-3.163v-10.768h4.217c7.316.604-1.255 11.969 8.332 11.958h6.042v-1.195c-.336 0-2.55.064-2.688-1.478-.092-1.116 1.457-5.121 1.457-5.121h8.227c-.004-.016 2.559 6.604 2.582 6.604h-2.868v1.19h22.414v-9.153h-.898zM69.539 96.184c6.381 0 8.736-.306 9.847 7.516h.674v-8.705H54.73v1.189h.663c.893 0 3.014.066 3.136 1.934h-.001v14.287l-11.849-17.41h-6.452v1.189h1.071c1.272 0 3.057.057 3.137 1.934v18.305c0 1.786-2.674 2.464-3.791 2.464h-.013v.889h8.729v-.889c-1.117 0-3.809-.678-3.809-2.464l.031-16.115c4.69 6.704 13.544 19.479 13.625 19.468h.444V98.118c.122-1.868 2.243-1.934 3.136-1.934h2.909v22.412h-3.317v1.18h17.905v-9.153h-.898c-.892 6.921-2.645 7.976-7.567 7.976h-2.28v-10.883h1.321c2.208.055 3.465 1.343 3.914 5.141h.814l-.006-11.251c-.015.022-.8 0-.8 0 0 .056-.158 4.839-4.018 4.769h-1.225V96.184M147.68 96.188V94.98h-10.106v1.208h3.174l.011 22.381h-3.185v1.207h10.106v-1.207h-3.174V96.188h3.174M111.666 74.401c.3-.772.885-1.261 1.692-1.417l8.176-1.824-.739-7.293-.024-.158c-.201-.955-.81-3.866-4.608-4.177-14.615-1.179-18.006-3.346-21.557-5.641-.006-.01-.011-.023-.015-.033l-.021.01-.23-.149c-3.795-2.455-7.565-2.475-7.935-2.465-4.139.003-9.378 1.641-9.805 1.777-1.264.371-2.446.751-3.59 1.117-4.576 1.472-8.531 2.747-15.171 2.549l-1.213-.036-.312 1.172c-.24.902-2.098 8.243-.305 12.96-1.607 1.266-1.606 2.731-1.597 2.927.066 1.613-.315 2.011-.441 2.141-.767.795-3.312.899-5.457.899h-.807l-.46.632c-1.321 1.819-4.177 2.245-6.006 1.781-.805-2.446-.825-4.316-.051-5.432.916-1.317 2.857-1.46 3.648-1.46h.46c1.941 0 3.521-1.588 3.521-3.539V55.6c.592-.913 1.066-1.966 1.48-3.151 3.207-.512 5.663-3.234 5.663-6.505a6.482 6.482 0 00-1.038-3.506c2.965-1.427 5.5-4.343 5.5-8.165 0-3.822-1.923-5.575-3.75-6.723.516-1.468 1.365-4.047 1.942-6.646l2.566-9.19c1.148-3.604 4.147-5.932 7.645-5.932h45.198c-1.912 2.693-4.629 3.967-8.394 3.967H78.279l-1.428 3.059h24.512c-1.926 3.063-4.746 4.506-8.75 4.506H74.839l-1.428 3.06H89.27c-1.921 2.949-4.71 4.342-8.64 4.342h-9.689l-1.428 3.059h10.155c.093.126.348.59.348 1.831 0 1.964-1.653 3.565-3.685 3.565-.698 0-1.293-.161-2.339-.586-.448-.191-.897-.381-1.347-.571l-2.357 2.115 1.323.561v.002c2.041.884 3.177 1.345 4.72 1.345 1.87 0 3.556-.774 4.752-2.01 1.741.112 4.548.344 7.266.565 3.25.268 6.318.52 7.904.604.794.044 1.538.081 2.25.115 1.348.066 2.581.127 3.814.217 6.169 10.016 9.331 11.333 21.279 12.765.861 1.542 1.637 3.174 2.376 4.815v19.504l.004.112c.066.897.066 1.2-.057 1.363-.414.543-2.258 1.313-2.899 1.578l-10.07 3.796c-1.335-1.809-1.815-3.697-1.284-5.06zm-2.179 5.297H89.578l8.532-9.005c1.723-1.781 2.272-3.921 1.547-6.023-.414-1.213-1.54-3.537-2.714-5.92 3.387 1.574 8.522 2.989 18.97 3.831 1.259.104 1.592.532 1.841 1.676l.458 4.51-5.461 1.218c-1.828.362-3.265 1.565-3.943 3.307-.748 1.922-.493 4.184.679 6.406zm-35.909 0c-.552-2.166-.327-3.896.66-5.025.945-1.082 2.396-1.411 3.422-1.263l5.819 1.08.147.025h.81l4.112-4.433.038-.041c.703-.818 2.84-3.297.658-6.459l-5.496-9.058c.91-.128 1.823-.21 2.668-.21l.037-.002c.028.005 2.784-.039 5.737 1.68.399.857.956 1.987 1.575 3.242 1.154 2.339 2.591 5.25 2.991 6.427.127.37.516 1.493-.861 2.917l-10.536 11.12H73.578zm-1.65-7.037c-1.11 1.271-2.187 3.485-1.488 7.037H51.696c2.012-.199 3.476-.67 4.487-1.72 1.227-1.276 1.336-3.022 1.294-4.268.041-.109.245-.53 1.162-.945l1.615-.736-.968-1.491c-1.601-2.461-.903-7.84-.283-10.763h.145c6.357 0 10.468-1.32 14.802-2.714 1.131-.364 2.298-.739 3.53-1.098l.037-.013c.026-.008 1.293-.41 3.018-.813l6.112 10.07.055.085c.609.869.685 1.442-.423 2.734l-3.063 3.304-5.021-.932-.046-.008c-2.268-.349-4.71.543-6.221 2.271zm-33.255-.663c-1.304 1.873-1.462 4.459-.481 7.7h-3.168V54.972c1.135-.174 2.356-.499 3.492-1.017-.064 1.079-.213 1.93-.414 3.07l-.144.836-.305 1.785h1.815c2.711 0 4.733-.424 6.287-1.227v10.323a.468.468 0 01-.457.479h-.46c-2.692 0-4.94 1.011-6.165 2.777zm-6.716 5.02l-14.433-3.756L3.09 77.018V51.202l14.434-3.747 14.433 3.747v25.816zm-27.014 2.68l12.581-3.274 12.58 3.274H4.943zm5.033-38.007c.602-.921 1.982-1.716 3.706-1.417l1.307.227.411-1.258c.111-.338.259-.586.463-.78.368-.347.915-.51 1.613-.491 1.844.06 4.156 1.344 6.031 3.357.683.732 1.287 1.58 1.827 2.439.104.181.224.375.334.545.15.24.277.436.304.482.066.117.994 1.511.93 1.6l1.902-2.669c.018-.026-.01-.108-.064-.223-.142-.306-.479-.836-.68-1.149-.047-.077-.097-.153-.145-.23-.003-.005-.008-.012-.01-.018l-.217-.338c-.211-.33-.514-.81-.648-1.073l3.995-6.385c.996.207 1.845.239 2.249.239h.099c5.631 0 11.457-3.249 11.457-8.686l-.001-.133c-.07-1.48-.347-2.893-.57-4.028-.146-.749-.285-1.454-.285-1.807 0-.596.837-1.258 2.037-1.258h1.823l-.825-4.719c2.564-1.886 4.138-4.957 4.057-7.894 2.761 2.118 4.709 5.79 5.066 9.698.104 1.134-.12 2.721-.487 4.39l-.196.698.033.01c-.653 2.724-1.616 5.527-2.125 6.855l-.471 1.228 1.146.649c2.055 1.164 3.318 2.015 3.318 4.721 0 3.103-2.793 5.482-5.492 5.986l-3.691.691 3.121 2.084c1.001.668 1.598 1.756 1.598 2.91 0 1.949-1.657 3.534-3.695 3.534h-1.176l-.331 1.08c-1.147 3.733-2.391 5.558-6.393 5.947.185-1.133.313-2.224.313-3.768 0-.362-.031-1.379-.047-1.705l-.178-3.478-2.446 2.485c-.831.843-2.302 1.513-3.919 1.832v-3.035l-17.5-4.543-6.226 1.618c-1.389-1.39-1.669-3.687-1.322-4.22zm18.897-11.239c.046-.212.217-.38.398-.375l2.634.084c3.214-.112 6.486-1.434 6.854-4.78 0-2.265-1.607-4.47-3.878-4.47-1.213 0-2.578.839-4.111 1.855-1 .662-1.79 1.186-2.388 1.186-.406 0-.732-.27-.732-.492 0-.037.006-.076.019-.112l1.684-2.254-1.456-.977c-.311-.204-.792-.586-.846-.871-.025-.135.17-.377.232-.449a26.441 26.441 0 001.993-2.617c.429-.601.679-.932 1.398-.932.711 0 1.292.571 1.292 1.27 0 .464.51.83 1.142.83.632 0 .916-.448 1.306-.83 0 0 1.502-1.377.707-2.028-.907-.743-4.543.773-3.532-2.565l.252-.476c.389-.515 2.128-1.802 5.721-1.802.679 0 1.397.049 2.132.141l.538.068 7.626-4.702c.066.159.089.274.089.274l.008.046c.398 2.308-1.057 5.055-3.382 6.39l-.932.533.602 3.44c-1.958.6-3.323 2.169-3.323 4.058 0 .649.15 1.42.341 2.393.213 1.083.453 2.307.515 3.552 0 3.58-4.938 5.947-9.117 5.812l-.107-.003c-.173-.006-2.833-.216-3.485-.731-.128-.094-.229-.305-.194-.466zm6.319-23.883c.48-.615 1.263-1.295 2.199-1.915.733-.482 1.687-.913 2.617-1.182 1.479-.425 3.179-.453 4.934-.116l-5.408 3.336a19.429 19.429 0 00-1.972-.105c-.919 0-1.762.074-2.536.199.057-.073.11-.148.166-.217zm82.412-.787h20.393c-1.912 2.695-4.632 3.967-8.396 3.967h-15.055c1.2-1.053 2.221-2.377 3.058-3.967zm-1.023 11.532h-15.054c1.332-1.167 2.44-2.675 3.324-4.506h20.481c-1.925 3.063-4.746 4.506-8.751 4.506zm-11.982 7.402H89.545c1.289-1.133 2.37-2.586 3.24-4.342h20.455c-1.921 2.947-4.71 4.342-8.641 4.342zm3.461 11.487c4.769.786 8.674 2.933 11.607 6.378a31.845 31.845 0 011.828 2.372c-8.023-1.053-10.815-2.221-15.301-9.03.597.079 1.215.17 1.866.28zm32.012 33.015c.293.474.544.92.789 1.348.299.53.591 1.045.936 1.582-2.322-.145-4.08-1.432-5.708-3.863 1.5-.524 3.316-.152 3.983.933zm-19.075 10.48l3.129-1.182.045-.015c4.442-1.84 5.074-2.989 4.866-5.942V60.618c3.379 8.582 6.574 14.616 13.125 14.613.89 0 1.842-.109 2.865-.341l2.556-.578-1.758-1.939c-1.122-1.239-1.667-2.199-2.295-3.31-.259-.456-.525-.928-.847-1.45-1.534-2.487-5.179-3.33-8.132-2.008-1.34-2.66-2.69-6.129-4.313-10.409l-.354-.814c-.279-.639-.56-1.283-.847-1.928v-.107h-.047c-1.007-2.26-2.08-4.529-3.362-6.655-1.166-1.931-2.352-3.596-3.625-5.091-3.417-4.013-7.938-6.508-13.442-7.418-3.804-.628-6.499-.76-9.909-.927-.707-.033-1.445-.071-2.232-.113-1.544-.086-4.734-.346-7.819-.601-2.08-.169-4.213-.343-5.89-.468.113-.472.179-.961.179-1.468 0-.683-.063-1.289-.183-1.831h21.892c5.642 0 9.727-2.495 12.158-7.406 5.61-.051 9.666-2.596 12.063-7.561h.781c5.84 0 10.017-2.665 12.413-7.923l.987-2.163H68.827c-4.873 0-9.024 3.18-10.575 8.097l-.049.171c-1.261-3.516-3.57-6.501-6.528-8.259C47.563.283 42.883-.538 39.157.533c-1.233.357-2.46.912-3.457 1.57-.854.564-2.055 1.47-2.926 2.585a24.006 24.006 0 00-2.537 4.063c-.426.351-.758.71-.987 1.059l-.889 1.667-.046.094c-1.063 2.4-2.356 4.062-3.361 5.238-1 1.165-1.051 2.271-.917 2.995.148.791.572 1.437 1.025 1.924l-.026.045a3.364 3.364 0 00-.451 1.687c0 1.957 1.703 3.437 3.797 3.437 1.523 0 2.768-.71 4.084-1.582.535-.354 1.951-1.294 2.415-1.345.588 0 1.121.532 1.121 1.118 0 1.603-2.067 2.468-3.549 2.575l-3.012.322c-2.168.204-3.196 1.353-3.196 2.38 0 1.032.495 1.613.839 1.957l.225.229.764.681-3.195 5.144c-2.278-2.109-4.942-3.386-7.305-3.46-1.528-.051-2.848.41-3.82 1.328a4.638 4.638 0 00-.739.907h-.056c-2.524 0-4.555 1.35-5.55 2.869-1.081 1.658-.693 4.53.681 6.723L.024 48.836v38.547h147.898v-7.685h-26.925z"/><path d="M28.76 55.167l-9.645-2.504v3.16l9.645 2.504v-3.16M6.289 58.327l9.644-2.504V52.66l-9.644 2.507v3.16M6.289 64.68l9.644-2.502v-3.163l-9.644 2.502v3.163M28.76 61.517l-9.645-2.502v3.163l9.645 2.502v-3.163M28.76 67.875l-9.645-2.507v3.162l9.645 2.505v-3.16M6.289 71.035l9.644-2.505v-3.162l-9.644 2.507v3.16"/></g></svg>