<svg xmlns="http://www.w3.org/2000/svg" width="177" height="145" viewBox="0 0 177 145">
  <g fill="none">
    <path fill="#594C3A" d="M64.094,84.893 C67.098,82.223 68.433,81.389 69.602,81.389 C70.436,81.389 71.604,81.889 72.439,82.391 L71.104,85.395 L70.771,85.227 C69.102,84.393 68.267,84.059 67.433,84.059 C66.432,84.059 65.431,84.561 64.095,85.895 L64.095,93.907 C64.095,96.411 64.428,97.079 66.265,97.079 L66.765,97.079 L66.765,97.745 L58.253,97.745 L58.253,97.079 L58.586,97.079 C60.422,97.079 60.922,96.411 60.922,93.907 L60.922,85.395 C60.922,83.059 60.422,82.725 58.419,82.725 L57.752,82.725 L57.752,81.889 L64.094,81.389 L64.094,84.893 L64.094,84.893 Z M124.178,77.549 L123.344,77.549 L123.344,77.217 C122.844,75.214 122.344,74.212 121.174,73.377 C120.174,72.543 119.004,72.209 117.67,72.209 C115,72.209 112.996,73.878 112.996,76.215 C112.996,77.549 113.664,78.885 114.666,79.887 C115.332,80.387 116.168,81.055 116.834,81.555 C117.502,81.889 118.504,82.557 119.84,83.391 C122.01,84.727 123.01,85.561 123.846,86.563 C125.014,87.899 125.514,89.401 125.514,91.069 C125.514,95.075 122.344,98.413 118.17,98.413 C116.834,98.413 116.168,98.247 113.998,97.579 C112.996,97.245 112.496,97.079 112.328,97.079 C111.828,97.079 111.66,97.413 111.326,98.079 L110.66,98.079 L110.66,91.069 L111.326,91.069 L111.326,91.571 C111.828,93.907 112.328,94.909 113.664,96.077 C114.832,96.911 116.168,97.413 117.502,97.413 C120.674,97.413 122.676,95.577 122.676,92.739 C122.676,91.069 122.176,90.069 120.506,88.733 C119.672,88.065 118.67,87.231 117.502,86.563 C115.834,85.561 114.832,84.893 114.164,84.393 C113.664,84.059 112.996,83.391 112.328,82.725 C111.326,81.389 110.66,79.719 110.66,78.051 C110.66,74.045 113.664,71.375 117.67,71.375 C119.004,71.375 119.84,71.375 121.342,71.875 C122.176,72.209 122.51,72.376 122.844,72.376 C123.178,72.376 123.344,72.209 123.512,71.709 L123.512,71.542 L124.178,71.542 L124.178,77.549 L124.178,77.549 Z M108.99,94.908 C108.99,96.744 107.656,98.246 105.82,98.246 C104.65,98.246 103.816,97.578 103.148,96.076 C101.646,97.578 100.644,98.246 98.976,98.246 C96.472,98.246 94.302,96.242 94.302,93.906 C94.302,91.736 95.804,90.4 99.644,89.4 C101.98,88.732 102.48,88.566 103.148,88.064 L103.148,86.896 C103.148,84.726 101.814,83.058 99.644,83.058 C97.808,83.058 96.472,84.058 95.47,86.062 L95.304,86.562 L94.636,86.228 C95.304,83.39 97.64,81.388 100.478,81.388 C102.648,81.388 104.65,82.39 105.486,84.058 C106.154,85.06 106.32,85.894 106.32,88.064 L106.32,94.072 C106.32,95.91 106.486,96.41 107.154,96.41 C107.656,96.41 107.988,95.91 108.322,94.908 L108.99,94.908 L108.99,94.908 Z M103.482,89.066 C102.814,89.4 102.648,89.566 101.646,89.9 C98.642,90.902 97.808,91.57 97.808,93.572 C97.808,95.242 98.976,96.576 100.312,96.576 C101.48,96.576 102.648,95.91 103.482,94.574 L103.482,89.066 L103.482,89.066 Z M88.461,85.729 L88.461,94.909 C88.461,96.411 87.794,97.079 86.291,97.079 L85.457,97.079 L85.457,97.745 L94.136,97.745 L94.136,97.079 C91.798,97.079 91.466,96.577 91.466,93.907 L91.466,81.223 L87.793,81.555 L78.614,81.555 C74.775,81.555 71.938,84.227 71.938,87.899 C71.938,91.069 73.607,93.239 76.945,94.073 L76.945,94.241 C73.273,95.577 71.938,96.745 71.938,98.747 C71.938,100.083 73.106,101.251 75.276,101.751 C71.27,103.755 70.269,104.757 70.269,106.759 C70.269,109.763 73.44,111.599 78.114,111.599 C83.621,111.599 87.794,108.761 87.794,105.089 C87.794,102.753 86.125,101.251 82.453,100.417 L78.781,99.749 C75.11,99.081 74.275,98.581 74.275,97.413 C74.275,96.243 76.277,94.909 78.781,94.407 C82.62,94.241 85.458,91.571 85.458,87.899 C85.458,86.397 84.79,84.727 83.622,83.391 C83.622,83.391 84.29,82.891 85.458,82.891 L86.292,82.891 C87.794,82.891 88.462,83.559 88.462,84.893 L88.462,85.729 L88.461,85.729 L88.461,85.729 Z M77.613,102.252 L80.617,102.92 C85.29,103.92 86.458,104.588 86.458,106.424 C86.458,108.426 84.122,109.93 80.617,109.93 C75.944,109.93 72.439,108.26 72.439,105.924 C72.439,104.254 74.108,102.92 77.112,102.084 L77.613,102.252 L77.613,102.252 Z M78.948,93.572 C76.612,93.572 75.11,91.236 75.11,87.73 C75.11,84.56 76.612,82.39 78.948,82.39 C81.285,82.39 82.954,84.56 82.954,87.73 C82.954,91.236 81.285,93.572 78.948,93.572 Z"/>
    <path fill="#594C3A" d="M150.383,94.908 C150.049,95.91 149.715,96.41 149.213,96.41 C148.547,96.41 148.379,95.91 148.379,94.072 L148.379,88.064 C148.379,85.894 148.213,85.06 147.545,84.058 C146.711,82.39 144.707,81.388 142.537,81.388 C139.701,81.388 137.363,83.39 136.697,86.228 L137.531,86.562 L137.531,86.062 C138.533,84.058 139.867,83.058 141.703,83.058 C143.873,83.058 145.209,84.726 145.209,86.896 L145.209,88.064 C144.541,88.566 144.039,88.732 141.703,89.4 C137.865,90.4 136.363,91.736 136.363,93.906 C136.363,94.406 136.529,94.74 136.697,95.242 C135.695,96.076 135.027,96.41 133.859,96.41 C131.689,96.41 131.021,95.408 131.021,92.07 L131.021,82.89 L136.529,82.89 L136.529,81.888 L131.021,81.888 L131.021,76.38 L130.187,76.38 C128.851,79.218 127.183,80.888 124.845,82.222 L124.845,82.89 L127.849,82.89 L127.849,93.572 C127.849,96.242 129.853,98.246 132.523,98.246 C134.193,98.246 135.695,97.412 137.029,95.91 C137.697,97.244 139.367,98.246 141.035,98.246 C142.705,98.246 143.707,97.578 145.209,96.076 C145.877,97.578 146.711,98.246 148.045,98.246 C149.715,98.246 151.051,96.744 151.051,94.908 L150.383,94.908 L150.383,94.908 Z M145.543,94.574 C144.707,95.91 143.539,96.576 142.371,96.576 C141.035,96.576 139.867,95.242 139.867,93.572 C139.867,91.57 140.701,90.902 143.707,89.9 C144.707,89.566 144.875,89.4 145.543,89.066 L145.543,94.574 L145.543,94.574 Z M83.455,127.287 L83.455,114.77 L77.279,115.438 L77.279,116.104 L78.281,116.104 C79.783,116.104 80.45,116.772 80.45,118.108 L80.45,128.122 C80.45,129.792 79.783,130.292 78.114,130.292 L77.78,130.292 C75.944,130.292 75.61,129.792 75.61,127.288 L75.61,120.778 C75.61,117.106 73.441,114.77 70.102,114.77 C68.1,114.77 66.264,115.77 64.427,117.94 L64.427,114.77 L58.586,115.27 L58.586,115.938 L59.087,115.938 C60.922,116.104 61.423,116.606 61.423,118.274 L61.423,127.288 C61.423,129.792 60.922,130.292 59.087,130.292 L58.92,130.292 C57.084,130.292 56.25,129.124 56.25,126.286 L56.25,110.097 C56.25,107.259 57.084,106.091 58.92,106.091 L59.087,106.091 L59.087,105.257 L50.074,105.257 L50.074,106.091 L50.241,106.091 C52.077,106.091 52.745,107.259 52.745,110.097 L52.745,125.618 C51.076,128.456 48.405,129.958 45.401,129.958 C43.064,129.958 40.894,128.956 39.893,127.288 C39.225,126.286 38.892,124.45 38.892,122.114 L38.892,110.096 C38.892,107.258 39.559,106.09 41.562,106.09 L41.896,106.09 L41.896,105.256 L32.549,105.256 L32.549,106.09 L32.883,106.09 C34.719,106.09 35.386,107.258 35.386,110.096 L35.386,122.614 C35.386,128.122 38.724,131.628 44.232,131.628 C47.57,131.628 50.407,130.292 52.744,127.454 L52.744,131.126 L67.098,131.126 L67.098,130.292 L66.597,130.292 C64.761,130.292 64.427,129.792 64.427,127.288 L64.427,119.444 C65.929,117.274 67.265,116.272 68.934,116.272 C71.437,116.272 72.439,117.606 72.439,120.778 L72.439,127.288 C72.439,129.792 71.938,130.292 70.102,130.292 L69.768,130.292 L69.768,131.126 L86.124,131.126 L86.124,130.292 C83.788,130.291 83.455,129.957 83.455,127.287 L83.455,127.287 Z M102.314,115.938 C100.478,116.104 99.978,116.606 99.31,118.274 L98.976,118.942 L94.136,131.46 L93.468,131.46 L88.294,118.942 C87.126,116.272 86.959,116.104 84.956,115.938 L84.956,115.27 L92.634,115.27 L92.634,115.938 C91.632,116.104 91.132,116.606 91.132,117.274 C91.132,117.774 91.132,118.108 91.632,119.11 L94.97,127.288 L97.974,119.276 C98.308,118.442 98.476,117.774 98.476,117.44 C98.476,116.606 98.142,116.104 96.972,116.104 C96.806,116.104 96.64,115.938 96.472,115.938 L96.472,115.27 L102.314,115.27 L102.314,115.938 L102.314,115.938 Z M139.533,119.609 C139.533,119.443 139.533,119.443 139.367,119.275 C138.533,116.605 137.531,115.603 135.527,115.603 C133.859,115.603 132.857,116.437 132.857,117.773 C132.857,119.109 133.691,119.943 136.029,120.945 C138.365,122.113 138.865,122.279 139.701,122.947 C140.668752,123.923421 141.20903,125.244261 141.203,126.619 C141.203,129.289 138.865,131.459 136.195,131.459 C135.361,131.459 134.193,131.293 133.191,130.791 C132.691,130.457 132.357,130.457 132.023,130.457 C131.689,130.457 131.355,130.625 131.189,131.125 C131.189,131.293 131.021,131.293 131.021,131.459 L130.353,131.459 L130.353,126.119 L131.021,126.119 C131.855,129.123 133.691,130.625 136.195,130.625 C137.697,130.625 139.033,129.457 139.033,127.955 C139.033,126.285 138.031,125.451 134.359,123.781 C131.689,122.781 130.521,121.277 130.521,119.275 C130.521,116.939 132.691,114.769 135.361,114.769 C135.861,114.769 136.529,114.935 137.029,114.935 L138.031,115.437 L138.699,115.437 C139.033,115.437 139.367,115.269 139.533,114.769 L140.367,114.769 L140.367,119.609 L139.533,119.609 L139.533,119.609 Z M148.045,127.287 C148.045,129.957 148.379,130.291 150.883,130.291 L150.883,131.125 L142.037,131.125 L142.037,130.291 L142.871,130.291 C144.541,130.291 145.041,129.791 145.041,128.121 L145.041,118.107 C145.041,116.771 144.541,116.103 143.039,116.103 L142.037,116.103 L142.037,115.437 L148.045,114.769 L148.045,127.287 L148.045,127.287 Z M170.578,115.27 L170.578,115.271 L176.252,115.271 L176.252,115.939 C174.584,115.939 173.582,117.107 172.58,119.777 L166.738,136.802 C165.57,140.474 165.236,141.308 164.068,142.644 C163.066,143.644 162.066,144.312 160.896,144.312 C160.23,144.312 159.896,144.146 159.06,143.812 L160.062,140.808 C160.73,141.14 161.064,141.308 161.564,141.308 C163.568,141.308 164.736,139.972 165.736,137.302 L167.574,131.628 L162.232,118.942 L161.898,118.274 C161.064,116.438 160.562,116.272 158.726,116.272 L155.89,116.272 L155.89,125.284 C155.89,128.79 156.556,129.792 158.894,129.792 C160.062,129.792 160.896,129.458 161.732,128.29 L162.232,128.956 C160.896,130.626 159.228,131.46 157.392,131.46 C154.722,131.46 152.886,129.624 152.886,126.954 L152.886,116.272 L149.88,116.272 L149.88,115.604 C152.218,114.268 153.72,112.432 155.054,109.762 L155.89,109.762 L155.89,115.27 L166.404,115.27 L166.404,115.938 C165.404,116.104 165.07,116.438 165.07,117.274 C165.07,117.774 165.07,118.108 165.57,119.276 L169.076,127.454 L171.912,118.942 C172.08,118.274 172.246,117.94 172.246,117.44 C172.246,116.438 171.912,116.104 170.578,115.938 L170.578,115.27 Z M122.01,118.107 C125.014,115.603 126.348,114.769 127.516,114.769 C128.352,114.769 129.52,115.269 130.354,115.769 L129.186,118.775 L128.852,118.607 C127.184,117.773 126.348,117.439 125.348,117.439 C124.346,117.439 123.512,117.939 122.01,119.275 L122.01,127.287 C122.01,129.791 122.51,130.291 124.178,130.291 L124.68,130.291 L124.68,131.125 L116.168,131.125 L116.168,130.291 L116.668,130.291 C118.504,130.291 118.838,129.791 118.838,127.287 L118.838,118.607 C118.838,116.437 118.338,115.937 116.334,115.937 L115.666,115.937 L115.666,115.269 L122.01,114.769 L122.01,118.107 Z"/>
    <path fill="#5C513E" d="M173.414,94.908 C171.912,96.576 170.578,97.244 169.076,97.244 C167.24,97.244 165.404,96.076 164.234,94.406 C163.066,92.738 162.732,91.236 162.566,88.064 L174.416,88.064 L174.416,87.564 C174.416,84.392 171.078,81.388 167.574,81.388 C163.066,81.388 159.394,85.226 159.394,89.9 C159.394,91.904 160.062,93.738 161.064,95.074 C160.23,96.076 159.394,96.41 158.226,96.41 C156.056,96.41 155.222,95.408 155.222,92.07 L155.222,82.89 L160.896,82.89 L160.896,81.888 L155.222,81.888 L155.222,76.38 L154.554,76.38 C153.218,79.218 151.55,80.888 149.212,82.222 L149.212,82.89 L152.218,82.89 L152.218,93.572 C152.218,96.242 154.054,98.246 156.724,98.246 C158.56,98.246 160.23,97.244 161.564,95.576 C163.234,97.244 165.404,98.246 168.074,98.246 C170.244,98.246 171.912,97.578 173.414,96.076 L173.414,94.908 L173.414,94.908 Z M167.072,82.391 C169.742,82.391 171.412,84.059 171.412,87.231 L162.732,87.231 C163.066,83.893 164.568,82.391 167.072,82.391 Z M34.886,97.244 C33.217,97.244 31.381,96.076 30.212,94.406 C29.044,92.738 28.71,91.236 28.543,88.064 L40.226,88.064 L40.226,87.564 C40.226,84.392 37.055,81.388 33.383,81.388 C29.878,81.388 26.874,83.892 25.706,87.23 L15.525,87.23 L15.525,88.064 L16.527,88.064 C18.697,88.064 19.364,89.066 19.364,92.236 L19.364,93.738 C19.364,96.576 18.363,97.412 15.025,97.412 C8.85,97.412 4.176,92.404 4.176,84.892 C4.176,77.882 8.182,73.043 13.69,73.043 C15.859,73.043 17.862,73.877 19.531,75.379 C21.033,76.548 21.701,77.882 22.201,80.052 L22.868,80.052 L22.701,72.542 L21.867,72.542 C21.533,73.043 21.199,73.376 20.365,73.376 C20.365,73.376 20.198,73.376 20.032,73.209 L19.364,73.209 C19.031,73.042 18.697,72.875 17.862,72.708 C16.026,72.208 15.192,72.041 13.69,72.041 C6.179,72.041 0.504,78.384 0.504,86.395 C0.504,94.239 6.346,98.579 15.358,98.579 C18.028,98.579 21.033,98.245 22.702,97.743 L22.702,92.403 C22.702,89.065 23.369,88.063 25.539,88.063 C25.372,88.731 25.372,89.399 25.372,89.899 C25.372,94.739 28.877,98.245 33.884,98.245 C36.388,98.245 38.057,97.577 39.726,95.909 L39.726,94.574 C37.89,96.41 36.555,97.244 34.886,97.244 Z M33.217,82.391 C36.054,82.391 37.556,84.059 37.556,87.231 L28.877,87.231 C29.378,83.893 30.713,82.391 33.217,82.391 Z M58.586,89.734 C58.586,94.574 54.914,98.246 49.907,98.246 C44.9,98.246 41.228,94.574 41.228,89.734 C41.228,85.06 44.9,81.388 49.74,81.388 C54.747,81.389 58.586,85.061 58.586,89.734 Z M44.9,89.566 C44.9,94.406 46.903,97.244 50.241,97.244 C53.579,97.244 55.582,94.406 55.582,89.734 C55.582,84.892 53.746,82.222 50.074,82.222 C46.903,82.223 44.9,85.061 44.9,89.566 L44.9,89.566 Z M115,128.289 C113.33,129.791 111.994,130.625 110.492,130.625 C108.824,130.625 106.988,129.457 105.82,127.621 C104.65,125.951 104.316,124.615 104.15,121.277 L115.834,121.277 L115.834,120.777 C116,117.605 112.662,114.769 108.99,114.769 C104.484,114.769 100.978,118.441 100.978,123.281 C100.978,128.121 104.65,131.459 109.49,131.459 C111.828,131.459 113.33,130.959 115,129.457 L115,128.289 L115,128.289 Z M108.656,115.604 C111.326,115.604 112.83,117.44 112.83,120.612 L104.15,120.612 C104.65,117.273 105.986,115.604 108.656,115.604 Z"/>
    <path fill="#053A94" d="M111.326,27.145 C110.826,29.816 110.492,38.328 115.5,45.003 C120.174,51.179 125.848,53.849 126.85,61.693 C127.016,63.028 127.016,64.364 126.682,65.365 C116,58.856 109.824,49.844 109.824,36.659 C109.824,33.154 110.326,30.149 111.326,27.145 L111.326,27.145 Z M147.045,33.821 L174.918,33.821 C175.040173,35.3755739 175.095557,36.9346756 175.084,38.494 C175.084,50.344 169.408,58.355 159.729,64.531 C151.551,69.538 143.374,69.538 143.374,69.538 C148.548,64.364 152.72,57.187 152.22,49.176 C151.885,42.167 149.213,38.662 147.045,33.821 L147.045,33.821 Z"/>
    <path fill="#053A94" d="M129.688,6.116 C127.35,7.618 124.846,10.622 124.012,12.124 C111.994,34.322 136.364,43.835 135.528,59.023 C135.362,61.86 134.694,65.199 133.024,68.036 C133.024,68.036 130.02,67.035 128.686,66.367 C130.02,62.529 130.02,60.025 129.02,56.353 C126.682,48.676 115.5,40.498 115.332,28.981 C115.166,19.802 120.006,9.955 129.688,6.116 L129.688,6.116 Z"/>
    <polygon fill="#EF0000" points="110.492 102.92 174.584 102.92 174.584 106.258 110.492 106.258"/>
    <path fill="#053A94" d="M143.539,0.775 C141.703,1.776 131.189,8.619 134.527,24.475 C136.363,33.154 147.045,43.001 146.543,54.016 C146.209,62.028 141.703,67.87 140.535,69.371 C140.535,69.371 137.865,69.371 135.527,68.703 C137.029,66.367 139.199,61.526 139.701,57.354 C141.203,42.833 126.515,36.491 127.183,21.804 C127.516,11.457 133.525,4.113 143.539,0.775 Z"/>
  </g>
</svg>
