<svg xmlns="http://www.w3.org/2000/svg" xmlns:xlink="http://www.w3.org/1999/xlink" viewBox="0 0 380.438 405.793"><defs><path id="a" d="M0 0h380.438v405.793H0z"/></defs><clipPath id="b"><use xlink:href="#a" overflow="visible"/></clipPath><path clip-path="url(#b)" fill="#ED1C2E" d="M324.55 302.913c-10.653 41.5-9.354 34.893-14.922 52.09-3.604 11.134-7.216 22.256-11.654 33.63-8.053-7.55-16.61-13.544-25.805-18.624-14.494-8.01-29.595-9.392-45.167-3.707-9.49 3.465-18.773 7.5-28.28 10.916-10.285 3.698-20.24 2.916-29.4-3.518-8.573-6.02-17.02-12.226-25.695-18.097-12.48-8.447-25.938-9.503-39.925-4.375-7.462 2.736-14.79 5.84-22.204 8.707-7.143 2.763-14.368 5.097-22.216 4.623-17.68-1.066-29.89-12.103-42.895-22.82 3.035-1.992 5.53-3.605 8-5.255 24.834-16.594 41.792-39.908 54.79-66.13 24.196-48.808 34.508-101.603 41.882-154.95 3.243-23.467 10.584-44.738 26.133-62.406 28.9-32.84 65.393-45.422 108.537-37.763 44.003 7.813 81.252 45.65 88.695 89.72 4.066 24.078 3.18 37.557.1 72.262 0 0-11.42 79.794-19.977 125.693"/><path clip-path="url(#b)" fill="#010101" d="M5.05 333.784c5.824-3.212 11.604-6.475 16.937-10.475 22.443-16.83 37.7-39.35 49.223-64.346 21.48-46.592 31.305-96.43 38.01-146.838 5.867-44.116 27.673-77.403 66.822-97.26C220.488-7.678 264.895-4.61 306.104 24.27c32.968 23.106 50.04 55.685 52.218 95.8.95 17.476 1.593 22.557-.983 51.11-3.5-.012-7.713-.017-12.28-.02 2.635-30.31 3.187-43.58-.634-66.204-7.443-44.07-44.69-81.906-88.695-89.72C212.588 7.58 176.095 20.16 147.195 53c-15.55 17.667-22.89 38.938-26.133 62.405-7.373 53.347-17.685 106.142-41.88 154.95-13 26.222-29.957 49.536-54.792 66.13-2.47 1.65-4.964 3.263-8 5.256 13.004 10.717 25.215 21.754 42.896 22.82 7.847.474 15.072-1.86 22.215-4.623 7.413-2.868 14.74-5.97 22.202-8.707 13.988-5.128 27.445-4.072 39.925 4.375 8.675 5.87 17.122 12.076 25.695 18.097 9.16 6.434 19.115 7.216 29.4 3.517 9.507-3.418 18.79-7.452 28.28-10.917 15.572-5.685 30.673-4.302 45.167 3.706 9.193 5.08 17.75 11.073 25.803 18.622 4.438-11.373 8.05-22.495 11.655-33.63 4.982-15.39 4.467-11.72 11.938-40.52h12.774c-6.985 28.245-16.717 57.08-27.106 84.83-2.888 7.712-7.273 8.532-13.155 2.512-7.722-7.904-16.435-14.608-25.902-20.225-12.276-7.284-25.26-8.55-38.69-3.296-9.1 3.56-18.063 7.524-27.306 10.657-13.246 4.49-26.237 3.747-38.15-4.238-8.28-5.552-16.423-11.33-24.425-17.28-10.737-7.985-22.14-8.863-34.308-4.012-8.77 3.497-17.47 7.19-26.358 10.363-11.452 4.087-23.144 4.533-34.668.27-16.088-5.952-29.18-16.385-41.066-28.437-4.833-4.9-4.196-8.51 1.842-11.842"/><path clip-path="url(#b)" fill="#010101" d="M359.903 171.188l-2.563-.01c-3.5-.01-7.713-.016-12.28-.018-14.557-.01-32.682.014-42.583.014-28.803 0-57.606-.01-86.41.006-10.01.006-17.35 5.2-20.215 14.22-.5 1.578-.737 3.187-.787 4.837 1.485-.09 2.418-.16 2.418-.16 8.79-1.065 16.294 1.512 23.056 7.158 2.464 2.058 4.323 4.305 5.578 6.644 17.81.022 35.62.02 53.43.02 16.178 0 40.18.01 61.062-.005 4.283-.003 8.44-.007 12.365-.013 4.293-.006 8.316-.013 11.944-.023 1.837-.006 2.442.366 2.437 2.343-.07 29.306-.04 58.613-.055 87.92-.003 4.728-2.465 7.198-7.18 7.2-7.175 0-14.805.003-22.727.004l-12.552.002c-36.484.004-77.337.002-109.296-.007-4.852-.002-7.346-2.52-7.347-7.345-.005-20.536-.004-41.073-.023-61.61-4.008 1.712-8.187 3.042-12.432 4.195-.19.05-.424.113-.698.183.003 19.278.013 38.555.005 57.833-.005 11.12 8.47 19.794 19.717 19.87 14.06.093 28.124.024 42.187.024h22.873c11.114 0 26.495.007 41.736.008h12.774c9.683-.002 18.777-.007 26.043-.02 9.575-.016 16.937-5.64 19.527-14.71.425-1.488.518-2.998.52-4.517.007-34.902-.008-69.805.008-104.707.005-10.86-8.845-19.29-20.535-19.34"/><path clip-path="url(#b)" fill="#FFF" d="M208.177 232.37c.02 20.535.02 41.072.023 61.608.002 4.826 2.495 7.343 7.347 7.345 31.96.01 72.812.01 109.296.006 4.252 0 8.44-.002 12.552-.003 7.922 0 15.553-.003 22.728-.005 4.714-.002 7.176-2.47 7.18-7.2.015-29.306-.014-58.613.054-87.92.005-1.976-.6-2.348-2.438-2.343-3.63.01-7.652.016-11.944.022-3.926.006-8.082.01-12.366.013-20.88.015-44.884.005-61.06.005-17.81 0-35.62.002-53.432-.02 3.848 7.168 1.993 15.2-5.68 21.316-3.792 3.023-7.926 5.322-12.26 7.173"/><path clip-path="url(#b)" fill="#010101" d="M226.118 203.88c-1.255-2.34-3.114-4.587-5.58-6.645-6.76-5.646-14.264-8.223-23.055-7.157 0 0-.933.07-2.418.16-4.826.29-15.394.63-19.657-.305-4.263-.934-21.795-9.545-21.795-9.545-3.39-1.793-6.63-1.335-8.744 2-2.276 3.592-.476 6.647 2.616 8.447 14.434 8.403 28.258 14.966 45.637 11.955.598-.104 1.25-.188 1.92-.262 2.974-.33 6.5-.386 9.2-.233 1.544.087 3.364.75 5.082 1.702 3.08 1.71 5.83 4.368 6.04 6.41.524 5.107-3.826 6.65-7.205 8.406l-.012.007c-4.223 2.196-8.614 3.983-13.102 5.466-4.948 1.635-10.015 2.898-15.12 3.88-13.308 2.554-26.735 2.592-40.035-.83-3.46-.89-6.196.495-7.56 4.025-1.456 3.766.982 5.626 3.708 7.054 1.72.902 3.723 1.342 5.65 1.758 11.02 2.38 22.136 2.784 33.27 1.082 3.403-.52 16.045-3.47 20.09-4.508.273-.07.508-.132.697-.183 4.245-1.153 8.424-2.483 12.432-4.194 4.334-1.852 8.47-4.15 12.26-7.174 7.674-6.116 9.53-14.148 5.68-21.317M79.18 270.355c24.195-48.807 34.507-101.602 41.88-154.95M280.976 244.63c-6.788-6.682-13.39-13.333-20.13-20.073-.594-.594-1.11-1.237-2.1-1.232-3.798.02-7.597.017-11.707.014-1.353-.002-2.74-.003-4.17-.003 1.67 1.67 3.305 3.307 4.925 4.93 5.572 5.582 10.896 10.92 16.273 16.19 1.304 1.28 1.468 1.937.056 3.31-3.86 3.75-7.67 7.554-11.468 11.37-2.47 2.48-4.938 4.963-7.405 7.447-.613.618-1.51 1.067-1.704 2.407 3.612 0 7.17-.003 10.72.005 1.43.003 2.862.002 4.29.013 1.092.008 1.665-.672 2.32-1.327 6.7-6.7 13.368-13.433 20.132-20.07 1.226-1.202 1.125-1.84-.032-2.98"/><path clip-path="url(#b)" d="M331.96 268.828c3.36 0 6.11-2.75 6.11-6.11v-.737c0-3.36-2.75-6.11-6.11-6.11h-33.57c-3.36 0-6.11 2.75-6.11 6.11v.738c0 3.36 2.75 6.11 6.11 6.11h33.57zM296.86 122.622c1.256-1.295 2.356-2.478 3.507-3.61 2.337-2.298 2.428-2.366 4.672-.1 5.06 5.11 7.004 11.233 4.72 18.142-2.362 7.152-7.333 11.53-15.042 12.497-6.465.81-11.624-1.562-15.957-6.19-1.164-1.242-1.464-2.18.08-3.516 1.445-1.253 2.495-2.963 3.938-4.74 3.128 5.402 7.04 7.657 12.353 6.42 4.054-.943 6.572-3.77 7.343-7.823.945-4.97-1.304-8.555-5.612-11.078M206.34 141.528c3.797.174 6.59-1.247 8.694-3.96.738-.953 1.187-1.068 1.966-.124.718.87 1.56 1.64 2.35 2.45 2.568 2.638 2.568 2.638-.346 5.07-6.064 5.057-13.893 5.957-20.506 2.355-6.687-3.643-10.387-10.92-9.345-18.7.624-4.66 3.46-8.06 6.793-11.123.71-.653 1.117-.234 1.59.248 1.078 1.095 2.102 2.253 3.263 3.252 1.31 1.13 1.468 1.77-.087 3.05-5.677 4.672-4.83 12.784 1.517 16.346 1.39.78 2.91.907 4.11 1.135"/></svg>