<svg xmlns="http://www.w3.org/2000/svg" width="230" height="35" viewBox="55 -7.5 230 35"><path fill="#77787B" d="M131.9 16.5c-1.4.5-2.8.8-4.3.8-2 0-3.6-.5-4.7-1.7s-1.8-2.7-1.8-4.6c0-2 .6-3.7 1.9-5s3.1-1.9 5.2-1.9c1 0 2.2.1 3.4.5v2.6c-1.3-.5-2.4-.6-3.6-.6-1.3 0-2.3.4-3.1 1.1-.8.8-1.2 1.8-1.2 3.2 0 1.3.4 2.3 1 3.1.6.8 1.7 1 2.9 1 .6 0 1.2 0 1.5-.1v-4.3h2.7v6h.1zM153.1 17.2h-2.8L149 8.7l-2.7 8.4h-2.4L141.1 9l-1 8.2h-2.7l1.9-12.6h3.1l2.8 8.6 2.9-8.6h3.1l1.9 12.6zM174 6.7h-4.7v3.1h4.5V12h-4.5v5.2h-2.7V4.5h7.4v2.2zM182.3 17.2h-2.7V4.5h2.7v12.7zM199.6 17.2h-3.3l-4.9-8.6v8.6h-2.6V4.5h3.3l4.9 8.6V4.5h2.6v12.7zM216.6 17.2h-2.9l-.9-2.4h-4.7l-.8 2.4h-2.7l4.5-12.6h2.9l4.6 12.6zm-4.3-4.6l-1.8-4.9-1.7 4.9h3.5zM232.4 17.2H229l-4.9-8.6v8.6h-2.6V4.5h3.3l4.9 8.6-.1-8.6h2.6v12.7h.2zM247.2 16.8c-1 .4-2 .5-3.1.5-1.9 0-3.4-.5-4.5-1.7-1-1-1.5-2.6-1.5-4.5 0-2.2.5-3.8 1.7-5.1 1.1-1.3 2.7-1.8 4.7-1.8 1 0 1.8.1 2.6.3v2.4c-.8-.3-1.7-.4-2.7-.4-1.1 0-1.9.4-2.6 1.1-.6.8-.9 1.8-.9 3.1 0 1.4.3 2.4.9 3.2.6.6 1.5 1 2.7 1 .9 0 1.8-.3 2.6-.6v2.4h.1zM255.9 17.2h-2.7V4.5h2.7v12.7zM272.9 17.2H270l-.9-2.4h-4.7l-.8 2.4h-2.7l4.5-12.6h2.9l4.6 12.6zm-4.4-4.6l-1.8-4.9-1.7 4.9h3.5zM285 17.2h-7.2V4.5h2.7v10.4h4.5v2.3z"/><path fill="#0060A8" d="M55-7.5h34.9v34.9H55z"/><path fill="#FFF" d="M63.7 15.9h17.5v2.8H63.7zM72.4 1.3h2.9l1.4 9.6 1.6-9.6h2.9v13.1h-1.9V4.5l-1.7 9.9H76l-1.7-9.9v9.9h-1.9zM68.3 5.4h2v-.9c0-.9 0-3.4-3.3-3.4-3.3-.1-3.3 2.9-3.3 3.4v6.8c0 2 .8 3.3 2.6 3.3 1.2 0 1.9-.6 2-.9v.6h1.9V7.2h-3.1v1.5h1.2v2c0 1-.4 1.8-1.3 1.8-1 0-1.3-.8-1.3-1.8V4.4c0-.5 0-1.7 1.3-1.7s1.3 1.1 1.3 1.7v1z"/><path fill="none" stroke="#77787B" stroke-width="1.568" stroke-miterlimit="10" d="M106.2-7.5v34.9"/></svg>