<svg xmlns="http://www.w3.org/2000/svg" viewBox="0 0 363.3 96"><path d="M119.3 58.2V30.9h18.2v5h-13v5.7h8.2v5h-8.2v11.5h-5.2zm28 0V30.9h5.2v27.2h-5.2zm38.8 0h-4.7l-10.9-15.9c-.4-.7-.8-1.3-1.1-2.1.1.7.1 1.4.1 2.1v15.9h-5.2V30.9h4.9l10.5 15.7c.4.7.8 1.4 1.1 2.1-.1-.7-.1-1.4-.1-2.1V30.9h5.2l.2 27.3zm29.7 0l-2.1-5.6h-10.5l-2.1 5.6h-5.6L205.9 31h5.1l10.4 27.2h-5.6zM212 47.7l-2.7-7.1c-.3-.8-.6-1.6-.9-2.5-.2.8-.5 1.7-.9 2.5l-2.7 7.1h7.2zm40.5 10.5h-4.7L237 42.3c-.4-.7-.8-1.3-1.1-2.1.1.7.1 1.4.1 2.1v15.9h-5.2V30.9h4.9l10.6 15.7c.4.7.8 1.4 1.1 2.1-.1-.7-.1-1.4-.1-2.1V30.9h5.2v27.3zm22.1.4c-8.3 0-11.4-6.9-11.4-14 0-3.1 1.2-14 11.4-14 4.2-.2 8.1 2.3 9.7 6.1l-4.7 2.1c-1.9-2.9-3.5-3.2-5-3.2-2.6 0-6 2-6 9 0 .8.3 9 6 9 1.9 0 3.5-1.2 4.9-3.5l4.8 1.8c-1.9 4.5-5.2 6.7-9.7 6.7zm20.1-.4V30.9h5.2v27.2h-5.2zm35.1 0l-2.1-5.6h-10.5l-2.1 5.6h-5.6L319.9 31h5.1l10.4 27.2h-5.6zM326 47.7l-2.7-7.1c-.3-.8-.6-1.6-.9-2.5-.2.8-.5 1.7-.9 2.5l-2.6 7.1h7.1zm18.9 10.5V30.9h5.2V53h13.1v5.1h-18.3zM96 13.7C96 5.4 90.6 0 82.3 0H13.7C5.4 0 0 5.4 0 13.7v68.6C0 90.6 5.4 96 13.7 96h68.6C90.6 96 96 90.6 96 82.3V13.7zM81.7 89.9H14.3c-5.4 0-8.2-2.8-8.2-8.2V14.3c0-5.4 2.8-8.2 8.2-8.2h67.3c5.4 0 8.2 2.8 8.2 8.2v67.3c.1 5.5-2.7 8.3-8.1 8.3zm-3.5-57.2v25.4h-7V33.7c.1-1.4-1-2.7-2.4-2.8h-4.3v27.2h-7V30.9h-6.7v27.2h-7V24.9h26.6c4.9 0 7.8 3 7.8 7.8zm-39.7-7.8v34.6c0 4.1-1.8 11.6-13.7 11.6h-2.9V65h2.9c4.7-.1 6.6-2.1 6.7-5.5v-1.4h-5.9c-4.1.2-7.6-2.9-7.8-7V32.7c0-4.7 3.1-7.8 7.8-7.8h12.9zm-7 6h-3.9c-1.5-.1-2.7 1.1-2.8 2.5v15.8c-.1 1.5 1.1 2.8 2.6 2.8h4.1V30.9zm12.3 40.2h34.4V65H43.8v6.1z" fill="#0072ce"/></svg>