<svg xmlns="http://www.w3.org/2000/svg" viewBox="0 0 157 66"><path fill="#FFF" d="M98.584 41.61c2.164 0 3.995.849 5.49 2.545 1.54 1.719 2.31 3.783 2.31 6.193 0 2.433-.77 4.498-2.31 6.193-1.495 1.696-3.325 2.545-5.49 2.545h-.003c-1.205 0-2.304-.257-3.297-.77-.993-.514-1.757-1.194-2.293-2.043h-.137l.137 2.277v7.23h-3.08V42.147h2.946v2.277h.136c.536-.848 1.3-1.529 2.294-2.042.993-.514 2.092-.77 3.297-.77zm34.04 0c1.674 0 3.136.419 4.385 1.256 1.25.836 2.188 1.991 2.813 3.465l-2.81 1.172c-.87-2.054-2.399-3.08-4.586-3.08-1.406 0-2.622.569-3.65 1.708-1.003 1.138-1.506 2.544-1.506 4.218 0 1.673.503 3.08 1.507 4.218 1.026 1.138 2.242 1.708 3.649 1.708 2.254 0 3.839-1.027 4.754-3.08l2.745 1.172c-.603 1.473-1.546 2.627-2.83 3.464-1.283.837-2.773 1.255-4.468 1.256l-.003-.001c-2.433 0-4.453-.826-6.06-2.478-1.584-1.695-2.377-3.782-2.376-6.26 0-2.521.792-4.608 2.377-6.26 1.607-1.652 3.626-2.477 6.059-2.477zm16.373 0c2.432 0 4.368.787 5.807 2.36 1.44 1.574 2.159 3.778 2.158 6.612l-.034.335h-12.886c.046 1.607.582 2.901 1.607 3.883 1.026.982 2.253 1.473 3.683 1.473 1.963 0 3.503-.982 4.62-2.946l2.745 1.34a8.179 8.179 0 01-3.064 3.247c-1.306.78-2.784 1.171-4.435 1.172-2.41 0-4.397-.826-5.96-2.478-1.561-1.651-2.342-3.738-2.342-6.26 0-2.5.758-4.58 2.276-6.244 1.518-1.663 3.46-2.494 5.825-2.493zm-111.057 0c2.432 0 4.44.826 6.025 2.478 1.607 1.652 2.41 3.739 2.41 6.26 0 2.544-.803 4.631-2.41 6.26-1.585 1.652-3.593 2.478-6.025 2.478-2.433 0-4.452-.827-6.06-2.48-1.51-1.572-2.3-3.54-2.371-5.903l-.006-.355c0-2.521.793-4.608 2.377-6.26 1.607-1.652 3.627-2.477 6.06-2.477zm43.284-.001c1.451 0 2.762.345 3.934 1.037 1.171.692 1.991 1.618 2.46 2.779l-2.745 1.138a3.458 3.458 0 00-1.523-1.624 4.782 4.782 0 00-2.36-.585 3.957 3.957 0 00-2.16.602c-.637.402-.956.893-.956 1.473 0 .938.882 1.607 2.645 2.009l2.477.636c3.259.803 4.888 2.443 4.888 4.919l.002.004c0 1.429-.625 2.634-1.875 3.616-1.25.981-2.823 1.472-4.72 1.473-1.652 0-3.102-.43-4.352-1.29A7.105 7.105 0 0174.26 54.4l2.745-1.172c.402.983.988 1.747 1.758 2.293a4.27 4.27 0 002.528.82c.982 0 1.802-.212 2.46-.636.656-.424.985-.927.986-1.507 0-1.047-.803-1.817-2.41-2.31l-2.812-.703c-3.19-.803-4.786-2.344-4.787-4.62 0-1.496.609-2.695 1.825-3.6 1.217-.905 2.773-1.356 4.67-1.355zm33.59 0l.004.002c2.277 0 4.074.608 5.39 1.824 1.315 1.216 1.974 2.884 1.975 5.005V58.55h-2.946v-2.278h-.137c-1.272 1.875-2.968 2.813-5.088 2.813-1.808 0-3.32-.536-4.537-1.607-1.217-1.072-1.825-2.41-1.824-4.018 0-1.695.641-3.046 1.924-4.05 1.284-1.005 2.997-1.507 5.14-1.507 1.83 0 3.336.335 4.519 1.005v-.706c0-1.071-.424-1.981-1.272-2.729a4.364 4.364 0 00-2.98-1.121c-1.719 0-3.08.725-4.084 2.176l-2.711-1.708c1.494-2.14 3.703-3.211 6.627-3.211zM63.21 34.58v14.764l7.097-7.198h3.95v.134l-6.394 6.36 6.695 9.776v.134h-3.716l-5.122-7.733-2.51 2.477v5.256h-3.08V34.58h3.08zm-59.997 0l5.055 18.848h.134l5.189-15.634h2.879l5.189 15.634h.133l4.788-18.848h3.213L23.4 58.55h-3.146l-5.156-15.801h-.134l-5.155 15.8H6.662L0 34.58h3.214zm53.217 7.098c.892 0 1.651.133 2.277.401l-.94 2.981c-.38-.156-.983-.234-1.808-.234-1.16 0-2.17.468-3.03 1.406-.859.937-1.288 2.03-1.289 3.28v9.038h-3.08V42.146h2.946v2.678h.137c.312-.87.954-1.612 1.925-2.226.971-.614 1.925-.92 2.862-.92zm58.786 8.707c-1.25 0-2.294.301-3.13.904-.837.602-1.255 1.35-1.253 2.243 0 .803.34 1.473 1.02 2.008.681.536 1.478.804 2.392.804 1.294 0 2.449-.48 3.464-1.44 1.016-.96 1.524-2.086 1.524-3.38-.96-.76-2.3-1.139-4.017-1.14zm-17.135-5.962c-1.495 0-2.745.558-3.75 1.673-.982 1.117-1.473 2.534-1.472 4.252 0 1.74.49 3.17 1.473 4.285 1.002 1.093 2.251 1.64 3.749 1.64 1.473 0 2.712-.557 3.716-1.673 1.002-1.094 1.503-2.51 1.503-4.252 0-1.718-.501-3.135-1.503-4.252-1.002-1.116-2.24-1.674-3.716-1.673zM37.94 44.42c-1.497 0-2.77.558-3.818 1.675-1.027 1.094-1.54 2.51-1.54 4.252l.001-.002c0 1.764.514 3.192 1.54 4.285 1.027 1.093 2.299 1.64 3.817 1.64 1.517 0 2.79-.547 3.816-1.64 1.027-1.093 1.54-2.521 1.54-4.285 0-1.74-.513-3.158-1.54-4.252-1.048-1.115-2.32-1.673-3.816-1.673zm110.989.002c-1.161 0-2.16.357-2.997 1.07-.837.715-1.389 1.675-1.657 2.88h9.407c-.09-1.139-.554-2.082-1.39-2.83-.835-.747-1.956-1.12-3.363-1.12zM99.205 9.663c2.085 0 3.739.927 4.6 1.953h.132v-1.423h3.637v15.686c0 6.454-3.805 9.101-8.304 9.101-4.236 0-6.783-2.846-7.742-5.162l3.343-1.39c.595 1.422 2.05 3.11 4.4 3.11 2.88 0 4.666-1.787 4.666-5.13v-1.257h-.133c-.86 1.06-2.514 1.986-4.599 1.986-4.367 0-8.37-3.806-8.37-8.704 0-4.93 4.003-8.77 8.37-8.77zM38.538 0c4.137 0 7.08 1.622 9.297 3.74L45.22 6.354c-1.59-1.489-3.739-2.648-6.683-2.648-5.459 0-9.727 4.402-9.727 9.862 0 5.461 4.268 9.866 9.727 9.866 3.54 0 5.558-1.423 6.848-2.714 1.052-1.051 1.744-2.56 2.013-4.622l-8.796-.003v-3.707H51.01c.137.75.204 1.51.2 2.273 0 2.78-.76 6.221-3.211 8.67-2.383 2.482-5.426 3.806-9.463 3.806-7.476 0-13.761-6.09-13.761-13.569C24.775 6.09 31.06 0 38.538 0zm22.811 9.663c4.831 0 8.767 3.674 8.767 8.737h-.001c0 5.034-3.938 8.737-8.767 8.737-4.829 0-8.767-3.703-8.767-8.737 0-5.063 3.937-8.737 8.768-8.737zm19.125 0c4.831 0 8.767 3.674 8.767 8.737 0 5.034-3.935 8.737-8.767 8.737-4.832 0-8.767-3.703-8.767-8.737 0-5.063 3.936-8.737 8.767-8.737zm43.689 0c4.533 0 6.75 3.608 7.478 5.56l.396.993-11.682 4.831c.893 1.754 2.283 2.648 4.236 2.648 1.952 0 3.308-.957 4.304-2.416l2.977 1.985c-.956 1.424-3.275 3.873-7.279 3.873-4.963 0-8.668-3.84-8.668-8.737 0-5.192 3.739-8.737 8.238-8.737zm-10.089-8.65v25.594h-3.838V1.013h3.838zM61.349 13.105c-2.647 0-4.93 2.15-4.93 5.295 0 3.11 2.283 5.295 4.93 5.295 2.648 0 4.93-2.186 4.93-5.295 0-3.143-2.283-5.295-4.93-5.295zm19.125 0c-2.647 0-4.93 2.15-4.93 5.295 0 3.11 2.283 5.295 4.93 5.295 2.648 0 4.93-2.186 4.93-5.295 0-3.143-2.283-5.295-4.93-5.295zm19.06 0c-2.647 0-4.864 2.25-4.864 5.328 0 3.045 2.217 5.261 4.864 5.261 2.614 0 4.665-2.217 4.665-5.26 0-3.078-2.05-5.33-4.665-5.33zm24.761-.064c-1.9 0-4.522 1.632-4.567 4.834l.002.261 7.808-3.242c-.43-1.093-1.72-1.853-3.243-1.853z"/></svg>