<svg xmlns="http://www.w3.org/2000/svg" width="68" height="21"><path fill="#0E243F" d="M64.798 1.933h.449c.45 0 .59-.121.59-.373 0-.226-.108-.336-.537-.336h-.502v.709zm0 1.289h-.377V.929h.935c.575 0 .853.203.853.649 0 .415-.267.589-.63.63l.683 1.014h-.392l-.654-.993h-.418v.993zM65.247.41c-.976 0-1.724.71-1.724 1.667 0 .964.748 1.673 1.724 1.673.953 0 1.713-.71 1.713-1.673 0-.956-.76-1.667-1.713-1.667zm0-.323c1.147 0 2.12.842 2.12 1.99 0 1.145-.973 1.99-2.12 1.99-1.16 0-2.131-.845-2.131-1.99 0-1.148.972-1.99 2.13-1.99zM21.043 3.478v13.626c0 1.682.661 2.395 2.465 2.566.21.028.301.142.301.313v.286h-8.748v-.286c0-.171.09-.285.3-.313 1.954-.199 2.435-1.055 2.435-2.566v-6.328c0-.114-.09-.171-.18-.171H6.193c-.091 0-.181.057-.181.171v6.328c0 1.511.481 2.367 2.435 2.566.211.028.301.142.301.313v.286H0v-.286c0-.171.09-.285.3-.313 1.804-.171 2.466-.884 2.466-2.566V3.478C2.766 1.967 2.315 1.112.3.913.09.884 0 .77 0 .599V.314h8.748v.285c0 .171-.09.285-.301.314-1.773.199-2.435.912-2.435 2.565v5.844c0 .085.06.171.181.171h11.423c.12 0 .18-.086.18-.171V3.478c0-1.653-.661-2.366-2.435-2.565-.21-.029-.3-.143-.3-.314V.314h8.748v.285c0 .171-.091.285-.301.314-2.014.199-2.465 1.054-2.465 2.565m15.102 17.104c-6.103 0-11.363-3.25-11.363-9.977C24.782 4.333 29.112 0 36.145 0c2.706 0 5.772.428 8.117.913v4.988h-.42a.35.35 0 0 1-.331-.228C42.127 2.338 39.453.827 36.385.827 32 .827 28.45 3.706 28.45 9.579c0 6.299 3.758 9.692 9.05 9.692 3.336 0 5.56-1.312 6.972-3.107.151-.2.361-.228.572-.115l.3.172c-1.953 2.936-5.019 4.361-9.199 4.361m22.851-.314v-.285c0-.17.09-.285.391-.314 1.322-.085 1.743-.598 1.743-1.367 0-.657-.33-1.398-.812-2.708l-.992-2.737a.35.35 0 0 0-.33-.228H51.6a.352.352 0 0 0-.33.228l-.782 1.91c-.39.998-.962 2.422-.962 3.306 0 1.113.602 1.482 1.985 1.596.21.03.3.143.3.314v.285h-6.705v-.285c0-.17.091-.285.392-.314 1.624-.142 2.014-1.053 4.148-5.644L55.54.086h1.804a.39.39 0 0 1 .36.229l6.613 15.933c.903 2.14 1.534 3.165 3.187 3.421.181.03.27.114.27.285v.314h-8.777zm-.33-9.008l-3.127-7.925c-.03-.084-.06-.114-.09-.114s-.06.03-.092.115l-3.366 7.925c-.06.114 0 .228.151.228h6.373c.15 0 .21-.115.15-.229z" fill-rule="evenodd"/></svg>