<svg xmlns="http://www.w3.org/2000/svg" viewBox="0 0 285 39" width="285" height="39"><style>path {fill: black;} .red {fill: #DF2426;}</style><path class="red" d="M37.29.61H18.61v18.67L37.29.61z"/><path d="M-.06 37.96h18.67V19.3L-.06 37.96z"/><path class="red" d="M37.29 9.35h5.02v11.38h13.03V9.35h5.01v28.61h-5.01v-12.9H42.31v12.9h-5.02V9.35zM65.04 9.35h20.61v4.32H70.06v7.5h14.43v4.09H70.06v8.37h15.87v4.33H65.04V9.35zM98.68 9.35h5.33l11.03 28.61h-5.37l-2.69-7.57H95.55l-2.68 7.57H87.7L98.68 9.35zm-1.76 17.23h8.74l-4.29-12.3h-.12l-4.33 12.3zM111.52 9.35h23.18v4.32h-9.1v24.29h-5.01V13.67h-9.07V9.35z"/><path d="M159.46 30.14c-.47-.76-1.19-1.41-2.13-1.94-.93-.53-2.3-1.04-4.08-1.53-1.73-.47-3.01-1.02-3.78-1.63-.74-.59-1.12-1.35-1.12-2.28 0-1.01.42-1.83 1.25-2.46.85-.64 2.02-.96 3.47-.96 1.49 0 2.69.39 3.56 1.17.87.77 1.31 1.81 1.31 3.08v.23h2.13v-.23c0-1.15-.3-2.2-.89-3.13-.59-.94-1.43-1.68-2.5-2.2-1.06-.52-2.27-.78-3.61-.78-1.97 0-3.62.49-4.9 1.46-1.29.98-1.95 2.28-1.95 3.86 0 1.62.71 2.95 2.1 3.94.96.69 2.49 1.33 4.54 1.91 2 .56 3.39 1.16 4.13 1.77.71.59 1.07 1.41 1.07 2.42 0 1.06-.42 1.88-1.3 2.52-.89.64-2.09.97-3.57.97-1.66 0-3.01-.39-4.01-1.16-.97-.76-1.47-1.8-1.47-3.11v-.23h-2.11v.23c0 1.19.31 2.27.94 3.2.62.92 1.54 1.65 2.74 2.16 1.18.51 2.5.77 3.91.77 2.07 0 3.77-.49 5.05-1.46 1.3-.98 1.95-2.29 1.95-3.91 0-1.03-.24-1.93-.73-2.68zM163.07 27.5c0-1.89.36-3.59 1.1-5.1.73-1.51 1.76-2.68 3.1-3.52 1.34-.84 2.85-1.26 4.54-1.26 2.62 0 4.74.91 6.36 2.74s2.43 4.26 2.43 7.28v.46c0 1.89-.37 3.6-1.1 5.12-.73 1.52-1.76 2.69-3.09 3.51-1.34.82-2.85 1.23-4.56 1.23-2.6 0-4.71-.91-6.34-2.75-1.63-1.83-2.44-4.26-2.44-7.28v-.43zm2.18.6c0 2.34.6 4.27 1.82 5.77 1.22 1.51 2.81 2.26 4.78 2.26 1.96 0 3.55-.75 4.77-2.26 1.21-1.5 1.82-3.49 1.82-5.96v-.41c0-1.5-.28-2.87-.84-4.12-.55-1.24-1.33-2.21-2.34-2.89-1-.68-2.15-1.03-3.45-1.03-1.93 0-3.51.76-4.73 2.28-1.22 1.52-1.83 3.5-1.83 5.96v.4zM186.64 37.6V19.76h-3.25v-1.78h3.25V15.6c0-2 .51-3.55 1.53-4.62 1.02-1.08 2.45-1.61 4.28-1.61.82 0 1.59.1 2.3.3l-.16 1.8c-.61-.15-1.27-.22-1.98-.22-1.2 0-2.13.37-2.79 1.12-.67.74-1 1.8-1 3.17v2.44h4.68v1.78h-4.68V37.6h-2.18zM200.76 12.96v5.02h4.06v1.78h-4.06v13.08c0 1.09.19 1.9.59 2.44.39.53 1.05.79 1.97.79.36 0 .94-.05 1.75-.18l.09 1.76c-.56.21-1.34.31-2.32.31-1.48 0-2.57-.43-3.24-1.3-.68-.86-1.02-2.13-1.02-3.81V19.76h-3.61v-1.78h3.61v-5.02h2.18zM214.02 33.08l.33 1.69.43-1.78 4.72-15.01h1.85l4.66 14.89.51 2.06.42-1.9 4.03-15.05h2.25L227.5 37.6h-1.85l-5.04-15.56-.24-1.07-.24 1.09-4.95 15.54h-1.85l-5.7-19.62h2.23l4.16 15.1zM249.73 37.6c-.22-.62-.36-1.53-.42-2.74-.76.99-1.73 1.76-2.91 2.29-1.18.54-2.43.81-3.75.81-1.89 0-3.41-.52-4.58-1.58-1.17-1.05-1.75-2.38-1.75-3.98 0-1.92.8-3.43 2.39-4.54 1.59-1.11 3.8-1.67 6.65-1.67h3.93v-2.23c0-1.4-.43-2.5-1.29-3.31-.87-.8-2.13-1.2-3.79-1.2-1.51 0-2.76.38-3.75 1.16-.99.77-1.49 1.7-1.49 2.79l-2.18-.02c0-1.56.73-2.91 2.18-4.05 1.45-1.14 3.24-1.71 5.35-1.71 2.19 0 3.92.54 5.18 1.64 1.26 1.09 1.92 2.62 1.95 4.58v9.28c0 1.9.2 3.32.6 4.26v.22h-2.32zm-6.82-1.56c1.45 0 2.74-.35 3.89-1.05 1.14-.7 1.97-1.64 2.49-2.81v-4.32h-3.88c-2.16.02-3.86.42-5.08 1.19-1.22.77-1.83 1.82-1.83 3.16 0 1.1.41 2.02 1.22 2.74.82.73 1.88 1.09 3.19 1.09zM266.31 19.83c-.46-.09-.95-.13-1.47-.13-1.35 0-2.5.38-3.44 1.13-.93.76-1.6 1.86-2 3.29V37.6h-2.16V17.98h2.12l.04 3.12c1.15-2.32 2.99-3.48 5.53-3.48.61 0 1.09.07 1.44.23l-.06 1.98zM277 37.96c-1.67 0-3.18-.41-4.53-1.23-1.35-.82-2.4-1.97-3.15-3.44s-1.12-3.11-1.12-4.94v-.78c0-1.88.37-3.58 1.1-5.09.73-1.52 1.75-2.7 3.05-3.57 1.31-.86 2.73-1.29 4.25-1.29 2.38 0 4.27.81 5.67 2.43 1.4 1.63 2.1 3.85 2.1 6.67v1.21h-14.01v.42c0 2.23.64 4.08 1.91 5.56 1.28 1.48 2.89 2.22 4.82 2.22 1.16 0 2.19-.21 3.07-.63.9-.43 1.7-1.11 2.43-2.03l1.36 1.03c-1.6 2.31-3.91 3.46-6.95 3.46zm-.4-18.5c-1.63 0-3.01.6-4.13 1.8-1.12 1.2-1.8 2.81-2.04 4.82h11.78v-.23c-.06-1.89-.6-3.42-1.62-4.61-1.01-1.18-2.34-1.78-3.99-1.78z"/></svg>