<svg xmlns="http://www.w3.org/2000/svg" xmlns:xlink="http://www.w3.org/1999/xlink" viewBox="0 0 40 40"><defs><path id="a" d="M0 0h40.44v40.22H0z"/></defs><g fill="none" fill-rule="evenodd"><mask id="b" fill="#fff"><use xlink:href="#a"/></mask><use fill="#FFF" xlink:href="#a"/><g fill="#6A778B" mask="url(#b)" opacity=".5"><path d="M38.187 11.12c-1.037 1.03-2.077 2.064-3.113 3.099-.136.127-.301.232-.488.245-.26.02-.518-.211-.497-.473.009-.258.23-.456.234-.718.008-.165-.12-.287-.225-.401-2.195-2.18-4.387-4.363-6.582-6.546-.123-.118-.259-.266-.446-.253-.276.004-.484.257-.764.228-.161.004-.293-.123-.373-.253-.11-.229-.009-.503.157-.672 1.027-1.022 2.055-2.044 3.078-3.066.038-.042.106-.08.144-.017 2.96 2.94 5.92 5.883 8.875 8.826m.224 5.106c.166.156.047.468-.173.502-.204.03-.361-.13-.519-.236-.42-.287-.917-.558-1.443-.47a3.216 3.216 0 0 1-.391-.404c.327-.313.641-.634.96-.95.526.515 1.048 1.034 1.566 1.558m-4.742-.613c-1.091 1.081-2.179 2.17-3.27 3.252-.14.14-.318.266-.526.266a.484.484 0 0 1-.48-.405c-.03-.296.246-.516.238-.811-.013-.14-.11-.254-.204-.355-1.906-1.892-3.809-3.788-5.715-5.68 1.575 2.91 3.163 5.811 4.738 8.72.026.043.047.09.068.14-.114.106-.225.22-.335.333-3.155-1.545-6.305-3.108-9.456-4.657-.497-.245-.99-.532-1.55-.6-.187-.025-.314.127-.45.224-.14.11-.327.177-.5.122-.21-.092-.353-.338-.29-.561.043-.152.149-.279.26-.389 1.018-1.009 2.033-2.023 3.052-3.028 1.588.773 3.18 1.529 4.773 2.302.05.038.106.076.153.127.025-.03.046-.06.072-.09l-.06.01c-.836-1.584-1.715-3.147-2.551-4.73 1.052-1.04 2.093-2.082 3.142-3.121a.74.74 0 0 1 .42-.22c.284-.042.582.233.526.52-.038.253-.25.456-.233.722.042.186.195.313.318.443 2.17 2.154 4.34 4.303 6.501 6.461.119.106.238.245.408.245.254 0 .45-.19.692-.232.28-.046.556.228.522.507-.017.19-.132.354-.263.485m.352 2.631c-.055.422.09.84.31 1.195.115.203.28.376.382.587.055.101.017.216-.021.317a5.436 5.436 0 0 1 1.38 1.334c.429.604.73 1.322.713 2.074.005.713-.305 1.398-.76 1.938-.123-.127-.267-.24-.373-.384.02-.156.097-.309.06-.465-.043-.202-.2-.346-.34-.485-1.122-1.111-2.238-2.222-3.355-3.332-.11-.11-.242-.211-.4-.224a1.002 1.002 0 0 0-.432.072 16.484 16.484 0 0 1-.39-.38c.564-.482 1.298-.79 2.05-.752.289-.008.569.06.85.122-.34-.35-.701-.68-1.028-1.038.318-.317.64-.634.96-.955.14.114.263.25.394.376m4.256 18.261c.723 0 1.341.56 1.341 1.317 0 .765-.618 1.324-1.341 1.324-.73 0-1.348-.56-1.348-1.324 0-.758.618-1.317 1.348-1.317m-4.456-9.769c-.683.03-1.354-.211-1.923-.566a4.922 4.922 0 0 1-1.104-.945 2.07 2.07 0 0 1-.119 1.511c-.229.456-.586.828-.938 1.187-.128-.127-.26-.258-.39-.384.11-.178.182-.389.114-.596-.08-.21-.255-.363-.408-.523-.314-.317-.632-.634-.95-.95-.187-.174-.387-.372-.655-.389-.157-.017-.297.063-.428.14-.132-.128-.26-.258-.391-.385.51-.511 1.091-1.039 1.838-1.132.612-.101 1.227.16 1.66.579-.271-.54-.441-1.149-.381-1.761.05-.642.335-1.254.76-1.736.123.127.254.254.381.38-.046.152-.118.313-.076.473.026.144.123.258.225.36 1.121 1.11 2.234 2.225 3.354 3.335.132.127.26.279.447.33.17.046.343-.013.509-.064.127.127.259.254.382.389-.535.439-1.201.747-1.907.747m-2.458 3.391c-.598.587-1.189 1.183-1.787 1.77-.132.143-.378.071-.46-.089-.118-.199.205-.41.035-.591-1.231-1.22-2.463-2.445-3.69-3.67-.089-.08-.165-.181-.272-.236-.182-.051-.327.1-.496.122-.132-.013-.26-.127-.251-.262-.013-.147.098-.262.191-.359.565-.557 1.13-1.119 1.69-1.676.51.473.99.98 1.49 1.465.952.95 1.907 1.9 2.862 2.85.068.056.132.132.221.148.183.017.327-.16.51-.126.11.038.212.143.2.266 0 .165-.14.278-.243.388m-3.809 3.767c-.123-.13-.254-.258-.382-.388.455-.558.518-1.364.212-2.006-.055-.152-.173-.338-.063-.49.09-.135.306-.156.412-.03.458.46.925.917 1.38 1.381-.523.507-1.023 1.039-1.559 1.533m-2.008 2.019a.859.859 0 0 1-.301.185c-.107-.038-.238-.076-.272-.194-.064-.198.144-.355.119-.549-.085-.165-.234-.283-.361-.414l-3.095-3.078c-.183-.17-.336-.372-.552-.499-.217-.042-.412.233-.62.085-.179-.114-.128-.367.008-.494.586-.591 1.18-1.17 1.766-1.757.951.933 1.89 1.884 2.845 2.817.73.722 1.452 1.452 2.187 2.17-.569.583-1.155 1.149-1.724 1.728m-2.552 2.533a16.468 16.468 0 0 1-.386-.384c.076-.144.165-.296.14-.465-.043-.253-.217-.46-.39-.633l-2.867-2.85c-.195-.19-.416-.397-.705-.419-.157-.016-.297.064-.428.14-.123-.135-.293-.237-.37-.405.467-.478 1.104-.811 1.78-.853.755-.064 1.507.206 2.13.616.489.325.943.701 1.291 1.17.417.553.671 1.229.675 1.925a2.996 2.996 0 0 1-.87 2.158m-6.874-8.45c-1.49-.325-2.803-1.216-3.851-2.301-.968-1.01-1.75-2.247-2.026-3.628a5.035 5.035 0 0 1 .204-2.765c.234-.647.603-1.238 1.04-1.766.217.22.446.431.658.655.043.135-.067.262-.089.397-.11.363.034.76.302 1.022 2.064 2.056 4.131 4.109 6.2 6.165.199.215.44.418.747.465.271.042.539-.051.79-.144.228.228.458.452.687.68a5.799 5.799 0 0 1-1.703 1.017 5.2 5.2 0 0 1-2.96.203m.162 2.91l-3.29 3.273c-.145.139-.323.261-.531.261a.473.473 0 0 1-.471-.49c.025-.253.237-.455.241-.717-.008-.156-.131-.275-.229-.385-.976-.975-1.957-1.942-2.93-2.913-.038-.03-.089-.114-.144-.055-.34.325-.667.667-1.006.992-.23-.228-.459-.456-.688-.688.327-.342.667-.676 1.01-1.005 0-.017.005-.055.005-.072-.922-.9-1.826-1.812-2.743-2.72-.14-.13-.272-.295-.467-.341-.268-.018-.476.19-.726.236-.323.055-.616-.308-.506-.608.055-.211.225-.363.374-.507 1.062-1.06 2.127-2.111 3.184-3.171a.779.779 0 0 1 .472-.228c.293-.017.56.287.48.57-.064.215-.221.405-.23.637.017.203.187.347.323.482l6.539 6.503c.102.097.216.194.36.207.247 0 .438-.182.672-.237.28-.055.56.199.547.478-.008.19-.114.363-.246.498M3.645 16.402c.306-.287.59-.595.9-.878.157.059.255.236.382.346-.068.49.166.95.442 1.334.08.123.178.237.23.376.054.186-.128.38-.315.36-.106 0-.178-.09-.246-.153-.463-.464-.93-.92-1.393-1.385m1.333-1.322c.476-.464.943-.933 1.414-1.402.892.891 1.788 1.782 2.684 2.67.492.485.972.979 1.469 1.456.14.156.327.025.48-.03.152-.067.33.068.326.229 0 .11-.063.202-.135.278-.578.57-1.147 1.14-1.72 1.71-.08.08-.183.16-.301.152-.132.013-.26-.114-.247-.24.009-.135.115-.245.115-.38.009-.114-.09-.186-.157-.262-1.355-1.339-2.696-2.69-4.055-4.025.042-.054.08-.105.127-.156M6.83 13.24c.254-.245.5-.498.755-.747.446.43.884.878 1.33 1.313.076.084.17.16.212.27.05.207-.187.435-.395.342-.208-.093-.374-.257-.574-.367-.335-.207-.725-.338-1.125-.291-.114-.119-.242-.229-.344-.355.034-.068.09-.114.14-.165m1.232-1.22c.552-.55 1.104-1.098 1.651-1.647.06-.055.115-.11.187-.152.128-.08.319-.03.378.114.06.173-.097.32-.102.49-.004.088.068.152.123.21 1.177 1.17 2.348 2.34 3.525 3.506.212.228.484-.165.713.004.149.118.098.35-.03.46-.552.554-1.108 1.098-1.656 1.651-.089.085-.178.186-.301.224-.136.038-.302-.046-.319-.19-.025-.169.128-.3.12-.464a.483.483 0 0 0-.12-.186 1226.27 1226.27 0 0 1-3.333-3.315c-.106-.097-.195-.22-.335-.27-.153-.009-.28.105-.429.122-.127.004-.238-.11-.242-.232-.013-.131.08-.237.17-.325m12.394 8.006c1.023 1.03 1.838 2.323 2.115 3.763.153.79.118 1.617-.11 2.39a5.777 5.777 0 0 1-1.147 2.077c-.221-.232-.463-.447-.675-.684 0-.113.072-.21.093-.32.115-.372 0-.79-.285-1.06-2.097-2.09-4.203-4.181-6.3-6.271-.192-.195-.434-.35-.71-.372-.225-.03-.446.05-.658.127-.085.046-.14-.06-.195-.102-.17-.181-.357-.346-.527-.532l-.004-.05a5.667 5.667 0 0 1 1.94-1.086c.846-.27 1.763-.3 2.633-.122 1.478.312 2.786 1.174 3.83 2.242m3.77 3.763c.081-.275.192-.553.145-.84-.068-.482-.344-.908-.65-1.276-1.15-1.148-2.305-2.293-3.46-3.446-.179-.185-.374-.354-.544-.553.196.063.374.16.557.253.683.33 1.363.672 2.05 1.006.06.03.115.075.166.122.577.583 1.159 1.157 1.74 1.736.315.333.71.59 1.139.751.301.114.64.114.942.009.153-.051.319-.11.48-.06.162.064.28.224.293.397-.013.233-.161.427-.318.587a134.08 134.08 0 0 1-1.571 1.559c-.14.126-.302.257-.497.278-.28.043-.556-.253-.471-.523m1.023 5.422c-.11.013-.213-.055-.31-.097-.39-.19-.84-.283-1.27-.173-.271.055-.51.207-.747.346-.127-.13-.255-.262-.386-.388.505-.495.998-1.006 1.511-1.491.455.456.913.908 1.367 1.364.153.147-.008.371-.165.439m-.39 1.292c-.052-.215-.196-.393-.268-.595-.068-.173.093-.376.276-.347a.459.459 0 0 1 .208.135c.446.448.896.887 1.337 1.335.145.148.331.275.391.486-.055.092-.115.219-.242.232-.208.02-.361-.144-.548-.211a.917.917 0 0 0-.82.004c-.135-.135-.267-.27-.403-.401.094-.199.136-.427.068-.638M10.396 9.696c.556-.561 1.121-1.11 1.678-1.668.084-.088.178-.181.3-.211.124-.025.277.05.294.186.03.148-.08.27-.11.414-.018.114.076.194.144.27 1.134 1.127 2.263 2.255 3.397 3.378.076.072.157.16.267.186.136-.013.25-.101.382-.13.162-.018.31.155.26.307-.022.114-.111.199-.188.28-.551.548-1.103 1.097-1.656 1.642-.097.097-.225.198-.369.164a.32.32 0 0 1-.178-.177c-.043-.186.157-.338.11-.524-.042-.071-.102-.126-.157-.186-.518-.51-1.032-1.03-1.554-1.54-.183.185-.365.367-.552.548-.127-.122-.255-.245-.374-.376.187-.181.37-.367.556-.549-.458-.447-.912-.903-1.367-1.355-.097-.093-.182-.194-.297-.262-.208-.068-.408.224-.607.064-.161-.115-.11-.343.021-.46m2.259-2.125a.433.433 0 0 1 .14-.262c.544-.545 1.096-1.08 1.635-1.634.624.6 1.227 1.22 1.843 1.824.963.955 1.923 1.917 2.891 2.872a207.51 207.51 0 0 1-1.664 1.655c-.115.127-.344.182-.454.026-.136-.144.012-.321.055-.47.05-.11-.038-.206-.11-.282-1.113-1.102-2.221-2.205-3.33-3.31-.101-.094-.186-.208-.31-.271-.17-.038-.301.114-.467.122-.127-.012-.246-.139-.229-.27m3.465-3.577c.437.423.862.85 1.29 1.276.14.135.013.363-.144.418-.131.017-.246-.072-.365-.114-.459-.224-1.027-.25-1.486-.005-.119.051-.216.152-.344.174-.127-.102-.233-.228-.352-.338.458-.482.942-.933 1.4-1.41m2.578 3.834c.017.13-.11.257-.246.245-.178 0-.314-.14-.476-.199a.858.858 0 0 0-.76.008c-.123-.122-.246-.249-.373-.363.055-.185.106-.384.06-.578-.035-.22-.188-.389-.256-.591a.249.249 0 0 1 .191-.33c.11-.017.2.068.276.14.459.456.918.916 1.38 1.368.081.088.196.169.204.3m.565-.009c-.047-.135-.149-.291-.06-.426.077-.14.294-.157.395-.038.43.43.867.861 1.3 1.292-.484.486-.968.967-1.461 1.448-.11-.126-.259-.228-.344-.376.14-.236.289-.477.327-.755a1.9 1.9 0 0 0-.157-1.145M33.43 3.167c.085-.156.246-.3.437-.274.213.017.366.19.506.33.849.848 1.698 1.693 2.547 2.537.162.157.353.309.39.541.022.24-.199.456-.432.481-.195.005-.374-.101-.544-.194-.36-.211-.768-.38-1.197-.359-.221-.004-.433.085-.633.173-.233-.249-.5-.473-.722-.73.068-.19.158-.372.17-.574.03-.46-.157-.9-.39-1.284-.12-.19-.213-.427-.132-.647m5.061 2.129c.174-.08.382-.013.51.118.48.473.95.955 1.435 1.427V-.008h-2.44c-1.078-.001-2.157-.002-3.236 0-.459 0-.918.002-1.377.004.489.494.985.98 1.478 1.474.106.097.166.258.102.393-.077.194-.242.388-.463.4-.225-.02-.412-.155-.611-.24-.527-.228-1.104-.376-1.678-.317-.637.047-1.222.33-1.74.685-.225-.233-.463-.452-.688-.689.569-.57 1.146-1.136 1.71-1.706l-1.529-.004c-1.53-.002-3.061 0-4.593 0H.002c0 10.443-.004 20.89 0 31.333.934-.941 1.885-1.87 2.82-2.812.135-.14.314-.253.513-.266.289-.021.556.287.476.57-.064.224-.238.422-.23.668.051.206.225.346.37.49 2.157 2.144 4.314 4.294 6.475 6.44.106.1.225.214.382.227.246 0 .442-.186.68-.232.284-.06.573.224.534.506-.025.245-.2.431-.369.592L8.94 40.206h11.494c.06-.118.132-.27.025-.388-.233-.27-.505-.507-.755-.769-.998-.992-1.996-1.98-2.99-2.977-.085-.076-.178-.169-.297-.16-.136.029-.25.118-.386.135-.153-.009-.298-.157-.272-.313.055-.16.183-.274.297-.393.544-.527 1.07-1.072 1.618-1.596 1.673 1.668 3.346 3.332 5.023 4.996l-1.478 1.465h19.218V21.098c-.518.515-1.04 1.03-1.558 1.55-.09.093-.208.186-.348.16-.158-.004-.276-.181-.221-.33.038-.126.136-.244.119-.384-.051-.126-.162-.21-.255-.308-1.108-1.098-2.212-2.196-3.316-3.294-.306-.316-.633-.608-.926-.937.556-.532 1.096-1.081 1.643-1.626 1.38 1.355 2.743 2.728 4.119 4.088.127.122.242.266.395.363.114.055.238-.021.348-.06V8.882c-.57.57-1.147 1.132-1.707 1.706-.25-.207-.459-.46-.705-.671.06-.102.123-.203.191-.3.255-.401.425-.862.484-1.33a3.64 3.64 0 0 0-.34-2.019c-.097-.22-.207-.46-.144-.705a.545.545 0 0 1 .276-.266"/><path d="M38.645 37.482c0-.188-.171-.223-.333-.223h-.316v.471h.277c.197 0 .372-.014.372-.248"/><path d="M37.764 37.063h.583c.362 0 .54.133.54.433 0 .272-.171.391-.396.42l.436.67h-.26l-.404-.66h-.267v.66h-.232v-1.523zm.513 1.861c.6 0 1.074-.468 1.074-1.103 0-.625-.474-1.097-1.074-1.097a1.07 1.07 0 0 0-1.082 1.097c0 .635.474 1.103 1.082 1.103zM1.042 32.91c-.157-.148-.297-.346-.522-.388-.187-.005-.348.1-.518.168-.004 2.505 0 5.013 0 7.517h7.547c.076-.159.172-.318.18-.498-.02-.186-.173-.317-.292-.448-2.132-2.116-4.26-4.235-6.395-6.35"/></g></g></svg>