<svg xmlns="http://www.w3.org/2000/svg" viewBox="-88 180.3 433.7 433.7"><path fill="#4987CE" d="M128.9 613.2c-2.1 0-4.3 0-6.4-.1l44.1-121.3h60.8c10.7 0 22.4-8.2 26-18.2L301.2 342c7.8-21.5-4.5-39.2-27.4-39.2h-84.3l-70.7 194.3-40.1 110.2C-16.4 584.7-87.2 499.2-87.2 397.2c0-99.1 66.7-182.6 157.7-208L29.2 302.8l-68.8 188.9H6.2l58.5-160.5h34.4L40.6 491.7h45.8L140.8 342c7.8-21.5-4.5-39.2-27.4-39.2H75l44.2-121.4c3.2-.1 6.5-.2 9.7-.2 119.3 0 216 96.7 216 216 0 119.2-96.8 216-216 216zm130.6-282.1h-34.4L177 463.2h34.4l48.1-132.1z"/></svg>