<svg xmlns="http://www.w3.org/2000/svg" viewBox="0 0 623.6 183.78"><defs><style>.cls-1,.cls-2{fill:#fff}.cls-1{opacity:.95}</style></defs><g id="layer"><path class="cls-1" d="M0 72.83h83.95v110.95H0z"/><path class="cls-2" d="M610.14 97.1v-.64c0-9.77-3.3-18.48-9.31-24.53a28.47 28.47 0 00-20.74-8.27c-17.28 0-30.32 14-30.32 32.46 0 19 12.75 32.72 30.32 32.72 12.33 0 22.28-6 28-16.91l.14-.26-5.63-3.25-.14.28c-4.7 8.84-12.57 13.9-21.57 13.9a24.31 24.31 0 01-17.69-7.09c-4.4-4.51-6.79-10.84-6.79-17.9v-.51zm-29.91-27.2c13.18 0 21.72 10.74 23.2 20.95h-46.94c1.26-11.58 11.81-20.95 23.74-20.95zM378.33 64.68h-50.24v5.93h21.43V128h7.69V70.61h21.42v-5.93zM396.27 64.68h-7.37V128h7.68V64.68zM168.35 112.88c5.87 8.37 11.13 10.52 19.28 10.52 7.9 0 13.89-5.14 13.89-11.85 0-18.08-36.64-7.9-36.64-30 0-11.73 9.22-17 19.76-17s17 4.07 21.42 11.26l-5.5 3.83c-4.2-5.75-8.74-9.34-16.17-9.34-6.93 0-12.33 3.35-12.33 10.89 0 15.21 36.64 6.23 36.64 30.41 0 11.14-10.3 17.6-21.55 17.6-9.58 0-18.2-3.83-24.06-12.57zM285.27 112.88c5.87 8.37 11.14 10.52 19.28 10.52 7.9 0 13.89-5.14 13.89-11.85 0-18.08-36.64-7.9-36.64-30 0-11.73 9.22-17 19.76-17s17 4.07 21.43 11.26l-5.51 3.83c-4.2-5.75-8.74-9.34-16.16-9.34-6.95 0-12.33 3.35-12.33 10.89 0 15.21 36.63 6.23 36.63 30.41 0 11.14-10.29 17.6-21.55 17.6-9.57 0-18.2-3.83-24.06-12.57zM539.85 64.58h-6.2v46.77c0 6.05-4.44 11-9.9 11h-24c-5.45 0-9.89-4.92-9.89-11V64.58h-6.51v46.77c0 9.64 7.36 17.49 16.4 17.49h24c9 0 16.4-7.85 16.4-17.49V64.58zM265.48 66.58v23.91c0 6-4.44 11-9.89 11h-24c-5.45 0-9.89-4.92-9.89-11V66.58h-6.51v23.91c0 9.64 7.35 17.48 16.4 17.48h8.15v20h7.68V108h8.15c9 0 16.4-7.84 16.4-17.48V66.58zM457 122.06c9.86-4.33 15.06-16.44 15.06-26.53 0-19.1-13.2-32.44-32.1-32.44s-32.09 13.34-32.09 32.44C407.85 114 422.14 128 441.1 128h34.83v-5.93zm-16.06 0c-15.17 0-26.61-11.4-26.61-26.53 0-15.86 10.3-26.51 25.63-26.51s25.64 10.65 25.64 26.51c-.02 13.19-8.49 26.53-24.68 26.53zM526.31 16.97h9.81V26h-9.81zM419.28 16.97h9.81V26h-9.81z"/><path class="cls-2" d="M408.21 28.83V16.97h-10.07v33.3h9.94V37.46h11.2v12.81h9.81V28.83h-20.88zM540.46 16.97h29.2v9.09h-29.2zM550.7 37.39h14.04v-8.45h-24.28v21.18h29.2v-8.79H550.7v-3.94zM454.79 16.96h9.84v9.01h-9.84zM433.56 16.96h9.96v9.01h-9.96zM454.72 35.67a5.61 5.61 0 01-11.16 0V29h-10v6.75c0 8 5.7 14.54 12.74 14.54h5.58c7 0 12.74-6.51 12.74-14.54V29h-9.9zM500.61 26v-9h-18.06C476.9 17 472 20.25 469 26zM484.91 28.82v8.64h5.47v3.85h-5.15c-5.15 0-7.51-4.17-7.51-9.31a15.14 15.14 0 01.31-3.07h-9.77a14.84 14.84 0 00-.25 2.76v3.87a14.61 14.61 0 0014.54 14.69h18.07V28.82zM605.08 35.58a9.45 9.45 0 00-8.42-6.65h-22.89a10 10 0 009.23 8.49h11.1a2 2 0 01-.06 3.92h-20.49v8.81h22.73c5.23 0 9.47-4.76 9.47-10.64a11.79 11.79 0 00-.67-3.93zm-15.84 1.18zM604.76 17h-20.94a10.16 10.16 0 00-10.1 9h31zM505.17 16.97h10.07v9.07h-10.07zM515.24 28.83v-.01h-10.07v21.45h9.94V37.46h11.2v12.81h9.81V28.83h-20.88zM616 64.1v.83h-2.36v6.18h-1v-6.18h-2.36v-.83zM616.85 64.1h1.38l2 5.93 2-5.93h1.36v7h-.92V67v-.71-1.06l-2 5.91h-1l-2-5.91v5.91h-.92z"/><path class="cls-1" d="M15.36 0h95.12v126H15.36z"/><path class="cls-1" d="M40.13 33.03h95.12v122.05H40.13z"/></g></svg>