<svg xmlns="http://www.w3.org/2000/svg" width="1000" height="400"><path d="M0 0v27.367h194.648V0H0zm222.227 0v27.367H499.61S471.275 0 433.75 0H222.227zm331.796 0v27.367h167.813L711.876 0H554.022zm288.125 0l-9.96 27.367h166.29V0h-156.33zM0 53.222V80.59h194.648V53.22H0zm222.227.04v27.327h309.57s-3.616-21.064-9.922-27.33H222.227zm331.796 0v27.327h186.21l-9.217-27.33H554.023zm268.204 0l-9.22 27.327h185.47V53.26h-176.25zm-766.29 53.182v27.406h84.297v-27.406H55.937zm222.227 0v27.406h84.297v-27.406h-84.296zm166.29 0v27.406h84.296s5.352-14.473 5.352-27.406h-89.65zm165.507 0v27.406h149.454l-9.96-27.406H609.96zm193.907 0l-10 27.406h150.196v-27.406H803.866zm-747.93 53.26v27.368h84.297v-27.367H55.937zm222.227 0v27.368h215.313s18.01-14.042 23.75-27.367H278.164zm331.797 0v27.368h84.298v-15.234l5.35 15.234h154.415l5.743-15.234v15.234h84.297v-27.367H785.82l-8.398 23.18-8.438-23.18H609.96zM55.938 212.93v27.367h84.297v-27.367H55.937zm222.227 0v27.367h239.063c-5.74-13.282-23.75-27.367-23.75-27.367H278.164zm331.797 0v27.367h84.298v-27.367H609.96zm99.61 0l10.196 27.367h115.78l9.688-27.367H709.57zm150.196 0v27.367h84.297v-27.367h-84.297zM55.936 266.15v27.367h84.298V266.15H55.937zm222.228 0v27.367h84.297V266.15h-84.296zm166.29 0v27.367H534.1c0-12.916-5.352-27.367-5.352-27.367h-84.297zm165.507 0v27.367h84.298V266.15H609.96zm118.75 0l9.884 27.367h77.617l9.962-27.367h-97.46zm131.056 0v27.367h84.297V266.15h-84.297zM1.523 319.372v27.406h194.65v-27.406H1.522zm220.704 0v27.406h299.648c6.306-6.276 9.922-27.406 9.922-27.406h-309.57zm333.32 0v27.406h138.71v-27.406h-138.71zm192.344 0l10.157 27.406h39.492l9.53-27.406h-59.18zm111.876 0v27.406H1000v-27.406H859.766zM1.523 372.632V400h194.65v-27.367H1.522zm220.704 0v27.33H433.75c37.526 0 65.86-27.33 65.86-27.33H222.226zm333.32 0V400h138.71v-27.367h-138.71zm211.6 0l9.767 27.29 1.68.04 9.922-27.33h-21.368zm92.62 0V400H1000v-27.367H859.766z" fill="#1f70c1"/></svg>