<svg version="1.1" id="Livello_1" xmlns="http://www.w3.org/2000/svg" x="0" y="0" viewBox="0 0 288.1 96.9" xml:space="preserve"><style>.st1{fill:#fefefe}</style><g id="Livello_x0020_1"><path d="M263.7 0H0v96.9h263.7c13.5 0 24.4-10.9 24.4-24.4V24.4c0-13.5-10.9-24.4-24.4-24.4z" fill="#c42b37"/><path class="st1" d="M89.3 79.7h7.3V17.2h-7.3zM186.6 72.3c-13.4 0-23.4-9.6-23.4-23.9 0-14.1 10-23.9 23.4-23.9 13.3 0 23.4 9.8 23.4 23.9.1 14.3-10 23.9-23.4 23.9zm0-55c-17.2 0-31.1 13.1-31.1 31.2 0 4.5.9 8.8 2.5 12.5-3.6 6.5-10.6 10.8-18.7 11.4-13.4.9-23.9-8.1-24.9-22.3-.9-14.1 8.6-24.4 21.7-25.3 6-.4 11.7 1.4 16.1 4.7l-4.7-10.7c-3.7-1.1-7.7-1.6-11.8-1.3-17.2 1.1-30.1 15.1-28.9 33.1 1.2 18 15.9 30.1 33.1 29 9.2-.6 17.1-4.9 22.4-11.5 5.7 7.1 14.5 11.5 24.4 11.5 17.2 0 31.1-13.1 31.1-31.1s-14-31.2-31.2-31.2zM250.2 44.1c-8-2.5-16-4.3-16-10.7 0-6.2 5.6-9.6 13.2-9.6 6.6 0 12.1 3.5 14.1 9.5h7.6c-2.2-9.6-10.6-16-21.5-16-12.1 0-21 7-21 16.4 0 10.2 9.6 13.4 16.7 15.6 8.3 2.6 19 4.9 19 13.1 0 6.1-5.4 10.5-14 10.5-9.3 0-15.1-5.7-16-12.6h-7.7c2.1 12.1 10.6 19.3 23.3 19.3 13.2 0 21.9-7.4 21.9-17.5.1-12.2-11.1-15.4-19.6-18z"/></g></svg>