<svg xmlns="http://www.w3.org/2000/svg" width="185" height="48" viewBox="0 0 185 48">
  <g fill="none" fill-rule="evenodd">
    <path fill="#FFF" d="M50.1,4.7 C46.2,1.7 41.3,0 36.1,0 C30.9,0 26,1.7 22.1,4.7 L50.1,4.7 Z M58.9,18.9 C58.6,17.4 58.1,15.9 57.5,14.6 L14.5,14.6 C13.9,16 13.5,17.5 13.2,19 L58.9,18.9 Z M20.5,40.3 C24.6,44 30.1,46.3 36.1,46.3 C42.1,46.3 47.7,44.1 51.8,40.3 L20.5,40.3 Z M52.9,39.1 C54.3,37.7 55.8,35.9 57,33.7 L15.1,33.7 C16.5,35.7 17.8,37.5 19.4,39.1 L52.9,39.1 Z M57.6,32 C58.3,30.4 58.8,29.4 59.1,27.7 L13.4,27.7 C13.7,29.2 14.1,30.6 14.7,32 L57.6,32 Z M59.2,25.4 C59.3,24.6 59.3,23.9 59.3,23.1 C59.3,22.4 59.3,21.8 59.2,21.1 L13,21.1 C13,22.4 12.9,22.2 12.9,23.1 C12.9,23.8 12.9,24.9 13,25.4 L59.2,25.4 Z M56.2,11.4 C55.4,10 54.5,8.7 53.4,7.6 L18.9,7.6 C17.8,8.8 16.8,10.1 16,11.4 L56.2,11.4 Z"/>
    <path fill="#004B85" stroke="#FFF" stroke-width="1.019" d="M43.4,1.7 L70.7,1.7 L43.4,1.7 L43.4,1.7 Z M52.7,7.9 L70.3,7.9 L52.7,7.9 L52.7,7.9 Z M56.8,15 L70.3,15 L56.8,15 Z M58.9,21.6 L70.5,21.6 L58.9,21.6 Z M58.5,28.1 L70.5,28.1 L58.5,28.1 Z M55.9,34.1 L70.5,34.1 L55.9,34.1 Z M50.5,40.7 L70.8,40.7 L50.5,40.7 Z M20,38.7 L0.7,38.7 L20,38.7 Z M13.7,25.1 L0.9,25.1 L13.7,25.1 Z M13.9,18.5 L1.2,18.5 L13.9,18.5 Z M16.9,10.9 L1.2,10.9 L16.9,10.9 Z M23.9,4.3 L1.3,4.3 L23.9,4.3 Z"/>
    <path fill="#FFF" d="M83,6.3 C82.9,1.6 77.8,2.9 77.8,1.4 C77.8,0.8 77.9,0.7 78.4,0.7 C80.8,0.7 83.1,1 85.5,1 C87.5,1 89.5,0.7 91.5,0.7 C92.5,0.7 92.7,0.8 92.7,1.3 C92.7,2.9 88,1.4 88,6.2 L88,41 C88,45.4 93.8,43.9 93.8,45.9 C93.8,46.4 93.6,46.5 92.5,46.5 C91,46.5 88.2,46.2 85.4,46.2 C81.5,46.2 80.1,46.5 79.2,46.5 C78,46.5 77.8,46.2 77.8,45.5 C77.8,43.6 82.8,45.8 82.8,39.4 L82.8,6.3 L83,6.3 L83,6.3 Z M101.4,7.6 C101.4,1 96.1,3.1 96.1,1.3 C96.1,0.8 96.6,0.7 97,0.7 C99,0.7 100.9,1 102.8,1 C107.1,1 111.3,0.7 116.8,0.7 C128.3,0.7 139.5,9.4 139.5,21.3 C139.5,36.2 132.4,46.5 114.5,46.5 C111.2,46.5 107.9,46.2 104.6,46.2 C104,46.2 97.8,46.5 97.4,46.5 C96.9,46.5 96.8,46.2 96.8,45.9 C96.8,44.4 101.4,46 101.4,39.9 L101.4,7.6 L101.4,7.6 Z M106.6,37.2 C106.6,38.2 106.4,41.3 107,41.9 C109.1,44 114.1,44.8 117,44.8 C126.2,44.8 134.9,39.9 134.9,24.9 C134.9,10.5 125.3,2.4 113,2.3 C106.9,2.3 106.6,3.3 106.6,6.4 L106.6,37.2 L106.6,37.2 Z M164.6,0.1 C176.8,0.1 180.1,5.1 182,5.1 C182.5,5.1 182.9,4.5 183.6,4.5 C184.3,4.5 184.3,5.5 184.5,9.7 C184.6,13.1 185.2,15.3 184.1,15.3 C183.3,15.3 182.9,13.6 182.6,13.2 C178.6,6.3 174,2.1 165.6,2.1 C153,2 147,10.4 147,22.5 C147,33.8 153.5,45 165.9,45 C176.1,45 182.4,38.5 183.4,35.6 C183.5,35.1 183.9,34.8 184.3,34.8 C184.6,34.8 184.9,35.2 184.9,35.5 L183.4,42 C183.3,42.3 178.7,47.1 164.2,47.1 C150.9,47.1 141.4,38 141.4,24.6 C141.4,11.2 151,0.1 164.6,0.1 Z"/>
    <path fill="#004B85" stroke="#FFF" stroke-width="1.019" d="M15.4,31.6 L0.8,31.6 L15.4,31.6 Z"/>
  </g>
</svg>
