<svg id="Layer_1" xmlns="http://www.w3.org/2000/svg" viewBox="0 0 187.1 80.1"><style>.st0{fill-rule:evenodd;clip-rule:evenodd;fill:#004B85;} .st1{fill-rule:evenodd;clip-rule:evenodd;fill:#004B85;stroke:#004B85;stroke-width:1.019;stroke-miterlimit:2.6131;}</style><path class="st0" d="M51.1 4.7c-3.9-3-8.8-4.7-14-4.7-5.2 0-10.1 1.7-14 4.7h28zM59.9 18.9c-.3-1.5-.8-3-1.4-4.3h-43c-.6 1.4-1 2.9-1.3 4.4l45.7-.1zM21.5 40.3c4.1 3.7 9.6 6 15.6 6s11.6-2.2 15.7-6H21.5zM53.9 39.1c1.4-1.4 2.9-3.2 4.1-5.4H16.1c1.4 2 2.7 3.8 4.3 5.4h33.5zM58.6 32c.7-1.6 1.2-2.6 1.5-4.3H14.4c.3 1.5.7 2.9 1.3 4.3h42.9zM60.2 25.4c.1-.8.1-1.5.1-2.3 0-.7 0-1.3-.1-2H14c0 1.3-.1 1.1-.1 2 0 .7 0 1.8.1 2.3h46.2zM57.2 11.4c-.8-1.4-1.7-2.7-2.8-3.8H19.9c-1.1 1.2-2.1 2.5-2.9 3.8h40.2z"/><path class="st1" d="M44.4 1.7h27.3-27.3zM53.7 7.9h17.6-17.6zM57.8 15h13.5-13.5zM59.9 21.6h11.6-11.6zM59.5 28.1h12-12zM56.9 34.1h14.6-14.6zM51.5 40.7h20.3-20.3zM21 38.7H1.7 21zM14.7 25.1H1.9h12.8zM14.9 18.5H2.2h12.7zM17.9 10.9H2.2h15.7zM24.9 4.3H2.3h22.6z"/><path class="st0" d="M84 6.3c-.1-4.7-5.2-3.4-5.2-4.9 0-.6.1-.7.6-.7 2.4 0 4.7.3 7.1.3 2 0 4-.3 6-.3 1 0 1.2.1 1.2.6 0 1.6-4.7.1-4.7 4.9V41c0 4.4 5.8 2.9 5.8 4.9 0 .5-.2.6-1.3.6-1.5 0-4.3-.3-7.1-.3-3.9 0-5.3.3-6.2.3-1.2 0-1.4-.3-1.4-1 0-1.9 5 .3 5-6.1V6.3h.2zM102.4 7.6c0-6.6-5.3-4.5-5.3-6.3 0-.5.5-.6.9-.6 2 0 3.9.3 5.8.3 4.3 0 8.5-.3 14-.3 11.5 0 22.7 8.7 22.7 20.6 0 14.9-7.1 25.2-25 25.2-3.3 0-6.6-.3-9.9-.3-.6 0-6.8.3-7.2.3-.5 0-.6-.3-.6-.6 0-1.5 4.6.1 4.6-6V7.6zm5.2 29.6c0 1-.2 4.1.4 4.7 2.1 2.1 7.1 2.9 10 2.9 9.2 0 17.9-4.9 17.9-19.9 0-14.4-9.6-22.5-21.9-22.6-6.1 0-6.4 1-6.4 4.1v30.8zM165.6.1c12.2 0 15.5 5 17.4 5 .5 0 .9-.6 1.6-.6.7 0 .7 1 .9 5.2.1 3.4.7 5.6-.4 5.6-.8 0-1.2-1.7-1.5-2.1-4-6.9-8.6-11.1-17-11.1C154 2 148 10.4 148 22.5c0 11.3 6.5 22.5 18.9 22.5 10.2 0 16.5-6.5 17.5-9.4.1-.5.5-.8.9-.8.3 0 .6.4.6.7l-1.5 6.5c-.1.3-4.7 5.1-19.2 5.1-13.3 0-22.8-9.1-22.8-22.5S152 .1 165.6.1z"/><path class="st1" d="M16.4 31.6H1.8h14.6z"/><path class="st0" d="M9.3 64.9c-.6 0-.7-.1-.5-.4l3.7-5.3c.8-1.1.9-1.3 1-1.3.1 0 .1.3.1.7l-.4 5.8c0 .5-.1.5-.5.5H9.3zm6.9 7.4c-1.4-.2-1.5-.2-1.3-3.1l.5-10.1c.1-2.3.3-3.5.3-3.9 0-.1-.2-.2-.3-.2-.1 0-1 .7-1.9.9-.1.5-.5 1.1-1.6 2.7l-4.7 6.6c-2 2.9-3.6 5-4.4 6-.5.6-1.1 1-1.9 1.1l-.7.1c-.2.1-.2.5-.1.7C1 73 2 73 3 73c1.1 0 1.9 0 2.7.1.2-.1.3-.5.1-.7l-1-.2c-.5-.1-.6-.2-.6-.4 0-.1.3-.5 1.2-2l1.9-3c.6-.8.6-.8 1.4-.8h3.8c.6 0 .6.1.6.7l-.2 3.6c-.1 1.1-.2 1.5-.3 1.6-.1.2-.5.4-1 .4l-.8.1c-.2.1-.2.6 0 .7.8-.1 1.8-.1 3.1-.1 1.2 0 2.2 0 3 .1.2-.1.3-.5.1-.7l-.8-.1zM21.6 67.9c2-2.8 4.6-5.7 6.6-5.7 1 0 1.5.6 1.5 1.4 0 .4-.2 1.3-.4 1.9-.5 1.3-2.4 5.7-2.5 5.9-.1.3-.1.5.1.5.5 0 1.7-.9 2.5-1.8.4-.1.4.2.4.4-1 1.7-3.1 3-4.6 3-.2 0-.6-.3-.6-.7 0-.2.1-.4.6-1.8.6-1.3 1.5-3.9 2.2-5.2.2-.5.6-1.4.6-1.9 0-.3 0-.6-.4-.6-.6 0-2.2 1.3-3.7 3.2-1.4 1.8-2.5 3.8-4.1 6.8-.1.2-.2.3-.5.3s-1-.1-.8-.7c.1-.3 3-8 3.1-8.4.1-.3.1-.6-.1-.6-.6 0-1.5.6-2.4 1.3-.2 0-.3-.2-.3-.4 1-1.4 2.6-2.5 4-2.5.6 0 .9.5.7 1.1l-1.9 4.5zM38.2 63.5c.7 0 1.1.5 1.3 1-.4 1.5-1.5 3.8-3.5 5.7-1.5 1.4-2.3 1.7-2.6 1.7-.2 0-.4-.2-.4-.5 0-1.9 1.6-5.4 3.3-6.9.8-.7 1.3-1 1.9-1zm2-.3c-.1-.3-.4-.5-.5-.6-.2-.1-.3-.2-.6-.2-.7 0-1.4.2-2.4.8-1.1.6-2.2 1.7-3.5 3.4-1.8 2.4-2.3 4.5-2.3 5.2 0 .7.4 1.5 1.2 1.5 1.3 0 4-1.8 5.9-4.2h.1L37 71.6c-.2.6-.3.9-.3 1 0 .2.2.7.8.7 1.5 0 3.4-1.5 4.5-3 0-.2-.2-.3-.4-.3-1.5 1.3-2.3 1.8-2.7 1.8-.2 0-.3-.2-.2-.6.9-2.4 3.2-8.3 3.6-9.3-.2-.3-.9-.6-1.3-.4l-.8 1.7zM45.3 71.2c-.2.6-.2.9.1.9.6 0 1.8-1.3 3.1-2.7.3 0 .4.1.4.4-.7 1.3-2.4 3.5-4.6 3.5-.8 0-1-.4-1-.8s.1-.9.6-2.3l4.2-12.6c.6-1.9.4-2.1 0-2.3l-.5-.2c-.1-.1-.1-.3 0-.4.5-.2 2.1-.7 3.4-.8l.1.2c-.3 1-.6 1.7-1.6 4.6l-4.2 12.5z"/><path class="st0" d="M54.4 66.6c0 1.7 0 3.6-.4 5.9h.1c.9-1.3 1.7-3 2.2-4.6.6-1.5 1-4.2 1-4.9.1-.8.5-.8.6-.8.2 0 .5.1.7.2.2.1.2.2.2.5 0 .7-.7 4.1-3.1 8.1-1.3 2.2-2.3 4-4.4 6.4-2 2.3-3.3 2.7-4.2 2.7-.9 0-1.4-.6-1.4-1.2 0-.7.5-1.1 1.1-1.1.3 0 .5.2.7.4.1.1.3.5.7.5.3 0 .8-.2 1.5-.7.7-.6 1.8-2.2 2.3-4 .4-1.4.6-3.8.5-6.1-.1-3-.5-4-1-4s-1 .9-1.5 2c-.3.1-.5-.1-.5-.3.6-1.8 1.7-3.4 3-3.4 1.6-.1 1.8 2.6 1.9 4.4zM59.9 70.7c2.4-2.2 4-3.7 6.5-6 .3-.3.2-.4-.3-.6-1.2-.4-2.3-.5-3-.5-1 0-1.1.7-1.1 1 0 .4.2.8.4 1 0 .3-.3.7-.9.7-.7 0-1-.5-1-1 0-.6.5-1.3 1.2-1.9 1-.9 2.2-1.1 2.8-1.1.5 0 1.2.1 1.7.3.6.2 1.3.5 1.9.5.9 0 1.3-.6 1.6-.9.4-.1.7.2.7.5-1.5 1.4-5.3 4.7-8.7 8.1v.1c1.3-.1 2.3.5 3.3 1 .6.3 1.2.5 1.7.5.6 0 1.2-.5 1.2-1.2 0-.3-.1-.7-.3-1.3-.2-.7.3-.8.5-.8.7 0 1.1.8 1.1 1.4 0 .7-.6 1.7-1.4 2.3-.9.7-1.5.9-2.1.9-.7 0-1.6-.4-2.2-.7-1-.4-1.9-1-2.6-1-.9 0-1.3.5-1.5 1.4-.9.1-1-.5-1-.7 0-.5.3-.9 1.5-2zM77.1 62.9c.5 0 .6.3.6.6 0 .2-.2 1-1 1.8-1 .9-1.8 1.4-3.6 2 .3-.8.9-2 2-3.1.9-1 1.6-1.3 2-1.3zm.5-.8c-.8 0-1.8.2-3.2 1.3-2.9 2.2-4 5.5-4 7.2 0 1.3.6 2.8 2.2 2.8 1.1 0 2.6-.4 4.3-2.4.1-.2-.1-.5-.3-.5-1.2 1-1.8 1.5-2.8 1.5-.7 0-1.3-.6-1.3-1.5 0-1.1.2-1.9.4-2.4 3.8-1.1 6.5-2.4 6.5-4.4-.1-.7-.7-1.6-1.8-1.6zM91.2 63.8l-2.4 7c-.2.5 0 .7.2.7.4 0 2.2-1.4 3-2.4.3 0 .4.2.4.5-1.5 2.2-4 3.8-5.1 3.8-.4 0-.7-.4-.7-.7 0-.3.1-.7.4-1.5l2.5-7.3h-2.1c-.1-.3 0-.6.3-.7l2.1-.4 1.5-2.6c.3-.2.8-.1 1 .2l-.8 2.6h2.9c.2.3 0 .8-.3 1h-2.9v-.2zM98.6 57.7c.6-1.8.7-2.1.3-2.4l-.6-.4c-.1-.1-.1-.2.1-.3.4-.2 2.2-.6 3.1-.6l.1.2c-.5 1.5-1.4 3.9-1.9 5.4l-2.7 8 .1.1c1.9-2.6 3.2-3.7 4.2-4.4 1-.7 1.8-1 2.5-1 1.2 0 1.6.9 1.6 1.8 0 1.8-1.1 4.5-2.1 6.2-.5.9-1 1.5-1.7 2.2-.9.9-1.6 1-1.9 1-.9 0-1-.6-1-.8 0-.5.4-.9.7-.9.1 0 .2.1.4.2.2.2.5.3.7.3.4 0 .7-.4 1.1-1.3.7-1.7 1.9-5.4 1.9-6.9 0-.5-.2-.8-.6-.8-.4 0-.9.3-1.4.7-1.1.9-2 1.7-3.4 3.5-1.2 1.6-2.5 4.2-3.2 5.5-.1.2-.2.3-.5.3s-1-.1-.8-.7l5-14.9zM113.1 62.9c.5 0 .6.3.6.6 0 .2-.2 1-1 1.8-1 .9-1.8 1.4-3.6 2 .3-.8.9-2 2-3.1 1-1 1.7-1.3 2-1.3zm.6-.8c-.8 0-1.8.2-3.2 1.3-2.9 2.2-4 5.5-4 7.2 0 1.3.6 2.8 2.2 2.8 1.1 0 2.6-.4 4.3-2.4.1-.2-.1-.5-.3-.5-1.2 1-1.8 1.5-2.8 1.5-.7 0-1.3-.6-1.3-1.5 0-1.1.2-1.9.4-2.4 3.8-1.1 6.5-2.4 6.5-4.4-.2-.7-.8-1.6-1.8-1.6zM127.8 59.2c.8-2.5.8-2.9-.6-3.1l-.5-.1c-.2-.2-.1-.6.2-.7.5 0 .9.1 1.4.1h6.4c1.7 0 3 0 3.8-.1-.2.5-.8 2.6-1.1 3.5-.1.2-.6.2-.7 0 .2-1.4.2-2-.9-2.4-.6-.2-1.4-.2-2.8-.2h-1.5c-.7 0-.8.1-1 .9l-1.8 5.8c-.2.6-.1.7.4.7h1.8c2.5 0 3.1-.2 3.6-1.3l.5-.8c.1-.2.6-.1.7.1-.2.5-.6 1.5-.9 2.5-.3 1-.6 2-.7 2.7-.2.2-.5.2-.7 0v-1c0-.9-.6-1.2-2.7-1.2h-2c-.6 0-.6.1-.9.7l-1.2 3.8c-.8 2.5-.9 3.1.5 3.2l1 .1c.2.2.1.6-.1.7-1.5-.1-2.5-.1-3.6-.1s-2 0-3 .1c-.2-.1-.2-.5 0-.7l.8-.1c1.3-.1 1.5-.5 2.4-3.2l3.2-9.9zM138.6 70.7c-.2.6-.1.9.2.9.4 0 1.5-.9 2.8-2.2 2.4-2.4 3.8-5.5 4.7-7.1.6-.1 1.2.2 1.3.5-.3.7-2 5.1-3.1 8.2-.1.3-.2.7.1.7.5 0 1.9-1.2 2.6-2.1.2-.1.5.1.5.4-.7 1.3-3.2 3.4-4.7 3.4-.4 0-.8-.5-.7-.9l1.8-4.9h-.1c-1.9 2.4-5.2 5.8-6.7 5.8-1.1 0-1.2-1.1-.8-2.3l2.4-6.5c.2-.5.2-.8 0-.8-.5 0-1.9 1.2-2.5 1.8-.3.1-.5-.2-.5-.4.7-1.1 3.4-3.2 4.6-3.2.3 0 1 .3.8.8l-2.7 7.9zM153.8 63.8l-2.4 7c-.2.5 0 .7.2.7.4 0 2.2-1.4 3-2.4.3 0 .4.2.4.5-1.5 2.2-4 3.8-5.1 3.8-.4 0-.7-.4-.7-.7 0-.3.1-.7.4-1.5l2.5-7.3H150c-.1-.3 0-.6.3-.7l2.1-.4 1.5-2.6c.3-.2.8-.1 1 .2l-.8 2.6h2.9c.2.3 0 .8-.3 1h-2.9v-.2zM159.3 70.7c-.2.6-.1.9.2.9.4 0 1.5-.9 2.8-2.2 2.4-2.4 3.8-5.5 4.7-7.1.6-.1 1.2.2 1.3.5-.3.7-2 5.1-3.1 8.2-.1.3-.2.7.1.7.5 0 1.9-1.2 2.6-2.1.2-.1.5.1.5.4-.7 1.3-3.2 3.4-4.7 3.4-.4 0-.8-.5-.7-.9l1.8-4.9h-.1c-1.9 2.4-5.2 5.8-6.7 5.8-1.1 0-1.2-1.1-.8-2.3l2.4-6.5c.2-.5.2-.8 0-.8-.5 0-1.9 1.2-2.5 1.8-.3.1-.5-.2-.5-.4.7-1.1 3.4-3.2 4.6-3.2.3 0 1 .3.8.8l-2.7 7.9zM174.2 64.6L173 68h.1c.8-1.5 2.1-3.6 2.8-4.5.6-.8 1.3-1.4 1.9-1.4.9 0 1.1.9 1.1 1.3s-.2 1.2-.6 1.6c-.3.4-.7.4-.9-.1-.1-.7-.3-1-.6-1-.2 0-.5.3-.9.8-1.6 2.1-3.1 5.3-4.5 8.4-.1.2-.2.3-.5.3s-1.1-.1-.9-.7c.3-1.1 2-5.8 2.7-8.4.1-.3 0-.6-.2-.6-.7 0-1.4.7-1.9 1.4-.3.1-.5-.1-.4-.4.9-1.4 1.9-2.6 3.1-2.6 1.6 0 1.1 1.8.9 2.5zM184.9 62.9c.5 0 .6.3.6.6 0 .2-.2 1-1 1.8-1 .9-1.8 1.4-3.6 2 .3-.8.9-2 2-3.1.9-1 1.6-1.3 2-1.3zm.5-.8c-.8 0-1.8.2-3.2 1.3-2.9 2.2-4 5.5-4 7.2 0 1.3.6 2.8 2.2 2.8 1.1 0 2.6-.4 4.3-2.4.1-.2-.1-.5-.3-.5-1.2 1-1.8 1.5-2.8 1.5-.7 0-1.3-.6-1.3-1.5 0-1.1.2-1.9.4-2.4 3.8-1.1 6.5-2.4 6.5-4.4-.1-.7-.7-1.6-1.8-1.6z"/></svg>