<svg xmlns="http://www.w3.org/2000/svg" viewBox="0 0 571.1 215.4"><path fill="#FF7231" d="M7.5 81.2c0-1.8.6-3.4 1.9-4.7 1.3-1.3 2.9-2 4.8-2 1.8 0 3.4.6 4.7 1.9 1.3 1.3 2 2.9 2 4.7 0 1.9-.7 3.5-2 4.8-1.3 1.3-2.9 2-4.7 2-1.9 0-3.5-.7-4.8-2-1.2-1.3-1.9-2.9-1.9-4.7z"/><g fill="#8A8C8E"><path d="M8.8 145.4v-37H0v-9.9h20v47h8.8v9.9H0v-9.9h8.8zM44.6 145.4v-37h-9.5v-9.9h20.6v7.2c6.7-5.4 13.3-8.1 19.8-8.1s11 3 13.4 8.9c7.4-5.9 14.3-8.9 20.7-8.9 3.7 0 6.7.8 9.1 2.4 2.4 1.6 4 3.7 4.8 6.2.8 2.5 1.2 6.2 1.2 11v28.2h9.9v9.9h-21.1v-36.1c0-3.3-.1-5.6-.4-7-.3-1.4-1-2.5-2.2-3.4-1.2-.9-2.6-1.3-4.3-1.3-4.8 0-10.2 2.4-16.3 7.3v30.5h9.8v9.9h-21V118c0-3.7-.5-6.4-1.6-8.1-1.1-1.7-2.9-2.5-5.5-2.5-4.2 0-9.7 2.4-16.3 7.3v30.5h10v9.9H34.4v-9.9h10.2zM197.7 145.4v9.9h-19.5v-6.9c-5.4 5.2-11.4 7.9-18.1 7.9-5.2 0-9.7-1.7-13.5-5.1-3.8-3.4-5.7-7.7-5.7-12.9 0-5.3 2-9.7 6.1-13.2s8.9-5.2 14.7-5.2c5.3 0 10.5 1.6 15.5 4.8v-5.6c0-2.9-.3-5.1-.8-6.7-.5-1.6-1.8-3-3.8-4.2-2-1.3-4.7-1.9-7.9-1.9-5.6 0-9.7 2.2-12.2 6.7l-10.7-2.8c4.7-8.9 12.9-13.3 24.6-13.3 4.3 0 8 .6 11.1 1.7 3.1 1.2 5.4 2.6 7 4.5 1.5 1.8 2.6 3.8 3.1 5.9.5 2.1.8 5.5.8 10.1v26.3h9.3zm-20.6-11.2c-4.8-3.8-9.7-5.6-14.6-5.6-3.1 0-5.7.9-7.8 2.7-2.1 1.8-3.1 4.1-3.1 7 0 2.7.9 4.9 2.7 6.7 1.8 1.8 4.3 2.7 7.4 2.7 5.4 0 10.5-2.3 15.3-6.8v-6.7zM273.1 98.4v9.9h-10.2v42.4c0 5.7-.3 10-.9 12.7-.6 2.8-2 5.6-4.3 8.5-2.2 2.9-5.6 5.3-10.1 7.3s-9.5 2.9-15.1 2.9c-8.4 0-15.9-2.5-22.5-7.6l7.3-8.1c4.9 3.8 10.3 5.8 16.1 5.8 3.2 0 6.2-.6 8.9-1.8 2.7-1.2 4.8-2.7 6.1-4.5 1.4-1.8 2.2-3.4 2.6-5 .4-1.6.6-4.3.6-8v-5.2c-1.8 2.2-4.5 4.3-8.3 6.3-3.8 2-7.9 3-12.3 3-8.1 0-14.8-2.8-19.9-8.5-5.1-5.6-7.7-12.6-7.7-20.8 0-9 2.8-16.3 8.5-21.8s12.2-8.3 19.7-8.3 14.2 3 20.1 9v-8.1h21.4zm-57.7 29.1c0 5.8 1.7 10.5 5 14.1 3.3 3.6 7.6 5.5 12.8 5.5 5.1 0 9.5-1.8 13.2-5.5 3.7-3.7 5.5-8.4 5.5-14.1 0-5.8-1.8-10.5-5.5-14.1-3.7-3.5-8-5.3-12.8-5.3-4.9 0-9.1 1.8-12.8 5.3-3.6 3.4-5.4 8.1-5.4 14.1zM287.2 145.4v-37h-8.8v-9.9h20v47h8.8v9.9h-28.8v-9.9h8.8zM334 98.4v6.9c7.2-5.2 13.7-7.8 19.6-7.8 3.7 0 6.7.9 9.1 2.6 2.4 1.7 4 3.9 4.7 6.4.7 2.5 1.1 6.2 1.1 11.1v27.7h9.6v9.9h-20.7V118c0-4.3-.6-7.1-1.9-8.4-1.3-1.3-2.9-2-4.8-2-4.9 0-10.5 2.4-16.7 7.2v30.4h9.8v9.9h-31v-9.9h10v-37h-10v-9.9H334zM443.2 129.7h-47.8c.7 5.2 2.8 9.5 6.2 12.8 3.5 3.3 7.9 4.9 13.2 4.9 7.8 0 14-3.1 18.5-9.4l9.9 4.3c-3.2 5-7.4 8.7-12.5 11.1-5.1 2.4-10.5 3.6-16.1 3.6-8.7 0-16.1-2.7-22.3-8.1-6.2-5.4-9.3-12.7-9.3-22 0-8.7 3-15.9 9-21.6 6-5.6 12.9-8.5 20.7-8.5 7.6 0 14.6 2.8 20.8 8.3 6.2 5.5 9.4 13.7 9.7 24.6zm-11.5-8.1c-.8-4-2.9-7.6-6.2-10.8-3.4-3.2-7.5-4.8-12.4-4.8-4.5 0-8.3 1.5-11.5 4.4-3.2 2.9-5.1 6.7-5.8 11.3h35.9z"/></g><g fill="#6FB4DA"><path d="M313.8 183.4l-2.8 1.7c-2.4-3.2-5.7-4.8-9.8-4.8-3.3 0-6 1.1-8.2 3.2-2.2 2.1-3.3 4.7-3.3 7.7 0 2 .5 3.8 1.5 5.6 1 1.7 2.4 3.1 4.1 4 1.7 1 3.7 1.4 5.9 1.4 4 0 7.2-1.6 9.8-4.8l2.8 1.8c-1.3 2-3 3.5-5.2 4.5-2.2 1.1-4.7 1.6-7.5 1.6-4.3 0-7.8-1.4-10.7-4.1-2.8-2.7-4.2-6-4.2-9.9 0-2.6.7-5.1 2-7.3 1.3-2.3 3.1-4 5.4-5.3 2.3-1.3 4.9-1.9 7.7-1.9 1.8 0 3.5.3 5.2.8 1.7.6 3.1 1.3 4.2 2.1 1.3 1.2 2.2 2.3 3.1 3.7zM333.3 177c4.2 0 7.6 1.5 10.4 4.5 2.5 2.8 3.7 6 3.7 9.8 0 3.8-1.3 7.1-4 9.9-2.6 2.8-6 4.2-10.2 4.2-4.2 0-7.6-1.4-10.2-4.2-2.6-2.8-4-6.1-4-9.9 0-3.8 1.2-7 3.7-9.8 2.9-2.9 6.4-4.5 10.6-4.5zm0 3.5c-2.9 0-5.4 1.1-7.5 3.2-2.1 2.1-3.1 4.7-3.1 7.8 0 2 .5 3.8 1.4 5.5 1 1.7 2.2 3 3.9 3.9 1.6.9 3.4 1.4 5.3 1.4s3.7-.5 5.3-1.4c1.6-.9 2.9-2.2 3.8-3.9.9-1.7 1.4-3.5 1.4-5.5 0-3-1-5.6-3.1-7.8s-4.6-3.2-7.4-3.2zM353.8 177.7h3.5v4.9c1.4-1.9 2.9-3.2 4.6-4.2 1.7-.9 3.5-1.4 5.5-1.4s3.8.5 5.4 1.5c1.6 1 2.7 2.4 3.5 4.2.7 1.7 1.1 4.5 1.1 8.1v13.9H374v-12.9c0-3.1-.1-5.2-.4-6.2-.4-1.8-1.2-3.1-2.3-4-1.1-.9-2.6-1.4-4.5-1.4-2.1 0-4 .7-5.7 2.1-1.7 1.4-2.8 3.1-3.3 5.2-.3 1.3-.5 3.8-.5 7.4v9.9h-3.5v-27.1zM398.6 180.7l-2.2 2.3c-1.9-1.8-3.7-2.7-5.5-2.7-1.1 0-2.1.4-2.9 1.1-.8.7-1.2 1.6-1.2 2.6 0 .9.3 1.7 1 2.5s2.1 1.8 4.2 2.9c2.6 1.3 4.4 2.6 5.3 3.9.9 1.3 1.4 2.7 1.4 4.3 0 2.2-.8 4.1-2.4 5.6-1.6 1.5-3.5 2.3-5.9 2.3-1.6 0-3.1-.3-4.5-1s-2.6-1.6-3.5-2.8l2.2-2.5c1.8 2 3.7 3 5.7 3 1.4 0 2.6-.4 3.6-1.3s1.5-2 1.5-3.2c0-1-.3-1.9-1-2.7-.6-.8-2.1-1.7-4.4-2.9-2.4-1.3-4.1-2.5-5-3.7-.9-1.2-1.3-2.6-1.3-4.2 0-2.1.7-3.8 2.1-5.1 1.4-1.4 3.2-2 5.3-2 2.4-.1 4.9 1.2 7.5 3.6zM404.3 177.7h3.5v12.7c0 3.1.2 5.2.5 6.4.5 1.7 1.4 3 2.9 3.9 1.4 1 3.1 1.4 5 1.4s3.6-.5 5-1.4c1.4-.9 2.3-2.2 2.8-3.7.3-1 .5-3.3.5-6.6v-12.7h3.6V191c0 3.7-.4 6.6-1.3 8.4-.9 1.9-2.2 3.4-3.9 4.4-1.8 1.1-3.9 1.6-6.6 1.6-2.6 0-4.8-.5-6.6-1.6-1.8-1.1-3.1-2.6-4-4.5-.9-1.9-1.3-4.8-1.3-8.7v-12.9zM435.2 167.3h3.5v37.6h-3.5v-37.6zM449 167.7h3.5v10.1h5.5v3h-5.5v24.1H449v-24.1h-4.8v-3h4.8v-10.1zM464.5 166.6c.8 0 1.5.3 2 .8.6.6.8 1.2.8 2s-.3 1.5-.8 2c-.6.6-1.2.8-2 .8s-1.4-.3-2-.8c-.6-.6-.8-1.2-.8-2s.3-1.5.8-2 1.2-.8 2-.8zm-1.8 11.1h3.5v27.1h-3.5v-27.1zM473.5 177.7h3.5v4.9c1.4-1.9 2.9-3.2 4.6-4.2 1.7-.9 3.5-1.4 5.5-1.4s3.8.5 5.4 1.5c1.6 1 2.7 2.4 3.5 4.2.7 1.7 1.1 4.5 1.1 8.1v13.9h-3.5v-12.9c0-3.1-.1-5.2-.4-6.2-.4-1.8-1.2-3.1-2.3-4-1.1-.9-2.6-1.4-4.5-1.4-2.1 0-4 .7-5.7 2.1-1.7 1.4-2.8 3.1-3.3 5.2-.3 1.3-.5 3.8-.5 7.4v9.9h-3.5v-27.1zM527.9 177.7h3.5v21.6c0 3.8-.3 6.6-1 8.3-.9 2.5-2.5 4.4-4.8 5.8-2.3 1.3-5 2-8.1 2-2.3 0-4.4-.3-6.3-1-1.8-.7-3.3-1.5-4.5-2.6-1.2-1.1-2.2-2.7-3.2-4.9h3.8c1 1.8 2.4 3.1 4 4 1.6.9 3.7 1.3 6.1 1.3 2.4 0 4.4-.4 6-1.3 1.6-.9 2.8-2 3.5-3.3.7-1.3 1-3.5 1-6.5v-1.4c-1.3 1.7-2.9 2.9-4.8 3.8-1.9.9-3.9 1.3-6 1.3-2.5 0-4.8-.6-7-1.9-2.2-1.2-3.9-2.9-5.1-5-1.2-2.1-1.8-4.4-1.8-6.9s.6-4.8 1.9-7c1.2-2.2 3-3.9 5.2-5.1 2.2-1.3 4.5-1.9 7-1.9 2 0 3.9.4 5.7 1.3 1.7.8 3.4 2.2 5.1 4.1v-4.7zm-10.3 2.7c-2 0-3.8.5-5.5 1.4-1.7 1-3 2.3-4 4-1 1.7-1.4 3.5-1.4 5.5 0 3 1 5.4 3 7.4s4.6 2.9 7.7 2.9c3.2 0 5.8-1 7.7-2.9 1.9-1.9 2.9-4.5 2.9-7.6 0-2-.4-3.9-1.3-5.5s-2.2-2.9-3.8-3.8c-1.6-.9-3.4-1.4-5.3-1.4z"/></g><path fill="#FF7231" d="M284.7 81.2c0-1.8.6-3.4 1.9-4.7 1.3-1.3 2.9-2 4.8-2 1.8 0 3.4.6 4.7 1.9 1.3 1.3 2 2.9 2 4.7 0 1.9-.7 3.5-2 4.8-1.3 1.3-2.9 2-4.7 2-1.9 0-3.5-.7-4.8-2-1.3-1.3-1.9-2.9-1.9-4.7z"/><path fill="#8A8C8E" d="M509.3 96.8c-16.3-24-20.6-31.2-22.8-34.2-7.8-10.8-21.5-32.1-30.3-21.7-2.9 3.4-5.3 21.2-10.6 21.2-6.4 0-9.1-30-14.4-29.5-6 .6-7.1 22.4-11.2 22.2-8.1-.5 9.7-27.7-55.4 13.7C342.1 82.8 305.5 84 303.4 82c-3.4-3.4 37 15.6 109.9-61.5 26.5-28 42.1-31.8 70.7 16.2 9.1 15.3 18.2 29.8 27.2 43.3"/><path fill="#8A8C8E" d="M462.3 144.8c.4 0 .8-.2 1.2-.8 13-17.6 72.7-99.2 76.8-107.3.4-.6.2-1-.4-1l-15.8-.6c0-2.8 0-6.3.2-9.1h43.3c.2 2.8 0 6.1-.2 9.1l-11.1.6c-11.5 16.4-25.2 35.5-37 51.9l-.1.4c12.6 17.6 27 39.4 38.6 56.8l13.3.6c0 3 0 6.1-.4 9.1h-47.6c0-3 0-6.1.2-9.1l15.4-.6c.6 0 .8-.6.6-1.2-4.7-7.5-20.9-36.5-28-46.2l-.1.1c-6.5 8.9-27.8 39.3-32.7 47.2l16.4.6c0 2.8 0 6.1-.2 9.1h-25.5c-6.1 0-12.8.2-18.6.2 0-3 0-6.3.2-9.3l11.5-.5z"/></svg>