<svg width="239" height="95" viewBox="0 0 239 95" xmlns="http://www.w3.org/2000/svg"><g fill="#3781C2" fill-rule="evenodd"><path d="M.89 11.045l-.002-.113V1.846h9.067v66.64l.004.208v8.992H.889V68.6l.001-.113V11.045M93.082 50.067c.233 13.783 8.761 24.807 19.05 24.622 10.286-.185 18.435-11.508 18.202-25.292-.235-13.785-8.763-24.808-19.05-24.622-10.287.185-18.436 11.508-18.202 25.292zM168.153 33.4c.237.525-.325-.785-.325-.785l.325.785zm6.18 57.065c.415-.712.994-1.801 1.683-3.161l-1.684 3.16zm.532-61.82c.11.306.237.625.38.962l3.052 7.52-3.432-8.482zM136.875 66.5c5.604 5.118 10.65 7.763 17.102 7.763 6.604.05 12.476-3.2 12.476-9.454 0-5.219-4.6-8.272-12.818-11.767-6.964-3.032-12.147-5.158-14.856-9.546.331 1.907.504 3.877.504 5.893 0 16.927-12.204 30.65-27.26 30.65-15.055 0-27.259-13.723-27.259-30.65 0-10.206 4.436-19.246 11.256-24.817H77.573v43.914l.002.175v9.024h-8.193v-8.73c.006-.154.007-.31.007-.47V24.574h-7.223v-5.527h7.33C70.441 7.896 77.307 1.59 86.812 1.59c6.164 0 9.548.646 11.502 1.556v7.559c-.03.563-.03.908-.03.908a4.63 4.63 0 00-.287-.014C95.03 8.846 92.105 6.798 85.27 6.805c-5.444 0-9.045 4.45-7.787 12.241h30.664a24.604 24.604 0 013.877-.308c10.92 0 20.343 7.222 24.693 17.653-.04-.58-.06-1.183-.06-1.814 0-10.883 10.471-15.512 21.348-15.488.416-.002.824 0 1.224.01 3.828-.062 9.282 1.194 12.612 2.075l6.456 15.954 9.226 22.638 1.083 3.636 1.207-3.636 11.667-29.058c2.153-8 10.673-11.464 20.084-11.444 4.679-.022 8.134.546 12.278 2.012v8.788c-5.102-3.73-8.755-5.899-14.544-5.899-5.088 0-11.204 2.267-11.204 9.8-.098 5.662 3.278 6.697 13.186 11.643 8.143 3.557 15.655 7.483 15.7 16.577 0 15.16-14.848 17.787-22.076 17.81-6.452 0-12.366-1.603-15.655-4.356V65.63l.529.441c5.87 5.514 11.056 8.37 17.758 8.37 6.606.05 12.475-3.2 12.475-9.455 0-5.219-4.6-8.272-12.817-11.767-7.855-3.42-13.009-5.687-15.115-11.352-3.203 7.858-18.103 44.362-21.61 52.164h-8.034l3.636-6.829c2.014-3.99 4.944-10.25 7.547-16.238L168.153 33.4c-.104-.229-.358-.806-.875-1.989-1.187-2.72-2.291-5.233-5.631-6.498-1.79-.606-3.694-.924-5.908-.924-5.088 0-11.596 2.266-11.596 9.8-.098 5.661 3.668 6.696 13.578 11.64 8.143 3.56 15.655 7.486 15.7 16.58 0 15.16-14.85 17.785-22.078 17.81-5.736 0-11.05-1.268-14.468-3.484V66.5M26.874 19.612l.1 6.633-.005.446.088-.002c.106-.277.248-.511.383-.686 3.33-3.592 7.528-7.16 17.504-7.16 9.55 0 15.73 8.162 15.979 13.3l.01 36.344v9.2h-8.184V66.85l-.002-30.94c0-6.406-5.588-11.039-12.43-11.039-5.686 0-12.985 5.148-13.227 10.36v33.265l.004.245v8.953h-8.188V27.249l.002-7.637h7.966"/></g></svg>