<svg width="312" height="79" viewBox="0 0 312 79" xmlns="http://www.w3.org/2000/svg"><g fill="none" fill-rule="evenodd"><path fill="#FF4D00" d="M34.294 45.156l22.963 13.016.856-9.896-6.375-6.884-9.409-1.575z"/><path fill="#FF7D00" d="M38.17.134l19.087 58.038 19.085-19.347z"/><path fill="#001AFF" d="M35.1 30.874l-.805 14.282 29.33-6.33z"/><path fill="#E23400" d="M20.38 59.487l3.797-5.153-.683-6.192-9.352-6.152L0 38.828z"/><path fill="#FF4D00" d="M0 38.827l23.493 9.315L36.106 2.229z"/><path fill="#FF7D00" d="M20.38 59.487L38.17 77.52l16.717-16.944-31.393-12.435z"/><path fill="#373737" d="M101.746 49.86h-3.57V20.58l3.57-2.11zM261.528 23.779h-3.671V19.895h3.671z"/><g fill="#373737"><path d="M117.702 27.29c-2.863 0-5.135 1.232-6.763 3.665v-3.203h-3.49v22.11h3.49V37.234c0-3.86 2.424-6.557 5.894-6.557 3.394 0 5.42 2.358 5.42 6.305v12.878h3.492V36.19c0-2.625-.731-4.843-2.116-6.42-1.424-1.622-3.474-2.479-5.927-2.479M160.864 38.826v.085c0 4.621-3.13 8.107-7.277 8.107-4.102 0-7.316-3.598-7.316-8.192v-.083c0-4.646 3.111-8.147 7.238-8.147 4.123 0 7.355 3.615 7.355 8.23m-7.277-11.536c-3 0-5.77 1.22-7.805 3.434-1.987 2.163-3.08 5.04-3.08 8.102v.085c0 6.422 4.747 11.453 10.807 11.453 2.999 0 5.779-1.219 7.823-3.434 2-2.166 3.102-5.044 3.102-8.104v-.083c0-6.422-4.766-11.453-10.847-11.453M172.17 32.609v-4.857h-3.49v22.11h3.49v-8.857c0-5.892 3.09-9.844 7.87-9.844h.462v-3.777l-.217-.01c-3.379-.147-6.354 1.793-8.114 5.235M207.479 27.29c-3.02 0-5.364 1.334-7.158 4.077-1.34-2.632-3.663-4.077-6.581-4.077-3.28 0-5.133 1.797-6.37 3.58v-3.118h-3.489v22.11h3.49V37.276c0-3.823 2.297-6.599 5.46-6.599 3.147 0 5.026 2.326 5.026 6.222v12.961h3.491v-12.71c0-1.971.55-3.632 1.589-4.799.962-1.079 2.308-1.674 3.791-1.674 3.22 0 5.066 2.3 5.066 6.305v12.878h3.49V36.23c0-5.513-2.991-8.939-7.805-8.939M253.622 31.055v-3.303h-6.555v-7.698l-3.491 2.064v5.634h-3.801v3.303h3.8v12.84c0 5.518 3.754 6.343 5.99 6.343 1.403 0 2.603-.302 3.78-.949l.117-.065v-3.27l-.325.167c-1.015.516-1.844.73-2.86.73-2.161 0-3.21-1.104-3.21-3.374V31.055h6.555zM282.608 43.869c-1.861 2.119-3.848 3.147-6.071 3.147-4.08 0-7.277-3.596-7.277-8.19v-.083c0-4.57 3.11-8.147 7.08-8.147 2.78 0 4.541 1.532 6.032 3.191l.168.185 2.315-2.6-.136-.154c-1.622-1.828-4.037-3.928-8.34-3.928-2.914 0-5.624 1.22-7.632 3.436-1.97 2.172-3.055 5.048-3.055 8.1v.085c0 3.03 1.085 5.887 3.055 8.043 2.008 2.2 4.718 3.41 7.633 3.41 4.338 0 6.823-2.282 8.501-4.27l.136-.16-2.252-2.244-.157.179zM234.14 39.211v2.464c0 3.212-2.839 5.635-6.605 5.635-3.373 0-4.908-2.117-4.908-4.085v-.085c0-1.792.995-3.929 5.737-3.929h5.776zm-5.579-11.921c-3.305 0-5.655.921-7.52 1.823l-.181.088 1.056 3.073.228-.11c1.677-.815 3.575-1.569 6.101-1.569 3.752 0 5.895 1.742 5.895 5.772h-6.092c-5.69 0-8.95 2.514-8.95 6.9v.083c0 4.576 3.945 6.971 7.844 6.971 3.578 0 5.867-1.687 7.198-3.294l-.002 2.834h3.335V36.398c0-2.785-.726-5.133-2.156-6.65-1.538-1.63-3.81-2.458-6.756-2.458zM135.615 25.69c0-3.181.806-4.374 3.285-4.374.957 0 1.725.18 2.895.535l.216.065V18.64l-.072-.027c-1.04-.397-2.034-.56-3.434-.56-1.895 0-3.466.604-4.543 1.746-1.202 1.276-1.839 3.253-1.839 5.723v2.228h-3.799v3.304h3.8V49.86h3.49V31.055h6.556V27.75h-6.555v-2.06zM261.437 49.86h-3.49V27.752h3.49zM302.214 39.213v2.463c0 3.214-2.839 5.637-6.606 5.637-3.373 0-4.909-2.119-4.909-4.087v-.084c0-1.792.996-3.93 5.738-3.93h5.777zm-5.578-11.923c-3.308 0-5.658.921-7.522 1.823l-.183.088 1.06 3.073.226-.109c1.677-.816 3.576-1.57 6.101-1.57 3.753 0 5.896 1.744 5.896 5.774h-6.093c-5.69 0-8.952 2.514-8.952 6.9v.083c0 4.577 3.947 6.972 7.848 6.972 3.578 0 5.865-1.686 7.197-3.295l-.001 2.836h3.334V36.4c0-2.785-.726-5.135-2.156-6.651-1.537-1.632-3.81-2.459-6.755-2.459zM308.436 29.568h.446a.556.556 0 00.33-.1.295.295 0 00.125-.25c0-.142-.035-.241-.11-.3-.074-.058-.207-.088-.396-.088h-.395v.738zm0 .37v.977h-.402V28.46h.787c.292 0 .518.063.678.19.16.127.24.309.24.55 0 .238-.12.418-.363.544.23.097.348.294.351.591v.176a.97.97 0 00.048.359v.045h-.414c-.027-.068-.04-.193-.04-.37 0-.179-.003-.285-.01-.317-.03-.185-.153-.283-.373-.29h-.502zm-1.277-.219c0 .332.075.639.227.922.153.28.36.503.62.663.264.16.546.238.85.238.307 0 .59-.08.853-.243.263-.163.468-.384.618-.663.149-.28.224-.585.224-.917 0-.328-.075-.632-.224-.911a1.695 1.695 0 00-.618-.659 1.602 1.602 0 00-.852-.24c-.305 0-.589.078-.852.237-.261.16-.47.379-.62.66a1.91 1.91 0 00-.226.913zm-.329.002c0-.39.09-.75.268-1.084.176-.333.423-.596.737-.788a1.932 1.932 0 011.022-.288c.365 0 .703.096 1.017.288.315.192.56.455.738.788.178.333.266.694.266 1.084 0 .38-.085.736-.256 1.067-.17.332-.414.598-.728.8-.316.201-.66.302-1.037.302-.376 0-.72-.099-1.034-.299-.316-.2-.56-.466-.733-.798a2.278 2.278 0 01-.26-1.072z"/></g></g></svg>