<svg version="1.1" id="svg2" xmlns="http://www.w3.org/2000/svg" x="0" y="0" viewBox="0 0 400 160" xml:space="preserve"><style>.st0{fill-rule:evenodd;clip-rule:evenodd;fill:#fff}</style><g id="g2552" transform="matrix(2.565 0 0 2.565 -1722.917 15.116)"><path id="path161" class="st0" d="M673.1 1.4v-6h5.9V44.6h-5.9V1.4"/><path id="path163" class="st0" d="M733 26.8c.2 9 5.7 16.1 12.4 16 6.7-.1 12-7.5 11.8-16.4-.2-9-5.7-16.1-12.4-16-6.7.1-12 7.4-11.8 16.4zm48.7-10.9c.2.3-.2-.5-.2-.5l.2.5zm4.1 37.1c.3-.5.6-1.2 1.1-2.1l-1.1 2.1zm.3-40.1c.1.2.2.4.2.6l2 4.9-2.2-5.5zm-24.7 24.5c3.6 3.3 6.9 5 11.1 5 4.3 0 8.1-2.1 8.1-6.1 0-3.4-3-5.4-8.3-7.6-4.5-2-7.9-3.4-9.7-6.2.2 1.2.3 2.5.3 3.8 0 11-7.9 19.9-17.7 19.9s-17.7-8.9-17.7-19.9c0-6.6 2.9-12.5 7.3-16.1h-12v34.5h-5.3V39 10.2h-4.7V6.6h4.8c.6-7.2 5.1-11.3 11.3-11.3 4 0 6.2.4 7.5 1v5.5h-.2c-1.9-1.8-3.8-3.1-8.3-3.1-3.5 0-5.9 2.9-5.1 8h19.9c.8-.1 1.7-.2 2.5-.2 7.1 0 13.2 4.7 16 11.5v-1.2c0-7.1 6.8-10.1 13.9-10.1h.8c2.5 0 6 .8 8.2 1.3l4.2 10.4 6 14.7.7 2.4.8-2.4 7.6-18.9c1.4-5.2 6.9-7.4 13-7.4 3 0 5.3.4 8 1.3v5.7c-3.3-2.4-5.7-3.8-9.5-3.8-3.3 0-7.3 1.5-7.3 6.4-.1 3.7 2.1 4.4 8.6 7.6 5.3 2.3 10.2 4.9 10.2 10.8 0 9.9-9.6 11.6-14.3 11.6-4.2 0-8-1-10.2-2.8v-6.5l.3.3c3.8 3.6 7.2 5.4 11.5 5.4s8.1-2.1 8.1-6.1c0-3.4-3-5.4-8.3-7.6-5.1-2.2-8.5-3.7-9.8-7.4-2.1 5.1-11.8 28.8-14 33.9h-5.2l2.4-4.4c1.3-2.6 3.2-6.7 4.9-10.6l-10-24.4c-.1-.1-.2-.5-.6-1.3-.8-1.8-1.5-3.4-3.7-4.2-1.2-.4-2.4-.6-3.8-.6-3.3 0-7.5 1.5-7.5 6.4-.1 3.7 2.4 4.4 8.8 7.6 5.3 2.3 10.2 4.9 10.2 10.8 0 9.9-9.6 11.6-14.3 11.6-3.7 0-7.2-.8-9.4-2.3v-6.8"/><path id="path165" class="st0" d="M689.9 7l.1 4.3v.3h.1c.1-.2.2-.3.2-.4 2.2-2.3 4.9-4.7 11.4-4.7 6.2 0 10.2 5.3 10.4 8.6v29.6h-5.3V17.6c0-4.2-3.6-7.2-8.1-7.2-3.7 0-8.4 3.3-8.6 6.7v27.6h-5.3V6.9h5.1"/></g></svg>