<svg width="136" height="35" viewBox="0 0 136 35" xmlns="http://www.w3.org/2000/svg"><g fill="none" fill-rule="evenodd"><g fill="#091C5A"><path d="M1.237 9.606c1.019 0 1.729.215 2.17.656.493.492.714 1.306.714 2.638v16.635c0 2.302-.483 3.33-3.334 3.33H.396v1.02h12.812V32.87l-.387-.005c-2.823-.034-3.3-1.054-3.3-3.329V12.9c0-1.327.22-2.138.713-2.63.445-.447 1.168-.664 2.208-.664h.765V8.57H.396v1.035h.841v.001zM42.215 25.399s-.222-1.039-.255-1.62V16.18c-.05-4.431.555-6.637-3.323-6.62v-.995h8.921v.995c-3.994-.016-3.491 2.19-3.514 6.62v17.741l-1.27-.013L23.51 13.77s.217 1.036.25 1.619v12.442c-.11 4.539.453 5.087 3.38 5.034v1.037h-9.3v-1.037c2.931.003 3.507-.386 3.504-5.404v.3V15.5l-.024-1.947c.11-2.519-.822-3.98-3.665-3.956V8.6h8.562L42.215 25.4zM74.508 8.082h-.983l-.046.337c-.067.502-.265 1.342-.837 1.342-.164 0-.57-.076-1.03-.286-1.99-.862-4.57-1.393-6.743-1.393-4.228 0-8.062 1.513-10.802 4.261-2.516 2.525-3.892 5.962-3.873 9.676.018 3.558 1.418 6.485 4.284 8.951 2.888 2.468 6.123 3.52 10.824 3.52 3.916 0 6.158-.562 9.598-2.407l.603-.326V25.12c0-2.83.347-3.27 2.651-3.362l.375-.015v-.986H67.27v.986l.375.015c2.567.1 3.052.559 3.052 2.898v6.151c-1.905 1.255-3.289 1.732-5.034 1.732-2.583 0-4.881-.997-6.646-2.758-2.067-2.067-3.075-5.076-3.075-8.476 0-3.664.976-6.789 2.988-8.797 1.601-1.6 3.728-2.488 6.154-2.488 2.168 0 4.685.929 6.412 2.297 1.404 1.149 2.133 2.26 2.683 4.096l.083.278h.962l-.716-8.608z"/></g><path d="M123.82 33.817c.625-.095 1.29-.08 1.788-.539 2.115.325 4.26-.197 5.921-1.361a12.371 12.371 0 002.304-2.42c.562-.787 1.005-1.522 1.292-2.404.214-.544.383-1.11.51-1.692.604-2.741.287-5.807-.607-8.414a14.93 14.93 0 00-.553-1.4c-1.115-2.302-2.633-4.786-4.97-6.242-1.315-.82-2.527-2.088-3.27-3.402-.405-.363-.792-.845-1.315-.932.143.236.3.467.339.742l-.03.04c-.555.015-.99-.278-1.37-.633l.419-.38c-.159-.08-.34-.11-.515-.15-1.598-.182-2.912.554-4.33.91l-.022.078c.87.387 1.052 1.345 1.559 1.994.125-.15.34-.041.514-.055.253.015.49.197.736.133.008-.211-.111-.38-.15-.569.15-.07.332-.008.5 0 .458.268 1.193-.047 1.48.57-.524.032-1.014.142-1.505.261.032.198.23.355.214.554a4.966 4.966 0 00-1.33-.34l-.024.07c.594.696 1.41 1.109 2.24 1.353 1.197.276 2.25-.292 3.404-.095 2.836 1.298 5.258 4.265 6.311 7.08.052.136.102.273.148.412.883 2.572 1.05 5.732.166 8.415-.47 1.115-.988 2.168-1.818 3.075-.314.386-.66.73-1.038 1.02-1.189.925-2.654 1.333-4.165.92-.095-.066-.285-.082-.253-.247a16.663 16.663 0 00.443-4.662l-.005-.173c-.083-1.963-.475-3.728-1.197-5.426-.463-.974-1.013-2.036-1.706-2.99-.827-1.136-1.853-2.118-3.172-2.608-.807-.214-1.805-.255-2.414.417-.436.381-.617.894-.554 1.457-.681.431-1.447.663-2.28.734-.204.018-.413.093-.625.09-.201.01-.398.002-.59-.022-1.003-.123-2.017-.664-2.788-1.281-.016-.412-.04-.799-.056-1.234-.442-.229-.808-.664-.838-1.179l.039-.039c.254.079.474.205.704.34-.103-.618-.222-1.226-.53-1.764-.285-.12-.57-.214-.839-.357-.308-.204-.507-.577-.553-.916.277.269.759.174.973.458-.373-1.1-.379-2.357-.99-3.362-.308-.743-1.116-1.083-1.67-1.628-.215-.262-.3-.626-.688-.666-.318-.079-.341-.434-.396-.664.197.023.363.158.529.189-.459-1.216-.863-2.57-2.105-3.345l-.213.135c-.484.071-.999.103-1.48.12.213-.317.592-.452.893-.596-.348-.26-.635-.322-1.07-.393-.254.251-.711.379-1.036.45l-.04-.032c-.01-.285-.074-.632.355-.704-.412-.198-1.094-.118-1.514 0-.118.308-.458.586-.433.95-.245.253-.419.594-.674.776-.007-.61.253-1.17.363-1.685-.356.135-.718.325-1.067.49-.561-.324-1.153-.648-1.755-.894-.054-.023-.174-.046-.15.056.515.371.315 1.068.37 1.597l-.325-.268c-.158-.403-.615-.696-.693-1.139-.54.103-.884.245-1.383.46L95.172.9c.371 0 .688.291.87.586-.562.03-1.061-.19-1.616-.247-.055-.054-.103-.12-.19-.11-.277.102-.515.3-.759.49-.546.538-1.101 1.13-1.362 1.843.183.03.412.023.547.134-.3.181-.562.49-.855.664-.103.412-.087.88-.111 1.33-.23.348-.538.655-.688 1.045-.492 1.587-.618 3.352-.547 5.155-.159.15-.365.246-.514.365l.016 1.612h.039c.071-.339.475-.528.72-.758h.08c-.04.363-.087.728-.094 1.1l-.459.379c-.46.404-.072 1.012-.11 1.52.031.132.053.33.149.363.056-.198.23-.34.34-.515.198-.046.372-.206.554-.228a8.55 8.55 0 01-.396 1.162c-.076.05-.165.117-.24.198a.575.575 0 00-.164.292c.358 1.874.918 3.724 1.558 5.488-.434.736-.68 1.602-1.043 2.362a4.096 4.096 0 00-.142.325c-.364.919-.475 1.948-.927 2.83a3.336 3.336 0 00-.586-.308c-.856-.285-1.846-.103-2.47.555-.555-.104-1.125-.009-1.56.284a2.067 2.067 0 00-.693.845c-.095.23-.138.48-.123.753-.356.245-.546.623-.664 1.004-.166.854.134 1.743.625 2.4h39.462v-.001z" fill="#FFF"/><path d="M118.578 16.034c-.008.205-.158.436-.023.609.19-.214.507-.206.76-.3.704-.063 1.377.157 2.034.317-.165-.262-.277-.553-.459-.791-.365-.095-.918.158-.98-.38-.223-.19-.573-.054-.8-.04-.223.16-.405.356-.532.585zM94.382 9.205a.031.031 0 00-.012-.007l.001.007h.01zM97.26 16.235l.475-.458c.04 0 .071.008.095.04l-.04.877c.23.214.514.285.815.301.024-.237.206-.403.31-.609.086-.166.032-.412.205-.53l.054.055c.057.26.042.554.176.783.016.126.039.284.054.395.349.017.664-.08.934-.205-.016-.3.088-.546.134-.823.073-.096-.087-.27.111-.26.111.236.31.481.42.734.459-.467.649-1.075.76-1.707-.134-.184-.34-.184-.5-.301-1.344-.435-3.072-.523-4.37.15-.084.539.027 1.132.367 1.558zM84.678 31.076c-.048.61 0 1.181.038 1.782.128.198.358.428.586.444l.041-.404c.094-.563-.206-1.16.111-1.633.222.07.442.181.634.284.093-.522-.04-1.13-.54-1.446l-.87.973zM86.632 30.223c-.308.925-.538 2.067-.165 3.04.213-.141.435-.276.624-.474-.038-.744-.141-1.539.301-2.156.388.12.65.491.8.855.262-.333.349-.791.246-1.235.016-.347-.382-.267-.571-.41.064-.293.055-.632.364-.798l-.95.095c-.244.346-.513.688-.649 1.083zM88.588 32.954c.04.073 0 .198.08.214.12-.664.657-1.095.95-1.68.142-.197.134-.474.364-.625.31 0 .53.222.832.246.095.071-.049.134-.056.212-.062.54-.269.986-.229 1.538h.054c.42-.44.705-.92 1.014-1.427l.054-.45c.07-.538-.515-.885-.894-1.107l.34-.435-.475-.166a2.164 2.164 0 00-1.441.72c-.482.885-.56 1.885-.593 2.96zM90.719 28.26c.181.056.347-.094.528-.015.73.268 1.49.545 2.036 1.154l.65 1.653.324-1.02-.214-.554c-.182-.395-.68-.363-1.022-.38-.141-.157.009-.34.057-.49.165-.56-.524-.53-.8-.758.017-.34-.396-.222-.626-.254l-.08-.095c-.046-.07-.164-.07-.228-.016-.017-.022-.048-.039-.03-.08l-.177.041c-.244.214-.41.49-.418.814zM91.177 26.442a.502.502 0 00.166.268c.357-.094.696-.338 1.108-.19.531.467 1.085.957 1.728 1.211l.228-.04c.143.049.3.055.396.213.088.214-.133.341-.206.514.357.261.214.729.437 1.044l.57-.759c-.134-.333.008-.902-.515-.933a.5.5 0 01-.285-.46c-.34-.308-.76-.442-1.1-.758-.278-.222-.443-.562-.8-.641-.245-.134-.513-.205-.798-.268-.533-.079-.58.553-.929.8zM91.937 24.884l.095.15c.395-.024.753-.197 1.142-.19.26.16.601.152.87.285.213.293.443.625.758.823.643.094.998.783 1.22 1.288v-.245c.095-.339-.009-.735-.135-1.043-.159-.159-.388-.262-.554-.404-.032-.103-.008-.15.024-.246-.246-.26-.61-.403-.91-.608-.42-.61-1.228-.443-1.869-.61l-.641.8zM91.924 19.082c.07.246.157.554.203.814.222-.49.66-.71 1.047-1.113-.223-.152-.499-.223-.744-.27V18.5c-.174.173-.443.347-.506.583zM93.362 21.684l.356-.364c.357-.363.65-.783.705-1.25-.253-.15-.585-.048-.83.04-.09.515-.222 1.021-.23 1.574zM93.623 22.8c.547.031 1.077.14 1.52-.165l.443-1.425c-.141-.009-.285-.071-.418-.024-.292.65-.88 1.289-1.545 1.613zM93.783 17.753c.357.523.95 1.108 1.56 1.273-.07-.663-.64-1.123-.933-1.692l-.017-.19c-.23-.222-.507-.37-.745-.49-.038.38.065.744.135 1.1zM95.714 22.863c.42.072.87 0 1.258-.12.563-.133.872-.75 1.062-1.232h-.705l-.76.742c-.3.16-.587.398-.855.61zM95.629 17.034c.119.617.379 1.178.736 1.709l.095-1.179-.831-.53zM98.224 20.11c.047-.395-.118-.853-.163-1.256-.239-.16-.572-.143-.817-.3.016.624.505 1.153.98 1.556zM97.503 24.13c.5-.16.982-.333 1.44-.587.293-.417.737-.8.8-1.289-.364.103-.681-.015-1.02.152-.206.37-.334.79-.73 1.058-.062.268-.355.452-.49.666zM98.278 25.102l.594.774c.317.103.713.071.99-.11l-.214-.704c-.419.16-.917.11-1.37.04zM99.269 19.501l.23 1.045c.552-.452.665-1.108.651-1.804-.317.364-.502.586-.881.759zM100.828 21.345c.008.15.048.292.135.412.617.22.68.971 1.252 1.256.37.166.797-.04 1.123-.19-.245-.276-.524-.468-.76-.76-.166-.07-.333-.174-.325-.38l-1.425-.338zM101.319 25.078c.27.308.633.466 1.013.552-.062-.087.04 0 .056-.055l-.476-1.042c-.237.006-.483.055-.704.04.015.172.056.345.11.505zM102.159 20.205c-.223-.514-.316-1.138-.378-1.707-.238.284-.484.466-.705.758-.103.586.733.73 1.083.949zM103.124 19.668c.285.371.91.245 1.26.134-.167-.285-.703-.45-.798-.759a6.814 6.814 0 00-.341-1.574c-.278.672-.612 1.472-.121 2.2zM103.622 21.345c.793.578 1.568 1.249 2.676 1.004.08-.056.214-.048.23-.15-.326-.207-.672-.365-1.006-.553l-.379-.555h-.174c-.428.143-.888.197-1.347.254zM103.64 27.76h.053c.477-.38 1.038-.507 1.6-.666.151.055.056.221.19.286.341-.143.753-.111 1.101-.23.42.017.761.024 1.1.206.269.355.776.317 1.126.553l-.056-.553c-.736-.863-1.885-.926-2.944-.91l-.025-.11c-.253 0-.537.055-.775.166-.34.015-.664.182-.99.284-.152.301-.27.664-.38.973zM104.274 18.039c.31.404.768.712 1.29.61-.268-.262-.577-.54-.593-.91.08-.705-.697-.76-1.076-1.125.125.476.11 1.005.38 1.425zM104.194 29.16h.092c.42-.263 1.03-.065 1.443-.342.229-.12.244.198.404.285.388.237.435.948.981.783.657.34.491 1.14.515 1.725l.61-.38c-.056-.308.117-.681-.08-.95-.15-.338-.561-.37-.76-.647.238-.404-.3-.593-.411-.886l.032-.04.837.11c.287.174.389.491.477.783.657.111.815.854 1.045 1.329.135-.325.19-.673.325-.988.008-.262-.34-.262-.514-.38-.05-.403-.23-.784-.586-1.028-.729-.182-1.37-.586-2.169-.586l-.666.207c-.364.087-.752-.024-1.028.228-.414.031-.445.483-.547.776zM104.612 25.9l.151.07c.324-.15.65-.324.99-.45.53-.15.942.45 1.386.071.166-.119.307.055.435.15.19.35.633.325.966.42-.166-.45-.371-1.068-.95-1.14-.23-.103-.5-.093-.72-.229-.61-.672-1.006.553-1.672.253-.237.263-.53.507-.586.855z" fill="#FFF"/><path d="M104.763 29.752c.253.212.514.577.91.529.492.23.286.877.555 1.218l.284-.254-.024-.015.041-.04.017.024c.079-.238-.033-.658-.168-.934-.181-.125-.395.008-.569-.11-.024-.253-.183-.38-.365-.538-.126-.095-.293.032-.435.023l-.246.097zM105.753 20.11c.262.436.768.705 1.172 1.005.332.151.767.19 1.124.11a7.213 7.213 0 01-.934-.925c-.11-.158-.135-.355-.285-.498-.374.072-.792.064-1.077.308zM106.19 17.28c.365.45.927.269 1.441.284v-.054l-.791-.666c-.223.072-.459.269-.65.436zM91.615 9.821l.459 1.424c-.009-.807.364-1.478.285-2.3l.34-.508-.72.222c-.19.363-.348.728-.364 1.162zM91.924 7.354l.624-.364v-.926c-.261.16-.405.428-.609.642l-.015.648z" fill="#FFF"/><path d="M104.765 8.794c-.151.198-.38.245-.57.285.332-.61.491-1.457.23-2.145.174-.063.365-.093.53-.19l-.016-.015.436-.38c.578-.396.356-1.147.57-1.708-.285-.444-.371-.981-.784-1.354l.025-.014c-.326-.412-.912-.365-1.356-.57-.586-.198-1.037.205-1.456.475-.182.03-.071.268-.27.26-.11.294-.246.61-.324.934-.785-.112-1.63-.023-2.257.419-.333-.245-.736-.293-1.125-.403-.284-.055-.609.048-.814-.112-.3-.339-.365-.957-.88-1.043-.181-.063-.22-.26-.22-.435-.341-.055-.643-.212-.976-.285-.505-.23-.908.135-1.289.38-.166.071-.356.094-.513.19-.285.443-.555.894-.737 1.383.056.403.23.76.436 1.1.182.514.752.917 1.235 1.124a4.656 4.656 0 000 2.507s-.014.01-.014.008l-.025.022c-.076 0-.157.015-.22-.022h-.01c.111.755.467 1.416 1.043 1.983.206.073.159.317.247.476.054.07.061.22.038.284a6.215 6.215 0 00-3.325.83c-.253.126-.141.475-.165.72.696-.458 1.448-.8 2.28-.949.355-.023.759-.11 1.1-.016l.04.68c-.942.49-1.972.776-2.78 1.583.017.244-.03.53.041.736l.72-.587c.696-.528 1.425-.98 2.225-1.273.214.254.437.523.722.68a5.374 5.374 0 011.559-.68c.293-.174.759-.016.949-.363l.135-.72c-.024-.016-.039-.046-.08-.038-.37-.214-.616-.585-.585-1.02a1.064 1.064 0 01-.42.11c-.126-.032-.244-.063-.3-.19-.008-.16-.088-.396.07-.514.515-.317 1.18-.333 1.83-.284.483.063 1.18.038 1.346.61-.022.165-.008.347-.174.457-.174.095-.371-.008-.531-.078-.125.387-.34.823-.776.948l.057.46c.054.206.07.545.396.474.752.181 1.416.57 2.073.988.222-.222.396-.475.554-.703 1.171.394 2.186 1.272 3.15 2.087l.041-.664c-.918-.815-1.94-1.392-3.001-1.843.04-.214.088-.42.095-.649a7.76 7.76 0 013.492 1.069l-.017-.57c-1.092-.585-2.288-.973-3.595-.989a.399.399 0 01-.054-.246c.634-.103 1.084-.759 1.236-1.329.323-.371.792-.775.681-1.328.015-.044.03-.093.047-.14.042-.14.078-.285.03-.413z" fill="#FFF"/><path d="M105.867 10.826l.648-.206.07-.363c.184-.53-.203-.926-.395-1.346l-.323 1.915zM107.504 13.334c.308.338.61.885 1.157.718-.04-.228-.168-.418-.246-.624-.144-.167-.19-.641-.476-.474-.214-.143-.268-.381-.404-.57-.062.292-.023.656-.031.95zM107.615 15.65c.12.166.152.38.268.53.214.141.532.119.792.094.238-.054.389.206.61.055-.276-.174-.441-.49-.704-.719-.31-.245-.64-.031-.966.04zM108.035 19.328c.546.324 1.24.641 1.97.53.078-.04.213-.032.229-.127-.451-.159-.925-.61-1.399-.704-.262-.403-.602.103-.935.07.008.096.103.168.135.23zM109.68 26.31l.12.255c.119.823.64 1.581.355 2.483.238.166.31.442.46.663h.039c.182-.687.056-1.4-.04-2.088.071-.624-.562-.989-.934-1.312zM109.817 18.212c.412.317 1.069.348 1.543.19-.3-.165-.632-.347-.88-.57l-.663.38zM111.77 20.641c-.04.333.182.61.42.775.087-.198.229-.363.244-.585-.07-.34-.26-.648-.57-.877-.055.22-.118.433-.094.687zM111.794 24.246c-.055.371.356.42.53.625.143.174-.095.293-.095.459.3.387.475.83.475 1.345.12-.482.301-.942.366-1.44-.032-.347-.585-.276-.499-.664.157-.395-.032-.783-.135-1.138-.032-.056-.104-.167-.165-.135-.146.324-.501.553-.477.948zM112.879 22.364l.411.799c.183-.022.3-.198.443-.323.111-.333-.182-.547-.269-.816-.072-.19 0-.442-.135-.609-.102-.062-.222-.166-.34-.135l-.11 1.084zM113.409 20.262c.324.196.696.481.87.829.278.807.72 1.534 1.045 2.317.12.546.214 1.032.364 1.57.056.141.024.418.247.395.062-.6.182-1.178.19-1.803-.198-.26-.461-.37-.706-.53v-.055c.033-.135.143-.293.31-.268.07-.08.284-.158.19-.3-.412-.411-.388-1.12-1.046-1.248-.228-.094-.285-.331-.307-.552-.31-.26-.77-.35-1.157-.355zM113.788 24.548c.404.37.263.908.23 1.407-.063.3.317.127.436.285.245.364.103.894.015 1.29.214-.326.46-.61.626-.966-.009-.135.165-.198.159-.363.07-.23-.198-.127-.31-.152-.094-.024-.197-.087-.167-.213.207-.397.017-.87-.062-1.265-.095-.326.04-.76-.111-1.044-.253.348-1.006.428-.816 1.02zM114.524 18.931c.706.713 1.22 1.428 1.98 2.116.017-.306-.024-.593-.04-.894-.111-.212-.317-.37-.491-.529-.561-.055-.855-.81-1.449-.693zM116.37 22.701c.016.071.048.134.078.206.309.507.602 1.027.817 1.573-.064-.584.333-1.313-.19-1.763-.072-.19-.31-.126-.46-.111l-.246.095zM118.27 28.48c.222.1.506-.082.72-.207.198-.048.365.062.516.166.062.125 0 .244.022.363.476.134.942.308 1.362.585l.133-.134c.032-.34-.236-.584-.49-.774-.165-.097-.412-.04-.53-.192.08-.125.08-.315.071-.458-.262 0-.428-.08-.642-.206-.133-.039-.253-.15-.364 0-.395.27-.419.664-.798.856zM118.825 18.526c.197-.054.404-.112.57-.253.528-.482 1.297-.159 1.914-.166a4.269 4.269 0 00-.435-.61c-.221-.087-.428-.19-.68-.19-.54-.315-.903.214-1.315.474-.11.216-.165.531-.054.745zM118.84 20.153c0-.022 0-.047.023-.054.071.064-.008.213.111.245.206-.102.396-.245.586-.378.53 0 .847-.514 1.368-.514.871.157 1.736.331 2.494.758-.054-.514-.498-.98-.948-1.211-.255-.087-.453.049-.634.19-.532.334-.253-.482-.626-.498-.483.152-.982.316-1.519.27-.317.117-.54.409-.895.379-.016.26-.056.578.04.813zM119.204 21.919c.165.173.442.14.681.173l.688-.268c.009-.127-.205-.16-.159-.3.19-.214.453-.064.689-.152.334-.046.674-.379 1.005-.134-.008.04.017.096-.015.134-.105.246.071.396.26.49.39.073.753.429 1.141.269-.039-.324-.126-.624-.206-.933-.324-.056-.553-.325-.855-.436-.135.127-.308.222-.475.206-.61-.142-1.338-.521-1.955-.133-.223.267-.618.189-.919.306.017.272.048.532.12.778zM119.465 26.62c-.048.133-.182.356.063.418.507.017 1.156-.244 1.553.15.133.105.07.317.062.452l.664.554c.065-.333.182-.633.19-.99a1.107 1.107 0 00-.402-.664c-.436 0-.69-.51-1.157-.445-.245-.056-.458.16-.705.16-.11.111-.173.247-.268.364zM119.655 22.891c.103.213.223.562.42.585.467-.205 1.147-.333 1.67-.11.175.03.175.229.136.356.268.158.594.283.878.458l-.079-.474c-.016-.515-.665-.563-.705-1.07-.53-.173-1.124-.228-1.686-.094-.184.167-.443.143-.666.191-.014.063.024.102.032.158zM119.79 25.454c.31-.087.506-.428.839-.458.507.008.958.212 1.274.648.192.126.151.451.396.451-.071-.389.056-.744.04-1.14-.334-.553-1.154-.127-1.464-.775l-.585.04c-.42.102-.308.593-.366.925-.047.103-.142.182-.133.309zM122.694 28.913c.246.49.786.862.84 1.424.127-.15.214-.324.301-.49-.008-.159-.19-.159-.263-.284-.07-.206.04-.388.072-.57-.102-.294-.348-.57-.625-.744l-.325.664zM123.67 27.664l.57.775c.244-.388.244-.957.15-1.425-.055-.087-.159-.23-.301-.166-.215.222-.245.561-.419.816zM121.349 6.015c.206.103.404.198.649.213.167-.086.381-.15.587-.094.293.19.649-.04.988-.024-.3-.284-.641-.458-.988-.624-.444.094-.8.41-1.236.53zM124.446 6.759c.418.039.72.41 1.004.72.357.055.626.307.84.57l-.135-.42c-.095-.42-.356-.745-.624-1.075-.38.023-.754.054-1.085.205z" fill="#FFF"/><path d="M94.9 3.288l.229.024c.618.308 1.615.466 1.67 1.36-.623.245-1.225.578-1.724 1.083-.38-.388-1.149-.174-1.275-.854.12-.64.348-1.446 1.1-1.613zM95.495 7.299c.719-.063 1.416.038 2.161-.024a.945.945 0 01.459.42c-.024.853-.285 1.668-.325 2.546-.324.136-.641.404-.72.76-.293.086-.555.261-.84.394-.127-.268-.103-.672.12-.892.308-.436 1.108-.333 1.043-1.021.207-.333.009-.76.017-1.108-.08-.26-.158.087-.285.078-.253.055-.514.071-.735-.054-.168-.175-.373-.317-.42-.554-.222-.11-.483-.285-.594-.515l.119-.03zM96.365 12.456c.339.046.697-.104.99.062-.064.11-.23.158-.364.19l-.53.246c-.199-.049-.088-.365-.096-.498zM97.751 5.85c.34-.11.705-.338 1.069-.228-.262.261-.467.601-.664.916l-1.085-.023c.117-.283.417-.52.68-.665zM100.926 5.59c.45-.078.426.506.838.53.072.095.176.182.135.324-.238.094-.585.048-.856.11-.356-.197-.125-.814-.689-.775-.03-.046-.095-.142-.015-.174.175-.061.403-.039.587-.015zM100.641 7.71c.197-.278.5-.3.783-.356l2.051.04c.087.078-.079.15-.079.245-.127.118-.31.15-.42.262-.268.008-.246.322-.436.458-.293.292-.72.158-1.06.11-.12-.087-.254-.206-.31-.34l-.094.094c.12.444.087.935.173 1.385l.49.325c.01.728.865.53 1.237.934-.087.26-.261.482-.45.704a2.647 2.647 0 00-1.006-.61c-.031-.427-.498-.679-.76-.894-.072-.775-.088-1.566-.213-2.317l.094-.04zM101.385 12.59h.95l-.119.498-.95-.404c-.023-.079.063-.103.119-.095zM103.094 3.63l.705-.223c.404.19.784.428 1.156.696.293.539.244 1.265.11 1.866-.214.238-.68 0-.854.38h-.032c-.262-.744-1.005-1.407-1.695-1.748.111-.38.23-.75.61-.971z" fill="#F60"/><path d="M119.607 33.76h4.224c.625-.094 1.29-.079 1.788-.538 2.115.325 4.26-.197 5.922-1.36a12.385 12.385 0 002.303-2.419c.562-.787 1.006-1.523 1.293-2.405.213-.545.382-1.11.51-1.692.603-2.741.287-5.806-.605-8.416-.166-.484-.351-.95-.555-1.398-1.115-2.302-2.631-4.785-4.97-6.242-1.316-.82-2.527-2.09-3.27-3.402-.405-.365-.793-.846-1.315-.933.143.237.3.466.34.742l-.032.04c-.553.016-.99-.276-1.37-.634l.421-.378c-.159-.079-.34-.112-.515-.15-1.6-.182-2.914.553-4.33.91l-.023.078c.87.387 1.051 1.344 1.559 1.994.127-.152.34-.04.514-.057.253.016.49.198.735.134.009-.213-.109-.378-.15-.568.15-.072.334-.008.5 0 .458.268 1.195-.049 1.48.568-.523.033-1.013.142-1.504.262.031.197.23.356.214.554a4.969 4.969 0 00-1.33-.34l-.023.07c.594.696 1.408 1.107 2.24 1.353 1.195.277 2.247-.292 3.402-.094 2.837 1.297 5.258 4.264 6.312 7.08.052.135.1.272.148.41.882 2.571 1.049 5.734.166 8.415-.47 1.117-.988 2.168-1.818 3.077a6.438 6.438 0 01-1.039 1.02c-1.189.925-2.654 1.332-4.163.917-.094-.062-.286-.079-.255-.244a16.676 16.676 0 00.445-4.661l-.007-.175c-.082-1.962-.474-3.728-1.197-5.425-.461-.974-1.012-2.036-1.705-2.99-.827-1.138-1.854-2.12-3.172-2.61-.808-.215-1.806-.253-2.414.42-.437.379-.618.892-.555 1.454-.681.432-1.447.666-2.28.736-.204.017-.414.09-.624.09-.202.01-.4 0-.59-.024-1.005-.124-2.018-.662-2.79-1.282-.015-.409-.04-.798-.055-1.232-.442-.23-.806-.666-.838-1.179l.04-.04c.253.08.475.206.703.341-.103-.617-.22-1.226-.53-1.763-.284-.12-.571-.213-.84-.357-.308-.205-.506-.577-.552-.918.276.27.759.175.973.46-.371-1.1-.38-2.357-.99-3.362-.309-.743-1.116-1.083-1.67-1.63-.215-.26-.3-.624-.69-.664-.316-.079-.34-.435-.395-.664.198.023.364.158.531.19-.46-1.219-.864-2.57-2.106-3.345l-.214.133c-.483.073-.998.104-1.48.12.213-.317.593-.45.894-.595-.35-.26-.635-.323-1.072-.395-.253.254-.71.38-1.034.45l-.04-.03c-.008-.284-.074-.634.354-.704-.41-.198-1.092-.12-1.512 0-.12.308-.457.585-.435.948-.244.255-.418.593-.673.776-.006-.61.252-1.171.363-1.684-.356.133-.718.323-1.066.49-.562-.325-1.154-.65-1.755-.893-.056-.025-.175-.049-.151.054.514.372.315 1.067.37 1.598l-.325-.268c-.158-.404-.616-.696-.693-1.14-.54.103-.884.246-1.383.46l-.07.038c.372 0 .689.293.871.585-.561.032-1.06-.19-1.614-.244-.056-.056-.102-.12-.19-.11-.278.102-.514.3-.76.49-.546.537-1.101 1.132-1.362 1.843.183.032.412.024.547.135-.3.182-.562.49-.856.664-.102.412-.087.878-.11 1.33-.23.347-.538.655-.689 1.042-.49 1.59-.618 3.353-.546 5.157-.159.15-.365.247-.514.364l.016 1.613h.039c.073-.34.476-.53.72-.759h.08c-.039.364-.087.727-.094 1.1l-.46.38c-.458.402-.07 1.01-.11 1.516.032.135.054.333.152.365.054-.197.228-.34.338-.513.198-.05.371-.207.553-.23-.1.394-.236.782-.396 1.162-.075.05-.165.118-.24.197a.57.57 0 00-.16.295c.355 1.874.915 3.724 1.557 5.487-.437.735-.683 1.602-1.046 2.362a4.827 4.827 0 00-.142.324c-.364.92-.475 1.947-.927 2.832a3.115 3.115 0 00-.585-.31c-.857-.283-1.846-.102-2.47.554-.555-.103-1.125-.008-1.562.284-.311.235-.553.517-.69.848a1.715 1.715 0 00-.124.751c-.357.245-.547.625-.664 1.004-.167.855.133 1.743.624 2.4h35.24z" fill="#FFF"/><path d="M135.042 16.931c-.166-.484-.351-.95-.555-1.398-1.115-2.302-2.631-4.785-4.97-6.242-1.316-.82-2.527-2.09-3.27-3.402-.405-.365-.793-.846-1.315-.934.143.238.3.467.34.743l-.032.04c-.553.016-.99-.276-1.37-.634l.421-.378c-.159-.079-.34-.112-.515-.15-1.6-.182-2.914.553-4.33.91l-.023.078c.87.387 1.051 1.344 1.559 1.993.127-.15.34-.04.514-.056.253.016.49.198.735.134.009-.213-.109-.378-.15-.568.15-.072.334-.008.5 0 .458.268 1.195-.049 1.48.568-.523.033-1.013.142-1.504.261.031.198.23.357.214.555a4.969 4.969 0 00-1.33-.34l-.023.07c.594.696 1.408 1.107 2.24 1.353 1.195.276 2.247-.292 3.402-.095 2.837 1.298 5.258 4.265 6.312 7.08.052.136.1.273.148.41.882 2.572 1.049 5.735.166 8.416-.47 1.117-.988 2.168-1.818 3.077a6.438 6.438 0 01-1.039 1.02c-1.189.925-2.654 1.332-4.163.917-.094-.062-.286-.079-.255-.245a16.676 16.676 0 00.445-4.661l-.007-.174c-.082-1.962-.474-3.728-1.197-5.425-.461-.974-1.012-2.036-1.705-2.99-.827-1.138-1.854-2.12-3.172-2.61-.808-.215-1.806-.254-2.414.42-.437.378-.618.892-.555 1.453-.681.433-1.447.666-2.28.737-.204.017-.414.09-.624.09-.202.01-.4 0-.59-.025-1.005-.123-2.018-.661-2.79-1.28-.015-.41-.04-.8-.055-1.233-.442-.23-.806-.666-.838-1.179l.04-.04c.253.08.475.206.703.341-.103-.617-.22-1.226-.53-1.764-.284-.119-.571-.213-.84-.356-.308-.206-.506-.577-.552-.918.276.27.759.175.973.46-.371-1.1-.38-2.357-.99-3.362-.309-.744-1.116-1.083-1.67-1.63-.215-.26-.3-.624-.69-.664-.316-.079-.34-.436-.395-.664.198.023.364.158.531.19-.46-1.219-.864-2.57-2.106-3.345l-.214.133c-.483.073-.998.103-1.48.12.213-.317.593-.451.894-.595-.35-.26-.635-.323-1.072-.395-.253.254-.71.38-1.034.45l-.04-.03c-.008-.284-.074-.634.354-.704-.41-.198-1.092-.12-1.512 0-.12.308-.457.585-.435.948-.244.254-.418.593-.673.776-.006-.61.252-1.171.363-1.684-.356.133-.718.322-1.066.49-.562-.325-1.154-.65-1.755-.894-.056-.024-.175-.048-.151.055.514.371.315 1.067.37 1.598l-.325-.268c-.158-.404-.616-.697-.693-1.14-.54.103-.884.246-1.383.46l-.07.038c.372 0 .689.293.871.585-.561.032-1.06-.19-1.614-.244-.056-.056-.102-.12-.19-.11-.278.102-.514.3-.76.49-.546.537-1.101 1.132-1.362 1.842.183.033.412.025.547.136-.3.181-.562.49-.856.664-.102.411-.087.878-.11 1.33-.23.347-.538.655-.689 1.042-.49 1.59-.618 3.353-.546 5.157-.159.15-.365.246-.514.364l.016 1.613h.039c.073-.34.476-.53.72-.759h.08c-.039.364-.087.727-.094 1.1l-.46.38c-.458.402-.07 1.01-.11 1.516.032.135.054.333.152.365.054-.198.228-.34.338-.514.198-.049.371-.206.553-.23-.1.395-.236.783-.396 1.163-.075.05-.165.118-.24.197a.57.57 0 00-.16.294c.355 1.875.915 3.725 1.557 5.488-.437.735-.683 1.602-1.046 2.361a4.827 4.827 0 00-.142.325c-.364.92-.475 1.947-.927 2.832a3.115 3.115 0 00-.585-.31c-.857-.283-1.846-.102-2.47.554-.555-.103-1.125-.008-1.562.284-.311.235-.553.517-.69.848a1.715 1.715 0 00-.124.75c-.357.246-.547.625-.664 1.005-.167.855.133 1.743.624 2.4h13.99c-.206-.244-.396-.585-.54-.877-.3-.452-.094-1.092-.126-1.614.285-.575.574-1.153.9-1.715.066-.113.132-.224.2-.334l.642-.245c.34 0 .626-.245.95-.159.436.436.436-.434.856-.474.981-.127 1.955-.032 2.508.799 0 .11.176.11.136.213-.127.039-.246-.04-.38-.04-.602-.15-1.307-.53-1.9-.19-.023.142-.053.286-.082.428-.03.152-.057.3-.07.441.388.111.713.388 1.005.688.198-.387.618-.56.99-.688.325.071.681.08.951.285.5.46.253 1.242.207 1.827.45.253.949.397 1.407.64-.214.193-.497.27-.759.366l-.76-.151c-.086-.063-.238-.063-.27-.174-.252.268-.56.625-.719.972h10.845c-.143-.324-.308-.577-.506-.877-.223-.475-.134-1.124-.159-1.63l1.014-1.542c.553-.008 1.18-.214 1.78-.111a.661.661 0 00.088-.047c.25-.172.326-.573.697-.523.664-.18 1.172.12 1.67.42a.783.783 0 01-.05.103c-.209.334-.6-.038-.885.062-.12.127.056.276.079.42.103.141-.103.125-.174.15a.543.543 0 01-.475-.15c-.031-.04-.008-.087-.07-.095-.144.236-.35.45-.405.72.181.175.427.348.515.57.182.261-.143.458-.206.688-.024.046-.096.046-.12 0-.167-.095-.308-.333-.49-.27-.16.704.054 1.408-.04 2.112.308.073.672-.016 1.005 0l.135-1.487c.141-.964.713-1.771 1.386-2.508.726-.496 1.195.484 1.732.824.088.016.057.11.095.165-.008.16-.173.222-.284.27-.334.117-.579-.246-.784-.46-.198.214-.286.498-.515.665l.079.023c.263.262.514.538.572.886-.032.316-.19.624-.477.784a7.831 7.831 0 01-.528-1.14c.007.017-.01.024-.025.04-.436.118-.552.608-.625 1.004.024.388-.269.546-.191.933h5.646c.625-.094 1.29-.08 1.788-.539 2.115.326 4.26-.197 5.922-1.359a12.385 12.385 0 002.303-2.42c.562-.787 1.006-1.523 1.293-2.404.213-.545.382-1.11.51-1.693.602-2.738.286-5.803-.606-8.412z" fill="#F60"/><path d="M98.71 31.61c.31-.198.808-.246.879-.704-.126-.095-.237-.214-.38-.246l-.325.095c.024-.19.127-.403.192-.609l1.044-.34c-.144.475-.198 1.068-.246 1.614.094.807.214 1.67.626 2.34h-1.125c-.126-.742-.904-1.281-.665-2.15zM101.142 30.66h.062l.76.689.11-.024a36.28 36.28 0 00-.11 2.436h-.823c-.168-.783-.444-1.606-.412-2.45.142-.215.237-.484.413-.65zM102.835 31.42c.151-.196.214-.53.514-.568.214.006.412.038.572.19.277.347.006.791-.095 1.139-.112.53-.303 1.082-.476 1.58h-.8l.285-2.34zM114.845 31.175c.174.222.23.522.49.72.23-.316.286-.807.175-1.21l-.23-.23c.294-.07.602-.095.896-.15-.127.42-.367.799-.325 1.29.008.712.126 1.424.19 2.166h-.871c-.317-.696-.634-1.36-.61-2.167.095-.143.158-.31.285-.42z" fill="#F60"/><path d="M118.59 15.98c-.008.205-.158.433-.024.609.192-.214.507-.206.761-.301.705-.064 1.377.158 2.034.317-.166-.262-.277-.554-.46-.791-.364-.096-.918.158-.98-.381-.223-.19-.57-.054-.8-.04a1.77 1.77 0 00-.53.587zM94.393 9.15l-.012-.009.001.009h.01zM97.271 16.18l.476-.457c.04 0 .072.007.095.038l-.04.878c.23.214.513.284.815.3.024-.236.206-.403.31-.609.086-.165.031-.41.205-.528l.056.054c.054.262.039.555.174.783l.053.395c.35.016.667-.078.935-.206-.016-.3.088-.545.134-.82.072-.096-.087-.271.11-.263.112.238.31.482.42.737.46-.467.651-1.075.76-1.71-.134-.18-.34-.18-.5-.3-1.344-.434-3.07-.52-4.368.151-.087.536.024 1.13.365 1.558zM84.688 31.022c-.048.61 0 1.18.04 1.782.126.198.357.428.586.442l.04-.404c.094-.56-.206-1.157.111-1.632.222.07.443.182.634.284.094-.521-.041-1.131-.54-1.448l-.87.976zM86.644 30.167c-.309.926-.538 2.066-.166 3.041.214-.143.435-.278.625-.475-.04-.744-.142-1.537.301-2.156.387.12.65.491.799.854.263-.331.349-.791.247-1.232.016-.35-.38-.269-.57-.412.062-.293.054-.631.363-.798l-.949.094c-.245.35-.514.687-.65 1.084zM88.6 32.9c.04.07 0 .198.08.214.118-.666.656-1.096.95-1.682.142-.195.135-.474.364-.624.308 0 .53.222.832.245.095.072-.05.135-.057.214-.062.54-.268.984-.229 1.538h.055c.42-.444.705-.921 1.013-1.427l.055-.45c.072-.538-.513-.885-.895-1.108l.34-.436-.475-.165a2.16 2.16 0 00-1.44.72c-.483.884-.562 1.885-.593 2.96zM90.73 28.206c.181.054.348-.094.53-.017.728.27 1.488.546 2.035 1.155l.65 1.653.324-1.021-.214-.552c-.183-.396-.681-.363-1.022-.38-.142-.158.008-.34.056-.49.166-.562-.523-.53-.8-.76.017-.338-.395-.222-.626-.252l-.078-.095c-.048-.072-.166-.072-.23-.017-.015-.023-.047-.04-.03-.078l-.174.039c-.247.213-.413.49-.42.815zM91.188 26.387a.519.519 0 00.166.268c.357-.094.699-.341 1.109-.19.531.467 1.084.957 1.727 1.21l.23-.04c.14.047.3.055.394.215.088.213-.134.338-.204.513.355.261.214.727.435 1.043l.57-.758c-.134-.333.008-.902-.513-.934a.496.496 0 01-.287-.458c-.34-.308-.76-.443-1.1-.76-.278-.22-.443-.56-.799-.64-.246-.134-.515-.205-.8-.267-.531-.081-.579.552-.928.798zM91.95 24.828l.094.153c.396-.025.751-.198 1.14-.191.26.158.601.15.87.284.214.294.444.624.759.822.642.094.997.785 1.22 1.29v-.245c.094-.34-.01-.737-.134-1.045-.159-.158-.39-.26-.555-.402-.032-.103-.008-.152.024-.246-.246-.26-.61-.404-.911-.61-.42-.61-1.226-.44-1.868-.61l-.64.8zM91.936 19.027c.07.246.156.553.204.815.22-.49.658-.712 1.045-1.114-.222-.15-.499-.223-.743-.269v-.016c-.175.172-.444.347-.506.584zM93.374 21.63l.355-.364c.357-.365.652-.785.705-1.25-.253-.15-.585-.047-.83.04-.087.512-.222 1.019-.23 1.574zM93.635 22.745c.546.03 1.077.141 1.52-.167l.445-1.423c-.144-.009-.287-.073-.42-.024-.293.647-.879 1.289-1.545 1.614zM93.795 17.7c.356.52.951 1.105 1.56 1.272-.07-.665-.64-1.124-.934-1.692l-.017-.19c-.229-.221-.506-.373-.744-.49-.038.38.065.742.135 1.1zM95.725 22.808c.42.07.871 0 1.259-.12.562-.135.871-.75 1.06-1.232h-.704l-.759.742c-.3.158-.585.395-.856.61zM95.64 16.98c.119.617.381 1.178.737 1.708l.094-1.179-.831-.53zM98.235 20.055c.048-.395-.118-.855-.164-1.256-.238-.16-.57-.144-.816-.3.016.623.505 1.153.98 1.556zM97.515 24.073c.498-.158.981-.332 1.442-.585.292-.42.735-.799.8-1.289-.367.103-.682-.017-1.023.15-.205.372-.333.793-.728 1.06-.064.268-.356.45-.49.664zM98.29 25.046l.594.775c.317.102.713.071.99-.11l-.213-.703c-.42.156-.92.11-1.371.038zM99.28 19.447l.23 1.043c.553-.45.667-1.106.651-1.802-.316.363-.5.585-.881.759zM100.84 21.288a.75.75 0 00.133.412c.618.222.681.972 1.253 1.257.37.167.799-.04 1.122-.19-.244-.277-.521-.467-.759-.759-.166-.07-.334-.174-.325-.38l-1.423-.34zM101.331 25.023c.269.307.632.466 1.012.552-.062-.087.04 0 .056-.054l-.475-1.045c-.238.008-.484.057-.705.04.018.175.056.348.112.507zM102.17 20.15c-.222-.513-.313-1.14-.378-1.707-.236.285-.483.467-.705.758-.103.585.735.728 1.084.95zM103.135 19.612c.287.373.911.246 1.26.135-.167-.285-.703-.452-.798-.758a6.733 6.733 0 00-.341-1.574c-.277.671-.612 1.47-.121 2.197zM103.634 21.288c.792.578 1.569 1.25 2.675 1.004.08-.054.215-.048.23-.15-.325-.205-.672-.364-1.005-.554l-.379-.552h-.174c-.428.14-.887.198-1.347.252zM103.65 27.703h.057c.474-.38 1.036-.508 1.598-.665.151.056.056.223.191.285.34-.141.752-.11 1.1-.229.42.015.76.023 1.1.205.271.356.776.316 1.126.554l-.057-.554c-.735-.862-1.883-.925-2.944-.909l-.024-.11a1.89 1.89 0 00-.776.165c-.339.016-.664.182-.99.284-.15.3-.27.667-.38.974zM104.286 17.983c.308.404.768.713 1.29.61-.268-.262-.578-.539-.593-.91.08-.704-.697-.76-1.077-1.124.127.475.11 1.005.38 1.424zM104.205 29.102h.095c.419-.26 1.029-.062 1.44-.339.23-.12.246.198.404.285.388.236.437.948.982.782.656.34.491 1.139.515 1.724l.61-.38c-.056-.308.119-.68-.08-.948-.15-.34-.562-.371-.76-.647.238-.404-.3-.595-.412-.888l.033-.039.839.111c.285.173.388.49.475.783.656.111.814.854 1.044 1.328.135-.324.19-.673.325-.989.008-.26-.34-.26-.514-.38-.047-.403-.23-.782-.586-1.026-.728-.184-1.369-.586-2.168-.586l-.665.205c-.365.088-.753-.023-1.03.229-.413.032-.444.483-.547.775zM104.624 25.844l.151.072c.325-.15.65-.325.99-.451.529-.15.94.451 1.386.07.165-.117.309.056.434.152.193.347.634.324.968.417-.167-.45-.373-1.066-.951-1.138-.23-.102-.5-.094-.72-.229-.61-.672-1.005.554-1.673.254-.236.26-.53.507-.585.853z" fill="#FFF"/><path d="M104.775 29.696c.253.214.515.578.911.53.49.229.285.878.553 1.219l.285-.254-.024-.017.04-.039.017.022c.079-.236-.032-.655-.168-.933-.18-.126-.394.009-.569-.11-.024-.255-.182-.38-.364-.537-.127-.096-.293.03-.436.022l-.245.097zM105.765 20.055c.26.435.767.704 1.172 1.004.333.15.767.19 1.124.11a7.255 7.255 0 01-.934-.924c-.112-.16-.135-.358-.285-.499-.372.072-.793.063-1.077.31zM106.202 17.225c.363.45.926.269 1.44.285v-.056l-.791-.664c-.222.07-.459.268-.65.435zM91.627 9.767l.459 1.423c-.009-.807.365-1.48.286-2.302l.339-.507-.721.223c-.19.363-.348.727-.363 1.163zM91.936 7.299l.625-.364V6.01c-.263.158-.404.429-.61.64l-.015.65z" fill="#FFF"/><path d="M104.777 8.738c-.15.197-.38.246-.57.284.333-.608.491-1.454.23-2.143.173-.063.364-.095.53-.19l-.017-.016.436-.38c.578-.395.355-1.146.57-1.708-.285-.442-.372-.98-.784-1.352l.024-.016c-.325-.411-.91-.363-1.354-.569-.587-.197-1.038.206-1.458.474-.182.033-.07.27-.268.26-.111.293-.247.61-.326.935-.784-.111-1.63-.024-2.256.419-.334-.246-.736-.293-1.124-.403-.285-.057-.609.046-.815-.112-.3-.339-.365-.957-.88-1.043-.182-.064-.22-.262-.22-.436-.341-.056-.643-.214-.974-.285-.507-.23-.91.136-1.29.38-.167.07-.357.095-.515.19-.284.443-.553.893-.737 1.383.057.404.23.758.436 1.1.182.514.753.918 1.235 1.124a4.65 4.65 0 000 2.505s-.013.011-.013.009c0 .002-.025.024-.025.024-.075 0-.158.014-.22-.024h-.01c.114.755.47 1.418 1.044 1.985.207.071.159.317.245.474.056.072.064.222.04.285a6.223 6.223 0 00-3.326.83c-.253.127-.142.475-.166.72.697-.46 1.449-.798 2.28-.95.356-.021.759-.11 1.1-.015l.04.682c-.941.49-1.971.775-2.778 1.582.016.244-.032.528.04.734l.72-.585c.697-.53 1.426-.98 2.224-1.273.215.252.437.523.722.68a5.335 5.335 0 011.56-.68c.292-.174.76-.016.95-.364l.133-.72c-.022-.016-.038-.048-.078-.04-.372-.214-.618-.585-.586-1.02a1.039 1.039 0 01-.42.11c-.124-.03-.245-.063-.3-.19-.007-.158-.088-.395.072-.513.514-.317 1.18-.333 1.829-.285.482.064 1.179.04 1.346.609-.023.166-.008.349-.175.459-.174.095-.371-.009-.53-.08-.126.388-.34.823-.775.95l.054.458c.054.206.071.545.396.474.752.183 1.418.57 2.074.988.223-.22.396-.474.554-.704 1.173.398 2.185 1.275 3.152 2.09l.039-.665c-.92-.815-1.94-1.392-3.001-1.842.04-.214.088-.42.096-.65a7.798 7.798 0 013.49 1.067l-.016-.568c-1.092-.586-2.288-.973-3.593-.988a.385.385 0 01-.056-.245c.634-.103 1.084-.758 1.235-1.33.326-.37.793-.775.682-1.327.014-.047.03-.095.047-.143.041-.136.077-.281.031-.41z" fill="#FFF"/><path d="M105.877 10.771l.649-.206.072-.362c.182-.531-.206-.927-.396-1.346l-.325 1.914zM107.515 13.277c.31.34.61.886 1.157.72-.04-.23-.168-.42-.245-.625-.143-.166-.192-.64-.476-.474-.214-.142-.268-.38-.404-.57-.062.293-.023.657-.032.949zM107.626 15.594c.12.166.153.38.27.53.213.142.53.118.793.096.236-.056.387.204.608.054-.277-.174-.442-.49-.703-.72-.31-.244-.642-.03-.968.04zM108.047 19.273c.546.323 1.24.64 1.97.53.078-.04.213-.032.228-.126-.451-.16-.925-.61-1.399-.704-.261-.403-.602.103-.935.07.008.095.103.166.136.23zM109.69 26.256l.12.252c.12.824.64 1.582.356 2.483.238.168.309.444.46.665h.039c.182-.687.056-1.4-.039-2.088.071-.624-.563-.988-.936-1.312zM109.828 18.157c.41.317 1.068.348 1.543.19-.3-.165-.633-.349-.88-.57l-.663.38zM111.782 20.584c-.04.333.182.61.42.777.086-.197.228-.365.244-.586a1.459 1.459 0 00-.57-.879c-.055.222-.119.436-.094.688zM111.805 24.192c-.056.371.356.42.53.625.142.174-.096.293-.096.458.302.387.477.829.477 1.344.117-.482.3-.94.363-1.438-.032-.35-.585-.277-.499-.664.16-.396-.031-.783-.134-1.14-.03-.055-.103-.166-.165-.133-.144.323-.5.553-.476.948zM112.89 22.31l.411.798c.182-.024.3-.198.443-.325.11-.332-.183-.546-.269-.815-.072-.19 0-.442-.135-.608-.103-.064-.22-.167-.34-.135l-.11 1.084zM113.419 20.205c.325.198.697.482.872.83.277.808.72 1.534 1.044 2.317.12.546.214 1.034.364 1.57.056.143.024.42.247.396.061-.601.18-1.18.19-1.804-.199-.26-.46-.37-.706-.529v-.056c.033-.133.144-.293.31-.267.07-.08.284-.158.19-.301-.412-.411-.389-1.118-1.044-1.246-.23-.095-.285-.333-.31-.553-.309-.262-.767-.349-1.157-.357zM113.801 24.492c.403.371.261.91.23 1.408-.063.3.316.125.435.285.246.363.103.894.017 1.288.214-.325.458-.609.624-.965-.006-.134.167-.198.16-.365.07-.229-.199-.126-.31-.15-.095-.023-.197-.086-.165-.213.204-.396.015-.87-.065-1.265-.094-.325.041-.76-.111-1.045-.254.35-1.007.429-.815 1.022zM114.536 18.877c.706.713 1.22 1.428 1.98 2.116.016-.309-.024-.593-.04-.894-.11-.213-.316-.37-.491-.53-.562-.054-.855-.81-1.449-.692zM116.38 22.646c.017.072.049.135.08.205.309.507.602 1.03.816 1.574-.064-.585.332-1.312-.192-1.763-.07-.191-.306-.127-.458-.112l-.246.096zM118.28 28.423c.222.103.507-.08.721-.206.198-.047.364.064.516.167.062.126 0 .245.023.364.475.133.94.308 1.36.585l.134-.135c.032-.34-.236-.585-.49-.775-.165-.095-.412-.04-.53-.19.08-.127.08-.317.071-.459-.261 0-.428-.08-.64-.205-.136-.04-.255-.151-.366 0-.395.268-.419.664-.798.854zM118.836 18.47c.197-.056.404-.11.57-.254.531-.482 1.298-.158 1.917-.165a4.317 4.317 0 00-.437-.61c-.222-.087-.428-.189-.68-.189-.54-.317-.903.214-1.316.474-.111.214-.165.53-.054.745zM118.85 20.1c0-.025 0-.05.024-.056.072.063-.008.215.111.245.206-.103.396-.245.586-.379.53 0 .847-.515 1.368-.515.873.16 1.736.334 2.494.76-.054-.513-.499-.981-.949-1.21-.254-.087-.452.047-.633.19-.53.333-.253-.482-.625-.499-.484.15-.983.317-1.52.268-.317.12-.54.412-.896.38-.014.263-.053.58.04.815zM119.215 21.862c.166.176.443.144.681.176l.689-.27c.008-.125-.206-.159-.158-.3.19-.214.45-.063.688-.15.332-.048.673-.379 1.005-.135-.01.04.015.094-.016.135-.103.245.07.395.26.49.39.071.752.428 1.14.268-.038-.325-.125-.623-.204-.933-.325-.055-.555-.324-.856-.435-.133.127-.31.221-.475.205-.61-.143-1.34-.522-1.956-.134-.222.27-.617.19-.919.308.018.269.05.53.121.775zM119.477 26.564c-.048.135-.182.355.064.42.506.015 1.156-.247 1.552.149.134.103.07.317.061.451l.665.554c.064-.334.184-.634.192-.99a1.11 1.11 0 00-.404-.663c-.437 0-.689-.51-1.157-.447-.245-.054-.459.163-.705.163-.11.11-.173.245-.268.363zM119.666 22.835c.103.214.223.562.42.585.467-.204 1.149-.332 1.67-.11.174.031.174.229.136.356.268.158.593.284.878.458l-.08-.475c-.015-.514-.663-.56-.704-1.068-.53-.173-1.124-.23-1.686-.094-.182.165-.444.143-.664.19-.016.063.022.104.03.158zM119.8 25.398c.31-.088.508-.427.84-.459a1.55 1.55 0 011.276.65c.19.125.15.45.396.45-.073-.388.054-.742.038-1.14-.331-.552-1.155-.125-1.464-.775l-.585.04c-.42.104-.309.594-.364.927-.048.102-.143.181-.136.307zM122.708 28.858c.244.49.784.862.838 1.423.126-.15.214-.324.3-.49-.008-.158-.19-.158-.26-.285-.073-.205.038-.387.07-.57-.103-.292-.35-.568-.625-.743l-.323.665zM123.681 27.608l.57.776c.244-.387.244-.958.15-1.424-.055-.088-.159-.23-.3-.166-.214.22-.246.561-.42.814zM121.36 5.96c.206.103.404.198.651.214.165-.087.38-.151.586-.095.292.19.649-.04.99-.023-.302-.285-.643-.46-.99-.626-.444.094-.8.411-1.236.53zM124.456 6.702c.42.04.722.412 1.005.72.356.054.625.309.839.569l-.133-.418c-.095-.42-.358-.745-.626-1.077-.38.025-.753.058-1.085.206z" fill="#FFF"/><path d="M94.912 3.234l.23.025c.616.308 1.613.466 1.67 1.36-.626.245-1.227.576-1.727 1.083-.379-.387-1.147-.174-1.274-.854.12-.642.348-1.45 1.101-1.614zM95.507 7.245c.72-.064 1.417.038 2.161-.025.181.079.37.236.459.419-.025.854-.285 1.67-.324 2.547-.325.133-.642.404-.722.759-.293.087-.555.26-.84.394-.124-.268-.102-.672.12-.894.309-.434 1.11-.333 1.046-1.02.205-.332.008-.76.014-1.107-.078-.262-.158.087-.284.079-.253.054-.514.07-.736-.057-.167-.174-.37-.317-.42-.553-.222-.11-.482-.284-.594-.513l.12-.03zM96.377 12.399c.339.049.697-.103.99.064-.063.112-.23.158-.365.19l-.53.245c-.198-.047-.087-.364-.095-.5zM97.762 5.796c.34-.11.705-.339 1.069-.23-.261.262-.467.601-.664.918l-1.085-.023c.12-.286.42-.522.68-.665zM100.937 5.536c.451-.079.426.506.838.528.073.095.176.182.136.325-.239.094-.586.049-.855.11-.357-.197-.127-.814-.69-.775-.03-.048-.093-.142-.015-.174.174-.062.405-.038.586-.014zM100.652 7.654c.198-.277.5-.3.784-.355l2.05.038c.088.08-.079.151-.079.246-.126.119-.308.151-.42.261-.268.008-.245.324-.434.46-.294.292-.722.157-1.062.11-.118-.087-.253-.206-.31-.34l-.094.094c.12.444.088.934.176 1.385l.49.324c.008.727.863.53 1.235.933-.087.262-.262.483-.451.704a2.687 2.687 0 00-1.005-.61c-.032-.424-.5-.679-.759-.892-.073-.775-.088-1.566-.214-2.318l.093-.04zM101.396 12.534h.951l-.119.498-.952-.403c-.022-.079.065-.102.12-.095zM103.106 3.575l.705-.222c.404.19.783.426 1.156.696.292.537.246 1.265.11 1.866-.214.236-.68 0-.854.38h-.033c-.26-.744-1.005-1.41-1.694-1.748.111-.38.23-.752.61-.972z" fill="#F60"/></g></svg>