<svg xmlns="http://www.w3.org/2000/svg" width="182" height="85" viewBox="0 0 182 85">
  <g fill="none">
    <path fill="#5E6787" d="M0.582,28.177 L6.027,28.177 L6.027,0.63 L0.582,0.63 L0.582,28.177 Z M32.343,22.274 L32.343,0.63 L38.241,0.63 L38.241,28.177 L29.318,28.177 C25.235,20.912 20.244,13.647 15.858,6.836 L15.858,28.177 L10.11,28.177 L10.11,0.63 L18.731,0.63 L32.343,22.274 Z M68.49,6.079 L52.004,6.079 C48.828,6.23 47.316,9.863 46.861,12.739 C46.559,15.766 47.164,18.34 48.827,20.61 C52.306,23.94 58.204,22.729 62.892,23.031 C62.892,23.031 63.043,18.036 62.892,17.885 L53.364,17.885 L53.364,12.739 L68.49,12.739 L68.339,28.177 L52.761,28.177 C47.77,28.177 44.14,24.999 42.325,21.215 C40.208,16.826 40.51,10.166 43.384,6.079 C45.199,3.203 47.468,0.781 52.005,0.63 C59.718,0.479 68.339,0.63 68.49,0.63 L68.49,6.079 L68.49,6.079 Z M156.059,7.139 L149.102,28.178 L141.389,28.178 L133.979,8.502 L133.979,28.178 L122.483,28.178 C120.821,25.453 118.551,19.854 118.551,19.854 L105.846,19.854 L101.764,28.178 L92.688,28.178 L83.614,17.886 L78.623,17.886 L78.623,28.178 L72.423,28.178 L72.423,0.63 L91.63,0.63 C95.411,0.63 97.53,3.96 98.286,6.836 C98.436,9.409 98.436,11.982 96.925,14.101 C95.411,16.22 93.294,16.826 91.027,17.431 C92.992,19.853 95.111,22.728 97.076,25.15 L108.873,0.63 L116.133,0.63 L128.233,26.663 L128.233,0.63 L137.004,0.63 L145.172,20.912 L152.279,0.63 C152.279,0.479 158.783,0.781 162.111,0.63 L162.111,28.177 L156.06,28.177 L156.06,7.139 L156.059,7.139 L156.059,7.139 Z M116.736,15.009 L112.349,5.776 L107.812,15.009 L116.736,15.009 Z M78.623,6.079 L78.623,12.285 L89.211,12.285 C91.479,12.285 92.084,11.68 92.537,11.074 C92.99,10.317 93.142,7.744 91.781,6.836 C90.42,5.776 89.664,6.231 88.605,6.079 L78.623,6.079 L78.623,6.079 Z"/>
    <path fill="#9F5452" d="M0.582,77.824 L0.582,35.746 L162.109,35.746 L162.109,77.824 L0.582,77.824 Z M34.611,70.406 L42.627,48.308 L42.627,70.406 L48.223,70.406 L48.374,42.254 L38.543,42.254 L30.678,64.504 L22.36,42.254 C22.36,42.406 13.134,42.254 13.134,42.254 L13.134,70.406 L18.882,70.406 L19.033,48.761 C21.453,55.877 24.326,63.14 26.746,70.406 C26.746,70.256 34.611,70.406 34.611,70.406 Z M52.609,70.406 L57.751,70.406 L57.751,42.254 L52.609,42.254 L52.609,70.406 Z M86.488,47.551 L86.487,47.551 L86.487,42.254 C86.336,42.254 73.329,42.254 70.153,42.557 C65.011,43.315 62.741,46.643 61.532,51.487 C60.473,55.272 60.473,60.872 63.044,65.413 C66.523,72.829 75.446,69.499 86.487,70.407 L86.487,64.807 L73.329,64.957 C65.314,65.109 64.557,47.248 73.783,47.703 L86.488,47.551 Z M113.258,70.406 L120.518,70.406 L111.594,59.66 C114.467,59.207 116.736,58.299 118.248,56.18 C119.459,54.817 120.063,52.092 119.307,48.309 C118.703,45.131 116.283,42.254 112.502,42.254 L91.629,42.254 L91.629,70.406 L97.83,70.406 L97.83,59.66 L105.242,59.66 L113.258,70.406 Z M97.83,47.248 C97.83,47.248 102.67,47.248 109.779,47.098 C114.77,47.248 115.072,54.666 110.082,54.666 L97.83,54.666 L97.83,47.248 Z M126.566,56.482 C126.566,50.88 130.953,46.492 136.398,46.492 C141.841,46.492 146.378,50.881 146.378,56.482 C146.378,61.929 141.841,66.32 136.398,66.32 C133.788047,66.3242608 131.283853,65.2889363 129.438898,63.4428557 C127.593944,61.5967751 126.560147,59.0919496 126.566,56.482 Z M136.398,71.314 C144.564,71.314 151.218,64.654 151.218,56.482 C151.218,48.156 144.564,41.496 136.398,41.496 C132.419903,41.4810275 128.600577,43.0554505 125.788651,45.8694421 C122.976725,48.6834337 121.405106,52.5039154 121.423,56.482 C121.424,64.654 128.08,71.314 136.398,71.314 Z"/>
    <path fill="#272727" d="M176.174,83.424 C173.451,83.424 171.184,81.154 171.184,78.43 C171.184,75.553 173.452,73.434 176.174,73.434 C178.896,73.434 181.166,75.553 181.166,78.43 C181.166,81.154 178.896,83.424 176.174,83.424 Z M176.174,84.18 C177.698892,84.1802655 179.161376,83.5744851 180.23945,82.4960358 C181.317524,81.4175866 181.922796,79.9548922 181.922,78.43 C181.922,75.2560195 179.34898,72.683 176.175,72.683 C173.00102,72.683 170.428,75.2560195 170.428,78.43 C170.428,81.607 172.998,84.18 176.174,84.18 L176.174,84.18 Z M177.082,78.58 C178.291,78.58 179.199,78.127 179.199,76.916 C179.199,76.311 178.896,75.855 178.443,75.553 C177.988,75.25 177.384,75.25 176.779,75.25 L174.056,75.25 L174.056,81.607 L174.812,81.607 L174.812,78.58 L176.326,78.58 L178.14,81.607 L179.048,81.607 L177.082,78.58 L177.082,78.58 Z M174.812,77.975 L174.812,75.705 L176.628,75.705 C177.534,75.705 178.29,75.855 178.29,76.916 C178.29,78.127 176.929,77.975 176.022,77.975 L174.812,77.975 Z"/>
  </g>
</svg>
