<svg xmlns="http://www.w3.org/2000/svg" version="1" width="1024" height="190" viewBox="0 0 328.22739 60.940254"><path d="M48.74 60.394H0L7.62 47.19h33.496l7.623 13.204zm-3.436-42.32l24.432 42.32H54.48L37.674 31.29l7.63-13.215zM34.87 0l7.564 13.104-16.81 29.116h-15.13L34.868 0z" fill="#00938f"/><path d="M317.594 30.188c-2.466 0-4.474.723-5.97 2.218-1.494 1.497-2.218 3.375-2.218 5.625 0 1.7.613 3.25 1.875 4.657.683.74 1.605 1.493 2.75 2.22l3.814 2.374c2.19 1.365 3.63 2.38 4.312 3.064 1.045 1.073 1.563 2.33 1.563 3.78 0 1.613-.52 2.882-1.564 3.782-1.03.9-2.265 1.344-3.687 1.344-2.628 0-4.825-1.047-6.595-3.125-1.016-1.19-1.9-2.777-2.656-4.78h-1.033l1.344 9.5h.97c.06-.365.17-.714.344-1.032.19-.32.54-.47 1.062-.47.216 0 1.1.26 2.594.782 1.51.524 2.934.78 4.313.78 2.745 0 4.995-.806 6.75-2.374 1.77-1.566 2.656-3.504 2.656-5.843 0-1.742-.483-3.252-1.47-4.53-1-1.263-2.735-2.647-5.188-4.157l-3.906-2.406c-1.465-.9-2.555-1.767-3.25-2.594-.697-.813-1.062-1.79-1.062-2.938 0-1.276.474-2.288 1.375-3 .914-.724 1.966-1.093 3.186-1.093 1.568 0 3.153.585 4.75 1.718 1.61 1.132 2.774 3.11 3.5 5.968h1.063l-.97-9.468h-.906c-.116.478-.283.832-.5 1.093-.205.264-.605.407-1.156.407-.204 0-1-.256-2.438-.75-1.423-.507-2.64-.75-3.656-.75zM197.5 30.28c-4.776 0-8.613 1.64-11.5 4.907-2.63 2.962-3.938 6.506-3.938 10.657 0 4.718 1.643 8.48 4.938 11.28 2.99 2.54 6.676 3.813 11.03 3.813 2.366 0 4.82-.44 7.376-1.312 2.57-.87 3.844-1.57 3.844-2.094v-8.75c0-1.45.327-2.41.938-2.874.362-.29 1.085-.49 2.187-.562v-.813H201v.814c1.64.1 2.71.36 3.188.78.493.422.75 1.506.75 3.22v7.125c0 .493-.145.862-.407 1.124-.26.246-.907.526-1.968.875-.653.218-1.368.398-2.093.5-.726.1-1.34.155-1.876.155-3.18 0-5.87-1.16-8.03-3.47-2.165-2.306-3.22-5.515-3.22-9.624 0-4.977 1.055-8.555 3.22-10.718 2.176-2.177 4.7-3.28 7.56-3.28 2.816 0 5.12.953 6.876 2.812.974 1.06 1.9 2.65 2.813 4.812h1.03l-.343-9.375h-1c-.19.466-.412.817-.688 1.064-.262.247-.705.375-1.343.375-.248 0-1.208-.24-2.876-.72-1.67-.48-3.367-.72-5.094-.72zm56.563 0l-9.282 21.876c-1.394 3.282-2.386 5.292-2.968 6.032-.5.652-1.24 1.07-2.187 1.25-.643-.108-1.18-.28-1.625-.532-.566-.317-1.12-.834-1.688-1.53l-9.187-11.313c2.482-.377 4.44-1.153 5.875-2.344 1.452-1.19 2.156-2.905 2.156-5.126 0-3.31-1.623-5.58-4.875-6.813-1.713-.652-3.836-.968-6.405-.968H211.53v.813c1.613.13 2.63.444 3.095.938.48.478.72 1.494.72 3.062v19.313c-.002 1.858-.204 3.054-.626 3.562-.42.51-1.476.84-3.19 1v.813h12.376V59.5c-1.684-.145-2.774-.44-3.28-.875-.495-.45-.75-1.5-.75-3.156v-8.782l2.5-.094L233 60.312h15.094V59.5c-1.046-.086-1.78-.2-2.156-.375-.61-.29-.907-.84-.907-1.594 0-.376.095-.86.314-1.5.23-.653.93-2.456 2.094-5.374h11.687l1.844 4.282c.26.61.48 1.197.624 1.75.145.55.22.937.22 1.156-.002.654-.218 1.076-.595 1.25-.38.16-1.195.29-2.5.406v.813h33.655l2.188-7.72h-1.125c-1.307 2.686-2.67 4.348-4.063 5-1.392.654-2.63.97-6.594.97-1.015 0-1.684-.017-2.06-.032-.365-.014-.73-.018-1.064-.06-.567-.074-.918-.256-1.094-.532-.158-.29-.25-.693-.25-1.188V35.344c0-1.482.26-2.456.813-2.907.566-.45 1.67-.726 3.313-.812v-.813h-12.594v.813c1.655.116 2.71.413 3.187.906.48.48.72 1.512.72 3.095V55.47c0 1.683-.226 2.735-.72 3.155-.465.396-1.498.67-3.06.844-.994-.148-1.723-.404-2.158-.782-.437-.407-1.04-1.44-1.78-3.126l-11.094-25.28h-.875zm-173.875.532v.813c1.813.086 2.962.365 3.5.844.537.464.812 1.515.812 3.155V55.47c0 1.726-.275 2.797-.813 3.218-.537.407-1.686.682-3.5.812v.813h13.188V59.5c-1.814-.13-2.995-.405-3.53-.813-.54-.42-.814-1.49-.814-3.218V35.624c0-1.64.275-2.69.814-3.156.536-.48 1.717-.76 3.53-.845v-.813H80.19zm16.062 0v.813c.915.03 1.61.155 2.063.344.463.174 1.002.636 1.656 1.405l.624.72V53.75c0 2.352-.26 3.846-.78 4.5-.525.64-1.72 1.06-3.564 1.25v.813h10.47V59.5c-1.614-.174-2.63-.49-3.095-.97-.713-.74-1.063-2.34-1.063-4.78V36.375l19.72 24.47h.75v-23.5c0-2.34.308-3.817.874-4.47.566-.654 1.676-1.076 3.375-1.25v-.813h-10.468v.813c1.64.145 2.71.458 3.188.938.725.74 1.094 2.327 1.094 4.78v14.938l-17.188-21.468H96.25zm31.844 0l-.25 7.563h1.094c.45-2.395 1.113-3.944 2-4.656.898-.712 2.595-1.064 5.062-1.064h2.47v22.282c0 1.932-.225 3.145-.69 3.624-.464.48-1.643.793-3.53.938v.813h13V59.5c-1.816-.13-2.994-.405-3.53-.813-.54-.42-.814-1.49-.814-3.218V32.655h2.5c2.583 0 4.264.368 5.063 1.094.81.71 1.476 2.245 2 4.625h1.06l-.218-7.563h-25.218zm27.625 0v.813c1.654.116 2.707.413 3.186.906.48.48.72 1.512.72 3.095V55.47c0 1.683-.257 2.735-.75 3.155-.48.407-1.517.7-3.157.875v.813h24.093l2.03-7.532h-1.25c-1.145 2.542-2.438 4.147-3.874 4.814-1.44.654-3.67.968-6.69.968-2.786 0-4.465-.06-5.03-.218-.553-.16-.812-.708-.813-1.594V45.72h6.844c1.89 0 3.102.278 3.626.843.523.552.946 1.71 1.28 3.437h1.033V39.656h-1.032c-.322 1.73-.728 2.87-1.25 3.438-.524.566-1.755.875-3.657.875h-6.843V34c0-.58.073-.954.22-1.156.158-.218.564-.344 1.218-.344h6.03c2.616 0 4.307.295 5.064.875.754.58 1.308 1.87 1.686 3.844h1.156l-.156-6.407H155.72zm138.686 0v.813c1.815.086 2.963.365 3.5.844.54.464.813 1.515.813 3.155V55.47c0 1.726-.275 2.797-.814 3.218-.537.407-1.685.682-3.5.812v.813h13.188V59.5c-1.817-.13-2.994-.405-3.53-.813-.54-.42-.814-1.49-.814-3.218V35.624c0-1.64.275-2.69.813-3.156.537-.48 1.715-.76 3.53-.845v-.813h-13.187zm-71.78 1.688c1.873 0 3.368.242 4.5.75 2.12.944 3.186 2.73 3.186 5.313 0 2.686-1.196 4.496-3.562 5.468-1.38.553-3.668.885-6.875 1V34.063c0-.667.13-1.107.406-1.28.29-.19 1.083-.282 2.345-.282zm30.686 4.063l5.188 12.28h-10.28l5.093-12.28z" fill="#231f20"/></svg>