<svg xmlns="http://www.w3.org/2000/svg" width="526" height="185" viewBox="0 0 526 185">
  <g fill="none">
    <g fill="#000" transform="translate(0 51)">
      <g transform="translate(45 23)">
        <polygon points="33.1 3.8 56.6 74.5 80.5 3.8 110 3.8 72.5 108 38.7 108 .5 3.8"/>
        <path d="M181.4 107.9C180.4 101.5 180.4 96.8 180.4 93.7 168.9 110.4 155 110.4 149.3 110.4 134.2 110.4 127.4 106.1 123.3 102.2 117.1 96 114.2 87.6 114.2 79.3 114.2 71.1 117.1 55.8 136.3 46.9 149.1 41.1 167.4 41.1 177.5 41.1 177.5 34.3 177.3 31 176.1 27.3 173.4 19.7 165.4 18.6 162.5 18.6 158.2 18.6 153.6 20.5 151 24.4 148.7 27.9 148.7 31.2 148.7 33.7L118.8 33.7C119 28.1 119.6 17 130.6 9.2 140.1 2.4 152.3.7 162.2.7 170.9.7 189 2.1 199.3 14.1 206.3 22.6 206.5 34.9 206.5 39.7L206.7 81.6C206.7 90.5 207.3 99.3 209.2 108L181.4 107.9 181.4 107.9zM143.8 75.7C143.8 82.7 148.5 90.5 158.6 90.5 164.2 90.5 168.7 87.8 171.6 84.5 177 77.9 177.4 69.9 177.4 58.7 157.8 57.2 143.8 63.4 143.8 75.7zM225.2 22.3C225.2 21.9 225.2 10.5 224.6 3.3L253.9 3.3 254.7 19C257.6 14.3 265.8.9 288.5.9 308.9.9 317.6 13.3 320.3 20.5 322.6 26.9 323.2 32.3 323.2 51.6L323.2 107.9 292.1 107.9 292.1 43.1C292.1 38.8 292.1 35.1 290.4 31.8 288.1 27.3 283.4 22.9 275.6 22.9 269 22.9 263 26 259.7 30.9 257.8 33.6 256 38.7 256 46.8L256 107.8 225.3 107.8 225.2 22.3 225.2 22.3z"/>
      </g>
      <path d="M401.5,8.6 L401.5,27.4 L381.5,27.4 L381.5,47.6 L401.5,47.6 L401.5,104.7 C401.5,113.4 401.5,132.7 432.2,132.7 C437.1,132.7 446,132.1 455.9,129.4 L455.9,109.4 C452.2,109.8 450.1,110 445.6,110 C432,110 432,104 431.8,94.5 L431.8,47.5 L456.5,47.5 L456.5,27.3 L431.8,27.3 L431.8,0.2 L401.5,8.6 Z"/>
      <polygon points=".2 26.6 30.7 26.6 30.7 131 .2 131"/>
      <polygon points="474.9 26.6 505.4 26.6 505.4 131 474.9 131"/>
    </g>
    <g fill="#DA291C" transform="translate(474)">
      <polygon points="31.4 20.3 31.4 50.8 51.7 50.8 51.7 0 .9 0 .9 20.3"/>
      <rect width="20.3" height="20.3" x=".9" y="30.5"/>
    </g>
    <rect width="30.5" height="30.5" y="19.9" fill="#DA291C"/>
  </g>
</svg>
