<svg xmlns="http://www.w3.org/2000/svg" viewBox="0 0 514.9 186.4"><path fill-rule="evenodd" clip-rule="evenodd" fill="#FFF" d="M103.1 22c12.6 31.1 68.6 11.4 51.6-20.4 28.6-5.4 55.8 1.9 51.6 39.4-4 35.5-34.4 69.3-63.9 95.1C114 161 74 187.4 35.1 186.4c-25-.7-39.4-16.7-34-44.8 10.6-54.1 64.8-93 102-119.6m39.4 74.7c16.1-15.2 42.3-48.5 8.2-54.3-31.8-5.4-66.9 6.2-87 13.6 26.1-.3 52.1 1.2 54.3 21.7 2.4 22.1-24.3 44.2-39.4 58.4-19.7 18.5-39.5 32.2-53 46.2 33.4-19.9 84.1-54.7 116.9-85.6"/><path fill="#FFF" d="M234.7 41.5h12.7v22.2h-12.7M234.7 71.4h12.7v89.4h-12.7M250.1 41.5h11.8v22.2h-11.8zM250.1 71.4h11.8v89.3h-11.8zM393.4 41.5h12.7v22.2h-12.7M393.4 71.4h12.7v89.4h-12.7M408.8 41.5h11.8v22.2h-11.8zM408.8 71.4h11.8v89.3h-11.8zM270.1 41.5h12.2l35.8 107h17.7l37.2-107h13.1l-41.7 119.3h-34"/><path fill="#FFF" d="M285.4 41.5h11.4l31.3 89.8 30.4-89.8h11.8l-35.9 103.4h-14.9M428.8 41.5v11.1h74.3v18.8l-58.9 66.2v7.3h70.7v-12.3l-48-.3 48-56.3V41.5"/><path fill="#FFF" d="M428.8 55.8H500v13.8l-58.4 67.6v9.9l73.3.4v13.3h-86.1v-30l58-64.4h-58"/></svg>