<?xml version="1.0" encoding="utf-8"?>
<!-- Generator: Adobe Illustrator 18.1.1, SVG Export Plug-In . SVG Version: 6.00 Build 0)  -->
<svg version="1.1" id="Layer_1" xmlns="http://www.w3.org/2000/svg" xmlns:xlink="http://www.w3.org/1999/xlink" x="0px" y="0px"
	 width="359.6px" height="43.8px" viewBox="0 0 359.6 43.8" style="enable-background:new 0 0 359.6 43.8;" xml:space="preserve">
<style type="text/css">
	.st0{fill:#E9972D;}
	.st1{fill:none;}
</style>
<g>
	<path class="st0" d="M75.8,32.7V15.7h3.4v16.9H75.8z"/>
	<path class="st0" d="M82.9,32.7V15.7h3.5l5,11.3l4.5-11.3h3.5v16.9h-3.4v-9.5L92,32.8h-1.2l-4.5-9.7v9.6H82.9z"/>
	<path class="st0" d="M103.1,32.7V15.7h5.3c0.9,0,1.7,0.1,2.4,0.2c0.7,0.1,1.4,0.3,2.1,0.6c0.9,0.4,1.5,1,1.9,1.8
		c0.4,0.8,0.6,1.7,0.6,2.6c0,0.5-0.1,1-0.2,1.5s-0.3,1-0.6,1.4c-0.3,0.4-0.6,0.8-0.9,1.2c-0.4,0.4-0.8,0.6-1.3,0.8
		c-0.6,0.2-1.2,0.4-1.8,0.5c-0.6,0.1-1.2,0.1-1.9,0.1h-2.3v6.1H103.1z M106.4,23.6h1.9c0.5,0,0.9,0,1.3-0.1c0.4-0.1,0.7-0.1,1-0.3
		c0.5-0.2,0.8-0.5,1-0.9c0.2-0.4,0.3-0.8,0.3-1.2c0-0.5-0.1-0.9-0.3-1.3c-0.2-0.4-0.6-0.7-1.1-0.9c-0.3-0.1-0.6-0.2-0.9-0.2
		c-0.3-0.1-0.7-0.1-1.2-0.1h-2V23.6z"/>
	<path class="st0" d="M117.8,32.7V15.7h11.6v3.1h-8.2v3.9h6.8v3.1h-6.8v3.9h8.8v3.1H117.8z"/>
	<path class="st0" d="M132.4,32.7V15.7h6.9c0.7,0,1.4,0.1,2.1,0.2c0.7,0.2,1.3,0.4,1.9,0.8c0.6,0.4,1,0.9,1.4,1.5
		c0.4,0.6,0.5,1.5,0.5,2.5c0,0.6-0.1,1.2-0.2,1.8c-0.2,0.6-0.4,1.1-0.7,1.5c-0.3,0.5-0.7,0.9-1.2,1.2c-0.5,0.4-1.1,0.6-1.8,0.8
		l4.3,6.6h-3.9l-4.2-6.3h-1.9v6.3H132.4z M135.8,23.4h2.6c1.2,0,2.1-0.2,2.7-0.6c0.6-0.4,0.8-1,0.8-1.7c0-0.8-0.3-1.4-0.8-1.8
		c-0.5-0.4-1.4-0.6-2.7-0.6h-2.6V23.4z"/>
	<path class="st0" d="M148,32.7V15.7h3.4v16.9H148z"/>
	<path class="st0" d="M153.1,32.7l7-16.9h2.4l7.1,16.9h-3.7l-1.4-3.4h-6.5l-1.4,3.4H153.1z M159,26.4h4.4l-2.2-5.6L159,26.4z"/>
	<path class="st0" d="M171.2,32.7V15.7h3.4v13.9h8.5v3.1H171.2z"/>
	<path class="st0" d="M191.7,32.7l-3.9-16.9h3.4l2.1,10.1l3.3-10.1h2.1l3.3,10.1l2.1-10.1h3.4l-3.9,16.9h-2.2l-3.9-11.4l-3.8,11.4
		H191.7z"/>
	<path class="st0" d="M206.3,32.7l7-16.9h2.4l7.1,16.9H219l-1.4-3.4h-6.5l-1.4,3.4H206.3z M212.2,26.4h4.4l-2.2-5.6L212.2,26.4z"/>
	<path class="st0" d="M224.4,32.7V15.7h6.9c0.7,0,1.4,0.1,2.1,0.2c0.7,0.2,1.3,0.4,1.9,0.8c0.6,0.4,1,0.9,1.4,1.5
		c0.4,0.6,0.5,1.5,0.5,2.5c0,0.6-0.1,1.2-0.2,1.8c-0.2,0.6-0.4,1.1-0.7,1.5c-0.3,0.5-0.7,0.9-1.2,1.2c-0.5,0.4-1.1,0.6-1.8,0.8
		l4.3,6.6h-3.9l-4.2-6.3h-1.9v6.3H224.4z M227.8,23.4h2.6c1.2,0,2.1-0.2,2.7-0.6s0.8-1,0.8-1.7c0-0.8-0.3-1.4-0.8-1.8
		c-0.5-0.4-1.4-0.6-2.7-0.6h-2.6V23.4z"/>
	<path class="st0" d="M244.8,32.7V15.7h3.5l5,11.3l4.5-11.3h3.5v16.9h-3.4v-9.5l-4.1,9.6h-1.2l-4.5-9.7v9.6H244.8z"/>
	<path class="st0" d="M268.3,26.5c0,1,0.3,1.8,0.9,2.5c0.6,0.7,1.4,1,2.6,1c1.1,0,2-0.3,2.6-1c0.6-0.7,0.9-1.5,0.9-2.5V15.7h3.4
		v11.1c0,1-0.2,1.8-0.5,2.6c-0.4,0.8-0.8,1.4-1.5,1.9c-0.6,0.5-1.4,0.9-2.2,1.2c-0.8,0.3-1.7,0.4-2.7,0.4c-0.9,0-1.8-0.1-2.7-0.4
		c-0.8-0.3-1.6-0.7-2.2-1.2c-0.6-0.5-1.1-1.2-1.5-1.9c-0.4-0.8-0.5-1.6-0.5-2.6V15.7h3.4V26.5z"/>
	<path class="st0" d="M283.4,28.2c0.4,0.6,0.9,1.1,1.6,1.5c0.7,0.3,1.4,0.5,2.2,0.5c0.9,0,1.6-0.2,2.1-0.5c0.5-0.3,0.8-0.8,0.8-1.3
		c0-0.4-0.1-0.7-0.2-0.9c-0.1-0.3-0.3-0.5-0.6-0.8c-0.3-0.2-0.7-0.5-1.2-0.7c-0.5-0.2-1.2-0.5-1.9-0.7c-0.7-0.3-1.4-0.5-2-0.8
		c-0.6-0.3-1.1-0.6-1.5-1c-0.4-0.4-0.7-0.8-1-1.4c-0.2-0.5-0.3-1.1-0.3-1.8c0-0.7,0.1-1.3,0.4-1.9c0.2-0.6,0.6-1.1,1.1-1.5
		s1.1-0.7,1.9-1c0.7-0.2,1.6-0.3,2.6-0.3c0.8,0,1.6,0.1,2.2,0.2c0.6,0.2,1.2,0.4,1.7,0.6c0.5,0.3,0.9,0.6,1.2,0.9
		c0.3,0.4,0.6,0.7,0.9,1.1l-2.5,1.8c-0.4-0.5-0.8-1-1.3-1.3c-0.5-0.4-1.3-0.5-2.2-0.5c-0.9,0-1.5,0.2-2,0.5
		c-0.4,0.3-0.7,0.7-0.7,1.2c0,0.6,0.3,1.1,0.9,1.5c0.6,0.4,1.4,0.8,2.6,1.2c0.9,0.3,1.6,0.6,2.3,1c0.7,0.3,1.2,0.7,1.6,1.2
		c0.4,0.4,0.8,0.9,1,1.5c0.2,0.6,0.3,1.2,0.3,2c0,0.8-0.2,1.6-0.5,2.2c-0.3,0.6-0.8,1.1-1.4,1.5c-0.6,0.4-1.2,0.7-2,0.9
		c-0.7,0.2-1.5,0.3-2.3,0.3c-3.1,0-5.2-1-6.5-3.1L283.4,28.2z"/>
	<path class="st0" d="M296,32.7V15.7h11.6v3.1h-8.2v3.9h6.8v3.1h-6.8v3.9h8.8v3.1H296z"/>
	<path class="st0" d="M313.9,26.5c0,1,0.3,1.8,0.9,2.5c0.6,0.7,1.4,1,2.6,1c1.1,0,2-0.3,2.6-1c0.6-0.7,0.9-1.5,0.9-2.5V15.7h3.4
		v11.1c0,1-0.2,1.8-0.5,2.6c-0.4,0.8-0.8,1.4-1.5,1.9c-0.6,0.5-1.4,0.9-2.2,1.2c-0.8,0.3-1.7,0.4-2.7,0.4c-0.9,0-1.8-0.1-2.7-0.4
		c-0.8-0.3-1.6-0.7-2.2-1.2c-0.6-0.5-1.1-1.2-1.5-1.9c-0.4-0.8-0.5-1.6-0.5-2.6V15.7h3.4V26.5z"/>
	<path class="st0" d="M327.7,32.7V15.7h3.5l5,11.3l4.5-11.3h3.5v16.9h-3.4v-9.5l-4.1,9.6h-1.2l-4.5-9.7v9.6H327.7z"/>
	<path class="st0" d="M349.2,28.2c0.4,0.6,0.9,1.1,1.6,1.5c0.7,0.3,1.4,0.5,2.2,0.5c0.9,0,1.6-0.2,2.1-0.5c0.5-0.3,0.8-0.8,0.8-1.3
		c0-0.4-0.1-0.7-0.2-0.9c-0.1-0.3-0.3-0.5-0.6-0.8c-0.3-0.2-0.7-0.5-1.2-0.7c-0.5-0.2-1.2-0.5-1.9-0.7c-0.7-0.3-1.4-0.5-2-0.8
		c-0.6-0.3-1.1-0.6-1.5-1c-0.4-0.4-0.7-0.8-1-1.4c-0.2-0.5-0.3-1.1-0.3-1.8c0-0.7,0.1-1.3,0.4-1.9c0.2-0.6,0.6-1.1,1.1-1.5
		s1.1-0.7,1.9-1c0.7-0.2,1.6-0.3,2.6-0.3c0.8,0,1.6,0.1,2.2,0.2c0.6,0.2,1.2,0.4,1.7,0.6c0.5,0.3,0.9,0.6,1.2,0.9
		c0.3,0.4,0.6,0.7,0.9,1.1l-2.5,1.8c-0.4-0.5-0.8-1-1.3-1.3c-0.5-0.4-1.3-0.5-2.2-0.5c-0.9,0-1.5,0.2-2,0.5
		c-0.4,0.3-0.7,0.7-0.7,1.2c0,0.6,0.3,1.1,0.9,1.5c0.6,0.4,1.4,0.8,2.6,1.2c0.9,0.3,1.6,0.6,2.3,1c0.7,0.3,1.2,0.7,1.6,1.2
		c0.4,0.4,0.8,0.9,1,1.5c0.2,0.6,0.3,1.2,0.3,2c0,0.8-0.2,1.6-0.5,2.2c-0.3,0.6-0.8,1.1-1.4,1.5c-0.6,0.4-1.2,0.7-2,0.9
		c-0.7,0.2-1.5,0.3-2.3,0.3c-3.1,0-5.2-1-6.5-3.1L349.2,28.2z"/>
	<g>
		<rect x="9.8" y="15.7" class="st1" width="5.3" height="16.9"/>
		<polygon class="st1" points="52,25 47.9,15.7 42.5,15.7 42.5,32.6 47.4,32.6 47.4,24.3 51.3,32.7 52.6,32.7 56.6,24.3 56.6,32.6 
			61.5,32.6 61.5,15.7 56,15.7 		"/>
		<polygon class="st0" points="22,10 24.7,18.7 27.6,10 30.8,10 33.7,18.7 36.5,10 41.3,10 44.4,0 14.1,0 17.2,10 		"/>
		<path class="st0" d="M14.6,5.7H0v38.1h26.6L14.7,6L14.6,5.7z M15.1,32.6H9.8V15.7h5.3V32.6z"/>
		<path class="st0" d="M43.9,5.7L31.8,43.8h37.2V5.7H43.9z M61.5,32.6h-4.9v-8.3l-3.9,8.4h-1.4l-3.9-8.4v8.3h-4.9V15.7h5.4L52,25
			l4.1-9.3h5.4V32.6z"/>
		<polygon class="st0" points="29.2,17.4 26.2,26.9 22.6,26.9 26.1,38.1 32.4,38.1 35.9,26.9 32.3,26.9 		"/>
	</g>
</g>
</svg>
