<svg version="1.1" id="Layer_1" xmlns="http://www.w3.org/2000/svg" x="0" y="0" viewBox="0 0 99.7 32" xml:space="preserve"><style>.st0{fill:#0973b9}.st2{fill:#24b24c}</style><path class="st0" d="M40.2 21c1.8-1.9 3.7-3.7 5.6-5.6V21c0 .2 0 .2-.2.2h-4.7c-.3 0-.5-.1-.7-.2 0 .1 0 0 0 0z"/><path d="M59.4 1.6c.2.3.3.7.3 1.1v16.6c0 .7-.3 1.2-.8 1.6-.3.2-.6.3-1 .3H47c-.3 0-.3 0-.3-.2v-6.3c0-.1 0-.2.1-.3l4.5-4.5c1.2-1.2 2.3-2.4 3.5-3.6l4.5-4.5c0-.1 0-.2.1-.2z" fill="#00a551"/><path class="st2" d="M59.4 1.6c.2.3.3.7.3 1.1v16.6c0 .7-.3 1.2-.8 1.6-.3.2-.6.3-1 .3H47c-.3 0-.3 0-.3-.2v-6.3c0-.1 0-.2.1-.3l4.5-4.5c1.2-1.2 2.3-2.4 3.5-3.6l4.5-4.5c0-.1 0-.2.1-.2zM39.5 20.5c-.3-.4-.4-.7-.4-1.1v-7.1V9c0-.2 0-.3.2-.4 1.2-1.2 2.4-2.4 3.5-3.6.9-.9 1.8-1.9 2.8-2.8l.2-.2V13.9c0 .1 0 .2-.1.3-1.2 1.2-2.4 2.4-3.6 3.7-.8.8-1.6 1.6-2.3 2.4-.2 0-.2.1-.3.2z"/><path class="st0" d="M46.7 13.1v-.2-12c0-.3 0-.3.3-.3h11c.3 0 .5.1.8.3C54.7 5 50.7 9 46.7 13.1zM39.1 7.4V5.8 2.7c0-.5.1-1 .5-1.3.3-.4.7-.6 1.2-.6H45.7c-2.2 2.1-4.4 4.3-6.6 6.6z"/><path fill="#FFF" d="M20.158 24.659c.43 0 .828-.003 1.225.004.037.001.09.056.107.098.344.847.684 1.695 1.024 2.543l.363.904c.013.032.029.064.055.121l.215-.553c.39-1.005.781-2.01 1.169-3.016.029-.075.061-.106.145-.104.361.005.723.002 1.109.002-.029.052-.043.094-.069.124-.147.163-.15.361-.125.557.105.848.218 1.695.326 2.543.05.39.084.783.151 1.17.026.148.121.285.189.425.024.049.062.092.105.152h-1.301c.061-.096.13-.188.179-.289.08-.166.05-.342.029-.519-.083-.701-.158-1.404-.236-2.106l-.124-1.137-.014-.073-1.718 4.182a.975.975 0 01-.373-.387c-.209-.428-.413-.86-.599-1.298-.331-.778-.648-1.563-.971-2.344a.335.335 0 00-.077-.119l-.066.432-.407 2.774a3.023 3.023 0 00-.038.367c-.004.216.155.351.285.518h-1.241c.068-.094.135-.177.193-.266.186-.285.223-.613.271-.938.114-.77.233-1.539.347-2.308.046-.313.086-.628.126-.942.019-.152-.014-.286-.144-.385-.036-.027-.06-.071-.11-.132zM26.997 24.659h.319c.273 0 .547.004.82-.002.094-.002.139.025.175.116.453 1.14.912 2.278 1.37 3.417l.062.145.735-1.86c.225-.571.452-1.14.673-1.713.032-.082.073-.106.157-.105.357.004.715.002 1.071.002.004.015.01.026.008.028-.26.254-.19.576-.158.876.072.686.166 1.371.255 2.055.06.461.124.923.191 1.383.031.216.143.398.269.571.011.015.019.032.036.06h-1.32c.051-.06.093-.106.131-.155.126-.163.123-.355.105-.543-.041-.427-.096-.854-.145-1.28l-.207-1.782a1.587 1.587 0 00-.066-.332l-1.68 4.148a1.464 1.464 0 01-.546-.653l-1.402-3.391c-.016-.04-.035-.079-.067-.149l-.151 1.026c-.122.805-.242 1.611-.367 2.415-.034.216-.007.408.162.562.04.037.087.066.131.099l-.029.035h-1.221c.015-.027.023-.049.037-.065.268-.316.369-.694.423-1.095.096-.704.2-1.406.302-2.11.059-.409.125-.817.171-1.227.01-.089-.047-.191-.089-.279-.034-.064-.092-.117-.155-.197zM17.73 24.666h1.352c-.306.284-.29.649-.294.995-.012.993-.005 1.986-.003 2.979 0 .132.006.266.025.396.031.215.064.432.288.593h-1.072v-.382c-.084.059-.143.105-.205.145-.558.357-1.162.487-1.804.31-.403-.111-.754-.329-.962-.713a1.744 1.744 0 01-.205-.809c-.013-.888-.016-1.776-.021-2.664-.003-.466 0-.466-.257-.847h1.348c-.178.14-.237.324-.264.519-.02.147-.036.295-.037.443-.004.671-.006 1.343.001 2.014.003.269.02.538.05.805.044.38.388.713.798.746.317.026.636.03.945-.111.367-.168.559-.444.566-.833.017-.904.017-1.808.019-2.713 0-.124-.018-.248-.037-.371-.029-.183-.08-.36-.231-.502zM6.689 27.102h.956c.002.037.007.072.007.106 0 .74-.001 1.479.002 2.219 0 .091-.025.123-.117.136-.373.051-.744.121-1.118.166-.409.049-.817.01-1.222-.058a2.446 2.446 0 01-1.137-.491 2.418 2.418 0 01-.826-1.187 2.552 2.552 0 01-.106-1.046c.03-.263.082-.537.191-.776.348-.769.933-1.284 1.755-1.508.672-.184 1.344-.125 2.011.032.026.006.059.053.06.081.005.233.003.465.003.712-.164-.079-.314-.16-.472-.224-.638-.26-1.263-.235-1.859.12-.352.21-.575.527-.707.913-.168.49-.165.984-.049 1.482.166.716.724 1.254 1.512 1.379.443.07.871.026 1.295-.101.038-.011.092-.062.092-.094a28.6 28.6 0 00-.023-1.277c-.011-.214-.06-.425-.248-.584zM10.305 28.624c.126.066.228.118.329.172.326.176.66.331 1.034.371.359.038.709.021 1.043-.153.4-.208.58-.828.099-1.148a9.867 9.867 0 00-.973-.548c-.351-.18-.708-.352-.993-.628-.195-.189-.336-.42-.332-.709.001-.116.003-.233.019-.348a.95.95 0 01.435-.687c.501-.334 1.055-.426 1.641-.366.275.028.548.076.823.108.08.009.11.036.109.119-.005.236-.002.473-.002.738-.063-.04-.109-.066-.152-.097a1.908 1.908 0 00-1.464-.328c-.261.043-.565.271-.583.55-.016.235.059.44.257.558.395.236.806.444 1.208.669.213.119.423.246.629.377.43.274.591.853.436 1.33-.101.312-.297.538-.556.729-.43.317-.921.434-1.438.431-.43-.003-.85-.109-1.261-.235a.111.111 0 01-.061-.063c-.084-.27-.161-.542-.247-.842zM36.898 25.244c-.263 0-.517-.019-.766.005-.244.023-.501.036-.689.246l-.021-.023c.07-.257.137-.515.214-.77.007-.024.079-.041.121-.041.776-.002 1.552-.002 2.327-.002h1.113l-.223.795c-.016 0-.026.003-.03 0a.834.834 0 00-.594-.217c-.224.002-.448 0-.681 0-.002.036-.005.078-.005.121 0 1.097-.001 2.195.001 3.292 0 .152.014.305.03.456.021.199.117.364.269.523H36.65c.069-.162.156-.326.208-.501.038-.128.04-.27.04-.406.003-1.142.002-2.283.002-3.425.001-.02-.002-.04-.002-.053zM1.058 24.665H2.42c-.276.284-.293.627-.293.975 0 1.431-.001 2.862.001 4.292.001.484-.237.817-.644 1.048-.302.172-.636.233-.983.275.064-.05.125-.104.191-.15.434-.301.631-.733.64-1.243.02-1.109.023-2.218.027-3.326.002-.409-.012-.819-.019-1.229-.004-.243-.1-.449-.282-.642zM33.559 24.666h1.343c-.055.076-.117.143-.156.221-.107.214-.121.449-.121.682-.002 1.094-.001 2.187.007 3.281.001.154.029.313.074.461.035.113.116.212.178.32h-1.34c.29-.267.283-.618.286-.954.009-1.025.006-2.051.001-3.076-.001-.24-.011-.484-.119-.706-.036-.078-.095-.145-.153-.229zM53.132 25.876a2.217 2.217 0 00-.915-.96c-.479-.255-.995-.433-1.517-.383-.605-.019-.86.071-1.276.262-.683.313-1.135.841-1.404 1.528-.138.35-.181.718-.138 1.1.04.359.112.703.285 1.022.291.534.707.935 1.274 1.164.579.233 1.179.258 1.791.171 1.209-.172 2.144-1.429 2.196-2.317.033-.562-.039-1.09-.296-1.587zm-.975 2.659a1.831 1.831 0 01-1.341.731c-.667.053-1.201-.182-1.621-.715-.326-.413-.443-.889-.46-1.387a2.082 2.082 0 01.445-1.391 1.785 1.785 0 011.342-.7 1.77 1.77 0 011.334.448c.515.448.689 1.027.715 1.514.006.652-.11 1.11-.414 1.5zM91.017 24.636h1.116c-.333.321-.296.729-.298 1.122-.004 1.295-.002 2.59-.002 3.886v.155a.598.598 0 01-.466-.116c-.355-.25-.611-.594-.876-.929l-2.269-2.874c-.02-.026-.042-.051-.077-.093-.006.044-.014.072-.014.1l-.001 3.22c0 .171.054.322.164.453l.113.138h-1.153c.291-.271.291-.621.292-.964.005-1.049.003-2.097.001-3.146 0-.131-.007-.263-.027-.393-.03-.205-.081-.404-.28-.553.056-.006.086-.012.116-.012.271-.001.543.002.814-.002a.195.195 0 01.175.084c.944 1.198 1.89 2.393 2.836 3.589.024.031.05.059.088.104.005-.039.01-.058.01-.076-.002-.962-.001-1.924-.009-2.886a1.532 1.532 0 00-.068-.436c-.039-.128-.119-.244-.185-.371zM47.166 29.703h-1.417c.189-.149.248-.337.281-.536.016-.097.028-.196.029-.294.003-.53.001-1.06.001-1.599h-2.73c-.003.03-.008.061-.008.092-.001.465-.008.929.003 1.394.006.252.004.512.151.737.042.065.092.125.147.2h-1.367c.052-.069.129-.13.151-.207.056-.195.111-.396.124-.597.021-.336.012-.674.011-1.011-.001-.806-.001-1.612-.008-2.417a1.435 1.435 0 00-.056-.413c-.045-.144-.127-.276-.192-.411h1.322c0 .011.003.022 0 .026-.196.204-.272.455-.274.73-.004.419-.001.837-.001 1.265h2.731c0-.122.002-.24 0-.358-.006-.333-.008-.665-.023-.998-.011-.236-.057-.465-.254-.63-.007-.006-.008-.02-.015-.039h1.4c-.056.061-.106.107-.145.161a.808.808 0 00-.156.484v3.775c0 .249.097.46.295.646zM70.216 29.803a.663.663 0 01-.481-.13c-.315-.226-.552-.526-.79-.825-.787-.986-1.573-1.974-2.359-2.961l-.082-.095c-.007.031-.014.048-.014.066l.004 3.059c0 .275.051.531.256.734.01.01.016.026.03.05h-1.142c.314-.307.291-.696.292-1.074.004-1.012.003-2.023 0-3.035 0-.143-.011-.288-.032-.43-.029-.196-.092-.381-.251-.532.257 0 .515.013.77-.004.18-.012.287.051.397.192.929 1.188 1.867 2.37 2.802 3.553.005.006.012.011.031.027.005-.038.011-.066.011-.095 0-.929.003-1.859-.002-2.788a1.791 1.791 0 00-.06-.474c-.04-.14-.126-.268-.191-.4h1.085c-.305.342-.271.756-.272 1.16-.003 1.283-.001 2.566-.001 3.849l-.001.153zM57.998 29.722c.702-.014 1.405-.022 2.107-.046a2.813 2.813 0 001.376-.408c.395-.237.69-.564.891-.978.153-.314.245-.645.263-.993.029-.563-.068-1.096-.406-1.564-.543-.753-1.314-1.064-2.207-1.099-.645-.025-1.291-.005-1.937-.005-.034 0-.068.005-.111.008.055.081.108.145.146.216.125.233.123.492.124.745.006 1.049.004 2.097.001 3.146 0 .143-.014.287-.03.429a.818.818 0 01-.242.511l.025.038zm1.048-4.288c-.002-.13.048-.172.16-.192a3.168 3.168 0 011.308.037c.301.071.531.264.757.462.235.205.354.481.45.763.052.152.063.323.065.486.004.229.011.465-.037.687a1.922 1.922 0 01-.25.637 1.86 1.86 0 01-1.077.794c-.395.11-.796.084-1.195.005-.178-.035-.178-.035-.178-.224v-1.714c.001-.582.006-1.162-.003-1.741zM75.833 29.624c-.364.058-.726.127-1.092.17-.425.051-.853.06-1.278-.006-.751-.117-1.367-.462-1.812-1.091-.335-.472-.457-1.009-.442-1.572.02-.801.352-1.463.972-1.978a2.53 2.53 0 011.259-.578c.423-.063.847-.101 1.273-.008.207.045.419.067.634.1v.827l-.15-.087c-.652-.384-1.339-.434-2.031-.152-.469.19-.767.581-.936 1.045a2.473 2.473 0 00.039 1.841c.231.554.676.902 1.248 1.043a2.767 2.767 0 001.542-.072c.066-.022.08-.052.079-.113-.002-.419.003-.839-.003-1.258-.003-.227-.109-.417-.273-.589.03-.009.047-.018.064-.018.271-.001.543.001.814-.002.07-.001.104.015.104.095-.003.781-.002 1.562-.003 2.344 0 .008-.004.016-.006.024l-.002.035zM79.643 24.649v.869c-.059-.038-.107-.065-.151-.098-.278-.205-.601-.3-.934-.356a1.255 1.255 0 00-.824.132c-.436.241-.459.725-.079 1.024.286.225.633.375.957.55.389.209.813.365 1.118.704.286.318.405.681.286 1.112-.135.493-.475.789-.911 1.002-.662.323-1.349.298-2.043.136-.151-.035-.343-.039-.438-.135-.095-.095-.094-.287-.133-.438-.04-.154-.078-.308-.123-.488.141.083.26.151.378.222.4.243.844.358 1.301.364.366.005.729-.064 1.002-.378.284-.327.134-.776-.138-.974-.178-.13-.381-.224-.574-.332-.422-.237-.849-.465-1.264-.712-.424-.252-.584-.8-.502-1.214.091-.458.381-.763.817-.921.458-.167.933-.22 1.417-.169.277.031.553.066.838.1zM97.284 28.694c-.131.306-.247.582-.367.855a.143.143 0 01-.076.069c-.803.27-1.616.319-2.408-.007-.808-.333-1.34-.939-1.534-1.801-.168-.746-.058-1.458.388-2.092.504-.716 1.196-1.117 2.074-1.187.471-.038.934.001 1.383.151.04.013.093.064.095.099.008.246.004.493.004.761-.084-.043-.153-.083-.226-.116-.744-.331-1.477-.357-2.181.104a1.41 1.41 0 00-.563.758c-.248.747-.198 1.464.243 2.132.455.688 1.255.928 1.988.733.346-.092.674-.25 1.01-.379.049-.018.095-.044.17-.08zM54.155 24.636h1.368c-.016.026-.024.048-.039.064-.172.189-.237.412-.236.666a467.55 467.55 0 01-.001 3.553c0 .116.039.147.146.152.156.007.31.032.466.046a2.693 2.693 0 001.59-.326l.098-.052c.007-.004.015-.005.042-.013l-.232.638c-.041.111-.058.262-.139.319-.081.057-.229.022-.348.022h-2.74c.333-.3.31-.683.314-1.046.011-.999.007-1.999.002-2.998-.001-.266-.004-.537-.122-.785-.042-.082-.109-.154-.169-.24zM64.802 29.703h-1.427c.211-.155.265-.359.294-.57.02-.142.03-.286.031-.429.003-1.019.009-2.038-.004-3.057-.003-.25-.061-.502-.116-.748-.021-.092-.106-.169-.165-.258h1.392c-.06.066-.116.118-.16.179a.774.774 0 00-.143.463c-.002 1.262-.003 2.523.001 3.785a.834.834 0 00.297.635zM85.036 24.637h1.363c-.02.031-.031.052-.046.069-.174.189-.233.414-.233.667.003 1.192.004 2.384 0 3.575-.001.261.056.495.235.691.013.014.021.032.039.061h-1.381c.322-.277.297-.646.301-.99.013-1.027.006-2.055.004-3.082 0-.127-.006-.255-.025-.38-.035-.221-.052-.454-.286-.589l.029-.022zM80.791 30.527c.099-.115.19-.205.26-.309.07-.104.119-.222.181-.341-.083-.025-.156-.036-.218-.068-.168-.087-.22-.239-.222-.419a.464.464 0 01.253-.433c.323-.182.68.033.711.414.02.254-.053.48-.186.687-.1.154-.223.293-.331.441-.051.07-.114.085-.193.07-.076-.014-.152-.025-.255-.042zM98.997 29.348c0 .266-.19.451-.449.464-.272.013-.457-.204-.475-.46-.018-.254.218-.483.472-.474.287.011.482.232.452.47z"/></svg>