
<svg width="105px" height="51px" viewBox="0 0 105 51" version="1.1" xmlns="http://www.w3.org/2000/svg" xmlns:xlink="http://www.w3.org/1999/xlink">
    <!-- Generator: Sketch 44.1 (41455) - http://www.bohemiancoding.com/sketch -->
    <desc>Created with Sketch.</desc>
    <defs>
        <polygon id="path-1" points="31.3370876 0.0782034068 31.3370876 35.4440952 0.00822121349 35.4440952 0.00822121349 0.0782034068 31.3370876 0.0782034068"></polygon>
    </defs>
    <g id="12.1-13-App-detail" stroke="none" stroke-width="1" fill="none" fill-rule="evenodd">
        <g id="13-App-Detail---WAF" transform="translate(-815.000000, -586.000000)">
            <g id="---Header" transform="translate(75.000000, 315.000000)">
                <g id="---Quote" transform="translate(660.000000, 185.000000)">
                    <g id="::-bloc">
                        <g id="Jive-logo" transform="translate(80.000000, 86.000000)">
                            <path d="M15.6695072,0.887737821 L5.04199175,0.887737821 L5.04199175,7.21664167 C6.93783711,7.41050705 10.660466,7.77001346 15.6695072,8.15371218 L15.6695072,0.887737821 Z" id="Fill-1" fill="#FFFFFF"></path>
                            <path d="M15.6695072,11.3934436 C10.3072546,10.6765013 6.63106392,10.0415077 5.04199175,9.75185385 L5.04199175,36.288091 C5.04199175,36.288091 5.19570309,38.4559179 3.99025979,39.9236936 C2.35648144,41.9129115 4.32989691e-05,42.1904692 4.32989691e-05,42.1904692 L3.86187835,50.9218218 C3.86187835,50.9218218 6.08636289,50.5138218 8.26928041,49.4587321 C10.975466,48.1508218 12.8519351,46.7669564 14.3028835,44.1428538 C15.753832,41.5187513 15.6695072,38.5900654 15.6695072,38.5900654 L15.6695072,11.3934436 Z" id="Fill-3" fill="#FFFFFF"></path>
                            <path d="M23.1950304,35.273191 L33.8225459,35.273191 L33.8225459,13.3246654 C29.9616851,13.0123449 26.4032675,12.6644987 23.1950304,12.3101141 L23.1950304,35.273191 Z" id="Fill-5" fill="#FFFFFF"></path>
                            <g id="Group-9" transform="translate(73.608247, 0.030840)">
                                <mask id="mask-2" fill="white">
                                    <use xlink:href="#path-1"></use>
                                </mask>
                                <g id="Clip-8"></g>
                                <path d="M30.987784,12.4279699 C29.8417686,6.58149551 26.25315,-0.0155942308 16.3643149,0.0792134615 C9.86762938,0.141110897 4.87980464,3.77344423 2.20122216,8.82211731 C9.47101082,8.32922628 14.6498923,7.76506603 15.2834644,7.69390577 C16.3141964,7.57763013 18.6915263,7.78304679 20.1595778,8.61866218 C22.724284,10.0788096 22.5736036,12.9769827 22.5736036,12.9769827 C22.5736036,12.9769827 13.6218665,14.0010147 0.300722165,14.3860212 C0.0445005155,15.8452968 -0.0470768041,17.3480532 0.0406036082,18.8601814 C0.658588144,29.5091558 8.38474794,35.5453545 18.6317737,35.4428096 C26.4928098,35.3642391 30.4822686,33.1835532 30.4822686,33.1835532 L25.1413407,26.1486045 C25.1413407,26.1486045 19.007284,27.9761045 14.5942531,26.3691686 C10.4778201,24.8701173 10.2441139,21.233316 10.2441139,21.233316 L31.2516912,19.7965981 C31.2516912,19.7965981 31.5663665,15.3779058 30.987784,12.4279699" id="Fill-7" fill="#FFFFFF" mask="url(#mask-2)"></path>
                            </g>
                            <path d="M62.5924376,0.887737821 L56.256283,21.0204237 L54.1733861,14.4228981 C50.3954428,14.3202442 46.7674222,14.1652827 43.3134634,13.972725 L51.2236438,35.2731801 L60.84435,35.2731801 L73.9013706,0.887737821 L62.5924376,0.887737821 Z" id="Fill-10" fill="#FFFFFF"></path>
                            <path d="M49.9004814,0.887737821 L38.4540742,0.887737821 L41.6486722,9.48973782 C45.2126103,9.58029551 48.9029814,9.63293013 52.6611155,9.63282115 L49.9004814,0.887737821 Z" id="Fill-12" fill="#FFFFFF"></path>
                            <path d="M23.1950304,8.67514359 C26.4626954,8.87805385 30.0333448,9.06930385 33.8225459,9.22688077 L33.8225459,0.887726923 L23.1950304,0.887726923 L23.1950304,8.67514359 Z" id="Fill-14" fill="#FFFFFF"></path>
                        </g>
                    </g>
                </g>
            </g>
        </g>
    </g>
</svg>