<svg width="25" height="25" xmlns="http://www.w3.org/2000/svg" viewBox="0 0 36 36" enable-background="new 0 0 36 36"><path fill="#343232" d="M33.3 0h-30.6c-1.5 0-2.7 1.2-2.7 2.6v30.8c0 1.4 1.2 2.6 2.7 2.6h30.7c1.5 0 2.7-1.2 2.7-2.6v-30.8c-.1-1.4-1.3-2.6-2.8-2.6zm-22.6 30.7h-5.4v-17.2h5.3v17.2zm-2.7-19.6c-1.7 0-3.1-1.4-3.1-3.1 0-1.7 1.4-3 3.1-3 1.7 0 3.1 1.4 3.1 3.1 0 1.7-1.4 3-3.1 3zm22.7 19.6h-5.3v-8.4c0-2 0-4.6-2.8-4.6s-3.2 2.2-3.2 4.4v8.5h-5.4v-17.1h5.1v2.3h.1c.7-1.4 2.5-2.8 5.1-2.8 5.4 0 6.4 3.6 6.4 8.2v9.5z"/></svg>