<svg xmlns="http://www.w3.org/2000/svg" viewBox="0 0 42.27 36"><path d="M40.27 29.05c.42-.05.64-.29.64-.68 0-.48-.29-.71-.88-.71h-.95v2.51h.36v-1.09h.44l.01.01.69 1.08h.38l-.74-1.12h.05zm-.41-.25h-.42v-.85h.53c.28 0 .59.05.59.4-.01.42-.32.45-.7.45z"/><path d="M39.9 26.55c-1.33 0-2.37 1.04-2.37 2.37s1.04 2.37 2.37 2.37 2.37-1.04 2.37-2.37-1.04-2.37-2.37-2.37zm0 4.43c-1.13 0-2.03-.9-2.03-2.06 0-1.16.89-2.06 2.03-2.06 1.14 0 2.02.9 2.02 2.06 0 1.17-.89 2.06-2.02 2.06z"/><path fill="#007BB6" d="M33.34 0H2.66C1.19 0 0 1.16 0 2.6v30.8C0 34.84 1.19 36 2.66 36h30.68C34.8 36 36 34.84 36 33.4V2.6C36 1.16 34.8 0 33.34 0z"/><path fill="#FFF" d="M5.33 13.5h5.34v17.18H5.33V13.5zm2.68-8.54c1.71 0 3.09 1.39 3.09 3.1 0 1.71-1.39 3.1-3.09 3.1-1.71 0-3.1-1.39-3.1-3.1 0-1.72 1.38-3.1 3.1-3.1M14.03 13.5h5.12v2.35h.07c.71-1.35 2.45-2.77 5.05-2.77 5.41 0 6.41 3.56 6.41 8.18v9.42h-5.34v-8.35c0-1.99-.03-4.56-2.77-4.56-2.78 0-3.2 2.17-3.2 4.41v8.5h-5.33V13.5z"/></svg>