<svg xmlns="http://www.w3.org/2000/svg" xmlns:xlink="http://www.w3.org/1999/xlink" viewBox="0 0 146 53"><defs><path id="a" d="M12.501 40.409l27.385-12.356L27.53.001.144 12.357l12.357 28.054"/></defs><g fill="none" fill-rule="evenodd"><path fill="#FFF" fill-rule="nonzero" d="M140.329 18.071h-31.447v33.675h31.447zM103.204 17.292l4.286 30.168-30.502 4.286L72.87 22.58l1.781-1.391 28.554-3.896"/><g transform="matrix(1 0 0 -1 36.232 52.012)"><mask id="b" fill="#fff"><use xlink:href="#a"/></mask><path fill="#FFF" fill-rule="nonzero" mask="url(#b)" d="M-36.232 50.012H108.77v-50H-36.232z"/></g><path fill="#FFF" fill-rule="nonzero" d="M30.611 17.249l4.514 29.687L4.86 51.681-.001 21.938l30.612-4.688"/><path fill="#F2F2F3" fill-rule="nonzero" d="M98.016 23.073c-.138-.937-.458-1.652-.976-2.12-.413-.374-.931-.563-1.522-.562-.151 0-.307.012-.468.036-.792.113-1.398.48-1.77 1.086-.27.437-.401.965-.401 1.572 0 .233.02.478.057.735l1.113 7.85-8.77 1.29-1.113-7.851c-.135-.913-.45-1.62-.962-2.102a2.134 2.134 0 00-1.509-.588 2.9 2.9 0 00-.421.033c-.826.118-1.454.478-1.836 1.075-.277.43-.41.96-.41 1.577 0 .237.02.487.058.75l3 20.416c.138.939.467 1.652 1.006 2.113.421.36.949.541 1.553.54.165 0 .337-.013.514-.039.755-.11 1.338-.474 1.69-1.08.252-.43.375-.946.375-1.537 0-.236-.02-.484-.058-.744l-1.226-8.066 8.77-1.289 1.227 8.066c.134.926.46 1.636.992 2.103.422.371.945.558 1.537.557.152 0 .308-.011.47-.035.788-.115 1.392-.476 1.753-1.077.26-.428.385-.948.385-1.547 0-.237-.019-.486-.057-.748l-3.001-20.414zM62.348 34.365c-1.032 2.43-2.394 4.098-4.08 5.022-.903.495-1.828.74-2.786.74-.832 0-1.69-.186-2.575-.56-1.917-.818-3.11-2.131-3.627-3.983a7.287 7.287 0 01-.26-1.961c0-1.36.341-2.851 1.03-4.474 1.054-2.488 2.432-4.185 4.119-5.115.9-.496 1.827-.743 2.787-.743.842 0 1.71.189 2.611.57 1.904.81 3.086 2.127 3.594 3.988.165.608.248 1.248.248 1.922 0 1.388-.35 2.92-1.061 4.594zm3-12.22c-1.076-1.134-2.383-2.027-3.916-2.677-1.521-.646-3.06-.969-4.61-.969h-.07c-1.575.01-3.13.361-4.664 1.05v-.001a12.655 12.655 0 00-4.19 2.931c-1.187 1.255-2.154 2.764-2.9 4.522-.736 1.737-1.144 3.475-1.22 5.214a13.283 13.283 0 00.776 5.096c.557 1.55 1.38 2.892 2.464 4.023 1.084 1.132 2.418 2.032 3.996 2.7 1.509.64 3.041.961 4.594.96h.04c1.565-.007 3.118-.342 4.653-1.002h.001l.001-.001a13.293 13.293 0 004.224-2.965c1.2-1.255 2.171-2.76 2.913-4.508.742-1.748 1.146-3.488 1.212-5.219a13.121 13.121 0 00-.816-5.073c-.582-1.585-1.413-2.946-2.488-4.08zM27.359 42.208a2.129 2.129 0 00-.95-.632c-.403-.14-.89-.208-1.462-.208-.54 0-1.157.06-1.853.179l-7.988 1.365c.084-.615.39-1.424.929-2.41.602-1.105 1.49-2.432 2.662-3.976l.922-1.233c.153-.189.366-.467.64-.834 1.828-2.397 2.96-4.349 3.393-5.88a12.304 12.304 0 00.475-3.345c0-.631-.051-1.253-.156-1.865-.095-.558-.232-1.022-.417-1.395-.184-.371-.417-.654-.706-.832-.325-.198-.783-.282-1.381-.283-.495 0-1.088.06-1.782.178l-9.23 1.58c-1.119.191-1.944.52-2.47 1.016a1.967 1.967 0 00-.634 1.485c0 .153.014.31.043.474.13.784.538 1.36 1.197 1.652.39.175.86.26 1.408.26.373 0 .784-.04 1.232-.116l7.727-1.303a4.145 4.145 0 01-.229 1.826c-.23.64-.802 1.554-1.716 2.716-.258.317-.655.811-1.189 1.481-2.084 2.524-3.576 4.676-4.479 6.466v.002c-.642 1.233-1.087 2.447-1.33 3.641a10.044 10.044 0 00-.215 2.008c0 .46.037.905.11 1.335.107.618.26 1.128.465 1.532.205.402.467.703.79.88.302.164.744.229 1.354.23.773 0 1.814-.114 3.132-.338l8.376-1.433c1.484-.255 2.515-.609 3.115-1.101.479-.393.727-.934.724-1.57 0-.16-.015-.327-.045-.5a2.176 2.176 0 00-.462-1.052zm101.707-.926c-1.205 1.456-2.828 2.179-4.922 2.181-2.109-.002-3.738-.722-4.95-2.171-1.208-1.45-1.82-3.443-1.82-6.002 0-2.607.61-4.63 1.811-6.091 1.205-1.461 2.839-2.186 4.959-2.189 2.094.003 3.716.727 4.922 2.189 1.202 1.46 1.812 3.484 1.812 6.091 0 2.547-.609 4.538-1.812 5.992zm6.463-11.097a12.572 12.572 0 00-2.762-4.202c-1.166-1.19-2.477-2.086-3.924-2.689-1.449-.602-3.015-.903-4.697-.903-1.694 0-3.275.3-4.735.903-1.46.602-2.769 1.5-3.924 2.69a12.167 12.167 0 00-2.743 4.184c-.61 1.565-.914 3.271-.914 5.117 0 1.822.306 3.523.924 5.097a12.711 12.711 0 002.733 4.238 11.361 11.361 0 003.88 2.647c1.453.596 3.048.894 4.78.894 1.668 0 3.232-.298 4.685-.894 1.454-.595 2.768-1.478 3.934-2.645a12.735 12.735 0 002.763-4.23c.623-1.568.934-3.273.934-5.107s-.311-3.535-.934-5.1"/></g></svg>