<svg xmlns="http://www.w3.org/2000/svg" viewBox="0 0 150 38"><defs><filter id="a"><feColorMatrix in="SourceGraphic" values="0 0 0 0 1.000000 0 0 0 0 1.000000 0 0 0 0 1.000000 0 0 0 1.000000 0"/></filter></defs><g fill="none" fill-rule="evenodd" filter="url(#a)" transform="translate(-55 -347)"><g fill-rule="nonzero"><path fill="#000" d="M102.85 376.85l1.86-4.32c2.01 1.5 4.68 2.28 7.32 2.28 1.95 0 3.18-.75 3.18-1.89-.03-3.18-11.67-.69-11.76-8.67-.03-4.05 3.57-7.17 8.67-7.17 3.03 0 6.06.75 8.22 2.46l-1.74 4.41c-1.98-1.26-4.44-2.16-6.78-2.16-1.59 0-2.64.75-2.64 1.71.03 3.12 11.76 1.41 11.88 9.03 0 4.14-3.51 7.05-8.55 7.05-3.69 0-7.08-.87-9.66-2.73m71.37-5.88c-.93 1.62-2.67 2.73-4.68 2.73-2.97 0-5.37-2.4-5.37-5.37s2.4-5.37 5.37-5.37c2.01 0 3.75 1.11 4.68 2.73l5.13-2.85c-1.92-3.42-5.61-5.76-9.81-5.76-6.21 0-11.25 5.04-11.25 11.25s5.04 11.25 11.25 11.25c4.23 0 7.89-2.31 9.81-5.76l-5.13-2.85zm-50.58-23.22h6.42v31.41h-6.42v-31.41zm58.23 0v31.41h6.42v-9.42l7.62 9.42h8.22l-9.69-11.19 8.97-10.44h-7.86l-7.26 8.67v-18.45h-6.42zm-32.73 23.28c-.93 1.53-2.85 2.67-5.01 2.67-2.97 0-5.37-2.4-5.37-5.37s2.4-5.37 5.37-5.37c2.16 0 4.08 1.2 5.01 2.76v5.31zm0-13.5v2.55c-1.05-1.77-3.66-3-6.39-3-5.64 0-10.08 4.98-10.08 11.22s4.44 11.28 10.08 11.28c2.73 0 5.34-1.23 6.39-3v2.55h6.42v-21.6h-6.42z"/><path fill="#E01E5A" d="M63.16 371c0 2.19-1.77 3.96-3.96 3.96s-3.96-1.77-3.96-3.96 1.77-3.96 3.96-3.96h3.96V371zm1.98 0c0-2.19 1.77-3.96 3.96-3.96s3.96 1.77 3.96 3.96v9.9c0 2.19-1.77 3.96-3.96 3.96s-3.96-1.77-3.96-3.96V371z"/><path fill="#36C5F0" d="M69.1 355.1c-2.19 0-3.96-1.77-3.96-3.96s1.77-3.96 3.96-3.96 3.96 1.77 3.96 3.96v3.96H69.1zm0 2.01c2.19 0 3.96 1.77 3.96 3.96s-1.77 3.96-3.96 3.96h-9.93c-2.19 0-3.96-1.77-3.96-3.96s1.77-3.96 3.96-3.96h9.93z"/><path fill="#2EB67D" d="M84.97 361.07c0-2.19 1.77-3.96 3.96-3.96s3.96 1.77 3.96 3.96-1.77 3.96-3.96 3.96h-3.96v-3.96zm-1.98 0c0 2.19-1.77 3.96-3.96 3.96s-3.96-1.77-3.96-3.96v-9.93c0-2.19 1.77-3.96 3.96-3.96s3.96 1.77 3.96 3.96v9.93z"/><path fill="#ECB22E" d="M79.03 376.94c2.19 0 3.96 1.77 3.96 3.96s-1.77 3.96-3.96 3.96-3.96-1.77-3.96-3.96v-3.96h3.96zm0-1.98c-2.19 0-3.96-1.77-3.96-3.96s1.77-3.96 3.96-3.96h9.93c2.19 0 3.96 1.77 3.96 3.96s-1.77 3.96-3.96 3.96h-9.93z"/></g></g></svg>