<svg xmlns="http://www.w3.org/2000/svg" viewBox="0 0 143 36"><defs><filter id="a"><feColorMatrix in="SourceGraphic" values="0 0 0 0 1.000000 0 0 0 0 1.000000 0 0 0 0 1.000000 0 0 0 1.000000 0"/></filter></defs><g fill="none" fill-rule="evenodd" filter="url(#a)" transform="translate(-599 -501)"><path fill="#1C1F2A" fill-rule="nonzero" d="M646.3 516.9c.3-2 2.1-4.5 5.5-4.5 3.2 0 5 2.3 5.3 4.5h-10.8zm-4.4 1.6c0 5.6 4.1 9.4 10 9.4 3.9 0 6.5-1.9 8-3.6.2-.2.2-.4 0-.6l-2.1-1.9c-.2-.2-.5-.2-.6 0-1.1.9-2.7 2.4-5.2 2.4-2.9 0-5-1.8-5.5-4.1H661c.4 0 .6-.2.6-.6v-.9c0-5.4-3.5-9.8-9.4-9.8-6.5 0-10.3 4.3-10.3 9.7zm22.2 8.7c0 .3.2.5.5.5h3.1c.3 0 .5-.2.5-.5v-25.8c-.1-.2-.2-.4-.5-.4h-3.2c-.3 0-.4.2-.4.4v25.8zm-28.6 0c0 .3.2.5.5.5h3c.3 0 .5-.2.5-.5v-10.4c0-4.4-2.6-8-8.1-8h-.1c-2.7 0-4.7.9-5.9 1.9v-1c0-.3-.2-.5-.5-.5h-3.1c-.3 0-.5.2-.5.5v17.4c0 .3.2.5.5.5h3.1c.3 0 .5-.2.5-.5v-9.6c0-3 1.5-5.2 5.1-5.2 3.6 0 5 2.2 5 5.2v9.7zm58.5 5.4c1.4 1.7 4.4 3.7 8.6 3.7 5.9 0 9.4-3.6 9.4-9.3v-17.2c0-.3-.2-.5-.5-.5h-2.9c-.3 0-.5.2-.5.5v1c-1.3-1.1-3-1.9-5.8-1.9-5.3 0-9.9 3.9-9.9 9.6 0 5.8 4.5 9.6 9.9 9.6 2.6 0 4.3-.9 5.6-1.9v1.2c0 3.2-1.9 5.4-5.4 5.4-2.9 0-4.8-1.6-6.1-2.8-.2-.2-.6-.2-.8 0l-1.6 1.8c-.3.2-.3.5 0 .8zm-79.4-14.2c0 3.2-2.4 5.8-5.7 5.8-3.3 0-5.5-2.8-5.5-5.8v-.2c0-3.1 2.3-5.7 5.5-5.7s5.7 2.6 5.7 5.9zm-15.6 0c0 5.2 4.2 9.6 9.9 9.6s9.9-4.4 9.9-9.6v-.2c0-5.2-4.2-9.4-9.9-9.4s-9.9 4.2-9.9 9.6zm87.1 0c0 3.2-2.4 5.8-5.7 5.8-3.2 0-5.5-2.8-5.5-5.8v-.2c0-3.1 2.3-5.7 5.5-5.7 3.3 0 5.7 2.6 5.7 5.9zm-15.6 0c0 5.2 4.2 9.6 9.9 9.6s9.9-4.4 9.9-9.6v-.2c0-5.2-4.2-9.4-9.9-9.4s-9.9 4.2-9.9 9.6zm45.3 8.8c0 .3.2.5.5.5h3.1c.3 0 .5-.2.5-.5v-17.5c0-.2-.1-.4-.4-.4h-3.2c-.3 0-.4.2-.4.4v17.5h-.1zm0-22.5c0 .3.2.5.5.5h3.1c.3 0 .5-.2.5-.5v-3.3c0-.2-.1-.4-.4-.4h-3.2c-.3 0-.4.2-.4.4v3.3h-.1zm21.9 22.5c0 .3.2.5.5.5h3.1c.3 0 .5-.2.5-.5v-10.4c0-4.4-2.6-8-8.1-8h-.1c-2.7 0-4.7.9-5.9 1.9v-1c0-.3-.2-.5-.5-.5h-3.1c-.3 0-.5.2-.5.5v17.4c0 .3.2.5.5.5h3.1c.3 0 .5-.2.5-.5v-9.6c0-3 1.5-5.2 5.1-5.2 3.6 0 5 2.2 5 5.2v9.7h-.1zm-29.7-8.8c0 3.2-2.4 5.8-5.7 5.8-3.3 0-5.5-2.8-5.5-5.8v-.2c0-3.1 2.3-5.7 5.5-5.7s5.7 2.6 5.7 5.9z"/></g></svg>