<svg xmlns="http://www.w3.org/2000/svg" viewBox="0 0 196 44"><defs><linearGradient id="b" x1="108.633%" x2="46.927%" y1="30.097%" y2="65.817%"><stop offset="18%" stop-color="#0052CC"/><stop offset="100%" stop-color="#2684FF"/></linearGradient><filter id="a"><feColorMatrix in="SourceGraphic" values="0 0 0 0 1.000000 0 0 0 0 1.000000 0 0 0 0 1.000000 0 0 0 1.000000 0"/></filter></defs><g fill="none" fill-rule="evenodd" filter="url(#a)" transform="translate(-842 -628)"><g fill-rule="nonzero"><path fill="#2684FF" d="M843.32 646.157a.88.88 0 00-.88 1.021l3.737 22.686c.096.573.59.994 1.17 1h17.929a.88.88 0 00.88-.74l3.746-22.937a.88.88 0 00-.88-1.021l-25.702-.009zm15.736 16.396h-5.722l-1.55-8.09h8.659l-1.387 8.09z"/><path fill="url(#b)" d="M26.704 8.416h-8.261l-1.387 8.09h-5.722L4.578 24.53c.214.185.487.288.77.29H23.28a.88.88 0 00.88-.739l2.544-15.665z" transform="translate(842 646.047)"/><g fill="#253858"><path d="M913.081 630.298c0 1.144.533 2.05 2.606 2.451 1.237.26 1.497.44 1.497.88s-.26.66-1.132.66a6.387 6.387 0 01-3.006-.813v1.861a6.162 6.162 0 002.984.647c2.17 0 3.029-.968 3.029-2.403m0 0c0-1.355-.718-1.994-2.747-2.43-1.118-.246-1.39-.492-1.39-.849 0-.44.4-.638 1.143-.638a6.44 6.44 0 012.62.647v-1.76a5.916 5.916 0 00-2.567-.551c-2.002 0-3.041.88-3.041 2.298M940.943 628.119v7.742h1.651v-5.902l.695 1.567 2.338 4.335h2.073v-7.742h-1.651v4.996l-.625-1.448-1.875-3.548zM928.645 628.119h1.805v7.747h-1.805zM926.563 633.577c0-1.356-.717-1.994-2.746-2.43-1.118-.246-1.391-.493-1.391-.85 0-.44.4-.638 1.144-.638a6.44 6.44 0 012.62.647v-1.76a5.916 5.916 0 00-2.563-.546c-2.002 0-3.041.88-3.041 2.298 0 1.144.533 2.05 2.606 2.451 1.237.26 1.496.44 1.496.88s-.26.66-1.131.66a6.387 6.387 0 01-3.006-.813v1.861a6.162 6.162 0 002.984.647c2.17 0 3.028-.968 3.028-2.403M899.067 628.119v7.742h3.71l.581-1.672h-2.474v-6.07zM891.742 628.119v1.672h2.007v6.07h1.814v-6.07h2.143v-1.672zM889.097 628.119h-2.377l-2.703 7.747h2.065l.383-1.32a5.128 5.128 0 002.887 0l.383 1.32h2.064l-2.702-7.747zm-1.189 5.044c-.335 0-.668-.047-.99-.14l.99-3.381.99 3.38c-.317.093-.646.14-.976.141h-.014zm21.26-5.044h-2.377l-2.702 7.747h2.064l.383-1.32a5.128 5.128 0 002.887 0l.383 1.32h2.065l-2.703-7.747zm-1.188 5.044c-.335 0-.669-.047-.99-.14l.99-3.381.99 3.38a3.522 3.522 0 01-.995.141h.005zm28.967-5.044h-2.377l-2.703 7.747h2.065l.383-1.32a5.128 5.128 0 002.887 0l.383 1.32h2.064l-2.702-7.747zm-1.193 5.044c-.335 0-.669-.047-.99-.14l.99-3.386.99 3.38a3.521 3.521 0 01-.99.146z"/></g><g fill="#253858"><path d="M893.881 645.418c5.19 0 7.708 2.557 7.708 6.664 0 3.08-1.396 4.956-4.261 5.656 3.759.62 5.616 2.671 5.616 6.276 0 4.067-2.75 6.858-8.442 6.858h-10.498v-25.454h9.877zm-6.39 3.332v7.588h5.924c3.292 0 4.648-1.51 4.648-3.962 0-2.451-1.47-3.64-4.648-3.64l-5.925.014zm0 10.691v7.923h7.126c3.332 0 4.841-1.202 4.841-3.76 0-2.71-1.435-4.18-4.916-4.18l-7.052.017zm21.149-15.38a2.174 2.174 0 012.324 2.325 2.324 2.324 0 11-4.648 0 2.174 2.174 0 012.324-2.324zm-1.703 7.435h3.332v19.367h-3.332v-19.367zm16.052 16.119a10.564 10.564 0 002.091-.273v3.213a8.011 8.011 0 01-2.245.308c-4.146 0-6.162-2.438-6.162-6.043v-10.225h-3.138v-3.081h3.138v-4.12h3.235v4.107h5.15v3.08h-5.15v10.164c0 1.703 1.008 2.87 3.081 2.87zm15.824 3.636c-2.826 0-4.996-1.277-6.162-3.795v3.407h-3.332v-27.457h3.354v11.576c1.241-2.557 3.565-3.873 6.545-3.873 5.15 0 7.747 4.375 7.747 10.07-.018 5.463-2.73 10.072-8.152 10.072zm-.506-17.043c-2.993 0-5.634 1.901-5.634 6.197v1.55c0 4.3 2.438 6.197 5.282 6.197 3.759 0 5.695-2.478 5.695-6.972-.035-4.648-1.892-6.972-5.343-6.972zm12.126-2.712h3.332v11.717c0 3.486 1.395 5.036 4.569 5.036 3.081 0 5.23-2.052 5.23-5.965v-10.788h3.331v19.367h-3.332v-3.173a6.792 6.792 0 01-6.118 3.565c-4.455 0-7.012-3.081-7.012-8.407v-11.352zm35.169 18.865c-1.162.621-2.945.88-4.727.88-6.893 0-10.124-4.18-10.124-10.123 0-5.85 3.213-10.031 10.124-10.031a10.238 10.238 0 014.617.955v3.081a9.763 9.763 0 00-4.402-.915c-5.035 0-7.086 3.177-7.086 6.932 0 3.755 2.108 6.915 7.183 6.915 1.498.04 2.99-.196 4.402-.696l.013 3.002zM989.4 670.863v-27.457h3.333v17.166l8.327-9.063h4.34l-9.107 9.503 9.49 9.851h-4.533l-8.522-9.063v9.063zM1016.822 671.25c-7.245 0-10.418-4.181-10.418-10.123 0-5.85 3.253-10.031 9.142-10.031 5.964 0 8.363 4.146 8.363 10.03v1.51h-14.138c.467 3.293 2.597 5.423 7.166 5.423a17.166 17.166 0 005.89-1.047v3.08c-1.59.85-4.028 1.159-6.005 1.159zm-7.086-11.444h10.806c-.194-3.6-1.822-5.656-5.15-5.656-3.53-.017-5.308 2.267-5.656 5.639v.017zm25.793 7.809a10.564 10.564 0 002.091-.273v3.213a8.011 8.011 0 01-2.245.308c-4.146 0-6.162-2.438-6.162-6.043v-10.225h-3.138v-3.081h3.138v-4.12h3.253v4.107h5.15v3.08h-5.15v10.164c.004 1.703 1.003 2.87 3.063 2.87z"/></g></g></g></svg>