<svg xmlns="http://www.w3.org/2000/svg" viewBox="0 0 155 39"><defs><filter id="a"><feColorMatrix in="SourceGraphic" values="0 0 0 0 1.000000 0 0 0 0 1.000000 0 0 0 0 1.000000 0 0 0 1.000000 0"/></filter></defs><g fill="none" fill-rule="evenodd" filter="url(#a)" transform="translate(-323 -325)"><g fill="#737373" fill-rule="nonzero"><path d="M351.514 335.7c-1.207-1.211-2.518-2.14-3.909-2.784-1.39-.645-3.147-.954-5.167-.954-1.627 0-3.174.283-4.617.85a11.445 11.445 0 00-3.777 2.399c-1.102 1.031-1.968 2.294-2.597 3.764-.63 1.47-.945 3.094-.945 4.9 0 1.804.315 3.429.945 4.898.63 1.47 1.495 2.708 2.597 3.739a12.025 12.025 0 003.83 2.424c1.442.567 3.016.85 4.669.85 1.757 0 3.305-.231 4.616-.721 1.312-.49 2.44-1.16 3.384-1.986a9.195 9.195 0 001.705-2.088c.499-.851.892-1.78 1.18-2.81h-11.095v-6.189h18.1c.105.413.183.902.262 1.521.079.62.105 1.186.105 1.78 0 2.449-.367 4.666-1.102 6.703-.734 2.037-1.862 3.816-3.331 5.39-1.653 1.727-3.62 3.042-5.929 3.996-2.308.954-4.957 1.418-7.922 1.418-2.675 0-5.193-.464-7.554-1.418-2.361-.954-4.433-2.27-6.217-3.945-1.758-1.676-3.148-3.662-4.197-5.956-1.05-2.295-1.548-4.848-1.548-7.581 0-2.733.525-5.26 1.548-7.58 1.023-2.321 2.413-4.307 4.197-5.983 1.757-1.676 3.83-2.965 6.217-3.919 2.387-.954 4.905-1.418 7.554-1.418 3.043 0 5.745.516 8.08 1.547 2.334 1.031 4.354 2.45 6.06 4.255l-5.142 4.899zM397.55 352.848c0 3.217-1.165 5.805-3.496 7.766-2.358 1.91-5.233 2.877-8.627 2.877-3.005 0-5.673-.89-7.979-2.667-2.306-1.778-3.886-4.21-4.767-7.27l4.456-1.856c.311 1.098.725 2.092 1.27 2.98.544.89 1.165 1.648 1.89 2.276a8.853 8.853 0 002.41 1.49c.88.366 1.813.55 2.798.55 2.124 0 3.886-.55 5.233-1.674 1.347-1.099 2.02-2.589 2.02-4.42 0-1.542-.57-2.85-1.684-3.948-1.036-1.046-3.005-2.092-5.88-3.085-2.902-1.046-4.715-1.778-5.44-2.145-3.86-1.987-5.777-4.89-5.777-8.76 0-2.693 1.062-4.994 3.186-6.903 2.176-1.908 4.818-2.876 7.979-2.876 2.772 0 5.181.706 7.202 2.144 2.02 1.412 3.393 3.164 4.067 5.282l-4.326 1.805c-.415-1.36-1.218-2.51-2.41-3.4-1.191-.915-2.668-1.36-4.378-1.36-1.839 0-3.367.523-4.61 1.543-1.244.942-1.866 2.197-1.866 3.713 0 1.255.492 2.354 1.477 3.269 1.088.915 3.445 2.013 7.046 3.268 3.679 1.256 6.321 2.825 7.901 4.655 1.529 1.83 2.306 4.08 2.306 6.746zm25.88 9.806h-4.455v-3.478h-.207c-.7 1.23-1.814 2.25-3.265 3.086-1.476.81-3.005 1.229-4.585 1.229-3.057 0-5.388-.89-7.02-2.641-1.632-1.752-2.461-4.262-2.461-7.505v-15.794h4.663v15.48c.103 4.106 2.15 6.145 6.14 6.145 1.865 0 3.419-.758 4.662-2.275 1.244-1.516 1.866-3.347 1.866-5.465v-13.885h4.663v25.103zm10.648-33.758c0 .915-.311 1.7-.959 2.354-.647.653-1.424.967-2.331.967s-1.684-.314-2.332-.967c-.647-.654-.958-1.439-.958-2.354s.31-1.7.958-2.353c.648-.654 1.425-.968 2.332-.968.907 0 1.684.314 2.331.968.648.653.959 1.438.959 2.353zm-.959 8.655v25.103h-4.663v-25.103h4.663zm14.326 25.521c-2.02 0-3.704-.627-5.051-1.882s-2.021-3.034-2.047-5.282v-14.042h-4.378v-4.315h4.352v-7.687h4.663v7.687h6.088v4.315h-6.088v12.499c0 1.673.311 2.798.959 3.4.647.6 1.373.888 2.176.888.362 0 .725-.052 1.088-.13.362-.079.673-.21.984-.34l1.477 4.21c-1.166.444-2.59.68-4.223.68zm17.46.393c-3.652 0-6.657-1.255-9.04-3.792-2.358-2.536-3.55-5.726-3.55-9.57 0-3.818 1.14-7.008 3.446-9.545 2.306-2.536 5.233-3.817 8.834-3.817 3.678 0 6.632 1.203 8.808 3.608 2.176 2.406 3.264 5.78 3.264 10.12l-.052.523h-19.533c.078 2.458.88 4.445 2.435 5.935 1.555 1.491 3.42 2.25 5.596 2.25 2.98 0 5.31-1.491 6.994-4.498l4.171 2.04c-1.114 2.117-2.668 3.765-4.637 4.968-1.995 1.176-4.248 1.778-6.735 1.778zm-7.46-16.396h14.274c-.13-1.752-.83-3.19-2.099-4.34-1.269-1.15-2.979-1.726-5.103-1.726-1.762 0-3.264.55-4.533 1.647-1.296 1.125-2.125 2.59-2.54 4.42z"/></g></g></svg>