<svg xmlns="http://www.w3.org/2000/svg" xmlns:xlink="http://www.w3.org/1999/xlink" viewBox="0 0 223 44"><defs><filter id="a"><feColorMatrix in="SourceGraphic" values="0 0 0 0 1.000000 0 0 0 0 1.000000 0 0 0 0 1.000000 0 0 0 1.000000 0"/></filter><path id="b" d="M0 0h222.3v43.2H0z"/></defs><g fill="none" fill-rule="evenodd" filter="url(#a)" transform="translate(-19 -497)"><g transform="translate(19 497)"><mask id="c" fill="#fff"><use xlink:href="#b"/></mask><g fill-rule="nonzero" mask="url(#c)"><path fill="#00AC47" d="M31.05 27.44V16.682l1.115-2.32 5.576-4.418a1.128 1.128 0 011.859.874V31.93c0 .973-1.14 1.497-1.883.874l-6.667-5.366z"/><path fill="#EA4335" d="M12.6 6.75l-9 9h9z"/><path fill="#2684FC" d="M12.6 15.75h-9v11.7h9z"/><path fill="#0066DA" d="M3.6 27.45v6c0 1.65 1.35 3 3 3h6v-9h-9z"/><path fill="#FFBA00" d="M32.175 9.716c0-1.631-1.321-2.966-2.936-2.966H12.6v9h11.025v5.85l8.55-.27V9.717z"/><path fill="#00AC47" d="M23.625 27.45H12.6v9h16.639c1.615 0 2.936-1.333 2.936-2.961V21.6h-8.55v5.85z"/><path fill="#00832D" d="M32.175 14.4v13.95l-8.55-6.75z"/><g fill="#5F6368"><path d="M158.444 32.492h-2.65V11.871h2.65l7.171 12.557h.116l7.171-12.557h2.649v20.621h-2.649v-12.24l.115-3.456h-.115l-6.451 11.318h-1.556l-6.451-11.318h-.115l.115 3.456zM185.576 32.953c-2.074 0-3.782-.71-5.126-2.132-1.345-1.42-2.016-3.216-2.016-5.385 0-2.15.652-3.936 1.958-5.357 1.305-1.44 2.976-2.16 5.011-2.16 2.093 0 3.754.682 4.983 2.045 1.247 1.344 1.872 3.235 1.872 5.673l-.03.288h-11.087c.038 1.383.499 2.496 1.382 3.341.883.845 1.94 1.267 3.168 1.267 1.69 0 3.015-.844 3.975-2.534l2.361 1.152a7.009 7.009 0 01-2.65 2.794c-1.113.672-2.38 1.008-3.801 1.008zm-4.234-9.216h8.093c-.077-.98-.48-1.786-1.21-2.42-.71-.652-1.67-.979-2.88-.979-.998 0-1.862.307-2.591.922-.711.614-1.181 1.44-1.412 2.477zm19.815 9.216c-2.073 0-3.782-.71-5.126-2.132-1.344-1.42-2.016-3.216-2.016-5.385 0-2.15.653-3.936 1.958-5.357 1.306-1.44 2.976-2.16 5.011-2.16 2.093 0 3.754.682 4.983 2.045 1.248 1.344 1.872 3.235 1.872 5.673l-.029.288h-11.088c.038 1.383.499 2.496 1.382 3.341.884.845 1.94 1.267 3.168 1.267 1.69 0 3.015-.844 3.975-2.534l2.361 1.152a7.009 7.009 0 01-2.65 2.794c-1.113.672-2.38 1.008-3.8 1.008zm-4.233-9.216h8.092c-.077-.98-.48-1.786-1.21-2.42-.71-.652-1.67-.979-2.88-.979-.998 0-1.862.307-2.591.922-.71.614-1.181 1.44-1.411 2.477zm18.503 8.985c-1.152 0-2.112-.355-2.88-1.065-.749-.71-1.132-1.7-1.152-2.967V20.8h-2.477v-2.42h2.477v-4.32h2.65v4.32h3.456v2.42h-3.456v7.027c0 .941.182 1.584.547 1.93.365.326.778.49 1.238.49.211 0 .413-.02.605-.058.211-.058.403-.125.576-.202l.835 2.362c-.69.25-1.497.374-2.419.374zM68.435 23.754v-3.148h10.537c.107.555.17 1.216.17 1.93 0 2.362-.646 5.284-2.725 7.365-2.023 2.108-4.608 3.232-8.036 3.232-6.351 0-11.69-5.172-11.69-11.524 0-6.353 5.339-11.525 11.69-11.525 3.512 0 6.013 1.378 7.896 3.177l-2.22 2.22c-1.35-1.264-3.176-2.248-5.676-2.248-4.637 0-8.262 3.738-8.262 8.376s3.625 8.376 8.262 8.376c3.007 0 4.72-1.208 5.816-2.305.893-.893 1.48-2.174 1.71-3.925h-7.472zM95.2 25.713c0 4.272-3.344 7.42-7.446 7.42-4.103 0-7.447-3.148-7.447-7.42 0-4.3 3.344-7.42 7.447-7.42s7.446 3.119 7.446 7.42zm-3.26 0c.001-2.67-1.938-4.497-4.186-4.497s-4.187 1.826-4.187 4.497c0 2.642 1.938 4.497 4.187 4.497 2.248 0 4.187-1.855 4.187-4.497zm19.505 0c0 4.272-3.344 7.42-7.447 7.42-4.102 0-7.446-3.148-7.446-7.42 0-4.3 3.344-7.42 7.446-7.42 4.103 0 7.447 3.119 7.447 7.42zm-3.26 0c0-2.67-1.938-4.497-4.186-4.497s-4.188 1.826-4.188 4.497c0 2.642 1.94 4.497 4.188 4.497 2.248 0 4.187-1.855 4.187-4.497zm18.83-6.971v13.322c0 5.482-3.23 7.73-7.053 7.73-3.596 0-5.76-2.417-6.575-4.384l2.838-1.181c.506 1.208 1.742 2.642 3.737 2.642 2.445 0 3.963-1.518 3.963-4.357v-1.068h-.113c-.73.9-2.136 1.686-3.906 1.686-3.71 0-7.11-3.232-7.11-7.392 0-4.188 3.4-7.448 7.11-7.448 1.77 0 3.175.787 3.906 1.658h.113v-1.208h3.09zm-2.866 6.999c0-2.614-1.742-4.526-3.962-4.526-2.248 0-4.131 1.912-4.131 4.526 0 2.585 1.883 4.469 4.131 4.469 2.22 0 3.962-1.884 3.962-4.47zM132.535 10.945v21.739h-3.259V10.945zM145.123 28.157l2.529 1.687c-.816 1.208-2.782 3.288-6.182 3.288-4.216 0-7.363-3.26-7.363-7.42 0-4.413 3.175-7.42 6.997-7.42 3.85 0 5.732 3.063 6.351 4.721l.337.844-9.92 4.103c.76 1.49 1.94 2.249 3.598 2.249 1.657 0 2.81-.814 3.653-2.052zm-7.784-2.67l6.63-2.754c-.365-.927-1.46-1.574-2.753-1.574-1.657 0-3.962 1.462-3.877 4.329z"/></g></g></g></g></svg>