<svg xmlns="http://www.w3.org/2000/svg" xmlns:xlink="http://www.w3.org/1999/xlink" viewBox="0 0 158 50"><defs><filter id="a"><feColorMatrix in="SourceGraphic" values="0 0 0 0 1.000000 0 0 0 0 1.000000 0 0 0 0 1.000000 0 0 0 1.000000 0"/></filter><path id="b" d="M.018.045h21.575v27.521H.018z"/></defs><g fill="none" fill-rule="evenodd" filter="url(#a)" transform="translate(-51 -801)"><g transform="translate(51 816)"><mask id="c" fill="#fff"><use xlink:href="#b"/></mask><path fill="#151C22" d="M20.124 27.566h-3.611c-.774 0-1.326-.252-1.916-1.247L6.196 11.75c-.148-.222-.31-.321-.42-.321-.11 0-.272.047-.272.268V26.62c0 .405-.156.946-.561.946H.593c-.405 0-.594-.54-.594-.946V1.378C0 .605.484.045 1.258.045h3.721c.737 0 1.106.335 1.548 1.109l8.733 15.165c.148.22.147.286.258.286.074 0 .148-.082.148-.34V.678c0-.405.405-.633.81-.633h4.349c.405 0 .768.228.768.633v25.278c0 .774-.695 1.61-1.469 1.61" mask="url(#c)"/></g><path fill="#151C22" d="M87.412 834.251H85.31c-2.58 0-3.4.962-3.4 2.768v.331c0 1.548.853 1.843 2.4 1.843 1.106 0 2.256-.369 3.103-.81v-4.132zm5.12 9.315h-4.128c-.405 0-.569-.54-.569-.946v-.59c-1.693 1.032-2.915 1.658-5.126 1.658-3.205 0-6.305-1.547-6.305-6.338v-.331c0-4.312 2.604-6.155 8.905-6.155h2.103v-1.4c0-2.1-1.089-2.605-2.82-2.605-2.358 0-5.031.194-6.174.194h-.184c-.368 0-.56-.057-.56-.536v-2.985c0-.406.207-.7.648-.81 1.364-.333 3.953-.774 6.385-.774 5.307 0 8.633 2.136 8.633 7.517v13.155c0 .405-.404.946-.809.946zm31.835 0h-4.458c-.406 0-.742-.578-.742-.983v-12.566c0-2.358-.55-3.058-2.245-3.058-.627 0-1.786.147-2.892.663.073.737.056 1.585.056 2.395v12.566c0 .405-.22.983-.626.983h-4.459c-.405 0-.842-.578-.842-.983v-12.566c0-2.358-.514-3.058-2.209-3.058-.7 0-1.602.369-2.872.958v14.666c0 .405-.12.983-.525.983h-4.459c-.405 0-.944-.578-.944-.983v-19.604c0-.405.502-.583.907-.583h4.201c.406 0 .82.178.82.583v.81c1.27-1.03 3.275-1.841 5.412-1.841 1.953 0 3.296.552 4.327 1.805 2.138-1.216 3.578-1.805 5.973-1.805 4.864 0 6.305 3.242 6.305 8.07v12.565c0 .405-.322.983-.728.983m16.817-12.738c0-2.727-1.287-4.09-3.35-4.09-2.027 0-3.425 1.4-3.425 4.09v.036h6.775v-.036zm5.106 3.847h-11.88v.06c0 2.1.947 4.049 3.858 4.049 2.322 0 5.664-.299 7.138-.299h.11c.406 0 .749.118.749.523v2.801c0 .59-.172.848-.798.995-2.359.59-4.44.884-7.645.884-4.46 0-9.34-2.358-9.34-9.47v-2.58c0-5.932 3.566-9.69 9.425-9.69 6.044 0 9.204 4.127 9.204 9.69v2.138c0 .553-.341.899-.82.899zm9.543 8.891h-4.496c-.405 0-.838-.578-.838-.983V815.83c0-.406.433-.633.838-.633h4.496c.405 0 .593.227.593.633v26.752c0 .405-.188.983-.593.983M179.341 823.09l-6.19 21.704c-1.142 3.98-2.653 6.006-8.07 6.006-1.363 0-3.555-.295-4.476-.59-.406-.147-.792-.258-.792-.663v-2.985c0-.405.367-.879.773-.879h.073c1.216.423 3.39.385 4.606.385 1.327 0 1.99-.376 2.433-1.85l.331-1.075h-.552c-1.364 0-2.506-.244-3.428-3.45l-4.864-16.592c-.037-.11-.037-.113-.037-.187 0-.368.222-.518.738-.518h4.9c.369 0 .627.255.7.623l3.317 13.888c.11.515.221.732.442.732H169.577l3.426-14.55c.074-.368.37-.693.775-.693h4.9c.369 0 .7.218.7.587 0 .073-.036.033-.036.107"/><path fill="#3966A2" d="M200.834 801.056l-2.645 5.579c-.102-.122-.127-.189-.241-.301a4.544 4.544 0 00-1.425-.972 4.24 4.24 0 00-1.709-.351 4.38 4.38 0 00-2.417.702 4.304 4.304 0 00-1.632 1.899l-4.925 10.953 7.898 3.67 2.641-5.562c.103.129.1.185.221.303.413.414.895.737 1.443.97a4.356 4.356 0 001.735.352c.88 0 1.672-.24 2.374-.723a4.81 4.81 0 001.631-1.918l4.916-10.946-7.865-3.656"/></g></svg>