<svg xmlns="http://www.w3.org/2000/svg" viewBox="0 0 103 56"><defs><filter id="a"><feColorMatrix in="SourceGraphic" values="0 0 0 0 1.000000 0 0 0 0 1.000000 0 0 0 0 1.000000 0 0 0 1.000000 0"/></filter></defs><g fill="none" fill-rule="evenodd" filter="url(#a)" transform="translate(-349 -623)"><path fill="#0071F7" fill-rule="nonzero" d="M450.235 671.96c1.275 1.785 1.02 4.08-.51 5.355-1.785 1.275-4.335 1.02-5.61-.51l-8.925-11.475-8.67 11.22c-1.275 1.785-3.825 1.785-5.61.51-1.785-1.275-2.04-3.57-.765-5.355l10.2-13.26-10.2-13.26c-1.275-1.785-.765-4.335.765-5.61 1.785-1.275 4.335-.765 5.61.765l8.67 11.475 8.925-10.965c1.275-1.785 3.57-2.04 5.61-.765 1.785 1.275 1.785 3.825.51 5.61L440.29 658.7l9.945 13.26zm-46.41-1.53c-6.63 0-11.985-5.1-11.985-11.73 0-6.375 5.355-11.73 11.985-11.73 6.63 0 11.985 5.355 11.985 11.73-.255 6.63-5.61 11.73-11.985 11.73zm-35.19 0c-6.63 0-11.985-5.1-11.985-11.73 0-6.375 5.355-11.73 11.985-11.73 6.63 0 11.985 5.355 11.985 11.73 0 6.63-5.355 11.73-11.985 11.73zm35.19-31.11c-7.395 0-14.025 4.08-17.34 10.2-3.315-6.12-9.945-10.2-17.595-10.2-4.59 0-8.67 1.53-11.985 3.825v-16.32c0-2.04-1.785-3.825-3.825-3.825-2.295 0-4.08 1.785-4.08 3.825v32.13c.255 10.71 8.925 19.125 19.635 19.125 7.65 0 14.28-4.335 17.595-10.455 3.315 6.12 9.945 10.455 17.34 10.455 10.965 0 19.89-8.67 19.89-19.635.255-10.455-8.67-19.125-19.635-19.125z"/></g></svg>