<svg xmlns="http://www.w3.org/2000/svg" viewBox="0 0 67 63"><g fill="none"><path fill="#FFF" d="M46.64 23.325h17.27a2.954 2.954 0 012.955 2.954v15.732c0 5.997-4.862 10.859-10.859 10.859h-.05c-5.998 0-10.86-4.86-10.861-10.857V24.869c0-.853.691-1.544 1.544-1.544z"/><circle cx="58.313" cy="13.217" r="6.997" fill="#FFF"/><circle cx="36.542" cy="10.108" r="10.108" fill="#FFF"/><path fill="#FFF" d="M50.02 23.325H21.51a2.923 2.923 0 00-2.85 2.99v17.943c-.225 9.676 7.43 17.705 17.105 17.942 9.675-.237 17.33-8.266 17.105-17.942V26.315a2.923 2.923 0 00-2.85-2.99z"/><path fill="#6A778B" d="M37.32 23.325v25.144a2.863 2.863 0 01-1.773 2.628c-.34.144-.704.218-1.073.218H20.028a18.422 18.422 0 01-.544-1.555 18.939 18.939 0 01-.824-5.505V26.311a2.919 2.919 0 012.846-2.986H37.32z" opacity=".1"/><path fill="#6A778B" d="M35.765 23.325v26.7c0 .368-.074.733-.218 1.072a2.863 2.863 0 01-2.628 1.773H20.76a20.162 20.162 0 01-.73-1.555 15.423 15.423 0 01-.545-1.555 18.938 18.938 0 01-.824-5.505V26.311a2.919 2.919 0 012.846-2.986h14.259z" opacity=".2"/><path fill="#6A778B" d="M35.765 23.325v23.59a2.867 2.867 0 01-2.846 2.845H19.484a18.938 18.938 0 01-.824-5.505V26.311a2.919 2.919 0 012.846-2.986h14.259z" opacity=".2"/><path fill="#6A778B" d="M34.21 23.325v23.59a2.867 2.867 0 01-2.846 2.845h-11.88a18.938 18.938 0 01-.824-5.505V26.311a2.919 2.919 0 012.846-2.986H34.21z" opacity=".2"/><path fill="#6A778B" d="M37.32 15.286v4.898c-.264.015-.513.031-.778.031-.264 0-.513-.016-.777-.031a8.534 8.534 0 01-1.555-.249 10.107 10.107 0 01-6.998-5.94 8.64 8.64 0 01-.497-1.555h7.76a2.856 2.856 0 012.845 2.846z" opacity=".1"/><path fill="#6A778B" d="M35.765 16.84v3.344a8.534 8.534 0 01-1.555-.249 10.107 10.107 0 01-6.997-5.94h5.706a2.857 2.857 0 012.846 2.846z" opacity=".2"/><path fill="#6A778B" d="M35.765 16.84v3.344a8.534 8.534 0 01-1.555-.249 10.107 10.107 0 01-6.997-5.94h5.706a2.857 2.857 0 012.846 2.846z" opacity=".2"/><path fill="#6A778B" d="M34.21 16.84v3.095a10.107 10.107 0 01-6.998-5.94h4.152a2.857 2.857 0 012.846 2.846z" opacity=".2"/><path fill="#FFF" d="M2.85 13.995h28.51a2.85 2.85 0 012.85 2.85v28.51a2.85 2.85 0 01-2.85 2.85H2.85A2.85 2.85 0 010 45.355v-28.51a2.85 2.85 0 012.85-2.85z"/><path fill="#2E8BE0" d="M24.606 24.846h-5.699v15.519h-3.631V24.846H9.604v-3.011h15.002z"/></g></svg>