<svg xmlns="http://www.w3.org/2000/svg" viewBox="0 0 152 34"><path fill="#FFF" fill-rule="evenodd" d="M123.847 10.194c.58.998.769 2.134.831 3.41l.083 1.701v11.896l.084 1.703c.168 2.78 2.221 4.837 5.028 5.012l1.696.084V15.305l.084-1.701c.07-1.262.257-2.419.846-3.424a6.805 6.805 0 015.895-3.383 6.805 6.805 0 015.884 3.405c.58.997.76 2.154.83 3.402l.083 1.696v11.9l.084 1.704c.176 2.795 2.213 4.851 5.029 5.012L152 34V13.604c0-7.51-6.095-13.6-13.615-13.602a13.593 13.593 0 00-10.216 4.607A13.61 13.61 0 00117.954 0c-2.828 0-5.452.857-7.626 2.337C109.002.859 106.035 0 104.331 0v34l1.704-.084c2.85-.187 4.908-2.188 5.02-5.012l.09-1.703V15.305l.084-1.701c.072-1.284.25-2.412.831-3.417a6.823 6.823 0 015.894-3.388 6.812 6.812 0 015.893 3.395zM6.835 33.918l1.71.082h25.633l-.085-1.696c-.231-2.795-2.221-4.837-5.04-5.02l-1.71-.083H11.965L32.467 6.798l-.084-1.695C32.25 2.28 30.176.24 27.343.083l-1.71-.076L0 0l.084 1.701C.31 4.47 2.327 6.555 5.123 6.715l1.712.084h15.378L1.71 27.202l.084 1.702c.169 2.802 2.202 4.832 5.04 5.012v.002zm90.692-28.94A16.957 16.957 0 01102.533 17c0 4.51-1.8 8.834-5.006 12.022-6.675 6.637-17.493 6.637-24.168 0-6.672-6.639-6.672-17.405 0-24.043A17.118 17.118 0 0185.432 0a17.131 17.131 0 0112.095 4.98V4.98zM92.31 10.17a10.257 10.257 0 010 14.554c-4.04 4.017-10.589 4.017-14.63 0a10.257 10.257 0 010-14.554c4.041-4.016 10.59-4.016 14.63 0zM49.478 0A17.118 17.118 0 0161.55 4.98c6.674 6.637 6.674 17.405 0 24.042-6.676 6.637-17.493 6.637-24.168 0-6.672-6.639-6.672-17.405 0-24.043A17.118 17.118 0 0149.456 0h.022zm7.753 10.169a10.258 10.258 0 010 14.555c-4.04 4.017-10.588 4.017-14.629 0a10.258 10.258 0 010-14.554c4.04-4.016 10.589-4.016 14.63 0v-.001z"/></svg>