<svg xmlns="http://www.w3.org/2000/svg" viewBox="0 0 130 44"><defs><filter id="a"><feColorMatrix in="SourceGraphic" values="0 0 0 0 1.000000 0 0 0 0 1.000000 0 0 0 0 1.000000 0 0 0 1.000000 0"/></filter></defs><g fill="none" fill-rule="evenodd" filter="url(#a)" transform="translate(-605 -345)"><path fill="#007DC1" fill-rule="nonzero" d="M621.297 355.951c-9.007 0-16.297 7.29-16.297 16.297 0 9.008 7.29 16.298 16.297 16.298 9.007 0 16.297-7.29 16.297-16.298 0-9.007-7.29-16.297-16.297-16.297zm0 24.462c-4.503 0-8.165-3.661-8.165-8.165 0-4.503 3.662-8.164 8.165-8.164 4.504 0 8.165 3.66 8.165 8.164s-3.661 8.165-8.165 8.165zm28.642-2.689c0-1.296 1.555-1.912 2.462-1.004 4.083 4.147 10.822 11.275 10.854 11.307.097.097.195.26.583.389.162.065.422.065.713.065h7.355c1.328 0 1.717-1.523 1.102-2.3l-12.183-12.475-.648-.648c-1.393-1.652-1.231-2.3.357-3.985l9.655-10.789c.615-.778.227-2.268-1.134-2.268h-6.675c-.259 0-.453 0-.648.065-.388.13-.55.259-.648.389-.032.032-5.378 5.8-8.683 9.33-.907.973-2.527.325-2.527-1.004v-18.5c0-.94-.778-1.296-1.393-1.296h-5.443c-.94 0-1.394.616-1.394 1.166v41.019c0 .94.778 1.199 1.426 1.199h5.443c.843 0 1.393-.616 1.393-1.232V377.724h.033zm44.453 9.266l-.584-5.443c-.064-.745-.777-1.263-1.522-1.134a8.298 8.298 0 01-1.264.097c-4.342 0-7.873-3.402-8.132-7.71v-7.129c0-.875.648-1.587 1.522-1.587h7.29a1.36 1.36 0 001.296-1.394v-5.151c0-1.005-.648-1.523-1.23-1.523h-7.356c-.842 0-1.522-.616-1.555-1.458v-8.262c0-.518-.389-1.296-1.393-1.296h-5.41c-.681 0-1.33.421-1.33 1.264v26.535c.228 8.813 7.453 15.844 16.298 15.844.745 0 1.458-.065 2.17-.162.778-.097 1.297-.745 1.2-1.49zm39.268-6.836c-4.6 0-5.313-1.652-5.313-7.84V357.376c0-.519-.389-1.393-1.426-1.393h-5.443c-.68 0-1.426.55-1.426 1.393v.68a16.09 16.09 0 00-8.035-2.138c-9.007 0-16.297 7.29-16.297 16.297 0 9.007 7.29 16.297 16.297 16.297 4.05 0 7.744-1.49 10.595-3.92 1.523 2.333 3.985 3.888 7.84 3.92.649 0 4.148.13 4.148-1.523v-5.8c0-.485-.389-1.036-.94-1.036zm-21.61.26c-4.504 0-8.165-3.662-8.165-8.166 0-4.503 3.661-8.164 8.165-8.164 4.503 0 8.164 3.66 8.164 8.164-.032 4.504-3.693 8.165-8.164 8.165z"/></g></svg>