<svg xmlns="http://www.w3.org/2000/svg" viewBox="0 0 115 31"><defs><filter id="a"><feColorMatrix in="SourceGraphic" values="0 0 0 0 1.000000 0 0 0 0 1.000000 0 0 0 0 1.000000 0 0 0 1.000000 0"/></filter></defs><g fill="none" fill-rule="evenodd" filter="url(#a)" transform="translate(-883 -504)"><path fill="#1B1F23" d="M930.447 529.705c-.238.003-.837.126-1.47.126-1.996 0-2.687-.922-2.687-2.125v-8.013h4.07c.23 0 .41-.205.41-.486v-4.352c0-.23-.205-.436-.41-.436h-4.07v-5.401c0-.205-.128-.333-.359-.333h-5.53c-.23 0-.358.128-.358.333v5.555s-2.79.691-2.97.717a.439.439 0 00-.332.435v3.482c0 .281.205.486.435.486h2.842v8.397c0 6.246 4.352 6.886 7.321 6.886 1.357 0 2.995-.435 3.251-.563.154-.051.23-.23.23-.41v-3.84a.453.453 0 00-.373-.458zm60.662-5.634c0-4.634-1.869-5.248-3.84-5.044-1.536.103-2.765.87-2.765.87v9.012s1.254.87 3.123.922c2.637.077 3.482-.87 3.482-5.76zm6.22-.41c0 8.78-2.841 11.29-7.807 11.29-4.199 0-6.452-2.125-6.452-2.125s-.102 1.178-.23 1.331c-.077.154-.205.205-.358.205h-3.79c-.255 0-.486-.205-.486-.435l.052-28.442c0-.23.204-.435.435-.435h5.453c.23 0 .435.205.435.435v9.651s2.099-1.357 5.171-1.357l-.026-.05c3.072 0 7.604 1.151 7.604 9.932zm-22.323-9.242h-5.375c-.282 0-.436.205-.436.487v13.926s-1.408.999-3.328.999-2.483-.87-2.483-2.79v-12.16a.449.449 0 00-.435-.436h-5.479a.449.449 0 00-.435.435v13.082c0 5.632 3.149 7.04 7.475 7.04 3.559 0 6.452-1.971 6.452-1.971s.128.998.204 1.152c.052.128.23.23.41.23h3.43c.282 0 .436-.205.436-.435l.05-19.123c0-.23-.204-.436-.486-.436zm-60.672-.025h-5.452c-.23 0-.436.23-.436.512v18.79c0 .512.333.692.768.692h4.916c.512 0 .64-.23.64-.692V514.83a.449.449 0 00-.436-.435zm-2.688-8.653a3.507 3.507 0 00-3.532 3.533 3.507 3.507 0 003.532 3.533c1.92 0 3.482-1.562 3.482-3.533 0-1.971-1.562-3.533-3.482-3.533zm42.215-.64h-5.402a.449.449 0 00-.435.435v10.47h-8.474v-10.47a.449.449 0 00-.435-.435h-5.453a.449.449 0 00-.435.435v28.442c0 .23.23.435.435.435h5.453c.23 0 .435-.205.435-.435v-12.16h8.474l-.051 12.16c0 .23.205.435.435.435h5.453c.23 0 .435-.205.435-.435v-28.442a.449.449 0 00-.435-.435zm-48.307 12.595v14.695c0 .102-.026.281-.154.333 0 0-3.2 2.278-8.474 2.278-6.374 0-13.926-1.997-13.926-15.155 0-13.159 6.605-15.872 13.056-15.847 5.58 0 7.834 1.255 8.192 1.485.102.128.154.23.154.358l-1.076 4.557c0 .23-.23.512-.512.435-.921-.281-2.304-.844-5.555-.844-3.763 0-7.808 1.075-7.808 9.548 0 8.474 3.84 9.472 6.605 9.472 2.355 0 3.2-.281 3.2-.281v-5.888h-3.763c-.282 0-.487-.205-.487-.435v-4.71c0-.231.205-.436.487-.436h9.574c.282 0 .487.205.487.435z"/></g></svg>