<svg xmlns="http://www.w3.org/2000/svg" viewBox="0 0 200 40"><defs><filter id="a"><feColorMatrix in="SourceGraphic" values="0 0 0 0 1.000000 0 0 0 0 1.000000 0 0 0 0 1.000000 0 0 0 1.000000 0"/></filter></defs><g fill="none" fill-rule="evenodd" filter="url(#a)" transform="translate(-300 -783)"><g fill-rule="nonzero"><path fill="#0061FF" d="M323.2 790.4l-11.6 7.4 11.6 7.4-11.6 7.4-11.6-7.44 11.6-7.4-11.6-7.36 11.6-7.4 11.6 7.4zm-11.66 24.58l11.6-7.4 11.6 7.4-11.6 7.4-11.6-7.4zm11.66-9.82l11.6-7.4-11.6-7.36 11.54-7.4 11.6 7.4-11.6 7.4 11.6 7.4-11.6 7.4-11.54-7.44z"/><path fill="#000" d="M355.44 790.4h9.38c5.98 0 10.92 3.46 10.92 11.36v1.66c0 7.96-4.62 11.54-10.74 11.54h-9.56V790.4zm5.24 4.46v15.62h4.02c3.4 0 5.68-2.22 5.68-7.16v-1.3c0-4.94-2.4-7.16-5.86-7.16h-3.84zm17.84.24h4.2l.68 4.62c.8-3.14 2.84-4.82 6.54-4.82h1.3v5.3h-2.16c-4.26 0-5.3 1.48-5.3 5.68v9.14h-5.18V795.1h-.08zm13.76 10.36v-.56c0-6.66 4.26-10.3 10.06-10.3 5.92 0 10.06 3.64 10.06 10.3v.56c0 6.54-4.02 10.06-10.06 10.06-6.42-.06-10.06-3.5-10.06-10.06zm14.82-.06v-.5c0-3.7-1.86-5.92-4.82-5.92-2.9 0-4.82 2.04-4.82 5.92v.5c0 3.58 1.86 5.62 4.82 5.62 2.96-.06 4.82-2.04 4.82-5.62zm8.02-10.3h4.32l.5 3.76c1.04-2.52 3.26-4.26 6.54-4.26 5.06 0 8.4 3.64 8.4 10.38v.56c0 6.54-3.7 10-8.4 10-3.14 0-5.3-1.42-6.36-3.7v10.06h-5.06l.06-26.8zm14.5 10.3v-.44c0-3.96-2.04-5.92-4.76-5.92-2.9 0-4.82 2.22-4.82 5.92v.38c0 3.52 1.86 5.74 4.76 5.74 2.98-.06 4.82-1.96 4.82-5.68zm12.92 5.94l-.44 3.64h-4.44v-26.54h5.06v10.18c1.12-2.6 3.34-4.02 6.48-4.02 4.76.06 8.28 3.34 8.28 9.94v.62c0 6.6-3.34 10.38-8.4 10.38-3.34-.08-5.5-1.62-6.54-4.2zm9.62-6.18v-.5c0-3.64-1.98-5.68-4.76-5.68-2.84 0-4.82 2.28-4.82 5.74v.44c0 3.7 1.92 5.86 4.76 5.86 3.04 0 4.82-1.9 4.82-5.86zm7.54.3v-.56c0-6.66 4.26-10.3 10.06-10.3 5.92 0 10.06 3.64 10.06 10.3v.56c0 6.54-4.08 10.06-10.06 10.06-6.42-.06-10.06-3.5-10.06-10.06zm14.86-.06v-.5c0-3.7-1.86-5.92-4.82-5.92-2.9 0-4.82 2.04-4.82 5.92v.5c0 3.58 1.86 5.62 4.82 5.62 2.98-.06 4.82-2.04 4.82-5.62zm12.04-.74l-6.98-9.56h5.98l4.02 5.98 4.08-5.98h5.92l-7.08 9.5 7.46 10.38h-5.86l-4.56-6.6-4.44 6.6h-6.12l7.58-10.32z"/></g></g></svg>