<svg xmlns="http://www.w3.org/2000/svg" width="104" height="44" viewBox="0 0 104 44">
  <g fill="#C00">
    <path d="M12.71 6.27C9.51 6.27 6.52 8.27 6.52 12.9 6.52 17.09 8.4 19.78 12.62 19.78 15.5 19.78 18.92 17.99 18.92 12.99 18.92 8.59 16.78 6.27 12.71 6.27zM12.24 24.41C4.02 24.41-1.77635684e-15 20.18-1.77635684e-15 13.29-1.77635684e-15 6.17 5.95 1.67 13.18 1.67 20.18 1.67 25.43 5.01 25.43 12.67 25.43 19.9 19.61 24.41 12.24 24.41zM41 4.27C40.2247621 4.09608703 39.4342798 3.9989515 38.64 3.98 36.83 3.98 35.83 4.69 35.83 6.42L35.83 7.85 39.97 7.85 39.97 11.66 35.83 11.66 35.83 20.37C36.99 20.47 38.23 20.62 39.26 20.78L39.26 23.99 26.4 23.99 26.4 20.78C27.4 20.62 28.67 20.47 29.85 20.37L29.85 11.66 26.16 11.66 26.16 7.85 29.83 7.85 29.83 6.52C29.83 2.22 32.34.04 38.01.04 39.1251833.037042162 40.2387902.123990449 41.34.3L40.98 4.3M56.17 4.27C55.4005455 4.10176784 54.6172436 4.00469197 53.83 3.98 52.02 3.98 51 4.69 51 6.42L51 7.85 55.1 7.85 55.1 11.66 51 11.66 51 20.37C52.16 20.47 53.4 20.62 54.43 20.78L54.43 23.99 41.57 23.99 41.57 20.78C42.57 20.62 43.8 20.47 44.99 20.37L44.99 11.66 41.29 11.66 41.29 7.85 44.99 7.85 44.99 6.52C44.99 2.22 47.52.04 53.17.04 54.2851964.0366935999 55.3988313.123644078 56.5.3L56.17 4.3M62.88 6.17C60.88 6.17 59.23 4.87 59.23 3.25 59.23 1.63 60.88.33 62.88.33 64.88.33 66.55 1.61 66.55 3.25 66.55 4.89 64.9 6.17 62.88 6.17zM56.47 23.99L56.47 20.78C57.47 20.62 58.71 20.47 59.87 20.37L59.87 11.61C58.96 11.49 57.6 11.35 56.47 11.31L56.47 8.13C59.5805605 7.83283373 62.7070092 7.73596726 65.83 7.84L65.83 20.36C66.92 20.47 68.08 20.61 68.99 20.78L68.99 23.99 56.47 23.99zM78.57 24.31C72.28 24.31 68.84 21.65 68.84 16.43 68.83 11.52 71.96 7.52 79.43 7.52 80.9380024 7.52655828 82.4405886 7.7009656 83.91 8.04L83.91 13.57 80.06 13.57C79.91 12.91 79.81 12.31 79.7 11.75 79.3476572 11.6588001 78.9834946 11.6217094 78.62 11.64 76.55 11.64 75.06 13.17 75.06 15.82 75.06 18.47 76.41 20.01 79.91 20.01 81.1870718 20.0087796 82.4548126 19.7924185 83.66 19.37L84.06 23.65C82.2623797 24.0832427 80.4190732 24.2981273 78.57 24.29M94.49 11.08C92.8730878 11.0106144 91.4925893 12.2362493 91.37 13.85L97.26 13.85C97.3555473 13.0900536 97.094591 12.3285968 96.5529971 11.7870029 96.0114032 11.245409 95.2499464 10.9844527 94.49 11.08zM102.96 17.14L91.31 17.14C91.37 19.3 92.92 20.51 96.15 20.51 98.1106476 20.5184406 100.057323 20.1798884 101.9 19.51L102.45 23.25C100.114172 24.0023915 97.6739926 24.3803998 95.22 24.37 88.78 24.37 85.22 21.76 85.22 16.1 85.22 11.1 88.57 7.47 94.62 7.47 100.67 7.47 103.11 10.75 103.11 14.99 103.114653 15.7094354 103.064508 16.4281805 102.96 17.14zM13.66 30.59C13.1589251 30.5719237 12.6572137 30.5953369 12.16 30.66L12.16 39.52C12.617629 39.577186 13.0791346 39.5972514 13.54 39.58 16.19 39.58 18.31 38.18 18.31 35.08 18.31 32.51 17.63 30.61 13.66 30.61L13.66 30.59zM13.05 43.52C10.74 43.52 7.05 43.37 6.21 43.37L3.39 43.37 3.39 40.52C4.32063959 40.3410205 5.26318146 40.2307231 6.21 40.19L6.21 30.05C5.26580015 30.0239284 4.32406074 29.9404408 3.39 29.8L3.39 26.8 6.05 26.8C7.83 26.8 10.84 26.72 13.97 26.72 20.31 26.72 24.74 28.72 24.74 34.72 24.74 40.34 20.08 43.52 13.05 43.52z"/>
    <path d="M24.58 43.37L24.58 40.52C25.5007099 40.3421211 26.4331979 40.2318268 27.37 40.19L27.37 30.05C26.4358048 30.0230847 25.5040982 29.9395984 24.58 29.8L24.58 26.8 40.46 26.8 40.46 31.33 35.83 31.33C35.72 30.91 35.69 30.75 35.62 30.41L33.33 30.41 33.33 33.33 35.27 33.33C35.3155822 33.0965011 35.3859818 32.8685407 35.48 32.65L39.42 32.65 39.42 37.14 35.48 37.14C35.3832635 36.9363871 35.3127022 36.721343 35.27 36.5L33.33 36.5 33.33 39.72 35.64 39.72C35.72 39.27 35.76 39.15 35.85 38.72L40.56 38.72 40.56 43.36 24.56 43.36M51.57 30.43C51.3668074 30.4193001 51.1631926 30.4193001 50.96 30.43L50.96 34.92C51.1232441 34.9622139 51.2914031 34.982393 51.46 34.98 53.08 34.98 54.55 34.15 54.55 32.59 54.55 31.42 53.76 30.4 51.55 30.4L51.57 30.43zM51.85 38.26L50.94 38.26 50.94 40.12C51.8832825 40.163526 52.8222982 40.2738018 53.75 40.45L53.75 43.35 42.22 43.35 42.22 40.52C43.1343443 40.3444829 44.060012 40.2342048 44.99 40.19L44.99 30.05C44.0625478 30.02131 43.1376019 29.9378311 42.22 29.8L42.22 26.8 44.96 26.8C45.96 26.8 49.17 26.69 51.53 26.69 57.34 26.69 60.48 28.61 60.48 32.22 60.48 35.44 57.69 38.29 51.83 38.29L51.85 38.26zM71.83 30.67C70.6749008 30.6107442 69.5506985 31.0543816 68.7473521 31.8864874 67.9440057 32.7185932 67.5401686 33.8576983 67.64 35.01 67.66 37.84 68.83 39.52 71.73 39.52 72.9328882 39.602197 74.1109804 39.1507663 74.9509204 38.2857824 75.7908603 37.4207984 76.207493 36.2299549 76.09 35.03 76.09 32.12 74.71 30.64 71.85 30.64L71.83 30.67zM71.43 43.64C64.65 43.64 61.31 40.52 61.31 35.28 61.31 30.04 66.23 26.52 72.32 26.52 77.95 26.52 82.44 28.85 82.44 34.84 82.44 40.21 77.6 43.7 71.43 43.7L71.43 43.64zM97.44 32.3C97.3098341 31.7424401 97.20969 31.1782952 97.14 30.61L95.46 30.61 95.46 40.14C96.394172 40.179976 97.3237283 40.2936628 98.24 40.48L98.24 43.37 86.71 43.37 86.71 40.52C87.6365909 40.3349566 88.5760154 40.2212896 89.52 40.18L89.52 30.61 87.83 30.61C87.7668778 31.1799724 87.6632829 31.7447316 87.52 32.3L82.95 32.3 82.95 26.82 102.01 26.82 102.01 32.3 97.44 32.3M100.25 41.96L100.4 41.96C100.58 41.96 100.72 41.88 100.72 41.72 100.72 41.56 100.63 41.48 100.4 41.48L100.25 41.48 100.25 41.96zM100.25 42.69L100.04 42.69 100.04 41.33C100.163233 41.3229738 100.286767 41.3229738 100.41 41.33 100.559387 41.3227225 100.707007 41.3648995 100.83 41.45 100.906953 41.5220114 100.94736 41.6248654 100.94 41.73 100.947159 41.8817211 100.839794 42.0148538 100.69 42.04 100.79 42.04 100.87 42.16 100.89 42.37 100.91 42.58 100.97 42.65 100.98 42.69L100.75 42.69C100.71285 42.5799559 100.689341 42.4657696 100.68 42.35 100.675012 42.2764074 100.640133 42.2080595 100.583468 42.1608386 100.526803 42.1136177 100.453286 42.0916354 100.38 42.1L100.25 42.1 100.25 42.69zM100.45 40.96C99.8977153 40.96 99.45 41.4077153 99.45 41.96 99.45 42.5122847 99.8977153 42.96 100.45 42.96 101.002285 42.96 101.45 42.5122847 101.45 41.96 101.45 41.4077153 101.002285 40.96 100.45 40.96zM100.45 40.77C100.767425 40.7724227 101.070241 40.9037185 101.288973 41.1337638 101.507704 41.3638091 101.623575 41.6728564 101.61 41.99 101.626572 42.3096537 101.510326 42.6219486 101.288776 42.8529658 101.067227 43.0839831 100.760067 43.2131886 100.44 43.21 100.122608 43.2047669 99.8204616 43.0729412 99.6007449 42.8438349 99.3810281 42.6147285 99.2619543 42.3073333 99.27 41.99 99.2642133 41.333175 99.7835076 40.7916886 100.44 40.77L100.45 40.77z"/>
  </g>
</svg>
