<svg xmlns="http://www.w3.org/2000/svg" viewBox="0 0 91 65"><defs><filter id="a"><feColorMatrix in="SourceGraphic" values="0 0 0 0 1.000000 0 0 0 0 1.000000 0 0 0 0 1.000000 0 0 0 1.000000 0"/></filter></defs><g fill="none" fill-rule="evenodd" filter="url(#a)" transform="translate(-895 -465)"><path fill="#03363D" fill-rule="nonzero" d="M938.455 475.125v28.215h-23.37l23.37-28.215zm0-10.125c0 6.453-5.232 11.685-11.685 11.685s-11.685-5.232-11.685-11.685h23.37zm3.85 38.343c0-6.454 5.232-11.685 11.685-11.685s11.685 5.231 11.685 11.684h-23.37zm0-10.126V465h23.375l-23.375 28.215v.003zm13.07 34.265a4.555 4.555 0 003.238-1.25l1.605 1.733c-1.06 1.09-2.53 1.9-4.815 1.9-3.918 0-6.45-2.6-6.45-6.115a6 6 0 016.092-6.118c3.89 0 6.095 2.96 5.9 7.065h-9.195c.325 1.705 1.525 2.793 3.617 2.793m2.8-4.75c-.25-1.593-1.2-2.765-3.1-2.765-1.767 0-3 1-3.317 2.765h6.42-.003zM895 527.35l7.075-7.19h-6.908v-2.255h10.19v2.3l-7.075 7.187h7.175v2.258H895v-2.3zm18.4.13a4.555 4.555 0 003.237-1.25l1.605 1.733c-1.06 1.09-2.53 1.9-4.815 1.9-3.917 0-6.45-2.6-6.45-6.116a6 6 0 016.093-6.117c3.89 0 6.095 2.96 5.9 7.065h-9.19c.325 1.705 1.525 2.792 3.617 2.792m2.8-4.75c-.25-1.592-1.2-2.765-3.1-2.765-1.767 0-3 1-3.317 2.765h6.42-.003zm18.058 1.008c0-3.75 2.807-6.11 5.9-6.11a5.085 5.085 0 013.917 1.763v-6.93h2.5v17.15h-2.5V528a5.026 5.026 0 01-3.94 1.855c-3 0-5.875-2.375-5.875-6.108m9.955-.025a3.73 3.73 0 10-3.727 3.83c2.15 0 3.725-1.715 3.725-3.83m18.37 3.4l2.265-1.175a3.36 3.36 0 003.02 1.715c1.415 0 2.15-.725 2.15-1.55 0-.94-1.368-1.15-2.855-1.457-2-.425-4.083-1.082-4.083-3.5 0-1.857 1.768-3.575 4.55-3.55 2.193 0 3.825.87 4.75 2.275l-2.1 1.15a3.048 3.048 0 00-2.642-1.34c-1.345 0-2.03.657-2.03 1.41 0 .845 1.085 1.08 2.785 1.457 1.935.425 4.125 1.058 4.125 3.5 0 1.62-1.415 3.805-4.765 3.783-2.45 0-4.175-.988-5.168-2.725m16.725-2.718l-1.982 2.163v3.05h-2.5v-17.15h2.5v11.233l5.307-5.825h3.045l-4.6 5.024 4.72 6.72h-2.83l-3.657-5.215h-.003zm-52.607-6.765c-2.975 0-5.463 1.926-5.463 5.126v6.862h2.55v-6.545c0-1.925 1.108-3.08 3-3.08 1.893 0 2.833 1.15 2.833 3.08v6.545h2.535v-6.863c0-3.194-2.5-5.124-5.463-5.124"/></g></svg>