<svg xmlns="http://www.w3.org/2000/svg" viewBox="0 0 196 43"><defs><filter id="a"><feColorMatrix in="SourceGraphic" values="0 0 0 0 1.000000 0 0 0 0 1.000000 0 0 0 0 1.000000 0 0 0 1.000000 0"/></filter></defs><g fill="none" fill-rule="evenodd" filter="url(#a)" transform="translate(-302 -476)"><path fill="#EB3C00" fill-rule="nonzero" d="M325.129 476c-.054 0-23.086 8.628-23.117 8.66-.012.011-.015 5.829-.009 12.927l.012 12.906 2.871-1.121c1.58-.617 3.341-1.305 3.912-1.53l1.041-.408v-10.507c0-7.246.015-10.515.051-10.536.087-.054 15.188-3.646 15.227-3.624.047.03.047 30.872 0 30.9-.02.013-5.172-.685-11.45-1.548a2151.549 2151.549 0 00-11.446-1.56c-.02.007 5.095 1.907 11.366 4.224 6.269 2.316 11.452 4.214 11.518 4.217.065.001 2.979-.785 6.472-1.75l6.353-1.755-.012-17.914-.012-17.914-6.365-1.833A859.964 859.964 0 00325.13 476zm61.205 6.766c-1.15 0-1.869.152-2.732.576-1.33.654-2.373 1.885-2.844 3.35-.277.865-.295 1.052-.319 3.273l-.022 2.042h-3.151v2.485h3.158v15.96h2.92v-15.96h7.225v15.96h2.92v-15.96h4.354v-2.485h-4.355v-1.589c.003-2.22.089-2.875.486-3.707.355-.738 1.017-1.246 1.86-1.423.737-.154 1.833-.027 2.49.288l.239.115v-2.655l-.277-.075c-.516-.144-.993-.195-1.807-.194-1.15 0-1.869.15-2.732.575-1.33.654-2.373 1.885-2.844 3.35-.277.865-.295 1.052-.319 3.273l-.022 2.042h-7.219v-1.589c.003-2.22.089-2.875.486-3.707.355-.738 1.017-1.246 1.86-1.423.736-.154 1.833-.027 2.49.288l.238.115v-2.655l-.276-.075c-.516-.144-.993-.195-1.807-.194v-.001zm15.72.746c-.717.023-1.323.4-1.645 1.043-.373.746-.234 1.669.335 2.222.26.244.582.415.93.495 1.577.31 2.803-1.105 2.248-2.587-.221-.589-.891-1.09-1.554-1.16a2.218 2.218 0 00-.314-.013zm50.813.672c-.226.003-.456.012-.691.027-1.76.114-2.952.406-4.313 1.06-.374.18-.692.356-.706.39-.015.036-.02.68-.012 1.432l.012 1.368.526-.353c1.397-.934 2.754-1.384 4.339-1.438 2.919-.1 4.634 1.004 5.036 3.244.288 1.594-.015 3.077-.831 4.085-.639.787-1.678 1.343-3.02 1.613-.89.179-1.444.218-3.016.218h-1.43v2.474l1.854.022c1.57.02 1.953.04 2.492.124 1.44.224 2.538.634 3.313 1.228.405.325.758.71 1.047 1.142.706 1.177.831 3.106.287 4.462-.486 1.215-1.66 2.249-3.072 2.704-1.344.433-3.107.487-4.67.142-1.32-.293-2.492-.833-3.728-1.722l-.11-.076.014 1.595.012 1.595.622.312c1.14.57 2.387.882 4.017 1.003.733.054 2.233.017 2.922-.075 1.217-.158 2.227-.449 3.157-.912 1.599-.796 2.813-1.984 3.49-3.415.52-1.099.733-2.196.685-3.55-.034-1.024-.191-1.678-.588-2.466-.915-1.822-2.75-3.046-5.081-3.397-.218-.033-.395-.075-.395-.094 0-.018.232-.112.515-.21a10.69 10.69 0 001.758-.803c.468-.3.901-.653 1.29-1.05.793-.865 1.296-1.955 1.484-3.214.096-.627.096-1.937.002-2.474-.314-1.803-1.415-3.26-3.126-4.137-1.148-.59-2.506-.873-4.087-.854h.002zm-89.258 0a14.846 14.846 0 00-3.499.378 11.619 11.619 0 00-4.838 2.4c-2.188 1.835-3.66 4.72-4.154 8.151-.27 1.893-.217 4.286.139 6.048.574 2.837 2.008 5.384 3.945 7.006a11.719 11.719 0 004.42 2.281c.75.187 1.513.315 2.283.383.717.058 2.213.022 2.96-.07 3.53-.438 6.404-2.176 8.25-4.992.49-.797.91-1.633 1.256-2.501.419-1.187.71-2.415.87-3.663.07-.52.087-.977.087-2.342 0-1.824-.038-2.281-.295-3.509-1.018-4.878-4.268-8.31-8.798-9.293a13.097 13.097 0 00-2.626-.275v-.002zm111.28.015c-1.167-.004-1.644.05-2.56.284-1.76.45-3.347 1.45-4.589 2.892-1.41 1.638-2.433 3.803-3.014 6.376-.666 2.948-.726 6.891-.147 9.632.259 1.227.576 2.154 1.077 3.15 1.286 2.568 3.294 4.023 5.934 4.3.592.062 1.755.017 2.395-.092a7.912 7.912 0 003.784-1.786c1.232-1.06 2.224-2.803 2.602-4.572.275-1.292.281-2.918.016-4.292-.44-2.278-1.864-4.198-3.804-5.123-2.04-.973-4.965-.932-6.722.099-.972.569-1.675 1.296-2.288 2.364a4.097 4.097 0 00-.245.462c0 .021-.021.04-.048.04-.105 0-.035-1.646.122-2.82.569-4.257 2.662-7.372 5.505-8.195.766-.22 1.244-.274 2.199-.246 1.265.037 2.39.297 3.458.797.14.068.28.131.424.19.009 0 .016-.623.016-1.381v-1.383l-.329-.124c-.984-.376-2.243-.567-3.786-.572zm15.96.402c-3.276 0-5.96.006-5.962.012-.015.064-.887 12.918-.876 12.931.007.01.247-.006.53-.036 1.676-.173 4.708-.192 5.613-.034 1.756.307 2.97.944 3.8 1.992.706.891 1.033 1.941 1.033 3.312 0 2.063-.88 3.678-2.563 4.697-1.788 1.083-4.494 1.171-6.898.224a10.471 10.471 0 01-1.868-.936l-.156-.094v3.145l.467.22a7.32 7.32 0 001.687.552c.478.104 1.566.237 2.13.263 2.652.116 4.587-.253 6.255-1.19 1.835-1.034 3.176-2.745 3.668-4.679.455-1.784.37-4.021-.208-5.52-.931-2.42-3.025-3.996-5.959-4.486-1.032-.171-1.796-.206-3.27-.145-.732.03-1.339.045-1.351.033-.02-.02.419-6.615.485-7.287l.03-.298h9.37V484.6h-5.958zm-127.645 2.292c.731-.006 1.48.06 2.17.199 3.305.658 5.659 3.174 6.484 6.928.503 2.294.476 5.204-.068 7.321-1.025 3.977-3.661 6.336-7.564 6.768-.587.065-1.862.052-2.417-.023-4.304-.593-7.195-4.043-7.658-9.144-.075-.823-.035-2.712.072-3.399.317-2.026.942-3.637 1.987-5.125.4-.567 1.38-1.547 1.962-1.957a8.994 8.994 0 012.961-1.334 9.4 9.4 0 012.071-.234zm53.12 4.696c-.307-.004-.616.006-.927.028-1.974.14-3.383.592-4.781 1.53-2.213 1.485-3.601 3.915-3.948 6.918-.108.934-.073 2.777.067 3.553.364 1.998 1.241 3.693 2.563 4.955 1.43 1.363 3.047 2.05 5.366 2.28.365.036 1.82-.02 2.312-.091a8.932 8.932 0 002.892-.893l.562-.285v-2.809l-.474.31a8.003 8.003 0 01-2.66 1.13c-.639.137-1.811.168-2.508.065-1.296-.19-2.322-.68-3.205-1.529-1.199-1.153-1.82-2.61-1.97-4.629-.117-1.575.188-3.325.785-4.51.46-.91 1.378-1.98 2.138-2.485 1.113-.743 2.298-1.056 3.779-1a7.204 7.204 0 013.677 1.12c.219.136.407.248.419.248.01 0 .02-.675.02-1.499v-1.5l-.395-.168c-1.104-.472-2.383-.724-3.712-.739zm14.593 0a7.98 7.98 0 00-5.205 1.99c-1.634 1.413-2.805 3.819-3.077 6.323-.075.697-.063 2.44.024 3.19.278 2.387 1.082 4.22 2.46 5.593a6.702 6.702 0 002.662 1.684c.76.265 1.296.37 2.437.484.386.039 2.034-.02 2.611-.094 1.642-.21 3.11-.714 4.219-1.454l.323-.215v-2.742l-.61.41c-1.585 1.07-3.265 1.59-5.125 1.59-1.76 0-3.156-.492-4.187-1.477-1.107-1.058-1.666-2.437-1.828-4.507l-.033-.418h13.09l-.03-1.374c-.015-.782-.06-1.63-.105-1.97-.275-2.185-.994-3.798-2.246-5.043-1.211-1.205-2.568-1.786-4.536-1.942a9.47 9.47 0 00-.844-.028zm-30.298.418v18.444h2.919v-18.444h-2.92zm30.37 2.11c.097 0 .194.003.294.008 1.211.05 2.05.373 2.796 1.075.926.872 1.41 2.075 1.548 3.843l.033.418h-10.018l.031-.179c.244-1.41.842-2.66 1.714-3.58 1.025-1.083 2.154-1.582 3.601-1.583v-.002zm41.579 2.65c.837 0 .948.011 1.388.129.837.224 1.375.526 1.98 1.105.605.58 1.003 1.24 1.292 2.141.222.693.299 1.208.329 2.162.026.967-.045 1.625-.256 2.354-.53 1.827-1.777 3.11-3.455 3.554-.424.113-1.627.164-2.063.086a5.943 5.943 0 01-1.429-.505c-1.094-.609-2.084-1.874-2.542-3.249-.261-.78-.345-1.299-.374-2.287-.027-1.025.035-1.452.319-2.228.459-1.255 1.603-2.434 2.841-2.927.724-.29.986-.334 1.97-.334z"/></g></svg>