<svg xmlns="http://www.w3.org/2000/svg" viewBox="0 0 162 65"><defs><filter id="a"><feColorMatrix in="SourceGraphic" values="0 0 0 0 1.000000 0 0 0 0 1.000000 0 0 0 0 1.000000 0 0 0 1.000000 0"/></filter></defs><g fill="none" fill-rule="evenodd" filter="url(#a)" transform="translate(-49 -924)"><g fill-rule="nonzero"><path fill="#F49813" d="M131.882 924.597c5.793-.199 11.625.667 17.089 2.594 8.22 2.867 15.567 8.122 20.943 14.93a45.824 45.824 0 015.898 9.74c.275.579.487 1.228.34 1.872-.18 1.081-1.134 1.975-2.231 2.083-1.14.165-2.316-.541-2.722-1.607-3.087-7.219-8.355-13.488-14.927-17.829a40.898 40.898 0 00-13.38-5.761 41.625 41.625 0 00-18.74-.005c-8.766 2.006-16.793 7.003-22.454 13.945a40.49 40.49 0 00-5.876 9.656c-.324.806-1.067 1.438-1.933 1.58a2.587 2.587 0 01-2.33-.746 2.541 2.541 0 01-.557-2.675c4.112-9.66 11.726-17.776 21.087-22.607 6.098-3.17 12.918-4.94 19.793-5.17"/><path fill="#3069B5" d="M124.226 954.341c-.035-.502.443-.877.917-.889a45.354 45.354 0 011.848-.002c.428.014.928.298.926.776.023 5.613-.013 11.228.02 16.845 2.288-2.53 4.597-5.045 6.894-7.566.452-.443.81-1.115 1.514-1.173.948-.039 1.898-.016 2.847-.014.366-.033.774.3.646.688-.15.3-.425.505-.65.743-2.484 2.466-4.977 4.923-7.448 7.4 2.387 2.708 4.74 5.443 7.117 8.161.306.387.688.715.945 1.141.188.334-.124.74-.483.755-.79.044-1.58 0-2.371.019-.412-.01-.856.05-1.23-.16-.394-.225-.633-.626-.914-.964-2.292-2.868-4.57-5.747-6.87-8.61-.023 2.823-.006 5.645-.008 8.467-.01.325.058.718-.228.955-.454.436-1.13.283-1.697.312-.503-.017-1.092.092-1.5-.277-.229-.176-.288-.477-.28-.744.007-8.622-.002-17.243.005-25.863m-10.44 7.93c1.149-.368 2.444-.438 3.57.047.395.184.853.577.675 1.061-.18.608-.334 1.223-.55 1.82-.158.43-.659.588-1.08.505-.948-.162-1.879-.473-2.851-.442-.678-.015-1.304.346-1.768.815-.749.727-1.136 1.745-1.31 2.754-.138.73-.099 1.474-.105 2.211v9.293c.044.51-.487.855-.95.873a39.23 39.23 0 01-1.903-.005c-.46-.024-.975-.357-.916-.87-.003-5.735-.006-11.468.001-17.202-.039-.57.597-.88 1.096-.827.626.04 1.48-.193 1.887.433.308.725.455 1.509.745 2.24.873-1.19 2.03-2.238 3.458-2.707M49 962.708c.177-.201.383-.419.677-.398.862-.008 1.726-.027 2.588.013.437.012.738.394.802.798.847 3.424 1.68 6.853 2.523 10.278.248 1.058.549 2.105.71 3.18.167.967.2 1.948.358 2.917.217-1.383.412-2.774.788-4.124 1.103-4.088 2.205-8.175 3.31-12.261.085-.466.526-.798.995-.798.96-.024 1.92-.007 2.88-.007.515-.024 1.065.275 1.19.798.823 2.98 1.637 5.966 2.458 8.948.498 1.932 1.15 3.831 1.432 5.813.077.546.153 1.093.267 1.635.31-3.114 1.115-6.144 1.779-9.193.547-2.426 1.082-4.854 1.636-7.28.082-.487.6-.733 1.058-.719.775-.004 1.552-.026 2.327.013.46.013.724.519.562.926-1.556 5.708-3.107 11.42-4.665 17.127a1.004 1.004 0 01-.954.822c-1.203.04-2.408.01-3.61.016-.43.027-.887-.203-.963-.654-1.076-3.925-2.13-7.857-3.197-11.785-.386-1.366-.542-2.783-.704-4.188-.199 1.25-.297 2.523-.632 3.752-1.092 4.045-2.19 8.091-3.284 12.136-.123.656-.877.786-1.437.744-1.119-.02-2.237.025-3.354-.02-.398 0-.705-.307-.776-.68-1.57-5.686-3.134-11.374-4.705-17.057-.054-.249-.047-.502-.059-.752m141.013-.387a64.858 64.858 0 012.453 0 1.22 1.22 0 011.12.816c1.41 3.66 2.81 7.329 4.217 10.992.295.743.5 1.518.632 2.305.582-2.172 1.357-4.286 2.038-6.43a6312.37 6312.37 0 012.276-6.957c.112-.404.5-.679.91-.713.667-.049 1.338-.006 2.006-.024.39.005.855-.04 1.153.27.193.163.152.432.071.643-2.253 6.386-4.499 12.774-6.749 19.162-.39 1.064-.691 2.177-1.32 3.135-.904 1.457-2.368 2.507-3.976 3.074-.562.173-1.143.557-1.747.342-.429-.109-.594-.552-.823-.878-.164-.295-.468-.569-.405-.937.03-.365.324-.661.671-.759.679-.233 1.368-.49 1.918-.965 1.335-1.123 2.16-2.783 2.475-4.472-.213-.75-.607-1.44-.893-2.166-2.149-4.962-4.297-9.925-6.45-14.884-.13-.325-.321-.634-.358-.986.005-.387.451-.557.781-.568m-100.17 2.4c-1.172.216-2.24.94-2.836 1.973-.994 1.675-1.108 3.695-1.063 5.594.07 1.72.348 3.553 1.452 4.943.823 1.045 2.176 1.57 3.491 1.55 1.265.04 2.59-.386 3.448-1.342 1.095-1.19 1.447-2.842 1.598-4.4.066-1.53.097-3.087-.302-4.58-.318-1.263-.989-2.525-2.15-3.205-1.08-.658-2.414-.72-3.638-.534zm.495-2.723c2.12-.13 4.342.308 6.093 1.556 1.565 1.107 2.628 2.812 3.125 4.64.59 2.184.588 4.513.052 6.708-.504 2.023-1.683 3.93-3.463 5.08-1.901 1.253-4.29 1.58-6.522 1.312-1.902-.233-3.755-1.062-5.079-2.454-1.556-1.62-2.328-3.851-2.489-6.057-.196-2.446.182-5.035 1.551-7.124 1.013-1.573 2.624-2.728 4.42-3.255.75-.232 1.531-.34 2.312-.406m62.551 2.623c-1.162.074-2.284.739-2.803 1.793-1.014 1.95-1.034 4.22-.984 6.364.081 1.4.234 2.847.891 4.112.444.852 1.251 1.525 2.205 1.731 1.46.35 3.178.054 4.216-1.092 1-1.132 1.33-2.67 1.483-4.125.106-1.66.112-3.353-.303-4.977-.284-1.086-.766-2.171-1.632-2.926-.83-.726-1.987-1.006-3.073-.88zm5.003-10.52c-.027-.44.426-.721.82-.755.629-.034 1.26-.018 1.891-.011.481-.004 1.02.351.95.882 0 8.661.002 17.32-.002 25.98.033.448-.41.795-.825.822-.502.027-1.005.027-1.505-.008-.353-.022-.694-.247-.815-.582-.188-.562-.286-1.147-.43-1.72-.696.939-1.593 1.769-2.708 2.18-1.59.582-3.36.592-4.995.196a6.037 6.037 0 01-3.865-2.99c-1.243-2.253-1.39-4.903-1.313-7.417.044-2.147.457-4.413 1.865-6.117 1.062-1.444 2.802-2.273 4.56-2.49 1.635-.238 3.409.036 4.763 1.02.64.448 1.153 1.049 1.61 1.677-.012-3.555-.009-7.111-.001-10.667m17.601 10.628a3.933 3.933 0 00-1.62.714c-.942.73-1.41 1.888-1.66 3.014-.365 1.786-.36 3.63-.171 5.436.176 1.327.51 2.743 1.49 3.724.797.832 2 1.137 3.125 1.082 1.21.043 2.469-.405 3.25-1.349.975-1.173 1.25-2.733 1.393-4.202.09-1.728.091-3.498-.397-5.175-.309-1.045-.874-2.085-1.826-2.68-1.049-.685-2.376-.747-3.584-.564zm-1.62-2.372a10.68 10.68 0 015.173-.103c1.575.362 3.05 1.241 4.02 2.543 1.023 1.334 1.54 2.989 1.755 4.638.187 1.27.133 2.559.135 3.84 0 2.311 0 4.623-.006 6.934.025.282-.154.532-.385.678-.39.239-.875.133-1.31.16-.489-.003-1.13.04-1.397-.466-.26-.593-.313-1.255-.48-1.88-.654.791-1.333 1.608-2.28 2.065-1.445.709-3.133.668-4.678.368-1.891-.371-3.633-1.483-4.702-3.083-1.274-1.865-1.736-4.166-1.718-6.39-.016-2.169.411-4.41 1.624-6.245.97-1.5 2.527-2.585 4.25-3.059m33.817 14.202c-.96.35-1.564 1.45-1.32 2.444.25 1.167 1.616 1.963 2.755 1.531 1.05-.318 1.713-1.509 1.387-2.558-.286-1.181-1.696-1.88-2.822-1.417zm.133-.499c.57-.089 1.188-.095 1.717.167.9.406 1.546 1.366 1.449 2.365.075 1.19-.933 2.255-2.084 2.447-1.295.274-2.69-.659-2.953-1.943-.34-1.292.563-2.746 1.871-3.036"/><path fill="#3069B5" d="M208.092 977.512c-.002.27-.004.54 0 .813.238-.015.484 0 .72-.065.22-.091.198-.371.138-.558-.229-.223-.57-.165-.858-.19zm-.72-.44c.688.038 1.46-.155 2.08.227.5.373.258 1.184-.307 1.357.163.428.39.825.596 1.233l-.773.013a60.339 60.339 0 01-.544-1.14l-.332-.005c-.002.38-.002.76-.002 1.141l-.722-.008c.002-.94-.001-1.88.004-2.819"/></g></g></svg>