<svg xmlns="http://www.w3.org/2000/svg" viewBox="0 0 356.4 90.5"><path fill="#007DC3" d="M155 44.7h-8V6c3.4-.6 8.1-1.1 12.8-1.1 8.7 0 15.8 1.7 15.8 12.4 0 7-2.9 10.3-7.6 11.7l9 15.8h-9.2l-8.1-14.9c-1.6 0-3.4-.1-4.8-.2v15zm0-21.4c1.6.2 3.2.2 4.9.2 5 0 7.9-1.3 7.9-6.3 0-4.4-2-6.1-7.7-6.1-1.6 0-3.4.1-5 .3v11.9zM201.7 44.7V26.4c0-4.3-.8-6.1-6.3-6.1-1.7 0-3.4.3-4.9.9v23.5H183V3h7.5v12.2c2-.6 4.2-1 6.7-1 10.8 0 11.9 5.1 11.9 11.5v19.1h-7.4zM233.5 14.6h7.6l-14 41.2h-7.6l4.7-13.2-12.1-28h8l7.5 18.6 5.9-18.6zM256.7 6.1v8.5h6.1v5.7h-6.1v15.6c0 2.5 1 3.5 3.6 3.5.8 0 1.7 0 2.5-.1l.6 5.3c-1.6.3-3.6.5-5.2.5-6.3 0-9-2.8-9-8.5V20.3h-4.9v-5.7h4.9V7.3l7.5-1.2zM288.2 44.7V26.4c0-4.3-.8-6.1-6.3-6.1-1.7 0-3.4.3-4.9.9v23.5h-7.5V3h7.5v12.2c2-.6 4.2-1 6.7-1 10.8 0 11.9 5.1 11.9 11.5v19.1h-7.4z"/><g fill="#007DC3"><path d="M17.9 39.7c0-2.8 2.3-5.1 5.1-5.1s5.1 2.3 5.1 5.1-2.3 5.1-5.1 5.1c-2.9-.1-5.1-2.3-5.1-5.1zM32.7 24.9c0-2.8 2.3-5.1 5.1-5.1s5.1 2.3 5.1 5.1-2.3 5.1-5.1 5.1c-2.8-.1-5.1-2.3-5.1-5.1zM3.1 39.7c0-2.8 2.3-5.1 5.1-5.1s5.1 2.3 5.1 5.1-2.3 5.1-5.1 5.1c-2.9-.1-5.1-2.3-5.1-5.1zM32.7 10c0-2.8 2.3-5 5.1-5s5.1 2.3 5.1 5.1-2.3 5.1-5.1 5.1c-2.8-.1-5.1-2.4-5.1-5.2zM3.1 24.9c0-2.8 2.3-5.1 5.1-5.1s5.1 2.3 5.1 5.1S11 30 8.2 30c-2.9-.1-5.1-2.3-5.1-5.1zM17.9 10c0-2.8 2.3-5.1 5.1-5.1s5.1 2.3 5.1 5.1-2.3 5.1-5.1 5.1c-2.9 0-5.1-2.3-5.1-5.1z"/></g><g fill="#002D56"><path d="M76.5 44.6c-2.8.1-7.6.3-10.1.3-7.1 0-13.7-.4-13.7-9.6v-30h8V33c0 4.4.8 5.4 5.5 5.4h10.2v6.2zM78.8 29.7c0-11.2 3.6-15.5 13.5-15.5s13.5 4.4 13.5 15.5-3.6 15.5-13.5 15.5-13.5-4.3-13.5-15.5zm19.5 0c0-7.3-1.3-9.4-6-9.4s-6 1.9-6 9.4c0 7.6 1.2 9.4 6 9.4s6-2.1 6-9.4zM113.3 49.4c3 .4 7.4.9 10.9.9 4 0 5.8-1.9 5.8-5.6v-.9c-1.8.4-3.9.6-5.8.6-9.2 0-13.4-3.7-13.4-15.1 0-11.6 4.5-15.1 14.3-15.1 4.1 0 8.7.8 12.1 2.8.2 1.9.3 3.7.3 5.7v23.8c0 7.9-5.6 9.8-12.4 9.8-4.5 0-9.3-.7-12.5-1.3l.7-5.6zm5.1-20.1c0 5.3.3 9.2 7.4 9.2 1.3 0 3-.3 4.2-.7v-13c0-1.4-.1-2.8-.2-4-1.1-.5-3-.8-4.7-.8-6.2.1-6.7 4.6-6.7 9.3zM17.9 24.9c0-2.8 2.3-5.1 5.1-5.1s5.1 2.3 5.1 5.1S25.8 30 23 30c-2.9-.1-5.1-2.3-5.1-5.1z"/><g><path d="M13.4 71.3H9.8v12.5h-3V71.3H3.1v-2.4h10.4v2.4zM22.5 83.8v-6.9c0-1.6-.3-2.3-2.4-2.3-.6 0-1.3.1-1.8.4v8.9h-2.8v-16h2.8v4.6c.8-.2 1.6-.4 2.5-.4 4.1 0 4.5 1.9 4.5 4.3v7.2h-2.8zM27.7 78.1c0-4.1 1.3-5.9 5.1-5.9 4.2 0 5 2.2 5 5.6v.9c-1.3.2-3.8.5-5.4.6l-1.9.1c.1 1.8 1 2.2 2.7 2.2 1.5 0 2.9-.2 4.1-.3l.2 2.1c-1.2.2-2.8.4-5 .4-3.8.1-4.8-2.4-4.8-5.7zm4.7-.7c.7 0 1.9-.1 2.6-.2v-.5c0-1.5-.6-2.3-2.2-2.3-2.1 0-2.4 1.3-2.4 3.1l2-.1zM48.4 72.7c0 1.5 1 1.7 2.7 2.2 2.9.8 4.1 1.9 4.1 4.6 0 3.3-2 4.5-5.5 4.5-1.7 0-3.1-.2-4.3-.5l.3-2.4c1.1.2 2.8.3 3.9.3 1.6 0 2.5-.4 2.5-1.9 0-1.4-1.1-1.7-2.5-2.1-2.7-.8-4.3-1.6-4.3-4.5 0-3.2 1.9-4.3 5.3-4.3 1.6 0 3.2.2 4.3.5l-.3 2.3c-1-.2-2.2-.3-3.3-.3-1.1.1-2.9.1-2.9 1.6zM57.3 78.1c0-4.1 1.3-5.9 5.1-5.9 4.2 0 5 2.2 5 5.6v.9c-1.3.2-3.8.5-5.4.6l-1.9.1c.1 1.8 1 2.2 2.7 2.2 1.5 0 2.9-.2 4.1-.3l.2 2.1c-1.2.2-2.8.4-5 .4-3.8.1-4.8-2.4-4.8-5.7zm4.7-.7c.7 0 1.9-.1 2.6-.2v-.5c0-1.5-.6-2.3-2.2-2.3-2.1 0-2.4 1.3-2.4 3.1l2-.1zM77.7 83.5c-1 .3-2.2.4-3.7.4-3.8 0-4.4-2.9-4.4-6 0-3.7.9-5.8 5.1-5.8 1.3 0 2.3.2 3.1.4l-.2 2.1c-.7-.1-1.4-.3-2.1-.3-2.7 0-3 .8-3 3.5 0 2.6.1 3.7 3 3.7.7 0 1.3-.1 2-.3l.2 2.3zM79.9 72.4h2.8v7c0 1.6.3 2.3 2.2 2.3.6 0 1.3-.1 1.7-.3.1-.5.1-1 .1-1.5v-7.5h2.8v8.3c0 .8 0 1.4-.1 2.2-1.3.7-3.1 1.1-5.1 1.1-4.1 0-4.5-1.8-4.5-4.3v-7.3zM92.5 83.8v-8.3c0-.8 0-1.4.1-2.2 1.3-.7 3-1.1 4.6-1.1.4 0 .8 0 1.2.1l-.2 2.3h-.8c-.7 0-1.4.1-1.9.4-.1.5-.1 1-.1 1.5v7.4h-2.9zM100 69.4c0-1.2.4-1.6 1.7-1.6 1.3 0 1.7.4 1.7 1.6 0 1.2-.4 1.6-1.7 1.6-1.3 0-1.7-.4-1.7-1.6zm.3 3h2.9v11.4h-2.9V72.4zM109.9 69.1v3.2h2.3v2.2h-2.3v5.9c0 .9.4 1.3 1.4 1.3h1l.2 2c-.6.1-1.3.2-2 .2-2.4 0-3.4-1-3.4-3.2v-6.2h-1.9v-2.2h1.9v-2.8l2.8-.4zM121.9 72.4h2.9L119.4 88h-2.9l1.8-5-4.6-10.6h3l2.9 7 2.3-7zM132.2 68.8h3v14.9h-3V68.8zM141 83.8h-2.8v-8.3c0-.8 0-1.4.1-2.2 1.3-.7 3.1-1.1 5.1-1.1 4.1 0 4.5 1.8 4.5 4.3v7.3h-2.8v-7c0-1.6-.3-2.3-2.3-2.3-.6 0-1.3.1-1.8.3-.1.5-.1 1-.1 1.5v7.5zM154.6 69.1v3.2h2.3v2.2h-2.3v5.9c0 .9.4 1.3 1.4 1.3h1l.2 2c-.6.1-1.3.2-2 .2-2.4 0-3.4-1-3.4-3.2v-6.2h-1.9v-2.2h1.9v-2.8l2.8-.4zM158.6 78.1c0-4.1 1.3-5.9 5.1-5.9 4.2 0 5 2.2 5 5.6v.9c-1.3.2-3.8.5-5.4.6l-1.9.1c.1 1.8 1 2.2 2.7 2.2 1.5 0 2.9-.2 4.1-.3l.2 2.1c-1.2.2-2.8.4-5 .4-3.8.1-4.8-2.4-4.8-5.7zm4.7-.7c.7 0 1.9-.1 2.6-.2v-.5c0-1.5-.6-2.3-2.2-2.3-2.1 0-2.4 1.3-2.4 3.1l2-.1zM171 67.9h2.9v12.7c0 1 .2 1.7.8 2.5l-2.5 1.2c-.7-.9-1.1-1.9-1.1-3.5V67.9zM176.7 67.9h2.9v12.7c0 1 .2 1.7.8 2.5l-2.5 1.2c-.7-.9-1.1-1.9-1.1-3.5V67.9zM182.3 69.4c0-1.2.4-1.6 1.7-1.6 1.3 0 1.7.4 1.7 1.6 0 1.2-.4 1.6-1.7 1.6-1.4 0-1.7-.4-1.7-1.6zm.2 3h2.9v11.4h-2.9V72.4zM188.7 85.5c1.1.2 2.8.3 4.1.3 1.5 0 2.2-.7 2.2-2.1v-.3c-.7.1-1.5.2-2.2.2-3.5 0-5.1-1.4-5.1-5.7 0-4.4 1.7-5.7 5.4-5.7 1.5 0 3.3.3 4.6 1.1.1.7.1 1.4.1 2.2v9c0 3-2.1 3.7-4.7 3.7-1.7 0-3.5-.3-4.7-.5l.3-2.2zm1.9-7.6c0 2 .1 3.5 2.8 3.5.5 0 1.1-.1 1.6-.2v-4.9c0-.5 0-1.1-.1-1.5-.4-.2-1.2-.3-1.8-.3-2.3-.1-2.5 1.7-2.5 3.4zM200.3 78.1c0-4.1 1.3-5.9 5.1-5.9 4.2 0 5 2.2 5 5.6v.9c-1.3.2-3.8.5-5.4.6l-1.9.1c.1 1.8 1 2.2 2.7 2.2 1.5 0 2.9-.2 4.1-.3l.2 2.1c-1.2.2-2.8.4-5 .4-3.8.1-4.8-2.4-4.8-5.7zm4.7-.7c.7 0 1.9-.1 2.6-.2v-.5c0-1.5-.6-2.3-2.2-2.3-2.1 0-2.4 1.3-2.4 3.1l2-.1zM215.7 83.8h-2.8v-8.3c0-.8 0-1.4.1-2.2 1.3-.7 3.1-1.1 5.1-1.1 4.1 0 4.5 1.8 4.5 4.3v7.3h-2.8v-7c0-1.6-.3-2.3-2.3-2.3-.6 0-1.3.1-1.8.3-.1.5-.1 1-.1 1.5v7.5zM233.3 83.5c-1 .3-2.2.4-3.7.4-3.8 0-4.4-2.9-4.4-6 0-3.7.9-5.8 5.1-5.8 1.3 0 2.3.2 3.1.4l-.2 2.1c-.7-.1-1.4-.3-2.1-.3-2.7 0-3 .8-3 3.5 0 2.6.1 3.7 3 3.7.7 0 1.3-.1 2-.3l.2 2.3zM235 78.1c0-4.1 1.3-5.9 5.1-5.9 4.2 0 5 2.2 5 5.6v.9c-1.3.2-3.8.5-5.4.6l-1.9.1c.1 1.8 1 2.2 2.7 2.2 1.5 0 2.9-.2 4.1-.3l.2 2.1c-1.2.2-2.8.4-5 .4-3.8.1-4.8-2.4-4.8-5.7zm4.7-.7c.7 0 1.9-.1 2.6-.2v-.5c0-1.5-.6-2.3-2.2-2.3-2.1 0-2.4 1.3-2.4 3.1l2-.1zM262.9 83.5c-1 .3-2.3.4-3.9.4-5 0-6.2-2.3-6.2-7.6s1.2-7.6 6.2-7.6c1.6 0 2.9.2 3.9.5l-.3 2.3c-1-.2-2-.3-3.1-.3-3.6 0-3.7 2.1-3.7 5.1 0 2.9.1 5.1 3.7 5.1 1 0 2.1-.1 3.1-.3l.3 2.4zM264.6 78.1c0-4.3 1.4-5.9 5.1-5.9 3.8 0 5.1 1.7 5.1 5.9s-1.4 5.9-5.1 5.9c-3.7-.1-5.1-1.7-5.1-5.9zm7.4 0c0-2.8-.5-3.6-2.3-3.6-1.8 0-2.3.7-2.3 3.6 0 2.9.5 3.6 2.3 3.6 1.8-.1 2.3-.9 2.3-3.6zM280.2 83.8h-2.8v-8.3c0-.8 0-1.4.1-2.2 1.3-.7 3.1-1.1 4.8-1.1 1.3 0 2.1.2 2.8.7 1-.4 2.3-.7 3.5-.7 3.7 0 4.2 2 4.2 4.3v7.3H290v-7c0-1.5-.4-2.3-2-2.3-.4 0-1.1.1-1.6.4.1.5.2 1.1.2 1.6v7.3h-2.8v-7c0-1.5-.3-2.3-1.9-2.3-.5 0-1.1.1-1.5.3-.1.5-.1 1-.1 1.5v7.5zM298.4 88h-2.8V75.4c0-.8 0-1.4.1-2.2 1.3-.7 3-1.1 4.6-1.1 3.8 0 5.4 1.4 5.4 5.9 0 4.4-1.6 5.9-5.1 5.9-.7 0-1.5-.1-2.2-.2V88zm1.6-6.3c2.7 0 2.8-1.5 2.8-3.6 0-1.9-.1-3.6-2.5-3.6-.6 0-1.4.1-1.8.3-.1.5-.1 1-.1 1.5v5.2c.5.1 1.1.2 1.6.2zM307.6 80.3c0-2 .9-3.3 3.2-3.6 1.2-.2 2.4-.2 3.7-.3 0-1.3-.6-1.9-2.1-1.9-1.4 0-2.9.1-4 .3l-.2-2.1c1.2-.2 2.8-.4 4.5-.4 2.5 0 4.7.7 4.7 3.7v4.8c0 .8 0 1.4-.1 2.2-1.3.8-3 1.1-5.1 1.1-3.3-.2-4.6-1.4-4.6-3.8zm6.9-2.1c-.9 0-1.8.1-2.6.3-1 .2-1.4.6-1.4 1.8 0 1.2.7 1.5 1.9 1.5.6 0 1.4 0 2-.3.1-.5.1-1 .1-1.5v-1.8zM322.9 83.8h-2.8v-8.3c0-.8 0-1.4.1-2.2 1.3-.7 3.1-1.1 5.1-1.1 4.1 0 4.5 1.8 4.5 4.3v7.3H327v-7c0-1.6-.3-2.3-2.3-2.3-.6 0-1.3.1-1.8.3-.1.5-.1 1-.1 1.5v7.5zM339.4 72.4h2.9L337 88h-2.9l1.8-5-4.6-10.6h3l2.9 7 2.2-7z"/></g></g><path fill="#007DC3" d="M309.8 44.7h-7.5v-22c0-2 .1-3.8.3-5.7 3.4-1.8 8.1-2.8 12.8-2.8 3.3 0 5.7.6 7.3 1.7 2.7-1 6-1.7 9.2-1.7 9.6 0 11.1 5.2 11.1 11.4v19.2h-7.5V26.2c0-3.9-.9-6-5.2-6-1.2 0-2.9.3-4.3 1 .3 1.4.4 2.8.4 4.3v19.2h-7.5V26.2c0-3.8-.9-6-5-6-1.3 0-2.9.3-3.8.8-.1 1.2-.2 2.7-.2 4v19.7zM349.2 14.2c2.2 0 4 1.8 4 4s-1.8 4-4 4-4-1.8-4-4 1.8-4 4-4zm0 1c-1.7 0-3 1.3-3 3s1.3 3.1 3 3.1 3-1.3 3-3.1c0-1.7-1.3-3-3-3zm-.5 5.1h-1v-4.4h1.6c1.2 0 1.7.5 1.7 1.3 0 .6-.3 1-.8 1.2l.9 1.9H350l-.8-1.7h-.5v1.7zm0-3.5v1h.5c.6 0 .9-.2.9-.5 0-.4-.3-.5-.9-.5h-.5z"/></svg>