<svg xmlns="http://www.w3.org/2000/svg" viewBox="0 0 434.73 74.751"><g fill="#54534A"><path d="M90.434 73.57c-.355 0-.355-.633 0-.633 1.24 0 3.81-3.086 3.81-7.44V9.15c0-4.445-2.57-7.53-3.81-7.53-.355 0-.355-.635 0-.635h20.647c.355 0 .355.635 0 .635-1.24 0-3.81 3.085-3.81 7.53l.087 55.71c2.48.545 6.027.727 9.926.727 8.33-.09 16.838-.544 20.56-5.354.356-.453.888-.453.8 0l-4.08 13.337h-44.13zM153.262 53.61c0 8.076 4.874 12.158 11.256 12.158 6.468 0 11.61-5.17 11.61-12.158V27.48c0-4.356-2.57-7.44-3.812-7.44-.355 0-.355-.637 0-.637h16.66v46.092c0 4.356 2.57 7.44 3.81 7.44.356 0 .356.634 0 .634H176.13v-5.354c-1.772 1.27-5.937 6.534-17.636 6.534-10.635 0-18.08-6.534-18.08-21.14V27.48c0-4.356-2.567-7.44-3.81-7.44-.353 0-.353-.637 0-.637h16.66V53.61zM286.367 72.937c.355 0 .355.633 0 .633h-20.56c-.354 0-.354-.633 0-.633 1.24 0 3.81-3.086 3.81-7.44V39.272c0-8.256-4.695-11.885-10.457-11.885-5.848 0-10.543 4.447-10.543 11.885v26.222c0 4.356 2.568 7.44 3.81 7.44.354 0 .354.634 0 .634h-20.56c-.355 0-.355-.634 0-.634 1.24 0 3.81-3.086 3.81-7.44V39.272c0-8.438-4.696-11.885-10.456-11.885s-10.545 4.536-10.545 11.885v26.222c0 4.356 2.57 7.44 3.81 7.44.355 0 .355.634 0 .634h-20.56c-.355 0-.355-.634 0-.634 1.24 0 3.812-3.086 3.812-7.44V27.478c0-4.356-2.57-7.44-3.812-7.44-.355 0-.355-.637 0-.637h16.572v5.716c1.507-1.452 6.202-6.987 15.596-6.987 8.065 0 12.318 3.266 16.042 8.075 1.24-1.27 6.733-8.075 17.9-8.075 11.786 0 18.52 7.35 18.52 21.684v25.678c.003 4.356 2.57 7.442 3.812 7.442zM321.903 66.495c9.305 0 16.306-5.99 17.368-7.26.533-.635.8-.363.71 0l-2.746 11.523c-2.038.816-6.026 3.993-18.345 3.993-15.774 0-28.448-12.068-28.448-28.58 0-15.697 10.635-28.037 26.763-28.037 16.66 0 25.612 14.516 24.282 28.853H304.09c.354 13.247 8.773 19.51 17.813 19.51zm-4.875-41.285c-7.975 0-11.874 5.988-12.584 14.426h23.308c.53-7.982-3.546-14.426-10.724-14.426zM349.285 26.572h-5.76v-2.36c6.202-4.445 13.47-12.61 17.014-17.147h1.86v12.34h12.053l-1.507 7.167h-10.724v30.576c0 8.802 4.875 11.162 11.522 8.076.796-.454.886.182.71.454l-3.19 7.985c-1.95.452-3.9 1.088-7.71 1.088-7.27 0-14.27-4.717-14.27-14.607v-33.57zM398.91 25.573c-9.747 0-15.86 5.263-17.81 7.802-.267.363-.622.092-.532-.27l2.568-12.432c1.507-.454 7.534-2.54 17.902-2.54 12.495 0 21.8 4.99 21.8 18.78v23.77c0 6.443 6.026 6.898 7 5.99.443-.272.71-.09.443.183l-5.315 7.62c-7.354.91-12.14-2.54-13.47-6.624-2.038 2.36-7 6.897-16.837 6.897-9.307 0-19.143-5.81-19.32-15.88-.09-11.068 8.242-15.333 16.926-16.966 9.66-1.996 17.547-1.996 17.547-9.074 0-5.35-4.784-7.257-10.9-7.257zm-9.747 32.03c0 5.534 4.075 8.98 8.596 8.98 6.113 0 12.406-5.442 12.406-11.34V44.72c-4.52 1.632-7.8 2.176-12.673 3.627-4.963 1.725-8.33 3.54-8.33 9.255z"/></g><path fill="#00539B" d="M50.466.02l-38.59 58.883L29.278.01H12.676S0-.804 0 12.526v61.1h61.902c11.337 0 11.717-8.827 11.717-11.046V44.974l-58.903 16.39 58.9-38.563V12.228C73.618.01 60.014.015 60.014.015L50.466.02z"/><linearGradient id="a" gradientUnits="userSpaceOnUse" x1="14.717" y1="42.082" x2="73.617" y2="42.082"><stop offset="0" stop-color="#FFD200"/><stop offset=".271" stop-color="#FFCF07"/><stop offset=".59" stop-color="#FFC51D"/><stop offset=".932" stop-color="#FCB430"/><stop offset="1" stop-color="#FBB034"/></linearGradient><path fill="url(#a)" d="M73.617 44.974V22.8l-58.9 38.563"/><linearGradient id="b" gradientUnits="userSpaceOnUse" x1="11.877" y1="29.456" x2="50.466" y2="29.456"><stop offset="0" stop-color="#FFD200"/><stop offset=".271" stop-color="#FFCF07"/><stop offset=".59" stop-color="#FFC51D"/><stop offset=".932" stop-color="#FCB430"/><stop offset="1" stop-color="#FBB034"/></linearGradient><path fill="url(#b)" d="M50.466.02L29.278.01l-17.4 58.893"/><g><path fill="#54534A" d="M430.978 55.208c2.04 0 3.753 1.613 3.753 3.725 0 2.153-1.71 3.766-3.752 3.766-2.053 0-3.775-1.613-3.775-3.767 0-2.112 1.722-3.725 3.775-3.725zm0 6.94c1.732 0 3.074-1.384 3.074-3.215 0-1.792-1.342-3.173-3.074-3.173-1.753 0-3.095 1.38-3.095 3.173 0 1.83 1.342 3.214 3.095 3.214zm-1.462-5.39h1.69c1.043 0 1.532.412 1.532 1.254 0 .792-.5 1.12-1.15 1.19l1.252 1.933h-.73l-1.192-1.882h-.72v1.882h-.682V56.76zm.68 1.945h.71c.602 0 1.15-.03 1.15-.72 0-.582-.5-.672-.96-.672h-.9v1.393z"/></g></svg>