<svg width="150" height="58" viewBox="0 0 150 58" xmlns="http://www.w3.org/2000/svg" xmlns:xlink="http://www.w3.org/1999/xlink"><defs><path id="a" d="M0 56.897h149.494V.012H0z"/></defs><g fill="none" fill-rule="evenodd"><path fill="#FFF" d="M8.897 47.7l-2.873 4.464L3.151 47.7H1.384v9.441h1.633v-6.743L5.97 54.82h.054l2.98-4.45v6.77h1.66v-9.44zM16.432 47.634l-4.154 9.507h1.7l.97-2.28h4.464l.957 2.28h1.754l-4.154-9.507h-1.537zm.742 1.981l1.631 3.777h-3.25l1.619-3.777z"/><g transform="translate(0 .634)"><path d="M27.824 51.746c1.187 0 1.943-.62 1.943-1.578v-.027c0-1.012-.728-1.564-1.956-1.564h-2.414v3.169h2.427zm-4.086-4.68h4.207c1.187 0 2.118.351 2.725.945.499.512.782 1.213.782 2.036v.027c0 1.55-.93 2.481-2.252 2.859l2.549 3.573h-1.955l-2.32-3.29h-2.077v3.29h-1.659v-9.44z" fill="#FFF"/><mask id="b" fill="#fff"><use xlink:href="#a"/></mask><path fill="#FFF" mask="url(#b)" d="M33.58 56.507h1.658v-9.441H33.58zM37.76 47.066h1.537l5.057 6.527v-6.527h1.633v9.44h-1.39l-5.206-6.716v6.717H37.76zM48.41 47.066h7v1.484h-5.34v2.454h4.734v1.484h-4.735v2.535h5.409v1.484H48.41zM61.07 51.813v-.027c0-2.683 2.01-4.882 4.869-4.882 1.74 0 2.791.607 3.695 1.47l-1.065 1.227c-.755-.701-1.565-1.172-2.643-1.172-1.808 0-3.116 1.483-3.116 3.33v.027c0 1.847 1.308 3.358 3.116 3.358 1.159 0 1.9-.472 2.71-1.227l1.065 1.08c-.984 1.024-2.063 1.671-3.83 1.671-2.75 0-4.801-2.144-4.801-4.855M78.883 51.813v-.027c0-1.834-1.335-3.357-3.21-3.357s-3.183 1.496-3.183 3.33v.027c0 1.834 1.336 3.358 3.21 3.358 1.875 0 3.183-1.496 3.183-3.33m-8.132 0v-.028c0-2.657 2.05-4.882 4.949-4.882 2.9 0 4.922 2.199 4.922 4.856v.026c0 2.657-2.049 4.882-4.95 4.882-2.898 0-4.921-2.198-4.921-4.855M86.715 51.746c1.187 0 1.942-.62 1.942-1.578v-.027c0-1.012-.728-1.564-1.956-1.564h-2.413v3.169h2.427zm-4.086-4.68h4.207c1.187 0 2.118.351 2.724.945.5.512.783 1.213.783 2.036v.027c0 1.55-.93 2.481-2.252 2.859l2.548 3.573h-1.955l-2.32-3.29h-2.076v3.29h-1.66v-9.44zM95.964 51.975c1.253 0 2.036-.701 2.036-1.686v-.026c0-1.106-.796-1.686-2.036-1.686h-1.928v3.398h1.928zm-3.588-4.91h3.723c2.197 0 3.587 1.256 3.587 3.157v.027c0 2.117-1.7 3.223-3.777 3.223h-1.873v3.035h-1.66v-9.441zM100.748 55.13l.999-1.186c.903.782 1.807 1.227 2.98 1.227 1.025 0 1.672-.472 1.672-1.186v-.027c0-.675-.377-1.04-2.13-1.443-2.01-.486-3.142-1.08-3.142-2.819v-.027c0-1.618 1.348-2.738 3.222-2.738 1.376 0 2.468.418 3.426 1.186l-.89 1.255c-.85-.634-1.7-.97-2.563-.97-.97 0-1.537.498-1.537 1.118v.028c0 .728.431 1.052 2.238 1.483 1.997.485 3.035 1.2 3.035 2.765v.027c0 1.767-1.39 2.819-3.372 2.819-1.443 0-2.804-.5-3.938-1.511M112.646 49v-.011c0-1.107.83-2.014 2.009-2.014.718 0 1.152.25 1.525.606l-.44.506c-.312-.289-.646-.484-1.09-.484-.746 0-1.286.612-1.286 1.375v.01c0 .763.54 1.386 1.285 1.386.479 0 .785-.194 1.119-.506l.44.445c-.407.423-.852.69-1.581.69-1.135 0-1.98-.885-1.98-2.003M119.995 49v-.011c0-.757-.552-1.386-1.325-1.386-.773 0-1.313.618-1.313 1.375v.01c0 .757.55 1.386 1.324 1.386s1.314-.617 1.314-1.374m-3.355 0v-.011c0-1.096.845-2.014 2.041-2.014 1.197 0 2.031.907 2.031 2.003v.01c0 1.097-.845 2.015-2.042 2.015-1.196 0-2.03-.907-2.03-2.003M121.539 47.041h.73l1.184 1.842 1.186-1.842h.728v3.895h-.684v-2.793l-1.23 1.836h-.022l-1.219-1.825v2.782h-.673zM126.367 47.041h.729l1.185 1.842 1.185-1.842h.729v3.895h-.685v-2.793l-1.229 1.836h-.023l-1.218-1.825v2.782h-.673zM131.132 49.284V47.04h.685v2.215c0 .723.373 1.113.985 1.113.606 0 .98-.367.98-1.085V47.04h.683v2.21c0 1.162-.656 1.746-1.675 1.746-1.012 0-1.658-.584-1.658-1.713M135.404 47.041h.634l2.087 2.693v-2.693h.673v3.895h-.573l-2.148-2.771v2.77h-.673zM139.837 50.936h.685v-3.895h-.685zM142.518 47.676h-1.235v-.635h3.16v.635h-1.235v3.26h-.69zM146.31 49.4l-1.547-2.359h.807l1.091 1.725 1.102-1.725h.784L147 49.384v1.552h-.69zM112.557 56.262l.412-.49c.373.323.746.507 1.23.507.422 0 .69-.195.69-.49v-.011c0-.278-.156-.428-.88-.595-.828-.2-1.296-.446-1.296-1.163v-.011c0-.668.557-1.13 1.33-1.13.568 0 1.018.172 1.413.49l-.367.517c-.35-.261-.701-.4-1.058-.4-.4 0-.633.205-.633.461v.011c0 .301.178.434.923.613.824.2 1.252.494 1.252 1.14v.011c0 .73-.573 1.163-1.39 1.163a2.398 2.398 0 01-1.626-.623M116.378 52.935h2.888v.612h-2.203v1.012h1.952v.613h-1.952v1.046h2.23v.611h-2.915zM121.79 54.865c.49 0 .801-.256.801-.65v-.012c0-.417-.3-.645-.806-.645h-.996v1.307h1.001zm-1.685-1.93h1.736c.49 0 .873.144 1.123.389.207.211.323.501.323.84v.012c0 .64-.383 1.024-.93 1.18l1.053 1.474h-.807l-.958-1.358h-.856v1.358h-.684v-3.895zM123.68 52.935h.757l1.174 2.993 1.169-2.993h.74l-1.62 3.922h-.6zM128.224 56.83h.685v-3.896h-.685zM129.776 54.893v-.01c0-1.108.828-2.015 2.008-2.015.718 0 1.152.25 1.525.607l-.44.506c-.311-.29-.646-.484-1.09-.484-.746 0-1.286.612-1.286 1.374v.011c0 .762.54 1.386 1.286 1.386.478 0 .784-.195 1.118-.507l.44.445c-.406.424-.852.69-1.581.69-1.135 0-1.98-.884-1.98-2.003M134.053 52.935h2.888v.612h-2.204v1.012h1.953v.613h-1.953v1.046h2.232v.611h-2.916zM137.517 56.262l.412-.49c.372.323.745.507 1.23.507.422 0 .689-.195.689-.49v-.011c0-.278-.155-.428-.879-.595-.829-.2-1.296-.446-1.296-1.163v-.011c0-.668.557-1.13 1.33-1.13.568 0 1.018.172 1.413.49l-.367.517c-.351-.261-.702-.4-1.058-.4-.4 0-.633.205-.633.461v.011c0 .301.177.434.924.613.823.2 1.25.494 1.25 1.14v.011c0 .73-.572 1.163-1.39 1.163a2.398 2.398 0 01-1.625-.623"/><path d="M89.91 17.26l-1.568.73c-.081.037-.095.032-.122-.033-.073-.157.038-.4.186-.468v-.001l.691-.322c.077-.036.127-.09.112-.123l-.23-.292c-.016-.032-.084-.033-.154 0l-1.227.57c-.062.03-.105.075-.1.108l.043.302c.028.162-.005.614-.25.753l-.02.013-.012.008c-.08.058-.121.116-.104.152l.247.533c.025.053.161.04.306-.026l2.539-1.18c.144-.067.24-.164.216-.216l-.248-.534c-.024-.052-.16-.041-.305.026M92.913 29.182c-.015-.031.036-.087.113-.123l1.356-.63c.077-.036.151-.04.166-.006l.07.364c.015.032-.029.085-.098.117l-1.219.567c-.069.031-.138.031-.152-.001l-.236-.288zM76.403 5.448s-1.187.859-1.06 1.62c.057.349 1.05.352 1.05.352l.208-1.82-.198-.152z" fill="#7E7E7E" mask="url(#b)"/><path d="M81.08 8.127l-.838-3.271a.633.633 0 00-.336-.435l-1.11-.606-.53.123s.433.24.568.323c.134.082.313.32.076.384s-.515.161-.515.161l-.39-.734s-.81-.067-1.13-.085c-.32-.017-.395.189-.395.189l-.52.837.304-.071 1.484.89-.686 2.291.639-.3c.136-.063.27-.111.533.019l.805.422.765-.393.009-.003c.307-.157.44-.087.6-.022l.668.281zM88.82 2.462c-.023-.025-.105-.026-.208-.01-.218.037-.534.076-.63.093-.49.082-.652-.322-.652-.322l.552-.729c.07-.09-.014-.244-.06-.286-.227.104-.45.212-.621.3-.268.14-.764.308-.764.045 0-.255-.004-.453-.013-.479-.087-.267-.296-.25-.296-.25L78.881.82s-.38.012-.533-.015c-.154-.027-.403-.108-.773-.261-.48-.202-1.035-.441-1.212-.519a.222.222 0 00-.142-.003c-.329.09-1.504.38-1.599 1.265-.057.53 1.556 2.154 1.857 2.423l.296-.003s-.712-1.248-.7-1.351c.007-.054.257-.24.354-.307.026-.018.05-.024.077-.008l.91.497s.158.092.321.092l8.257-.002c.1 0 .11.028.11.048v.513c.001.124.117.23.276.283.602.208 1.81-.409 2.574-.86l-.135-.15M69.76 41.912c.129.061.294.17.344.342.128.444.139.465.284.549l.122.077.034.125c-.118.054-.686.3-.992.147a.356.356 0 01-.188-.267l-.022-.117c-.096-.498-.147-.751-.382-.865a6.626 6.626 0 01-.033-.118c.146-.043.539-.012.833.127M68.497 41.958c.113.095.247.244.251.428.009.46.014.482.133.602l.098.106.001.13c-.126.022-.738.113-.996-.115a.343.343 0 01-.113-.307l.007-.12c.013-.173.024-.318.024-.441 0-.23-.04-.379-.17-.493v-.125c.15-.002.519.128.765.335M61.341 25.746a.358.358 0 01.313.07l.033.024c.494.364.667.49.914.403l.094.06c-.117.129-.658.679-1.057.423-.49-.313-.518-.317-.751-.267l-.064.013a9.94 9.94 0 01-.104-.069c.053-.105.309-.578.622-.657M65.821 22.107c.189.463.737.689 1.227.488.176-.072.345-.221.444-.372.02-.03.02-.063-.001-.086l-.016-.008c-.402.145-.824.012-.955-.309-.133-.322.076-.714.466-.892a.075.075 0 00-.002-.041.075.075 0 00-.048-.039h-.002a.977.977 0 00-.571.073c-.486.199-.73.723-.542 1.186m.748 1.162c-.137-.214-.339-.218-.457-.23-.588-.038-1.144.25-1.202.264-.077.022-.16 0-.16 0-.657-.254-1.408-.628-1.487-.654.067-.191.25-.438.25-.438.049-.049 2.034-2.788 6.254-2.725.468.007.665 0 .965.066-.062.117-.222.315-.26.363-1.355 1.736-2.561 5.489-2.592 5.547-1.174-.95-.895-1.546-1.31-2.193M65.379 40.548c.14.056.431.32.58.607a.757.757 0 01.097.34c0 .05-.008.1-.027.15-.102.267-.142.377-.142.459 0 .049.014.088.038.146 0 0 .045.121.05.139a8.674 8.674 0 01-.047.118c-.125-.028-.724-.178-.877-.487a.329.329 0 01-.034-.146c0-.06.015-.12.046-.183l.053-.108c.161-.328.266-.539.266-.72a.433.433 0 00-.05-.198l.047-.117M64.373 39.723c.195.083.418.334.518.588a.76.76 0 01.057.272c0 .07-.014.143-.05.211-.165.32-.214.44-.214.557 0 .053.01.107.025.178l.018.097-.06.108c-.121-.064-.644-.357-.735-.684a.329.329 0 01.041-.273l.009-.013c.24-.377.364-.572.364-.765a.505.505 0 00-.032-.169l.06-.107M63.56 38.656c.18.114.363.4.421.669.012.052.021.113.021.177a.486.486 0 01-.088.295c-.264.36-.303.446-.303.606l.003.095.003.097-.077.096c-.109-.082-.58-.453-.62-.792a.322.322 0 01.083-.264l.01-.01c.329-.374.482-.547.482-.766a.534.534 0 00-.011-.104l.076-.099M62.825 37.543c.076.101.336.476.336.807a.454.454 0 01-.117.318c-.36.39-.4.45-.4.622l.001.075.002.065c-.012.012-.062.065-.085.092-.095-.076-.506-.413-.527-.738v-.024a.37.37 0 01.126-.275l.022-.022c.404-.382.573-.543.573-.763a.535.535 0 00-.008-.077c.013-.012.05-.053.077-.08M62.212 36.388c.061.102.262.457.262.773a.48.48 0 01-.148.37c-.434.388-.446.415-.461.655l-.005.064-.092.082c-.088-.082-.457-.449-.457-.77v-.007a.368.368 0 01.15-.29l.013-.01c.477-.375.656-.516.656-.76 0-.011 0-.021-.002-.032l.084-.075M59.374 31.536c0-.191.028-.528.203-.73a.495.495 0 01.37-.175l.08-.004c.493-.022.668-.032.782-.212h.12v.017c0 .188-.035.884-.561.92l-.204.011c-.364.019-.479.025-.665.296-.02-.002-.087-.002-.121-.002a1.644 1.644 0 01-.004-.121M60.854 31.572c.013.057.04.197.04.357 0 .264-.073.582-.402.673l-.2.055c-.35.09-.46.122-.587.423l-.119.025a1.82 1.82 0 01-.066-.466c0-.14.021-.286.088-.407.07-.126.18-.21.33-.247l.073-.02c.493-.126.65-.168.726-.368l.117-.025M61.241 28.075l.117.029c-.032.148-.215.872-.756.783l-.203-.035c-.357-.064-.471-.082-.712.137a7.651 7.651 0 00-.118-.03c.018-.115.109-.58.384-.783a.491.491 0 01.4-.085l.073.014c.501.094.664.123.815-.03M60.917 29.21l.12.015c-.013.15-.109.89-.656.87l-.203-.011c-.365-.02-.479-.025-.692.222a5.509 5.509 0 00-.12-.015c.004-.116.037-.59.286-.825a.504.504 0 01.387-.131l.075.005c.508.032.672.04.803-.13M61.268 34.003c.032.089.12.36.12.626 0 .208-.054.41-.235.517-.513.3-.518.32-.581.55l-.018.062c-.014.01-.076.044-.106.062-.064-.092-.304-.454-.304-.754 0-.037.004-.073.011-.107a.361.361 0 01.205-.248l.007-.004c.568-.284.765-.385.804-.65.015-.007.063-.036.097-.054M60.983 32.825c.025.07.09.278.09.497 0 .227-.07.463-.328.569l-.192.077c-.338.134-.444.177-.535.492l-.115.038a1.693 1.693 0 01-.128-.592c0-.095.013-.192.048-.278a.508.508 0 01.298-.286l.07-.025c.476-.185.628-.246.679-.454l.113-.038M61.698 35.201c.05.099.204.43.204.73 0 .164-.046.317-.18.42-.457.347-.476.371-.511.617l-.01.064-.1.074c-.078-.087-.395-.458-.395-.77 0-.017 0-.033.003-.048a.366.366 0 01.173-.271l.035-.024c.51-.34.688-.46.692-.724l.09-.068M60.509 26.85a.359.359 0 01.318.003l.028.012c.563.256.762.344.986.207l.106.04c-.089.15-.504.803-.946.636-.559-.21-.576-.202-.794-.104l-.058.027a2.28 2.28 0 00-.114-.044c.03-.116.183-.634.474-.777M66.457 41.242c.15.022.494.208.706.454.086.1.183.247.183.408 0 .017 0 .034-.003.052-.028.202-.044.32-.044.399 0 .1.025.14.08.216l.08.124-.018.126c-.128 0-.746-.004-.967-.27a.336.336 0 01-.077-.22c0-.034.005-.068.013-.104l.025-.11c.065-.275.112-.476.112-.635a.467.467 0 00-.108-.319l.018-.12M85.887 28.295c-.043-.007-.087-.026-.05-.195.022-.095.034-.133.13-.127 0 0 1.169-.016 2.324.236.168.037.382.086.613.139a9.85 9.85 0 00-.259-2.097c-.478-.131-1.594-.436-2.14-.541-.833-.161-2.278-.269-2.278-.269-.044-.007-.089-.024-.061-.194.017-.097.031-.134.124-.135 0 0 1.167-.028 2.334.157.482.077 1.322.25 1.853.36a9.859 9.859 0 00-.87-2.008c-.547-.156-1.342-.376-1.775-.464-.83-.172-2.3-.272-2.3-.272-.044-.007-.089-.02-.06-.191.018-.099.034-.133.126-.134 0 0 1.212-.062 2.377.138.31.054.771.148 1.201.24a9.915 9.915 0 00-1.663-1.862c-.4-.11-.81-.215-1.078-.27-.83-.172-2.274-.321-2.274-.321-.044-.007-.088-.023-.058-.193.018-.097.039-.136.125-.133 0 0 1.098-.065 2.226.114a9.835 9.835 0 00-5.415-1.615c-1.42 0-2.769.298-3.988.837l.233.268c.275-.055 1.964-.424 2.1-.455.061-.014.082 0 .147.033.042.024.044.024.108.023.452-.045 1.07-.086 1.253-.104.056.023.35.14.431.192.007.005.032.047.006.06-.065.023-1.099.49-1.133.572-.046.102.035.283.08.293.297.15.62.304.804.388.07.033.13.11.504.45.06.046.112.017.154.002a.244.244 0 00.074-.042c-.003-.01-.078-.102-.078-.127 0-.014.009-.026.037-.036l.41-.188c.029-.016.055-.04.026-.107a20.707 20.707 0 00-.27-.6c.044-.011.128-.034.208-.053.1-.024.224.035.265.056.34.178 1.69.887 1.676.896-.036.02-.284.142-.356.168-.098-.01-.133-.028-.162-.01l-1.358 1.343c-.224.206.057.38-.108.58a.63.63 0 01-.097.112c-.066.089-.298.31-.457.5-.037.042-.042.06-.062.099-.028.053-.03.229.077.398.143.23.307.518.425.744.062.112.038.403.028.444-.015.06-.055.149-.118.168-.174-.004-.362-.156-.406-.207-.015-.019-.105-.156-.236-.363-.016-.025-.014-.13-.034-.155-.042-.048-.206-.28-.264-.316-.138-.084-.63.06-.834.114a7.803 7.803 0 01-.167-.077c-.454.098-.609.154-.822.268-.147.068-.142.496-.159.846.024.556.157.95.2 1.059.048 0 .804-.004.854-.108.082-.18.115-.233.178-.249.094-.03.224-.015.403 0l-.117.415c-.022.107-.038.21.11.229.128.008.199.01.324.02.035.115.101.347.147.5.026.159.575-.006.648-.023.118-.022.407-.066.474-.212.168-.341.253-.375.6-.366.114-.01 1.245.016 1.62.16.283.108 1.964 1.108 2.146 1.244.403.299.367.288.419.509.023.046.116.132.276.251.108-.06.24-.003.33.041.18.077.837.693.922.797.062.064.196.19.124.313l-1.38 1.998c-.163.238-.51.398-.582.389l-.964 1.376c-.043.055-.236.044-.319.077l-1.792 2.581c-.43-.16-.461-.552-.177-1.714-.05-.06-.11-.185-.086-.267a74.46 74.46 0 01.372-2.173c.044-.636-.182-.707-.594-.926-1.167-.54-1.09-.687-1.398-1.445-.026-.033-.036-.112-.027-.165.03-.285.438-1.172.348-1.383a3.41 3.41 0 00-.253-.436c-.074-.061-.095-.102-.259-.083-.253.048-.315.069-.603.102-.225.022-.232-.111-.261-.28-.02-.153.002-.2-.154-.275-.17-.088-.397-.161-.76-.291-.288-.101-.314-.016-.42.041-.3-.114-.96-.349-1.427-.527-.325-.08-.231-.54-.463-.81l-.709-.86c-.118-.138-.38-.055-.428.018.04.057.622 1.02.667 1.1-.053.024-.22.108-.28.097-.054-.008-.093-.045-.15-.093-.526-.583-1.737-1.61-1.907-1.791-.123-.138-.099-.295-.272-1.118-.136-.642.115-.86.377-1.256.03-.066.05-.084.033-.14-.021-.064.001-.184 0-.207l-.095-.808a9.907 9.907 0 00-1.563 1.665c.49-.008.826.018.826.018.094.007.107.037.125.134.03.172-.015.185-.059.193l-1.313.27a9.855 9.855 0 00-.957 1.972c.127-.025.245-.046.345-.064 1.166-.202 2.332-.105 2.332-.105.101.004.109.037.126.132.03.172-.014.188-.059.196 0 0-1.445.126-2.274.298-.176.034-.41.093-.664.159a9.837 9.837 0 00-.351 2.13 56.354 56.354 0 012.082-.365c1.17-.164 2.33-.06 2.33-.06.099.009.106.039.12.137.024.172-.02.185-.064.19 0 0-1.449.01-2.285.155-.567.098-1.748.396-2.197.511a9.83 9.83 0 00.232 2.098 54.484 54.484 0 011.936-.332c1.17-.16 2.338-.061 2.338-.061.102.005.107.044.12.139.025.17-.021.185-.066.19 0 0-1.443.026-2.279.17-.506.085-1.428.31-1.914.431a9.78 9.78 0 00.942 2.24 40.287 40.287 0 011.474-.256c1.168-.17 2.337-.07 2.337-.07.117.005.106.039.12.136.025.17-.018.186-.062.19 0 0-1.449.065-2.283.212-.314.056-.816.174-1.277.288a9.948 9.948 0 001.886 2.125c.194-.038.372-.071.518-.094 1.167-.183 2.331-.082 2.331-.082.079.004.108.024.122.137.027.168-.018.185-.061.191 0 0-1.45.143-2.282.299l-.039.008a9.83 9.83 0 005.775 1.864c2.024 0 3.905-.61 5.47-1.655-.831-.189-1.996-.376-1.996-.376-.044-.01-.086-.03-.049-.194.02-.098.038-.134.13-.13 0 0 1.168-.028 2.321.225.06.013.124.027.192.045a9.938 9.938 0 001.98-2.07c-.818-.223-2.242-.482-2.242-.482-.044-.009-.086-.028-.046-.196.023-.098.055-.13.132-.126 0 0 1.168.009 2.317.278l.164.04a9.807 9.807 0 001.026-2.21c-.732-.184-1.498-.358-1.498-.358-.044-.01-.086-.03-.044-.198.024-.095.037-.118.133-.124 0 0 .709.006 1.564.14a9.813 9.813 0 00.304-2.062c-.286-.09-.555-.17-.75-.219-.821-.207-2.26-.405-2.26-.405M61.863 25.443c.23.023.27.028.642.401.129.13.318.145.454.136.093-.006.19-.027.283-.059.06-.124.122-.248.184-.37-.182-.055-.33-.23-.613-.57l-.018-.022a.318.318 0 00-.245-.122c-.337-.011-.771.407-.867.503l.086.092.094.01M70.314 41.819c.14.12.273.338.464.654l.047.078c.068.113.155.172.267.184.341.038.79-.394.881-.487l-.008-.011a21.03 21.03 0 01-1.651-.418M100.403 18.994c-.56-1.264-1.601-2.147-2.764-2.491a2.002 2.002 0 01-.048.718l.091.118c.038.049.324.43.36.864.456.32.845.78 1.098 1.352.654 1.48.149 3.137-1.13 3.702-1.016.449-2.214.071-2.992-.848a1.442 1.442 0 00-.77-1.774 3.027 3.027 0 01.079-1.13 1.054 1.054 0 01.003-.3l.004-.01-.13-.19c-.09-.132-.527-.814-.35-1.346a.676.676 0 01.031-.08l-.022-.04c-.75.833-1.115 2-.995 3.198a1.457 1.457 0 00-.39.372l-.758.326-1.402-3.015-2.38 1.105.7 1.506c.04.027.077.056.112.09l.197.019c.152.015.929.112 1.247.547a.73.73 0 01.048.073l.1.01c.14.014.853.107 1.15.549l.023.04.104.018c.074.012.696.129 1.016.537l.208.018c.222.02.546.213.798.458h.01c.121 0 .239-.015.351-.042a3.878 3.878 0 00.3.309l.001.002a4.474 4.474 0 00.492.401 4.128 4.128 0 00.534.32 4.376 4.376 0 00.566.234c.06.02.121.038.182.055l.005.002c.131.036.26.064.39.086l.008.001.185.027h.01a3.622 3.622 0 001.884-.283c1.977-.873 2.802-3.34 1.844-5.508M94.763 27.015c-.024-.053-.16-.041-.305.026l-.887.411s-.041-.077-.06-.124c-.04-.088-.054-.302.405-.506l.253-.12-.518-1.115c-.225-.013-.91-.088-1.22-.485l-.219-.048c-.065-.015-.61-.144-.905-.521l-.329-.127c-.292-.112-.695-.347-.91-.682l-.117.002c-.314.005-.706-.179-.978-.452l-.243.027c-.2.022-.511-.08-.787-.243l-.127.054c.45.728.81 1.516 1.07 2.35l1.493-.685 1.59 3.42-.05.024c-.144.067-.241.164-.216.217l.247.532c.025.053.161.041.305-.026l2.54-1.18c.143-.068.24-.163.216-.216l-.248-.533zM88.471 21.411a.34.34 0 01.103.255.545.545 0 01-.003.056l-.013.114c-.024.21-.043.378-.043.515 0 .19.038.32.15.423l-.005.125c-.153-.004-.52-.15-.759-.37-.105-.095-.23-.247-.23-.423V22.1c.003-.096.005-.17.005-.232 0-.243-.022-.277-.112-.376l-.094-.112.003-.128c.126-.016.748-.08.998.16M88.936 21.544c.136.017.733.108.933.381a.318.318 0 01.057.268l-.004.017c-.062.293-.104.492-.104.645 0 .139.036.241.123.342a5.231 5.231 0 00-.02.123c-.215-.009-.515-.167-.699-.372-.083-.092-.176-.231-.176-.391 0-.016.002-.034.004-.051a3.6 3.6 0 00.034-.4c0-.161-.036-.227-.115-.354l-.051-.084.018-.124M90.329 22.174c.119.016.647.1.828.37.04.06.06.125.06.196a.43.43 0 01-.02.124l-.006.023c-.107.358-.172.578-.172.74 0 .11.03.195.099.28l-.027.108c-.147-.063-.766-.352-.766-.769 0-.03.003-.062.01-.094.066-.28.097-.428.097-.532 0-.107-.033-.165-.097-.269l-.034-.056.028-.12M91.578 22.78c.11.022.59.135.773.43a.46.46 0 01.07.247c0 .054-.008.11-.025.167l-.021.071c-.09.3-.144.482-.144.613 0 .09.03.156.086.222-.008.019-.032.089-.044.122-.107-.028-.522-.152-.686-.424a.465.465 0 01-.067-.24c0-.049.006-.097.02-.146l.06-.208c.05-.172.083-.288.083-.39 0-.114-.043-.21-.149-.344l.044-.12M92.835 23.34c.15.032.484.248.677.51.072.097.15.237.15.384a.387.387 0 01-.008.082c-.05.23-.074.35-.074.43 0 .077.023.117.065.186l.07.127-.028.124c-.128-.008-.749-.062-.947-.345a.325.325 0 01-.061-.193.44.44 0 01.021-.13l.032-.101c.096-.303.162-.513.162-.68a.439.439 0 00-.086-.27l.027-.123M95.438 24.856c.049.101.098.223.157.366l.044.106a.355.355 0 00.236.224c.335.09.849-.266.95-.341l-.01-.022a4.372 4.372 0 01-1.377-.333M95.131 25.222c-.122-.115-.128-.14-.15-.589a4.715 4.715 0 01-.998-.743l-.042-.002c0 .038.003.11.004.127.144.117.182.28.182.545 0 .108-.006.233-.013.38l-.006.119v.024c0 .117.04.211.121.28.265.222.88.116 1.007.092l-.005-.13-.1-.103M87.226 22.257a3.688 3.688 0 01-.032-.317l-.035-.403a.357.357 0 00-.17-.28c-.174-.1-.443-.074-.663-.025.322.322.623.664.9 1.025" fill="#7E7E7E" mask="url(#b)"/><path d="M96.951 20.834c.054.094.27.486.27.801 0 .064-.01.125-.03.179a.358.358 0 01-.247.213l-.11.032c-.487.14-.735.215-.826.462l-.115.044a.93.93 0 01-.04-.302c0-.169.025-.372.088-.545.048-.135.141-.31.308-.376.427-.168.446-.181.517-.333l.066-.13a4.4 4.4 0 00.12-.045M98.482 20.103c.067.091.364.508.364.835a.418.418 0 01-.013.111.35.35 0 01-.22.24l-.104.043c-.47.197-.708.299-.77.555l-.108.056c-.048-.088-.088-.285-.088-.503 0-.114.01-.233.037-.343.033-.14.105-.324.262-.407.405-.218.423-.233.476-.392l.052-.137.112-.058M97.275 22.345l-.1.106c-.111.126-.133.133-.591.176-.156.014-.28.124-.366.228a2.02 2.02 0 001.247.167c.004-.045.006-.093.006-.14 0-.24-.053-.475-.07-.547-.034.002-.11.01-.126.01M98.926 21.634c-.073.083-.154.113-.37.191l-.224.084c-.166.063-.262.236-.313.37-.068.18-.096.395-.096.568v.019c.494-.244.84-.693 1.003-1.232M95.75 18.252c.053.081.236.38.236.664a.481.481 0 01-.233.429l-.182.116c-.318.198-.417.262-.439.588l-.113.062c-.062-.085-.297-.423-.297-.739a.488.488 0 01.25-.436l.067-.041c.45-.277.594-.366.599-.582l.111-.06M95.499 16.973c.033.074.057.217.057.384 0 .151-.018.318-.064.466-.043.136-.128.315-.29.39-.424.19-.439.206-.5.357l-.06.133-.117.052c-.06-.094-.309-.5-.309-.82 0-.053.006-.104.021-.149.036-.108.114-.181.237-.224l.11-.038c.478-.165.723-.25.802-.5l.113-.05M97.38 17.608c.058.08.263.387.263.68a.475.475 0 01-.218.413l-.178.121c-.31.21-.407.278-.416.605l-.11.066c-.068-.085-.326-.43-.326-.75a.487.487 0 01.234-.422l.067-.045c.433-.29.576-.385.576-.594v-.01l.108-.064M97.764 18.817c.088.09.483.508.483.845 0 .015 0 .03-.002.045-.013.112-.073.2-.186.267l-.1.06c-.435.26-.655.394-.682.655l-.1.072c-.08-.11-.172-.421-.172-.716 0-.04.002-.078.005-.116.013-.143.06-.335.203-.44.376-.275.387-.294.416-.454l.031-.143.104-.075M96.174 19.486c.083.09.454.511.454.845 0 .02-.001.04-.004.06-.016.113-.08.197-.194.261l-.103.057c-.443.245-.668.37-.703.63l-.103.07c-.073-.107-.149-.392-.149-.672 0-.056.003-.112.01-.166.018-.142.07-.333.219-.434.379-.258.395-.274.43-.438l.036-.143c.014-.009.08-.051.107-.07M95.738 16.355c0-.258.11-.55.33-.697.124-.085.258-.117.366-.144l.09-.023a.497.497 0 01.351.056c.08.046.135.108.152.175.021.077.036.135.036.18 0 .098-.066.142-.275.208l-.024.008c-.54.17-.748.238-.843.498l-.114.044a.675.675 0 01-.069-.305M94.103 16.953c0-.257.111-.55.33-.697.124-.084.259-.117.366-.144l.09-.023a.5.5 0 01.352.057c.08.045.134.107.152.173a.75.75 0 01.035.182c0 .098-.066.142-.274.208l-.024.008c-.541.17-.749.237-.843.497-.016.007-.08.032-.115.044a.668.668 0 01-.069-.305M97.171 16.268c.043.083.076.26.076.46 0 .128-.014.264-.046.389-.037.139-.114.32-.273.401-.41.206-.428.22-.485.378l-.054.136-.115.056c-.065-.091-.345-.506-.345-.831a.46.46 0 01.017-.124.351.351 0 01.227-.234l.109-.042c.47-.185.711-.28.78-.534l.11-.055M60.14 36.085a1.858 1.858 0 01-.094-.137c-.253.287-.515.567-.682.741-.128.136-.627.457-.531.653.081.205.654.05.84.046.267-.008.709-.015 1.132-.006-.127-.138-.52-.604-.502-1.081l-.163-.216zM61.472 33.173v.005-.005zM63.195 24.777c.159.048.174.066.396.461.164-.31.332-.61.505-.898a.336.336 0 00-.167-.097c-.337-.08-.835.298-.934.374l.063.112.137.048M65.74 28.992c.178-1.221.462-2.6.676-3.688l.018-.087.008-.047.027-.136v-.003c0-.015.002-.076 0-.153a1.48 1.48 0 00-.024-.277c-.072-.296-.086-.838-.33-.994-.226-.146-.914-.04-1.022.004-.094.029-.278.31-.278.31a20.29 20.29 0 00-1.298 2.328c-1.141 2.396-1.81 4.86-2.155 6.437.048.132.083.269.101.408v-.007a1.405 1.405 0 01.35-.056l.046-.089c.134-.252.594-.554 1.006-.658.042-.01.082-.019.12-.025l.026-.064c.105-.264.531-.61.93-.756.09-.033.175-.054.252-.067.104-.274.424-.628.75-.82.049-.027.095-.051.14-.071.048-.29.286-.7.567-.956a.586.586 0 00.02-.017l.07-.516zM67.49 26.508c.049.094.236.473.236.782a.526.526 0 01-.038.21.357.357 0 01-.257.2l-.117.03c-.488.12-.737.184-.837.424-.017.007-.084.028-.119.04a.776.776 0 01-.028-.233c0-.182.033-.417.113-.61.054-.134.154-.305.323-.363.434-.153.454-.164.532-.313l.07-.127.122-.04M65.15 30.9c.123-.072.307-.147.479-.09.44.145.461.143.609.074 0 0 .12-.05.136-.058l.119.041c-.022.128-.144.743-.446.91-.099.056-.205.056-.324.004l-.098-.043c-.468-.207-.708-.31-.938-.177a3.184 3.184 0 00-.117-.041c.049-.146.298-.455.58-.62M64.08 31.817c.136-.05.33-.092.488-.007.4.211.42.219.582.175l.142-.032.111.06c-.046.123-.279.693-.606.804a.353.353 0 01-.32-.051l-.1-.066c-.413-.273-.624-.412-.871-.324-.016-.007-.073-.039-.105-.056.074-.134.374-.391.68-.503M62.965 32.675c.199-.051.365-.037.481.041.382.257.402.26.563.234l.144-.019c.013.01.077.052.105.07-.059.118-.348.663-.685.742a.352.352 0 01-.31-.084l-.098-.08c-.38-.31-.577-.465-.83-.403l-.101-.068c.088-.126.416-.353.731-.433M66.981 29.585l.121-.085.127.016.002.082c0 .217-.026.704-.25.897-.085.074-.189.098-.317.071l-.117-.024c-.494-.102-.747-.153-.942.023a4.811 4.811 0 00-.123-.014c.018-.152.199-.508.44-.727.107-.096.27-.207.449-.186.46.05.481.044.61-.053M67.621 28.06c.015.068.055.277.055.498 0 .189-.029.385-.129.508a.356.356 0 01-.301.125l-.115-.002c-.504-.015-.762-.02-.926.186l-.125.009-.001-.017c0-.165.117-.531.31-.78.125-.161.266-.25.406-.259.46-.03.481-.036.596-.159l.103-.102a6.3 6.3 0 01.127-.007M66.699 25.865l-.163.825c.11-.112.284-.221.525-.372l.1-.062c.108-.069.17-.16.18-.272l.002-.037c0-.333-.396-.74-.496-.837l-.148.755zM61.916 34.453c.092.09.19.125.303.111.342-.047.68-.563.748-.674l-.097-.082c-.018.002-.147.006-.147.006-.162.013-.182.007-.537-.285-.14-.11-.341-.106-.485-.083-.067.012-.135.03-.201.051l.13.323c.019.047.092.241.133.485l.067.064.086.084zM70.685 35.717c.113.073.598.41.657.736a.312.312 0 01-.065.26l-.01.012c-.288.367-.43.546-.43.748a.56.56 0 00.02.13l-.07.097c-.183-.097-.38-.365-.453-.622a.77.77 0 01-.033-.213c0-.086.018-.175.07-.254.215-.33.263-.432.263-.563 0-.04-.004-.083-.01-.136l-.01-.093.07-.102M69.073 33.875c.173.119.339.403.386.667a.915.915 0 01.013.146.491.491 0 01-.1.316c-.326.399-.326.44-.327.669v.093a4.89 4.89 0 00-.08.094c-.105-.087-.553-.47-.576-.801l-.001-.027c0-.088.03-.16.093-.227l.013-.012c.35-.36.507-.522.507-.746a.532.532 0 00-.008-.082c.013-.013.057-.064.08-.09M68.668 32.759c.12.14.204.407.204.654 0 .03 0 .06-.003.09-.012.135-.058.317-.203.424-.407.292-.43.338-.49.56l-.025.091c-.012.01-.07.048-.1.068-.073-.1-.357-.516-.357-.835 0-.03.003-.059.007-.087a.315.315 0 01.155-.22l.016-.009c.481-.286.666-.398.697-.67l.099-.066M68.638 31.579a.65.65 0 01.024.192c0 .183-.037.431-.127.633-.057.128-.16.293-.326.346-.435.137-.452.152-.529.293l-.074.122a6.185 6.185 0 00-.118.036c-.045-.091-.211-.453-.211-.752 0-.081.012-.158.042-.224.047-.101.131-.163.256-.19l.099-.022c.492-.106.744-.163.851-.4l.113-.034M69.785 34.843c.106.053.566.301.645.609a.369.369 0 01-.066.307l-.019.027c-.284.394-.421.584-.421.768 0 .046.01.093.027.143l-.058.092c-.105-.095-.483-.466-.483-.814 0-.078.019-.154.065-.227.218-.346.282-.46.282-.58a.786.786 0 00-.024-.163l-.013-.062.065-.1M68.762 29.318l-.054-.029a.342.342 0 00-.318-.021c-.308.14-.474.727-.506.85l.115.051.134-.046c.154-.06.176-.055.591.123.051.02.104.028.157.029a10.326 10.326 0 01-.12-.957M68.929 30.535c-.193.167-.443.117-.93.015l-.104-.021a.341.341 0 00-.311.07c-.22.19-.245.668-.245.88l.001.08c.034.002.107.012.124.014l.117-.082c.128-.099.149-.104.602-.054.175.02.336-.088.44-.183.152-.137.278-.33.354-.49a12.04 12.04 0 01-.048-.23M72.579 39.259l.06-.032c.114-.061.177-.143.195-.253a.453.453 0 00.005-.066c0-.327-.355-.74-.432-.826l-.105.068-.038.138c-.036.156-.048.174-.429.423a.365.365 0 00-.066.059c.279.17.552.335.81.489M71.223 38.435c.096.058.19.118.286.177.02-.216.208-.383.541-.678l.08-.073a.346.346 0 00.132-.264l-.001-.027c-.026-.337-.52-.695-.625-.767l-.086.089-.004.142v.022c0 .141-.02.175-.318.493-.095.1-.12.242-.12.365 0 .033.002.065.005.096.014.143.057.294.11.425M69.016 31.43c.033.095.049.216.049.35 0 .217-.041.466-.12.68.224.235.356.668.327 1.06.214.136.406.402.513.695l.515-.236a10.216 10.216 0 01-1.195-2.706l.01.037a2.221 2.221 0 01-.1.12M96.009 11.56s.028-.18-.2-.303a18.562 18.562 0 00-.17-.087c-1.865-.795-6.712-3.34-8.952-4.528L85.415 6c-.05-.018-.591-.222-.91.016-.038.027-1.037.7-1.037.7s-.038.03-.03.094c.028.215.126.894-.068 1.04-.235.175-2.238.565-2.238.565l-.247.374-.53-.243c-.118-.05-.243-.08-.456.016l-.858.447-.859-.447c-.213-.096-.338-.067-.456-.016l-.53.243-.247-.374s-2.003-.39-2.237-.566c-.195-.145-.097-.824-.069-1.039.008-.065-.031-.095-.031-.095s-.999-.672-1.035-.699c-.32-.238-.861-.034-.911-.016l-1.272.642c-2.24 1.187-7.087 3.733-8.953 4.528l-.17.087c-.228.124-.199.303-.199.303l-.004.075c1.233.899 1.74 1.176 3.344 1.199h.422c.38-.004.816-.018 1.324-.037a.83.83 0 00.248-.101c.545-.345 4.15-2.835 4.227-2.883.12-.074.232-.107.284-.086.026.008.126.061.142.072.016.01.18.116.12.192-.054.068-3.103 2.852-3.103 2.852h1.355c.022 0 .551.037.937-.282.334-.279 1.641-1.56 1.71-1.62a.313.313 0 01.258-.07c.124.019.291.137.291.137s.083.039.028.12c-.055.08-1.56 2.123-1.56 2.123s.05.454 1.238.685c.45.087 1.17.054 1.981.055 0 0 .522-1.48.573-1.61.038-.096.109-.078.134-.076.025.003.116.009.33.075.087.03.109.159.134.286l.486 1.776c.014.078-.024.327-.293.78-.343.469-2.08 2.846-2.16 2.926-.089.089.069.267.12.335l.224.26c.15.206.25.208.362.202l.027-.01c.392-.155.796-.286 1.21-.393l1.03-1.808c.055-.081.142-.049.142-.049s.199.056.313.125c.05.031.079.138.057.227l-.298 1.266a10.462 10.462 0 012.672 0l-.299-1.266c-.021-.089.006-.196.057-.227.114-.069.313-.125.313-.125s.086-.032.14.05l1.032 1.808c.391.1.773.223 1.144.368l.093.034c.112.006.213.004.363-.201l.222-.261c.052-.068.21-.246.122-.335-.08-.08-1.818-2.457-2.161-2.927-.27-.452-.307-.701-.293-.779l.485-1.776c.026-.127.048-.256.134-.286.215-.066.306-.072.331-.075.025-.002.095-.02.133.076.052.13.574 1.61.574 1.61.81 0 1.531.032 1.981-.055 1.188-.23 1.239-.685 1.239-.685s-1.506-2.043-1.561-2.123c-.056-.081.027-.12.027-.12s.168-.118.292-.137a.314.314 0 01.258.07c.069.06 1.376 1.341 1.71 1.62.385.319.915.282.937.282h1.355s-3.05-2.784-3.103-2.852c-.06-.076.104-.182.12-.192a1.31 1.31 0 01.142-.072c.052-.02.164.012.284.086.077.048 3.682 2.538 4.227 2.883.075.049.162.08.248.1.508.02.944.034 1.323.038h.423c1.603-.023 2.11-.3 3.344-1.199l-.004-.075z" fill="#7E7E7E" mask="url(#b)"/><path d="M79.234 40.495c-2.195-.186-4.364-1.232-5.686-1.82a1.485 1.485 0 00-.15-.063c-.008.112.034.388.072.515.049.158.32 1.153.52 1.199.288.064 1.778.417 2.86.335.074.23-.054.395-.881.484-.827.091-2.514.034-2.565.012-.008-.118-.03-.965-.295-1.125l-.525-.317-.267-.16-.122-.074c-.011-.007-.022-.012-.033-.02-1.97-1.186-4.491-2.736-4.572-3.52-.03-.27.096-.649.301-.834l-.146-.191c-.087-.115-.502-.691-.448-1.2l-.014-.031-.143-.275c-.07-.134-.405-.822-.2-1.32l-.232.099c-.14.044-.323.02-.494-.043a.733.733 0 01-.454.066c-.1.248-.375.834-.834.989a.732.732 0 01-.333.033c-.123.237-.457.796-.93.904a.74.74 0 01-.367-.012c-.13.208-.524.77-1.024.84a.734.734 0 01-.247-.01l.01.02c.037.066.22.418.262.806l.233.355c.042.063.258.407.327.8l.262.326c.175.218.377.568.43.923l.184.102c.172.095.335.271.457.48 1.345.757 3.406 1.787 5.703 2.52.754.24 1.532.448 2.32.606.453.089.909.163 1.364.214 0 0 .08-.011.045.183-.048.253-.329 1.252-.344 1.306.092.025 2.86.749 5.768-2.31.402-.426.476-.573.585-.77-.214-.008-.338-.018-.397-.022" fill="#7E7E7E" mask="url(#b)"/><path d="M89.91 17.26l-1.568.73c-.081.037-.095.032-.122-.033-.073-.157.038-.4.186-.468v-.001l.691-.322c.077-.036.127-.09.112-.123l-.23-.292c-.016-.032-.084-.033-.154 0l-1.227.57c-.062.03-.105.075-.1.108l.043.302c.028.162-.005.614-.25.753l-.02.013-.012.008c-.08.058-.121.116-.104.152l.247.533c.025.053.161.04.306-.026l2.539-1.18c.144-.067.24-.164.216-.216l-.248-.534c-.024-.052-.16-.041-.305.026M92.913 29.182c-.015-.031.036-.087.113-.123l1.356-.63c.077-.036.151-.04.166-.006l.07.364c.015.032-.029.085-.098.117l-1.219.567c-.069.031-.138.031-.152-.001l-.236-.288zM76.403 5.448s-1.187.859-1.06 1.62c.057.349 1.05.352 1.05.352l.208-1.82-.198-.152z" fill="#FFF" mask="url(#b)"/><path d="M81.08 8.127l-.838-3.271a.633.633 0 00-.336-.435l-1.11-.606-.53.123s.433.24.568.323c.134.082.313.32.076.384s-.515.161-.515.161l-.39-.734s-.81-.067-1.13-.085c-.32-.017-.395.189-.395.189l-.52.837.304-.071 1.484.89-.686 2.291.639-.3c.136-.063.27-.111.533.019l.805.422.765-.393.009-.003c.307-.157.44-.087.6-.022l.668.281zM88.82 2.462c-.023-.025-.105-.026-.208-.01-.218.037-.534.076-.63.093-.49.082-.652-.322-.652-.322l.552-.729c.07-.09-.014-.244-.06-.286-.227.104-.45.212-.621.3-.268.14-.764.308-.764.045 0-.255-.004-.453-.013-.479-.087-.267-.296-.25-.296-.25L78.881.82s-.38.012-.533-.015c-.154-.027-.403-.108-.773-.261-.48-.202-1.035-.441-1.212-.519a.222.222 0 00-.142-.003c-.329.09-1.504.38-1.599 1.265-.057.53 1.556 2.154 1.857 2.423l.296-.003s-.712-1.248-.7-1.351c.007-.054.257-.24.354-.307.026-.018.05-.024.077-.008l.91.497s.158.092.321.092l8.257-.002c.1 0 .11.028.11.048v.513c.001.124.117.23.276.283.602.208 1.81-.409 2.574-.86l-.135-.15M69.76 41.912c.129.061.294.17.344.342.128.444.139.465.284.549l.122.077.034.125c-.118.054-.686.3-.992.147a.356.356 0 01-.188-.267l-.022-.117c-.096-.498-.147-.751-.382-.865a6.626 6.626 0 01-.033-.118c.146-.043.539-.012.833.127M68.497 41.958c.113.095.247.244.251.428.009.46.014.482.133.602l.098.106.001.13c-.126.022-.738.113-.996-.115a.343.343 0 01-.113-.307l.007-.12c.013-.173.024-.318.024-.441 0-.23-.04-.379-.17-.493v-.125c.15-.002.519.128.765.335M61.341 25.746a.358.358 0 01.313.07l.033.024c.494.364.667.49.914.403l.094.06c-.117.129-.658.679-1.057.423-.49-.313-.518-.317-.751-.267l-.064.013a9.94 9.94 0 01-.104-.069c.053-.105.309-.578.622-.657M65.821 22.107c.189.463.737.689 1.227.488.176-.072.345-.221.444-.372.02-.03.02-.063-.001-.086l-.016-.008c-.402.145-.824.012-.955-.309-.133-.322.076-.714.466-.892a.075.075 0 00-.002-.041.075.075 0 00-.048-.039h-.002a.977.977 0 00-.571.073c-.486.199-.73.723-.542 1.186m.748 1.162c-.137-.214-.339-.218-.457-.23-.588-.038-1.144.25-1.202.264-.077.022-.16 0-.16 0-.657-.254-1.408-.628-1.487-.654.067-.191.25-.438.25-.438.049-.049 2.034-2.788 6.254-2.725.468.007.665 0 .965.066-.062.117-.222.315-.26.363-1.355 1.736-2.561 5.489-2.592 5.547-1.174-.95-.895-1.546-1.31-2.193M65.379 40.548c.14.056.431.32.58.607a.757.757 0 01.097.34c0 .05-.008.1-.027.15-.102.267-.142.377-.142.459 0 .049.014.088.038.146 0 0 .045.121.05.139a8.674 8.674 0 01-.047.118c-.125-.028-.724-.178-.877-.487a.329.329 0 01-.034-.146c0-.06.015-.12.046-.183l.053-.108c.161-.328.266-.539.266-.72a.433.433 0 00-.05-.198l.047-.117M64.373 39.723c.195.083.418.334.518.588a.76.76 0 01.057.272c0 .07-.014.143-.05.211-.165.32-.214.44-.214.557 0 .053.01.107.025.178l.018.097-.06.108c-.121-.064-.644-.357-.735-.684a.329.329 0 01.041-.273l.009-.013c.24-.377.364-.572.364-.765a.505.505 0 00-.032-.169l.06-.107M63.56 38.656c.18.114.363.4.421.669.012.052.021.113.021.177a.486.486 0 01-.088.295c-.264.36-.303.446-.303.606l.003.095.003.097-.077.096c-.109-.082-.58-.453-.62-.792a.322.322 0 01.083-.264l.01-.01c.329-.374.482-.547.482-.766a.534.534 0 00-.011-.104l.076-.099M62.825 37.543c.076.101.336.476.336.807a.454.454 0 01-.117.318c-.36.39-.4.45-.4.622l.001.075.002.065c-.012.012-.062.065-.085.092-.095-.076-.506-.413-.527-.738v-.024a.37.37 0 01.126-.275l.022-.022c.404-.382.573-.543.573-.763a.535.535 0 00-.008-.077c.013-.012.05-.053.077-.08M62.212 36.388c.061.102.262.457.262.773a.48.48 0 01-.148.37c-.434.388-.446.415-.461.655l-.005.064-.092.082c-.088-.082-.457-.449-.457-.77v-.007a.368.368 0 01.15-.29l.013-.01c.477-.375.656-.516.656-.76 0-.011 0-.021-.002-.032l.084-.075M59.374 31.536c0-.191.028-.528.203-.73a.495.495 0 01.37-.175l.08-.004c.493-.022.668-.032.782-.212h.12v.017c0 .188-.035.884-.561.92l-.204.011c-.364.019-.479.025-.665.296-.02-.002-.087-.002-.121-.002a1.644 1.644 0 01-.004-.121M60.854 31.572c.013.057.04.197.04.357 0 .264-.073.582-.402.673l-.2.055c-.35.09-.46.122-.587.423l-.119.025a1.82 1.82 0 01-.066-.466c0-.14.021-.286.088-.407.07-.126.18-.21.33-.247l.073-.02c.493-.126.65-.168.726-.368l.117-.025M61.241 28.075l.117.029c-.032.148-.215.872-.756.783l-.203-.035c-.357-.064-.471-.082-.712.137a7.651 7.651 0 00-.118-.03c.018-.115.109-.58.384-.783a.491.491 0 01.4-.085l.073.014c.501.094.664.123.815-.03M60.917 29.21l.12.015c-.013.15-.109.89-.656.87l-.203-.011c-.365-.02-.479-.025-.692.222a5.509 5.509 0 00-.12-.015c.004-.116.037-.59.286-.825a.504.504 0 01.387-.131l.075.005c.508.032.672.04.803-.13M61.268 34.003c.032.089.12.36.12.626 0 .208-.054.41-.235.517-.513.3-.518.32-.581.55l-.018.062c-.014.01-.076.044-.106.062-.064-.092-.304-.454-.304-.754 0-.037.004-.073.011-.107a.361.361 0 01.205-.248l.007-.004c.568-.284.765-.385.804-.65.015-.007.063-.036.097-.054M60.983 32.825c.025.07.09.278.09.497 0 .227-.07.463-.328.569l-.192.077c-.338.134-.444.177-.535.492l-.115.038a1.693 1.693 0 01-.128-.592c0-.095.013-.192.048-.278a.508.508 0 01.298-.286l.07-.025c.476-.185.628-.246.679-.454l.113-.038M61.698 35.201c.05.099.204.43.204.73 0 .164-.046.317-.18.42-.457.347-.476.371-.511.617l-.01.064-.1.074c-.078-.087-.395-.458-.395-.77 0-.017 0-.033.003-.048a.366.366 0 01.173-.271l.035-.024c.51-.34.688-.46.692-.724l.09-.068M60.509 26.85a.359.359 0 01.318.003l.028.012c.563.256.762.344.986.207l.106.04c-.089.15-.504.803-.946.636-.559-.21-.576-.202-.794-.104l-.058.027a2.28 2.28 0 00-.114-.044c.03-.116.183-.634.474-.777M66.457 41.242c.15.022.494.208.706.454.086.1.183.247.183.408 0 .017 0 .034-.003.052-.028.202-.044.32-.044.399 0 .1.025.14.08.216l.08.124-.018.126c-.128 0-.746-.004-.967-.27a.336.336 0 01-.077-.22c0-.034.005-.068.013-.104l.025-.11c.065-.275.112-.476.112-.635a.467.467 0 00-.108-.319l.018-.12M85.887 28.295c-.043-.007-.087-.026-.05-.195.022-.095.034-.133.13-.127 0 0 1.169-.016 2.324.236.168.037.382.086.613.139a9.85 9.85 0 00-.259-2.097c-.478-.131-1.594-.436-2.14-.541-.833-.161-2.278-.269-2.278-.269-.044-.007-.089-.024-.061-.194.017-.097.031-.134.124-.135 0 0 1.167-.028 2.334.157.482.077 1.322.25 1.853.36a9.859 9.859 0 00-.87-2.008c-.547-.156-1.342-.376-1.775-.464-.83-.172-2.3-.272-2.3-.272-.044-.007-.089-.02-.06-.191.018-.099.034-.133.126-.134 0 0 1.212-.062 2.377.138.31.054.771.148 1.201.24a9.915 9.915 0 00-1.663-1.862c-.4-.11-.81-.215-1.078-.27-.83-.172-2.274-.321-2.274-.321-.044-.007-.088-.023-.058-.193.018-.097.039-.136.125-.133 0 0 1.098-.065 2.226.114a9.835 9.835 0 00-5.415-1.615c-1.42 0-2.769.298-3.988.837l.233.268c.275-.055 1.964-.424 2.1-.455.061-.014.082 0 .147.033.042.024.044.024.108.023.452-.045 1.07-.086 1.253-.104.056.023.35.14.431.192.007.005.032.047.006.06-.065.023-1.099.49-1.133.572-.046.102.035.283.08.293.297.15.62.304.804.388.07.033.13.11.504.45.06.046.112.017.154.002a.244.244 0 00.074-.042c-.003-.01-.078-.102-.078-.127 0-.014.009-.026.037-.036l.41-.188c.029-.016.055-.04.026-.107a20.707 20.707 0 00-.27-.6c.044-.011.128-.034.208-.053.1-.024.224.035.265.056.34.178 1.69.887 1.676.896-.036.02-.284.142-.356.168-.098-.01-.133-.028-.162-.01l-1.358 1.343c-.224.206.057.38-.108.58a.63.63 0 01-.097.112c-.066.089-.298.31-.457.5-.037.042-.042.06-.062.099-.028.053-.03.229.077.398.143.23.307.518.425.744.062.112.038.403.028.444-.015.06-.055.149-.118.168-.174-.004-.362-.156-.406-.207-.015-.019-.105-.156-.236-.363-.016-.025-.014-.13-.034-.155-.042-.048-.206-.28-.264-.316-.138-.084-.63.06-.834.114a7.803 7.803 0 01-.167-.077c-.454.098-.609.154-.822.268-.147.068-.142.496-.159.846.024.556.157.95.2 1.059.048 0 .804-.004.854-.108.082-.18.115-.233.178-.249.094-.03.224-.015.403 0l-.117.415c-.022.107-.038.21.11.229.128.008.199.01.324.02.035.115.101.347.147.5.026.159.575-.006.648-.023.118-.022.407-.066.474-.212.168-.341.253-.375.6-.366.114-.01 1.245.016 1.62.16.283.108 1.964 1.108 2.146 1.244.403.299.367.288.419.509.023.046.116.132.276.251.108-.06.24-.003.33.041.18.077.837.693.922.797.062.064.196.19.124.313l-1.38 1.998c-.163.238-.51.398-.582.389l-.964 1.376c-.043.055-.236.044-.319.077l-1.792 2.581c-.43-.16-.461-.552-.177-1.714-.05-.06-.11-.185-.086-.267a74.46 74.46 0 01.372-2.173c.044-.636-.182-.707-.594-.926-1.167-.54-1.09-.687-1.398-1.445-.026-.033-.036-.112-.027-.165.03-.285.438-1.172.348-1.383a3.41 3.41 0 00-.253-.436c-.074-.061-.095-.102-.259-.083-.253.048-.315.069-.603.102-.225.022-.232-.111-.261-.28-.02-.153.002-.2-.154-.275-.17-.088-.397-.161-.76-.291-.288-.101-.314-.016-.42.041-.3-.114-.96-.349-1.427-.527-.325-.08-.231-.54-.463-.81l-.709-.86c-.118-.138-.38-.055-.428.018.04.057.622 1.02.667 1.1-.053.024-.22.108-.28.097-.054-.008-.093-.045-.15-.093-.526-.583-1.737-1.61-1.907-1.791-.123-.138-.099-.295-.272-1.118-.136-.642.115-.86.377-1.256.03-.066.05-.084.033-.14-.021-.064.001-.184 0-.207l-.095-.808a9.907 9.907 0 00-1.563 1.665c.49-.008.826.018.826.018.094.007.107.037.125.134.03.172-.015.185-.059.193l-1.313.27a9.855 9.855 0 00-.957 1.972c.127-.025.245-.046.345-.064 1.166-.202 2.332-.105 2.332-.105.101.004.109.037.126.132.03.172-.014.188-.059.196 0 0-1.445.126-2.274.298-.176.034-.41.093-.664.159a9.837 9.837 0 00-.351 2.13 56.354 56.354 0 012.082-.365c1.17-.164 2.33-.06 2.33-.06.099.009.106.039.12.137.024.172-.02.185-.064.19 0 0-1.449.01-2.285.155-.567.098-1.748.396-2.197.511a9.83 9.83 0 00.232 2.098 54.484 54.484 0 011.936-.332c1.17-.16 2.338-.061 2.338-.061.102.005.107.044.12.139.025.17-.021.185-.066.19 0 0-1.443.026-2.279.17-.506.085-1.428.31-1.914.431a9.78 9.78 0 00.942 2.24 40.287 40.287 0 011.474-.256c1.168-.17 2.337-.07 2.337-.07.117.005.106.039.12.136.025.17-.018.186-.062.19 0 0-1.449.065-2.283.212-.314.056-.816.174-1.277.288a9.948 9.948 0 001.886 2.125c.194-.038.372-.071.518-.094 1.167-.183 2.331-.082 2.331-.082.079.004.108.024.122.137.027.168-.018.185-.061.191 0 0-1.45.143-2.282.299l-.039.008a9.83 9.83 0 005.775 1.864c2.024 0 3.905-.61 5.47-1.655-.831-.189-1.996-.376-1.996-.376-.044-.01-.086-.03-.049-.194.02-.098.038-.134.13-.13 0 0 1.168-.028 2.321.225.06.013.124.027.192.045a9.938 9.938 0 001.98-2.07c-.818-.223-2.242-.482-2.242-.482-.044-.009-.086-.028-.046-.196.023-.098.055-.13.132-.126 0 0 1.168.009 2.317.278l.164.04a9.807 9.807 0 001.026-2.21c-.732-.184-1.498-.358-1.498-.358-.044-.01-.086-.03-.044-.198.024-.095.037-.118.133-.124 0 0 .709.006 1.564.14a9.813 9.813 0 00.304-2.062c-.286-.09-.555-.17-.75-.219-.821-.207-2.26-.405-2.26-.405M61.863 25.443c.23.023.27.028.642.401.129.13.318.145.454.136.093-.006.19-.027.283-.059.06-.124.122-.248.184-.37-.182-.055-.33-.23-.613-.57l-.018-.022a.318.318 0 00-.245-.122c-.337-.011-.771.407-.867.503l.086.092.094.01M70.314 41.819c.14.12.273.338.464.654l.047.078c.068.113.155.172.267.184.341.038.79-.394.881-.487l-.008-.011a21.03 21.03 0 01-1.651-.418M100.403 18.994c-.56-1.264-1.601-2.147-2.764-2.491a2.002 2.002 0 01-.048.718l.091.118c.038.049.324.43.36.864.456.32.845.78 1.098 1.352.654 1.48.149 3.137-1.13 3.702-1.016.449-2.214.071-2.992-.848a1.442 1.442 0 00-.77-1.774 3.027 3.027 0 01.079-1.13 1.054 1.054 0 01.003-.3l.004-.01-.13-.19c-.09-.132-.527-.814-.35-1.346a.676.676 0 01.031-.08l-.022-.04c-.75.833-1.115 2-.995 3.198a1.457 1.457 0 00-.39.372l-.758.326-1.402-3.015-2.38 1.105.7 1.506c.04.027.077.056.112.09l.197.019c.152.015.929.112 1.247.547a.73.73 0 01.048.073l.1.01c.14.014.853.107 1.15.549l.023.04.104.018c.074.012.696.129 1.016.537l.208.018c.222.02.546.213.798.458h.01c.121 0 .239-.015.351-.042a3.878 3.878 0 00.3.309l.001.002a4.474 4.474 0 00.492.401 4.128 4.128 0 00.534.32 4.376 4.376 0 00.566.234c.06.02.121.038.182.055l.005.002c.131.036.26.064.39.086l.008.001.185.027h.01a3.622 3.622 0 001.884-.283c1.977-.873 2.802-3.34 1.844-5.508M94.763 27.015c-.024-.053-.16-.041-.305.026l-.887.411s-.041-.077-.06-.124c-.04-.088-.054-.302.405-.506l.253-.12-.518-1.115c-.225-.013-.91-.088-1.22-.485l-.219-.048c-.065-.015-.61-.144-.905-.521l-.329-.127c-.292-.112-.695-.347-.91-.682l-.117.002c-.314.005-.706-.179-.978-.452l-.243.027c-.2.022-.511-.08-.787-.243l-.127.054c.45.728.81 1.516 1.07 2.35l1.493-.685 1.59 3.42-.05.024c-.144.067-.241.164-.216.217l.247.532c.025.053.161.041.305-.026l2.54-1.18c.143-.068.24-.163.216-.216l-.248-.533zM88.471 21.411a.34.34 0 01.103.255.545.545 0 01-.003.056l-.013.114c-.024.21-.043.378-.043.515 0 .19.038.32.15.423l-.005.125c-.153-.004-.52-.15-.759-.37-.105-.095-.23-.247-.23-.423V22.1c.003-.096.005-.17.005-.232 0-.243-.022-.277-.112-.376l-.094-.112.003-.128c.126-.016.748-.08.998.16M88.936 21.544c.136.017.733.108.933.381a.318.318 0 01.057.268l-.004.017c-.062.293-.104.492-.104.645 0 .139.036.241.123.342a5.231 5.231 0 00-.02.123c-.215-.009-.515-.167-.699-.372-.083-.092-.176-.231-.176-.391 0-.016.002-.034.004-.051a3.6 3.6 0 00.034-.4c0-.161-.036-.227-.115-.354l-.051-.084.018-.124M90.329 22.174c.119.016.647.1.828.37.04.06.06.125.06.196a.43.43 0 01-.02.124l-.006.023c-.107.358-.172.578-.172.74 0 .11.03.195.099.28l-.027.108c-.147-.063-.766-.352-.766-.769 0-.03.003-.062.01-.094.066-.28.097-.428.097-.532 0-.107-.033-.165-.097-.269l-.034-.056.028-.12M91.578 22.78c.11.022.59.135.773.43a.46.46 0 01.07.247c0 .054-.008.11-.025.167l-.021.071c-.09.3-.144.482-.144.613 0 .09.03.156.086.222-.008.019-.032.089-.044.122-.107-.028-.522-.152-.686-.424a.465.465 0 01-.067-.24c0-.049.006-.097.02-.146l.06-.208c.05-.172.083-.288.083-.39 0-.114-.043-.21-.149-.344l.044-.12M92.835 23.34c.15.032.484.248.677.51.072.097.15.237.15.384a.387.387 0 01-.008.082c-.05.23-.074.35-.074.43 0 .077.023.117.065.186l.07.127-.028.124c-.128-.008-.749-.062-.947-.345a.325.325 0 01-.061-.193.44.44 0 01.021-.13l.032-.101c.096-.303.162-.513.162-.68a.439.439 0 00-.086-.27l.027-.123M95.438 24.856c.049.101.098.223.157.366l.044.106a.355.355 0 00.236.224c.335.09.849-.266.95-.341l-.01-.022a4.372 4.372 0 01-1.377-.333M95.131 25.222c-.122-.115-.128-.14-.15-.589a4.715 4.715 0 01-.998-.743l-.042-.002c0 .038.003.11.004.127.144.117.182.28.182.545 0 .108-.006.233-.013.38l-.006.119v.024c0 .117.04.211.121.28.265.222.88.116 1.007.092l-.005-.13-.1-.103M87.226 22.257a3.688 3.688 0 01-.032-.317l-.035-.403a.357.357 0 00-.17-.28c-.174-.1-.443-.074-.663-.025.322.322.623.664.9 1.025" fill="#FFF" mask="url(#b)"/><path d="M96.951 20.834c.054.094.27.486.27.801 0 .064-.01.125-.03.179a.358.358 0 01-.247.213l-.11.032c-.487.14-.735.215-.826.462l-.115.044a.93.93 0 01-.04-.302c0-.169.025-.372.088-.545.048-.135.141-.31.308-.376.427-.168.446-.181.517-.333l.066-.13a4.4 4.4 0 00.12-.045M98.482 20.103c.067.091.364.508.364.835a.418.418 0 01-.013.111.35.35 0 01-.22.24l-.104.043c-.47.197-.708.299-.77.555l-.108.056c-.048-.088-.088-.285-.088-.503 0-.114.01-.233.037-.343.033-.14.105-.324.262-.407.405-.218.423-.233.476-.392l.052-.137.112-.058M97.275 22.345l-.1.106c-.111.126-.133.133-.591.176-.156.014-.28.124-.366.228a2.02 2.02 0 001.247.167c.004-.045.006-.093.006-.14 0-.24-.053-.475-.07-.547-.034.002-.11.01-.126.01M98.926 21.634c-.073.083-.154.113-.37.191l-.224.084c-.166.063-.262.236-.313.37-.068.18-.096.395-.096.568v.019c.494-.244.84-.693 1.003-1.232M95.75 18.252c.053.081.236.38.236.664a.481.481 0 01-.233.429l-.182.116c-.318.198-.417.262-.439.588l-.113.062c-.062-.085-.297-.423-.297-.739a.488.488 0 01.25-.436l.067-.041c.45-.277.594-.366.599-.582l.111-.06M95.499 16.973c.033.074.057.217.057.384 0 .151-.018.318-.064.466-.043.136-.128.315-.29.39-.424.19-.439.206-.5.357l-.06.133-.117.052c-.06-.094-.309-.5-.309-.82 0-.053.006-.104.021-.149.036-.108.114-.181.237-.224l.11-.038c.478-.165.723-.25.802-.5l.113-.05M97.38 17.608c.058.08.263.387.263.68a.475.475 0 01-.218.413l-.178.121c-.31.21-.407.278-.416.605l-.11.066c-.068-.085-.326-.43-.326-.75a.487.487 0 01.234-.422l.067-.045c.433-.29.576-.385.576-.594v-.01l.108-.064M97.764 18.817c.088.09.483.508.483.845 0 .015 0 .03-.002.045-.013.112-.073.2-.186.267l-.1.06c-.435.26-.655.394-.682.655l-.1.072c-.08-.11-.172-.421-.172-.716 0-.04.002-.078.005-.116.013-.143.06-.335.203-.44.376-.275.387-.294.416-.454l.031-.143.104-.075M96.174 19.486c.083.09.454.511.454.845 0 .02-.001.04-.004.06-.016.113-.08.197-.194.261l-.103.057c-.443.245-.668.37-.703.63l-.103.07c-.073-.107-.149-.392-.149-.672 0-.056.003-.112.01-.166.018-.142.07-.333.219-.434.379-.258.395-.274.43-.438l.036-.143c.014-.009.08-.051.107-.07M95.738 16.355c0-.258.11-.55.33-.697.124-.085.258-.117.366-.144l.09-.023a.497.497 0 01.351.056c.08.046.135.108.152.175.021.077.036.135.036.18 0 .098-.066.142-.275.208l-.024.008c-.54.17-.748.238-.843.498l-.114.044a.675.675 0 01-.069-.305M94.103 16.953c0-.257.111-.55.33-.697.124-.084.259-.117.366-.144l.09-.023a.5.5 0 01.352.057c.08.045.134.107.152.173a.75.75 0 01.035.182c0 .098-.066.142-.274.208l-.024.008c-.541.17-.749.237-.843.497-.016.007-.08.032-.115.044a.668.668 0 01-.069-.305M97.171 16.268c.043.083.076.26.076.46 0 .128-.014.264-.046.389-.037.139-.114.32-.273.401-.41.206-.428.22-.485.378l-.054.136-.115.056c-.065-.091-.345-.506-.345-.831a.46.46 0 01.017-.124.351.351 0 01.227-.234l.109-.042c.47-.185.711-.28.78-.534l.11-.055M60.14 36.085a1.858 1.858 0 01-.094-.137c-.253.287-.515.567-.682.741-.128.136-.627.457-.531.653.081.205.654.05.84.046.267-.008.709-.015 1.132-.006-.127-.138-.52-.604-.502-1.081l-.163-.216zM61.472 33.173v.005-.005zM63.195 24.777c.159.048.174.066.396.461.164-.31.332-.61.505-.898a.336.336 0 00-.167-.097c-.337-.08-.835.298-.934.374l.063.112.137.048M65.74 28.992c.178-1.221.462-2.6.676-3.688l.018-.087.008-.047.027-.136v-.003c0-.015.002-.076 0-.153a1.48 1.48 0 00-.024-.277c-.072-.296-.086-.838-.33-.994-.226-.146-.914-.04-1.022.004-.094.029-.278.31-.278.31a20.29 20.29 0 00-1.298 2.328c-1.141 2.396-1.81 4.86-2.155 6.437.048.132.083.269.101.408v-.007a1.405 1.405 0 01.35-.056l.046-.089c.134-.252.594-.554 1.006-.658.042-.01.082-.019.12-.025l.026-.064c.105-.264.531-.61.93-.756.09-.033.175-.054.252-.067.104-.274.424-.628.75-.82.049-.027.095-.051.14-.071.048-.29.286-.7.567-.956a.586.586 0 00.02-.017l.07-.516zM67.49 26.508c.049.094.236.473.236.782a.526.526 0 01-.038.21.357.357 0 01-.257.2l-.117.03c-.488.12-.737.184-.837.424-.017.007-.084.028-.119.04a.776.776 0 01-.028-.233c0-.182.033-.417.113-.61.054-.134.154-.305.323-.363.434-.153.454-.164.532-.313l.07-.127.122-.04M65.15 30.9c.123-.072.307-.147.479-.09.44.145.461.143.609.074 0 0 .12-.05.136-.058l.119.041c-.022.128-.144.743-.446.91-.099.056-.205.056-.324.004l-.098-.043c-.468-.207-.708-.31-.938-.177a3.184 3.184 0 00-.117-.041c.049-.146.298-.455.58-.62M64.08 31.817c.136-.05.33-.092.488-.007.4.211.42.219.582.175l.142-.032.111.06c-.046.123-.279.693-.606.804a.353.353 0 01-.32-.051l-.1-.066c-.413-.273-.624-.412-.871-.324-.016-.007-.073-.039-.105-.056.074-.134.374-.391.68-.503M62.965 32.675c.199-.051.365-.037.481.041.382.257.402.26.563.234l.144-.019c.013.01.077.052.105.07-.059.118-.348.663-.685.742a.352.352 0 01-.31-.084l-.098-.08c-.38-.31-.577-.465-.83-.403l-.101-.068c.088-.126.416-.353.731-.433M66.981 29.585l.121-.085.127.016.002.082c0 .217-.026.704-.25.897-.085.074-.189.098-.317.071l-.117-.024c-.494-.102-.747-.153-.942.023a4.811 4.811 0 00-.123-.014c.018-.152.199-.508.44-.727.107-.096.27-.207.449-.186.46.05.481.044.61-.053M67.621 28.06c.015.068.055.277.055.498 0 .189-.029.385-.129.508a.356.356 0 01-.301.125l-.115-.002c-.504-.015-.762-.02-.926.186l-.125.009-.001-.017c0-.165.117-.531.31-.78.125-.161.266-.25.406-.259.46-.03.481-.036.596-.159l.103-.102a6.3 6.3 0 01.127-.007M66.699 25.865l-.163.825c.11-.112.284-.221.525-.372l.1-.062c.108-.069.17-.16.18-.272l.002-.037c0-.333-.396-.74-.496-.837l-.148.755zM61.916 34.453c.092.09.19.125.303.111.342-.047.68-.563.748-.674l-.097-.082c-.018.002-.147.006-.147.006-.162.013-.182.007-.537-.285-.14-.11-.341-.106-.485-.083-.067.012-.135.03-.201.051l.13.323c.019.047.092.241.133.485l.067.064.086.084zM70.685 35.717c.113.073.598.41.657.736a.312.312 0 01-.065.26l-.01.012c-.288.367-.43.546-.43.748a.56.56 0 00.02.13l-.07.097c-.183-.097-.38-.365-.453-.622a.77.77 0 01-.033-.213c0-.086.018-.175.07-.254.215-.33.263-.432.263-.563 0-.04-.004-.083-.01-.136l-.01-.093.07-.102M69.073 33.875c.173.119.339.403.386.667a.915.915 0 01.013.146.491.491 0 01-.1.316c-.326.399-.326.44-.327.669v.093a4.89 4.89 0 00-.08.094c-.105-.087-.553-.47-.576-.801l-.001-.027c0-.088.03-.16.093-.227l.013-.012c.35-.36.507-.522.507-.746a.532.532 0 00-.008-.082c.013-.013.057-.064.08-.09M68.668 32.759c.12.14.204.407.204.654 0 .03 0 .06-.003.09-.012.135-.058.317-.203.424-.407.292-.43.338-.49.56l-.025.091c-.012.01-.07.048-.1.068-.073-.1-.357-.516-.357-.835 0-.03.003-.059.007-.087a.315.315 0 01.155-.22l.016-.009c.481-.286.666-.398.697-.67l.099-.066M68.638 31.579a.65.65 0 01.024.192c0 .183-.037.431-.127.633-.057.128-.16.293-.326.346-.435.137-.452.152-.529.293l-.074.122a6.185 6.185 0 00-.118.036c-.045-.091-.211-.453-.211-.752 0-.081.012-.158.042-.224.047-.101.131-.163.256-.19l.099-.022c.492-.106.744-.163.851-.4l.113-.034M69.785 34.843c.106.053.566.301.645.609a.369.369 0 01-.066.307l-.019.027c-.284.394-.421.584-.421.768 0 .046.01.093.027.143l-.058.092c-.105-.095-.483-.466-.483-.814 0-.078.019-.154.065-.227.218-.346.282-.46.282-.58a.786.786 0 00-.024-.163l-.013-.062.065-.1M68.762 29.318l-.054-.029a.342.342 0 00-.318-.021c-.308.14-.474.727-.506.85l.115.051.134-.046c.154-.06.176-.055.591.123.051.02.104.028.157.029a10.326 10.326 0 01-.12-.957M68.929 30.535c-.193.167-.443.117-.93.015l-.104-.021a.341.341 0 00-.311.07c-.22.19-.245.668-.245.88l.001.08c.034.002.107.012.124.014l.117-.082c.128-.099.149-.104.602-.054.175.02.336-.088.44-.183.152-.137.278-.33.354-.49a12.04 12.04 0 01-.048-.23M72.579 39.259l.06-.032c.114-.061.177-.143.195-.253a.453.453 0 00.005-.066c0-.327-.355-.74-.432-.826l-.105.068-.038.138c-.036.156-.048.174-.429.423a.365.365 0 00-.066.059c.279.17.552.335.81.489M71.223 38.435c.096.058.19.118.286.177.02-.216.208-.383.541-.678l.08-.073a.346.346 0 00.132-.264l-.001-.027c-.026-.337-.52-.695-.625-.767l-.086.089-.004.142v.022c0 .141-.02.175-.318.493-.095.1-.12.242-.12.365 0 .033.002.065.005.096.014.143.057.294.11.425M69.016 31.43c.033.095.049.216.049.35 0 .217-.041.466-.12.68.224.235.356.668.327 1.06.214.136.406.402.513.695l.515-.236a10.216 10.216 0 01-1.195-2.706l.01.037a2.221 2.221 0 01-.1.12M96.009 11.56s.028-.18-.2-.303a18.562 18.562 0 00-.17-.087c-1.865-.795-6.712-3.34-8.952-4.528L85.415 6c-.05-.018-.591-.222-.91.016-.038.027-1.037.7-1.037.7s-.038.03-.03.094c.028.215.126.894-.068 1.04-.235.175-2.238.565-2.238.565l-.247.374-.53-.243c-.118-.05-.243-.08-.456.016l-.858.447-.859-.447c-.213-.096-.338-.067-.456-.016l-.53.243-.247-.374s-2.003-.39-2.237-.566c-.195-.145-.097-.824-.069-1.039.008-.065-.031-.095-.031-.095s-.999-.672-1.035-.699c-.32-.238-.861-.034-.911-.016l-1.272.642c-2.24 1.187-7.087 3.733-8.953 4.528l-.17.087c-.228.124-.199.303-.199.303l-.004.075c1.233.899 1.74 1.176 3.344 1.199h.422c.38-.004.816-.018 1.324-.037a.83.83 0 00.248-.101c.545-.345 4.15-2.835 4.227-2.883.12-.074.232-.107.284-.086.026.008.126.061.142.072.016.01.18.116.12.192-.054.068-3.103 2.852-3.103 2.852h1.355c.022 0 .551.037.937-.282.334-.279 1.641-1.56 1.71-1.62a.313.313 0 01.258-.07c.124.019.291.137.291.137s.083.039.028.12c-.055.08-1.56 2.123-1.56 2.123s.05.454 1.238.685c.45.087 1.17.054 1.981.055 0 0 .522-1.48.573-1.61.038-.096.109-.078.134-.076.025.003.116.009.33.075.087.03.109.159.134.286l.486 1.776c.014.078-.024.327-.293.78-.343.469-2.08 2.846-2.16 2.926-.089.089.069.267.12.335l.224.26c.15.206.25.208.362.202l.027-.01c.392-.155.796-.286 1.21-.393l1.03-1.808c.055-.081.142-.049.142-.049s.199.056.313.125c.05.031.079.138.057.227l-.298 1.266a10.462 10.462 0 012.672 0l-.299-1.266c-.021-.089.006-.196.057-.227.114-.069.313-.125.313-.125s.086-.032.14.05l1.032 1.808c.391.1.773.223 1.144.368l.093.034c.112.006.213.004.363-.201l.222-.261c.052-.068.21-.246.122-.335-.08-.08-1.818-2.457-2.161-2.927-.27-.452-.307-.701-.293-.779l.485-1.776c.026-.127.048-.256.134-.286.215-.066.306-.072.331-.075.025-.002.095-.02.133.076.052.13.574 1.61.574 1.61.81 0 1.531.032 1.981-.055 1.188-.23 1.239-.685 1.239-.685s-1.506-2.043-1.561-2.123c-.056-.081.027-.12.027-.12s.168-.118.292-.137a.314.314 0 01.258.07c.069.06 1.376 1.341 1.71 1.62.385.319.915.282.937.282h1.355s-3.05-2.784-3.103-2.852c-.06-.076.104-.182.12-.192a1.31 1.31 0 01.142-.072c.052-.02.164.012.284.086.077.048 3.682 2.538 4.227 2.883.075.049.162.08.248.1.508.02.944.034 1.323.038h.423c1.603-.023 2.11-.3 3.344-1.199l-.004-.075z" fill="#FFF" mask="url(#b)"/><path d="M79.234 40.495c-2.195-.186-4.364-1.232-5.686-1.82a1.485 1.485 0 00-.15-.063c-.008.112.034.388.072.515.049.158.32 1.153.52 1.199.288.064 1.778.417 2.86.335.074.23-.054.395-.881.484-.827.091-2.514.034-2.565.012-.008-.118-.03-.965-.295-1.125l-.525-.317-.267-.16-.122-.074c-.011-.007-.022-.012-.033-.02-1.97-1.186-4.491-2.736-4.572-3.52-.03-.27.096-.649.301-.834l-.146-.191c-.087-.115-.502-.691-.448-1.2l-.014-.031-.143-.275c-.07-.134-.405-.822-.2-1.32l-.232.099c-.14.044-.323.02-.494-.043a.733.733 0 01-.454.066c-.1.248-.375.834-.834.989a.732.732 0 01-.333.033c-.123.237-.457.796-.93.904a.74.74 0 01-.367-.012c-.13.208-.524.77-1.024.84a.734.734 0 01-.247-.01l.01.02c.037.066.22.418.262.806l.233.355c.042.063.258.407.327.8l.262.326c.175.218.377.568.43.923l.184.102c.172.095.335.271.457.48 1.345.757 3.406 1.787 5.703 2.52.754.24 1.532.448 2.32.606.453.089.909.163 1.364.214 0 0 .08-.011.045.183-.048.253-.329 1.252-.344 1.306.092.025 2.86.749 5.768-2.31.402-.426.476-.573.585-.77-.214-.008-.338-.018-.397-.022M64.06 42.877c-.421-.224-.934-.588-1.218-1.112-.026-.017-.055-.022-.08-.041-.358-.269-.776-.672-.991-1.183l-.011-.005c-.37-.293-.806-.75-.96-1.343a3.277 3.277 0 01-.422-.52c-.258 0-.5.003-.666.008l-.049.01c-.182.026-.354.04-.514.04-.747 0-1.25-.29-1.5-.864a1.364 1.364 0 01-.123-.63H0v5.88h64.318c-.083-.073-.17-.143-.24-.234l-.018-.006M85.903 37.306a1.284 1.284 0 01-.37.202c-.084.109-.187.205-.305.285a11.089 11.089 0 01-4.732 1.772c.1.092.193.194.262.316.221.392.223.871.004 1.264-.169.305-.315.541-.776 1.03-.341.358-.681.667-1.017.943h69.847v-5.88H85.985c-.028.021-.054.046-.082.068M9.367 14.9l8.127 12.42h.183l8.173-12.512v18.355h8.812V1.203h-9.36l-7.625 12.373-7.625-12.374H.692v31.961h8.675zM58.265 32.305a1.283 1.283 0 01-.177-.553 3.064 3.064 0 01.088-.966 1.27 1.27 0 01-.102-.54 2.92 2.92 0 01.227-1.051 1.283 1.283 0 01-.009-.44c.047-.29.166-.753.454-1.162.003-.1.013-.202.04-.302.11-.408.318-.916.706-1.287.02-.063.043-.126.074-.186.165-.324.493-.836 1.01-1.136.052-.09.113-.176.19-.253.346-.35.858-.747 1.466-.854.025-.02.053-.039.08-.059a1.267 1.267 0 01-.208-.295c-.018-.035-.028-.073-.041-.11l-1.786-1.272c-1.918 2.33-3.881 3.882-7.214 3.882-4.474 0-7.625-3.744-7.625-8.538v-.091c0-4.657 3.15-8.447 7.625-8.447 3.059 0 5.16 1.46 6.985 3.744l.746-.578a1.315 1.315 0 01-.017-.247l.001-.023a1.624 1.624 0 01.877-1.42l.2-.104c.026-.013.053-.026.08-.037.722-.308 1.93-.899 3.252-1.568l1.528-1.183C63.885 3.303 59.684.563 53.154.563c-9.679 0-16.847 7.306-16.847 16.62v.091c0 9.543 7.35 16.528 16.482 16.528 2.066 0 3.87-.267 5.47-.74a2.928 2.928 0 01-.032-.423c0-.117.022-.224.038-.334M99.083 25.686c-.408.18-.834.295-1.27.358a1.356 1.356 0 01-.223.21c-.314.23-.867.549-1.48.59l.073.157a1.37 1.37 0 01-.295 1.555c.042.234.025.483-.054.702a1.333 1.333 0 01-.1.205c2.946 2.728 6.916 4.34 11.297 4.34 7.077 0 11.14-3.06 14.155-7.215l-6.667-4.748c-1.918 2.328-3.881 3.881-7.214 3.881-2.334 0-4.302-1.025-5.656-2.68-.49 1.154-1.37 2.116-2.566 2.645M96.228 10.018l.192.098c.624.34.882.924.883 1.425l.001.023c.024.438-.175.857-.53 1.116-1.38 1.007-2.136 1.42-4.087 1.446l-.439.001a46.32 46.32 0 01-1.376-.038c-.015 0-.03-.005-.046-.007-.111.622-.189 1.257-.233 1.904.012.004.024.004.035.009.323.118.616.384.761.696l.247.532c.145.31.159.705.042 1.027-.002.005-.005.008-.006.013l.145.314a5.225 5.225 0 011.016-1.818c.057-.644.374-1.237.88-1.577.312-.21.611-.284.772-.324l.078-.02c.167-.05.356-.06.548-.045.076-.073.148-.15.235-.209.317-.213.629-.289.78-.326l.071-.02c.393-.116.901-.052 1.317.184.372.211.636.542.75.933a5.582 5.582 0 011.464.783c.398-4.21 3.413-7.493 7.577-7.493 3.059 0 5.16 1.461 6.985 3.744l6.667-5.16c-2.83-3.926-7.031-6.665-13.56-6.665-6.322 0-11.571 3.117-14.454 7.873 1.305.66 2.49 1.24 3.203 1.543l.082.038M137.577 13.257c-4.429-1.005-5.525-1.645-5.525-3.106v-.09c0-1.142 1.051-2.055 3.196-2.055 2.831 0 6.028 1.095 8.95 3.15l4.429-6.255c-3.47-2.785-7.717-4.246-13.15-4.246-7.67 0-12.374 4.291-12.374 10.227v.092c0 6.574 5.251 8.492 12.055 10.044 4.337 1.005 5.387 1.735 5.387 3.06v.09c0 1.37-1.278 2.192-3.653 2.192-3.698 0-7.214-1.324-10.364-3.835l-4.931 5.89c3.926 3.516 9.314 5.297 14.975 5.297 7.762 0 12.922-3.882 12.922-10.411v-.09c0-5.982-4.566-8.356-11.917-9.954" fill="#FFF" mask="url(#b)"/></g></g></svg>