<svg width="69" height="61" viewBox="0 0 69 61" xmlns="http://www.w3.org/2000/svg" xmlns:xlink="http://www.w3.org/1999/xlink"><defs><path id="a" d="M0 0h68.924v60.216H0z"/></defs><g fill="none" fill-rule="evenodd"><mask id="b" fill="#fff"><use xlink:href="#a"/></mask><path d="M49.522 4.278c5.933 0 10.745 25.028 10.745 55.938h8.657C68.924 26.938 60.19 0 49.497 0c-6.111 0-11.509 8.071-15.073 20.75C30.859 8.072 25.46 0 19.4 0 8.708 0 0 26.913 0 60.19h8.657c0-30.91 4.761-55.912 10.694-55.912 5.932 0 10.744 23.118 10.744 51.635h8.606c0-28.517 4.838-51.635 10.77-51.635" fill="#FFF" mask="url(#b)"/></g></svg>