<svg id="Ebene_1" xmlns="http://www.w3.org/2000/svg" width="123" height="63" viewBox="0 0 123 63"><style>.st0{fill:#7ab51e}</style><path class="st0" d="M112.3 2.4c-2.9 1.9-17 13.9-27 22.3V1C82-.7 78.7-.2 74.7 2.4c-2.9 1.9-17 13.9-27 22.3V1C44.3-.7 41-.2 37 2.5c-4.5 3-37 31-37 31h14.2l23.4-19.3v19.3h14.2l23.4-19.3v19.3h14.2l23.4-19.3v19.3H123V1c-3.4-1.7-6.7-1.2-10.7 1.4"/><path d="M52.6 51.8c2.1-.7 3.6-2.3 3.6-4.6 0-4-3.4-5.4-7.4-5.4H41v20.7h7.9c3.6 0 8.3-1.1 8.3-5.5-.1-3-1.9-4.7-4.6-5.2zm-7.2-6.5h3.5c1.9 0 2.9.8 2.9 2.4 0 1.7-1 2.4-2.9 2.4h-3.5v-4.8zm3.5 13.8h-3.5v-5.5h3.5c2.1 0 3.6.4 3.5 2.7 0 2.3-1.4 2.8-3.5 2.8zM73.7 52.3c2.6-.6 4.2-2.4 4.2-5.1 0-4.2-3.4-5.3-7.2-5.4H62v20.7h4.5v-8.3h4.7c1.5.1 1.9 1.7 2.1 2.8.3 1.8.4 3.4.6 5.5h4.3c-.2-1.2-.4-3.6-.6-4.9-.4-2.8-.4-4.9-3.9-5.3zm-3.5-1.5h-3.7v-5.5h3.7c2 0 3.1.8 3.1 2.6 0 1.9-1.2 2.8-3.1 2.9zM11.9 53.8l-6.8-12h-5v20.7h4.3V48.7l6 10.5H13l6.4-10.9v14.2h4.3V41.8h-4.9zM30 41.8h4.6v20.7H30zM88.9 41.8l-7.5 20.7h4.3l1.6-4.4h8.2l1.5 4.4h4.5l-7.2-20.7h-5.4zm-.5 12.9l3.1-8.8h.1l2.9 8.8h-6.1zM114.5 50.7v3.4h4.1v5.1c-1.1.2-2.4.5-4.2.5-4 0-5.9-2.9-5.9-7.6 0-4.7 2.1-6.6 5.7-7.2 2.6-.5 5.2.5 6.9 1.4.5-.9 1.2-2.1 1.8-3l-.3-.2c-2.3-1.6-5.9-1.9-9.1-1.7-3.6.3-9.7 2.5-9.7 10.7s5.6 10.6 9.8 10.8c2.8.1 4.1-.1 4.9-.2 1.8-.2 2.9-.5 4.6-.9V50.7h-8.6z"/></svg>