<svg xmlns="http://www.w3.org/2000/svg" viewBox="272.5 128.6 363.1 105.9"><path fill="#0DADEA" d="M272.5 143.1l43.4-6V179h-43.4v-35.9zm43.4 41.3v41.4l-43.4-6v-35.5l43.4.1zm4.9-47.9l57.8-7.9v50.5h-57.8v-42.6zm57.8 47.9v50l-57.8-7.9v-42.1h57.8z"/><path fill="#00ADEF" d="M467.6 212.8h-11.1l-5.5-15.3h-24l-5.3 15.3h-11.1l22.8-60h11.4l22.8 60zm-19.3-23.3l-8.5-23.9c-.3-.8-.5-2-.8-3.8h-.2c-.3 1.6-.5 2.8-.9 3.8l-8.4 23.9h18.8zM507.1 174.1l-23.5 31.2H507v7.6h-37.3v-3.6l24-31.6H472V170h35.1v4.1zM553.4 212.8h-9.9V206h-.2c-2.9 5.2-7.3 7.8-13.4 7.8-10.3 0-15.4-6.1-15.4-18.2V170h9.9v24.6c0 7.7 3 11.5 9.1 11.5 2.9 0 5.3-1.1 7.2-3.2 1.9-2.1 2.8-4.9 2.8-8.3V170h9.9v42.8zM591.6 179.2c-1.2-.9-2.9-1.4-5.2-1.4-2.9 0-5.4 1.3-7.3 3.9-2 2.6-2.9 6.1-2.9 10.6v20.5h-9.9V170h9.9v8.8h.2c1-3 2.4-5.4 4.4-7 2-1.7 4.2-2.5 6.7-2.5 1.8 0 3.1.3 4.1.8v9.1zM635.6 194.1h-29.7c.1 4 1.4 7 3.7 9.2 2.4 2.1 5.6 3.2 9.8 3.2 4.7 0 8.9-1.4 12.8-4.1v7.8c-4 2.5-9.2 3.7-15.7 3.7-6.4 0-11.4-1.9-15.1-5.8-3.6-3.9-5.5-9.4-5.5-16.4 0-6.7 2-12.1 6-16.3 4-4.2 9-6.3 15-6.3s10.6 1.9 13.8 5.6c3.3 3.8 4.9 9 4.9 15.7v3.7zm-9.6-6.9c0-3.5-.9-6.2-2.5-8.1-1.6-1.9-3.9-2.9-6.8-2.9-2.8 0-5.2 1-7.2 3.1-2 2-3.2 4.7-3.6 8l20.1-.1z"/></svg>