<svg xmlns="http://www.w3.org/2000/svg" width="555.5" height="80" viewBox="-295 241 555.5 80"><path fill="#fff" d="M-293 253.42l31.45-4.32v30.34H-293v-26.02zm31.45 29.91v30l-31.44-4.32v-25.68h31.44zm3.47-34.7l41.84-5.75v36.57h-41.84v-30.82zm41.85 34.7v36.22l-41.84-5.75v-30.48h41.84zm71.03 20.55h-7.27v-28.11c0-2.3.14-5.12.43-8.45h-.12c-.45 1.9-.85 3.26-1.2 4.09l-13.18 32.47h-5.05l-13.21-32.22c-.37-.95-.76-2.39-1.17-4.33h-.12c.17 1.74.25 4.57.25 8.51v28.04h-6.78v-43.43h10.32l11.61 28.92c.88 2.22 1.46 3.88 1.72 4.97h.15c.76-2.28 1.38-3.98 1.85-5.09l11.83-28.8h9.95l-.01 43.43zm13.65-37.52c-1.17 0-2.17-.37-3-1.12-.83-.75-1.25-1.7-1.25-2.85s.42-2.11 1.25-2.88c.83-.77 1.83-1.15 3-1.15 1.21 0 2.24.38 3.08 1.15.84.77 1.26 1.73 1.26 2.88 0 1.09-.42 2.02-1.26 2.8-.85.78-1.87 1.17-3.08 1.17zm3.54 37.52h-7.14v-31.02h7.14v31.02zm31.94-1.42c-2.52 1.43-5.51 2.15-8.96 2.15-4.68 0-8.46-1.44-11.33-4.31-2.87-2.88-4.31-6.61-4.31-11.19 0-5.11 1.55-9.21 4.64-12.31 3.09-3.1 7.22-4.65 12.4-4.65 2.87 0 5.41.5 7.61 1.49v6.54c-2.2-1.61-4.54-2.42-7.02-2.42-3.02 0-5.49 1.01-7.42 3.01-1.93 2.01-2.9 4.64-2.9 7.89 0 3.21.91 5.74 2.72 7.6 1.82 1.86 4.26 2.79 7.32 2.79 2.57 0 4.99-.9 7.27-2.69l-.02 6.1zm25.4-22.9c-.86-.67-2.1-1-3.73-1-2.11 0-3.88.94-5.3 2.82s-2.13 4.43-2.13 7.66v14.84h-7.15v-31.02h7.15v6.39h.12c.7-2.18 1.77-3.88 3.22-5.1s3.06-1.83 4.85-1.83c1.29 0 2.28.19 2.96.58l.01 6.66zm19.1 25.05c-4.87 0-8.75-1.45-11.66-4.35-2.91-2.9-4.36-6.74-4.36-11.52 0-5.21 1.51-9.28 4.54-12.21 3.03-2.93 7.11-4.39 12.24-4.39 4.93 0 8.77 1.42 11.52 4.27 2.75 2.85 4.13 6.79 4.13 11.84 0 4.95-1.48 8.91-4.45 11.89-2.96 2.98-6.95 4.47-11.96 4.47zm.34-26.87c-2.79 0-5 .96-6.62 2.88s-2.43 4.56-2.43 7.93c0 3.25.82 5.81 2.46 7.68 1.64 1.87 3.84 2.8 6.59 2.8 2.81 0 4.98-.92 6.48-2.76 1.51-1.84 2.26-4.45 2.26-7.85 0-3.41-.75-6.05-2.26-7.9-1.51-1.85-3.67-2.78-6.48-2.78zm21.41 25.17v-6.51c2.67 2 5.62 3 8.84 3 4.31 0 6.47-1.25 6.47-3.76 0-.71-.18-1.31-.55-1.8-.37-.5-.87-.93-1.5-1.32s-1.37-.73-2.22-1.03c-.85-.3-1.8-.65-2.85-1.03-1.29-.5-2.46-1.04-3.5-1.61s-1.9-1.21-2.59-1.92c-.69-.72-1.21-1.53-1.55-2.44-.35-.91-.52-1.97-.52-3.18 0-1.49.36-2.81 1.08-3.95.72-1.14 1.68-2.1 2.89-2.88 1.21-.78 2.59-1.36 4.13-1.76 1.54-.39 3.13-.59 4.77-.59 2.91 0 5.52.43 7.82 1.3v6.15c-2.22-1.49-4.76-2.24-7.64-2.24-.9 0-1.72.09-2.45.27-.73.18-1.35.43-1.86.76s-.91.71-1.2 1.17c-.29.46-.43.95-.43 1.5 0 .67.14 1.23.43 1.7.29.46.71.87 1.28 1.23.56.35 1.24.68 2.03.97.79.29 1.7.61 2.73.95 1.35.54 2.57 1.1 3.65 1.67s2 1.21 2.76 1.92c.76.72 1.34 1.54 1.75 2.48.41.94.62 2.05.62 3.35 0 1.57-.37 2.95-1.11 4.12-.74 1.17-1.73 2.14-2.96 2.91s-2.66 1.34-4.27 1.71c-1.61.38-3.31.56-5.1.56-3.44 0-6.43-.57-8.95-1.7zm43.18 1.7c-4.87 0-8.75-1.45-11.66-4.35-2.91-2.9-4.36-6.74-4.36-11.52 0-5.21 1.51-9.28 4.54-12.21 3.03-2.93 7.11-4.39 12.24-4.39 4.93 0 8.77 1.42 11.52 4.27 2.75 2.85 4.13 6.79 4.13 11.84 0 4.95-1.48 8.91-4.45 11.89-2.97 2.98-6.96 4.47-11.96 4.47zm.33-26.87c-2.79 0-5 .96-6.62 2.88s-2.43 4.56-2.43 7.93c0 3.25.82 5.81 2.46 7.68 1.64 1.87 3.84 2.8 6.59 2.8 2.81 0 4.97-.92 6.48-2.76 1.51-1.84 2.26-4.45 2.26-7.85 0-3.41-.75-6.05-2.26-7.9-1.5-1.85-3.66-2.78-6.48-2.78zm41.21-14.05c-.96-.54-2.06-.82-3.3-.82-3.47 0-5.2 1.93-5.2 5.78v4.21h7.33v5.51h-7.3v25.5h-7.15v-25.5H33.9v-5.51h5.39v-5.03c0-3.27 1.09-5.85 3.26-7.74 2.18-1.89 4.9-2.83 8.16-2.83 1.77 0 3.16.19 4.19.58v5.85zm20.61 39.86c-1.39.69-3.23 1.03-5.51 1.03-6.12 0-9.18-2.89-9.18-8.66v-17.54h-5.27v-5.51h5.27v-7.18l7.15-2v9.18h7.55v5.51h-7.55v15.51c0 1.84.34 3.15 1.02 3.94.68.79 1.81 1.18 3.39 1.18 1.21 0 2.26-.34 3.14-1.03l-.01 5.57zm60.61.33h-8.04l-3.97-11.06h-17.37l-3.82 11.06h-8.01l16.54-43.43h8.25l16.42 43.43zm-13.95-16.93l-6.13-17.32c-.18-.57-.38-1.47-.58-2.72h-.12c-.18 1.15-.39 2.06-.62 2.72l-6.07 17.32h13.52zm42.53-11.14l-17.03 22.59h16.97v5.48h-26.98v-2.64l17.4-22.9h-15.74v-5.48h25.38v2.95zm33.54 28.07h-7.14v-4.91h-.12c-2.07 3.76-5.3 5.63-9.67 5.63-7.45 0-11.18-4.4-11.18-13.21v-18.54h7.15v17.81c0 5.57 2.19 8.36 6.56 8.36 2.11 0 3.85-.77 5.22-2.3 1.37-1.53 2.05-3.54 2.05-6.03v-17.84h7.15l-.02 31.03zm27.63-24.32c-.86-.67-2.1-1-3.73-1-2.11 0-3.88.94-5.3 2.82s-2.13 4.43-2.13 7.66v14.84h-7.14v-31.02h7.14v6.39h.12c.7-2.18 1.77-3.88 3.22-5.1 1.45-1.22 3.06-1.83 4.85-1.83 1.29 0 2.28.19 2.96.58l.01 6.66zm31.82 10.72h-21.5c.08 2.87.98 5.08 2.7 6.63 1.71 1.55 4.07 2.33 7.07 2.33 3.37 0 6.46-.99 9.27-2.97v5.66c-2.87 1.78-6.67 2.67-11.4 2.67-4.64 0-8.28-1.41-10.92-4.23s-3.96-6.78-3.96-11.89c0-4.83 1.45-8.76 4.36-11.8 2.91-3.04 6.51-4.56 10.83-4.56s7.65 1.36 10.01 4.09c2.36 2.72 3.54 6.51 3.54 11.36v2.71zm-6.9-4.96c-.03-2.52-.63-4.49-1.82-5.89-1.19-1.4-2.83-2.1-4.93-2.1-2.05 0-3.79.74-5.22 2.21-1.43 1.47-2.31 3.4-2.63 5.78h14.6z"/></svg>