<svg width="200" height="43" viewBox="0 0 200 43" xmlns="http://www.w3.org/2000/svg" xmlns:xlink="http://www.w3.org/1999/xlink"><defs><path id="a" d="M.298.033h22.517v27.914H.298z"/><path id="c" d="M0 42.715h199.967V0H0z"/></defs><g fill="none" fill-rule="evenodd"><path d="M171.258 29.47c-.794 1.027-2.053 1.523-3.609 1.523-1.59 0-2.814-.496-3.709-1.589-.894-1.027-1.324-2.517-1.324-4.404 0-1.954.464-3.444 1.324-4.503.895-1.06 2.12-1.59 3.676-1.59 1.49 0 2.715.497 3.576 1.523.86 1.027 1.325 2.517 1.325 4.47 0 1.987-.43 3.544-1.259 4.57zm-3.41-14.106c-3.013 0-5.43.894-7.12 2.65-1.688 1.754-2.55 4.171-2.55 7.218 0 2.847.862 5.165 2.517 6.854 1.656 1.656 3.907 2.517 6.722 2.517 2.947 0 5.298-.894 6.987-2.682 1.722-1.789 2.55-4.173 2.55-7.12 0-2.914-.795-5.231-2.418-6.92-1.556-1.689-3.84-2.517-6.688-2.517zm-16.292 8.013c-1.358-.562-2.218-.993-2.616-1.357-.33-.331-.496-.795-.496-1.39 0-.498.198-.994.695-1.325.497-.331 1.06-.497 1.887-.497.729 0 1.49.132 2.22.331.728.199 1.39.497 1.92.894l.165.133v-4.04l-.1-.033a11.948 11.948 0 00-1.953-.563 13.274 13.274 0 00-2.119-.199c-2.053 0-3.742.497-5.066 1.59-1.325 1.026-1.954 2.417-1.954 4.04 0 .86.133 1.622.43 2.25.299.63.73 1.226 1.325 1.723.596.463 1.457.993 2.649 1.49.993.43 1.755.761 2.219 1.026.463.265.76.563.993.795.166.265.265.596.265 1.027 0 1.225-.927 1.82-2.815 1.82-.728 0-1.49-.132-2.384-.43a9.22 9.22 0 01-2.417-1.225l-.166-.132v4.205l.1.033c.629.298 1.39.497 2.318.729.927.165 1.755.298 2.483.298 2.218 0 4.04-.497 5.331-1.59 1.325-1.06 2.02-2.417 2.02-4.172 0-1.225-.331-2.318-1.06-3.146a13.426 13.426 0 00-3.874-2.285zm-15.265 6.093c-.794 1.027-2.053 1.523-3.609 1.523s-2.814-.496-3.708-1.589c-.894-1.027-1.325-2.517-1.325-4.404 0-1.954.464-3.444 1.325-4.503.894-1.06 2.119-1.59 3.675-1.59 1.523 0 2.715.497 3.576 1.523.861 1.027 1.325 2.517 1.325 4.47-.066 1.987-.431 3.544-1.259 4.57zm-3.443-14.106c-3.014 0-5.43.894-7.12 2.65-1.721 1.754-2.55 4.171-2.55 7.218 0 2.847.861 5.165 2.517 6.854 1.656 1.656 3.908 2.517 6.722 2.517 2.947 0 5.298-.894 6.987-2.682 1.722-1.789 2.55-4.173 2.55-7.12 0-2.914-.795-5.231-2.418-6.92-1.556-1.689-3.84-2.517-6.688-2.517zm-11.722.1a4.54 4.54 0 00-2.914 1.026c-.728.596-1.225 1.457-1.656 2.484h-.033v-3.212h-4.304v18.344h4.304v-9.37c0-1.59.331-2.915 1.06-3.875.728-.993 1.655-1.49 2.781-1.49.398 0 .795.1 1.292.165.463.133.794.265 1.026.43l.166.133v-4.304l-.1-.033c-.298-.2-.894-.298-1.622-.298zm-14.205.132a12.007 12.007 0 00-2.418-.265c-1.953 0-3.741.43-5.231 1.292-1.49.86-2.683 2.052-3.444 3.543-.795 1.523-1.192 3.278-1.192 5.298 0 1.755.397 3.31 1.159 4.735.761 1.39 1.821 2.516 3.245 3.278 1.357.761 2.947 1.159 4.735 1.159 2.053 0 3.808-.43 5.198-1.225l.034-.034v-3.973l-.166.132c-.629.464-1.358.861-2.086 1.093-.762.265-1.457.397-2.053.397-1.722 0-3.08-.496-4.04-1.589-.993-1.06-1.49-2.516-1.49-4.338 0-1.887.497-3.377 1.523-4.47 1.027-1.093 2.385-1.655 4.04-1.655 1.39 0 2.815.463 4.106 1.39l.166.133V16.29l-.034-.033c-.562-.232-1.191-.496-2.052-.662zM89.536 8.013c-.728 0-1.324.265-1.82.729-.497.463-.762 1.06-.762 1.788 0 .695.265 1.291.761 1.755.497.463 1.093.695 1.821.695a2.64 2.64 0 001.822-.695 2.33 2.33 0 00.761-1.755c0-.696-.265-1.292-.761-1.788-.43-.464-1.06-.729-1.822-.729zm-2.185 26.093h4.305V15.762H87.35v18.344zm-16.755-9.503l-1.192 3.377h-.1a23.979 23.979 0 00-1.158-3.311l-6.391-16.06h-6.258v25.596h4.139V18.411c0-.994 0-2.12-.033-3.51-.033-.696-.1-1.226-.133-1.623h.1c.198.994.43 1.722.596 2.186l7.682 18.675h2.914l7.616-18.841c.165-.43.33-1.291.496-2.02h.1c-.1 1.888-.166 3.576-.2 4.603v16.225h4.405V8.543h-6.027l-6.556 16.06z" fill="#FFF"/><g transform="translate(177.152 6.623)"><mask id="b" fill="#fff"><use xlink:href="#a"/></mask><path d="M22.815 12.682V9.14h-4.338v-5.43l-.132.033-4.106 1.225-.1.033v4.139H7.65V6.821c0-1.06.265-1.887.728-2.417.464-.53 1.16-.795 2.02-.795.597 0 1.225.133 1.921.43l.166.1V.397l-.1-.033c-.596-.199-1.39-.331-2.417-.331a7.753 7.753 0 00-3.444.795 5.742 5.742 0 00-2.351 2.35c-.563.994-.86 2.12-.86 3.411v2.55H.297v3.51h3.013v14.834H7.65v-14.8h6.49v9.436c0 3.874 1.821 5.828 5.464 5.828.596 0 1.225-.1 1.821-.199.629-.132 1.093-.298 1.357-.43l.034-.033v-3.543l-.166.132a2.802 2.802 0 01-.894.397c-.331.1-.63.133-.861.133-.86 0-1.457-.199-1.887-.695-.398-.464-.597-1.226-.597-2.351v-8.676h4.405z" fill="#FFF" mask="url(#b)"/></g><mask id="d" fill="#fff"><use xlink:href="#c"/></mask><path fill="#FFF" mask="url(#d)" d="M0 20.298h20.298V0H0zM22.417 20.298h20.298V0H22.417zM0 42.715h20.298V22.417H0zM22.417 42.715h20.298V22.417H22.417z"/></g></svg>