<svg xmlns="http://www.w3.org/2000/svg" width="164" height="35" viewBox="0 0 164 35"><g fill="#6A778B" opacity=".495"><path d="M57.756 20.16l-.975 2.766h-.08c-.163-.624-.46-1.573-.948-2.713l-5.23-13.16h-5.12v20.974h3.388V15.085c0-.814 0-1.736-.028-2.876-.027-.57-.08-1.005-.108-1.33h.08c.164.814.353 1.41.49 1.79l6.284 15.303h2.384l6.23-15.438c.136-.353.27-1.058.407-1.655h.08c-.08 1.546-.135 2.93-.162 3.77v13.296h3.603V7h-4.93l-5.364 13.16zm13.708-7.245h3.522v15.03h-3.522v-15.03zm1.788-6.35c-.596 0-1.084.218-1.49.598-.406.38-.623.868-.623 1.465 0 .57.216 1.058.622 1.438.406.38.894.57 1.49.57s1.11-.217 1.49-.57c.406-.38.623-.868.623-1.438s-.217-1.058-.623-1.465c-.352-.38-.867-.597-1.49-.597zm14.222 6.214c-.65-.137-1.327-.218-1.977-.218-1.6 0-3.06.353-4.28 1.058-1.22.706-2.195 1.682-2.818 2.903-.65 1.248-.976 2.686-.976 4.34 0 1.44.325 2.715.948 3.88.623 1.14 1.49 2.063 2.655 2.687 1.11.624 2.41.95 3.874.95 1.68 0 3.116-.353 4.254-1.004l.027-.027v-3.257l-.134.11c-.515.378-1.11.704-1.707.894-.624.217-1.193.325-1.68.325-1.41 0-2.52-.406-3.306-1.302-.812-.868-1.22-2.062-1.22-3.554 0-1.547.408-2.768 1.247-3.663.84-.895 1.952-1.356 3.306-1.356 1.138 0 2.303.38 3.36 1.14l.135.108V13.35l-.026-.028c-.46-.19-.975-.407-1.68-.543zm11.622-.11c-.867 0-1.68.272-2.384.842-.596.488-1.002 1.193-1.354 2.035h-.027v-2.632h-3.52v15.03h3.52v-7.678c0-1.302.27-2.387.867-3.174.596-.814 1.355-1.22 2.276-1.22.325 0 .65.08 1.057.135.38.108.65.217.84.352l.135.11V12.94l-.082-.027c-.243-.163-.73-.244-1.327-.244zm9.59-.08c-2.465 0-4.443.732-5.824 2.17-1.41 1.438-2.086 3.418-2.086 5.914 0 2.334.704 4.233 2.06 5.617 1.353 1.357 3.195 2.063 5.498 2.063 2.41 0 4.334-.733 5.716-2.198 1.41-1.465 2.086-3.42 2.086-5.833 0-2.388-.65-4.287-1.978-5.67-1.273-1.385-3.142-2.063-5.472-2.063zm2.817 11.557c-.65.84-1.68 1.248-2.952 1.248-1.273 0-2.302-.407-3.034-1.302-.73-.84-1.083-2.062-1.083-3.61 0-1.6.38-2.82 1.083-3.688.732-.87 1.734-1.303 3.007-1.303 1.247 0 2.222.407 2.926 1.248.704.84 1.083 2.062 1.083 3.663-.054 1.628-.352 2.903-1.03 3.744zm12.49-4.992c-1.112-.46-1.816-.814-2.14-1.112-.272-.272-.407-.652-.407-1.14 0-.407.162-.814.568-1.085.407-.27.867-.407 1.545-.407.595 0 1.218.11 1.814.272.596.163 1.137.407 1.57.733l.136.108v-3.31l-.08-.027c-.407-.163-.95-.326-1.6-.46-.65-.11-1.245-.164-1.733-.164-1.68 0-3.06.407-4.145 1.302-1.084.84-1.598 1.98-1.598 3.31 0 .706.108 1.33.352 1.845.244.515.596 1.003 1.084 1.41.487.38 1.192.814 2.167 1.22.812.354 1.436.625 1.815.842.38.217.623.46.813.65.135.218.216.49.216.842 0 1.004-.757 1.493-2.3 1.493-.597 0-1.22-.11-1.952-.353-.73-.244-1.41-.597-1.977-1.004l-.135-.108v3.445l.08.027c.516.245 1.14.407 1.898.597.758.137 1.435.246 2.03.246 1.816 0 3.306-.407 4.363-1.303 1.084-.868 1.652-1.98 1.652-3.418 0-1.004-.27-1.9-.866-2.578-.786-.65-1.76-1.33-3.17-1.872zm13.327-6.566c-2.465 0-4.442.732-5.824 2.17-1.382 1.438-2.086 3.418-2.086 5.914 0 2.334.704 4.233 2.06 5.617 1.353 1.357 3.196 2.063 5.498 2.063 2.41 0 4.335-.733 5.716-2.198 1.41-1.465 2.086-3.42 2.086-5.833 0-2.388-.65-4.287-1.977-5.67-1.274-1.385-3.143-2.063-5.473-2.063zm2.79 11.557c-.65.84-1.68 1.248-2.952 1.248-1.3 0-2.303-.407-3.034-1.302-.732-.84-1.084-2.062-1.084-3.61 0-1.6.38-2.82 1.084-3.688.73-.87 1.734-1.303 3.007-1.303 1.22 0 2.222.407 2.926 1.248.705.84 1.084 2.062 1.084 3.663 0 1.628-.352 2.903-1.03 3.744zm23.488-8.33v-2.902h-3.55v-4.45l-.107.027-3.358 1.004-.082.027v3.392h-5.31v-1.9c0-.868.217-1.546.597-1.98.38-.434.948-.65 1.652-.65.487 0 1 .107 1.57.35l.136.083V5.752l-.082-.027c-.487-.163-1.137-.272-1.977-.272-1.057 0-1.978.245-2.817.652-.84.46-1.463 1.085-1.924 1.926-.46.815-.704 1.737-.704 2.796v2.09h-2.465v2.875h2.465v12.156h3.55V15.818h5.308v7.732c0 3.175 1.49 4.776 4.47 4.776.488 0 1.002-.082 1.49-.163.515-.11.894-.244 1.11-.353l.028-.027V24.88l-.136.108c-.216.136-.406.245-.73.326-.272.08-.516.108-.705.108-.705 0-1.192-.162-1.544-.57-.326-.38-.488-1.003-.488-1.926v-7.108h3.603zM0 0h16.606v16.632H0M18.34 0h16.606v16.632H18.34M0 18.368h16.606V35H0M18.34 18.368h16.606V35H18.34"/></g></svg>