<svg xmlns="http://www.w3.org/2000/svg" width="164" height="35" viewBox="0 0 164 35"><path fill="#FFF" d="M57.756 20.159l-.975 2.767H56.7a19.668 19.668 0 00-.948-2.713L50.523 7.054h-5.12v20.973h3.387V15.085c0-.814 0-1.736-.028-2.876-.027-.57-.08-1.004-.108-1.33h.081c.163.815.352 1.412.488 1.792l6.285 15.302h2.384l6.23-15.438c.136-.353.271-1.058.407-1.655h.081c-.081 1.546-.135 2.93-.162 3.771v13.295h3.603V7h-4.93l-5.365 13.159zm13.708-7.244h3.522v15.03h-3.522v-15.03zm1.788-6.35c-.596 0-1.084.218-1.49.598-.406.38-.623.868-.623 1.465 0 .57.217 1.058.623 1.438.406.38.894.57 1.49.57s1.11-.217 1.49-.57a1.91 1.91 0 00.623-1.438c0-.57-.217-1.058-.623-1.465-.352-.38-.867-.597-1.49-.597zm14.222 6.214a9.809 9.809 0 00-1.977-.217c-1.599 0-3.061.353-4.28 1.058-1.22.706-2.195 1.682-2.818 2.903-.65 1.248-.975 2.686-.975 4.341 0 1.438.325 2.714.948 3.88.623 1.14 1.49 2.062 2.655 2.686 1.11.624 2.41.95 3.874.95 1.68 0 3.115-.353 4.253-1.004l.027-.027v-3.256l-.135.109a6.05 6.05 0 01-1.707.895c-.623.217-1.192.325-1.68.325-1.408 0-2.52-.406-3.305-1.302-.812-.868-1.219-2.062-1.219-3.554 0-1.547.407-2.768 1.246-3.663.84-.895 1.95-1.356 3.305-1.356 1.138 0 2.303.38 3.36 1.139l.135.109v-3.446l-.027-.027c-.46-.19-.975-.407-1.68-.543zm11.622-.108c-.867 0-1.68.27-2.384.84-.596.489-1.002 1.194-1.354 2.036h-.027v-2.632h-3.522v15.03h3.522v-7.678c0-1.302.27-2.387.866-3.174.596-.814 1.355-1.22 2.276-1.22.325 0 .65.08 1.057.135.379.108.65.217.84.352l.135.109v-3.527l-.082-.027c-.243-.163-.73-.244-1.327-.244zm9.59-.082c-2.465 0-4.443.733-5.824 2.17-1.41 1.439-2.086 3.42-2.086 5.915 0 2.334.704 4.233 2.059 5.617 1.354 1.356 3.196 2.062 5.499 2.062 2.41 0 4.334-.733 5.716-2.198 1.409-1.465 2.086-3.419 2.086-5.833 0-2.388-.65-4.287-1.978-5.67-1.273-1.385-3.142-2.063-5.472-2.063zm2.817 11.558c-.65.841-1.68 1.248-2.952 1.248-1.274 0-2.303-.407-3.035-1.302-.731-.841-1.083-2.062-1.083-3.609 0-1.6.38-2.821 1.083-3.69.732-.868 1.734-1.302 3.007-1.302 1.247 0 2.222.407 2.926 1.248.705.841 1.084 2.062 1.084 3.663-.054 1.628-.352 2.903-1.03 3.744zm10.349-6.104c-.271-.272-.406-.652-.406-1.14 0-.407.162-.814.568-1.085.407-.271.867-.407 1.545-.407.596 0 1.219.108 1.815.271s1.137.407 1.57.733l.136.108v-3.31l-.081-.027a9.763 9.763 0 00-1.598-.461 10.844 10.844 0 00-1.734-.163c-1.68 0-3.061.407-4.145 1.302-1.084.841-1.598 1.981-1.598 3.31 0 .706.108 1.33.352 1.845a4.112 4.112 0 001.084 1.411c.487.38 1.192.814 2.167 1.221.812.353 1.436.624 1.815.841.38.217.623.461.813.651.135.217.216.489.216.841 0 1.004-.758 1.493-2.302 1.493-.596 0-1.22-.109-1.95-.353a7.532 7.532 0 01-1.978-1.004l-.136-.108v3.445l.081.027c.515.245 1.138.407 1.897.597.758.136 1.435.245 2.031.245 1.815 0 3.305-.407 4.362-1.303 1.084-.868 1.652-1.98 1.652-3.418 0-1.004-.27-1.9-.866-2.578a10.981 10.981 0 00-3.17-1.872c-1.11-.461-1.815-.814-2.14-1.112zm15.468-5.454c-2.465 0-4.442.733-5.824 2.17-1.382 1.439-2.086 3.42-2.086 5.915 0 2.334.704 4.233 2.059 5.617 1.354 1.356 3.197 2.062 5.5 2.062 2.41 0 4.334-.733 5.715-2.198 1.409-1.465 2.086-3.419 2.086-5.833 0-2.388-.65-4.287-1.977-5.67-1.274-1.385-3.143-2.063-5.473-2.063zm2.79 11.558c-.65.841-1.679 1.248-2.952 1.248-1.3 0-2.303-.407-3.034-1.302-.732-.841-1.084-2.062-1.084-3.609 0-1.6.38-2.821 1.084-3.69.731-.868 1.734-1.302 3.007-1.302 1.219 0 2.221.407 2.925 1.248.705.841 1.084 2.062 1.084 3.663 0 1.628-.352 2.903-1.03 3.744zm23.488-8.33v-2.902h-3.549v-4.45l-.108.027-3.36 1.004-.08.027v3.392h-5.31v-1.9c0-.868.216-1.546.596-1.98.379-.434.948-.651 1.652-.651.488 0 1.002.108 1.571.352l.136.082V5.752l-.082-.027c-.487-.163-1.137-.272-1.977-.272a6.336 6.336 0 00-2.817.652 4.702 4.702 0 00-1.924 1.926c-.46.814-.704 1.736-.704 2.795v2.089h-2.465v2.876h2.465v12.155h3.549V15.818h5.31v7.732c0 3.175 1.49 4.776 4.47 4.776.487 0 1.001-.082 1.49-.163.514-.109.893-.244 1.11-.353l.027-.027V24.88l-.136.108a2.288 2.288 0 01-.731.326c-.27.081-.515.108-.704.108-.705 0-1.192-.162-1.544-.57-.326-.38-.488-1.003-.488-1.926v-7.108h3.603zM0 0h16.606v16.632H0M18.34 0h16.606v16.632H18.34M0 18.368h16.606V35H0m18.34-16.632h16.606V35H18.34"/></svg>