<svg xmlns="http://www.w3.org/2000/svg" width="276" height="193"><g fill="none" fill-rule="evenodd"><path fill="#004A86" d="M121.624 95.65v-6.355h-.498c-4.788 0-6.325-1.582-6.325-6.505V54.416c0-1.105 1.968-1.119 2.585.01 4.934 8.34 16.867 28.71 19.261 32.813.174.298 1.019 1.935 2.074.138 2.248-3.831 14.352-24.55 19.371-32.964.707-1.117 2.652-1.117 2.643 0 0 7.635-.01 28.377-.01 28.377 0 5.045-1.422 6.505-6.347 6.505h-.493v6.117c10.751.871 20.931 2.688 30.141 5.321V89.295h-.492c-4.801 0-6.189-1.46-6.189-6.505V43.734c0-5.103 1.33-6.501 6.189-6.501h.492v-9.771h-27.873s-13.94 26.6-17.669 33.63c-.351.661-1.157.669-1.496.019a255298.82 255298.82 0 01-17.535-33.649H91.46l-.008 9.771h.496c4.847 0 6.173 1.398 6.173 6.501V82.79c0 5.045-1.384 6.505-6.173 6.505h-.496l.008 12.148c9.175-2.781 19.385-4.751 30.095-5.785l.069-.008"/><path fill="#F4B827" d="M208.415 111.087c-6.833-4.229-15.12-7.705-24.389-10.354-9.21-2.633-19.39-4.45-30.141-5.321a186.272 186.272 0 00-15.33-.599c-5.751.011-11.439.309-17 .845-10.71 1.034-20.92 3.004-30.095 5.785-9.053 2.742-17.108 6.26-23.612 10.449a.744.744 0 00-.283.897.743.743 0 00.832.443c21.273-4.927 44.919-7.424 70.296-7.424 24.719 0 49.287 2.353 69.18 6.627a.745.745 0 00.849-.474c.13-.287.005-.682-.307-.874m-63.492-96.441c-.071.028-.198.103-.236.312-.004.014-.004.029-.004.044-.042 3.498-5.247 12.217-5.3 12.305l-4.392 8.213c-3.889 6.966-1.599 12.179 2.339 19.339a.263.263 0 00.462-.001l11.372-20.936c3.407-6.54.255-12.058-2.794-17.396l-.968-1.716a.3.3 0 00-.065-.077c-.098-.08-.259-.143-.414-.087z"/><path fill="#FAD284" d="M137.479.026a.268.268 0 00-.233.138l-11.372 20.935c-3.405 6.54-.253 12.059 2.793 17.396l.969 1.714c.016.029.04.058.064.077.099.08.26.146.414.089.074-.028.201-.104.237-.313.004-.015.004-.029.004-.043.042-3.498 5.248-12.218 5.299-12.304.009-.012 4.392-8.215 4.392-8.215 3.888-6.963 1.6-12.178-2.336-19.338a.265.265 0 00-.231-.136z"/><path fill="#004A86" d="M57.027 143.142c0 9.528 3.595 14.564 9.831 14.564 6.291 0 9.83-4.973 9.83-14.564 0-9.589-3.476-14.622-9.83-14.622-6.295 0-9.831 5.033-9.831 14.622zm28.291.06c0 12.226-6.834 19.238-18.46 19.238-11.629 0-18.46-7.012-18.46-19.238 0-12.225 6.831-19.177 18.46-19.177 11.626 0 18.46 6.952 18.46 19.177z"/><path fill="#004A86" d="M99.861 124.864l12.702 27.132s.262.609.85.442c.51-.147.506-.73.506-.73l-.153-18.994c0-3.297-.719-4.676-3.835-4.676h-.72v-3.174c2.579.058 5.095.119 7.673.119 2.634 0 5.213-.061 7.85-.119v3.174h-.719c-3.058 0-3.838 1.379-3.838 4.676v28.885h-10.186l-12.857-25.854s-.242-.514-.772-.385c-.529.127-.562.68-.562.68l.228 17.65c0 3.296.717 4.735 3.833 4.735h.72v3.174c-2.577-.117-5.153-.117-7.73-.117-2.579 0-5.155 0-7.792.117v-3.174h.719c3.058 0 3.896-1.439 3.896-4.735v-20.976c0-3.297-.838-4.676-3.896-4.676h-.719v-3.174h14.802m37.86.119h10.128c1.258 0 5.092-.119 11.506-.119v11.086H155.4v-.96c0-4.733-1.319-5.693-5.753-5.693h-2.639v24.393c0 3.296.78 4.735 3.836 4.735h1.259v3.174c-3.056-.117-6.114-.117-9.11-.117-3.055 0-6.113 0-9.169.117v-3.174h1.26c3.055 0 3.835-1.439 3.835-4.735v-24.393h-3.237c-4.018 0-5.396 1.08-5.396 5.095 0 .481 0 .96.061 1.558h-3.775v-11.086c6.232 0 9.949.119 11.149.119m32.373 20.359l4.95-14.045s.146-.458.656-.458c.511 0 .659.454.659.454l4.593 14.105-10.858-.056zm57.732-20.359c-2.576 0-5.095-.061-7.671-.119v3.174h.72c3.115 0 3.837 1.379 3.837 4.676l.152 18.994s.005.583-.508.73c-.587.167-.848-.442-.848-.442l-12.703-27.132h-14.802v3.174h.72c3.054 0 3.893 1.379 3.893 4.676v20.976c0 3.296-.839 4.735-3.893 4.735h-.009c-2.878-.299-3.716-2.399-5.034-5.814l-10.607-27.747h-9.829l-11.09 27.927c-1.439 3.655-2.635 5.515-5.034 5.634v3.174c2.518-.117 5.095-.117 7.792-.117 2.696 0 5.452 0 8.272.117v-3.174c-3.179-.18-4.375-.481-4.375-2.637 0-.659.179-1.318.418-2.039l1.205-3.796 14.013.004 1.142 3.014c.42 1.319.601 2.217.601 2.756 0 1.979-1.319 2.579-4.553 2.698v3.174c1.31-.054 9.969-.167 15.443-.167 5.736 0 15.693.134 16.446.167v-3.174h-.719c-3.114 0-3.833-1.439-3.833-4.735l-.103-17.65s.031-.553.561-.68c.529-.127.771.385.771.385l12.735 25.854h10.186v-28.885c0-3.297.78-4.676 3.835-4.676h.722v-3.174c-2.64.058-5.216.119-7.853.119zm25.514 6.314l-5.036 14.101h10.915l-4.564-14.105s-.148-.454-.661-.454c-.51 0-.654.458-.654.458zm6.027-6.433l10.607 27.747c1.317 3.415 2.158 5.515 5.036 5.814v3.174c-2.82-.117-5.695-.117-8.514-.117-2.873 0-5.692 0-8.568.117v-3.174c3.235-.119 4.554-.719 4.554-2.698 0-.539-.179-1.437-.599-2.756l-1.015-3.047-14.087-.006-1.259 3.831c-.238.721-.418 1.38-.418 2.039 0 2.156 1.197 2.457 4.375 2.637v3.174c-2.819-.117-5.576-.117-8.273-.117-2.698 0-5.272 0-7.79.117v-3.174c2.398-.119 3.595-1.979 5.033-5.634l11.089-27.927h9.829zM24.384 155.909c-.522 0-.876-.696-.876-.696l-9.98-18.287s-.485-.907-.968-.907c-.619 0-.615.88-.615.88v16.814c0 3.296.781 4.735 3.838 4.735h.719v3.177c-2.459-.12-5.036-.12-7.67-.12-2.579 0-5.275 0-8.033.12v-3.177h.719c3.116 0 3.775-1.439 3.836-4.735l.359-20.978v-.299c0-3.057-.899-4.377-3.894-4.377H1.1v-3.174c2.696.06 5.394.119 8.15.119 2.695 0 4.226-.059 6.924-.119l7.579 16.971s.148.428.65.428c.5 0 .632-.422.632-.422l8.15-17.003c2.337.062 3.688.12 6.324.12 2.639 0 5.393-.058 8.331-.12v3.175h-.78c-2.997 0-3.835 1.259-3.835 4.317v.36l.359 20.977c.059 3.296.659 4.735 3.836 4.735h.719v3.176c-2.756-.121-5.454-.121-8.091-.121-2.637 0-5.214 0-7.79.121v-3.176h.778c3.058 0 3.837-1.439 3.837-4.735V136.74s.069-.893-.604-.893c-.491 0-.949.895-.949.895l-10.053 18.444s-.347.723-.883.723m17.03 20.238l-2.579 7.218h5.611l-2.321-7.223s-.08-.246-.358-.246c-.276 0-.353.251-.353.251zm3.262-3.485l5.741 15.02c.715 1.849 1.166 2.984 2.725 3.145v1.721c-1.525-.066-3.081-.066-4.607-.066-1.557 0-3.083 0-4.639.066v-1.721c1.752-.063 2.466-.386 2.466-1.457 0-.293-.098-.779-.326-1.491l-.711-2.111h-7.299l-.845 2.529c-.13.391-.226.747-.226 1.102 0 1.171.644 1.332 2.37 1.428v1.721c-1.529-.066-3.018-.066-4.48-.066-1.46 0-2.855 0-4.005.066v-1.721c1.088-.063 1.734-1.069 2.514-3.049l6-15.116h5.322zm-30.069 5.824H12.37c.031-.228.031-.451.031-.646 0-2.457-1.476-3.555-4.159-3.555-2.328 0-3.784 1.194-3.784 2.909 0 1.387.778 2.165 2.491 2.844l4.103 1.648c2.811 1.13 4.202 2.842 4.202 5.235 0 3.75-2.813 5.914-8.047 5.914-2.294 0-4.685-.288-7.111-.837v-5.592h2.361c0 .159-.033.325-.033.45 0 2.553 1.552 3.848 4.556 3.848 2.424 0 3.748-1.067 3.748-3.008 0-1.386-.677-2.099-2.26-2.776l-3.783-1.619C1.552 181.943 0 180.492 0 177.903c0-3.555 2.779-5.784 7.853-5.784 2.068 0 4.331.326 6.754.907v5.46m211.115.341h-2.192c.032-.223.032-.443.032-.637 0-2.42-1.448-3.503-4.076-3.503-2.277 0-3.7 1.177-3.7 2.865 0 1.368.76 2.135 2.439 2.804l4.013 1.625c2.754 1.113 4.116 2.8 4.116 5.159 0 3.696-2.754 5.831-7.878 5.831-2.25 0-4.59-.284-6.962-.828v-5.511h2.311c0 .157-.034.32-.034.443 0 2.52 1.519 3.794 4.459 3.794 2.376 0 3.672-1.052 3.672-2.966 0-1.363-.662-2.07-2.212-2.735l-3.702-1.596c-3.07-1.336-4.59-2.766-4.59-5.319 0-3.503 2.721-5.702 7.687-5.702 2.027 0 4.242.321 6.617.893v5.383m-203.975-5.92h5.434c.673 0 2.731-.065 6.171-.065v5.632h-2.123v-.198c0-2.542-.705-3.054-3.085-3.054h-1.416v13.085c0 1.767.419 2.541 2.059 2.541h.466v1.702c-1.431-.065-3.07-.065-4.678-.065-1.64 0-3.28 0-4.919.065v-1.702h.675c1.64 0 2.058-.774 2.058-2.541v-13.085h-1.736c-2.155 0-2.894.581-2.894 2.736 0 .253 0 .512.033.516h-2.026v-5.632c3.344 0 5.337.065 5.981.065m34.835 0h5.433c.673 0 2.729-.065 6.171-.065v5.662h-2.122v-.228c0-2.542-.707-3.054-3.085-3.054h-1.416v13.085c0 1.767.416 2.541 2.056 2.541h.675v1.702c-1.637-.065-3.276-.065-4.885-.065-1.64 0-2.909 0-4.55.065v-1.702h.307c1.64 0 2.06-.774 2.06-2.541v-13.085h-1.738c-2.156 0-2.894.581-2.894 2.736 0 .253 0 .512.031.546h-2.024v-5.662c3.342 0 5.337.065 5.981.065m28.565 0v5.433h-1.832v-.87c0-1.863-1.063-2.248-3.442-2.248H75.92v6.14h1.123c2.122 0 2.668-.382 2.702-2.57h1.738v7.135h-1.738c-.096-2.12-.58-2.507-2.572-2.507H75.92v6.817h3.599c3.216 0 3.923-.42 3.986-3.858h1.801v6.171H69.167v-1.702h.387c1.736 0 2.058-.839 2.058-2.541v-11.253c0-1.765-.421-2.506-2.058-2.506h-.387v-1.641h15.98m15.622 0c1.447 0 2.892-.029 4.274-.065v1.706h-.384c-1.77 0-2.092.643-2.092 2.506v8.652c0 3.084.996 4.531 4.02 4.531 2.923 0 4.144-1.48 4.144-4.598v-8.585c0-1.765-.414-2.506-2.055-2.506h-.385v-1.706c1.38.036 2.7.065 4.02.065 1.348 0 2.637-.029 3.923-.065v1.706h-.485c-1.157 0-1.606.802-1.606 2.506v8.298c0 5.27-2.219 7.648-7.876 7.648-5.306 0-7.912-2.282-7.912-6.847v-9.099c0-1.671-.286-2.506-1.574-2.506h-.383v-1.706c1.476.036 2.955.065 4.371.065m44.677 0c1.514 0 3.055-.029 4.597-.065v1.706h-.419c-1.635 0-2.056.741-2.056 2.506v11.253c0 1.767.421 2.541 2.056 2.541h.419v1.702c-1.542-.065-3.083-.065-4.597-.065-1.544 0-3.087 0-4.628.065v-1.702h.385c1.639 0 2.06-.774 2.06-2.541v-11.253c0-1.765-.421-2.506-2.06-2.506h-.385v-1.706c1.541.036 3.084.065 4.628.065m26.135-.048v-.065a126.19 126.19 0 01-3.731.065 199.1 199.1 0 01-4.312-.065v1.705c1.578 0 2.318.321 2.318 1.158 0 .224-.033.513-.128.834l-3.8 11.456s-.11.249-.348.249c-.24 0-.368-.253-.368-.253l-3.974-11.514c-.127-.354-.194-.642-.194-.87 0-.897.678-.996 2.319-1.06v-1.705c-1.771.034-3.377.065-4.759.065-1.384 0-2.573-.031-3.57-.065v1.705c1.096.096 1.541.773 2.058 2.185l5.978 16.136h4.662l5.789-16.266c.414-1.221.901-1.832 2.06-2.055v-1.64m26.564 8.892h1.478c2.798 0 4.084-.838 4.084-3.187 0-2.44-1.219-3.342-3.923-3.342h-1.639v6.529zm1.416-8.909c5.623 0 8.259 1.416 8.259 5.308 0 2.409-1.218 3.986-3.473 4.532 1.832.257 2.284 1.188 2.83 3.212.516 1.997.742 3.44 1.321 4.115.337.406.77.655 1.303.766l-.002 1.775h-5c-1.193-2.733-1.284-5.205-1.899-6.911-.448-1.286-1.443-1.799-3.212-1.799h-1.543v4.467c0 1.767.418 2.541 2.055 2.541h.42v1.702c-1.541-.065-3.087-.065-4.599-.065-1.541 0-3.086 0-4.627.065v-1.702h.384c1.64 0 2.06-.774 2.06-2.541v-11.253c0-1.765-.42-2.506-2.06-2.506h-.384v-1.706h8.167zm33.062.065c1.506 0 3.054-.029 4.597-.065v1.706h-.42c-1.638 0-2.056.741-2.056 2.506v11.253c0 1.767.418 2.541 2.056 2.541h.42v1.702c-1.543-.065-3.091-.065-4.597-.065-1.547 0-3.091 0-4.63.065v-1.702h.383c1.64 0 2.06-.774 2.06-2.541v-11.253c0-1.765-.42-2.506-2.06-2.506h-.383v-1.706c1.539.036 3.083.065 4.63.065m11.766 0h5.431c.678 0 2.736-.065 6.176-.065v5.609h-2.119c-.004.149-.004-.015-.004-.175 0-2.542-.709-3.054-3.085-3.054h-1.416v13.085c0 1.767.419 2.541 2.059 2.541h.673v1.702c-1.64-.065-3.28-.065-4.885-.065-1.64 0-3.278 0-4.921.065v-1.702h.676c1.641 0 2.057-.774 2.057-2.541v-13.085h-1.734c-2.153 0-2.894.581-2.894 2.736 0 .253 0 .512.034.493h-2.025v-5.609c3.34 0 5.335.065 5.977.065m16.157 0c1.383 0 2.83-.029 4.272-.065v1.706h-.158c-1.029 0-1.478.29-1.478.931 0 .324.158.709.386 1.159l2.157 4.37s.141.246.355.246c.217 0 .356-.237.356-.237l2.145-4.22c.226-.448.354-.901.354-1.219 0-.74-.482-1.03-1.576-1.03v-1.706c1.385.036 2.703.065 4.02.065 1.286 0 2.57-.029 3.825-.065v1.706h-.128c-1.03 0-1.637.741-2.507 2.153l-4.791 7.844v3.986c0 1.706.322 2.317 2.188 2.317h.449v1.702c-1.512-.065-3.056-.065-4.628-.065-1.543 0-3.122 0-4.695.065v-1.702h.45c1.834 0 2.187-.611 2.187-2.317v-4.051l-4.504-7.811c-.768-1.319-1.414-2.056-2.73-2.121v-1.706c1.316.036 2.669.065 4.051.065m-135.036-.029l6.876 14.683s.142.332.462.24c.274-.079.272-.393.272-.393l-.084-10.283c0-1.784-.387-2.528-2.074-2.528h-.392v-1.719c1.396.029 2.759.065 4.156.065 1.426 0 2.821-.036 4.248-.065v1.719h-.39c-1.653 0-2.074.744-2.074 2.528v15.637h-5.517l-6.893-14.664s-.132-.279-.416-.21c-.287.072-.303.368-.303.368l.054 10.225c0 1.784.389 2.562 2.075 2.562h.391v1.719c-1.395-.065-2.792-.065-4.185-.065-1.397 0-2.791 0-4.217.065v-1.719h.389c1.655 0 2.109-.778 2.109-2.562v-11.356c0-1.784-.454-2.528-2.109-2.528h-.389v-1.719h8.011m62.974.029v5.433h-1.832v-.87c0-1.863-1.062-2.248-3.442-2.248h-3.954v6.14h1.125c2.123 0 2.669-.382 2.7-2.57h1.739v7.135h-1.739c-.097-2.12-.577-2.507-2.572-2.507h-1.253v6.817h3.601c3.216 0 3.921-.42 3.986-3.858h1.801v6.171h-16.139v-1.702h.385c1.738 0 2.057-.839 2.057-2.541v-11.253c0-1.765-.418-2.506-2.057-2.506h-.385v-1.641h15.979"/></g></svg>