<svg xmlns="http://www.w3.org/2000/svg" width="461.5" height="71.7" viewBox="0 0 461.5 71.7"><path fill="#DD2526" d="M49.3 0c-5.9-.1-10.1 2.7-12.7 7.8-1.4 2.7-2.7 5.4-4 8-.2.4-.4.8-.7 1.3-.3-.5-.5-.9-.7-1.2-1.3-2.7-2.6-5.4-4-8-2.7-5.2-6.9-8-12.8-7.9H0v71.6h9.7V9.8c1.5.1 2.9 0 4.3.3 3 .6 4.7 2.7 5.9 5.3l11.4 25.2c.2.4.4.8.6 1.3.3-.6.5-1.1.7-1.5L44 15.2c2-4.4 5.2-6 10.1-5.2v61.5h9.7V-.1S53.7 0 49.3 0zM284 15c-1.4-7.1-5.5-11.9-12.6-13.8-2.4-.7-5-1-7.5-1.1-3.9-.2-7.8-.1-11.7 0-2.3.1-4.7.3-6.9.8-6.3 1.3-10.7 4.9-13 11-1 2.7-1.5 5.5-1.6 8.3-.1 5.2 0 10.5 0 15.7V49c0 2.8.2 5.5.8 8.2 1.6 6.9 5.7 11.6 12.6 13.4 2.5.7 5.1 1 7.6 1.1 3.9.2 7.8.1 11.7 0 2.3-.1 4.6-.3 6.8-.8 7.2-1.6 11.8-6.1 13.7-13.3.7-2.8.9-5.7 1-8.7 0-8.7.1-17.4 0-26.1-.2-2.6-.4-5.3-.9-7.8zm-9.1 35.3c0 1.6-.3 3.2-.8 4.8-1.2 3.7-4 5.6-7.7 6.4-.9.2-1.8.3-2.7.3h-12.2c-.9 0-1.9-.1-2.8-.4-4.7-1.1-7.6-4.4-8-9.3-.1-1.3-.2-2.7-.2-4V23c0-1.6.1-3.2.4-4.7.8-4.4 3.7-7.2 8.1-8.1.9-.2 1.9-.3 2.8-.3h12.1c1 0 2.1.2 3.1.4 4.4 1 6.9 4 7.6 8.4.2 1.3.3 2.6.3 3.9v13.2c0 4.9.1 9.7 0 14.5zM399.3 15.1c-1.4-7.1-5.5-12-12.7-14-2.4-.7-5-1-7.5-1.1-3.9-.2-7.8-.1-11.7 0-2.3.1-4.7.3-6.9.8-6.1 1.3-10.6 4.8-12.9 10.8-1 2.6-1.6 5.4-1.6 8.2-.1 5.4 0 10.7 0 16.1h-.1v13.5c0 2.7.2 5.3.8 7.9 1.6 6.8 5.7 11.3 12.5 13.3 2.5.7 5.1 1.1 7.8 1.1 3.9 0 7.8.1 11.7 0 2.3-.1 4.6-.3 6.8-.8 7.1-1.6 11.7-5.9 13.6-13 .8-2.8 1-5.7 1-8.7 0-9 .1-17.9 0-26.9-.1-2.3-.4-4.8-.8-7.2zm-9.2 34.6c0 1.4-.2 2.7-.5 4.1-.9 4.3-3.7 6.7-7.9 7.6-.9.2-1.9.3-2.8.3h-12.2c-.9 0-1.9-.2-2.8-.4-4.7-1.1-7.5-4.4-8-9.2-.1-1.4-.2-2.7-.2-4.1V22.5c0-1.5.2-3 .4-4.5.9-4.3 3.8-7.1 8.1-7.9.9-.2 1.9-.3 2.8-.3h12.1c1 0 2.1.2 3.1.4 4.4 1.1 7 4.1 7.6 8.5.2 1.2.2 2.4.3 3.6v13.4c.1 4.8.1 9.4 0 14z"/><path fill="#DD2526" d="M47.9 14.8c-5.1 11-10.2 22-15.3 33.1-.2.4-.4.9-.7 1.5l-.7-1.4-11.4-24.6c-1.4-3.1-2.8-6.1-4.3-9.2-.7-1.5-1.8-2-3.3-1.7v59H22V50.1h.3c3.1 7.1 6.3 14.1 9.4 21.2h.3c3.1-7.1 6.3-14.1 9.4-21.2.1 0 .2.1.3.1v21.3h9.8V12.3c-1.8 0-2.9.9-3.6 2.5zM338 35c2.8-5 3.4-10.5 2.4-16.1-1.1-6.1-4.4-10.8-9.2-14.5-3.8-3-8.1-4.5-13-4.4h-25.7v9.9h25.6c.9 0 1.8 0 2.6.2 6.9 1.6 11.6 9.4 10.1 16.6-.8 3.5-2.7 6.2-5.5 8.3l-1.2.9c.5.4 1 .7 1.4 1.1 4.6 3.8 6.4 8.6 5.2 14.4-1 4.8-6.7 10.7-12.9 10.4-7.9-.3-15.8-.1-23.7-.1-.5 0-1 0-1.5.1v9.7c.4 0 .7.1.9.1h26c1.4 0 2.9-.2 4.3-.6 14-4.2 21.6-20.2 14.3-34.1-.4-.7-.5-1.1-.1-1.9zM102.8 34.6c1.2 0 2.6-.2 3.6-.7 3.9-2 6.3-5.1 6.8-9.6.6-6.4-5.4-12.2-11.1-12-10.5.3-33.1.1-33.1.1v9.9h33.1c.7 0 1.3.6 1.3 1.3s-.6 1.3-1.3 1.3H69v46.8h9.8v-37c.6-.1 16.5-.1 24-.1z"/><path fill="#DD2526" d="M124 32.6c1.5-4.3 1.9-8.7 1.1-13.2-1-6-4.1-10.7-8.7-14.6-4-3.3-8.5-5-13.8-4.9-10.7.2-33.7.1-33.7.1v9.9h33.8c.9 0 1.8 0 2.6.2 7.5 1.7 12.2 10.3 9.7 17.7-1.9 5.6-7 9.2-12.8 9.3h-3.7s11.5 23.2 17.2 34.5h9.8c-4.5-9-8.9-17.8-13.3-26.7 3.2-1.8 5.8-4.1 8.2-6.6 1.6-1.6 2.9-3.5 3.6-5.7zM405 22.2h17.2v49.4h9.7V12.4h-27c.1 3.3.1 6.5.1 9.8zM434.6 12.4v59.2h9.7V22.1h17.1v-9.8c-8.9.1-17.8.1-26.8.1zM318.5 34.6c1.4 0 2.7-.4 3.9-1 4.6-2.5 6.8-7.1 5.9-12.3-.6-4-5.2-9.2-10.7-9-7.9.2-15.8.1-23.7.1-.5 0-1 .1-1.5.1v22.1c.5 0 .8.1 1.1.1 8.4-.1 16.7-.1 25-.1zm-18.2-10v-2.5h17.1c.7 0 1.3.6 1.3 1.3 0 .7-.6 1.3-1.3 1.3h-8.8l-8.3-.1zM318.5 59.4c1.4 0 2.7-.4 3.9-1.1 4.6-2.6 6.8-7.3 5.9-12.4-.7-4.3-5.5-9-10.5-8.9-7.9.2-15.9.1-23.9.1-.5 0-1 .1-1.4.1v22.1c.4 0 .6.1.9.1h25.1zm-18.2-12.5h17.1c.7 0 1.3.6 1.3 1.3 0 .7-.6 1.3-1.3 1.3h-17.2v-2.6z"/><path fill="#DD2526" d="M96.3 37.8c-.3-.6-.7-.8-1.3-.7H81.3v34.5h9.9V47.7c.4.4 12.2 24 12.2 24h9.7S101.8 49 96.3 37.8zM461.5.1H405v9.7h56.5V.1zM129 71.6h11.2V60.4H129v11.2zM272.3 20.1c-.4-4.2-3.1-7.3-7.3-7.5-4.9-.3-9.7-.2-14.6 0-3.8.2-6.4 2.7-7.1 6.4-.2 1.1-.3 2.3-.3 3.5v27.8c.2 5.4 2.9 8.5 8.3 8.8 4.4.3 8.8.2 13.2 0 4.7-.2 7.7-3.2 7.8-7.9v-1.8-.3c.1-4.4 0-8.8 0-13.2h.1V23.2c0-1 0-2.1-.1-3.1zm-9.7 26.4c0 2.2-.7 2.9-2.9 2.9h-4.2c-1.9 0-2.7-.7-2.7-2.6V24.7c0-1.8.8-2.5 2.6-2.6h4.5c2 0 2.7.8 2.7 2.7v21.7zM387.5 20.4c-.3-4.4-3.1-7.6-7.4-7.8-4.8-.2-9.7-.2-14.5 0-3.8.2-6.3 2.6-7.1 6.3-.3 1.2-.3 2.4-.3 3.6v28.4c.3 4.9 3.1 8.1 7.6 8.4 4.6.2 9.2.3 13.8 0 5-.3 7.8-3.3 8-8.3v-.9-.7-4-9.3h.1c0-6.9 0-13.8-.1-15.3 0-.3 0-.4-.1-.4zm-9.6 26.1c0 2.3-.7 3-3 3h-4.4c-1.8 0-2.5-.7-2.5-2.5V35.9 25.3c0-2.4.6-3 3-3h3.7c2.4 0 3.1.7 3.1 3v15.2c.1 2 .1 4 .1 6zM202.9 34.6c1.2 0 2.6-.2 3.6-.7 3.9-2 6.3-5.1 6.8-9.6.6-6.4-5.4-12.2-11.1-12-10.5.3-33.1.1-33.1.1v9.9h33.1c.7 0 1.3.6 1.3 1.3s-.6 1.3-1.3 1.3h-33.1v46.8h9.8v-37c.6-.1 16.5-.1 24-.1z"/><path fill="#DD2526" d="M224.1 32.6c1.5-4.3 1.9-8.7 1.1-13.2-1-6-4.1-10.7-8.7-14.6-4-3.3-8.5-5-13.8-4.9C192 0 169-.1 169-.1v9.9h33.8c.9 0 1.8 0 2.6.2 7.5 1.7 12.2 10.3 9.7 17.7-1.9 5.6-7 9.2-12.8 9.3h-3.7s11.5 23.2 17.2 34.5h9.8c-4.5-9-8.9-17.8-13.3-26.7 3.2-1.8 5.8-4.1 8.2-6.6 1.6-1.5 2.9-3.4 3.6-5.6z"/><path fill="#DD2526" d="M196.5 37.8c-.3-.6-.7-.8-1.4-.8h-13.7v34.5h9.9V47.6c.4.4 12.2 24 12.2 24h9.7c0 .1-11.2-22.6-16.7-33.8z"/></svg>