<svg xmlns="http://www.w3.org/2000/svg" width="200" height="200" viewBox="0 0 200 200">
  <g fill="none">
    <path fill="#1D57A5" d="M121.357,3.55271368e-15 C118.951,11.855 118.377,23.986 118.105,36.055 L118.105,89.847 C120.591,92.432 123.241,94.849 125.785,97.377 C125.785,77.309 125.791,57.248 125.785,37.186 C134.816,37.175 143.853,37.18 152.885,37.18 L152.885,134.272 C143.059,134.284 133.234,134.254 123.409,134.284 C120.441,131.664 117.727,128.76 114.668,126.25 C112.772,128.853 110.216,131.275 109.712,134.604 C109.428,136.591 111.335,138.064 113.15,138.214 C121.572,139.025 130.041,139.443 138.44,140.55 C140.533,140.759 141.872,142.556 142.66,144.341 C144.851,144.898 147.338,145.524 148.647,147.547 C149.841,149.39 149.373,151.686 149.03,153.708 C145.089,151.68 140.387,152.317 136.493,154.114 C131.31,156.49 126.447,159.597 120.964,161.296 C114.93,163.336 108.42,163.522 102.148,162.647 C91.755,161.221 81.762,157.922 71.694,155.118 C69.445,154.422 67.057,154.19 64.732,154.613 C59.063,155.558 53.614,157.454 48.235,159.424 C49.678,157.645 51.162,155.906 52.611,154.131 C48.994,154.288 45.377,153.876 41.893,152.886 C44.322,151.245 46.855,149.761 49.342,148.219 C43.656,147.715 38.392,144.921 34.248,141.078 C48.23,139.298 62.361,139.466 76.412,139.919 C72.876,137.408 70.569,133.507 69.74,129.281 C71.734,129.543 73.728,129.849 75.728,130.104 L75.885,130.789 L76.152,130.099 C71.538,126.424 68.39,120.668 68.193,114.733 C70.837,115.851 73.363,117.214 75.937,118.483 C71.439,113.91 69.19,107.406 69.694,101.036 C71.595,102.577 73.445,104.183 75.311,105.777 C71.879,100.641 70.929,94.277 71.619,88.225 C73.161,89.547 74.708,90.862 76.204,92.242 C75.526,90.822 74.923,89.373 74.373,87.906 C70.101,83.883 65.864,79.832 61.58,75.82 C61.603,95.302 61.586,114.79 61.592,134.272 L34.493,134.272 C34.488,101.904 34.493,69.542 34.493,37.18 C44.324,37.186 54.161,37.168 63.992,37.192 C69.487,42.507 74.924,47.875 80.431,53.173 C80.222,47.064 81.034,40.774 83.741,35.233 C85.312,32.05 87.978,29.251 91.503,28.329 C92.668,23.599 94.354,18.735 97.885,15.223 C100.107,12.968 103.121,11.652 106.24,11.217 C109.003,5.322 114.453,-0.04 121.357,3.55271368e-15 Z M118.441,2.835 C115.56,3.235 113.183,5.09 111.473,7.351 C108.297,11.593 106.738,16.781 105.614,21.894 C103.661,31.296 103.441,40.936 103.441,50.5 C100.629,38.403 101.881,25.633 105.794,13.93 C103.858,14.451 101.876,15.089 100.362,16.48 C96.148,20.05 94.513,25.632 93.563,30.878 C91.818,41.683 92.965,52.703 94.89,63.397 C90.439,53.271 89.917,41.857 91.337,31.012 C89.058,32.194 87.053,33.933 85.841,36.223 C83.158,41.086 82.891,46.83 83.059,52.262 C83.587,62.174 86.207,71.936 90.45,80.897 C84.479,74.097 82.253,64.921 81.14,56.151 C78.816,58.214 78.103,61.478 77.842,64.44 C77.408,73.042 80.654,81.291 84.543,88.797 C80.544,85.384 78.353,80.457 76.822,75.541 C75.611,78.057 75.588,80.92 76.017,83.621 C76.875,89.012 78.973,94.182 81.924,98.762 C79.217,96.964 76.614,94.999 73.768,93.417 C73.78,95.197 74.035,96.976 74.614,98.663 C76.156,103.37 78.405,107.832 81.13,111.972 C78.296,110.064 75.397,108.267 72.476,106.499 C73.711,113.072 78.151,118.348 82.678,123.002 C78.922,121.756 75.218,120.348 71.45,119.13 C73.223,125.159 77.924,129.877 82.892,133.482 C79.553,133.03 76.238,132.434 72.893,132.051 C75.066,137.285 80.121,140.571 85.21,142.577 C70.249,141.794 55.225,141.563 40.287,142.792 C44.668,145.47 49.833,146.578 54.917,146.809 C52.511,148.478 50.054,150.072 47.677,151.782 C51.167,151.904 54.668,151.795 58.128,151.244 C56.748,152.67 55.398,154.119 54.082,155.608 C58.244,153.922 62.55,152.356 67.072,152.078 C69.668,151.894 72.172,152.739 74.642,153.423 C81.946,155.557 89.203,157.899 96.663,159.423 C102.703,160.6 108.97,161.556 115.079,160.379 C117.758,158.177 119.885,155.365 122.464,153.041 C120.105,152.259 117.74,151.517 115.363,150.797 C117.38,149.163 119.304,147.412 121.269,145.708 C117.82,143.789 114.325,141.975 110.876,140.068 C108.708,138.88 106.645,136.596 107.3,133.924 C108.158,130.058 110.946,127.037 113.357,124.04 C115.322,121.647 115.798,118.43 115.792,115.427 C115.775,93.788 115.792,72.156 115.786,50.517 C115.775,34.594 116.03,18.607 118.441,2.835 Z M116.853,140.938 C119.513,142.415 122.214,143.836 124.881,145.314 C123.107,146.845 121.334,148.37 119.606,149.94 C121.75,150.682 123.89,151.441 126.046,152.143 C123.843,154.641 121.57,157.069 119.246,159.458 C124.625,157.933 129.419,155.005 134.41,152.583 C138.468,150.619 143.255,149.302 147.667,150.896 C147.336,149.615 146.965,148.173 145.679,147.523 C142.392,145.708 138.486,146.543 134.99,147.175 C135.054,146.578 135.124,145.975 135.193,145.378 C137.117,145.482 139.024,145.748 140.931,146.021 C140.341,144.647 139.691,142.734 137.865,142.752 C130.886,141.923 123.873,141.256 116.853,140.938 Z"/>
    <path fill="#221F1F" d="M3.55271368e-15,172.964 L7.101,172.964 C10.77,178.848 14.457,184.713 18.115,190.603 C18.109,184.731 18.132,178.859 18.103,172.987 C20.085,172.953 22.068,172.959 24.056,172.965 L24.056,199.484 L17.14,199.484 C13.361,193.398 9.587,187.306 5.791,181.231 C5.802,187.317 5.791,193.398 5.796,199.484 L0,199.484 L0,172.964 L3.55271368e-15,172.964 Z M63.681,173.48 C65.658,172.337 68.649,173.903 68.411,176.297 C68.365,178.621 65.414,179.931 63.536,178.708 C61.478,177.705 61.571,174.372 63.681,173.48 L63.681,173.48 Z M142.647,173.654 C144.613,172.205 147.934,173.787 147.672,176.314 C147.62,178.581 144.769,179.885 142.902,178.766 C140.897,177.897 140.746,174.726 142.647,173.654 Z M49.125,175.427 L54.487,175.427 L54.487,181.224 C56.081,181.218 57.676,181.224 59.269,181.224 L59.269,185.716 C57.675,185.71 56.081,185.716 54.487,185.716 C54.586,188.481 54.273,191.28 54.638,194.029 C55.114,196.156 57.791,195.159 59.293,195.084 C59.27,196.505 59.264,197.931 59.27,199.361 C56.099,200.208 51.329,200.753 49.723,197.107 C48.72,193.408 49.271,189.502 49.126,185.716 C47.967,185.71 46.808,185.716 45.648,185.716 L45.648,181.224 L49.126,181.224 L49.125,175.427 L49.125,175.427 Z M98.668,182.841 C100.905,180.981 104.082,180.14 106.858,181.235 C108.998,182.123 110.22,184.418 110.296,186.667 C110.574,190.928 110.354,195.211 110.424,199.483 L104.917,199.483 C104.87,195.832 105.004,192.179 104.865,188.534 C104.887,186.98 103.491,185.375 101.85,185.734 C100.199,185.839 98.999,187.444 98.934,189.026 C98.685,192.505 98.894,195.994 98.83,199.483 C97.034,199.489 95.231,199.495 93.428,199.437 C93.516,193.368 93.446,187.292 93.469,181.224 L98.686,181.224 L98.668,182.841 L98.668,182.841 Z M134.492,181.235 C136.382,181.218 138.276,181.224 140.173,181.218 C138.213,187.305 136.313,193.414 134.307,199.483 L129.327,199.483 C128.221,195.791 127.072,192.116 125.941,188.435 C124.835,192.092 123.913,195.802 122.876,199.483 L117.496,199.483 C115.549,193.397 113.584,187.316 111.653,181.224 L117.553,181.224 C118.533,184.835 119.379,188.481 120.447,192.069 C121.391,188.465 122.25,184.836 123.188,181.224 C125.043,181.224 126.904,181.224 128.758,181.218 C129.732,184.881 130.654,188.557 131.639,192.22 C132.573,188.55 133.535,184.893 134.492,181.235 L134.492,181.235 Z M141.726,181.224 C143.557,181.218 145.395,181.218 147.232,181.23 L147.232,199.483 L141.726,199.483 L141.726,181.224 Z M62.458,181.224 L67.965,181.224 L67.965,199.483 L62.458,199.483 L62.458,181.224 L62.458,181.224 Z M191.455,192.092 C191.611,188.968 191.015,185.589 188.753,183.27 C185.867,180.349 181.056,180.128 177.462,181.763 C171.631,184.667 170.918,193.906 176.013,197.848 C180.459,201.24 187.588,200.608 190.951,195.952 C189.82,195.106 188.69,194.266 187.555,193.437 C186.39,194.375 185.19,195.5 183.602,195.552 C181.178,195.842 178.751,194.462 177.88,192.156 C182.4,192.017 186.927,192.127 191.455,192.092 L191.455,192.092 Z M177.995,188.307 C178.558,186.081 180.811,184.499 183.107,185.114 C184.748,185.299 185.466,186.923 185.924,188.302 C183.281,188.342 180.637,188.336 177.995,188.307 L177.995,188.307 Z M89.139,185.003 C86.664,181.119 81.401,179.919 77.18,181.299 C71.645,182.875 69.193,189.872 71.778,194.828 C74.699,201.007 84.281,201.697 88.536,196.59 C91.139,193.379 91.365,188.47 89.139,185.003 L89.139,185.003 Z M79.291,194.985 C75.117,193.774 75.21,186.83 79.407,185.705 C82.282,184.737 85.348,187.23 85.232,190.191 C85.586,193.304 82.305,196.15 79.291,194.985 Z M164.333,172.964 C164.344,176.146 164.304,179.334 164.361,182.517 C161.318,180.262 156.831,180.111 153.759,182.383 C149.034,185.872 148.785,193.675 152.918,197.715 C156.142,200.706 161.555,200.712 164.853,197.808 C164.818,198.225 164.754,199.054 164.725,199.472 C166.429,199.483 168.133,199.483 169.837,199.483 L169.837,172.964 L164.333,172.964 L164.333,172.964 Z M158.524,194.985 C154.541,193.768 154.449,187.282 158.31,185.821 C161.225,184.563 164.674,187.073 164.5,190.203 C164.912,193.356 161.521,196.179 158.524,194.985 L158.524,194.985 Z"/>
    <path fill="#000" d="M195.347,172.844 C192.991,172.844 191.079,174.755 191.078,177.113 C191.079,179.47 192.99,181.383 195.347,181.383 C197.705,181.383 199.616,179.471 199.616,177.113 C199.616,174.755 197.706,172.844 195.347,172.844 Z M195.347,180.69 C193.372,180.686 191.774,179.088 191.771,177.113 C191.774,175.139 193.373,173.541 195.347,173.537 C197.323,173.541 198.92,175.14 198.924,177.113 C198.921,179.088 197.323,180.686 195.347,180.69 Z M196.526,177.633 C196.399,177.496 196.239,177.373 196.044,177.259 C196.436,177.202 196.73,177.066 196.927,176.847 C197.123,176.628 197.222,176.353 197.222,176.018 C197.222,175.755 197.158,175.521 197.027,175.317 C196.898,175.112 196.724,174.969 196.509,174.889 C196.293,174.809 195.946,174.769 195.471,174.769 L193.575,174.769 L193.575,179.228 L194.475,179.228 L194.475,177.366 L194.658,177.366 C194.865,177.366 195.015,177.383 195.111,177.416 C195.207,177.45 195.297,177.512 195.382,177.603 C195.467,177.693 195.625,177.912 195.858,178.257 L196.508,179.229 L197.584,179.229 L197.039,178.359 C196.824,178.011 196.653,177.769 196.526,177.633 L196.526,177.633 Z M195.14,176.655 L194.474,176.655 L194.474,175.524 L195.177,175.524 C195.541,175.524 195.761,175.528 195.834,175.539 C195.98,175.563 196.092,175.621 196.173,175.714 C196.253,175.807 196.292,175.927 196.292,176.077 C196.292,176.211 196.262,176.322 196.201,176.412 C196.141,176.501 196.056,176.562 195.948,176.601 C195.841,176.636 195.573,176.655 195.14,176.655 L195.14,176.655 Z"/>
    <path fill="#221F1F" d="M43.868,187.23 C43.81,184.603 42.181,182.047 39.596,181.282 C35.48,180.146 30.594,180.714 27.412,183.764 C28.392,184.755 29.371,185.751 30.339,186.754 C32.421,185.375 35.162,184.378 37.573,185.508 C38.46,185.891 38.645,186.906 38.993,187.699 C35.614,187.774 31.91,187.78 29.046,189.838 C26.264,191.879 26.304,196.591 29.104,198.603 C32.008,200.696 36.454,200.423 39.033,197.896 L38.964,199.478 C40.611,199.484 42.257,199.484 43.908,199.484 C43.874,195.397 43.979,191.31 43.868,187.23 L43.868,187.23 Z M33.544,195.495 C32.327,195.152 32.008,193.396 33.069,192.7 C34.808,191.605 37.004,191.738 38.982,191.629 C39.092,194.434 36.159,196.596 33.544,195.495 L33.544,195.495 Z"/>
  </g>
</svg>
