<svg xmlns="http://www.w3.org/2000/svg" viewBox="0 0 199.616 200" enable-background="new 0 0 199.616 200"><path fill="#1D57A5" d="M106.24 11.217c2.763-5.895 8.213-11.257 15.117-11.217-2.406 11.855-2.98 23.986-3.252 36.055v53.792c2.486 2.585 5.136 5.002 7.68 7.53 0-20.068.006-40.129 0-60.191 9.031-.011 18.068-.006 27.1-.006v97.092c-9.826.012-19.651-.018-29.476.012-2.968-2.62-5.682-5.524-8.741-8.034-1.896 2.603-4.452 5.025-4.956 8.354-.284 1.987 1.623 3.46 3.438 3.61 8.422.811 16.891 1.229 25.29 2.336 2.093.209 3.432 2.006 4.22 3.791 2.191.557 4.678 1.183 5.987 3.206 1.194 1.843.726 4.139.383 6.161-3.941-2.028-8.643-1.391-12.537.406-5.183 2.376-10.046 5.483-15.529 7.182-6.034 2.04-12.544 2.226-18.816 1.351-10.393-1.426-20.386-4.725-30.454-7.529-2.249-.696-4.637-.928-6.962-.505-5.669.945-11.118 2.841-16.497 4.811 1.443-1.779 2.927-3.518 4.376-5.293-3.617.157-7.234-.255-10.718-1.245 2.429-1.641 4.962-3.125 7.449-4.667-5.686-.504-10.95-3.298-15.094-7.141 13.982-1.78 28.113-1.612 42.164-1.159-3.536-2.511-5.843-6.412-6.672-10.638 1.994.262 3.988.568 5.988.823l.157.685.267-.69c-4.614-3.675-7.762-9.431-7.959-15.366 2.644 1.118 5.17 2.481 7.744 3.75-4.498-4.573-6.747-11.077-6.243-17.447 1.901 1.541 3.751 3.147 5.617 4.741-3.432-5.136-4.382-11.5-3.692-17.552 1.542 1.322 3.089 2.637 4.585 4.017-.678-1.42-1.281-2.869-1.831-4.336-4.272-4.023-8.509-8.074-12.793-12.086.023 19.482.006 38.97.012 58.452h-27.099c-.005-32.368 0-64.73 0-97.092 9.831.006 19.668-.012 29.499.012 5.495 5.315 10.932 10.683 16.439 15.981-.209-6.109.603-12.399 3.31-17.94 1.571-3.183 4.237-5.982 7.762-6.904 1.165-4.73 2.851-9.594 6.382-13.106 2.222-2.255 5.236-3.571 8.355-4.006z"/><path fill="#fff" d="M111.473 7.351c1.71-2.261 4.087-4.116 6.968-4.516-2.411 15.772-2.666 31.759-2.655 47.682.006 21.639-.011 43.271.006 64.91.006 3.003-.47 6.22-2.435 8.613-2.411 2.997-5.199 6.018-6.057 9.884-.655 2.672 1.408 4.956 3.576 6.144 3.449 1.907 6.944 3.721 10.393 5.64-1.965 1.704-3.889 3.455-5.906 5.089 2.377.72 4.742 1.462 7.101 2.244-2.579 2.324-4.706 5.136-7.385 7.338-6.109 1.177-12.376.221-18.416-.956-7.46-1.524-14.717-3.866-22.021-6-2.47-.684-4.974-1.529-7.57-1.345-4.522.278-8.828 1.844-12.99 3.53 1.316-1.489 2.666-2.938 4.046-4.364-3.46.551-6.961.66-10.451.538 2.377-1.71 4.834-3.304 7.24-4.973-5.084-.231-10.249-1.339-14.63-4.017 14.938-1.229 29.962-.998 44.923-.215-5.089-2.006-10.144-5.292-12.317-10.526 3.345.383 6.66.979 9.999 1.431-4.968-3.605-9.669-8.323-11.442-14.352 3.768 1.218 7.472 2.626 11.228 3.872-4.527-4.654-8.967-9.93-10.202-16.503 2.921 1.768 5.82 3.565 8.654 5.473-2.725-4.14-4.974-8.602-6.516-13.309-.579-1.687-.834-3.466-.846-5.246 2.846 1.582 5.449 3.547 8.156 5.345-2.951-4.58-5.049-9.75-5.907-15.141-.429-2.701-.406-5.564.805-8.08 1.531 4.916 3.722 9.843 7.721 13.256-3.889-7.506-7.135-15.755-6.701-24.357.261-2.962.974-6.226 3.298-8.289 1.113 8.77 3.339 17.946 9.31 24.746-4.243-8.961-6.863-18.723-7.391-28.635-.168-5.432.099-11.176 2.782-16.039 1.212-2.29 3.217-4.029 5.496-5.211-1.42 10.845-.898 22.259 3.553 32.385-1.925-10.694-3.072-21.714-1.327-32.519.95-5.246 2.585-10.828 6.799-14.398 1.514-1.391 3.496-2.029 5.432-2.55-3.913 11.703-5.165 24.473-2.353 36.57 0-9.564.22-19.204 2.173-28.606 1.124-5.113 2.683-10.301 5.859-14.543zM116.853 140.938c7.02.318 14.033.985 21.012 1.814 1.826-.018 2.476 1.895 3.066 3.269-1.907-.273-3.814-.539-5.738-.643-.069.597-.139 1.2-.203 1.797 3.496-.632 7.402-1.467 10.689.348 1.286.65 1.657 2.092 1.988 3.373-4.412-1.594-9.199-.277-13.257 1.687-4.991 2.422-9.785 5.35-15.164 6.875 2.324-2.389 4.597-4.817 6.8-7.315-2.156-.702-4.296-1.461-6.44-2.203 1.728-1.57 3.501-3.095 5.275-4.626-2.667-1.478-5.368-2.899-8.028-4.376z"/><path fill="#221F1F" d="M0 172.964h7.101c3.669 5.884 7.356 11.749 11.014 17.639-.006-5.872.017-11.744-.012-17.616 1.982-.034 3.965-.028 5.953-.022v26.519h-6.916c-3.779-6.086-7.553-12.178-11.349-18.253.011 6.086 0 12.167.005 18.253h-5.796v-26.52zM63.681 173.48c1.977-1.143 4.968.423 4.73 2.817-.046 2.324-2.997 3.634-4.875 2.411-2.058-1.003-1.965-4.336.145-5.228zM142.647 173.654c1.966-1.449 5.287.133 5.025 2.66-.052 2.267-2.903 3.571-4.77 2.452-2.005-.869-2.156-4.04-.255-5.112zM49.125 175.427h5.362v5.797c1.594-.006 3.189 0 4.782 0v4.492c-1.594-.006-3.188 0-4.782 0 .099 2.765-.214 5.564.151 8.313.476 2.127 3.153 1.13 4.655 1.055-.023 1.421-.029 2.847-.023 4.277-3.171.847-7.941 1.392-9.547-2.254-1.003-3.699-.452-7.605-.597-11.391-1.159-.006-2.318 0-3.478 0v-4.492h3.478l-.001-5.797zM98.668 182.841c2.237-1.86 5.414-2.701 8.19-1.606 2.14.888 3.362 3.183 3.438 5.432.278 4.261.058 8.544.128 12.816h-5.507c-.047-3.651.087-7.304-.052-10.949.022-1.554-1.374-3.159-3.015-2.8-1.651.105-2.851 1.71-2.916 3.292-.249 3.479-.04 6.968-.104 10.457-1.796.006-3.599.012-5.402-.046.088-6.069.018-12.145.041-18.213h5.217l-.018 1.617zM134.492 181.235c1.89-.017 3.784-.011 5.681-.017-1.96 6.087-3.86 12.196-5.866 18.265h-4.98c-1.106-3.692-2.255-7.367-3.386-11.048-1.106 3.657-2.028 7.367-3.065 11.048h-5.38c-1.947-6.086-3.912-12.167-5.843-18.259h5.9c.98 3.611 1.826 7.257 2.894 10.845.944-3.604 1.803-7.233 2.741-10.845 1.855 0 3.716 0 5.57-.006.974 3.663 1.896 7.339 2.881 11.002.934-3.67 1.896-7.327 2.853-10.985zM141.726 181.224c1.831-.006 3.669-.006 5.506.006v18.253h-5.506v-18.259zM62.458 181.224h5.507v18.259h-5.507v-18.259zM191.455 192.092c.156-3.124-.44-6.503-2.702-8.822-2.886-2.921-7.697-3.142-11.291-1.507-5.831 2.904-6.544 12.143-1.449 16.085 4.446 3.392 11.575 2.76 14.938-1.896-1.131-.846-2.261-1.686-3.396-2.515-1.165.938-2.365 2.063-3.953 2.115-2.424.29-4.851-1.09-5.722-3.396 4.52-.139 9.047-.029 13.575-.064zm-13.46-3.785c.563-2.226 2.816-3.808 5.112-3.193 1.641.185 2.359 1.809 2.817 3.188-2.643.04-5.287.034-7.929.005zM89.139 185.003c-2.475-3.884-7.738-5.084-11.959-3.704-5.535 1.576-7.987 8.573-5.402 13.529 2.921 6.179 12.503 6.869 16.758 1.762 2.603-3.211 2.829-8.12.603-11.587zm-9.848 9.982c-4.174-1.211-4.081-8.155.116-9.28 2.875-.968 5.941 1.525 5.825 4.486.354 3.113-2.927 5.959-5.941 4.794zM164.333 172.964c.011 3.182-.029 6.37.028 9.553-3.043-2.255-7.53-2.406-10.602-.134-4.725 3.489-4.974 11.292-.841 15.332 3.224 2.991 8.637 2.997 11.935.093-.035.417-.099 1.246-.128 1.664 1.704.011 3.408.011 5.112.011v-26.519h-5.504zm-5.809 22.021c-3.983-1.217-4.075-7.703-.214-9.164 2.915-1.258 6.364 1.252 6.19 4.382.412 3.153-2.979 5.976-5.976 4.782z"/><path d="M195.347 172.844c-2.356 0-4.268 1.911-4.269 4.269.001 2.357 1.912 4.27 4.269 4.27 2.358 0 4.269-1.912 4.269-4.27s-1.91-4.269-4.269-4.269zm0 7.846c-1.975-.004-3.573-1.602-3.576-3.577.003-1.974 1.602-3.572 3.576-3.576 1.976.004 3.573 1.603 3.577 3.576-.003 1.975-1.601 3.573-3.577 3.577zm1.179-3.057c-.127-.137-.287-.26-.482-.374.392-.057.686-.193.883-.412.196-.219.295-.494.295-.829 0-.263-.064-.497-.195-.701-.129-.205-.303-.348-.518-.428-.216-.08-.563-.12-1.038-.12h-1.896v4.459h.9v-1.862h.183c.207 0 .357.017.453.05.096.034.186.096.271.187.085.09.243.309.476.654l.65.972h1.076l-.545-.87c-.215-.348-.386-.59-.513-.726zm-1.386-.978h-.666v-1.131h.703c.364 0 .584.004.657.015.146.024.258.082.339.175.08.093.119.213.119.363 0 .134-.03.245-.091.335-.06.089-.145.15-.253.189-.107.035-.375.054-.808.054z"/><path fill="#221F1F" d="M43.868 187.23c-.058-2.627-1.687-5.183-4.272-5.948-4.116-1.136-9.002-.568-12.184 2.482.98.991 1.959 1.987 2.927 2.99 2.082-1.379 4.823-2.376 7.234-1.246.887.383 1.072 1.398 1.42 2.191-3.379.075-7.083.081-9.947 2.139-2.782 2.041-2.742 6.753.058 8.765 2.904 2.093 7.35 1.82 9.929-.707l-.069 1.582c1.647.006 3.293.006 4.944.006-.034-4.087.071-8.174-.04-12.254zm-10.324 8.265c-1.217-.343-1.536-2.099-.475-2.795 1.739-1.095 3.935-.962 5.913-1.071.11 2.805-2.823 4.967-5.438 3.866z"/></svg>