<svg xmlns="http://www.w3.org/2000/svg" viewBox="-210 383.1 190 26.9"><path fill="#C71444" d="M-203.05 383.453h-6.1c-.7 0-.8.2-.8.8v25.2c0 .7.2.8.8.8h5.3c.7 0 .8-.2.8-.8v-19.8s8.7 13.6 11.6 18.2c1.5 2.3 1.7 2.4 6 2.4h7.2c.7 0 .8-.2.8-.8v-25.2c0-.7-.1-.8-.8-.8h-5.3c-.7 0-.8.2-.8.8v20s-10.6-16.5-12-18.6c-1.6-2.3-2.1-2.2-6.7-2.2zm157.4 0h-6.1c-.7 0-.8.2-.8.8v25.2c0 .7.2.8.8.8h5.3c.7 0 .8-.2.8-.8v-19.8s8.7 13.6 11.6 18.2c1.5 2.3 1.8 2.4 6 2.4h7.1c.7 0 .8-.2.8-.8v-25.2c0-.7-.1-.8-.8-.8h-5.3c-.7 0-.8.2-.8.8v20s-10.6-16.5-12-18.6c-1.5-2.3-2-2.2-6.6-2.2zm-124.6.1c-.5 0-.6.2-.6.7v25.3c0 .7.1.8.8.8h6.1c.7 0 .8-.2.8-.8v-25.3c0-.5-.2-.7-.7-.7h-6.4zm22.1 0c-5 0-7.8 1.8-8.5 5.6-.2.8-.2 1.9-.2 2.6 0 .9 0 1.8.1 2.5.3 2.2 1.6 4.7 7.4 5.2 4.5.4 11.1 1 13.3 1.2 1 .1 1.2.8 1.2 1.2v1.7c-.1.6-.3.9-1.1.9h-19.9c-.7 0-.8.2-.8.8v4.2c0 .7.2.8.8.8h19.7c4.9 0 8.1-.8 8.9-5 .2-.9.2-2.1.2-2.9 0-1.3-.1-2.4-.2-2.8-.9-4.4-4.2-5.3-9-5.8-2.5-.2-9.5-.9-11.8-1.1-.8-.1-1.1-.6-1.1-1.1v-1.2c.1-.8.5-1.1 1.3-1.1h18.8c.7 0 .8-.1.8-.8v-4.3c0-.6-.2-.8-.8-.8.1.2-19.1.2-19.1.2zm34.6 0c-5 0-7.8 1.8-8.5 5.6-.2.8-.2 1.9-.2 2.6 0 .9 0 1.8.1 2.5.3 2.2 1.6 4.7 7.3 5.2 4.5.4 11.1 1 13.3 1.2 1 .1 1.2.8 1.2 1.2v1.7c-.1.6-.3.9-1.1.9h-19.9c-.7 0-.8.2-.8.8v4.2c0 .7.1.8.8.8h19.7c4.9 0 8.1-.8 8.9-5 .2-.9.2-2.1.2-2.9 0-1.3-.1-2.4-.2-2.8-.9-4.4-4.2-5.3-9-5.8-2.5-.2-9.5-.9-11.8-1.1-.8-.1-1.1-.6-1.2-1.1v-1.2c.1-.8.5-1.1 1.3-1.1h18.8c.7 0 .8-.1.8-.8v-4.3c0-.6-.2-.8-.8-.8h-18.9zm40.3 0h-2.6c-4.1.1-3.4-.2-4.8 2.7 0 0-7 16-10.1 22.6l-.1.3c-.6 1.1-.2 1.2.7 1.2h6.4c.4 0 .7-.2.8-.4l2.1-4.9h15.4c1.2 2.7 2 4.8 2.1 4.9.1.3.4.5.8.5h6.6c1 0 1.2.1.8-.8-1.2-2.8-8.7-19.4-9.8-21.9-2-4.5-1.2-4-5.6-4.2h-2.7zm.1 5.9h.8c.3 0 .5.1.6.4.5 1.3 2.2 5.3 3.9 9.4h-10.7c2-4.8 3.9-9.4 4-9.5.1-.3.3-.4.6-.4.2.1.5.1.8.1z"/></svg>