<svg xmlns="http://www.w3.org/2000/svg" width="90" height="24"><path d="M6.218.03A6.22 6.22 0 00.002 6.247L.049 23.52h5.527l-.047-11.49V6.247c0-.357.272-.655.62-.69.022-.002.045 0 .07 0 .19 0 .362.078.487.203l14.503 15.91a6.2 6.2 0 004.395 1.822 6.222 6.222 0 006.22-6.22V0h-5.528v17.3a.694.694 0 01-1.18.462L10.614 1.852A6.185 6.185 0 006.218.03M34.587 0v17.273a6.22 6.22 0 006.218 6.217h23.492a7.252 7.252 0 006.908-7.24 7.255 7.255 0 00-6.908-7.245v-.022h-15.2c-.77-.045-1.382-.803-1.382-1.73 0-.925.612-1.68 1.382-1.725H73.97V23.49h5.527V5.528h9.673V0H49.096v.023a7.257 7.257 0 00-6.91 7.245c0 3.887 3.065 7.06 6.91 7.242h15.2c.768.043 1.383.8 1.383 1.725 0 .928-.615 1.685-1.383 1.73H40.804a.69.69 0 01-.69-.692V0h-5.528z" fill="#44536B" fill-rule="evenodd"/></svg>