<svg xmlns="http://www.w3.org/2000/svg" width="313" height="53" viewBox="0 0 313 53">
  <path fill="#1C4598" d="M15.071,52.136 L0,52.136 L0,0.885 L26.065,0.885 L55.967,39.147 L55.967,0.885 L71.038,0.885 L71.038,52.136 L45.501,52.136 L15.071,13.221 L15.071,52.136 L15.071,52.136 Z M143.147,36.289 C143.147,43.413 141.888,45.868 139.801,48.225 C136.603,51.733 131.953,52.787 122.988,52.787 L97.256,52.787 C88.291,52.787 83.635,51.732 80.44,48.225 C78.357,45.87 77.095,43.413 77.095,36.289 L77.095,16.532 C77.095,9.409 78.357,6.955 80.44,4.596 C83.635,1.085 88.292,0.031 97.256,0.031 L122.989,0.031 C131.953,0.031 136.604,1.086 139.801,4.596 C141.887,6.954 143.147,9.408 143.147,16.532 L143.147,36.289 L143.147,36.289 Z M122.355,39.8 C125.797,39.8 127.011,39.599 127.835,38.848 C128.609,38.146 128.95,37.243 128.95,34.232 L128.95,18.587 C128.95,15.577 128.609,14.679 127.835,13.974 C127.011,13.221 125.797,13.022 122.355,13.022 L97.887,13.022 C94.445,13.022 93.232,13.221 92.41,13.974 C91.634,14.679 91.295,15.578 91.295,18.587 L91.295,34.232 C91.295,37.242 91.633,38.146 92.41,38.848 C93.232,39.599 94.445,39.8 97.887,39.8 L122.355,39.8 Z M165.049,0.885 L165.049,52.136 L149.302,52.136 L149.302,0.885 L165.049,0.885 L165.049,0.885 Z M191.654,0.885 L212.443,0.885 L184.386,24.858 L216.031,52.136 L193.785,52.136 L165.049,25.407 L191.654,0.885 L191.654,0.885 Z M218.936,0.885 L234.688,0.885 L234.688,52.136 L218.936,52.136 L218.936,0.885 Z M294.732,52.136 L290.072,43.208 L259.598,43.208 L254.994,52.136 L237.596,52.136 L265.511,0.884 L285.086,0.884 L313,52.136 L294.732,52.136 L294.732,52.136 Z M265.07,32.076 L284.652,32.076 L274.859,13.521 L265.07,32.076 Z"/>
</svg>
