<svg xmlns="http://www.w3.org/2000/svg" xmlns:xlink="http://www.w3.org/1999/xlink" width="406.648" height="122.251" viewBox="0 0 406.648 122.251"><defs><path id="a" d="M0 0h406.648v122.25H0z"/></defs><clipPath id="b"><use xlink:href="#a" overflow="visible"/></clipPath><g clip-path="url(#b)"><defs><path id="c" d="M0 0h406.648v122.25H0z"/></defs><clipPath id="d"><use xlink:href="#c" overflow="visible"/></clipPath><g clip-path="url(#d)"><defs><path id="e" d="M33.628 2.45h88.622v119.8H33.628z"/></defs><clipPath id="f"><use xlink:href="#e" overflow="visible"/></clipPath><path clip-path="url(#f)" fill="#282829" d="M78.253 2.45C84.938 7.89 88.62 16.683 88.62 27.246v67.76L50.524 63.16l.023 30.908h-16.92c0 15.922 11.772 24.005 19.95 27.702 2.475.306 4.99.48 7.548.48 33.76 0 61.125-27.366 61.125-61.125 0-27.81-18.58-51.266-43.997-58.675"/></g><path clip-path="url(#d)" fill="#EE2D2A" d="M33.628 94.068V28.803l38.755 29.89-.038-31.447H88.62c0-10.563-3.682-19.355-10.366-24.796C72.817.865 67.074 0 61.124 0 27.365 0 0 27.365 0 61.124c0 31.2 23.382 56.925 53.576 60.645-8.176-3.697-19.948-11.78-19.948-27.702"/><path clip-path="url(#d)" fill="#FFF" d="M72.383 58.693l-38.755-29.89v65.265h16.92l-.024-30.91L88.62 95.007v-67.76H72.344"/><path clip-path="url(#d)" fill="#282829" d="M192.225 82.55h-16.27L159.18 50.195h-.28c.396 5.09.596 8.973.596 11.654v20.7h-10.994V36.627h16.208l16.71 31.912h.188c-.294-4.628-.44-8.345-.44-11.15V36.627h11.057v45.92zM245.118 59.525c0 7.727-1.895 13.6-5.685 17.62-3.79 4.022-9.34 6.03-16.647 6.03-7.203 0-12.726-2.02-16.57-6.06-3.84-4.042-5.762-9.926-5.762-17.653 0-7.643 1.91-13.48 5.732-17.51 3.82-4.032 9.375-6.047 16.662-6.047 7.31 0 12.847 2 16.616 6 3.77 3.998 5.654 9.872 5.654 17.62m-31.598 0c0 8.878 3.088 13.317 9.266 13.317 3.14 0 5.47-1.078 6.99-3.234 1.517-2.157 2.275-5.52 2.275-10.083 0-4.586-.767-7.973-2.306-10.16-1.54-2.19-3.838-3.283-6.896-3.283-6.22 0-9.328 4.48-9.328 13.443M286.736 51.233c0 5.13-1.513 9.094-4.54 11.89-3.025 2.794-7.322 4.192-12.893 4.192h-3.486V82.55H253.41V36.627h15.893c5.8 0 10.157 1.267 13.067 3.8 2.91 2.534 4.366 6.136 4.366 10.805m-20.92 5.968h2.263c1.862 0 3.343-.522 4.443-1.57 1.1-1.046 1.65-2.49 1.65-4.334 0-3.1-1.718-4.65-5.152-4.65h-3.203v10.555zM326.226 68.603c0 2.848-.723 5.377-2.167 7.585-1.445 2.21-3.53 3.927-6.252 5.15-2.722 1.227-5.915 1.84-9.58 1.84-3.057 0-5.622-.216-7.695-.644-2.073-.43-4.23-1.178-6.47-2.246V69.23c2.366 1.216 4.826 2.164 7.38 2.844s4.9 1.02 7.037 1.02c1.843 0 3.193-.32 4.052-.957.858-.64 1.288-1.46 1.288-2.466 0-.627-.173-1.177-.52-1.648-.344-.47-.9-.947-1.664-1.43-.763-.48-2.8-1.465-6.11-2.952-2.993-1.36-5.238-2.68-6.736-3.957-1.498-1.278-2.607-2.744-3.33-4.398-.722-1.654-1.084-3.612-1.084-5.873 0-4.23 1.54-7.528 4.618-9.894 3.078-2.367 7.308-3.55 12.69-3.55 4.753 0 9.6 1.1 14.542 3.298l-3.8 9.58c-4.293-1.968-8-2.952-11.12-2.952-1.61 0-2.784.282-3.517.848-.734.565-1.1 1.267-1.1 2.104 0 .9.466 1.707 1.397 2.42.932.71 3.46 2.01 7.585 3.894 3.958 1.78 6.706 3.69 8.245 5.732s2.31 4.612 2.31 7.71M362.733 82.55H335.47V36.627h27.263v9.957h-14.857v7.224h13.757v9.956h-13.757v8.67h14.857M392.293 46.145c-2.952 0-5.256 1.21-6.91 3.628s-2.482 5.753-2.482 10.004c0 8.837 3.363 13.255 10.084 13.255 2.032 0 4-.283 5.906-.848 1.905-.565 3.82-1.246 5.748-2.042v10.49c-3.832 1.697-8.167 2.545-13.004 2.545-6.932 0-12.245-2.01-15.94-6.03-3.697-4.02-5.544-9.832-5.544-17.433 0-4.753.894-8.93 2.685-12.532 1.79-3.602 4.366-6.372 7.727-8.308 3.36-1.937 7.313-2.906 11.857-2.906 4.962 0 9.704 1.08 14.228 3.236l-3.8 9.768c-1.698-.796-3.394-1.466-5.09-2.01-1.695-.545-3.518-.817-5.465-.817"/></g></svg>