<svg width="266" height="97" viewBox="0 0 266 97" xmlns="http://www.w3.org/2000/svg"><g fill-rule="nonzero" fill="none"><path d="M.107 45.874c0 28.41 23.217 50.382 50.44 50.382 27.221 0 50.442-21.971 50.442-50.382 0-26.055-18.136-45.05-38.22-45.05-4.566 0-9.06.987-12.221 2.287-3.164-1.3-7.662-2.287-12.22-2.287C18.24.825.108 19.82.108 45.874m59.426-13.08c0 5.519-3.643 9.867-8.984 9.867-5.338 0-8.985-4.348-8.985-9.866 0-7.525 5.114-14.202 8.985-16.499 3.872 2.299 8.984 8.974 8.984 16.499zm-47.025 12.84c0-19.609 14.149-33.006 25.268-32.508-5.27 5.25-8.462 12.898-8.462 20.293 0 12.73 10.101 21.658 21.233 21.658 11.126 0 21.234-8.927 21.234-21.658 0-7.395-3.192-15.044-8.462-20.293 11.12-.498 25.27 12.9 25.27 32.507 0 21.466-17.224 38.214-38.04 38.214C29.73 83.846 12.509 67.1 12.509 45.633z" fill="#007BC2"/><path fill="#231F20" d="M147.834 21.517v9.974h5.57v18.341l-14.963-28.315h-17.27v9.974h5.57v30.517h-5.57v9.968h22.841v-9.968h-5.57V43.663l14.963 28.312h11.7V31.491h5.568v-9.974h-22.84M218.13 40.897V21.515h-43.924v19.382h9.972v-9.408h5.367v30.517h-7.285v9.963h27.817v-9.963h-7.286V31.489h5.37v9.408h9.97M265.457 40.897V21.515h-43.92v19.382h9.966v-9.408h5.368v30.517h-7.283v9.963h27.81v-9.963h-7.279V31.489h5.365v9.408h9.973"/></g></svg>