<svg xmlns="http://www.w3.org/2000/svg" viewBox="0 0 1047.181 225.889"><path d="M192.426 35.623c-1.175-6.597-5.404-7-8.225-7.045C119.58 27.403 99.61 5.073 99.61 5.073c-.995-.985-1.985-1.143-2.799-.985-.814-.158-1.804 0-2.799.985 0 0-19.97 22.33-84.595 23.505-2.817.046-7.046.448-8.22 7.045-3.77 21.104 1.595 78.97 12.924 111.62 10.853 31.295 28.566 52.87 44.979 67.558-1.915-9.437-1.887-26.733.56-37.012 5.875-24.675 24.675-41.12 29.37-49.346 2.61-4.56 2.355-18.8 2.355-18.8s4.695 7.05 3.52 29.375c-.68 12.958-3.52 19.975-2.345 39.946 1.522 25.915 25.845 29.375 25.845 29.375s-23.417-9.789-15.275-50.52c3.525-17.63 19.975-22.326 19.975-22.326s-4.7 2.35-5.875 17.62c-1.175 15.276 8.914 16.45 10.575 16.45 2.35 0 9.4-1.174 9.4-16.45s-8.225-17.62-16.45-30.545-11.75-24.67-10.575-39.945c1.175-15.275 14.1-30.545 14.1-30.545s-4.7 17.19-4.7 22.32c0 5.87 1.323 15.04 28.2 31.72 31.401 19.494 30.87 40.964 30.592 44.216.38-1.032.768-2.045 1.133-3.09 11.325-32.65 16.686-90.517 12.92-111.621" fill="#3b78e6"/><path d="M351.24 104.9v73.178h-33.663V109.53c0-5.361 0-11.467-.485-18.046-.977-13.665-8.54-22.93-24.884-22.93S262.935 82.7 262.935 118.8v59.277h-33.663V48.306h33.663v20.979l10.002-15.368c9.27-6.587 18.781-9.025 31.225-9.025 27.566 0 43.42 13.66 46.102 36.346.731 6.588.977 13.17.977 23.662M494.427 178.08h-33.663v-21.955l-10.002 16.589c-9.515 6.342-18.786 8.78-31.225 8.78-26.835 0-42.934-15.118-45.862-32.933-.972-6.587-1.217-13.17-1.217-23.661V48.302h33.664v69.524c0 4.15.245 11.223.976 17.806 1.707 13.42 9.515 21.955 25.124 21.955 16.834 0 28.542-13.901 28.542-43.18V48.303h33.663V178.08zM617.126 85.872h-33.663c-2.197-11.954-8.78-18.786-20.007-18.786-9.997 0-15.368 5.856-15.368 13.905 0 9.761 8.054 14.882 29.518 20.248 26.59 6.828 42.199 17.56 42.199 41.468 0 26.104-23.657 38.789-53.421 38.789-31.466 0-53.666-13.656-57.326-42.934h33.668c2.679 14.146 12.435 20.738 24.148 20.738 10.732 0 19.027-4.64 19.027-14.15 0-10.002-8.54-15.613-30.98-21.22-24.148-6.106-40.737-16.594-40.737-39.034 0-24.883 20.489-40.001 51.469-40.001s48.54 17.315 51.473 40.977M769.346 110.749c0 46.838-28.792 70.745-62.21 70.745-10.732 0-23.907-2.683-30.495-7.318l-8.535-13.411v65.125h-33.663V48.302h33.663v19.763l9.761-14.151c7.314-5.852 20.489-9.021 33.659-9.021 36.35 0 57.82 27.562 57.82 65.856m-34.884 2.197c0-26.586-12.685-44.396-32.688-44.396-18.545 0-33.668 11.468-33.668 43.175v6.101c0 29.523 16.834 40.006 32.447 40.006 19.512 0 33.909-14.882 33.909-44.886M820.56 17.81c0 10.737-7.559 17.81-18.541 17.81-10.973 0-18.536-7.073-18.536-17.81 0-10.487 7.563-17.81 18.536-17.81 10.982 0 18.541 7.323 18.541 17.81m-35.37 30.495h33.663v129.777H785.19V48.305zM919.596 46.108v27.08c-28.047-1.947-41.958 10.488-41.958 45.368v59.522h-33.663V48.305h33.663v23.667l10.251-18.06c6.338-5.851 14.878-8.775 22.196-8.775 3.9 0 6.583.24 9.511.971M1046.69 121.976h-92.21c2.193 27.316 14.387 35.856 30 35.856 14.396 0 24.883-8.05 27.076-21.95h33.668c-6.583 30.244-30.98 45.612-61.475 45.612-35.615 0-63.182-22.196-63.182-67.817 0-39.76 26.105-68.784 65.87-68.784s60.744 30.245 60.744 65.62c0 3.164 0 7.073-.49 11.463m-91.239-21.955h57.085c-2.193-20.493-11.463-31.47-27.567-31.47-15.612 0-26.585 10-29.518 31.47"/></svg>