<svg xmlns="http://www.w3.org/2000/svg" width="237" height="37"><g fill="#FFF"><path d="M11.31 7.529c0 3.58-.033 7.019.154 10.508a34.232 34.232 0 0 0-1.21-4.847A6637.562 6637.562 0 0 0 6.463.438H0v35.906h6.787v-9.196c0-4.185-.114-5.02-.396-9.807.31 1.953.77 3.879 1.374 5.762.843 2.648 4.23 13.246 4.23 13.246h5.537V.443H11.31V7.53zm14.705 13.106h6.22v-5.61h-6.22V6.047h7.352V.438H18.663v35.906h15.835v-6.172h-8.483v-9.537zm7.918-14.587h5.655v30.296h7.918V6.048h5.655V.438H33.933v5.61zM73.939.438s-.888 7.59-1.499 12.426a73.414 73.414 0 0 0-.373 8.63s-.096-4.742-.61-8.646a1409.01 1409.01 0 0 0-1.64-12.41h-5.809c-.424 3.366-1.17 7.635-1.872 12.376-.373 2.418-.373 8.673-.373 8.673s-.096-6.227-.328-8.645c-.424-4.836-1.17-12.41-1.17-12.41h-6.85l4.593 35.906h6.328s.939-6.457 1.499-10.503c.56-4.045.899-7.45.899-7.45s.47 3.428.939 7.467c.47 4.04 1.323 10.492 1.323 10.492h5.882L80.17.438h-6.23zM88.513 0c-6.753 0-9.28 2.805-9.28 18.452 0 15.945 3.234 18.548 9.28 18.548 6.464 0 9.744-3.159 9.744-18.548S95.26 0 88.513 0zm1.64 28.495c-.232 2.418-.565 3.024-1.408 3.024s-1.408-.606-1.544-3.024c-.141-2.508-.141-3.535-.141-10.043 0-5.576.045-8.09.141-10.66.096-2.417.515-3.113 1.453-3.113.843 0 1.312.696 1.5 3.114.186 2.558.282 5.021.282 10.66-.006 6.507-.051 7.483-.283 10.042zM117 27.378c-.045-5.61-.797-9.133-5.09-9.414 4.525-.56 5.763-2.766 5.763-8.415-.04-6.435-3.342-9.111-8.307-9.111H98.97v35.906h7.352v-15.71h.565c2.065 0 2.828 1.493 2.828 4.747v4.354c0 2.558.068 5.47.566 6.592h8.245c-.893.017-1.459-5.7-1.527-8.949zm-9.139-11.781h-1.538V5.498h.696c2.154 0 3.234.309 3.234 5.515.029 3.333-.537 4.572-2.392 4.572v.012zm23.47 1.352L139.3.438h-7.686l-5.497 12.208V.438h-7.352v35.906h7.352V23.058l5.31 13.286H140l-8.67-19.395z"/><path d="M158.26.438s-.877 7.59-1.48 12.426a74.306 74.306 0 0 0-.368 8.629s-.095-4.74-.603-8.645c-.604-4.786-1.017-7.922-1.62-12.41h-5.735c-.419 3.366-1.156 7.635-1.848 12.376-.369 2.418-.369 8.673-.369 8.673s-.095-6.227-.324-8.645c-.419-4.836-1.156-12.41-1.156-12.41H138l4.535 35.906h6.232s.927-6.458 1.48-10.503c.552-4.045.876-7.456.876-7.456s.464 3.428.927 7.468a982.79 982.79 0 0 0 1.296 10.49h5.83L164.403.433h-6.143v.006zM172.651 0c-6.662 0-9.164 2.805-9.164 18.452 0 15.945 3.194 18.548 9.164 18.548 6.383.028 9.622-3.159 9.622-18.548S179.313 0 172.651 0zm1.62 28.495c-.23 2.418-.559 3.024-1.39 3.024-.833 0-1.391-.606-1.525-3.024-.14-2.508-.14-3.535-.14-10.043 0-5.576.045-8.09.14-10.66.094-2.417.508-3.113 1.435-3.113.832 0 1.295.696 1.48 3.114.184 2.558.279 5.02.279 10.66 0 6.507-.05 7.483-.28 10.042zm26.514-1.117c-.044-5.61-.787-9.133-5.026-9.414 4.468-.56 5.69-2.766 5.69-8.415 0-6.463-3.283-9.134-8.191-9.134H182.83v35.906h7.26V20.612h.698c2.039 0 2.653 1.493 2.653 4.746v4.377c0 2.558.218 5.47.726 6.592h8.142c-.927.016-1.48-5.7-1.525-8.949zm-9.019-11.793h-1.675V5.487h.838c2.127 0 3.194.308 3.194 5.515-.006 3.343-.558 4.583-2.357 4.583zM209.636.438h-7.26v35.905h15.079v-6.17h-7.818V.437zm16.754 0h-7.818v35.905h9.124c6.663 0 9.304-2.681 9.304-16.146 0-15.843-3.055-19.76-10.61-19.76zm.184 30.295h-.743V6.048h.71c2.311 0 2.73.999 2.73 14.805 0 9.667-.463 9.88-2.686 9.88h-.011z"/></g></svg>