<svg xmlns="http://www.w3.org/2000/svg" width="423" height="66" viewBox="0 0 423 66">
  <g fill="none" fill-rule="evenodd">
    <path fill="#007DC4" fill-rule="nonzero" d="M20,13.42 C20,19.8 19.94,25.93 20.27,32.15 C19.7665671,29.2220337 19.0513561,26.3344529 18.13,23.51 C16.97,19.51 11.43,0.78 11.43,0.78 L0,0.78 L0,64.78 L12,64.78 L12,48.39 C12,40.93 11.8,39.44 11.3,30.91 C11.8488401,34.389914 12.6611761,37.8231201 13.73,41.18 C15.22,45.9 21.21,64.79 21.21,64.79 L31,64.79 L31,0.79 L20,0.79 L20,13.42 Z M46,36.78 L57,36.78 L57,26.78 L46,26.78 L46,10.78 L59,10.78 L59,0.78 L33,0.78 L33,64.78 L61,64.78 L61,53.78 L46,53.78 L46,36.78 L46,36.78 Z M60,10.78 L70,10.78 L70,64.78 L84,64.78 L84,10.78 L94,10.78 L94,0.78 L60,0.78 L60,10.78 L60,10.78 Z M130.74,0.78 C130.74,0.78 129.17,14.31 128.09,22.93 C127.570764,28.0394456 127.350389,33.1748562 127.43,38.31 C127.43,38.31 127.26,29.86 126.35,22.9 C125.27,14.37 124.53,8.78 123.45,0.78 L113.18,0.78 C112.43,6.78 111.11,14.39 109.87,22.84 C109.21,27.15 109.21,38.3 109.21,38.3 C109.21,38.3 109.04,27.2 108.63,22.89 C107.88,14.27 106.56,0.77 106.56,0.77 L94.45,0.77 L102.57,64.77 L113.76,64.77 C113.76,64.77 115.42,53.26 116.41,46.05 C117.4,38.84 118,32.77 118,32.77 C118,32.77 118.83,38.88 119.66,46.08 C120.49,53.28 122,64.78 122,64.78 L132.4,64.78 L141.76,0.78 L130.76,0.78 L130.74,0.78 Z M156.51,0 C144.57,0 140.1,5 140.1,32.89 C140.1,61.31 145.82,65.95 156.51,65.95 C167.94,65.95 173.74,60.32 173.74,32.89 C173.74,5.46 168.44,0 156.51,0 Z M159.41,50.79 C159,55.1 158.41,56.18 156.92,56.18 C155.43,56.18 154.43,55.1 154.19,50.79 C153.94,46.32 153.94,44.49 153.94,32.89 C153.94,22.95 154.02,18.47 154.19,13.89 C154.36,9.58 155.1,8.34 156.76,8.34 C158.25,8.34 159.08,9.58 159.41,13.89 C159.74,18.45 159.91,22.84 159.91,32.89 C159.9,44.49 159.82,46.23 159.41,50.79 Z M206.88,48.8 C206.8,38.8 205.47,32.52 197.88,32.02 C205.88,31.02 208.07,27.09 208.07,17.02 C208,5.55 202.16,0.78 193.38,0.78 L175,0.78 L175,64.78 L188,64.78 L188,36.78 L189,36.78 C192.65,36.78 194,39.44 194,45.24 L194,53 C194,57.56 194.12,62.75 195,64.75 L209.58,64.75 C208,64.78 207,54.59 206.88,48.8 L206.88,48.8 Z M190.72,27.8 L188,27.8 L188,9.8 L189.23,9.8 C193.04,9.8 194.95,10.35 194.95,19.63 C195,25.57 194,27.78 190.72,27.78 L190.72,27.8 Z M232.22,30.21 L246.31,0.78 L232.72,0.78 L223,22.54 L223,0.78 L210,0.78 L210,64.78 L223,64.78 L223,41.1 L232.39,64.78 L247.55,64.78 L232.22,30.21 L232.22,30.21 Z"/>
    <path fill="#001722" d="M282,0.78 C282,0.78 280.43,14.31 279.35,22.93 C278.830627,28.0394357 278.610252,33.1748543 278.69,38.31 C278.69,38.31 278.52,29.86 277.61,22.9 C276.53,14.37 275.79,8.78 274.71,0.78 L264.44,0.78 C263.69,6.78 262.37,14.39 261.13,22.84 C260.47,27.15 260.47,38.3 260.47,38.3 C260.47,38.3 260.3,27.2 259.89,22.89 C259.14,14.27 257.82,0.77 257.82,0.77 L245.72,0.77 L253.84,64.77 L265,64.77 C265,64.77 266.66,53.26 267.65,46.05 C268.64,38.84 269.22,32.76 269.22,32.76 C269.22,32.76 270.05,38.87 270.88,46.07 C271.71,53.27 273.2,64.77 273.2,64.77 L283.64,64.77 L293,0.77 L282,0.77 L282,0.78 Z M307.77,0 C295.84,0 291.36,5 291.36,32.89 C291.36,61.31 297.08,65.95 307.77,65.95 C319.2,66 325,60.32 325,32.89 C325,5.46 319.7,0 307.77,0 Z M310.67,50.79 C310.26,55.1 309.67,56.18 308.18,56.18 C306.69,56.18 305.69,55.1 305.45,50.79 C305.2,46.32 305.2,44.49 305.2,32.89 C305.2,22.95 305.28,18.47 305.45,13.89 C305.62,9.58 306.36,8.34 308.02,8.34 C309.51,8.34 310.34,9.58 310.67,13.89 C311,18.45 311.17,22.84 311.17,32.89 C311.17,44.49 311.08,46.23 310.67,50.79 L310.67,50.79 Z M358.15,48.8 C358.07,38.8 356.74,32.52 349.15,32.02 C357.15,31.02 359.34,27.09 359.34,17.02 C359.34,5.5 353.46,0.74 344.67,0.74 L326,0.74 L326,64.74 L339,64.74 L339,36.74 L340.25,36.74 C343.9,36.74 345,39.4 345,45.2 L345,53 C345,57.56 345.39,62.75 346.3,64.75 L360.88,64.75 C359.22,64.78 358.23,54.59 358.15,48.8 Z M342,27.78 L339,27.78 L339,9.78 L340.5,9.78 C344.31,9.78 346.22,10.33 346.22,19.61 C346.21,25.57 345.22,27.78 342,27.78 Z M374,0.78 L361,0.78 L361,64.78 L388,64.78 L388,53.78 L374,53.78 L374,0.78 L374,0.78 Z M404,0.78 L390,0.78 L390,64.78 L406.34,64.78 C418.27,64.78 423,60 423,36 C423,7.76 417.53,0.78 404,0.78 Z M404.33,54.78 L403,54.78 L403,10.78 L404.27,10.78 C408.41,10.78 409.16,12.56 409.16,37.17 C409.16,54.4 408.33,54.78 404.35,54.78 L404.33,54.78 Z"/>
  </g>
</svg>
