<svg xmlns="http://www.w3.org/2000/svg" xmlns:xlink="http://www.w3.org/1999/xlink" width="160" height="31"><defs><path id="a" d="M0 .364h1.813v5.764H0z"/><path id="c" d="M.382.029h3.537v.408H.382z"/><path id="e" d="M.382.029h3.231v.408H.382z"/></defs><g fill="none" fill-rule="evenodd"><path fill="#FACA90" d="M8.198 2.28C9.638 1.8 11.734.272 13 .665V.97c-.83 0-.392.219-.305.655-.873-.218-.655.655-1.266.655-.655.524-1.485.873-1.616 1.921-.524-.043-1.222.175-1.266-.305 1.004-.262 1.31-1.529-.306-1.267-.043-.13-.043-.262-.043-.349"/><path fill="#F7985A" d="M14.922.359c-.873-.044-1.092.48-.655.96-.568.044-.655-.392-1.266-.305V.708c.698-.349 1.31-.83 2.576-.655V.36h-.655"/><path fill="#FDF1AF" d="M15.577.359c.655.175.917.786 1.92.655.394-.262.874-.437 1.616-.306v.306c-.393-.044-.567.087-.655.306-.742-.088-.349.916-.96.96-.524.087-.568-.306-.96-.306-.481-.567-1.354-.785-1.616-1.615h.655"/><path fill="#F7B6A3" d="M20.074 2.586c.13-1.004-.873-.83-.96-1.616 1.047.131 1.746.612 2.88.655v.306c-.96-.087-1.003.742-1.92.655"/><path fill="#C54427" d="M14.267 1.625c-.611.131-.786.699-1.616.655v-.655c-.087-.393-.48-.655.306-.655.611-.087.699.35 1.266.306.044.13.044.262.044.35"/><path fill="#40BC9C" d="M11.385 2.28c.655 0 .393-.873 1.266-.655v.655c-.262.48-.262 1.223-1.266.96v-.96"/><path fill="#FCEF6E" d="M16.537 1.93c.393 0 .437.394.96.306.612-.043.219-1.047.961-.96.262.699 1.135.786 1.616 1.266.96.087 1.004-.742 1.92-.655.394-.043.568.088.656.306.873.873-.48.305-.655.96-.306.219-.35.743-.96.655h-.306c-.393-.436-.131-.524 0-.96-1.092 0-1.354-.568-1.921.305-.655.83-3.231-.218-3.843.655-1.266 0-2.401.175-3.23.655-.568.044-.7-.393-1.267-.305.83.61.131.698.96 1.266h-.96c-.567.043-.698-.393-1.266-.306-.655-.698-1.092 0-1.266.655C6.582 6.341 5.534 7.214 4.399 8c-.175-1.441 1.135-1.441 1.266-2.576-.087-.742-1.397-.175-1.615 0 .043-.917.567-1.354 1.615-1.266.96-.131 2.314-.786 2.882-.306.044.48.786.306 1.266.306.655-.175 1.048-.655 1.616-.96 1.048.261 1.004-.481 1.266-.962.786.044 1.004-.48 1.615-.654.524.043 1.223-.175 1.267.305-.786-.043-1.354.175-1.616.655.393.611 2.97.699 2.576-.611"/><path fill="#DC5D35" d="M9.813 4.201c.131-1.048.96-1.397 1.616-1.921v.96c-.612.263-.96.743-1.616.961"/><path fill="#FBE951" d="M18.764 3.24c.568-.916.83-.305 1.921-.305-.13.437-.393.524 0 .96-.306.132-.568.263-.655.656h-.655v-.306c1.048-.393-.873-.35-.611-1.004m2.27.61c.612.088.655-.436.961-.654.437.306.96.524 1.266.96v.656c-.305 0-.262.392-.305.654-.306-.262-.743-.349-1.267-.305v-.306c.961-.35-.698-.567-.655-1.004"/><path fill="#F68959" d="M22.65 2.28c1.746.306 2.838 1.223 3.23 2.882-.261-.044-.305.13-.305.305-.655-.087-.087-1.397-.96-1.266h-1.267c-.305-.436-.873-.655-1.266-.96.088-.655 1.441-.088.568-.96"/><path fill="#73A94A" d="M14.922 3.852h.655c.13.699-.48.611-.96.655-.525.044-1.223-.175-1.267.306-.742.087-1.223-.044-1.616-.306.786-.48 1.922-.611 3.188-.655"/><path fill="#EED333" d="M14.616 4.507c.524-.044 1.092.044.96-.655h-.654c.611-.873 3.187.175 3.842-.655-.262.655 1.615.655.655.96-1.092-.261-1.354.35-1.921.656-.35.349-2.314.654-1.266 1.266 1.004.393 1.702 1.091 2.576 1.615.436.393 1.178.393 1.615 0-.044.262.131.306.306.306v.305h-.655c.174.48.48.786.96.961.306.568 1.18.524 1.267 1.266.393.437.13.524 0 .96-.35-.043-.175-.305 0-.305-.131-.48-.262.044-.655 0h-.655c-.131-.436-.568-.524-.655-.96-.306-.437-.873-.655-1.266-.961-.262-.83-1.31-.83-1.922-1.266-.83-.35-1.178-1.135-2.226-1.266.087-.83-.655-.83-1.267-.96 0-.307.393-.263.655-.307h.961c.131-.524-.262-.61-.655-.654v-.306"/><path fill="#FBE531" d="M20.074 4.507c.087-.35.35-.48.655-.655h.305c-.043.437 1.616.655.655.96-.917.262-.83-.436-1.615-.305"/><path fill="#FBE951" d="M11.385 5.468c-.83-.612-.13-.7-.96-1.267.61-.087.698.35 1.266.306.393.262.873.437 1.615.306.088.48.96.13.96.655-.261.087-.61 0-.654.305.611.131 1.397.131 1.266.96-.524-.087-.568.306-.96.306v-.96c-.262.043-.306.305-.655.305-.262-.48-.83-.698-1.616-.655h-.306c.044-.043.044-.174.044-.261"/><path fill="#E97647" d="M13.306 4.813c.044-.48.786-.306 1.266-.306v.306c.393.043.743.087.655.655h-.96c0-.524-.873-.175-.96-.655"/><path fill="#EED333" d="M18.153 5.468v-.655c.524-.088.567.305.96.305-.13.786.568.699.306 1.616-.262-.044-.306.13-.306.305h-.305c-.306-.218-.48-.567-.655-.96v-.611"/><path fill="#914C2B" d="M19.419 6.734c.262-.917-.437-.83-.306-1.616-.043-.393.088-.567.306-.655h.655c.786-.13.698.568 1.615.306v.306c-.698.654-1.615 1.047-2.27 1.659"/><path fill="#3F3628" d="M8.81 6.734c-.132-.786.567-.699.305-1.616.611-.087.698.35 1.266.306v.305c-.568 0-.83.219-.96.655-.219.088-.263.35-.612.35"/><path fill="#279469" d="M19.419 6.734c.655-.612 1.572-1.005 2.227-1.616.567-.043 1.004.088 1.266.306v.655c-.262.262-.873.174-.96.655-.525-.088-.568.305-.961.305-.699-.873-.917.874-1.921 0 .043-.174.087-.349.349-.305"/><path fill="#FBE531" d="M24.222 5.162c.174.305.742 1.179-.306.96-.437-.13-.524-.567-.96-.655.087-.262 0-.61.305-.654.524-.088.568.305.96.349"/><path fill="#F58548" d="M25.532 5.468c-.131.654.218.83.305 1.266-.742.349-.13 2.008-.305 2.881-.568-.786-.524-.218-1.267-.655v-.654H20.73V8c.611-.131 1.92.437 1.615-.655.96-.48 2.096.96 1.921-.306.524-.218.219-.742-.305-.655V6.08c1.048.218.524-.655.305-.96.393-.044.262-.568.306-.961.873-.131.306 1.222.96 1.31"/><path fill="#D27032" d="M18.764 7.694c-.873-.524-1.572-1.179-2.576-1.615.306-.874 1.004.436 1.921 0 .175.393.35.742.655.96v.655"/><path fill="#C35529" d="M21.995 6.734c.087-.437.698-.35.96-.655.83-.088.262 1.222 1.267.96.174 1.267-.96-.174-1.921.306.087-.35-.044-.524-.306-.611"/><path fill="#40BC9C" d="M4.356 8c1.135-.786 2.183-1.66 3.536-2.227v.655c-1.266.742-2.227 1.834-3.537 2.576V8"/><path fill="#2EAC7A" d="M11.734 5.773c.262.35.437.873.306 1.616-.175.48-.48.785-.96.96V7.083c.043-.524-.175-1.223.305-1.266.131-.044.218-.044.35-.044"/><path fill="#FCEB1D" d="M13.961 7.04c-.786.261-.96 1.178-1.615 1.615-.393-.044-.568.087-.655.305h-.96c.043-.262.305-.305.305-.655.48-.174.786-.48.96-.96.655-.088.874-.655 1.267-.96.305 0 .393-.263.654-.306a7.4 7.4 0 0 1 .044.96"/><path fill="#F26558" d="M26.492 5.468c-.174 1.44 1.135 1.44 1.266 2.576-.043.393.044.916-.305.96-.306-.175-.568-.393-.655 0h-.306c-.218-.742-.305-1.615-.655-2.227-.087-.436-.436-.61-.305-1.266 0-.174.043-.393.305-.305.393-.131.568 0 .655.262"/><path fill="#914C2B" d="M10.424 5.773c-.087.742.088 1.223.655 1.266V8c-.655-.392-1.222-.916-1.615-1.615.13-.349.437-.611.96-.611"/><path fill="#058D54" d="M19.113 7.04c1.004.872 1.266-.874 1.921 0-.087.348-.655.217-.655.654-.436.393-1.179.393-1.615 0V7.04h.35"/><path fill="#FAB289" d="M4.356 8.96c1.31-.742 2.226-1.79 3.536-2.576-.262.35-.437.874-.306 1.616-.742.218-.13 1.79-.305 2.576h-.306v-2.27c-.655.436-1.091 1.047-1.266 1.92-.655-.13-.83.219-1.266.306-.087-.48-.087-1.048-.087-1.572"/><path fill="#EE5647" d="M13.961 7.04c.393 0 .437-.394.96-.306 1.049.13 1.398.916 2.227 1.266-.523 1.266-3.274.349-4.802.655.655-.393.83-1.31 1.615-1.616"/><path fill="#4CA979" d="M1.78 8.96c.13-.61.916-.567.654-1.615h.306c-.306 1.484-.524 3.1-1.615 3.842-.044-1.004.873-1.048.654-2.227"/><path fill="#F8CEB1" d="M5.622 10.27c.218-.873.655-1.484 1.266-1.92v1.615c-.262.218-.699.305-1.266.305"/><path fill="#058D54" d="M18.153 9.615c-1.223-.262-1.223.699-1.616 1.267-.305.13-.567.262-.655.655-.305.218-.349.742-.96.654.043.612.218 1.048.655 1.267-.044.262.13.305.305.305v.306c-.262-.044-.305.13-.305.306h-.96c-.438-.393-.525-.131-.961 0v-.306c.043-.262.305-.306.305-.655 1.092-1.572-1.266-.96-.305-2.227.654.96 2.838-1.834.305-1.266h-.305v-.306c1.178.219 1.397-.524 2.576-.305-.874-.742-3.1-.131-4.498-.306.088-.262.262-.393.655-.305 1.529-.262 4.28.654 4.803-.655.611.48 1.66.48 1.921 1.266-.043.35-.611.262-.96.305"/><path fill="#059A64" d="M13.655 11.187c-.96 1.266 1.441.655.306 2.227.087-.917-.087-1.092-.655-.655.044-.262-.13-.306-.306-.306-.218-1.353-1.397-1.79-2.576-2.226h-.305c1.222-.306 2.532-1.005 3.536-.655v.305c-1.31-.087 0 .873 0 1.31"/><path fill="#EE5647" d="M26.798 8.96c.087-.392.349-.174.655 0-.044.568.087 1.005.305 1.267v1.266h-.305c-.131-.611-.917-.568-.655-1.616V8.96"/><path fill="#02A15F" d="M11.734 8.96c1.398.219 3.624-.436 4.498.306-1.18-.218-1.398.568-2.577.306-1.004-.35-2.314.349-3.536.655h-.655c-.655-.568 1.79-.743 2.27-1.267"/><path fill="#F47942" d="M24.222 8.96c.742.393.698-.174 1.266.655.655.088 1.004-.043.96-.655h.306v.961h-.96c.174.262.349.524.305.96-.305-.218-.48-.567-.655-.96-.262.044-.305.306-.655.306 0 .567.219.83.655.96-.305.437-1.091.393-1.266.96.087.481.96.132.96.656-1.004.262-1.004-.524-1.615-.655 0-.568-.218-.83-.655-.96.088-.481.96-.132.96-.656-.043-.567.394-.655.306-1.266.088-.087.088-.175.088-.306"/><path fill="#692A23" d="M22.3 10.576c-.087-.742-1.004-.699-1.266-1.266h3.231c.088.61-.349.698-.305 1.266-.393-.087-1.354-1.397-1.266 0H22.3"/><path fill="#05A773" d="M29.068 9.31v.96h-1.266c-.262-.305-.35-.742-.306-1.266.393-.044.262-.568.306-.96.437.13.524.567.96.654.306-.043.219.35.306.612"/><path fill="#FDEC90" d="M1.125 11.187C2.216 10.445 2.39 8.83 2.74 7.345c-.044-.786.48-1.004.96-1.266v.655c-1.222 1.571-.261 3.493-1.615 5.108-.393.568-.655 1.266-1.615 1.266.043-.786.174-1.484.655-1.92"/><path fill="#DB3729" d="M18.764 13.108c-.131-.349-.568-.83-.655-.305-.306 0-.262-.393-.306-.655 1.005-.611-.349-1.528-1.266-1.266.35-.612.393-1.529 1.616-1.267.567.743.96 1.616 1.615 2.227.131.611.699.786.655 1.616-.044.393-.567.262-.96.305-.306-.13-.612-.262-.699-.655"/><path fill="#D0AE35" d="M13.655 11.187c0-.48-1.31-1.44 0-1.266h.306c2.532-.524.35 2.27-.306 1.266"/><path fill="#E56942" d="M25.226 12.803c0-.524-.873-.175-.96-.655.218-.524.96-.524 1.265-.96-.392-.132-.654-.394-.654-.961.305 0 .392-.262.654-.306.175.393.35.742.655.96.262.044.306.306.655.306v.96c-.349.612-.786 1.136-.96 1.922v.305c-1.223-.218.087-.916-.655-1.571"/><path fill="#F79B76" d="M4.006 11.536c.743-.523 2.052-.48 2.882-.96h.306v1.921c-1.354-1.31-2.402-.262-1.922 1.921h-.305v-2.227c-.524.088-.568-.305-.96-.305v-.35"/><path fill="#DC5D35" d="M16.537 10.882c.917-.262 2.27.698 1.266 1.266.088-.568-1.79-.568-1.266.305h-.305c.087-.524-.306-.567-.306-.96.044-.306.306-.48.611-.611"/><path fill="#CC9032" d="M21.69 11.187c.349.044.48-.48.654 0-.174 0-.349.262 0 .306.131-.437.393-.524 0-.96h.306c-.044-1.398.917-.088 1.266 0 0 .523-.873.174-.96.654-.655-.175-.699 1.223-.306.306.306.917.48-.088.655 1.615-.262-.043-.306-.305-.655-.305.13-.524-.262-.612-.655-.655.044-.393-.087-.568-.306-.655v-.306"/><path fill="#EED333" d="M23.261 13.108c-.175-1.659-.306-.698-.655-1.615-.35.917-.35-.48.306-.306.393.131.655.393.655.96-1.005.306 2.052 2.446.305 1.616-.305-.087-.174-.655-.611-.655"/><path fill="#05A773" d="M1.78 13.108c-.175.568.392 1.878-.306 1.921-.306 0-.262-.392-.306-.654-.393.043-.262.567-.305.96H.557c-.306 0-.262-.393-.306-.655.088-.262 0-.611.306-.655.48-.174.786-.48.96-.96.044.043.132.043.262.043"/><path fill="#DB5928" d="M16.232 12.497h.305c-.524-.873 1.397-.873 1.266-.306.088.262 0 .612.306.655.087-.48.524-.043.655.306-.306 0-.262.393-.306.655h-.305c-.393-.044-.262-.568-.306-.96-.393.13-.655.392-.655.96h-1.266c-.175 0-.393-.044-.306-.306.219-.305.131-.917.612-1.004"/><path fill="#FAAC70" d="M8.198 12.148c-.088 1.179.043 2.095.305 2.881-.96 1.092-.305-1.397-1.266-.305v-1.616c.262.044.306.306.655.306-.087-.393-.087-2.27.306-1.266"/><path fill="#D27032" d="M8.503 12.148c-.13 1.31.874.043.961-.306h.96c.088.873-.436 2.358.961 1.921.044.262-.13.306-.306.306H9.813c.219-2.052-2.488-.611-.655 0-.262.305-.349.742-.305 1.266-.262.044-.306-.13-.306-.306a6.506 6.506 0 0 1-.306-2.881h.262"/><path fill="#692A23" d="M21.034 13.763c0-1.397-.567-1.746.655-2.226v.96c-.742-.262-.043 2.489-.655 1.266"/><path fill="#D94636" d="M21.69 12.497v-.96c.261.087.392.261.305.654.393.044.742.088.655.655-.175.48.393 1.66-.306 1.616-.043-.35-.305-.175-.305 0-.743-.088-.175-1.397-.35-1.965"/><path fill="#DFC633" d="M24.57 14.724c-.13-.306-.261-.568-.654-.655v-.306c1.746.83-1.354-1.266-.306-1.615.612.13.568.917 1.616.655.786.655-.524 1.353.655 1.615.043.262.305.306.305.655-.567 0-.83.262-.96.655a2.24 2.24 0 0 1-.655-1.004"/><path fill="#B13727" d="M4.006 11.842c.393 0 .437.393.96.306v2.226c-.043.568.394.655.306 1.267v.305c-.349-.087-.218-.655-.654-.655.043-1.31-.699-1.964-.612-3.449"/><path fill="#902A1D" d="M9.158 14.069c-1.877-.611.874-2.052.655 0h-.655"/><path fill="#B13727" d="M15.882 13.763h1.266c0-.567.262-.83.655-.96.044.393-.043.917.306.96.044.568-.393.655-.306 1.266h-.96c-.742.088-.35-.916-.96-.96v-.306"/><path fill="#D94636" d="M19.419 15.684v-1.92c.393-.045.917.043.96-.307.262-.043.306.131.306.306-.262.044-.306.306-.655.306-.087.917.742.96.655 1.92.044.394-.087.568-.306.656.044-.262-.13-.306-.305-.306v-.96c-.262.043-.306.305-.655.305"/><path fill="#DB3729" d="M20.729 15.99c.087-.917-.743-.96-.655-1.921.305 0 .393-.262.655-.306-.568 1.092.262 1.878 1.266 2.227v.655c-.262-.044-.306.13-.306.305-.611-.043-.218-1.047-.96-.96"/><path fill="#B13727" d="M22.3 14.418c.7.044.132-1.135.306-1.615.306 0 .393.262.655.305-.393 1.005-.567 2.183-1.266 2.882.044-.393-.087-.568-.306-.655.175-.306.743-.306.612-.917"/><path fill="#EE6B32" d="M23.916 14.069c-.524 1.179-1.44 1.965-1.266 3.842 0 .568-.219.83-.655.96-.873-.087-1.048 2.096-1.616 1.267v-.655c.786-.699 1.529-1.441 1.616-2.882v-.655c.698-.698.917-1.877 1.266-2.881.437 0 .306.567.655.655v.349"/><path fill="#FAB289" d="M7.237 14.724c.96-1.092.306 1.397 1.266.305 0 .175.044.393.306.306-.218.96.35 1.179.306 1.921-.306-.175-1.18-.742-.96.306-.656-.088-.612-.873-1.267-.96-.044-.743-.044-1.485.35-1.878"/><path fill="#05A773" d="M13.306 15.379c-.655.61-1.353 1.222-1.615 2.226h-.306c-.262-.043-.306.131-.306.306-1.266-.35.088-.96 0-1.921.743-.437.743-1.572 1.616-1.921.437.393.524.13.96 0v.611c-.305.044-.261.437-.349.699"/><path fill="#059A64" d="M14.616 14.418h.96c0-.174.044-.393.306-.305.612.043.219 1.047.96.96.088.742.35 1.397.961 1.616.175.48.48.786.655 1.266-.218.305-.567.48-.96.655-.873-.088-.568-1.354-1.266-1.616-.131-.437-.568-.524-.655-.96-.306-.437-.306-1.18-.96-1.266v-.35"/><path fill="#C54336" d="M21.69 12.497c.174.568-.394 1.877.305 1.921 0-.175.262-.35.306 0 .087.611-.437.611-.655.96.262.088.393.263.305.656-1.048-.35-1.833-1.136-1.266-2.227h.306c.655 1.179-.044-1.572.698-1.31"/><path fill="#F58875" d="M5.316 14.418c1.223.48.044-1.44 1.266-.96-.393.786-.262 2.052-1.266 2.226.087-.61-.35-.698-.305-1.266h.305"/><path fill="#692A23" d="M23.61 15.99c.262-.35.437-.873.306-1.616.262.044.306.306.655.306.175.393.35.742.655.96v.306c-.568.044-1.092.044-1.616.044"/><path fill="#F79B86" d="M4.661 15.379c.437 0 .306.567.655.655-.044.567.393.655.306 1.266.043.393-.088.567-.306.655-.611-.044-.218-1.048-.96-.96-.48-.088-.131-.961-.655-.961v-.306c.524.044.524-.35.96-.35"/><path fill="#F1D14D" d="M19.419 15.684c-.437.218-.611.7-.655 1.266.044.437.044.917-.306.961-.174-.48-.48-.786-.655-1.266.48-.698.568-1.79.655-2.882.088-.262 0-.611.306-.654.087.348.35.48.655.654v1.921"/><path fill="#40BC9C" d="M11.08 15.99c.087.96-1.267 1.572 0 1.921 0-.175.043-.393.305-.306v.306c-.131.437-.568.524-.655.961-.262-.044-.306.13-.306.305-.916-.043-.567-1.353-.654-2.227v-.654c.13-.743.218-1.485 1.266-1.267.043.35.043.655.043.96"/><path fill="#8C3425" d="M14.267 17.256c.044-.262.305-.305.305-.655.437-.13.524-.567.961-.655.087.437.524.524.655.961v.96c-.699-.83-1.048-.043-1.921-.61"/><path fill="#EB7A51" d="M14.616 16.645v-1.921c.655.087.655.873.96 1.266-.48.087-.523.524-.96.655"/><path fill="#FAB289" d="M3.351 17.911c.699-.13.262-1.703 0-1.92-.567-.132-.61.261-.655.654-.436-.218-.61-.699-.654-1.266.392.262.873.436 1.615.305v.306c.524 0 .175.873.655.96v2.227c-.393-.305-.611-.83-.96-1.266"/><path fill="#C54336" d="M22.65 17.911c.524-.436.48-1.44.96-1.92h1.616c.35.086.48.348.655.654-.786-.48-.96 1.092-.306.96-.218.524-.742.219-.655-.305-.567-.044-.698.393-1.266.306.044 1.178.48 1.047-.306 1.615-.305.262-.742.35-1.266.306v-.655c.306-.132.568-.393.568-.96"/><path fill="#E88559" d="M19.768 16.645c.262.044.306-.131.306-.306.174 0 .393.044.305.306v1.266h-.96c-.131-.655.218-.83.35-1.266"/><path fill="#EB4935" d="M19.768 16.645c-.087.436-.437.611-.306 1.266h.961v-1.266c.262-.088.393-.262.306-.655.742-.087.349.917.96.96-.262 1.005-1.222 1.354-1.266 2.577-.262.043-.306.305-.655.305.131-.698-.48-.611-.96-.655-.612-.043-1.092-.218-1.267-.655.393-.174.743-.349.96-.655.394-.043.35-.523.307-.96.218-.131.48-.262.96-.262"/><path fill="#F47942" d="M20.38 20.138c.567.83.742-1.354 1.615-1.266v.655c-.699.261-.786 1.135-1.266 1.615-.306.175-1.179 1.31-1.266.655.087-.786.305-1.44.917-1.66"/><path fill="#FCEF6E" d="M4.356 16.95c.742-.087.349.917.96.961-.13.786.568.699.306 1.616v.305c-.393.262-.874.437-1.616.306-.262.044-.305-.131-.305-.306.567.131.61-.262.655-.655v-2.226"/><path fill="#902A1D" d="M14.267 17.256c.873.568 1.222-.218 1.921.655 0 .568-.218.83-.655.96h-.655c-.087-.349-.655-.218-.655-.654.044-.306.044-.611.044-.96"/><path fill="#F58875" d="M5.622 19.527c.262-.918-.437-.83-.306-1.616.262-.087.393-.262.306-.655.262-.044.305.131.305.306.175 1.31 1.135 1.877 1.266 3.187-.043.262-.305.306-.305.655h-.611c-.131-.524.262-.611.655-.655-.524-.349-.917-.742-1.31-1.222"/><path fill="#F1D14D" d="M29.374 17.911c-.48.699.043 2.402-.96 2.576-.743-.611-.743-1.965-.306-2.881.087-1.005-.917.83-.961-.306.568 0 .83-.218.96-.655h.655c.044.567-.349 1.572.612 1.266"/><path fill="#E56942" d="M25.226 19.527v1.266c-.699.044-1.004-.262-.96-.961-.525-.087-.568.306-.961.306-.568-.219-.044-.568 0-.961.786-.568.349-.392.305-1.615.612.087.699-.35 1.267-.306-.088.524.436.874.654.306 1.092.655-.567 1.135-.305 1.965"/><path fill="#F9DC1D" d="M1.78 18.566c-.219 1.66-.655-.742-1.267-.655v-2.576H.82c-.35 1.747.742 2.052.96 3.231"/><path fill="#A82E23" d="M12.04 18.217c-.175.48-.48.786-.655 1.266h-.306c-.305 0-.261-.393-.305-.655.087-.437.524-.524.655-.96.218.087.305.349.611.349"/><path fill="#EE5647" d="M16.232 16.95c.698.263.436 1.485 1.266 1.616.218.437.698.611 1.266.655 0 .306-.393.262-.655.306-.655-.088-1.004.043-.96.655h-.306c-.262-.175-.524-.35-.96-.306h-.961c0-.306.393-.262.655-.306.48-.13-.044-.262 0-.655.393-.13.655-.393.655-.96V16.95m-2.577 2.226h.655c-.393.437-.13.524 0 .96h-.655c-.655.088-1.004-.043-.96-.654.393.044.567-.088.655-.306h.305"/><path fill="#8C3425" d="M26.492 18.566c-.305.131-.567.262-.655.655-.262.044-.305.306-.655.306-.218-.787 1.398-1.31.306-1.921-.611.13-.48-1.441.306-.961.218.655.83.917.698 1.921"/><path fill="#DC5D35" d="M21.995 19.527c.567.043 1.004-.088 1.266-.306-.044.393-.568.742 0 .96-.044.263-.306.306-.306.656-.48-.524-1.484-.132-1.92.305h-.306c.48-.524.567-1.397 1.266-1.615"/><path fill="#AE6D2C" d="M26.492 18.566c.699.044.699.786.655 1.616h-.96c.262-.393.393-.874.305-1.616"/><path fill="#F26558" d="M1.125 19.832c-.044-1.222.262-.13.96-.305.699.174.437-.612.96-.655.263.261.175.873.656.96 0 .175.043.393.305.306.044.262.306.305.306.655-.742 0-.96-.568-1.921-.306-.393.044-.742.087-.655.655-.83.175.262-1.528-.611-1.31"/><path fill="#DB3729" d="M7.237 20.793c-.174-1.31-1.135-1.878-1.266-3.188.262-.043.306-.305.655-.305.175.48.48.786.96.96v2.577c-.13-.044-.261-.044-.349-.044"/><path fill="#FAAC70" d="M28.413 20.487c1.005-.174.48-1.833.96-2.576.263.044.306.306.656.306-.437 1.266-1.004 2.445-1.266 3.842h-.306c-.044-.524-.044-1.048-.044-1.572"/><path fill="#F58875" d="M7.543 20.793v-.655h1.615c1.048 1.004-.83.218-.96.96-.262-.043-.35-.305-.655-.305"/><path fill="#F58548" d="M19.419 21.753c.087.699 1.004-.436 1.266-.655h.306v.306c-.437.218-.612.699-.655 1.266-.306 0-.262-.393-.306-.655-.48.393-.48 1.223-.96 1.616h-.306v-.96c-.437.13-.524.567-.96.654v-.655c.261-.043.305-.305.654-.305.437-.088.524-.524.96-.612"/><path fill="#C35529" d="M22.956 20.793c-.044.436-.044.917.305.96-.043.612-1.048.219-.96.96-.568-.305-1.005-.698-1.267-1.265v-.306c.437-.48 1.441-.873 1.922-.35"/><path fill="#E86556" d="M24.222 23.325c.174-1.746 1.572-2.27 1.615-4.148.088-.35.35-.48.655-.655.087.742-.044 1.223-.306 1.616h.961v.96c-.742-.043-1.79 2.14-.96 1.616h.305c-.13 1.048-.917 1.397-1.266 2.227-.393-.044-.35-.524-.306-.961.088-.524-.305-.61-.698-.655"/><path fill="#F37668" d="M7.848 23.325c-.174-.786-.61-1.31-.96-1.92 0-.307.262-.394.306-.656h.305c.306 0 .393.262.655.306.044.61.218 1.047.655 1.266.131.611.699.786.655 1.615v.655c-.524.088-.568-.305-.96-.305.043-.35-.088-.568-.306-.655.043-.219-.131-.262-.35-.306"/><path fill="#F79968" d="M8.81 22.365h1.265c.306-1.354-.786-1.354-1.92-1.266.13-.699 2.008.043.96-.961 0-.83.218-.393.655-.306.13-.786-.568-.698-.306-1.615.044-.524-.175-1.223.306-1.266.043.916-.262 2.183.655 2.226 0-.174.043-.392.305-.305.088.262 0 .61.306.655.044.262-.131.305-.306.305h-.655c.48.699.917 1.441 1.267 2.227.261.306.349.742.305 1.266-.567.087-1.615-.305-1.266.655 0 .83-.218.393-.655.305.044-.261-.131-.305-.306-.305.088-.786-.436-1.004-.61-1.615"/><path fill="#FAB289" d="M18.458 22.365c-.218-.873 1.441-1.485.655-1.921.087-.35.655-.219.655-.655.306 0 .393-.262.655-.306v.655c-.655.218-.873.873-.96 1.616-.48.087-.568.523-1.005.61"/><path fill="#F7D36C" d="M2.74 21.448c-.306 0-.262.393-.306.655-.305 0-.262.393-.305.654v.655c-.612-.916-1.005-2.008-1.267-3.187.175 0 .393-.043.306-.306.873-.218-.218 1.529.655 1.267-.131-.524.262-.612.655-.655.087.174.262.436.262.917"/><path fill="#FBE951" d="M4.661 22.06c-.13 1.09-1.703.348-2.227 0 .088-.263 0-.612.306-.656.306 0 .262.393.306.655.83.087.262-1.222 1.266-.96h.306a7.4 7.4 0 0 1 .043.96"/><path fill="#2EAC7A" d="M6.277 22.365c0 .305-.393.262-.655.305-.437-.131-.524-.568-.96-.655v-.96c1.222-.175 1.09.873 1.615 1.31"/><path fill="#F79B76" d="M6.888 21.448c.35.61.786 1.135.96 1.92-1.004.044-1.79-.13-2.226-.654.262-.087.61 0 .655-.306.392-.043.262-.567.305-.96h.306"/><path fill="#059A64" d="M20.38 22.714c.043-.611.218-1.048.654-1.266.306.567.7 1.004 1.267 1.266.043.61.218 1.047.655 1.266v.306c-.655 0-.393.873-1.267.655-.043-.83-.567-1.135-.96-1.616.043-.262-.131-.305-.306-.305-.043-.088-.043-.219-.043-.306"/><path fill="#F79968" d="M4.356 23.675c-.874-.481-1.485.043-2.227-.96.087-.263 0-.613.305-.656.524.35 2.096 1.092 2.227 0 .437.087.524.524.96.655.481.48 1.267.655 2.227.655.175 0 .393.043.306.306-.655-.175-2.401.087-1.266.655v.96c-.568-.305-1.135-.611-.96-1.615H4.354"/><path fill="#EE6B32" d="M17.803 23.325c.437-.087.524-.523.96-.655v.96c.22.306.743.35.656.961-.48-.524-1.441-.349-1.266.655-.743.568-2.49 1.965-1.267 2.577-.262.087-.393.261-.305.655-.48-.35-.83-.35-1.266 0-1.31-.35-1.267.654-2.227.654.218-1.353 1.877-1.31 2.227-2.576 1.047-.83 1.964-1.834 2.488-3.231"/><path fill="#F1D14D" d="M2.085 22.714c.742 1.004 1.354.48 2.227.96-.524.044-1.135-.043-.96.655-.656-.087-.612-.873-1.267-.96v-.655"/><path fill="#F47942" d="M12.695 25.246c.044-.349-.087-.567-.306-.655-.174-.742 1.267.393.306-.305.131-.48.393.13.96 0v.305c.175.48.48.786.961.96.087.35.655.22.655.656v.306c-.35 1.222-2.008 1.178-2.227 2.576 1.005.043.917-1.005 2.227-.655-.655.48-2.314.917-.96 1.615h-2.577c-.567.131-.61-.262-.655-.655 0-.305-.261-.393-.305-.655.873.044 1.659.044.96-.655h1.616c-.131-.436-.568-.48-.655-.96h.96c.132-1.048-.567-1.31-.96-1.878"/><path fill="#EE5647" d="M20.729 23.325c.174 1.048-.219 1.485-.306 2.227h-.306c.044-.35-.087-.567-.305-.655 0-.83-.175-1.877.655-1.921.13.087.305.087.262.349"/><path fill="#D9CC4C" d="M27.453 22.06c.13.785-.568.698-.306 1.615.611-.044.218-1.048.96-.961-.218 1.877-1.44 2.838-2.575 3.842-.175-1.135 1.135-.786.96-1.921-1.048.262-1.66.873-1.921 1.921-.873-.218-.655.655-1.266.655 0-.175-.044-.393-.306-.305 0-.786 2.97-1.79.655-1.922-.087-.83.437-1.047 1.266-.96-.043.436-.043.917.306.96.35-.83 1.179-1.178 1.266-2.226.131-.437.393-.699.96-.699"/><path fill="#EED333" d="M4.661 24.94c-.35-1.004.524-.785.655-1.265h.655c-.13 1.004.393 1.31.96 1.615.044.393-.087.568-.305.655-1.179.131-.83-1.179-1.965-1.004"/><path fill="#F26558" d="M9.813 24.286a6.71 6.71 0 0 0 1.921 1.92c-.13.525.262.612.655.656.262-.044.306.13.306.306.087.436.524.523.655.96h-1.616c-.436.044-.917.044-.96-.305 0-.306.393-.263.655-.306-.393-.655-.917-1.18-1.616-1.616.219-1.091-1.179-.524-1.266-1.266v-.305c.393 0 .437.392.96.305v-.655c.175 0 .35.044.306.306"/><path fill="#902A1D" d="M13.655 24.635c.48-.524 1.441-.35 1.267.655-.262-.044-.306.131-.306.305-.48-.174-.786-.524-.96-.96"/><path fill="#F79B86" d="M3.351 25.246c-.742-.349-1.179-.96-1.266-1.92.655.087.611.872 1.266.96v.96"/><path fill="#FBE531" d="M6.582 26.556c-1.004.218-.611-.873-1.615-.655 0-.393-.393-.436-.306-.96 1.135-.175.786 1.135 1.921.96v.655"/><path fill="#902A1D" d="M11.734 26.207c-.786-.524-1.44-1.136-1.92-1.921.392.087.654.48.654-.306h.655c.131.83.087 1.18.611 2.227"/><path fill="#EB4935" d="M19.113 25.596c.306 0 .262-.393.306-.655h.305c.262.087.393.262.306.655v.305c-1.222.218.35 1.354-1.266 1.267-.262-.873.48-.83.35-1.572"/><path fill="#432221" d="M20.074 25.596h.305c.088-.743.524-1.18.306-2.227.393.48.917.786.96 1.616-.392.567-.654 1.265-1.615 1.265v-.305c.044-.131.044-.262.044-.35"/><path fill="#2C5039" d="M9.813 25.901c-.83.35-1.266-1.484-1.266 0-.437 0-.306.568-.655.655-.262-.917.437-.83.306-1.615-.044-.262.13-.306.305-.306.088.742 1.529.175 1.31 1.266"/><path fill="#EA8876" d="M24.57 26.556c.263-1.048.874-1.659 1.922-1.921.175 1.135-1.135.786-.96 1.921-.917.044-.568 1.354-1.616 1.266.175-.48.48-.83.655-1.266"/><path fill="#F1D14D" d="M12.695 25.246c.393.568 1.092.83.96 1.921h-.96c0-.174-.044-.393-.306-.305-.61-.611-.043-.786 0-1.616h.306"/><path fill="#D94636" d="M21.69 26.207c-.83.917-2.096 1.31-2.882 2.227-.568-.175-1.354-.175-1.616-.655.306-.262.742-.35 1.266-.306-.436-1.135 0-1.179-.305-2.227.262.175.524.35.96.306.131.786-.567.699-.305 1.616 1.615.043.087-1.092 1.266-1.267v.306c.96 0 1.179-.742 1.615-1.266.874.218.655-.655 1.267-.655 1.222.48.043-1.441 1.266-.961.393.044.742.088.655.655-.83-.087-1.397.131-1.266.96-.7.35-1.092 1.049-1.922 1.267"/><path fill="#058D54" d="M9.813 25.901c.655.393 1.223.917 1.616 1.616-.262.087-.612 0-.655.305-.524.088-.568-.305-.96-.305.13-1.004-.787-.917-1.267-1.266v-.306c0-1.528.437.306 1.266-.044"/><path fill="#614E30" d="M6.582 26.556c-.524 1.528 1.921 1.834 1.267 0 .349-.087.218-.655.654-.655v.306c-.13.698-.742 1.746.306 1.921.393-.044.568.087.655.306h-.96c-1.922-.088-2.839-1.223-3.843-2.227 0-.175.044-.393.306-.306 1.004-.218.611.873 1.615.655"/><path fill="#D0AE35" d="M22.3 26.862h.656c.262-.044.305.13.305.306-.393.654-2.401.698-1.615 1.615h-.96c-.394-.044-.918.044-.961-.306.61-.83 1.79-1.048 2.576-1.615"/><path fill="#926F30" d="M8.81 28.128c-1.049-.174-.481-1.223-.307-1.92.48.392 1.441.26 1.267 1.265-.568.044-.655-.393-1.267-.305-.087.523.306.567.306.96"/><path fill="#B13727" d="M14.267 30.05c-1.354-.656.305-1.092.96-1.616.48-.35.83-.35 1.267 0 0 .524.873.174.96.655-.043.393-.524.349-.96.305-.393-1.004-.96.35-.306.655H14.267"/><path fill="#E97647" d="M17.498 29.088c-.088-.48-.96-.13-.96-.654-.044-.35.087-.568.305-.655h.306c.261.48 1.047.48 1.615.655h.96c.044.393.568.262.961.305-.306.568-1.135.568-1.615.96 0-.654-.786-.654-1.572-.61"/><path fill="#F58968" d="M17.498.97c-1.004.131-1.266-.436-1.921-.655V.01c.96 0 2.095-.175 1.92.96"/><path fill="#F1D14D" d="M15.577 1.93c-.044-.48-.786-.305-1.266-.305V1.32c-.48-.48-.262-1.005.654-.961.262.786 1.136 1.004 1.616 1.616-.35-.044-.699-.044-1.004-.044"/><path fill="#F26746" d="M20.074 2.586c-.48-.48-1.354-.568-1.616-1.266.088-.262.262-.393.655-.306.088.742 1.092.568.96 1.572"/><path fill="#FAB289" d="M16.537 1.93c.393 1.267-2.183 1.223-2.576.656.262-.48.83-.699 1.616-.655h.96"/><path fill="#F37668" d="M8.198 2.28v.306c1.659-.219 1.31 1.048.305 1.266-.567-.48-1.92.218-2.881.306.262-1.18 1.266-1.703 2.576-1.878"/><path fill="#926F30" d="M17.498 4.813c.567-.306.83-.874 1.92-.655v.305c-.261.088-.392.262-.305.655-.393 0-.436-.393-.96-.305v.655h-.655v-.655"/><path fill="#88B687" d="M24.222 5.162c-.393 0-.437-.393-.96-.306v-.655h1.265c0 .35.088.873-.305.96"/><path fill="#FAAC70" d="M7.848 5.773c.175-.655.612-1.31 1.267-.655.262.917-.437.83-.306 1.616-.524.087-.568-.306-.96-.306v-.655"/><path fill="#AF9436" d="M16.232 6.079c-1.005-.612.96-.96 1.266-1.266v.654h.655v.655c-.917.437-1.66-.916-1.921-.043"/><path fill="#EE5647" d="M4.006 5.468c.175-.175 1.528-.743 1.616 0C5.49 6.603 4.18 6.603 4.356 8.044v2.576c-.262-.044-.306.13-.306.305-.742-.742-.131-2.881-.306-4.148v-.655c.262-.043.219-.436.262-.654"/><path fill="#F79B76" d="M11.385 5.773c-.48.044-.306.786-.306 1.266-.567-.087-.742-.567-.654-1.266v-.306h.96v.306"/><path fill="#F26746" d="M11.734 5.773c.786-.044 1.354.175 1.616.655-.437.306-.611.873-1.266.96.043-.742-.088-1.222-.35-1.615"/><path fill="#432A1E" d="M24.222 7.04c-1.048.261-.437-1.049-1.267-.961v-.655c.48.087.524.524.961.655v.305c.524-.043.873.48.306.655"/><path fill="#926F30" d="M25.532 9.615c.218-.873-.393-2.532.305-2.881.35.611.393 1.528.655 2.226.044.568-.306.743-.96.655"/><path fill="#F79968" d="M8.81 7.389c-.481.087-.132.96-.656.96-.262-.043-.305-.305-.655-.305-.087-.743.044-1.223.306-1.616.393 0 .437.393.96.306.044.218.044.436.044.655"/><path fill="#C54336" d="M22.3 7.389c.35 1.091-1.004.48-1.615.655-.175 0-.393-.044-.306-.306 0-.437.568-.306.655-.655.393 0 .437-.393.961-.306.262.044.393.219.306.612"/><path fill="#F7D36C" d="M27.758 8c-.13-1.135-1.44-1.135-1.266-2.576.917.917 1.79 1.834 2.227 3.187-.437-.044-.524-.48-.96-.611"/><path fill="#C65835" d="M8.198 9.31v-.96c.524 0 .174-.874.655-.961.218.873 1.353.785 1.266 1.92-.742-.087-1.223.044-1.616.306-.262.044-.305-.13-.305-.305"/><path fill="#279469" d="M20.729 8.349h3.536V9.31h-3.23a1.504 1.504 0 0 1-.961-.961h.655"/><path fill="#F7985A" d="M7.237 10.576c.175-.742-.393-2.314.306-2.576.306 0 .393.262.655.305v.961c-.873-.087.305 1.834-.96 1.31"/><path fill="#12B48D" d="M11.08 8.349c0 .306-.263.393-.306.655h.96c-.48.524-2.925.699-2.226 1.266.043.262-.131.306-.306.306-.699.13-.611-.437-.655-.96.393-.263.873-.437 1.615-.306.044-1.136-1.091-1.048-1.266-1.922v-.654c.306 0 .393-.262.655-.306.393.655.917 1.179 1.616 1.615-.088.088-.088.175-.088.306"/><path fill="#F58548" d="M7.237 10.576c1.266.524.131-1.397.96-1.266 0 .174.044.393.306.305.044.524-.043 1.092.655.96-.13.612-.917.568-.655 1.616h-.305c-.35-1.048-.35.874-.306 1.267-.305 0-.393-.262-.655-.306v-2.576"/><path fill="#F26558" d="M3.7 6.734c.219 1.266-.436 3.405.306 4.148v.654h-.96c-.262.175-.524.35-.96.306 1.353-1.615.392-3.536 1.615-5.108"/><path fill="#40BC9C" d="M5.622 10.27c.567.044 1.004-.087 1.266-.305v.655c-.83.48-2.14.393-2.882.96v-.655c0-.174.044-.393.306-.305.436-.131.655-.524 1.31-.35"/><path fill="#926F30" d="M20.38 10.27c-.874-.13.262 1.747-.655 1.616-.655-.611-1.048-1.528-1.616-2.227.393-.044.917.044.96-.306.481.262 1.005.48 1.31.917"/><path fill="#B24A2C" d="M19.768 11.842c.873.131-.262-1.746.655-1.615.087.436.524.523.655.96h.655v.306c-1.223.48-.655.83-.655 2.226h-.306c0-.174-.043-.392-.305-.305-.044-.786-.568-.96-.699-1.572m7.99-.306V10.27h.306c.218.743 1.048.874 1.266 1.616-.262.043-.305.305-.655.305.219-.698-.393-.655-.917-.655"/><path fill="#F79968" d="M11.734 11.842H9.508c.087-.742 1.135-.611.96-1.615 1.179.436 2.314.873 2.576 2.226-.393.131-.655.393-.655.96-.917.175.219-1.702-.655-1.571"/><path fill="#E56942" d="M27.758 11.536c.524.044 1.092-.043.96.655v.306c-1.003.35-.785-.48-1.265-.655v-.306h.305"/><path fill="#EB4935" d="M26.798 12.148v-.96c-.306 0-.393-.263-.655-.306 0-.437-.131-.7-.306-.961h.96c-.261 1.004.525 1.004.656 1.615v.306c.524.131.262 1.004 1.266.655v-.306c.305 0 .393-.262.655-.305.174 0 .393.043.305.305v1.616c-1.135-.175-.83.742-1.92 1.266.043-.393-.088-.568-.306-.655-.175-.48.393-1.659-.306-1.615.044-.35-.087-.568-.35-.655"/><path fill="#12B48D" d="M.47 13.108c.96 0 1.179-.742 1.615-1.266.437 0 .699-.13.96-.305v.96c-.436.131-.523.568-.96.655h-.611c-.175.48-.48.786-.96.96-.044-.349-.044-.654-.044-1.004"/><g transform="translate(0 8.596)"><mask id="b" fill="#fff"><use xlink:href="#a"/></mask><path fill="#DFC633" d="M.164 6.128C-.447 4.338.775 1.63 1.779.364c.219 1.18-.698 1.223-.655 2.227-.48.393-.61 1.092-.654 1.921v.96c-.306.044-.219.394-.306.656" mask="url(#b)"/></g><path fill="#F7B6A3" d="M2.085 13.108c.437-.087.524-.524.96-.655.044.262.306.306.306.655-.742-.087-.35.917-.96.96h-.306v-.96"/><path fill="#692A23" d="M16.232 12.497c-.437.087-.35.699-.655.96-.437-.218-.612-.698-.655-1.266.611.088.655-.436.96-.655.044.393.437.437.35.96"/><path fill="#059A64" d="M11.385 13.763c-1.397.437-.873-1.048-.96-1.92h1.266c-.175.567.436 1.877-.306 1.92"/><path fill="#EB4935" d="M11.385 13.763c.699-.043.131-1.353.306-1.92.873-.132-.262 1.746.655 1.615 0-.568.262-.83.655-.96.174 0 .393.043.305.305 0 .655-.873.393-.655 1.266-.873.306-.873 1.484-1.615 1.921v-.96c-.393-.437-.131-.524 0-.961.218 0 .436-.044.35-.306"/><path fill="#02A15F" d="M12.695 14.069c-.218-.873.655-.655.655-1.266.568-.48.742-.306.655.655 0 .305-.262.392-.306.654-.524.088-.611.35-1.004-.043"/><path fill="#40BC9C" d="M3.351 13.108c-.043.568.393.655.306 1.267H2.391v-.306c.611-.044.262-1.048.96-.96"/><path fill="#A82E23" d="M25.837 14.069c.175-.786.612-1.31.96-1.921.263.087.394.262.306.655v1.615c-.567.044-.654-.393-1.266-.35"/><path fill="#FDF1AF" d="M30.334 13.108c.524.35.524 2.838 0 3.188v-3.188"/><path fill="#FCEF6E" d="M7.237 13.108v1.616c-.35.393-.35 1.135-.305 1.921-.306 0-.262.393-.306.655-.306 0-.393.262-.655.306 0-.176-.044-.394-.306-.306.088-.611-.349-.699-.305-1.266v-.306c1.004-.175.873-1.44 1.266-2.227-1.223-.48-.044 1.441-1.266.96-.48-2.182.567-3.23 1.92-1.92-.043.174-.043.35-.043.567"/><path fill="#DB3729" d="M25.837 14.069c.612-.088.699.35 1.266.305V12.76c.7-.044.131 1.135.306 1.615.044.786-.175 1.31-.655 1.616-.524 0-.174-.873-.655-.96 0-.306-.262-.394-.305-.656.043-.087.043-.174.043-.305"/><path fill="#F37668" d="M9.158 14.069h1.921c-.13.436-.393.524 0 .96-1.091-.218-1.178.524-1.266 1.267-.742.087-.349-.917-.96-.961-.044-.524.043-.96.305-1.266m-5.152-2.227c-.087 1.485.655 2.14.655 3.493-.393 0-.436.393-.96.306-.743.087-1.223-.044-1.616-.306v-1.266h.306v.305h1.266c.087-.61-.35-.698-.306-1.266 0-.305-.262-.393-.305-.655v-.96h.96v.349"/><path fill="#F1D14D" d="M30.334 16.645c-.698-.044-.698-.786-.655-1.616.131-.655.786-2.357 0-2.881.044-.262-.13-.306-.305-.306-.218-.742-1.048-.873-1.266-1.615h.96v-.961c.786.917 1.354 2.052 1.266 3.842v3.537"/><path fill="#B24A2C" d="M18.458 13.763c-.087 1.092-.174 2.183-.655 2.882-.655-.218-.873-.873-.96-1.616h.96c-.087-.61.35-.698.306-1.266h.35"/><path fill="#EE5647" d="M26.798 15.99c.48-.262.698-.786.655-1.616.262.088.393.262.305.655.175.48-.393 1.66.306 1.616-.131.393-.393.655-.96.655.087-.611-.35-.743-.306-1.31"/><path fill="#F47942" d="M29.68 15.03c-.917-.044.392 2.095-.961 1.615h-.655c-.699.044-.131-1.135-.306-1.616 1.092-.523.786-1.44 1.921-1.266v-1.615c.83.524.131 2.27 0 2.881"/><path fill="#40BC9C" d="M2.085 15.379c.044.61.218 1.048.655 1.266.175.48.48.786.655 1.266.305.437.524.96.96 1.266-.043.393-.087.743-.655.655-.436-.087-.349-.698-.654-.96.043-.786-.699-.786-.961-1.267 0-1.047-.917-1.222-.655-2.576.699-.043.131-1.353.306-1.92h.305v.96c.044.436.044.873.044 1.31"/><path fill="#C35529" d="M18.764 16.95c.044-.61.218-1.047.655-1.266.306 0 .393-.262.655-.305v.96c0 .175-.044.393-.306.306-.48 0-.742.13-1.004.306"/><path fill="#E56942" d="M22.65 17.911c-.131-1.834.742-2.663 1.266-3.842.35.087.48.35.655.655-.306 0-.393-.262-.655-.306.087.742-.044 1.223-.306 1.616-.48.48-.436 1.44-.96 1.877"/><path fill="#D27032" d="M1.43 15.03c-.262 1.353.611 1.528.655 2.576v.96h-.306c-.218-1.179-1.31-1.44-.96-3.187.043-.393-.044-.917.305-.96.088.217 0 .61.306.61"/><path fill="#914C2B" d="M2.74 16.645c.044-.393.087-.742.655-.655.262.218.698 1.79 0 1.921-.175-.48-.48-.785-.655-1.266"/><path fill="#DB3729" d="M9.158 17.256c0-.742-.567-.96-.305-1.92.611.043.218 1.047.96.96v.655c-.48.043-.305.786-.305 1.266h-.306c-.044-.306-.044-.611-.044-.96"/><path fill="#BA4D26" d="M13.961 17.605v-.96c.611-.568.35-1.703-.306-1.921v-.306c.437-.13.524-.393.961 0v2.226c0 .307-.262.394-.306.656v.96c-.349-.043-.262-.436-.349-.655"/><path fill="#914C2B" d="M13.306 15.379c-.35.917-.611 1.964-1.615 2.226.305-1.004.96-1.615 1.615-2.226"/><path fill="#FBE951" d="M11.734 17.605c1.005-.262 1.267-1.31 1.616-2.226.087-.262 0-.612.305-.655.655.218.917 1.353.306 1.92-1.222-.086-1.703 1.485-.306 1.616v.961h-.305c-1.048.262-.437-1.048-1.266-.96-.306 0-.393-.263-.655-.306v-.306c.087-.044.174-.044.305-.044"/><path fill="#FBE531" d="M13.961 16.645v.96c-.306 0-.262.394-.306.655-1.397-.13-.916-1.703.306-1.615"/><path fill="#F2B24C" d="M30.334 16.645c.131.786-.567.699-.305 1.615-.306 0-.393-.261-.655-.305-.96.305-.568-.699-.655-1.266 1.353.48.044-1.66.96-1.616-.043.743-.043 1.528.655 1.572"/><path fill="#FACA90" d="M8.503 18.872c.131-.655-.218-.83-.305-1.266-.219-1.049.655-.525.96-.306v.96c.131.525-.262.568-.655.612"/><path fill="#279469" d="M2.085 17.605c.262.524 1.004.48.96 1.267-.523.043-.261.83-.96.655V17.606"/><path fill="#E99F43" d="M13.961 17.605c.087.262 0 .612.306.655 0 .437.567.306.655.655 0 .306-.393.262-.655.306h-.655v-.96c.087-.263.043-.656.35-.656"/><path fill="#F58968" d="M21.995 16.645c-.044 1.44-.83 2.183-1.616 2.882.088-1.223 1.005-1.572 1.267-2.577.043-.174.087-.393.349-.305"/><path fill="#F68959" d="M12.695 19.527h-1.266c.174-.48.48-.787.655-1.266.83-.088.262 1.222 1.266.96-.087.218-.306.35-.655.306"/><path fill="#F2B24C" d="M2.085 18.566v.96c-.699.219-1.004-.916-.96.306.043.262-.132.306-.306.306-.088-.743-.524-1.18-.306-2.227.655-.087 1.092 2.27 1.266.655h.306"/><path fill="#FAB289" d="M7.543 20.138v-1.92c.436.13.524.566.96.654.393-.044.743-.088.655-.655h.306c-.262.917.436.83.305 1.615-.392-.087-.654-.48-.654.306H7.543"/><path fill="#F1D14D" d="M16.843 20.138h.306c-.044-.568.305-.742.96-.655v.655c-.13.393-.393.655-.96.655-.044-.262-.306-.306-.306-.655"/><path fill="#EED333" d="M27.147 17.256c.044 1.135 1.048-.699.96.306-.436.917-.392 2.27.306 2.882v1.615c-.043.262-.305.306-.305.655-.743-.087-.35.917-.96.96-.263-.916.436-.829.305-1.615.087-.524-.306-.568-.306-.96v-.961c.044-.786.044-1.528-.655-1.616.175-1.004-.436-1.266-.655-1.92-.13-.306-.262-.568-.655-.656v-.305c.131-.393.393-.655.96-.655.481.087.132.96.656.96-.044.611.393.743.35 1.31"/><path fill="#F26558" d="M13.655 20.487c-.655.175-2.095-.393-2.226.306-.306-.219-.48-.568-.655-.96.174 0 .393-.045.305-.306h1.572c-.043.567.306.742.96.655.044.087.044.174.044.305"/><path fill="#EED333" d="M15.882 19.832c.437 0 .699.131.96.306 0 .305.263.393.306.655v.305c-1.004.175-1.266-.436-1.92-.655.087-.305.654-.174.654-.61"/><path fill="#058D54" d="M19.768 19.832c0 .437-.568.306-.655.655-.524.087-.567-.305-.96-.305v-.655c.262-.087.655 0 .655-.306.48 0 1.091-.088.96.611"/><path fill="#EB4935" d="M14.616 21.448c-.044-.524.175-1.223-.306-1.266-.13-.437-.393-.525 0-.961.262-.087.655 0 .655-.306h.655c-.043.35.48.48 0 .655-.262.087-.611 0-.655.306-.218.436.35 1.616-.349 1.572"/><path fill="#F79B76" d="M2.39 20.487c.961-.218 1.18.306 1.922.306v.305c-1.048-.261-.437 1.049-1.266.961-.088-.262 0-.611-.306-.655 0-.436-.175-.699-.35-.917"/><path fill="#F37668" d="M6.277 22.365c-.524-.437-.393-1.528-1.616-1.266h-.306v-.306c0-.306-.262-.393-.305-.655.742.087 1.222-.044 1.615-.306v-.305c.393.48.786.917 1.267 1.266-.393.044-.743.087-.655.654h.305c-.043.35.044.874-.305.918"/><path fill="#FBE531" d="M12.346 21.753c.043-.262-.131-.305-.306-.305-.306-.131-.568-.262-.655-.655.131-.699 1.572-.131 2.227-.306v.655c.043.393-.088.568-.306.655-.306-.044-.611-.044-.96-.044"/><path fill="#8C3425" d="M14.267 20.138c.48.044.305.786.305 1.266-.523.088-.567-.306-.96-.306v-.96h.655"/><path fill="#C54336" d="M23.261 21.753c-.393-.043-.35-.524-.306-.96 0-.306.262-.393.306-.655.393 0 .437-.393.96-.306-.043.699.263 1.004.961.96v-1.265c.306 0 .393-.262.655-.306 0 1.877-1.44 2.401-1.615 4.148-1.223-.48-.044 1.44-1.267.96v-.305c-.436-1.135 1.441-1.528.306-2.27"/><path fill="#B13727" d="M11.385 20.793c.087.349.35.48.655.655.131.524-.262.61-.655.655-.35-.83-.786-1.572-1.266-2.227h.655c.13.35.305.698.611.917"/><path fill="#F68959" d="M16.232 22.714c-.262.044-.306-.131-.306-.306-.742-.087-1.223.088-1.266.655-.83-.873-1.135.219-.96 1.266-.568.131-.83-.48-.961 0 .917.7-.48-.392-.306.306.262.087.393.262.306.655h-.306c-.044.786-.611 1.004 0 1.616-.393-.044-.742-.088-.655-.655-.524-1.048-.48-1.398-.655-2.227h-.655c-.305-.96.699-.568 1.266-.655.044-.568-.087-1.004-.305-1.266.393-.044.742-.088.655-.655.174 0 .393.043.305.305-.524.48-.349 1.441.655 1.267.917-.306-.48-.874.306-1.267.262-.087.393-.262.306-.654.393 0 .436.392.96.305.699.044.131-1.136.306-1.615h.96c0 .436-.567.305-.655.655.655.174.917.785 1.922.655v-.306c.567 0 .83-.262.96-.655.393 0 .437.393.96.306.83.436-.829 1.047-.654 1.92-.306 0-.393.263-.655.306h-.306c.48-.917-1.44-.917-.96 0-.044.044-.175.044-.262.044"/><path fill="#12B48D" d="M8.198 21.098c1.135-.087 2.226-.087 1.92 1.267H8.854c-.437-.175-.612-.655-.655-1.267"/><path fill="#FAAC70" d="M13.306 21.753c-.786.437.568.96-.305 1.267-1.005.13-1.136-.786-.655-1.267h.96"/><path fill="#058D54" d="M14.616 23.02c.087-.568.568-.743 1.266-.655 0 .174.044.392.306.305.044.437.044.917-.306.96-.48-.13-.786-.436-1.266-.61"/><path fill="#3B3B39" d="M27.453 22.06c-.568 0-.83.261-.96.654h-.307c-.83.524.219-1.66.961-1.615 0 .436.393.436.306.96"/><path fill="#D0AE35" d="M22.956 23.98c-.437-.218-.612-.699-.655-1.266-.088-.743.917-.35.96-.96 1.135.742-.742 1.134-.305 2.226"/><path fill="#2EAC7A" d="M6.888 24.286c-1.135-.524.611-.83 1.266-.655.262.087.393.262.306.655v.305c-.175 0-.393.044-.306.306-.393-.044-.262-.567-.306-.96-.436 0-.873 0-.96.349"/><path fill="#F7D36C" d="M17.498 22.714c-.437 1.44-1.354 2.489-2.227 3.493 0-.437-.568-.306-.655-.655 0-.175.044-.393.306-.306.873.219.655-.655 1.266-.655.087-.523-.306-.567-.306-.96.393-.044.35-.524.306-.961h.306c-.437-.917 1.484-.917 1.004.044"/><path fill="#FBE531" d="M4.356 23.675c-.175.567.392 1.877-.306 1.92-.262-.043-.306-.305-.655-.305v-.96c-.175-.7.437-.655.96-.655"/><path fill="#EB7A51" d="M14.616 23.02c.48.174.83.48 1.266.655 0 .392.393.436.306.96-.655 0-.393.873-1.266.655.13-1.005-.786-1.135-1.267-.655v-.305c-.218-1.092.088-2.184.961-1.31"/><path fill="#B24A2C" d="M19.419 24.635c.087-.611-.437-.655-.655-.96h.306c.48-.394.48-1.223.96-1.616.087.262 0 .611.306.655v.306c-.83.043-.655 1.091-.655 1.92h-.306c.044-.087.044-.218.044-.305"/><path fill="#FAAC70" d="M15.271 26.207c.917-1.004 1.79-2.052 2.227-3.493h.305v.655a7.161 7.161 0 0 1-2.576 3.187.961.961 0 0 0 .044-.349"/><path fill="#05A773" d="M6.888 24.286c.043-.393.524-.35.96-.306.044.393-.043.917.306.96.131.787-.568.7-.306 1.616.612 1.834-1.79 1.528-1.266 0v-.655c.262-.087.393-.261.306-.655v-.96"/><path fill="#257149" d="M19.113 25.596c-.436 0-.698-.131-.96-.306-.131-1.004.786-1.135 1.266-.655v.306c-.044.262 0 .61-.306.655"/><path fill="#D0AE35" d="M4.661 24.94c-.087.525.306.568.306.961-.262-.043-.306.131-.306.306-.305-.13-.567-.262-.655-.655.699-.044.131-1.354.306-1.921h.96c-.13.524-1.004.305-.61 1.31"/><path fill="#257149" d="M21.69 26.207c.873-.218 1.222-.917 1.92-1.266 2.315.13-.654 1.091-.654 1.92H22.3c-.524.132-.612-.262-.612-.654"/><path fill="#B24A2C" d="M18.153 25.246c.349 1.048-.088 1.092.305 2.227-.567-.044-1.004.087-1.266.306h-.305c-1.267-.524.48-1.965 1.266-2.533m.611 3.188c.786-.917 2.096-1.354 2.882-2.227.043.393.087.742.655.655-.786.567-2.009.786-2.576 1.616-.306-.044-.612-.044-.961-.044"/><path fill="#4CA979" d="M23.261 27.168c.655 0 .393-.874 1.266-.655-.174.48-.48.786-.655 1.265-.305.743-1.091 1.049-2.226.961-.743-.83 1.222-.873 1.615-1.571"/><path fill="#DFC633" d="M8.81 28.128c0-.393-.394-.437-.307-.96.612-.088.7.349 1.267.305.393 0 .436.393.96.306.044.393.524.349.96.305.7.699-.087.699-.96.655-.436-.087-.611-.437-1.266-.306-.044-.218-.262-.349-.655-.305"/><path fill="#EE5647" d="M11.08 29.394c-1.092-.087-2.01-.35-2.577-.96h.96c.656-.131.83.218 1.267.305.087.306.35.35.35.655"/><path fill="#D0AE35" d="M17.498 29.088c.786-.043 1.572-.043 1.615.655.044.263-.13.306-.305.306-.044-.916-2.183.262-2.227-.655.393.044.873.087.917-.306"/><path fill="#914C2B" d="M16.537 29.394c.044.917 2.183-.262 2.227.655h-2.532c-.655-.262-.088-1.615.305-.655"/><g transform="translate(11.352 29.99)"><mask id="d" fill="#fff"><use xlink:href="#c"/></mask><path fill="#DBE6CA" d="M.382.059h3.536v.305C2.829.19.907.801.383.06" mask="url(#d)"/></g><g transform="translate(14.845 29.99)"><mask id="f" fill="#fff"><use xlink:href="#e"/></mask><path fill="#D27864" d="M.426.059h3.187C3.177.8 1.386.189.383.364.425.277.425.146.425.06" mask="url(#f)"/></g><path fill="#FBE531" d="M10.424 10.27c.131 1.005-.873.83-.96 1.616-.087.35-1.135 1.615-.96.305-.263-1.004.523-1.004.654-1.615.175 0 .393-.044.306-.306h.96"/><path fill="#6CC5A6" d="M6.888 16.645c.655.087.611.873 1.266.96.087.437.437.612.306 1.267-.437-.088-.524-.524-.96-.655a1.506 1.506 0 0 1-.961-.96c.13-.22.043-.612.349-.612"/><path fill="#FFF" d="M47.188 8.917c1.44 1.703 2.008 4.148 2.008 6.287 0 2.009-.48 4.41-1.702 6.07-1.398 1.877-3.755 2.706-6.07 2.706-2.27 0-4.497-.611-6.025-2.401-1.397-1.66-1.92-4.235-1.92-6.375 0-2.008.48-4.366 1.702-5.982 1.397-1.79 3.755-2.663 6.025-2.663 2.314-.044 4.454.568 5.982 2.358m-9.038 6.33c0 2.228.262 5.284 3.23 5.284 2.883 0 3.232-2.882 3.232-5.109 0-2.226-.218-5.37-3.144-5.37-2.969-.044-3.318 2.882-3.318 5.196m17.508 3.842c0 .305-.087 1.703.437 1.703.262 0 .48-.175.786-.175.786 0 1.048.655 1.048 1.397 0 .917-.393 1.66-1.441 1.66-1.048-.044-2.009-.263-3.013-.263-.917 0-1.834.219-2.62.263-.916 0-1.31-.743-1.31-1.66 0-.742.263-1.397 1.049-1.397.305 0 .567.175.785.175.524 0 .437-1.398.437-1.703v-4.41c0-.83.044-.96-.83-.96-.96 0-1.484-.219-1.484-1.266 0-1.005.35-1.441 1.353-1.441.743 0 .961.087.961-.786.087-2.62 2.358-3.711 4.76-3.711.785 0 1.79.13 2.488.523.83.437 1.44 1.223 1.44 2.14 0 1.048-.741 1.877-1.79 1.877-.785 0-1.658-.567-1.658-1.44 0-.262.087-.394.218-.655-.175-.088-.306-.088-.48-.088-.874 0-1.223.524-1.223 1.397 0 .786.044.786.83.786 1.004 0 1.702.044 1.702 1.31 0 1.092-.48 1.397-1.528 1.397-1.004 0-1.004-.043-1.004.961l.087 4.366"/><path fill="#FFF" d="M65.264 19.09c0 .305-.087 1.703.437 1.703.262 0 .48-.175.785-.175.786 0 1.048.655 1.048 1.397 0 .917-.393 1.66-1.44 1.66-1.048-.044-2.009-.263-3.013-.263-.917 0-1.834.219-2.62.263-.917 0-1.31-.743-1.31-1.66 0-.742.262-1.397 1.048-1.397.306 0 .568.175.786.175.524 0 .437-1.398.437-1.703v-4.41c0-.83.043-.96-.83-.96-.96 0-1.484-.219-1.484-1.266 0-1.005.349-1.441 1.353-1.441.742 0 .96.087.96-.786.088-2.62 2.358-3.711 4.76-3.711.786 0 1.79.13 2.489.523.83.437 1.44 1.223 1.44 2.14 0 1.048-.742 1.877-1.79 1.877-.786 0-1.659-.567-1.659-1.44 0-.262.087-.394.218-.655-.174-.088-.305-.088-.48-.088-.873 0-1.222.524-1.222 1.397 0 .786.043.786.83.786 1.003 0 1.702.044 1.702 1.31 0 1.092-.48 1.397-1.528 1.397-1.004 0-1.004-.043-1.004.961v4.366"/><path fill="#FFF" d="M75 19.09c-.043.305-.13 1.703.393 1.703.262 0 .48-.175.786-.175.786 0 1.048.655 1.048 1.397 0 .917-.393 1.66-1.44 1.66-1.048-.044-2.01-.263-3.013-.263-.917 0-1.834.219-2.707.263-1.005 0-1.441-.743-1.441-1.66 0-.742.262-1.397 1.048-1.397.305 0 .567.175.786.175.524 0 .436-1.398.436-1.703v-3.493c0-.305.088-1.703-.436-1.703-.262 0-.48.175-.786.175-.786 0-1.048-.655-1.048-1.397 0-.917.393-1.66 1.44-1.66.656 0 1.31.263 1.965.263.743 0 1.441-.262 2.14-.262.742 0 .742.655.742 1.222L75 19.09m.131-11.265a2.255 2.255 0 0 1-2.27 2.27 2.255 2.255 0 0 1-2.27-2.27 2.255 2.255 0 0 1 2.27-2.27 2.255 2.255 0 0 1 2.27 2.27m7.99 6.025c-1.79 0-2.4 1.878-2.4 3.362 0 .786.174 1.747.61 2.402.437.611 1.267 1.048 2.01 1.048 1.09 0 1.483-.612 1.877-1.528.174-.393.218-.655.61-.917.306-.219.7-.306 1.049-.306 1.048 0 1.877.655 1.877 1.79s-.698 2.227-1.572 2.926c-1.091.916-2.532 1.266-3.973 1.266-1.703 0-3.362-.48-4.628-1.703-1.223-1.223-1.834-3.144-1.834-4.847 0-4.104 2.489-6.723 6.637-6.723 2.226 0 5.064 1.047 5.064 3.754 0 1.267-1.047 2.14-2.27 2.14-1.004 0-1.92-.48-1.92-1.572 0-.306.086-.48.26-.742-.48-.219-.873-.35-1.396-.35m10.915 4.192c-.48 0-1.091-.13-1.091.524 0 1.397 1.091 2.401 2.488 2.401 2.052 0 1.922-1.92 3.799-1.92.96 0 1.659.567 1.659 1.527 0 1.048-.786 1.922-1.66 2.446-1.134.698-2.488.96-3.841.96-3.973 0-6.419-2.663-6.419-6.55 0-3.798 2.358-6.723 6.331-6.723 1.441 0 3.013.306 4.105 1.31 1.135 1.048 1.746 2.663 1.746 4.191 0 1.441-.13 1.79-1.572 1.79l-5.545.044m2.27-2.707c.394 0 .83.131.83-.393 0-.35-.262-.786-.524-1.048a2.014 2.014 0 0 0-1.31-.48c-.655 0-1.179.13-1.659.655-.218.218-.611.611-.611.917 0 .48.742.349 1.004.349h2.27m19.78-6.287c.218-.874.436-2.183 1.833-2.183 1.223 0 2.446.262 3.668.262.873 0 2.095-.262 3.318-.262 1.091 0 1.703.785 1.703 1.833 0 .743-.436 1.616-1.266 1.616-.35 0-.699-.175-1.092-.175-.742 0-.61 1.485-.61 1.965v6.331c0 .48-.132 1.965.61 1.965.393 0 .742-.175 1.092-.175.83 0 1.266.873 1.266 1.616 0 1.048-.612 1.833-1.703 1.833-1.048 0-2.096-.262-2.925-.262-1.048 0-2.096.262-3.144.262-.917 0-1.31-.785-1.31-1.833 0-.743.306-1.616.83-1.616.262 0 .48.175.742.175.524 0 .437-1.485.437-1.965v-8.34l-3.318 11.44c-.131.524-.306.96-.612 1.354-.349.48-.698.48-1.266.48h-.83c-1.484 0-1.528-.437-1.877-1.878l-3.231-11.44v8.34c0 .48-.044 1.965.48 1.965.262 0 .524-.175.742-.175.568 0 .83.874.83 1.616 0 1.048-.393 1.834-1.179 1.834-1.047 0-2.052-.262-2.925-.262-1.048 0-2.096.262-3.144.262-1.266 0-1.878-.786-1.878-1.834 0-.742.437-1.616 1.267-1.616.349 0 .698.175 1.092.175.742 0 .61-1.484.61-1.965v-6.33c0-.48.132-1.965-.61-1.965-.394 0-.743.174-1.092.174-.83 0-1.267-.873-1.267-1.615 0-1.048.612-1.834 2.315-1.834 1.223 0 2.445.262 3.667.262.873 0 2.096-.262 3.319-.262 1.178-.044 1.222.917 1.44 1.79l1.966 8.383 2.052-7.946m15.805 5.02c0 1.092-1.048 1.616-2.096 1.616-1.179 0-2.226-.83-2.226-2.095 0-2.49 3.449-2.882 5.283-2.882 1.222 0 2.838.13 3.93.742 1.44.83 1.527 2.227 1.527 3.711v4.541c0 .306-.087 1.092.394 1.092.174 0 .392-.044.567-.044.786 0 1.222.655 1.222 1.354 0 1.353-1.353 1.877-2.488 1.877-1.092 0-2.358-.393-2.751-1.528-1.135 1.091-2.62 1.528-4.148 1.528-2.183 0-4.279-1.179-4.279-3.624 0-5.72 7.466-2.75 7.466-5.938 0-.917-.829-1.353-1.659-1.353-.392 0-.786.087-.786.567l.044.437m2.401 4.06c-.698.743-3.493.393-3.493 1.66 0 .83.7 1.135 1.398 1.135 1.44 0 2.14-.83 2.14-2.27v-.525m9.3-3.143c-.22-.306-.743-1.048-1.092-1.048-.219 0-.437.087-.655.175-.699 0-.96-.655-.96-1.398 0-.917.348-1.659 1.265-1.659.612.044 1.267.262 1.921.262.743 0 1.441-.218 2.184-.262.785 0 1.266.524 1.266 1.397 0 .83-.612.874-.612 1.267 0 .349.568 1.222.7 1.484l.348.611.35-.61c.13-.263.655-.962.655-1.31 0-.481-.786-.175-.786-1.398 0-.873.393-1.44 1.004-1.44.611.043 1.266.261 1.921.261.699 0 1.44-.218 2.183-.262.873 0 1.223.742 1.223 1.66 0 .742-.219 1.397-.917 1.397a1.383 1.383 0 0 0-.699-.175c-.35 0-.436.262-.655.567l-1.659 2.533 1.66 2.75c.174.306.567.917.873.917.174 0 .392-.087.61-.087.7 0 .918.655.918 1.397 0 .917-.35 1.66-1.223 1.66-.742-.044-1.44-.262-2.183-.262-.655 0-1.31.218-1.921.261-.742-.043-1.266-.698-1.266-1.528 0-.393.087-.567.349-.786.131-.13.437-.349.437-.567 0-.306-.524-1.18-.655-1.397l-.35-.612-.698 1.136c-.131.218-.48.698-.48.96 0 .568.83.262.83 1.266 0 .917-.569 1.485-1.354 1.528-.743-.043-1.441-.261-2.184-.261-.654 0-1.31.218-1.92.261-.83 0-1.223-.742-1.223-1.659 0-.742.218-1.397.917-1.397.262 0 .524.087.786.087.393 0 .698-.523.917-.873l.393-.611 1.31-2.096-1.529-2.14m12.313-2.182c0-.874.655-1.572 1.528-1.572s1.528.698 1.528 1.572c0 .917-.655 1.571-1.528 1.571-.83 0-1.528-.654-1.528-1.571zm-.306 0c0 1.048.874 1.877 1.878 1.877a1.863 1.863 0 0 0 1.877-1.877c0-1.048-.83-1.834-1.877-1.834-1.048 0-1.878.786-1.878 1.834zm1.135 1.091h.35v-.917h.35l.567.917h.349l-.611-.96c.305-.044.567-.219.567-.612 0-.436-.262-.61-.742-.61h-.83v2.182zm.35-1.877h.436c.219 0 .48.043.48.349 0 .35-.261.35-.567.35h-.35v-.7z"/></g></svg>