<svg xmlns="http://www.w3.org/2000/svg" width="196" height="30" viewBox="0 0 196 30">
  <g fill="#020303">
    <path d="M7.76468 15.66986C7.76468 19.11361 8.14218 23.82986 12.74343 23.82986 17.23468 23.82986 17.72093 19.37611 17.72093 15.89611 17.72093 12.45236 17.38468 7.54986 12.81843 7.54986 8.25218 7.54986 7.76468 12.11361 7.76468 15.66986M21.76343 5.86486C23.97093 8.48361 24.90593 12.26736 24.90593 15.63361 24.90593 18.77486 24.15718 22.48361 22.24968 25.02486 20.07718 27.90736 16.41343 29.21986 12.85593 29.21986 9.33718 29.21986 5.89468 28.28111 3.53593 25.47611 1.40093 22.93111.57968 18.88861.57968 15.59861.57968 12.48861 1.29093 8.85861 3.19968 6.31361 5.37093 3.50736 9.03843 2.15986 12.51968 2.15986 16.03593 2.15986 19.40718 3.05736 21.76343 5.86486M34.90718 21.65861C34.90718 22.14486 34.75718 24.27736 35.58093 24.27736 35.95593 24.27736 36.32968 24.01486 36.81593 24.01486 38.05093 24.01486 38.46468 25.02486 38.46468 26.14861 38.46468 27.57236 37.82593 28.73111 36.25218 28.73111 34.64468 28.69611 33.14843 28.35861 31.61343 28.35861 30.18968 28.35861 28.76968 28.69611 27.53218 28.73111 26.10968 28.73111 25.47593 27.57236 25.47593 26.14861 25.47593 25.02486 25.88718 24.01486 27.12218 24.01486 27.60968 24.01486 27.98218 24.27736 28.35843 24.27736 29.18093 24.27736 29.03218 22.14486 29.03218 21.65861L29.03218 14.80736C29.03218 13.49861 29.10598 13.34861 27.75843 13.34861 26.29718 13.34861 25.47593 13.01361 25.47593 11.36736 25.47593 9.83111 26.03718 9.15611 27.57218 9.15611 28.73093 9.15611 29.03218 9.26986 29.06718 7.92486 29.21718 3.84736 32.73593 2.15986 36.44218 2.15986 37.67593 2.15986 39.21093 2.38361 40.29843 2.94486 41.56843 3.61986 42.54218 4.81611 42.54218 6.27486 42.54218 7.92486 41.41968 9.19486 39.73468 9.19486 38.49843 9.19486 37.18843 8.33486 37.18843 6.98861 37.18843 6.57486 37.29968 6.35236 37.52718 5.97611 37.26593 5.86486 37.07843 5.82736 36.77718 5.82736 35.39343 5.82736 34.90718 6.65111 34.90718 7.96236 34.90718 9.15611 34.98218 9.15611 36.17843 9.15611 37.75093 9.15611 38.83843 9.23231 38.83843 11.18111 38.83843 12.90111 38.12468 13.34861 36.47843 13.34861 34.94468 13.34861 34.90718 13.27611 34.90718 14.80736L34.90718 21.65861"/>
    <path d="M49.73843,21.65861 C49.73843,22.14486 49.58968,24.27736 50.41468,24.27736 C50.78843,24.27736 51.16468,24.01486 51.65093,24.01486 C52.88468,24.01486 53.29718,25.02486 53.29718,26.14861 C53.29718,27.57236 52.66218,28.73111 51.08843,28.73111 C49.47718,28.69611 47.98093,28.35861 46.44718,28.35861 C45.02593,28.35861 43.60343,28.69611 42.36843,28.73111 C40.94593,28.73111 40.30843,27.57236 40.30843,26.14861 C40.30843,25.02486 40.72093,24.01486 41.95843,24.01486 C42.44218,24.01486 42.81718,24.27736 43.18968,24.27736 C44.01468,24.27736 43.86593,22.14486 43.86593,21.65861 L43.86593,14.80736 C43.86593,13.49861 43.94093,13.34861 42.59343,13.34861 C41.13468,13.34861 40.30843,13.01361 40.30843,11.36736 C40.30843,9.83111 40.87093,9.15611 42.40468,9.15611 C43.56593,9.15611 43.86593,9.26986 43.90218,7.92486 C44.05218,3.84736 47.57093,2.15986 51.27593,2.15986 C52.50968,2.15986 54.04718,2.38361 55.13093,2.94486 C56.40218,3.61986 57.37468,4.81611 57.37468,6.27486 C57.37468,7.92486 56.25343,9.19486 54.56718,9.19486 C53.33343,9.19486 52.02468,8.33486 52.02468,6.98861 C52.02468,6.57486 52.13468,6.35236 52.36093,5.97611 C52.10093,5.86486 51.91218,5.82736 51.61343,5.82736 C50.22718,5.82736 49.73843,6.65111 49.73843,7.96236 C49.73843,9.15611 49.81593,9.15611 51.01343,9.15611 C52.58468,9.15611 53.67093,9.23231 53.67093,11.18111 C53.67093,12.90111 52.95968,13.34861 51.31218,13.34861 C49.77718,13.34861 49.73843,13.27611 49.73843,14.80736 L49.73843,21.65861"/>
    <path d="M65.06468 4.17986C65.06468 6.12736 63.48968 7.69986 61.54343 7.69986 59.59718 7.69986 58.02593 6.12736 58.02593 4.17986 58.02593 2.23611 59.59718.66111 61.54343.66111 63.48968.66111 65.06468 2.23611 65.06468 4.17986M64.87468 21.65861C64.83718 22.14486 64.68843 24.27736 65.51218 24.27736 65.88593 24.27736 66.25718 24.01486 66.74343 24.01486 67.98218 24.01486 68.39343 25.02486 68.39343 26.14861 68.39343 27.57236 67.75343 28.73111 66.18468 28.73111 64.57718 28.69611 63.07968 28.35861 61.54343 28.35861 60.12093 28.35861 58.70093 28.69611 57.35343 28.73111 55.78218 28.73111 55.14468 27.57236 55.14468 26.14861 55.14468 25.02486 55.55468 24.01486 56.79093 24.01486 57.27718 24.01486 57.65093 24.27736 58.02593 24.27736 58.84968 24.27736 58.70093 22.14486 58.70093 21.65861L58.70093 16.26861C58.70093 15.78111 58.84968 13.64736 58.02593 13.64736 57.65093 13.64736 57.27718 13.91361 56.79093 13.91361 55.55468 13.91361 55.14468 12.90111 55.14468 11.77736 55.14468 10.35611 55.78218 9.19486 57.38843 9.19486 58.43718 9.19486 59.44843 9.56986 60.45843 9.56986 61.58218 9.56986 62.66718 9.19486 63.75218 9.19486 64.87468 9.19486 64.87468 10.24361 64.87468 11.10361L64.87468 21.65861M77.42343 13.53611C74.65468 13.53611 73.68218 16.45861 73.68218 18.77486 73.68218 19.97611 73.94468 21.50986 74.61968 22.52111 75.28968 23.49361 76.56343 24.16736 77.72093 24.16736 79.44468 24.16736 80.00593 23.23111 80.60593 21.80861 80.86843 21.17236 80.94343 20.76111 81.54343 20.38611 82.02843 20.04986 82.62593 19.93861 83.18968 19.93861 84.78968 19.93861 86.09843 20.98736 86.09843 22.70736 86.09843 24.49986 85.01343 26.14861 83.63718 27.23611 81.91468 28.65861 79.70468 29.21986 77.50093 29.21986 74.84218 29.21986 72.26218 28.50611 70.35093 26.56111 68.44343 24.65111 67.50968 21.69736 67.50968 19.04111 67.50968 12.67736 71.39968 8.63236 77.79843 8.63236 81.27843 8.63236 85.61843 10.27986 85.61843 14.43611 85.61843 16.42111 84.00593 17.72861 82.09843 17.72861 80.56718 17.72861 79.10593 17.01736 79.10593 15.29611 79.10593 14.80736 79.21843 14.54861 79.48343 14.17236 78.84593 13.68736 78.28468 13.53611 77.42343 13.53611M97.85343 15.81986C98.45218 15.81986 99.16468 16.00861 99.16468 15.18111 99.16468 14.62361 98.78468 13.94861 98.37843 13.57611 97.81593 13.08986 97.10093 12.86361 96.35468 12.86361 95.34718 12.86361 94.52218 13.08986 93.81218 13.87486 93.47343 14.21236 92.87718 14.80736 92.87718 15.29611 92.87718 16.00861 94.03718 15.81986 94.44718 15.81986L97.85343 15.81986M94.36968 19.97611C93.62218 19.97611 92.68718 19.75111 92.68718 20.76111 92.68718 22.89486 94.36968 24.49986 96.54468 24.49986 99.72593 24.49986 99.49968 21.54486 102.41968 21.54486 103.87843 21.54486 105.00218 22.40986 105.00218 23.90236 105.00218 25.55111 103.76718 26.89986 102.41968 27.72236 100.65718 28.80736 98.53093 29.21986 96.47093 29.21986 90.32968 29.21986 86.51093 25.10111 86.51093 19.04111 86.51093 13.12736 90.17968 8.63236 96.31593 8.63236 98.56718 8.63236 100.95718 9.12111 102.64468 10.69236 104.40468 12.30361 105.33593 14.84736 105.33593 17.20361 105.33593 19.41361 105.11343 19.97611 102.86843 19.97611L94.36968 19.97611M128.54343 6.05111C128.88093 4.66986 129.25218 2.64611 131.38593 2.68236 133.29468 2.68236 135.16968 3.05736 137.07468 3.05736 138.42718 3.05736 140.29593 2.68236 142.20468 2.68236 143.88968 2.68236 144.82218 3.91986 144.82218 5.52861 144.82218 6.65111 144.15093 8.03486 142.87968 8.03486 142.31593 8.03486 141.79343 7.77361 141.19343 7.77361 140.06968 7.77361 140.25968 10.09361 140.25968 10.80611L140.25968 20.60986C140.25968 21.32236 140.06968 23.64236 141.19343 23.64236 141.79343 23.64236 142.31593 23.37986 142.87968 23.37986 144.15093 23.37986 144.82218 24.76611 144.82218 25.88861 144.82218 27.49736 143.88968 28.73111 142.20468 28.73111 140.59468 28.73111 138.98093 28.35861 137.67718 28.35861 136.02718 28.35861 134.41718 28.73111 132.80718 28.73111 131.38593 28.73111 130.74843 27.49736 130.74843 25.88861 130.74843 24.76611 131.20093 23.37986 132.06218 23.37986 132.43468 23.37986 132.80718 23.64236 133.21843 23.64236 134.00593 23.64236 133.89593 21.32236 133.89593 20.60986L133.89593 7.69986 128.73093 25.44111C128.50343 26.22486 128.28343 26.89986 127.79343 27.57236 127.26968 28.32236 126.70843 28.32236 125.85093 28.32236L124.57343 28.32236C122.29593 28.32236 122.18218 27.64611 121.65843 25.44111L116.63968 7.69986 116.63968 20.60986C116.63968 21.32236 116.56718 23.64236 117.35468 23.64236 117.76468 23.64236 118.13718 23.37986 118.51343 23.37986 119.37343 23.37986 119.82593 24.76611 119.82593 25.88861 119.82593 27.49736 119.18343 28.73111 118.02343 28.73111 116.41968 28.73111 114.80968 28.35861 113.49843 28.35861 111.85218 28.35861 110.24218 28.73111 108.63343 28.73111 106.64968 28.73111 105.71468 27.49736 105.71468 25.88861 105.71468 24.76611 106.38593 23.37986 107.66093 23.37986 108.22468 23.37986 108.74343 23.64236 109.34218 23.64236 110.46593 23.64236 110.28093 21.32236 110.28093 20.60986L110.28093 10.80611C110.28093 10.09361 110.46593 7.77361 109.34218 7.77361 108.74343 7.77361 108.22468 8.03486 107.66093 8.03486 106.38593 8.03486 105.71468 6.65111 105.71468 5.52861 105.71468 3.91986 106.64968 2.68236 109.26968 2.68236 111.17843 2.68236 113.04843 3.05736 114.95968 3.05736 116.29968 3.05736 118.17468 2.68236 120.08468 2.68236 121.88468 2.64616 121.95593 4.10361 122.29593 5.48861L125.35968 18.47861 128.54343 6.05111M156.79343 20.16111C155.70593 21.32236 151.36593 20.76111 151.36593 22.74361 151.36593 24.05361 152.41718 24.49986 153.50468 24.49986 155.70593 24.49986 156.79343 23.19236 156.79343 20.98736L156.79343 20.16111M153.01593 13.83736C153.01593 15.55861 151.36593 16.34486 149.79968 16.34486 147.95968 16.34486 146.35218 15.03736 146.35218 13.12736 146.35218 9.26986 151.66718 8.63236 154.50968 8.63236 156.37968 8.63236 158.92718 8.82236 160.57468 9.75986 162.78093 11.06736 162.96968 13.19986 162.96968 15.52111L162.96968 22.55736C162.96968 23.04361 162.85593 24.27736 163.60593 24.27736 163.90218 24.27736 164.20093 24.24236 164.50218 24.24236 165.69718 24.24236 166.37468 25.25111 166.37468 26.33986 166.37468 28.43361 164.27718 29.21986 162.51843 29.21986 160.80218 29.21986 158.88343 28.58236 158.25093 26.82111 156.49218 28.50611 154.20843 29.21986 151.85343 29.21986 148.44843 29.21986 145.19343 27.42111 145.19343 23.60361 145.19343 14.73361 156.79343 19.33986 156.79343 14.39861 156.79343 12.97611 155.48093 12.30361 154.24843 12.30361 153.61343 12.30361 153.01593 12.41486 153.01593 13.16361L153.01593 13.83736M171.27593 15.26111C170.93593 14.77236 170.14968 13.64736 169.58468 13.64736 169.24843 13.64736 168.87593 13.79986 168.54093 13.91361 167.45718 13.91361 167.08468 12.90111 167.08468 11.77736 167.08468 10.35611 167.64218 9.19486 169.06343 9.19486 170.00218 9.23236 171.00968 9.56986 172.02093 9.56986 173.14343 9.56986 174.22593 9.23236 175.39343 9.19486 176.58718 9.19486 177.33468 9.98236 177.33468 11.32861 177.33468 12.59986 176.36343 12.67736 176.36343 13.27611 176.36343 13.79986 177.22468 15.18111 177.44593 15.55861L177.97343 16.53111 178.53468 15.55861C178.75843 15.18111 179.54468 14.05986 179.54468 13.53611 179.54468 12.78611 178.30843 13.23986 178.30843 11.40361 178.30843 10.01736 178.94218 9.19486 179.84343 9.19486 180.78093 9.23236 181.78593 9.56986 182.80593 9.56986 183.92218 9.56986 185.00843 9.23236 186.16843 9.19486 187.51718 9.19486 188.07593 10.35611 188.07593 11.77736 188.07593 12.90111 187.73843 13.91361 186.65343 13.91361 186.28218 13.72486 185.90843 13.61236 185.57093 13.61236 185.00843 13.61236 184.86093 14.02236 184.56218 14.51111L182.01718 18.44111 184.56218 22.70736C184.86093 23.15611 185.41593 24.12986 185.94468 24.12986 186.20843 24.12986 186.54343 23.97861 186.88093 24.01486 187.96718 24.01486 188.30343 25.02486 188.30343 26.14861 188.30343 27.57236 187.73843 28.73111 186.38968 28.73111 185.23218 28.69611 184.14593 28.35861 183.02593 28.35861 182.01718 28.35861 181.00468 28.69611 180.07093 28.73111 178.94218 28.65861 178.12343 27.64611 178.12343 26.37361 178.12343 25.73861 178.27093 25.51236 178.68218 25.13861 178.90843 24.94986 179.35593 24.61611 179.35593 24.24236 179.35593 23.79236 178.53468 22.44611 178.30843 22.10861L177.74968 21.13611 176.66093 22.89486C176.43718 23.23111 175.91468 23.97861 175.91468 24.39111 175.91468 25.28736 177.18468 24.80361 177.18468 26.33986 177.18468 27.79361 176.32468 28.61861 175.09218 28.73111 173.92468 28.69611 172.84843 28.35861 171.72468 28.35861 170.70968 28.35861 169.70093 28.69611 168.76593 28.73111 167.45718 28.73111 166.89718 27.57236 166.89718 26.14861 166.89718 25.02486 167.23093 24.01486 168.31468 24.01486 168.72843 24.01486 169.09843 24.16736 169.51218 24.16736 170.14968 24.16736 170.59968 23.37986 170.93593 22.81986L171.57343 21.88486 173.59593 18.66361 171.27593 15.26111M192.13468 10.64236L192.82218 10.64236C193.17718 10.64236 193.56093 10.71116 193.56093 11.15611 193.56093 11.68611 193.14218 11.70986 192.67718 11.70986L192.13468 11.70986 192.13468 10.64236zM191.61218 13.57611L192.13468 13.57611 192.13468 12.13111 192.68718 12.13111 193.59968 13.57611 194.16218 13.57611 193.20093 12.09236C193.70218 12.03986 194.08218 11.78736 194.08218 11.17861 194.08218 10.53486 193.70468 10.21861 192.90718 10.21861L191.61218 10.21861 191.61218 13.57611 191.61218 13.57611zM189.83843 11.88736C189.83843 13.53611 191.15968 14.77236 192.73343 14.77236 194.30093 14.77236 195.61093 13.53611 195.61093 11.88736 195.61093 10.26486 194.30093 9.02861 192.73343 9.02861 191.15968 9.02861 189.83843 10.26486 189.83843 11.88736L189.83843 11.88736zM190.35968 11.88736C190.35968 10.51236 191.39093 9.45111 192.73343 9.45111 194.06218 9.45111 195.09218 10.51236 195.09218 11.88736 195.09218 13.29236 194.06218 14.34986 192.73343 14.34986 191.39093 14.34986 190.35968 13.29236 190.35968 11.88736L190.35968 11.88736z"/>
  </g>
</svg>
