
<svg width="160px" height="24px" viewBox="0 0 160 24" version="1.1" xmlns="http://www.w3.org/2000/svg" xmlns:xlink="http://www.w3.org/1999/xlink">
    <!-- Generator: Sketch 44.1 (41455) - http://www.bohemiancoding.com/sketch -->
    <desc>Created with Sketch.</desc>
    <defs></defs>
    <g id="12.1-13-App-detail" stroke="none" stroke-width="1" fill="none" fill-rule="evenodd">
        <g id="12.8-App-Detail---PCI" transform="translate(-815.000000, -599.000000)" fill-rule="nonzero" fill="#FFFFFF">
            <g id="---Header" transform="translate(75.000000, 315.000000)">
                <g id="---Quote" transform="translate(660.000000, 185.000000)">
                    <g id="::-bloc">
                        <g id="Officemax" transform="translate(80.000000, 99.000000)">
                            <path d="M5.86626644,12.1996257 C5.86626644,14.9988235 6.17448016,18.8323529 9.9312176,18.8323529 C13.5981444,18.8323529 13.9951482,15.2121925 13.9951482,12.3835294 C13.9951482,9.58433155 13.7206134,5.59941176 9.99245211,5.59941176 C6.26429078,5.59941176 5.86626644,9.30898396 5.86626644,12.1996257 M17.2956885,4.2297861 C19.0980243,6.35839572 19.8614146,9.43395722 19.8614146,12.1701604 C19.8614146,14.7234759 19.2500901,17.7380749 17.6926922,19.8036898 C15.9189325,22.1466845 12.9276265,23.2135294 10.0230694,23.2135294 C7.15015008,23.2135294 4.33948589,22.4504813 2.41366043,20.1704813 C0.670517928,18.1018182 0,14.8159358 0,12.1417112 C0,9.61379679 0.580707308,6.66320856 2.13912569,4.59454545 C3.91186487,2.31352941 6.9062326,1.21823529 9.74853463,1.21823529 C12.6194128,1.21823529 15.3719042,1.94775401 17.2956885,4.2297861" id="path3362"></path>
                            <path d="M28.0270371,17.0674866 C28.0270371,17.4627273 27.904568,19.1960963 28.5771271,19.1960963 C28.8832997,19.1960963 29.1884517,18.9827273 29.5854554,18.9827273 C30.5937838,18.9827273 30.9315942,19.8036898 30.9315942,20.7171123 C30.9315942,21.874385 30.4100802,22.8162567 29.125176,22.8162567 C27.8127163,22.7878075 26.5910877,22.5134759 25.3378213,22.5134759 C24.1753861,22.5134759 23.0160127,22.7878075 22.0056432,22.8162567 C20.8442286,22.8162567 20.3267969,21.874385 20.3267969,20.7171123 C20.3267969,19.8036898 20.6625662,18.9827273 21.6708945,18.9827273 C22.0689188,18.9827273 22.3730503,19.1960963 22.6802434,19.1960963 C23.3517819,19.1960963 23.2303335,17.4627273 23.2303335,17.0674866 L23.2303335,11.4985561 C23.2303335,10.4347594 23.2905882,10.3128342 22.1903673,10.3128342 C20.9973149,10.3128342 20.3267969,10.0405348 20.3267969,8.70240642 C20.3267969,7.45368984 20.7850352,6.90502674 22.0383016,6.90502674 C22.9843748,6.90502674 23.2303335,6.99748663 23.2589096,5.9042246 C23.3813786,2.58989305 26.2542979,1.21823529 29.2803034,1.21823529 C30.2876112,1.21823529 31.5408776,1.40010695 32.428778,1.85631016 C33.4656825,2.40497326 34.2607106,3.3773262 34.2607106,4.56304813 C34.2607106,5.9042246 33.344234,6.93652406 31.9684986,6.93652406 C30.9591497,6.93652406 29.8895869,6.23748663 29.8895869,5.14320856 C29.8895869,4.8068984 29.9804181,4.62604278 30.1661627,4.3202139 C29.9528625,4.2297861 29.7997762,4.19930481 29.5538176,4.19930481 C28.4240408,4.19930481 28.0270371,4.86887701 28.0270371,5.93470588 C28.0270371,6.90502674 28.0882716,6.90502674 29.0649621,6.90502674 C30.3488457,6.90502674 31.2367462,6.96696471 31.2367462,8.55101604 C31.2367462,9.94909091 30.6539977,10.3128342 29.3099001,10.3128342 C28.0576543,10.3128342 28.0270371,10.2539037 28.0270371,11.4985561 L28.0270371,17.0674866" id="path3364"></path>
                            <path d="M40.1361622,17.0674866 C40.1361622,17.4627273 40.0147137,19.1960963 40.6882934,19.1960963 C40.9934454,19.1960963 41.3006385,18.9827273 41.6976423,18.9827273 C42.7049501,18.9827273 43.0417399,19.8036898 43.0417399,20.7171123 C43.0417399,21.874385 42.5232877,22.8162567 41.2383835,22.8162567 C39.922862,22.7878075 38.7012334,22.5134759 37.4489876,22.5134759 C36.2885936,22.5134759 35.127179,22.7878075 34.1188506,22.8162567 C32.957436,22.8162567 32.4369426,21.874385 32.4369426,20.7171123 C32.4369426,19.8036898 32.7737325,18.9827273 33.7841019,18.9827273 C34.1790646,18.9827273 34.4852371,19.1960963 34.7893686,19.1960963 C35.4629482,19.1960963 35.3414998,17.4627273 35.3414998,17.0674866 L35.3414998,11.4985561 C35.3414998,10.4347594 35.4027343,10.3128342 34.3025542,10.3128342 C33.1115429,10.3128342 32.4369426,10.0405348 32.4369426,8.70240642 C32.4369426,7.45368984 32.8962015,6.90502674 34.1484473,6.90502674 C35.0965617,6.90502674 35.3414998,6.99748663 35.3710964,5.9042246 C35.4935655,2.58989305 38.3664847,1.21823529 41.3914697,1.21823529 C42.3987775,1.21823529 43.654085,1.40010695 44.5389238,1.85631016 C45.5768488,2.40497326 46.3708563,3.3773262 46.3708563,4.56304813 C46.3708563,5.9042246 45.4554003,6.93652406 44.0786443,6.93652406 C43.0713366,6.93652406 42.0027943,6.23748663 42.0027943,5.14320856 C42.0027943,4.8068984 42.0926049,4.62604278 42.277329,4.3202139 C42.0650494,4.2297861 41.9109425,4.19930481 41.6670251,4.19930481 C40.5352071,4.19930481 40.1361622,4.86887701 40.1361622,5.93470588 C40.1361622,6.90502674 40.1994379,6.90502674 41.1771489,6.90502674 C42.460012,6.90502674 43.3468919,6.96696471 43.3468919,8.55101604 C43.3468919,9.94909091 42.7661846,10.3128342 41.4210664,10.3128342 C40.1678,10.3128342 40.1361622,10.2539037 40.1361622,11.4985561 L40.1361622,17.0674866" id="path3366"></path>
                            <path d="M52.6494351,2.86016043 C52.6494351,4.44315508 51.3635103,5.7213369 49.7744747,5.7213369 C48.1854391,5.7213369 46.902576,4.44315508 46.902576,2.86016043 C46.902576,1.2802139 48.1854391,0 49.7744747,0 C51.3635103,0 52.6494351,1.2802139 52.6494351,2.86016043 M52.4943077,17.0674866 C52.4636904,17.4627273 52.342242,19.1960963 53.0148011,19.1960963 C53.3199531,19.1960963 53.6230639,18.9827273 54.0200677,18.9827273 C55.0314577,18.9827273 55.367227,19.8036898 55.367227,20.7171123 C55.367227,21.874385 54.8446925,22.8162567 53.5638705,22.8162567 C52.2514108,22.7878075 51.0287617,22.5134759 49.7744747,22.5134759 C48.6130601,22.5134759 47.4536866,22.7878075 46.3535065,22.8162567 C45.0706435,22.8162567 44.5501501,21.874385 44.5501501,20.7171123 C44.5501501,19.8036898 44.8848988,18.9827273 45.8942477,18.9827273 C46.2912514,18.9827273 46.5964034,19.1960963 46.902576,19.1960963 C47.5751351,19.1960963 47.4536866,17.4627273 47.4536866,17.0674866 L47.4536866,12.6863102 C47.4536866,12.2900535 47.5751351,10.5556684 46.902576,10.5556684 C46.5964034,10.5556684 46.2912514,10.7720856 45.8942477,10.7720856 C44.8848988,10.7720856 44.5501501,9.94909091 44.5501501,9.03566845 C44.5501501,7.88042781 45.0706435,6.93652406 46.3820826,6.93652406 C47.2383452,6.93652406 48.0639906,7.2413369 48.8886154,7.2413369 C49.8061125,7.2413369 50.6919718,6.93652406 51.5778311,6.93652406 C52.4943077,6.93652406 52.4943077,7.78898396 52.4943077,8.48802139 L52.4943077,17.0674866" id="path3368"></path>
                            <path d="M62.7398625,10.4652406 C60.4792883,10.4652406 59.6852808,12.8407487 59.6852808,14.7234759 C59.6852808,15.699893 59.8996016,16.9465775 60.4507122,17.7685561 C60.9977405,18.5590374 62.0377067,19.1066845 62.9827594,19.1066845 C64.3901326,19.1066845 64.8483709,18.3456684 65.338247,17.1894118 C65.5525678,16.672246 65.6138023,16.3379679 66.1036784,16.0331551 C66.4996616,15.7598396 66.9874966,15.6694118 67.447776,15.6694118 C68.7541123,15.6694118 69.8226546,16.5218717 69.8226546,17.9199465 C69.8226546,19.3769519 68.9367953,20.7171123 67.813142,21.6010695 C66.4067893,22.7573262 64.6024123,23.2135294 62.8031381,23.2135294 C60.6323746,23.2135294 58.5259073,22.633369 56.9654478,21.0524064 C55.40805,19.499893 54.6456803,17.098984 54.6456803,14.939893 C54.6456803,9.76721925 57.8217104,6.47930481 63.046035,6.47930481 C65.8873165,6.47930481 69.4307537,7.8184492 69.4307537,11.1967914 C69.4307537,12.8102674 68.1142116,13.8730481 66.5568138,13.8730481 C65.3066092,13.8730481 64.1135567,13.2949198 64.1135567,11.8958289 C64.1135567,11.4985561 64.2054085,11.2882353 64.4217705,10.9824064 C63.9012771,10.5881818 63.4430388,10.4652406 62.7398625,10.4652406" id="path3370"></path>
                            <path d="M79.4201441,12.3215508 C79.9089996,12.3215508 80.4907275,12.4749733 80.4907275,11.8023529 C80.4907275,11.3491979 80.1804726,10.8005348 79.8487857,10.497754 C79.3895268,10.1025134 78.8057578,9.91860963 78.1964744,9.91860963 C77.3738907,9.91860963 76.7003111,10.1025134 76.1206244,10.7405882 C75.8440485,11.0149198 75.3572341,11.4985561 75.3572341,11.8958289 C75.3572341,12.4749733 76.3043279,12.3215508 76.6390766,12.3215508 L79.4201441,12.3215508 M76.5758009,15.699893 C75.9654969,15.699893 75.2021066,15.5170053 75.2021066,16.3379679 C75.2021066,18.0723529 76.5758009,19.3769519 78.3516018,19.3769519 C80.9489658,19.3769519 80.7642417,16.9750267 83.1483054,16.9750267 C84.3393167,16.9750267 85.2568138,17.6781283 85.2568138,18.8912834 C85.2568138,20.2314439 84.2484855,21.327754 83.1483054,21.9963102 C81.7092943,22.8782353 79.9732959,23.2135294 78.2913879,23.2135294 C73.2773018,23.2135294 70.1594444,19.8656684 70.1594444,14.939893 C70.1594444,10.1329947 73.1548327,6.47930481 78.1648365,6.47930481 C80.0028925,6.47930481 81.9542324,6.87657754 83.332009,8.15374332 C84.7689789,9.46342246 85.5293074,11.5310695 85.5293074,13.4463102 C85.5293074,15.2426738 85.347645,15.699893 83.5146919,15.699893 L76.5758009,15.699893" id="path3372"></path>
                            <path d="M104.477307,4.38117647 C104.752863,3.2584492 105.055973,1.61347594 106.798095,1.64294118 C108.356514,1.64294118 109.887377,1.94775401 111.442733,1.94775401 C112.546996,1.94775401 114.072756,1.64294118 115.631174,1.64294118 C117.006909,1.64294118 117.768258,2.64882353 117.768258,3.95647059 C117.768258,4.86887701 117.22021,5.99363636 116.182285,5.99363636 C115.722005,5.99363636 115.295405,5.78128342 114.805529,5.78128342 C113.888031,5.78128342 114.043159,7.66705882 114.043159,8.24620321 L114.043159,16.2150267 C114.043159,16.7941711 113.888031,18.6799465 114.805529,18.6799465 C115.295405,18.6799465 115.722005,18.4665775 116.182285,18.4665775 C117.22021,18.4665775 117.768258,19.593369 117.768258,20.5057754 C117.768258,21.8134225 117.006909,22.8162567 115.631174,22.8162567 C114.316673,22.8162567 112.99911,22.5134759 111.93465,22.5134759 C110.587491,22.5134759 109.27299,22.8162567 107.958489,22.8162567 C106.798095,22.8162567 106.277602,21.8134225 106.277602,20.5057754 C106.277602,19.593369 106.64705,18.4665775 107.350226,18.4665775 C107.654358,18.4665775 107.958489,18.6799465 108.294259,18.6799465 C108.937221,18.6799465 108.84741,16.7941711 108.84741,16.2150267 L108.84741,5.7213369 L104.630393,20.1420321 C104.444649,20.7790909 104.265028,21.327754 103.864962,21.874385 C103.437341,22.4840107 102.979103,22.4840107 102.278988,22.4840107 L101.23596,22.4840107 C99.3764722,22.4840107 99.2835998,21.9343316 98.8559788,20.1420321 L94.7583693,5.7213369 L94.7583693,16.2150267 C94.7583693,16.7941711 94.6991759,18.6799465 95.3421383,18.6799465 C95.676887,18.6799465 95.9810184,18.4665775 96.2882115,18.4665775 C96.9903673,18.4665775 97.3598155,19.593369 97.3598155,20.5057754 C97.3598155,21.8134225 96.8352399,22.8162567 95.888146,22.8162567 C94.578748,22.8162567 93.2642471,22.5134759 92.1936637,22.5134759 C90.8495661,22.5134759 89.5350652,22.8162567 88.2215849,22.8162567 C86.601932,22.8162567 85.8385417,21.8134225 85.8385417,20.5057754 C85.8385417,19.593369 86.3865906,18.4665775 87.4275774,18.4665775 C87.8878568,18.4665775 88.3113955,18.6799465 88.8002511,18.6799465 C89.7177482,18.6799465 89.5667031,16.7941711 89.5667031,16.2150267 L89.5667031,8.24620321 C89.5667031,7.66705882 89.7177482,5.78128342 88.8002511,5.78128342 C88.3113955,5.78128342 87.8878568,5.99363636 87.4275774,5.99363636 C86.3865906,5.99363636 85.8385417,4.86887701 85.8385417,3.95647059 C85.8385417,2.64882353 86.601932,1.64294118 88.7410577,1.64294118 C90.2994761,1.64294118 91.8262566,1.94775401 93.3867161,1.94775401 C94.4807728,1.94775401 96.0116356,1.64294118 97.5710746,1.64294118 C99.0407029,1.61351658 99.0988757,2.79818182 99.3764722,3.92395722 L101.877902,14.4826738 L104.477307,4.38117647" id="path3374"></path>
                            <path d="M127.542307,15.8502674 C126.654407,16.7941711 123.11097,16.3379679 123.11097,17.9494118 C123.11097,19.0142246 123.969274,19.3769519 124.857174,19.3769519 C126.654407,19.3769519 127.542307,18.3141711 127.542307,16.5218717 L127.542307,15.8502674 M124.458129,10.710107 C124.458129,12.1091979 123.11097,12.7482888 121.832189,12.7482888 C120.329902,12.7482888 119.017443,11.685508 119.017443,10.1329947 C119.017443,6.99748663 123.356928,6.47930481 125.677717,6.47930481 C127.204497,6.47930481 129.284429,6.63374332 130.629548,7.3957754 C132.430863,8.45855615 132.58497,10.1919251 132.58497,12.0787166 L132.58497,17.7980214 C132.58497,18.193262 132.492097,19.1960963 133.104443,19.1960963 C133.346319,19.1960963 133.590236,19.1676471 133.836195,19.1676471 C134.811865,19.1676471 135.365017,19.9875936 135.365017,20.8725668 C135.365017,22.5744385 133.652491,23.2135294 132.216542,23.2135294 C130.815292,23.2135294 129.248709,22.6953476 128.732298,21.2637433 C127.296349,22.633369 125.431758,23.2135294 123.508994,23.2135294 C120.728947,23.2135294 118.071369,21.7514439 118.071369,18.6484492 C118.071369,11.4386096 127.542307,15.1827273 127.542307,11.1663102 C127.542307,10.0100535 126.470703,9.46342246 125.464416,9.46342246 C124.945964,9.46342246 124.458129,9.55385027 124.458129,10.1624599 L124.458129,10.710107" id="path3376"></path>
                            <path d="M139.366692,11.8673797 C139.089096,11.470107 138.447154,10.5556684 137.985854,10.5556684 C137.711319,10.5556684 137.407188,10.6796257 137.133674,10.7720856 C136.248835,10.7720856 135.944703,9.94909091 135.944703,9.03566845 C135.944703,7.88042781 136.39988,6.93652406 137.560274,6.93652406 C138.326726,6.96700535 139.14931,7.2413369 139.974955,7.2413369 C140.891432,7.2413369 141.77525,6.96700535 142.728467,6.93652406 C143.703116,6.93652406 144.31342,7.57663102 144.31342,8.67090909 C144.31342,9.7042246 143.520433,9.76721925 143.520433,10.2539037 C143.520433,10.6796257 144.22361,11.8023529 144.404251,12.1091979 L144.834934,12.8996791 L145.293173,12.1091979 C145.475855,11.8023529 146.117797,10.8909626 146.117797,10.4652406 C146.117797,9.85561497 145.108448,10.2244385 145.108448,8.73187166 C145.108448,7.60508021 145.62588,6.93652406 146.361715,6.93652406 C147.127146,6.96700535 147.947689,7.2413369 148.780478,7.2413369 C149.691852,7.2413369 150.578732,6.96700535 151.525825,6.93652406 C152.627026,6.93652406 153.083223,7.88042781 153.083223,9.03566845 C153.083223,9.94909091 152.807668,10.7720856 151.921809,10.7720856 C151.618698,10.6186631 151.313546,10.5272193 151.037991,10.5272193 C150.578732,10.5272193 150.458304,10.8604813 150.214386,11.257754 L148.136495,14.4521925 L150.214386,17.9199465 C150.458304,18.2847059 150.911439,19.0762032 151.343142,19.0762032 C151.558484,19.0762032 151.831998,18.953262 152.107553,18.9827273 C152.994433,18.9827273 153.268968,19.8036898 153.268968,20.7171123 C153.268968,21.874385 152.807668,22.8162567 151.706467,22.8162567 C150.761415,22.7878075 149.874535,22.5134759 148.960099,22.5134759 C148.136495,22.5134759 147.309829,22.7878075 146.547459,22.8162567 C145.62588,22.7573262 144.957403,21.9343316 144.957403,20.9 C144.957403,20.3838503 145.077831,20.1999465 145.4136,19.8961497 C145.598325,19.7427273 145.96369,19.4714439 145.96369,19.1676471 C145.96369,18.8018717 145.293173,17.7075936 145.108448,17.433262 L144.652251,16.6427807 L143.76333,18.0723529 C143.580647,18.3456684 143.154047,18.953262 143.154047,19.2885561 C143.154047,20.0170588 144.190951,19.6238503 144.190951,20.8725668 C144.190951,22.0542246 143.488796,22.7248128 142.482508,22.8162567 C141.529291,22.7878075 140.650576,22.5134759 139.733079,22.5134759 C138.904372,22.5134759 138.080767,22.7878075 137.317377,22.8162567 C136.248835,22.8162567 135.791617,21.874385 135.791617,20.7171123 C135.791617,19.8036898 136.064111,18.9827273 136.948949,18.9827273 C137.28676,18.9827273 137.58885,19.1066845 137.92666,19.1066845 C138.447154,19.1066845 138.814561,18.4665775 139.089096,18.0113904 L139.609589,17.2513904 L141.26088,14.6330481 L139.366692,11.8673797" id="path3378"></path>
                            <path d="M156.397031,8.1131016 L156.958347,8.1131016 C157.248191,8.1131016 157.561507,8.1690246 157.561507,8.53069519 C157.561507,8.96149733 157.219615,8.98080214 156.839961,8.98080214 L156.397031,8.98080214 L156.397031,8.1131016 Z M155.970431,10.497754 L156.397031,10.497754 L156.397031,9.32320856 L156.848125,9.32320856 L157.593145,10.497754 L158.052404,10.497754 L157.267582,9.29171123 C157.676832,9.24903743 157.987087,9.04379679 157.987087,8.54898396 C157.987087,8.02572193 157.678874,7.7686631 157.027747,7.7686631 L155.970431,7.7686631 L155.970431,10.497754 L155.970431,10.497754 Z M154.522234,9.12508021 C154.522234,10.4652406 155.600982,11.470107 156.885887,11.470107 C158.165688,11.470107 159.235251,10.4652406 159.235251,9.12508021 C159.235251,7.80625668 158.165688,6.80139037 156.885887,6.80139037 C155.600982,6.80139037 154.522234,7.80625668 154.522234,9.12508021 L154.522234,9.12508021 Z M154.947814,9.12508021 C154.947814,8.00743316 155.789789,7.14481283 156.885887,7.14481283 C157.970758,7.14481283 158.811712,8.00743316 158.811712,9.12508021 C158.811712,10.2671123 157.970758,11.1266845 156.885887,11.1266845 C155.789789,11.1266845 154.947814,10.2671123 154.947814,9.12508021 L154.947814,9.12508021 Z" id="path3380"></path>
                        </g>
                    </g>
                </g>
            </g>
        </g>
    </g>
</svg>