<svg xmlns="http://www.w3.org/2000/svg" width="188" height="139" viewBox="0 0 188 139">
  <path d="M74.448,1 C78.74,1.977 74.336,6.771 74.109,7.276 C73.275,9.133 68.971,11.612 67.324,7.276 C66.698,5.627 67.074,3.55 68.342,2.526 C69.157,1.868 72.648,0.589 74.448,1 L74.448,1 Z M107.014,6.258 C104.233,5.861 102.807,7.276 101.078,7.276 C97.959,7.276 98.363,13.055 98.363,15.078 C99.539,15.081 100.9,29.504 98.363,29.495 C98.361,33.138 89.039,44.932 87.508,48.153 C86.481,50.312 79.007,55.849 78.519,50.358 C78.472,49.828 75.254,44.275 74.448,43.065 C73.411,42.95 64.604,44.286 64.61,46.118 C62.658,46.118 62.572,48.304 62.574,44.082 C61.022,40.284 58.056,42.649 57.316,40.52 C57.058,39.777 56.177,40.283 55.281,38.824 C53.822,36.449 46.277,41.8 46.63,43.574 C42.817,44.526 40.777,40.138 38.15,38.824 C38.15,37.072 37.657,28.133 36.712,25.755 C36.013,23.998 31.773,15.143 30.436,13.821 C28.884,12.287 22.336,8.406 21.188,9.311 C14.686,9.311 18.757,19.158 16.439,19.149 C6.586,23.493 -2.761,37.192 1.852,49.34 C3.922,54.787 6.98,59.334 13.386,59.687 C13.393,61.097 27.189,58.494 26.785,56.464 C29.14,56.467 36.118,48.615 36.114,46.626 C37.095,46.627 39.728,48.134 41.32,49.449 C44.01,51.672 39.841,54.904 40.863,57.481 C41.856,59.985 52.733,54.322 52.736,55.445 C54.493,55.451 48.753,71.702 47.478,72.577 C45.61,73.858 44.567,96.843 47.478,96.831 C47.478,101.833 55.201,98.78 56.977,94.796 C57.766,93.025 61.926,81.833 62.065,81.398 C62.5,80.035 63.034,73.156 63.083,72.578 C63.662,65.83 62.573,60.474 62.574,53.92 C62.084,50.93 63.965,49.925 66.199,49.791 C68.179,49.673 69.018,51.964 69.868,53.412 C70.833,55.057 72.184,56.24 72.921,57.483 C73.355,58.214 80.467,58.775 82.25,57.483 C84.704,55.705 93.038,50.196 94.293,47.645 C94.851,46.51 100.982,36.283 101.925,36.281 C101.005,34.438 104.464,36.048 104.47,38.825 C105.29,38.827 110.521,46.406 110.745,47.645 C111.081,49.494 118.403,53.921 118.548,53.921 L123.636,53.921 C123.636,53.883 129.656,49.845 129.404,48.833 C131.297,48.076 134.963,55.428 136.189,54.939 C135.128,56.706 143.964,57.056 144.5,55.448 C147.785,57.09 150.863,42.049 151.115,42.048 C151.115,36.52 156.369,38.291 156.373,33.737 C155.242,33.737 145.008,33.37 145.008,35.264 C142.528,35.268 141.785,45.679 141.785,47.816 C138.933,47.816 135.502,39.504 133.644,39.504 C133.638,36.731 126.859,37.287 126.859,38.316 C124.449,38.316 123.285,42.054 124.824,42.047 C124.803,53.368 116.951,43.475 114.986,39.503 C114.013,37.536 109.218,24.628 109.218,21.863 C107.638,21.868 109.122,6.773 107.013,6.767 L107.013,6.258 L107.014,6.258 L107.014,6.258 Z M19.492,23.898 C20.594,23.902 23.996,32.221 24.242,33.227 C24.488,34.233 30.972,42.556 31.027,42.556 C30.595,45.155 26.384,53.416 23.734,53.412 C23.734,54.844 15.937,54.859 15.932,53.412 C13.256,53.412 8.152,43.465 8.755,39.832 C9.638,34.515 13.374,26.04 17.967,23.39 C17.969,22.527 19.495,22.294 19.492,23.898 L19.492,23.898 Z M168.246,37.467 C167.353,36.879 163.6,39.032 162.141,39.503 C159.286,40.422 160.342,43.194 161.123,43.574 C162.736,44.359 170.449,52.528 170.451,53.412 L175.031,53.412 C175.025,51.764 177.273,55.041 175.539,55.617 C175.537,57.899 175.031,58.429 175.031,60.706 C174.289,60.708 171.924,82.032 170.959,83.435 C170.293,84.402 168.01,97.531 167.736,98.531 C166.732,102.207 161.599,128.052 158.918,128.045 C158.91,130 155.17,126.565 155.863,124.483 C155.142,124.483 151.677,112.448 153.15,112.44 C153.869,108.836 145.504,111.161 145.517,115.153 C146.152,115.153 146.732,128.046 148.062,128.046 C148.062,129.872 151.308,137.378 153.15,137.374 C154.187,140.522 164.175,137.356 164.175,134.151 C166.622,135.618 174.111,105.221 175.03,100.567 C175.21,99.651 178.835,83.731 179.1,82.926 C179.903,80.496 184.873,54.432 185.375,54.431 C185.375,51.479 188.984,42.436 187.41,40.862 C187.402,37.69 177.566,39.888 177.572,44.593 C177.398,44.651 175.529,47.635 175.537,45.611 C174.785,45.799 170.045,38.399 169.262,37.808 C168.832,37.482 168.832,37.854 168.246,37.467 L168.246,37.467 Z M53.755,47.135 C54.942,48.323 54.49,49.246 53.422,49.922 C51.86,50.912 48.982,51.375 47.988,51.375 C47.99,49.273 49.527,48.808 50.774,48.399 C51.161,48.273 53.75,46.024 53.755,47.135 L53.755,47.135 Z M55.791,72.068 C55.659,72.543 54.653,87.172 52.738,87.164 L52.738,88.012 C48.009,88.012 54.771,69.19 54.774,66.811 C56.744,66.814 56.263,70.375 55.791,72.068 L55.791,72.068 Z"/>
</svg>
