<svg version="1.1" id="Layer_1" xmlns="http://www.w3.org/2000/svg" x="0" y="0" viewBox="0 0 423.4 189.8" xml:space="preserve"><style>.st0{fill:#fff}</style><path class="st0" d="M111.2 53.4h33.9c19.8 0 31.8 11.7 31.8 28.7v.2c0 19.2-14.9 29.2-33.5 29.2h-13.9v24.9h-18.2l-.1-83zm32.7 41.9c9.1 0 14.5-5.4 14.5-12.6v-.2c0-8.2-5.7-12.6-14.8-12.6h-14.1v25.4h14.4zM221.6 70.3h-25.2V53.4h68.8v16.8h-25.3v66.1h-18.2v-66zM294.1 53.4h18.2v83h-18.2v-83zM340.2 53.4h20.1l21.7 58.4 21.7-58.4h19.7L389.9 137h-16.1l-33.6-83.6zM43 51.9c-23.7 0-43 19.3-43 43s19.3 43 43 43 43-19.3 43-43-19.3-43-43-43zm0 68.2c-13.9 0-25.2-11.3-25.2-25.1S29.1 69.8 43 69.8c13.9 0 25.2 11.3 25.2 25.2 0 13.8-11.3 25.1-25.2 25.1z"/><path d="M43 154.6c-21 0-38.6 15.2-42.3 35.2h18.4c3.3-10.1 12.8-17.4 23.9-17.4s20.6 7.3 23.9 17.4h18.4c-3.7-20-21.2-35.2-42.3-35.2zM43 35.2C64.1 35.2 81.6 20 85.3 0H66.9C63.6 10.1 54.2 17.4 43 17.4S22.4 10.1 19.1 0H.7C4.4 20 21.9 35.2 43 35.2z" fill="#fff"/></svg>