<svg xmlns="http://www.w3.org/2000/svg" width="172" height="22" viewBox="0 0 172 22"><path fill="#EA1B22" d="M71.365 14.25h10.907l-5.767-9.277L65.92 21.748h-4.817l12.874-20.15A3.042 3.042 0 0176.505.29c1 0 1.933.475 2.476 1.272l12.925 20.185H87.09L84.816 18H73.774l-2.409-3.748zM121.403 18V.494h-4.087v19.218c0 .525.203 1.034.593 1.424.39.39.916.611 1.493.611h18.641L140.452 18h-19.049zM53.775 14.86c3.97 0 7.192-3.205 7.192-7.175A7.196 7.196 0 0053.775.495H35.892v21.253h4.086V4.243h13.526c1.9 0 3.426 1.544 3.426 3.443 0 1.9-1.526 3.444-3.426 3.444l-11.524-.017 12.202 10.635h5.937l-8.21-6.887h1.866zm-43.038 6.887C4.87 21.748.11 16.998.11 11.13.109 5.26 4.87.495 10.737.495h12.354c5.869 0 10.627 4.766 10.627 10.635S28.96 21.748 23.09 21.748H10.737zM22.817 18a6.87 6.87 0 006.879-6.87c0-3.799-3.079-6.886-6.88-6.886H11.01c-3.799 0-6.88 3.087-6.88 6.887 0 3.8 3.081 6.87 6.88 6.87h11.806zm77.621 3.75c-5.869 0-10.635-4.75-10.635-10.62 0-5.868 4.766-10.634 10.635-10.634h14.672l-2.391 3.748h-12.01a6.892 6.892 0 00-6.886 6.887c0 3.8 3.087 6.87 6.887 6.87h14.74l-2.409 3.748h-12.603zm49.988-3.75a6.87 6.87 0 01-6.616-5.003h17.471l2.409-3.749h-19.88c.814-2.884 3.478-5.004 6.616-5.004h11.992l2.425-3.748h-14.689c-5.869 0-10.635 4.766-10.635 10.635s4.766 10.618 10.635 10.618h12.603L165.166 18h-14.74zm16.606-15.248a1.86 1.86 0 011.865-1.866c1.052 0 1.883.83 1.883 1.866a1.868 1.868 0 01-1.883 1.882 1.864 1.864 0 01-1.865-1.882zm1.865 2.408a2.389 2.389 0 002.392-2.392 2.389 2.389 0 00-2.392-2.391 2.385 2.385 0 00-2.374 2.391 2.385 2.385 0 002.374 2.392zm-.22-3.816c.373 0 .526.017.695.084.475.153.526.577.526.747 0 .034 0 .119-.034.22a.688.688 0 01-.322.458c-.034.017-.051.034-.119.068l.61 1.103h-.593l-.543-1.018h-.373v1.018h-.526v-2.68h.679zm.186 1.22c.17-.016.34-.016.441-.169a.36.36 0 00.068-.237.38.38 0 00-.203-.322c-.12-.051-.238-.051-.492-.051h-.153v.78h.34z"/></svg>