<svg xmlns="http://www.w3.org/2000/svg" viewBox="0 0 354.8 428"><path fill="#f22613" d="M0 0h354.8v428H0z"/><path d="M326.52 236.33h-60.44v76.86c0 7.88-3.29 11.17-9.85 11.17s-9.85-3.29-9.85-11.17v-199c0-6.57 3.28-10.51 9.85-10.51s9.85 3.94 9.85 10.51v69.64h60.43v-67c0-32.85-16.42-56.5-67.66-56.5s-76.2 19.71-76.2 56.5v193.74c0 37.43 25 57.15 76.2 57.15s67.66-23.65 67.66-57.15v-74.24zm-157-118.25c0-36.79-17.73-56.5-59.78-56.5H28.28V366.4H92V248.82h17.74c42 0 59.78-19.71 59.78-56.5v-74.23zM92 204.8v-99.19c14.45 0 20.37 3.94 20.37 17.08v65c0 13.17-5.92 17.11-20.37 17.11z" fill="#fff"/></svg>