<svg xmlns="http://www.w3.org/2000/svg" viewBox="-220 342 170 110"><path fill="#FFF" d="M-134.4 448.1c-45.2 0-81.8-23-81.8-51.4s36.6-51.4 81.8-51.4 81.8 23 81.8 51.4c.1 28.4-36.6 51.4-81.8 51.4"/><path fill="#007CC2" stroke="#007CC2" stroke-width=".311" d="M-53 396.7c0 28.4-36.5 51.3-81.6 51.3-13.3 0-25.8-2-36.9-5.5l14.5-53.9h7.1l-6.4 24h10.4l7.3-27.4H-156l5.5-20.9c.7-2.6 3.5-6.5 7.4-6.5 2.3 0 5.1 1.1 5.2 2.6-2.9 0-5.3 2.8-5.3 5.8s2.4 5.5 5.3 5.5c1.9 0 6.1-2.1 5.9-6.8-.2-2.9-1.8-8.6-11.1-8.8-10.8-.2-18.2 9.4-20.8 19.1-1.6 5.8-5.5 19.6-8.8 32.1l-8.5 31.5c-21.1-9.3-34.8-24.7-34.8-42.1 0-28.3 36.6-51.3 81.6-51.3S-53 368.3-53 396.7zm-142.8 15.9l3.4-12.7c17.4.3 20.7-3.9 23.1-14.8 1.7-7.6-2.5-13.5-10.1-13.5h-20.7l-.9 3.4h4.5l-10 37.5 10.7.1zm9.9-37.4c5.4-.2 7.5 1.1 5.4 10-2.7 11.5-6 11.3-11.1 11.3l5.7-21.3zM-57.6 390c0-3.1-2.3-5.6-5.2-5.6-2.3 0-5.6 1.5-7.9 5.3l1.1-4.5h-14.1l-.9 3.4h3.8l-6.4 24h10.4l3.9-14.5c1.5-4.5 4.4-9.7 5.2-9-.9 4.2 2.2 6.6 5 6.6s5.1-2.5 5.1-5.7zm-47.9 10H-88c.1-.5.2-.8.3-1.2 1.9-9.1-2.6-14.9-9.8-14.9-7.8 0-15 2.6-18 14.9-2 8.1 2.4 14.6 10.1 14.9 6.9.2 13.5-1.7 16.7-11.1h-10.6l-.6 2.4c-1.3 4.8-3 5.3-4.8 5.3-1.9 0-2.8-2.4-2-5.3l1.2-5zm1.9-7.4c.8-2.9 2.5-5.4 4.8-5.3 2.2 0 2.8 2.4 2 5.3l-1 3.7h-6.8l1-3.7zm-15.7 16.6h-8.8l15.2-24h-22.2l-.9 3.4h8.8l-15 24h22l.9-3.4z"/></svg>