<svg xmlns="http://www.w3.org/2000/svg" width="1000" height="758.995"><path d="M1000 325.903H636.265v-93.1H1000v93.1z" fill="#e669a2" color="#000" overflow="visible"/><path d="M952.756 325.903h-316.49V93.05h316.49v232.853z" fill="#f3be26" color="#000" overflow="visible"/><path d="M821.998 325.903H636.265V0h185.733v325.903z" fill="#ee9c34" color="#000" overflow="visible"/><path d="M858.54 325.903H636.264V36.366H858.54v289.537z" fill="#f3bc87" color="#000" overflow="visible"/><path d="M636.213 36.42v289.453h185.765V36.42H636.213z" fill="#e3721c" color="#000" overflow="visible"/><path d="M450.016 325.903h186.25v46.555h-186.25v-46.555z" fill="#ad1b02" color="#000" overflow="visible"/><path d="M636.213 93v232.873h222.432V93H636.213z" fill="#e88d14" color="#000" overflow="visible"/><path d="M636.213 93v232.873h185.765V93H636.213z" fill="#d85604" color="#000" overflow="visible"/><path d="M752.414 325.903h-116.15V186.14h116.15v139.763z" fill="#c14303" color="#000" overflow="visible"/><path d="M636.213 232.87v93.003h316.65V232.87h-316.65z" fill="#db4e18" color="#000" overflow="visible"/><path d="M636.213 232.87v93.003h222.432V232.87H636.213z" fill="#d1390d" color="#000" overflow="visible"/><path d="M636.213 232.87v93.003h185.765V232.87H636.213z" fill="#c22303" color="#000" overflow="visible"/><path d="M636.213 232.87v93.003h116.315V232.87H636.213z" fill="#ad1b02" color="#000" overflow="visible"/><path d="M676.76 501.248c-31.69 5.634-48.59 29.578-48.59 71.127 0 42.253 22.534 70.422 55.633 70.422 16.197 0 30.282-5.633 59.86-20.422v34.507c-35.917 16.9-57.043 21.127-85.212 21.127-31.69 0-54.225-7.748-71.83-26.762-18.31-18.31-28.17-42.253-28.17-69.718 0-59.86 45.07-101.41 110.564-101.41 42.958 0 73.24 20.424 73.24 49.297 0 19.014-14.085 32.395-34.508 32.395-10.563 0-19.014-3.522-30.985-9.86M518.31 581.53c28.873-35.916 39.436-50.704 39.436-68.31s-14.084-33.1-33.802-33.1c-11.268 0-21.83 6.34-26.76 11.973v73.944L450 629.417V485.755h-45.07l-74.648 123.24v-123.24H304.93l-68.31 15.493v17.606l37.324 3.52v152.818h47.183l71.83-118.31v118.31h52.818M93.662 651.248h10.563c38.03 0 59.155-23.24 59.155-69.718 0-38.733-16.9-59.86-48.59-59.86-4.227 0-10.565.705-21.128 2.818v126.76zm0 83.1l30.986 7.04v17.607H2.818V741.39l28.168-7.043V521.67H0v-17.605l73.944-22.535h19.718v25.352c34.507-21.127 46.48-24.648 64.79-24.648 40.844 0 71.83 38.028 71.83 90.845 0 60.563-41.55 102.112-104.93 102.112-7.042 0-19.014-.704-31.69-1.41"/></svg>