<svg xmlns="http://www.w3.org/2000/svg" viewBox="0 0 436.2 79.3"><style>.st0{fill:#ed2e26}</style><g id="Layer_1"><path class="st0" d="M74 .2h14.9l18.7 58.2L127 0h11.7L158 58.5 176.7.3h14.5l-27.3 79.1h-12L132.6 23l-19.3 56.4h-12L74 .2zM197.1.2h12.8L252 54.5V.2h13.6v78.5H254l-43.3-55.9v55.9h-13.6V.2zM277.6.2h13.8v39.5L328.7.2h17.2L313 34l34.2 44.8h-16.8l-26.8-35.3L291.4 56v22.8h-13.8V.2zM351.6.2h13.8v78.5h-13.8V.2zM397.4 13h-25V.2h63.8V13h-25v65.8h-13.8V13z"/><path d="M73.8 20.5C70.8 8.4 60.3.3 47.6.2 32.2.1 16.7.2 1.3.2H0v78.6h5.9V6.1h.8c13.9 0 27.8-.1 41.7 0 5.5 0 10.2 2.2 14.1 6.1 6.1 6 7.9 14.9 4.6 23.1C64 42.9 56.5 48 47.8 48.1c-7.4.1-14.7 0-22.1 0h-1.9V73h-6v-1.3-.4-51.6V18h.8c9.8 0 19.5-.1 29.3 0 5.1.1 9 4.2 9 9.2-.1 5-4 8.9-9.2 8.9H30.1V30h14.3v-5.8H24.1V42H48c1.1 0 2.2-.2 3.3-.4 7.3-1.7 12.3-8.7 11.4-16-.9-7.8-7.1-13.5-14.9-13.5H12.1v66.7H30V54h18.1c17.3-.1 30-16.6 25.7-33.5z" fill="#fff"/><g><path class="st0" d="M52.5 28.8h-.9l-.2 1.2h-1.1l.2-1.2h-1.2l-.3 1.3h-1.1l.2-1.2h-.6v-1.1h.8l.2-1.2h-.7v-1.1h.9l.2-1.2H50l-.2 1.2H51l.2-1.2h1.1l-.2 1.2h.6v1.1h-.8l-.2 1.2h.7v1zm-3.1-1h1.3l.2-1.3h-1.3l-.2 1.3z"/></g></g></svg>