<svg width="104" height="56" viewBox="0 0 104 56" xmlns="http://www.w3.org/2000/svg"><g fill="none" fill-rule="evenodd"><path d="M40.331 23.696c0 5.099-2.366 9.909-6.404 13.027-2.727-.25-5.569-1.022-6.861-1.755 3.324-2.122 7.639-6.244 7.639-11.266-.007-6.289-5.106-11.388-11.401-11.394-6.283 0-11.388 5.26-11.388 11.722 0 5.389 2.855 9.626 8.488 12.578 3.684 1.935 9.182 3.35 14.989 4.096-.965 1.44-3.543 3.897-5.048 4.732-6.958-1.138-13.06-3.549-17.24-7.156-4.469-3.859-6.829-8.9-6.829-14.578-.302-9.407 7.08-17.278 16.488-17.574 9.4-.296 17.272 7.086 17.567 16.487.007.36.007.72 0 1.08M46.1 8.122S38.473 0 23.297 0C8.122 0 .502 8.121.502 8.121S-.379 14.127.193 26.23c.843 18.282 23.11 29.258 23.117 29.258 0 0 22.275-10.976 23.117-29.258.547-12.102-.328-18.108-.328-18.108" fill="#FFF"/><path d="M22.764 6.128c-9.408.296-16.79 8.167-16.488 17.568 0 5.678 2.36 10.713 6.83 14.577 4.179 3.608 10.282 6.025 17.24 7.157 1.504-.836 4.082-3.292 5.047-4.733-5.807-.745-11.305-2.16-14.99-4.096-5.632-2.951-8.487-7.182-8.487-12.577 0-6.463 5.112-11.723 11.388-11.723 6.289.007 11.388 5.106 11.4 11.395 0 5.022-4.314 9.144-7.638 11.266 1.292.739 4.134 1.51 6.86 1.755a16.452 16.452 0 006.405-13.028c.013-.36.013-.72 0-1.08-.302-9.395-8.166-16.777-17.567-16.481"/><path d="M63.165 42.684c-4.533 0-8.288-1.472-11.831-4.63l-.226-.205 2.4-2.836.243.219c3.093 2.797 5.858 3.941 9.543 3.941 3.55 0 6.025-1.858 6.025-4.52v-.084c0-2.327-1.138-3.832-7.144-5.092-5.884-1.28-9.8-3.216-9.8-8.514v-.084c0-4.681 4.064-8.076 9.659-8.076 4.032 0 7.08 1.067 10.192 3.562l.237.193-2.25 2.984-.25-.206c-2.528-2.058-5.068-3.016-8.007-3.016-3.382 0-5.742 1.756-5.742 4.276v.084c0 2.398 1.158 3.864 7.472 5.215 6.668 1.453 9.51 3.948 9.51 8.353v.083c-.006 4.92-4.128 8.353-10.03 8.353M91.89 42.768c-8.309 0-14.578-6.424-14.578-14.944v-.084c0-8.423 6.456-15.02 14.7-15.02 5.652 0 8.777 2.211 11.304 4.597l.225.212-2.623 2.817-.232-.22c-2.816-2.674-5.427-3.812-8.72-3.812-6.095 0-10.693 4.88-10.693 11.343v.083c0 6.405 4.7 11.427 10.694 11.427 3.948 0 6.443-1.608 8.964-4.019l.218-.212 2.553 2.508-.219.225c-2.475 2.527-5.8 5.099-11.593 5.099" fill="#FFF"/></g></svg>