<svg width="1613" height="863" viewBox="0 0 1613 863" xmlns="http://www.w3.org/2000/svg"><g fill="none" fill-rule="evenodd"><path d="M354 95.3c-146.3 4.6-261.1 127-256.4 273.2 0 88.3 36.7 166.6 106.2 226.7 65 56.1 159.9 93.7 268.1 111.3 23.4-13 63.5-51.2 78.5-73.6-90.3-11.6-175.8-33.6-233.1-63.7-87.6-45.9-132-111.7-132-195.6 0-100.5 79.5-182.3 177.1-182.3 97.8.1 177.1 79.4 177.3 177.2 0 78.1-67.1 142.2-118.8 175.2 20.1 11.5 64.3 23.5 106.7 27.3 62.8-48.4 99.6-123.3 99.6-202.6.2-5.6.2-11.2 0-16.8-4.7-146.1-127-260.9-273.2-256.3z" fill="#FFF"/><path d="M716.9 126.3S598.3 0 362.3 0C126.3 0 7.8 126.3 7.8 126.3S-5.9 219.7 3 407.9c13.1 284.3 359.4 455 359.5 455 0 0 346.4-170.7 359.5-455 8.5-188.2-5.1-281.6-5.1-281.6zm-89.7 242.2c0 79.3-36.8 154.1-99.6 202.6-42.4-3.9-86.6-15.9-106.7-27.3 51.7-33 118.8-97.1 118.8-175.2-.1-97.8-79.4-177.1-177.3-177.2-97.7 0-177.1 81.8-177.1 182.3 0 83.8 44.4 149.7 132 195.6 57.3 30.1 142.8 52.1 233.1 63.7-15 22.4-55.1 60.6-78.5 73.6-108.2-17.7-203.1-55.2-268.1-111.3-69.5-60-106.2-138.4-106.2-226.7C92.9 222.3 207.7 99.9 354 95.3c146.2-4.6 268.6 110.2 273.2 256.4.1 5.6.1 11.2 0 16.8zm355.1 295.3c-70.5 0-128.9-22.9-184-72l-3.5-3.2 37.3-44.1 3.8 3.4c48.1 43.5 91.1 61.3 148.4 61.3 55.2 0 93.7-28.9 93.7-70.3v-1.3c0-36.2-17.7-59.6-111.1-79.2-91.5-19.9-152.4-50-152.4-132.4v-1.3c0-72.8 63.2-125.6 150.2-125.6 62.7 0 110.1 16.6 158.5 55.4l3.7 3-35 46.4-3.9-3.2c-39.3-32-78.8-46.9-124.5-46.9-52.6 0-89.3 27.3-89.3 66.5v1.3c0 37.3 18 60.1 116.2 81.1 103.7 22.6 147.9 61.4 147.9 129.9v1.3c-.1 76.5-64.2 129.9-156 129.9zm446.7 1.3c-129.2 0-226.7-99.9-226.7-232.4v-1.3c0-131 100.4-233.6 228.6-233.6 87.9 0 136.5 34.4 175.8 71.5l3.5 3.3-40.8 43.8-3.6-3.4c-43.8-41.6-84.4-59.3-135.6-59.3-94.8 0-166.3 75.9-166.3 176.4v1.3c0 99.6 73.1 177.7 166.3 177.7 61.4 0 100.2-25 139.4-62.5l3.4-3.3 39.7 39-3.4 3.5c-38.5 39.3-90.2 79.3-180.3 79.3z" fill="#ED2E26" fill-rule="nonzero"/></g></svg>