<svg id="RGB_Full_Color_Logos" data-name="RGB Full Color Logos" xmlns="http://www.w3.org/2000/svg" viewBox="0 0 571.854 491.6107"><title>qualys-vertical-sans-tagline</title><path d="M66.0738,774.6111A66.1488,66.1488,0,0,0,0,840.6849c0,22.0539,9.268,41.7045,26.8018,56.8287C43.2228,911.6769,66.77,921.44,93.9574,925.9649c3.8881-2.1358,11.24-9.342,13.581-14.2785-20.0313-3.4557-29.2178-6.8847-29.2178-6.8847a38.1192,38.1192,0,0,0,7.7131-1.5481c26.7606-7.5059,46.3779-33.9378,46.1147-62.5687C131.8136,804.2533,102.5078,774.6111,66.0738,774.6111Zm0,113.1257a47.0519,47.0519,0,1,1,47.0528-47.0519A47.1054,47.1054,0,0,1,66.0738,887.7368Z" transform="translate(0 -437.1108)" fill="#262626"/><path d="M554.6137,881.4485a10.5821,10.5821,0,0,1,14.41,0,10.8591,10.8591,0,0,1,0,14.6228,10.5909,10.5909,0,0,1-14.41,0A10.8591,10.8591,0,0,1,554.6137,881.4485Zm1.4578,13.2085a8.4054,8.4054,0,0,0,11.493,0,8.9393,8.9393,0,0,0,0-11.8168,8.4581,8.4581,0,0,0-11.493,0A8.9441,8.9441,0,0,0,556.0714,894.657Zm10.0352-8.534a3.3344,3.3344,0,0,1-2.4871,3.344l2.8737,4.5038h-2.231l-2.6159-4.3749h-1.3289v4.3749H558.43V882.8176h4.1172a3.6775,3.6775,0,0,1,2.574.902A3.0954,3.0954,0,0,1,566.1067,886.123Zm-5.7892-1.5464v3.26h1.9732a1.9306,1.9306,0,0,0,1.35-.451,1.52,1.52,0,0,0,.4929-1.1791q0-1.6285-1.8427-1.63h-1.9732Z" transform="translate(0 -437.1108)" fill="#262626"/><path d="M431.4726,871.043l-22.3171-59.2154H389.2707l32.5618,82.6551s-14.4048,34.2417-14.3994,34.239c9.4773,0,19.8444-.6691,23.9007-10.6553,9.5136-23.4221,42.6449-106.2387,42.6449-106.2387h-19.89Z" transform="translate(0 -437.1108)" fill="#262626"/><path d="M356.8825,900.5826s18.4572-.3417,18.4572-12.8661V775.2292H356.8825V900.5826Z" transform="translate(0 -437.1108)" fill="#262626"/><path d="M318.6029,823.4847c-5.14-7.1682-15.1791-14.1254-29.9609-14.1254-25.2279,0-44.2529,19.6211-44.2529,45.64,0,12.161,4.1585,23.4622,11.709,31.8207,8.1673,9.0421,19.4214,13.8212,32.5439,13.8212,12.7138,0,23.6007-5.1859,29.9609-14.07v14.0112S337.06,900.29,337.06,887.7262V811.8275H318.6029v11.6572Zm-27.6471,59.78c-11.159,0-27.8515-7.4478-28.1095-27.9635v-0.1469c0-16.2009,11.9519-28.4184,27.8016-28.4184,11.8389,0,21.4583,6.1813,25.759,16.5973a25.5537,25.5537,0,0,1,2.3514,11.9322,30.5693,30.5693,0,0,1-2.8326,12.06C311.58,877.3052,302.2448,883.2642,290.9558,883.2642Z" transform="translate(0 -437.1108)" fill="#262626"/><path d="M210.7588,859.9376c0,14.9042-7.7407,23.1892-21.7832,23.3266-14.2431,0-21.1673-8.0844-21.1673-24.7156V811.8275H149.3521v50.4238c0,7.2783,1.227,17.6577,7.074,25.7769,5.9741,8.2972,15.4174,12.5405,28.0624,12.613,0.1733,0.0019.3465,0.0028,0.5179,0.0028,15.1236,0,22.9114-6.8555,26.6781-12.1827v12.1212s17.5315-.299,17.5315-12.2406V811.8275H210.7588v48.11Z" transform="translate(0 -437.1108)" fill="#262626"/><path d="M518.2281,846.9028c-9.5912-4.1464-16.5644-7.7313-16.4419-13.2933,0.0811-3.68,4.928-7.204,9.9683-7.03,5.394,0.186,9.393,3.906,11.625,6.882,0,0,10.0836-8.6189,11.3037-9.5427a28.2677,28.2677,0,0,0-24.0478-13.7357A25.5994,25.5994,0,0,0,484.3357,835c-0.2671,12.124,6.834,17.1275,16.147,22.4093l15.3283,8.6183c3.5363,2.473,5.2047,4.3191,5.1209,8.1241-0.1314,5.9622-5.1174,9.8272-11.5756,10.2082-4.7507.28-8.6517-2.4659-12.348-6.3345-7.194-7.5291-18.2365-3.91-21.6155-2.8211,7.0258,16.156,20.317,25.5643,33.5955,25.8569,16.7221,0.3684,30.0991-11.9737,30.4544-28.0987C539.6136,865.202,536.2111,855.5612,518.2281,846.9028Z" transform="translate(0 -437.1108)" fill="#262626"/><path d="M281.9087,437.1108c80.1578,0,120.4615,42.888,120.4615,42.888s4.6084,31.7458,1.667,95.6667c-4.4434,96.56-122.1,154.55-122.1111,154.5562S164.26,672.2259,159.8168,575.6655c-2.9415-63.9209,1.667-95.6667,1.667-95.6667S201.7509,437.1108,281.9087,437.1108Z" transform="translate(0 -437.1108)" fill="#ed2e26"/><path d="M221.76,564.04c0-34.1421,26.9912-61.9185,60.167-61.9185a60.2847,60.2847,0,0,1,60.2168,60.2168c0,26.5072-22.7864,48.3157-40.3477,59.5225,6.8125,3.887,21.8486,7.9694,36.2451,9.2889a86.9056,86.9056,0,0,0,33.8428-68.8114,89.9565,89.9565,0,1,0-179.9131,0c0,29.9575,12.4736,56.5708,36.0723,76.9644,22.0625,19.0654,54.3361,31.791,91.0813,37.8164,7.96-4.399,21.5761-17.3866,26.6811-24.99-30.6885-3.9473-59.732-11.431-79.2027-21.6448C236.8477,614.8762,221.76,592.5208,221.76,564.04Z" transform="translate(0 -437.1108)" fill="#fff"/></svg>