<svg xmlns="http://www.w3.org/2000/svg" xmlns:xlink="http://www.w3.org/1999/xlink" viewBox="0 0 110 35"><defs><path id="a" d="M0 34.823V.105h28.979v34.718H0z"/><path id="c" d="M2.576 2.646V.082H.056v2.564h2.52z"/></defs><g fill="none" fill-rule="evenodd"><g transform="translate(0 .013)"><mask id="b" fill="#fff"><use xlink:href="#a"/></mask><path fill="#ED2E26" d="M14.487.105c9.436 0 14.18 5.08 14.18 5.08s.542 3.76.196 11.331C28.34 27.953 14.49 34.822 14.49 34.823c0 0-13.85-6.87-14.373-18.307-.347-7.57.196-11.33.196-11.33S5.052.105 14.487.105" mask="url(#b)"/></g><path fill="#262626" d="M46.4 23.397c-3.26 0-5.91-2.667-5.91-5.947 0-3.279 2.65-5.946 5.91-5.946 3.258 0 5.91 2.667 5.91 5.946 0 3.28-2.652 5.947-5.91 5.947m0-14.298c-4.577 0-8.3 3.747-8.3 8.351 0 2.788 1.164 5.272 3.367 7.183 2.062 1.79 5.02 3.024 8.435 3.596.488-.27 1.412-1.18 1.706-1.805-2.516-.437-3.67-.87-3.67-.87s.322-.013.969-.195c3.36-.95 5.825-4.29 5.792-7.909-.042-4.604-3.723-8.35-8.3-8.35"/><g transform="translate(107.353 22.162)"><mask id="d" fill="#fff"><use xlink:href="#c"/></mask><path fill="#262626" d="M1.127.836v.412h.248c.071 0 .128-.02.17-.057a.193.193 0 00.061-.15c0-.137-.077-.205-.231-.205h-.248zm.727.195a.433.433 0 01-.083.268.432.432 0 01-.23.155l.362.569h-.28l-.33-.553h-.166v.553H.89V.613h.517a.46.46 0 01.323.114.392.392 0 01.124.304zM.594 2.11a.965.965 0 00.722.287.964.964 0 00.721-.287c.187-.192.28-.441.28-.748 0-.308-.093-.556-.28-.746a.968.968 0 00-.721-.284.969.969 0 00-.722.284c-.187.19-.28.438-.28.746 0 .307.093.556.28.748zM.41.44C.647.202.95.082 1.316.082s.667.12.905.358c.237.238.355.546.355.922 0 .379-.118.688-.355.926-.238.239-.54.358-.905.358-.367 0-.669-.119-.906-.358-.237-.238-.355-.547-.355-.926C.055.986.173.678.41.44z" mask="url(#d)"/></g><path fill="#262626" d="M92.296 21.287l-2.803-7.484h-2.498l4.09 10.447-1.808 4.327c1.19 0 2.492-.084 3.002-1.346 1.195-2.96 5.356-13.428 5.356-13.428h-2.498l-2.84 7.484zm-9.369 3.734s2.319-.043 2.319-1.626V9.177h-2.319v15.844zm-8.28-2.189c-1.402 0-3.5-.941-3.531-3.534v-.019c0-2.047 1.5-3.592 3.492-3.592 1.487 0 2.695.782 3.235 2.098.213.445.315.967.295 1.508a3.885 3.885 0 01-.355 1.524c-.546 1.262-1.719 2.015-3.137 2.015zm3.472-7.555c-.646-.906-1.907-1.786-3.763-1.786-3.17 0-5.559 2.48-5.559 5.769 0 1.537.523 2.965 1.47 4.021 1.027 1.143 2.44 1.747 4.089 1.747 1.597 0 2.964-.655 3.763-1.778v1.77s2.318-.036 2.318-1.624v-9.593H78.12v1.474zm-13.546 4.607c0 1.884-.972 2.93-2.736 2.948-1.79 0-2.659-1.022-2.659-3.124v-5.905H56.86v6.373c0 .92.154 2.232.888 3.258.75 1.049 1.937 1.585 3.525 1.594h.065c1.9 0 2.878-.866 3.351-1.54v1.533s2.202-.038 2.202-1.547v-9.67h-2.318v6.08zm38.62-1.648c-1.204-.524-2.08-.977-2.065-1.68.01-.465.62-.91 1.252-.888.678.023 1.18.493 1.46.87 0 0 1.267-1.09 1.42-1.207-.656-1.093-1.77-1.708-3.02-1.736-1.783-.04-3.265 1.368-3.304 3.137-.033 1.532.859 2.165 2.028 2.832l1.926 1.09c.444.312.654.545.643 1.026-.016.754-.643 1.242-1.454 1.29-.597.036-1.087-.311-1.551-.8-.903-.952-2.29-.494-2.715-.357.882 2.042 2.552 3.231 4.22 3.268 2.1.047 3.78-1.513 3.825-3.55.022-.982-.406-2.2-2.665-3.295"/><path fill="#FFF" d="M7.407 15.153c0-4.044 3.177-7.334 7.082-7.334 3.909 0 7.089 3.2 7.089 7.132 0 3.14-2.683 5.723-4.75 7.05.802.46 2.572.944 4.267 1.1a10.316 10.316 0 003.983-8.15c0-5.875-4.75-10.655-10.589-10.655C8.651 4.296 3.9 9.076 3.9 14.951c0 3.548 1.469 6.7 4.247 9.116 2.597 2.258 6.396 3.766 10.72 4.48.938-.522 2.54-2.06 3.142-2.96-3.613-.468-7.032-1.355-9.324-2.564-3.502-1.85-5.278-4.497-5.278-7.87"/></g></svg>