<svg id="RGB_Full_Color_Logos" data-name="RGB Full Color Logos" xmlns="http://www.w3.org/2000/svg" viewBox="0 0 933.8844 293.1108"><title>qualys-horizontal-tagline</title><path d="M1472.0621,53.8242a70.5859,70.5859,0,0,0-70.5059,70.5059c0,23.5332,9.89,44.502,28.6,60.6406,17.5225,15.1133,42.6495,25.5316,71.66,30.36,4.1489-2.2791,11.9942-9.9687,14.492-15.2362-21.375-3.6875-31.1776-7.3465-31.1776-7.3465a40.6761,40.6761,0,0,0,8.23-1.652c28.5557-8.0094,49.4888-36.2142,49.208-66.7656C1542.2115,85.4547,1510.94,53.8242,1472.0621,53.8242Zm0,120.7139a50.208,50.208,0,1,1,50.209-50.208A50.2652,50.2652,0,0,1,1472.0621,174.5381Z" transform="translate(-1077.8844)" fill="#ffffff"/><path d="M1993.3719,167.8279a11.2919,11.2919,0,0,1,15.3768,0,11.5875,11.5875,0,0,1,0,15.6037,11.3013,11.3013,0,0,1-15.3768,0A11.5875,11.5875,0,0,1,1993.3719,167.8279Zm1.5556,14.0945a8.9692,8.9692,0,0,0,12.2639,0,9.5389,9.5389,0,0,0,0-12.6094,9.0254,9.0254,0,0,0-12.2639,0A9.5441,9.5441,0,0,0,1994.9275,181.9224Zm10.7084-9.1064a3.5581,3.5581,0,0,1-2.6539,3.5683l3.0664,4.8059h-2.3806l-2.7914-4.6684h-1.418V181.19h-2.0145V169.2889h4.3934a3.9242,3.9242,0,0,1,2.7467.9626A3.3031,3.3031,0,0,1,2005.6359,172.816Zm-6.1775-1.65v3.4789h2.1056a2.06,2.06,0,0,0,1.44-.4813,1.6222,1.6222,0,0,0,.526-1.2582q0-1.7377-1.9664-1.7395h-2.1056Z" transform="translate(-1077.8844)" fill="#ffffff"/><path d="M1861.9709,156.7244L1838.1568,93.537h-21.2186l34.746,88.1994s-15.3711,36.5385-15.3653,36.5356c10.113,0,21.1755-.7139,25.5038-11.37,10.1517-24.9932,45.5054-113.3649,45.5054-113.3649h-21.2246Z" transform="translate(-1077.8844)" fill="#ffffff"/><path d="M1782.3775,188.2455s19.6952-.3646,19.6952-13.7292V54.4838h-19.6952V188.2455Z" transform="translate(-1077.8844)" fill="#ffffff"/><path d="M1741.53,105.9761c-5.4845-7.649-16.1973-15.0729-31.9706-15.0729-26.92,0-47.2213,20.9372-47.2213,48.7014,0,12.9767,4.4375,25.036,12.4944,33.9551,8.7151,9.6486,20.7242,14.7483,34.7269,14.7483,13.5666,0,25.1837-5.5338,31.9706-15.0136v14.951s19.6952-.3125,19.6952-13.7187V93.537H1741.53v12.4391Zm-29.5016,63.7894c-11.9076,0-29.72-7.9474-29.995-29.8392v-0.1568c0-17.2876,12.7537-30.3246,29.6664-30.3246,12.6331,0,22.8977,6.5959,27.4869,17.7106a27.2678,27.2678,0,0,1,2.5091,12.7326,32.62,32.62,0,0,1-3.0226,12.8692C1734.036,163.4068,1724.0748,169.7655,1712.0286,169.7655Z" transform="translate(-1077.8844)" fill="#ffffff"/><path d="M1626.4522,144.8742c0,15.9039-8.26,24.7446-23.2444,24.8913-15.1985,0-22.5872-8.6267-22.5872-26.3735V93.537h-19.6942v53.8061c0,7.7665,1.3093,18.8421,7.5485,27.506,6.3748,8.8538,16.4515,13.3817,29.9448,13.4591,0.1849,0.002.37,0.003,0.5527,0.003,16.138,0,24.4482-7.3154,28.4676-13v12.9342s18.7074-.3191,18.7074-13.0617V93.537h-19.6952v51.3372Z" transform="translate(-1077.8844)" fill="#ffffff"/><path d="M1954.5457,130.9651c-10.2346-4.4245-17.6755-8.25-17.5448-14.185,0.0865-3.9272,5.2586-7.6872,10.637-7.5017,5.7558,0.1985,10.023,4.168,12.4047,7.3436,0,0,10.76-9.197,12.0619-10.1828a30.1638,30.1638,0,0,0-25.6609-14.6571,27.3166,27.3166,0,0,0-28.0637,26.4819c-0.285,12.9372,7.2924,18.2764,17.23,23.9125l16.3565,9.1964c3.7735,2.6389,5.5538,4.6089,5.4644,8.669-0.14,6.3621-5.4607,10.4863-12.3521,10.893-5.0694.2991-9.232-2.6313-13.1763-6.7594-7.6765-8.0341-19.46-4.172-23.0654-3.01,7.4971,17.24,21.68,27.2791,35.849,27.5913,17.8438,0.3932,32.1181-12.7769,32.4972-29.9835C1977.3657,150.4917,1973.735,140.2042,1954.5457,130.9651Z" transform="translate(-1077.8844)" fill="#ffffff"/><path d="M1200.9577,0c80.1578,0,120.4615,42.888,120.4615,42.888s4.6084,31.7458,1.667,95.6667c-4.4434,96.56-122.1,154.55-122.1111,154.5562s-117.666-57.9958-122.1094-154.5562c-2.9415-63.9209,1.667-95.6667,1.667-95.6667S1120.8,0,1200.9577,0Z" transform="translate(-1077.8844)" fill="#ed2e26"/><path d="M1140.8087,126.9294c0-34.1421,26.9912-61.9185,60.167-61.9185a60.2847,60.2847,0,0,1,60.2168,60.2168c0,26.5072-22.7864,48.3157-40.3477,59.5225,6.8125,3.887,21.8486,7.9694,36.2451,9.2889a86.9056,86.9056,0,0,0,33.8428-68.8114,89.9565,89.9565,0,1,0-179.9131,0c0,29.9575,12.4736,56.5708,36.0723,76.9644,22.0625,19.0654,54.3361,31.791,91.0813,37.8164,7.96-4.399,21.5761-17.3866,26.6811-24.99-30.6885-3.9473-59.732-11.431-79.2027-21.6448C1155.8966,177.7654,1140.8087,155.41,1140.8087,126.9294Z" transform="translate(-1077.8844)" fill="#fff"/><path d="M1594.2118,270.6673a12,12,0,1,1,12-11.9993A12.03,12.03,0,0,1,1594.2118,270.6673Zm0.0418-21.3654a9.3718,9.3718,0,0,0,0,18.7313c5.2682,0,9.0308-4.3477,9.0308-9.4906A9.2,9.2,0,0,0,1594.2536,249.3019Z" transform="translate(-1077.8844)" fill="#ffffff"/><path d="M1628.7954,270.124V257.5386c0-2.1744-.5433-4.7239-2.1734-6.2713a7.281,7.281,0,0,0-9.9513,0c-1.5892,1.5056-2.1326,3.9716-2.1326,6.0623V270.124h-2.9267v-22.871h2.9267v2.9276h0.0836a8.2934,8.2934,0,0,1,7.0246-3.5128c6.5639,0,10.0767,4.5577,10.0767,10.8708V270.124h-2.9277Z" transform="translate(-1077.8844)" fill="#ffffff"/><path d="M1643.5921,249.887V270.124h-2.9267V249.887h-4.8085v-2.6341h4.8085v-8.07h2.9267v8.07h5.4772v2.6341h-5.4772Z" transform="translate(-1077.8844)" fill="#ffffff"/><path d="M1654.0119,243.3783v-4.1949h2.9267v4.1949h-2.9267Zm0,26.7456v-22.871h2.9267v22.871h-2.9267Z" transform="translate(-1077.8844)" fill="#ffffff"/><path d="M1681.6049,270.124V257.5386c0-2.1744-.5433-4.7239-2.1734-6.2713a7.281,7.281,0,0,0-9.9513,0c-1.5892,1.5056-2.1326,3.9716-2.1326,6.0623V270.124h-2.9267v-22.871h2.9267v2.9276h0.0836a8.2934,8.2934,0,0,1,7.0246-3.5128c6.5639,0,10.0767,4.5577,10.0767,10.8708V270.124h-2.9276Z" transform="translate(-1077.8844)" fill="#ffffff"/><path d="M1707.911,270.124V266.57h-0.0836c-1.3375,2.8013-4.3059,4.097-7.3162,4.097a9.8494,9.8494,0,0,1-7.8605-3.4282c-1.631-2.049-2.0072-4.8085-2.0072-7.359V247.2529h2.9267v12.5854c0,4.7249,1.7146,8.1949,6.941,8.1949a6.5446,6.5446,0,0,0,4.8493-1.839c2.0072-1.9236,2.3833-4.1815,2.3833-6.8574V247.2529h2.9267v22.871h-2.7595Z" transform="translate(-1077.8844)" fill="#ffffff"/><path d="M1728.0254,270.6673a12,12,0,1,1,12-11.9993A12.03,12.03,0,0,1,1728.0254,270.6673Zm0.0418-21.3654a9.3718,9.3718,0,0,0,0,18.7313c5.2682,0,9.0318-4.3477,9.0318-9.4906A9.2012,9.2012,0,0,0,1728.0672,249.3019Z" transform="translate(-1077.8844)" fill="#ffffff"/><path d="M1762.3709,270.124V266.57h-0.0836c-1.3375,2.8013-4.3059,4.097-7.3162,4.097a9.8494,9.8494,0,0,1-7.8605-3.4282c-1.631-2.049-2.0072-4.8085-2.0072-7.359V247.2529h2.9267v12.5854c0,4.7249,1.7146,8.1949,6.941,8.1949a6.5446,6.5446,0,0,0,4.8493-1.839c2.0072-1.9236,2.3833-4.1815,2.3833-6.8574V247.2529h2.9267v22.871h-2.7595Z" transform="translate(-1077.8844)" fill="#ffffff"/><path d="M1900.6878,270.124V266.57h-0.0836c-1.3375,2.8013-4.3059,4.097-7.3162,4.097a9.8494,9.8494,0,0,1-7.8605-3.4282c-1.631-2.049-2.0072-4.8085-2.0072-7.359V247.2529h2.9267v12.5854c0,4.7249,1.7146,8.1949,6.941,8.1949a6.5446,6.5446,0,0,0,4.8493-1.839c2.0072-1.9236,2.3833-4.1815,2.3833-6.8574V247.2529h2.9267v22.871h-2.7595Z" transform="translate(-1077.8844)" fill="#ffffff"/><path d="M1927.4649,243.3783v-4.1949h2.9267v4.1949h-2.9267Zm0,26.7456v-22.871h2.9267v22.871h-2.9267Z" transform="translate(-1077.8844)" fill="#ffffff"/><path d="M1944.121,249.887V270.124h-2.9267V249.887h-4.8085v-2.6341h4.8085v-8.07h2.9267v8.07h5.4772v2.6341h-5.4772Z" transform="translate(-1077.8844)" fill="#ffffff"/><path d="M1960.54,278.1517h-3.0521l3.9725-8.78-8.9064-22.1187h3.0939l7.2754,18.23,7.7769-18.23h3.0939Z" transform="translate(-1077.8844)" fill="#ffffff"/><path d="M1850.5425,264.9512a12.38,12.38,0,0,1-2.7724,2.0577,9.1921,9.1921,0,0,1-4.49,1.0308,9.6268,9.6268,0,0,1-3.3439-.5718,7.89,7.89,0,0,1-4.6036-4.3064,9.3374,9.3374,0,0,1-.756-3.6421l-0.0049-.3205h19.29v-0.8243a15.0727,15.0727,0,0,0-.6644-4.512,10.6345,10.6345,0,0,0-2.0149-3.7336,9.6231,9.6231,0,0,0-3.3906-2.5419,12.2048,12.2048,0,0,0-9.39,0,10.5417,10.5417,0,0,0-3.5492,2.5653A11.5035,11.5035,0,0,0,1832.5844,254a13.9947,13.9947,0,0,0-.8019,4.7867,13.546,13.546,0,0,0,.8478,4.9018,10.596,10.596,0,0,0,2.3821,3.7336,10.7217,10.7217,0,0,0,3.6644,2.381,12.7163,12.7163,0,0,0,4.7409.8478,10.947,10.947,0,0,0,5.36-1.214,15.5524,15.5524,0,0,0,3.5937-2.6573Zm-13.2852-13.5623a7.8933,7.8933,0,0,1,5.84-2.13,8.1747,8.1747,0,0,1,3.23.5953,6.8545,6.8545,0,0,1,2.359,1.6261,7.2789,7.2789,0,0,1,1.4886,2.4279,10.0579,10.0579,0,0,1,.5693,2.6554H1834.79A9.0222,9.0222,0,0,1,1837.2573,251.3889Z" transform="translate(-1077.8844)" fill="#ffffff"/><path d="M1779.6977,256.8649c-4.0522-.9516-5.7464-1.6728-5.7464-3.68,0-2.0927,2.116-3.4982,5.2653-3.4982a8.8073,8.8073,0,0,1,6.4215,2.5211l2.108-2.108a11.8016,11.8016,0,0,0-8.53-3.3991c-4.858,0-8.2513,2.6662-8.2513,6.4842,0,4.6977,4.6529,5.7892,8.05,6.5862,4.1689,0.98,6.0293,1.805,6.0293,4.1028,0,2.3969-2.117,3.8277-5.6638,3.8277a9.7442,9.7442,0,0,1-7.1169-2.8149l-2.1083,2.1083a12.7417,12.7417,0,0,0,9.2252,3.6926c5.9749,0,8.65-3.4224,8.65-6.8137C1788.0306,258.8225,1783.0161,257.6444,1779.6977,256.8649Z" transform="translate(-1077.8844)" fill="#ffffff"/><path d="M1576.7507,264.0907a12.8291,12.8291,0,0,1-9.007,3.8094,13.443,13.443,0,0,1-13.0451-13.1287c0-7.0236,5.8952-13.2541,13.0034-13.2541a13.0679,13.0679,0,0,1,9.1268,3.7314l2.0789-2.0791a16.23,16.23,0,0,0-11.1639-4.4536,15.9928,15.9928,0,1,0,11.1126,27.48Z" transform="translate(-1077.8844)" fill="#ffffff"/><path d="M1876.8224,265.44a9.1476,9.1476,0,0,1-6.5755,2.5934,9.366,9.366,0,1,1,0-18.7313,9.0467,9.0467,0,0,1,6.6018,2.8049l1.9868-1.9866a12.368,12.368,0,0,0-8.6721-3.4524,12.18,12.18,0,0,0-12.2919,12.042,12.03,12.03,0,0,0,12.2919,11.9575,11.7218,11.7218,0,0,0,8.5477-3.339Z" transform="translate(-1077.8844)" fill="#ffffff"/><path d="M1816.7074,252.7281c-5.0631-1.1888-8.3825-2.223-8.3825-5.6415,0-3.2329,3.1532-5.4053,7.8469-5.4053a12.7256,12.7256,0,0,1,9.3265,3.6987l2.1078-2.1079a15.725,15.725,0,0,0-11.4343-4.5768c-6.3782,0-10.8329,3.4506-10.8329,8.3912,0,6.041,6.1761,7.49,10.6861,8.5477,5.136,1.2062,8.7723,2.359,8.7723,6.2256,0,3.6149-3.2183,5.8611-8.398,5.8611a14.0072,14.0072,0,0,1-10.3406-4.1567l-2.1083,2.1083a17.0117,17.0117,0,0,0,12.4488,5.0344c6.9157,0,11.384-3.4729,11.384-8.8471C1827.7833,255.3282,1821.3817,253.8255,1816.7074,252.7281Z" transform="translate(-1077.8844)" fill="#ffffff"/><path d="M1912.9728,247.2529h-2.9268V270.124h2.9268V257.33a8.223,8.223,0,0,1,2.1323-5.9677,7.1911,7.1911,0,0,1,4.9758-1.8341,9.091,9.091,0,0,1,1.2708.0968v-2.907c-0.3667-.0312-0.8829-0.05-1.2708-0.05a8.5561,8.5561,0,0,0-7.1058,3.6436Z" transform="translate(-1077.8844)" fill="#ffffff"/></svg>