<svg viewBox="0 0 754 118" xmlns="http://www.w3.org/2000/svg" xmlns:xlink="http://www.w3.org/1999/xlink"><linearGradient id="a" x1="-.00957%" x2="99.971289%" y1="50%" y2="50%"><stop offset="0" stop-color="#ec3027"/><stop offset=".6" stop-color="#d31f26"/></linearGradient><g fill="none" transform="translate(.25 .15)"><g fill="#3e3e3d"><g transform="translate(288.94 40.84)"><path d="m9.66 6.27h-9.66v-4.96h24.7v4.96h-9.66v25.49h-5.39v-25.49z"/><path d="m29.93.01h5.26v12.35c1.48-2.18 3.61-4.05 7.18-4.05 5.18 0 8.18 3.48 8.18 8.83v14.61h-5.26v-13.05c0-3.57-1.78-5.61-4.92-5.61s-5.18 2.13-5.18 5.7v12.96h-5.26v-31.75z"/><path d="m57.33 8.8h5.26v5.18c1.44-3.44 4.09-5.78 8.13-5.61v5.57h-.3c-4.61 0-7.83 3-7.83 9.09v8.74h-5.26v-22.96z"/><path d="m73.68 20.37v-.09c0-6.57 4.65-11.96 11.22-11.96 7.31 0 11 5.74 11 12.35 0 .48-.04.96-.09 1.48h-16.88c.57 3.74 3.22 5.83 6.61 5.83 2.57 0 4.39-.96 6.22-2.74l3.09 2.74c-2.18 2.61-5.18 4.31-9.4 4.31-6.65 0-11.79-4.83-11.79-11.92zm17.01-1.7c-.35-3.39-2.35-6.05-5.83-6.05-3.22 0-5.48 2.48-5.96 6.05z"/><path d="m115.7 31.76v-2.83c-1.57 1.87-3.96 3.31-7.44 3.31-4.35 0-8.18-2.48-8.18-7.09v-.09c0-5.09 3.96-7.52 9.31-7.52 2.78 0 4.57.39 6.35.96v-.44c0-3.18-2-4.91-5.65-4.91-2.57 0-4.48.57-6.57 1.44l-1.43-4.22c2.52-1.13 5-1.91 8.74-1.91 6.79 0 10.09 3.57 10.09 9.7v13.61h-5.22zm.13-9.61c-1.35-.52-3.22-.91-5.26-.91-3.31 0-5.26 1.35-5.26 3.57v.09c0 2.18 1.96 3.39 4.44 3.39 3.48 0 6.09-1.96 6.09-4.83v-1.3z"/><path d="m128.49 25.41v-12.09h-2.91v-4.52h2.91v-6.31h5.26v6.31h6.18v4.52h-6.18v11.27c0 2.04 1.04 2.87 2.83 2.87 1.17 0 2.22-.26 3.26-.78v4.31c-1.3.74-2.78 1.17-4.74 1.17-3.87 0-6.61-1.7-6.61-6.74z"/><path d="m162.24 1.37h13.57c3.83 0 6.83 1.13 8.79 3.04 1.61 1.65 2.52 3.91 2.52 6.57v.09c0 5-3 8-7.26 9.22l8.22 11.53h-6.31l-7.48-10.61h-6.7v10.61h-5.35zm13.18 15.09c3.83 0 6.26-2 6.26-5.09v-.09c0-3.26-2.35-5.05-6.31-5.05h-7.79v10.22h7.83z"/><path d="m191.82 20.42v-.09c0-6.57 4.65-11.96 11.22-11.96 7.31 0 11 5.74 11 12.35 0 .48-.04.96-.09 1.48h-16.88c.57 3.74 3.22 5.83 6.61 5.83 2.57 0 4.39-.96 6.22-2.74l3.09 2.74c-2.18 2.61-5.18 4.31-9.4 4.31-6.65 0-11.79-4.83-11.79-11.92zm17.01-1.7c-.35-3.39-2.35-6.05-5.83-6.05-3.22 0-5.48 2.48-5.96 6.05z"/><path d="m217.91 28.81 2.35-3.57c2.48 1.87 5.18 2.83 7.52 2.83s3.57-.96 3.57-2.48v-.09c0-1.78-2.44-2.39-5.13-3.22-3.39-.96-7.18-2.35-7.18-6.74v-.09c0-4.35 3.61-7 8.18-7 2.87 0 6 1 8.44 2.61l-2.09 3.74c-2.22-1.35-4.57-2.17-6.48-2.17-2.04 0-3.22.96-3.22 2.3v.09c0 1.65 2.48 2.35 5.18 3.22 3.35 1.04 7.13 2.57 7.13 6.7v.09c0 4.83-3.74 7.22-8.53 7.22-3.26 0-6.87-1.17-9.74-3.44z"/><path d="m240.71 20.42v-.09c0-6.57 4.65-11.96 11.22-11.96 7.31 0 11 5.74 11 12.35 0 .48-.04.96-.09 1.48h-16.88c.57 3.74 3.22 5.83 6.61 5.83 2.57 0 4.39-.96 6.22-2.74l3.09 2.74c-2.18 2.61-5.18 4.31-9.4 4.31-6.65 0-11.79-4.83-11.79-11.92zm17.01-1.7c-.35-3.39-2.35-6.05-5.83-6.05-3.22 0-5.48 2.48-5.96 6.05z"/><path d="m282.72 31.81v-2.83c-1.57 1.87-3.96 3.31-7.44 3.31-4.35 0-8.18-2.48-8.18-7.09v-.09c0-5.09 3.96-7.52 9.31-7.52 2.78 0 4.57.39 6.35.96v-.44c0-3.18-2-4.91-5.65-4.91-2.57 0-4.48.57-6.57 1.44l-1.43-4.22c2.52-1.13 5-1.91 8.74-1.91 6.79 0 10.09 3.57 10.09 9.7v13.61h-5.22zm.13-9.61c-1.35-.52-3.22-.91-5.26-.91-3.31 0-5.26 1.35-5.26 3.57v.09c0 2.18 1.96 3.39 4.44 3.39 3.48 0 6.09-1.96 6.09-4.83v-1.3z"/><path d="m294.64 8.85h5.26v5.18c1.44-3.44 4.09-5.78 8.13-5.61v5.57h-.3c-4.61 0-7.83 3-7.83 9.09v8.74h-5.26v-22.96z"/><path d="m310.99 20.46v-.09c0-6.52 5.05-12 11.92-12 4.35 0 7.05 1.61 9.18 3.96l-3.26 3.52c-1.61-1.7-3.31-2.87-5.96-2.87-3.83 0-6.61 3.31-6.61 7.31v.09c0 4.09 2.83 7.39 6.87 7.39 2.48 0 4.31-1.17 5.96-2.87l3.17 3.13c-2.26 2.52-4.91 4.31-9.39 4.31-6.83 0-11.87-5.35-11.87-11.87z"/><path d="m337.53.06h5.26v12.35c1.48-2.18 3.61-4.05 7.18-4.05 5.18 0 8.18 3.48 8.18 8.83v14.61h-5.26v-13.05c0-3.57-1.78-5.61-4.92-5.61s-5.18 2.13-5.18 5.7v12.96h-5.26v-31.75z"/><path d="m378.54 18.89v-17.53h5.35v17.31c0 5.65 2.91 8.7 7.7 8.7s7.66-2.87 7.66-8.48v-17.53h5.35v17.27c0 9.09-5.13 13.66-13.09 13.66s-12.96-4.57-12.96-13.4z"/><path d="m411.77 8.85h5.26v3.57c1.48-2.18 3.61-4.05 7.18-4.05 5.18 0 8.18 3.48 8.18 8.83v14.61h-5.26v-13.05c0-3.57-1.78-5.61-4.92-5.61s-5.18 2.13-5.18 5.7v12.96h-5.26z"/><path d="m439.26.32h5.65v5h-5.65zm.22 8.53h5.26v22.96h-5.26z"/><path d="m453.14 25.46v-12.09h-2.91v-4.52h2.91v-6.31h5.26v6.31h6.18v4.52h-6.18v11.27c0 2.04 1.04 2.87 2.83 2.87 1.17 0 2.22-.26 3.26-.78v4.31c-1.3.74-2.78 1.17-4.74 1.17-3.87 0-6.61-1.7-6.61-6.74z"/></g><g transform="translate(132.81 38.82)"><path d="m17.18 0c-9.47 0-17.18 7.71-17.18 17.18 0 5.73 2.41 10.84 6.97 14.77 4.27 3.68 10.39 6.22 17.46 7.4 1.01-.56 2.92-2.43 3.53-3.71-5.21-.9-7.6-1.79-7.6-1.79s.67-.03 2.01-.4c6.96-1.95 12.06-8.82 11.99-16.27-.09-9.47-7.71-17.18-17.18-17.18zm0 29.41c-6.75 0-12.23-5.49-12.23-12.23s5.49-12.23 12.23-12.23 12.23 5.49 12.23 12.23-5.49 12.23-12.23 12.23z"/><path d="m112.17 25.07-5.8-15.39h-5.17l8.47 21.49-3.74 8.9c2.46 0 5.16-.17 6.21-2.77 2.47-6.09 11.09-27.62 11.09-27.62h-5.17l-5.88 15.39z"/><path d="m92.78 32.75s4.8-.09 4.8-3.34v-29.24h-4.8v32.59z"/><path d="m82.83 12.7c-1.34-1.86-3.95-3.67-7.79-3.67-6.56 0-11.5 5.1-11.5 11.87 0 3.16 1.08 6.1 3.04 8.27 2.12 2.35 5.05 3.59 8.46 3.59s6.14-1.35 7.79-3.66v3.64s4.8-.08 4.8-3.34v-19.73h-4.8zm-7.19 15.54c-2.9 0-7.24-1.94-7.31-7.27v-.04c0-4.21 3.11-7.39 7.23-7.39 3.08 0 5.58 1.61 6.7 4.31.44.92.65 1.99.61 3.1-.04 1.13-.29 2.21-.74 3.14-1.13 2.59-3.56 4.14-6.49 4.14z"/><path d="m54.79 22.18c0 3.87-2.01 6.03-5.66 6.06-3.7 0-5.5-2.1-5.5-6.43v-12.15h-4.8v13.11c0 1.89.32 4.59 1.84 6.7 1.55 2.16 4.01 3.26 7.3 3.28h.13c3.93 0 5.96-1.78 6.94-3.17v3.15s4.56-.08 4.56-3.18v-19.89h-4.8v12.51z"/><path d="m134.73 18.79c-2.49-1.08-4.31-2.01-4.27-3.46.02-.96 1.28-1.87 2.59-1.83 1.4.05 2.44 1.02 3.02 1.79 0 0 2.62-2.24 2.94-2.48-1.36-2.25-3.66-3.51-6.25-3.57-3.69-.08-6.76 2.81-6.84 6.45-.07 3.15 1.78 4.45 4.2 5.83l3.99 2.24c.92.64 1.35 1.12 1.33 2.11-.03 1.55-1.33 2.55-3.01 2.65-1.24.07-2.25-.64-3.21-1.65-1.87-1.96-4.74-1.02-5.62-.73 1.83 4.2 5.28 6.65 8.73 6.72 4.35.1 7.83-3.11 7.92-7.31.04-2.02-.84-4.52-5.52-6.78z"/></g></g><path d="m86.42 13.15c-9.45-8.24-22.23-13.15-34.2-13.15s-24.75 4.92-34.2 13.15c-6.45 5.62-13.86 14.91-16.77 29.23h7.83c2.7-11.34 8.67-18.76 13.89-23.31 8.11-7.07 19.05-11.29 29.25-11.29s21.14 4.22 29.25 11.29c7.01 6.11 15.36 17.38 15.36 36.36 0 12.72-6.65 25.18-19.77 37.04-10.13 9.16-21.32 15.22-24.85 17.02-3.53-1.8-14.71-7.86-24.85-17.02-12.38-11.19-18.99-22.91-19.7-34.89h15.41c-.08-.77-.13-1.55-.13-2.33 0-12.5 5.48-19.89 10.07-23.9 5.33-4.64 12.5-7.42 19.2-7.42s13.87 2.77 19.2 7.42c3.91 3.41 8.45 9.27 9.72 18.63h-8.25c-1.2-5.72-4.18-9.46-6.78-11.73-3.83-3.34-9.03-5.34-13.89-5.34s-10.06 1.99-13.89 5.34c-3.35 2.92-7.33 8.26-7.33 17.15 0 6.13 3.02 11.97 8.99 17.36 4.26 3.85 8.82 6.35 10.59 7.24l1.65.83 1.65-.83c1.03-.52 3.13-1.65 5.59-3.33l.6-.41-.66-.31c-1.94-.91-4.73-2.26-6.98-3.51l-.31-.18c-1.87-1.08-4.64-2.84-7.21-5.17-4.31-3.89-6.49-7.83-6.49-11.7 0-6.01 2.57-9.51 4.73-11.39 2.53-2.21 5.93-3.52 9.08-3.52s6.55 1.32 9.08 3.52c2.16 1.88 4.73 5.39 4.73 11.39 0 3.87-2.18 7.8-6.49 11.7-.65.59-1.37 1.19-2.14 1.78l-.54.42 7.56 3.49.2-.18c5.15-4.71 8.07-9.75 8.7-15.03h8.05c-.75 7.52-5.09 14.92-12.96 22.04-6.35 5.74-13.27 9.65-16.18 11.17-2.91-1.52-9.84-5.43-16.18-11.17-5.21-4.71-8.86-9.54-10.96-14.45h-7.95c2.53 7.77 8.03 15.3 16.25 22.14 8.23 6.85 16.36 10.73 17.26 11.15l.32.14.3.09c.12.03.24.06.39.08h.1c.16.03.32.05.48.05s.31-.01.52-.04h.08c.12-.03.24-.06.39-.1l.09-.03c.15-.05.3-.1.44-.17.35-.16 8.78-4.06 17.32-11.17 11.69-9.73 17.86-20.82 17.86-32.06 0-15.39-6.9-24.64-12.68-29.68-6.63-5.78-15.62-9.23-24.03-9.23s-17.4 3.45-24.03 9.23c-5.09 4.44-11.04 12.13-12.39 24.41h-15.6c-.14 1.75-.21 3.56-.21 5.45 0 15.98 8.86 31.81 25.62 45.76 11.93 9.93 23.67 15.53 24.97 16.13l.2.09c.11.05.23.09.36.13l.11.03c.13.03.25.06.4.09l.1.02c.16.02.32.03.49.03s.32-.01.5-.04l.11-.02c.13-.02.25-.05.41-.09l.09-.02c.15-.05.31-.1.46-.17.51-.24 12.72-5.9 25.06-16.17 16.76-13.95 25.61-29.77 25.61-45.76 0-21.95-9.81-35.11-18.03-42.28z" fill="url(#a)"/></g></svg>