<svg xmlns="http://www.w3.org/2000/svg" viewBox="0 0 933.884 293.111"><path d="M394.178,75.824a70.586,70.586,0,0,0-70.506,70.506c0,23.533,9.89,44.5,28.6,60.641,17.522,15.113,42.65,25.532,71.66,30.36,4.149-2.279,11.994-9.969,14.492-15.236-21.375-3.687-31.178-7.347-31.178-7.347a40.677,40.677,0,0,0,8.23-1.652c28.556-8.009,49.489-36.214,49.208-66.766C464.327,107.455,433.056,75.824,394.178,75.824Zm0,120.714a50.208,50.208,0,1,1,50.209-50.208A50.208,50.208,0,0,1,394.178,196.538Z"/><path d="M915.488,189.828a11.292,11.292,0,0,1,15.377,0,11.588,11.588,0,0,1,0,15.6,11.3,11.3,0,0,1-15.377,0A11.588,11.588,0,0,1,915.488,189.828Zm1.556,14.094a8.969,8.969,0,0,0,12.264,0,9.539,9.539,0,0,0,0-12.609,9.025,9.025,0,0,0-12.264,0,9.394,9.394,0,0,0,0,12.609Zm10.708-9.106a3.558,3.558,0,0,1-2.654,3.568l3.066,4.806h-2.381l-2.791-4.668h-1.418v4.668H919.56v-11.9h4.393a3.924,3.924,0,0,1,2.747.963,3.3,3.3,0,0,1,1.051,2.565Zm-6.177-1.65v3.479h2.106a2.06,2.06,0,0,0,1.44-.481,1.622,1.622,0,0,0,.526-1.258q0-1.738-1.966-1.74h-2.106Z"/><path d="M784.087,178.724l-23.814-63.187H739.054l34.746,88.2s-15.371,36.538-15.365,36.536c10.113,0,21.176-.714,25.5-11.37,10.152-24.993,45.505-113.365,45.505-113.365H808.219Z"/><path d="M704.493,210.245s19.7-.365,19.7-13.729V76.484h-19.7V210.245Z"/><path d="M663.646,127.976c-5.484-7.649-16.2-15.073-31.971-15.073-26.92,0-47.221,20.937-47.221,48.7,0,12.977,4.438,25.036,12.494,33.955,8.715,9.649,20.724,14.748,34.727,14.748,13.567,0,25.184-5.534,31.971-15.014v14.951s19.7-.312,19.7-13.719v-80.99h-19.7Zm-29.5,63.789c-11.908,0-29.72-7.947-29.995-29.839v-.157c0-17.288,12.754-30.325,29.666-30.325,12.633,0,22.9,6.6,27.487,17.711a27.267,27.267,0,0,1,2.509,12.733,32.62,32.62,0,0,1-3.023,12.869c-4.637,10.649-14.6,17.008-26.645,17.008Z"/><path d="M548.568,166.874c0,15.9-8.26,24.745-23.244,24.891-15.2,0-22.587-8.627-22.587-26.374V115.537H483.042v53.806c0,7.766,1.309,18.842,7.548,27.506,6.375,8.854,16.452,13.382,29.945,13.459.185,0,.37,0,.553,0,16.138,0,24.448-7.315,28.468-13v12.934s18.707-.319,18.707-13.062V115.537h-19.7Z"/><path d="M876.661,152.965c-10.235-4.425-17.675-8.25-17.545-14.185.086-3.927,5.259-7.687,10.637-7.5,5.756.2,10.023,4.168,12.4,7.344,0,0,10.76-9.2,12.062-10.183a30.164,30.164,0,0,0-25.661-14.657A27.317,27.317,0,0,0,840.5,140.264c-.285,12.937,7.292,18.276,17.23,23.912l16.357,9.2c3.773,2.639,5.554,4.609,5.464,8.669-.14,6.362-5.461,10.486-12.352,10.893-5.069.3-9.232-2.631-13.176-6.759-7.677-8.034-19.46-4.172-23.065-3.01,7.5,17.24,21.68,27.279,35.849,27.591,17.844.393,32.118-12.777,32.5-29.984C899.481,172.492,895.851,162.2,876.661,152.965Z"/><path d="M243.535,42.888S203.231,0,123.073,0,2.648,42.888,2.648,42.888-1.96,74.634.981,138.555c4.443,96.56,122.1,154.562,122.109,154.556s117.668-58,122.111-154.556C248.143,74.634,243.535,42.888,243.535,42.888ZM179.206,194.039c-14.4-1.32-29.433-5.4-36.245-9.289,17.561-11.207,40.348-33.015,40.348-59.522a60.285,60.285,0,0,0-60.217-60.217c-33.176,0-60.167,27.776-60.167,61.918,0,28.48,15.088,50.836,44.843,66.444,19.471,10.214,48.514,17.7,79.2,21.645-5.1,7.6-18.721,20.591-26.681,24.99-36.745-6.025-69.019-18.751-91.081-37.816-23.6-20.394-36.072-47.007-36.072-76.964a89.957,89.957,0,0,1,179.913,0,86.906,86.906,0,0,1-33.843,68.811Z"/></svg>