<svg viewBox="0 0 672 257" xmlns="http://www.w3.org/2000/svg" xmlns:xlink="http://www.w3.org/1999/xlink"><linearGradient id="a" x1="-.008815%" x2="100%" y1="50.007824%" y2="50.007824%"><stop offset="0" stop-color="#ed2e26"/><stop offset=".6" stop-color="#d60500"/></linearGradient><g fill="none" transform="translate(.05 .87)"><g fill="#3d3d3d" transform="translate(265.29 76.25)"><path d="m221.08 11.07h-12.88v-6.61h32.94v6.61h-12.88v33.99h-7.19v-33.99z"/><path d="m248.11 2.72h7.02v16.47c1.97-2.9 4.81-5.39 9.57-5.39 6.9 0 10.9 4.64 10.9 11.77v19.49h-7.02v-17.4c0-4.76-2.38-7.48-6.55-7.48s-6.9 2.84-6.9 7.6v17.28h-7.02z"/><path d="m284.65 14.43h7.02v6.9c1.91-4.58 5.45-7.71 10.85-7.48v7.42h-.41c-6.15 0-10.44 4-10.44 12.12v11.66h-7.02z"/><path d="m306.46 29.86v-.12c0-8.76 6.21-15.95 14.96-15.95 9.74 0 14.67 7.66 14.67 16.47 0 .64-.06 1.28-.12 1.97h-22.5c.75 4.99 4.29 7.77 8.82 7.77 3.42 0 5.86-1.28 8.29-3.65l4.12 3.65c-2.9 3.48-6.9 5.74-12.53 5.74-8.87 0-15.72-6.44-15.72-15.89zm22.68-2.26c-.46-4.52-3.13-8.06-7.77-8.06-4.29 0-7.31 3.31-7.95 8.06z"/><path d="m362.49 45.06v-3.77c-2.09 2.49-5.28 4.41-9.92 4.41-5.8 0-10.9-3.31-10.9-9.45v-.12c0-6.79 5.28-10.03 12.41-10.03 3.71 0 6.09.52 8.47 1.28v-.58c0-4.23-2.67-6.55-7.54-6.55-3.42 0-5.97.75-8.76 1.91l-1.91-5.63c3.36-1.51 6.67-2.55 11.66-2.55 9.05 0 13.46 4.76 13.46 12.93v18.15h-6.96zm.17-12.82c-1.8-.7-4.29-1.22-7.02-1.22-4.41 0-7.02 1.8-7.02 4.76v.12c0 2.9 2.61 4.52 5.92 4.52 4.64 0 8.12-2.61 8.12-6.44z"/><path d="m379.54 36.59v-16.12h-3.89v-6.03h3.89v-8.41h7.02v8.41h8.24v6.03h-8.24v15.02c0 2.73 1.39 3.83 3.77 3.83 1.57 0 2.96-.35 4.35-1.04v5.74c-1.74.99-3.71 1.57-6.32 1.57-5.16 0-8.82-2.26-8.82-8.99z"/><path d="m3.48 64.46h18.1c5.1 0 9.11 1.51 11.72 4.06 2.15 2.2 3.36 5.22 3.36 8.76v.12c0 6.67-4 10.67-9.69 12.29l10.96 15.37h-8.41l-9.98-14.15h-8.93v14.15h-7.13zm17.57 20.12c5.1 0 8.35-2.67 8.35-6.79v-.12c0-4.35-3.13-6.73-8.41-6.73h-10.38v13.63h10.44z"/><path d="m42.91 89.86v-.12c0-8.76 6.21-15.95 14.96-15.95 9.74 0 14.67 7.66 14.67 16.47 0 .64-.06 1.28-.12 1.97h-22.5c.75 4.99 4.29 7.77 8.82 7.77 3.42 0 5.86-1.28 8.29-3.65l4.12 3.65c-2.9 3.48-6.9 5.74-12.53 5.74-8.87 0-15.72-6.44-15.72-15.89zm22.68-2.26c-.46-4.52-3.13-8.06-7.77-8.06-4.29 0-7.31 3.31-7.95 8.06z"/><path d="m77.71 101.06 3.13-4.76c3.31 2.49 6.9 3.77 10.03 3.77s4.76-1.28 4.76-3.31v-.12c0-2.38-3.25-3.19-6.84-4.29-4.52-1.28-9.57-3.13-9.57-8.99v-.12c0-5.8 4.81-9.34 10.9-9.34 3.83 0 8 1.33 11.25 3.48l-2.78 4.99c-2.96-1.8-6.09-2.9-8.64-2.9-2.73 0-4.29 1.28-4.29 3.07v.12c0 2.2 3.31 3.13 6.9 4.29 4.47 1.39 9.51 3.42 9.51 8.93v.12c0 6.44-4.99 9.63-11.37 9.63-4.35 0-9.16-1.57-12.99-4.58z"/><path d="m108.11 89.86v-.12c0-8.76 6.21-15.95 14.96-15.95 9.74 0 14.67 7.66 14.67 16.47 0 .64-.06 1.28-.12 1.97h-22.5c.75 4.99 4.29 7.77 8.82 7.77 3.42 0 5.86-1.28 8.29-3.65l4.12 3.65c-2.9 3.48-6.9 5.74-12.53 5.74-8.87 0-15.72-6.44-15.72-15.89zm22.68-2.26c-.46-4.52-3.13-8.06-7.77-8.06-4.29 0-7.31 3.31-7.95 8.06z"/><path d="m164.13 105.06v-3.77c-2.09 2.49-5.28 4.41-9.92 4.41-5.8 0-10.9-3.31-10.9-9.45v-.12c0-6.79 5.28-10.03 12.41-10.03 3.71 0 6.09.52 8.47 1.28v-.58c0-4.23-2.67-6.55-7.54-6.55-3.42 0-5.97.75-8.76 1.91l-1.91-5.63c3.36-1.51 6.67-2.55 11.66-2.55 9.05 0 13.46 4.76 13.46 12.93v18.15h-6.96zm.17-12.82c-1.8-.7-4.29-1.22-7.02-1.22-4.41 0-7.02 1.8-7.02 4.76v.12c0 2.9 2.61 4.52 5.92 4.52 4.64 0 8.12-2.61 8.12-6.44z"/><path d="m180.03 74.43h7.02v6.9c1.91-4.58 5.45-7.71 10.85-7.48v7.42h-.41c-6.15 0-10.44 4-10.44 12.12v11.66h-7.02z"/><path d="m201.83 89.92v-.12c0-8.7 6.73-16.01 15.89-16.01 5.8 0 9.4 2.15 12.24 5.28l-4.35 4.7c-2.15-2.26-4.41-3.83-7.95-3.83-5.1 0-8.82 4.41-8.82 9.74v.12c0 5.45 3.77 9.86 9.16 9.86 3.31 0 5.74-1.57 7.95-3.83l4.23 4.18c-3.02 3.36-6.55 5.74-12.53 5.74-9.11 0-15.83-7.13-15.83-15.83z"/><path d="m237.21 62.72h7.02v16.47c1.97-2.9 4.81-5.39 9.57-5.39 6.9 0 10.9 4.64 10.9 11.77v19.49h-7.02v-17.4c0-4.76-2.38-7.48-6.55-7.48s-6.9 2.84-6.9 7.6v17.28h-7.02z"/><path d="m291.91 87.83v-23.37h7.13v23.08c0 7.54 3.89 11.6 10.27 11.6s10.21-3.83 10.21-11.31v-23.37h7.13v23.03c0 12.12-6.84 18.21-17.46 18.21s-17.28-6.09-17.28-17.86z"/><path d="m336.22 74.43h7.02v4.76c1.97-2.9 4.81-5.39 9.57-5.39 6.9 0 10.9 4.64 10.9 11.77v19.49h-7.02v-17.4c0-4.76-2.38-7.48-6.55-7.48s-6.9 2.84-6.9 7.6v17.28h-7.02v-30.62z"/><path d="m372.87 63.07h7.54v6.67h-7.54zm.29 11.37h7.02v30.62h-7.02z"/><path d="m391.37 96.59v-16.12h-3.89v-6.03h3.89v-8.41h7.02v8.41h8.24v6.03h-8.24v15.02c0 2.73 1.39 3.83 3.77 3.83 1.57 0 2.96-.35 4.35-1.04v5.74c-1.74.99-3.71 1.57-6.32 1.57-5.16 0-8.82-2.26-8.82-8.99z"/><path d="m22.91.01c-12.63 0-22.91 10.28-22.91 22.91 0 7.65 3.21 14.46 9.29 19.7 5.69 4.91 13.86 8.29 23.28 9.86 1.35-.74 3.9-3.24 4.71-4.95-6.94-1.2-10.13-2.39-10.13-2.39s.89-.04 2.67-.54c9.28-2.6 16.08-11.77 15.99-21.69-.12-12.63-10.28-22.91-22.91-22.91zm0 39.22c-8.99 0-16.31-7.32-16.31-16.31s7.32-16.31 16.31-16.31 16.31 7.32 16.31 16.31-7.32 16.31-16.31 16.31z"/><path d="m149.59 33.44-7.74-20.53h-6.89l11.29 28.65-4.99 11.87c3.29 0 6.88-.23 8.29-3.69 3.3-8.12 14.78-36.83 14.78-36.83h-6.9z"/><path d="m123.73 43.68s6.4-.12 6.4-4.46v-39h-6.4z"/><path d="m110.46 16.95c-1.78-2.49-5.26-4.9-10.39-4.9-8.75 0-15.34 6.8-15.34 15.82 0 4.22 1.44 8.13 4.06 11.03 2.83 3.13 6.73 4.79 11.28 4.79s8.18-1.8 10.39-4.88v4.86s6.4-.1 6.4-4.46v-26.31h-6.4v4.04zm-9.58 20.72c-3.87 0-9.66-2.58-9.74-9.69v-.05c0-5.62 4.14-9.85 9.64-9.85 4.1 0 7.44 2.14 8.93 5.75.59 1.22.87 2.65.82 4.14-.05 1.51-.39 2.95-.98 4.18-1.51 3.46-4.74 5.53-8.66 5.53z"/><path d="m73.07 29.59c0 5.17-2.68 8.04-7.55 8.09-4.94 0-7.34-2.8-7.34-8.57v-16.2h-6.4v17.48c0 2.52.43 6.12 2.45 8.94 2.07 2.88 5.34 4.35 9.73 4.37h.18c5.24 0 7.94-2.38 9.25-4.22v4.2s6.08-.1 6.08-4.24v-26.53h-6.4z"/><path d="m179.66 25.07c-3.33-1.44-5.74-2.68-5.7-4.61.03-1.28 1.71-2.5 3.46-2.44 1.87.06 3.26 1.35 4.03 2.39 0 0 3.5-2.99 3.92-3.31-1.81-3-4.89-4.69-8.34-4.76-4.92-.11-9.01 3.75-9.12 8.6-.09 4.2 2.37 5.94 5.6 7.77l5.31 2.99c1.23.86 1.8 1.5 1.78 2.82-.05 2.07-1.77 3.41-4.01 3.54-1.65.1-3-.85-4.28-2.2-2.49-2.61-6.32-1.36-7.49-.98 2.44 5.6 7.04 8.86 11.65 8.96 5.8.13 10.43-4.15 10.56-9.74.06-2.69-1.12-6.03-7.35-9.03z"/></g><path d="m187.71 28.57c-20.52-17.89-48.29-28.57-74.28-28.57s-53.76 10.68-74.28 28.57c-14 12.2-30.1 32.39-36.42 63.49h17.01c5.87-24.63 18.82-40.75 30.16-50.63 17.61-15.35 41.36-24.52 63.53-24.52s45.92 9.17 63.53 24.52c15.22 13.27 33.36 37.74 33.36 78.98 0 27.62-14.44 54.69-42.93 80.44-22.01 19.9-46.3 33.06-53.96 36.97-7.67-3.92-31.96-17.08-53.97-36.97-26.88-24.3-41.25-49.77-42.79-75.77h33.47c-.17-1.68-.28-3.37-.28-5.06 0-27.14 11.89-43.2 21.87-51.9 11.57-10.08 27.15-16.11 41.69-16.11s30.12 6.02 41.69 16.11c8.48 7.4 18.35 20.12 21.11 40.46h-17.91c-2.61-12.43-9.08-20.56-14.73-25.48-8.33-7.26-19.6-11.59-30.17-11.59s-21.84 4.33-30.16 11.59c-7.27 6.33-15.93 17.93-15.93 37.24 0 13.31 6.57 25.99 19.52 37.7 9.25 8.36 19.16 13.78 22.99 15.72l3.58 1.81 3.58-1.81c2.24-1.14 6.81-3.59 12.14-7.23l1.31-.89-1.43-.67c-4.21-1.98-10.26-4.91-15.16-7.62l-.68-.39c-4.06-2.34-10.07-6.18-15.66-11.23-9.36-8.46-14.1-17-14.1-25.4 0-13.05 5.59-20.66 10.28-24.75 5.5-4.79 12.87-7.66 19.72-7.66s14.22 2.86 19.72 7.66c4.69 4.09 10.28 11.7 10.28 24.75 0 8.4-4.74 16.95-14.1 25.4-1.42 1.29-2.98 2.59-4.64 3.88l-1.18.91 16.41 7.57.43-.39c11.19-10.22 17.52-21.18 18.89-32.64h17.48c-1.62 16.33-11.05 32.41-28.14 47.87-13.78 12.46-28.83 20.95-35.14 24.26-6.31-3.3-21.36-11.8-35.14-24.26-11.31-10.22-19.25-20.72-23.81-31.38h-17.27c5.5 16.89 17.43 33.22 35.3 48.09 17.87 14.88 35.52 23.29 37.49 24.21l.7.31.66.19c.26.07.52.13.85.18l.21.03c.34.04.69.07 1.04.07s.68-.03 1.13-.09l.17-.03c.26-.04.52-.1.85-.19l.2-.06c.33-.1.65-.22.96-.37.77-.35 19.06-8.82 37.62-24.27 25.38-21.13 38.8-45.21 38.8-69.64 0-33.43-14.98-53.51-27.54-64.46-14.41-12.56-33.92-20.06-52.19-20.06s-37.78 7.5-52.19 20.06c-11.06 9.64-23.98 26.35-26.92 53.02h-33.87c-.3 3.8-.47 7.74-.47 11.83 0 34.72 19.24 69.08 55.63 99.38 25.9 21.56 51.41 33.72 54.23 35.04l.43.19c.25.1.5.19.77.28l.23.06c.27.07.54.14.86.19l.22.03c.35.05.71.08 1.06.08s.7-.03 1.09-.08l.24-.04c.27-.05.54-.1.88-.2l.19-.05c.33-.1.66-.22 1-.38 1.12-.51 27.62-12.81 54.42-35.13 36.4-30.3 55.63-64.66 55.63-99.38 0-47.68-21.3-76.26-39.17-91.83z" fill="url(#a)"/></g></svg>