<svg id="RGB_Full_Color_Logos" data-name="RGB Full Color Logos" xmlns="http://www.w3.org/2000/svg" viewBox="0 0 571.854 565.5128"><title>qualys-vertical</title><path d="M781.9278,774.6111a66.1488,66.1488,0,0,0-66.0738,66.0738c0,22.0539,9.268,41.7045,26.8018,56.8287,16.421,14.1632,39.9685,23.9266,67.1556,28.4512,3.8881-2.1358,11.24-9.342,13.581-14.2785-20.0313-3.4557-29.2178-6.8847-29.2178-6.8847a38.1192,38.1192,0,0,0,7.7131-1.5481c26.7606-7.5059,46.3779-33.9378,46.1147-62.5687C847.6676,804.2533,818.3618,774.6111,781.9278,774.6111Zm0,113.1257a47.0519,47.0519,0,1,1,47.0528-47.0519A47.1054,47.1054,0,0,1,781.9278,887.7368Z" transform="translate(-715.854 -437.1108)" fill="#262626"/><path d="M1270.4677,881.4485a10.5821,10.5821,0,0,1,14.41,0,10.8591,10.8591,0,0,1,0,14.6228,10.5909,10.5909,0,0,1-14.41,0A10.8591,10.8591,0,0,1,1270.4677,881.4485Zm1.4578,13.2085a8.4054,8.4054,0,0,0,11.493,0,8.9393,8.9393,0,0,0,0-11.8168,8.4581,8.4581,0,0,0-11.493,0A8.9441,8.9441,0,0,0,1271.9254,894.657Zm10.0352-8.534a3.3344,3.3344,0,0,1-2.4871,3.344l2.8737,4.5038h-2.231l-2.6159-4.3749h-1.3289v4.3749h-1.8879V882.8176h4.1172a3.6775,3.6775,0,0,1,2.574.902A3.0954,3.0954,0,0,1,1281.9607,886.123Zm-5.7892-1.5464v3.26h1.9732a1.9306,1.9306,0,0,0,1.35-.451,1.52,1.52,0,0,0,.4929-1.1791q0-1.6285-1.8427-1.63h-1.9732Z" transform="translate(-715.854 -437.1108)" fill="#262626"/><path d="M1147.3266,871.043l-22.3171-59.2154h-19.8848l32.5618,82.6551s-14.4048,34.2417-14.3994,34.239c9.4773,0,19.8444-.6691,23.9007-10.6553,9.5136-23.4221,42.6449-106.2387,42.6449-106.2387h-19.89Z" transform="translate(-715.854 -437.1108)" fill="#262626"/><path d="M1072.7365,900.5826s18.4572-.3417,18.4572-12.8661V775.2292h-18.4572V900.5826Z" transform="translate(-715.854 -437.1108)" fill="#262626"/><path d="M1034.4569,823.4847c-5.14-7.1682-15.1791-14.1254-29.9609-14.1254-25.2279,0-44.2529,19.6211-44.2529,45.64,0,12.161,4.1585,23.4622,11.709,31.8207,8.1673,9.0421,19.4214,13.8212,32.5439,13.8212,12.7138,0,23.6007-5.1859,29.9609-14.07v14.0112s18.4572-.2929,18.4572-12.8564V811.8275h-18.4572v11.6572Zm-27.6471,59.78c-11.159,0-27.8515-7.4478-28.1095-27.9635v-0.1469c0-16.2009,11.9519-28.4184,27.8016-28.4184,11.8389,0,21.4583,6.1813,25.759,16.5973a25.5538,25.5538,0,0,1,2.3514,11.9322,30.5693,30.5693,0,0,1-2.8326,12.06C1027.4338,877.3052,1018.0988,883.2642,1006.81,883.2642Z" transform="translate(-715.854 -437.1108)" fill="#262626"/><path d="M926.6128,859.9376c0,14.9042-7.7407,23.1892-21.7832,23.3266-14.2431,0-21.1673-8.0844-21.1673-24.7156V811.8275H865.2061v50.4238c0,7.2783,1.227,17.6577,7.074,25.7769,5.9741,8.2972,15.4174,12.5405,28.0624,12.613,0.1733,0.0019.3465,0.0028,0.5179,0.0028,15.1236,0,22.9114-6.8555,26.6781-12.1827v12.1212s17.5315-.299,17.5315-12.2406V811.8275H926.6128v48.11Z" transform="translate(-715.854 -437.1108)" fill="#262626"/><path d="M1234.0821,846.9028c-9.5912-4.1464-16.5644-7.7313-16.4419-13.2933,0.0811-3.68,4.928-7.204,9.9683-7.03,5.394,0.186,9.393,3.906,11.625,6.882,0,0,10.0836-8.6189,11.3037-9.5427a28.2677,28.2677,0,0,0-24.0478-13.7357A25.5994,25.5994,0,0,0,1200.19,835c-0.2671,12.124,6.834,17.1275,16.147,22.4093l15.3283,8.6183c3.5363,2.473,5.2047,4.3191,5.1209,8.1241-0.1314,5.9622-5.1174,9.8272-11.5756,10.2082-4.7507.28-8.6517-2.4659-12.348-6.3345-7.194-7.5291-18.2365-3.91-21.6155-2.8211,7.0258,16.156,20.317,25.5643,33.5955,25.8569,16.7221,0.3684,30.0991-11.9737,30.4544-28.0987C1255.4676,865.202,1252.0651,855.5612,1234.0821,846.9028Z" transform="translate(-715.854 -437.1108)" fill="#262626"/><path d="M997.7627,437.1108c80.1578,0,120.4615,42.888,120.4615,42.888s4.6084,31.7458,1.667,95.6667c-4.4434,96.56-122.1,154.55-122.1111,154.5562s-117.666-57.9958-122.1094-154.5562c-2.9415-63.9209,1.667-95.6667,1.667-95.6667S917.6049,437.1108,997.7627,437.1108Z" transform="translate(-715.854 -437.1108)" fill="#ed2e26"/><path d="M937.6138,564.04c0-34.1421,26.9912-61.9185,60.167-61.9185a60.2847,60.2847,0,0,1,60.2168,60.2168c0,26.5072-22.7864,48.3157-40.3477,59.5225,6.8125,3.887,21.8486,7.9694,36.2451,9.2889a86.9056,86.9056,0,0,0,33.8428-68.8114,89.9565,89.9565,0,1,0-179.9131,0c0,29.9575,12.4736,56.5708,36.0723,76.9644,22.0625,19.0654,54.3361,31.791,91.0813,37.8164,7.96-4.399,21.5761-17.3866,26.6811-24.99-30.6885-3.9473-59.732-11.431-79.2027-21.6448C952.7017,614.8762,937.6138,592.5208,937.6138,564.04Z" transform="translate(-715.854 -437.1108)" fill="#fff"/><path d="M837.7578,995.5153a11.3969,11.3969,0,1,1,11.3974-11.3965A11.4258,11.4258,0,0,1,837.7578,995.5153Zm0.04-20.2921a8.901,8.901,0,0,0,0,17.79c5.0036,0,8.5771-4.1293,8.5771-9.0138A8.7382,8.7382,0,0,0,837.7975,975.2232Z" transform="translate(-715.854 -437.1108)" fill="#262626"/><path d="M870.604,994.9992V983.0461c0-2.0651-.516-4.4866-2.0642-5.9563a6.9152,6.9152,0,0,0-9.4514,0,8.0229,8.0229,0,0,0-2.0254,5.7578v12.1516h-2.78V973.2772h2.78v2.7806h0.0794a7.8767,7.8767,0,0,1,6.6717-3.3363c6.2341,0,9.57,4.3287,9.57,10.3247v11.9531H870.604Z" transform="translate(-715.854 -437.1108)" fill="#262626"/><path d="M884.6573,975.7789v19.22h-2.78v-19.22h-4.5669v-2.5018h4.5669V965.613h2.78v7.6641h5.202v2.5018h-5.202Z" transform="translate(-715.854 -437.1108)" fill="#262626"/><path d="M894.5537,969.5972V965.613h2.78v3.9842h-2.78Zm0,25.402V973.2772h2.78v21.7221h-2.78Z" transform="translate(-715.854 -437.1108)" fill="#262626"/><path d="M920.76,994.9992V983.0461c0-2.0651-.516-4.4866-2.0642-5.9563a6.9152,6.9152,0,0,0-9.4514,0,8.0229,8.0229,0,0,0-2.0254,5.7578v12.1516h-2.78V973.2772h2.78v2.7806h0.0794a7.8767,7.8767,0,0,1,6.6717-3.3363c6.2341,0,9.57,4.3287,9.57,10.3247v11.9531H920.76Z" transform="translate(-715.854 -437.1108)" fill="#262626"/><path d="M945.745,994.9992v-3.3751h-0.0794c-1.27,2.6606-4.09,3.8911-6.9487,3.8911a9.3546,9.3546,0,0,1-7.4656-3.256c-1.5491-1.946-1.9063-4.5669-1.9063-6.9893V973.2772h2.78V985.23c0,4.4875,1.6285,7.7832,6.5923,7.7832a6.2159,6.2159,0,0,0,4.6057-1.7466c1.9063-1.8269,2.2636-3.9715,2.2636-6.5129V973.2772h2.78v21.7221H945.745Z" transform="translate(-715.854 -437.1108)" fill="#262626"/><path d="M964.849,995.5153a11.3969,11.3969,0,1,1,11.3974-11.3965A11.4258,11.4258,0,0,1,964.849,995.5153Zm0.04-20.2921a8.901,8.901,0,0,0,0,17.79c5.0036,0,8.578-4.1293,8.578-9.0138A8.739,8.739,0,0,0,964.8887,975.2232Z" transform="translate(-715.854 -437.1108)" fill="#262626"/><path d="M997.469,994.9992v-3.3751H997.39c-1.27,2.6606-4.09,3.8911-6.9487,3.8911a9.3546,9.3546,0,0,1-7.4656-3.256c-1.5491-1.946-1.9063-4.5669-1.9063-6.9893V973.2772h2.78V985.23c0,4.4875,1.6285,7.7832,6.5923,7.7832a6.2159,6.2159,0,0,0,4.6057-1.7466c1.9063-1.8269,2.2636-3.9715,2.2636-6.5129V973.2772h2.78v21.7221H997.469Z" transform="translate(-715.854 -437.1108)" fill="#262626"/><path d="M1128.8372,994.9992v-3.3751h-0.0794c-1.27,2.6606-4.09,3.8911-6.9487,3.8911a9.3546,9.3546,0,0,1-7.4656-3.256c-1.5491-1.946-1.9063-4.5669-1.9063-6.9893V973.2772h2.78V985.23c0,4.4875,1.6285,7.7832,6.5923,7.7832a6.2159,6.2159,0,0,0,4.6057-1.7466c1.9063-1.8269,2.2636-3.9715,2.2636-6.5129V973.2772h2.78v21.7221h-2.6209Z" transform="translate(-715.854 -437.1108)" fill="#262626"/><path d="M1154.2692,969.5972V965.613h2.78v3.9842h-2.78Zm0,25.402V973.2772h2.78v21.7221h-2.78Z" transform="translate(-715.854 -437.1108)" fill="#262626"/><path d="M1170.0885,975.7789v19.22h-2.78v-19.22h-4.5669v-2.5018h4.5669V965.613h2.78v7.6641h5.202v2.5018h-5.202Z" transform="translate(-715.854 -437.1108)" fill="#262626"/><path d="M1185.6826,1002.6237h-2.8987l3.773-8.3389-8.459-21.0075h2.9384l6.91,17.314,7.3862-17.314h2.9384Z" transform="translate(-715.854 -437.1108)" fill="#262626"/><path d="M1081.2112,990.0863a11.7579,11.7579,0,0,1-2.6331,1.9543,8.73,8.73,0,0,1-4.2641.979,9.1432,9.1432,0,0,1-3.1759-.5431,7.4933,7.4933,0,0,1-4.3723-4.09,8.8683,8.8683,0,0,1-.718-3.4591l-0.0046-.3044h18.3211V983.84a14.3155,14.3155,0,0,0-.631-4.2853,10.1,10.1,0,0,0-1.9137-3.546,9.14,9.14,0,0,0-3.22-2.4142,11.5917,11.5917,0,0,0-8.9187,0,10.0121,10.0121,0,0,0-3.3709,2.4365,10.9256,10.9256,0,0,0-2.1544,3.6542,13.2916,13.2916,0,0,0-.7616,4.5462,12.8655,12.8655,0,0,0,.8052,4.6555,10.0637,10.0637,0,0,0,2.2624,3.546,10.1831,10.1831,0,0,0,3.48,2.2614,12.0775,12.0775,0,0,0,4.5027.8052,10.3971,10.3971,0,0,0,5.09-1.153,14.7711,14.7711,0,0,0,3.4132-2.5238Zm-12.6178-12.8809a7.4968,7.4968,0,0,1,5.5466-2.0229,7.764,7.764,0,0,1,3.0674.5654,6.51,6.51,0,0,1,2.2405,1.5445,6.9132,6.9132,0,0,1,1.4138,2.306,9.5526,9.5526,0,0,1,.5407,2.522H1066.25A8.5689,8.5689,0,0,1,1068.5933,977.2054Z" transform="translate(-715.854 -437.1108)" fill="#262626"/><path d="M1013.9254,982.4063c-3.8487-.9038-5.4578-1.5888-5.4578-3.4951,0-1.9876,2.01-3.3225,5.0008-3.3225a8.3648,8.3648,0,0,1,6.0989,2.3945l2.0021-2.0021a11.2087,11.2087,0,0,0-8.101-3.2283c-4.614,0-7.8367,2.5322-7.8367,6.1584,0,4.4617,4.4192,5.4984,7.6457,6.2554,3.9595,0.9306,5.7264,1.7143,5.7264,3.8967,0,2.2765-2.0107,3.6354-5.3793,3.6354a9.2547,9.2547,0,0,1-6.7594-2.6735l-2.0023,2.0023a12.1016,12.1016,0,0,0,8.7618,3.5071c5.6747,0,8.2152-3.25,8.2152-6.4714C1021.84,984.2655,1017.077,983.1466,1013.9254,982.4063Z" transform="translate(-715.854 -437.1108)" fill="#262626"/><path d="M821.1738,989.2691a12.1846,12.1846,0,0,1-8.5545,3.618,12.53,12.53,0,0,1-.04-25.0575,12.4114,12.4114,0,0,1,8.6683,3.5439l1.9744-1.9746a15.4143,15.4143,0,0,0-10.603-4.23,15.1893,15.1893,0,1,0,10.5543,26.1Z" transform="translate(-715.854 -437.1108)" fill="#262626"/><path d="M1106.1708,990.55a8.6881,8.6881,0,0,1-6.2452,2.4631,8.8955,8.8955,0,1,1,0-17.79,8.5922,8.5922,0,0,1,6.27,2.664l1.887-1.8868a11.7467,11.7467,0,0,0-8.2365-3.279,11.5678,11.5678,0,0,0-11.6743,11.4371,11.4256,11.4256,0,0,0,11.6743,11.3568,11.1329,11.1329,0,0,0,8.1183-3.1713Z" transform="translate(-715.854 -437.1108)" fill="#262626"/><path d="M1049.0758,978.4773c-4.8088-1.129-7.9614-2.1113-7.9614-5.358,0-3.07,2.9947-5.1337,7.4527-5.1337a12.0863,12.0863,0,0,1,8.858,3.5129l2.0019-2.002a14.935,14.935,0,0,0-10.86-4.3468c-6.0578,0-10.2887,3.2772-10.2887,7.97,0,5.7375,5.8658,7.1139,10.1493,8.1183,4.878,1.1456,8.3316,2.2405,8.3316,5.9129,0,3.4333-3.0566,5.5667-7.9761,5.5667a13.3035,13.3035,0,0,1-9.8211-3.9479l-2.0023,2.0023a16.1571,16.1571,0,0,0,11.8234,4.7815c6.5683,0,10.8121-3.2985,10.8121-8.4026C1059.5953,980.9467,1053.5153,979.52,1049.0758,978.4773Z" transform="translate(-715.854 -437.1108)" fill="#262626"/><path d="M1140.5051,973.2771h-2.78v21.7221h2.78V982.8476a7.81,7.81,0,0,1,2.0252-5.6679,6.83,6.83,0,0,1,4.7259-1.7419,8.6343,8.6343,0,0,1,1.207.0919v-2.761c-0.3483-.03-0.8385-0.0474-1.207-0.0474a8.1262,8.1262,0,0,0-6.7488,3.4605Z" transform="translate(-715.854 -437.1108)" fill="#262626"/></svg>