<svg xmlns="http://www.w3.org/2000/svg" viewBox="0 0 933.8844 293.1108"><path d="M123.0733,0c80.1578,0,120.4615,42.888,120.4615,42.888s4.6084,31.7458,1.667,95.6667c-4.4434,96.56-122.1,154.55-122.1111,154.5562S5.4248,235.115.9814,138.5547C-1.96,74.6338,2.6483,42.888,2.6483,42.888S42.9155,0,123.0733,0Z" fill="#ed2e26"/><path d="M62.9244,126.9294c0-34.1421,26.9912-61.9185,60.167-61.9185a60.2847,60.2847,0,0,1,60.2168,60.2168c0,26.5072-22.7864,48.3157-40.3477,59.5225,6.8125,3.887,21.8486,7.9694,36.2451,9.2889a86.9056,86.9056,0,0,0,33.8428-68.8114,89.9565,89.9565,0,1,0-179.9131,0c0,29.9575,12.4736,56.5708,36.0723,76.9644,22.0625,19.0654,54.3361,31.791,91.0813,37.8164,7.96-4.399,21.5761-17.3866,26.6811-24.99-30.6885-3.9473-59.732-11.431-79.2027-21.6448C78.0123,177.7654,62.9244,155.41,62.9244,126.9294Z" fill="#fff"/><path d="M394.1777,75.8242A70.5859,70.5859,0,0,0,323.6719,146.33c0,23.5332,9.89,44.502,28.6,60.6406,17.5225,15.1133,42.6495,25.5316,71.66,30.36,4.1489-2.2791,11.9942-9.9687,14.492-15.2362-21.375-3.6875-31.1776-7.3465-31.1776-7.3465a40.6761,40.6761,0,0,0,8.23-1.652c28.5557-8.0094,49.4888-36.2142,49.208-66.7656C464.3271,107.4547,433.0557,75.8242,394.1777,75.8242Zm0,120.7139a50.208,50.208,0,1,1,50.209-50.208A50.2652,50.2652,0,0,1,394.1777,196.5381Z" fill="#262626"/><path d="M915.4876,189.8279a11.2919,11.2919,0,0,1,15.3768,0,11.5875,11.5875,0,0,1,0,15.6037,11.3013,11.3013,0,0,1-15.3768,0A11.5875,11.5875,0,0,1,915.4876,189.8279Zm1.5556,14.0945a8.9692,8.9692,0,0,0,12.2639,0,9.5389,9.5389,0,0,0,0-12.6094,9.0254,9.0254,0,0,0-12.2639,0A9.5441,9.5441,0,0,0,917.0431,203.9224Zm10.7084-9.1064a3.5581,3.5581,0,0,1-2.6539,3.5683l3.0664,4.8059h-2.3806l-2.7914-4.6684h-1.418V203.19H919.56V191.2889h4.3934a3.9242,3.9242,0,0,1,2.7467.9626A3.3031,3.3031,0,0,1,927.7515,194.816Zm-6.1775-1.65v3.4789H923.68a2.06,2.06,0,0,0,1.44-.4813,1.6222,1.6222,0,0,0,.526-1.2582q0-1.7377-1.9664-1.7395H921.574Z" fill="#262626"/><path d="M784.0866,178.7244L760.2724,115.537H739.0539L773.8,203.7364s-15.3711,36.5385-15.3653,36.5356c10.1131,0,21.1756-.7139,25.5038-11.37C794.09,203.9087,829.4438,115.537,829.4438,115.537H808.2192Z" fill="#262626"/><path d="M704.4931,210.2455s19.6952-.3646,19.6952-13.7292V76.4838H704.4931V210.2455Z" fill="#262626"/><path d="M663.6458,127.9761c-5.4845-7.649-16.1973-15.0729-31.9706-15.0729-26.92,0-47.2213,20.9372-47.2213,48.7014,0,12.9767,4.4375,25.036,12.4944,33.9551,8.7151,9.6486,20.7242,14.7483,34.7269,14.7483,13.5666,0,25.1837-5.5338,31.9706-15.0136v14.951s19.6952-.3125,19.6952-13.7187v-80.99H663.6458v12.4391Zm-29.5016,63.7894c-11.9076,0-29.72-7.9474-29.995-29.8392v-0.1568c0-17.2876,12.7537-30.3246,29.6664-30.3246,12.6331,0,22.8977,6.5959,27.4869,17.7106a27.2678,27.2678,0,0,1,2.5091,12.7326,32.62,32.62,0,0,1-3.0226,12.8692C656.1516,185.4068,646.19,191.7655,634.1442,191.7655Z" fill="#262626"/><path d="M548.5678,166.8742c0,15.9039-8.26,24.7446-23.2444,24.8913-15.1985,0-22.5872-8.6267-22.5872-26.3735V115.537H483.0421v53.8061c0,7.7665,1.3093,18.8421,7.5485,27.506,6.3748,8.8538,16.4515,13.3817,29.9448,13.4591,0.1849,0.002.37,0.003,0.5527,0.003,16.138,0,24.4482-7.3154,28.4676-13v12.9342s18.7074-.3191,18.7074-13.0617V115.537H548.5678v51.3372Z" fill="#262626"/><path d="M876.6613,152.9651c-10.2346-4.4245-17.6755-8.25-17.5448-14.185,0.0865-3.9272,5.2586-7.6872,10.637-7.5017,5.7558,0.1985,10.023,4.168,12.4047,7.3436,0,0,10.76-9.197,12.0619-10.1828a30.1638,30.1638,0,0,0-25.6609-14.6571,27.3166,27.3166,0,0,0-28.0637,26.4819c-0.285,12.9372,7.2924,18.2764,17.23,23.9125l16.3565,9.1964c3.7735,2.6389,5.5538,4.6089,5.4644,8.669-0.14,6.3621-5.4607,10.4863-12.3521,10.893-5.0694.2991-9.232-2.6313-13.1763-6.7594-7.6765-8.0341-19.46-4.172-23.0654-3.01,7.4971,17.24,21.68,27.2791,35.849,27.5913C884.6454,211.15,898.92,197.98,899.2989,180.773,899.4813,172.4917,895.8507,162.2042,876.6613,152.9651Z" fill="#262626"/></svg>