<svg width="561" height="257" viewBox="0 0 561 257" xmlns="http://www.w3.org/2000/svg"><defs><linearGradient x1="-.013%" y1="50.008%" x2="100%" y2="50.008%" id="a"><stop stop-color="#ED2E26" offset="0%"/><stop stop-color="#D60500" offset="60%"/></linearGradient></defs><g fill-rule="nonzero" fill="none"><g fill="#3D3D3D"><path d="M295.42 98.4H264.9V78.05h83.12V98.4H317.5v79.97h-22.07V98.4zM367.79 78.05h45.86c12.75 0 22.64 3.58 29.24 10.17 5.59 5.59 8.6 13.47 8.6 22.93v.29c0 16.19-8.74 26.37-21.5 31.1l24.51 35.83h-25.8l-21.5-32.1h-17.34v32.1h-22.07V78.05zm44.43 48.73c10.75 0 16.91-5.73 16.91-14.19v-.29c0-9.46-6.59-14.33-17.34-14.33h-21.93v28.81h22.36zM472.69 135.38V78.06h22.07v56.75c0 16.34 8.17 24.79 21.64 24.79s21.64-8.17 21.64-24.08V78.05h22.07v56.61c0 30.38-17.05 45.29-44 45.29s-43.42-15.05-43.42-44.57z"/></g><path d="M187.71 28.57C167.19 10.68 139.42 0 113.43 0 87.44 0 59.67 10.68 39.15 28.57c-14 12.2-30.1 32.39-36.42 63.49h17.01c5.87-24.63 18.82-40.75 30.16-50.63 17.61-15.35 41.36-24.52 63.53-24.52s45.92 9.17 63.53 24.52c15.22 13.27 33.36 37.74 33.36 78.98 0 27.62-14.44 54.69-42.93 80.44-22.01 19.9-46.3 33.06-53.96 36.97-7.67-3.92-31.96-17.08-53.97-36.97-26.88-24.3-41.25-49.77-42.79-75.77h33.47c-.17-1.68-.28-3.37-.28-5.06 0-27.14 11.89-43.2 21.87-51.9 11.57-10.08 27.15-16.11 41.69-16.11s30.12 6.02 41.69 16.11c8.48 7.4 18.35 20.12 21.11 40.46h-17.91c-2.61-12.43-9.08-20.56-14.73-25.48-8.33-7.26-19.6-11.59-30.17-11.59S91.57 75.84 83.25 83.1c-7.27 6.33-15.93 17.93-15.93 37.24 0 13.31 6.57 25.99 19.52 37.7 9.25 8.36 19.16 13.78 22.99 15.72l3.58 1.81 3.58-1.81c2.24-1.14 6.81-3.59 12.14-7.23l1.31-.89-1.43-.67c-4.21-1.98-10.26-4.91-15.16-7.62l-.68-.39c-4.06-2.34-10.07-6.18-15.66-11.23-9.36-8.46-14.1-17-14.1-25.4 0-13.05 5.59-20.66 10.28-24.75 5.5-4.79 12.87-7.66 19.72-7.66s14.22 2.86 19.72 7.66c4.69 4.09 10.28 11.7 10.28 24.75 0 8.4-4.74 16.95-14.1 25.4a79.196 79.196 0 01-4.64 3.88l-1.18.91 16.41 7.57.43-.39c11.19-10.22 17.52-21.18 18.89-32.64h17.48c-1.62 16.33-11.05 32.41-28.14 47.87-13.78 12.46-28.83 20.95-35.14 24.26-6.31-3.3-21.36-11.8-35.14-24.26-11.31-10.22-19.25-20.72-23.81-31.38H37.2c5.5 16.89 17.43 33.22 35.3 48.09 17.87 14.88 35.52 23.29 37.49 24.21l.7.31.66.19c.26.07.52.13.85.18l.21.03c.34.04.69.07 1.04.07.35 0 .68-.03 1.13-.09l.17-.03c.26-.04.52-.1.85-.19l.2-.06c.33-.1.65-.22.96-.37.77-.35 19.06-8.82 37.62-24.27 25.38-21.13 38.8-45.21 38.8-69.64 0-33.43-14.98-53.51-27.54-64.46-14.41-12.56-33.92-20.06-52.19-20.06-18.27 0-37.78 7.5-52.19 20.06-11.06 9.64-23.98 26.35-26.92 53.02H.47c-.3 3.8-.47 7.74-.47 11.83 0 34.72 19.24 69.08 55.63 99.38 25.9 21.56 51.41 33.72 54.23 35.04l.43.19c.25.1.5.19.77.28l.23.06c.27.07.54.14.86.19l.22.03c.35.05.71.08 1.06.08.35 0 .7-.03 1.09-.08l.24-.04c.27-.05.54-.1.88-.2l.19-.05c.33-.1.66-.22 1-.38 1.12-.51 27.62-12.81 54.42-35.13 36.4-30.3 55.63-64.66 55.63-99.38 0-47.68-21.3-76.26-39.17-91.83v.04z" fill="url(#a)" transform="translate(.03 .7)"/></g></svg>