<svg viewBox="0 0 596 110" xmlns="http://www.w3.org/2000/svg"><g fill-rule="nonzero" fill="none"><path d="M45.9.4c29.7 0 44.6 15.9 44.6 15.9s1.7 11.8.6 35.5c-1.6 35.8-45.3 57.3-45.3 57.3S2.2 87.6.5 51.8c-1.1-23.7.6-35.5.6-35.5S16.2.4 45.9.4z" fill="#ED2F27"/><path d="M146.4 28.5c-14.4 0-26.1 11.7-26.1 26.1 0 8.7 3.7 16.5 10.6 22.5 6.5 5.6 15.8 9.5 26.6 11.3 1.5-.8 4.4-3.7 5.4-5.6-7.9-1.4-11.6-2.7-11.6-2.7s1 0 3.1-.6c10.6-3 18.3-13.4 18.2-24.7-.2-14.5-11.8-26.3-26.2-26.3zm0 44.8c-10.3 0-18.6-8.3-18.6-18.6s8.3-18.6 18.6-18.6S165 44.4 165 54.7s-8.3 18.6-18.6 18.6zM339.6 70.8c.7-.7 1.7-1.1 2.8-1.1 1.2 0 2.1.4 2.8 1.1.7.7 1.1 1.7 1.1 2.9s-.4 2.2-1.1 2.9c-.7.7-1.7 1.1-2.8 1.1-1.2 0-2.1-.4-2.8-1.1-.7-.7-1.1-1.7-1.1-2.9s.4-2.2 1.1-2.9zm.6 5.2c.6.6 1.3.9 2.3.9.9 0 1.7-.3 2.3-.9.6-.6.9-1.4.9-2.3 0-1-.3-1.7-.9-2.3-.6-.6-1.3-.9-2.3-.9-.9 0-1.7.3-2.3.9-.6.6-.9 1.4-.9 2.3 0 .9.3 1.7.9 2.3zm4-3.4c0 .3-.1.6-.3.8-.2.2-.4.4-.7.5l1.1 1.8h-.9l-1-1.7h-.5v1.7h-.7v-4.4h1.6c.4 0 .8.1 1 .4.2.2.4.5.4.9zm-2.3-.6v1.3h.8c.2 0 .4-.1.5-.2.1-.1.2-.3.2-.5 0-.4-.2-.6-.7-.6h-.8zM290.9 66.7l-8.8-23.4h-7.9L287.1 76l-5.7 13.5c3.7 0 7.8-.3 9.5-4.2 3.8-9.3 16.9-42 16.9-42h-7.9l-9 23.4zM261.4 78.3s7.3-.1 7.3-5.1V28.7h-7.3v49.6zM246.3 47.9c-2-2.8-6-5.6-11.8-5.6-10 0-17.5 7.8-17.5 18 0 4.8 1.6 9.3 4.6 12.6 3.2 3.6 7.7 5.5 12.9 5.5 5 0 9.3-2.1 11.8-5.6v5.5s7.3-.1 7.3-5.1v-30h-7.3v4.7zm-11 23.6c-4.4 0-11-2.9-11.1-11.1v-.1c0-6.4 4.7-11.2 11-11.2 4.7 0 8.5 2.4 10.2 6.6.7 1.4 1 3 .9 4.7-.1 1.7-.4 3.4-1.1 4.8-1.7 3.9-5.4 6.3-9.9 6.3zM203.6 62.3c0 5.9-3.1 9.2-8.6 9.2-5.6 0-8.4-3.2-8.4-9.8V43.2h-7.3v19.9c0 2.9.5 7 2.8 10.2 2.4 3.3 6.1 5 11.1 5h.2c6 0 9.1-2.7 10.6-4.8v4.8s6.9-.1 6.9-4.8V43.2h-7.3v19.1zM325.2 57.1c-3.8-1.6-6.6-3.1-6.5-5.3 0-1.5 1.9-2.8 3.9-2.8 2.1.1 3.7 1.5 4.6 2.7 0 0 4-3.4 4.5-3.8-2.1-3.4-5.6-5.3-9.5-5.4-5.6-.1-10.3 4.3-10.4 9.8-.1 4.8 2.7 6.8 6.4 8.9l6.1 3.4c1.4 1 2.1 1.7 2 3.2-.1 2.4-2 3.9-4.6 4-1.9.1-3.4-1-4.9-2.5-2.8-3-7.2-1.5-8.5-1.1 2.8 6.4 8 10.1 13.3 10.2 6.6.1 11.9-4.7 12-11.1.1-2.9-1.3-6.8-8.4-10.2z" fill="#262626"/><path d="M23.6 47.5c0-12.7 10-22.9 22.3-22.9s22.3 10 22.3 22.3c0 9.8-8.4 17.9-15 22.1 2.5 1.4 8.1 3 13.4 3.4 7.8-6 12.5-15.4 12.5-25.5 0-18.4-15-33.3-33.3-33.3-18.4 0-33.3 15-33.3 33.3 0 11.1 4.6 21 13.4 28.5 8.2 7.1 20.1 11.8 33.8 14 3-1.6 8-6.4 9.9-9.3-11.4-1.5-22.1-4.2-29.4-8-11-5.8-16.6-14.1-16.6-24.6z" fill="#FFF"/><g fill="#6A778B"><path d="M376 73.1l2.5-3c3.8 3.4 7.4 5.1 12.4 5.1 4.9 0 8.1-2.6 8.1-6.1V69c0-3.4-1.8-5.3-9.4-6.9-8.3-1.8-12.1-4.5-12.1-10.4v-.1c0-5.7 5-9.9 11.9-9.9 5.3 0 9 1.5 12.7 4.4l-2.4 3.2c-3.4-2.7-6.7-3.9-10.4-3.9-4.7 0-7.7 2.6-7.7 5.8v.1c0 3.4 1.9 5.3 9.8 7 8.1 1.8 11.8 4.7 11.8 10.2v.1c0 6.2-5.2 10.2-12.3 10.2-5.9.1-10.6-1.8-14.9-5.7zM407.2 73.1l2.5-3c3.8 3.4 7.4 5.1 12.4 5.1 4.9 0 8.1-2.6 8.1-6.1V69c0-3.4-1.8-5.3-9.4-6.9-8.3-1.8-12.1-4.5-12.1-10.4v-.1c0-5.7 5-9.9 11.9-9.9 5.3 0 9 1.5 12.7 4.4l-2.4 3.2c-3.4-2.7-6.7-3.9-10.4-3.9-4.7 0-7.7 2.6-7.7 5.8v.1c0 3.4 1.9 5.3 9.8 7 8.1 1.8 11.8 4.7 11.8 10.2v.1c0 6.2-5.2 10.2-12.3 10.2-5.8.1-10.5-1.8-14.9-5.7zM441.4 42.2h4.1v32.4h20.4v3.8h-24.4V42.2zM486.1 42.2h4.1v32.4h20.4v3.8h-24.4V42.2zM513.9 70.6v-.1c0-5.6 4.6-8.6 11.4-8.6 3.4 0 5.8.5 8.2 1.1v-.9c0-4.8-2.9-7.3-8-7.3-3.2 0-5.6.8-8.1 2l-1.2-3.3c2.9-1.3 5.8-2.2 9.7-2.2 3.8 0 6.7 1 8.6 2.9 1.8 1.8 2.7 4.4 2.7 7.8v16.3h-3.8v-4c-1.9 2.4-5 4.6-9.7 4.6-4.8 0-9.8-2.8-9.8-8.3zm19.6-2.1V66c-2-.6-4.6-1.1-7.9-1.1-5 0-7.8 2.2-7.8 5.5v.1c0 3.4 3.1 5.3 6.7 5.3 5 0 9-3 9-7.3zM548.5 73.2v5.1h-4V40.6h4V57c2.2-3.2 5.3-5.9 10.2-5.9 6.4 0 12.8 5.1 12.8 13.8v.1c0 8.7-6.3 13.9-12.8 13.9-5 0-8.2-2.7-10.2-5.7zm18.9-8.1V65c0-6.3-4.3-10.3-9.4-10.3-5 0-9.7 4.2-9.7 10.3 0 6.2 4.7 10.3 9.7 10.3 5.1.1 9.4-3.8 9.4-10.2zM575.3 75l2-2.8c2.9 2.2 6.1 3.4 9.2 3.4 3.2 0 5.5-1.7 5.5-4.2v-.1c0-2.7-3.2-3.7-6.7-4.7-4.2-1.2-8.8-2.6-8.8-7.5V59c0-4.6 3.8-7.6 9.1-7.6 3.3 0 6.9 1.1 9.6 2.9l-1.8 3c-2.5-1.6-5.3-2.6-7.9-2.6-3.2 0-5.2 1.7-5.2 3.9v.1c0 2.5 3.3 3.5 6.9 4.6 4.1 1.2 8.6 2.8 8.6 7.6v.1c0 5.1-4.2 8-9.5 8-3.8-.1-8-1.6-11-4z"/></g></g></svg>