<svg id="RGB_Full_Color_Logos" data-name="RGB Full Color Logos" xmlns="http://www.w3.org/2000/svg" viewBox="0 0 246.1832 293.1108"><title>qualys-shield</title><path d="M1200.9577,0c80.1578,0,120.4615,42.888,120.4615,42.888s4.6084,31.7458,1.667,95.6667c-4.4434,96.56-122.1,154.55-122.1111,154.5562s-117.666-57.9958-122.1094-154.5562c-2.9415-63.9209,1.667-95.6667,1.667-95.6667S1120.8,0,1200.9577,0Z" transform="translate(-1077.8844)" fill="#ed2e26"/><path d="M1140.8087,126.9294c0-34.1421,26.9912-61.9185,60.167-61.9185a60.2847,60.2847,0,0,1,60.2168,60.2168c0,26.5072-22.7864,48.3157-40.3477,59.5225,6.8125,3.887,21.8486,7.9694,36.2451,9.2889a86.9056,86.9056,0,0,0,33.8428-68.8114,89.9565,89.9565,0,1,0-179.9131,0c0,29.9575,12.4736,56.5708,36.0723,76.9644,22.0625,19.0654,54.3361,31.791,91.0813,37.8164,7.96-4.399,21.5761-17.3866,26.6811-24.99-30.6885-3.9473-59.732-11.431-79.2027-21.6448C1155.8966,177.7654,1140.8087,155.41,1140.8087,126.9294Z" transform="translate(-1077.8844)" fill="#fff"/></svg>