<svg id="RGB_Full_Color_Logos" data-name="RGB Full Color Logos" xmlns="http://www.w3.org/2000/svg" viewBox="0 0 933.8844 293.1108"><title>qualys-white-horizontal-sans-tagline</title><path d="M394.1777,1222.4479a70.5859,70.5859,0,0,0-70.5059,70.5059c0,23.5332,9.89,44.502,28.6,60.6406,17.5225,15.1133,42.6495,25.5316,71.66,30.36,4.1489-2.2791,11.9942-9.9687,14.492-15.2362-21.375-3.6875-31.1776-7.3465-31.1776-7.3465a40.6761,40.6761,0,0,0,8.23-1.652c28.5557-8.0094,49.4888-36.2142,49.208-66.7656C464.3271,1254.0784,433.0557,1222.4479,394.1777,1222.4479Zm0,120.7139a50.208,50.208,0,1,1,50.209-50.208A50.2652,50.2652,0,0,1,394.1777,1343.1617Z" transform="translate(0 -1146.6237)" fill="#fff"/><path d="M915.4876,1336.4516a11.2919,11.2919,0,0,1,15.3768,0,11.5875,11.5875,0,0,1,0,15.6037,11.3013,11.3013,0,0,1-15.3768,0A11.5875,11.5875,0,0,1,915.4876,1336.4516Zm1.5556,14.0945a8.9692,8.9692,0,0,0,12.2639,0,9.5389,9.5389,0,0,0,0-12.6094,9.0254,9.0254,0,0,0-12.2639,0A9.5441,9.5441,0,0,0,917.0431,1350.5461Zm10.7084-9.1064a3.5581,3.5581,0,0,1-2.6539,3.5683l3.0664,4.8059h-2.3806l-2.7914-4.6684h-1.418v4.6684H919.56v-11.9013h4.3934a3.9242,3.9242,0,0,1,2.7467.9626A3.3031,3.3031,0,0,1,927.7515,1341.44Zm-6.1775-1.65v3.4789H923.68a2.06,2.06,0,0,0,1.44-.4813,1.6222,1.6222,0,0,0,.526-1.2582q0-1.7377-1.9664-1.7395H921.574Z" transform="translate(0 -1146.6237)" fill="#fff"/><path d="M784.0866,1325.3481l-23.8141-63.1875H739.0539L773.8,1350.36s-15.3711,36.5385-15.3653,36.5356c10.1131,0,21.1756-.7139,25.5038-11.37,10.1517-24.9932,45.5054-113.3649,45.5054-113.3649H808.2192Z" transform="translate(0 -1146.6237)" fill="#fff"/><path d="M704.4931,1356.8692s19.6952-.3646,19.6952-13.7292V1223.1074H704.4931v133.7618Z" transform="translate(0 -1146.6237)" fill="#fff"/><path d="M663.6458,1274.6c-5.4845-7.649-16.1973-15.0729-31.9706-15.0729-26.92,0-47.2213,20.9372-47.2213,48.7014,0,12.9767,4.4375,25.036,12.4944,33.9551,8.7151,9.6486,20.7242,14.7483,34.7269,14.7483,13.5666,0,25.1837-5.5338,31.9706-15.0136v14.951s19.6952-.3125,19.6952-13.7187v-80.99H663.6458V1274.6Zm-29.5016,63.7894c-11.9076,0-29.72-7.9474-29.995-29.8392v-0.1568c0-17.2876,12.7537-30.3246,29.6664-30.3246,12.6331,0,22.8977,6.5959,27.4869,17.7106a27.2678,27.2678,0,0,1,2.5091,12.7326,32.62,32.62,0,0,1-3.0226,12.8692C656.1516,1332.03,646.19,1338.3891,634.1442,1338.3891Z" transform="translate(0 -1146.6237)" fill="#fff"/><path d="M548.5678,1313.4978c0,15.9039-8.26,24.7446-23.2444,24.8913-15.1985,0-22.5872-8.6267-22.5872-26.3735v-49.855H483.0421v53.8061c0,7.7665,1.3093,18.8421,7.5485,27.506,6.3748,8.8538,16.4515,13.3817,29.9448,13.4591,0.1849,0.002.37,0.003,0.5527,0.003,16.138,0,24.4482-7.3154,28.4676-13v12.9342s18.7074-.3191,18.7074-13.0617v-81.6468H548.5678v51.3372Z" transform="translate(0 -1146.6237)" fill="#fff"/><path d="M876.6613,1299.5887c-10.2346-4.4245-17.6755-8.25-17.5448-14.185,0.0865-3.9272,5.2586-7.6872,10.637-7.5017,5.7558,0.1985,10.023,4.168,12.4047,7.3436,0,0,10.76-9.197,12.0619-10.1828a30.1638,30.1638,0,0,0-25.6609-14.6571,27.3166,27.3166,0,0,0-28.0637,26.4819c-0.285,12.9372,7.2924,18.2764,17.23,23.9125l16.3565,9.1964c3.7735,2.6389,5.5538,4.6089,5.4644,8.669-0.14,6.3621-5.4607,10.4863-12.3521,10.893-5.0694.2991-9.232-2.6313-13.1763-6.7594-7.6765-8.0341-19.46-4.172-23.0654-3.01,7.4971,17.24,21.68,27.2791,35.849,27.5913,17.8438,0.3932,32.1181-12.7769,32.4972-29.9835C899.4813,1319.1153,895.8507,1308.8279,876.6613,1299.5887Z" transform="translate(0 -1146.6237)" fill="#fff"/><path d="M243.5349,1189.5117s-40.3037-42.888-120.4615-42.888-120.425,42.888-120.425,42.888-4.6084,31.7458-1.667,95.6667c4.4435,96.56,122.1,154.5615,122.1094,154.5562s117.6677-57.9958,122.1111-154.5562C248.1433,1221.2574,243.5349,1189.5117,243.5349,1189.5117Zm-64.3292,151.1512c-14.3965-1.32-29.4326-5.4019-36.2451-9.2889,17.5613-11.2068,40.3477-33.0153,40.3477-59.5225a60.2847,60.2847,0,0,0-60.2168-60.2168c-33.1758,0-60.167,27.7764-60.167,61.9185,0,28.48,15.0879,50.8359,44.8428,66.4443,19.4707,10.2139,48.5143,17.6976,79.2028,21.6448-5.105,7.6033-18.7209,20.5909-26.6811,24.99-36.7451-6.0254-69.0187-18.751-91.0812-37.8164-23.5986-20.3936-36.0723-47.0068-36.0723-76.9644a89.9565,89.9565,0,1,1,179.9131,0A86.9056,86.9056,0,0,1,179.2056,1340.6628Z" transform="translate(0 -1146.6237)" fill="#fff"/></svg>