<svg id="RGB_Full_Color_Logos" data-name="RGB Full Color Logos" xmlns="http://www.w3.org/2000/svg" viewBox="0 0 422.1894 39.4563"><title>qualys-tagline</title><path d="M1594.2118,270.6673a12,12,0,1,1,12-11.9993A12.03,12.03,0,0,1,1594.2118,270.6673Zm0.0418-21.3654a9.3718,9.3718,0,0,0,0,18.7313c5.2682,0,9.0308-4.3477,9.0308-9.4906A9.2,9.2,0,0,0,1594.2536,249.3019Z" transform="translate(-1551.6047 -238.6954)" fill="#262626"/><path d="M1628.7954,270.124V257.5386c0-2.1744-.5433-4.7239-2.1734-6.2713a7.281,7.281,0,0,0-9.9513,0c-1.5892,1.5056-2.1326,3.9716-2.1326,6.0623V270.124h-2.9267v-22.871h2.9267v2.9276h0.0836a8.2934,8.2934,0,0,1,7.0246-3.5128c6.5639,0,10.0767,4.5577,10.0767,10.8708V270.124h-2.9277Z" transform="translate(-1551.6047 -238.6954)" fill="#262626"/><path d="M1643.5921,249.887V270.124h-2.9267V249.887h-4.8085v-2.6341h4.8085v-8.07h2.9267v8.07h5.4772v2.6341h-5.4772Z" transform="translate(-1551.6047 -238.6954)" fill="#262626"/><path d="M1654.0119,243.3783v-4.1949h2.9267v4.1949h-2.9267Zm0,26.7456v-22.871h2.9267v22.871h-2.9267Z" transform="translate(-1551.6047 -238.6954)" fill="#262626"/><path d="M1681.6049,270.124V257.5386c0-2.1744-.5433-4.7239-2.1734-6.2713a7.281,7.281,0,0,0-9.9513,0c-1.5892,1.5056-2.1326,3.9716-2.1326,6.0623V270.124h-2.9267v-22.871h2.9267v2.9276h0.0836a8.2934,8.2934,0,0,1,7.0246-3.5128c6.5639,0,10.0767,4.5577,10.0767,10.8708V270.124h-2.9276Z" transform="translate(-1551.6047 -238.6954)" fill="#262626"/><path d="M1707.911,270.124V266.57h-0.0836c-1.3375,2.8013-4.3059,4.097-7.3162,4.097a9.8494,9.8494,0,0,1-7.8605-3.4282c-1.631-2.049-2.0072-4.8085-2.0072-7.359V247.2529h2.9267v12.5854c0,4.7249,1.7146,8.1949,6.941,8.1949a6.5446,6.5446,0,0,0,4.8493-1.839c2.0072-1.9236,2.3833-4.1815,2.3833-6.8574V247.2529h2.9267v22.871h-2.7595Z" transform="translate(-1551.6047 -238.6954)" fill="#262626"/><path d="M1728.0254,270.6673a12,12,0,1,1,12-11.9993A12.03,12.03,0,0,1,1728.0254,270.6673Zm0.0418-21.3654a9.3718,9.3718,0,0,0,0,18.7313c5.2682,0,9.0318-4.3477,9.0318-9.4906A9.2012,9.2012,0,0,0,1728.0672,249.3019Z" transform="translate(-1551.6047 -238.6954)" fill="#262626"/><path d="M1762.3709,270.124V266.57h-0.0836c-1.3375,2.8013-4.3059,4.097-7.3162,4.097a9.8494,9.8494,0,0,1-7.8605-3.4282c-1.631-2.049-2.0072-4.8085-2.0072-7.359V247.2529h2.9267v12.5854c0,4.7249,1.7146,8.1949,6.941,8.1949a6.5446,6.5446,0,0,0,4.8493-1.839c2.0072-1.9236,2.3833-4.1815,2.3833-6.8574V247.2529h2.9267v22.871h-2.7595Z" transform="translate(-1551.6047 -238.6954)" fill="#262626"/><path d="M1900.6878,270.124V266.57h-0.0836c-1.3375,2.8013-4.3059,4.097-7.3162,4.097a9.8494,9.8494,0,0,1-7.8605-3.4282c-1.631-2.049-2.0072-4.8085-2.0072-7.359V247.2529h2.9267v12.5854c0,4.7249,1.7146,8.1949,6.941,8.1949a6.5446,6.5446,0,0,0,4.8493-1.839c2.0072-1.9236,2.3833-4.1815,2.3833-6.8574V247.2529h2.9267v22.871h-2.7595Z" transform="translate(-1551.6047 -238.6954)" fill="#262626"/><path d="M1927.4649,243.3783v-4.1949h2.9267v4.1949h-2.9267Zm0,26.7456v-22.871h2.9267v22.871h-2.9267Z" transform="translate(-1551.6047 -238.6954)" fill="#262626"/><path d="M1944.121,249.887V270.124h-2.9267V249.887h-4.8085v-2.6341h4.8085v-8.07h2.9267v8.07h5.4772v2.6341h-5.4772Z" transform="translate(-1551.6047 -238.6954)" fill="#262626"/><path d="M1960.54,278.1517h-3.0521l3.9725-8.78-8.9064-22.1187h3.0939l7.2754,18.23,7.7769-18.23h3.0939Z" transform="translate(-1551.6047 -238.6954)" fill="#262626"/><path d="M1850.5425,264.9512a12.38,12.38,0,0,1-2.7724,2.0577,9.1921,9.1921,0,0,1-4.49,1.0308,9.6268,9.6268,0,0,1-3.3439-.5718,7.89,7.89,0,0,1-4.6036-4.3064,9.3374,9.3374,0,0,1-.756-3.6421l-0.0049-.3205h19.29v-0.8243a15.0727,15.0727,0,0,0-.6644-4.512,10.6345,10.6345,0,0,0-2.0149-3.7336,9.6231,9.6231,0,0,0-3.3906-2.5419,12.2048,12.2048,0,0,0-9.39,0,10.5417,10.5417,0,0,0-3.5492,2.5653A11.5035,11.5035,0,0,0,1832.5844,254a13.9947,13.9947,0,0,0-.8019,4.7867,13.546,13.546,0,0,0,.8478,4.9018,10.596,10.596,0,0,0,2.3821,3.7336,10.7217,10.7217,0,0,0,3.6644,2.381,12.7163,12.7163,0,0,0,4.7409.8478,10.947,10.947,0,0,0,5.36-1.214,15.5524,15.5524,0,0,0,3.5937-2.6573Zm-13.2852-13.5623a7.8933,7.8933,0,0,1,5.84-2.13,8.1747,8.1747,0,0,1,3.23.5953,6.8545,6.8545,0,0,1,2.359,1.6261,7.2789,7.2789,0,0,1,1.4886,2.4279,10.0579,10.0579,0,0,1,.5693,2.6554H1834.79A9.0222,9.0222,0,0,1,1837.2573,251.3889Z" transform="translate(-1551.6047 -238.6954)" fill="#262626"/><path d="M1779.6977,256.8649c-4.0522-.9516-5.7464-1.6728-5.7464-3.68,0-2.0927,2.116-3.4982,5.2653-3.4982a8.8073,8.8073,0,0,1,6.4215,2.5211l2.108-2.108a11.8016,11.8016,0,0,0-8.53-3.3991c-4.858,0-8.2513,2.6662-8.2513,6.4842,0,4.6977,4.6529,5.7892,8.05,6.5862,4.1689,0.98,6.0293,1.805,6.0293,4.1028,0,2.3969-2.117,3.8277-5.6638,3.8277a9.7442,9.7442,0,0,1-7.1169-2.8149l-2.1083,2.1083a12.7417,12.7417,0,0,0,9.2252,3.6926c5.9749,0,8.65-3.4224,8.65-6.8137C1788.0306,258.8225,1783.0161,257.6444,1779.6977,256.8649Z" transform="translate(-1551.6047 -238.6954)" fill="#262626"/><path d="M1576.7507,264.0907a12.8291,12.8291,0,0,1-9.007,3.8094,13.443,13.443,0,0,1-13.0451-13.1287c0-7.0236,5.8952-13.2541,13.0034-13.2541a13.0679,13.0679,0,0,1,9.1268,3.7314l2.0789-2.0791a16.23,16.23,0,0,0-11.1639-4.4536,15.9928,15.9928,0,1,0,11.1126,27.48Z" transform="translate(-1551.6047 -238.6954)" fill="#262626"/><path d="M1876.8224,265.44a9.1476,9.1476,0,0,1-6.5755,2.5934,9.366,9.366,0,1,1,0-18.7313,9.0467,9.0467,0,0,1,6.6018,2.8049l1.9868-1.9866a12.368,12.368,0,0,0-8.6721-3.4524,12.18,12.18,0,0,0-12.2919,12.042,12.03,12.03,0,0,0,12.2919,11.9575,11.7218,11.7218,0,0,0,8.5477-3.339Z" transform="translate(-1551.6047 -238.6954)" fill="#262626"/><path d="M1816.7074,252.7281c-5.0631-1.1888-8.3825-2.223-8.3825-5.6415,0-3.2329,3.1532-5.4053,7.8469-5.4053a12.7256,12.7256,0,0,1,9.3265,3.6987l2.1078-2.1079a15.725,15.725,0,0,0-11.4343-4.5768c-6.3782,0-10.8329,3.4506-10.8329,8.3912,0,6.041,6.1761,7.49,10.6861,8.5477,5.136,1.2062,8.7723,2.359,8.7723,6.2256,0,3.6149-3.2183,5.8611-8.398,5.8611a14.0072,14.0072,0,0,1-10.3406-4.1567l-2.1083,2.1083a17.0117,17.0117,0,0,0,12.4488,5.0344c6.9157,0,11.384-3.4729,11.384-8.8471C1827.7833,255.3282,1821.3817,253.8255,1816.7074,252.7281Z" transform="translate(-1551.6047 -238.6954)" fill="#262626"/><path d="M1912.9728,247.2529h-2.9268V270.124h2.9268V257.33a8.223,8.223,0,0,1,2.1323-5.9677,7.1911,7.1911,0,0,1,4.9758-1.8341,9.091,9.091,0,0,1,1.2708.0968v-2.907c-0.3667-.0312-0.8829-0.05-1.2708-0.05a8.5561,8.5561,0,0,0-7.1058,3.6436Z" transform="translate(-1551.6047 -238.6954)" fill="#262626"/></svg>