<svg xmlns="http://www.w3.org/2000/svg" viewBox="0 0 579 106.8"><g fill="#FFF"><path d="M26.5 106.7V33.5c0-3.9 3.2-7.1 7.1-7.1H74c1.3 0 3.3-1 4-2L96.2 0H29.6C21.2 0 14.1 2.9 8.5 8.5 2.9 14.1 0 21.2 0 29.6v76.1c0 .5.5 1 1 1h25.5zM99 0v73.2c0 3.9-3.2 7.1-7.1 7.1H51.5c-1.3 0-3.3 1-4 2l-18.2 24.4h66.6c8.4 0 15.5-2.8 21.1-8.5 5.6-5.6 8.5-12.8 8.5-21.1V1c0-.6-.5-1-1-1H99zM156.1 9.7h32.8c10.6 0 14.5 7.3 14.5 14.1 0 6.5-3.1 11.2-8.9 13.1v.1c4.7.7 7.4 5.1 7.7 11.3.4 9.9.7 12.3 2.5 14.4h-8.3c-1.3-1.5-1.3-3.7-1.6-10.1-.5-9.5-3.7-12.4-10.2-12.4H164v22.5h-7.9v-53zm29.8 23.7c7.7 0 9.6-4.7 9.6-8.4 0-5-3-8.5-9.4-8.5H164v16.9h21.9zM219.6 9.7h42.6v6.8h-34.7v15.4h33.7v6.8h-33.7v17.2H263v6.8h-43.4v-53zM279.2 9.7h26.9c15.9 0 23.2 10.4 23.2 25.8 0 14.8-6.5 27.2-22.7 27.2h-27.3v-53zm27 46.2c12.9 0 15.2-10.8 15.2-20.3 0-9.4-3-19.1-16.7-19.1h-17.6v39.3h19.1zM349.1 45.3c.1 9.5 9.1 12 17.1 12 8.4 0 14.3-3.2 14.3-9 0-4.8-3.8-6.8-9.9-7.9l-12-2c-6.3-1-15.7-3.6-15.7-13.9 0-9.7 7.6-16.1 21.2-16.1 10.6 0 21.8 3.9 22.6 16.6h-7.9c-.7-4.2-3-9.8-15.7-9.8-5.8 0-12.3 2.5-12.3 8.7 0 3.3 2.2 5.9 8.7 7l13 2.2c4.2.7 16 2.7 16 13.6 0 13.5-12.1 17.4-22.8 17.4-12 0-24.4-4.2-24.4-18.8h7.8zM402.7 9.7h42.6v6.8h-34.7v15.4h33.7v6.8h-33.7v17.2H446v6.8h-43.4v-53zM497.6 47.3h-26l-6.8 15.4h-8.5l24-53h9l24 53h-9l-6.7-15.4zM484.5 17l-9.9 23.5h20.1L484.5 17zM523.5 9.7h7.9v46.2h32.2v6.8h-40.1v-53z"/><g><path d="M174.1 76.7h5.6v21.4h-6.3l-11.7-15h-.1v15H156V76.7h6.8l11.3 15h.1v-15zM211.6 76.7h20v4.1h-14.2v4.4h13.5v3.9h-13.5V94h14.3v4.1h-20.2V76.7zM270.4 80.8h-8v-4.1h21.8v4.1h-8v17.4h-5.8V80.8zM313.6 76.7h5.8l4.1 15.6h.1l4.4-15.6h5.8l4.4 15.6h.1l4.1-15.6h5.8l-6.8 21.4h-6L331 82.9h-.1l-4.5 15.3h-6l-6.8-21.5zM389.5 76.1c11.5 0 13.3 6.8 13.3 11.3 0 4.5-1.8 11.3-13.3 11.3s-13.3-6.8-13.3-11.3c0-4.5 1.8-11.3 13.3-11.3zm0 18.5c5.3 0 7.1-3.9 7.1-7.2 0-3.3-1.9-7.2-7.1-7.2-5.3 0-7.2 3.9-7.2 7.2.1 3.3 1.9 7.2 7.2 7.2zM434.7 76.7h15.6c6 0 6.9 3.6 6.9 5.8 0 2.6-1.1 4.3-3.5 5.2v.1c2.6.4 2.9 3.6 2.9 5.7 0 1.1.1 3.6 1.1 4.7h-6.4c-.5-1-.6-1.9-.6-4.1 0-3-1.3-3.8-3.1-3.8h-7.2v7.9h-5.8V76.7zm5.8 9.5h7.7c1.3 0 2.8-.7 2.8-2.7 0-2.1-1.7-2.7-3.1-2.7h-7.4v5.4zM504.4 76.7h7.8l-9.9 8.6L513 98.1h-7.9l-7.3-9.3-3.4 2.9v6.4h-5.8V76.7h5.8v9.2l10-9.2zM556.4 82.9c-.4-2.8-3-3.1-5.4-3.1-2.4 0-4 1.1-4 2.5 0 1.1 1 1.8 2.5 2l7.3 1.2c3.9.6 6.9 2.1 6.9 6 0 4-2.7 7.2-11.1 7.2-5.2 0-12-.7-12.1-7.4h6.5c.1 2.9 3 3.5 5.5 3.5 2.7 0 4.6-.8 4.6-2.7 0-1.6-1.3-2.1-3.6-2.5l-5.3-.8c-3.7-.6-7.3-1.7-7.3-6.1 0-4.8 3.9-6.7 10.6-6.7 4.4 0 11 .8 11.4 6.8h-6.5z"/></g><g><path d="M569 102.9v-5.7h-2.1v-.8h5.2v.8h-2.2v5.7h-.9zM572.8 102.9v-6.5h1.3l1.5 4.6c.1.4.2.8.3 1 .1-.2.2-.6.3-1l1.6-4.5h1.2v6.5h-.8v-5.4l-1.9 5.4h-.8l-1.9-5.5v5.5h-.8z"/></g></g></svg>