<svg xmlns="http://www.w3.org/2000/svg" viewBox="0 0 137.8 102"><g fill="#FFF"><path d="M86.6 100.5V67.1h6.7v33.4h-6.7zM106.4 66.5h5.2L101 101.2h-5.2l10.6-34.7zM124.5 66.5c10.1 0 11.3 7.2 11.3 17.3 0 10.1-1.3 17.3-11.3 17.3-10.1 0-11.3-7.2-11.3-17.3-.1-10.1 1.2-17.3 11.3-17.3zm0 29.7c4 0 4.6-3.4 4.6-12.4 0-8.9-.7-12.4-4.6-12.4-4 0-4.6 3.5-4.6 12.4 0 9 .6 12.4 4.6 12.4z"/><g><path d="M1.8 67.1h12.4c5.5 0 8.9 2.9 8.9 8.6 0 4.4-1.8 7.4-5.6 8.2v.1c4.6.6 5.3 3.1 5.4 10.2 0 3.5.2 5.3 1.5 6v.3h-7.3c-.7-.9-.8-2.2-.8-3.5l-.2-6.4c-.1-2.6-1.3-4.2-4-4.2H8.5v14.1H1.8V67.1zm6.7 14.6h2.8c3.2 0 5.1-1.4 5.1-5 0-3.1-1.6-4.6-4.7-4.6H8.5v9.6zM27.8 66.8h6.4v5.5h-6.4v-5.5zm0 8.5h6.4v25.1h-6.4V75.3zM43.5 92.3v.8c0 2.2 1.2 3.6 3.4 3.6 2 0 3.3-1 3.3-3 0-1.6-1.1-2.4-2.3-2.8l-4.5-1.6c-3.5-1.3-5.4-3.5-5.4-7 0-4.2 2.6-7.6 9.3-7.6 5.8 0 8.6 2.6 8.6 7.1v1h-5.8c0-2.5-.7-3.8-2.8-3.8-1.6 0-3 .9-3 2.7 0 1.2.7 2.2 2.8 2.9l3.9 1.3c4.1 1.4 5.6 3.4 5.6 7.2 0 5.3-3.9 7.9-9.3 7.9-7.2 0-9.3-3.2-9.3-8v-.9h5.5zM66.2 67.1v17.6h.1l6.5-9.4h7.1l-7.2 9.9 8.3 15.2h-7.1l-5.4-10.3-2.3 3v7.3h-6.4V67.1h6.4z"/></g><g><path d="M73.4 62.2c3 1.2 5.7 3.4 7.4 6.4-1.8-3-2.3-6.4-1.8-9.7-.8.7-1.7 1.3-2.7 1.9-.9.6-1.9 1-2.9 1.4zM90.8 5.2C86.1.5 80 2 75.4 6.7c-1.6 1.6-3.6 4.1-5.3 7 .7 2.7.8 5.4.3 8.1 1.2-3.7 4.2-8.9 7.7-12.4.9-.9 1.8-1.6 2.7-2.1 2.8-1.6 5.3-1.4 7.4.7 1.4 1.4 1.9 2.8 1.7 4.5-.2 1.8-1.4 3.7-3.2 5.5-1.3 1.3-3.9 3.4-7.1 5.2-4.3 2.5-7.1 3-8.5 2.9 2.1.5 4.2 1.3 6 2.5 4.7-1.9 9.7-5.4 12.2-8C94 16 95.5 9.9 90.8 5.2z"/><path d="M66.3 34.4c3.7-.2 7.4 1.6 9.4 5.1 2.8 4.9 1.1 11.1-3.7 13.9-4.9 2.8-11.1 1.1-13.9-3.7-2-3.4-1.7-7.5.3-10.6l1.3-2-7.9.4c-2.3 4.8-2.2 10.6.6 15.5 4.6 8 14.8 10.7 22.8 6.1s10.7-14.8 6.1-22.8C78 30.7 72 27.6 65.9 28l-13.6.7c-3.7.2-7.4-1.6-9.4-5.1-2.8-4.8-1.1-11.1 3.7-13.9 4.8-2.8 11.1-1.1 13.9 3.7 2 3.4 1.7 7.5-.3 10.6L59 26l7.9-.4c2.3-4.8 2.2-10.6-.6-15.5C61.7 2.1 51.5-.6 43.5 4s-10.7 14.8-6.1 22.8c3.3 5.6 9.3 8.6 15.4 8.3l13.5-.7z"/><path d="M34 48.3c-2.4.7-4.7.6-6.4 0-1.6-.6-2.6-1.9-3.1-3.7-.8-2.8.3-5.1 3.1-6.7.9-.5 2-1 3.2-1.3 4.7-1.3 10.6-1.2 14.4-.5-2.5-.9-4.8-2.4-6.7-4.3-3.3.1-6.5.5-8.7 1.1-6.4 1.7-10.7 6.3-9 12.6 1.7 6.4 7.7 8.2 14.1 6.5 3.5-.9 9.1-3.5 13.1-6.6-.1-2.2.2-4.3.8-6.4-.6 1.2-2.5 3.4-6.8 5.9-3.1 1.8-6.2 3-8 3.4z"/></g></g></svg>