<svg xmlns="http://www.w3.org/2000/svg" viewBox="0 0 75.9 35.6"><g fill="#FFF"><path fill-rule="evenodd" clip-rule="evenodd" d="M74.2.4c.3 0 .6.1.8.2.3.1.5.4.6.6.2.3.2.6.2.9 0 .3-.1.6-.2.9-.2.3-.4.5-.6.6-.3.2-.6.2-.9.2-.3 0-.6-.1-.9-.2-.3-.2-.5-.4-.6-.6-.2-.3-.2-.6-.2-.9 0-.3.1-.6.2-.9.2-.3.4-.5.6-.6.4-.1.7-.2 1-.2zm0 .3c-.2 0-.5.1-.7.2-.2.1-.4.3-.5.5-.1.2-.2.5-.2.7 0 .2.1.5.2.7.1.2.3.4.5.5.2.1.5.2.7.2.2 0 .5-.1.7-.2.2-.1.4-.3.5-.5.1-.2.2-.5.2-.7 0-.3-.1-.5-.2-.7-.1-.2-.3-.4-.5-.5-.2-.1-.5-.2-.7-.2zm-.7 2.4V1.2h.6c.2 0 .4 0 .5.1.1 0 .2.1.2.2.1.1.1.2.1.3 0 .1 0 .3-.1.4-.1.1-.2.2-.4.2.1 0 .1.1.2.1.1.1.2.2.3.4l.1.2h-.4l-.2-.3c-.1-.2-.2-.4-.3-.4-.1 0-.1-.1-.2-.1h-.2v.8h-.2zm.2-1.1h.4c.2 0 .3 0 .4-.1.1-.1.1-.1.1-.2v-.1l-.1-.1h-.6V2h-.2z"/><path d="M0 0v35.5h50.1l4.1-8.9 4.2 9h12.5V0H0zm20.7 26.5l-6.1-10.7h1.9c2.4-.1 3.8-1.3 3.8-3.2 0-2.1-1.9-3-3.6-3h-5.1v16.9h-3V6.8h8.3c3.8 0 6.5 2.4 6.6 5.9 0 2.3-1.3 4.5-4 5.5l4.8 8.4-3.6-.1zm14 .5c-2.7 0-5.1-.6-7.3-2l1.5-2.6c1.8 1.1 3.6 1.7 5.8 1.7 1.6 0 4.2-.4 4.2-2.9 0-1.5-1.1-2.5-4.3-3.4-3-.9-6.9-2-6.9-5.9 0-3.4 2.8-5.5 7.2-5.5 2.1 0 4.6.6 6.2 1.4l-1.3 2.5c-1.2-.6-3.2-1.2-4.8-1.2-1 0-3.8.2-3.8 2.5 0 1.5 1.2 2.3 4.4 3.2 3.1.9 6.8 2 6.8 6.1-.1 3.8-3.2 6.1-7.7 6.1zm26.2-.4l-6.7-15.4-6.4 15.4h-3.7L52.5 7H56l8.6 19.6h-3.7z"/></g></svg>