<svg xmlns="http://www.w3.org/2000/svg" viewBox="0 0 187.089 46.54"><g fill-rule="evenodd" clip-rule="evenodd" fill="#ED1C2E"><path d="M185.254 35.52c-2.32 6.525-8.554 10.73-18.848 10.73-8.554 0-16.963-4.93-14.788-16.383 1.595-9.714 10.44-16.093 20.588-16.093 11.31 0 16.383 7.684 14.5 16.818l-.436 2.03h-21.313c0 .29-.29 1.305-.29 2.32 0 2.755 1.45 3.77 3.19 3.77 1.885 0 3.625-1.16 4.495-3.19h12.902zm-10.873-9.278l.146-.725c.435-2.465-.725-4.204-3.19-4.204-2.32 0-4.35 1.595-4.93 4.93h7.975zM149.588 14.354c-3.335 0-5.944 1.74-7.684 4.205h-.29l.58-3.916H128.42l-.87 4.06 7.54-.87-.146.724-7.684 1.305-5.364 25.517h14.788s1.45-7.394 2.465-11.6c1.45-6.958 5.218-8.408 7.683-8.408 2.175 0 3.48.87 3.77 1.16l2.465-11.31c-.29-.144-1.45-.868-3.48-.868zM15.042 27.402c-5.944-1.885-10.44-5.364-10.44-12.034C4.603 5.654 14.318.145 27.367 0 38.24 0 45.634 4.64 44.33 13.774H28.67c.58-2.465-.87-3.915-3.624-3.915-2.03 0-3.625 1.014-3.915 2.32-.29 1.74.87 2.9 3.626 3.624 2.32.725 3.915 1.16 6.235 1.74 6.67 2.03 9.86 5.945 10.585 10.004l-19.573 2.03-6.96-2.176zm.58 10.584l1.305-6.234H.11C-1.05 42.192 7.212 46.54 17.94 46.54c10.15 0 21.023-3.48 23.343-12.76l-25.663 4.206zM102.758 16.818c1.16-.87 4.06-3.045 8.41-3.045 4.494 0 7.973 1.885 9.568 5.51L86.52 22.907 91.014 1.16h14.79l-3.336 15.658h.29zm-.87 7.104c-.87 1.305-1.74 3.19-2.32 5.945-1.305 6.09.145 7.684 1.885 7.684 2.465 0 4.494-2.32 5.51-7.538.58-3.335.434-5.8-.436-6.814l14.79-2.32c.724 2.32.87 5.365.144 8.7-2.174 11.018-8.843 16.672-16.237 16.672-3.335 0-7.104-.87-8.554-4.495h-.436l-1.16 3.625h-13.34l3.916-18.848 16.238-2.61zM64.917 34.506c-.435 2.32-2.03 4.204-4.205 4.204-2.175 0-3.045-1.74-2.755-3.624.435-1.595 2.03-3.19 5.075-3.19h2.465l-.58 2.61zm-3.77-10.584c.435-1.885 1.885-3.335 3.77-3.335 1.74 0 2.61 1.595 2.175 3.19l-.145 1.16 13.774-1.45c-1.014-7.104-7.538-10.15-15.222-10.15-11.454 0-16.963 5.655-18.123 10.73l-.145.725h13.774l.143-.87zm-16.963 9.424c-.435 1.16-.725 2.465-.725 3.915 0 4.785 3.623 8.99 9.713 8.99 5.51 0 8.7-2.32 10.15-3.915h.144l-.29 3.045h13.92l3.334-16.093c.146-.58.29-1.305.436-1.885l-36.682 5.944z"/></g></svg>