<svg xmlns="http://www.w3.org/2000/svg" width="776" height="136" font-size="158" fill="url(#a)" font-family="DesignSystemC-700"><defs><linearGradient x1="331.947" y1="12" x2="331.947" y2="123" gradientUnits="userSpaceOnUse" id="a"><stop offset="0" stop-color="#929fab"/><stop offset="1" stop-color="#b8c5d1"/></linearGradient></defs><path d="M130 1.125v9.563H29.58c-5.478 0-9.508 1.372-12.103 4.096-2.594 2.723-3.883 6.906-3.883 12.58v46.48c0 1.743.39 3.046 1.187 3.906.798.837 2.038 1.25 3.72 1.25h89.438c2.663 0 4.528.6 5.593 1.813 1.155 1.21 1.72 3.267 1.72 6.156v6.593c0 2.88-.568 4.917-1.72 6.124-1.06 1.21-2.937 1.813-5.593 1.813H16.53v-9.75l-16.093 21 16.094 21V124h101.532c6.93 0 12.062-1.71 15.344-5.156 3.283-3.446 4.906-8.758 4.906-15.938V75.562c0-6.608-1.51-11.515-4.53-14.687-3.022-3.26-7.716-4.875-14.095-4.875H43.97c-2.568 0-4.444-.604-5.595-1.813-1.15-1.207-1.72-3.244-1.72-6.124V41.5c0-2.88.57-4.948 1.72-6.156 1.15-1.208 3.027-1.813 5.594-1.813H130v9.564l16.094-20.97zM291.134 123.998h-22.71V79H189.38v44.998h-22.59V27.355c0-11.11 5.187-16.666 15.56-16.666h90.396c12.257 0 18.386 6.565 18.386 19.695v93.613m-29.67-90.453h-65.002c-2.567 0-4.39.63-5.465 1.888-1.077 1.17-1.358 3.204-1.615 6.07V56h79.04V41.505c0-2.878-.537-4.902-1.614-6.07-.994-1.26-2.775-1.89-5.343-1.89M402.75 10.69h54.802c12.342 0 18.514 7.206 18.514 21.62v91.688H453v-85.18c0-1.906-.33-3.247-.987-4.02-.66-.835-1.774-1.253-3.345-1.253h-34.144c-2.372 0-4.055.63-5.05 1.89-.994 1.168-1.49 3.192-1.49 6.07v82.493h-22.176V41.52c0-2.884-.498-4.91-1.495-6.082-.996-1.262-2.72-1.893-5.173-1.893h-34.144c-1.577 0-2.695.42-3.356 1.256-.66.778-.992 2.123-.992 4.036v85.162h-23.05V27.446c0-11.17 4.783-16.757 14.35-16.757h58.967c1.86 0 3.254.405 4.183 1.217.93.78 1.515 2.093 1.754 3.936.212-1.843.783-3.155 1.713-3.936.93-.812 2.325-1.218 4.184-1.218M623.29 73.787v27.687c0 7.82-1.68 13.556-5.042 17.206-3.265 3.545-8.548 5.318-15.847 5.318H499.098V10.688h105.95c6.375 0 10.988 1.595 13.84 4.782 2.936 3.097 4.404 8.06 4.404 14.89V60.9c0 2.02-.383 3.543-1.15 4.57-.768 1.024-2.023 1.65-3.765 1.874 1.742.224 2.997.85 3.764 1.875.767 1.025 1.15 2.547 1.15 4.567m-23.96-19.612c1.12-1.216 1.68-3.275 1.68-6.176l.01-6.465c0-2.897-.56-4.953-1.678-6.168-1.12-1.214-2.926-1.822-5.422-1.822h-72.308V56h72.16c2.67 0 4.524-.608 5.558-1.825zM521.612 79v22.496h72.308c2.498 0 4.307-.608 5.426-1.824 1.12-1.216 1.68-3.273 1.68-6.172v-6.482c0-2.907-.56-4.97-1.684-6.19-1.037-1.218-2.894-1.828-5.57-1.828h-72.16M772.965 123.998h-22.807V79H670.87v44.998h-22.607V27.366c0-11.118 5.204-16.677 15.612-16.677h90.786c12.203 0 18.305 6.516 18.305 19.55v93.758M743.21 33.545h-65.192c-2.592 0-4.43.634-5.518 1.9-1.087 1.178-1.378 3.225-1.63 6.11V56h79.288V41.47c0-2.865-.538-4.88-1.613-6.044-.993-1.254-2.77-1.88-5.335-1.88"/></svg>