<svg xmlns="http://www.w3.org/2000/svg" viewBox="0 0 99 54"><path fill="#FFF" fill-rule="evenodd" d="M92.858 50.832c-.812.958-1.861 1.437-3.147 1.437-2.482 0-4.568-1.63-6.26-4.89-1.254-2.413-2.096-5.409-2.533-8.98h10.327c.484.9.903 1.74 1.24 2.5 1.06 2.393 1.59 4.467 1.59 6.226 0 1.512-.405 2.748-1.217 3.707zm-39.04-14.23V10.344l10.82 26.258h-10.82zM51.65 44.08c0 2.843-.276 4.727-.828 5.651-.554.926-1.586 1.467-3.097 1.624h-1.817L43.657 38.4h7.994v5.68zM31.426 10.75l4.23 25.852H27.06l4.366-25.852zM87.342.7c1.105 0 2.183.31 3.231.93 1.05.622 1.98 1.485 2.793 2.59L94.888.767h1.388v17.054h-1.388c-.383-4.895-1.252-8.73-2.605-11.505-1.354-2.775-3.001-4.162-4.94-4.162-1.265 0-2.262.452-2.995 1.354-.734.902-1.1 2.131-1.1 3.688 0 2.211 1.658 5.674 4.974 10.388 1.24 1.805 2.2 3.215 2.876 4.23 2.82 4.31 4.76 7.84 5.82 10.591 1.06 2.753 1.59 5.461 1.59 8.122 0 3.97-.783 7.15-2.35 9.542-1.569 2.391-3.628 3.586-6.176 3.586-1.422 0-2.724-.321-3.909-.964-1.184-.642-2.374-1.664-3.57-3.062l-1.895 3.654h-1.386V38.4h-6.354v14.478h-1.523L65.378 38.4h-11.56v5.274c0 2.73.405 4.659 1.217 5.787.812 1.128 2.233 1.76 4.264 1.894v1.523H34.47v-1.523h3.587L35.995 38.4h-9.307l-1.218 7.406c-.067.43-.113.84-.135 1.236-.023.395-.034.795-.034 1.2 0 1.106.293 1.89.88 2.352.586.462 1.59.717 3.012.761v1.523H18.669v-1.523c2.12-.406 3.564-2.605 4.331-6.599.045-.246.079-.427.102-.54l8.02-42.704h6.124l6.098 35.09h8.307V3.035h-3.316V1.512h9.915l12.553 31.064V9.633c0-2.3-.378-3.976-1.133-5.024-.756-1.05-1.98-1.574-3.671-1.574V1.512h10.76v1.523h-.203c-1.421 0-2.391.378-2.91 1.133-.52.756-.778 2.352-.778 4.788v27.646h6.354v-2.166h1.386c.028.744.074 1.463.131 2.166h9.5a100.064 100.064 0 00-3.1-4.94c-3.068-4.625-5.07-8.274-6.006-10.946a24.942 24.942 0 01-1.405-8.308c0-3.519.712-6.35 2.133-8.493C83.28 1.772 85.109.7 87.342.7zM8.121.7c1.105 0 2.182.31 3.232.93 1.049.621 1.98 1.485 2.791 2.59L15.668.766h1.386v17.055h-1.386c-.385-4.895-1.253-8.73-2.607-11.505-1.353-2.775-3-4.161-4.94-4.161-1.263 0-2.262.45-2.994 1.353-.734.902-1.1 2.131-1.1 3.688 0 2.211 1.658 5.673 4.974 10.389 1.24 1.804 2.2 3.213 2.877 4.23 2.819 4.308 4.758 7.838 5.82 10.59 1.06 2.754 1.59 5.46 1.59 8.122 0 3.97-.785 7.15-2.352 9.542-1.568 2.391-3.627 3.586-6.175 3.586-1.421 0-2.724-.321-3.909-.964-1.184-.643-2.374-1.663-3.57-3.062l-1.894 3.654H0V34.436h1.388c.203 5.37 1.15 9.684 2.842 12.943 1.692 3.26 3.778 4.89 6.26 4.89 1.286 0 2.335-.48 3.147-1.438.812-.959 1.218-2.194 1.218-3.706 0-1.758-.53-3.833-1.59-6.226-1.061-2.39-2.843-5.469-5.347-9.236-3.068-4.625-5.07-8.274-6.006-10.948a24.941 24.941 0 01-1.404-8.307c0-3.52.71-6.35 2.131-8.493C4.061 1.772 5.888.7 8.121.7z"/></svg>