<svg xmlns="http://www.w3.org/2000/svg" xmlns:xlink="http://www.w3.org/1999/xlink" viewBox="0 0 61.333 106.684"><path fill="#FFF" d="M0 0h61.333v106.684H0z"/><path d="M7.388 51.377h.395l3.935 10.885h-.394L9.92 58.37H5.236l-1.404 3.892h-.38l3.935-10.885zm2.414 6.657l-2.224-6.16-2.224 6.16h4.448zM15.156 62.263h-.395l-3.013-10.827h.395l2.824 10.17 2.575-10.17h.38l2.825 10.17 2.575-10.17h.366l-2.75 10.827h-.396l-2.81-10.11M27.358 51.377h.395l3.935 10.885h-.395L29.89 58.37h-4.683l-1.404 3.892h-.38l3.935-10.885zm2.414 6.657l-2.224-6.16-2.224 6.16h4.448z"/><defs><path id="a" d="M0 0h61.333v106.684H0z"/></defs><clipPath id="b"><use xlink:href="#a" overflow="visible"/></clipPath><path clip-path="url(#b)" d="M33.224 51.435h3.204c2.415 0 3.63 1.185 3.63 2.795 0 1.463-1.04 2.53-3.044 2.706l3.072 5.326h-.424l-3.058-5.296H33.59v5.296h-.366V51.435zm3.22 5.21c2.15 0 3.248-.98 3.248-2.415 0-1.434-1.097-2.458-3.248-2.458H33.59v4.872h2.854zM41.637 51.436h1.975c3.687 0 5.56 1.785 5.56 5.413s-1.873 5.413-5.56 5.413h-1.975V51.436zm2.004 10.49c3.454 0 5.166-1.653 5.166-5.077s-1.712-5.078-5.165-5.078h-1.638v10.154h1.64zM49.918 59.57l.35-.116c.498 1.61 1.406 2.692 3.57 2.692 1.903 0 3.132-.95 3.132-2.43 0-1.564-.775-2.193-3.16-2.97-2.473-.803-3.248-1.36-3.248-3.056 0-1.303 1.14-2.473 3.087-2.473 1.96 0 2.984 1.156 3.452 2.502l-.35.116c-.484-1.33-1.406-2.283-3.103-2.283-1.742 0-2.722 1.01-2.722 2.137 0 1.477.76 1.99 3.014 2.72 2.268.732 3.394 1.362 3.394 3.307 0 1.712-1.463 2.765-3.497 2.765-2.488 0-3.425-1.272-3.922-2.91"/><path clip-path="url(#b)" fill="#ED2024" d="M3.622 4.287H57.47v44.026H3.622z"/><path clip-path="url(#b)" fill="none" stroke="#FFF" stroke-width=".5" d="M3.622 4.287H57.47v44.026H3.622z"/><path clip-path="url(#b)" fill="#FFF" d="M16.244 40.68c8.386 0 12.81-4.946 12.81-11.043 0-11.09-17.706-9.42-17.706-15.306 0-2.294 1.72-3.804 4.687-3.804 3.49 0 5.313 1.98 5.313 4.688v1.04h7.604V14.54c0-5.262-3.675-9.297-9.95-10.253h-5.817c-5.33.848-8.72 4.088-9.617 8.177v4.352c2.098 8.82 17.364 7.724 17.364 13.45 0 2.343-1.407 3.958-4.793 3.958-3.385 0-5.78-1.51-5.78-4.95v-1.042H3.567V34.2c1.704 4.036 6.058 6.48 12.676 6.48M50.147 29.378c0 2.866-1.718 4.588-4.895 4.588-3.593 0-5.73-2.14-5.73-5.37V16.31c0-3.437 1.98-5.577 5.68-5.577 3.174 0 5.05 1.616 5.05 4.742v2.03h7.235v-5.828c-1.17-3.84-4.476-6.617-9.494-7.39H42.19c-6.943 1.08-11.103 6.13-11.103 12.488v11.198c0 7.187 5.104 12.708 13.957 12.708 6.534 0 11.15-3.176 12.443-7.944V27.14h-7.34v2.238zM6.606 42.58h.024l1.9 2.35 1.887-2.35h.03v4.118h-.37V43.53L8.53 45.475h-.025l-1.53-1.943V46.7h-.37M14.38 46.697h-.386l1.698-4.128h.03l1.706 4.127h-.4l-.28-.698h-2.08l-.288.697zm1.33-3.28l-.906 2.237h1.803c.006 0-.897-2.238-.897-2.238M20.444 44.68c0-1.193.914-2.067 2.045-2.067.706 0 1.174.248 1.52.63l-.274.257c-.28-.312-.635-.533-1.258-.533-.937 0-1.633.736-1.633 1.713 0 .978.706 1.713 1.704 1.713.592 0 .965-.17 1.226-.39v-.636H22.56v-.343h1.585v1.157c-.37.33-.837.566-1.596.566-1.184 0-2.106-.87-2.106-2.066M27.81 46.697h-.387l1.696-4.128h.03l1.703 4.127h-.397L30.178 46h-2.084l-.283.697zm1.33-3.28l-.91 2.237h1.805c.005 0-.896-2.238-.896-2.238M34.076 46.674l2.35-3.67h-2.06v-.342h2.69v.025l-2.352 3.67h2.364v.34h-2.992M40.69 42.662h.388v4.035h-.39zM45.352 43.526v3.17h-.36V42.58h.034l2.717 3.258v-3.176h.36v4.12h-.034M51.995 42.662h2.432v.343H52.38v2.02h1.828v.34H52.38v.99h2.13v.342h-2.515"/><path clip-path="url(#b)" fill="#ED1C24" d="M16.78 86.054v.708H3.504c0-.148.03-.767.03-.767.147-3.777 1.18-5.252 7.67-9.236 3.454-2.125 4.9-3.866 4.9-6.344 0-3.216-2.125-5.252-5.49-5.252-3.215 0-5.133 2.006-6.107 4.07l-.65-.294c1.034-2.3 3.394-4.455 6.758-4.455 3.836 0 6.226 2.243 6.226 5.93 0 2.804-1.682 4.722-5.34 6.935-6.286 3.835-7.112 5.193-7.23 8.704h12.51zM34.077 75.402c0 6.58-2.626 11.36-7.613 11.36-4.986 0-7.642-4.78-7.642-11.36s2.656-11.36 7.642-11.36c4.987 0 7.613 4.78 7.613 11.36m-.738 0c0-6.107-2.243-10.68-6.876-10.68-4.632 0-6.904 4.573-6.904 10.68 0 6.107 2.272 10.652 6.904 10.652 4.633 0 6.875-4.545 6.875-10.652M38.95 65.74c-1.126.83-2.79 1.215-4.302 1.215v-.742c1.424 0 2.938-.296 4.392-1.394h.654v21.23h3.887v.713h-9.05v-.713h4.42V65.74z"/><path clip-path="url(#b)" d="M7.43 101.342h-.412L3.886 90.09h.41l2.935 10.568 2.678-10.57h.395l2.935 10.57 2.676-10.57h.38l-2.858 11.254h-.41l-2.92-10.508M18.363 90.09h.38v11.252h-.38zM21.39 90.09h.41l7.162 10.552V90.09h.365v11.252h-.365l-7.208-10.645v10.645h-.365M31.882 90.09h.41l7.163 10.552V90.09h.365v11.252h-.365l-7.208-10.645v10.645h-.365M42.375 90.09h6.356v.35h-5.975v4.743h4.532v.35h-4.532v5.46h6.083v.35h-6.463M50.738 90.09h3.33c2.51 0 3.772 1.23 3.772 2.903 0 1.52-1.08 2.63-3.163 2.814l3.193 5.535h-.44l-3.18-5.505h-3.13v5.505h-.382V90.09zm3.346 5.413c2.235 0 3.376-1.02 3.376-2.51 0-1.49-1.14-2.554-3.376-2.554H51.12v5.063h2.964z"/><path clip-path="url(#b)" fill="#ED2024" d="M42.524 80.19l11.003-15.5h.81v15.63h3.84v.648h-3.84v5.727h-.65v-5.727H42.525v-.777zm11.1-14.594L43.172 80.32h10.516V65.596h-.064z"/><path clip-path="url(#b)" fill="#ED2024" d="M54.437 86.796h-.85v-5.728H42.422v-.91l.018-.027L53.475 64.59h.963v15.63h3.84v.85h-3.84v5.728zm-.647-.203h.444v-5.728h3.84v-.444h-3.84V64.79h-.655L42.625 80.224v.642H53.79v5.728zm0-6.172H42.974L53.57 65.495h.22V80.42zm-10.422-.202h10.218V65.824L43.368 80.218z"/></svg>