<svg xmlns="http://www.w3.org/2000/svg" width="1180" height="151"><g fill="none" fill-rule="evenodd"><path fill="#181818" d="M61.8 64.2C45 58.6 29.6 54 29.6 40c0-11.4 9.6-20.2 24.4-20.2 13 0 22.8 5.4 29.4 15.6l17.8-13.2C90 9.2 76.2.6 54 .6 27 .6 7.2 18.2 7.2 40.4c0 26.8 21.4 34.8 41.2 41.2 16.8 5.4 32.8 10.2 32.8 25.2 0 13-10.2 23.4-26.4 23.4-14.8 0-26.4-7.4-35-21.2L.6 124C13 140 30 150.6 55 150.6c30.2 0 48.6-21.4 48.6-43.8 0-27.2-21.8-35.8-41.8-42.6z"/><path fill="#181818" fill-rule="nonzero" d="M167 46.6c-29.4 0-52 23-52 52.4 0 29 21.2 51.6 52.8 51.6 22.2 0 38-10.8 46.8-27.2l-17.6-9.8c-5.2 10.8-15.6 18-29.2 18-17.4 0-29.4-10.2-32.2-25.6h82.8v-8.4c0-29.6-21.8-51-51.4-51zm-30.4 41.2c4-13.2 15.6-22.4 30.4-22.4 15.4 0 26.4 8 29.6 22.4h-60z"/><path fill="#181818" d="M283.3 130.6c-18 0-31.6-14.4-31.6-32 0-17.8 13.4-32 31.2-32 13 0 23.2 7.2 28.2 18.8l19.2-8.2c-7.6-18-25.2-30.6-47.4-30.6-29.2 0-52.2 22.6-52.2 52 0 28.8 22.6 52 52.2 52 23.4 0 40-13 48-31.4l-19.4-8.2c-4.6 11.2-14.6 19.6-28.2 19.6z"/><path fill="#181818" fill-rule="nonzero" d="M571.1 46.6c-29.4 0-52 23-52 52.4 0 29 21.2 51.6 52.8 51.6 22.2 0 38-10.8 46.8-27.2l-17.6-9.8c-5.2 10.8-15.6 18-29.2 18-17.4 0-29.4-10.2-32.2-25.6h82.8v-8.4c0-29.6-21.8-51-51.4-51zm-30.4 41.2c4-13.2 15.6-22.4 30.4-22.4 15.4 0 26.4 8 29.6 22.4h-60z"/><path fill="#181818" d="M744 119.6l-25.8-71H697l-26.2 71-22.8-71-21.8-.2 33.2 100.2h21l27-71.4 26.6 71.4h20.6l34.8-100h-21.8zm386.1-31c-14.4-3.2-23.6-5.2-23.6-12.4 0-6.4 5.8-12 17.2-12 10 0 17.8 4.4 22.4 11.4l17.8-9.8c-7.8-12-21.6-19.4-40.2-19.4-23.6-.2-38.6 14.4-38.6 30.2 0 20.6 17.6 26.2 34.6 29.8 12.6 2.6 24.2 4.4 24.2 12.4 0 7-6.2 13.2-18.2 13.2-11.4 0-20.2-5.4-25.6-14.6l-19.2 10c8.4 14.8 23 23.2 43.8 23.2 28.4.2 40.4-18.4 40.4-32.2 0-20.8-18.6-26.2-35-29.8z"/><path fill="#181818" fill-rule="nonzero" d="M1169.4 23c0-2.5-1.6-5-4.9-5h-5.9v15.6h2.5v-5.7h1.7l4.1 5.7h2.9l-4.1-5.8c2.4-.4 3.7-2.6 3.7-4.8zm-8.4 2.5v-5.1h3.5c1.6 0 2.5 1.3 2.5 2.5 0 1.3-.9 2.5-2.6 2.5l-3.4.1z"/><path fill="#181818" fill-rule="nonzero" d="M1163.5 9.8c-8.7 0-15.6 7.1-15.6 15.8 0 8.7 6.9 15.8 15.6 15.8s15.6-7.1 15.6-15.8c0-8.7-6.9-15.8-15.6-15.8zm0 29c-7.3 0-13.1-5.9-13.1-13.2 0-7.3 5.8-13.3 13.1-13.3s13.1 5.9 13.1 13.3c0 7.3-5.8 13.2-13.1 13.2z"/><path fill="#181818" d="M413.8 103.6c0 13.5-11 24.5-24.5 24.5s-24.5-11-24.5-24.5v-55H343v55c0 25.5 20.8 46.3 46.3 46.3 25.5 0 46.3-20.8 46.3-46.3v-55h-21.8v55zm496.3-17.4v62.4h21.6V86.2c0-9.2 7.5-16.7 16.7-16.7h22.5V47.9h-22.5c-21.1 0-38.3 17.2-38.3 38.3zm-458.9 6.2v56.2h21.6V92.4c0-12.6 10.3-22.9 22.9-22.9H512V47.9h-16.3c-24.5 0-44.5 20-44.5 44.5z"/><path fill="#473EFF" d="M843.3 45.8c-10.5 0-20.2 3.1-28.4 8.4L829 69.9c4.3-2.2 9.1-3.4 14.2-3.4 17.4 0 31.5 14.1 31.5 31.5 0 6.3-1.9 12.2-5.1 17.1l14.1 15.7c7.2-9 11.6-20.4 11.6-32.8.2-28.8-23.2-52.2-52-52.2zm0 83.7c-17.4 0-31.5-14.1-31.5-31.5 0-6.3 1.9-12.2 5.1-17.1l-14.1-15.7c-7.2 9-11.6 20.4-11.6 32.8 0 28.8 23.4 52.2 52.2 52.2 10.5 0 20.2-3.1 28.4-8.4l-14.1-15.7c-4.4 2.2-9.3 3.4-14.4 3.4z"/><path fill="#181818" d="M985.8 2.6v146h21.2V2.6zm67.5 46l-46.3 50 46.3 50h25.5l-46.3-50 46.3-50z"/></g></svg>