<svg xmlns="http://www.w3.org/2000/svg" width="212" height="32" viewBox="0 0 212 32"><g fill="none" fill-rule="evenodd"><path fill="#273737" d="M52.232 10.025c-2.317 0-4.292.819-5.88 2.111V10.24h-5.365v20.896h5.58V17.78c.773-1.077 2.704-2.585 5.064-2.585.841 0 1.61.061 2.24.335v-5.362a9.541 9.541 0 00-1.639-.143M3.586 24.759c1.416 1.293 3.605 2.068 5.708 2.068 1.502 0 2.661-.732 2.661-1.766 0-3.145-10.086-2.025-10.086-8.746 0-4.006 3.863-6.506 7.983-6.506 2.704 0 5.666 1.034 7.039 2.111l-2.618 4.05c-1.073-.775-2.489-1.422-3.992-1.422-1.545 0-2.832.604-2.832 1.68 0 2.715 10.086 1.638 10.086 8.876 0 4.006-3.906 6.462-8.284 6.462-2.876 0-5.923-.991-8.369-2.8l2.704-4.007m20.727-6.764c.258-1.896 2.146-3.662 4.464-3.662 2.275 0 3.949 1.81 4.12 3.662h-8.584zm14.292 2.499c0-5.816-4.077-10.685-9.828-10.685-6.181 0-10.13 5.084-10.13 10.9 0 6.549 4.679 10.857 10.902 10.857 3.22 0 6.524-1.335 8.542-3.748l-3.176-3.188c-.988 1.077-2.876 2.412-5.236 2.412-2.962 0-5.323-2.024-5.623-4.954h14.421a9.21 9.21 0 00.128-1.594zM67.169 22.993l5.708-12.753h5.795L69.1 31.136h-3.863L55.666 10.24h5.794l5.709 12.753M83.357.428c2.018 0 3.649 1.551 3.649 3.576 0 2.025-1.631 3.576-3.649 3.576-2.017 0-3.648-1.551-3.648-3.576 0-2.025 1.631-3.576 3.648-3.576M80.567 31.136h5.58V10.24h-5.58zM109.217 26.87c-2.446 3.274-5.536 4.696-9.442 4.696-6.439 0-11.16-4.825-11.16-10.857 0-6.075 4.85-10.9 11.203-10.9 3.605 0 6.824 1.681 8.756 4.179l-3.949 3.49c-1.116-1.465-2.79-2.499-4.807-2.499-3.219 0-5.623 2.542-5.623 5.73 0 3.274 2.361 5.687 5.751 5.687 2.275 0 4.077-1.378 4.979-2.757l4.292 3.231m15.072-8.875c-.171-1.852-1.845-3.662-4.12-3.662-2.318 0-4.206 1.766-4.464 3.662h8.584zm5.194 9.823c-2.018 2.413-5.322 3.748-8.542 3.748-6.223 0-10.901-4.308-10.901-10.857 0-5.816 3.949-10.9 10.129-10.9 5.751 0 9.828 4.869 9.828 10.685 0 .56-.042 1.12-.128 1.594h-14.421c.3 2.93 2.661 4.954 5.622 4.954 2.361 0 4.249-1.335 5.237-2.412l3.176 3.188zm2.733 3.318V10.24h5.365v1.68c1.588-1.292 3.562-2.111 5.88-2.111a9.36 9.36 0 017.21 3.361c1.374 1.637 2.146 3.748 2.146 7.324v10.642h-5.579V20.063c0-2.068-.472-3.145-1.244-3.92-.731-.733-1.846-1.164-3.134-1.164-2.361 0-4.292 1.508-5.064 2.585v13.572h-5.58"/><path fill="#7CAD95" d="M167.114 28.128c-3.612 0-6.083-2.719-6.083-6.083 0-3.365 2.471-6.129 6.083-6.129s6.083 2.764 6.083 6.129c0 3.364-2.471 6.083-6.083 6.083m.071-18.319c-6.667-.038-12.182 5.417-12.237 12.109a12.2 12.2 0 003.821 8.99c.864.818 2.2.897 3.137.166 1.385-1.081 3.164-1.725 5.208-1.725s3.822.644 5.207 1.725c.945.737 2.287.643 3.156-.183a12.205 12.205 0 003.803-8.87c0-6.72-5.41-12.173-12.095-12.212"/><path fill="#273737" d="M190.321 31.136h-4.155L177.88 10.24h5.571l4.542 11.941 4.456-11.941h4.655l4.415 11.941 4.583-11.941h5.573l-8.286 20.896h-4.158l-4.454-11.899-4.456 11.899M208.614 28.481v.455h-.7v2.2h-.513v-2.2h-.701v-.455h1.914M210.348 30.07l.966-1.589h.361v2.655h-.512v-1.479l-.638 1.042h-.355l-.638-1.042v1.479h-.511v-2.655h.36l.967 1.589"/></g></svg>