<svg xmlns="http://www.w3.org/2000/svg" width="212" height="32" viewBox="0 0 212 32"><g fill="#0A0B09" fill-rule="evenodd"><path d="M52.232 10.036c-2.317 0-4.292.818-5.88 2.11v-1.895h-5.365v20.895h5.58V17.791c.773-1.078 2.704-2.586 5.064-2.586.841 0 1.61.062 2.24.336v-5.362a9.442 9.442 0 00-1.639-.143M3.586 24.77c1.416 1.292 3.605 2.067 5.708 2.067 1.502 0 2.661-.732 2.661-1.765 0-3.145-10.086-2.026-10.086-8.746 0-4.007 3.863-6.506 7.983-6.506 2.704 0 5.666 1.034 7.039 2.111l-2.618 4.05c-1.073-.776-2.489-1.422-3.992-1.422-1.545 0-2.832.603-2.832 1.68 0 2.715 10.086 1.638 10.086 8.875 0 4.007-3.906 6.463-8.284 6.463-2.876 0-5.923-.991-8.369-2.801l2.704-4.006m20.727-6.764c.258-1.896 2.146-3.662 4.464-3.662 2.275 0 3.949 1.809 4.12 3.662h-8.584zm14.292 2.498c0-5.816-4.077-10.684-9.828-10.684-6.181 0-10.13 5.084-10.13 10.9 0 6.549 4.679 10.857 10.902 10.857 3.22 0 6.524-1.335 8.542-3.748l-3.176-3.189c-.988 1.077-2.876 2.413-5.236 2.413-2.962 0-5.323-2.025-5.623-4.954h14.421a9.221 9.221 0 00.128-1.595zM67.169 23.003l5.708-12.752h5.795L69.1 31.146h-3.863l-9.571-20.895h5.794l5.709 12.752M83.357.439c2.018 0 3.649 1.551 3.649 3.576 0 2.025-1.631 3.575-3.649 3.575-2.017 0-3.648-1.55-3.648-3.575 0-2.025 1.631-3.576 3.648-3.576M80.567 31.146h5.58V10.251h-5.58zM109.217 26.881c-2.446 3.274-5.536 4.696-9.442 4.696-6.439 0-11.16-4.826-11.16-10.857 0-6.075 4.85-10.9 11.203-10.9 3.605 0 6.824 1.68 8.756 4.179l-3.949 3.49c-1.116-1.466-2.79-2.499-4.807-2.499-3.219 0-5.623 2.542-5.623 5.73 0 3.274 2.361 5.687 5.751 5.687 2.275 0 4.077-1.379 4.979-2.758l4.292 3.232m15.072-8.875c-.171-1.853-1.845-3.662-4.12-3.662-2.318 0-4.206 1.766-4.464 3.662h8.584zm5.194 9.823c-2.018 2.413-5.322 3.748-8.542 3.748-6.223 0-10.901-4.308-10.901-10.857 0-5.816 3.949-10.9 10.129-10.9 5.751 0 9.828 4.868 9.828 10.684 0 .56-.042 1.121-.128 1.595h-14.421c.3 2.929 2.661 4.954 5.622 4.954 2.361 0 4.249-1.336 5.237-2.413l3.176 3.189zm2.733 3.317V10.251h5.365v1.68c1.588-1.292 3.562-2.111 5.88-2.111a9.36 9.36 0 017.21 3.361c1.374 1.636 2.146 3.748 2.146 7.323v10.642h-5.579V20.073c0-2.067-.472-3.144-1.244-3.92-.731-.732-1.846-1.163-3.134-1.163-2.361 0-4.292 1.508-5.064 2.585v13.571h-5.58m34.898-3.008c-3.612 0-6.083-2.719-6.083-6.082 0-3.365 2.471-6.13 6.083-6.13s6.083 2.765 6.083 6.13c0 3.363-2.471 6.082-6.083 6.082m.071-18.318c-6.667-.038-12.182 5.417-12.237 12.109a12.202 12.202 0 003.821 8.99c.864.817 2.2.896 3.137.166 1.385-1.082 3.164-1.726 5.208-1.726s3.822.644 5.207 1.726c.945.737 2.287.642 3.156-.184a12.205 12.205 0 003.803-8.869c0-6.72-5.41-12.173-12.095-12.212M190.321 31.146h-4.155l-8.286-20.895h5.571l4.542 11.941 4.456-11.941h4.655l4.415 11.941 4.583-11.941h5.573l-8.286 20.895h-4.158l-4.454-11.898-4.456 11.898M208.614 28.492v.455h-.7v2.199h-.513v-2.199h-.701v-.455h1.914M210.348 30.08l.966-1.588h.361v2.654h-.512v-1.479l-.638 1.043h-.355l-.638-1.043v1.479h-.511v-2.654h.36l.967 1.588"/></g></svg>