<svg xmlns="http://www.w3.org/2000/svg" width="212" height="32" viewBox="0 0 212 32"><g fill="#FFFFFE" fill-rule="evenodd"><path d="M52.232 10.032c-2.317 0-4.292.819-5.88 2.111v-1.896h-5.365v20.896h5.58V17.788c.773-1.078 2.704-2.586 5.064-2.586.841 0 1.61.061 2.24.336v-5.362a9.443 9.443 0 00-1.639-.144M3.586 24.767c1.416 1.292 3.605 2.067 5.708 2.067 1.502 0 2.661-.732 2.661-1.766 0-3.145-10.086-2.025-10.086-8.746 0-4.006 3.863-6.506 7.983-6.506 2.704 0 5.666 1.035 7.039 2.112l-2.618 4.05c-1.073-.776-2.489-1.422-3.992-1.422-1.545 0-2.832.603-2.832 1.68 0 2.714 10.086 1.637 10.086 8.875 0 4.007-3.906 6.463-8.284 6.463-2.876 0-5.923-.992-8.369-2.801l2.704-4.006m20.727-6.765c.258-1.896 2.146-3.662 4.464-3.662 2.275 0 3.949 1.81 4.12 3.662h-8.584zm14.292 2.499c0-5.816-4.077-10.685-9.828-10.685-6.181 0-10.13 5.084-10.13 10.901 0 6.548 4.679 10.856 10.902 10.856 3.22 0 6.524-1.335 8.542-3.748l-3.176-3.188c-.988 1.077-2.876 2.413-5.236 2.413-2.962 0-5.323-2.025-5.623-4.954h14.421a9.221 9.221 0 00.128-1.595zM67.169 23l5.708-12.753h5.795L69.1 31.143h-3.863l-9.571-20.896h5.794L67.169 23M83.357.436c2.018 0 3.649 1.551 3.649 3.575 0 2.026-1.631 3.576-3.649 3.576-2.017 0-3.648-1.55-3.648-3.576 0-2.024 1.631-3.575 3.648-3.575M80.567 31.142h5.58V10.247h-5.58zM109.217 26.877c-2.446 3.274-5.536 4.696-9.442 4.696-6.439 0-11.16-4.825-11.16-10.856 0-6.075 4.85-10.901 11.203-10.901 3.605 0 6.824 1.681 8.756 4.18l-3.949 3.489c-1.116-1.465-2.79-2.499-4.807-2.499-3.219 0-5.623 2.542-5.623 5.731 0 3.274 2.361 5.686 5.751 5.686 2.275 0 4.077-1.378 4.979-2.757l4.292 3.231m15.072-8.875c-.171-1.852-1.845-3.662-4.12-3.662-2.318 0-4.206 1.766-4.464 3.662h8.584zm5.194 9.823c-2.018 2.413-5.322 3.748-8.542 3.748-6.223 0-10.901-4.308-10.901-10.856 0-5.817 3.949-10.901 10.129-10.901 5.751 0 9.828 4.869 9.828 10.685 0 .56-.042 1.121-.128 1.595h-14.421c.3 2.929 2.661 4.954 5.622 4.954 2.361 0 4.249-1.336 5.237-2.413l3.176 3.188zm2.733 3.318V10.247h5.365v1.68c1.588-1.292 3.562-2.111 5.88-2.111a9.364 9.364 0 017.21 3.361c1.374 1.637 2.146 3.748 2.146 7.324v10.642h-5.579V20.07c0-2.068-.472-3.145-1.244-3.92-.731-.733-1.846-1.164-3.134-1.164-2.361 0-4.292 1.509-5.064 2.586v13.571h-5.58m34.898-3.008c-3.612 0-6.083-2.719-6.083-6.082 0-3.366 2.471-6.13 6.083-6.13s6.083 2.764 6.083 6.13c0 3.363-2.471 6.082-6.083 6.082m.071-18.318c-6.667-.039-12.182 5.416-12.237 12.109a12.201 12.201 0 003.821 8.989c.864.817 2.2.897 3.137.166 1.385-1.081 3.164-1.725 5.208-1.725s3.822.644 5.207 1.725c.945.737 2.287.644 3.156-.183a12.205 12.205 0 003.803-8.869c0-6.72-5.41-12.174-12.095-12.212M190.321 31.143h-4.155l-8.286-20.896h5.571l4.542 11.941 4.456-11.941h4.655l4.415 11.941 4.583-11.941h5.573l-8.286 20.896h-4.158l-4.454-11.898-4.456 11.898M208.614 28.489v.454h-.7v2.2h-.513v-2.2h-.701v-.454h1.914M210.348 30.077l.966-1.588h.361v2.654h-.512v-1.479l-.638 1.043h-.355l-.638-1.043v1.479h-.511v-2.654h.36l.967 1.588"/></g></svg>