<svg xmlns="http://www.w3.org/2000/svg" viewBox="0 0 335.2 38" enable-background="new 0 0 335.2 38"><path fill="#646464" d="M16 16.2c-6.4-1.4-9.2-2.3-9.2-5.5s3-5.2 8.1-5.2c4.2 0 7.6 1.7 9.7 4.8l.3.3h.4c.8 0 3.2-1.1 3.2-3.2 0-3.1-4.7-7.3-13.5-7.3-8.4.1-14 4.6-14 11.3 0 7.6 7.3 9.2 12.7 10.3 6.5 1.4 9.7 2.2 9.7 5.8 0 3.2-3.1 5.2-8.3 5.2-5 0-8.8-1.8-11.4-5.4l-.3-.3h-.3c-.7 0-3.1 1-3.1 3.3 0 3.2 5.7 7.7 14.9 7.7 8.7 0 14.4-4.4 14.4-11.2 0-7.7-7.6-9.3-13.3-10.6M49.5.2c-10.4 0-18.2 8.2-18.2 19 0 11 7.6 18.7 18.6 18.7 9.5 0 15.3-5.4 15.3-8.4 0-2.4-2.3-3.4-3.3-3.4-.4 0-.6.2-.7.4-1.8 2.9-4.6 5.9-11.3 5.9-6.8 0-11.8-4.6-12.5-11.4h26.3c1.3 0 2.6-.2 2.6-2.3v-.4c0-10.8-6.8-18.1-16.8-18.1m0 5.5c5.8 0 9.8 3.8 10.4 10h-22.2c1.2-6 5.9-10 11.8-10M83.8.2c-3.9 0-6.7 1.6-8.6 4.9-.2-2.8-1.5-4.3-3.7-4.3-.7 0-2.3.3-2.3 1.2v33.1c0 1.9 1 2.9 2.8 2.9h.5c1.8 0 2.8-1 2.8-2.9v-14.3c0-6.7 1.4-14.7 7.9-14.7 1.6 0 2.7.4 3.8 1.3l.2.2h.3c.8 0 1.9-1.3 1.9-3.2.1-2.6-2-4.2-5.6-4.2M122.3.4c-1.9 0-2.9 1-4 3.9l-9.9 26.4-10-26.4c-1.2-3-2.1-3.9-4.2-3.9-1.1 0-2.1.4-2.7 1.1-.2.2-.4.6-.3 1.1l13.2 33.1c.6 1.6 1.1 2.2 3.8 2.2 2.6 0 3.4-.8 4-2.3l13-33c.1-.3 0-.6-.3-1-.1-.2-.9-1.2-2.6-1.2M130.8.4h-.5c-1.8 0-2.8 1-2.8 2.9v31.7c0 1.9 1 2.9 2.8 2.9h.5c1.8 0 2.8-1 2.8-2.9v-31.7c0-1.9-1-2.9-2.8-2.9M154.9 5.8c5.5 0 9.1 2.4 11.2 7.3.1.3.5.4.9.4 1.2 0 3.5-.9 3.5-3 0-3.7-5.2-10.3-15.6-10.3-10.6 0-18.5 8.1-18.5 18.8 0 10.8 8 19 18.5 19 10.4 0 15.6-6.6 15.6-10.3 0-2.1-2.3-3-3.5-3-.5 0-.8.2-.9.5-2.1 4.9-5.7 7.3-11.2 7.3-7.2 0-12.4-5.6-12.4-13.4 0-7.8 5.2-13.3 12.4-13.3M190.9.2c-10.4 0-18.2 8.2-18.2 19 0 11 7.6 18.7 18.6 18.7 9.5 0 15.3-5.4 15.3-8.4 0-2.4-2.3-3.4-3.3-3.4-.4 0-.6.2-.7.4-1.8 2.9-4.6 5.9-11.3 5.9-6.8 0-11.8-4.6-12.5-11.4h26.3c1.3 0 2.6-.2 2.6-2.3v-.4c0-10.8-6.7-18.1-16.8-18.1m0 5.5c5.8 0 9.8 3.8 10.4 10h-22.2c1.3-6 5.9-10 11.8-10"/><path fill="#D1232B" d="M230.4.3c-4.4 0-8.3 1.8-11 5-.7-3.7-3-4.5-4.9-4.5-1.1 0-3.3.4-3.3 1.5v31.6c0 2.7 1.3 4.1 3.8 4.1h.8c2.5 0 3.9-1.4 3.9-4.1v-20.4c1.7-3.5 5-5.5 9-5.5 4.6 0 7.3 3.3 7.3 8.7v17.2c0 2.7 1.3 4.1 3.9 4.1h.8c2.5 0 3.9-1.4 3.9-4.1v-18.1c-.1-9.7-5.4-15.5-14.2-15.5M334.9 2.4c-.6-.7-2.5-2-4.5-2-.8 0-3.7.3-4.3 4.4l-5 22.4-5.6-18.3c-.6-2.1-2.1-3-5-3s-4.4.9-5 3l-5.8 18.5-5.1-22.5c-.8-3.9-3.3-4.4-4.4-4.4-1.9 0-4.1 1.2-4.7 2.1-.3.4-.3.7-.2.9l8.9 31.8c.7 2.5 2.8 2.8 5 2.8 3 0 4.2-.7 5-3l6.2-18.9 6 18.9c.8 2.3 1.9 3 5 3 2.2 0 4.4-.3 5-2.8l8.8-31.9c.1-.5-.2-.9-.3-1M283.4 10.5c-.3-.7-1.7-3.3-3.3-4.1-2.6-1.5-5.3.6-6.1 2.1-.3.5-.4 1-.1 1.5.8 1 1.8 2.7 2.1 3.4.8 1.7 1.3 3.7 1.3 5.9 0 6.7-4.5 11.6-10.8 11.6-6.2 0-10.9-5.1-10.9-11.8 0-2.1.5-4.1 1.3-5.8.5-1 1.1-2.1 2.2-3.4.3-.4.2-.9-.1-1.5-.9-1.5-3.5-3.6-6.1-2.1-1.5.9-2.8 2.9-3.4 4.1-1.2 2.5-1.8 5.4-1.8 8.5 0 11.2 7.7 19 18.8 19 10.9 0 18.8-7.9 18.8-18.8 0-3.1-.7-6-1.9-8.6M266.8 0h-.5c-2.2 0-3.5 1.6-3.5 4.4v14.8c0 2.8 1.3 4.3 3.5 4.3h.5c2.2 0 3.5-1.5 3.5-4.3v-14.8c0-2.8-1.3-4.4-3.5-4.4"/></svg>