<svg width="200" height="31" viewBox="0 0 200 31" xmlns="http://www.w3.org/2000/svg" xmlns:xlink="http://www.w3.org/1999/xlink"><defs><path id="a" d="M0 30.968h199.792V.206H0z"/></defs><g fill="none" fill-rule="evenodd"><path fill="#FC0019" d="M0 15h29.48V.032H0z"/><path fill="#FFF" d="M0 30.794h31.042V.032H0z"/><path fill="#FC0019" d="M.73 15.723h29.478V.755H.73z"/><path fill="#231F20" d="M.73 30.071h29.478V15.413H.73z"/><path fill="#FFF" d="M5.938 16.239h19.166v-1.755H5.938z"/><g transform="translate(0 -.174)"><path d="M47.084 19.51a9.774 9.774 0 00-3.646-.826c-1.667 0-2.5.31-2.5 1.032 0 1.858 7.5.31 7.5 4.233 0 1.65-1.563 2.89-4.584 2.89a10.154 10.154 0 01-4.895-1.24l.625-1.444a8.307 8.307 0 004.27 1.136c1.875 0 2.813-.517 2.813-1.342 0-1.963-7.5-.517-7.5-4.13 0-1.548 1.562-2.683 4.27-2.683a8.825 8.825 0 014.376 1.032l-.73 1.342zM56.25 21.677a1.415 1.415 0 001.667-1.342 1.346 1.346 0 00-1.563-1.445h-4.27v2.787h4.166zm-1.354 1.549h-2.813v3.406h-1.77v-9.29h6.041c1.64-.143 3.086 1.059 3.23 2.684.143 1.625-1.07 3.057-2.709 3.2l2.813 3.51H57.5l-2.604-3.51zM69.27 23.846a1.096 1.096 0 00-1.25-1.24h-4.687v2.375h4.48c1.041.102 1.458-.31 1.458-1.135zm-1.353-2.685a1.038 1.038 0 001.145-1.135 1.12 1.12 0 00-1.25-1.136h-4.479v2.27h4.584zm1.875.62a2.267 2.267 0 011.25 2.065c0 1.548-1.146 2.683-3.23 2.683h-6.25v-9.29h6.146c1.771 0 3.021 1.032 3.021 2.58a1.947 1.947 0 01-.937 1.962z" fill="#FFF"/><mask id="b" fill="#fff"><use xlink:href="#a"/></mask><path fill="#FFF" mask="url(#b)" d="M73.333 26.632h1.771v-9.29h-1.77zM76.875 24.567c.723.441 1.548.69 2.396.723 1.25 0 1.77-.516 1.77-1.548v-6.4h1.771v6.606c0 1.652-1.146 2.89-3.437 2.89a5.109 5.109 0 01-2.917-.826l.417-1.445zM87.709 22.813h3.645l-1.77-3.717-1.875 3.717zm-.73 1.549l-1.041 2.27h-1.875l4.583-9.29h1.77L95 26.631h-1.875l-1.041-2.27h-5.105zM47.084 6.607a9.774 9.774 0 00-3.646-.826c-1.667 0-2.5.31-2.5 1.032 0 1.858 7.5.31 7.5 4.232 0 1.652-1.563 2.89-4.584 2.89a10.153 10.153 0 01-4.895-1.238l.625-1.445a8.297 8.297 0 004.27 1.135c1.875 0 2.813-.516 2.813-1.342 0-1.96-7.5-.516-7.5-4.129 0-1.548 1.562-2.684 4.27-2.684a8.836 8.836 0 014.376 1.033l-.73 1.342zM55.417 5.677c-1.858-.148-3.486 1.224-3.636 3.066-.006.078-.01.158-.01.237-.02 1.814 1.445 3.3 3.275 3.32a3.44 3.44 0 00.37-.016c1.842.144 3.452-1.217 3.598-3.041.146-1.825-1.23-3.421-3.07-3.566a3.455 3.455 0 00-.527 0m0 8.258C52.396 13.935 50 11.974 50 8.98c.113-2.848 2.534-5.066 5.409-4.954h.008c3.02 0 5.417 1.96 5.417 4.954 0 2.994-2.396 4.955-5.417 4.955M68.02 13.935c-3.124 0-5.52-1.961-5.52-4.955 0-2.993 2.396-4.954 5.52-4.954a7.34 7.34 0 014.376 1.342l-.938 1.341a5.687 5.687 0 00-3.437-1.135c-2.292 0-3.75 1.445-3.75 3.303 0 1.858 1.458 3.303 3.75 3.303a5.093 5.093 0 003.437-1.135l.938 1.342a5.946 5.946 0 01-4.375 1.548M74.48 13.729h1.77v-9.29h-1.77zM78.75 13.73V4.438h8.542v1.548H80.52v2.271h5.312v1.549h-5.312v2.477h7.083v1.548H78.75zM93.959 5.884v7.742h-1.771V5.884h-3.854V4.335h9.375v1.549zM99.27 13.73V4.438h8.542v1.548h-6.77v2.271h5.312v1.549h-5.313v2.477h7.084v1.548H99.27zM118.959 12.284a7.433 7.433 0 002.708-.516V9.084h1.667v3.613a7.865 7.865 0 01-4.48 1.239c-3.126 0-5.52-1.962-5.52-4.955 0-2.994 2.394-4.955 5.52-4.955a7.565 7.565 0 014.375 1.342l-.937 1.342a5.674 5.674 0 00-3.439-1.136c-2.29 0-3.749 1.446-3.749 3.304.03 1.92 1.627 3.453 3.566 3.423.096-.002.193-.008.289-.017M125.73 13.73V4.438h8.541v1.548h-6.77v2.271h5.312v1.549H127.5v2.477h7.084v1.548h-8.855zM138.23 13.73h-1.668V4.438h1.772l6.145 7.02c-.105-1.756-.105-3.2-.105-4.543V4.44h1.668v9.29h-1.771l-6.042-7.02c.105 1.343.105 3.82.105 4.543v2.477h-.105zM148.646 13.73V4.438h8.542v1.548h-6.771v2.271h5.312v1.549h-5.312v2.477h7.083v1.548h-8.854zM165.208 8.774a1.415 1.415 0 001.668-1.342 1.347 1.347 0 00-1.563-1.445h-4.272v2.787h4.167zm-1.249 1.548h-2.813v3.407h-1.771v-9.29h6.041c1.64-.143 3.086 1.059 3.23 2.683.143 1.625-1.07 3.058-2.709 3.2l2.813 3.51h-2.187l-2.604-3.51zM173.125 9.91h3.646l-1.77-3.717-1.876 3.717zm-.729 1.548l-1.042 2.27h-1.875l4.583-9.29h1.876l4.583 9.29h-1.875l-1.042-2.27h-5.208zM181.667 13.73V4.438h1.77v7.742h6.25v1.548zM190.937 13.73V4.438h8.542v1.548h-6.77v2.271h5.312v1.549h-5.313v2.477h7.083v1.548h-8.854z"/></g></g></svg>