
<svg width="175px" height="57px" viewBox="0 0 175 57" version="1.1" xmlns="http://www.w3.org/2000/svg" xmlns:xlink="http://www.w3.org/1999/xlink">
    <!-- Generator: Sketch 44.1 (41455) - http://www.bohemiancoding.com/sketch -->
    <desc>Created with Sketch.</desc>
    <defs>
        <polygon id="path-1" points="57.5684353 33.3363636 0.0109172834 33.3363636 0.0109172834 0.00673636364 57.5684353 0.00673636364"></polygon>
    </defs>
    <g id="12.1-13-App-detail" stroke="none" stroke-width="1" fill="none" fill-rule="evenodd">
        <g id="12.5-App-Detail---Threat-Protection" transform="translate(-814.000000, -559.000000)">
            <g id="---Header" transform="translate(75.000000, 315.000000)">
                <g id="---Quote" transform="translate(660.000000, 185.000000)">
                    <g id="::-bloc">
                        <g id="logo" transform="translate(79.000000, 59.000000)">
                            <g id="Group-3" transform="translate(143.040474, 0.131791)" fill="#FFFFFF">
                                <path d="M6.94333662,15.8221464 C6.22692498,18.4094282 5.48097236,20.99671 4.73415597,23.5841645 C6.65673741,21.7152555 8.66465943,19.9031736 10.644077,18.09351 C11.9640918,19.9622464 13.2260612,21.8584464 14.6042942,23.6978191 C14.7475074,21.1400736 14.9190523,18.5821555 15.0043929,16.0517009 C17.3863277,15.8516827 19.7672261,15.7357827 22.1493337,15.4765191 C20.3982971,14.0691373 18.6201382,12.7185827 16.8418065,11.3089555 C18.4767522,9.18320091 20.1118707,7.05502818 21.8036525,4.98610091 C19.395459,5.67493727 17.0703603,6.62303727 14.689462,7.42777364 C14.3449901,4.95656455 14.0015548,2.51230091 13.6854146,0.0409190909 C12.4802813,2.45564636 11.3615252,4.89973727 10.1859329,7.31429182 C8.14846989,6.30711909 6.05417078,5.44538273 4.01774432,4.43821 C4.90691017,6.65257364 5.85291214,8.83757364 6.77161895,11.0498645 C4.53393386,12.3434191 2.26808983,13.6371464 0.0302319842,14.9035827 C2.32492596,15.2195009 4.6488154,15.5333464 6.94333662,15.8221464" id="Fill-1"></path>
                            </g>
                            <path d="M81.1031367,44.4670818 C80.7591831,46.3928182 80.0412167,48.3753818 78.5494842,49.6988182 C76.7131071,51.3948273 74.0457823,51.7699909 71.6643657,51.4811909 C70.0003973,51.338 68.2222384,50.5332636 67.4469176,48.9529818 C66.5009156,47.1409 66.8163648,44.9854364 67.3035316,43.0871636 C67.9636254,40.4155909 69.6275938,37.9145 72.1233736,36.6480636 C75.451656,34.9249364 79.3237685,34.9520545 82.9676728,35.3569273 C82.30827,38.4012455 81.7335168,41.4500545 81.1031367,44.4670818 M85.7795928,21.7879909 C85.1763351,24.9209182 84.5452641,28.0835545 83.9432157,31.2461909 C79.0081466,31.1005818 73.8149827,30.7573727 69.1967448,32.8558364 C65.324114,34.4656545 62.1979541,37.8576727 61.1070114,41.9388727 C60.0746323,45.2719909 60.1895138,49.2098273 62.3980035,52.0563727 C64.5498297,54.7574818 68.0493115,55.8783091 71.377421,56.0512091 C75.1356885,56.2239364 79.1805553,55.6487545 82.2503973,53.3205636 C85.1473124,51.1946364 86.754963,47.6865455 87.4430429,44.2375273 C88.906271,36.6209455 90.3411673,29.0043636 91.7748544,21.3582455 C89.7952641,21.5014364 87.7873421,21.6173364 85.7795928,21.7879909" id="Fill-4" fill="#FFFFFF"></path>
                            <g id="Group-8" transform="translate(90.177690, 23.622700)">
                                <mask id="mask-2" fill="white">
                                    <use xlink:href="#path-1"></use>
                                </mask>
                                <g id="Clip-7"></g>
                                <path d="M12.3847483,12.4821364 C14.4211747,11.5613273 16.8019003,11.1885818 19.0110809,11.7613455 C20.04346,12.0206091 20.9904985,12.8845909 21.0475074,14.0328818 C21.3056022,15.8425455 19.7285291,17.2521727 18.178924,17.7978182 C14.6212241,18.9777182 10.776925,18.6892636 7.16377098,18.0866182 C8.19511352,15.6993545 10.0028134,13.5734273 12.3847483,12.4821364 M57.5684353,0.00673636364 C52.4338351,6.07067273 46.9830948,11.9342455 40.9297878,17.1088091 L41.073001,16.9657909 C38.4898075,14.1192455 36.0237414,11.1293364 33.7281836,8.02577273 C31.8636476,8.05306364 29.9706071,8.02577273 28.1058983,8.02577273 C30.8025913,12.3662364 33.7566881,16.5633364 36.9697433,20.5284636 C32.4660415,24.2094545 27.6465449,27.4560364 22.625617,30.3891182 C18.3233465,30.8484 13.6456811,30.9643 9.71638697,28.8635909 C7.22043435,27.4855727 6.01547384,24.5255455 6.30310958,21.7651909 C11.2659921,22.6564636 16.5439783,22.8566545 21.3351431,21.0469909 C23.3430652,20.2419091 25.3226555,18.9483545 26.3263574,16.9657909 C27.4167818,14.6944273 27.1586871,11.6181545 25.1794423,9.89260909 C23.2007157,8.19642727 20.4459773,7.79621818 17.9208292,7.73714545 C13.1305281,7.62349091 8.10977295,9.03087273 4.61011846,12.4228909 C1.85641658,14.9512727 0.220261599,18.6027273 0.0485439289,22.3405455 C-0.152714709,24.6687364 0.449851925,27.0832909 1.94175716,28.8931273 C3.74945706,31.2803909 6.6748766,32.6012364 9.57317374,33.0606909 C13.9913623,33.8086 18.7529862,33.0606909 22.482231,30.5027727 C28.8515054,30.4459455 35.0481984,28.1472909 40.2976802,24.5823727 C42.1338845,26.8535636 44.1418065,28.9794909 46.2077739,31.0779545 C46.7522952,31.5964818 47.1833169,32.1987818 47.8427196,32.6012364 C50.339536,32.6582364 52.8634748,32.5717 55.360464,32.6287 C51.7732231,28.8067636 48.1884008,24.9848273 44.6590326,21.1036455 C50.7418806,15.4128 55.2445459,8.02577273 57.5684353,0.00673636364" id="Fill-6" fill="#FFFFFF" mask="url(#mask-2)"></path>
                            </g>
                            <path d="M51.3244595,42.2253409 C51.0656737,44.3535136 50.2915622,46.4792682 48.9425247,48.17545 C47.0778159,50.5900045 44.0084921,52.0564591 40.9683638,51.9403864 C39.3037043,51.9403864 37.5250271,51.5381045 36.3487438,50.3036227 C35.5164141,49.4418864 35.1156244,48.2618136 35.057579,47.0841591 C34.8570114,42.1389773 38.127421,36.9666591 43.1193263,35.8161227 C45.299657,35.2977682 47.824805,35.5000318 49.6024457,36.9666591 C51.0656737,38.2602136 51.5542226,40.3566045 51.3244595,42.2253409 M53.7051851,33.1991318 C50.7218929,31.4462955 47.0778159,31.1870318 43.7220656,31.5326591 C39.1888228,31.9919409 34.7421298,34.0904045 31.8156737,37.6554955 C29.4637981,40.5588682 28.1726333,44.3808045 28.5461278,48.11845 C28.8037043,50.7627318 30.4096273,53.1772864 32.6763351,54.4983045 C35.602964,56.2513136 39.1319867,56.5104045 42.4310735,56.2513136 C47.4513105,55.8215682 52.4432157,53.3501864 55.3403036,49.1257955 C57.262885,46.3089591 58.3237685,42.7438682 57.8649334,39.3219682 C57.5216708,36.7642227 55.9150568,34.4655682 53.7051851,33.1991318" id="Fill-9" fill="#FFFFFF"></path>
                            <path d="M161.660577,51.3948964 C159.393351,52.3157055 156.753322,52.4588964 154.458801,51.5380873 C152.880691,50.9356145 151.763144,49.35326 151.619758,47.6593236 C151.159368,42.4550509 154.602187,36.9073964 159.853741,35.7594509 C161.9185,35.2977509 164.299398,35.4138236 166.050434,36.7073782 C167.426076,37.7123055 168.11502,39.4083145 168.143524,41.07496 C168.201397,45.3584236 165.704753,49.7577873 161.660577,51.3948964 M174.684689,39.00586 C174.225336,36.21856 172.217241,33.8040055 169.66497,32.6534691 C166.451742,31.1301873 162.779334,31.0438236 159.336515,31.5326418 C154.287083,32.2807236 149.467586,35.1839236 146.885429,39.6675782 C145.278988,42.5141236 144.446486,45.9040691 145.10727,49.1530691 C145.62346,51.7973509 147.544832,54.0391782 149.983776,55.1895418 C153.139995,56.6832873 156.753322,56.8560145 160.167463,56.3969055 C165.016846,55.7078964 169.750138,53.0909055 172.4185,48.9233418 C174.283208,46.0201418 175.288292,42.42776 174.684689,39.00586" id="Fill-11" fill="#FFFFFF"></path>
                            <path d="M14.8614215,36.1321618 C19.1068559,35.1545255 23.5246989,35.4433255 27.799156,35.7594164 C28.1726505,34.60888 28.6029812,33.48788 29.0333119,32.3375164 C26.0783514,31.8189891 23.0375321,31.6189709 20.0250444,31.6485073 C17.2996742,31.6189709 14.5457996,31.9077709 11.9059427,32.6238982 C10.041234,33.1422527 8.26238401,33.9766982 6.77116979,35.26818 C5.04984699,36.8232436 4.24671273,39.4379891 5.10668312,41.6501073 C5.56603653,42.9142982 6.77116979,43.7487436 8.00428924,44.2102709 C10.844541,45.2720255 13.9434057,45.0720073 16.8404936,45.96328 C17.9307453,46.2791982 19.0495015,47.2841255 18.7055479,48.5505618 C18.3894077,50.4762982 16.4390128,51.3948618 14.7175173,51.7700255 C10.1555972,52.7179527 5.48017769,51.99958 0.918257651,51.4243982 C0.63165844,52.6315891 0.28701382,53.8391255 6.91016782e-05,55.0463164 C5.27961007,56.3968709 10.8735637,56.85598 16.2957996,55.9944164 C18.9062883,55.5054255 21.6599901,54.6143255 23.5246989,52.6022255 C25.1608539,50.8490436 25.8197384,48.2914709 25.4472804,45.96328 C25.21769,44.4671164 24.0704294,43.2894618 22.7219102,42.6868164 C19.8522902,41.3341891 16.5822261,41.4500891 13.5414067,40.6156436 C12.5658638,40.3292618 11.504462,39.6677164 11.5619891,38.51718 C11.9059427,36.9937255 13.5704294,36.4776164 14.8614215,36.1321618" id="Fill-13" fill="#FFFFFF"></path>
                        </g>
                    </g>
                </g>
            </g>
        </g>
    </g>
</svg>