<?xml version="1.0" encoding="UTF-8"?>
<svg width="118px" height="38px" viewBox="0 0 118 38" version="1.1" xmlns="http://www.w3.org/2000/svg" xmlns:xlink="http://www.w3.org/1999/xlink">
    <!-- Generator: Sketch 57.1 (83088) - https://sketch.com -->
    <title>Sodexo_logo</title>
    <desc>Created with Sketch.</desc>
    <g id="Page-1" stroke="none" stroke-width="1" fill="none" fill-rule="evenodd">
        <g id="Sodexo" transform="translate(-790.000000, -399.000000)" fill-rule="nonzero">
            <g id="Group-6" transform="translate(734.000000, 350.000000)">
                <g id="Sodexo_logo" transform="translate(56.000000, 49.000000)">
                    <path d="M55.7376586,23.4510229 L54.433945,29.9617912 C53.8600881,32.6015327 52.2700032,34.3632176 49.0218619,34.3632176 C45.2934637,34.3632176 44.3095499,32.0510759 45.1274352,28.7973632 C46.2851775,24.181994 50.0503471,22.8069661 55.7376586,23.4510229 L55.7376586,23.4510229 Z M61.6088272,14.1422846 L57.6453149,14.3952273 L56.391744,20.7700528 C54.8763162,20.7165671 54.3994021,20.6686528 52.6176602,20.6686528 C47.0395486,20.6686528 42.1712367,23.0131088 40.8853516,28.5132204 C39.726495,33.4717895 42.5434079,37.3205304 48.6864621,37.3205304 C54.9788304,37.3205304 57.7166291,34.0378463 58.7005429,29.4213629 L61.6088272,14.1422846 Z" id="path5955" fill="#2B3797"></path>
                    <path d="M18.6085624,23.7288097 C12.7964509,23.1995243 7.79665336,23.6820098 7.71531054,25.6554088 C7.58939631,28.6182931 17.2948202,26.0331515 17.1076203,31.4842345 C16.8346204,39.4926021 3.33951266,37.6506887 0,36.6311178 L0.606171134,34.2543475 C6.36368262,35.1680613 12.4376511,35.2438327 12.5713653,32.06812 C12.7139938,28.6929502 2.9684557,31.7271487 3.19688416,26.2615799 C3.36736979,22.1899819 9.45805255,19.9948401 19.427562,21.4590108 L18.6085624,23.7288097 Z" id="path5959" fill="#2B3797"></path>
                    <path d="M34.2799849,29.1765589 C33.4409282,32.5194144 30.7900438,34.6187276 27.6332739,34.6187276 C24.3327612,34.6187276 22.8474191,32.7055 23.7321615,29.1765589 C24.5723325,25.8337033 27.2544169,23.589533 30.4100725,23.589533 C33.5634996,23.589533 35.1190417,25.8337033 34.2799849,29.1765589 M30.9181866,20.8528486 C25.1383894,20.8528486 20.4918202,24.1968184 19.3496779,29.1765589 C18.2041928,34.1596422 21.3163912,37.5024977 27.0939599,37.5024977 C32.8715285,37.5024977 37.5192119,34.1596422 38.6624685,29.1765589 C39.8079537,24.1968184 36.6968695,20.8528486 30.9181866,20.8528486" id="path5963" fill="#2B3797"></path>
                    <path d="M97.6996325,37.4179279 L92.6753207,37.4179279 C89.628865,34.5531007 83.8000393,27.9710182 79.5089271,21.0056216 L83.1960967,21.0056216 C87.2710376,26.6283046 97.6996325,37.4179279 97.6996325,37.4179279" id="path5967" fill="#2B3797"></path>
                    <polygon id="path5971" fill="#2B3797" points="102.964853 4.81928337 105.27588 -5.68434189e-14 105.935537 4.89951191 110.648963 3.25036985 107.355136 7.47351066 110.927535 10.241395 106.159508 10.6102234 105.896537 15.7047352 103.245653 11.9395656 99.3489975 15.532021 100.809825 10.4698235 96.2145133 9.84693807 100.687254 7.29856788 98.8520263 2.93837"></polygon>
                    <path d="M112.76254,29.2270404 C111.910111,32.6222674 109.217998,34.7550092 106.0122,34.7550092 C102.66043,34.7550092 101.149459,32.8116958 102.049802,29.2270404 C102.90223,25.8318135 105.625543,23.551986 108.830227,23.551986 C112.03714,23.551986 113.616082,25.8318135 112.76254,29.2270404 M109.347255,20.769616 C103.478315,20.769616 98.7593177,24.1670715 97.596004,29.2270404 C96.4338046,34.2881237 99.5950316,37.6844649 105.463972,37.6844649 C111.334026,37.6844649 116.054138,34.2881237 117.215223,29.2270404 C118.378537,24.1670715 115.21731,20.769616 109.347255,20.769616" id="path5975" fill="#2B3797"></path>
                    <path d="M75.7013077,36.0189295 C85.1905602,30.7483606 93.4329276,22.6486217 99.2795819,15.6464537 C95.0764983,28.8017044 84.9587889,35.8818724 75.7013077,36.0189295" id="path5979" fill="#FFFFFF"></path>
                    <path d="M71.9453822,23.2942385 C73.7627813,23.2942385 74.7522665,23.9538953 74.7522665,25.2141519 C74.7522665,28.559236 68.2303554,28.3386075 65.3543854,27.7524935 C66.3661563,25.2486947 68.6504409,23.2942385 71.9453822,23.2942385 M78.6611789,25.0314091 C78.6611789,22.6056103 76.7278942,20.822754 72.3409534,20.822754 C65.2262426,20.822754 60.6030734,25.441466 60.6030734,31.1588633 C60.6030734,34.8516043 63.6684719,37.9203457 69.2677549,37.9203457 C73.1254102,37.9203457 75.7016375,36.0193752 75.7016375,36.0193752 C70.792097,36.5453178 64.7627,36.0193752 64.7627,30.7666349 C64.7627,30.5582636 64.7738428,30.3498922 64.7905571,30.1415209 C71.4896396,31.5321488 78.6611789,29.8495782 78.6611789,25.0314091" id="path5983" fill="#2B3797"></path>
                </g>
            </g>
        </g>
    </g>
</svg>