<svg xmlns="http://www.w3.org/2000/svg" viewBox="0 344.2 612 103.6"><path d="M107.458 348.852h11.8v31.1h-11.8c-5.9-19.3-35-22.2-53.2-22.2-16 0-27.9 4.2-27.9 12.3 0 9.4 22.5 9.6 40.6 12.1 23.4 3.2 57.5 2.6 57.5 33.2 0 24.1-32 32.3-52.1 32.4-35.9.1-47.1-10.3-55.3-10.3-2.3 0-3.5 2.2-3.5 6.6h-11.8v-34.9h11.7c4.4 21 36.8 25.6 50.4 25.6 9.7 0 34.5-1.9 34.5-13.4 0-10.9-15.9-10.3-35.3-13.1-21.2-3-63.1-3.7-63.1-31.9 0-21.8 24.4-32.2 51.8-32.2 31.8 0 47.6 10.3 52.3 10.3 2.2.1 3.4-1.9 3.4-5.6zm110.2-4.6c-43.1 0-71.6 22.2-71.6 51.8s28.5 51.8 71.6 51.8 71.6-22.2 71.6-51.8-28.5-51.8-71.6-51.8zm0 13.8c24.7 0 41.1 16.3 41.1 38s-16.4 38-41.1 38c-24.7 0-41.1-16.3-41.1-38 .1-21.8 16.4-38 41.1-38zm216 84h-18.9l-75.6-64.7v48.1c0 3.2 1.6 4.8 4.8 4.8h13.8v11.7h-56.5v-11.7h13.8c3.2 0 4.8-1.6 4.8-4.8v-58.9c0-3.2-1.6-4.8-4.8-4.8h-13.8v-11.7h47.4l65.8 56.3v-39.7c0-3.2-1.6-4.8-4.8-4.8h-13.9v-11.7h56.5v11.7h-13.8c-3.2 0-4.8 1.6-4.8 4.8v75.4zm122.8-92.1h55.6v11.7h-10.9c-4.6 0-8.5 1.6-11.6 4.8l-37.2 39.7v19.2c0 3.2 1.6 4.8 4.8 4.8h13.8v11.7h-67.1v-11.7h13.8c3.2 0 4.8-1.6 4.8-4.8v-18l-38.2-40.9c-3.1-3.2-7-4.8-11.6-4.8h-10.9v-11.7h68.3v11.7h-6.8c-1.7 0-2.7.6-3.2 1.7-.5 1.2-.3 2.2.6 3.1l22.5 24.1 22.5-24.1c.8-.9 1-2 .6-3.1-.5-1.2-1.5-1.7-3.2-1.7h-6.8v-11.7h.2z"/></svg>