<svg xmlns="http://www.w3.org/2000/svg" width="188" height="33" viewBox="0 0 188 33">
  <g>
    <path d="M185.035,26.442 C184.003529,26.422683 183.042035,26.9619115 182.520643,27.8521112 C181.99925,28.742311 181.99925,29.844689 182.520643,30.7348888 C183.042035,31.6250885 184.003529,32.164317 185.035,32.145 C185.791461,32.1442085 186.516507,31.8423965 187.050091,31.3061857 C187.583675,30.7699749 187.881923,30.0434558 187.879,29.287 C187.879265,28.5325511 187.579748,27.8089116 187.046365,27.2753418 C186.512983,26.7417721 185.789449,26.442 185.035,26.442 L185.035,26.442 Z M185.035,31.802 C184.368377,31.8028037 183.728928,31.5378648 183.258211,31.0658341 C182.787494,30.5938035 182.524338,29.9536185 182.527,29.287 C182.527264,28.6225608 182.791807,27.9855135 183.262293,27.516341 C183.732778,27.0471685 184.370563,26.7844066 185.035,26.786 C185.698215,26.7859999 186.334251,27.0495293 186.803121,27.5185866 C187.27199,27.9876438 187.535265,28.6237855 187.535,29.287 C187.538191,29.952394 187.276304,30.5916731 186.807203,31.0635884 C186.338102,31.5355036 185.700401,31.8012101 185.035,31.802 L185.035,31.802 Z"/>
    <path d="M186.498,28.54 C186.498,28.271 186.379,27.988 186.141,27.853 C185.901,27.711 185.633,27.697 185.364,27.697 L183.975,27.697 L183.975,30.884 L184.364,30.884 L184.364,29.414 L185.081,29.414 L185.991,30.884 L186.454,30.884 L185.491,29.414 C186.059,29.398 186.498,29.167 186.498,28.54 L186.498,28.54 Z M184.961,29.107 L184.363,29.107 L184.363,27.98 L185.273,27.98 C185.669,27.98 186.103,28.04 186.103,28.533 C186.104,29.182 185.408,29.107 184.961,29.107 Z M168.32,13.132 L174.15,6.907 C174.488,6.45 174.656,6.13 174.656,5.856 C174.656,5.399 174.263,5.216 173.027,5.216 L171.556,5.216 L171.556,1.286 L187.478,1.286 L187.478,5.216 L185.386,5.216 C182.97,5.216 182.521,5.581 179.15,9.831 L169.927,19.791 L169.927,25.869 C169.927,27.424 170.712,27.971 172.96,27.971 L176.442,27.971 L176.442,31.763 L154.141,31.763 L154.141,27.971 L157.623,27.971 C159.869,27.971 160.656,27.424 160.656,25.869 L160.656,19.791 L149.793,7.774 C147.998,5.673 148.246,5.216 143.248,5.216 L143.248,1.286 L163.416,1.286 L163.416,5.216 L161.98,5.216 C160.519,5.216 159.9,5.49 159.9,6.038 C159.9,6.496 160.349,6.861 160.63,7.226 L166.126,13.216 C166.779,13.895 167.576,13.983 168.32,13.132 L168.32,13.132 Z M33.003,1.285 L37.868,1.285 L37.868,12.251 L33.375,12.251 C32.977,10.059 31.605,9.206 30.354,8.056 C28.097,5.982 23.209,4.255 19.098,4.255 C13.792,4.255 9.314,5.901 9.314,8.321 C9.314,15.039 39.659,9.693 39.659,22.395 C39.659,29.02 33.159,32.721 21.486,32.721 C17.445,32.721 11.33,31.467 7.722,29.551 C6.591,28.898 6.111,30.169 5.899,31.762 L0.911,31.762 L0.911,20.43 L5.423,20.43 C6.418,23.309 7.789,23.902 9.05,25.045 C11.238,27.056 16.446,28.519 21.222,28.472 C28.423,28.401 30.899,26.827 30.899,24.542 C30.899,22.258 28.45,21.709 20.559,20.476 L13.859,19.379 C6.298,18.236 0.793,16.546 0.793,10.515 C0.793,4.255 7.757,0.325 18.768,0.325 C23.408,0.325 27.29,0.945 31.016,3.051 C32.048,3.722 33.016,3.802 33.003,1.285 Z M127.947,19.645 L128.043,7.457 C128.043,5.858 127.211,5.31 124.834,5.31 L122.041,5.31 L122.041,1.518 L139.811,1.518 L139.811,5.31 L137.495,5.31 C135.116,5.31 134.284,5.859 134.284,7.457 L134.284,31.994 L127.329,31.939 L104.805,10.61 L104.805,26.1 C104.805,27.654 105.637,28.247 108.014,28.247 L111.106,28.247 L111.106,31.994 L92.651,31.994 L92.651,28.247 L95.709,28.247 C98.086,28.247 98.918,27.653 98.918,26.1 L98.918,7.457 C98.918,5.858 98.086,5.31 95.709,5.31 L92.651,5.31 L92.651,1.518 L108.607,1.518 L127.947,19.645 L127.947,19.645 Z M68.424,0.095 C54.262,0.095 45.397,6.356 45.397,16.407 C45.397,26.278 54.139,32.491 67.992,32.491 C82.706,32.491 91.265,26.369 91.265,15.905 C91.266,6.493 82.03,0.095 68.424,0.095 Z M68.102,28.517 C60.263,28.517 55.757,23.993 55.757,16.179 C55.757,8.549 60.459,4.025 68.494,4.025 C76.202,4.025 80.708,8.641 80.708,16.5 C80.708,24.176 76.136,28.517 68.102,28.517 Z"/>
  </g>
</svg>
