<svg xmlns="http://www.w3.org/2000/svg" viewBox="0 0 300 88.993" enable-background="new 0 0 300 88.993"><path d="M32.012 53.901c0 1.994-.424 3.835-1.266 5.525-.844 1.692-2.021 3.125-3.528 4.301-1.507 1.178-3.3 2.099-5.379 2.763-2.08.663-4.357.992-6.828.992-2.956 0-5.607-.403-7.96-1.214-2.351-.811-4.7-2.149-7.051-4.014l3.888-6.321c1.868 1.564 3.555 2.711 5.062 3.434 1.505.725 3.044 1.084 4.613 1.084 1.928 0 3.479-.495 4.655-1.491 1.176-.996 1.765-2.339 1.765-4.026 0-.725-.107-1.406-.317-2.038-.21-.633-.602-1.283-1.175-1.947-.571-.662-1.353-1.387-2.347-2.17-.994-.784-2.273-1.751-3.837-2.896-1.204-.845-2.378-1.719-3.521-2.624-1.145-.906-2.184-1.872-3.117-2.898-.933-1.025-1.685-2.17-2.259-3.437-.572-1.271-.856-2.717-.856-4.345 0-1.87.39-3.575 1.172-5.115.78-1.538 1.847-2.849 3.203-3.935 1.353-1.087 2.974-1.931 4.87-2.534 1.894-.605 3.953-.907 6.177-.907 2.349 0 4.621.315 6.823.944 2.198.63 4.233 1.542 6.103 2.74l-3.526 5.677c-2.411-1.687-4.942-2.531-7.596-2.531-1.625 0-2.969.424-4.023 1.268-1.055.845-1.582 1.899-1.582 3.169 0 1.208.465 2.296 1.398 3.261.927.966 2.535 2.325 4.82 4.073 2.3 1.692 4.206 3.17 5.718 4.438 1.514 1.268 2.708 2.462 3.585 3.576.879 1.118 1.484 2.252 1.816 3.398.33 1.146.5 2.413.5 3.8M72 43.248c0-4.948-1.002-8.856-3.007-11.724-2.002-2.866-4.733-4.301-8.193-4.301-3.642 0-6.525 1.523-8.649 4.573-2.125 3.049-3.188 7.17-3.188 12.358 0 5.071 1.047 9.055 3.14 11.951 2.095 2.9 4.963 4.347 8.606 4.347 2.185 0 3.988-.557 5.416-1.674 1.426-1.117 2.579-2.534 3.46-4.254.88-1.72 1.502-3.593 1.867-5.614.364-2.025.548-3.91.548-5.662m12.64-.458c0 3.559-.544 6.832-1.635 9.816-1.089 2.984-2.6 5.594-4.537 7.823-1.938 2.232-4.234 3.966-6.898 5.202-2.661 1.233-5.535 1.851-8.62 1.851-1.392 0-2.693-.118-3.903-.358-1.21-.244-2.358-.651-3.448-1.223-1.088-.573-2.163-1.313-3.221-2.222-1.059-.905-2.163-2.023-3.312-3.351v28.664h-11.621v-67.82h11.622l.063 6.601c2.115-2.652 4.409-4.597 6.884-5.833 2.476-1.235 5.347-1.853 8.607-1.853 2.96 0 5.66.559 8.106 1.673 2.445 1.115 4.559 2.668 6.342 4.658 1.779 1.993 3.154 4.372 4.122 7.148.964 2.774 1.449 5.849 1.449 9.224"/><path d="M89.812 0h11.927v66.367h-11.927zM140.753 66.385l-.03-6.057c-2.295 2.536-4.65 4.362-7.065 5.48-2.417 1.117-5.225 1.673-8.426 1.673-3.562 0-6.566-.707-9.013-2.123-2.446-1.42-4.212-3.519-5.298-6.298-.303-.662-.53-1.358-.679-2.083-.152-.725-.288-1.554-.41-2.49-.12-.938-.196-2.009-.225-3.217-.032-1.206-.047-2.688-.047-4.439v-25.725h11.927v25.904c0 2.298.106 4.047.317 5.256.212 1.206.591 2.296 1.138 3.258 1.392 2.54 3.848 3.807 7.36 3.807 4.484 0 7.574-1.87 9.268-5.615.424-.967.727-2.038.91-3.217.183-1.176.273-2.851.273-5.025v-24.368h11.926v45.279h-11.926zM192.194 66.366v-25.838c0-2.288-.105-4.036-.319-5.239-.209-1.203-.591-2.29-1.132-3.253-1.393-2.528-3.847-3.794-7.361-3.794-2.242 0-4.167.467-5.772 1.4-1.604.933-2.803 2.304-3.587 4.109-.428 1.025-.715 2.124-.866 3.297-.15 1.175-.226 2.816-.226 4.924v24.394h-12.029v-45.178h12.029l.022 6.056c2.297-2.534 4.649-4.364 7.067-5.479 2.415-1.119 5.226-1.677 8.426-1.677 3.564 0 6.568.739 9.017 2.215 2.445 1.477 4.212 3.569 5.299 6.28.241.665.455 1.342.634 2.036.184.694.332 1.491.453 2.394.123.905.196 1.974.227 3.209.03 1.236.048 2.727.048 4.475v25.67h-11.93zM242.385 67.281l-17.992-24.954v24.05h-12.028v-66.364h12.028v38.967h1.266l16.001-18.533 9.043 3.887-15.373 16.456 18.178 22.603z"/><path fill="#ADAFB2" d="M263.833 65.141v-7.946l28.028-13.817-28.028-13.636v-8.126l36.167 18.15v7.404zM267.353 9.899c2.219 0 3.987 1.805 3.987 4.061 0 2.291-1.769 4.077-4.008 4.077-2.219 0-4.023-1.786-4.023-4.077 0-2.255 1.804-4.061 4.023-4.061h.021zm-.02.631c-1.786 0-3.248 1.534-3.248 3.429 0 1.93 1.462 3.446 3.269 3.446 1.804.018 3.245-1.516 3.245-3.428 0-1.913-1.441-3.447-3.245-3.447h-.021zm-.757 5.793h-.723v-4.53c.38-.054.74-.108 1.281-.108.687 0 1.137.144 1.408.344.27.199.415.504.415.938 0 .595-.398.956-.885 1.101v.035c.398.073.669.434.76 1.101.107.705.216.975.286 1.12h-.757c-.108-.145-.217-.56-.308-1.155-.108-.577-.398-.795-.974-.795h-.505v1.949zm0-2.508h.523c.596 0 1.102-.216 1.102-.776 0-.398-.289-.793-1.102-.793-.234 0-.398.018-.523.036v1.533z"/></svg>