<svg width="121" height="46" viewBox="0 0 121 46" xmlns="http://www.w3.org/2000/svg" xmlns:xlink="http://www.w3.org/1999/xlink"><defs><path id="a" d="M0 .174h12.229v14.28H0z"/><path id="c" d="M.224.403h28.565v26.375H.224z"/></defs><g fill="none" fill-rule="evenodd"><path d="M23.504 19.836h-1.248c-.834 0-1.181-.533-1.181-1.301v-5.51h2.429v-1.554h-2.429v-2.93h-1.75v9.968c0 2.102 1.054 3 2.928 3h1.25v-1.673zM6.67 16.764v.073c0 3.568 2.915 4.846 5.644 4.846 2.666 0 5.35-1.277 5.35-4.1 0-2.743-2.253-3.484-4.367-3.965l-.737-.16c-1.895-.415-3.535-.764-3.535-2.174 0-2.008 2.065-2.237 2.95-2.237 1.952 0 3.086.94 3.276 2.698l.007.065h1.843l-.002-.076c-.106-2.763-1.945-4.341-5.048-4.341-2.47 0-4.968 1.24-4.968 4.023 0 2.481 2.075 3.14 4.387 3.645l.455.1c1.953.415 3.797.81 3.797 2.478 0 2.071-2.098 2.379-3.352 2.379-1.055 0-2.01-.27-2.686-.759-.764-.555-1.167-1.389-1.167-2.422v-.073H6.67zM34.03 19.892l-.097.036c-.218.08-.363.09-.466.09-.421 0-.44-.229-.44-1.02v-5.026c0-1.859-1.22-2.76-3.736-2.76-1.525 0-4.099.431-4.211 3.34l-.003.078h1.746l.003-.069c.065-1.214.82-1.79 2.371-1.79 1.43 0 2.1.492 2.1 1.559 0 .888-.898 1.014-2.137 1.188-.354.05-.714.101-1.096.174-1.702.328-3.367.836-3.367 3.08 0 1.756 1.238 2.818 3.307 2.818 1.39 0 2.52-.493 3.384-1.426.067 1.153.795 1.426 1.416 1.426.503 0 .881-.1 1.192-.286l.035-.022v-1.39zm-5.668.126c-.545 0-1.818-.133-1.818-1.36 0-1.183.967-1.526 1.906-1.693.286-.049.594-.09.885-.125.752-.098 1.463-.192 1.944-.476 0 0 .04-.023 0 0v1.521c0 .825-.794 2.133-2.917 2.133zM35.577 11.471v9.913h1.754v-5.587c0-1.867 1.05-2.991 2.816-2.991 1.176 0 1.913.734 1.913 1.897v6.681h1.753v-6.492c0-2.457-1.128-3.646-3.439-3.646-1.409 0-2.459.55-3.143 1.646v-1.42h-1.654zM53.11 7.746v4.932c-.74-1.048-2.08-1.434-3.116-1.434-2.76 0-4.538 2.02-4.538 5.155 0 1.44.408 2.734 1.14 3.652.812 1.02 2 1.571 3.435 1.571 1.434 0 2.54-.528 3.08-1.431v1.193h1.754V7.746H53.11zm-2.854 12.305c-2.037 0-2.954-1.771-2.954-3.538 0-1.112.278-3.708 2.862-3.708 2.786 0 3.004 2.782 3.004 3.632 0 1.753-.763 3.614-2.912 3.614zM65.962 19.925l-.096.036c-.22.08-.363.089-.466.089-.43 0-.448-.228-.448-1.019v-5.026c0-1.86-1.22-2.76-3.727-2.76-1.532 0-4.103.43-4.217 3.341l-.003.076h1.753l.003-.068c.064-1.214.814-1.79 2.367-1.79 1.43 0 2.096.505 2.096 1.56 0 .887-.894 1.013-2.131 1.187-.358.05-.717.101-1.098.175-1.7.327-3.363.834-3.363 3.079 0 1.756 1.231 2.817 3.302 2.817 1.391 0 2.522-.492 3.38-1.425.067 1.153.794 1.425 1.415 1.425.51 0 .889-.098 1.198-.285l.035-.021v-1.391zm-5.67.125c-.546 0-1.811-.132-1.811-1.358 0-1.183.958-1.526 1.898-1.693.286-.05.586-.091.888-.126.753-.098 1.463-.192 1.937-.475 0 0 .04-.024 0 0v1.52c0 .825-.787 2.132-2.912 2.132zM72.771 11.247l-.07-.001c-1.636-.053-2.735.601-3.56 2.139V11.47H67.49v9.913h1.746v-4.42c0-2.638 1.11-3.877 3.463-3.877h.072v-1.84zM80.67 7.746v4.932c-.744-1.048-2.078-1.434-3.129-1.434-2.744 0-4.531 2.02-4.531 5.155 0 1.44.404 2.734 1.149 3.652.81 1.02 1.993 1.571 3.43 1.571 1.436 0 2.542-.53 3.08-1.432v1.194h1.758V7.746h-1.758zm-2.851 12.305c-2.045 0-2.956-1.771-2.956-3.538 0-1.112.278-3.708 2.863-3.708 2.78 0 2.998 2.782 2.998 3.632 0 1.753-.764 3.614-2.905 3.614z" fill="#FFF"/><g transform="translate(0 26.257)"><mask id="b" fill="#fff"><use xlink:href="#a"/></mask><path d="M10.287 8.906l-.006.065C10.1 11.327 8.64 12.8 6.465 12.8c-1.502 0-2.667-.547-3.45-1.646-.7-.964-1.076-2.323-1.076-3.938 0-1.471.386-2.796 1.072-3.746.786-1.075 1.976-1.64 3.435-1.64 1.974 0 3.355 1.048 3.703 2.817l.012.059h1.94l-.012-.082c-.198-1.396-.858-2.54-1.906-3.32C9.197.564 7.908.173 6.465.173c-1.991 0-3.654.729-4.814 2.106C.59 3.55 0 5.358 0 7.348c0 4.382 2.421 7.105 6.314 7.105 1.673 0 3.098-.504 4.117-1.456 1.002-.94 1.621-2.334 1.79-4.012l.008-.079h-1.942z" fill="#FFF" mask="url(#b)"/></g><path d="M13.909 26.739v13.66h1.752v-5.597c0-1.878 1.059-2.992 2.817-2.992 1.183 0 1.913.723 1.913 1.888V40.4h1.753v-6.515c0-2.445-1.121-3.634-3.433-3.634-1.04 0-2.425.393-3.05 1.502v-5.014h-1.752zM25.811 33.658l.002-.07c.064-1.213.814-1.778 2.365-1.778 1.437 0 2.1.492 2.1 1.55 0 .896-.893 1.025-2.137 1.197-.348.05-.71.102-1.088.175-1.705.326-3.37.834-3.37 3.068 0 1.766 1.238 2.817 3.307 2.817 1.383 0 2.522-.481 3.377-1.413.068 1.151.802 1.413 1.423 1.413.5 0 .877-.087 1.188-.274l.034-.021v-1.388l-.097.033c-.22.08-.363.089-.466.089-.417 0-.436-.227-.436-1.03V33c0-1.85-1.224-2.749-3.74-2.749-1.526 0-4.098.433-4.214 3.33v.077h1.752zm1.538 5.398c-.55 0-1.818-.132-1.818-1.371 0-1.183.96-1.514 1.908-1.68.285-.05.584-.089.873-.126.76-.097 1.473-.191 1.947-.476 0 0 .04-.023 0 0v1.51c0 .826-.788 2.143-2.91 2.143zM82.427 40.392v-13.64h-1.758v4.931c-.743-1.048-2.076-1.434-3.127-1.434-2.746 0-4.532 2.02-4.532 5.155 0 1.43.404 2.733 1.148 3.653.812 1.02 1.995 1.56 3.43 1.56 1.436 0 2.543-.519 3.081-1.422v1.197h1.758zm-4.61-1.336c-2.043 0-2.953-1.783-2.953-3.537 0-1.112.277-3.71 2.861-3.71 2.783 0 3 2.786 3 3.632 0 1.744-.764 3.615-2.907 3.615zM53.597 37.315c-.299 1.124-1.148 1.74-2.424 1.74-.903 0-1.66-.281-2.178-.818-.526-.556-.804-1.348-.789-2.25h7.306l.006-.07c.07-1.764-.472-3.436-1.449-4.452-.779-.807-1.8-1.214-3.047-1.214-2.702 0-4.665 2.163-4.665 5.155.105 3.316 1.843 5.21 4.759 5.21 2.235 0 3.77-1.2 4.228-3.3h-1.747zm-2.67-5.505c1.464 0 2.621 1.117 2.732 2.618h-5.446c.13-1.322 1.008-2.618 2.714-2.618zM69.947 37.338c-.304 1.112-1.163 1.718-2.425 1.718-.903 0-1.653-.282-2.17-.82-.54-.555-.815-1.347-.803-2.25H71.862l.005-.07c.069-1.761-.472-3.435-1.45-4.45-.773-.808-1.805-1.215-3.044-1.215-2.71 0-4.664 2.163-4.664 5.153.102 3.318 1.835 5.213 4.759 5.213 2.232 0 3.758-1.191 4.221-3.28h-1.742zm-2.67-5.529c1.46 0 2.625 1.118 2.738 2.618h-5.458c.129-1.321 1.02-2.618 2.72-2.618zM36.306 40.4v-4.43c0-2.65 1.103-3.878 3.463-3.878h.072v-1.84h-.07c-1.642-.054-2.748.6-3.56 2.126v-1.914h-1.657V40.4h1.752zM58.995 40.392V35.97c0-2.65 1.096-3.878 3.462-3.878h.072v-1.84h-.069c-1.649-.054-2.749.6-3.56 2.126V30.47h-1.657v9.923h1.752zM45.474 38.843H44.23c-.84 0-1.185-.534-1.185-1.314V32.03h2.428v-1.553h-2.428v-2.93h-1.75v9.955c0 2.113 1.059 3.011 2.932 3.011h1.246v-1.671zM99.192 44.118c-1.196.711-2.281 1.137-3.422 1.137-2.95 0-5.414-2.415-5.557-5.319l5.748-3.425 8.934 3.995-5.703 3.612zM102.61 29.407l-4.268-1.88c-1.908-.853-3.71-1.563-3.71-3.661 0-1.088.332-1.658.853-2.226l9.029 3.98-2.24 1.292c-.616.378-1.042.71-1.042 1.187 0 .513.586.95 1.377 1.308M106.802 9.708l-4.376 2.656c-.388.234-.908.613-.908 1.196 0 .663 1.01 1.17 1.908 1.598l-5.476-2.416c-1.614-.71-3.223-1.517-3.223-3.46 0-.819.236-1.481.616-2.047L107.18 0c1.42.806 2.795 2.432 2.795 4.612 0 2.336-1.183 3.9-3.173 5.096M116.111 18.262l-1.087.616-9.043-3.992 10.511-6.327c1.42.82 2.81 2.428 2.81 4.61 0 2.334-1.15 3.944-3.19 5.093M108.479 25.94l5.349 2.35c2.003.896 2.619 1.95 2.619 3.281 0 .756-.427 1.516-1.041 2.04l-8.994-3.997 1.52-.853c1.289-.71 1.715-1.138 1.715-1.61 0-.493-.3-.818-1.168-1.212" fill="#FFF"/><path d="M118.01 45.681c-2.275-1.752-4.702-2.937-7.653-4.276l-13.639-6.033c-3.426-1.528-5.698-3.564-5.698-6.99 0-3.33 1.612-4.943 3.708-6.267l.756-.475c-.521.568-.85 1.137-.85 2.226 0 2.098 1.8 2.81 3.707 3.661l15.867 6.993c2.76 1.186 5.285 3.223 5.285 6.694 0 1.91-.725 3.615-1.482 4.467" fill="#FFF"/><g transform="translate(91.08 6.832)"><mask id="d" fill="#fff"><use xlink:href="#c"/></mask><path d="M25.32 26.159l-.994.619c.614-.522 1.042-1.283 1.042-2.04 0-1.328-.618-2.383-2.62-3.282L5.78 13.989C2.356 12.474.224 10.519.224 7.107c0-3.14 1.564-5.192 4.04-6.704a3.571 3.571 0 00-.616 2.046c0 1.944 1.61 2.75 3.222 3.461l16.494 7.274c2.998 1.327 5.425 3.33 5.425 6.993 0 2.854-1.335 4.655-3.468 5.982" fill="#FFF" mask="url(#d)"/></g></g></svg>