<svg xmlns="http://www.w3.org/2000/svg" width="122" height="45" viewBox="0 0 122 45">
  <g fill="none" transform="matrix(1 0 0 -1 -.768 44.571)">
    <path fill="#231F20" d="M58.54625.82625C58.54625.91625 58.46875.955 58.3925.94125 58.21375.905 58.1625.89125 58.00875.89125 57.75375.89125 57.485 1.03125 57.35625 1.2225L55.79625 3.62875C55.5525 4 55.425 4.1525 55.3225 4.23 55.2725 4.27 55.2725 4.32 55.3475 4.33125 56.41 4.57375 57.165 5.37875 57.165 6.44125 57.165 7.49125 56.2825 8.2575 55.00375 8.2575L50.99875 8.2575C50.885 8.2575 50.7825 8.23125 50.7825 8.15625 50.7825 8.0925 50.87125 8.0275 50.9875 8.01625L51.51125 7.93875C51.7425 7.89875 51.93375 7.69625 51.93375 7.375L51.94625 4.4725 51.93375 1.4025C51.93375 1.08125 51.7675.8775 51.5375.82625 51.42125.80125 51.33125.74875 51.33125.6725 51.33125.60875 51.42125.58375 51.5375.58375L53.7125.58375C53.82625.58375 53.915.60875 53.915.6725 53.915.74875 53.8125.81625 53.7125.84L53.4425.905C53.2125.955 53.00875 1.17375 53.00875 1.48L52.995 3.9725C52.995 4.0875 53.0975 4.17625 53.2125 4.17625L54.35 4.17625C54.59375 4.17625 54.68375 4 54.78625 3.80875L56.385.72625C56.4225.6475 56.47375.58375 56.58875.58375L57.7025.58375C57.99625.58375 58.25125.62375 58.4575.69875 58.5075.72625 58.54625.77625 58.54625.82625L58.54625.82625zM56.01375 6.35125C56.01375 5.12375 55.2975 4.67875 54.15875 4.67875L53.22625 4.67875C53.11 4.67875 52.995 4.79125 52.995 4.90625L53.00875 7.4525C53.00875 7.6175 53.175 7.74625 53.34125 7.74625L54.68375 7.74625C55.47625 7.74625 56.01375 7.16 56.01375 6.35125L56.01375 6.35125zM62.8175 3.67875C62.8175 5.3925 61.705 6.0825 60.7075 6.0825 59.41625 6.0825 58.3025 4.97125 58.3025 3.2975 58.3025 1.25 59.50625.45625 60.67.45625 61.53875.45625 62.2675.92875 62.61375 1.58125 62.62625 1.62 62.62625 1.645 62.5875 1.685L62.3825 1.8525C62.345 1.875 62.3075 1.8625 62.28125 1.8125 62.05 1.44 61.45 1.045 60.925 1.045 60.21 1.045 59.36375 1.5425 59.30125 3.04 59.28875 3.18 59.42875 3.2975 59.56875 3.2975L62.525 3.2975C62.6775 3.2975 62.8175 3.5 62.8175 3.67875L62.8175 3.67875zM61.82125 4.21625C61.82125 4.01125 61.74375 3.85875 61.50125 3.79375 61.36 3.74125 61.06625 3.73 60.8225 3.73L60.43875 3.73C60.1575 3.73 59.53125 3.74125 59.53125 3.74125 59.39 3.74125 59.32625 3.83125 59.33875 3.9725 59.46625 4.98375 59.97875 5.64875 60.7075 5.64875 61.28375 5.64875 61.82125 5.18875 61.82125 4.21625L61.82125 4.21625zM67.71625 2.08125C67.71625 3.9475 64.49375 3.75375 64.49375 4.855 64.49375 5.36625 64.92875 5.625 65.4925 5.625 66.49 5.625 66.9625 5.4575 67.2825 4.49875 67.3075 4.435 67.33375 4.38375 67.385 4.38375 67.46125 4.38375 67.46125 4.485 67.46125 4.535L67.435 5.80375C67.435 5.8675 67.385 5.9175 67.3075 5.93 67.3075 5.93 66.24625 6.0825 65.5675 6.0825 64.26375 6.0825 63.79 5.44125 63.79 4.57375 63.79 2.7325 66.975 3.1175 66.975 1.7725 66.975 1.2225 66.36125.94125 65.8875.94125 64.83875.94125 64.25125 1.18375 63.88 2.24625 63.86625 2.32375 63.815 2.38625 63.74 2.38625 63.64875 2.38625 63.6375 2.31125 63.64875 2.23375 63.675 2.05375 63.7 1.7725 63.71375 1.55625 63.74 1.32375 63.75125 1.07 63.765.8775 63.77625.7875 63.84125.7375 63.93125.7125 64.26375.62375 65.03125.45625 65.735.45625 66.8225.45625 67.71625.7875 67.71625 2.08125L67.71625 2.08125zM73.57375 3.28375C73.57375 4.75375 72.69 6.0825 71.10625 6.0825 69.53125 6.0825 68.63625 4.75375 68.63625 3.28375 68.63625 1.8125 69.51875.45625 71.10625.45625 72.69.45625 73.57375 1.8125 73.57375 3.28375L73.57375 3.28375zM72.57625 3.105C72.57625 2.18125 72.32.91625 71.1425.91625 69.89.91625 69.6325 2.48875 69.6325 3.44875 69.6325 4.41 69.9025 5.54625 71.07875 5.54625 72.34625 5.54625 72.57625 4.0875 72.57625 3.105L72.57625 3.105zM78.255 5.815C78.2675 5.9175 78.12625 5.98 78.05 6.0075 77.935 6.0475 77.74375 6.0825 77.61375 6.0825 76.89875 6.0825 76.34875 5.79 75.94 5.175 75.91375 5.14875 75.9 5.13625 75.87375 5.13625 75.8375 5.13625 75.79875 5.16375 75.78625 5.19875L75.59375 5.80375C75.56875 5.89 75.505 5.9575 75.38875 5.9575L74.11 5.9575C73.995 5.9575 73.905 5.93 73.905 5.855 73.905 5.79 73.995 5.73875 74.11 5.71125L74.5075 5.635C74.73625 5.5975 74.92875 5.3925 74.92875 5.07375L74.92875 1.48C74.92875 1.15875 74.75.96875 74.51875.905L74.25125.82625C74.13625.7875 74.0475.74875 74.0475.6725 74.0475.60875 74.13625.58375 74.25125.58375L76.54.58375C76.655.58375 76.74625.60875 76.74625.68625 76.74625.74875 76.655.7875 76.54.82625L76.2725.905C76.04125.96875 75.85 1.15875 75.85 1.48L75.85 4.2025C75.85 4.38375 75.91375 4.6125 76.00375 4.75375 76.22125 5.09625 76.605 5.36625 77.05125 5.36625 77.44875 5.36625 77.67875 5.27875 77.80625 4.97125 77.85875 4.855 77.87 4.5975 77.9975 4.5975 78.08875 4.5975 78.11375 4.6875 78.12625 4.805L78.255 5.815 78.255 5.815zM82.1675.905L82.10375 1.07C82.07875 1.12 82.015 1.12 81.9775 1.08125 81.835.99125 81.50375.89125 81.235.89125 80.5575.89125 80.4425 1.3375 80.4425 1.91375L80.4425 5.3425 81.9125 5.31625C81.9775 5.31625 82.02875 5.3425 82.02875 5.41875L82.02875 5.855C82.02875 5.93 81.98875 5.9575 81.9 5.9575L80.4425 5.9575 80.4425 7.645C80.4425 7.76 80.37625 7.79625 80.32625 7.79625 80.26125 7.79625 80.225 7.74625 80.19875 7.68L79.5975 6.25C79.52125 6.0575 79.38 5.9575 79.25125 5.9575L78.51 5.9575C78.4325 5.9575 78.38125 5.90375 78.38125 5.82875L78.38125 5.4575C78.38125 5.3925 78.44625 5.3425 78.51 5.3425L79.52125 5.3425 79.52125 1.67C79.52125.82625 80.0575.5075 81.09375.5075 81.465.5075 81.925.63625 82.1425.80125 82.18125.82625 82.195.85125 82.1675.905L82.1675.905zM86.70875 2.08125C86.70875 3.9475 83.485 3.75375 83.485 4.855 83.485 5.36625 83.92 5.625 84.48125 5.625 85.48 5.625 85.955 5.4575 86.27375 4.49875 86.3 4.435 86.325 4.38375 86.37625 4.38375 86.45375 4.38375 86.45375 4.485 86.45375 4.535L86.4275 5.80375C86.4275 5.8675 86.37625 5.9175 86.3 5.93 86.3 5.93 85.2375 6.0825 84.56 6.0825 83.25625 6.0825 82.78125 5.44125 82.78125 4.57375 82.78125 2.7325 85.96625 3.1175 85.96625 1.7725 85.96625 1.2225 85.35375.94125 84.88.94125 83.83.94125 83.24125 1.18375 82.8725 2.24625 82.85875 2.32375 82.8075 2.38625 82.73 2.38625 82.64125 2.38625 82.63 2.31125 82.64125 2.23375 82.66625 2.05375 82.6925 1.7725 82.70625 1.55625 82.73 1.32375 82.74375 1.07 82.75625.8775 82.76875.7875 82.8325.7375 82.92375.7125 83.25625.62375 84.02125.45625 84.725.45625 85.81375.45625 86.70875.7875 86.70875 2.08125L86.70875 2.08125zM58.8275 10.99C58.8275 11.05375 58.7375 11.115 58.6225 11.13L58.09875 11.205C57.8675 11.245 57.67625 11.475 57.67625 11.78L57.66375 14.73625 57.67625 17.66625C57.67625 17.9725 57.8675 18.2025 58.09875 18.24125L58.6225 18.31625C58.7375 18.33 58.8275 18.395 58.8275 18.4725 58.8275 18.535 58.7375 18.5625 58.6225 18.5625L55.655 18.5625C55.54 18.5625 55.45125 18.535 55.45125 18.46 55.45125 18.395 55.54 18.33 55.655 18.31625L56.18 18.24125C56.41 18.2025 56.60125 17.98375 56.60125 17.66625L56.615 15.21C56.615 15.15875 56.5775 15.11875 56.52625 15.11875L53.08375 15.11875C53.03375 15.11875 52.995 15.15875 52.995 15.21L53.0075 17.66625C53.0075 17.9725 53.19875 18.2025 53.43 18.24125L53.95375 18.31625C54.07 18.33 54.15875 18.395 54.15875 18.4725 54.15875 18.535 54.07 18.5625 53.95375 18.5625L50.98625 18.5625C50.8725 18.5625 50.7825 18.535 50.7825 18.46 50.7825 18.395 50.8725 18.33 50.98625 18.31625L51.51125 18.24125C51.74125 18.2025 51.9325 17.98375 51.9325 17.66625L51.94625 14.73625 51.9325 11.78C51.9325 11.4625 51.74125 11.245 51.51125 11.205L50.98625 11.13C50.8725 11.115 50.7825 11.05375 50.7825 10.975 50.7825 10.9125 50.8725 10.88625 50.98625 10.88625L53.95375 10.88625C54.07 10.88625 54.15875 10.9125 54.15875 10.99 54.15875 11.05375 54.07 11.115 53.95375 11.13L53.43 11.205C53.19875 11.245 53.0075 11.475 53.0075 11.78L52.995 14.49375C52.995 14.54375 53.03375 14.58375 53.08375 14.58375L56.5125 14.58375C56.56375 14.58375 56.615 14.54375 56.615 14.49375L56.60125 11.78C56.60125 11.4625 56.41 11.2675 56.18 11.205L55.91125 11.13C55.80875 11.10375 55.70625 11.05375 55.70625 10.975 55.70625 10.9125 55.79625 10.88625 55.91125 10.88625L58.6225 10.88625C58.7375 10.88625 58.8275 10.9125 58.8275 10.99L58.8275 10.99zM64.09625 13.585C64.09625 15.05625 63.215 16.38625 61.62875 16.38625 60.05375 16.38625 59.15875 15.05625 59.15875 13.585 59.15875 12.11625 60.0425 10.75625 61.62875 10.75625 63.215 10.75625 64.09625 12.11625 64.09625 13.585L64.09625 13.585zM63.09875 13.4075C63.09875 12.4875 62.84375 11.2175 61.66625 11.2175 60.41375 11.2175 60.1575 12.7925 60.1575 13.74875 60.1575 14.70875 60.425 15.85 61.6025 15.85 62.87 15.85 63.09875 14.39 63.09875 13.4075L63.09875 13.4075zM68.2925 11.205L68.22875 11.3725C68.2025 11.42375 68.1375 11.42375 68.10125 11.385 67.96 11.295 67.62625 11.195 67.3575 11.195 66.68 11.195 66.565 11.64 66.565 12.2175L66.565 15.64625 68.035 15.62C68.10125 15.62 68.1525 15.64625 68.1525 15.72125L68.1525 16.15625C68.1525 16.23375 68.1125 16.2575 68.0225 16.2575L66.565 16.2575 66.565 17.94875C66.565 18.06125 66.5 18.10125 66.45 18.10125 66.38625 18.10125 66.3475 18.04875 66.3225 17.98375L65.72125 16.55375C65.645 16.36125 65.5025 16.2575 65.37625 16.2575L64.63375 16.2575C64.5575 16.2575 64.50625 16.20625 64.50625 16.13125L64.50625 15.76C64.50625 15.695 64.57 15.64625 64.63375 15.64625L65.645 15.64625 65.645 11.97375C65.645 11.13 66.1825 10.81125 67.2175 10.81125 67.59 10.81125 68.05 10.93625 68.2675 11.10375 68.30375 11.13 68.3175 11.155 68.2925 11.205L68.2925 11.205zM73.1775 13.9825C73.1775 15.695 72.065 16.38625 71.0675 16.38625 69.775 16.38625 68.66375 15.27375 68.66375 13.59625 68.66375 11.55125 69.865 10.75625 71.02875 10.75625 71.89875 10.75625 72.62875 11.2325 72.97375 11.88375 72.985 11.92375 72.985 11.94875 72.94875 11.98625L72.7425 12.15125C72.705 12.1775 72.66625 12.16625 72.64 12.11625 72.41 11.74375 71.80875 11.34625 71.285 11.34625 70.56875 11.34625 69.725 11.845 69.66 13.3425 69.6475 13.4825 69.78875 13.59625 69.93 13.59625L72.88375 13.59625C73.03625 13.59625 73.1775 13.80375 73.1775 13.9825L73.1775 13.9825zM72.18 14.51875C72.18 14.315 72.10375 14.1625 71.86 14.09625 71.72 14.04625 71.42625 14.0325 71.1825 14.0325L70.8 14.0325C70.5175 14.0325 69.89 14.04625 69.89 14.04625 69.75 14.04625 69.6875 14.135 69.69875 14.275 69.82625 15.28375 70.33875 15.9525 71.0675 15.9525 71.64375 15.9525 72.18 15.49125 72.18 14.51875L72.18 14.51875zM76.3775 10.99C76.3775 11.05375 76.28625 11.0925 76.185 11.13L75.9025 11.205C75.67375 11.2675 75.4825 11.4625 75.4825 11.78L75.4825 18.2025 75.5325 19.04625C75.5325 19.14875 75.45625 19.19875 75.355 19.19875L73.70375 19.19875C73.5875 19.19875 73.5 19.17625 73.5 19.09625 73.5 19.02125 73.60125 18.97125 73.70375 18.95625L74.13875 18.88125C74.38125 18.8425 74.56 18.63875 74.56 18.31625L74.56 11.8075C74.56 11.42375 74.49625 11.245 74.4075 11.155 74.33 11.08 74.24125 11.05375 74.24125 10.975 74.24125 10.9125 74.2925 10.88625 74.4075 10.88625L76.1725 10.88625C76.28625 10.88625 76.3775 10.9125 76.3775 10.99L76.3775 10.99zM81.13375 12.385C81.13375 14.25125 77.9125 14.0575 77.9125 15.15875 77.9125 15.67 78.3475 15.925 78.91 15.925 79.90875 15.925 80.38 15.76 80.7 14.79875 80.725 14.73625 80.7525 14.68625 80.8025 14.68625 80.88 14.68625 80.88 14.78875 80.88 14.83875L80.85375 16.10375C80.85375 16.1675 80.8025 16.22125 80.725 16.23375 80.725 16.23375 79.66375 16.38625 78.98625 16.38625 77.68125 16.38625 77.21 15.745 77.21 14.87625 77.21 13.035 80.39375 13.4175 80.39375 12.07625 80.39375 11.52625 79.77875 11.245 79.30625 11.245 78.25625 11.245 77.67 11.4875 77.2975 12.55 77.285 12.6275 77.235 12.68875 77.1575 12.68875 77.0675 12.68875 77.055 12.6125 77.0675 12.53375 77.0925 12.35875 77.11875 12.07625 77.13125 11.8575 77.1575 11.62625 77.17 11.3725 77.1825 11.17875 77.195 11.0925 77.25875 11.04 77.34875 11.01375 77.68125 10.925 78.45 10.75625 79.1525 10.75625 80.23875 10.75625 81.13375 11.0925 81.13375 12.385L81.13375 12.385zM88.70875 10.98C88.70875 11.045 88.62875 11.08 88.52625 11.10375L88.18625 11.17125C87.98 11.21625 87.82125 11.3975 87.82125 11.68375L87.82125 14.0825C87.82125 15.3875 87.1275 15.77375 85.99125 15.77375 85.5025 15.77375 85.03625 15.67125 84.5575 15.6375 84.49125 15.6375 84.445 15.5925 84.445 15.525L84.455 14.1625C84.455 14.1175 84.49125 14.0925 84.525 14.0925 84.5575 14.0925 84.5925 14.1175 84.60375 14.1475 84.78625 14.98 85.10375 15.34375 85.9675 15.34375 86.37875 15.34375 87.00375 15.14875 87.00375 14.60375L87.00375 14.1625C87.00375 13.81875 86.73125 13.685 86.4 13.58 85.86625 13.42125 85.24 13.3425 84.82 13.1625 84.2525 12.91 84.03625 12.42 84.03625 12.0025 84.03625 11.195 84.64875 10.7725 85.435 10.7725 85.97875 10.7725 86.45625 10.92125 86.855 11.195 86.90125 11.2275 86.93375 11.25 87.00375 11.25 87.0475 11.25 87.0825 11.2275 87.1175 11.17125L87.20625 11.01C87.2425 10.95625 87.29875 10.88625 87.4 10.88625L88.52625 10.88625C88.62875 10.88625 88.70875 10.91125 88.70875 10.98L88.70875 10.98zM87.00375 12.0675C87.00375 11.57 86.4225 11.205 85.71875 11.205 85.10375 11.205 84.83125 11.605 84.83125 12.195 84.83125 12.51375 85.03625 12.75125 85.38875 12.8525L86.8775 13.28625C86.9575 13.31875 87.00375 13.28625 87.00375 13.19375L87.00375 12.0675zM93.995 10.98C93.995 11.035 93.91625 11.06875 93.8125 11.10375L93.5725 11.17125C93.37 11.2275 93.2 11.3975 93.2 11.68375L93.2 13.96625C93.2 15.14 92.53875 15.77375 91.595 15.77375 91.16375 15.77375 90.56125 15.6375 90.17375 15.12625 90.14 15.07 90.08375 15.09125 90.06125 15.14L89.87875 15.5375C89.845 15.61625 89.79875 15.66125 89.69875 15.66125L88.4125 15.66125C88.31 15.66125 88.23 15.6375 88.23 15.57 88.23 15.51375 88.31 15.45625 88.4125 15.44625L88.87875 15.3775C89.08375 15.34375 89.26625 15.16 89.26625 14.87625L89.26625 11.68375C89.26625 11.3975 89.10625 11.2275 88.90125 11.17125L88.6625 11.10375C88.55875 11.06875 88.48125 11.035 88.48125 10.965 88.48125 10.91125 88.55875 10.88625 88.6625 10.88625L90.6975 10.88625C90.8 10.88625 90.88 10.91125 90.88 10.98 90.88 11.035 90.8 11.06875 90.6975 11.10375L90.45875 11.17125C90.25375 11.2275 90.08375 11.3975 90.08375 11.68375L90.08375 14.28625C90.08375 14.82125 90.89125 15.17 91.3225 15.17 91.98125 15.17 92.38 14.81125 92.38 14.1475L92.38 11.795C92.38 11.33875 92.32375 11.205 92.24375 11.125 92.17625 11.05875 92.09625 11.035 92.09625 10.965 92.09625 10.91125 92.14125 10.88625 92.24375 10.88625L93.8125 10.88625C93.91625 10.88625 93.995 10.91125 93.995 10.98L93.995 10.98zM99.055 10.98C99.055 11.035 98.97625 11.08 98.8725 11.10375L98.52 11.17125C98.315 11.205 98.15625 11.3975 98.15625 11.68375L98.15625 17.3875 98.20125 18.14125C98.20125 18.23125 98.13375 18.27625 98.0425 18.27625L96.49625 18.27625C96.39375 18.27625 96.31375 18.2525 96.31375 18.18625 96.31375 18.1175 96.405 18.0725 96.49625 18.06125L96.9625 17.9925C97.17875 17.95875 97.33625 17.775 97.33625 17.4925L97.33625 15.6825C97.33625 15.62625 97.30375 15.5825 97.235 15.60375 96.92875 15.70625 96.57625 15.77375 96.1325 15.77375 95.02875 15.77375 94.05125 14.81125 94.05125 13.3075 94.05125 11.47625 94.96125 10.7725 95.99625 10.7725 96.39375 10.7725 96.86 10.94125 97.21125 11.32875 97.2475 11.3625 97.28 11.38625 97.30375 11.38625 97.33625 11.38625 97.36 11.3625 97.3825 11.32875L97.53125 11.02375C97.57625 10.94125 97.62 10.88625 97.7125 10.88625L98.8725 10.88625C98.97625 10.88625 99.055 10.91125 99.055 10.98L99.055 10.98zM97.33625 12.24C97.33625 12.15 97.30375 12.0675 97.2575 12.0025 96.995 11.59125 96.54125 11.3525 96.2 11.3525 95.52875 11.3525 94.915 11.83 94.915 13.3075 94.915 14.58 95.40375 15.3675 96.1775 15.3675 97.065 15.3675 97.33625 14.98 97.33625 14.19625L97.33625 12.24zM12.30375 28.07625C12.30375 33.36625 3.17125 32.82375 3.17125 35.93875 3.17125 37.38875 4.40375 38.11375 5.9975 38.11375 8.825 38.11375 10.165 37.64375 11.07125 34.92625 11.14375 34.745 11.21625 34.6 11.36125 34.6 11.57875 34.6 11.57875 34.89 11.57875 35.035L11.505 38.62125C11.505 38.8025 11.36125 38.9475 11.14375 38.985 11.14375 38.985 8.13625 39.42 6.215 39.42 2.51875 39.42 1.1775 37.60625 1.1775 35.1425 1.1775 29.925 10.20125 31.01125 10.20125 27.20625 10.20125 25.6475 8.4625 24.85125 7.12125 24.85125 4.15 24.85125 2.4825 25.54 1.43125 28.5475 1.39625 28.765 1.25125 28.945 1.0325 28.945.78 28.945.74375 28.7275.78 28.51125.85125 28.0025.92375 27.20625.96 26.58875 1.0325 25.9375 1.06875 25.2125 1.105 24.67 1.14125 24.41625 1.3225 24.27 1.57625 24.19875 2.51875 23.945 4.69375 23.47375 6.68625 23.47375 9.76625 23.47375 12.30375 24.41625 12.30375 28.07625L12.30375 28.07625zM23.89125 24.74125L23.70875 25.2125C23.6375 25.3575 23.455 25.3575 23.34625 25.25 22.94875 24.995 22.00625 24.705 21.24375 24.705 19.32375 24.705 18.99875 25.975 18.99875 27.60375L18.99875 37.31625 23.16625 37.24375C23.34625 37.24375 23.49 37.31625 23.49 37.53375L23.49 38.76625C23.49 38.985 23.38375 39.05625 23.12875 39.05625L18.99875 39.05625 18.99875 43.84C18.99875 44.16625 18.81625 44.27375 18.67125 44.27375 18.49125 44.27375 18.38125 44.13 18.31 43.94875L16.60625 39.88875C16.38875 39.3475 15.98875 39.05625 15.6275 39.05625L13.525 39.05625C13.3075 39.05625 13.16375 38.91 13.16375 38.69375L13.16375 37.64375C13.16375 37.4625 13.345 37.31625 13.525 37.31625L16.38875 37.31625 16.38875 26.91625C16.38875 24.525 17.91 23.6175 20.84625 23.6175 21.89625 23.6175 23.2 23.98125 23.8175 24.45375 23.92625 24.525 23.9625 24.5975 23.89125 24.74125L23.89125 24.74125zM39.78375 24.12625C39.78375 24.3425 39.53 24.45375 39.205 24.525L38.11625 24.74125C37.465 24.8875 36.9575 25.46625 36.9575 26.3725L36.9575 34.02C36.9575 38.1875 34.7475 39.42 31.1225 39.42 29.565 39.42 28.0775 39.0925 26.55625 38.985 26.34 38.985 26.195 38.83875 26.195 38.62125L26.23 34.2725C26.23 34.1275 26.34 34.055 26.4475 34.055 26.55625 34.055 26.66625 34.1275 26.70125 34.235 27.28125 36.8825 28.295 38.04125 31.05125 38.04125 32.355 38.04125 34.3475 37.42625 34.3475 35.68625L34.3475 34.2725C34.3475 33.18625 33.4775 32.75125 32.4275 32.42375 30.725 31.91625 28.73125 31.665 27.39 31.08375 25.57875 30.28625 24.89 28.7275 24.89 27.3875 24.89 24.815 26.8475 23.47375 29.3475 23.47375 31.08625 23.47375 32.60875 23.945 33.87625 24.815 34.0225 24.9225 34.13 24.995 34.3475 24.995 34.49375 24.995 34.60125 24.9225 34.71125 24.74125L35.00125 24.235C35.10875 24.0525 35.29 23.83625 35.61625 23.83625L39.205 23.83625C39.53 23.83625 39.78375 23.9075 39.78375 24.12625L39.78375 24.12625zM34.3475 27.60375C34.3475 26.01 32.5 24.85125 30.25375 24.85125 28.295 24.85125 27.42625 26.11875 27.42625 28.0025 27.42625 29.0175 28.0775 29.78 29.2025 30.105L33.94875 31.4825C34.2025 31.59125 34.3475 31.4825 34.3475 31.1925L34.3475 27.60375 34.3475 27.60375zM51.8525 38.6575C51.88875 38.9475 51.49 39.1275 51.27125 39.2 50.94625 39.31125 50.40125 39.42 50.04 39.42 48.01125 39.42 46.45125 38.58625 45.2925 36.84625 45.22 36.775 45.18375 36.7375 45.11125 36.7375 45.00125 36.7375 44.89375 36.80875 44.8575 36.91875L44.31375 38.62125C44.24125 38.87625 44.06 39.05625 43.73375 39.05625L40.11125 39.05625C39.78375 39.05625 39.53 38.985 39.53 38.76625 39.53 38.58625 39.78375 38.44 40.11125 38.3675L41.23375 38.15125C41.88625 38.04125 42.43 37.4625 42.43 36.55625L42.43 26.3725C42.43 25.46625 41.9225 24.9225 41.27125 24.74125L40.50875 24.525C40.1825 24.41625 39.92875 24.30625 39.92875 24.09 39.92875 23.9075 40.1825 23.83625 40.50875 23.83625L46.99625 23.83625C47.32125 23.83625 47.575 23.9075 47.575 24.12625 47.575 24.30625 47.32125 24.41625 46.99625 24.525L46.235 24.74125C45.5825 24.9225 45.0375 25.46625 45.0375 26.3725L45.0375 34.09125C45.0375 34.6 45.22 35.25125 45.4725 35.64875 46.09 36.62875 47.1775 37.38875 48.44625 37.38875 49.56875 37.38875 50.22125 37.13625 50.5825 36.26625 50.72875 35.93875 50.765 35.21375 51.12625 35.21375 51.38 35.21375 51.45375 35.46875 51.49 35.795L51.8525 38.6575 51.8525 38.6575zM75.8725 38.8025C75.8725 38.985 75.58375 39.05625 75.2575 39.05625L71.0175 39.05625C70.69 39.05625 70.4725 38.985 70.4725 38.83875 70.4725 38.69375 70.5825 38.58625 70.765 38.5125L71.67 38.11375C72.10375 37.8975 72.1775 37.42625 72.0325 36.84625L69.53125 27.20625C69.49625 27.025 69.16875 27.025 69.09625 27.20625L65.2925 38.475C65.25625 38.62125 64.93 38.69375 64.60375 38.69375 64.2775 38.69375 63.95 38.62125 63.915 38.475L59.92875 27.46C59.85625 27.2775 59.53 27.2775 59.49375 27.46L57.21 36.84625C57.10125 37.28125 57.175 37.86125 57.60875 38.11375L58.33375 38.5125C58.47875 38.58625 58.5875 38.69375 58.5875 38.83875 58.5875 38.985 58.36875 39.05625 58.04375 39.05625L52.8975 39.05625C52.57125 39.05625 52.3175 38.985 52.3175 38.76625 52.3175 38.58625 52.53625 38.475 52.825 38.3675L53.51375 38.11375C53.91375 37.96875 54.1675 37.7875 54.31125 37.3525L58.33375 23.83625C58.40625 23.58125 58.8775 23.47375 59.34875 23.47375 59.82 23.47375 60.29125 23.58125 60.36375 23.83625L64.02375 33.73C64.09625 33.91125 64.49375 33.9475 64.56625 33.73L67.90125 23.83625C67.97375 23.6175 68.44375 23.47375 68.91625 23.47375 69.42375 23.47375 69.895 23.58125 69.9675 23.83625L74.46 37.38875C74.64125 37.8975 75.0775 38.1875 75.4025 38.33125 75.6925 38.44 75.8725 38.58625 75.8725 38.8025L75.8725 38.8025zM88.845 31.4825C88.845 35.64875 86.345 39.42 81.85 39.42 77.3925 39.42 74.855 35.64875 74.855 31.4825 74.855 27.31375 77.35625 23.47375 81.85 23.47375 86.345 23.47375 88.845 27.31375 88.845 31.4825L88.845 31.4825zM86.0175 30.97625C86.0175 28.36625 85.2925 24.7775 81.95875 24.7775 78.4075 24.7775 77.68375 29.23625 77.68375 31.9525 77.68375 34.6725 78.44375 37.8975 81.77625 37.8975 85.365 37.8975 86.0175 33.76625 86.0175 30.97625L86.0175 30.97625zM104.545 31.4825C104.545 35.64875 102.04375 39.42 97.55125 39.42 93.09375 39.42 90.55625 35.64875 90.55625 31.4825 90.55625 27.31375 93.05625 23.47375 97.55125 23.47375 102.04375 23.47375 104.545 27.31375 104.545 31.4825L104.545 31.4825zM101.71875 30.97625C101.71875 28.36625 100.99375 24.7775 97.65875 24.7775 94.10875 24.7775 93.38375 29.23625 93.38375 31.9525 93.38375 34.6725 94.1425 37.8975 97.4775 37.8975 101.065 37.8975 101.71875 33.76625 101.71875 30.97625L101.71875 30.97625zM122.2675 24.12625C122.2675 24.30625 122.015 24.45375 121.6875 24.525L120.56375 24.74125C119.91125 24.85125 119.40375 25.46625 119.40375 26.3725L119.40375 41.745C119.40375 43.1825 119.54875 44.13625 119.54875 44.13625 119.54875 44.42625 119.33125 44.57125 119.0425 44.57125L114.11375 44.57125C113.78625 44.57125 113.53375 44.5 113.53375 44.2825 113.53375 44.065 113.82375 43.92 114.11375 43.88375L115.6 43.66625C116.2875 43.5575 116.795 42.97625 116.795 42.0725L116.795 39.1275C116.795 38.9475 116.6875 38.8025 116.47 38.87625 115.49125 39.2 114.3675 39.42 112.955 39.42 109.43875 39.42 106.3225 36.3375 106.3225 31.55375 106.3225 25.72 109.22125 23.47375 112.52 23.47375 113.78625 23.47375 115.27375 24.015 116.3975 25.25 116.50625 25.3575 116.615 25.42875 116.6875 25.42875 116.795 25.42875 116.8675 25.3575 116.94125 25.25L117.4125 24.27C117.55625 24.015 117.70125 23.83625 117.99125 23.83625L121.6875 23.83625C122.015 23.83625 122.2675 23.9075 122.2675 24.12625L122.2675 24.12625zM116.795 28.14875C116.795 27.85875 116.6875 27.60375 116.54 27.3875 115.70875 26.0825 114.25875 25.3225 113.17125 25.3225 111.0325 25.3225 109.0775 26.84375 109.0775 31.55375 109.0775 35.615 110.63375 38.11375 113.09875 38.11375 115.925 38.11375 116.795 36.8825 116.795 34.3825L116.795 28.14875z"/>
    <polyline fill="#2D7AC8" points="55.5 23.75 53.405 24.044 54.678 25.733 54.49 25.921 52.8 24.648 52.508 26.742 52.24 26.742 51.947 24.648 50.256 25.921 50.069 25.733 51.341 24.044 49.248 23.75 49.248 23.484 51.341 23.19 50.069 21.499 50.256 21.314 51.947 22.585 52.24 20.49 52.508 20.49 52.8 22.585 54.49 21.314 54.678 21.499 53.405 23.19 55.5 23.484"/>
  </g>
</svg>
