<svg xmlns="http://www.w3.org/2000/svg" viewBox="0 0 200 81"><path fill="#9EA0A3" d="M185.986 28.242l-.857.917-.197.071-.084 1.015-1.046.072-.156.348-.777.418-.55.513-.33.087v10.815c0 .822-.668 1.491-1.492 1.491h-14.993a1.494 1.494 0 01-1.493-1.491V27.504c0-.824.67-1.493 1.493-1.493h14.458l.049-.262s.428-.535.532-.663l.096-.195-.187-1.218.787-.749.12-.292.189-.947.31-.491.001-.048a6.53 6.53 0 00-1.362-.146h-14.993A6.512 6.512 0 00159 27.504v14.994c0 3.585 2.919 6.502 6.504 6.502h14.993A6.51 6.51 0 00187 42.498V27.504c0-.187-.012-.371-.028-.554l-.425.536-.561.756"/><defs><clipPath id="a"><path clip-rule="evenodd" d="M0 54.601h19.99V80H0z"/></clipPath></defs><g clip-path="url(#a)"><path fill="#C0D72F" d="M16.126 62.323c-.143-3.628-3.005-5.255-6.44-5.255-2.672 0-5.82 1.022-5.82 4.139 0 2.605 3.052 3.535 5.104 4.047l4.008.885c3.434.51 7.012 2.464 7.012 6.65C19.99 78 14.695 80 10.114 80 4.39 80 .477 77.395 0 71.534h3.006c.24 3.952 3.244 6 7.252 6 2.815 0 6.727-1.21 6.727-4.559 0-2.79-2.672-3.72-5.39-4.372l-3.865-.839C3.817 66.744.86 65.44.86 61.345c0-4.883 4.913-6.744 9.254-6.744 4.915 0 8.826 2.512 9.018 7.722h-3.006z"/></g><defs><clipPath id="b"><path clip-rule="evenodd" d="M24.357 54.594h19.276V80H24.357z"/></clipPath></defs><g clip-path="url(#b)"><path fill="#C0D72F" d="M43.633 79.281h-2.669v-4.45h-.091c-1.519 3.302-4.647 5.17-8.189 5.17-5.981 0-8.327-3.638-8.327-9.38V54.594h2.898V70.67c.139 4.447 1.749 6.793 6.35 6.793 4.967 0 7.13-4.88 7.13-9.905V54.594h2.899V79.28z"/></g><defs><clipPath id="c"><path clip-rule="evenodd" d="M48.404 54.601H67.68V80H48.404z"/></clipPath></defs><g clip-path="url(#c)"><path fill="#C0D72F" d="M63.954 62.323c-.138-3.628-2.898-5.255-6.212-5.255-2.576 0-5.612 1.022-5.612 4.139 0 2.605 2.944 3.535 4.923 4.047l3.864.885c3.313.51 6.763 2.464 6.763 6.65C67.68 78 62.574 80 58.158 80c-5.522 0-9.294-2.605-9.754-8.466h2.9c.228 3.952 3.126 6 6.991 6 2.714 0 6.486-1.21 6.486-4.559 0-2.79-2.575-3.72-5.198-4.372l-3.726-.839c-3.773-1.02-6.626-2.325-6.626-6.419 0-4.883 4.739-6.744 8.927-6.744 4.738 0 8.51 2.512 8.694 7.722h-2.898z"/></g><path fill="#C0D72F" d="M80.3 55.087H85v4.343h-4.7v11.706c0 2.195.543 2.743 2.712 2.743.677 0 1.31-.046 1.988-.183v5.077c-1.084.182-2.485.227-3.75.227-3.931 0-7.365-.915-7.365-5.624V59.43H70v-4.343h3.885V48H80.3v7.087zM90 55.633h6.08v4.339h.09c1.172-2.938 4.325-4.972 7.434-4.972.45 0 .99.091 1.396.227v5.965c-.586-.135-1.531-.226-2.297-.226-4.686 0-6.307 3.391-6.307 7.504V79H90V55.633z"/><path fill="#C0D72F" d="M119.333 54c-5.523 0-11.19 1.91-11.57 8.254h6.761c.24-2.672 1.906-3.721 4.477-3.721 2.38 0 4.38.429 4.38 3.339 0 2.767-3.857 2.624-7.998 3.243-4.192.574-8.383 1.908-8.383 7.492 0 5.056 3.714 7.393 8.383 7.393 2.999 0 6.14-.812 8.284-3.053.049.811.238 1.62.476 2.385H131c-.62-1-.857-3.243-.857-5.486V61.013c0-5.915-5.906-7.013-10.81-7.013zm-1.571 14.694c2.095-.382 4.475-.43 5.619-1.43v2.527c0 1.479-.19 5.678-5.476 5.678-2.19 0-4.143-.62-4.143-3.15 0-2.48 1.905-3.197 4-3.625z" fill-rule="evenodd"/><path fill="#C0D72F" d="M135 55.633h6.402v3.255h.145c1.704-2.623 4.644-3.888 7.49-3.888 7.161 0 8.963 3.842 8.963 9.627V79h-6.733V65.803c0-3.842-1.187-5.74-4.316-5.74-3.652 0-5.217 1.943-5.217 6.689V79H135V55.633zM167.482 71.317c.047 2.958 2.544 4.15 5.234 4.15 1.966 0 4.465-.763 4.465-3.147 0-2.052-2.833-2.768-7.731-3.816-3.937-.86-7.874-2.244-7.874-6.585 0-6.296 5.474-7.919 10.804-7.919 5.426 0 10.419 1.812 10.948 7.872h-6.483c-.192-2.624-2.209-3.34-4.658-3.34-1.536 0-3.791.287-3.791 2.29 0 2.434 3.839 2.768 7.728 3.674 3.985.907 7.876 2.337 7.876 6.917C184 77.9 178.333 80 172.667 80c-5.762 0-11.38-2.146-11.667-8.683h6.482z"/><defs><clipPath id="d"><path clip-rule="evenodd" d="M0 54.601h19.99V80H0z"/></clipPath></defs><g clip-path="url(#d)"><path fill="#C0D72F" d="M16.126 62.323c-.143-3.628-3.005-5.255-6.44-5.255-2.672 0-5.82 1.022-5.82 4.139 0 2.605 3.052 3.535 5.104 4.047l4.008.885c3.434.51 7.012 2.464 7.012 6.65C19.99 78 14.695 80 10.114 80 4.39 80 .477 77.395 0 71.534h3.006c.24 3.952 3.244 6 7.252 6 2.815 0 6.727-1.21 6.727-4.559 0-2.79-2.672-3.72-5.39-4.372l-3.865-.839C3.817 66.744.86 65.44.86 61.345c0-4.883 4.913-6.744 9.254-6.744 4.915 0 8.826 2.512 9.018 7.722h-3.006z"/></g><defs><clipPath id="e"><path clip-rule="evenodd" d="M24.357 54.594h19.276V80H24.357z"/></clipPath></defs><g clip-path="url(#e)"><path fill="#C0D72F" d="M43.633 79.281h-2.669v-4.45h-.091c-1.519 3.302-4.647 5.17-8.189 5.17-5.981 0-8.327-3.638-8.327-9.38V54.594h2.898V70.67c.139 4.447 1.749 6.793 6.35 6.793 4.967 0 7.13-4.88 7.13-9.905V54.594h2.899V79.28z"/></g><defs><clipPath id="f"><path clip-rule="evenodd" d="M48.404 54.601H67.68V80H48.404z"/></clipPath></defs><g clip-path="url(#f)"><path fill="#C0D72F" d="M63.954 62.323c-.138-3.628-2.898-5.255-6.212-5.255-2.576 0-5.612 1.022-5.612 4.139 0 2.605 2.944 3.535 4.923 4.047l3.864.885c3.313.51 6.763 2.464 6.763 6.65C67.68 78 62.574 80 58.158 80c-5.522 0-9.294-2.605-9.754-8.466h2.9c.228 3.952 3.126 6 6.991 6 2.714 0 6.486-1.21 6.486-4.559 0-2.79-2.575-3.72-5.198-4.372l-3.726-.839c-3.773-1.02-6.626-2.325-6.626-6.419 0-4.883 4.739-6.744 8.927-6.744 4.738 0 8.51 2.512 8.694 7.722h-2.898z"/></g><path fill="#C0D72F" d="M80.3 55.087H85v4.343h-4.7v11.706c0 2.195.543 2.743 2.712 2.743.677 0 1.31-.046 1.988-.183v5.077c-1.084.182-2.485.227-3.75.227-3.931 0-7.365-.915-7.365-5.624V59.43H70v-4.343h3.885V48H80.3v7.087zM90 55.633h6.08v4.339h.09c1.172-2.938 4.325-4.972 7.434-4.972.45 0 .99.091 1.396.227v5.965c-.586-.135-1.531-.226-2.297-.226-4.686 0-6.307 3.391-6.307 7.504V79H90V55.633z"/><path fill="#C0D72F" d="M119.333 54c-5.523 0-11.19 1.91-11.57 8.254h6.761c.24-2.672 1.906-3.721 4.477-3.721 2.38 0 4.38.429 4.38 3.339 0 2.767-3.857 2.624-7.998 3.243-4.192.574-8.383 1.908-8.383 7.492 0 5.056 3.714 7.393 8.383 7.393 2.999 0 6.14-.812 8.284-3.053.049.811.238 1.62.476 2.385H131c-.62-1-.857-3.243-.857-5.486V61.013c0-5.915-5.906-7.013-10.81-7.013zm-1.571 14.694c2.095-.382 4.475-.43 5.619-1.43v2.527c0 1.479-.19 5.678-5.476 5.678-2.19 0-4.143-.62-4.143-3.15 0-2.48 1.905-3.197 4-3.625z" fill-rule="evenodd"/><path fill="#C0D72F" d="M135 55.633h6.402v3.255h.145c1.704-2.623 4.644-3.888 7.49-3.888 7.161 0 8.963 3.842 8.963 9.627V79h-6.733V65.803c0-3.842-1.187-5.74-4.316-5.74-3.652 0-5.217 1.943-5.217 6.689V79H135V55.633zM167.482 71.317c.047 2.958 2.544 4.15 5.234 4.15 1.966 0 4.465-.763 4.465-3.147 0-2.052-2.833-2.768-7.731-3.816-3.937-.86-7.874-2.244-7.874-6.585 0-6.296 5.474-7.919 10.804-7.919 5.426 0 10.419 1.812 10.948 7.872h-6.483c-.192-2.624-2.209-3.34-4.658-3.34-1.536 0-3.791.287-3.791 2.29 0 2.434 3.839 2.768 7.728 3.674 3.985.907 7.876 2.337 7.876 6.917C184 77.9 178.333 80 172.667 80c-5.762 0-11.38-2.146-11.667-8.683h6.482zM184.53 26.484l-.041-.012c-.039.08-.014.066.041.012M175.496 33.505h.004l.004-.01-.008.01zM181.577 16.491l-.154-.007c.047.033.097.048.154.007M180.27 4.727c.107-.078.316-.23.46-.454-.162.077-.42.305-.46.454"/><path fill="#C0D72F" d="M180.634 4.386l-.268.153.012.074.256-.227zM191.9 4.316l.698.373c.005.19.705.705.363.66.516.115 1.002 1.038 1.039.465-1.802-1.446-3.246-4.089-6.01-5.381.17-.02.323.027.492.047-1.418-.336-2.17-.923-3.175.074l.046-.383c-.766.148-.968 1.058-1.663 1.26l.14.055c-.118.124-.208.127-.328.252l.09-.004c-.214.425-.418.614-.79.866-.095-.057.111-.184.186-.306-.216.068-.297.49-.537.739-.254.127-.105-.116-.113-.178-.61.862-1.185.941-1.338 1.844.016.119.305-.07.076.238.582-.381.825-.929 1.161-1.48l-.12.125c-.002-.72.337-.191.737-.923-.005.298-.245.547-.265.724.895-.388.706-1.16 1.46-1.247l-.035.06c.13-.058.227-.318.347-.48-.096-.01-.26.118-.387.184.113-.187.032-.42.034-.54.34.007.185-.323.588-.477.214.088-.176.351-.206.544.09-.131.17-.29.283-.407.377-.226.474-.007.684.002.272-.252-.233-.042-.042-.336.492-.086 2.33-.191 3.231.304-.299-.135-.204.137-.52-.076.096.11.572.242.662.125.636.321 1.082.983 1.388 1.502l-.008-.236c.518.162.716 1.034 1.417 1.55l-.01-.017c.215.178.642.074.94.498-.228.033-.406-.176-.516-.02M197.692 9.282c.114.04.149-.031.226-.039-.872-.749-1.987-1.639-2.208-2.051-.24-.298-.523-.14-.938-.417l-.008-.285c-.293-.088-.724-.773-.764-.357 0 .039.29.045.411.235l-.114.054.416.319-.23-.014c.37.611.694.039 1.237.709l-.223.191c.418.399.71.527.958.988 0 0 .113-.096-.004-.122-.06-.076-.064-.237.05-.251.821.433-.232.025.133.515.706.364 1.89 1.201 2.022 1.634-.13-.353.397-.129.697.161.064.197-.23.028-.345.042.122.15.185.306.36.406-.066-.277.22-.313.632-.077-.605-.785-1.59-.952-2.308-1.641M184.53 26.484l-.041-.012c-.039.08-.014.066.041.012M175.496 33.505h.004l.004-.01-.008.01zM181.577 16.491l-.154-.007c.047.033.097.048.154.007"/><path fill="#C0D72F" d="M180.27 4.727c.107-.078.316-.23.46-.454-.162.077-.42.305-.46.454"/><path fill="#C0D72F" d="M180.634 4.386l-.268.153.012.074.256-.227zM199.22 14.671c-.268.213-1.015.941-.873 1.262.142.32.554.126.554.126l-.156.248-.425.44-.729.263-.66.24-.695.27-.685-.214-.75.158-.342-.232-.27-.183s1.116.249.468-.5c-.648-.75.227-.5-.717-.806-.944-.307-.505.69-.505.69l-1.013-.887-.385-.725-.68-.335-.258-.58-.152-.099.034.826-.229.783-.287.754.061.842-.65.614-.171.802-.04.83-.414.686-.272.77-.262.79-.496.654-.485.646-.456.698-.46.686-.41.748-.782.427-.569.638-.532.67-.514.693-.618.66-.606.22-.062.757-.744.05-.269.6-.558.3-.444.412-.643.172-.353.556-.586.247-.394.52-.564.3-.529.337-.54.327-.455.477-.513.398-.6.25-.557.313-.601.243-.436.497-.398-.014-.286-.07-.257.057.624-.476.484-.586.714-.336.475-.574.728-.336.162-.8.485-.557.28-.68.53-.49.759-.316-.053-.852.381-.586.377-.574.27-.634.667-.375.134-.71.425-.53.3-.605-.15-.969.532-.503.243-.599.166-.83.359-.566.013-.645-.037-.852.61-.512-.226-.668.213-.531.033-.825.159-.578-.11-.582-.317-.561.268-.588-.003-.529.043-.58-.599.58-.675.643-.53.376-.29.795-.542.085-.531.537-.647.357-.694.296-.764.039-.757-.2-.659-.404-.414-.57-.527-.542-.417-.402-.709-.434.024-.828-.143-.692-.403-.733.617-.597.208-.667.48-.467.366-.619.53-.506.605-.49.51-.454.397-.6.597-.48.287-.66.756-.231.438-.647.53-.396.337-.67.74-.414.296-.675.55-.594.506-.501.47-.363.7-.328.05-.501.322-.15.777-.305.043-.721.102-.042.796-.02.673-.262.363-.581.448.308.15.008-.063-.244.714.097.62.376.596.054.292.461.614.474.53.31.364.607.416.61.626.437.49.501.45.552.622.455.563.383.487.53.397.635.587.352.326.695.697.443.596.424.18.9.599.437.526.3.418.631.366.123.141.352.641.406.277.727-.008.73.031.7-.244.645-.341 1.016s.242-1.113-.196-.764"/><path fill="#C0D72F" d="M191.9 4.316l.698.373c.005.19.705.705.363.66.516.115 1.002 1.038 1.039.465-1.802-1.446-3.246-4.089-6.01-5.381.17-.02.323.027.492.047-1.418-.336-2.17-.923-3.175.074l.046-.383c-.766.148-.968 1.058-1.663 1.26l.14.055c-.118.124-.208.127-.328.252l.09-.004c-.214.425-.418.614-.79.866-.095-.057.111-.184.186-.306-.216.068-.297.49-.537.739-.254.127-.105-.116-.113-.178-.61.862-1.185.941-1.338 1.844.016.119.305-.07.076.238.582-.381.825-.929 1.161-1.48l-.12.125c-.002-.72.337-.191.737-.923-.005.298-.245.547-.265.724.895-.388.706-1.16 1.46-1.247l-.035.06c.13-.058.227-.318.347-.48-.096-.01-.26.118-.387.184.113-.187.032-.42.034-.54.34.007.185-.323.588-.477.214.088-.176.351-.206.544.09-.131.17-.29.283-.407.377-.226.474-.007.684.002.272-.252-.233-.042-.042-.336.492-.086 2.33-.191 3.231.304-.299-.135-.204.137-.52-.076.096.11.572.242.662.125.636.321 1.082.983 1.388 1.502l-.008-.236c.518.162.716 1.034 1.417 1.55l-.01-.017c.215.178.642.074.94.498-.228.033-.406-.176-.516-.02M197.692 9.282c.114.04.149-.031.226-.039-.872-.749-1.987-1.639-2.208-2.051-.24-.298-.523-.14-.938-.417l-.008-.285c-.293-.088-.724-.773-.764-.357 0 .039.29.045.411.235l-.114.054.416.319-.23-.014c.37.611.694.039 1.237.709l-.223.191c.418.399.71.527.958.988 0 0 .113-.096-.004-.122-.06-.076-.064-.237.05-.251.821.433-.232.025.133.515.706.364 1.89 1.201 2.022 1.634-.13-.353.397-.129.697.161.064.197-.23.028-.345.042.122.15.185.306.36.406-.066-.277.22-.313.632-.077-.605-.785-1.59-.952-2.308-1.641"/></svg>