<svg xmlns="http://www.w3.org/2000/svg" viewBox="0 0 200 80"><g fill="#FFF" fill-rule="evenodd"><path fill-rule="nonzero" d="M185.986 28.242l-.857.917-.197.071-.084 1.015-1.046.072-.156.348-.777.418-.55.513-.33.087v10.815c0 .822-.668 1.491-1.492 1.491h-14.993a1.494 1.494 0 01-1.493-1.491V27.504c0-.824.67-1.493 1.493-1.493h14.458l.049-.262.531-.663.097-.195-.187-1.218.787-.749.12-.292.189-.947.31-.491.001-.048a6.53 6.53 0 00-1.362-.146h-14.993A6.512 6.512 0 00159 27.504v14.994c0 3.585 2.919 6.502 6.504 6.502h14.993A6.51 6.51 0 00187 42.498V27.504c0-.187-.012-.371-.028-.554l-.425.536-.561.756M16.126 62.323c-.143-3.628-3.005-5.255-6.44-5.255-2.672 0-5.82 1.022-5.82 4.139 0 2.605 3.052 3.535 5.104 4.047l4.008.885c3.434.51 7.012 2.464 7.012 6.65C19.99 78 14.695 80 10.114 80 4.39 80 .477 77.395 0 71.534h3.006c.24 3.952 3.244 6 7.252 6 2.815 0 6.727-1.21 6.727-4.559 0-2.79-2.672-3.72-5.39-4.372l-3.865-.839C3.817 66.744.86 65.44.86 61.345c0-4.883 4.913-6.744 9.254-6.744 4.915 0 8.826 2.512 9.018 7.722h-3.006zm27.507 16.958h-2.669v-4.45h-.091c-1.519 3.302-4.647 5.17-8.189 5.17-5.981 0-8.327-3.638-8.327-9.38V54.594h2.898V70.67c.139 4.447 1.749 6.793 6.35 6.793 4.967 0 7.13-4.88 7.13-9.904V54.593h2.898V79.28zm20.32-16.958c-.137-3.628-2.897-5.255-6.21-5.255-2.577 0-5.613 1.022-5.613 4.139 0 2.605 2.944 3.535 4.923 4.047l3.864.885c3.313.51 6.763 2.464 6.763 6.65C67.68 78 62.574 80 58.158 80c-5.522 0-9.294-2.605-9.754-8.466h2.9c.228 3.952 3.126 6 6.991 6 2.714 0 6.486-1.21 6.486-4.559 0-2.79-2.575-3.72-5.198-4.372l-3.726-.839c-3.773-1.02-6.626-2.325-6.626-6.419 0-4.883 4.739-6.744 8.927-6.744 4.738 0 8.51 2.512 8.694 7.722h-2.898zm16.348-7.236H85v4.343h-4.7v11.706c0 2.195.543 2.743 2.712 2.743A9.77 9.77 0 0085 73.696v5.077c-1.084.182-2.485.227-3.75.227-3.931 0-7.365-.915-7.365-5.624V59.43H70v-4.343h3.885V48H80.3v7.087zm9.699.546h6.08v4.339h.09c1.172-2.938 4.325-4.972 7.434-4.972.45 0 .99.091 1.396.227v5.965c-.586-.135-1.531-.226-2.297-.226-4.686 0-6.307 3.391-6.307 7.504V79H90V55.633z"/><path d="M119.333 54c-5.523 0-11.19 1.91-11.57 8.254h6.761c.24-2.672 1.906-3.721 4.477-3.721 2.38 0 4.38.429 4.38 3.339 0 2.767-3.857 2.624-7.998 3.243-4.192.574-8.383 1.908-8.383 7.492 0 5.056 3.714 7.393 8.383 7.393 2.999 0 6.14-.812 8.284-3.053.049.811.238 1.62.476 2.385H131c-.62-1-.857-3.243-.857-5.486V61.013c0-5.915-5.906-7.013-10.81-7.013zm-1.571 14.694c2.095-.382 4.475-.43 5.619-1.43v2.527c0 1.479-.19 5.678-5.476 5.678-2.19 0-4.143-.62-4.143-3.15 0-2.48 1.905-3.197 4-3.625z"/><path fill-rule="nonzero" d="M135 55.633h6.402v3.255h.145c1.704-2.623 4.644-3.888 7.49-3.888 7.161 0 8.963 3.842 8.963 9.627V79h-6.733V65.803c0-3.842-1.187-5.74-4.316-5.74-3.652 0-5.217 1.943-5.217 6.689V79H135V55.633zm32.482 15.684c.047 2.958 2.544 4.15 5.234 4.15 1.966 0 4.465-.763 4.465-3.147 0-2.052-2.833-2.768-7.731-3.816-3.937-.86-7.874-2.244-7.874-6.585 0-6.296 5.474-7.919 10.804-7.919 5.426 0 10.419 1.812 10.947 7.872h-6.482c-.192-2.624-2.209-3.34-4.658-3.34-1.536 0-3.791.287-3.791 2.29 0 2.433 3.839 2.768 7.728 3.674 3.985.907 7.876 2.337 7.876 6.917C184 77.9 178.333 80 172.667 80c-5.762 0-11.38-2.147-11.667-8.683h6.482zM16.126 62.323c-.143-3.628-3.005-5.255-6.44-5.255-2.672 0-5.82 1.022-5.82 4.139 0 2.605 3.052 3.535 5.104 4.047l4.008.885c3.434.51 7.012 2.464 7.012 6.65C19.99 78 14.695 80 10.114 80 4.39 80 .477 77.395 0 71.534h3.006c.24 3.952 3.244 6 7.252 6 2.815 0 6.727-1.21 6.727-4.559 0-2.79-2.672-3.72-5.39-4.372l-3.865-.839C3.817 66.744.86 65.44.86 61.345c0-4.883 4.913-6.744 9.254-6.744 4.915 0 8.826 2.512 9.018 7.722h-3.006zm27.507 16.958h-2.669v-4.45h-.091c-1.519 3.302-4.647 5.17-8.189 5.17-5.981 0-8.327-3.638-8.327-9.38V54.594h2.898V70.67c.139 4.447 1.749 6.793 6.35 6.793 4.967 0 7.13-4.88 7.13-9.904V54.593h2.898V79.28zm20.32-16.958c-.137-3.628-2.897-5.255-6.21-5.255-2.577 0-5.613 1.022-5.613 4.139 0 2.605 2.944 3.535 4.923 4.047l3.864.885c3.313.51 6.763 2.464 6.763 6.65C67.68 78 62.574 80 58.158 80c-5.522 0-9.294-2.605-9.754-8.466h2.9c.228 3.952 3.126 6 6.991 6 2.714 0 6.486-1.21 6.486-4.559 0-2.79-2.575-3.72-5.198-4.372l-3.726-.839c-3.773-1.02-6.626-2.325-6.626-6.419 0-4.883 4.739-6.744 8.927-6.744 4.738 0 8.51 2.512 8.694 7.722h-2.898zm16.348-7.236H85v4.343h-4.7v11.706c0 2.195.543 2.743 2.712 2.743A9.77 9.77 0 0085 73.696v5.077c-1.084.182-2.485.227-3.75.227-3.931 0-7.365-.915-7.365-5.624V59.43H70v-4.343h3.885V48H80.3v7.087zm9.699.546h6.08v4.339h.09c1.172-2.938 4.325-4.972 7.434-4.972.45 0 .99.091 1.396.227v5.965c-.586-.135-1.531-.226-2.297-.226-4.686 0-6.307 3.391-6.307 7.504V79H90V55.633z"/><path d="M119.333 54c-5.523 0-11.19 1.91-11.57 8.254h6.761c.24-2.672 1.906-3.721 4.477-3.721 2.38 0 4.38.429 4.38 3.339 0 2.767-3.857 2.624-7.998 3.243-4.192.574-8.383 1.908-8.383 7.492 0 5.056 3.714 7.393 8.383 7.393 2.999 0 6.14-.812 8.284-3.053.049.811.238 1.62.476 2.385H131c-.62-1-.857-3.243-.857-5.486V61.013c0-5.915-5.906-7.013-10.81-7.013zm-1.571 14.694c2.095-.382 4.475-.43 5.619-1.43v2.527c0 1.479-.19 5.678-5.476 5.678-2.19 0-4.143-.62-4.143-3.15 0-2.48 1.905-3.197 4-3.625z"/><path fill-rule="nonzero" d="M135 55.633h6.402v3.255h.145c1.704-2.623 4.644-3.888 7.49-3.888 7.161 0 8.963 3.842 8.963 9.627V79h-6.733V65.803c0-3.842-1.187-5.74-4.316-5.74-3.652 0-5.217 1.943-5.217 6.689V79H135V55.633zm32.482 15.684c.047 2.958 2.544 4.15 5.234 4.15 1.966 0 4.465-.763 4.465-3.147 0-2.052-2.833-2.768-7.731-3.816-3.937-.86-7.874-2.244-7.874-6.585 0-6.296 5.474-7.919 10.804-7.919 5.426 0 10.419 1.812 10.947 7.872h-6.482c-.192-2.624-2.209-3.34-4.658-3.34-1.536 0-3.791.287-3.791 2.29 0 2.433 3.839 2.768 7.728 3.674 3.985.907 7.876 2.337 7.876 6.917C184 77.9 178.333 80 172.667 80c-5.762 0-11.38-2.147-11.667-8.683h6.482zM186.308 0l.014.01a1.33 1.33 0 01.228-.009l.126.009c.182.018.371.061.572.117l.308.042.16.098.082.025c.211.064.437.13.684.188-.085-.01-.165-.026-.245-.038l-.122-.013-.125.004a7.9 7.9 0 01.235.114l.548.052.27.426c.299.197.581.41.85.634l.315.185.113.186.055.05c.989.913 1.805 1.94 2.63 2.803l.17.123.563.383.487.53.214.343c.11.1.225.198.324.228l.003.15.443.266.026.054.07.015c.153.033.284.068.404.217.221.412 1.336 1.302 2.208 2.051-.046.005-.077.032-.12.045l-.046.006-.06-.012.223.192c.688.537 1.54.743 2.085 1.449-.19-.109-.353-.16-.467-.156l-.053.007c-.097.022-.142.098-.111.226-.176-.1-.24-.256-.36-.406h.039c.073.01.177.05.245.054l.036-.003c.03-.008.043-.034.024-.093-.3-.29-.826-.514-.697-.16v-.002l-.037-.084c-.193-.36-.924-.917-1.548-1.3l-.153-.092.091.455.599.436.526.3.418.631.367.123.14.352.641.406.277.727-.008.73.031.7-.244.645-.341 1.016s.242-1.113-.196-.764c-.267.213-1.014.941-.872 1.262.142.32.554.126.554.126l-.156.248-.425.44-.729.263-.66.24-.695.27-.685-.214-.75.158-.342-.232-.27-.183.051.01.078.012c.273.039.846.064.339-.522-.648-.75.227-.5-.717-.806-.901-.293-.542.601-.507.683l.001.005-1.012-.886-.385-.724-.68-.335-.258-.58-.152-.099.034.826-.229.783-.287.754.061.842-.65.614-.171.802-.04.83-.414.686-.273.77-.262.79-.495.654-.485.646-.456.698-.46.686-.41.748-.782.427-.569.638-.532.67-.514.693-.618.66-.606.22-.062.757-.744.05-.269.6-.558.3-.444.412-.643.172-.353.556-.586.247-.394.52-.564.3-.529.337-.54.327-.455.477-.513.398-.6.25-.557.313-.601.243-.436.497-.398-.014-.286-.07-.257.057.624-.476.484-.586.714-.336.475-.574.728-.336.162-.8.485-.557.28-.68.53-.49.759-.316-.053-.852.381-.586.377-.574.27-.634.667-.375.134-.71.425-.53.3-.605-.149-.969.53-.503.244-.599.166-.83.36-.566.012-.645-.037-.852.61-.512-.226-.668.213-.531.033-.825.159-.578-.11-.582-.317-.561.268-.588-.003-.529.043-.58-.599.58-.675.643-.53.376-.29.795-.542.085-.531.537-.647.357-.694.296-.764.039-.757-.2-.659-.404-.414-.57-.527-.542-.417-.402-.709-.434.024-.828-.143-.692-.403-.733.617-.597.208-.667.48-.467.366-.619.53-.506.605-.49.51-.454.397-.6.597-.48.287-.66.756-.231.438-.647.53-.396.337-.67.74-.414.296-.675.304-.328c.26-.371.662-.594 1.079-1.185.005.038-.05.145-.033.192l.176-.137.099-.045c.15-.237.236-.517.408-.57l-.033.045c-.089.107-.236.21-.152.26l.131-.092c.106-.077.197-.15.278-.231l.02-.196.22-.1a2.53 2.53 0 00.14-.247l-.09.004c.12-.125.21-.128.327-.252l-.14-.055c.244-.07.427-.228.595-.409l.088-.099.001-.018.024-.01c.266-.308.52-.64.956-.724l-.046.383.13-.121c.3-.262.579-.385.864-.421l.007-.012zm-1.944 1.044c-.123.152-.113.321-.356.316-.001.088.042.237.02.384l.302-.118z"/></g></svg>