<svg xmlns="http://www.w3.org/2000/svg" width="430" height="80" viewBox="0 0 430 80">
  <path fill="#E52127" d="M407.06,79.86 C420.98,79.86 430.48,72.43 430.48,60.01 C430.48,48.35 421.17,44.58 411.76,41.86 C401.04,38.76 396.33,37.25 396.33,30.29 C396.33,24.29 400.66,20.7 408.28,20.7 C415.9,20.7 420.56,24.18 422.68,31.89 L426.68,31.89 L426.68,18.72 C420.966706,16.2217556 414.795592,14.9412154 408.56,14.96 C395.3,14.96 386.36,22.11 386.36,34.15 C386.36,45.91 395.95,49.48 405.17,52.21 C415.8,55.31 420.6,56.91 420.6,63.87 C420.6,70.27 415.71,74.03 407.43,74.03 C398.96,74.03 393.43,69.89 390.97,60.96 L386.97,60.96 L386.97,75.07 C393.182161,78.3037612 400.097048,79.9526167 407.1,79.87 L407.06,79.86 Z M307.56,30.76 C310.85,23.33 312.92,21.07 317.06,21.07 L317.56,21.07 C321.56,21.07 323.2,23.23 323.2,26.9 L323.2,54.9 C323.2,70.7 334.2,79.83 351.8,79.83 C366.47,79.83 376.35,70.61 376.35,55.66 L376.35,29.82 C376.35,24.08 378.35,22.11 382.65,21.45 L384.53,21.17 L384.53,16.84 L361.35,16.84 L361.35,21.17 L363.23,21.45 C367.56,22.11 369.53,24.08 369.53,29.82 L369.53,55.69 C369.53,67.17 362.48,73.09 352.53,73.09 C342.58,73.09 335.53,67.16 335.53,55.69 L335.53,26.91 C335.53,23.24 336.85,21.74 339.95,21.45 L342.77,21.17 L342.77,16.84 L294.09,16.84 L294.09,21.17 L296.16,21.33 C301.24,21.8 302.84,24.72 300.68,29.8 L285.91,64.13 L270.2,27.47 C268.69,23.99 270.2,21.83 274.43,21.47 L277.43,21.19 L277.43,16.84 L247.62,16.84 L247.62,21.17 L249.51,21.33 C253.27,21.71 254.51,22.65 256.94,28.2 L279.33,78.52 L286.38,78.52 L307.56,30.76 Z M197.77,47.33 C197.77,32.47 204.17,20.8 218.09,20.8 C231.82,20.8 238.5,32.65 238.5,47.51 C238.5,62.37 232.01,73.94 218.09,73.94 C204.36,73.94 197.77,62.18 197.77,47.32 L197.77,47.33 Z M184.6,47.51 C184.6,66.13 198.52,79.87 218.09,79.87 C237.66,79.87 251.67,66.04 251.67,47.32 C251.67,28.6 237.67,14.96 218.09,14.96 C198.51,14.96 184.56,28.79 184.56,47.51 L184.6,47.51 Z M105.56,30.2 C109.98,23.15 112.33,21.08 117.22,21.08 L117.78,21.08 C122.39,21.08 124.37,23.24 124.37,26.91 L124.37,65.66 C124.37,70.93 122.37,72.71 117.97,73.37 L116.09,73.65 L116.09,77.98 L139.46,77.98 L139.46,73.65 L137.56,73.33 C133.14,72.67 131.16,70.88 131.16,65.62 L131.16,32.08 L170.29,78.45 L177.34,78.45 L177.34,29.07 C177.34,23.9 179.34,22.07 183.64,21.45 L185.52,21.17 L185.52,16.84 L162.31,16.84 L162.31,21.17 L164.19,21.45 C168.52,22.11 170.49,23.9 170.49,29.07 L170.49,59.83 L135.12,16.83 L93.12,16.83 L93.12,21.16 L95.06,21.33 C100.14,21.8 101.64,24.25 98.54,29.14 L87.62,46.75 L75.77,27.33 C73.7,23.94 75.02,21.87 78.97,21.5 L81.79,21.22 L81.79,16.84 L52.16,16.84 L52.16,21.17 L54.04,21.33 C57.8,21.71 58.74,22.93 62.04,28.1 L78.32,53.97 L78.32,67.42 C78.32,71.42 76.63,72.97 73.32,73.35 L70.5,73.63 L70.5,77.96 L98.25,77.96 L98.25,73.63 L95.43,73.35 C92.23,73.07 90.54,71.47 90.54,67.42 L90.54,54 L105.56,30.2 Z M26.3,79.86 C42.76,79.86 53.67,71.02 53.67,55.86 C53.67,41.86 42.67,37.61 31.09,33.94 C18.86,30.08 11.71,27.54 11.71,18.61 C11.71,11.08 16.88,6.19 26.29,6.19 C35.7,6.19 40.49,10.19 43.97,21.19 L48.11,21.19 L48.11,4.33 C42.75,1.79 35.79,0 26.76,0 C11.05,0 0.99,8.56 0.99,23 C0.99,37.44 12.19,41.77 23.76,45.44 C35.76,49.2 42.85,51.44 42.85,60.21 C42.85,68.68 37.39,73.66 26.95,73.66 C16.04,73.66 10.11,68.39 6.44,55.88 L2.22,55.88 L2.22,74.13 C7.22,77.13 15.86,79.87 26.3,79.87 L26.3,79.86 Z" transform="translate(-1)"/>
</svg>
