<svg xmlns="http://www.w3.org/2000/svg" width="451.316" height="414.473" viewBox="0 0 451.316 414.473" overflow="visible"><g fill="#486AAE"><path d="M14.616 286.732H116.23v30.922H87.08v74.315H44.736v-74.316h-30.12M167.692 329.252l-21.394 62.717h-40.663l39.88-105.238h44.162L230.52 391.97h-41.164M220.805 286.732h101.61v30.922h-29.142v74.315h-42.34v-74.316h-30.128M373.895 329.252l-21.402 62.717H311.83l39.894-105.238h44.148L436.7 391.97h-41.148"/><path fill-rule="evenodd" clip-rule="evenodd" d="M375.394 93.432c-3.794-7.46-8.79-14.612-15.007-21.318-13.97-15.077-33.678-27.623-57.002-36.276-23.516-8.72-50.338-13.334-77.595-13.334s-54.08 4.614-77.583 13.334c-23.336 8.654-43.046 21.2-57.015 36.276-6.212 6.705-11.225 13.866-15.018 21.33 30.365-7.342 82.306-17.037 130.534-18.062 4.652-.1 7.855 1.39 9.964 4.063 2.57 3.255 2.376 14.858 2.313 20.05l-1.37 134.17c2.715.09 5.444.147 8.175.147 2.754 0 5.498-.045 8.214-.135l-1.37-134.184c-.072-5.19-.27-16.794 2.307-20.05 2.115-2.67 5.307-4.16 9.958-4.062 48.208 1.018 100.137 10.715 130.496 18.052"/><path fill-rule="evenodd" clip-rule="evenodd" d="M381.877 110.88c-44.442-10.047-74.12-11.905-103.405-13.53-25.526-1.42-25.86 7.696-23.31 25.115.166 1.063.37 2.403.614 3.93 8.562 50.713 19.224 94.353 21.056 101.76 62.23-14.225 107.11-53.664 107.11-99.994 0-5.833-.706-11.613-2.065-17.28M196.443 122.465c2.55-17.418 2.224-26.534-23.3-25.115-29.293 1.625-58.98 3.482-103.438 13.536-1.358 5.667-2.072 11.44-2.072 17.274 0 20.024 8.146 39.4 23.56 56.047 13.97 15.077 33.68 27.623 57.015 36.282 8.446 3.126 17.36 5.69 26.54 7.74 1.723-6.94 12.63-51.488 21.285-103.107.16-.99.308-1.902.41-2.658"/></g></svg>