<svg xmlns="http://www.w3.org/2000/svg" width="144.5" height="115.8" viewBox="-95.7 291.4 144.5 115.8"><path fill="#4A266C" d="M-46.6 386.5v-4.8h-17.3v24.9h17.3v-5.1h-10.3V396h8.6v-4.8h-8.6v-4.7h10.3m30.5 15.2h-10.8v-20H-34v24.9h17.9v-4.9m57-10.5c-4.8-1.1-6.5-1.2-6.5-3.1 0-1.8 2.4-2.3 3.7-2.3 2.2 0 4.8.5 7.5 1.9l1.9-4.6c-2.7-1.5-6.2-2.1-9.6-2.1-6.6 0-11 2.7-11.2 7.9-.2 4.8 3.7 6.5 7.2 7.3 3.4.7 6.9 1.3 7 3.3.1 1.9-1.6 2.7-4.8 2.7-2.9 0-5.7-.9-8.5-2.1l-1.6 5c3.2 1.4 6.5 2.1 9.9 2.1 4.7 0 8.1-.7 10.6-3.1 1.7-1.6 2.3-3.6 2.3-5.4.1-4.1-2.4-6.3-7.9-7.5m-114.8-4.6v-4.9h-21.8v4.9h7.4v20h7v-20h7.4M8 381.7v15.8c0 1.2 0 1.6-.1 2.1-.2 1.5-1.7 2.4-4 2.4-1.7 0-3-.5-3.6-1.4-.3-.5-.4-1.3-.4-2.6v-16.3h-7.3v17.2c0 2.4.3 3.5 1.4 4.8 1.8 2.2 5.2 3.4 10 3.4h.3c6.4 0 9.7-2.5 10.6-4.8.5-1.1.5-1.7.5-3.9v-16.6H8m37.4-89.3l-61 12.1v4.3h.1c40.3-9.8 60.9-15.7 61-15.7.3 0 .3-.3.3-.4.1-.1-.1-.3-.4-.3"/><path fill="#6FBE44" d="M-4.2 291.4c-3 .1-8.4 4.6-11.4 7.1-12 10.4-20.9 20-27.4 29.9-13.5 7.3-30.8 14.7-48 20.6l-.4.1-3.3 8.9 1.9-.7c11-4.1 29-12 45.6-20.6-.9 2.5-1.3 4.7-1.3 6.8 0 1.5.3 3 .7 4.3 1 2.7 3.1 4.6 5.9 5.8 4.1 1.6 9.9 1.8 16.6-.3 16.7-5 36.7-20.7 41-23.8l.1-.1c.1-.1.1-.3.1-.4-.1-.1-.3-.1-.4-.1l-.1.1c-4.6 2.8-27.3 16.1-41.9 20.1-7.6 2.1-13.2.9-15.4-2.1-.7-1-1-2.4-1-3.9 0-3 1.3-6.7 4.1-11 2.5-1.3 4.7-2.8 6.8-4.1 14.4-8 30.8-23.7 31.5-33.3v-.1c0-.9-.3-1.6-1-2.4-.8-.6-1.7-.8-2.7-.8zm-1.6 4.5c.9-.6 1.2-.3.9.4-.4 1-2.5 7.7-17.9 20.3-4 3.3-6.8 5.2-12.6 8.6 9.6-13.1 23.3-25.1 29.6-29.3z"/><path fill="#4A266C" d="M-15.8 304.8L-80 318.6l-2.4 6.7 66.8-16.3 2.1-1.2v-3h-2.3"/></svg>