<svg width="127" height="127" viewBox="0 0 127 127" xmlns="http://www.w3.org/2000/svg"><g fill-rule="nonzero" fill="none"><path fill="#FFF" d="M0 0h127v127H0z"/><path d="M.006.005h79.676c6.414 0 12.828-.013 19.229.013-1.774 1.8-3.588 3.588-5.374 5.388.706.747 1.453 1.44 2.16 2.174 1.627-1.12 3.467-2.014 5.467-2.16 1.8-.188 3.614.28 5.267 1 .627.266 1.214.693 1.92.76.694-.04 1.214-.654 1.454-1.268.2-.425.013-.933-.32-1.24-1.546-1.56-3.107-3.093-4.64-4.654 7.387-.04 14.775 0 22.15-.013 0 7.201.012 14.416 0 21.63-1.52-1.493-3.002-3.013-4.509-4.507-.4-.414-1.052-.627-1.6-.373-.36.173-.706.453-.866.84-.2.774.147 1.533.453 2.226.934 1.974 1.347 4.202 1.067 6.375a10.368 10.368 0 01-1.52 4.201c-.213.306-.413.626-.6.947.773.666 1.427 1.466 2.213 2.12 1.76-1.813 3.574-3.587 5.361-5.388 0 12.042.013 24.085 0 36.127-.347.12-.734.36-1.094.186-.48-.306-.84-.76-1.24-1.146-4.32-4.295-8.601-8.629-12.935-12.91-1.72 1.721-3.413 3.454-5.16 5.135.92 1.04 1.947 1.96 2.907 2.96 3.467 3.468 6.934 6.935 10.415 10.402.293.307.64.574.8.974.053.44-.254.813-.374 1.213-.173.467.2 1.027.694 1.04.44.08.813-.213 1.093-.506 1.627-1.641 3.267-3.268 4.894-4.895V127H66.64c1.547-1.546 3.094-3.08 4.641-4.628a8896.683 8896.683 0 01-15.776-15.775c-1.72 1.653-3.373 3.374-5.08 5.04-.36.374-.76.734-.933 1.24-.08.494.373.96.853.987.427-.053.787-.334 1.214-.427.373-.025.667.267.933.508 3.12 3.146 6.254 6.267 9.388 9.401.786.826 1.64 1.573 2.373 2.427.334.374.107.853-.08 1.227H28.076l8.52-8.521c.534-.507 1.08-1.094 1.16-1.867.12-.894-.786-1.788-1.68-1.6-.746.146-1.359.733-2.133.733-.493-.04-.867-.4-1.2-.72-6.788-6.775-13.561-13.562-20.335-20.337-.454-.453-1-.893-1.16-1.548-.027-.772.52-1.4.72-2.106.253-.893-.587-1.867-1.495-1.8-.626.04-1.186.4-1.612.84-2.934 2.974-5.921 5.908-8.855 8.882-.013-32.98 0-65.972 0-98.95" fill="#44536B"/><path d="M91.89 8.158c.12-.132.33-.251.45-.052 9.226 9.22 18.446 18.446 27.66 27.679-3.237 3.237-6.47 6.477-9.7 9.72-.425.398-.94.729-1.523.768-.807.067-1.615-.662-1.548-1.483.026-.807.714-1.43.727-2.251.027-.517-.37-.9-.7-1.259-6.843-6.833-13.672-13.68-20.514-20.527-.384-.37-.807-.834-1.39-.794-.86.012-1.508.807-2.382.715-.503.012-.913-.385-1.165-.795-.344-.715-.026-1.576.49-2.105 3.203-3.206 6.406-6.41 9.595-9.616m13.288 2.689c.264-.49.767-.94 1.362-.861.662.053 1.139.595 1.575 1.033 2.644 2.656 5.291 5.31 7.941 7.96.503.49 1.098.966 1.218 1.695.066.754-.623 1.43-1.35 1.51-.609.013-1.165-.318-1.694-.61-1.125-.662-2.396-1.192-3.733-1.126-.688-.013-1.349.265-1.971.543-.728-.781-1.562-1.483-2.25-2.29.211-.596.49-1.166.53-1.802.092-1.443-.49-2.82-1.219-4.026-.37-.596-.661-1.338-.41-2.026m-58.324 7.02c1.43-1.51 2.939-2.928 4.368-4.424 1.363 1.324 2.686 2.662 4.023 3.999.437.424.04 1.14-.45 1.311-.41.053-.768-.225-1.138-.357-1.43-.702-3.203-.781-4.632-.013-.37.159-.675.476-1.072.542-.397-.317-.728-.714-1.1-1.059m-.898.847c1.945 1.88 3.824 3.828 5.743 5.722 3.005 2.993 5.995 6.013 9.013 9.006-1.72 1.74-3.449 3.47-5.188 5.191-.358.397-1.072.57-1.416.08-.424-.45.04-1.007.172-1.47.159-.345-.119-.65-.344-.887A3963.872 3963.872 0 0143.558 25.97c-.318-.291-.583-.649-.966-.848-.53-.119-.94.358-1.456.385-.397-.04-.767-.437-.714-.848.026-.318.211-.596.436-.821 1.694-1.709 3.415-3.39 5.096-5.126m6.908 2.12c-.172-.437.132-.967.596-1.033.344-.053.622.211.86.437 1.429 1.43 2.858 2.874 4.3 4.29.252.279.61.53.636.94.053.412-.344.809-.767.769-.557 0-.98-.437-1.483-.623-.74-.344-1.64-.37-2.369.027-.383-.384-.768-.781-1.165-1.139.173-.583.332-1.205.186-1.815-.106-.688-.583-1.218-.794-1.854m25.344 1.034c.357-.358.807-.623 1.31-.69.886-.131 1.813.73 1.641 1.63-.119.794-.78 1.43-.728 2.265.132.582.609.98.992 1.39 6.763 6.755 13.526 13.495 20.262 20.263.371.331.741.768 1.271.768.794 0 1.403-.595 2.157-.729.873-.145 1.734.716 1.628 1.59-.053.596-.41 1.113-.82 1.523-3.402 3.39-6.79 6.807-10.191 10.198-.437.437-.992.834-1.64.834-.716.04-1.404-.569-1.496-1.271-.093-.927.767-1.616.74-2.544-.04-.436-.343-.794-.635-1.112-5.942-5.933-11.871-11.88-17.813-17.812 4.91 9.124 9.86 18.223 14.77 27.348.079.132.145.278.211.437-.357.33-.701.688-1.045 1.046-9.834-4.847-19.654-9.748-29.473-14.608-1.549-.768-3.084-1.668-4.83-1.88-.583-.08-.98.397-1.404.702-.437.344-1.02.556-1.561.384-.649-.291-1.099-1.06-.9-1.762.132-.476.463-.874.807-1.219 3.176-3.164 6.34-6.342 9.516-9.495 4.949 2.424 9.912 4.794 14.875 7.218.159.119.33.238.476.397.08-.093.146-.185.225-.278l-.185.026c-2.607-4.966-5.346-9.866-7.954-14.833 3.282-3.257 6.525-6.529 9.794-9.786m-17.377 2.238c.238-.437.913-.49 1.23-.12 1.337 1.351 2.7 2.702 4.05 4.053a507.388 507.388 0 01-4.552 4.543c-.344-.398-.808-.715-1.072-1.179.436-.742.9-1.497 1.019-2.37.225-1.206.027-2.477-.49-3.59-.146-.423-.463-.913-.185-1.337m-22.22 1.986c.264-.278.555-.57.939-.662.384-.079.86.16.913.583.093.463-.251.848-.343 1.297-.054.358.237.61.449.849 3.534 3.535 7.054 7.071 10.588 10.594.238.226.49.504.833.583.424-.04.78-.318 1.192-.41.502-.054.965.49.807.966-.066.358-.344.623-.582.874-1.721 1.722-3.442 3.444-5.162 5.152-.304.305-.701.623-1.152.517a1.002 1.002 0 01-.555-.556c-.132-.583.49-1.06.344-1.643-.132-.225-.318-.397-.49-.582-1.614-1.603-3.216-3.232-4.844-4.834-.567.58-1.14 1.154-1.72 1.721a24.458 24.458 0 01-1.165-1.178c.582-.57 1.152-1.152 1.734-1.722-1.43-1.404-2.846-2.835-4.261-4.252-.305-.29-.57-.608-.927-.82-.648-.212-1.27.701-1.892.198-.504-.357-.344-1.073.066-1.444 1.734-1.761 3.493-3.483 5.227-5.23" fill="#FFF"/><path d="M31.565 33.12c.399-.254.997-.093 1.182.36.186.548-.305 1.015-.319 1.55-.013.28.213.48.386.667 3.679 3.698 7.345 7.394 11.024 11.078.664.721 1.515-.52 2.232.014.465.374.305 1.108-.093 1.455-1.727 1.749-3.467 3.47-5.18 5.219-.28.267-.558.587-.943.707-.426.12-.944-.147-.996-.6-.08-.534.398-.948.371-1.469-.067-.227-.212-.413-.371-.587A3752.344 3752.344 0 0128.43 41.036c-.331-.307-.61-.694-1.049-.855-.478-.026-.876.335-1.341.387-.399.014-.744-.347-.758-.733-.04-.415.253-.748.532-1.028 1.726-1.735 3.453-3.471 5.167-5.206.185-.174.358-.347.584-.48m-9.603 9.544c.797-.775 1.567-1.576 2.364-2.363 1.395 1.362 2.763 2.776 4.158 4.151.239.267.53.507.663.854.16.655-.583 1.375-1.234 1.081-.652-.293-1.17-.814-1.794-1.161-1.049-.654-2.271-1.068-3.52-.92-.358-.374-.757-.722-1.075-1.122.105-.214.279-.36.438-.52m-5.791 5.819c1.487-1.468 2.948-2.95 4.423-4.432 2.791 2.82 5.59 5.631 8.394 8.437 1.54 1.534 3.042 3.097 4.596 4.605.438.494 1.023.08 1.501-.094.478-.213 1.036.214 1.023.72 0 .348-.2.642-.425.882-1.806 1.802-3.587 3.604-5.38 5.407-.252.253-.571.506-.943.48-.412.04-.81-.36-.77-.761.026-.427.358-.774.358-1.202.027-.36-.279-.587-.491-.828-4.237-4.23-8.434-8.502-12.685-12.72.133-.174.253-.334.399-.494m99.685-1.308c1.647 1.628 3.28 3.27 4.902 4.925.517.494.145 1.482-.545 1.59-.638.092-1.13-.415-1.62-.748-1.316-.909-2.87-1.762-4.517-1.482-.438-.4-.863-.815-1.222-1.281 1.023-.988 2.006-2.003 3.002-3.004m-101.04 2.71c.492.186.797.747 1.195 1.094-.212 1.549.518 3.003 1.381 4.218.253.388.558.748.717 1.188.174.588-.398 1.202-.982 1.135-.332 0-.558-.28-.77-.48-1.448-1.47-2.909-2.91-4.357-4.379.956-.908 1.847-1.882 2.816-2.777m29.553 7.53c2.644-.855 5.512-.949 8.235-.388 4.623.988 8.714 3.71 11.982 7.088 3.2 3.257 5.75 7.342 6.614 11.893a16.171 16.171 0 01-.345 7.555c-.704 2.416-1.98 4.646-3.587 6.568-.69-.735-1.447-1.415-2.112-2.163 0-.36.226-.668.293-1.014.358-1.175 0-2.496-.89-3.351-6.561-6.607-13.15-13.214-19.712-19.822-.597-.614-1.354-1.108-2.217-1.174-.705-.094-1.395.16-2.06.4-.265.147-.438-.186-.61-.32-.532-.574-1.116-1.095-1.647-1.682 0-.04-.014-.12-.014-.16a17.677 17.677 0 016.07-3.43m17.905-.735c.611.2 1.17.507 1.74.8 2.14 1.042 4.264 2.123 6.416 3.178.186.093.358.24.518.387 1.806 1.842 3.626 3.657 5.446 5.486a9.448 9.448 0 003.56 2.376c.942.36 2.005.36 2.948.026.478-.16.996-.346 1.501-.186.515.213.868.697.916 1.255-.04.734-.504 1.348-.996 1.855a428.793 428.793 0 01-4.914 4.926c-.438.4-.943.813-1.555.88-.876.133-1.74-.8-1.474-1.655.253-.868.598-1.748.452-2.656-.213-1.522-1.076-2.87-2.032-4.031-3.6-3.63-7.213-7.249-10.825-10.893-.559-.587-1.17-1.12-1.7-1.748m40.51 3.63c.998-1 2.006-2.002 3.003-3.016.438.36.823.788 1.235 1.188-.173 1.335.28 2.656.97 3.778.358.64.876 1.187 1.195 1.855.173.32.053.68-.066 1a17.115 17.115 0 014.317 4.219c1.341 1.909 2.284 4.178 2.23 6.554.014 2.256-.955 4.418-2.377 6.126-.385-.4-.836-.76-1.169-1.214.067-.494.306-.974.186-1.468-.132-.64-.624-1.095-1.062-1.536-3.506-3.51-7-7.02-10.493-10.53-.346-.348-.757-.668-1.25-.708-.464-.054-.929.08-1.353.226-.412-.386-.824-.8-1.222-1.201 1.766-1.522 4.064-2.496 6.415-2.376.903-.026 1.78.187 2.656.387-1.062-1.108-2.192-2.149-3.215-3.283M33.28 68.146c.73-2.042 1.885-3.911 3.254-5.58.677.695 1.395 1.362 2.059 2.07.132.427-.213.827-.28 1.254-.345 1.148.107 2.403.944 3.23 6.455 6.501 12.924 12.988 19.392 19.488.625.682 1.381 1.322 2.338 1.47.85.133 1.687-.16 2.47-.455.718.721 1.435 1.429 2.152 2.15a18.127 18.127 0 01-5.326 3.217c-2.923 1.134-6.19 1.32-9.258.64-4.663-1.028-8.767-3.844-12.047-7.275-3.029-3.19-5.473-7.101-6.336-11.466-.584-2.896-.398-5.966.638-8.743m60.368 3.858c.16-2.029 1.05-3.964 2.379-5.486.384.4.797.8 1.194 1.2-.145.482-.372.989-.238 1.496.08.454.384.814.703 1.135 3.507 3.51 6.987 7.034 10.494 10.544.411.4.81.882 1.394 1.042.532.147 1.076-.04 1.594-.2.399.4.81.8 1.196 1.228-1.674 1.387-3.76 2.363-5.964 2.363-2.139.093-4.237-.668-6.017-1.79-1.289-.827-2.47-1.828-3.453-2.99.464 1.562.359 3.311-.372 4.78-.718 1.44-1.833 2.616-2.936 3.75-.398-.4-.81-.815-1.222-1.215.346-.56.572-1.228.359-1.882-.252-.668-.797-1.148-1.275-1.655a600.35 600.35 0 00-2.976-3.003c-.584-.548-1.209-1.175-2.045-1.229-.492-.052-.93.201-1.342.441-.411-.4-.81-.814-1.222-1.214 1.594-1.615 3.414-3.284 5.752-3.578 1.912-.32 3.838.507 5.193 1.829-.85-1.709-1.381-3.631-1.196-5.566m-70.012 4.658c.399-.387.917-.68 1.475-.72.916-.054 1.753.907 1.5 1.802-.199.68-.69 1.28-.717 2.015.053.64.585 1.095 1.01 1.522l20.455 20.556c.319.307.677.614 1.129.654.77 0 1.368-.574 2.099-.747.876-.174 1.753.627 1.713 1.508-.027.6-.359 1.148-.77 1.575l-10.294 10.345c-.452.44-1.01.827-1.66.827-.797.027-1.541-.733-1.475-1.548.08-.8.744-1.441.758-2.27-.027-.493-.413-.867-.718-1.214-3.055-3.083-6.123-6.14-9.165-9.21-.12-.093-.279-.36-.452-.174-1.062 1.028-2.085 2.11-3.148 3.137-.717-.72-1.434-1.441-2.152-2.175a101.203 101.203 0 013.161-3.177c0-.054.014-.174.014-.228-2.882-2.842-5.712-5.726-8.58-8.595-.439-.414-.851-.935-1.461-1.082-.837-.054-1.488.6-2.272.748-1.01.173-1.926-.975-1.58-1.923.172-.667.703-1.148 1.168-1.601 3.32-3.35 6.655-6.674 9.962-10.025m59.307 3.605c1.594 1.494 3.095 3.096 4.662 4.631a5897.14 5897.14 0 008.953 9.01c.212.174.41.414.69.467.572.054 1.023-.507 1.594-.4.346.12.664.454.625.84 0 .521-.44.882-.758 1.229-1.873 1.856-3.72 3.737-5.592 5.593-.411.454-1.182.227-1.434-.28-.372-.628.637-1.296.107-1.869a4598.42 4598.42 0 01-11.544-11.6c-.278-.253-.517-.574-.85-.748-.57-.16-1.022.321-1.553.388-.412-.04-.81-.4-.785-.828-.04-.467.306-.827.598-1.134 1.767-1.763 3.534-3.537 5.287-5.3M71.094 92.16c1.58-1.562 3.12-3.177 4.728-4.713 1.422 1.442 2.856 2.87 4.278 4.312.477.467-.027 1.175-.519 1.388-.345.04-.664-.173-.97-.306-1.221-.602-2.63-.895-3.97-.548-.85.174-1.595.654-2.339 1.094-.398-.413-.796-.827-1.208-1.227m-6.456 6.5c1.834-1.869 3.693-3.697 5.526-5.553 2.975 2.95 5.91 5.954 8.9 8.903 2.284 2.283 4.542 4.593 6.84 6.862-1.78 1.841-3.612 3.63-5.393 5.459-.252.28-.61.44-.943.587-.332-.12-.744-.24-.85-.613-.199-.628.452-1.122.372-1.736-.266-.52-.73-.895-1.13-1.308l-9.682-9.731c-.571-.534-1.05-1.174-1.727-1.575-.677-.134-1.288.734-1.939.266-.557-.36-.398-1.16.026-1.56m12.884-3.31c-.212-.548.293-1.19.864-1.096.265.067.464.24.65.427 1.395 1.416 2.803 2.804 4.185 4.218.451.468 1.036.868 1.222 1.535-.173.294-.359.695-.757.735-.652.066-1.13-.454-1.714-.668a2.84 2.84 0 00-2.563.014c-.425-.428-.837-.855-1.262-1.268.292-.628.425-1.348.212-2.016-.16-.681-.61-1.242-.837-1.882m8.541 3.484c.279-.427.956-.494 1.288-.094 1.435 1.456 2.897 2.897 4.317 4.365-1.633 1.602-3.2 3.284-4.874 4.846-.385-.414-.797-.815-1.196-1.229 1.421-1.761 1.62-4.311.665-6.34-.174-.48-.545-1.068-.2-1.548" fill="#FFF"/><path d="M.006 103.528c.527-.211 1.028-.54 1.609-.528.698.132 1.134.752 1.62 1.213 6.632 6.603 13.237 13.219 19.855 19.821.37.41.844.818.91 1.398-.027.566-.33 1.067-.566 1.568-7.819-.013-15.623-.013-23.428-.013 0-7.816-.013-15.644 0-23.46" fill="#44536B"/><path d="M62.45 103.03c2.314-.205 4.616.668 6.527 1.992 1.496 1.051 2.887 2.266 3.953 3.78 1.275 1.789 2.055 3.973 2.069 6.224.038 2.566-.924 5.16-2.666 6.974-.401-.407-.796-.82-1.184-1.242.234-.463.507-.955.43-1.5-.13-.82-.664-1.489-1.197-2.048l-8.778-9.213c-.598-.614-1.275-1.283-2.16-1.35-.48-.055-.91.204-1.312.45-.378-.437-.898-.765-1.132-1.31 1.43-1.543 3.381-2.621 5.45-2.757z" fill="#FFF"/></g></svg>