<svg xmlns="http://www.w3.org/2000/svg" viewBox="-23.4 347.4 446.3 100.8"><path fill="none" d="M-55 322h500v147.9H-55"/><path fill="#13007A" d="M400.1 418.4h-3.8v-1.3h10.2v1.3h-3.8v6.5h-2.6M408.2 417.1h4.2l3.1 5.9h.1l3.1-5.9h4.2v7.8h-2.5v-6.4l-3.6 6.4h-2.5l-3.6-6.4v6.4h-2.5M182.6 448.2l5.9-17.7 17.4 5.2-10.5-10.3 193.1-3.6v-1.6l-193.1-3.6 10.5-10.3-17.4 5.2-5.9-17.6-5.9 17.6-17.4-5.2 10.5 10.3-193.2 3.6v1.6l193.2 3.6-10.5 10.3 17.4-5.2M29 347.4h11.8v12.5h23.6v-12.5h11.8v31H64.4v-13.6H40.8v13.6H29M112.3 346.8c18.5 0 28.9 6.6 28.9 16s-10.2 16.1-28.9 16.1c-18.9 0-28.9-6.6-28.9-16.1.1-9.5 10.2-16 28.9-16zm0 27.2c12.1 0 16.5-5.6 16.5-11.2 0-5.5-4.8-11.1-16.5-11.1s-16.5 5.6-16.5 11.1c0 5.6 4.5 11.2 16.5 11.2zM149.1 347.4h19.4l14.1 18.3 14.1-18.3h19.4v31h-11.8v-25.6h-.2l-21.5 27.5-21.5-27.5-.2.1v25.5h-11.8M303.3 346.8c18.5 0 28.9 6.6 28.9 16s-10.2 16.1-28.9 16.1c-18.9 0-28.9-6.6-28.9-16.1 0-9.5 10.1-16 28.9-16zm0 27.2c12.1 0 16.5-5.6 16.5-11.2 0-5.5-4.8-11.1-16.5-11.1s-16.5 5.6-16.5 11.1c-.1 5.6 4.4 11.2 16.5 11.2zM263.3 353c-4.4-.8-9.2-1.3-14.1-1.3-4.8 0-10.9.9-10.9 4.3 0 5.4 30.3 3.1 30.3 13.6 0 6.8-12 9.4-26 9.4-7.5 0-10.9-.4-17.7-1.2l1.3-5.6c4.8 1.2 10.2 1.9 15.7 1.9 5.3 0 12.3-1.2 12.3-4 0-5.9-30.3-3.5-30.3-13.8 0-7 12-9.5 24.2-9.5 5.9 0 11.5.4 16.5 1.1l-1.3 5.1zM339.1 347.4h15l22.5 23.2h.1v-23.2h11.8v31h-14.9l-22.5-23.2h-.2v23.2h-11.8M-6.5 352.3h-16.9v-4.9h45.6v4.9H5.3v26.1H-6.5"/></svg>