<svg xmlns="http://www.w3.org/2000/svg" viewBox="0 0 303.7 88.3"><path fill="#3D3D3D" d="M218.7 0h12.8v5.5h-12.8zM218.7 9.1h13v39.1h-13zM210.2 0h-12.9v9.1h-5.5V14h5.5v34.1h12.9V14h4.6V9.1h-4.6M271.7 21.7v-5.4c0-2.2-1.3-4-3.8-5.3-2.9-1.6-7.1-2.4-12.5-2.4-6.1 0-10.6.8-13.3 2.4-3.1 1.9-4.6 5.2-4.6 9.8v16c0 4.6 1.5 7.8 4.6 9.7 2.7 1.6 7.2 2.4 13.3 2.4 5.4 0 9.6-.8 12.5-2.3 2.6-1.4 3.8-3.2 3.8-5.4v-5.4H260v5.4c0 .7-.5 1.3-1.3 1.9-.9.6-2.1.9-3.6.9-3.2 0-4.9-.9-4.9-2.7V16.2c0-1.8 1.6-2.7 4.9-2.7 1.5 0 2.7.3 3.6.9.9.6 1.3 1.2 1.3 1.9v5.4h11.7zM95.5 41.5c0 1.1-1.6 1.7-4.7 1.7-3.7 0-5.6-.7-5.6-2V9H72v32.4c0 4.7 4.2 7.1 12.7 7.1 1.1 0 2.6-.1 4.5-.1 1.9-.1 3.1-.1 3.7-.1 1 0 2-.2 2.8-.5v9.1c0 .7-.5 1.3-1.5 1.9-1 .5-2.2.8-3.8.8-1.5 0-2.8-.3-3.8-.9-1-.6-1.5-1.2-1.5-1.9v-5.4H72v5.4c0 2.1 1.7 3.9 5.1 5.4 3.4 1.5 7.9 2.3 13.5 2.3 6.1 0 10.6-.8 13.3-2.4 3.1-1.9 4.6-5.2 4.6-9.8V9h-13v32.5zM19.3 0H6.4v9.1H0V14h6.4v34.1h12.9V14h6.4V9.1h-6.4M60.1 9.2c-1.9-.5-5-.8-9.3-.8-3.3 0-5.9.4-7.7 1.1V0H30.8v48.1h12.5V13.8h7c2 0 2.9.9 2.9 2.6v31.7H65V14.5c.1-2.6-1.6-4.4-4.9-5.3zM144.7 11c-2.9-1.6-7.1-2.4-12.5-2.4-6.1 0-10.6.8-13.3 2.4-3.1 1.9-4.6 5.2-4.6 9.8v16c0 4.6 1.5 7.8 4.6 9.7 2.7 1.6 7.2 2.4 13.3 2.4 5.4 0 9.6-.8 12.5-2.3 2.6-1.4 3.8-3.2 3.8-5.4v-5.4h-11.6v5.4c0 .7-.5 1.3-1.3 1.9-.9.6-2.1.9-3.6.9-3.2 0-4.9-.9-4.9-2.7V16.2c0-1.8 1.6-2.7 4.9-2.7 1.5 0 2.7.3 3.6.9.9.6 1.3 1.2 1.3 1.9v5.4h11.6v-5.4c0-2.2-1.3-4-3.8-5.3z"/><linearGradient id="a" gradientUnits="userSpaceOnUse" x1="236.149" y1="56.551" x2="236.149" y2="88.301"><stop offset=".316" stop-color="#81BC00"/><stop offset="1" stop-color="#638C1C"/></linearGradient><path fill="url(#a)" d="M208.6 56.6h23l32 31.7h-24.7"/><path fill="#3D3D3D" d="M184.4 10.5c-2.9-1.6-7.1-2.4-12.5-2.4-6.1 0-10.6.8-13.3 2.4-3.1 1.9-4.6 5.2-4.6 9.8v16c0 4.6 1.5 7.8 4.6 9.7 2.7 1.6 7.2 2.4 13.3 2.4 5.4 0 9.6-.8 12.5-2.3 2.6-1.4 3.8-3.2 3.8-5.4V15.8c0-2.2-1.2-4-3.8-5.3zm-7.8 25.7v4.5c0 .7-.4 1.3-1.3 1.9-.9.6-2.1.9-3.6.9-3.2 0-4.9-.9-4.9-2.7V15.7c0-1.8 1.6-2.7 4.9-2.7 1.5 0 2.7.3 3.6.9.9.6 1.3 1.2 1.3 1.9v20.4z"/><path fill="#81BC00" d="M303.7 35.9h-23.8l6.2 6.2-47.2 46.2h24.7l33.8-35 6.3 6.2"/></svg>