<svg xmlns="http://www.w3.org/2000/svg" viewBox="0 0 274.7 64.4"><g fill="#FFF"><path d="M213.2 0h-12.9v9.1h-5.5V14h5.5v34.1h12.9V14h4.6V9.1h-4.6M187.5 10.2c-1.4-.7-3.3-1.2-5.8-1.6l2 2-4.3 4.3-1.1 1.1-.3.3v25.4c0 1.2-1.3 1.9-3.7 2.1v-7.1L170 41l-.2.2-4.1 4.1 4.1 4.1.2.2 4.3 4.3v-5.2c6.1-.1 10.5-.8 13.2-2.1 2.5-1.2 3.7-3.2 3.7-5.9V16.3c0-2.8-1.2-4.8-3.7-6.1zM221.7 0h12.8v5.5h-12.8zM221.7 9.1h13v39.1h-13zM274.7 21.7v-5.4c0-2.2-1.3-4-3.8-5.3-2.9-1.6-7.1-2.4-12.5-2.4-6.1 0-10.6.8-13.3 2.4-3.1 1.9-4.6 5.2-4.6 9.8v16c0 4.6 1.5 7.8 4.6 9.7 2.7 1.6 7.2 2.4 13.3 2.4 5.4 0 9.6-.8 12.5-2.3 2.6-1.4 3.8-3.2 3.8-5.4v-5.4H263v5.4c0 .7-.5 1.3-1.3 1.9-.9.6-2.1.9-3.6.9-3.2 0-4.9-.9-4.9-2.7V16.2c0-1.8 1.6-2.7 4.9-2.7 1.5 0 2.7.3 3.6.9.9.6 1.3 1.2 1.3 1.9v5.4h11.7zM167.2 39.4V15.3c0-1.1 1.1-1.8 3.3-2.1v6l4.3-4.3.2-.2 4.1-4.1-4.1-4.1-.2-.2-4.3-4.3v6.2c-11.1.3-16.6 3-16.6 8.1v24.6c0 3.9 3.4 6.4 10.2 7.4l-2.9-2.9 4.3-4.3 1.7-1.7zM144.7 11c-2.9-1.6-7.1-2.4-12.5-2.4-6.1 0-10.6.8-13.3 2.4-3.1 1.9-4.6 5.2-4.6 9.8v16c0 4.6 1.5 7.8 4.6 9.7 2.7 1.6 7.2 2.4 13.3 2.4 5.4 0 9.6-.8 12.5-2.3 2.6-1.4 3.8-3.2 3.8-5.4v-5.4h-11.6v5.4c0 .7-.5 1.3-1.3 1.9-.9.6-2.1.9-3.6.9-3.2 0-4.9-.9-4.9-2.7V16.2c0-1.8 1.6-2.7 4.9-2.7 1.5 0 2.7.3 3.6.9.9.6 1.3 1.2 1.3 1.9v5.4h11.6v-5.4c0-2.2-1.3-4-3.8-5.3zM19.3 0H6.4v9.1H0V14h6.4v34.1h12.9V14h6.4V9.1h-6.4M95.5 41.5c0 1.1-1.6 1.7-4.7 1.7-3.7 0-5.6-.7-5.6-2V9H72v32.4c0 4.7 4.2 7.1 12.7 7.1 1.1 0 2.6-.1 4.5-.1 1.9-.1 3.1-.1 3.7-.1 1 0 2-.2 2.8-.5v9.1c0 .7-.5 1.3-1.5 1.9-1 .5-2.2.8-3.8.8-1.5 0-2.8-.3-3.8-.9-1-.6-1.5-1.2-1.5-1.9v-5.4H72v5.4c0 2.1 1.7 3.9 5.1 5.4 3.4 1.5 7.9 2.3 13.5 2.3 6.1 0 10.6-.8 13.3-2.4 3.1-1.9 4.6-5.2 4.6-9.8V9h-13v32.5zM60.1 9.2c-1.9-.5-5-.8-9.3-.8-3.3 0-5.9.4-7.7 1.1V0H30.8v48.1h12.5V13.8h7c2 0 2.9.9 2.9 2.6v31.7H65V14.5c.1-2.6-1.6-4.4-4.9-5.3z"/></g></svg>