<svg xmlns="http://www.w3.org/2000/svg" width="1242" height="428" viewBox="0 0 1242 428">
  <g fill="none">
    <g fill="#26588D">
      <path d="M0 0L153.78 0C153.79 12.93 153.78 25.85 153.79 38.78 132.29 38.84 110.8 38.77 89.31 38.81 89.3 115.65 89.33 192.5 89.3 269.34 71.44 269.28 53.57 269.29 35.71 269.33 35.69 192.5 35.7 115.66 35.71 38.82 23.8 38.78 11.9 38.81 0 38.81L0 0zM545.42 0L615.67 0C622.15.43 628.62 1.44 634.89 3.16 647.77 6.66 660.24 14.38 666.34 26.64 671.48 36.26 671.52 47.44 671.3 58.07 671.3 112.38 671.32 166.7 671.29 221.01 671.32 233.37 666.73 246.02 657.32 254.3 645.26 264.98 628.7 268.66 613 269.27 590.51 269.4 568.02 269.19 545.53 269.37 545.29 179.58 545.5 89.79 545.42 0L545.42 0zM599.06 38.75C599.02 102.65 599 166.56 599.07 230.47 603.5 230.06 608.35 231.34 612.49 229.32 617.35 225.51 617.39 218.65 617.67 213 617.76 161.68 617.66 110.36 617.72 59.03 617.61 53.83 617.68 48.38 615.49 43.55 614.53 41.26 612.5 39.4 610.02 38.94 606.38 38.6 602.71 38.87 599.06 38.75zM685.69 0L734.03 0C733.99 13.69 734.09 27.37 733.98 41.06 717.88 41.03 701.78 41.02 685.69 41.06 685.68 27.37 685.69 13.69 685.69 0zM1133.12 13.37C1149.19 13.57 1165.27 13.29 1181.35 13.51 1181.27 26.57 1181.31 39.64 1181.33 52.71 1185.72 52.69 1190.11 52.7 1194.52 52.68 1194.67 64.62 1194.53 76.57 1194.59 88.52 1190.18 88.59 1185.77 88.6 1181.37 88.5 1181.23 132.01 1181.36 175.52 1181.3 219.03 1181.41 223.31 1181.58 228.09 1184.48 231.53 1187.4 234.25 1191.72 233.26 1195.35 233.49 1195.27 245.42 1195.36 257.36 1195.3 269.29 1181.33 268.85 1167.1 270.63 1153.37 267.39 1146.25 265.78 1139.51 261.24 1136.8 254.25 1132.08 242.45 1133.14 229.43 1132.95 216.99 1132.94 174.18 1132.96 131.36 1132.94 88.55 1128.68 88.57 1124.44 88.56 1120.19 88.57 1120.19 76.62 1120.23 64.67 1120.18 52.72 1124.42 52.69 1128.67 52.68 1132.93 52.7 1133.08 39.59 1132.73 26.48 1133.12 13.37zM175.44 59.5C180.54 53.11 188.88 49.96 196.92 50.17 208.12 49.82 218.53 56.17 225.36 64.7 227.7 67.44 228.99 70.96 231.68 73.41 232.27 66.52 231.84 59.6 232 52.69 248.09 52.68 264.18 52.68 280.27 52.69 280.37 125.12 280.26 197.55 280.32 269.98 280.36 282.85 276.51 296.59 266.49 305.28 254.88 315.36 238.82 317.7 223.96 317.82 209.57 317.68 194.17 315.64 182.47 306.55 172.78 299.13 168 286.94 167.19 275.04 166.76 267.5 166.97 259.93 167.06 252.38 183.16 252.57 199.26 252.27 215.36 252.53 215.26 259.37 215.27 266.21 215.31 273.06 215.4 276.62 216.16 280.67 219.28 282.86 222.58 285.3 227.62 284.16 229.85 280.81 231.56 278.22 231.99 275 231.99 271.96 231.97 257.31 231.98 242.65 231.98 228 232.06 226.6 231.76 225.28 231.09 224.05 226.47 232.83 218.97 240.32 209.43 243.53 199.51 246.88 187.58 246.49 178.92 240.13 169.8 233.13 167.01 220.97 166.98 210.04 166.95 169.36 166.97 128.68 166.96 88 167.05 78.02 168.99 67.42 175.44 59.5L175.44 59.5zM220.3 90.45C216.4 92.3 215.32 97 215.31 100.95 215.28 132.3 215.31 163.66 215.3 195.01 215.28 198.47 215.66 202.23 217.93 205.02 220.81 208.48 226.92 208.13 229.52 204.49 231.57 201.78 232.01 198.27 231.98 194.97 231.99 163.99 231.96 133.01 232 102.03 232.05 98.52 231.42 94.69 228.89 92.07 226.76 89.77 223.12 89.06 220.3 90.45zM307.74 63.81C319.25 53.77 335.02 49.89 350.02 50.19 366.02 50.06 382.82 55.03 394.17 66.76 402.19 75.04 406.14 86.6 406.27 98.01 406.35 121.61 406.25 145.2 406.31 168.8 384.67 168.74 363.03 168.87 341.38 168.74 341.21 187.15 341.39 205.56 341.3 223.97 341.27 227.62 341.6 231.9 344.6 234.43 347.47 236.95 352.2 236.67 354.81 233.91 357.32 231.27 357.88 227.44 357.96 223.95 358.07 210.37 357.87 196.79 358.04 183.21 374.16 183.27 390.28 183.09 406.4 183.3 406.18 192.53 406.35 201.76 406.29 210.99 406.22 220.32 406.94 229.92 403.9 238.91 400.22 250.76 391 260.41 379.84 265.6 365.37 272.43 348.63 273.46 333.07 270.4 319.51 267.65 306.28 260.19 299.16 247.99 295.07 241.08 293.01 233.06 292.95 225.05 292.95 182.36 292.95 139.66 292.95 96.97 292.98 84.51 298.25 72 307.74 63.81L307.74 63.81zM344.62 87.67C342.01 89.93 341.25 93.61 341.3 96.92 341.31 109.92 341.35 122.93 341.28 135.93 346.84 136 352.4 135.96 357.97 135.96 357.97 123.63 357.99 111.3 357.99 98.96 357.91 95.68 357.67 92.16 355.77 89.36 353.42 85.81 347.89 84.82 344.62 87.67zM491.94 51.19C502.39 49.21 514.77 49.27 523.15 56.77 530.4 63.71 531.75 74.46 532.03 84 531.95 112.54 532.16 141.08 531.92 169.61 515.83 169.47 499.74 169.75 483.66 169.46 483.75 146.66 483.66 123.85 483.72 101.05 483.75 98.1 483.15 95 481.27 92.65 478.74 89.13 472.86 88.67 469.96 91.97 467.41 94.6 467.15 98.47 467.05 101.93 466.96 157.74 467.13 213.54 466.97 269.35 450.88 269.26 434.79 269.31 418.7 269.32 418.69 197.1 418.67 124.89 418.71 52.68 434.79 52.7 450.87 52.68 466.95 52.68 467.14 58.98 466.96 65.27 467.11 71.57 472.56 62.08 480.81 53.43 491.94 51.19zM822.02 50.97C832.4 49.3 844.8 49.49 852.75 57.39 859.9 64.98 860.83 76.05 861.03 85.97 861 113.84 861.16 141.72 860.95 169.59 844.84 169.53 828.74 169.68 812.63 169.51 812.74 147 812.62 124.5 812.7 102 812.74 98.33 812.15 94.17 809.2 91.64 806.27 88.88 800.94 89.11 798.52 92.43 795.48 96.27 796.08 101.45 796.01 106.03 796 160.47 796.08 214.91 795.97 269.35 779.89 269.25 763.8 269.32 747.71 269.32 747.64 197.11 747.74 124.9 747.66 52.69 763.78 52.66 779.9 52.72 796.03 52.67 796.05 58.94 796 65.2 796.1 71.47 801.67 61.66 810.47 52.87 822.02 50.97zM887.52 64.67C899.1 53.96 915.46 49.84 930.93 50.19 946.7 50.11 963.27 54.93 974.54 66.41 982.79 74.69 986.93 86.4 986.99 97.98 987.08 121.58 987.02 145.18 987.02 168.78 965.37 168.79 943.72 168.81 922.08 168.77 921.95 187.51 922.04 206.25 922.02 224.99 921.98 228.59 922.76 232.75 925.96 234.91 929.56 237.52 935.12 235.8 937.03 231.89 938.89 228.24 938.71 224.02 938.71 220.04 938.62 207.79 938.79 195.55 938.62 183.3 954.73 183.09 970.85 183.28 986.97 183.19 987.12 196.12 986.98 209.06 987.04 221.99 987.22 233.73 983.74 245.93 975.55 254.6 965.59 265.66 950.59 270.75 936.07 271.82 919.64 272.92 901.95 269.72 889.09 258.82 879.4 250.86 873.98 238.41 873.7 225.98 873.7 183 873.72 140.01 873.69 97.03 873.72 84.98 878.61 72.9 887.52 64.67L887.52 64.67zM926.14 86.97C922.97 89.19 921.98 93.34 922.01 97 922.01 109.98 922.02 122.97 922.03 135.96 927.59 135.96 933.16 136.01 938.72 135.93 938.64 123.61 938.71 111.28 938.69 98.95 938.63 95.49 938.35 91.73 936.17 88.88 933.87 85.91 929.37 85.19 926.14 86.97zM1027.58 55.54C1043.09 49.07 1060.86 48.53 1076.99 52.93 1091.67 56.89 1105.15 67.34 1110.11 82.06 1113.71 91.3 1112.64 101.32 1112.78 110.99 1112.78 116.74 1112.77 122.49 1112.79 128.24 1096.69 128.4 1080.58 128.24 1064.48 128.32 1064.36 117.9 1064.47 107.48 1064.43 97.06 1064.45 93.98 1063.69 90.8 1061.7 88.4 1058.8 85.24 1053.12 85.13 1050.35 88.5 1048.22 91.16 1047.86 94.73 1047.8 98.01 1047.79 138.67 1047.82 179.34 1047.78 220 1047.81 224.17 1047.45 228.65 1049.56 232.44 1051.35 235.78 1055.99 237.28 1059.34 235.37 1063.12 233.5 1064.54 228.92 1064.45 224.96 1064.39 211.06 1064.5 197.16 1064.37 183.26 1080.51 183.15 1096.65 183.24 1112.79 183.21 1112.79 197.13 1112.77 211.06 1112.79 224.98 1112.77 238.11 1106.81 251.24 1096.4 259.36 1083.47 269.74 1066.15 272.93 1049.94 271.81 1035.41 270.81 1020.42 265.66 1010.57 254.5 1002.83 246.01 999.42 234.35 999.43 223.02 999.44 183.67 999.43 144.32 999.43 104.97 999.23 96.55 999.67 87.88 1002.94 80 1007.25 68.81 1016.67 60.17 1027.58 55.54z"/>
      <path d="M105.07 52.68C121.14 52.69 137.22 52.69 153.3 52.68 153.32 124.9 153.32 197.12 153.3 269.35 137.18 269.26 121.06 269.3 104.94 269.34 105.06 197.12 104.8 124.9 105.07 52.68zM685.72 52.71C701.83 52.64 717.94 52.73 734.05 52.66 733.92 124.89 734.18 197.13 733.92 269.36 717.84 269.24 701.76 269.32 685.69 269.32 685.71 197.12 685.64 124.92 685.72 52.71zM1209.93 241.93C1215.09 235.05 1225.41 232.9 1232.9 237.1 1237.44 239.32 1240.47 243.73 1242 248.44L1242 258.55C1240.54 263.28 1237.43 267.59 1233.02 269.95 1226.1 273.64 1216.77 272.46 1211.28 266.74 1204.78 260.32 1204.14 249.01 1209.93 241.93L1209.93 241.93zM1221.47 238.53C1215.15 239.8 1210.45 245.66 1209.88 251.97 1208.83 260.23 1215.49 268.69 1223.97 268.88 1232.81 269.36 1239.94 260.46 1238.77 251.95 1238.17 243.66 1229.86 236.44 1221.47 238.53z"/>
      <path d="M1217.41,243.46 C1221.79,243.25 1227.11,241.99 1230.69,245.31 C1232.96,248.03 1231.66,251.92 1229.07,253.91 C1231.16,257 1231.54,260.78 1232.47,264.31 C1231.51,264.32 1229.59,264.34 1228.63,264.34 C1228,262.01 1227.6,259.6 1226.73,257.34 C1225.74,255.15 1222.97,255.74 1221.06,255.46 C1221.02,258.39 1221.01,261.33 1221.03,264.27 C1220.14,264.29 1218.38,264.34 1217.49,264.37 C1217.35,257.4 1217.46,250.43 1217.41,243.46 L1217.41,243.46 Z M1221.05,245.95 C1221.04,248.25 1221.05,250.56 1221.12,252.87 C1223.62,252.58 1228.5,252.78 1227.96,248.97 C1227.53,245.66 1223.48,246.09 1221.05,245.95 Z"/>
    </g>
    <g fill="#FEC301" transform="translate(301 294)">
      <path d="M817.83 5C829.79.93 842.81-.49 855.29 1.78 868.66 3.42 882.65 8.75 890.57 20.24 894.52 26.49 897.12 33.89 896.66 41.36 890.33 41.06 883.93 41.85 877.69 40.54 876.75 35.02 874.38 29.6 870.01 25.96 862.6 19.59 852.39 18.11 842.95 17.84 833.51 17.53 823.11 19.51 816.17 26.36 811.61 30.71 811.59 37.59 812.74 43.33 815.29 49.75 822.5 52.41 828.74 53.79 841.83 56.27 855.02 58.21 868.11 60.66 877.91 62.75 888.03 66.4 894.79 74.15 899.82 79.79 901.36 87.64 901.22 94.99 900.61 104.12 897.26 113.31 890.56 119.76 881.34 128.89 868.16 131.96 855.78 134L835.82 134C823.32 131.54 809.91 128.79 800.42 119.61 791.9 111.8 788.27 99.98 788.56 88.65 794.81 88.51 801.07 88.53 807.34 88.59 808.12 93.8 809.04 99.24 812.19 103.62 816.92 110.65 825.2 114.13 833.25 115.68 840.62 116.94 848.19 118.06 855.64 116.7 863.55 115.67 871.87 113.4 877.54 107.45 880.54 104.37 881.19 99.99 882.36 96.04 881.37 91.98 880.48 87.54 877.05 84.76 871.35 79.99 863.79 78.38 856.61 77.39 843.75 74.9 830.61 73.74 817.96 70.24 809.68 67.5 801.16 63.32 796.48 55.6 790.83 46.15 791.24 34.13 795.38 24.19 799.93 15.15 808.21 8.14 817.83 5zM291 2.84C299.23 1.35 307.65-.09 316.01 1.2 327.4 1.83 338.86 4.86 348.33 11.4 357.69 18.09 363.66 29.74 362.71 41.3 356.69 41.23 350.67 41.23 344.66 41.32 342.94 35.9 341.22 30.09 336.79 26.21 330.49 20.79 322.08 18.82 313.99 18.12 304.61 17.77 294.46 17.67 286.39 23.23 280.98 26.1 278.39 32.18 277.68 37.99 277.52 43.92 282.19 48.37 286.84 51.3L286.83 48.31C287.91 49.58 288.77 50.99 289.78 52.33 305.59 56.53 322.04 57.74 337.95 61.54 344.89 63.31 351.8 65.94 357.38 70.55 362.63 74.88 366.51 81.16 367.15 88.02 368.52 99.85 364.81 112.71 355.8 120.81 346.73 128.98 334.44 131.72 322.81 134L302.84 134C290.21 131.84 276.69 129.06 267.08 119.92 258.49 112.12 254.03 100.08 255.35 88.57 261.61 88.55 267.87 88.53 274.14 88.6 274.13 96.19 277.09 104.05 283.37 108.64 292.76 116.23 305.44 117.07 317.03 116.76 326.01 116.81 335.66 114.83 342.54 108.7 347.96 104.02 349.01 95.84 346.68 89.35 343.82 83.58 337.55 80.7 331.64 79.07 314.57 75.05 296.73 74.36 280.04 68.71 270.67 65.5 262.09 58.25 259.7 48.32 258.2 39.05 258.3 28.78 263.75 20.71 269.53 10.94 280.34 5.53 291 2.84zM691.89 8.92C700.91 3.32 711.56 1.7 721.97.98 737.8.52 755.03 3.22 767.44 13.87 774.88 20.8 779.87 30.98 778.71 41.31 772.49 41.23 766.26 41.26 760.05 41.26 759.36 33.63 754.87 26.53 748.06 22.94 740.17 18.61 730.87 17.83 722.04 17.84 713.19 18.22 703.45 20.4 697.52 27.51 694.96 31.6 692.64 36.82 694.4 41.64 695.96 47.42 701.59 50.92 706.96 52.66 724 57.02 741.78 57.92 758.67 62.93 768.54 65.8 778.14 72.23 781.86 82.19 784.97 92.22 783.25 103.27 778.79 112.64 778.57 112.87 778.15 113.34 777.93 113.58 769.61 127 753.27 131.46 738.68 134L718.82 134C705.98 131.82 692.21 128.92 682.59 119.45 674.27 111.66 670.11 99.84 671.38 88.56 677.5 88.56 683.62 88.57 689.74 88.51 690.38 92.19 690.77 95.97 692.26 99.43 694.8 105.64 700.27 110.12 706.25 112.85 716.12 117.25 727.19 116.97 737.76 116.67 746.08 115.8 755.1 113.25 760.62 106.54 764.55 101.63 763.96 95.05 763.29 89.2 760.26 85.67 756.89 82.19 752.37 80.67 742.46 76.95 731.74 76.48 721.44 74.38 708.39 72.04 693.86 70.73 683.69 61.25 677.44 56.15 674.81 47.91 674.86 40.06 674.03 27.52 680.99 15.06 691.89 8.92zM.57 4.53C9.66 3.08 18.9 4.23 28.07 3.81 35.04 4.42 42.02 3.48 49 4 61.34 3.86 73.88 3.06 86.03 5.72 94.73 7.54 103.01 12.84 107.04 20.94 109.07 26.94 111.24 33.35 109.93 39.75 109.03 45.11 107.78 50.8 103.86 54.84 100.94 58.5 96.78 60.77 92.72 62.95 101.52 65 109.05 70.99 112.96 79.13 116.16 89.36 116.6 101.02 111.66 110.78 107.14 119.77 98.67 126.4 88.97 128.97 82.14 130.7 75 131.33 67.97 131.16 46.97 131.44 25.99 130.82 4.99 131.32 3 131.57.06 130.64.61 128.09.62 86.9.71 45.71.57 4.53L.57 4.53zM20.42 21.28C20.26 21.94 19.93 23.25 19.77 23.91 20.69 28.58 20.26 33.32 19.82 38.01 19.84 43.87 20.81 49.74 19.46 55.54 22.93 56.5 26.51 55.72 30.04 55.8 44.72 55.9 59.4 55.69 74.09 55.91 78.17 55.9 82.11 54.08 85.31 51.63 92.06 45.2 92.44 33.52 86.52 26.43 81.94 21.92 75.16 20.95 69 21.25 56.31 21.39 43.65 20.6 30.99 21.06 27.46 21.57 23.92 20.4 20.42 21.28L20.42 21.28zM20.4 73.31C20.2 75.2 20.05 77.1 19.94 79.01 20.89 85.03 19.62 91.04 20.01 97.07 19.52 102.57 21.06 108.11 19.5 113.54 33.66 114.29 47.82 113.75 62 113.87 72.39 114.63 84.39 114.04 92.22 106.23 96.51 99.19 97.91 89.84 93.47 82.54 88.8 75.07 79.36 72.77 71.09 72.95 67.41 73.46 63.7 73.34 60.03 72.96 54.02 73.76 48 72.96 42 72.71 34.82 73.47 27.6 73.11 20.4 73.31zM124.83 4.32C131.32 3.54 137.85 3.8 144.33 4.53 144.14 30.7 144.37 56.86 144.25 83.03 144.03 91.34 145.49 100.34 151.44 106.59 159.18 114.93 171.16 116.83 181.99 117.32 190.88 117.03 200.1 115.58 207.78 110.82 215.85 105.9 220.02 96.23 220.04 87.01 219.65 79.34 219.91 71.66 219.68 63.99 219.92 58.32 220.35 52.65 219.89 46.97 220.42 40.31 219.3 33.66 219.87 27 220.73 19.5 219.35 12 219.67 4.49 226.24 3.89 232.87 3.44 239.44 4.48 239.26 27.32 239.41 50.17 239.36 73.02 239.27 81.62 239.95 90.39 237.66 98.79 235.39 109.79 228.84 120.27 218.8 125.7 210.97 130.77 201.61 132.02 192.71 134L170.96 134C164.87 132.31 158.5 131.65 152.61 129.24 143.6 125.93 135.79 119.44 130.99 111.12 126.63 102.81 124.85 93.29 124.79 83.97 124.96 69.3 124.55 54.62 125.1 39.96 124.52 28.08 125.33 16.2 124.83 4.32zM380.53 4.43C387.11 3.67 393.78 3.47 400.34 4.57 400.51 14.73 399.56 24.92 400.16 35.02 400.4 66.01 400.25 97 400.23 127.99 400.04 128.63 399.64 129.91 399.44 130.55 393.96 131.15 388.45 131.47 382.93 131.29 382.35 131.03 381.19 130.49 380.61 130.22 380.61 88.29 380.77 46.36 380.53 4.43zM420.36 4.34C426.88 3.48 433.47 3.81 440.04 3.82 442.35 3.41 443.64 5.51 444.93 7.03 466.49 33.83 488.26 60.44 509.74 87.31 514.06 92.49 518.08 97.92 522.56 102.98 523.83 87.7 522.64 72.29 523.03 56.96 522.9 48.97 522.76 40.98 523.17 33 522.48 23.43 523.2 13.86 523.15 4.29 529.66 3.61 536.23 3.66 542.75 4.33 543.14 7.86 543.33 11.42 543.18 14.98 543.11 44.99 543.27 75 543 105 543.23 113.52 543.57 122.09 542.6 130.57 536.03 131.08 529.46 131.33 522.89 131.42 521.57 130.68 520.1 130.17 519.1 129 507.42 114.66 495.95 100.13 484.31 85.75 475.65 75.4 467.19 64.89 458.86 54.28 452.49 47.03 447.11 38.96 440.44 31.97 439.57 42.96 440.79 54.01 440.02 65.01 439.67 70.35 440.74 75.67 440.02 81.01 440.57 96.33 440.17 111.68 440.23 127.01 439.96 128.18 439.71 129.37 439.47 130.56 433.16 131.74 426.7 131.4 420.37 130.57 420.04 128.72 419.65 126.87 419.7 124.99 419.8 115 419.57 104.99 419.96 95.02 419.7 86.02 419.81 77 419.87 68.01 419.63 60.02 419.63 52.01 419.87 44.02 420.5 40.7 419.68 37.37 419.71 34.05 419.81 24.14 419.4 14.22 420.36 4.34zM561.55 4.46C568.68 3.41 575.9 3.98 583.08 3.82 603.04 4 623 3.72 642.96 3.89 649.79 4.54 656.67 3.06 663.45 4.43 663.26 9.77 663.35 15.11 663.41 20.45 659.3 21.14 655.11 21.47 650.97 21 639.64 21.39 628.29 21.35 616.96 21.16 611.31 20.26 605.64 21.44 599.98 21.2 596.64 21.38 593.33 20.63 590.01 21.03 586.92 20.77 583.73 20.68 580.8 21.8 581.16 32.56 581.4 43.35 580.91 54.12 581.05 55.25 581.23 56.39 581.45 57.52 588.27 56.39 595.25 57.53 602.07 56.76 607.03 57.72 612.02 56.48 616.99 57 622.63 56.58 628.3 56.63 633.95 56.89 641.96 57.25 650.01 56.75 658 57.08 658.67 57.15 660 57.3 660.67 57.37 661.66 62.8 660.89 68.28 660.71 73.74 639.8 74.76 618.87 73.7 597.96 73.9 592.38 74.62 586.77 73.38 581.2 74.19 581.21 87.4 580.8 100.62 581.27 113.81 604.17 114.6 627.07 113.61 649.98 114.17 655.1 114.57 660.33 113.19 665.37 114.51 665.24 119.91 664.75 125.3 664.72 130.71 656.85 132.29 648.87 130.37 640.97 131.15 635.63 130.64 630.25 131.59 624.94 130.59L624.1 131.44C621.06 131.13 618.01 130.7 614.98 131.11 610.31 131.6 605.64 131.1 600.99 130.81 592.36 131.52 583.69 131.35 575.05 131.12 570.56 130.87 566.04 131.47 561.61 130.43 561.49 88.44 561.6 46.45 561.55 4.46z"/>
    </g>
  </g>
</svg>
