<svg xmlns="http://www.w3.org/2000/svg" width="300" height="119" viewBox="0 0 300 119">
  <path fill="#22B6F0" d="M0,44.798 C0,46.22 0.755,47.592 2.082,48.33 C4.039,49.415 6.498,48.697 7.584,46.74 C20.146,24.107 42.267,9.086 67.454,9.086 C89.383,9.086 111.646,22.651 125.97,42.824 C118.507,53.261 109.27,61.682 99.697,67.218 C102.207,63.234 103.891,58.602 103.891,53.622 C103.891,34.988 87.579,19.884 67.454,19.884 C43.603,19.884 24.269,38.614 24.269,61.72 C24.269,90.794 48.765,114.758 80.323,118.023 L80.741,118.042 C82.8139447,118.041773 84.5526069,116.477408 84.771,114.416 C84.8843421,113.348065 84.5683513,112.278893 83.8926779,111.444149 C83.2170045,110.609406 82.2371166,110.077617 81.169,109.966 C53.686,107.132 32.366,86.613 32.366,61.72 C32.366,43.085 48.074,27.98 67.454,27.98 C83.105,27.98 95.794,39.461 95.794,53.622 C95.794,64.672 86.037,73.865 75.551,73.865 C65.118,73.865 56.658,66.614 56.658,57.671 C56.658,51.707 61.49,46.873 67.454,46.873 C72.11,46.873 75.981,50.244 76.759,54.68 C76.9453303,55.7380082 77.5443826,56.6786389 78.4243347,57.2949055 C79.3042869,57.9111721 80.3930353,58.1525774 81.451,57.966 C83.6506671,57.5730485 85.1182017,55.4750374 84.733,53.274 C83.289,45.035 76.104,38.776 67.454,38.776 C57.021,38.776 48.562,47.234 48.562,57.671 C48.562,71.087 60.644,81.959 75.551,81.959 C96.341,81.959 120.269,66.491 135.699,42.824 C120.173,18.02 93.79,0.989 67.454,0.989 C39.234,0.99 14.46,17.694 0.51,42.824 C0.17478072,43.4278764 -0.000759550447,44.1073205 0,44.798 L0,44.798 Z M160.313,6.165 L160.313,30.489 C160.313,32.987 158.71,34.161 156.687,34.161 L156.594,34.161 C154.574,34.161 152.969,32.987 152.969,30.489 L152.969,6.165 L146.384,6.165 C144.692,6.165 143.794,5.268 143.794,3.623 L143.794,3.53 C143.794,1.884 144.692,0.99 146.384,0.99 L166.9,0.99 C168.594,0.99 169.487,1.884 169.487,3.53 L169.487,3.623 C169.487,5.268 168.594,6.165 166.9,6.165 L160.313,6.165 L160.313,6.165 Z M179.507,30.772 C179.507,32.987 178.146,34.16 176.123,34.16 L176.028,34.16 C174.005,34.16 172.64,32.987 172.64,30.772 L172.64,12.47 C172.64,10.116 173.58,8.986 175.888,8.986 L176.028,8.986 C178.332,8.986 179.507,10.445 179.507,13.88 L179.507,30.77 L179.507,30.772 Z M176.123,7.295 C174.052,7.295 172.355,5.695 172.355,3.67 C172.355,1.647 174.052,-1.77635684e-15 176.123,-1.77635684e-15 C178.19,-1.77635684e-15 179.84,1.647 179.84,3.67 C179.84,5.695 178.19,7.295 176.123,7.295 L176.123,7.295 Z M192.12,15.48 L192.12,30.772 C192.12,32.986 190.751,34.16 188.73,34.16 L188.635,34.16 C186.615,34.16 185.252,32.986 185.252,30.772 L185.252,12.47 C185.252,10.117 186.24,8.987 188.498,8.987 L188.638,8.987 C190.336,8.987 191.464,9.788 191.885,11.907 C194.097,10.214 197.345,8.847 200.684,8.847 C203.224,8.847 205.531,9.602 206.565,11.999 C209.061,10.07 212.445,8.847 215.695,8.847 C219.178,8.847 222.14,10.447 222.14,15.765 L222.14,30.773 C222.14,32.987 220.777,34.161 218.754,34.161 L218.661,34.161 C216.636,34.161 215.271,32.987 215.271,30.773 L215.271,17.507 C215.271,15.153 214.471,14.354 212.404,14.354 C210.424,14.354 208.588,14.964 207.129,15.526 L207.129,30.772 C207.129,32.986 205.766,34.16 203.743,34.16 L203.646,34.16 C201.623,34.16 200.256,32.986 200.256,30.772 L200.256,17.507 C200.256,15.153 199.461,14.354 197.387,14.354 C195.411,14.354 193.624,14.964 192.121,15.48 L192.12,15.48 Z M233.428,18.964 L242.604,18.964 C242.462,14.588 241.008,13.176 238.322,13.176 C235.924,13.176 233.946,14.353 233.428,18.964 L233.428,18.964 Z M233.338,23.104 C233.662,28.044 236.018,29.41 239.831,29.41 C243.971,29.41 244.956,27.385 246.558,27.385 C247.828,27.385 248.628,28.231 248.628,29.737 L248.628,29.881 C248.628,31.199 247.924,32.139 246.51,32.843 C244.722,33.737 242.274,34.255 238.792,34.255 C230.702,34.255 226.277,29.455 226.277,21.691 C226.277,13.741 231.455,8.847 238.322,8.847 C245.946,8.847 249.382,13.554 249.382,19.999 C249.382,21.975 248.299,23.105 246.088,23.105 L233.338,23.105 L233.338,23.104 Z M177.602,43.893 C178.024,41.871 179.2,40.883 180.801,40.883 L180.943,40.883 C183.388,40.883 184.378,42.717 183.858,45.021 L177.884,70.101 C177.131,73.255 175.53,74.29 173.033,74.29 L172.757,74.29 C170.213,74.29 168.614,73.206 167.86,70.01 L163.861,52.503 L163.768,52.503 L159.768,70.1 C159.061,73.255 157.416,74.29 154.923,74.29 L154.639,74.29 C152.099,74.29 150.498,73.255 149.745,70.054 L143.957,45.632 C143.347,42.95 144.475,40.882 147.159,40.882 L147.347,40.882 C149.086,40.882 150.497,42.057 150.969,44.175 L155.393,64.974 L155.487,64.974 L160.335,44.506 C160.942,41.962 162.167,40.883 164.236,40.883 L164.332,40.883 C166.354,40.883 167.58,41.962 168.19,44.549 L173.177,64.974 L173.27,64.974 L177.602,43.894 L177.602,43.893 Z M199.308,68.124 L199.308,63.42 C198.141707,63.2237556 196.96067,63.1284027 195.778,63.135 C193.004,63.135 191.213,64.123 191.213,66.523 C191.213,68.926 192.769,70.009 195.072,70.009 C196.768,70.009 198.18,69.159 199.308,68.124 L199.308,68.124 Z M199.685,71.61 C197.894,73.583 195.545,74.336 192.534,74.336 C187.92,74.336 184.532,71.794 184.532,66.901 C184.532,61.723 188.673,59.184 194.366,59.184 C196.392,59.184 197.8,59.372 199.308,59.747 L199.308,57.397 C199.308,55.138 198.084,53.962 194.79,53.962 C190.933,53.962 190.227,55.891 188.393,55.891 C187.119,55.891 186.322,54.854 186.322,53.54 L186.322,53.396 C186.322,51.89 186.928,50.902 188.722,50.198 C190.558,49.49 192.909,48.971 195.875,48.971 C202.695,48.971 206.179,51.233 206.179,56.926 L206.179,70.806 C206.179,73.157 205.373,74.287 203.166,74.287 L203.026,74.287 C201.379,74.287 200.251,73.397 199.685,71.61 L199.685,71.61 Z M218.362,52.362 C219.965,50.572 222.645,49.069 224.57,49.069 C226.075,49.069 227.019,49.819 227.019,51.849 L227.019,51.986 C227.019,54.009 226.124,54.906 224.102,55.092 C221.608,55.279 219.87,55.705 218.551,56.218 L218.551,70.9 C218.551,73.116 217.186,74.288 215.161,74.288 L215.07,74.288 C213.045,74.288 211.682,73.116 211.682,70.9 L211.682,52.6 C211.682,50.244 212.672,49.116 214.928,49.116 L215.07,49.116 C216.713,49.116 217.892,50.199 218.362,52.362 L218.362,52.362 Z M237.607,55.61 L237.607,70.902 C237.607,73.115 236.242,74.29 234.219,74.29 L234.122,74.29 C232.099,74.29 230.734,73.113 230.734,70.902 L230.734,52.599 C230.734,50.243 231.724,49.115 233.986,49.115 L234.122,49.115 C235.818,49.115 236.95,49.917 237.37,52.079 C239.675,50.339 243.16,48.973 246.501,48.973 C250.076,48.973 253.135,50.339 253.135,55.891 L253.135,70.901 C253.135,73.115 251.765,74.29 249.743,74.29 L249.65,74.29 C247.627,74.29 246.266,73.113 246.266,70.902 L246.266,57.63 C246.266,55.188 245.323,54.48 243.202,54.48 C241.091,54.48 239.159,55.043 237.607,55.61 L237.607,55.61 Z M264.428,59.088 L273.602,59.088 C273.462,54.714 272.001,53.302 269.321,53.302 C266.919,53.302 264.943,54.479 264.428,59.088 L264.428,59.088 Z M264.334,63.228 C264.664,68.171 267.014,69.534 270.824,69.534 C274.967,69.534 275.953,67.514 277.556,67.514 C278.821,67.514 279.623,68.357 279.623,69.863 L279.623,70.009 C279.623,71.323 278.919,72.267 277.507,72.971 C275.72,73.865 273.271,74.379 269.792,74.379 C261.697,74.379 257.272,69.583 257.272,61.819 C257.272,53.869 262.45,48.971 269.321,48.971 C276.943,48.971 280.38,53.678 280.38,60.127 C280.38,62.103 279.294,63.229 277.085,63.229 L264.335,63.229 L264.334,63.228 Z M291.34,52.362 C292.938,50.572 295.622,49.069 297.55,49.069 C299.054,49.069 300,49.819 300,51.849 L300,51.986 C300,54.009 299.103,54.906 297.08,55.092 C294.587,55.279 292.845,55.705 291.526,56.218 L291.526,70.9 C291.526,73.116 290.163,74.288 288.14,74.288 L288.047,74.288 C286.022,74.288 284.654,73.116 284.654,70.9 L284.654,52.6 C284.654,50.244 285.644,49.116 287.903,49.116 L288.047,49.116 C289.694,49.116 290.869,50.199 291.339,52.362 L291.34,52.362 Z M159.51,114.557 C150.005,114.557 143.795,108.343 143.795,97.807 C143.795,87.267 150.524,80.867 160.075,80.867 C162.995,80.867 165.25,81.244 167.18,82.085 C168.965,82.889 169.815,83.972 169.815,85.666 L169.815,85.806 C169.815,87.549 168.785,88.63 167.373,88.63 C165.299,88.63 164.125,86.184 159.933,86.184 C154.525,86.184 151.323,90.184 151.323,97.52 C151.323,105.521 154.196,109.29 159.842,109.29 C165.066,109.29 165.535,106.04 167.842,106.04 C169.349,106.04 170.29,107.077 170.29,108.63 L170.29,108.863 C170.29,110.603 169.395,111.873 167.182,113.005 C165.346,113.942 162.382,114.557 159.509,114.557 L159.51,114.557 Z M188.496,108.25 L188.496,103.545 C187.32936,103.352279 186.148425,103.259276 184.966,103.267 C182.188,103.267 180.401,104.253 180.401,106.651 C180.401,109.051 181.953,110.134 184.26,110.134 C185.954,110.134 187.366,109.29 188.496,108.249 L188.496,108.25 Z M188.871,111.735 C187.081,113.709 184.731,114.465 181.722,114.465 C177.109,114.465 173.722,111.921 173.722,107.026 C173.722,101.853 177.859,99.311 183.556,99.311 C185.578,99.311 186.991,99.499 188.496,99.875 L188.496,97.524 C188.496,95.268 187.275,94.084 183.98,94.084 C180.121,94.084 179.413,96.016 177.581,96.016 C176.305,96.016 175.506,94.981 175.506,93.665 L175.506,93.525 C175.506,92.015 176.118,91.032 177.906,90.324 C179.742,89.618 182.096,89.1 185.059,89.1 C191.879,89.1 195.363,91.358 195.363,97.053 L195.363,110.935 C195.363,113.287 194.566,114.419 192.354,114.419 L192.212,114.419 C190.562,114.417 189.437,113.522 188.872,111.735 L188.871,111.735 Z M207.738,95.595 L207.738,108.297 C208.915,109.24 210.231,109.755 212.209,109.755 C215.033,109.755 217.759,108.535 217.759,102.087 C217.759,95.688 215.313,94.374 212.305,94.374 C210.939,94.374 209.148,94.934 207.738,95.595 L207.738,95.595 Z M207.738,85.9 L207.738,91.83 C209.574,90.278 212.021,89.101 215.222,89.101 C219.972,89.101 224.724,92.207 224.724,101.474 C224.724,111.03 219.503,114.509 214.187,114.509 C210.986,114.509 208.724,113.569 207.034,112.155 C206.326,113.618 205.151,114.415 203.97,114.415 L203.835,114.415 C201.95,114.415 200.867,113.427 200.867,110.935 L200.867,84.491 C200.867,82.231 201.81,81.005 204.113,81.005 L204.259,81.005 C206.659,81.005 207.738,82.464 207.738,85.899 L207.738,85.9 Z M236.111,85.9 L236.111,111.03 C236.111,113.238 234.746,114.415 232.721,114.415 L232.628,114.415 C230.601,114.415 229.24,113.236 229.24,111.029 L229.24,84.492 C229.24,82.232 230.181,81.006 232.486,81.006 L232.628,81.006 C234.981,81.006 236.111,82.465 236.111,85.899 L236.111,85.9 Z M247.64,99.215 L256.813,99.215 C256.673,94.843 255.217,93.431 252.529,93.431 C250.133,93.431 248.155,94.608 247.639,99.215 L247.64,99.215 Z M247.542,103.357 C247.872,108.299 250.224,109.665 254.04,109.665 C258.18,109.665 259.167,107.638 260.765,107.638 C262.035,107.638 262.835,108.486 262.835,109.991 L262.835,110.133 C262.835,111.452 262.131,112.396 260.721,113.097 C258.929,113.992 256.485,114.509 253.001,114.509 C244.913,114.509 240.486,109.711 240.486,101.947 C240.486,93.995 245.666,89.102 252.529,89.102 C260.155,89.102 263.591,93.806 263.591,100.253 C263.591,102.229 262.508,103.357 260.297,103.357 L247.542,103.357 L247.542,103.357 Z M271.547,93.846 L272.253,93.846 C272.877,93.846 273.103,93.566 273.103,93.056 C273.103,92.606 272.877,92.296 272.253,92.296 L271.547,92.296 L271.547,93.846 L271.547,93.846 Z M274.371,95.854 C274.653,96.361 274.341,96.819 273.837,96.819 L273.807,96.819 C273.47,96.819 273.243,96.615 273.017,96.193 L272.227,94.751 L271.547,94.751 L271.547,96.166 C271.547,96.646 271.265,96.819 270.894,96.819 L270.841,96.819 C270.472,96.819 270.159,96.647 270.159,96.166 L270.159,92.296 C270.159,91.616 270.612,91.393 271.094,91.393 L272.366,91.393 C273.778,91.393 274.456,91.985 274.456,93.055 C274.456,93.706 274.115,94.215 273.551,94.497 L274.371,95.854 L274.371,95.854 Z M272.196,98.284 C274.541,98.284 276.296,96.759 276.296,94.158 C276.296,91.561 274.541,90.034 272.196,90.034 C269.822,90.034 268.07,91.558 268.07,94.158 C268.07,96.759 269.822,98.284 272.196,98.284 L272.196,98.284 Z M272.196,99.214 C269.342,99.214 267.027,97.266 267.027,94.158 C267.027,91.052 269.342,89.101 272.197,89.101 C274.993,89.101 277.369,91.051 277.369,94.158 C277.369,97.266 274.993,99.214 272.196,99.214 L272.196,99.214 Z"/>
</svg>
