<svg width="681" height="253" viewBox="0 0 681 253" xmlns="http://www.w3.org/2000/svg"><g fill="#44536b" fill-rule="evenodd"><path d="M39.857 183.205c-1.987-4.314-3.031-10.134-2.839-16.317h5.676c.206 6.199-.851 12.003-2.837 16.317zm38.946-62.242c-1.273-3.309-3.462-5.414-6.949-6.281-.524-.127-9.538-2.39-21.293-3.361.055-.166.11-.333.169-.5 1.841-5.199 4.599-9.722 8.62-13.48 1.069-1.01 2.197-1.969 3.453-2.731 1.026-.62 2.129-.959 3.333-.909a36.71 36.71 0 012.665.229c1.061.111 2.112.264 3.19.17 1.747-.161 2.783-1.069 3.105-2.791.051-.229.059-.475.068-.705a14.47 14.47 0 00-.332-3.876c-1.068-4.683-3.707-8.111-8.068-10.18-1.077-.51-2.214-.832-3.419-.849-2.977-.068-5.115 2.019-5.132 4.997-.009 1.137.238 2.205.662 3.249.152.399.314.781.458 1.179.45 1.358.263 2.63-.5 3.835-.493.781-1.112 1.443-1.825 2.027-1.866 1.536-3.622 3.19-5.226 5.006-3.932 4.446-6.783 9.413-8.348 14.988l-.815-.033c-.971-.024-1.935-.002-2.917-.002-.994 0-1.424-.018-2.384.002l-.763.031c-1.565-5.574-4.416-10.54-8.347-14.986-1.604-1.816-3.36-3.47-5.226-5.006-.713-.584-1.332-1.246-1.825-2.027-.763-1.205-.95-2.477-.5-3.835.144-.398.306-.78.458-1.179.424-1.044.671-2.112.662-3.249-.017-2.978-2.155-5.065-5.132-4.997-1.205.017-2.342.339-3.42.849-4.36 2.069-6.999 5.497-8.067 10.18a14.47 14.47 0 00-.332 3.876c.009.23.017.476.068.705.322 1.722 1.358 2.63 3.105 2.791 1.078.094 2.129-.059 3.19-.17a36.71 36.71 0 012.665-.229c1.204-.05 2.307.289 3.333.909 1.256.762 2.384 1.721 3.453 2.731 4.021 3.758 6.779 8.281 8.62 13.48.057.162.111.325.165.487-10.691.805-18.321 2.638-20.941 3.224-3.325.746-5.661 2.693-7.08 5.774a10.343 10.343 0 00-.925 4.469c.017.811.155 1.638.3 2.449.868 5.085.769 4.503 1.84 9.556.924 4.274 3.018 14.181 3.935 18.447.981 4.534 3.544 7.874 7.615 10.031 2.101 1.112 4.346 1.618 6.706 1.626 2.514.017 7.227-.004 9.732-.004.42 2.917.322 3.606.322 5.436 0 2.149-1.751 5.09-4.196 5.677-2.444.587-7.487 1.699-9.12 2.213-4.043 1.273-5.192 4.344-5.192 6.58 0 .438.159 1.268.159 1.268h.003l-.003.005h54.554l-.003-.005h.003s.158-.83.158-1.268c0-2.236-1.148-5.307-5.191-6.58-1.634-.514-6.676-1.626-9.121-2.213-2.444-.587-4.196-3.528-4.196-5.677 0-1.83-.098-2.519.322-5.436v.004c2.506-.009 7.282.033 9.788 0 .843-.008 1.695-.052 2.506-.214 5.734-1.152 9.57-4.509 11.483-10.024.325-.957.511-1.963.73-2.96 1.249-5.661 2.514-11.305 3.723-16.965.632-2.993 1.151-5.99 1.743-8.986.154-.781.323-1.811.382-2.879.073-1.33-.178-2.635-.658-3.893zM124.419 252.016h1.5v-252h-1.5zM547.769 168.704h76.906V96.983h-76.906v71.721zm1.392-91.633h74.11c21.271 0 27.313 6.306 27.313 26.531v58.56c0 20.478-6.308 26.257-27.313 26.257h-74.11c-21.267 0-27.313-5.514-27.313-26.257v-58.56c0-20.225 6.046-26.531 27.313-26.531zM477.572 77.115l-42.913 79.489-42.91-79.489h-28.991l61.174 111.265h21.601l61.166-111.265h-29.127M247.796 188.38h-25.868V96.955h-51.107v-19.84h128.303v19.84h-51.328v91.425M318.441 188.38h25.76v-85.755h-25.76zM318.441 96.955h25.76v-19.84h-25.76zM480.69 207.834c-14.248 6.283-29.772 9.739-46.005 9.739-16.248 0-31.77-3.462-46.018-9.749l-5.014 8.696c15.778 6.785 32.999 10.524 51.032 10.524 18.03 0 35.258-3.739 51.048-10.524l-5.043-8.686M671.09 86.77c1.333 0 2.087-.696 2.087-1.682 0-1.101-.754-1.681-2.087-1.681h-2.493v3.363h2.493zm-4.465-5.102h4.638c2.262 0 3.944 1.101 3.944 3.247 0 1.681-.986 2.725-2.378 3.13l2.725 3.885h-2.377l-2.435-3.537h-2.145v3.537h-1.972V81.668zm12.872 5.334v-.058c0-4.929-3.827-8.987-8.929-8.987-5.045 0-8.929 4.117-8.929 9.045v.058c0 4.928 3.826 8.987 8.929 8.987 5.045 0 8.929-4.117 8.929-9.045zm-19.018.058v-.058c0-5.508 4.464-10.147 10.089-10.147 5.682 0 10.088 4.58 10.088 10.089v.058c0 5.508-4.463 10.147-10.088 10.147-5.682 0-10.089-4.581-10.089-10.089z"/></g></svg>