<svg version="1.1" id="Layer_1" xmlns="http://www.w3.org/2000/svg" x="0" y="0" viewBox="0 0 175.7 56.1" xml:space="preserve"><style>.st0{fill-rule:evenodd;clip-rule:evenodd;fill:#fff}</style><path class="st0" d="M28.3 11c-.6-4.9-2.9-8.9-5.2-8.9-2.5 0-4.6 3.5-5.4 8.9h-.4c-4.9-1-7.6-2.5-7.6-4.3 0-2.7 5.8-4.8 13-4.8 7.4 0 13.6 2.1 13.6 4.8 0 1.8-3.1 3.6-8 4.3zM46 14.9C46 6.4 35.9 0 22.9 0 10.1 0 0 6.4 0 14.7c0 8.5 10.1 15 23.1 15 12.6 0 22.9-6.6 22.9-14.8zm-21.3 13c2.7-2.5 3.9-6.8 3.9-13.2l.2-.2c6.7-.9 11.2-3.8 11.2-6.8v-.3c1.9 2.1 2.7 4.3 2.7 6.8 0 7.1-7.9 13.1-18 13.7zM6 7.2c-.2.2-.2.2-.2.5 0 3.1 4.5 5.8 11.4 6.8l.2.2v.4c0 6.2 1.4 10.5 3.9 12.8-10.6-.9-18-6.6-18-13.9 0-2.2.8-4.7 2.7-6.8zm20.2 4.2H20l-.4-.2c.6-3.5 1.9-5.6 3.3-5.6 1.7 0 2.7 1.9 3.3 5.6v.2zm.4 3.5c-.2 5-1.6 8.5-3.5 8.5-2.1 0-3.5-3.5-3.7-8.5h.2c1 0 2.3.2 3.7.2 1.7 0 2.1 0 3.3-.2zM68.1 8.5h-6.6v16.9h-4.8V8.5h-6.4V4.6h17.8v3.9zM86.2 15.1c0 4.1-2.5 7-6 7-3.7 0-6.2-2.7-6.2-7 .2-4.1 2.5-7 6.2-7 3.6 0 6 2.9 6 7zm5 0c0-6.2-5-11.1-11-11.1C74 4 69.1 8.9 69.1 15.3c0 6 5 11 11 11 6.3-.1 11.1-5 11.1-11.2zM104.6 17.8v7.6h-4.8v-7.6L91.6 4.6h5.3l5.2 8.6 5.3-8.6h5.6l-8.4 13.2zM130 15.1c0 4.1-2.3 7-6 7s-6-2.7-6-7c0-4.1 2.5-7 6.2-7 3.5 0 5.8 2.9 5.8 7zm5.1 0C135.1 8.9 130.2 4 124 4c-6 0-11 4.9-11 11.3 0 6 4.8 11 11 11s11.1-5 11.1-11.2zM153.9 8.5h-6.6v16.9h-4.8V8.5h-6.3V4.6h17.7v3.9zM163.8 9.1l2.9 8h-6l3.1-8zm2.9-4.5h-5.8l-8.5 20.8h5.2l1.7-4.6h8.9l1.9 4.6h5.1l-8.5-20.8zM72.8 46.4h2.9l-1.5-4.1zM119 41.5h-2.9v3.1h2.9c1 0 1.6-.4 1.6-1.6.1-1.1-.6-1.5-1.6-1.5zM34.8 46.4h2.9l-1.4-4.1z"/><path class="st0" d="M0 33.6v22.5h175.7V33.6H0zm14.8 7.9H9.3v2.7H14v2.1H9.3v4.5H6.8V39.4h8v2.1zm3.7 9.3h-2.7V39.4h2.7v11.4zm11.4 0h-2.5l-4.7-7.7v7.7h-2.3V39.4h2.5l4.8 7.7v-7.7H30v11.4zm9.3 0l-.8-2.5h-4.1l-1 2.5h-2.5l4.3-11.4h2.5l4.3 11.4h-2.7zm13 0h-2.5l-4.8-7.7v7.7h-2.3V39.4h2.5l4.8 7.7v-7.7h2.3v11.4zm6.8-1.9c1.4 0 2.5-1 2.7-2.5H64c-.2 2.9-2 4.8-4.9 4.8-3.5 0-5.6-2.7-5.6-6s2.1-6 5.6-6c2.5 0 4.5 1.4 4.9 4.1h-2.5c-.2-1.2-1.3-2.1-2.5-2.1-2.3 0-3.1 1.9-3.1 3.9s.8 3.8 3.1 3.8zm8.6 1.9h-2.5V39.4h2.5v11.4zm9.5 0l-.8-2.5H72l-.8 2.5h-2.5L73 39.4h2.5l4.3 11.4h-2.7zm11.4 0h-8V39.4H83v9.3h5.5v2.1zm9.3.4c-2.5 0-4.7-1.2-4.7-4.1h2.5c0 1.4 1 2 2.5 2 .8 0 2.1-.2 2.1-1.4 0-1.3-1.7-1.4-3.3-1.9-1.7-.4-3.3-1-3.3-3.1 0-2.5 2-3.5 4.1-3.5 2.5 0 4.5 1 4.5 3.7h-2.3c-.2-1.4-1-1.9-2.3-1.9-.8 0-1.9.4-1.9 1.4 0 .8.6.8 3.5 1.6.9.2 3.3.6 3.3 3.3 0 2.2-1.6 3.9-4.7 3.9zm14.6-.4h-8.7V39.4h8.4v2.1h-6V44h5.6v2h-5.6v2.7h6.2v2.1zm8.5 0c-.2-.6-.2-1.7-.2-2.7-.2-1.3-.8-1.7-2.1-1.7h-2.5v4.3h-2.5V39.4h6.2c2 0 3.3 1.4 3.3 3.1 0 1.4-.6 2.5-1.9 2.9 1.2.4 1.6 1.7 1.6 2.7 0 .8 0 2 .6 2.7h-2.5zm9.1 0h-2.9l-3.7-11.4h2.7l2.5 8.1 2.7-8.1h2.5L130 50.8zm7.4 0h-2.5V39.4h2.5v11.4zm7 .4c-3.5 0-5.6-2.7-5.6-6s2-6 5.6-6c2.5 0 4.5 1.4 4.8 4.1h-2.3c-.2-1.2-1.2-2.1-2.5-2.1-2.3 0-3.1 1.9-3.1 3.9 0 1.9.9 3.7 3.1 3.7 1.4 0 2.3-1 2.5-2.5h2.5c-.2 3-2.3 4.9-5 4.9zm14.4-9.7h-6V44h5.3v2h-5.3v2.7h6v2.1h-8.5V39.4h8.5v2.1zm5.8 9.7c-2.5 0-4.9-1.2-4.9-4.1h2.5c0 1.4 1.3 2 2.5 2 .8 0 2.3-.2 2.3-1.4 0-1.3-1.6-1.4-3.3-1.9-1.9-.4-3.5-1-3.5-3.1 0-2.5 2.3-3.5 4.3-3.5 2.3 0 4.5 1 4.5 3.7h-2.5c0-1.4-1-1.9-2.3-1.9-.8 0-1.6.4-1.6 1.4 0 .8.4.8 3.3 1.6.9.2 3.5.6 3.5 3.3 0 2.2-1.7 3.9-4.8 3.9z"/></svg>