<svg xmlns="http://www.w3.org/2000/svg" width="176" height="58" viewBox="0 0 176 58">
  <g fill="#E30C20" fill-rule="evenodd">
    <path d="M28.32,11.87 C27.69,6.93 25.42,2.99 23.16,2.99 C20.67,2.99 18.59,6.48 17.77,11.87 L17.36,11.87 C12.42,10.83 9.75,9.38 9.75,7.52 C9.75,4.85 15.51,2.77 22.75,2.77 C30.18,2.77 36.34,4.85 36.34,7.52 C36.34,9.38 33.26,11.24 28.32,11.87 L28.32,11.87 Z M46.03,15.77 C46.03,7.34 35.93,0.91 22.93,0.91 C10.15,0.91 0.05,7.34 0.05,15.58 C0.05,24.05 10.15,30.62 23.15,30.62 C35.71,30.63 46.03,24.05 46.03,15.77 L46.03,15.77 Z M24.79,28.77 C27.46,26.32 28.73,21.97 28.73,15.59 L28.73,15.59 L28.92,15.37 C35.53,14.55 40.06,11.66 40.06,8.57 L40.06,8.35 C41.92,10.43 42.73,12.7 42.73,15.18 C42.73,22.19 34.89,28.17 24.79,28.77 L24.79,28.77 Z M6.03,8.16 C5.81,8.35 5.81,8.35 5.81,8.57 C5.81,11.65 10.34,14.36 17.18,15.37 L17.37,15.59 L17.37,16 C17.37,22.2 18.82,26.51 21.31,28.78 C10.75,27.95 3.32,22.19 3.32,14.95 C3.32,12.69 4.18,10.2 6.03,8.16 L6.03,8.16 Z M26.24,12.28 L26.02,12.28 C25.2,12.28 24.16,12.28 23.16,12.28 C21.9,12.28 20.89,12.28 20.04,12.28 L19.63,12.06 C20.26,8.57 21.49,6.49 22.94,6.49 C24.61,6.49 25.61,8.35 26.25,12.06 L26.25,12.28 L26.24,12.28 Z M26.65,15.77 C26.46,20.75 25.02,24.24 23.16,24.24 C21.08,24.24 19.63,20.75 19.45,15.77 L19.64,15.77 C20.68,15.77 21.91,15.99 23.35,15.99 C25.01,15.99 25.42,15.99 26.65,15.77 L26.65,15.77 Z"/>
    <polygon points="68.13 9.38 61.52 9.38 61.52 26.32 56.77 26.32 56.77 9.38 50.38 9.38 50.38 5.48 68.13 5.48"/>
    <path d="M86.26,15.99 C86.26,20.11 83.81,23.01 80.28,23.01 C76.57,23.01 74.11,20.34 74.11,15.99 C74.3,11.87 76.56,8.97 80.28,8.97 C83.81,8.97 86.26,11.87 86.26,15.99 L86.26,15.99 Z M91.23,15.99 C91.23,9.79 86.25,4.85 80.27,4.85 C74.1,4.85 69.13,9.79 69.13,16.18 C69.13,22.2 74.11,27.14 80.09,27.14 C86.48,27.13 91.23,22.19 91.23,15.99 L91.23,15.99 Z"/>
    <polygon points="104.64 18.67 104.64 26.32 99.89 26.32 99.89 18.67 91.64 5.48 96.99 5.48 102.15 14.14 107.5 5.48 113.07 5.48"/>
    <path d="M130.01,15.99 C130.01,20.11 127.74,23.01 124.03,23.01 C120.32,23.01 118.05,20.34 118.05,15.99 C118.05,11.87 120.5,8.97 124.22,8.97 C127.74,8.97 130.01,11.87 130.01,15.99 L130.01,15.99 Z M135.17,15.99 C135.17,9.79 130.23,4.85 124.03,4.85 C118.05,4.85 113.07,9.79 113.07,16.18 C113.07,22.2 117.82,27.14 124.03,27.14 C130.23,27.13 135.17,22.19 135.17,15.99 L135.17,15.99 Z"/>
    <polygon points="153.93 9.38 147.35 9.38 147.35 26.32 142.6 26.32 142.6 9.38 136.21 9.38 136.21 5.48 153.93 5.48"/>
    <path d="M163.84 10.01L166.74 18.03 160.76 18.03 163.84 10.01 163.84 10.01zM166.74 5.48L160.95 5.48 152.48 26.32 157.64 26.32 159.31 21.75 168.19 21.75 170.05 26.32 175.18 26.32 166.74 5.48 166.74 5.48zM.05 57.03L.05 34.56 175.8 34.56 175.8 57.03.05 57.03zM6.85 40.32L6.85 51.68 9.34 51.68 9.34 47.15 14.06 47.15 14.06 45.07 9.34 45.07 9.34 42.4 14.87 42.4 14.87 40.32 6.85 40.32zM15.91 51.68L18.59 51.68 18.59 40.32 15.91 40.32 15.91 51.68zM20.44 40.32L20.44 51.68 22.75 51.68 22.75 44.03 27.46 51.68 29.95 51.68 29.95 40.32 27.69 40.32 27.69 47.97 22.93 40.32 20.44 40.32zM36.34 43.22L37.79 47.34 34.89 47.34 36.34 43.22zM30.77 51.68L33.26 51.68 34.3 49.19 38.42 49.19 39.24 51.68 41.91 51.68 37.56 40.32 35.11 40.32 30.77 51.68zM42.73 40.32L42.73 51.68 44.99 51.68 44.99 44.03 49.75 51.68 52.24 51.68 52.24 40.32 49.97 40.32 49.97 47.97 45.22 40.32 42.73 40.32zM61.52 44.26L61.52 44.25 63.97 44.25C63.56 41.58 61.52 40.13 59.03 40.13 55.54 40.13 53.46 42.81 53.46 46.11 53.46 49.42 55.54 52.09 59.03 52.09 61.93 52.09 63.78 50.24 63.97 47.34L61.7 47.34C61.52 48.79 60.48 49.83 59.03 49.83 56.77 49.83 55.95 47.98 55.95 46.12 55.95 44.04 56.76 42.18 59.03 42.18 60.26 42.18 61.3 43.03 61.52 44.26zM65.23 51.68L67.69 51.68 67.69 40.32 65.23 40.32 65.23 51.68zM74.3 43.22L75.75 47.34 72.85 47.34 74.3 43.22zM68.73 51.68L71.22 51.68 72.04 49.19 76.39 49.19 77.21 51.68 79.88 51.68 75.57 40.32 73.08 40.32 68.73 51.68zM80.5 40.32L80.5 51.68 88.52 51.68 88.52 49.6 82.99 49.6 82.99 40.32 80.5 40.32zM95.54 47.97L95.54 47.95 93.08 47.95C93.08 50.84 95.35 52.07 97.8 52.07 100.92 52.07 102.55 50.44 102.55 48.36 102.55 45.69 100.09 45.28 99.24 45.06 96.38 44.25 95.75 44.25 95.75 43.43 95.75 42.39 96.79 41.98 97.61 41.98 98.84 41.98 99.66 42.39 99.88 43.84L102.15 43.84C102.15 41.17 100.11 40.13 97.62 40.13 95.54 40.13 93.5 41.17 93.5 43.62 93.5 45.7 95.13 46.29 96.8 46.74 98.44 47.15 100.11 47.34 100.11 48.6 100.11 49.82 98.85 50.01 98.03 50.01 96.58 50.01 95.54 49.42 95.54 47.97zM103.82 40.32L103.82 51.68 112.48 51.68 112.48 49.6 106.28 49.6 106.28 46.93 111.85 46.93 111.85 44.89 106.28 44.89 106.28 42.4 112.25 42.4 112.25 40.32 103.82 40.32zM116.19 42.4L119.09 42.4C120.09 42.4 120.72 42.81 120.72 43.85 120.72 45.08 120.09 45.48 119.09 45.48L116.19 45.48 116.19 42.4zM113.7 51.68L116.19 51.68 116.19 47.33 118.64 47.33C119.9 47.33 120.5 47.74 120.72 49 120.72 50 120.72 51.04 120.94 51.67L123.61 51.67C122.98 51.04 122.98 49.81 122.98 49 122.98 47.96 122.57 46.73 121.35 46.29 122.57 45.88 123.21 44.88 123.21 43.43 123.21 41.76 121.95 40.31 119.9 40.31L113.7 40.31 113.7 51.68zM130.01 51.68L133.72 40.32 131.23 40.32 128.56 48.38 126.07 40.32 123.4 40.32 127.11 51.68 130.01 51.68zM134.95 51.68L137.44 51.68 137.44 40.32 134.95 40.32 134.95 51.68zM146.91 44.26L146.91 44.25 149.21 44.25C148.99 41.58 146.91 40.13 144.46 40.13 140.93 40.13 138.89 42.81 138.89 46.11 138.89 49.42 140.93 52.09 144.46 52.09 147.13 52.09 149.21 50.24 149.4 47.34L146.91 47.34C146.73 48.79 145.91 49.83 144.46 49.83 142.19 49.83 141.34 47.98 141.34 46.12 141.34 44.04 142.19 42.18 144.46 42.18 145.68 42.18 146.72 43.03 146.91 44.26zM150.43 40.32L150.43 51.68 158.9 51.68 158.9 49.6 152.92 49.6 152.92 46.93 158.27 46.93 158.27 44.89 152.92 44.89 152.92 42.4 158.9 42.4 158.9 40.32 150.43 40.32zM162.17 47.97L162.17 47.95 159.72 47.95C159.72 50.84 162.17 52.07 164.66 52.07 167.74 52.07 169.41 50.44 169.41 48.36 169.41 45.69 166.73 45.28 165.88 45.06 163.02 44.25 162.61 44.25 162.61 43.43 162.61 42.39 163.42 41.98 164.24 41.98 165.47 41.98 166.51 42.39 166.51 43.84L169 43.84C169 41.17 166.74 40.13 164.47 40.13 162.4 40.13 160.13 41.17 160.13 43.62 160.13 45.7 161.76 46.29 163.62 46.74 165.3 47.15 166.93 47.34 166.93 48.6 166.93 49.82 165.48 50.01 164.66 50.01 163.43 50.01 162.17 49.42 162.17 47.97z"/>
  </g>
</svg>
