<svg viewBox="0 0 180 76" xmlns="http://www.w3.org/2000/svg" fill-rule="evenodd" clip-rule="evenodd" stroke-linejoin="round" stroke-miterlimit="1.414"><g fill="#44536b" fill-rule="nonzero"><path d="M58.377 14.528v13.144h1.703l.053-.266c.745-4.576 2.288-7.61 4.47-9.366 1.916-1.596 3.459-1.596 7.184-1.596h1.49v40.39h-6.492v1.916h20.701v-1.916H81.26v-40.39h1.863c2.98 0 5.002 0 7.29 2.182 1.33 1.064 2.554 4.044 3.778 8.834v.213h1.543V14.528H58.377zM127.556 15.379c-2.874-.851-6.12-.851-9.898-.851h-17.401v1.863h5.8v40.443h-5.641v1.916h19.211v-1.916h-5.8V16.55h2.82c6.013 0 8.727 0 10.377 3.246.372.851.905 2.501.905 6.812 0 4.417-.532 6.811-1.916 8.302-1.756 1.969-4.097 2.022-7.61 2.075l-2.022.053v2.022c5.109 0 8.567-.106 11.92-1.224 4.204-1.49 8.408-5.534 8.408-11.175 0-5.375-3.512-9.685-9.153-11.282zM160.975 39.06h6.812c0 3.512-.053 11.92-1.703 14.634-1.011 1.65-3.033 3.565-6.865 3.565-3.619 0-8.089-1.597-9.1-9.259-.532-3.672-.585-9.951-.585-12.505 0-5.215.213-11.654 1.916-15.06 1.596-3.14 4.364-4.098 5.268-4.417a13.41 13.41 0 013.565-.479c9.259 0 11.867 9.579 12.399 12.559l.053.266h1.809l-.426-13.996h-1.543s-1.809 2.129-2.075 2.501c-2.554-1.597-5.588-3.246-10.111-3.246-5.8 0-11.388 2.927-15.379 8.089-4.257 5.428-5.109 9.472-5.109 14.208 0 5.854 1.49 10.803 4.523 15.113 3.885 5.534 9.046 8.355 15.379 8.355 8.142 0 13.251-4.576 15.326-8.887.958-2.129 1.277-7.769 1.437-10.483 0 0 .053-.585.053-.905h2.607v-2.075h-18.253l.002 2.022zM.905 1.862h46.882c.479 0 .798-.426.905-.905.266-.957.159-.957-.32-.957H.905A.933.933 0 000 .905c0 .532.426.957.905.957zM.905 6.12H46.51c.479 0 .692-.426.798-.905.106-.479.479-.958-.798-.905H.905A.933.933 0 000 5.215c0 .532.426.905.905.905zM.905 10.43H45.02c.479 0 .692-.106.905-.905.266-.905-.106-.905-.905-.905H.905A.934.934 0 000 9.525c0 .533.426.905.905.905zM.905 14.741H43.37c.958 0 .958-.213 1.224-.905.319-1.064-.107-.905-.852-.905H.905a.898.898 0 00-.905.905c0 .479.426.905.905.905zM.905 19.051h41.454c.532 0 .692-.532.798-.905.319-1.011-.213-.905-.745-.905H.905a.934.934 0 00-.905.905c0 .479.426.905.905.905zM.905 23.361h39.698c.905 0 .958-.319 1.171-.905.16-.426.372-.958-.745-.905H.905a.935.935 0 00-.905.906c0 .479.426.904.905.904zM.905 27.618h38.368c.532 0 .905-.16 1.064-.905.106-.426.639-.905-.692-.905H.905a.935.935 0 00-.905.906c0 .745.213.958.905.904zM.905 31.929h13.41c1.596 0 .639-.639.266-.905-1.33-1.064-1.437-.905-2.501-.905H.905a.934.934 0 00-.905.905c0 .532.426.905.905.905zM.905 36.239h19.211c1.703 0 .745-.585.372-.905-1.011-.905-1.543-.905-2.022-.905H.905a.935.935 0 00-.905.906c0 .478.426.904.905.904zM.905 40.55h25.649c1.011 0 .213-.585-.213-.905-1.117-.851-1.117-.958-2.714-.905H.905a.933.933 0 00-.905.905c0 .479.426.905.905.905zM.905 44.86h31.237c.798 0 .798-.426.106-.905-.958-.692-.958-.905-2.182-.905H.905a.934.934 0 00-.905.905c0 .479.426.905.905.905zM.905 49.17h31.503c.585 0 .692-.16.958-.905.266-.905.106-.905-.479-.905H.905a.935.935 0 00-.905.906c0 .479.426.904.905.904zM.905 53.428h30.226c.479 0 .692-.373.851-.905.16-.479.372-.905-.426-.905H.905a.933.933 0 00-.905.905c0 .532.426.905.905.905zM.905 57.738h28.789c.372 0 .639-.053.905-.905.16-.532.426-.905-.426-.905H.905a.934.934 0 00-.905.905c0 .533.426.905.905.905zM48.745 57.738h.319a.933.933 0 00.905-.905.933.933 0 00-.905-.905h-.213c-.16 0-.851.479-1.224.851-.213.214-1.064.853 1.118.959zM.905 62.048h27.352c.532 0 .692-.266.905-.905.213-.745.213-.905-.479-.905H.905a.935.935 0 00-.905.906c0 .479.426.904.905.904zM49.117 60.239H45.02c-1.011-.16-1.384.266-2.182.851-.16.106-1.117.905.213.958h6.066a.933.933 0 00.905-.905.897.897 0 00-.905-.904zM.905 66.359h25.969c.532 0 .798-.426.905-.905.16-.532.266-.905-.372-.905H.905a.898.898 0 00-.905.905c0 .479.426.905.905.905zM49.064 64.549h-9.792c-.851 0-1.277-.106-2.395.905-.319.319-.479.905.053.905h12.186a.933.933 0 00.905-.905c-.052-.532-.425-.905-.957-.905zM.905 70.669h24.479c.692 0 .905-.426 1.011-.905.106-.479.372-.905-.373-.905H.905a.935.935 0 00-.905.906c0 .478.426.904.905.904zM30.971 69.711c-.213.213-.851 1.011.639.905h17.401a.933.933 0 00.905-.905c.106-.479-.319-.905-.851-.905H32.567c-.532.001-1.011.426-1.596.905zM49.064 73.117H27.725c-1.277 0-1.224 0-2.129.638-.053 0-.266.213-.372.319-.053.053-.106.053-.213.053-.266-.106.532-.958-.585-.958H.905a.935.935 0 00-.905.906c0 .479.426.905.905.905h48.159v-.053a.933.933 0 00.905-.905.933.933 0 00-.905-.905zM178.211 14.292a1.815 1.815 0 00-1.841 1.82 1.816 1.816 0 003.63 0c0-.994-.811-1.82-1.789-1.82zm-.026 3.394c-.853 0-1.552-.71-1.552-1.573 0-.884.694-1.578 1.573-1.578.837 0 1.531.716 1.531 1.578 0 .868-.695 1.573-1.552 1.573z"/><path d="M178.648 16.16c.236-.095.363-.268.363-.5 0-.374-.258-.574-.731-.574h-.868v2.057h.326v-.879h.426c.163 0 .29.026.363.079.095.063.126.163.142.41.016.263.021.337.053.389h.316c-.032-.063-.042-.121-.053-.326-.011-.435-.074-.561-.337-.656zm-.463-.1h-.448v-.758h.484c.316 0 .463.116.463.374s-.162.384-.499.384zM53.179.045a1.816 1.816 0 00-1.841 1.821 1.816 1.816 0 003.63 0c0-.995-.81-1.821-1.789-1.821zm-.026 3.393c-.853 0-1.552-.71-1.552-1.573 0-.884.694-1.578 1.573-1.578.836 0 1.531.716 1.531 1.578 0 .868-.695 1.573-1.552 1.573z"/><path d="M53.616 1.913c.236-.095.363-.268.363-.5 0-.374-.258-.574-.731-.574h-.868v2.057h.326v-.878h.426c.163 0 .29.026.364.079.095.063.126.163.142.41.016.263.021.337.053.39h.316c-.032-.063-.042-.121-.053-.326-.012-.438-.076-.564-.338-.658zm-.463-.101h-.447v-.757h.484c.316 0 .463.116.463.374-.001.257-.164.383-.5.383z"/></g></svg>