<svg xmlns="http://www.w3.org/2000/svg" width="200" height="54" viewBox="0 0 200 54">
  <g fill="#00A6CA">
    <path d="M30.4,36.7 C29.9,36.3 29.3,36 28.6,35.8 C27.9,35.6 27.2,35.5 26.6,35.5 C26.1,35.5 25.6,35.6 25.1,35.7 C24.6,35.8 24.1,36 23.7,36.2 C23.3,36.4 22.9,36.7 22.5,37.1 C22.1,37.5 21.9,37.9 21.7,38.3 C21.7,37.6 21.5,37.1 21.1,36.7 C20.8,36.3 20.3,36 19.8,35.8 C19.3,35.6 18.7,35.5 18.1,35.5 C17.5,35.5 16.9,35.6 16.2,35.7 L16.2,38.3 C16.6,38.3 17,38.3 17.2,38.4 C17.5,38.5 17.6,38.6 17.7,38.8 C17.8,39 17.9,39.2 17.9,39.5 C17.9,39.8 17.9,40.1 17.9,40.5 L17.9,52.6 L21.7,52.6 L21.7,42.9 C21.7,42.2 21.8,41.6 22.1,41.1 C22.3,40.6 22.6,40.2 23,39.9 C23.4,39.6 23.9,39.3 24.4,39.2 C24.9,39.1 25.5,38.9 26,38.9 C27,38.9 27.9,39.1 28.7,39.5 L28.7,39.5 L30.4,36.7 Z M47.1,50 C46.8,49.9 46.7,49.7 46.6,49.5 C46.5,49.3 46.4,49 46.4,48.7 C46.4,48.4 46.4,48.1 46.4,47.7 L46.4,37.1 C45.3,36.6 44.2,36.2 43,36 C41.9,35.7 40.7,35.6 39.5,35.6 C38.1,35.6 36.9,35.8 35.7,36.2 C34.6,36.6 33.6,37.2 32.7,38 C31.8,38.8 31.2,39.7 30.7,40.9 C30.2,42 29.9,43.3 29.9,44.7 C29.9,45.9 30,47 30.4,48 C30.7,49 31.2,49.9 31.8,50.7 C32.4,51.5 33.2,52.1 34.2,52.5 C35.2,52.9 36.3,53.1 37.5,53.1 C38.7,53.1 39.9,52.8 41,52.1 C42.1,51.5 42.9,50.6 43.3,49.4 C43.3,50.3 43.4,51 43.7,51.5 C44,52 44.3,52.4 44.8,52.6 C45.3,52.9 45.8,53 46.4,53 C47,53 47.6,53 48.2,52.8 L48.2,50 C47.7,50.1 47.3,50.1 47.1,50 Z M42.7,44.2 C42.7,45.8 42.3,47 41.5,48 C40.8,49 39.7,49.5 38.3,49.5 C36.7,49.5 35.6,49 34.8,48.1 C34,47.2 33.7,46 33.7,44.4 C33.7,43.5 33.9,42.7 34.2,41.9 C34.5,41.2 34.8,40.5 35.3,40 C35.8,39.5 36.3,39.1 37,38.8 C37.6,38.5 38.4,38.4 39.2,38.4 C39.7,38.4 40.3,38.4 40.9,38.5 C41.5,38.6 42.1,38.8 42.7,39 L42.7,44.2 L42.7,44.2 Z M65.2,37.6 C64.7,37 64,36.5 63.1,36.1 C62.3,35.7 61.3,35.5 60.1,35.5 C59.5,35.5 59,35.5 58.4,35.6 C57.8,35.7 57.3,35.9 56.8,36.1 C56.3,36.3 55.8,36.6 55.4,37 C55,37.4 54.6,37.8 54.4,38.4 C54.4,37.6 54.2,37 53.9,36.6 C53.6,36.2 53.2,35.9 52.7,35.7 C52.2,35.6 51.6,35.5 51,35.5 C50.4,35.5 49.7,35.6 49.1,35.7 L49.1,38.3 C49.5,38.3 49.9,38.3 50.1,38.4 C50.4,38.5 50.5,38.6 50.6,38.8 C50.7,39 50.8,39.2 50.8,39.5 C50.8,39.8 50.8,40.2 50.8,40.7 L50.8,52.6 L54.6,52.6 L54.6,43.1 C54.6,42.4 54.7,41.8 54.9,41.3 C55.1,40.7 55.4,40.3 55.8,39.9 C56.2,39.5 56.6,39.2 57.1,39 C57.6,38.8 58.2,38.7 58.8,38.7 C59.9,38.7 60.9,39.1 61.6,39.8 C62.4,40.5 62.7,41.6 62.7,42.9 L62.7,52.7 L66.5,52.7 L66.5,42.9 C66.5,41.9 66.4,40.9 66.1,40 C66.2,39 65.8,38.3 65.2,37.6 Z M82.2,43.9 C81.6,43.5 80.8,43.3 80,43.1 C79.2,42.9 78.3,42.8 77.4,42.7 C76.1,42.5 75.1,42.3 74.4,42.1 C73.7,41.8 73.4,41.4 73.4,40.7 C73.4,40.3 73.5,40 73.7,39.7 C73.9,39.4 74.1,39.2 74.5,39 C74.8,38.8 75.2,38.6 75.6,38.5 C76,38.4 76.5,38.3 76.9,38.3 C77.3,38.3 77.8,38.3 78.2,38.4 C78.7,38.5 79.1,38.6 79.4,38.8 C79.8,39 80,39.2 80.3,39.5 C80.5,39.8 80.7,40.1 80.7,40.5 L84,40.5 C84,39.7 83.9,38.9 83.5,38.3 C83.1,37.7 82.6,37.2 82,36.7 C81.3,36.3 80.6,35.9 79.7,35.7 C78.8,35.5 77.9,35.4 76.9,35.4 C76,35.4 75.1,35.5 74.2,35.7 C73.3,35.9 72.6,36.2 71.9,36.7 C71.2,37.1 70.7,37.7 70.3,38.3 C69.9,38.9 69.7,39.7 69.7,40.6 C69.7,41.6 70,42.3 70.4,42.9 C70.9,43.5 71.4,43.9 72.1,44.2 C72.8,44.5 73.6,44.7 74.5,44.9 C75.4,45 76.2,45.2 77.1,45.3 C78.2,45.4 79.1,45.7 79.8,46 C80.5,46.3 80.8,46.8 80.8,47.6 C80.8,48.1 80.7,48.5 80.4,48.9 C80.1,49.2 79.8,49.5 79.5,49.7 C79.1,49.9 78.7,50 78.2,50.1 C77.7,50.2 77.3,50.2 76.8,50.2 C76.3,50.2 75.9,50.1 75.4,50.1 C75,50 74.6,49.8 74.2,49.6 C73.8,49.4 73.6,49.1 73.3,48.8 C73.1,48.5 72.9,48.1 72.9,47.7 L69.2,47.7 C69.3,48.7 69.5,49.6 70,50.3 C70.5,51 71,51.5 71.8,51.9 C72.5,52.3 73.3,52.6 74.2,52.8 C75.1,53 76,53.1 76.9,53.1 C77.8,53.1 78.7,53 79.6,52.8 C80.5,52.6 81.3,52.3 81.9,51.8 C82.5,51.3 83.1,50.8 83.5,50.2 C83.9,49.5 84.1,48.7 84.1,47.8 C84.1,46.8 83.9,46 83.5,45.4 C83.3,44.7 82.8,44.3 82.2,43.9 Z M124.6,37.6 C124.1,37 123.4,36.5 122.5,36.1 C121.7,35.7 120.7,35.5 119.5,35.5 C118.9,35.5 118.4,35.5 117.8,35.6 C117.2,35.7 116.7,35.9 116.2,36.1 C115.7,36.3 115.2,36.6 114.8,37 C114.4,37.4 114,37.8 113.8,38.4 C113.8,37.6 113.6,37 113.3,36.6 C113,36.2 112.6,35.9 112.1,35.7 C111.6,35.6 111,35.5 110.4,35.5 C109.8,35.5 109.1,35.6 108.6,35.7 L108.6,38.3 C109,38.3 109.4,38.3 109.6,38.4 C109.9,38.5 110,38.6 110.1,38.8 C110.2,39 110.3,39.2 110.3,39.5 C110.3,39.8 110.3,40.2 110.3,40.7 L110.3,52.6 L114.1,52.6 L114.1,43.1 C114.1,42.4 114.2,41.8 114.4,41.3 C114.6,40.7 114.9,40.3 115.3,39.9 C115.7,39.5 116.1,39.2 116.6,39 C117.1,38.8 117.7,38.7 118.3,38.7 C119.4,38.7 120.4,39.1 121.1,39.8 C121.9,40.5 122.2,41.6 122.2,42.9 L122.2,52.7 L126,52.7 L126,42.9 C126,41.9 125.9,40.9 125.6,40 C125.6,39 125.2,38.3 124.6,37.6 Z M131.3,28.5 C130.7,28.5 130.2,28.7 129.7,29.1 C129.2,29.5 129,30 129,30.8 C129,31.6 129.3,32.1 129.7,32.5 C130.2,32.9 130.7,33.1 131.3,33 C131.9,33 132.4,32.8 132.8,32.4 C133.3,32 133.5,31.5 133.5,30.7 C133.5,29.9 133.3,29.4 132.8,29 C132.4,28.6 131.9,28.5 131.3,28.5 Z"/>
    <rect width="3.8" height="16.8" x="129.4" y="35.9"/>
    <path d="M150.9,37.7 C150.1,37 149.1,36.5 148,36.1 C146.9,35.7 145.8,35.6 144.6,35.6 C143.5,35.6 142.4,35.8 141.4,36.1 C140.4,36.5 139.4,37 138.6,37.7 C137.8,38.4 137.1,39.3 136.6,40.4 C136.1,41.5 135.8,42.7 135.8,44.2 C135.8,45.7 136.1,47 136.6,48 C137.1,49.1 137.8,50 138.6,50.8 C139.4,51.5 140.4,52.1 141.4,52.4 C142.5,52.8 143.5,52.9 144.7,52.9 C145.8,52.9 146.9,52.7 148,52.4 C149.1,52.1 150,51.5 150.8,50.8 C151.6,50.1 152.3,49.2 152.8,48 C153.3,46.9 153.6,45.6 153.6,44.2 C153.6,42.7 153.3,41.5 152.8,40.4 C152.4,39.3 151.7,38.4 150.9,37.7 Z M149.4,46.6 C149.1,47.3 148.7,47.8 148.3,48.3 C147.9,48.8 147.3,49.1 146.7,49.3 C146.1,49.5 145.5,49.7 144.9,49.7 C144.3,49.7 143.6,49.6 143,49.4 C142.4,49.2 141.8,48.8 141.4,48.4 C140.9,47.9 140.5,47.4 140.2,46.7 C139.9,46 139.8,45.2 139.8,44.3 C139.8,43.4 139.9,42.7 140.2,42 C140.5,41.3 140.8,40.8 141.3,40.4 C141.8,40 142.3,39.6 142.9,39.4 C143.5,39.2 144.1,39.1 144.7,39 C145.3,39 146,39.1 146.6,39.3 C147.2,39.5 147.8,39.8 148.3,40.3 C148.8,40.7 149.2,41.3 149.5,42 C149.8,42.7 150,43.5 150,44.4 C149.9,45.1 149.7,45.9 149.4,46.6 Z"/>
    <polygon points="0 31.9 0 28.3 18.1 28.3 18.1 31.9 11 31.9 11 52.7 7 52.7 7 31.9"/>
    <path d="M87.2,44.5 L87.2,28.3 L91.2,28.3 L91.2,44.4 C91.2,47.6 93.6,49.4 96.7,49.4 C99.8,49.4 102.1,47.6 102.1,44.4 L102.1,28.3 L106.1,28.3 L106.1,44.5 C106.1,49.9 101.8,53 96.7,53 C91.5,53 87.2,49.9 87.2,44.5 Z M172.5,48.7 L172.5,46 L172.5,46 L172.5,42.7 C172.5,41.7 172.4,40.7 172.1,39.8 C171.8,38.9 171.4,38.2 170.9,37.5 C170.4,36.9 169.7,36.4 168.8,36 C168,35.6 167,35.4 165.8,35.4 C165.2,35.4 164.7,35.4 164.1,35.5 C163.5,35.6 163,35.8 162.5,36 C162,36.2 161.5,36.5 161.1,36.9 C160.7,37.3 160.3,37.7 160.1,38.3 C160.1,37.5 159.9,36.9 159.6,36.5 C159.3,36.1 158.9,35.8 158.4,35.6 C157.9,35.5 157.3,35.4 156.7,35.4 C156.1,35.4 155.4,35.5 154.9,35.6 L154.9,38.2 C155.3,38.2 155.7,38.2 155.9,38.3 C156.2,38.4 156.3,38.5 156.4,38.7 C156.5,38.9 156.6,39.1 156.6,39.4 C156.6,39.7 156.6,40.1 156.6,40.6 L156.6,52.5 L160.4,52.5 L160.4,43 C160.4,42.3 160.5,41.7 160.7,41.2 C160.9,40.6 161.2,40.2 161.6,39.8 C162,39.4 162.4,39.1 162.9,38.9 C163.4,38.7 164,38.6 164.6,38.6 C165.7,38.6 166.7,39 167.4,39.7 C168.2,40.4 168.5,41.5 168.5,42.8 L168.5,48.5 L168.5,48.5 L168.5,48.9 C168.5,53 171,53.4 174.3,52.8 L174.3,50.4 C172.8,50.5 172.5,50 172.5,48.7 Z"/>
    <g transform="translate(165)">
      <path d="M17.4,0.9 C10.9,0.9 5.2,4.4 2.2,9.7 C1.1,11.8 0.9,13.6 1.8,15.1 C2.8,16.9 5.1,17.1 6.3,17.1 L8.5,17.1 L7.7,19.6 C7.2,21.1 7.4,22.8 8.2,23.9 C9,25 10.2,25.6 11.7,25.6 C12.7,25.6 13.8,25.4 14.8,25 C14.5,24.6 14.3,24.2 14.1,23.7 C14,23.3 13.8,22.9 13.8,22.4 C13.2,22.7 12.5,22.8 11.8,22.8 C11.4,22.8 10.8,22.7 10.5,22.2 C10.2,21.8 10.1,21.2 10.3,20.5 L11.4,17.1 L14.9,17.1 L15.8,14.2 L12.4,14.2 L13.9,9.5 L10.9,9.5 L9.4,14.2 L6.2,14.2 C5.2,14.2 4.6,13.9 4.3,13.4 C4,12.8 4.3,11.6 5.1,10.2 L5.1,10.1 C7.8,6.2 12.2,3.6 17.3,3.6 C25.4,3.6 32,10.2 32,18.3 C32,26.4 25.4,33 17.3,33 C10.1,33 4.1,27.8 2.8,21 L5.68434189e-14,21.6 C1.6,29.7 8.7,35.9 17.3,35.9 C27,35.9 34.9,28 34.9,18.3 C35,8.8 27.1,0.9 17.4,0.9 Z"/>
      <path d="M28.6,23.3 C27.9,23.3 27,23.2 26.4,22.8 C26.2,22.6 25.9,22.4 25.8,21.9 L25.8,21.9 C25.8,21.7 25.8,21.4 25.9,21.1 L28.1,14.4 L28.1,14.4 L25.1,14.4 L25.1,14.4 L23.2,20.2 C23.2,20.2 23.2,20.2 23.2,20.2 C22.7,21.7 21.1,22.9 19.7,22.9 C19.3,22.9 18.8,22.8 18.6,22.4 C18.4,22.1 18.2,21.7 18.5,21 L20.7,14.3 L17.7,14.3 L15.8,20.1 C15.3,21.5 15.5,23 16.3,24.1 C17.1,25.1 18.2,25.7 19.7,25.7 C21.1,25.7 22.6,25.1 23.8,24.1 C24.2,24.7 24.7,25.1 25.4,25.4 C26.4,25.7 27,25.7 27.7,25.7 C28,25.7 28.4,25.6 28.5,25.6 C28.6,25.5 28.6,25.4 28.7,25.3 C28.8,25.1 28.9,24.9 29,24.7 C29.1,24.5 29.2,24.3 29.3,24.1 C29.4,23.9 29.5,23.7 29.6,23.5 C29.7,23.4 29.7,23.2 29.8,23.1 C29.5,23.3 29.1,23.3 28.6,23.3 Z"/>
    </g>
    <path d="M176.4,50.7 C176.4,47.7 180.9,47.7 180.9,50.7 C180.9,53.7 176.4,53.7 176.4,50.7 Z M180.5,50.7 C180.5,48.1 176.8,48.1 176.8,50.7 C176.8,53.3 180.5,53.3 180.5,50.7 Z M179.6,51.7 L179.6,51.7 L179.2,51.8 L178.6,51 L178.1,51 L178.1,51.8 L177.8,51.8 L177.8,49.6 L178.7,49.6 C179.1,49.6 179.5,49.9 179.5,50.3 C179.5,50.6 179.3,50.9 179,50.9 L179.6,51.7 Z M178.2,50.7 L178.7,50.7 C179,50.7 179.2,50.5 179.2,50.3 C179.2,50 179,49.9 178.7,49.9 L178.2,49.9 L178.2,50.7 Z"/>
  </g>
</svg>
