<svg width="16" height="16" xmlns="http://www.w3.org/2000/svg" viewBox="0 148.7 610.7 496.3" enable-background="new 0 148.7 610.7 496.3"><path fill="#343232" d="M192.1 645c-70.8 0-136.7-20.7-192.1-56.2 9.8 1.1 19.9 1.8 29.9 1.8 58.7 0 112.8-20.1 155.7-53.6-54.7-1.1-101.2-37.3-117-87.1 7.6 1.6 15.4 2.2 23.7 2.2 11.4 0 22.6-1.6 33.1-4.5-57.5-11.6-100.6-62.1-100.6-122.9v-1.6c17 9.4 36.2 15 56.7 15.6-33.5-22.4-55.8-60.6-55.8-104.2 0-23 6.3-44.4 17-63 61.6 75.9 153.9 126 258 131.1-2.2-9.2-3.4-18.8-3.4-28.6 0-69.2 56.1-125.3 125.3-125.3 36 0 68.6 15.2 91.4 39.5 28.8-5.6 55.6-15.9 79.7-30.4-9.4 29.3-29 53.8-54.9 69.5 25.2-3.1 49.6-9.8 71.9-19.7-16.8 25-38 47.1-62.5 64.8.2 5.4.4 10.7.4 16.3 0 165.4-126.2 356.3-356.5 356.3"/></svg>