<svg xmlns="http://www.w3.org/2000/svg" width="159" height="159" viewBox="0 0 159 159">
  <g fill="none" fill-rule="evenodd" transform="translate(-20 -17)">
    <polygon points="0 0 192.756 0 192.756 192.756 0 192.756"/>
    <polygon fill="#000" fill-rule="nonzero" points="21.875 139.672 76.202 139.672 76.202 78.385 96.769 101.965 117.336 78.385 117.336 139.672 171.768 139.672 171.768 17.203 118.998 17.203 96.769 42.651 74.54 17.203 21.875 17.203"/>
    <polygon fill="#900D35" points="119.414 104.977 108.299 125.959 110.689 136.658 118.062 138.943 128.764 137.49"/>
    <polygon fill="#900D35" points="96.769 101.965 117.336 78.281 117.336 139.568 171.662 139.568 171.662 17.203 118.998 17.203 96.769 42.651"/>
    <polygon fill="#900D35" points="95.938 55.636 82.331 72.464 65.814 90.331 43.897 111.832 36.211 124.297 39.119 135.828 47.948 137.697 57.297 135.205 71.632 127.311 91.161 109.131 101.027 99.057 97.809 52.208"/>
    <path fill="#FFF" d="M155.875,52.001 C149.746,52.625 142.994,51.897 137.178,52.832 C122.842,70.907 74.852,135.516 47.118,135.516 C43.69,135.516 42.132,134.893 42.132,131.778 C42.132,117.755 102.483,66.96 102.483,51.067 C102.483,45.873 96.978,38.706 80.877,38.706 C38.912,38.706 20.11,73.504 20.11,81.917 C20.11,93.759 34.445,99.057 43.897,93.967 C34.029,91.786 28.939,87.215 28.939,79.113 C28.939,56.988 63.633,42.134 76.098,42.134 C82.019,42.134 87.732,43.485 87.732,48.263 C87.732,62.597 28.524,106.536 28.524,128.972 C28.524,135.101 34.029,141.333 41.196,141.333 C67.788,141.333 99.781,104.044 113.597,87.423 C103.312,102.485 94.692,119.521 94.692,125.753 C94.692,138.321 111.519,142.062 116.505,142.062 C131.046,142.062 145.278,131.05 145.278,117.962 C145.278,114.534 143.719,111.107 140.499,108.718 C140.499,124.611 128.554,138.322 119.517,138.322 C114.947,138.322 111.935,136.14 111.935,131.986 C111.936,115.469 143.721,65.297 155.875,52.001 L155.875,52.001 Z"/>
    <path fill="#000" fill-rule="nonzero" d="M49.506 146.943L41.092 146.943 41.092 163.769C41.092 167.82 39.741 169.794 35.483 169.794 31.12 169.794 29.978 167.716 29.978 163.769L29.978 146.943 21.565 146.943 21.565 163.353C21.565 172.39 25.927 175.3 35.483 175.3 45.247 175.3 49.506 172.183 49.506 163.458L49.506 146.943 49.506 146.943zM69.866 165.016C69.138 160.239 68.101 155.979 65.815 146.944L52.935 146.944 52.935 174.782 60.622 174.782C60.622 164.706 60.622 157.85 60.518 153.694L60.622 153.694C61.556 157.85 63.322 164.602 65.92 174.782L73.918 174.782C76.724 164.393 78.281 157.85 79.215 153.694L79.423 153.694C79.319 157.85 79.215 164.602 79.215 174.782L86.902 174.782 86.902 146.944 74.022 146.944C71.633 155.979 70.698 160.239 69.971 165.016L69.866 165.016 69.866 165.016zM107.156 168.756L108.611 174.781 117.752 174.781 108.818 146.943 96.977 146.943 88.044 174.781 97.185 174.781 98.535 168.756 107.156 168.756 107.156 168.756zM105.807 163.146L99.99 163.146 101.34 157.33C101.756 155.668 102.276 153.902 102.586 151.617L103.002 151.617C103.418 153.902 103.938 155.564 104.352 157.33L105.807 163.146 105.807 163.146zM142.682 154.006C141.746 149.436 137.799 146.424 131.153 146.424 126.893 146.424 123.882 147.254 121.803 148.813 119.83 150.163 118.998 152.137 118.998 154.422 118.998 157.537 120.66 159.408 122.322 160.551 123.881 161.694 126.062 162.627 128.554 163.459 130.736 164.289 131.982 164.705 133.124 165.225 134.267 165.848 134.683 166.471 134.683 167.407 134.683 168.03 134.476 168.55 133.853 168.964 133.23 169.38 132.189 169.693 130.736 169.693 128.554 169.693 127.308 168.654 126.685 166.888L117.958 167.408C118.894 171.875 122.634 175.303 130.528 175.303 135.202 175.303 138.319 174.055 140.395 172.498 142.577 170.732 143.512 168.445 143.512 166.266 143.512 163.668 142.16 161.799 140.395 160.448 139.045 159.305 137.176 158.579 134.788 157.749 132.188 157.02 131.151 156.606 129.8 156.087 128.347 155.464 127.618 154.632 127.618 153.593 127.618 153.073 127.827 152.657 128.347 152.347 128.867 152.035 129.904 151.827 130.736 151.827 132.605 151.827 133.644 152.763 134.267 154.112L142.682 154.006 142.682 154.006zM170.418 154.006C169.48 149.436 165.43 146.424 158.783 146.424 154.523 146.424 151.512 147.254 149.537 148.813 147.564 150.163 146.629 152.137 146.629 154.422 146.629 157.537 148.291 159.408 149.953 160.551 151.512 161.694 153.693 162.627 156.185 163.459 158.367 164.289 159.613 164.705 160.755 165.225 161.898 165.848 162.314 166.471 162.314 167.407 162.314 168.03 162.105 168.55 161.484 168.964 160.859 169.38 159.925 169.693 158.367 169.693 156.185 169.693 154.939 168.654 154.316 166.888L145.589 167.408C146.525 171.875 150.368 175.303 158.263 175.303 162.833 175.303 166.052 174.055 168.027 172.498 170.209 170.732 171.142 168.445 171.142 166.266 171.142 163.668 169.792 161.799 168.13 160.448 166.675 159.305 164.909 158.579 162.417 157.749 159.925 157.02 158.782 156.606 157.431 156.087 155.978 155.464 155.249 154.632 155.249 153.593 155.249 153.073 155.561 152.657 155.978 152.347 156.601 152.035 157.535 151.827 158.367 151.827 160.236 151.827 161.275 152.763 161.898 154.112L170.418 154.006 170.418 154.006zM175.609 173.014C176.129 173.014 176.545 172.703 176.545 172.08 176.545 171.25 175.922 171.041 175.09 171.041L173.947 171.041 173.947 174.469 174.467 174.469 174.467 173.119 175.09 173.119 176.026 174.469 176.858 174.469 175.609 173.014 175.609 173.014zM174.467 172.703L174.467 171.457 175.09 171.457C175.715 171.457 176.026 171.664 176.026 172.08 176.026 172.496 175.715 172.703 175.196 172.703L174.467 172.703 174.467 172.703z"/>
    <path fill="#000" fill-rule="nonzero" d="M172.344,172.703 C172.344,171.935 172.674,171.223 173.194,170.701 L173.194,170.701 C173.714,170.181 174.428,169.853 175.196,169.853 C175.964,169.853 176.676,170.181 177.196,170.701 C177.717,171.222 178.046,171.935 178.046,172.703 C178.046,173.51 177.728,174.213 177.222,174.719 C176.701,175.24 175.976,175.553 175.197,175.553 C174.418,175.553 173.693,175.241 173.17,174.719 C172.662,174.213 172.344,173.51 172.344,172.703 L172.344,172.703 Z M173.404,170.914 C172.939,171.379 172.642,172.018 172.642,172.703 C172.642,173.426 172.927,174.055 173.378,174.508 C173.847,174.975 174.495,175.254 175.194,175.254 C175.893,175.254 176.542,174.975 177.008,174.508 C177.459,174.055 177.744,173.426 177.744,172.703 C177.744,172.017 177.449,171.379 176.982,170.914 C176.515,170.447 175.878,170.152 175.193,170.152 C174.505,170.152 173.869,170.447 173.402,170.912 L173.402,170.914 L173.404,170.914 Z"/>
  </g>
</svg>
