<svg xmlns="http://www.w3.org/2000/svg" width="253" height="102" viewBox="0 0 253 102">
  <path fill="#B18E5F" d="M54.21,80.72 C54.21,78.43 53.56,76.18 52.03,74.56 C50.67,73.1 48.51,72.19 45.56,72.19 C42.36,72.19 39.62,73.4 37.62,75.43 C35.47,77.58 34.19,80.68 34.19,84.08 C34.19,86.44 34.88,88.78 36.49,90.45 C37.91,91.82 39.97,92.74 42.87,92.74 C45.77,92.74 48.38,91.66 50.35,89.89 C52.78,87.75 54.21,84.44 54.21,80.72 Z M46.84,87.32 C45.91,88.24 44.66,88.76 43.38,88.76 C42.09,88.76 41.16,88.32 40.47,87.67 C39.67,86.83 39.27,85.58 39.27,84.08 C39.27,81.5 40.04,79.3 41.33,77.84 C42.36,76.76 43.68,76.13 45.1,76.13 C46.36,76.13 47.36,76.54 48.04,77.21 C48.85,78.03 49.19,79.29 49.19,80.78 C49.19,83.54 48.31,85.92 46.84,87.32 Z M60.01,70.47 L59.56,72.63 L56.39,72.63 L55.25,76.51 L59.1,76.51 C57.47,86.62 57.16,92.95 50.86,98.66 L53.91,101.78 C61.66,95.4 62.65,85.92 64.1,76.51 L68.31,76.51 L69.8,72.63 L64.79,72.63 L65.13,70.86 C65.69,68.1 67.23,66.95 69.07,66.95 C70.1,66.95 71.08,67.19 72.15,67.85 L74.11,64.23 C72.28,63.19 70.65,62.87 68.88,62.87 C65.82,62.86 61.19,64.37 60.01,70.47 Z M81.15,92.13 L88.63,92.13 L88.63,50.39 L81.15,50.39 L81.15,92.13 Z M114.14,62.59 C112.94,62.41 111.58,62.22 109.7,62.22 C99.76,62.22 92.4,68.76 92.4,77.83 C92.4,87.76 100.1,92.75 109.5,92.75 C114.56,92.75 118.53,91.76 121.18,90.45 L121.18,50.32 L114.14,50.32 L114.14,62.59 Z M114.14,86.83 C113.2,87.14 111.67,87.39 110.23,87.39 C103.27,87.39 99.43,83.2 99.43,77.45 C99.43,71.3 104,67.53 109.97,67.53 C111.99,67.53 113,67.72 114.14,68.01 L114.14,86.83 L114.14,86.83 Z M150.75,72.58 C150.75,65 145.95,62.21 138.66,62.21 C134.46,62.21 130.67,62.97 126.55,65.55 L128.91,69.68 C130.86,68.5 133.58,67.33 137.22,67.33 C140.81,67.33 143.63,68.8 143.63,72.89 L143.63,73.73 L137.7,73.93 C129.37,74.24 124.46,77.57 124.46,83.55 C124.46,89.24 129.04,92.74 134.66,92.74 C139.12,92.74 142.08,91.13 144.11,89.4 L145.45,92.12 L151.34,92.12 C150.87,90.95 150.75,88.79 150.75,83.25 L150.75,72.58 L150.75,72.58 Z M143.59,85.24 C142.44,86.22 140.34,87.57 137.04,87.57 C133.38,87.57 131.5,85.66 131.5,83.08 C131.5,80.37 133.59,78.82 138.38,78.69 L143.59,78.51 L143.59,85.24 Z M173.76,62.21 C169.44,62.21 166.13,63.96 162.95,66.23 L162.95,50.32 L155.92,50.32 L155.92,92.13 L162.95,92.13 L162.95,71.6 C165.26,69.81 168.24,67.96 171.4,67.96 C175.86,67.96 176.54,71.34 176.54,74.76 L176.54,92.14 L183.58,92.14 L183.58,72.96 C183.57,64.57 178.5,62.21 173.76,62.21 Z M202.5,62.21 C198.1,62.21 194.3,63.7 191.61,66.27 C188.71,69 187.01,73.01 187.01,77.63 C187.01,82.32 188.71,86.44 191.8,89.18 C194.45,91.52 198.09,92.75 202.5,92.75 C207.01,92.75 210.81,91.26 213.56,88.75 C216.49,86.03 218.1,82.01 218.1,77.44 C218.1,72.95 216.54,69 213.7,66.36 C211,63.7 207.15,62.21 202.5,62.21 Z M202.55,87.63 C197.35,87.63 194.17,83.56 194.17,77.51 C194.17,71.53 197.01,67.41 202.42,67.41 C207.76,67.41 210.87,71.41 210.87,77.51 C210.88,83.43 207.96,87.63 202.55,87.63 Z M36.06,0.75 L28.4,0.75 L28.4,27.74 C28.4,30.65 27.73,33.18 25.89,34.9 C24.21,36.56 21.88,37.55 17.97,37.55 C14.46,37.55 12.28,36.55 10.57,34.9 C8.62,32.99 7.74,30.21 7.74,27.38 L7.74,0.75 L0.13,0.75 L0.13,27.68 C0.13,31.94 1.15,36.33 4.47,39.23 C7.23,41.69 11.75,43.1 17.82,43.1 C24.18,43.1 28.82,41.5 31.8,38.74 C34.72,36.01 36.05,32.12 36.05,27.81 L36.05,0.75 L36.06,0.75 Z M47.71,21.84 C50.19,20.03 53.24,18.32 56.41,18.32 C60.75,18.32 61.42,21.88 61.42,25.03 L61.42,42.48 L68.46,42.48 L68.46,22.99 C68.46,15.42 63.44,12.57 58.72,12.57 C54.33,12.57 50.95,14.12 47.37,16.58 L46.56,13.31 L40.68,13.31 L40.68,42.47 L47.72,42.47 L47.72,21.84 L47.71,21.84 Z M73.34,42.48 L80.38,42.48 L80.38,13.32 L73.34,13.32 L73.34,42.48 Z M76.85,8.81 C79.36,8.81 81.31,6.97 81.31,4.81 C81.31,2.53 79.36,0.8 76.85,0.8 C74.3,0.8 72.33,2.6 72.33,4.81 C72.33,7.03 74.3,8.81 76.85,8.81 Z M100.46,42.67 L113.23,13.32 L106.68,13.32 L98.19,34.34 L98.06,34.34 L90.08,13.32 L83.15,13.32 L95.48,42.67 L100.46,42.67 L100.46,42.67 Z M127.89,43.09 C131.6,43.09 136.05,42.05 139.23,39.96 C139.23,39.96 138.07,37.75 137.4,35.39 C134.83,36.95 132.01,37.81 129.17,37.81 C123.43,37.81 119.63,34.23 119.57,29.42 L140.12,29.42 L140.12,27.63 C140.12,18.58 134.84,12.58 126.33,12.58 C117.68,12.58 112.35,19.37 112.35,27.68 C112.34,35.64 117.14,43.09 127.89,43.09 Z M126.39,17.58 C130.85,17.58 133.13,21.27 133.21,24.65 L119.51,24.65 C119.51,21.03 122.21,17.58 126.39,17.58 Z M151.08,21.47 C153.17,19.66 155.3,18.6 157.18,18.58 C158.65,18.57 160.58,18.91 161.64,19.7 C162.65,15.81 164.34,13.84 164.34,13.84 C163.29,12.92 160.84,12.4 159.36,12.4 C156.52,12.4 154.41,13.51 150.82,16.52 L149.94,13.32 L144.07,13.32 L144.07,42.48 L151.1,42.48 L151.1,21.47 L151.08,21.47 Z M171.6,20.61 C171.6,18.58 173.71,17.7 176.59,17.7 C180.05,17.7 182.8,18.5 185.05,19.55 C184.91,16.73 185.23,14.13 185.23,14.13 C182.87,13.27 180.17,12.58 176.32,12.58 C168.83,12.58 164.77,16.15 164.77,20.91 C164.77,31.02 179.44,28.8 179.44,34.65 C179.44,36.88 177.07,38.17 173.55,38.17 C170.23,38.17 167.24,37 165.18,35.39 C164.08,38.4 162.8,40.51 162.8,40.51 C165.37,42 168.83,43.09 173.89,43.09 C180.58,43.09 186.53,40.57 186.53,34.16 C186.53,24.29 171.6,25.83 171.6,20.61 Z M194.07,8.81 C196.57,8.81 198.53,6.97 198.53,4.81 C198.53,2.53 196.57,0.8 194.07,0.8 C191.5,0.8 189.55,2.6 189.55,4.81 C189.55,7.03 191.5,8.81 194.07,8.81 Z M190.55,42.48 L197.59,42.48 L197.59,13.32 L190.55,13.32 L190.55,42.48 Z M245.99,13.32 C245.99,13.32 242.69,27.86 238.54,35.66 C234.74,27.38 229.04,13.32 229.04,13.32 L214.17,13.32 L214.17,4.74 L207.13,6.72 L207.13,13.32 L201.59,13.32 L201.59,18.32 L207.13,18.32 L207.13,36.5 C207.13,40.32 209.37,43.09 214.64,43.09 C217.67,43.09 221.6,42.05 224.64,40.01 L222.68,35.83 C221.39,36.62 219.37,37.6 217.27,37.6 C215.18,37.6 214.17,36.5 214.17,34.22 L214.17,18.32 L224.36,18.32 C228.1,26.49 235.11,41.84 235.11,42.06 C235.11,42.38 231.62,50.82 223.32,54.92 L226.62,59.33 C243.26,52.86 252.15,13.32 252.15,13.32 L245.99,13.32 Z"/>
</svg>
