<svg xmlns="http://www.w3.org/2000/svg" width="344" height="47" viewBox="0 0 344 47">
  <g fill="#BC9B6A">
    <path d="M25.68 30.51C23.36 32.68 19.73 33.93 14.77 33.93 10.02 33.93 6.5 32.82 4.34 30.9 1.76 28.64.96 25.22.96 21.9L.96.87 6.9.87 6.9 21.66C6.9 23.87 7.58 26.04 9.11 27.53 10.43 28.83 12.13 29.6 14.87 29.6 17.93 29.6 19.74 28.83 21.06 27.53 22.48 26.18 23.01 24.21 23.01 21.95L23.01.87 29 .87 29 22C29.01 25.36 27.95 28.4 25.68 30.51zM48.79 33.45L48.79 19.83C48.79 17.38 48.26 14.58 44.89 14.58 42.41 14.58 40.04 15.93 38.09 17.33L38.09 33.45 32.6 33.45 32.6 10.69 37.19 10.69 37.82 13.24C40.62 11.31 43.25 10.11 46.68 10.11 50.37 10.11 54.27 12.32 54.27 18.24L54.27 33.45 48.79 33.45zM64.33 4.05C64.33 5.73 62.8 7.18 60.85 7.18 58.85 7.18 57.32 5.78 57.32 4.05 57.32 2.32 58.85.92 60.85.92 62.8.92 64.33 2.26 64.33 4.05zM58.11 33.45L58.11 10.69 63.6 10.69 63.6 33.45 58.11 33.45z"/>
    <polygon points="79.26 33.59 75.36 33.59 65.75 10.68 71.17 10.68 77.39 27.09 77.49 27.09 84.12 10.68 89.23 10.68"/>
    <path d="M94.18 23.25C94.23 27 97.19 29.79 101.67 29.79 103.88 29.79 106.1 29.12 108.1 27.91 108.61 29.74 109.52 31.47 109.52 31.47 107.04 33.11 103.57 33.92 100.67 33.92 92.28 33.92 88.54 28.1 88.54 21.89 88.54 15.39 92.71 10.1 99.46 10.1 106.11 10.1 110.22 14.77 110.22 21.84 110.22 22.18 110.22 22.66 110.22 23.24L94.18 23.24 94.18 23.25zM99.5 14.01C96.23 14.01 94.13 16.7 94.13 19.54L104.82 19.54C104.77 16.89 102.98 14.01 99.5 14.01zM127.01 15.66C126.18 15.05 124.68 14.77 123.53 14.79 122.05 14.81 120.4 15.64 118.76 17.04L118.76 33.45 113.27 33.45 113.27 10.69 117.86 10.69 118.54 13.19C121.33 10.83 122.99 9.97 125.2 9.97 126.36 9.97 128.27 10.38 129.1 11.09 129.12 11.09 127.79 12.63 127.01 15.66zM136.58 33.93C132.62 33.93 129.93 33.06 127.93 31.91 127.93 31.91 128.92 30.26 129.78 27.92 131.39 29.18 133.74 30.09 136.32 30.09 139.06 30.09 140.91 29.08 140.91 27.35 140.91 22.78 129.46 24.51 129.46 16.62 129.46 12.92 132.62 10.12 138.48 10.12 141.49 10.12 143.6 10.65 145.44 11.32 145.44 11.32 145.18 13.36 145.29 15.55 143.53 14.73 141.38 14.11 138.69 14.11 136.42 14.11 134.79 14.78 134.79 16.37 134.79 20.46 146.45 19.26 146.45 26.96 146.44 31.96 141.8 33.93 136.58 33.93zM155.81 4.05C155.81 5.73 154.28 7.18 152.33 7.18 150.33 7.18 148.8 5.78 148.8 4.05 148.8 2.32 150.33.92 152.33.92 154.28.92 155.81 2.26 155.81 4.05zM149.58 33.45L149.58 10.69 155.06 10.69 155.06 33.45 149.58 33.45zM168.37 33.93C164.26 33.93 162.52 31.76 162.52 28.78L162.52 14.58 158.2 14.58 158.2 10.68 162.52 10.68 162.52 5.53 168 4 168 10.69 176.35 10.69 178.29 14.59 168 14.59 168 27C168 28.78 168.79 29.65 170.43 29.65 172.06 29.65 173.65 28.88 174.65 28.26L176.18 31.53C173.81 33.11 170.75 33.93 168.37 33.93zM212.41 31.69C210.88 33.08 208.84 33.93 206.57 33.93 204.3 33.93 202.7 33.22 201.6 32.14 200.33 30.84 199.8 29.02 199.8 27.17 199.8 24.51 200.8 22.1 202.47 20.41 204.04 18.82 206.18 17.88 208.68 17.88 210.98 17.88 212.65 18.59 213.72 19.73 214.92 21 215.42 22.75 215.42 24.54 215.42 27.46 214.32 30.03 212.41 31.69zM210.61 21.81C210.08 21.29 209.31 20.97 208.31 20.97 207.21 20.97 206.17 21.46 205.37 22.3 204.37 23.44 203.77 25.16 203.77 27.17 203.77 28.34 204.07 29.31 204.71 29.96 205.25 30.48 205.98 30.8 206.98 30.8 207.98 30.8 208.95 30.41 209.69 29.7 210.82 28.6 211.53 26.74 211.53 24.6 211.51 23.44 211.24 22.46 210.61 21.81z"/>
    <path d="M229.43,14.5 C228.59,13.98 227.83,13.79 227.02,13.79 C225.59,13.79 224.38,14.7 223.95,16.84 L223.68,18.24 L227.59,18.24 L226.42,21.26 L223.15,21.26 C222.02,28.6 221.24,36.01 215.2,40.97 L212.8,38.53 C217.72,34.07 217.98,29.14 219.24,21.25 L216.24,21.25 L217.12,18.23 L219.61,18.23 L219.94,16.54 C220.88,11.76 224.48,10.6 226.89,10.6 C228.26,10.6 229.53,10.86 230.96,11.67 L229.43,14.5 Z"/>
    <polygon points="236.45 33.45 236.45 .87 242.29 .87 242.29 33.45"/>
    <path d="M258.57 33.93C251.24 33.93 245.23 30.03 245.23 22.28 245.23 15.21 250.98 10.1 258.73 10.1 260.21 10.1 261.26 10.24 262.21 10.39L262.21.82 267.7.82 267.7 32.15C265.63 33.16 262.52 33.93 258.57 33.93zM262.2 14.63C261.31 14.39 260.51 14.25 258.93 14.25 254.29 14.25 250.7 17.19 250.7 22 250.7 26.48 253.71 29.75 259.14 29.75 260.25 29.75 261.46 29.56 262.2 29.32L262.2 14.63zM286.66 33.45L285.6 31.33C284.02 32.68 281.7 33.93 278.22 33.93 273.84 33.93 270.26 31.18 270.26 26.76 270.26 22.09 274.11 19.49 280.6 19.25L285.24 19.11C285.24 18.92 285.24 18.53 285.24 18.44 285.24 15.26 283.03 14.11 280.23 14.11 277.38 14.11 275.27 15.02 273.74 15.94L271.89 12.72C275.11 10.7 278.06 10.12 281.33 10.12 287.03 10.12 290.77 12.29 290.77 18.2L290.77 26.53C290.77 30.86 290.88 32.54 291.24 33.46L286.66 33.46 286.66 33.45zM285.18 22.81L281.12 22.96C277.38 23.06 275.74 24.26 275.74 26.38 275.74 28.4 277.22 29.89 280.06 29.89 282.64 29.89 284.28 28.83 285.18 28.06L285.18 22.81zM310.9 33.45L310.9 19.88C310.9 17.23 310.37 14.59 306.89 14.59 304.41 14.59 302.09 16.03 300.3 17.43L300.3 33.45 294.81 33.45 294.81.82 300.3.82 300.3 13.23C302.78 11.45 305.36 10.1 308.74 10.1 312.43 10.1 316.39 11.93 316.39 18.47L316.39 33.44 310.9 33.44 310.9 33.45zM339.91 13.33C342.13 15.4 343.34 18.48 343.34 21.99 343.34 25.55 342.07 28.68 339.81 30.8 337.65 32.77 334.69 33.93 331.16 33.93 327.73 33.93 324.88 32.97 322.82 31.14 320.4 29.02 319.08 25.8 319.08 22.14 319.08 18.53 320.4 15.4 322.67 13.28 324.78 11.26 327.73 10.1 331.16 10.1 334.79 10.11 337.8 11.26 339.91 13.33zM324.66 22.04C324.66 26.76 327.14 29.93 331.2 29.93 335.42 29.93 337.69 26.66 337.69 22.04 337.69 17.28 335.27 14.15 331.1 14.15 326.88 14.15 324.66 17.38 324.66 22.04zM197.65 10.69L192.84 10.69C192.84 10.69 190.27 22.05 187.03 28.12 184.06 21.66 179.61 10.69 179.61 10.69L174.17 10.69C174.17 10.69 184.36 32.88 184.36 33.12 184.36 33.36 181.63 39.96 175.16 43.17L177.73 46.6C190.72 41.55 197.65 10.69 197.65 10.69z"/>
  </g>
</svg>
