<svg width="763" height="189" viewBox="0 0 763 189" xmlns="http://www.w3.org/2000/svg"><g fill="none" fill-rule="evenodd"><path d="M162.069 31.082l.174 92.78c0 5.941 0 24.026-45.543 24.1l-4.277.009-4.277-.009c-45.546-.074-45.546-18.159-45.546-24.1l.175-92.78H0l.055 106.701c0 29.518 82.744 31.815 108.111 31.815h8.521c25.36 0 108.105-2.297 108.105-31.815l.056-106.701h-62.779" fill="#FFFFFE"/><path d="M166.914 123.862l.017-88.253h53.247s-.063 98.643-.063 102.174c0 19.372-53.161 27.139-103.428 27.139 0-2.441.016-8.439.016-12.293 25.16-.037 50.211-5.356 50.211-28.767M57.934 123.862l-.019-88.253H4.668s.062 98.643.062 102.174c0 19.372 53.167 27.139 103.436 27.139 0-2.441-.025-8.439-.025-12.293-25.156-.037-50.207-5.356-50.207-28.767M262.358 0v189" fill="#44536b"/><path d="M262.358 0v189" stroke="#44536b" stroke-width="4"/><path d="M318.435 35.754v3.384h-3.744c-2.881 0-3.817.72-3.817 3.456v29.091c0 9.145 4.536 13.321 14.402 13.321 6.48 0 10.8-2.304 12.817-6.696.936-2.017 1.08-5.329 1.08-10.01V45.619c0-4.393-.936-6.481-5.185-6.481h-3.168v-3.384h19.802v3.384h-2.665c-4.104 0-5.256 1.872-5.256 6.481v22.969c0 14.114-5.185 20.378-19.946 20.378-13.033 0-19.658-5.832-19.658-17.353V42.594c0-2.736-.792-3.456-3.815-3.456h-4.177v-3.384h23.33M353.857 84.646c6.624-.504 7.704-2.808 7.704-9.217V41.442c-1.08-1.944-3.024-2.376-6.481-2.376h-1.223v-3.312h14.04l28.657 39.243v-26.93c0-6.985-1.367-9.145-8.568-9.217v-3.096h20.09v3.096c-6.48.288-7.849 2.592-7.849 9.217v40.971h-2.88l-32.042-43.707v30.098c0 6.769 1.512 9.217 8.568 9.217v3.096h-20.016v-3.096M412.894 84.358h3.889c2.951 0 3.889-.72 3.889-3.457V42.594c0-2.736-.938-3.456-3.889-3.456h-3.889v-3.384h23.475v3.384h-3.889c-2.953 0-3.816.72-3.816 3.456v38.307c0 2.737.863 3.457 3.816 3.457h3.889v3.384h-23.475v-3.384M463.296 89.038l-18.218-46.732c-1.08-2.808-1.584-3.168-5.184-3.168h-1.585v-3.384h22.107v3.384h-2.664c-2.953 0-4.321.288-4.321 1.944 0 .504.144 1.44.577 2.52l12.744 32.547 11.304-29.09c.649-1.728.937-3.168.937-4.105 0-2.664-1.656-3.816-5.185-3.816h-2.015v-3.384h18.793v3.384h-.504c-4.176 0-5.616 1.8-7.273 6.12l-16.706 43.78h-2.807M491.949 84.358h3.744c2.881 0 3.817-.648 3.817-3.457V42.594c0-2.808-.936-3.456-3.817-3.456h-3.744v-3.384h42.124l.937 18.361h-3.097c-.937-6.336-2.808-10.513-5.04-12.457-2.521-2.088-6.77-2.664-13.394-2.664-4.753 0-6.12.216-6.12 3.6v16.489h1.008c7.416 0 10.225-2.447 10.873-9.936h3.023v22.898h-3.023c-.648-7.489-3.385-9.865-10.873-9.865h-1.008v18.721c0 3.529 1.584 3.673 6.696 3.673 6.048 0 10.369-.432 13.249-1.872 3.313-1.657 5.256-6.481 6.769-14.689h2.736l-1.08 19.729h-43.78v-3.384M557.471 59.083l3.528.144c.864.073 1.656.073 2.448.073 9.576 0 13.825-2.952 13.825-10.297 0-7.273-3.456-10.009-11.448-10.009h-4.682c-3.023 0-3.671.72-3.671 3.168v16.921zm-15.41 25.275h3.744c2.88 0 3.817-.648 3.817-3.457V42.594c0-2.808-.937-3.456-3.817-3.456h-3.744v-3.384h28.802c8.713 0 14.546 5.112 14.546 12.745 0 7.561-5.329 11.809-15.913 12.961 5.832.792 8.856 3.6 10.152 9.288l1.945 8.137c.719 3.169 1.656 4.753 3.24 4.753 1.944 0 2.808-2.449 2.952-7.561h2.736c0 .576.073 1.152.073 1.656 0 7.345-3.241 11.305-8.713 11.305-5.689 0-7.777-3.168-8.569-10.153l-.793-7.2c-.718-6.913-4.248-9.145-11.16-9.145h-3.888v18.361c0 2.809.864 3.457 3.744 3.457h4.465v3.384h-23.619v-3.384zM596.853 88.606h-2.521l-.36-20.881h2.953c2.16 11.88 8.209 18.073 17.425 18.073 7.849 0 12.169-3.96 12.169-10.297 0-3.024-1.152-5.4-3.168-6.84-2.52-1.801-6.552-2.521-11.808-3.961-11.522-3.096-17.067-5.976-17.067-15.481 0-8.929 5.977-14.689 15.338-14.689 5.256 0 9.866 1.728 13.465 5.04l2.809-4.321h2.664l.792 18.722h-2.809C624 43.242 618.31 37.842 609.814 37.842c-6.337 0-9.937 3.168-9.937 8.713 0 6.912 5.4 7.704 14.977 10.081 5.185 1.296 9.505 2.376 12.818 5.4 2.808 2.592 4.392 6.481 4.392 11.089 0 10.009-6.337 15.913-17.857 15.913-5.617 0-10.873-2.016-14.33-5.4l-3.024 4.968M636.74 84.358h3.889c2.952 0 3.888-.72 3.888-3.457V42.594c0-2.736-.936-3.456-3.888-3.456h-3.889v-3.384h23.475v3.384h-3.889c-2.952 0-3.816.72-3.816 3.456v38.307c0 2.737.864 3.457 3.816 3.457h3.889v3.384H636.74v-3.384M695.638 84.358h4.61v3.384h-24.627v-3.384h4.608c2.88 0 3.817-.648 3.817-3.457V42.306c0-3.816-1.152-3.816-4.753-3.816-6.912 0-9.576 5.184-11.233 17.209h-2.736l1.008-19.945h43.204l1.08 19.945h-2.736c-1.945-13.321-4.392-17.209-12.673-17.209-2.664 0-3.313.864-3.313 3.816v38.595c0 2.809.865 3.457 3.744 3.457M745.75 84.358h4.465v3.384h-24.411v-3.384h4.537c2.807 0 3.816-.72 3.816-3.457V66.212l-14.546-23.114c-1.727-2.808-2.519-3.96-5.904-3.96h-1.367v-3.384h22.177v3.384h-2.953c-2.447 0-3.744.432-3.744 1.656 0 .72.433 1.44 1.08 2.52l11.449 18.074 9.434-16.417c.576-1.009.863-1.873.863-2.809 0-2.016-1.656-3.024-4.968-3.024h-2.016v-3.384h19.01v3.384h-1.368c-3.313 0-4.321 1.152-5.977 3.96l-13.321 22.754v15.049c0 2.737.935 3.457 3.744 3.457M325.563 161.226c10.369 0 15.409-7.993 15.409-23.978 0-16.129-4.824-23.978-15.409-23.978-10.441 0-15.409 7.849-15.409 23.978 0 16.057 4.896 23.978 15.409 23.978zm-18.002-43.276c4.609-5.256 10.801-7.993 18.002-7.993 7.345 0 13.105 2.593 17.858 7.921 4.536 5.113 6.84 11.593 6.84 19.37 0 7.705-1.872 13.681-6.336 18.866-4.825 5.616-10.873 8.352-18.362 8.352-7.488 0-13.465-2.664-18.362-8.352-4.464-5.185-6.408-11.234-6.408-18.866 0-7.704 2.376-14.329 6.768-19.298zM350.833 159.858h3.744c2.88 0 3.816-.648 3.816-3.457v-38.307c0-2.808-.936-3.456-3.816-3.456h-3.744v-3.384h42.122l.936 18.361h-3.096c-.936-6.336-2.808-10.512-5.04-12.457-2.521-2.088-6.769-2.664-13.394-2.664-4.751 0-6.119.216-6.119 3.6v16.489h1.008c7.416 0 10.224-2.447 10.873-9.936h3.023v22.898h-3.023c-.649-7.489-3.385-9.865-10.873-9.865h-1.008v18.721c0 2.809.864 3.457 3.744 3.457h4.752v3.384h-23.905v-3.384M429.023 150.929c0 6.841 1.512 9.145 8.569 9.217v3.096h-20.881v-3.096c7.271-.072 8.64-2.448 8.64-9.217v-32.835c0-2.808-.936-3.456-3.816-3.456h-4.249v-3.384h18.002l13.97 39.747 13.537-39.747h17.568v3.384h-3.816c-2.88 0-3.744.648-3.744 3.456v38.307c0 2.809.864 3.457 3.744 3.457h3.816v3.384h-23.33v-3.384h4.32c2.881 0 3.817-.648 3.817-3.457v-40.539l-16.129 47.38h-2.809l-17.209-47.38v35.067M485.758 159.858h3.888c2.951 0 3.889-.72 3.889-3.457v-38.307c0-2.736-.938-3.456-3.889-3.456h-3.888v-3.384h23.474v3.384h-3.888c-2.954 0-3.817.72-3.817 3.456v38.307c0 2.737.863 3.457 3.817 3.457h3.888v3.384h-23.474v-3.384" fill="#44536b"/><path d="M532.919 121.767l-8.208 20.881h16.777l-8.569-20.881zm3.456-11.377l18.361 45.868c1.152 2.808 2.018 3.742 4.969 3.742.432 0 .936-.016 1.44-.016v3.258h-21.53v-3.456h2.736c3.025 0 4.393-.216 4.393-1.872 0-.576-.216-1.44-.648-2.52l-3.312-9.073h-19.37l-2.233 5.616c-.647 1.656-1.007 3.384-1.007 4.321 0 2.304 1.8 3.528 5.256 3.528h1.8v3.456h-18.578v-3.383h.576c4.249 0 5.69-1.729 7.417-6.122l16.922-43.347h2.808z" fill="#44536b"/><path d="M572.158 150.929c0 6.841 1.512 9.145 8.568 9.217v3.096h-20.881v-3.211c7.272-.072 8.64-2.333 8.64-9.102v-32.835c0-2.808-.936-3.456-3.816-3.456h-4.249v-3.384h18.002l13.969 39.747 13.538-39.747h17.569v3.384h-3.817c-2.88 0-3.744.648-3.744 3.456v38.307c0 2.809.864 3.457 3.744 3.457h3.817v3.384h-23.33v-3.384h4.32c2.881 0 3.817-.648 3.817-3.457v-40.539l-16.129 47.38h-2.809l-17.209-47.38v35.067M628.892 159.858h3.888c2.952 0 3.888-.72 3.888-3.457v-38.307c0-2.736-.936-3.456-3.888-3.456h-3.888v-3.384h23.474v3.384h-3.889c-2.952 0-3.815.72-3.815 3.456v38.307c0 2.737.863 3.457 3.815 3.457h3.889v3.384h-23.474v-3.384" fill="#44536b"/></g></svg>