<svg xmlns="http://www.w3.org/2000/svg" viewBox="8.408 7.669 1003.843 311.321"><path fill="#1F4285" d="M318.506 123.322c-78.24 0-95.738 50.72-95.738 85.604v102.9h57.652v-98.882c0-27.023 15.1-38.96 38.085-38.96 22.955 0 38.26 11.937 38.26 38.96v98.88h57.65V208.928c.002-34.885-17.698-85.605-95.91-85.605zm418.763 0c-48.044 0-85.955 23.997-85.955 81.936v106.568h56.43V205.084c0-18.687 9.56-33.02 32.844-33.02 23.31 0 32.843 14.333 32.843 33.02v106.742h56.255V205.084c0-18.687 9.546-33.02 32.844-33.02 23.312 0 32.845 14.333 32.845 33.02v106.742h56.43V205.258c0-57.94-37.904-81.936-85.955-81.936-47.127 0-61.83 25.856-64.29 29.175-2.49-3.32-17.124-29.175-64.293-29.175zm222.92 6.464c-3.998 0-8.387 2.257-8.387 6.988 0 9.21 14.5 4.507 14.5 11.18 0 2.754-2.864 4.543-5.59 4.543-2.83 0-5.857-1.446-7.163-4.018l-2.62 1.92c1.9 3.355 5.457 4.893 9.608 4.893 4.612 0 8.735-2.537 8.735-7.512 0-9.803-14.326-4.625-14.326-11.18 0-2.51 2.978-4.018 5.24-4.018 2.83 0 4.39 1.286 5.592 3.494l2.97-1.747c-1.572-3.09-4.626-4.544-8.56-4.544zm27.253 0c-3.948 0-6.953 2.222-8.21 4.892h-.176c-.098-.468-.294-2.425-.35-4.193h-3.145c0 1.258.35 5.038.35 6.813v17.295h3.144V142.54c0-6.653 3.704-9.958 8.386-9.958 3.41 0 5.066 3.054 5.066 7.512v14.5h3.145V140.97c0-3.452 1.523-8.386 7.338-8.386 4.983 0 6.115 3.935 6.115 7.862v14.15h3.145V140.27c0-5.284-1.698-10.483-9.26-10.483-3.353 0-6.7 1.614-8.21 5.24-1.16-3.67-4.143-5.24-7.337-5.24zm-979.035.7V233.21c0 34.89 17.68 85.78 95.912 85.78 78.21 0 95.737-50.89 95.737-85.78V130.485h-57.652v98.707c0 27.106-15.136 38.96-38.085 38.96-22.977 0-38.26-11.854-38.26-38.96v-98.707H8.408zm428.546 0V233.21c0 34.89 17.66 85.78 95.912 85.78 78.204 0 95.912-50.89 95.912-85.78V130.485h-57.652v98.707c0 27.106-15.304 38.96-38.26 38.96-22.984 0-38.26-11.854-38.26-38.96v-98.707h-57.652z"/><path fill="#517895" d="M318.506 7.67c-26.437 0-47.345 20.118-47.345 46.295 0 26.206 20.91 46.47 47.346 46.47 26.177.002 46.82-20.264 46.82-46.47 0-26.177-20.643-46.296-46.82-46.296zm214.36 0c-26.422 0-47.345 20.118-47.345 46.295 0 26.206 20.924 46.47 47.346 46.47 26.178.002 46.82-20.264 46.82-46.47 0-26.177-20.642-46.296-46.82-46.296zm268.694 0c-26.437 0-47.345 20.118-47.345 46.295 0 26.206 20.908 46.47 47.345 46.47 26.177.002 46.82-20.264 46.82-46.47 0-26.177-20.644-46.296-46.82-46.296z"/></svg>