<svg xmlns="http://www.w3.org/2000/svg" viewBox="0 0 120 40"><path d="M47.015 26.615v-1.572c-.955 1.103-2.641 2.207-4.776 2.207-2.923 0-4.383-1.598-4.383-4.442v-9.644c0-.158.124-.286.276-.286h2.397a.28.28 0 01.276.286v8.511c0 2.178 1.069 2.874 2.754 2.874 1.49 0 2.781-.9 3.456-1.829v-9.556c0-.158.124-.286.277-.286h2.397c.152 0 .276.128.276.286v13.451a.281.281 0 01-.276.286h-2.397a.282.282 0 01-.277-.286zm9.438-1.659v7.001a.28.28 0 01-.276.286H53.78a.281.281 0 01-.276-.286V13.164c0-.158.123-.286.276-.286h2.397a.28.28 0 01.276.286v1.63c1.012-1.393 2.585-2.264 4.355-2.264 3.512 0 6.012 2.729 6.012 7.345s-2.5 7.375-6.012 7.375c-1.714 0-3.23-.813-4.355-2.294zm7.333-5.08c0 2.728-1.517 4.673-3.849 4.673-1.377 0-2.837-.87-3.484-1.916v-5.545c.675-1.045 2.107-1.858 3.484-1.858 2.332 0 3.849 1.916 3.849 4.645zM78.95 26.9a.282.282 0 01-.276-.286v-8.54c0-2.206-1.068-2.845-2.725-2.845-1.518 0-2.81.93-3.484 1.858v9.527a.281.281 0 01-.276.286h-2.398a.281.281 0 01-.276-.286V7.822a.28.28 0 01.276-.286h2.398c.152 0 .276.128.276.286v6.944c.9-1.104 2.641-2.236 4.776-2.236 2.922 0 4.383 1.567 4.383 4.442v9.643a.281.281 0 01-.276.286H78.95zm5.398-7.026c0-4.035 2.641-7.345 6.968-7.345s6.968 3.31 6.968 7.345c0 4.006-2.641 7.375-6.968 7.375s-6.968-3.369-6.968-7.375zm10.873 0c0 2.497-1.377 4.674-3.905 4.674-2.5 0-3.905-2.177-3.905-4.674 0-2.467 1.404-4.645 3.905-4.645 2.528 0 3.905 2.178 3.905 4.645zm5.786 6.74V7.822a.28.28 0 01.277-.286h2.397a.28.28 0 01.276.286v18.793a.282.282 0 01-.276.286h-2.397a.281.281 0 01-.277-.286zm16.042 0v-1.63c-1.04 1.393-2.585 2.264-4.354 2.264-3.456 0-6.013-2.729-6.013-7.373 0-4.53 2.528-7.346 6.013-7.346 1.713 0 3.286.784 4.354 2.294V7.822c0-.158.124-.286.276-.286h2.397c.153 0 .277.128.277.286v18.794a.281.281 0 01-.277.285h-2.397a.281.281 0 01-.276-.285zm0-3.952c-.646 1.044-2.107 1.887-3.484 1.887-2.36 0-3.849-1.946-3.849-4.674 0-2.7 1.489-4.646 3.849-4.646 1.377 0 2.838.842 3.484 1.887v5.545zM17.292 36.8c.681-.207 1.396.194 1.596.897.202.703-.187 1.442-.868 1.65-1.42.433-2.843.653-4.232.653h-.17c-1.397 0-2.83-.222-4.258-.661-.68-.209-1.068-.948-.866-1.651.203-.703.918-1.103 1.598-.895a12.01 12.01 0 003.527.551h.17c1.141 0 2.32-.183 3.503-.543zm9.409-27.024c1.22 3.67.784 8.596-1.168 13.184-2.665 6.26-7.5 10.609-11.781 10.61l-.06-.001h-.062c-4.282 0-9.116-4.348-11.78-10.61C-.104 18.374-.54 13.448.68 9.778l-.002-.001C2.493 3.929 7.722 0 13.69 0c5.952 0 11.167 3.909 12.995 9.73l.009.023a.098.098 0 00.003.01l.004.013zm-3.129 12.293c-.836 1.965-1.916 3.727-3.114 5.178.865-3.51.449-8.044-1.425-12.446-.979-2.3-2.277-4.37-3.783-6.057 2.357-1.968 4.812-2.61 6.709-1.704 1.215.58 2.153 1.769 2.71 3.437 1.058 3.158.648 7.492-1.097 11.592zm-19.762 0c-1.745-4.1-2.155-8.433-1.098-11.592.558-1.668 1.496-2.857 2.71-3.437 1.899-.906 4.353-.263 6.71 1.704-1.507 1.687-2.804 3.756-3.783 6.057-1.874 4.402-2.29 8.936-1.425 12.447-1.198-1.452-2.278-3.214-3.114-5.179zm11.65 8.882c-.545.26-1.14.396-1.769.405a4.2 4.2 0 01-1.768-.405c-3.653-1.744-4.392-8.732-1.614-15.26.881-2.07 2.039-3.929 3.38-5.433 1.34 1.505 2.502 3.361 3.384 5.434 2.778 6.528 2.039 13.515-1.613 15.259zm-1.769 1.395v.194l-.001-.097.001-.096zm6.727-27.911c-2.164-.093-4.523.863-6.727 2.77-2.204-1.907-4.563-2.864-6.728-2.771a11.286 11.286 0 016.727-2.221c2.486 0 4.818.81 6.728 2.222z" fill="#fff" fill-rule="evenodd"/></svg>