<svg xmlns="http://www.w3.org/2000/svg" width="100" height="103" viewBox="0 0 100 103">
  <g fill="#003A63">
    <path d="M0.811403946,74.8114438 L0.811403946,91.5804587 C0.811403946,100.938651 6.54532517,102.507365 11.3055616,102.507365 C18.3918228,102.507365 21.6374386,97.8553159 21.6374386,91.4722715 L21.6374386,74.8114438 L16.9312957,74.8114438 L16.9312957,92.0673011 C16.9312957,94.2310449 16.2280789,98.2880647 11.2514681,98.2339711 C6.76169955,98.1798775 5.89620201,94.0146706 5.89620201,91.3099907 L5.89620201,74.8114438 L0.811403946,74.8114438 L0.811403946,74.8114438 Z M41.2193205,75.9474094 C41.2193205,75.9474094 38.2441727,74.4327887 34.8362761,74.4327887 C30.6169756,74.4327887 25.2617095,76.5965325 25.2617095,82.5468281 C25.2617095,86.6579414 28.2909509,88.6053109 30.3465076,89.6330893 C31.4283795,90.1740252 32.7807194,90.7690548 33.8625914,91.3640843 C34.4035273,91.6886459 36.6754584,92.4459563 36.6754584,94.8801681 C36.6754584,97.4766607 33.8084978,98.3962519 32.564345,98.3962519 C28.0204829,98.3962519 24.8830543,96.3406952 24.8830543,96.3406952 L25.3698967,101.587774 C25.3698967,101.587774 27.209079,102.561459 32.834813,102.561459 C38.1359855,102.561459 41.9766308,99.0994686 41.9766308,94.3933257 C41.9766308,90.7690548 39.4883254,88.6053109 37.3786751,87.5775326 C35.7017736,86.7661286 34.7280889,86.3333799 33.3216554,85.6301631 C31.8611283,84.9269464 30.4006012,83.7909808 30.4006012,81.9517986 C30.4006012,80.0044291 32.1856899,78.5979956 34.8362761,78.5979956 C38.731015,78.5979956 40.2997293,80.3289907 41.2193205,80.9240202 L41.2193205,75.9474094 L41.2193205,75.9474094 Z M73.2968231,93.5278282 L77.0292813,82.9254833 L80.3830843,93.5278282 L73.2968231,93.5278282 Z M50.8479806,93.5278282 L54.5804388,82.9254833 L57.8801482,93.5278282 L50.8479806,93.5278282 Z M79.3553059,74.8114438 L73.7295719,74.8114438 L74.649163,77.0833749 L65.940094,100.397715 L56.960557,74.8114438 L51.2807294,74.8114438 L52.2003205,77.0833749 L42.896222,101.912336 L47.98102,101.912336 L49.6038279,97.2061927 L59.2324881,97.2061927 L60.855296,101.912336 L70.4298625,101.912336 L72.0526704,97.2061927 L81.6813306,97.2061927 L83.3041385,101.912336 L88.9298725,101.912336 L79.3553059,74.8114438 Z M0.540935964,44.3567491 L0.75731035,52.8494437 C0.75731035,52.8494437 2.81286701,51.334823 5.13889166,51.334823 C7.4649163,51.334823 10.1155025,53.0117245 10.1155025,53.0117245 L30.9415371,65.1827837 L32.7266258,57.501493 L10.1155025,44.2485619 C10.1155025,44.2485619 7.5190099,42.5716604 5.13889166,42.5716604 C2.86696061,42.5716604 0.540935964,44.3567491 0.540935964,44.3567491 L0.540935964,44.3567491 Z"/>
    <path d="M0.540935964,33.2675618 L0.75731035,41.7602564 C0.75731035,41.7602564 2.81286701,40.2456357 5.13889166,40.2456357 C7.4649163,40.2456357 10.1155025,41.9225372 10.1155025,41.9225372 L33.1593746,55.3918427 L34.8903697,47.710552 L10.1155025,33.1593746 C10.1155025,33.1593746 7.5190099,31.4824731 5.13889166,31.4824731 C2.86696061,31.5365667 0.540935964,33.2675618 0.540935964,33.2675618"/>
    <path d="M0.540935964,22.1783745 L0.75731035,30.6710692 C0.75731035,30.6710692 2.81286701,29.1564485 5.13889166,29.1564485 C7.4649163,29.1564485 10.1155025,30.83335 10.1155025,30.83335 L35.4313056,45.6549954 L37.1623007,37.9737047 L10.1155025,22.1242809 C10.1155025,22.1242809 7.5190099,20.4473794 5.13889166,20.4473794 C2.86696061,20.4473794 0.540935964,22.1783745 0.540935964,22.1783745"/>
    <path d="M43.9240003,8.70906902 L46.2500249,18.7163844 L77.9488724,37.2704879 C77.9488724,37.2704879 80.4371779,38.9473894 82.8713897,38.9473894 C85.3056015,38.9473894 87.523439,37.2163943 87.523439,37.2163943 L87.3070646,28.6696061 C87.3070646,28.6696061 85.3056015,30.1842268 82.8713897,30.1842268 C80.4371779,30.1842268 77.9488724,28.5073253 77.9488724,28.5073253 L53.4444733,14.1725223 L51.7675718,7.73538429 C51.7675718,7.4649163 51.9839462,7.35672911 52.0921333,7.30263552 L56.2573403,6.0043892 C56.7982762,6.0043892 57.1228378,6.49123157 57.1228378,6.86988674 L57.3392122,7.30263552 C57.501493,7.35672911 58.0965225,7.08626113 58.1506161,7.03216753 L58.1506161,4.59795569 C58.1506161,2.92105421 56.7982762,1.40643351 55.0131875,1.40643351 L50.8479806,1.40643351 C50.8479806,1.40643351 50.2529511,0 48.4678624,0 L40.5701973,0 C38.5146406,0 37.9737047,1.94736947 37.9737047,1.94736947 L32.5102514,24.125744 L10.1155025,11.0350937 C10.1155025,11.0350937 7.68129069,9.35819218 5.13889166,9.35819218 C2.59649263,9.35819218 0.486842368,11.0891873 0.486842368,11.0891873 L0.703216753,19.5818819 C0.703216753,19.5818819 2.59649263,18.0672612 5.08479806,18.0672612 C7.62719709,18.0672612 10.0614089,19.7441627 10.0614089,19.7441627 L37.5950495,35.8640544 L43.9240003,8.70906902 Z"/>
    <path d="M46.8991481,21.4210642 L49.2251727,31.4824731 L78.002966,48.3055816 C78.002966,48.3055816 80.5994587,49.9824831 82.9254833,49.9824831 C85.3056015,49.9824831 87.5775326,48.251488 87.5775326,48.251488 L87.3611582,39.7587934 C87.3611582,39.7587934 85.5219759,41.2734141 82.9795769,41.2734141 C80.3830843,41.2734141 78.0570596,39.5965126 78.0570596,39.5965126 L46.8991481,21.4210642 Z"/>
    <path d="M49.8202023,34.2412465 L52.1462269,44.3026555 L77.9488724,59.3947689 C77.9488724,59.3947689 80.5453651,61.0716703 82.8713897,61.0716703 C85.2515079,61.0716703 87.523439,59.3406753 87.523439,59.3406753 L87.3070646,50.8479806 C87.3070646,50.8479806 85.4678823,52.3626013 82.9254833,52.3626013 C80.3289907,52.3626013 78.002966,50.6856998 78.002966,50.6856998 L49.8202023,34.2412465 Z"/>
    <path d="M52.7953501,47.0614289 L55.1213747,57.0687442 L78.002966,70.4298625 C78.002966,70.4298625 80.5994587,72.106764 82.9254833,72.106764 C85.3056015,72.106764 87.5775326,70.3757689 87.5775326,70.3757689 L87.3611582,61.8830743 C87.3611582,61.8830743 85.5219759,63.397695 82.9795769,63.397695 C80.3830843,63.397695 78.0570596,61.7207935 78.0570596,61.7207935 L52.7953501,47.0614289 Z M94.0687642,73.2427295 C97.1520992,73.2427295 99.6404046,75.731035 99.6404046,78.8684636 C99.6404046,82.0599858 97.2061927,84.5482912 94.0687642,84.5482912 C90.9854292,84.5482912 88.4971237,82.0599858 88.4971237,78.8684636 C88.4971237,75.7851286 90.9854292,73.2427295 94.0687642,73.2427295 L94.0687642,73.2427295 Z M94.0687642,74.1082271 C91.5804587,74.1082271 89.5789957,76.2178773 89.5789957,78.8684636 C89.5789957,81.5731434 91.6345523,83.6827936 94.1228578,83.6827936 C96.6111632,83.6827936 98.6126263,81.5731434 98.6126263,78.9225572 C98.6126263,76.2719709 96.6111632,74.1082271 94.0687642,74.1082271 L94.0687642,74.1082271 Z M92.9868922,82.1681729 L91.9591139,82.1681729 L91.9591139,75.8933158 C92.5000499,75.8392222 92.9868922,75.731035 93.7442026,75.731035 C94.7178873,75.731035 95.3129169,75.9474094 95.6915721,76.2178773 C96.0702272,76.4883453 96.2866016,76.9210941 96.2866016,77.5161237 C96.2866016,78.3275276 95.7456656,78.8684636 95.0424489,79.0307444 L95.0424489,79.084838 C95.5833849,79.1930251 95.96204,79.6798675 96.0702272,80.5994587 C96.232508,81.5731434 96.3947888,81.9517986 96.4488824,82.1681729 L95.4211041,82.1681729 C95.2588233,81.9517986 95.0965425,81.4108626 94.9883553,80.5453651 C94.8260745,79.7339611 94.4474193,79.4634931 93.6360154,79.4634931 L92.9327986,79.4634931 L92.9327986,82.1681729 L92.9868922,82.1681729 Z M92.9868922,78.7061828 L93.690109,78.7061828 C94.5015129,78.7061828 95.2047297,78.3816212 95.2047297,77.6243108 C95.2047297,77.0833749 94.8260745,76.5424389 93.690109,76.5424389 C93.3655474,76.5424389 93.149173,76.5424389 92.9868922,76.5965325 L92.9868922,78.7061828 Z"/>
  </g>
</svg>
