<svg xmlns="http://www.w3.org/2000/svg" width="182" height="46" viewBox="0 0 182 46">
  <g fill="none">
    <path fill="#BF4956" d="M0.576,0.019 L60.256,0.019 L60.256,35.27 L30.381,45.459 L0.576,35.27 L0.576,0.019 Z M30.311,34.152 L30.311,9.372 L20.818,9.372 L20.818,22.494 C20.818,26.542 18.655,27.31 17.119,27.31 C14.326,27.31 13.977,25.287 13.977,22.494 L13.977,9.372 L4.484,9.372 L4.484,26.404 C4.484,32.128 8.673,34.849 13.07,34.849 C16.77,34.849 19.352,33.523 21.167,31.011 L21.167,34.152 L30.311,34.152 Z M47.971,16.632 L47.971,16.632 L56.556,16.632 C56.346,10.28 49.924,8.814 44.48,8.814 C39.524,8.814 32.753,10.42 32.753,16.702 C32.753,20.89 35.686,23.264 42.875,24.52 C47.273,25.288 48.18,25.637 48.18,27.102 C48.18,28.569 46.156,28.987 44.969,28.987 C43.783,28.987 42.875,28.638 42.456,28.29 C41.689,27.661 41.34,26.964 41.2,26.056 L32.194,26.056 C32.403,32.478 38.755,34.851 44.618,34.851 C50.691,34.851 57.183,32.966 57.183,26.056 C57.183,22.007 54.391,20.193 51.39,19.215 C48.179,18.098 44.619,17.958 43.014,17.261 C42.455,17.051 41.897,16.702 41.897,15.934 C41.897,14.329 43.503,13.979 44.689,13.979 C45.527,13.979 46.295,14.258 46.854,14.817 C47.552,15.236 47.831,15.794 47.971,16.632 Z"/>
    <path fill="#325390" d="M63.537,0.158 L72.96,0.158 L72.96,12.094 L73.1,12.094 C74.566,10.07 77.079,8.814 79.871,8.814 C88.178,8.814 90.481,15.793 90.481,21.658 C90.481,27.869 87.061,34.849 80.08,34.849 C75.474,34.849 74.008,33.035 72.751,31.499 L72.681,31.499 L72.681,34.151 L63.536,34.151 L63.536,0.158 L63.537,0.158 L63.537,0.158 Z M76.799,15.724 C73.448,15.724 72.681,18.865 72.681,21.797 C72.681,24.729 73.449,28.01 76.799,28.01 C80.219,28.01 80.987,24.729 80.987,21.797 C80.987,18.865 80.22,15.724 76.799,15.724 L76.799,15.724 Z M116.797,28.637 C116.797,30.592 116.936,32.617 117.912,34.153 L108.35,34.153 C108.141,33.524 107.932,32.477 108,31.78 L107.932,31.78 C105.907,34.153 102.975,34.85 99.905,34.85 C95.157,34.85 91.249,32.477 91.249,27.311 C91.249,19.564 100.394,19.773 105.21,18.866 C106.466,18.657 107.792,18.308 107.792,16.702 C107.792,15.027 106.257,14.329 104.651,14.329 C101.719,14.329 101.161,15.794 101.161,16.912 L92.366,16.912 C92.575,9.931 99.206,8.815 105.071,8.815 C116.936,8.815 116.798,13.701 116.798,18.517 L116.798,28.637 L116.797,28.637 L116.797,28.637 Z M107.791,23.055 C106.626094,23.6376314 105.378511,24.0376404 104.092,24.241 C101.928,24.729 100.811,25.288 100.811,26.964 C100.811,28.081 102.069,29.196 103.743,29.196 C105.907,29.196 107.583,28.01 107.792,25.358 L107.792,23.055 L107.791,23.055 Z M120.217,9.372 L129.291,9.372 L129.291,12.513 L129.43,12.513 C131.244,10.07 133.688,8.814 137.528,8.814 C141.926,8.814 145.973,11.536 145.973,17.19 L145.973,34.152 L136.551,34.152 L136.551,21.238 C136.551,18.307 136.201,16.352 133.479,16.352 C131.803,16.352 129.641,17.189 129.641,21.099 L129.641,34.152 L120.217,34.152 L120.217,9.372 L120.217,9.372 Z M149.395,0.158 L158.816,0.158 L158.816,16.632 L164.82,9.372 L175.5,9.372 L166.705,18.726 L176.826,34.152 L165.447,34.152 L160.492,25.287 L158.816,27.102 L158.816,34.152 L149.395,34.152 L149.395,0.158 L149.395,0.158 Z M181.154,30.801 C181.502,31.151 181.572,31.571 181.572,32.129 C181.572,32.617 181.502,33.035 181.154,33.385 C180.664,33.873 180.316,33.944 179.758,33.944 C179.338,33.944 178.85,33.874 178.57,33.385 C178.082,33.035 178.011,32.617 178.011,32.129 C178.011,31.57 178.081,31.15 178.57,30.801 C178.92,30.453 179.338,30.244 179.758,30.244 C180.316,30.244 180.664,30.453 181.154,30.801 Z M181.363,30.592 C180.943,30.244 180.316,30.033 179.758,30.033 C179.2,30.033 178.641,30.244 178.291,30.592 C177.873,31.012 177.664,31.571 177.664,32.129 C177.664,32.686 177.873,33.244 178.291,33.594 C178.641,34.082 179.199,34.291 179.758,34.291 C180.317,34.291 180.944,34.082 181.363,33.594 C181.713,33.244 181.922,32.686 181.922,32.129 C181.918033,31.5676148 181.720603,31.0247696 181.363,30.592 L181.363,30.592 Z M180.107,32.059 L179.337,32.059 L179.337,31.221 L179.687,31.221 C179.896,31.221 180.107,31.221 180.246,31.36 C180.316,31.36 180.316,31.501 180.316,31.71 C180.316,31.779 180.246,31.918 180.107,32.059 L180.107,32.059 Z M178.92,33.244 L179.338,33.244 L179.338,32.406 L179.688,32.406 C179.897,32.406 180.038,32.406 180.108,32.476 C180.247,32.476 180.317,32.685 180.317,32.964 L180.317,33.243 L180.805,33.243 C180.664,33.243 180.664,33.175 180.664,33.175 L180.664,32.825 C180.664,32.684 180.664,32.616 180.596,32.475 C180.455,32.266 180.317,32.266 180.246,32.266 C180.316,32.127 180.455,32.127 180.596,32.057 C180.664,32.057 180.805,31.778 180.805,31.569 C180.805,31.358 180.664,31.149 180.317,31.01 C180.247,31.01 180.038,30.94 179.758,30.94 L178.92,30.94 L178.92,33.244 L178.92,33.244 Z"/>
  </g>
</svg>
