<svg xmlns="http://www.w3.org/2000/svg" width="586" height="154" viewBox="0 0 586 154">
  <g fill="#4D4F53" fill-rule="evenodd">
    <polygon points="540.1 151.28 507.07 151.28 461.7 46.73 499.85 46.73 524.12 109.15 548.4 46.73 585.17 46.73"/>
    <path d="M188.58 151.2C187.49 140.67 187.49 140.67 187.49 140.67 183.14 145.75 171.88 153.73 154.81 153.73 135.93 153.73 117.77 143.57 117.77 121.06 117.77 111.25 121.04 104.36 126.48 99.28 137.74 87.66 152.26 85.84 167.16 85.84 186.04 85.84 186.04 85.84 186.04 85.84 186.04 82.94 186.04 82.94 186.04 82.94 186.04 71.68 177.32 68.42 166.79 68.42 154.08 68.42 143.55 75.32 139.19 78.59 124.3 58.25 124.3 58.25 124.3 58.25 129.02 53.9 143.19 42.28 168.97 42.28 186.04 42.28 198.39 46.27 206.74 54.62 218 66.24 219.09 80.04 219.09 98.56 219.09 151.2 219.09 151.2 219.09 151.2L188.58 151.2zM186.04 106.54C169.7 106.54 169.7 106.54 169.7 106.54 160.99 106.54 150.45 108.72 150.45 119.61 150.45 126.51 155.9 130.87 163.89 130.87 171.15 130.87 175.87 129.05 179.87 125.78 183.86 122.15 186.04 116.7 186.04 110.53L186.04 106.54 186.04 106.54zM306.97 151.28C306.97 91.69 306.97 91.69 306.97 91.69 306.97 84.78 306.6 77.88 301.16 74.24 298.61 72.43 294.98 71.34 290.26 71.34 285.18 71.34 279.73 72.79 276.1 76.43 270.65 81.88 270.65 90.96 270.65 99.69 270.65 151.28 270.65 151.28 270.65 151.28 236.15 151.28 236.15 151.28 236.15 151.28 236.15 46.64 236.15 46.64 236.15 46.64 268.47 46.64 268.47 46.64 268.47 46.64 268.83 57.9 268.83 57.9 268.83 57.9 269.91 56.82 281.9 42.28 303.33 42.28 314.59 42.28 323.69 45.18 331.64 53.54 340.39 62.27 341.47 73.89 341.47 85.88 341.47 151.28 341.47 151.28 341.47 151.28L306.97 151.28 306.97 151.28z"/>
    <polygon points="413.73 46.73 396.19 46.73 396.19 14.29 361.78 14.29 361.78 46.73 351.17 46.73 351.17 72.87 361.78 72.87 361.78 151.28 396.19 151.28 396.19 72.87 413.73 72.87"/>
    <rect width="34.75" height="104.55" x="423.56" y="46.73"/>
    <path d="M421.74,19.21 C421.74,8.68 430.34,0.14 440.96,0.14 L440.96,0.14 C451.58,0.14 460.18,8.68 460.18,19.21 L460.18,19.21 C460.18,29.74 451.58,38.28 440.96,38.28 L440.96,38.28 C430.34,38.27 421.74,29.74 421.74,19.21 L421.74,19.21 Z"/>
    <polygon points="78.55 151.28 45.8 151.28 .14 46.73 38.27 46.73 62.87 109.15 86.86 46.73 123.61 46.73"/>
    <path d="M563.64,138.97 L563.64,151.27 L561.18,151.27 L561.18,138.97 L556.71,138.97 L556.71,136.67 L568.12,136.67 L568.12,138.97 L563.64,138.97 Z M582.57,151.28 L582.57,141.44 L578.54,151.28 L576.43,151.28 L572.4,141.44 L572.4,151.28 L570.23,151.28 L570.23,136.67 L573.18,136.67 L577.45,148.05 L582.22,136.67 L585.17,136.67 L585.17,151.28 L582.57,151.28 L582.57,151.28 Z"/>
  </g>
</svg>
