<svg xmlns="http://www.w3.org/2000/svg" viewBox="0 0 287.7 250.9"><path fill="#FFF" d="M228.9 90.9c0 50.2-40.7 90.9-90.9 90.9s-90.9-40.7-90.9-90.9S87.8 0 138 0s90.9 40.7 90.9 90.9zM138 17c-40.8 0-73.9 33.1-73.9 73.9 0 40.8 33.1 73.9 73.9 73.9 40.8 0 73.9-33.1 73.9-73.9 0-40.8-33.1-73.9-73.9-73.9z"/><g fill="#FFF"><path d="M172.8 87.2h-33.9l16.4-28.5h34M121.8 58.7H88.1l49.9 86.4 16.9-29.1"/></g><g><g fill="#FFF"><path d="M26.6 210.8H37L23.5 250h-10L0 210.8h10.4l8.1 27.9 8.1-27.9zM40.3 210.8h29v7.6H50.1v7.1H68v7.4H50.1v9.3h21v7.7H40.3v-39.1zM78 210.8h17.7c4.1.1 9.2.1 12.8 4 1.8 2.1 3.1 5.2 3.1 8.7 0 7.9-5.4 9.8-8.1 10.8l9.1 15.7h-10.8L94 236h-6.2v14H78v-39.2zm9.8 7.3v10.6h8.1c1.4-.1 5.9-.2 5.9-5.4 0-5-3.6-5.2-5.7-5.2h-8.3zM128.9 210.8V250h-9.8v-39.2h9.8zM142.5 238.2c1 1.1 1.8 2 3.8 3.1 2.6 1.4 5.3 1.9 7.6 1.9 3.9 0 7.2-1.8 7.2-4.6 0-3.1-3.9-3.6-6.8-4-2.2-.3-4.3-.6-6.4-1-2.4-.5-10.6-2.2-10.6-10.7 0-10.1 9-13.1 15.8-13.1 9.1 0 13.9 4.4 17.3 7.4l-7.2 5.2c-1.2-1.2-2.3-2.3-3.9-3.2-1.4-.8-3.9-1.7-6.4-1.7-3.9 0-5.8 2.2-5.8 4.1 0 3 3.3 3.4 5 3.7 4.2.5 9.8 1.6 12 2.3 4.5 1.7 6.8 5.2 6.8 9.6 0 2.8-1.1 5.9-3.1 8.3-3.6 4.1-9.2 5.3-14.7 5.3-11.1 0-15.5-5.1-17.9-7.9l7.3-4.7zM188.1 210.8V250h-9.8v-39.2h9.8zM224 246.3c-1.6 1.5-4.9 4.6-11.6 4.6-10.9 0-17.7-8.9-17.7-20.5 0-12.6 8.2-21 19.3-21 10.4 0 15.4 6.7 17.3 9.1L224 223c-1.4-2.1-3.7-5.6-9.1-5.6-7.4 0-10.3 6.2-10.3 12.7 0 4.4 1.2 8.1 3.1 10 1.5 1.6 4.2 2.8 7.2 2.8 1.8 0 3.8-.4 5.4-1.5 2.6-1.7 2.9-3.8 3.2-5.8h-8.8v-7.4h17.1V250H224v-3.7zM239.7 210.8h9.6l8.5 14.4c3.1 5.5 4.1 7.3 5.9 10.7l-.4-25.2h9.4V250h-9.6l-7.3-12.4c-3.6-5.8-4.2-7.1-6.9-12.3l.3 24.7h-9.4v-39.2z"/></g></g><path fill="#FFF" d="M283.5 219.4c-2.3 0-4.1-1.8-4.1-4.1s1.8-4.1 4.1-4.1 4.1 1.8 4.1 4c.1 2.3-1.7 4.2-4.1 4.2zm0-7.9c-2 0-3.7 1.7-3.7 3.7 0 2.1 1.6 3.7 3.7 3.7 2 0 3.7-1.6 3.7-3.6 0-2.2-1.6-3.8-3.7-3.8zm.8 6.3l-.7-2h-.7v2h-1.1v-5.2h1.7c.4 0 .9 0 1.3.2.4.3.7.8.7 1.4 0 .7-.3 1.1-.9 1.4l.9 2.1h-1.2zm-.7-4.2h-.7v1.3h.7c.6 0 .8-.2.8-.7 0-.4-.3-.6-.8-.6z"/></svg>