<svg id="Logo" xmlns="http://www.w3.org/2000/svg" viewBox="0 0 657.2 145.6"><path fill="#ED1C24" d="M642.7 0l-35.8 76.8-13.5-29.1h-14.7l22.2 47.6h11.9L657.2 0z"/><path d="M488.7 142.6h28.9V89.8c0-12.1 7-20.6 17.4-20.6 10 0 15.2 7 15.2 17.1v56.4h28.9v-62c0-21-12.6-35.8-33-35.8-13 0-22.1 5.6-28.9 15.8h-.6v-13h-28v94.9zm-56.8-97.5c-30.2 0-50.4 21.7-50.4 50.3 0 28.4 20.2 50.3 50.4 50.3s50.4-21.9 50.4-50.3c.1-28.6-20.1-50.3-50.4-50.3zm-.1 79.2c-13.7 0-21-11.5-21-28.9 0-17.6 7.2-28.9 21-28.9 13.7 0 21.3 11.3 21.3 28.9 0 17.4-7.6 28.9-21.3 28.9zm-132.6 18.3h81.2v-22.8h-46v-.6l44-49.3V47.7h-79.2v22.8h44.5v.5l-44.5 49.7v21.9zm-37.1 0h29.1v-95h-29.1v95zm-67.5 0h28.9V99c0-19.8 11.9-28.6 30-26.2h.6v-25c-1.5-.6-3.2-.7-5.9-.7-11.3 0-18.9 5.2-25.4 16.3h-.6V47.7h-27.6v94.9zm-53.3-18.2c-12.8 0-20.6-8.3-22.1-21.1h68.4c.2-20.4-5.2-36.7-16.5-46.9-8-7.4-18.5-11.5-31.9-11.5-28.6 0-48.4 21.7-48.4 50.1 0 28.6 18.9 50.4 50.3 50.4 11.9 0 21.3-3.2 29.1-8.5 8.3-5.7 14.3-14.1 16-22.4h-27.8c-2.8 6.2-8.5 9.9-17.1 9.9zm-1.5-58.7c10.2 0 17.2 7.6 18.4 18.7h-38.8c2.3-11.3 8.4-18.7 20.4-18.7zM33 142.6h30.4l33-95H67.3l-18.5 61h-.4l-18.5-61H0l33 95zM262.1 13.9h29.1v25.8h-29.1V13.9z"/></svg>