<svg xmlns="http://www.w3.org/2000/svg" width="374.8" height="208.2" viewBox="0 0 374.8 208.2"><path d="M168.9 136.5l2.4-13.4h18.9l-2.4 13.4h-18.9zm-142 53.7l-8.1-47.5h18.9l3.1 30 13.5-30h18.1L48 190.2H26.9zm261.1 0l8.4-47.5h17.2l-1.3 7.4c5.3-5.7 10.4-8.8 17.6-8.8 12.5 0 17.1 7.3 14.8 20.4l-5 28.5h-18.9l4.4-25.1c.8-4.7.3-8.9-5.1-8.9-5.8 0-8 3.7-9.1 9.8l-4.3 24.2H288zm-167.6 0l8.4-47.5h17.1l-1.7 9.6h.2c3.9-7.4 9.2-11 16.5-11 .8 0 1.6.2 2.4.3l-3.3 18.9c-1.2-.2-2.5-.5-3.8-.5-7.7 0-12.3 3.6-14.1 13.9l-2.9 16.4-18.8-.1zM264.3 154c-6.4 0-9.5 6.6-10.5 12-1.6 9 1.1 12.9 5.9 12.9 5.1 0 8.9-3.9 10.4-12.9 1.3-7-.9-12.3-5.8-12zm-30.4 12.9c2.9-16.5 15.4-25.7 31.5-25.7 16.8 0 25.4 9.9 22.8 24.7-3.1 17.4-16.3 25.6-31.5 25.6-15.3 0-25.6-8.3-22.8-24.6zM85.6 161h17.1c.8-4.4-2.4-8.3-6.9-8.3-5.5.1-9.3 3.3-10.2 8.3zm34.4 9.7H84c-1 5.6 2.7 9.3 7.7 9.3 3 0 6-1.4 7.8-4.2h18.1c-5.3 11.8-18 15.7-29.1 15.7-15.2 0-25.5-8.7-22.7-24.7 2.8-15.6 16.2-25.6 31.5-25.6 17.5.1 26 12.2 22.7 29.5zm58.3 19.5h-18.9l8.4-47.5h18.9l-8.4 47.5z"/><defs><filter id="a" filterUnits="userSpaceOnUse" x="0" y="0" width="59.8" height="128.8"><feColorMatrix values="1 0 0 0 0 0 1 0 0 0 0 0 1 0 0 0 0 0 1 0"/></filter></defs><mask maskUnits="userSpaceOnUse" x="0" y="0" width="59.8" height="128.8" id="c"><g filter="url(#a)"><linearGradient id="b" gradientUnits="userSpaceOnUse" x1="53.431" y1="81.85" x2="6.37" y2="211.15" gradientTransform="matrix(1 0 0 -1 0 210)"><stop offset=".55" stop-color="#FFF"/><stop offset="1" stop-color="#010101"/></linearGradient><path fill="url(#b)" d="M51.4 116.5l5.1-1.8 3.3 9-14.1 5.1L0 3.3 9 0l42.4 116.5z"/></g></mask><path mask="url(#c)" fill="#EC1E35" d="M51.4 116.5l5.1-1.8 3.3 9-14.1 5.1L0 3.3 9 0"/><defs><filter id="d" filterUnits="userSpaceOnUse" x="41" y="0" width="333.8" height="128.8"><feColorMatrix values="1 0 0 0 0 0 1 0 0 0 0 0 1 0 0 0 0 0 1 0"/></filter></defs><mask maskUnits="userSpaceOnUse" x="41" y="0" width="333.8" height="128.8" id="f"><g filter="url(#d)"><linearGradient id="e" gradientUnits="userSpaceOnUse" x1="41.45" y1="86.971" x2="374.357" y2="208.139" gradientTransform="matrix(1 0 0 -1 0 210)"><stop offset=".6" stop-color="#FFF"/><stop offset="1" stop-color="#010101"/></linearGradient><path fill="url(#e)" d="M51.4 116.5L371.6 0l3.2 9L45.7 128.8 41 115.9l9-3.3 1.4 3.9z"/></g></mask><path mask="url(#f)" fill="#EC1E35" d="M51.4 116.5L371.6 0l3.2 9L45.7 128.8 41 115.9l9-3.3"/><defs><filter id="g" filterUnits="userSpaceOnUse" x="180.7" y="142.6" width="158.2" height="65.6"><feColorMatrix values="1 0 0 0 0 0 1 0 0 0 0 0 1 0 0 0 0 0 1 0"/></filter></defs><mask maskUnits="userSpaceOnUse" x="180.7" y="142.6" width="158.2" height="65.6" id="i"><g filter="url(#g)"><linearGradient id="h" gradientUnits="userSpaceOnUse" x1="184.733" y1="38.844" x2="340.217" y2="11.428" gradientTransform="matrix(1 0 0 -1 0 210)"><stop offset=".5" stop-color="#FFF"/><stop offset="1" stop-color="#010101"/></linearGradient><path fill="url(#h)" d="M180.7 208.2l2.1-12.1 30.2-39.7h-23.6l2.4-13.8h45.1l-2.2 12.2-30.3 39.7h134.5l-2.4 13.7H180.7z"/></g></mask><path mask="url(#i)" fill="#EC1E35" d="M180.7 208.2l2.1-12.1 30.2-39.7h-23.6l2.4-13.8h45.1l-2.2 12.2-30.3 39.7h134.5l-2.4 13.7H227.7"/></svg>