<svg xmlns="http://www.w3.org/2000/svg" width="94" height="33" viewBox="0 0 94 33">
  <defs>
    <linearGradient id="verisign-horizontal-color-a" x1="84.988%" x2="13.823%" y1="4.458%" y2="75.623%">
      <stop offset="0%" stop-color="#FFF"/>
      <stop offset="100%" stop-color="#868484"/>
    </linearGradient>
    <radialGradient id="verisign-horizontal-color-b" cx="137.15%" cy="121.27%" r="1.932%" fx="137.15%" fy="121.27%" gradientTransform="matrix(1 0 0 .99811 0 .002)">
      <stop offset="0%" stop-color="#1761A8"/>
      <stop offset="100%" stop-color="#14477B"/>
    </radialGradient>
    <radialGradient id="verisign-horizontal-color-c" cx="18996%" cy="46640%" r="51%" fx="18996%" fy="46640%" gradientTransform="matrix(1 0 0 .99623 0 1.756)">
      <stop offset="0%" stop-color="#1761A8"/>
      <stop offset="100%" stop-color="#14477B"/>
    </radialGradient>
    <radialGradient id="verisign-horizontal-color-d" cx="142.307%" cy="139.279%" r="2.214%" fx="142.307%" fy="139.279%" gradientTransform="matrix(.99987 0 0 1 0 0)">
      <stop offset="0%" stop-color="#165DA1"/>
      <stop offset="100%" stop-color="#164375"/>
    </radialGradient>
    <linearGradient id="verisign-horizontal-color-e" x1="97.429%" x2="15.847%" y1="-9.527%" y2="72.055%">
      <stop offset="0%" stop-color="#EBEBEB"/>
      <stop offset="100%" stop-color="#7E7B7C"/>
    </linearGradient>
  </defs>
  <g fill="none" fill-rule="evenodd">
    <path fill="url(#verisign-horizontal-color-a)" fill-rule="nonzero" d="M8.8817842e-16,15.63 C0.165606371,11.2286204 2.11510976,7.08412062 5.4,4.15 L5.4,4.15 C2.72128806,7.12826819 1.24257024,10.9943136 1.25,15 L1.25,15 C1.25,19.309768 2.96204866,23.443019 6.00951481,26.4904852 C9.05698096,29.5379513 13.190232,31.25 17.5,31.25 L17.5,31.25 C21.5055115,31.2564779 25.3712269,29.7778863 28.35,27.1 L28.35,27.1 C25.3739112,30.4303838 21.1548825,32.3843079 16.69,32.5 L16.69,32.5 C25.4923393,32.2615729 32.5032285,25.0555672 32.5,16.25 L32.5,16.25 C32.5,7.27537282 25.2246272,5.49537188e-16 16.25,0 L16.25,0 C7.5120262,-0.00636223355 0.33338508,6.89838612 2.69229083e-15,15.63 L8.8817842e-16,15.63 Z M3,16.25 C2.97229628,8.97147542 8.84155605,3.04405987 16.12,3 L16.25,3 C19.7508577,3 23.1083293,4.39071029 25.5838095,6.86619049 C28.0592897,9.34167068 29.45,12.6991423 29.45,16.2 L29.45,16.2 L29.45,16.2 L29.45,16.2 C29.3030137,23.3845024 23.4360057,29.1315034 16.25,29.13 L16.25,29.13 C9.0635825,29.1593321 3.17415777,23.4343668 3,16.25 L3,16.25 Z M-2.66453526e-15,15.64 L0,15.64 L-2.66453526e-15,15.64 Z M0,15.69 C0,15.69 0,15.69 0,15.64 L0,15.64 C0,15.64 0,15.64 0,15.69 L0,15.69 Z"/>
    <path fill="#1761A9" fill-rule="nonzero" d="M26.45,13.25 C26.4224105,20.5335862 20.5004082,26.4183336 13.2167929,26.399958 C5.93317759,26.3815824 0.0409434422,20.4670291 0.0501051397,13.1833964 C0.0592668371,5.89976372 5.96636153,5.22531042e-05 13.25,0 C16.7508577,-4.4408921e-16 20.1083293,1.39071029 22.5838095,3.86619049 C25.0592897,6.34167068 26.45,9.69914233 26.45,13.2" transform="translate(3 3)"/>
    <path fill="url(#verisign-horizontal-color-b)" fill-rule="nonzero" d="M12.25,0 L12.84,0 L12.84,0 L12.25,0 M12.09,0 L12.25,0 L12.25,0 L12.09,0 M11.76,0 L12.09,0 L12.09,0 L11.76,0 M0,13.25 C8.8817842e-16,20.5401587 5.9098413,26.45 13.2,26.45 L13.2,26.45 C18.5901947,26.4477236 23.4383682,23.1707541 25.45,18.17 L25.45,18.17 C24.6941508,20.048332 23.5172711,21.7281225 22.01,23.08 L22.01,23.08 C24.1841632,20.6611296 25.3848019,17.5223678 25.38,14.27 L25.38,14.27 C25.38,6.9798413 19.4701587,1.07 12.18,1.07 L12.18,1.07 C8.94487172,1.07753023 5.82604753,2.27735187 3.42,4.44 L3.42,4.44 C5.38076182,2.25051092 8.01710328,0.779228228 10.91,0.26 L10.91,0.26 C4.60626391,1.37456432 0.00883623385,6.84849515 8.8817842e-16,13.25 M26.4,13.69 C26.4,13.63 26.4,13.58 26.4,13.52 L26.4,13.52 C26.4,13.57 26.4,13.63 26.4,13.69 M25.67,17.6 C26.1103301,16.3412602 26.3564829,15.0228251 26.4,13.69 L26.4,13.69 C26.3564829,15.0228251 26.1103301,16.3412602 25.67,17.6 M25.67,17.67 L25.67,17.6 L25.67,17.6 L25.67,17.67 M25.67,17.75 L25.67,17.68 L25.67,17.68 L25.67,17.75 M25.67,17.81 L25.67,17.75 L25.67,17.75 L25.67,17.81 M25.67,17.86 L25.67,17.81 L25.67,17.81 L25.67,17.86" transform="translate(3 3)"/>
    <path fill="url(#verisign-horizontal-color-c)" fill-rule="nonzero" d="M13.45,13.25 C13.4632937,9.74048721 12.0784543,6.37015619 9.60153175,3.88385139 C7.12460923,1.39754658 3.75953796,-2.51775611e-05 0.25,0 L0.25,0 C7.5401587,2.22044605e-15 13.45,5.9098413 13.45,13.2 L13.45,13.25 Z" transform="translate(16 3)"/>
    <path fill="url(#verisign-horizontal-color-d)" fill-rule="nonzero" d="M10.24,8.47032947e-22 L10.13,8.47032947e-22 C6.42290628,0.0328786455 2.90134722,1.62665641 0.43,4.39 L0.43,4.39 C2.84887036,2.2158368 5.98763219,1.01519805 9.24,1.02 L9.24,1.02 C16.5301587,1.02 22.44,6.9298413 22.44,14.22 L22.44,14.22 C22.4448019,17.4723678 21.2441632,20.6111296 19.07,23.03 L19.07,23.03 C21.7962353,20.5945735 23.3865995,17.1348972 23.46,13.48 L23.46,13.48 L23.46,13.48 L23.46,13.48 C23.5353398,9.92914828 22.1765831,6.49775133 19.6907195,3.96107904 C17.2048559,1.42440676 13.8016492,-0.0034898108 10.25,8.47032947e-22 L10.25,8.47032947e-22 L10.24,8.47032947e-22 Z" transform="translate(6 3)"/>
    <path fill="url(#verisign-horizontal-color-e)" fill-rule="nonzero" d="M0,12.08 L0,12.08 L0,12.18 C-0.0186175177,16.5018836 1.68520871,20.6531405 4.73469508,23.7157632 C7.78418146,26.7783858 11.9280763,28.5000401 16.25,28.5 L16.41,28.5 C20.9728907,28.4618979 25.3081259,26.5012388 28.35,23.1 L28.35,23.1 C25.3712269,25.7778863 21.5055115,27.2564779 17.5,27.25 L17.5,27.25 C8.52537282,27.25 1.25,19.9746272 1.25,11 L1.25,11 C1.24257024,6.99431356 2.72128806,3.12826819 5.4,0.15 L5.4,0.15 C2.0023487,3.19028872 0.0421500134,7.52087583 1.79966719e-15,12.08" transform="translate(0 4)"/>
    <g fill="#FFF" fill-rule="nonzero" transform="translate(7 10)">
      <polygon points="6.47 5.58 .41 5.58 3.34 .5 9.41 .5" transform="translate(9)"/>
      <polygon points="6.35 .5 .35 .5 9.27 15.95 12.27 10.73"/>
    </g>
    <g fill="#666364" fill-rule="nonzero" transform="translate(36 11)">
      <polygon points="5.84 .17 8 .17 5.13 8.43 3.07 8.43 .24 .17 2.44 .17 4.14 6" transform="translate(0 1)"/>
      <polygon points=".73 .17 6.84 .17 6.84 1.77 2.84 1.77 2.84 3.27 6.62 3.27 6.62 4.84 2.79 4.84 2.79 6.84 7.2 6.84 7.2 8.47 .73 8.47" transform="translate(8 1)"/>
      <path d="M2.72,1.71 L2.72,3.95 L4.43,3.95 C4.75222386,3.99167556 5.07638837,3.88876835 5.31557496,3.66887101 C5.55476154,3.44897366 5.68449875,3.13458412 5.67,2.81 C5.67,1.76 4.91,1.72 4.48,1.71 L2.72,1.71 Z M0.65,0.17 L4.37,0.17 C5.34832215,0.0552582936 6.3294432,0.360495954 7.07,1.01 C7.50469522,1.52367149 7.73909285,2.17714366 7.73,2.85 C7.78557174,3.92990429 7.05498669,4.89275627 6,5.13 L7.91,8.43 L5.66,8.43 L4,5.48 L2.7,5.48 L2.7,8.43 L0.65,8.43 L0.65,0.17 Z" transform="translate(16 1)"/>
      <polygon points="27.36 9.43 25.3 9.43 25.3 1.17 27.36 1.17"/>
      <path d="M2.23,5.95 C2.45176712,6.21408951 2.72367111,6.4316127 3.03,6.59 C3.51972759,6.85028083 4.06540712,6.9875587 4.62,6.99 C5.44,6.99 6.14,6.6 6.14,5.99 C6.14,5.38 5.31,5.23 4.7,5.15 C4.09,5.07 3.79,5.03 3.34,4.94 C2.89,4.85 1.12,4.47 1.12,2.69 C1.12,0.6 3,-4.39976018e-16 4.44,-4.39976018e-16 C5.82129986,-0.0033092655 7.14242954,0.564957474 8.09,1.57 L6.57,2.66 C6.33020394,2.39850644 6.05404311,2.17286284 5.75,1.99 C5.33460449,1.76542382 4.87206142,1.64207901 4.4,1.63 C3.58,1.63 3.17,2.1 3.17,2.49 C3.17,3.12 3.87,3.22 4.22,3.26 C5.07517583,3.35478322 5.92127349,3.51865194 6.75,3.75 C7.62854133,4.0103701 8.21777055,4.83446691 8.18,5.75 C8.17206302,6.39268796 7.93844416,7.01213189 7.52,7.5 C6.6939339,8.29787637 5.56476756,8.70219077 4.42,8.61 C2.96413541,8.71305235 1.55191524,8.08748002 0.65,6.94 L2.23,5.95 Z" transform="translate(28 1)"/>
      <polygon points="39.82 9.43 37.76 9.43 37.76 1.17 39.82 1.17"/>
      <path d="M6.39,8.65 C5.75405356,9.30637817 4.8737354,9.66864902 3.96,9.65 C1.66,9.65 0.24,7.78 0.24,5.35 C0.24,2.69 1.96,0.93 4.31,0.93 C5.76486797,0.924171478 7.12812067,1.63950463 7.95,2.84 L6.38,3.79 C6.01116684,3.06976504 5.26917897,2.61761618 4.46,2.62 C2.89,2.62 2.3,3.92 2.3,5.3 C2.27496047,6.04895831 2.52383299,6.78135459 3,7.36 C3.71818379,8.03360584 4.79649731,8.14797243 5.64,7.64 C6.05413028,7.3670666 6.30530318,6.90595813 6.31,6.41 L4.41,6.41 L4.41,4.84 L8,4.84 L8,9.43 L6.39,9.43 L6.39,8.65 Z" transform="translate(41)"/>
      <path d="M0.7,0.17 L2.7,0.17 L4.49,3.17 C5.14,4.33 5.34,4.7 5.73,5.43 L5.64,0.13 L7.64,0.13 L7.64,8.39 L5.64,8.39 L4.1,5.78 C3.57292174,4.9418954 3.08895898,4.07743779 2.65,3.19 L2.71,8.38 L0.71,8.38 L0.7,0.17 Z" transform="translate(50 1)"/>
    </g>
  </g>
</svg>
