<svg xmlns="http://www.w3.org/2000/svg" viewBox="12.136 12.8 73.918 68"><g transform="matrix(1.25 0 0 -1.25 -44 949.1)"><linearGradient id="a" gradientUnits="userSpaceOnUse" x1="-169.001" y1="400.047" x2="-168.232" y2="400.047" gradientTransform="scale(64.14) rotate(-135 1.46 -229.51)"><stop offset="0" stop-color="#FFF"/><stop offset="1" stop-color="#868484"/></linearGradient><path fill="url(#a)" d="M55.137 730.074c.206 5.53 2.69 10.475 6.54 13.93-3.13-3.49-5.037-8.102-5.037-13.16 0-10.888 8.827-19.716 19.715-19.716 5.06 0 9.67 1.91 13.16 5.04-3.5-3.902-8.53-6.4-14.148-6.55 10.644.28 19.187 8.996 19.187 19.71 0 10.888-8.827 19.715-19.716 19.715-10.638 0-19.308-8.427-19.7-18.97m3.682-.745c0 8.795 7.09 15.935 15.866 16.018H74.84c8.846 0 16.02-7.172 16.02-16.018v-.025-.059-.034c-.002-.002-.002-.004-.002-.006v-.014-.025-.057-.014-.014c-.002-.003-.002-.008-.002-.01v-.003V729.054v-.014-.01-.003-.013l-.002-.014c-.177-8.694-7.28-15.686-16.015-15.686-8.85-.004-16.02 7.167-16.02 16.014m-3.684.743v.001m-.002-.063c0 .02 0 .043.002.064l-.002-.063m0 0V730v.007m-.002-.068l.002.06c0-.02 0-.04-.002-.06m0 0v-.007.007m-.002-.064c.002.018.002.037.002.057 0-.02 0-.04-.002-.057m0 0v-.01.01M55.128 729.806c0 .02 0 .04.002.06l-.002-.06m0 0v-.006.007m0-.065V729.742M55.127 729.73v0m-.002-.06v0m0 0v-.006.006m0-.033V729.638m-.002-.03l.002.03-.002-.03m0 0v-.012.012m0-.045v0m0-.032v0m0 0v-.017.017m0-.033v0m0-.016v0m0-.017v0m0-.017v0m20.238-19.83h.005-.005m-.133-.004c.043.002.087.002.132.003l-.133-.004m-.002 0zm-.126-.002c.042 0 .084 0 .127.002l-.128-.002m-.01 0h.01-.01m-.065 0h.066-.066m-.017 0h.014-.014m-.017 0h.013-.013zm-.016 0h.01-.01m-.016 0h.01-.01zm-.016 0h.01-.01m-.016 0h.01-.01zm-.017 0h.01-.01z"/></g><path fill="#1560A8" d="M69.57 37.443c0 11.058-8.966 20.023-20.024 20.023-11.057 0-20.02-8.965-20.02-20.023 0-11.057 8.963-20.022 20.02-20.022 11.06 0 20.024 8.966 20.024 20.023"/><g transform="matrix(1.25 0 0 -1.25 -44 949.1)"><radialGradient id="b" cx="-162.379" cy="415.107" r=".768" gradientTransform="matrix(26.06 0 0 -26.06 4332.89 11520.32)" gradientUnits="userSpaceOnUse"><stop offset="0" stop-color="#1560A7"/><stop offset="1" stop-color="#0F457B"/></radialGradient><path fill="url(#b)" d="M74.585 745.344c.034 0 .066 0 .1.002-.033 0-.066 0-.1-.002m-.004 0h.001m-.096 0h.098-.098m-.006 0h.006-.006m-.098-.004l.098.002c-.033 0-.066 0-.098-.002m-.005 0h.001m-.048-.002l.048.002c-.016 0-.032 0-.048-.002m-.05 0h.05-.05m-.004 0h.005-.005m-.1-.006l.1.004c-.033 0-.067-.002-.1-.004m-.71-.044c.235.02.47.035.71.045-.24-.01-.475-.025-.71-.045m-.2-.02c.067.008.133.014.2.02-.068-.006-.135-.01-.2-.02m-.002 0c.002 0 .002 0 0 0 .002 0 .002 0 0 0m-.393-.043c.13.016.262.03.394.044-.132-.014-.262-.028-.393-.045m-.01 0h.01-.01m-.087-.01l.087.01-.087-.01m-.008 0h.008-.008m-.007-.003c.002 0 .005 0 .008.002-.004 0-.006 0-.008-.002m-.082-.01l.082.01c-.028-.003-.055-.008-.082-.01m-.02-.004l.02.003-.02-.002m-.08-.01l.08.01-.08-.01m-.024-.004c.007 0 .015.003.023.003l-.024-.003m-.076-.01l.075.01c-.026-.004-.05-.008-.076-.01m-.028-.005c.01 0 .02 0 .028.003l-.028-.004m-.068-.012l.068.01-.068-.01m-.036-.005c.012.003.024.004.036.005-.012 0-.024-.003-.036-.005m-.05-.008l.05.008-.05-.008m-.056-.01c.02.004.038.008.057.01l-.057-.01m-.02-.003l.02.003c-.006 0-.013 0-.02-.003m-.017-.003l.017.002c-.006 0-.012 0-.018-.003m-.07-.012c.023.004.046.008.07.01-.024-.002-.047-.007-.07-.01m-.03-.005c.012 0 .02.003.03.005l-.03-.005m-.084-.015l.085.015-.084-.015m-.01-.002c.002 0 .007 0 .01.002l-.01-.002M58.82 729.328c0-8.847 7.17-16.018 16.017-16.018 6.737 0 12.502 4.158 14.87 10.047-.924-2.295-2.364-4.327-4.177-5.953 2.544 2.835 4.094 6.584 4.094 10.692 0 8.846-7.17 16.018-16.02 16.018-4.11 0-7.855-1.55-10.69-4.093 2.332 2.602 5.505 4.437 9.09 5.077-7.495-1.338-13.184-7.89-13.184-15.77m32.027-.534l.005.204c0-.07-.003-.136-.005-.204m-.883-4.748c.522 1.494.83 3.088.883 4.748-.054-1.66-.36-3.254-.883-4.748m-.03-.09l.03.09-.03-.09M89.93 723.95c.002 0 .002.003.003.006 0-.003-.003-.005-.003-.007m-.03-.086l.03.084-.03-.084m-.004-.01c0 .004.003.01.004.01l-.004-.01m-.026-.072c.01.023.018.047.027.07-.01-.023-.018-.045-.027-.07m-.01-.024l.01.024-.01-.024m-.02-.058l.02.06-.02-.06m-.015-.04l.015.04c-.006-.013-.01-.025-.015-.04m-.02-.046c.008.016.013.03.02.047l-.02-.046m-.02-.06l.022.06c-.01-.02-.016-.04-.023-.06m-.006-.014c.002.004.003.01.006.013-.003-.004-.004-.01-.006-.013m-.005-.013l.005.013c0-.004-.003-.008-.005-.013m-.023-.06l.023.06-.023-.06m-.015-.037l.015.037c-.006-.012-.01-.024-.015-.037m-.008-.022c.002.007.005.015.01.022-.005-.007-.008-.014-.01-.022m-.02-.045l.02.045c-.007-.015-.012-.03-.02-.045m0-.006v0"/></g><g transform="matrix(1.25 0 0 -1.25 -44 949.1)"><radialGradient id="c" cx="-162.803" cy="414.155" r="0" gradientTransform="matrix(26.06 0 0 -26.06 4332.89 11520.32)" gradientUnits="userSpaceOnUse"><stop offset="0" stop-color="#1560A7"/><stop offset="1" stop-color="#0F457B"/></radialGradient><path fill="url(#c)" d="M90.852 729.002c.002.002.002.005.002.007 0-.003 0-.005-.002-.008"/></g><g transform="matrix(1.25 0 0 -1.25 -44 949.1)"><radialGradient id="d" cx="-162.803" cy="414.842" r=".506" gradientTransform="matrix(26.06 0 0 -26.06 4332.89 11520.32)" gradientUnits="userSpaceOnUse"><stop offset="0" stop-color="#1560A7"/><stop offset="1" stop-color="#0F457B"/></radialGradient><path fill="url(#d)" d="M90.854 729.024v0"/></g><g transform="matrix(1.25 0 0 -1.25 -44 949.1)"><radialGradient id="e" cx="-162.803" cy="414.153" r="0" gradientTransform="matrix(26.06 0 0 -26.06 4332.89 11520.32)" gradientUnits="userSpaceOnUse"><stop offset="0" stop-color="#1560A7"/><stop offset="1" stop-color="#0F457B"/></radialGradient><path fill="url(#e)" d="M90.854 729.065v0"/></g><g transform="matrix(1.25 0 0 -1.25 -44 949.1)"><radialGradient id="f" cx="-162.803" cy="414.986" r=".614" gradientTransform="matrix(26.06 0 0 -26.06 4332.89 11520.32)" gradientUnits="userSpaceOnUse"><stop offset="0" stop-color="#1560A7"/><stop offset="1" stop-color="#0F457B"/></radialGradient><path fill="url(#f)" d="M90.855 729.107v0"/></g><g transform="matrix(1.25 0 0 -1.25 -44 949.1)"><radialGradient id="g" cx="-162.38" cy="415.107" r=".768" gradientTransform="matrix(26.06 0 0 -26.06 4332.89 11520.32)" gradientUnits="userSpaceOnUse"><stop offset="0" stop-color="#1560A7"/><stop offset="1" stop-color="#0F457B"/></radialGradient><path fill="url(#g)" d="M90.856 729.328c0 8.846-7.172 16.018-16.02 16.018 8.848 0 16.02-7.172 16.02-16.018m-16.032 16.018h.013-.013zm-.014 0h.01-.01zm-.013 0h.01-.01m-.013 0h.01-.01m-.014 0h.01-.01m-.013 0h.01-.01m-.013 0h.008-.008m-.01 0h.001m-.005 0h.005-.005m-.014 0h.01-.01m-.014 0h.01-.01m-.015 0h.012-.013"/></g><g transform="matrix(1.25 0 0 -1.25 -44 949.1)"><linearGradient id="h" gradientUnits="userSpaceOnUse" x1="-168.992" y1="400.046" x2="-168.267" y2="400.046" gradientTransform="scale(64.14) rotate(-135 1.46 -229.51)"><stop offset="0" stop-color="#F4F4F4"/><stop offset="1" stop-color="#817F7F"/></linearGradient><path fill="url(#h)" d="M74.686 745.346zm16.17-16.035v.005-.004zm0-.014v.001m0-.014v.005-.005zm0-.013v.004-.005zm0-.015v.006-.005zm0-.013v.005-.005zm0-.013v.004-.005zm0-.016v.005-.006zm0-.013v.001m0-.013v.007-.007zm0-.013v.004-.004zm0-.013v.004-.003zm0-.055v.002-.002zm0-.014v.003-.002zm0-.013v.002-.003zm-.002-.014v.002-.002zm0-.013v.002-.002zm0-.014v.003-.004zm0-.027z"/></g><g transform="matrix(1.25 0 0 -1.25 -44 949.1)"><radialGradient id="i" cx="-162.379" cy="415.108" r=".768" gradientTransform="matrix(26.06 0 0 -26.06 4332.89 11520.32)" gradientUnits="userSpaceOnUse"><stop offset="0" stop-color="#145CA0"/><stop offset="1" stop-color="#0E4275"/></radialGradient><path fill="url(#i)" d="M74.824 745.346H74.715 74.687c-4.677-.044-8.874-2.092-11.774-5.325 2.836 2.545 6.582 4.094 10.692 4.094 8.848 0 16.02-7.172 16.02-16.018 0-4.11-1.55-7.857-4.095-10.692 3.192 2.863 5.227 6.988 5.32 11.593l.003.013v.093c.002.02.002.037.002.056V729.325c0 8.846-7.17 16.02-16.018 16.02l-.013.003z"/></g><g transform="matrix(1.25 0 0 -1.25 -44 949.1)"><linearGradient id="j" gradientUnits="userSpaceOnUse" x1="-169.001" y1="400.047" x2="-168.232" y2="400.047" gradientTransform="scale(64.14) rotate(-135 1.46 -229.51)"><stop offset="0" stop-color="#EBEBEB"/><stop offset="1" stop-color="#7D7A7B"/></linearGradient><path fill="url(#j)" d="M55.123 729.533v-.017-.003-.013-.004-.012-.006-.01-.006-.133c0-10.89 8.826-19.717 19.714-19.717H75.01c.004.003.008.003.013.003h.002c5.754.053 10.918 2.573 14.488 6.554-3.49-3.13-8.102-5.04-13.16-5.04-10.888 0-19.715 8.827-19.715 19.716 0 5.06 1.906 9.67 5.038 13.16-3.974-3.568-6.493-8.726-6.553-14.473"/></g><path fill="#FFF" d="M58.982 36.422h-9.2l4.45-7.706h9.203l-4.453 7.706zM45.156 28.716H36.02l13.527 23.426 4.568-7.91-8.96-15.516z"/><path fill="#656263" d="M19.35 69.925h2.834l-3.69 10.634H15.78l-3.644-10.635h2.832l2.2 7.56 2.183-7.56zM23.073 69.925h7.864v2.063h-5.213v1.928h4.865v2.02h-4.866v2.53h5.68v2.093h-8.33V69.924zM35.937 71.912v2.88h2.2c.376-.016 1.595-.048 1.595-1.464 0-1.355-.98-1.4-1.536-1.416h-2.26zm-2.668-1.988h4.79c1.116.015 2.5.03 3.48 1.084.497.56.843 1.403.843 2.366 0 2.14-1.46 2.667-2.184 2.937l2.456 4.248h-2.938l-2.11-3.794h-1.67v3.795h-2.67V69.923zM47.07 80.555h-2.654V69.92h2.653v10.635zM50.76 77.366c.27.302.496.542 1.024.83.707.374 1.432.51 2.048.51 1.054 0 1.96-.497 1.96-1.236 0-.842-1.07-.98-1.853-1.084-.59-.075-1.178-.15-1.75-.27-.648-.136-2.86-.602-2.86-2.892 0-2.74 2.44-3.555 4.277-3.555 2.455 0 3.78 1.19 4.7 2.016l-1.958 1.403c-.333-.334-.634-.62-1.056-.86-.377-.21-1.054-.467-1.733-.467-1.053 0-1.58.602-1.58 1.113 0 .815.904.935 1.355.995 1.13.136 2.65.423 3.252.634 1.222.45 1.838 1.4 1.838 2.605 0 .768-.285 1.61-.844 2.26-.96 1.114-2.498 1.43-3.99 1.43-2.998 0-4.188-1.386-4.85-2.154l2.02-1.28zM63.11 80.555h-2.65V69.92h2.65v10.635zM72.858 79.564c-.437.408-1.34 1.236-3.135 1.236-2.966 0-4.79-2.408-4.79-5.542 0-3.42 2.215-5.694 5.243-5.694 2.817 0 4.188 1.808 4.686 2.455l-2.02 1.22c-.378-.573-.994-1.507-2.47-1.507-2.02 0-2.79 1.672-2.79 3.45 0 1.205.334 2.184.846 2.71.407.437 1.132.77 1.944.77.48 0 1.024-.123 1.46-.408.695-.452.785-1.023.86-1.58h-2.38v-2.02h4.625v5.904h-2.08v-.996zM77.12 69.925h2.607l2.305 3.915c.843 1.493 1.1 1.974 1.597 2.91l-.123-6.825h2.547V80.56h-2.607L81.46 77.2c-.965-1.58-1.145-1.914-1.87-3.33l.076 6.69H77.12V69.924z"/></svg>