<svg width="228" height="57" viewBox="0 0 228 57" xmlns="http://www.w3.org/2000/svg"><path d="M30.6 28.6L42.2 17h15C52.3 7.3 42.2.6 30.6.6 19 .6 8.9 7.3 4 17h15l11.6 11.6zM.8 30.4C.8 42 7.5 52.1 17.2 57l13.4-13.4L4 17C2 21 .8 25.6.8 30.4zM57.2 17L30.6 43.6 44 57c9.7-4.9 16.4-15 16.4-26.6 0-4.8-1.2-9.4-3.2-13.4zM90 34.9L83.6 17h-6.9l10.1 26.7h6.3L103.2 17h-6.7L90 34.9zm17.6 8.8h19.8v-5.6h-13.6v-5.3H125v-5.4h-11.2v-4.8h13.6v-5.7h-19.8v26.8zM155.1 26c0-5-4-9-9-9h-12.3v26.7h6.2v-8.5h2.8l5.8 8.5h7.3l-6.6-9.3c3.4-1.2 5.8-4.6 5.8-8.4zm-10 3.8H140v-7.1h5.1c2 0 3.6 1.6 3.6 3.6 0 1.9-1.6 3.5-3.6 3.5zm13.6-7.1h8.2v21h6.2v-21h8.2V17h-22.5l-.1 5.7zm57.8-5.7l-6.4 17.9-6.4-17.9h-6.9l10.1 26.7h6.3L223.3 17h-6.8zm-30.2 26.7h6.2V17h-6.2v26.7zm33.6-4.1h3.4v.6H222v3.5h-.7v-3.5h-1.4v-.6zm5.5 4.1l-1.1-2.8v2.8h-.7v-4.1h.8l1.2 3.1 1.2-3.1h.8v4.1h-.7v-2.9l-1.1 2.8-.4.1z" fill="#FFF" fill-rule="nonzero"/></svg>