<svg xmlns="http://www.w3.org/2000/svg" xmlns:xlink="http://www.w3.org/1999/xlink" width="100" height="32" viewBox="0 0 100 32"><defs><path id="a" d="M51.644 10.254c-.057 4.425 4 6.895 7.058 8.362 3.14 1.507 4.195 2.473 4.183 3.82-.024 2.062-2.505 2.972-4.828 3.007-4.052.062-6.407-1.078-8.28-1.94l-1.46 6.73c1.88.855 5.36 1.6 8.967 1.632 8.47 0 14.01-4.12 14.04-10.51.033-8.11-11.38-8.558-11.3-12.182.026-1.1 1.09-2.27 3.42-2.57 1.155-.15 4.34-.266 7.952 1.374l1.417-6.514C70.873.766 68.375.1 65.268.1c-7.972 0-13.58 4.176-13.624 10.154zM86.434.66c-1.546 0-2.85.89-3.43 2.254l-12.1 28.472h8.463l1.685-4.587h10.342l.977 4.586h7.46L93.32.66h-6.886zm1.184 8.3l2.442 11.538h-6.69L87.62 8.96zM41.383.66l-6.67 30.726h8.064L49.444.66h-8.06zm-11.93 0L21.06 21.574 17.662 3.79C17.265 1.807 15.69.66 13.943.66H.224l-.193.892c2.817.602 6.018 1.574 7.957 2.614 1.186.635 1.525 1.19 1.914 2.7l6.433 24.52h8.523L37.922.66h-8.47z"/></defs><use fill="#6A778B" fill-opacity=".5" xlink:href="#a" fill-rule="evenodd"/></svg>