<svg xmlns="http://www.w3.org/2000/svg" width="466" height="88" viewBox="0 0 466 88">
  <g fill="none" transform="translate(-1)">
    <path fill="#DB1050" d="M48.8,0.9 C74.14,3.05 102.1,15.9 118.04,34.2 C138.46,57.58 131.44,80.98 102.34,86.44 C73.24,91.91 33.1,77.38 12.68,53.98 C-2.94,36.08 -2.5,18.18 11.6,8.3 L92.5,68.05 L48.8,0.9 Z"/>
    <path fill="#231F20" d="M448.43,86.3 L438.29,45.45 C436.79,40.6 436.19,35.75 435.19,30.89 L434.99,30.89 C434.09,35.79 433.69,40.69 432.39,45.59 L422.09,86.19 L404.49,86.19 L428.09,1.09 L441.79,1.09 L466.39,86.19 L448.29,86.19 L448.43,86.3 Z M179.83,1.2 L190,42.07 C191.46,46.92 192.03,51.77 193.04,56.63 L193.27,56.63 C194.17,51.66 194.51,46.81 195.87,41.83 L206.13,1.23 L223.73,1.23 L200.15,86.31 L186.38,86.31 L161.78,1.21 L179.84,1.21 L179.83,1.2 Z M236.37,1.2 L253.2,1.2 L253.2,86.3 L236.37,86.3 L236.37,1.2 Z M348.25,1.2 L356.48,51.43 L356.7,51.43 L363.46,1.21 L386.04,1.21 L394.96,86.31 L377.7,86.31 L373.63,25.11 L373.4,25.11 L370.7,46.01 L363.46,86.31 L350.5,86.31 L342.25,45.61 L339.43,26.71 L339.43,25.11 L339.21,25.11 L336.81,86.41 L318.71,86.41 L326.21,1.31 L348.41,1.31 L348.25,1.2 Z M294.88,1.2 C291.98,3.24 289.78,6.78 288.28,10.4 C283.88,21 288.58,29.15 292.75,36.34 C293.35,37.39 293.98,38.47 294.57,39.54 C303.64,55.1 307.24,66.57 300.47,82.91 C299.97,84.11 298.85,86.31 298.85,86.31 L278.6,86.31 C280.9,84.51 283.4,81.61 284.78,78.31 C289.43,67.11 283.94,56.81 278.63,46.91 C272.23,35.01 265.63,22.61 272.63,5.71 C273.31,4.11 274.76,1.41 274.76,1.41 L294.88,1.41 L294.88,1.2 Z"/>
  </g>
</svg>
