<svg xmlns="http://www.w3.org/2000/svg" viewBox="0 0 100 27"><g fill="none"><path fill="#F4F6F8" d="M26.396 3.487h6.803l5.536 8.997 5.537-8.997h6.803v23.23h-6.399V13.372l-5.941 9.088h-.13l-5.903-9.062v13.306h-6.306zM53.516 3.487h8.997c8.266 0 13.07 4.78 13.07 11.478v.065c0 6.699-4.883 11.674-13.2 11.674h-8.854V3.487h-.013zm6.438 5.68v11.844h2.624c3.879 0 6.438-2.129 6.438-5.876v-.065c0-3.722-2.56-5.902-6.438-5.902h-2.624zm17.288-5.68h10.982c3.551 0 6.006.928 7.56 2.494 1.358 1.358 2.063 3.121 2.063 5.406v.066c0 3.577-1.893 5.94-4.779 7.168l5.537 8.096H91.2l-4.675-7.038h-2.86v7.038H77.23l.013-23.23zm10.72 11.152c2.155 0 3.448-1.058 3.448-2.755v-.066c0-1.854-1.358-2.781-3.487-2.781H83.68v5.602h4.283zM.45 3.487h7.169l5.275 14.703 5.314-14.703h7.039l-9.428 23.4H9.838z"/><path fill="#5EBEEF" d="M7.619 3.487L9.081.706H3.91L.45 3.487z"/><path fill="#176EA3" d="M12.894 18.19v-7.064L9.081.706 7.619 3.487z"/><path fill="#1E7BC1" d="M18.208 3.487L12.894 18.19v-7.064L16.707.706z"/><path fill="#5EBEEF" d="M33.199 3.487L34.753.706h-4.91l-3.447 2.781z"/><path fill="#43A5ED" d="M44.285 3.487L42.783.706h4.857l3.448 2.781z"/><path fill="#176EA3" d="M34.753.706l3.995 6.79v4.988l-5.549-8.997z"/><path fill="#1E7BC1" d="M38.748 7.496l4.035-6.79 1.502 2.781-5.537 8.997z"/><path fill="#125B7F" d="M32.702 26.717l2.051-4.818v-5.354l-2.051-3.134z"/><path fill="#1E7BC1" d="M44.663 26.717l-2.037-4.818v-5.354l2.05-3.173z"/><path fill="#43A5ED" d="M75.388 12.72S74.644.705 63.44.705h-6.829l-3.095 2.781h9.271c7.143.105 11.648 3.813 12.601 9.232zm1.854-9.233h10.982c3.551 0 6.006.928 7.56 2.494a6.87 6.87 0 0 1 1.188 1.58S94.452.706 87.923.706H80.22l-2.977 2.781z"/><path fill="#176EA3" d="M59.954 21.01l1.567-2.454V9.168h-1.567V21.01zM83.68 14.665l1.567-2.455V9.037H83.68z"/><path fill="#1E7BC1" d="M83.68 14.639h4.283c2.154 0 3.447-1.058 3.447-2.755v-.066c0-.953-.353-1.658-.98-2.115 1.267 2.56-1.997 2.507-1.997 2.507h-3.186l-1.567 2.429z"/><path fill="#176EA3" d="M83.68 26.717l1.567-2.455v-4.583H83.68z"/><path fill="#1E7BC1" d="M67.149 10.643c1.031.784 1.083 3.082 1.083 3.082 0 4.857-4.256 4.831-4.256 4.831H61.52l-1.567 2.455h2.624c3.879 0 6.438-2.129 6.438-5.876v-.065c0-1.907-.68-3.421-1.867-4.427z"/><path fill="#43A5ED" d="M18.208 3.487h7.025L21.773.706h-5.066l1.501 2.781"/><path fill="#FFF" d="M95.588 2.022c0-1.097.882-2.008 2-2.008 1.119 0 2 .895 2 1.992v.016a2 2 0 0 1-4 0zm3.763 0A1.75 1.75 0 0 0 97.588.25c-1 0-1.763.81-1.763 1.772v.017c0 .962.763 1.772 1.763 1.772 1-.016 1.763-.827 1.763-1.789zM96.809.96h.915c.44 0 .78.22.78.641 0 .338-.187.54-.475.608l.542.76h-.474l-.475-.692h-.424v.692h-.39V.959zm.88 1.013c.272 0 .408-.135.408-.338 0-.22-.153-.337-.407-.337h-.492v.658h.492v.017z"/></g></svg>