<svg xmlns="http://www.w3.org/2000/svg" xmlns:xlink="http://www.w3.org/1999/xlink" width="190.25" height="31" viewBox="0 0 190.25 31"><g transform="matrix(1.25 0 0 -1.25 -375.86 370.03)"><defs><path id="a" d="M-193.84-199.548h956.25V1037.95h-956.25z"/></defs><clipPath id="b"><use xlink:href="#a" overflow="visible"/></clipPath><g clip-path="url(#b)"><path fill="#696566" d="M366.633 274.056l-6.57 18.298c-.085.253-.21.587-.21.88 0 .793.67 1.546 1.63 1.546.838 0 1.384-.544 1.634-1.337l5.445-15.767 5.484 15.81c.25.75.753 1.295 1.586 1.295h.17c.88 0 1.425-.543 1.675-1.293l5.44-15.81 5.53 15.85c.21.672.666 1.254 1.548 1.254.92 0 1.59-.707 1.59-1.504 0-.292-.126-.625-.208-.88l-6.613-18.34c-.338-.958-1.005-1.46-1.76-1.46h-.125c-.84 0-1.468.502-1.763 1.46l-5.397 15.55-5.444-15.55c-.293-.958-.923-1.46-1.758-1.46h-.088c-.793 0-1.46.502-1.797 1.46M414.532 293.185c0 .883.712 1.637 1.59 1.637.928 0 1.638-.713 1.638-1.637v-3.713c1.592 3.606 5.123 5.308 7.463 5.308.97 0 1.598-.712 1.598-1.634 0-.882-.583-1.508-1.43-1.634-4.194-.503-7.63-3.65-7.63-9.9v-7.353c0-.882-.67-1.635-1.59-1.635-.924 0-1.637.716-1.637 1.634v18.925zM437.182 272.42c-5.837 0-10.603 4.528-10.603 11.167v.086c0 6.183 4.315 11.164 10.19 11.164 6.284 0 9.862-5.184 9.862-10.873 0-.874-.705-1.5-1.48-1.5h-15.363c.447-4.644 3.69-7.258 7.476-7.258 2.63 0 4.556 1.038 6.12 2.49.247.206.534.372.906.372.778 0 1.397-.623 1.397-1.373 0-.372-.165-.747-.498-1.034-2.01-1.948-4.397-3.24-8.01-3.24m6.286 12.412c-.33 3.905-2.55 7.305-6.783 7.305-3.698 0-6.492-3.11-6.898-7.305h13.68zM391.643 279.14v.085c0 4.556 3.764 6.984 9.24 6.984 2.76 0 4.724-.377 6.65-.924v.756c0 3.885-2.39 5.895-6.44 5.895-2.175 0-3.44-.277-5.033-.986-.206-.083-.417-.126-.58-.126-.753 0-1.425.63-1.425 1.38 0 .667.29 1.08.88 1.34 2.13.925 3.734 1.232 6.492 1.232 3.05 0 5.392-.792 6.978-2.382 1.466-1.463 2.22-3.553 2.22-6.314v-11.928c0-.917-.67-1.588-1.553-1.588-.916 0-1.537.67-1.537 1.505v2.06c-1.508-1.968-4.02-3.72-7.816-3.72-4.017.002-8.077 2.3-8.077 6.73m15.932 1.674v2.09c-1.592.46-3.727.92-6.36.92-4.05 0-6.31-1.757-6.31-4.472v-.083c0-2.718 2.506-4.307 5.436-4.307 3.97 0 7.235 2.426 7.235 5.85M308.063 293.423c-.708 1.552-2.458 2.255-4.092 1.53-1.635-.728-2.237-2.542-1.498-4.095l6.86-14.913c1.08-2.337 2.217-3.562 4.35-3.562 2.28 0 3.275 1.334 4.353 3.562 0 0 5.984 13.03 6.044 13.166.06.14.252.56.86.556.516-.003.95-.414.95-.966v-12.742c0-1.964 1.088-3.575 3.184-3.575 2.094 0 3.226 1.61 3.226 3.575v10.427c0 2.01 1.44 3.316 3.405 3.316s3.27-1.35 3.27-3.315v-10.427c0-1.964 1.094-3.575 3.186-3.575 2.095 0 3.233 1.61 3.233 3.575v10.427c0 2.01 1.435 3.316 3.4 3.316 1.96 0 3.273-1.35 3.273-3.315v-10.427c0-1.964 1.092-3.575 3.186-3.575 2.093 0 3.23 1.61 3.23 3.575v11.867c0 4.36-3.508 7.416-7.728 7.416-4.215 0-6.855-2.915-6.855-2.915-1.404 1.82-3.338 2.912-6.61 2.912-3.455 0-6.478-2.912-6.478-2.912-1.404 1.82-3.794 2.912-5.773 2.912-3.062 0-5.493-1.346-6.976-4.737l-4.38-10.327-5.62 13.25zM446.893 292.13v.02c0 1.458 1.184 2.687 2.672 2.687 1.51 0 2.677-1.216 2.677-2.677v-.01c0-1.465-1.18-2.694-2.677-2.694-1.51 0-2.672 1.212-2.672 2.675m4.835.02v.006c0 1.2-.927 2.184-2.163 2.184-1.225 0-2.166-1-2.166-2.19v-.015c0-1.197.93-2.18 2.165-2.18 1.22 0 2.163.998 2.163 2.194"/><path fill="#696566" d="M448.542 293.207c0 .16.127.286.288.286h.892c.336 0 .595-.095.756-.265.147-.143.227-.35.227-.59v-.008c0-.408-.206-.657-.517-.788l.394-.48c.055-.072.092-.13.092-.22 0-.157-.134-.26-.27-.26-.127 0-.213.064-.28.146l-.555.702h-.456v-.564c0-.16-.123-.284-.283-.284-.16 0-.287.126-.287.284v2.04zm1.148-.972c.278 0 .43.145.43.366v.01c0 .24-.163.37-.44.37h-.57v-.744h.58z"/></g></g></svg>