<svg xmlns="http://www.w3.org/2000/svg" width="887" height="265" viewBox="0 0 887 265">
  <g fill="none" transform="matrix(1 0 0 -1 -2.312 267.71)">
    <path fill="#FDD910" d="M84.5323693,265.67316 C57.5967336,265.67316 29.1455533,3.80395662 2.20991765,3.80395662 C20.5051376,3.80395662 32.7925212,3.80395662 58.1884602,3.80395662 C83.6025132,3.80395662 116.135399,265.67316 142.545727,265.67316 L84.5323693,265.67316" transform="translate(198.137 .368)"/>
    <path fill="#EB192F" d="M60.3802637,265.67316 C87.3158994,265.67316 115.748966,3.80395662 142.702715,3.80395662 C124.407495,3.80395662 112.132188,3.80395662 86.7060587,3.80395662 C61.3403099,3.80395662 28.7893098,265.67316 2.38502042,265.67316 L60.3802637,265.67316" transform="translate(111.564 .368)"/>
    <path fill="#EB192F" d="M60.3802637,265.67316 C87.2977853,265.67316 115.785194,3.80395662 142.684601,3.80395662 C124.42561,3.80395662 112.132188,3.80395662 86.6758686,3.80395662 C61.3101198,3.80395662 28.7893098,265.67316 2.36690634,265.67316 L60.3802637,265.67316" transform="translate(.489 .368)"/>
    <path fill="#EB192F" d="M60.3802637,265.67316 C87.3279755,265.67316 115.785194,3.80395662 142.702715,3.80395662 C124.395419,3.80395662 112.132188,3.80395662 86.772477,3.80395662 C61.3403099,3.80395662 28.8194999,265.67316 2.38502042,265.67316 L60.3802637,265.67316" transform="translate(282.32 .368)"/>
    <path fill="#656263" d="M24.1521055,36.2281583 L37.5927522,65.6393847 L51.0152848,36.2281583 L24.1521055,36.2281583 Z M40.0321149,79.2792863 L35.262074,79.2792863 L0.652106848,3.8220707 L9.43743522,3.8220707 L20.8493051,28.9281844 L54.3965796,28.9281844 L65.8084495,3.8220707 L74.4186751,3.8220707 L40.0321149,79.2792863 L40.0321149,79.2792863 Z" transform="translate(460.037 94.313)"/>
    <path fill="#656263" d="M24.1521055,42.2661846 L13.4527228,42.2661846 L13.4527228,67.9579869 L24.6834518,67.9579869 C29.9425728,67.9579869 34.1510772,66.8047238 37.2727368,64.4800837 C40.1407993,62.4331927 41.6080398,59.3356852 41.6080398,55.1573709 C41.6080398,50.9307525 40.1287233,47.7668267 37.1580143,45.6474794 C34.120887,43.3832195 29.7795461,42.2661846 24.1521055,42.2661846 Z M48.7027207,23.2162114 C47.7124844,24.7015659 46.7282861,26.1688063 45.7380498,27.6541608 C44.7478135,29.1515913 43.6971969,30.6610979 42.5499719,32.2007947 C41.7227623,33.420476 40.9076287,34.4107123 40.1287233,35.2681121 C39.3618939,36.1073977 38.5648745,36.8319609 37.779931,37.3995354 C40.7023358,38.5105322 43.3590674,40.3460922 45.8346582,42.8941394 C48.7993292,46.0761793 50.2665696,50.1216569 50.2665696,55.0607625 C50.2665696,61.6301352 48.0023097,66.6658492 43.4254857,70.1920566 C41.1249976,71.9672364 38.45619,73.253336 35.3405684,74.0684695 C32.2490989,74.865489 28.7228915,75.2700368 24.7740222,75.2700368 L5.21081676,75.2700368 L5.21081676,0.344167503 L13.4527228,0.344167503 L13.4527228,35.0748952 L23.1799833,35.0748952 C25.5106614,35.0748952 27.5152862,34.7186517 29.1576294,34.0061645 C30.8301627,33.3117915 32.2068327,32.3517453 33.3540577,31.1562161 C34.6280813,29.7252038 35.8356865,28.167393 37.0553679,26.4465555 C38.232783,24.713642 39.4886925,22.8177017 40.7627161,20.7889248 L53.8893854,0.344167503 L63.6166459,0.344167503 L48.7027207,23.2162114 L48.7027207,23.2162114 Z" transform="translate(544.328 97.797)"/>
    <path fill="#656263" d="M36.2281582,12.0760528 C32.9132818,9.7514126 28.4451423,8.57399745 22.8056256,8.57399745 L9.76348865,8.57399745 L9.76348865,35.473405 L21.0062938,35.473405 C24.3815505,35.473405 27.3160313,35.1715036 29.7735081,34.5556249 C32.2430608,33.9638984 34.3141039,33.0883845 36.0047513,31.9532356 C39.2713235,29.7735081 40.8834766,26.3740992 40.8834766,21.7127428 C40.8834766,17.5465046 39.3377418,14.3403126 36.2281582,12.0760528 Z M9.76348865,68.8878429 L16.5260782,68.8878429 C22.6305229,68.8878429 27.1711187,67.76477 30.2022079,65.5125862 C33.0883845,63.3992769 34.5193968,60.0481723 34.5193968,55.4713483 C34.5193968,51.3111481 33.0702705,48.1291082 30.1116375,45.9252286 C27.0624342,43.7455011 22.6425989,42.6586563 16.8642077,42.6586563 L9.76348865,42.6586563 L9.76348865,68.8878429 Z M44.2647714,35.3405684 C41.7288003,37.7557789 38.4803421,39.5128446 34.5193968,40.6479936 C37.5021818,42.5620479 39.6879474,44.8323458 41.0766934,47.5373817 C42.5077057,50.1216569 43.2081167,52.9534913 43.2081167,55.9906186 C43.2081167,62.3305463 40.9498949,67.3421082 36.4515652,71.0071902 C32.0679581,74.4730173 26.0721979,76.1998929 18.4522086,76.1998929 L1.5336587,76.1998929 L1.5336587,1.26798554 L23.8381281,1.26798554 C31.6875624,1.26798554 37.8705014,3.12769766 42.4775155,6.78674165 C47.1147198,10.4578617 49.457474,15.6022602 49.457474,22.2380511 C49.457474,27.5817045 47.7245605,31.9532356 44.2647714,35.3405684 L44.2647714,35.3405684 Z" transform="translate(620.002 96.868)"/>
    <polyline fill="#656263" points="42.266 0 42.266 39.591 71.798 74.926 61.606 74.926 38.233 47.006 14.636 74.926 4.486 74.926 34.012 39.591 34.012 0 42.266 0" transform="translate(670.975 98.136)"/>
    <path fill="#656263" d="M48.304211,30.1901319 L63.5441896,30.1901319 L63.5441896,12.9334525 C62.7773602,12.4262583 61.7931619,11.9734063 60.5915947,11.5567825 C59.4021035,11.1341206 57.9952433,10.7174968 56.4495086,10.2767209 C53.2795447,9.35290285 49.686919,8.91212693 45.6535174,8.91212693 C40.6661076,8.91212693 36.1858921,9.62461404 32.2611749,11.0858164 C28.378724,12.5168287 24.8706306,14.6301379 21.8335034,17.3714019 C15.9041615,22.8720439 12.9757187,30.2867403 12.9757187,39.609453 C12.9757187,48.4128955 15.8739713,55.6826792 21.7248189,61.3886142 C27.7205791,67.1730434 35.1050853,70.05922 43.8602236,70.05922 C45.9735328,70.05922 48.0928801,69.8901553 50.1880752,69.5459878 C52.3376126,69.1897442 54.4267697,68.7006641 56.5823452,68.0666713 C58.6654643,67.4387166 60.7968876,66.6416971 62.9041588,65.6816509 C65.01143,64.7336808 67.5111729,63.3872009 70.4154636,61.7086296 L70.4154636,71.1339887 C68.9844513,71.9732744 67.4024884,72.7099136 65.6514608,73.4042866 C63.8943951,74.0745076 61.817314,74.7990707 59.4141795,75.5779761 C57.005007,76.3448055 54.5173401,76.9365321 51.9391029,77.3290038 C49.3669036,77.7033614 46.6799819,77.8965783 43.8602236,77.8965783 C32.7079889,77.8965783 23.2886677,74.2314963 15.5841461,66.9073703 C8.08491732,59.5590922 4.28699873,50.4899765 4.28699873,39.7060614 C4.28699873,28.6987394 8.17548771,19.5088632 15.9041615,12.0760528 C23.6690634,4.75796478 33.3661337,1.06269264 44.9108402,1.06269264 C47.380393,1.06269264 49.8378697,1.26194751 52.2108141,1.62422909 C54.6018725,1.95632055 56.9446267,2.41521055 59.2088866,2.976747 C61.4731465,3.55639753 63.5743797,4.21454241 65.6031566,4.99948584 C67.5957053,5.78442927 69.6305202,6.6840952 71.6774111,7.73471179 L71.6774111,37.5927522 L48.304211,37.5927522 L48.304211,30.1901319" transform="translate(457.809 2.191)"/>
    <path fill="#656263" d="M24.1521055,42.2661846 L13.4587608,42.2661846 L13.4587608,67.982139 L24.6774138,67.982139 C29.9546488,67.982139 34.1812673,66.8167999 37.2606608,64.4921597 C40.1468374,62.4392307 41.5959637,59.3356852 41.5959637,55.175485 C41.5959637,50.9247144 40.1106092,47.7547506 37.1399002,45.6414414 C34.120887,43.3771815 29.8157742,42.2661846 24.1521055,42.2661846 Z M48.6846067,23.2282875 C47.7185224,24.713642 46.7282861,26.1748443 45.7259737,27.6601988 C44.7538515,29.1395153 43.6851208,30.6610979 42.5499719,32.2007947 C41.7046482,33.3963239 40.8895146,34.4167503 40.1106092,35.2741501 C39.3498179,36.1436259 38.5467604,36.8319609 37.7859691,37.3874593 C40.6842217,38.5407224 43.3651054,40.3581683 45.8346582,42.9001774 C48.7993292,46.0822173 50.2846837,50.127695 50.2846837,55.0728386 C50.2846837,61.6240972 47.9902336,66.6598112 43.3952956,70.2041327 C41.1310357,71.9672364 38.450152,73.247298 35.3466064,74.0563935 C32.2551369,74.859451 28.7289295,75.2821128 24.7921363,75.2821128 L5.22893084,75.2821128 L5.22893084,0.362281583 L13.4587608,0.362281583 L13.4587608,35.0567811 L23.1980973,35.0567811 C25.5227375,35.0567811 27.5152862,34.7005376 29.1576294,34.0242786 C30.8362007,33.2997155 32.2249468,32.3517453 33.3540577,31.1562161 C34.5978911,29.7252038 35.8417246,28.1734311 37.0372538,26.4465555 C38.2448591,24.713642 39.4886925,22.8297777 40.744602,20.8010009 L53.8893854,0.362281583 L63.6287219,0.362281583 L48.6846067,23.2282875 L48.6846067,23.2282875 Z" transform="translate(538.924 3.858)"/>
    <path fill="#656263" d="M66.4182901,18.1140791 C60.5010243,12.1062429 53.2312405,9.1113818 44.639129,9.1113818 C36.0168273,9.1113818 28.7289295,12.1062429 22.7452454,18.1140791 C16.8038274,24.031345 13.8331184,31.2226344 13.8331184,39.6939854 C13.8331184,48.0868421 16.8400556,55.2962455 22.8478918,61.2678536 C28.8074238,67.2696518 36.0953217,70.2584749 44.639129,70.2584749 C53.2312405,70.2584749 60.5010243,67.2696518 66.4182901,61.2678536 C72.4925447,55.1996371 75.53571,48.0204238 75.53571,39.6939854 C75.53571,31.373585 72.4925447,24.1581435 66.4182901,18.1140791 Z M73.3680585,67.0945491 C65.8567537,74.4307511 56.4555466,78.1018712 45.2429316,78.1018712 C34.0846589,78.1018712 24.725718,74.406599 17.1057287,67.0039787 C9.53404365,59.7100428 5.79046729,50.6167751 5.79046729,39.6939854 C5.79046729,34.2537236 6.72032336,29.2481998 8.64041574,24.6532617 C10.536356,20.0643616 13.3742284,15.9464277 17.2023371,12.2753076 C24.7438321,4.95721965 34.0846589,1.26194751 45.2429316,1.26194751 C56.3891283,1.26194751 65.7782593,4.98137176 73.3680585,12.4021062 C81.0061618,19.6296237 84.8161565,28.7591196 84.8161565,39.6939854 C84.8161565,50.6167751 81.0061618,59.758347 73.3680585,67.0945491 L73.3680585,67.0945491 Z" transform="translate(597.354 1.992)"/>
    <path fill="#656263" d="M60.3802637,36.2281582 C60.3802637,32.1585285 59.8368414,28.5357126 58.7198065,25.408015 C57.6329617,22.2803173 56.0751509,19.4847111 54.0524121,17.0996907 C49.8559838,12.371916 44.2466573,10.0050097 37.1821664,10.0050097 C30.0089911,10.0050097 24.2970181,12.2994597 20.0583236,16.8702457 C15.8981234,21.4712218 13.8089663,27.7447312 13.8089663,35.714926 L13.8089663,78.0475289 L5.56706032,78.0475289 L5.56706032,35.2862261 C5.56706032,25.4865093 8.49550311,17.5223525 14.3523887,11.3756417 C20.2817306,5.25308295 27.8413396,2.15557542 37.085558,2.15557542 C46.474689,2.15557542 54.0644882,5.39195755 59.8730695,11.8103796 C65.705803,18.095965 68.6402838,26.090312 68.6402838,35.8115344 L68.6402838,78.0475289 L60.3802637,78.0475289 L60.3802637,36.2281582" transform="translate(687.012 1.098)"/>
    <path fill="#656263" d="M36.2281582,48.304211 C33.3419816,46.009761 29.1998955,44.8202698 23.8260521,44.8202698 L11.2307291,44.8202698 L11.2307291,71.3815478 L24.4781589,71.3815478 C29.5017969,71.3815478 33.4385901,70.1497904 36.3247667,67.6802376 C39.0781067,65.4159777 40.4728908,62.2399759 40.4728908,58.1341179 C40.4728908,53.7746629 39.0479166,50.4779005 36.2281582,48.304211 Z M42.592238,73.476743 C38.2629731,76.9425701 32.3698594,78.6815217 24.8102504,78.6815217 L2.97070898,78.6815217 L2.97070898,3.76169043 L11.2307291,3.76169043 L11.2307291,37.5927522 L24.272866,37.5927522 C31.9713497,37.5927522 37.9973,39.3377418 42.362793,42.815645 C46.8007424,46.4143087 49.0166981,51.4922889 49.0166981,58.0435475 C49.0166981,64.7517948 46.8792368,69.9082694 42.592238,73.476743 L42.592238,73.476743 Z" transform="translate(765.18 .458)"/>
    <polyline fill="#656263" points="96.608 78.494 72.807 16.743 72.36 16.743 48.413 78.494 38.746 78.494 48.878 51.553 34.67 14.703 34.338 14.703 9.492 78.494 .103 78.494 29.58 3.581 37.744 3.581 52.935 42.665 53.382 42.665 68.272 3.581 76.182 3.581 105.551 78.494 96.608 78.494" transform="translate(444.561 187.607)"/>
    <polyline fill="#656263" points="48.304 12.076 13.706 12.076 13.706 38.74 46.626 38.74 46.626 46.028 13.706 46.028 13.706 72.287 47.574 72.287 47.574 79.575 5.446 79.575 5.446 4.655 48.304 4.655 48.304 12.076" transform="translate(553.083 186.526)"/>
    <path fill="#656263" d="M12.0760527,66.4182901 L64.8785934,5.46441387 L71.659297,5.46441387 L71.659297,80.3782071 L63.3992769,80.3782071 L63.3992769,19.3156464 C59.1605824,24.3332463 54.9822682,29.2240477 50.81603,34.0303166 C46.6256397,38.8245096 42.4473254,43.5462462 38.2448591,48.2257167 C33.5533126,53.3640771 24.4540068,63.882319 24.4540068,63.882319 C24.4540068,63.882319 15.2822448,74.6783102 10.5001279,80.3782071 L3.80395662,80.3782071 L3.80395662,5.46441387 L12.0760527,5.46441387 L12.0760527,66.4182901" transform="translate(608.457 185.723)"/>
    <path fill="#656263" d="M54.3422374,18.1140791 C48.4068574,12.595323 40.5694992,9.87217312 30.8301627,9.87217312 L12.8730722,9.87217312 L12.8730722,70.1860186 L31.14414,70.1860186 C40.9015907,70.1860186 48.6483785,67.3843743 54.4509218,61.817314 C60.2413891,56.2442157 63.1215277,48.9382038 63.1215277,39.9173924 C63.1215277,30.8180866 60.211199,23.5483029 54.3422374,18.1140791 Z M60.9116101,67.4266405 C53.6418263,74.1288498 43.8722996,77.4678784 31.590954,77.4678784 L4.6009761,77.4678784 L4.6009761,2.55408516 L32.4181636,2.55408516 C44.6934712,2.55408516 54.3422374,6.05010243 61.3221959,13.0240229 C68.3263065,20.0220955 71.7981716,28.9764886 71.7981716,39.9173924 C71.7981716,51.4802129 68.1632797,60.664051 60.9116101,67.4266405 L60.9116101,67.4266405 Z" transform="translate(686.831 188.633)"/>
    <polyline fill="#656263" points="36.228 48.304 12.613 79.799 2.47 79.799 31.989 40.883 31.989 4.885 40.262 4.885 40.262 40.883 69.788 79.799 59.632 79.799 36.228 48.304" transform="translate(752.555 186.297)"/>
    <path fill="#656263" d="M6.03802637,12.0760528 L7.71659771,12.0760528 C7.6682935,11.4843262 7.60187521,10.9771319 7.553571,10.5182419 C7.50526678,10.0533139 7.42677244,9.66688023 7.31204994,9.35290285 C7.25166968,9.18987614 7.1429852,9.00873535 6.91957823,8.7913664 C6.80485572,8.62230166 6.62975296,8.41097074 6.33992769,8.15133561 C6.21312914,7.97623284 6.03802637,7.79509205 5.89915177,7.58376113 C5.70593492,7.36639218 5.48252795,7.13694718 5.22893084,6.85919796 L5.22893084,1.88990226 C6.62975296,2.79560621 7.82528218,3.64696793 8.84570864,4.40775925 C9.88424918,5.18666466 10.7114588,6.08633059 11.3333755,7.10675704 C12.0217105,8.17548771 12.5289047,9.39516904 12.830806,10.7476869 C13.1206313,12.1183189 13.27762,13.6640537 13.27762,15.3607391 L13.27762,21.9361498 L6.03802637,21.9361498 L6.03802637,12.0760528" transform="translate(822.294 244.165)"/>
    <path fill="#656263" d="M6.03802638,12.0760528 L7.72867376,12.0760528 C7.66225547,11.4782881 7.60187521,10.9650559 7.57168507,10.5182419 C7.49922876,10.0533139 7.42073441,9.67291825 7.31204994,9.35290285 C7.26374573,9.19591417 7.1188331,9.00269733 6.90146415,8.77929035 C6.7988177,8.62230166 6.60560085,8.42304679 6.35804177,8.15133561 C6.20105309,7.97623284 6.03802638,7.79509205 5.87499966,7.59583718 C5.71801098,7.3724302 5.494604,7.13694718 5.22289281,6.85919796 L5.22289281,1.88990226 C6.60560085,2.78956819 7.83735823,3.62885385 8.84570864,4.41379728 C9.84802102,5.19270268 10.7054208,6.08633059 11.3273375,7.09468099 C12.0337866,8.19360179 12.5228667,9.37705496 12.830806,10.7476869 C13.0964792,12.124357 13.2595059,13.6640537 13.2595059,15.3728152 L13.2595059,21.9482259 L6.03802638,21.9482259 L6.03802638,12.0760528" transform="translate(744.802 151.12)"/>
    <path fill="#656263" d="M42.2661846,66.4182901 C39.0660306,71.188331 34.2657997,73.5793894 28.0345565,73.5793894 C20.366263,73.5793894 12.3417259,69.5218357 12.3417259,60.2776173 C12.3417259,40.4366626 50.0673147,50.9367905 50.0673147,24.4419308 C50.0673147,11.0495883 37.5021818,3.15184977 25.860867,3.15184977 C16.9185499,3.15184977 8.29624824,6.35804177 2.68692174,14.0565254 L9.4555493,18.9292127 C12.5530568,13.5312171 18.4642847,10.0050097 26.1869204,10.0050097 C33.5351985,10.0050097 41.9703213,14.7810886 41.9703213,23.4033902 C41.9703213,44.174201 4.25077057,32.6536466 4.25077057,59.5590922 C4.25077057,73.7907203 16.0792642,80.4385874 28.0345565,80.4385874 C36.3609948,80.4385874 43.0088619,78.1622514 48.8234813,71.4962703 L42.2661846,66.4182901" transform="translate(761.992 93.033)"/>
    <path fill="#656263" d="M42.2661846,66.4182901 C39.0418785,71.200407 34.2597617,73.5793894 28.0285184,73.5793894 C20.3421109,73.5793894 12.353802,69.5339117 12.353802,60.2957314 C12.353802,40.4547767 50.0612767,50.9428285 50.0612767,24.4540068 C50.0612767,11.0616643 37.4840677,3.15788779 25.8427529,3.15788779 C16.9004358,3.15788779 8.29021021,6.3882319 2.69295976,14.0746395 L9.43743522,18.9533648 C12.5590949,13.5553692 18.4642847,10.0231238 26.1446542,10.0231238 C33.5291605,10.0231238 41.9461692,14.7931646 41.9461692,23.4154663 C41.9461692,44.2043911 4.25077057,32.6657227 4.25077057,59.5772062 C4.25077057,73.8088344 16.0853023,80.4385874 28.0285184,80.4385874 C36.3308047,80.4385874 42.9786717,78.1622514 48.7993292,71.5083464 L42.2661846,66.4182901" transform="translate(838.621 186.665)"/>
  </g>
</svg>
