<svg version="1.1" id="Layer_1" xmlns="http://www.w3.org/2000/svg" x="0" y="0" viewBox="0 0 794.4 392.8" xml:space="preserve"><style>.st1{fill:#fff}</style><path class="st1" d="M0 54.4h77.3v13c-.7 0-1.3.1-1.9.1-2.5.2-5.1.2-7.6.5-1.1.1-2.2.5-3.3 1-1.7.7-2.6 2-2.5 3.8.1 1.6.2 3.3.7 4.8 1.1 3.4 2.3 6.7 3.6 10 5.5 14.4 11 28.8 16.6 43.1.2.5.4 1 .8 1.9 10.2-26.3 20.2-52.3 30.3-78.2h20.4c10.1 26 20.2 51.9 30.5 78.1.3-.7.5-1 .7-1.4 6.3-16.4 12.7-32.9 19-49.3.7-1.8 1.2-3.8 1.6-5.7.2-.9.3-1.8.3-2.8 0-2.5-1-3.8-3.3-4.8-2.5-1-5.1-1.1-7.7-1.2h-3.1c-.4-1.3-.5-10.4-.2-12.9 1.3-.3 56.2-.4 58.1 0v12.8c-.7 0-1.4.1-2 .1-2.4 0-4.7.2-7.1.7-4.3 1.1-7.9 3.3-10.7 6.7-2.5 2.8-4.2 6.1-5.6 9.6-3.2 7.9-6.5 15.9-9.7 23.8-9.5 23.4-19.1 46.9-28.6 70.3-.3.6-.6 1.3-.9 1.9h-20.5c-10-24.6-19.9-49.2-30.1-74.2-3.6 8.5-6.9 16.7-10.3 24.8-3.4 8.2-6.8 16.5-10.2 24.7-3.4 8.2-6.7 16.4-10.1 24.6H64.2c-.3-.7-.6-1.3-.9-2C50.7 147.1 38 116.1 25.4 85c-1.2-3.1-2.7-6-4.6-8.8-2.9-4.1-6.6-7.2-11.5-8.4-2-.5-4.1-.7-6.2-.7-.9 0-1.8-.1-2.8-.2C0 63 0 58.7 0 54.4zM794.4 305.2c-2.2 2-4.3 4-6.6 5.8-10.4 8.4-22.3 13.6-35.4 16.1-7.8 1.5-15.8 2.1-23.7 1.3-22.1-2.4-38.6-13.1-49.1-32.8-4.2-7.9-6.5-16.3-7.4-25.2-1-9.9-.4-19.6 2.5-29.1 6.7-22.3 25.1-39.1 47.9-43.7 13.8-2.8 27.2-1.6 39.8 4.6 14 6.8 23 17.9 26.5 33.1 1.6 6.8 1.3 13.7-.3 20.5-.3 1.2-.6 2.4-.9 3.7H712.1c-.1.5-.2.8-.2 1.2 0 7.1.4 14.2 1.9 21.2.7 3.2 1.6 6.3 3 9.2 3.8 8.4 10.3 13.5 19.4 15.3 12.1 2.4 23.5.4 34.2-5.5 4.4-2.5 8.5-5.4 12.2-8.9.5-.5 1-.9 1.6-1.5 3.5 4.8 6.9 9.5 10.3 14.1-.1.4-.1.5-.1.6zm-40.5-64c.2-3.1.3-5.9 0-8.8-.3-2.5-.9-5-2-7.4-1.7-3.6-4.2-6.5-7.9-7.9-7.4-2.8-14.3-1.9-20.4 3.5-2.3 2.1-4 4.6-5.4 7.4-1.7 3.3-2.9 6.8-3.8 10.4l-.6 2.7c13.3.1 26.6.1 40.1.1z"/><path class="st1" d="M296.3 166.4v12.9l-.1.1-.1.1c-24.9 0-49.9.1-74.8.1-.3 0-.7 0-1-.1-.4-1.3-.5-10.1-.1-13 .5 0 1.1-.1 1.6-.1 2.1-.1 4.3-.1 6.4-.3 4.1-.3 6.9-2.5 8.3-6.4 1.1-2.8 1.6-5.8 1.8-8.8.3-4.4.5-8.8.6-13.2V49.2c0-5.3 0-10.6-.9-15.8-.3-2-.9-4.1-1.6-6-1.1-3-3.4-4.9-6.5-5.7-3-.8-6-.7-9-.8-1 0-1.9 0-3-.1V8c19.6-2.4 39.2-4.8 59-7.3V69c.7-.6 1.1-1 1.5-1.4 7.8-8 17.1-13.5 28-15.9 9.5-2.2 19-2 28.3.9 13.3 4.1 22.2 13 27 26 2.5 6.8 3.6 13.9 3.6 21.1v65.9c0 11.5-.1 23.1-.1 34.6v88c0 4.6.3 9.3 1.4 13.8.3 1.3.7 2.6 1.2 3.8 1.4 3.3 3.9 5.3 7.4 5.8 2.3.3 4.7.3 7.1.4h2.3v13.1h-77V312h2.1c2.3-.1 4.6-.1 6.9-.4 3.7-.5 6.2-2.6 7.6-6.1 1-2.4 1.5-4.9 1.8-7.4.6-4.6.7-9.2.8-13.9v-44c0-10 0-20.1.1-30.1 0-20.4.1-40.8.1-61.2v-45.4c0-5.5-.4-10.9-2.1-16.1-.6-1.9-1.4-3.8-2.4-5.6-2.7-4.8-7-7.4-12.4-8.2-10.4-1.5-18.7 2.5-25.4 10.3-4.5 5.3-7 11.5-7.8 18.4-.2 1.9-.3 3.8-.3 5.7 0 11.4 0 22.7.1 34.1 0 4.6.3 9.2 1.3 13.6.3 1.3.7 2.6 1.1 3.8 1.4 3.7 4.2 5.7 8.1 6.2 1.7.2 3.5.2 5.2.3 1.5.4 2.6.4 3.9.4z"/><path class="st1" d="M198.2 275.5c-.6-.4-1.1-.7-1.6-1-5.6-3.4-10.4-7.6-14.1-12.9-10.6-15.3-8.8-35.4 4.4-48.8 6.1-6.2 13.5-10.3 21.7-13 9.4-3 19.1-4 29-3.3 8.2.6 16.2 2.4 23.6 5.9 2.5 1.2 4.9 2.7 7.3 4 .4.2.8.5 1.2.8.5-.4.9-.7 1.4-1.1 5.4-4.4 11.4-7.6 18.2-9 6.7-1.4 13.2-.6 19.1 3 7.8 4.7 10.2 13.2 8.1 20.4-2.2 7.7-9.3 11.7-17.3 9.7-2.7-.7-4.9-2.3-6.5-4.6-.9-1.3-1.6-2.8-2.3-4.3-.5-.9-.8-1.9-1.3-2.9-1.1-2-2.7-2.6-4.8-1.9-1.3.4-2.4 1.1-3.5 2 .3.5.6.9.9 1.3 4.3 6.4 6 13.5 5.7 21.1-.6 14-7.5 24.4-19 32-6.9 4.5-14.5 7.3-22.6 8.7-4.6.8-9.2 1.2-13.8 1.8-6.8.8-13.6 1.8-20.1 3.9-2.1.7-4.1 1.5-6.1 2.5-1.2.6-2.2 1.5-3.1 2.4-1.9 2.1-1.8 4.7.2 6.7.9.9 2 1.6 3.1 2.2 2.9 1.6 6.1 2.2 9.3 2.8 5.1.9 10.3 1 15.4 1.1 10.2.3 20.2 1.2 30.1 3.8 6.3 1.6 12.3 3.8 17.8 7.3 6.8 4.2 12.1 9.7 14.9 17.3 5.1 13.7 2.9 29.5-9.1 41.1-6.2 6-13.6 10-21.6 12.9-6.9 2.4-14.1 3.8-21.4 4.6-8.7.9-17.4.7-26-.1-8.6-.8-17.1-2.5-25.1-5.9-4.9-2.1-9.4-4.7-13.3-8.5-3.3-3.3-5.9-7.1-6.9-11.6-1.8-7.6.4-14 5.9-19.3 4.2-4 9.2-6.4 14.9-7.4.5-.1 1.1 0 1.5.2 4.2 2 8.4 4 12.7 6.1-.5.3-.8.5-1.1.7-1.4.6-2.9 1.3-4.3 1.9-1.6.7-3 1.5-4.2 2.7-2.6 2.6-3.8 5.7-2.8 9.3.4 1.7 1.5 3 2.7 4.2 1.9 1.9 4.2 3.2 6.6 4.4 4.6 2.1 9.4 3.4 14.3 4.2 7.6 1.2 15.2 1.4 22.9.6 6-.6 11.9-1.7 17.5-4.1 2.9-1.3 5.7-2.8 8-5.1 1.8-1.7 3.2-3.7 3.8-6.1.8-3.6 0-7.7-4.1-10.2-2.6-1.6-5.5-2.5-8.4-3.2-4.9-1.2-9.8-1.8-14.8-2.1-7-.4-14-.6-21-1.1-8.7-.6-17.2-2.5-25-6.6-7.7-4.1-13.7-9.9-17.4-17.9-1.8-3.8-2.8-7.8-3-12.1-.2-4.6.8-8.9 3-12.9 3.8-7 9.6-12 16.8-15.3 1.2-.3 2.3-.8 3.6-1.3zm51.1-35.6c-.2-2.4-.3-4.9-.6-7.3-.5-3.9-1.5-7.6-3.5-11-2.9-4.8-7.1-7.5-12.8-7.6-5.8-.2-10.5 2.1-13.7 7.1-1 1.5-1.7 3.3-2.4 5-1.2 3.2-1.7 6.5-1.9 9.9-.4 5.6-.1 11.1 1.6 16.5 1.1 3.5 2.8 6.6 5.4 9.2 5.7 5.6 16.3 5.7 21.9-1 1.6-2 2.9-4.2 3.7-6.6 1.7-4.7 2.2-9.4 2.3-14.2zM461.4 329.9c-18.4-.3-33.9-5.2-47.2-16.2-12.7-10.5-20.7-23.9-23.2-40.2-3.4-22 2.5-41.2 17.9-57.3 9-9.4 20-15.5 32.6-18.7 17.6-4.4 34.8-3 51.1 5.1 18.7 9.2 31.1 24 36 44.4 7.1 29.6-6.2 59.4-33.4 74.2-8.1 4.4-16.7 7.1-25.9 8.1-3 .3-6.1.5-7.9.6zm-30.6-69.3v4.7c.1 7.1.7 14.1 2.4 21 1.2 5 3.1 9.8 6.1 14.1 3.3 4.8 7.8 8 13.5 9.5 3.3.9 6.6 1 10 .8 6.3-.4 11.7-2.8 16-7.4 3.5-3.6 5.7-8 7.3-12.7 2.4-7 3.4-14.2 3.8-21.5.4-7.7.2-15.4-1-23.1-.8-5.2-2-10.3-4.2-15.2-1.6-3.6-3.7-7-6.5-9.8-4.5-4.5-10.1-6.6-16.4-6.9-10.4-.4-18.5 3.4-23.9 12.5-1.7 3-3 6.1-4 9.4-2.3 8.2-3 16.3-3.1 24.6zM679.4 144.8c3.5 4.8 6.9 9.5 10.3 14.2-.4.4-.8.9-1.2 1.3-10.8 10.4-23.5 17.1-38.1 20.4-8.1 1.8-16.3 2.5-24.5 2-25.8-1.7-45.2-17.1-53.8-39.1-4-10.2-5.6-20.8-4.9-31.7 1.6-23.8 12.4-42 33.4-53.7 10.1-5.6 21-8.1 32.6-7.6 9.3.3 18.2 2.3 26.4 6.8 12.9 7 21.3 17.6 24.7 32 1.7 7.1 1.4 14.1-.3 21.2-.3 1.1-.5 2.1-.8 3.3h-75.6c-.1.3-.3.4-.3.6-.2 8.4.4 16.7 2.6 24.8.7 2.4 1.6 4.7 2.6 7 3.6 7.8 9.8 12.5 18.1 14.4 12.4 2.7 24.2.8 35.3-5.4 3.9-2.2 7.4-4.7 10.8-7.6.7-1.1 1.7-1.9 2.7-2.9zm-30.2-49.6c.3-4.7.4-9.3-1.1-13.8-1.4-4.4-3.9-8.1-8.3-10-6.5-2.8-12.9-2.5-18.8 1.6-3.2 2.2-5.4 5.2-7.2 8.6-2.1 3.9-3.5 8.1-4.5 12.4-.1.4-.1.8-.1 1.2 1.3.3 37.9.3 40 0zM610.6 326.4h-20.4c-.3-.6-.6-1.1-.8-1.7-14-31.1-28.1-62.2-42.1-93.3-1.5-3.4-3.2-6.7-5.5-9.7-2.6-3.5-5.8-6.3-10.2-7.5-1.8-.5-3.6-.7-5.5-.9-1.1-.1-2.3 0-3.4 0-.4-1.3-.5-11.2-.1-13.1h76.8c.3 1.3.4 10.9.1 13-.6 0-1.2.1-1.8.1-2.8 0-5.6 0-8.3.7-1.1.3-2.2.7-3.2 1.3-1.2.7-2 1.8-2.1 3.2 0 1.3 0 2.6.3 3.8.5 1.9 1.1 3.8 1.9 5.6 7.6 17.1 15.3 34.1 23 51.2.2.4.4.7.7 1.3.3-.5.5-.8.6-1.1 7.6-16.8 15.1-33.6 22.6-50.4 1-2.2 1.6-4.5 2.2-6.7.3-1.1.3-2.4.2-3.6 0-1.5-.8-2.6-2.1-3.4-1.4-.8-2.9-1.3-4.4-1.4-2-.2-4-.3-6.1-.4h-1.9v-12.9c1.5-.3 55.2-.4 58.4-.2.4 1.2.5 9 .2 12.8-.5.5-1.1.2-1.6.3-2.1.2-4.2.2-6.2.6-4.5.8-8.3 3.2-11.4 6.6-2.7 3-4.7 6.6-6.4 10.3-5.9 13-11.8 25.9-17.7 38.9-8.3 18.2-16.5 36.4-24.8 54.6-.3.6-.6 1.3-1 2zM487.4 72.4h-17.7c-.4-1.3-.5-12.3-.2-15.5 1.5-.3 3-.5 4.5-.8 4.3-.8 8.4-2.1 12.3-4 8.6-4.3 14.1-11 17.1-20 1.3-3.9 2-8 2.4-12.1 0-.3.1-.6.1-.8 1.2-.4 16.3-.5 19.4-.2 0 .6.1 1.3.1 2V54.3c2.7.1 5.1 0 7.6.1h22.4c.3 1.4.4 15.3.2 17.8l-.1.1-.1.1h-29.3c-.1 0-.1 0-.2.1-.4.6-.2 1.3-.2 2v67.3c0 3 .2 6 1 9 .4 1.3.8 2.7 1.5 3.9 1.7 3.3 4.4 4.9 8.1 5 3.3.1 6.4-.6 9.4-2.1s5.6-3.5 8.1-5.6c.8-.7 1.7-1.4 2.6-2.3 2.6 4.2 5.1 8.2 7.6 12.3-1.8 2.5-3.8 4.6-5.9 6.5-8.1 7.4-17.5 12-28.5 13.4-6.5.8-13 .3-19.3-1.7-10-3.2-16.5-10-20-19.8-2.1-5.9-2.8-11.9-2.8-18.1V74.7c-.1-.6-.1-1.3-.1-2.3zM387.3 179.3v-12.9c.9 0 1.8-.1 2.6-.1 2.8 0 5.7 0 8.5-.6 3.5-.7 5.9-2.7 7.3-6 1.2-2.9 1.8-5.9 2-9 .3-4.7.6-9.4.6-14.1.1-12.5.1-25 0-37.6 0-4.8-.3-9.6-.6-14.4-.2-2.3-.7-4.7-1.3-7-1.3-4.7-4.5-7.2-9.3-7.7-2.6-.3-5.2-.3-7.8-.4h-2V56.9c1.2-.6 56.5-6.9 58.9-7.1.1.4.2.7.2 1.1V137c0 4.8.3 9.6.7 14.4.1 2 .6 4 1.1 6 1.5 5.4 4.7 8 10.3 8.6 2.3.2 4.6.2 6.9.3h2v12.9c-1.3.4-78.1.5-80.1.1zM426.8 0c11.4-.1 20.7 9.1 20.5 20.9-.2 11.3-9.5 20.3-21.4 20-10.7-.3-19.8-8.7-19.7-20.7 0-11.6 9.2-20.4 20.6-20.2zM713.6 70.5c-9.7-.1-17.9-6.4-20.1-15.5-2.4-10.2 3.2-20.3 13.1-23.7 10.2-3.5 21.2.9 25.6 10.3 5.5 11.6-1.1 26.1-14.8 28.4-1.3.3-2.6.4-3.8.5zM729 50.3c-.1-1.1-.2-2.3-.5-3.4-2.4-11.5-14.6-15.9-23.4-10.1-5.6 3.7-7.7 9.2-6.9 15.8 1.4 10.5 11.8 15.8 20.7 12.6 6.1-2.2 10-8.1 10.1-14.9z"/><path class="st1" d="M705.9 40.7c1.1-.1 2.1-.3 3.1-.4 2.8-.2 5.6-.4 8.3.1.7.1 1.5.4 2.2.6 1.9.7 2.7 2.3 2.9 4.2.2 2-.6 3.5-2.3 4.5-.5.3-1.1.6-1.8 1 2.4 1.1 3.3 3.1 3.7 5.5.3 1.5.7 2.9 1.1 4.4h-4.8c-.2-.6-.6-1.2-.7-1.9-.3-1.1-.5-2.1-.8-3.2-.5-1.8-1.4-2.6-3.3-2.8-.9-.1-1.8 0-3 0v7.9H706c-.3-1.3-.4-16.5-.1-19.9zm4.7 8.6c1.8.2 3.4.2 5-.4 1.2-.5 1.9-1.4 1.8-2.5-.1-1.2-.7-2.1-1.9-2.5-1.6-.6-3.2-.4-4.9-.1v5.5z"/></svg>