<svg xmlns="http://www.w3.org/2000/svg" viewBox="0 0 292.1 325.8"><g fill="#FFF"><path d="M176.7 183.2c-.9.9-.9 2.4 0 3.4.9.9 2.4.9 3.4 0 .9-.9.9-2.4 0-3.4-1-.9-2.5-.9-3.4 0zM175.5 168.8c-1-.9-2.5-.9-3.4 0-.9.9-.9 2.4 0 3.3.9.9 2.4 1 3.4 0 .9-.9.9-2.2.2-3.2-.1.1-.1 0-.2-.1zM171.8 191.4c.9.9 2.4 1 3.4 0 .9-.9.9-2.4 0-3.4-.9-.9-2.4-.9-3.4 0-.9 1-.9 2.5 0 3.4zM181.4 188c-.9.9-.9 2.4 0 3.4.6.6 1.5.8 2.2.7-.1-1.6-.2-3.2-.1-4.6-.7-.3-1.5-.1-2.1.5zM167.2 177c.9.9 2.4 1 3.4 0 .9-.9.9-2.4 0-3.4-.9-.9-2.4-.9-3.3 0-1 1-1 2.4-.1 3.4zM183.9 201.5c.2-1.4.2-2.8.1-4.3-.9-.4-2-.3-2.7.4-.9.9-.9 2.4 0 3.4.7.6 1.7.8 2.6.5zM180.2 173.6c-.9-.9-2.4-1-3.4 0-.9.9-.9 2.4 0 3.4.9.9 2.4.9 3.4 0 1-1 1-2.4 0-3.4zM175.3 181.8c.9-.9.9-2.4 0-3.4-.9-.9-2.4-.9-3.4 0-.9.9-.9 2.4 0 3.4 1 .9 2.5.9 3.4 0zM179.9 196.2l.3-.3c.1-.1.2-.3.3-.5.3-.9.2-1.9-.5-2.6-.4-.4-.9-.6-1.4-.7-.4-.1-.9 0-1.3.2-.2.1-.5.3-.7.4-.9.9-.9 2.4 0 3.4s2.4 1 3.3.1zM190.5 154.7c-.1-.1-.2-.3-.3-.4-.9-.9-2.4-.9-3.3 0-.9.9-.9 2.4 0 3.3.9.9 2.4 1 3.4 0 .7-.8.8-2 .2-2.9zM183.6 181.6c-.1-1.2-.2-2.3.6-3.3l.3-.3c-.9-.6-2.1-.5-2.9.3-.9.9-.9 2.4 0 3.4.6.6 1.3.8 2.1.7-.1-.3-.1-.6-.1-.8zM194.9 162.4c.9-.9.9-2.4 0-3.4-.9-.9-2.4-1-3.4 0-.9.9-.9 2.4 0 3.4.9.9 2.5.9 3.4 0zM190 163.9c-.9-.9-2.4-1-3.4 0-.9.9-.9 2.4 0 3.4.9.9 2.4.9 3.4 0 .9-1 .9-2.5 0-3.4zM189.8 176.9c.9-.9.9-2.4 0-3.4-.9-.9-2.4-.9-3.4 0-.9.9-.9 2.4 0 3.4 1 .9 2.5.9 3.4 0zM185.1 168.8c-.9-.9-2.4-1-3.4 0-.9.9-.9 2.4 0 3.4.9.9 2.4 1 3.4 0 .9-1 .9-2.5 0-3.4zM181.9 162.5c.9.9 2.4 1 3.4 0 .9-.9.9-2.4 0-3.4-.9-.9-2.4-.9-3.3 0-1 .9-1 2.4-.1 3.4 0-.1 0 0 0 0zM247.7 119.2l-3-1.8c-.1-.1-.2-.1-.3-.2.1.5.3 1.1.7 1.5.7.6 1.8.8 2.6.5zM248.5 116.9c-.8-.5-1.6-1.1-2.4-1.6 0 0-.1.1-.1.2.8.4 1.6.9 2.5 1.4zM206 154.1c-.9.9-.9 2.4 0 3.4.9.9 2.4 1 3.4 0 .9-.9.9-2.4 0-3.4-.9-.9-2.4-.9-3.4 0zM242.2 102.5s.1 0 .1-.1c.7-.3 1.4-.6 2-1-.1-.2-.2-.4-.4-.5-.9-.9-2.4-.9-3.3 0-.7.7-.9 1.6-.6 2.5.1 0 .1 0 .2-.1.7-.3 1.4-.5 2-.8z"/><path d="M45.5 127.4c2.8.5 5 2.4 6.4 2.8-.2 1 .3 2.1 1.5 3.1 0 .8.3 1.5 1 2.3-6.2 7.2-12.4 13.9-9.9 17 1.6 1.9 3.1 2.8 7.8 3.9-2.2 6.5 8.3 4.4 15.8 3.6-5.2 4.7-5.1 8 .3 8.7-8.3 12-7.6 13.8-.2 12.6 2.5-.4 4.6-.8 8.7-1.4 2.9-.5 3.3-1.4 2.3 1-1.2 2.7-1.4 5.5-1.6 8.2-2.6 7.6-.3 9.1 7.7 7.3-.6 2.7 1.7 3.3 3.8 1.6 2.8-1.7 5.6-3.6 8-5.1 2.9-1.8 1.9-1.3 2.3 1.8 3.1 20.4 2.2 28.6 14.7 13.7 1.4-1.6.5-2.3 2.2-.4 1.6 3.2 4.6 3.8 9.1-2.2 1.7-2.2.8-2.1 1.4.6-.3 1.4.1 5.6 1.2 8.8 2 5.8 2.9 4.5 5.4.8 1.7-2.5 3.9-7 5.2-9.8.4-.9 1.3-1.4 1.7-2.1.8.9 1.2 2.2 1.8 3.4.7 1.4 1.7 3.3 2.7 3.8 3.6 1.7 5-2 6.4-4.5 1-1.9 2.4-3.9 3.1-.9 1 4.1 1.2 9.7 3.7 13.2 4.9 6.8 4.5-.8 6.2-3.8 1.6.7 2.7-.9 3.1-4.8 2.3-.9 4.3 3.7 6.6 6.5 3.9 4.8 5.2 3 8-.9.5-.8 1.1-2.7 1.7-3.4 1.8-2.3 2.6-4 3.4-6.9 1.3-4.7 1.1-9.6 1.2-14 8.6 6.8 19.4 12.6 18.6 4 1.8-.7 6.6-5.3 5.2-10.6-.8-2.5-2-4.7-2.8-7.2 6.1 2.2 8.4 1.3 7.8-2.3 7 2.2 14.7-1.9 8.9-5.3 2.1-1 19.9 1.3 13.9-6.8 9.5.4 5.6-8.5 3.2-11.2 4.7 1.2 7.8 1.1 5.1-4.6 5.7 1.5 2.3-3.9.3-5.1.7 0 2.6 0 1.9-1.2.8.2 2.1.8 3.3.9 2.1.2 1.6-1.9.8-3.2-.5-.9-1.3-1.5-2.1-1.9.1.1.1.2.2.4v.1c0-.1-.1-.1-.1-.2-.1-.1-.1-.2-.2-.3-.1-.1-.3-.1-.4-.2-1.4-.5-2.8-.9-4.2-1.2 1.7 1.3 2.5 2.3 2.8 2.8-.5.2-1.8.6-4.8.7-.7 0-1.3.4-1.8.9-.4.6-.6 1.3-.4 2 .4 1.4.7 2.6 1 3.7.4 1.5.8 3 1.1 4.1-.4-.1-1-.3-1.6-.5-.1-.3-.3-.6-.5-.8-.8-.8-2-.9-2.9-.4-1.3-.4-1.9-.6-2.4-.6.2-.1.4-.2.6-.4.9-.9.9-2.4 0-3.4-.9-.9-2.4-1-3.4 0-.9.9-.9 2.4 0 3.4.4.4.9.6 1.5.7h.1c-.6.2-1 .7-1.3 1.3-.6 1.6.5 2.6 1.3 3.4l1.1 1.1c1.4 1.5 4.2 4.5 4.5 5.7-.2.1-.6.3-1.3.5.7-.2 1.1-.3 1.3-.5-.1-.4-.5-1.1-1.1-1.8-.5 0-1.1.2-1.5.7-.5.5-.7 1.2-.7 1.9-1.1.1-2.5.2-4.3.2h-.5c.1-.7-.1-1.4-.7-1.9-.9-.9-2.5-1-3.4 0-.9.9-.9 2.4 0 3.4.2.2.4.4.7.5.5-.9 1.1-1.5 2.1-1.7-1.1.3-1.6.9-2.1 1.8-.1.1-.1.2-.2.4-2.1 3.3-2.9 4-3.5 4.1.4-.1 1-.5 2.2-2.1-.1-.5-.3-.9-.6-1.3-.9-.9-2.4-.9-3.4 0-.5.5-.7 1.1-.7 1.7-1.7-1.2-4.8-3.5-6.6-4.9-2.5-2-7.6-6.9-7.6-6.9l6.4 8.4c1.6.8 4.8 3.3 4.8 3.3s.7.6 3 1.7c.2 0 .5.1.7.1.5.1.9.1 1.3.1h.2c.5.5.7 1-1.1.2-.4-.2-.8-.3-1.1-.5-.9-.1-1.9-.2-3.2-.2h-.6c-1.1 0-2 .8-2.2 1.9-.1.5-.2 1.1-2 1.1-.7 0-1.4-.1-2.2-.3-.1-.3-.3-.6-.5-.8-.8-.8-2.1-.9-3.1-.3-.7-.3-1.4-.6-2-.8.1-.1.2-.2.4-.3.9-.9.9-2.4 0-3.4-.9-.9-2.4-.9-3.4 0-.5.5-.7 1.2-.7 1.8-.2-.1-.4-.1-.6-.1-.5 0-.9.1-1.3.4-.8.5-1.1 1.5-.9 2.4.5 2.1 1.7 4.8 2.9 7.7 1.1 2.5 2.3 5.2 2.6 6.9v.2c.5 1.8.7 2.8.6 3.7l.6.8s-.2-.2-.7-.4c-.1.5-.2.9-.3 1.4l-.2.2c-.1.5-.2.9-.4 1.4-.1.4-.2 1-.4 1.3-.2 0-.5-.1-1-.3-.7-.3-1.3-.5-1.9-.8.5-.9.3-2-.4-2.8-.9-.9-2.4-1-3.4 0-.1.1-.2.2-.2.3-.5-.4-1.1-.8-1.6-1.3.2-.1.4-.2.5-.4.9-.9.9-2.4 0-3.4-.9-.9-2.4-1-3.4 0-.2.2-.4.5-.5.8-.6-.5-1.2-1.1-1.9-1.6.4-.1.8-.3 1.1-.6.9-.9.9-2.4 0-3.4-.9-.9-2.4-1-3.4 0-.5.5-.7 1.1-.7 1.7l-.1-.1c-2.5-1.8-3.2-2.4-4.3-2.4-.7 0-1.4.3-1.9.8-.8.9-.7 2-.6 3.3.1 1.1.3 2.7.1 4.8-.2 2.1-.1 4.5.1 7 .4 5.1.7 10.3-2 14-.2.2-.3.4-.5.6-.1.1-.2.3-.4.5-.1.1-.3.3-.5.4-.1.1-.2.1-.3.1-.8 0-1.9-1-3-2.6.9.4 1.9.2 2.6-.5.9-.9.9-2.4 0-3.4-.9-.9-2.4-1-3.4 0-.4.4-.7 1-.7 1.6-.5-.8-.9-1.6-1.4-2.5.3-.1.5-.3.7-.5.9-.9.9-2.4 0-3.4-.8-.8-1.9-.9-2.8-.4-.4-.9-.9-1.8-1.2-2.6 0-.6-.2-1.2-.7-1.7l-.2-.2-.6-1.4c-1-2.1-1.7-3.6-2.2-4.6.9.8 2.3.7 3.2-.1.9-.9.9-2.4 0-3.4-.9-.9-2.4-1-3.4 0-.6.6-.8 1.4-.6 2.2-.6-.7-1.1-.9-1.8-.9s-1.5.4-1.9 1c-.5.8-.6 1.3 0 3.1l.7 1.9c.3.7.6 1.5.9 2.5 1.9 5 3.2 9.2 1.3 13.8-.5 1.3-1 2.1-1.3 2.7.3-.4.6-1.1 1-2l-.1-.1c-.6-.6-1.3-.8-2.1-.7-.7-1.9-1.5-4.3-2.2-6.6-.5-1.5-.9-2.5-1.4-3.2.4-.1.8-.3 1.1-.6.9-.9.9-2.4 0-3.4-.9-.9-2.4-.9-3.4 0-.4.4-.6.8-.7 1.3-.3-.8-.5-1.9-.6-2.4 0-.1 0-.2-.1-.3.9-.9.9-2.4 0-3.4-.3-.3-.6-.4-1-.6-.4-.7-1-1.2-2-1.2-2.4 0-2.4 1.9-2.5 5.4v3.8c0 2.4-.1 3.6-1.2 4.9-1.1-1.1-2.7-4.9-3.4-6.6-.4-1.1-.9-2.1-1.3-2.9-.4-.8-1.2-1.3-2.1-1.3h-.1c-.9 0-1.7.6-2 1.4-1.2 3-2.7 6.3-4.2 9.5l-.6 1.3c-.4.8-.7 1.6-1 2.3-.1-.3-.3-1.3-.3-1.3-.5-2.8-1.1-5.7-2-8.3-.3-.9-1.1-1.5-2-1.5h-.1c-.9 0-1.7.5-2.1 1.3-1.1 2.3-1.9 3.7-2.5 4.4-.4-2-.7-5.8-.9-11.5 0-1.2-.9-2.1-2.1-2.2h-.2c-1.1 0-2 .7-2.2 1.8-2 9.2-5.7 15.5-10.8 18.3-.9-1.6-2.2-7-2.8-19.3 0-.8-.1-1.7-.2-2.4.7.1 1.5-.1 2-.6.9-.9.9-2.4 0-3.4-.9-.9-2.4-1-3.4 0-.1.1-.1.1-.1.2-.4-.3-1-.5-1.6-.5-1.4 0-2.3.9-3.7 2.2-.8.7-1.7 1.7-2.9 2.6-.4.3-.8.7-1.3 1.1-1 .8-2.3 1.9-3.8 2.9-.1.1-.2.2-.4.3-.7.5-1.4.9-2.1 1.2 0-.1-.1-.1-.1-.2-.9-.9-2.4-1-3.4 0-.1.1-.2.2-.2.3-.2-.2-.4-.5-.6-.9-.2-.3-.2-.6-.3-1 .6-.7.6-1.7.2-2.6.2-.8.4-1.7.7-2.6.1.2.2.4.4.5.9.9 2.4 1 3.4 0 .9-.9.9-2.4 0-3.4-.7-.7-1.7-.9-2.5-.6.6-1.4 1.1-2.5 1.5-3.3 0 0 .4-1 .9-2.1.1-.1.3-.2.4-.3.6-.6.8-1.4.6-2.2.3-.8.5-1.3.5-1.3.2-.5.4-.9.5-1.3.9.8 2.3.8 3.2-.1.9-.9.9-2.4 0-3.4-.6-.6-1.5-.8-2.3-.6-.1-.3-.2-.6-.4-.8-.3-.5-.9-.9-1.5-1 .2-.8 0-1.7-.6-2.3-.9-.9-2.4-.9-3.4 0-.9.9-.9 2.4 0 3.4.1.1.1.1.2.1 1.1-.6 1.8-1 2.5-1.2-.7.2-1.3.5-2.4 1.1-.6.3-1.4.8-2.3 1.2l-9.7 5c-1.1.6-2.1 1-2.9 1.4 0 0 0-.1.1-.1.3-.6.6-1.3.9-2.1.8.3 1.8.1 2.5-.5.9-.9.9-2.4 0-3.4-.2-.2-.5-.4-.8-.5l1.4-4c.4-1 .7-1.9 1.1-2.6.5-1.2 1-2.3 1-3.4.8.2 1.7.1 2.4-.6.9-.9.9-2.4 0-3.4-.9-.9-2.4-1-3.4 0-.4.4-.6.8-.7 1.3-1.1-.6-2.7-.8-4.7-.8h-.5c-.1-.1-.2-.2-.3-.4-.9-.9-2.4-1-3.4 0-.1.1-.1.2-.2.2-2.4-.1-4.6-.4-6.4-1.1-1.2-.5-2-1.1-3-1.7-1.2-.8-2.6-1.8-4.7-2.5-1.5-.5-1.9-1-1.9-1.1-.2-.9 1-3.5 10.7-10.9.8-.7 1.1-1.8.7-2.8-2-4.6-1.7-5.3-.1-6 .5-.2 1.2-.6 1.9-.8 1.1-.3 1.9-1.4 1.7-2.5-.2-1.1-1.1-2-2.3-2h-.4c-.7.1-1.6.2-2.3.2-.9 0-1.8.1-2.6.1-9.2 0-11.9-2.8-12.9-4.7.7-.3 1.7-.5 3-.7 1.7-.2 3.5-.5 4.8-1.5.3-.2.5-.5.7-.9.3-.7 1.4-1.8 5.1-3.4.6-.3 1.2-.5 1.6-.7 1.3-.5 3-1.2 2.6-3.1-.2-.9-1-1.9-2.4-1.9-.4 0-.9.1-2.8.4-1.2.2-2.3.5-3.2.7l-1.5.3c-.3.1-.5.1-.7.1 0-.6-.2-1.3-.7-1.7-.7-.7-1.6-.9-2.5-.6-.6-.9-.8-1.6-.5-2.3.6-1.4 3.3-3.2 9-4.2.5-.1 1.1-.2 1.7-.2.1 0 .2 0 .4-.1-.1 0-.2.1-.3.1-.6.1-1.1.2-1.7.3.1.2.2.4.4.6.9.9 2.4.9 3.4 0 .5-.5.7-1.1.7-1.7 4.3-1.3 6.6-2.1 7.6-3.3-.4-.4-.6-.7-.6-.7l.9.3c.2-.3.3-.6.4-1 .2-1 0-1.8-.6-2.6.5-.1 1-.3 1.4-.6.9-.9.9-2.4 0-3.4-.9-.9-2.4-1-3.4 0-.4.4-.6.9-.7 1.5-.4-.3-.8-.6-1.2-1l-.6-.5c-.3-.3-.6-.5-1-.8.7.1 1.5-.1 2.1-.6.9-.9.9-2.4 0-3.4-.9-.9-2.4-1-3.4 0-.7.7-.9 1.7-.5 2.5-5.6-4.7-7.1-7.1-7.5-8 .7.1 1.4-.1 1.9-.7.2-.2.4-.5.5-.7-.6.1-1.1.2-1.4.3 1.3-.4 4.1-.7 9.4-.7H73.7c.2 0 .4 0 .6-.1-.2.1-.4.1-.7.1h-1.5c.1.3.3.6.6.9.9.9 2.4.9 3.4 0 .9-.9.9-2.4 0-3.4 0-.1-.1-.1-.2-.1-.1-.5-.3-1-.6-1.4-3.5-3.5-5.7-6.2-7-8.6-1.1-2.1-1.4-3.9-.8-5 .7-1.1 2.6-1.3 3.6-1.3h.3c.4 0 .9.1 1.3.2.2 0 .4.1.6.1.4.1.9.2 1.3.3.4.1.8.2 1.3.3l.9.3c.7.3 1.3.5 1.8.8h.1c1.6.6 2.9.9 3.8.9 2 0 2.8-1.2 3-1.7.1-.2.2-.4.2-.6.1 0 .1-.1.1-.1.9-.9.9-2.4 0-3.4-.3-.3-.8-.6-1.2-.7-.5-.9-1.2-1.9-2.2-3.2l-.3-.3c-1.9-1.7-2.8-4-3.7-6.5.8.4 1.8.4 2.6-.2-.8-.4-1.7-.8-2.8-1.2 1.2.5 2.2 1 3.1 1.4 1 .4 1.7.8 2.4 1 .1 0 .2.1.3.1.2.1.5.1.7.2.3.1.5.1.8.1h.3c1 0 1.8-.5 2.3-1.2 0-.1.1-.1.1-.2.9.4 1.9.3 2.7-.4.9-.9.9-2.4 0-3.4-.8-.8-2.1-.9-3-.3-.3-.7-.6-1.5-1-2.3.1-.7-.1-1.6-.6-2.1-.2-.2-.3-.3-.5-.4-.2-.4-.3-.7-.4-1 .2.1.4.1.6.2.2.1.5.1.8.1h.2c1 .1 4.6 1.7 6.5 2.6 1 .4 1.3.6 2 .9 1 .4 1.8.7 2.7.7 1.3 0 2.4-.7 2.9-2 .1-.2.2-.4.2-.6 1.1.8 2.3 1.7 3.7 2.3-1.2-.5-2.4-1.2-3.4-2-.2.8-.1 1.7.6 2.4.9.9 2.4 1 3.4 0 .1 0 .1-.1.1-.2-.1 0-.2-.1-.3-.1.5.1.9.3 1.4.3h.4c2.8 0 3.3-2.8 3.5-4.1.3-1.7.6-2.5 1.3-2.8.5-.2.8-.5 1.1-.9.3-.4.5-.9.8-1.3.5-.1 1-.3 1.4-.6.7-.7.9-1.7.5-2.6.3-.4.5-.9.7-1.3.2-.3.3-.6.5-.9.9.7 2.3.7 3.1-.2.9-.9.9-2.4 0-3.4-.2-.2-.4-.4-.7-.5.4-.5.7-1 1-1.2.5.6 1.5 2.3 3.1 6.7.3.7.4 1.2.5 1.5.5 1.8 1.7 2 2.3 2 .3 0 1.3-.1 1.9-1 .4.5.9.9 1.8.9.4 0 .8-.1 1.2-.3.9.9 2.4.9 3.3 0 .9-.9.9-2.4 0-3.4-.4-.4-.8-.6-1.3-.7l.3-.6c1.2-2.1 2.2-4 2.9-5.5.3-.5.6-1.1.8-1.7.1.2.2.4.2.6.3.9.5 1.8.7 2.6.2 1.1.4 1.8.9 2.4.5.5 1.1.9 1.9.9 2.1 0 2.5-1.9 3-3.8 0-.1.1-.2.1-.3.1-.1.2-.1.3-.2.7-.7.9-1.7.5-2.5.1-.2.1-.4.2-.5.2-.6.5-1.2.9-1.8.9.9 2.4.9 3.3 0 .9-.9.9-2.4 0-3.4-.3-.3-.6-.4-.9-.6.6-.8 1.2-1.7 1.7-2.4.1.5.3 1 .7 1.4.5.6 1.3.8 2 .7-.9-1.7-1.5-2.6-1.9-2.9.6.5 1.6 2.1 3.6 6.5 1.5 3.2 2.6 6.7 3.7 10.4l.3 1.2c.8 2.6 1.4 4.5 3.5 4.5 1.8 0 2.5-1.3 4-4.2l.2-.3c2.4-4.6 3.7-5.9 4.3-6.3.1.2.2.3.4.6.4.6.9 1.5 1.8 2.3.2.2.6.7.7 1.6.1.4.1.7.1.9.1 1.9 1.6 2.4 2.3 2.4 1.1 0 1.7-.7 1.9-1 .1-.1.1-.2.2-.3l.5-.5c.3-.3.7-.6 1-1 .3-.4.6-.8.9-1.1.1-.1.2-.3.3-.4.2.1.4.4.6.7.2.4.6 1.3.8 2.6l.1.8c.1.8.3 1.7.5 2.6.1.4.2 1 .3 1.4.2 1.4.6 4 3.1 4 1.4 0 2.5-1.1 3.4-2.2.1-.1.2-.3.4-.4l.3-.3c1.3-1.5 2.4-3 3.4-4.3.5-.7 1.2-1.7 1.8-2.3 0 .1 0 .1.1.1 1.6 3.9 1.5 7.3 1.4 10.8 0 .5 0 1-.1 1.3-.1 1.6-.1 2.7.8 3.7.5.5 1.2.8 1.9.8.8 0 1.5-.3 2.7-.8.1 0 .2-.1.4-.2 0 .6.2 1.2.7 1.6.9.9 2.4 1 3.4 0 .9-.9.9-2.4 0-3.4l-.1-.1c.7-.4 1.5-.7 2.2-1 .9.5 2.1.4 2.8-.4.3-.2.4-.5.5-.8.9-.2 1.8-.4 2.7-.4h.5c4.2.2 4.8 1.1 4.8 1.2.4.6-.8 3.2-1.6 4.9l-.3.6c-.1.3-.4.9-.8 1.5-.7 1.4-1.7 3.2-2.4 4.8l-.1.2c0 .1-.1.2-.1.3l-.7 2.4c-.1.7 0 1.3.4 1.9.5.8 1.4 1.3 2.5 1.3.3 0 .6 0 .9-.1-.3.1-.6.1-.9.1h-.2c.1.4.3.8.6 1.1.9.9 2.4.9 3.4 0 .6-.6.8-1.5.6-2.2-.2 0-.4.1-.6.1.2 0 .4-.1.6-.1 1.4-.3 3-.5 4.6-.5h.7c2.5.1 4.1.5 4.9.8-.6.8-1.2 1.3-1.7 1.8-1.4 1.3-2.9 2.7-3.4 6.3-.1.6.1 1.3.5 1.8s1 .8 1.7.8c1.3 0 1.9.3 2.2.4-.1.3-.4 1.1-1.3 2.2-.3.4-.6.7-.8.9-.4.4-1.5 1.4-1 2.9s1.9 1.6 2.8 1.7c.2 0 .5.1.9.1 2.8.4 4.1 1.1 4.6 1.5l.6.6c-.1.5-.1 1.3.5 2.1.8 1 2 1.3 4 1.5.1 0 .1 0 0 0h.3c2 .2 3.2 1.1 3.5 1.8.3.8-.4 1.9-.9 2.5-.9 1.1-1.9 2.2-3 3.5-.4.4-.8.9-1.3 1.4-.3.4-.6.7-.9 1-1.1 1.1-2.1 2.2-1.7 3.7.4 1.6 1.7 2.1 3.9 3 2.3.9 6.3 2.5 6.8 4.1.1.3.1.6.1.9.1 0 .1.1.2.1.3.3.3.8-.3.9-.2.9-.9 1.7-1.7 2.4-1.1.9-2.5 1.7-4.2 2.4 0 0-.1 0-.1.1-.6.3-1.3.5-2 .8-.1 0-.1 0-.2.1l-2.7.9c-.6.2-1.2.4-1.6.5-1.3.4-3 .9-2.9 2.8.1 2 1.6 2.3 4.2 2.8h.2c3.6.7 4.4 1.5 4.6 1.6 0 .7.4 1.4 1 1.8.4.3.8.5 1.1.6-.2.4-.3 1-.2 1.4.1.6.5 1.2 1.1 1.5l6.6 4-13.1 4.7c-.9.3-1.4 1.1-1.5 2-.1.9.4 1.8 1.2 2.2 1.6.9 3.1 1.7 4.3 2.5-.9-.5-1.8-1.1-2.8-1.7-.1.7.1 1.5.7 2.1 0 0 .1 0 .1.1-.7.2-1.5.3-2.4.4 3.3 1.2 6.4 1.7 9.5 2.5-1.2-.9-2.8-2.1-5-3.4.6-.1 1.2-.3 2-.3.3-.2.7-.3 1-.4 2 1.3 3.9 2.7 5.3 4-1.3-1.3-3.2-2.7-5.2-4 2.1-.8 4.6-1.3 6-2.9 1-1.1.7-1.1-.2-1.8-.6-.5-.5-1.1 0-1.5 1.2-1.1 4.7-1.9 4.1-3.3.8-.3 1-.6.8-.8.1.2-.1.5-.8.8v-.1c-2-2-4.4-3.6-6.7-5.2-.9-.5-1.8-1.1-2.7-1.6 0-.1.1-.1.1-.2-1.5-1.1-2.9-2.2-4.2-3.4.3-.4.5-1.5 1.2-1.6l.2.2-.2-.2c4.6-.5 5.1-3.2 2.9-4.8 4-1.5 6.5-2.8 4.5-5.2 0 0-.3-.1-.7-.3.9-1.3 1.2-2.9.6-4.8-.8-2.6-4.6-4.2-8.1-5.6-3.6-1.4-3.1-1.2-.5-4.1 1.7-1.8 3.2-3.4 4.4-5 3.6-4.4.3-7.5-4.1-8-5.5-.7-.8-.8-4.3-3.7-1.2-1-3.2-1.7-5.7-2-2.6-.3-2.1 0-.5-1.8 2.6-3 3.1-6.2-2.5-6.3.6-4.2 2.7-4.2 5-7.4 2.6-3.6-6.6-5.1-13.4-3.5-.3.1-1.2.4-2 .7-2.8 1-2-.7-1.1-2.6 1-2.4 2.7-5.4 3.1-6.3 2.5-5.5 4.7-9.4-4.9-10-4.8-.3-8.9 2.5-13.1 4.3-3.8 1.6-3.3 1.8-3.1-2.4.1-3.8.2-7.5-1.5-11.7-2.3-5.5-4.4.7-9 5.8-.3.3-.5.6-.7.8-2.5 3.1-2.1.1-2.7-2.4-.3-1.1-.4-2.2-.6-3.3-.3-1.4-.6-2.5-1.1-3.3-.6-1.1-1.5-1.9-2.8-1.9-.7 0-1.1.4-1.5.9-.3.4-.7 1-1.1 1.5-.4.5-1 .9-1.4 1.4-.8.8-.4.8-.7-.9-.2-1.3-.8-2.4-1.5-3-1.2-1-1.3-2.2-2.3-3.1-.3-.3-.7-.4-1.1-.4-2.1.1-4.4 3.8-6.5 7.6-2.4 4.6-2.2 4.4-3.7-.5-1.2-3.8-2.3-7.5-3.9-10.9-1.8-3.8-3.3-6.8-4.8-7.7-1.8-1.1-3.6 1.1-6.6 5.9-.9 1.4-1.7 2.8-2.3 4.3-1.2 3-1.5 6.6-2.1 5.9-.3-.3-.4-2.3-1.1-4.2-2.7-7.5-3.3-2.1-8.1 6.2-2.3 3.9-1 5.3-2.4 1.5-.9-2.4-1.9-2.9-2.5.4-.5 2.8 0 2.6-1 0-5.3-14.3-6.4-8.6-14 3.8.5.2 1 .4 1.5.7-.7.3-1.2.3-1.5 0l-.3-.3c-.1.1-.2.3-.3.4-3.7 1.5-2 7-4.1 6.7-1.5-.2-3.1-1.2-4.4-2.3-.3-.2-.5-.4-.7-.6-1.3-1.2-1.6-1.8-3.1-2.1-.3-.1 0 .7.2 1.6-5.2-.8-10.3-1.6-15.5-2.4-3.1.1-3.7 2.1-1.8 6.1-1.4 0-2.7.6-4.1.6-4.6-2.4-7.5-3.1-4.9 5-4.3-1.9-7.3-2.7-1.4 11.1-5.5-.3-6.4.9-6.2 2.9-1.6-.1-2.6.6-2.5 3.3-1 .4-1.4 1.1-1.3 2.4-4.2.4-1.9 5.8-.1 10-8.5.4-12.6 3.2-10 6.1-5.9 2.1-6.2 5.2 1 10.3-3.8 5.2.2 7.5.5 10-6.7 2.7-13.5 6.3-11.5 9.3-1.4 1.3-7 6-2.7 5.9.8 0 6.3 2.4 3.6 2.6-3.9-.1-3.7 2.2-1.6 5.2-10.8 1.9-2.6 10.4 4.6 11.6zm107.9 63.5c.1.4.2.9.3 1.5.3 1.3.6 2.5 1 3.4-.4-.9-.7-2.1-1-3.5-.1-.5-.2-.9-.3-1.4z"/><path d="M180.9 208.5c.1-.1.3-.3.4-.5.2-.2.3-.4.5-.6.2-.3.4-.5.5-.8-.4.1-.9.3-1.2.6-.5.4-.7 1-.7 1.6.2-.1.4-.2.5-.3zM199.6 167.2c.9-.9.9-2.4 0-3.3-.9-.9-2.4-1-3.4 0-.9.9-.9 2.4 0 3.4 1 .8 2.5.8 3.4-.1zM84.9 40.4c-.1 0-.2-.1-.3-.1-.3-.1-.5-.2-.8-.3-.1.1-.3.2-.4.3-.9.9-.9 2.4 0 3.4.9.9 2.4 1 3.4 0 .8-.8.9-2.1.3-3-.2 0-.3.1-.5.1h-.2c-.2 0-.5-.1-.8-.1-.2-.1-.4-.2-.7-.3zM210.8 158.8c-.9.9-.9 2.4 0 3.4.9.9 2.4.9 3.4 0 .9-.9.9-2.4 0-3.4-1-.8-2.5-.9-3.4 0zM238.3 157.2c.5-.5.7-1.2.7-1.8-.5-.5-.9-1-1.3-1.4l-.8-.8c-.7-.1-1.4.1-2 .6-.9.9-.9 2.4 0 3.4.9.9 2.4.9 3.4 0zM218.9 167c.9-.9.9-2.4 0-3.4-.9-.9-2.4-1-3.4 0-.9.9-.9 2.4 0 3.4.9.9 2.4.9 3.4 0zM244.8 137.9c.9.9 2.4.9 3.4 0 .2-.2.3-.4.5-.7-.4-.3-.8-.7-1.4-1.2-1-.2-2-.5-3-.7-.3.9-.1 1.9.5 2.6zM243.8 140.2c-.1-.3-.3-.6-.5-.8-.9-.9-2.4-.9-3.4 0-.9.9-.9 2.4 0 3.4.9.9 2.4.9 3.3.1 0-.1-.1-.2-.1-.3-.2-.7 0-1.4.4-2 .1-.2.2-.3.3-.4zM230.2 149.1c-.9.9-.9 2.4 0 3.4.9.9 2.4 1 3.4 0 .9-.9.9-2.4 0-3.4-1-.9-2.5-1-3.4 0zM74 53.1c-.2 0-.4 0-.6-.1l.3.3c.8.8 2 .9 2.9.4-.4-.1-.8-.3-1.2-.3-.5-.1-.9-.2-1.4-.3zM211.1 143c.9.9 2.4 1 3.4 0 .9-.9.9-2.4 0-3.4-.9-.9-2.4-1-3.4 0-.9.9-.9 2.4 0 3.4zM214.6 130c-1-.9-2.5-.9-3.4 0-.9.9-.9 2.4 0 3.3.9.9 2.4 1 3.4 0 .9-.8.9-2.3 0-3.3zM216 138.1c.9.9 2.4 1 3.4 0 .9-.9.9-2.4 0-3.4-.9-.9-2.4-1-3.4 0s-1 2.5 0 3.4zM215.8 144.4c-.9.9-.9 2.4 0 3.4.9.9 2.4.9 3.4 0 .9-.9.9-2.4 0-3.4-.9-.9-2.5-.9-3.4 0zM220.9 133.3c.9.9 2.4 1 3.4 0 .9-.9.9-2.4 0-3.4-.9-.9-2.4-.9-3.4 0s-1 2.4 0 3.4zM220.7 139.5c-.9.9-.9 2.4 0 3.4.9.9 2.4 1 3.4 0 .9-.9.9-2.4 0-3.4-1-.9-2.5-.9-3.4 0zM219.5 125.2s0-.1 0 0c-1-.9-2.5-.9-3.4 0-.9.9-.9 2.4 0 3.3.9.9 2.4 1 3.4 0 .9-.9.9-2.4 0-3.3zM199.8 157.6c.9-.9.9-2.4 0-3.4-.9-.9-2.4-1-3.4 0-.9.9-.9 2.4 0 3.4.9.9 2.5.9 3.4 0zM219 157.4c.9-.9.9-2.4 0-3.4-.9-.9-2.4-.9-3.4 0-.9.9-.9 2.4 0 3.4 1 .9 2.5.9 3.4 0zM228.8 144.3c-.9-.9-2.4-1-3.4 0-.9.9-.9 2.4 0 3.4.9.9 2.4 1 3.4 0 .9-.9.9-2.4 0-3.4zM238.6 138c.9-.9.9-2.4 0-3.4-.9-.9-2.4-1-3.4 0-.9.9-.9 2.4 0 3.4.9.9 2.4.9 3.4 0zM233.7 139.5c-.9-.9-2.4-1-3.4 0-.9.9-.9 2.4 0 3.4.9.9 2.4 1 3.4 0 .9-1 .9-2.5 0-3.4zM224.4 120.3c-1-.9-2.5-.9-3.4 0-.9.9-.9 2.4 0 3.3.9.9 2.4 1 3.4 0 .9-.8.9-2.2.2-3.1-.1 0-.1-.1-.2-.2zM228.6 157.3c.9-.9.9-2.4 0-3.4-.9-.9-2.4-1-3.4 0-.9.9-.9 2.4 0 3.4 1 .9 2.5.9 3.4 0zM223.9 149.2c-.9-.9-2.4-1-3.4 0-.9.9-.9 2.4 0 3.4.9.9 2.4.9 3.4 0 .9-1 .9-2.5 0-3.4zM223.7 162.2c.9-.9.9-2.4 0-3.4-.9-.9-2.4-1-3.4 0-.9.9-.9 2.4 0 3.4 1 .9 2.5.9 3.4 0zM209.6 144.5c-.9-.9-2.4-1-3.4 0-.9.9-.9 2.4 0 3.4.9.9 2.4 1 3.4 0 .9-1 .9-2.5 0-3.4zM214.3 152.6c.9-.9.9-2.4 0-3.4-.9-.9-2.4-1-3.4 0-.9.9-.9 2.4 0 3.4.9.9 2.5.9 3.4 0zM201.5 143.1c.9.9 2.5 1 3.4 0 .9-.9.9-2.4 0-3.4-.9-.9-2.4-.9-3.3 0-1.1.9-1.1 2.4-.1 3.4-.1-.1-.1-.1 0 0zM204.7 149.4c-.9-.9-2.4-1-3.4 0-.9.9-.9 2.4 0 3.4.9.9 2.4 1 3.4 0 .9-1 .9-2.5 0-3.4zM225.6 134.7c-.9.9-.9 2.4 0 3.4.9.9 2.4.9 3.4 0 .9-.9.9-2.4 0-3.4-1-.9-2.5-.9-3.4 0zM203.7 172.4c-.6-1.5-1.1-2.9-1.4-4.1v-.4c-.5.1-1 .3-1.3.6-.9.9-.9 2.4 0 3.4.7.8 1.8.9 2.7.5zM204.5 162.3c.9-.9.9-2.4 0-3.4-.9-.9-2.4-1-3.4 0-.9.9-.9 2.4 0 3.4 1 .9 2.5.9 3.4 0zM229.2 115.4c-.9-.9-2.4-.9-3.3 0-.9.9-.9 2.4 0 3.3.9.9 2.4 1 3.4 0 .9-.8.9-2.3-.1-3.3.1.1.1 0 0 0zM240.3 123.5c.9.9 2.4.9 3.4 0 .9-.9.9-2.4 0-3.4-.9-.9-2.4-1-3.4 0-1 .9-1 2.4 0 3.4zM225.7 128.4c.9.9 2.4 1 3.4 0 .9-.9.9-2.4 0-3.4-.9-.9-2.4-1-3.4 0-.9 1-.9 2.5 0 3.4zM234.2 110.6s-.1 0 0 0c-1-.9-2.5-.9-3.4 0-.9.9-.9 2.4 0 3.3.9.9 2.5 1 3.4 0 .9-.8.9-2.3 0-3.3zM230.6 123.6c.9.9 2.4 1 3.4 0 .9-.9.9-2.4 0-3.4-.9-.9-2.4-1-3.4 0-.9.9-.9 2.4 0 3.4zM243.4 114.2c-.2-.1-.4-.3-.7-.4-.6-.4-1-1.1-1-1.8-.1-.1-.5-.5-1.7-.9-.5.9-.3 2 .4 2.8.8.8 2.1.9 3 .3zM235.4 125c-.9.9-.9 2.4 0 3.4.4.4 1 .7 1.6.7-.1-.3-.2-.7-.2-1 .1-.9.7-1.7 1.5-2l.9-.3c-.1-.2-.3-.5-.5-.7-.9-1-2.4-1-3.3-.1zM235.5 115.4c-.9.9-.9 2.4 0 3.4.9.9 2.4 1 3.4 0 .9-.9.9-2.4 0-3.4-.9-.9-2.4-1-3.4 0zM252 137.5s0-.1-.1-.1l.1.1zM152.8 120c.9-.9.9-2.4 0-3.4-.9-.9-2.4-1-3.4 0-.9.9-.9 2.4 0 3.4 1 .9 2.5.9 3.4 0zM157.7 115.1c.9-.9.9-2.4 0-3.4-.9-.9-2.4-1-3.4 0-.9.9-.9 2.4 0 3.4 1 .9 2.5 1 3.4 0zM153 107c-.9-.9-2.4-1-3.4 0-.9.9-.9 2.4 0 3.4.9.9 2.4 1 3.4 0 .9-.9.9-2.4 0-3.4zM157.9 102.2c-.9-.9-2.4-.9-3.4 0-.9.9-.9 2.4 0 3.4.9.9 2.4 1 3.4 0 .9-1 .9-2.5 0-3.4zM164.3 95.8c.9.9 2.4 1 3.4 0 .9-.9.9-2.4 0-3.4-.9-.9-2.4-1-3.4 0-1 .9-1 2.5 0 3.4zM162.6 110.3c.9-.9.9-2.4 0-3.4-.9-.9-2.4-1-3.4 0-.9.9-.9 2.4 0 3.4.9.9 2.5.9 3.4 0zM144.7 115.2c.9.9 2.4.9 3.4 0 .9-.9.9-2.4 0-3.4-.9-.9-2.4-.9-3.4 0-.9 1-.9 2.5 0 3.4zM148.2 105.6c.9-.9.9-2.4 0-3.4-.9-.9-2.4-1-3.4 0-.9.9-.9 2.4 0 3.4 1 .9 2.5.9 3.4 0zM208.5 186.6c.1-.9 0-2-.6-3.7v-.2c0-.1-.1-.3-.1-.5-.7-.2-1.5 0-2 .4-.4-.6-.8-1.2-1.2-1.7.5-.9.4-2.1-.4-2.9-.6-.6-1.3-.8-2-.7-.5-.6-1.2-1.4-2-2.3 0-.6-.2-1.3-.7-1.8-.4-.4-1-.7-1.6-.7-.9-.9-1.7-1.8-2.5-2.6 0-.5-.3-1.1-.7-1.5-.9-.9-2.4-1-3.4 0-.9.9-.9 2.4 0 3.4.6.6 1.5.8 2.3.6 0 0 .7.8 1.8 1.9-.2.8 0 1.6.6 2.3.6.6 1.4.8 2.2.7.6.7 1.3 1.3 1.9 2-.1.7.1 1.5.7 2.1.5.5 1.3.8 2 .7.1.1.2.2.2.3l1.8 1.8c-.1.7.1 1.5.7 2.1.7.7 1.7.9 2.6.5.1.1.3.2.4.3.1-.1.1-.3 0-.5.1.1 0 .1 0 0zM148.4 96c.9-.9.9-2.4 0-3.4-.9-.9-2.4-1-3.4 0-.9.9-.9 2.4 0 3.4 1 .9 2.5.9 3.4 0zM169 97.2c-.9.9-.9 2.4 0 3.4.9.9 2.4 1 3.4 0 .9-.9.9-2.4 0-3.4-.9-.9-2.5-.9-3.4 0zM149.8 100.7c.9.9 2.4 1 3.4 0 .9-.9.9-2.4 0-3.4-.9-.9-2.4-.9-3.4 0-1 1-1 2.5 0 3.4zM162.8 97.3c-.9-.9-2.4-1-3.4 0-.9.9-.9 2.4 0 3.4.9.9 2.4 1 3.4 0 .9-.9.9-2.4 0-3.4zM167.5 105.4c.9-.9.9-2.4 0-3.4-.9-.9-2.4-1-3.4 0-.9.9-.9 2.4 0 3.4.9.9 2.5 1 3.4 0zM140 110.4c.9.9 2.4 1 3.4 0 .9-.9.9-2.4 0-3.4-.9-.9-2.4-.9-3.4 0-.9 1-.9 2.5 0 3.4zM162.9 91.1c.9-.9.9-2.4 0-3.4-.9-.9-2.4-1-3.4 0-.9.9-.9 2.4 0 3.4 1 .9 2.5.9 3.4 0zM158 95.9c.9-.9.9-2.4 0-3.4-.9-.9-2.4-.9-3.4 0-.9.9-.9 2.4 0 3.4 1 .9 2.5.9 3.4 0zM248.3 97.6c-.1 0-.1 0 0 0l.1-1c0-.3-.1-.6-.1-.8v-.1c-.9-.4-2-.3-2.7.4-.1.1-.2.2-.2.3-2.8 0-7.1-.1-7.8-.1-1.1 0-10.2.1-11.2.1-1.1.1-7.3 1.3-7.3 1.3s1.9.2 3.5.3c1.6 0 9.1-.2 10.7-.1 1.6.1 5.9-.2 7-.2h4.8c0 .6.2 1.2.7 1.7.3.3.7.5 1.1.6.5-.7 1.1-1.5 1.4-2.4zM224.2 78.8c-7.7 1-13.2 4.7-13.2 4.7s5.3-1.1 7-1.7c1.6-.6 13.5-3.2 14.7-3.3 1.1-.1 8.2-3.4 8.9-3.8h-.1c-1.6.7-9.7 3.1-17.3 4.1zM227.5 52c.6.6 1.4.8 2.1.7l.6-.6 1.3-1.3v-.7c-.9-.3-2.3-.6-4.4-.7h-.2c-.2.9-.1 1.9.6 2.6zM172.5 91c.9-.9.9-2.4 0-3.4-.9-.9-2.4-1-3.4 0-.9.9-.9 2.4 0 3.4 1 .9 2.5.9 3.4 0zM112.5 24.1c-.1.1-.2.3-.3.5.1-.2.2-.4.3-.5zM215.4 45.1l.1-.2c.2-.4.4-.8.6-1.3-.9-.6-2.1-.5-2.9.3-.9.9-.9 2.4 0 3.4.4.4.9.6 1.4.7l.1-.2c.1-.8.4-1.6.7-2.4v-.3zM78.7 54.6c-.1.1-.2.1-.3.2-.9.9-.9 2.4 0 3.4.9.9 2.4 1 3.4 0 .3-.3.5-.7.6-1.1.1-.4.1-.9-.1-1.4-.8-.1-1.8-.4-2.9-.9h-.1c-.2-.1-.3-.1-.6-.2zM173.9 92.3c-.9.9-.9 2.4 0 3.4.9.9 2.4 1 3.4 0 .9-.9.9-2.4 0-3.4-1-.9-2.5-.9-3.4 0zM172.7 81.4c.9-.9.9-2.4 0-3.4-.9-.9-2.4-1-3.4 0-.9.9-.9 2.4 0 3.4 1 .9 2.5.9 3.4 0zM182.2 90.9c.9-.9.9-2.4 0-3.4-.9-.9-2.4-1-3.4 0-.9.9-.9 2.4 0 3.4.9.9 2.4.9 3.4 0zM174.1 82.7c-.9.9-.9 2.4 0 3.4.9.9 2.4 1 3.4 0 .9-.9.9-2.4 0-3.4-1-.9-2.5-.9-3.4 0zM209.4 111.1c3.3 1.1 10.4 2.4 10.4 2.4s-6.4-1.6-10.4-2.4zM134.6 140.8c-.9.9-.9 2.4 0 3.4.9.9 2.4 1 3.4 0 .9-.9.9-2.4 0-3.4-.9-.9-2.5-.9-3.4 0zM143.5 100.9c.9-.9.9-2.4 0-3.4-.9-.9-2.4-1-3.4 0-.9.9-.9 2.4 0 3.4 1 .8 2.5.9 3.4 0zM186.9 92.3c-.9-.9-2.4-1-3.4 0-.9.9-.9 2.4 0 3.4.9.9 2.4 1 3.4 0 .9-1 .9-2.5 0-3.4zM188.2 100.4c.9.9 2.5 1 3.4 0 .9-.9.9-2.4 0-3.4-.9-.9-2.4-1-3.4 0-.9.9-.9 2.4 0 3.4zM183.7 86c.9.9 2.5 1 3.4 0 .9-.9.9-2.4 0-3.4-.9-.9-2.4-1-3.4 0s-1 2.5 0 3.4zM178.9 81.2c.9.9 2.4 1 3.4 0 .9-.9.9-2.4 0-3.4-.9-.9-2.4-1-3.4 0-.9 1-.9 2.5 0 3.4zM164 111.7c-.9.9-.9 2.4 0 3.4.9.9 2.4.9 3.4 0 .9-.9.9-2.4 0-3.4-1-.9-2.5-.9-3.4 0zM178.5 106.7c-.9.9-.9 2.4 0 3.4.9.9 2.4 1 3.4 0 .9-.9.9-2.4 0-3.3-1-1-2.5-1-3.4-.1zM143.2 120.1c.9-.9.9-2.4 0-3.4-.9-.9-2.4-1-3.4 0-.9.9-.9 2.4 0 3.4 1 .9 2.5.9 3.4 0zM177.1 102c-.9-.9-2.4-1-3.4 0-.9.9-.9 2.4 0 3.4.9.9 2.4 1 3.4 0 .9-1 .9-2.5 0-3.4zM178.6 97.1c-.9.9-.9 2.4 0 3.4.9.9 2.4 1 3.4 0 .9-.9.9-2.4 0-3.4-.9-.9-2.5-.9-3.4 0z"/><path d="M71.7 92.8c4.9 2 13.3 5.8 14.4 6.4.8.4 1.6 1.5 2.1 2.5-.4-.6-1.3-1-1.3-1S68.2 97 66.7 97.1c-1.5.1 3.4 1.1 5.8 1.9 2.4.8 3.9 1.8 5.5 2.7 1.6.9 5.5 1.5 7.3 1.5 1.8 0 3 .3 3.1-.7v-.2c.2.8.1 1.5-.5 1.9-1.5 1.2-12.5 4.1-12.5 4.1s9.8 2.3 11.6 3.1c1.8.8 1.3 2.8.7 3.9-.6 1.1-12.2 4.7-12.2 4.7s12.5.4 14.3 1.1c.7.3 1.2.8 1.5 1.4-.1 0-.3 0-.4.1-1.5.6-5.7 1.1-8 1.9-2.3.8-11 3.7-11 3.7s7.7-2.3 9.4-2.4c1.6-.1 10.3-1 10.3-1s0-.1.1-.3c0 .1-.1.2-.1.3-.1.3-.1.5-.3.8-.4.7-2.8 3-5.5 4.8-2.7 1.8-5.9 2.9-5.9 2.9 4.2-.7 3.7-.9 6.5-1-.4.9-.2 1.9.5 2.6.9.9 2.4 1 3.4 0 .7-.7.9-1.8.5-2.6 2.2.1 4.1.4 5 .7-.1.7.2 1.4.7 1.9.2.2.5.4.8.5-.3 2-2.1 4.6-3 5.5-1.1 1.1-2.5 2.2-3.8 3.1.5-.9.3-2-.4-2.8-.9-.9-2.4-1-3.4 0-.9.9-.9 2.4 0 3.4.6.6 1.4.8 2.1.7-1.1.8-1.9 1.4-1.8 1.6.3.5 5.9-3.1 8.7-4.3-.1.7.1 1.4.7 2 .1.1.2.1.3.2l-1.6 1.5-.2-.2c-.9-.9-2.4-.9-3.4 0-.9.9-.9 2.4 0 3.4 0 .1.1.1.2.1l-1.6 1.5-.1-.1c-.9-.9-2.4-1-3.4 0-.9.9-.9 2.4 0 3.4 0 0 .1 0 .1.1.9.8 2.3.8 3.2-.1.7-.7.9-1.7.5-2.6 1.2-.8 2.4-1.5 2.9-1.5.8 0 2 .4 3.2.3-.1.1-.3.2-.4.3-.9.9-.9 2.4 0 3.4.9.9 2.4 1 3.4 0 .9-.9.9-2.4 0-3.4-.4-.4-1-.7-1.6-.7.2-.1.4-.2.5-.4.5-.5 1.2-1.4 1.9-2.4-.1.7.1 1.4.7 2 .3.4.8.6 1.2.7-.2.3-.3.6-.5.9-1.4 1.7.8 1.4.8 1.4s3.9-2.4 5.4-2.9c.7-.2 1.5-.2 2.3 0-.4.4-.8.9-1.2 1.4-.9-.9-2.4-.9-3.3 0-.9.9-.9 2.4 0 3.4.2.2.5.4.7.5-.4.5-1 1.5-1.6 2.5-.1-.5-.3-1-.7-1.4-.9-.9-2.4-.9-3.4 0-.9.9-.9 2.4 0 3.4.7.7 1.6.8 2.4.6-.3.4-.6.8-.7 1-.8 1-3.5 7.8-3.5 7.8s.4-.5 1-1.2c.1.5.3 1 .7 1.3.9.9 2.4 1 3.4 0 .4-.4.7-1 .7-1.6 0-.6-.2-1.2-.6-1.6l-.1-.1c-.5-.5-1.2-.7-1.9-.7.5-.7 1-1.3 1.2-1.6.8-1.2 4.1-6.5 5-6.5.7 0-.1 2.1-.5 3.3-.8-.2-1.7 0-2.3.6-.9.9-.9 2.4 0 3.3.3.3.6.5 1 .6.8.2 1.7.1 2.4-.6.9-.9.9-2.4 0-3.4l-.4-.4c.5-1 .8-1.7.8-1.7s.2-.6.5-1.3c-.1.7.2 1.4.7 1.9.9.9 2.4 1 3.4 0 .9-.9.9-2.4 0-3.4-.9-.9-2.4-1-3.4 0-.1.1-.2.2-.2.3.3-.9.7-1.8.9-2.2.3-.6.9-2.3 1-3.6.3.1.5.3.8.4 1.2.8.9 2.7 1.9 4.3.2.4.2 4.2-.5 7.6-.2.9-.5 1.8-.8 2.7-.9-.8-2.3-.7-3.2.1-.9.9-.9 2.4 0 3.4.9.9 2.4.9 3.4 0 .9-.9.9-2.3.1-3.3.4-.6.8-1.3 1.2-1.9.1.1.1.2.2.2.9.9 2.4 1 3.4 0 .9-.9.9-2.4 0-3.4 0 0-.1-.1-.2-.1 1-.7 1.9-1.1 2.2-1 .2.1.3.2.5.2 1.6.7 1.6-.2 2.7 0 2.1.3 1.1-1.1 2.4.1l.1.1c-.5 0-1 .3-1.4.6-.9.9-.9 2.4 0 3.4.6.6 1.6.8 2.4.6.4.3.9.7 1.1 1.3.5 1.2-.4 7.9.2 6.4.6-1.5.6-4.9 1.8-5.7 1.1-.8.6-.9 1.4-2.4.4-.7 1.1-1.5 1.7-2 .7-.4 1.3-.5 1.3-.5s-1.2 7.5-1.6 8.6c-1 2.5-.3 6.8-.3 5.8 0-1.4.4-3.1 1.2-3.7.2-.2.4-2 1-2 .2 0 .1.9.2 1 .4.7 1.2-.6 1.4-2 .2-1.3.1-6.5.1-6.5.4-.5 1.2.4 1.6 1.2 1.2 2.2 1.8 5.3 2 8.2.1 1.2 1.5 1 1.4.3-.2-1.9 1.9-8.6 3.8-10 2-1.5 2 .8 2 .8l.8 11.5c.1.9.3 1.4.4.4.1-1.3.3-4.8.6-5.5.5-1 1.1.4 1.5 1.5.4 1.1 1.3 1.4 1.3 1.4s0-1.9-.1-3.1c-.1-1.2-2.8-5.1-2.7-6.6.2-1.5 2-2.2 3.9-.9 1.9 1.4 5.5 7.7 5.5 7.7s-.1-5.7.2-7.7c.3-2 2.1-4.9 3.7-4.7 1.7.2 1.1 4.1 1.9 6.5.8 2.4 3.2 6.5 3.2 6.5s-.9-2.6-1.2-4.8c-.3-1.5.1-3-.5-3.1-1.5-.4-.7-1.2.7-.3.6.4 2.4 4.6 3.1 5.8 1.1 2 2.4 1.8 1.8.4-1.6-3.2-5-11.1-5.6-11.2-1.3-.4-1.9-2 .2-1.5.5.1 3.1 2.3 3.9 2.9 2.4 1.7 4.8 5.6 6.2 7.6 0 .6.2 1.2.7 1.6.9.9 2.4 1 3.4 0 .8-.8.9-2.1.3-3-.1-.1-.2-.3-.3-.4-.9-.9-2.4-.9-3.3 0-.1.1-.2.2-.3.4-1.3-2.6-3.4-6.4-3.6-7.6-.6-4.6 1.3-5.9 2.6-5.8 1.3.1 2 1.3 2.8 1.6.5.2 1.2-.4 1.3-.3 1 .2 2 .8 1.5 0-.7-1-3.6-3.4-1.7-5 1.8-1.6 10.3 5 12.5 6.2 1.1.6 1.1.4.8-.1.8.2 1.6 0 2.3-.6.9-.9.9-2.4 0-3.4-.9-.9-2.4-.9-3.3 0-.6.5-.8 1.3-.7 2-1.1-1.2-3.5-4.3-4.1-5.7-.7-1.6-.7-4.9.6-5.6 1.3-.7 3 1.1 4.7 2.1.9.6 2.7 2.1 3.8 3.3-.3.8-.1 1.7.5 2.4.9.9 2.4 1 3.4 0 .9-.9.9-2.3.1-3.3 0 0 0-.1-.1-.1-.6-.6-1.5-.8-2.3-.6-2.1-1.5-7.5-5.7-7.5-7.3 0-1.9 1.6-2.1 4.8-2.1 3.2 0 12.3 4.2 12.3 4.2s-.1-.1-.3-.2c.9.5 2.1.4 2.8-.4.9-.9.9-2.3.1-3.2l-.1-.1c-.9-.9-2.4-.9-3.3 0-.9.9-.9 2.3-.1 3.3-1.3-1.1-4-3.3-6.1-5.1-2.9-2.6-4.3-6.4-2.7-6.4 1.7 0 8.3 3.7 10.2 4.2 1.2-1.2-2-1-4-2.9-1.9-1.9-2-3.4-.7-2.7 5.6 2.8 8.4 2.8 7.3 1.8-1.4-1.2-7.6-3.9-10.2-5.3 0 0 .4 1.8-.8-.3-1.2-2.2 5.6-1.1 9.6-.8 4 .3 11.3 3 11.3 3s-14.6-8.4-16.6-9.6c-2.1-1.2.6-.8 2.2-.1 1.7.7 1.5-.2-.3-1.3s-.8-1.8.9-1.9c.4 0 1.6.2 3 .4-.3-.1-.5-.2-.8-.3-2.8-1.1-5.4-1.8-4.3-2.9.9-.8 12.7-.2 16.8-.2 1.2 0-1.1-.6-1.1-.6s-8.8-1.9-12-2.3c-3.2-.4-4.5-2.5-4.8-3.7-.3-1.2 10.7-2.5 9.4-2.5-1.3 0-7 .7-7.8-.9-.8-1.6 17.5-6.2 17.5-6.2s-10.2 1.3-14.7 1.7c-2.4.2-4.7-.8-6.6-2.2.1-.1.2-.1.3-.2.9-.9.9-2.4 0-3.4-.9-.9-2.4-1-3.4 0l-.2.2c-.1-.1-.1-.2-.2-.3-.8-1.9 11.2-11.2 11.2-11.2s-3.6 1.1-7.1 2l-.2-.2c-.9-.9-2.4-1-3.4 0-.3.3-.5.7-.6 1.2-.8.1-1.4.2-1.8.2-2.5 0-5.1-3.1-5.5-5.6-.1-.3 0-.7.2-1.2.6 0 1.2-.2 1.6-.7.8-.7.9-1.9.4-2.8.4-.6.9-1.2 1.4-1.9.9.7 2.2.6 3.1-.2.9-.9.9-2.4 0-3.4l-.1-.1c-.4-.4-.9-.6-1.5-.6s-1.3.2-1.8.6c-1.8.6-3.9 1.3-5.6 1.8 0-.6-.2-1.2-.7-1.7-.9-.9-2.4-1-3.4 0-.7.7-.9 1.6-.5 2.5-1.2-.3-1.8-.9-3.1-2-.3-.3-.4-.8-.4-1.4.9.4 2 .3 2.7-.4.9-.9.9-2.4 0-3.4-.5-.5-1.3-.8-2-.7.4-1.8.8-3.3.4-3.6-.3-.2-1.3.1-2.5.7-.1-.4-.3-.9-.7-1.2-.9-.9-2.4-1-3.4 0-.1.1-.1.2-.2.3.1-.2.3-.4.4-.6.3-.4 1.5-2.8 2.9-5.6.2-.1.4-.2.5-.4.5-.5.8-1.3.7-2 .4-.9.9-1.7 1.3-2.5.9.6 2.1.5 2.9-.3.9-.9.9-2.4 0-3.4-.2-.2-.5-.4-.8-.5.4-.8.7-1.3.7-1.3l-.8 1.3c-.8-.3-1.8-.1-2.4.5-.9.9-.9 2.4 0 3.4l-1.2 2c-.1-.2-.2-.3-.4-.5-.9-.9-2.4-1-3.4 0-.9.9-.9 2.4 0 3.4.4.4 1 .7 1.6.7l-4.3 7.2c-.5.8-.8 2.1 0 1.8.3.2 1.2-1.4 1.9-2.6-.4.9-.2 1.9.5 2.6 0 0 .1 0 .1.1-.6.3-1.2.6-1.5.7-.3.1-.8.1-1.2.1h-.2c-.3-.1-.5-.2-.6-.3-.4-.5.2-1.6-.4-2.5-.2-.3-1.1-.7-1.4-1.1-.2-.4-.2-1.4.1-2.6.1.3.3.6.6.9.9.9 2.4 1 3.4 0 .9-.9.9-2.4 0-3.4-.9-.9-2.3-.9-3.2-.2.3-.8.6-1.6.9-2.3.6-1.3-.4-.7-.6-.5-1.3 1.6-2.4 4.2-3.5 5.7-1.4 1.8-2.7 3.4-6.3 2-2.2-.8-.8-11-1-11.1-.2-.1-4.6 9.8-6.8 10-2.6.3-4.9-1.6-6.2-4.9-1.4-3.5-2-7.9-2.2-10.4.2 7.4-2.2 15.1-5.3 15-2.2-.1-6.2-4.2-8.4-8.4-1.6-3-2.6-6.3-3.2-8.1.5 1.8 1.2 5 1.3 8.2.2 4.4-.8 8.7-1.6 9.2-1.5.9-6-2-7.8-4.6-1.8-2.6-4.5-4.6-4.4-4.5 0 0 .9 1.1 1.3 2.8.5 2.6.6 6.4.5 8.3 0 .8-.2 1.5-.4 2.1l-.9-1.1s-1.3-1.9-2.1-3.1c-.8-1.2-5.6-6.8-2.7-2.1 2.9 4.6 4.2 7.7 4.2 7.7h.5c-.7.5-1.6.7-2.7.5-1.7-.3-5.6-3.4-8.2-5.4.5 0 1.1-.2 1.5-.7.9-.9.9-2.4 0-3.4-.9-.9-2.4-1-3.4 0-.9.9-.9 2.4 0 3.4.2.2.5.4.7.5.6.9 1.4 2.1 2.1 3.5 1.4 2.9 2.2 6.3 2 7.1-.2.8-.5 1.7-1.1 2.5-.4-.5-2.1-2.4-3.4-3.7-.6-.7-2.8-2.8-5.2-4.9.9.9 2.4.9 3.3 0 .9-.9.9-2.4 0-3.4-.9-.9-2.4-1-3.4 0-.9.9-.9 2.4 0 3.3-3.1-2.8-6.3-5.7-6.3-5.7s3.9 5.2 5.2 7.6c1.3 2.4 7.2 8.1 7.2 8.1s0 .4.2.7l-.1.1c-.9.6-5.6-.5-9.7-3-2.3-1.4-4.8-3.2-7-4.9-.1-.5-.3-.9-.7-1.3-.5-.5-1.2-.7-1.9-.7h-.2c-.5.1-.9.3-1.3.6-.9.9-.9 2.4 0 3.4.9.9 2.4 1 3.4 0 .4-.4.6-.9.7-1.5.7.7 1.5 1.4 2.2 2.2-.6 0-1.1.2-1.5.7-.9.9-.9 2.4 0 3.4.9.9 2.4 1 3.4 0 .4-.4.6-.9.7-1.5.3.3.6.6.8.9 3 3.3 4.2 6.2 4.9 7.2.4.7.4 1.3.1 1.8l-.4-.8s-3.9-2-5.4-2.8c-1.5-.8-9-6.9-9-6.9s9.4 8.5 8.7 8.5c-.7 0-1.6 0-.6.8 1.1.8 5.1 2.2 5.1 2.2l.3.1c-1.5.6-3.8.7-6 .1-2.4-.7-5.9-1.6-8.4-2.4-.1-.3-.3-.5-.5-.8-.9-.9-2.4-.9-3.4 0-.9.9-.9 2.4 0 3.4.9.9 2.4 1 3.4 0 .5-.5.7-1.2.7-1.8 2.6 1.4 6.2 3.7 8.8 6.7 1.3 1.5 2 2.8 2.2 4-.1-.3-.3-.4-.6 0-1 1.6-3-.8-5.1-1.9-1.4-.7-6.7-2.2-10.2-3.2.2-.8 0-1.6-.6-2.2-.9-.9-2.4-1-3.4 0-.9.9-.9 2.4 0 3.4.9.9 2.4 1 3.4 0 .1-.1.1-.2.2-.3.1 0 .2.1.2.1 3.1 1.5 10 4.5 8.9 4.5C84.8 86.6 82 86 82 86l9.6 3.2s.9-.1 1.4-.5c-.7 1.7-2.7 3-5.4 4.3-4.4 2.2-14-.6-17.1-1.5-.1.1-.2.3-.3.4.4.3.9.7 1.5.9zm125 51.1c.1.1.2.3.3.4-.1.1-.2.2-.4.3 0 0-.1.1-.1.2-.5-.3-1-.6-1.4-.8-1-.8.5-1.7 1.6-.1zm-105-28.8c-.1 0-.2.1-.4.1-.4-1.9-.6-3.7-.8-5.7.3.4.6.8 1.1 1.3-.5 1.5.4 2.6.1 4.3zm4.9 6.7c-.6.6-.8 1.5-.6 2.3-.9-.7-1.7-1.5-2.2-2.3h-.1c-.2-1-.3-2-.4-3 1.1.9 2.3 1.9 3.6 2.7l-.3.3zm3.4 10.1c-.1-.1-.2-.3-.3-.4-.3-.3-.7-.5-1.1-.6-.5-1-1-2.1-1.5-3.1 1.2.6 2.4 1.2 3.8 1.7.1.2.2.4.4.5.1.1.2.2.3.2.1.9.3 1.8.5 2.7-.8-.3-1.5-.6-2.1-1zm-1.5-6c.5 0 1.1-.2 1.5-.7.4-.4.6-.9.7-1.4.1 0 .2.1.3.2 0 .9 0 1.9.1 2.8-.1.1-.2.2-.2.4-.9-.4-1.7-.9-2.4-1.3zm4.8 19.4c-.6-.2-1.3-.2-1.8.1.5-.7 1-1.4 1.4-1.9.2.2.4.4.4.6.1.3.1.7 0 1.2zm.5-14.8c.9.2 1.7.4 2.6.5-.2.1-.3.2-.4.3-.8.8-.9 2.1-.2 3.1-.3-.1-.6-.2-.8-.3-.5-1.1-.9-2.3-1.2-3.6zm2 7.4l-.2-.4c1.2.3 2.5.6 3.7.8.3.7.5 1.4.8 2.1-1.9-.6-3.5-1.4-4.3-2.5zm4.5 6.8c-.3-.2-.6-.5-.8-.7.3-.4.4-.8.4-1.3.4.1.7.2 1.1.2.1.2.1.4.2.6-.5.4-.7.8-.9 1.2zm3.8.3c-.2-.6-.4-1.2-.6-1.7h1.3c.1.4.3.7.6 1 .9.9 2.3.9 3.2.2.1.4.3.8.4 1.3-1.8-.2-3.5-.4-4.9-.8zm1.8 3.6c1.2.2 2.5.2 3.9.2.2.7.3 1.3.4 2-1.4-.7-2.9-1.4-4.3-2.2zm5.2-3.5c-.3-.7-.7-1.5-1.1-2.1 1.4-.2 2.6-.6 3.7-1.2.2.4.4.9.6 1.3.1.4.3.8.6 1.1.3.5.6 1 1 1.5-.8.1-1.6.1-2.5.1 0 0 0-.1-.1-.1-.5-.6-1.4-.8-2.2-.6zm7 5.4c-.9-.9-2.4-.9-3.3 0-.5.5-.7 1.2-.7 1.9-.4-.1-.8-.3-1.2-.4h.2c-.1-.8-.3-1.6-.5-2.4.3-.1.6-.3.8-.5.2-.2.3-.4.4-.6 1.3-.2 2.6-.4 3.8-.7.5.6 1.1 1.2 1.6 1.7-.3.4-.7.7-1.1 1zm6.5 4.4l.4.3c-2.3-.3-4.6-.8-6.7-1.4.2-.2.4-.5.4-.8l.4.3c.6-.6 1.4-1.2 2.1-1.8 1.3 1.1 2.7 2.2 3.9 2.9l-.5.5zm-.8-7.8c-.1-.5-.3-1-.7-1.4l-.2-.2c.2-.1.3-.3.5-.4.4.6.8 1.1 1.2 1.7-.3.1-.6.2-.8.3zm.3 2.7c-.1-.1-.2-.1-.3-.2.1-.1.2-.1.2-.2 0 .2 0 .3.1.4zm4.4 2.2c0-.6-.3-1.1-.7-1.5-.2-.2-.4-.3-.6-.4.1-.1.2-.1.4-.2.6.5 1.2 1 1.9 1.5-.3.2-.7.4-1 .6zm-1.1-4.6c.5-.3.9-.5 1.3-.7 0 .2-.1.4 0 .6l-.9.3c-.2 0-.3-.1-.4-.2zm1.9-1.9l-.2.2c-1 0-2.1.2-3.3.5-.8-.6-1.5-1.2-2.1-1.7l.1-.1c-.1 0-.1.1-.2.1-.5-.5-1-.9-1.3-1.2.2.5.4.9.7 1.4-.4.1-.8.2-1.3.3-.6-.1-1.2 0-1.8.3-.4.1-.8.1-1.2.2l-.9-.9c.1-.1.2-.2.4-.3.9-.9.9-2.4 0-3.4-.9-.9-2.4-1-3.4 0l-.2.2c-.5-.6-.9-1.1-1.2-1.6h.1c.9-.9.9-2.4 0-3.4-.9-.9-2.4-1-3.4 0-.9.9-.9 2.4 0 3.4.8.8 2 .9 2.9.4.1.6.3 1.3.6 1.9-1 .1-2.6.1-4.4 0-.1-.1-.1-.2-.2-.3-.1-.1-.2-.3-.3-.4l-.1-.1c-.5-.5-1.2-.7-1.8-.7-.6 0-1.1.2-1.6.7-.1.1-.2.3-.3.4-.8-.1-1.7-.2-2.5-.4-.1-.3-.3-.5-.4-.8.7.1 1.3-.2 1.9-.7.3-.3.6-.8.7-1.2 1.2-.2 2.3-.5 3.2-1.1-.7 0-1.9-.1-3.3-.3-.1-.3-.3-.5-.5-.7-.9-.9-2.3-.9-3.3-.1-.6-.2-1.2-.3-1.8-.5l-.3-.3c.3-.1.5-.3.7-.5.9-.9.9-2.4 0-3.4l-.1-.1c1.1 0 2.1-.2 2.9-.5-1.3.1-4-.6-6.9-1.7.3-.8.1-1.8-.6-2.4-.5-.5-1.2-.7-1.8-.7-.1-.5-.2-1-.3-1.4 1.2.3 2.3.4 3.3.1.1.2.2.3.4.5.9.9 2.4 1 3.4 0 .9-.9.9-2.4 0-3.4-.4-.4-.8-.6-1.3-.7.4-1.2 1.2-3.4 2.2-5.5.3.4.6.7.9 1.1-.1.1-.2.1-.2.2-.9.9-.9 2.4 0 3.4.3.3.6.5.9.6-.1.8-.2 1.9.2 2.4.2.3.6.3 1.1-.9.3-.8 1 .1 1.8.8 0 .6.2 1.3.7 1.8 0 .3.1.6.1.6l-2-1.4-.6.5 2.1 2.1c0 .1-.3.4-.5.7-.1-.4-.3-.7-.6-1-.9-.9-2.4-1-3.4 0-.9.9-.9 2.4 0 3.4.9.9 2.4.9 3.4 0 .3-.3.6-.8.6-1.2.3.2.7.4 1 .7 0-.2.6-1.5.6-1.7.8.5 2.2 1.4 3.2 1.9 0 .5-.1 1.9-.2 2.7-.1-.3-.3-.6-.5-.9-.9-.9-2.4-.9-3.4 0-.9.9-.9 2.4 0 3.4.9.9 2.4 1 3.4 0 .6-.5.8-1.3.7-2l1.4.9c.1-.7.2-2.4.2-3.2.3.1.6.2 1 .2.2.1.4.1.6.2.3.8.6 1.7 1.1 2.6-.2.4-.4.7-.6 1 .3.1.7.2 1.3.2 1 1.7 2.4 3.3 3.9 4.2l.1-1c.2 0 .4 0 .7-.1 0 .6.2 1.2.7 1.7.4.4.9.6 1.4.7.8.8 3.8.2 6.4-.9.5.3.9.6 1.3.8.1.1.2.1.3.1.8.6 2.8 0 4.9-1.3.1.1.2.2.3.2-.2.5.1 1 .1 1.5-.1.1-.2.1-.2.2-.9.9-.9 2.4 0 3.4l.3.3c-.6.4-1.3.8-1.9 1.2-.4-.4-1-.6-1.6-.6-.3 0-.6 0-.8.1-.8-.1-1.1.1-1.4.3zm20.6-77.1c-.8.8-.9 2.2-.2 3.1-.4.1-.8.1-1.2.2-.7-1.4-1.4-2.8-2.3-4 .1 0 .2-.1.3-.1.8.2 1.6 0 2.2-.6l.3-.3c.3.4.8.9 1.2 1.6-.2 0-.3.1-.3.1zm2.9 4.2c.4.8.8 1.7 1.1 2.5 0 .2.1.3.1.5-1.2.1-2.5.4-3.8.7-.3-.9-.7-2-1.2-3.1 1.2-.3 2.5-.5 3.8-.6zm-6-.5l-2.1.6c-.2-.4-.5-.9-.7-1.3.5-.8.5-2-.2-2.7.3-.1.6-.3.9-.4.8 1.3 1.6 2.6 2.1 3.8zm-2.8 3.1c.4 1.1.8 2.2 1.1 3.2-.2.1-.5.3-.7.4 0 0-.1 0-.1.1 0-.1-.1-.1-.1-.2-.4-.9-.9-1.9-1.6-2.8.5-.2 1-.4 1.4-.7zm-2.5-.9c-.7-1.1-1.6-2.1-2.4-3.1.2-.1.4-.2.6-.4.1.4.3.7.6 1 .7.7 1.6.9 2.4.6.2.3.3.6.5.9-.5.3-1.1.6-1.7 1zm-2.7-.9c-.5-.5-1.2-.8-1.9-.7.3-.3.7-.5 1-.7.8 1.1 1.6 2.1 2.3 3.2-.1.1-.2.1-.2.2-.2.1-.3.3-.5.4.2-.9 0-1.8-.7-2.4zm-1.2 6.7c.7 1 1.2 1.9 1.7 2.8l-.5.5-.3-.3c-.4-.4-.9-.6-1.4-.7-.2-.3-.4-.7-.6-1 .4-.5.7-.9 1.1-1.3zm1.5-1.5c.7-.7 1.5-1.2 2.2-1.7.1.2.2.4.4.6-.6 0-1.1.2-1.5.7-.3.3-.5.7-.6 1.1-.3-.3-.4-.5-.5-.7zm1-9.9l-2.1 1.2c-.7-.8-1.5-1.6-2.2-2.3.8-.5 1.5-.9 2.2-1.3.6.6 1.3 1.4 2.1 2.4.1 0 .1 0 0 0 .1 0 .1 0 0 0zm-3.2 2.1c-.8.6-1.6 1.2-2.4 1.9-.8-.8-1.6-1.6-2.5-2.3.6-.5 1.3-1 2-1.5.2-.2.4-.3.7-.5.7.7 1.5 1.5 2.2 2.4zm-1.6 8.9c-.7-1-1.5-1.9-2.4-2.8.4-.5.8-1 1.1-1.5l2.4 3c-.4.4-.8.8-1.1 1.3zm.1 3.2zm-10.6 12c-.2-.1-.3-.1-.5-.2.1-.6-.2-1.6-.4-2.2.4.2.9.4 1.3.6-.4.5-.5 1.2-.4 1.8zm-.1-4.4c.3-.7.2-1.5-.2-2.2.6.4 1.1.7 1.6 1.1 0 .6 0 1.1.1 1.5 0 .2 0 .4.1.5-.1-.1-.3-.2-.4-.2-.4-.2-.8-.5-1.2-.7zm-1.3-5.1c.1-.6.2-1.1.4-1.8.4.3.8.7 1.1 1 0 .6.2 1.3.7 1.8.2.2.4.3.6.4v.2c-.8-.6-1.7-1.1-2.8-1.6zm-2 1.3v.7c-.2.1-.4.2-.6.4-.3.3-.5.7-.6 1.1-.2-.1-.5-.1-.7-.2-.1-.9-.2-1.8-.2-2.9.7.4 1.5.7 2.1.9zm-2-2.9c0-.5.1-1 .2-1.5.1-.4.1-.8.2-1.2.9.4 1.6.8 2.3 1.3-.2.8-.4 1.5-.5 2.2-.7-.3-1.4-.6-2.2-.8zm1.6 7.6c.3.2.6.4 1 .5.2.9.4 1.6.6 2.2-.4-.1-.9-.3-1.4-.4l-.2-.2s-.6-.8-1-2.5c.3.1.6.3 1 .4zm-.8-12.5c.2-.8.4-1.5.6-2.2.1 0 .1 0 .2.1 1 .4 1.9.9 2.7 1.3-.3.7-.7 1.4-.9 2-.8-.4-1.7-.8-2.6-1.2zm1.4-4c.4-1 .9-1.8 1.4-2.6.7.3 1.3.7 2.1 1.1.4.2.8.5 1.2.7-.6.8-1.1 1.5-1.6 2.3-.8-.4-1.5-.8-2.2-1.2l-.9-.3zm3 6.3c0-.1.1-.2.1-.4.2-.6.5-1.1.7-1.7 1 .6 1.8 1.3 2.6 1.9-.2.4-.4.8-.5 1.3-.3 0-.7 0-1 .2-.6-.4-1.2-.9-1.9-1.3zm1.7-3.8c.4-.9.9-1.6 1.3-2.3.9.7 1.8 1.4 2.7 2.2-.5.7-.9 1.3-1.3 2-.9-.7-1.8-1.3-2.7-1.9zm1.6 10.4c.3.3.5.6.8.7.4.3.7.4 1 .5-.1.3-.1.5 0 .8-.1-.1-.1-.2-.2-.2-.4-.4-.9-.9-1.6-1.5v-.3zm1.7-2.3c.2-.7.1-1.5-.4-2.2.1-.2.2-.5.3-.7.9.9 1.7 1.9 2.4 2.7-.3.7-.5 1.4-.7 2.1-.2.1-.3.1-.5.2-.1-.8-.5-1.4-1.1-2.1zm2-9.8c-.8-.7-1.8-1.5-2.8-2.2.5-.7 1.1-1.2 1.6-1.7.8.8 1.7 1.6 2.5 2.5-.4.4-.9.9-1.3 1.4zm2.2 6c-.2.4-.5.8-.7 1.1l-.6-.6c.4 0 .9-.2 1.3-.5zm-3.1-12.3c-1.1-.8-2.3-1.4-3.5-2 1-.9 2-1.8 3-2.6.8.6 1.8 1.4 3.2 2.6-.8.5-1.7 1.2-2.7 2zm-2.7.4c.4.3.8.6 1.3.9-.6.6-1.2 1.2-1.8 1.9-1.1-.6-2.3-1.2-3.5-1.7.6-.8 1.3-1.5 2-2.3 0-.1.1-.1.1-.2.6.5 1.2.9 1.9 1.4zm-5.5.6c-1.4-.5-2.8-.9-4-1.1.9-1.3 1.9-2.5 2.7-3.4.9.4 1.9.9 3.5 1.8-.7.8-1.4 1.7-2.2 2.7zm-.8 1.3c-.5.8-1 1.7-1.5 2.6-1.4-.5-2.7-.9-3.8-1.1.4-.9.9-1.8 1.4-2.6.1-.1.1-.2.2-.3 1 .3 2.2.7 3.7 1.4zm-2.4 4.4c-.3.7-.6 1.4-.8 2.2-.6-.2-1.2-.4-1.9-.6-.6-.1-1.2-.3-1.8-.4.2-.8.4-1.6.7-2.3 1.2.3 2.4.6 3.8 1.1zm-2.2 12.4c-.8-.1-1.7-.2-2.6-.2-.1-.8-.2-1.7-.2-2.6 0-.4 0-.8-.1-1.1.9.2 1.8.4 2.8.7 0 1.1 0 2.2.1 3.2zm.3 1.9c.1.7.3 1.2.5 1.7-.7-.1-1.5.1-2 .6-.1.1-.1.2-.2.2h-.2c-.2-.8-.5-1.8-.7-3 .9.2 1.8.3 2.6.5zm-2.2-10.8c1 .2 1.8.5 2.7.8-.3 1-.5 2-.6 2.9-1-.2-1.9-.4-3-.5 0-1.2.1-2.3.2-3.3.2 0 .4 0 .7.1zm-.2 15.8c.1.2.3.4.4.6.4.6.8 1.1 1.2 1.5-.7 0-1.4.1-2.2.2l-.1-.1c-.8-.8-1.9-.9-2.8-.4-.2-.4-.4-.9-.6-1.5 1.4-.2 2.8-.3 4.1-.3zm4.8 3.7c0 .5.1 1.1.4 1.5-1.2-.1-3.1-.1-5.7.7-.1-.1-.2-.1-.3-.2 0 0 .1 0 .1-.1.3-.3.5-.7.6-1.1 2-.4 3.6-.7 4.9-.8zm-6.3 2.6c-1.1.4-2.2 1-3.4 1.7-.1-.3-.3-.6-.5-.8-.3-.3-.7-.5-1.1-.6.8-.4 1.6-.7 2.5-1l.1.1c.6.6 1.5.8 2.3.6 0-.1 0-.1.1 0zm-3.4-8.2c-.4-1.2-.6-2.3-.8-3.3 1.1-.1 2.3-.2 3.6-.2.3 1.1.6 2.2 1 3-1.3 0-2.5.2-3.8.5zm3.1-16.4c-1.3-.1-2.4-.2-3.5-.1.2-.9.4-1.7.6-2.5 1 0 2.2 0 3.6.2-.3.8-.5 1.6-.7 2.4zm-.5 2.1c-.2 1.2-.4 2.3-.5 3.4-.4 0-.9-.1-1.3-.1h-2c.1-1.2.3-2.4.4-3.6 1.1 0 2.2.1 3.4.3zm-.5 5c0 1.5.1 2.8.3 4.1-1.1 0-2.3 0-3.5.1-.2-1.5-.2-3-.1-4.3 1-.1 2-.1 3.3.1zm-3 11.9c.4.9.8 1.7 1.3 2.4 0 .1-.1.2-.1.3-.9.3-1.9.8-2.8 1.3-.4-.9-.8-2-1.2-3.2.7-.3 1.7-.6 2.8-.8zm-3.5-1.2c-.4-1.2-.8-2.5-1.1-3.8 1-.3 2-.5 3.1-.7.2 1.3.5 2.5.8 3.5-1 .3-1.9.6-2.8 1zm-3.1 11.7c.3-.3.6-.7.9-1 .4.6.8 1.1 1.3 1.6 0 0-.1.1-.1.2-.6-.6-1.4-.9-2.1-.8zm1.4 6.1c.4.4.8.7 1.2 1v.4l-1.2-1.2v-.2zm-3.2-10.7c0-.1.1-.2.1-.3.5.8 1 1.6 1.5 2.3-.3.3-.6.6-.8.9-.6-1.1-.9-2.1-.8-2.9zm1.2 10.6l.6.6c-.1.4-.1.9-.2 1.3-.4-.2-.7-.5-1.1-.8.2-.4.5-.8.7-1.1zm-.3-13.1c.7-.7 1.5-1.4 2.8-1.9.4 1.3.9 2.5 1.4 3.5-.8.5-1.5 1.1-2.2 1.7-.7-1.1-1.4-2.2-2-3.3zm5.7-11c-1.1.2-2.3.4-3.3.8-.4-1.6-.7-3.1-.9-4.4 1.3-.3 2.6-.7 4.1-.8v1.6c0 1 0 1.9.1 2.8zm-2.6 15.9c.2-.2.4-.4.7-.6-.1.7.1 1.4.7 2l.1.1c-.1.1-.2.1-.3.2-.4-.5-.8-1.1-1.2-1.7zm2.6-21.8c-1.6.2-3 .4-4.3.8-.1-1.4-.1-2.6 0-3.6 1.3-.3 2.8-.7 4.7-.8-.2 1.1-.3 2.3-.4 3.6zm-3.5 13.2c-1.2.6-2.2 1.3-3.2 2.1-.9-1.6-1.6-3.1-2.1-4.3 1.4-.8 2.8-1.4 4.3-2 .3 1.4.6 2.9 1 4.2zm-4 8.7c.2.4.5.9.8 1.4-.1.1-.2.2-.2.3-.2-.3-.5-.6-.7-.9 0-.3 0-.5.1-.8zm-.4-2.7c.3-.3.6-.7.9-1-.2.3-.4.6-.6 1h-.3zm-1.4-9.6c-.7-2-1-3.6-1.2-4.8 1.5-.7 3.3-1.5 5.1-2 .1 1.3.2 2.7.4 4.1 0 .2.1.3.1.5-1.6.5-3.1 1.3-4.4 2.2zm.9 5.9c.1.3.3.6.4.9-1 .9-1.8 1.8-2.4 2.7-.4-.6-.7-1.1-1-1.6-.8-1.4-1.3-2.5-1.8-3.5 1.1-.9 2.2-1.7 3.3-2.4.4 1.3.9 2.6 1.5 3.9zm-1.9 6.7c.3.5.6.9 1 1.4-.2.8-.3 1.7-.3 2.5l.8-.4c0 .1.1.1.1.2-.4.6-.8 1.3-1.1 1.9-.7-.7-1.3-1.4-1.8-2-.3-.4-.5-.7-.8-1 .5-.9 1.1-1.9 1.8-2.8.2.1.2.1.3.2zm1.6-.7c-.2-.3-.4-.6-.6-.8.3-.3.5-.6.8-.8l.3.6c-.2.3-.3.6-.5 1zm1.2 6.1c.4.5.9 1 1.3 1.6-.3.4-.5.9-.7 1.3l-.4-.4c-.1-.2-.2-.4-.4-.6l-.2-.2-.3-.6c.2-.3.5-.7.7-1.1zm4.3 10.3l.1-.1c.1-.1.3-.3.4-.5l.9.6v1.4c-.6-.5-1-1-1.4-1.4zm2.5.7c-.1-.1 0-.1 0 0 .1-.1 0-.1 0 0 0-.1 0-.1 0 0zm3.1 4.6v1.7c-1-.6-2-1.2-2.7-1.8.6.1 1.2 0 1.7-.4.3.2.6.4 1 .5zm-.3-1.3c.1-.2.2-.4.2-.6v.7s-.1 0-.2-.1zm3.8 6.4c.6.2 1.3.3 1.9.4-.4.4-.6.8-.7 1.3 0 0-.1 0-.1-.1-.4-.6-.8-1.2-1.1-1.6zm10.3 5.7c.2-.1.4-.1.6-.2.5.5 1 .9 1.5 1.4-.5.1-1.2.3-1.9.4.2-.6.1-1.1-.2-1.6zm1.1-1.7c-.7-.5-1.3-1-1.9-1.5.5-.3 1-.6 1.3-.9-.1.7.1 1.5.7 2.1.1.1.2.2.3.2-.2 0-.3 0-.4.1zm-1.5.4c-.2.1-.5.1-.7.2-.8-.3-1.8-.2-2.5.4-1 .1-1.8.1-2.5-.1 0 0 0 .1-.1.1l-.6-.6c.6 0 1.3-.2 1.8-.7.1-.1.1-.2.2-.2 1.1-.1 2.1-.3 3.1-.7.3.6.8 1.1 1.3 1.6zm13.7 12.8c-1.1-.5-2.1-1.1-3.1-1.6.9-.6 1.6-1.2 2.2-1.8.6 0 1.1-.2 1.6-.7.3-.3.5-.7.6-1.1.6 1 1.6 2 2.8 2.9-1.3 1-2.7 1.7-4.1 2.3zm5.3-1.4c.8.5 1.6.9 2.5 1.4-1 .8-2.1 1.5-3.1 2.2-.8-.3-1.6-.6-2.4-1 1.1-.9 2.2-1.8 3-2.6zm-3.2 5.5l-.5.2c-1.1.2-2.5-.1-4-.7.6-.3 1.3-.6 1.9-.9.9.5 1.8 1 2.6 1.4zm-3.6-14.3c.4-.3.8-.6 1.2-1 .5.2.9.4 1.4.6-.6.4-1.1.7-1.6.9-.3-.1-.6-.3-1-.5zm1.2-2.4c-.7-.2-1.5-.5-2.2-.9l.1-.1c.5.5 1.2.7 1.9.6.1.1.3.2.4.2l-.2.2zm-1.2.8c-.3.2-.7.5-1.1.7-.3-.1-.6-.1-.9-.2-.1-.2-.2-.5-.4-.7.3-.2.5-.4.7-.7.5.3 1.1.6 1.7.9zm-5 13.2c.8.2 1.7 0 2.3-.6.2-.2.3-.4.4-.6.3.3.7.6 1 .8-1 .3-2 .6-3 .8-.2-.1-.4-.2-.7-.4zm2 6.2H141c-.2-.9.4-1.6.1-2.5.2-.1.3-.2.5-.3 3.2 2 6.4 3 7.6 2 .1 0 .3-.1.4-.2.6-.4 1.3-.8 2-1.3 1.1.4 2.1.8 3.2 1.1-3.9.8-8.1 1.3-12.4 1.2zm21-3.7c-1.8.4-6.3-.1-8.8-.8l2.4-2.1c3.1 1.2 6.2 2 8.5 2.1-.7.2-1.4.5-2.1.8zm4.3-3.7l-.1-.1c-2.2.6-5.6.1-8.9-.7.8-.8 1.5-1.7 2.1-2.5 2.7.9 6.2 1.3 9 1.3-.7.6-1.4 1.4-2.1 2zm2.7.4c.6-.8 1.2-1.7 1.8-2.6.8-.1 1.5-.2 2-.3-.3-.4-.7-1-1-1.6.7-1.4 1.3-2.8 1.7-4.1.7-.2 1.5-.4 2.2-.7h.2c0 1 .1 3.1.2 4.4-2.2 1.9-4.6 3.5-7.1 4.9zm9.1-16.2c1.4-.5 2.9-1.2 4.3-2v1.9c-1.2 1-2.7 1.9-4.3 2.8v-2.7zm.5 9.3c-.1-1.2-.2-2.8-.2-3.4 1.1-.5 2.8-.4 4.2-.5-1.3 1.4-2.6 2.7-4 3.9zm8.9-10.5c-1-.6-2.1-1.4-2.7-1.5v-.6c1.5-1 3.2-1.1 4.6-1.1-.6 1.1-1.3 2.1-1.9 3.2zm-2.8-4.9c0-.8 0-1.6.1-2.3 1.1-.7 2.2-1.5 3.2-2.3l-.1.6c-.4 1.3-1.6 2.7-3.2 4zm10.6-20.7v.5c0 1.1-.1 2.2-.3 3.2h-.2c-.3 1.7-3 4.3-5 6.5-.1-1.1-.3-2.2-.5-3.3 2.6-2.2 4.8-4.8 6-6.9zm-1.3-3.4c-.7 2.4-2.7 5.4-5.1 8.2-.3-1.1-.6-2.2-.9-3.2 2.1-2.2 4.2-5.3 5.6-8 .3 1 .5 2 .6 3-.1-.1-.1-.1-.2 0zm-51.1-48.2c8.9.1 17.3 2.4 24.7 6.2 0 .6.2 1.3.7 1.8.8.8 2.1.9 3 .3.6.4 1.1.7 1.7 1.1-.9.9-.9 2.4 0 3.3.9.9 2.4.9 3.4 0 .2-.2.3-.4.4-.6.6.5 1.1.9 1.7 1.4-.3.1-.5.3-.8.5-.9.9-.9 2.4 0 3.4.9.9 2.4 1 3.4 0 .3-.3.4-.5.5-.9.5.6 1.1 1.1 1.6 1.7-.3.1-.5.3-.8.5-.9.9-.9 2.4 0 3.4.9.9 2.4 1 3.4 0l.3-.3c.4.5.8 1.1 1.1 1.6-.9.9-.9 2.4 0 3.4.7.7 1.6.9 2.5.6 1.7 3.1 3 6.4 4 9.8-.6-.1-1.3.1-1.8.6-.3-.3-.5-.7-.8-1 0 0-.2-.5-.3-.8.6-.9.5-2.2-.3-3-.9-.9-2.4-1-3.4 0-.9.9-.9 2.4 0 3.4.9.9 2.4.9 3.4 0l.2-.2c.1.3.3 1 .7 2.2-.5.9-.3 2 .4 2.8.2.2.3.3.5.4 0 2.8-2.5 6.6-5 9.6-.4-.8-.8-1.5-1.3-2.1 0-.5-.3-1.1-.7-1.5-.9-.9-2.4-1-3.4 0-.9.9-.9 2.4 0 3.4.9.9 2.4.9 3.4 0 .4-.4.6-.9.7-1.4.2.7.3 1.6.5 2.6-1.3 1.5-2.5 2.8-3.1 3.5 1.1 0 2.2-.6 3.4-1.5.2 1.2.3 2.5.4 3.9-2.9 3-5.9 5.5-7.4 6 2.1 0 4.9-1.6 7.6-3.8.1 1.3.2 2.7.2 3.9-.8.8-1.7 1.6-2.6 2.4 0-.3.1-.6.1-.9l-.9 1.5c-3.2 2.7-6.3 4.8-7.8 5.4 1.9.3 4.2-.4 6.6-1.7-.2.9-.4 1.9-.5 2.9-1.4 1-2.9 1.9-4.4 2.7.1-1.6.2-3 .4-3.8-.9 1.3-1.6 2.9-2 4.7-1.7.9-3.2 1.5-4.2 1.9 1.2.1 2.5-.1 3.9-.5-.2 1-.3 2.1-.4 3.2-.4.2-.7.3-1.1.5-.1-.1-.1-.2-.2-.3-3.4 2.4-7.8 2.2-10.4 1.9.8.6 1.8 1 2.9 1.2-1.4.4-2.6.7-3.3.7 2.1 1.1 5.4.9 8.9 0-.5.7-1.1 1.6-1.7 2.5-2.2 1.8-6.7 1.3-10.5.5.6-.9 1-1.8 1.2-2.6-.5.5-1.3 1.4-2.4 2.3-1.8-.5-3.4-.9-4.2-1.2.5 1 1.5 1.8 2.8 2.4-.9.8-1.9 1.6-2.9 2.4l-3.3-1.2c.4-.6.6-1.1.7-1.7-.5.5-1.1.9-1.7 1.3-1.8-.8-3.2-1.6-3.9-2.2.2-.8-.1-1.6-.6-2.2l1-.6c-.1-.1-.2-.2-.4-.3l.9-.6c.9.9 2.4 1 3.4 0 .3-.2.4-.5.5-.9.1-.2.1-.5.1-.7 0-.6-.2-1.2-.6-1.7.1-.1.2-.3.4-.4 1.1.3 2.2.5 3.4.6-.2.7-.4 1.4-.5 2.1l1.8-.3c.1-.6.2-1.2.4-1.8 1.1 0 2.1-.1 3.1-.2 0 .2-.1.3-.1.5l1.8-.3c0-.2.1-.4.1-.6.9-.3 1.5-.8 1.7-1.3-.6-.3-.5-1-1-1.4 0-.1.1-.3.1-.4 2-.3 3.7-1 4.3-1.8.2-.3.4-.6.4-1 .1-.4.3-.8.4-1.2 3-1.1 5.4-2.7 5.4-4-.6-.1-.7-.8-1.4-1-.5.9-1.8 1.8-3.5 2.6.1-.7.3-1.4.4-2.1 2.1-.8 4.1-1.8 5.2-2.8l.7.7c.7-1.7.7-3.8.5-5.9.4-.4.7-.7.9-1-.1 0-.1 0-.2-.1.9-.9.9-2.4 0-3.4l-.3-.3c.1-.2.3-.4.4-.5-.6-.1.8-4.3.2-4.4-.4 1.3-1.8 3.2-3.3 4.9-.1.1-.2.1-.3.2-.2.1-.3.3-.4.5-1.3 1.4-2.6 2.6-3.1 3 .9 0 2-.4 3-1 .1.3.3.6.5.9.3.3.6.5 1 .6-.5.7-1.1 1.3-1.9 1.9-.1-.4-.3-.7-.6-1-.9-.9-2.4-1-3.4 0-.9.9-.9 2.4 0 3.4-.8.4-1.5.7-1.9.9.6.3 1.4.2 2.3 0-.2.8-.3 1.6-.5 2.4-.3.1-.5.2-.8.3.2-.8-.1-1.6-.6-2.2-.9-.9-2.4-1-3.4 0-.9.9-.9 2.4 0 3.4-.3 0-.6.1-.8.1.4.2.8.3 1.3.3.9.5 1.9.4 2.7-.2.4-.1.9-.2 1.3-.3-.2.8-.4 1.6-.7 2.4-.7.3-1.4.5-2 .7.1-.2.2-.4.3-.5-.3.2-.5.4-.8.7l-2.1.6c.1-.7-.1-1.6-.7-2.1-.9-.9-2.4-1-3.4 0-.9.9-.9 2.4 0 3.4.2.2.5.4.9.6-.5.5-1 1-1.4 1.7h-.5c-.1-.3-.3-.5-.5-.7-.4-.4-.9-.6-1.4-.7h-.3c-.6 0-1.1.2-1.6.7-.5.5-.8 1.3-.7 2L152 134c-1.1-.1-2-.3-2.7-.5.2-.3.3-.6.5-.9-.2.2-.5.5-.9.8h-.1l.1.1c-.4.3-.8.7-1.3 1.1h-.1c.1 0 .1-.1.2-.1.9-.9.9-2.4 0-3.4-.9-.9-2.4-.9-3.4 0-.8.8-.9 2-.4 2.9-.1.1-.3.2-.4.3-1.1-.6-2.1-1.3-3.1-2.1 0 .9.8 1.8 2.1 2.7-.3.2-.6.3-1 .5-.5-.1-1.1-.1-1.6.2-.2.1-.4.2-.6.4-.1.1-.3.3-.4.5 0 0 0 .1-.1.1-.5.2-.9.4-1.4.6-.6-.4-1.3-.9-2-1.4.3-.2.6-.3.9-.5.3 0 .6-.1.8-.2.2-.1.5-.2.7-.4 0 0 0-.1.1-.1.1-.2.3-.3.4-.5.1-.2.2-.5.2-.8.1-.7-.1-1.4-.7-1.9-.9-.9-2.4-.9-3.4 0-.2.2-.4.5-.5.7-.6.2-1.4.4-2.4.7-.7-.6-1.2-1.1-1.5-1.5.1.5.4 1.1.8 1.7-.6.1-1.3.3-1.9.3 0-.7-.2-1.3-.7-1.8l-.2-.2c.2-.1.5-.2.7-.3-.9 0-2.8-.6-4.8-1.4.6-.9.5-2.2-.3-3-.5-.5-1.2-.7-1.8-.7l-1.2-.6c-.3-1.2-.7-2.2-1.3-3v.2c-.1-.1-.1-.2-.2-.3.5.1 1 .1 1.5.1-.9-.4-2.9-1.7-5-3.5-.2-.3-.3-.7-.5-1 0 .2.1.4.1.6l-.5-.5c-.1-.3-.2-.5-.4-.7 1.2.6 2.2 1 2.9.9 2.2-.4-1-1.2-3.6-2.6 0-.4 0-.7.1-1.1 1.7 1.4 3.5 2.4 4.8 2.5-.3-.1-.6-.3-1-.6.3 0 .6-.1.9-.2.5.2.9.4 1.3.5 1.9.4 1.1-.3-.3-1.3.6-.9.5-2.2-.3-3-.9-.9-2.4-1-3.4 0-.4-.4-.9-.9-1.3-1.4 0 0 .1 0 .1-.1.6.4 1.2.7 1.8.7-.3-.3-.8-.8-1.3-1.5.1-.4.2-.7.2-1.1l.5-.5c1.4 1.5 2.7 2.5 3.7 2.9 2.8 1 .1-.9-1.9-3-.2-.2-.4-.5-.7-.8.4-.3.7-.6 1.1-.9.5 0 1-.3 1.5-.7.2-.2.3-.4.5-.6 2.1-1.3 4.2-2.2 5.5-2.6-.7.9-.7 2.3.2 3.1.9.9 2.4.9 3.4 0 .9-.9.9-2.4 0-3.4-.1-.1-.3-.3-.5-.4 1-.2 2-.5 2.6-.7.9.5 2 .3 2.8-.4.7-.7.9-1.7.5-2.6-.1-.1-.1-.2-.2-.4-.1-.1-.2-.3-.3-.4-.9-.9-2.4-1-3.4-.1-.6 0-1.2-.1-1.8-.1-.3-.2-.7-.5-1-.7.5 0 1.1-.2 1.5-.7.1-.1.3-.3.4-.5h.1c.7.9 1.4 1.3 2 1 .2-.1.3-.3.3-.6 2.1.4 3.4.8 3.4.8s2.6 1.7 3.2.6c.2-.4.1-.7-.3-1 .1-.1.3-.2.4-.3.2-.2.3-.4.4-.6 0 0 .1 0 .1.1 0-.1.2-.3.4-.7.3-.4.1-.9-.5-1.4-.1-.2-.3-.5-.5-.7-.3-.3-.6-.4-.9-.6v-.1s-.1-.5-.2-1.3c.8.8 1.2 1.3 1.2 1.3s1.8 2.9 2.7 2.2c.3-.2.4-.6.3-1 .1.1.1.1.1.2.6.2.7.2.7 0-.7-.6-.1-.2 0 0 .1.1.3.2.4.4.6 0-.1-.6-.4-1.9.4-.1.7-.3 1-.6.9-.9.9-2.4 0-3.4-.2-.2-.5-.4-.7-.5.1-.2.1-.3.2-.5.5.8 1 1.4 1.4 1.7.4.3.7.5.9.7-.1.6-.2 1-.1 1.2.1.8 2.3-2.2 2.9-3.7 0-.1.1-.2.2-.3.1-.1.1-.1.2-.1.3-.3.4-.6.6-.9.3-.3.6-.7 1-1.1.3.6.5 1.1.7 1.5.2.5.3.9.5 1.2-.5.1-1 .3-1.4.6-.9.9-.9 2.4 0 3.4.9.9 2.4.9 3.4 0 .9-.9.9-2.4 0-3.4-.1-.2-.3-.3-.5-.4.2-.4.2-.8.2-1.1 0-.3-.7-2.1-1.3-3.5.3-.3.6-.5.9-.8.3-.1.6-.3.8-.5l.3-.3c.6.3 1.3.1 1.4-.5 0-.1 0-.3-.1-.4.1-.1.2-.1.3-.2.2.7.3 1.3.3 1.7 0 .2.1.4.3.5-.5.1-.9.3-1.3.6-.9.9-.9 2.4 0 3.4.9.9 2.4 1 3.4 0 .9-.9.9-2.4 0-3.4-.3-.3-.7-.5-1.1-.6.3-.1.5-.3.6-.5.2-.4-.3-.8-.4-1.9 0-.3-.1-.6-.2-.8.6-.3 1.3-.7 1.8-.9.1.2.1.4.2.6-.4.9-.2 1.9.5 2.6.9.9 2.4.9 3.4 0 .9-.9.9-2.4 0-3.4-.7-.7-1.6-.9-2.5-.6.2-.1.4-.2.6-.2.9-.3 2-.6 3.2-.7.5 1.4.9 2.7 1 3.8.1.6.1 1.3.1 1.9-.4.1-.8.3-1.1.6-.9.9-.9 2.4 0 3.4.9.9 2.4 1 3.4 0 .9-.9.9-2.4 0-3.4-.2-.2-.5-.4-.8-.5 0-1.4-.3-3.3-.8-5.1.6 0 1.3-.2 1.8-.7.1-.1.2-.3.3-.4 2.9-.1 5.4 0 5.4 0l-.5-.1s-1.8-.4-4.5-.6c.2-.8 0-1.6-.6-2.2-.9-.9-2.3-.9-3.3-.1l-.3-.6c3.2-.2 6.1-.1 6.1-.1l-1.3-.6s-2.3-.5-5.5-.6c.5-.9.3-2-.4-2.8-.6-.6-1.4-.8-2.2-.7-.9-1-1.6-1.7-1.8-1.9.2-.8 0-1.6-.6-2.2-.9-.9-2.4-1-3.4 0-.7.7-.9 1.6-.6 2.4-.3-.3-.7-.6-1-.9l-1 .2c.4.4.8 1 1.3 1.7-.6.2-1.2.5-1.9.7h-.4c-.7-.9-1.4-1.7-2.1-2.3l2.4-1.2-1.4-.3s-.8.1-2 .6c-.5-.3-1-.6-1.4-.6l-1.7-.1c.6.5 1.1.8 1.6 1.3-.7.3-1.5.7-2.4 1.2-1.2-1.1-2.4-2-3.4-2.7 1.3-1 2.3-1.7 2.3-1.7h-1.1s-.9.4-2.2 1.2c-.5-.2-.9-.4-1.2-.4l-1.7-.1c.7.4 1.3.8 1.9 1.2-1 .7-2.2 1.6-3.4 2.7-1.6-.7-3-1.2-3.9-1.4.6-.7 1.1-1.1 1.1-1.1l-1.1.1s-.4.2-1.1.7l-1.4-.1c.3.2.7.3 1 .5-.9.7-2.1 1.9-3.3 3.5-1-.2-1.7-.3-1.8-.3l-1.9.3c.9.4 1.9.6 3 .9-.6.9-1.1 1.9-1.7 3.1-1.5-.2-2.7-.2-3.8 0 .7-2.2 1.3-3.6.5-3l-1.1.8s-.5.9-1.1 2.5c-1.4.3-2.2.7-2.2.7l-1.7.3c1 .4 2.1.4 3.5.3-.2.7-.4 1.6-.6 2.6-2 .2-3.7.8-4.9 1.3.1-1 .2-1.8.2-2.6l-.8.4s-.2 1-.4 2.7c-.7.4-1.1.7-1.2.7l-1.7.7c.8.1 1.7 0 2.8-.2-.1 1.1-.2 2.3-.2 3.7-2.3.7-4 1.6-5.3 2.4-.1-.5-.2-1-.3-1.4l-.7.6s0 .5.1 1.4c-.7.5-1.1.9-1.1.9l-.4 1 1.6-.8c.2 1.3.5 3.1 1.1 5.1-1.3.9-2.5 1.8-3.4 2.6-.6-1.4-.9-2.4-1.4-3.3l-.6.7s.3 1.4 1.1 3.4l-1.2 1.2.5 1c.4-.3.7-.7 1.1-1 .7 1.7 1.6 3.6 2.8 5.6-.7 1.2-1.3 2.3-1.6 3.3-.9-1.2-1.6-2-2-2.7l-.4.7s.8 1.3 2.1 3.1c-.3 1.1-.4 1.8-.4 1.8l-.1 1.4s.4-1 1.1-2.4c.7.9 1.4 1.8 2.3 2.7l.3.3c0 .1-.1.2-.1.2-.3.1-.5.3-.8.5-.7.7-.9 1.8-.4 2.7-.2.7-.3 1.1-.3 1.1l1 2.3c.2-.8.4-1.6.6-2.2.7.3 1.6.2 2.2-.3-.9 2.5-1.3 4.6-1.4 5.4-.7-.1-1.4.1-1.9.7-.7.7-.9 1.7-.5 2.5-.8-.4-2.1-1-3.4-1.7-.1-.7-.2-1.4-.3-2 .9.6 2.2.6 3-.2.9-.9.9-2.4 0-3.4-.9-.9-2.4-1-3.4 0-.9.9-.9 2.3-.1 3.2-.1.6-.3 1.2-.3 1.8-3.4-1.9-7.2-4.5-7.8-7.4h-.1c0-.4.7-1.6.7-1.9-.1-.9-2.5 2.7-1-1.4 2.2 2.3 5.6 4.3 8.2 4.3-1.9-1.4-8.5-7.9-10.6-12.2 1.1-27.2 25-49.3 53.9-48.9zm4.3 80.8c.3-.4.6-.7.8-1.1.5.5 1.1.8 1.8 1.2l-.2.2c-.4 0-.9 0-1.3.2-.4-.2-.7-.3-1.1-.5zm13.5-2.2c-.1.4-.3.7-.4 1.1-.9.2-2 .4-3.1.5.2-.6.4-1.1.5-1.6 1 .1 2 .1 3 0zm-2.6-1.1c.2-.6.4-1.1.6-1.5.7.1 1.4 0 2-.5h1.4c-.3.5-.6 1-.9 1.6-1 .2-2.1.4-3.1.4zm4.7-.8c.2-.5.3-.9.5-1.3.8-.1 1.6-.3 2.4-.5l-.1.2c-.5.8-1.5 1.3-2.8 1.6zm5.8-8.3c.1-.7.1-1.4.1-2 .7.1 1.4-.1 1.9-.6.3-.2.4-.5.5-.8.9-.6 1.8-1.2 2.5-1.9 0 .6-.1 1.3-.3 1.9h-.1c-.7 1.2-2.6 2.4-4.6 3.4zM94.6 185.8c-.1-.5-.3-.9-.7-1.3-.9-.9-2.4-1-3.4 0-.9.9-.9 2.4 0 3.4.2.2.5.4.7.5.1-.1.3-.2.4-.3 1.2-.8 2.2-1.6 3-2.3z"/><path d="M174.2 76.5c.9.9 2.5 1 3.4 0 .9-.9.9-2.4 0-3.4-.9-.9-2.5-1-3.4 0-.9.9-.9 2.4 0 3.4zM162.4 187.9c-.1.1-.2.1-.2.2-.9.9-.9 2.4 0 3.4.5.5 1.1.7 1.7.7l-.6-1.7c-.3-.8-.5-1.4-.7-1.9l-.2-.7zM169.5 71.7c.9.9 2.4 1 3.4 0 .9-.9.9-2.4 0-3.4-.9-.9-2.4-1-3.4 0-.9 1-.9 2.5 0 3.4zM164.8 66.9c.9.9 2.4.9 3.4 0 .9-.9.9-2.4 0-3.4-.9-.9-2.4-1-3.4 0s-1 2.5 0 3.4zM163.5 62.2c.9-.9.9-2.4 0-3.4-.9-.9-2.4-1-3.4 0-.9.9-.9 2.4 0 3.4 1 .9 2.5.9 3.4 0zM168.8 106.8c-.9.9-.9 2.4 0 3.4.9.9 2.4 1 3.4 0 .9-.9.9-2.4 0-3.4-.9-.9-2.4-.9-3.4 0zM124 116.9c-.9-.9-2.4-1-3.4 0-.9.9-.9 2.4 0 3.4.9.9 2.4 1 3.4 0 .9-1 .9-2.5 0-3.4zM124.1 110.6c.9-.9.9-2.4 0-3.4-.9-.9-2.4-1-3.4 0-.9.9-.9 2.4 0 3.4 1 .9 2.5 1 3.4 0zM159.1 116.5c-.9.9-.9 2.4 0 3.4.9.9 2.4 1 3.4 0 .9-.9.9-2.4 0-3.4-1-.9-2.5-.9-3.4 0zM125.5 115.4c.9.9 2.4 1 3.4 0 .9-.9.9-2.4 0-3.4-.9-.9-2.4-1-3.4 0-1 .9-1 2.4 0 3.4zM133.7 110.6c.9-.9.9-2.4 0-3.4-.9-.9-2.4-.9-3.4 0-.9.9-.9 2.4 0 3.4 1 .8 2.5.9 3.4 0zM135.1 111.9c-.9.9-.9 2.4 0 3.4.9.9 2.4 1 3.4 0 .9-.9.9-2.4 0-3.4-1-.9-2.5-.9-3.4 0zM138.6 105.7c.9-.9.9-2.4 0-3.4-.9-.9-2.4-1-3.4 0-.9.9-.9 2.4 0 3.4 1 .9 2.5.9 3.4 0zM130.2 116.8c-.9.9-.9 2.4 0 3.4.9.9 2.4 1 3.4 0 .9-.9.9-2.4 0-3.4-.9-.9-2.5-.9-3.4 0zM149.3 126.2c-.9.9-.9 2.4 0 3.4.9.9 2.4.9 3.4 0 .9-.9.9-2.4 0-3.4-1-.9-2.5-.9-3.4 0zM147.9 121.5c-.9-.9-2.4-1-3.4 0-.9.9-.9 2.4 0 3.4.9.9 2.4 1 3.4 0s1-2.5 0-3.4zM154.2 121.4c-.9.9-.9 2.4 0 3.4.9.9 2.4 1 3.4 0 .9-.9.9-2.4 0-3.4-1-.9-2.5-.9-3.4 0zM138.3 121.6c-.9-.9-2.4-.9-3.4 0-.9.9-.9 2.4 0 3.4.9.9 2.4 1 3.4 0 .9-1 .9-2.5 0-3.4zM130 126.4c-.9.9-.9 2.4 0 3.4.9.9 2.4.9 3.4 0 .9-.9.9-2.4 0-3.4-.9-.9-2.4-.9-3.4 0zM139.7 126.3c-.9.9-.9 2.4 0 3.4.9.9 2.4.9 3.4 0 .9-.9.9-2.4 0-3.4-1-.9-2.5-.9-3.4 0zM128.7 121.7c-.9-.9-2.4-1-3.4 0-.9.9-.9 2.4 0 3.4.9.9 2.4 1 3.4 0 .9-1 .9-2.5 0-3.4zM233.9 129.9c-.9-.9-2.4-1-3.4 0-.9.9-.9 2.4 0 3.4.9.9 2.4 1 3.4 0 .9-1 .9-2.5 0-3.4zM113.4 178c.9-.9.9-2.4 0-3.4-.9-.9-2.4-.9-3.4 0-.9.9-.9 2.4 0 3.4.9.9 2.4 1 3.4 0zM114.9 169.8c-.9.9-.9 2.4 0 3.4.9.9 2.4 1 3.4 0 .9-.9.9-2.4 0-3.4-1-.9-2.5-.9-3.4 0zM76.6 160.5c-.9.9-.9 2.4 0 3.4.9.9 2.4 1 3.4 0 .9-.9.9-2.4 0-3.4-1-.9-2.5-.9-3.4 0zM97.2 183.6c.9-.8 1.7-1.5 2.4-2.2.1-.7-.2-1.4-.7-1.9-.9-.9-2.4-.9-3.4 0-.9.9-.9 2.4 0 3.4.4.5 1.1.7 1.7.7zM135.2 186.5c-.2 0-.1 1.1 0 2.6.1-1.4.2-2.5 0-2.6zM119.8 164.9c-.9.9-.9 2.4 0 3.4.9.9 2.4 1 3.4 0 .9-.9.9-2.4 0-3.4-1-.9-2.5-.9-3.4 0zM135.1 194.8c.5 1.3 1.1 5.5 1.1 5.5s-.1-3.6-.3-4.7c-.2-.7-.5-4-.7-6.5-.2 2.2-.4 4.9-.1 5.7zM91.1 155.6c-.9.9-.9 2.4 0 3.4.9.9 2.4 1 3.4 0 .9-.9.9-2.4 0-3.4-1-.9-2.5-.9-3.4 0zM103.8 178.1c.9-.9.9-2.4 0-3.4-.9-.9-2.4-1-3.4 0-.9.9-.9 2.4 0 3.4.9.9 2.4.9 3.4 0zM90.8 174.8c-.9.9-.9 2.4 0 3.4.9.9 2.4 1 3.4 0 .9-.9.9-2.4 0-3.4-1-.9-2.5-.9-3.4 0zM147.7 193.1c-.9.9-.9 2.4 0 3.3.7.7 1.8.9 2.6.5v-4.3c-.8-.4-1.9-.3-2.6.5zM84.3 165c-.9-.6-2.2-.6-3 .2-.5.5-.7 1.1-.7 1.7l3.5-1.8c.1 0 .2 0 .2-.1zM99.2 163.7c.9-.9.9-2.4 0-3.4-.9-.9-2.4-1-3.4 0-.9.9-.9 2.4 0 3.4.9.9 2.5 1 3.4 0zM99 170c-.9-.9-2.5-1-3.4 0-.9.9-.9 2.4 0 3.4.9.9 2.4 1 3.4 0s1-2.5 0-3.4zM105.3 169.9c-.9.9-.9 2.4 0 3.4.9.9 2.4 1 3.4 0 .9-.9.9-2.4 0-3.4-1-.9-2.5-.9-3.4 0zM281.3 301.7h-3.5l-.6 2.8h-3.3l-.5 2h3.3l-1.9 8.1c-.3 1.3-.1 2.3.7 3 .8.7 2.1 1.1 3.8 1.1 1.7 0 3.1-.2 3.9-.6l.2-2.5c-.7.5-1.7.8-3.2.8-.8 0-1.4-.2-1.7-.6-.3-.4-.3-1-.1-1.9l1.7-7.4h3.7l.5-2h-3.7l.7-2.8zM265.5 304c-2 0-3.7.6-5.2 1.7-.5.4-.9.8-1.2 1.2l1.8-9.6h-3.4l-4 20.9h3.5l1.7-9c.8-.8 1.7-1.5 2.7-2.1 1.1-.6 2.1-1 2.8-1 .9 0 1.5.3 1.9.8.4.5.4 1.3.2 2.3l-1.7 9h3.4l1.7-9c.3-1.6.1-2.9-.7-3.9-.7-.9-1.9-1.3-3.5-1.3zM86.4 72.6c.9-.9.9-2.4 0-3.4-.9-.9-2.4-1-3.4 0-.9.9-.9 2.4 0 3.4.9.9 2.4.9 3.4 0zM262 236c-19.7 0-30.1 11.5-30.1 25.7 0 15.6 10.9 25.7 30.1 25.7 19.1 0 30.1-10.1 30.1-25.7 0-14.2-10.4-25.7-30.1-25.7zm0 44.7c-9.8 0-14-8.5-14-18.9 0-10.4 4.2-18.9 14-18.9s14 8.5 14 18.9c0 10.4-4.2 18.9-14 18.9zM237.9 306c-1.3 1-1.9 2.4-1.9 4 0 1.4.6 2.6 1.8 3.4.4.3.9.5 1.4.7-.4.1-.8.2-1.2.4-1.4.6-2.2 1.2-2.3 2-.1.6.3 1.2 1.2 1.7.5.3 1.1.5 1.8.7-1.4.2-2.6.5-3.6 1s-1.6 1.1-1.6 1.7c-.2 1 .5 1.9 2.1 2.6 1.6.7 3.5 1.1 5.9 1.1 2 0 3.7-.3 5.1-1 1.4-.7 2.3-1.5 2.4-2.4.2-1.1-.2-2.1-1.2-2.8-.9-.7-2.6-1.3-4.9-1.7-1.3-.2-2.3-.5-2.9-.7-.6-.2-.9-.5-.9-.7.1-.4.4-.7 1.2-.9.7-.3 1.6-.4 2.6-.4 2 0 3.6-.5 4.8-1.5 1.3-1 1.9-2.4 1.9-4 0-1-.3-1.8-.9-2.5h3.3l.3-2.1h-9.6c-1.9-.2-3.6.4-4.8 1.4zm3.9 13.5l1 .2c.9.1 1.6.4 2.2.8.6.4.8.8.8 1.2-.1.4-.5.8-1.2 1.1-.7.3-1.6.4-2.5.4-1.5 0-2.7-.2-3.6-.5-1-.3-1.4-.7-1.3-1.2 0-.4.5-.7 1.4-1.1.8-.4 1.9-.7 3.2-.9zm3.7-12.2c.6.5.9 1.2.9 2 0 .9-.4 1.7-1.1 2.3-.7.6-1.6 1-2.6 1-1.1 0-1.9-.2-2.5-.7-.6-.5-.9-1.2-.9-2 0-.9.4-1.7 1.1-2.3.7-.6 1.6-1 2.6-1s1.8.2 2.5.7zM81.6 67.8c.9-.9.9-2.4 0-3.4-.9-.9-2.4-1-3.4 0-.9.9-.9 2.4 0 3.4 1 .9 2.5.9 3.4 0zM63.2 71.7c.1.4.3.7.6 1 .9.9 2.4.9 3.4 0 .3-.3.5-.7.6-1h-4.6zM202.9 82.5c-.9.9-.9 2.4 0 3.4.9.9 2.4 1 3.4 0 .9-.9.9-2.4 0-3.4-.9-.9-2.5-.9-3.4 0zM58.9 74.2c-.9.9-.9 2.4 0 3.4.9.9 2.4 1 3.4 0 .9-.9.9-2.4 0-3.4-1-.9-2.5-.9-3.4 0zM162.3 181.9c.9.9 2.4 1 3.4 0 .9-.9.9-2.4 0-3.4-.9-.9-2.4-.9-3.3 0-1 .9-1 2.4-.1 3.4 0-.1 0-.1 0 0zM249.2 122.1l2.1-.8-1.7-1c-.3.5-.5 1.2-.4 1.8zM157.5 186.7c.9.9 2.4.9 3.4 0 .9-.9.9-2.3.1-3.2l-.1-.1c-.9-.9-2.4-.9-3.3 0-1.1.9-1.1 2.3-.1 3.3-.1 0-.1 0 0 0zM68.5 74.1c-.9.9-.9 2.4 0 3.4.9.9 2.4 1 3.4 0 .9-.9.9-2.4 0-3.4-1-.9-2.5-.9-3.4 0zM205.5 304c-2.6 0-4.7.8-6.3 2.4-1.6 1.6-2.5 3.7-2.5 6.2 0 1.8.6 3.3 1.9 4.4 1.2 1.1 2.9 1.6 5.1 1.6 2.6 0 4.7-.8 6.3-2.4 1.6-1.6 2.5-3.7 2.5-6.2v-.1c0-1.8-.6-3.3-1.9-4.3-1.3-1.1-3-1.6-5.1-1.6zm1.9 10.5c-1 1.3-2.1 1.9-3.5 1.9-1.1 0-2-.3-2.7-1-.7-.7-1-1.6-1-2.8 0-1.8.5-3.4 1.4-4.7 1-1.3 2.1-1.9 3.5-1.9 1.1 0 2 .3 2.7 1 .7.7 1 1.6 1 2.7 0 1.9-.5 3.5-1.4 4.8zM66.1 282.9L83 241.1c.8-2.3-.3-4.7-3.6-4.7H64.7c-2.2 0-2.3 2.3 0 2.9 1.6.4 8.7 1.7 6.9 7.2L64 269.2s-.1.7-.7.7c-.5 0-.7-.7-.7-.7l-14.9-32.7h-1.8s-4-.3-5.7 3.5l-4.5 9.6L53 286.4h5.6s5.9.3 7.5-3.5zM144.4 283.8c-5.9-1.5-6.2-5.6-6.2-8v-26.3c0-3.2.2-7.4 6.9-7.4 3.7 0 9.5 1.5 9.5 9 0 6.8-4.6 7.9-7.9 8.7-3.3.8-6.2 2.4-7 6.7 0 0 30 1.6 30-16.7 0-14-16.2-13.2-16.2-13.2h-36.3c-2.2 0-2.3 2.3 0 2.9 1.2.3 4.4 1.5 4.4 4.4v36c0 4.2 2.6 7.2 6 7.2h16.9c2.3-.2 2.2-2.7-.1-3.3zM121.6 304.2c-2 0-3.7.6-5.2 1.7-.5.4-.9.8-1.2 1.2l.5-2.7h-3.5l-2.6 13.8h3.4l1.7-8.8c.7-.8 1.6-1.4 2.7-2 1.1-.6 2.1-.9 2.8-.9.9 0 1.5.2 1.9.8.4.5.4 1.3.3 2.3l-1.7 8.8h3.4l1.6-8.7c.3-1.6.1-2.9-.7-3.9-.6-1.1-1.8-1.6-3.4-1.6zM103.6 304.4l-2.6 13.8h3.5l2.6-13.8h-1.8M70.9 305.8c-1.5-1.1-3.6-1.7-6.1-1.7-.8 0-1.6.1-2.5.3l.6-3.3h-3.5l-.9 5c-1.7 1.1-2.9 2.4-3.6 4v.3c0 .1.1.1.2.1s.2 0 .3-.1c.1-.1.2-.1.2-.2.5-1 1.3-1.8 2.5-2.5l-3.4 17.7h3.4l1.3-6.8c.5.1.9.1 1.5.1 3.5 0 6.3-.8 8.6-2.4 2.3-1.6 3.5-3.6 3.5-6 .1-1.8-.6-3.4-2.1-4.5zm-3.6 9.2c-1.4 1.2-3.2 1.8-5.3 1.8-1.3 0-2 0-2.1-.1l2-10.3c.5-.1 1-.1 1.4-.1 1.9 0 3.4.4 4.5 1.2 1.1.8 1.6 1.8 1.6 3.2 0 1.7-.7 3.1-2.1 4.3zM96.2 304.4l-5.8 9.7-2.6-9.7h-3.4l3.8 12.9-5.3 8.5h3.9l13-21.4H98M81.9 297.3h-1.7l-4 20.9h3.5l4.4-20.9M105.9 298.5c-.6 0-1.1.2-1.5.5-.4.3-.6.7-.6 1.1 0 .4.2.8.6 1.1.4.3.9.4 1.5.4s1.1-.1 1.5-.4c.4-.3.6-.7.6-1.1 0-.4-.2-.8-.6-1.1-.4-.3-.9-.5-1.5-.5zM84.8 155.7c-.9-.9-2.4-.9-3.4 0-.9.9-.9 2.4 0 3.4.9.9 2.4 1 3.4 0s1-2.5 0-3.4zM228.7 304.4l-1.7 9.1c-.8.8-1.6 1.4-2.7 2-1.1.6-2 .9-2.8.9-.9 0-1.5-.3-1.9-.8-.4-.5-.4-1.2-.3-2.2l1.7-9h-3.4l-1.7 9c-.1.4-.1.9-.1 1.3 0 1 .3 1.9.8 2.6.8 1 2 1.4 3.6 1.4 2 0 3.7-.6 5.1-1.7.5-.4.9-.8 1.2-1.2l-.5 2.5h3.5l2.6-13.8H228.7zM233.9 286.9c2.2 0 2.1-2.6-.2-3.1-.7-.2-2.2-.1-4.9-2.9-3.9-4.2-7-11.7-7.9-13.4-1.4-2.8-4.2-3.9-6.3-4.4 5.2-2.4 9.4-6.5 9.4-13.3 0-14-16.2-13.2-16.2-13.2h-36.3c-2.2 0-2.3 2.3 0 2.9 1.2.3 4.4 1.5 4.4 4.4v36c0 4.2 2.6 7.2 6 7.2h16.9c2.2 0 2.1-2.5-.2-3.1-5.9-1.5-6.2-5.6-6.2-8v-26.3c0-3.2.2-7.4 6.9-7.4 3.7 0 9.5 1.5 9.5 9 0 6.8-4.5 7.9-7.9 8.7-3.3.8-6.2 2.4-7 6.7h.9c2.4.1 7 .3 9.3 3 4.7 5.6 7.3 17.4 12.8 17.4h17zM188 304c-2 0-3.7.6-5.2 1.7-.5.4-.9.8-1.2 1.2l1.8-9.6H180l-4 20.9h3.4l1.7-9c.8-.8 1.7-1.5 2.7-2.1 1.1-.6 2.1-1 2.8-1 .9 0 1.5.3 1.9.8.4.5.4 1.3.2 2.3l-1.7 9h3.5l1.7-9c.3-1.6.1-2.9-.7-3.9-.7-.9-1.9-1.3-3.5-1.3zM176.3 297.3h-19.7l-.3 1.2-.2 1.3h8l-3.5 18.4h3.7l3.5-18.4h8l.2-1.3M132.8 306c-1.3 1-1.9 2.4-1.9 4 0 1.4.6 2.6 1.9 3.4.4.3.9.5 1.4.7-.4.1-.8.2-1.2.4-1.4.6-2.2 1.2-2.3 2-.1.6.3 1.2 1.2 1.7.5.3 1.1.5 1.8.7-1.4.2-2.6.5-3.6 1s-1.6 1.1-1.6 1.7c-.2 1 .5 1.9 2.1 2.6 1.5.7 3.5 1.1 5.9 1.1 2 0 3.7-.3 5.1-1 1.4-.7 2.3-1.5 2.4-2.4.2-1.1-.2-2.1-1.2-2.8-.9-.7-2.6-1.3-4.9-1.7-1.3-.2-2.3-.5-2.9-.7-.6-.2-.9-.5-.9-.7.1-.4.4-.7 1.2-.9.7-.3 1.6-.4 2.6-.4 2 0 3.6-.5 4.8-1.5 1.3-1 1.9-2.4 1.9-4 0-1-.3-1.8-.9-2.5h3.3l.3-2.1h-9.6c-2-.2-3.6.4-4.9 1.4zm3.9 13.5l1 .2c.9.1 1.6.4 2.2.8.6.4.8.8.8 1.2-.1.4-.5.8-1.2 1.1-.7.3-1.6.4-2.5.4-1.5 0-2.7-.2-3.6-.5-1-.3-1.4-.7-1.3-1.2.1-.4.5-.7 1.4-1.1.8-.4 1.9-.7 3.2-.9zm3.7-12.2c.6.5.9 1.2.9 2 0 .9-.4 1.7-1.1 2.3-.7.6-1.6 1-2.6 1-1.1 0-1.9-.2-2.5-.7-.6-.5-.9-1.2-.9-2 0-.9.4-1.7 1.1-2.3.7-.6 1.6-1 2.6-1s1.9.2 2.5.7zM72.1 146.1c-.9.9-.9 2.4 0 3.4.9.9 2.4.9 3.4 0 .9-.9.9-2.4 0-3.4-.9-.9-2.5-.9-3.4 0zM94.8 139.7c.9-.9.9-2.4 0-3.4-.9-.9-2.4-1-3.4 0-.9.9-.9 2.4 0 3.4.9.9 2.5 1 3.4 0zM83.4 114.8c1.2 0 3-.4 3-.4l1.8-1.4-19.6.8s8.9.2 11.1.3c2.1 0 2.5.7 3.7.7zM53.7 98.3c-.9.9-.9 2.4 0 3.4.9.9 2.4 1 3.4 0 .9-.9.9-2.4 0-3.4-1-.9-2.5-.9-3.4 0zM85 146.1c-.9-.9-2.4-1-3.4 0-.9.9-.9 2.4 0 3.4.9.9 2.4 1 3.4 0 .9-1 .9-2.5 0-3.4zM85.3 139.8c.9-.9.9-2.4 0-3.4-.9-.9-2.4-1-3.4 0-.9.9-.9 2.4 0 3.4.9.9 2.4.9 3.4 0zM77 141.2c-.9.9-.9 2.4 0 3.4.9.9 2.4 1 3.4 0 .9-.9.9-2.4 0-3.4-1-.9-2.5-.9-3.4 0zM23.8 297H22L9.8 318.1h3.8l3.7-6.7h8.6l1.6 6.7h3.4L25.6 297h-1.8zm-5.3 12.3l4.9-8.9 2.1 8.9h-7zM97.2 286.9H114c2.2 0 2.1-2.5-.2-3.1-5.9-1.5-6.2-5.6-6.2-8v-35.7c0-2.7-1.5-3.7-3-3.7H86.8c-2.2 0-2.3 2.3 0 2.9 1.2.3 4.4 1.5 4.4 4.4v36c.1 4.2 2.6 7.2 6 7.2zM50 305.6c-1.5-1.1-3.6-1.7-6.1-1.7-.8 0-1.6.1-2.5.3l.6-3.3h-3.4l-.9 5c-1.7 1.1-2.8 2.4-3.6 4v.3c0 .1.1.1.2.1s.2 0 .3-.1c.1-.1.2-.1.2-.2.5-1 1.3-1.8 2.5-2.5L34 325.3h3.5l1.3-6.8c.5.1.9.1 1.5.1 3.5 0 6.3-.8 8.6-2.4 2.3-1.6 3.5-3.6 3.5-6-.1-1.9-.8-3.4-2.4-4.6zm-3.5 9.2c-1.4 1.2-3.2 1.8-5.3 1.8-1.3 0-2 0-2.1-.1l2-10.3c.5-.1 1-.1 1.4-.1 1.9 0 3.4.4 4.5 1.2 1.1.8 1.6 1.8 1.6 3.2 0 1.7-.7 3.2-2.1 4.3zM39.6 273.3l-14.7-33.2c-1.2-2.7-3.2-3.7-4.7-3.7H1.8c-2.2 0-2.5 2.5 0 3 1.2.2 4.8.8 6.9 5.6l18.9 41.3h1.8s4 .3 5.7-3.5l4.5-9.5zM166.5 202.9c-.4.6-.5 1.4-.3 2 .1-.7.2-1.4.3-2zM244 145.6c0 .5.1 1.1.4 1.5l-.3-.9c0-.2-.1-.4-.1-.6zM249.9 139c.1 0 .2-.1.3-.1-.2 0-.3.1-.3.1zM162 197.7c-.9.9-.9 2.4 0 3.4.9.9 2.4 1 3.4 0 .9-.9.9-2.4 0-3.4-.9-.9-2.4-.9-3.4 0zM207.8 81c.9.9 2.4 1 3.4 0 .9-.9.9-2.4 0-3.4-.9-.9-2.4-1-3.4 0-.9.9-.9 2.4 0 3.4zM197.2 57.1c.9-.9.9-2.4 0-3.4-.9-.9-2.4-1-3.4 0-.9.9-.9 2.4 0 3.4.9.9 2.4.9 3.4 0zM192.3 62c.9-.9.9-2.4 0-3.4-.9-.9-2.4-1-3.4 0-.9.9-.9 2.4 0 3.4.9.9 2.4.9 3.4 0zM198.8 39.2c-.9.9-.9 2.4 0 3.4.9.9 2.4 1 3.4 0 .9-.9.9-2.4 0-3.4-.9-.9-2.4-.9-3.4 0zM211.3 71.4c.9-.9.9-2.4 0-3.4-.9-.9-2.4-.9-3.4 0-.9.9-.9 2.4 0 3.4 1 .9 2.5.9 3.4 0zM192.4 49c-.9-.9-2.4-1-3.4 0-.9.9-.9 2.4 0 3.4.9.9 2.4 1 3.4 0s1-2.5 0-3.4zM189.5 29.7c-.9.9-.9 2.4 0 3.4.9.9 2.4 1 3.4 0 .9-.9.9-2.4 0-3.4-1-.9-2.5-1-3.4 0zM189.2 42.7c.9.9 2.4 1 3.4 0 .9-.9.9-2.4 0-3.4-.9-.9-2.5-.9-3.4 0-.9.9-.9 2.4 0 3.4zM184.3 47.5c.9.9 2.4 1 3.4 0 .9-.9.9-2.4 0-3.4-.9-.9-2.4-1-3.4 0-.9 1-.9 2.5 0 3.4zM184.6 34.5c-.9.9-.9 2.4 0 3.4.9.9 2.4.9 3.4 0 .9-.9.9-2.4 0-3.4-1-.9-2.5-.9-3.4 0zM198.4 61.6s-.1 0 0 0c0 .1.1.2.1.2.9.9 2.4 1 3.4 0 .9-.9.9-2.4 0-3.4-.9-.9-2.5-1-3.4 0-.9.9-.9 2.3-.1 3.2zM140.7 18.5c-.3-.1-.6-.3-.8-.6-.5-.6-.7-1.3-.9-2.4 0-.1 0-.2-.1-.3-.7-.1-1.5.1-2.1.6-.9.9-.9 2.4 0 3.4.9.9 2.4 1 3.4 0 .2-.2.3-.4.5-.7zM88 54.7c-.9.9-.9 2.4 0 3.4.9.9 2.4 1 3.4 0 .9-.9.9-2.4 0-3.4-.9-.9-2.4-.9-3.4 0zM213.3 34.3c-.9.9-.9 2.4 0 3.4.9.9 2.4 1 3.4 0 .9-.9.9-2.4 0-3.4-.9-.9-2.4-.9-3.4 0zM96.1 62.9c.9-.9.9-2.4 0-3.4-.9-.9-2.4-1-3.4 0-.9.9-.9 2.4 0 3.4 1 .9 2.5.9 3.4 0zM127 25.5c-.9.9-.9 2.4 0 3.4.9.9 2.4 1 3.4 0 .9-.9.9-2.4 0-3.4-.9-.9-2.5-.9-3.4 0zM91.6 45.1c-.9-.9-2.4-1-3.4 0-.9.9-.9 2.4 0 3.4.9.9 2.4 1 3.4 0 .9-.9.9-2.4 0-3.4zM218.6 38.7c-.2.1-.3.2-.5.4-.5.5-.7 1.2-.7 1.9.2-.3.3-.7.5-.9.3-.6.5-1.1.7-1.4zM150.9 43.4c0-1.6-.3-3.4-.3-3.4s-.2 6.3 0 7.3c.1.9.6 3.7 1.1 4.1.5.4 1.3.2 1.3.2s.2-4.7 0-9.2c-.2-3.7-.8-7.1-.9-7.6-.1-1-.3-.7-.3 0s.4 7.6.4 9.2c0 1.5-.7 2.5-.7 2.5s-.6-1.5-.6-3.1zM136 42.3c-.2-1.6-.9-3.3-.9-3.3s1 6.2 1.3 7.2c.3.9 1.2 3.5 1.8 3.8.6.3 1.3 0 1.3 0s-.6-4.7-1.6-9c-.8-3.6-2.1-6.9-2.2-7.3-.2-1-.4-.7-.3 0 .1.7 1.7 7.5 1.9 9 .2 1.5-.3 2.6-.3 2.6s-.7-1.4-1-3zM163.2 42.8s-1.2 4.2-1.3 4.8-.2 2.6.1 2.9c.3.4.9.4.9.4s1-3.1 1.6-6.1c.5-2.5.6-4.9.7-5.2.1-.7-.1-.5-.2-.1-.1.5-1 5.2-1.3 6.2-.3 1-1 1.5-1 1.5s-.2-1.1.1-2.1c.4-1.1.4-2.3.4-2.3zM208.3 52.1c.9.9 2.4 1 3.4 0 .9-.9.9-2.4 0-3.4-.9-.9-2.4-1-3.4 0-.9 1-.9 2.5 0 3.4zM197.4 28.5c0-1.3-.1-2.7-.3-4.1-.9-.4-2-.3-2.7.4-.9.9-.9 2.4 0 3.4.8.8 2.1.9 3 .3zM211.8 42.6c.9-.9.9-2.4 0-3.4-.9-.9-2.4-1-3.4 0-.9.9-.9 2.4 0 3.4 1 .8 2.5.9 3.4 0zM203.6 44c-.9.9-.9 2.4 0 3.4.9.9 2.4 1 3.4 0 .9-.9.9-2.4 0-3.4-1-.9-2.5-.9-3.4 0zM222.6 53.5c-.9.9-.9 2.4 0 3.4.9.9 2.4 1 3.4 0 .9-.9.9-2.4 0-3.4-.9-.9-2.4-1-3.4 0zM194.1 37.8c.9.9 2.4 1 3.4 0 .4-.4.6-.9.7-1.5l-.1-.1c-.5-.6-.7-1.2-.8-2-.9-.7-2.3-.7-3.1.2-1 1-1 2.5-.1 3.4zM207.3 64.9c0-.6-.2-1.2-.7-1.6-.9-.9-2.5-1-3.4 0-.9.9-.9 2.4 0 3.4.3.3.6.5.9.6l-2.1 1.5c-.1-.2-.2-.4-.4-.5-.9-.9-2.4-1-3.4 0-.9.9-.9 2.4 0 3.3l-1.8 1.3c-.9-.7-2.2-.6-3 .2-.7.6-.8 1.6-.6 2.4.1.3.3.7.6 1l.1.1c.9.9 2.4.9 3.3 0 .7-.7.9-1.8.5-2.7.5-.4 1.2-1 2-1.6.8.3 1.8.1 2.4-.5.6-.5.8-1.3.7-2 .9-.7 1.7-1.4 2.6-2.2.6 0 1.2-.2 1.7-.7.4-.4.6-.8.7-1.3-.1-.4-.1-.5-.1-.7zM179.4 49c-.9.9-.9 2.4 0 3.4.9.9 2.4 1 3.4 0 .9-.9.9-2.4 0-3.4-.9-.9-2.4-.9-3.4 0zM203.1 72.9c-.9.9-.9 2.4 0 3.4.9.9 2.4 1 3.4 0 .9-.9.9-2.4 0-3.4-1-.9-2.5-1-3.4 0zM187.5 57.2c.9-.9.9-2.4 0-3.4-.9-.9-2.4-1-3.4 0-.9.9-.9 2.4 0 3.4 1 .9 2.5.9 3.4 0zM230.7 61.6c.1-.1.2-.2.3-.4-.3-.1-.9-.3-2-.3-.7 0-1.3-.3-1.7-.8-.3-.3-.4-.7-.5-1.2-.4.9-.2 1.9.5 2.6 1 1 2.5 1 3.4.1zM206.8 57c.9-.9.9-2.4 0-3.4-.9-.9-2.4-1-3.4 0-.9.9-.9 2.4 0 3.4.9.9 2.4.9 3.4 0zM211.5 61.8c.9-.9.9-2.4 0-3.4-.9-.9-2.4-.9-3.4 0-.9.9-.9 2.4 0 3.4.9.9 2.5.9 3.4 0zM220.9 71.3c.9-.9.9-2.4 0-3.4-.9-.9-2.4-.9-3.4 0-.9.9-.9 2.4 0 3.4 1 .9 2.5.9 3.4 0zM213 53.5c-.9.9-.9 2.4 0 3.4.9.9 2.4.9 3.4 0 .9-.9.9-2.4 0-3.4-.9-.9-2.5-.9-3.4 0zM217.7 58.3c-.9.9-.9 2.4 0 3.4.9.9 2.4 1 3.4 0 .9-.9.9-2.4 0-3.4-.9-.9-2.4-.9-3.4 0zM216.2 63.2c-.9-.9-2.4-1-3.4 0-.9.9-.9 2.4 0 3.4.9.9 2.4 1 3.4 0s1-2.5 0-3.4zM193.9 44.1c-.9.9-.9 2.4 0 3.4.9.9 2.4 1 3.4 0 .9-.9.9-2.4 0-3.4-.9-.9-2.4-.9-3.4 0zM222.5 66.4c.9.9 2.4.9 3.4 0 .9-.9.9-2.4 0-3.4-.9-.9-2.4-1-3.4 0s-1 2.5 0 3.4zM212.7 72.8c-.9.9-.9 2.4 0 3.4.9.9 2.4.9 3.4 0 .9-.9.9-2.4 0-3.4-1-.9-2.5-.9-3.4 0zM202 52.3c.9-.9.9-2.4 0-3.4-.9-.9-2.4-.9-3.4 0-.9.9-.9 2.4 0 3.4 1 .9 2.5.9 3.4 0zM106.1 43.6c.9-.9.9-2.4 0-3.4-.9-.9-2.4-1-3.4 0-.9.9-.9 2.4 0 3.4.9.9 2.5.9 3.4 0zM119.9 39.1c0 .1 0 .1.1.2 1.2 2.9 1.4 4.5 1.8 6.2.4 1.7 2.2 4.2 2.2 4.2l.9.1s-.5-1.8-.9-3-1.1-2-1.8-3.4c-.7-1.2-1.1-3.4-1.5-4.8.8-.9.8-2.3-.1-3.3-.9-.9-2.4-1-3.4 0-.9.9-.9 2.4 0 3.4.7.6 1.8.8 2.7.4zM115.7 43.5c.9-.9.9-2.4 0-3.4-.9-.9-2.4-1-3.4 0-.9.9-.9 2.4 0 3.4 1 .9 2.5.9 3.4 0zM111 35.4c-.9-.9-2.4-1-3.4 0-.9.9-.9 2.4 0 3.4.9.9 2.4 1 3.4 0 .9-1 .9-2.5 0-3.4zM110.8 48.3c.9-.9.9-2.4 0-3.4-.9-.9-2.4-1-3.4 0-.9.9-.9 2.4 0 3.4 1 .9 2.5.9 3.4 0zM115.9 30.5c-.9-.9-2.4-1-3.4 0-.9.9-.9 2.4 0 3.4.9.9 2.4 1 3.4 0 .9-1 .9-2.5 0-3.4zM68.8 54.9c-.9.9-.9 2.4 0 3.4.9.9 2.4 1 3.4 0 .9-.9.9-2.4 0-3.4-.9-.9-2.5-.9-3.4 0zM76.9 63c.9-.9.9-2.4 0-3.4-.9-.9-2.4-.9-3.4 0-.9.9-.9 2.4 0 3.4 1 .9 2.5 1 3.4 0zM125.5 30.4c-.9-.9-2.4-1-3.4 0-.9.9-.9 2.4 0 3.4.9.9 2.4 1 3.4 0 .9-.9.9-2.5 0-3.4zM125.7 24.2c0-.1 0-.1 0 0-.3-.4-.7-.9-.9-1.7-.1-.3-.2-.8-.5-1.5-.1-.3-.2-.6-.4-.9-.6 0-1.2.2-1.6.7-.9.9-.9 2.4 0 3.4.9.9 2.4.9 3.4 0zM120.8 29c.9-.9.9-2.4 0-3.4-.9-.9-2.4-1-3.4 0-.9.9-.9 2.4 0 3.4.9.9 2.4.9 3.4 0zM101.2 48.4c.9-.9.9-2.4 0-3.4-.9-.9-2.4-1-3.4 0-.9.9-.9 2.4 0 3.4 1 .9 2.5.9 3.4 0zM101.4 35.4c-.9-.9-2.4-1-3.4 0-.9.9-.9 2.4 0 3.4.9.9 2.4.9 3.4 0 .9-.9.9-2.4 0-3.4zM96.6 34c.2-.2.3-.3.4-.5-.8-.3-.1 0-.9-.4-.6-.3-1.3-.6-2-.9-.4-.2-.9-.4-1.4-.6-.3.8-.1 1.7.6 2.4.9.9 2.4.9 3.3 0zM96.5 40.3c-.9-.9-2.4-1-3.4 0-.9.9-.9 2.4 0 3.4.9.9 2.4 1 3.4 0 .9-1 .9-2.5 0-3.4zM96.3 53.3c.9-.9.9-2.4 0-3.4-.9-.9-2.4-1-3.4 0-.9.9-.9 2.4 0 3.4 1 .9 2.5.9 3.4 0zM212.5 32.1"/></g></svg>