<svg xmlns="http://www.w3.org/2000/svg" width="364" height="243" viewBox="0 0 364 243">
  <g fill="none" fill-rule="evenodd">
    <path fill="#2058AF" d="M184.743225,131.14458 C148.527823,131.14458 119.168913,101.781789 119.168913,65.5683272 C119.168913,50.6249372 124.17786,36.8459672 132.602439,25.8033842 L187.114761,97.4540282 L181.253847,97.4346212 L175.423984,97.4346212 C169.196278,97.4346212 163.364474,97.0076672 159.162859,96.1925732 C156.606957,95.6879912 154.328575,94.7564552 152.477147,93.4561862 C150.299682,91.9424402 147.57688,88.7014712 145.80308,85.5187232 C145.597366,85.1499902 145.300439,84.5871872 144.91618,83.8303142 L141.725669,84.5289662 L147.068416,105.119793 L215.344183,105.119793 L161.099677,32.5764272 C164.62787,32.8869392 166.032937,32.9645672 168.887706,32.9645672 C171.092342,32.9645672 174.432286,32.8287182 178.9056,32.5570202 L188.543116,31.9748102 C192.036376,31.7807402 194.966833,31.6642982 197.179231,31.6642982 C202.16683,31.6642982 205.407799,32.0524382 208.609954,33.0227882 C211.09405,33.7990682 213.461704,34.9440812 215.615881,36.4190132 C219.419653,39.0583652 223.12639,43.2890912 225.338788,47.5198172 C225.571672,47.9467712 225.920998,48.5872022 226.328545,49.4605172 L229.220188,48.7230512 C228.288652,45.1327562 227.78407,43.7548592 226.347952,40.5332972 C223.436902,34.0319522 220.137712,29.6653772 215.615881,26.3079662 C210.958201,22.8729272 205.815346,21.1845182 199.721548,21.0874832 L198.809419,21.0874832 C194.287588,21.0874832 190.813735,21.4562162 180.019562,23.1058112 C169.039081,24.7942202 163.453746,25.3570232 157.934396,25.3570232 C154.239303,25.3570232 150.802323,25.0853252 147.252783,24.5225222 C142.542704,23.7656492 140.697098,23.2028462 136.419795,21.2621462 C148.405559,8.2012352 165.617627,-0.000163 184.743225,-0.000163 C220.952806,-0.000163 250.315597,29.3548652 250.315597,65.5683272 C250.315597,101.781789 220.952806,131.14458 184.743225,131.14458" transform="matrix(1 0 0 -1 0 131.144)"/>
    <path fill="#15356F" d="M61.0501506,176.602688 L10.8468296,176.602688 L4.68114448,190.21899 C6.7378737,189.13217 7.55593864,188.74402 9.3571099,188.029824 C12.2053546,186.896426 15.3416066,185.995918 18.3815974,185.468034 C21.0117018,185.01778 23.4384156,184.800416 27.3789144,184.691734 C29.1395628,184.645156 30.7915292,184.614104 32.333261,184.614104 L39.7655572,184.614104 L0.7114568,240.430074 L55.9188076,240.430074 L62.2875728,225.866686 C60.0720126,227.139818 59.278634,227.55902 57.5863,228.319794 C54.380181,229.763712 50.8728576,230.850532 47.2723782,231.487098 C44.4264624,231.98393 41.221896,232.263398 37.2379244,232.356554 C35.9057936,232.403132 34.204144,232.418658 32.131423,232.418658 L22.350043,232.418658 L61.0501506,176.602688 L61.0501506,176.602688 Z M226.976513,240.430074 C225.982849,239.560618 225.641277,239.156942 225.004711,238.178804 C224.601035,237.542238 224.259463,236.890146 224.011047,236.238054 C223.467637,234.77861 223.126065,232.636022 223.126065,230.617642 L223.126065,192.175266 L223.157117,188.4335 C223.188169,184.148324 223.296851,182.983874 223.840261,181.244962 C224.057625,180.561818 224.352619,179.8942 224.740769,179.257634 C225.408387,178.170814 225.858641,177.673982 227.147299,176.602688 L206.652979,176.602688 C207.988215,177.751612 208.422943,178.201866 209.028457,179.133426 C209.463185,179.785518 209.789231,180.484188 210.006595,181.198384 C210.487901,182.750984 210.643161,184.288058 210.674213,188.076402 C210.689739,190.017152 210.689739,191.30581 210.689739,191.911324 L210.689739,230.136336 C210.689739,232.37208 210.301589,234.763084 209.680549,236.300158 C209.416607,236.95225 209.075035,237.588816 208.671359,238.178804 C208.190053,238.877474 207.848481,239.265624 206.730609,240.430074 L226.976513,240.430074 L226.976513,240.430074 Z M291.083367,177.17715 C289.499715,176.664792 288.878675,176.509532 287.186341,176.152434 C283.522205,175.360608 279.982277,175.00351 275.961043,175.00351 C269.098551,175.00351 263.183145,176.105856 257.764571,178.388178 C254.550689,179.754466 251.600749,181.508904 248.992381,183.604914 C241.120699,189.939522 236.851049,199.115388 236.851049,209.688594 C236.851049,219.95128 240.980965,228.816626 248.511075,234.763084 C254.737001,239.6693 262.732891,242.15346 272.359011,242.15346 C278.367573,242.15346 283.972459,241.252952 290.260489,239.28115 C290.493379,239.219046 290.850477,239.110364 291.300731,238.955104 L291.300731,227.357182 C289.779183,228.381898 289.251299,228.707944 288.319739,229.251354 C287.093185,229.96555 285.789001,230.617642 284.407187,231.20763 C280.556739,232.822334 277.047863,233.583108 273.259519,233.583108 C266.660969,233.583108 261.009505,231.20763 256.817485,226.70509 C252.687569,222.233602 250.451825,216.023202 250.451825,209.020976 C250.451825,202.32927 252.532309,196.134396 256.227497,191.787116 C257.811149,189.923996 259.782951,188.309292 262.003169,187.067212 C265.620727,185.048832 269.812747,184.00859 274.346339,184.00859 C278.258891,184.00859 282.031709,184.769364 285.820053,186.306438 C288.180005,187.26905 289.033935,187.73483 291.083367,189.194274 L291.083367,177.17715 L291.083367,177.17715 Z M347.039071,211.458558 L347.039071,227.031136 C347.039071,230.493434 346.992493,231.75104 346.759603,233.521004 C346.635395,234.499142 346.402505,235.430702 346.076459,236.284632 C345.626205,237.480134 344.865431,238.566954 343.778611,239.622722 C343.592299,239.809034 343.297305,240.072976 342.893629,240.430074 L363.294793,240.430074 C362.440863,239.59167 362.130343,239.234572 361.571407,238.458272 C361.074575,237.744076 360.670899,237.045406 360.391431,236.362262 C359.770391,234.871766 359.615131,233.738368 359.553027,230.58659 C359.521975,228.707944 359.506449,227.605598 359.506449,227.279552 L359.553027,192.175266 L359.553027,188.386922 C359.553027,185.576716 359.785917,183.403076 360.267223,181.633112 C360.484587,180.810234 360.826159,180.018408 361.276413,179.27316 C361.944031,178.18634 362.425337,177.673982 363.807151,176.602688 L342.971259,176.602688 C344.166761,177.596352 344.585963,178.062132 345.300159,179.211056 C345.750413,179.940778 346.123037,180.686026 346.355927,181.431274 C346.852759,182.92177 347.039071,184.78489 347.039071,188.12298 L347.039071,203.64898 L318.424653,203.64898 L318.424653,191.988954 C318.424653,188.464552 318.486757,186.151178 318.610965,184.443318 C318.673069,183.38755 318.843855,182.45599 319.107797,181.648638 C319.558051,180.266824 320.722501,178.372652 321.762743,177.285832 C321.918003,177.130572 322.150893,176.897682 322.476939,176.602688 L302.029197,176.602688 C303.240225,177.860294 303.566271,178.248444 304.125207,179.055796 C304.575461,179.707888 304.932559,180.43761 305.212027,181.229436 C305.770963,182.84414 305.864119,183.713596 305.910697,187.983246 L305.972801,192.020006 L305.972801,226.953506 C305.972801,230.50896 305.910697,232.06156 305.708859,233.676264 C305.615703,234.514668 305.398339,235.353072 305.087819,236.207002 C304.559935,237.588816 303.799161,238.691162 302.634711,239.793508 C302.479451,239.933242 302.246561,240.150606 301.920515,240.430074 L322.119841,240.430074 C321.250385,239.51404 320.939865,239.141416 320.427507,238.334064 C320.039357,237.713024 319.697785,237.045406 319.418317,236.33121 C318.750699,234.654402 318.548861,233.443374 318.486757,230.74185 C318.440179,229.391088 318.424653,228.117956 318.424653,226.922454 L318.424653,211.458558 L347.039071,211.458558 L347.039071,211.458558 Z M69.7447106,176.602688 C71.0100796,177.627404 71.443255,178.10871 72.0705054,179.180004 C72.4788392,179.878674 72.786254,180.623922 72.9818816,181.400222 C73.220982,182.362834 73.3560582,183.340972 73.3855576,184.334636 C73.4041888,185.033306 73.42282,186.353016 73.4352408,188.309292 L73.461635,191.988954 L73.461635,210.24753 C73.461635,216.69082 73.5113182,218.911038 73.7131562,221.488354 C74.0733594,226.068524 75.5250404,229.872394 78.1877494,233.22601 C80.8815104,236.610678 84.539436,239.141416 88.956583,240.709542 C92.3847238,241.905044 96.2398296,242.510558 100.596425,242.510558 C105.392407,242.510558 110.079706,241.780836 113.526478,240.507704 C117.140931,239.156942 120.617202,236.828042 123.029943,234.126518 C125.975225,230.835006 127.641165,226.844824 128.186127,221.767822 C128.513726,218.740252 128.61775,216.007676 128.61775,210.340686 L128.61775,191.988954 L128.591356,188.386922 L128.589803,187.874564 C128.589803,184.645156 128.852193,182.626776 129.16737,181.539956 C129.830331,179.288686 130.983912,177.968976 132.030365,177.161624 C132.434041,176.851104 132.556696,176.757948 132.760087,176.602688 L113.854077,176.602688 C114.631929,177.767138 114.880345,178.26397 115.245206,179.381842 C115.488964,180.12709 115.664408,180.934442 115.774643,181.788372 C116.069637,184.055168 116.179871,186.927478 116.179871,192.377104 L116.179871,212.18828 C116.179871,217.70001 116.044795,220.463638 115.650435,223.009902 C115.383388,224.717762 114.826004,226.301414 114.006231,227.667702 C112.396185,230.338174 109.579769,232.29445 106.143865,233.14838 C104.771367,233.489952 103.251371,233.660738 101.614931,233.660738 C98.3234188,233.660738 95.4790556,232.977594 92.9498702,231.580254 C91.339824,230.695272 90.0418504,229.561874 89.1568684,228.273216 C87.4086408,225.711426 86.8947302,223.13411 86.8326262,216.582138 L86.7565488,208.555196 L86.7565488,192.377104 C86.7565488,186.943004 86.868336,183.977538 87.1617774,181.788372 C87.3837992,180.111564 87.893052,178.605542 88.7283508,177.17715 C88.8044282,177.052942 88.9224258,176.851104 89.0823436,176.602688 L69.7447106,176.602688 L69.7447106,176.602688 Z M159.685276,227.310604 C159.685276,228.475054 159.685276,229.546348 159.700802,230.524486 C159.762906,233.474426 159.98027,235.0115 160.539206,236.40884 C160.818674,237.091984 161.175772,237.744076 161.626026,238.34959 C162.200488,239.12589 162.46443,239.451936 163.39599,240.430074 L143.100403,240.430074 C144.283484,239.343254 144.65145,238.955104 145.22436,238.19433 C145.69014,237.588816 146.064316,236.905672 146.336021,236.17595 C146.8608,234.77861 147.068848,233.039698 147.068848,230.012128 L147.068848,188.12298 C147.068848,184.738312 146.885642,182.76651 146.438493,181.322592 C146.186972,180.530766 145.812795,179.73894 145.325279,179.009218 C144.721317,178.077658 144.312983,177.627404 143.178033,176.602688 L159.654224,176.602688 C161.68813,176.602688 163.659932,176.63374 165.56963,176.680318 C170.646632,176.804526 173.627624,177.115046 176.484408,177.782664 C180.567746,178.745276 184.231882,180.779182 186.855776,183.527284 C189.71256,186.523802 191.18753,190.079256 191.18753,194.007334 C191.18753,195.65309 190.923588,197.314372 190.395704,198.91355 C189.464144,201.801386 187.880492,204.083708 185.36528,206.195244 C183.145062,208.07389 180.70748,209.47123 177.509124,210.744362 C176.375726,211.194616 175.89442,211.365402 174.667866,211.738026 L184.573454,223.382526 C185.784482,224.810918 187.337082,226.534304 189.231254,228.599262 C192.227772,231.82867 194.2151,233.878102 196.46637,236.005164 C197.428982,236.921198 198.345016,237.759602 199.214472,238.50485 C200.03735,239.219046 200.472078,239.576144 201.543372,240.430074 L193.531956,240.430074 C192.35198,240.430074 191.234108,240.414548 190.224918,240.36797 C187.445764,240.29034 185.706852,239.871138 183.874784,238.877474 C181.732196,237.72855 179.558556,236.005164 177.276234,233.645212 C176.562038,232.931016 175.537322,231.782092 174.171034,230.213966 C172.960006,228.832152 172.075024,227.807436 171.516088,227.124292 L159.685276,212.949054 L159.685276,227.310604 L159.685276,227.310604 Z M160.709992,207.592584 C161.641552,207.592584 162.743898,207.499428 164.063608,207.313116 C167.494854,206.816284 169.808228,206.05551 172.09055,204.704748 C173.286052,204.006078 174.279716,203.198726 175.071542,202.313744 C176.717298,200.46615 177.555702,198.013042 177.555702,195.10968 C177.555702,191.787116 176.43783,189.116644 174.26419,187.26905 C173.02211,186.213282 171.54714,185.421456 169.947962,184.971202 C167.541432,184.272532 164.498336,183.899908 161.346558,183.899908 C160.818674,183.899908 160.477102,183.899908 159.685276,183.93096 L159.685276,207.561532 C160.182108,207.592584 160.399472,207.592584 160.709992,207.592584 L160.709992,207.592584 Z"/>
  </g>
</svg>
