<svg xmlns="http://www.w3.org/2000/svg" viewBox="0 0 590 550"><defs><linearGradient id="b" x1="28.731%" x2="71.894%" y1="2.993%" y2="97.007%"><stop offset="0%" stop-color="#B8CBDC"/><stop offset="100%" stop-color="#B8CBDC" stop-opacity="0"/></linearGradient><linearGradient id="c" x1="85.857%" x2="23.174%" y1="97.006%" y2="-2.537%"><stop offset="0%" stop-color="#B8CBDC"/><stop offset="100%" stop-color="#B8CBDC" stop-opacity=".021"/><stop offset="100%" stop-color="#B8CBDC" stop-opacity="0"/></linearGradient><filter id="a" width="137.6%" height="137.6%" x="-18.8%" y="-18.8%" filterUnits="objectBoundingBox"><feOffset in="SourceAlpha" result="shadowOffsetOuter1"/><feGaussianBlur in="shadowOffsetOuter1" result="shadowBlurOuter1" stdDeviation="9.5"/><feColorMatrix in="shadowBlurOuter1" result="shadowMatrixOuter1" values="0 0 0 0 0 0 0 0 0 0 0 0 0 0 0 0 0 0 0.2 0"/><feMerge><feMergeNode in="shadowMatrixOuter1"/><feMergeNode in="SourceGraphic"/></feMerge></filter></defs><g fill="none" fill-rule="evenodd"><path fill="#B5D0E5" d="M261.612 495.02C134.34 495.02 31.16 391.844 31.16 264.574c0-127.276 103.178-230.452 230.452-230.452 127.273 0 230.444 103.176 230.444 230.452 0 127.268-103.173 230.444-230.444 230.444z" opacity=".15"/><path fill="#9BC0E0" d="M310.972 39.405C390.29 75.802 445.38 155.953 445.38 248.984c0 127.265-103.109 230.44-230.3 230.44-16.892 0-33.359-1.82-49.217-5.275 29.196 13.398 61.673 20.87 95.894 20.87 127.19 0 230.3-103.174 230.3-230.44 0-110.37-77.54-202.619-181.085-225.174" opacity=".15"/><path fill="#FFF" d="M48.723 273.446c0-127.27 103.273-230.443 230.665-230.443 33.92 0 66.128 7.316 95.133 20.452-33.325-18.679-71.764-29.332-112.696-29.332-127.391 0-230.665 103.173-230.665 230.444 0 93.378 55.6 173.783 135.527 209.983C96.294 435.093 48.723 359.82 48.723 273.446" opacity=".15"/><path fill="#B3CEE2" d="M350.75 101.805a2.971 2.971 0 11-5.943 0 2.971 2.971 0 015.943 0m0-33.016a2.971 2.971 0 11-5.943 0 2.971 2.971 0 015.943 0m-40.94 40.28a2.971 2.971 0 11-5.942 0 2.971 2.971 0 015.943 0m0-33.677a2.971 2.971 0 11-5.943 0 2.971 2.971 0 015.943 0m16.508 33.676a2.971 2.971 0 11-5.943 0 2.971 2.971 0 015.943 0" opacity=".601"/><path fill="#EC3128" d="M326.319 75.392a2.971 2.971 0 11-5.943 0 2.971 2.971 0 015.943 0" opacity=".8"/><path fill="#B3CEE2" d="M342.166 109.068a2.971 2.971 0 11-5.943 0 2.971 2.971 0 015.943 0m-204.696-7.263a2.971 2.971 0 11-5.943 0 2.971 2.971 0 015.943 0" opacity=".601"/><path fill="#20386D" d="M153.978 101.805a2.971 2.971 0 11-5.943 0 2.971 2.971 0 015.943 0" opacity=".8"/><path fill="#B3CEE2" d="M170.485 101.805a2.971 2.971 0 11-5.942 0 2.971 2.971 0 015.942 0m-16.507-17.168a2.971 2.971 0 11-5.943 0 2.971 2.971 0 015.943 0m16.507 0a2.971 2.971 0 11-5.942 0 2.971 2.971 0 015.942 0m0-15.848a2.971 2.971 0 11-5.942 0 2.971 2.971 0 015.942 0m15.188 0a2.971 2.971 0 11-5.943 0 2.971 2.971 0 015.943 0m-64.05 47.543a2.971 2.971 0 11-5.943 0 2.971 2.971 0 015.942 0m15.848 0a2.971 2.971 0 11-5.942 0 2.971 2.971 0 015.942 0m7.924-23.772a2.971 2.971 0 11-5.943 0 2.971 2.971 0 015.943 0m15.847 0a2.971 2.971 0 11-5.942 0 2.971 2.971 0 015.942 0m-15.847 16.508a2.971 2.971 0 11-5.943 0 2.971 2.971 0 015.943 0m15.847 0a2.971 2.971 0 11-5.942 0 2.971 2.971 0 015.942 0m-32.355 0a2.971 2.971 0 11-5.943 0 2.971 2.971 0 015.943 0m-7.264-7.263a2.971 2.971 0 11-5.942 0 2.971 2.971 0 015.942 0m-16.507 14.527a2.971 2.971 0 11-5.943 0 2.971 2.971 0 015.943 0m7.923-7.264a2.971 2.971 0 11-5.943 0 2.971 2.971 0 015.943 0m64.71-16.508a2.971 2.971 0 11-5.942 0 2.971 2.971 0 015.943 0M161.24 76.713a2.971 2.971 0 11-5.942 0 2.971 2.971 0 015.942 0m16.508 0a2.971 2.971 0 11-5.943 0 2.971 2.971 0 015.943 0m180.925 32.355a2.971 2.971 0 11-5.943 0 2.971 2.971 0 015.943 0m15.847 0a2.971 2.971 0 11-5.943 0 2.971 2.971 0 015.943 0m16.508 0a2.971 2.971 0 11-5.943 0 2.971 2.971 0 015.943 0m-73.294 7.924a2.971 2.971 0 11-5.943 0 2.971 2.971 0 015.943 0m16.507 0a2.971 2.971 0 11-5.942 0 2.971 2.971 0 015.942 0m0-48.203a2.971 2.971 0 11-5.942 0 2.971 2.971 0 015.942 0m16.508 48.203a2.971 2.971 0 11-5.942 0 2.971 2.971 0 015.942 0m15.847 0a2.971 2.971 0 11-5.942 0 2.971 2.971 0 015.942 0m16.508 0a2.971 2.971 0 11-5.942 0 2.971 2.971 0 015.942 0m15.848 0a2.971 2.971 0 11-5.943 0 2.971 2.971 0 015.943 0" opacity=".601"/><path fill="#EC3128" d="M414.8 116.992a2.971 2.971 0 11-5.942 0 2.971 2.971 0 015.942 0" opacity=".8"/><path fill="#B3CEE2" d="M317.735 134.82a2.971 2.971 0 11-5.943 0 2.971 2.971 0 015.943 0m16.507 0a2.971 2.971 0 11-5.942 0 2.971 2.971 0 015.942 0m16.508 0a2.971 2.971 0 11-5.943 0 2.971 2.971 0 015.943 0m-65.37 0a2.971 2.971 0 11-5.943 0 2.971 2.971 0 015.942 0m16.508 0a2.971 2.971 0 11-5.943 0 2.971 2.971 0 015.943 0m7.924 7.264a2.971 2.971 0 11-5.943 0 2.971 2.971 0 015.943 0m-32.355 0a2.971 2.971 0 11-5.943 0 2.971 2.971 0 015.943 0m16.507 0a2.971 2.971 0 11-5.942 0 2.971 2.971 0 015.942 0m72.634-7.264a2.971 2.971 0 11-5.942 0 2.971 2.971 0 015.942 0m16.508 0a2.971 2.971 0 11-5.942 0 2.971 2.971 0 015.942 0m15.848 0a2.971 2.971 0 11-5.943 0 2.971 2.971 0 015.943 0m15.847 0a2.971 2.971 0 11-5.942 0 2.971 2.971 0 015.942 0m16.508 0a2.971 2.971 0 11-5.943 0 2.971 2.971 0 015.943 0m-113.573 32.356a2.971 2.971 0 11-5.943 0 2.971 2.971 0 015.943 0m16.507 0a2.971 2.971 0 11-5.942 0 2.971 2.971 0 015.942 0m16.508 0a2.971 2.971 0 11-5.942 0 2.971 2.971 0 015.942 0m-48.863 0a2.971 2.971 0 11-5.942 0 2.971 2.971 0 015.942 0m64.71 0a2.971 2.971 0 11-5.942 0 2.971 2.971 0 015.942 0m16.508 0a2.971 2.971 0 11-5.942 0 2.971 2.971 0 015.942 0m15.848 0a2.971 2.971 0 11-5.943 0 2.971 2.971 0 015.943 0m15.847 0a2.971 2.971 0 11-5.942 0 2.971 2.971 0 015.942 0m16.508 0a2.971 2.971 0 11-5.942 0 2.971 2.971 0 015.942 0m15.847 0a2.971 2.971 0 11-5.942 0 2.971 2.971 0 015.942 0m16.508 0a2.971 2.971 0 11-5.942 0 2.971 2.971 0 015.942 0m-145.928 16.507a2.971 2.971 0 11-5.943 0 2.971 2.971 0 015.943 0m16.507 0a2.971 2.971 0 11-5.942 0 2.971 2.971 0 015.942 0m16.508 0a2.971 2.971 0 11-5.942 0 2.971 2.971 0 015.942 0m-48.863 0a2.971 2.971 0 11-5.942 0 2.971 2.971 0 015.942 0m-16.508 0a2.971 2.971 0 11-5.942 0 2.971 2.971 0 015.942 0m81.218 0a2.971 2.971 0 11-5.942 0 2.971 2.971 0 015.942 0m16.508 0a2.971 2.971 0 11-5.942 0 2.971 2.971 0 015.942 0m15.848 0a2.971 2.971 0 11-5.943 0 2.971 2.971 0 015.943 0m15.847 0a2.971 2.971 0 11-5.942 0 2.971 2.971 0 015.942 0m16.508 0a2.971 2.971 0 11-5.942 0 2.971 2.971 0 015.942 0" opacity=".601"/><path fill="#EC3128" d="M447.155 183.683a2.971 2.971 0 11-5.942 0 2.971 2.971 0 015.942 0" opacity=".8"/><path fill="#B3CEE2" d="M463.663 183.683a2.971 2.971 0 11-5.942 0 2.971 2.971 0 015.942 0m-145.928 16.508a2.971 2.971 0 11-5.943 0 2.971 2.971 0 015.943 0m16.507 0a2.971 2.971 0 11-5.942 0 2.971 2.971 0 015.942 0m16.508 0a2.971 2.971 0 11-5.942 0 2.971 2.971 0 015.942 0m-48.863 0a2.971 2.971 0 11-5.942 0 2.971 2.971 0 015.942 0m64.71 0a2.971 2.971 0 11-5.942 0 2.971 2.971 0 015.942 0m16.508 0a2.971 2.971 0 11-5.942 0 2.971 2.971 0 015.942 0m15.848 0a2.971 2.971 0 11-5.943 0 2.971 2.971 0 015.943 0m15.847 0a2.971 2.971 0 11-5.942 0 2.971 2.971 0 015.942 0m16.508 0a2.971 2.971 0 11-5.943 0 2.971 2.971 0 015.943 0m15.847 0a2.971 2.971 0 11-5.942 0 2.971 2.971 0 015.942 0m16.508 0a2.971 2.971 0 11-5.942 0 2.971 2.971 0 015.942 0m-129.42 16.508a2.971 2.971 0 11-5.943 0 2.971 2.971 0 015.942 0m16.508 0a2.971 2.971 0 11-5.943 0 2.971 2.971 0 015.943 0m15.847 0a2.971 2.971 0 11-5.942 0 2.971 2.971 0 015.942 0m16.508 0a2.971 2.971 0 11-5.942 0 2.971 2.971 0 015.942 0m15.848 0a2.971 2.971 0 11-5.943 0 2.971 2.971 0 015.943 0m15.847 0a2.971 2.971 0 11-5.942 0 2.971 2.971 0 015.942 0m16.508 0a2.971 2.971 0 11-5.943 0 2.971 2.971 0 015.943 0m15.847 0a2.971 2.971 0 11-5.942 0 2.971 2.971 0 015.942 0m16.508 0a2.971 2.971 0 11-5.943 0 2.971 2.971 0 015.943 0m15.847 0a2.971 2.971 0 11-5.942 0 2.971 2.971 0 015.942 0m-96.405 15.847a2.971 2.971 0 11-5.942 0 2.971 2.971 0 015.942 0m15.848 0a2.971 2.971 0 11-5.943 0 2.971 2.971 0 015.943 0m15.847 0a2.971 2.971 0 11-5.942 0 2.971 2.971 0 015.942 0m16.508 0a2.971 2.971 0 11-5.943 0 2.971 2.971 0 015.943 0m15.847 0a2.971 2.971 0 11-5.942 0 2.971 2.971 0 015.942 0m16.508 0a2.971 2.971 0 11-5.942 0 2.971 2.971 0 015.942 0m15.847 0a2.971 2.971 0 11-5.942 0 2.971 2.971 0 015.942 0m-145.268-81.878a2.971 2.971 0 11-5.942 0 2.971 2.971 0 015.942 0m16.508 0a2.971 2.971 0 11-5.942 0 2.971 2.971 0 015.942 0m15.847 0a2.971 2.971 0 11-5.942 0 2.971 2.971 0 015.942 0m16.508 0a2.971 2.971 0 11-5.942 0 2.971 2.971 0 015.942 0m15.848 0a2.971 2.971 0 11-5.943 0 2.971 2.971 0 015.943 0m15.847 0a2.971 2.971 0 11-5.942 0 2.971 2.971 0 015.942 0m16.508 0a2.971 2.971 0 11-5.943 0 2.971 2.971 0 015.943 0m15.847 0a2.971 2.971 0 11-5.942 0 2.971 2.971 0 015.942 0m-104.989-8.584a2.971 2.971 0 11-5.943 0 2.971 2.971 0 015.943 0m16.508 0a2.971 2.971 0 11-5.943 0 2.971 2.971 0 015.943 0m15.847 0a2.971 2.971 0 11-5.943 0 2.971 2.971 0 015.943 0m16.508 0a2.971 2.971 0 11-5.943 0 2.971 2.971 0 015.943 0m16.508 0a2.971 2.971 0 11-5.943 0 2.971 2.971 0 015.943 0m15.187 0a2.971 2.971 0 11-5.943 0 2.971 2.971 0 015.943 0m16.508 0a2.971 2.971 0 11-5.943 0 2.971 2.971 0 015.943 0m-97.066 17.168a2.971 2.971 0 11-5.943 0 2.971 2.971 0 015.943 0m-16.508 0a2.971 2.971 0 11-5.942 0 2.971 2.971 0 015.942 0" opacity=".601"/><path fill="#20386D" d="M358.674 159.252a2.971 2.971 0 11-5.942 0 2.971 2.971 0 015.942 0" opacity=".8"/><path fill="#B3CEE2" d="M374.521 159.252a2.971 2.971 0 11-5.942 0 2.971 2.971 0 015.942 0m16.508 0a2.971 2.971 0 11-5.942 0 2.971 2.971 0 015.942 0m16.508 0a2.971 2.971 0 11-5.943 0 2.971 2.971 0 015.943 0m15.187 0a2.971 2.971 0 11-5.942 0 2.971 2.971 0 015.942 0m16.508 0a2.971 2.971 0 11-5.943 0 2.971 2.971 0 015.943 0m16.507 0a2.971 2.971 0 11-5.942 0 2.971 2.971 0 015.942 0m-113.573 15.187a2.971 2.971 0 11-5.943 0 2.971 2.971 0 015.943 0m-16.508 0a2.971 2.971 0 11-5.942 0 2.971 2.971 0 015.942 0m33.016 0a2.971 2.971 0 11-5.942 0 2.971 2.971 0 015.942 0m-49.524 0a2.971 2.971 0 11-5.942 0 2.971 2.971 0 015.942 0m-16.507 0a2.971 2.971 0 11-5.943 0 2.971 2.971 0 015.943 0m81.878 0a2.971 2.971 0 11-5.942 0 2.971 2.971 0 015.942 0m16.508 0a2.971 2.971 0 11-5.942 0 2.971 2.971 0 015.942 0m16.508 0a2.971 2.971 0 11-5.943 0 2.971 2.971 0 015.943 0m15.187 0a2.971 2.971 0 11-5.942 0 2.971 2.971 0 015.942 0m16.508 0a2.971 2.971 0 11-5.943 0 2.971 2.971 0 015.943 0m16.507 0a2.971 2.971 0 11-5.942 0 2.971 2.971 0 015.942 0m-113.573 17.168a2.971 2.971 0 11-5.943 0 2.971 2.971 0 015.943 0m-16.508 0a2.971 2.971 0 11-5.942 0 2.971 2.971 0 015.942 0m33.016 0a2.971 2.971 0 11-5.942 0 2.971 2.971 0 015.942 0m15.847 0a2.971 2.971 0 11-5.942 0 2.971 2.971 0 015.942 0m-81.218 0a2.971 2.971 0 11-5.942 0 2.971 2.971 0 015.942 0m-17.168 0a2.971 2.971 0 11-5.942 0 2.971 2.971 0 015.942 0m33.015 0a2.971 2.971 0 11-5.942 0 2.971 2.971 0 015.942 0m81.879 0a2.971 2.971 0 11-5.942 0 2.971 2.971 0 015.942 0m16.508 0a2.971 2.971 0 11-5.943 0 2.971 2.971 0 015.943 0m15.187 0a2.971 2.971 0 11-5.942 0 2.971 2.971 0 015.942 0m16.508 0a2.971 2.971 0 11-5.943 0 2.971 2.971 0 015.943 0m16.507 0a2.971 2.971 0 11-5.942 0 2.971 2.971 0 015.942 0m15.848 0a2.971 2.971 0 11-5.943 0 2.971 2.971 0 015.943 0m0 17.168a2.971 2.971 0 11-5.943 0 2.971 2.971 0 015.943 0m-129.421-.66a2.971 2.971 0 11-5.943 0 2.971 2.971 0 015.943 0m-16.508 0a2.971 2.971 0 11-5.942 0 2.971 2.971 0 015.942 0m33.016 0a2.971 2.971 0 11-5.942 0 2.971 2.971 0 015.942 0m15.847 0a2.971 2.971 0 11-5.942 0 2.971 2.971 0 015.942 0m-65.37 0a2.971 2.971 0 11-5.943 0 2.971 2.971 0 015.942 0m81.879 0a2.971 2.971 0 11-5.942 0 2.971 2.971 0 015.942 0m16.508 0a2.971 2.971 0 11-5.943 0 2.971 2.971 0 015.943 0m15.187 0a2.971 2.971 0 11-5.942 0 2.971 2.971 0 015.942 0m16.508 0a2.971 2.971 0 11-5.943 0 2.971 2.971 0 015.943 0m16.507 0a2.971 2.971 0 11-5.942 0 2.971 2.971 0 015.942 0m15.848 17.168a2.971 2.971 0 11-5.943 0 2.971 2.971 0 015.943 0m-97.066 0a2.971 2.971 0 11-5.942 0 2.971 2.971 0 015.942 0m16.508 0a2.971 2.971 0 11-5.942 0 2.971 2.971 0 015.942 0m16.508 0a2.971 2.971 0 11-5.943 0 2.971 2.971 0 015.943 0m15.187 0a2.971 2.971 0 11-5.942 0 2.971 2.971 0 015.942 0m16.508 0a2.971 2.971 0 11-5.943 0 2.971 2.971 0 015.943 0m16.507 0a2.971 2.971 0 11-5.942 0 2.971 2.971 0 015.942 0m15.848 15.847a2.971 2.971 0 11-5.943 0 2.971 2.971 0 015.943 0m-80.558 0a2.971 2.971 0 11-5.942 0 2.971 2.971 0 015.942 0m16.508 0a2.971 2.971 0 11-5.943 0 2.971 2.971 0 015.943 0m15.187 0a2.971 2.971 0 11-5.943 0 2.971 2.971 0 015.943 0m16.508 0a2.971 2.971 0 11-5.943 0 2.971 2.971 0 015.943 0m16.507 0a2.971 2.971 0 11-5.942 0 2.971 2.971 0 015.942 0m-145.928 0a2.971 2.971 0 11-5.942 0 2.971 2.971 0 015.942 0m16.508 0a2.971 2.971 0 11-5.943 0 2.971 2.971 0 015.943 0m15.847 0a2.971 2.971 0 11-5.943 0 2.971 2.971 0 015.943 0m16.508 0a2.971 2.971 0 11-5.943 0 2.971 2.971 0 015.943 0m15.847 0a2.971 2.971 0 11-5.942 0 2.971 2.971 0 015.942 0m-145.268 0a2.971 2.971 0 11-5.942 0 2.971 2.971 0 015.942 0m16.508 0a2.971 2.971 0 11-5.943 0 2.971 2.971 0 015.943 0m15.847 0a2.971 2.971 0 11-5.942 0 2.971 2.971 0 015.942 0m15.848 0a2.971 2.971 0 11-5.943 0 2.971 2.971 0 015.943 0m16.507 0a2.971 2.971 0 11-5.942 0 2.971 2.971 0 015.942 0m-32.355-15.847a2.971 2.971 0 11-5.942 0 2.971 2.971 0 015.942 0m15.848 0a2.971 2.971 0 11-5.943 0 2.971 2.971 0 015.943 0m16.507 0a2.971 2.971 0 11-5.942 0 2.971 2.971 0 015.942 0m97.066 32.355a2.971 2.971 0 11-5.942 0 2.971 2.971 0 015.942 0m16.508 0a2.971 2.971 0 11-5.943 0 2.971 2.971 0 015.943 0m15.187 0a2.971 2.971 0 11-5.943 0 2.971 2.971 0 015.943 0m48.863 0a2.971 2.971 0 11-5.943 0 2.971 2.971 0 015.943 0m16.507 0a2.971 2.971 0 11-5.942 0 2.971 2.971 0 015.942 0m-178.283 0a2.971 2.971 0 11-5.942 0 2.971 2.971 0 015.942 0m16.508 0a2.971 2.971 0 11-5.943 0 2.971 2.971 0 015.943 0m15.847 0a2.971 2.971 0 11-5.943 0 2.971 2.971 0 015.943 0m16.508 0a2.971 2.971 0 11-5.943 0 2.971 2.971 0 015.943 0m15.847 0a2.971 2.971 0 11-5.942 0 2.971 2.971 0 015.942 0m-145.268 0a2.971 2.971 0 11-5.942 0 2.971 2.971 0 015.942 0m16.508 0a2.971 2.971 0 11-5.943 0 2.971 2.971 0 015.943 0m-32.355 0a2.971 2.971 0 11-5.943 0 2.971 2.971 0 015.943 0m48.202 0a2.971 2.971 0 11-5.942 0 2.971 2.971 0 015.942 0m15.848 0a2.971 2.971 0 11-5.943 0 2.971 2.971 0 015.943 0m16.507 0a2.971 2.971 0 11-5.942 0 2.971 2.971 0 015.942 0m167.72-8.584a2.971 2.971 0 11-5.943 0 2.971 2.971 0 015.942 0m-80.558 0a2.971 2.971 0 11-5.942 0 2.971 2.971 0 015.942 0m16.508 0a2.971 2.971 0 11-5.942 0 2.971 2.971 0 015.942 0m15.847 0a2.971 2.971 0 11-5.942 0 2.971 2.971 0 015.942 0m16.508 0a2.971 2.971 0 11-5.942 0 2.971 2.971 0 015.942 0m15.848 0a2.971 2.971 0 11-5.943 0 2.971 2.971 0 015.943 0m32.355 0a2.971 2.971 0 11-5.943 0 2.971 2.971 0 015.943 0m-178.284 0a2.971 2.971 0 11-5.942 0 2.971 2.971 0 015.942 0m16.508 0a2.971 2.971 0 11-5.943 0 2.971 2.971 0 015.943 0m15.847 0a2.971 2.971 0 11-5.942 0 2.971 2.971 0 015.942 0m16.508 0a2.971 2.971 0 11-5.942 0 2.971 2.971 0 015.942 0m16.508 0a2.971 2.971 0 11-5.943 0 2.971 2.971 0 015.943 0m-145.929 0a2.971 2.971 0 11-5.942 0 2.971 2.971 0 015.942 0m16.508 0a2.971 2.971 0 11-5.943 0 2.971 2.971 0 015.943 0m15.848 0a2.971 2.971 0 11-5.943 0 2.971 2.971 0 015.943 0m16.507 0a2.971 2.971 0 11-5.942 0 2.971 2.971 0 015.942 0m16.508 0a2.971 2.971 0 11-5.942 0 2.971 2.971 0 015.942 0m-48.863-16.508a2.971 2.971 0 11-5.943 0 2.971 2.971 0 015.943 0m15.848 0a2.971 2.971 0 11-5.943 0 2.971 2.971 0 015.943 0m16.507 0a2.971 2.971 0 11-5.942 0 2.971 2.971 0 015.942 0m16.508 0a2.971 2.971 0 11-5.942 0 2.971 2.971 0 015.942 0m96.405 32.355a2.971 2.971 0 11-5.942.001 2.971 2.971 0 015.942 0m16.508 0a2.971 2.971 0 11-5.942 0 2.971 2.971 0 015.942 0m15.847 0a2.971 2.971 0 11-5.942 0 2.971 2.971 0 015.942 0m16.508 0a2.971 2.971 0 11-5.942 0 2.971 2.971 0 015.942 0m15.848 0a2.971 2.971 0 11-5.943 0 2.971 2.971 0 015.943 0m15.847 0a2.971 2.971 0 11-5.942 0 2.971 2.971 0 015.942 0m-161.776 0a2.971 2.971 0 11-5.942 0 2.971 2.971 0 015.942 0m16.508 0a2.971 2.971 0 11-5.943 0 2.971 2.971 0 015.943 0m15.847 0a2.971 2.971 0 11-5.942 0 2.971 2.971 0 015.942 0m16.508 0a2.971 2.971 0 11-5.942 0 2.971 2.971 0 015.942 0m16.508 0a2.971 2.971 0 11-5.943 0 2.971 2.971 0 015.943 0m-145.929 0a2.971 2.971 0 11-5.942 0 2.971 2.971 0 015.942 0m16.508 0a2.971 2.971 0 11-5.943 0 2.971 2.971 0 015.943 0m15.848 0a2.971 2.971 0 11-5.943 0 2.971 2.971 0 015.943 0m16.507 0a2.971 2.971 0 11-5.942 0 2.971 2.971 0 015.942 0m16.508 0a2.971 2.971 0 11-5.942 0 2.971 2.971 0 015.942 0" opacity=".601"/><path fill="#20386D" d="M391.029 274.146a2.971 2.971 0 11-5.942 0 2.971 2.971 0 015.942 0" opacity=".8"/><path fill="#B3CEE2" d="M407.537 274.146a2.971 2.971 0 11-5.943 0 2.971 2.971 0 015.943 0m15.187 0a2.971 2.971 0 11-5.942 0 2.971 2.971 0 015.942 0m16.508 0a2.971 2.971 0 11-5.943 0 2.971 2.971 0 015.943 0m16.507 0a2.971 2.971 0 11-5.942 0 2.971 2.971 0 015.942 0m-145.928 0a2.971 2.971 0 11-5.942 0 2.971 2.971 0 015.942 0m16.508 0a2.971 2.971 0 11-5.943 0 2.971 2.971 0 015.943 0m15.847 0a2.971 2.971 0 11-5.943 0 2.971 2.971 0 015.943 0m16.508 0a2.971 2.971 0 11-5.942 0 2.971 2.971 0 015.942 0m15.847 0a2.971 2.971 0 11-5.942 0 2.971 2.971 0 015.942 0m-145.268 0a2.971 2.971 0 11-5.942 0 2.971 2.971 0 015.942 0m16.508 0a2.971 2.971 0 11-5.943 0 2.971 2.971 0 015.943 0m15.847 0a2.971 2.971 0 11-5.942 0 2.971 2.971 0 015.942 0m-64.71 0a2.971 2.971 0 11-5.942 0 2.971 2.971 0 015.942 0m16.508 0a2.971 2.971 0 11-5.943 0 2.971 2.971 0 015.943 0m64.05 0a2.971 2.971 0 11-5.943 0 2.971 2.971 0 015.943 0m16.507 0a2.971 2.971 0 11-5.942 0 2.971 2.971 0 015.942 0m97.066 16.508a2.971 2.971 0 11-5.942 0 2.971 2.971 0 015.942 0m16.508 0a2.971 2.971 0 11-5.943 0 2.971 2.971 0 015.943 0m15.187 0a2.971 2.971 0 11-5.942 0 2.971 2.971 0 015.942 0m16.508 0a2.971 2.971 0 11-5.943 0 2.971 2.971 0 015.943 0m-129.421 0a2.971 2.971 0 11-5.942 0 2.971 2.971 0 015.942 0m16.508 0a2.971 2.971 0 11-5.943 0 2.971 2.971 0 015.943 0m15.847 0a2.971 2.971 0 11-5.943 0 2.971 2.971 0 015.943 0m16.508 0a2.971 2.971 0 11-5.942 0 2.971 2.971 0 015.942 0m15.847 0a2.971 2.971 0 11-5.942 0 2.971 2.971 0 015.942 0m-145.268 0a2.971 2.971 0 11-5.942 0 2.971 2.971 0 015.942 0m16.508 0a2.971 2.971 0 11-5.943 0 2.971 2.971 0 015.943 0m-32.355 0a2.971 2.971 0 11-5.943 0 2.971 2.971 0 015.943 0m48.202 0a2.971 2.971 0 11-5.942 0 2.971 2.971 0 015.942 0m15.848 0a2.971 2.971 0 11-5.943 0 2.971 2.971 0 015.943 0m16.507 0a2.971 2.971 0 11-5.942 0 2.971 2.971 0 015.942 0m97.066 16.507a2.971 2.971 0 11-5.942 0 2.971 2.971 0 015.942 0m16.508 0a2.971 2.971 0 11-5.943 0 2.971 2.971 0 015.943 0m15.187 0a2.971 2.971 0 11-5.942 0 2.971 2.971 0 015.942 0m-112.913 0a2.971 2.971 0 11-5.942 0 2.971 2.971 0 015.942 0m16.508 0a2.971 2.971 0 11-5.943 0 2.971 2.971 0 015.943 0m15.847 0a2.971 2.971 0 11-5.943 0 2.971 2.971 0 015.943 0m16.508 0a2.971 2.971 0 11-5.942 0 2.971 2.971 0 015.942 0m15.847 0a2.971 2.971 0 11-5.942 0 2.971 2.971 0 015.942 0m-145.268 0a2.971 2.971 0 11-5.942 0 2.971 2.971 0 015.942 0m16.508 0a2.971 2.971 0 11-5.943 0 2.971 2.971 0 015.943 0m-16.508 15.847a2.971 2.971 0 11-5.942.001 2.971 2.971 0 015.942 0m16.508 0a2.971 2.971 0 11-5.943 0 2.971 2.971 0 015.943 0m-32.355-15.848a2.971 2.971 0 11-5.943 0 2.971 2.971 0 015.943 0m48.202 0a2.971 2.971 0 11-5.942 0 2.971 2.971 0 015.942 0m15.848 0a2.971 2.971 0 11-5.943 0 2.971 2.971 0 015.943 0m16.507 0a2.971 2.971 0 11-5.942 0 2.971 2.971 0 015.942 0m97.066 15.847a2.971 2.971 0 11-5.942.001 2.971 2.971 0 015.942 0m16.508 0a2.971 2.971 0 11-5.943 0 2.971 2.971 0 015.943 0m15.187 0a2.971 2.971 0 11-5.943 0 2.971 2.971 0 015.943 0m-112.913 0a2.971 2.971 0 11-5.942 0 2.971 2.971 0 015.942 0m16.508 0a2.971 2.971 0 11-5.943 0 2.971 2.971 0 015.943 0m15.847 0a2.971 2.971 0 11-5.943 0 2.971 2.971 0 015.943 0m16.508 0a2.971 2.971 0 11-5.943 0 2.971 2.971 0 015.943 0m15.847 0a2.971 2.971 0 11-5.942 0 2.971 2.971 0 015.942 0m-97.065 0a2.971 2.971 0 11-5.943 0 2.971 2.971 0 015.943 0m16.507 0a2.971 2.971 0 11-5.942 0 2.971 2.971 0 015.942 0m97.066 17.167a2.971 2.971 0 11-5.942.001 2.971 2.971 0 015.942 0m16.508 0a2.971 2.971 0 11-5.943 0 2.971 2.971 0 015.943 0m-97.726 0a2.971 2.971 0 11-5.942 0 2.971 2.971 0 015.942 0m16.508 0a2.971 2.971 0 11-5.943 0 2.971 2.971 0 015.943 0m15.847 0a2.971 2.971 0 11-5.943 0 2.971 2.971 0 015.943 0m16.508 0a2.971 2.971 0 11-5.943 0 2.971 2.971 0 015.943 0m15.847 0a2.971 2.971 0 11-5.942 0 2.971 2.971 0 015.942 0m16.508 15.847a2.971 2.971 0 11-5.942 0 2.971 2.971 0 015.942 0m-81.218 0a2.971 2.971 0 11-5.942 0 2.971 2.971 0 015.942 0m16.508 0a2.971 2.971 0 11-5.943 0 2.971 2.971 0 015.943 0m15.847 0a2.971 2.971 0 11-5.943 0 2.971 2.971 0 015.943 0m16.508 0a2.971 2.971 0 11-5.942 0 2.971 2.971 0 015.942 0m15.847 0a2.971 2.971 0 11-5.942 0 2.971 2.971 0 015.942 0m16.508 16.508a2.971 2.971 0 11-5.942 0 2.971 2.971 0 015.942 0m-81.218 0a2.971 2.971 0 11-5.942 0 2.971 2.971 0 015.942 0m16.508 0a2.971 2.971 0 11-5.943 0 2.971 2.971 0 015.943 0m15.847 0a2.971 2.971 0 11-5.943 0 2.971 2.971 0 015.943 0m16.508 0a2.971 2.971 0 11-5.942 0 2.971 2.971 0 015.942 0m15.847 0a2.971 2.971 0 11-5.942 0 2.971 2.971 0 015.942 0m-80.558-32.356a2.971 2.971 0 11-5.942.001 2.971 2.971 0 015.942 0m87.161-58.107a2.971 2.971 0 11-5.942 0 2.971 2.971 0 015.942 0m16.508 0a2.971 2.971 0 11-5.942 0 2.971 2.971 0 015.942 0m15.847 0a2.971 2.971 0 11-5.942 0 2.971 2.971 0 015.942 0m16.508 0a2.971 2.971 0 11-5.942 0 2.971 2.971 0 015.942 0m15.848 0a2.971 2.971 0 11-5.943 0 2.971 2.971 0 015.943 0m-145.929 0a2.971 2.971 0 11-5.942 0 2.971 2.971 0 015.942 0m16.508 0a2.971 2.971 0 11-5.942 0 2.971 2.971 0 015.942 0m15.847 0a2.971 2.971 0 11-5.942 0 2.971 2.971 0 015.942 0m16.508 0a2.971 2.971 0 11-5.942 0 2.971 2.971 0 015.942 0m16.508 0a2.971 2.971 0 11-5.943 0 2.971 2.971 0 015.943 0m-145.929 0a2.971 2.971 0 11-5.942 0 2.971 2.971 0 015.942 0m16.508 0a2.971 2.971 0 11-5.942 0 2.971 2.971 0 015.942 0m-32.355 0a2.971 2.971 0 11-5.942 0 2.971 2.971 0 015.942 0m48.203 0a2.971 2.971 0 11-5.943 0 2.971 2.971 0 015.943 0m16.507 0a2.971 2.971 0 11-5.942 0 2.971 2.971 0 015.942 0m16.508 0a2.971 2.971 0 11-5.942 0 2.971 2.971 0 015.942 0m96.405 15.847a2.971 2.971 0 11-5.942 0 2.971 2.971 0 015.942 0m16.508 0a2.971 2.971 0 11-5.942 0 2.971 2.971 0 015.942 0m15.847 0a2.971 2.971 0 11-5.942 0 2.971 2.971 0 015.942 0m16.508 0a2.971 2.971 0 11-5.942 0 2.971 2.971 0 015.942 0m-130.08 0a2.971 2.971 0 11-5.943 0 2.971 2.971 0 015.942 0m16.508 0a2.971 2.971 0 11-5.943 0 2.971 2.971 0 015.943 0m15.847 0a2.971 2.971 0 11-5.942 0 2.971 2.971 0 015.942 0" opacity=".601"/><path fill="#EC3128" d="M348.77 297.917a2.971 2.971 0 11-5.943 0 2.971 2.971 0 015.942 0" opacity=".8"/><path fill="#B3CEE2" d="M365.277 297.917a2.971 2.971 0 11-5.943 0 2.971 2.971 0 015.943 0m-145.929 0a2.971 2.971 0 11-5.942 0 2.971 2.971 0 015.942 0m16.508 0a2.971 2.971 0 11-5.943 0 2.971 2.971 0 015.943 0m-38.958-7.263a2.971 2.971 0 11-5.942 0 2.971 2.971 0 015.942 0m6.603 7.263a2.971 2.971 0 11-5.942 0 2.971 2.971 0 015.942 0m48.203 0a2.971 2.971 0 11-5.943 0 2.971 2.971 0 015.943 0m16.507 0a2.971 2.971 0 11-5.942 0 2.971 2.971 0 015.942 0m16.508 0a2.971 2.971 0 11-5.942 0 2.971 2.971 0 015.942 0m96.405 15.847a2.971 2.971 0 11-5.942 0 2.971 2.971 0 015.942 0m16.508 0a2.971 2.971 0 11-5.942 0 2.971 2.971 0 015.942 0m15.847 0a2.971 2.971 0 11-5.942 0 2.971 2.971 0 015.942 0m16.508 0a2.971 2.971 0 11-5.942 0 2.971 2.971 0 015.942 0m-130.08 0a2.971 2.971 0 11-5.943 0 2.971 2.971 0 015.942 0m16.508 0a2.971 2.971 0 11-5.943 0 2.971 2.971 0 015.943 0m15.847 0a2.971 2.971 0 11-5.942 0 2.971 2.971 0 015.942 0m16.508 0a2.971 2.971 0 11-5.942 0 2.971 2.971 0 015.942 0m16.508 0a2.971 2.971 0 11-5.943 0 2.971 2.971 0 015.943 0m15.847 17.829a2.971 2.971 0 11-5.942 0 2.971 2.971 0 015.942 0m16.508 0a2.971 2.971 0 11-5.942 0 2.971 2.971 0 015.942 0m15.847 0a2.971 2.971 0 11-5.942 0 2.971 2.971 0 015.942 0m-113.573 0a2.971 2.971 0 11-5.942 0 2.971 2.971 0 015.942 0m16.508 0a2.971 2.971 0 11-5.942 0 2.971 2.971 0 015.942 0m15.847 0a2.971 2.971 0 11-5.942 0 2.971 2.971 0 015.942 0m16.508 0a2.971 2.971 0 11-5.942 0 2.971 2.971 0 015.942 0m16.508 0a2.971 2.971 0 11-5.943 0 2.971 2.971 0 015.943 0m15.847 16.508a2.971 2.971 0 11-5.942 0 2.971 2.971 0 015.942 0m16.508 0a2.971 2.971 0 11-5.942 0 2.971 2.971 0 015.942 0m-97.726 0a2.971 2.971 0 11-5.942 0 2.971 2.971 0 015.942 0m16.508 0a2.971 2.971 0 11-5.942 0 2.971 2.971 0 015.942 0m15.847 0a2.971 2.971 0 11-5.942 0 2.971 2.971 0 015.942 0m16.508 0a2.971 2.971 0 11-5.942 0 2.971 2.971 0 015.942 0m16.508 0a2.971 2.971 0 11-5.943 0 2.971 2.971 0 015.943 0m15.847 17.168a2.971 2.971 0 11-5.942 0 2.971 2.971 0 015.942 0m-81.218 0a2.971 2.971 0 11-5.942 0 2.971 2.971 0 015.942 0m-179.604 0a2.971 2.971 0 11-5.943 0 2.971 2.971 0 015.943 0m-15.848 0a2.971 2.971 0 11-5.942 0 2.971 2.971 0 015.942 0m-14.526 0a2.971 2.971 0 11-5.943 0 2.971 2.971 0 015.943 0m-15.188 0a2.971 2.971 0 11-5.942 0 2.971 2.971 0 015.942 0m29.714-17.168a2.971 2.971 0 11-5.942 0 2.971 2.971 0 015.942 0m-14.526 0a2.971 2.971 0 11-5.943 0 2.971 2.971 0 015.943 0m-15.188 0a2.971 2.971 0 11-5.942 0 2.971 2.971 0 015.942 0m-15.187 0a2.971 2.971 0 11-5.942 0 2.971 2.971 0 015.942 0m15.187-16.508a2.971 2.971 0 11-5.942 0 2.971 2.971 0 015.942 0m-15.187 0a2.971 2.971 0 11-5.942 0 2.971 2.971 0 015.942 0m44.901 50.183a2.971 2.971 0 11-5.942 0 2.971 2.971 0 015.942 0m0 16.508a2.971 2.971 0 11-5.942 0 2.971 2.971 0 015.942 0m-14.526-16.508a2.971 2.971 0 11-5.943 0 2.971 2.971 0 015.943 0m0 16.508a2.971 2.971 0 11-5.943 0 2.971 2.971 0 015.943 0M74.74 381.776a2.971 2.971 0 11-5.942 0 2.971 2.971 0 015.942 0m36.978-7.923a2.971 2.971 0 11-5.942 0 2.971 2.971 0 015.942 0" opacity=".601"/><path fill="#EC3128" d="M96.53 373.853a2.971 2.971 0 11-5.941 0 2.971 2.971 0 015.942 0" opacity=".8"/><path fill="#B3CEE2" d="M111.718 389.04a2.971 2.971 0 11-5.942 0 2.971 2.971 0 015.942 0m-15.187 0a2.971 2.971 0 11-5.942 0 2.971 2.971 0 015.942 0m0 16.507a2.971 2.971 0 11-5.943.001 2.971 2.971 0 015.943 0M80.683 389.04a2.971 2.971 0 11-5.942 0 2.971 2.971 0 015.942 0m0-15.187a2.971 2.971 0 11-5.942 0 2.971 2.971 0 015.942 0m31.035-17.829a2.971 2.971 0 11-5.942 0 2.971 2.971 0 015.942 0m-15.187 0a2.971 2.971 0 11-5.942 0 2.971 2.971 0 015.942 0m-15.848 0a2.971 2.971 0 11-5.942 0 2.971 2.971 0 015.942 0m-14.527 0a2.971 2.971 0 11-5.942 0 2.971 2.971 0 015.942 0" opacity=".601"/><path fill="#20386D" d="M80.683 340.176a2.971 2.971 0 11-5.942.001 2.971 2.971 0 015.942 0" opacity=".8"/><path fill="#B3CEE2" d="M66.156 340.176a2.971 2.971 0 11-5.942.001 2.971 2.971 0 015.942 0m0-17.169a2.971 2.971 0 11-5.942.001 2.971 2.971 0 015.942 0m-15.187 0a2.971 2.971 0 11-5.942 0 2.971 2.971 0 015.942 0m265.445 42.26a2.971 2.971 0 11-5.942 0 2.971 2.971 0 015.942 0m15.847 0a2.971 2.971 0 11-5.942 0 2.971 2.971 0 015.942 0" opacity=".601"/><path fill="#EC3128" d="M348.77 365.269a2.971 2.971 0 11-5.943 0 2.971 2.971 0 015.942 0" opacity=".8"/><path fill="#B3CEE2" d="M365.277 365.269a2.971 2.971 0 11-5.943 0 2.971 2.971 0 015.943 0m15.847 16.507a2.971 2.971 0 11-5.942 0 2.971 2.971 0 015.942 0m-81.218 0a2.971 2.971 0 11-5.942 0 2.971 2.971 0 015.942 0m16.508 0a2.971 2.971 0 11-5.942 0 2.971 2.971 0 015.942 0m15.847 0a2.971 2.971 0 11-5.942 0 2.971 2.971 0 015.942 0m16.508 0a2.971 2.971 0 11-5.942 0 2.971 2.971 0 015.942 0m16.508 0a2.971 2.971 0 11-5.943 0 2.971 2.971 0 015.943 0m32.355 0a2.971 2.971 0 11-5.942 0 2.971 2.971 0 015.942 0m34.996 0a2.971 2.971 0 11-5.942 0 2.971 2.971 0 015.942 0m-41.6 7.264a2.971 2.971 0 11-5.941 0 2.971 2.971 0 015.942 0m32.355 0a2.971 2.971 0 11-5.942 0 2.971 2.971 0 015.942 0m-113.573 0a2.971 2.971 0 11-5.942 0 2.971 2.971 0 015.942 0m16.508 0a2.971 2.971 0 11-5.943 0 2.971 2.971 0 015.943 0m15.847 0a2.971 2.971 0 11-5.943 0 2.971 2.971 0 015.943 0m16.508 0a2.971 2.971 0 11-5.942 0 2.971 2.971 0 015.942 0m15.847 0a2.971 2.971 0 11-5.942 0 2.971 2.971 0 015.942 0m-64.71 16.507a2.971 2.971 0 11-5.942.001 2.971 2.971 0 015.942 0m16.508 0a2.971 2.971 0 11-5.943 0 2.971 2.971 0 015.943 0m15.847 0a2.971 2.971 0 11-5.943 0 2.971 2.971 0 015.943 0m16.508 0a2.971 2.971 0 11-5.943 0 2.971 2.971 0 015.943 0m-48.863 16.507a2.971 2.971 0 11-5.942 0 2.971 2.971 0 015.942 0m16.508 0a2.971 2.971 0 11-5.943 0 2.971 2.971 0 015.943 0m15.847 0a2.971 2.971 0 11-5.943 0 2.971 2.971 0 015.943 0m-15.847 16.508a2.971 2.971 0 11-5.943 0 2.971 2.971 0 015.943 0m15.847 0a2.971 2.971 0 11-5.943 0 2.971 2.971 0 015.943 0m16.508-16.508a2.971 2.971 0 11-5.943 0 2.971 2.971 0 015.943 0m15.847-16.508a2.971 2.971 0 11-5.942 0 2.971 2.971 0 015.942 0m50.844 0a2.971 2.971 0 11-5.942.001 2.971 2.971 0 015.942 0m-44.24-7.264a2.971 2.971 0 11-5.943 0 2.971 2.971 0 015.942 0m35.657 0a2.971 2.971 0 11-5.942 0 2.971 2.971 0 015.942 0m-116.875 0a2.971 2.971 0 11-5.942 0 2.971 2.971 0 015.942 0m16.508 0a2.971 2.971 0 11-5.943 0 2.971 2.971 0 015.943 0m15.847 0a2.971 2.971 0 11-5.942 0 2.971 2.971 0 015.942 0m16.508 0a2.971 2.971 0 11-5.942 0 2.971 2.971 0 015.942 0m16.508 0a2.971 2.971 0 11-5.943 0 2.971 2.971 0 015.943 0m-48.863 15.847a2.971 2.971 0 11-5.943 0 2.971 2.971 0 015.943 0m15.847 0a2.971 2.971 0 11-5.942.001 2.971 2.971 0 015.942 0m16.508 0a2.971 2.971 0 11-5.942 0 2.971 2.971 0 015.942 0m-32.355 16.507a2.971 2.971 0 11-5.942 0 2.971 2.971 0 015.942 0m15.847 0a2.971 2.971 0 11-5.942 0 2.971 2.971 0 015.942 0m16.508 0a2.971 2.971 0 11-5.942 0 2.971 2.971 0 015.942 0m16.508-16.508a2.971 2.971 0 11-5.943 0 2.971 2.971 0 015.943 0m51.504 0a2.971 2.971 0 11-5.942 0 2.971 2.971 0 015.942 0M219.348 313.764a2.971 2.971 0 11-5.942 0 2.971 2.971 0 015.942 0m16.508 0a2.971 2.971 0 11-5.943 0 2.971 2.971 0 015.943 0m15.848 0a2.971 2.971 0 11-5.943 0 2.971 2.971 0 015.943 0m16.507 0a2.971 2.971 0 11-5.942 0 2.971 2.971 0 015.942 0m16.508 0a2.971 2.971 0 11-5.942 0 2.971 2.971 0 015.942 0m9.244-187.528a2.971 2.971 0 11-5.942 0 2.971 2.971 0 015.942 0m15.848 0a2.971 2.971 0 11-5.942 0 2.971 2.971 0 015.942 0m16.508 0a2.971 2.971 0 11-5.943 0 2.971 2.971 0 015.943 0m-25.753 24.432a2.971 2.971 0 11-5.942 0 2.971 2.971 0 015.942 0m-64.71 0a2.971 2.971 0 11-5.943 0 2.971 2.971 0 015.943 0m56.787 7.923a2.971 2.971 0 11-5.943 0 2.971 2.971 0 015.943 0m-48.863 0a2.971 2.971 0 11-5.943 0 2.971 2.971 0 015.943 0m-14.527 0a2.971 2.971 0 11-5.942.001 2.971 2.971 0 015.942 0" opacity=".601"/><path fill="#86B7E1" d="M284.719 166.515a2.971 2.971 0 11-5.942 0 2.971 2.971 0 015.942 0" opacity=".8"/><path fill="#B3CEE2" d="M251.704 166.515a2.971 2.971 0 11-5.943 0 2.971 2.971 0 015.943 0m-32.356 0a2.971 2.971 0 11-5.942 0 2.971 2.971 0 015.942 0m49.524 17.168a2.971 2.971 0 11-5.943 0 2.971 2.971 0 015.943 0m-17.829 0a2.971 2.971 0 11-5.942 0 2.971 2.971 0 015.942 0m9.905 7.924a2.971 2.971 0 11-5.942 0 2.971 2.971 0 015.942 0m15.187-17.168a2.971 2.971 0 11-5.942 0 2.971 2.971 0 015.942 0m-15.847 0a2.971 2.971 0 11-5.943 0 2.971 2.971 0 015.943 0m-16.508 0a2.971 2.971 0 11-5.943 0 2.971 2.971 0 015.943 0m.66 34.336a2.971 2.971 0 11-5.942 0 2.971 2.971 0 015.942 0m-15.187 0a2.971 2.971 0 11-5.942 0 2.971 2.971 0 015.942 0m7.263 7.924a2.971 2.971 0 11-5.942 0 2.971 2.971 0 015.942 0m15.848 0a2.971 2.971 0 11-5.943 0 2.971 2.971 0 015.943 0m0-16.508a2.971 2.971 0 11-5.943 0 2.971 2.971 0 015.943 0m16.508 0a2.971 2.971 0 11-5.943 0 2.971 2.971 0 015.943 0m-32.356 0a2.971 2.971 0 11-5.942 0 2.971 2.971 0 015.942 0m105.65-73.955a2.971 2.971 0 11-5.943 0 2.971 2.971 0 015.943 0m16.508 0a2.971 2.971 0 11-5.943 0 2.971 2.971 0 015.943 0m15.847 0a2.971 2.971 0 11-5.942 0 2.971 2.971 0 015.942 0m16.508 0a2.971 2.971 0 11-5.942 0 2.971 2.971 0 015.942 0m16.508 0a2.971 2.971 0 11-5.943 0 2.971 2.971 0 015.943 0m15.187 0a2.971 2.971 0 11-5.943 0 2.971 2.971 0 015.943 0" opacity=".601"/><g stroke-linecap="round" stroke-linejoin="round" stroke-width="1.101"><path stroke="#B5CFE4" d="M373.097 20.755L155.929 391.996m300.18-245.354L295.974 279.356"/><path stroke="#223971" d="M373.097 20.755l-149.586 8.633m210.482 23.649L398.042 358.98m-54.905-115.819L155.929 391.996"/><path stroke="#B5CFE4" d="M100.903 229.853l55.026 162.143m-55.026-162.143L14.329 346.508m86.574-116.655l356.302-84.308"/><path stroke="#223971" d="M263.395 265.544l134.647 91.235"/><path stroke="#B5CFE4" d="M100.903 229.853l413.06 94.644M222.462 30.438l291.941 294.429M457.47 142.545l56.493 181.952m0-130.594L398.042 358.98"/><path stroke="#223971" d="M307.8 450.69l-39.246 89.707"/><path stroke="#B5CFE4" d="M305.845 451.555l-176.329 57.096"/><path stroke="#223971" d="M478.013 391.996l-79.971-35.217"/><path stroke="#B5CFE4" d="M155.195 391.996l113.359 148.401M155.195 391.996l-26.412 116.655"/><path stroke="#223971" d="M51.747 436.75l104.182-44.754"/><path stroke="#B5CFE4" d="M100.903 229.853l-86.645-53.104"/><path stroke="#223971" d="M262.346 258.197L224.979 29.388"/><path stroke="#B5CFE4" d="M307.8 450.69l90.242-91.71M307.8 450.69l147.968-.294"/><path stroke="#1D2737" d="M305.845 451.555l-18.382-245.473"/><path stroke="#223971" d="M478.013 391.996l35.95-67.499"/><path stroke="#B5CFE4" d="M478.013 391.996L268.554 540.397"/><path stroke="#223971" d="M513.963 193.903l-.82 132.616"/></g><path fill="#20386D" fill-rule="nonzero" d="M453.326 56.668V53.75l1.104-1.145 2.957 4.062h2.522l-4.062-5.493 3.898-4.048h-2.576l-3.843 4.17v-4.17h-2.1v9.54h2.1zm10.036 0v-9.54h-2.099v9.54h2.099zm9.232 0V54.76h-4.757v-7.633h-2.098v9.54h6.855zm8.428 0V54.76h-4.756v-7.633h-2.1v9.54h6.856zm7.752 0v-2.862h1.594c2.14 0 3.858-1.145 3.858-3.353v-.027c0-1.95-1.377-3.299-3.653-3.299h-3.898v9.54h2.099zm1.663-4.73h-1.663v-2.916h1.622c1.05 0 1.703.504 1.703 1.445v.027c0 .818-.613 1.444-1.662 1.444zm7.433 4.73v-3.053h1.649l2.044 3.053h2.454l-2.331-3.408c1.213-.45 2.044-1.417 2.044-2.957v-.027c0-.9-.286-1.65-.817-2.181-.627-.627-1.568-.968-2.78-.968h-4.362v9.54h2.099zm2.126-4.907h-2.126v-2.74h2.085c1.022 0 1.65.464 1.65 1.364v.027c0 .804-.587 1.35-1.61 1.35zm10.254 5.07c2.944 0 5.084-2.221 5.084-4.933v-.028c0-2.712-2.113-4.906-5.056-4.906-2.944 0-5.084 2.221-5.084 4.934v.027c0 2.712 2.112 4.906 5.056 4.906zm.028-1.935c-1.69 0-2.89-1.363-2.89-2.998v-.028c0-1.635 1.172-2.97 2.862-2.97 1.69 0 2.89 1.362 2.89 2.998v.027c0 1.635-1.172 2.971-2.862 2.971zm11.385 1.935c1.84 0 2.93-.654 3.912-1.703l-1.336-1.35c-.75.682-1.417 1.118-2.508 1.118-1.635 0-2.767-1.363-2.767-2.998v-.028c0-1.635 1.159-2.97 2.767-2.97.954 0 1.704.408 2.44 1.076l1.336-1.54c-.886-.873-1.963-1.472-3.762-1.472-2.93 0-4.975 2.221-4.975 4.934v.027c0 2.74 2.085 4.906 4.893 4.906zm12.844-.163V54.8h-5.18v-2.004h4.499V50.93h-4.498v-1.935h5.11v-1.868h-7.195v9.54h7.264zm5.252.136c2.058 0 3.503-1.063 3.503-2.957v-.028c0-1.662-1.09-2.358-3.026-2.862-1.649-.422-2.058-.627-2.058-1.254v-.027c0-.463.423-.831 1.227-.831s1.636.354 2.48.94l1.09-1.581c-.967-.777-2.152-1.213-3.543-1.213-1.949 0-3.339 1.145-3.339 2.876v.027c0 1.895 1.24 2.426 3.162 2.917 1.595.409 1.922.681 1.922 1.213v.027c0 .559-.518.9-1.377.9-1.09 0-1.99-.45-2.848-1.159l-1.24 1.486a6.071 6.071 0 004.047 1.526zm8.578 0c2.058 0 3.503-1.063 3.503-2.957v-.028c0-1.662-1.09-2.358-3.026-2.862-1.649-.422-2.058-.627-2.058-1.254v-.027c0-.463.423-.831 1.227-.831s1.636.354 2.48.94l1.09-1.581c-.967-.777-2.153-1.213-3.543-1.213-1.949 0-3.339 1.145-3.339 2.876v.027c0 1.895 1.24 2.426 3.162 2.917 1.595.409 1.922.681 1.922 1.213v.027c0 .559-.518.9-1.377.9-1.09 0-1.99-.45-2.848-1.159l-1.24 1.486a6.071 6.071 0 004.047 1.526zm-15.04 141.827v-2.862h1.594c2.14 0 3.857-1.145 3.857-3.353v-.027c0-1.95-1.376-3.299-3.652-3.299h-3.898v9.54h2.098zm1.662-4.73h-1.663v-2.916h1.622c1.05 0 1.704.504 1.704 1.444v.028c0 .817-.613 1.444-1.663 1.444zm5.702 4.73l.873-2.14h4.034l.872 2.14h2.195l-4.09-9.609h-1.935l-4.088 9.609h2.14zm4.157-3.994h-2.535l1.268-3.093 1.267 3.093zm8.374 3.994v-7.605h2.903v-1.936h-7.905v1.936h2.903v7.605h2.099zm8.564.163c1.84 0 2.93-.654 3.912-1.703l-1.336-1.35c-.75.682-1.417 1.118-2.508 1.118-1.635 0-2.766-1.363-2.766-2.998v-.028c0-1.635 1.158-2.97 2.766-2.97.954 0 1.704.408 2.44 1.076l1.336-1.54c-.886-.873-1.963-1.472-3.762-1.472-2.93 0-4.975 2.221-4.975 4.934v.027c0 2.74 2.086 4.906 4.893 4.906zm7.679-.163v-3.83h3.87v3.83h2.1v-9.54h-2.1v3.775h-3.87v-3.776h-2.1v9.54h2.1zM182.795 13.286l1.335-1.485-.981-.832c.531-.79.845-1.73.845-2.74v-.026c0-2.713-2.113-4.907-5.057-4.907-2.944 0-5.084 2.222-5.084 4.934v.027c0 2.712 2.113 4.907 5.057 4.907a5.2 5.2 0 002.835-.818l1.05.94zm-3.858-2.058c-1.69 0-2.89-1.363-2.89-2.998v-.027c0-1.636 1.173-2.972 2.863-2.972s2.89 1.363 2.89 2.999v.027c0 .477-.096.927-.26 1.308l-1.567-1.417-1.336 1.5 1.554 1.321c-.368.177-.79.26-1.254.26zm10.895 1.922c2.562 0 4.184-1.418 4.184-4.307V3.46h-2.099v5.465c0 1.513-.776 2.29-2.058 2.29-1.28 0-2.058-.805-2.058-2.358V3.46h-2.099v5.45c0 2.808 1.568 4.239 4.13 4.239zm7.297-.15l.872-2.14h4.034l.873 2.14h2.194l-4.089-9.609h-1.935L194.989 13h2.14zm4.157-3.993h-2.535l1.267-3.094 1.268 3.094zM208.664 13V9.947h1.65L212.358 13h2.453l-2.33-3.407c1.213-.45 2.044-1.418 2.044-2.958v-.027c0-.9-.286-1.65-.818-2.18-.627-.628-1.567-.968-2.78-.968h-4.361V13h2.098zm2.127-4.907h-2.127V5.354h2.086c1.022 0 1.649.463 1.649 1.363v.027c0 .804-.586 1.35-1.608 1.35zM217.733 13l.872-2.14h4.035l.872 2.14h2.194l-4.089-9.609h-1.935L215.593 13h2.14zm4.157-3.993h-2.535l1.267-3.094 1.268 3.094zM229.241 13V6.935l4.62 6.065h1.786V3.46h-2.072v5.874l-4.47-5.874h-1.935V13h2.071zm13.008 0V5.395h2.903V3.46h-7.905v1.935h2.903V13h2.099zm6.697 0V3.46h-2.099V13h2.099zm4.448 0V6.935l4.62 6.065h1.786V3.46h-2.072v5.874l-4.47-5.874h-1.935V13h2.071zm15.952 0v-1.867h-5.18V9.129h4.498V7.262h-4.498V5.327h5.111V3.46h-7.196V13h7.265zm18.904 532.72v-3.053h1.649l2.044 3.053h2.453l-2.33-3.408c1.213-.45 2.044-1.417 2.044-2.957v-.028c0-.9-.286-1.649-.818-2.18-.627-.627-1.567-.968-2.78-.968h-4.361v9.54h2.099zm2.126-4.907h-2.126v-2.74h2.085c1.022 0 1.649.464 1.649 1.363v.028c0 .804-.586 1.349-1.608 1.349zm12.885 4.907v-1.868h-5.18v-2.003h4.498v-1.867h-4.498v-1.936h5.111v-1.867h-7.196v9.54h7.265zm3.916 0v-6.188l2.658 4.034h.055l2.685-4.075v6.229h2.085v-9.54h-2.263l-2.507 4.033-2.508-4.034h-2.263v9.54h2.058zm17.028 0v-1.868h-5.179v-2.003h4.498v-1.867h-4.498v-1.936h5.111v-1.867h-7.196v9.54h7.264zm5.58 0c2.998 0 5.07-2.086 5.07-4.77v-.028c0-2.685-2.072-4.743-5.07-4.743h-3.72v9.54h3.72zm0-1.895h-1.622v-5.751h1.622c1.717 0 2.876 1.185 2.876 2.875v.028c0 1.69-1.159 2.848-2.876 2.848zm9.123 1.895v-9.54h-2.099v9.54h2.1zm3.699 0l.872-2.14h4.034l.873 2.14h2.194l-4.089-9.609h-1.935l-4.089 9.609h2.14zm4.157-3.994h-2.535l1.267-3.094 1.268 3.094zm8.373 3.994v-7.606h2.903v-1.935h-7.905v1.935h2.903v7.606h2.1zm11.767 0v-1.868h-5.179v-2.003h4.498v-1.867h-4.498v-1.936h5.111v-1.867h-7.196v9.54h7.264zm130.538-148.263v-9.54h-2.1v9.54h2.1zm4.448 0v-6.065l4.62 6.065h1.786v-9.54h-2.072v5.874l-4.47-5.874h-1.936v9.54h2.072zm13.58.069l3.857-9.61h-2.263l-2.494 6.72-2.494-6.72h-2.317l3.857 9.61h1.854zm12.585-.069v-1.867h-5.18v-2.003h4.498v-1.868h-4.497v-1.935h5.11v-1.867h-7.196v9.54h7.265zm5.252.137c2.058 0 3.503-1.063 3.503-2.958v-.027c0-1.663-1.09-2.358-3.026-2.862-1.649-.423-2.058-.627-2.058-1.254v-.027c0-.464.423-.832 1.227-.832s1.635.355 2.48.94l1.09-1.58c-.967-.777-2.153-1.213-3.543-1.213-1.949 0-3.339 1.144-3.339 2.875v.028c0 1.894 1.24 2.426 3.162 2.916 1.595.41 1.922.682 1.922 1.213v.028c0 .558-.518.9-1.377.9-1.09 0-1.99-.45-2.848-1.16l-1.24 1.486a6.071 6.071 0 004.047 1.527zm9.437-.137v-7.605h2.903v-1.935h-7.905v1.935h2.903v7.605h2.099zm6.697 0v-9.54h-2.099v9.54h2.099zm6.97.164c1.744 0 3.094-.682 4.075-1.513v-4.143h-4.143v1.812h2.112v1.363c-.531.382-1.213.573-1.976.573-1.69 0-2.89-1.281-2.89-3.026v-.027c0-1.622 1.213-2.971 2.74-2.971 1.104 0 1.758.354 2.494.967l1.322-1.594c-.995-.845-2.03-1.309-3.748-1.309-2.89 0-5.002 2.222-5.002 4.934v.027c0 2.822 2.045 4.907 5.016 4.907zm7.406-.164l.872-2.14h4.034l.872 2.14h2.195l-4.09-9.608h-1.934l-4.09 9.608h2.14zm4.156-3.993h-2.535l1.268-3.094 1.267 3.094zm8.374 3.993v-7.605h2.903v-1.935h-7.905v1.935h2.903v7.605h2.099zm11.767 0v-1.867h-5.179v-2.003h4.498v-1.868h-4.498v-1.935h5.111v-1.867h-7.196v9.54h7.264zM16.977 463.84c2.562 0 4.184-1.418 4.184-4.307v-5.384h-2.099v5.466c0 1.512-.777 2.29-2.058 2.29-1.281 0-2.058-.805-2.058-2.359v-5.397h-2.099v5.452c0 2.808 1.568 4.239 4.13 4.239zm8.387-.15v-6.065l4.62 6.065h1.786v-9.54h-2.072v5.873l-4.47-5.874h-1.936v9.54h2.072zm10.881 0v-9.54h-2.099v9.54h2.1zm4.449 0v-6.065l4.62 6.065h1.785v-9.54h-2.071v5.873l-4.47-5.874h-1.936v9.54h2.072zm12.08.136c2.058 0 3.503-1.063 3.503-2.958v-.027c0-1.663-1.09-2.358-3.026-2.862-1.649-.423-2.058-.627-2.058-1.254v-.027c0-.464.423-.832 1.227-.832s1.635.355 2.48.94l1.09-1.58c-.967-.777-2.153-1.213-3.543-1.213-1.949 0-3.339 1.145-3.339 2.876v.027c0 1.894 1.24 2.426 3.162 2.917 1.595.408 1.922.681 1.922 1.213v.027c0 .559-.518.9-1.377.9-1.09 0-1.99-.45-2.848-1.16l-1.24 1.486a6.071 6.071 0 004.047 1.527zm9.437-.136v-7.605h2.903v-1.936h-7.905v1.936h2.903v7.605h2.099zm4.598 0l.872-2.14h4.035l.872 2.14h2.194l-4.089-9.609h-1.935l-4.089 9.609h2.14zm4.157-3.994h-2.535l1.268-3.094 1.267 3.094zm12.135 3.994v-1.908h-4.756v-7.633h-2.1v9.54h6.856zm8.428 0v-1.908h-4.756v-7.633h-2.1v9.54h6.856z"/><path fill="#223971" d="M442.019 53.565a8.437 8.437 0 11-16.875 0 8.437 8.437 0 0116.875 0m-210.03-24.136a8.437 8.437 0 11-16.875 0 8.437 8.437 0 0116.875 0m290 165.002a8.437 8.437 0 11-16.874 0 8.437 8.437 0 0116.875 0m-35.95 198.827a8.437 8.437 0 11-16.875 0 8.437 8.437 0 0116.874 0M59.773 436.545a8.437 8.437 0 11-16.875 0 8.437 8.437 0 0116.875 0m216.88 104.612a8.437 8.437 0 11-16.874 0 8.437 8.437 0 0116.875 0"/><path fill="#FFF" stroke="#223971" stroke-width="1.947" d="M384.939 20.99c0 6.929-5.617 12.546-12.546 12.546-6.929 0-12.546-5.617-12.546-12.546 0-6.93 5.617-12.546 12.546-12.546 6.929 0 12.546 5.617 12.546 12.546z"/><path fill="#FFF" stroke="#B5CFE4" stroke-width="1.947" d="M469.312 145.715c0 6.929-5.617 12.546-12.546 12.546-6.93 0-12.546-5.617-12.546-12.546 0-6.929 5.617-12.546 12.546-12.546 6.929 0 12.546 5.617 12.546 12.546zM26.17 346.743c0 6.928-5.616 12.546-12.546 12.546-6.928 0-12.545-5.618-12.545-12.546 0-6.93 5.617-12.546 12.545-12.546 6.93 0 12.546 5.617 12.546 12.546zm-3.683-169.58a8.584 8.584 0 11-17.168 0 8.584 8.584 0 0117.168 0z"/><path fill="#FFF" stroke="#223971" stroke-width="1.947" d="M522.797 324.696a9.574 9.574 0 01-9.575 9.574 9.574 9.574 0 01-9.574-9.574 9.574 9.574 0 019.574-9.575 9.574 9.574 0 019.575 9.575z"/><path fill="#EDF3F8" stroke="#223971" stroke-width="1.947" d="M410.324 357.381c0 6.929-5.617 12.546-12.546 12.546-6.929 0-12.546-5.617-12.546-12.546 0-6.929 5.617-12.546 12.546-12.546 6.93 0 12.546 5.617 12.546 12.546z"/><path fill="#FFF" stroke="#B5CFE4" stroke-width="1.947" d="M460.36 454.241c0 6.929-5.616 12.546-12.545 12.546s-12.546-5.617-12.546-12.546c0-6.929 5.617-12.546 12.546-12.546 6.929 0 12.546 5.617 12.546 12.546zm-319.002 54.644c0 6.93-5.617 12.546-12.546 12.546-6.929 0-12.546-5.617-12.546-12.546 0-6.928 5.617-12.545 12.546-12.545 6.929 0 12.546 5.617 12.546 12.545z"/><path fill="#F7FAFC" stroke="#223971" stroke-width="1.947" d="M173.713 392.634c0 10.394-8.426 18.819-18.82 18.819-10.393 0-18.818-8.425-18.818-18.819 0-10.393 8.425-18.819 18.819-18.819 10.393 0 18.819 8.426 18.819 18.819z"/><path fill="#FFF" stroke="#B5CFE4" stroke-width="1.947" d="M111.204 230.271a9.574 9.574 0 01-9.575 9.575 9.575 9.575 0 119.574-9.574z"/><path fill="#FFF" stroke="#223971" stroke-width="1.947" d="M315.9 451.622a9.574 9.574 0 01-9.575 9.574 9.575 9.575 0 119.574-9.574z"/><g filter="url(#a)" transform="translate(164.357 165.288)"><path fill="#FEFEFE" d="M96.584 0C43.242 0 0 43.242 0 96.584c0 53.342 43.242 96.584 96.584 96.584 53.342 0 96.584-43.242 96.584-96.584C193.168 43.242 149.926 0 96.584 0"/><path fill="url(#b)" d="M30.954 58.287a2.007 2.007 0 00-.17.047l-.004.001-13.723 4.459a1.71 1.71 0 00-1.098 2.155 1.712 1.712 0 001.626 1.182c.175 0 .353-.028.529-.085l9.896-3.216c-8.626 17.775-10.019 37.843-3.896 56.688 6.28 19.327 19.71 35.052 37.815 44.277a76.037 76.037 0 0034.53 8.282c12.35 0 24.699-3 35.906-8.985a1.71 1.71 0 00.704-2.313 1.712 1.712 0 00-2.314-.702c-20.971 11.198-46.119 11.449-67.273.67-17.292-8.81-30.119-23.828-36.116-42.286-5.826-17.93-4.529-37.023 3.628-53.951l3.154 9.705a1.709 1.709 0 001.625 1.183A1.71 1.71 0 0037.4 73.16l-4.46-13.727a1.71 1.71 0 00-1.985-1.144"/><path fill="url(#c)" d="M60.803 30.075a1.71 1.71 0 001.61 3.017c20.971-11.199 46.12-11.45 67.273-.672 17.292 8.81 30.118 23.829 36.117 42.287 5.825 17.931 4.527 37.023-3.63 53.951l-3.152-9.705a1.71 1.71 0 00-3.252 1.056l4.46 13.727a1.71 1.71 0 001.359 1.162 1.715 1.715 0 00.795-.063l.006-.002 13.723-4.459a1.71 1.71 0 001.096-2.155 1.708 1.708 0 00-2.154-1.097l-9.895 3.216c8.625-17.774 10.018-37.842 3.895-56.688-6.28-19.327-19.71-35.051-37.815-44.277a76.029 76.029 0 00-34.53-8.28 76.206 76.206 0 00-35.906 8.982"/><path fill="#B8CBDC" d="M50.689 32.95h11.687v-2.866H50.689zM40.36 38.479h19.984v-2.866H40.36zm10.791 5.029H65.82v-2.866H51.151zm85.069 108.277h13.475v-2.866H136.22zm-7.357 5.529h23.805v-2.866h-23.805zm9.716 5.029h8.651v-2.866h-8.651z"/><path fill="#D72C30" d="M96.495 43.962c29.06 0 43.675 15.409 43.675 15.409s1.67 11.406.603 34.37c-1.61 34.695-44.268 55.531-44.27 55.535-.004 0-42.661-20.84-44.272-55.534-1.067-22.965.604-34.371.604-34.371s14.599-15.409 43.66-15.409"/><path fill="#FEFEFE" d="M74.736 88.956c0-12.266 9.786-22.247 21.814-22.247 12.04 0 21.832 9.705 21.832 21.634 0 9.525-8.261 17.362-14.627 21.389 2.47 1.394 7.919 2.862 13.139 3.336 7.622-5.845 12.27-14.882 12.27-24.725 0-17.82-14.63-32.32-32.614-32.32-17.983 0-32.613 14.5-32.613 32.32 0 10.764 4.523 20.327 13.077 27.655 8.001 6.85 19.7 11.42 33.021 13.585 2.888-1.578 7.822-6.244 9.675-8.98-11.128-1.414-21.657-4.104-28.715-7.776-10.79-5.607-16.259-13.64-16.259-23.87"/></g></g></svg>