<svg id="Layer_5" data-name="Layer 5" xmlns="http://www.w3.org/2000/svg" viewBox="0 0 15.27 30.93">
  <title>accuracy-icon</title>
  <g>
    <circle cx="7.86" cy="7.41" r="3.45" style="fill: #184893"/>
    <path d="M9.55,24c2-4.62,4.94-11.59,5.58-13.48a7.41,7.41,0,1,0-14-.31c.35,1.24,3.17,8.87,5,13.8C2.82,24.39.34,25.88.34,27.66c0,2.09,3.38,3.77,7.54,3.77s7.54-1.69,7.54-3.77C15.43,25.87,12.92,24.37,9.55,24Zm-6.08-16A4.73,4.73,0,1,1,8.2,12.67,4.73,4.73,0,0,1,3.47,7.94ZM8.8,25.73c1.42.23,2.45.89,2.45,1.68,0,1-1.59,1.78-3.56,1.78s-3.56-.79-3.56-1.78c0-.82,1.13-1.51,2.66-1.71l.94,2.52Zm-.92,5.18c-3.59,0-6.51-1.46-6.51-3.25,0-1.53,2.12-2.81,5-3.15l.34.91c-1.79.22-3.12,1-3.12,2,0,1.14,1.85,2.06,4.13,2.06s4.13-.93,4.13-2.06c0-.92-1.22-1.7-2.89-2l.41-1c2.89.33,5.06,1.62,5.06,3.17C14.39,29.46,11.48,30.92,7.88,30.92Z" transform="translate(-0.34 -0.5)" style="fill: #184893"/>
  </g>
</svg>
