<svg id="Layer_1" data-name="Layer 1" xmlns="http://www.w3.org/2000/svg" viewBox="0 0 30.02 30">
  <title>adobe-pdf-icon</title>
  <polyline points="30.02 30 0 30 0 0 30.02 0 30.02 30" style="fill: #ea4c3a"/>
  <path d="M15.37,4.38c0.45,0.21.36,0.49,0.22,1.79a27.13,27.13,0,0,1-1.53,6.22,33.48,33.48,0,0,1-3.47,6.54,18,18,0,0,1-3,3.56,3.45,3.45,0,0,1-1.66.89,0.48,0.48,0,0,1-.6-0.18,1.22,1.22,0,0,1,0-.82,2.56,2.56,0,0,1,.8-1.28,10.34,10.34,0,0,1,2.66-1.77,28.32,28.32,0,0,1,4.12-1.54,30,30,0,0,1,3.2-.75,24,24,0,0,1,2.39-.34,14.24,14.24,0,0,1,2.19,0,13.28,13.28,0,0,1,2,.32,5.1,5.1,0,0,1,1.55.6,2.6,2.6,0,0,1,1,1.08,1.5,1.5,0,0,1,0,1.23,1.33,1.33,0,0,1-.84.66,2.1,2.1,0,0,1-1.27,0,6.2,6.2,0,0,1-1.66-.89,15.72,15.72,0,0,1-2.06-1.77,35.42,35.42,0,0,1-2.69-3,21.09,21.09,0,0,1-2-3,11.32,11.32,0,0,1-.93-2.36,12.46,12.46,0,0,1-.43-2.12,7.49,7.49,0,0,1,0-1.71,2.57,2.57,0,0,1,.32-1.05,1.12,1.12,0,0,1,.54-0.41,1.43,1.43,0,0,1,.35-0.07,0.63,0.63,0,0,1,.33,0,2.54,2.54,0,0,1,.5.27" style="fill: none;stroke: #fff;stroke-linejoin: round;stroke-width: 1.399999976158142px"/>
</svg>
