<svg xmlns="http://www.w3.org/2000/svg" viewBox="0 0 346.59 375.328"><defs><linearGradient id="b" x1="123.525" y1="233.301" x2="124.685" y2="232.594" gradientTransform="matrix(313.767 0 0 -296.902 -38764.115 69390.092)" gradientUnits="userSpaceOnUse"><stop offset="0" stop-color="#455daa"/><stop offset=".035" stop-color="#4360ad"/><stop offset=".459" stop-color="#3689c8"/><stop offset=".795" stop-color="#2da1d9"/><stop offset=".999" stop-color="#2aabe0"/></linearGradient><linearGradient id="c" x1="123.64" y1="236.647" x2="124.639" y2="236.647" gradientTransform="matrix(345.09 0 0 -32.072 -42666.263 7607.024)" gradientUnits="userSpaceOnUse"><stop offset="0" stop-color="#455daa"/><stop offset=".999" stop-color="#2aabe0"/></linearGradient><mask id="a" x="18.846" y="78.426" width="313.767" height="296.902" maskUnits="userSpaceOnUse"><path d="M187.5 89.892c.676-2.87 3.55-5.907 6.424-6.414a97.966 97.966 0 0138.376 0c2.874.676 5.917 3.545 6.424 6.414a97.436 97.436 0 010 38.316c-.676 2.87-3.55 5.908-6.424 6.414a93.259 93.259 0 01-19.273 1.857 106.491 106.491 0 01-19.27-1.858c-2.875-.675-5.918-3.545-6.425-6.414a100.713 100.713 0 01.17-38.316zm-76.582 0c.676-2.87 3.55-5.907 6.424-6.414a97.961 97.961 0 0138.375 0c2.875.676 5.918 3.545 6.425 6.414a97.436 97.436 0 010 38.316c-.676 2.87-3.55 5.908-6.424 6.414a93.217 93.217 0 01-19.27 1.857 106.506 106.506 0 01-19.273-1.858c-2.874-.675-5.917-3.545-6.424-6.414a100.713 100.713 0 01.17-38.316zm-76.583 0c.676-2.87 3.55-5.907 6.423-6.414a97.966 97.966 0 0138.376 0c2.873.676 5.916 3.545 6.423 6.414a97.436 97.436 0 010 38.316c-.676 2.87-3.55 5.908-6.424 6.414a93.259 93.259 0 01-19.273 1.857 106.532 106.532 0 01-19.273-1.858c-2.874-.675-5.917-3.545-6.424-6.414a100.753 100.753 0 01.17-38.316zm0 76.462c.676-2.87 3.55-5.907 6.423-6.414a97.966 97.966 0 0138.376 0c2.873.676 5.916 3.545 6.423 6.414a97.436 97.436 0 010 38.316c-.676 2.87-3.55 5.908-6.424 6.414a93.258 93.258 0 01-19.273 1.857 106.529 106.529 0 01-19.273-1.856c-2.874-.675-5.917-3.545-6.424-6.414a100.753 100.753 0 01.17-38.316zm51.223 191.24c-.676 2.87-3.55 5.908-6.424 6.414a93.258 93.258 0 01-19.273 1.857 106.53 106.53 0 01-19.273-1.857c-2.874-.675-5.917-3.545-6.424-6.414a97.436 97.436 0 010-38.316c.677-2.87 3.55-5.907 6.424-6.414a97.966 97.966 0 0138.376 0c2.874.676 5.917 3.545 6.424 6.414a94.377 94.377 0 01.174 38.316zm0-76.462c-.676 2.87-3.55 5.908-6.424 6.414a93.258 93.258 0 01-19.269 1.854 106.53 106.53 0 01-19.273-1.857c-2.874-.675-5.917-3.545-6.424-6.414a97.436 97.436 0 010-38.316c.677-2.87 3.55-5.907 6.424-6.414a97.966 97.966 0 0138.376 0c2.874.676 5.917 3.545 6.424 6.414a94.377 94.377 0 01.17 38.319zm25.36-114.778c.675-2.87 3.55-5.907 6.423-6.414a97.961 97.961 0 0138.375 0c2.875.676 5.918 3.545 6.425 6.414a97.436 97.436 0 010 38.316c-.676 2.87-3.55 5.908-6.424 6.414a93.216 93.216 0 01-19.27 1.857 106.5 106.5 0 01-19.273-1.856c-2.874-.675-5.917-3.545-6.424-6.414a100.713 100.713 0 01.17-38.316zm51.222 191.24c-.676 2.87-3.55 5.908-6.424 6.414a93.216 93.216 0 01-19.27 1.857 106.5 106.5 0 01-19.273-1.857c-2.874-.675-5.917-3.545-6.424-6.414a97.436 97.436 0 010-38.316c.676-2.87 3.55-5.907 6.424-6.414a97.961 97.961 0 0138.375 0c2.874.676 5.917 3.545 6.424 6.414a94.377 94.377 0 01.17 38.316zm0-76.462c-.676 2.87-3.55 5.908-6.424 6.414a93.216 93.216 0 01-19.27 1.857 106.5 106.5 0 01-19.273-1.857c-2.874-.675-5.917-3.545-6.424-6.414a97.436 97.436 0 010-38.316c.676-2.87 3.55-5.907 6.424-6.414a97.961 97.961 0 0138.375 0c2.874.676 5.917 3.545 6.424 6.414a94.377 94.377 0 01.17 38.316zm25.36-114.778c.675-2.87 3.55-5.907 6.423-6.414a97.966 97.966 0 0138.376 0c2.874.676 5.917 3.545 6.424 6.414a97.436 97.436 0 010 38.316c-.676 2.87-3.55 5.908-6.424 6.414a93.258 93.258 0 01-19.273 1.857 106.488 106.488 0 01-19.27-1.856c-2.875-.675-5.918-3.545-6.425-6.414a100.713 100.713 0 01.17-38.316zm51.223 191.24c-.676 2.87-3.55 5.908-6.424 6.414a93.258 93.258 0 01-19.273 1.857 106.489 106.489 0 01-19.27-1.857c-2.875-.675-5.918-3.545-6.425-6.414a97.436 97.436 0 010-38.316c.676-2.87 3.55-5.907 6.424-6.414a97.961 97.961 0 0138.375 0c2.873.676 5.917 3.545 6.424 6.414a94.377 94.377 0 01.168 38.316zm0-76.462c-.676 2.87-3.55 5.908-6.424 6.414a93.258 93.258 0 01-19.269 1.854 106.489 106.489 0 01-19.27-1.857c-2.875-.675-5.918-3.545-6.425-6.414a97.436 97.436 0 010-38.316c.676-2.87 3.55-5.907 6.424-6.414a97.961 97.961 0 0138.375 0c2.873.676 5.917 3.545 6.424 6.414a94.377 94.377 0 01.168 38.316zm25.358-191.24c.676-2.87 3.55-5.907 6.424-6.414a97.966 97.966 0 0138.376 0c2.874.676 5.917 3.545 6.424 6.414a97.436 97.436 0 010 38.316c-.676 2.87-3.55 5.908-6.424 6.414a93.239 93.239 0 01-19.273 1.857 106.512 106.512 0 01-19.272-1.858c-2.873-.675-5.916-3.545-6.423-6.414a100.713 100.713 0 01.17-38.316zm0 76.462c.676-2.87 3.55-5.907 6.424-6.414a97.966 97.966 0 0138.376 0c2.874.676 5.917 3.545 6.424 6.414a97.436 97.436 0 010 38.316c-.676 2.87-3.55 5.908-6.424 6.414a93.239 93.239 0 01-19.273 1.857 106.51 106.51 0 01-19.272-1.856c-2.873-.675-5.916-3.545-6.423-6.414a100.713 100.713 0 01.17-38.316zm51.224 114.778c-.676 2.87-3.55 5.908-6.424 6.414a93.239 93.239 0 01-19.273 1.857 106.511 106.511 0 01-19.272-1.857c-2.873-.675-5.916-3.545-6.423-6.414a97.436 97.436 0 010-38.316c.676-2.87 3.55-5.907 6.424-6.414a97.971 97.971 0 0138.377 0c2.874.676 5.917 3.545 6.424 6.414a94.342 94.342 0 01.17 38.316z" fill="#fff" transform="translate(-.147 -.498)"/></mask></defs><g mask="url(#a)"><path d="M18.993 78.924H332.76v296.9H18.993z" transform="translate(-.147 -.498)" fill="url(#b)"/></g><path d="M20.176 49.865h215.52v11.912H20.177z" fill="none"/><g style="isolation:isolate" fill="#262626"><path d="M13.647 59.025v-.03a5.239 5.239 0 015.329-5.357 5.411 5.411 0 014.07 1.613l-1.17 1.351a4.14 4.14 0 00-2.916-1.272 3.471 3.471 0 00-3.4 3.641V59a3.491 3.491 0 003.419 3.671 4.047 4.047 0 002.974-1.337l1.169 1.184a5.345 5.345 0 01-4.2 1.836 5.2 5.2 0 01-5.275-5.329zM24.925 53.371h1.806v10.8h-1.806zM28.64 60.313v-.029a4.168 4.168 0 018.333-.029v.029a4.086 4.086 0 01-4.189 4.07 4.042 4.042 0 01-4.144-4.041zm6.542 0v-.029a2.416 2.416 0 00-2.4-2.517 2.346 2.346 0 00-2.354 2.487v.029a2.409 2.409 0 002.383 2.5 2.345 2.345 0 002.371-2.47zM38.704 61.334v-4.973h1.791v4.441c0 1.214.606 1.895 1.672 1.895a1.726 1.726 0 001.761-1.924v-4.41h1.806v7.814h-1.806v-1.215a2.812 2.812 0 01-2.442 1.377 2.684 2.684 0 01-2.782-3.005zM47.568 60.283v-.029a3.73 3.73 0 013.627-4.052 3.2 3.2 0 012.664 1.376v-4.2h1.794v10.8h-1.794v-1.3a3.127 3.127 0 01-2.664 1.466 3.748 3.748 0 01-3.627-4.061zm6.32 0v-.029a2.346 2.346 0 00-2.265-2.5 2.3 2.3 0 00-2.25 2.5v.029a2.325 2.325 0 002.25 2.5 2.354 2.354 0 002.266-2.5zM66.216 53.741h1.688l4.559 10.435h-1.924l-1.051-2.5h-4.9l-1.065 2.5h-1.87zm2.605 6.32l-1.791-4.145-1.777 4.146zM74.016 56.361h1.806v1.3a3.128 3.128 0 012.664-1.459 3.738 3.738 0 013.626 4.056v.029a3.739 3.739 0 01-3.626 4.056 3.191 3.191 0 01-2.664-1.377v3.582h-1.806zm6.275 3.922v-.029a2.324 2.324 0 00-2.235-2.5 2.357 2.357 0 00-2.279 2.5v.029a2.356 2.356 0 002.279 2.5 2.289 2.289 0 002.235-2.5zM83.947 56.361h1.806v1.3a3.128 3.128 0 012.663-1.459 3.738 3.738 0 013.626 4.056v.029a3.739 3.739 0 01-3.626 4.056 3.191 3.191 0 01-2.663-1.381v3.582h-1.806zm6.275 3.922v-.029a2.324 2.324 0 00-2.235-2.5 2.357 2.357 0 00-2.279 2.5v.029a2.356 2.356 0 002.279 2.5 2.289 2.289 0 002.235-2.5zM93.253 63.154l.8-1.214a4.419 4.419 0 002.561.963c.77 0 1.213-.326 1.213-.844v-.03c0-.606-.828-.813-1.746-1.095-1.154-.326-2.442-.8-2.442-2.279v-.03a2.5 2.5 0 012.783-2.4 5.424 5.424 0 012.871.888l-.711 1.273a4.533 4.533 0 00-2.205-.74c-.7 0-1.095.341-1.095.77v.03c0 .577.843.813 1.761 1.109 1.14.355 2.428.873 2.428 2.279v.03c0 1.643-1.273 2.457-2.9 2.457a5.392 5.392 0 01-3.318-1.167z"/></g><path d="M238.653 357.662c-.676 2.87-3.55 5.91-6.424 6.415a93.235 93.235 0 01-19.272 1.857 106.421 106.421 0 01-19.272-1.857c-2.874-.675-5.917-3.544-6.425-6.414a97.463 97.463 0 010-38.314c.677-2.87 3.55-5.908 6.425-6.414a97.884 97.884 0 0138.375 0c2.874.675 5.917 3.544 6.424 6.414a94.337 94.337 0 01.17 38.315z" fill="none"/><path d="M198.691 336.984c3.38.506 4.9 1.687 4.9 4.388s-2.367 4.557-5.748 4.557c-3.55 0-5.748-2.025-5.917-4.388l3.043-.508a2.566 2.566 0 002.874 2.364c1.522 0 2.705-.507 2.705-1.857 0-1.014-.845-1.52-3.043-1.858-3.043-.506-5.24-1.52-5.24-4.388s2.366-4.22 5.41-4.22 5.24 1.35 5.747 3.882l-3.042.675a2.481 2.481 0 00-2.705-2.193c-1.52 0-2.367.675-2.367 1.52 0 1.35 1.015 1.687 3.382 2.025zm20.207 9.324h-3.212l-1.184-3.376h-5.073l-1.183 3.376h-3.043l5.242-14.347h3.38l5.073 14.346zm-6.763-10.97c-.17.843-1.69 5.23-1.69 5.23h3.38s-1.52-4.22-1.69-5.23zm17.92 10.085a7.858 7.858 0 01-2.874.507c-4.226 0-6.93-2.87-6.93-7.426 0-4.726 2.7-7.426 6.93-7.426s6.93 2.87 6.93 7.427a7.748 7.748 0 01-2.2 5.74l1.352 1.35-1.69 1.52-1.522-1.69zm-2.874-2.024a1.26 1.26 0 00.845-.17l-1.352-1.518 1.692-1.52 1.52 1.688a5.526 5.526 0 001.015-3.544c0-2.87-1.183-4.895-3.888-4.895-2.537 0-3.89 2.025-3.89 4.895.17 3.038 1.522 5.064 4.058 5.064z" fill="#f6fafd"/><path d="M85.54 357.662c-.676 2.87-3.55 5.91-6.424 6.415a93.236 93.236 0 01-19.272 1.857 106.429 106.429 0 01-19.272-1.857c-2.874-.675-5.917-3.544-6.424-6.414a97.426 97.426 0 010-38.314c.676-2.87 3.55-5.908 6.424-6.414a97.889 97.889 0 0138.376 0c2.874.675 5.917 3.544 6.424 6.414a94.372 94.372 0 01.17 38.315z" fill="none"/><path d="M47.026 336.984c3.38.506 4.9 1.687 4.9 4.388s-2.367 4.557-5.748 4.557c-3.55 0-5.748-2.025-5.917-4.388l3.044-.508a2.566 2.566 0 002.874 2.364c1.52 0 2.7-.507 2.7-1.857 0-1.014-.846-1.52-3.043-1.858-3.043-.506-5.24-1.52-5.24-4.388s2.366-4.22 5.41-4.22 5.24 1.35 5.747 3.882l-3.043.675a2.481 2.481 0 00-2.7-2.193c-1.523 0-2.368.675-2.368 1.52 0 1.35 1.014 1.687 3.38 2.025zm13.614-5.908c3.043 0 5.24 1.35 6.086 4.05l-3.043 1.014c-.507-1.52-1.353-2.532-3.212-2.532-2.536 0-3.72 2.025-3.72 4.895s1.184 4.9 3.89 4.9a3.056 3.056 0 003.042-2.364l2.874 1.013a6.051 6.051 0 01-6.086 3.882c-4.227 0-6.93-2.7-6.93-7.426s2.7-7.426 7.1-7.426zm20.754 15.232h-3.21l-1.185-3.376h-5.07l-1.185 3.376h-3.043l5.24-14.347h3.382l5.07 14.341zm-6.93-10.97c-.17.843-1.69 5.23-1.69 5.23h3.379c.171 0-1.351-4.22-1.689-5.23z" fill="#f6fafd"/><path d="M162.539 357.662c-.676 2.87-3.55 5.91-6.424 6.415a93.236 93.236 0 01-19.272 1.857 106.421 106.421 0 01-19.272-1.857c-2.874-.675-5.917-3.544-6.425-6.414a97.463 97.463 0 010-38.314c.677-2.87 3.55-5.908 6.425-6.414a97.884 97.884 0 0138.375 0c2.874.675 5.917 3.544 6.424 6.414a94.372 94.372 0 01.17 38.315z" fill="none"/><path d="M123.639 331.076c3.043 0 5.24 1.35 6.086 4.05l-3.043 1.014c-.508-1.52-1.353-2.532-3.213-2.532-2.535 0-3.72 2.025-3.72 4.895s1.185 4.9 3.89 4.9a3.056 3.056 0 003.042-2.364l2.873 1.013a6.051 6.051 0 01-6.086 3.882c-4.226 0-6.93-2.7-6.93-7.426s2.7-7.426 7.1-7.426zm13.823 5.908c3.38.506 4.9 1.687 4.9 4.388s-2.367 4.557-5.748 4.557c-3.55 0-5.748-2.025-5.917-4.388l3.043-.508a2.566 2.566 0 002.874 2.364c1.52 0 2.705-.507 2.705-1.857 0-1.014-.847-1.52-3.044-1.858-3.043-.506-5.24-1.52-5.24-4.388s2.366-4.22 5.41-4.22 5.24 1.35 5.747 3.882l-3.043.675a2.481 2.481 0 00-2.705-2.193c-1.522 0-2.367.675-2.367 1.52 0 1.35 1.014 1.687 3.38 2.025zm20.206 9.324h-3.215l-1.183-3.376h-5.07l-1.184 3.376h-3.043l5.24-14.347h3.38l5.073 14.346zm-6.93-10.97c-.17.843-1.692 5.23-1.692 5.23h3.38s-1.35-4.22-1.69-5.23z" fill="#f6fafd"/><path d="M238.653 280.664c-.676 2.87-3.55 5.908-6.424 6.414a93.235 93.235 0 01-19.272 1.857 106.421 106.421 0 01-19.272-1.857c-2.874-.675-5.917-3.545-6.425-6.414a97.469 97.469 0 010-38.315c.677-2.87 3.55-5.908 6.425-6.414a97.885 97.885 0 0138.375 0c2.874.675 5.917 3.544 6.424 6.414a94.337 94.337 0 01.17 38.315z" fill="none"/><path d="M200.605 264.085v5.064h-3.043v-14.347h5.408c3.382 0 5.748 1.35 5.748 4.557s-2.366 4.726-5.748 4.726h-2.365zm2.2-6.752h-2.03v4.22h2.03c1.86 0 2.873-.674 2.873-2.193s-1.014-2.026-2.874-2.026zm14.25-2.53c3.043 0 5.24 1.35 6.086 4.05l-3.043 1.013c-.508-1.52-1.353-2.532-3.212-2.532-2.535 0-3.72 2.027-3.72 4.9s1.185 4.895 3.89 4.895a3.057 3.057 0 003.043-2.362l2.874 1.013a6.051 6.051 0 01-6.086 3.883c-4.226 0-6.93-2.7-6.93-7.427.168-4.726 2.873-7.426 7.1-7.426zm8.831 0h3.043v14.347h-3.046" fill="#f6fafd"/><path d="M315.653 280.664c-.677 2.87-3.55 5.908-6.425 6.414a93.236 93.236 0 01-19.272 1.857 106.421 106.421 0 01-19.272-1.857c-2.873-.675-5.916-3.545-6.423-6.414a97.431 97.431 0 010-38.315c.676-2.87 3.55-5.908 6.424-6.414a97.89 97.89 0 0138.376 0c2.874.675 5.917 3.544 6.425 6.414a94.373 94.373 0 01.17 38.315z" fill="none"/><path d="M272.815 269.149v-14.347h9.806v2.53h-6.763v3.208h6.256v2.532h-6.255v6.077m8.462-14.347h3.043v14.347h-3.042m12.449 0c-.845-2.2-2.7-7.765-3.38-10.3v10.3h-2.875v-14.347h4.227s3.043 9.283 3.55 10.633c.338-1.35 3.38-10.633 3.38-10.633h4.228v14.347h-2.874v-10.3c-.846 2.532-2.874 8.61-3.382 10.3z" fill="#f6fafd"/><path d="M111.168 242.349c.676-2.87 3.55-5.908 6.424-6.414a97.885 97.885 0 0138.375 0c2.874.675 5.917 3.544 6.424 6.414a97.468 97.468 0 010 38.315c-.677 2.87-3.55 5.908-6.425 6.414a93.238 93.238 0 01-19.273 1.857 106.421 106.421 0 01-19.272-1.857c-2.874-.675-5.917-3.545-6.424-6.414a100.708 100.708 0 01.17-38.315z" fill="none"/><path d="M126.975 264.085v5.064h-3.043v-14.347h5.41c3.38 0 5.747 1.35 5.747 4.557s-2.367 4.726-5.748 4.726h-2.366zm2.03-6.752h-2.03v4.22h2.03c1.858 0 2.872-.674 2.872-2.193s-1.014-2.026-2.873-2.026zm14.418-2.53c3.043 0 5.24 1.35 6.086 4.05l-3.043 1.013c-.507-1.52-1.353-2.532-3.212-2.532-2.535 0-3.718 2.027-3.718 4.9s1.183 4.895 3.888 4.895a3.056 3.056 0 003.043-2.362l2.874 1.013a6.051 6.051 0 01-6.086 3.883c-4.226 0-6.93-2.7-6.93-7.427s2.7-7.426 7.1-7.426z" fill="#f6fafd"/><path d="M34.169 242.349c.676-2.87 3.55-5.908 6.424-6.414a97.89 97.89 0 0138.376 0c2.874.675 5.917 3.544 6.424 6.414a97.431 97.431 0 010 38.315c-.676 2.87-3.55 5.908-6.424 6.414a93.252 93.252 0 01-19.273 1.857 106.421 106.421 0 01-19.272-1.857c-2.873-.675-5.916-3.545-6.423-6.414a100.708 100.708 0 01.17-38.315z" fill="none"/><path d="M56.215 254.802l-3.55 14.347h-3.55s-1.52-6.92-2.2-9.453c-.507 2.532-2.2 9.453-2.2 9.453h-3.55l-3.545-14.347h3.042s1.86 8.1 2.366 10.633c.507-2.7 2.536-10.633 2.536-10.633h2.874s2.03 8.1 2.536 10.633c.507-2.7 2.367-10.633 2.367-10.633h2.874zm13.684 14.347h-3.212l-1.184-3.376h-5.07l-1.18 3.377h-3.048l5.24-14.347h3.213l5.24 14.347zm-6.93-10.972c-.17.844-1.692 5.233-1.692 5.233h3.376s-1.35-4.22-1.69-5.233zm9.167 10.972v-14.347h9.805v2.53h-6.762v3.208h6.255v2.532H75.18v6.077" fill="#f6fafd"/><path d="M111.168 166.234c.676-2.87 3.55-5.907 6.424-6.414a97.961 97.961 0 0138.375 0c2.874.676 5.917 3.545 6.424 6.414a97.474 97.474 0 010 38.316c-.677 2.87-3.55 5.908-6.425 6.414a93.238 93.238 0 01-19.273 1.857 106.513 106.513 0 01-19.272-1.858c-2.874-.675-5.917-3.545-6.424-6.414a100.713 100.713 0 01.17-38.316z" fill="none"/><path d="M119.319 178.602h3.043v14.347h-3.044m13.135-14.347c4.226 0 6.93 2.87 6.93 7.427s-2.7 7.426-6.93 7.426-6.932-2.868-6.932-7.425c-.17-4.727 2.7-7.427 6.932-7.427zm0 12.32c2.536 0 3.888-2.024 3.888-4.893s-1.183-4.9-3.888-4.9c-2.536 0-3.89 2.025-3.89 4.9s1.185 4.894 3.89 4.894zm15.207-12.32c3.043 0 5.24 1.35 6.086 4.05l-3.043 1.014c-.507-1.52-1.352-2.532-3.212-2.532-2.535 0-3.72 2.025-3.72 4.9s1.185 4.894 3.89 4.894a3.056 3.056 0 003.042-2.364l2.874 1.013a6.051 6.051 0 01-6.086 3.88c-4.226 0-6.93-2.7-6.93-7.425s2.7-7.427 7.1-7.427z" fill="#f6fafd"/><path d="M187.283 166.234c.675-2.87 3.55-5.907 6.423-6.414a97.966 97.966 0 0138.376 0c2.873.676 5.916 3.545 6.423 6.414a97.436 97.436 0 010 38.316c-.676 2.87-3.55 5.908-6.424 6.414a93.258 93.258 0 01-19.273 1.857 106.506 106.506 0 01-19.273-1.858c-2.874-.675-5.917-3.545-6.424-6.414a100.713 100.713 0 01.17-38.316z" fill="none"/><path d="M206.495 178.602c3.043 0 5.24 1.35 6.086 4.05l-3.043 1.014c-.507-1.52-1.352-2.532-3.212-2.532-2.536 0-3.72 2.025-3.72 4.9s1.184 4.894 3.89 4.894a3.056 3.056 0 003.042-2.364l2.874 1.013a6.053 6.053 0 01-6.087 3.88c-4.226 0-6.93-2.7-6.93-7.425s2.7-7.427 7.1-7.427zm14.708 5.907c3.38.507 4.9 1.688 4.9 4.39s-2.367 4.556-5.748 4.556c-3.55 0-5.748-2.024-5.917-4.387l3.043-.507a2.566 2.566 0 002.874 2.363c1.522 0 2.705-.507 2.705-1.857 0-1.013-.846-1.52-3.044-1.857-3.043-.506-5.24-1.52-5.24-4.388s2.366-4.22 5.41-4.22 5.24 1.35 5.747 3.882l-3.043.675a2.481 2.481 0 00-2.705-2.194c-1.52 0-2.366.676-2.366 1.52 0 1.35 1.013 1.688 3.38 2.025z" fill="#f6fafd"/><path d="M264.281 166.234c.677-2.87 3.55-5.907 6.424-6.414a97.966 97.966 0 0138.376 0c2.874.676 5.917 3.545 6.424 6.414a97.436 97.436 0 010 38.316c-.676 2.87-3.55 5.908-6.424 6.414a93.236 93.236 0 01-19.272 1.857 106.532 106.532 0 01-19.273-1.858c-2.874-.675-5.917-3.545-6.424-6.414a100.712 100.712 0 01.168-38.316z" fill="none"/><path d="M284.966 178.602l-3.55 14.347h-3.55s-1.522-6.92-2.2-9.452c-.507 2.532-2.2 9.452-2.2 9.452h-3.55l-3.55-14.347h3.043s1.86 8.1 2.366 10.634c.508-2.7 2.536-10.634 2.536-10.634h2.874s2.03 8.1 2.536 10.634c.507-2.7 2.367-10.634 2.367-10.634h2.874zm14.568 14.347h-3.21l-1.184-3.376h-5.072l-1.183 3.375h-3.042l5.24-14.347h3.212l5.24 14.347zm-6.93-10.97c-.17.843-1.69 5.23-1.69 5.23h3.38s-1.52-4.222-1.69-5.232zm14.16 2.53c3.382.507 4.9 1.688 4.9 4.39s-2.366 4.556-5.748 4.556c-3.55 0-5.747-2.024-5.917-4.387l3.043-.507a2.567 2.567 0 002.875 2.363c1.522 0 2.7-.507 2.7-1.857 0-1.013-.845-1.52-3.043-1.857-3.043-.506-5.24-1.52-5.24-4.388s2.366-4.22 5.41-4.22 5.24 1.35 5.747 3.882l-3.043.675a2.479 2.479 0 00-2.7-2.194c-1.52 0-2.366.676-2.366 1.52.17 1.35 1.183 1.688 3.38 2.025z" fill="#f6fafd"/><path d="M34.169 166.234c.676-2.87 3.55-5.907 6.424-6.414a97.966 97.966 0 0138.376 0c2.874.676 5.917 3.545 6.424 6.414a97.436 97.436 0 010 38.316c-.676 2.87-3.55 5.908-6.424 6.414a93.252 93.252 0 01-19.273 1.857 106.513 106.513 0 01-19.272-1.858c-2.873-.675-5.916-3.545-6.423-6.414a100.713 100.713 0 01.17-38.316z" fill="none"/><path d="M51.166 178.602c3.043 0 5.24 1.35 6.086 4.05l-3.044 1.014c-.508-1.52-1.353-2.532-3.213-2.532-2.535 0-3.72 2.025-3.72 4.9s1.185 4.894 3.89 4.894a3.058 3.058 0 003.043-2.364l2.873 1.013a6.052 6.052 0 01-6.087 3.88c-4.226 0-6.93-2.7-6.93-7.425.168-4.727 2.873-7.427 7.1-7.427zm14.2 14.347c-.845-2.194-2.705-7.764-3.38-10.3v10.295h-2.875v-14.342h4.226s3.043 9.283 3.55 10.634c.34-1.35 3.382-10.634 3.382-10.634h4.395v14.347h-2.873v-10.297c-.845 2.53-2.874 8.607-3.38 10.295h-3.045z" fill="#f6fafd"/><path d="M34.169 89.235c.676-2.87 3.55-5.907 6.424-6.414a97.852 97.852 0 0138.376 0c2.874.674 5.917 3.544 6.424 6.413a97.436 97.436 0 010 38.316c-.676 2.868-3.55 5.906-6.424 6.413a93.25 93.25 0 01-19.273 1.856 106.511 106.511 0 01-19.272-1.857c-2.873-.675-5.916-3.545-6.423-6.414a100.718 100.718 0 01.17-38.317z" fill="none"/><path d="M63.183 116.537h-3.21l-1.184-3.375h-5.072l-1.183 3.375h-3.041l5.24-14.347h3.38l5.073 14.347zm-6.93-10.97c-.17.843-1.69 5.23-1.69 5.23h3.38c.17.005-1.352-4.218-1.69-5.23zm9.168-3.377h3.043v14.347h-3.041V102.19" fill="#f6fafd"/><path d="M111.168 89.235c.676-2.87 3.55-5.907 6.424-6.414a97.847 97.847 0 0138.375 0c2.874.674 5.917 3.544 6.424 6.413a97.474 97.474 0 010 38.316c-.677 2.868-3.55 5.906-6.425 6.413a93.237 93.237 0 01-19.273 1.856 106.511 106.511 0 01-19.272-1.857c-2.874-.675-5.917-3.545-6.424-6.414a100.718 100.718 0 01.17-38.317z" fill="none"/><path d="M122.416 108.102c3.38.506 4.9 1.688 4.9 4.388s-2.367 4.558-5.748 4.558c-3.55 0-5.748-2.026-5.917-4.39l3.044-.5a2.565 2.565 0 002.874 2.363c1.522 0 2.705-.507 2.705-1.857 0-1.013-.845-1.52-3.043-1.857-3.043-.506-5.24-1.52-5.24-4.388s2.366-4.22 5.41-4.22 5.24 1.35 5.747 3.882l-3.043.675a2.482 2.482 0 00-2.705-2.194c-1.523 0-2.368.676-2.368 1.52 0 1.182 1.015 1.52 3.38 2.026zm11.924 2.364l-5.41-8.272h3.55l3.55 5.4 3.55-5.4h3.38l-5.408 8.27v5.91h-3.213m9.637-14.18h3.212s4.4 7.09 5.748 9.452v-9.452h2.873v14.347h-3.212s-4.226-6.92-5.747-9.452v9.452h-2.874V102.19z" fill="#f6fafd"/><path d="M187.283 89.235c.675-2.87 3.55-5.907 6.423-6.414a97.852 97.852 0 0138.376 0c2.873.674 5.916 3.544 6.423 6.413a97.436 97.436 0 010 38.316c-.676 2.868-3.55 5.906-6.424 6.413a93.257 93.257 0 01-19.273 1.856 106.5 106.5 0 01-19.273-1.857c-2.874-.675-5.917-3.545-6.424-6.414a100.718 100.718 0 01.17-38.317z" fill="none"/><path d="M199.923 102.19s2.7 7.427 3.55 10.634c1.014-3.207 3.55-10.634 3.55-10.634h3.212l-5.24 14.347h-3.213l-5.242-14.347h3.383zm18.8 14.347c-.845-2.194-2.705-7.764-3.38-10.3v10.295h-2.875v-14.343h4.225s3.043 9.284 3.55 10.634c.34-1.35 3.382-10.634 3.382-10.634h4.228v14.347h-2.874v-10.294c-.846 2.53-2.875 8.607-3.382 10.295h-2.872z" fill="#f6fafd"/><path d="M264.281 89.235c.677-2.87 3.55-5.907 6.424-6.414a97.852 97.852 0 0138.376 0c2.874.674 5.917 3.544 6.424 6.413a97.436 97.436 0 010 38.316c-.676 2.868-3.55 5.906-6.424 6.413a93.234 93.234 0 01-19.272 1.856 106.531 106.531 0 01-19.273-1.857c-2.874-.675-5.917-3.545-6.424-6.414a100.717 100.717 0 01.168-38.317z" fill="none"/><path d="M277.501 102.19h11.327v2.532h-4.058v11.815h-3.043v-11.815h-4.057v-2.532m16.15 9.284v5.063h-3.043V102.19h5.41c3.38 0 5.747 1.35 5.747 4.557s-2.366 4.727-5.747 4.727h-2.367zm2.033-6.752h-2.028v4.22h2.028c1.86 0 2.874-.675 2.874-2.195s-1.015-2.025-2.875-2.025z" fill="#f6fafd"/><path d="M.9 1.248h345.09V33.32H.9z" transform="translate(-.147 -.498)" fill="#fff" stroke-width="1.5" stroke="url(#c)"/><path d="M28.053 9.73s-2.75-2.933-8.247-2.933-8.247 2.933-8.247 2.933a35.747 35.747 0 00-.183 6.6c.366 6.6 8.43 10.63 8.43 10.63s8.064-4.032 8.43-10.63a35.854 35.854 0 00-.183-6.6zm-4.4 10.446a8.946 8.946 0 01-2.564-.55 5.04 5.04 0 002.75-4.032 4.216 4.216 0 00-8.432 0c0 2.016 1.1 3.482 3.116 4.582a14.08 14.08 0 005.5 1.466 5.208 5.208 0 01-1.833 1.65 12.143 12.143 0 01-6.232-2.566 7.052 7.052 0 01-2.565-5.315 6.231 6.231 0 1112.462 0 5.909 5.909 0 01-2.2 4.766z" fill="#e52823"/><path d="M38.686 20.176l.733-.916a5.365 5.365 0 003.482 1.466c1.466 0 2.383-.733 2.383-1.833 0-.915-.55-1.465-2.748-2.015-2.383-.55-3.482-1.283-3.482-2.932s1.466-2.75 3.482-2.75a5.284 5.284 0 013.665 1.284l-.733.916a4.494 4.494 0 00-2.932-1.1c-1.283 0-2.2.734-2.2 1.65s.55 1.466 2.75 2.016c2.382.55 3.3 1.282 3.3 2.93 0 1.834-1.466 2.934-3.482 2.934a6.456 6.456 0 01-4.215-1.65zm9.53-2.382a3.767 3.767 0 013.665-4.032c2.2 0 3.482 1.832 3.482 4.032v.366h-6.047a2.653 2.653 0 002.75 2.566 2.721 2.721 0 002.38-1.1l.734.55a3.667 3.667 0 01-3.115 1.466 3.56 3.56 0 01-3.85-3.848zm6.048-.367c-.182-1.466-.915-2.566-2.382-2.566a2.754 2.754 0 00-2.565 2.565h4.947zm2.567 2.016c0-1.648 1.282-2.565 3.3-2.565a9.3 9.3 0 012.383.367v-.183a1.977 1.977 0 00-2.2-2.017 5.064 5.064 0 00-2.382.55l-.366-.917a6.706 6.706 0 012.75-.55 3.162 3.162 0 012.38.917 2.922 2.922 0 01.734 2.2v4.58h-1.1v-1.282a3.307 3.307 0 01-2.748 1.284 2.631 2.631 0 01-2.75-2.383zm5.68-.55v-.732a6.839 6.839 0 00-2.2-.366q-2.2 0-2.2 1.65a1.665 1.665 0 001.832 1.465 2.32 2.32 0 002.566-2.016zm3.483-4.947h1.1v2.016a3.37 3.37 0 013.115-2.2v1.283a3.191 3.191 0 00-3.116 3.482v3.115h-1.1v-7.7zm5.13 3.85a3.915 3.915 0 013.85-4.033 4.1 4.1 0 013.115 1.283l-.733.916a3.264 3.264 0 00-2.382-1.1 2.938 2.938 0 000 5.864 4.087 4.087 0 002.382-1.1l.733.733a3.665 3.665 0 01-3.115 1.467 3.914 3.914 0 01-3.85-4.032zm8.98-6.965h1.1v4.4a2.726 2.726 0 012.567-1.466 2.841 2.841 0 012.932 3.115v4.765h-1.1v-4.4a2.081 2.081 0 00-2.2-2.383 2.17 2.17 0 00-2.2 2.382v4.4h-1.1V10.83zm8.979 9.161h1.284v1.467h-1.284m3.484-1.467h1.286v1.467h-1.286m3.666-1.467h1.282v1.467h-1.282" fill="#878d9a"/></svg>