<svg xmlns="http://www.w3.org/2000/svg" xmlns:xlink="http://www.w3.org/1999/xlink" width="815" height="514" viewBox="0 0 815 514"><defs><path id="a" d="M0 0h815v514H0z"/><path id="c" d="M0 0h815v514H0z"/><path id="e" d="M0 0h815v514H0z"/><path id="g" d="M0 0h815v514H0z"/><path id="i" d="M0 0h815v514H0z"/><path id="k" d="M0 0h815v514H0z"/><path id="m" d="M0 0h815v514H0z"/></defs><g fill="none" fill-rule="evenodd"><path fill="#F7FAFC" fill-rule="nonzero" d="M0 0h815v514H0z"/><mask id="b" fill="#fff"><use xlink:href="#a"/></mask><g mask="url(#b)"><g fill-rule="nonzero" transform="translate(49 126)"><rect width="715" height="170" fill="#000" rx="2"/><rect width="715" height="170" fill="#FFF" rx="2"/></g><path fill="#30405C" d="M79.39 164l3.19-7.05h.74l3.19 7.05h-.85l-.82-1.85h-3.81L80.2 164h-.81zm1.95-2.56h3.19l-1.59-3.57-1.6 3.57zm6.49 2.56h.77v-7.3h-.77v7.3zm4.82.12c-1.42 0-2.58-1.09-2.58-2.69v-.02c0-1.49 1.05-2.69 2.48-2.69 1.53 0 2.41 1.22 2.41 2.73 0 .1 0 .16-.01.25h-4.1c.11 1.12.9 1.75 1.82 1.75.71 0 1.21-.29 1.63-.73l.48.43c-.52.58-1.15.97-2.13.97zm-1.8-2.99h3.33c-.08-.94-.62-1.76-1.65-1.76-.9 0-1.58.75-1.68 1.76zm5.46 2.87h.77v-2.06c0-1.56.92-2.37 2.05-2.37h.06v-.83c-.98-.04-1.73.58-2.11 1.44v-1.35h-.77V164zm5.78.09c.37 0 .66-.08.93-.22v-.66c-.27.13-.49.18-.75.18-.52 0-.87-.23-.87-.86v-3.02h1.64v-.68h-1.64v-1.56h-.77v1.56h-.72v.68h.72v3.12c0 1.05.63 1.46 1.46 1.46zm4.02.01c1.03 0 1.84-.57 1.84-1.55v-.02c0-.93-.86-1.24-1.66-1.48-.69-.21-1.33-.4-1.33-.89v-.02c0-.43.39-.75 1-.75.5 0 1.05.19 1.53.5l.35-.58c-.53-.35-1.23-.57-1.86-.57-1.02 0-1.76.59-1.76 1.48v.02c0 .95.9 1.23 1.71 1.46.68.19 1.29.39 1.29.91v.02c0 .5-.45.82-1.07.82-.61 0-1.23-.24-1.79-.66l-.39.55c.58.47 1.4.76 2.14.76z"/><path fill="#E5E7EB" fill-rule="nonzero" d="M724 156h10l-5 9-5-9zM80 277h10v5H80v-5zm40 0h10v5h-10v-5zm40 0h10v5h-10v-5zm41 0h10v5h-10v-5zm40 0h10v5h-10v-5zm40 0h10v5h-10v-5zm40 0h10v5h-10v-5zm40 0h10v5h-10v-5zm41 0h10v5h-10v-5zm40 0h10v5h-10v-5zm40 0h10v5h-10v-5zm40 0h10v5h-10v-5zm40 0h10v5h-10v-5zm40 0h10v5h-10v-5zm41 0h10v5h-10v-5zm40 0h10v5h-10v-5zm40 0h10v5h-10v-5z"/><path stroke="#2C75BE" stroke-width="2" d="M77.867 235.21c48.668 1.828 70.195-19.958 105.166-19.985 34.737-.027 68.924 19.986 112.67 19.986 43.818 0 71.111-35.176 97.736-35.176s51.13 35.176 86.952 35.176c47.054 0 61.527-74.402 86.433-74.402 26.801 0 28.342 77.427 166.625 74.402"/><path fill="#2C75BE" fill-opacity=".3" fill-rule="nonzero" d="M78 235.402c48.667 1.828 70.195-19.959 105.166-19.986 34.736-.027 68.924 19.986 112.67 19.986 43.818 0 71.111-35.175 97.736-35.175s51.13 35.175 86.951 35.175c47.055 0 61.528-74.402 86.434-74.402 26.8 0 27.76 78.025 166.043 75v29H78v-29.598z"/><path fill="#000" fill-rule="nonzero" d="M397.378 184.531h34.326A3.296 3.296 0 00435 181.23v-22.928a3.303 3.303 0 00-3.296-3.302h-59.408a3.296 3.296 0 00-3.296 3.302v22.928a3.303 3.303 0 003.296 3.301h15.675l4.703 4.704 4.704-4.704z"/><path fill="#FFF" fill-rule="nonzero" d="M397.378 184.531h34.326A3.296 3.296 0 00435 181.23v-22.928a3.303 3.303 0 00-3.296-3.302h-59.408a3.296 3.296 0 00-3.296 3.302v22.928a3.303 3.303 0 003.296 3.301h15.675l4.703 4.704 4.704-4.704z"/><path stroke="#E5E7EB" stroke-opacity=".7" stroke-width="1.1" d="M392.674 188.457l-4.314-4.315-.161-.16h-15.903a2.753 2.753 0 01-2.746-2.752v-22.928a2.746 2.746 0 012.746-2.752h59.408a2.753 2.753 0 012.746 2.752v22.928a2.746 2.746 0 01-2.746 2.751H397.15l-.161.161-4.315 4.315z"/><path fill="#E5E7EB" fill-rule="nonzero" d="M376.7 162.656h50.6v4.375h-50.6v-4.375zm0 9.844h33v4.375h-33V172.5zm38.5 0h11v4.375h-11V172.5z"/></g><mask id="d" fill="#fff"><use xlink:href="#c"/></mask><path fill="#30405C" fill-rule="nonzero" d="M90.225 57.18c1.965 0 3.165-.72 4.26-1.86l-1.185-1.2c-.9.84-1.725 1.365-3.015 1.365-2.01 0-3.465-1.68-3.465-3.735v-.03c0-2.055 1.455-3.705 3.465-3.705 1.2 0 2.1.525 2.94 1.305l1.185-1.365c-1.005-.96-2.175-1.635-4.11-1.635-3.18 0-5.415 2.445-5.415 5.43v.03c0 3.015 2.28 5.4 5.34 5.4zm9.4 0c-2.415 0-4.2-1.845-4.2-4.095v-.03c0-2.265 1.8-4.14 4.23-4.14 2.43 0 4.215 1.845 4.215 4.11v.03c0 2.25-1.8 4.125-4.245 4.125zm.03-1.575c1.47 0 2.4-1.155 2.4-2.52v-.03c0-1.395-1.005-2.55-2.43-2.55-1.455 0-2.385 1.14-2.385 2.52v.03c0 1.38 1.005 2.55 2.415 2.55zm5.86 1.395h1.815v-4.47c0-1.23.735-1.965 1.785-1.965 1.08 0 1.695.705 1.695 1.935V57h1.815v-5.04c0-1.845-1.035-3.045-2.82-3.045-1.23 0-1.965.645-2.475 1.395v-1.23h-1.815V57zm11.755.135c.675 0 1.185-.15 1.635-.405v-1.485c-.36.18-.72.27-1.125.27-.615 0-.975-.285-.975-.99V50.64h2.13v-1.56h-2.13v-2.175h-1.815v2.175h-1.005v1.56h1.005v4.17c0 1.74.945 2.325 2.28 2.325zm3.325-9.27h1.95V46.14h-1.95v1.725zM120.67 57h1.815v-7.92h-1.815V57zm3.985 0h1.815v-4.47c0-1.23.735-1.965 1.785-1.965 1.08 0 1.695.705 1.695 1.935V57h1.815v-5.04c0-1.845-1.035-3.045-2.82-3.045-1.23 0-1.965.645-2.475 1.395v-1.23h-1.815V57zm11.83.165c1.23 0 1.965-.645 2.475-1.395V57h1.815v-7.92h-1.815v4.47c0 1.23-.735 1.965-1.785 1.965-1.08 0-1.695-.705-1.695-1.935v-4.5h-1.815v5.04c0 1.845 1.035 3.045 2.82 3.045zm10.135.015c-2.415 0-4.2-1.845-4.2-4.095v-.03c0-2.265 1.8-4.14 4.23-4.14 2.43 0 4.215 1.845 4.215 4.11v.03c0 2.25-1.8 4.125-4.245 4.125zm.03-1.575c1.47 0 2.4-1.155 2.4-2.52v-.03c0-1.395-1.005-2.55-2.43-2.55-1.455 0-2.385 1.14-2.385 2.52v.03c0 1.38 1.005 2.55 2.415 2.55zm8.59 1.56c1.23 0 1.965-.645 2.475-1.395V57h1.815v-7.92h-1.815v4.47c0 1.23-.735 1.965-1.785 1.965-1.08 0-1.695-.705-1.695-1.935v-4.5h-1.815v5.04c0 1.845 1.035 3.045 2.82 3.045zm9.085-.015c1.65 0 2.94-.825 2.94-2.49v-.03c0-1.425-1.305-1.95-2.46-2.31-.93-.3-1.785-.54-1.785-1.11v-.03c0-.465.405-.795 1.11-.795.66 0 1.47.285 2.235.75l.72-1.29c-.84-.555-1.92-.9-2.91-.9-1.575 0-2.82.915-2.82 2.415v.03c0 1.515 1.305 1.995 2.475 2.325.93.285 1.77.495 1.77 1.11v.03c0 .525-.45.855-1.23.855-.81 0-1.74-.33-2.595-.975l-.81 1.23c.99.78 2.235 1.185 3.36 1.185zm9.095-.15h1.815v-7.5l3.285 4.92h.06l3.315-4.95V57h1.845V46.5h-1.965l-3.195 4.965-3.195-4.965h-1.965V57zm16.375.18c-2.415 0-4.2-1.845-4.2-4.095v-.03c0-2.265 1.8-4.14 4.23-4.14 2.43 0 4.215 1.845 4.215 4.11v.03c0 2.25-1.8 4.125-4.245 4.125zm.03-1.575c1.47 0 2.4-1.155 2.4-2.52v-.03c0-1.395-1.005-2.55-2.43-2.55-1.455 0-2.385 1.14-2.385 2.52v.03c0 1.38 1.005 2.55 2.415 2.55zm5.86 1.395h1.815v-4.47c0-1.23.735-1.965 1.785-1.965 1.08 0 1.695.705 1.695 1.935V57h1.815v-5.04c0-1.845-1.035-3.045-2.82-3.045-1.23 0-1.965.645-2.475 1.395v-1.23h-1.815V57zm9.13-9.135h1.95V46.14h-1.95v1.725zM204.89 57h1.815v-7.92h-1.815V57zm6.64.135c.675 0 1.185-.15 1.635-.405v-1.485c-.36.18-.72.27-1.125.27-.615 0-.975-.285-.975-.99V50.64h2.13v-1.56h-2.13v-2.175h-1.815v2.175h-1.005v1.56h1.005v4.17c0 1.74.945 2.325 2.28 2.325zm6.835.045c-2.415 0-4.2-1.845-4.2-4.095v-.03c0-2.265 1.8-4.14 4.23-4.14 2.43 0 4.215 1.845 4.215 4.11v.03c0 2.25-1.8 4.125-4.245 4.125zm.03-1.575c1.47 0 2.4-1.155 2.4-2.52v-.03c0-1.395-1.005-2.55-2.43-2.55-1.455 0-2.385 1.14-2.385 2.52v.03c0 1.38 1.005 2.55 2.415 2.55zm5.86 1.395h1.815v-3.015c0-2.1 1.11-3.135 2.7-3.135h.105v-1.92c-1.395-.06-2.31.75-2.805 1.935V49.08h-1.815V57zm6.025-9.135h1.95V46.14h-1.95v1.725zm.075 9.135h1.815v-7.92h-1.815V57zm3.985 0h1.815v-4.47c0-1.23.735-1.965 1.785-1.965 1.08 0 1.695.705 1.695 1.935V57h1.815v-5.04c0-1.845-1.035-3.045-2.82-3.045-1.23 0-1.965.645-2.475 1.395v-1.23h-1.815V57zm12.625 2.43c-1.305 0-2.52-.33-3.54-.945l.675-1.365c.84.525 1.74.84 2.82.84 1.62 0 2.505-.84 2.505-2.43v-.615c-.66.855-1.485 1.455-2.79 1.455-1.86 0-3.6-1.38-3.6-3.705v-.03c0-2.34 1.755-3.72 3.6-3.72 1.335 0 2.16.615 2.775 1.35V49.08h1.815v6.3c0 1.335-.345 2.325-1.005 2.985-.72.72-1.83 1.065-3.255 1.065zm.15-4.59c1.26 0 2.325-.9 2.325-2.175v-.03c0-1.305-1.065-2.19-2.325-2.19-1.26 0-2.25.87-2.25 2.175v.03c0 1.305 1.005 2.19 2.25 2.19z" mask="url(#d)"/><mask id="f" fill="#fff"><use xlink:href="#e"/></mask><g mask="url(#f)"><path stroke="#2E8BE0" d="M70.533 63.147a43.096 43.096 0 01-17.066 0c-1.166-.245-2.369-1.448-2.614-2.614a43.096 43.096 0 010-17.066c.245-1.166 1.448-2.369 2.614-2.614a43.096 43.096 0 0117.066 0c1.166.245 2.369 1.448 2.614 2.614a43.096 43.096 0 010 17.066c-.245 1.166-1.448 2.369-2.614 2.614"/><path fill="#2E8BE0" fill-rule="nonzero" d="M54.375 52.5c0 2.3 1.33 3.64 3.39 3.64 1.53 0 2.5-.73 2.96-1.91l-1.44-.51c-.25.78-.73 1.17-1.5 1.17-1.25 0-1.86-1.01-1.86-2.39 0-1.39.61-2.39 1.85-2.39.84 0 1.29.46 1.53 1.24l1.46-.51c-.42-1.32-1.47-1.98-2.96-1.98-2.11 0-3.43 1.35-3.43 3.64zm11.87 3.5c.3-.85 1.28-3.78 1.68-5.03h.03V56h1.38v-7h-2.09s-1.46 4.52-1.66 5.21c-.21-.69-1.72-5.21-1.72-5.21h-2.1v7h1.38v-5.03h.03c.38 1.25 1.28 3.93 1.67 5.03h1.4z"/></g><mask id="h" fill="#fff"><use xlink:href="#g"/></mask><g mask="url(#h)"><g transform="translate(48 79)"><rect width="715" height="37" fill="#000" fill-rule="nonzero" rx="2"/><rect width="715" height="37" fill="#FFF" fill-rule="nonzero" rx="2"/><path stroke="#E5E7EB" stroke-linecap="square" stroke-width="2" d="M22 22l3.531 3.531"/><circle cx="17" cy="17" r="6" stroke="#E5E7EB" stroke-width="2"/><path fill="#E5E7EB" fill-rule="nonzero" d="M36 16h216v5H36z"/></g></g><mask id="j" fill="#fff"><use xlink:href="#i"/></mask><g mask="url(#j)"><g transform="translate(49 266)" fill-rule="nonzero"><rect width="715" height="234" fill="#000" rx="2" transform="translate(0 40)"/><rect width="715" height="234" fill="#FFF" rx="2" transform="translate(0 40)"/><rect width="12" height="5" x="278" y="100" fill="#FF6E47" rx="1"/><g transform="translate(30)"><path fill="#30405C" d="M60.9 78h1.21v-5l2.19 3.28h.04l2.21-3.3V78h1.23v-7h-1.31l-2.13 3.31L62.21 71H60.9v7zm9.38 0h5.24v-1.1h-4.01v-1.88h3.51v-1.1h-3.51V72.1h3.96V71h-5.19v7zm9.85.1c1.47 0 2.5-.78 2.5-2.09v-.02c0-1.16-.77-1.69-2.25-2.05-1.34-.32-1.66-.56-1.66-1.1v-.02c0-.46.42-.83 1.14-.83.64 0 1.27.25 1.9.72l.66-.93c-.71-.57-1.52-.88-2.54-.88-1.39 0-2.39.83-2.39 2.03v.02c0 1.29.84 1.73 2.33 2.09 1.3.3 1.58.57 1.58 1.07v.02c0 .53-.48.88-1.24.88-.87 0-1.54-.33-2.21-.91l-.74.88c.84.75 1.85 1.12 2.92 1.12zm7 0c1.47 0 2.5-.78 2.5-2.09v-.02c0-1.16-.77-1.69-2.25-2.05-1.34-.32-1.66-.56-1.66-1.1v-.02c0-.46.42-.83 1.14-.83.64 0 1.27.25 1.9.72l.66-.93c-.71-.57-1.52-.88-2.54-.88-1.39 0-2.39.83-2.39 2.03v.02c0 1.29.84 1.73 2.33 2.09 1.3.3 1.58.57 1.58 1.07v.02c0 .53-.48.88-1.24.88-.87 0-1.54-.33-2.21-.91l-.74.88c.84.75 1.85 1.12 2.92 1.12zm3.9-.1l3.08-7.05h1.14L98.33 78h-1.3l-.71-1.69h-3.31L92.29 78h-1.26zm2.43-2.78h2.41l-1.21-2.8-1.2 2.8zm9.66 2.9c1.24 0 2.23-.5 2.92-1.09v-2.94h-2.98v1.07h1.79v1.31c-.43.32-1.03.53-1.69.53-1.43 0-2.38-1.06-2.38-2.5v-.02c0-1.34.98-2.47 2.27-2.47.89 0 1.42.29 1.96.75l.78-.93c-.72-.61-1.47-.95-2.69-.95-2.11 0-3.61 1.66-3.61 3.62v.02c0 2.04 1.44 3.6 3.63 3.6zm5.22-.12h5.24v-1.1h-4.01v-1.88h3.51v-1.1h-3.51V72.1h3.96V71h-5.19v7zm307.56 0h1.23v-2.95h3.34V78h1.23v-7h-1.23v2.91h-3.34V71h-1.23v7zm11.64.12c-2.15 0-3.65-1.63-3.65-3.6v-.02c0-1.97 1.52-3.62 3.67-3.62s3.65 1.63 3.65 3.6v.02c0 1.97-1.52 3.62-3.67 3.62zm.02-1.13c1.39 0 2.36-1.11 2.36-2.47v-.02c0-1.36-.99-2.49-2.38-2.49s-2.36 1.11-2.36 2.47v.02c0 1.36.99 2.49 2.38 2.49zm8.24 1.11c1.47 0 2.5-.78 2.5-2.09v-.02c0-1.16-.77-1.69-2.25-2.05-1.34-.32-1.66-.56-1.66-1.1v-.02c0-.46.42-.83 1.14-.83.64 0 1.27.25 1.9.72l.66-.93c-.71-.57-1.52-.88-2.54-.88-1.39 0-2.39.83-2.39 2.03v.02c0 1.29.84 1.73 2.33 2.09 1.3.3 1.58.57 1.58 1.07v.02c0 .53-.48.88-1.24.88-.87 0-1.54-.33-2.21-.91l-.74.88c.84.75 1.85 1.12 2.92 1.12zm6.22-.1h1.24v-5.86h2.22V71h-5.68v1.14h2.22V78zm9.23 0h1.23v-7h-1.23v7zm3.8 0h1.21v-5l2.19 3.28h.04l2.21-3.3V78h1.23v-7h-1.31l-2.13 3.31-2.13-3.31h-1.31v7zm9.38 0v-7h2.76c1.63 0 2.66.93 2.66 2.34v.02c0 1.57-1.26 2.39-2.8 2.39h-1.39V78h-1.23zm1.23-3.36h1.43c.93 0 1.51-.52 1.51-1.25v-.02c0-.82-.59-1.25-1.51-1.25h-1.43v2.52zm4.85 3.36l3.08-7.05h1.14l3.08 7.05h-1.3l-.71-1.69h-3.31l-.72 1.69h-1.26zm2.43-2.78h2.41l-1.21-2.8-1.2 2.8zm9.59 2.9c1.31 0 2.11-.48 2.84-1.24l-.79-.8c-.6.56-1.15.91-2.01.91-1.34 0-2.31-1.12-2.31-2.49v-.02c0-1.37.97-2.47 2.31-2.47.8 0 1.4.35 1.96.87l.79-.91c-.67-.64-1.45-1.09-2.74-1.09-2.12 0-3.61 1.63-3.61 3.62v.02c0 2.01 1.52 3.6 3.56 3.6zm6.55-.12h1.24v-5.86h2.22V71h-5.68v1.14h2.22V78zm5.46 0h5.24v-1.1h-4.01v-1.88h3.51v-1.1h-3.51V72.1h3.96V71h-5.19v7zm7.4 0v-7h2.61c2.2 0 3.72 1.51 3.72 3.48v.02c0 1.97-1.52 3.5-3.72 3.5h-2.61zm1.23-1.12h1.38c1.47 0 2.43-.99 2.43-2.36v-.02c0-1.37-.96-2.38-2.43-2.38h-1.38v4.76zM587.62 78h1.24v-5.86h2.22V71h-5.68v1.14h2.22V78zm5.53 0h1.23v-7h-1.23v7zm3.8 0h1.21v-5l2.19 3.28h.04l2.21-3.3V78h1.23v-7h-1.31l-2.13 3.31-2.13-3.31h-1.31v7zm9.38 0h5.24v-1.1h-4.01v-1.88h3.51v-1.1h-3.51V72.1h3.96V71h-5.19v7z"/><path fill="#E5E7EB" d="M60 101h178v5H60v-5zM0 0h655v1H0V0zm585 101h70v5h-70v-5zm-170 0h120v5H415v-5zm0 30h120v5H415v-5zm0 30h120v5H415v-5zm0 30h120v5H415v-5zm0 30h120v5H415v-5zm170-90h70v5h-70v-5zm0 30h70v5h-70v-5zm0 30h70v5h-70v-5zm0 30h70v5h-70v-5z"/><rect width="12" height="5" x="340" y="161" fill="#FF6E47" rx="1"/><rect width="12" height="5" x="293" y="221" fill="#FF6E47" rx="1"/><path fill="#E5E7EB" d="M60 131h274.09v5H60z"/><circle cx="37.5" cy="102.5" r="4.5" fill="#FF6E47"/><circle cx="37.5" cy="133.5" r="4.5" fill="#8EBBDC"/><circle cx="37.5" cy="193.5" r="4.5" fill="#6CA3CF"/><circle cx="37.5" cy="163.5" r="4.5" fill="#2C75BE"/><circle cx="37.5" cy="223.5" r="4.5" fill="#2159C8"/><path fill="#E5E7EB" d="M60 161h270v5H60v-5zm0 30h223.05v5H60v-5zm0 30h223v5H60v-5z"/></g></g></g><mask id="l" fill="#fff"><use xlink:href="#k"/></mask><path stroke="#E5E7EB" stroke-width="2" d="M79 364h7v7h-7v-7zm0 60h7v7h-7v-7zm0 30h7v7h-7v-7zm0 30h7v7h-7v-7zm0-90h7v7h-7v-7z" mask="url(#l)"/><mask id="n" fill="#fff"><use xlink:href="#m"/></mask><path fill="#E5E7EB" fill-rule="nonzero" mask="url(#n)" d="M644 157h70v5h-70z"/></g></svg>