<svg width="480" height="580" viewBox="0 0 480 580" xmlns="http://www.w3.org/2000/svg" xmlns:xlink="http://www.w3.org/1999/xlink"><defs><path d="M358.275 212.795h-236.55a5 5 0 01-5-5v-88.654a5 5 0 015-5h236.55a5 5 0 015 5v88.654a5 5 0 01-5 5" id="b"/><path id="c" d="M0 580.676h480V1H0z"/><path d="M358.275 313.045h-236.55a5 5 0 01-5-5v-88.654a5 5 0 015-5h236.55a5 5 0 015 5v88.654a5 5 0 01-5 5" id="f"/><path d="M358.275 413.295h-236.55a5 5 0 01-5-5v-88.653a5 5 0 015-5h236.55a5 5 0 015 5v88.653a5 5 0 01-5 5" id="h"/><filter x="-18.3%" y="-45.6%" width="136.5%" height="191.2%" filterUnits="objectBoundingBox" id="a"><feOffset in="SourceAlpha" result="shadowOffsetOuter1"/><feGaussianBlur stdDeviation="15" in="shadowOffsetOuter1" result="shadowBlurOuter1"/><feColorMatrix values="0 0 0 0 0 0 0 0 0 0 0 0 0 0 0 0 0 0 0.2 0" in="shadowBlurOuter1"/></filter><filter x="-18.3%" y="-45.6%" width="136.5%" height="191.2%" filterUnits="objectBoundingBox" id="e"><feOffset in="SourceAlpha" result="shadowOffsetOuter1"/><feGaussianBlur stdDeviation="15" in="shadowOffsetOuter1" result="shadowBlurOuter1"/><feColorMatrix values="0 0 0 0 0 0 0 0 0 0 0 0 0 0 0 0 0 0 0.2 0" in="shadowBlurOuter1"/></filter><filter x="-18.3%" y="-45.6%" width="136.5%" height="191.2%" filterUnits="objectBoundingBox" id="g"><feOffset in="SourceAlpha" result="shadowOffsetOuter1"/><feGaussianBlur stdDeviation="15" in="shadowOffsetOuter1" result="shadowBlurOuter1"/><feColorMatrix values="0 0 0 0 0 0 0 0 0 0 0 0 0 0 0 0 0 0 0.2 0" in="shadowBlurOuter1"/></filter></defs><g transform="translate(0 -1)" fill="none" fill-rule="evenodd"><path d="M239.956 1c156.3 0 234.865 84.8 234.865 84.8s9.001 62.774 3.271 189.206c-8.647 190.976-238.083 305.67-238.083 305.67S10.555 465.982 1.907 275.007C-3.82 148.575 5.18 85.8 5.18 85.8S83.691 1 239.956 1" fill="#2FACE1"/><path d="M354.796 314.641l5.425-1.988-7.975-98.262 8.025-2.012-242.475-96.33L.122 214.05c.225 18.345.776 38.655 1.785 60.956 6.05 133.608 120.169 229.875 188.187 275.657L361.38 412.21l-6.585-97.568z" fill="#2898BF"/><use fill="#000" filter="url(#a)" xlink:href="#b"/><use fill="#FFF" xlink:href="#b"/><mask id="d" fill="#fff"><use xlink:href="#c"/></mask><path d="M123.995 205.028h232.01v-83.119h-232.01v83.119zm-1.344 1.345H357.35v-85.809H122.651v85.809z" fill="#2FACE1" mask="url(#d)"/><path fill="#2FACE1" mask="url(#d)" d="M144.624 191.064h1.345v-55.191h-1.345zM159.335 191.064h1.345v-55.191h-1.345zM174.047 191.064h1.345v-55.191h-1.345zM304.608 191.064h1.345v-55.191h-1.345zM319.32 191.064h1.345v-55.191h-1.345zM334.031 191.064h1.345v-55.191h-1.345z"/><g mask="url(#d)"><use fill="#000" filter="url(#e)" xlink:href="#f"/><use fill="#FFF" xlink:href="#f"/></g><path d="M123.995 305.278h232.009V222.16H123.995v83.118zm-1.344 1.345h234.698v-85.808H122.651v85.808z" fill="#2FACE1" mask="url(#d)"/><path fill="#2FACE1" mask="url(#d)" d="M144.624 291.314h1.345v-55.191h-1.345zM159.335 291.314h1.345v-55.191h-1.345zM174.047 291.314h1.345v-55.191h-1.345zM304.608 291.314h1.345v-55.191h-1.345zM319.32 291.314h1.345v-55.191h-1.345zM334.031 291.314h1.345v-55.191h-1.345zM277.161 282.173a2.265 2.265 0 00-.807-.47 4.68 4.68 0 00-1.059-.227 8.849 8.849 0 00-1.074-.05 6.234 6.234 0 00-2.128.394 6.512 6.512 0 00-1.834 1.074l-.004-.227a1.137 1.137 0 00-.359-.829 1.138 1.138 0 00-.839-.333 1.15 1.15 0 00-.84.358 1.142 1.142 0 00-.334.84l.161 10.353c.005.325.125.601.358.828.235.227.518.34.852.333a1.14 1.14 0 00.83-.358c.225-.235.337-.515.332-.84l-.08-5.176a3.922 3.922 0 01.287-1.56c.201-.488.478-.914.832-1.279a4.009 4.009 0 011.253-.87c.48-.217.997-.329 1.55-.337a4.17 4.17 0 011.56.26c.19.08.357.118.5.116a1.154 1.154 0 00.835-.358c.104-.112.187-.24.25-.385.062-.145.091-.3.09-.467-.006-.325-.116-.589-.332-.79zm-20.43 4.7c.114-.418.293-.8.537-1.149.246-.349.536-.649.872-.9a4.14 4.14 0 011.116-.59 3.95 3.95 0 012.513-.04 4.082 4.082 0 012.02 1.428c.26.341.456.718.592 1.132l-7.65.118zm8.268-3.443c-1.276-1.222-2.784-1.819-4.524-1.792-1.755.027-3.245.671-4.465 1.931-1.223 1.261-1.82 2.768-1.792 4.524.026 1.756.67 3.244 1.93 4.466 1.26 1.221 2.77 1.818 4.525 1.792 1.595-.026 2.972-.562 4.13-1.609a1.18 1.18 0 00.328-.856 1.145 1.145 0 00-1.199-1.163 1.255 1.255 0 00-.779.307 3.763 3.763 0 01-1.147.7 3.978 3.978 0 01-1.37.248 3.939 3.939 0 01-1.27-.185 4.063 4.063 0 01-1.12-.556 3.948 3.948 0 01-1.479-2.003l8.99-.14c.332-.005.612-.12.84-.348.227-.226.338-.51.334-.85a6.392 6.392 0 00-.504-2.44A6.173 6.173 0 00265 283.43zm-11.937-.496a1.094 1.094 0 00-.102-.452 1.326 1.326 0 00-.262-.377 1.133 1.133 0 00-.379-.25 1.182 1.182 0 00-.467-.083 1.155 1.155 0 00-.632.191l-6.719 4.521-.137-8.854a1.157 1.157 0 00-.36-.84 1.133 1.133 0 00-.84-.333 1.152 1.152 0 00-.84.36 1.157 1.157 0 00-.333.85l.245 15.777c.005.326.125.605.36.835.233.231.517.344.85.338.325-.005.603-.126.83-.364.226-.238.337-.52.332-.846l-.063-4.097 1.371-.929 5.335 5.81c.215.2.481.298.8.294a1.19 1.19 0 00.463-.099c.143-.063.266-.15.371-.26.104-.112.187-.24.25-.386.061-.143.091-.296.09-.455a1.21 1.21 0 00-.343-.824l-4.966-5.417 4.708-3.16c.3-.21.445-.526.438-.95zm-19.459 2.657a4.091 4.091 0 011.26-.87 3.895 3.895 0 011.55-.337c.5-.008.961.068 1.388.228.425.161.835.4 1.225.72.231.177.49.264.777.26.34-.006.62-.123.84-.355.22-.23.328-.515.322-.855a1.161 1.161 0 00-.423-.892c-1.182-1.009-2.569-1.503-4.166-1.478-1.757.027-3.245.671-4.467 1.931-1.222 1.261-1.819 2.768-1.792 4.524.027 1.756.672 3.244 1.932 4.466 1.26 1.221 2.767 1.82 4.524 1.792 1.588-.026 2.961-.562 4.118-1.609.246-.254.366-.546.362-.88a1.152 1.152 0 00-.348-.84 1.155 1.155 0 00-.852-.322 1.275 1.275 0 00-.745.262c-.373.331-.77.581-1.19.751a3.849 3.849 0 01-1.382.266 3.925 3.925 0 01-1.56-.288 4.112 4.112 0 01-1.285-.832 3.978 3.978 0 01-.877-1.252 3.92 3.92 0 01-.336-1.55 3.92 3.92 0 01.288-1.56c.201-.488.48-.914.837-1.28zm-7.265 4.473a4.045 4.045 0 01-2.084 2.161 3.84 3.84 0 01-1.55.342 3.874 3.874 0 01-1.57-.293 4.026 4.026 0 01-1.275-.838 4.067 4.067 0 01-.865-1.252 3.872 3.872 0 01-.337-1.539 3.874 3.874 0 01.29-1.549c.2-.487.475-.913.825-1.278a4.02 4.02 0 011.246-.877 3.88 3.88 0 011.562-.342 3.852 3.852 0 011.56.293 4.041 4.041 0 012.15 2.095c.215.478.327.99.336 1.534a3.831 3.831 0 01-.288 1.543zm.73-6.046c-1.277-1.22-2.785-1.819-4.525-1.79-1.756.026-3.244.67-4.466 1.93-1.222 1.26-1.818 2.768-1.792 4.524.027 1.755.671 3.244 1.932 4.466 1.26 1.221 2.767 1.818 4.523 1.791 1.74-.027 3.23-.67 4.466-1.93 1.223-1.246 1.82-2.754 1.792-4.524a6.56 6.56 0 00-.509-2.434 6.241 6.241 0 00-1.422-2.033zm-14.586 6.26a4.018 4.018 0 01-2.083 2.162 3.836 3.836 0 01-1.55.342 3.852 3.852 0 01-1.572-.294 3.997 3.997 0 01-2.474-3.628 3.856 3.856 0 01.29-1.549c.2-.487.474-.913.825-1.279a4.007 4.007 0 011.246-.877 3.87 3.87 0 011.561-.34 3.816 3.816 0 011.56.293 4.047 4.047 0 012.15 2.095c.215.478.328.99.336 1.533a3.827 3.827 0 01-.289 1.542zm1.286-13.365a1.143 1.143 0 00-1.162 1.198l.088 5.665c-1.165-.914-2.5-1.358-4.006-1.334-1.756.027-3.244.67-4.465 1.931-1.222 1.261-1.82 2.768-1.792 4.524.027 1.755.67 3.244 1.931 4.465 1.26 1.222 2.768 1.82 4.524 1.792 1.74-.027 3.228-.67 4.465-1.93 1.223-1.246 1.82-2.754 1.792-4.525l-.165-10.625a1.125 1.125 0 00-.359-.839 1.17 1.17 0 00-.85-.322zm32.534-26.729l5.811-.09-.082-5.283-5.81.09.081 5.283zm-6.869.106l5.812-.09-.082-5.283-5.812.09.082 5.283zm-6.868.107l5.812-.09-.082-5.283-5.812.09.082 5.283zm-6.868.107l5.812-.09-.082-5.284-5.812.091.082 5.283zm-6.868.107l5.811-.09-.082-5.285-5.81.091.081 5.284zm6.77-6.447l5.812-.09-.082-5.284-5.812.091.082 5.283zm6.87-.107l5.81-.09-.082-5.283-5.81.09.081 5.283zm6.867-.107l5.811-.09-.082-5.283-5.81.09.081 5.283zm-.099-6.34l5.812-.089-.082-5.284-5.812.09.082 5.283zm31.48 9.897l-1.186-.765c-1.283-.83-4.204-1.095-6.44-.637-.323-2.11-1.53-3.924-3.699-5.547l-1.244-.803-.803 1.246c-1.028 1.604-1.519 3.811-1.314 5.916.09.74.353 2.064 1.135 3.218-.757.422-2.256 1.01-4.243 1.003l-38.22.594-.069.44c-.327 2.125-.216 8.737 4.156 13.753 3.323 3.812 8.246 5.695 14.632 5.597 13.843-.215 23.987-6.746 28.603-18.405 1.887.008 5.947-.08 7.971-4.099.053-.092.175-.333.527-1.094l.194-.417z"/><g mask="url(#d)"><use fill="#000" filter="url(#g)" xlink:href="#h"/><use fill="#FFF" xlink:href="#h"/></g><path d="M123.995 405.528h232.01V322.41h-232.01v83.118zm-1.344 1.345H357.35v-85.808H122.651v85.808z" fill="#2FACE1" mask="url(#d)"/><path fill="#2FACE1" mask="url(#d)" d="M144.624 391.565h1.345v-55.191h-1.345zM159.335 391.565h1.345v-55.191h-1.345zM174.047 391.565h1.345v-55.191h-1.345zM304.608 391.565h1.345v-55.191h-1.345zM319.32 391.565h1.345v-55.191h-1.345zM334.031 391.565h1.345v-55.191h-1.345z"/><path d="M264.888 162.182c0 14.06-11.143 25.456-24.888 25.456-13.744 0-24.886-11.397-24.886-25.456s11.142-25.456 24.886-25.456c13.745 0 24.888 11.397 24.888 25.456" fill="#59BDE7" mask="url(#d)"/><path d="M216.128 168.487s-1.802-26.546 22.659-27.305l-1.707-2.843-13.272 4.455-3.793 4.36-3.32 6.354-1.894 7.395.568 4.93" fill="#82CDED" mask="url(#d)"/><path d="M221.85 180.817c-4.641-4.746-7.51-11.305-7.51-18.54 0-7.235 2.869-13.794 7.51-18.54 4.64-4.747 11.062-7.69 18.15-7.69 7.089 0 13.512 2.943 18.15 7.69 4.64 4.746 7.51 11.305 7.51 18.54 0 7.235-2.87 13.794-7.51 18.54-4.638 4.747-11.061 7.688-18.15 7.688-7.088 0-13.51-2.941-18.15-7.688m1.105-36c-4.366 4.468-7.068 10.636-7.068 17.46 0 6.823 2.702 12.992 7.068 17.46 4.369 4.466 10.389 7.223 17.045 7.223 6.657 0 12.677-2.756 17.046-7.223 4.367-4.468 7.069-10.637 7.069-17.46 0-6.824-2.703-12.992-7.07-17.46-4.368-4.466-10.388-7.223-17.045-7.223-6.656 0-12.676 2.757-17.045 7.223" fill="#2FACE1" mask="url(#d)"/><path fill="#F5F6F7" mask="url(#d)" d="M250.477 162.324l-3.793.568-5.12.57-3.317.094-3.224-.094-2.465-.76-2.181-2.37-1.706-4.834-.38-1.043-2.275-.76-1.327-2.18-.948-3.13 1.043-2.748 2.465-.853 1.99.948.949 2.086 1.138-.19.379-.474-.38-2.181-.094-2.75.569-3.791-.022-2.167 1.728-2.762 3.034-2.181 5.309-2.275 5.879.852 5.119 3.698 2.37 3.792 1.518 2.749.379 6.827-1.138 5.879-2.086 5.213-1.991 2.75"/><path fill="#59BDE7" mask="url(#d)" d="M247.253 178.725l-13.558.568v2.276l1.138 7.964-.568.664-9.482-3.224-.663-1.138-.948-10.713-2.181-6.447-.474-1.516 7.585-5.214 2.37-.949 2.086 2.56 1.8 1.611 2.086.664.949.285 1.137 4.929.854 1.043 2.18-.758-1.516 2.939 8.248 3.888zM224.783 145.637l2.466-.854 1.99.95.948 2.085 1.138-.19.284-1.137-.568-2.18.568-5.216-.473-2.844 1.706-1.99 3.697-2.94-1.042-1.422-5.215 2.56-2.18 1.706-1.233 2.655-1.896 2.56-.569 3.033z"/><path d="M225.826 144.973s-1.99-6.637 5.594-7.584l-.285-1.138-5.214 1.233-1.517 4.93.38 3.223 1.042-.664m2.845-8.248s1.422-3.508 7.11-5.214c5.69-1.707.284-1.233.284-1.233l-6.162 2.371-2.37 2.37-1.043 1.895 2.181-.189" fill="#ACDEF3" mask="url(#d)"/><path d="M253.51 134.544s-2.75-.095-2.844 2.37c0 0 0 .38.19.76 0 0 2.18-2.466 3.508-1.139m-22.85 5.215s1.612-8.344 9.767-9.955c6.712-1.327 10.238.284 11.566 1.801 0 0-5.973-7.11-11.661-4.93-5.69 2.181-9.861 6.162-9.766 8.723.16 4.36.095 4.361.095 4.361m-1.706 5.973s-3.604-2.18-3.983-.095c-.38 2.086-1.232 3.603.57 5.783l-1.234-.38-1.137-2.938-.38-2.845 2.18-2.275 2.466.19 1.422 1.137.096 1.423m12.893-6.162s-2.086.284-2.086 1.611 2.37 1.232 3.035.664m10.523-2.37s-1.563.33-1.706 1.706c-.145 1.377 1.706.284 1.99.19m-8.152 8.627s.22-2.874.995-2.653c.773.221.773.995.773.995s-1.88 1.216-1.768 1.658m-17.446 1.801l1.242-1.202s.559.064.654.728c.095.664.379 6.637 4.456 9.861.372.294-3.033-.475-3.033-.475l-3.034-4.74" fill="#ACDEF3" mask="url(#d)"/><path d="M241.47 137.93s-.472-3.784-3.697-1.584c-2.087 1.422-1.897 3.413-1.518 3.792.38.38.277 1.144.565.62.289-.525.194-2.23 1.237-2.706 1.042-.474 2.752-1.003 3.414-.122" fill="#FFF" mask="url(#d)"/><path d="M233.506 179.768l-4.267.189 1.233.854 3.034.474m-.032-9.601l1.264 1.542v5.688h-1.516s-.191-3.981-.191-4.456c0-.473.19-2.18.19-2.18m-.663-8.722l-8.912 3.982s3.697 14.695 1.8 19.246l-1.326-.474-.095-5.594-2.465-10.618-1.043-2.939 9.292-6.257 2.749 2.654" fill="#ACDEF3" mask="url(#d)"/><path fill="#59BDE7" mask="url(#d)" d="M248.106 178.82l3.508-.095.853 8.723-3.602.474z"/><path d="M249.055 178.82l5.309-.284s2.18-5.5 2.18-5.783c0-.286 1.897-7.964 1.897-7.964l-4.267-4.456-.853-.758-2.276 2.275v8.817l-1.99 8.153" fill="#59BDE7" mask="url(#d)"/><path d="M251.52 161.565l6.636 4.93.19-2.275-5.025-4.645-1.802 1.99m-.095 16.59l-3.317.665.474 2.655c1.232.569 3.318-.948 3.318-.948" fill="#ACDEF3" mask="url(#d)"/><path fill="#ECEDF0" mask="url(#d)" d="M236.796 197.499l-1.963-7.966-.975-5.877-.163-4.363 8.884-.472 5.528-.001-.502 9.956.852 7.678-.095 1.423-7.205.569z"/><path d="M246.874 178.725s-.475 9.86.947 16.876c0 0-2.843 1.802-7.015 2.275l7.964-.284.948-.569-1.138-15.548-.284-3.319" fill="#C0E6F6" mask="url(#d)"/><path fill="#ECEDF0" mask="url(#d)" d="M252.629 186.69l3.697-1.043 7.016-.38 1.043-3.223-1.897-5.593-2.18-.284-3.033.948-2.912 1.42-1.545-.283-1.204.473"/><path d="M252.563 184.792s2.464-1.137 2.844-1.042l-1.044-5.215 1.232-.473s.855 4.93.855 5.498c0 0 5.309.285 5.783.285 0 0 1.137-2.18.853-4.456l1.042 3.033.096 1.707-1.517 2.275-1.707.38-2.844-.096-.947-1.232-3.32.474-1.043.38" fill="#C0E6F6" mask="url(#d)"/><path d="M248.836 178.062l-2.085-5.309-2.181-3.129s.474-1.327 1.138-1.327h2.18l2.086.759-.19 3.508-.948 5.498" fill="#FFF" mask="url(#d)"/><path d="M249.244 176.26s-2.654-5.119-2.654-5.878c0 0 .473-1.138 1.137-.853.663.285 2.085 1.043 2.085 1.043v-1.802l-3.222-.663-2.182.284 3.698 8.723.76.094M237.65 163.746l-2.628-.285-2.465-.759v.855l1.204 1.328 3.793 1.706" fill="#FFF" mask="url(#d)"/><path d="M233.411 164.03s2.94 1.233 3.888.949l.093 1.137-2.654-.568-1.61-1.138.283-.38" fill="#FFF" mask="url(#d)"/><path d="M252.618 168.62c-1.608-.047-3.062-.238-4.334-.597.086-.521-.076-1.034.055-1.41.354-.255.95-.251 1.484-.31a2.571 2.571 0 00-1.649-.187c-.013-.362-.175-.587-.274-.87.905-.323 3.04-2.44 4.241-1.738.573.333.816 2.237.86 3.163.037.767-.07 1.543-.382 1.949" fill="#59BDE7" mask="url(#d)"/><path d="M248.412 167.938c1.19.325 2.584.515 4.148.564.243-.358.364-1.033.326-1.827-.05-1.034-.312-2.782-.803-3.068-.773-.45-2.013.393-3.009 1.07-.398.27-.75.509-1.025.633.017.044.037.088.057.133.071.16.143.324.172.532a2.727 2.727 0 011.597.223l.355.175-.393.044c-.108.012-.217.02-.325.03-.4.035-.814.07-1.076.239-.048.174-.036.39-.023.618.011.196.023.413 0 .634zm4.264.798h-.06c-1.652-.05-3.12-.251-4.363-.602l-.1-.028.017-.103c.038-.23.024-.461.012-.685-.015-.268-.03-.521.047-.742l.012-.035.03-.022c.262-.19.635-.247 1.014-.283a2.393 2.393 0 00-1.084-.008l-.138.033-.005-.141c-.008-.232-.083-.403-.164-.583a2.96 2.96 0 01-.103-.253l-.038-.11.108-.038c.262-.093.642-.351 1.082-.65 1.051-.714 2.358-1.603 3.256-1.078.775.45.912 3.142.917 3.257.044.895-.104 1.633-.405 2.026l-.035.045zM244.926 165.99l-.015.368c-.502.329-1.312.325-1.864.603a4.836 4.836 0 012.006.508l-.035.918c-.921.63-1.762 1.57-2.846 2.16-.513.28-2.311 1-2.857.873-.308-.073-.336-.454-.46-.816-.262-.772-.867-2.003-.92-3.166-.068-1.47-.216-3.931 1.368-3.63 1.277.245 2.763.833 3.752 1.373.604.33.954.739 1.87.809" fill="#59BDE7" mask="url(#d)"/><path d="M239.047 163.899c-.2 0-.367.06-.506.18-.621.537-.546 2.173-.495 3.256l.004.097c.04.869.394 1.779.68 2.51.088.226.17.438.235.625.027.08.05.16.072.239.08.285.138.462.304.5.476.112 2.214-.553 2.775-.86.635-.347 1.19-.818 1.727-1.275.36-.305.7-.595 1.06-.845l.032-.787a4.742 4.742 0 00-1.893-.462l-.444-.02.397-.2c.265-.133.584-.204.892-.272.325-.073.66-.147.91-.293l.004-.063.005-.134c-.641-.07-1.003-.305-1.385-.553a6.122 6.122 0 00-.422-.26c-.845-.46-2.325-1.094-3.72-1.36a1.302 1.302 0 00-.232-.023m.416 7.65a.775.775 0 01-.175-.017c-.307-.071-.392-.372-.473-.663-.022-.075-.043-.153-.07-.228-.061-.18-.143-.391-.23-.615-.292-.747-.655-1.676-.697-2.583l-.003-.098c-.056-1.194-.131-2.831.574-3.441.243-.211.557-.281.935-.21 1.42.27 2.927.916 3.786 1.386.16.087.3.178.437.267.395.256.735.478 1.388.528l.11.008-.003.112-.01.244-.006.182-.05.034c-.291.19-.671.274-1.04.356-.117.026-.236.053-.351.082a4.924 4.924 0 011.52.47l.067.035-.041 1.053-.048.032c-.368.252-.72.55-1.09.865-.546.464-1.11.944-1.766 1.3-.46.252-2.042.9-2.764.9M245.84 167.744c-.141-.801-.303-1.03-.24-1.728 2.135-1.422 2.536 2.446.24 1.728" fill="#59BDE7" mask="url(#d)"/><path d="M245.941 167.653c.552.153.974.032 1.193-.344.237-.402.164-.997-.156-1.3-.3-.283-.75-.257-1.267.074-.033.42.024.658.108 1.008.038.16.081.337.122.562m.435.297a1.91 1.91 0 01-.57-.096l.016-.107-.096.016a10.258 10.258 0 00-.132-.617c-.09-.375-.154-.645-.11-1.14l.005-.055.046-.031c.891-.594 1.418-.253 1.602-.08.4.378.49 1.089.198 1.586-.105.18-.382.524-.959.524" fill="#59BDE7" mask="url(#d)"/><path d="M238.977 171.52a315.602 315.602 0 00-.37-4.435c-.2-2.207.53-1.822 2.444-1.822.293 0 1.8.349 1.907.57.518 1.055-.864.82.596 1.617 1.233.673 3.41-.408 2.913-1.903-.28-.332-1.453-.103-1.873-.321l-2.222-1.151c-.943-.49-3.121-1.201-4.125-.52-2.545 1.733.16 6.059 1.069 7.864m9.615-3.027s-.663-.948-.188-1.232c.473-.285.947 0 1.232-.475.284-.474 0-.758.095-1.326.095-.57.569-.664 1.043-.76.473-.094 1.802-.283 1.99.19l-.568-1.706-1.138-.38-3.603 2.087-.19 1.043v2.085" fill="#82CDED" mask="url(#d)"/><path d="M242.34 155.087c1.118 2.805 4.957 2.481 8.193 2.404-.141.364-.451.794-.835.95-1.037.421-3.898.742-5.338-.023-.914-.485-1.5-1.582-2-2.226-.242-.31-1.446-1.103-.02-1.105m.309-1.584c1.614.85 4.583.941 6.778.877.117.48.115 1.075.119 1.661-2.822.141-6.158-.558-6.897-2.538m12.13-1.064c-.862 1.642-2.083 3.451-4.615 3.503-.052-.53-.091-1.337.003-1.657 1.936-.185 3.13-1.17 4.612-1.846m-25.62-2.466c-.581-.33-.72-1.792-1.401-1.834-.975-.059-.797 1.895-.793 3.038-.671-.61-.79-2.486-.297-3.448-.561-.276-.812.304-1.124.508.4-2.909 4.257-1.349 3.615 1.736m24.44 1.254c-1.854 1.191-3.92 2.486-6.958 2.185-.65-.564-.897-1.82-.266-2.649.328.564.12 1.602 1.036 1.76 1.724.293 3.73-1.056 4.97-1.528.769-1.296-.066-1.773-.76-2.607-1.417-1.709-3.318-3.827-3.25-6.386.574-.416.623.634.705.825.74 1.733 2.604 3.948 3.964 5.432.333.365.883.716.945.957.176.702-.46 1.544-.385 2.011m-10.806-10.324c.554 1.017.734 2.083 1.523 2.851.354.346 1.044.768.702 1.73-.08.225-.664.73-1.001.83-1.232.363-4.101.075-3.13-1.46 1.019.047 2.388.661 3.149-.079-.585-.934-1.626-2.782-1.243-3.872m11.268-.03l.123.004c.584 1.213 1.089 2.498 1.825 3.57-.493 1.15-3.736 2.165-3.687.102.702-.307 1.913-.063 2.535-.454-.36-.987-.88-1.827-.796-3.223m-12.591-2.942c-2.584-.602-3.868 1.081-4.651 2.827-.7-.17-.421-1.12-.245-1.606.463-1.27 2.328-2.964 3.85-2.735.655.1 1.542.698 1.046 1.514" fill="#2FACE1" mask="url(#d)"/><path d="M253.465 170.555c-1.311 2.244-2.564 4.55-4.12 6.53.652-1.917.93-5.125 1.029-7.57 1.364-.639 2.532.144 3.09 1.04" fill="#ACDEF3" mask="url(#d)"/><path d="M261.58 182.899c-1.346.029-3.017.003-4.293-.104.755-.812 3.42-.302 4.292.104m-.415-1.98c-1.195.127-2.6.32-3.814.22.575-.877 2.788-.574 3.814-.22m-.647-2.296c-1.467.294-2.499 1.72-3.93 1.629.787-1.11 2.166-1.578 3.93-1.63" fill="#2FACE1" mask="url(#d)"/><path d="M250.935 188.317c.192 1.688.862 3.398.779 5.248-.744.25-1.172.47-2.166.469-.07-1.572-.281-3.974-.218-5.472.49.032 1.212-.35 1.605-.245" fill="#C0E6F6" mask="url(#d)"/><path d="M248.769 163.438c-.675.44-1.25.99-1.898 1.46-1.438.072-2.222-.098-3.278-.924.017-.065.123-.036.127-.117 1.539.685 3.495-.28 5.049-.42" fill="#FFF" mask="url(#d)"/><path d="M240.69 173.927c.423-1.832 2.08-2.78 3.584-3.79 1.553 1.971 2.497 4.505 3.537 6.95-2.457-.74-4.968-1.942-7.12-3.16" fill="#ACDEF3" mask="url(#d)"/><path d="M255.424 177.014c2.3-1.144 6.598-3.077 8.04.004.532 1.137 1.156 3.057 1.432 4.23.389 1.654-.422 5.131-2.123 5.687-1.502.49-3.254.461-5.064.097-.213-.177-.45-.487-.616-.808-1.292-.05-2.502.07-3.523.601.097.955-.548 1.108-1.154 1.304-.45 1.781.899 4.108.575 5.731-.23 1.157-1.653 1.336-2.7 1.552-.033.643.047 1.18.118 1.723-.24.882-1.312 1.384-2.33 1.506-3.343.402-8.422.583-11.637-.574-.9-2.202-1.606-4.88-2.354-7.395-3.138.335-5.675-1.353-8.067-2.46-.828-.384-1.974-.595-2.284-1.255-.3-.638-.177-1.86-.251-3.017-.19-2.95-.352-5.798-1.131-8.82-.35-1.357-.96-2.553-1.386-3.86-.393-1.21-1.08-2.708-1.26-3.915-.265-1.79 1.42-1.89 2.498-2.665 1.666-1.199 2.974-1.863 4.778-2.945.535-.322 2.145-1.132 2.329-1.506.364-.74-.625-1.785-.89-2.366-.42-.919-.637-1.7-.697-2.606-1.514-.239-2.661-1.139-3.354-2.155-1.146-1.68-1.942-4.79-.95-7.156.078-.187.466-.553.523-.839.113-.564-.212-1.313-.232-1.912-.104-3.075.52-5.724 2.59-6.652.84-3.346 3.848-4.46 6.68-6.124 1.06-.62 2.227-1.018 3.433-1.462 4.326-1.592 10.962-1.293 14.553 1.423 1.52 1.152 3.955 3.582 4.825 5.342 2.299 4.646 2.136 12.412.528 18.064-.216.76-.53 1.875-.967 2.787-.306.636-1.254 1.91-1.14 2.472.119.581 2.164 2.133 2.602 2.556.79.761 2.289 1.771 2.41 2.732.13 1.023-.45 2.422-.745 3.41-.983 3.292-1.944 6.335-3.06 9.271zm-5.484-45.385c-2.944-1.66-7.926-2.909-11.057-1.348-2.526 1.26-5.941 3.343-7.106 5.984 1.087 2.55-.322 4.885-.412 7.473-.047 1.376.648 2.578.702 4.077-.373.614-1.51.69-2.297.647-.265-1.325-.73-2.815-2.094-2.966-1.933-.21-3.345 1.388-3.433 3.06-.104 1.965 1.509 5.222 3.796 4.995.883-.087 1.1-.973 2.063-.963.52 1.04-.805 1.367-.942 2.112-.035.192.11.944.195 1.296.415 1.715 1.34 3.937 2.253 5.243 1.156 1.658 3.428 1.907 5.873 2.07.436-.94 2.045-.863 3.093-.617-1.256-.498-2.423-1.704-3.391-2.772-1.113-1.224-2.238-2.538-2.295-4.138 2.1 2.914 3.837 5.46 7.656 6.741 2.89.97 6.266-.445 8.486-2.004.92-.649 1.472-1.677 2.126-2.618 2.452-3.526 3.595-8.558 3.344-13.435-.103-2.012-.1-4.016-.774-5.369-.705-1.416-3.091-2.682-4.488-1.4-.258-1.377 1.162-2.229 2.83-1.733-1.19-1.536-2.438-3.38-4.128-4.335zm-14.763-.756c-2.835.804-6.47 2.865-7.635 5.412.903-.13 1.528-.585 2.418-.642.337-.022.777.141 1.164.045.77-.192 1.42-1.919 2.002-2.562.567-.628 1.248-.896 1.714-1.468.3-.144.742-.134.76-.584-.13-.139-.267-.245-.423-.2zm-8.963 8c-1.253 1.378-.99 3.961-.84 5.798 2.266-1.425 5.27.113 5.242 2.535 1.08-.028.405-1.35.208-2.2-.638-2.78 1.078-5.803.079-8.346-1.94.148-3.533.94-4.69 2.213zm25.12 23.314c2.629-1.276 3.103 4.764 2.072 6.71.16.58.707.802.93 1.323-1.466 2.63-3.096 5.082-4.593 7.68 1.114-.695 2.704-.125 4.015-.644.479-.189.825-1.286 1.188-2.163.998-2.413 2.044-5.456 2.51-7.759.106-.524.393-1.668.328-2.134-.114-.837-1.25-1.457-1.826-1.974-1.063-.955-1.732-1.795-2.842-2.689-.45.664-1.415 1.11-1.782 1.65zm-19.107 2.084c-.258-.185-2.002-2.453-2.24-2.359-3.156 1.245-6.106 3.396-8.743 5.431 2.514 5.394 3.529 12.002 3.708 18.371 2.879 1.347 5.409 3.29 9.317 3.491-.453-3.199-.866-6.053-1.122-9.065-.982-.414-2.391.02-3.31-.129-.007-1.106 1.404-.484 1.522-1.229.087-.563-.777-.606-.496-1.493.719.261 1.096.838 1.862 1.055.7-1.53-.01-4.24.09-5.52.02-.242.12-1.332.659-1.14.476.168-.027 2.901.025 4.112.048 1.116-.135 2.196.318 2.897 3.776-.514 7.612-.847 11.698-.958-.9-.386-1.967-.75-3.137-1.41-.636-.359-2.636-1.103-2.82-1.706-.291-.96.767-1.472.949-2.295-1.906 1.04-2.278-.997-2.73-2.439-.408-1.306-.64-2.282-.74-3.035-1.642-.783-3.397-1.576-4.81-2.579zm20.775 2.4c-.045-.927-.288-2.83-.86-3.164-1.201-.7-3.336 1.416-4.24 1.74.097.282.26.506.272.87.535-.133 1.187-.043 1.65.185-.536.06-1.13.056-1.485.312-.13.375.032.887-.055 1.41 1.273.358 2.727.55 4.335.596.313-.407.419-1.182.382-1.95zm-9.282-2.815c-.004.081-.11.052-.127.118 1.056.825 1.84.996 3.278.925.648-.47 1.223-1.02 1.898-1.46-1.554.137-3.51 1.102-5.05.417zm-10.111-.392c-.822.834 2.3 1.97 3.296 2.03-.005-.527.3-1.024.24-1.402-1.182-.207-2.735-.07-3.536-.628zm9.446 1.717c-.988-.54-2.475-1.13-3.752-1.373-1.584-.303-1.436 2.16-1.368 3.63.052 1.163.658 2.392.92 3.165.124.361.152.744.46.815.546.127 2.344-.59 2.857-.87 1.084-.593 1.925-1.53 2.846-2.16.01-.308.023-.614.036-.92a4.851 4.851 0 00-2.006-.508c.55-.278 1.36-.273 1.864-.603l.014-.367c-.917-.07-1.267-.479-1.871-.809zm2.546.835c-.064.698.099.927.24 1.727 2.295.718 1.894-3.15-.24-1.727zm1.868 2.466c-.59-.064-1.09.678-1.856.357-.174.195-.335.404-.513.594 1.69 2.04 2.46 4.932 3.767 7.327.702-2.302.62-4.822.775-7.335-.964.061-1.498-.87-2.173-.943zm2.905 1.033c-.098 2.445-.377 5.653-1.03 7.57 1.557-1.979 2.81-4.285 4.12-6.53-.558-.896-1.726-1.679-3.09-1.04zm-2.562 7.572c-1.04-2.445-1.985-4.979-3.537-6.95-1.505 1.01-3.162 1.958-3.584 3.79 2.153 1.218 4.664 2.42 7.12 3.16zm13.766 9.003c1.48-.358 2.41-2.172 1.997-4.034-.277-1.252-.772-3.608-1.302-4.409-.391-.592-1.453-1.367-2.3-.824-1.378.882-3.807 1.138-4.812 2.207.504 1.677.66 3.982.868 6.11 1.723.106 3.84-.475 5.273.143-1 .323-2.297.325-3.16.797.706.341 2.358.272 3.436.01zm-7.646-6.986c-.473-.108-1.023-.004-1.474.005.212 2.113.727 4.445.908 6.664.71.021 1.089-.314 1.674-.426.03-1.947-.171-4.63-1.108-6.243zm-5.05.42c-.035 2.591.115 5.147.313 7.744.997-.15 1.67-.25 2.596-.452-.3-2.499-.263-5.31-.875-7.522-.707.007-1.33-.008-2.034.23zm-15.057.52c.657 6.036 1.608 11.111 3.352 16.455 3.872 1.176 8.539 1.28 11.96.218-.627-3.017-.354-6.69-.72-9.91-.277-2.42-.136-4.855-.515-7.323-4.147-.863-10.007-.2-14.077.56zm15.505 8.518c-.062 1.498.148 3.9.218 5.472.996.001 1.423-.218 2.166-.469.084-1.85-.586-3.56-.778-5.248-.394-.105-1.116.277-1.606.245z" fill="#2FACE1" mask="url(#d)"/><path d="M240.078 154.221c.125-.166.811-.418 1.771.044 0 0-1.138.19-1.043 2.086l-.474-.095s-.49-1.72-.254-2.035" fill="#ACDEF3" mask="url(#d)"/><path d="M248.912 172.942a.52.52 0 11-1.041 0 .52.52 0 011.041 0m-.52-2.417a.522.522 0 11-1.045-.003.522.522 0 011.044.003" fill="#2FACE1" mask="url(#d)"/><path fill="#FFF" mask="url(#d)" d="M239.996 335.11l23.935 11.429 5.913 25.685-16.56 20.6-26.563.004-16.565-20.597 5.908-25.686z"/><path d="M239.774 332.338a4.353 4.353 0 00-1.662.42l-22.67 10.832a4.307 4.307 0 00-2.346 2.917l-5.593 24.331a4.276 4.276 0 00.835 3.64l15.692 19.51a4.349 4.349 0 003.39 1.617l25.163-.006a4.345 4.345 0 003.39-1.615l15.685-19.512a4.275 4.275 0 00.838-3.64l-5.602-24.33a4.31 4.31 0 00-2.346-2.918l-22.672-10.826a4.358 4.358 0 00-2.102-.42" fill="#2FACE1" mask="url(#d)"/><path d="M239.955 371.56a1.19 1.19 0 01.56.119c.237.114.42.295.536.511h.026l3.453 6.239c-.448.151-.909.278-1.38.386a14.03 14.03 0 01-7.657-.395l3.444-6.227h.006a1.199 1.199 0 011.012-.633zm-5.918-2.873a1.196 1.196 0 011.082 1.667l.021.026-2.714 6.559a14.05 14.05 0 01-5.64-7.058l7.005-1.188.012.014c.078-.014.158-.021.234-.02zm11.867-.029a1.27 1.27 0 01.276.02l.011-.014 7.067 1.195a13.997 13.997 0 01-5.657 7.106l-2.744-6.626.01-.01a1.199 1.199 0 011.037-1.671zm-6.999-5.804h2.184l1.356 1.695-.486 2.117-1.96.943-1.966-.945-.487-2.117 1.36-1.693zm13.05-5.132a14.145 14.145 0 011.75 4.271c.352 1.535.44 3.067.295 4.548l-6.866-1.977-.006-.028a1.2 1.2 0 01-.47-2.056l-.003-.015 5.3-4.743zm-23.95-.003l5.328 4.767-.006.028a1.194 1.194 0 01-.47 2.056l-.006.023-6.83 1.972a13.977 13.977 0 011.983-8.846zm13.695-6.576a14.093 14.093 0 018.13 3.92l-5.799 4.111-.019-.009a1.198 1.198 0 01-1.903-.913l-.006-.003-.403-7.106zm-3.4 0l-.404 7.118-.029.015a1.194 1.194 0 01-1.898.916l-.012.006-5.837-4.138a13.988 13.988 0 018.18-3.917zm1.7-10.524c-.75 0-1.358.674-1.358 1.507l.002.038c0 .113-.006.25-.002.348.017.48.123.848.185 1.29.114.946.21 1.732.15 2.461-.056.276-.259.527-.44.702l-.03.574c-.816.068-1.636.191-2.454.377a17.458 17.458 0 00-8.867 5.065c-.15-.102-.412-.29-.49-.348-.242.033-.487.108-.805-.078-.608-.409-1.162-.973-1.83-1.652-.307-.325-.529-.635-.893-.948-.083-.072-.209-.168-.302-.242a1.627 1.627 0 00-.945-.356 1.308 1.308 0 00-1.08.478c-.469.586-.32 1.482.332 2.001l.02.014c.09.073.2.166.282.227.386.285.74.431 1.125.658.811.501 1.484.917 2.017 1.418.21.221.245.613.273.782l.435.389a17.56 17.56 0 00-2.769 12.241l-.569.165c-.149.193-.36.498-.582.589-.698.22-1.484.301-2.432.4-.446.037-.83.015-1.302.105-.105.019-.249.057-.362.084l-.012.003a.13.13 0 00-.02.005c-.8.194-1.314.928-1.149 1.653.166.724.947 1.165 1.751.991.006-.001.014-.001.02-.003l.027-.008c.112-.025.253-.052.35-.079.465-.124.801-.306 1.218-.467.898-.321 1.642-.59 2.366-.695.303-.023.621.187.78.275l.591-.101a17.656 17.656 0 007.826 9.77l-.247.592c.09.23.187.54.121.768-.263.682-.714 1.403-1.228 2.207-.249.371-.504.659-.727 1.085-.054.101-.123.258-.175.365-.349.746-.093 1.605.577 1.928.675.324 1.511-.018 1.873-.766l.003-.003v-.003c.052-.105.125-.245.168-.344.192-.441.257-.819.391-1.245.36-.901.557-1.847 1.051-2.437.135-.161.356-.224.585-.285l.307-.557a17.533 17.533 0 0012.522.032c.087.154.247.449.29.522.233.076.487.115.694.421.37.632.622 1.379.93 2.282.135.426.202.803.395 1.243.043.101.116.242.168.348.361.751 1.2 1.093 1.876.768.67-.322.926-1.181.576-1.927-.052-.108-.123-.264-.177-.366-.223-.424-.478-.71-.727-1.082-.514-.803-.94-1.47-1.203-2.154-.11-.352.018-.571.104-.8-.052-.058-.16-.391-.227-.548a17.664 17.664 0 007.824-9.84c.175.028.48.082.58.101.203-.135.39-.309.76-.281.723.104 1.467.374 2.365.696.417.159.754.345 1.218.47.097.026.238.051.35.075.01.002.018.007.027.009.005.001.014.001.02.003.805.173 1.586-.268 1.751-.992.165-.724-.349-1.459-1.148-1.653-.117-.026-.282-.071-.395-.093-.472-.088-.856-.067-1.302-.104-.948-.1-1.734-.18-2.432-.4-.285-.111-.488-.449-.585-.588l-.548-.16a17.562 17.562 0 00-.284-6.335 17.589 17.589 0 00-2.543-5.877c.14-.128.406-.363.481-.432.022-.243.003-.499.255-.769.533-.501 1.206-.916 2.018-1.418.385-.226.741-.372 1.128-.658.087-.064.207-.166.298-.24.652-.52.801-1.415.333-2.001-.466-.586-1.372-.641-2.023-.121-.093.073-.218.169-.302.24-.364.314-.589.623-.895.948-.669.68-1.223 1.247-1.829 1.656-.264.153-.65.1-.825.09l-.515.368a17.785 17.785 0 00-11.264-5.442 26.342 26.342 0 01-.032-.606c-.177-.169-.39-.314-.444-.679-.059-.729.04-1.515.154-2.461.062-.442.168-.81.185-1.29.004-.109-.003-.267-.003-.386 0-.833-.607-1.507-1.356-1.507z" fill="#FFF" mask="url(#d)"/><path d="M242.115 358.242l.006.003v.007a1.184 1.184 0 001.884.905l.005-.004.02.008 5.782-4.1a14.088 14.088 0 00-8.099-3.904l.402 7.085zm1.19 1.167c-.355 0-.706-.157-.944-.456a1.205 1.205 0 01-.264-.692l-.004-.003v-.007l-.405-7.121.014.002a14.122 14.122 0 018.137 3.923l.01.01-.012.008-5.804 4.115-.02-.01c-.214.156-.462.23-.708.23zm-7.336-.23l.006.003a1.181 1.181 0 001.88-.907l.001-.007.03-.014.401-7.097a13.995 13.995 0 00-8.149 3.902l5.82 4.125.011-.005zm.704.253c-.256 0-.5-.078-.705-.226l-.012.006-.006-.005-5.848-4.145.01-.01a14.016 14.016 0 016.738-3.67c.464-.106.952-.19 1.448-.25l.013-.001v.013l-.403 7.124-.029.015a1.205 1.205 0 01-1.206 1.149zm10.47 5.123l6.846 1.972a14.091 14.091 0 00-.297-4.531 14.139 14.139 0 00-1.739-4.256l-5.285 4.73.003.014-.005.005c-.19.165-.32.382-.376.628a1.181 1.181 0 00.841 1.407l.006.002.006.029zm6.867 2.002l-.014-.003-6.872-1.98-.006-.03a1.206 1.206 0 01-.473-2.07l-.003-.013.005-.004 5.311-4.753.008.012a14.176 14.176 0 011.75 4.274c.344 1.504.444 3.036.295 4.553v.014zm-26.003-8.82a13.965 13.965 0 00-1.976 8.814l6.811-1.967.005-.023.007-.002a1.18 1.18 0 00.465-2.036l-.005-.004.006-.03-5.313-4.752zm-1.996 8.843l-.002-.014a13.98 13.98 0 011.985-8.853l.007-.012.01.01 5.334 4.77-.005.03a1.204 1.204 0 01-.473 2.069l-.006.023h-.007l-6.843 1.977zm12.032.076l1.956.94 1.95-.937.483-2.106-1.349-1.687h-2.172l-1.353 1.684.485 2.106zm1.956.966l-.006-.003-1.97-.947-.002-.005-.488-2.122.004-.005 1.363-1.697h2.194l.003.003 1.361 1.7-.489 2.129-.005.002-1.965.945zm-13.197 2.269a13.994 13.994 0 002.266 4.024 14.098 14.098 0 003.352 3.007l2.706-6.54-.02-.026.002-.006c.1-.231.122-.483.066-.73a1.181 1.181 0 00-1.37-.9h-.006l-.012-.014-6.984 1.185zm5.628 7.065l-.01-.007a14.102 14.102 0 01-3.369-3.02 14.003 14.003 0 01-2.276-4.043l-.005-.013.014-.002 7.012-1.191.011.015a1.204 1.204 0 011.325 1.658l.02.026-.002.007-2.72 6.57zm12.441-6.614l2.735 6.606a13.981 13.981 0 005.636-7.08l-7.046-1.191-.012.014-.007-.001a1.225 1.225 0 00-.272-.02 1.19 1.19 0 00-1.028 1.654l.003.006-.009.012zm2.724 6.64l-.005-.012-2.746-6.631.01-.012a1.205 1.205 0 01.587-1.56 1.2 1.2 0 01.735-.101l.01-.014h.007l7.08 1.197-.005.014a13.993 13.993 0 01-5.66 7.112l-.013.007zm-12.085 1.432a14.05 14.05 0 007.637.39c.468-.107.927-.235 1.366-.381l-3.443-6.221h-.026l-.003-.007a1.18 1.18 0 00-.53-.505 1.173 1.173 0 00-.556-.118v-.012.012a1.193 1.193 0 00-1.002.626l-.003.006h-.006l-3.434 6.21zm4.5.765c-1.535 0-3.06-.25-4.52-.748l-.014-.003.006-.013 3.448-6.234h.006a1.21 1.21 0 011.583-.512c.233.112.418.288.538.51h.027l.003.005 3.46 6.252-.013.004c-.443.149-.908.279-1.382.386a14.172 14.172 0 01-3.142.353zm-9.187 1.666c.084.219.188.536.12.77-.26.67-.692 1.367-1.23 2.21-.085.127-.17.244-.254.358-.167.23-.325.446-.474.726a4.45 4.45 0 00-.112.234l-.062.13c-.344.738-.088 1.596.572 1.913.667.322 1.5-.02 1.858-.76l.003-.005c.017-.035.036-.075.057-.115.04-.08.082-.164.111-.23.126-.288.195-.545.268-.816.038-.138.076-.28.122-.426.107-.27.2-.542.29-.806.212-.628.415-1.221.763-1.637.14-.166.376-.23.586-.287l.31-.56.01.003a17.51 17.51 0 0012.513.032l.01-.004.005.009.154.279.133.239.09.028c.208.062.424.127.605.395.365.625.622 1.378.92 2.249l.012.036c.046.144.084.285.121.419.075.275.145.533.272.824.032.07.076.159.118.244l.05.103c.36.743 1.193 1.085 1.861.764.66-.318.917-1.177.572-1.913-.017-.033-.034-.072-.053-.112-.04-.085-.087-.183-.124-.253a5.397 5.397 0 00-.47-.72c-.085-.115-.17-.234-.257-.361-.504-.79-.94-1.47-1.204-2.156-.097-.308-.014-.514.067-.714l.035-.09c-.037-.047-.096-.204-.15-.354-.029-.072-.053-.14-.074-.19l-.004-.01.008-.004a17.468 17.468 0 004.83-4.217 17.604 17.604 0 002.988-5.617l.003-.01.01.002c.17.026.47.079.576.1l.08-.054c.177-.124.361-.252.682-.227.716.104 1.463.373 2.33.682l.04.016c.143.054.278.113.41.17.257.112.502.217.806.298.063.017.143.034.22.049l.131.027.014.005c.003.002.007.002.011.003a.028.028 0 00.01 0l.011.003c.795.17 1.575-.27 1.737-.982.163-.713-.349-1.448-1.14-1.64a5.046 5.046 0 01-.146-.035c-.087-.021-.177-.044-.247-.056a5.451 5.451 0 00-.856-.081 8.949 8.949 0 01-.445-.024l-.028-.003c-.92-.097-1.714-.18-2.406-.397-.256-.1-.442-.373-.553-.537l-.037-.053-.554-.161.002-.01a17.504 17.504 0 00-.284-6.331 17.533 17.533 0 00-2.54-5.873l-.007-.01.008-.006.273-.245c.086-.076.166-.148.204-.184l.007-.093c.015-.216.03-.441.251-.677.535-.502 1.224-.928 2.021-1.42a9.29 9.29 0 01.392-.216c.248-.131.483-.255.735-.441.058-.043.13-.103.2-.16.034-.03.067-.056.098-.08.645-.515.793-1.406.331-1.985-.462-.58-1.363-.634-2.006-.12l-.083.065a6.713 6.713 0 00-.219.175c-.242.208-.419.41-.607.626a9.907 9.907 0 01-.288.322l-.049.049c-.638.649-1.189 1.208-1.783 1.608-.235.138-.563.112-.76.096a1.173 1.173 0 01-.066-.004l-.52.372-.008-.008a17.781 17.781 0 00-5.114-3.732 17.603 17.603 0 00-6.142-1.707h-.01v-.01a24.757 24.757 0 01-.033-.602l-.07-.064c-.16-.147-.327-.298-.373-.618-.058-.712.036-1.491.144-2.392l.01-.072c.02-.151.047-.295.073-.434.051-.277.1-.54.111-.855a4.178 4.178 0 000-.25c-.002-.046-.002-.093-.002-.135 0-.401-.14-.777-.395-1.06a1.272 1.272 0 00-.95-.436c-.36 0-.697.155-.95.437a1.57 1.57 0 00-.396 1.059l.001.018a4.573 4.573 0 010 .133 3.69 3.69 0 000 .234c.011.316.06.578.11.855.027.14.053.283.075.434l.002.018c.111.923.207 1.72.148 2.445-.06.289-.27.542-.44.707l-.033.58h-.009c-.829.069-1.654.195-2.453.377a17.446 17.446 0 00-8.86 5.062l-.007.007-.008-.006a30.34 30.34 0 01-.486-.345l-.092.014c-.215.033-.437.068-.716-.095-.603-.405-1.162-.972-1.809-1.631l-.023-.023c-.105-.11-.2-.22-.292-.326-.186-.213-.36-.415-.6-.621a6.281 6.281 0 00-.218-.175l-.084-.066a1.617 1.617 0 00-.938-.354 1.296 1.296 0 00-1.073.474 1.276 1.276 0 00-.25 1.016 1.575 1.575 0 00.602.983l.08.064c.07.058.142.118.201.16.253.189.488.314.737.446.125.066.254.135.387.213.797.493 1.486.917 2.02 1.419.19.202.237.53.266.727a.84.84 0 01.01.058l.44.393-.006.009a17.541 17.541 0 00-2.768 12.232l.002.01-.575.168a1.364 1.364 0 01-.052.067c-.148.197-.334.44-.533.522-.692.219-1.486.302-2.405.397l-.03.004a8.885 8.885 0 01-.446.024c-.28.01-.547.02-.855.08-.073.013-.163.036-.252.057l-.11.027-.006.002h-.006l-.009.004-.012.003c-.79.19-1.302.926-1.139 1.638.164.714.943 1.155 1.738.984l.01-.002.01-.001.012-.004a.058.058 0 01.014-.005l.101-.022c.088-.018.18-.038.25-.056.307-.082.553-.19.814-.3.128-.056.261-.112.402-.167l.04-.014c.865-.31 1.613-.58 2.328-.682.273-.021.558.143.728.242l.056.032.597-.102.003.009a17.65 17.65 0 007.82 9.765l.01.005-.005.01-.244.587zm-.908 6.485c-.185 0-.369-.04-.542-.122-.67-.323-.933-1.195-.582-1.944l.06-.13c.04-.084.08-.17.114-.236.148-.282.307-.5.475-.728.083-.115.17-.232.253-.357.538-.842.97-1.54 1.227-2.206.067-.227-.036-.542-.12-.76l-.002-.002.002-.005.242-.582a17.68 17.68 0 01-7.819-9.763l-.586.1-.002-.001-.06-.035c-.169-.097-.45-.261-.714-.24-.712.104-1.459.372-2.324.682l-.039.013c-.14.054-.273.112-.402.166a5.65 5.65 0 01-.817.302c-.07.019-.162.038-.25.057a2.631 2.631 0 01-.1.02l-.012.005a.088.088 0 01-.015.005c-.004 0-.008 0-.012.002h-.008c-.808.175-1.6-.273-1.765-1-.166-.725.352-1.472 1.156-1.666a.126.126 0 01.01-.003.164.164 0 00.011-.003l.006-.001.005-.002.111-.026c.088-.022.18-.044.252-.058.31-.058.577-.07.86-.08.143-.006.29-.011.443-.024l.031-.003c.917-.097 1.71-.18 2.4-.397.192-.08.382-.33.522-.513l.054-.072.002-.002.004-.001.56-.163a17.574 17.574 0 012.765-12.231l-.43-.385v-.004l-.01-.062c-.029-.195-.077-.52-.26-.714-.533-.5-1.22-.925-2.015-1.416a9.665 9.665 0 00-.388-.213c-.248-.133-.484-.258-.738-.445-.06-.044-.133-.105-.205-.163a2.195 2.195 0 00-.078-.064l-.007-.006-.012-.008a1.594 1.594 0 01-.59-.983 1.29 1.29 0 01.254-1.034 1.31 1.31 0 011.04-.484h.052c.338.012.675.14.951.36l.084.066c.078.06.158.123.218.175.242.208.418.41.603.624.092.106.188.215.291.324l.023.024c.647.657 1.206 1.224 1.804 1.628.273.159.49.124.701.09l.097-.014h.005l.004.003c.08.058.335.24.481.342a17.47 17.47 0 018.866-5.062 17.578 17.578 0 012.444-.376l.032-.568.003-.004c.167-.161.38-.413.438-.695.058-.723-.039-1.52-.149-2.44l-.003-.018c-.02-.15-.048-.293-.073-.432a5.478 5.478 0 01-.112-.86 4.706 4.706 0 01.001-.235l.002-.113v-.017c-.002-.007-.003-.013-.003-.02 0-.406.142-.787.4-1.074.26-.288.603-.446.97-.446.364 0 .708.158.967.446.257.287.4.668.4 1.074l.002.136c.002.087.004.178.001.25-.012.317-.06.58-.112.858-.026.139-.052.282-.074.433l-.008.072c-.109.9-.203 1.678-.146 2.387.046.31.21.458.366.602l.074.068.004.004v.005c.004.092.02.41.032.596 2.133.19 4.2.765 6.14 1.707a17.812 17.812 0 015.114 3.73l.511-.365h.004l.07.006c.195.015.518.039.748-.094.59-.397 1.14-.957 1.778-1.604l.05-.05c.1-.107.194-.216.286-.32.187-.215.365-.418.61-.628a7.58 7.58 0 01.218-.176l.083-.065c.654-.522 1.57-.466 2.04.124.47.589.32 1.494-.336 2.016a6.36 6.36 0 01-.098.08 4.719 4.719 0 01-.2.16c-.254.189-.489.313-.738.445-.127.067-.259.136-.392.215-.796.492-1.483.917-2.015 1.417-.215.229-.23.449-.244.662l-.008.098v.005l-.003.003-.208.187c-.093.082-.195.172-.267.238a17.537 17.537 0 012.54 5.873c.48 2.089.575 4.219.285 6.329l.542.158.002.003c.012.017.026.035.04.057.11.16.293.43.541.527.69.218 1.483.3 2.401.397l.03.003c.151.012.3.018.442.024.283.01.55.02.86.08.07.014.16.036.248.058l.146.035c.803.194 1.323.942 1.157 1.667-.165.725-.956 1.175-1.765 1l-.009-.001-.012-.002-.014-.005-.012-.004c-.04-.01-.085-.017-.129-.026-.078-.016-.159-.032-.222-.05-.305-.081-.55-.187-.81-.3a10.715 10.715 0 00-.408-.17l-.04-.013c-.866-.311-1.612-.58-2.324-.681-.313-.025-.494.1-.668.223-.028.018-.055.038-.084.056l-.003.003-.005-.001c-.1-.02-.396-.072-.57-.1a17.658 17.658 0 01-2.99 5.616 17.5 17.5 0 01-4.826 4.217c.02.048.044.113.07.18.055.149.117.317.151.355l.005.006-.003.005c-.012.033-.025.064-.038.095-.079.196-.16.399-.067.698.264.684.7 1.365 1.202 2.152.085.127.172.245.256.359.167.228.324.443.473.723.037.07.083.169.124.255.018.04.037.078.053.11.35.749.088 1.62-.582 1.944-.68.328-1.529-.02-1.892-.773l-.05-.104c-.044-.086-.088-.174-.118-.245a5.63 5.63 0 01-.274-.827c-.038-.135-.076-.274-.122-.418l-.01-.036c-.298-.87-.555-1.621-.918-2.243-.177-.261-.389-.325-.594-.387-.03-.01-.063-.018-.094-.028l-.004-.002-.002-.004a18.092 18.092 0 01-.134-.242l-.15-.271a17.544 17.544 0 01-12.512-.032l-.305.553h-.005c-.218.059-.442.119-.579.282-.346.412-.547 1.003-.759 1.629-.09.264-.183.537-.29.806-.046.144-.084.287-.12.423a5.54 5.54 0 01-.272.82c-.029.067-.07.15-.11.232l-.057.11v.006l-.004.005c-.272.559-.81.892-1.346.892z" fill="#FFF" mask="url(#d)"/></g></svg>