<svg xmlns="http://www.w3.org/2000/svg" viewBox="0 0 422.189 39.456"><path d="M42.607,31.972a12,12,0,1,1,12-12A12.03,12.03,0,0,1,42.607,31.972Zm.042-21.365A9.257,9.257,0,0,0,33.618,20.1a9.172,9.172,0,0,0,9.031,9.24c5.268,0,9.031-4.348,9.031-9.491A9.2,9.2,0,0,0,42.649,10.606Z" fill="#fff"/><path d="M77.191,31.429V18.843c0-2.174-.543-4.724-2.173-6.271a7.281,7.281,0,0,0-9.951,0c-1.589,1.506-2.133,3.972-2.133,6.062V31.429H60.007V8.558h2.927v2.928h.084a8.293,8.293,0,0,1,7.025-3.513c6.564,0,10.077,4.558,10.077,10.871V31.429Z" fill="#fff"/><path d="M91.987,11.192V31.429H89.061V11.192H84.252V8.558h4.808V.488h2.927v8.07h5.477v2.634Z" fill="#fff"/><path d="M102.407,4.683V.488h2.927V4.683Zm0,26.746V8.558h2.927V31.429Z" fill="#fff"/><path d="M130,31.429V18.843c0-2.174-.543-4.724-2.173-6.271a7.281,7.281,0,0,0-9.951,0c-1.589,1.506-2.133,3.972-2.133,6.062V31.429h-2.927V8.558h2.927v2.928h.084a8.293,8.293,0,0,1,7.025-3.513c6.564,0,10.077,4.558,10.077,10.871V31.429Z" fill="#fff"/><path d="M156.306,31.429V27.875h-.084c-1.337,2.8-4.306,4.1-7.316,4.1a9.849,9.849,0,0,1-7.861-3.428c-1.631-2.049-2.007-4.808-2.007-7.359V8.558h2.927V21.143c0,4.725,1.715,8.195,6.941,8.195a6.545,6.545,0,0,0,4.849-1.839c2.007-1.924,2.383-4.182,2.383-6.857V8.558h2.927V31.429Z" fill="#fff"/><path d="M176.421,31.972a12,12,0,1,1,12-12A12.03,12.03,0,0,1,176.421,31.972Zm.042-21.365a9.257,9.257,0,0,0-9.031,9.492,9.172,9.172,0,0,0,9.031,9.24c5.268,0,9.032-4.348,9.032-9.491A9.2,9.2,0,0,0,176.463,10.606Z" fill="#fff"/><path d="M210.766,31.429V27.875h-.084c-1.337,2.8-4.306,4.1-7.316,4.1a9.849,9.849,0,0,1-7.861-3.428c-1.631-2.049-2.007-4.808-2.007-7.359V8.558h2.927V21.143c0,4.725,1.715,8.195,6.941,8.195a6.545,6.545,0,0,0,4.849-1.839c2.007-1.924,2.383-4.182,2.383-6.857V8.558h2.927V31.429Z" fill="#fff"/><path d="M349.083,31.429V27.875H349c-1.337,2.8-4.306,4.1-7.316,4.1a9.849,9.849,0,0,1-7.861-3.428c-1.631-2.049-2.007-4.808-2.007-7.359V8.558h2.927V21.143c0,4.725,1.715,8.195,6.941,8.195a6.545,6.545,0,0,0,4.849-1.839c2.007-1.924,2.383-4.182,2.383-6.857V8.558h2.927V31.429Z" fill="#fff"/><path d="M375.86,4.683V.488h2.927V4.683Zm0,26.746V8.558h2.927V31.429Z" fill="#fff"/><path d="M392.516,11.192V31.429H389.59V11.192h-4.808V8.558h4.808V.488h2.927v8.07h5.477v2.634Z" fill="#fff"/><path d="M408.935,39.456h-3.052l3.973-8.78L400.949,8.558h3.094l7.275,18.23L419.1,8.558h3.094Z" fill="#fff"/><path d="M298.938,26.256a12.38,12.38,0,0,1-2.772,2.058,9.192,9.192,0,0,1-4.49,1.031,9.627,9.627,0,0,1-3.344-.572,7.89,7.89,0,0,1-4.6-4.306,9.337,9.337,0,0,1-.756-3.642l0-.321h19.29v-.824a15.073,15.073,0,0,0-.664-4.512,10.634,10.634,0,0,0-2.015-3.734,9.623,9.623,0,0,0-3.391-2.542,12.2,12.2,0,0,0-9.39,0,10.542,10.542,0,0,0-3.549,2.565A11.5,11.5,0,0,0,280.98,15.3a14,14,0,0,0-.8,4.787,13.546,13.546,0,0,0,.848,4.9,10.6,10.6,0,0,0,2.382,3.734,10.722,10.722,0,0,0,3.664,2.381,12.716,12.716,0,0,0,4.741.848,10.947,10.947,0,0,0,5.36-1.214,15.552,15.552,0,0,0,3.594-2.657ZM285.653,12.694a7.893,7.893,0,0,1,5.84-2.13,8.175,8.175,0,0,1,3.23.6,6.854,6.854,0,0,1,2.359,1.626,7.279,7.279,0,0,1,1.489,2.428,10.058,10.058,0,0,1,.569,2.655H283.186A9.022,9.022,0,0,1,285.653,12.694Z" fill="#fff"/><path d="M228.093,18.17c-4.052-.952-5.746-1.673-5.746-3.68,0-2.093,2.116-3.5,5.265-3.5a8.807,8.807,0,0,1,6.421,2.521l2.108-2.108a11.8,11.8,0,0,0-8.53-3.4c-4.858,0-8.251,2.666-8.251,6.484,0,4.7,4.653,5.789,8.05,6.586,4.169.98,6.029,1.8,6.029,4.1,0,2.4-2.117,3.828-5.664,3.828a9.744,9.744,0,0,1-7.117-2.815L218.551,28.3a12.742,12.742,0,0,0,9.225,3.693c5.975,0,8.65-3.422,8.65-6.814C236.426,20.127,231.411,18.949,228.093,18.17Z" fill="#fff"/><path d="M25.146,25.4A12.829,12.829,0,0,1,16.139,29.2,13.443,13.443,0,0,1,3.094,16.076c0-7.024,5.9-13.254,13-13.254a13.068,13.068,0,0,1,9.127,3.731L27.3,4.474A16.23,16.23,0,0,0,16.139.021a15.994,15.994,0,1,0,.042,31.985A16.069,16.069,0,0,0,27.252,27.5Z" fill="#fff"/><path d="M325.218,26.744a9.148,9.148,0,0,1-6.576,2.593,9.366,9.366,0,1,1,0-18.731,9.047,9.047,0,0,1,6.6,2.8l1.987-1.987a12.368,12.368,0,0,0-8.672-3.452,12.18,12.18,0,0,0-12.292,12.042,12.03,12.03,0,0,0,12.292,11.957,11.722,11.722,0,0,0,8.548-3.339Z" fill="#fff"/><path d="M265.1,14.033c-5.063-1.189-8.382-2.223-8.382-5.641,0-3.233,3.153-5.405,7.847-5.405a12.726,12.726,0,0,1,9.327,3.7L276,4.577A15.725,15.725,0,0,0,264.567,0c-6.378,0-10.833,3.451-10.833,8.391,0,6.041,6.176,7.49,10.686,8.548,5.136,1.206,8.772,2.359,8.772,6.226,0,3.615-3.218,5.861-8.4,5.861a14.007,14.007,0,0,1-10.341-4.157l-2.108,2.108a17.012,17.012,0,0,0,12.449,5.034c6.916,0,11.384-3.473,11.384-8.847C276.179,16.633,269.777,15.13,265.1,14.033Z" fill="#fff"/><path d="M361.368,8.558h-2.927V31.429h2.927V18.634a8.223,8.223,0,0,1,2.132-5.968,7.191,7.191,0,0,1,4.976-1.834,9.091,9.091,0,0,1,1.271.1V8.022c-.367-.031-.883-.05-1.271-.05a8.556,8.556,0,0,0-7.106,3.644Z" fill="#fff"/></svg>