<svg id="Layer_1" xmlns="http://www.w3.org/2000/svg" xmlns:xlink="http://www.w3.org/1999/xlink" viewBox="0 0 80 15"><style>.st0{fill:#FFFFFF;stroke:#000000;stroke-width:1.0416;} .st1{fill:#ABB1AA;} .st2{clip-path:url(#SVGID_2_);} .st3{fill:#FFFFFF;} .st4{clip-path:url(#SVGID_4_);}</style><path class="st0" d="M.5.5h79v14H.5V.5z"/><path d="M2 1.9h76v11.2H2V1.9z"/><path class="st1" d="M2 1.9v11.2h20.1c1.3-1.6 2.2-3.5 2.2-5.6 0-2.1-.9-4-2.1-5.6H2z"/><defs><path id="SVGID_1_" d="M5 1.9h15v11.2H5z"/></defs><clipPath id="SVGID_2_"><use xlink:href="#SVGID_1_" overflow="visible"/></clipPath><path class="st2 st3" d="M19.3 7.5c0 3.5-3 6.3-6.7 6.3S5.9 11 5.9 7.5s3-6.3 6.7-6.3 6.7 2.8 6.7 6.3z"/><defs><path id="SVGID_3_" d="M4 1.9h17v11.2H4z"/></defs><clipPath id="SVGID_4_"><use xlink:href="#SVGID_3_" overflow="visible"/></clipPath><path d="M18 2.4c1.5 1.4 2.2 3.1 2.2 5.2 0 2-.7 3.7-2.2 5.1-1.5 1.4-3.4 2.2-5.5 2.2s-3.9-.7-5.4-2.1c-1.5-1.4-2.3-3.1-2.3-5.1 0-2 .8-3.7 2.3-5.2C8.6 1.1 10.4.4 12.5.4c2.2-.1 4.1.6 5.5 2zm-9.8.9C6.9 4.5 6.3 5.9 6.3 7.5s.6 3 1.9 4.2c1.2 1.2 2.7 1.8 4.4 1.8s3.2-.6 4.5-1.8c1.2-1.1 1.8-2.5 1.8-4.2 0-1.7-.6-3.1-1.8-4.2-1.2-1.2-2.7-1.7-4.4-1.7-1.8 0-3.3.6-4.5 1.7zm3.3 3.5c-.2-.4-.5-.6-.9-.6-.7 0-1 .4-1 1.3s.3 1.3 1 1.3c.4 0 .8-.2 1-.6l.9.5c-.4.8-1.1 1.1-2 1.1-.7 0-1.2-.2-1.7-.6-.4-.4-.6-1-.6-1.7s.2-1.2.6-1.6c.4-.4 1-.6 1.6-.6.9 0 1.6.4 2 1.1l-.9.4zm4.4 0c-.2-.4-.5-.6-.8-.6-.7 0-1 .4-1 1.3s.3 1.3 1 1.3c.4 0 .8-.2.9-.6l1 .5c-.4.8-1.1 1.1-2 1.1-.7 0-1.2-.2-1.7-.6-.4-.4-.6-1-.6-1.7s.2-1.2.6-1.6 1-.6 1.6-.6c.9 0 1.6.4 2 1.1l-1 .4z" class="st4"/><path class="st3" d="M31.4 4.7h1.7l1.4 2 1.3-2h1.7L35.2 8v2.3h-1.5V8l-2.3-3.3M36.7 7.6h2.5v1.1h-2.5V7.6M45.5 10.3h-1.4l-2.4-3.8v3.8h-1.3V4.7h1.7l2 3.2V4.7h1.3v5.6zM31.3 7.8c-.2-.2-.4-.4-.8-.5.3-.1.5-.2.6-.4.1-.2.2-.4.2-.7 0-.5-.2-.9-.6-1.1-.4-.2-1-.4-1.8-.4h-2.3v5.6h2.6c.8 0 1.4-.1 1.8-.4.4-.3.6-.7.6-1.2 0-.3-.1-.6-.3-.9zm-3.1-2.1h.9c.2 0 .4.1.6.2.1.1.2.2.2.4s-.1.3-.2.4c-.1.1-.3.2-.6.2h-.9V5.7zm1.6 3.5c-.2.1-.4.2-.7.2h-.9V7.9h.9c.3 0 .5.1.7.2.2.1.2.3.2.5 0 .3 0 .4-.2.6zM52.2 7.6h2.5v1.1h-2.5V7.6M60.1 4.9v1.2c-.3-.1-.6-.2-1-.3-.3-.1-.6-.1-.9-.1-.4 0-.6 0-.8.1-.2.1-.3.2-.3.4 0 .1.1.3.2.4.1.1.3.2.6.2l.7.2c.7.1 1.1.3 1.4.6.3.3.4.6.4 1.1 0 .6-.2 1.1-.6 1.4-.4.3-1 .4-1.8.4-.4 0-.8 0-1.1-.1-.4-.1-.8-.2-1.1-.3V8.8c.4.2.8.3 1.1.4.4.1.7.1 1 .1s.6-.1.8-.2c.2 0 .3-.1.3-.3 0-.2-.1-.3-.2-.4-.1-.1-.4-.2-.7-.3l-.6-.1c-.6-.1-1-.3-1.3-.6-.3-.3-.4-.6-.4-1.1 0-.6.2-1 .6-1.3.4-.3.9-.4 1.7-.4.3 0 .7 0 1 .1.2.1.6.1 1 .2M65.1 4.7h-1.8l-2.2 5.6h1.5l.4-1h2.4l.4 1h1.5l-2.2-5.6zm-1.7 3.6l.8-2.3.8 2.3h-1.6zM50.3 6.6c-.2-.5-.6-.8-1.1-.8-.9 0-1.3.5-1.3 1.6S48.3 9 49.2 9c.6 0 1-.3 1.2-.8l1.2.8c-.6 1-1.4 1.4-2.5 1.4-.9 0-1.6-.3-2.1-.8s-.8-1.2-.8-2.1c0-.9.3-1.6.8-2.1s1.2-.8 2-.8c1.2 0 2.1.4 2.6 1.3l-1.3.7z"/></svg>