<svg width="668" height="624" viewBox="0 0 668 624" xmlns="http://www.w3.org/2000/svg" xmlns:xlink="http://www.w3.org/1999/xlink"><defs><path d="M453.955 57.512c1.65 0 2.773-.59 3.367-1.77.324-.648.486-1.573.486-2.775v-5.49h-1.344v6.042c0 .706-.11 1.267-.327 1.684-.403.768-1.166 1.151-2.289 1.151-.936 0-1.601-.355-1.996-1.064-.266-.47-.4-1.06-.4-1.77v-6.043h-1.344v5.49c0 1.202.162 2.127.486 2.775.59 1.18 1.71 1.77 3.36 1.77zm7.167-.26V49.34l5.011 7.913h1.484v-9.776h-1.258v7.919l-4.938-7.92h-1.563v9.777h1.264zm9.097 0l1.058-2.927h3.867l.991 2.928h1.451l-3.547-9.776h-1.497l-3.68 9.776h1.357zm4.499-4.006h-3.061l1.577-4.319 1.484 4.32zm8.012 4.266c1.65 0 2.773-.59 3.368-1.77.324-.648.486-1.573.486-2.775v-5.49h-1.345v6.042c0 .706-.108 1.267-.326 1.684-.404.768-1.167 1.151-2.29 1.151-.935 0-1.6-.355-1.996-1.064-.266-.47-.399-1.06-.399-1.77v-6.043h-1.344v5.49c0 1.202.162 2.127.486 2.775.59 1.18 1.71 1.77 3.36 1.77zm9.723-.26v-8.61h3.294v-1.165h-7.932v1.164h3.294v8.612h1.344zm5.876 0v-4.571h5.085v4.572h1.337v-9.776h-1.337v4.04h-5.085v-4.04h-1.337v9.776h1.337zm12.665.287c1.61 0 2.85-.568 3.72-1.704.74-.967 1.111-2.18 1.111-3.64 0-1.349-.324-2.456-.972-3.32-.83-1.11-2.107-1.665-3.833-1.665-1.65 0-2.897.604-3.74 1.81-.656.941-.985 2.072-.985 3.395 0 1.464.384 2.675 1.152 3.633.86.994 2.043 1.49 3.547 1.49zm.16-1.185c-1.23 0-2.118-.371-2.666-1.114-.548-.744-.822-1.656-.822-2.739 0-1.353.32-2.377.959-3.071.638-.694 1.464-1.042 2.475-1.042 1.043 0 1.865.35 2.466 1.052.6.7.902 1.626.902 2.775 0 1.087-.261 2.049-.782 2.885-.522.836-1.366 1.254-2.533 1.254zm7.732.899V53.06h3.015c.541 0 .938.06 1.191.18.444.217.681.645.712 1.284l.08 1.63c.018.382.04.64.067.773.026.133.062.241.106.326h1.624v-.22c-.204-.089-.346-.288-.426-.599-.049-.182-.08-.459-.093-.832l-.047-1.31c-.022-.569-.13-.979-.322-1.232-.193-.253-.48-.457-.862-.612a2.62 2.62 0 001.015-.899c.241-.372.362-.851.362-1.437 0-1.122-.459-1.892-1.377-2.31-.484-.217-1.098-.325-1.844-.325h-4.525v9.776h1.324zm3.062-5.298h-3.062v-3.34h3.235c.452 0 .814.066 1.084.2.506.252.759.727.759 1.423 0 .648-.18 1.096-.542 1.345-.362.248-.853.372-1.474.372zm6.934 5.298v-9.776h-1.338v9.776h1.338zm9.124 0v-1.165h-6.03l6.03-7.473v-1.138h-7.26v1.164h5.556l-5.996 7.514v1.098h7.7zm8.704 0v-1.165h-5.936v-3.314h5.397v-1.131h-5.397v-2.968h5.837v-1.198h-7.128v9.776h7.227zm5.744 0c1.677 0 2.859-.741 3.547-2.223.39-.839.585-1.777.585-2.815 0-1.344-.33-2.447-.991-3.308-.741-.953-1.784-1.43-3.128-1.43h-3.96v9.776h3.947zm-.253-1.132h-2.363v-7.506h2.35c1.069 0 1.844.335 2.325 1.005.482.67.722 1.61.722 2.821 0 .315-.033.657-.1 1.025-.115.617-.303 1.123-.565 1.517-.328.493-.75.826-1.265.999-.288.093-.656.14-1.104.14zm13.363 1.418c1.042 0 1.957-.233 2.745-.699.787-.466 1.181-1.24 1.181-2.322 0-.87-.31-1.533-.932-1.99-.359-.262-.87-.468-1.53-.62l-1.371-.312c-.923-.213-1.515-.39-1.777-.532-.4-.222-.599-.573-.599-1.052 0-.435.17-.816.512-1.144.342-.329.903-.493 1.684-.493.967 0 1.653.255 2.057.765.217.28.359.681.425 1.205h1.245c0-1.087-.358-1.878-1.075-2.373-.716-.494-1.587-.742-2.612-.742-1.113 0-1.974.282-2.582.846-.608.563-.912 1.284-.912 2.162 0 .812.31 1.422.932 1.83.36.236.972.45 1.837.646l1.324.3c.719.164 1.247.357 1.584.579.333.226.499.605.499 1.137 0 .71-.395 1.203-1.185 1.478-.408.142-.86.213-1.357.213-1.11 0-1.883-.324-2.323-.972-.23-.346-.361-.796-.392-1.35h-1.245c-.013 1.055.324 1.891 1.012 2.508.687.621 1.64.932 2.855.932zm5.576-.286l3.102-9.776h-1.012l-3.101 9.776h1.011zm6.968 0l2.27-8.106 2.255 8.106h1.391l2.57-9.776h-1.452l-1.843 7.952-2.21-7.952h-1.437l-2.21 7.952-1.843-7.952h-1.437l2.555 9.776h1.391z" id="a"/><path d="M534.085 199.216c1.287 0 2.225-.382 2.815-1.145.395-.51.593-1.08.593-1.71 0-.75-.22-1.338-.66-1.764-.248-.24-.623-.455-1.124-.645.342-.173.603-.364.785-.573.35-.394.526-.9.526-1.517 0-.528-.142-.994-.426-1.397-.483-.684-1.298-1.025-2.442-1.025h-4.2v9.776h4.133zm-.426-5.644h-2.409v-3.028h2.363c.577 0 1.011.063 1.304.187.52.222.779.652.779 1.29 0 .635-.244 1.074-.732 1.318-.31.156-.746.233-1.305.233zm.446 4.512h-2.855v-3.44h2.629c.555 0 1 .069 1.338.206.634.257.951.741.951 1.45 0 .422-.108.782-.326 1.079-.346.47-.925.705-1.737.705zm8.911 1.391c1.65 0 2.773-.59 3.367-1.77.324-.648.486-1.573.486-2.775v-5.49h-1.344v6.042c0 .706-.109 1.267-.326 1.684-.404.768-1.167 1.151-2.29 1.151-.935 0-1.601-.355-1.996-1.064-.266-.47-.4-1.06-.4-1.77v-6.043h-1.343v5.49c0 1.202.162 2.127.485 2.775.59 1.18 1.71 1.77 3.361 1.77zm9.39.027c1.043 0 1.958-.233 2.745-.699.788-.466 1.182-1.24 1.182-2.322 0-.87-.311-1.533-.932-1.99-.36-.262-.87-.468-1.53-.62l-1.372-.312c-.922-.213-1.515-.39-1.777-.532-.399-.222-.598-.573-.598-1.052 0-.435.17-.816.512-1.144.342-.329.903-.493 1.684-.493.967 0 1.652.255 2.056.765.217.28.36.681.426 1.205h1.244c0-1.087-.358-1.878-1.074-2.373-.717-.494-1.588-.742-2.612-.742-1.114 0-1.975.282-2.583.846-.607.563-.911 1.284-.911 2.162 0 .812.31 1.422.931 1.83.36.236.972.45 1.837.646l1.325.3c.718.164 1.246.357 1.583.579.333.226.5.605.5 1.137 0 .71-.395 1.203-1.185 1.478-.408.142-.86.213-1.358.213-1.109 0-1.883-.324-2.322-.972-.23-.346-.362-.796-.393-1.35h-1.244c-.014 1.055.324 1.891 1.011 2.508.688.621 1.64.932 2.855.932zm7.24-.286v-9.776h-1.337v9.776h1.338zm3.415 0v-7.913l5.01 7.913h1.485v-9.776h-1.258v7.919l-4.938-7.92h-1.564v9.777h1.265zm15.931 0v-1.165h-5.936v-3.314h5.397v-1.131h-5.397v-2.968h5.837v-1.198h-7.128v9.776h7.227zm5.225.286c1.042 0 1.957-.233 2.745-.699.787-.466 1.18-1.24 1.18-2.322 0-.87-.31-1.533-.93-1.99-.36-.262-.87-.468-1.531-.62l-1.371-.312c-.923-.213-1.515-.39-1.777-.532-.4-.222-.6-.573-.6-1.052 0-.435.172-.816.513-1.144.342-.329.903-.493 1.684-.493.967 0 1.653.255 2.056.765.218.28.36.681.426 1.205h1.245c0-1.087-.359-1.878-1.075-2.373-.717-.494-1.587-.742-2.612-.742-1.114 0-1.974.282-2.582.846-.608.563-.912 1.284-.912 2.162 0 .812.31 1.422.932 1.83.36.236.971.45 1.837.646l1.324.3c.719.164 1.247.357 1.584.579.332.226.499.605.499 1.137 0 .71-.395 1.203-1.185 1.478-.408.142-.86.213-1.357.213-1.11 0-1.884-.324-2.323-.972-.23-.346-.361-.796-.393-1.35h-1.244c-.013 1.055.324 1.891 1.012 2.508.687.621 1.639.932 2.855.932zm9.09 0c1.043 0 1.958-.233 2.745-.699.788-.466 1.181-1.24 1.181-2.322 0-.87-.31-1.533-.931-1.99-.36-.262-.87-.468-1.53-.62l-1.372-.312c-.923-.213-1.515-.39-1.777-.532-.399-.222-.599-.573-.599-1.052 0-.435.171-.816.513-1.144.341-.329.903-.493 1.684-.493.967 0 1.652.255 2.056.765.217.28.36.681.426 1.205h1.244c0-1.087-.358-1.878-1.074-2.373-.717-.494-1.588-.742-2.613-.742-1.113 0-1.974.282-2.582.846-.607.563-.911 1.284-.911 2.162 0 .812.31 1.422.931 1.83.36.236.972.45 1.837.646l1.324.3c.72.164 1.247.357 1.584.579.333.226.5.605.5 1.137 0 .71-.395 1.203-1.185 1.478-.408.142-.86.213-1.358.213-1.109 0-1.883-.324-2.322-.972-.231-.346-.362-.796-.393-1.35h-1.244c-.014 1.055.323 1.891 1.011 2.508.688.621 1.64.932 2.855.932zm13.336-.033c1.318 0 2.365-.42 3.142-1.258.647-.697 1.029-1.56 1.144-2.589h-1.29c-.134.643-.336 1.162-.606 1.557-.51.75-1.254 1.125-2.23 1.125-1.06 0-1.858-.356-2.392-1.068-.535-.712-.802-1.64-.802-2.785 0-1.398.296-2.435.888-3.111.593-.677 1.37-1.015 2.333-1.015.79 0 1.403.184 1.84.552.437.368.729.867.875 1.497h1.291c-.075-.83-.455-1.57-1.138-2.222-.683-.652-1.644-.979-2.882-.979-1.45 0-2.588.502-3.413 1.504-.764.923-1.145 2.106-1.145 3.548 0 1.898.508 3.303 1.524 4.212.772.688 1.726 1.032 2.861 1.032zm10.09.033c1.61 0 2.85-.568 3.72-1.704.74-.967 1.11-2.18 1.11-3.64 0-1.349-.323-2.456-.97-3.32-.83-1.11-2.108-1.665-3.834-1.665-1.65 0-2.897.604-3.74 1.81-.657.941-.985 2.072-.985 3.395 0 1.464.384 2.675 1.151 3.633.86.994 2.043 1.49 3.547 1.49zm.159-1.185c-1.229 0-2.117-.371-2.665-1.114-.548-.744-.822-1.656-.822-2.739 0-1.353.32-2.377.958-3.071.639-.694 1.464-1.042 2.476-1.042 1.042 0 1.864.35 2.465 1.052.602.7.902 1.626.902 2.775 0 1.087-.26 2.049-.782 2.885-.521.836-1.365 1.254-2.532 1.254zm7.513.899v-7.913l5.011 7.913h1.485v-9.776h-1.258v7.919l-4.938-7.92h-1.564v9.777h1.264zm12.398 0v-8.612h3.295v-1.164h-7.933v1.164h3.294v8.612h1.344zm11.86 0v-1.165h-5.937v-3.314h5.397v-1.131h-5.397v-2.968h5.837v-1.198h-7.128v9.776h7.227zm2.575 0l2.708-4.02 2.636 4.02h1.643l-3.44-5.011 3.28-4.765h-1.576l-2.476 3.74-2.496-3.74h-1.657l3.281 4.765-3.5 5.01h1.597zm12.072 0v-8.612h3.294v-1.164h-7.933v1.164h3.294v8.612h1.345z" id="b"/><path d="M174.701 13.585V3.809h-1.337v9.776h1.337zm3.414 0V5.672l5.011 7.913h1.484V3.809h-1.257v7.92l-4.938-7.92h-1.564v9.776h1.264zm12.398 0V4.974h3.295V3.809h-7.933v1.165h3.294v8.611h1.344zm11.86 0V12.42h-5.937V9.106h5.397V7.975h-5.397V5.007h5.837V3.809h-7.128v9.776h7.227zm3.22 0V9.392h3.015c.541 0 .938.06 1.191.18.444.217.681.646.712 1.284l.08 1.63c.018.382.04.64.067.773.026.133.062.242.106.326h1.624v-.22c-.204-.088-.346-.288-.426-.599-.049-.181-.08-.459-.093-.831l-.047-1.311c-.022-.568-.13-.979-.322-1.232-.193-.252-.48-.457-.862-.612a2.62 2.62 0 001.015-.898c.241-.373.362-.852.362-1.438 0-1.122-.459-1.892-1.377-2.309-.484-.217-1.098-.326-1.844-.326h-4.525v9.776h1.324zm3.062-5.297h-3.062V4.947h3.235c.452 0 .814.067 1.084.2.506.252.759.727.759 1.424 0 .647-.18 1.096-.542 1.344-.362.248-.853.373-1.474.373zm6.561 5.297V5.672l5.011 7.913h1.484V3.809h-1.257v7.92l-4.938-7.92h-1.564v9.776h1.264zm15.932 0V12.42h-5.936V9.106h5.397V7.975h-5.397V5.007h5.836V3.809h-7.127v9.776h7.227zm5.557 0V4.974h3.294V3.809h-7.933v1.165h3.295v8.611h1.344zm15.406 0V12.42h-5.936V9.106h5.397V7.975h-5.397V5.007h5.836V3.809h-7.127v9.776h7.227zm2.575 0l2.709-4.02 2.635 4.02h1.644l-3.44-5.011 3.28-4.765h-1.577l-2.476 3.74-2.495-3.74h-1.657l3.28 4.765-3.5 5.011h1.597zm9.703 0V9.452h3.075c.985 0 1.715-.283 2.19-.848.474-.566.711-1.23.711-1.993 0-.888-.266-1.576-.798-2.067-.533-.49-1.234-.735-2.103-.735h-4.4v9.776h1.325zm2.636-5.25h-2.636V4.946h2.636c.51 0 .911.069 1.204.206.532.258.799.746.799 1.464 0 .64-.186 1.085-.556 1.338-.37.253-.853.38-1.447.38zm9.197 5.536c1.61 0 2.85-.568 3.72-1.703.74-.968 1.111-2.181 1.111-3.64 0-1.35-.324-2.456-.972-3.321-.83-1.11-2.107-1.664-3.833-1.664-1.65 0-2.897.603-3.74 1.81-.656.94-.985 2.072-.985 3.394 0 1.464.384 2.675 1.152 3.633.86.994 2.043 1.491 3.547 1.491zm.16-1.184c-1.23 0-2.118-.372-2.666-1.115s-.822-1.656-.822-2.739c0-1.353.32-2.376.958-3.07.64-.695 1.465-1.042 2.476-1.042 1.043 0 1.865.35 2.466 1.051.6.701.901 1.626.901 2.775 0 1.087-.26 2.049-.781 2.885-.522.836-1.366 1.255-2.533 1.255zm9.735 1.184c1.043 0 1.958-.233 2.746-.699.787-.465 1.18-1.24 1.18-2.322 0-.87-.31-1.533-.93-1.99-.36-.262-.87-.468-1.532-.619l-1.37-.313c-.923-.213-1.516-.39-1.777-.532-.4-.222-.6-.572-.6-1.052 0-.434.172-.816.513-1.144.342-.328.903-.493 1.684-.493.967 0 1.653.255 2.056.766.218.28.36.68.426 1.204h1.245c0-1.087-.359-1.878-1.075-2.372-.717-.495-1.587-.742-2.612-.742-1.114 0-1.974.281-2.582.845-.608.563-.912 1.284-.912 2.163 0 .812.31 1.422.932 1.83.36.235.971.45 1.836.645l1.325.3c.718.164 1.246.357 1.584.579.332.226.499.605.499 1.138 0 .71-.395 1.202-1.185 1.477-.408.142-.86.213-1.357.213-1.11 0-1.884-.324-2.323-.971-.23-.347-.362-.797-.393-1.351h-1.244c-.013 1.055.324 1.892 1.011 2.508.688.622 1.64.932 2.855.932zm9.544-.026c1.65 0 2.772-.59 3.367-1.77.324-.648.486-1.573.486-2.776V3.81h-1.345v6.043c0 .705-.108 1.266-.326 1.683-.403.768-1.167 1.152-2.289 1.152-.936 0-1.602-.355-1.996-1.065-.267-.47-.4-1.06-.4-1.77V3.809h-1.344v5.49c0 1.203.162 2.128.486 2.775.59 1.18 1.71 1.77 3.36 1.77zm7.386-.26V9.392h3.015c.541 0 .938.06 1.191.18.444.217.681.646.712 1.284l.08 1.63c.018.382.04.64.067.773.026.133.062.242.106.326h1.624v-.22c-.204-.088-.346-.288-.426-.599-.049-.181-.08-.459-.093-.831l-.047-1.311c-.022-.568-.13-.979-.322-1.232-.193-.252-.48-.457-.862-.612a2.62 2.62 0 001.015-.898c.241-.373.362-.852.362-1.438 0-1.122-.459-1.892-1.377-2.309-.484-.217-1.098-.326-1.844-.326h-4.525v9.776h1.324zm3.062-5.297h-3.062V4.947h3.235c.452 0 .814.067 1.084.2.506.252.76.727.76 1.424 0 .647-.182 1.096-.543 1.344-.362.248-.853.373-1.474.373zm12.65 5.297V12.42h-5.936V9.106h5.398V7.975h-5.398V5.007h5.837V3.809h-7.128v9.776h7.228z" id="c"/><path d="M286.17 546.305v-5.77c0-.23-.005-.591-.017-1.082-.01-.49-.016-.855-.016-1.094v-.3l2.808 8.246h1.311l2.789-8.246c0 .528-.005 1.023-.014 1.484-.009.462-.013.792-.013.992v5.77h1.258v-9.776h-1.877l-2.788 8.265-2.809-8.265h-1.896v9.776h1.264zm11.76 0v-9.776h-1.338v9.776h1.337zm5.636.286c1.043 0 1.958-.233 2.745-.699.788-.466 1.181-1.24 1.181-2.323 0-.87-.31-1.532-.931-1.99-.36-.261-.87-.467-1.53-.618l-1.372-.313c-.923-.213-1.515-.39-1.777-.532-.399-.222-.599-.573-.599-1.052 0-.435.171-.816.513-1.145.341-.328.903-.492 1.683-.492.968 0 1.653.255 2.057.765.217.28.36.681.426 1.205h1.244c0-1.087-.358-1.878-1.075-2.373-.716-.494-1.587-.742-2.612-.742-1.113 0-1.974.282-2.582.846-.608.563-.911 1.284-.911 2.162 0 .812.31 1.422.931 1.83.36.236.972.45 1.837.646l1.324.3c.72.164 1.247.357 1.584.578.333.227.5.606.5 1.138 0 .71-.396 1.203-1.185 1.478-.408.142-.861.213-1.358.213-1.109 0-1.883-.324-2.322-.972-.231-.346-.362-.796-.393-1.35h-1.245c-.013 1.055.324 1.891 1.012 2.508.688.621 1.64.932 2.855.932zm9.09 0c1.043 0 1.958-.233 2.746-.699.787-.466 1.18-1.24 1.18-2.323 0-.87-.31-1.532-.93-1.99-.36-.261-.87-.467-1.531-.618l-1.371-.313c-.923-.213-1.515-.39-1.777-.532-.4-.222-.6-.573-.6-1.052 0-.435.172-.816.513-1.145.342-.328.903-.492 1.684-.492.967 0 1.653.255 2.056.765.218.28.36.681.426 1.205h1.245c0-1.087-.358-1.878-1.075-2.373-.717-.494-1.587-.742-2.612-.742-1.114 0-1.974.282-2.582.846-.608.563-.912 1.284-.912 2.162 0 .812.31 1.422.932 1.83.36.236.971.45 1.837.646l1.324.3c.719.164 1.247.357 1.584.578.333.227.499.606.499 1.138 0 .71-.395 1.203-1.185 1.478-.408.142-.86.213-1.357.213-1.11 0-1.884-.324-2.323-.972-.23-.346-.361-.796-.392-1.35h-1.245c-.013 1.055.324 1.891 1.012 2.508.687.621 1.639.932 2.855.932zm7.241-.286v-9.776h-1.338v9.776h1.338zm3.414 0v-7.913l5.011 7.913h1.484v-9.776h-1.258v7.919l-4.938-7.92h-1.563v9.777h1.264zm12.551.26c.896 0 1.635-.165 2.216-.493.346-.191.743-.533 1.191-1.025l.32 1.258h.852v-5.231h-4.293v1.098h3.062c-.014 1.145-.31 1.973-.889 2.486-.579.512-1.31.768-2.193.768-1.153 0-1.985-.365-2.495-1.095s-.766-1.675-.766-2.838c0-1.344.31-2.356.929-3.035.619-.678 1.38-1.018 2.286-1.018.763 0 1.395.163 1.896.49.502.326.832.846.992 1.56h1.311c-.217-1.278-.812-2.172-1.784-2.682-.67-.355-1.464-.532-2.382-.532-1.34 0-2.431.461-3.274 1.384-.888.967-1.331 2.27-1.331 3.906 0 1.642.455 2.933 1.364 3.873.834.75 1.83 1.125 2.988 1.125zm11.9-.26v-4.193h3.014c.541 0 .938.06 1.19.18.445.217.682.645.713 1.284l.08 1.63c.018.382.04.64.066.773.027.133.063.241.107.326h1.624v-.22c-.204-.089-.346-.288-.426-.599-.049-.182-.08-.46-.093-.832l-.047-1.31c-.022-.569-.13-.98-.323-1.232-.193-.253-.48-.457-.862-.612a2.62 2.62 0 001.015-.899c.242-.372.363-.851.363-1.437 0-1.123-.46-1.892-1.378-2.31-.483-.217-1.098-.325-1.843-.325h-4.525v9.776h1.324zm3.06-5.298h-3.06v-3.34h3.233c.453 0 .814.066 1.085.2.506.252.759.727.759 1.423 0 .648-.181 1.096-.543 1.345-.361.248-.853.372-1.474.372zm12.651 5.298v-1.165h-5.936v-3.314h5.397v-1.131h-5.397v-2.969h5.836v-1.197h-7.127v9.776h7.227zm10.016.778l.665-.805-1.344-1.045c.559-.559.956-1.282 1.191-2.17a7.009 7.009 0 00.233-1.816c0-1.349-.324-2.456-.971-3.32-.83-1.11-2.108-1.665-3.834-1.665-1.65 0-2.897.604-3.74 1.81-.656.941-.985 2.072-.985 3.394 0 1.456.38 2.667 1.138 3.634.861.994 2.05 1.49 3.567 1.49.502 0 .964-.06 1.388-.179.424-.12.817-.28 1.181-.48l1.51 1.152zm-3.92-1.677c-1.145 0-2.013-.348-2.605-1.045-.593-.696-.889-1.632-.889-2.808 0-1.398.309-2.432.925-3.104.617-.673 1.453-1.009 2.51-1.009 1.042 0 1.864.35 2.465 1.052.601.7.902 1.626.902 2.775 0 .523-.073 1.071-.217 1.644a3.702 3.702 0 01-.822 1.55l-1.277-.991-.666.818 1.072.839c-.178.11-.386.185-.626.223a4.97 4.97 0 01-.772.056zm10.182 1.158c1.65 0 2.773-.59 3.367-1.77.324-.648.486-1.573.486-2.775v-5.49h-1.344v6.042c0 .706-.109 1.267-.326 1.684-.404.767-1.167 1.151-2.29 1.151-.936 0-1.601-.355-1.996-1.065-.266-.47-.4-1.06-.4-1.77v-6.042h-1.343v5.49c0 1.202.161 2.127.485 2.775.59 1.18 1.71 1.77 3.361 1.77zm7.54-.26v-9.775h-1.338v9.776h1.338zm3.634 0v-4.192h3.014c.542 0 .939.06 1.192.18.443.217.68.645.712 1.284l.08 1.63c.017.382.04.64.066.773.027.133.062.241.106.326h1.624v-.22c-.204-.089-.346-.288-.426-.599-.048-.182-.08-.46-.093-.832l-.046-1.31c-.023-.569-.13-.98-.323-1.232-.193-.253-.48-.457-.862-.612a2.62 2.62 0 001.015-.899c.242-.372.363-.851.363-1.437 0-1.123-.46-1.892-1.378-2.31-.484-.217-1.098-.325-1.843-.325H389.6v9.776h1.325zm3.06-5.297h-3.06v-3.34h3.234c.452 0 .814.066 1.085.2.505.252.758.727.758 1.423 0 .648-.18 1.096-.542 1.345-.362.248-.853.372-1.474.372zm12.652 5.298v-1.165H400.7v-3.314h5.397v-1.131H400.7v-2.969h5.836v-1.197h-7.127v9.776h7.227zm5.743 0c1.677 0 2.86-.741 3.547-2.223.39-.839.586-1.777.586-2.815 0-1.344-.33-2.447-.992-3.308-.74-.953-1.783-1.43-3.128-1.43h-3.96v9.776h3.947zm-.253-1.132h-2.362v-7.506h2.349c1.069 0 1.844.335 2.326 1.004.481.67.722 1.61.722 2.822 0 .315-.034.657-.1 1.025-.115.617-.304 1.122-.566 1.517-.328.493-.75.825-1.264.999-.289.093-.657.14-1.105.14zm13.363 1.418c1.043 0 1.958-.233 2.745-.699.788-.466 1.181-1.24 1.181-2.323 0-.87-.31-1.532-.931-1.99-.36-.261-.87-.467-1.53-.618l-1.372-.313c-.923-.213-1.515-.39-1.777-.532-.399-.222-.599-.573-.599-1.052 0-.435.171-.816.513-1.145.342-.328.903-.492 1.684-.492.967 0 1.652.255 2.056.765.217.28.36.681.426 1.205h1.244c0-1.087-.358-1.878-1.074-2.373-.717-.494-1.588-.742-2.612-.742-1.114 0-1.975.282-2.583.846-.607.563-.911 1.284-.911 2.162 0 .812.31 1.422.931 1.83.36.236.972.45 1.837.646l1.324.3c.72.164 1.247.357 1.584.578.333.227.5.606.5 1.138 0 .71-.395 1.203-1.185 1.478-.408.142-.86.213-1.358.213-1.109 0-1.883-.324-2.322-.972-.231-.346-.362-.796-.393-1.35h-1.244c-.014 1.055.323 1.891 1.011 2.508.688.621 1.64.932 2.855.932zm5.577-.286l3.101-9.776h-1.011l-3.102 9.776h1.012zm6.968 0l2.269-8.106 2.256 8.106h1.39l2.57-9.776h-1.451l-1.844 7.952-2.21-7.952h-1.437l-2.209 7.952-1.843-7.952h-1.438l2.556 9.776h1.39z" id="d"/><path d="M256.04 619.585v-1.367h-6.97v-3.891h6.336v-1.328h-6.336v-3.485h6.852v-1.406h-8.367v11.477h8.484zm3.257 0v-4.383c0-.547.035-.967.105-1.262.07-.294.223-.58.457-.855.292-.344.63-.573 1.016-.688.214-.067.487-.101.82-.101.657 0 1.11.26 1.36.781.15.312.226.724.226 1.234v5.274h1.43v-5.367c0-.844-.115-1.493-.344-1.946-.416-.828-1.219-1.242-2.406-1.242-.542 0-1.034.107-1.477.32-.442.214-.862.566-1.257 1.055v-1.187h-1.336v8.367h1.406zm11.133 0l3.156-8.367h-1.54l-2.335 6.812-2.234-6.812h-1.633l3.086 8.367h1.5zm5.789-9.883v-1.594h-1.43v1.594h1.43zm0 9.883v-8.328h-1.43v8.328h1.43zm3.57 0v-4.813c0-.593.19-1.118.57-1.574.38-.456.925-.684 1.633-.684a2.1 2.1 0 01.46.04h.001v-1.485a18.66 18.66 0 00-.32-.031 1.847 1.847 0 00-.133-.008c-.557 0-1.05.202-1.477.606-.427.403-.695.746-.804 1.027v-1.445h-1.336v8.367h1.406zm7.07.304c1.38 0 2.399-.44 3.055-1.32.656-.88.984-1.995.984-3.344 0-1.395-.372-2.453-1.117-3.171-.745-.72-1.656-1.079-2.734-1.079-1.203 0-2.162.417-2.875 1.25-.714.834-1.07 1.954-1.07 3.36 0 1.312.338 2.358 1.015 3.137.677.778 1.591 1.167 2.742 1.167zm.133-1.21c-.849 0-1.469-.297-1.86-.891-.39-.594-.585-1.336-.585-2.227 0-.927.195-1.718.586-2.375.39-.656 1.015-.984 1.875-.984.969 0 1.65.385 2.047 1.156.25.49.375 1.125.375 1.906 0 .865-.173 1.65-.52 2.356-.346.706-.986 1.059-1.918 1.059zm6.985.906v-4.383c0-.547.035-.967.105-1.262.07-.294.223-.58.457-.855.292-.344.63-.573 1.016-.688.213-.067.487-.101.82-.101.656 0 1.11.26 1.36.781.15.312.226.724.226 1.234v5.274h1.43v-5.367c0-.844-.115-1.493-.344-1.946-.417-.828-1.219-1.242-2.406-1.242-.542 0-1.034.107-1.477.32-.443.214-.862.566-1.258 1.055v-1.187h-1.336v8.367h1.407zm8.898 0v-4.438c0-1.078.217-1.823.652-2.234.435-.412.918-.617 1.45-.617.583 0 .981.195 1.195.586.135.26.203.674.203 1.242v5.46h1.43v-4.866c0-.865.199-1.482.597-1.852.399-.37.874-.555 1.426-.555.401 0 .741.105 1.02.313.278.208.418.591.418 1.148v5.813h1.46v-5.57c0-.74-.109-1.329-.328-1.766-.406-.813-1.171-1.219-2.296-1.219-.526 0-1 .108-1.422.324-.422.216-.79.549-1.102.996-.187-.364-.396-.64-.625-.828-.406-.328-.943-.492-1.61-.492-.588 0-1.114.159-1.577.477-.271.187-.573.487-.907.898v-1.187h-1.39v8.367h1.406zm15.188.297c.427 0 .81-.042 1.148-.125a3.277 3.277 0 001.586-.844c.255-.24.486-.548.691-.926.206-.377.327-.72.364-1.027h-1.383a2.45 2.45 0 01-.531.976c-.438.485-1.024.727-1.758.727-.787 0-1.368-.257-1.743-.77s-.575-1.194-.601-2.043h6.133c0-.843-.042-1.458-.125-1.843a3.733 3.733 0 00-.563-1.477c-.291-.443-.716-.803-1.273-1.082a3.817 3.817 0 00-1.727-.418c-1.177 0-2.13.42-2.86 1.258-.728.838-1.093 1.93-1.093 3.273 0 1.365.362 2.426 1.086 3.184.724.758 1.607 1.137 2.649 1.137zm2.46-5.149h-4.648c.026-.719.258-1.311.695-1.777.438-.466.98-.7 1.625-.7.901 0 1.545.34 1.93 1.016.208.365.341.852.398 1.461zm4.579 4.852v-4.383c0-.547.035-.967.105-1.262.07-.294.223-.58.457-.855.292-.344.63-.573 1.016-.688.213-.067.487-.101.82-.101.656 0 1.11.26 1.36.781.15.312.226.724.226 1.234v5.274h1.43v-5.367c0-.844-.115-1.493-.344-1.946-.417-.828-1.219-1.242-2.406-1.242-.542 0-1.034.107-1.477.32-.443.214-.862.566-1.258 1.055v-1.187h-1.336v8.367h1.407zm9.46.133c.204 0 .392-.01.567-.032a3.14 3.14 0 00.504-.101v-1.11a4.198 4.198 0 01-.492.024c-.256 0-.438-.029-.547-.086-.198-.099-.297-.294-.297-.586v-5.461h1.336v-1.148h-1.336v-2.336h-1.422v2.336h-1.133v1.148h1.133v5.54c0 .536.117.972.352 1.308.234.336.68.504 1.336.504zm8.852-.133v-4.922h3.54c.635 0 1.1.07 1.398.21.52.256.799.759.836 1.509l.093 1.914c.021.448.047.75.078.906.032.156.073.284.125.383h1.907v-.258c-.24-.104-.407-.339-.5-.703-.058-.214-.094-.54-.11-.977l-.054-1.539c-.026-.666-.153-1.148-.38-1.445-.226-.297-.563-.537-1.011-.719.51-.265.907-.617 1.191-1.055.284-.437.426-1 .426-1.687 0-1.318-.539-2.221-1.617-2.711-.568-.255-1.29-.383-2.164-.383h-5.313v11.477h1.555zm3.594-6.219h-3.594v-3.922h3.797c.531 0 .956.078 1.273.235.594.296.891.854.891 1.671 0 .76-.212 1.287-.637 1.579-.424.291-1.001.437-1.73.437zm7.46-3.664v-1.594h-1.429v1.594h1.43zm0 9.883v-8.328h-1.429v8.328h1.43zm5.087.32c1.156 0 2.017-.27 2.582-.812s.847-1.185.847-1.93c0-.77-.273-1.336-.82-1.695-.344-.23-1.02-.467-2.031-.711l-.93-.227c-.406-.099-.713-.213-.922-.344-.36-.218-.539-.51-.539-.875 0-.333.137-.601.41-.804.274-.203.676-.305 1.207-.305.797 0 1.357.185 1.68.555.198.26.31.55.336.867h1.328c.01-.542-.159-1.047-.508-1.516-.557-.74-1.466-1.11-2.726-1.11-.964 0-1.73.246-2.301.735-.57.49-.856 1.13-.856 1.922 0 .672.303 1.198.907 1.578.338.219.864.417 1.578.594l1.117.281c.599.151 1 .284 1.203.399.318.187.477.46.477.82 0 .474-.198.824-.594 1.05-.396.227-.854.34-1.375.34-.875 0-1.49-.226-1.844-.68-.192-.25-.31-.608-.351-1.077h-1.352c.037.833.314 1.532.832 2.097.518.566 1.4.848 2.645.848zm6.36-.32v-3.14l1.179-1.079 2.61 4.219h1.796l-3.383-5.235 3.203-3.132h-1.797l-3.609 3.554v-6.664h-1.351v11.477h1.351zm9.64.32c1.156 0 2.017-.27 2.582-.812s.847-1.185.847-1.93c0-.77-.273-1.336-.82-1.695-.344-.23-1.02-.467-2.031-.711l-.93-.227c-.406-.099-.713-.213-.922-.344-.36-.218-.539-.51-.539-.875 0-.333.137-.601.41-.804.274-.203.676-.305 1.207-.305.797 0 1.357.185 1.68.555.198.26.31.55.336.867h1.328c.01-.542-.159-1.047-.508-1.516-.557-.74-1.466-1.11-2.726-1.11-.964 0-1.73.246-2.301.735-.57.49-.856 1.13-.856 1.922 0 .672.303 1.198.907 1.578.338.219.864.417 1.578.594l1.117.281c.599.151 1 .284 1.203.399.318.187.477.46.477.82 0 .474-.198.824-.594 1.05-.396.227-.854.34-1.375.34-.875 0-1.49-.226-1.844-.68-.192-.25-.31-.608-.351-1.077h-1.352c.037.833.314 1.532.832 2.097.518.566 1.4.848 2.645.848z" id="e"/><path d="M497.856 398.042v-8.611h3.294v-1.165h-7.933v1.165h3.294v8.611h1.345zm8.458.287c1.61 0 2.85-.568 3.72-1.704.74-.967 1.111-2.18 1.111-3.64 0-1.349-.324-2.456-.971-3.321-.83-1.11-2.108-1.664-3.833-1.664-1.65 0-2.898.604-3.74 1.81-.657.94-.985 2.072-.985 3.394 0 1.464.383 2.676 1.15 3.634.862.994 2.044 1.49 3.548 1.49zm.16-1.185c-1.23 0-2.118-.372-2.666-1.115s-.822-1.656-.822-2.738c0-1.353.32-2.377.959-3.071.639-.695 1.464-1.042 2.475-1.042 1.043 0 1.865.35 2.466 1.052.601.7.902 1.626.902 2.775 0 1.087-.26 2.048-.782 2.885-.521.836-1.366 1.254-2.532 1.254zm10.441 1.185c1.61 0 2.85-.568 3.72-1.704.741-.967 1.112-2.18 1.112-3.64 0-1.349-.324-2.456-.972-3.321-.83-1.11-2.107-1.664-3.833-1.664-1.65 0-2.897.604-3.74 1.81-.657.94-.985 2.072-.985 3.394 0 1.464.384 2.676 1.151 3.634.86.994 2.043 1.49 3.547 1.49zm.16-1.185c-1.23 0-2.117-.372-2.665-1.115s-.822-1.656-.822-2.738c0-1.353.32-2.377.958-3.071.639-.695 1.464-1.042 2.476-1.042 1.042 0 1.864.35 2.465 1.052.601.7.902 1.626.902 2.775 0 1.087-.26 2.048-.782 2.885-.521.836-1.365 1.254-2.532 1.254zm12.524.898v-1.164h-4.95v-8.612h-1.325v9.776h6.275zm8.692 0c1.286 0 2.225-.381 2.815-1.144.395-.51.592-1.08.592-1.71 0-.75-.22-1.338-.659-1.764-.248-.24-.623-.455-1.125-.646.342-.173.604-.363.786-.572.35-.395.525-.9.525-1.517 0-.528-.142-.994-.425-1.398-.484-.683-1.298-1.025-2.443-1.025h-4.199v9.776h4.133zm-.426-5.643h-2.41v-3.028h2.363c.577 0 1.012.062 1.304.186.52.222.78.653.78 1.291 0 .635-.245 1.074-.733 1.318-.31.155-.745.233-1.304.233zm.446 4.512h-2.855v-3.44h2.628c.555 0 1 .068 1.338.206.634.257.952.74.952 1.45 0 .422-.11.781-.326 1.079-.347.47-.926.705-1.737.705zm11.246 1.131v-1.164h-4.95v-8.612h-1.325v9.776h6.275zm2.942 0v-9.776h-1.338v9.776h1.338zm3.414 0v-7.912l5.01 7.912h1.485v-9.776h-1.258v7.92l-4.938-7.92h-1.564v9.776h1.265zm12.584 0c1.677 0 2.86-.74 3.547-2.222.39-.839.586-1.777.586-2.815 0-1.345-.33-2.447-.992-3.308-.74-.954-1.783-1.43-3.128-1.43h-3.96v9.775h3.947zm-.253-1.13h-2.362v-7.508h2.349c1.07 0 1.844.335 2.326 1.005.481.67.722 1.61.722 2.822 0 .315-.033.657-.1 1.025-.115.616-.304 1.122-.566 1.517-.328.493-.75.825-1.264.998-.288.093-.657.14-1.105.14zm13.363 1.417c1.043 0 1.958-.233 2.745-.7.788-.465 1.182-1.24 1.182-2.322 0-.87-.31-1.533-.932-1.99-.36-.261-.87-.468-1.53-.618l-1.372-.313c-.922-.213-1.515-.39-1.776-.533-.4-.221-.6-.572-.6-1.051 0-.435.171-.816.513-1.145.342-.328.903-.492 1.684-.492.967 0 1.652.255 2.056.765.218.28.36.681.426 1.205h1.244c0-1.087-.358-1.878-1.074-2.373-.717-.495-1.587-.742-2.612-.742-1.114 0-1.975.282-2.582.845-.608.564-.912 1.285-.912 2.163 0 .812.31 1.422.932 1.83.359.235.971.45 1.836.646l1.325.3c.718.163 1.246.356 1.583.578.333.226.5.606.5 1.138 0 .71-.395 1.203-1.185 1.478-.408.142-.86.213-1.358.213-1.109 0-1.883-.324-2.322-.972-.23-.346-.362-.796-.393-1.351h-1.244c-.014 1.056.324 1.892 1.011 2.509.688.621 1.64.932 2.855.932zm7.054-.287v-4.132h3.075c.985 0 1.715-.283 2.19-.849.474-.565.712-1.23.712-1.993 0-.887-.267-1.576-.8-2.066-.531-.49-1.232-.736-2.102-.736h-4.399v9.776h1.324zm2.636-5.25h-2.636v-3.388h2.636c.51 0 .911.07 1.204.207.533.257.799.745.799 1.464 0 .639-.185 1.084-.556 1.337-.37.253-.853.38-1.447.38zm9.197 5.537c1.61 0 2.85-.568 3.72-1.704.74-.967 1.111-2.18 1.111-3.64 0-1.349-.324-2.456-.971-3.321-.83-1.11-2.108-1.664-3.834-1.664-1.65 0-2.897.604-3.74 1.81-.656.94-.985 2.072-.985 3.394 0 1.464.384 2.676 1.152 3.634.86.994 2.043 1.49 3.547 1.49zm.16-1.185c-1.23 0-2.118-.372-2.666-1.115s-.822-1.656-.822-2.738c0-1.353.32-2.377.959-3.071.639-.695 1.464-1.042 2.475-1.042 1.043 0 1.865.35 2.466 1.052.601.7.902 1.626.902 2.775 0 1.087-.261 2.048-.782 2.885-.522.836-1.366 1.254-2.532 1.254zm10.068.898v-8.611h3.295v-1.165h-7.933v1.165h3.294v8.611h1.344zm7.993.287c1.042 0 1.958-.233 2.745-.7.788-.465 1.181-1.24 1.181-2.322 0-.87-.31-1.533-.931-1.99-.36-.261-.87-.468-1.531-.618l-1.37-.313c-.924-.213-1.516-.39-1.778-.533-.4-.221-.599-.572-.599-1.051 0-.435.171-.816.513-1.145.341-.328.903-.492 1.683-.492.968 0 1.653.255 2.057.765.217.28.36.681.426 1.205h1.244c0-1.087-.358-1.878-1.075-2.373-.716-.495-1.587-.742-2.612-.742-1.113 0-1.974.282-2.582.845-.608.564-.912 1.285-.912 2.163 0 .812.311 1.422.932 1.83.36.235.972.45 1.837.646l1.324.3c.719.163 1.247.356 1.584.578.333.226.5.606.5 1.138 0 .71-.396 1.203-1.185 1.478-.409.142-.861.213-1.358.213-1.11 0-1.883-.324-2.322-.972-.231-.346-.362-.796-.393-1.351h-1.245c-.013 1.056.324 1.892 1.012 2.509.688.621 1.64.932 2.855.932z" id="f"/><path d="M19.14 464.275v-1.165h-5.937v-3.314H18.6v-1.131h-5.397v-2.969h5.836V454.5h-7.127v9.776h7.227zm5.929.286c1.61 0 2.85-.568 3.72-1.704.74-.967 1.111-2.18 1.111-3.64 0-1.349-.324-2.456-.972-3.32-.83-1.11-2.107-1.665-3.833-1.665-1.65 0-2.897.604-3.74 1.81-.656.941-.985 2.072-.985 3.395 0 1.464.384 2.675 1.152 3.633.86.994 2.043 1.49 3.547 1.49zm.16-1.185c-1.23 0-2.118-.371-2.666-1.115-.548-.743-.822-1.655-.822-2.738 0-1.353.32-2.377.958-3.071.64-.695 1.465-1.042 2.476-1.042 1.043 0 1.865.35 2.466 1.052.6.7.901 1.626.901 2.775 0 1.087-.26 2.048-.781 2.885-.522.836-1.366 1.254-2.533 1.254zm12.524.899v-1.165h-4.951v-8.611h-1.325v9.776h6.276zm1.278 0l3.1-9.776h-1.01l-3.102 9.776h1.012zm11.166 0v-1.165h-5.936v-3.314h5.397v-1.131h-5.397v-2.969h5.837V454.5H42.97v9.776h7.227zm5.93.286c1.61 0 2.85-.568 3.72-1.704.74-.967 1.111-2.18 1.111-3.64 0-1.349-.323-2.456-.971-3.32-.83-1.11-2.108-1.665-3.833-1.665-1.65 0-2.898.604-3.74 1.81-.657.941-.985 2.072-.985 3.395 0 1.464.383 2.675 1.15 3.633.862.994 2.044 1.49 3.548 1.49zm.16-1.185c-1.23 0-2.118-.371-2.666-1.115-.548-.743-.821-1.655-.821-2.738 0-1.353.319-2.377.958-3.071.639-.695 1.464-1.042 2.475-1.042 1.043 0 1.865.35 2.466 1.052.601.7.902 1.626.902 2.775 0 1.087-.26 2.048-.782 2.885-.521.836-1.366 1.254-2.532 1.254zm9.736 1.185c1.042 0 1.957-.233 2.745-.699.787-.466 1.181-1.24 1.181-2.323 0-.87-.31-1.532-.932-1.99-.359-.261-.87-.467-1.53-.618l-1.371-.313c-.923-.213-1.515-.39-1.777-.532-.4-.222-.599-.573-.599-1.052 0-.435.17-.816.513-1.145.341-.328.902-.492 1.683-.492.967 0 1.653.255 2.057.765.217.28.359.681.426 1.205h1.244c0-1.087-.358-1.878-1.075-2.373-.716-.494-1.587-.742-2.612-.742-1.113 0-1.974.282-2.582.846-.608.563-.912 1.284-.912 2.162 0 .812.31 1.422.932 1.83.36.236.972.45 1.837.646l1.324.3c.719.164 1.247.357 1.584.578.333.227.5.606.5 1.138 0 .71-.396 1.203-1.185 1.478-.409.142-.861.213-1.358.213-1.11 0-1.883-.324-2.323-.972-.23-.346-.361-.796-.392-1.35h-1.245c-.013 1.055.324 1.891 1.012 2.508.687.621 1.64.932 2.855.932zm9.164-.286l1.058-2.929h3.866l.992 2.929h1.45l-3.547-9.776H77.51l-3.68 9.776h1.358zm4.498-4.007h-3.061l1.577-4.319 1.484 4.32zm7.56 4.293c1.043 0 1.958-.233 2.745-.699.788-.466 1.182-1.24 1.182-2.323 0-.87-.311-1.532-.932-1.99-.36-.261-.87-.467-1.53-.618l-1.372-.313c-.922-.213-1.515-.39-1.777-.532-.399-.222-.598-.573-.598-1.052 0-.435.17-.816.512-1.145.342-.328.903-.492 1.684-.492.967 0 1.652.255 2.056.765.217.28.36.681.426 1.205h1.244c0-1.087-.358-1.878-1.074-2.373-.717-.494-1.588-.742-2.612-.742-1.114 0-1.975.282-2.583.846-.607.563-.911 1.284-.911 2.162 0 .812.31 1.422.931 1.83.36.236.972.45 1.837.646l1.325.3c.718.164 1.246.357 1.583.578.333.227.5.606.5 1.138 0 .71-.395 1.203-1.185 1.478-.408.142-.86.213-1.358.213-1.109 0-1.883-.324-2.322-.972-.23-.346-.362-.796-.393-1.35H83.38c-.014 1.055.324 1.891 1.011 2.508.688.621 1.64.932 2.855.932zm9.09 0c1.043 0 1.958-.233 2.746-.699.787-.466 1.181-1.24 1.181-2.323 0-.87-.31-1.532-.932-1.99-.359-.261-.87-.467-1.53-.618l-1.371-.313c-.923-.213-1.515-.39-1.777-.532-.4-.222-.599-.573-.599-1.052 0-.435.17-.816.513-1.145.341-.328.902-.492 1.683-.492.967 0 1.653.255 2.057.765.217.28.359.681.426 1.205h1.244c0-1.087-.358-1.878-1.075-2.373-.716-.494-1.587-.742-2.612-.742-1.113 0-1.974.282-2.582.846-.608.563-.912 1.284-.912 2.162 0 .812.31 1.422.932 1.83.36.236.972.45 1.837.646l1.324.3c.719.164 1.247.357 1.584.578.333.227.5.606.5 1.138 0 .71-.396 1.203-1.185 1.478-.409.142-.861.213-1.358.213-1.11 0-1.883-.324-2.323-.972-.23-.346-.361-.796-.392-1.35h-1.245c-.013 1.055.324 1.891 1.012 2.508.687.621 1.64.932 2.855.932zm12.958-.286v-1.165h-5.936v-3.314h5.397v-1.131h-5.397v-2.969h5.836V454.5h-7.127v9.776h7.227zm5.557 0v-8.612h3.294V454.5h-7.933v1.164h3.294v8.612h1.345zm7.992.286c1.043 0 1.958-.233 2.745-.699.788-.466 1.182-1.24 1.182-2.323 0-.87-.311-1.532-.932-1.99-.36-.261-.87-.467-1.53-.618l-1.372-.313c-.922-.213-1.515-.39-1.777-.532-.399-.222-.598-.573-.598-1.052 0-.435.17-.816.512-1.145.342-.328.903-.492 1.684-.492.967 0 1.652.255 2.056.765.217.28.36.681.426 1.205h1.244c0-1.087-.358-1.878-1.074-2.373-.717-.494-1.588-.742-2.612-.742-1.114 0-1.975.282-2.583.846-.607.563-.911 1.284-.911 2.162 0 .812.31 1.422.931 1.83.36.236.972.45 1.837.646l1.325.3c.718.164 1.246.357 1.583.578.333.227.5.606.5 1.138 0 .71-.395 1.203-1.185 1.478-.408.142-.86.213-1.358.213-1.109 0-1.883-.324-2.322-.972-.23-.346-.362-.796-.393-1.35h-1.244c-.014 1.055.324 1.891 1.011 2.508.688.621 1.64.932 2.855.932z" id="g"/><linearGradient x1="22.716%" y1="8.216%" x2="65.934%" y2="96.931%" id="h"><stop stop-color="#B8CBDC" offset="0%"/><stop stop-color="#B8CBDC" stop-opacity="0" offset="100%"/></linearGradient><linearGradient x1="89.776%" y1="91.941%" x2="27.079%" y2="-1.832%" id="i"><stop stop-color="#B8CBDC" offset="0%"/><stop stop-color="#B8CBDC" stop-opacity=".021" offset="100%"/><stop stop-color="#B8CBDC" stop-opacity="0" offset="100%"/></linearGradient></defs><g fill="none" fill-rule="evenodd"><path d="M261.46 495.623c-127.2 0-230.4-103.2-230.4-230.5 0-127.2 103.2-230.4 230.4-230.4 127.3 0 230.4 103.2 230.4 230.5.1 127.2-103.1 230.4-230.4 230.4z" fill="#B5D0E5" opacity=".15"/><path d="M310.86 40.023c79.3 36.4 134.4 116.5 134.4 209.5 0 127.3-103.1 230.4-230.3 230.4-16.9 0-33.4-1.8-49.2-5.3 29.2 13.4 61.7 20.9 95.9 20.9 127.2 0 230.3-103.2 230.3-230.4 0-110.3-77.5-202.6-181.1-225.1" fill="#9BC0E0" opacity=".15"/><path d="M48.66 274.023c0-127.3 103.2-230.4 230.6-230.4 33.9 0 66.1 7.3 95.1 20.5-33.3-18.8-71.7-29.4-112.6-29.4-127.4 0-230.7 103.2-230.7 230.4 0 93.4 55.6 173.8 135.5 210-70.4-39.4-117.9-114.7-117.9-201.1" fill="#FFF" opacity=".15"/><path d="M350.66 102.423c0 1.6-1.3 3-3 3-1.6 0-3-1.3-3-3 0-1.6 1.3-3 3-3s3 1.3 3 3M350.66 69.423c0 1.6-1.3 3-3 3-1.6 0-3-1.3-3-3s1.3-3 3-3 3 1.3 3 3M309.66 109.623c0 1.6-1.3 3-3 3-1.6 0-3-1.3-3-3s1.3-3 3-3c1.7.1 3 1.4 3 3M309.66 76.023c0 1.6-1.3 3-3 3-1.6 0-3-1.3-3-3 0-1.6 1.3-3 3-3s3 1.3 3 3M326.26 109.623c0 1.6-1.3 3-3 3-1.6 0-3-1.3-3-3s1.3-3 3-3c1.6.1 3 1.4 3 3" fill="#B3CEE2" opacity=".601"/><path d="M326.26 76.023c0 1.6-1.3 3-3 3-1.6 0-3-1.3-3-3 0-1.6 1.3-3 3-3 1.6 0 3 1.3 3 3" fill="#EC3128" opacity=".8"/><path d="M342.06 109.623c0 1.6-1.3 3-3 3-1.6 0-3-1.3-3-3s1.3-3 3-3c1.7.1 3 1.4 3 3M137.36 102.423c0 1.6-1.3 3-3 3-1.6 0-3-1.3-3-3 0-1.6 1.3-3 3-3s3 1.3 3 3" fill="#B3CEE2" opacity=".601"/><path d="M153.86 102.423c0 1.6-1.3 3-3 3-1.6 0-3-1.3-3-3 0-1.6 1.3-3 3-3s3 1.3 3 3" fill="#20386D" opacity=".8"/><path d="M170.36 102.423c0 1.6-1.3 3-3 3-1.6 0-3-1.3-3-3 0-1.6 1.3-3 3-3s3 1.3 3 3M153.86 85.223c0 1.6-1.3 3-3 3-1.6 0-3-1.3-3-3 0-1.6 1.3-3 3-3s3 1.4 3 3M170.36 85.223c0 1.6-1.3 3-3 3-1.6 0-3-1.3-3-3 0-1.6 1.3-3 3-3s3 1.4 3 3M170.36 69.423c0 1.6-1.3 3-3 3-1.6 0-3-1.3-3-3s1.3-3 3-3 3 1.3 3 3M185.56 69.423c0 1.6-1.3 3-3 3-1.6 0-3-1.3-3-3s1.3-3 3-3 3 1.3 3 3M121.56 116.923c0 1.6-1.3 3-3 3-1.6 0-3-1.3-3-3 0-1.6 1.3-3 3-3 1.6 0 3 1.4 3 3M137.36 116.923c0 1.6-1.3 3-3 3-1.6 0-3-1.3-3-3 0-1.6 1.3-3 3-3s3 1.4 3 3M145.26 93.123c0 1.6-1.3 3-3 3-1.6 0-3-1.3-3-3 0-1.6 1.3-3 3-3 1.7.1 3 1.4 3 3M161.16 93.123c0 1.6-1.3 3-3 3-1.6 0-3-1.3-3-3 0-1.6 1.3-3 3-3 1.6.1 3 1.4 3 3M145.26 109.623c0 1.6-1.3 3-3 3-1.6 0-3-1.3-3-3s1.3-3 3-3c1.7.1 3 1.4 3 3M161.16 109.623c0 1.6-1.3 3-3 3-1.6 0-3-1.3-3-3s1.3-3 3-3c1.6.1 3 1.4 3 3M128.76 109.623c0 1.6-1.3 3-3 3-1.6 0-3-1.3-3-3s1.3-3 3-3c1.7.1 3 1.4 3 3M121.56 102.423c0 1.6-1.3 3-3 3-1.6 0-3-1.3-3-3 0-1.6 1.3-3 3-3 1.6 0 3 1.3 3 3M104.96 116.923c0 1.6-1.3 3-3 3-1.6 0-3-1.3-3-3 0-1.6 1.3-3 3-3s3 1.4 3 3M112.96 109.623c0 1.6-1.3 3-3 3-1.6 0-3-1.3-3-3s1.3-3 3-3c1.6.1 3 1.4 3 3M177.66 93.123c0 1.6-1.3 3-3 3-1.6 0-3-1.3-3-3 0-1.6 1.3-3 3-3 1.7.1 3 1.4 3 3M161.16 77.323c0 1.6-1.3 3-3 3-1.6 0-3-1.3-3-3 0-1.6 1.3-3 3-3 1.6 0 3 1.3 3 3M177.66 77.323c0 1.6-1.3 3-3 3-1.6 0-3-1.3-3-3 0-1.6 1.3-3 3-3s3 1.3 3 3M358.56 109.623c0 1.6-1.3 3-3 3-1.6 0-3-1.3-3-3s1.3-3 3-3c1.7.1 3 1.4 3 3M374.46 109.623c0 1.6-1.3 3-3 3-1.6 0-3-1.3-3-3s1.3-3 3-3c1.6.1 3 1.4 3 3M390.96 109.623c0 1.6-1.3 3-3 3-1.6 0-3-1.3-3-3s1.3-3 3-3c1.6.1 3 1.4 3 3M317.66 117.623c0 1.6-1.3 3-3 3-1.6 0-3-1.3-3-3 0-1.6 1.3-3 3-3 1.6 0 3 1.3 3 3M334.16 117.623c0 1.6-1.3 3-3 3-1.6 0-3-1.3-3-3 0-1.6 1.3-3 3-3 1.6 0 3 1.3 3 3M334.16 69.423c0 1.6-1.3 3-3 3-1.6 0-3-1.3-3-3s1.3-3 3-3c1.6 0 3 1.3 3 3M350.66 117.623c0 1.6-1.3 3-3 3-1.6 0-3-1.3-3-3 0-1.6 1.3-3 3-3s3 1.3 3 3M366.46 117.623c0 1.6-1.3 3-3 3-1.6 0-3-1.3-3-3 0-1.6 1.3-3 3-3s3 1.3 3 3M382.96 117.623c0 1.6-1.3 3-3 3-1.6 0-3-1.3-3-3 0-1.6 1.3-3 3-3s3 1.3 3 3M398.86 117.623c0 1.6-1.3 3-3 3-1.6 0-3-1.3-3-3 0-1.6 1.3-3 3-3s3 1.3 3 3" fill="#B3CEE2" opacity=".601"/><path d="M414.66 117.623c0 1.6-1.3 3-3 3-1.6 0-3-1.3-3-3 0-1.6 1.3-3 3-3s3 1.3 3 3" fill="#EC3128" opacity=".8"/><path d="M317.66 135.423c0 1.6-1.3 3-3 3-1.6 0-3-1.3-3-3 0-1.6 1.3-3 3-3 1.6 0 3 1.3 3 3M334.16 135.423c0 1.6-1.3 3-3 3-1.6 0-3-1.3-3-3 0-1.6 1.3-3 3-3 1.6 0 3 1.3 3 3M350.66 135.423c0 1.6-1.3 3-3 3-1.6 0-3-1.3-3-3 0-1.6 1.3-3 3-3s3 1.3 3 3M285.26 135.423c0 1.6-1.3 3-3 3-1.6 0-3-1.3-3-3 0-1.6 1.3-3 3-3s3 1.3 3 3M301.76 135.423c0 1.6-1.3 3-3 3-1.6 0-3-1.3-3-3 0-1.6 1.3-3 3-3s3 1.3 3 3M309.66 142.623c0 1.6-1.3 3-3 3-1.6 0-3-1.3-3-3 0-1.6 1.3-3 3-3 1.7.1 3 1.4 3 3M277.36 142.623c0 1.6-1.3 3-3 3-1.6 0-3-1.3-3-3 0-1.6 1.3-3 3-3 1.7.1 3 1.4 3 3M293.86 142.623c0 1.6-1.3 3-3 3-1.6 0-3-1.3-3-3 0-1.6 1.3-3 3-3 1.7.1 3 1.4 3 3M366.46 135.423c0 1.6-1.3 3-3 3-1.6 0-3-1.3-3-3 0-1.6 1.3-3 3-3s3 1.3 3 3M382.96 135.423c0 1.6-1.3 3-3 3-1.6 0-3-1.3-3-3 0-1.6 1.3-3 3-3s3 1.3 3 3M398.86 135.423c0 1.6-1.3 3-3 3-1.6 0-3-1.3-3-3 0-1.6 1.3-3 3-3s3 1.3 3 3M414.66 135.423c0 1.6-1.3 3-3 3-1.6 0-3-1.3-3-3 0-1.6 1.3-3 3-3s3 1.3 3 3M431.16 135.423c0 1.6-1.3 3-3 3-1.6 0-3-1.3-3-3 0-1.6 1.3-3 3-3s3 1.3 3 3M317.66 167.723c0 1.6-1.3 3-3 3-1.6 0-3-1.3-3-3 0-1.6 1.3-3 3-3 1.6.1 3 1.4 3 3M334.16 167.723c0 1.6-1.3 3-3 3-1.6 0-3-1.3-3-3 0-1.6 1.3-3 3-3 1.6.1 3 1.4 3 3M350.66 167.723c0 1.6-1.3 3-3 3-1.6 0-3-1.3-3-3 0-1.6 1.3-3 3-3 1.7.1 3 1.4 3 3M301.76 167.723c0 1.6-1.3 3-3 3-1.6 0-3-1.3-3-3 0-1.6 1.3-3 3-3 1.7.1 3 1.4 3 3M366.46 167.723c0 1.6-1.3 3-3 3-1.6 0-3-1.3-3-3 0-1.6 1.3-3 3-3 1.7.1 3 1.4 3 3M382.96 167.723c0 1.6-1.3 3-3 3-1.6 0-3-1.3-3-3 0-1.6 1.3-3 3-3 1.7.1 3 1.4 3 3M398.86 167.723c0 1.6-1.3 3-3 3-1.6 0-3-1.3-3-3 0-1.6 1.3-3 3-3 1.7.1 3 1.4 3 3M414.66 167.723c0 1.6-1.3 3-3 3-1.6 0-3-1.3-3-3 0-1.6 1.3-3 3-3 1.7.1 3 1.4 3 3M431.16 167.723c0 1.6-1.3 3-3 3-1.6 0-3-1.3-3-3 0-1.6 1.3-3 3-3 1.7.1 3 1.4 3 3M447.06 167.723c0 1.6-1.3 3-3 3-1.6 0-3-1.3-3-3 0-1.6 1.3-3 3-3 1.7.1 3 1.4 3 3M463.56 167.723c0 1.6-1.3 3-3 3-1.6 0-3-1.3-3-3 0-1.6 1.3-3 3-3 1.7.1 3 1.4 3 3M317.66 184.223c0 1.6-1.3 3-3 3-1.6 0-3-1.3-3-3 0-1.6 1.3-3 3-3 1.6.1 3 1.4 3 3M334.16 184.223c0 1.6-1.3 3-3 3-1.6 0-3-1.3-3-3 0-1.6 1.3-3 3-3 1.6.1 3 1.4 3 3M350.66 184.223c0 1.6-1.3 3-3 3-1.6 0-3-1.3-3-3 0-1.6 1.3-3 3-3 1.7.1 3 1.4 3 3M301.76 184.223c0 1.6-1.3 3-3 3-1.6 0-3-1.3-3-3 0-1.6 1.3-3 3-3 1.7.1 3 1.4 3 3M285.26 184.223c0 1.6-1.3 3-3 3-1.6 0-3-1.3-3-3 0-1.6 1.3-3 3-3 1.7.1 3 1.4 3 3M366.46 184.223c0 1.6-1.3 3-3 3-1.6 0-3-1.3-3-3 0-1.6 1.3-3 3-3 1.7.1 3 1.4 3 3M382.96 184.223c0 1.6-1.3 3-3 3-1.6 0-3-1.3-3-3 0-1.6 1.3-3 3-3 1.7.1 3 1.4 3 3M398.86 184.223c0 1.6-1.3 3-3 3-1.6 0-3-1.3-3-3 0-1.6 1.3-3 3-3 1.7.1 3 1.4 3 3M414.66 184.223c0 1.6-1.3 3-3 3-1.6 0-3-1.3-3-3 0-1.6 1.3-3 3-3 1.7.1 3 1.4 3 3M431.16 184.223c0 1.6-1.3 3-3 3-1.6 0-3-1.3-3-3 0-1.6 1.3-3 3-3 1.7.1 3 1.4 3 3" fill="#B3CEE2" opacity=".601"/><path d="M447.06 184.223c0 1.6-1.3 3-3 3-1.6 0-3-1.3-3-3 0-1.6 1.3-3 3-3 1.7.1 3 1.4 3 3" fill="#EC3128" opacity=".8"/><path d="M463.56 184.223c0 1.6-1.3 3-3 3-1.6 0-3-1.3-3-3 0-1.6 1.3-3 3-3 1.7.1 3 1.4 3 3M317.66 200.823c0 1.6-1.3 3-3 3-1.6 0-3-1.3-3-3 0-1.6 1.3-3 3-3 1.6 0 3 1.3 3 3M334.16 200.823c0 1.6-1.3 3-3 3-1.6 0-3-1.3-3-3 0-1.6 1.3-3 3-3 1.6 0 3 1.3 3 3M350.66 200.823c0 1.6-1.3 3-3 3-1.6 0-3-1.3-3-3 0-1.6 1.3-3 3-3s3 1.3 3 3M301.76 200.823c0 1.6-1.3 3-3 3-1.6 0-3-1.3-3-3 0-1.6 1.3-3 3-3s3 1.3 3 3M366.46 200.823c0 1.6-1.3 3-3 3-1.6 0-3-1.3-3-3 0-1.6 1.3-3 3-3s3 1.3 3 3M382.96 200.823c0 1.6-1.3 3-3 3-1.6 0-3-1.3-3-3 0-1.6 1.3-3 3-3s3 1.3 3 3M398.86 200.823c0 1.6-1.3 3-3 3-1.6 0-3-1.3-3-3 0-1.6 1.3-3 3-3s3 1.3 3 3M414.66 200.823c0 1.6-1.3 3-3 3-1.6 0-3-1.3-3-3 0-1.6 1.3-3 3-3s3 1.3 3 3M431.16 200.823c0 1.6-1.3 3-3 3-1.6 0-3-1.3-3-3 0-1.6 1.3-3 3-3s3 1.3 3 3M447.06 200.823c0 1.6-1.3 3-3 3-1.6 0-3-1.3-3-3 0-1.6 1.3-3 3-3s3 1.3 3 3M463.56 200.823c0 1.6-1.3 3-3 3-1.6 0-3-1.3-3-3 0-1.6 1.3-3 3-3s3 1.3 3 3M334.16 217.323c0 1.6-1.3 3-3 3-1.6 0-3-1.3-3-3 0-1.6 1.3-3 3-3 1.6 0 3 1.3 3 3M350.66 217.323c0 1.6-1.3 3-3 3-1.6 0-3-1.3-3-3 0-1.6 1.3-3 3-3s3 1.3 3 3M366.46 217.323c0 1.6-1.3 3-3 3-1.6 0-3-1.3-3-3 0-1.6 1.3-3 3-3s3 1.3 3 3M382.96 217.323c0 1.6-1.3 3-3 3-1.6 0-3-1.3-3-3 0-1.6 1.3-3 3-3s3 1.3 3 3M398.86 217.323c0 1.6-1.3 3-3 3-1.6 0-3-1.3-3-3 0-1.6 1.3-3 3-3s3 1.3 3 3M414.66 217.323c0 1.6-1.3 3-3 3-1.6 0-3-1.3-3-3 0-1.6 1.3-3 3-3s3 1.3 3 3M431.16 217.323c0 1.6-1.3 3-3 3-1.6 0-3-1.3-3-3 0-1.6 1.3-3 3-3s3 1.3 3 3M447.06 217.323c0 1.6-1.3 3-3 3-1.6 0-3-1.3-3-3 0-1.6 1.3-3 3-3s3 1.3 3 3M463.56 217.323c0 1.6-1.3 3-3 3-1.6 0-3-1.3-3-3 0-1.6 1.3-3 3-3s3 1.3 3 3M479.36 217.323c0 1.6-1.3 3-3 3-1.6 0-3-1.3-3-3 0-1.6 1.3-3 3-3s3 1.3 3 3M382.96 233.123c0 1.6-1.3 3-3 3-1.6 0-3-1.3-3-3 0-1.6 1.3-3 3-3s3 1.4 3 3M398.86 233.123c0 1.6-1.3 3-3 3-1.6 0-3-1.3-3-3 0-1.6 1.3-3 3-3s3 1.4 3 3M414.66 233.123c0 1.6-1.3 3-3 3-1.6 0-3-1.3-3-3 0-1.6 1.3-3 3-3s3 1.4 3 3M431.16 233.123c0 1.6-1.3 3-3 3-1.6 0-3-1.3-3-3 0-1.6 1.3-3 3-3s3 1.4 3 3M447.06 233.123c0 1.6-1.3 3-3 3-1.6 0-3-1.3-3-3 0-1.6 1.3-3 3-3s3 1.4 3 3M463.56 233.123c0 1.6-1.3 3-3 3-1.6 0-3-1.3-3-3 0-1.6 1.3-3 3-3s3 1.4 3 3M479.36 233.123c0 1.6-1.3 3-3 3-1.6 0-3-1.3-3-3 0-1.6 1.3-3 3-3s3 1.4 3 3M334.16 151.223c0 1.6-1.3 3-3 3-1.6 0-3-1.3-3-3 0-1.6 1.3-3 3-3 1.6.1 3 1.4 3 3M350.66 151.223c0 1.6-1.3 3-3 3-1.6 0-3-1.3-3-3 0-1.6 1.3-3 3-3 1.7.1 3 1.4 3 3M366.46 151.223c0 1.6-1.3 3-3 3-1.6 0-3-1.3-3-3 0-1.6 1.3-3 3-3 1.7.1 3 1.4 3 3M382.96 151.223c0 1.6-1.3 3-3 3-1.6 0-3-1.3-3-3 0-1.6 1.3-3 3-3 1.7.1 3 1.4 3 3M398.86 151.223c0 1.6-1.3 3-3 3-1.6 0-3-1.3-3-3 0-1.6 1.3-3 3-3 1.7.1 3 1.4 3 3M414.66 151.223c0 1.6-1.3 3-3 3-1.6 0-3-1.3-3-3 0-1.6 1.3-3 3-3 1.7.1 3 1.4 3 3M431.16 151.223c0 1.6-1.3 3-3 3-1.6 0-3-1.3-3-3 0-1.6 1.3-3 3-3 1.7.1 3 1.4 3 3M447.06 151.223c0 1.6-1.3 3-3 3-1.6 0-3-1.3-3-3 0-1.6 1.3-3 3-3 1.7.1 3 1.4 3 3M342.06 142.623c0 1.6-1.3 3-3 3-1.6 0-3-1.3-3-3 0-1.6 1.3-3 3-3 1.7.1 3 1.4 3 3M358.56 142.623c0 1.6-1.3 3-3 3-1.6 0-3-1.3-3-3 0-1.6 1.3-3 3-3 1.7.1 3 1.4 3 3M374.46 142.623c0 1.6-1.3 3-3 3-1.6 0-3-1.3-3-3 0-1.6 1.3-3 3-3 1.6.1 3 1.4 3 3M390.96 142.623c0 1.6-1.3 3-3 3-1.6 0-3-1.3-3-3 0-1.6 1.3-3 3-3 1.6.1 3 1.4 3 3M407.46 142.623c0 1.6-1.3 3-3 3-1.6 0-3-1.3-3-3 0-1.6 1.3-3 3-3 1.6.1 3 1.4 3 3M422.66 142.623c0 1.6-1.3 3-3 3-1.6 0-3-1.3-3-3 0-1.6 1.3-3 3-3 1.6.1 3 1.4 3 3M439.16 142.623c0 1.6-1.3 3-3 3-1.6 0-3-1.3-3-3 0-1.6 1.3-3 3-3 1.6.1 3 1.4 3 3M342.06 159.823c0 1.6-1.3 3-3 3-1.6 0-3-1.3-3-3 0-1.6 1.3-3 3-3s3 1.4 3 3M325.56 159.823c0 1.6-1.3 3-3 3-1.6 0-3-1.3-3-3 0-1.6 1.3-3 3-3s3 1.4 3 3" fill="#B3CEE2" opacity=".601"/><path d="M358.56 159.823c0 1.6-1.3 3-3 3-1.6 0-3-1.3-3-3 0-1.6 1.3-3 3-3s3 1.4 3 3" fill="#20386D" opacity=".8"/><path d="M374.46 159.823c0 1.6-1.3 3-3 3-1.6 0-3-1.3-3-3 0-1.6 1.3-3 3-3 1.6 0 3 1.4 3 3M390.96 159.823c0 1.6-1.3 3-3 3-1.6 0-3-1.3-3-3 0-1.6 1.3-3 3-3 1.6 0 3 1.4 3 3M407.46 159.823c0 1.6-1.3 3-3 3-1.6 0-3-1.3-3-3 0-1.6 1.3-3 3-3 1.6 0 3 1.4 3 3M422.66 159.823c0 1.6-1.3 3-3 3-1.6 0-3-1.3-3-3 0-1.6 1.3-3 3-3 1.6 0 3 1.4 3 3M439.16 159.823c0 1.6-1.3 3-3 3-1.6 0-3-1.3-3-3 0-1.6 1.3-3 3-3 1.6 0 3 1.4 3 3M455.66 159.823c0 1.6-1.3 3-3 3-1.6 0-3-1.3-3-3 0-1.6 1.3-3 3-3 1.6 0 3 1.4 3 3M342.06 175.023c0 1.6-1.3 3-3 3-1.6 0-3-1.3-3-3 0-1.6 1.3-3 3-3s3 1.4 3 3M325.56 175.023c0 1.6-1.3 3-3 3-1.6 0-3-1.3-3-3 0-1.6 1.3-3 3-3s3 1.4 3 3M358.56 175.023c0 1.6-1.3 3-3 3-1.6 0-3-1.3-3-3 0-1.6 1.3-3 3-3s3 1.4 3 3M309.06 175.023c0 1.6-1.3 3-3 3-1.6 0-3-1.3-3-3 0-1.6 1.3-3 3-3s3 1.4 3 3M292.56 175.023c0 1.6-1.3 3-3 3-1.6 0-3-1.3-3-3 0-1.6 1.3-3 3-3 1.6 0 3 1.4 3 3M374.46 175.023c0 1.6-1.3 3-3 3-1.6 0-3-1.3-3-3 0-1.6 1.3-3 3-3 1.6 0 3 1.4 3 3M390.96 175.023c0 1.6-1.3 3-3 3-1.6 0-3-1.3-3-3 0-1.6 1.3-3 3-3 1.6 0 3 1.4 3 3M407.46 175.023c0 1.6-1.3 3-3 3-1.6 0-3-1.3-3-3 0-1.6 1.3-3 3-3 1.6 0 3 1.4 3 3M422.66 175.023c0 1.6-1.3 3-3 3-1.6 0-3-1.3-3-3 0-1.6 1.3-3 3-3 1.6 0 3 1.4 3 3M439.16 175.023c0 1.6-1.3 3-3 3-1.6 0-3-1.3-3-3 0-1.6 1.3-3 3-3 1.6 0 3 1.4 3 3M455.66 175.023c0 1.6-1.3 3-3 3-1.6 0-3-1.3-3-3 0-1.6 1.3-3 3-3 1.6 0 3 1.4 3 3M342.06 192.223c0 1.6-1.3 3-3 3-1.6 0-3-1.3-3-3 0-1.6 1.3-3 3-3s3 1.3 3 3M325.56 192.223c0 1.6-1.3 3-3 3-1.6 0-3-1.3-3-3 0-1.6 1.3-3 3-3s3 1.3 3 3M358.56 192.223c0 1.6-1.3 3-3 3-1.6 0-3-1.3-3-3 0-1.6 1.3-3 3-3s3 1.3 3 3M374.46 192.223c0 1.6-1.3 3-3 3-1.6 0-3-1.3-3-3 0-1.6 1.3-3 3-3 1.6 0 3 1.3 3 3M293.16 192.223c0 1.6-1.3 3-3 3s-3-1.3-3-3c0-1.6 1.3-3 3-3s3 1.3 3 3M276.06 192.223c0 1.6-1.3 3-3 3-1.6 0-3-1.3-3-3 0-1.6 1.3-3 3-3 1.6 0 3 1.3 3 3M309.06 192.223c0 1.6-1.3 3-3 3-1.6 0-3-1.3-3-3 0-1.6 1.3-3 3-3s3 1.3 3 3M390.96 192.223c0 1.6-1.3 3-3 3-1.6 0-3-1.3-3-3 0-1.6 1.3-3 3-3 1.6 0 3 1.3 3 3M407.46 192.223c0 1.6-1.3 3-3 3-1.6 0-3-1.3-3-3 0-1.6 1.3-3 3-3 1.6 0 3 1.3 3 3M422.66 192.223c0 1.6-1.3 3-3 3-1.6 0-3-1.3-3-3 0-1.6 1.3-3 3-3 1.6 0 3 1.3 3 3M439.16 192.223c0 1.6-1.3 3-3 3-1.6 0-3-1.3-3-3 0-1.6 1.3-3 3-3 1.6 0 3 1.3 3 3M455.66 192.223c0 1.6-1.3 3-3 3-1.6 0-3-1.3-3-3 0-1.6 1.3-3 3-3 1.6 0 3 1.3 3 3M471.46 192.223c0 1.6-1.3 3-3 3-1.6 0-3-1.3-3-3 0-1.6 1.3-3 3-3s3 1.3 3 3M471.46 209.323c0 1.6-1.3 3-3 3-1.6 0-3-1.3-3-3 0-1.6 1.3-3 3-3 1.7.1 3 1.4 3 3M342.06 208.723c0 1.6-1.3 3-3 3-1.6 0-3-1.3-3-3 0-1.6 1.3-3 3-3s3 1.3 3 3M325.56 208.723c0 1.6-1.3 3-3 3-1.6 0-3-1.3-3-3 0-1.6 1.3-3 3-3s3 1.3 3 3M358.56 208.723c0 1.6-1.3 3-3 3-1.6 0-3-1.3-3-3 0-1.6 1.3-3 3-3s3 1.3 3 3M374.46 208.723c0 1.6-1.3 3-3 3-1.6 0-3-1.3-3-3 0-1.6 1.3-3 3-3 1.6 0 3 1.3 3 3M309.06 208.723c0 1.6-1.3 3-3 3-1.6 0-3-1.3-3-3 0-1.6 1.3-3 3-3s3 1.3 3 3M390.96 208.723c0 1.6-1.3 3-3 3-1.6 0-3-1.3-3-3 0-1.6 1.3-3 3-3 1.6 0 3 1.3 3 3M407.46 208.723c0 1.6-1.3 3-3 3-1.6 0-3-1.3-3-3 0-1.6 1.3-3 3-3 1.6 0 3 1.3 3 3M422.66 208.723c0 1.6-1.3 3-3 3-1.6 0-3-1.3-3-3 0-1.6 1.3-3 3-3 1.6 0 3 1.3 3 3M439.16 208.723c0 1.6-1.3 3-3 3-1.6 0-3-1.3-3-3 0-1.6 1.3-3 3-3 1.6 0 3 1.3 3 3M455.66 208.723c0 1.6-1.3 3-3 3-1.6 0-3-1.3-3-3 0-1.6 1.3-3 3-3 1.6 0 3 1.3 3 3M471.46 225.823c0 1.6-1.3 3-3 3-1.6 0-3-1.3-3-3 0-1.6 1.3-3 3-3 1.7.1 3 1.4 3 3M374.46 225.823c0 1.6-1.3 3-3 3-1.6 0-3-1.3-3-3 0-1.6 1.3-3 3-3 1.6.1 3 1.4 3 3M390.96 225.823c0 1.6-1.3 3-3 3-1.6 0-3-1.3-3-3 0-1.6 1.3-3 3-3 1.6.1 3 1.4 3 3M407.46 225.823c0 1.6-1.3 3-3 3-1.6 0-3-1.3-3-3 0-1.6 1.3-3 3-3 1.6.1 3 1.4 3 3M422.66 225.823c0 1.6-1.3 3-3 3-1.6 0-3-1.3-3-3 0-1.6 1.3-3 3-3 1.6.1 3 1.4 3 3M439.16 225.823c0 1.6-1.3 3-3 3-1.6 0-3-1.3-3-3 0-1.6 1.3-3 3-3 1.6.1 3 1.4 3 3M455.66 225.823c0 1.6-1.3 3-3 3-1.6 0-3-1.3-3-3 0-1.6 1.3-3 3-3 1.6.1 3 1.4 3 3M471.46 241.723c0 1.6-1.3 3-3 3-1.6 0-3-1.3-3-3 0-1.6 1.3-3 3-3s3 1.4 3 3M390.96 241.723c0 1.6-1.3 3-3 3-1.6 0-3-1.3-3-3 0-1.6 1.3-3 3-3 1.6 0 3 1.4 3 3M407.46 241.723c0 1.6-1.3 3-3 3-1.6 0-3-1.3-3-3 0-1.6 1.3-3 3-3 1.6 0 3 1.4 3 3M422.66 241.723c0 1.6-1.3 3-3 3-1.6 0-3-1.3-3-3 0-1.6 1.3-3 3-3 1.6 0 3 1.4 3 3M439.16 241.723c0 1.6-1.3 3-3 3-1.6 0-3-1.3-3-3 0-1.6 1.3-3 3-3 1.6 0 3 1.4 3 3M455.66 241.723c0 1.6-1.3 3-3 3-1.6 0-3-1.3-3-3 0-1.6 1.3-3 3-3 1.6 0 3 1.4 3 3M309.66 241.723c0 1.6-1.3 3-3 3-1.6 0-3-1.3-3-3 0-1.6 1.3-3 3-3s3 1.4 3 3M326.26 241.723c0 1.6-1.3 3-3 3-1.6 0-3-1.3-3-3 0-1.6 1.3-3 3-3 1.6 0 3 1.4 3 3M342.06 241.723c0 1.6-1.3 3-3 3-1.6 0-3-1.3-3-3 0-1.6 1.3-3 3-3s3 1.4 3 3M358.56 241.723c0 1.6-1.3 3-3 3-1.6 0-3-1.3-3-3 0-1.6 1.3-3 3-3s3 1.4 3 3M374.46 241.723c0 1.6-1.3 3-3 3-1.6 0-3-1.3-3-3 0-1.6 1.3-3 3-3 1.6 0 3 1.4 3 3M229.16 241.723c0 1.6-1.3 3-3 3-1.6 0-3-1.3-3-3 0-1.6 1.3-3 3-3s3 1.4 3 3M245.66 241.723c0 1.6-1.3 3-3 3-1.6 0-3-1.3-3-3 0-1.6 1.3-3 3-3s3 1.4 3 3M261.46 241.723c0 1.6-1.3 3-3 3-1.6 0-3-1.3-3-3 0-1.6 1.3-3 3-3s3 1.4 3 3M277.36 241.723c0 1.6-1.3 3-3 3-1.6 0-3-1.3-3-3 0-1.6 1.3-3 3-3s3 1.4 3 3M293.86 241.723c0 1.6-1.3 3-3 3-1.6 0-3-1.3-3-3 0-1.6 1.3-3 3-3s3 1.4 3 3M261.46 225.823c0 1.6-1.3 3-3 3-1.6 0-3-1.3-3-3 0-1.6 1.3-3 3-3 1.7.1 3 1.4 3 3M277.36 225.823c0 1.6-1.3 3-3 3-1.6 0-3-1.3-3-3 0-1.6 1.3-3 3-3 1.7.1 3 1.4 3 3M293.86 225.823c0 1.6-1.3 3-3 3-1.6 0-3-1.3-3-3 0-1.6 1.3-3 3-3 1.7.1 3 1.4 3 3M390.96 258.223c0 1.6-1.3 3-3 3-1.6 0-3-1.3-3-3 0-1.6 1.3-3 3-3 1.6 0 3 1.4 3 3M407.46 258.223c0 1.6-1.3 3-3 3-1.6 0-3-1.3-3-3 0-1.6 1.3-3 3-3 1.6 0 3 1.4 3 3M422.66 258.223c0 1.6-1.3 3-3 3-1.6 0-3-1.3-3-3 0-1.6 1.3-3 3-3 1.6 0 3 1.4 3 3M471.46 258.223c0 1.6-1.3 3-3 3-1.6 0-3-1.3-3-3 0-1.6 1.3-3 3-3s3 1.4 3 3M487.96 258.223c0 1.6-1.3 3-3 3-1.6 0-3-1.3-3-3 0-1.6 1.3-3 3-3s3 1.4 3 3M309.66 258.223c0 1.6-1.3 3-3 3-1.6 0-3-1.3-3-3 0-1.6 1.3-3 3-3s3 1.4 3 3M326.26 258.223c0 1.6-1.3 3-3 3-1.6 0-3-1.3-3-3 0-1.6 1.3-3 3-3 1.6 0 3 1.4 3 3M342.06 258.223c0 1.6-1.3 3-3 3-1.6 0-3-1.3-3-3 0-1.6 1.3-3 3-3s3 1.4 3 3M358.56 258.223c0 1.6-1.3 3-3 3-1.6 0-3-1.3-3-3 0-1.6 1.3-3 3-3s3 1.4 3 3M374.46 258.223c0 1.6-1.3 3-3 3-1.6 0-3-1.3-3-3 0-1.6 1.3-3 3-3 1.6 0 3 1.4 3 3M229.16 258.223c0 1.6-1.3 3-3 3-1.6 0-3-1.3-3-3 0-1.6 1.3-3 3-3s3 1.4 3 3M245.66 258.223c0 1.6-1.3 3-3 3-1.6 0-3-1.3-3-3 0-1.6 1.3-3 3-3s3 1.4 3 3M213.26 258.223c0 1.6-1.3 3-3 3-1.6 0-3-1.3-3-3 0-1.6 1.3-3 3-3s3 1.4 3 3M261.46 258.223c0 1.6-1.3 3-3 3-1.6 0-3-1.3-3-3 0-1.6 1.3-3 3-3s3 1.4 3 3M277.36 258.223c0 1.6-1.3 3-3 3-1.6 0-3-1.3-3-3 0-1.6 1.3-3 3-3s3 1.4 3 3M293.86 258.223c0 1.6-1.3 3-3 3-1.6 0-3-1.3-3-3 0-1.6 1.3-3 3-3s3 1.4 3 3M461.56 249.623c0 1.6-1.3 3-3 3-1.6 0-3-1.3-3-3 0-1.6 1.3-3 3-3s3 1.4 3 3M381.06 249.623c0 1.6-1.3 3-3 3-1.6 0-3-1.3-3-3 0-1.6 1.3-3 3-3 1.6 0 3 1.4 3 3M397.56 249.623c0 1.6-1.3 3-3 3-1.6 0-3-1.3-3-3 0-1.6 1.3-3 3-3 1.6 0 3 1.4 3 3M413.36 249.623c0 1.6-1.3 3-3 3-1.6 0-3-1.3-3-3 0-1.6 1.3-3 3-3s3 1.4 3 3M429.86 249.623c0 1.6-1.3 3-3 3-1.6 0-3-1.3-3-3 0-1.6 1.3-3 3-3s3 1.4 3 3M445.76 249.623c0 1.6-1.3 3-3 3-1.6 0-3-1.3-3-3 0-1.6 1.3-3 3-3 1.6 0 3 1.4 3 3M478.06 249.623c0 1.6-1.3 3-3 3-1.6 0-3-1.3-3-3 0-1.6 1.3-3 3-3s3 1.4 3 3M299.76 249.623c0 1.6-1.3 3-3 3-1.6 0-3-1.3-3-3 0-1.6 1.3-3 3-3s3 1.4 3 3M316.26 249.623c0 1.6-1.3 3-3 3-1.6 0-3-1.3-3-3 0-1.6 1.3-3 3-3s3 1.4 3 3M332.16 249.623c0 1.6-1.3 3-3 3-1.6 0-3-1.3-3-3 0-1.6 1.3-3 3-3s3 1.4 3 3M348.66 249.623c0 1.6-1.3 3-3 3-1.6 0-3-1.3-3-3 0-1.6 1.3-3 3-3s3 1.4 3 3M365.16 249.623c0 1.6-1.3 3-3 3-1.6 0-3-1.3-3-3 0-1.6 1.3-3 3-3s3 1.4 3 3M219.26 249.623c0 1.6-1.3 3-3 3-1.6 0-3-1.3-3-3 0-1.6 1.3-3 3-3s3 1.4 3 3M235.76 249.623c0 1.6-1.3 3-3 3-1.6 0-3-1.3-3-3 0-1.6 1.3-3 3-3s3 1.4 3 3M251.56 249.623c0 1.6-1.3 3-3 3-1.6 0-3-1.3-3-3 0-1.6 1.3-3 3-3s3 1.4 3 3M268.06 249.623c0 1.6-1.3 3-3 3-1.6 0-3-1.3-3-3 0-1.6 1.3-3 3-3s3 1.4 3 3M284.66 249.623c0 1.6-1.3 3-3 3-1.6 0-3-1.3-3-3 0-1.6 1.3-3 3-3 1.6 0 3 1.4 3 3M235.76 233.123c0 1.6-1.3 3-3 3-1.6 0-3-1.3-3-3 0-1.6 1.3-3 3-3s3 1.4 3 3M251.56 233.123c0 1.6-1.3 3-3 3-1.6 0-3-1.3-3-3 0-1.6 1.3-3 3-3s3 1.4 3 3M268.06 233.123c0 1.6-1.3 3-3 3-1.6 0-3-1.3-3-3 0-1.6 1.3-3 3-3s3 1.4 3 3M284.66 233.123c0 1.6-1.3 3-3 3-1.6 0-3-1.3-3-3 0-1.6 1.3-3 3-3 1.6 0 3 1.4 3 3M381.06 265.523c0 1.6-1.3 3-3 3-1.6 0-3-1.3-3-3 0-1.6 1.3-3 3-3 1.6 0 3 1.3 3 3M397.56 265.523c0 1.6-1.3 3-3 3-1.6 0-3-1.3-3-3 0-1.6 1.3-3 3-3 1.6 0 3 1.3 3 3M413.36 265.523c0 1.6-1.3 3-3 3-1.6 0-3-1.3-3-3 0-1.6 1.3-3 3-3s3 1.3 3 3M429.86 265.523c0 1.6-1.3 3-3 3-1.6 0-3-1.3-3-3 0-1.6 1.3-3 3-3s3 1.3 3 3M445.76 265.523c0 1.6-1.3 3-3 3-1.6 0-3-1.3-3-3 0-1.6 1.3-3 3-3 1.6 0 3 1.3 3 3M461.56 265.523c0 1.6-1.3 3-3 3-1.6 0-3-1.3-3-3 0-1.6 1.3-3 3-3s3 1.3 3 3M299.76 265.523c0 1.6-1.3 3-3 3-1.6 0-3-1.3-3-3 0-1.6 1.3-3 3-3s3 1.3 3 3M316.26 265.523c0 1.6-1.3 3-3 3-1.6 0-3-1.3-3-3 0-1.6 1.3-3 3-3s3 1.3 3 3M332.16 265.523c0 1.6-1.3 3-3 3-1.6 0-3-1.3-3-3 0-1.6 1.3-3 3-3s3 1.3 3 3M348.66 265.523c0 1.6-1.3 3-3 3-1.6 0-3-1.3-3-3 0-1.6 1.3-3 3-3s3 1.3 3 3M365.16 265.523c0 1.6-1.3 3-3 3-1.6 0-3-1.3-3-3 0-1.6 1.3-3 3-3s3 1.3 3 3M219.26 265.523c0 1.6-1.3 3-3 3-1.6 0-3-1.3-3-3 0-1.6 1.3-3 3-3s3 1.3 3 3M235.76 265.523c0 1.6-1.3 3-3 3-1.6 0-3-1.3-3-3 0-1.6 1.3-3 3-3s3 1.3 3 3M251.56 265.523c0 1.6-1.3 3-3 3-1.6 0-3-1.3-3-3 0-1.6 1.3-3 3-3s3 1.3 3 3M268.06 265.523c0 1.6-1.3 3-3 3-1.6 0-3-1.3-3-3 0-1.6 1.3-3 3-3s3 1.3 3 3M284.66 265.523c0 1.6-1.3 3-3 3-1.6 0-3-1.3-3-3 0-1.6 1.3-3 3-3 1.6 0 3 1.3 3 3" fill="#B3CEE2" opacity=".601"/><path d="M390.96 274.723c0 1.6-1.3 3-3 3-1.6 0-3-1.3-3-3 0-1.6 1.3-3 3-3 1.6 0 3 1.4 3 3" fill="#20386D" opacity=".8"/><path d="M407.46 274.723c0 1.6-1.3 3-3 3-1.6 0-3-1.3-3-3 0-1.6 1.3-3 3-3 1.6 0 3 1.4 3 3M422.66 274.723c0 1.6-1.3 3-3 3-1.6 0-3-1.3-3-3 0-1.6 1.3-3 3-3 1.6 0 3 1.4 3 3M439.16 274.723c0 1.6-1.3 3-3 3-1.6 0-3-1.3-3-3 0-1.6 1.3-3 3-3 1.6 0 3 1.4 3 3M455.66 274.723c0 1.6-1.3 3-3 3-1.6 0-3-1.3-3-3 0-1.6 1.3-3 3-3 1.6 0 3 1.4 3 3M309.66 274.723c0 1.6-1.3 3-3 3-1.6 0-3-1.3-3-3 0-1.6 1.3-3 3-3s3 1.4 3 3M326.26 274.723c0 1.6-1.3 3-3 3-1.6 0-3-1.3-3-3 0-1.6 1.3-3 3-3 1.6 0 3 1.4 3 3M342.06 274.723c0 1.6-1.3 3-3 3-1.6 0-3-1.3-3-3 0-1.6 1.3-3 3-3s3 1.4 3 3M358.56 274.723c0 1.6-1.3 3-3 3-1.6 0-3-1.3-3-3 0-1.6 1.3-3 3-3s3 1.4 3 3M374.46 274.723c0 1.6-1.3 3-3 3-1.6 0-3-1.3-3-3 0-1.6 1.3-3 3-3 1.6 0 3 1.4 3 3M229.16 274.723c0 1.6-1.3 3-3 3-1.6 0-3-1.3-3-3 0-1.6 1.3-3 3-3s3 1.4 3 3M245.66 274.723c0 1.6-1.3 3-3 3-1.6 0-3-1.3-3-3 0-1.6 1.3-3 3-3s3 1.4 3 3M261.46 274.723c0 1.6-1.3 3-3 3-1.6 0-3-1.3-3-3 0-1.6 1.3-3 3-3s3 1.4 3 3M196.76 274.723c0 1.6-1.3 3-3 3-1.6 0-3-1.3-3-3 0-1.6 1.3-3 3-3s3 1.4 3 3M213.26 274.723c0 1.6-1.3 3-3 3-1.6 0-3-1.3-3-3 0-1.6 1.3-3 3-3s3 1.4 3 3M277.36 274.723c0 1.6-1.3 3-3 3-1.6 0-3-1.3-3-3 0-1.6 1.3-3 3-3s3 1.4 3 3M293.86 274.723c0 1.6-1.3 3-3 3-1.6 0-3-1.3-3-3 0-1.6 1.3-3 3-3s3 1.4 3 3M390.96 291.223c0 1.6-1.3 3-3 3-1.6 0-3-1.3-3-3 0-1.6 1.3-3 3-3 1.6 0 3 1.4 3 3M407.46 291.223c0 1.6-1.3 3-3 3-1.6 0-3-1.3-3-3 0-1.6 1.3-3 3-3 1.6 0 3 1.4 3 3M422.66 291.223c0 1.6-1.3 3-3 3-1.6 0-3-1.3-3-3 0-1.6 1.3-3 3-3 1.6 0 3 1.4 3 3M439.16 291.223c0 1.6-1.3 3-3 3-1.6 0-3-1.3-3-3 0-1.6 1.3-3 3-3 1.6 0 3 1.4 3 3M309.66 291.223c0 1.6-1.3 3-3 3-1.6 0-3-1.3-3-3 0-1.6 1.3-3 3-3s3 1.4 3 3M326.26 291.223c0 1.6-1.3 3-3 3-1.6 0-3-1.3-3-3 0-1.6 1.3-3 3-3 1.6 0 3 1.4 3 3M342.06 291.223c0 1.6-1.3 3-3 3-1.6 0-3-1.3-3-3 0-1.6 1.3-3 3-3s3 1.4 3 3M358.56 291.223c0 1.6-1.3 3-3 3-1.6 0-3-1.3-3-3 0-1.6 1.3-3 3-3s3 1.4 3 3M374.46 291.223c0 1.6-1.3 3-3 3-1.6 0-3-1.3-3-3 0-1.6 1.3-3 3-3 1.6 0 3 1.4 3 3M229.16 291.223c0 1.6-1.3 3-3 3-1.6 0-3-1.3-3-3 0-1.6 1.3-3 3-3s3 1.4 3 3M245.66 291.223c0 1.6-1.3 3-3 3-1.6 0-3-1.3-3-3 0-1.6 1.3-3 3-3s3 1.4 3 3M213.26 291.223c0 1.6-1.3 3-3 3-1.6 0-3-1.3-3-3 0-1.6 1.3-3 3-3s3 1.4 3 3M261.46 291.223c0 1.6-1.3 3-3 3-1.6 0-3-1.3-3-3 0-1.6 1.3-3 3-3s3 1.4 3 3M277.36 291.223c0 1.6-1.3 3-3 3-1.6 0-3-1.3-3-3 0-1.6 1.3-3 3-3s3 1.4 3 3M293.86 291.223c0 1.6-1.3 3-3 3-1.6 0-3-1.3-3-3 0-1.6 1.3-3 3-3s3 1.4 3 3M390.96 307.723c0 1.6-1.3 3-3 3-1.6 0-3-1.3-3-3 0-1.6 1.3-3 3-3 1.6.1 3 1.4 3 3M407.46 307.723c0 1.6-1.3 3-3 3-1.6 0-3-1.3-3-3 0-1.6 1.3-3 3-3 1.6.1 3 1.4 3 3M422.66 307.723c0 1.6-1.3 3-3 3-1.6 0-3-1.3-3-3 0-1.6 1.3-3 3-3 1.6.1 3 1.4 3 3M309.66 307.723c0 1.6-1.3 3-3 3-1.6 0-3-1.3-3-3 0-1.6 1.3-3 3-3 1.7.1 3 1.4 3 3M326.26 307.723c0 1.6-1.3 3-3 3-1.6 0-3-1.3-3-3 0-1.6 1.3-3 3-3 1.6.1 3 1.4 3 3M342.06 307.723c0 1.6-1.3 3-3 3-1.6 0-3-1.3-3-3 0-1.6 1.3-3 3-3 1.7.1 3 1.4 3 3M358.56 307.723c0 1.6-1.3 3-3 3-1.6 0-3-1.3-3-3 0-1.6 1.3-3 3-3 1.7.1 3 1.4 3 3M374.46 307.723c0 1.6-1.3 3-3 3-1.6 0-3-1.3-3-3 0-1.6 1.3-3 3-3 1.6.1 3 1.4 3 3M229.16 307.723c0 1.6-1.3 3-3 3-1.6 0-3-1.3-3-3 0-1.6 1.3-3 3-3 1.7.1 3 1.4 3 3M245.66 307.723c0 1.6-1.3 3-3 3-1.6 0-3-1.3-3-3 0-1.6 1.3-3 3-3 1.7.1 3 1.4 3 3M229.16 323.623c0 1.6-1.3 3-3 3-1.6 0-3-1.3-3-3 0-1.6 1.3-3 3-3s3 1.3 3 3M245.66 323.623c0 1.6-1.3 3-3 3-1.6 0-3-1.3-3-3 0-1.6 1.3-3 3-3s3 1.3 3 3M213.26 307.723c0 1.6-1.3 3-3 3-1.6 0-3-1.3-3-3 0-1.6 1.3-3 3-3 1.7.1 3 1.4 3 3M261.46 307.723c0 1.6-1.3 3-3 3-1.6 0-3-1.3-3-3 0-1.6 1.3-3 3-3 1.7.1 3 1.4 3 3M277.36 307.723c0 1.6-1.3 3-3 3-1.6 0-3-1.3-3-3 0-1.6 1.3-3 3-3 1.7.1 3 1.4 3 3M293.86 307.723c0 1.6-1.3 3-3 3-1.6 0-3-1.3-3-3 0-1.6 1.3-3 3-3 1.7.1 3 1.4 3 3M390.96 323.623c0 1.6-1.3 3-3 3-1.6 0-3-1.3-3-3 0-1.6 1.3-3 3-3 1.6 0 3 1.3 3 3M407.46 323.623c0 1.6-1.3 3-3 3-1.6 0-3-1.3-3-3 0-1.6 1.3-3 3-3 1.6 0 3 1.3 3 3M422.66 323.623c0 1.6-1.3 3-3 3-1.6 0-3-1.3-3-3 0-1.6 1.3-3 3-3 1.6 0 3 1.3 3 3M309.66 323.623c0 1.6-1.3 3-3 3-1.6 0-3-1.3-3-3 0-1.6 1.3-3 3-3s3 1.3 3 3M326.26 323.623c0 1.6-1.3 3-3 3-1.6 0-3-1.3-3-3 0-1.6 1.3-3 3-3 1.6 0 3 1.3 3 3M342.06 323.623c0 1.6-1.3 3-3 3-1.6 0-3-1.3-3-3 0-1.6 1.3-3 3-3s3 1.3 3 3M358.56 323.623c0 1.6-1.3 3-3 3-1.6 0-3-1.3-3-3 0-1.6 1.3-3 3-3s3 1.3 3 3M374.46 323.623c0 1.6-1.3 3-3 3-1.6 0-3-1.3-3-3 0-1.6 1.3-3 3-3 1.6 0 3 1.3 3 3M277.36 323.623c0 1.6-1.3 3-3 3-1.6 0-3-1.3-3-3 0-1.6 1.3-3 3-3s3 1.3 3 3M293.86 323.623c0 1.6-1.3 3-3 3-1.6 0-3-1.3-3-3 0-1.6 1.3-3 3-3s3 1.3 3 3M390.96 340.723c0 1.6-1.3 3-3 3-1.6 0-3-1.3-3-3 0-1.6 1.3-3 3-3 1.6.1 3 1.4 3 3M407.46 340.723c0 1.6-1.3 3-3 3-1.6 0-3-1.3-3-3 0-1.6 1.3-3 3-3 1.6.1 3 1.4 3 3M309.66 340.723c0 1.6-1.3 3-3 3-1.6 0-3-1.3-3-3 0-1.6 1.3-3 3-3 1.7.1 3 1.4 3 3M326.26 340.723c0 1.6-1.3 3-3 3-1.6 0-3-1.3-3-3 0-1.6 1.3-3 3-3 1.6.1 3 1.4 3 3M342.06 340.723c0 1.6-1.3 3-3 3-1.6 0-3-1.3-3-3 0-1.6 1.3-3 3-3 1.7.1 3 1.4 3 3M358.56 340.723c0 1.6-1.3 3-3 3-1.6 0-3-1.3-3-3 0-1.6 1.3-3 3-3 1.7.1 3 1.4 3 3M374.46 340.723c0 1.6-1.3 3-3 3-1.6 0-3-1.3-3-3 0-1.6 1.3-3 3-3 1.6.1 3 1.4 3 3M390.96 356.623c0 1.6-1.3 3-3 3-1.6 0-3-1.3-3-3 0-1.6 1.3-3 3-3 1.6 0 3 1.3 3 3M309.66 356.623c0 1.6-1.3 3-3 3-1.6 0-3-1.3-3-3 0-1.6 1.3-3 3-3s3 1.3 3 3M326.26 356.623c0 1.6-1.3 3-3 3-1.6 0-3-1.3-3-3 0-1.6 1.3-3 3-3 1.6 0 3 1.3 3 3M342.06 356.623c0 1.6-1.3 3-3 3-1.6 0-3-1.3-3-3 0-1.6 1.3-3 3-3s3 1.3 3 3M358.56 356.623c0 1.6-1.3 3-3 3-1.6 0-3-1.3-3-3 0-1.6 1.3-3 3-3s3 1.3 3 3M374.46 356.623c0 1.6-1.3 3-3 3-1.6 0-3-1.3-3-3 0-1.6 1.3-3 3-3 1.6 0 3 1.3 3 3M390.96 373.123c0 1.6-1.3 3-3 3-1.6 0-3-1.3-3-3 0-1.6 1.3-3 3-3 1.6 0 3 1.4 3 3M309.66 373.123c0 1.6-1.3 3-3 3-1.6 0-3-1.3-3-3 0-1.6 1.3-3 3-3s3 1.4 3 3M326.26 373.123c0 1.6-1.3 3-3 3-1.6 0-3-1.3-3-3 0-1.6 1.3-3 3-3 1.6 0 3 1.4 3 3M342.06 373.123c0 1.6-1.3 3-3 3-1.6 0-3-1.3-3-3 0-1.6 1.3-3 3-3s3 1.4 3 3M358.56 373.123c0 1.6-1.3 3-3 3-1.6 0-3-1.3-3-3 0-1.6 1.3-3 3-3s3 1.4 3 3M374.46 373.123c0 1.6-1.3 3-3 3-1.6 0-3-1.3-3-3 0-1.6 1.3-3 3-3 1.6 0 3 1.4 3 3M293.86 340.723c0 1.6-1.3 3-3 3-1.6 0-3-1.3-3-3 0-1.6 1.3-3 3-3 1.7.1 3 1.4 3 3M381.06 282.623c0 1.6-1.3 3-3 3-1.6 0-3-1.3-3-3 0-1.6 1.3-3 3-3 1.6.1 3 1.4 3 3M397.56 282.623c0 1.6-1.3 3-3 3-1.6 0-3-1.3-3-3 0-1.6 1.3-3 3-3 1.6.1 3 1.4 3 3M413.36 282.623c0 1.6-1.3 3-3 3-1.6 0-3-1.3-3-3 0-1.6 1.3-3 3-3 1.7.1 3 1.4 3 3M429.86 282.623c0 1.6-1.3 3-3 3-1.6 0-3-1.3-3-3 0-1.6 1.3-3 3-3 1.7.1 3 1.4 3 3M445.76 282.623c0 1.6-1.3 3-3 3-1.6 0-3-1.3-3-3 0-1.6 1.3-3 3-3 1.6.1 3 1.4 3 3M299.76 282.623c0 1.6-1.3 3-3 3-1.6 0-3-1.3-3-3 0-1.6 1.3-3 3-3 1.7.1 3 1.4 3 3M316.26 282.623c0 1.6-1.3 3-3 3-1.6 0-3-1.3-3-3 0-1.6 1.3-3 3-3 1.7.1 3 1.4 3 3M332.16 282.623c0 1.6-1.3 3-3 3-1.6 0-3-1.3-3-3 0-1.6 1.3-3 3-3 1.7.1 3 1.4 3 3M348.66 282.623c0 1.6-1.3 3-3 3-1.6 0-3-1.3-3-3 0-1.6 1.3-3 3-3 1.7.1 3 1.4 3 3M365.16 282.623c0 1.6-1.3 3-3 3-1.6 0-3-1.3-3-3 0-1.6 1.3-3 3-3 1.7.1 3 1.4 3 3M219.26 282.623c0 1.6-1.3 3-3 3-1.6 0-3-1.3-3-3 0-1.6 1.3-3 3-3 1.7.1 3 1.4 3 3M235.76 282.623c0 1.6-1.3 3-3 3-1.6 0-3-1.3-3-3 0-1.6 1.3-3 3-3 1.7.1 3 1.4 3 3M203.36 282.623c0 1.6-1.3 3-3 3-1.6 0-3-1.3-3-3 0-1.6 1.3-3 3-3 1.7.1 3 1.4 3 3M251.56 282.623c0 1.6-1.3 3-3 3-1.6 0-3-1.3-3-3 0-1.6 1.3-3 3-3 1.7.1 3 1.4 3 3M268.06 282.623c0 1.6-1.3 3-3 3-1.6 0-3-1.3-3-3 0-1.6 1.3-3 3-3 1.7.1 3 1.4 3 3M284.66 282.623c0 1.6-1.3 3-3 3-1.6 0-3-1.3-3-3 0-1.6 1.3-3 3-3 1.6.1 3 1.4 3 3M381.06 298.523c0 1.6-1.3 3-3 3-1.6 0-3-1.3-3-3 0-1.6 1.3-3 3-3 1.6 0 3 1.3 3 3M397.56 298.523c0 1.6-1.3 3-3 3-1.6 0-3-1.3-3-3 0-1.6 1.3-3 3-3 1.6 0 3 1.3 3 3M413.36 298.523c0 1.6-1.3 3-3 3-1.6 0-3-1.3-3-3 0-1.6 1.3-3 3-3s3 1.3 3 3M429.86 298.523c0 1.6-1.3 3-3 3-1.6 0-3-1.3-3-3 0-1.6 1.3-3 3-3s3 1.3 3 3M299.76 298.523c0 1.6-1.3 3-3 3-1.6 0-3-1.3-3-3 0-1.6 1.3-3 3-3s3 1.3 3 3M316.26 298.523c0 1.6-1.3 3-3 3-1.6 0-3-1.3-3-3 0-1.6 1.3-3 3-3s3 1.3 3 3M332.16 298.523c0 1.6-1.3 3-3 3-1.6 0-3-1.3-3-3 0-1.6 1.3-3 3-3s3 1.3 3 3" fill="#B3CEE2" opacity=".601"/><path d="M348.66 298.523c0 1.6-1.3 3-3 3-1.6 0-3-1.3-3-3 0-1.6 1.3-3 3-3s3 1.3 3 3" fill="#EC3128" opacity=".8"/><path d="M365.16 298.523c0 1.6-1.3 3-3 3-1.6 0-3-1.3-3-3 0-1.6 1.3-3 3-3s3 1.3 3 3M219.26 298.523c0 1.6-1.3 3-3 3-1.6 0-3-1.3-3-3 0-1.6 1.3-3 3-3s3 1.3 3 3M235.76 298.523c0 1.6-1.3 3-3 3-1.6 0-3-1.3-3-3 0-1.6 1.3-3 3-3s3 1.3 3 3M196.76 291.223c0 1.6-1.3 3-3 3-1.6 0-3-1.3-3-3 0-1.6 1.3-3 3-3s3 1.4 3 3M203.36 298.523c0 1.6-1.3 3-3 3-1.6 0-3-1.3-3-3 0-1.6 1.3-3 3-3s3 1.3 3 3M251.56 298.523c0 1.6-1.3 3-3 3-1.6 0-3-1.3-3-3 0-1.6 1.3-3 3-3s3 1.3 3 3M268.06 298.523c0 1.6-1.3 3-3 3-1.6 0-3-1.3-3-3 0-1.6 1.3-3 3-3s3 1.3 3 3M284.66 298.523c0 1.6-1.3 3-3 3-1.6 0-3-1.3-3-3 0-1.6 1.3-3 3-3 1.6 0 3 1.3 3 3M381.06 314.323c0 1.6-1.3 3-3 3-1.6 0-3-1.3-3-3 0-1.6 1.3-3 3-3 1.6.1 3 1.4 3 3M397.56 314.323c0 1.6-1.3 3-3 3-1.6 0-3-1.3-3-3 0-1.6 1.3-3 3-3 1.6.1 3 1.4 3 3M413.36 314.323c0 1.6-1.3 3-3 3-1.6 0-3-1.3-3-3 0-1.6 1.3-3 3-3 1.7.1 3 1.4 3 3M429.86 314.323c0 1.6-1.3 3-3 3-1.6 0-3-1.3-3-3 0-1.6 1.3-3 3-3 1.7.1 3 1.4 3 3M299.76 314.323c0 1.6-1.3 3-3 3-1.6 0-3-1.3-3-3 0-1.6 1.3-3 3-3 1.7.1 3 1.4 3 3M316.26 314.323c0 1.6-1.3 3-3 3-1.6 0-3-1.3-3-3 0-1.6 1.3-3 3-3 1.7.1 3 1.4 3 3M332.16 314.323c0 1.6-1.3 3-3 3-1.6 0-3-1.3-3-3 0-1.6 1.3-3 3-3 1.7.1 3 1.4 3 3M348.66 314.323c0 1.6-1.3 3-3 3-1.6 0-3-1.3-3-3 0-1.6 1.3-3 3-3 1.7.1 3 1.4 3 3M365.16 314.323c0 1.6-1.3 3-3 3-1.6 0-3-1.3-3-3 0-1.6 1.3-3 3-3 1.7.1 3 1.4 3 3M381.06 332.223c0 1.6-1.3 3-3 3-1.6 0-3-1.3-3-3 0-1.6 1.3-3 3-3 1.6 0 3 1.3 3 3M397.56 332.223c0 1.6-1.3 3-3 3-1.6 0-3-1.3-3-3 0-1.6 1.3-3 3-3 1.6 0 3 1.3 3 3M413.36 332.223c0 1.6-1.3 3-3 3-1.6 0-3-1.3-3-3 0-1.6 1.3-3 3-3s3 1.3 3 3M299.76 332.223c0 1.6-1.3 3-3 3-1.6 0-3-1.3-3-3 0-1.6 1.3-3 3-3s3 1.3 3 3M316.26 332.223c0 1.6-1.3 3-3 3-1.6 0-3-1.3-3-3 0-1.6 1.3-3 3-3s3 1.3 3 3M332.16 332.223c0 1.6-1.3 3-3 3-1.6 0-3-1.3-3-3 0-1.6 1.3-3 3-3s3 1.3 3 3M348.66 332.223c0 1.6-1.3 3-3 3-1.6 0-3-1.3-3-3 0-1.6 1.3-3 3-3s3 1.3 3 3M365.16 332.223c0 1.6-1.3 3-3 3-1.6 0-3-1.3-3-3 0-1.6 1.3-3 3-3s3 1.3 3 3M381.06 348.723c0 1.6-1.3 3-3 3-1.6 0-3-1.3-3-3 0-1.6 1.3-3 3-3 1.6 0 3 1.3 3 3M397.56 348.723c0 1.6-1.3 3-3 3-1.6 0-3-1.3-3-3 0-1.6 1.3-3 3-3 1.6 0 3 1.3 3 3M299.76 348.723c0 1.6-1.3 3-3 3-1.6 0-3-1.3-3-3 0-1.6 1.3-3 3-3s3 1.3 3 3M316.26 348.723c0 1.6-1.3 3-3 3-1.6 0-3-1.3-3-3 0-1.6 1.3-3 3-3s3 1.3 3 3M332.16 348.723c0 1.6-1.3 3-3 3-1.6 0-3-1.3-3-3 0-1.6 1.3-3 3-3s3 1.3 3 3M348.66 348.723c0 1.6-1.3 3-3 3-1.6 0-3-1.3-3-3 0-1.6 1.3-3 3-3s3 1.3 3 3M365.16 348.723c0 1.6-1.3 3-3 3-1.6 0-3-1.3-3-3 0-1.6 1.3-3 3-3s3 1.3 3 3M381.06 365.823c0 1.6-1.3 3-3 3-1.6 0-3-1.3-3-3 0-1.6 1.3-3 3-3 1.6.1 3 1.4 3 3M299.76 365.823c0 1.6-1.3 3-3 3-1.6 0-3-1.3-3-3 0-1.6 1.3-3 3-3 1.7.1 3 1.4 3 3M120.16 365.823c0 1.6-1.3 3-3 3-1.6 0-3-1.3-3-3 0-1.6 1.3-3 3-3 1.7.1 3 1.4 3 3M104.36 365.823c0 1.6-1.3 3-3 3-1.6 0-3-1.3-3-3 0-1.6 1.3-3 3-3 1.7.1 3 1.4 3 3M89.86 365.823c0 1.6-1.3 3-3 3-1.6 0-3-1.3-3-3 0-1.6 1.3-3 3-3 1.6.1 3 1.4 3 3M74.66 365.823c0 1.6-1.3 3-3 3-1.6 0-3-1.3-3-3 0-1.6 1.3-3 3-3 1.6.1 3 1.4 3 3M104.36 348.723c0 1.6-1.3 3-3 3-1.6 0-3-1.3-3-3 0-1.6 1.3-3 3-3s3 1.3 3 3M89.86 348.723c0 1.6-1.3 3-3 3-1.6 0-3-1.3-3-3 0-1.6 1.3-3 3-3 1.6 0 3 1.3 3 3M74.66 348.723c0 1.6-1.3 3-3 3-1.6 0-3-1.3-3-3 0-1.6 1.3-3 3-3 1.6 0 3 1.3 3 3M59.46 348.723c0 1.6-1.3 3-3 3-1.6 0-3-1.3-3-3 0-1.6 1.3-3 3-3s3 1.3 3 3M74.66 332.223c0 1.6-1.3 3-3 3-1.6 0-3-1.3-3-3 0-1.6 1.3-3 3-3 1.6 0 3 1.3 3 3M59.46 332.223c0 1.6-1.3 3-3 3-1.6 0-3-1.3-3-3 0-1.6 1.3-3 3-3s3 1.3 3 3M104.36 382.323c0 1.6-1.3 3-3 3-1.6 0-3-1.3-3-3 0-1.6 1.3-3 3-3 1.7.1 3 1.4 3 3M104.36 398.823c0 1.6-1.3 3-3 3-1.6 0-3-1.3-3-3 0-1.6 1.3-3 3-3 1.7.1 3 1.4 3 3M89.86 382.323c0 1.6-1.3 3-3 3-1.6 0-3-1.3-3-3 0-1.6 1.3-3 3-3 1.6.1 3 1.4 3 3M89.86 398.823c0 1.6-1.3 3-3 3-1.6 0-3-1.3-3-3 0-1.6 1.3-3 3-3 1.6.1 3 1.4 3 3M74.66 382.323c0 1.6-1.3 3-3 3-1.6 0-3-1.3-3-3 0-1.6 1.3-3 3-3 1.6.1 3 1.4 3 3M111.66 374.423c0 1.6-1.3 3-3 3-1.6 0-3-1.3-3-3 0-1.6 1.3-3 3-3 1.6 0 3 1.4 3 3" fill="#B3CEE2" opacity=".601"/><path d="M96.46 374.423c0 1.6-1.3 3-3 3-1.6 0-3-1.3-3-3 0-1.6 1.3-3 3-3 1.6 0 3 1.4 3 3" fill="#EC3128" opacity=".8"/><path d="M111.66 389.623c0 1.6-1.3 3-3 3-1.6 0-3-1.3-3-3 0-1.6 1.3-3 3-3 1.6 0 3 1.4 3 3M96.46 389.623c0 1.6-1.3 3-3 3-1.6 0-3-1.3-3-3 0-1.6 1.3-3 3-3 1.6 0 3 1.4 3 3M96.46 406.123c0 1.6-1.3 3-3 3-1.6 0-3-1.3-3-3 0-1.6 1.3-3 3-3 1.6 0 3 1.4 3 3M80.56 389.623c0 1.6-1.3 3-3 3-1.6 0-3-1.3-3-3 0-1.6 1.3-3 3-3s3 1.4 3 3M80.56 374.423c0 1.6-1.3 3-3 3-1.6 0-3-1.3-3-3 0-1.6 1.3-3 3-3s3 1.4 3 3M111.66 356.623c0 1.6-1.3 3-3 3-1.6 0-3-1.3-3-3 0-1.6 1.3-3 3-3 1.6 0 3 1.3 3 3M96.46 356.623c0 1.6-1.3 3-3 3-1.6 0-3-1.3-3-3 0-1.6 1.3-3 3-3 1.6 0 3 1.3 3 3M80.56 356.623c0 1.6-1.3 3-3 3-1.6 0-3-1.3-3-3 0-1.6 1.3-3 3-3s3 1.3 3 3M66.06 356.623c0 1.6-1.3 3-3 3-1.6 0-3-1.3-3-3 0-1.6 1.3-3 3-3s3 1.3 3 3" fill="#B3CEE2" opacity=".601"/><path d="M80.56 340.723c0 1.6-1.3 3-3 3-1.6 0-3-1.3-3-3 0-1.6 1.3-3 3-3 1.7.1 3 1.4 3 3" fill="#20386D" opacity=".8"/><path d="M66.06 340.723c0 1.6-1.3 3-3 3-1.6 0-3-1.3-3-3 0-1.6 1.3-3 3-3 1.7.1 3 1.4 3 3M66.06 323.623c0 1.6-1.3 3-3 3-1.6 0-3-1.3-3-3 0-1.6 1.3-3 3-3s3 1.3 3 3M50.86 323.623c0 1.6-1.3 3-3 3-1.6 0-3-1.3-3-3 0-1.6 1.3-3 3-3s3 1.3 3 3M316.26 365.823c0 1.6-1.3 3-3 3-1.6 0-3-1.3-3-3 0-1.6 1.3-3 3-3 1.7.1 3 1.4 3 3M332.16 365.823c0 1.6-1.3 3-3 3-1.6 0-3-1.3-3-3 0-1.6 1.3-3 3-3 1.7.1 3 1.4 3 3" fill="#B3CEE2" opacity=".601"/><path d="M348.66 365.823c0 1.6-1.3 3-3 3-1.6 0-3-1.3-3-3 0-1.6 1.3-3 3-3 1.7.1 3 1.4 3 3" fill="#EC3128" opacity=".8"/><path d="M365.16 365.823c0 1.6-1.3 3-3 3-1.6 0-3-1.3-3-3 0-1.6 1.3-3 3-3 1.7.1 3 1.4 3 3M381.06 382.323c0 1.6-1.3 3-3 3-1.6 0-3-1.3-3-3 0-1.6 1.3-3 3-3 1.6.1 3 1.4 3 3M299.76 382.323c0 1.6-1.3 3-3 3-1.6 0-3-1.3-3-3 0-1.6 1.3-3 3-3 1.7.1 3 1.4 3 3M316.26 382.323c0 1.6-1.3 3-3 3-1.6 0-3-1.3-3-3 0-1.6 1.3-3 3-3 1.7.1 3 1.4 3 3M332.16 382.323c0 1.6-1.3 3-3 3-1.6 0-3-1.3-3-3 0-1.6 1.3-3 3-3 1.7.1 3 1.4 3 3M348.66 382.323c0 1.6-1.3 3-3 3-1.6 0-3-1.3-3-3 0-1.6 1.3-3 3-3 1.7.1 3 1.4 3 3M365.16 382.323c0 1.6-1.3 3-3 3-1.6 0-3-1.3-3-3 0-1.6 1.3-3 3-3 1.7.1 3 1.4 3 3M397.56 382.323c0 1.6-1.3 3-3 3-1.6 0-3-1.3-3-3 0-1.6 1.3-3 3-3 1.6.1 3 1.4 3 3M432.56 382.323c0 1.6-1.3 3-3 3-1.6 0-3-1.3-3-3 0-1.6 1.3-3 3-3 1.6.1 3 1.4 3 3M390.96 389.623c0 1.6-1.3 3-3 3-1.6 0-3-1.3-3-3 0-1.6 1.3-3 3-3 1.6 0 3 1.4 3 3M423.26 389.623c0 1.6-1.3 3-3 3-1.6 0-3-1.3-3-3 0-1.6 1.3-3 3-3s3 1.4 3 3M309.66 389.623c0 1.6-1.3 3-3 3-1.6 0-3-1.3-3-3 0-1.6 1.3-3 3-3s3 1.4 3 3M326.26 389.623c0 1.6-1.3 3-3 3-1.6 0-3-1.3-3-3 0-1.6 1.3-3 3-3 1.6 0 3 1.4 3 3M342.06 389.623c0 1.6-1.3 3-3 3-1.6 0-3-1.3-3-3 0-1.6 1.3-3 3-3s3 1.4 3 3M358.56 389.623c0 1.6-1.3 3-3 3-1.6 0-3-1.3-3-3 0-1.6 1.3-3 3-3s3 1.4 3 3M374.46 389.623c0 1.6-1.3 3-3 3-1.6 0-3-1.3-3-3 0-1.6 1.3-3 3-3 1.6 0 3 1.4 3 3M309.66 406.123c0 1.6-1.3 3-3 3-1.6 0-3-1.3-3-3 0-1.6 1.3-3 3-3s3 1.4 3 3M326.26 406.123c0 1.6-1.3 3-3 3-1.6 0-3-1.3-3-3 0-1.6 1.3-3 3-3 1.6 0 3 1.4 3 3M342.06 406.123c0 1.6-1.3 3-3 3-1.6 0-3-1.3-3-3 0-1.6 1.3-3 3-3s3 1.4 3 3M358.56 406.123c0 1.6-1.3 3-3 3-1.6 0-3-1.3-3-3 0-1.6 1.3-3 3-3s3 1.4 3 3M309.66 422.623c0 1.6-1.3 3-3 3-1.6 0-3-1.3-3-3 0-1.6 1.3-3 3-3s3 1.4 3 3M326.26 422.623c0 1.6-1.3 3-3 3-1.6 0-3-1.3-3-3 0-1.6 1.3-3 3-3 1.6 0 3 1.4 3 3M342.06 422.623c0 1.6-1.3 3-3 3-1.6 0-3-1.3-3-3 0-1.6 1.3-3 3-3s3 1.4 3 3M326.26 439.123c0 1.6-1.3 3-3 3-1.6 0-3-1.3-3-3 0-1.6 1.3-3 3-3 1.6.1 3 1.4 3 3M342.06 439.123c0 1.6-1.3 3-3 3-1.6 0-3-1.3-3-3 0-1.6 1.3-3 3-3 1.7.1 3 1.4 3 3M358.56 422.623c0 1.6-1.3 3-3 3-1.6 0-3-1.3-3-3 0-1.6 1.3-3 3-3s3 1.4 3 3M374.46 406.123c0 1.6-1.3 3-3 3-1.6 0-3-1.3-3-3 0-1.6 1.3-3 3-3 1.6 0 3 1.4 3 3M425.26 406.123c0 1.6-1.3 3-3 3-1.6 0-3-1.3-3-3 0-1.6 1.3-3 3-3s3 1.4 3 3M381.06 398.823c0 1.6-1.3 3-3 3-1.6 0-3-1.3-3-3 0-1.6 1.3-3 3-3 1.6.1 3 1.4 3 3M416.66 398.823c0 1.6-1.3 3-3 3-1.6 0-3-1.3-3-3 0-1.6 1.3-3 3-3 1.7.1 3 1.4 3 3M299.76 398.823c0 1.6-1.3 3-3 3-1.6 0-3-1.3-3-3 0-1.6 1.3-3 3-3 1.7.1 3 1.4 3 3M316.26 398.823c0 1.6-1.3 3-3 3-1.6 0-3-1.3-3-3 0-1.6 1.3-3 3-3 1.7.1 3 1.4 3 3M332.16 398.823c0 1.6-1.3 3-3 3-1.6 0-3-1.3-3-3 0-1.6 1.3-3 3-3 1.7.1 3 1.4 3 3M348.66 398.823c0 1.6-1.3 3-3 3-1.6 0-3-1.3-3-3 0-1.6 1.3-3 3-3 1.7.1 3 1.4 3 3M365.16 398.823c0 1.6-1.3 3-3 3-1.6 0-3-1.3-3-3 0-1.6 1.3-3 3-3 1.7.1 3 1.4 3 3M316.26 414.723c0 1.6-1.3 3-3 3-1.6 0-3-1.3-3-3 0-1.6 1.3-3 3-3s3 1.4 3 3M332.16 414.723c0 1.6-1.3 3-3 3-1.6 0-3-1.3-3-3 0-1.6 1.3-3 3-3s3 1.4 3 3M348.66 414.723c0 1.6-1.3 3-3 3-1.6 0-3-1.3-3-3 0-1.6 1.3-3 3-3s3 1.4 3 3M316.26 431.223c0 1.6-1.3 3-3 3-1.6 0-3-1.3-3-3 0-1.6 1.3-3 3-3s3 1.4 3 3M332.16 431.223c0 1.6-1.3 3-3 3-1.6 0-3-1.3-3-3 0-1.6 1.3-3 3-3s3 1.4 3 3M348.66 431.223c0 1.6-1.3 3-3 3-1.6 0-3-1.3-3-3 0-1.6 1.3-3 3-3s3 1.4 3 3M365.16 414.723c0 1.6-1.3 3-3 3-1.6 0-3-1.3-3-3 0-1.6 1.3-3 3-3s3 1.4 3 3M416.66 414.723c0 1.6-1.3 3-3 3-1.6 0-3-1.3-3-3 0-1.6 1.3-3 3-3s3 1.4 3 3M219.26 314.323c0 1.6-1.3 3-3 3-1.6 0-3-1.3-3-3 0-1.6 1.3-3 3-3 1.7.1 3 1.4 3 3M235.76 314.323c0 1.6-1.3 3-3 3-1.6 0-3-1.3-3-3 0-1.6 1.3-3 3-3 1.7.1 3 1.4 3 3M251.56 314.323c0 1.6-1.3 3-3 3-1.6 0-3-1.3-3-3 0-1.6 1.3-3 3-3 1.7.1 3 1.4 3 3M268.06 314.323c0 1.6-1.3 3-3 3-1.6 0-3-1.3-3-3 0-1.6 1.3-3 3-3 1.7.1 3 1.4 3 3M284.66 314.323c0 1.6-1.3 3-3 3-1.6 0-3-1.3-3-3 0-1.6 1.3-3 3-3 1.6.1 3 1.4 3 3M293.86 126.823c0 1.6-1.3 3-3 3-1.6 0-3-1.3-3-3 0-1.6 1.3-3 3-3s3 1.4 3 3M309.66 126.823c0 1.6-1.3 3-3 3-1.6 0-3-1.3-3-3 0-1.6 1.3-3 3-3s3 1.4 3 3M326.26 126.823c0 1.6-1.3 3-3 3-1.6 0-3-1.3-3-3 0-1.6 1.3-3 3-3 1.6 0 3 1.4 3 3M300.46 151.223c0 1.6-1.3 3-3 3-1.6 0-3-1.3-3-3 0-1.6 1.3-3 3-3 1.7.1 3 1.4 3 3M235.76 151.223c0 1.6-1.3 3-3 3-1.6 0-3-1.3-3-3 0-1.6 1.3-3 3-3 1.7.1 3 1.4 3 3M292.56 159.223c0 1.6-1.3 3-3 3-1.6 0-3-1.3-3-3 0-1.6 1.3-3 3-3 1.6 0 3 1.3 3 3M243.66 159.223c0 1.6-1.3 3-3 3s-3-1.3-3-3c0-1.6 1.3-3 3-3s3 1.3 3 3M229.16 159.223c0 1.6-1.3 3-3 3-1.6 0-3-1.3-3-3 0-1.6 1.3-3 3-3s3 1.3 3 3" fill="#B3CEE2" opacity=".601"/><path d="M284.66 167.123c0 1.6-1.3 3-3 3-1.6 0-3-1.3-3-3 0-1.6 1.3-3 3-3 1.6 0 3 1.3 3 3" fill="#86B7E1" opacity=".8"/><path d="M251.56 167.123c0 1.6-1.3 3-3 3-1.6 0-3-1.3-3-3 0-1.6 1.3-3 3-3s3 1.3 3 3M219.26 167.123c0 1.6-1.3 3-3 3-1.6 0-3-1.3-3-3 0-1.6 1.3-3 3-3s3 1.3 3 3M268.76 184.223c0 1.6-1.3 3-3 3-1.6 0-3-1.3-3-3 0-1.6 1.3-3 3-3 1.7.1 3 1.4 3 3M250.96 184.223c0 1.6-1.3 3-3 3-1.6 0-3-1.3-3-3 0-1.6 1.3-3 3-3 1.6.1 3 1.4 3 3M260.86 192.223c0 1.6-1.3 3-3 3-1.6 0-3-1.3-3-3 0-1.6 1.3-3 3-3s3 1.3 3 3M276.06 175.023c0 1.6-1.3 3-3 3-1.6 0-3-1.3-3-3 0-1.6 1.3-3 3-3 1.6 0 3 1.4 3 3M260.16 175.023c0 1.6-1.3 3-3 3-1.6 0-3-1.3-3-3 0-1.6 1.3-3 3-3s3 1.4 3 3M243.66 175.023c0 1.6-1.3 3-3 3s-3-1.3-3-3c0-1.6 1.3-3 3-3s3 1.4 3 3M244.36 209.323c0 1.6-1.3 3-3 3-1.6 0-3-1.3-3-3 0-1.6 1.3-3 3-3 1.6.1 3 1.4 3 3M229.16 209.323c0 1.6-1.3 3-3 3-1.6 0-3-1.3-3-3 0-1.6 1.3-3 3-3 1.7.1 3 1.4 3 3M236.46 217.323c0 1.6-1.3 3-3 3-1.6 0-3-1.3-3-3 0-1.6 1.3-3 3-3 1.6 0 3 1.3 3 3M252.26 217.323c0 1.6-1.3 3-3 3-1.6 0-3-1.3-3-3 0-1.6 1.3-3 3-3s3 1.3 3 3M252.26 200.823c0 1.6-1.3 3-3 3-1.6 0-3-1.3-3-3 0-1.6 1.3-3 3-3s3 1.3 3 3M268.76 200.823c0 1.6-1.3 3-3 3-1.6 0-3-1.3-3-3 0-1.6 1.3-3 3-3s3 1.3 3 3M236.46 200.823c0 1.6-1.3 3-3 3-1.6 0-3-1.3-3-3 0-1.6 1.3-3 3-3 1.6 0 3 1.3 3 3M342.06 126.823c0 1.6-1.3 3-3 3-1.6 0-3-1.3-3-3 0-1.6 1.3-3 3-3s3 1.4 3 3M358.56 126.823c0 1.6-1.3 3-3 3-1.6 0-3-1.3-3-3 0-1.6 1.3-3 3-3s3 1.4 3 3M374.46 126.823c0 1.6-1.3 3-3 3-1.6 0-3-1.3-3-3 0-1.6 1.3-3 3-3 1.6 0 3 1.4 3 3M390.96 126.823c0 1.6-1.3 3-3 3-1.6 0-3-1.3-3-3 0-1.6 1.3-3 3-3 1.6 0 3 1.4 3 3M407.46 126.823c0 1.6-1.3 3-3 3-1.6 0-3-1.3-3-3 0-1.6 1.3-3 3-3 1.6 0 3 1.4 3 3M422.66 126.823c0 1.6-1.3 3-3 3-1.6 0-3-1.3-3-3 0-1.6 1.3-3 3-3 1.6 0 3 1.4 3 3" fill="#B3CEE2" opacity=".601"/><g stroke-linecap="round" stroke-linejoin="round" stroke-width="1.101"><path stroke="#B5CFE4" d="M372.975 21.388l-217.2 371.2M455.975 147.188l-160.1 132.8"/><path stroke="#223971" d="M372.975 21.388l-149.6 8.6M433.875 53.588l-35.9 306M343.075 243.788l-187.3 148.8"/><path stroke="#B5CFE4" d="M100.775 230.388l55 162.2M100.775 230.388l-86.6 116.7M100.775 230.388l356.3-84.3"/><path stroke="#223971" d="M263.275 266.088l134.7 91.3"/><path stroke="#B5CFE4" d="M100.775 230.388l413.1 94.7M222.375 30.988l291.9 294.5M457.375 143.088l56.5 182M513.875 194.488l-115.9 165.1"/><path stroke="#223971" d="M307.675 451.288l-39.2 89.7"/><path stroke="#B5CFE4" d="M305.775 452.188l-176.4 57"/><path stroke="#223971" d="M477.875 392.588l-79.9-35.2"/><path stroke="#B5CFE4" d="M155.075 392.588l113.4 148.4M155.075 392.588l-26.4 116.6"/><path stroke="#223971" d="M51.675 437.288l104.1-44.7"/><path stroke="#B5CFE4" d="M100.775 230.388l-86.6-53.1"/><path stroke="#223971" d="M262.275 258.788l-37.4-228.8"/><path stroke="#B5CFE4" d="M307.675 451.288l90.3-91.7M307.675 451.288l148-.3"/><path stroke="#1D2737" d="M305.775 452.188l-18.4-245.5"/><path stroke="#223971" d="M477.875 392.588l36-67.5"/><path stroke="#B5CFE4" d="M477.875 392.588l-209.4 148.4"/><path stroke="#223971" d="M513.875 194.488l-.8 132.6"/></g><g fill-rule="nonzero" transform="translate(1)"><use fill="#000" xlink:href="#a"/><use fill="#20386D" xlink:href="#a"/></g><g fill-rule="nonzero" transform="translate(1)"><use fill="#000" xlink:href="#b"/><use fill="#20386D" xlink:href="#b"/></g><g fill-rule="nonzero" transform="translate(1)"><use fill="#000" xlink:href="#c"/><use fill="#20386D" xlink:href="#c"/></g><g fill-rule="nonzero" transform="translate(1)"><use fill="#000" xlink:href="#d"/><use fill="#20386D" xlink:href="#d"/></g><g fill-rule="nonzero" transform="translate(1)"><use fill="#000" xlink:href="#e"/><use fill="#20386D" xlink:href="#e"/></g><g fill-rule="nonzero" transform="translate(1)"><use fill="#000" xlink:href="#f"/><use fill="#20386D" xlink:href="#f"/></g><g fill-rule="nonzero" transform="translate(1)"><use fill="#000" xlink:href="#g"/><use fill="#20386D" xlink:href="#g"/></g><path d="M441.9 54.2c0 4.7-3.8 8.4-8.4 8.4-4.6 0-8.4-3.8-8.4-8.4 0-4.6 3.8-8.4 8.4-8.4 4.6 0 8.4 3.7 8.4 8.4M231.9 30c0 4.7-3.8 8.4-8.4 8.4-4.7 0-8.4-3.8-8.4-8.4 0-4.6 3.8-8.4 8.4-8.4 4.6 0 8.4 3.8 8.4 8.4M521.9 195c0 4.7-3.8 8.4-8.4 8.4-4.7 0-8.4-3.8-8.4-8.4 0-4.6 3.8-8.4 8.4-8.4 4.6 0 8.4 3.8 8.4 8.4M485.9 393.8c0 4.7-3.8 8.4-8.4 8.4-4.6 0-8.4-3.8-8.4-8.4 0-4.6 3.8-8.4 8.4-8.4 4.6 0 8.4 3.8 8.4 8.4M59.7 437.1c0 4.7-3.8 8.4-8.4 8.4-4.6 0-8.4-3.8-8.4-8.4 0-4.6 3.8-8.4 8.4-8.4 4.6 0 8.4 3.8 8.4 8.4M276.5 541.7c0 4.7-3.8 8.4-8.4 8.4-4.6 0-8.4-3.8-8.4-8.4 0-4.7 3.8-8.4 8.4-8.4 4.6 0 8.4 3.8 8.4 8.4" fill="#223971"/><path d="M384.8 21.6c0 6.9-5.6 12.5-12.5 12.5s-12.5-5.6-12.5-12.5S365.4 9 372.3 9s12.5 5.6 12.5 12.6z" stroke="#223971" stroke-width="1.947" fill="#FFF"/><path d="M469.2 146.3c0 6.9-5.6 12.5-12.5 12.5s-12.5-5.6-12.5-12.5 5.6-12.5 12.5-12.5 12.5 5.6 12.5 12.5zM26.1 347.3c0 6.9-5.6 12.5-12.5 12.5s-12.5-5.6-12.5-12.5 5.6-12.5 12.5-12.5c6.8 0 12.5 5.6 12.5 12.5zM22.4 177.7c0 4.7-3.8 8.6-8.6 8.6s-8.6-3.8-8.6-8.6c0-4.7 3.8-8.6 8.6-8.6s8.6 3.9 8.6 8.6z" stroke="#B5CFE4" stroke-width="1.947" fill="#FFF"/><path d="M522.7 325.3c0 5.3-4.3 9.6-9.6 9.6s-9.6-4.3-9.6-9.6 4.3-9.6 9.6-9.6 9.6 4.3 9.6 9.6z" stroke="#223971" stroke-width="1.947" fill="#FFF"/><path d="M410.2 358c0 6.9-5.6 12.5-12.5 12.5s-12.5-5.6-12.5-12.5 5.6-12.5 12.5-12.5c6.9-.1 12.5 5.5 12.5 12.5z" stroke="#223971" stroke-width="1.947" fill="#EDF3F8"/><path d="M460.3 454.8c0 6.9-5.6 12.5-12.5 12.5s-12.5-5.6-12.5-12.5 5.6-12.5 12.5-12.5c6.8 0 12.5 5.6 12.5 12.5zM141.3 509.5c0 6.9-5.6 12.5-12.5 12.5s-12.5-5.6-12.5-12.5 5.6-12.5 12.5-12.5c6.8-.1 12.5 5.5 12.5 12.5z" stroke="#B5CFE4" stroke-width="1.947" fill="#FFF"/><path d="M173.6 393.2c0 10.4-8.4 18.8-18.8 18.8s-18.8-8.4-18.8-18.8 8.4-18.8 18.8-18.8 18.8 8.4 18.8 18.8z" stroke="#223971" stroke-width="1.947" fill="#F7FAFC"/><path d="M111.1 230.9c0 5.3-4.3 9.6-9.6 9.6s-9.6-4.3-9.6-9.6 4.3-9.6 9.6-9.6 9.6 4.3 9.6 9.6z" stroke="#B5CFE4" stroke-width="1.947" fill="#FFF"/><path d="M315.8 452.2c0 5.3-4.3 9.6-9.6 9.6s-9.6-4.3-9.6-9.6 4.3-9.6 9.6-9.6 9.6 4.3 9.6 9.6z" stroke="#223971" stroke-width="1.947" fill="#FFF"/><g><path d="M260.857 165.888c-53.4 0-96.6 43.2-96.6 96.6 0 53.4 43.2 96.6 96.6 96.6 53.3 0 96.6-43.2 96.6-96.6 0-53.4-43.3-96.6-96.6-96.6" fill="#FEFEFE"/><path d="M31.8 58.9h-.2L18 63.4c-.9.3-1.4 1.3-1.1 2.2.2.7.9 1.2 1.6 1.2.2 0 .4 0 .5-.1l9.9-3.2c-8.6 17.8-10 37.8-3.9 56.7 6.3 19.3 19.7 35.1 37.8 44.3 10.8 5.5 22.7 8.3 34.5 8.3 12.3 0 24.7-3 35.9-9 .8-.4 1.1-1.5.7-2.3-.4-.8-1.5-1.1-2.3-.7-21 11.2-46.1 11.4-67.3.7-17.3-8.8-30.1-23.8-36.1-42.3-5.8-17.9-4.5-37 3.6-54l3.2 9.7c.2.7.9 1.2 1.6 1.2.2 0 .4 0 .5-.1.9-.3 1.4-1.3 1.1-2.2L33.8 60c-.2-.7-.9-1.2-1.6-1.2-.1 0-.2 0-.4.1" fill="url(#h)" transform="translate(163.357 165.288)"/><path d="M61.7 30.7c-.8.4-1.1 1.5-.7 2.3.4.8 1.5 1.1 2.3.7 21-11.2 46.1-11.4 67.3-.7 17.3 8.8 30.1 23.8 36.1 42.3 5.8 17.9 4.5 37-3.6 54l-3.2-9.7c-.3-.9-1.3-1.4-2.2-1.1-.9.3-1.4 1.3-1.1 2.2l4.5 13.7c.2.6.7 1.1 1.4 1.2h.3c.2 0 .4 0 .5-.1L177 131c.9-.3 1.4-1.3 1.1-2.2-.3-.9-1.3-1.4-2.2-1.1l-9.9 3.2c8.6-17.8 10-37.8 3.9-56.7-6.3-19.3-19.7-35.1-37.8-44.3-10.8-5.5-22.7-8.3-34.5-8.3-12.3.1-24.7 3.1-35.9 9.1" fill="url(#i)" transform="translate(163.357 165.288)"/><path fill="#B8CBDC" d="M214.957 198.788h11.7v-2.8h-11.7zM204.657 204.388h19.9v-2.9h-19.9zM215.357 209.388h14.7v-2.9h-14.7zM300.457 317.688h13.5v-2.9h-13.5zM293.157 323.188h23.8v-2.9h-23.8zM302.857 328.188h8.6v-2.8h-8.6z"/><path d="M260.732 209.85c29.1 0 43.7 15.4 43.7 15.4s1.7 11.4.6 34.4c-1.6 34.7-44.3 55.5-44.3 55.5s-42.7-20.8-44.3-55.5c-1-23 .7-34.4.7-34.4s14.6-15.4 43.6-15.4" fill="#D72C30"/><path d="M239.032 254.85c0-12.3 9.8-22.2 21.8-22.2s21.8 9.7 21.8 21.6c0 9.5-8.3 17.4-14.6 21.4 2.5 1.4 7.9 2.9 13.1 3.3 7.6-5.8 12.3-14.9 12.3-24.7 0-17.8-14.6-32.3-32.6-32.3s-32.6 14.4-32.6 32.3c0 10.8 4.5 20.3 13.1 27.7 8 6.8 19.7 11.4 33 13.6 2.9-1.6 7.8-6.2 9.7-9-11.1-1.4-21.7-4.1-28.7-7.8-10.9-5.7-16.3-13.7-16.3-23.9" fill="#FEFEFE"/></g></g></svg>