<svg xmlns="http://www.w3.org/2000/svg" xmlns:xlink="http://www.w3.org/1999/xlink" viewBox="0 0 832 316.8"><style>.st15{fill:#28c0f3}.st16{fill:none}.st17{fill:#007dc6}.st18{fill:#005d81}.st19{fill:#f3f5f7}.st20{fill:#0070a7}</style><g id="RGB_Full_Color_Logos"><linearGradient id="SVGID_1_" gradientUnits="userSpaceOnUse" x1="367.517" y1="-41.598" x2="453.505" y2="355.636"><stop offset="0" stop-color="#043471"/><stop offset=".718" stop-color="#043471" stop-opacity="0"/></linearGradient><path fill="url(#SVGID_1_)" d="M1.8 115.5l136.9 201.3H832v-58.9L633 18.8 466.7 96.1l-74.5-78.6-.3 27.8-41.3 3.7-26.5 30.3L286.5 38l-47.6 63.7L238 47l-73.5 9.7-37-39.7-77.4 38.6v73.2z"/><defs><path id="SVGID_2_" d="M466.2 18.8h45.9l37.4 60.7 37.4-60.7h46v156.8h-43.2V85.5l-40.2 61.3h-.8l-39.9-61.1v89.8h-42.6z"/></defs><clipPath id="SVGID_3_"><use xlink:href="#SVGID_2_" overflow="visible"/></clipPath><g clip-path="url(#SVGID_3_)"><defs><path id="SVGID_4_" d="M197-180.3h1367.4v769.2H197z"/></defs><clipPath id="SVGID_5_"><use xlink:href="#SVGID_4_" overflow="visible"/></clipPath><path clip-path="url(#SVGID_5_)" fill="#f3f5f7" d="M465.5 18.1h168.1v158.2H465.5z"/></g><defs><path id="SVGID_6_" d="M512.1 18.8L522.6 0h-33.1l-23.3 18.8z"/></defs><clipPath id="SVGID_7_"><use xlink:href="#SVGID_6_" overflow="visible"/></clipPath><g clip-path="url(#SVGID_7_)"><defs><path id="SVGID_8_" d="M197-180.3h1367.4v769.2H197z"/></defs><clipPath id="SVGID_9_"><use xlink:href="#SVGID_8_" overflow="visible"/></clipPath><path clip-path="url(#SVGID_9_)" fill="#28c0f3" d="M465.5-.7h57.9v20.2h-57.9z"/></g><defs><path id="SVGID_10_" d="M587 18.8L576.9 0h32.8L633 18.8z"/></defs><clipPath id="SVGID_11_"><use xlink:href="#SVGID_10_" overflow="visible"/></clipPath><g clip-path="url(#SVGID_11_)"><defs><path id="SVGID_12_" d="M197-180.3h1367.4v769.2H197z"/></defs><clipPath id="SVGID_13_"><use xlink:href="#SVGID_12_" overflow="visible"/></clipPath><path clip-path="url(#SVGID_13_)" fill="#00a7f2" d="M576.2-.7h57.5v20.2h-57.5z"/></g><g><defs><path id="SVGID_14_" d="M522.6 0l27 45.8v33.7l-37.5-60.7z"/></defs><clipPath id="SVGID_15_"><use xlink:href="#SVGID_14_" overflow="visible"/></clipPath><g clip-path="url(#SVGID_15_)"><defs><path id="SVGID_16_" d="M197-180.3h1367.4v769.2H197z"/></defs><clipPath id="SVGID_17_"><use xlink:href="#SVGID_16_" overflow="visible"/></clipPath><path clip-path="url(#SVGID_17_)" fill="#0070a7" d="M511.4-.7h38.9v80.9h-38.9z"/></g></g><g><defs><path id="SVGID_18_" d="M549.6 45.8L576.9 0 587 18.8l-37.4 60.7z"/></defs><clipPath id="SVGID_19_"><use xlink:href="#SVGID_18_" overflow="visible"/></clipPath><g clip-path="url(#SVGID_19_)"><defs><path id="SVGID_20_" d="M197-180.3h1367.4v769.2H197z"/></defs><clipPath id="SVGID_21_"><use xlink:href="#SVGID_20_" overflow="visible"/></clipPath><path clip-path="url(#SVGID_21_)" fill="#007dc6" d="M548.9-.7h38.8v80.9h-38.8z"/></g></g><g><defs><path id="SVGID_22_" d="M508.8 175.6l13.8-32.5v-36.2l-13.8-21.1z"/></defs><clipPath id="SVGID_23_"><use xlink:href="#SVGID_22_" overflow="visible"/></clipPath><g clip-path="url(#SVGID_23_)"><defs><path id="SVGID_24_" d="M197-180.3h1367.4v769.2H197z"/></defs><clipPath id="SVGID_25_"><use xlink:href="#SVGID_24_" overflow="visible"/></clipPath><path clip-path="url(#SVGID_25_)" fill="#005d81" d="M508.1 85h15.3v91.2h-15.3z"/></g></g><g><defs><path id="SVGID_26_" d="M589.6 175.6l-13.8-32.5v-36.2l13.9-21.4z"/></defs><clipPath id="SVGID_27_"><use xlink:href="#SVGID_26_" overflow="visible"/></clipPath><g clip-path="url(#SVGID_27_)"><defs><path id="SVGID_28_" d="M197-180.3h1367.4v769.2H197z"/></defs><clipPath id="SVGID_29_"><use xlink:href="#SVGID_28_" overflow="visible"/></clipPath><path clip-path="url(#SVGID_29_)" fill="#007dc6" d="M575.1 84.8h15.3v91.5h-15.3z"/></g></g><g><path class="st15" d="M350.3 17.5L362.4 0h17.4l12.4 17.5z"/><path class="st16" d="M371.3 81.8l-9.9 25.9-8.2 5.8h35.2l-7.1-5.8zM370.8 69.2l.5 12.6z"/><path class="st17" d="M370.8 69.2l.5 12.6 10 25.9 7.1 5.8-17.5-44.4z"/><path class="st18" d="M371.3 81.8l-.5-12.6-17.6 44.3 8.2-5.8zM329.2 175.6l21.5-28.3h-10.3z"/><path class="st17" d="M390.9 147.3l21.5 28.3-11.2-28.3z"/><path class="st19" d="M392.2 17.5h-41.9l-66.6 158h45.5l11.2-28.2h60.7l11.2 28.2H459l-66.8-158zm-39 96l17.7-44.3.1-.1 17.5 44.4h-35.3z"/><path class="st20" d="M353.2 113.5h35.2l-7.1-5.8h-19.9z"/></g><g><path class="st15" d="M222 17.6c26.7 0 47.3 7 64.3 20.6-.1 0 .2.1.1.1l.1-.1c-.1 0-.1-.1-.2-.1l.1-.1c-.1 0-.1-.1-.2-.1l.1-.1c-.1 0-.1-.1-.2-.1l.1-.1c-.1 0-.1-.1-.2-.1l.1-.1c-.1 0-.1-.1-.2-.1l.1-.1c-.1 0-.1-.1-.2-.1l.1-.1c-.1 0-.1-.1-.2-.1l.1-.1c-.1 0-.1-.1-.2-.1l.1-.1c-.1 0-.1-.1-.2-.1l.1-.1c-.1 0-.1-.1-.2-.1l.1-.1c-.1 0-.1-.1-.2-.1l.1-.1c-.1 0-.1-.1-.2-.1l.1-.1c-.1 0-.1-.1-.2-.1l.1-.1c-.1 0-.1-.1-.2-.1l.1-.1c-.1 0-.1-.1-.2-.1l.1-.1c-.1 0-.1-.1-.2-.1l.1-.1c-.1 0-.1-.1-.2-.1l.1-.1c-.1 0-.1-.1-.2-.1l.1-.1c-.1 0-.1-.1-.2-.1l.1-.1c-.1 0-.1-.1-.2-.1l.1-.1c-.1 0-.1-.1-.2-.1l.1-.1c-.1 0-.1-.1-.2-.1l.1-.1c-.1 0-.1-.1-.2-.1l.1-.1c-.1 0-.1-.1-.2-.1l.1-.1c-.1 0-.1-.1-.2-.1l.1-.1c-.1 0-.1-.1-.2-.1l.1-.1c-.1 0-.1-.1-.2-.1l.1-.1c-.1 0-.1-.1-.2-.1l.1-.1c-.1 0-.1-.1-.2-.1l.1-.1c-.1 0-.1-.1-.2-.1l.1-.1c-.1 0-.1-.1-.2-.1l.1-.1c-.1 0-.1-.1-.2-.1l.1-.1c-.1 0-.1-.1-.2-.1l.1-.1c-.1 0-.1-.1-.2-.1l.1-.1c-.1 0-.1-.1-.2-.1l.1-.1c-.1 0-.1-.1-.2-.1l.1-.1c-.1 0-.1-.1-.2-.1l.1-.1c-.1 0-.1-.1-.2-.1l.1-.1c-.1 0-.1-.1-.2-.1l.1-.1c-.1 0-.1-.1-.2-.1l.1-.1c-.1 0-.1-.1-.2-.1l.1-.1c-.1 0-.1-.1-.2-.1l.1-.1c-.1 0-.1-.1-.2-.1l.1-.1c-.1 0-.1-.1-.2-.1l.1-.1c-.1 0-.1-.1-.2-.1l.1-.1c-.1 0-.1-.1-.2-.1l.1-.1c-.1 0-.1-.1-.2-.1l.1-.1c-.1 0-.1-.1-.2-.1l.1-.1c-.1 0-.1-.1-.2-.1l.1-.1c-.1 0-.1-.1-.2-.1l.1-.1c-.1 0-.1-.1-.2-.1l.1-.1c-.1 0-.1-.1-.2-.1l.1-.1c-.1 0-.1-.1-.2-.1l.1-.1c-.1 0-.1-.1-.2-.1l.1-.1c-.1 0-.1-.1-.2-.1l.1-.1c-.1 0-.1-.1-.2-.1l.1-.1c-.1 0-.1-.1-.2-.1l.1-.1c-.1 0-.1-.1-.2-.1l.1-.1c-.1 0-.1-.1-.2-.1l.1-.1c-.1 0-.1-.1-.2-.1l.1-.1c-.1 0-.1-.1-.2-.1l.1-.1c-.1 0-.1-.1-.2-.1l.1-.1c-.1 0-.1-.1-.2-.1l.1-.1c-.1 0-.1-.1-.2-.1l.1-.1c-.1 0-.1-.1-.2-.1l.1-.1c-.1 0-.1-.1-.2-.1l.1-.1c-.1 0-.1-.1-.2-.1l.1-.1c-.1 0-.1-.1-.2-.1l.1-.1c-.1 0-.1-.1-.2-.1l.1-.1c-.1 0-.1-.1-.2-.1l.1-.1c-.1 0-.1-.1-.2-.1l.1-.1c-.1 0-.1-.1-.2-.1l.1-.1c-.1 0-.1-.1-.2-.1l.1-.1c-.1 0-.1-.1-.2-.1l.1-.1c-.1 0-.1-.1-.2-.1l.1-.1c-.1 0-.1-.1-.2-.1l.1-.1c-.1 0-.1-.1-.2-.1l.1-.1c-.1 0-.1-.1-.2-.1l.1-.1c-.1 0-.1-.1-.2-.1l.1-.1c-.1 0-.1-.1-.2-.1l.1-.1c-.1 0-.1-.1-.2-.1l.1-.1c-.1 0-.1-.1-.2-.1l.1-.1c-.1 0-.1-.1-.2-.1l.1-.1c-.1 0-.1-.1-.2-.1l.1-.1c-.1 0-.1-.1-.2-.1l.1-.1c-.1 0-.1-.1-.2-.1l.1-.1c-.1 0-.1-.1-.2-.1l.1-.1c-.1 0-.1-.1-.2-.1l.1-.1c-.1 0-.1-.1-.2-.1l.1-.1c-.1 0-.1-.1-.2-.1l.1-.1c-.1 0-.1-.1-.2-.1l.1-.1c-.1 0-.1-.1-.2-.1l.1-.1c-.1 0-.1-.1-.2-.1l.1-.1c-.1 0-.1-.1-.2-.1l.1-.1c-.1 0-.1-.1-.2-.1l.1-.1c-.1 0-.1-.1-.2-.1l.1-.1c-.1 0-.1-.1-.2-.1l.1-.1c-.1 0-.1-.1-.2-.1l.1-.1c-.1 0-.1-.1-.2-.1l.1-.1c-.1 0-.1-.1-.2-.1l.1-.1c-13.9-11.2-31-17-52.8-17-23.2 0-39.6 9.7-46.3 24.7 0 .1-.1.2-.1.2 0 .1-.1.2-.1.2 0 .1-.1.2-.1.2 0 .1-.1.2-.1.2 0 .1-.1.2-.1.2 0 .1-.1.2-.1.2 0 .1-.1.2-.1.2 0 .1-.1.2-.1.2 0 .1-.1.2-.1.2 0 .1-.1.2-.1.2 0 .1-.1.2-.1.2 0 .1-.1.2-.1.2 0 .1-.1.2-.1.2 0 .1-.1.2-.1.2 0 .1-.1.2-.1.2 0 .1-.1.2-.1.2 0 .1-.1.2-.1.2 0 .1-.1.2-.1.2 0 .1-.1.2-.1.2 0 .1-.1.2-.1.2 0 .1-.1.2-.1.2 0 .1-.1.2-.1.2 0 .1-.1.2-.1.2 0 .1-.1.2-.1.2 0 .1-.1.2-.1.2 0 .1-.1.2-.1.2 0 .1-.1.2-.1.2 0 .1-.1.2-.1.2 0 .1-.1.2-.1.2 0 .1-.1.2-.1.2 0 .1-.1.2-.1.2 0 .1-.1.2-.1.2 0 .1-.1.2-.1.2 0 .1-.1.2-.1.2 0 .1-.1.2-.1.2 0 .1-.1.2-.1.2 0 .1-.1.2-.1.2 0 .1-.1.2-.1.2 0 .1-.1.2-.1.2 0 .1-.1.2-.1.2 0 .1-.1.2-.1.2 0 .1-.1.2-.1.2 0 .1-.1.2-.1.2 0 .1-.1.2-.1.2 0 .1-.1.2-.1.2 0 .1-.1.2-.1.2 0 .1-.1.2-.1.2 0 .1-.1.2-.1.2 0 .1-.1.2-.1.2 0 .1-.1.2-.1.2 0 .1-.1.2-.1.2 0 .1-.1.2-.1.2 0 .1-.1.2-.1.2 0 .1-.1.2-.1.2 0 .1-.1.2-.1.2 0 .1-.1.2-.1.2 0 .1-.1.2-.1.2 0 .1-.1.2-.1.2 0 .1-.1.2-.1.2 0 .1-.1.2-.1.2 0 .1-.1.2-.1.2 0 .1-.1.2-.1.2 0 .1-.1.2-.1.2 0 .1-.1.2-.1.2 0 .1-.1.2-.1.2 0 .1-.1.2-.1.2 0 .1-.1.2-.1.2 0 .1-.1.2-.1.2 0 .1-.1.2-.1.2 0 .1-.1.2-.1.2 0 .1-.1.2-.1.2 0 .1-.1.2-.1.2 0 .1-.1.2-.1.2 0 .1-.1.2-.1.2 0 .1-.1.2-.1.2 0 .1-.1.2-.1.2 0 .1-.1.2-.1.2 0 .1-.1.2-.1.2 0 .1-.1.2-.1.2 0 .1-.1.2-.1.2 0 .1-.1.2-.1.2 0 .1-.1.2-.1.2 0 .1-.1.2-.1.2 0 .1-.1.2-.1.2 0 .1-.1.2-.1.2 0 .1-.1.2-.1.2 0 .1-.1.2-.1.2 0 .1-.1.2-.1.2 0 .1-.1.2-.1.2 0 .1-.1.2-.1.2 0 .1-.1.2-.1.2 0 .1-.1.2-.1.2 0 .1-.1.2-.1.2 0 .1-.1.2-.1.2 0 .1-.1.2-.1.2 0 .1-.1.2-.1.2 0 .1-.1.2-.1.2 0 .1-.1.2-.1.2 0 .1-.1.2-.1.2 0 .1-.1.2-.1.2 6.4-16.5 26.4-28.3 54.6-28.3z"/><path class="st17" d="M178.1 124.6c15.7 12.3 32.7 18.8 50.9 18.8 11.9 0 18.2-4 18.2-10.8v-.4c0-6.7-5.2-10.1-26.7-15.2-18.1-4.1-33.9-8.8-44.6-17.2"/><path class="st15" d="M175.9 99.8l-9.5 11.3.1.1-.3.3.1.1-.3.3.1.1-.3.3.1.1-.3.3.1.1-.3.3.1.1-.3.3.1.1-.3.3.1.1-.3.3.1.1-.3.3.1.1-.3.3.1.1-.3.3.1.1-.3.3.1.1-.3.3.1.1-.3.3.1.1-.3.3.1.1-.3.3.1.1-.3.3.1.1-.3.3.1.1-.3.3.1.1-.3.3.1.1-.3.3.1.1-.3.3.1.1-.3.3.1.1-.3.3.1.1-.3.3.1.1-.3.3.1.1-.3.3.1.1-.3.3.1.1-.3.3.1.1-.3.3.1.1-.3.3.1.1-.3.3.1.1-.3.3.1.1-.3.3.1.1-.3.3.1.1-.3.3.1.1-.3.3.1.1-.3.3.1.1-.3.3.1.1-.3.3.1.1-.3.3.1.1-.3.3.1.1-.3.3.1.1-.3.3.1.1-.3.3.1.1-.3.3.1.1-.3.3.1.1-.3.3.1.1-.3.3.1.1-.3.3.1.1-.3.3.1.1 3.7 1.4.1.1-.3.3.1.1-.3.3.1.1-.3.3.1.1-.3.3.1.1-.3.3.1.1-.3.3.1.1-.3.3.1.1-.3.3.1.1-.3.3.1.1-.3.3.1.1-.3.3.1.1-.3.3.1.1-.3.3.1.1-.3.3.1.1-.3.3.1.1-.3.3.1.1-.3.3.1.1-.3.3.1.1-.3.3.1.1-.3.3.1.1-.3.3.1.1-.3.3.1.1-.3.3.1.1 1.5.7.1.1-.3.3.1.1-.3.3.1.1-.3.3.1.1-.3.3.1.1-.3.3.1.1-.3.3.1.1-.3.3.1.1-.3.3.1.1-.3.3.1.1-.3.3.1.1-.3.3.1.1-.3.3.1.1-.3.3.1.1-.3.3.1.1-.3.3.1.1-.3.3.1.1-.3.3.1.1-.3.3.1.1-.3.3.1.1-.3.3.1.1-.3.3.1.1-.3.3.1.1-.3.3.1.1-.3.3.1.1-.3.3 24.2-28.9"/><path class="st20" d="M220.9 53.4c-10.5 0-15.7 4.3-15.7 10.1v.4c0 7.2 5.4 10.3 27.3 15.2 29 6.4 48.9 15.2 55.6 33.9h.3c0-.1-.1-.2-.1-.3 0-.1-.1-.2-.1-.3 0-.1-.1-.2-.1-.3 0-.1-.1-.2-.1-.3 0-.1-.1-.2-.1-.3 0-.1-.1-.2-.1-.3 0-.1-.1-.2-.1-.3 0-.1-.1-.2-.1-.3 0-.1-.1-.2-.1-.3 0-.1-.1-.2-.1-.3 0-.1-.1-.2-.1-.3 0-.1-.1-.2-.1-.3 0-.1-.1-.2-.1-.3 0-.1-.1-.2-.1-.3 0-.1-.1-.2-.1-.3 0-.1-.1-.2-.1-.3 0-.1-.1-.2-.1-.3 0-.1-.1-.2-.1-.3 0-.1-.1-.2-.1-.3 0-.1-.1-.2-.1-.3 0-.1-.1-.2-.1-.3 0-.1-.1-.2-.1-.3 0-.1-.1-.2-.1-.3 0-.1-.1-.2-.1-.3 0-.1-.1-.2-.1-.3 0-.1-.1-.2-.1-.3 0-.1-.1-.2-.1-.3 0-.1-.1-.2-.1-.3 0-.1-.1-.2-.1-.3 0-.1-.1-.2-.1-.3 0-.1-.1-.2-.1-.3 0-.1-.1-.2-.1-.3 0-.1-.1-.2-.1-.3 0-.1-.1-.2-.1-.3 0-.1-.1-.2-.1-.3 0-.1-.1-.2-.1-.3 0-.1-.1-.2-.1-.3 0-.1-.1-.2-.1-.3 0-.1-.1-.2-.1-.3 0-.1-.1-.2-.1-.3 0-.1-.1-.2-.1-.3 0-.1-.1-.2-.1-.3 0-.1-.1-.2-.1-.3 0-.1-.1-.2-.1-.3 0-.1-.1-.2-.1-.3 0-.1-.1-.2-.1-.3 0-.1-.1-.2-.1-.3 0-.1-.1-.2-.1-.3 0-.1-.1-.2-.1-.3 0-.1-.1-.2-.1-.3 0-.1-.1-.2-.1-.3 0-.1-.1-.2-.1-.3 0-.1-.1-.2-.1-.3 0-.1-.1-.2-.1-.3 0-.1-.1-.2-.1-.3 0-.1-.1-.2-.1-.3 0-.1-.1-.2-.1-.3 0-.1-.1-.2-.1-.3 0-.1-.1-.2-.1-.3 0-.1-.1-.2-.1-.3 0-.1-.1-.2-.1-.3 0-.1-.1-.2-.1-.3 0-.1-.1-.2-.1-.3 0-.1-.1-.2-.1-.3 0-.1-.1-.2-.1-.3 0-.1-.1-.2-.1-.3 0-.1-.1-.2-.1-.3 0-.1-.1-.2-.1-.3 0-.1-.1-.2-.1-.3 0-.1-.1-.2-.1-.3 0-.1-.1-.2-.1-.3 0-.1-.1-.2-.1-.3 0-.1-.1-.2-.1-.3 0-.1-.1-.2-.1-.3 0-.1-.1-.2-.1-.3 0-.1-.1-.2-.1-.3 0-.1-.1-.2-.1-.3 0-.1-.1-.2-.1-.3 0-.1-.1-.2-.1-.3 0-.1-.1-.2-.1-.3 0-.1-.1-.2-.1-.3 0-.1-.1-.2-.1-.3 0-.1-.1-.2-.1-.3 0-.1-.1-.2-.1-.3 0-.1-.1-.2-.1-.3 0-.1-.1-.2-.1-.3 0-.1-.1-.2-.1-.3 0-.1-.1-.2-.1-.3 0-.1-.1-.2-.1-.3 0-.1-.1-.2-.1-.3 0-.1-.1-.2-.1-.3 0-.1-.1-.2-.1-.3 0-.1-.1-.2-.1-.3 0-.1-.1-.2-.1-.3 0-.1-.1-.2-.1-.3 0-.1-.1-.2-.1-.3 0-.1-.1-.2-.1-.3 0-.1-.1-.2-.1-.3 0-.1-.1-.2-.1-.3 0-.1-.1-.2-.1-.3-1.8-5.3-4.9-9.6-9.1-13.3l-2.6 3.7c-16.2-14.9-31.9-20-45.8-20z"/><path class="st19" d="M290.8 125.6v-.8c0-.5-.1-1.1-.1-1.6 0-.3-.1-.6-.1-.8-.1-.6-.1-1.1-.2-1.6 0-.2-.1-.4-.1-.6-.1-.7-.2-1.3-.4-2-.1-.3-.1-.6-.2-1s-.2-.7-.3-1.1c-.1-.3-.2-.7-.3-1-.1-.3-.2-.7-.3-1-.1-.3-.2-.7-.3-1-6.7-18.7-26.9-27.6-55.9-33.9-22-4.9-27.3-8.1-27.3-15.2v-.4c0-5.8 5.2-10.1 15.7-10.1 13.9 0 29.6 5.2 43.9 15.5l2.6-3.7 19.2-27.1c-17-13.7-37.9-20.8-64.6-20.8-28.2 0-48.2 11.8-56.5 30-1.4 3-2.4 6.2-3.1 9.6v.1c-.2.8-.3 1.6-.4 2.3v.2c-.1.7-.2 1.5-.3 2.2v.4c-.1.7-.1 1.4-.2 2.2v.5c0 .9-.1 1.8-.1 2.7v.4c0 1 0 1.9.1 2.8 0 .3 0 .6.1.9 0 .6.1 1.2.1 1.8 0 .4.1.7.1 1.1.1.5.1 1 .2 1.5.1.4.1.8.2 1.2.1.4.2.9.3 1.3l.3 1.2c.1.4.2.8.3 1.1.1.4.2.8.4 1.2.1.3.2.7.3 1 .1.4.3.8.5 1.2.1.3.2.6.4.9.2.4.4.8.6 1.3.1.2.2.5.4.7.2.4.4.9.7 1.3.1.2.2.4.3.5.3.5.5.9.8 1.4.1.1.1.2.2.2 2.3 3.5 5.1 6.5 8.5 9.2 10.7 8.5 26.5 13.1 44.6 17.2 21.5 5.2 26.7 8.5 26.7 15.2v.4c0 6.7-6.3 10.8-18.2 10.8-18.2 0-35.2-6.5-50.9-18.8l-24.2 28.9c19.5 17.3 45.7 26 73.5 26 38.1 0 63.4-19.1 63.4-51.1v-.4c-.3-.8-.4-1.6-.4-2.4z"/></g><g><path class="st15" d="M82.9 17.5c32.1 0 52.7 13.4 66.6 32.5l-.2-.2-.2-.2-.2-.2-.2-.2-.2-.2-.2-.2-.2-.2-.2-.2-.2-.2-.2-.2-.2-.2-.2-.2-.2-.2-.2-.2-.2-.2-.2-.2-.2-.2-.2-.2-.2-.2-.2-.2-.2-.2-.2-.2-.2-.2-.2-.2-.2-.2-.2-.2-.2-.2-.2-.2-.2-.2-.2-.2-.2-.2-.2-.2-.2-.2-.2-.2-.2-.2-.2-.2-.2-.2-.2-.2-.2-.2-.2-.2-.2-.2-.2-.2-.2-.2-.2-.2-.2-.2-.2-.2-.2-.2-.2-.2-.2-.2-.2-.2-.2-.2-.2-.2-.2-.2-.2-.2-.2-.2-.2-.2-.2-.2-.2-.2-.2-.2-.2-.2-.2-.2-.2-.2-.2-.2-.2-.2-.2-.2-.2-.2-.2-.2-.2-.2-.2-.2-.2-.2-.2-.2-.2-.2-.2-.2-.2-.2-.2-.2-.2-.2-.2-.2-.2-.2-.2-.2-.2-.2-.2-.2-.2-.2-.2-.2-.2-.2-.2-.2-.2-.2-.2-.2-.2-.2-.2-.2-.2-.2-.2-.2-.2-.2-.2-.2-.2-.2-.2-.2-.2-.2-.2-.2-.2-.2-.2-.2-.2-.2-.2-.2C124.6 11 107.7 0 81.5 0c-28 0-50.6 15.2-61.1 37.7 0 .1-.1.2-.1.3 0 .1-.1.2-.1.3 0 .1-.1.2-.1.3 0 .1-.1.2-.1.3 0 .1-.1.2-.1.3 0 .1-.1.2-.1.3 0 .1-.1.2-.1.3 0 .1-.1.2-.1.3 0 .1-.1.2-.1.3 0 .1-.1.2-.1.3 0 .1-.1.2-.1.3 0 .1-.1.2-.1.3 0 .1-.1.2-.1.3 0 .1-.1.2-.1.3 0 .1-.1.2-.1.3 0 .1-.1.2-.1.3 0 .1-.1.2-.1.3 0 .1-.1.2-.1.3 0 .1-.1.2-.1.3 0 .1-.1.2-.1.3 0 .1-.1.2-.1.3 0 .1-.1.2-.1.3 0 .1-.1.2-.1.3 0 .1-.1.2-.1.3 0 .1-.1.2-.1.3 0 .1-.1.2-.1.3 0 .1-.1.2-.1.3 0 .1-.1.2-.1.3 0 .1-.1.2-.1.3 0 .1-.1.2-.1.3 0 .1-.1.2-.1.3 0 .1-.1.2-.1.3 0 .1-.1.2-.1.3 0 .1-.1.2-.1.3 0 .1-.1.2-.1.3 0 .1-.1.2-.1.3 0 .1-.1.2-.1.3 0 .1-.1.2-.1.3 0 .1-.1.2-.1.3 0 .1-.1.2-.1.3 0 .1-.1.2-.1.3 0 .1-.1.2-.1.3 0 .1-.1.2-.1.3 0 .1-.1.2-.1.3 0 .1-.1.2-.1.3 0 .1-.1.2-.1.3 0 .1-.1.2-.1.3 0 .1-.1.2-.1.3 0 .1-.1.2-.1.3 0 .1-.1.2-.1.3 0 .1-.1.2-.1.3 0 .1-.1.2-.1.3 0 .1-.1.2-.1.3 0 .1-.1.2-.1.3 0 .1-.1.2-.1.3 0 .1-.1.2-.1.3 0 .1-.1.2-.1.3 0 .1-.1.2-.1.3 0 .1-.1.2-.1.3 0 .1-.1.2-.1.3 0 .1-.1.2-.1.3 0 .1-.1.2-.1.3 0 .1-.1.2-.1.3 0 .1-.1.2-.1.3 0 .1-.1.2-.1.3 0 .1-.1.2-.1.3 0 .1-.1.2-.1.3 0 .1-.1.2-.1.3 0 .1-.1.2-.1.3 0 .1-.1.2-.1.3 0 .1-.1.2-.1.3 0 .1-.1.2-.1.3 0 .1-.1.2-.1.3 0 .1-.1.2-.1.3 0 .1-.1.2-.1.3 0 .1-.1.2-.1.3 0 .1-.1.2-.1.3 0 .1-.1.2-.1.3 0 .1-.1.2-.1.3 0 .1-.1.2-.1.3 0 .1-.1.2-.1.3 0 .1-.1.2-.1.3 0 .1-.1.2-.1.3 0 .1-.1.2-.1.3 0 .1-.1.2-.1.3 0 .1-.1.2-.1.3 0 .1-.1.2-.1.3 0 .1-.1.2-.1.3 0 .1-.1.2-.1.3 0 .1-.1.2-.1.3 0 .1-.1.2-.1.3 0 .1-.1.2-.1.3 0 .1-.1.2-.1.3 0 .1-.1.2-.1.3 0 .1-.1.2-.1.3 0 .1-.1.2-.1.3 0 .1-.1.2-.1.3 0 .1-.1.2-.1.3 0 .1-.1.2-.1.3 0 .1-.1.2-.1.3C21.1 36 48.8 17.5 82.9 17.5z"/><path d="M52.6 72.9s0 .1 0 0c0 .1 0 0 0 0z" fill="#fff"/><path class="st17" d="M117.8 122l32.7 23.3-.3-.2c0-.1.1-.1.1-.2l-.3-.2c0-.1.1-.1.1-.2l-.3-.2c0-.1.1-.1.1-.2l-.3-.2c0-.1.1-.1.1-.2l-.3-.2c0-.1.1-.1.1-.2l-.3-.2c0-.1.1-.1.1-.2l-.3-.2c0-.1.1-.1.1-.2l-.3-.2c0-.1.1-.1.1-.2l-.3-.2c0-.1.1-.1.1-.2l-.3-.2c0-.1.1-.1.1-.2l-.3-.2c0-.1.1-.1.1-.2l-.3-.2c0-.1.1-.1.1-.2l-.3-.2c0-.1.1-.1.1-.2l-.3-.2c0-.1.1-.1.1-.2l-.3-.2c0-.1.1-.1.1-.2l-.3-.2c0-.1.1-.1.1-.2l-.3-.2c0-.1.1-.1.1-.2l-.3-.2c0-.1.1-.1.1-.2l-.3-.2c0-.1.1-.1.1-.2l-.3-.2c0-.1.1-.1.1-.2l-.3-.2c0-.1.1-.1.1-.2l-.3-.2c0-.1.1-.1.1-.2l-.3-.2c0-.1.1-.1.1-.2l-.3-.2c0-.1.1-.1.1-.2l-.3-.2c0-.1.1-.1.1-.2l-.3-.2c0-.1.1-.1.1-.2l-.3-.2c0-.1.1-.1.1-.2l-.3-.2c0-.1.1-.1.1-.2l-.3-.2c0-.1.1-.1.1-.2l-.3-.2c0-.1.1-.1.1-.2l-.3-.2c0-.1.1-.1.1-.2l-.3-.2c0-.1.1-.1.1-.2l-.3-.2c0-.1.1-.1.1-.2l-.3-.2c0-.1.1-.1.1-.2l-.3-.2c0-.1.1-.1.1-.2l-.3-.2c0-.1.1-.1.1-.2l-.3-.2c0-.1.1-.1.1-.2l-.3-.2c0-.1.1-.1.1-.2l-.3-.2c0-.1.1-.1.1-.2l-.3-.2c0-.1.1-.1.1-.2l-.3-.2c0-.1.1-.1.1-.2l-.3-.2c0-.1.1-.1.1-.2l-.3-.2c0-.1.1-.1.1-.2l-.3-.2c0-.1.1-.1.1-.2l-.3-.2c0-.1.1-.1.1-.2l-.3-.2c0-.1.1-.1.1-.2l-.3-.2c0-.1.1-.1.1-.2l-.3-.2c0-.1.1-.1.1-.2l-.3-.2c0-.1.1-.1.1-.2l-.3-.2c0-.1.1-.1.1-.2l-.3-.2c0-.1.1-.1.1-.2l-.3-.2c0-.1.1-.1.1-.2l-.3-.2c0-.1.1-.1.1-.2l-.3-.2c0-.1.1-.1.1-.2l-.3-.2c0-.1.1-.1.1-.2l-.3-.2c0-.1.1-.1.1-.2l-.3-.2c0-.1.1-.1.1-.2l-.3-.2c0-.1.1-.1.1-.2l-.3-.2c0-.1.1-.1.1-.2l-.3-.2c0-.1.1-.1.1-.2l-.3-.2c0-.1.1-.1.1-.2l-.3-.2c0-.1.1-.1.1-.2l-.3-.2c0-.1.1-.1.1-.2l-.3-.2c0-.1.1-.1.1-.2l-.3-.2c0-.1.1-.1.1-.2l-.3-.2c0-.1.1-.1.1-.2l-.3-.2c0-.1.1-.1.1-.2l-.3-.2c0-.1.1-.1.1-.2l-.3-.2c0-.1.1-.1.1-.2l-.3-.2c0-.1.1-.1.1-.2l-.3-.2c0-.1.1-.1.1-.2l-.3-.2c0-.1.1-.1.1-.2l-.3-.2c0-.1.1-.1.1-.2l-.3-.2c0-.1.1-.1.1-.2l-.3-.2c0-.1.1-.1.1-.2l-.3-.2c0-.1.1-.1.1-.2l-.3-.2c0-.1.1-.1.1-.2l-.3-.2c0-.1.1-.1.1-.2l-.3-.2c0-.1.1-.1.1-.2l-.3-.2c0-.1.1-.1.1-.2l-.3-.2c0-.1.1-.1.1-.2l-.3-.2c0-.1.1-.1.1-.2l-.3-.2c0-.1.1-.1.1-.2l-.3-.2c0-.1.1-.1.1-.2l-.3-.2c0-.1.1-.1.1-.2l-.3-.2c0-.1.1-.1.1-.2l-.3-.2c0-.1.1-.1.1-.2l-.3-.2c0-.1.1-.1.1-.2l-.3-.2c0-.1.1-.1.1-.2l-.3-.2c0-.1.1-.1.1-.2l-.3-.2c0-.1.1-.1.1-.2l-.3-.2c0-.1.1-.1.1-.2l-.3-.2c0-.1.1-.1.1-.2l-.3-.2c0-.1.1-.1.1-.2l-.3-.2c0-.1.1-.1.1-.2l-.3-.2c0-.1.1-.1.1-.2l-.3-.2c0-.1.1-.1.1-.2l-.3-.2c0-.1.1-.1.1-.2l-.3-.2c0-.1.1-.1.1-.2l-.3-.2c0-.1.1-.1.1-.2l-.3-.2c0-.1.1-.1.1-.2l-26.8-19.1"/><path class="st20" d="M110.1 85.4c-7.7 9.3-15.6 15.6-29 15.6-15.3 0-26.8-10.9-29.8-26.1.4-.7.8-1.3 1.2-1.9-4.8 7.1-7.5 16-7.5 25.7v.4c0 23.5 15.5 41.9 37.4 41.9 16.4 0 26-7.6 35.4-19.1"/><path class="st19" d="M117.8 122c-9.4 11.4-19.1 19.1-35.4 19.1-22 0-37.4-18.4-37.4-41.9v-.4c0-9.7 2.8-18.6 7.6-25.7 0 0 0-.1.1-.1 1.3-1.9 2.8-3.7 4.4-5.3.5-.5 1-1 1.6-1.5l.2-.2c.5-.4 1-.9 1.5-1.3l.2-.2c1.2-.9 2.4-1.8 3.7-2.5.1 0 .1-.1.2-.1.6-.3 1.1-.6 1.7-.9.2-.1.3-.2.5-.2.5-.2 1-.5 1.5-.7.2-.1.4-.2.5-.2.5-.2 1.1-.4 1.6-.6.1 0 .3-.1.4-.1.7-.2 1.4-.5 2.1-.7.1 0 .2 0 .3-.1.6-.2 1.2-.3 1.8-.4.2 0 .5-.1.7-.1l1.5-.3c.3 0 .5-.1.8-.1.5-.1 1-.1 1.6-.2.2 0 .5 0 .7-.1.8 0 1.5-.1 2.3-.1 15 0 25.3 7.4 34.3 18.4L149.4 50c-13.9-19-34.5-32.5-66.5-32.5-34.1 0-61.8 18.5-74.7 45.8l-.3.6-1.2 2.7c-.1.2-.2.5-.3.7l-1.2 3c-.1.3-.2.6-.3.8-.4 1-.7 2.1-1 3.1-.1.3-.2.5-.2.8l-.9 3.3c0 .2-.1.4-.1.6-.2 1.1-.4 2.2-.7 3.3 0 .1-.1.3-.1.4-.2 1.2-.4 2.4-.6 3.5 0 .2-.1.4-.1.7C1 88 .9 89.1.8 90.3c0 .2 0 .5-.1.7l-.3 3.6v.5C.3 96.4.3 97.7.3 99v.4c0 46.8 36.1 81.1 80.9 81.1 34.5 0 54.5-15 69.3-35.4L117.8 122z"/></g></g></svg>