<svg id="Layer_2" data-name="Layer 2" xmlns="http://www.w3.org/2000/svg" viewBox="0 0 62.78 63.39">
  <title>detect-icon</title>
  <g>
    <path d="M43.22,42.38v-.78h7.39A11.63,11.63,0,0,0,62.22,30c0-6-4.13-10.61-9.61-10.61h-.39V19c0-4.16-2.26-8.61-8.61-8.61H42.38l-.11-.2a15.31,15.31,0,0,0-13.66-7.8A15.63,15.63,0,0,0,13,18v.39h-.39a11.61,11.61,0,1,0,0,23.22H20v.78H12.61a12.39,12.39,0,0,1-.93-24.74l.54,0,0-.54A16.39,16.39,0,0,1,28.61,1.61a16.16,16.16,0,0,1,14.05,7.7l.18.3h.77c5.4,0,9,3.25,9.36,8.47l0,.52.52,0C59,19.12,63,23.9,63,30A12.4,12.4,0,0,1,50.61,42.38Z" transform="translate(-0.22 -1.61)" style="fill: #489ddc"/>
    <g>
      <path d="M31.61,43a16,16,0,1,1,16-16A16,16,0,0,1,31.61,43Zm0-30a14,14,0,1,0,14,14A14,14,0,0,0,31.61,13Z" transform="translate(-0.22 -1.61)" style="fill: #489ddc"/>
      <path d="M31.61,38a11,11,0,1,1,11-11A11,11,0,0,1,31.61,38Zm0-20a9,9,0,1,0,9,9A9,9,0,0,0,31.61,18Z" transform="translate(-0.22 -1.61)" style="fill: #489ddc"/>
      <path d="M27.61,27h-2a6,6,0,0,1,6-6v2A4,4,0,0,0,27.61,27Z" transform="translate(-0.22 -1.61)" style="fill: #489ddc"/>
      <path d="M31.61,65a5,5,0,0,1-5-5V41h2V60a3,3,0,0,0,6,0V41h2V60A5,5,0,0,1,31.61,65Z" transform="translate(-0.22 -1.61)" style="fill: #489ddc"/>
      <rect x="30.39" y="47.39" width="2" height="2" style="fill: #489ddc"/>
      <rect x="30.39" y="51.39" width="2" height="2" style="fill: #489ddc"/>
      <rect x="30.39" y="55.39" width="2" height="2" style="fill: #489ddc"/>
    </g>
  </g>
</svg>
