<svg xmlns="http://www.w3.org/2000/svg" width="927" height="484" viewBox="0 0 927 484"><defs><linearGradient id="a" x1=".002%" x2="100.002%" y1="50.024%" y2="50.024%"><stop offset=".046%" stop-color="#9BC0E0"/><stop offset="100%" stop-color="#2E8BE0"/></linearGradient></defs><g fill="none" fill-rule="evenodd"><path fill="#FFF" fill-rule="nonzero" d="M417.9 392.9H65.2c-2.8 0-5.1-2.3-5.1-5.1V192.4c0-2.8 2.3-5.1 5.1-5.1H418c2.8 0 5.1 2.3 5.1 5.1v195.5c-.1 2.8-2.4 5-5.2 5z"/><path fill="#F7FAFC" fill-rule="nonzero" d="M463.4 0h443.4v483.7H463.4z"/><path stroke="#1D2737" stroke-width=".83" d="M463.4 483.7V0"/><path stroke="#1D2737" stroke-width=".623" d="M686 483.7V0"/><path stroke="#1D2737" stroke-width=".83" d="M906.9 483.7V0"/><path fill="url(#a)" fill-rule="nonzero" d="M39.5 54.3h847.6v79H39.5z"/><path fill="#2E8BE0" fill-rule="nonzero" d="M443.6 49.2h39.5v89.3h-39.5zM665.3 49.2h39.5v89.3h-39.5z"/><path fill="#D5E8F9" fill-rule="nonzero" opacity=".3" d="M483.1 62.8h182.3v8.5H483.1z"/><path fill="#2E8BE0" fill-rule="nonzero" d="M887.1 49.2h39.5v89.3h-39.5z"/><path fill="#D5E8F9" fill-rule="nonzero" opacity=".3" d="M704.8 62.8h182.3v8.5H704.8z"/><path fill="#2E8BE0" fill-rule="nonzero" d="M0 49.2h39.5v89.3H0zM221.8 49.2h39.5v89.3h-39.5z"/><path fill="#D5E8F9" fill-rule="nonzero" opacity=".3" d="M39.5 62.8h182.3v8.5H39.5zM261.3 62.8h182.3v8.5H261.3z"/><path d="M483.1 81.5h182.3V111H483.1z"/><path fill="#FFF" fill-rule="nonzero" d="M560.195 81.913v2.69h-7.61v19.895h-3.106V84.603h-7.61v-2.69h18.326zm5.796 5.75a7.51 7.51 0 013.397.822c1.097.549 1.933 1.258 2.506 2.13.554.83.923 1.798 1.107 2.905.164.759.246 1.968.246 3.629h-12.069c.052 1.67.446 3.01 1.184 4.02.738 1.01 1.881 1.515 3.429 1.515 1.445 0 2.598-.477 3.46-1.43a4.82 4.82 0 001.045-1.922h2.72c-.07.605-.31 1.279-.714 2.022-.405.743-.858 1.35-1.36 1.822-.841.82-1.882 1.373-3.122 1.66-.666.164-1.42.246-2.26.246-2.05 0-3.787-.746-5.212-2.237-1.424-1.491-2.137-3.58-2.137-6.265 0-2.644.718-4.792 2.153-6.442 1.435-1.65 3.31-2.475 5.627-2.475zm4.412 7.287c-.113-1.199-.374-2.157-.784-2.875-.758-1.332-2.024-1.998-3.797-1.998-1.271 0-2.337.458-3.198 1.376-.861.917-1.317 2.083-1.369 3.497h9.148zm7.887 4.382c.082.922.313 1.63.692 2.122.697.891 1.907 1.337 3.628 1.337 1.025 0 1.927-.223 2.706-.669.78-.445 1.169-1.135 1.169-2.067 0-.708-.313-1.246-.938-1.615-.4-.225-1.189-.487-2.368-.784l-2.198-.553c-1.404-.349-2.44-.738-3.106-1.169-1.189-.748-1.783-1.783-1.783-3.105 0-1.558.56-2.82 1.683-3.783 1.123-.963 2.632-1.445 4.528-1.445 2.48 0 4.269.728 5.366 2.183.686.923 1.02 1.917.999 2.983h-2.614a3.202 3.202 0 00-.66-1.706c-.636-.728-1.738-1.092-3.306-1.092-1.046 0-1.837.2-2.376.6-.538.4-.807.927-.807 1.583 0 .718.354 1.292 1.061 1.722.41.256 1.015.482 1.814.677l1.83.445c1.988.482 3.32.948 3.997 1.4 1.076.707 1.615 1.819 1.615 3.336 0 1.465-.557 2.731-1.669 3.797-1.112 1.066-2.805 1.6-5.08 1.6-2.45 0-4.185-.557-5.205-1.669-1.02-1.112-1.566-2.488-1.638-4.128h2.66zm14.652-15.897h2.798v4.597h2.63v2.26h-2.63v10.747c0 .574.195.958.585 1.153.215.112.573.169 1.076.169.133 0 .276-.003.43-.008a8.26 8.26 0 00.538-.038v2.183a6.178 6.178 0 01-.991.2 9.428 9.428 0 01-1.115.061c-1.291 0-2.168-.33-2.629-.991-.461-.662-.692-1.52-.692-2.576v-10.9h-2.23v-2.26h2.23v-4.597z"/><path d="M704.8 81.5h182.3V111H704.8z"/><path fill="#FFF" fill-rule="nonzero" d="M754.452 101.884c1.035 0 1.886-.107 2.552-.323 1.189-.4 2.162-1.168 2.92-2.306.606-.912 1.041-2.08 1.308-3.505.153-.85.23-1.64.23-2.368 0-2.798-.556-4.97-1.668-6.519-1.112-1.547-2.903-2.321-5.373-2.321h-5.427v17.342h5.458zm-8.533-19.971h9.148c3.105 0 5.514 1.102 7.226 3.305 1.527 1.989 2.29 4.536 2.29 7.642 0 2.398-.45 4.566-1.353 6.503-1.588 3.423-4.32 5.135-8.194 5.135h-9.117V81.913zm29.088 5.75a7.51 7.51 0 013.398.822c1.097.549 1.932 1.259 2.506 2.13.554.83.923 1.799 1.107 2.906.164.758.246 1.968.246 3.628h-12.069c.051 1.67.446 3.01 1.184 4.02.738 1.01 1.88 1.515 3.428 1.515 1.446 0 2.599-.477 3.46-1.43a4.82 4.82 0 001.045-1.922h2.721c-.071.605-.31 1.279-.715 2.022-.404.743-.858 1.35-1.36 1.822-.84.82-1.881 1.373-3.121 1.66-.666.164-1.42.246-2.26.246-2.05 0-3.787-.745-5.212-2.237-1.425-1.491-2.137-3.58-2.137-6.265 0-2.644.717-4.792 2.152-6.442 1.435-1.65 3.31-2.475 5.627-2.475zm4.413 7.287c-.113-1.199-.374-2.157-.784-2.875-.759-1.332-2.025-1.998-3.798-1.998-1.27 0-2.337.458-3.198 1.376-.86.917-1.317 2.083-1.368 3.497h9.148zm13.191 7.688c1.291 0 2.365-.541 3.221-1.622.856-1.082 1.284-2.699 1.284-4.851 0-1.312-.19-2.44-.57-3.382-.717-1.815-2.029-2.722-3.935-2.722-1.917 0-3.229.959-3.936 2.875-.38 1.025-.569 2.327-.569 3.906 0 1.27.19 2.352.57 3.244.717 1.701 2.029 2.552 3.935 2.552zm-7.164-14.53h2.69v2.184c.554-.748 1.158-1.327 1.814-1.737.933-.615 2.03-.923 3.29-.923 1.866 0 3.45.715 4.751 2.145 1.302 1.43 1.953 3.472 1.953 6.127 0 3.587-.938 6.15-2.814 7.687-1.189.974-2.573 1.46-4.151 1.46-1.24 0-2.28-.271-3.121-.814-.492-.308-1.04-.836-1.645-1.584v8.41h-2.767V88.109zm17.803-6.195h2.768v22.585h-2.768V81.913zm13.453 20.802c1.835 0 3.093-.695 3.774-2.084.682-1.389 1.023-2.934 1.023-4.635 0-1.538-.246-2.788-.738-3.751-.78-1.517-2.122-2.276-4.028-2.276-1.692 0-2.922.646-3.69 1.937-.769 1.292-1.153 2.85-1.153 4.674 0 1.753.384 3.213 1.153 4.382.768 1.168 1.988 1.753 3.659 1.753zm.107-15.16c2.122 0 3.916.708 5.381 2.122 1.466 1.414 2.199 3.495 2.199 6.242 0 2.655-.646 4.848-1.937 6.58-1.292 1.733-3.295 2.599-6.012 2.599-2.265 0-4.064-.767-5.396-2.299-1.332-1.532-1.999-3.59-1.999-6.173 0-2.767.702-4.97 2.107-6.61 1.404-1.64 3.29-2.46 5.657-2.46zm21.156.477h3.06a974.173 974.173 0 00-2.6 7.226 358.297 358.297 0 01-2.52 6.918c-1.6 4.203-2.727 6.765-3.383 7.688-.656.922-1.783 1.383-3.382 1.383-.39 0-.69-.015-.9-.046a7.105 7.105 0 01-.776-.169v-2.521c.482.133.83.215 1.045.246.216.03.405.046.57.046.512 0 .888-.085 1.13-.254.24-.169.443-.377.607-.622.05-.082.235-.503.553-1.261.318-.759.548-1.322.692-1.691l-6.088-16.943h3.136l4.412 13.406 4.444-13.406z"/><path d="M39.5 81.5h182.3V111H39.5z"/><path fill="#FFF" fill-rule="nonzero" d="M102.792 81.298c2.86 0 5.079.753 6.657 2.26 1.579 1.507 2.455 3.218 2.63 5.135h-2.983c-.339-1.455-1.012-2.608-2.022-3.46-1.01-.85-2.427-1.275-4.251-1.275-2.224 0-4.02.781-5.389 2.344-1.368 1.563-2.052 3.96-2.052 7.188 0 2.644.617 4.789 1.852 6.434 1.235 1.645 3.078 2.468 5.527 2.468 2.255 0 3.972-.866 5.15-2.599.626-.912 1.092-2.111 1.4-3.597h2.983c-.267 2.378-1.148 4.371-2.645 5.98-1.793 1.938-4.212 2.906-7.257 2.906-2.623 0-4.827-.794-6.61-2.383-2.348-2.101-3.521-5.345-3.521-9.732 0-3.331.881-6.062 2.644-8.194 1.907-2.317 4.536-3.475 7.887-3.475zm19.387 21.417c1.835 0 3.093-.695 3.775-2.084.681-1.389 1.022-2.934 1.022-4.635 0-1.538-.246-2.788-.738-3.751-.779-1.517-2.121-2.276-4.028-2.276-1.691 0-2.921.646-3.69 1.937-.768 1.292-1.153 2.85-1.153 4.674 0 1.753.385 3.213 1.153 4.382.769 1.168 1.989 1.753 3.66 1.753zm.108-15.16c2.122 0 3.915.708 5.381 2.122 1.466 1.414 2.199 3.495 2.199 6.242 0 2.655-.646 4.848-1.938 6.58-1.291 1.733-3.295 2.599-6.011 2.599-2.265 0-4.064-.767-5.396-2.299-1.333-1.532-2-3.59-2-6.173 0-2.767.703-4.97 2.107-6.61 1.404-1.64 3.29-2.46 5.658-2.46zm12.622 8.902c0 1.763.375 3.239 1.123 4.428s1.947 1.783 3.597 1.783c1.282 0 2.335-.55 3.16-1.652.825-1.102 1.238-2.683 1.238-4.743 0-2.081-.426-3.621-1.277-4.62-.85-1-1.9-1.5-3.151-1.5-1.394 0-2.524.534-3.39 1.6-.866 1.066-1.3 2.634-1.3 4.704zm4.167-8.717c1.26 0 2.316.266 3.167.8.492.307 1.05.845 1.676 1.614v-8.318h2.66v22.662h-2.491v-2.29c-.646 1.014-1.41 1.747-2.29 2.198-.882.45-1.892.676-3.03.676-1.834 0-3.423-.771-4.766-2.314-1.342-1.542-2.014-3.595-2.014-6.157 0-2.399.613-4.477 1.838-6.234 1.224-1.758 2.975-2.637 5.25-2.637zm18.45-.077a7.51 7.51 0 013.397.822c1.097.549 1.932 1.259 2.506 2.13.554.83.923 1.799 1.107 2.906.164.758.246 1.968.246 3.628h-12.069c.051 1.67.446 3.01 1.184 4.02.738 1.01 1.88 1.515 3.428 1.515 1.446 0 2.599-.477 3.46-1.43a4.82 4.82 0 001.045-1.922h2.721c-.071.605-.31 1.279-.714 2.022-.405.743-.859 1.35-1.361 1.822-.84.82-1.88 1.373-3.121 1.66-.666.164-1.42.246-2.26.246-2.05 0-3.787-.745-5.212-2.237-1.425-1.491-2.137-3.58-2.137-6.265 0-2.644.717-4.792 2.152-6.442 1.435-1.65 3.31-2.475 5.627-2.475zm4.412 7.287c-.113-1.199-.374-2.157-.784-2.875-.759-1.332-2.025-1.998-3.798-1.998-1.27 0-2.337.458-3.198 1.376-.86.917-1.317 2.083-1.368 3.497h9.148z"/><path d="M261.3 81.5h182.3V111H261.3z"/><path fill="#FFF" fill-rule="nonzero" d="M324.502 91.46c1.292 0 2.296-.179 3.014-.538 1.127-.563 1.69-1.578 1.69-3.044 0-1.476-.599-2.47-1.798-2.982-.677-.287-1.681-.43-3.014-.43h-5.457v6.994h5.565zm1.03 10.424c1.876 0 3.213-.543 4.013-1.63.502-.686.753-1.516.753-2.49 0-1.64-.733-2.757-2.198-3.352-.78-.317-1.81-.476-3.09-.476h-6.073v7.948h6.595zm-9.593-19.971h9.7c2.645 0 4.526.79 5.643 2.368.656.932.984 2.009.984 3.228 0 1.425-.405 2.593-1.214 3.506-.42.481-1.025.922-1.815 1.322 1.159.44 2.025.938 2.599 1.491 1.014.984 1.522 2.342 1.522 4.074 0 1.456-.456 2.773-1.369 3.952-1.363 1.763-3.53 2.644-6.503 2.644h-9.547V81.913zm23.476 6.119v10.931c0 .84.134 1.527.4 2.06.492.984 1.41 1.476 2.752 1.476 1.927 0 3.239-.86 3.936-2.583.38-.922.569-2.188.569-3.797v-8.087h2.767v16.466h-2.613l.03-2.43a5.582 5.582 0 01-1.337 1.584c-1.056.861-2.337 1.292-3.844 1.292-2.347 0-3.946-.784-4.797-2.352-.46-.84-.692-1.963-.692-3.367V88.032h2.83zm14.744.077h2.814v16.389h-2.814v-16.39zm0-6.196h2.814v3.136h-2.814v-3.136zm7.073 0h2.767v22.585h-2.767V81.913zm8.67 14.544c0 1.763.375 3.239 1.123 4.428s1.948 1.783 3.598 1.783c1.281 0 2.334-.55 3.16-1.652.824-1.102 1.237-2.683 1.237-4.743 0-2.081-.425-3.621-1.276-4.62-.85-1-1.901-1.5-3.152-1.5-1.394 0-2.524.534-3.39 1.6-.866 1.066-1.3 2.634-1.3 4.704zm4.167-8.717c1.261 0 2.317.266 3.168.8.492.307 1.05.845 1.675 1.614v-8.318h2.66v22.662h-2.49v-2.29c-.646 1.014-1.41 1.747-2.291 2.198-.882.45-1.891.676-3.03.676-1.834 0-3.422-.771-4.765-2.314-1.343-1.542-2.014-3.595-2.014-6.157 0-2.399.612-4.477 1.837-6.234 1.225-1.758 2.975-2.637 5.25-2.637z"/><path d="M533.84 239.918l-2.873-8.36-3.052 8.36h5.925zm-4.212-11.168h2.898l6.866 18.923h-2.808l-1.92-5.668h-7.484l-2.048 5.668h-2.628l7.124-18.923zm13.164 14.595c.07.773.262 1.365.58 1.778.584.747 1.597 1.12 3.04 1.12.859 0 1.615-.187 2.267-.56.653-.374.98-.951.98-1.733 0-.592-.263-1.043-.787-1.352-.334-.19-.996-.408-1.983-.657l-1.842-.464c-1.177-.292-2.044-.618-2.602-.979-.996-.627-1.495-1.494-1.495-2.602 0-1.305.47-2.361 1.411-3.169.94-.807 2.205-1.21 3.794-1.21 2.078 0 3.576.61 4.495 1.829.575.772.855 1.605.837 2.499h-2.19c-.042-.524-.227-1-.553-1.43-.533-.61-1.456-.915-2.77-.915-.876 0-1.54.168-1.99.503-.45.334-.676.777-.676 1.326 0 .601.296 1.082.889 1.443.343.215.85.404 1.52.567l1.532.373c1.666.404 2.783.795 3.35 1.173.901.592 1.352 1.524 1.352 2.795 0 1.228-.466 2.288-1.398 3.181-.931.894-2.35 1.34-4.257 1.34-2.052 0-3.506-.466-4.36-1.397-.855-.932-1.312-2.085-1.372-3.46h2.228zm13.19 0c.07.773.263 1.365.58 1.778.585.747 1.598 1.12 3.04 1.12.86 0 1.615-.187 2.268-.56.652-.374.979-.951.979-1.733 0-.592-.262-1.043-.786-1.352-.335-.19-.996-.408-1.984-.657l-1.842-.464c-1.176-.292-2.044-.618-2.602-.979-.996-.627-1.494-1.494-1.494-2.602 0-1.305.47-2.361 1.41-3.169.94-.807 2.205-1.21 3.794-1.21 2.078 0 3.577.61 4.496 1.829.575.772.854 1.605.837 2.499h-2.19c-.043-.524-.228-1-.554-1.43-.532-.61-1.455-.915-2.77-.915-.875 0-1.539.168-1.99.503-.45.334-.676.777-.676 1.326 0 .601.296 1.082.889 1.443.343.215.85.404 1.52.567l1.533.373c1.666.404 2.782.795 3.349 1.173.902.592 1.353 1.524 1.353 2.795 0 1.228-.466 2.288-1.398 3.181-.932.894-2.35 1.34-4.257 1.34-2.053 0-3.506-.466-4.36-1.397-.855-.932-1.312-2.085-1.373-3.46h2.229zm17.558-9.777c.98 0 1.928.23 2.847.69.919.459 1.619 1.053 2.1 1.783.463.696.772 1.507.927 2.435.137.635.206 1.649.206 3.04h-10.112c.043 1.4.374 2.522.992 3.368.618.846 1.576 1.269 2.873 1.269 1.21 0 2.177-.4 2.898-1.198.412-.464.704-1 .876-1.61h2.28c-.06.507-.26 1.071-.6 1.694-.338.622-.718 1.131-1.14 1.526-.703.687-1.575 1.15-2.614 1.391a7.944 7.944 0 01-1.894.206c-1.717 0-3.173-.624-4.366-1.874-1.194-1.25-1.79-2.999-1.79-5.249 0-2.215.6-4.015 1.803-5.397 1.202-1.383 2.773-2.074 4.714-2.074zm3.697 6.106c-.094-1.005-.313-1.808-.657-2.41-.635-1.115-1.696-1.674-3.182-1.674-1.064 0-1.958.385-2.679 1.153-.721.769-1.103 1.746-1.146 2.93h7.664zm6.608 3.67c.069.774.262 1.366.58 1.779.584.747 1.597 1.12 3.04 1.12.859 0 1.614-.187 2.267-.56.653-.374.979-.951.979-1.733 0-.592-.262-1.043-.786-1.352-.335-.19-.996-.408-1.984-.657l-1.842-.464c-1.176-.292-2.043-.618-2.602-.979-.996-.627-1.494-1.494-1.494-2.602 0-1.305.47-2.361 1.41-3.169.941-.807 2.206-1.21 3.794-1.21 2.078 0 3.577.61 4.496 1.829.575.772.854 1.605.837 2.499h-2.19c-.043-.524-.227-1-.554-1.43-.532-.61-1.455-.915-2.77-.915-.875 0-1.538.168-1.99.503-.45.334-.676.777-.676 1.326 0 .601.297 1.082.89 1.443.343.215.85.404 1.52.567l1.532.373c1.666.404 2.782.795 3.35 1.173.9.592 1.352 1.524 1.352 2.795 0 1.228-.466 2.288-1.398 3.181-.932.894-2.35 1.34-4.257 1.34-2.053 0-3.506-.466-4.36-1.397-.855-.932-1.312-2.085-1.372-3.46h2.228zm13.19 0c.07.774.263 1.366.58 1.779.584.747 1.598 1.12 3.04 1.12.859 0 1.615-.187 2.267-.56.653-.374.98-.951.98-1.733 0-.592-.263-1.043-.786-1.352-.335-.19-.997-.408-1.984-.657l-1.842-.464c-1.177-.292-2.044-.618-2.602-.979-.996-.627-1.494-1.494-1.494-2.602 0-1.305.47-2.361 1.41-3.169.94-.807 2.205-1.21 3.794-1.21 2.078 0 3.576.61 4.495 1.829.576.772.855 1.605.838 2.499h-2.19c-.043-.524-.228-1-.554-1.43-.533-.61-1.456-.915-2.77-.915-.876 0-1.539.168-1.99.503-.45.334-.676.777-.676 1.326 0 .601.296 1.082.889 1.443.343.215.85.404 1.52.567l1.533.373c1.666.404 2.782.795 3.349 1.173.901.592 1.352 1.524 1.352 2.795 0 1.228-.466 2.288-1.397 3.181-.932.894-2.351 1.34-4.258 1.34-2.052 0-3.506-.466-4.36-1.397-.854-.932-1.312-2.085-1.372-3.46h2.229zm-64.11 25.775c1.203 0 2.154-.24 2.854-.72.7-.482 1.05-1.35 1.05-2.603 0-1.348-.49-2.267-1.469-2.756-.524-.258-1.224-.387-2.1-.387H527v6.466h5.925zm-8.488-8.669h8.759c1.443 0 2.632.21 3.568.632 1.778.807 2.666 2.297 2.666 4.47 0 1.133-.234 2.06-.702 2.782-.468.721-1.122 1.3-1.964 1.739.739.3 1.295.695 1.668 1.185.374.49.582 1.284.625 2.383l.09 2.537c.026.722.086 1.259.18 1.61.155.602.43.988.825 1.16v.425h-3.143a2.364 2.364 0 01-.206-.631c-.052-.258-.095-.756-.13-1.494l-.154-3.156c-.06-1.237-.52-2.066-1.378-2.486-.49-.232-1.258-.348-2.306-.348H527v8.115h-2.563V260.45zm24.178 4.818c.979 0 1.928.23 2.847.69.918.459 1.618 1.053 2.1 1.783.463.696.772 1.507.927 2.435.137.635.206 1.649.206 3.04h-10.112c.043 1.4.374 2.522.992 3.368.618.846 1.576 1.269 2.872 1.269 1.211 0 2.177-.4 2.899-1.198.412-.464.704-1 .876-1.61h2.28c-.06.507-.26 1.071-.6 1.694-.339.622-.719 1.131-1.14 1.526-.704.687-1.575 1.15-2.614 1.391a7.944 7.944 0 01-1.894.206c-1.717 0-3.173-.624-4.367-1.874-1.193-1.25-1.79-2.999-1.79-5.249 0-2.215.601-4.015 1.803-5.397 1.203-1.383 2.774-2.074 4.715-2.074zm3.697 6.106c-.095-1.005-.314-1.808-.657-2.41-.636-1.115-1.696-1.674-3.182-1.674-1.065 0-1.958.385-2.68 1.153-.72.769-1.103 1.746-1.146 2.93h7.665zm5.23-5.797h2.292v1.958c.55-.678 1.048-1.172 1.495-1.481.764-.524 1.631-.786 2.602-.786 1.099 0 1.983.27 2.653.811.378.31.722.765 1.03 1.366.516-.739 1.121-1.286 1.817-1.642.696-.357 1.477-.535 2.344-.535 1.855 0 3.118.67 3.788 2.01.36.72.54 1.691.54 2.91v9.185h-2.408v-9.584c0-.919-.23-1.55-.69-1.893-.459-.344-1.02-.515-1.68-.515-.91 0-1.694.304-2.351.914-.657.61-.986 1.627-.986 3.053v8.025h-2.357v-9.004c0-.936-.112-1.619-.335-2.048-.352-.644-1.009-.966-1.97-.966-.877 0-1.673.339-2.39 1.017-.717.679-1.076 1.907-1.076 3.684v7.317h-2.318v-13.796zm27.72-.309c.98 0 1.928.23 2.847.69.919.459 1.619 1.053 2.1 1.783.463.696.772 1.507.927 2.435.137.635.206 1.649.206 3.04H581.23c.043 1.4.374 2.522.992 3.368.618.846 1.576 1.269 2.873 1.269 1.21 0 2.177-.4 2.898-1.198.412-.464.704-1 .876-1.61h2.28c-.06.507-.26 1.071-.6 1.694-.338.622-.718 1.131-1.14 1.526-.703.687-1.575 1.15-2.614 1.391a7.944 7.944 0 01-1.894.206c-1.717 0-3.173-.624-4.366-1.874-1.194-1.25-1.79-2.999-1.79-5.249 0-2.215.6-4.015 1.803-5.397 1.202-1.383 2.773-2.074 4.714-2.074zm3.697 6.106c-.094-1.005-.313-1.808-.657-2.41-.635-1.115-1.696-1.674-3.182-1.674-1.064 0-1.958.385-2.679 1.153-.721.769-1.103 1.746-1.146 2.93h7.664zm6.698 1.262c0 1.477.314 2.714.94 3.71.628.996 1.632 1.494 3.015 1.494 1.073 0 1.956-.461 2.647-1.385.691-.923 1.037-2.247 1.037-3.973 0-1.744-.356-3.034-1.07-3.871-.712-.838-1.592-1.256-2.64-1.256-1.168 0-2.115.446-2.84 1.34-.726.893-1.089 2.206-1.089 3.941zm3.491-7.304c1.056 0 1.94.224 2.654.67.412.258.88.709 1.404 1.353v-6.969h2.228v18.987h-2.087v-1.92c-.54.85-1.18 1.465-1.919 1.843-.738.378-1.584.566-2.537.566-1.538 0-2.869-.646-3.994-1.938-1.125-1.293-1.687-3.012-1.687-5.16 0-2.009.513-3.75 1.54-5.222 1.025-1.473 2.492-2.21 4.398-2.21zm9.713.31h2.357v13.731h-2.357v-13.731zm0-5.192h2.357v2.628h-2.357v-2.628zm7.638 15.252c0 .67.245 1.198.735 1.584.489.387 1.069.58 1.738.58.816 0 1.606-.189 2.37-.567 1.289-.627 1.933-1.653 1.933-3.079v-1.867c-.284.18-.649.33-1.095.45a9.33 9.33 0 01-1.314.258l-1.404.18c-.842.112-1.473.288-1.894.529-.712.403-1.069 1.047-1.069 1.932zm5.617-4.689c.532-.069.888-.292 1.069-.67.103-.206.154-.502.154-.889 0-.79-.281-1.363-.843-1.72-.563-.356-1.368-.534-2.416-.534-1.21 0-2.07.326-2.576.98-.283.36-.468.897-.554 1.61h-2.164c.043-1.701.595-2.884 1.655-3.55 1.06-.665 2.291-.998 3.69-.998 1.624 0 2.942.31 3.955.928 1.005.618 1.507 1.58 1.507 2.885v7.948c0 .24.05.434.149.58.098.145.307.218.624.218.103 0 .22-.006.348-.019.129-.013.266-.032.412-.058v1.713c-.36.103-.635.168-.824.194a6.025 6.025 0 01-.773.038c-.799 0-1.378-.283-1.739-.85-.189-.3-.322-.726-.4-1.275-.472.618-1.15 1.155-2.034 1.61-.885.455-1.86.683-2.925.683-1.28 0-2.325-.389-3.136-1.166-.812-.777-1.217-1.75-1.217-2.918 0-1.28.399-2.271 1.198-2.975.798-.704 1.846-1.138 3.143-1.301l3.697-.464zm7.741-9.287h2.345v3.851h2.202v1.894h-2.202v9.004c0 .48.163.803.49.966.18.094.48.141.9.141a6.922 6.922 0 00.812-.039v1.83a5.176 5.176 0 01-.83.167 7.9 7.9 0 01-.934.052c-1.082 0-1.817-.277-2.203-.83-.387-.555-.58-1.274-.58-2.158v-9.133h-1.868v-1.894h1.868v-3.851zm12.611 3.542c.979 0 1.928.23 2.847.69.919.459 1.618 1.053 2.1 1.783.463.696.772 1.507.927 2.435.137.635.206 1.649.206 3.04h-10.112c.043 1.4.374 2.522.992 3.368.618.846 1.576 1.269 2.873 1.269 1.21 0 2.176-.4 2.898-1.198.412-.464.704-1 .876-1.61h2.28c-.06.507-.26 1.071-.6 1.694-.338.622-.718 1.131-1.14 1.526-.703.687-1.575 1.15-2.614 1.391a7.944 7.944 0 01-1.894.206c-1.717 0-3.173-.624-4.366-1.874-1.194-1.25-1.791-2.999-1.791-5.249 0-2.215.601-4.015 1.803-5.397 1.203-1.383 2.774-2.074 4.715-2.074zm3.697 6.106c-.095-1.005-.314-1.808-.657-2.41-.636-1.115-1.696-1.674-3.182-1.674-1.065 0-1.958.385-2.679 1.153-.721.769-1.104 1.746-1.146 2.93h7.664zM524.192 292.05h2.589v7.82h9.841v-7.82h2.59v18.923h-2.59v-8.85h-9.841v8.85h-2.59V292.05zm20.455 15.252c0 .67.245 1.198.735 1.584.49.387 1.069.58 1.739.58.815 0 1.605-.189 2.37-.567 1.288-.627 1.932-1.653 1.932-3.079v-1.867c-.283.18-.648.33-1.095.45a9.33 9.33 0 01-1.314.258l-1.404.18c-.841.112-1.473.288-1.893.529-.713.403-1.07 1.047-1.07 1.932zm5.617-4.689c.532-.069.888-.292 1.069-.67.103-.206.154-.502.154-.889 0-.79-.28-1.363-.843-1.72-.563-.356-1.368-.534-2.416-.534-1.21 0-2.07.326-2.576.98-.283.36-.468.897-.554 1.61h-2.164c.043-1.701.595-2.884 1.655-3.55 1.061-.665 2.291-.998 3.69-.998 1.624 0 2.942.31 3.955.928 1.005.618 1.508 1.58 1.508 2.885v7.948c0 .24.049.434.148.58.098.145.307.218.624.218.104 0 .22-.006.348-.019.13-.013.266-.032.412-.058v1.713c-.36.103-.635.168-.824.194a6.025 6.025 0 01-.773.038c-.798 0-1.378-.283-1.739-.85-.189-.3-.322-.726-.4-1.275-.471.618-1.15 1.155-2.034 1.61-.885.455-1.86.683-2.924.683-1.28 0-2.325-.389-3.137-1.166-.812-.777-1.217-1.75-1.217-2.918 0-1.28.399-2.271 1.198-2.975.798-.704 1.846-1.138 3.143-1.301l3.697-.464zm7.342-5.436h2.203v2.383c.18-.464.622-1.028 1.326-1.694.705-.665 1.516-.998 2.435-.998.043 0 .116.004.219.013.103.008.28.026.528.051v2.448a3.463 3.463 0 00-.38-.052 5.169 5.169 0 00-.38-.013c-1.168 0-2.065.376-2.692 1.128a3.934 3.934 0 00-.94 2.595v7.935h-2.319v-13.796zm10.19 7.06c0 1.476.313 2.713.94 3.709.626.996 1.631 1.494 3.014 1.494 1.073 0 1.955-.461 2.647-1.385.691-.923 1.037-2.247 1.037-3.973 0-1.744-.357-3.034-1.07-3.871-.712-.838-1.592-1.256-2.64-1.256-1.168 0-2.115.446-2.84 1.34-.726.893-1.089 2.206-1.089 3.941zm3.49-7.305c1.056 0 1.94.224 2.653.67.413.258.88.709 1.405 1.353v-6.969h2.228v18.987h-2.087v-1.92c-.54.85-1.18 1.465-1.92 1.843-.738.378-1.583.566-2.537.566-1.537 0-2.868-.646-3.993-1.938-1.125-1.293-1.687-3.012-1.687-5.16 0-2.009.513-3.75 1.539-5.222 1.026-1.473 2.492-2.21 4.399-2.21zm15.457-.064c.98 0 1.928.23 2.847.69.92.459 1.619 1.053 2.1 1.783.464.696.773 1.507.927 2.435.138.635.206 1.649.206 3.04h-10.111c.043 1.4.373 2.522.991 3.368.619.846 1.576 1.269 2.873 1.269 1.21 0 2.177-.4 2.898-1.198.413-.464.704-1 .876-1.61h2.28c-.06.507-.26 1.071-.599 1.694-.339.622-.719 1.131-1.14 1.526-.704.687-1.576 1.15-2.615 1.391a7.944 7.944 0 01-1.893.206c-1.718 0-3.173-.624-4.367-1.874s-1.79-2.999-1.79-5.249c0-2.215.6-4.015 1.803-5.397 1.202-1.383 2.774-2.074 4.714-2.074zm3.697 6.106c-.094-1.005-.313-1.808-.657-2.41-.635-1.115-1.696-1.674-3.181-1.674-1.065 0-1.958.385-2.68 1.153-.72.769-1.103 1.746-1.146 2.93h7.664zm5.23-5.797h2.203v1.958c.653-.807 1.344-1.387 2.074-1.739.73-.352 1.541-.528 2.434-.528 1.958 0 3.28.683 3.968 2.048.378.747.567 1.816.567 3.208v8.849h-2.358v-8.695c0-.841-.124-1.52-.373-2.035-.412-.859-1.16-1.288-2.242-1.288-.55 0-1 .056-1.352.167-.636.19-1.194.567-1.675 1.134-.386.455-.637.925-.753 1.41-.116.485-.174 1.179-.174 2.08v7.227h-2.319v-13.796zM747.871 228.75h3.671l5.436 15.999 5.397-15.999h3.633v18.923h-2.435v-11.168c0-.387.009-1.026.026-1.92.017-.893.026-1.85.026-2.872l-5.397 15.96h-2.538l-5.436-15.96v.58c0 .463.01 1.17.032 2.119.022.949.033 1.646.033 2.093v11.168h-2.448V228.75zm27.205 17.429c1.538 0 2.592-.582 3.163-1.746.57-1.163.856-2.458.856-3.883 0-1.288-.206-2.336-.618-3.143-.653-1.271-1.778-1.907-3.375-1.907-1.417 0-2.447.541-3.091 1.623-.644 1.082-.966 2.388-.966 3.916 0 1.469.322 2.692.966 3.671.644.98 1.666 1.469 3.065 1.469zm.09-12.701c1.778 0 3.281.592 4.509 1.777 1.228 1.186 1.842 2.929 1.842 5.23 0 2.224-.541 4.062-1.623 5.513-1.082 1.452-2.76 2.177-5.037 2.177-1.897 0-3.405-.642-4.52-1.925-1.117-1.284-1.676-3.008-1.676-5.172 0-2.319.589-4.165 1.765-5.54 1.177-1.373 2.757-2.06 4.74-2.06zm9.108.4h2.202v1.957c.653-.807 1.344-1.387 2.074-1.739.73-.352 1.542-.528 2.435-.528 1.958 0 3.28.683 3.967 2.048.378.747.567 1.816.567 3.208v8.849h-2.357v-8.695c0-.841-.125-1.52-.374-2.035-.412-.859-1.16-1.288-2.241-1.288-.55 0-1 .056-1.353.167-.635.19-1.193.567-1.674 1.134-.387.455-.638.925-.754 1.41-.116.485-.174 1.179-.174 2.08v7.227h-2.318v-13.796zm14.671.064h2.358v13.731h-2.358v-13.731zm0-5.192h2.358v2.628h-2.358v-2.628zm6.325 1.276h2.345v3.851h2.202v1.894h-2.202v9.004c0 .48.163.803.489.966.18.094.48.141.902.141a6.922 6.922 0 00.812-.039v1.83a5.176 5.176 0 01-.832.167 7.9 7.9 0 01-.933.052c-1.083 0-1.817-.277-2.203-.83-.387-.555-.58-1.274-.58-2.158v-9.133h-1.868v-1.894h1.868v-3.851zm12.34 16.153c1.538 0 2.592-.582 3.163-1.746.57-1.163.856-2.458.856-3.883 0-1.288-.206-2.336-.618-3.143-.653-1.271-1.778-1.907-3.375-1.907-1.417 0-2.447.541-3.091 1.623-.644 1.082-.966 2.388-.966 3.916 0 1.469.322 2.692.966 3.671.644.98 1.666 1.469 3.065 1.469zm.09-12.701c1.778 0 3.281.592 4.51 1.777 1.227 1.186 1.841 2.929 1.841 5.23 0 2.224-.54 4.062-1.623 5.513-1.082 1.452-2.76 2.177-5.037 2.177-1.897 0-3.405-.642-4.52-1.925-1.117-1.284-1.675-3.008-1.675-5.172 0-2.319.588-4.165 1.764-5.54 1.177-1.373 2.757-2.06 4.74-2.06zm9.172.4h2.203v2.382c.18-.464.622-1.028 1.327-1.694.704-.665 1.515-.998 2.434-.998.043 0 .116.004.22.013.102.008.278.026.527.051v2.448a3.463 3.463 0 00-.38-.052 5.169 5.169 0 00-.38-.013c-1.168 0-2.065.376-2.692 1.128a3.934 3.934 0 00-.94 2.595v7.935h-2.319v-13.796zM748.18 260.45h8.515c1.683 0 3.04.475 4.07 1.424 1.03.949 1.546 2.282 1.546 4 0 1.476-.46 2.762-1.378 3.857-.92 1.095-2.332 1.643-4.238 1.643h-5.951v7.999h-2.564V260.45zm11.542 5.436c0-1.39-.515-2.336-1.546-2.834-.567-.266-1.344-.399-2.331-.399h-5.101v6.557h5.1c1.151 0 2.085-.245 2.802-.735.717-.49 1.076-1.352 1.076-2.589zm5.565-.309h2.202v2.383c.18-.464.623-1.028 1.327-1.694.704-.665 1.516-.998 2.435-.998.043 0 .116.004.219.013.103.008.279.026.528.051v2.448a3.463 3.463 0 00-.38-.052 5.169 5.169 0 00-.38-.013c-1.168 0-2.066.376-2.692 1.128a3.934 3.934 0 00-.94 2.595v7.935h-2.32v-13.796zm14.195 12.302c1.537 0 2.591-.582 3.162-1.746.571-1.163.857-2.458.857-3.883 0-1.288-.206-2.336-.619-3.143-.652-1.271-1.777-1.907-3.374-1.907-1.417 0-2.448.541-3.092 1.623-.644 1.082-.966 2.388-.966 3.916 0 1.469.322 2.692.966 3.671.644.98 1.666 1.469 3.066 1.469zm.09-12.701c1.778 0 3.28.592 4.508 1.777 1.228 1.186 1.842 2.929 1.842 5.23 0 2.224-.54 4.062-1.623 5.513-1.082 1.452-2.76 2.177-5.036 2.177-1.898 0-3.405-.642-4.522-1.925-1.116-1.284-1.674-3.008-1.674-5.172 0-2.319.588-4.165 1.765-5.54 1.176-1.373 2.756-2.06 4.74-2.06zm9.57-3.452h2.345v3.851h2.203v1.894h-2.203v9.004c0 .48.163.803.49.966.18.094.48.141.901.141a6.922 6.922 0 00.812-.039v1.83a5.176 5.176 0 01-.831.167 7.9 7.9 0 01-.934.052c-1.082 0-1.816-.277-2.203-.83-.386-.555-.58-1.274-.58-2.158v-9.133h-1.867v-1.894h1.868v-3.851zm12.612 3.542c.979 0 1.927.23 2.846.69.92.459 1.62 1.053 2.1 1.783.464.696.773 1.507.927 2.435.138.635.207 1.649.207 3.04h-10.112c.043 1.4.373 2.522.992 3.368.618.846 1.575 1.269 2.872 1.269 1.21 0 2.177-.4 2.898-1.198.413-.464.705-1 .876-1.61h2.28c-.06.507-.26 1.071-.599 1.694-.339.622-.719 1.131-1.14 1.526-.704.687-1.575 1.15-2.615 1.391a7.944 7.944 0 01-1.893.206c-1.718 0-3.173-.624-4.367-1.874s-1.79-2.999-1.79-5.249c0-2.215.6-4.015 1.803-5.397 1.202-1.383 2.774-2.074 4.715-2.074zm3.696 6.106c-.094-1.005-.313-1.808-.656-2.41-.636-1.115-1.696-1.674-3.182-1.674-1.065 0-1.958.385-2.68 1.153-.72.769-1.103 1.746-1.146 2.93h7.664zm10.55-6.196c1.555 0 2.82.378 3.794 1.133.974.756 1.56 2.057 1.758 3.903h-2.254c-.138-.85-.451-1.556-.94-2.119-.49-.562-1.276-.843-2.358-.843-1.477 0-2.533.721-3.169 2.164-.412.936-.618 2.09-.618 3.465 0 1.382.292 2.546.876 3.49.584.945 1.503 1.418 2.757 1.418.961 0 1.724-.295 2.286-.883.563-.588.951-1.393 1.166-2.415h2.254c-.258 1.83-.902 3.167-1.932 4.013-1.03.845-2.349 1.268-3.955 1.268-1.803 0-3.241-.659-4.315-1.977-1.073-1.318-1.61-2.965-1.61-4.94 0-2.422.588-4.307 1.765-5.655 1.176-1.348 2.675-2.022 4.495-2.022zm8.334-3.452h2.345v3.851h2.203v1.894h-2.203v9.004c0 .48.163.803.49.966.18.094.48.141.901.141a6.922 6.922 0 00.812-.039v1.83a5.176 5.176 0 01-.831.167 7.9 7.9 0 01-.934.052c-1.082 0-1.816-.277-2.203-.83-.386-.555-.58-1.274-.58-2.158v-9.133h-1.867v-1.894h1.867v-3.851z" fill="#262626" fill-rule="nonzero"/><g fill-rule="nonzero"><path fill="#CADDEB" d="M642.5 194l43.5-21.8 43.6 21.8-43.6 21.9z"/><path fill="#9ABFDE" d="M642.5 194v2.3L686 218l43.6-21.7V194L686 215.9z"/><path fill="#CADDEB" d="M642.5 188.3l43.5-21.8 43.6 21.8-43.6 22z"/><path fill="#9ABFDE" d="M642.5 188.3v2.3l43.5 21.7 43.6-21.7v-2.3l-43.6 22z"/><path fill="#CADDEB" d="M642.5 183.1l43.5-21.8 43.6 21.8-43.6 22z"/><path fill="#9ABFDE" d="M642.5 183.1v2.3l43.5 21.7 43.6-21.7v-2.3l-43.6 22z"/><path fill="#BB2326" d="M686 192.5v2.1s9.2-2.2 13.2-6.1c0 0 1.5-1.4 1.9-2.9 0 0 .6-2 .4-4.7 0 0-.5 4.2-3.5 6.2.1.1-3.6 3.2-12 5.4z"/><path fill="#A52122" d="M686 192.5v2.1s-9.2-2.2-13.2-6.1c0 0-1.5-1.4-1.9-2.9 0 0-.6-2-.4-4.7 0 0 .5 4.2 3.5 6.2 0 .1 3.7 3.2 12 5.4z"/><g><path fill="#EC3027" d="M686 174c10.4 0 15.2 2.7 15.2 2.7s.9 4.7-.2 7.3c0 0-1.4 4.8-15.1 8.5-13.7-3.8-15.1-8.5-15.1-8.5-1-2.6-.2-7.3-.2-7.3s5-2.7 15.4-2.7z"/><path fill="#F6F9FB" d="M688.5 185.6s1.6.5 4.5.6c0 0 2.4-.8 3.5-2.4 0 0 1.9-2.1-.4-4.4 0 0-1.4-1.7-5.1-2.6 0 0-2.4-.7-6.1-.6 0 0-3.6.1-6.3 1.3 0 0-4 1.4-4 4.3 0 0-.1 1.7 1.6 3.1 0 0 1.8 1.6 5.5 2.7 0 0 1.6.5 4.2.9 0 0 2.9.4 4.7.6 0 0 1.9-.6 3.4-1.6 0 0-3.9-.3-6.3-.6 0 0-3.4-.5-5.6-1.3 0 0-2.8-.9-3.6-2.6 0 0-1.3-2.3 2.3-3.9 0 0 2-1 5.1-1 0 0 2.9-.2 5.4 1.1 0 0 2.2 1 2.2 2.7.1 0 .3 2.1-5 3.7z"/></g></g><path stroke="#4187C7" stroke-width="1.418" d="M872.6 387.6c-11.4 2.3-22.9 2.3-34.3 0-2.3-.5-4.8-2.9-5.2-5.2-2.3-11.4-2.3-22.9 0-34.3.5-2.3 2.9-4.8 5.2-5.2 11.4-2.3 22.9-2.3 34.3 0 2.3.5 4.8 2.9 5.2 5.2 2.3 11.4 2.3 22.9 0 34.3-.4 2.3-2.9 4.7-5.2 5.2"/><g fill="#4187C7" fill-rule="nonzero"><path d="M840.5 359.4h2.8v12.9h-2.8zM851.6 359.1c3.8 0 6.3 2.5 6.3 6.7s-2.5 6.7-6.3 6.7-6.3-2.5-6.3-6.7 2.6-6.7 6.3-6.7zm0 11.1c2.3 0 3.4-1.8 3.4-4.4 0-2.6-1.1-4.4-3.4-4.4s-3.4 1.8-3.4 4.4c0 2.6 1.1 4.4 3.4 4.4zm14.2-11.1c2.7 0 4.7 1.2 5.5 3.7l-2.7.9c-.4-1.4-1.3-2.3-2.8-2.3-2.3 0-3.4 1.8-3.4 4.4 0 2.5 1.1 4.4 3.4 4.4 1.4 0 2.3-.7 2.8-2.2l2.7.9c-.8 2.2-2.6 3.5-5.5 3.5-3.8 0-6.2-2.5-6.2-6.7-.1-4.1 2.3-6.6 6.2-6.6z"/></g><path stroke="#4187C7" stroke-width="1.418" d="M754.6 387.6c-11.4 2.3-22.9 2.3-34.3 0-2.3-.5-4.8-2.9-5.2-5.2-2.3-11.4-2.3-22.9 0-34.3.5-2.3 2.9-4.8 5.2-5.2 11.4-2.3 22.9-2.3 34.3 0 2.3.5 4.8 2.9 5.2 5.2 2.3 11.4 2.3 22.9 0 34.3-.5 2.3-2.9 4.7-5.2 5.2"/><g fill="#4187C7" fill-rule="nonzero"><path d="M734.1 359.4l-3.2 12.9h-3.2s-1.4-6.2-1.9-8.6h-.1c-.5 2.3-2 8.6-2 8.6h-3.2l-3.2-12.9h2.8s1.7 7.3 2.1 9.6h.1c.5-2.4 2.2-9.6 2.2-9.6h2.6s1.8 7.3 2.2 9.6h.1c.5-2.4 2.2-9.6 2.2-9.6h2.5zm12.8 12.9H744l-1-3h-4.6l-1 3h-2.7l4.6-12.9h3l4.6 12.9zm-6.2-9.9c-.2.8-1.5 4.7-1.5 4.7h3.1c-.1 0-1.4-3.9-1.6-4.7zM748.5 372.3v-12.9h8.8v2.3h-6.1v2.8h5.6v2.3h-5.6v5.5h-2.7z"/></g><path stroke="#4187C7" stroke-width="1.418" d="M813.6 387.6c-11.4 2.3-22.9 2.3-34.3 0-2.3-.5-4.8-2.9-5.2-5.2-2.3-11.4-2.3-22.9 0-34.3.5-2.3 2.9-4.8 5.2-5.2 11.4-2.3 22.9-2.3 34.3 0 2.3.5 4.8 2.9 5.2 5.2 2.3 11.4 2.3 22.9 0 34.3-.4 2.3-2.9 4.7-5.2 5.2"/><g fill="#4187C7" fill-rule="nonzero"><path d="M781.4 372.3v-12.9h8.8v2.3h-6.1v2.8h5.6v2.3h-5.6v5.5h-2.7zM792.1 359.4h2.8v12.9h-2.8zM803.2 372.3c-.7-2-2.4-7-3.1-9.3h-.1v9.3h-2.5v-12.9h3.9s2.8 8.3 3.2 9.6c.4-1.3 3.1-9.6 3.1-9.6h3.9v12.9H809V363h-.1c-.7 2.3-2.5 7.7-3.1 9.3h-2.6z"/></g><g transform="translate(493 228)"><circle cx="10.1" cy="10.3" r="9.4" fill="#262626"/><path stroke="#FFF" stroke-width="2.127" d="M5.8 8.6l4.2 4.2 9.3-9.3"/></g><g transform="translate(493 260)"><circle cx="10.1" cy="9.8" r="9.4" fill="#262626"/><path stroke="#FFF" stroke-width="2.127" d="M5.8 8l4.2 4.2 9.3-9.3"/></g><g transform="translate(716 228)"><circle cx="10.2" cy="10.3" r="9.4" fill="#262626"/><path stroke="#FFF" stroke-width="2.127" d="M5.9 8.6l4.2 4.2 9.3-9.3"/></g><g transform="translate(716 260)"><circle cx="10.2" cy="9.8" r="9.4" fill="#262626"/><path stroke="#FFF" stroke-width="2.127" d="M5.9 8l4.2 4.2 9.3-9.3"/></g><g transform="translate(493 294)"><circle cx="10.1" cy="9.5" r="9.4" fill="#262626"/><path stroke="#FFF" stroke-width="2.127" d="M5.8 7.8L10 12l9.3-9.3"/></g><path fill="#515151" fill-rule="nonzero" d="M91.488 260.147c.03.529.155.958.375 1.288.419.618 1.157.927 2.215.927.474 0 .906-.068 1.295-.203.753-.262 1.13-.732 1.13-1.41 0-.507-.159-.869-.476-1.085-.322-.211-.825-.395-1.51-.552l-1.264-.286c-.825-.186-1.41-.39-1.752-.615-.593-.39-.889-.971-.889-1.746 0-.838.29-1.525.87-2.063.58-.537 1.4-.806 2.463-.806.977 0 1.808.236 2.491.708.684.472 1.025 1.226 1.025 2.263h-1.187c-.063-.5-.199-.883-.406-1.15-.385-.486-1.039-.73-1.961-.73-.745 0-1.28.157-1.606.47-.326.314-.489.678-.489 1.092 0 .457.19.792.571 1.003.25.136.815.305 1.695.508l1.308.298c.63.144 1.117.341 1.46.59.592.437.888 1.07.888 1.899 0 1.032-.375 1.77-1.126 2.215-.752.444-1.624.667-2.619.667-1.16 0-2.067-.297-2.723-.89-.656-.587-.977-1.385-.965-2.392h1.187zm8.132-6.316h1.275v9.325H99.62v-9.325zm3.446 0h6.799v1.142h-5.567v2.832h5.148v1.079h-5.148v3.16h5.662v1.112h-6.894v-9.325zm8.519 0h1.809l2.679 7.884 2.66-7.884h1.79v9.325h-1.2v-5.504c0-.19.004-.506.012-.946.009-.44.013-.912.013-1.415l-2.66 7.865h-1.25l-2.679-7.865v.285c0 .229.006.577.016 1.045.01.467.016.811.016 1.031v5.504h-1.206v-9.325zm21.03 0v1.11h-3.142v8.215h-1.283v-8.214h-3.142v-1.111h7.567zm2.26 8.588c.757 0 1.276-.286 1.558-.86a4.285 4.285 0 00.422-1.914c0-.634-.102-1.15-.305-1.548-.321-.627-.876-.94-1.663-.94-.698 0-1.206.267-1.523.8-.318.533-.476 1.176-.476 1.93 0 .723.158 1.326.476 1.809.317.482.82.723 1.51.723zm.044-6.259c.876 0 1.616.292 2.222.876.605.584.907 1.443.907 2.578 0 1.096-.266 2.001-.8 2.716-.533.716-1.36 1.073-2.481 1.073-.936 0-1.678-.316-2.228-.949-.55-.632-.826-1.482-.826-2.548 0-1.143.29-2.053.87-2.73.58-.677 1.358-1.016 2.336-1.016zm7.185 6.26c.758 0 1.277-.287 1.559-.86a4.285 4.285 0 00.422-1.915c0-.634-.102-1.15-.305-1.548-.321-.627-.876-.94-1.663-.94-.698 0-1.206.267-1.523.8-.318.533-.476 1.176-.476 1.93 0 .723.158 1.326.476 1.809.317.482.82.723 1.51.723zm.045-6.26c.876 0 1.616.292 2.222.876.605.584.907 1.443.907 2.578 0 1.096-.266 2.001-.8 2.716-.533.716-1.36 1.073-2.481 1.073-.936 0-1.678-.316-2.228-.949-.55-.632-.826-1.482-.826-2.548 0-1.143.29-2.053.87-2.73.58-.677 1.358-1.016 2.336-1.016zm4.52-2.33h1.142v9.326h-1.143v-9.325zm3.535 7.193c.034.38.13.673.286.876.287.368.787.552 1.498.552a2.21 2.21 0 001.117-.276c.322-.184.482-.469.482-.854a.73.73 0 00-.387-.666c-.165-.093-.49-.201-.977-.324l-.908-.229c-.58-.144-1.007-.304-1.282-.482-.491-.309-.737-.736-.737-1.282 0-.644.232-1.164.695-1.562.464-.398 1.087-.596 1.87-.596 1.024 0 1.762.3 2.215.9.284.382.421.792.413 1.232h-1.08a1.322 1.322 0 00-.272-.704c-.263-.3-.718-.45-1.365-.45-.432 0-.759.082-.98.247a.776.776 0 00-.334.653c0 .297.146.534.438.711.17.106.419.2.749.28l.755.184c.821.199 1.371.391 1.65.577.445.292.667.752.667 1.378 0 .605-.23 1.128-.688 1.568-.46.44-1.159.66-2.098.66-1.012 0-1.728-.23-2.15-.689-.42-.459-.645-1.027-.675-1.704h1.098zm38.264-7.192v1.11h-3.142v8.215h-1.282v-8.214h-3.142v-1.111h7.566zm.527 2.558h1.162v6.767h-1.162v-6.767zm0-2.558h1.162v1.295h-1.162v-1.295zm5.51 2.33c.766 0 1.39.186 1.87.558.48.372.769 1.014.866 1.923h-1.111c-.068-.419-.222-.767-.463-1.044-.242-.277-.629-.416-1.162-.416-.728 0-1.248.356-1.562 1.067-.203.461-.304 1.03-.304 1.707 0 .682.144 1.255.431 1.72.288.466.741.699 1.359.699.474 0 .85-.145 1.127-.435.277-.29.468-.687.574-1.19h1.11c-.126.901-.443 1.56-.951 1.977-.508.417-1.158.625-1.949.625-.889 0-1.598-.324-2.127-.974-.528-.65-.793-1.461-.793-2.434 0-1.194.29-2.123.87-2.787.58-.664 1.318-.997 2.215-.997zm3.853-2.33h1.098v5.414l2.933-2.888h1.46l-2.603 2.546 2.749 4.253h-1.46l-2.12-3.428-.959.876v2.552h-1.098v-9.325zm9.356 2.374c.483 0 .95.113 1.403.34.453.226.798.519 1.035.879.228.342.38.742.457 1.2.068.313.102.812.102 1.497h-4.983c.02.69.184 1.244.488 1.66.305.417.777.626 1.416.626.597 0 1.073-.197 1.428-.59a1.99 1.99 0 00.432-.794h1.123c-.03.25-.128.528-.295.835a2.969 2.969 0 01-.562.752 2.663 2.663 0 01-1.288.685 3.914 3.914 0 01-.933.102 2.863 2.863 0 01-2.152-.924c-.588-.615-.882-1.478-.882-2.586 0-1.092.296-1.979.888-2.66.593-.681 1.367-1.022 2.323-1.022zm1.822 3.009c-.046-.495-.154-.891-.323-1.187-.314-.55-.836-.826-1.568-.826-.525 0-.965.19-1.32.569-.356.378-.544.86-.566 1.444h3.777zm2.806-4.755h1.155v1.898h1.086v.933h-1.086v4.437c0 .237.08.396.241.476.09.047.237.07.445.07.055 0 .114 0 .177-.003.064-.002.138-.007.223-.016v.902a2.55 2.55 0 01-.41.082 3.893 3.893 0 01-.46.026c-.533 0-.895-.137-1.085-.41-.19-.273-.286-.627-.286-1.063v-4.5h-.92v-.934h.92v-1.898zm3.383 1.93h1.162v6.767h-1.162v-6.767zm0-2.558h1.162v1.295h-1.162v-1.295zm2.888 2.526h1.086v.965c.321-.398.662-.683 1.022-.857.36-.173.76-.26 1.2-.26.964 0 1.616.336 1.955 1.01.186.367.279.894.279 1.58v4.36h-1.162v-4.284c0-.415-.061-.75-.184-1.003-.203-.423-.571-.635-1.104-.635-.271 0-.493.028-.667.083-.313.093-.588.28-.825.558-.19.225-.314.456-.371.695-.057.24-.086.581-.086 1.026v3.56h-1.143v-6.798zm9.63-.12c.533 0 .998.13 1.396.393.216.148.436.364.66.648v-.857h1.054v6.182c0 .864-.127 1.545-.38 2.044-.475.923-1.37 1.384-2.686 1.384-.732 0-1.348-.164-1.847-.492-.5-.328-.779-.84-.838-1.54h1.162c.055.306.165.54.33.705.258.254.664.381 1.219.381.876 0 1.449-.309 1.72-.926.16-.364.235-1.014.222-1.95a2.242 2.242 0 01-.825.775c-.322.17-.747.254-1.276.254-.736 0-1.38-.261-1.933-.784-.552-.522-.828-1.387-.828-2.593 0-1.138.278-2.027.834-2.666.557-.639 1.229-.958 2.016-.958zm2.056 3.49c0-.841-.173-1.465-.52-1.872a1.668 1.668 0 00-1.327-.61c-.804 0-1.354.378-1.65 1.13-.157.403-.235.93-.235 1.581 0 .766.156 1.35.467 1.75.31.4.728.599 1.253.599.821 0 1.399-.37 1.733-1.11.186-.42.28-.909.28-1.467zm7.364.42c.03.529.154.958.374 1.288.42.618 1.158.927 2.216.927.474 0 .905-.068 1.294-.203.754-.262 1.13-.732 1.13-1.41 0-.507-.158-.869-.476-1.085-.321-.211-.825-.395-1.51-.552l-1.264-.286c-.825-.186-1.409-.39-1.752-.615-.592-.39-.888-.971-.888-1.746 0-.838.29-1.525.87-2.063.58-.537 1.4-.806 2.462-.806.978 0 1.808.236 2.492.708.683.472 1.025 1.226 1.025 2.263h-1.187c-.064-.5-.199-.883-.406-1.15-.385-.486-1.04-.73-1.962-.73-.745 0-1.28.157-1.606.47-.326.314-.489.678-.489 1.092 0 .457.19.792.572 1.003.25.136.814.305 1.695.508l1.307.298c.63.144 1.117.341 1.46.59.593.437.889 1.07.889 1.899 0 1.032-.376 1.77-1.127 2.215-.751.444-1.624.667-2.618.667-1.16 0-2.068-.297-2.723-.89-.656-.587-.978-1.385-.965-2.392h1.187zm11.94-3.79h1.263c-.161.436-.519 1.43-1.073 2.984a147.93 147.93 0 01-1.04 2.856c-.661 1.735-1.127 2.793-1.397 3.174-.271.38-.737.571-1.397.571a2.74 2.74 0 01-.371-.019 2.933 2.933 0 01-.32-.07v-1.04c.198.054.342.088.43.1.09.014.168.02.236.02.211 0 .367-.035.466-.105.1-.07.183-.155.251-.257.021-.034.097-.207.229-.52.13-.314.226-.546.285-.699l-2.514-6.995h1.295l1.822 5.535 1.835-5.535zm2.932 4.666c.034.38.13.673.286.876.288.368.787.552 1.498.552a2.21 2.21 0 001.117-.276c.322-.184.483-.469.483-.854a.73.73 0 00-.388-.666c-.165-.093-.49-.201-.977-.324l-.908-.229c-.58-.144-1.007-.304-1.282-.482-.491-.309-.736-.736-.736-1.282 0-.644.231-1.164.695-1.562.463-.398 1.086-.596 1.869-.596 1.024 0 1.763.3 2.215.9.284.382.421.792.413 1.232h-1.08a1.322 1.322 0 00-.272-.704c-.262-.3-.717-.45-1.365-.45-.431 0-.758.082-.98.247a.776.776 0 00-.334.653c0 .297.146.534.438.711.17.106.42.2.75.28l.755.184c.82.199 1.37.391 1.65.577.444.292.666.752.666 1.378 0 .605-.23 1.128-.688 1.568-.46.44-1.159.66-2.098.66-1.012 0-1.728-.23-2.149-.689-.42-.459-.646-1.027-.676-1.704h1.098zm6.05-6.564h1.155v1.898h1.085v.933h-1.085v4.437c0 .237.08.396.241.476.089.047.237.07.444.07.055 0 .115 0 .178-.003.064-.002.138-.007.222-.016v.902a2.55 2.55 0 01-.41.082 3.893 3.893 0 01-.46.026c-.533 0-.894-.137-1.085-.41-.19-.273-.285-.627-.285-1.063v-4.5h-.92v-.934h.92v-1.898zm6.214 1.746c.482 0 .95.113 1.403.34.453.226.797.519 1.034.879.229.342.381.742.457 1.2.068.313.102.812.102 1.497h-4.983c.021.69.184 1.244.489 1.66.305.417.776.626 1.415.626.597 0 1.073-.197 1.429-.59a1.99 1.99 0 00.431-.794h1.124c-.03.25-.128.528-.295.835a2.969 2.969 0 01-.562.752 2.663 2.663 0 01-1.289.685 3.914 3.914 0 01-.933.102 2.863 2.863 0 01-2.152-.924c-.588-.615-.882-1.478-.882-2.586 0-1.092.296-1.979.889-2.66.592-.681 1.367-1.022 2.323-1.022zm1.822 3.009c-.047-.495-.155-.891-.324-1.187-.313-.55-.836-.826-1.568-.826-.525 0-.965.19-1.32.569-.356.378-.544.86-.565 1.444h3.777zm2.577-2.857h1.13v.965c.27-.334.516-.578.736-.73a2.214 2.214 0 011.282-.387c.542 0 .978.133 1.308.4.186.152.355.376.508.673a2.47 2.47 0 01.895-.81 2.497 2.497 0 011.155-.263c.914 0 1.536.33 1.866.99.178.356.267.834.267 1.435v4.526h-1.187v-4.723c0-.453-.113-.764-.34-.933a1.344 1.344 0 00-.828-.254c-.449 0-.835.15-1.159.45-.323.301-.485.803-.485 1.505v3.955h-1.162v-4.437c0-.462-.055-.798-.165-1.01-.173-.317-.497-.476-.971-.476-.432 0-.824.167-1.178.502-.353.334-.53.94-.53 1.815v3.606h-1.142v-6.799zm11.508 4.666c.034.38.13.673.286.876.288.368.787.552 1.498.552a2.21 2.21 0 001.117-.276c.322-.184.482-.469.482-.854a.73.73 0 00-.387-.666c-.165-.093-.49-.201-.977-.324l-.908-.229c-.58-.144-1.007-.304-1.282-.482-.491-.309-.737-.736-.737-1.282 0-.644.232-1.164.696-1.562.463-.398 1.086-.596 1.869-.596 1.024 0 1.762.3 2.215.9.284.382.421.792.413 1.232h-1.08a1.322 1.322 0 00-.272-.704c-.263-.3-.717-.45-1.365-.45-.432 0-.759.082-.98.247a.776.776 0 00-.334.653c0 .297.146.534.438.711.17.106.419.2.75.28l.754.184c.821.199 1.372.391 1.65.577.445.292.667.752.667 1.378 0 .605-.23 1.128-.688 1.568-.46.44-1.159.66-2.098.66-1.012 0-1.728-.23-2.149-.689-.421-.459-.646-1.027-.676-1.704h1.098z"/><path fill="#44536B" fill-rule="nonzero" d="M90.777 215.92h1.57v11.477h-1.57V215.92zm3.906 3.11h1.336v1.187c.396-.49.816-.841 1.258-1.055.443-.213.935-.32 1.477-.32 1.187 0 1.99.414 2.406 1.242.23.453.344 1.102.344 1.945v5.368h-1.43v-5.274c0-.51-.075-.922-.226-1.234-.25-.521-.704-.782-1.36-.782-.333 0-.607.034-.82.102a2.113 2.113 0 00-1.016.688 2.07 2.07 0 00-.457.855c-.07.294-.105.715-.105 1.262v4.382h-1.407v-8.367zm9.18-2.337h1.422v2.336h1.336v1.149h-1.336v5.46c0 .292.099.488.297.587.11.057.292.086.547.086.067 0 .14-.002.219-.004.078-.003.169-.01.273-.02v1.11a3.14 3.14 0 01-.504.101 4.79 4.79 0 01-.566.031c-.657 0-1.102-.168-1.336-.504-.235-.336-.352-.772-.352-1.308v-5.54h-1.133v-1.148h1.133v-2.336zm7.649 2.149c.593 0 1.169.14 1.726.418.557.278.982.64 1.274 1.082.28.422.468.914.562 1.476.083.386.125 1 .125 1.844h-6.133c.026.85.227 1.53.602 2.043.375.513.956.77 1.742.77.734 0 1.32-.243 1.758-.727a2.45 2.45 0 00.531-.976h1.383c-.037.307-.158.65-.363 1.027a3.654 3.654 0 01-.692.926 3.277 3.277 0 01-1.586.843 4.818 4.818 0 01-1.148.125c-1.042 0-1.925-.379-2.649-1.136-.724-.758-1.086-1.82-1.086-3.184 0-1.344.365-2.435 1.094-3.273.73-.839 1.682-1.258 2.86-1.258zm2.242 3.703c-.058-.61-.19-1.096-.399-1.461-.385-.677-1.028-1.016-1.93-1.016-.645 0-1.187.233-1.624.7-.438.466-.67 1.058-.696 1.777h4.649zm6.125-3.664c.656 0 1.229.161 1.719.484.265.183.536.448.812.797v-1.055h1.297v7.61c0 1.062-.156 1.9-.469 2.515-.583 1.136-1.685 1.704-3.305 1.704-.9 0-1.658-.202-2.273-.606-.615-.404-.958-1.035-1.031-1.894h1.43c.067.375.203.664.406.867.317.312.817.469 1.5.469 1.078 0 1.784-.38 2.117-1.141.198-.448.289-1.248.273-2.399-.28.428-.62.745-1.015.954-.396.208-.92.312-1.57.312-.907 0-1.7-.322-2.38-.965-.68-.643-1.019-1.707-1.019-3.191 0-1.401.342-2.495 1.027-3.281.685-.787 1.512-1.18 2.48-1.18zm2.531 4.297c0-1.037-.214-1.805-.64-2.305-.428-.5-.972-.75-1.633-.75-.99 0-1.667.464-2.032 1.39-.192.495-.289 1.144-.289 1.946 0 .943.192 1.66.574 2.152.383.493.898.739 1.543.739 1.01 0 1.722-.456 2.133-1.368.23-.515.344-1.117.344-1.804zm3.453-4.149h1.336v1.446c.11-.282.378-.624.805-1.028.427-.403.919-.605 1.476-.605.026 0 .07.002.133.008l.32.03v1.485a2.1 2.1 0 00-.46-.039c-.709 0-1.253.228-1.633.684-.38.456-.57.98-.57 1.574v4.813h-1.407v-8.368zm6.367 6.14c0 .407.149.727.446.962.297.234.648.351 1.054.351.495 0 .974-.114 1.438-.343.781-.38 1.172-1.003 1.172-1.868v-1.132c-.172.11-.394.2-.664.273-.271.073-.537.125-.797.156l-.852.11c-.51.067-.893.174-1.148.32-.433.245-.649.635-.649 1.172zm3.407-2.843c.323-.041.539-.177.648-.406.063-.125.094-.305.094-.54 0-.478-.17-.826-.512-1.042-.341-.216-.83-.324-1.465-.324-.734 0-1.255.198-1.562.593-.172.22-.284.545-.336.977h-1.313c.026-1.031.36-1.749 1.004-2.152.643-.404 1.39-.606 2.238-.606.985 0 1.784.188 2.399.563.61.375.914.958.914 1.75v4.82c0 .146.03.263.09.352.06.088.186.132.379.132.062 0 .133-.004.21-.011.079-.008.162-.02.25-.035v1.039a3.917 3.917 0 01-.5.117c-.114.015-.27.023-.468.023-.484 0-.836-.172-1.055-.515-.114-.183-.195-.44-.242-.774-.286.375-.698.7-1.234.977a3.818 3.818 0 01-1.774.414c-.776 0-1.41-.236-1.902-.707-.492-.472-.738-1.061-.738-1.77 0-.776.242-1.377.726-1.804.485-.428 1.12-.69 1.906-.79l2.243-.28zm4.695-5.633h1.422v2.336h1.336v1.149h-1.336v5.46c0 .292.099.488.297.587.109.057.291.086.547.086.067 0 .14-.002.218-.004.078-.003.17-.01.274-.02v1.11a3.14 3.14 0 01-.504.101 4.79 4.79 0 01-.567.031c-.656 0-1.101-.168-1.336-.504-.234-.336-.351-.772-.351-1.308v-5.54h-1.133v-1.148h1.133v-2.336zm4.164 2.375h1.43v8.328h-1.43v-8.328zm0-3.148h1.43v1.594h-1.43v-1.594zm6.875 10.57c.932 0 1.572-.353 1.918-1.058.346-.706.52-1.491.52-2.356 0-.781-.126-1.416-.376-1.906-.395-.77-1.078-1.156-2.046-1.156-.86 0-1.485.328-1.875.984-.391.656-.586 1.448-.586 2.375 0 .89.195 1.633.586 2.227.39.593 1.01.89 1.859.89zm.055-7.703c1.078 0 1.99.36 2.734 1.078.745.719 1.117 1.776 1.117 3.172 0 1.35-.328 2.464-.984 3.344-.656.88-1.675 1.32-3.055 1.32-1.15 0-2.065-.39-2.742-1.168-.677-.778-1.016-1.824-1.016-3.136 0-1.407.357-2.527 1.07-3.36.714-.833 1.673-1.25 2.876-1.25zm5.523.242h1.336v1.188c.396-.49.815-.841 1.258-1.055.443-.213.935-.32 1.476-.32 1.188 0 1.99.414 2.407 1.242.229.453.343 1.102.343 1.945v5.368h-1.43v-5.274c0-.51-.075-.922-.226-1.234-.25-.521-.703-.782-1.36-.782-.333 0-.606.034-.82.102a2.113 2.113 0 00-1.015.688 2.07 2.07 0 00-.457.855c-.07.294-.106.715-.106 1.262v4.382h-1.406v-8.367zm9.734 5.743c.042.468.16.828.352 1.078.354.453.969.68 1.844.68.52 0 .979-.114 1.375-.34.396-.227.594-.577.594-1.051 0-.36-.16-.633-.477-.82-.203-.115-.604-.248-1.203-.4l-1.117-.28c-.714-.177-1.24-.375-1.578-.594-.605-.38-.907-.906-.907-1.578 0-.792.285-1.432.856-1.922.57-.49 1.337-.734 2.3-.734 1.26 0 2.17.37 2.727 1.109.349.469.518.974.508 1.516h-1.328a1.627 1.627 0 00-.336-.868c-.323-.37-.883-.554-1.68-.554-.531 0-.933.101-1.207.304a.955.955 0 00-.41.805c0 .365.18.656.539.875.208.13.516.245.922.344l.93.226c1.01.245 1.687.482 2.03.711.548.36.821.925.821 1.696 0 .744-.282 1.388-.848 1.93-.565.541-1.425.812-2.582.812-1.244 0-2.126-.283-2.644-.848-.518-.565-.796-1.264-.832-2.097h1.351zm12.352-5.633h1.633v1.703h-1.633v-1.703zm0 6.554h1.633v1.703h-1.633v-1.703z"/><g fill-rule="nonzero" opacity=".8"><path fill="#57647A" d="M210.9 306.8v-13.7h3.5v1.1c1.1-.9 2.4-1.4 3.9-1.4 1.8 0 3.6.8 4.7 2.2.9 1.1 1.4 2.5 1.4 4.8v7h-3.7v-7.3c0-1.3-.3-2.1-.8-2.6-.6-.5-1.3-.8-2.1-.8-1.3 0-2.5.7-3.3 1.7v8.9l-3.6.1z"/><path fill="#8F98A6" d="M233.9 292.8c-4.4 0-8 3.6-8 8.1 0 2.2.9 4.3 2.5 5.8.6.5 1.4.6 2.1.1 2-1.5 4.8-1.5 6.8 0 .6.5 1.5.4 2.1-.1 3.2-3.1 3.3-8.2.2-11.4-1.5-1.6-3.6-2.5-5.7-2.5m-.1 12c-2.1.1-3.9-1.6-4-3.8v-.2c-.1-2.2 1.7-4.1 3.9-4.1 2.2-.1 4.1 1.7 4.1 3.9v.3c.1 2.1-1.6 3.9-3.8 4 0-.1-.1-.1-.2-.1"/><path fill="#57647A" d="M249.1 306.8h-2.8l-5.4-13.7h3.7l2.9 7.8 3-7.8h3l2.9 7.8 3-7.8h3.7l-5.5 13.7h-2.7L252 299zM261.1 305v.3h-.5v1.5h-.3v-1.5h-.5v-.3zM262.2 306.1l.6-1.1h.3v1.8h-.3v-1l-.5.7h-.2l-.4-.7v1h-.4V305h.3z"/></g><path fill="#515151" fill-rule="nonzero" d="M323.444 253.578c1.18 0 2.096.31 2.748.933.652.622 1.014 1.329 1.086 2.12h-1.232c-.14-.601-.418-1.077-.835-1.428-.416-.352-1.001-.527-1.755-.527-.918 0-1.66.323-2.225.968-.564.645-.847 1.634-.847 2.967 0 1.092.255 1.978.765 2.657.51.68 1.27 1.019 2.282 1.019.93 0 1.64-.358 2.126-1.073.259-.377.451-.872.578-1.485h1.231c-.11.981-.473 1.804-1.091 2.469-.74.8-1.74 1.2-2.996 1.2-1.084 0-1.994-.328-2.73-.984-.969-.868-1.454-2.207-1.454-4.018 0-1.376.364-2.504 1.092-3.384.787-.956 1.873-1.434 3.257-1.434zm5.744.254h1.276v9.324h-1.276v-9.324zm5.294 0h.965l-2.958 9.324h-.965l2.958-9.324zm5.573-.254c1.181 0 2.097.31 2.749.933.652.622 1.013 1.329 1.085 2.12h-1.231c-.14-.601-.418-1.077-.835-1.428-.417-.352-1.002-.527-1.755-.527-.918 0-1.66.323-2.225.968-.565.645-.847 1.634-.847 2.967 0 1.092.255 1.978.765 2.657.51.68 1.27 1.019 2.282 1.019.93 0 1.64-.358 2.126-1.073.258-.377.45-.872.578-1.485h1.231c-.11.981-.474 1.804-1.091 2.469-.741.8-1.74 1.2-2.997 1.2-1.083 0-1.993-.328-2.73-.984-.968-.868-1.453-2.207-1.453-4.018 0-1.376.364-2.504 1.092-3.384.787-.956 1.873-1.434 3.256-1.434zm9.04 8.5c.427 0 .778-.045 1.053-.134.491-.165.893-.483 1.206-.952.25-.377.43-.86.54-1.448a5.52 5.52 0 00.095-.977c0-1.155-.23-2.052-.689-2.691-.459-.64-1.198-.959-2.218-.959h-2.24v7.16h2.253zm-3.523-8.246h3.776c1.283 0 2.277.455 2.984 1.364.63.821.946 1.873.946 3.155 0 .99-.187 1.885-.559 2.685-.656 1.414-1.784 2.12-3.383 2.12h-3.764v-9.324zm19.5 0v1.11h-3.143v8.214h-1.282v-8.214h-3.142v-1.11h7.567zm2.26 8.588c.757 0 1.276-.287 1.558-.86a4.285 4.285 0 00.422-1.914c0-.635-.102-1.151-.305-1.549-.322-.626-.876-.94-1.663-.94-.698 0-1.206.267-1.523.8-.318.534-.476 1.177-.476 1.93 0 .724.158 1.327.476 1.81.317.482.82.723 1.51.723zm.044-6.259c.876 0 1.616.292 2.221.876.606.584.908 1.443.908 2.577 0 1.096-.266 2.002-.8 2.717-.533.715-1.36 1.073-2.482 1.073-.935 0-1.677-.316-2.228-.95-.55-.632-.825-1.481-.825-2.548 0-1.142.29-2.052.87-2.73.58-.676 1.358-1.015 2.336-1.015zm7.185 6.259c.758 0 1.277-.287 1.559-.86a4.285 4.285 0 00.422-1.914c0-.635-.102-1.151-.305-1.549-.322-.626-.876-.94-1.663-.94-.698 0-1.206.267-1.523.8-.318.534-.477 1.177-.477 1.93 0 .724.16 1.327.477 1.81.317.482.82.723 1.51.723zm.045-6.259c.876 0 1.616.292 2.221.876.606.584.908 1.443.908 2.577 0 1.096-.266 2.002-.8 2.717-.533.715-1.36 1.073-2.482 1.073-.935 0-1.677-.316-2.228-.95-.55-.632-.825-1.481-.825-2.548 0-1.142.29-2.052.87-2.73.58-.676 1.358-1.015 2.336-1.015zm4.52-2.33h1.142v9.325h-1.143v-9.324zm3.535 7.192c.034.381.129.673.286.876.287.369.787.553 1.498.553a2.21 2.21 0 001.117-.276c.321-.184.482-.47.482-.854a.73.73 0 00-.387-.667c-.165-.093-.49-.2-.978-.323l-.907-.229c-.58-.144-1.007-.305-1.282-.482-.491-.31-.737-.737-.737-1.283 0-.643.232-1.163.695-1.561.464-.398 1.087-.597 1.87-.597 1.024 0 1.762.3 2.215.902.284.38.421.79.413 1.231h-1.08a1.322 1.322 0 00-.272-.705c-.263-.3-.718-.45-1.365-.45-.432 0-.759.082-.98.247a.776.776 0 00-.334.654c0 .296.146.533.438.711.17.106.419.199.749.28l.755.183c.821.2 1.371.392 1.65.578.445.292.667.751.667 1.378 0 .605-.23 1.127-.689 1.567-.459.44-1.158.66-2.098.66-1.01 0-1.727-.229-2.148-.688-.421-.46-.647-1.027-.676-1.705h1.098z"/><g fill-rule="nonzero" opacity=".8"><path fill="#44536B" d="M149.1 304c-.8.3-1.5.5-2.2.8-.2.1-.2-.1-.3-.2-1.1-1.6-2.3-3.2-3.4-4.9-.1-.1-.1-.2-.2-.3-.1.1-.1.2-.1.3v4.6c0 .2-.1.3-.3.3h-2c-.2 0-.3 0-.3-.3v-14c0-.2.1-.3.3-.3h2c.2 0 .3.1.3.3v7.9c0 .1-.1.3.1.3.2.1.3-.1.4-.2l3-3.6c.2-.2.3-.3.6-.1.5.3 1.1.5 1.6.7l-3 3.3c-.2.2-.3.4 0 .7 1.1 1.6 2.3 3.2 3.5 4.7zm-24.2-.6c-.3.2-.5.5-.7.6-1.3 1-2.8 1.1-4.3.5-1.1-.5-1.5-1.4-1.6-2.5-.2-2.4 0-4.7-.1-7.1 0-.2.1-.2.2-.2h2c.3 0 .3.1.3.3v5.2c0 .5 0 .9.1 1.3.2 1.2 1.1 1.6 2.1 1.5 1.3-.2 1.9-1 1.9-2.5V295c0-.3.1-.4.4-.4h2c.2 0 .2.1.2.2v9.5c0 .2-.1.2-.2.2h-2.1c-.2 0-.2 0-.2-.2v-.9zm6.9-7.3c.5-.6 1-1 1.7-1.3 1-.4 2-.4 3-.1 1.2.4 1.8 1.4 1.9 2.7.2 2.4.1 4.7.1 7.1 0 .1 0 .2-.2.2h-2.2c-.3 0-.2-.2-.2-.3v-5.8c0-.3 0-.6-.1-.9-.3-1.2-1.2-1.5-2.3-1.3-1.1.2-1.7 1-1.7 2.3v5.6c0 .3-.1.4-.3.3h-2c-.2 0-.2 0-.2-.2V295c0-.2.1-.3.3-.2h2.1c.2 0 .3.1.2.3-.1.3-.1.6-.1 1zm-17.8 1.3v-7c0-.2 0-.3.3-.3h2c.2 0 .2 0 .2.2v14.1c0 .2-.1.2-.3.2h-2c-.3 0-.4-.1-.4-.3.2-2.3.2-4.6.2-6.9zm-13.4-.8c-.6-.4-1.2-.6-1.9-.5-.4.1-.7.3-.9.7-.2.4 0 .8.3 1.1.6.6 1.4 1.1 2 1.7.2.2.4.3.6.5 1.5 1.3 1.1 4-1.2 4.8-1.6.5-3.1.3-4.5-.7-.2-.1-.2-.2-.1-.4.2-.3.4-.6.6-1 .1-.2.1-.2.3 0 .5.4 1.1.8 1.8.8.8.1 1.4-.3 1.5-1 .1-.5-.2-1-.6-1.3l-1.5-1.2c-.5-.4-1.1-.9-1.4-1.5-.7-1.4 0-3 1.5-3.6 1.4-.5 2.8-.3 4.2.4.1.1.2.1.1.2-.4.2-.6.6-.8 1z"/><path fill="#697589" d="M151.4 304.4V303c0-.2.1-.3.2-.4 1.8-.9 3.6-1.8 5.3-2.7.1 0 .2-.1.2-.1.1-.1.1-.2 0-.3-.1 0-.2-.1-.2-.1-1.8-.9-3.5-1.8-5.3-2.6-.2-.1-.3-.2-.3-.5v-1.4c.4.2.7.3 1 .5 1.6.8 3.2 1.6 4.7 2.4l1.8.9c.1.1.2.1.2.3v1.1c0 .2-.1.3-.2.4-1.9 1-3.9 1.9-5.8 2.9-.5.4-1.1.7-1.6 1z"/><path fill="#44536B" d="M112.3 296.8c-1.3-2.8-4.9-3-6.6-1.1l-.4.4V295c0-.2 0-.3-.3-.3h-2c-.2 0-.3.1-.3.3v14.4c0 .2.1.3.3.3h1.9c.3 0 .3-.1.3-.3v-5.5-.4l.3.3c.4.4.8.8 1.4 1 1.5.6 3.6.1 4.7-1.3 1.5-2.2 1.7-4.4.7-6.7zm-2.1 2.8c0 .9-.2 1.8-.6 2.6-.9 1.7-3 1.4-3.8.1-.5-.9-.6-1.9-.6-2.9 0-.7.2-1.4.5-2 .7-1.4 2.4-1.7 3.5-.7.6.5.8 1.3.9 2 0 .3.1.6.1.9z"/></g><g fill-rule="nonzero" opacity=".8"><path fill="#697589" d="M368.1 299.2c0 7.8-6.2 14.1-13.8 14.1-7.6 0-13.8-6.3-13.8-14.1s6.2-14.1 13.8-14.1c7.6 0 13.8 6.3 13.8 14.1"/><path fill="#8F98A6" d="M341.2 302.7s-1-14.7 12.5-15.1l-.9-1.6-7.3 2.5-2.1 2.4-1.8 3.5-1 4.1.3 2.7"/><path fill="#44536B" d="M344.9 289.6c-2.4 2.5-3.9 5.9-3.9 9.7 0 3.8 1.5 7.2 3.9 9.7 2.4 2.5 5.7 4 9.4 4s7-1.5 9.4-4c2.4-2.5 3.9-5.9 3.9-9.7 0-3.8-1.5-7.2-3.9-9.7-2.4-2.5-5.7-4-9.4-4-3.6 0-7 1.5-9.4 4zm-.6 19.9c-2.6-2.6-4.2-6.2-4.2-10.2 0-4 1.6-7.6 4.2-10.3 2.6-2.6 6.1-4.3 10-4.3 3.9 0 7.5 1.6 10 4.3 2.6 2.6 4.2 6.3 4.2 10.3 0 4-1.6 7.6-4.2 10.2-2.6 2.6-6.1 4.3-10 4.3-3.9 0-7.4-1.7-10-4.3z"/><path fill="#F6F6F8" d="M360.1 299.3l-2.1.3-2.8.3-1.8.1-1.8-.1-1.4-.4-1.2-1.3-.9-2.7-.2-.6-1.3-.4-.7-1.2-.5-1.7.6-1.5 1.4-.5 1.1.5.5 1.2.6-.1.2-.3-.2-1.2-.1-1.5.3-2.1v-1.2l1-1.5 1.7-1.2 2.9-1.3 3.2.5 2.8 2 1.3 2.1.8 1.5.2 3.8-.6 3.2-1.2 2.9-1.1 1.5"/><path fill="#697589" d="M358.4 308.3l-7.5.3v1.3l.6 4.4-.3.4-5.2-1.8-.4-.6-.5-5.9-1.2-3.6-.3-.8 4.2-2.9 1.3-.5 1.2 1.4 1 .9 1.2.4.5.2.6 2.7.5.6 1.2-.4-.8 1.6 4.6 2.1-.7.2M345.9 290.1l1.4-.5 1.1.5.5 1.2.6-.1.2-.6-.3-1.2.3-2.9-.3-1.6.9-1.1 2-1.6-.6-.8-2.9 1.4-1.2.9-.7 1.5-1 1.4-.3 1.7.3 1.8"/><path fill="#B4BAC4" d="M348.1 285.1s.8-1.9 3.9-2.9c3.1-.9.2-.7.2-.7l-3.4 1.3-1.3 1.3-.6 1h1.2m-1.6 4.6s-1.1-3.7 3.1-4.2l-.2-.6-2.9.7-.8 2.7.2 1.8.6-.4"/><path fill="#B4BAC4" d="M348.2 294.6l.7-.7s.3 0 .4.4c.1.4.2 3.7 2.5 5.5.2.2-1.7-.3-1.7-.3l-1.7-2.6m9.4-3.3s.1-1.6.6-1.5c.4.1.4.6.4.6s-1 .6-1 .9m4.4-5.9s-.9.2-.9.9c-.1.8.9.2 1.1.1m-6.6-.9s-1.2.2-1.2.9 1.3.7 1.7.4m-7.6 2.1s-2-1.2-2.2-.1c-.2 1.2-.7 2 .3 3.2l-.7-.2-.6-1.6-.2-1.6 1.2-1.3 1.4.1.8.6v.9m1-3.3s.9-4.6 5.4-5.5c3.7-.7 5.7.2 6.4 1 0 0-3.3-3.9-6.4-2.7-3.1 1.2-5.5 3.4-5.4 4.8v2.4m12.1-4s-1.5-.1-1.6 1.3c0 0 0 .2.1.4 0 0 1.2-1.4 1.9-.6"/><path fill="#B4BAC4" d="M355.2 285.8s-.3-2.1-2-.9c-1.2.8-1 1.9-.8 2.1.2.2.2.6.3.3.2-.3.1-1.2.7-1.5.5-.2 1.4-.5 1.8 0m-5 14.2l-4.9 2.2s2 8.1 1 10.6l-.7-.3-.1-3.1-1.4-5.9-.6-1.6 5.1-3.5 1.6 1.6m.5 4.5l.7.9v3.1h-.8s-.1-2.2-.1-2.5c0-.3.1-1.2.1-1.2m.2 4.1l-2.4.1.7.5 1.7.3"/><path fill="#697589" d="M358.8 308.4l1.9-.1.5 4.8-2 .3-.4-5"/><path fill="#697589" d="M359.4 308.4l2.9-.2s1.2-3 1.2-3.2c0-.2 1-4.4 1-4.4l-2.4-2.5-.5-.4-1.3 1.3v4.9l-.9 4.5"/><path fill="#B4BAC4" d="M360.7 308l-1.8.4.3 1.5c.7.3 1.8-.5 1.8-.5m-.3-10.5l3.7 2.7.1-1.3-2.8-2.6-1 1.2"/><path fill="#ECEEF0" d="M352.6 318.7l-1.1-4.4-.5-3.2-.1-2.4 4.9-.3h3.1l-.3 5.5.5 4.2-.1.8-4 .3-2.4-.5"/><path fill="#C7CBD3" d="M358.1 308.3s-.3 5.5.5 9.3c0 0-1.6 1-3.9 1.3l4.4-.2.5-.3-.6-8.6-.2-1.8"/><path fill="#ECEEF0" d="M361.3 312.7l2-.6 3.9-.2.6-1.8-1-3.1-1.2-.2-1.7.5-1.6.8-.9-.2-.7.3"/><path fill="#C7CBD3" d="M361.3 311.7s1.4-.6 1.6-.6l-.6-2.9.7-.3s.5 2.7.5 3c0 0 2.9.2 3.2.2 0 0 .6-1.2.5-2.5l.6 1.7.1.9-.8 1.3-.9.2-1.6-.1-.5-.7-1.8.3-.6.2"/><path fill="#ECEEF0" d="M359.2 308l-1.2-2.9-1.2-1.7s.3-.7.6-.7h1.2l1.2.4-.1 1.9-.5 3"/><path fill="#C7CBD3" d="M359.5 307s-1.5-2.8-1.5-3.2c0 0 .3-.6.6-.5l1.2.6v-1l-1.8-.4-1.2.2 2 4.8.4.1"/><path fill="#ECEEF0" d="M353 300.1l-1.5-.2-1.4-.4v.5l.7.7 2.1.9"/><path fill="#C7CBD3" d="M350.7 300.2s1.6.7 2.1.5l.1.6-1.5-.3-.9-.6.2-.2"/><path fill="#697589" d="M361.3 302.8c-.9 0-1.7-.1-2.4-.3v-.8c.2-.1.5-.1.8-.2-.3-.1-.6-.2-.9-.1 0-.2-.1-.3-.2-.5.5-.2 1.7-1.3 2.3-1 .3.2.5 1.2.5 1.7.2.5.1.9-.1 1.2"/><path fill="#697589" d="M361.4 302.8c-.9 0-1.8-.1-2.4-.3h-.1v-.1-.4-.4c.1-.1.4-.1.6-.2h-.7v-.1c0-.1 0-.2-.1-.3 0 0 0-.1-.1-.1v-.1h.1c.1-.1.4-.2.6-.4.6-.4 1.3-.9 1.8-.6.4.2.5 1.7.5 1.8 0 .6-.1 1-.2 1.2zm-2.4-.4c.7.2 1.4.3 2.3.3.1-.2.2-.6.2-1 0-.6-.2-1.5-.4-1.7-.4-.2-1.1.2-1.7.6-.2.1-.4.3-.6.4v.1c0 .1.1.2.1.3.3-.1.6 0 .9.1l.2.1h-.4c-.2 0-.4 0-.6.1v.7zm-1.9-1.1v.2c-.3.2-.7.2-1 .3.4 0 .8.1 1.1.3v.5c-.5.3-1 .9-1.6 1.2-.3.2-1.3.6-1.6.5-.2 0-.2-.3-.3-.5-.1-.4-.5-1.1-.5-1.8 0-.8-.1-2.2.8-2 .7.1 1.5.5 2.1.8.3.2.5.5 1 .5"/><path fill="#697589" d="M354.1 304.4c-.1 0-.1 0 0 0-.3 0-.3-.2-.4-.4v-.1c0-.1-.1-.2-.1-.3-.2-.4-.4-.9-.4-1.4v-.1c0-.7-.1-1.6.3-1.9.1-.1.3-.2.5-.1.8.1 1.6.5 2.1.8.1 0 .2.1.2.1.2.1.4.3.8.3h.1V301.6c-.2.1-.4.2-.6.2h-.2c.3 0 .6.1.8.3v.6c-.2.1-.4.3-.6.5-.3.3-.6.5-1 .7-.3.1-1.1.5-1.5.5zm-.3-4.3c-.1 0-.2 0-.3.1-.3.3-.3 1.2-.3 1.8v.1c0 .5.2 1 .4 1.4 0 .1.1.2.1.3v.1c0 .2.1.3.2.3.3.1 1.2-.3 1.5-.5.4-.2.7-.5 1-.7.2-.2.4-.3.6-.5v-.4c-.3-.2-.7-.2-1-.3h-.2l.2-.1c.1-.1.3-.1.5-.2.2 0 .4-.1.5-.2v-.1c-.4 0-.6-.2-.8-.3-.1 0-.1-.1-.2-.1-.5-.3-1.3-.6-2.1-.8 0 .2 0 .1-.1.1zm3.8 2.2c-.1-.4-.2-.6-.1-1 1.1-.8 1.3 1.4.1 1"/><path fill="#697589" d="M357.9 302.4c-.1 0-.2 0-.3-.1v-.1h-.1c0-.1-.1-.2-.1-.3 0-.2-.1-.4-.1-.6.5-.3.8-.1.9 0 .2.2.3.6.1.9 0 0-.1.2-.4.2zm-.3-.2c.3.1.5 0 .7-.2.1-.2.1-.6-.1-.7-.2-.2-.4-.1-.7 0 0 .2 0 .4.1.6v.3z"/><path fill="#8F98A6" d="M359.3 302.6s-.4-.5-.1-.7c.3-.2.5 0 .7-.3.2-.3 0-.4.1-.7.1-.3.3-.4.6-.4.3-.1 1-.2 1.1.1l-.3-.9-.6-.2-2 1.2-.1.6v1.2m-4.9 1.9c-.1-.8-.1-1.6-.2-2.5-.1-1.2.3-1 1.4-1 .2 0 1 .2 1.1.3.3.6-.5.5.3.9.7.4 1.9-.2 1.6-1.1-.2-.2-.8-.1-1-.2l-1.2-.6c-.5-.3-1.7-.7-2.3-.3-1.4 1 .1 3.3.6 4.3"/><path fill="#44536B" d="M355.2 285.8c-1.4-.3-2.1.6-2.6 1.6-.4-.1-.2-.6-.1-.9.3-.7 1.3-1.6 2.1-1.5.3 0 .8.3.6.8m6.9 1.6c.4.7.7 1.4 1.1 2-.3.6-2.1 1.2-2 .1.4-.2 1.1 0 1.4-.3-.2-.5-.5-1-.5-1.8m-6.2 0c.3.6.4 1.2.8 1.6.2.2.6.4.4 1 0 .1-.4.4-.6.5-.7.2-2.3 0-1.7-.8.6 0 1.3.4 1.7 0-.2-.6-.8-1.7-.6-2.3m6 5.7c-1 .7-2.2 1.4-3.8 1.2-.4-.3-.5-1-.1-1.5.2.3.1.9.6 1 1 .2 2.1-.6 2.7-.8.4-.7 0-1-.4-1.4-.8-.9-1.8-2.1-1.8-3.5.3-.2.3.4.4.5.4 1 1.4 2.2 2.2 3 .2.2.5.4.5.5 0 .3-.4.8-.3 1m-13.5-.6c-.3-.2-.4-1-.8-1-.5 0-.4 1-.4 1.7-.4-.3-.4-1.4-.2-1.9-.3-.2-.4.2-.6.3.2-1.7 2.3-.9 2 .9m14.1 1.3c-.5.9-1.2 1.9-2.6 1.9 0-.3-.1-.7 0-.9 1.1-.1 1.8-.6 2.6-1m-6.7.6c.9.5 2.5.5 3.7.5.1.3.1.6.1.9-1.5.1-3.4-.3-3.8-1.4m-.2.9c.6 1.6 2.7 1.4 4.5 1.3-.1.2-.2.4-.5.5-.6.2-2.2.4-3 0-.5-.3-.8-.9-1.1-1.2 0-.2-.6-.6.1-.6"/><path fill="#B4BAC4" d="M361.8 303.8c-.7 1.2-1.4 2.5-2.3 3.6.4-1.1.5-2.8.6-4.2.7-.3 1.4.1 1.7.6"/><path fill="#44536B" d="M365.7 308.3c-.8.2-1.4 1-2.2.9.5-.6 1.2-.9 2.2-.9m.4 1.3c-.7.1-1.4.2-2.1.1.3-.5 1.5-.3 2.1-.1m.2 1.1c-.7 0-1.7 0-2.4-.1.4-.5 1.9-.2 2.4.1"/><path fill="#C7CBD3" d="M360.4 313.6c.1.9.5 1.9.4 2.9-.4.1-.6.3-1.2.3 0-.9-.2-2.2-.1-3 .3 0 .7-.2.9-.2"/><path fill="#F6F6F8" d="M359.2 299.9c-.4.2-.7.5-1 .8-.8 0-1.2-.1-1.8-.5 0 0 .1 0 .1-.1.8.4 1.8-.1 2.7-.2"/><path fill="#B4BAC4" d="M354.7 305.7c.2-1 1.1-1.5 2-2.1.9 1.1 1.4 2.5 2 3.8-1.4-.4-2.8-1-4-1.7"/><path fill="#44536B" d="M359.5 313.8c0 .8.1 2.2.1 3 .6 0 .8-.1 1.2-.3 0-1-.3-2-.4-2.9-.2 0-.6.2-.9.2zm-8.6-4.7c.4 3.3.9 6.1 1.9 9.1 2.1.6 4.7.7 6.6.1-.3-1.7-.2-3.7-.4-5.5-.2-1.3-.1-2.7-.3-4-2.3-.5-5.5-.1-7.8.3zm8.4-.3c0 1.4.1 2.8.2 4.3.6-.1.9-.1 1.4-.2-.2-1.4-.1-2.9-.5-4.2-.4 0-.8 0-1.1.1zm2.8-.2c-.3-.1-.6 0-.8 0 .1 1.2.4 2.5.5 3.7.4 0 .6-.2.9-.2 0-1.2-.1-2.7-.6-3.5zm4.2 3.8c.8-.2 1.3-1.2 1.1-2.2-.2-.7-.4-2-.7-2.4-.2-.3-.8-.8-1.3-.5-.8.5-2.1.6-2.7 1.2.3.9.4 2.2.5 3.4 1 .1 2.1-.3 2.9.1-.6.2-1.3.2-1.7.4.4.2 1.3.2 1.9 0zm-7.6-5c-.6-1.4-1.1-2.8-2-3.8-.8.6-1.7 1.1-2 2.1 1.2.7 2.6 1.3 4 1.7zm1.4-4.1c-.1 1.4-.2 3.1-.6 4.2.9-1.1 1.6-2.4 2.3-3.6-.3-.6-1-1-1.7-.6zm-1.6-.6c-.3 0-.6.4-1 .2l-.3.3c.9 1.1 1.4 2.7 2.1 4.1.4-1.3.3-2.7.4-4.1-.6 0-.8-.5-1.2-.5zm-1.1-1.4c0 .4.1.5.1 1 1.3.4 1.1-1.8-.1-1zm-1.4-.4c-.5-.3-1.4-.6-2.1-.8-.9-.2-.8 1.2-.8 2 0 .6.4 1.3.5 1.8.1.2.1.4.3.5.3.1 1.3-.3 1.6-.5.6-.3 1.1-.8 1.6-1.2v-.5c-.3-.2-.7-.3-1.1-.3.3-.2.8-.2 1-.3v-.2c-.4-.1-.6-.4-1-.5zm-5.2-1c-.5.5 1.3 1.1 1.8 1.1 0-.3.2-.6.1-.8-.6-.1-1.4 0-1.9-.3zm5.6.2c0 .1-.1.1 0 0 .5.5.9.6 1.7.6.4-.3.7-.6 1-.8-.8.1-1.8.6-2.7.2zm5.1 1.6c0-.5-.2-1.6-.5-1.7-.7-.4-1.8.8-2.3 1 .1.2.1.3.2.5.3-.1.7 0 .9.1-.3 0-.6 0-.8.2-.1.2 0 .5 0 .8.7.2 1.5.3 2.4.3.1-.4.2-.8.1-1.2zm-11.4-1.3c-.1-.1-1.1-1.4-1.2-1.3-1.7.7-3.4 1.9-4.8 3 1.4 3 2 6.6 2 10.2 1.6.7 3 1.8 5.2 1.9-.3-1.8-.5-3.3-.6-5-.5-.2-1.3 0-1.8-.1 0-.6.8-.3.8-.7 0-.3-.4-.3-.3-.8.4.1.6.5 1 .6.4-.8 0-2.3.1-3.1 0-.1.1-.7.4-.6.3.1 0 1.6 0 2.3 0 .6-.1 1.2.2 1.6 2.1-.3 4.2-.5 6.5-.5-.5-.2-1.1-.4-1.7-.8-.4-.2-1.5-.6-1.6-.9-.2-.5.4-.8.5-1.3-1.1.6-1.3-.6-1.5-1.3-.2-.7-.4-1.3-.4-1.7-1.1-.6-2.1-1-2.8-1.5zm10.5-1.2c1.5-.7 1.7 2.6 1.1 3.7.1.3.4.4.5.7-.8 1.5-1.7 2.8-2.5 4.2.6-.4 1.5-.1 2.2-.4.3-.1.5-.7.7-1.2.6-1.3 1.1-3 1.4-4.3.1-.3.2-.9.2-1.2-.1-.5-.7-.8-1-1.1-.6-.5-1-1-1.6-1.5-.2.6-.8.8-1 1.1zm-13.9-12.9c-.7.8-.5 2.2-.5 3.2 1.3-.8 2.9.1 2.9 1.4.6 0 .2-.7.1-1.2-.4-1.5.6-3.2 0-4.6-1 .1-1.8.5-2.5 1.2zm5-4.4c-1.6.4-3.6 1.6-4.2 3 .5-.1.8-.3 1.3-.4.2 0 .4.1.6 0 .4-.1.8-1.1 1.1-1.4.3-.3.7-.5.9-.8.2-.1.4-.1.4-.3 0-.1 0-.1-.1-.1zm8.1.4c-1.6-.9-4.4-1.6-6.1-.7-1.4.7-3.3 1.8-3.9 3.3.6 1.4-.2 2.7-.2 4.1 0 .8.4 1.4.4 2.3-.2.3-.8.4-1.3.4-.1-.7-.4-1.6-1.2-1.6-1.1-.1-1.8.8-1.9 1.7-.1 1.1.8 2.9 2.1 2.8.5 0 .6-.5 1.1-.5.3.6-.4.8-.5 1.2 0 .1.1.5.1.7.2.9.7 2.2 1.2 2.9.6.9 1.9 1.1 3.2 1.1.2-.5 1.1-.5 1.7-.3-.7-.3-1.3-.9-1.9-1.5-.6-.7-1.2-1.4-1.3-2.3 1.2 1.6 2.1 3 4.2 3.7 1.6.5 3.5-.2 4.7-1.1.5-.4.8-.9 1.2-1.4 1.4-1.9 2-4.7 1.8-7.4-.1-1.1-.1-2.2-.4-3-.4-.8-1.7-1.5-2.5-.8-.1-.8.6-1.2 1.6-1-.4-1-1.1-2.1-2.1-2.6zm3.1 25.1c1.3-.6 3.6-1.7 4.4 0 .3.6.6 1.7.8 2.3.2.9-.2 2.8-1.2 3.1-.8.3-1.8.3-2.8.1-.1-.1-.2-.3-.3-.4-.7 0-1.4 0-1.9.3.1.5-.3.6-.6.7-.2 1 .5 2.3.3 3.2-.1.6-.9.7-1.5.9 0 .4 0 .7.1 1-.1.5-.7.8-1.3.8-1.8.2-4.7.3-6.4-.3-.5-1.2-.9-2.7-1.3-4.1-1.7.2-3.1-.7-4.5-1.4-.5-.2-1.1-.3-1.3-.7-.2-.4-.1-1-.1-1.7-.1-1.6-.2-3.2-.6-4.9-.2-.7-.5-1.4-.8-2.1-.2-.7-.6-1.5-.7-2.2-.1-1 .8-1 1.4-1.5.9-.7 1.6-1 2.6-1.6.3-.2 1.2-.6 1.3-.8.2-.4-.3-1-.5-1.3-.2-.5-.4-.9-.4-1.4-.8-.1-1.5-.6-1.9-1.2-.6-.9-1.1-2.6-.5-4 0-.1.3-.3.3-.5.1-.3-.1-.7-.1-1.1-.1-1.7.3-3.2 1.4-3.7.5-1.9 2.1-2.5 3.7-3.4.6-.3 1.2-.6 1.9-.8 2.4-.9 6.1-.7 8 .8.8.6 2.2 2 2.7 3 1.3 2.6 1.2 6.9.3 10-.1.4-.3 1-.5 1.5-.2.4-.7 1.1-.6 1.4.1.3 1.2 1.2 1.4 1.4.4.4 1.3 1 1.3 1.5.1.6-.2 1.3-.4 1.9-.6 1.9-1.1 3.6-1.7 5.2z"/><path fill="#B4BAC4" d="M354.4 294.8c.1-.1.4-.2 1 0 0 0-.6.1-.6 1.2l-.3-.1s-.2-.9-.1-1.1"/><path fill="#44536B" d="M359 303.8c0 .2-.1.3-.3.3-.2 0-.3-.1-.3-.3 0-.2.1-.3.3-.3.2 0 .3.2.3.3m.3 1.3c0 .2-.1.3-.3.3-.2 0-.3-.1-.3-.3 0-.2.1-.3.3-.3.1.1.3.2.3.3"/></g><g><path stroke="#4187C7" stroke-width="1.418" d="M532.7 387.6c-11.4 2.3-22.9 2.3-34.3 0-2.3-.5-4.8-2.9-5.2-5.2-2.3-11.4-2.3-22.9 0-34.3.5-2.3 2.9-4.8 5.2-5.2 11.4-2.3 22.9-2.3 34.3 0 2.3.5 4.8 2.9 5.2 5.2 2.3 11.4 2.3 22.9 0 34.3-.5 2.3-2.9 4.7-5.2 5.2"/><path d="M504.1 359.4s2.4 6.8 3.2 9.6c.8-2.8 3.2-9.6 3.2-9.6h2.8l-4.8 12.9h-2.8l-4.7-12.9h3.1zm16.5 12.9c-.7-2-2.4-7-3.1-9.3h-.1v9.3h-2.5v-12.9h3.9s2.8 8.3 3.2 9.6c.4-1.3 3.1-9.6 3.1-9.6h3.9v12.9h-2.5V363h-.1c-.7 2.3-2.5 7.7-3.1 9.3h-2.7z" fill="#4187C7" fill-rule="nonzero"/><path stroke="#4187C7" stroke-width="1.418" d="M591.7 387.6c-11.4 2.3-22.9 2.3-34.3 0-2.3-.5-4.8-2.9-5.2-5.2-2.3-11.4-2.3-22.9 0-34.3.5-2.3 2.9-4.8 5.2-5.2 11.4-2.3 22.9-2.3 34.3 0 2.3.5 4.8 2.9 5.2 5.2 2.3 11.4 2.3 22.9 0 34.3-.5 2.3-2.9 4.7-5.2 5.2"/><path d="M566.1 367.7v4.5h-2.7v-12.9h4.9c3.1 0 5.1 1.2 5.1 4.1 0 2.9-2.1 4.3-5.1 4.3h-2.2zm1.9-6h-1.9v3.8h1.9c1.7 0 2.6-.6 2.6-2s-.9-1.8-2.6-1.8zm13-2.6c2.7 0 4.7 1.2 5.5 3.7l-2.7.9c-.4-1.4-1.3-2.3-2.8-2.3-2.3 0-3.4 1.8-3.4 4.4 0 2.5 1.1 4.4 3.4 4.4 1.4 0 2.3-.7 2.8-2.2l2.7.9c-.8 2.2-2.6 3.5-5.5 3.5-3.8 0-6.2-2.5-6.2-6.7-.1-4.1 2.3-6.6 6.2-6.6z" fill="#4187C7" fill-rule="nonzero"/><path stroke="#4187C7" stroke-width="1.418" d="M650.7 387.6c-11.4 2.3-22.9 2.3-34.3 0-2.3-.5-4.8-2.9-5.2-5.2-2.3-11.4-2.3-22.9 0-34.3.5-2.3 2.9-4.8 5.2-5.2 11.4-2.3 22.9-2.3 34.3 0 2.3.5 4.8 2.9 5.2 5.2 2.3 11.4 2.3 22.9 0 34.3-.5 2.3-2.9 4.7-5.2 5.2"/><path d="M629.6 359.4l-3.2 12.9h-3.2s-1.4-6.2-1.9-8.6h-.1c-.5 2.3-2 8.6-2 8.6H616l-3.2-12.9h2.8s1.7 7.3 2.1 9.6h.1c.5-2.4 2.2-9.6 2.2-9.6h2.6s1.8 7.3 2.2 9.6h.1c.5-2.4 2.2-9.6 2.2-9.6h2.5zm12.8 12.9h-2.9l-1-3h-4.6l-1 3h-2.7l4.6-12.9h3l4.6 12.9zm-6.3-9.9c-.2.8-1.5 4.7-1.5 4.7h3.1s-1.3-3.9-1.6-4.7zm13.4 2.2c3.1.5 4.5 1.6 4.5 3.9 0 2.5-2.2 4.1-5.2 4.1-3.3 0-5.2-1.8-5.3-3.9l2.8-.4c.1 1.2 1 2.1 2.6 2.1 1.3 0 2.4-.5 2.4-1.7 0-1-.7-1.4-2.7-1.7-2.7-.4-4.7-1.3-4.7-3.9 0-2.6 2.1-3.9 4.9-3.9 2.7 0 4.7 1.3 5.1 3.5l-2.8.6c-.2-1.2-1-1.9-2.4-1.9s-2.1.6-2.1 1.4c-.1 1.1.8 1.4 2.9 1.8z" fill="#4187C7" fill-rule="nonzero"/><g><path stroke="#4187C7" stroke-width="1.418" d="M534.3 446.6c-11.4 2.3-22.9 2.3-34.3 0-2.3-.5-4.8-2.9-5.2-5.2-2.3-11.4-2.3-22.9 0-34.3.5-2.3 2.9-4.8 5.2-5.2 11.4-2.3 22.9-2.3 34.3 0 2.3.5 4.8 2.9 5.2 5.2 2.3 11.4 2.3 22.9 0 34.3-.5 2.3-2.9 4.7-5.2 5.2"/><g fill="#4187C7" fill-rule="nonzero"><path d="M506.1 418.4h10.2v2.3h-3.7v10.6h-2.8v-10.6h-3.7zM520.7 426.8v4.5H518v-12.9h4.9c3.1 0 5.1 1.2 5.1 4.1 0 2.9-2.1 4.3-5.1 4.3h-2.2zm1.9-6.1h-1.9v3.8h1.9c1.7 0 2.6-.6 2.6-2s-.9-1.8-2.6-1.8z"/></g><path stroke="#4187C7" stroke-width="1.419" d="M652.3 446.6c-11.4 2.3-22.9 2.3-34.3 0-2.3-.5-4.8-2.9-5.3-5.3-2.3-11.4-2.3-22.9 0-34.3.5-2.3 2.9-4.8 5.3-5.3 11.4-2.3 22.9-2.3 34.3 0 2.3.5 4.8 2.9 5.3 5.3 2.3 11.4 2.3 22.9 0 34.3-.5 2.4-2.9 4.8-5.3 5.3"/><path fill="#4187C7" fill-rule="nonzero" d="M623.203 418c2.7 0 4.7 1.2 5.5 3.7l-2.7.9c-.4-1.4-1.3-2.3-2.8-2.3-2.3 0-3.4 1.8-3.4 4.4 0 2.5 1.1 4.4 3.4 4.4 1.4 0 2.3-.7 2.8-2.2l2.7.9c-.8 2.2-2.6 3.5-5.5 3.5-3.8 0-6.2-2.5-6.2-6.7-.1-4.1 2.3-6.6 6.2-6.6zM636 423.4c3.1.5 4.5 1.6 4.5 3.9 0 2.5-2.2 4.1-5.2 4.1-3.3 0-5.2-1.8-5.3-3.9l2.8-.4c.1 1.2 1 2.1 2.6 2.1 1.3 0 2.4-.5 2.4-1.7 0-1-.7-1.4-2.7-1.7-2.7-.4-4.7-1.3-4.7-3.9 0-2.6 2.1-3.9 4.9-3.9 2.7 0 4.7 1.3 5.1 3.5l-2.8.6c-.2-1.2-1-1.9-2.4-1.9s-2.1.6-2.1 1.4c-.1 1.1.8 1.4 2.9 1.8zm17.6 7.7h-2.9l-1-3h-4.6l-1 3h-2.7l4.6-12.9h3l4.6 12.9zm-6.3-9.9c-.2.8-1.5 4.7-1.5 4.7h3.1s-1.3-3.9-1.6-4.7z"/><g><path stroke="#4187C7" stroke-width="1.419" d="M593.3 446.6c-11.4 2.3-22.9 2.3-34.3 0-2.3-.5-4.8-2.9-5.3-5.3-2.3-11.4-2.3-22.9 0-34.3.5-2.3 2.9-4.8 5.3-5.3 11.4-2.3 22.9-2.3 34.3 0 2.3.5 4.8 2.9 5.3 5.3 2.3 11.4 2.3 22.9 0 34.3-.5 2.4-3 4.8-5.3 5.3"/><path fill="#4187C7" fill-rule="nonzero" d="M570.203 418c2.7 0 4.7 1.2 5.5 3.7l-2.7.9c-.4-1.4-1.3-2.3-2.8-2.3-2.3 0-3.4 1.8-3.4 4.4 0 2.5 1.1 4.4 3.4 4.4 1.4 0 2.3-.7 2.8-2.2l2.7.9c-.8 2.2-2.6 3.5-5.5 3.5-3.8 0-6.2-2.5-6.2-6.7-.1-4.1 2.3-6.6 6.2-6.6zM583 423.4c3.1.5 4.5 1.6 4.5 3.9 0 2.5-2.2 4.1-5.2 4.1-3.3 0-5.2-1.8-5.3-3.9l2.8-.4c.1 1.2 1 2.1 2.6 2.1 1.3 0 2.4-.5 2.4-1.7 0-1-.7-1.4-2.7-1.7-2.7-.4-4.7-1.3-4.7-3.9 0-2.6 2.1-3.9 4.9-3.9 2.7 0 4.7 1.3 5.1 3.5l-2.8.6c-.2-1.2-1-1.9-2.4-1.9s-2.1.6-2.1 1.4c-.1 1.1.8 1.4 2.9 1.8z"/></g></g></g></g></svg>