<svg width="552" height="470" viewBox="0 0 552 470" xmlns="http://www.w3.org/2000/svg"><defs><linearGradient x1="28.731%" y1="2.993%" x2="71.894%" y2="97.007%" id="b"><stop stop-color="#B8CBDC" offset="0%"/><stop stop-color="#B8CBDC" stop-opacity="0" offset="100%"/></linearGradient><linearGradient x1="85.857%" y1="97.006%" x2="23.174%" y2="-2.537%" id="c"><stop stop-color="#B8CBDC" offset="0%"/><stop stop-color="#B8CBDC" stop-opacity=".021" offset="100%"/><stop stop-color="#B8CBDC" stop-opacity="0" offset="100%"/></linearGradient><filter x="-18.5%" y="-18.5%" width="136.9%" height="136.9%" filterUnits="objectBoundingBox" id="a"><feOffset in="SourceAlpha" result="shadowOffsetOuter1"/><feGaussianBlur stdDeviation="8" in="shadowOffsetOuter1" result="shadowBlurOuter1"/><feColorMatrix values="0 0 0 0 0 0 0 0 0 0 0 0 0 0 0 0 0 0 0.2 0" in="shadowBlurOuter1" result="shadowMatrixOuter1"/><feMerge><feMergeNode in="shadowMatrixOuter1"/><feMergeNode in="SourceGraphic"/></feMerge></filter></defs><g fill="none" fill-rule="evenodd"><path d="M266.636 422.396c-110.235 0-199.605-89.364-199.605-199.6 0-110.239 89.368-199.604 199.605-199.604 110.238 0 199.6 89.365 199.6 199.605 0 110.233-89.364 199.599-199.6 199.599z" fill="#B5D0E5" opacity=".15"/><path d="M309.39 27.767c68.7 31.525 116.417 100.948 116.417 181.525 0 110.231-89.308 199.595-199.473 199.595a200.104 200.104 0 01-42.63-4.568c25.289 11.604 53.418 18.077 83.059 18.077 110.165 0 199.473-89.365 199.473-199.596 0-95.597-67.16-175.497-156.846-195.033" fill="#9BC0E0" opacity=".15"/><path d="M82.243 230.48c0-110.234 89.45-199.597 199.79-199.597 29.38 0 57.277 6.336 82.4 17.715-28.864-16.18-62.159-25.406-97.612-25.406-110.34 0-199.79 89.363-199.79 199.598 0 80.879 48.158 150.522 117.387 181.876-60.971-34.175-102.175-99.373-102.175-174.185" fill="#FFF" opacity=".15"/><path d="M343.844 81.814a2.574 2.574 0 11-5.148 0 2.574 2.574 0 015.148 0M343.844 53.218a2.574 2.574 0 11-5.148 0 2.574 2.574 0 015.148 0M308.384 88.105a2.574 2.574 0 11-5.147 0 2.574 2.574 0 015.147 0M308.384 58.937a2.574 2.574 0 11-5.147 0 2.574 2.574 0 015.147 0M322.682 88.105a2.574 2.574 0 11-5.147 0 2.574 2.574 0 015.147 0" fill="#B3CEE2" opacity=".601"/><path d="M322.682 58.937a2.574 2.574 0 11-5.147 0 2.574 2.574 0 015.147 0" fill="#EC3128" opacity=".8"/><path d="M336.408 88.105a2.574 2.574 0 11-5.147 0 2.574 2.574 0 015.147 0M159.112 81.814a2.574 2.574 0 11-5.148 0 2.574 2.574 0 015.148 0" fill="#B3CEE2" opacity=".601"/><path d="M173.41 81.814a2.574 2.574 0 11-5.148 0 2.574 2.574 0 015.148 0" fill="#20386D" opacity=".8"/><path d="M187.708 81.814a2.574 2.574 0 11-5.147 0 2.574 2.574 0 015.147 0M173.41 66.944a2.574 2.574 0 11-5.148 0 2.574 2.574 0 015.148 0M187.708 66.944a2.574 2.574 0 11-5.147 0 2.574 2.574 0 015.147 0M187.708 53.218a2.574 2.574 0 11-5.147 0 2.574 2.574 0 015.147 0M200.862 53.218a2.574 2.574 0 11-5.147 0 2.574 2.574 0 015.147 0M145.385 94.396a2.573 2.573 0 11-5.146 0 2.573 2.573 0 015.146 0M159.112 94.396a2.573 2.573 0 11-5.147 0 2.573 2.573 0 015.147 0M165.975 73.807a2.574 2.574 0 11-5.148 0 2.574 2.574 0 015.148 0M179.7 73.807a2.574 2.574 0 11-5.146 0 2.574 2.574 0 015.147 0M165.975 88.105a2.574 2.574 0 11-5.148 0 2.574 2.574 0 015.148 0M179.7 88.105a2.574 2.574 0 11-5.146 0 2.574 2.574 0 015.147 0M151.676 88.105a2.574 2.574 0 11-5.147 0 2.574 2.574 0 015.147 0M145.385 81.814a2.574 2.574 0 11-5.147 0 2.574 2.574 0 015.147 0M131.087 94.396a2.573 2.573 0 11-5.147 0 2.573 2.573 0 015.147 0M137.95 88.105a2.574 2.574 0 11-5.147 0 2.574 2.574 0 015.147 0M193.999 73.807a2.574 2.574 0 11-5.147 0 2.574 2.574 0 015.147 0M179.7 60.08a2.574 2.574 0 11-5.146.001 2.574 2.574 0 015.147 0M193.999 60.08a2.574 2.574 0 11-5.147 0 2.574 2.574 0 015.147 0M350.707 88.105a2.574 2.574 0 11-5.147 0 2.574 2.574 0 015.147 0M364.433 88.105a2.574 2.574 0 11-5.147 0 2.574 2.574 0 015.147 0M378.731 88.105a2.574 2.574 0 11-5.147 0 2.574 2.574 0 015.147 0M315.247 94.968a2.573 2.573 0 11-5.147 0 2.573 2.573 0 015.147 0M329.545 94.968a2.573 2.573 0 11-5.147 0 2.573 2.573 0 015.147 0M329.545 53.218a2.574 2.574 0 11-5.147 0 2.574 2.574 0 015.147 0M343.844 94.968a2.574 2.574 0 11-5.147 0 2.574 2.574 0 015.147 0M357.57 94.968a2.573 2.573 0 11-5.147 0 2.573 2.573 0 015.147 0M371.868 94.968a2.573 2.573 0 11-5.147 0 2.573 2.573 0 015.147 0M385.594 94.968a2.574 2.574 0 11-5.147 0 2.574 2.574 0 015.147 0" fill="#B3CEE2" opacity=".601"/><path d="M399.32 94.968a2.573 2.573 0 11-5.147 0 2.573 2.573 0 015.147 0" fill="#EC3128" opacity=".8"/><path d="M315.247 110.41a2.574 2.574 0 11-5.147 0 2.574 2.574 0 015.147 0M329.545 110.41a2.574 2.574 0 11-5.147 0 2.574 2.574 0 015.147 0M343.844 110.41a2.574 2.574 0 11-5.148 0 2.574 2.574 0 015.148 0M287.223 110.41a2.574 2.574 0 11-5.147 0 2.574 2.574 0 015.147 0M301.521 110.41a2.574 2.574 0 11-5.147 0 2.574 2.574 0 015.147 0M308.384 116.701a2.574 2.574 0 11-5.147 0 2.574 2.574 0 015.147 0M280.36 116.701a2.574 2.574 0 11-5.147 0 2.574 2.574 0 015.147 0M294.658 116.701a2.574 2.574 0 11-5.147 0 2.574 2.574 0 015.147 0M357.57 110.41a2.574 2.574 0 11-5.147 0 2.574 2.574 0 015.147 0M371.868 110.41a2.574 2.574 0 11-5.147 0 2.574 2.574 0 015.147 0M385.594 110.41a2.574 2.574 0 11-5.147 0 2.574 2.574 0 015.147 0M399.32 110.41a2.574 2.574 0 11-5.147 0 2.574 2.574 0 015.147 0M413.618 110.41a2.574 2.574 0 11-5.147 0 2.574 2.574 0 015.147 0M315.247 138.435a2.573 2.573 0 11-5.146 0 2.573 2.573 0 015.146 0M329.545 138.435a2.573 2.573 0 11-5.146 0 2.573 2.573 0 015.146 0M343.844 138.435a2.573 2.573 0 11-5.147 0 2.573 2.573 0 015.147 0M301.521 138.435a2.573 2.573 0 11-5.147 0 2.573 2.573 0 015.147 0M357.57 138.435a2.573 2.573 0 11-5.147 0 2.573 2.573 0 015.147 0M371.868 138.435a2.573 2.573 0 11-5.147 0 2.573 2.573 0 015.147 0M385.594 138.435a2.573 2.573 0 11-5.147 0 2.573 2.573 0 015.147 0M399.32 138.435a2.573 2.573 0 11-5.146 0 2.573 2.573 0 015.146 0M413.618 138.435a2.573 2.573 0 11-5.146 0 2.573 2.573 0 015.146 0M427.345 138.435a2.573 2.573 0 11-5.147 0 2.573 2.573 0 015.147 0M441.643 138.435a2.573 2.573 0 11-5.147 0 2.573 2.573 0 015.147 0M315.247 152.733a2.573 2.573 0 11-5.146 0 2.573 2.573 0 015.146 0M329.545 152.733a2.573 2.573 0 11-5.146 0 2.573 2.573 0 015.146 0M343.844 152.733a2.573 2.573 0 11-5.147 0 2.573 2.573 0 015.147 0M301.521 152.733a2.573 2.573 0 11-5.147 0 2.573 2.573 0 015.147 0M287.223 152.733a2.573 2.573 0 11-5.147 0 2.573 2.573 0 015.147 0M357.57 152.733a2.573 2.573 0 11-5.147 0 2.573 2.573 0 015.147 0M371.868 152.733a2.573 2.573 0 11-5.147 0 2.573 2.573 0 015.147 0M385.594 152.733a2.573 2.573 0 11-5.147 0 2.573 2.573 0 015.147 0M399.32 152.733a2.573 2.573 0 11-5.146 0 2.573 2.573 0 015.146 0M413.618 152.733a2.573 2.573 0 11-5.146 0 2.573 2.573 0 015.146 0" fill="#B3CEE2" opacity=".601"/><path d="M427.345 152.733a2.573 2.573 0 11-5.147 0 2.573 2.573 0 015.147 0" fill="#EC3128" opacity=".8"/><path d="M441.643 152.733a2.573 2.573 0 11-5.147 0 2.573 2.573 0 015.147 0M315.247 167.03a2.573 2.573 0 11-5.147.001 2.573 2.573 0 015.147 0M329.545 167.03a2.573 2.573 0 11-5.147.001 2.573 2.573 0 015.147 0M343.844 167.03a2.574 2.574 0 11-5.147.001 2.574 2.574 0 015.147 0M301.521 167.03a2.574 2.574 0 11-5.147.001 2.574 2.574 0 015.147 0M357.57 167.03a2.573 2.573 0 11-5.147.001 2.573 2.573 0 015.147 0M371.868 167.03a2.573 2.573 0 11-5.147.001 2.573 2.573 0 015.147 0M385.594 167.03a2.574 2.574 0 11-5.147.001 2.574 2.574 0 015.147 0M399.32 167.03a2.573 2.573 0 11-5.147.001 2.573 2.573 0 015.147 0M413.618 167.03a2.574 2.574 0 11-5.147.001 2.574 2.574 0 015.147 0M427.345 167.03a2.573 2.573 0 11-5.147.001 2.573 2.573 0 015.147 0M441.643 167.03a2.573 2.573 0 11-5.147.001 2.573 2.573 0 015.147 0M329.545 181.329a2.574 2.574 0 11-5.147 0 2.574 2.574 0 015.147 0M343.844 181.329a2.574 2.574 0 11-5.148 0 2.574 2.574 0 015.148 0M357.57 181.329a2.574 2.574 0 11-5.147 0 2.574 2.574 0 015.147 0M371.868 181.329a2.574 2.574 0 11-5.147 0 2.574 2.574 0 015.147 0M385.594 181.329a2.574 2.574 0 11-5.147 0 2.574 2.574 0 015.147 0M399.32 181.329a2.574 2.574 0 11-5.147 0 2.574 2.574 0 015.147 0M413.618 181.329a2.574 2.574 0 11-5.147 0 2.574 2.574 0 015.147 0M427.345 181.329a2.574 2.574 0 11-5.147 0 2.574 2.574 0 015.147 0M441.643 181.329a2.574 2.574 0 11-5.147 0 2.574 2.574 0 015.147 0M455.369 181.329a2.574 2.574 0 11-5.147 0 2.574 2.574 0 015.147 0M371.868 195.055a2.573 2.573 0 11-5.147 0 2.573 2.573 0 015.147 0M385.594 195.055a2.574 2.574 0 11-5.147 0 2.574 2.574 0 015.147 0M399.32 195.055a2.573 2.573 0 11-5.147 0 2.573 2.573 0 015.147 0M413.618 195.055a2.574 2.574 0 11-5.147 0 2.574 2.574 0 015.147 0M427.345 195.055a2.573 2.573 0 11-5.147 0 2.573 2.573 0 015.147 0M441.643 195.055a2.573 2.573 0 11-5.147 0 2.573 2.573 0 015.147 0M455.369 195.055a2.574 2.574 0 11-5.147 0 2.574 2.574 0 015.147 0M329.545 124.136a2.573 2.573 0 11-5.147.001 2.573 2.573 0 015.147 0M343.844 124.136a2.574 2.574 0 11-5.147 0 2.574 2.574 0 015.147 0M357.57 124.136a2.573 2.573 0 11-5.147.001 2.573 2.573 0 015.147 0M371.868 124.136a2.573 2.573 0 11-5.147.001 2.573 2.573 0 015.147 0M385.594 124.136a2.574 2.574 0 11-5.147 0 2.574 2.574 0 015.147 0M399.32 124.136a2.573 2.573 0 11-5.147.001 2.573 2.573 0 015.147 0M413.618 124.136a2.574 2.574 0 11-5.147 0 2.574 2.574 0 015.147 0M427.345 124.136a2.573 2.573 0 11-5.147.001 2.573 2.573 0 015.147 0M336.408 116.701a2.574 2.574 0 11-5.147 0 2.574 2.574 0 015.147 0M350.707 116.701a2.574 2.574 0 11-5.147 0 2.574 2.574 0 015.147 0M364.433 116.701a2.574 2.574 0 11-5.147 0 2.574 2.574 0 015.147 0M378.731 116.701a2.574 2.574 0 11-5.147 0 2.574 2.574 0 015.147 0M393.03 116.701a2.574 2.574 0 11-5.148 0 2.574 2.574 0 015.147 0M406.183 116.701a2.574 2.574 0 11-5.147 0 2.574 2.574 0 015.147 0M420.482 116.701a2.574 2.574 0 11-5.148 0 2.574 2.574 0 015.148 0M336.408 131.572a2.574 2.574 0 11-5.147 0 2.574 2.574 0 015.147 0M322.11 131.572a2.573 2.573 0 11-5.147 0 2.573 2.573 0 015.147 0" fill="#B3CEE2" opacity=".601"/><path d="M350.707 131.572a2.573 2.573 0 11-5.147 0 2.573 2.573 0 015.147 0" fill="#20386D" opacity=".8"/><path d="M364.433 131.572a2.573 2.573 0 11-5.147 0 2.573 2.573 0 015.147 0M378.731 131.572a2.573 2.573 0 11-5.147 0 2.573 2.573 0 015.147 0M393.03 131.572a2.573 2.573 0 11-5.148 0 2.573 2.573 0 015.147 0M406.183 131.572a2.573 2.573 0 11-5.146 0 2.573 2.573 0 015.146 0M420.482 131.572a2.573 2.573 0 11-5.147 0 2.573 2.573 0 015.147 0M434.78 131.572a2.573 2.573 0 11-5.147 0 2.573 2.573 0 015.147 0M336.408 144.726a2.574 2.574 0 11-5.147 0 2.574 2.574 0 015.147 0M322.11 144.726a2.573 2.573 0 11-5.147 0 2.573 2.573 0 015.147 0M350.707 144.726a2.573 2.573 0 11-5.147 0 2.573 2.573 0 015.147 0M307.812 144.726a2.573 2.573 0 11-5.147 0 2.573 2.573 0 015.147 0M293.514 144.726a2.574 2.574 0 11-5.147 0 2.574 2.574 0 015.147 0M364.433 144.726a2.573 2.573 0 11-5.147 0 2.573 2.573 0 015.147 0M378.731 144.726a2.573 2.573 0 11-5.147 0 2.573 2.573 0 015.147 0M393.03 144.726a2.573 2.573 0 11-5.148 0 2.573 2.573 0 015.147 0M406.183 144.726a2.573 2.573 0 11-5.146 0 2.573 2.573 0 015.146 0M420.482 144.726a2.573 2.573 0 11-5.147 0 2.573 2.573 0 015.147 0M434.78 144.726a2.573 2.573 0 11-5.147 0 2.573 2.573 0 015.147 0M336.408 159.596a2.574 2.574 0 11-5.147 0 2.574 2.574 0 015.147 0M322.11 159.596a2.573 2.573 0 11-5.147 0 2.573 2.573 0 015.147 0M350.707 159.596a2.573 2.573 0 11-5.147 0 2.573 2.573 0 015.147 0M364.433 159.596a2.573 2.573 0 11-5.147 0 2.573 2.573 0 015.147 0M294.086 159.596a2.574 2.574 0 11-5.147 0 2.574 2.574 0 015.147 0M279.216 159.596a2.573 2.573 0 11-5.147 0 2.573 2.573 0 015.147 0M307.812 159.596a2.573 2.573 0 11-5.147 0 2.573 2.573 0 015.147 0M378.731 159.596a2.573 2.573 0 11-5.147 0 2.573 2.573 0 015.147 0M393.03 159.596a2.573 2.573 0 11-5.148 0 2.573 2.573 0 015.147 0M406.183 159.596a2.573 2.573 0 11-5.146 0 2.573 2.573 0 015.146 0M420.482 159.596a2.573 2.573 0 11-5.147 0 2.573 2.573 0 015.147 0M434.78 159.596a2.573 2.573 0 11-5.147 0 2.573 2.573 0 015.147 0M448.506 159.596a2.574 2.574 0 11-5.147 0 2.574 2.574 0 015.147 0M448.506 174.466a2.574 2.574 0 11-5.147 0 2.574 2.574 0 015.147 0M336.408 173.894a2.574 2.574 0 11-5.147 0 2.574 2.574 0 015.147 0M322.11 173.894a2.573 2.573 0 11-5.147 0 2.573 2.573 0 015.147 0M350.707 173.894a2.573 2.573 0 11-5.147 0 2.573 2.573 0 015.147 0M364.433 173.894a2.573 2.573 0 11-5.147 0 2.573 2.573 0 015.147 0M307.812 173.894a2.573 2.573 0 11-5.147 0 2.573 2.573 0 015.147 0M378.731 173.894a2.573 2.573 0 11-5.147 0 2.573 2.573 0 015.147 0M393.03 173.894a2.573 2.573 0 11-5.148 0 2.573 2.573 0 015.147 0M406.183 173.894a2.573 2.573 0 11-5.146 0 2.573 2.573 0 015.146 0M420.482 173.894a2.573 2.573 0 11-5.147 0 2.573 2.573 0 015.147 0M434.78 173.894a2.573 2.573 0 11-5.147 0 2.573 2.573 0 015.147 0M448.506 188.764a2.574 2.574 0 11-5.147 0 2.574 2.574 0 015.147 0M364.433 188.764a2.573 2.573 0 11-5.147 0 2.573 2.573 0 015.147 0M378.731 188.764a2.573 2.573 0 11-5.147 0 2.573 2.573 0 015.147 0M393.03 188.764a2.573 2.573 0 11-5.148 0 2.573 2.573 0 015.147 0M406.183 188.764a2.573 2.573 0 11-5.146 0 2.573 2.573 0 015.146 0M420.482 188.764a2.573 2.573 0 11-5.147 0 2.573 2.573 0 015.147 0M434.78 188.764a2.573 2.573 0 11-5.147 0 2.573 2.573 0 015.147 0M448.506 202.49a2.574 2.574 0 11-5.147 0 2.574 2.574 0 015.147 0M378.731 202.49a2.573 2.573 0 11-5.147 0 2.573 2.573 0 015.147 0M393.03 202.49a2.574 2.574 0 11-5.148 0 2.574 2.574 0 015.147 0M406.183 202.49a2.574 2.574 0 11-5.147 0 2.574 2.574 0 015.147 0M420.482 202.49a2.573 2.573 0 11-5.147 0 2.573 2.573 0 015.147 0M434.78 202.49a2.574 2.574 0 11-5.147 0 2.574 2.574 0 015.147 0M308.384 202.49a2.573 2.573 0 11-5.147 0 2.573 2.573 0 015.147 0M322.682 202.49a2.574 2.574 0 11-5.147 0 2.574 2.574 0 015.147 0M336.408 202.49a2.574 2.574 0 11-5.147 0 2.574 2.574 0 015.147 0M350.707 202.49a2.573 2.573 0 11-5.147 0 2.573 2.573 0 015.147 0M364.433 202.49a2.574 2.574 0 11-5.147 0 2.574 2.574 0 015.147 0M238.61 202.49a2.573 2.573 0 11-5.148 0 2.573 2.573 0 015.147 0M252.907 202.49a2.574 2.574 0 11-5.147 0 2.574 2.574 0 015.147 0M266.634 202.49a2.573 2.573 0 11-5.147 0 2.573 2.573 0 015.147 0M280.36 202.49a2.574 2.574 0 11-5.147 0 2.574 2.574 0 015.147 0M294.658 202.49a2.574 2.574 0 11-5.147 0 2.574 2.574 0 015.147 0M266.634 188.764a2.573 2.573 0 11-5.147 0 2.573 2.573 0 015.147 0M280.36 188.764a2.573 2.573 0 11-5.147 0 2.573 2.573 0 015.147 0M294.658 188.764a2.573 2.573 0 11-5.147 0 2.573 2.573 0 015.147 0M378.731 216.788a2.573 2.573 0 11-5.147.001 2.573 2.573 0 015.147 0M393.03 216.788a2.574 2.574 0 11-5.148 0 2.574 2.574 0 015.147 0M406.183 216.788a2.574 2.574 0 11-5.147 0 2.574 2.574 0 015.147 0M448.506 216.788a2.574 2.574 0 11-5.147 0 2.574 2.574 0 015.147 0M462.804 216.788a2.573 2.573 0 11-5.147.001 2.573 2.573 0 015.147 0M308.384 216.788a2.573 2.573 0 11-5.147.001 2.573 2.573 0 015.147 0M322.682 216.788a2.574 2.574 0 11-5.147 0 2.574 2.574 0 015.147 0M336.408 216.788a2.574 2.574 0 11-5.147 0 2.574 2.574 0 015.147 0M350.707 216.788a2.573 2.573 0 11-5.147.001 2.573 2.573 0 015.147 0M364.433 216.788a2.574 2.574 0 11-5.147 0 2.574 2.574 0 015.147 0M238.61 216.788a2.573 2.573 0 11-5.148.001 2.573 2.573 0 015.147 0M252.907 216.788a2.574 2.574 0 11-5.147 0 2.574 2.574 0 015.147 0M224.883 216.788a2.574 2.574 0 11-5.147 0 2.574 2.574 0 015.147 0M266.634 216.788a2.573 2.573 0 11-5.147.001 2.573 2.573 0 015.147 0M280.36 216.788a2.574 2.574 0 11-5.147 0 2.574 2.574 0 015.147 0M294.658 216.788a2.574 2.574 0 11-5.147 0 2.574 2.574 0 015.147 0M439.927 209.353a2.573 2.573 0 11-5.147.001 2.573 2.573 0 015.147 0M370.152 209.353a2.573 2.573 0 11-5.147.001 2.573 2.573 0 015.147 0M384.45 209.353a2.574 2.574 0 11-5.147 0 2.574 2.574 0 015.147 0M398.176 209.353a2.573 2.573 0 11-5.146.001 2.573 2.573 0 015.146 0M412.475 209.353a2.574 2.574 0 11-5.147 0 2.574 2.574 0 015.147 0M426.2 209.353a2.574 2.574 0 11-5.146 0 2.574 2.574 0 015.147 0M454.225 209.353a2.574 2.574 0 11-5.147 0 2.574 2.574 0 015.147 0M299.805 209.353a2.574 2.574 0 11-5.147 0 2.574 2.574 0 015.147 0M314.103 209.353a2.574 2.574 0 11-5.147 0 2.574 2.574 0 015.147 0M327.83 209.353a2.573 2.573 0 11-5.147.001 2.573 2.573 0 015.147 0M342.128 209.353a2.574 2.574 0 11-5.147 0 2.574 2.574 0 015.147 0M356.426 209.353a2.574 2.574 0 11-5.147 0 2.574 2.574 0 015.147 0M230.03 209.353a2.574 2.574 0 11-5.147 0 2.574 2.574 0 015.147 0M244.328 209.353a2.574 2.574 0 11-5.147 0 2.574 2.574 0 015.147 0M258.055 209.353a2.573 2.573 0 11-5.147.001 2.573 2.573 0 015.147 0M272.353 209.353a2.574 2.574 0 11-5.147 0 2.574 2.574 0 015.147 0M286.65 209.353a2.573 2.573 0 11-5.146.001 2.573 2.573 0 015.147 0M244.328 195.055a2.574 2.574 0 11-5.147 0 2.574 2.574 0 015.147 0M258.055 195.055a2.573 2.573 0 11-5.147 0 2.573 2.573 0 015.147 0M272.353 195.055a2.574 2.574 0 11-5.147 0 2.574 2.574 0 015.147 0M286.65 195.055a2.573 2.573 0 11-5.146 0 2.573 2.573 0 015.147 0M370.152 223.08a2.573 2.573 0 11-5.147 0 2.573 2.573 0 015.147 0M384.45 223.08a2.574 2.574 0 11-5.147 0 2.574 2.574 0 015.147 0M398.176 223.08a2.573 2.573 0 11-5.146 0 2.573 2.573 0 015.146 0M412.475 223.08a2.574 2.574 0 11-5.147 0 2.574 2.574 0 015.147 0M426.2 223.08a2.574 2.574 0 11-5.146 0 2.574 2.574 0 015.147 0M439.927 223.08a2.573 2.573 0 11-5.147 0 2.573 2.573 0 015.147 0M299.805 223.08a2.574 2.574 0 11-5.147 0 2.574 2.574 0 015.147 0M314.103 223.08a2.574 2.574 0 11-5.147 0 2.574 2.574 0 015.147 0M327.83 223.08a2.573 2.573 0 11-5.147 0 2.573 2.573 0 015.147 0M342.128 223.08a2.574 2.574 0 11-5.147 0 2.574 2.574 0 015.147 0M356.426 223.08a2.574 2.574 0 11-5.147 0 2.574 2.574 0 015.147 0M230.03 223.08a2.574 2.574 0 11-5.147 0 2.574 2.574 0 015.147 0M244.328 223.08a2.574 2.574 0 11-5.147 0 2.574 2.574 0 015.147 0M258.055 223.08a2.573 2.573 0 11-5.147 0 2.573 2.573 0 015.147 0M272.353 223.08a2.574 2.574 0 11-5.147 0 2.574 2.574 0 015.147 0M286.65 223.08a2.573 2.573 0 11-5.146 0 2.573 2.573 0 015.147 0" fill="#B3CEE2" opacity=".601"/><path d="M378.731 231.087a2.573 2.573 0 11-5.147 0 2.573 2.573 0 015.147 0" fill="#20386D" opacity=".8"/><path d="M393.03 231.087a2.573 2.573 0 11-5.148 0 2.573 2.573 0 015.147 0M406.183 231.087a2.573 2.573 0 11-5.146 0 2.573 2.573 0 015.146 0M420.482 231.087a2.573 2.573 0 11-5.147 0 2.573 2.573 0 015.147 0M434.78 231.087a2.573 2.573 0 11-5.147 0 2.573 2.573 0 015.147 0M308.384 231.087a2.573 2.573 0 11-5.147 0 2.573 2.573 0 015.147 0M322.682 231.087a2.573 2.573 0 11-5.147 0 2.573 2.573 0 015.147 0M336.408 231.087a2.574 2.574 0 11-5.147 0 2.574 2.574 0 015.147 0M350.707 231.087a2.573 2.573 0 11-5.147 0 2.573 2.573 0 015.147 0M364.433 231.087a2.573 2.573 0 11-5.147 0 2.573 2.573 0 015.147 0M238.61 231.087a2.573 2.573 0 11-5.148 0 2.573 2.573 0 015.147 0M252.907 231.087a2.573 2.573 0 11-5.147 0 2.573 2.573 0 015.147 0M266.634 231.087a2.573 2.573 0 11-5.147 0 2.573 2.573 0 015.147 0M210.585 231.087a2.573 2.573 0 11-5.147 0 2.573 2.573 0 015.147 0M224.883 231.087a2.574 2.574 0 11-5.147 0 2.574 2.574 0 015.147 0M280.36 231.087a2.573 2.573 0 11-5.147 0 2.573 2.573 0 015.147 0M294.658 231.087a2.573 2.573 0 11-5.147 0 2.573 2.573 0 015.147 0M378.731 245.385a2.573 2.573 0 11-5.147 0 2.573 2.573 0 015.147 0M393.03 245.385a2.573 2.573 0 11-5.148 0 2.573 2.573 0 015.147 0M406.183 245.385a2.573 2.573 0 11-5.146 0 2.573 2.573 0 015.146 0M420.482 245.385a2.573 2.573 0 11-5.147 0 2.573 2.573 0 015.147 0M308.384 245.385a2.573 2.573 0 11-5.147 0 2.573 2.573 0 015.147 0M322.682 245.385a2.573 2.573 0 11-5.147 0 2.573 2.573 0 015.147 0M336.408 245.385a2.574 2.574 0 11-5.147 0 2.574 2.574 0 015.147 0M350.707 245.385a2.573 2.573 0 11-5.147 0 2.573 2.573 0 015.147 0M364.433 245.385a2.573 2.573 0 11-5.147 0 2.573 2.573 0 015.147 0M238.61 245.385a2.573 2.573 0 11-5.148 0 2.573 2.573 0 015.147 0M252.907 245.385a2.573 2.573 0 11-5.147 0 2.573 2.573 0 015.147 0M224.883 245.385a2.574 2.574 0 11-5.147 0 2.574 2.574 0 015.147 0M266.634 245.385a2.573 2.573 0 11-5.147 0 2.573 2.573 0 015.147 0M280.36 245.385a2.573 2.573 0 11-5.147 0 2.573 2.573 0 015.147 0M294.658 245.385a2.573 2.573 0 11-5.147 0 2.573 2.573 0 015.147 0M378.731 259.683a2.573 2.573 0 11-5.147 0 2.573 2.573 0 015.147 0M393.03 259.683a2.573 2.573 0 11-5.148 0 2.573 2.573 0 015.147 0M406.183 259.683a2.573 2.573 0 11-5.146 0 2.573 2.573 0 015.146 0M308.384 259.683a2.573 2.573 0 11-5.147 0 2.573 2.573 0 015.147 0M322.682 259.683a2.573 2.573 0 11-5.147 0 2.573 2.573 0 015.147 0M336.408 259.683a2.574 2.574 0 11-5.147 0 2.574 2.574 0 015.147 0M350.707 259.683a2.573 2.573 0 11-5.147 0 2.573 2.573 0 015.147 0M364.433 259.683a2.573 2.573 0 11-5.147 0 2.573 2.573 0 015.147 0M238.61 259.683a2.573 2.573 0 11-5.148 0 2.573 2.573 0 015.147 0M252.907 259.683a2.573 2.573 0 11-5.147 0 2.573 2.573 0 015.147 0M238.61 273.409a2.573 2.573 0 11-5.148 0 2.573 2.573 0 015.147 0M252.907 273.409a2.574 2.574 0 11-5.147 0 2.574 2.574 0 015.147 0M224.883 259.683a2.574 2.574 0 11-5.147 0 2.574 2.574 0 015.147 0M266.634 259.683a2.573 2.573 0 11-5.147 0 2.573 2.573 0 015.147 0M280.36 259.683a2.573 2.573 0 11-5.147 0 2.573 2.573 0 015.147 0M294.658 259.683a2.573 2.573 0 11-5.147 0 2.573 2.573 0 015.147 0M378.731 273.409a2.573 2.573 0 11-5.147 0 2.573 2.573 0 015.147 0M393.03 273.409a2.574 2.574 0 11-5.148 0 2.574 2.574 0 015.147 0M406.183 273.409a2.574 2.574 0 11-5.147 0 2.574 2.574 0 015.147 0M308.384 273.409a2.573 2.573 0 11-5.147 0 2.573 2.573 0 015.147 0M322.682 273.409a2.574 2.574 0 11-5.147 0 2.574 2.574 0 015.147 0M336.408 273.409a2.574 2.574 0 11-5.147 0 2.574 2.574 0 015.147 0M350.707 273.409a2.573 2.573 0 11-5.147 0 2.573 2.573 0 015.147 0M364.433 273.409a2.574 2.574 0 11-5.147 0 2.574 2.574 0 015.147 0M280.36 273.409a2.574 2.574 0 11-5.147 0 2.574 2.574 0 015.147 0M294.658 273.409a2.574 2.574 0 11-5.147 0 2.574 2.574 0 015.147 0M378.731 288.279a2.573 2.573 0 11-5.147 0 2.573 2.573 0 015.147 0M393.03 288.279a2.574 2.574 0 11-5.148 0 2.574 2.574 0 015.147 0M308.384 288.279a2.573 2.573 0 11-5.147 0 2.573 2.573 0 015.147 0M322.682 288.279a2.574 2.574 0 11-5.147 0 2.574 2.574 0 015.147 0M336.408 288.279a2.574 2.574 0 11-5.147 0 2.574 2.574 0 015.147 0M350.707 288.279a2.573 2.573 0 11-5.147 0 2.573 2.573 0 015.147 0M364.433 288.279a2.574 2.574 0 11-5.147 0 2.574 2.574 0 015.147 0M378.731 302.005a2.573 2.573 0 11-5.147 0 2.573 2.573 0 015.147 0M308.384 302.005a2.573 2.573 0 11-5.147 0 2.573 2.573 0 015.147 0M322.682 302.005a2.573 2.573 0 11-5.147 0 2.573 2.573 0 015.147 0M336.408 302.005a2.574 2.574 0 11-5.147 0 2.574 2.574 0 015.147 0M350.707 302.005a2.573 2.573 0 11-5.147 0 2.573 2.573 0 015.147 0M364.433 302.005a2.573 2.573 0 11-5.147 0 2.573 2.573 0 015.147 0M378.731 316.304a2.573 2.573 0 11-5.147 0 2.573 2.573 0 015.147 0M308.384 316.304a2.573 2.573 0 11-5.147 0 2.573 2.573 0 015.147 0M322.682 316.304a2.573 2.573 0 11-5.147 0 2.573 2.573 0 015.147 0M336.408 316.304a2.574 2.574 0 11-5.147 0 2.574 2.574 0 015.147 0M350.707 316.304a2.573 2.573 0 11-5.147 0 2.573 2.573 0 015.147 0M364.433 316.304a2.573 2.573 0 11-5.147 0 2.573 2.573 0 015.147 0M294.658 288.279a2.574 2.574 0 11-5.147 0 2.574 2.574 0 015.147 0M370.152 237.95a2.573 2.573 0 11-5.147 0 2.573 2.573 0 015.147 0M384.45 237.95a2.573 2.573 0 11-5.147 0 2.573 2.573 0 015.147 0M398.176 237.95a2.573 2.573 0 11-5.146 0 2.573 2.573 0 015.146 0M412.475 237.95a2.573 2.573 0 11-5.147 0 2.573 2.573 0 015.147 0M426.2 237.95a2.573 2.573 0 11-5.146 0 2.573 2.573 0 015.147 0M299.805 237.95a2.573 2.573 0 11-5.147 0 2.573 2.573 0 015.147 0M314.103 237.95a2.573 2.573 0 11-5.147 0 2.573 2.573 0 015.147 0M327.83 237.95a2.573 2.573 0 11-5.147 0 2.573 2.573 0 015.147 0M342.128 237.95a2.573 2.573 0 11-5.147 0 2.573 2.573 0 015.147 0M356.426 237.95a2.574 2.574 0 11-5.147 0 2.574 2.574 0 015.147 0M230.03 237.95a2.573 2.573 0 11-5.147 0 2.573 2.573 0 015.147 0M244.328 237.95a2.574 2.574 0 11-5.147 0 2.574 2.574 0 015.147 0M216.304 237.95a2.573 2.573 0 11-5.147 0 2.573 2.573 0 015.147 0M258.055 237.95a2.573 2.573 0 11-5.147 0 2.573 2.573 0 015.147 0M272.353 237.95a2.573 2.573 0 11-5.147 0 2.573 2.573 0 015.147 0M286.65 237.95a2.573 2.573 0 11-5.146 0 2.573 2.573 0 015.147 0M370.152 251.676a2.573 2.573 0 11-5.147 0 2.573 2.573 0 015.147 0M384.45 251.676a2.574 2.574 0 11-5.147 0 2.574 2.574 0 015.147 0M398.176 251.676a2.573 2.573 0 11-5.146 0 2.573 2.573 0 015.146 0M412.475 251.676a2.574 2.574 0 11-5.147 0 2.574 2.574 0 015.147 0M299.805 251.676a2.574 2.574 0 11-5.147 0 2.574 2.574 0 015.147 0M314.103 251.676a2.574 2.574 0 11-5.147 0 2.574 2.574 0 015.147 0M327.83 251.676a2.573 2.573 0 11-5.147 0 2.573 2.573 0 015.147 0" fill="#B3CEE2" opacity=".601"/><path d="M342.128 251.676a2.574 2.574 0 11-5.147 0 2.574 2.574 0 015.147 0" fill="#EC3128" opacity=".8"/><path d="M356.426 251.676a2.574 2.574 0 11-5.147 0 2.574 2.574 0 015.147 0M230.03 251.676a2.574 2.574 0 11-5.147 0 2.574 2.574 0 015.147 0M244.328 251.676a2.574 2.574 0 11-5.147 0 2.574 2.574 0 015.147 0M210.585 245.385a2.573 2.573 0 11-5.147 0 2.573 2.573 0 015.147 0M216.304 251.676a2.573 2.573 0 11-5.147 0 2.573 2.573 0 015.147 0M258.055 251.676a2.573 2.573 0 11-5.147 0 2.573 2.573 0 015.147 0M272.353 251.676a2.574 2.574 0 11-5.147 0 2.574 2.574 0 015.147 0M286.65 251.676a2.573 2.573 0 11-5.146 0 2.573 2.573 0 015.147 0M370.152 265.402a2.573 2.573 0 11-5.147 0 2.573 2.573 0 015.147 0M384.45 265.402a2.574 2.574 0 11-5.147 0 2.574 2.574 0 015.147 0M398.176 265.402a2.573 2.573 0 11-5.146 0 2.573 2.573 0 015.146 0M412.475 265.402a2.574 2.574 0 11-5.147 0 2.574 2.574 0 015.147 0M299.805 265.402a2.574 2.574 0 11-5.147 0 2.574 2.574 0 015.147 0M314.103 265.402a2.574 2.574 0 11-5.147 0 2.574 2.574 0 015.147 0M327.83 265.402a2.573 2.573 0 11-5.147 0 2.573 2.573 0 015.147 0M342.128 265.402a2.574 2.574 0 11-5.147 0 2.574 2.574 0 015.147 0M356.426 265.402a2.574 2.574 0 11-5.147 0 2.574 2.574 0 015.147 0M370.152 280.844a2.573 2.573 0 11-5.147 0 2.573 2.573 0 015.147 0M384.45 280.844a2.573 2.573 0 11-5.147 0 2.573 2.573 0 015.147 0M398.176 280.844a2.573 2.573 0 11-5.146 0 2.573 2.573 0 015.146 0M299.805 280.844a2.573 2.573 0 11-5.147 0 2.573 2.573 0 015.147 0M314.103 280.844a2.573 2.573 0 11-5.146 0 2.573 2.573 0 015.146 0M327.83 280.844a2.573 2.573 0 11-5.147 0 2.573 2.573 0 015.147 0M342.128 280.844a2.573 2.573 0 11-5.147 0 2.573 2.573 0 015.147 0M356.426 280.844a2.574 2.574 0 11-5.147 0 2.574 2.574 0 015.147 0M370.152 295.142a2.573 2.573 0 11-5.147 0 2.573 2.573 0 015.147 0M384.45 295.142a2.573 2.573 0 11-5.147 0 2.573 2.573 0 015.147 0M299.805 295.142a2.573 2.573 0 11-5.147 0 2.573 2.573 0 015.147 0M314.103 295.142a2.573 2.573 0 11-5.147 0 2.573 2.573 0 015.147 0M327.83 295.142a2.573 2.573 0 11-5.147 0 2.573 2.573 0 015.147 0M342.128 295.142a2.573 2.573 0 11-5.147 0 2.573 2.573 0 015.147 0M356.426 295.142a2.574 2.574 0 11-5.147 0 2.574 2.574 0 015.147 0M370.152 310.012a2.573 2.573 0 11-5.147 0 2.573 2.573 0 015.147 0M299.805 310.012a2.573 2.573 0 11-5.147 0 2.573 2.573 0 015.147 0M144.241 310.012a2.574 2.574 0 11-5.147 0 2.574 2.574 0 015.147 0M130.515 310.012a2.573 2.573 0 11-5.147 0 2.573 2.573 0 015.147 0M117.933 310.012a2.573 2.573 0 11-5.147 0 2.573 2.573 0 015.147 0M104.779 310.012a2.573 2.573 0 11-5.147 0 2.573 2.573 0 015.147 0M130.515 295.142a2.573 2.573 0 11-5.147 0 2.573 2.573 0 015.147 0M117.933 295.142a2.573 2.573 0 11-5.147 0 2.573 2.573 0 015.147 0M104.779 295.142a2.573 2.573 0 11-5.147 0 2.573 2.573 0 015.147 0M91.624 295.142a2.573 2.573 0 11-5.146 0 2.573 2.573 0 015.146 0M104.779 280.844a2.573 2.573 0 11-5.147 0 2.573 2.573 0 015.147 0M91.624 280.844a2.573 2.573 0 11-5.146 0 2.573 2.573 0 015.146 0M130.515 324.31a2.573 2.573 0 11-5.147 0 2.573 2.573 0 015.147 0M130.515 338.608a2.573 2.573 0 11-5.147.001 2.573 2.573 0 015.147 0M117.933 324.31a2.573 2.573 0 11-5.147 0 2.573 2.573 0 015.147 0M117.933 338.608a2.573 2.573 0 11-5.147.001 2.573 2.573 0 015.147 0M104.779 324.31a2.573 2.573 0 11-5.147 0 2.573 2.573 0 015.147 0M136.806 317.447a2.573 2.573 0 11-5.146 0 2.573 2.573 0 015.146 0" fill="#B3CEE2" opacity=".601"/><path d="M123.652 317.447a2.573 2.573 0 11-5.147 0 2.573 2.573 0 015.147 0" fill="#EC3128" opacity=".8"/><path d="M136.806 330.602a2.573 2.573 0 11-5.146 0 2.573 2.573 0 015.146 0M123.652 330.602a2.573 2.573 0 11-5.147 0 2.573 2.573 0 015.147 0M123.652 344.9a2.573 2.573 0 11-5.147 0 2.573 2.573 0 015.147 0M109.926 330.602a2.573 2.573 0 11-5.147 0 2.573 2.573 0 015.147 0M109.926 317.447a2.573 2.573 0 11-5.147 0 2.573 2.573 0 015.147 0M136.806 302.005a2.573 2.573 0 11-5.146 0 2.573 2.573 0 015.146 0M123.652 302.005a2.573 2.573 0 11-5.147 0 2.573 2.573 0 015.147 0M109.926 302.005a2.573 2.573 0 11-5.147 0 2.573 2.573 0 015.147 0M97.344 302.005a2.573 2.573 0 11-5.147 0 2.573 2.573 0 015.147 0" fill="#B3CEE2" opacity=".601"/><path d="M109.926 288.279a2.573 2.573 0 11-5.147 0 2.573 2.573 0 015.147 0" fill="#20386D" opacity=".8"/><path d="M97.344 288.279a2.573 2.573 0 11-5.147 0 2.573 2.573 0 015.147 0M97.344 273.409a2.573 2.573 0 11-5.147 0 2.573 2.573 0 015.147 0M84.19 273.409a2.573 2.573 0 11-5.148 0 2.573 2.573 0 015.147 0M314.103 310.012a2.573 2.573 0 11-5.147 0 2.573 2.573 0 015.147 0M327.83 310.012a2.573 2.573 0 11-5.147 0 2.573 2.573 0 015.147 0" fill="#B3CEE2" opacity=".601"/><path d="M342.128 310.012a2.573 2.573 0 11-5.147 0 2.573 2.573 0 015.147 0" fill="#EC3128" opacity=".8"/><path d="M356.426 310.012a2.574 2.574 0 11-5.147 0 2.574 2.574 0 015.147 0M370.152 324.31a2.573 2.573 0 11-5.147 0 2.573 2.573 0 015.147 0M299.805 324.31a2.573 2.573 0 11-5.147 0 2.573 2.573 0 015.147 0M314.103 324.31a2.573 2.573 0 11-5.147 0 2.573 2.573 0 015.147 0M327.83 324.31a2.573 2.573 0 11-5.147 0 2.573 2.573 0 015.147 0M342.128 324.31a2.573 2.573 0 11-5.147 0 2.573 2.573 0 015.147 0M356.426 324.31a2.574 2.574 0 11-5.147 0 2.574 2.574 0 015.147 0M384.45 324.31a2.573 2.573 0 11-5.147 0 2.573 2.573 0 015.147 0M414.762 324.31a2.574 2.574 0 11-5.147 0 2.574 2.574 0 015.147 0M378.731 330.602a2.573 2.573 0 11-5.147 0 2.573 2.573 0 015.147 0M406.755 330.602a2.573 2.573 0 11-5.147 0 2.573 2.573 0 015.147 0M308.384 330.602a2.573 2.573 0 11-5.147 0 2.573 2.573 0 015.147 0M322.682 330.602a2.573 2.573 0 11-5.147 0 2.573 2.573 0 015.147 0M336.408 330.602a2.574 2.574 0 11-5.147 0 2.574 2.574 0 015.147 0M350.707 330.602a2.573 2.573 0 11-5.147 0 2.573 2.573 0 015.147 0M364.433 330.602a2.573 2.573 0 11-5.147 0 2.573 2.573 0 015.147 0M308.384 344.9a2.573 2.573 0 11-5.147 0 2.573 2.573 0 015.147 0M322.682 344.9a2.574 2.574 0 11-5.147 0 2.574 2.574 0 015.147 0M336.408 344.9a2.574 2.574 0 11-5.147 0 2.574 2.574 0 015.147 0M350.707 344.9a2.573 2.573 0 11-5.147 0 2.573 2.573 0 015.147 0M308.384 359.198a2.573 2.573 0 11-5.147 0 2.573 2.573 0 015.147 0M322.682 359.198a2.574 2.574 0 11-5.147 0 2.574 2.574 0 015.147 0M336.408 359.198a2.574 2.574 0 11-5.147 0 2.574 2.574 0 015.147 0M322.682 373.496a2.573 2.573 0 11-5.147 0 2.573 2.573 0 015.147 0M336.408 373.496a2.574 2.574 0 11-5.147 0 2.574 2.574 0 015.147 0M350.707 359.198a2.573 2.573 0 11-5.147 0 2.573 2.573 0 015.147 0M364.433 344.9a2.574 2.574 0 11-5.147 0 2.574 2.574 0 015.147 0M408.471 344.9a2.573 2.573 0 11-5.147 0 2.573 2.573 0 015.147 0M370.152 338.608a2.573 2.573 0 11-5.147.001 2.573 2.573 0 015.147 0M401.036 338.608a2.574 2.574 0 11-5.147.001 2.574 2.574 0 015.147 0M299.805 338.608a2.574 2.574 0 11-5.147.001 2.574 2.574 0 015.147 0M314.103 338.608a2.574 2.574 0 11-5.147.001 2.574 2.574 0 015.147 0M327.83 338.608a2.573 2.573 0 11-5.147.001 2.573 2.573 0 015.147 0M342.128 338.608a2.574 2.574 0 11-5.147.001 2.574 2.574 0 015.147 0M356.426 338.608a2.574 2.574 0 11-5.147 0 2.574 2.574 0 015.147 0M314.103 352.335a2.574 2.574 0 11-5.147 0 2.574 2.574 0 015.147 0M327.83 352.335a2.573 2.573 0 11-5.147 0 2.573 2.573 0 015.147 0M342.128 352.335a2.574 2.574 0 11-5.147 0 2.574 2.574 0 015.147 0M314.103 366.633a2.573 2.573 0 11-5.147 0 2.573 2.573 0 015.147 0M327.83 366.633a2.573 2.573 0 11-5.147 0 2.573 2.573 0 015.147 0M342.128 366.633a2.573 2.573 0 11-5.147 0 2.573 2.573 0 015.147 0M356.426 352.335a2.574 2.574 0 11-5.147 0 2.574 2.574 0 015.147 0M401.036 352.335a2.574 2.574 0 11-5.147 0 2.574 2.574 0 015.147 0M230.03 265.402a2.574 2.574 0 11-5.147 0 2.574 2.574 0 015.147 0M244.328 265.402a2.574 2.574 0 11-5.147 0 2.574 2.574 0 015.147 0M258.055 265.402a2.573 2.573 0 11-5.147 0 2.573 2.573 0 015.147 0M272.353 265.402a2.574 2.574 0 11-5.147 0 2.574 2.574 0 015.147 0M286.65 265.402a2.573 2.573 0 11-5.146 0 2.573 2.573 0 015.147 0M294.658 102.975a2.574 2.574 0 11-5.147 0 2.574 2.574 0 015.147 0M308.384 102.975a2.573 2.573 0 11-5.147 0 2.573 2.573 0 015.147 0M322.682 102.975a2.574 2.574 0 11-5.147 0 2.574 2.574 0 015.147 0M300.377 124.136a2.574 2.574 0 11-5.147 0 2.574 2.574 0 015.147 0M244.328 124.136a2.574 2.574 0 11-5.147 0 2.574 2.574 0 015.147 0M293.514 131a2.574 2.574 0 11-5.147 0 2.574 2.574 0 015.147 0M251.192 131a2.574 2.574 0 11-5.148 0 2.574 2.574 0 015.148 0M238.61 131a2.573 2.573 0 11-5.148 0 2.573 2.573 0 015.147 0" fill="#B3CEE2" opacity=".601"/><path d="M286.65 137.863a2.573 2.573 0 11-5.146 0 2.573 2.573 0 015.147 0" fill="#86B7E1" opacity=".8"/><path d="M258.055 137.863a2.573 2.573 0 11-5.147 0 2.573 2.573 0 015.147 0M230.03 137.863a2.574 2.574 0 11-5.147 0 2.574 2.574 0 015.147 0M272.925 152.733a2.574 2.574 0 11-5.147 0 2.574 2.574 0 015.147 0M257.483 152.733a2.573 2.573 0 11-5.147 0 2.573 2.573 0 015.147 0M266.062 159.596a2.573 2.573 0 11-5.147 0 2.573 2.573 0 015.147 0M279.216 144.726a2.573 2.573 0 11-5.147 0 2.573 2.573 0 015.147 0M265.49 144.726a2.573 2.573 0 11-5.147 0 2.573 2.573 0 015.147 0M251.192 144.726a2.574 2.574 0 11-5.148 0 2.574 2.574 0 015.148 0M251.763 174.466a2.573 2.573 0 11-5.146 0 2.573 2.573 0 015.146 0M238.61 174.466a2.573 2.573 0 11-5.148 0 2.573 2.573 0 015.147 0M244.9 181.329a2.574 2.574 0 11-5.147 0 2.574 2.574 0 015.147 0M258.627 181.329a2.574 2.574 0 11-5.148 0 2.574 2.574 0 015.148 0M258.627 167.03a2.574 2.574 0 11-5.147.001 2.574 2.574 0 015.147 0M272.925 167.03a2.574 2.574 0 11-5.148.001 2.574 2.574 0 015.148 0M244.9 167.03a2.573 2.573 0 11-5.147.001 2.573 2.573 0 015.147 0M336.408 102.975a2.574 2.574 0 11-5.147 0 2.574 2.574 0 015.147 0M350.707 102.975a2.573 2.573 0 11-5.147 0 2.573 2.573 0 015.147 0M364.433 102.975a2.574 2.574 0 11-5.147 0 2.574 2.574 0 015.147 0M378.731 102.975a2.573 2.573 0 11-5.147 0 2.573 2.573 0 015.147 0M393.03 102.975a2.574 2.574 0 11-5.148 0 2.574 2.574 0 015.147 0M406.183 102.975a2.574 2.574 0 11-5.147 0 2.574 2.574 0 015.147 0" fill="#B3CEE2" opacity=".601"/><g stroke-linecap="round" stroke-linejoin="round" stroke-width=".953"><path stroke="#B5CFE4" d="M363.2 11.614L175.1 333.162M435.1 120.65L296.4 235.6M363.2 11.614L127.44 28.77"/><path stroke="#223971" d="M415.944 39.575l-31.138 264.992M337.25 204.25L175.1 333.163"/><path stroke="#B5CFE4" d="M127.44 192.724l47.66 140.439M127.44 192.724l-74.986 101.04M127.44 192.724L436.05 119.7"/><path stroke="#223971" d="M128.25 192.85l256.556 109.81"/><path stroke="#B5CFE4" d="M127.44 192.724L485.211 274.7M128.71 28.771L485.211 274.7M436.279 117.102L485.211 274.7M485.211 161.584L384.806 304.567"/><path stroke="#223971" d="M306.643 384l-33.993 77.7"/><path stroke="#B5CFE4" d="M304.95 384.75l-152.727 49.452"/><path stroke="#223971" d="M454.073 333.163l-69.267-30.504"/><path stroke="#B5CFE4" d="M174.465 333.163l98.185 128.536M174.465 333.163l-22.877 101.04"/><path stroke="#223971" d="M84.863 371.926l90.237-38.763"/><path stroke="#B5CFE4" d="M127.44 192.724l-75.048-45.996"/><path stroke="#223971" d="M127.44 192.724l1.27-163.952"/><path stroke="#B5CFE4" d="M306.643 384l78.163-79.433M306.643 384l128.162-.253"/><path stroke="#1D2737" d="M304.95 384.75l-15.922-212.617"/><path stroke="#223971" d="M454.073 333.163l31.138-58.464"/><path stroke="#B5CFE4" d="M454.073 333.163L272.65 461.699"/><path stroke="#223971" d="M485.211 161.584L484.5 276.45"/></g><path d="M432.69 42.46v-2.527l.956-.992 2.562 3.518h2.183l-3.517-4.757 3.376-3.506h-2.231l-3.33 3.612v-3.612h-1.817v8.263h1.818zm8.693 0v-8.264h-1.818v8.263h1.818zm7.996 0v-1.654h-4.12v-6.61h-1.818v8.263h5.938zm7.3 0v-1.654h-4.12v-6.61h-1.818v8.263h5.938zm6.714 0v-2.48h1.381c1.854 0 3.341-.992 3.341-2.904v-.024c0-1.688-1.192-2.856-3.164-2.856h-3.376v8.263h1.818zm1.44-4.097h-1.44v-2.526h1.405c.909 0 1.476.436 1.476 1.25v.024c0 .709-.532 1.252-1.44 1.252zm6.438 4.096v-2.644h1.429l1.77 2.644h2.125l-2.018-2.951c1.05-.39 1.77-1.228 1.77-2.562v-.023c0-.78-.247-1.429-.708-1.89-.543-.542-1.357-.837-2.408-.837h-3.777v8.263h1.817zm1.842-4.25h-1.842v-2.372h1.807c.885 0 1.428.4 1.428 1.18v.024c0 .696-.508 1.168-1.393 1.168zm8.882 4.392c2.55 0 4.403-1.924 4.403-4.274v-.023c0-2.35-1.83-4.25-4.38-4.25s-4.403 1.924-4.403 4.273v.024c0 2.35 1.83 4.25 4.38 4.25zm.023-1.677c-1.463 0-2.502-1.18-2.502-2.597v-.023c0-1.417 1.015-2.574 2.479-2.574 1.464 0 2.502 1.18 2.502 2.597v.024c0 1.417-1.015 2.573-2.479 2.573zm9.862 1.677c1.594 0 2.538-.567 3.388-1.476l-1.157-1.169c-.65.59-1.228.968-2.172.968-1.417 0-2.396-1.18-2.396-2.597v-.023c0-1.417 1.003-2.574 2.396-2.574.826 0 1.476.354 2.113.933l1.157-1.334c-.767-.756-1.7-1.275-3.258-1.275-2.538 0-4.309 1.924-4.309 4.273v.024c0 2.373 1.806 4.25 4.238 4.25zm11.125-.142v-1.617h-4.486v-1.735h3.896v-1.618h-3.896v-1.676h4.427v-1.617h-6.233v8.263h6.292zm4.55.118c1.782 0 3.033-.92 3.033-2.561v-.024c0-1.44-.944-2.042-2.62-2.48-1.43-.365-1.783-.542-1.783-1.085v-.024c0-.401.366-.72 1.062-.72.697 0 1.417.307 2.149.815l.944-1.37c-.838-.673-1.865-1.05-3.07-1.05-1.687 0-2.891.991-2.891 2.49v.024c0 1.641 1.074 2.101 2.738 2.526 1.382.354 1.665.59 1.665 1.051v.024c0 .484-.449.779-1.192.779-.945 0-1.724-.39-2.468-1.004l-1.074 1.287a5.258 5.258 0 003.506 1.322zm7.429 0c1.782 0 3.034-.92 3.034-2.561v-.024c0-1.44-.945-2.042-2.62-2.48-1.43-.365-1.783-.542-1.783-1.085v-.024c0-.401.365-.72 1.062-.72.696 0 1.417.307 2.148.815l.945-1.37c-.838-.673-1.865-1.05-3.07-1.05-1.688 0-2.892.991-2.892 2.49v.024c0 1.641 1.075 2.101 2.74 2.526 1.38.354 1.664.59 1.664 1.051v.024c0 .484-.449.779-1.193.779-.944 0-1.723-.39-2.467-1.004l-1.074 1.287a5.258 5.258 0 003.506 1.322zM501.956 165.42v-2.48h1.381c1.854 0 3.341-.99 3.341-2.903v-.024c0-1.688-1.192-2.857-3.163-2.857h-3.377v8.264h1.818zm1.44-4.096h-1.44v-2.527h1.405c.909 0 1.476.437 1.476 1.252v.023c0 .709-.532 1.252-1.44 1.252zm4.94 4.096l.755-1.853h3.494l.756 1.853h1.9l-3.541-8.323h-1.676l-3.542 8.323h1.853zm3.6-3.459h-2.196l1.098-2.68 1.098 2.68zm7.253 3.459v-6.587h2.514v-1.677h-6.847v1.677h2.515v6.587h1.818zm7.418.142c1.593 0 2.538-.567 3.388-1.476l-1.157-1.169c-.65.59-1.228.968-2.172.968-1.417 0-2.397-1.18-2.397-2.597v-.023c0-1.417 1.004-2.574 2.397-2.574.826 0 1.475.354 2.113.933l1.157-1.334c-.768-.756-1.7-1.275-3.259-1.275-2.538 0-4.308 1.924-4.308 4.273v.024c0 2.373 1.806 4.25 4.238 4.25zm6.65-.142v-3.317h3.353v3.317h1.818v-8.264h-1.818v3.27h-3.353v-3.27h-1.818v8.264h1.818zM59.67 11.248l1.157-1.287-.85-.72c.46-.685.732-1.5.732-2.373v-.023c0-2.35-1.83-4.25-4.38-4.25s-4.403 1.924-4.403 4.273v.024c0 2.35 1.83 4.25 4.38 4.25.92 0 1.758-.26 2.455-.709l.909.815zm-3.341-1.783c-1.464 0-2.503-1.18-2.503-2.597v-.023c0-1.417 1.015-2.574 2.48-2.574 1.463 0 2.502 1.18 2.502 2.597v.024c0 .413-.083.803-.224 1.133l-1.358-1.228-1.157 1.299 1.346 1.145a2.483 2.483 0 01-1.086.224zm9.437 1.665c2.219 0 3.624-1.228 3.624-3.73V2.736h-1.818V7.47c0 1.31-.673 1.984-1.783 1.984-1.11 0-1.782-.697-1.782-2.043V2.737h-1.818v4.722c0 2.431 1.357 3.67 3.577 3.67zm6.32-.13l.755-1.853h3.494L77.091 11h1.9L75.45 2.678h-1.676L70.232 11h1.854zm3.6-3.459H73.49l1.098-2.68 1.098 2.68zM82.077 11V8.356h1.428L85.276 11h2.125l-2.019-2.951c1.051-.39 1.771-1.228 1.771-2.562v-.024c0-.779-.248-1.428-.708-1.888-.543-.543-1.358-.838-2.408-.838h-3.778V11h1.818zm1.842-4.25h-1.842V4.377h1.806c.886 0 1.429.402 1.429 1.18v.025c0 .696-.508 1.168-1.393 1.168zM89.932 11l.755-1.853h3.495L94.937 11h1.9l-3.54-8.322H91.62L88.078 11h1.854zm3.6-3.459h-2.195l1.097-2.68 1.098 2.68zM99.9 11V5.747L103.902 11h1.546V2.737h-1.794v5.087l-3.872-5.087h-1.677V11H99.9zm11.266 0V4.413h2.515V2.737h-6.847v1.676h2.514V11h1.818zm5.8 0V2.737h-1.817V11h1.818zm3.854 0V5.747L124.822 11h1.546V2.737h-1.794v5.087l-3.872-5.087h-1.677V11h1.795zm13.816 0V9.383h-4.486V7.647h3.896V6.03h-3.896V4.354h4.427V2.737h-6.233V11h6.292zM289.71 466.05v-2.644h1.428l1.77 2.644h2.126l-2.019-2.951c1.05-.39 1.77-1.228 1.77-2.562v-.024c0-.779-.247-1.428-.708-1.888-.543-.543-1.357-.838-2.408-.838h-3.777v8.263h1.818zm1.841-4.25h-1.841v-2.373h1.806c.885 0 1.428.402 1.428 1.18v.025c0 .696-.507 1.168-1.393 1.168zm11.16 4.25v-1.617h-4.486v-1.736h3.896v-1.617h-3.896v-1.676h4.427v-1.617h-6.233v8.263h6.292zm3.393 0v-5.36l2.302 3.495h.047l2.326-3.53v5.395h1.806v-8.263h-1.96l-2.172 3.494-2.172-3.494h-1.96v8.263h1.783zm14.749 0v-1.617h-4.486v-1.736h3.895v-1.617h-3.895v-1.676h4.427v-1.617h-6.233v8.263h6.292zm4.832 0c2.597 0 4.392-1.806 4.392-4.132v-.023c0-2.326-1.795-4.108-4.392-4.108h-3.222v8.263h3.222zm0-1.64h-1.404v-4.983h1.404c1.488 0 2.491 1.027 2.491 2.491v.024c0 1.464-1.003 2.467-2.49 2.467zm7.902 1.64v-8.263h-1.818v8.263h1.818zm3.204 0l.755-1.853h3.495l.755 1.853h1.9l-3.54-8.322h-1.677l-3.541 8.322h1.853zm3.6-3.459h-2.195l1.098-2.68 1.097 2.68zm7.253 3.459v-6.587h2.515v-1.676h-6.847v1.676h2.514v6.587h1.818zm10.192 0v-1.617h-4.486v-1.736h3.896v-1.617h-3.896v-1.676h4.427v-1.617h-6.233v8.263h6.292zM470.9 337.633v-8.263h-1.817v8.263h1.818zm3.854 0v-5.253l4.001 5.253h1.547v-8.263h-1.794v5.088l-3.872-5.088h-1.677v8.263h1.795zm11.762.06l3.34-8.323h-1.959l-2.16 5.82-2.16-5.82h-2.007l3.34 8.322h1.606zm10.9-.06v-1.617h-4.486v-1.735h3.896v-1.618h-3.896v-1.676h4.427v-1.617h-6.233v8.263h6.292zm4.55.118c1.782 0 3.033-.92 3.033-2.562v-.023c0-1.44-.944-2.042-2.62-2.48-1.429-.365-1.783-.542-1.783-1.085v-.024c0-.401.366-.72 1.063-.72.696 0 1.416.307 2.148.815l.945-1.37c-.839-.673-1.866-1.05-3.07-1.05-1.688 0-2.892.991-2.892 2.49v.024c0 1.64 1.074 2.101 2.739 2.526 1.381.354 1.664.59 1.664 1.051v.024c0 .484-.448.779-1.192.779-.944 0-1.724-.39-2.467-1.004l-1.074 1.287a5.258 5.258 0 003.506 1.322zm8.173-.118v-6.587h2.515v-1.676h-6.847v1.676h2.514v6.587h1.818zm5.8 0v-8.263h-1.817v8.263h1.818zm6.038.142c1.51 0 2.68-.59 3.53-1.31v-3.59h-3.59v1.57h1.83v1.181c-.46.33-1.05.496-1.711.496-1.464 0-2.503-1.11-2.503-2.62v-.024c0-1.405 1.05-2.574 2.373-2.574.956 0 1.523.307 2.16.838l1.145-1.38c-.862-.733-1.759-1.134-3.246-1.134-2.503 0-4.333 1.924-4.333 4.273v.024c0 2.444 1.771 4.25 4.345 4.25zm6.414-.142l.756-1.853h3.494l.755 1.853h1.901l-3.541-8.322h-1.677l-3.541 8.322h1.853zm3.6-3.459h-2.195l1.098-2.68 1.098 2.68zm7.253 3.46v-6.588h2.515v-1.676h-6.847v1.676h2.514v6.587h1.818zm10.192 0v-1.618h-4.485v-1.735h3.895v-1.618h-3.895v-1.676h4.426v-1.617h-6.233v8.263h6.292zM4.752 375.256c2.22 0 3.624-1.228 3.624-3.73v-4.663H6.558v4.733c0 1.31-.673 1.984-1.782 1.984-1.11 0-1.783-.697-1.783-2.043v-4.674H1.175v4.722c0 2.431 1.358 3.67 3.577 3.67zm7.264-.13v-5.253l4.002 5.253h1.547v-8.263H15.77v5.087l-3.872-5.087h-1.676v8.263h1.794zm9.425 0v-8.263h-1.818v8.263h1.818zm3.853 0v-5.253l4.002 5.253h1.546v-8.263h-1.794v5.087l-3.872-5.087H23.5v8.263h1.794zm10.464.118c1.782 0 3.034-.92 3.034-2.562v-.023c0-1.44-.945-2.042-2.621-2.48-1.428-.365-1.783-.542-1.783-1.085v-.024c0-.401.366-.72 1.063-.72.696 0 1.416.307 2.148.815l.945-1.37c-.838-.673-1.865-1.05-3.07-1.05-1.688 0-2.892.991-2.892 2.49v.024c0 1.64 1.074 2.101 2.739 2.526 1.381.354 1.664.59 1.664 1.05v.024c0 .484-.448.78-1.192.78-.944 0-1.723-.39-2.467-1.004l-1.074 1.287a5.258 5.258 0 003.506 1.322zm8.173-.118v-6.587h2.515v-1.676h-6.847v1.676h2.514v6.587h1.818zm3.983 0l.755-1.853h3.495l.755 1.853h1.9l-3.54-8.322h-1.677l-3.541 8.322h1.853zm3.6-3.459H49.32l1.098-2.68 1.097 2.68zm10.511 3.459v-1.653h-4.12v-6.61h-1.818v8.263h5.938zm7.3 0v-1.653h-4.12v-6.61h-1.818v8.263h5.938z" fill="#20386D" fill-rule="nonzero"/><path d="M422.896 40.032a7.308 7.308 0 11-14.615 0 7.308 7.308 0 0114.615 0M134.316 27.258a7.308 7.308 0 11-14.616 0 7.308 7.308 0 0114.616 0M492.163 162.042a7.308 7.308 0 11-14.616 0 7.308 7.308 0 0114.616 0M461.025 334.256a7.308 7.308 0 11-14.616 0 7.308 7.308 0 0114.616 0M91.815 371.748a7.308 7.308 0 11-14.616 0 7.308 7.308 0 0114.616 0M279.666 462.358a7.308 7.308 0 11-14.616 0 7.308 7.308 0 0114.616 0" fill="#223971"/><path d="M373.457 11.817c0 6.001-4.866 10.866-10.867 10.866-6.001 0-10.867-4.865-10.867-10.866C351.723 5.815 356.59.95 362.59.95c6.001 0 10.867 4.865 10.867 10.867zM446.536 119.847c0 6.001-4.865 10.867-10.867 10.867-6.001 0-10.866-4.866-10.866-10.867 0-6.001 4.865-10.867 10.866-10.867 6.002 0 10.867 4.866 10.867 10.867zM62.71 293.967c0 6.001-4.865 10.866-10.866 10.866-6.002 0-10.867-4.865-10.867-10.866 0-6.002 4.865-10.867 10.867-10.867 6.001 0 10.866 4.865 10.866 10.867zM59.52 147.085a7.435 7.435 0 11-14.87 0 7.435 7.435 0 0114.87 0z" stroke="#B5CFE4" stroke-width="1.686" fill="#FFF"/><path d="M492.862 274.87a8.293 8.293 0 11-16.586 0 8.293 8.293 0 0116.586 0z" stroke="#223971" stroke-width="1.686" fill="#FFF"/><path d="M395.444 303.18c0 6.002-4.865 10.868-10.867 10.868-6.001 0-10.866-4.866-10.866-10.867 0-6.001 4.865-10.867 10.866-10.867 6.002 0 10.867 4.866 10.867 10.867z" stroke="#223971" stroke-width="1.686" fill="#EDF3F8"/><path d="M438.783 387.076c0 6.001-4.865 10.867-10.866 10.867-6.002 0-10.867-4.866-10.867-10.867 0-6.001 4.865-10.867 10.867-10.867 6.001 0 10.866 4.866 10.866 10.867zM162.48 434.406c0 6.001-4.866 10.867-10.867 10.867-6.001 0-10.867-4.866-10.867-10.867 0-6.001 4.866-10.866 10.867-10.866 6.001 0 10.867 4.865 10.867 10.866z" stroke="#B5CFE4" stroke-width="1.686" fill="#FFF"/><path d="M190.504 333.715c0 9.003-7.298 16.3-16.3 16.3-9.003 0-16.3-7.297-16.3-16.3 0-9.002 7.297-16.3 16.3-16.3 9.002 0 16.3 7.298 16.3 16.3z" stroke="#223971" stroke-width="1.686" fill="#F7FAFC"/><path d="M136.362 193.085a8.293 8.293 0 11-16.586 0 8.293 8.293 0 0116.586 0zM313.659 384.807a8.293 8.293 0 11-16.586 0 8.293 8.293 0 0116.586 0z" stroke="#223971" stroke-width="1.686" fill="#FFF"/><g filter="url(#a)" transform="translate(182.4 136.8)"><path d="M83.656 0C37.454 0 0 37.454 0 83.656c0 46.202 37.454 83.656 83.656 83.656 46.202 0 83.656-37.454 83.656-83.656C167.312 37.454 129.858 0 83.656 0" fill="#FEFEFE"/><path d="M26.81 50.485a1.739 1.739 0 00-.146.04l-.004.002-11.886 3.862a1.482 1.482 0 00-.951 1.866 1.483 1.483 0 001.408 1.024c.152 0 .306-.024.458-.073l8.572-2.786c-7.471 15.396-8.678 32.778-3.375 49.1 5.44 16.74 17.072 30.36 32.754 38.35a65.859 65.859 0 0029.907 7.174 66.006 66.006 0 0031.1-7.782 1.482 1.482 0 00.61-2.004 1.483 1.483 0 00-2.004-.608c-18.164 9.7-39.946 9.916-58.268.581-14.978-7.63-26.088-20.639-31.282-36.626-5.046-15.53-3.922-32.068 3.142-46.73l2.732 8.406a1.48 1.48 0 001.408 1.025 1.481 1.481 0 001.408-1.94l-3.863-11.89a1.48 1.48 0 00-1.72-.991" fill="url(#b)"/><path d="M52.664 26.05a1.48 1.48 0 001.395 2.613c18.164-9.7 39.946-9.917 58.268-.583 14.978 7.632 26.087 20.64 31.282 36.627 5.046 15.531 3.922 32.068-3.142 46.73l-2.732-8.406a1.482 1.482 0 00-2.817.915l3.864 11.89c.178.547.645.92 1.177 1.005a1.486 1.486 0 00.689-.055l.005-.001 11.886-3.862a1.481 1.481 0 00.95-1.866 1.48 1.48 0 00-1.866-.95l-8.571 2.785c7.47-15.395 8.677-32.777 3.373-49.1-5.438-16.74-17.071-30.36-32.753-38.35a65.852 65.852 0 00-29.907-7.173 66.006 66.006 0 00-31.1 7.78" fill="url(#c)"/><path fill="#B8CBDC" d="M43.905 28.54h10.122v-2.482H43.905zM34.957 33.329h17.31v-2.483h-17.31zM44.304 37.685H57.01v-2.483H44.304zM117.987 131.468h11.671v-2.482h-11.671zM111.614 136.257h20.619v-2.482h-20.619zM120.03 140.613h7.492v-2.482h-7.492z"/><path d="M83.579 38.078c25.17 0 37.829 13.346 37.829 13.346s1.446 9.88.522 29.77c-1.394 30.05-38.343 48.098-38.345 48.101-.003 0-36.95-18.05-38.345-48.1-.924-19.892.523-29.771.523-29.771S58.407 38.078 83.58 38.078" fill="#D72C30"/><path d="M64.733 77.049c0-10.624 8.476-19.27 18.894-19.27 10.427 0 18.91 8.407 18.91 18.74 0 8.249-7.156 15.037-12.67 18.525 2.14 1.207 6.859 2.479 11.38 2.89 6.602-5.063 10.629-12.89 10.629-21.416 0-15.435-12.673-27.993-28.25-27.993-15.575 0-28.247 12.558-28.247 27.993 0 9.323 3.918 17.606 11.327 23.953 6.93 5.933 17.063 9.891 28.6 11.767 2.502-1.367 6.776-5.409 8.38-7.778-9.638-1.225-18.757-3.555-24.87-6.735-9.346-4.857-14.083-11.814-14.083-20.676" fill="#FEFEFE"/></g></g></svg>