<svg xmlns="http://www.w3.org/2000/svg" viewBox="0 0 79.05 60.35">
  <title>fixes-icon</title>
  <g id="Layer_3" data-name="Layer 3">
    <polygon points="7.31 51.45 10.13 38.73 16.47 38.73 15.99 40.88 12.08 40.88 11.44 43.8 14.5 43.8 14.02 45.95 10.96 45.95 9.74 51.45 7.31 51.45" style="fill: #014596"/>
    <path d="M18.58,41.37l.45-2h2.22l-.45,2ZM20.43,43,18.3,52.61H16.09L18.21,43Z" transform="translate(-1.47 -1.16)" style="fill: #014596"/>
    <polygon points="20.2 41.87 22.57 41.87 23.21 44.61 25.1 41.87 27.46 41.87 24 46.53 25.5 51.45 23.14 51.45 22.38 48.35 20.25 51.45 17.89 51.45 21.61 46.51 20.2 41.87" style="fill: #014596"/>
    <polygon points="31.73 51.45 34.55 38.73 36.98 38.73 34.16 51.45 31.73 51.45" style="fill: #014596"/>
    <path d="M38.63,45.25l.4-1.8h.88l.58-2.61H42.7l-.58,2.61h1.43l-.4,1.8H41.73l-1.08,4.89c-.11.48.25.7.85.7a3.64,3.64,0,0,0,.44,0l-.41,1.87a8.17,8.17,0,0,1-1.29.09c-1.44,0-2.28-.53-2-1.9l1.25-5.63Z" transform="translate(-1.47 -1.16)" style="fill: #014596"/>
    <rect y="29.48" width="49.39" height="30.87" style="fill: none"/>
  </g>
  <g id="Layer_5" data-name="Layer 5">
    <path d="M76.89,3.51,64.5,13l-.07.05-4.69,3.58-1.32,1-15.67,12-8.31-8.36L29.6,26.09,41.78,38.35a1.37,1.37,0,0,0,1.94,0L60.82,21.24l.8-.8,3.28-3.28,2.55-2.55h0l10.9-10.9C84-1.91,76.89,3.51,76.89,3.51Z" transform="translate(-1.47 -1.16)" style="fill: #014596"/>
    <g>
      <path d="M4.56,36.81V55.34a3.1,3.1,0,0,0,3.09,3.09h37a3.1,3.1,0,0,0,3.09-3.09V37.12l-2.65,2.65a3.37,3.37,0,0,1-4.77,0l-6-6H7.65A3.1,3.1,0,0,0,4.56,36.81Z" transform="translate(-1.47 -1.16)" style="fill: none"/>
      <path d="M47.78,55.34a3.1,3.1,0,0,1-3.09,3.09h-37a3.1,3.1,0,0,1-3.09-3.09V36.81a3.1,3.1,0,0,1,3.09-3.09H34.36L31.3,30.64H7.65a6.18,6.18,0,0,0-6.17,6.17V55.34a6.18,6.18,0,0,0,6.17,6.17h37a6.18,6.18,0,0,0,6.17-6.17V36.81a6.13,6.13,0,0,0-.46-2.33l-2.63,2.63Z" transform="translate(-1.47 -1.16)" style="fill: #014596"/>
    </g>
  </g>
</svg>
