<svg id="Layer_3" data-name="Layer 3" xmlns="http://www.w3.org/2000/svg" viewBox="0 0 360.26 360.18">
  <title>half-life-graph-icon</title>
  <path d="M322.66,309.56c4.82.06,9.65.91,14.46.09,7.68-1.3,12.64-6.94,12.77-14.29.13-7.71-4.64-13.75-12.55-14.91-5.74-.84-11.62-.79-17.43-1.18-65-4.36-119.3-30.95-163.17-79C123.29,163.68,104,120.44,96.95,71.58a219.93,219.93,0,0,1-2.06-29.89c-.08-10.13-6.17-16.82-15.17-16.62-8.79.19-15,6.92-14.8,16.61,1.23,63.91,21.21,120.94,62.34,170.3,41.9,50.28,95.14,81.17,159.2,93.68,6,1.18,12.23,1.49,18.28,2.59S316.71,308.84,322.66,309.56Z" transform="translate(-5 -9.88)" style="fill: #094d96"/>
  <path d="M35.15,167.46c0-50.83.06-101.66-.11-152.48,0-4.18,2.26-5.1,7.71-5.1,6.63,0,7.4,1.7,7.4,5.08,0,99.82,0,204.71-.11,304.53,0,4.53,1.1,5.62,5.62,5.61q152-.21,304-.21c4.14,0,5.64.55,5.64,6.94,0,9.5-1,8.16-5.62,8.16-100,0-204,0-304-.1-4.46,0-5.93,1-5.65,5.59.43,7.14.17,12.93.17,20.09,0,4.49-5,4.4-7.39,4.49-5.46,0-7.67-.57-7.67-4,0-5.17-.12-17.88.05-23,.08-2.41-.66-3.1-3.06-3.06-7.83.14-15.67-.07-23.49.12-2.85.07-3.54-.79-3.57-3.59C5,325,4.23,325,11.23,325c5,0,15-.23,19.94.08,3.35.2,4.06-.93,4-4.12-.12-34.33-.07-68.66-.07-103Q35.15,192.71,35.15,167.46Z" transform="translate(-5 -9.88)" style="fill: #094d96"/>
</svg>
