<svg version="1.1" id="Layer_1" xmlns="http://www.w3.org/2000/svg" xmlns:xlink="http://www.w3.org/1999/xlink" x="0" y="0" viewBox="0 0 320 1037" xml:space="preserve" enable-background="new 0 0 320 1037"><style>.st1,.st3,.st6,.st7{fill-rule:evenodd;clip-rule:evenodd;fill:#2e8be0}.st3,.st6,.st7{fill:#fff}.st6,.st7{fill:#b4cfe3}.st7{fill:#f7fbfd}</style><defs><path id="SVGID_1_" d="M0 0h320v1037H0z"/></defs><clipPath id="SVGID_2_"><use xlink:href="#SVGID_1_" overflow="visible"/></clipPath><g clip-path="url(#SVGID_2_)"><path class="st1" d="M0 0h940v673H0V0z"/><defs><filter id="Adobe_OpacityMaskFilter" filterUnits="userSpaceOnUse" x="-259.2" y="-274.8" width="1518.1" height="972.5"><feColorMatrix values="1 0 0 0 0 0 1 0 0 0 0 0 1 0 0 0 0 0 1 0"/></filter></defs><mask maskUnits="userSpaceOnUse" x="-259.2" y="-274.8" width="1518.1" height="972.5" id="b_1_"><g filter="url(#Adobe_OpacityMaskFilter)"><path id="a_1_" class="st3" d="M0 0h940v673H0V0z"/></g></mask><g mask="url(#b_1_)"><path d="M-249.8 404.2C-252.7 293-187.6 196-92.3 152.6c56-24.5 102.2-66.9 130.5-120.3C17.6 43.7-4.1 52.9-26.6 59.7v.1c-131 39.2-228.2 158.5-232.5 302.5-5.3 179.9 136.2 330 316.2 335.3 13.4.4 26.6-.1 39.7-1.3l407-13.1-478-17.3c-148.4 3.8-271.8-113.4-275.6-261.7z" fill-rule="evenodd" clip-rule="evenodd" fill="#ee3127"/><path class="st6" d="M152.2-72.3v.2C230.5-187.3 359.3-265 505.9-273.8c-13.9-.9-28-1.2-42.2-.9C276-269.9 117.4-153.8 49.4 8.7l-.1-.2c-3.3 8.1-7 16-11.1 23.7C84 7 123.4-28.8 152.2-72.3z"/><path class="st7" d="M1258.8 407.3c3.3-111.1-61.4-208.5-156.5-252.2-55.9-24.7-101.9-67.3-130-120.8-45.7-25.5-84.9-61.6-113.5-105.2v.2C781-186.2 652.4-264.4 505.9-273.9 359.3-265 230.5-187.4 152.2-72.2v-.2C123.5-28.9 84.1 7 38.3 32.3 10 85.8-36.2 128.1-92.2 152.6-187.5 196-252.6 293-249.8 404.2c3.8 148.3 127.2 265.5 275.6 261.7L504 683.2l478.2-15.4c148.3 4.5 272.2-112.2 276.6-260.5z"/></g><g transform="translate(0 364)"><path class="st1" d="M0 5.1h940V673H0V5.1z"/><defs><filter id="Adobe_OpacityMaskFilter_1_" filterUnits="userSpaceOnUse" x="-929.8" y="-442.6" width="1518.1" height="974.2"><feColorMatrix values="1 0 0 0 0 0 1 0 0 0 0 0 1 0 0 0 0 0 1 0"/></filter></defs><mask maskUnits="userSpaceOnUse" x="-929.8" y="-442.6" width="1518.1" height="974.2" id="d_1_"><g filter="url(#Adobe_OpacityMaskFilter_1_)"><path id="c_1_" class="st3" d="M0 0h940v673H0V0z"/></g></mask><g mask="url(#d_1_)"><path d="M178.7 327.6v.2c28.6-43.6 67.8-79.6 113.5-105.1-4 7.7-7.7 15.6-11 23.8l-.1-.2c-67.3 162.9-225.4 279.6-413 285.2-14.1.4-28.1.2-42.2-.7 146.5-9.5 275-87.6 352.8-203.2z" fill-rule="evenodd" clip-rule="evenodd" fill="#1d2737"/><path class="st6" d="M588.1-108.4c-3.7 144-100.4 263.8-231.2 303.4v.1c-22.6 6.9-44.3 16.2-64.7 27.6 28.1-53.5 74.1-96.1 130-120.8 95.1-43.7 159.8-141 156.5-252.2-4.4-148.3-128.3-265-276.7-260.6l-478.2-15.4 407-14.7c13-1.3 26.3-1.8 39.7-1.4 180 4.6 322.2 154.1 317.6 334z"/><path class="st7" d="M578.8-150.3c3.3 111.1-61.4 208.5-156.5 252.2-55.9 24.7-101.9 67.3-130 120.8-45.7 25.5-84.9 61.6-113.5 105.1v-.2C100.9 443.2-27.6 521.4-174.1 530.8c-146.6-8.9-275.4-86.5-353.7-201.7v.2c-28.8-43.4-68.1-79.3-113.9-104.6-28.3-53.4-74.5-95.8-130.5-120.3C-867.5 61-932.6-36-929.8-147.2c3.8-148.3 127.2-265.5 275.6-261.7l478.1-17.3 478.2 15.4c148.4-4.5 272.3 112.2 276.7 260.5z"/></g></g></g></svg>