<svg width="940" height="673" viewBox="0 0 940 673" xmlns="http://www.w3.org/2000/svg" xmlns:xlink="http://www.w3.org/1999/xlink"><defs><path id="a" d="M0 0h940v673H0z"/></defs><g fill="none" fill-rule="evenodd"><mask id="b" fill="#fff"><use xlink:href="#a"/></mask><use fill="#2E8BE0" xlink:href="#a"/><g mask="url(#b)"><path d="M769.496 27.667v-.18c25.265 38.504 59.888 70.387 100.305 92.95-3.563-6.802-6.838-13.82-9.717-21.052l-.072.144c-59.529-143.94-199.208-247.145-365.016-252.075a427.855 427.855 0 00-37.286.576c129.494 8.42 243.044 77.511 311.786 179.637z" fill="#1D2737"/><path d="M-210.023 447.468c-2.52-98.275 55.03-184.1 139.212-222.388 49.487-21.699 90.3-59.123 115.313-106.371a293.345 293.345 0 01-57.26 24.182v.072c-115.71 34.617-201.62 140.09-205.399 267.404-4.714 159.018 120.389 291.766 279.43 296.48 11.878.36 23.539-.072 35.092-1.115l359.581-11.552-422.42-15.33c-131.15 3.347-240.166-100.217-243.549-231.382z" fill="#EE3127"/><path d="M145.204 26.191v.18C214.378-75.502 328.216-144.125 457.71-151.97c-12.31-.792-24.726-1.08-37.287-.756C254.58-148.48 114.503-45.85 54.4 97.838l-.072-.144c-2.916 7.197-6.227 14.178-9.826 20.979 40.49-22.347 75.292-54.05 100.702-92.482zM1131.236 413.174c-3.239-127.351-88.716-233.183-204.282-268.268v-.072c-19.975-6.118-39.122-14.358-57.153-24.434 24.834 47.32 65.503 84.96 114.882 106.84 84.038 38.611 141.19 124.687 138.276 222.962-3.887 131.13-113.37 234.263-244.52 230.376L455.946 694.18l359.545 13.063c11.517 1.116 23.214 1.583 35.091 1.26 159.078-4.067 284.721-136.276 280.654-295.33z" fill="#B4CFE3"/><path d="M1122.995 450.238c2.915-98.239-54.274-184.315-138.276-222.963-49.415-21.878-90.048-59.483-114.882-106.839-40.381-22.562-75.04-54.445-100.305-92.95v.18C700.754-74.458 587.204-143.585 457.746-151.97 328.252-144.09 214.414-75.466 145.24 26.37v-.18C119.83 64.587 85.064 96.326 44.574 118.71 19.524 165.957-21.253 203.38-70.739 225.08c-84.182 38.288-141.731 124.113-139.212 222.388 3.347 131.129 112.399 234.73 243.548 231.383l422.421 15.33 422.493-13.603c131.113 3.923 240.597-99.21 244.484-230.34z" fill="#F7FBFD"/></g></g></svg>