<svg width="1290" height="673" viewBox="0 0 1290 673" xmlns="http://www.w3.org/2000/svg" xmlns:xlink="http://www.w3.org/1999/xlink"><defs><path id="a" d="M0 0h1290v673H0z"/></defs><g fill="none" fill-rule="evenodd"><mask id="b" fill="#fff"><use xlink:href="#a"/></mask><use fill="#2E8BE0" xlink:href="#a"/><g mask="url(#b)"><path d="M778.74 66.104v-.177c24.76 37.745 58.692 68.999 98.301 91.116-3.492-6.667-6.701-13.545-9.523-20.636l-.07.142C809.108-4.553 672.22-105.722 509.726-110.555a419.191 419.191 0 00-36.54.565C600.09-101.736 711.371-34.007 778.74 66.104z" fill="#1D2737"/><path d="M-181.202 477.625c-2.47-96.336 53.93-180.468 136.429-218.001 48.498-21.271 88.496-57.957 113.01-104.274a287.44 287.44 0 01-56.118 23.705v.07c-113.397 33.936-197.59 137.328-201.293 262.132-4.62 155.881 117.983 286.012 273.846 290.633 11.64.352 23.068-.07 34.39-1.094l352.395-11.323-413.979-15.028c-128.528 3.281-235.365-98.241-238.68-226.82z" fill="#EE3127"/><path d="M166.925 64.658v.176C234.716-35.03 346.279-102.3 473.185-109.99c-12.062-.777-24.231-1.059-36.54-.741C274.114-106.57 136.838-5.964 77.934 134.89l-.07-.141c-2.857 7.055-6.102 13.898-9.629 20.565 39.68-21.906 73.788-52.983 98.689-90.657zM1133.252 444.008c-3.175-124.84-86.944-228.584-200.2-262.977v-.07c-19.576-5.998-38.34-14.076-56.01-23.953 24.336 46.387 64.193 83.285 112.585 104.733 82.359 37.85 138.37 122.228 135.512 218.565-3.809 128.543-111.104 229.642-239.633 225.833l-414.049 13.334 352.36 12.805c11.287 1.093 22.75 1.552 34.39 1.234 155.898-3.986 279.03-133.587 275.045-289.504z" fill="#B4CFE3"/><path d="M1125.175 480.342c2.857-96.302-53.19-180.68-135.513-218.566-48.427-21.448-88.248-58.31-112.585-104.733-39.575-22.117-73.541-53.371-98.301-91.116v.177C711.372-34.007 600.09-101.771 473.22-109.99c-126.906 7.725-238.47 74.995-306.26 174.824v-.176c-24.902 37.638-58.974 68.751-98.654 90.692-24.55 46.317-64.512 83.003-113.01 104.274-82.499 37.533-138.898 121.665-136.429 218.001 3.28 128.544 110.152 230.101 238.68 226.82l413.98 15.028 414.049-13.334c128.493 3.845 235.788-97.254 239.598-225.797z" fill="#F7FBFD"/></g></g></svg>