<svg xmlns="http://www.w3.org/2000/svg" viewBox="0 0 152.86 145.36"><title>icon-virtual-scanner</title><rect x="15.36" width="137.49" height="145.36" style="fill:none"/><path d="M112.08,42.17,60.87,59.76l0,5.29h27l20,19.35A5.59,5.59,0,0,1,111.33,89c0,.19,0,.38.05.57s0,.11,0,.17v16.52c0,.06,0,.11,0,.17s0,.38-.05.57a5.43,5.43,0,0,1-5.24,4.88H60.6l-.16,30.81,8.51-2.9,58.14-20,.44-82.9Z" transform="translate(-1.14 -2.13)" style="fill:none"/><polygon points="20.63 34.73 58.66 55.38 106.88 38.82 126.38 33.97 111.04 25.67 111.03 25.67 72.02 4.48 7.7 26.58 4.28 27.74 6.43 27.02 20.63 34.73" style="fill:none"/><path d="M26.49,111.83a5.43,5.43,0,0,1-5.24-4.89c0-.18,0-.37-.05-.56s0-.11,0-.17V89.69c0-.06,0-.11,0-.17s0-.37.05-.56a5.59,5.59,0,0,1,3.49-4.56L44.76,65H58.5l0-5.44L39.42,49.23,5.49,30.81l-.07-.94-.37,83.62,53,28.8.16-30.46Z" transform="translate(-1.14 -2.13)" style="fill:none"/><path d="M66.14,101.71l.6.46c.75.55,1.46,1.12,2.16,1.72a6,6,0,0,1,2-.83c-1.32-.77-1.58-.84-2.75-1.62a5.3,5.3,0,0,0,3.62-5.16,5,5,0,0,0-5.27-5.35,5.27,5.27,0,0,0-5.61,5.41C60.89,99.77,63,101.71,66.14,101.71Z" transform="translate(-1.14 -2.13)" style="fill:none"/><ellipse cx="42.98" cy="95.81" rx="3.89" ry="4.11" style="fill:none"/><path d="M34.26,93.83a4,4,0,0,0-3.62,2.52,4.59,4.59,0,0,0-.27,1.59,3.9,3.9,0,1,0,7.78,0,4.59,4.59,0,0,0-.27-1.59A3.89,3.89,0,0,0,34.26,93.83Zm0,6.36a2.34,2.34,0,1,1,2.21-2.34A2.25,2.25,0,0,1,34.26,100.19Z" transform="translate(-1.14 -2.13)" style="fill:none"/><path d="M66.35,88.71h0A12.21,12.21,0,0,1,73.28,91l0,9c0,4.83-6.93,7.09-6.93,7.09a13.55,13.55,0,0,1-5.69-3.81v2.7a19.25,19.25,0,0,0,5.7,3.1s8.75-2.75,8.71-8.59V89.58a15.84,15.84,0,0,0-8.71-2.7A15.31,15.31,0,0,0,60.72,88v2.19A12.09,12.09,0,0,1,66.35,88.71Z" transform="translate(-1.14 -2.13)" style="fill:none"/><path d="M57.64,89.58v10.85a5.81,5.81,0,0,0,.65,2.67l.07-14C57.91,89.38,57.64,89.58,57.64,89.58Z" transform="translate(-1.14 -2.13)" style="fill:none"/><path d="M34.26,95.52a2.34,2.34,0,1,0,2.21,2.34A2.25,2.25,0,0,0,34.26,95.52Z" transform="translate(-1.14 -2.13)" style="fill:#fff"/><polygon points="111.04 25.67 72.02 4.48 111.03 25.67 111.04 25.67" style="fill:none"/><polygon points="59.29 140.53 67.8 137.61 59.29 140.5 59.29 140.53" style="fill:none"/><polygon points="125.94 117.63 126.38 34.73 126.38 34.73 125.94 117.63" style="fill:none"/><polygon points="56.95 140.16 56.95 140.15 3.91 111.35 56.95 140.16" style="fill:none"/><path d="M130.38,33,74.22,2.56a1.85,1.85,0,0,0-1.5-.13L3,26.4a2.06,2.06,0,0,0-1.35,2l-.46,86.38a2.09,2.09,0,0,0,1.06,1.85l56.15,30.49a1.83,1.83,0,0,0,1.5.13l69.78-24a2.06,2.06,0,0,0,1.35-2l.46-86.38A2.08,2.08,0,0,0,130.38,33Zm-3.3,86.72L69,139.71l-.08,0-8.51,2.92v0l-1,.36-1.3-.7h0l-53-28.81.37-83.62,3.42-1.16L73.16,6.62l39,21.19,15.34,8.29v.76h0Z" transform="translate(-1.14 -2.13)" style="fill:#fff"/><polygon points="67.88 137.58 125.94 117.63 67.8 137.61 67.88 137.58"/><polygon points="56.48 62.92 56.51 58.04 4.28 29.68 4.28 27.74 7.61 26.61 58.74 54.38 123.19 32.24 126.38 33.97 126.38 35.71 60.61 58.3 60.58 62.92 56.48 62.92" style="fill:#fcfcfc;fill-opacity:0.22"/><polygon points="56.07 140.72 56.24 108.76 60.34 108.76 60.17 141.18 58.17 141.86 56.07 140.72" style="fill:#fff;fill-opacity:0.22"/><path d="M87.81,65H44.76l-20,19.35a4.93,4.93,0,0,1,1.75-.33h79.6a4.94,4.94,0,0,1,1.75.33Z" transform="translate(-1.14 -2.13)" style="fill:#fff"/><path d="M111.39,89.52c0-.19,0-.38-.05-.57a5.59,5.59,0,0,0-3.49-4.55,4.94,4.94,0,0,0-1.75-.33H26.49a4.93,4.93,0,0,0-1.75.33A5.59,5.59,0,0,0,21.25,89c0,.18,0,.37-.05.56s0,.11,0,.17v16.52c0,.06,0,.11,0,.17s0,.37.05.56a5.43,5.43,0,0,0,5.24,4.89h79.6a5.43,5.43,0,0,0,5.24-4.88c0-.19,0-.38.05-.57s0-.11,0-.17V89.69C111.4,89.63,111.39,89.58,111.39,89.52ZM34.26,102.06a4,4,0,0,1-3.89-4.11,4.59,4.59,0,0,1,.27-1.59,4,4,0,0,1,3.62-2.52,3.89,3.89,0,0,1,3.62,2.52,4.59,4.59,0,0,1,.27,1.59A4,4,0,0,1,34.26,102.06Zm9.86,0A4.12,4.12,0,1,1,48,97.95,4,4,0,0,1,44.12,102.06ZM75,100.43c0,5.85-8.71,8.59-8.71,8.59a19.25,19.25,0,0,1-5.7-3.1,8.91,8.91,0,0,1-2.33-2.82,5.81,5.81,0,0,1-.65-2.67V89.58s.27-.2.73-.47A16.22,16.22,0,0,1,60.72,88a15.31,15.31,0,0,1,5.61-1.1A15.84,15.84,0,0,1,75,89.58Z" transform="translate(-1.14 -2.13)" style="fill:#fff"/></svg>