<svg xmlns="http://www.w3.org/2000/svg" viewBox="0 0 180.4 52.49"><title>icon-scanner-appliance</title><path d="M75.18,13.86l0,20.52c-.1,11.05,17.34,16.25,17.34,16.25S110,45.43,110,34.37V13.86a32.15,32.15,0,0,0-34.79,0Z" transform="translate(-2.27 -3.43)" style="fill:none"/><path d="M28.43,25.08a4.42,4.42,0,1,0,4.42,4.42A4.38,4.38,0,0,0,28.43,25.08Z" transform="translate(-2.27 -3.43)" style="fill:#fff"/><path d="M182.63,13.74a10.3,10.3,0,0,0-.11-1.07A10.64,10.64,0,0,0,172,3.43H12.89A10.64,10.64,0,0,0,2.41,12.68a10.17,10.17,0,0,0-.11,1.05c0,.11,0,.21,0,.32V45.3c0,.11,0,.21,0,.32a10.17,10.17,0,0,0,.11,1.05,10.64,10.64,0,0,0,10.48,9.25H172a10.64,10.64,0,0,0,10.48-9.23,10.29,10.29,0,0,0,.11-1.07c0-.11,0-.21,0-.32V14.06C182.67,13.95,182.64,13.85,182.63,13.74ZM28.43,37.46a7.85,7.85,0,0,1-7.78-7.78,8.26,8.26,0,0,1,.53-3,8,8,0,0,1,7.25-4.77,7.77,7.77,0,0,1,7.25,4.77,8.25,8.25,0,0,1,.53,3A7.85,7.85,0,0,1,28.43,37.46Zm19.71,0a7.78,7.78,0,1,1,7.78-7.78A7.78,7.78,0,0,1,48.15,37.46ZM110,34.37C110,45.43,92.54,50.62,92.54,50.62S75.1,45.43,75.2,34.37l0-20.52a32.15,32.15,0,0,1,34.79,0Z" transform="translate(-2.27 -3.43)" style="fill:#fff"/></svg>