<svg xmlns="http://www.w3.org/2000/svg" viewBox="0 0 124.05 101.3"><title>icon-internet-scaners</title><path d="M128.14,31.65V10.33a7.33,7.33,0,0,0-7.3-7.3H11.53a7.33,7.33,0,0,0-7.3,7.3V31.65a7.25,7.25,0,0,0,2.86,5.72,7.25,7.25,0,0,0-2.86,5.72V64.41a7.25,7.25,0,0,0,2.86,5.72,7.25,7.25,0,0,0-2.86,5.72V97a7.33,7.33,0,0,0,7.3,7.3H121a7.33,7.33,0,0,0,7.3-7.3V75.86a7.25,7.25,0,0,0-2.86-5.72,7.25,7.25,0,0,0,2.86-5.72V43.09a7.25,7.25,0,0,0-2.86-5.72A7.57,7.57,0,0,0,128.14,31.65ZM7.52,10.33a4,4,0,0,1,4-4H121a4,4,0,0,1,4,4V31.65a4,4,0,0,1-4,4H11.53a4,4,0,0,1-4-4ZM120.84,39.09a4,4,0,0,1,4,4V64.41a4,4,0,0,1-4,4H11.53a4,4,0,0,1-4-4V43.09a4,4,0,0,1,4-4Zm4,57.95h0a3.91,3.91,0,0,1-4,4H11.53a3.91,3.91,0,0,1-4-4h0V75.86a4,4,0,0,1,4-4H121a4,4,0,0,1,4,4V97Z" transform="translate(-4.23 -3.03)" style="fill:#fff"/><path d="M77.2,27.5a1.24,1.24,0,0,0,.86.43,1,1,0,0,0,.86-.43,1.5,1.5,0,0,0,0-1.86L67.76,14.48a1.5,1.5,0,0,0-1.86,0,1.5,1.5,0,0,0,0,1.86Z" transform="translate(-4.23 -3.03)" style="fill:#fff"/><path d="M84.79,27.5a1.24,1.24,0,0,0,.86.43,1,1,0,0,0,.86-.43,1.5,1.5,0,0,0,0-1.86L75.34,14.48a1.5,1.5,0,0,0-1.86,0,1.5,1.5,0,0,0,0,1.86Z" transform="translate(-4.23 -3.03)" style="fill:#fff"/><path d="M92.94,27.5a1.24,1.24,0,0,0,.86.43,1,1,0,0,0,.86-.43,1.5,1.5,0,0,0,0-1.86L83.5,14.48a1.5,1.5,0,0,0-1.86,0,1.5,1.5,0,0,0,0,1.86Z" transform="translate(-4.23 -3.03)" style="fill:#fff"/><path d="M101.1,27.5a1.24,1.24,0,0,0,.86.43,1,1,0,0,0,.86-.43,1.5,1.5,0,0,0,0-1.86L91.65,14.48a1.5,1.5,0,0,0-1.86,0,1.5,1.5,0,0,0,0,1.86Z" transform="translate(-4.23 -3.03)" style="fill:#fff"/><path d="M108.68,27.5a1.24,1.24,0,0,0,.86.43,1,1,0,0,0,.86-.43,1.5,1.5,0,0,0,0-1.86L99.24,14.48a1.5,1.5,0,0,0-1.86,0,1.5,1.5,0,0,0,0,1.86Z" transform="translate(-4.23 -3.03)" style="fill:#fff"/><path d="M116.84,27.5a1.24,1.24,0,0,0,.86.43,1,1,0,0,0,.86-.43,1.5,1.5,0,0,0,0-1.86L107.39,14.48a1.5,1.5,0,0,0-1.86,0,1.5,1.5,0,0,0,0,1.86Z" transform="translate(-4.23 -3.03)" style="fill:#fff"/><circle cx="15.88" cy="18.03" r="6.3" style="fill:#fcfcfc"/><path d="M37.86,27.35a6.35,6.35,0,0,0,6.3-6.3,6.68,6.68,0,0,0-.43-2.43,6.29,6.29,0,0,0-5.87-3.86A6.44,6.44,0,0,0,32,18.63a6.68,6.68,0,0,0-.43,2.43A6.35,6.35,0,0,0,37.86,27.35Zm0-2.86a3.58,3.58,0,1,1,3.58-3.58A3.54,3.54,0,0,1,37.86,24.49Z" transform="translate(-4.23 -3.03)" style="fill:#fff"/><path d="M77.2,60.12a1.24,1.24,0,0,0,.86.43,1,1,0,0,0,.86-.43,1.5,1.5,0,0,0,0-1.86L67.76,47.1A1.32,1.32,0,0,0,65.9,49Z" transform="translate(-4.23 -3.03)" style="fill:#fff"/><path d="M84.79,60.12a1.24,1.24,0,0,0,.86.43,1,1,0,0,0,.86-.43,1.5,1.5,0,0,0,0-1.86L75.34,47.1A1.32,1.32,0,0,0,73.48,49Z" transform="translate(-4.23 -3.03)" style="fill:#fff"/><path d="M92.94,60.12a1.24,1.24,0,0,0,.86.43,1,1,0,0,0,.86-.43,1.5,1.5,0,0,0,0-1.86L83.5,47.1A1.32,1.32,0,1,0,81.64,49Z" transform="translate(-4.23 -3.03)" style="fill:#fff"/><path d="M101.1,60.12a1.24,1.24,0,0,0,.86.43,1,1,0,0,0,.86-.43,1.5,1.5,0,0,0,0-1.86L91.65,47.1A1.32,1.32,0,1,0,89.79,49Z" transform="translate(-4.23 -3.03)" style="fill:#fff"/><path d="M108.68,60.12a1.24,1.24,0,0,0,.86.43,1,1,0,0,0,.86-.43,1.5,1.5,0,0,0,0-1.86L99.24,47.1A1.32,1.32,0,0,0,97.38,49Z" transform="translate(-4.23 -3.03)" style="fill:#fff"/><path d="M116.84,60.12a1.24,1.24,0,0,0,.86.43,1,1,0,0,0,.86-.43,1.5,1.5,0,0,0,0-1.86L107.39,47.1A1.32,1.32,0,0,0,105.53,49Z" transform="translate(-4.23 -3.03)" style="fill:#fff"/><circle cx="33.62" cy="50.65" r="6.3" style="fill:#fcfcfc"/><path d="M20.11,60a6.3,6.3,0,1,0-6.3-6.3A6.26,6.26,0,0,0,20.11,60Zm0-9.87a3.58,3.58,0,1,1-3.58,3.58A3.54,3.54,0,0,1,20.11,50.1Z" transform="translate(-4.23 -3.03)" style="fill:#fff"/><path d="M67.76,80a1.32,1.32,0,1,0-1.86,1.86L77.06,93a1.24,1.24,0,0,0,.86.43,1,1,0,0,0,.86-.43,1.5,1.5,0,0,0,0-1.86Z" transform="translate(-4.23 -3.03)" style="fill:#fff"/><path d="M75.34,80a1.32,1.32,0,0,0-1.86,1.86L84.64,93a1.24,1.24,0,0,0,.86.43,1,1,0,0,0,.86-.43,1.5,1.5,0,0,0,0-1.86Z" transform="translate(-4.23 -3.03)" style="fill:#fff"/><path d="M83.5,80a1.32,1.32,0,0,0-1.86,1.86L92.8,93a1.24,1.24,0,0,0,.86.43,1,1,0,0,0,.86-.43,1.5,1.5,0,0,0,0-1.86Z" transform="translate(-4.23 -3.03)" style="fill:#fff"/><path d="M91.65,80a1.32,1.32,0,1,0-1.86,1.86L101,93a1.24,1.24,0,0,0,.86.43,1,1,0,0,0,.86-.43,1.5,1.5,0,0,0,0-1.86Z" transform="translate(-4.23 -3.03)" style="fill:#fff"/><path d="M99.24,80a1.32,1.32,0,1,0-1.86,1.86L108.54,93a1.24,1.24,0,0,0,.86.43,1,1,0,0,0,.86-.43,1.5,1.5,0,0,0,0-1.86Z" transform="translate(-4.23 -3.03)" style="fill:#fff"/><path d="M107.53,80a1.32,1.32,0,1,0-1.86,1.86L116.84,93a1.24,1.24,0,0,0,.86.43,1,1,0,0,0,.86-.43,1.5,1.5,0,0,0,0-1.86Z" transform="translate(-4.23 -3.03)" style="fill:#fff"/><circle cx="15.88" cy="83.42" r="6.3" style="fill:#fcfcfc"/><path d="M37.86,80.15a6.3,6.3,0,1,0,6.3,6.3A6.35,6.35,0,0,0,37.86,80.15Zm0,9.87a3.58,3.58,0,1,1,3.58-3.58A3.54,3.54,0,0,1,37.86,90Z" transform="translate(-4.23 -3.03)" style="fill:#fff"/></svg>