<svg id="Layer_1" data-name="Layer 1" xmlns="http://www.w3.org/2000/svg" viewBox="0 0 129.71 74.45">
  <title>industry-standard-icon</title>
  <g>
    <path d="M116.61,53.21h.26v-1.4h.79l.92,1.4h.29l-.91-1.4a.81.81,0,0,0,.78-.81c0-.55-.3-.84-1-.84h-1.14v3Zm.26-2.81h.84c.36,0,.77.14.77.61s-.5.58-1,.58h-.65V50.4Zm.68-1.05a2.28,2.28,0,0,1,2.31,2.34,2.31,2.31,0,1,1-2.31-2.34Zm0-.23a2.57,2.57,0,1,0,2.57,2.58,2.57,2.57,0,0,0-2.57-2.58Z" transform="translate(-1.87 -1.38)" style="fill: #184893;fill-rule: evenodd"/>
    <polygon points="28.09 15.15 30.41 15.15 30.41 41.45 28.09 41.45 28.09 15.15 28.09 15.15 28.09 15.15" style="fill: #184893"/>
    <polygon points="41.16 33.87 18.5 20.71 17.34 22.73 40 35.88 41.16 33.87 41.16 33.87 41.16 33.87" style="fill: #184893"/>
    <polygon points="40 20.71 17.34 33.87 18.5 35.88 41.16 22.73 40 20.71 40 20.71 40 20.71" style="fill: #184893"/>
    <path d="M27.13,14.19A3.89,3.89,0,1,1,31,18.11a3.9,3.9,0,0,1-3.89-3.91Z" transform="translate(-1.87 -1.38)" style="fill: #184893"/>
    <path d="M21.1,23.86a3.93,3.93,0,0,0-1.42-5.35A3.88,3.88,0,0,0,14.36,20a3.92,3.92,0,0,0,1.42,5.34,3.88,3.88,0,0,0,5.32-1.43Z" transform="translate(-1.87 -1.38)" style="fill: #184893"/>
    <path d="M21.1,35.39A3.88,3.88,0,0,0,15.79,34a3.92,3.92,0,0,0-1.42,5.34,3.88,3.88,0,0,0,5.31,1.43,3.92,3.92,0,0,0,1.42-5.34Z" transform="translate(-1.87 -1.38)" style="fill: #184893"/>
    <path d="M31,41.15a3.91,3.91,0,1,0,3.89,3.91A3.9,3.9,0,0,0,31,41.15Z" transform="translate(-1.87 -1.38)" style="fill: #184893"/>
    <path d="M40.94,35.38a3.92,3.92,0,0,0,1.42,5.34,3.88,3.88,0,0,0,5.32-1.43A3.93,3.93,0,0,0,46.26,34a3.88,3.88,0,0,0-5.32,1.43Z" transform="translate(-1.87 -1.38)" style="fill: #184893"/>
    <path d="M40.95,23.87a3.88,3.88,0,0,0,5.32,1.43A3.93,3.93,0,0,0,47.68,20a3.88,3.88,0,0,0-5.32-1.43,3.92,3.92,0,0,0-1.42,5.34Z" transform="translate(-1.87 -1.38)" style="fill: #184893"/>
    <polygon points="88.68 24.03 84.63 33.75 102.76 33.75 106.82 24.03 88.68 24.03 88.68 24.03 88.68 24.03" style="fill: #184893"/>
    <polygon points="79.53 45.98 75.47 55.81 106.38 55.81 110.44 45.98 79.53 45.98 79.53 45.98 79.53 45.98" style="fill: #184893"/>
    <path d="M49.6,39.82a21.68,21.68,0,0,1-3.39,4.89A21.75,21.75,0,0,1,8.52,29.93,21.69,21.69,0,0,1,42.63,12.15H52.75a28.56,28.56,0,1,0-1.35,37c.53-.58,1-1.14,1.47-1.69L49.6,39.82Z" transform="translate(-1.87 -1.38)" style="fill: #184893"/>
    <path d="M84.37,1.94,66.58,44.83,54.67,16.47h-9.1a5.68,5.68,0,0,1,3.28,2.61,5.76,5.76,0,0,1-.54,6.5l13.09,31.6H71.81L95.07,1.94Z" transform="translate(-1.87 -1.38)" style="fill: #184893"/>
    <polygon points="98.65 0.56 94.6 10.19 125.63 10.19 129.71 0.56 98.65 0.56 98.65 0.56 98.65 0.56" style="fill: #184893"/>
    <g>
      <path d="M19.89,67.26a4.23,4.23,0,0,0-2.4-.61,3.93,3.93,0,0,0-4,4.21,3.08,3.08,0,0,0,3,3.31,4.18,4.18,0,0,0,2.2-.64l-.33,2a9,9,0,0,1-2.37.29c-3.16,0-4.67-2.13-4.67-5a5.62,5.62,0,0,1,6-5.86,8.3,8.3,0,0,1,3.07.51Z" transform="translate(-1.87 -1.38)" style="fill: #184893"/>
      <path d="M32.3,69.44a7,7,0,0,1-1.75,4.63,5.77,5.77,0,0,1-4.43,1.76A4,4,0,0,1,22,71.48a7,7,0,0,1,1.65-4.53A5.48,5.48,0,0,1,27.94,65C30.77,65,32.3,66.65,32.3,69.44ZM24.18,71.6c0,1.36.69,2.58,2.2,2.58,2.4,0,3.73-2.88,3.73-5,0-1.39-.72-2.56-2.23-2.56C25.44,66.65,24.18,69.48,24.18,71.6Z" transform="translate(-1.87 -1.38)" style="fill: #184893"/>
      <path d="M36.79,65.18h3.46l.7,7.55h0l4.12-7.55h3.49L46.36,75.65H44.14l2-8.67h0l-4.73,8.67h-2L38.51,67h0l-1.92,8.67h-2Z" transform="translate(-1.87 -1.38)" style="fill: #184893"/>
      <path d="M52.15,75.65h-2.1l2.22-10.47H54c1.93,0,4.58.1,4.58,2.72s-2.08,3.78-4.42,3.78H53ZM53.35,70h.75c1.15,0,2.33-.6,2.33-1.91,0-1.06-.85-1.29-1.75-1.29H54Z" transform="translate(-1.87 -1.38)" style="fill: #184893"/>
      <path d="M65.26,65.18h2.32l1.9,10.47h-2.1L67,73.25H62.58l-1.33,2.4H58.93ZM63.51,71.6h3.23L66.09,67H66Z" transform="translate(-1.87 -1.38)" style="fill: #184893"/>
      <path d="M72.58,65.18h8.07l-.34,1.65H77.36l-1.9,8.82H73.27l1.9-8.82H72.22Z" transform="translate(-1.87 -1.38)" style="fill: #184893"/>
      <path d="M83.24,65.18h2.19l-2.2,10.47H81Z" transform="translate(-1.87 -1.38)" style="fill: #184893"/>
      <path d="M88.95,65.18H92c1.63,0,3.16.6,3.16,2.51A2.6,2.6,0,0,1,93,70.17v0a2,2,0,0,1,1.68,2.2c0,3-3.35,3.24-4.91,3.24h-3ZM89.11,74h.72c1.29,0,2.72-.15,2.72-1.77,0-1.1-1-1.26-2.14-1.26h-.67Zm1-4.59h.82c1.06,0,2.21-.3,2.21-1.53,0-1-1-1-1.75-1h-.73Z" transform="translate(-1.87 -1.38)" style="fill: #184893"/>
      <path d="M99.65,65.18h2.1L99.88,74H104l-.36,1.65H97.44Z" transform="translate(-1.87 -1.38)" style="fill: #184893"/>
      <path d="M108.74,65.18h6.15l-.31,1.65h-4.09L110,69.41h3.65l-.33,1.65h-3.67L109,74h4.13l-.36,1.65h-6.23Z" transform="translate(-1.87 -1.38)" style="fill: #184893"/>
    </g>
  </g>
</svg>
