<svg viewBox="0 0 600 631" xmlns="http://www.w3.org/2000/svg"><mask id="a" fill="#fff"><path d="M0 .129h583.238v490.25H0z" fill-rule="evenodd"/></mask><mask id="b" fill="#fff"><path d="M0 630.872h599.857V.262H0z" fill-rule="evenodd"/></mask><mask id="c" fill="#fff"><path d="M0 630.872h599.857V.262H0z" fill-rule="evenodd"/></mask><mask id="d" fill="#fff"><path d="M0 630.872h599.857V.262H0z" fill-rule="evenodd"/></mask><mask id="e" fill="#fff"><path d="M0 630.872h599.857V.262H0z" fill-rule="evenodd"/></mask><mask id="f" fill="#fff"><path d="M0 630.872h599.857V.262H0z" fill-rule="evenodd"/></mask><mask id="g" fill="#fff"><path d="M0 630.872h599.857V.262H0z" fill-rule="evenodd"/></mask><mask id="h" fill="#fff"><path d="M0 630.872h599.857V.262H0z" fill-rule="evenodd"/></mask><mask id="i" fill="#fff"><path d="M0 630.872h599.857V.262H0z" fill-rule="evenodd"/></mask><mask id="j" fill="#fff"><path d="M0 630.872h599.857V.262H0z" fill-rule="evenodd"/></mask><mask id="k" fill="#fff"><path d="M0 630.872h599.857V.262H0z" fill-rule="evenodd"/></mask><mask id="l" fill="#fff"><path d="M0 630.872h599.857V.262H0z" fill-rule="evenodd"/></mask><mask id="m" fill="#fff"><path d="M0 630.872h599.857V.262H0z" fill-rule="evenodd"/></mask><mask id="n" fill="#fff"><path d="M0 630.872h599.857V.262H0z" fill-rule="evenodd"/></mask><mask id="o" fill="#fff"><path d="M0 630.872h599.857V.262H0z" fill-rule="evenodd"/></mask><mask id="p" fill="#fff"><path d="M0 630.872h599.857V.262H0z" fill-rule="evenodd"/></mask><mask id="q" fill="#fff"><path d="M0 630.872h599.857V.262H0z" fill-rule="evenodd"/></mask><mask id="r" fill="#fff"><path d="M0 630.872h599.857V.262H0z" fill-rule="evenodd"/></mask><mask id="s" fill="#fff"><path d="M0 630.872h599.857V.262H0z" fill-rule="evenodd"/></mask><mask id="t" fill="#fff"><path d="M0 630.872h599.857V.262H0z" fill-rule="evenodd"/></mask><mask id="u" fill="#fff"><path d="M0 630.872h599.857V.262H0z" fill-rule="evenodd"/></mask><mask id="v" fill="#fff"><path d="M0 630.872h599.857V.262H0z" fill-rule="evenodd"/></mask><mask id="w" fill="#fff"><path d="M0 630.872h599.857V.262H0z" fill-rule="evenodd"/></mask><mask id="x" fill="#fff"><path d="M0 630.872h599.857V.262H0z" fill-rule="evenodd"/></mask><mask id="y" fill="#fff"><path d="M0 630.872h599.857V.262H0z" fill-rule="evenodd"/></mask><mask id="z" fill="#fff"><path d="M0 630.872h599.857V.262H0z" fill-rule="evenodd"/></mask><mask id="A" fill="#fff"><path d="M0 630.872h599.857V.262H0z" fill-rule="evenodd"/></mask><mask id="B" fill="#fff"><path d="M0 630.872h599.857V.262H0z" fill-rule="evenodd"/></mask><mask id="C" fill="#fff"><path d="M0 630.872h599.857V.262H0z" fill-rule="evenodd"/></mask><mask id="D" fill="#fff"><path d="M0 630.872h599.857V.262H0z" fill-rule="evenodd"/></mask><mask id="E" fill="#fff"><path d="M0 630.872h599.857V.262H0z" fill-rule="evenodd"/></mask><mask id="F" fill="#fff"><path d="M0 630.872h599.857V.262H0z" fill-rule="evenodd"/></mask><mask id="G" fill="#fff"><path d="M0 630.872h599.857V.262H0z" fill-rule="evenodd"/></mask><mask id="H" fill="#fff"><path d="M0 630.872h599.857V.262H0z" fill-rule="evenodd"/></mask><mask id="I" fill="#fff"><path d="M0 630.872h599.857V.262H0z" fill-rule="evenodd"/></mask><mask id="J" fill="#fff"><path d="M0 630.872h599.857V.262H0z" fill-rule="evenodd"/></mask><mask id="K" fill="#fff"><path d="M0 630.872h599.857V.262H0z" fill-rule="evenodd"/></mask><mask id="L" fill="#fff"><path d="M0 630.872h599.857V.262H0z" fill-rule="evenodd"/></mask><mask id="M" fill="#fff"><path d="M0 630.872h599.857V.262H0z" fill-rule="evenodd"/></mask><mask id="N" fill="#fff"><path d="M0 630.872h599.857V.262H0z" fill-rule="evenodd"/></mask><mask id="O" fill="#fff"><path d="M0 630.872h599.857V.262H0z" fill-rule="evenodd"/></mask><mask id="P" fill="#fff"><path d="M0 630.872h599.857V.262H0z" fill-rule="evenodd"/></mask><mask id="Q" fill="#fff"><path d="M0 630.872h599.857V.262H0z" fill-rule="evenodd"/></mask><mask id="R" fill="#fff"><path d="M0 630.872h599.857V.262H0z" fill-rule="evenodd"/></mask><mask id="S" fill="#fff"><path d="M0 630.872h599.857V.262H0z" fill-rule="evenodd"/></mask><mask id="T" fill="#fff"><path d="M0 630.872h599.857V.262H0z" fill-rule="evenodd"/></mask><mask id="U" fill="#fff"><path d="M0 630.872h599.857V.262H0z" fill-rule="evenodd"/></mask><mask id="V" fill="#fff"><path d="M0 630.872h599.857V.262H0z" fill-rule="evenodd"/></mask><mask id="W" fill="#fff"><path d="M0 630.872h599.857V.262H0z" fill-rule="evenodd"/></mask><mask id="X" fill="#fff"><path d="M0 630.872h599.857V.262H0z" fill-rule="evenodd"/></mask><mask id="Y" fill="#fff"><path d="M0 630.872h599.857V.262H0z" fill-rule="evenodd"/></mask><mask id="Z" fill="#fff"><path d="M0 630.872h599.857V.262H0z" fill-rule="evenodd"/></mask><mask id="aa" fill="#fff"><path d="M0 630.872h599.857V.262H0z" fill-rule="evenodd"/></mask><mask id="ab" fill="#fff"><path d="M0 630.872h599.857V.262H0z" fill-rule="evenodd"/></mask><mask id="ac" fill="#fff"><path d="M0 630.872h599.857V.262H0z" fill-rule="evenodd"/></mask><mask id="ad" fill="#fff"><path d="M0 630.872h599.857V.262H0z" fill-rule="evenodd"/></mask><mask id="ae" fill="#fff"><path d="M0 630.872h599.857V.262H0z" fill-rule="evenodd"/></mask><mask id="af" fill="#fff"><path d="M0 630.872h599.857V.262H0z" fill-rule="evenodd"/></mask><mask id="ag" fill="#fff"><path d="M0 630.872h599.857V.262H0z" fill-rule="evenodd"/></mask><mask id="ah" fill="#fff"><path d="M0 630.872h599.857V.262H0z" fill-rule="evenodd"/></mask><mask id="ai" fill="#fff"><path d="M0 630.872h599.857V.262H0z" fill-rule="evenodd"/></mask><mask id="aj" fill="#fff"><path d="M0 630.872h599.857V.262H0z" fill-rule="evenodd"/></mask><mask id="ak" fill="#fff"><path d="M0 630.872h599.857V.262H0z" fill-rule="evenodd"/></mask><mask id="al" fill="#fff"><path d="M0 630.872h599.857V.262H0z" fill-rule="evenodd"/></mask><mask id="am" fill="#fff"><path d="M0 630.872h599.857V.262H0z" fill-rule="evenodd"/></mask><mask id="an" fill="#fff"><path d="M0 630.872h599.857V.262H0z" fill-rule="evenodd"/></mask><mask id="ao" fill="#fff"><path d="M0 630.872h599.857V.262H0z" fill-rule="evenodd"/></mask><mask id="ap" fill="#fff"><path d="M0 630.872h599.857V.262H0z" fill-rule="evenodd"/></mask><mask id="aq" fill="#fff"><path d="M0 630.872h599.857V.262H0z" fill-rule="evenodd"/></mask><mask id="ar" fill="#fff"><path d="M0 630.872h599.857V.262H0z" fill-rule="evenodd"/></mask><mask id="as" fill="#fff"><path d="M0 630.872h599.857V.262H0z" fill-rule="evenodd"/></mask><mask id="at" fill="#fff"><path d="M0 630.872h599.857V.262H0z" fill-rule="evenodd"/></mask><mask id="au" fill="#fff"><path d="M0 630.872h599.857V.262H0z" fill-rule="evenodd"/></mask><mask id="av" fill="#fff"><path d="M0 630.872h599.857V.262H0z" fill-rule="evenodd"/></mask><mask id="aw" fill="#fff"><path d="M0 630.872h599.857V.262H0z" fill-rule="evenodd"/></mask><mask id="ax" fill="#fff"><path d="M0 630.872h599.857V.262H0z" fill-rule="evenodd"/></mask><mask id="ay" fill="#fff"><path d="M0 630.872h599.857V.262H0z" fill-rule="evenodd"/></mask><mask id="az" fill="#fff"><path d="M0 630.872h599.857V.262H0z" fill-rule="evenodd"/></mask><mask id="aA" fill="#fff"><path d="M0 630.872h599.857V.262H0z" fill-rule="evenodd"/></mask><mask id="aB" fill="#fff"><path d="M0 630.872h599.857V.262H0z" fill-rule="evenodd"/></mask><mask id="aC" fill="#fff"><path d="M0 630.872h599.857V.262H0z" fill-rule="evenodd"/></mask><mask id="aD" fill="#fff"><path d="M0 630.872h599.857V.262H0z" fill-rule="evenodd"/></mask><mask id="aE" fill="#fff"><path d="M0 630.872h599.857V.262H0z" fill-rule="evenodd"/></mask><mask id="aF" fill="#fff"><path d="M0 630.872h599.857V.262H0z" fill-rule="evenodd"/></mask><mask id="aG" fill="#fff"><path d="M0 630.872h599.857V.262H0z" fill-rule="evenodd"/></mask><mask id="aH" fill="#fff"><path d="M0 630.872h599.857V.262H0z" fill-rule="evenodd"/></mask><mask id="aI" fill="#fff"><path d="M0 630.872h599.857V.262H0z" fill-rule="evenodd"/></mask><mask id="aJ" fill="#fff"><path d="M0 630.872h599.857V.262H0z" fill-rule="evenodd"/></mask><mask id="aK" fill="#fff"><path d="M0 630.872h599.857V.262H0z" fill-rule="evenodd"/></mask><mask id="aL" fill="#fff"><path d="M0 630.872h599.857V.262H0z" fill-rule="evenodd"/></mask><mask id="aM" fill="#fff"><path d="M0 630.872h599.857V.262H0z" fill-rule="evenodd"/></mask><mask id="aN" fill="#fff"><path d="M0 630.872h599.857V.262H0z" fill-rule="evenodd"/></mask><mask id="aO" fill="#fff"><path d="M0 630.872h599.857V.262H0z" fill-rule="evenodd"/></mask><mask id="aP" fill="#fff"><path d="M0 630.872h599.857V.262H0z" fill-rule="evenodd"/></mask><mask id="aQ" fill="#fff"><path d="M0 630.872h599.857V.262H0z" fill-rule="evenodd"/></mask><mask id="aR" fill="#fff"><path d="M0 630.872h599.857V.262H0z" fill-rule="evenodd"/></mask><mask id="aS" fill="#fff"><path d="M0 630.872h599.857V.262H0z" fill-rule="evenodd"/></mask><mask id="aT" fill="#fff"><path d="M0 630.872h599.857V.262H0z" fill-rule="evenodd"/></mask><mask id="aU" fill="#fff"><path d="M0 630.872h599.857V.262H0z" fill-rule="evenodd"/></mask><mask id="aV" fill="#fff"><path d="M0 630.872h599.857V.262H0z" fill-rule="evenodd"/></mask><mask id="aW" fill="#fff"><path d="M0 630.872h599.857V.262H0z" fill-rule="evenodd"/></mask><mask id="aX" fill="#fff"><path d="M0 630.872h599.857V.262H0z" fill-rule="evenodd"/></mask><mask id="aY" fill="#fff"><path d="M0 630.872h599.857V.262H0z" fill-rule="evenodd"/></mask><mask id="aZ" fill="#fff"><path d="M0 630.872h599.857V.262H0z" fill-rule="evenodd"/></mask><mask id="ba" fill="#fff"><path d="M0 630.872h599.857V.262H0z" fill-rule="evenodd"/></mask><mask id="bb" fill="#fff"><path d="M0 630.872h599.857V.262H0z" fill-rule="evenodd"/></mask><mask id="bc" fill="#fff"><path d="M0 630.872h599.857V.262H0z" fill-rule="evenodd"/></mask><mask id="bd" fill="#fff"><path d="M0 630.872h599.857V.262H0z" fill-rule="evenodd"/></mask><mask id="be" fill="#fff"><path d="M0 630.872h599.857V.262H0z" fill-rule="evenodd"/></mask><mask id="bf" fill="#fff"><path d="M0 630.872h599.857V.262H0z" fill-rule="evenodd"/></mask><mask id="bg" fill="#fff"><path d="M0 630.872h599.857V.262H0z" fill-rule="evenodd"/></mask><mask id="bh" fill="#fff"><path d="M0 630.872h599.857V.262H0z" fill-rule="evenodd"/></mask><mask id="bi" fill="#fff"><path d="M0 630.872h599.857V.262H0z" fill-rule="evenodd"/></mask><mask id="bj" fill="#fff"><path d="M0 630.872h599.857V.262H0z" fill-rule="evenodd"/></mask><mask id="bk" fill="#fff"><path d="M0 630.872h599.857V.262H0z" fill-rule="evenodd"/></mask><mask id="bl" fill="#fff"><path d="M0 630.872h599.857V.262H0z" fill-rule="evenodd"/></mask><mask id="bm" fill="#fff"><path d="M0 630.872h599.857V.262H0z" fill-rule="evenodd"/></mask><mask id="bn" fill="#fff"><path d="M0 630.872h599.857V.262H0z" fill-rule="evenodd"/></mask><mask id="bo" fill="#fff"><path d="M0 630.872h599.857V.262H0z" fill-rule="evenodd"/></mask><mask id="bp" fill="#fff"><path d="M0 630.872h599.857V.262H0z" fill-rule="evenodd"/></mask><mask id="bq" fill="#fff"><path d="M0 630.872h599.857V.262H0z" fill-rule="evenodd"/></mask><mask id="br" fill="#fff"><path d="M0 630.872h599.857V.262H0z" fill-rule="evenodd"/></mask><mask id="bs" fill="#fff"><path d="M0 630.872h599.857V.262H0z" fill-rule="evenodd"/></mask><g fill="none" fill-rule="evenodd"><g fill-rule="nonzero"><path d="M493.976 374.583c27.846-6.224 51.98-25.264 67.178-49.417 15.198-24.152 21.903-53.039 22.087-81.575.179-29.93-7.346-61.24-27.742-83.143-21.833-23.447-54.495-32.606-82.624-47.939-41.281-22.502-73.433-58.894-113.717-83.136-64.797-38.994-153.859-40.95-213.13 6.02-34.293 27.177-55.743 66.87-79.357 103.71-22.701 35.417-48.563 69.922-60.15 110.365C-7.536 298.54 1.644 353.326 29.15 396.326c27.507 43 72.51 73.967 122.01 86.42 42.19 10.616 86.478 8.267 129.795 4.232 41.327-3.85 82.516-9.17 123.465-15.947 17.985-2.976 36.574-6.498 51.45-17.036 23.853-16.899 32.774-47.551 40.126-75.846" fill="#ECF6FA" mask="url(#a)" transform="translate(0 .134)"/><path d="M318.146 360.735h53.997c.76 0 1.376.616 1.376 1.375v12.857c0 .76-.616 1.376-1.376 1.376h-53.997c-.759 0-1.375-.616-1.375-1.376V362.11c0-.759.616-1.375 1.375-1.375" fill="#f6f9fb"/><path d="M318.146 361.696a.415.415 0 00-.414.414v12.857c0 .229.185.415.414.415h53.996a.416.416 0 00.416-.415V362.11a.416.416 0 00-.416-.414zm53.996 15.608h-53.996a2.34 2.34 0 01-2.336-2.337V362.11a2.34 2.34 0 012.336-2.336h53.996a2.34 2.34 0 012.338 2.336v12.857a2.34 2.34 0 01-2.338 2.337z" fill="#b3cde3"/><path d="M318.146 376.214h53.997c.76 0 1.376.61 1.376 1.364v12.75a1.37 1.37 0 01-1.376 1.364h-53.997a1.37 1.37 0 01-1.375-1.364v-12.75a1.37 1.37 0 011.375-1.364" fill="#fff"/><path d="M318.146 377.175a.41.41 0 00-.414.403v12.75a.41.41 0 00.414.403h53.996a.41.41 0 00.416-.403v-12.75a.41.41 0 00-.416-.403zm53.996 15.479h-53.996a2.334 2.334 0 01-2.336-2.326v-12.75a2.334 2.334 0 012.336-2.326h53.996a2.334 2.334 0 012.338 2.326v12.75a2.334 2.334 0 01-2.338 2.326z" fill="#b5cfe4"/><path d="M318.146 391.692h53.997c.76 0 1.376.611 1.376 1.365v12.75a1.37 1.37 0 01-1.376 1.364h-53.997a1.37 1.37 0 01-1.375-1.364v-12.75a1.37 1.37 0 011.375-1.365" fill="#fff"/><path d="M318.146 392.654a.409.409 0 00-.414.402v12.751a.41.41 0 00.414.403h53.996a.41.41 0 00.416-.403v-12.75a.41.41 0 00-.416-.403zm53.996 15.478h-53.996a2.334 2.334 0 01-2.336-2.325v-12.75a2.334 2.334 0 012.336-2.326h53.996a2.334 2.334 0 012.338 2.325v12.751a2.334 2.334 0 01-2.338 2.325z" fill="#b5cfe4"/><path d="M318.146 360.735h53.997c.76 0 1.376.61 1.376 1.364v12.75a1.37 1.37 0 01-1.376 1.365h-53.997a1.37 1.37 0 01-1.375-1.365V362.1a1.37 1.37 0 011.375-1.364" fill="#fff"/><path d="M318.146 361.696a.41.41 0 00-.414.403v12.75a.41.41 0 00.414.403h53.996a.41.41 0 00.416-.403V362.1a.41.41 0 00-.416-.403zm53.996 15.478h-53.996a2.334 2.334 0 01-2.336-2.325V362.1a2.334 2.334 0 012.336-2.325h53.996a2.334 2.334 0 012.338 2.325v12.75a2.334 2.334 0 01-2.338 2.325z" fill="#b5cfe4"/><path d="M321.894 368.539a2.286 2.286 0 114.572 0 2.286 2.286 0 01-4.572 0" fill="#f6f9fb"/><path d="M324.179 367.214a1.326 1.326 0 101.326 1.325c0-.73-.595-1.325-1.326-1.325m0 4.571a3.25 3.25 0 01-3.246-3.246 3.25 3.25 0 013.246-3.247 3.251 3.251 0 013.248 3.247 3.25 3.25 0 01-3.248 3.246m7.172-3.246a2.286 2.286 0 114.573 0 2.286 2.286 0 01-4.573 0" fill="#2d8adf"/><path d="M321.894 399.754a2.286 2.286 0 114.572 0 2.286 2.286 0 01-4.572 0" fill="#f6f9fb"/><path d="M324.179 398.43c-.73 0-1.324.594-1.324 1.324a1.326 1.326 0 002.65 0c0-.73-.595-1.324-1.326-1.324m0 4.571c-1.79 0-3.246-1.457-3.246-3.247s1.456-3.246 3.246-3.246 3.248 1.456 3.248 3.246-1.458 3.247-3.248 3.247m7.172-3.247a2.286 2.286 0 114.573.001 2.286 2.286 0 01-4.573 0" fill="#2d8adf"/><path d="M335.923 384.147a2.286 2.286 0 11-4.572-.001 2.286 2.286 0 014.572 0" fill="#f6f9fb"/><path d="M333.638 382.822c-.732 0-1.326.594-1.326 1.324a1.326 1.326 0 002.65 0c0-.73-.594-1.324-1.324-1.324m0 4.571a3.25 3.25 0 01-3.248-3.247 3.25 3.25 0 013.248-3.246 3.25 3.25 0 013.246 3.246 3.25 3.25 0 01-3.246 3.247m-7.173-3.246a2.286 2.286 0 11-4.572-.001 2.286 2.286 0 014.572 0" fill="#2d8adf"/><path d="M351.607 397.468l4.73 5.082" fill="#f6f9fb"/><path d="M356.336 403.51a.959.959 0 01-.704-.306l-4.729-5.081a.961.961 0 111.408-1.31l4.729 5.082a.962.962 0 01-.704 1.616" fill="#b5cfe4"/><path d="M342.15 397.468l4.728 5.082" fill="#f6f9fb"/><path d="M346.878 403.51a.96.96 0 01-.704-.306l-4.728-5.081a.961.961 0 011.407-1.31l4.73 5.082a.962.962 0 01-.705 1.616" fill="#b5cfe4"/><path d="M361.066 397.468l4.728 5.082" fill="#f6f9fb"/><path d="M365.795 403.51a.96.96 0 01-.704-.306l-4.729-5.081a.96.96 0 111.408-1.31l4.729 5.082a.962.962 0 01-.704 1.616" fill="#b5cfe4"/><path d="M351.607 381.606l4.73 5.081" fill="#f6f9fb"/><path d="M356.336 387.648a.96.96 0 01-.704-.306l-4.729-5.081a.961.961 0 111.408-1.31l4.729 5.082a.961.961 0 01-.704 1.615" fill="#b5cfe4"/><path d="M342.15 381.606l4.728 5.081" fill="#f6f9fb"/><path d="M346.878 387.648a.96.96 0 01-.704-.306l-4.728-5.081a.961.961 0 011.407-1.31l4.73 5.082a.962.962 0 01-.705 1.615" fill="#b5cfe4"/><path d="M361.066 381.606l4.728 5.081" fill="#f6f9fb"/><path d="M365.795 387.648a.96.96 0 01-.704-.306l-4.729-5.081a.96.96 0 111.408-1.31l4.729 5.082a.962.962 0 01-.704 1.615" fill="#b5cfe4"/><path d="M351.607 365.998l4.73 5.082" fill="#f6f9fb"/><path d="M356.336 372.04a.96.96 0 01-.704-.306l-4.729-5.081a.961.961 0 111.408-1.31l4.729 5.082a.961.961 0 01-.704 1.616" fill="#b5cfe4"/><path d="M342.15 365.998l4.728 5.082" fill="#f6f9fb"/><path d="M346.878 372.04a.96.96 0 01-.704-.306l-4.728-5.081a.961.961 0 011.407-1.31l4.73 5.082a.962.962 0 01-.705 1.616" fill="#b5cfe4"/><path d="M361.066 365.998l4.728 5.082" fill="#f6f9fb"/><path d="M365.795 372.04a.96.96 0 01-.704-.306l-4.729-5.081a.96.96 0 111.408-1.31l4.729 5.082a.962.962 0 01-.704 1.616" fill="#b5cfe4"/><path d="M358.013 137.128h-2.58l-3.266 46.601h11.692l-3.267-46.601z" fill="#fff"/><path d="M353.197 182.768h9.631l-3.132-44.68h-3.366zm10.662 1.922h-11.693a.962.962 0 01-.958-1.028l3.267-46.601a.96.96 0 01.958-.894h5.159a.96.96 0 01.958.894l3.267 46.601a.96.96 0 01-.958 1.028z" fill="#b5cfe4"/><path d="M355.035 142.814h1.908" fill="#f6f9fb"/><path d="M356.942 143.775h-1.907a.96.96 0 110-1.922h1.907a.96.96 0 110 1.922" fill="#b5cfe4"/><path d="M361.707 153.032h-2.357" fill="#f6f9fb"/><path d="M361.707 153.993h-2.358a.96.96 0 010-1.922h2.358a.96.96 0 110 1.922" fill="#b5cfe4"/><path d="M354.106 156.073h5.244" fill="#f6f9fb"/><path d="M359.35 157.034h-5.245a.961.961 0 110-1.922h5.244a.96.96 0 110 1.922" fill="#b5cfe4"/><path d="M358.015 166.226h4.26" fill="#f6f9fb"/><path d="M362.275 167.187h-4.26a.96.96 0 110-1.922h4.26a.96.96 0 110 1.922" fill="#b5cfe4"/><path d="M328.948 183.729V155.37l12.941 6.84v21.519z" fill="#fff"/><path d="M329.91 182.768h11.018v-19.98l-11.019-5.823zm11.98 1.922h-12.942a.96.96 0 01-.961-.96v-28.36a.96.96 0 011.41-.85l12.941 6.84a.961.961 0 01.513.85v21.52a.96.96 0 01-.962.96z" fill="#b5cfe4"/><path d="M332.526 167.892h5.786v-2.947h-5.786z" fill="#f6f9fb" mask="url(#b)"/><path d="M333.487 166.93h3.864v-1.023h-3.864zm4.825 1.923h-5.786a.96.96 0 01-.962-.961v-2.947c0-.53.43-.96.962-.96h5.786c.531 0 .96.43.96.96v2.947a.96.96 0 01-.96.96z" fill="#b5cfe4" mask="url(#c)"/><path d="M332.526 174.679h5.786v-2.946h-5.786z" fill="#f6f9fb" mask="url(#d)"/><path d="M333.487 173.718h3.864v-1.024h-3.864zm4.825 1.922h-5.786a.96.96 0 01-.962-.961v-2.946c0-.53.43-.961.962-.961h5.786c.531 0 .96.43.96.96v2.947a.96.96 0 01-.96.961z" fill="#b5cfe4" mask="url(#e)"/><path d="M342.498 183.729V155.37l12.941 6.84v21.519z" fill="#fff" mask="url(#f)"/><path d="M343.458 182.768h11.02v-19.98l-11.02-5.823zm11.981 1.922h-12.941a.96.96 0 01-.961-.96v-28.36a.96.96 0 011.41-.85l12.94 6.84a.962.962 0 01.513.85v21.52a.96.96 0 01-.961.96z" fill="#b5cfe4" mask="url(#g)"/><path d="M346.074 167.892h5.787v-2.947h-5.787z" fill="#f6f9fb" mask="url(#h)"/><path d="M347.036 166.93h3.864v-1.023h-3.864zm4.825 1.923h-5.786a.96.96 0 01-.961-.961v-2.947c0-.53.43-.96.96-.96h5.787a.96.96 0 01.961.96v2.947a.96.96 0 01-.96.96z" fill="#b5cfe4" mask="url(#i)"/><path d="M346.074 174.679h5.787v-2.946h-5.787z" fill="#f6f9fb" mask="url(#j)"/><path d="M347.036 173.718h3.864v-1.024h-3.864zm4.825 1.922h-5.786a.96.96 0 01-.961-.961v-2.946c0-.53.43-.961.96-.961h5.787a.96.96 0 01.961.96v2.947a.96.96 0 01-.96.961z" fill="#b5cfe4" mask="url(#k)"/><path d="M360.532 134.18a2.381 2.381 0 00-.305-4.256 2.552 2.552 0 00-.621-1.15 2.571 2.571 0 00-2.574-.695 1.819 1.819 0 00-.487-1.436 1.827 1.827 0 00-2.247-.316 1.82 1.82 0 00-.311-.465 1.83 1.83 0 10-2.653 2.52c.133.142.288.248.45.337a1.827 1.827 0 001.157 2.783 2.571 2.571 0 002.236 2.99" fill="#fff" mask="url(#l)"/><path d="M355.178 135.453a.934.934 0 01-.114-.007 3.554 3.554 0 01-2.154-1.079 3.497 3.497 0 01-.961-2.22 2.776 2.776 0 01-1.335-3.127 2.795 2.795 0 01.123-3.921 2.72 2.72 0 011.994-.767 2.77 2.77 0 011.925.84 2.773 2.773 0 013.204 1.847 3.51 3.51 0 012.442 1.092c.31.327.55.708.716 1.135a3.329 3.329 0 011.65 2.88 3.36 3.36 0 01-1.648 2.883.96.96 0 11-.976-1.656c.439-.26.702-.718.702-1.226 0-.578-.347-1.094-.884-1.314a.96.96 0 01-.567-.655 1.603 1.603 0 00-.387-.723 1.613 1.613 0 00-1.616-.43.959.959 0 01-1.217-1.018.863.863 0 00-.228-.682.862.862 0 00-1.063-.148.96.96 0 01-1.35-.409.888.888 0 00-.143-.223.865.865 0 00-.608-.272.91.91 0 00-.622.24.87.87 0 00-.03 1.227c.05.054.12.105.215.157a.96.96 0 01.344 1.366.864.864 0 00.547 1.318.96.96 0 01.752 1.098 1.61 1.61 0 001.4 1.878.962.962 0 01-.111 1.916" fill="#b5cfe4" mask="url(#m)"/><path d="M372.223 158.19c7.283.011 13.18 5.925 13.169 13.209-.01 7.284-5.924 13.18-13.207 13.17-7.283-.01-13.179-5.924-13.168-13.208.01-7.284 5.923-13.18 13.206-13.17" fill="#2d8adf" mask="url(#n)"/><path d="M380.904 166.905h-17.4a.96.96 0 110-1.922h17.4a.96.96 0 110 1.922" fill="#fff" mask="url(#o)"/><path d="M380.904 172.371h-17.4a.96.96 0 110-1.922h17.4a.96.96 0 110 1.922" fill="#fff" mask="url(#p)"/><path d="M380.904 177.837h-17.4a.96.96 0 110-1.922h17.4a.96.96 0 110 1.922" fill="#fff" mask="url(#q)"/><path d="M364.394 165.884a1.99 1.99 0 113.981 0 1.99 1.99 0 01-3.981 0" fill="#2d8adf" mask="url(#r)"/><path d="M366.384 164.855a1.03 1.03 0 000 2.059 1.03 1.03 0 000-2.06m0 3.982c-1.627 0-2.951-1.324-2.951-2.952s1.324-2.952 2.951-2.952 2.952 1.325 2.952 2.952-1.325 2.952-2.952 2.952" fill="#fff" mask="url(#s)"/><path d="M375.289 171.41a1.99 1.99 0 113.98 0 1.99 1.99 0 01-3.98 0" fill="#2d8adf" mask="url(#t)"/><path d="M377.28 170.38a1.03 1.03 0 000 2.06 1.03 1.03 0 000-2.06m0 3.982a2.955 2.955 0 01-2.952-2.952c0-1.627 1.324-2.952 2.952-2.952s2.951 1.325 2.951 2.952a2.955 2.955 0 01-2.951 2.952" fill="#fff" mask="url(#u)"/><path d="M367.471 176.876a1.99 1.99 0 113.981 0 1.99 1.99 0 01-3.981 0" fill="#2d8adf" mask="url(#v)"/><path d="M369.461 175.846a1.03 1.03 0 000 2.06 1.03 1.03 0 000-2.06m0 3.982c-1.627 0-2.951-1.325-2.951-2.952s1.324-2.952 2.951-2.952 2.952 1.324 2.952 2.952-1.324 2.952-2.952 2.952" fill="#fff" mask="url(#w)"/><path d="M45.061 318.395l49.599.071-.062 42.517-49.598-.07z" fill="#fff" mask="url(#x)"/><path d="M45.962 360.27l48.068.07.06-40.914-48.069-.069zm49.027 1.993h-.001l-49.989-.071a.961.961 0 01-.96-.963l.061-42.836a.96.96 0 01.961-.96l49.991.072a.96.96 0 01.96.963l-.062 42.835a.961.961 0 01-.961.96z" fill="#b5cfe4" mask="url(#y)"/><path d="M39.102 312.435l49.599.072-.062 42.517-49.597-.07z" fill="#fff" mask="url(#z)"/><path d="M40.004 354.312l48.067.068.06-40.913-48.068-.07zm49.027 1.992h-.001l-49.99-.071a.962.962 0 01-.96-.963l.062-42.836a.96.96 0 01.96-.96h.002l49.99.073a.96.96 0 01.96.962l-.063 42.835c0 .53-.43.96-.96.96z" fill="#b5cfe4" mask="url(#A)"/><path d="M89.093 325.315H39.042a.96.96 0 110-1.922h50.05a.96.96 0 010 1.922" fill="#b5cfe4" mask="url(#B)"/><path d="M45.352 318.96a1.772 1.772 0 113.543.006 1.772 1.772 0 01-3.543-.006" fill="#b5cfe4" mask="url(#C)"/><path d="M52.437 318.97a1.772 1.772 0 113.544.006 1.772 1.772 0 01-3.544-.006" fill="#b5cfe4" mask="url(#D)"/><path d="M59.523 318.98a1.771 1.771 0 113.543.005 1.771 1.771 0 01-3.543-.005" fill="#b5cfe4" mask="url(#E)"/><path d="M45.962 348.402l12.358.018.018-17.126-12.357-.018zm13.318 1.942h-.002l-14.28-.021a.96.96 0 01-.959-.962l.02-19.048c0-.256.103-.5.283-.68a.926.926 0 01.68-.28l14.28.02a.96.96 0 01.96.962l-.022 19.049a.962.962 0 01-.96.96z" fill="#2d8adf" mask="url(#F)"/><path d="M81.942 347.96H65.258a.96.96 0 110-1.922h16.684a.96.96 0 110 1.923" fill="#2d8adf" mask="url(#G)"/><path d="M81.942 340.81H65.258a.961.961 0 110-1.923h16.684a.961.961 0 110 1.922" fill="#2d8adf" mask="url(#H)"/><path d="M81.942 333.658H65.258a.96.96 0 110-1.922h16.684a.96.96 0 110 1.922" fill="#ECF6FA" mask="url(#I)"/><path d="M228.472 248.117H197.38a.408.408 0 01-.408-.409V196.44c0-.225.182-.408.408-.408h31.093c.226 0 .409.183.409.408v51.268a.409.409 0 01-.409.409" fill="#ECF6FA" mask="url(#J)"/></g><g fill-rule="nonzero" mask="url(#K)"><g fill="#b5cfe4"><path d="M227.344 176.922c-.784 0-1.422.638-1.422 1.422v47.319c0 .784.638 1.422 1.422 1.422h27.144c.784 0 1.422-.638 1.422-1.422v-47.32c0-.783-.638-1.42-1.422-1.42zm27.144 52.085h-27.144a3.348 3.348 0 01-3.344-3.344v-47.32c0-1.843 1.5-3.343 3.344-3.343h27.144c1.844 0 3.343 1.5 3.343 3.344v47.319c0 1.844-1.5 3.344-3.343 3.344z"/><path d="M256.87 183.962h-31.909a.961.961 0 110-1.922h31.91a.961.961 0 110 1.922m0 36.138h-31.91a.961.961 0 110-1.922h31.91a.96.96 0 110 1.922M237.866 180.654h6.1v-1.462h-6.1zM239.541 223.816a1.375 1.375 0 112.75 0 1.375 1.375 0 01-2.75 0"/></g><path d="M248.513 188.156h23.441v12.216h-16.24l-4.602 4.047v-4.047h-2.599z" fill="#f6f9fb"/><g fill="#2d8adf"><path d="M249.474 199.41h1.638a.96.96 0 01.961.962v1.922l3.007-2.644a.96.96 0 01.635-.24h15.279v-10.294h-21.52zm1.638 5.97a.963.963 0 01-.961-.961v-3.086h-1.638a.96.96 0 01-.961-.961v-12.217c0-.53.43-.961.96-.961h23.443a.96.96 0 01.96.961v12.217a.96.96 0 01-.96.96h-15.878l-4.33 3.809a.962.962 0 01-.635.24z"/><path d="M268.464 194.264a1.398 1.398 0 10-2.796 0 1.398 1.398 0 002.796 0m-4.635 0a1.398 1.398 0 10-2.797 0 1.398 1.398 0 002.797 0m-4.636 0a1.398 1.398 0 10-2.797 0 1.398 1.398 0 002.797 0m-4.636 0a1.398 1.398 0 10-2.796 0 1.398 1.398 0 002.796 0"/></g></g><path d="M161.097 104.02h-12.325a.294.294 0 00-.294.294v30.771h12.914v-30.77a.294.294 0 00-.295-.295" fill="#fff" fill-rule="nonzero" mask="url(#L)"/><path d="M149.439 134.124h10.992v-28.387a.756.756 0 00-.755-.756h-9.482a.756.756 0 00-.755.756zm11.953 1.922h-12.914a.96.96 0 01-.961-.961v-29.348a2.68 2.68 0 012.677-2.678h9.482a2.68 2.68 0 012.677 2.678v29.348a.96.96 0 01-.961.961z" fill="#b5cfe4" fill-rule="nonzero" mask="url(#M)"/><path d="M161.392 132.019h-12.914a.96.96 0 110-1.922h12.914a.96.96 0 110 1.922" fill="#b5cfe4" fill-rule="nonzero" mask="url(#N)"/><path d="M152.22 114.046h5.43v-2.649h-5.43z" fill="#b4cfe4" fill-rule="nonzero" mask="url(#O)"/><path d="M152.22 119.023h5.43v-2.495h-5.43z" fill="#b4cfe4" fill-rule="nonzero" mask="url(#P)"/><path d="M205.563 128.298H164.21V97.28c0-.163.132-.294.294-.294h40.764c.163 0 .295.131.295.294z" fill="#fff" fill-rule="nonzero" mask="url(#Q)"/><path d="M165.171 127.337h39.43V98.702a.756.756 0 00-.755-.755h-37.92a.756.756 0 00-.755.755zm40.391 1.922H164.21a.96.96 0 01-.961-.961V98.702a2.68 2.68 0 012.677-2.677h37.92a2.68 2.68 0 012.677 2.677v29.596c0 .53-.43.96-.96.96z" fill="#b5cfe4" fill-rule="nonzero" mask="url(#R)"/><path d="M205.562 125.378H164.21a.96.96 0 110-1.922h41.352a.96.96 0 110 1.922" fill="#b5cfe4" fill-rule="nonzero" mask="url(#S)"/><path d="M176.669 135.085h16.435v-3.163h-16.435z" fill="#fff" fill-rule="nonzero" mask="url(#T)"/><path d="M177.63 134.124h14.514v-1.24H177.63zm15.474 1.922H176.67a.96.96 0 01-.961-.96v-3.164c0-.53.43-.96.961-.96h16.435a.96.96 0 01.961.96v3.163a.96.96 0 01-.96.961z" fill="#b5cfe4" fill-rule="nonzero" mask="url(#U)"/><path d="M184.886 131.542a.96.96 0 01-.96-.961v-1.908a.961.961 0 111.921 0v1.908a.96.96 0 01-.96.961" fill="#b5cfe4" fill-rule="nonzero" mask="url(#V)"/><path d="M179.85 115.186a.655.655 0 01-.345-.098l-5.318-3.289a.658.658 0 01.024-1.134l5.318-2.993a.658.658 0 01.646 1.148l-4.347 2.446 4.37 2.701a.659.659 0 01-.347 1.22" fill="#2d8adf" fill-rule="nonzero" mask="url(#W)"/><path d="M189.658 115.186a.66.66 0 01-.347-1.219l4.37-2.701-4.346-2.446a.658.658 0 01.645-1.148l5.318 2.993a.659.659 0 01.024 1.134l-5.318 3.29a.655.655 0 01-.346.097" fill="#2d8adf" fill-rule="nonzero" mask="url(#X)"/><path d="M182.337 117.637a.66.66 0 01-.604-.92l4.834-11.164a.659.659 0 011.209.524l-4.835 11.163a.66.66 0 01-.604.397" fill="#2d8adf" fill-rule="nonzero" mask="url(#Y)"/><path d="M210.779 465.098l-5.068-.899-1.932-2.505v-6.986l6.039-3.506 3.622-3.714 3.827-6.713 3.926-1.229h15.612l4.255.595 6.414 6.298 3.503 4.255 9.779 2.676 1.431 2.973v7.134l-2.527 1.621h-2.995z" fill="#fff" fill-rule="nonzero" mask="url(#Z)"/><path d="M239.94 423.207a.963.963 0 01-.481-.13c-3.946-2.283-9.004-2.284-12.953 0a.961.961 0 01-.962-1.664c4.532-2.623 10.347-2.622 14.878 0a.962.962 0 01-.483 1.794" fill="#2d8adf" fill-rule="nonzero" mask="url(#aa)"/><path d="M237.852 426.822a.958.958 0 01-.48-.129c-2.677-1.549-6.101-1.55-8.778 0a.962.962 0 01-.962-1.664c3.26-1.887 7.443-1.886 10.703 0a.962.962 0 01-.483 1.793" fill="#2d8adf" fill-rule="nonzero" mask="url(#ab)"/><path d="M235.684 430.577a.962.962 0 01-.48-.129c-1.415-.819-3.028-.819-4.443 0a.961.961 0 01-.963-1.664c2.009-1.162 4.36-1.162 6.369 0a.961.961 0 01-.483 1.793" fill="#2d8adf" fill-rule="nonzero" mask="url(#ac)"/><path d="M231.63 433.516a1.353 1.353 0 112.706-.001 1.353 1.353 0 01-2.706 0" fill="#2d8adf" fill-rule="nonzero" mask="url(#ad)"/><path d="M239.122 440.61l-17.23.002c-3.212 0-4.136 1.65-4.173 1.72l-4.956 8.02a.959.959 0 01-.38.351l-5.142 2.628c-2.787 1.099-2.7 2.995-2.694 3.075l.003 4.336c0 1.046.303 1.815.925 2.35 1.507 1.295 4.368.88 4.396.875.05-.008.119-.004.148-.011l47.004.078c2.767 0 3.767-.667 4.117-1.064.313-.357.282-.688.277-.725a1.791 1.791 0 01-.013-.159v-6.187c0-.866-1.482-1.676-2.2-1.933l-9.664-3.207a.956.956 0 01-.438-.299l-5.845-7.058c-2.603-2.763-4.116-2.792-4.135-2.792m17.9 25.346l-46.938-.078c-.571.077-3.824.417-5.854-1.322-1.063-.91-1.602-2.193-1.602-3.814v-4.259c-.008-.046-.27-3.296 3.824-4.903l4.816-2.466 4.778-7.727c.012-.032 1.375-2.698 5.846-2.698h17.18c.29-.028 2.343-.045 5.625 3.441l5.709 6.892 9.422 3.125c.374.132 3.498 1.305 3.498 3.752v6.123c.038.336.056 1.244-.667 2.128-.981 1.198-2.878 1.806-5.638 1.806" fill="#b5cfe4" fill-rule="nonzero" mask="url(#ae)"/><path d="M210.62 464.933a5.688 5.688 0 1111.376 0 5.688 5.688 0 01-11.376 0" fill="#fff" fill-rule="nonzero" mask="url(#af)"/><path d="M216.308 460.206a4.733 4.733 0 00-4.727 4.727c0 2.606 2.121 4.727 4.727 4.727s4.726-2.12 4.726-4.727a4.732 4.732 0 00-4.726-4.727m0 11.376c-3.666 0-6.649-2.983-6.649-6.65s2.983-6.649 6.65-6.649c3.665 0 6.647 2.983 6.647 6.65s-2.982 6.65-6.648 6.65" fill="#b5cfe4" fill-rule="nonzero" mask="url(#ag)"/><path d="M245.13 464.933a5.688 5.688 0 1111.377 0 5.688 5.688 0 01-11.376 0" fill="#fff" fill-rule="nonzero" mask="url(#ah)"/><path d="M250.818 460.206a4.732 4.732 0 00-4.726 4.727 4.732 4.732 0 004.726 4.727 4.733 4.733 0 004.727-4.727 4.733 4.733 0 00-4.727-4.727m0 11.376c-3.665 0-6.648-2.983-6.648-6.65s2.983-6.649 6.648-6.649c3.667 0 6.649 2.983 6.649 6.65s-2.982 6.65-6.649 6.65" fill="#b5cfe4" fill-rule="nonzero" mask="url(#ai)"/><path d="M217.108 449.104c.04.006.096.011.172.011h10.067c.23-.036.7-.17.7-.657v-4.386c-.081-.216-.32-.64-.926-.64h-5.253a.95.95 0 01-.116-.007c-.105-.007-1.165-.063-1.89 1.156l-2.681 4.196a1.348 1.348 0 00-.073.327m10.301 1.933H217.28c-1.038 0-1.553-.459-1.801-.845-.588-.908-.13-2.037-.03-2.254a.96.96 0 01.065-.122l2.712-4.244c1.252-2.102 3.244-2.093 3.678-2.062h5.217c1.81 0 2.636 1.432 2.82 2.19.019.074.028.15.028.227v4.531c0 1.84-1.61 2.488-2.463 2.575a.915.915 0 01-.097.004" fill="#b5cfe4" fill-rule="nonzero" mask="url(#aj)"/><path d="M233.166 449.115h10.638c.076 0 .132-.005.173-.01a1.462 1.462 0 00-.061-.293l-3.194-4.135c-.82-1.208-2.028-1.244-2.079-1.245h-5.246c-.617 0-.853.447-.926.638v4.388c0 .515.535.633.695.657m10.638 1.922h-10.696a.919.919 0 01-.096-.004c-.852-.087-2.463-.735-2.463-2.575v-4.53c0-.077.01-.154.027-.228.185-.758 1.012-2.19 2.82-2.19h5.254c.107.039 2.258.015 3.628 2.04l3.242 4.196c.046.059.085.123.116.192.099.217.557 1.345-.03 2.254-.248.386-.763.845-1.802.845" fill="#b5cfe4" fill-rule="nonzero" mask="url(#ak)"/><path d="M526.32 365.912s2.475-.084 2.475.907v3.466s.488 2.03-6.936 2.996l-1.494-3.685z" fill="#dcbeb4" fill-rule="nonzero" mask="url(#al)"/><path d="M487.6 618.96s.587 8.886 0 11.911h-49.673s-.807-2.892 0-4.371c0 0-.404-.747 3.63-1.584 0 0 17.075-4.257 23.26-8.86 0 0 12.073-.735 22.784 2.904" fill="#262626" fill-rule="nonzero" mask="url(#am)"/><path d="M431.65 402.241c2.475 17.828 10.397 62.863 10.397 62.863 2.97 19.314 11.884 71.31 11.884 71.31 4.95 24.266 9.902 80.565 9.902 80.565 13.37-1.485 23.768 1.981 23.768 1.981 0-23.77-6.933-105.82-6.933-105.82-2.97-19.314-3.632-83.146-3.632-83.146l-4.472-27.753-24.154-5.104z" fill="#6a778b" fill-rule="nonzero" mask="url(#an)"/><path d="M575.736 616.98c11.312 3.98 21.848 7.897 21.848 7.897 1.033.41 1.86 2.069 1.86 2.069.93 2.583 0 3.926 0 3.926-12.087-.207-53.096 0-53.096 0-1.344-2.893-2.79-11.99-2.79-11.99l14.308-10.995z" fill="#262626" fill-rule="nonzero" mask="url(#ao)"/><path d="M469.21 408.307c12.308 35.311 72.856 210.653 72.856 210.653 4.952 0 17.33-3.466 17.33-3.466 8.418-.99 16.34 1.485 16.34 1.485-2.475-20.798-53.221-218.122-53.221-218.122l-19.47-4.596z" fill="#6a778b" fill-rule="nonzero" mask="url(#ap)"/><path d="M469.21 408.307s26.381 3.5 45.679 1.57c4.73-.473 4.473 2.983 7.584 8.884 0 0 6.945 16.498 6.726 36.216 0 0-.033 26.156 14.359 64.384 0 0 16.004 49.766 18.013 72.833 0 0 1.226 14.271 5.642 23.232 0 0 3.877-.093 8.523 1.553 0 0-32.178-155.468-53.221-218.122 0 0-4.708-.312-9.662.88 0 0-27.511 6.96-43.643 8.57" fill="#44526b" fill-rule="nonzero" mask="url(#aq)"/><path d="M431.65 402.241s6.219 4.812 19.86 11.935c0 0 6.517 3.212 14.848 2.656 0 0 7.83 9.166 4.221 23.034 0 0-3.017 11.647-1.37 29.143 0 0 6.184 30.271 4.333 38.048 0 0-.39 26.939 5.543 51.934 0 0 5.862 40.575.483 57.988 0 0 5.338.712 8.033 1.981 0 0-2.317-76.42-7.31-108.603 0 0-4.45-58.566-3.255-80.363l-7.827-21.687-6.353-35.7-14.446 24.53z" fill="#44526b" fill-rule="nonzero" mask="url(#ar)"/><path d="M516.154 329.835c4.66-5.835 9.691-11.808 13.209-15.086l-14.093-8.652s.496 53.885 7.545 69.072c0 0 10.057 18.416 11.33 25.558 0 0-7.591-3.535-23.025-.357 0 0-27.27 10.877-46.709 6.967 0 0-3.934-23.824-4.036-29.848 0 0-1.953 16.064-.349 27.788 0 0-10.16 4.166-21.099.123 0 0-8.963-4.904-20.152-5.043 0 0 7.237-37.147 7.208-62.207 0 0 .022-34.604 2.917-48.262 0 0-34.327.488-56.016 3.454 0 0-11.264 1.73-14.53-2.821 0 0-4.836-12.633-4.084-15.855 0 0-.289-5.586 9.18-13.174 0 0 29.938-29.022 48.393-40.031 0 0 13.15 8.255 17.825 20.799 0 0-8.462 8.218-10.893 9.904 0 0 30.87-6.58 38.576-11.335l43.023 9.724s45.522 23.212 72.671 46.27c0 0 5.61 6.305 1.019 13.757 0 0-13.111 18.935-47.842 48.054 0 0-13.78-5.262-22.282-12.875 0 0 5.749-7.83 12.214-15.924" fill="#131a23" fill-rule="nonzero" mask="url(#as)"/><path d="M497.998 248.697l-21.055 25.277-18.818 39.167-.444-30.504.159-27.853 1.537-13.515 10.324 9.409z" fill="#e1ebf4" fill-rule="nonzero" mask="url(#at)"/><path d="M457.477 213.06v-5.018l-5.242-.675s3.101 2.64 5.242 5.692" fill="#dcbeb4" fill-rule="nonzero" mask="url(#au)"/><path d="M465.832 200.809l1.963.425s.892 3.862-1.54 7.868l-1.83-.584" fill="#1c2636" fill-rule="nonzero" mask="url(#av)"/><path d="M473.827 207.856s-2.383 3.156-5.537 5.186c0 0 1.718 1.782 2.97 2.476l-3.465 8.419s1.913 2.05 3.38 3.279c0 0-2.057 7.749-3.543 10.72 0 0 1.408 6.9 1.75 10.761 0 0 9.57-6.509 21.197-9.466l1.403-6.227 6.786-30.522-18.625-10.818-3.874 9.914z" fill="#ebd2c8" fill-rule="nonzero" mask="url(#aw)"/><path d="M529.363 314.749s-13.044-8.112-21.462-13.064c0 0 8.105 2.086 11.355 4.802 4.616 3.858 8.727 4.72 8.727 4.72 1.692.223 6.951-4.23 6.951-4.23 1.876-1.736 5.647-3.807 5.647-3.807-3.714 3.387-7.46 7.456-11.218 11.579" fill="#000" fill-rule="nonzero" mask="url(#ax)"/><path d="M516.814 328.921c-2.319-11.552-1.544-22.825-1.544-22.825s-1.324 12.503-1.196 17.317c0 0 .07 7.437-4.027 11.36 0 0-3.839 4.984-6.107 10.986 0 0 5.14-7.177 12.213-15.924z" fill="#000" fill-rule="nonzero" mask="url(#ay)"/><path d="M391.542 271.972c8.011-4.42 18.95-13.156 27.057-20.017 0 0-6.778 14.36-27.057 20.017" fill="#000" fill-rule="nonzero" mask="url(#az)"/><path d="M492.057 233.346s2.475-9.41 11.883-20.304c0 0 7.922-8.418 4.456-15.351 0 0-1.98-4.952-7.922-4.952 0 0-6.932.495-13.864-6.933 0 0-4.456-4.952-9.903-2.972 0 0-4.951 1.486-6.932 5.943 0 0-2.97 7.923 7.427 10.4 0 0 6.437.99 5.447 8.418 0 0 .99-2.971 3.466-2.971 0 0 2.97.495 1.98 4.457 0 0-.495 1.98-2.475 4.456 0 0 3.466.99 4.456 7.924 0 0 .99 7.428 1.98 11.885" fill="#262626" fill-rule="nonzero" mask="url(#aA)"/><path d="M466.389 200.615l-42.725-13.604s1.49 7.744-2.732 16.328l44.013 5.664s3.01-4.048 1.444-8.388" fill="#2d8adf" fill-rule="nonzero" mask="url(#aB)"/><path d="M420.774 203.633c5.027-9.205 2.76-17.177 2.76-17.177l-6.54-1.607s2.053 8.395-2.974 17.6z" fill="#1c2636" fill-rule="nonzero" mask="url(#aC)"/><path d="M416.994 184.85s-.54-.585-1.106 0c0 0-4.61 5.099-3.053 16.216 0 0 .238 1.618 1.185 1.384 0 0 5.142-7.102 2.974-17.6" fill="#b5cfe4" fill-rule="nonzero" mask="url(#aD)"/><path d="M458.882 195.71s0-2.476-3.961-2.971c0 0-5.447-.496-8.418-2.476 0 0-1.485-1.486-3.466-1.981 0 0-2.97-.496-4.951-.99 0 0-2.476-1.486-3.961-.496 0 0-2.97 2.971-3.961 6.933 0 0-.496 4.952.99 5.447 0 0 3.466 2.971 5.446 2.971 0 0 2.971.496 5.942 0 0 0 4.952-1.485 9.408.991 0 0 2.97 2.476 5.447 1.486 0 0 2.97-.99 2.475-4.952z" fill="#ebd2c8" fill-rule="nonzero" mask="url(#aE)"/><path d="M427.583 204.195l19.807 2.437c2.561-1.494 6.058 1.625 6.058 1.625 4.457 3.466 4.392 6.27 4.392 6.27v4.953c0 3.466-.99 5.447-.99 5.447-1.486 1.981-6.933 6.933-6.933 6.933-3.466 2.476-7.427 1.486-7.427 1.486-2.97-.495-7.427 0-7.427 0-1.98.99-4.92 3.02-4.92 3.02l-12.786-13.57s5.328-3.811 5.823-4.802c0 0 .495-3.466.495-5.942 0 0-.549-3.4 3.908-7.857" fill="#ebd2c8" fill-rule="nonzero" mask="url(#aF)"/><path d="M446.503 221.46c1.486-2.97 0-6.932 0-6.932-.495-1.981-1.98-4.457-1.98-4.457 0-1.98 2.97-3.466 2.97-3.466s-3.69.493-4.286 2.398c0 0-.357 1.248 0 2.381 0 0 2.265 3.344 2.563 8.797 0 0-.417 2.77-.119 2.77z" fill="#dcbeb4" fill-rule="nonzero" mask="url(#aG)"/><path d="M412.845 222.135l1.97-1.17c9.902 6.438 16.34 16.838 16.34 16.838-.496.99-2.443 2.185-2.443 2.185s-4.555-10.014-15.867-17.853" fill="#e1ebf4" fill-rule="nonzero" mask="url(#aH)"/><path d="M524.981 358.134l-1.235 1.986s0 .99-4.951-1.981c0 0-13.37-7.428-15.35-8.914 0 0-1.105-.44 1.084-2.95 0 0 12.532 8.897 20.452 11.86" fill="#e1ebf4" fill-rule="nonzero" mask="url(#aI)"/><path d="M467.718 283.94c3.315-15.166 2.174-22.448 2.174-22.448s-4.187-3.645-6.93-2.482l-.8 3.302s-2.336 43.776-3.421 47.048z" fill="#ed2e26" fill-rule="nonzero" mask="url(#aJ)"/><path d="M463.337 255.087c-.781 2.633-.376 3.923-.376 3.923 3.21.332 6.931 2.482 6.931 2.482 2.108-1.245 1.978-4.19 1.978-4.19s.317-7.81-2.488-8.605c0 0-4.305.523-6.045 6.39" fill="#ed2e26" fill-rule="nonzero" mask="url(#aK)"/><path d="M471.85 257.097s-.822 2.728-2.132 2.876c0 0-2.434-1.143-6.757-.963 0 0 3.892.64 6.931 2.482 0 0 2.103-.884 1.958-4.395" fill="#991f20" fill-rule="nonzero" mask="url(#aL)"/><path d="M492.057 238.793s.495 7.428 5.942 9.904c0 0-22.176 9.565-25.806 13.615 0 0-.335-12.624-2.81-13.615 0 0 9.8-7.923 22.674-9.904" fill="#e1ebf4" fill-rule="nonzero" mask="url(#aM)"/><path d="M469.382 248.697s-6.6 1.64-7.251 12.329c0 0-.793-17.136-2.754-19.757 0 0 6.494-5.696 8.007-4.71 0 0 .496.31.812 2.234 0 0 .885 4.383 1.186 9.904" fill="#e1ebf4" fill-rule="nonzero" mask="url(#aN)"/><path d="M497.998 248.697s3.288.521 3.288 2.307c0 .495-.034 1.316-.034 1.316s-.154 16.032-1.64 20.984c0 0-12.012-2.322-18.448 2.135 0 0 6.576 6.731 6.08 9.703 0 0-28.362 25.457-30.343 48.236 0 0-5.446-50.016 41.097-84.68" fill="#000" fill-rule="nonzero" mask="url(#aO)"/><path d="M497.998 248.697s-16.742 6.581-25.805 13.615c0 0 .177-2.647-.336-4.528 0 0-.143 5.442-.961 6.708 0 0 15.307-10.457 27.102-15.795" fill="#a1b8c4" fill-rule="nonzero" mask="url(#aP)"/><path d="M457.35 317.9c.3-22.991-6.169-43.926-6.169-43.926 1.113-2.893 5.524-7.829 5.524-7.829-1.454-4.552-5.928-7.856-5.928-7.856a76.622 76.622 0 001.112-4.383c1.82-9.812 5.462-13.077 5.462-13.077s2.221-1.23 2.577 1.625c0 0 5.323 18.028-.245 61.118z" fill="#000" fill-rule="nonzero" mask="url(#aQ)"/><path d="M456.706 334.772s.034 26.185 3.53 42.285c0 0-1.651-35.605-3.53-42.285" fill="#000" fill-rule="nonzero" mask="url(#aR)"/><path d="M546.975 277.705s5.599 6.63 9.68 9.042c0 0 9.833 4.825 13.173 11.876 0 0 1.484 4.371 0 7.474 0 0-4.824 4.516-7.236 8.726 0 0-5.751 10.704-11.688 17.198 0 0-9.533 7.988-13.543 14.254 0 0-7.135 8.656-12.38 11.86l1.24.499s32.533-26.684 47.843-48.054c0 0 4.714-6.67-1.019-13.757 0 0-13.715-11.304-26.07-19.118" fill="#000" fill-rule="nonzero" mask="url(#aS)"/><path d="M386.534 240.566s-9.838 10.737-16.84 16.53c0 0-10.435 8.464-13.077 16.126 0 0-2.564 7.53 3.17 15.59 0 0 4.719 4.76 16.644-1.19 0 0 8.983-2.641 24.439 0 0 0 21.32 2.418 28.03 2.266 0 0-39.353.982-56.016 3.454 0 0-10.463 1.903-14.092-2.304 0 0-3.197-3.377-4.601-13.833 0 0-1.88-6.911 8.265-14.893 0 0 19.138-17.599 24.078-21.746" fill="#000" fill-rule="nonzero" mask="url(#aT)"/><path d="M499.789 368.786s2.433 2.913 5.813 4.637c0 0 6.827 1.392 12.261 5.17 0 0 4.89 3.513 7.118 7.424 0 0 5.21 7.376 7.397 12.803 0 0-3.13-.932-7.397.259 0 0 6.024.316 9.163 1.648 0 0-2.233-10.8-12.206-27.504 0 0-10.37 3.448-22.15-4.437" fill="#000" fill-rule="nonzero" mask="url(#aU)"/><path d="M504.885 350.002s-5.896 6.156-6.886 9.127c0 0-.496 5.943 1.485 9.41 0 0 4.951 4.456 15.845 5.446 0 0 6.796.054 11.747-3.413l-.36-5.005s0-1.486-4.455-.99c0 0-2.476-1.486-.495-4.952 0 0-11.367-5.932-16.88-9.623" fill="#ebd2c8" fill-rule="nonzero" mask="url(#aV)"/><path d="M457.858 333.378a2.377 2.377 0 104.755 0 2.377 2.377 0 00-4.755 0" fill="#000" fill-rule="nonzero" mask="url(#aW)"/><path d="M471.174 227.216l7.984 4.985-9.383-.134z" fill="#dcbeb4" fill-rule="nonzero" mask="url(#aX)"/><path d="M500.202 292.696s.315 1.744-.915 4.963c0 0-1.444 3.41-6.178 3.906 0 0-4.686-3.55-3.476-8.32z" fill="#000" fill-rule="nonzero" mask="url(#aY)"/><path d="M495.939 289.139c3.2.846 4.357 2.983 4.357 2.983s-.15 1.316-.942 3.838c-1.196 3.809-6.505 4.884-6.505 4.884s-4.087-3.557-3.246-7.46c.556-2.583 1.075-3.802 1.075-3.802s2.06-1.288 5.26-.443" fill="#ed2e26" fill-rule="nonzero" mask="url(#aZ)"/><path d="M492.198 293.574c.36-1.364 1.731-2.189 3.056-1.839a2.49 2.49 0 011.77 3.04c-.28 1.059-1.42 1.69-2.24 1.951.232.227.789.55 1.35.754a3.589 3.589 0 002.077-2.391 3.72 3.72 0 00-2.644-4.541 3.72 3.72 0 00-4.54 2.643c-.316 1.196-.098 2.39.629 3.454.68.994 1.834 1.843 3.238 2.47.364-.09 1.045-.466 1.328-.716-1.183-.48-2.264-1.086-2.934-1.7-1.023-.936-1.39-1.988-1.09-3.125" fill="#fff" fill-rule="nonzero" mask="url(#ba)"/><path d="M470.082 218.783s1.81 1.057 5.7 1.497" mask="url(#bb)" stroke="#dbbdb1" stroke-linecap="round" stroke-linejoin="round" stroke-width=".611"/><path d="M475.125 206.535c-.23.59-.1 1.192.29 1.345.391.152.894-.203 1.124-.793.23-.59.1-1.193-.29-1.345-.39-.152-.894.203-1.124.793" fill="#333" fill-rule="nonzero" mask="url(#bc)"/><path d="M517.797 327.792s-8.055 10.478-13.857 17.966c0 0 11.882 8.736 21.041 12.376l15.391-20.047z" fill="#131a23" fill-rule="nonzero" mask="url(#bd)"/><path d="M154.387 346.722c-1.982 2.88-3.556 6.159-3.556 9.929 0 .122.034.235.037.357-4.507 1.15-7.854 5.202-7.854 10.068 0 .07.009.135.01.202-.001.076-.01.15-.01.226 0 4.73 3.151 8.717 7.465 9.997h47.671c4.313-1.28 7.464-5.267 7.464-9.997 0-5.766-4.672-10.435-10.431-10.435-.465 0-.919.042-1.365.102-.941-3.913-4.453-6.824-8.653-6.824-1.467 0-2.847.36-4.068.989-2.181-6.004-7.872-10.323-14.63-10.323-2.234 0-4.358.469-6.28 1.313 0 0-4.286 2.196-5.8 4.396" fill="#fff" fill-rule="nonzero" mask="url(#be)"/><path d="M150.63 376.488h47.368c3.895-1.222 6.602-4.896 6.602-8.984 0-5.195-4.224-9.422-9.417-9.422-.373 0-.763.03-1.228.094a1.011 1.011 0 01-1.123-.768 7.865 7.865 0 00-7.668-6.048c-1.26 0-2.472.295-3.603.878a1.011 1.011 0 01-1.416-.555c-2.098-5.776-7.596-9.657-13.679-9.657-2.044 0-4.02.413-5.872 1.228-1.075.553-4.252 2.415-5.372 4.043-2.304 3.348-3.378 6.32-3.378 9.353.022.136.034.234.037.334.01.472-.305.89-.763 1.006-4.175 1.066-7.092 4.8-7.092 9.086.002.02.011.167.011.188l-.007.192c-.004 4.136 2.704 7.81 6.6 9.032m47.52 2.026h-47.672c-.098 0-.195-.014-.288-.041-4.822-1.432-8.19-5.942-8.19-10.969 0-.064.004-.127.008-.189-.004-.115-.008-.176-.008-.24 0-4.934 3.178-9.27 7.823-10.815.086-3.324 1.277-6.55 3.729-10.113 1.64-2.383 5.989-4.628 6.173-4.722a16.555 16.555 0 016.741-1.425c6.572 0 12.542 3.969 15.18 9.982a9.784 9.784 0 013.518-.648 9.88 9.88 0 019.391 6.743c.217-.015.426-.022.628-.022 6.31 0 11.444 5.136 11.444 11.45 0 5.026-3.367 9.536-8.19 10.968-.092.027-.19.041-.287.041" fill="#b4cfe4" fill-rule="nonzero" mask="url(#bf)"/><path d="M176.552 360.035h-4.476l-.002-3.269h4.478zm-1.69 7.477v2.263h-1.096v-2.263a1.62 1.62 0 01-1.095-1.524c0-.897.735-1.624 1.643-1.624s1.642.727 1.642 1.624c0 .705-.458 1.3-1.094 1.524zm3.904-7.477h-.072v-3.27c0-1.18-.96-2.141-2.142-2.141h-4.476a2.145 2.145 0 00-2.143 2.141v3.27h-.072a3.213 3.213 0 00-3.212 3.213v6.561a3.213 3.213 0 003.212 3.214h8.905a3.213 3.213 0 003.213-3.214v-6.56a3.213 3.213 0 00-3.213-3.214z" fill="#2d8adf" fill-rule="nonzero" mask="url(#bg)"/><path d="M275.172 46.872c-1.946 2.829-3.491 6.047-3.491 9.748 0 .12.033.232.036.352-4.426 1.129-7.712 5.107-7.712 9.884 0 .068.01.132.01.199 0 .075-.01.146-.01.221 0 4.644 3.095 8.559 7.33 9.816h46.804c4.235-1.257 7.329-5.172 7.329-9.816 0-5.661-4.588-10.245-10.242-10.245-.456 0-.901.04-1.34.1-.924-3.841-4.372-6.7-8.496-6.7-1.44 0-2.795.355-3.993.971-2.142-5.895-7.729-10.135-14.365-10.135-2.193 0-4.279.46-6.166 1.289 0 0-4.208 2.156-5.694 4.316" fill="#fff" fill-rule="nonzero" mask="url(#bh)"/><path d="M271.483 76.097h46.508c3.823-1.2 6.482-4.807 6.482-8.82 0-5.101-4.149-9.251-9.248-9.251-.361 0-.755.03-1.204.091a.984.984 0 01-1.102-.753 7.723 7.723 0 00-7.529-5.938c-1.237 0-2.427.29-3.538.862a.992.992 0 01-1.39-.545c-2.06-5.67-7.458-9.481-13.43-9.481a14.24 14.24 0 00-5.766 1.205c-1.056.544-4.175 2.371-5.276 3.97-2.261 3.287-3.314 6.205-3.314 9.183.021.136.032.23.035.327.01.464-.3.874-.75.988-4.098 1.047-6.96 4.714-6.96 8.92l.009.185-.007.182c-.003 4.068 2.656 7.675 6.48 8.875m46.656 1.99h-46.804a.986.986 0 01-.283-.042c-4.735-1.405-8.041-5.833-8.041-10.769 0-.06.003-.12.006-.18-.003-.123-.006-.18-.006-.24 0-4.845 3.12-9.103 7.68-10.62.085-3.263 1.255-6.43 3.66-9.928h.001c1.611-2.34 5.88-4.545 6.06-4.637a16.259 16.259 0 016.62-1.399c6.452 0 12.313 3.897 14.903 9.8a9.607 9.607 0 013.455-.635 9.7 9.7 0 019.22 6.62c.213-.014.417-.021.615-.021 6.197 0 11.237 5.042 11.237 11.24 0 4.936-3.305 9.364-8.04 10.77a.988.988 0 01-.283.04" fill="#b4cfe4" fill-rule="nonzero" mask="url(#bi)"/><path d="M304.052 64.074c-.523 0-1.045-.06-1.547-.18-.503-.121-.894-.252-1.155-.403-.161-.09-.272-.19-.312-.28a.712.712 0 01-.06-.282v-.513c0-.21.08-.311.23-.311.061 0 .121.01.182.03.06.02.15.06.25.1.342.151.714.272 1.106.352.401.08.793.12 1.195.12.633 0 1.125-.11 1.467-.33.341-.222.522-.543.522-.955a.98.98 0 00-.271-.704c-.181-.19-.522-.361-1.015-.522l-1.456-.452c-.734-.231-1.276-.573-1.608-1.025a2.394 2.394 0 01-.502-1.457c0-.422.09-.793.272-1.115.18-.322.421-.603.723-.824a3.184 3.184 0 011.045-.522c.401-.12.823-.171 1.265-.171.22 0 .452.01.673.04.231.03.442.07.653.11.201.051.392.101.573.161.18.06.321.12.422.181.14.08.24.161.301.251.06.08.09.191.09.332v.472c0 .211-.08.322-.23.322-.08 0-.211-.04-.382-.12-.573-.262-1.216-.393-1.93-.393-.572 0-1.024.09-1.335.282-.312.19-.472.482-.472.894 0 .281.1.522.301.713.201.191.573.382 1.105.553l1.427.452c.723.231 1.245.553 1.557.964.311.412.462.884.462 1.407 0 .432-.09.824-.262 1.165-.18.342-.421.643-.733.885a3.241 3.241 0 01-1.115.562c-.452.14-.924.211-1.436.211zm-12.909-.271c-.18 0-.301-.03-.382-.1-.08-.061-.15-.202-.21-.393l-2.361-7.766c-.06-.2-.091-.331-.091-.402 0-.16.08-.25.241-.25h.985c.19 0 .321.03.391.1.081.06.141.2.202.391l1.687 6.652 1.567-6.652c.05-.2.11-.331.191-.391s.221-.1.402-.1h.804c.19 0 .321.03.401.1.08.06.151.2.191.391l1.587 6.732 1.738-6.732c.06-.2.131-.331.201-.391.08-.06.211-.1.392-.1h.934c.16 0 .252.08.252.25 0 .05-.01.1-.02.161-.01.06-.03.14-.071.251l-2.421 7.767c-.06.2-.13.331-.211.391-.08.06-.21.1-.382.1h-.864c-.19 0-.321-.03-.401-.1-.08-.07-.151-.2-.191-.402l-1.557-6.48-1.548 6.47c-.05.201-.11.332-.19.403-.08.07-.221.1-.402.1zm-8.067-1.085c.332 0 .673-.06 1.035-.181a2.24 2.24 0 00.954-.643 1.6 1.6 0 00.342-.643c.06-.241.1-.533.1-.874v-.422a8.455 8.455 0 00-.924-.171 7.581 7.581 0 00-.944-.06c-.673 0-1.165.13-1.497.402-.332.27-.492.653-.492 1.155 0 .472.12.824.372 1.065.24.251.592.372 1.054.372zm4.079-1.527c0 .371.04.673.11.894.08.22.181.462.322.723.05.08.07.161.07.231 0 .1-.06.201-.19.302l-.634.422c-.09.06-.18.09-.26.09-.101 0-.201-.05-.302-.14a3.114 3.114 0 01-.362-.473 7.74 7.74 0 01-.311-.592c-.784.924-1.768 1.386-2.954 1.386-.843 0-1.517-.241-2.009-.724-.492-.482-.743-1.125-.743-1.928 0-.854.301-1.548.914-2.07.613-.523 1.427-.784 2.461-.784.342 0 .693.03 1.065.08s.753.131 1.155.222v-.734c0-.763-.16-1.296-.472-1.607-.321-.312-.864-.463-1.637-.463-.352 0-.714.04-1.085.131-.372.09-.734.201-1.085.342-.161.07-.282.11-.352.13-.07.02-.12.03-.16.03-.141 0-.211-.1-.211-.311v-.492c0-.161.02-.282.07-.352s.14-.14.281-.211c.352-.18.774-.331 1.266-.452a6.08 6.08 0 011.567-.191c1.195 0 2.07.271 2.632.814.552.542.834 1.366.834 2.471v3.256z" fill="#2d8adf" fill-rule="nonzero" mask="url(#bj)"/><path d="M305.95 68.957c-3.305 2.441-8.106 3.737-12.235 3.737-5.787 0-11-2.14-14.938-5.696-.312-.282-.03-.663.341-.442 4.26 2.471 9.513 3.968 14.948 3.968 3.667 0 7.695-.763 11.402-2.33.553-.252 1.025.361.482.763" fill="#2d8adf" fill-rule="nonzero" mask="url(#bk)"/><path d="M307.326 67.39c-.421-.543-2.792-.262-3.867-.131-.321.04-.372-.241-.08-.452 1.888-1.326 4.992-.945 5.354-.503.362.452-.1 3.557-1.869 5.044-.27.231-.532.11-.412-.19.402-.995 1.296-3.236.874-3.768" fill="#2d8adf" fill-rule="nonzero" mask="url(#bl)"/><path d="M240.241 313.071h56.725v-25.325h-56.725z" fill="#fff" fill-rule="nonzero" mask="url(#bm)"/><path d="M241.178 312.134h54.85v-23.45h-54.85zm55.788 1.875H240.24a.937.937 0 01-.938-.938v-25.325c0-.518.42-.937.938-.937h56.725c.518 0 .937.419.937.937v25.325c0 .519-.42.938-.937.938z" fill="#b5d0e5" fill-rule="nonzero" mask="url(#bn)"/><path d="M249.076 296.838v7.369h2.135c2.276 0 3.761-1.533 3.761-3.653v-.032c0-2.12-1.485-3.684-3.76-3.684zm-1.904-1.733h4.04c3.404 0 5.757 2.336 5.757 5.386v.031c0 3.049-2.353 5.418-5.758 5.418h-4.039z" fill="#2d8adf" fill-rule="nonzero" mask="url(#bo)"/><path d="M259.277 295.105h1.903v4.504h5.17v-4.504h1.903v10.835h-1.903v-4.566h-5.17v4.566h-1.903z" fill="#2d8adf" fill-rule="nonzero" mask="url(#bp)"/><path d="M270.561 300.554v-.032c0-3.08 2.306-5.603 5.572-5.603 2.013 0 3.22.697 4.257 1.687l-1.223 1.409c-.882-.805-1.796-1.332-3.05-1.332-2.042 0-3.56 1.688-3.56 3.808v.031c0 2.12 1.502 3.84 3.576 3.84 1.332 0 2.183-.527 3.111-1.394l1.223 1.239c-1.13 1.175-2.368 1.919-4.396 1.919-3.173 0-5.51-2.462-5.51-5.572" fill="#2d8adf" fill-rule="nonzero" mask="url(#bq)"/><path d="M286.597 300.738c1.44 0 2.337-.804 2.337-1.934v-.031c0-1.27-.913-1.935-2.337-1.935h-2.213v3.9zm-4.117-5.633h4.272c2.538 0 4.117 1.439 4.117 3.622v.03c0 2.43-1.95 3.7-4.334 3.7h-2.151v3.483h-1.904z" fill="#2d8adf" fill-rule="nonzero" mask="url(#br)"/><g fill-rule="nonzero" mask="url(#bs)"><path d="M97.452 254.664a3.577 3.577 0 00-.285-1.424 3.797 3.797 0 00-.77-1.161 3.693 3.693 0 00-1.157-.801 3.604 3.604 0 00-4.01.793 3.775 3.775 0 00-.77 1.161 3.728 3.728 0 000 2.86 3.671 3.671 0 001.928 1.954c.91.392 1.941.392 2.852 0 .433-.19.825-.462 1.156-.801.327-.336.588-.73.771-1.161.192-.45.289-.935.285-1.424zm-3.642-5.89a5.576 5.576 0 013.642 1.293v-5.228a1.066 1.066 0 01.305-.774 1.04 1.04 0 01.77-.31c.29-.005.567.106.772.31.208.203.322.483.316.774v9.84a5.668 5.668 0 01-1.696 4.156 5.606 5.606 0 01-4.11 1.726 5.56 5.56 0 01-4.108-1.726 5.713 5.713 0 01-1.7-4.156 5.713 5.713 0 011.7-4.163 5.56 5.56 0 014.109-1.742zm18.664 5.905a5.669 5.669 0 01-1.7 4.156c-1.085 1.1-2.564 1.719-4.107 1.719s-3.021-.619-4.107-1.719a5.712 5.712 0 01-1.7-4.163 5.71 5.71 0 011.696-4.156 5.77 5.77 0 018.215 0c.546.542.979 1.19 1.272 1.903.285.72.432 1.486.431 2.26zm-5.809-3.691a3.489 3.489 0 00-1.43.294 3.67 3.67 0 00-1.927 1.954 3.723 3.723 0 000 2.86 3.675 3.675 0 001.927 1.954c.91.391 1.942.391 2.853 0a3.703 3.703 0 001.927-4.81 3.794 3.794 0 00-.77-1.161 3.689 3.689 0 00-1.157-.801 3.462 3.462 0 00-1.423-.294zm15.882 6.245a1.04 1.04 0 01.77.31c.202.206.312.485.305.774.001.305-.123.597-.343.808a5.743 5.743 0 01-7.89-.29 5.715 5.715 0 01-1.7-4.163 5.715 5.715 0 011.7-4.156 5.564 5.564 0 014.109-1.742 5.492 5.492 0 013.785 1.432c.246.205.388.51.386.832.005.288-.105.567-.305.774-.201.21-.48.325-.771.317a1.09 1.09 0 01-.705-.251 3.976 3.976 0 00-1.122-.658 3.395 3.395 0 00-1.264-.232 3.518 3.518 0 00-1.423.29c-.43.183-.822.445-1.156.774a3.717 3.717 0 00-.012 5.235c.334.329.726.591 1.157.774.449.194.933.293 1.422.29.435.012.867-.06 1.276-.209a3.73 3.73 0 001.099-.677c.198-.149.438-.23.685-.232zm2.336 2.229v-14.615c-.004-.29.11-.57.316-.774.201-.21.48-.326.77-.321.291-.007.571.11.772.321.205.204.32.483.316.774v8.184l6.198-4.07a1.04 1.04 0 01.582-.167c.146 0 .29.028.424.085.13.054.246.135.344.236.098.103.177.222.235.352.058.133.089.277.088.422a.985.985 0 01-.416.874l-4.348 2.86 4.479 5.084a1.118 1.118 0 01.212 1.196c-.057.13-.137.25-.235.352a1.073 1.073 0 01-.767.321.996.996 0 01-.725-.282l-4.791-5.456-1.265.84v3.796c.003.29-.11.569-.316.773-.199.214-.48.332-.77.325-.292.005-.572-.113-.772-.325a1.079 1.079 0 01-.316-.773zm20.522-5.893a3.548 3.548 0 00-.524-1.057 3.725 3.725 0 00-1.827-1.35 3.53 3.53 0 00-1.156-.19c-.394 0-.784.064-1.157.19a3.784 3.784 0 00-1.025.53 3.63 3.63 0 00-.81.82c-.229.32-.4.678-.508 1.057zm-.466 3.668c.289-.009.568.103.77.31.203.205.312.485.305.773a1.1 1.1 0 01-.312.774 5.766 5.766 0 01-7.902-.259 5.713 5.713 0 01-1.7-4.163 5.712 5.712 0 011.7-4.164 5.772 5.772 0 014.11-1.72c1.543 0 3.022.619 4.108 1.72.549.54.983 1.187 1.276 1.9.288.72.432 1.491.424 2.267.006.291-.108.571-.316.774a1.062 1.062 0 01-.77.31h-8.22c.114.378.289.735.517 1.056a3.673 3.673 0 001.82 1.35c.372.127.763.191 1.156.19a3.6 3.6 0 001.257-.209 3.426 3.426 0 001.06-.63c.2-.173.453-.27.717-.275zm6.14-7.352v.209a5.926 5.926 0 011.693-.968 5.592 5.592 0 011.95-.336c.328.001.655.022.98.062.328.037.652.112.963.224.273.096.523.25.733.45.194.193.299.46.289.734 0 .148-.03.294-.089.43a1.22 1.22 0 01-.235.352 1.07 1.07 0 01-.767.321 1.149 1.149 0 01-.455-.116 3.775 3.775 0 00-1.422-.263 3.526 3.526 0 00-1.423.29c-.431.181-.824.444-1.156.774-.328.334-.59.728-.771 1.16a3.651 3.651 0 00-.286 1.44v4.826c.005.29-.11.57-.316.773-.2.212-.48.328-.77.322a1.087 1.087 0 01-1.092-1.095v-9.589a1.094 1.094 0 01.315-.787c.206-.209.487-.326.78-.324.29-.006.57.11.771.322.207.203.321.483.316.773z" fill="#2d8adf"/><path d="M152.844 216.713c-1.252-.831-4.143-1.133-6.362-.717a8.313 8.313 0 00-3.58-5.478l-1.217-.806-.815 1.204a9.27 9.27 0 00-1.387 5.77 7.266 7.266 0 001.074 3.17 8.85 8.85 0 01-4.215.884H98.587l-.072.434c-.59 4.836.8 9.705 3.857 13.524 3.23 3.779 8.053 5.7 14.38 5.7 13.693 0 23.823-6.196 28.567-17.57 1.86 0 5.879 0 7.946-3.884.053-.089.179-.328.537-1.062l.197-.407-1.164-.77zm-29.53-8.918h5.753V203h-5.753v4.787zm0 5.753h5.753v-4.795h-5.753v4.786zm-6.704 0h5.745v-4.795h-5.753v4.786zm-6.712 0h5.745v-4.795h-5.754v4.786zm-6.712 5.753h5.744v-4.794h-5.753v4.786zm6.712 0h5.745v-4.794h-5.754v4.786zm6.712 0h5.745v-4.794h-5.753v4.786zm6.704 0h5.753v-4.794h-5.753v4.786zm6.712 0h5.754v-4.794h-5.754v4.786z" fill="#b5cfe4"/></g></g></svg>