<svg width="543" height="540" viewBox="0 0 543 540" xmlns="http://www.w3.org/2000/svg"><g transform="translate(1.6 .2)" fill="none" fill-rule="evenodd"><path d="M262.9 177.7l61.5-139.5L230 14.6l-79.9 57.8 378.8 222" stroke="#F7FAFC" stroke-width="3" stroke-linecap="round" stroke-linejoin="round" stroke-dasharray="0,8.8041"/><path stroke="#9BC0E0" stroke-width="3" stroke-linecap="round" stroke-linejoin="round" d="M325.3 217.5L434.1 128"/><circle stroke="#BFBFBF" stroke-width=".642" fill="#FFF" fill-rule="nonzero" cx="431.6" cy="129.1" r="11.3"/><circle stroke="#BFBFBF" stroke-width="1.275" fill="#FFF" fill-rule="nonzero" cx="323.6" cy="40.1" r="11.3"/><path d="M26 149.7l64.3 56.5L198.1 282" stroke="#F7FAFC" stroke-width="3" stroke-linecap="round" stroke-linejoin="round" stroke-dasharray="0,8.8041"/><path stroke="#9BC0E0" stroke-width="3" stroke-linecap="round" stroke-linejoin="round" d="M90.3 206.2l132.3 24M528.9 294.4l-97-163.6-340.5 74.3-63.3 92.2"/><path d="M528.9 294.4l-57.5 105.7-138.7-93.4" stroke="#F7FAFC" stroke-width="3" stroke-linecap="round" stroke-linejoin="round" stroke-dasharray="0,8.8041"/><path stroke="#9BC0E0" stroke-width="3" stroke-linecap="round" stroke-linejoin="round" d="M409.3 43.5l-17 299"/><path stroke="#F7FAFC" stroke-width="3" stroke-linecap="round" stroke-linejoin="round" stroke-dasharray="0,8.8041" d="M276.7 327.9l16 77.4"/><path stroke="#9BC0E0" stroke-width="3" stroke-linecap="round" stroke-linejoin="round" d="M258.5 493.6l33.7-83.9M482.7 172.8c-2.2 3.3-89.3 162.7-89.3 162.7l-99 72.6M341.3 260.6l187.6 33.8"/><path stroke="#9BC0E0" stroke-width="3" stroke-linecap="round" stroke-linejoin="round" d="M453.6 388.8L258.5 490.3l-97.2-128.7"/><path d="M398.7 477.7l-102.1-68.6-164 51.9 24.3-104.9 52.4-89.5" stroke="#F7FAFC" stroke-width="3" stroke-linecap="round" stroke-linejoin="round" stroke-dasharray="0,8.8041"/><path stroke="#9BC0E0" stroke-width="3" stroke-linecap="round" stroke-linejoin="round" d="M151.4 348.4l-61.7-145"/><circle fill="#000" fill-rule="nonzero" cx="150.6" cy="55.5" r="9.9"/><circle fill="#000" fill-rule="nonzero" cx="409.3" cy="44.3" r="9.9"/><circle stroke="#1D2737" stroke-width=".984" fill="#FFF" fill-rule="nonzero" cx="154.6" cy="354.2" r="17.3"/><circle stroke="#BFBFBF" stroke-width="1.275" fill="#FFF" fill-rule="nonzero" cx="294.1" cy="408.9" r="11.3"/><circle stroke="#BFBFBF" stroke-width="1.275" fill="#FFF" fill-rule="nonzero" cx="528.9" cy="294.4" r="11.3"/><circle fill="#000" fill-rule="nonzero" cx="483.1" cy="173.9" r="9.9"/><circle stroke="#BFBFBF" stroke-width="1.452" fill="#FFF" fill-rule="nonzero" cx="456.6" cy="385.7" r="11.3"/><circle fill="#000" fill-rule="nonzero" cx="259.9" cy="491.9" r="9.9"/><circle stroke="#BFBFBF" stroke-width="1.819" fill="#FFF" fill-rule="nonzero" cx="20.1" cy="146.5" r="11.3"/><circle stroke="#BFBFBF" stroke-width="1.275" fill="#FFF" fill-rule="nonzero" cx="404.5" cy="476.9" r="11.3"/><circle stroke="#BFBFBF" stroke-width="1.275" fill="#FFF" fill-rule="nonzero" cx="133" cy="459" r="11.3"/><path d="M70.7 402.5s71.2-38.1 72.9-39.8M192 235.2L155.7 95.4" stroke="#9BC0E0" stroke-width="3" stroke-linecap="round" stroke-linejoin="round"/><circle stroke="#BFBFBF" stroke-width="1.275" fill="#FFF" fill-rule="nonzero" cx="230" cy="14.6" r="11.3"/><g fill-rule="nonzero"><path d="M396.2 1.3h61.6c2.3 0 4.1 1.8 4.1 4.1V52H392V5.4c.1-2.2 1.9-4.1 4.2-4.1z" fill="#F7FAFC"/><path d="M461.9 53.3h-69.8c-.7 0-1.3-.6-1.3-1.3V5.4c0-3 2.4-5.4 5.4-5.4h61.6c3 0 5.4 2.4 5.4 5.4V52c.1.7-.5 1.3-1.3 1.3zm-68.5-2.6h67.2V5.4c0-1.5-1.3-2.8-2.8-2.8h-61.6c-1.5 0-2.8 1.3-2.8 2.8v45.3z" fill="#B5D0E7"/><path fill="#F7FAFC" d="M392.1 44.9h69.8"/><path d="M461.9 46.2h-69.8c-.7 0-1.3-.6-1.3-1.3 0-.7.6-1.3 1.3-1.3h69.8c.7 0 1.3.6 1.3 1.3.1.7-.5 1.3-1.3 1.3z" fill="#B5D0E7"/><g><path d="M433.2 48.7v2.1h-13.7v-2.1h-34.2v2.6c0 3.8 3.1 3.8 6.9 3.8h68.3c3.8 0 6.9 0 6.9-3.8v-2.6h-34.2z" fill="#F7FAFC"/><path d="M460.6 56.5c-.1 0-.1 0 0 0h-68.4c-2 0-3.9 0-5.4-.6-1.9-.7-2.9-2.3-2.9-4.6v-2.6c0-.7.6-1.3 1.3-1.3h34.2c.7 0 1.3.6 1.3 1.3v.8h11.1v-.8c0-.7.6-1.3 1.3-1.3h34.3c.7 0 1.3.6 1.3 1.3v2.6c0 2.3-1 3.8-2.9 4.6-1.4.6-3.3.6-5.2.6zm-68.5-2.7h68.3c1.8 0 3.4 0 4.4-.4.6-.2 1.2-.6 1.2-2.1v-1.2h-31.6v.8c0 .7-.6 1.3-1.3 1.3h-13.7c-.7 0-1.3-.6-1.3-1.3v-.8h-31.6v1.2c0 1.5.6 1.9 1.2 2.1 1 .4 2.7.4 4.4.4z" fill="#B5D0E7"/></g></g><path d="M426.3 7.7c8.3 0 12.5 4.5 12.5 4.5s.5 3.3.2 9.9c-.5 10-12.7 16-12.7 16s-12.2-6-12.7-16c-.3-6.6.2-9.9.2-9.9s4.2-4.5 12.5-4.5z" stroke="#B5D0E7" stroke-width="2.205" stroke-linecap="round" stroke-linejoin="round"/><path d="M426.3 13.8c4.2 0 7.6 3.4 7.6 7.6 0 4.2-3.4 7.6-7.6 7.6-4.2 0-7.6-3.4-7.6-7.6-.1-4.2 3.3-7.6 7.6-7.6" fill="#ED2E26" fill-rule="nonzero"/><path stroke="#FEFEFE" stroke-width="1.616" stroke-linecap="round" stroke-linejoin="round" d="M422.7 21.5l2.5 2.5 4.6-4.6"/><path d="M236.5 490.6h-14c-1.6 0-2.9 1.3-2.9 2.9v44.6h19.8v-44.6c0-1.6-1.3-2.9-2.9-2.9z" stroke="#B5D0E7" stroke-width="2.288" fill="#FFF" fill-rule="nonzero" stroke-linecap="round" stroke-linejoin="round"/><path stroke="#B5D0E7" stroke-width="2.288" stroke-linecap="round" stroke-linejoin="round" d="M219.7 532h19.7"/><path fill="#B5D0E7" fill-rule="nonzero" d="M225.4 501.9h8.3v4.1h-8.3zM225.4 509.8h8.3v3.8h-8.3z"/><path d="M307.1 527.8h-63.3v-45c0-1.6 1.3-2.9 2.9-2.9h57.5c1.6 0 2.9 1.3 2.9 2.9v45h0z" stroke="#B5D0E7" stroke-width="2.288" fill="#FFF" fill-rule="nonzero" stroke-linecap="round" stroke-linejoin="round"/><path stroke="#B5D0E7" stroke-width="2.288" stroke-linecap="round" stroke-linejoin="round" d="M243.8 521.9h63.3"/><path stroke="#B5D0E7" stroke-width="2.288" fill="#FFF" fill-rule="nonzero" stroke-linecap="round" stroke-linejoin="round" d="M262.8 533.3H288v4.8h-25.2z"/><path stroke="#B5D0E7" stroke-width="2.288" stroke-linecap="round" stroke-linejoin="round" d="M275.4 528.4v4.5"/><path stroke="#ED2E26" stroke-width="2.597" stroke-linecap="round" stroke-linejoin="round" d="M267.7 501.3l-8.1 4.6 8.1 5M282.7 501.3l8.2 4.6-8.2 5M278.9 497.6l-7.4 17.1"/><g fill-rule="nonzero"><path d="M85.1 42.6h75.6c1.1 0 1.9.9 1.9 1.9v18c0 1.1-.9 1.9-1.9 1.9H85.1c-1.1 0-1.9-.9-1.9-1.9v-18c0-1.1.8-1.9 1.9-1.9z" stroke="#B4CFE5" stroke-width="2.288" fill="#F7FAFC" stroke-linecap="round" stroke-linejoin="round"/><path d="M85.1 64.3h75.6c1.1 0 1.9.9 1.9 1.9v17.9c0 1.1-.9 1.9-1.9 1.9H85.1c-1.1 0-1.9-.9-1.9-1.9V66.2c0-1.1.8-1.9 1.9-1.9z" stroke="#B5D0E7" stroke-width="2.288" fill="#FFF" stroke-linecap="round" stroke-linejoin="round"/><path d="M85.1 85.9h75.6c1.1 0 1.9.9 1.9 1.9v17.9c0 1.1-.9 1.9-1.9 1.9H85.1c-1.1 0-1.9-.9-1.9-1.9V87.8c0-1 .8-1.9 1.9-1.9zM85.1 42.6h75.6c1.1 0 1.9.9 1.9 1.9v17.9c0 1.1-.9 1.9-1.9 1.9H85.1c-1.1 0-1.9-.9-1.9-1.9V44.5c0-1.1.8-1.9 1.9-1.9z" stroke="#B5D0E7" stroke-width="2.288" fill="#FFF" stroke-linecap="round" stroke-linejoin="round"/><path d="M90.3 53.5c0-1.8 1.4-3.2 3.2-3.2 1.8 0 3.2 1.4 3.2 3.2 0 1.8-1.4 3.2-3.2 3.2-1.7 0-3.2-1.4-3.2-3.2z" stroke="#ED2E26" stroke-width="2.288" fill="#F7FAFC" stroke-linecap="round" stroke-linejoin="round"/><path d="M103.6 53.5c0-1.8 1.4-3.2 3.2-3.2 1.8 0 3.2 1.4 3.2 3.2 0 1.8-1.4 3.2-3.2 3.2-1.8 0-3.2-1.4-3.2-3.2" fill="#ED2E26"/><path d="M90.3 97.2c0-1.8 1.4-3.2 3.2-3.2 1.8 0 3.2 1.4 3.2 3.2 0 1.8-1.4 3.2-3.2 3.2-1.7 0-3.2-1.4-3.2-3.2z" stroke="#ED2E26" stroke-width="2.288" fill="#F7FAFC" stroke-linecap="round" stroke-linejoin="round"/><path d="M103.6 97.2c0-1.8 1.4-3.2 3.2-3.2 1.8 0 3.2 1.4 3.2 3.2 0 1.8-1.4 3.2-3.2 3.2-1.8 0-3.2-1.4-3.2-3.2" fill="#ED2E26"/><path d="M110 75.4c0 1.8-1.4 3.2-3.2 3.2-1.8 0-3.2-1.4-3.2-3.2 0-1.8 1.4-3.2 3.2-3.2 1.8 0 3.2 1.4 3.2 3.2z" stroke="#ED2E26" stroke-width="2.288" fill="#F7FAFC" stroke-linecap="round" stroke-linejoin="round"/><path d="M96.7 75.4c0 1.8-1.4 3.2-3.2 3.2-1.8 0-3.2-1.4-3.2-3.2 0-1.8 1.4-3.2 3.2-3.2 1.8 0 3.2 1.4 3.2 3.2" fill="#ED2E26"/><path stroke="#B4CFE5" stroke-width="2.288" fill="#F7FAFC" stroke-linecap="round" stroke-linejoin="round" d="M131.9 94l6.6 7.1M118.7 94l6.6 7.1M145.2 94l6.6 7.1M131.9 71.8l6.6 7.1M118.7 71.8l6.6 7.1M145.2 71.8l6.6 7.1M131.9 50l6.6 7.1M118.7 50l6.6 7.1M145.2 50l6.6 7.1"/></g><g fill-rule="nonzero"><path d="M443.1 371.1h75.6c1.1 0 1.9.9 1.9 1.9v18c0 1.1-.9 1.9-1.9 1.9h-75.6c-1.1 0-1.9-.9-1.9-1.9v-18c0-1 .8-1.9 1.9-1.9z" stroke="#B4CFE5" stroke-width="2.288" fill="#F7FAFC" stroke-linecap="round" stroke-linejoin="round"/><path d="M443.1 392.8h75.6c1.1 0 1.9.9 1.9 1.9v17.9c0 1.1-.9 1.9-1.9 1.9h-75.6c-1.1 0-1.9-.9-1.9-1.9v-17.9c0-1.1.8-1.9 1.9-1.9zM443.1 371.1h75.6c1.1 0 1.9.9 1.9 1.9v17.9c0 1.1-.9 1.9-1.9 1.9h-75.6c-1.1 0-1.9-.9-1.9-1.9V373c0-1 .8-1.9 1.9-1.9z" stroke="#B5D0E7" stroke-width="2.288" fill="#FFF" stroke-linecap="round" stroke-linejoin="round"/><path d="M448.3 382c0-1.8 1.4-3.2 3.2-3.2 1.8 0 3.2 1.4 3.2 3.2 0 1.8-1.4 3.2-3.2 3.2-1.7 0-3.2-1.4-3.2-3.2z" stroke="#ED2E26" stroke-width="2.288" fill="#F7FAFC" stroke-linecap="round" stroke-linejoin="round"/><path d="M461.6 382c0-1.8 1.4-3.2 3.2-3.2 1.8 0 3.2 1.4 3.2 3.2 0 1.8-1.4 3.2-3.2 3.2-1.8 0-3.2-1.4-3.2-3.2" fill="#ED2E26"/><path d="M468 403.9c0 1.8-1.4 3.2-3.2 3.2-1.8 0-3.2-1.4-3.2-3.2 0-1.8 1.4-3.2 3.2-3.2 1.7 0 3.2 1.4 3.2 3.2z" stroke="#ED2E26" stroke-width="2.288" fill="#F7FAFC" stroke-linecap="round" stroke-linejoin="round"/><path d="M454.7 403.9c0 1.8-1.4 3.2-3.2 3.2-1.8 0-3.2-1.4-3.2-3.2 0-1.8 1.4-3.2 3.2-3.2 1.8 0 3.2 1.4 3.2 3.2" fill="#ED2E26"/><path stroke="#B4CFE5" stroke-width="2.288" fill="#F7FAFC" stroke-linecap="round" stroke-linejoin="round" d="M489.9 400.3l6.6 7.1M476.7 400.3l6.6 7.1M503.2 400.3l6.6 7.1M489.9 378.5l6.6 7.1M476.7 378.5l6.6 7.1M503.2 378.5l6.6 7.1"/></g><g fill-rule="nonzero"><path d="M72 431.3H5c-2.8 0-5-2.3-5-5v-39.8c0-2.8 2.3-5 5-5h67.1c2.8 0 5 2.3 5 5v39.6c-.1 2.9-2.3 5.2-5.1 5.2z" stroke="#B5D0E7" stroke-width="2.288" fill="#FFF" stroke-linecap="round" stroke-linejoin="round"/><path d="M69.1 425.4H35.8c-1 0-1.9-.9-1.9-1.9v-33.3c0-1 .9-1.9 1.9-1.9h33.3c1 0 1.9.9 1.9 1.9v33.3c0 1-.9 1.9-1.9 1.9zM29.2 425.4H7.9c-.9 0-1.5-.6-1.5-1.5v-34c0-.9.6-1.5 1.5-1.5h21.3c.9 0 1.5.6 1.5 1.5v33.9c0 .9-.6 1.6-1.5 1.6z" fill="#FFF"/><path d="M49.3 393.1H37.6c-.3 0-.5-.3-.5-.5 0-.3.3-.5.5-.5h11.7c.3 0 .5.3.5.5s-.2.5-.5.5zM46.8 397.5h-9.3c-.3 0-.5-.3-.5-.5 0-.3.3-.5.5-.5h9.3c.3 0 .5.3.5.5.1.3-.1.5-.5.5zM57.5 395.3h-20c-.3 0-.5-.3-.5-.5 0-.3.3-.5.5-.5h20c.3 0 .5.3.5.5.1.3-.1.5-.5.5zM14 393.1H8.5c-.3 0-.5-.3-.5-.5 0-.3.3-.5.5-.5H14c.3 0 .5.3.5.5.2.2-.1.5-.5.5zM19.5 395.3h-11c-.3 0-.5-.3-.5-.5 0-.3.3-.5.5-.5h11c.3 0 .5.3.5.5.1.3-.1.5-.5.5z" fill="#E8E9EB"/><path d="M11.9 423.5H9.7c-.1 0-.3-.1-.3-.3v-18.7c0-.1.1-.3.3-.3H12c.1 0 .3.1.3.3v18.9c-.2 0-.3.1-.4.1zM17.1 423.5h-2.2c-.1 0-.3-.1-.3-.3v-23.7c0-.1.1-.3.3-.3h2.2c.1 0 .3.1.3.3v23.7c-.1.2-.2.3-.3.3zM22.3 423.5H20c-.1 0-.3-.1-.3-.3v-15.6c0-.1.1-.3.3-.3h2.3c.1 0 .3.1.3.3v15.6c0 .2-.2.3-.3.3zM27.5 423.5h-2.3c-.1 0-.1-.1-.1-.1v-12.5c0-.1.1-.1.1-.1h2.3c.1 0 .1.1.1.1v12.5c.1 0 .1.1-.1.1z" fill="#B5D0E7"/><path d="M62.3 405.5c-1.3-2.3-3.2-4.1-5.6-5.1-1.3-.5-2.7-.8-4.2-.8-6.1 0-11.1 5-11.1 11.1s5 11.1 11.1 11.1c3.1 0 5.9-1.3 7.8-3.2 1-1 1.8-2.2 2.3-3.3.6-1.4.9-2.9.9-4.5.1-1.9-.4-3.7-1.2-5.3zm-9.8 10.2c-2.8 0-5.1-2.3-5.1-5.1s2.3-5.1 5.1-5.1 5.1 2.3 5.1 5.1-2.3 5.1-5.1 5.1z" fill="#ED2E26"/><path d="M57 408.3l5.4-2.8c-1.3-2.3-3.2-4.1-5.6-5.1l-2.3 5.6c1.1.4 2 1.2 2.5 2.3z" fill="#B5D0E7"/></g><g transform="translate(473.1 114)"><path d="M42.5 32.4v33.5c0 1.8-1.4 3.2-3.2 3.2H3.2c-1.8 0-3.2-1.4-3.2-3.2V3.2C0 1.4 1.5 0 3.2 0h35.9c1.8 0 3.2 1.4 3.2 3.2v13" stroke="#B5D0E7" stroke-width="2.288" fill="#FFF" fill-rule="nonzero" stroke-linecap="round" stroke-linejoin="round"/><path stroke="#B5D0E7" stroke-width="2.288" stroke-linecap="round" stroke-linejoin="round" d="M0 9.4h42.5M0 57.3h42.5"/><path fill="#B5D0E7" fill-rule="nonzero" d="M17.2 4.4h8v1.9h-8z"/><circle fill="#B5D0E7" fill-rule="nonzero" cx="21.3" cy="63.5" r="1.8"/><path stroke="#ED2E26" stroke-width="2.288" fill="#FFF" fill-rule="nonzero" stroke-linecap="round" stroke-linejoin="round" d="M31.4 16.2h31.1v16.2H40.9l-6.1 5.4v-5.4h-3.4z"/><circle fill="#ED2E26" fill-rule="nonzero" cx="56" cy="24.3" r="1.9"/><circle fill="#ED2E26" fill-rule="nonzero" cx="49.7" cy="24.3" r="1.9"/><circle fill="#ED2E26" fill-rule="nonzero" cx="43.6" cy="24.3" r="1.9"/><circle fill="#ED2E26" fill-rule="nonzero" cx="37.5" cy="24.3" r="1.9"/></g><g transform="translate(5.6 239.9)"><path d="M42.4 32.4v33.5c0 1.8-1.4 3.2-3.2 3.2h-36c-1.8 0-3.2-1.4-3.2-3.2V3.2C0 1.4 1.5 0 3.2 0h35.9c1.8 0 3.2 1.4 3.2 3.2v13" stroke="#B5D0E7" stroke-width="2.288" fill="#FFF" fill-rule="nonzero" stroke-linecap="round" stroke-linejoin="round"/><path stroke="#B5D0E7" stroke-width="2.288" stroke-linecap="round" stroke-linejoin="round" d="M0 9.4h42.4M0 57.3h42.4"/><path fill="#B5D0E7" fill-rule="nonzero" d="M17.2 4.4h8v1.9h-8z"/><circle fill="#B5D0E7" fill-rule="nonzero" cx="21.3" cy="63.5" r="1.8"/><path stroke="#ED2E26" stroke-width="2.288" fill="#FFF" fill-rule="nonzero" stroke-linecap="round" stroke-linejoin="round" d="M31.3 16.2h31.1v16.2H40.9l-6.1 5.4v-5.4h-3.5z"/><circle fill="#ED2E26" fill-rule="nonzero" cx="55.9" cy="24.3" r="1.9"/><circle fill="#ED2E26" fill-rule="nonzero" cx="49.7" cy="24.3" r="1.9"/><circle fill="#ED2E26" fill-rule="nonzero" cx="43.6" cy="24.3" r="1.9"/><circle fill="#ED2E26" fill-rule="nonzero" cx="37.4" cy="24.3" r="1.9"/></g><g><path d="M429.4 108.8c11.6 0 20.9 9.4 20.9 20.9 0 11.6-9.4 20.9-20.9 20.9-11.6 0-20.9-9.4-20.9-20.9 0-11.5 9.4-20.9 20.9-20.9z" fill="#ED2E26" fill-rule="nonzero"/><path d="M429.3 120.3c3.1 0 5.7 4.5 5.7 10.1s-2.6 10.1-5.7 10.1-5.7-4.5-5.7-10.1 2.5-10.1 5.7-10.1z" fill="#FFF" fill-rule="nonzero"/><path fill="#ED2E26" fill-rule="nonzero" d="M428.4 128.7h1.6v11.8h-1.6z"/><path d="M422.2 124.8c4.7 5 9.4 5 14.1 0" stroke="#ED2E26" stroke-width="1.657" stroke-linecap="round" stroke-linejoin="round"/><path d="M420.7 122c5.9 6.3 11.9 6.3 18 0M423.8 132.1h-5M439.9 132.1h-5.8M434.8 116.8l-4 5.1M427.5 134.6l-4.8 5.9M430.9 134.6l4.8 5.9M423.7 117l3.8 5" stroke="#FFF" stroke-width="1.657" stroke-linecap="round" stroke-linejoin="round"/><g><path d="M325.5 21c11.6 0 20.9 9.4 20.9 20.9 0 11.6-9.4 20.9-20.9 20.9-11.6 0-20.9-9.4-20.9-20.9 0-11.5 9.4-20.9 20.9-20.9z" fill="#ED2E26" fill-rule="nonzero"/><path d="M325.4 32.4c3.1 0 5.7 4.5 5.7 10.1s-2.6 10.1-5.7 10.1-5.7-4.5-5.7-10.1c0-5.5 2.5-10.1 5.7-10.1z" fill="#FFF" fill-rule="nonzero"/><path fill="#ED2E26" fill-rule="nonzero" d="M324.6 40.9h1.6v11.8h-1.6z"/><path d="M318.3 37c4.7 5 9.4 5 14.1 0" stroke="#ED2E26" stroke-width="1.657" stroke-linecap="round" stroke-linejoin="round"/><path d="M316.8 34.2c5.9 6.3 11.9 6.3 18 0M319.9 44.3h-5M336 44.3h-5.8M331 29l-4 5.1M323.6 46.8l-4.8 5.9M327 46.8l4.8 5.9M319.8 29.2l3.8 5" stroke="#FFF" stroke-width="1.657" stroke-linecap="round" stroke-linejoin="round"/></g><g fill-rule="nonzero"><path d="M90.84 186.34c11.6 0 20.9 9.4 20.9 20.9 0 11.6-9.4 20.9-20.9 20.9-11.6 0-20.9-9.4-20.9-20.9 0-11.5 9.4-20.9 20.9-20.9z" fill="#ED2E26"/><path d="M91.84 204.84h5.6c.2 0 .3.1.3.3v.2l-8.3 13.1c-.1.2-.3.2-.4.1-.1-.1-.2-.2-.2-.3l.4-9.4c0-.2-.1-.3-.3-.3h-5.5c-.2 0-.3-.1-.3-.3 0-.1 0-.1.1-.2l8.2-11.3c.1-.1.3-.2.5-.1.1.1.1.2.1.3l-.5 7.6c0 .1.1.3.3.3z" fill="#FFF"/></g><g fill-rule="nonzero"><path d="M390.44 321.74c11.6 0 20.9 9.4 20.9 20.9 0 11.6-9.4 20.9-20.9 20.9-11.6 0-20.9-9.4-20.9-20.9 0-11.5 9.4-20.9 20.9-20.9z" fill="#ED2E26"/><path d="M391.44 340.24h5.6c.2 0 .3.1.3.3v.2l-8.3 13.1c-.1.2-.3.2-.4.1-.1-.1-.2-.2-.2-.3l.4-9.4c0-.2-.1-.3-.3-.3h-5.5c-.2 0-.3-.1-.3-.3 0-.1 0-.1.1-.2l8.2-11.3c.1-.1.3-.2.5-.1.1.1.1.2.1.3l-.5 7.6c-.1.1.1.3.3.3z" fill="#FFF"/></g><g><path d="M153.7 335.7c11.6 0 20.9 9.4 20.9 20.9 0 11.6-9.4 20.9-20.9 20.9-11.6 0-20.9-9.4-20.9-20.9 0-11.5 9.4-20.9 20.9-20.9z" fill="#ED2E26" fill-rule="nonzero"/><path d="M153.5 347.2c3.1 0 5.7 4.5 5.7 10.1s-2.6 10.1-5.7 10.1-5.7-4.5-5.7-10.1 2.6-10.1 5.7-10.1z" fill="#FFF" fill-rule="nonzero"/><path fill="#ED2E26" fill-rule="nonzero" d="M152.7 355.6h1.6v11.8h-1.6z"/><path d="M146.5 351.7c4.7 5 9.4 5 14.1 0" stroke="#ED2E26" stroke-width="1.657" stroke-linecap="round" stroke-linejoin="round"/><path d="M145 348.9c5.9 6.3 11.9 6.3 18 0M148.1 359h-5M164.2 359h-5.8M159.1 343.7l-4 5.1M151.8 361.5l-4.8 5.9M155.1 361.5l4.8 5.9M147.9 343.9l3.8 5" stroke="#FFF" stroke-width="1.657" stroke-linecap="round" stroke-linejoin="round"/></g></g><g transform="translate(181.2 166.4)"><circle stroke="#ED2E26" stroke-width="5.676" fill="#FFF" fill-rule="nonzero" cx="87.5" cy="87.5" r="87.5"/><g fill-rule="nonzero"><path d="M87.5 55.3c17.8 0 26.6 9.5 26.6 9.5s1 6.9.3 21.1c-1 21.1-27 33.9-27 33.9s-26-12.8-27-34.2c-.7-14.1.3-21.1.3-21.1s9.1-9.2 26.8-9.2" fill="#EE3D3A"/><path d="M74.4 83.3c0-7.6 5.9-13.8 13.2-13.8 7.3 0 13.2 5.9 13.2 13.2 0 5.9-4.9 10.5-8.9 13.2 1.6 1 4.9 1.6 7.9 2 4.6-3.6 7.6-9.2 7.6-15.1 0-10.9-8.9-19.7-19.7-19.7C76.8 63.1 68 72 68 82.8c0 6.6 2.6 12.5 7.9 17.1 4.9 4.3 11.8 6.9 20.1 8.2 1.6-1 4.6-3.9 5.9-5.6-6.9-1-13.2-2.6-17.4-4.9-6.8-3.2-10.1-8.1-10.1-14.3" fill="#FFF"/></g><path d="M111.5 126c-6.9 4.3-15.1 6.9-24 6.9-25 0-45.4-20.4-45.4-45.4s20.4-45.4 45.4-45.4h2.3" stroke="#B5D0E7" stroke-width="5.933" stroke-linecap="round" stroke-linejoin="round"/><path stroke="#B5D0E7" stroke-width="5.933" fill="#B5D0E7" fill-rule="nonzero" stroke-linecap="round" stroke-linejoin="round" d="M105 120.1l15.7-.3-7.5 13.8zM125.4 46.4l-11.6-22.3 25.7.6z"/><path d="M50 31c2.3-1.3 4.3-2.6 6.6-3.9M32.6 47.4c2-2.6 4.3-5.3 6.6-7.9M19.4 87.5c0-7.9 1.3-15.5 3.6-22.4M130.3 34.6c15.5 12.5 25.3 31.6 25.3 53 0 37.5-30.6 68.1-68.1 68.1-31.6 0-58.2-21.7-65.8-50.7" stroke="#B5D0E7" stroke-width="5.933" stroke-linecap="round" stroke-linejoin="round"/></g></g></svg>