<svg xmlns="http://www.w3.org/2000/svg" viewBox="0 0 727.4 433"><path fill="#FFF" d="M676.7 87.9c-10.7 6.1-16.8 17.2-17.1 28.8l-159.5 2.2 11.1-26.7c8.4 2.3 17.6 1.4 25.8-3.2 16.3-9.3 21.9-30 12.6-46.3-9.3-16.3-30-21.9-46.3-12.6-8.5 4.9-14.1 12.9-16.2 21.8L324.6 34.3c.1-5.8-1.3-11.8-4.4-17.2-9.3-16.3-30-21.9-46.3-12.7-16.3 9.3-21.9 30.1-12.7 46.3 1.2 2.1 2.6 4 4.2 5.8l-42.5 50.6-61.4 10.8c-.7-2.8-1.8-5.6-3.3-8.3-9.3-16.2-30-21.9-46.3-12.6-16.2 9.3-21.9 30-12.6 46.3 2.9 5 6.8 9 11.4 11.9L43.8 304.6c-8.6-2.6-18.3-1.9-26.7 3-16.3 9.3-21.9 30-12.6 46.3 9.3 16.3 30 21.9 46.3 12.7 8.3-4.7 13.8-12.4 16-21l162.7 17.9c.1 5.4 1.6 10.9 4.4 15.9 9.3 16.2 30 21.9 46.3 12.6 7.8-4.4 13.1-11.5 15.5-19.4L465.2 399c0 5.8 1.4 11.6 4.4 16.9 9.3 16.3 30.1 21.9 46.3 12.6 16.3-9.3 21.9-30 12.7-46.3-2-3.4-4.5-6.4-7.3-8.8l51.3-74.8 54.8 5.6c-.5 6.5.9 13.1 4.4 19.1 9.3 16.3 30 21.9 46.3 12.7 16.3-9.3 21.9-30 12.7-46.3-9.3-16.2-30-21.9-46.3-12.6-3.2 1.8-6 4.1-8.4 6.7L600.5 258l76.3-111.2c10.1 5.7 22.8 6.1 33.6 0 16.3-9.3 21.9-30.1 12.7-46.3-9.4-16.3-30.2-21.9-46.4-12.6m-16.8 33.7c.5 4.1 1.8 8.1 3.8 11.9L537.3 212l-58.2-42.4 19-45.8 161.8-2.2zM406.5 295.4c-7.9-13.9-3.1-31.6 10.8-39.6 13.9-7.9 31.6-3.1 39.6 10.8 7.9 13.9 3.1 31.6-10.8 39.6-13.9 7.9-31.6 3.1-39.6-10.8m-113.1 51.3c-.2-.3-.3-.7-.5-1-1.6-2.8-3.6-5.3-5.8-7.5l32.7-38.2 78.9-11.4c.4 1.7.9 3.4 1.6 5l-106.9 53.1zm-58.6-34.3l29-4.2-1.6 20.5c-5.3.2-10.7 1.6-15.6 4.4l-11.8-20.7zm-89.3-156.5c6.4-3.7 11.1-9.1 14-15.3l27.6 9.2-26.8 31.9-14.8-25.8zm313.4 104.8c-3.5-4.7-8.1-8.3-13.2-10.6l5-12 29 9.7-20.8 12.9zm-17.8-12.3c-8.3-2.4-17.5-1.6-25.6 2.8l-17.8-30.9 48.4 16.2-5 11.9zm-81.4-93.8l50.7-28.9 32.1 23.3-51.4 60-31.4-54.4zm27.1 56.9l-80-26.8 48.6-27.7 31.4 54.5zm-29.5-61.1L343.2 126l58.3-.8-44.2 25.2zm-4.3 2.4l-52.4 29.8-21.6-7.2 3.7-48.6 54.8-.8 15.5 26.8zm-58.2 33.1l-17.4 9.9 1.2-15.3 16.2 5.4zm6.3 2.1l84 28.1-67.9 79.3-48 7 7.7-100.6 24.2-13.8zm89.1 29.8l.4.1 20.7 36c-9.4 7.1-14.2 18.4-13.4 29.7l-73.3 10.7 65.6-76.5zm3.7-3.9l-.2-.3 52.8-61.6 26.5 19.3-25.1 60.7-54-18.1zm55.8-65.7l20.6-24 22.4-.3-17.7 42.7-25.3-18.4zm-3.9-2.9l-28-20.4 46-.6-18 21zM420.6 120l71.9-41c1.5 2.1 3.3 4 5.2 5.7L468 119.3l-47.4.7zm-9.8-.1l-45-32.8 121.1-21.2c.6 3.1 1.6 6.1 3.1 9l-79.2 45zm-7.9.3l-62.5.9-15.5-26.8 34.1-6 43.9 31.9zm-80.6-30.5l-15.1-26.1c.1-.1.2-.1.3-.2 3.2-1.8 5.9-4.1 8.2-6.6l37.7 27.4-31.1 5.5zm-5.2.9l-32 5.6 2.2-28.6c5.1.5 10.4-.1 15.4-2l14.4 25zm2.6 4.6l15 26-51.6.7 1.6-20.6 35-6.1zM278.2 122l-62 .9 9.4-11.1 54.2-9.5-1.6 19.7zm-.4 4.9l-3.6 46.9-78.7-26.4 16.5-19.6 65.8-.9zm-87.4 18.8l-29.2-9.8c.7-2.4 1.2-4.9 1.3-7.5l42.9-.6-15 17.9zm1.6 5.8l81.8 27.4-1.5 19.9-77.2 43.9-32.3-56.5 29.2-34.7zm-1.2 93.7L62.2 318.3c-1.5-2.3-3.3-4.4-5.3-6.3l102.5-121.8 31.4 55zm2.4 4.2l33.7 59.1-159.5 23.2c-.5-3.1-1.4-6.1-2.8-9l128.6-73.3zm4.3-2.4l74.3-42.3-7.6 98.4-32 4.7-34.7-60.8zm71.3 60.4l43.5-6.3-29.1 34c-4.8-3.4-10.3-5.5-16.1-6.2l1.7-21.5zm192.8-42.5l24.2-15 93 31.1-8.5 12.4-104.6-10.7c.2-6.1-1.1-12.2-4.1-17.8m29.6-18.5l45.9-28.5 56.6 41.2-12.1 17.6-90.4-30.3zm-6.1-2l-32.5-10.9 24.6-59.2 55.6 40.5-47.7 29.6zm-10.5-125.2l26.9-31.4c1.6 1.1 3.3 2 5.1 2.7l-11.8 28.4-20.2.3zm31.2-84.9c13.9-7.9 31.6-3.1 39.6 10.8 7.9 13.9 3.1 31.6-10.8 39.6-13.9 7.9-31.6 3.1-39.6-10.8-8-14-3.1-31.7 10.8-39.6m-19.4 22.4c-.1 1.4-.1 2.8-.1 4.3L360.2 83l-41.4-30.1c2.8-4.1 4.6-8.8 5.4-13.7l162.2 17.5zm-220.9-8.4c-7.9-13.9-3.1-31.6 10.8-39.6 13.9-7.9 31.6-3.1 39.6 10.8 7.9 13.9 3.1 31.6-10.8 39.6s-31.6 3.1-39.6-10.8M269 60c4 3.3 8.5 5.6 13.4 6.8l-2.3 30.3-49.6 8.7L269 60zm-51.1 53l-8.3 9.9-47.2.7c0-.3 0-.5-.1-.8l55.6-9.8zm-114.5 27.8c-7.9-13.9-3.1-31.6 10.8-39.6 13.9-7.9 31.6-3.1 39.6 10.8 7.9 13.9 3.1 31.6-10.8 39.6s-31.6 3.1-39.6-10.8m11.5 16.6c8.1 3.6 17.5 4 26.1.6l15.8 27.7L53.1 309c-1.5-1-3.1-1.9-4.7-2.7l66.5-148.9zM48.3 362.2c-13.9 7.9-31.6 3.1-39.6-10.8-7.9-13.9-3.1-31.6 10.8-39.6 13.9-7.9 31.6-3.1 39.6 10.8s3.1 31.6-10.8 39.6m19.3-21.6c.1-1.3.2-2.7.2-4l161.7-23.5 12.9 22.7c-7.3 5.7-11.7 13.9-12.8 22.7l-162-17.9zm210.2 47.1c-13.9 7.9-31.6 3.1-39.6-10.8-7.9-13.9-3.1-31.6 10.8-39.6 13.9-7.9 31.6-3.1 39.6 10.8 7.9 13.9 3.1 31.7-10.8 39.6m19.1-20c.9-5.4.4-11.1-1.5-16.5l107-53.2c8.6 14.9 27 20.8 42.5 14.3l34.1 59.5c-7.4 5.5-12.1 13.6-13.4 22.3l-168.7-26.4zm227.4 17c7.9 13.9 3.1 31.6-10.8 39.6-13.9 7.9-31.6 3.1-39.6-10.8-7.9-13.9-3.1-31.6 10.8-39.6 14-8 31.7-3.2 39.6 10.8m-7-14.3c-10-6.4-23.1-7.2-34.2-1.3L449.3 310c8.5-5.1 13.9-13.4 15.7-22.5L567 298l-49.7 72.4zm58.5-76.5l7.8-11.4 44.9 15c-.2.6-.3 1.2-.4 1.7l-52.3-5.3zm71-12.6c13.9-7.9 31.6-3.1 39.6 10.8 7.9 13.9 3.1 31.6-10.8 39.6-13.9 7.9-31.6 3.1-39.6-10.8-7.9-13.9-3.1-31.6 10.8-39.6m-13.8 6.4c-1.1 1.7-2.1 3.4-2.9 5.3l-43.7-14.6 11.2-16.3 35.4 25.6zM596.5 255l-54.9-39.9 124.7-77.5c1.8 2.5 4 4.7 6.3 6.5L596.5 255zm111.4-112.5c-13.9 7.9-31.6 3.1-39.6-10.8-7.9-13.9-3.1-31.6 10.8-39.6 13.9-7.9 31.6-3.1 39.6 10.8 7.9 14 3.1 31.7-10.8 39.6"/><circle transform="rotate(-67.32 520.16 59.446)" fill="#6EC0EC" cx="520.2" cy="59.5" r="13.1"/><circle transform="rotate(-67.32 431.747 281.012)" fill="#6EC0EC" cx="431.7" cy="281" r="13.1"/><circle transform="rotate(-67.32 499.13 399.032)" fill="#6EC0EC" cx="499.1" cy="399" r="13.1"/><circle transform="rotate(-67.32 661.2 306.513)" fill="#6EC0EC" cx="661.2" cy="306.5" r="13.1"/><circle transform="rotate(-67.32 693.513 117.32)" fill="#6EC0EC" cx="693.5" cy="117.3" r="13.1"/><circle transform="rotate(-67.32 263.387 362.501)" fill="#6EC0EC" cx="263.4" cy="362.5" r="13.1"/><circle transform="rotate(-67.32 290.715 33.932)" fill="#6EC0EC" cx="290.7" cy="33.9" r="13.1"/><circle transform="rotate(-67.32 128.64 126.448)" fill="#6EC0EC" cx="128.6" cy="126.5" r="13.1"/><circle transform="rotate(-67.325 33.92 336.99)" fill="#6EC0EC" cx="33.9" cy="337" r="13.1"/></svg>