<svg width="520" height="273" viewBox="0 0 520 273" xmlns="http://www.w3.org/2000/svg"><g fill="none" fill-rule="evenodd"><path fill="#CBDEED" d="M0 129.7L259.5 0l259.8 129.7-259.6 130.9z"/><path fill="#9BC0E0" d="M0 129.8v13.6L259.5 273l259.8-129.6v-13.6L259.7 260.6z"/><path d="M259.7 185.8v12.8s54.7-13.3 78.9-36.2c0 0 9.2-8.3 11.6-17 0 0 3.4-12.1 2.3-28.1 0 0-3 24.8-21 36.7 0 0-22.1 18.4-71.8 31.8z" fill="#BC2222"/><path d="M259.7 185.8v12.8s-54.7-13.3-78.9-36.2c0 0-9.2-8.3-11.6-17 0 0-3.4-12.1-2.3-28.1 0 0 3 24.8 21 36.7 0 0 22 18.4 71.8 31.8z" fill="#A52121"/><path d="M259.7 75.5c61.9 0 90.8 16 90.8 16s5.1 27.9-.9 43.5c0 0-8.1 28.4-89.9 50.8-81.8-22.4-89.9-50.8-89.9-50.8-6-15.6-.9-43.5-.9-43.5s28.8-16 90.8-16z" fill="#ED2E26"/><path d="M274.4 144.8s9.6 2.7 27.1 3.5c0 0 14.3-4.6 21.1-14.2 0 0 11.4-12.8-2.6-26.5 0 0-8.5-10.2-30.2-15.3 0 0-14.5-4.3-36.5-3.5 0 0-21.4.7-37.7 7.9 0 0-23.7 8.6-23.7 25.8 0 0-.6 10.2 9.7 18.4 0 0 10.5 9.8 32.8 15.8 0 0 9.4 2.9 25 5.5 0 0 17.1 2.6 28 3.3 0 0 11.3-3.7 20-9.4 0 0-23.5-1.5-37.3-3.8 0 0-20-2.7-33.2-7.8 0 0-16.7-5.5-21.2-15.3 0 0-7.5-13.9 13.7-23.5 0 0 11.8-5.9 30.2-5.9 0 0 17.1-.9 32.3 6.8 0 0 12.9 6.1 12.9 15.9-.2 0 1.2 12.5-30.4 22.3z" fill="#F7FAFC"/></g></svg>