<svg xmlns="http://www.w3.org/2000/svg" xmlns:xlink="http://www.w3.org/1999/xlink" viewBox="0 0 47 64"><defs><path id="a" d="M.288.801h18.408V31H.288z"/><path id="c" d="M0 .348h46.722v46.723H0z"/></defs><g fill="none" fill-rule="evenodd"><path fill="#FFF" d="M17.939 34.453l9.495 2.56-6.911 25.639-3.724-5.078-5.774 2.519z"/><g transform="translate(0 -.348)"><path fill="#B5D0E7" d="M16.798 56.922c.31 0 .614.146.807.408l2.494 3.4 6.11-22.664-7.565-2.04-6.111 22.666 3.866-1.687c.129-.056.265-.083.399-.083M20.523 64c-.315 0-.616-.15-.807-.408l-3.251-4.434-5.04 2.2a1.003 1.003 0 01-1.365-1.178l6.913-25.64a1.003 1.003 0 011.226-.705l9.496 2.56a1 1 0 01.705 1.226l-6.912 25.64a1.003 1.003 0 01-.965.739"/><path fill="#FFF" d="M28.783 34.801l-9.496 2.56L26.199 63l3.724-5.078 5.773 2.519z"/><g transform="translate(18 33)"><mask id="b" fill="#fff"><use xlink:href="#a"/></mask><path fill="#B5D0E7" d="M2.513 5.065l6.11 22.665 2.494-3.4a1.002 1.002 0 011.206-.326l3.866 1.687-6.11-22.665-7.566 2.04zM8.2 31a1 1 0 01-.965-.74L.322 4.621a.999.999 0 01.705-1.227L10.523.835a1 1 0 011.225.705l6.913 25.64a1 1 0 01-1.365 1.177l-5.039-2.199-3.252 4.433a1 1 0 01-.806.41z" mask="url(#b)"/></g><path fill="#F7FAFC" d="M1 23.709c0-2.808 3.737-4.853 4.75-7.294 1.049-2.531-.108-6.61 1.799-8.519 1.908-1.906 5.987-.749 8.518-1.798 2.442-1.013 4.486-4.75 7.294-4.75s4.852 3.737 7.294 4.75c2.531 1.049 6.61-.108 8.518 1.799 1.907 1.908.749 5.987 1.799 8.518 1.012 2.441 4.75 4.486 4.75 7.294s-3.738 4.852-4.75 7.294c-1.05 2.531.108 6.61-1.8 8.518-1.907 1.907-5.986.75-8.517 1.799-2.442 1.013-4.486 4.75-7.294 4.75s-4.853-3.737-7.294-4.75c-2.531-1.05-6.61.108-8.518-1.8-1.907-1.907-.75-5.986-1.799-8.517C4.737 28.561 1 26.517 1 23.709"/><mask id="d" fill="#fff"><use xlink:href="#c"/></mask><path fill="#B5D0E7" d="M23.361 2.348c-1.26 0-2.458 1.119-3.726 2.305-.99.925-2.016 1.883-3.186 2.369-1.224.507-2.667.564-4.062.62-1.696.066-3.298.13-4.13.962-.833.833-.896 2.435-.964 4.132-.055 1.395-.112 2.838-.619 4.062-.485 1.169-1.443 2.194-2.37 3.185C3.12 21.25 2 22.448 2 23.709c0 1.26 1.12 2.458 2.304 3.726.927.99 1.885 2.016 2.37 3.185.507 1.225.564 2.667.62 4.063.067 1.696.13 3.298.962 4.13.833.833 2.435.896 4.13.963 1.396.055 2.84.113 4.064.62 1.168.486 2.193 1.443 3.183 2.37 1.27 1.185 2.466 2.305 3.728 2.305 1.261 0 2.458-1.12 3.726-2.305.991-.926 2.015-1.884 3.185-2.37 1.224-.507 2.667-.564 4.063-.62 1.695-.067 3.297-.13 4.13-.962.832-.832.896-2.435.963-4.131.055-1.396.112-2.838.62-4.063.485-1.17 1.443-2.195 2.37-3.186 1.185-1.267 2.304-2.464 2.304-3.725 0-1.26-1.12-2.458-2.305-3.725-.926-.991-1.885-2.017-2.369-3.186-.508-1.224-.565-2.668-.62-4.063-.067-1.697-.13-3.298-.963-4.13-.832-.832-2.434-.896-4.13-.963-1.396-.056-2.839-.112-4.063-.62-1.17-.486-2.194-1.444-3.185-2.37-1.268-1.185-2.465-2.304-3.726-2.304m0 44.723c-2.05 0-3.667-1.511-5.093-2.844-.9-.842-1.75-1.637-2.585-1.983-.894-.372-2.1-.418-3.376-.47-2.006-.08-4.08-.161-5.465-1.547-1.386-1.385-1.468-3.46-1.547-5.465-.05-1.276-.098-2.481-.469-3.376-.346-.834-1.14-1.684-1.983-2.585C1.51 27.375 0 25.76 0 23.709c0-2.05 1.51-3.667 2.843-5.092.842-.901 1.637-1.75 1.983-2.584.371-.895.418-2.1.47-3.376.078-2.006.16-4.08 1.545-5.467 1.387-1.385 3.461-1.467 5.467-1.547 1.276-.051 2.481-.098 3.376-.47.834-.345 1.684-1.14 2.585-1.981C19.694 1.859 21.31.348 23.361.348c2.05 0 3.666 1.51 5.091 2.844.901.842 1.751 1.636 2.586 1.982.894.37 2.1.419 3.376.47 2.006.079 4.08.16 5.466 1.547 1.385 1.386 1.467 3.459 1.546 5.465.051 1.276.098 2.48.47 3.377.345.834 1.14 1.684 1.982 2.585 1.333 1.425 2.844 3.042 2.844 5.09 0 2.05-1.51 3.667-2.843 5.092-.842.9-1.638 1.75-1.983 2.586-.372.895-.419 2.1-.47 3.376-.079 2.006-.16 4.08-1.547 5.466-1.386 1.386-3.459 1.468-5.465 1.547-1.276.05-2.482.098-3.376.469-.835.346-1.685 1.14-2.586 1.983-1.425 1.333-3.04 2.844-5.09 2.844" mask="url(#d)"/><path fill="#EE3C39" d="M24.15 10c8.14 0 12.233 4.355 12.233 4.355s.468 3.224.17 9.715c-.452 9.806-12.4 15.696-12.4 15.697-.002 0-11.95-5.891-12.4-15.697-.3-6.491.168-9.715.168-9.715S16.011 10 24.151 10"/><path fill="#FFF" d="M18.043 22.89c0-3.467 2.74-6.288 6.11-6.288a6.122 6.122 0 016.114 6.115c0 2.693-2.314 4.907-4.096 6.045.692.395 2.218.81 3.68.943a8.825 8.825 0 003.437-6.988c0-5.037-4.098-9.135-9.135-9.135s-9.135 4.098-9.135 9.135c0 3.042 1.267 5.745 3.662 7.817 2.242 1.935 5.518 3.227 9.25 3.839.808-.447 2.19-1.764 2.71-2.538-3.117-.4-6.067-1.16-8.044-2.198-3.021-1.585-4.553-3.854-4.553-6.747"/></g></g></svg>