<svg xmlns="http://www.w3.org/2000/svg" viewBox="0 0 146.169 17.021"><g fill="#73C5ED"><path d="M4.718 4.432h-1.4c-.734 0-1.237.15-1.495.462s-.395.857-.38 1.66c0 .053.013 1.522.053 4.404l-1.414.72-.08-5.872c-.015-.925.202-1.59.65-1.986.41-.38 1.075-.57 2-.57h2.065v1.182zM8.43 10.06l-1.62.708V8.892l1.62-.707v1.876zM11.99 10.985l-1.4.693-.067-8.416h1.414l.054 7.723zM18.87 8.307c0 .666-.204 1.237-.612 1.7-.394.46-.91.72-1.536.774-.395.042-.68.042-.843 0-1.252-.107-2.095-1.073-2.095-2.473 0-.585.204-1.183.612-1.822.476-.748 1.1-1.292 1.903-1.618.83.34 1.482.898 1.958 1.645.408.626.612 1.224.612 1.795zm-1.36-.204c0-.312-.122-.666-.38-1.047-.26-.394-.518-.652-.803-.775-.285.137-.557.395-.802.776-.245.367-.367.72-.367 1.047-.013.367.082.666.26.897.162.217.366.354.61.394.137.04.327.04.585 0 .245-.04.45-.176.612-.394.19-.23.285-.53.285-.897zM34.45 11.68h-1.102c-.53 0-.965-.19-1.332-.586-.272-.3-.45-.64-.544-1.02-.34-1.59-1.006-2.38-1.998-2.365-.76.012-1.292.488-1.604 1.426h2.61v1.672c0 1.06-.354 1.958-1.06 2.705-.694.748-1.55 1.13-2.543 1.13-.993 0-1.835-.382-2.542-1.13-.707-.747-1.06-1.644-1.06-2.72-.015-.34-.028-.883-.055-1.658h1.427c0 .23 0 .558.014.952.015.394.028.625.028.72 0 .722.245 1.32.748 1.77.435.394.91.583 1.428.583.557 0 1.033-.19 1.455-.584.488-.45.733-1.047.733-1.795l-.014-.312h-2.897c0-1.373.3-2.42.897-3.168.584-.707 1.373-1.06 2.366-1.06 1.074 0 1.917.422 2.515 1.265.314.462.585 1.128.816 1.985.163.584.53.87 1.102.87h.612v1.32zm-7.736 5.34H25.41V15.65h1.304v1.373zm1.97 0H27.38V15.65h1.305v1.373z"/><path d="M38.065 9.91c0 1.09-.64 1.77-1.822 1.77H34.11v-1.32h1.603c.53 0 .925-.326.925-.938 0-.53 0-.98-.014-1.346-.014-.557-.014-1.02-.027-1.36h1.44c.014 2.148.028 3.21.028 3.195zm-1.32 3.835h-1.304v-1.373h1.306v1.373zM45.692 11.68h-5.996l.68-1.32h3.78c-.082-.748-.34-1.346-.79-1.794-.366-.368-.733-.558-1.1-.558V6.716c1.074 0 1.917.408 2.502 1.21.612.857.924 2.108.924 3.753zM66.492 11.68H65.16c-.258 0-.53-.096-.788-.286-.285-.204-.49-.476-.612-.816-.258.842-.857 1.278-1.808 1.292-.83.014-1.44-.34-1.822-1.074-.286.693-.87 1.06-1.727 1.074-.693.014-1.224-.23-1.604-.72-.07.91-.422 1.698-1.048 2.364-.693.748-1.55 1.13-2.542 1.13-.993 0-1.835-.382-2.542-1.13-.707-.747-1.06-1.644-1.06-2.72l-.055-2.772h1.455c0 1.047 0 1.985.014 2.8 0 .64.217 1.197.64 1.645.42.463.937.693 1.55.693.597 0 1.114-.23 1.535-.693.435-.462.653-1.02.653-1.672-.014-2.12-.027-3.344-.027-3.684H56.8v1.836c.014.503.136.884.38 1.156.232.245.53.367.898.367.557 0 .83-.314.83-.925 0-.19 0-1.006-.015-2.434h1.428c0 .382.015.994.028 1.85.013.503.136.884.394 1.142.23.245.517.367.884.367.558 0 .83-.3.83-.912 0 .04 0-.897-.014-2.84h1.427c0 .475.013 1.236.026 2.283.014.422.163.762.435 1.02.232.232.477.34.735.34h1.428v1.32z"/><path d="M69.387 9.91c0 1.09-.653 1.77-1.836 1.77h-1.44v-1.32h.924c.53 0 .924-.326.924-.938 0-.843-.014-1.93-.027-3.263-.013-1.51-.026-2.61-.026-3.277h1.428c.013.626.013 1.794.027 3.522.014 1.467.027 2.636.027 3.506zM72.65 11.68h-1.427l-.068-8.797h1.428l.067 8.796zM81.133 11.68h-1.958c-.42 1.685-1.658 2.8-3.385 2.95-.204-.272-.503-.653-.884-1.13 1.237 0 2.312-.692 2.746-1.82h-.95c-1.348 0-2.272-1.143-2.272-2.435 0-1.536 1.142-2.556 2.542-2.556 1.482 0 2.34.842 2.34 2.147v1.523h1.82v1.32zm-3.263-1.32c-.014-1.115-.014-1.727-.014-1.836 0-.3-.408-.83-.884-.83-.625 0-1.1.586-1.1 1.483 0 .652.462 1.183 1.032 1.183h.966z"/><path d="M87.89 11.68h-7.03v-1.334h5.533c-.108-.748-.408-1.32-.884-1.726-.45-.38-1.007-.57-1.66-.57-.692 0-1.36.216-2.025.638l-.53-1.115 3.657-3.684 1.006.99-1.862 1.836c1.346 0 2.34.503 2.978 1.523.543.856.815 1.998.815 3.44zM101.39 11.68h-1.143c-.518 0-.925-.273-1.237-.803-.014 1.047-.38 1.93-1.088 2.665-.693.734-1.536 1.102-2.516 1.102-.992 0-1.835-.38-2.542-1.13-.707-.746-1.06-1.657-1.06-2.718 0-.122-.015-.557-.028-1.292-.014-.843-.027-1.332-.027-1.482h1.454v1.496c.014.815.014 1.25.014 1.305 0 .64.218 1.196.64 1.644.42.463.937.693 1.55.693.61 0 1.128-.23 1.55-.706.435-.463.652-1.02.64-1.66l-.07-2.786h1.456l.014 1.006c.04.408.204.747.462 1.006.218.23.448.34.707.34h1.224v1.32zm-5.385-4.95h-1.32V5.357h1.32V6.73z"/><path d="M107.547 9.123c0 1.577-.897 2.556-2.42 2.556h-3.997v-1.32h1.645c-.19-.394-.285-.802-.285-1.237 0-1.577.91-2.556 2.475-2.556.788 0 1.428.272 1.93.815.434.49.652 1.075.652 1.74zm-1.414.013c0-.42-.122-.775-.354-1.033-.205-.23-.463-.34-.75-.34-.312 0-.556.11-.746.34-.204.258-.3.598-.3 1.033 0 .42.123.775.353 1.033.204.23.463.34.748.34.6 0 1.048-.504 1.048-1.374zM111.23 2.053h-2.42l.314-.666h.585c-.083-.122-.123-.258-.123-.42 0-.545.394-.966.897-.966.286 0 .518.124.72.382l-.325.503c-.11-.123-.23-.177-.368-.177-.163 0-.244.11-.244.313 0 .246.177.368.517.368h.448v.665zm-.42 9.626h-1.428l-.068-8.797h1.428l.068 8.796zM113.57 13.5c1.712-.026 2.977-1.236 2.977-2.936V6.716h1.44v2.27c.068.75.612 1.374 1.183 1.374h1.51v1.32h-1.414c-.53 0-.952-.286-1.265-.844-.135 2.12-1.55 3.63-3.533 3.793-.204-.273-.504-.653-.898-1.13z"/><path d="M127.83 11.68h-1.4c-.394.828-1.128 1.236-2.202 1.236-1.02 0-1.768-.408-2.243-1.237h-1.564v-1.32h1.21c0-1.577.952-2.556 2.49-2.556.8 0 1.44.27 1.916.802.448.49.68 1.074.68 1.754h1.114v1.32zm-2.542-1.32c0-.42-.122-.76-.354-1.02-.203-.23-.46-.34-.747-.34-.3 0-.544.11-.734.34-.203.245-.313.584-.313 1.02 0 .435.122.775.354 1.034.204.23.462.34.748.34.597 0 1.046-.49 1.046-1.374z"/><path d="M131.54 9.91c0 1.09-.638 1.77-1.82 1.77h-2.135v-1.32h1.604c.53 0 .923-.326.923-.938 0-.53 0-.98-.014-1.346-.015-.557-.015-1.02-.028-1.36h1.44c.015 2.148.03 3.21.03 3.195zm-2.08-4.295h-1.304V4.242h1.305v1.373zm1.973 0h-1.306V4.242h1.306v1.373zM140.025 11.68h-1.958c-.422 1.685-1.66 2.8-3.386 2.95-.203-.272-.502-.653-.883-1.13 1.237 0 2.312-.692 2.747-1.82h-.952c-1.346 0-2.27-1.143-2.27-2.435 0-1.536 1.142-2.556 2.54-2.556 1.483 0 2.34.842 2.34 2.147v1.523h1.822v1.32zm-2.842-5.806h-3.046l.395-.83h.72c-.094-.136-.148-.313-.148-.53 0-.666.49-1.21 1.142-1.21.354 0 .653.163.897.476l-.407.64c-.137-.15-.3-.232-.463-.232-.204 0-.313.136-.313.408 0 .218.258.45.652.45h.57v.828zm-.422 4.486c-.013-1.115-.013-1.727-.013-1.836 0-.3-.407-.83-.884-.83-.625 0-1.1.586-1.1 1.483 0 .652.46 1.183 1.032 1.183h.966z"/><path d="M146.17 9.123c0 1.577-.898 2.556-2.42 2.556h-3.998v-1.32h1.645c-.19-.394-.285-.802-.285-1.237 0-1.577.91-2.556 2.475-2.556.788 0 1.428.272 1.93.815.434.49.652 1.075.652 1.74zm-1.415.013c0-.42-.122-.775-.354-1.033-.203-.23-.46-.34-.747-.34-.313 0-.557.11-.747.34-.204.258-.3.598-.3 1.033 0 .42.123.775.353 1.033.203.23.462.34.747.34.6 0 1.048-.504 1.048-1.374z"/></g></svg>