<?xml version="1.0" encoding="utf-8"?>
<!-- Generator: Adobe Illustrator 21.0.0, SVG Export Plug-In . SVG Version: 6.00 Build 0)  -->
<svg version="1.1" id="Layer_1" xmlns="http://www.w3.org/2000/svg" xmlns:xlink="http://www.w3.org/1999/xlink" x="0px" y="0px"
	 viewBox="0 0 73.3 73.4" style="enable-background:new 0 0 73.3 73.4;" xml:space="preserve">
<style type="text/css">
	.st0{fill:#24ABE2;}
	.st1{fill:url(#SVGID_1_);}
	.st2{fill:url(#SVGID_2_);}
	.st3{enable-background:new    ;}
	.st4{fill:#22205F;}
	.st5{fill:#D4EFFC;}
</style>
<title>qualys-md-icon</title>
<rect class="st0" width="73.3" height="73.3"/>
<linearGradient id="SVGID_1_" gradientUnits="userSpaceOnUse" x1="1497.2601" y1="-2053.0999" x2="1497.2601" y2="-2002.6998" gradientTransform="matrix(1 0 0 1 -1460.6101 2053.0999)">
	<stop  offset="0" style="stop-color:#00AEEF"/>
	<stop  offset="1" style="stop-color:#007EB5"/>
</linearGradient>
<path class="st1" d="M0,0h73.2l0.1,41.7c0,4.8-4,8.7-8.8,8.7H8.8C4,50.4,0,46.5,0,41.7l0,0V0L0,0z"/>
<linearGradient id="SVGID_2_" gradientUnits="userSpaceOnUse" x1="1497.2601" y1="-1979.8799" x2="1497.2601" y2="-2030.8601" gradientTransform="matrix(1 0 0 1 -1460.6101 2053.0999)">
	<stop  offset="0" style="stop-color:#00AEEF"/>
	<stop  offset="1" style="stop-color:#007EB5"/>
</linearGradient>
<path class="st2" d="M0,37.6c43.9,6.8,73.2-15.3,73.2-15.3l0.1,51.1H0V37.6L0,37.6z"/>
<g class="st3">
	<path class="st4" d="M24.8,44l-4.5-14.6h-0.1c0.2,3,0.2,4.9,0.2,5.9V44h-3.6V25.5h5.4l4.4,14.2h0.1l4.7-14.2h5.4V44h-3.7v-8.8
		c0-0.4,0-0.9,0-1.4c0-0.5,0.1-2,0.2-4.3h-0.1L28.5,44H24.8z"/>
</g>
<g class="st3">
	<path class="st4" d="M57,34.6c0,3.1-0.9,5.4-2.6,7c-1.8,1.6-4.3,2.4-7.6,2.4h-5.3V25.5h5.9c3.1,0,5.4,0.8,7.1,2.4S57,31.7,57,34.6z
		 M52.9,34.7c0-4-1.8-6-5.3-6h-2.1v12.1h1.7C50.9,40.8,52.9,38.8,52.9,34.7z"/>
</g>
<g class="st3">
	<path class="st5" d="M57,35.7c0,3.1-0.9,5.4-2.6,7c-1.8,1.6-4.3,2.4-7.6,2.4h-5.3V26.6h5.9c3.1,0,5.4,0.8,7.1,2.4S57,32.8,57,35.7z
		 M52.9,35.8c0-4-1.8-6-5.3-6h-2.1v12.1h1.7C50.9,41.9,52.9,39.9,52.9,35.8z"/>
</g>
<g class="st3">
	<path class="st5" d="M24.8,45.1l-4.5-14.6h-0.1c0.2,3,0.2,4.9,0.2,5.9V45h-3.6V26.6h5.4l4.4,14.2h0.1l4.7-14.2h5.4v18.6h-3.7v-8.8
		c0-0.4,0-0.9,0-1.4s0.1-2,0.2-4.3h-0.1l-4.8,14.5L24.8,45.1L24.8,45.1z"/>
</g>
</svg>
