<?xml version="1.0" encoding="utf-8"?>
<!-- Generator: Adobe Illustrator 21.0.0, SVG Export Plug-In . SVG Version: 6.00 Build 0)  -->
<svg version="1.1" id="Layer_1" xmlns="http://www.w3.org/2000/svg" xmlns:xlink="http://www.w3.org/1999/xlink" x="0px" y="0px"
	 viewBox="0 0 73.3 73.4" style="enable-background:new 0 0 73.3 73.4;" xml:space="preserve">
<style type="text/css">
	.st0{fill:#24ABE2;}
	.st1{fill:url(#SVGID_1_);}
	.st2{fill:url(#SVGID_2_);}
	.st3{enable-background:new    ;}
	.st4{fill:#22205F;}
	.st5{fill:#E3F3FB;}
</style>
<title>qualys-av-icon</title>
<rect class="st0" width="73.3" height="73.3"/>
<linearGradient id="SVGID_1_" gradientUnits="userSpaceOnUse" x1="1017.76" y1="-1660.0999" x2="1017.76" y2="-1609.6998" gradientTransform="matrix(1 0 0 1 -981.11 1660.0999)">
	<stop  offset="0" style="stop-color:#19569C"/>
	<stop  offset="0.18" style="stop-color:#135FA5"/>
	<stop  offset="0.66" style="stop-color:#0571B7"/>
	<stop  offset="1" style="stop-color:#0078BE"/>
</linearGradient>
<path class="st1" d="M0,0h73.2l0.1,41.7c0,4.8-4,8.7-8.8,8.7H8.8C4,50.4,0,46.5,0,41.7l0,0V0z"/>
<linearGradient id="SVGID_2_" gradientUnits="userSpaceOnUse" x1="1017.76" y1="-1586.76" x2="1017.76" y2="-1637.86" gradientTransform="matrix(1 0 0 1 -981.11 1660.0999)">
	<stop  offset="0" style="stop-color:#19569C"/>
	<stop  offset="1" style="stop-color:#0078BE"/>
</linearGradient>
<path class="st2" d="M0,37.6c43.9,6.8,73.2-15.3,73.2-15.3l0.1,51.1H0V37.6z"/>
<g class="st3">
	<path class="st4" d="M33.2,44l-1.3-4.4h-6.8L23.8,44h-4.2l6.6-18.6h4.8L37.5,44H33.2z M31,36.3c-1.2-4-1.9-6.3-2.1-6.8
		s-0.3-0.9-0.3-1.2c-0.3,1.1-1.1,3.8-2.4,8H31z"/>
</g>
<g class="st3">
	<path class="st4" d="M49.9,25.5h4L47.5,44h-4.3L37,25.5h4l3.5,11c0.2,0.7,0.4,1.4,0.6,2.3c0.2,0.9,0.3,1.5,0.4,1.8
		c0.1-0.8,0.4-2.1,1-4.1L49.9,25.5z"/>
</g>
<g class="st3">
	<path class="st5" d="M33.2,45.1l-1.3-4.4h-6.8l-1.3,4.4h-4.2l6.6-18.6H31l6.6,18.6H33.2z M31,37.4c-1.2-4-1.9-6.3-2.1-6.8
		s-0.3-0.9-0.3-1.2c-0.3,1.1-1.1,3.8-2.4,8H31z"/>
</g>
<g class="st3">
	<path class="st5" d="M49.9,26.6h4l-6.3,18.6h-4.3L37,26.6h4l3.5,11c0.2,0.7,0.4,1.4,0.6,2.3c0.2,0.9,0.3,1.5,0.4,1.8
		c0.1-0.8,0.4-2.1,1-4.1L49.9,26.6z"/>
</g>
</svg>
