<?xml version="1.0" encoding="utf-8"?>
<!-- Generator: Adobe Illustrator 21.0.0, SVG Export Plug-In . SVG Version: 6.00 Build 0)  -->
<svg version="1.1" id="Layer_1" xmlns="http://www.w3.org/2000/svg" xmlns:xlink="http://www.w3.org/1999/xlink" x="0px" y="0px"
	 viewBox="0 0 73.3 73.4" style="enable-background:new 0 0 73.3 73.4;" xml:space="preserve">
<style type="text/css">
	.st0{fill:#24ABE2;}
	.st1{fill:url(#SVGID_1_);}
	.st2{fill:url(#SVGID_2_);}
	.st3{enable-background:new    ;}
	.st4{fill:#22205F;}
	.st5{fill:#E3F3FB;}
</style>
<title>qualys-vm-icon</title>
<rect class="st0" width="73.3" height="73.3"/>
<linearGradient id="SVGID_1_" gradientUnits="userSpaceOnUse" x1="937.5599" y1="1880.0999" x2="937.5599" y2="1829.6998" gradientTransform="matrix(1 0 0 -1 -900.91 1880.0999)">
	<stop  offset="0" style="stop-color:#19569C"/>
	<stop  offset="0.18" style="stop-color:#135FA5"/>
	<stop  offset="0.66" style="stop-color:#0571B7"/>
	<stop  offset="1" style="stop-color:#0078BE"/>
</linearGradient>
<path class="st1" d="M0,0h73.2l0.1,41.7c0,4.8-4,8.7-8.8,8.7H8.8C4,50.4,0,46.5,0,41.7l0,0L0,0z"/>
<linearGradient id="SVGID_2_" gradientUnits="userSpaceOnUse" x1="937.5599" y1="1806.76" x2="937.5599" y2="1857.86" gradientTransform="matrix(1 0 0 -1 -900.91 1880.0999)">
	<stop  offset="0" style="stop-color:#19569C"/>
	<stop  offset="1" style="stop-color:#0078BE"/>
</linearGradient>
<path class="st2" d="M0,37.6c43.9,6.8,73.2-15.3,73.2-15.3l0.1,51.1H0V37.6z"/>
<g class="st3">
	<path class="st4" d="M29.2,25.5h4L26.8,44h-4.3l-6.4-18.6h4l3.5,11c0.2,0.7,0.4,1.4,0.6,2.3c0.2,0.9,0.3,1.5,0.4,1.8
		c0.1-0.8,0.4-2.1,1-4.1L29.2,25.5z"/>
</g>
<g class="st3">
	<path class="st4" d="M42.9,44l-4.5-14.6h-0.1c0.2,3,0.2,4.9,0.2,5.9V44H35V25.5h5.4l4.4,14.2h0.1l4.7-14.2h5.4V44h-3.7v-8.8
		c0-0.4,0-0.9,0-1.4c0-0.5,0.1-2,0.2-4.3h-0.1L46.6,44H42.9z"/>
</g>
<g class="st3">
	<path class="st5" d="M29.2,26.6h4l-6.4,18.6h-4.3l-6.4-18.6h4l3.5,11c0.2,0.7,0.4,1.4,0.6,2.3c0.2,0.9,0.3,1.5,0.4,1.8
		c0.1-0.8,0.4-2.1,1-4.1L29.2,26.6z"/>
</g>
<g class="st3">
	<path class="st5" d="M42.9,45.1l-4.5-14.6h-0.1c0.2,3,0.2,4.9,0.2,5.9v8.6H35V26.6h5.4l4.4,14.2h0.1l4.7-14.2h5.4v18.6h-3.7v-8.8
		c0-0.4,0-0.9,0-1.4c0-0.5,0.1-2,0.2-4.3h-0.1l-4.8,14.5H42.9z"/>
</g>
</svg>
