<?xml version="1.0" encoding="utf-8"?>
<!-- Generator: Adobe Illustrator 21.0.0, SVG Export Plug-In . SVG Version: 6.00 Build 0)  -->
<svg version="1.1" id="Layer_1" xmlns="http://www.w3.org/2000/svg" xmlns:xlink="http://www.w3.org/1999/xlink" x="0px" y="0px"
	 viewBox="0 0 73.3 73.4" style="enable-background:new 0 0 73.3 73.4;" xml:space="preserve">
<style type="text/css">
	.st0{fill:#24ABE2;}
	.st1{fill:url(#SVGID_1_);}
	.st2{fill:url(#SVGID_2_);}
	.st3{enable-background:new    ;}
	.st4{fill:#346734;}
	.st5{fill:#E0EFD4;}
</style>
<title>qualys-saq-icon</title>
<rect class="st0" width="73.3" height="73.3"/>
<linearGradient id="SVGID_1_" gradientUnits="userSpaceOnUse" x1="570.66" y1="2273.0999" x2="570.66" y2="2222.7" gradientTransform="matrix(1 0 0 -1 -534.01 2273.0999)">
	<stop  offset="0" style="stop-color:#60BC57"/>
	<stop  offset="1" style="stop-color:#589734"/>
</linearGradient>
<path class="st1" d="M0,0h73.2l0.1,41.7c0,4.8-4,8.7-8.8,8.7H8.8C4,50.4,0,46.5,0,41.7l0,0V0z"/>
<linearGradient id="SVGID_2_" gradientUnits="userSpaceOnUse" x1="570.66" y1="2199.8799" x2="570.66" y2="2250.8601" gradientTransform="matrix(1 0 0 -1 -534.01 2273.0999)">
	<stop  offset="0" style="stop-color:#60BC57"/>
	<stop  offset="1" style="stop-color:#589734"/>
</linearGradient>
<path class="st2" d="M0,37.6c43.9,6.8,73.2-15.3,73.2-15.3l0.1,51.1H0V37.6z"/>
<g class="st3">
	<path class="st4" d="M24.5,38.9c0,1.7-0.6,3-1.8,4s-2.9,1.4-5,1.4c-2,0-3.7-0.4-5.3-1.1v-3.7c1.3,0.6,2.3,1,3.2,1.2S17.3,41,18,41
		c0.9,0,1.5-0.2,2-0.5s0.7-0.8,0.7-1.5c0-0.4-0.1-0.7-0.3-1c-0.2-0.3-0.5-0.6-0.9-0.8s-1.2-0.7-2.4-1.3c-1.1-0.5-2-1-2.6-1.5
		s-1-1.1-1.4-1.7s-0.5-1.4-0.5-2.3c0-1.6,0.6-2.9,1.7-3.9s2.7-1.4,4.6-1.4c1,0,1.9,0.1,2.8,0.3s1.8,0.5,2.7,1l-1.3,3.1
		c-1-0.4-1.8-0.7-2.5-0.9s-1.3-0.2-1.9-0.2c-0.7,0-1.3,0.2-1.7,0.5s-0.6,0.8-0.6,1.4c0,0.3,0.1,0.6,0.2,0.9c0.2,0.3,0.4,0.5,0.8,0.8
		c0.4,0.2,1.2,0.7,2.5,1.3c1.7,0.8,2.9,1.7,3.6,2.5C24.2,36.7,24.5,37.7,24.5,38.9z"/>
</g>
<g class="st3">
	<path class="st4" d="M39,44l-1.3-4.4h-6.8L29.5,44h-4.2l6.6-18.6h4.8L43.2,44H39z M36.7,36.3c-1.2-4-1.9-6.3-2.1-6.8
		s-0.3-0.9-0.3-1.2c-0.3,1.1-1.1,3.8-2.4,8H36.7z"/>
</g>
<g class="st3">
	<path class="st4" d="M61.6,34.9c0,2.2-0.4,4-1.2,5.5c-0.8,1.5-1.9,2.6-3.4,3.2l4.5,5h-5L53,44.5h-0.3c-2.8,0-5-0.8-6.6-2.5
		s-2.3-4-2.3-7.1s0.8-5.4,2.3-7.1c1.5-1.6,3.7-2.4,6.6-2.4c2.9,0,5,0.8,6.5,2.5S61.6,31.8,61.6,34.9z M48,34.9
		c0,2.1,0.4,3.6,1.2,4.7s2,1.6,3.5,1.6c3.1,0,4.7-2.1,4.7-6.3c0-4.2-1.6-6.3-4.7-6.3c-1.6,0-2.7,0.5-3.5,1.6
		C48.4,31.3,48,32.9,48,34.9z"/>
</g>
<g class="st3">
	<path class="st5" d="M39,45.1l-1.3-4.4h-6.8l-1.3,4.4h-4.2l6.6-18.6h4.8l6.6,18.6H39z M36.7,37.4c-1.2-4-1.9-6.3-2.1-6.8
		s-0.3-0.9-0.3-1.2c-0.3,1.1-1.1,3.8-2.4,8H36.7z"/>
</g>
<g class="st3">
	<path class="st5" d="M61.6,35.8c0,2.2-0.4,4-1.2,5.5c-0.8,1.5-1.9,2.6-3.4,3.2l4.5,5h-5L53,45.4h-0.3c-2.8,0-5-0.8-6.6-2.5
		s-2.3-4-2.3-7.1c0-3.1,0.8-5.4,2.3-7.1c1.5-1.6,3.7-2.4,6.6-2.4c2.9,0,5,0.8,6.5,2.5S61.6,32.8,61.6,35.8z M48,35.8
		c0,2.1,0.4,3.6,1.2,4.7s2,1.6,3.5,1.6c3.1,0,4.7-2.1,4.7-6.3c0-4.2-1.6-6.3-4.7-6.3c-1.6,0-2.7,0.5-3.5,1.6
		C48.4,32.2,48,33.8,48,35.8z"/>
</g>
<g class="st3">
	<path class="st5" d="M24.5,40c0,1.7-0.6,3-1.8,4s-2.9,1.4-5,1.4c-2,0-3.7-0.4-5.3-1.1v-3.7c1.3,0.6,2.3,1,3.2,1.2s1.7,0.3,2.4,0.3
		c0.9,0,1.5-0.2,2-0.5s0.7-0.8,0.7-1.5c0-0.4-0.1-0.7-0.3-1c-0.2-0.3-0.5-0.6-0.9-0.8s-1.2-0.7-2.4-1.3c-1.1-0.5-2-1-2.6-1.5
		s-1-1.1-1.4-1.7s-0.5-1.4-0.5-2.3c0-1.6,0.6-2.9,1.7-3.9s2.7-1.4,4.6-1.4c1,0,1.9,0.1,2.8,0.3s1.8,0.5,2.7,1l-1.3,3.1
		c-1-0.4-1.8-0.7-2.5-0.9s-1.3-0.2-1.9-0.2c-0.7,0-1.3,0.2-1.7,0.5s-0.6,0.8-0.6,1.4c0,0.3,0.1,0.6,0.2,0.9c0.2,0.3,0.4,0.5,0.8,0.8
		c0.4,0.2,1.2,0.7,2.5,1.3c1.7,0.8,2.9,1.7,3.6,2.5C24.2,37.8,24.5,38.8,24.5,40z"/>
</g>
</svg>
