<svg xmlns="http://www.w3.org/2000/svg" xmlns:xlink="http://www.w3.org/1999/xlink" viewBox="0 0 26.9 26.9"><radialGradient id="a" cx="37.702" cy="370.987" r="13.471" gradientTransform="rotate(37.88 546.514 156.937)" gradientUnits="userSpaceOnUse"><stop offset="0" stop-color="#FFF" stop-opacity=".5"/><stop offset=".023" stop-color="#FDF2F2" stop-opacity=".51"/><stop offset=".123" stop-color="#F4BBBD" stop-opacity=".553"/><stop offset=".224" stop-color="#EC8C8F" stop-opacity=".596"/><stop offset=".325" stop-color="#E5656A" stop-opacity=".639"/><stop offset=".423" stop-color="#E0474D" stop-opacity=".681"/><stop offset=".52" stop-color="#DD3239" stop-opacity=".722"/><stop offset=".614" stop-color="#DB252C" stop-opacity=".762"/><stop offset=".702" stop-color="#DA2128" stop-opacity=".8"/><stop offset=".704" stop-color="#DB2529" stop-opacity=".795"/><stop offset=".74" stop-color="#E26249" stop-opacity=".699"/><stop offset=".776" stop-color="#E8896E" stop-opacity=".601"/><stop offset=".813" stop-color="#EEAA92" stop-opacity=".502"/><stop offset=".85" stop-color="#F3C6B5" stop-opacity=".403"/><stop offset=".887" stop-color="#F8DDD1" stop-opacity=".304"/><stop offset=".924" stop-color="#FCEEE8" stop-opacity=".204"/><stop offset=".962" stop-color="#FEF9F7" stop-opacity=".103"/><stop offset="1" stop-color="#FFF" stop-opacity="0"/></radialGradient><circle fill="url(#a)" cx="13.5" cy="13.5" r="13.5"/><g><defs><path id="b" d="M9.6 14.5V9.8s1.6-1.2 3.8-1.2c2.3 0 3.9 1.2 3.9 1.2v4.7c0 2.6-3.9 3.7-3.9 3.7s-3.8-1.1-3.8-3.7m-1-5.4v5.7c0 3.1 4.8 4.5 4.8 4.5s4.9-1.5 4.9-4.5V9.1s-2-1.4-4.9-1.4c-2.8-.1-4.8 1.4-4.8 1.4"/></defs><clipPath id="c"><use xlink:href="#b" overflow="visible"/></clipPath><linearGradient id="d" gradientUnits="userSpaceOnUse" x1="-23.776" y1="332.68" x2="-23.672" y2="332.68" gradientTransform="scale(51.3058) rotate(54 -338.434 -142.7)"><stop offset="0" stop-color="#6B6466"/><stop offset=".142" stop-color="#635D5E"/><stop offset=".284" stop-color="#575354"/><stop offset=".427" stop-color="#4A4748"/><stop offset=".57" stop-color="#3A3839"/><stop offset=".714" stop-color="#272526"/><stop offset=".857" stop-color="#0D0C0D"/><stop offset="1"/></linearGradient><path clip-path="url(#c)" fill="url(#d)" d="M15 3l8.9 12.3L12 24 3 11.7"/><g><path fill="#5C5353" d="M8.6 9.1s2-1.4 4.8-1.4 4.9 1.4 4.9 1.4l-1 .7s-1.6-1.2-3.9-1.2-3.9 1.2-3.9 1.2l-.9-.7z"/><path fill="#231F20" d="M9.1 9.4s1.8-1.3 4.4-1.3c2.5 0 4.4 1.3 4.4 1.3l-.1 5.4c0 1.1-.8 1.9-1.5 2.5-1.3 1.1-2.8 1.5-2.8 1.5s-1.4-.5-2.6-1.3c-1-.7-1.8-1.7-1.8-2.7V9.4zm.5.4v4.7c0 2.6 3.8 3.8 3.8 3.8s3.9-1.2 3.9-3.7V9.9s-1.6-1.2-3.9-1.2c-2.2-.1-3.8 1.1-3.8 1.1"/><path fill="#DC2326" d="M9.6 14.5V9.8s1.6-1.2 3.8-1.2c2.3 0 3.9 1.2 3.9 1.2v4.7c0 2.6-3.9 3.7-3.9 3.7s-3.8-1.1-3.8-3.7"/><path fill="#DC2326" d="M16.1 11c.2.4.4.9.4 1.5 0 1.3-.8 2.3-2 2.7 0 0 .1 0 .1.1 1.2-.4 2-1.4 2-2.7-.1-.6-.2-1.1-.5-1.6"/><path fill="#DB2326" d="M16.5 12.6c0-.6-.1-1.1-.4-1.6.3.4.4 1 .4 1.6-.1 1.2-.8 2.2-2.1 2.6 0 0 .1 0 .1.1 1.3-.4 2-1.4 2-2.7"/><path fill="#DA2326" d="M16.5 12.6c0-.6-.1-1.1-.4-1.6.3.4.4 1 .4 1.6-.1 1.2-.8 2.2-2.1 2.6 0 0 .1 0 .1.1 1.3-.4 2-1.4 2-2.7"/><path fill="#D82326" d="M16.5 12.6c0-.6-.1-1.1-.4-1.6.3.4.4 1 .4 1.6-.1 1.2-.8 2.2-2.1 2.6 0 0 .1 0 .1.1 1.3-.4 2-1.4 2-2.7"/><path fill="#D72326" d="M16.5 12.6c0-.6-.2-1.1-.4-1.6.3.4.4 1 .4 1.6-.1 1.2-.8 2.2-2.1 2.6 0 0 .1 0 .1.1 1.3-.4 2-1.4 2-2.7"/><path fill="#D62326" d="M16.5 12.6c0-.6-.2-1.1-.4-1.6.3.4.4 1 .4 1.6-.1 1.2-.8 2.2-2.1 2.6 0 0 .1 0 .1.1 1.3-.4 2-1.4 2-2.7"/><path fill="#D52326" d="M16.5 12.6c0-.6-.1-1.1-.4-1.6.3.4.4 1 .4 1.6-.1 1.2-.8 2.2-2.1 2.6 0 0 .1 0 .1.1 1.3-.4 2-1.4 2-2.7"/><path fill="#D42326" d="M16.5 12.6c0-.6-.1-1.1-.4-1.6.3.4.4 1 .4 1.6-.1 1.2-.8 2.2-2.1 2.6 0 0 .1 0 .1.1 1.3-.4 2-1.4 2-2.7"/><path fill="#D32326" d="M16.5 12.6c0-.6-.1-1.1-.4-1.6.3.4.4 1 .4 1.6-.1 1.2-.8 2.2-2.1 2.6 0 0 .1 0 .1.1 1.3-.4 2-1.4 2-2.7"/><path fill="#D12326" d="M16.5 12.6c0-.6-.1-1.1-.4-1.6.3.4.4 1 .4 1.6-.1 1.2-.8 2.2-2.1 2.6 0 0 .1 0 .1.1 1.3-.4 2-1.4 2-2.7"/><path fill="#D02326" d="M16.5 12.6c0-.6-.2-1.1-.4-1.6.3.4.4 1 .4 1.6-.1 1.2-.8 2.2-2.1 2.6 0 0 .1 0 .1.1 1.3-.4 2-1.4 2-2.7"/><path fill="#CF2326" d="M16.5 12.6c0-.6-.2-1.1-.4-1.6.3.4.4.9.4 1.6-.1 1.2-.8 2.2-2.1 2.6 0 0 .1 0 .1.1 1.3-.4 2-1.4 2-2.7"/><path fill="#CE2326" d="M16.5 12.6c0-.6-.2-1.1-.4-1.6.3.4.4.9.4 1.6-.1 1.2-.8 2.2-2.1 2.6 0 0 .1 0 .1.1 1.3-.4 2-1.4 2-2.7"/><path fill="#CD2325" d="M16.5 12.6c0-.6-.2-1.1-.4-1.6.3.4.4.9.4 1.6-.1 1.2-.8 2.2-2.1 2.6 0 0 .1 0 .1.1 1.3-.4 2-1.4 2-2.7"/><path fill="#CC2325" d="M16.5 12.6c0-.6-.2-1.1-.4-1.6.3.4.4.9.4 1.6-.1 1.2-.8 2.2-2.1 2.6 0 0 .1 0 .1.1 1.3-.4 2-1.4 2-2.7"/><path fill="#CB2325" d="M16.5 12.6c0-.6-.1-1.1-.4-1.6.3.4.4.9.4 1.6-.1 1.2-.8 2.2-2.1 2.6 0 0 .1 0 .1.1 1.3-.4 2-1.4 2-2.7"/><path fill="#CA2325" d="M16.5 12.6c0-.6-.2-1.1-.4-1.6.3.4.4.9.4 1.6-.1 1.2-.8 2.2-2.1 2.6 0 0 .1 0 .1.1 1.3-.4 2-1.4 2-2.7"/><path fill="#C92325" d="M16.5 12.6c0-.6-.2-1.1-.4-1.6.3.4.4.9.4 1.6-.1 1.2-.8 2.2-2.1 2.6 0 0 .1 0 .1.1 1.3-.4 2-1.4 2-2.7"/><path fill="#C82325" d="M16.5 12.6c0-.6-.1-1.1-.4-1.6.3.4.4.9.4 1.6-.1 1.2-.8 2.2-2.1 2.6 0 0 .1 0 .1.1 1.3-.4 2-1.4 2-2.7"/><path fill="#C62325" d="M16.5 12.6c0-.6-.1-1.1-.4-1.6.3.4.4.9.4 1.6-.1 1.2-.8 2.2-2.1 2.6 0 0 .1 0 .1.1 1.3-.4 2-1.4 2-2.7"/><path fill="#C62325" d="M16.5 12.6c0-.6-.1-1.1-.4-1.6.3.4.4.9.4 1.6-.1 1.2-.8 2.2-2.1 2.6 0 0 .1 0 .1.1 1.3-.4 2-1.4 2-2.7"/><path fill="#C42325" d="M16.5 12.6c0-.6-.1-1.1-.4-1.6.3.4.4.9.4 1.6-.1 1.2-.8 2.2-2.1 2.6 0 0 .1 0 .1.1 1.3-.4 2-1.4 2-2.7"/><path fill="#C32325" d="M16.5 12.6c0-.6-.2-1.1-.4-1.6.3.4.4.9.4 1.6-.1 1.2-.8 2.2-2.1 2.6 0 0 .1 0 .1.1 1.3-.4 2-1.4 2-2.7"/><path fill="#C22325" d="M16.5 12.6c0-.6-.2-1.1-.4-1.6.3.4.4.9.4 1.6-.1 1.2-.8 2.2-2.1 2.6 0 0 .1 0 .1.1 1.3-.4 2-1.4 2-2.7"/><path fill="#C12325" d="M16.5 12.6c0-.6-.1-1.1-.4-1.6.3.4.4.9.4 1.6-.1 1.2-.8 2.2-2.1 2.6 0 0 .1 0 .1.1 1.3-.4 2-1.4 2-2.7"/><path fill="#C02325" d="M16.5 12.6c0-.6-.2-1.1-.4-1.6.3.4.4.9.4 1.6-.1 1.2-.8 2.2-2.1 2.6 0 0 .1 0 .1.1 1.3-.4 2-1.4 2-2.7"/><path fill="#BF2325" d="M16.5 12.6c0-.6-.2-1.1-.4-1.6.3.4.4.9.4 1.6-.1 1.2-.8 2.2-2.1 2.6 0 0 .1 0 .1.1 1.3-.4 2-1.4 2-2.7"/><path fill="#BE2325" d="M16.5 12.6c0-.6-.2-1.1-.4-1.6.3.4.4.9.4 1.6-.1 1.2-.8 2.2-2.1 2.6 0 0 .1 0 .1.1 1.3-.4 2-1.4 2-2.7"/><path fill="#BD2324" d="M16.5 12.6c0-.6-.2-1.1-.4-1.6.3.4.4.9.4 1.6-.1 1.2-.8 2.2-2.1 2.6 0 0 .1 0 .1.1 1.3-.4 2-1.4 2-2.7"/><path fill="#BC2324" d="M16.5 12.6c0-.6-.2-1.1-.4-1.6.3.4.4.9.4 1.6-.1 1.2-.8 2.2-2.1 2.6 0 0 .1 0 .1.1 1.3-.4 2-1.4 2-2.7"/><path fill="#BB2324" d="M16.5 12.6c0-.6-.1-1.1-.4-1.6.3.4.4.9.4 1.6-.1 1.2-.8 2.2-2.1 2.6 0 0 .1 0 .1.1 1.3-.4 2-1.4 2-2.7"/><path fill="#BA2324" d="M16.5 12.6c0-.6-.1-1.1-.4-1.6.3.4.4.9.4 1.6-.1 1.2-.8 2.2-2.1 2.6 0 0 .1 0 .1.1 1.3-.4 2-1.4 2-2.7"/><path fill="#B92324" d="M16.5 12.6c0-.6-.1-1.1-.4-1.6.3.4.4.9.4 1.6-.1 1.2-.8 2.2-2.1 2.6 0 0 .1 0 .1.1 1.3-.4 2-1.4 2-2.7"/><path fill="#B82324" d="M16.5 12.6c0-.6-.1-1.1-.4-1.6.3.4.4.9.4 1.6-.1 1.2-.8 2.2-2.1 2.6 0 0 .1 0 .1.1 1.3-.4 2-1.4 2-2.7"/><path fill="#B72324" d="M16.5 12.6c0-.6-.2-1.1-.4-1.6.3.4.4.9.4 1.6-.1 1.2-.8 2.2-2.1 2.6 0 0 .1 0 .1.1 1.3-.4 2-1.4 2-2.7"/><path fill="#B52324" d="M16.5 12.6c0-.6-.2-1.1-.4-1.6.3.4.4.9.4 1.6-.1 1.2-.8 2.2-2.1 2.6 0 0 .1 0 .1.1 1.3-.4 2-1.4 2-2.7"/><path fill="#B52324" d="M16.5 12.6c0-.6-.2-1.1-.4-1.6.3.4.4.9.4 1.6-.1 1.2-.8 2.2-2.1 2.6 0 0 .1 0 .1.1 1.3-.4 2-1.4 2-2.7"/><path fill="#B42324" d="M16.5 12.6c0-.6-.1-1.1-.4-1.6.3.4.4.9.4 1.6-.1 1.2-.8 2.2-2.1 2.6 0 0 .1 0 .1.1 1.3-.4 2-1.4 2-2.7"/><path fill="#B32324" d="M16.5 12.6c0-.6-.1-1.1-.4-1.6.3.4.4.9.4 1.6-.1 1.2-.8 2.2-2.1 2.6 0 0 .1 0 .1.1 1.3-.4 2-1.4 2-2.7"/><path fill="#B22223" d="M16.5 12.6c0-.6-.1-1.1-.4-1.6.3.4.4.9.4 1.6-.1 1.2-.8 2.2-2.1 2.6 0 0 .1 0 .1.1 1.3-.4 2-1.4 2-2.7"/><path fill="#B02223" d="M16.5 12.6c0-.6-.2-1.1-.4-1.6.2.4.4.9.4 1.6-.1 1.2-.8 2.2-2.1 2.6 0 0 .1 0 .1.1 1.3-.4 2-1.4 2-2.7"/><path fill="#AF2223" d="M16.5 12.6c0-.6-.2-1.1-.4-1.6.2.4.4.9.4 1.6-.1 1.2-.8 2.2-2.1 2.6 0 0 .1 0 .1.1 1.3-.4 2-1.4 2-2.7"/><path fill="#AE2223" d="M16.5 12.6c0-.6-.2-1.1-.4-1.6.2.4.4.9.4 1.6-.1 1.2-.8 2.2-2.1 2.6 0 0 .1 0 .1.1 1.3-.4 2-1.4 2-2.7"/><path fill="#AD2223" d="M16.5 12.6c0-.6-.1-1.1-.4-1.6.2.4.4.9.4 1.6-.1 1.2-.8 2.2-2.1 2.6 0 0 .1 0 .1.1 1.3-.4 2-1.4 2-2.7"/><path fill="#AD2223" d="M16.5 12.6c0-.6-.1-1.1-.4-1.6.2.4.4.9.4 1.6-.1 1.2-.8 2.2-2.1 2.6 0 0 .1 0 .1.1 1.3-.4 2-1.4 2-2.7"/><path fill="#AB2223" d="M16.5 12.6c0-.6-.1-1.1-.4-1.6.2.4.4.9.4 1.6-.1 1.2-.8 2.2-2.1 2.6 0 0 .1 0 .1.1 1.3-.4 2-1.4 2-2.7"/><path fill="#AA2223" d="M16.5 12.6c0-.6-.2-1.1-.4-1.6.2.4.4.9.4 1.6-.1 1.2-.8 2.2-2.1 2.6 0 0 .1 0 .1.1 1.3-.4 2-1.4 2-2.7"/><path fill="#A92223" d="M16.5 12.6c0-.6-.2-1.1-.4-1.6.2.4.4.9.4 1.6-.1 1.2-.8 2.2-2.1 2.6 0 0 .1 0 .1.1 1.3-.4 2-1.4 2-2.7"/><path fill="#A82222" d="M16.5 12.6c0-.6-.1-1.1-.4-1.6.2.4.4.9.4 1.6-.1 1.2-.8 2.2-2.1 2.6 0 0 .1 0 .1.1 1.3-.4 2-1.4 2-2.7"/><path fill="#A72222" d="M16.5 12.6c0-.6-.2-1.1-.4-1.6.2.4.4.9.4 1.6-.1 1.2-.8 2.2-2.1 2.6 0 0 .1 0 .1.1 1.3-.4 2-1.4 2-2.7"/><path fill="#A62122" d="M16.5 12.6c0-.6-.1-1.1-.4-1.6.2.4.4.9.4 1.6-.1 1.2-.8 2.2-2.1 2.6 0 0 .1 0 .1.1 1.3-.4 2-1.4 2-2.7"/><path fill="#A52222" d="M16.5 12.6c0-.6-.1-1.1-.4-1.6.2.4.4.9.4 1.6-.1 1.2-.8 2.2-2.1 2.6 0 0 .1 0 .1.1 1.3-.4 2-1.4 2-2.7"/><path fill="#A42122" d="M16.5 12.6c0-.6-.2-1.1-.4-1.6.2.4.4.9.4 1.6-.1 1.2-.8 2.2-2.1 2.6 0 0 .1 0 .1.1 1.3-.4 2-1.4 2-2.7"/><path fill="#A32122" d="M16.5 12.6c0-.6-.2-1.1-.4-1.6.2.4.4.9.4 1.6-.1 1.2-.8 2.2-2.1 2.6 0 0 .1 0 .1.1 1.3-.4 2-1.4 2-2.7"/><path fill="#A22122" d="M16.5 12.6c0-.6-.2-1.1-.4-1.6.2.4.4.9.4 1.6-.1 1.2-.8 2.2-2.1 2.6 0 0 .1 0 .1.1 1.3-.4 2-1.4 2-2.7"/><path fill="#A12122" d="M16.5 12.6c0-.6-.2-1.1-.4-1.6.2.4.4.9.4 1.6-.1 1.2-.8 2.2-2.1 2.6 0 0 .1 0 .1.1 1.3-.4 2-1.4 2-2.7"/><path fill="#A12121" d="M16.5 12.6c0-.6-.2-1.1-.4-1.6.2.4.4.9.4 1.6-.1 1.2-.8 2.2-2.1 2.6 0 0 .1 0 .1.1 1.3-.4 2-1.4 2-2.7"/><path fill="#9F2121" d="M16.5 12.6c0-.6-.2-1.1-.4-1.6.2.4.4.9.4 1.6-.1 1.2-.8 2.2-2.1 2.6 0 0 .1 0 .1.1 1.2-.4 2-1.4 2-2.7"/><path fill="#9E2121" d="M16.5 12.6c0-.6-.2-1.1-.4-1.6.2.4.4.9.4 1.6-.1 1.2-.8 2.2-2.1 2.6 0 0 .1 0 .1.1 1.2-.4 2-1.4 2-2.7"/><path fill="#9D2121" d="M16.5 12.6c0-.6-.2-1.1-.4-1.6.2.4.4.9.4 1.6-.1 1.2-.8 2.2-2.1 2.6 0 0 .1 0 .1.1 1.2-.4 2-1.4 2-2.7"/><path fill="#9C2121" d="M16.5 12.6c0-.6-.1-1.1-.4-1.6.2.4.4.9.4 1.6-.1 1.2-.8 2.2-2.1 2.6 0 0 .1 0 .1.1 1.2-.4 2-1.4 2-2.7"/><path fill="#9B2121" d="M16.5 12.6c0-.6-.1-1.1-.4-1.6.2.4.4.9.4 1.6-.1 1.2-.8 2.2-2.1 2.6 0 0 .1 0 .1.1 1.2-.4 2-1.4 2-2.7"/><path fill="#9B2021" d="M16.5 12.6c0-.6-.2-1.1-.4-1.6.2.4.4.9.4 1.6-.1 1.2-.8 2.2-2.1 2.6 0 0 .1 0 .1.1 1.2-.4 2-1.4 2-2.7"/><path fill="#992021" d="M16.5 12.6c0-.6-.1-1.1-.4-1.6.2.4.4.9.4 1.6-.1 1.2-.8 2.2-2.1 2.6 0 0 .1 0 .1.1 1.2-.4 2-1.4 2-2.7"/><path fill="#992020" d="M16.5 12.6c0-.6-.2-1.1-.4-1.6.2.4.4.9.4 1.6-.1 1.2-.8 2.2-2.1 2.6 0 0 .1 0 .1.1 1.2-.4 2-1.4 2-2.7"/><path fill="#982020" d="M16.5 12.6c0-.6-.2-1.1-.4-1.6.2.4.4.9.4 1.6-.1 1.2-.8 2.2-2.1 2.6 0 0 .1 0 .1.1 1.2-.4 2-1.4 2-2.7"/><path fill="#962020" d="M16.5 12.6c0-.6-.1-1.1-.4-1.6.2.4.4.9.4 1.6-.1 1.2-.8 2.2-2.1 2.6 0 0 .1 0 .1.1 1.2-.4 2-1.4 2-2.7"/><path fill="#962020" d="M16.5 12.6c0-.6-.2-1.1-.4-1.6.2.4.4.9.4 1.6-.1 1.2-.8 2.2-2.1 2.6 0 0 .1 0 .1.1 1.2-.4 2-1.4 2-2.7"/><path fill="#942020" d="M16.5 12.6c0-.6-.2-1.1-.4-1.6.2.4.4.9.4 1.6-.1 1.2-.8 2.2-2.1 2.6 0 0 .1 0 .1.1 1.2-.4 2-1.4 2-2.7"/><path fill="#942020" d="M16.5 12.6c0-.6-.2-1.1-.4-1.6.2.4.4.9.4 1.6-.1 1.2-.8 2.2-2.1 2.6 0 0 .1 0 .1.1 1.2-.4 2-1.4 2-2.7"/><path fill="#932020" d="M16.5 12.6c0-.6-.2-1.1-.4-1.6.2.4.4.9.4 1.6-.1 1.2-.8 2.2-2.1 2.6 0 0 .1 0 .1.1 1.2-.4 2-1.4 2-2.7"/><path fill="#921F1F" d="M16.5 12.6c0-.6-.2-1.1-.4-1.6.2.4.4.9.4 1.6-.1 1.2-.8 2.2-2.1 2.6 0 0 .1 0 .1.1 1.2-.4 2-1.4 2-2.7"/><path fill="#911F1F" d="M16.5 12.6c0-.6-.2-1.1-.4-1.6.2.4.4.9.4 1.6-.1 1.2-.8 2.2-2.1 2.6 0 0 .1 0 .1.1 1.2-.4 2-1.4 2-2.7"/><path fill="#901F1F" d="M16.5 12.6c0-.6-.1-1.1-.4-1.6.2.4.4.9.4 1.6-.1 1.2-.8 2.2-2.1 2.6 0 0 .1 0 .1.1 1.2-.4 2-1.4 2-2.7"/><path fill="#8F1F1F" d="M16.5 12.6c0-.6-.1-1.1-.4-1.6.2.4.4.9.4 1.6-.1 1.2-.8 2.2-2.1 2.6 0 0 .1 0 .1.1 1.2-.4 2-1.4 2-2.7"/><path fill="#8E1F1F" d="M16.5 12.6c0-.6-.2-1.1-.4-1.6.2.4.4.9.4 1.6-.1 1.2-.8 2.2-2.1 2.6 0 0 .1 0 .1.1 1.2-.4 2-1.4 2-2.7"/><path fill="#8D1F1F" d="M16.5 12.6c0-.6-.2-1.1-.4-1.6.2.4.4.9.4 1.6-.1 1.2-.8 2.2-2.1 2.6 0 0 .1 0 .1.1 1.2-.4 2-1.4 2-2.7"/><path fill="#8C1E1E" d="M16.5 12.6c0-.6-.2-1.1-.4-1.6.2.4.4.9.4 1.6-.1 1.2-.8 2.2-2.1 2.6 0 0 .1 0 .1.1 1.2-.4 2-1.4 2-2.7"/><path fill="#8B1E1E" d="M16.5 12.6c0-.6-.1-1.1-.4-1.6.2.4.4.9.4 1.6-.1 1.2-.8 2.2-2.1 2.6 0 0 .1 0 .1.1 1.2-.4 2-1.4 2-2.7"/><path fill="#8A1E1E" d="M16.5 12.6c0-.6-.1-1.1-.4-1.6.2.4.4.9.4 1.6-.1 1.2-.8 2.2-2.1 2.6 0 0 .1 0 .1.1 1.2-.4 2-1.4 2-2.7"/><path fill="#891E1E" d="M16.5 12.6c0-.6-.1-1.1-.4-1.6.2.4.4.9.4 1.6-.1 1.2-.8 2.2-2.1 2.6 0 0 .1 0 .1.1 1.2-.4 2-1.4 2-2.7"/><path fill="#881E1E" d="M16.5 12.6c0-.6-.1-1.1-.4-1.6.2.4.4.9.4 1.6-.1 1.2-.8 2.2-2.1 2.6 0 0 .1 0 .1.1 1.2-.4 2-1.4 2-2.7"/><path fill="#871E1E" d="M16.5 12.6c0-.6-.2-1.1-.4-1.6.2.4.4.9.4 1.6-.1 1.2-.8 2.2-2.1 2.6 0 0 .1 0 .1.1 1.2-.4 2-1.4 2-2.7"/><path fill="#861D1E" d="M16.5 12.6c0-.6-.2-1.1-.4-1.6.2.4.4.9.4 1.6-.1 1.2-.8 2.2-2.1 2.6 0 0 .1 0 .1.1 1.2-.4 2-1.4 2-2.7"/><path fill="#851D1D" d="M16.5 12.6c0-.6-.2-1.1-.4-1.6.2.4.4.9.4 1.6-.1 1.2-.8 2.2-2.1 2.6 0 0 .1 0 .1.1 1.2-.4 2-1.4 2-2.7"/><path fill="#841D1D" d="M16.1 11c.2.4.4.9.4 1.5 0 1.3-.8 2.3-2 2.7 0 0 .1 0 .1.1 1.2-.4 2-1.4 2-2.7-.1-.6-.2-1.2-.5-1.6"/><path fill="#DC2326" d="M16 16.1c-.4.1-.7.2-1.1.5l-1.2-.9-.3-.2c-.6 0-1.1-.1-1.5-.3-.4-.2-.8-.5-1-1 .2.5.6.8 1 1 .4.2 1 .4 1.6.4 0 0 1.1.8 1.5 1.1h.1c.2-.3.6-.4.9-.6.1 0 0 0 0 0"/><path fill="#DB2326" d="M10.8 14.1c.2.5.6.8 1 1 .4.2 1 .4 1.6.4 0 0 1.1.8 1.5 1.1h.1c.3-.2.7-.4 1.1-.5 0 0 0-.1-.1-.1-.4.1-.7.2-1.1.5l-1.2-.9-.3-.2c-.6 0-1.1-.1-1.5-.3-.5-.3-.9-.6-1.1-1"/><path fill="#DA2326" d="M10.8 14.1c.2.5.6.8 1 1 .4.2 1 .4 1.6.4 0 0 1.1.8 1.5 1.1h.1c.3-.2.7-.4 1.1-.5 0 0 0-.1-.1-.1-.4.1-.7.2-1.1.5l-1.2-.9-.3-.2c-.6 0-1.1-.1-1.5-.3-.5-.3-.9-.6-1.1-1"/><path fill="#D82326" d="M10.8 14.1c.2.5.6.8 1 1 .4.2 1 .4 1.6.4 0 0 1.1.8 1.5 1.1h.1c.3-.2.7-.4 1.1-.5L16 16c-.4.1-.7.2-1.1.5l-1.2-.9-.3-.2c-.6 0-1.1-.1-1.5-.3-.5-.3-.9-.6-1.1-1"/><path fill="#D72326" d="M10.8 14.1c.2.5.6.8 1 1 .4.2 1 .4 1.6.4 0 0 1.1.8 1.5 1.1h.1c.3-.2.7-.4 1.1-.5L16 16c-.4.1-.7.2-1.1.5l-1.2-.9-.3-.2c-.6 0-1.1-.1-1.5-.3-.5-.3-.9-.6-1.1-1"/><path fill="#D62326" d="M10.8 14.1c.2.5.6.8 1 1 .4.2 1 .4 1.6.4 0 0 1.1.8 1.5 1.1h.1c.3-.2.7-.4 1.1-.5L16 16c-.4.1-.7.2-1.1.5l-1.2-.9-.3-.2c-.6 0-1.1-.1-1.5-.3-.5-.3-.9-.6-1.1-1"/><path fill="#D52326" d="M10.8 14.1c.2.5.6.8 1 1 .4.2 1 .4 1.6.4 0 0 1.1.8 1.5 1.1h.1c.3-.2.7-.4 1.1-.5L16 16c-.4.1-.7.2-1.1.4l-1.2-.9-.3-.2c-.6 0-1.1-.1-1.5-.3-.5-.2-.9-.5-1.1-.9"/><path fill="#D42326" d="M10.8 14.1c.2.5.6.8 1 1 .4.2 1 .4 1.6.4 0 0 1.1.8 1.5 1.1h.1c.3-.2.7-.4 1.1-.5L16 16c-.4.1-.7.2-1.1.5l-1.2-.9-.3-.2c-.6 0-1.1-.1-1.5-.3-.5-.3-.9-.6-1.1-1"/><path fill="#D32326" d="M10.8 14.1c.2.5.6.8 1 1 .4.2 1 .4 1.6.4 0 0 1.1.8 1.5 1.1h.1c.3-.2.7-.4 1.1-.5L16 16c-.4.1-.7.2-1.1.4l-1.2-.9-.3-.2c-.6 0-1.1-.1-1.5-.3-.5-.2-.9-.5-1.1-.9"/><path fill="#D12326" d="M10.8 14.1c.2.5.6.8 1 1 .4.2 1 .4 1.6.4 0 0 1.1.8 1.5 1.1h.1c.3-.2.7-.4 1.1-.5L16 16c-.4.1-.7.2-1.1.4l-1.2-.9-.3-.2c-.6 0-1.1-.1-1.5-.3-.5-.2-.9-.5-1.1-.9"/><path fill="#D02326" d="M10.8 14.1c.2.5.6.8 1 1 .4.2 1 .4 1.6.4 0 0 1.1.8 1.5 1.1h.1c.3-.2.7-.4 1.1-.5L16 16c-.4.1-.7.2-1.1.4l-1.2-.9-.3-.2c-.6 0-1.1-.1-1.5-.3-.5-.2-.9-.5-1.1-.9"/><path fill="#CF2326" d="M10.8 14.1c.2.5.6.8 1 1 .4.2 1 .4 1.6.4 0 0 1.1.8 1.5 1.1h.1c.3-.2.7-.4 1.1-.5L16 16c-.4.1-.7.2-1.1.4l-1.2-.9-.3-.2c-.6 0-1.1-.1-1.5-.3-.5-.2-.9-.5-1.1-.9"/><path fill="#CE2326" d="M10.8 14.1c.2.5.6.8 1 1 .4.2 1 .4 1.6.4 0 0 1.1.8 1.5 1.1h.1c.3-.2.7-.4 1.1-.5L16 16c-.4.1-.7.2-1.1.4l-1.2-.9-.3-.2c-.6 0-1.1-.1-1.5-.3-.5-.2-.9-.5-1.1-.9"/><path fill="#CD2325" d="M10.8 14.1c.2.5.6.8 1 1 .4.2 1 .4 1.6.4 0 0 1.1.8 1.5 1.1h.1c.3-.2.7-.4 1.1-.5L16 16c-.4.1-.7.2-1.1.4l-1.2-.9-.3-.2c-.6 0-1.1-.1-1.5-.3-.5-.2-.9-.5-1.1-.9"/><path fill="#CC2325" d="M10.8 14.1c.2.5.6.8 1 1 .4.2 1 .4 1.6.4 0 0 1.1.8 1.5 1.1h.1c.3-.2.7-.4 1.1-.5L16 16c-.4.1-.7.2-1.1.4l-1.2-.9-.3-.2c-.6 0-1.1-.1-1.5-.3-.5-.2-.9-.5-1.1-.9"/><path fill="#CB2325" d="M10.8 14.1c.2.5.6.8 1 1 .4.2 1 .4 1.6.4 0 0 1.1.8 1.5 1.1h.1c.3-.2.7-.4 1.1-.5L16 16c-.4.1-.7.2-1.1.4l-1.2-.9-.3-.2c-.6 0-1.1-.1-1.5-.3-.5-.2-.9-.5-1.1-.9"/><path fill="#CA2325" d="M10.8 14.1c.2.5.6.8 1 1 .4.2 1 .4 1.6.4 0 0 1.1.8 1.5 1.1h.1c.3-.2.7-.4 1.1-.5L16 16c-.4.1-.7.2-1.1.4l-1.2-.9-.3-.2c-.6 0-1.1-.1-1.5-.3-.5-.2-.9-.5-1.1-.9"/><path fill="#C92325" d="M10.8 14.1c.2.5.6.8 1 1 .4.2 1 .4 1.6.4 0 0 1.1.8 1.5 1.1h.1c.3-.2.7-.4 1.1-.5L16 16c-.4.1-.7.2-1.1.4l-1.2-.9-.3-.2c-.6 0-1.1-.1-1.5-.3-.5-.2-.9-.5-1.1-.9"/><path fill="#C82325" d="M10.8 14.1c.2.5.6.8 1 1 .4.2 1 .4 1.6.4 0 0 1.1.8 1.5 1.1h.1c.3-.2.7-.4 1.1-.5L16 16c-.4.1-.7.2-1.1.4l-1.2-.9-.3-.2c-.6 0-1.1-.1-1.5-.3-.5-.2-.9-.5-1.1-.9"/><path fill="#C62325" d="M10.8 14.1c.2.5.6.8 1 1 .4.2 1 .4 1.6.4 0 0 1.1.8 1.5 1.1h.1c.3-.2.7-.4 1.1-.5L16 16c-.4.1-.7.2-1.1.4l-1.2-.9-.3-.2c-.6 0-1.1-.1-1.5-.3-.5-.2-.9-.5-1.1-.9"/><path fill="#C62325" d="M10.8 14.1c.2.5.6.8 1 1 .4.2 1 .4 1.6.4 0 0 1.1.8 1.5 1.1h.1c.3-.2.7-.4 1.1-.5L16 16c-.4.1-.7.2-1.1.4l-1.2-.9-.3-.2c-.6 0-1.1-.1-1.5-.3-.5-.2-.9-.5-1.1-.9"/><path fill="#C42325" d="M10.8 14.1c.2.5.6.8 1 1 .4.2 1 .4 1.6.4 0 0 1.1.8 1.5 1.1h.1c.3-.2.7-.4 1.1-.5L16 16c-.4.1-.7.2-1.1.4l-1.2-.9-.3-.2c-.6 0-1.1-.1-1.5-.3-.5-.2-.9-.5-1.1-.9"/><path fill="#C32325" d="M10.8 14.1c.2.5.6.8 1 1 .4.2 1 .4 1.6.4 0 0 1.1.8 1.5 1.1h.1c.3-.2.7-.4 1.1-.5L16 16c-.4.1-.7.2-1.1.4l-1.2-.9-.3-.2c-.6 0-1.1-.1-1.5-.3-.5-.2-.9-.5-1.1-.9"/><path fill="#C22325" d="M10.8 14.1c.2.5.6.8 1 1 .4.2 1 .4 1.6.4 0 0 1.1.8 1.5 1.1h.1c.3-.2.7-.4 1.1-.5L16 16c-.4.1-.7.2-1.1.4l-1.2-.9-.3-.2c-.6 0-1.1-.1-1.5-.3-.5-.2-.9-.5-1.1-.9"/><path fill="#C12325" d="M10.8 14.1c.2.5.6.8 1 1 .4.2 1 .4 1.6.4 0 0 1.1.8 1.5 1.1h.1c.3-.2.7-.4 1.1-.5L16 16c-.4.1-.7.2-1.1.4l-1.2-.9-.3-.2c-.6 0-1.1-.1-1.5-.3-.5-.2-.9-.5-1.1-.9"/><path fill="#C02325" d="M10.8 14.1c.2.5.6.8 1 1 .4.2 1 .4 1.6.4 0 0 1.1.8 1.5 1.1.3-.2.7-.4 1.1-.5l-.1-.1c-.4.1-.7.2-1.1.4l-1.2-.9-.3-.2c-.6 0-1.1-.1-1.5-.3-.4-.2-.8-.5-1-.9"/><path fill="#BF2325" d="M10.8 14.1c.2.5.6.8 1 1 .4.2 1 .4 1.6.4 0 0 1.1.8 1.5 1.1.3-.2.7-.4 1.1-.5l-.1-.1c-.4.1-.7.2-1.1.4l-1.2-.9-.3-.2c-.6 0-1.1-.1-1.5-.3-.4-.2-.8-.5-1-.9"/><path fill="#BE2325" d="M10.8 14.1c.2.5.6.8 1 1 .4.2 1 .4 1.6.4 0 0 1.1.8 1.5 1.1.3-.2.7-.4 1.1-.5l-.1-.1c-.4.1-.7.2-1.1.4l-1.2-.9-.3-.2c-.6 0-1.1-.1-1.5-.3-.4-.2-.8-.5-1-.9"/><path fill="#BD2324" d="M10.8 14.1c.2.5.6.8 1 1 .4.2 1 .4 1.6.4 0 0 1.1.8 1.5 1.1.3-.2.7-.4 1.1-.5l-.1-.1c-.4.1-.7.2-1.1.4l-1.2-.9-.3-.2c-.6 0-1.1-.1-1.5-.3-.4-.2-.8-.5-1-.9"/><path fill="#BC2324" d="M10.8 14.1c.2.5.6.8 1 1 .4.2 1 .4 1.6.4 0 0 1.1.8 1.5 1.1.3-.2.7-.4 1.1-.5l-.1-.1c-.4.1-.7.2-1.1.4l-1.2-.9-.3-.2c-.6 0-1.1-.1-1.5-.3-.4-.2-.8-.5-1-.9"/><path fill="#BB2324" d="M10.8 14.1c.2.5.6.8 1 1 .4.2 1 .4 1.6.4 0 0 1.1.8 1.5 1.1.3-.2.7-.4 1.1-.5l-.1-.1c-.4.1-.7.2-1.1.4l-1.2-.9-.3-.2c-.6 0-1.1-.1-1.5-.3-.4-.2-.8-.5-1-.9"/><path fill="#BA2324" d="M10.8 14.1c.2.5.6.8 1 1 .4.2 1 .4 1.6.4 0 0 1.1.8 1.5 1.1.3-.2.7-.4 1.1-.5l-.1-.1c-.4.1-.7.2-1.1.4l-1.2-.9-.3-.2c-.6 0-1.1-.1-1.5-.3-.4-.2-.8-.5-1-.9"/><path fill="#B92324" d="M10.8 14.1c.2.5.6.8 1 1 .4.2 1 .4 1.6.4 0 0 1.1.8 1.5 1.1.3-.2.7-.4 1.1-.5l-.1-.1c-.4.1-.7.2-1.1.4l-1.2-.9-.3-.2c-.6 0-1.1-.1-1.5-.3-.4-.2-.8-.5-1-.9"/><path fill="#B82324" d="M10.8 14.1c.2.5.6.8 1 1 .4.2 1 .4 1.6.4 0 0 1.1.8 1.5 1.1.3-.2.7-.4 1.1-.5l-.1-.1c-.4.1-.7.2-1.1.4l-1.2-.9-.3-.2c-.6 0-1.1-.1-1.5-.3-.4-.2-.8-.5-1-.9"/><path fill="#B72324" d="M10.8 14.1c.2.5.6.8 1 1 .4.2 1 .4 1.6.4 0 0 1.1.8 1.5 1.1.3-.2.7-.4 1.1-.5l-.1-.1c-.4.1-.7.2-1.1.4l-1.2-.9-.3-.2c-.6 0-1.1-.1-1.5-.3-.4-.2-.8-.5-1-.9"/><path fill="#B52324" d="M10.8 14.1c.2.5.6.8 1 1 .4.2 1 .4 1.6.4 0 0 1.1.8 1.5 1.1.3-.2.7-.4 1.1-.5l-.1-.1c-.4.1-.7.2-1.1.4l-1.2-.9-.3-.2c-.6 0-1.1-.1-1.5-.3-.4-.2-.8-.5-1-.9"/><path fill="#B52324" d="M10.8 14.1c.2.5.6.8 1 1 .4.2 1 .4 1.6.4 0 0 1.1.8 1.5 1.1.3-.2.7-.4 1.1-.5l-.1-.1c-.4.1-.7.2-1.1.4l-1.2-.9-.3-.2c-.6 0-1.1-.1-1.5-.3-.4-.2-.8-.5-1-.9"/><path fill="#B42324" d="M10.8 14.1c.2.5.6.8 1 1 .4.2 1 .4 1.6.4 0 0 1.1.8 1.5 1.1.3-.2.7-.4 1.1-.5l-.1-.1c-.4.1-.7.2-1.1.4l-1.2-.9-.3-.2c-.6 0-1.1-.1-1.5-.3-.4-.2-.8-.5-1-.9"/><path fill="#B32324" d="M10.8 14.1c.2.5.6.8 1 1 .4.2 1 .4 1.6.4 0 0 1.1.8 1.5 1.1.3-.2.7-.4 1.1-.5h-.1c-.4.1-.7.2-1.1.4l-1.2-.9-.3-.2c-.6 0-1.1-.1-1.5-.3-.4-.3-.8-.6-1-1"/><path fill="#B22223" d="M10.8 14.1c.2.5.6.8 1 1 .4.2 1 .4 1.6.4 0 0 1.1.8 1.5 1.1.3-.2.7-.4 1.1-.5h-.1c-.4.1-.7.2-1.1.4l-1.2-.9-.3-.2c-.6 0-1.1-.1-1.5-.3-.4-.3-.8-.6-1-1"/><path fill="#B02223" d="M10.8 14.1c.2.5.6.8 1 1 .4.2 1 .4 1.6.4 0 0 1.1.8 1.5 1.1.3-.2.7-.4 1.1-.5h-.1c-.4.1-.7.2-1.1.4l-1.2-.9-.3-.2c-.6 0-1.1-.1-1.5-.3-.4-.3-.8-.6-1-1"/><path fill="#AF2223" d="M10.8 14.1c.2.5.6.8 1 1 .4.2 1 .4 1.6.4 0 0 1.1.8 1.5 1.1.3-.2.7-.4 1.1-.5h-.1c-.4.1-.7.2-1.1.4l-1.2-.9-.3-.2c-.6 0-1.1-.1-1.5-.3-.4-.3-.8-.6-1-1"/><path fill="#AE2223" d="M10.8 14.1c.2.5.6.8 1 1 .4.2 1 .4 1.6.4 0 0 1.1.8 1.5 1.1.3-.2.7-.4 1.1-.5h-.1c-.4.1-.7.2-1.1.4l-1.2-.9-.3-.2c-.6 0-1.1-.1-1.5-.3-.4-.3-.8-.6-1-1"/><path fill="#AD2223" d="M10.8 14.1c.2.5.6.8 1 1 .4.2 1 .4 1.6.4 0 0 1.1.8 1.5 1.1.3-.2.7-.4 1.1-.5h-.1c-.4.1-.7.2-1.1.4l-1.2-.9-.3-.2c-.6 0-1.1-.1-1.5-.3-.4-.3-.8-.6-1-1"/><path fill="#AD2223" d="M10.8 14.1c.2.5.6.8 1 1 .4.2 1 .4 1.6.4 0 0 1.1.8 1.5 1.1.3-.2.7-.4 1.1-.5h-.1c-.4.1-.7.2-1.1.4l-1.2-.9-.3-.2c-.6 0-1.1-.1-1.5-.3-.4-.3-.8-.6-1-1"/><path fill="#AB2223" d="M10.8 14.1c.2.5.6.8 1 1 .4.2 1 .4 1.6.4 0 0 1.1.8 1.5 1.1.3-.2.7-.4 1.1-.5h-.1c-.4.1-.7.2-1.1.4l-1.2-.9-.3-.2c-.6 0-1.1-.1-1.5-.3-.4-.3-.8-.6-1-1"/><path fill="#AA2223" d="M10.8 14.1c.2.5.6.8 1 1 .4.2 1 .4 1.6.4 0 0 1.1.8 1.5 1.1.3-.2.7-.4 1.1-.5h-.1c-.4.1-.7.2-1.1.4l-1.2-.9-.3-.2c-.6 0-1.1-.1-1.5-.3-.4-.3-.8-.6-1-1"/><path fill="#A92223" d="M10.8 14.1c.2.5.6.8 1 1 .4.2 1 .4 1.6.4 0 0 1.1.8 1.5 1.1.3-.2.7-.4 1.1-.5h-.1c-.4.1-.7.2-1.1.4l-1.2-.9-.3-.2c-.6 0-1.1-.1-1.5-.3-.4-.3-.8-.6-1-1"/><path fill="#A82222" d="M10.8 14.1c.2.5.6.8 1 1 .4.2 1 .4 1.6.4 0 0 1.1.8 1.5 1.1.3-.2.7-.4 1.1-.5h-.1c-.4.1-.7.2-1.1.4l-1.2-.9-.3-.2c-.6 0-1.1-.1-1.5-.3-.4-.3-.8-.6-1-1"/><path fill="#A72222" d="M10.8 14.1c.2.5.6.8 1 1 .4.2 1 .4 1.6.4 0 0 1.1.8 1.5 1.1.3-.2.7-.4 1.1-.5h-.1c-.4.1-.7.2-1.1.4l-1.2-.9-.3-.2c-.6 0-1.1-.1-1.5-.3-.4-.3-.8-.6-1-1"/><path fill="#A62122" d="M10.8 14.1c.2.5.6.8 1 1 .4.2 1 .4 1.6.4 0 0 1.1.8 1.5 1.1.3-.2.7-.4 1.1-.5h-.1c-.4.1-.7.2-1.1.4l-1.2-.9-.3-.2c-.6 0-1.1-.1-1.5-.3-.4-.3-.8-.6-1-1"/><path fill="#A52222" d="M10.8 14.1c.2.5.6.8 1 1 .4.2 1 .4 1.6.4 0 0 1.1.8 1.5 1.1.3-.2.7-.4 1.1-.5h-.1c-.4.1-.7.2-1.1.4l-1.2-.9-.3-.2c-.6 0-1.1-.1-1.5-.3-.4-.3-.8-.6-1-1"/><path fill="#A42122" d="M10.8 14.1c.2.5.6.8 1 1 .4.2 1 .4 1.6.4 0 0 1.1.8 1.5 1.1.3-.2.7-.4 1.1-.5h-.1c-.4.1-.7.2-1.1.4l-1.2-.9-.3-.2c-.6 0-1.1-.1-1.5-.3-.4-.3-.8-.6-1-1"/><path fill="#A32122" d="M10.8 14.1c.2.5.6.8 1 1 .4.2 1 .4 1.6.4 0 0 1.1.8 1.5 1.1.3-.2.7-.4 1.1-.5h-.1c-.4.1-.7.2-1.1.4l-1.2-.9-.3-.2c-.6 0-1.1-.1-1.5-.3-.4-.3-.8-.6-1-1"/><path fill="#A22122" d="M10.8 14.1c.2.5.6.8 1 1 .4.2 1 .4 1.6.4 0 0 1.1.8 1.5 1.1.3-.2.7-.4 1.1-.5h-.1c-.4.1-.7.2-1.1.4l-1.2-.9-.3-.2c-.6 0-1.1-.1-1.5-.3-.4-.3-.8-.6-1-1"/><path fill="#A12122" d="M10.8 14.1c.2.5.6.8 1 1 .4.2 1 .4 1.6.4 0 0 1.1.8 1.5 1.1.3-.2.7-.4 1.1-.5h-.1c-.4.1-.7.2-1.1.4l-1.2-.9-.3-.2c-.6 0-1.1-.1-1.5-.3-.4-.3-.8-.6-1-1"/><path fill="#A12121" d="M10.8 14.1c.2.5.6.8 1 1 .4.2 1 .4 1.6.4 0 0 1.1.8 1.5 1.1.3-.2.7-.4 1.1-.5h-.1c-.4.1-.7.2-1.1.4l-1.2-.9-.3-.2c-.6 0-1.1-.1-1.5-.3-.4-.3-.8-.6-1-1"/><path fill="#9F2121" d="M10.8 14.1c.2.5.6.8 1 1 .4.2 1 .4 1.6.4 0 0 1.1.8 1.5 1.1.3-.2.7-.4 1.1-.5h-.1c-.4.1-.7.2-1.1.4l-1.2-.9-.3-.2c-.6 0-1.1-.1-1.5-.3-.4-.3-.8-.6-1-1"/><path fill="#9E2121" d="M10.8 14.1c.2.5.6.8 1 1 .4.2 1 .4 1.6.4 0 0 1.1.8 1.5 1.1.3-.2.7-.4 1.1-.5h-.1c-.4.1-.7.2-1.1.4l-1.2-.9-.3-.2c-.6 0-1.1-.1-1.5-.3-.4-.3-.8-.6-1-1"/><path fill="#9D2121" d="M10.8 14.1c.2.5.6.8 1 1 .4.2 1 .4 1.6.4 0 0 1.1.8 1.5 1.1.3-.2.7-.4 1.1-.5h-.1c-.4.1-.7.2-1.1.4l-1.2-.9-.3-.2c-.6 0-1.1-.1-1.5-.3-.4-.3-.8-.6-1-1"/><path fill="#9C2121" d="M10.8 14.1c.2.5.6.8 1 1 .4.2 1 .4 1.6.4 0 0 1.1.8 1.5 1.1.3-.2.7-.4 1.1-.5h-.1c-.4.1-.7.2-1.1.4l-1.2-.9-.3-.2c-.6 0-1.1-.1-1.5-.3-.4-.3-.8-.6-1-1"/><path fill="#9B2121" d="M10.8 14.1c.2.5.6.8 1 1 .4.2 1 .4 1.6.4 0 0 1.1.8 1.5 1.1.3-.2.7-.4 1.1-.5h-.1c-.4.1-.7.2-1.1.4l-1.2-.9-.3-.2c-.6 0-1.1-.1-1.5-.3-.4-.3-.8-.6-1-1"/><path fill="#9B2021" d="M10.8 14.1c.2.5.6.8 1 1 .4.2 1 .4 1.6.4 0 0 1.1.8 1.5 1.1.3-.2.7-.4 1.1-.5h-.1c-.4.1-.7.2-1.1.4l-1.2-.9-.3-.2c-.6 0-1.1-.1-1.5-.3-.4-.3-.8-.6-1-1"/><path fill="#992021" d="M10.8 14.1c.2.5.6.8 1 1 .4.2 1 .4 1.6.4 0 0 1.1.8 1.5 1.1.3-.2.7-.4 1.1-.5h-.1c-.4.1-.7.2-1.1.4l-1.2-.9-.3-.2c-.6 0-1.1-.1-1.5-.3-.4-.3-.8-.6-1-1"/><path fill="#992020" d="M10.8 14.1c.2.5.6.8 1 1 .4.2 1 .4 1.6.4 0 0 1.1.8 1.5 1.1.3-.2.7-.4 1.1-.5h-.1c-.4.1-.7.2-1.1.4l-1.2-.9-.3-.2c-.6 0-1.1-.1-1.5-.3-.4-.3-.8-.6-1-1"/><path fill="#982020" d="M10.8 14.1c.2.5.6.8 1 1 .4.2 1 .4 1.6.4 0 0 1.1.8 1.5 1.1.3-.2.7-.4 1.1-.5h-.1c-.4.1-.7.2-1.1.4l-1.2-.9-.3-.2c-.6 0-1.1-.1-1.5-.3-.4-.3-.8-.6-1-1"/><path fill="#962020" d="M10.8 14.1c.2.5.6.8 1 1 .4.2 1 .4 1.6.4 0 0 1.1.8 1.5 1.1.3-.2.7-.4 1.1-.5h-.1c-.4.1-.7.2-1 .4l-1.2-.9-.3-.2c-.6 0-1.1-.1-1.5-.3-.5-.3-.9-.6-1.1-1"/><path fill="#962020" d="M10.8 14.1c.2.5.6.8 1 1 .4.2 1 .4 1.6.4 0 0 1.1.8 1.5 1.1.3-.2.7-.4 1.1-.5h-.1c-.4.1-.7.2-1 .4l-1.2-.9-.3-.2c-.6 0-1.1-.1-1.5-.3-.5-.3-.9-.6-1.1-1"/><path fill="#942020" d="M10.8 14.1c.2.5.6.8 1 1 .4.2 1 .4 1.6.4 0 0 1.1.8 1.5 1.1.3-.2.7-.4 1.1-.5h-.1c-.4.1-.7.2-1 .4l-1.2-.9-.3-.2c-.6 0-1.1-.1-1.5-.3-.5-.3-.9-.6-1.1-1"/><path fill="#942020" d="M10.8 14c.2.5.6.8 1 1 .4.2 1 .4 1.6.4 0 0 1.1.8 1.5 1.1.3-.2.7-.4 1.1-.5h-.1c-.4.1-.7.2-1 .4l-1.2-.9-.3-.2c-.6 0-1.1-.1-1.5-.3-.5-.2-.9-.5-1.1-1"/><path fill="#932020" d="M10.8 14c.2.5.6.8 1 1 .4.2 1 .4 1.6.4 0 0 1.1.8 1.5 1.1.3-.2.7-.4 1.1-.5h-.1c-.4.1-.7.2-1 .4l-1.2-.9-.3-.2c-.6 0-1.1-.1-1.5-.3-.5-.2-.9-.5-1.1-1"/><path fill="#921F1F" d="M10.8 14c.2.5.6.8 1 1 .4.2 1 .4 1.6.4 0 0 1.1.8 1.5 1.1.3-.2.7-.4 1.1-.5h-.1c-.4.1-.7.2-1 .4l-1.2-.9-.3-.2c-.6 0-1.1-.1-1.5-.3-.5-.2-.9-.5-1.1-1"/><path fill="#911F1F" d="M10.8 14c.2.5.6.8 1 1 .4.2 1 .4 1.6.4 0 0 1.1.8 1.5 1.1.3-.2.7-.4 1.1-.5h-.1c-.4.1-.7.2-1 .4l-1.2-.9-.3-.2c-.6 0-1.1-.1-1.5-.3-.5-.2-.9-.5-1.1-1"/><path fill="#901F1F" d="M10.8 14c.2.5.6.8 1 1 .4.2 1 .4 1.6.4 0 0 1.1.8 1.5 1.1.3-.2.7-.4 1.1-.5h-.1c-.4.1-.7.2-1 .4l-1.2-.9-.3-.2c-.6 0-1.1-.1-1.5-.3-.5-.2-.9-.5-1.1-1"/><path fill="#8F1F1F" d="M10.8 14c.2.5.6.8 1 1 .4.2 1 .4 1.6.4 0 0 1.1.8 1.5 1.1.3-.2.7-.4 1.1-.5h-.1c-.4.1-.7.2-1 .4l-1.2-.9-.3-.2c-.6 0-1.1-.1-1.5-.3-.5-.2-.9-.5-1.1-1"/><path fill="#8E1F1F" d="M10.8 14c.2.5.6.8 1 1 .4.2 1 .4 1.6.4 0 0 1.1.8 1.5 1.1.3-.2.7-.4 1.1-.5h-.1c-.4.1-.7.2-1 .4l-1.2-.9-.3-.2c-.6 0-1.1-.1-1.5-.3-.5-.2-.9-.5-1.1-1"/><path fill="#8D1F1F" d="M10.8 14c.2.5.6.8 1 1 .4.2 1 .4 1.6.4 0 0 1.1.8 1.5 1.1.3-.2.7-.4 1.1-.5h-.1c-.4.1-.7.2-1 .4l-1.2-.9-.3-.2c-.6 0-1.1-.1-1.5-.3-.5-.2-.9-.5-1.1-1"/><path fill="#8C1E1E" d="M10.8 14c.2.5.6.8 1 1 .4.2 1 .4 1.6.4 0 0 1.1.8 1.5 1.1.3-.2.7-.4 1.1-.5h-.1c-.4.1-.7.2-1 .4l-1.2-.9-.3-.2c-.6 0-1.1-.1-1.5-.3-.5-.2-.9-.5-1.1-1"/><path fill="#8B1E1E" d="M10.8 14c.2.5.6.8 1 1 .4.2 1 .4 1.6.4 0 0 1.1.8 1.5 1.1.4-.2.7-.4 1.1-.5h-.1c-.4.1-.7.2-1 .4l-1.2-.9-.3-.2c-.6 0-1.1-.1-1.5-.3-.5-.2-.9-.5-1.1-1"/><path fill="#8A1E1E" d="M10.8 14c.2.5.6.8 1 1 .4.2 1 .4 1.6.4 0 0 1.1.8 1.5 1.1.4-.2.7-.4 1.1-.5h-.1c-.4.1-.7.2-1 .4l-1.2-.9-.3-.2c-.6 0-1.1-.1-1.5-.3-.5-.2-.9-.5-1.1-1"/><path fill="#891E1E" d="M10.8 14c.2.5.6.8 1 1 .4.2 1 .4 1.6.4 0 0 1.1.8 1.5 1.1.4-.2.7-.4 1.1-.5h-.1c-.4.1-.7.2-1 .4l-1.2-.9-.3-.2c-.6 0-1.1-.1-1.5-.3-.5-.2-.9-.5-1.1-1"/><path fill="#881E1E" d="M10.8 14c.2.5.6.8 1 1 .4.2 1 .4 1.6.4 0 0 1.1.8 1.5 1.1.4-.2.7-.4 1.1-.5h-.1c-.4.1-.7.2-1 .4l-1.2-.9-.3-.2c-.6 0-1.1-.1-1.5-.3-.5-.2-.9-.5-1.1-1"/><path fill="#871E1E" d="M10.8 14c.2.5.6.8 1 1 .4.2 1 .4 1.6.4 0 0 1.1.8 1.5 1.1.4-.2.7-.4 1.1-.5h-.1c-.4.1-.7.2-1 .4l-1.2-.9-.3-.2c-.6 0-1.1-.1-1.5-.3-.5-.2-.9-.5-1.1-1"/><path fill="#861D1E" d="M10.8 14c.2.5.6.8 1 1 .4.2 1 .4 1.6.4 0 0 1.1.8 1.5 1.1.4-.2.7-.4 1.1-.5h-.1c-.4.1-.7.2-1 .4l-1.2-.9-.3-.2c-.6 0-1.1-.1-1.5-.3-.5-.2-.9-.5-1.1-1"/><path fill="#851D1D" d="M10.8 14c.2.5.6.8 1 1 .4.2 1 .4 1.6.4 0 0 1.1.8 1.5 1.1.4-.2.7-.4 1.1-.5h-.1c-.4.1-.7.2-1 .4l-1.2-.9-.3-.2c-.6 0-1.1-.1-1.5-.3-.5-.2-.9-.5-1.1-1"/><path fill="#841D1D" d="M15.9 16.1c-.4.1-.7.2-1 .4l-1.2-.9-.3-.2c-.6 0-1.1-.1-1.5-.3-.4-.2-.8-.5-1-1 .2.5.6.8 1 1 .4.2 1 .4 1.6.4l1.6 1.2c.4-.2.7-.4 1.1-.5-.2-.1-.2-.1-.3-.1"/><path fill="#DC2326" d="M13.5 10.2c-1.3 0-1.8 1.1-1.8 2.6 0 .5.1 1 .4 1.4-.2-.4-.3-.9-.3-1.3 0-1.5.5-2.6 1.7-2.7.6.1 1.1.4 1.3.8-.2-.5-.6-.8-1.3-.8"/><path fill="#DB2326" d="M13.6 10.3c.6 0 1 .3 1.3.7-.3-.5-.7-.8-1.3-.7-1.4-.1-1.8 1-1.8 2.5 0 .5.1 1 .4 1.4-.2-.4-.3-.9-.3-1.3-.1-1.5.4-2.6 1.7-2.6"/><path fill="#D92326" d="M13.6 10.3c.6 0 1 .3 1.3.7-.3-.5-.7-.8-1.3-.7-1.4-.1-1.8 1-1.8 2.5 0 .5.1 1 .4 1.4-.2-.4-.3-.9-.3-1.3-.1-1.5.4-2.6 1.7-2.6"/><path fill="#D82326" d="M13.6 10.3c.6 0 1 .3 1.3.7-.3-.5-.7-.8-1.3-.7-1.4-.1-1.8 1-1.8 2.5 0 .5.1 1 .4 1.4-.2-.4-.3-.9-.3-1.3-.1-1.5.4-2.6 1.7-2.6"/><path fill="#D62326" d="M13.6 10.3c.6 0 1 .3 1.3.7-.3-.5-.7-.8-1.3-.7-1.4-.1-1.8 1-1.8 2.5 0 .5.1 1 .4 1.4-.2-.4-.3-.9-.3-1.3-.1-1.5.4-2.6 1.7-2.6"/><path fill="#D52326" d="M13.6 10.3c.6 0 1 .3 1.3.7-.3-.5-.7-.8-1.3-.7-1.4-.1-1.8 1-1.8 2.5 0 .5.1 1 .4 1.4-.2-.4-.3-.9-.3-1.3-.1-1.5.4-2.6 1.7-2.6"/><path fill="#D42326" d="M13.6 10.3c.6 0 1 .3 1.3.7-.3-.5-.7-.8-1.3-.7-1.4-.1-1.8 1-1.8 2.5 0 .5.1 1 .4 1.4-.2-.4-.3-.9-.3-1.3-.1-1.5.4-2.6 1.7-2.6"/><path fill="#D22326" d="M13.6 10.3c.6 0 1 .3 1.3.7-.3-.5-.7-.8-1.3-.7-1.4-.1-1.8 1-1.8 2.5 0 .5.1 1 .4 1.4-.2-.4-.3-.9-.3-1.3-.1-1.5.4-2.6 1.7-2.6"/><path fill="#D12326" d="M13.6 10.3c.6 0 1 .3 1.3.7-.3-.5-.7-.8-1.3-.7-1.4-.1-1.8 1-1.8 2.5 0 .5.1 1 .4 1.4-.2-.4-.3-.9-.3-1.3-.1-1.5.4-2.6 1.7-2.6"/><path fill="#D02326" d="M13.6 10.3c.6 0 1 .3 1.3.7-.3-.5-.7-.8-1.3-.7-1.4-.1-1.8 1-1.8 2.5 0 .5.1 1 .4 1.4-.2-.4-.3-.9-.3-1.3-.1-1.5.4-2.6 1.7-2.6"/><path fill="#CE2326" d="M13.6 10.3c.6 0 1 .3 1.3.7-.3-.5-.7-.8-1.3-.7-1.4-.1-1.8 1-1.8 2.5 0 .5.1 1 .4 1.4-.2-.4-.3-.9-.3-1.3-.1-1.5.4-2.6 1.7-2.6"/><path fill="#CD2326" d="M13.6 10.3c.6 0 1 .3 1.3.7-.3-.5-.7-.8-1.3-.7-1.4-.1-1.8 1-1.8 2.5 0 .5.1 1 .4 1.4-.2-.4-.3-.9-.3-1.3-.1-1.5.4-2.6 1.7-2.6"/><path fill="#CC2325" d="M13.6 10.3c.6 0 1 .3 1.3.7-.3-.5-.7-.8-1.3-.7-1.4-.1-1.8 1-1.8 2.5 0 .5.1 1 .4 1.4-.2-.4-.3-.9-.3-1.3-.1-1.5.4-2.6 1.7-2.6"/><path fill="#CA2325" d="M13.6 10.3c.6 0 1 .3 1.3.7-.3-.5-.7-.8-1.3-.7-1.4-.1-1.8 1-1.8 2.5 0 .5.1 1 .4 1.4-.2-.4-.3-.9-.3-1.3-.1-1.5.4-2.6 1.7-2.6"/><path fill="#C92325" d="M13.6 10.3c.6 0 1 .3 1.3.7-.3-.5-.7-.8-1.3-.7-1.4-.1-1.8 1-1.8 2.5 0 .5.1 1 .4 1.4-.2-.4-.3-.9-.3-1.3-.1-1.5.4-2.6 1.7-2.6"/><path fill="#C82325" d="M13.6 10.3c.6 0 1 .3 1.3.7-.3-.5-.7-.8-1.3-.7-1.4-.1-1.8 1-1.8 2.5 0 .5.1 1 .4 1.4-.2-.4-.3-.9-.3-1.3-.1-1.5.4-2.6 1.7-2.6"/><path fill="#C72325" d="M13.6 10.3c.6 0 1 .3 1.3.7-.3-.5-.7-.8-1.3-.7-1.4-.1-1.8 1-1.8 2.5 0 .5.1 1 .4 1.4-.2-.4-.3-.9-.3-1.3-.1-1.5.4-2.6 1.7-2.6"/><path fill="#C52325" d="M13.6 10.3c.6 0 1 .3 1.3.7-.3-.5-.7-.8-1.3-.7-1.4-.1-1.8 1-1.8 2.5 0 .5.1 1 .4 1.4-.2-.4-.3-.9-.3-1.3-.1-1.5.4-2.6 1.7-2.6"/><path fill="#C42325" d="M13.6 10.3c.6 0 1 .3 1.3.7-.3-.5-.7-.8-1.3-.7-1.4-.1-1.8 1-1.8 2.5 0 .5.1 1 .4 1.4-.2-.4-.3-.9-.3-1.3-.1-1.5.4-2.6 1.7-2.6"/><path fill="#C32325" d="M13.6 10.3c.6 0 1 .3 1.3.7-.3-.5-.7-.8-1.3-.7-1.4-.1-1.8 1-1.8 2.5 0 .5.1 1 .4 1.4-.2-.4-.3-.9-.3-1.3-.1-1.5.4-2.6 1.7-2.6"/><path fill="#C22325" d="M13.6 10.3c.6 0 1 .3 1.3.7-.3-.5-.7-.8-1.3-.7-1.4-.1-1.8 1-1.8 2.5 0 .5.1 1 .4 1.4-.2-.4-.3-.9-.3-1.3-.1-1.5.4-2.6 1.7-2.6"/><path fill="#C12325" d="M13.6 10.3c.6 0 1 .3 1.3.7-.3-.5-.7-.8-1.3-.7-1.4-.1-1.8 1-1.8 2.5 0 .5.1 1 .4 1.4-.2-.4-.3-.9-.3-1.3-.1-1.5.4-2.6 1.7-2.6"/><path fill="#BF2325" d="M13.6 10.3c.6 0 1 .3 1.3.7-.3-.5-.7-.8-1.3-.7-1.4-.1-1.8 1-1.8 2.5 0 .5.1 1 .4 1.4-.2-.4-.3-.9-.3-1.3-.1-1.5.4-2.6 1.7-2.6"/><path fill="#BE2325" d="M13.6 10.2c.6 0 1 .3 1.3.7-.3-.4-.7-.7-1.3-.7-1.4-.1-1.8 1-1.8 2.5 0 .5.1 1 .4 1.4-.2-.4-.3-.9-.3-1.3-.1-1.4.4-2.5 1.7-2.6"/><path fill="#BD2225" d="M13.6 10.2c.6 0 1 .3 1.3.7-.3-.4-.7-.7-1.3-.7-1.4-.1-1.8 1-1.8 2.5 0 .5.1 1 .4 1.4-.2-.4-.3-.9-.3-1.3-.1-1.4.4-2.5 1.7-2.6"/><path fill="#BB2224" d="M13.6 10.2c.6 0 1 .3 1.3.7-.3-.4-.7-.7-1.3-.7-1.4-.1-1.8 1-1.8 2.5 0 .5.1 1 .4 1.4-.2-.4-.3-.9-.3-1.3-.1-1.4.4-2.5 1.7-2.6"/><path fill="#BA2224" d="M13.6 10.2c.6 0 1 .3 1.3.7-.3-.4-.7-.7-1.3-.7-1.4-.1-1.8 1-1.8 2.5 0 .5.1 1 .4 1.4-.2-.4-.3-.9-.3-1.3-.1-1.4.4-2.5 1.7-2.6"/><path fill="#B92224" d="M13.6 10.2c.6 0 1 .3 1.3.7-.3-.4-.7-.7-1.3-.7-1.4-.1-1.8 1-1.8 2.5 0 .5.1 1 .4 1.4-.2-.4-.3-.9-.3-1.3-.1-1.4.4-2.5 1.7-2.6"/><path fill="#B82224" d="M13.6 10.2c.6 0 1 .3 1.3.7-.3-.4-.7-.7-1.3-.7-1.4-.1-1.8 1-1.8 2.5 0 .5.1 1 .4 1.4-.2-.4-.3-.9-.3-1.3-.1-1.4.4-2.5 1.7-2.6"/><path fill="#B72224" d="M13.6 10.2c.6 0 1 .3 1.3.7-.3-.4-.7-.7-1.3-.7-1.4-.1-1.8 1-1.8 2.5 0 .5.1 1 .4 1.4-.2-.4-.3-.9-.3-1.3-.1-1.4.4-2.5 1.7-2.6"/><path fill="#B52224" d="M13.6 10.2c.6 0 1 .3 1.3.7-.3-.4-.7-.7-1.3-.7-1.4-.1-1.8 1-1.8 2.5 0 .5.1 1 .4 1.4-.2-.4-.3-.9-.3-1.3-.1-1.4.4-2.5 1.7-2.6"/><path fill="#B42224" d="M13.6 10.2c.6 0 1 .3 1.3.7-.3-.4-.7-.7-1.3-.7-1.4-.1-1.8 1-1.8 2.5 0 .5.1 1 .4 1.4-.2-.4-.3-.9-.3-1.3-.1-1.4.3-2.5 1.7-2.6"/><path fill="#B32224" d="M13.6 10.2c.6 0 1 .3 1.3.7-.3-.4-.7-.7-1.3-.7-1.4-.1-1.8 1-1.8 2.5 0 .5.1 1 .4 1.4-.2-.4-.3-.9-.3-1.3-.1-1.4.3-2.5 1.7-2.6"/><path fill="#B22224" d="M13.6 10.2c.6 0 1 .3 1.3.7-.3-.4-.7-.7-1.3-.7-1.4-.1-1.8 1-1.8 2.5 0 .5.1 1 .4 1.4-.2-.4-.3-.9-.3-1.3-.1-1.4.3-2.6 1.7-2.6"/><path fill="#B12224" d="M13.6 10.2c.6 0 1 .3 1.3.7-.3-.4-.8-.7-1.3-.7-1.4-.1-1.8 1-1.8 2.5 0 .5.1 1 .4 1.4-.2-.4-.3-.9-.3-1.3-.1-1.4.3-2.6 1.7-2.6"/><path fill="#B02223" d="M13.6 10.2c.6 0 1 .3 1.3.7-.3-.4-.8-.7-1.3-.7-1.4-.1-1.8 1-1.8 2.5 0 .5.1 1 .4 1.4-.2-.4-.3-.9-.3-1.3-.1-1.4.3-2.6 1.7-2.6"/><path fill="#AE2223" d="M13.6 10.2c.6 0 1 .3 1.3.7-.3-.4-.8-.7-1.3-.7-1.4-.1-1.8 1-1.8 2.5 0 .5.1 1 .4 1.4-.2-.4-.3-.9-.3-1.3-.1-1.4.3-2.6 1.7-2.6"/><path fill="#AD2223" d="M13.6 10.2c.6 0 1 .3 1.3.7-.3-.4-.8-.7-1.3-.7-1.4-.1-1.8 1-1.8 2.5 0 .5.1 1 .4 1.4-.2-.4-.3-.9-.3-1.3-.1-1.4.3-2.6 1.7-2.6"/><path fill="#AC2223" d="M13.6 10.2c.6 0 1 .3 1.3.7-.3-.4-.8-.7-1.3-.7-1.4-.1-1.8 1-1.8 2.5 0 .5.1 1 .4 1.4-.2-.4-.3-.9-.3-1.3-.1-1.4.3-2.6 1.7-2.6"/><path fill="#AB2223" d="M13.6 10.2c.6 0 1 .3 1.3.7-.3-.4-.8-.7-1.3-.7-1.4-.1-1.8 1-1.8 2.5 0 .5.1 1 .4 1.4-.2-.4-.3-.9-.3-1.3-.1-1.4.3-2.6 1.7-2.6"/><path fill="#AA2223" d="M13.6 10.2c.6 0 1 .3 1.3.7-.3-.4-.8-.7-1.3-.7-1.4-.1-1.8 1-1.8 2.5 0 .5.1 1 .4 1.4-.2-.4-.3-.9-.3-1.3-.1-1.4.3-2.6 1.7-2.6"/><path fill="#A82123" d="M13.6 10.2c.6 0 1 .3 1.3.7-.3-.4-.8-.7-1.3-.7-1.4-.1-1.8 1-1.8 2.5 0 .5.1 1 .4 1.4-.2-.4-.3-.9-.3-1.3-.1-1.4.3-2.6 1.7-2.6"/><path fill="#A72123" d="M13.6 10.2c.6 0 1 .3 1.3.7-.3-.4-.8-.7-1.3-.7-1.4-.1-1.8 1-1.8 2.5 0 .5.1 1 .4 1.4-.2-.4-.3-.9-.3-1.3-.1-1.4.3-2.6 1.7-2.6"/><path fill="#A62123" d="M13.6 10.2c.6 0 1 .3 1.3.7-.3-.4-.8-.7-1.3-.7-1.4-.1-1.8 1-1.8 2.5 0 .5.1 1 .4 1.4-.2-.4-.3-.9-.3-1.3-.1-1.4.3-2.6 1.7-2.6"/><path fill="#A52122" d="M13.6 10.2c.6 0 1 .3 1.3.7-.3-.4-.8-.7-1.3-.7-1.4-.1-1.8 1-1.8 2.5 0 .5.1 1 .4 1.4-.2-.4-.3-.9-.3-1.3-.1-1.4.3-2.6 1.7-2.6"/><path fill="#A42122" d="M13.6 10.2c.6 0 1 .3 1.3.7-.3-.4-.8-.7-1.3-.7-1.4-.1-1.8 1-1.8 2.5 0 .5.1 1 .4 1.4-.2-.4-.3-.9-.3-1.3-.1-1.4.3-2.6 1.7-2.6"/><path fill="#A22122" d="M13.6 10.2c.6 0 1 .3 1.3.7-.3-.4-.8-.7-1.3-.7-1.4-.1-1.8 1-1.8 2.5 0 .5.1 1 .4 1.4-.2-.4-.3-.9-.3-1.3-.1-1.4.3-2.6 1.7-2.6"/><path fill="#A12122" d="M13.6 10.2c.6 0 1 .3 1.3.7-.3-.4-.8-.7-1.3-.7-1.4-.1-1.8 1-1.8 2.5 0 .5.1 1 .4 1.4-.2-.4-.3-.9-.3-1.3-.1-1.4.3-2.6 1.7-2.6"/><path fill="#A02122" d="M13.6 10.2c.6 0 1 .3 1.3.7-.3-.4-.8-.7-1.3-.7-1.4-.1-1.8 1-1.8 2.5 0 .5.1 1 .4 1.4-.2-.4-.3-.9-.3-1.3-.1-1.4.3-2.6 1.7-2.6"/><path fill="#9F2122" d="M13.6 10.2c.6 0 1 .3 1.3.7-.3-.4-.8-.7-1.3-.7-1.4-.1-1.8 1-1.8 2.5 0 .5.1 1 .4 1.4-.2-.4-.3-.9-.3-1.3-.1-1.4.3-2.6 1.7-2.6"/><path fill="#9E2122" d="M13.6 10.2c.6 0 1 .3 1.3.7-.3-.4-.8-.7-1.3-.7-1.4-.1-1.8 1-1.8 2.5 0 .5.1 1 .4 1.4-.2-.4-.3-.9-.3-1.3-.1-1.4.3-2.6 1.7-2.6"/><path fill="#9D2121" d="M13.6 10.2c.6 0 1 .3 1.3.7-.3-.4-.8-.7-1.3-.7-1.4-.1-1.8 1-1.8 2.5 0 .5.1 1 .4 1.4-.2-.4-.3-.9-.3-1.3-.1-1.4.3-2.6 1.7-2.6"/><path fill="#9C2121" d="M13.6 10.2c.6 0 1 .3 1.3.7-.3-.4-.8-.7-1.3-.7-1.4-.1-1.8 1-1.8 2.5 0 .5.1 1 .4 1.4-.2-.4-.3-.9-.3-1.3-.1-1.4.3-2.6 1.7-2.6"/><path fill="#9A2021" d="M13.6 10.2c.6 0 1 .3 1.3.7-.3-.4-.8-.7-1.3-.7-1.4-.1-1.8 1-1.8 2.5 0 .5.1 1 .4 1.4-.2-.4-.3-.9-.3-1.3-.1-1.4.3-2.6 1.7-2.6"/><path fill="#992021" d="M13.6 10.2c.6 0 1 .3 1.3.7-.3-.4-.8-.7-1.3-.7-1.4-.1-1.8 1-1.8 2.5 0 .5.1 1 .4 1.4-.2-.4-.3-.9-.3-1.3-.1-1.4.3-2.6 1.7-2.6"/><path fill="#982021" d="M13.6 10.2c.6 0 1 .3 1.3.7-.3-.4-.8-.7-1.3-.7-1.4-.1-1.8 1-1.8 2.5 0 .5.1 1 .4 1.4-.2-.4-.3-.9-.3-1.3-.1-1.4.3-2.6 1.7-2.6"/><path fill="#972021" d="M13.6 10.2c.6 0 1 .3 1.3.7-.3-.4-.8-.7-1.3-.7-1.4-.1-1.8 1-1.8 2.5 0 .5.1 1 .4 1.4-.2-.4-.3-.9-.3-1.3-.1-1.4.3-2.6 1.7-2.6"/><path fill="#962021" d="M13.6 10.2c.6 0 1 .3 1.3.7-.3-.4-.8-.7-1.3-.7-1.4-.1-1.8 1-1.8 2.5 0 .5.1 1 .4 1.4-.2-.4-.3-.9-.3-1.3-.1-1.4.3-2.6 1.7-2.6"/><path fill="#952020" d="M13.6 10.2c.6 0 1 .3 1.3.7-.3-.4-.8-.7-1.3-.7-1.4-.1-1.8 1-1.8 2.5 0 .5.1 1 .4 1.4-.2-.4-.3-.9-.3-1.3-.1-1.4.3-2.6 1.7-2.6"/><path fill="#942020" d="M13.6 10.2c.6 0 1 .3 1.3.7-.3-.4-.8-.7-1.3-.7-1.4-.1-1.8 1-1.8 2.5 0 .5.1 1 .4 1.4-.2-.4-.3-.9-.3-1.3-.1-1.4.3-2.6 1.7-2.6"/><path fill="#932020" d="M13.6 10.2c.6 0 1 .3 1.3.7-.3-.4-.8-.7-1.3-.7-1.4-.1-1.8 1-1.8 2.5 0 .5.1 1 .4 1.4-.2-.4-.3-.9-.3-1.3-.1-1.4.3-2.6 1.7-2.6"/><path fill="#911F20" d="M13.6 10.2c.6 0 1 .3 1.3.7-.3-.4-.8-.8-1.3-.7-1.4-.1-1.8 1-1.8 2.5 0 .5.1 1 .4 1.4-.2-.4-.3-.9-.3-1.3-.1-1.4.3-2.6 1.7-2.6"/><path fill="#901F20" d="M13.6 10.2c.6 0 1 .3 1.3.7-.3-.4-.8-.8-1.3-.7-1.4-.1-1.8 1-1.8 2.5 0 .5.1 1 .4 1.4-.2-.4-.3-.9-.3-1.3-.1-1.4.3-2.6 1.7-2.6"/><path fill="#8F1F20" d="M13.6 10.2c.6 0 1 .3 1.3.7-.3-.4-.8-.8-1.3-.7-1.4-.1-1.8 1-1.8 2.5 0 .5.1 1 .4 1.4-.2-.4-.3-.9-.3-1.3-.1-1.4.3-2.6 1.7-2.6"/><path fill="#8E1F20" d="M13.6 10.2c.6 0 1 .3 1.3.7-.3-.4-.8-.8-1.3-.7-1.4-.1-1.8 1-1.8 2.5 0 .5.1 1 .4 1.4-.2-.4-.3-.9-.3-1.3-.1-1.4.3-2.6 1.7-2.6"/><path fill="#8D1F1F" d="M13.6 10.2c.6 0 1 .3 1.3.7-.3-.4-.8-.8-1.3-.7-1.4-.1-1.8 1-1.8 2.5 0 .5.1 1 .4 1.4-.2-.4-.3-.9-.3-1.3-.1-1.4.3-2.6 1.7-2.6"/><path fill="#8C1F1F" d="M13.6 10.2c.6 0 1 .3 1.3.7-.3-.4-.8-.8-1.3-.7-1.4-.1-1.8 1-1.8 2.5 0 .5.1 1 .4 1.4-.2-.4-.3-.9-.3-1.3-.1-1.4.3-2.6 1.7-2.6"/><path fill="#8B1F1F" d="M13.6 10.2c.6 0 1 .3 1.3.7-.3-.4-.8-.8-1.3-.7-1.4-.1-1.8 1-1.8 2.5 0 .5.1 1 .4 1.4-.2-.4-.3-.9-.3-1.3-.1-1.4.3-2.6 1.7-2.6"/><path fill="#8A1E1F" d="M13.6 10.2c.6 0 1 .3 1.3.7-.3-.4-.8-.8-1.3-.7-1.4-.1-1.8 1-1.8 2.5 0 .5.1 1 .4 1.4-.2-.4-.3-.9-.3-1.3-.1-1.4.3-2.6 1.7-2.6"/><path fill="#891E1F" d="M13.6 10.2c.6 0 1 .3 1.3.7-.3-.4-.8-.8-1.3-.7-1.4-.1-1.8 1-1.8 2.5 0 .5.1 1 .4 1.4-.2-.4-.3-.9-.3-1.3-.1-1.4.3-2.6 1.7-2.6"/><path fill="#881E1F" d="M13.6 10.2c.6 0 1 .3 1.3.7-.3-.4-.8-.8-1.3-.7-1.4-.1-1.8 1-1.8 2.5 0 .5.1 1 .4 1.4-.2-.4-.3-.9-.3-1.3-.1-1.4.3-2.6 1.7-2.6"/><path fill="#871E1E" d="M13.6 10.2c.6 0 1 .3 1.3.7-.3-.4-.8-.8-1.3-.7-1.4-.1-1.8 1-1.8 2.5 0 .5.1 1 .4 1.4-.2-.4-.3-.9-.3-1.3-.1-1.4.3-2.6 1.7-2.6"/><path fill="#851E1E" d="M13.6 10.2c.6 0 1 .3 1.3.7-.3-.4-.8-.8-1.3-.7-1.4-.1-1.8 1-1.8 2.5 0 .5.1 1 .4 1.4-.2-.4-.3-.9-.3-1.3-.1-1.4.3-2.6 1.7-2.6"/><path fill="#841E1E" d="M13.5 10.1c-1.3 0-1.8 1.1-1.8 2.6 0 .5.1 1 .4 1.4-.2-.4-.3-.9-.3-1.3 0-1.4.4-2.6 1.7-2.7.6.1 1.1.4 1.3.8-.2-.4-.7-.8-1.3-.8"/><path fill="#FFF" d="M13.4 15.4c-1.8 0-2.9-1-2.9-2.8 0-1.8 1.4-2.9 3.1-2.9 1.8 0 2.9 1.1 2.9 2.8 0 1.3-.8 2.3-2 2.7.7.4.8.5 1.5.9-.4.1-.7.2-1.1.4l-1.2-.9-.3-.2zm-1.6-2.6c0 1 .5 2.1 1.7 2.1 1.1 0 1.8-1 1.8-2.5 0-1-.5-2.2-1.7-2.2-1.4 0-1.8 1.1-1.8 2.6"/></g></g></svg>