<?xml version="1.0" encoding="utf-8"?>
<!-- Generator: Adobe Illustrator 21.0.0, SVG Export Plug-In . SVG Version: 6.00 Build 0)  -->
<svg version="1.1" id="Layer_1" xmlns="http://www.w3.org/2000/svg" xmlns:xlink="http://www.w3.org/1999/xlink" x="0px" y="0px"
	 viewBox="0 0 73.3 73.4" style="enable-background:new 0 0 73.3 73.4;" xml:space="preserve">
<style type="text/css">
	.st0{fill:#24ABE2;}
	.st1{fill:url(#SVGID_1_);}
	.st2{fill:url(#SVGID_2_);}
	.st3{enable-background:new    ;}
	.st4{fill:#22205F;}
	.st5{fill:#E3F3FB;}
</style>
<title>qualys-cm-icon</title>
<rect class="st0" width="73.3" height="73.3"/>
<linearGradient id="SVGID_1_" gradientUnits="userSpaceOnUse" x1="749.26" y1="-1660.0999" x2="749.26" y2="-1609.6998" gradientTransform="matrix(1 0 0 1 -712.61 1660.0999)">
	<stop  offset="0" style="stop-color:#19569C"/>
	<stop  offset="0.18" style="stop-color:#135FA5"/>
	<stop  offset="0.66" style="stop-color:#0571B7"/>
	<stop  offset="1" style="stop-color:#0078BE"/>
</linearGradient>
<path class="st1" d="M0,0h73.2l0.1,41.7c0,4.8-4,8.7-8.8,8.7H8.8C4,50.4,0,46.5,0,41.7l0,0V0z"/>
<linearGradient id="SVGID_2_" gradientUnits="userSpaceOnUse" x1="749.26" y1="-1586.76" x2="749.26" y2="-1637.86" gradientTransform="matrix(1 0 0 1 -712.61 1660.0999)">
	<stop  offset="0" style="stop-color:#19569C"/>
	<stop  offset="1" style="stop-color:#0078BE"/>
</linearGradient>
<path class="st2" d="M0,37.6c43.9,6.8,73.2-15.3,73.2-15.3l0.1,51.1H0V37.6z"/>
<g class="st3">
	<path class="st4" d="M26.5,28.5c-1.5,0-2.7,0.6-3.5,1.7c-0.8,1.1-1.2,2.7-1.2,4.7c0,4.1,1.6,6.2,4.7,6.2c1.3,0,2.9-0.3,4.8-1v3.3
		c-1.5,0.6-3.3,1-5.2,1c-2.7,0-4.8-0.8-6.3-2.5c-1.4-1.6-2.2-4-2.2-7.1c0-1.9,0.4-3.6,1.1-5.1c0.7-1.5,1.7-2.6,3.1-3.3
		c1.3-0.8,2.9-1.2,4.7-1.2c1.8,0,3.6,0.4,5.5,1.3l-1.3,3.2c-0.7-0.3-1.4-0.6-2.1-0.9C27.9,28.6,27.2,28.5,26.5,28.5z"/>
</g>
<g class="st3">
	<path class="st4" d="M43,44l-4.5-14.6h-0.1c0.2,3,0.2,4.9,0.2,5.9V44h-3.6V25.5h5.4l4.4,14.2H45l4.7-14.2h5.4V44h-3.7v-8.8
		c0-0.4,0-0.9,0-1.4c0-0.5,0.1-2,0.2-4.3h-0.1L46.6,44H43z"/>
</g>
<g class="st3">
	<path class="st5" d="M43,45.1l-4.5-14.6h-0.1c0.2,3,0.2,4.9,0.2,5.9V45H35V26.6h5.4l4.4,14.2H45l4.7-14.2h5.4v18.6h-3.7v-8.8
		c0-0.4,0-0.9,0-1.4s0.1-2,0.2-4.3h-0.1l-4.8,14.5L43,45.1L43,45.1z"/>
</g>
<g class="st3">
	<path class="st5" d="M26.5,29.6c-1.5,0-2.7,0.6-3.5,1.7S21.8,34,21.8,36c0,4.1,1.6,6.2,4.7,6.2c1.3,0,2.9-0.3,4.8-1v3.3
		c-1.5,0.6-3.3,1-5.2,1c-2.7,0-4.8-0.8-6.3-2.5c-1.4-1.6-2.2-4-2.2-7.1c0-1.9,0.4-3.6,1.1-5.1c0.7-1.5,1.7-2.6,3.1-3.3
		c1.3-0.8,2.9-1.2,4.7-1.2c1.8,0,3.6,0.4,5.5,1.3l-1.3,3.2c-0.7-0.3-1.4-0.6-2.1-0.9C27.9,29.7,27.2,29.6,26.5,29.6z"/>
</g>
</svg>
