<?xml version="1.0" encoding="utf-8"?>
<!-- Generator: Adobe Illustrator 21.0.0, SVG Export Plug-In . SVG Version: 6.00 Build 0)  -->
<svg version="1.1" id="Layer_1" xmlns="http://www.w3.org/2000/svg" xmlns:xlink="http://www.w3.org/1999/xlink" x="0px" y="0px"
	 viewBox="0 0 73.3 73.4" style="enable-background:new 0 0 73.3 73.4;" xml:space="preserve">
<style type="text/css">
	.st0{fill:#24ABE2;}
	.st1{fill:url(#SVGID_1_);}
	.st2{fill:url(#SVGID_2_);}
	.st3{enable-background:new    ;}
	.st4{fill:#346734;}
	.st5{fill:#E0EFD4;}
</style>
<title>qualys-pc-icon</title>
<rect class="st0" width="73.3" height="73.3"/>
<linearGradient id="SVGID_1_" gradientUnits="userSpaceOnUse" x1="749.26" y1="-2053.0999" x2="749.26" y2="-2002.6998" gradientTransform="matrix(1 0 0 1 -712.61 2053.0999)">
	<stop  offset="0" style="stop-color:#60BC57"/>
	<stop  offset="1" style="stop-color:#589734"/>
</linearGradient>
<path class="st1" d="M0,0h73.2l0.1,41.7c0,4.8-4,8.7-8.8,8.7H8.8C4,50.4,0,46.5,0,41.7l0,0V0z"/>
<linearGradient id="SVGID_2_" gradientUnits="userSpaceOnUse" x1="749.26" y1="-1979.8799" x2="749.26" y2="-2030.8601" gradientTransform="matrix(1 0 0 1 -712.61 2053.0999)">
	<stop  offset="0" style="stop-color:#60BC57"/>
	<stop  offset="1" style="stop-color:#589734"/>
</linearGradient>
<path class="st2" d="M0,37.6c43.9,6.8,73.2-15.3,73.2-15.3l0.1,51.1H0V37.6z"/>
<g class="st3">
	<path class="st4" d="M35.3,31.3c0,2-0.6,3.5-1.9,4.6s-3,1.6-5.3,1.6h-1.7V44h-3.9V25.5h5.9c2.3,0,4,0.5,5.1,1.5
		C34.7,27.9,35.3,29.3,35.3,31.3z M26.4,34.2h1.3c1.2,0,2.1-0.2,2.7-0.7c0.6-0.5,0.9-1.2,0.9-2.1c0-0.9-0.3-1.6-0.8-2
		s-1.3-0.7-2.4-0.7h-1.8V34.2z"/>
</g>
<g class="st3">
	<path class="st4" d="M46.9,28.5c-1.5,0-2.6,0.6-3.4,1.7c-0.8,1.1-1.2,2.7-1.2,4.7c0,4.1,1.6,6.2,4.7,6.2c1.3,0,2.9-0.3,4.7-1v3.3
		c-1.5,0.6-3.2,1-5.1,1c-2.7,0-4.8-0.8-6.2-2.5c-1.4-1.6-2.1-4-2.1-7.1c0-1.9,0.4-3.6,1.1-5.1c0.7-1.5,1.7-2.6,3-3.3
		c1.3-0.8,2.9-1.2,4.6-1.2c1.8,0,3.6,0.4,5.4,1.3l-1.3,3.2c-0.7-0.3-1.4-0.6-2.1-0.9C48.3,28.6,47.6,28.5,46.9,28.5z"/>
</g>
<g class="st3">
	<path class="st5" d="M46.9,29.6c-1.5,0-2.6,0.6-3.4,1.7c-0.8,1.1-1.2,2.7-1.2,4.7c0,4.1,1.6,6.2,4.7,6.2c1.3,0,2.9-0.3,4.7-1v3.3
		c-1.5,0.6-3.2,1-5.1,1c-2.7,0-4.8-0.8-6.2-2.5c-1.4-1.6-2.1-4-2.1-7.1c0-1.9,0.4-3.6,1.1-5.1c0.7-1.5,1.7-2.6,3-3.3
		c1.3-0.8,2.9-1.2,4.6-1.2c1.8,0,3.6,0.4,5.4,1.3l-1.3,3.2c-0.7-0.3-1.4-0.6-2.1-0.9C48.3,29.7,47.6,29.6,46.9,29.6z"/>
</g>
<g class="st3">
	<path class="st5" d="M35.3,32.4c0,2-0.6,3.5-1.9,4.6c-1.2,1.1-3,1.6-5.3,1.6h-1.7v6.6h-3.9V26.6h5.9c2.3,0,4,0.5,5.1,1.5
		C34.7,29,35.3,30.4,35.3,32.4z M26.4,35.3h1.3c1.2,0,2.1-0.2,2.7-0.7s0.9-1.2,0.9-2.1c0-0.9-0.3-1.6-0.8-2s-1.3-0.7-2.4-0.7h-1.8
		L26.4,35.3L26.4,35.3z"/>
</g>
</svg>
