<?xml version="1.0" encoding="utf-8"?>
<!-- Generator: Adobe Illustrator 21.0.0, SVG Export Plug-In . SVG Version: 6.00 Build 0)  -->
<svg version="1.1" id="Layer_1" xmlns="http://www.w3.org/2000/svg" xmlns:xlink="http://www.w3.org/1999/xlink" x="0px" y="0px"
	 viewBox="0 0 73.3 73.4" style="enable-background:new 0 0 73.3 73.4;" xml:space="preserve">
<style type="text/css">
	.st0{fill:#24ABE2;}
	.st1{fill:url(#SVGID_1_);}
	.st2{fill:url(#SVGID_2_);}
	.st3{enable-background:new    ;}
	.st4{fill:#661314;}
	.st5{fill:#E3F3FB;}
</style>
<title>qualys-tp-icon</title>
<rect class="st0" width="73.3" height="73.3"/>
<linearGradient id="SVGID_1_" gradientUnits="userSpaceOnUse" x1="854.0599" y1="1880.0999" x2="854.0599" y2="1829.6998" gradientTransform="matrix(1 0 0 -1 -817.41 1880.0999)">
	<stop  offset="0" style="stop-color:#EE342C"/>
	<stop  offset="0.54" style="stop-color:#BF2226"/>
</linearGradient>
<path class="st1" d="M0,0h73.2l0.1,41.7c0,4.8-4,8.7-8.8,8.7H8.8C4,50.4,0,46.5,0,41.7l0,0L0,0z"/>
<linearGradient id="SVGID_2_" gradientUnits="userSpaceOnUse" x1="706.25" y1="-573.02" x2="706.25" y2="-521.92" gradientTransform="matrix(1 0 0 1 -669.6 595.2)">
	<stop  offset="0.12" style="stop-color:#EE342C"/>
	<stop  offset="0.44" style="stop-color:#D72B29"/>
	<stop  offset="0.76" style="stop-color:#C52327"/>
	<stop  offset="1" style="stop-color:#BF2126"/>
</linearGradient>
<path class="st2" d="M0,37.6c43.9,6.8,73.2-15.3,73.2-15.3l0.1,51.1H0V37.6z"/>
<g class="st3">
	<path class="st4" d="M29.7,44.1h-3.9V28.8h-5v-3.3h14v3.3h-5V44.1z"/>
</g>
<g class="st3">
	<path class="st4" d="M52.4,31.3c0,2-0.6,3.5-1.9,4.6c-1.2,1.1-3,1.6-5.3,1.6h-1.7v6.6h-3.9V25.5h5.9c2.3,0,4,0.5,5.1,1.5
		C51.8,27.9,52.4,29.4,52.4,31.3z M43.5,34.3h1.3c1.2,0,2.1-0.2,2.7-0.7c0.6-0.5,0.9-1.2,0.9-2.1c0-0.9-0.3-1.6-0.8-2
		c-0.5-0.4-1.3-0.7-2.4-0.7h-1.8V34.3z"/>
</g>
<g class="st3">
	<path class="st5" d="M52.6,32.4c0,2-0.6,3.5-1.9,4.6s-3.1,1.6-5.4,1.6h-1.7v6.6h-4V26.6h6c2.3,0,4,0.5,5.2,1.5S52.6,30.5,52.6,32.4
		z M43.6,35.4h1.3c1.2,0,2.1-0.2,2.7-0.7c0.6-0.5,0.9-1.2,0.9-2.1c0-0.9-0.3-1.6-0.8-2s-1.3-0.7-2.4-0.7h-1.8V35.4z"/>
</g>
<g class="st3">
	<path class="st5" d="M29.8,45.2h-4V29.9h-5.1v-3.3h14.2v3.3h-5.1V45.2z"/>
</g>
</svg>
