<svg width="600" height="413" viewBox="0 0 600 413" xmlns="http://www.w3.org/2000/svg" xmlns:xlink="http://www.w3.org/1999/xlink"><defs><path d="M370.94.426c-9.868.005-19.724.37-29.52 1.014-47.898 3.14-95.164 12.554-142.926 17.332-39.784 3.98-82.2 5.498-115.166 28.103-25.634 17.577-41.959 45.761-53.924 74.43A385.287 385.287 0 00.544 244.6c-1.558 24.114-.442 49.745 12.49 70.166 13.834 21.846 38.628 33.86 62.483 43.876 8.166 3.428 16.304 6.334 24.433 8.837 0 0 172.119 78.26 284.645 29.042 0 0 15.477-12.621 93.302-33.228 14.827-2.507 29.259-6.315 42.779-12.958 37.176-18.266 61.989-56.114 72.524-96.142 4.3-16.34 6.438-33.222 6.464-50.114v-.604c-.045-29.545-6.552-59.1-19.252-85.789-20.048-42.132-55.373-76.806-97.892-96.09C447.896 5.893 409.633.448 371.417.426" id="W"/><path d="M370.94.426c-9.868.005-19.724.37-29.52 1.014-47.898 3.14-95.164 12.554-142.926 17.332-39.784 3.98-82.2 5.498-115.166 28.103-25.634 17.577-41.959 45.761-53.924 74.43A385.287 385.287 0 00.544 244.6c-1.558 24.114-.442 49.745 12.49 70.166 13.834 21.846 38.628 33.86 62.483 43.876 8.166 3.428 16.304 6.334 24.433 8.837 0 0 172.119 78.26 284.645 29.042 0 0 15.477-12.621 93.302-33.228 14.827-2.507 29.259-6.315 42.779-12.958 37.176-18.266 61.989-56.114 72.524-96.142 4.3-16.34 6.438-33.222 6.464-50.114v-.604c-.045-29.545-6.552-59.1-19.252-85.789-20.048-42.132-55.373-76.806-97.892-96.09C447.896 5.893 409.633.448 371.417.426" id="a"/><path d="M370.94.426c-9.868.005-19.724.37-29.52 1.014-47.898 3.14-95.164 12.554-142.926 17.332-39.784 3.98-82.2 5.498-115.166 28.103-25.634 17.577-41.959 45.761-53.924 74.43A385.287 385.287 0 00.544 244.6c-1.558 24.114-.442 49.745 12.49 70.166 13.834 21.846 38.628 33.86 62.483 43.876 8.166 3.428 16.304 6.334 24.433 8.837 0 0 172.119 78.26 284.645 29.042 0 0 15.477-12.621 93.302-33.228 14.827-2.507 29.259-6.315 42.779-12.958 37.176-18.266 61.989-56.114 72.524-96.142 4.3-16.34 6.438-33.222 6.464-50.114v-.604c-.045-29.545-6.552-59.1-19.252-85.789-20.048-42.132-55.373-76.806-97.892-96.09C447.896 5.893 409.633.448 371.417.426" id="e"/><path d="M370.94.426c-9.868.005-19.724.37-29.52 1.014-47.898 3.14-95.164 12.554-142.926 17.332-39.784 3.98-82.2 5.498-115.166 28.103-25.634 17.577-41.959 45.761-53.924 74.43A385.287 385.287 0 00.544 244.6c-1.558 24.114-.442 49.745 12.49 70.166 13.834 21.846 38.628 33.86 62.483 43.876 8.166 3.428 16.304 6.334 24.433 8.837 0 0 172.119 78.26 284.645 29.042 0 0 15.477-12.621 93.302-33.228 14.827-2.507 29.259-6.315 42.779-12.958 37.176-18.266 61.989-56.114 72.524-96.142 4.3-16.34 6.438-33.222 6.464-50.114v-.604c-.045-29.545-6.552-59.1-19.252-85.789-20.048-42.132-55.373-76.806-97.892-96.09C447.896 5.893 409.633.448 371.417.426h-.477z" id="g"/><path d="M370.94.426c-9.868.005-19.724.37-29.52 1.014-47.898 3.14-95.164 12.554-142.926 17.332-39.784 3.98-82.2 5.498-115.166 28.103-25.634 17.577-41.959 45.761-53.924 74.43A385.287 385.287 0 00.544 244.6c-1.558 24.114-.442 49.745 12.49 70.166 13.834 21.846 38.628 33.86 62.483 43.876 8.166 3.428 16.304 6.334 24.433 8.837 0 0 172.119 78.26 284.645 29.042 0 0 15.477-12.621 93.302-33.228 14.827-2.507 29.259-6.315 42.779-12.958 37.176-18.266 61.989-56.114 72.524-96.142 4.3-16.34 6.438-33.222 6.464-50.114v-.604c-.045-29.545-6.552-59.1-19.252-85.789-20.048-42.132-55.373-76.806-97.892-96.09C447.896 5.893 409.633.448 371.417.426h-.477z" id="i"/><path d="M370.94.426c-9.868.005-19.724.37-29.52 1.014-47.898 3.14-95.164 12.554-142.926 17.332-39.784 3.98-82.2 5.498-115.166 28.103-25.634 17.577-41.959 45.761-53.924 74.43A385.287 385.287 0 00.544 244.6c-1.558 24.114-.442 49.745 12.49 70.166 13.834 21.846 38.628 33.86 62.483 43.876 8.166 3.428 16.304 6.334 24.433 8.837 0 0 172.119 78.26 284.645 29.042 0 0 15.477-12.621 93.302-33.228 14.827-2.507 29.259-6.315 42.779-12.958 37.176-18.266 61.989-56.114 72.524-96.142 4.3-16.34 6.438-33.222 6.464-50.114v-.604c-.045-29.545-6.552-59.1-19.252-85.789-20.048-42.132-55.373-76.806-97.892-96.09C447.896 5.893 409.633.448 371.417.426h-.477z" id="k"/><path d="M370.94.426c-9.868.005-19.724.37-29.52 1.014-47.898 3.14-95.164 12.554-142.926 17.332-39.784 3.98-82.2 5.498-115.166 28.103-25.634 17.577-41.959 45.761-53.924 74.43A385.287 385.287 0 00.544 244.6c-1.558 24.114-.442 49.745 12.49 70.166 13.834 21.846 38.628 33.86 62.483 43.876 8.166 3.428 16.304 6.334 24.433 8.837 0 0 172.119 78.26 284.645 29.042 0 0 15.477-12.621 93.302-33.228 14.827-2.507 29.259-6.315 42.779-12.958 37.176-18.266 61.989-56.114 72.524-96.142 4.3-16.34 6.438-33.222 6.464-50.114v-.604c-.045-29.545-6.552-59.1-19.252-85.789-20.048-42.132-55.373-76.806-97.892-96.09C447.896 5.893 409.633.448 371.417.426h-.477z" id="m"/><path d="M370.94.426c-9.868.005-19.724.37-29.52 1.014-47.898 3.14-95.164 12.554-142.926 17.332-39.784 3.98-82.2 5.498-115.166 28.103-25.634 17.577-41.959 45.761-53.924 74.43A385.287 385.287 0 00.544 244.6c-1.558 24.114-.442 49.745 12.49 70.166 13.834 21.846 38.628 33.86 62.483 43.876 8.166 3.428 16.304 6.334 24.433 8.837 0 0 172.119 78.26 284.645 29.042 0 0 15.477-12.621 93.302-33.228 14.827-2.507 29.259-6.315 42.779-12.958 37.176-18.266 61.989-56.114 72.524-96.142 4.3-16.34 6.438-33.222 6.464-50.114v-.604c-.045-29.545-6.552-59.1-19.252-85.789-20.048-42.132-55.373-76.806-97.892-96.09C447.896 5.893 409.633.448 371.417.426h-.477z" id="o"/><path d="M370.94.426c-9.868.005-19.724.37-29.52 1.014-47.898 3.14-95.164 12.554-142.926 17.332-39.784 3.98-82.2 5.498-115.166 28.103-25.634 17.577-41.959 45.761-53.924 74.43A385.287 385.287 0 00.544 244.6c-1.558 24.114-.442 49.745 12.49 70.166 13.834 21.846 38.628 33.86 62.483 43.876 8.166 3.428 16.304 6.334 24.433 8.837 0 0 172.119 78.26 284.645 29.042 0 0 15.477-12.621 93.302-33.228 14.827-2.507 29.259-6.315 42.779-12.958 37.176-18.266 61.989-56.114 72.524-96.142 4.3-16.34 6.438-33.222 6.464-50.114v-.604c-.045-29.545-6.552-59.1-19.252-85.789-20.048-42.132-55.373-76.806-97.892-96.09C447.896 5.893 409.633.448 371.417.426" id="q"/><path d="M370.94.426c-9.868.005-19.724.37-29.52 1.014-47.898 3.14-95.164 12.554-142.926 17.332-39.784 3.98-82.2 5.498-115.166 28.103-25.634 17.577-41.959 45.761-53.924 74.43A385.287 385.287 0 00.544 244.6c-1.558 24.114-.442 49.745 12.49 70.166 13.834 21.846 38.628 33.86 62.483 43.876 8.166 3.428 16.304 6.334 24.433 8.837 0 0 172.119 78.26 284.645 29.042 0 0 15.477-12.621 93.302-33.228 14.827-2.507 29.259-6.315 42.779-12.958 37.176-18.266 61.989-56.114 72.524-96.142 4.3-16.34 6.438-33.222 6.464-50.114v-.604c-.045-29.545-6.552-59.1-19.252-85.789-20.048-42.132-55.373-76.806-97.892-96.09C447.896 5.893 409.633.448 371.417.426h-.477z" id="s"/><path d="M370.94.426c-9.868.005-19.724.37-29.52 1.014-47.898 3.14-95.164 12.554-142.926 17.332-39.784 3.98-82.2 5.498-115.166 28.103-25.634 17.577-41.959 45.761-53.924 74.43A385.287 385.287 0 00.544 244.6c-1.558 24.114-.442 49.745 12.49 70.166 13.834 21.846 38.628 33.86 62.483 43.876 8.166 3.428 16.304 6.334 24.433 8.837 0 0 172.119 78.26 284.645 29.042 0 0 15.477-12.621 93.302-33.228 14.827-2.507 29.259-6.315 42.779-12.958 37.176-18.266 61.989-56.114 72.524-96.142 4.3-16.34 6.438-33.222 6.464-50.114v-.604c-.045-29.545-6.552-59.1-19.252-85.789-20.048-42.132-55.373-76.806-97.892-96.09C447.896 5.893 409.633.448 371.417.426" id="u"/><path d="M370.94.426c-9.868.005-19.724.37-29.52 1.014-47.898 3.14-95.164 12.554-142.926 17.332-39.784 3.98-82.2 5.498-115.166 28.103-25.634 17.577-41.959 45.761-53.924 74.43A385.287 385.287 0 00.544 244.6c-1.558 24.114-.442 49.745 12.49 70.166 13.834 21.846 38.628 33.86 62.483 43.876 8.166 3.428 16.304 6.334 24.433 8.837 0 0 172.119 78.26 284.645 29.042 0 0 15.477-12.621 93.302-33.228 14.827-2.507 29.259-6.315 42.779-12.958 37.176-18.266 61.989-56.114 72.524-96.142 4.3-16.34 6.438-33.222 6.464-50.114v-.604c-.045-29.545-6.552-59.1-19.252-85.789-20.048-42.132-55.373-76.806-97.892-96.09C447.896 5.893 409.633.448 371.417.426h-.477z" id="w"/><path d="M370.94.426c-9.868.005-19.724.37-29.52 1.014-47.898 3.14-95.164 12.554-142.926 17.332-39.784 3.98-82.2 5.498-115.166 28.103-25.634 17.577-41.959 45.761-53.924 74.43A385.287 385.287 0 00.544 244.6c-1.558 24.114-.442 49.745 12.49 70.166 13.834 21.846 38.628 33.86 62.483 43.876 8.166 3.428 16.304 6.334 24.433 8.837 0 0 172.119 78.26 284.645 29.042 0 0 15.477-12.621 93.302-33.228 14.827-2.507 29.259-6.315 42.779-12.958 37.176-18.266 61.989-56.114 72.524-96.142 4.3-16.34 6.438-33.222 6.464-50.114v-.604c-.045-29.545-6.552-59.1-19.252-85.789-20.048-42.132-55.373-76.806-97.892-96.09C447.896 5.893 409.633.448 371.417.426h-.477z" id="y"/><path d="M370.94.426c-9.868.005-19.724.37-29.52 1.014-47.898 3.14-95.164 12.554-142.926 17.332-39.784 3.98-82.2 5.498-115.166 28.103-25.634 17.577-41.959 45.761-53.924 74.43A385.287 385.287 0 00.544 244.6c-1.558 24.114-.442 49.745 12.49 70.166 13.834 21.846 38.628 33.86 62.483 43.876 8.166 3.428 16.304 6.334 24.433 8.837 0 0 172.119 78.26 284.645 29.042 0 0 15.477-12.621 93.302-33.228 14.827-2.507 29.259-6.315 42.779-12.958 37.176-18.266 61.989-56.114 72.524-96.142 4.3-16.34 6.438-33.222 6.464-50.114v-.604c-.045-29.545-6.552-59.1-19.252-85.789-20.048-42.132-55.373-76.806-97.892-96.09C447.896 5.893 409.633.448 371.417.426" id="A"/><path d="M370.94.426c-9.868.005-19.724.37-29.52 1.014-47.898 3.14-95.164 12.554-142.926 17.332-39.784 3.98-82.2 5.498-115.166 28.103-25.634 17.577-41.959 45.761-53.924 74.43A385.287 385.287 0 00.544 244.6c-1.558 24.114-.442 49.745 12.49 70.166 13.834 21.846 38.628 33.86 62.483 43.876 8.166 3.428 16.304 6.334 24.433 8.837 0 0 172.119 78.26 284.645 29.042 0 0 15.477-12.621 93.302-33.228 14.827-2.507 29.259-6.315 42.779-12.958 37.176-18.266 61.989-56.114 72.524-96.142 4.3-16.34 6.438-33.222 6.464-50.114v-.604c-.045-29.545-6.552-59.1-19.252-85.789-20.048-42.132-55.373-76.806-97.892-96.09C447.896 5.893 409.633.448 371.417.426" id="C"/><path d="M370.94.426c-9.868.005-19.724.37-29.52 1.014-47.898 3.14-95.164 12.554-142.926 17.332-39.784 3.98-82.2 5.498-115.166 28.103-25.634 17.577-41.959 45.761-53.924 74.43A385.287 385.287 0 00.544 244.6c-1.558 24.114-.442 49.745 12.49 70.166 13.834 21.846 38.628 33.86 62.483 43.876 8.166 3.428 16.304 6.334 24.433 8.837 0 0 172.119 78.26 284.645 29.042 0 0 15.477-12.621 93.302-33.228 14.827-2.507 29.259-6.315 42.779-12.958 37.176-18.266 61.989-56.114 72.524-96.142 4.3-16.34 6.438-33.222 6.464-50.114v-.604c-.045-29.545-6.552-59.1-19.252-85.789-20.048-42.132-55.373-76.806-97.892-96.09C447.896 5.893 409.633.448 371.417.426" id="E"/><path d="M370.94.426c-9.868.005-19.724.37-29.52 1.014-47.898 3.14-95.164 12.554-142.926 17.332-39.784 3.98-82.2 5.498-115.166 28.103-25.634 17.577-41.959 45.761-53.924 74.43A385.287 385.287 0 00.544 244.6c-1.558 24.114-.442 49.745 12.49 70.166 13.834 21.846 38.628 33.86 62.483 43.876 8.166 3.428 16.304 6.334 24.433 8.837 0 0 172.119 78.26 284.645 29.042 0 0 15.477-12.621 93.302-33.228 14.827-2.507 29.259-6.315 42.779-12.958 37.176-18.266 61.989-56.114 72.524-96.142 4.3-16.34 6.438-33.222 6.464-50.114v-.604c-.045-29.545-6.552-59.1-19.252-85.789-20.048-42.132-55.373-76.806-97.892-96.09C447.896 5.893 409.633.448 371.417.426" id="G"/><path d="M370.94.426c-9.868.005-19.724.37-29.52 1.014-47.898 3.14-95.164 12.554-142.926 17.332-39.784 3.98-82.2 5.498-115.166 28.103-25.634 17.577-41.959 45.761-53.924 74.43A385.287 385.287 0 00.544 244.6c-1.558 24.114-.442 49.745 12.49 70.166 13.834 21.846 38.628 33.86 62.483 43.876 8.166 3.428 16.304 6.334 24.433 8.837 0 0 172.119 78.26 284.645 29.042 0 0 15.477-12.621 93.302-33.228 14.827-2.507 29.259-6.315 42.779-12.958 37.176-18.266 61.989-56.114 72.524-96.142 4.3-16.34 6.438-33.222 6.464-50.114v-.604c-.045-29.545-6.552-59.1-19.252-85.789-20.048-42.132-55.373-76.806-97.892-96.09C447.896 5.893 409.633.448 371.417.426h-.477z" id="I"/><path d="M370.94.426c-9.868.005-19.724.37-29.52 1.014-47.898 3.14-95.164 12.554-142.926 17.332-39.784 3.98-82.2 5.498-115.166 28.103-25.634 17.577-41.959 45.761-53.924 74.43A385.287 385.287 0 00.544 244.6c-1.558 24.114-.442 49.745 12.49 70.166 13.834 21.846 38.628 33.86 62.483 43.876 8.166 3.428 16.304 6.334 24.433 8.837 0 0 172.119 78.26 284.645 29.042 0 0 15.477-12.621 93.302-33.228 14.827-2.507 29.259-6.315 42.779-12.958 37.176-18.266 61.989-56.114 72.524-96.142 4.3-16.34 6.438-33.222 6.464-50.114v-.604c-.045-29.545-6.552-59.1-19.252-85.789-20.048-42.132-55.373-76.806-97.892-96.09C447.896 5.893 409.633.448 371.417.426" id="K"/><path d="M370.94.426c-9.868.005-19.724.37-29.52 1.014-47.898 3.14-95.164 12.554-142.926 17.332-39.784 3.98-82.2 5.498-115.166 28.103-25.634 17.577-41.959 45.761-53.924 74.43A385.287 385.287 0 00.544 244.6c-1.558 24.114-.442 49.745 12.49 70.166 13.834 21.846 38.628 33.86 62.483 43.876 8.166 3.428 16.304 6.334 24.433 8.837 0 0 172.119 78.26 284.645 29.042 0 0 15.477-12.621 93.302-33.228 14.827-2.507 29.259-6.315 42.779-12.958 37.176-18.266 61.989-56.114 72.524-96.142 4.3-16.34 6.438-33.222 6.464-50.114v-.604c-.045-29.545-6.552-59.1-19.252-85.789-20.048-42.132-55.373-76.806-97.892-96.09C447.896 5.893 409.633.448 371.417.426h-.477z" id="M"/><path d="M370.94.426c-9.868.005-19.724.37-29.52 1.014-47.898 3.14-95.164 12.554-142.926 17.332-39.784 3.98-82.2 5.498-115.166 28.103-25.634 17.577-41.959 45.761-53.924 74.43A385.287 385.287 0 00.544 244.6c-1.558 24.114-.442 49.745 12.49 70.166 13.834 21.846 38.628 33.86 62.483 43.876 8.166 3.428 16.304 6.334 24.433 8.837 0 0 172.119 78.26 284.645 29.042 0 0 15.477-12.621 93.302-33.228 14.827-2.507 29.259-6.315 42.779-12.958 37.176-18.266 61.989-56.114 72.524-96.142 4.3-16.34 6.438-33.222 6.464-50.114v-.604c-.045-29.545-6.552-59.1-19.252-85.789-20.048-42.132-55.373-76.806-97.892-96.09C447.896 5.893 409.633.448 371.417.426h-.477z" id="O"/><path d="M370.94.426c-9.868.005-19.724.37-29.52 1.014-47.898 3.14-95.164 12.554-142.926 17.332-39.784 3.98-82.2 5.498-115.166 28.103-25.634 17.577-41.959 45.761-53.924 74.43A385.287 385.287 0 00.544 244.6c-1.558 24.114-.442 49.745 12.49 70.166 13.834 21.846 38.628 33.86 62.483 43.876 8.166 3.428 16.304 6.334 24.433 8.837 0 0 172.119 78.26 284.645 29.042 0 0 15.477-12.621 93.302-33.228 14.827-2.507 29.259-6.315 42.779-12.958 37.176-18.266 61.989-56.114 72.524-96.142 4.3-16.34 6.438-33.222 6.464-50.114v-.604c-.045-29.545-6.552-59.1-19.252-85.789-20.048-42.132-55.373-76.806-97.892-96.09C447.896 5.893 409.633.448 371.417.426" id="Q"/><path d="M370.94.426c-9.868.005-19.724.37-29.52 1.014-47.898 3.14-95.164 12.554-142.926 17.332-39.784 3.98-82.2 5.498-115.166 28.103-25.634 17.577-41.959 45.761-53.924 74.43A385.287 385.287 0 00.544 244.6c-1.558 24.114-.442 49.745 12.49 70.166 13.834 21.846 38.628 33.86 62.483 43.876 8.166 3.428 16.304 6.334 24.433 8.837 0 0 172.119 78.26 284.645 29.042 0 0 15.477-12.621 93.302-33.228 14.827-2.507 29.259-6.315 42.779-12.958 37.176-18.266 61.989-56.114 72.524-96.142 4.3-16.34 6.438-33.222 6.464-50.114v-.604c-.045-29.545-6.552-59.1-19.252-85.789-20.048-42.132-55.373-76.806-97.892-96.09C447.896 5.893 409.633.448 371.417.426" id="S"/><path d="M370.94.426c-9.868.005-19.724.37-29.52 1.014-47.898 3.14-95.164 12.554-142.926 17.332-39.784 3.98-82.2 5.498-115.166 28.103-25.634 17.577-41.959 45.761-53.924 74.43A385.287 385.287 0 00.544 244.6c-1.558 24.114-.442 49.745 12.49 70.166 13.834 21.846 38.628 33.86 62.483 43.876 8.166 3.428 16.304 6.334 24.433 8.837 0 0 172.119 78.26 284.645 29.042 0 0 15.477-12.621 93.302-33.228 14.827-2.507 29.259-6.315 42.779-12.958 37.176-18.266 61.989-56.114 72.524-96.142 4.3-16.34 6.438-33.222 6.464-50.114v-.604c-.045-29.545-6.552-59.1-19.252-85.789-20.048-42.132-55.373-76.806-97.892-96.09C447.896 5.893 409.633.448 371.417.426h-.477z" id="U"/><path d="M370.94.426c-9.868.005-19.724.37-29.52 1.014-47.898 3.14-95.164 12.554-142.926 17.332-39.784 3.98-82.2 5.498-115.166 28.103-25.634 17.577-41.959 45.761-53.924 74.43A385.287 385.287 0 00.544 244.6c-1.558 24.114-.442 49.745 12.49 70.166 13.834 21.846 38.628 33.86 62.483 43.876 8.166 3.428 16.304 6.334 24.433 8.837 0 0 172.119 78.26 284.645 29.042 0 0 15.477-12.621 93.302-33.228 14.827-2.507 29.259-6.315 42.779-12.958 37.176-18.266 61.989-56.114 72.524-96.142 4.3-16.34 6.438-33.222 6.464-50.114v-.604c-.045-29.545-6.552-59.1-19.252-85.789-20.048-42.132-55.373-76.806-97.892-96.09C447.896 5.893 409.633.448 371.417.426" id="c"/><path d="M370.94.426c-9.868.005-19.724.37-29.52 1.014-47.898 3.14-95.164 12.554-142.926 17.332-39.784 3.98-82.2 5.498-115.166 28.103-25.634 17.577-41.959 45.761-53.924 74.43A385.287 385.287 0 00.544 244.6c-1.558 24.114-.442 49.745 12.49 70.166 13.834 21.846 38.628 33.86 62.483 43.876 8.166 3.428 16.304 6.334 24.433 8.837 0 0 172.119 78.26 284.645 29.042 0 0 15.477-12.621 93.302-33.228 14.827-2.507 29.259-6.315 42.779-12.958 37.176-18.266 61.989-56.114 72.524-96.142 4.3-16.34 6.438-33.222 6.464-50.114v-.604c-.045-29.545-6.552-59.1-19.252-85.789-20.048-42.132-55.373-76.806-97.892-96.09C447.896 5.893 409.633.448 371.417.426" id="Y"/><path d="M370.94.426c-9.868.005-19.724.37-29.52 1.014-47.898 3.14-95.164 12.554-142.926 17.332-39.784 3.98-82.2 5.498-115.166 28.103-25.634 17.577-41.959 45.761-53.924 74.43A385.287 385.287 0 00.544 244.6c-1.558 24.114-.442 49.745 12.49 70.166 13.834 21.846 38.628 33.86 62.483 43.876 8.166 3.428 16.304 6.334 24.433 8.837 0 0 172.119 78.26 284.645 29.042 0 0 15.477-12.621 93.302-33.228 14.827-2.507 29.259-6.315 42.779-12.958 37.176-18.266 61.989-56.114 72.524-96.142 4.3-16.34 6.438-33.222 6.464-50.114v-.604c-.045-29.545-6.552-59.1-19.252-85.789-20.048-42.132-55.373-76.806-97.892-96.09C447.896 5.893 409.633.448 371.417.426" id="aa"/><path d="M370.94.426c-9.868.005-19.724.37-29.52 1.014-47.898 3.14-95.164 12.554-142.926 17.332-39.784 3.98-82.2 5.498-115.166 28.103-25.634 17.577-41.959 45.761-53.924 74.43A385.287 385.287 0 00.544 244.6c-1.558 24.114-.442 49.745 12.49 70.166 13.834 21.846 38.628 33.86 62.483 43.876 8.166 3.428 16.304 6.334 24.433 8.837 0 0 172.119 78.26 284.645 29.042 0 0 15.477-12.621 93.302-33.228 14.827-2.507 29.259-6.315 42.779-12.958 37.176-18.266 61.989-56.114 72.524-96.142 4.3-16.34 6.438-33.222 6.464-50.114v-.604c-.045-29.545-6.552-59.1-19.252-85.789-20.048-42.132-55.373-76.806-97.892-96.09C447.896 5.893 409.633.448 371.417.426" id="ac"/><path d="M370.94.426c-9.868.005-19.724.37-29.52 1.014-47.898 3.14-95.164 12.554-142.926 17.332-39.784 3.98-82.2 5.498-115.166 28.103-25.634 17.577-41.959 45.761-53.924 74.43A385.287 385.287 0 00.544 244.6c-1.558 24.114-.442 49.745 12.49 70.166 13.834 21.846 38.628 33.86 62.483 43.876 8.166 3.428 16.304 6.334 24.433 8.837 0 0 172.119 78.26 284.645 29.042 0 0 15.477-12.621 93.302-33.228 14.827-2.507 29.259-6.315 42.779-12.958 37.176-18.266 61.989-56.114 72.524-96.142 4.3-16.34 6.438-33.222 6.464-50.114v-.604c-.045-29.545-6.552-59.1-19.252-85.789-20.048-42.132-55.373-76.806-97.892-96.09C447.896 5.893 409.633.448 371.417.426" id="ae"/><path d="M370.94.426c-9.868.005-19.724.37-29.52 1.014-47.898 3.14-95.164 12.554-142.926 17.332-39.784 3.98-82.2 5.498-115.166 28.103-25.634 17.577-41.959 45.761-53.924 74.43A385.287 385.287 0 00.544 244.6c-1.558 24.114-.442 49.745 12.49 70.166 13.834 21.846 38.628 33.86 62.483 43.876 8.166 3.428 16.304 6.334 24.433 8.837 0 0 172.119 78.26 284.645 29.042 0 0 15.477-12.621 93.302-33.228 14.827-2.507 29.259-6.315 42.779-12.958 37.176-18.266 61.989-56.114 72.524-96.142 4.3-16.34 6.438-33.222 6.464-50.114v-.604c-.045-29.545-6.552-59.1-19.252-85.789-20.048-42.132-55.373-76.806-97.892-96.09C447.896 5.893 409.633.448 371.417.426" id="ag"/><path d="M370.94.426c-9.868.005-19.724.37-29.52 1.014-47.898 3.14-95.164 12.554-142.926 17.332-39.784 3.98-82.2 5.498-115.166 28.103-25.634 17.577-41.959 45.761-53.924 74.43A385.287 385.287 0 00.544 244.6c-1.558 24.114-.442 49.745 12.49 70.166 13.834 21.846 38.628 33.86 62.483 43.876 8.166 3.428 16.304 6.334 24.433 8.837 0 0 172.119 78.26 284.645 29.042 0 0 15.477-12.621 93.302-33.228 14.827-2.507 29.259-6.315 42.779-12.958 37.176-18.266 61.989-56.114 72.524-96.142 4.3-16.34 6.438-33.222 6.464-50.114v-.604c-.045-29.545-6.552-59.1-19.252-85.789-20.048-42.132-55.373-76.806-97.892-96.09C447.896 5.893 409.633.448 371.417.426" id="ai"/><path d="M370.94.426c-9.868.005-19.724.37-29.52 1.014-47.898 3.14-95.164 12.554-142.926 17.332-39.784 3.98-82.2 5.498-115.166 28.103-25.634 17.577-41.959 45.761-53.924 74.43A385.287 385.287 0 00.544 244.6c-1.558 24.114-.442 49.745 12.49 70.166 13.834 21.846 38.628 33.86 62.483 43.876 8.166 3.428 16.304 6.334 24.433 8.837 0 0 172.119 78.26 284.645 29.042 0 0 15.477-12.621 93.302-33.228 14.827-2.507 29.259-6.315 42.779-12.958 37.176-18.266 61.989-56.114 72.524-96.142 4.3-16.34 6.438-33.222 6.464-50.114v-.604c-.045-29.545-6.552-59.1-19.252-85.789-20.048-42.132-55.373-76.806-97.892-96.09C447.896 5.893 409.633.448 371.417.426h-.477z" id="ak"/><path d="M370.94.426c-9.868.005-19.724.37-29.52 1.014-47.898 3.14-95.164 12.554-142.926 17.332-39.784 3.98-82.2 5.498-115.166 28.103-25.634 17.577-41.959 45.761-53.924 74.43A385.287 385.287 0 00.544 244.6c-1.558 24.114-.442 49.745 12.49 70.166 13.834 21.846 38.628 33.86 62.483 43.876 8.166 3.428 16.304 6.334 24.433 8.837 0 0 172.119 78.26 284.645 29.042 0 0 15.477-12.621 93.302-33.228 14.827-2.507 29.259-6.315 42.779-12.958 37.176-18.266 61.989-56.114 72.524-96.142 4.3-16.34 6.438-33.222 6.464-50.114v-.604c-.045-29.545-6.552-59.1-19.252-85.789-20.048-42.132-55.373-76.806-97.892-96.09C447.896 5.893 409.633.448 371.417.426h-.477z" id="am"/><path d="M370.94.426c-9.868.005-19.724.37-29.52 1.014-47.898 3.14-95.164 12.554-142.926 17.332-39.784 3.98-82.2 5.498-115.166 28.103-25.634 17.577-41.959 45.761-53.924 74.43A385.287 385.287 0 00.544 244.6c-1.558 24.114-.442 49.745 12.49 70.166 13.834 21.846 38.628 33.86 62.483 43.876 8.166 3.428 16.304 6.334 24.433 8.837 0 0 172.119 78.26 284.645 29.042 0 0 15.477-12.621 93.302-33.228 14.827-2.507 29.259-6.315 42.779-12.958 37.176-18.266 61.989-56.114 72.524-96.142 4.3-16.34 6.438-33.222 6.464-50.114v-.604c-.045-29.545-6.552-59.1-19.252-85.789-20.048-42.132-55.373-76.806-97.892-96.09C447.896 5.893 409.633.448 371.417.426" id="ao"/><path d="M370.94.426c-9.868.005-19.724.37-29.52 1.014-47.898 3.14-95.164 12.554-142.926 17.332-39.784 3.98-82.2 5.498-115.166 28.103-25.634 17.577-41.959 45.761-53.924 74.43A385.287 385.287 0 00.544 244.6c-1.558 24.114-.442 49.745 12.49 70.166 13.834 21.846 38.628 33.86 62.483 43.876 8.166 3.428 16.304 6.334 24.433 8.837 0 0 172.119 78.26 284.645 29.042 0 0 15.477-12.621 93.302-33.228 14.827-2.507 29.259-6.315 42.779-12.958 37.176-18.266 61.989-56.114 72.524-96.142 4.3-16.34 6.438-33.222 6.464-50.114v-.604c-.045-29.545-6.552-59.1-19.252-85.789-20.048-42.132-55.373-76.806-97.892-96.09C447.896 5.893 409.633.448 371.417.426" id="aq"/><path d="M370.94.426c-9.868.005-19.724.37-29.52 1.014-47.898 3.14-95.164 12.554-142.926 17.332-39.784 3.98-82.2 5.498-115.166 28.103-25.634 17.577-41.959 45.761-53.924 74.43A385.287 385.287 0 00.544 244.6c-1.558 24.114-.442 49.745 12.49 70.166 13.834 21.846 38.628 33.86 62.483 43.876 8.166 3.428 16.304 6.334 24.433 8.837 0 0 172.119 78.26 284.645 29.042 0 0 15.477-12.621 93.302-33.228 14.827-2.507 29.259-6.315 42.779-12.958 37.176-18.266 61.989-56.114 72.524-96.142 4.3-16.34 6.438-33.222 6.464-50.114v-.604c-.045-29.545-6.552-59.1-19.252-85.789-20.048-42.132-55.373-76.806-97.892-96.09C447.896 5.893 409.633.448 371.417.426h-.477z" id="as"/><path d="M370.94.426c-9.868.005-19.724.37-29.52 1.014-47.898 3.14-95.164 12.554-142.926 17.332-39.784 3.98-82.2 5.498-115.166 28.103-25.634 17.577-41.959 45.761-53.924 74.43A385.287 385.287 0 00.544 244.6c-1.558 24.114-.442 49.745 12.49 70.166 13.834 21.846 38.628 33.86 62.483 43.876 8.166 3.428 16.304 6.334 24.433 8.837 0 0 172.119 78.26 284.645 29.042 0 0 15.477-12.621 93.302-33.228 14.827-2.507 29.259-6.315 42.779-12.958 37.176-18.266 61.989-56.114 72.524-96.142 4.3-16.34 6.438-33.222 6.464-50.114v-.604c-.045-29.545-6.552-59.1-19.252-85.789-20.048-42.132-55.373-76.806-97.892-96.09C447.896 5.893 409.633.448 371.417.426" id="au"/><path d="M370.94.426c-9.868.005-19.724.37-29.52 1.014-47.898 3.14-95.164 12.554-142.926 17.332-39.784 3.98-82.2 5.498-115.166 28.103-25.634 17.577-41.959 45.761-53.924 74.43A385.287 385.287 0 00.544 244.6c-1.558 24.114-.442 49.745 12.49 70.166 13.834 21.846 38.628 33.86 62.483 43.876 8.166 3.428 16.304 6.334 24.433 8.837 0 0 172.119 78.26 284.645 29.042 0 0 15.477-12.621 93.302-33.228 14.827-2.507 29.259-6.315 42.779-12.958 37.176-18.266 61.989-56.114 72.524-96.142 4.3-16.34 6.438-33.222 6.464-50.114v-.604c-.045-29.545-6.552-59.1-19.252-85.789-20.048-42.132-55.373-76.806-97.892-96.09C447.896 5.893 409.633.448 371.417.426" id="aw"/><path d="M370.94.426c-9.868.005-19.724.37-29.52 1.014-47.898 3.14-95.164 12.554-142.926 17.332-39.784 3.98-82.2 5.498-115.166 28.103-25.634 17.577-41.959 45.761-53.924 74.43A385.287 385.287 0 00.544 244.6c-1.558 24.114-.442 49.745 12.49 70.166 13.834 21.846 38.628 33.86 62.483 43.876 8.166 3.428 16.304 6.334 24.433 8.837 0 0 172.119 78.26 284.645 29.042 0 0 15.477-12.621 93.302-33.228 14.827-2.507 29.259-6.315 42.779-12.958 37.176-18.266 61.989-56.114 72.524-96.142 4.3-16.34 6.438-33.222 6.464-50.114v-.604c-.045-29.545-6.552-59.1-19.252-85.789-20.048-42.132-55.373-76.806-97.892-96.09C447.896 5.893 409.633.448 371.417.426" id="ay"/><path d="M370.94.426c-9.868.005-19.724.37-29.52 1.014-47.898 3.14-95.164 12.554-142.926 17.332-39.784 3.98-82.2 5.498-115.166 28.103-25.634 17.577-41.959 45.761-53.924 74.43A385.287 385.287 0 00.544 244.6c-1.558 24.114-.442 49.745 12.49 70.166 13.834 21.846 38.628 33.86 62.483 43.876 8.166 3.428 16.304 6.334 24.433 8.837 0 0 172.119 78.26 284.645 29.042 0 0 15.477-12.621 93.302-33.228 14.827-2.507 29.259-6.315 42.779-12.958 37.176-18.266 61.989-56.114 72.524-96.142 4.3-16.34 6.438-33.222 6.464-50.114v-.604c-.045-29.545-6.552-59.1-19.252-85.789-20.048-42.132-55.373-76.806-97.892-96.09C447.896 5.893 409.633.448 371.417.426h-.477z" id="aA"/><path d="M370.94.426c-9.868.005-19.724.37-29.52 1.014-47.898 3.14-95.164 12.554-142.926 17.332-39.784 3.98-82.2 5.498-115.166 28.103-25.634 17.577-41.959 45.761-53.924 74.43A385.287 385.287 0 00.544 244.6c-1.558 24.114-.442 49.745 12.49 70.166 13.834 21.846 38.628 33.86 62.483 43.876 8.166 3.428 16.304 6.334 24.433 8.837 0 0 172.119 78.26 284.645 29.042 0 0 15.477-12.621 93.302-33.228 14.827-2.507 29.259-6.315 42.779-12.958 37.176-18.266 61.989-56.114 72.524-96.142 4.3-16.34 6.438-33.222 6.464-50.114v-.604c-.045-29.545-6.552-59.1-19.252-85.789-20.048-42.132-55.373-76.806-97.892-96.09C447.896 5.893 409.633.448 371.417.426" id="aC"/><path d="M370.94.426c-9.868.005-19.724.37-29.52 1.014-47.898 3.14-95.164 12.554-142.926 17.332-39.784 3.98-82.2 5.498-115.166 28.103-25.634 17.577-41.959 45.761-53.924 74.43A385.287 385.287 0 00.544 244.6c-1.558 24.114-.442 49.745 12.49 70.166 13.834 21.846 38.628 33.86 62.483 43.876 8.166 3.428 16.304 6.334 24.433 8.837 0 0 172.119 78.26 284.645 29.042 0 0 15.477-12.621 93.302-33.228 14.827-2.507 29.259-6.315 42.779-12.958 37.176-18.266 61.989-56.114 72.524-96.142 4.3-16.34 6.438-33.222 6.464-50.114v-.604c-.045-29.545-6.552-59.1-19.252-85.789-20.048-42.132-55.373-76.806-97.892-96.09C447.896 5.893 409.633.448 371.417.426" id="aE"/><path d="M370.94.426c-9.868.005-19.724.37-29.52 1.014-47.898 3.14-95.164 12.554-142.926 17.332-39.784 3.98-82.2 5.498-115.166 28.103-25.634 17.577-41.959 45.761-53.924 74.43A385.287 385.287 0 00.544 244.6c-1.558 24.114-.442 49.745 12.49 70.166 13.834 21.846 38.628 33.86 62.483 43.876 8.166 3.428 16.304 6.334 24.433 8.837 0 0 172.119 78.26 284.645 29.042 0 0 15.477-12.621 93.302-33.228 14.827-2.507 29.259-6.315 42.779-12.958 37.176-18.266 61.989-56.114 72.524-96.142 4.3-16.34 6.438-33.222 6.464-50.114v-.604c-.045-29.545-6.552-59.1-19.252-85.789-20.048-42.132-55.373-76.806-97.892-96.09C447.896 5.893 409.633.448 371.417.426" id="aG"/><path d="M370.94.426c-9.868.005-19.724.37-29.52 1.014-47.898 3.14-95.164 12.554-142.926 17.332-39.784 3.98-82.2 5.498-115.166 28.103-25.634 17.577-41.959 45.761-53.924 74.43A385.287 385.287 0 00.544 244.6c-1.558 24.114-.442 49.745 12.49 70.166 13.834 21.846 38.628 33.86 62.483 43.876 8.166 3.428 16.304 6.334 24.433 8.837 0 0 172.119 78.26 284.645 29.042 0 0 15.477-12.621 93.302-33.228 14.827-2.507 29.259-6.315 42.779-12.958 37.176-18.266 61.989-56.114 72.524-96.142 4.3-16.34 6.438-33.222 6.464-50.114v-.604c-.045-29.545-6.552-59.1-19.252-85.789-20.048-42.132-55.373-76.806-97.892-96.09C447.896 5.893 409.633.448 371.417.426" id="aI"/><path d="M370.94.426c-9.868.005-19.724.37-29.52 1.014-47.898 3.14-95.164 12.554-142.926 17.332-39.784 3.98-82.2 5.498-115.166 28.103-25.634 17.577-41.959 45.761-53.924 74.43A385.287 385.287 0 00.544 244.6c-1.558 24.114-.442 49.745 12.49 70.166 13.834 21.846 38.628 33.86 62.483 43.876 8.166 3.428 16.304 6.334 24.433 8.837 0 0 172.119 78.26 284.645 29.042 0 0 15.477-12.621 93.302-33.228 14.827-2.507 29.259-6.315 42.779-12.958 37.176-18.266 61.989-56.114 72.524-96.142 4.3-16.34 6.438-33.222 6.464-50.114v-.604c-.045-29.545-6.552-59.1-19.252-85.789-20.048-42.132-55.373-76.806-97.892-96.09C447.896 5.893 409.633.448 371.417.426" id="aK"/><path d="M370.94.426c-9.868.005-19.724.37-29.52 1.014-47.898 3.14-95.164 12.554-142.926 17.332-39.784 3.98-82.2 5.498-115.166 28.103-25.634 17.577-41.959 45.761-53.924 74.43A385.287 385.287 0 00.544 244.6c-1.558 24.114-.442 49.745 12.49 70.166 13.834 21.846 38.628 33.86 62.483 43.876 8.166 3.428 16.304 6.334 24.433 8.837 0 0 172.119 78.26 284.645 29.042 0 0 15.477-12.621 93.302-33.228 14.827-2.507 29.259-6.315 42.779-12.958 37.176-18.266 61.989-56.114 72.524-96.142 4.3-16.34 6.438-33.222 6.464-50.114v-.604c-.045-29.545-6.552-59.1-19.252-85.789-20.048-42.132-55.373-76.806-97.892-96.09C447.896 5.893 409.633.448 371.417.426" id="aM"/><path d="M370.94.426c-9.868.005-19.724.37-29.52 1.014-47.898 3.14-95.164 12.554-142.926 17.332-39.784 3.98-82.2 5.498-115.166 28.103-25.634 17.577-41.959 45.761-53.924 74.43A385.287 385.287 0 00.544 244.6c-1.558 24.114-.442 49.745 12.49 70.166 13.834 21.846 38.628 33.86 62.483 43.876 8.166 3.428 16.304 6.334 24.433 8.837 0 0 172.119 78.26 284.645 29.042 0 0 15.477-12.621 93.302-33.228 14.827-2.507 29.259-6.315 42.779-12.958 37.176-18.266 61.989-56.114 72.524-96.142 4.3-16.34 6.438-33.222 6.464-50.114v-.604c-.045-29.545-6.552-59.1-19.252-85.789-20.048-42.132-55.373-76.806-97.892-96.09C447.896 5.893 409.633.448 371.417.426" id="aO"/><path d="M370.94.426c-9.868.005-19.724.37-29.52 1.014-47.898 3.14-95.164 12.554-142.926 17.332-39.784 3.98-82.2 5.498-115.166 28.103-25.634 17.577-41.959 45.761-53.924 74.43A385.287 385.287 0 00.544 244.6c-1.558 24.114-.442 49.745 12.49 70.166 13.834 21.846 38.628 33.86 62.483 43.876 8.166 3.428 16.304 6.334 24.433 8.837 0 0 172.119 78.26 284.645 29.042 0 0 15.477-12.621 93.302-33.228 14.827-2.507 29.259-6.315 42.779-12.958 37.176-18.266 61.989-56.114 72.524-96.142 4.3-16.34 6.438-33.222 6.464-50.114v-.604c-.045-29.545-6.552-59.1-19.252-85.789-20.048-42.132-55.373-76.806-97.892-96.09C447.896 5.893 409.633.448 371.417.426" id="aQ"/></defs><g fill="none" fill-rule="evenodd"><g><mask id="b" fill="#fff"><use xlink:href="#a"/></mask><path d="M580.412 117.687c-20.048-42.132-55.373-76.806-97.892-96.09C438.812 1.773 389.317-1.702 341.42 1.44c-47.898 3.14-95.164 12.554-142.926 17.332-39.784 3.98-82.2 5.498-115.166 28.103-25.634 17.577-41.959 45.761-53.924 74.43A385.265 385.265 0 00.543 244.6c-1.557 24.114-.441 49.745 12.49 70.166 13.835 21.846 38.629 33.86 62.484 43.876 8.167 3.428 16.305 6.334 24.433 8.837 0 0 172.119 78.26 284.645 29.042 0 0 15.477-12.621 93.302-33.228 14.827-2.508 29.259-6.315 42.779-12.958 37.176-18.266 61.989-56.114 72.524-96.142 11.875-45.117 7.26-94.375-12.788-136.507" fill="#EFF8FD" mask="url(#b)"/></g><g><mask id="d" fill="#fff"><use xlink:href="#c"/></mask><path d="M88.267 265.67l-9.004-4.523s-1.975-1.787-9.653-3.057c0 0-13.278-1.914-21.796-11.522 0 0-5.37-6.659-10.881-10.199 0 0-8.446-8.318-16.329-23.205 0 0-1.674-5.448.492-5.448 0 0 .765-2.85 5.056.56 0 0 1.952-2.294 4.708-.917 0 0 12.707 11.995 16.983 15.339 0 0 7.82 5.376 20.418 6.227l15.748 2.229 4.288 6.292 11.713 4.693" fill="#EED5C9" mask="url(#d)"/></g><g><mask id="f" fill="#fff"><use xlink:href="#e"/></mask><path d="M95.694 240.643l-7.397-3.197c-1.42-1.18-4.289-6.292-4.289-6.292-7.086-6.097-14.368-5.703-14.368-5.703-6.299-.787-16.537-4.917-16.537-4.917-4.527-.786-6.484 1.167-6.484 1.167s6.145 5.075 16.354 6.576c0 0 16.32 1.039 25.324 9.17" fill="#DBBDB1" mask="url(#f)"/></g><g><mask id="h" fill="#fff"><use xlink:href="#g"/></mask><path d="M237.37 422.512s8.566 162.744 18.32 355.79c0 0 12.283-8.736 52.793 1.121 0 0 .162-121.742-.428-153.969 0 0-5.47-184.441 9.312-190.283 0 0 8.908-1.467 11.107 14.837 0 0 11.232 104.326 17.984 163.533 0 0 14.778 133.242 20.03 165.157 0 0 30.275-7.578 49.78-.395 0 0-6.07-272.774-15.072-356.24l-83.829-57.043-79.997 57.492z" fill="#6A778B" mask="url(#h)"/></g><g><mask id="j" fill="#fff"><use xlink:href="#i"/></mask><path d="M402.232 430.944s-25.812-1.47-47.187 4.132c0 0-10.762 1.727-14.333 15.113 0 0-5.557 24.136 4.095 78.69 0 0 8.775 60.837 9.068 94.514 0 0 2.305 75.83 16.801 154.397l-4.189.908s-20.208-150.146-24.161-201.925c0 0-12.333-114.517-14.14-128.587 0 0-2.282-13.422-10.819-13.015 0 0-1.847 1.052-2.907 3.954 0 0-14.07 9.829-43.593 12.439 0 0-14.109-1.044-17.243 19.863 0 0-5.633 39.915 2.849 95.832 0 0 3.54 31.976.957 113.189 0 0-5.21 53.984 3.497 95.807 0 0-2.22-.324-5.238 2.048 0 0-6.564-129.106-8.447-165.669 0 0-7.444-147.872-9.127-175.945l75.98-53.708 88.137 42.954v5.009z" fill="#44526B" mask="url(#j)"/></g><g><mask id="l" fill="#fff"><use xlink:href="#k"/></mask><path fill="#EED5C9" mask="url(#l)" d="M298.62 150.736V137.36l15.826-8.947 21.4 7.52v14.446l-20.841 22.821z"/></g><g><mask id="n" fill="#fff"><use xlink:href="#m"/></mask><path fill="#DBBDB1" mask="url(#n)" d="M325.62 143.457l-18.108 13.68-8.892-6.401v-15.517z"/></g><g><mask id="p" fill="#fff"><use xlink:href="#o"/></mask><path d="M293.59 98.613s0 31.883 2.524 36.59c1.679 3.132 12.84 8.497 15.283 9.388 2.444.89 8.257.966 11.24 0 2.982-.967 14.022-5.582 14.883-9.017.861-3.435 2.749-30.768.81-41.406l-4.737-10.462h-31.82l-8.183 14.907z" fill="#EED5C9" mask="url(#p)"/></g><g><mask id="r" fill="#fff"><use xlink:href="#q"/></mask><path d="M316.215 114.486s.6 5.4-.988 8.444c0 0 .218 1.865 3.836 2.356 0 0-.666 1.571-2.848 1.767 0 0-3.686-1.178-3.362-4.614 0 0 3.578-6.774 3.362-7.953" fill="#DBBDB1" mask="url(#r)"/></g><g><mask id="t" fill="#fff"><use xlink:href="#s"/></mask><path d="M282.187 88.358s9.113 13.791 12.036 30.348c0 0-.308-16.06 4.396-19.931l-5.029-13.182-11.403 2.765z" fill="#262626" mask="url(#t)"/></g><g><mask id="v" fill="#fff"><use xlink:href="#u"/></mask><path d="M339.13 115.337s1.827-10.362 10.247-20.126l-13.53-11.505-2.572 6.727s6.226 13.59 5.856 24.904" fill="#262626" mask="url(#v)"/></g><g><mask id="x" fill="#fff"><use xlink:href="#w"/></mask><path d="M293.59 113.505s-.875-7.094-4.318-3.919c0 0-3.547 4.305 2.199 10.75 0 0 1.191 3.363 2.939 2.524l-.82-9.355z" fill="#EED5C9" mask="url(#x)"/></g><g><mask id="z" fill="#fff"><use xlink:href="#y"/></mask><path d="M339.13 113.505s.876-7.094 4.319-3.919c0 0 3.547 4.305-2.198 10.75 0 0-1.192 3.363-2.94 2.524l.82-9.355z" fill="#EED5C9" mask="url(#z)"/></g><g><mask id="B" fill="#fff"><use xlink:href="#A"/></mask><path d="M286.724 65.204s-9.456 7.986-6.182 18.242c0 0 2.91 14.95 15.275 15.328 0 0 10.182.158 20.002-4.092 0 0 10.547-7.52 17.456-4.25 0 0 7.275 6.149 13.457 6.163 0 0 6.547-1.85 6.183-9.274 0 0 .602-13.487-14.064-10.456 0 0-9.212 1.941-14.668-3.872 0 0-5.818-8.374-19.274-11.454 0 0-10.5-2.655-18.185 3.665" fill="#262626" mask="url(#B)"/></g><g><mask id="D" fill="#fff"><use xlink:href="#C"/></mask><path d="M309.294 131.131s6.615 3.92 14.177 0" stroke="#DBBDB1" stroke-width=".856" stroke-linecap="round" stroke-linejoin="round" mask="url(#D)"/></g><g><mask id="F" fill="#fff"><use xlink:href="#E"/></mask><path d="M310.201 110.616c0 1.79-.96 3.24-2.146 3.24-1.185 0-2.146-1.45-2.146-3.24 0-1.79.961-3.24 2.146-3.24 1.186 0 2.146 1.45 2.146 3.24" fill="#262626" mask="url(#F)"/></g><g><mask id="H" fill="#fff"><use xlink:href="#G"/></mask><path d="M326.856 110.616c0 1.79-.96 3.24-2.146 3.24-1.185 0-2.146-1.45-2.146-3.24 0-1.79.96-3.24 2.146-3.24 1.185 0 2.146 1.45 2.146 3.24" fill="#262626" mask="url(#H)"/></g><g><mask id="J" fill="#fff"><use xlink:href="#I"/></mask><path fill="#E1EBF4" mask="url(#J)" d="M312.75 167.366l33.66-10.346-19.066 139.284-41.022 11.015 6.1-150.533z"/></g><g><mask id="L" fill="#fff"><use xlink:href="#K"/></mask><path d="M293.385 171.87s2.299 14.16 5.84 16.205c0 0 1.103 1.652 3.15-1.1 0 0 2.204-6.214 3.464-5.113 0 0 1.228 2.513 2.99 2.449l-.628-12.83-15.778-14.695s-1.808 9.967.962 15.084" fill="#A1B8C4" mask="url(#L)"/></g><g><mask id="N" fill="#fff"><use xlink:href="#M"/></mask><path d="M326.856 176.702s3.544 9.014 3.623 13.654c0 0 .315 2.36 1.575 2.517 0 0 2.39.078 3.792-2.989 0 0 10.356-21.215 10.563-32.864l-19.553 19.682z" fill="#A1B8C4" mask="url(#N)"/></g><g><mask id="P" fill="#fff"><use xlink:href="#O"/></mask><path d="M308.83 184.311s.031.645-2.56-.975c0 0-.918-.452-1.876 1.19 0 0-1.017 4.945-4.058 6.596 0 0-3.233 1.496-3.866 5.78 0 0-.456 9.417 1.72 26.328 0 0-11.467-54.653-5.767-66.444l11.971 1.069 4.436 26.456z" fill="#A1B8C4" mask="url(#P)"/></g><g><mask id="R" fill="#fff"><use xlink:href="#Q"/></mask><path d="M308.83 184.311s-8.177 35.941-6.849 80.896l11.402 48.545 12.238-47.495s6.509-28.388-1.128-82.308c0 0-8.939-5.802-15.663.362" fill="#ED2E26" mask="url(#R)"/></g><g><mask id="T" fill="#fff"><use xlink:href="#S"/></mask><path d="M306.323 176.7s-.638 4.747 2.507 7.611c0 0 .321.483 1.394 0 0 0 8.624-1.621 13.002.215 0 0 1.052.026 1.266-.577 0 0 2.471-4.079 2.364-7.247 0 0-2.052-10.061-10.415-10.392 0 0-7.973-.312-10.118 10.39" fill="#ED2E26" mask="url(#T)"/></g><g><mask id="V" fill="#fff"><use xlink:href="#U"/></mask><path d="M308.83 173.689s-1.21 4.354.191 6.85c0 0 .542 1.35 1.851 2.05 0 0 6.549-.831 12.354 1.937 0 0-3.756-1.545-13.002-.215 0 0-1.156.215-1.394 0-.339-.304-.333-.312-.795-.859 0 0-2.24-2.568-1.899-6.89l2.694-2.873z" fill="#991F20" mask="url(#V)"/></g><g><mask id="X" fill="#fff"><use xlink:href="#W"/></mask><path d="M346.41 157.02s-8.26-8.694-9.65-11.268c0 0-.47-.667-1.132 0 0 0-12.587 16.77-19.262 20.503 0 0 10.177 3.496 16.19 22.85.356 1.147 7.11-15.26 13.853-32.085" fill="#E1EBF4" mask="url(#X)"/></g><g><mask id="Z" fill="#fff"><use xlink:href="#Y"/></mask><path d="M316.366 166.255s-8.74-11.805-17.038-18.77c0 0-.773-.822-1.417-.024 0 0-3.101 5.088-5.488 9.326 0 0 6.06 30.724 7.736 30.18 1.676-.543 7.825-15.747 16.207-20.712" fill="#E1EBF4" mask="url(#Z)"/></g><g><mask id="ab" fill="#fff"><use xlink:href="#aa"/></mask><path d="M323.434 184.526s.72.025 1.059-.577c0 0 1.055-1.802 1.739-3.782 0 0-1.622 3.979-2.798 4.359" fill="#991F20" mask="url(#ab)"/></g><g><mask id="ad" fill="#fff"><use xlink:href="#ac"/></mask><path d="M323.226 184.526s-8.672-.66-11.745 1.823c0 0-2.68.587-3.334 12.018 0 0-.48 13.588-3.073 24.494 0 0-2.996 18.22-2.806 29.946 0 0-1.357-31.651 6.562-68.496 0 0 9.326-2.053 14.396.215" fill="#991F20" mask="url(#ad)"/></g><g><mask id="af" fill="#fff"><use xlink:href="#ae"/></mask><path d="M173.733 255.294s-8.198 10.867-6.5 27.82c0 0-.152-13.467 6.5-27.82" fill="#231F20" mask="url(#af)"/></g><g><mask id="ah" fill="#fff"><use xlink:href="#ag"/></mask><path d="M173.733 255.294s-5.652 15.317 3.894 34.813c0 0-5.667-20.672-3.894-34.813" fill="#231F20" mask="url(#ah)"/></g><g><mask id="aj" fill="#fff"><use xlink:href="#ai"/></mask><path d="M173.733 255.294s3.894 17.86 13.227 24.43c0 0-9.485-13.044-13.227-24.43" fill="#231F20" mask="url(#aj)"/></g><g><mask id="al" fill="#fff"><use xlink:href="#ak"/></mask><path d="M399.73 264.398l-10.187-10.486s7.222 19.454 10.187 66.923v-56.437z" fill="#231F20" mask="url(#al)"/></g><g><mask id="an" fill="#fff"><use xlink:href="#am"/></mask><path d="M398.792 230.219l.938 34.18s.19 61.827 0 94.94c0 0 10.301 60.314 13.302 69.031 0 0-29.245 3.502-56.252-1.968 0 0-24.756-5.028-40.51 1.121 0 0-4.918-47.015-3.584-81.139 0 0 .764-20.032.764-46.35 0 0 10.342-33.147 19.616-69.815h65.726z" fill="#131A23" mask="url(#an)"/></g><g><mask id="ap" fill="#fff"><use xlink:href="#ao"/></mask><path d="M100.01 236.184s-3.127-2.323-3.494-1.711c0 0-15.6 15.791-10.335 39.397 0 0-.193 1.546 2.842 2.18" fill="#E1EBF4" mask="url(#ap)"/></g><g><mask id="ar" fill="#fff"><use xlink:href="#aq"/></mask><path d="M399.73 339.273s-5.095 12.503-13.58 18.437c0 0-14.85 13.139-12.304 21.827 0 0 2.121 18.014 18.455 19.497 0 0 9.26-1.468 18.843 21.836 0 0-11.62-61.889-11.414-81.597" fill="#000" mask="url(#ar)"/></g><g><mask id="at" fill="#fff"><use xlink:href="#as"/></mask><path d="M314.46 394.69s1.863 17.073 12.36 20.225c0 0 7.897 3.894 32.394 7.23 0 0 19.872 4.45 33.134 4.636 0 0 13.259.027 20.684 1.59 0 0-26.957 4.049-54.585-1.644 0 0-24.992-4.95-42.177.796l-2.388-29.228.578-3.606z" fill="#000" mask="url(#at)"/></g><g><mask id="av" fill="#fff"><use xlink:href="#au"/></mask><path d="M397.943 365.623s-5.873 6.017-8.543 6.842c0 0-10.426.193-17.163 5.005 0 0-5.683 3.966-15.02 5.701 0 0-4.114 1.512-3.61 5.29 0 0 .248 8.308 9.962 6.176 0 0 12.686-2.484 16.898-4.253 0 0-7.83 4.399-14.57 9.826 0 0-3.01 1.253-4.4 5.457 0 0-3.34 6.561-3.81 13.303 0 0 .195 4.701 5.427 7.909 0 0 3.712 1.295 8.033 3.12 0 0 4.036 3.038 7.726 1.995 0 0 5.71-.998 7.153-5.564 0 0 1.516-3.096 4.88-5.569 0 0 1.963-2.8 9.31-4.746 0 0 6.385-3.178 9.057-6.628 0 0 7.763-5.597 5.07-16.843l4.145-4.847" fill="#EED5C9" mask="url(#av)"/></g><g><mask id="ax" fill="#fff"><use xlink:href="#aw"/></mask><path d="M391.29 255.886c23.256 23.067 37.919 40.267 37.919 40.267-5.251 9.56-36.532 62.541-36.532 62.541 6.002 13.038 33.122 32.26 33.122 32.26 54.014-47.966 69.018-90.116 69.018-90.116-3.001-41.402-80.271-121.258-80.271-121.258-17.255-12.769-68.136-22.56-68.136-22.56-17.255 103.633-32.96 143.015-32.96 143.015-15.753-41.306-21.028-143.248-21.028-143.248s-33.167 7.026-57.173 22.793c0 0-42.011 41.342-61.516 75.714 0 0-32.259-1.964-72.77-20.519 0 0-16.905 12.563-11.654 43.072 0 0 55.916 34.79 87.424 45.844 0 0 17.255 5.434 25.507 0 0 0 28.507-20.33 41.26-51.854l-11.275 102.7" fill="#131A23" mask="url(#ax)"/></g><g><mask id="az" fill="#fff"><use xlink:href="#ay"/></mask><path d="M424.226 389.811s-2.412 4.52-3.392 3.908c0 0-24.853-19.115-29.873-28.699 0 0-.367-1.266 2.449-3.468" fill="#E1EBF4" mask="url(#az)"/></g><g><mask id="aB" fill="#fff"><use xlink:href="#aA"/></mask><path d="M255.375 229.316s-1.833 3.58-1.353 6.456c0 0 .64 5.966 6.452 7.83 0 0 6.718-3.036 7.035-7.708l-12.134-6.578z" fill="#231F20" mask="url(#aB)"/></g><g><mask id="aD" fill="#fff"><use xlink:href="#aC"/></mask><path d="M261.552 227.118c4.112 0 6.18 2.198 6.18 2.198s.236 1.627.085 4.902c-.228 4.948-6.264 7.92-6.264 7.92 0 .001-6.036-2.972-6.264-7.92-.15-3.275.086-4.902.086-4.902s2.065-2.198 6.177-2.198" fill="#ED2E26" mask="url(#aD)"/></g><g><mask id="aF" fill="#fff"><use xlink:href="#aE"/></mask><path d="M258.467 233.623c0-1.75 1.384-3.174 3.086-3.174a3.091 3.091 0 013.09 3.086c0 1.359-1.17 2.476-2.07 3.05.349.2 1.12.41 1.859.477a4.452 4.452 0 001.735-3.527c0-2.541-2.07-4.61-4.614-4.61a4.617 4.617 0 00-4.614 4.61c0 1.536.64 2.9 1.85 3.944 1.131.977 2.787 1.63 4.672 1.938.408-.225 1.107-.89 1.369-1.28-1.574-.203-3.064-.586-4.063-1.11-1.526-.8-2.3-1.945-2.3-3.404" fill="#FFF" mask="url(#aF)"/></g><g><mask id="aH" fill="#fff"><use xlink:href="#aG"/></mask><path d="M346.032 159.279s-.574-3.22 2.79-2.142c0 0 26.538 16.573 29.322 38.45 0 0 0 6.304-21.157 2.41 0 0 3.897 5.377 15.033 10.012 0 0 8.165 3.893-.557 14.46 0 0-46.246 54.797-58.013 78.477 0 0 19.956-64.51 32.582-141.667" fill="#000" mask="url(#aH)"/></g><g><mask id="aJ" fill="#fff"><use xlink:href="#aI"/></mask><path d="M313.45 302.823s.551 92.616 0 98.33c0 0 8.849-54.465 7.576-72.688 0 0-2.546-18.437-7.576-25.642" fill="#000" mask="url(#aJ)"/></g><g><mask id="aL" fill="#fff"><use xlink:href="#aK"/></mask><path d="M312.96 298.32c10.269 52.538-2.857 128.252-2.857 128.252-14.245-2.088-26.681 6.577-26.681 6.577-23.294 8.365-56.446-.25-56.446-.25 5.436-41.536 10.26-144.073 10.26-144.073l4.592-29.32 57.16-5.476s5.087 18.05 13.973 44.29" fill="#131A23" mask="url(#aL)"/></g><g><mask id="aN" fill="#fff"><use xlink:href="#aM"/></mask><path d="M237.37 284.339s4.972-7.884 6.13-12.502c0 0 1.371-5.253 1.371-7.584 0 0-1.985 11.868-3.75 34.331 0 0-4.31 43.287-2.19 62.968 0 0 .85 24.767-4.454 62.912 0 0-4.242 7.841 32.456 8.265 0 0 11.92-1.271 23.567-5.51 0 0 14.918-5.025 19.964-.817 0 0-10.439-.666-31.864 9.506 0 0-33.525 6.46-51.234-2.81 0 0 9.504-140.329 10.004-148.76" fill="#000" mask="url(#aN)"/></g><g><mask id="aP" fill="#fff"><use xlink:href="#aO"/></mask><path d="M314.46 320.836a3.994 3.994 0 01-3.996 3.992 3.994 3.994 0 01-3.996-3.992 3.994 3.994 0 013.996-3.993 3.994 3.994 0 013.996 3.993" fill="#000" mask="url(#aP)"/></g><g><mask id="aR" fill="#fff"><use xlink:href="#aQ"/></mask><path d="M289.084 157.568s-18.755 12.274-26.863 30.883c0 0-4.384 9.853 2.849 8.758 0 0 12.793-2.57 19.88-4.337 0 0-8.006 4.431-15.561 10.133 0 0-5.911 2.796.513 15.128 0 0 20.932 46.13 43.548 81.902 0 0-15.477-67.55-20.738-141.51 0 0-.016-1.963-.579-1.984 0 0-1.644-.264-3.049 1.027" fill="#000" mask="url(#aR)"/></g></g></svg>