<?xml version="1.0" encoding="utf-8"?>
<!-- Generator: Adobe Illustrator 21.0.0, SVG Export Plug-In . SVG Version: 6.00 Build 0)  -->
<svg version="1.1" id="Layer_1" xmlns="http://www.w3.org/2000/svg" xmlns:xlink="http://www.w3.org/1999/xlink" x="0px" y="0px"
	 viewBox="0 0 73.3 73.4" style="enable-background:new 0 0 73.3 73.4;" xml:space="preserve">
<style type="text/css">
	.st0{fill:#24ABE2;}
	.st1{fill:url(#SVGID_1_);}
	.st2{fill:url(#SVGID_2_);}
	.st3{enable-background:new    ;}
	.st4{fill:#22205F;}
	.st5{fill:#D4EFFC;}
</style>
<title>qualys-waf-icon</title>
<rect class="st0" width="73.3" height="73.3"/>
<linearGradient id="SVGID_1_" gradientUnits="userSpaceOnUse" x1="1395.76" y1="2273.0999" x2="1395.76" y2="2222.7" gradientTransform="matrix(1 0 0 -1 -1359.1101 2273.0999)">
	<stop  offset="0" style="stop-color:#00AEEF"/>
	<stop  offset="1" style="stop-color:#007EB5"/>
</linearGradient>
<path class="st1" d="M0,0h73.2l0.1,41.7c0,4.8-4,8.7-8.8,8.7H8.8C4,50.4,0,46.5,0,41.7l0,0L0,0L0,0z"/>
<linearGradient id="SVGID_2_" gradientUnits="userSpaceOnUse" x1="1395.76" y1="2199.8799" x2="1395.76" y2="2250.8601" gradientTransform="matrix(1 0 0 -1 -1359.1101 2273.0999)">
	<stop  offset="0" style="stop-color:#00AEEF"/>
	<stop  offset="1" style="stop-color:#007EB5"/>
</linearGradient>
<path class="st2" d="M0,37.6c43.9,6.8,73.2-15.3,73.2-15.3l0.1,51.1H0L0,37.6L0,37.6z"/>
<g class="st3">
	<path class="st4" d="M28.8,44h-4.5l-2.5-9.8c-0.1-0.3-0.3-1.1-0.5-2.2s-0.4-1.8-0.4-2.2c-0.1,0.5-0.2,1.2-0.4,2.2
		c-0.2,1-0.4,1.7-0.5,2.2L17.4,44h-4.5L8.1,25.5h3.9l2.4,10.1c0.4,1.9,0.7,3.5,0.9,4.9c0.1-0.5,0.2-1.2,0.4-2.2
		c0.2-1,0.4-1.8,0.5-2.4L19,25.5h3.8l2.7,10.4c0.1,0.5,0.3,1.2,0.4,2.1c0.2,1,0.3,1.8,0.4,2.5c0.1-0.7,0.2-1.5,0.4-2.5
		c0.2-1,0.4-1.8,0.5-2.4l2.4-10.1h3.9L28.8,44z"/>
</g>
<g class="st3">
	<path class="st4" d="M46.5,44l-1.4-4.4h-6.8L37,44h-4.3l6.6-18.6h4.9L50.8,44H46.5z M44.2,36.3c-1.3-4-2-6.3-2.1-6.8
		s-0.3-0.9-0.3-1.2c-0.3,1.1-1.1,3.8-2.4,8H44.2z"/>
</g>
<g class="st3">
	<path class="st4" d="M57.6,44h-3.9V25.5h10.7v3.2h-6.8v4.8h6.4v3.2h-6.4V44z"/>
</g>
<g class="st3">
	<path class="st5" d="M46.5,45.1l-1.4-4.4h-6.8L37,45.1h-4.3l6.6-18.6h4.9l6.6,18.6H46.5z M44.2,37.4c-1.3-4-2-6.3-2.1-6.8
		s-0.3-0.9-0.3-1.2c-0.3,1.1-1.1,3.8-2.4,8H44.2z"/>
</g>
<g class="st3">
	<path class="st5" d="M28.8,45.1h-4.5l-2.5-9.8c-0.1-0.3-0.3-1.1-0.5-2.2s-0.4-1.8-0.4-2.2c-0.1,0.5-0.2,1.2-0.4,2.2
		c-0.2,1-0.4,1.7-0.5,2.2l-2.5,9.7h-4.5L8.1,26.6h3.9l2.4,10.1c0.4,1.9,0.7,3.5,0.9,4.9c0.1-0.5,0.2-1.2,0.4-2.2
		c0.2-1,0.4-1.8,0.5-2.4L19,26.6h3.8L25.5,37c0.1,0.5,0.3,1.2,0.4,2.1c0.2,1,0.3,1.8,0.4,2.5c0.1-0.7,0.2-1.5,0.4-2.5
		c0.2-1,0.4-1.8,0.5-2.4l2.4-10.1h3.9L28.8,45.1z"/>
</g>
<g class="st3">
	<path class="st5" d="M57.6,45.1h-3.9V26.6h10.7v3.2h-6.8v4.8h6.4v3.2h-6.4V45.1z"/>
</g>
</svg>
