<?xml version="1.0" encoding="utf-8"?>
<!-- Generator: Adobe Illustrator 21.0.0, SVG Export Plug-In . SVG Version: 6.00 Build 0)  -->
<svg version="1.1" id="Layer_1" xmlns="http://www.w3.org/2000/svg" xmlns:xlink="http://www.w3.org/1999/xlink" x="0px" y="0px"
	 viewBox="0 0 73.3 73.4" style="enable-background:new 0 0 73.3 73.4;" xml:space="preserve">
<style type="text/css">
	.st0{fill:#24ABE2;}
	.st1{fill:url(#SVGID_1_);}
	.st2{fill:url(#SVGID_2_);}
	.st3{enable-background:new    ;}
	.st4{fill:#22205F;}
	.st5{fill:#D4EFFC;}
</style>
<title>qualys-was-icon</title>
<rect class="st0" width="73.3" height="73.3"/>
<linearGradient id="SVGID_1_" gradientUnits="userSpaceOnUse" x1="1159.86" y1="2273.0999" x2="1159.86" y2="2222.7" gradientTransform="matrix(1 0 0 -1 -1123.21 2273.0999)">
	<stop  offset="0" style="stop-color:#00AEEF"/>
	<stop  offset="1" style="stop-color:#007EB5"/>
</linearGradient>
<path class="st1" d="M0,0h73.2l0.1,41.7c0,4.8-4,8.7-8.8,8.7H8.8C4,50.4,0,46.5,0,41.7l0,0V0z"/>
<linearGradient id="SVGID_2_" gradientUnits="userSpaceOnUse" x1="1159.86" y1="2199.8799" x2="1159.86" y2="2250.8601" gradientTransform="matrix(1 0 0 -1 -1123.21 2273.0999)">
	<stop  offset="0" style="stop-color:#00AEEF"/>
	<stop  offset="1" style="stop-color:#007EB5"/>
</linearGradient>
<path class="st2" d="M0,37.6c43.9,6.8,73.2-15.3,73.2-15.3l0.1,51.1H0V37.6z"/>
<g class="st3">
	<path class="st4" d="M28.7,44h-4.5l-2.5-9.8c-0.1-0.3-0.3-1.1-0.5-2.2s-0.4-1.8-0.4-2.2c-0.1,0.5-0.2,1.2-0.4,2.2
		c-0.2,1-0.4,1.7-0.5,2.2L17.4,44h-4.5L8.1,25.5H12l2.4,10.1c0.4,1.9,0.7,3.5,0.9,4.9c0.1-0.5,0.2-1.2,0.4-2.2
		c0.2-1,0.4-1.8,0.5-2.4l2.7-10.4h3.8l2.7,10.4c0.1,0.5,0.3,1.2,0.4,2.1c0.2,1,0.3,1.8,0.4,2.5c0.1-0.7,0.2-1.5,0.4-2.5
		c0.2-1,0.4-1.8,0.5-2.4l2.4-10.1h3.9L28.7,44z"/>
</g>
<g class="st3">
	<path class="st4" d="M46.4,44l-1.4-4.4h-6.8L36.9,44h-4.3l6.6-18.6h4.9L50.7,44H46.4z M44.1,36.3c-1.3-4-2-6.3-2.1-6.8
		c-0.2-0.5-0.3-0.9-0.3-1.2c-0.3,1.1-1.1,3.8-2.4,8H44.1z"/>
</g>
<g class="st3">
	<path class="st4" d="M64.6,38.9c0,1.7-0.6,3-1.8,4c-1.2,1-2.9,1.4-5.1,1.4c-2,0-3.8-0.4-5.3-1.1v-3.7c1.3,0.6,2.3,1,3.2,1.2
		S57.3,41,58,41c0.9,0,1.5-0.2,2-0.5c0.5-0.3,0.7-0.8,0.7-1.5c0-0.4-0.1-0.7-0.3-1c-0.2-0.3-0.5-0.6-0.9-0.8
		c-0.4-0.3-1.2-0.7-2.4-1.3c-1.1-0.5-2-1-2.6-1.5s-1-1.1-1.4-1.7s-0.5-1.4-0.5-2.3c0-1.6,0.6-2.9,1.7-3.9c1.1-0.9,2.7-1.4,4.7-1.4
		c1,0,1.9,0.1,2.8,0.3s1.8,0.6,2.8,1l-1.3,3.1c-1-0.4-1.8-0.7-2.5-0.9s-1.3-0.2-1.9-0.2c-0.8,0-1.3,0.2-1.7,0.5
		c-0.4,0.3-0.6,0.8-0.6,1.4c0,0.3,0.1,0.6,0.2,0.9c0.2,0.3,0.4,0.5,0.8,0.7s1.2,0.7,2.5,1.3c1.8,0.8,3,1.7,3.6,2.5
		C64.3,36.7,64.6,37.7,64.6,38.9z"/>
</g>
<g class="st3">
	<path class="st5" d="M46.4,45.1l-1.4-4.4h-6.8l-1.4,4.4h-4.3l6.6-18.6h4.9l6.6,18.6H46.4z M44.1,37.4c-1.3-4-2-6.3-2.1-6.8
		c-0.2-0.5-0.3-0.9-0.3-1.2c-0.3,1.1-1.1,3.8-2.4,8H44.1z"/>
</g>
<g class="st3">
	<path class="st5" d="M64.6,40c0,1.7-0.6,3-1.8,4c-1.2,1-2.9,1.4-5.1,1.4c-2,0-3.8-0.4-5.3-1.1v-3.7c1.3,0.6,2.3,1,3.2,1.2
		s1.7,0.3,2.4,0.3c0.9,0,1.5-0.2,2-0.5c0.5-0.3,0.7-0.8,0.7-1.5c0-0.4-0.1-0.7-0.3-1s-0.5-0.6-0.9-0.8c-0.4-0.3-1.2-0.7-2.4-1.3
		c-1.1-0.5-2-1-2.6-1.5s-1-1.1-1.4-1.7s-0.5-1.4-0.5-2.3c0-1.6,0.6-2.9,1.7-3.9c1.1-0.9,2.7-1.4,4.7-1.4c1,0,1.9,0.1,2.8,0.3
		s1.8,0.6,2.8,1l-1.3,3.1c-1-0.4-1.8-0.7-2.5-0.9s-1.3-0.2-1.9-0.2c-0.8,0-1.3,0.2-1.7,0.5c-0.4,0.3-0.6,0.8-0.6,1.4
		c0,0.3,0.1,0.6,0.2,0.9c0.2,0.3,0.4,0.5,0.8,0.7s1.2,0.7,2.5,1.3c1.8,0.8,3,1.7,3.6,2.5C64.3,37.8,64.6,38.8,64.6,40z"/>
</g>
<g class="st3">
	<path class="st5" d="M28.7,45.1h-4.5l-2.5-9.8c-0.1-0.3-0.3-1.1-0.5-2.2s-0.4-1.8-0.4-2.2c-0.1,0.5-0.2,1.2-0.4,2.2
		c-0.2,1-0.4,1.7-0.5,2.2l-2.5,9.7h-4.5L8.1,26.6H12l2.4,10.1c0.4,1.9,0.7,3.5,0.9,4.9c0.1-0.5,0.2-1.2,0.4-2.2
		c0.2-1,0.4-1.8,0.5-2.4l2.7-10.4h3.8L25.4,37c0.1,0.5,0.3,1.2,0.4,2.1c0.2,1,0.3,1.8,0.4,2.5c0.1-0.7,0.2-1.5,0.4-2.5
		c0.2-1,0.4-1.8,0.5-2.4l2.4-10.1h3.9L28.7,45.1z"/>
</g>
</svg>
