<svg xmlns="http://www.w3.org/2000/svg" xmlns:xlink="http://www.w3.org/1999/xlink" viewBox="0 0 73.4 73.4"><defs><linearGradient id="a" x1="1610.16" y1="-2197.1" x2="1610.16" y2="-2146.7" gradientTransform="translate(-147.81 2412.9)" gradientUnits="userSpaceOnUse"><stop offset="0" stop-color="#fff"/><stop offset="0.75" stop-color="#cbc9c8"/></linearGradient><linearGradient id="b" x1="1610.26" y1="-2123.92" x2="1610.26" y2="-2174.9" gradientTransform="translate(-147.81 2412.9)" gradientUnits="userSpaceOnUse"><stop offset="0" stop-color="#fff"/><stop offset="1" stop-color="#cbc9c8"/></linearGradient></defs><title>qualys-seal-icon</title><path d="M1425.7,215.8h73.2l.1,41.7a8.79,8.79,0,0,1-8.8,8.7h-55.7a8.79,8.79,0,0,1-8.8-8.7h0V215.8Z" transform="translate(-1425.7 -215.8)" style="fill:url(#a)"/><path d="M1425.8,253.4c43.9,6.8,73.2-15.3,73.2-15.3l.1,51.1h-73.3V253.4Z" transform="translate(-1425.7 -215.8)" style="fill:url(#b)"/><path d="M1445.7,257V237.2a30.81,30.81,0,0,1,33.5,0V257c.1,10.7-16.8,15.7-16.8,15.7s-16.8-5.1-16.7-15.7m3.5-17.4V256c-.1,8.8,13.2,13,13.2,13s13.4-4.1,13.4-12.9V239.7a24.57,24.57,0,0,0-13.4-4.1h0a24.32,24.32,0,0,0-13.2,4" transform="translate(-1425.7 -215.8)" style="fill:#231f20"/><path d="M1449.2,256V239.6a23.68,23.68,0,0,1,26.6.1v16.4c.1,8.8-13.4,12.9-13.4,12.9s-13.3-4.2-13.2-13" transform="translate(-1425.7 -215.8)" style="fill:#dd2326"/><path d="M1462.1,259.2c-6.1,0-10.1-3.5-10.1-9.8s4.8-9.9,10.8-9.9,10.2,3.9,10.2,9.8a9.66,9.66,0,0,1-7,9.4c2.2,1.4,2.8,1.6,5.3,3a13.16,13.16,0,0,0-3.9,1.5c-1.4-1.1-2.7-2.1-4.2-3.1l-1.1-.9Zm-5.6-9c0,3.6,1.6,7.3,5.7,7.3,3.8,0,6.1-3.6,6.1-8.8,0-3.5-1.6-7.6-5.8-7.6-4.5.1-6,4.1-6,9.1Z" transform="translate(-1425.7 -215.8)" style="fill:#fff"/></svg>