<svg id="Layer_2" data-name="Layer 2" xmlns="http://www.w3.org/2000/svg" viewBox="0 0 39.81 37.66">
  <title>remediate-icon</title>
  <rect x="3.8" y="2.54" width="0.49" height="24.45" style="fill: #489ddc"/>
  <rect x="35.51" y="0.14" width="0.49" height="18.11" style="fill: #489ddc"/>
  <path d="M38.93,28.3V27.8H40.2V1.66H1.37V27.8H16.59v.49H1.76a.88.88,0,0,1-.88-.88V2.05a.88.88,0,0,1,.88-.88h38a.88.88,0,0,1,.88.88V27.42a.88.88,0,0,1-.88.88Z" transform="translate(-0.88 -1.17)" style="fill: #489ddc"/>
  <rect x="31.95" y="21.81" width="1.27" height="1.9" style="fill: #489ddc"/>
  <rect x="28.78" y="21.17" width="1.27" height="1.9" style="fill: #489ddc"/>
  <rect x="25.61" y="19.9" width="1.27" height="2.54" style="fill: #489ddc"/>
  <path d="M22.69,38.83A1.27,1.27,0,0,1,24,37.56H36a1.27,1.27,0,0,1,1.27,1.27" transform="translate(-0.88 -1.17)" style="fill: #489ddc"/>
  <path d="M34.73,38.2v-1.9a8.74,8.74,0,0,1,.37-2A23.27,23.27,0,0,0,36,28.05V23.61a1.27,1.27,0,0,0-1.27-1.27V21.08a2.54,2.54,0,0,1,2.54,2.54v4.44a24.72,24.72,0,0,1-.93,6.59A8.28,8.28,0,0,0,36,36.29v1.9" transform="translate(-0.88 -1.17)" style="fill: #489ddc"/>
  <path d="M34.1,23.61H32.83V22.34a1.27,1.27,0,0,0-1.27-1.27V19.81a2.54,2.54,0,0,1,2.54,2.54Z" transform="translate(-0.88 -1.17)" style="fill: #489ddc"/>
  <path d="M30.93,22.34H29.66V21.08a1.27,1.27,0,0,0-1.27-1.27V18.54a2.54,2.54,0,0,1,2.54,2.54Z" transform="translate(-0.88 -1.17)" style="fill: #489ddc"/>
  <path d="M24,38.2V36.51l-3.68-4.9a.63.63,0,0,1-.11-.22c-.95-3.53-2.09-7.45-2.41-8a1.55,1.55,0,0,1-.27-1.68,2.14,2.14,0,0,1,2-1.27c1.58,0,2.33,1.85,2.48,2.27L23.32,25V13.47a1.9,1.9,0,0,1,1.9-1.9h.63a1.9,1.9,0,0,1,1.9,1.9v7.61a.63.63,0,1,1-1.27,0V13.47a.63.63,0,0,0-.63-.63h-.63a.63.63,0,0,0-.63.63v14a.63.63,0,0,1-1.18.31l-2.54-4.44a.64.64,0,0,1-.05-.11c-.13-.38-.65-1.47-1.3-1.47a.88.88,0,0,0-.85.49.3.3,0,0,0,0,.33c.37.37,1.27,3.2,2.67,8.41l3.73,5a.63.63,0,0,1,.13.38v1.9" transform="translate(-0.88 -1.17)" style="fill: #489ddc"/>
  <rect x="7.22" y="3.42" width="1.27" height="1.27" style="fill: #489ddc"/>
  <rect x="11.03" y="3.42" width="1.27" height="1.27" style="fill: #489ddc"/>
  <rect x="14.83" y="3.42" width="1.27" height="1.27" style="fill: #489ddc"/>
  <rect x="18.64" y="3.42" width="1.27" height="1.27" style="fill: #489ddc"/>
  <rect x="22.44" y="3.42" width="1.27" height="1.27" style="fill: #489ddc"/>
  <rect x="26.25" y="3.42" width="1.27" height="1.27" style="fill: #489ddc"/>
  <rect x="30.05" y="3.42" width="1.27" height="1.27" style="fill: #489ddc"/>
  <rect x="7.22" y="7.22" width="1.27" height="1.27" style="fill: #489ddc"/>
  <rect x="11.03" y="7.22" width="1.27" height="1.27" style="fill: #489ddc"/>
  <rect x="14.83" y="7.22" width="1.27" height="1.27" style="fill: #489ddc"/>
  <rect x="18.64" y="7.22" width="1.27" height="1.27" style="fill: #489ddc"/>
  <rect x="7.22" y="11.03" width="1.27" height="1.27" style="fill: #489ddc"/>
  <rect x="11.03" y="11.03" width="1.27" height="1.27" style="fill: #489ddc"/>
  <rect x="14.83" y="11.03" width="1.27" height="1.27" style="fill: #489ddc"/>
  <rect x="18.64" y="11.03" width="1.27" height="1.27" style="fill: #489ddc"/>
  <rect x="7.22" y="14.83" width="1.27" height="1.27" style="fill: #489ddc"/>
  <rect x="11.03" y="14.83" width="1.27" height="1.27" style="fill: #489ddc"/>
  <rect x="7.22" y="18.64" width="1.27" height="1.27" style="fill: #489ddc"/>
  <rect x="11.03" y="18.64" width="1.27" height="1.27" style="fill: #489ddc"/>
  <rect x="14.83" y="14.83" width="1.27" height="1.27" style="fill: #489ddc"/>
  <rect x="18.64" y="14.83" width="1.27" height="1.27" style="fill: #489ddc"/>
  <rect x="22.44" y="7.22" width="1.27" height="1.27" style="fill: #489ddc"/>
  <rect x="26.25" y="7.22" width="1.27" height="1.27" style="fill: #489ddc"/>
  <rect x="30.05" y="7.22" width="1.27" height="1.27" style="fill: #489ddc"/>
</svg>
