<svg id="ART" xmlns="http://www.w3.org/2000/svg" viewBox="0 0 47.88 48.07">
  <title>report-icon</title>
  <g>
    <path d="M48.2,47.9h-.27v-.56h.27Zm0-1.63h-.27V45.19h.27Zm0-2.15h-.27V43h.27Zm0-2.15h-.27V40.89h.27Zm0-2.15h-.27V38.74h.27Zm0-2.15h-.27V36.59h.27Zm0-2.15h-.27V34.45h.27Zm0-2.15h-.27V32.3h.27Zm0-2.15h-.27V30.15h.27Zm0-2.15h-.27V28h.27Zm0-2.15h-.27V25.85h.27Zm0-2.15h-.27V23.7h.27Zm0-2.15h-.27V21.55h.27Zm0-2.15h-.27V19.41h.27Zm0-2.15h-.27V17.26h.27Zm0-2.15h-.27V15.11h.27Zm0-2.15h-.27V13h.27Zm0-2.15h-.27V10.81h.27Zm0-2.15h-.27V8.66h.27Zm0-2.15h-.27V6.51h.27Zm0-2.15h-.27V4.37h.27Zm0-2.15h-.27V2.22h.27Z" transform="translate(-1.42 -1.01)" style="fill: #4b9cd6"/>
    <path d="M48,2.22v.27h-.56V2.22Zm-1.63,0v.27H45.31V2.22Zm-2.15,0v.27H43.17V2.22Zm-2.15,0v.27H41V2.22Zm-2.15,0v.27H38.87V2.22Zm-2.15,0v.27H36.72V2.22Zm-2.15,0v.27H34.57V2.22Zm-2.15,0v.27H32.42V2.22Zm-2.15,0v.27H30.27V2.22Zm-2.15,0v.27H28.13V2.22Zm-2.15,0v.27H26V2.22Zm-2.15,0v.27H23.83V2.22Zm-2.15,0v.27H21.68V2.22Zm-2.15,0v.27H19.53V2.22Zm-2.15,0v.27H17.38V2.22Zm-2.15,0v.27H15.23V2.22Zm-2.15,0v.27H13.08V2.22ZM12,2.22v.27H10.94V2.22Zm-2.15,0v.27H8.79V2.22Zm-2.15,0v.27H6.64V2.22Zm-2.15,0v.27H4.49V2.22Zm-2.15,0v.27H2.34V2.22Z" transform="translate(-1.42 -1.01)" style="fill: #4b9cd6"/>
    <path d="M48,11.35v.27h-.56v-.27Zm-1.63,0v.27H45.31v-.27Zm-2.15,0v.27H43.17v-.27Zm-2.15,0v.27H41v-.27Zm-2.15,0v.27H38.87v-.27Zm-2.15,0v.27H36.72v-.27Zm-2.15,0v.27H34.57v-.27Zm-2.15,0v.27H32.42v-.27Zm-2.15,0v.27H30.27v-.27Zm-2.15,0v.27H28.13v-.27Zm-2.15,0v.27H26v-.27Zm-2.15,0v.27H23.83v-.27Zm-2.15,0v.27H21.68v-.27Zm-2.15,0v.27H19.53v-.27Zm-2.15,0v.27H17.38v-.27Zm-2.15,0v.27H15.23v-.27Zm-2.15,0v.27H13.08v-.27Zm-2.15,0v.27H10.94v-.27Zm-2.15,0v.27H8.79v-.27Zm-2.15,0v.27H6.64v-.27Zm-2.15,0v.27H4.49v-.27Zm-2.15,0v.27H2.34v-.27Z" transform="translate(-1.42 -1.01)" style="fill: #4b9cd6"/>
    <path d="M48,20.49v.27h-.56v-.27Zm-1.63,0v.27H45.31v-.27Zm-2.15,0v.27H43.17v-.27Zm-2.15,0v.27H41v-.27Zm-2.15,0v.27H38.87v-.27Zm-2.15,0v.27H36.72v-.27Zm-2.15,0v.27H34.57v-.27Zm-2.15,0v.27H32.42v-.27Zm-2.15,0v.27H30.27v-.27Zm-2.15,0v.27H28.13v-.27Zm-2.15,0v.27H26v-.27Zm-2.15,0v.27H23.83v-.27Zm-2.15,0v.27H21.68v-.27Zm-2.15,0v.27H19.53v-.27Zm-2.15,0v.27H17.38v-.27Zm-2.15,0v.27H15.23v-.27Zm-2.15,0v.27H13.08v-.27Zm-2.15,0v.27H10.94v-.27Zm-2.15,0v.27H8.79v-.27Zm-2.15,0v.27H6.64v-.27Zm-2.15,0v.27H4.49v-.27Zm-2.15,0v.27H2.34v-.27Z" transform="translate(-1.42 -1.01)" style="fill: #4b9cd6"/>
    <path d="M48,29.62v.27h-.56v-.27Zm-1.63,0v.27H45.31v-.27Zm-2.15,0v.27H43.17v-.27Zm-2.15,0v.27H41v-.27Zm-2.15,0v.27H38.87v-.27Zm-2.15,0v.27H36.72v-.27Zm-2.15,0v.27H34.57v-.27Zm-2.15,0v.27H32.42v-.27Zm-2.15,0v.27H30.27v-.27Zm-2.15,0v.27H28.13v-.27Zm-2.15,0v.27H26v-.27Zm-2.15,0v.27H23.83v-.27Zm-2.15,0v.27H21.68v-.27Zm-2.15,0v.27H19.53v-.27Zm-2.15,0v.27H17.38v-.27Zm-2.15,0v.27H15.23v-.27Zm-2.15,0v.27H13.08v-.27Zm-2.15,0v.27H10.94v-.27Zm-2.15,0v.27H8.79v-.27Zm-2.15,0v.27H6.64v-.27Zm-2.15,0v.27H4.49v-.27Zm-2.15,0v.27H2.34v-.27Z" transform="translate(-1.42 -1.01)" style="fill: #4b9cd6"/>
    <path d="M48,38.76V39h-.56v-.27Zm-1.63,0V39H45.31v-.27Zm-2.15,0V39H43.17v-.27Zm-2.15,0V39H41v-.27Zm-2.15,0V39H38.87v-.27Zm-2.15,0V39H36.72v-.27Zm-2.15,0V39H34.57v-.27Zm-2.15,0V39H32.42v-.27Zm-2.15,0V39H30.27v-.27Zm-2.15,0V39H28.13v-.27Zm-2.15,0V39H26v-.27Zm-2.15,0V39H23.83v-.27Zm-2.15,0V39H21.68v-.27Zm-2.15,0V39H19.53v-.27Zm-2.15,0V39H17.38v-.27Zm-2.15,0V39H15.23v-.27Zm-2.15,0V39H13.08v-.27Zm-2.15,0V39H10.94v-.27Zm-2.15,0V39H8.79v-.27Zm-2.15,0V39H6.64v-.27Zm-2.15,0V39H4.49v-.27Zm-2.15,0V39H2.34v-.27Z" transform="translate(-1.42 -1.01)" style="fill: #4b9cd6"/>
    <path d="M39.06,47.9H38.8v-.56h.27Zm0-1.63H38.8V45.19h.27Zm0-2.15H38.8V43h.27Zm0-2.15H38.8V40.89h.27Zm0-2.15H38.8V38.74h.27Zm0-2.15H38.8V36.59h.27Zm0-2.15H38.8V34.45h.27Zm0-2.15H38.8V32.3h.27Zm0-2.15H38.8V30.15h.27Zm0-2.15H38.8V28h.27Zm0-2.15H38.8V25.85h.27Zm0-2.15H38.8V23.7h.27Zm0-2.15H38.8V21.55h.27Zm0-2.15H38.8V19.41h.27Zm0-2.15H38.8V17.26h.27Zm0-2.15H38.8V15.11h.27Zm0-2.15H38.8V13h.27Zm0-2.15H38.8V10.81h.27Zm0-2.15H38.8V8.66h.27Zm0-2.15H38.8V6.51h.27Zm0-2.15H38.8V4.37h.27Zm0-2.15H38.8V2.22h.27Z" transform="translate(-1.42 -1.01)" style="fill: #4b9cd6"/>
    <path d="M29.93,47.9h-.27v-.56h.27Zm0-1.63h-.27V45.19h.27Zm0-2.15h-.27V43h.27Zm0-2.15h-.27V40.89h.27Zm0-2.15h-.27V38.74h.27Zm0-2.15h-.27V36.59h.27Zm0-2.15h-.27V34.45h.27Zm0-2.15h-.27V32.3h.27Zm0-2.15h-.27V30.15h.27Zm0-2.15h-.27V28h.27Zm0-2.15h-.27V25.85h.27Zm0-2.15h-.27V23.7h.27Zm0-2.15h-.27V21.55h.27Zm0-2.15h-.27V19.41h.27Zm0-2.15h-.27V17.26h.27Zm0-2.15h-.27V15.11h.27Zm0-2.15h-.27V13h.27Zm0-2.15h-.27V10.81h.27Zm0-2.15h-.27V8.66h.27Zm0-2.15h-.27V6.51h.27Zm0-2.15h-.27V4.37h.27Zm0-2.15h-.27V2.22h.27Z" transform="translate(-1.42 -1.01)" style="fill: #4b9cd6"/>
    <path d="M20.79,47.9h-.27v-.56h.27Zm0-1.63h-.27V45.19h.27Zm0-2.15h-.27V43h.27Zm0-2.15h-.27V40.89h.27Zm0-2.15h-.27V38.74h.27Zm0-2.15h-.27V36.59h.27Zm0-2.15h-.27V34.45h.27Zm0-2.15h-.27V32.3h.27Zm0-2.15h-.27V30.15h.27Zm0-2.15h-.27V28h.27Zm0-2.15h-.27V25.85h.27Zm0-2.15h-.27V23.7h.27Zm0-2.15h-.27V21.55h.27Zm0-2.15h-.27V19.41h.27Zm0-2.15h-.27V17.26h.27Zm0-2.15h-.27V15.11h.27Zm0-2.15h-.27V13h.27Zm0-2.15h-.27V10.81h.27Zm0-2.15h-.27V8.66h.27Zm0-2.15h-.27V6.51h.27Zm0-2.15h-.27V4.37h.27Zm0-2.15h-.27V2.22h.27Z" transform="translate(-1.42 -1.01)" style="fill: #4b9cd6"/>
    <path d="M11.66,47.9h-.27v-.56h.27Zm0-1.63h-.27V45.19h.27Zm0-2.15h-.27V43h.27Zm0-2.15h-.27V40.89h.27Zm0-2.15h-.27V38.74h.27Zm0-2.15h-.27V36.59h.27Zm0-2.15h-.27V34.45h.27Zm0-2.15h-.27V32.3h.27Zm0-2.15h-.27V30.15h.27Zm0-2.15h-.27V28h.27Zm0-2.15h-.27V25.85h.27Zm0-2.15h-.27V23.7h.27Zm0-2.15h-.27V21.55h.27Zm0-2.15h-.27V19.41h.27Zm0-2.15h-.27V17.26h.27Zm0-2.15h-.27V15.11h.27Zm0-2.15h-.27V13h.27Zm0-2.15h-.27V10.81h.27Zm0-2.15h-.27V8.66h.27Zm0-2.15h-.27V6.51h.27Zm0-2.15h-.27V4.37h.27Zm0-2.15h-.27V2.22h.27Z" transform="translate(-1.42 -1.01)" style="fill: #4b9cd6"/>
    <polygon points="0.8 47.52 0.42 47.14 9.95 37.55 19.17 32.17 25.25 19.46 37.47 13.89 46.38 1.05 46.83 1.36 37.83 14.31 25.66 19.87 19.58 32.55 10.25 38 0.8 47.52" style="fill: #4b9cd6"/>
    <polygon points="28.3 30.71 10.13 24.11 0.68 26.64 0.54 26.12 10.16 23.55 10.24 23.58 28.25 30.12 37.52 24.74 46.71 28.64 46.5 29.13 37.56 25.34 28.3 30.71" style="fill: #4b9cd6"/>
    <polygon points="1.45 46.62 1.45 1.21 0 1.21 0 48.07 46.86 48.07 46.86 46.62 1.45 46.62" style="fill: #4b9cd6"/>
    <circle cx="10.15" cy="23.83" r="1.34" style="fill: #4b9cd6"/>
    <circle cx="28.28" cy="30.41" r="1.34" style="fill: #4b9cd6"/>
    <circle cx="37.54" cy="25.04" r="1.34" style="fill: #4b9cd6"/>
    <circle cx="46.54" cy="28.8" r="1.34" style="fill: #4b9cd6"/>
    <circle cx="10.08" cy="37.78" r="1.34" style="fill: #4b9cd6"/>
    <circle cx="19.28" cy="32.02" r="1.34" style="fill: #4b9cd6"/>
    <circle cx="25.46" cy="19.67" r="1.34" style="fill: #4b9cd6"/>
    <circle cx="37.65" cy="14.1" r="1.34" style="fill: #4b9cd6"/>
    <circle cx="46.51" cy="1.34" r="1.34" style="fill: #4b9cd6"/>
  </g>
</svg>
