<svg id="icons" xmlns="http://www.w3.org/2000/svg" viewBox="0 0 18.97 19.53">
  <title>research-tab-kb</title>
  <path d="M11.09,9.68a4.15,4.15,0,0,0,.11-0.95c0-.09,0-0.19,0-0.28-0.54,0-1.1,0-1.7,0s-1.15,0-1.69,0a6,6,0,0,0,0,.69,3.29,3.29,0,0,0,0,.51c0.56,0,1.12,0,1.69,0S10.58,9.7,11.09,9.68Z" transform="translate(0 0)" style="fill: #fff"/>
  <path d="M9.42,11.28a1.78,1.78,0,0,0,1.67-1.61c-0.51,0-1,0-1.61,0s-1.13,0-1.69,0A1.67,1.67,0,0,0,9.42,11.28Z" transform="translate(0 0)" style="fill: #fff"/>
  <path d="M11.5,4.14A9,9,0,0,0,4.61,5.33v5.75A3.67,3.67,0,0,0,6.16,13.9a9.64,9.64,0,0,0,2.19,1.31,10.6,10.6,0,0,0,1.12.43,10.76,10.76,0,0,0,1.1-.42,9.67,9.67,0,0,0,2.23-1.32,3.66,3.66,0,0,0,1.54-2.81V5.33A9,9,0,0,0,11.5,4.14Zm0.72,8.56a3.76,3.76,0,0,0-1.2.47c-0.43-.33-0.85-0.67-1.3-1l-0.36-.27a2.85,2.85,0,0,1-3.1-2.36,4,4,0,0,1-.06-0.69,3.34,3.34,0,0,1,.06-0.56A3.13,3.13,0,0,1,9.58,5.8,2.92,2.92,0,0,1,12.7,8.31h0a3.6,3.6,0,0,1,0,.53,3.16,3.16,0,0,1-.11.78,3,3,0,0,1-2.07,2.15C11.27,12.22,11.43,12.26,12.22,12.7Z" transform="translate(0 0)" style="fill: #fff"/>
  <path d="M11.18,8.45A1.81,1.81,0,0,0,9.52,6.52c-1.11,0-1.6.8-1.73,1.93,0.54,0,1.09,0,1.69,0S10.64,8.47,11.18,8.45Z" transform="translate(0 0)" style="fill: #fff"/>
  <g>
    <path d="M3.32,9.15C1.35,8.83,0,8.48,0,8.48v4.3a17.27,17.27,0,0,0,4.21.92,4.41,4.41,0,0,1-.89-2.63V9.15Z" transform="translate(0 0)" style="fill: #fff"/>
    <path d="M14.77,13.69a18.58,18.58,0,0,0,4.2-.91V8.48a19,19,0,0,1-3.31.77v1.83A4.39,4.39,0,0,1,14.77,13.69Z" transform="translate(0 0)" style="fill: #fff"/>
    <path d="M9.86,16.88L9.48,17l-0.37-.11a11.56,11.56,0,0,1-1.28-.48A10.82,10.82,0,0,1,5.44,15,45.14,45.14,0,0,1,0,14v4.3s2.77,1.22,9.49,1.22C16,19.53,19,18.31,19,18.31V14a23.77,23.77,0,0,1-5.53,1,11,11,0,0,1-2.34,1.36A11.94,11.94,0,0,1,9.86,16.88Z" transform="translate(0 0)" style="fill: #fff"/>
    <path d="M3.87,4.27a7.91,7.91,0,0,1,.76-0.45A45.26,45.26,0,0,1,0,3v4.3a15.12,15.12,0,0,0,3.32.8V4.66Z" transform="translate(0 0)" style="fill: #fff"/>
    <path d="M15.11,4.27l0.55,0.39V8A16.34,16.34,0,0,0,19,7.26V3a21.83,21.83,0,0,1-4.49.93C14.86,4.1,15.09,4.25,15.11,4.27Z" transform="translate(0 0)" style="fill: #fff"/>
    <path d="M9.48,2.6a10.12,10.12,0,0,1,2.32.28l0.12,0c4.05-.18,7-0.78,7-1.49C19,1,14.23,0,9.49,0S0,1,0,1.41C0,2.13,3,2.73,7,2.91l0.21-.06A10.12,10.12,0,0,1,9.48,2.6Z" transform="translate(0 0)" style="fill: #fff"/>
  </g>
</svg>
