<svg id="icons" xmlns="http://www.w3.org/2000/svg" viewBox="0 0 19.96 15.94">
  <title>research-tab-advisories</title>
  <path d="M8.44,12.07a0.83,0.83,0,1,1,.83-0.83A0.83,0.83,0,0,1,8.44,12.07ZM9.27,8.93a0.81,0.81,0,0,1-1.62,0V5.85a0.81,0.81,0,0,1,1.62,0V8.93Z" transform="translate(-0.3 -0.3)" style="fill: #fff;fill-rule: evenodd"/>
  <path d="M1.78,14.57a1.44,1.44,0,0,1-1.32-.64,2.22,2.22,0,0,1,.35-2.16S6.4,2.2,7.3,1.09A1.51,1.51,0,0,1,8.67.3a1.73,1.73,0,0,1,1.41.85h0S11.22,2.95,11.8,4a5.66,5.66,0,0,0-1.33.56L8.91,2.12a0.28,0.28,0,0,0-.48,0L6.34,5.26,1.89,12.7a0.31,0.31,0,0,0,.27.48H9.3a3.94,3.94,0,0,0,.71,1.4H1.78Z" transform="translate(-0.3 -0.3)" style="fill: #fff;fill-rule: evenodd"/>
  <g>
    <path d="M15.38,4.5a9.1,9.1,0,0,0-4.86,1.43v5.75c0,3.1,4.86,4.55,4.86,4.55s4.9-1.46,4.87-4.55V5.94A9.19,9.19,0,0,0,15.38,4.5Zm2.7,8.75a3.7,3.7,0,0,0-1.18.46c-0.42-.33-0.84-0.66-1.28-1l-0.35-.26a2.83,2.83,0,0,1-3.1-3,3,3,0,0,1,3.31-3,2.89,2.89,0,0,1,3.11,3,3,3,0,0,1-2.13,2.88C17.15,12.77,17.3,12.82,18.08,13.24Z" transform="translate(-0.3 -0.3)" style="fill: #fff"/>
    <path d="M15.43,7.13c-1.32,0-1.77,1.14-1.77,2.62,0,1,.47,2.14,1.67,2.14s1.78-1.05,1.78-2.55C17.1,8.31,16.62,7.13,15.43,7.13Z" transform="translate(-0.3 -0.3)" style="fill: #fff"/>
  </g>
</svg>
