<svg id="icons" xmlns="http://www.w3.org/2000/svg" viewBox="0 0 17.47 18.74">
  <title>research-tab-lawvulns</title>
  <g>
    <rect x="1.72" y="14.35" width="13.89" height="1.81" style="fill: #fff"/>
    <g>
      <rect x="3.42" y="2.72" width="1.34" height="11.73" style="fill: #fff"/>
      <rect x="12.81" y="2.72" width="1.34" height="11.73" style="fill: #fff"/>
    </g>
    <path d="M16.25,0H1.33A0.31,0.31,0,0,0,1,.31V1.67a0.3,0.3,0,0,0,.08.18h0l1.24,1.5V2H15.2V3.36l1.2-1.45a0.29,0.29,0,0,0,.16-0.24V0.31A0.31,0.31,0,0,0,16.25,0Z" style="fill: #fff"/>
    <path d="M0.35,18.74H17.12a0.35,0.35,0,0,0,.35-0.35V16.83a0.34,0.34,0,0,0-.09-0.21h0L16,16.48H1.55l-1.37.07a0.33,0.33,0,0,0-.18.28v1.56A0.35,0.35,0,0,0,.35,18.74Z" style="fill: #fff"/>
  </g>
  <g>
    <path d="M10.68,7.48A1.66,1.66,0,0,0,9.63,5.85a2.14,2.14,0,0,0-.79-0.14,2.28,2.28,0,0,0-.9.18A1.68,1.68,0,0,0,6.89,7.5,1.62,1.62,0,0,0,7.94,9.14a2.24,2.24,0,0,0,.78.13L8.93,9.42C9.17,9.59,9.4,9.77,9.63,10l0.05,0a2.19,2.19,0,0,1,.7-0.27C10,9.52,9.88,9.45,9.63,9.31h0L9.42,9.18a1.92,1.92,0,0,0,.21-0.1A1.73,1.73,0,0,0,10.68,7.48ZM8.75,9a0.91,0.91,0,0,1-.81-0.44,1.68,1.68,0,0,1-.23-0.89A2.38,2.38,0,0,1,7.94,6.5,0.93,0.93,0,0,1,8.82,6a0.91,0.91,0,0,1,.81.47,1.79,1.79,0,0,1,.23.9,2.16,2.16,0,0,1-.23,1A1,1,0,0,1,8.75,9Z" style="fill: none"/>
    <path d="M9.86,7.38a1.79,1.79,0,0,0-.23-0.9A0.91,0.91,0,0,0,8.82,6a0.93,0.93,0,0,0-.87.49,2.38,2.38,0,0,0-.23,1.14,1.68,1.68,0,0,0,.23.89A0.91,0.91,0,0,0,8.75,9a1,1,0,0,0,.88-0.57A2.16,2.16,0,0,0,9.86,7.38Z" style="fill: #fff"/>
    <path d="M11.56,5.1a5.94,5.94,0,0,0-1.93-.66,4.87,4.87,0,0,0-1.69,0A5.88,5.88,0,0,0,6,5.1H6l-0.26.16V8.85A1.86,1.86,0,0,0,6,9.79H6a4.32,4.32,0,0,0,1.93,1.56,7.1,7.1,0,0,0,.84.33,7.13,7.13,0,0,0,.84-0.33,4.37,4.37,0,0,0,1.93-1.54,1.86,1.86,0,0,0,.27-1V5.26ZM9.69,9.41h0c0.26,0.15.41,0.22,0.8,0.43a2.34,2.34,0,0,0-.74.29l-0.06,0C9.44,9.9,9.2,9.71,8.94,9.53L8.72,9.36a2.38,2.38,0,0,1-.83-0.14A1.73,1.73,0,0,1,6.76,7.47,1.79,1.79,0,0,1,7.89,5.76a2.43,2.43,0,0,1,1-.2,2.28,2.28,0,0,1,.84.15,1.77,1.77,0,0,1,1.12,1.73A1.85,1.85,0,0,1,9.69,9.16a2,2,0,0,1-.22.11Z" style="fill: #fff"/>
  </g>
  <g>
    <path d="M6,11.06v3.39H7.94V12.31L7.69,12.2A5.89,5.89,0,0,1,6,11.06Z" style="fill: #fff"/>
    <path d="M7.94,3.64V2.72H6V4.23a6.49,6.49,0,0,1,1.83-.58H7.94Z" style="fill: #fff"/>
    <path d="M11.56,4.23V2.72H9.63V3.64H9.72A6.56,6.56,0,0,1,11.56,4.23Z" style="fill: #fff"/>
    <path d="M9.63,12.31v2.14h1.93V11.07A5.93,5.93,0,0,1,9.88,12.2Z" style="fill: #fff"/>
  </g>
</svg>
