<svg id="Layer_1" data-name="Layer 1" xmlns="http://www.w3.org/2000/svg" viewBox="0 0 156.05 97.82">
  <title>research-tab-sans </title>
  <g>
    <path d="M75.33,85.69h2.6q3.24-.34,4.42-2.32t1.18-8.07V67.18H72.11Z" transform="translate(-1.3 -1.68)" style="fill: #fff"/>
    <polygon points="85.33 62.93 100.78 62.93 85.33 25.41 85.33 62.93" style="fill: #fff"/>
    <polygon points="53.34 26 47.1 62.93 59.38 62.93 53.34 26" style="fill: #fff"/>
    <path d="M140.1,67.18H125.35A37.79,37.79,0,0,0,129,80q3.63,7,8.94,7a5.62,5.62,0,0,0,4.5-2.05,7.91,7.91,0,0,0,1.74-5.29,22.58,22.58,0,0,0-2.27-8.89C141.39,69.66,140.79,68.47,140.1,67.18Z" transform="translate(-1.3 -1.68)" style="fill: #fff"/>
    <path d="M153.35,1.68H5.31c-2.21,0-4,1.42-4,3.17V96.34c0,1.75,1.79,3.17,4,3.17h148c2.21,0,4-1.42,4-3.17V4.85C157.36,3.1,155.56,1.68,153.35,1.68ZM25.12,89a11.52,11.52,0,0,1-5.58-1.38,18.61,18.61,0,0,1-5.1-4.37l-2.71,5.22h-2V61.52h2Q12.17,73,15.79,80t8.94,7a5.62,5.62,0,0,0,4.5-2.05A7.91,7.91,0,0,0,31,79.64a22.59,22.59,0,0,0-2.27-8.89,95.34,95.34,0,0,0-7.64-13.2q-6.57-9.91-8.58-15.64a35.63,35.63,0,0,1-2-11.87q0-7.54,3-12.13t7.83-4.59A9,9,0,0,1,26,14.65a13.5,13.5,0,0,1,4,3.7l2.18-4.93h2V37.78h-2q-0.82-10.49-3.72-16.44T21.35,15.4a5.22,5.22,0,0,0-4.28,1.93A8.12,8.12,0,0,0,15.5,22.6q0,4.74,7.11,14.84,2.66,3.87,4.11,6A86.47,86.47,0,0,1,35,58.62a32.14,32.14,0,0,1,2.27,11.6q0,8.51-3.36,13.63T25.12,89Zm122-5.12Q143.75,89,138.29,89a11.52,11.52,0,0,1-5.58-1.38,18.62,18.62,0,0,1-5.1-4.37l-2.71,5.22h-2V67.18h-9.08V87.86h-2.18l-8.52-20.68H86.63v7.53q0,5.85,1.74,8.27t6.09,2.71v2.17H59V85.69h5.12L61.17,67.18H47.87L46.13,77.76a17.75,17.75,0,0,0-.19,1.76q0,0.85,0,1.72a4,4,0,0,0,1.26,3.36,7.49,7.49,0,0,0,4.3,1.09v2.17h-15V85.69q4.54-.87,6.19-9.43,0.1-.53.15-0.77l11.46-61H63l8.71,50.13H83.54v-48H78.8V14.48H93L110.9,58.86V26.08q0-4.93-1.62-7.18T104,16.66V14.48H119.4v2.18h-0.29q-3,0-4.16,1.62t-1.11,6.84V64.61h9.08V61.52h2c0,1.06.11,2.09,0.19,3.09h13.57q-1.86-3.19-4.43-7.06-6.57-9.91-8.58-15.64a35.64,35.64,0,0,1-2-11.87q0-7.54,3-12.13t7.83-4.59a9,9,0,0,1,4.62,1.33,13.51,13.51,0,0,1,4,3.7l2.17-4.93h2V37.78h-2q-0.82-10.49-3.72-16.44t-7.06-5.95a5.22,5.22,0,0,0-4.28,1.93,8.11,8.11,0,0,0-1.57,5.27q0,4.74,7.11,14.84,2.66,3.87,4.11,6a86.36,86.36,0,0,1,8.31,15.13,32.13,32.13,0,0,1,2.27,11.6Q150.47,78.73,147.12,83.85Z" transform="translate(-1.3 -1.68)" style="fill: #fff"/>
  </g>
</svg>
