<svg id="icons" xmlns="http://www.w3.org/2000/svg" viewBox="0 0 13.85 13.37">
  <title>research-tab-topvulns</title>
  <g>
    <path d="M7.92,6c-0.37,0-.6.52-0.6,1.34s0.23,1.3.6,1.3c0.53,0,.6-0.84.6-1.34S8.42,6,7.92,6Z" style="fill: #fff"/>
    <path d="M13.85,4.72L8.79,4.6,6.7,0,5,4.77,0,5.35,4,8.41l-1,5,4.16-2.88L11.57,13,10.12,8.13ZM6.12,9a0.22,0.22,0,0,1-.21.21H5.46A0.22,0.22,0,0,1,5.24,9V6.39L5,6.54a0.22,0.22,0,0,1-.19,0,0.21,0.21,0,0,1-.12-0.14L4.55,6.06a0.21,0.21,0,0,1,.11-0.24l0.8-.41H5.9a0.22,0.22,0,0,1,.22.21V9ZM7.9,9.29c-0.82,0-1.34-.75-1.35-2s0.54-2,1.41-2S9.3,6.06,9.3,7.28,8.79,9.29,7.9,9.29Z" style="fill: #fff"/>
  </g>
</svg>
