<svg xmlns="http://www.w3.org/2000/svg" xmlns:xlink="http://www.w3.org/1999/xlink" viewBox="0 0 815 514"><defs><path id="a" d="M0 0h815v514H0z"/><path id="e" d="M0 0h815v514H0z"/><path id="g" d="M0 0h815v514H0z"/><path id="i" d="M0 0h815v514H0z"/><rect id="c" width="402" height="50" rx="2"/></defs><g fill="none" fill-rule="evenodd"><path fill="#F7FAFC" fill-rule="nonzero" d="M0 0h815v514H0z"/><mask id="b" fill="#fff"><use xlink:href="#a"/></mask><g mask="url(#b)"><g transform="translate(51 79)"><rect width="489" height="445" fill="#000" fill-rule="nonzero" rx="2"/><rect width="489" height="445" fill="#FFF" fill-rule="nonzero" rx="2"/><path fill="#E5E7EB" fill-opacity=".201" fill-rule="nonzero" d="M47 379h402v71H47z"/><path stroke="#E5E7EB" stroke-width="2" d="M48 380h400v69H48z"/><path fill="#30405C" fill-rule="nonzero" d="M33.17 65h1.52v-7.05h-1.05l-2.01.6.32 1.26 1.22-.3V65zm-2.295 100h5.18v-1.33h-3.05l1.14-.88c1.24-.96 1.84-1.54 1.84-2.71v-.02c0-1.31-.96-2.16-2.41-2.16-1.25 0-1.92.51-2.61 1.45l1.08.87c.52-.64.89-.94 1.43-.94.55 0 .94.32.94.91 0 .58-.34.96-1.21 1.68l-2.33 1.91V165zm2.63 100.12c1.56 0 2.52-.97 2.52-2.29v-.02c0-1.3-.93-1.8-1.88-1.96l1.77-1.69V258h-4.73v1.32h2.75l-1.67 1.68.24.98h.64c.86 0 1.37.32 1.37.89v.02c0 .52-.41.85-.99.85-.71 0-1.21-.3-1.69-.84l-1.06 1.01c.6.71 1.47 1.21 2.73 1.21zm.53 99.88v-1.51h-3.42l-.25-1.09 3.84-4.45h1.3v4.29h.94v1.25h-.94V365h-1.47zm-1.86-2.76h1.86v-2.18l-1.86 2.18zM33.4 465.12c1.61 0 2.66-.94 2.66-2.42v-.02c0-1.58-1.09-2.24-2.45-2.24-.39 0-.64.05-.92.12l.08-1.21h2.98V458h-4.3l-.2 3.45.89.59c.33-.14.73-.26 1.17-.26.73 0 1.24.35 1.24.95v.02c0 .62-.45.97-1.17.97-.62 0-1.14-.28-1.67-.76l-.93 1.11c.68.65 1.5 1.05 2.62 1.05z" opacity=".2"/><path fill="#E5E7EB" fill-rule="nonzero" d="M47 59h402v5H47v-5zm0 20h300.799v5H47v-5zm17 20h30v5H64v-5zm67 0h30v5h-30v-5zm67 0h30v5h-30v-5zm160.865-16.42h1.815l.18-.96c1.665-.405 2.925-1.215 2.925-3.105v-.03c0-1.95-1.545-3.15-3.75-3.15-1.725 0-2.97.66-3.885 1.575l1.5 1.98c.705-.63 1.485-.99 2.19-.99.72 0 1.125.315 1.125.825v.015c0 .645-.615 1.05-2.355 1.2l-.12.135.375 2.505zM358.25 86h2.955v-2.55h-2.955V86z"/><circle cx="51.5" cy="101.5" r="3.5" stroke="#E5E7EB" stroke-width="2"/><circle cx="118.5" cy="101.5" r="3.5" stroke="#E5E7EB" stroke-width="2"/><circle cx="185.5" cy="101.5" r="3.5" stroke="#E5E7EB" stroke-width="2"/><path fill="#E5E7EB" fill-rule="nonzero" d="M47 259h402v5H47v-5zm0 20h300.799v5H47v-5zm17 20h30v5H64v-5z"/><path stroke="#E5E7EB" stroke-width="2" d="M48 298h7v7h-7v-7zm67 0h7v7h-7v-7zm67 0h7v7h-7v-7z"/><path fill="#E5E7EB" fill-rule="nonzero" d="M131 299h30v5h-30v-5zm67 0h30v5h-30v-5zm160.865-16.42h1.815l.18-.96c1.665-.405 2.925-1.215 2.925-3.105v-.03c0-1.95-1.545-3.15-3.75-3.15-1.725 0-2.97.66-3.885 1.575l1.5 1.98c.705-.63 1.485-.99 2.19-.99.72 0 1.125.315 1.125.825v.015c0 .645-.615 1.05-2.355 1.2l-.12.135.375 2.505zm-.615 3.42h2.955v-2.55h-2.955V286zM47 359h220v5H47v-5z"/><path fill="#30405C" fill-rule="nonzero" d="M33.21 37.05h1.08L37.2 30h-1.33l-2.1 5.38L31.66 30H30.3l2.91 7.05zM39.1 37h5.24v-1.1h-4.01v-1.88h3.51v-1.1h-3.51V31.1h3.96V30H39.1v7zm7.4 0h1.21v-4.98L51.57 37h1.03v-7h-1.21v4.84L47.64 30H46.5v7zm8.6 0v-7h2.61c2.2 0 3.72 1.51 3.72 3.48v.02c0 1.97-1.52 3.5-3.72 3.5H55.1zm1.23-1.12h1.38c1.47 0 2.43-.99 2.43-2.36v-.02c0-1.37-.96-2.38-2.43-2.38h-1.38v4.76zm10.63 1.24c-2.15 0-3.65-1.63-3.65-3.6v-.02c0-1.97 1.52-3.62 3.67-3.62s3.65 1.63 3.65 3.6v.02c0 1.97-1.52 3.62-3.67 3.62zm.02-1.13c1.39 0 2.36-1.11 2.36-2.47v-.02c0-1.36-.99-2.49-2.38-2.49s-2.36 1.11-2.36 2.47v.02c0 1.36.99 2.49 2.38 2.49zM72.82 37v-7h3.12c.88 0 1.57.26 2.02.7.37.38.58.9.58 1.51v.02c0 1.15-.69 1.84-1.67 2.12L78.76 37h-1.45l-1.72-2.44h-1.54V37h-1.23zm1.23-3.53h1.8c.88 0 1.44-.46 1.44-1.17v-.02c0-.75-.54-1.16-1.45-1.16h-1.79v2.35zM84.45 37v-7h3.12c.88 0 1.57.26 2.02.7.37.38.58.9.58 1.51v.02c0 1.15-.69 1.84-1.67 2.12L90.39 37h-1.45l-1.72-2.44h-1.54V37h-1.23zm1.23-3.53h1.8c.88 0 1.44-.46 1.44-1.17v-.02c0-.75-.54-1.16-1.45-1.16h-1.79v2.35zM92.45 37h1.23v-7h-1.23v7zm6.25.1c1.47 0 2.5-.78 2.5-2.09v-.02c0-1.16-.77-1.69-2.25-2.05-1.34-.32-1.66-.56-1.66-1.1v-.02c0-.46.42-.83 1.14-.83.64 0 1.27.25 1.9.72l.66-.93c-.71-.57-1.52-.88-2.54-.88-1.39 0-2.39.83-2.39 2.03v.02c0 1.29.84 1.73 2.33 2.09 1.3.3 1.58.57 1.58 1.07v.02c0 .53-.48.88-1.24.88-.87 0-1.54-.33-2.21-.91l-.74.88c.84.75 1.85 1.12 2.92 1.12zm4.65-.1h1.23v-2.03l1.09-1.12 2.39 3.15h1.49l-3.04-3.99 2.91-3.01h-1.51l-3.33 3.52V30h-1.23v7zm17.96.21l-.84-.75c-.59.42-1.31.66-2.13.66-2.15 0-3.65-1.63-3.65-3.6v-.02c0-1.97 1.52-3.62 3.67-3.62s3.65 1.63 3.65 3.6v.02c0 .79-.25 1.54-.71 2.15l.8.68-.79.88zm-2.95-1.22c.46 0 .87-.13 1.2-.34l-1.2-1.02.79-.9 1.21 1.1c.24-.37.36-.82.36-1.31v-.02c0-1.36-.99-2.49-2.38-2.49s-2.36 1.11-2.36 2.47v.02c0 1.36.99 2.49 2.38 2.49zm8.71 1.12c1.83 0 3.01-1.05 3.01-3.14V30h-1.23v4.03c0 1.29-.67 1.95-1.76 1.95-1.1 0-1.77-.7-1.77-2V30h-1.23v4.03c0 2.03 1.16 3.08 2.98 3.08zm5.4-.11h5.24v-1.1h-4.01v-1.88h3.51v-1.1h-3.51V31.1h3.96V30h-5.19v7zm9.85.1c1.47 0 2.5-.78 2.5-2.09v-.02c0-1.16-.77-1.69-2.25-2.05-1.34-.32-1.66-.56-1.66-1.1v-.02c0-.46.42-.83 1.14-.83.64 0 1.27.25 1.9.72l.66-.93c-.71-.57-1.52-.88-2.54-.88-1.39 0-2.39.83-2.39 2.03v.02c0 1.29.84 1.73 2.33 2.09 1.3.3 1.58.57 1.58 1.07v.02c0 .53-.48.88-1.24.88-.87 0-1.54-.33-2.21-.91l-.74.88c.84.75 1.85 1.12 2.92 1.12zm6.22-.1h1.24v-5.86H152V30h-5.68v1.14h2.22V37zm5.53 0h1.23v-7h-1.23v7zm7.14.12c-2.15 0-3.65-1.63-3.65-3.6v-.02c0-1.97 1.52-3.62 3.67-3.62s3.65 1.63 3.65 3.6v.02c0 1.97-1.52 3.62-3.67 3.62zm.02-1.13c1.39 0 2.36-1.11 2.36-2.47v-.02c0-1.36-.99-2.49-2.38-2.49s-2.36 1.11-2.36 2.47v.02c0 1.36.99 2.49 2.38 2.49zm5.84 1.01h1.21v-4.98l3.86 4.98h1.03v-7h-1.21v4.84L168.21 30h-1.14v7zm8.6 0h1.21v-4.98l3.86 4.98h1.03v-7h-1.21v4.84L176.81 30h-1.14v7zm8 0l3.08-7.05h1.14l3.08 7.05h-1.3l-.71-1.69h-3.31l-.72 1.69h-1.26zm2.43-2.78h2.41l-1.21-2.8-1.2 2.8zm6.84 2.78h1.23v-7h-1.23v7zm3.8 0v-7h3.12c.88 0 1.57.26 2.02.7.37.38.58.9.58 1.51v.02c0 1.15-.69 1.84-1.67 2.12l1.89 2.65h-1.45l-1.72-2.44h-1.54V37h-1.23zm1.23-3.53h1.8c.88 0 1.44-.46 1.44-1.17v-.02c0-.75-.54-1.16-1.45-1.16h-1.79v2.35zm6.7 3.53h5.24v-1.1h-4.01v-1.88h3.51v-1.1h-3.51V31.1h3.96V30h-5.19v7z"/><g stroke-dasharray="7" transform="translate(47 158)"><mask id="d" fill="#fff"><use xlink:href="#c"/></mask><rect width="402" height="50" fill="#68CC61" fill-opacity=".2" fill-rule="nonzero" stroke="#68CC61" stroke-width="4" mask="url(#d)" rx="2"/></g><path fill="#68CC61" fill-rule="nonzero" d="M163.08 187v-8.4h3.132c2.64 0 4.464 1.812 4.464 4.176v.024c0 2.364-1.824 4.2-4.464 4.2h-3.132zm1.476-1.344h1.656c1.764 0 2.916-1.188 2.916-2.832v-.024c0-1.644-1.152-2.856-2.916-2.856h-1.656v5.712zm7.74 1.344h1.452v-2.412c0-1.68.888-2.508 2.16-2.508h.084v-1.536c-1.116-.048-1.848.6-2.244 1.548v-1.428h-1.452V187zm7.968.144c-1.932 0-3.36-1.476-3.36-3.276v-.024c0-1.812 1.44-3.312 3.384-3.312s3.372 1.476 3.372 3.288v.024c0 1.8-1.44 3.3-3.396 3.3zm.024-1.26c1.176 0 1.92-.924 1.92-2.016v-.024c0-1.116-.804-2.04-1.944-2.04-1.164 0-1.908.912-1.908 2.016v.024c0 1.104.804 2.04 1.932 2.04zm4.848 3.036v-8.256h1.452v1.056c.468-.66 1.128-1.188 2.148-1.188 1.5 0 2.952 1.188 2.952 3.288v.024c0 2.1-1.44 3.288-2.952 3.288-1.044 0-1.704-.528-2.148-1.116v2.904h-1.452zm3.264-3.048c.996 0 1.812-.78 1.812-2.028v-.024c0-1.224-.828-2.028-1.812-2.028-.984 0-1.848.816-1.848 2.028v.024c0 1.224.864 2.028 1.848 2.028zm13.152 3.048v-2.976c-.468.66-1.128 1.188-2.16 1.188-1.488 0-2.94-1.188-2.94-3.288v-.024c0-2.1 1.428-3.288 2.94-3.288 1.044 0 1.704.528 2.16 1.116v-.984h1.452v8.256h-1.452zm-1.812-3.048c.972 0 1.836-.816 1.836-2.028v-.024c0-1.224-.864-2.028-1.836-2.028-.996 0-1.824.768-1.824 2.028v.024c0 1.224.84 2.028 1.824 2.028zm7.26 1.26c.984 0 1.572-.516 1.98-1.116V187h1.452v-6.336h-1.452v3.576c0 .984-.588 1.572-1.428 1.572-.864 0-1.356-.564-1.356-1.548v-3.6h-1.452v4.032c0 1.476.828 2.436 2.256 2.436zm8.16.012c-1.836 0-3.252-1.332-3.252-3.288v-.024c0-1.812 1.284-3.3 3.096-3.3 2.016 0 3.036 1.584 3.036 3.408 0 .132-.012.264-.024.408h-4.656c.156 1.032.888 1.608 1.824 1.608.708 0 1.212-.264 1.716-.756l.852.756c-.6.72-1.428 1.188-2.592 1.188zm-1.812-3.756h3.252c-.096-.936-.648-1.668-1.608-1.668-.888 0-1.512.684-1.644 1.668zm8.328 3.732c1.32 0 2.352-.66 2.352-1.992v-.024c0-1.14-1.044-1.56-1.968-1.848-.744-.24-1.428-.432-1.428-.888v-.024c0-.372.324-.636.888-.636.528 0 1.176.228 1.788.6l.576-1.032c-.672-.444-1.536-.72-2.328-.72-1.26 0-2.256.732-2.256 1.932v.024c0 1.212 1.044 1.596 1.98 1.86.744.228 1.416.396 1.416.888v.024c0 .42-.36.684-.984.684-.648 0-1.392-.264-2.076-.78l-.648.984a4.45 4.45 0 002.688.948zm5.952-.012c.54 0 .948-.12 1.308-.324v-1.188a1.952 1.952 0 01-.9.216c-.492 0-.78-.228-.78-.792v-3.108h1.704v-1.248h-1.704v-1.74h-1.452v1.74H225v1.248h.804v3.336c0 1.392.756 1.86 1.824 1.86zm2.82-7.416h1.56v-1.38h-1.56v1.38zm.06 7.308h1.452v-6.336h-1.452V187zm6.36.144c-1.932 0-3.36-1.476-3.36-3.276v-.024c0-1.812 1.44-3.312 3.384-3.312s3.372 1.476 3.372 3.288v.024c0 1.8-1.44 3.3-3.396 3.3zm.024-1.26c1.176 0 1.92-.924 1.92-2.016v-.024c0-1.116-.804-2.04-1.944-2.04-1.164 0-1.908.912-1.908 2.016v.024c0 1.104.804 2.04 1.932 2.04zM241.74 187h1.452v-3.576c0-.984.588-1.572 1.428-1.572.864 0 1.356.564 1.356 1.548v3.6h1.452v-4.032c0-1.476-.828-2.436-2.256-2.436-.984 0-1.572.516-1.98 1.116v-.984h-1.452V187zm11.04 0h1.452v-3.576c0-.984.588-1.572 1.428-1.572.864 0 1.356.564 1.356 1.548v3.6h1.452v-4.032c0-1.476-.828-2.436-2.256-2.436-.984 0-1.572.516-1.98 1.116v-3.408h-1.452V187zm10.344.144c-1.836 0-3.252-1.332-3.252-3.288v-.024c0-1.812 1.284-3.3 3.096-3.3 2.016 0 3.036 1.584 3.036 3.408 0 .132-.012.264-.024.408h-4.656c.156 1.032.888 1.608 1.824 1.608.708 0 1.212-.264 1.716-.756l.852.756c-.6.72-1.428 1.188-2.592 1.188zm-1.812-3.756h3.252c-.096-.936-.648-1.668-1.608-1.668-.888 0-1.512.684-1.644 1.668zm6.156 3.612h1.452v-2.412c0-1.68.888-2.508 2.16-2.508h.084v-1.536c-1.116-.048-1.848.6-2.244 1.548v-1.428h-1.452V187zm7.86.144c-1.836 0-3.252-1.332-3.252-3.288v-.024c0-1.812 1.284-3.3 3.096-3.3 2.016 0 3.036 1.584 3.036 3.408 0 .132-.012.264-.024.408h-4.656c.156 1.032.888 1.608 1.824 1.608.708 0 1.212-.264 1.716-.756l.852.756c-.6.72-1.428 1.188-2.592 1.188zm-1.812-3.756h3.252c-.096-.936-.648-1.668-1.608-1.668-.888 0-1.512.684-1.644 1.668zm11.88 3.72c.54 0 .948-.12 1.308-.324v-1.188a1.952 1.952 0 01-.9.216c-.492 0-.78-.228-.78-.792v-3.108h1.704v-1.248h-1.704v-1.74h-1.452v1.74h-.804v1.248h.804v3.336c0 1.392.756 1.86 1.824 1.86zm5.808.036c-1.932 0-3.36-1.476-3.36-3.276v-.024c0-1.812 1.44-3.312 3.384-3.312s3.372 1.476 3.372 3.288v.024c0 1.8-1.44 3.3-3.396 3.3zm.024-1.26c1.176 0 1.92-.924 1.92-2.016v-.024c0-1.116-.804-2.04-1.944-2.04-1.164 0-1.908.912-1.908 2.016v.024c0 1.104.804 2.04 1.932 2.04zM304.992 187h-1.44v-.78c-.432.516-1.092.912-2.052.912-1.2 0-2.256-.684-2.256-1.956v-.024c0-1.404 1.092-2.076 2.568-2.076.768 0 1.26.108 1.752.264v-.12c0-.876-.552-1.356-1.56-1.356-.708 0-1.236.156-1.812.396l-.396-1.164c.696-.312 1.38-.528 2.412-.528 1.872 0 2.784.984 2.784 2.676V187zm-1.404-2.292v-.36a4.148 4.148 0 00-1.452-.252c-.912 0-1.452.372-1.452.984v.024c0 .6.54.936 1.224.936.96 0 1.68-.54 1.68-1.332zm5.748 2.424c-1.488 0-2.94-1.188-2.94-3.288v-.024c0-2.1 1.428-3.288 2.94-3.288 1.044 0 1.704.528 2.16 1.116v-3.408h1.452V187h-1.452v-1.056c-.468.66-1.128 1.188-2.16 1.188zm.348-1.26c.972 0 1.836-.816 1.836-2.028v-.024c0-1.224-.864-2.028-1.836-2.028-.996 0-1.824.768-1.824 2.028v.024c0 1.224.84 2.028 1.824 2.028zm7.692 1.26c-1.488 0-2.94-1.188-2.94-3.288v-.024c0-2.1 1.428-3.288 2.94-3.288 1.044 0 1.704.528 2.16 1.116v-3.408h1.452V187h-1.452v-1.056c-.468.66-1.128 1.188-2.16 1.188zm.348-1.26c.972 0 1.836-.816 1.836-2.028v-.024c0-1.224-.864-2.028-1.836-2.028-.996 0-1.824.768-1.824 2.028v.024c0 1.224.84 2.028 1.824 2.028z"/></g></g><mask id="f" fill="#fff"><use xlink:href="#e"/></mask><path fill="#30405C" fill-rule="nonzero" d="M90.025 57.15c2.205 0 3.75-1.17 3.75-3.135v-.03c0-1.74-1.155-2.535-3.375-3.075-2.01-.48-2.49-.84-2.49-1.65v-.03c0-.69.63-1.245 1.71-1.245.96 0 1.905.375 2.85 1.08l.99-1.395c-1.065-.855-2.28-1.32-3.81-1.32-2.085 0-3.585 1.245-3.585 3.045v.03c0 1.935 1.26 2.595 3.495 3.135 1.95.45 2.37.855 2.37 1.605v.03c0 .795-.72 1.32-1.86 1.32-1.305 0-2.31-.495-3.315-1.365l-1.11 1.32a6.468 6.468 0 004.38 1.68zm9.145.03c-2.295 0-4.065-1.665-4.065-4.11v-.03c0-2.265 1.605-4.125 3.87-4.125 2.52 0 3.795 1.98 3.795 4.26 0 .165-.015.33-.03.51h-5.82c.195 1.29 1.11 2.01 2.28 2.01.885 0 1.515-.33 2.145-.945l1.065.945c-.75.9-1.785 1.485-3.24 1.485zm-2.265-4.695h4.065c-.12-1.17-.81-2.085-2.01-2.085-1.11 0-1.89.855-2.055 2.085zm11.155 4.695c1.545 0 2.46-.615 3.24-1.485l-1.095-1.08c-.57.585-1.2.99-2.055.99-1.395 0-2.37-1.14-2.37-2.55v-.03c0-1.38.96-2.52 2.28-2.52.915 0 1.5.405 2.055.99l1.125-1.215c-.735-.81-1.665-1.365-3.165-1.365-2.37 0-4.11 1.89-4.11 4.14v.03c0 2.25 1.74 4.095 4.095 4.095zm7.435-.015c1.23 0 1.965-.645 2.475-1.395V57h1.815v-7.92h-1.815v4.47c0 1.23-.735 1.965-1.785 1.965-1.08 0-1.695-.705-1.695-1.935v-4.5h-1.815v5.04c0 1.845 1.035 3.045 2.82 3.045zm6.37-.165h1.815v-3.015c0-2.1 1.11-3.135 2.7-3.135h.105v-1.92c-1.395-.06-2.31.75-2.805 1.935V49.08h-1.815V57zm6.025-9.135h1.95V46.14h-1.95v1.725zm.075 9.135h1.815v-7.92h-1.815V57zm6.64.135c.675 0 1.185-.15 1.635-.405v-1.485c-.36.18-.72.27-1.125.27-.615 0-.975-.285-.975-.99V50.64h2.13v-1.56h-2.13v-2.175h-1.815v2.175h-1.005v1.56h1.005v4.17c0 1.74.945 2.325 2.28 2.325zm4.915 2.31c1.275 0 1.98-.6 2.61-2.22l3.15-8.145h-1.89l-2.055 5.88-2.25-5.88h-1.935l3.3 7.92c-.3.69-.615.915-1.125.915-.375 0-.735-.12-1.065-.3l-.615 1.35c.555.3 1.11.48 1.875.48zM150.25 57l4.62-10.575h1.71L161.2 57h-1.95l-1.065-2.535h-4.965L152.14 57h-1.89zm3.645-4.17h3.615l-1.815-4.2-1.8 4.2zm11.41 4.32c1.65 0 2.94-.825 2.94-2.49v-.03c0-1.425-1.305-1.95-2.46-2.31-.93-.3-1.785-.54-1.785-1.11v-.03c0-.465.405-.795 1.11-.795.66 0 1.47.285 2.235.75l.72-1.29c-.84-.555-1.92-.9-2.91-.9-1.575 0-2.82.915-2.82 2.415v.03c0 1.515 1.305 1.995 2.475 2.325.93.285 1.77.495 1.77 1.11v.03c0 .525-.45.855-1.23.855-.81 0-1.74-.33-2.595-.975l-.81 1.23c.99.78 2.235 1.185 3.36 1.185zm7.15 0c1.65 0 2.94-.825 2.94-2.49v-.03c0-1.425-1.305-1.95-2.46-2.31-.93-.3-1.785-.54-1.785-1.11v-.03c0-.465.405-.795 1.11-.795.66 0 1.47.285 2.235.75l.72-1.29c-.84-.555-1.92-.9-2.91-.9-1.575 0-2.82.915-2.82 2.415v.03c0 1.515 1.305 1.995 2.475 2.325.93.285 1.77.495 1.77 1.11v.03c0 .525-.45.855-1.23.855-.81 0-1.74-.33-2.595-.975l-.81 1.23c.99.78 2.235 1.185 3.36 1.185zm8.215.03c-2.295 0-4.065-1.665-4.065-4.11v-.03c0-2.265 1.605-4.125 3.87-4.125 2.52 0 3.795 1.98 3.795 4.26 0 .165-.015.33-.03.51h-5.82c.195 1.29 1.11 2.01 2.28 2.01.885 0 1.515-.33 2.145-.945l1.065.945c-.75.9-1.785 1.485-3.24 1.485zm-2.265-4.695h4.065c-.12-1.17-.81-2.085-2.01-2.085-1.11 0-1.89.855-2.055 2.085zm10.21 4.665c1.65 0 2.94-.825 2.94-2.49v-.03c0-1.425-1.305-1.95-2.46-2.31-.93-.3-1.785-.54-1.785-1.11v-.03c0-.465.405-.795 1.11-.795.66 0 1.47.285 2.235.75l.72-1.29c-.84-.555-1.92-.9-2.91-.9-1.575 0-2.82.915-2.82 2.415v.03c0 1.515 1.305 1.995 2.475 2.325.93.285 1.77.495 1.77 1.11v.03c0 .525-.45.855-1.23.855-.81 0-1.74-.33-2.595-.975l-.81 1.23c.99.78 2.235 1.185 3.36 1.185zm7.15 0c1.65 0 2.94-.825 2.94-2.49v-.03c0-1.425-1.305-1.95-2.46-2.31-.93-.3-1.785-.54-1.785-1.11v-.03c0-.465.405-.795 1.11-.795.66 0 1.47.285 2.235.75l.72-1.29c-.84-.555-1.92-.9-2.91-.9-1.575 0-2.82.915-2.82 2.415v.03c0 1.515 1.305 1.995 2.475 2.325.93.285 1.77.495 1.77 1.11v.03c0 .525-.45.855-1.23.855-.81 0-1.74-.33-2.595-.975l-.81 1.23c.99.78 2.235 1.185 3.36 1.185zm4.585-.15h1.815v-4.455c0-1.23.69-1.98 1.695-1.98 1.005 0 1.605.69 1.605 1.92V57h1.815v-4.47c0-1.275.705-1.965 1.695-1.965 1.02 0 1.605.675 1.605 1.935V57h1.815v-5.055c0-1.935-1.05-3.03-2.775-3.03-1.2 0-2.04.555-2.685 1.395-.42-.84-1.215-1.395-2.355-1.395-1.215 0-1.905.66-2.415 1.365v-1.2h-1.815V57zm17.68.18c-2.295 0-4.065-1.665-4.065-4.11v-.03c0-2.265 1.605-4.125 3.87-4.125 2.52 0 3.795 1.98 3.795 4.26 0 .165-.015.33-.03.51h-5.82c.195 1.29 1.11 2.01 2.28 2.01.885 0 1.515-.33 2.145-.945l1.065.945c-.75.9-1.785 1.485-3.24 1.485zm-2.265-4.695h4.065c-.12-1.17-.81-2.085-2.01-2.085-1.11 0-1.89.855-2.055 2.085zM223.26 57h1.815v-4.47c0-1.23.735-1.965 1.785-1.965 1.08 0 1.695.705 1.695 1.935V57h1.815v-5.04c0-1.845-1.035-3.045-2.82-3.045-1.23 0-1.965.645-2.475 1.395v-1.23h-1.815V57zm11.755.135c.675 0 1.185-.15 1.635-.405v-1.485c-.36.18-.72.27-1.125.27-.615 0-.975-.285-.975-.99V50.64h2.13v-1.56h-2.13v-2.175h-1.815v2.175h-1.005v1.56h1.005v4.17c0 1.74.945 2.325 2.28 2.325zm17.27.18l-1.26-1.125c-.885.63-1.965.99-3.195.99-3.225 0-5.475-2.445-5.475-5.4v-.03c0-2.955 2.28-5.43 5.505-5.43s5.475 2.445 5.475 5.4v.03c0 1.185-.375 2.31-1.065 3.225l1.2 1.02-1.185 1.32zm-4.425-1.83c.69 0 1.305-.195 1.8-.51l-1.8-1.53 1.185-1.35 1.815 1.65c.36-.555.54-1.23.54-1.965v-.03c0-2.04-1.485-3.735-3.57-3.735s-3.54 1.665-3.54 3.705v.03c0 2.04 1.485 3.735 3.57 3.735zm10.03 1.68c1.23 0 1.965-.645 2.475-1.395V57h1.815v-7.92h-1.815v4.47c0 1.23-.735 1.965-1.785 1.965-1.08 0-1.695-.705-1.695-1.935v-4.5h-1.815v5.04c0 1.845 1.035 3.045 2.82 3.045zm10 .015c-2.295 0-4.065-1.665-4.065-4.11v-.03c0-2.265 1.605-4.125 3.87-4.125 2.52 0 3.795 1.98 3.795 4.26 0 .165-.015.33-.03.51h-5.82c.195 1.29 1.11 2.01 2.28 2.01.885 0 1.515-.33 2.145-.945l1.065.945c-.75.9-1.785 1.485-3.24 1.485zm-2.265-4.695h4.065c-.12-1.17-.81-2.085-2.01-2.085-1.11 0-1.89.855-2.055 2.085zm10.21 4.665c1.65 0 2.94-.825 2.94-2.49v-.03c0-1.425-1.305-1.95-2.46-2.31-.93-.3-1.785-.54-1.785-1.11v-.03c0-.465.405-.795 1.11-.795.66 0 1.47.285 2.235.75l.72-1.29c-.84-.555-1.92-.9-2.91-.9-1.575 0-2.82.915-2.82 2.415v.03c0 1.515 1.305 1.995 2.475 2.325.93.285 1.77.495 1.77 1.11v.03c0 .525-.45.855-1.23.855-.81 0-1.74-.33-2.595-.975l-.81 1.23c.99.78 2.235 1.185 3.36 1.185zm7.09-.015c.675 0 1.185-.15 1.635-.405v-1.485c-.36.18-.72.27-1.125.27-.615 0-.975-.285-.975-.99V50.64h2.13v-1.56h-2.13v-2.175h-1.815v2.175h-1.005v1.56h1.005v4.17c0 1.74.945 2.325 2.28 2.325zm3.325-9.27h1.95V46.14h-1.95v1.725zm.075 9.135h1.815v-7.92h-1.815V57zm7.75.18c-2.415 0-4.2-1.845-4.2-4.095v-.03c0-2.265 1.8-4.14 4.23-4.14 2.43 0 4.215 1.845 4.215 4.11v.03c0 2.25-1.8 4.125-4.245 4.125zm.03-1.575c1.47 0 2.4-1.155 2.4-2.52v-.03c0-1.395-1.005-2.55-2.43-2.55-1.455 0-2.385 1.14-2.385 2.52v.03c0 1.38 1.005 2.55 2.415 2.55zm5.86 1.395h1.815v-4.47c0-1.23.735-1.965 1.785-1.965 1.08 0 1.695.705 1.695 1.935V57h1.815v-5.04c0-1.845-1.035-3.045-2.82-3.045-1.23 0-1.965.645-2.475 1.395v-1.23h-1.815V57zm9.1 0h1.815v-4.47c0-1.23.735-1.965 1.785-1.965 1.08 0 1.695.705 1.695 1.935V57h1.815v-5.04c0-1.845-1.035-3.045-2.82-3.045-1.23 0-1.965.645-2.475 1.395v-1.23h-1.815V57zm15.745 0h-1.8v-.975c-.54.645-1.365 1.14-2.565 1.14-1.5 0-2.82-.855-2.82-2.445v-.03c0-1.755 1.365-2.595 3.21-2.595.96 0 1.575.135 2.19.33v-.15c0-1.095-.69-1.695-1.95-1.695-.885 0-1.545.195-2.265.495l-.495-1.455c.87-.39 1.725-.66 3.015-.66 2.34 0 3.48 1.23 3.48 3.345V57zm-1.755-2.865v-.45a5.185 5.185 0 00-1.815-.315c-1.14 0-1.815.465-1.815 1.23v.03c0 .75.675 1.17 1.53 1.17 1.2 0 2.1-.675 2.1-1.665zm3.745-6.27h1.95V46.14h-1.95v1.725zm.075 9.135h1.815v-7.92h-1.815V57zm3.985 0h1.815v-3.015c0-2.1 1.11-3.135 2.7-3.135h.105v-1.92c-1.395-.06-2.31.75-2.805 1.935V49.08h-1.815V57zm9.355.18c-2.295 0-4.065-1.665-4.065-4.11v-.03c0-2.265 1.605-4.125 3.87-4.125 2.52 0 3.795 1.98 3.795 4.26 0 .165-.015.33-.03.51h-5.82c.195 1.29 1.11 2.01 2.28 2.01.885 0 1.515-.33 2.145-.945l1.065.945c-.75.9-1.785 1.485-3.24 1.485zm-2.265-4.695h4.065c-.12-1.17-.81-2.085-2.01-2.085-1.11 0-1.89.855-2.055 2.085z" mask="url(#f)"/><mask id="h" fill="#fff"><use xlink:href="#g"/></mask><g mask="url(#h)"><path stroke="#2E8BE0" d="M71.533 63.147a43.096 43.096 0 01-17.066 0c-1.166-.245-2.369-1.448-2.614-2.614a43.096 43.096 0 010-17.066c.245-1.166 1.448-2.369 2.614-2.614a43.096 43.096 0 0117.066 0c1.166.245 2.369 1.448 2.614 2.614a43.096 43.096 0 010 17.066c-.245 1.166-1.448 2.369-2.614 2.614"/><path fill="#2E8BE0" fill-rule="nonzero" d="M54.495 50.84c0-.47.37-.77 1.12-.77.74 0 1.19.4 1.3 1.04l1.52-.33c-.24-1.23-1.33-1.92-2.78-1.92-1.55 0-2.68.7-2.68 2.1 0 1.41 1.11 1.89 2.57 2.12 1.09.17 1.47.42 1.47.94 0 .64-.58.91-1.29.91-.88 0-1.33-.49-1.4-1.16l-1.5.24c.06 1.13 1.13 2.13 2.9 2.13 1.63 0 2.82-.85 2.82-2.2 0-1.26-.76-1.84-2.42-2.12-1.14-.19-1.63-.38-1.63-.98zm8.74-1.84l2.52 7h-1.55l-.56-1.62h-2.51l-.56 1.62h-1.47l2.52-7h1.61zm-.84 1.64h-.02c-.12.45-.83 2.55-.83 2.55h1.69s-.72-2.1-.84-2.55zm9.5 6.09l-.76-.84c-.41.16-.88.25-1.39.25-2.05 0-3.41-1.37-3.41-3.64s1.36-3.64 3.41-3.64 3.41 1.37 3.41 3.64c0 1.21-.39 2.17-1.06 2.79l.64.7-.84.74zm-4.01-4.23c0 1.42.6 2.4 1.86 2.4.16 0 .31-.02.45-.05l-.65-.72.82-.74.77.85c.32-.42.47-1.02.47-1.74 0-1.42-.6-2.4-1.86-2.4-1.26 0-1.86.98-1.86 2.4z"/></g><g><mask id="j" fill="#fff"><use xlink:href="#i"/></mask><g mask="url(#j)"><g transform="translate(549 79)"><g fill-rule="nonzero"><rect width="216" height="445" fill="#000" rx="2"/><rect width="216" height="445" fill="#FFF" rx="2"/></g><rect width="62" height="62" x="122" y="420" stroke="#E5E7EB" stroke-width="2" rx="2"/><rect width="62" height="62" x="31" y="420" stroke="#E5E7EB" stroke-width="2" rx="2"/><g transform="translate(31 61)"><path fill="#E5E7EB" fill-rule="nonzero" d="M16 78h30v5H16z"/><rect width="62" height="62" stroke="#E5E7EB" stroke-width="2" rx="2"/><path fill="#68CC61" fill-rule="nonzero" d="M16.687 37l3.9-9.165h1.846l3.9 9.165H24.24l-.832-2.041H19.56L18.728 37h-2.041zm3.588-3.809h2.418l-1.209-2.951-1.209 2.951zM27.737 37v-9.1h4.225c1.04 0 1.859.286 2.379.806.416.416.624.923.624 1.547v.026c0 1.027-.546 1.599-1.196 1.963 1.053.403 1.703 1.014 1.703 2.236v.026c0 1.664-1.352 2.496-3.406 2.496h-4.329zm1.95-5.421h1.846c.884 0 1.443-.286 1.443-.962v-.026c0-.598-.468-.936-1.313-.936h-1.976v1.924zm0 3.666h2.379c.884 0 1.417-.312 1.417-.988v-.026c0-.611-.455-.988-1.482-.988h-2.314v2.002zm11.7 1.911c1.755 0 2.795-.624 3.731-1.625l-1.274-1.287c-.715.65-1.352 1.066-2.392 1.066-1.56 0-2.639-1.3-2.639-2.86v-.026c0-1.56 1.105-2.834 2.639-2.834.91 0 1.625.39 2.327 1.027l1.274-1.469c-.845-.832-1.872-1.404-3.588-1.404-2.795 0-4.745 2.119-4.745 4.706v.026c0 2.613 1.989 4.68 4.667 4.68zM46 24h1v17h-1V24z"/></g><g transform="translate(123 61)"><path fill="#E5E7EB" fill-rule="nonzero" d="M16 78h30v5H16z"/><rect width="62" height="62" stroke="#E5E7EB" stroke-width="2" rx="2"/><rect width="42" height="12" x="10" y="26" stroke="#68CC61" stroke-width="2" rx="2"/><rect width="14" height="14" x="39" y="25" fill="#68CC61" fill-rule="nonzero" rx="2"/><path fill="#FFF" fill-rule="nonzero" d="M43 30h6l-3 5"/></g><g transform="translate(122 182)"><path fill="#E5E7EB" fill-rule="nonzero" d="M16 78h30v5H16z"/><rect width="62" height="62" stroke="#E5E7EB" stroke-width="2" rx="2"/><path fill="#84CC98" fill-rule="nonzero" d="M26 20h20v2H26v-2zm0 10h20v2H26v-2z"/><path stroke="#84CC98" stroke-width="2" d="M15.772 18.881l2.244 2.244L22.14 17M16 29.881l2.244 2.244L22.368 28"/><path fill="#84CC98" fill-rule="nonzero" d="M26 40h20v2H26z"/><path stroke="#84CC98" stroke-width="2" d="M17 39h4v4h-4z"/></g><g transform="translate(122 301)"><rect width="28" height="24" x="17" y="19" stroke="#68CC61" stroke-width="2" rx="2"/><path stroke="#68CC61" stroke-width="2" d="M23 15h1v6h-1v-6zm16 0h1v6h-1v-6z"/><path fill="#68CC61" d="M28.264 36.156c2.028 0 3.276-1.261 3.276-2.977v-.026c0-1.69-1.21-2.34-2.444-2.548l2.3-2.197V26.9h-6.149v1.716h3.576L26.652 30.8l.312 1.274h.832c1.118 0 1.78.416 1.78 1.157v.026c0 .676-.532 1.105-1.286 1.105-.923 0-1.573-.39-2.197-1.092l-1.378 1.313c.78.923 1.91 1.573 3.549 1.573zM34.608 36h1.976v-9.165h-1.366l-2.613.78.417 1.638 1.586-.39V36z"/><path fill="#E5E7EB" fill-rule="nonzero" d="M16 78h30v5H16z"/><rect width="62" height="62" stroke="#E5E7EB" stroke-width="2" rx="2"/></g><g transform="translate(31 182)"><path fill="#E5E7EB" fill-rule="nonzero" d="M16 78h30v5H16z"/><rect width="62" height="62" stroke="#E5E7EB" stroke-width="2" rx="2"/><path fill="#68CC61" fill-rule="nonzero" d="M27 20h20v2H27v-2zm0 10h20v2H27v-2zm0 10h20v2H27v-2z"/><circle cx="3" cy="3" r="3" fill="#68CC61" fill-rule="nonzero" transform="translate(17 18)"/><circle cx="20" cy="21" r="2" stroke="#68CC61" stroke-width="2"/><circle cx="20" cy="31" r="2" stroke="#68CC61" stroke-width="2"/><path fill="#FFF" fill-rule="nonzero" d="M19 30h2v2h-2z"/><circle cx="20" cy="41" r="2" stroke="#68CC61" stroke-width="2"/><path fill="#FFF" fill-rule="nonzero" d="M19 40h2v2h-2z"/></g><g transform="translate(31 301)"><rect width="62" height="62" stroke="#E5E7EB" stroke-width="2" rx="2"/><path fill="#E5E7EB" fill-rule="nonzero" d="M16 78h30v5H16z"/><path fill="#68CC61" fill-rule="nonzero" d="M26 20h20v2H26v-2zm0 10h20v2H26v-2zm-8.004-8h1.84v-5.64H18.42l-1.672.456.336 1.384.912-.2v4zm-1.86 12h4.72v-1.464h-2.184l1-.64c.672-.432 1.128-.896 1.128-1.752v-.016c0-1.064-.92-1.832-2.2-1.832-1.168 0-1.824.432-2.472 1.232l1.232 1.048c.464-.496.76-.696 1.08-.696.32 0 .504.176.504.416 0 .216-.136.432-.488.68l-2.32 1.664V34zm2.448 12.12c1.24 0 2.296-.672 2.296-1.88v-.016c0-.88-.544-1.368-1.384-1.592l1.256-.944V40.4h-4.304v1.456h2.08l-1.232.976.248.832h.792c.496 0 .736.176.736.448v.016c0 .264-.224.448-.64.448-.464 0-.904-.216-1.32-.608L16 45.112c.616.632 1.432 1.008 2.584 1.008zM26 40h20v2H26v-2z"/></g><path fill="#30405C" fill-rule="nonzero" d="M32.62 37h1.24v-5.86h2.22V30H30.4v1.14h2.22V37zm8.42.12c-2.15 0-3.65-1.63-3.65-3.6v-.02c0-1.97 1.52-3.62 3.67-3.62s3.65 1.63 3.65 3.6v.02c0 1.97-1.52 3.62-3.67 3.62zm.02-1.13c1.39 0 2.36-1.11 2.36-2.47v-.02c0-1.36-.99-2.49-2.38-2.49s-2.36 1.11-2.36 2.47v.02c0 1.36.99 2.49 2.38 2.49zm9.18 1.13c-2.15 0-3.65-1.63-3.65-3.6v-.02c0-1.97 1.52-3.62 3.67-3.62s3.65 1.63 3.65 3.6v.02c0 1.97-1.52 3.62-3.67 3.62zm.02-1.13c1.39 0 2.36-1.11 2.36-2.47v-.02c0-1.36-.99-2.49-2.38-2.49s-2.36 1.11-2.36 2.47v.02c0 1.36.99 2.49 2.38 2.49zM56.1 37h4.91v-1.12h-3.68V30H56.1v7zm6.89 0v-7h3.14c.8 0 1.43.22 1.83.62.31.31.47.69.47 1.16v.02c0 .84-.48 1.29-1 1.56.82.28 1.39.75 1.39 1.7v.02c0 1.25-1.03 1.92-2.59 1.92h-3.24zm1.21-4.05h1.68c.79 0 1.32-.31 1.32-.95v-.02c0-.55-.44-.89-1.23-.89H64.2v1.86zm0 2.96h2.04c.84 0 1.35-.33 1.35-.96v-.02c0-.59-.47-.94-1.44-.94H64.2v1.92zm10.05 1.21c-2.15 0-3.65-1.63-3.65-3.6v-.02c0-1.97 1.52-3.62 3.67-3.62s3.65 1.63 3.65 3.6v.02c0 1.97-1.52 3.62-3.67 3.62zm.02-1.13c1.39 0 2.36-1.11 2.36-2.47v-.02c0-1.36-.99-2.49-2.38-2.49s-2.36 1.11-2.36 2.47v.02c0 1.36.99 2.49 2.38 2.49zM79.08 37h1.41l1.85-2.65L84.18 37h1.45l-2.54-3.58L85.53 30h-1.41l-1.75 2.51L80.63 30h-1.45l2.45 3.44L79.08 37z"/></g></g></g></g></svg>