<svg xmlns="http://www.w3.org/2000/svg" viewBox="0 0 201.3 236"><g fill="#6EBFEB"><circle cx="100.3" cy="183.9" r="3.5"/><circle cx="100.3" cy="167.7" r="3.5"/><circle cx="100.3" cy="151.5" r="3.5"/></g><g fill="#6EBFEB"><circle cx="100.3" cy="78.4" r="3.5"/><circle cx="100.3" cy="62.2" r="3.5"/><circle cx="100.3" cy="45.9" r="3.5"/></g><g fill="#6EBFEB"><ellipse transform="rotate(-58.862 159.474 150.602)" cx="159.5" cy="150.6" rx="3.5" ry="3.5"/><ellipse transform="rotate(-58.862 145.58 142.207)" cx="145.6" cy="142.2" rx="3.5" ry="3.5"/><ellipse transform="rotate(-58.862 131.686 133.812)" cx="131.7" cy="133.8" rx="3.5" ry="3.5"/><g><ellipse transform="rotate(-31.14 69.174 133.82)" cx="69.2" cy="133.8" rx="3.5" ry="3.5"/><ellipse transform="rotate(-31.14 55.28 142.214)" cx="55.3" cy="142.2" rx="3.5" ry="3.5"/><ellipse transform="rotate(-31.14 41.384 150.61)" cx="41.4" cy="150.6" rx="3.5" ry="3.5"/></g></g><g fill="#6EBFEB"><ellipse transform="rotate(-31.14 159.488 79.22)" cx="159.5" cy="79.2" rx="3.5" ry="3.5"/><ellipse transform="rotate(-31.14 145.593 87.615)" cx="145.6" cy="87.6" rx="3.5" ry="3.5"/><ellipse transform="rotate(-31.14 131.697 96.01)" cx="131.7" cy="96" rx="3.5" ry="3.5"/><g><ellipse transform="rotate(-58.862 69.17 96.002)" cx="69.2" cy="96" rx="3.5" ry="3.5"/><ellipse transform="rotate(-58.862 55.276 87.607)" cx="55.3" cy="87.6" rx="3.5" ry="3.5"/><ellipse transform="rotate(-58.862 41.382 79.212)" cx="41.4" cy="79.2" rx="3.5" ry="3.5"/></g></g><path fill="#FFF" d="M100.4 143.6l-24.9-14.4v-28.7l24.9-14.3 24.9 14.3v28.7l-24.9 14.4zm-20.1-17.1l20.1 11.6 20.1-11.6v-23.2l-20.1-11.6-20.1 11.6v23.2z"/><g fill="#FFF"><path d="M201.3 94h-32.7V55.3h21.5l11.2 11.2V94zm-31-1.6h29.4V67.2l-10.3-10.3h-19.2v35.5z"/><path d="M189.8 56.1v10.7h10.7"/></g><g fill="#FFF"><path d="M117.9 38.7H85.2V0h21.5l11.2 11.2v27.5zm-31.1-1.6h29.4V11.9L106 1.6H86.8v35.5z"/><path d="M106.3.8v10.8H117"/></g><path fill="#FFF" d="M112.8 234.4H83.4v-28h-.1v-1.7h-1.6V236h32.7v-4.5h-1.6"/><g fill="#FFF"><path d="M119.1 230.5H86.4v-38.7h21.5l11.2 11.2v27.5zM88 228.8h29.4v-25.2l-10.3-10.3H88v35.5z"/><path d="M107.5 192.6v10.7h10.8"/></g><path fill="#FFF" d="M83.102.038v1.6h-12.3v-1.6zM83.08 4.92v1.6h-7.7v-1.6zM83.13 10.11v1.6h-4.6v-1.6z"/><g fill="#FFF"><path d="M32.7 183.1H0v-38.7h21.5l11.2 11.2v27.5zm-31.1-1.6H31v-25.2L20.7 146H1.6v35.5z"/><path d="M21.1 145.2V156h10.8"/></g><path fill="#FFF" d="M21.958 158.146v1.6h-16.7v-1.6zM22.037 163.025v1.6h-16.7v-1.6zM18.932 168.27v1.6h-13.6v-1.6z"/><g fill="#FFF"><path d="M200.8 182.8h-32.7v-38.7h21.5l11.2 11.2v27.5zm-31.1-1.6h29.4V156l-10.3-10.3h-19.2v35.5z"/><path d="M189.2 145v10.7h10.7"/></g><circle fill="#FFF" cx="176.1" cy="155.4" r="1.5"/><path fill="#FFF" d="M176.1 158.5c-1.7 0-3.1-1.4-3.1-3.1 0-1.7 1.4-3.1 3.1-3.1 1.7 0 3.1 1.4 3.1 3.1 0 1.7-1.4 3.1-3.1 3.1zm0-5.3c-1.2 0-2.2 1-2.2 2.2 0 1.2 1 2.2 2.2 2.2 1.2 0 2.2-1 2.2-2.2 0-1.2-1-2.2-2.2-2.2zM176.1 167c-.6 0-1.2-.2-1.7-.5-1.4-1-1.8-2.9-.8-4.3s2.9-1.8 4.3-.8c.7.5 1.1 1.2 1.3 2 .2.8 0 1.6-.5 2.3-.5.7-1.2 1.1-2 1.3h-.6zm0-5.3h-.4c-.6.1-1.1.4-1.4.9-.7 1-.4 2.4.6 3.1 1 .7 2.4.4 3.1-.6.3-.5.5-1.1.3-1.6-.1-.6-.4-1.1-.9-1.4-.5-.2-.9-.4-1.3-.4zM176.1 176.2c-.6 0-1.2-.2-1.7-.5-.7-.5-1.1-1.2-1.3-2-.2-.8 0-1.6.5-2.3.5-.7 1.2-1.1 2-1.3.8-.2 1.6 0 2.3.5.7.5 1.1 1.2 1.3 2 .2.8 0 1.6-.5 2.3-.5.7-1.2 1.1-2 1.3h-.6zm0-5.3h-.4c-.6.1-1.1.4-1.4.9-.3.5-.5 1.1-.3 1.6.1.6.4 1.1.9 1.4.5.3 1.1.4 1.6.3.6-.1 1.1-.4 1.4-.9.3-.5.5-1.1.3-1.6-.1-.6-.4-1.1-.9-1.4-.4-.1-.8-.3-1.2-.3zM193.712 163.072v1.6h-12.3v-1.6zM193.703 171.664v1.6h-12.3v-1.6zM192.8 81.6c-.7 0-1.2-.5-1.2-1.2h1.2v-1.2h-1.2v-6.6c0-.7.5-1.2 1.2-1.2.4 0 .6-.2.6-.6 0-.4-.2-.6-.6-.6-.7 0-1.4.3-1.8.8-.4-.5-1.1-.8-1.8-.8-.4 0-.6.2-.6.6 0 .4.2.6.6.6.7 0 1.2.5 1.2 1.2v6.6h-1.2v1.2h1.2c0 .7-.5 1.2-1.2 1.2-.4 0-.6.2-.6.6s.2.6.6.6c.7 0 1.4-.3 1.8-.8.4.5 1.1.8 1.8.8.4 0 .6-.2.6-.6s-.2-.6-.6-.6z"/><g><path fill="#FFF" d="M176.9 80.8c.6-.1.9-.2 1.1-.4.2-.2.2-.7.2-1.4v-6.1l-.2-.2c-.2-.2-.4-.4-.5-.4-.1-.1-.4-.1-.6-.1v-.3h2.4l5.3 6.6v-4.6c0-.8-.1-1.2-.3-1.5-.1-.1-.5-.2-1-.3v-.3h3.3v.3c-.5.1-.9.2-1.1.4s-.3.7-.3 1.4v7.3h-.2l-6.1-7.6V79c0 .8.1 1.2.3 1.5.1.1.5.3 1 .3v.3h-3.3v-.3z"/></g><path fill="#FFF" d="M112.1 207.3c-.2 0-.5.1-.7.3l-3.2 3-2.9 2.9-2.8 3-1.7 1.9-.7-.6-2-1.7-2.1-1.7-2.1-1.5c-.6-.3-1.2 0-.9.6l1.6 2.3 1.7 2.1 1.7 2 1.8 2c.7.6 1.6.6 2.3-.1l2.7-3.1 2.6-3.2 2.4-3.3 2.5-3.5c.5-.9.2-1.3-.2-1.4z"/><ellipse transform="rotate(-58.795 100.322 114.226)" fill="#6EBFEB" cx="100.3" cy="114.2" rx="9.4" ry="9.4"/><path fill="#FFF" d="M48.5 110.9h8v8h-8zM144.4 110.9h8v8h-8zM122.3 69h8v8h-8zM70.3 69h8v8h-8zM122.3 152.9h8v8h-8zM70.3 152.9h8v8h-8z"/></svg>