<svg width="497" height="518" viewBox="0 0 497 518" xmlns="http://www.w3.org/2000/svg"><g transform="translate(4.203 .5)" fill="none" fill-rule="evenodd"><path d="M45.583 262.5a8 8 0 016.928-4h89.021a8 8 0 016.929 4l44.51 77.095a8 8 0 010 8l-44.51 77.095a8.002 8.002 0 01-6.929 4H52.511a8 8 0 01-6.928-4L1.072 347.595a8 8 0 010-8L45.583 262.5z" fill="#DB4234" fill-rule="nonzero"/><path d="M45.583 262.5a8 8 0 016.928-4h89.021a8 8 0 016.929 4l44.51 77.095a8 8 0 010 8l-44.51 77.095a8.002 8.002 0 01-6.929 4H52.511a8 8 0 01-6.928-4L1.072 347.595a8 8 0 010-8L45.583 262.5z" stroke="#FFF" stroke-width="7"/><path d="M199.511 343.5a8.003 8.003 0 00-6.929 4l-11.209 19.416-27.445 6.648a1 1 0 00-.724 1.254l7.965 27.092-13.097 22.685a8 8 0 000 8l44.51 77.095a8.003 8.003 0 006.929 4h89.021a8 8 0 006.928-4l44.511-77.095a8 8 0 000-8L295.46 347.5a8 8 0 00-6.928-4h-89.021z" fill="#626B91"/><path d="M192.582 347.5l3.032 1.75-3.032-1.75zm6.929-4V340v3.5zm-18.138 23.416l.824 3.401 1.457-.353.75-1.298-3.031-1.75zm-27.445 6.648l-.824-3.402.824 3.402zm-.724 1.254l3.358-.987-3.358.987zm7.965 27.092l3.031 1.75.75-1.299-.423-1.439-3.358.988zm-13.097 22.685l-3.031-1.75 3.031 1.75zm0 8l3.031-1.75-3.031 1.75zm44.51 77.095l-3.031 1.75 3.031-1.75zm102.878 0l3.032 1.75-3.032-1.75zm44.511-77.095l-3.031-1.75 3.031 1.75zm0-8l3.031-1.75-3.031 1.75zM295.46 347.5l-3.031 1.75 3.031-1.75zm-6.928-4V340v3.5zm-92.918 5.75a4.5 4.5 0 013.897-2.25v-7a11.502 11.502 0 00-9.96 5.75l6.063 3.5zm-11.21 19.416l11.21-19.416-6.063-3.5-11.209 19.416 6.062 3.5zm-29.652 8.299l27.445-6.648-1.648-6.803-27.445 6.648 1.648 6.803zm1.81-3.134a2.499 2.499 0 01-1.81 3.134l-1.648-6.803a4.5 4.5 0 00-3.258 5.643l6.716-1.974zm7.965 27.091l-7.965-27.091-6.716 1.974 7.965 27.092 6.716-1.975zm-13.424 25.423L164.2 403.66l-6.062-3.5-13.097 22.685 6.062 3.5zm0 4.5a4.5 4.5 0 010-4.5l-6.062-3.5a11.496 11.496 0 000 11.5l6.062-3.5zm44.511 77.095l-44.511-77.095-6.062 3.5 44.51 77.095 6.063-3.5zm3.897 2.25a4.5 4.5 0 01-3.897-2.25l-6.063 3.5a11.502 11.502 0 009.96 5.75v-7zm89.021 0h-89.021v7h89.021v-7zm3.897-2.25a4.5 4.5 0 01-3.897 2.25v7c4.109 0 7.905-2.192 9.96-5.75l-6.063-3.5zm44.511-77.095l-44.511 77.095 6.063 3.5 44.51-77.095-6.062-3.5zm0-4.5a4.5 4.5 0 010 4.5l6.062 3.5a11.496 11.496 0 000-11.5l-6.062 3.5zm-44.511-77.095l44.511 77.095 6.062-3.5-44.51-77.095-6.063 3.5zm-3.897-2.25a4.5 4.5 0 013.897 2.25l6.063-3.5a11.502 11.502 0 00-9.96-5.75v7zm-89.021 0h89.021v-7h-89.021v7z" fill="#FFF" fill-rule="nonzero"/><path d="M346.511 258.5a8.003 8.003 0 00-6.929 4l-44.51 77.095a8 8 0 000 8l13.412 23.23-6.2 21.088a1 1 0 00.724 1.254l21.363 5.175 15.211 26.348a8.003 8.003 0 006.929 4h89.021a8 8 0 006.928-4l44.511-77.095a8 8 0 000-8L442.46 262.5a8 8 0 00-6.928-4h-89.021z" fill="#A8C5DF"/><path d="M339.582 262.5l3.032 1.75-3.032-1.75zm6.929-4V255v3.5zm-51.439 81.095l-3.031-1.75 3.031 1.75zm0 8l3.031-1.75-3.031 1.75zm13.412 23.23l3.358.987.423-1.438-.75-1.299-3.031 1.75zm-6.2 21.088l-3.358-.987 3.358.987zm.724 1.254l.824-3.401-.824 3.401zm21.363 5.175l3.031-1.75-.75-1.298-1.457-.353-.824 3.401zm15.211 26.348l-3.031 1.75 3.031-1.75zm102.878 0l3.032 1.75-3.032-1.75zm44.511-77.095l-3.031-1.75 3.031 1.75zm0-8l3.031-1.75-3.031 1.75zM442.46 262.5l-3.031 1.75 3.031-1.75zm-6.928-4V255v3.5zm-92.918 5.75a4.5 4.5 0 013.897-2.25v-7a11.502 11.502 0 00-9.96 5.75l6.063 3.5zm-44.511 77.095l44.511-77.095-6.063-3.5-44.51 77.095 6.062 3.5zm0 4.5a4.5 4.5 0 010-4.5l-6.062-3.5a11.496 11.496 0 000 11.5l6.062-3.5zm13.412 23.23l-13.412-23.23-6.062 3.5 13.412 23.23 6.062-3.5zm-5.873 23.826l6.2-21.089-6.716-1.974-6.2 21.088 6.716 1.975zm-1.81-3.135a2.5 2.5 0 011.81 3.135l-6.716-1.975a4.5 4.5 0 003.258 5.643l1.648-6.803zm21.363 5.175l-21.363-5.175-1.648 6.803 21.363 5.175 1.648-6.803zm17.419 27.999l-15.212-26.348-6.063 3.5 15.212 26.348 6.063-3.5zm3.897 2.25a4.5 4.5 0 01-3.897-2.25l-6.063 3.5a11.502 11.502 0 009.96 5.75v-7zm89.021 0h-89.021v7h89.021v-7zm3.897-2.25a4.5 4.5 0 01-3.897 2.25v7c4.109 0 7.905-2.192 9.96-5.75l-6.063-3.5zm44.511-77.095l-44.511 77.095 6.063 3.5 44.51-77.095-6.062-3.5zm0-4.5a4.5 4.5 0 010 4.5l6.062 3.5a11.496 11.496 0 000-11.5l-6.062 3.5zm-44.511-77.095l44.511 77.095 6.062-3.5-44.51-77.095-6.063 3.5zm-3.897-2.25a4.5 4.5 0 013.897 2.25l6.063-3.5a11.502 11.502 0 00-9.96-5.75v7zm-89.021 0h89.021v-7h-89.021v7z" fill="#FFF" fill-rule="nonzero"/><path d="M347.511 88.5a8.003 8.003 0 00-6.929 4l-44.51 77.095a8 8 0 000 8l44.51 77.095a8.003 8.003 0 006.929 4h24.438l18.124 19.021a1.001 1.001 0 001.448 0l18.124-19.021h26.887a8 8 0 006.928-4l44.511-77.095a8 8 0 000-8L443.46 92.5a8 8 0 00-6.928-4h-89.021z" fill="#3D90DF"/><path d="M340.582 92.5l3.032 1.75-3.032-1.75zm6.929-4V85v3.5zm-51.439 81.095l-3.031-1.75 3.031 1.75zm0 8l3.031-1.75-3.031 1.75zm44.51 77.095l-3.031 1.75 3.031-1.75zm31.367 4l2.534-2.414-1.034-1.086h-1.5v3.5zm18.124 19.021l-2.534 2.414 2.534-2.414zm1.448 0l-2.534-2.415 2.534 2.415zm18.124-19.021v-3.5h-1.5l-1.034 1.086 2.534 2.414zm33.815-4l3.032 1.75-3.032-1.75zm44.511-77.095l-3.031-1.75 3.031 1.75zm0-8l3.031-1.75-3.031 1.75zM443.46 92.5l-3.031 1.75 3.031-1.75zm-6.928-4V85v3.5zm-92.918 5.75a4.5 4.5 0 013.897-2.25v-7a11.502 11.502 0 00-9.96 5.75l6.063 3.5zm-44.511 77.095l44.511-77.095-6.063-3.5-44.51 77.095 6.062 3.5zm0 4.5a4.5 4.5 0 010-4.5l-6.062-3.5a11.496 11.496 0 000 11.5l6.062-3.5zm44.511 77.095l-44.511-77.095-6.062 3.5 44.51 77.095 6.063-3.5zm3.897 2.25a4.5 4.5 0 01-3.897-2.25l-6.063 3.5a11.502 11.502 0 009.96 5.75v-7zm24.438 0h-24.438v7h24.438v-7zm20.658 20.106l-18.124-19.02-5.068 4.828 18.124 19.021 5.068-4.829zm-3.62 0a2.5 2.5 0 013.62 0l-5.068 4.829a4.5 4.5 0 006.516 0l-5.068-4.829zm18.124-19.02l-18.124 19.02 5.068 4.829 18.124-19.021-5.068-4.828zm29.421-1.086h-26.887v7h26.887v-7zm3.897-2.25a4.5 4.5 0 01-3.897 2.25v7c4.109 0 7.905-2.192 9.96-5.75l-6.063-3.5zm44.511-77.095l-44.511 77.095 6.063 3.5 44.51-77.095-6.062-3.5zm0-4.5a4.5 4.5 0 010 4.5l6.062 3.5a11.496 11.496 0 000-11.5l-6.062 3.5zM440.429 94.25l44.511 77.095 6.062-3.5-44.51-77.095-6.063 3.5zM436.532 92a4.5 4.5 0 013.897 2.25l6.063-3.5a11.502 11.502 0 00-9.96-5.75v7zm-89.021 0h89.021v-7h-89.021v7z" fill="#FFF" fill-rule="nonzero"/><path d="M200.511 3.5a8.003 8.003 0 00-6.929 4l-44.51 77.095a8 8 0 000 8l44.51 77.095a8.003 8.003 0 006.929 4h89.021a8 8 0 006.928-4l14.289-24.749 23.838-5.774a1 1 0 00.724-1.254l-6.919-23.531 12.579-21.787a8 8 0 000-8L296.46 7.5a8 8 0 00-6.928-4h-89.021z" fill="#A6C5E3"/><path d="M193.582 7.5l3.032 1.75-3.032-1.75zm6.929-4V0v3.5zm-51.439 81.095l-3.031-1.75 3.031 1.75zm0 8l3.031-1.75-3.031 1.75zm44.51 77.095l-3.031 1.75 3.031-1.75zm102.878 0l3.032 1.75-3.032-1.75zm14.289-24.749l-.824-3.401-1.457.353-.75 1.298 3.031 1.75zm23.838-5.774l-.824-3.402.824 3.402zm.724-1.254l-3.358.987 3.358-.987zm-6.919-23.531l-3.031-1.75-.749 1.299.423 1.438 3.357-.987zm12.579-21.787l-3.031-1.75 3.031 1.75zm0-8l3.031-1.75-3.031 1.75zM296.46 7.5l-3.031 1.75 3.031-1.75zm-6.928-4V0v3.5zm-92.918 5.75A4.498 4.498 0 01200.511 7V0a11.502 11.502 0 00-9.96 5.75l6.063 3.5zm-44.511 77.095L196.614 9.25l-6.063-3.5-44.51 77.095 6.062 3.5zm0 4.5a4.5 4.5 0 010-4.5l-6.062-3.5a11.496 11.496 0 000 11.5l6.062-3.5zm44.511 77.095l-44.511-77.095-6.062 3.5 44.51 77.095 6.063-3.5zm3.897 2.25a4.5 4.5 0 01-3.897-2.25l-6.063 3.5a11.502 11.502 0 009.96 5.75v-7zm89.021 0h-89.021v7h89.021v-7zm3.897-2.25a4.5 4.5 0 01-3.897 2.25v7c4.109 0 7.905-2.192 9.96-5.75l-6.063-3.5zm14.289-24.749l-14.289 24.749 6.063 3.5 14.288-24.749-6.062-3.5zm26.045-7.426l-23.838 5.775 1.648 6.803 23.838-5.774-1.648-6.804zm-1.81 3.135a2.5 2.5 0 011.81-3.135l1.648 6.804a4.5 4.5 0 003.257-5.643l-6.715 1.974zm-6.918-23.531l6.918 23.531 6.715-1.974-6.918-23.531-6.715 1.974zm12.905-24.524l-12.579 21.787 6.063 3.5 12.578-21.787-6.062-3.5zm0-4.5a4.5 4.5 0 010 4.5l6.062 3.5a11.496 11.496 0 000-11.5l-6.062 3.5zM293.429 9.25l44.511 77.095 6.062-3.5-44.51-77.095-6.063 3.5zM289.532 7a4.5 4.5 0 013.897 2.25l6.063-3.5a11.502 11.502 0 00-9.96-5.75v7zm-89.021 0h89.021V0h-89.021v7z" fill="#FFF" fill-rule="nonzero"/><circle fill="#FFF" fill-rule="nonzero" cx="243.797" cy="258.37" r="109"/><path d="M216.992 274.074h2.157c-.055 1.172-.293 2.184-.715 3.035a4.424 4.424 0 01-1.817 1.946c-.789.453-1.777.679-2.965.679-.851 0-1.621-.168-2.308-.504a5.054 5.054 0 01-1.77-1.441c-.484-.633-.855-1.391-1.113-2.273-.258-.883-.387-1.875-.387-2.977v-3.152c0-1.094.129-2.082.387-2.965.266-.883.645-1.637 1.137-2.262a5.025 5.025 0 011.816-1.453c.719-.336 1.531-.504 2.438-.504 1.109 0 2.047.223 2.812.668.774.438 1.367 1.082 1.781 1.934.422.843.657 1.879.704 3.105h-2.157c-.054-.898-.195-1.629-.422-2.191-.226-.571-.562-.989-1.007-1.254-.438-.274-1.008-.41-1.711-.41-.625 0-1.168.125-1.629.375a3.09 3.09 0 00-1.125 1.078c-.289.461-.508 1.019-.656 1.676a10.286 10.286 0 00-.211 2.179v3.176c0 .75.058 1.449.175 2.098.125.648.321 1.218.586 1.711.274.484.629.863 1.067 1.136.437.274.968.411 1.593.411.79 0 1.415-.129 1.875-.387.461-.258.801-.668 1.02-1.231.227-.562.375-1.297.445-2.203zm16.231-11.636V279.5h-2.168l-6.832-13.16v13.16h-2.156v-17.062h2.156l6.867 13.195v-13.195h2.133zm9.469 1.511l-4.665 15.551h-2.203l5.496-17.062h1.383l-.011 1.511zm3.773 15.551l-4.664-15.551-.024-1.511h1.395l5.496 17.062h-2.203zm0-6.316v1.851h-8.227v-1.851h8.227zm9.984-.375h-3.726v-1.84h3.726c.703 0 1.27-.141 1.7-.422.437-.281.753-.672.949-1.172.203-.5.304-1.07.304-1.711 0-.586-.101-1.137-.304-1.652a2.641 2.641 0 00-.949-1.242c-.43-.321-.997-.481-1.7-.481h-3.281V279.5h-2.156v-17.062h5.437c1.102 0 2.032.222 2.789.667a4.34 4.34 0 011.723 1.852c.398.781.598 1.676.598 2.684 0 1.093-.2 2.027-.598 2.8a4.011 4.011 0 01-1.723 1.77c-.757.398-1.687.598-2.789.598zm13.313 0h-3.727v-1.84h3.727c.703 0 1.269-.141 1.699-.422.438-.281.754-.672.949-1.172.203-.5.305-1.07.305-1.711 0-.586-.102-1.137-.305-1.652a2.629 2.629 0 00-.949-1.242c-.43-.321-.996-.481-1.699-.481h-3.281V279.5h-2.157v-17.062h5.438c1.101 0 2.031.222 2.789.667a4.34 4.34 0 011.723 1.852c.398.781.597 1.676.597 2.684 0 1.093-.199 2.027-.597 2.8a4.011 4.011 0 01-1.723 1.77c-.758.398-1.688.598-2.789.598z" fill="#000" fill-rule="nonzero"/><path d="M243.797 367.37a109 109 0 01-109-109v-3.3h31.6a3.28 3.28 0 013.28 3.3 74.12 74.12 0 0074.12 74.12v34.88zm94.397-163.5a109.003 109.003 0 01-39.87 148.881 108.995 108.995 0 01-54.486 14.619l-.013-34.88a74.11 74.11 0 0037.05-9.941 74.113 74.113 0 0037.042-64.186 74.122 74.122 0 00-9.93-37.053l30.207-17.44zm-.04-.069a109.012 109.012 0 00-67.424-51.051 108.992 108.992 0 00-83.637 12.531l15.024 24.664c1.724 2.83 5.406 3.703 8.366 2.214a74.132 74.132 0 0151.628-5.611 74.117 74.117 0 0145.848 34.715l30.195-17.462z" fill="#FFF" fill-rule="nonzero"/><path d="M64.646 246.37v-41.382h-7.809V200.2h21.831v4.788h-7.581v41.382h-6.441zm26.355.456c-2.432 0-4.351-.494-5.757-1.482-1.406-.988-2.413-2.394-3.021-4.218-.57-1.824-.855-3.971-.855-6.441v-9.576c0-2.47.285-4.617.855-6.441.608-1.824 1.615-3.23 3.021-4.218s3.325-1.482 5.757-1.482c2.432 0 4.332.494 5.7 1.482 1.406.988 2.394 2.394 2.964 4.218.608 1.824.912 3.971.912 6.441v9.576c0 2.47-.304 4.617-.912 6.441-.57 1.824-1.558 3.23-2.964 4.218-1.368.988-3.268 1.482-5.7 1.482zm0-4.503c1.178 0 1.995-.342 2.451-1.026.494-.684.779-1.577.855-2.679.114-1.14.171-2.318.171-3.534v-10.317c0-1.254-.057-2.432-.171-3.534-.076-1.102-.361-1.995-.855-2.679-.456-.722-1.273-1.083-2.451-1.083-1.178 0-2.014.361-2.508 1.083-.494.684-.798 1.577-.912 2.679a51.5 51.5 0 00-.114 3.534v10.317c0 1.216.038 2.394.114 3.534.114 1.102.418 1.995.912 2.679.494.684 1.33 1.026 2.508 1.026zm23.928 4.503c-1.71 0-3.097-.323-4.161-.969-1.026-.646-1.786-1.558-2.28-2.736-.456-1.178-.684-2.565-.684-4.161v-21.489h-3.477v-4.047h3.477v-9.633h6.099v9.633h5.301v4.047h-5.301v21.09c0 1.292.209 2.223.627 2.793.418.532 1.216.798 2.394.798.304 0 .646-.019 1.026-.057.418-.038.817-.076 1.197-.114v4.503c-.76.114-1.463.19-2.109.228-.646.076-1.349.114-2.109.114zm14.685 0c-1.292 0-2.432-.361-3.42-1.083a8.131 8.131 0 01-2.337-2.85 8.403 8.403 0 01-.855-3.705c0-2.052.342-3.781 1.026-5.187a10.215 10.215 0 012.793-3.534c1.216-.988 2.603-1.843 4.161-2.565a105.043 105.043 0 015.016-2.109v-2.337c0-1.33-.076-2.432-.228-3.306-.152-.874-.475-1.52-.969-1.938-.456-.456-1.159-.684-2.109-.684-.836 0-1.52.19-2.052.57-.494.38-.855.931-1.083 1.653-.228.684-.342 1.501-.342 2.451v1.653l-6.042-.228c.076-3.648.912-6.327 2.508-8.037 1.596-1.748 4.066-2.622 7.41-2.622 3.268 0 5.586.893 6.954 2.679 1.368 1.786 2.052 4.37 2.052 7.752v15.048c0 1.026.019 2.014.057 2.964.076.95.152 1.843.228 2.679.114.798.209 1.558.285 2.28h-5.586c-.114-.608-.266-1.368-.456-2.28a44.306 44.306 0 01-.342-2.565c-.38 1.292-1.121 2.508-2.223 3.648-1.064 1.102-2.546 1.653-4.446 1.653zm2.394-5.244c.608 0 1.178-.171 1.71-.513a8.524 8.524 0 001.425-1.14c.418-.456.703-.817.855-1.083v-9.348a55.535 55.535 0 00-2.679 1.596 14.912 14.912 0 00-2.223 1.71 7.003 7.003 0 00-1.482 1.995c-.342.722-.513 1.558-.513 2.508 0 1.33.247 2.375.741 3.135.494.76 1.216 1.14 2.166 1.14zm16.517 4.788V200.2h6.099v46.17h-6.099zm24.539.513c-3.268 0-5.814-.684-7.638-2.052-1.786-1.368-3.04-3.211-3.762-5.529-.684-2.318-1.026-4.902-1.026-7.752v-16.302c0-3.116.342-5.833 1.026-8.151.722-2.318 1.976-4.104 3.762-5.358 1.824-1.292 4.37-1.938 7.638-1.938 2.888 0 5.168.532 6.84 1.596 1.71 1.064 2.926 2.584 3.648 4.56.76 1.976 1.14 4.351 1.14 7.125v3.648h-6.099v-3.249c0-1.71-.095-3.211-.285-4.503-.152-1.33-.608-2.356-1.368-3.078-.76-.722-2.033-1.083-3.819-1.083-1.824 0-3.154.399-3.99 1.197-.836.76-1.387 1.862-1.653 3.306-.228 1.406-.342 3.059-.342 4.959v18.297c0 2.318.19 4.161.57 5.529.38 1.33 1.007 2.28 1.881 2.85.874.57 2.052.855 3.534.855 1.748 0 3.002-.38 3.762-1.14.76-.798 1.235-1.881 1.425-3.249.19-1.368.285-2.964.285-4.788v-3.42h6.099v3.42c0 2.812-.342 5.301-1.026 7.467-.684 2.128-1.862 3.8-3.534 5.016-1.672 1.178-4.028 1.767-7.068 1.767zm17.821-.513V200.2h6.099v46.17h-6.099zm21.519.456c-2.432 0-4.351-.494-5.757-1.482-1.406-.988-2.413-2.394-3.021-4.218-.57-1.824-.855-3.971-.855-6.441v-9.576c0-2.47.285-4.617.855-6.441.608-1.824 1.615-3.23 3.021-4.218s3.325-1.482 5.757-1.482c2.432 0 4.332.494 5.7 1.482 1.406.988 2.394 2.394 2.964 4.218.608 1.824.912 3.971.912 6.441v9.576c0 2.47-.304 4.617-.912 6.441-.57 1.824-1.558 3.23-2.964 4.218-1.368.988-3.268 1.482-5.7 1.482zm0-4.503c1.178 0 1.995-.342 2.451-1.026.494-.684.779-1.577.855-2.679.114-1.14.171-2.318.171-3.534v-10.317c0-1.254-.057-2.432-.171-3.534-.076-1.102-.361-1.995-.855-2.679-.456-.722-1.273-1.083-2.451-1.083-1.178 0-2.014.361-2.508 1.083-.494.684-.798 1.577-.912 2.679a51.5 51.5 0 00-.114 3.534v10.317c0 1.216.038 2.394.114 3.534.114 1.102.418 1.995.912 2.679.494.684 1.33 1.026 2.508 1.026zm19.882 4.503c-1.292 0-2.299-.342-3.021-1.026-.722-.684-1.235-1.539-1.539-2.565a12.442 12.442 0 01-.399-3.135v-26.676h6.099v24.852c0 1.178.171 2.109.513 2.793.342.646 1.045.969 2.109.969.684 0 1.387-.19 2.109-.57.76-.418 1.482-.912 2.166-1.482v-26.562h6.099v32.946h-6.099v-3.249a15.934 15.934 0 01-3.648 2.622c-1.33.722-2.793 1.083-4.389 1.083zm28.011 0c-2.774 0-4.845-1.007-6.213-3.021-1.368-2.052-2.052-5.51-2.052-10.374v-6.384c0-2.508.209-4.826.627-6.954.418-2.166 1.197-3.895 2.337-5.187 1.178-1.292 2.888-1.938 5.13-1.938 1.102 0 2.109.247 3.021.741a10.555 10.555 0 012.451 1.824V200.2h6.099v46.17h-6.099v-2.109a10.25 10.25 0 01-2.394 1.881c-.836.456-1.805.684-2.907.684zm1.539-4.788c.57 0 1.178-.095 1.824-.285a9.233 9.233 0 001.938-.969v-21.603a8.773 8.773 0 00-1.767-.969 4.89 4.89 0 00-2.109-.456c-1.406 0-2.356.684-2.85 2.052-.494 1.33-.741 2.945-.741 4.845v9.291c0 1.52.076 2.907.228 4.161.19 1.216.551 2.185 1.083 2.907.532.684 1.33 1.026 2.394 1.026zm15.142 4.332v-10.89h-2.055v-1.26h5.745v1.26h-1.995v10.89h-1.695zm4.832 0l.225-12.15h1.665l2.145 9.855 2.16-9.855h1.65l.225 12.15h-1.365l-.135-8.82-2.055 8.82h-.96l-2.04-8.82-.135 8.82h-1.38z" fill="#175186" fill-rule="nonzero"/><path d="M266.096 171.014l-.421 2.117-8.026-1.595.42-2.117 8.027 1.595zm-2.139-4.468L261.94 176.7l-2.156-.429 2.018-10.153 2.155.428zm8.951 9.818l2.254.712c-.354.967-.816 1.739-1.388 2.317a3.822 3.822 0 01-2.022 1.081c-.772.152-1.632.078-2.582-.223-.72-.227-1.325-.562-1.813-1.003a4.169 4.169 0 01-1.087-1.583c-.24-.622-.353-1.324-.339-2.104.021-.779.175-1.621.462-2.528l.759-2.402c.287-.906.649-1.683 1.085-2.33.443-.645.945-1.152 1.506-1.521a4.085 4.085 0 011.827-.662c.666-.076 1.365.002 2.098.233.937.297 1.668.726 2.194 1.288.525.563.852 1.246.98 2.051.128.806.061 1.717-.199 2.734l-2.253-.713c.183-.686.261-1.256.233-1.708-.019-.457-.156-.825-.409-1.103-.248-.276-.629-.496-1.144-.658-.428-.136-.823-.172-1.185-.109a2.052 2.052 0 00-.983.488c-.293.256-.566.61-.818 1.063a9.402 9.402 0 00-.673 1.641l-.765 2.421c-.196.621-.33 1.183-.4 1.686-.071.504-.069.952.005 1.344.076.386.236.713.479.981.245.261.591.463 1.037.604.534.169.986.22 1.356.152.375-.065.704-.272.985-.62.28-.349.547-.858.8-1.529zm5.393 3.645l6.865-9.018 1.268.61-1.26 2.482-7.177 9.237-1.329-.639 1.633-2.672zm3.513-10.632l-3.154 10.718-1.314 2.912-1.399-.674 3.746-13.976 2.121 1.02zm2.081 13.195l6.375-9.125 2.112 1.016-8.577 11.652-1.399-.673 1.489-2.87zm3.049-10.726l-2.795 11.01-1.075 2.908-1.328-.64 2.798-11.355 1.15-2.524 1.25.601zm6.197 13.851l-2.494-1.665 1.101-1.649 2.494 1.665c.406.271.791.403 1.156.396.37-.003.713-.119 1.029-.346a3.38 3.38 0 00.868-.912c.245-.368.417-.755.515-1.159a2.062 2.062 0 00-.018-1.151c-.115-.367-.379-.687-.79-.962l-1.942-1.296-6.788 10.169-1.966-1.313 7.895-11.825 3.907 2.608c.779.521 1.337 1.128 1.672 1.821.336.694.46 1.422.373 2.186-.084.759-.37 1.503-.858 2.234-.509.764-1.093 1.321-1.75 1.673a3.655 3.655 0 01-2.113.421c-.748-.076-1.511-.375-2.291-.895zm8.464 6.417l-2.276-1.952 1.291-1.505 2.276 1.953c.37.317.737.495 1.1.532.368.041.722-.032 1.064-.22.346-.184.669-.451.97-.802a3.61 3.61 0 00.651-1.088 2.05 2.05 0 00.12-1.145c-.07-.378-.293-.728-.669-1.05l-1.771-1.52-7.961 9.28-1.794-1.539 9.258-10.792 3.565 3.059c.712.61 1.193 1.28 1.442 2.009.25.729.286 1.467.107 2.215-.174.743-.547 1.447-1.119 2.115-.598.696-1.244 1.18-1.939 1.45a3.654 3.654 0 01-2.148.164c-.733-.165-1.456-.553-2.167-1.164zm29.546 91.349l-2.097-.508 1.929-7.953 2.098.509-1.93 7.952zm4.553-1.95l-10.06-2.441.518-2.135 10.06 2.441-.518 2.135zm-10.222 8.582l-.806 2.222c-.951-.393-1.703-.888-2.256-1.483a3.822 3.822 0 01-.997-2.065c-.12-.777-.01-1.634.329-2.571.258-.71.617-1.3 1.078-1.769a4.183 4.183 0 011.627-1.021c.631-.214 1.337-.298 2.116-.251.777.053 1.613.242 2.506.566l2.369.858c.894.324 1.655.718 2.283 1.181.626.469 1.112.991 1.458 1.567.345.575.54 1.193.585 1.853.048.669-.058 1.364-.32 2.086-.335.924-.794 1.637-1.378 2.139-.583.502-1.28.8-2.09.894-.809.095-1.717-.009-2.722-.311l.805-2.222c.678.211 1.244.312 1.697.303.458 0 .83-.121 1.119-.363.286-.235.521-.607.705-1.115.153-.423.206-.816.158-1.179a2.072 2.072 0 00-.447-1.004c-.243-.302-.586-.589-1.028-.86a9.255 9.255 0 00-1.612-.74l-2.387-.865a10.437 10.437 0 00-1.668-.47c-.501-.091-.948-.108-1.343-.05-.389.06-.722.205-1 .437-.272.234-.487.571-.647 1.012-.191.526-.26.976-.208 1.348.05.378.243.714.579 1.009.337.295.835.583 1.495.864zm-4.907 8.339c.262.131.509.218.742.262.236.052.476.045.721-.022.244-.067.518-.2.821-.398.3-.192.643-.465 1.03-.817.443-.405.887-.769 1.332-1.092a6.921 6.921 0 011.358-.752 3.68 3.68 0 011.424-.249c.489.012.995.148 1.52.41.518.259.945.585 1.279.978.338.402.577.849.717 1.341.143.5.181 1.029.114 1.585a5.006 5.006 0 01-.519 1.695c-.411.821-.936 1.435-1.576 1.843a3.925 3.925 0 01-2.079.643 4.585 4.585 0 01-2.193-.506l1.057-2.115c.413.207.812.326 1.196.358.385.032.734-.041 1.049-.218.314-.178.577-.479.79-.905.195-.39.281-.751.257-1.083a1.57 1.57 0 00-.341-.869 2.459 2.459 0 00-.812-.624 1.537 1.537 0 00-.712-.17 1.958 1.958 0 00-.729.17 4.146 4.146 0 00-.786.459c-.274.198-.562.44-.865.725-.512.487-1.01.886-1.493 1.197a4.936 4.936 0 01-1.428.651 3.472 3.472 0 01-1.415.101 4.59 4.59 0 01-1.498-.476 4.096 4.096 0 01-1.298-.986 3.314 3.314 0 01-.707-1.315 4.01 4.01 0 01-.097-1.576 5.55 5.55 0 01.559-1.73 5.729 5.729 0 011.034-1.459 4.483 4.483 0 011.415-.974 4.068 4.068 0 011.738-.311c.62.027 1.271.21 1.953.55l-1.061 2.123c-.408-.204-.782-.329-1.123-.375a2.041 2.041 0 00-.921.074 2.04 2.04 0 00-.738.472 3.248 3.248 0 00-.559.813c-.198.396-.289.754-.275 1.074.018.329.124.619.319.869s.462.46.8.629zm-2.713 7.688l1.637-2.512 1.661 1.083-1.637 2.511c-.267.409-.395.796-.384 1.161.008.37.127.712.358 1.025.227.319.534.605.921.857.371.242.759.41 1.165.503a2.05 2.05 0 001.151-.031c.365-.119.683-.386.953-.801l1.274-1.955-10.242-6.676 1.29-1.98 11.912 7.764-2.565 3.935c-.512.786-1.113 1.35-1.803 1.693a3.905 3.905 0 01-2.182.396c-.759-.075-1.507-.353-2.243-.832-.769-.502-1.333-1.079-1.692-1.733a3.651 3.651 0 01-.444-2.108c.068-.748.358-1.515.87-2.3zm3.153 11.271l-1.423 1.623-10.108-4.514 5.8 9.426-1.32 1.505-7.805-12.665 1.178-1.343 13.678 5.968zm.535-.609l-1.314 1.498-7.019-5.727-3.883-3.406 1.526-1.74 10.69 9.375zm-6.903 7.871l-1.32 1.505-10.69-9.376 1.526-1.74 3.884 3.407 6.6 6.204zM202.765 337.87l.921-1.951 7.4 3.494-.921 1.951-7.4-3.494zm.991 4.853l4.42-9.361 1.987.938-4.42 9.361-1.987-.938zm-7.692-1.365l7.096-12.322 2.057 1.185-7.097 12.321zm.17-14.249l-2.987 4.335c-.206.3-.33.571-.37.812a.933.933 0 00.091.644c.096.193.262.37.498.533.247.17.491.263.733.279.236.013.458-.04.666-.158.204-.112.383-.281.538-.506l1.874 1.291c-.24.348-.54.635-.901.861a3.263 3.263 0 01-1.213.434 3.553 3.553 0 01-1.383-.075 4.318 4.318 0 01-1.42-.659c-.557-.384-.989-.819-1.294-1.306a2.58 2.58 0 01-.406-1.597c.029-.581.272-1.203.73-1.868l2.798-4.061c.277-.402.501-.778.67-1.128a5 5 0 00.343-.962l.089-.128 1.905 1.313a3.95 3.95 0 01-.361.937 8.86 8.86 0 01-.6 1.009zm-2.682 3.359l.829-1.22.9.621c.269.184.536.313.802.386.262.078.515.101.757.071a1.61 1.61 0 00.665-.242 2.01 2.01 0 00.539-.541c.188-.274.304-.522.347-.746a1.012 1.012 0 00-.08-.624c-.1-.187-.26-.357-.479-.508a1.848 1.848 0 00-.913-.345c-.318-.021-.6.022-.847.128-.253.103-.419.241-.5.415l.111-1.074c.184-.174.412-.333.685-.477a3.58 3.58 0 01.886-.338 2.665 2.665 0 011.002-.045 2.48 2.48 0 011.021.431c.487.336.851.737 1.092 1.203.24.466.339.965.296 1.497-.051.534-.262 1.068-.631 1.605a3.761 3.761 0 01-1.031 1.032 2.962 2.962 0 01-1.27.466c-.461.061-.955.014-1.479-.142-.531-.16-1.085-.439-1.664-.838l-1.038-.715zm-7.117-8.024l-1.788-1.545c.707-.749 1.437-1.275 2.19-1.579a3.822 3.822 0 012.285-.194c.769.166 1.53.574 2.284 1.225.571.494.994 1.04 1.269 1.639.269.594.393 1.222.372 1.884-.025.666-.199 1.355-.521 2.066-.327.707-.801 1.42-1.423 2.139l-1.647 1.907c-.622.719-1.261 1.289-1.918 1.711-.662.417-1.323.685-1.984.802a4.079 4.079 0 01-1.94-.115c-.642-.193-1.254-.541-1.835-1.043-.744-.643-1.246-1.326-1.506-2.051-.261-.724-.29-1.481-.089-2.271.201-.79.622-1.601 1.263-2.432l1.788 1.545c-.44.558-.736 1.051-.89 1.477-.163.428-.182.819-.06 1.175.118.351.382.704.79 1.057.34.294.689.483 1.046.568.352.08.717.061 1.096-.059.37-.12.76-.337 1.171-.653.402-.316.824-.73 1.267-1.242l1.66-1.921c.426-.493.771-.956 1.034-1.391.264-.434.44-.846.527-1.236a2.014 2.014 0 00-.052-1.09c-.122-.337-.36-.659-.714-.966-.424-.366-.819-.591-1.185-.675-.371-.088-.754-.028-1.15.181-.396.208-.842.571-1.34 1.087z" fill="#000" fill-rule="nonzero"/><path d="M196.797 91.948h3.781c-.073 1.646-.406 3.047-1 4.203a6.11 6.11 0 01-2.562 2.625c-1.104.605-2.453.907-4.047.907-1.208 0-2.292-.219-3.25-.657a6.682 6.682 0 01-2.422-1.89c-.667-.834-1.177-1.849-1.531-3.047-.344-1.198-.516-2.557-.516-4.078v-4.032c0-1.52.177-2.88.531-4.078.365-1.198.886-2.213 1.563-3.047a6.54 6.54 0 012.469-1.89c.979-.438 2.083-.656 3.312-.656 1.573 0 2.896.302 3.969.906 1.073.604 1.901 1.489 2.484 2.656.584 1.167.922 2.589 1.016 4.266h-3.781c-.052-1.136-.209-2.042-.469-2.719-.25-.688-.636-1.182-1.156-1.484-.511-.302-1.198-.454-2.063-.454-.719 0-1.338.136-1.859.407-.511.271-.933.677-1.266 1.218-.323.532-.568 1.204-.734 2.016-.157.802-.235 1.745-.235 2.828v4.063c0 1.041.068 1.963.204 2.765.135.802.354 1.485.656 2.047a3.21 3.21 0 001.203 1.266c.5.281 1.125.422 1.875.422.896 0 1.609-.141 2.14-.422.542-.281.943-.755 1.204-1.422.26-.667.422-1.573.484-2.719zm6.297-.344v-1.359c0-1.312.161-2.474.484-3.484.323-1.011.781-1.854 1.375-2.532a5.822 5.822 0 012.125-1.546c.813-.355 1.709-.532 2.688-.532 1 0 1.906.177 2.719.532a5.649 5.649 0 012.124 1.546c.605.678 1.068 1.521 1.391 2.532.323 1.01.485 2.172.485 3.484v1.359c0 1.313-.162 2.474-.485 3.485-.323 1.01-.786 1.859-1.391 2.547a5.753 5.753 0 01-2.109 1.531c-.812.344-1.713.516-2.703.516-.979 0-1.88-.172-2.703-.516a5.901 5.901 0 01-2.125-1.531c-.604-.688-1.068-1.537-1.391-2.547-.323-1.011-.484-2.172-.484-3.485zm3.641-1.359v1.359c0 .844.072 1.584.218 2.219.146.625.354 1.146.625 1.563.271.416.594.729.969.937.375.209.792.313 1.25.313.51 0 .953-.104 1.328-.313.386-.208.703-.521.953-.937.261-.417.453-.938.578-1.563.125-.635.188-1.375.188-2.219v-1.359c0-.833-.073-1.562-.219-2.187-.146-.636-.354-1.162-.625-1.579-.271-.427-.599-.744-.984-.953a2.534 2.534 0 00-1.25-.312c-.448 0-.86.104-1.235.312-.364.209-.682.526-.953.953-.271.417-.479.943-.625 1.579-.146.625-.218 1.354-.218 2.187zm16.484-4.172V99.37h-3.641V82.464H223l.219 3.609zm-.656 4.235h-1.157c-.01-1.219.12-2.329.391-3.329s.656-1.859 1.156-2.578c.511-.718 1.115-1.27 1.813-1.656a4.751 4.751 0 012.359-.594c.667 0 1.276.115 1.828.344a3.373 3.373 0 011.438 1.078c.396.5.698 1.151.906 1.953.219.802.328 1.782.328 2.938V99.37h-3.64V88.433c0-.792-.089-1.417-.266-1.875-.167-.469-.417-.802-.75-1-.333-.209-.755-.313-1.266-.313-.468 0-.901.136-1.297.406-.385.261-.718.625-1 1.094-.27.458-.479.995-.625 1.609a8.366 8.366 0 00-.218 1.954zm17.203 9.062h-3.641V81.401c0-1.364.24-2.52.719-3.468a4.9 4.9 0 012.078-2.157c.906-.489 1.984-.734 3.234-.734.73 0 1.422.089 2.079.266.666.177 1.354.401 2.062.671l-.562 3.141a10.557 10.557 0 00-1.469-.516 6.838 6.838 0 00-1.86-.234c-.937 0-1.614.255-2.031.766-.406.51-.609 1.265-.609 2.265V99.37zm2.672-16.906v2.812H234v-2.812h8.438zm5.547 0V99.37h-3.641V82.464h3.641zm12.968 0h3.297v16.969c0 1.52-.281 2.765-.844 3.734a5.125 5.125 0 01-2.312 2.172c-.99.469-2.136.703-3.438.703-.479 0-1.047-.078-1.703-.234a9.48 9.48 0 01-1.922-.688 5.185 5.185 0 01-1.562-1.125l1.328-2.531c.49.5 1.068.885 1.734 1.156.667.281 1.308.422 1.922.422.667 0 1.229-.115 1.688-.344.468-.219.828-.588 1.078-1.109.25-.511.375-1.203.375-2.078V86.292l.359-3.828zm-9.562 9.14v-1.328c0-1.385.13-2.583.39-3.593.261-1.021.636-1.87 1.125-2.547.49-.677 1.089-1.177 1.797-1.5.709-.323 1.5-.485 2.375-.485.907 0 1.672.193 2.297.578.636.375 1.151.912 1.547 1.61.406.698.724 1.531.953 2.5.229.958.396 2.031.5 3.219v1.843a19.527 19.527 0 01-.531 3.157c-.25.948-.589 1.765-1.016 2.453-.416.687-.937 1.224-1.562 1.609-.615.375-1.354.563-2.219.563-.865 0-1.646-.172-2.344-.516-.698-.344-1.297-.854-1.797-1.531-.489-.677-.864-1.516-1.125-2.516-.26-1.01-.39-2.182-.39-3.516zm3.64-1.328v1.328c0 .865.058 1.61.172 2.235.125.625.308 1.14.547 1.547.24.396.552.692.938.89.385.188.843.282 1.375.282.698 0 1.26-.167 1.687-.5.438-.334.771-.782 1-1.344.24-.573.406-1.208.5-1.906v-3.641a6.873 6.873 0 00-.312-1.531 4.102 4.102 0 00-.61-1.25 2.648 2.648 0 00-.937-.828c-.365-.209-.797-.313-1.297-.313-.521 0-.979.104-1.375.313-.386.198-.703.505-.953.921-.25.407-.438.928-.563 1.563-.114.625-.172 1.37-.172 2.234zm21.219 5.11V82.464h3.641V99.37h-3.438l-.203-3.984zm.516-3.532l1.156-.031c0 1.136-.104 2.183-.313 3.141-.208.958-.531 1.792-.968 2.5a4.664 4.664 0 01-1.672 1.64c-.677.386-1.49.579-2.438.579-.698 0-1.338-.12-1.922-.36a3.846 3.846 0 01-1.484-1.109c-.406-.5-.724-1.151-.953-1.953-.229-.802-.344-1.761-.344-2.875V82.464h3.641v10.953c0 .604.052 1.109.156 1.516.104.395.25.718.438.968.187.24.395.412.625.516.239.094.494.141.765.141.823 0 1.474-.204 1.953-.61.49-.416.839-.979 1.047-1.687.209-.709.313-1.511.313-2.407zm10.406-6.125V99.37h-3.641V82.464H287l.172 3.265zm4.078-3.375l-.015 3.594a3.435 3.435 0 00-.672-.094 7.935 7.935 0 00-.688-.031c-.5 0-.932.089-1.297.266a2.517 2.517 0 00-.922.765c-.25.334-.448.735-.593 1.204-.136.468-.219 1-.25 1.593l-.782.032c0-1.063.084-2.047.25-2.954.167-.916.417-1.713.75-2.39.344-.688.771-1.224 1.282-1.61.51-.385 1.104-.578 1.781-.578.187 0 .401.021.641.063.239.042.411.088.515.14zm8.656 17.329c-1.093 0-2.067-.162-2.921-.485a5.72 5.72 0 01-2.172-1.469c-.594-.656-1.047-1.458-1.36-2.406-.312-.958-.468-2.067-.468-3.328V90.37c0-1.427.161-2.656.484-3.687.333-1.042.792-1.896 1.375-2.563a5.444 5.444 0 012.062-1.484 6.922 6.922 0 012.61-.485c1.062 0 1.984.172 2.765.516a4.645 4.645 0 011.922 1.547c.511.687.886 1.536 1.125 2.547.25 1.01.375 2.172.375 3.484v1.828h-10.968v-2.75h7.374v-.39c-.02-.771-.114-1.433-.281-1.985-.166-.562-.437-.989-.812-1.281-.365-.302-.87-.453-1.516-.453-.469 0-.885.088-1.25.265-.364.178-.667.464-.906.86-.229.396-.406.927-.531 1.594-.125.656-.188 1.468-.188 2.437v1.625c0 .844.073 1.557.219 2.141.156.583.385 1.062.687 1.437.302.365.667.636 1.094.813.438.166.943.25 1.516.25.844 0 1.567-.157 2.172-.469a5.522 5.522 0 001.593-1.25l1.61 2.234c-.302.407-.709.808-1.219 1.203-.51.386-1.13.704-1.859.954-.719.25-1.563.375-2.532.375zm72.203 71.812c0-.469-.052-.885-.156-1.25a2.371 2.371 0 00-.547-1.016c-.27-.302-.656-.598-1.156-.89-.489-.292-1.125-.589-1.906-.891a24.462 24.462 0 01-2.516-1.125 11.034 11.034 0 01-2.047-1.406 5.892 5.892 0 01-1.375-1.859c-.333-.709-.5-1.532-.5-2.469 0-.927.162-1.771.485-2.531a5.737 5.737 0 011.406-1.985 6.396 6.396 0 012.188-1.297c.843-.312 1.776-.468 2.796-.468 1.469 0 2.724.312 3.766.937a6.276 6.276 0 012.406 2.516c.563 1.052.844 2.218.844 3.5h-3.781c0-.74-.115-1.396-.344-1.969a2.846 2.846 0 00-1.063-1.344c-.479-.323-1.098-.484-1.859-.484-.698 0-1.276.135-1.734.406a2.518 2.518 0 00-1 1.109c-.209.469-.313 1.006-.313 1.61 0 .417.089.797.266 1.14.177.334.432.641.766.922.333.282.739.547 1.218.797s1.032.49 1.656.719c1.063.385 1.99.812 2.782 1.281.791.469 1.442.995 1.953 1.578a5.55 5.55 0 011.156 1.953c.261.73.391 1.558.391 2.485 0 .937-.162 1.792-.485 2.562a5.261 5.261 0 01-1.375 1.953c-.604.542-1.333.964-2.187 1.266-.854.292-1.813.438-2.875.438a9.163 9.163 0 01-2.828-.438 7.153 7.153 0 01-2.406-1.328c-.709-.604-1.271-1.359-1.688-2.266-.406-.906-.609-1.968-.609-3.187h3.797c0 .729.088 1.354.265 1.875.177.51.432.932.766 1.265.343.323.745.563 1.203.719.469.146.989.219 1.562.219.709 0 1.287-.125 1.735-.375.458-.26.797-.62 1.015-1.078.219-.458.328-.99.328-1.594zM385 174.636c.469 0 .886-.099 1.25-.297.375-.198.672-.505.891-.922.218-.427.338-.979.359-1.656h3.422c-.021 1.198-.297 2.245-.828 3.14a5.609 5.609 0 01-2.125 2.063c-.875.479-1.849.719-2.922.719-1.115 0-2.089-.177-2.922-.532a5.28 5.28 0 01-2.047-1.578c-.541-.687-.948-1.521-1.219-2.5-.26-.989-.39-2.12-.39-3.39v-1.532c0-1.26.13-2.385.39-3.375.271-.989.678-1.828 1.219-2.515a5.153 5.153 0 012.047-1.563c.823-.364 1.792-.547 2.906-.547 1.188 0 2.214.25 3.078.75.876.49 1.558 1.209 2.047 2.157.49.948.745 2.109.766 3.484H387.5c-.021-.729-.13-1.339-.328-1.828-.198-.5-.479-.875-.844-1.125-.354-.25-.802-.375-1.343-.375-.594 0-1.084.114-1.469.344a2.198 2.198 0 00-.875.968c-.198.427-.339.948-.422 1.563-.073.604-.11 1.292-.11 2.062v1.532c0 .791.037 1.494.11 2.109.073.604.208 1.12.406 1.547.208.427.505.75.891.969.385.218.88.328 1.484.328zm16.594-.703v-8.422c0-.584-.083-1.052-.25-1.407a1.491 1.491 0 00-.703-.765c-.302-.167-.683-.25-1.141-.25-.479 0-.885.099-1.219.297a1.91 1.91 0 00-.734.812 2.55 2.55 0 00-.25 1.156h-3.641c0-.677.136-1.328.407-1.953a5.219 5.219 0 011.203-1.672 5.67 5.67 0 011.89-1.156c.74-.281 1.563-.422 2.469-.422 1.083 0 2.047.183 2.891.547a4.122 4.122 0 011.984 1.735c.49.791.735 1.833.735 3.125v7.89c0 .781.046 1.479.14 2.094.104.604.245 1.13.422 1.578v.25h-3.703c-.167-.406-.292-.927-.375-1.562a14.482 14.482 0 01-.125-1.875zm.484-6.86l.016 2.36h-1.75c-.521 0-.99.073-1.406.218a2.95 2.95 0 00-1.063.594c-.281.25-.5.557-.656.922a3.21 3.21 0 00-.219 1.203c0 .531.073.964.219 1.297.156.333.38.583.672.75.302.156.666.234 1.094.234.583 0 1.088-.125 1.515-.375.438-.26.771-.573 1-.937.24-.365.333-.698.281-1l.828 1.515a4.864 4.864 0 01-.468 1.25 5.648 5.648 0 01-.86 1.25 4.242 4.242 0 01-1.281.969c-.5.24-1.078.36-1.734.36-.948 0-1.792-.198-2.531-.594a4.37 4.37 0 01-1.75-1.703c-.417-.75-.626-1.646-.626-2.688 0-.844.141-1.609.422-2.297a4.72 4.72 0 011.25-1.765c.552-.5 1.245-.886 2.078-1.157.844-.27 1.829-.406 2.954-.406h2.015zm10.485-3v13.297h-3.641v-16.906h3.422l.219 3.609zm-.657 4.235h-1.156c-.01-1.219.12-2.329.391-3.329s.656-1.859 1.156-2.578c.51-.718 1.115-1.27 1.812-1.656a4.755 4.755 0 012.36-.594c.667 0 1.276.115 1.828.344a3.379 3.379 0 011.438 1.078c.395.5.697 1.151.906 1.953.218.802.328 1.782.328 2.938v10.906h-3.641v-10.937c0-.792-.088-1.417-.265-1.875-.167-.469-.417-.802-.75-1-.334-.209-.756-.313-1.266-.313-.469 0-.901.136-1.297.406-.385.261-.719.625-1 1.094a5.762 5.762 0 00-.625 1.609 8.312 8.312 0 00-.219 1.954zm-57.448 22v17.062h-2.156v-17.062h2.156zm5.754 7.675v1.852h-6.164v-1.852h6.164zm.973-7.675v1.851h-7.137v-1.851h7.137zm4.617-.938v18h-2.063v-18h2.063zm7.816 18.234c-.758 0-1.441-.113-2.051-.339a4.008 4.008 0 01-1.558-1.032c-.43-.468-.758-1.058-.985-1.769-.226-.711-.339-1.551-.339-2.52v-1.429c0-1.118.128-2.063.386-2.836.266-.774.621-1.395 1.067-1.864.445-.476.949-.82 1.511-1.031a4.745 4.745 0 011.735-.328c.797 0 1.476.129 2.039.387.562.258 1.019.64 1.371 1.148.351.508.609 1.133.773 1.875.172.742.258 1.598.258 2.567v1.207h-7.922v-1.77h5.848v-.293a7.303 7.303 0 00-.27-1.734c-.14-.5-.375-.891-.703-1.172-.328-.289-.793-.434-1.394-.434-.383 0-.739.067-1.067.2-.32.125-.597.347-.832.667-.226.313-.406.747-.539 1.301-.125.555-.187 1.258-.187 2.11v1.429c0 .68.062 1.266.187 1.758.133.485.324.887.574 1.207.258.313.571.547.938.703.375.149.801.223 1.277.223.696 0 1.27-.133 1.723-.398a4.458 4.458 0 001.184-1.043l1.089 1.3a4.66 4.66 0 01-.89.926c-.36.289-.805.527-1.336.715-.524.18-1.153.269-1.887.269zm8.238-12.914l2.133 4.618 2.168-4.618h2.403l-3.434 6.258 3.527 6.422h-2.379l-2.238-4.758-2.25 4.758h-2.391l3.528-6.422-3.434-6.258h2.367zm16.77 8.368c0-.399-.047-.75-.141-1.055a2.1 2.1 0 00-.492-.844c-.234-.25-.562-.488-.984-.715a12.284 12.284 0 00-1.606-.691c-.703-.25-1.34-.527-1.91-.832a6.64 6.64 0 01-1.465-1.067 4.296 4.296 0 01-.926-1.371c-.218-.515-.328-1.105-.328-1.769 0-.664.114-1.277.34-1.84a4.413 4.413 0 01.985-1.465c.429-.422.945-.75 1.546-.984.602-.235 1.274-.352 2.016-.352 1.109 0 2.043.246 2.801.739a4.686 4.686 0 011.734 1.91c.391.781.586 1.617.586 2.507h-2.156c0-.64-.106-1.207-.316-1.699-.204-.5-.524-.89-.961-1.172-.43-.289-.993-.433-1.688-.433-.625 0-1.141.121-1.547.363-.398.242-.695.57-.89.984a3.4 3.4 0 00-.282 1.418c0 .36.063.688.188.985.125.289.316.558.574.808.266.25.594.481.984.692.399.211.868.414 1.407.609.836.274 1.55.578 2.144.914.594.336 1.078.715 1.453 1.137.375.414.649.887.821 1.418.179.523.269 1.117.269 1.781 0 .695-.117 1.324-.351 1.887a3.895 3.895 0 01-.996 1.441 4.596 4.596 0 01-1.583.926c-.617.211-1.312.316-2.085.316a6.155 6.155 0 01-1.981-.328 5.43 5.43 0 01-1.746-.984 4.871 4.871 0 01-1.254-1.617c-.312-.649-.469-1.399-.469-2.25h2.157c0 .586.086 1.09.257 1.512.172.414.411.757.715 1.031a3 3 0 001.043.609c.399.125.824.188 1.278.188.625 0 1.148-.11 1.57-.328.43-.219.75-.532.961-.938.219-.406.328-.887.328-1.441zm9.094 2.777a2.53 2.53 0 001.125-.246c.343-.172.625-.438.843-.797.219-.367.344-.844.375-1.43h1.946c-.032.844-.246 1.586-.645 2.227a4.204 4.204 0 01-1.547 1.488 4.238 4.238 0 01-2.097.527c-.821 0-1.535-.132-2.145-.398a3.912 3.912 0 01-1.5-1.148c-.39-.508-.683-1.121-.879-1.84-.195-.727-.293-1.551-.293-2.473v-1.43c0-.921.098-1.742.293-2.461.196-.726.489-1.339.879-1.839a3.866 3.866 0 011.5-1.161c.61-.265 1.324-.398 2.145-.398.859 0 1.601.184 2.226.551.633.359 1.125.883 1.477 1.57.359.68.554 1.504.586 2.473h-1.946c-.031-.625-.144-1.145-.339-1.559-.196-.422-.461-.734-.797-.937-.336-.211-.739-.317-1.207-.317-.547 0-1 .098-1.36.293a2.054 2.054 0 00-.832.821 3.974 3.974 0 00-.433 1.289c-.078.5-.118 1.058-.118 1.675v1.43c0 .617.04 1.18.118 1.688.086.5.226.929.422 1.289.203.359.484.636.843.832.36.187.813.281 1.36.281zm12.902-.633v-6.879c0-.5-.078-.902-.234-1.207a1.385 1.385 0 00-.68-.668c-.297-.14-.672-.211-1.125-.211-.438 0-.816.09-1.137.27a1.94 1.94 0 00-.726.715 2.001 2.001 0 00-.246.984h-2.075c0-.453.098-.902.293-1.348.203-.445.493-.847.868-1.207a4.087 4.087 0 011.347-.867c.531-.219 1.125-.328 1.781-.328.782 0 1.473.129 2.075.387a2.94 2.94 0 011.418 1.23c.343.571.515 1.328.515 2.274v6.257c0 .422.031.872.094 1.348.07.477.168.887.293 1.231v.187h-2.145c-.101-.25-.179-.582-.234-.996a9.097 9.097 0 01-.082-1.172zm.328-5.519l.024 1.523h-1.442a5.19 5.19 0 00-1.347.164c-.399.109-.743.27-1.032.481a2.092 2.092 0 00-.668.761 2.36 2.36 0 00-.222 1.043c0 .508.07.914.211 1.219.14.297.351.512.632.645.282.132.637.199 1.067.199.523 0 .984-.121 1.383-.364.398-.242.707-.535.925-.878.227-.344.332-.664.317-.961l.457.972a3.048 3.048 0 01-.305.996 4.113 4.113 0 01-.691 1.02c-.297.32-.649.586-1.055.797a2.926 2.926 0 01-1.348.304c-.734 0-1.379-.14-1.933-.421a3.02 3.02 0 01-1.278-1.243c-.304-.546-.457-1.222-.457-2.027 0-.609.106-1.172.317-1.687.211-.516.523-.961.937-1.336.414-.383.934-.68 1.559-.891.633-.211 1.363-.316 2.191-.316h1.758zm7.043-2.286v9.973h-2.074v-12.68h1.957l.117 2.707zm-.504 3.153l-.844-.035a8.732 8.732 0 01.293-2.403c.211-.742.508-1.386.891-1.933a4.208 4.208 0 011.395-1.266 3.575 3.575 0 011.793-.457c.515 0 .984.086 1.406.258.422.164.781.43 1.078.797.297.367.523.843.68 1.429.164.579.246 1.286.246 2.122v8.308h-2.075v-8.332c0-.664-.074-1.195-.222-1.594-.141-.406-.36-.699-.656-.879-.289-.187-.657-.281-1.102-.281-.406 0-.785.113-1.137.34-.351.227-.66.539-.925.938a5.11 5.11 0 00-.61 1.371 6.05 6.05 0 00-.211 1.617zm12.891-11.417v10.237h-1.28v-10.237h1.28zm2.693 0v1.111h-6.659v-1.111h6.659zm2.351 0h1.252l2.679 8.346 2.672-8.346h1.251l-3.438 10.237h-.984l-3.432-10.237zm-.407 0h1.096l.19 6.243v3.994h-1.286v-10.237zm7.565 0h1.097v10.237h-1.287v-3.994l.19-6.243zM210.763 449.308v17.062h-2.133v-17.062h2.133zm4.488 0v1.851h-11.098v-1.851h11.098zm3.422 6.375v10.687h-2.074v-12.68h2.003l.071 1.993zm3.152-2.063l.012 2.016a2.88 2.88 0 00-.469-.071 4.232 4.232 0 00-.469-.023c-.39 0-.734.078-1.031.234a2.305 2.305 0 00-.75.657 3.381 3.381 0 00-.504 1.007 6.058 6.058 0 00-.258 1.266l-.539.352c0-.766.059-1.485.176-2.157a6.748 6.748 0 01.574-1.781c.258-.523.586-.93.985-1.219.406-.297.89-.445 1.453-.445.125 0 .277.02.457.059.187.031.308.066.363.105zm8.496 9.82v-9.75h2.074v12.68h-1.968l-.106-2.93zm.387-2.671l.82-.024c0 .844-.074 1.625-.222 2.344-.141.711-.375 1.328-.704 1.851-.32.524-.746.934-1.277 1.231-.531.289-1.183.433-1.957.433-.523 0-1-.089-1.43-.269a2.91 2.91 0 01-1.101-.832c-.305-.375-.543-.863-.715-1.465-.164-.601-.246-1.324-.246-2.168v-8.18h2.062v8.204c0 .57.051 1.043.153 1.418.101.367.238.66.41.878.172.211.363.36.574.446.211.086.426.129.645.129.734 0 1.32-.176 1.757-.528.438-.359.75-.84.938-1.441a6.625 6.625 0 00.293-2.027zm5.098-11.461h4.769c1.11 0 2.039.195 2.789.586.758.39 1.328.968 1.711 1.734.391.758.586 1.691.586 2.801 0 .781-.129 1.496-.387 2.144a4.44 4.44 0 01-1.125 1.641c-.492.445-1.089.777-1.793.996l-.586.246h-4.253l-.024-1.84h3.059c.656 0 1.203-.14 1.64-.422.438-.289.766-.675.985-1.16a3.864 3.864 0 00.328-1.605c0-.657-.098-1.231-.293-1.723a2.288 2.288 0 00-.938-1.137c-.422-.273-.988-.41-1.699-.41h-2.613v15.211h-2.156v-17.062zm8.191 17.062l-3.398-7.734 2.238-.012 3.469 7.605v.141h-2.309zm6.492-12.68v12.68h-2.062v-12.68h2.062zm-2.179-3.363c0-.351.097-.648.292-.89.196-.243.489-.364.879-.364.391 0 .684.121.879.364.203.242.305.539.305.89 0 .336-.102.625-.305.867-.195.235-.488.352-.879.352-.39 0-.683-.117-.879-.352a1.338 1.338 0 01-.292-.867zm11.613 12.797c0-.32-.078-.602-.235-.844-.156-.242-.414-.476-.773-.703-.352-.226-.828-.469-1.43-.726a25.076 25.076 0 01-1.582-.715 6.018 6.018 0 01-1.172-.785 2.968 2.968 0 01-.738-.973c-.164-.375-.246-.816-.246-1.324 0-.508.094-.977.281-1.407.196-.437.469-.82.821-1.148a3.679 3.679 0 011.265-.762 4.623 4.623 0 011.653-.281c.867 0 1.605.168 2.214.504a3.44 3.44 0 011.395 1.383c.328.578.492 1.23.492 1.957h-2.062c0-.352-.079-.684-.235-.996a1.895 1.895 0 00-.691-.762c-.305-.203-.676-.305-1.113-.305-.461 0-.836.082-1.125.246-.29.164-.5.379-.633.645a1.935 1.935 0 00-.188.855c0 .235.031.438.094.61.07.164.187.32.352.469.164.14.386.289.668.445.289.148.656.32 1.101.515.859.336 1.582.676 2.168 1.02.586.344 1.031.746 1.336 1.207.305.461.457 1.031.457 1.711 0 .555-.102 1.059-.305 1.512a3.22 3.22 0 01-.843 1.148c-.368.32-.809.567-1.325.738a5.549 5.549 0 01-1.711.246c-.953 0-1.761-.187-2.425-.562-.657-.383-1.157-.879-1.5-1.488a4.08 4.08 0 01-.504-1.981h2.074c.023.594.156 1.055.398 1.383.25.328.551.555.903.68.351.125.703.187 1.054.187.461 0 .848-.066 1.161-.199.312-.141.546-.34.703-.598.164-.257.246-.558.246-.902zm6.879-14.754v18h-2.075v-18h2.075zm6.433 5.32l-4.511 5.918-2.789 3.211-.141-2.308 1.922-2.649 3.023-4.172h2.496zm-1.898 12.68l-3.563-6.047 1.067-1.933 4.91 7.98h-2.414zm7.043-18.237v10.237h-1.28v-10.237h1.28zm2.693 0v1.111h-6.659v-1.111h6.659zm2.351 0h1.252l2.679 8.346 2.672-8.346h1.251l-3.438 10.237h-.984l-3.432-10.237zm-.407 0h1.096l.19 6.243v3.994h-1.286v-10.237zm7.565 0h1.097v10.237h-1.287v-3.994l.19-6.243zm-217.648-66.72l3.785 3.434-1.465 1.406-3.703-3.387 1.383-1.453zm3.551-8.051v2.953c0 1.211-.133 2.274-.399 3.188-.258.906-.637 1.664-1.137 2.273a4.717 4.717 0 01-1.816 1.371c-.703.305-1.496.457-2.379.457-.852 0-1.629-.152-2.332-.457a4.83 4.83 0 01-1.816-1.371c-.508-.609-.903-1.367-1.184-2.273-.273-.914-.41-1.977-.41-3.188v-2.953c0-1.211.137-2.269.41-3.175.273-.907.664-1.665 1.172-2.274a4.809 4.809 0 011.816-1.383c.703-.304 1.481-.457 2.332-.457.883 0 1.676.153 2.379.457a4.692 4.692 0 011.817 1.383c.5.609.882 1.367 1.148 2.274.266.906.399 1.964.399 3.175zm-2.133 2.953v-2.976c0-.938-.078-1.742-.235-2.414-.156-.68-.39-1.235-.703-1.664a2.78 2.78 0 00-1.125-.949c-.445-.211-.961-.317-1.547-.317a3.43 3.43 0 00-1.488.317 2.894 2.894 0 00-1.125.949c-.312.429-.555.984-.727 1.664-.164.672-.246 1.476-.246 2.414v2.976c0 .946.082 1.758.246 2.438.172.68.415 1.238.727 1.676.32.429.699.75 1.137.961.445.203.941.304 1.488.304.586 0 1.102-.101 1.547-.304a2.868 2.868 0 001.137-.961c.304-.438.531-.996.679-1.676.157-.68.235-1.492.235-2.438zm7.722-10.007v17.062h-2.156v-17.062h2.156zm5.754 7.675v1.852h-6.164v-1.852h6.164zm.973-7.675v1.851h-7.137v-1.851h7.137zm4.617-.938v18h-2.062v-18h2.062zm2.848 12.27v-1.207c0-.985.125-1.848.375-2.59.25-.75.597-1.375 1.043-1.875.445-.5.965-.875 1.558-1.125a4.743 4.743 0 011.91-.387 4.8 4.8 0 011.934.387c.594.25 1.113.625 1.559 1.125.453.5.804 1.125 1.054 1.875.25.742.375 1.605.375 2.59v1.207c0 .984-.125 1.851-.375 2.601-.25.742-.597 1.363-1.043 1.863a4.3 4.3 0 01-1.558 1.125 4.905 4.905 0 01-1.922.375 4.901 4.901 0 01-1.922-.375 4.41 4.41 0 01-1.57-1.125c-.446-.5-.793-1.121-1.043-1.863-.25-.75-.375-1.617-.375-2.601zm2.074-1.207v1.207c0 .695.07 1.304.211 1.828.141.523.34.961.598 1.312.257.352.558.617.902.797a2.48 2.48 0 001.125.258c.469 0 .879-.086 1.23-.258.36-.18.657-.445.891-.797.234-.351.41-.789.527-1.312.118-.524.176-1.133.176-1.828v-1.207c0-.696-.07-1.301-.211-1.817-.14-.523-.34-.961-.597-1.312a2.448 2.448 0 00-.915-.797 2.384 2.384 0 00-1.125-.27c-.398 0-.769.09-1.113.27a2.475 2.475 0 00-.902.797c-.25.351-.445.789-.586 1.312-.141.516-.211 1.121-.211 1.817zm13.008 4.687l2.801-10.43h1.347l-.152 2.075-2.813 10.605h-1.3l.117-2.25zm-1.524-10.43l2.356 10.547.058 2.133h-1.371l-3.093-12.68h2.05zm8.075 10.465l2.226-10.465h2.039l-3.094 12.68h-1.347l.176-2.215zm-2.11-10.465l2.731 10.254.187 2.426h-1.289l-2.906-10.629-.153-2.051h1.43zm239.727-36.945l-5.5 19.625h-3.969l7.219-22.75h2.469l-.219 3.125zm4.39 19.625l-5.515-19.625-.266-3.125h2.516l7.25 22.75h-3.985zm.094-8.453v3.187h-10.594v-3.187H360zm14.016 4c0-.354-.104-.667-.313-.938-.198-.281-.521-.557-.968-.828-.448-.27-1.047-.562-1.797-.875a23.414 23.414 0 01-2.079-.968 7.324 7.324 0 01-1.531-1.063 4.092 4.092 0 01-.953-1.359c-.219-.511-.328-1.104-.328-1.782 0-.697.13-1.343.391-1.937a4.596 4.596 0 011.125-1.563 5.096 5.096 0 011.765-1.062c.688-.26 1.464-.391 2.328-.391 1.219 0 2.261.224 3.125.672.875.438 1.542 1.052 2 1.844.469.781.704 1.682.704 2.703h-3.641c0-.427-.078-.812-.235-1.156a1.887 1.887 0 00-.718-.844c-.323-.219-.735-.328-1.235-.328-.458 0-.843.089-1.156.266a1.672 1.672 0 00-.687.687 2.037 2.037 0 00-.219.953c0 .261.047.49.141.688.093.198.25.39.468.578.219.177.511.359.875.547.375.187.849.401 1.422.64 1.136.438 2.078.891 2.828 1.36.75.468 1.313 1.015 1.688 1.64s.562 1.401.562 2.328c0 .75-.14 1.428-.422 2.032a4.32 4.32 0 01-1.187 1.562c-.511.438-1.13.776-1.86 1.016-.718.229-1.52.344-2.406.344-1.323 0-2.442-.261-3.359-.782-.906-.531-1.594-1.213-2.063-2.047a5.311 5.311 0 01-.703-2.64h3.516c.031.667.172 1.187.422 1.562.26.375.588.636.984.782.396.135.807.203 1.235.203.51 0 .932-.068 1.265-.203a1.58 1.58 0 00.75-.641c.177-.281.266-.615.266-1zm14.562 0c0-.354-.104-.667-.312-.938-.198-.281-.521-.557-.969-.828-.448-.27-1.047-.562-1.797-.875a23.387 23.387 0 01-2.078-.968 7.298 7.298 0 01-1.531-1.063 4.064 4.064 0 01-.953-1.359c-.219-.511-.329-1.104-.329-1.782 0-.697.131-1.343.391-1.937a4.623 4.623 0 011.125-1.563 5.1 5.1 0 011.766-1.062c.687-.26 1.463-.391 2.328-.391 1.219 0 2.26.224 3.125.672.875.438 1.542 1.052 2 1.844.469.781.703 1.682.703 2.703h-3.641c0-.427-.078-.812-.234-1.156a1.889 1.889 0 00-.719-.844c-.323-.219-.734-.328-1.234-.328-.458 0-.844.089-1.156.266a1.674 1.674 0 00-.688.687 2.037 2.037 0 00-.219.953c0 .261.047.49.141.688.094.198.25.39.469.578.219.177.51.359.875.547.375.187.849.401 1.422.64 1.135.438 2.078.891 2.828 1.36.75.468 1.312 1.015 1.687 1.64s.563 1.401.563 2.328c0 .75-.141 1.428-.422 2.032a4.334 4.334 0 01-1.188 1.562c-.51.438-1.13.776-1.859 1.016-.719.229-1.521.344-2.406.344-1.323 0-2.443-.261-3.36-.782-.906-.531-1.593-1.213-2.062-2.047a5.3 5.3 0 01-.703-2.64h3.515c.032.667.172 1.187.422 1.562.261.375.589.636.985.782.395.135.807.203 1.234.203.51 0 .932-.068 1.266-.203a1.58 1.58 0 00.75-.641c.177-.281.265-.615.265-1zm13.203 4.766c-1.093 0-2.067-.162-2.922-.485a5.724 5.724 0 01-2.171-1.469c-.594-.656-1.047-1.458-1.36-2.406-.312-.958-.469-2.067-.469-3.328v-1.625c0-1.427.162-2.656.485-3.687.333-1.042.792-1.896 1.375-2.563a5.444 5.444 0 012.062-1.484 6.922 6.922 0 012.61-.485c1.062 0 1.984.172 2.765.516a4.645 4.645 0 011.922 1.547c.511.687.886 1.536 1.125 2.547.25 1.01.375 2.172.375 3.484v1.828h-10.969v-2.75h7.376v-.39c-.021-.771-.115-1.433-.282-1.985-.166-.562-.437-.989-.812-1.281-.365-.302-.87-.453-1.516-.453-.469 0-.885.088-1.25.265-.364.178-.667.464-.906.86-.229.396-.406.927-.531 1.594-.125.656-.188 1.468-.188 2.437v1.625c0 .844.073 1.557.219 2.141.156.583.385 1.062.687 1.437.302.365.667.636 1.094.813.438.166.943.25 1.516.25.843 0 1.567-.157 2.172-.469a5.522 5.522 0 001.593-1.25l1.61 2.234c-.302.407-.709.808-1.219 1.203-.51.386-1.13.704-1.859.954-.719.25-1.563.375-2.532.375zm16.547-4.766c0-.354-.104-.667-.312-.938-.198-.281-.521-.557-.969-.828-.448-.27-1.047-.562-1.797-.875a23.387 23.387 0 01-2.078-.968 7.298 7.298 0 01-1.531-1.063 4.064 4.064 0 01-.953-1.359c-.219-.511-.329-1.104-.329-1.782 0-.697.131-1.343.391-1.937a4.623 4.623 0 011.125-1.563 5.1 5.1 0 011.766-1.062c.687-.26 1.463-.391 2.328-.391 1.219 0 2.26.224 3.125.672.875.438 1.542 1.052 2 1.844.469.781.703 1.682.703 2.703h-3.641c0-.427-.078-.812-.234-1.156a1.889 1.889 0 00-.719-.844c-.323-.219-.734-.328-1.234-.328-.458 0-.844.089-1.156.266a1.674 1.674 0 00-.688.687 2.037 2.037 0 00-.219.953c0 .261.047.49.141.688.094.198.25.39.469.578.219.177.51.359.875.547.375.187.849.401 1.422.64 1.135.438 2.078.891 2.828 1.36.75.468 1.312 1.015 1.687 1.64s.563 1.401.563 2.328c0 .75-.141 1.428-.422 2.032a4.334 4.334 0 01-1.188 1.562c-.51.438-1.13.776-1.859 1.016-.719.229-1.521.344-2.406.344-1.323 0-2.443-.261-3.36-.782-.906-.531-1.593-1.213-2.062-2.047a5.3 5.3 0 01-.703-2.64h3.515c.032.667.172 1.187.422 1.562.261.375.589.636.985.782.395.135.807.203 1.234.203.51 0 .932-.068 1.266-.203a1.58 1.58 0 00.75-.641c.177-.281.265-.615.265-1zm14.563 0c0-.354-.104-.667-.313-.938-.198-.281-.521-.557-.969-.828-.447-.27-1.046-.562-1.796-.875a23.255 23.255 0 01-2.078-.968 7.306 7.306 0 01-1.532-1.063 4.092 4.092 0 01-.953-1.359c-.219-.511-.328-1.104-.328-1.782 0-.697.13-1.343.391-1.937a4.596 4.596 0 011.125-1.563 5.096 5.096 0 011.765-1.062c.688-.26 1.464-.391 2.328-.391 1.219 0 2.261.224 3.125.672.875.438 1.542 1.052 2 1.844.469.781.703 1.682.703 2.703h-3.64c0-.427-.078-.812-.234-1.156a1.895 1.895 0 00-.719-.844c-.323-.219-.735-.328-1.235-.328-.458 0-.843.089-1.156.266a1.672 1.672 0 00-.687.687 2.037 2.037 0 00-.219.953c0 .261.047.49.14.688.094.198.25.39.469.578.219.177.511.359.875.547.375.187.849.401 1.422.64 1.136.438 2.078.891 2.828 1.36.75.468 1.313 1.015 1.688 1.64s.562 1.401.562 2.328c0 .75-.14 1.428-.422 2.032a4.32 4.32 0 01-1.187 1.562c-.511.438-1.13.776-1.859 1.016-.719.229-1.521.344-2.407.344-1.323 0-2.442-.261-3.359-.782-.906-.531-1.594-1.213-2.063-2.047a5.311 5.311 0 01-.703-2.64h3.516c.031.667.172 1.187.422 1.562.26.375.588.636.984.782.396.135.807.203 1.234.203.511 0 .933-.068 1.266-.203a1.58 1.58 0 00.75-.641c.177-.281.266-.615.266-1zm-236.016 79.016h-4.797v-3.172h4.797c.781 0 1.412-.167 1.891-.5a2.818 2.818 0 001.062-1.375c.229-.584.344-1.245.344-1.985a5.77 5.77 0 00-.344-2c-.219-.625-.567-1.13-1.047-1.515-.479-.386-1.114-.578-1.906-.578h-3.734v19.562h-3.782v-22.75h7.516c1.5 0 2.781.313 3.844.938a6.248 6.248 0 012.437 2.578c.563 1.083.844 2.328.844 3.734 0 1.469-.281 2.729-.844 3.781a5.851 5.851 0 01-2.437 2.438c-1.063.562-2.344.844-3.844.844zm13.828-5.204v13.641h-3.64v-16.906h3.468l.172 3.265zm4.078-3.375l-.015 3.594a3.435 3.435 0 00-.672-.094 7.9 7.9 0 00-.688-.031c-.5 0-.932.089-1.297.266a2.514 2.514 0 00-.921.765c-.25.334-.448.735-.594 1.204-.136.468-.219 1-.25 1.593l-.781.032c0-1.063.083-2.047.25-2.954.166-.916.416-1.713.75-2.39.343-.688.77-1.224 1.281-1.61.51-.385 1.104-.578 1.781-.578.188 0 .401.021.641.063.239.042.411.088.515.14zm6.36.11v16.906H217.5v-16.906h3.641zm-3.828-4.422c0-.583.177-1.068.531-1.453.354-.396.849-.594 1.484-.594.636 0 1.13.198 1.485.594.354.385.531.87.531 1.453 0 .562-.177 1.036-.531 1.422-.355.385-.849.578-1.485.578-.635 0-1.13-.193-1.484-.578-.354-.386-.531-.86-.531-1.422zm7.187 13.562v-1.359c0-1.312.162-2.474.485-3.484.322-1.011.781-1.854 1.374-2.532a5.825 5.825 0 012.126-1.546c.812-.355 1.708-.532 2.687-.532 1 0 1.906.177 2.719.532a5.652 5.652 0 012.125 1.546c.604.678 1.067 1.521 1.39 2.532.323 1.01.485 2.172.485 3.484v1.359c0 1.313-.162 2.474-.485 3.485-.323 1.01-.786 1.859-1.39 2.547a5.764 5.764 0 01-2.11 1.531c-.812.344-1.713.516-2.703.516-.979 0-1.88-.172-2.703-.516a5.91 5.91 0 01-2.125-1.531c-.604-.688-1.068-1.537-1.39-2.547-.323-1.011-.485-2.172-.485-3.485zm3.641-1.359v1.359c0 .844.073 1.584.218 2.219.146.625.355 1.146.626 1.563.27.416.593.729.968.937.375.209.792.313 1.25.313.511 0 .953-.104 1.328-.313a2.49 2.49 0 00.954-.937c.26-.417.453-.938.578-1.563.125-.635.187-1.375.187-2.219v-1.359c0-.833-.073-1.562-.219-2.187-.145-.636-.354-1.162-.625-1.579-.27-.427-.599-.744-.984-.953a2.534 2.534 0 00-1.25-.312 2.5 2.5 0 00-1.234.312c-.365.209-.683.526-.953.953-.271.417-.48.943-.626 1.579-.145.625-.218 1.354-.218 2.187zm16.531-4.516v13.641h-3.641v-16.906h3.469l.172 3.265zm4.078-3.375l-.015 3.594a3.435 3.435 0 00-.672-.094 7.935 7.935 0 00-.688-.031c-.5 0-.932.089-1.297.266a2.517 2.517 0 00-.922.765c-.25.334-.448.735-.593 1.204-.136.468-.219 1-.25 1.593l-.782.032c0-1.063.084-2.047.25-2.954.167-.916.417-1.713.75-2.39.344-.688.771-1.224 1.282-1.61.51-.385 1.104-.578 1.781-.578.187 0 .401.021.641.063.239.042.411.088.515.14zm6.359.11v16.906h-3.64v-16.906h3.64zm-3.828-4.422c0-.583.177-1.068.532-1.453.354-.396.849-.594 1.484-.594s1.13.198 1.484.594c.355.385.532.87.532 1.453 0 .562-.177 1.036-.532 1.422-.354.385-.849.578-1.484.578s-1.13-.193-1.484-.578c-.355-.386-.532-.86-.532-1.422zm14.547 4.422v2.812h-8.297v-2.812h8.297zm-6.031-4.141h3.625v16.328c0 .521.057.917.172 1.188.114.271.276.453.484.547.209.093.453.14.735.14.208 0 .411-.015.609-.047.208-.041.359-.078.453-.109v2.938a6.021 6.021 0 01-.937.265c-.355.073-.782.11-1.282.11-.739 0-1.401-.151-1.984-.454-.583-.312-1.042-.817-1.375-1.515-.333-.708-.5-1.646-.5-2.813v-16.578zm12.719 4.141v16.906h-3.641v-16.906h3.641zm-3.828-4.422c0-.583.177-1.068.531-1.453.354-.396.849-.594 1.484-.594.636 0 1.13.198 1.485.594.354.385.531.87.531 1.453 0 .562-.177 1.036-.531 1.422-.355.385-.849.578-1.485.578-.635 0-1.13-.193-1.484-.578-.354-.386-.531-.86-.531-1.422zm18.89 18.266v3.062h-10.5v-3.062h10.5zm-.203-11.469l-9.078 14.531h-2.359v-2.469l9.031-14.437h2.406v2.375zM286 419.464v3.078h-9.953v-3.078H286zm10.906 17.219c-1.093 0-2.067-.162-2.921-.485a5.72 5.72 0 01-2.172-1.469c-.594-.656-1.047-1.458-1.36-2.406-.312-.958-.468-2.067-.468-3.328v-1.625c0-1.427.161-2.656.484-3.687.333-1.042.792-1.896 1.375-2.563a5.444 5.444 0 012.062-1.484 6.922 6.922 0 012.61-.485c1.062 0 1.984.172 2.765.516a4.645 4.645 0 011.922 1.547c.511.687.886 1.536 1.125 2.547.25 1.01.375 2.172.375 3.484v1.828h-10.968v-2.75h7.374v-.39c-.02-.771-.114-1.433-.281-1.985-.166-.562-.437-.989-.812-1.281-.365-.302-.87-.453-1.516-.453-.469 0-.885.088-1.25.265-.364.178-.667.464-.906.86-.229.396-.406.927-.531 1.594-.125.656-.188 1.468-.188 2.437v1.625c0 .844.073 1.557.219 2.141.156.583.385 1.062.687 1.437.302.365.667.636 1.094.813.438.166.943.25 1.516.25.844 0 1.567-.157 2.172-.469a5.522 5.522 0 001.593-1.25l1.61 2.234c-.302.407-.709.808-1.219 1.203-.51.386-1.13.704-1.859.954-.719.25-1.563.375-2.532.375zM27.594 330.62h6.875c1.5 0 2.771.261 3.812.781a5.309 5.309 0 012.375 2.313c.552 1.01.829 2.265.829 3.765 0 1.136-.172 2.136-.516 3a5.801 5.801 0 01-1.453 2.188c-.636.583-1.401 1.036-2.297 1.359l-1.11.61h-5.812l-.016-3.188h4.094c.74 0 1.354-.161 1.844-.484a2.918 2.918 0 001.094-1.344c.25-.573.375-1.224.375-1.953 0-.781-.11-1.458-.329-2.031-.218-.584-.562-1.032-1.031-1.344-.469-.323-1.088-.484-1.859-.484h-3.078v19.562h-3.797v-22.75zm10.594 22.75l-4.329-10.219 3.954-.015 4.437 10.031v.203h-4.062zm12.937.313c-1.094 0-2.068-.162-2.922-.485a5.735 5.735 0 01-2.172-1.469c-.593-.656-1.046-1.458-1.359-2.406-.313-.958-.469-2.067-.469-3.328v-1.625c0-1.427.162-2.656.485-3.687.333-1.042.791-1.896 1.375-2.563a5.436 5.436 0 012.062-1.484 6.922 6.922 0 012.61-.485c1.062 0 1.984.172 2.765.516a4.652 4.652 0 011.922 1.547c.51.687.885 1.536 1.125 2.547.25 1.01.375 2.172.375 3.484v1.828H45.953v-2.75h7.375v-.39c-.021-.771-.114-1.433-.281-1.985-.167-.562-.438-.989-.812-1.281-.365-.302-.87-.453-1.516-.453-.469 0-.886.088-1.25.265-.365.178-.667.464-.906.86-.23.396-.407.927-.532 1.594-.125.656-.187 1.468-.187 2.437v1.625c0 .844.073 1.557.219 2.141.156.583.385 1.062.687 1.437.302.365.667.636 1.094.813.437.166.943.25 1.515.25.844 0 1.568-.157 2.172-.469a5.513 5.513 0 001.594-1.25l1.61 2.234c-.303.407-.709.808-1.219 1.203-.511.386-1.13.704-1.86.954-.718.25-1.562.375-2.531.375zM63.5 339.901v13.469h-3.641v-16.906h3.422l.219 3.437zm-.594 4.407h-1.234c-.021-1.177.083-2.261.313-3.25.239-.99.593-1.855 1.062-2.594.479-.74 1.078-1.307 1.797-1.703.719-.407 1.562-.61 2.531-.61.625 0 1.203.115 1.734.344a3.521 3.521 0 011.407 1.047c.406.479.719 1.094.937 1.844.219.75.328 1.656.328 2.718v11.266h-3.64v-10.922c0-.812-.094-1.448-.282-1.906-.177-.469-.437-.802-.781-1-.343-.198-.76-.297-1.25-.297-.531 0-.984.136-1.359.406-.375.261-.677.625-.906 1.094-.23.458-.396.995-.5 1.609a11.435 11.435 0 00-.157 1.954zm8.641-.969l-1.703.39c-.021-1.031.083-2 .312-2.906.23-.916.573-1.724 1.032-2.422a5.147 5.147 0 011.75-1.64c.708-.407 1.526-.61 2.453-.61.718 0 1.364.12 1.937.36a3.567 3.567 0 011.485 1.093c.406.5.713 1.152.922 1.954.218.791.328 1.755.328 2.89v10.922h-3.657v-10.937c0-.844-.093-1.495-.281-1.954-.177-.458-.437-.776-.781-.953-.344-.187-.755-.281-1.235-.281a1.93 1.93 0 00-1.109.328c-.312.209-.578.5-.797.875a4.693 4.693 0 00-.5 1.313 7.58 7.58 0 00-.156 1.578zm18.672 10.344c-1.094 0-2.068-.162-2.922-.485a5.735 5.735 0 01-2.172-1.469c-.594-.656-1.047-1.458-1.359-2.406-.313-.958-.469-2.067-.469-3.328v-1.625c0-1.427.161-2.656.484-3.687.334-1.042.792-1.896 1.375-2.563a5.447 5.447 0 012.063-1.484 6.92 6.92 0 012.609-.485c1.063 0 1.985.172 2.766.516a4.652 4.652 0 011.922 1.547c.51.687.885 1.536 1.125 2.547.25 1.01.375 2.172.375 3.484v1.828H85.047v-2.75h7.375v-.39c-.021-.771-.115-1.433-.281-1.985-.167-.562-.438-.989-.813-1.281-.364-.302-.87-.453-1.515-.453-.469 0-.886.088-1.25.265-.365.178-.667.464-.907.86-.229.396-.406.927-.531 1.594-.125.656-.187 1.468-.187 2.437v1.625c0 .844.073 1.557.218 2.141.157.583.386 1.062.688 1.437.302.365.667.636 1.094.813.437.166.942.25 1.515.25.844 0 1.568-.157 2.172-.469a5.513 5.513 0 001.594-1.25l1.609 2.234c-.302.407-.708.808-1.219 1.203-.51.386-1.13.704-1.859.954-.719.25-1.562.375-2.531.375zm17.219-3.844V329.37h3.64v24l-3.297.016-.343-3.547zm-9.079-4.235v-1.328c0-1.385.126-2.583.376-3.593.25-1.021.614-1.87 1.093-2.547.49-.677 1.078-1.177 1.766-1.5.687-.323 1.463-.485 2.328-.485.844 0 1.573.193 2.187.578.615.375 1.136.912 1.563 1.61.427.698.766 1.531 1.016 2.5.26.958.437 2.031.531 3.219v1.843a20.748 20.748 0 01-.547 3.157c-.25.948-.589 1.765-1.016 2.453-.427.687-.953 1.224-1.578 1.609-.614.375-1.338.563-2.172.563-.864 0-1.64-.172-2.328-.516-.677-.344-1.26-.854-1.75-1.531-.479-.677-.843-1.516-1.093-2.516-.25-1.01-.376-2.182-.376-3.516zm3.641-1.328v1.328c0 .865.052 1.61.156 2.235.105.625.271 1.14.5 1.547.23.396.532.692.907.89.375.188.828.282 1.359.282.667 0 1.208-.167 1.625-.5.427-.334.755-.782.984-1.344.24-.573.407-1.208.5-1.906v-3.641a6.873 6.873 0 00-.312-1.531 4.649 4.649 0 00-.61-1.25 2.695 2.695 0 00-.921-.828c-.355-.209-.771-.313-1.25-.313-.532 0-.985.104-1.36.313-.375.198-.677.505-.906.921-.229.407-.401.928-.516 1.563-.104.625-.156 1.37-.156 2.234zm16.672-7.812v16.906h-3.641v-16.906h3.641zm-3.828-4.422c0-.583.177-1.068.531-1.453.354-.396.849-.594 1.484-.594.636 0 1.131.198 1.485.594.354.385.531.87.531 1.453 0 .562-.177 1.036-.531 1.422-.354.385-.849.578-1.485.578-.635 0-1.13-.193-1.484-.578-.354-.386-.531-.86-.531-1.422zm15.562 17.891v-8.422c0-.584-.083-1.052-.25-1.407-.156-.354-.39-.609-.703-.765-.302-.167-.682-.25-1.14-.25-.48 0-.886.099-1.219.297a1.912 1.912 0 00-.735.812c-.166.334-.25.719-.25 1.156h-3.64c0-.677.135-1.328.406-1.953a5.219 5.219 0 011.203-1.672 5.664 5.664 0 011.891-1.156c.739-.281 1.562-.422 2.469-.422 1.083 0 2.047.183 2.89.547a4.124 4.124 0 011.985 1.735c.489.791.734 1.833.734 3.125v7.89c0 .781.047 1.479.141 2.094a8.02 8.02 0 00.421 1.578v.25h-3.703c-.166-.406-.291-.927-.375-1.562a14.482 14.482 0 01-.125-1.875zm.485-6.86l.015 2.36h-1.75c-.52 0-.989.073-1.406.218a2.937 2.937 0 00-1.062.594c-.282.25-.5.557-.657.922a3.23 3.23 0 00-.218 1.203c0 .531.073.964.218 1.297.157.333.381.583.672.75.302.156.667.234 1.094.234.583 0 1.089-.125 1.516-.375.437-.26.77-.573 1-.937.239-.365.333-.698.281-1l.828 1.515a4.87 4.87 0 01-.469 1.25 5.643 5.643 0 01-.859 1.25 4.242 4.242 0 01-1.281.969c-.5.24-1.078.36-1.735.36-.948 0-1.791-.198-2.531-.594a4.37 4.37 0 01-1.75-1.703c-.417-.75-.625-1.646-.625-2.688 0-.844.141-1.609.422-2.297a4.71 4.71 0 011.25-1.765c.552-.5 1.245-.886 2.078-1.157.844-.27 1.828-.406 2.953-.406h2.016zm13.718-6.609v2.812h-8.296v-2.812h8.296zm-6.031-4.141h3.625v16.328c0 .521.058.917.172 1.188.115.271.276.453.484.547.209.093.454.14.735.14.208 0 .411-.015.609-.047.209-.041.36-.078.453-.109v2.938a5.99 5.99 0 01-.937.265 6.44 6.44 0 01-1.281.11c-.74 0-1.401-.151-1.985-.454-.583-.312-1.041-.817-1.375-1.515-.333-.708-.5-1.646-.5-2.813v-16.578zm15.328 21.36c-1.093 0-2.067-.162-2.921-.485a5.72 5.72 0 01-2.172-1.469c-.594-.656-1.047-1.458-1.36-2.406-.312-.958-.468-2.067-.468-3.328v-1.625c0-1.427.161-2.656.484-3.687.333-1.042.792-1.896 1.375-2.563a5.444 5.444 0 012.062-1.484 6.922 6.922 0 012.61-.485c1.062 0 1.984.172 2.765.516a4.645 4.645 0 011.922 1.547c.511.687.886 1.536 1.125 2.547.25 1.01.375 2.172.375 3.484v1.828h-10.968v-2.75h7.374v-.39c-.02-.771-.114-1.433-.281-1.985-.166-.562-.437-.989-.812-1.281-.365-.302-.87-.453-1.516-.453-.469 0-.885.088-1.25.265-.364.178-.667.464-.906.86-.229.396-.406.927-.531 1.594-.125.656-.188 1.468-.188 2.437v1.625c0 .844.073 1.557.219 2.141.156.583.385 1.062.687 1.437.302.365.667.636 1.094.813.438.166.943.25 1.516.25.844 0 1.567-.157 2.172-.469a5.522 5.522 0 001.593-1.25l1.61 2.234c-.302.407-.709.808-1.219 1.203-.51.386-1.13.704-1.859.954-.719.25-1.563.375-2.532.375z" fill="#FFF" fill-rule="nonzero"/></g></svg>