<svg xmlns="http://www.w3.org/2000/svg" xmlns:xlink="http://www.w3.org/1999/xlink" width="815" height="514" viewBox="0 0 815 514"><defs><filter id="k" width="104%" height="106.4%" x="-2%" y="-2.3%" filterUnits="objectBoundingBox"><feOffset dy="2" in="SourceAlpha" result="shadowOffsetOuter1"/><feGaussianBlur stdDeviation="2" in="shadowOffsetOuter1" result="shadowBlurOuter1"/><feColorMatrix values="0 0 0 0 0.908056973 0 0 0 0 0.908056973 0 0 0 0 0.908056973 0 0 0 0.5 0" in="shadowBlurOuter1"/></filter><filter id="c" width="106.1%" height="106.1%" x="-3%" y="-2.2%" filterUnits="objectBoundingBox"><feOffset dy="2" in="SourceAlpha" result="shadowOffsetOuter1"/><feGaussianBlur stdDeviation="2" in="shadowOffsetOuter1" result="shadowBlurOuter1"/><feColorMatrix values="0 0 0 0 0.908056973 0 0 0 0 0.908056973 0 0 0 0 0.908056973 0 0 0 0.5 0" in="shadowBlurOuter1"/></filter><filter id="e" width="104%" height="106.4%" x="-2%" y="-2.3%" filterUnits="objectBoundingBox"><feOffset dy="2" in="SourceAlpha" result="shadowOffsetOuter1"/><feGaussianBlur stdDeviation="2" in="shadowOffsetOuter1" result="shadowBlurOuter1"/><feColorMatrix values="0 0 0 0 0.908056973 0 0 0 0 0.908056973 0 0 0 0 0.908056973 0 0 0 0.5 0" in="shadowBlurOuter1"/></filter><filter id="g" width="106.1%" height="106.1%" x="-3%" y="-2.2%" filterUnits="objectBoundingBox"><feOffset dy="2" in="SourceAlpha" result="shadowOffsetOuter1"/><feGaussianBlur stdDeviation="2" in="shadowOffsetOuter1" result="shadowBlurOuter1"/><feColorMatrix values="0 0 0 0 0.908056973 0 0 0 0 0.908056973 0 0 0 0 0.908056973 0 0 0 0.5 0" in="shadowBlurOuter1"/></filter><filter id="i" width="106.1%" height="106.1%" x="-3%" y="-2.2%" filterUnits="objectBoundingBox"><feOffset dy="2" in="SourceAlpha" result="shadowOffsetOuter1"/><feGaussianBlur stdDeviation="2" in="shadowOffsetOuter1" result="shadowBlurOuter1"/><feColorMatrix values="0 0 0 0 0.908056973 0 0 0 0 0.908056973 0 0 0 0 0.908056973 0 0 0 0.5 0" in="shadowBlurOuter1"/></filter><rect id="d" width="231" height="230" rx="2"/><rect id="f" width="352" height="220" rx="2"/><rect id="j" width="231" height="230" rx="2"/><rect id="h" width="231" height="230" rx="2"/><rect id="l" width="352" height="220" rx="2"/><path id="a" d="M0 0h815v514H0z"/></defs><g fill="none" fill-rule="evenodd"><mask id="b" fill="#fff"><use xlink:href="#a"/></mask><use fill="#F7FAFC" xlink:href="#a"/><path fill="#30405C" d="M368.35 57V46.5h3.915c3.3 0 5.58 2.265 5.58 5.22v.03c0 2.955-2.28 5.25-5.58 5.25h-3.915zm1.845-1.68h2.07c2.205 0 3.645-1.485 3.645-3.54v-.03c0-2.055-1.44-3.57-3.645-3.57h-2.07v7.14zm16.12 1.68h-1.8v-.975c-.54.645-1.365 1.14-2.565 1.14-1.5 0-2.82-.855-2.82-2.445v-.03c0-1.755 1.365-2.595 3.21-2.595.96 0 1.575.135 2.19.33v-.15c0-1.095-.69-1.695-1.95-1.695-.885 0-1.545.195-2.265.495l-.495-1.455c.87-.39 1.725-.66 3.015-.66 2.34 0 3.48 1.23 3.48 3.345V57zm-1.755-2.865v-.45a5.185 5.185 0 00-1.815-.315c-1.14 0-1.815.465-1.815 1.23v.03c0 .75.675 1.17 1.53 1.17 1.2 0 2.1-.675 2.1-1.665zm6.43 3.015c1.65 0 2.94-.825 2.94-2.49v-.03c0-1.425-1.305-1.95-2.46-2.31-.93-.3-1.785-.54-1.785-1.11v-.03c0-.465.405-.795 1.11-.795.66 0 1.47.285 2.235.75l.72-1.29c-.84-.555-1.92-.9-2.91-.9-1.575 0-2.82.915-2.82 2.415v.03c0 1.515 1.305 1.995 2.475 2.325.93.285 1.77.495 1.77 1.11v.03c0 .525-.45.855-1.23.855-.81 0-1.74-.33-2.595-.975l-.81 1.23c.99.78 2.235 1.185 3.36 1.185zm4.585-.15h1.815v-4.47c0-1.23.735-1.965 1.785-1.965 1.08 0 1.695.705 1.695 1.935V57h1.815v-5.04c0-1.845-1.035-3.045-2.82-3.045-1.23 0-1.965.645-2.475 1.395v-4.26h-1.815V57zm13.6.165c-1.305 0-2.13-.66-2.685-1.395V57h-1.815V46.05h1.815v4.35c.585-.825 1.41-1.485 2.685-1.485 1.875 0 3.69 1.485 3.69 4.11v.03c0 2.625-1.8 4.11-3.69 4.11zm-.42-1.575c1.245 0 2.265-.975 2.265-2.535v-.03c0-1.53-1.035-2.535-2.265-2.535-1.23 0-2.31 1.02-2.31 2.535v.03c0 1.53 1.08 2.535 2.31 2.535zm9.535 1.59c-2.415 0-4.2-1.845-4.2-4.095v-.03c0-2.265 1.8-4.14 4.23-4.14 2.43 0 4.215 1.845 4.215 4.11v.03c0 2.25-1.8 4.125-4.245 4.125zm.03-1.575c1.47 0 2.4-1.155 2.4-2.52v-.03c0-1.395-1.005-2.55-2.43-2.55-1.455 0-2.385 1.14-2.385 2.52v.03c0 1.38 1.005 2.55 2.415 2.55zM430.825 57h-1.8v-.975c-.54.645-1.365 1.14-2.565 1.14-1.5 0-2.82-.855-2.82-2.445v-.03c0-1.755 1.365-2.595 3.21-2.595.96 0 1.575.135 2.19.33v-.15c0-1.095-.69-1.695-1.95-1.695-.885 0-1.545.195-2.265.495l-.495-1.455c.87-.39 1.725-.66 3.015-.66 2.34 0 3.48 1.23 3.48 3.345V57zm-1.755-2.865v-.45a5.185 5.185 0 00-1.815-.315c-1.14 0-1.815.465-1.815 1.23v.03c0 .75.675 1.17 1.53 1.17 1.2 0 2.1-.675 2.1-1.665zM432.785 57h1.815v-3.015c0-2.1 1.11-3.135 2.7-3.135h.105v-1.92c-1.395-.06-2.31.75-2.805 1.935V49.08h-1.815V57zm9.04.165c-1.86 0-3.675-1.485-3.675-4.11v-.03c0-2.625 1.785-4.11 3.675-4.11 1.305 0 2.13.66 2.7 1.395v-4.26h1.815V57h-1.815v-1.32c-.585.825-1.41 1.485-2.7 1.485zm.435-1.575c1.215 0 2.295-1.02 2.295-2.535v-.03c0-1.53-1.08-2.535-2.295-2.535-1.245 0-2.28.96-2.28 2.535v.03c0 1.53 1.05 2.535 2.28 2.535z" mask="url(#b)"/><g transform="translate(51 309)" mask="url(#b)"><use fill="#000" filter="url(#c)" xlink:href="#d"/><use fill="#FFF" xlink:href="#d"/><path fill="#30405C" d="M30.3 38l3.08-7.05h1.14L37.6 38h-1.3l-.71-1.69h-3.31L31.56 38H30.3zm2.43-2.78h2.41l-1.21-2.8-1.2 2.8zm9.1 2.88c1.47 0 2.5-.78 2.5-2.09v-.02c0-1.16-.77-1.69-2.25-2.05-1.34-.32-1.66-.56-1.66-1.1v-.02c0-.46.42-.83 1.14-.83.64 0 1.27.25 1.9.72l.66-.93c-.71-.57-1.52-.88-2.54-.88-1.39 0-2.39.83-2.39 2.03v.02c0 1.29.84 1.73 2.33 2.09 1.3.3 1.58.57 1.58 1.07v.02c0 .53-.48.88-1.24.88-.87 0-1.54-.33-2.21-.91l-.74.88c.84.75 1.85 1.12 2.92 1.12zm7 0c1.47 0 2.5-.78 2.5-2.09v-.02c0-1.16-.77-1.69-2.25-2.05-1.34-.32-1.66-.56-1.66-1.1v-.02c0-.46.42-.83 1.14-.83.64 0 1.27.25 1.9.72l.66-.93c-.71-.57-1.52-.88-2.54-.88-1.39 0-2.39.83-2.39 2.03v.02c0 1.29.84 1.73 2.33 2.09 1.3.3 1.58.57 1.58 1.07v.02c0 .53-.48.88-1.24.88-.87 0-1.54-.33-2.21-.91l-.74.88c.84.75 1.85 1.12 2.92 1.12zm4.65-.1h5.24v-1.1h-4.01v-1.88h3.51v-1.1h-3.51V32.1h3.96V31h-5.19v7zm9.12 0h1.24v-5.86h2.22V31h-5.68v1.14h2.22V38zm7.76.1c1.47 0 2.5-.78 2.5-2.09v-.02c0-1.16-.77-1.69-2.25-2.05-1.34-.32-1.66-.56-1.66-1.1v-.02c0-.46.42-.83 1.14-.83.64 0 1.27.25 1.9.72l.66-.93c-.71-.57-1.52-.88-2.54-.88-1.39 0-2.39.83-2.39 2.03v.02c0 1.29.84 1.73 2.33 2.09 1.3.3 1.58.57 1.58 1.07v.02c0 .53-.48.88-1.24.88-.87 0-1.54-.33-2.21-.91l-.74.88c.84.75 1.85 1.12 2.92 1.12zm10.25-.05L78.17 31h1.33l1.67 5.19 1.72-5.21h1.04l1.72 5.21L87.32 31h1.29l-2.44 7.05h-1.06l-1.72-5.03-1.72 5.03h-1.06zm7.81 1.23l4.52-9.26h1.05l-4.52 9.26h-1.05zM98.58 38l3.08-7.05h1.14l3.08 7.05h-1.3l-.71-1.69h-3.31L99.84 38h-1.26zm2.43-2.78h2.41l-1.21-2.8-1.2 2.8zm9.59 2.9c1.31 0 2.11-.48 2.84-1.24l-.79-.8c-.6.56-1.15.91-2.01.91-1.34 0-2.31-1.12-2.31-2.49v-.02c0-1.37.97-2.47 2.31-2.47.8 0 1.4.35 1.96.87l.79-.91c-.67-.64-1.45-1.09-2.74-1.09-2.12 0-3.61 1.63-3.61 3.62v.02c0 2.01 1.52 3.6 3.56 3.6zm6.55-.12h1.24v-5.86h2.22V31h-5.68v1.14h2.22V38zm5.53 0h1.23v-7h-1.23v7zm6.11.05h1.08l2.91-7.05h-1.33l-2.1 5.38-2.11-5.38h-1.36l2.91 7.05zm5.89-.05h5.24v-1.1h-4.01v-1.88h3.51v-1.1h-3.51V32.1h3.96V31h-5.19v7zm13.81.12c-1.84 0-3.04-1.6-3.04-3.6v-.02c0-2 1.22-3.62 3.06-3.62 1.83 0 3.04 1.6 3.04 3.6v.02c0 2-1.22 3.62-3.06 3.62zm.02-1.11c1.09 0 1.77-1.11 1.77-2.49v-.02c0-1.38-.71-2.51-1.79-2.51s-1.77 1.1-1.77 2.49v.02c0 1.38.7 2.51 1.79 2.51zm8.91.99v-7h2.61c2.2 0 3.72 1.51 3.72 3.48v.02c0 1.97-1.52 3.5-3.72 3.5h-2.61zm1.23-1.12h1.38c1.47 0 2.43-.99 2.43-2.36v-.02c0-1.37-.96-2.38-2.43-2.38h-1.38v4.76zm6.21 1.12l3.08-7.05h1.14l3.08 7.05h-1.3l-.71-1.69h-3.31l-.72 1.69h-1.26zm2.43-2.78h2.41l-1.21-2.8-1.2 2.8zm7.73 2.78h1.24v-2.79l2.78-4.21h-1.41l-1.98 3.1-1.96-3.1h-1.45l2.78 4.24V38z"/><rect width="7" height="7" x="30" y="59" fill="#FF6E47" rx="3.5"/><rect width="7" height="7" x="30" y="79" fill="#BDD6E9" rx="3.5"/><rect width="7" height="7" x="30" y="99" fill="#FF6E47" rx="3.5"/><rect width="7" height="7" x="30" y="159" fill="#FF6E47" rx="3.5"/><rect width="7" height="7" x="30" y="119" fill="#BDD6E9" rx="3.5"/><rect width="7" height="7" x="30" y="179" fill="#BDD6E9" rx="3.5"/><rect width="7" height="7" x="30" y="139" fill="#BDD6E9" rx="3.5"/><rect width="7" height="7" x="30" y="199" fill="#BDD6E9" rx="3.5"/><path fill="#E5E7EB" d="M50 60h80v5H50zm121 0h30v5h-30zm0 20h30v5h-30zm0 20h30v5h-30zm0 20h30v5h-30zm0 20h30v5h-30zm0 20h30v5h-30zm0 20h30v5h-30zm0 20h30v5h-30zM50 80h90v5H50zm0 20h80v5H50zm0 20h90v5H50zm0 40h90v5H50zm0 20h80v5H50zm0 20h80v5H50zm0-60h80v5H50z"/></g><g mask="url(#b)"><g transform="translate(50 79)"><use fill="#000" filter="url(#e)" xlink:href="#f"/><use fill="#FFF" xlink:href="#f"/></g><g transform="translate(80 139)"><path fill="#E5E7EB" d="M50 0h165v5H50zm212 0h30v5h-30z"/><rect width="30" height="5" fill="#FF6E47" rx="1"/><rect width="30" height="5" y="30" fill="#FF6E47" rx="1"/><rect width="30" height="5" y="60" fill="#FF6E47" rx="1"/><rect width="30" height="5" y="90" fill="#FF6E47" rx="1"/><rect width="30" height="5" y="120" fill="#FF6E47" rx="1"/><path fill="#E5E7EB" d="M50 30h180v5H50zm212 0h30v5h-30zM50 60h165v5H50zm212 0h30v5h-30zM50 90h180v5H50zm212 0h30v5h-30zM50 120h165v5H50zm212 0h30v5h-30z"/></g><path fill="#30405C" d="M80.9 117h4.91v-1.12h-3.68V110H80.9v7zm6.29 0l3.08-7.05h1.14l3.08 7.05h-1.3l-.71-1.69h-3.31l-.72 1.69h-1.26zm2.43-2.78h2.41l-1.21-2.8-1.2 2.8zm7.59 2.78h1.24v-5.86h2.22V110h-5.68v1.14h2.22V117zm5.46 0h5.24v-1.1h-4.01v-1.88h3.51v-1.1h-3.51v-1.82h3.96V110h-5.19v7zm9.85.1c1.47 0 2.5-.78 2.5-2.09v-.02c0-1.16-.77-1.69-2.25-2.05-1.34-.32-1.66-.56-1.66-1.1v-.02c0-.46.42-.83 1.14-.83.64 0 1.27.25 1.9.72l.66-.93c-.71-.57-1.52-.88-2.54-.88-1.39 0-2.39.83-2.39 2.03v.02c0 1.29.84 1.73 2.33 2.09 1.3.3 1.58.57 1.58 1.07v.02c0 .53-.48.88-1.24.88-.87 0-1.54-.33-2.21-.91l-.74.88c.84.75 1.85 1.12 2.92 1.12zm6.22-.1h1.24v-5.86h2.22V110h-5.68v1.14h2.22V117zm10.88 0h1.24v-5.86h2.22V110h-5.68v1.14h2.22V117zm5.46 0h1.23v-2.95h3.34V117h1.23v-7h-1.23v2.91h-3.34V110h-1.23v7zm8.3 0v-7h3.12c.88 0 1.57.26 2.02.7.37.38.58.9.58 1.51v.02c0 1.15-.69 1.84-1.67 2.12l1.89 2.65h-1.45l-1.72-2.44h-1.54V117h-1.23zm1.23-3.53h1.8c.88 0 1.44-.46 1.44-1.17v-.02c0-.75-.54-1.16-1.45-1.16h-1.79v2.35zm6.7 3.53h5.24v-1.1h-4.01v-1.88h3.51v-1.1h-3.51v-1.82h3.96V110h-5.19v7zm6.8 0l3.08-7.05h1.14l3.08 7.05h-1.3l-.71-1.69h-3.31l-.72 1.69h-1.26zm2.43-2.78h2.41l-1.21-2.8-1.2 2.8zm7.59 2.78h1.24v-5.86h2.22V110h-5.68v1.14h2.22V117zm7.76.1c1.47 0 2.5-.78 2.5-2.09v-.02c0-1.16-.77-1.69-2.25-2.05-1.34-.32-1.66-.56-1.66-1.1v-.02c0-.46.42-.83 1.14-.83.64 0 1.27.25 1.9.72l.66-.93c-.71-.57-1.52-.88-2.54-.88-1.39 0-2.39.83-2.39 2.03v.02c0 1.29.84 1.73 2.33 2.09 1.3.3 1.58.57 1.58 1.07v.02c0 .53-.48.88-1.24.88-.87 0-1.54-.33-2.21-.91l-.74.88c.84.75 1.85 1.12 2.92 1.12zm8.35-.1h1.23v-2.85H189v-1.12h-3.53v-1.91h3.98V110h-5.21v7zm7.26 0v-7h3.12c.88 0 1.57.26 2.02.7.37.38.58.9.58 1.51v.02c0 1.15-.69 1.84-1.67 2.12l1.89 2.65h-1.45l-1.72-2.44h-1.54V117h-1.23zm1.23-3.53h1.8c.88 0 1.44-.46 1.44-1.17v-.02c0-.75-.54-1.16-1.45-1.16h-1.79v2.35zm10.04 3.65c-2.15 0-3.65-1.63-3.65-3.6v-.02c0-1.97 1.52-3.62 3.67-3.62s3.65 1.63 3.65 3.6v.02c0 1.97-1.52 3.62-3.67 3.62zm.02-1.13c1.39 0 2.36-1.11 2.36-2.47v-.02c0-1.36-.99-2.49-2.38-2.49s-2.36 1.11-2.36 2.47v.02c0 1.36.99 2.49 2.38 2.49zm5.84 1.01h1.21v-5l2.19 3.28h.04l2.21-3.3V117h1.23v-7h-1.31l-2.13 3.31-2.13-3.31h-1.31v7zm13.08 0h4.91v-1.12h-3.68V110h-1.23v7zm6.96 0h1.23v-7h-1.23v7zm6.11.05h1.08l2.91-7.05h-1.33l-2.1 5.38-2.11-5.38h-1.36l2.91 7.05zm5.89-.05h5.24v-1.1h-4.01v-1.88h3.51v-1.1h-3.51v-1.82h3.96V110h-5.19v7zm11.1 0H253v-2.85h3.53v-1.12H253v-1.91h3.98V110h-5.21v7zm7.26 0h5.24v-1.1h-4.01v-1.88h3.51v-1.1h-3.51v-1.82h3.96V110h-5.19v7zm7.4 0h5.24v-1.1h-4.01v-1.88h3.51v-1.1h-3.51v-1.82h3.96V110h-5.19v7zm7.4 0v-7h2.61c2.2 0 3.72 1.51 3.72 3.48v.02c0 1.97-1.52 3.5-3.72 3.5h-2.61zm1.23-1.12h1.38c1.47 0 2.43-.99 2.43-2.36v-.02c0-1.37-.96-2.38-2.43-2.38h-1.38v4.76z"/></g><g mask="url(#b)"><g transform="translate(533 309)"><use fill="#000" filter="url(#g)" xlink:href="#h"/><use fill="#FFF" xlink:href="#h"/></g><path stroke="#348DDD" stroke-width="2" d="M563 464h25.72c11.038 0 11.072 13 20.727 13h16.743c7.882 0 7.56-9 17.005-9h19.638c13.355 0 15.155-19 28.466-19H734"/><path fill="#348DDD" fill-opacity=".15" d="M563 464h25.72c11.038 0 11.072 13 20.727 13h16.743c7.882 0 7.56-9 17.005-9h19.638c13.355 0 15.155-19 28.466-19H734v46H563v-31z"/><path fill="#E5E7EB" d="M563 506h10v5h-10zm161 0h10v5h-10zm-161-11h171v1H563zm151-79h20v5h-20zm-13 0h8l-4 7"/><path fill="#30405C" d="M563.3 347l3.08-7.05h1.14l3.08 7.05h-1.3l-.71-1.69h-3.31l-.72 1.69h-1.26zm2.43-2.78h2.41l-1.21-2.8-1.2 2.8zm9.1 2.88c1.47 0 2.5-.78 2.5-2.09v-.02c0-1.16-.77-1.69-2.25-2.05-1.34-.32-1.66-.56-1.66-1.1v-.02c0-.46.42-.83 1.14-.83.64 0 1.27.25 1.9.72l.66-.93c-.71-.57-1.52-.88-2.54-.88-1.39 0-2.39.83-2.39 2.03v.02c0 1.29.84 1.73 2.33 2.09 1.3.3 1.58.57 1.58 1.07v.02c0 .53-.48.88-1.24.88-.87 0-1.54-.33-2.21-.91l-.74.88c.84.75 1.85 1.12 2.92 1.12zm7 0c1.47 0 2.5-.78 2.5-2.09v-.02c0-1.16-.77-1.69-2.25-2.05-1.34-.32-1.66-.56-1.66-1.1v-.02c0-.46.42-.83 1.14-.83.64 0 1.27.25 1.9.72l.66-.93c-.71-.57-1.52-.88-2.54-.88-1.39 0-2.39.83-2.39 2.03v.02c0 1.29.84 1.73 2.33 2.09 1.3.3 1.58.57 1.58 1.07v.02c0 .53-.48.88-1.24.88-.87 0-1.54-.33-2.21-.91l-.74.88c.84.75 1.85 1.12 2.92 1.12zm4.65-.1h5.24v-1.1h-4.01v-1.88h3.51v-1.1h-3.51v-1.82h3.96V340h-5.19v7zm9.12 0h1.24v-5.86h2.22V340h-5.68v1.14h2.22V347zm7.76.1c1.47 0 2.5-.78 2.5-2.09v-.02c0-1.16-.77-1.69-2.25-2.05-1.34-.32-1.66-.56-1.66-1.1v-.02c0-.46.42-.83 1.14-.83.64 0 1.27.25 1.9.72l.66-.93c-.71-.57-1.52-.88-2.54-.88-1.39 0-2.39.83-2.39 2.03v.02c0 1.29.84 1.73 2.33 2.09 1.3.3 1.58.57 1.58 1.07v.02c0 .53-.48.88-1.24.88-.87 0-1.54-.33-2.21-.91l-.74.88c.84.75 1.85 1.12 2.92 1.12zm10.25-.05h1.06l1.72-5.03 1.72 5.03h1.06l2.44-7.05h-1.29l-1.67 5.19-1.72-5.21h-1.04l-1.72 5.21-1.67-5.19h-1.33l2.44 7.05zm10.03-.05h1.23v-7h-1.23v7zm5.52 0h1.24v-5.86h2.22V340h-5.68v1.14h2.22V347zm5.46 0h1.23v-2.95h3.34V347h1.23v-7h-1.23v2.91h-3.34V340h-1.23v7zm12 0v-7h2.76c1.63 0 2.66.93 2.66 2.34v.02c0 1.57-1.26 2.39-2.8 2.39h-1.39V347h-1.23zm1.23-3.36h1.43c.93 0 1.51-.52 1.51-1.25v-.02c0-.82-.59-1.25-1.51-1.25h-1.43v2.52zm9.02 3.47c1.83 0 3.01-1.05 3.01-3.14V340h-1.23v4.03c0 1.29-.67 1.95-1.76 1.95-1.1 0-1.77-.7-1.77-2V340h-1.23v4.03c0 2.03 1.16 3.08 2.98 3.08zm5.4-.11v-7h3.14c.8 0 1.43.22 1.83.62.31.31.47.69.47 1.16v.02c0 .84-.48 1.29-1 1.56.82.28 1.39.75 1.39 1.7v.02c0 1.25-1.03 1.92-2.59 1.92h-3.24zm1.21-4.05h1.68c.79 0 1.32-.31 1.32-.95v-.02c0-.55-.44-.89-1.23-.89h-1.77v1.86zm0 2.96h2.04c.84 0 1.35-.33 1.35-.96v-.02c0-.59-.47-.94-1.44-.94h-1.95v1.92zm6.71 1.09h4.91v-1.12h-3.68V340h-1.23v7zm6.96 0h1.23v-7h-1.23v7zm7.05.12c1.31 0 2.11-.48 2.84-1.24l-.79-.8c-.6.56-1.15.91-2.01.91-1.34 0-2.31-1.12-2.31-2.49v-.02c0-1.37.97-2.47 2.31-2.47.8 0 1.4.35 1.96.87l.79-.91c-.67-.64-1.45-1.09-2.74-1.09-2.12 0-3.61 1.63-3.61 3.62v.02c0 2.01 1.52 3.6 3.56 3.6zM563.9 362h5.24v-1.1h-4.01v-1.88h3.51v-1.1h-3.51v-1.82h3.96V355h-5.19v7zm6.87 0h1.41l1.85-2.65 1.84 2.65h1.45l-2.54-3.58 2.44-3.42h-1.41l-1.75 2.51-1.74-2.51h-1.45l2.45 3.44-2.55 3.56zm8.52 0v-7h2.76c1.63 0 2.66.93 2.66 2.34v.02c0 1.57-1.26 2.39-2.8 2.39h-1.39V362h-1.23zm1.23-3.36h1.43c.93 0 1.51-.52 1.51-1.25v-.02c0-.82-.59-1.25-1.51-1.25h-1.43v2.52zm6.15 3.36h4.91v-1.12h-3.68V355h-1.23v7zm9.83.12c-2.15 0-3.65-1.63-3.65-3.6v-.02c0-1.97 1.52-3.62 3.67-3.62s3.65 1.63 3.65 3.6v.02c0 1.97-1.52 3.62-3.67 3.62zm.02-1.13c1.39 0 2.36-1.11 2.36-2.47v-.02c0-1.36-.99-2.49-2.38-2.49s-2.36 1.11-2.36 2.47v.02c0 1.36.99 2.49 2.38 2.49zm5.91 1.01h1.23v-7h-1.23v7zm5.52 0h1.24v-5.86h2.22V355h-5.68v1.14h2.22V362zm8.56 0l3.08-7.05h1.14l3.08 7.05h-1.3l-.71-1.69h-3.31l-.72 1.69h-1.26zm2.43-2.78h2.41l-1.21-2.8-1.2 2.8zm8.08 2.83h1.08l2.91-7.05h-1.33l-2.1 5.38-2.11-5.38h-1.36l2.91 7.05zm4.29-.05l3.08-7.05h1.14l3.08 7.05h-1.3l-.71-1.69h-3.31l-.72 1.69h-1.26zm2.43-2.78h2.41l-1.21-2.8-1.2 2.8zm6.84 2.78h1.23v-7h-1.23v7zm3.8 0h4.91v-1.12h-3.68V355h-1.23v7zm6.29 0l3.08-7.05h1.14l3.08 7.05h-1.3l-.71-1.69h-3.31l-.72 1.69h-1.26zm2.43-2.78h2.41l-1.21-2.8-1.2 2.8zm6.77 2.78v-7h3.14c.8 0 1.43.22 1.83.62.31.31.47.69.47 1.16v.02c0 .84-.48 1.29-1 1.56.82.28 1.39.75 1.39 1.7v.02c0 1.25-1.03 1.92-2.59 1.92h-3.24zm1.21-4.05h1.68c.79 0 1.32-.31 1.32-.95v-.02c0-.55-.44-.89-1.23-.89h-1.77v1.86zm0 2.96h2.04c.84 0 1.35-.33 1.35-.96v-.02c0-.59-.47-.94-1.44-.94h-1.95v1.92zm6.71 1.09h4.91v-1.12h-3.68V355h-1.23v7zm6.89 0h5.24v-1.1h-4.01v-1.88h3.51v-1.1h-3.51v-1.82h3.96V355h-5.19v7z"/><path fill="#BDD6E9" d="M571.95 421h2.55v-35.25h-2l-8 2.95.7 2.05 6.75-2.3V421zm10.05 5.35c3-1.15 4.15-2.8 4.15-5.9v-3.7h-3.3V421h1.35c.15 1.9-.65 3-2.8 4.1l.6 1.25zm23.95-4.75c-8.9 0-14.45-8.35-14.45-18v-.1c0-9.65 5.65-18.1 14.55-18.1s14.45 8.35 14.45 18v.1c0 9.65-5.65 18.1-14.55 18.1zm.1-2.35c7.25 0 11.75-7.55 11.75-15.65v-.1c0-8.15-4.6-15.75-11.85-15.75s-11.75 7.5-11.75 15.65v.1c0 8.1 4.6 15.75 11.85 15.75zm23 1.75h2.85l15.95-33.1V386h-23.2v2.5h20.3l-15.9 32.5zm37.25.6c-8.9 0-14.45-8.35-14.45-18v-.1c0-9.65 5.65-18.1 14.55-18.1s14.45 8.35 14.45 18v.1c0 9.65-5.65 18.1-14.55 18.1zm.1-2.35c7.25 0 11.75-7.55 11.75-15.65v-.1c0-8.15-4.6-15.75-11.85-15.75s-11.75 7.5-11.75 15.65v.1c0 8.1 4.6 15.75 11.85 15.75z"/></g><g mask="url(#b)"><g transform="translate(292 309)"><use fill="#000" filter="url(#i)" xlink:href="#j"/><use fill="#FFF" xlink:href="#j"/></g><path stroke="#2FACE1" stroke-width="2" d="M322 448h31c12.397 0 8.388 18 21 18h25c9.426 0 5.252 14 15 14h37c3.633 0 .63 3 4 3h38"/><path fill="#2FACE1" fill-opacity=".15" d="M322 448h31c12.397 0 8.388 18 21 18h25c9.426 0 5.252 14 15 14h37c3.633 0 .63 3 4 3h38v12.193L322 495s-.007-24.316 0-47z"/><path fill="#E5E7EB" d="M473 416h20v5h-20zm-151 90h10v5h-10zm161 0h10v5h-10zm-23-90h8l-4 7m-142 72h171v1H322z"/><path fill="#BDD6E9" d="M324.4 421h23.9v-2.5h-19.8l10.7-9.7c6.15-5.6 8.75-8.8 8.75-13.6v-.1c0-5.45-4.45-9.6-10.4-9.6-6.15 0-9.4 2.85-12.45 7.5l1.95 1.3c2.9-4.2 5.8-6.5 10.25-6.5 4.2 0 7.9 2.95 7.9 7.5 0 3.7-2 6.7-7.75 11.95l-13.05 11.8V421zm48.35 0v-8.55H353.8l-.9-1.95 20-24.75h2.35v24.45h5.7v2.25h-5.7V421h-2.5zm-16.7-10.8h16.7v-20.7l-16.7 20.7z"/><path fill="#30405C" d="M322.3 347l3.08-7.05h1.14l3.08 7.05h-1.3l-.71-1.69h-3.31l-.72 1.69h-1.26zm2.43-2.78h2.41l-1.21-2.8-1.2 2.8zm9.1 2.88c1.47 0 2.5-.78 2.5-2.09v-.02c0-1.16-.77-1.69-2.25-2.05-1.34-.32-1.66-.56-1.66-1.1v-.02c0-.46.42-.83 1.14-.83.64 0 1.27.25 1.9.72l.66-.93c-.71-.57-1.52-.88-2.54-.88-1.39 0-2.39.83-2.39 2.03v.02c0 1.29.84 1.73 2.33 2.09 1.3.3 1.58.57 1.58 1.07v.02c0 .53-.48.88-1.24.88-.87 0-1.54-.33-2.21-.91l-.74.88c.84.75 1.85 1.12 2.92 1.12zm7 0c1.47 0 2.5-.78 2.5-2.09v-.02c0-1.16-.77-1.69-2.25-2.05-1.34-.32-1.66-.56-1.66-1.1v-.02c0-.46.42-.83 1.14-.83.64 0 1.27.25 1.9.72l.66-.93c-.71-.57-1.52-.88-2.54-.88-1.39 0-2.39.83-2.39 2.03v.02c0 1.29.84 1.73 2.33 2.09 1.3.3 1.58.57 1.58 1.07v.02c0 .53-.48.88-1.24.88-.87 0-1.54-.33-2.21-.91l-.74.88c.84.75 1.85 1.12 2.92 1.12zm4.65-.1h5.24v-1.1h-4.01v-1.88h3.51v-1.1h-3.51v-1.82h3.96V340h-5.19v7zm9.12 0h1.24v-5.86h2.22V340h-5.68v1.14h2.22V347zm7.76.1c1.47 0 2.5-.78 2.5-2.09v-.02c0-1.16-.77-1.69-2.25-2.05-1.34-.32-1.66-.56-1.66-1.1v-.02c0-.46.42-.83 1.14-.83.64 0 1.27.25 1.9.72l.66-.93c-.71-.57-1.52-.88-2.54-.88-1.39 0-2.39.83-2.39 2.03v.02c0 1.29.84 1.73 2.33 2.09 1.3.3 1.58.57 1.58 1.07v.02c0 .53-.48.88-1.24.88-.87 0-1.54-.33-2.21-.91l-.74.88c.84.75 1.85 1.12 2.92 1.12zm10.25-.05h1.06l1.72-5.03 1.72 5.03h1.06l2.44-7.05h-1.29l-1.67 5.19-1.72-5.21h-1.04l-1.72 5.21-1.67-5.19h-1.33l2.44 7.05zm10.03-.05h1.23v-7h-1.23v7zm5.52 0h1.24v-5.86h2.22V340h-5.68v1.14h2.22V347zm5.46 0h1.23v-2.95h3.34V347h1.23v-7h-1.23v2.91h-3.34V340h-1.23v7zm11.4 0l3.08-7.05h1.14l3.08 7.05h-1.3l-.71-1.69H407l-.72 1.69h-1.26zm2.43-2.78h2.41l-1.21-2.8-1.2 2.8zm6.77 2.78h1.21v-4.98l3.86 4.98h1.03v-7h-1.21v4.84l-3.75-4.84h-1.14v7zm11.92.12c1.24 0 2.23-.5 2.92-1.09v-2.94h-2.98v1.07h1.79v1.31c-.43.32-1.03.53-1.69.53-1.43 0-2.38-1.06-2.38-2.5v-.02c0-1.34.98-2.47 2.27-2.47.89 0 1.42.29 1.96.75l.78-.93c-.72-.61-1.47-.95-2.69-.95-2.11 0-3.61 1.66-3.61 3.62v.02c0 2.04 1.44 3.6 3.63 3.6zm5.22-.12h4.91v-1.12h-3.68V340h-1.23v7zm6.89 0h5.24v-1.1h-4.01v-1.88h3.51v-1.1h-3.51v-1.82h3.96V340h-5.19v7zm7.4 0v-7h3.12c.88 0 1.57.26 2.02.7.37.38.58.9.58 1.51v.02c0 1.15-.69 1.84-1.67 2.12l1.89 2.65h-1.45l-1.72-2.44h-1.54V347h-1.23zm1.23-3.53h1.8c.88 0 1.44-.46 1.44-1.17v-.02c0-.75-.54-1.16-1.45-1.16h-1.79v2.35zM322.9 362h5.24v-1.1h-4.01v-1.88h3.51v-1.1h-3.51v-1.82h3.96V355h-5.19v7zm6.87 0h1.41l1.85-2.65 1.84 2.65h1.45l-2.54-3.58 2.44-3.42h-1.41l-1.75 2.51-1.74-2.51h-1.45l2.45 3.44-2.55 3.56zm8.52 0v-7h2.76c1.63 0 2.66.93 2.66 2.34v.02c0 1.57-1.26 2.39-2.8 2.39h-1.39V362h-1.23zm1.23-3.36h1.43c.93 0 1.51-.52 1.51-1.25v-.02c0-.82-.59-1.25-1.51-1.25h-1.43v2.52zm6.15 3.36h4.91v-1.12h-3.68V355h-1.23v7zm9.83.12c-2.15 0-3.65-1.63-3.65-3.6v-.02c0-1.97 1.52-3.62 3.67-3.62s3.65 1.63 3.65 3.6v.02c0 1.97-1.52 3.62-3.67 3.62zm.02-1.13c1.39 0 2.36-1.11 2.36-2.47v-.02c0-1.36-.99-2.49-2.38-2.49s-2.36 1.11-2.36 2.47v.02c0 1.36.99 2.49 2.38 2.49zm5.91 1.01h1.23v-7h-1.23v7zm5.52 0h1.24v-5.86h2.22V355h-5.68v1.14h2.22V362zm3.96 0l3.08-7.05h1.14l3.08 7.05h-1.3l-.71-1.69h-3.31l-.72 1.69h-1.26zm2.43-2.78h2.41l-1.21-2.8-1.2 2.8zm6.77 2.78v-7h3.14c.8 0 1.43.22 1.83.62.31.31.47.69.47 1.16v.02c0 .84-.48 1.29-1 1.56.82.28 1.39.75 1.39 1.7v.02c0 1.25-1.03 1.92-2.59 1.92h-3.24zm1.21-4.05H383c.79 0 1.32-.31 1.32-.95v-.02c0-.55-.44-.89-1.23-.89h-1.77v1.86zm0 2.96h2.04c.84 0 1.35-.33 1.35-.96v-.02c0-.59-.47-.94-1.44-.94h-1.95v1.92zm6.71 1.09h4.91v-1.12h-3.68V355h-1.23v7zm6.89 0h5.24v-1.1h-4.01v-1.88h3.51v-1.1h-3.51v-1.82h3.96V355h-5.19v7zm13.41.05h1.08l2.91-7.05h-1.33l-2.1 5.38-2.11-5.38h-1.36l2.91 7.05zm8.76.06c1.83 0 3.01-1.05 3.01-3.14V355h-1.23v4.03c0 1.29-.67 1.95-1.76 1.95-1.1 0-1.77-.7-1.77-2V355h-1.23v4.03c0 2.03 1.16 3.08 2.98 3.08zm5.4-.11h4.91v-1.12h-3.68V355h-1.23v7zm6.89 0h1.21v-4.98l3.86 4.98h1.03v-7h-1.21v4.84l-3.75-4.84h-1.14v7zm8.38 0h1.33v-1.37h-1.33V362z"/></g><g mask="url(#b)"><g transform="translate(412 79)"><use fill="#000" filter="url(#k)" xlink:href="#l"/><use fill="#FFF" xlink:href="#l"/></g><path fill="#FF9D47" d="M588 154c30.376 0 55 24.624 55 55 0 15.188-6.156 28.938-16.11 38.89L588 209v-55z"/><g transform="translate(523 139)"><circle cx="65" cy="65" r="65" fill="#2FACE1"/><path fill="#348DDD" d="M0 65C0 29.101 29.101 0 65 0v65H0z"/><path fill="#043471" d="M65 0c35.899 0 65 29.101 65 65 0 17.95-7.275 34.2-19.038 45.962L65 65V0z"/><circle cx="65" cy="65" r="45" fill="#FFF"/></g><path fill="#30405C" d="M442.9 117h5.24v-1.1h-4.01v-1.88h3.51v-1.1h-3.51v-1.82h3.96V110h-5.19v7zm6.8 0l3.08-7.05h1.14L457 117h-1.3l-.71-1.69h-3.31l-.72 1.69h-1.26zm2.43-2.78h2.41l-1.21-2.8-1.2 2.8zm9.1 2.88c1.47 0 2.5-.78 2.5-2.09v-.02c0-1.16-.77-1.69-2.25-2.05-1.34-.32-1.66-.56-1.66-1.1v-.02c0-.46.42-.83 1.14-.83.64 0 1.27.25 1.9.72l.66-.93c-.71-.57-1.52-.88-2.54-.88-1.39 0-2.39.83-2.39 2.03v.02c0 1.29.84 1.73 2.33 2.09 1.3.3 1.58.57 1.58 1.07v.02c0 .53-.48.88-1.24.88-.87 0-1.54-.33-2.21-.91l-.74.88c.84.75 1.85 1.12 2.92 1.12zm4.72-.1h1.23v-7h-1.23v7zm3.8 0v-7h1.23v5.88h3.68V117h-4.91zm7.65 0v-2.76l-2.78-4.24h1.45l1.96 3.1 1.98-3.1h1.41l-2.78 4.21V117h-1.24zm9.5 0h5.24v-1.1h-4.01v-1.88h3.51v-1.1h-3.51v-1.82h3.96V110h-5.19v7zm6.87 0h1.41l1.85-2.65 1.84 2.65h1.45l-2.54-3.58 2.44-3.42h-1.41l-1.75 2.51-1.74-2.51h-1.45l2.45 3.44-2.55 3.56zm8.52 0v-7h2.76c1.63 0 2.66.93 2.66 2.34v.02c0 1.57-1.26 2.39-2.8 2.39h-1.39V117h-1.23zm1.23-3.36h1.43c.93 0 1.51-.52 1.51-1.25v-.02c0-.82-.59-1.25-1.51-1.25h-1.43v2.52zm6.15 3.36h4.91v-1.12h-3.68V110h-1.23v7zm9.83.12c-2.15 0-3.65-1.63-3.65-3.6v-.02c0-1.97 1.52-3.62 3.67-3.62s3.65 1.63 3.65 3.6v.02c0 1.97-1.52 3.62-3.67 3.62zm.02-1.13c1.39 0 2.36-1.11 2.36-2.47v-.02c0-1.36-.99-2.49-2.38-2.49s-2.36 1.11-2.36 2.47v.02c0 1.36.99 2.49 2.38 2.49zm5.91 1.01h1.23v-7h-1.23v7zm5.52 0h1.24v-5.86h2.22V110h-5.68v1.14h2.22V117zm3.96 0l3.08-7.05h1.14l3.08 7.05h-1.3l-.71-1.69h-3.31l-.72 1.69h-1.26zm2.43-2.78h2.41l-1.21-2.8-1.2 2.8zm6.77 2.78v-7h3.14c.8 0 1.43.22 1.83.62.31.31.47.69.47 1.16v.02c0 .84-.48 1.29-1 1.56.82.28 1.39.75 1.39 1.7v.02c0 1.25-1.03 1.92-2.59 1.92h-3.24zm1.21-4.05H547c.79 0 1.32-.31 1.32-.95v-.02c0-.55-.44-.89-1.23-.89h-1.77v1.86zm0 2.96h2.04c.84 0 1.35-.33 1.35-.96v-.02c0-.59-.47-.94-1.44-.94h-1.95v1.92zm6.71 1.09h4.91v-1.12h-3.68V110h-1.23v7zm6.89 0h5.24v-1.1h-4.01v-1.88h3.51v-1.1h-3.51v-1.82h3.96V110h-5.19v7z"/><path fill="#E5E7EB" d="M452 154h60v5h-60zm0 10h40v5h-40zm220 5h60v5h-60zm0 10h30v5h-30zm-220 61h60v5h-60zm0 10h40v5h-40z"/></g></g></svg>