<svg xmlns="http://www.w3.org/2000/svg" xmlns:xlink="http://www.w3.org/1999/xlink" width="815" height="514"><defs><path id="a" d="M0 0h815v514H0z"/><rect id="d" width="231" height="230" rx="2"/><filter id="c" width="106.1%" height="106.1%" x="-3%" y="-2.2%" filterUnits="objectBoundingBox"><feOffset dy="2" in="SourceAlpha" result="shadowOffsetOuter1"/><feGaussianBlur in="shadowOffsetOuter1" result="shadowBlurOuter1" stdDeviation="2"/><feColorMatrix in="shadowBlurOuter1" values="0 0 0 0 0.908056973 0 0 0 0 0.908056973 0 0 0 0 0.908056973 0 0 0 0.5 0"/></filter><rect id="f" width="352" height="220" rx="2"/><filter id="e" width="104%" height="106.4%" x="-2%" y="-2.3%" filterUnits="objectBoundingBox"><feOffset dy="2" in="SourceAlpha" result="shadowOffsetOuter1"/><feGaussianBlur in="shadowOffsetOuter1" result="shadowBlurOuter1" stdDeviation="2"/><feColorMatrix in="shadowBlurOuter1" values="0 0 0 0 0.908056973 0 0 0 0 0.908056973 0 0 0 0 0.908056973 0 0 0 0.5 0"/></filter><rect id="h" width="231" height="230" rx="2"/><filter id="g" width="106.1%" height="106.1%" x="-3%" y="-2.2%" filterUnits="objectBoundingBox"><feOffset dy="2" in="SourceAlpha" result="shadowOffsetOuter1"/><feGaussianBlur in="shadowOffsetOuter1" result="shadowBlurOuter1" stdDeviation="2"/><feColorMatrix in="shadowBlurOuter1" values="0 0 0 0 0.908056973 0 0 0 0 0.908056973 0 0 0 0 0.908056973 0 0 0 0.5 0"/></filter><rect id="j" width="231" height="230" rx="2"/><filter id="i" width="106.1%" height="106.1%" x="-3%" y="-2.2%" filterUnits="objectBoundingBox"><feOffset dy="2" in="SourceAlpha" result="shadowOffsetOuter1"/><feGaussianBlur in="shadowOffsetOuter1" result="shadowBlurOuter1" stdDeviation="2"/><feColorMatrix in="shadowBlurOuter1" values="0 0 0 0 0.908056973 0 0 0 0 0.908056973 0 0 0 0 0.908056973 0 0 0 0.5 0"/></filter><rect id="l" width="352" height="220" rx="2"/><filter id="k" width="104%" height="106.4%" x="-2%" y="-2.3%" filterUnits="objectBoundingBox"><feOffset dy="2" in="SourceAlpha" result="shadowOffsetOuter1"/><feGaussianBlur in="shadowOffsetOuter1" result="shadowBlurOuter1" stdDeviation="2"/><feColorMatrix in="shadowBlurOuter1" values="0 0 0 0 0.908056973 0 0 0 0 0.908056973 0 0 0 0 0.908056973 0 0 0 0.5 0"/></filter></defs><g fill="none" fill-rule="evenodd"><mask id="b" fill="#fff"><use xlink:href="#a"/></mask><use fill="#F7FAFC" xlink:href="#a"/><path fill="#30405C" d="M368.35 59V48.5h3.915c3.3 0 5.58 2.265 5.58 5.22v.03c0 2.955-2.28 5.25-5.58 5.25h-3.915zm3.915-8.82h-2.07v7.14h2.07c2.205 0 3.645-1.485 3.645-3.54v-.03c0-2.055-1.44-3.57-3.645-3.57zm9.685 8.985c-1.485 0-2.82-.855-2.82-2.445v-.03c0-1.71 1.35-2.55 3.285-2.55.885 0 1.515.135 2.13.33v-.195c0-1.125-.69-1.725-1.965-1.725-.885 0-1.545.195-2.265.495l-.495-1.425c.885-.39 1.74-.645 3-.645 1.185 0 2.07.315 2.625.885.585.57.855 1.41.855 2.445V59h-1.77v-.99c-.54.645-1.365 1.155-2.58 1.155zm.51-1.32c1.2 0 2.115-.69 2.115-1.695v-.54a5.032 5.032 0 0 0-1.8-.315c-1.17 0-1.86.495-1.86 1.32v.03c0 .765.675 1.2 1.545 1.2zm8.53 1.305a5.47 5.47 0 0 1-3.36-1.185l.81-1.23c.87.645 1.785.975 2.595.975.78 0 1.23-.33 1.23-.855v-.03c0-.615-.84-.825-1.77-1.11-1.17-.33-2.475-.81-2.475-2.31v-.03c0-1.515 1.245-2.43 2.82-2.43.99 0 2.07.345 2.91.9l-.72 1.29c-.765-.465-1.575-.75-2.235-.75-.705 0-1.11.345-1.11.78v.03c0 .585.855.825 1.785 1.125 1.155.36 2.46.885 2.46 2.31v.03c0 1.665-1.29 2.49-2.94 2.49zm4.585-.15V48.05h1.83v4.245c.51-.735 1.245-1.38 2.475-1.38 1.785 0 2.82 1.2 2.82 3.03V59h-1.815v-4.5c0-1.23-.615-1.935-1.695-1.935-1.05 0-1.785.735-1.785 1.965V59h-1.83zm13.63.165c-1.32 0-2.145-.66-2.7-1.395V59h-1.83V48.05h1.83v4.35c.585-.825 1.41-1.485 2.7-1.485 1.86 0 3.675 1.47 3.675 4.11v.03c0 2.625-1.8 4.11-3.675 4.11zm-.435-1.575c1.245 0 2.265-.975 2.265-2.535v-.03c0-1.53-1.05-2.535-2.265-2.535-1.23 0-2.31 1.02-2.31 2.535v.03c0 1.515 1.08 2.535 2.31 2.535zm9.55 1.59c-2.415 0-4.2-1.845-4.2-4.095v-.03c0-2.265 1.8-4.14 4.23-4.14 2.43 0 4.215 1.845 4.215 4.11v.03c0 2.25-1.8 4.125-4.245 4.125zm.03-1.59c1.47 0 2.4-1.14 2.4-2.505v-.03c0-1.395-1.005-2.55-2.43-2.55-1.455 0-2.385 1.14-2.385 2.52v.03c0 1.38 1.005 2.535 2.415 2.535zm8.14 1.575c-1.485 0-2.82-.855-2.82-2.445v-.03c0-1.71 1.35-2.55 3.285-2.55.885 0 1.515.135 2.13.33v-.195c0-1.125-.69-1.725-1.965-1.725-.885 0-1.545.195-2.265.495l-.495-1.425c.885-.39 1.74-.645 3-.645 1.185 0 2.07.315 2.625.885.585.57.855 1.41.855 2.445V59h-1.77v-.99c-.54.645-1.365 1.155-2.58 1.155zm.51-1.32c1.2 0 2.115-.69 2.115-1.695v-.54a5.032 5.032 0 0 0-1.8-.315c-1.17 0-1.86.495-1.86 1.32v.03c0 .765.675 1.2 1.545 1.2zM432.8 59v-7.92h1.83v1.785c.495-1.185 1.41-1.995 2.805-1.935v1.92h-.105c-1.59 0-2.7 1.035-2.7 3.135V59h-1.83zm9.07.165c-1.86 0-3.675-1.485-3.675-4.11v-.03c0-2.625 1.785-4.11 3.675-4.11 1.305 0 2.13.645 2.7 1.395v-4.26h1.815V59h-1.815v-1.32c-.585.825-1.41 1.485-2.7 1.485zm.435-1.575c1.215 0 2.295-1.02 2.295-2.535v-.03c0-1.53-1.08-2.535-2.295-2.535-1.245 0-2.28.975-2.28 2.535v.03c0 1.53 1.05 2.535 2.28 2.535z" mask="url(#b)"/><g mask="url(#b)"><g transform="translate(51 309)"><use fill="#000" filter="url(#c)" xlink:href="#d"/><use fill="#FFF" xlink:href="#d"/><path fill="#30405C" d="M30.3 40l3.08-7.05h1.14L37.6 40h-1.3l-.71-1.69h-3.31L31.56 40H30.3zm2.43-2.78h2.41l-1.21-2.8-1.2 2.8zm9.11 2.88c-1.07 0-2.08-.37-2.92-1.12l.74-.88c.67.58 1.35.91 2.21.91.76 0 1.24-.36 1.24-.88v-.02c0-.5-.28-.77-1.58-1.07-1.49-.36-2.33-.8-2.33-2.09v-.02c0-1.2 1-2.03 2.39-2.03 1.02 0 1.83.31 2.54.88l-.66.93c-.63-.47-1.26-.72-1.9-.72-.72 0-1.14.37-1.14.83v.02c0 .54.32.78 1.67 1.1 1.48.36 2.24.89 2.24 2.05v.02c0 1.31-1.03 2.09-2.5 2.09zm7 0c-1.07 0-2.08-.37-2.92-1.12l.74-.88c.67.58 1.35.91 2.21.91.76 0 1.24-.36 1.24-.88v-.02c0-.5-.28-.77-1.58-1.07-1.49-.36-2.33-.8-2.33-2.09v-.02c0-1.2 1-2.03 2.39-2.03 1.02 0 1.83.31 2.54.88l-.66.93c-.63-.47-1.26-.72-1.9-.72-.72 0-1.14.37-1.14.83v.02c0 .54.32.78 1.67 1.1 1.48.36 2.24.89 2.24 2.05v.02c0 1.31-1.03 2.09-2.5 2.09zm4.65-.1v-7h5.19v1.1h-3.96v1.82h3.51v1.11h-3.51v1.87h4.01V40h-5.24zm9.1 0v-5.86h-2.23V33h5.69v1.14h-2.23V40h-1.23zm7.75.1c-1.07 0-2.08-.37-2.92-1.12l.74-.88c.67.58 1.35.91 2.21.91.76 0 1.24-.36 1.24-.88v-.02c0-.5-.28-.77-1.58-1.07-1.49-.36-2.33-.8-2.33-2.09v-.02c0-1.2 1-2.03 2.39-2.03 1.02 0 1.83.31 2.54.88l-.66.93c-.63-.47-1.26-.72-1.9-.72-.72 0-1.14.37-1.14.83v.02c0 .54.32.78 1.67 1.1 1.48.36 2.24.89 2.24 2.05v.02c0 1.31-1.03 2.09-2.5 2.09zm10.24-.05L78.15 33h1.33l1.67 5.19 1.72-5.21h1.04l1.72 5.21L87.3 33h1.29l-2.43 7.05h-1.07l-1.72-5.03-1.72 5.03h-1.07zm7.82 1.23l4.52-9.26h1.05l-4.52 9.26H88.4zM98.56 40l3.08-7.05h1.14l3.08 7.05h-1.3l-.71-1.69h-3.31L99.82 40h-1.26zm2.43-2.78h2.41l-1.21-2.8-1.2 2.8zm9.58 2.9c-2.05 0-3.56-1.59-3.56-3.6v-.02c0-1.99 1.49-3.62 3.6-3.62 1.3 0 2.08.45 2.75 1.09l-.79.91c-.57-.52-1.16-.86-1.97-.86-1.32 0-2.3 1.09-2.3 2.46v.02c0 1.37.97 2.48 2.31 2.48.86 0 1.41-.34 2.01-.9l.79.8c-.73.76-1.53 1.24-2.84 1.24zm6.55-.12v-5.86h-2.23V33h5.69v1.14h-2.23V40h-1.23zm5.51 0v-7h1.23v7h-1.23zm6.1.05l-2.9-7.05h1.36l2.11 5.38 2.1-5.38h1.33l-2.9 7.05h-1.1zm5.9-.05v-7h5.19v1.1h-3.96v1.82h3.51v1.11h-3.51v1.87h4.01V40h-5.24zm13.81.12c-1.84 0-3.04-1.6-3.04-3.6v-.02c0-2 1.22-3.62 3.06-3.62 1.83 0 3.04 1.6 3.04 3.6v.02c0 2-1.22 3.62-3.06 3.62zm.02-1.11c1.09 0 1.77-1.12 1.77-2.49v-.02c0-1.38-.71-2.51-1.79-2.51s-1.77 1.11-1.77 2.49v.02c0 1.38.7 2.51 1.79 2.51zm8.91.99v-7h2.61c2.2 0 3.72 1.51 3.72 3.48v.02c0 1.97-1.52 3.5-3.72 3.5h-2.61zm2.61-5.88h-1.38v4.76h1.38c1.47 0 2.43-.99 2.43-2.36v-.02c0-1.37-.96-2.38-2.43-2.38zM164.8 40l3.08-7.05h1.14L172.1 40h-1.3l-.71-1.69h-3.31l-.72 1.69h-1.26zm2.43-2.78h2.41l-1.21-2.8-1.2 2.8zm7.73 2.78v-2.76L172.18 33h1.46l1.95 3.09 1.98-3.09h1.41l-2.78 4.21V40h-1.24z"/><rect width="7" height="7" x="30" y="59" fill="#FF6E47" rx="3.5"/><rect width="7" height="7" x="30" y="79" fill="#BDD6E9" rx="3.5"/><rect width="7" height="7" x="30" y="99" fill="#FF6E47" rx="3.5"/><rect width="7" height="7" x="30" y="159" fill="#FF6E47" rx="3.5"/><rect width="7" height="7" x="30" y="119" fill="#BDD6E9" rx="3.5"/><rect width="7" height="7" x="30" y="179" fill="#BDD6E9" rx="3.5"/><rect width="7" height="7" x="30" y="139" fill="#BDD6E9" rx="3.5"/><rect width="7" height="7" x="30" y="199" fill="#BDD6E9" rx="3.5"/><path fill="#E5E7EB" d="M50 60h80v5H50zM171 60h30v5h-30zM171 80h30v5h-30zM171 100h30v5h-30zM171 120h30v5h-30zM171 140h30v5h-30zM171 160h30v5h-30zM171 180h30v5h-30zM171 200h30v5h-30zM50 80h90v5H50zM50 100h80v5H50zM50 120h90v5H50zM50 160h90v5H50zM50 180h80v5H50zM50 200h80v5H50zM50 140h80v5H50z"/></g></g><g mask="url(#b)"><g transform="translate(50 79)"><use fill="#000" filter="url(#e)" xlink:href="#f"/><use fill="#FFF" xlink:href="#f"/></g><g transform="translate(80 139)"><path fill="#E5E7EB" d="M50 0h165v5H50zM262 0h30v5h-30z"/><rect width="30" height="5" fill="#FF6E47" rx="1"/><rect width="30" height="5" y="30" fill="#FF6E47" rx="1"/><rect width="30" height="5" y="60" fill="#FF6E47" rx="1"/><rect width="30" height="5" y="90" fill="#FF6E47" rx="1"/><rect width="30" height="5" y="120" fill="#FF6E47" rx="1"/><path fill="#E5E7EB" d="M50 30h180v5H50zM262 30h30v5h-30zM50 60h165v5H50zM262 60h30v5h-30zM50 90h180v5H50zM262 90h30v5h-30zM50 120h165v5H50zM262 120h30v5h-30z"/></g><path fill="#30405C" d="M80.9 115v-7h1.23v5.88h3.68V115H80.9zm6.28 0l3.08-7.05h1.14l3.08 7.05h-1.3l-.71-1.69h-3.31l-.72 1.69h-1.26zm2.43-2.78h2.41l-1.21-2.8-1.2 2.8zM97.2 115v-5.86h-2.23V108h5.69v1.14h-2.23V115H97.2zm5.44 0v-7h5.19v1.1h-3.96v1.82h3.51v1.11h-3.51v1.87h4.01v1.1h-5.24zm9.85.1c-1.07 0-2.08-.37-2.92-1.12l.74-.88c.67.58 1.35.91 2.21.91.76 0 1.24-.36 1.24-.88v-.02c0-.5-.28-.77-1.58-1.07-1.49-.36-2.33-.8-2.33-2.09v-.02c0-1.2 1-2.03 2.39-2.03 1.02 0 1.83.31 2.54.88l-.66.93c-.63-.47-1.26-.72-1.9-.72-.72 0-1.14.37-1.14.83v.02c0 .54.32.78 1.67 1.1 1.48.36 2.24.89 2.24 2.05v.02c0 1.31-1.03 2.09-2.5 2.09zm6.22-.1v-5.86h-2.23V108h5.69v1.14h-2.23V115h-1.23zm10.85 0v-5.86h-2.23V108h5.69v1.14h-2.23V115h-1.23zm5.44 0v-7h1.23v2.91h3.34V108h1.23v7h-1.23v-2.95h-3.34V115H135zm8.3 0v-7h3.12c.88 0 1.57.26 2.02.7.37.38.58.9.58 1.51v.02c0 1.15-.69 1.84-1.66 2.12l1.89 2.65h-1.46l-1.72-2.44h-1.54V115h-1.23zm1.23-3.53h1.8c.88 0 1.44-.46 1.44-1.17v-.02c0-.75-.54-1.16-1.45-1.16h-1.79v2.35zm6.7 3.53v-7h5.19v1.1h-3.96v1.82h3.51v1.11h-3.51v1.87h4.01v1.1h-5.24zm6.8 0l3.08-7.05h1.14l3.08 7.05h-1.3l-.71-1.69h-3.31l-.72 1.69h-1.26zm2.43-2.78h2.41l-1.21-2.8-1.2 2.8zm7.59 2.78v-5.86h-2.23V108h5.69v1.14h-2.23V115h-1.23zm7.75.1c-1.07 0-2.08-.37-2.92-1.12l.74-.88c.67.58 1.35.91 2.21.91.76 0 1.24-.36 1.24-.88v-.02c0-.5-.28-.77-1.58-1.07-1.49-.36-2.33-.8-2.33-2.09v-.02c0-1.2 1-2.03 2.39-2.03 1.02 0 1.83.31 2.54.88l-.66.93c-.63-.47-1.26-.72-1.9-.72-.72 0-1.14.37-1.14.83v.02c0 .54.32.78 1.67 1.1 1.48.36 2.24.89 2.24 2.05v.02c0 1.31-1.03 2.09-2.5 2.09zm8.35-.1v-7h5.21v1.12h-3.98v1.91h3.53v1.12h-3.53V115h-1.23zm7.26 0v-7h3.12c.88 0 1.57.26 2.02.7.37.38.58.9.58 1.51v.02c0 1.15-.69 1.84-1.66 2.12l1.89 2.65h-1.46l-1.72-2.44h-1.54V115h-1.23zm1.23-3.53h1.8c.88 0 1.44-.46 1.44-1.17v-.02c0-.75-.54-1.16-1.45-1.16h-1.79v2.35zm10.04 3.65c-2.15 0-3.65-1.63-3.65-3.6v-.02c0-1.97 1.52-3.62 3.67-3.62s3.65 1.63 3.65 3.6v.02c0 1.97-1.52 3.62-3.67 3.62zm.02-1.14c1.39 0 2.36-1.1 2.36-2.46v-.02c0-1.36-.99-2.48-2.38-2.48s-2.36 1.1-2.36 2.46v.02c0 1.36.99 2.48 2.38 2.48zm5.84 1.02v-7h1.31l2.13 3.31 2.13-3.31h1.31v7h-1.23v-5.02l-2.21 3.3h-.04l-2.19-3.28v5h-1.21zm13.08 0v-7h1.23v5.88h3.68V115h-4.91zm6.95 0v-7h1.23v7h-1.23zm6.1.05l-2.9-7.05h1.36l2.11 5.38 2.1-5.38h1.33l-2.9 7.05h-1.1zm5.9-.05v-7h5.19v1.1h-3.96v1.82h3.51v1.11h-3.51v1.87h4.01v1.1h-5.24zm11.1 0v-7h5.21v1.12h-3.98v1.91h3.53v1.12h-3.53V115h-1.23zm7.26 0v-7h5.19v1.1h-3.96v1.82h3.51v1.11h-3.51v1.87h4.01v1.1h-5.24zm7.4 0v-7h5.19v1.1h-3.96v1.82h3.51v1.11h-3.51v1.87h4.01v1.1h-5.24zm7.4 0v-7h2.61c2.2 0 3.72 1.51 3.72 3.48v.02c0 1.97-1.52 3.5-3.72 3.5h-2.61zm2.61-5.88h-1.38v4.76h1.38c1.47 0 2.43-.99 2.43-2.36v-.02c0-1.37-.96-2.38-2.43-2.38z"/></g><g mask="url(#b)"><g transform="translate(533 309)"><use fill="#000" filter="url(#g)" xlink:href="#h"/><use fill="#FFF" xlink:href="#h"/></g><path stroke="#FF7847" stroke-width="2" d="M563 464h25.72c11.038 0 11.072 13 20.727 13h16.743c7.882 0 7.56-9 17.005-9h19.638c13.355 0 15.155-19 28.466-19H734"/><path fill="#FF7847" fill-opacity=".1" d="M563 464h25.72c11.038 0 11.072 13 20.727 13h16.743c7.882 0 7.56-9 17.005-9h19.638c13.355 0 15.155-19 28.466-19H734v46H563v-31z"/><path fill="#E5E7EB" d="M563 506h10v5h-10zM724 502h10v5h-10zM563 495h171v1H563zM714 412h20v5h-20zM701 412h8l-4 7z"/><path fill="#30405C" d="M563.3 345l3.08-7.05h1.14l3.08 7.05h-1.3l-.71-1.69h-3.31l-.72 1.69h-1.26zm2.43-2.78h2.41l-1.21-2.8-1.2 2.8zm9.11 2.88c-1.07 0-2.08-.37-2.92-1.12l.74-.88c.67.58 1.35.91 2.21.91.76 0 1.24-.36 1.24-.88v-.02c0-.5-.28-.77-1.58-1.07-1.49-.36-2.33-.8-2.33-2.09v-.02c0-1.2 1-2.03 2.39-2.03 1.02 0 1.83.31 2.54.88l-.66.93c-.63-.47-1.26-.72-1.9-.72-.72 0-1.14.37-1.14.83v.02c0 .54.32.78 1.67 1.1 1.48.36 2.24.89 2.24 2.05v.02c0 1.31-1.03 2.09-2.5 2.09zm7 0c-1.07 0-2.08-.37-2.92-1.12l.74-.88c.67.58 1.35.91 2.21.91.76 0 1.24-.36 1.24-.88v-.02c0-.5-.28-.77-1.58-1.07-1.49-.36-2.33-.8-2.33-2.09v-.02c0-1.2 1-2.03 2.39-2.03 1.02 0 1.83.31 2.54.88l-.66.93c-.63-.47-1.26-.72-1.9-.72-.72 0-1.14.37-1.14.83v.02c0 .54.32.78 1.67 1.1 1.48.36 2.24.89 2.24 2.05v.02c0 1.31-1.03 2.09-2.5 2.09zm4.65-.1v-7h5.19v1.1h-3.96v1.82h3.51v1.11h-3.51v1.87h4.01v1.1h-5.24zm9.1 0v-5.86h-2.23V338h5.69v1.14h-2.23V345h-1.23zm7.75.1c-1.07 0-2.08-.37-2.92-1.12l.74-.88c.67.58 1.35.91 2.21.91.76 0 1.24-.36 1.24-.88v-.02c0-.5-.28-.77-1.58-1.07-1.49-.36-2.33-.8-2.33-2.09v-.02c0-1.2 1-2.03 2.39-2.03 1.02 0 1.83.31 2.54.88l-.66.93c-.63-.47-1.26-.72-1.9-.72-.72 0-1.14.37-1.14.83v.02c0 .54.32.78 1.67 1.1 1.48.36 2.24.89 2.24 2.05v.02c0 1.31-1.03 2.09-2.5 2.09zm10.24-.05l-2.43-7.05h1.33l1.67 5.19 1.72-5.21h1.04l1.72 5.21 1.67-5.19h1.29l-2.43 7.05h-1.07l-1.72-5.03-1.72 5.03h-1.07zm10.04-.05v-7h1.23v7h-1.23zm5.51 0v-5.86h-2.23V338h5.69v1.14h-2.23V345h-1.23zm5.44 0v-7h1.23v2.91h3.34V338h1.23v7h-1.23v-2.95h-3.34V345h-1.23zm12 0v-7h2.76c1.64 0 2.66.93 2.66 2.34v.02c0 1.57-1.26 2.39-2.8 2.39h-1.39V345h-1.23zm1.23-3.36h1.43c.93 0 1.51-.52 1.51-1.25v-.02c0-.82-.59-1.25-1.51-1.25h-1.43v2.52zm9.02 3.47c-1.82 0-2.98-1.05-2.98-3.08V338h1.23v3.98c0 1.3.67 1.99 1.77 1.99 1.09 0 1.76-.65 1.76-1.94V338h1.23v3.97c0 2.09-1.18 3.14-3.01 3.14zm5.4-.11v-7h3.14c.8 0 1.43.22 1.83.62.31.31.47.7.47 1.16v.02c0 .84-.48 1.29-1 1.56.82.28 1.39.75 1.39 1.7v.02c0 1.25-1.03 1.92-2.59 1.92h-3.24zm4.21-5v-.02c0-.55-.44-.89-1.23-.89h-1.77v1.86h1.68c.79 0 1.32-.31 1.32-.95zm.39 2.93c0-.59-.47-.94-1.44-.94h-1.95v1.92h2.04c.83 0 1.35-.33 1.35-.96v-.02zm3.32 2.07v-7h1.23v5.88h3.68V345h-4.91zm6.95 0v-7h1.23v7h-1.23zm7.05.12c-2.05 0-3.56-1.59-3.56-3.6v-.02c0-1.99 1.49-3.62 3.6-3.62 1.3 0 2.08.45 2.75 1.09l-.79.91c-.57-.52-1.16-.86-1.97-.86-1.32 0-2.3 1.09-2.3 2.46v.02c0 1.37.97 2.48 2.31 2.48.86 0 1.41-.34 2.01-.9l.79.8c-.73.76-1.53 1.24-2.84 1.24zM563.9 360v-7h5.19v1.1h-3.96v1.82h3.51v1.11h-3.51v1.87h4.01v1.1h-5.24zm11.91-7h1.41l-2.44 3.42 2.54 3.58h-1.45l-1.85-2.67-1.84 2.67h-1.41l2.53-3.56-2.43-3.44h1.45l1.73 2.53 1.76-2.53zm3.48 7v-7h2.76c1.64 0 2.66.93 2.66 2.34v.02c0 1.57-1.26 2.39-2.8 2.39h-1.39V360h-1.23zm1.23-3.36h1.43c.93 0 1.51-.52 1.51-1.25v-.02c0-.82-.59-1.25-1.51-1.25h-1.43v2.52zm6.15 3.36v-7h1.23v5.88h3.68V360h-4.91zm9.79.12c-2.15 0-3.65-1.63-3.65-3.6v-.02c0-1.97 1.52-3.62 3.67-3.62s3.65 1.63 3.65 3.6v.02c0 1.97-1.52 3.62-3.67 3.62zm.02-1.14c1.39 0 2.36-1.1 2.36-2.46v-.02c0-1.36-.99-2.48-2.38-2.48s-2.36 1.1-2.36 2.46v.02c0 1.36.99 2.48 2.38 2.48zm5.91 1.02v-7h1.23v7h-1.23zm5.51 0v-5.86h-2.23V353h5.69v1.14h-2.23V360h-1.23zm8.54 0l3.08-7.05h1.14l3.08 7.05h-1.3l-.71-1.69h-3.31l-.72 1.69h-1.26zm2.43-2.78h2.41l-1.21-2.8-1.2 2.8zm8.07 2.83l-2.9-7.05h1.36l2.11 5.38 2.1-5.38h1.33l-2.9 7.05h-1.1zm4.3-.05l3.08-7.05h1.14l3.08 7.05h-1.3l-.71-1.69h-3.31l-.72 1.69h-1.26zm2.43-2.78h2.41l-1.21-2.8-1.2 2.8zm6.84 2.78v-7h1.23v7h-1.23zm3.8 0v-7h1.23v5.88h3.68V360h-4.91zm6.28 0l3.08-7.05h1.14l3.08 7.05h-1.3l-.71-1.69h-3.31l-.72 1.69h-1.26zm2.43-2.78h2.41l-1.21-2.8-1.2 2.8zm6.77 2.78v-7h3.14c.8 0 1.43.22 1.83.62.31.31.47.7.47 1.16v.02c0 .84-.48 1.29-1 1.56.82.28 1.39.75 1.39 1.7v.02c0 1.25-1.03 1.92-2.59 1.92h-3.24zm4.21-5v-.02c0-.55-.44-.89-1.23-.89H661v1.86h1.68c.79 0 1.32-.31 1.32-.95zm.39 2.93c0-.59-.47-.94-1.44-.94H661v1.92h2.04c.83 0 1.35-.33 1.35-.96v-.02zm3.32 2.07v-7h1.23v5.88h3.68V360h-4.91zm6.88 0v-7h5.19v1.1h-3.96v1.82h3.51v1.11h-3.51v1.87h4.01v1.1h-5.24z"/><path fill="#D5D7DB" d="M571.95 429v-32.55l-6.75 2.3-.7-2.05 8-2.95h2V429h-2.55zm10.05 5.35l-.6-1.25c2.15-1.1 2.95-2.2 2.8-4.1h-1.35v-4.25h3.3v3.7c0 3.1-1.15 4.75-4.15 5.9zm23.95-4.75c-8.9 0-14.45-8.35-14.45-18v-.1c0-9.65 5.65-18.1 14.55-18.1s14.45 8.35 14.45 18v.1c0 9.65-5.65 18.1-14.55 18.1zm.1-2.35c7.25 0 11.75-7.55 11.75-15.65v-.1c0-8.15-4.6-15.75-11.85-15.75s-11.75 7.5-11.75 15.65v.1c0 8.1 4.6 15.75 11.85 15.75zm23 1.75l15.9-32.5h-20.3V394h23.2v1.9L631.9 429h-2.85zm37.25.6c-8.9 0-14.45-8.35-14.45-18v-.1c0-9.65 5.65-18.1 14.55-18.1s14.45 8.35 14.45 18v.1c0 9.65-5.65 18.1-14.55 18.1zm.1-2.35c7.25 0 11.75-7.55 11.75-15.65v-.1c0-8.15-4.6-15.75-11.85-15.75s-11.75 7.5-11.75 15.65v.1c0 8.1 4.6 15.75 11.85 15.75z"/></g><g mask="url(#b)"><path fill="#2159C8" stroke="#2159C8" d="M71.533 63.147a43.096 43.096 0 0 1-17.066 0c-1.166-.245-2.369-1.448-2.614-2.614a43.096 43.096 0 0 1 0-17.066c.245-1.166 1.448-2.369 2.614-2.614a43.096 43.096 0 0 1 17.066 0c1.166.245 2.369 1.448 2.614 2.614a43.096 43.096 0 0 1 0 17.066c-.245 1.166-1.448 2.369-2.614 2.614"/><path fill="#FFF" d="M57.01 50.25V49h5.55v1.25h-2.02V56h-1.51v-5.75h-2.02zm9.12 3.29h-1.17V56h-1.49v-7h2.66c1.67 0 2.77.67 2.77 2.23 0 1.59-1.15 2.31-2.77 2.31zm1.24-2.31c0-.76-.46-.99-1.39-.99h-1.02v2.06h1.02c.93 0 1.39-.31 1.39-1.07z"/></g><g mask="url(#b)"><g transform="translate(292 309)"><use fill="#000" filter="url(#i)" xlink:href="#j"/><use fill="#FFF" xlink:href="#j"/></g><path stroke="#ED2E26" stroke-width="2" d="M322 448h31c12.397 0 8.388 18 21 18h25c9.426 0 5.252 14 15 14h37c3.633 0 .63 3 4 3h38"/><path fill="#ED2E26" fill-opacity=".1" d="M322 448h31c12.397 0 8.388 18 21 18h25c9.426 0 5.252 14 15 14h37c3.633 0 .63 3 4 3h38v12.193L322 495s-.007-24.316 0-47z"/><path fill="#E5E7EB" d="M473 416h20v5h-20zM322 506h10v5h-10zM483 506h10v5h-10zM460 416h8l-4 7zM322 495h171v1H322z"/><path fill="#D5D7DB" d="M324.4 429v-1.95l13.05-11.8c5.75-5.25 7.75-8.25 7.75-11.95 0-4.55-3.7-7.5-7.9-7.5-4.45 0-7.35 2.3-10.25 6.5l-1.95-1.3c3.05-4.65 6.3-7.5 12.45-7.5 5.95 0 10.4 4.15 10.4 9.6v.1c0 4.8-2.6 8-8.75 13.6l-10.7 9.7h19.8v2.5h-23.9zm48.35 0v-8.55H353.8l-.9-1.95 20-24.75h2.35v24.45h5.7v2.25h-5.7V429h-2.5zm-16.7-10.8h16.7v-20.7l-16.7 20.7z"/><path fill="#30405C" d="M322.3 345l3.08-7.05h1.14l3.08 7.05h-1.3l-.71-1.69h-3.31l-.72 1.69h-1.26zm2.43-2.78h2.41l-1.21-2.8-1.2 2.8zm9.11 2.88c-1.07 0-2.08-.37-2.92-1.12l.74-.88c.67.58 1.35.91 2.21.91.76 0 1.24-.36 1.24-.88v-.02c0-.5-.28-.77-1.58-1.07-1.49-.36-2.33-.8-2.33-2.09v-.02c0-1.2 1-2.03 2.39-2.03 1.02 0 1.83.31 2.54.88l-.66.93c-.63-.47-1.26-.72-1.9-.72-.72 0-1.14.37-1.14.83v.02c0 .54.32.78 1.67 1.1 1.48.36 2.24.89 2.24 2.05v.02c0 1.31-1.03 2.09-2.5 2.09zm7 0c-1.07 0-2.08-.37-2.92-1.12l.74-.88c.67.58 1.35.91 2.21.91.76 0 1.24-.36 1.24-.88v-.02c0-.5-.28-.77-1.58-1.07-1.49-.36-2.33-.8-2.33-2.09v-.02c0-1.2 1-2.03 2.39-2.03 1.02 0 1.83.31 2.54.88l-.66.93c-.63-.47-1.26-.72-1.9-.72-.72 0-1.14.37-1.14.83v.02c0 .54.32.78 1.67 1.1 1.48.36 2.24.89 2.24 2.05v.02c0 1.31-1.03 2.09-2.5 2.09zm4.65-.1v-7h5.19v1.1h-3.96v1.82h3.51v1.11h-3.51v1.87h4.01v1.1h-5.24zm9.1 0v-5.86h-2.23V338h5.69v1.14h-2.23V345h-1.23zm7.75.1c-1.07 0-2.08-.37-2.92-1.12l.74-.88c.67.58 1.35.91 2.21.91.76 0 1.24-.36 1.24-.88v-.02c0-.5-.28-.77-1.58-1.07-1.49-.36-2.33-.8-2.33-2.09v-.02c0-1.2 1-2.03 2.39-2.03 1.02 0 1.83.31 2.54.88l-.66.93c-.63-.47-1.26-.72-1.9-.72-.72 0-1.14.37-1.14.83v.02c0 .54.32.78 1.67 1.1 1.48.36 2.24.89 2.24 2.05v.02c0 1.31-1.03 2.09-2.5 2.09zm10.24-.05l-2.43-7.05h1.33l1.67 5.19 1.72-5.21h1.04l1.72 5.21 1.67-5.19h1.29l-2.43 7.05h-1.07l-1.72-5.03-1.72 5.03h-1.07zm10.04-.05v-7h1.23v7h-1.23zm5.51 0v-5.86h-2.23V338h5.69v1.14h-2.23V345h-1.23zm5.44 0v-7h1.23v2.91h3.34V338h1.23v7h-1.23v-2.95h-3.34V345h-1.23zm11.4 0l3.08-7.05h1.14l3.08 7.05h-1.3l-.71-1.69h-3.31l-.72 1.69h-1.26zm2.43-2.78h2.41l-1.21-2.8-1.2 2.8zm6.77 2.78v-7h1.14l3.75 4.84V338h1.21v7h-1.03l-3.86-4.98V345h-1.21zm11.92.12c-2.19 0-3.63-1.56-3.63-3.6v-.02c0-1.96 1.5-3.62 3.61-3.62 1.22 0 1.97.34 2.69.95l-.78.93c-.54-.45-1.07-.74-1.96-.74-1.29 0-2.27 1.12-2.27 2.46v.02c0 1.44.95 2.5 2.38 2.5.66 0 1.26-.21 1.69-.53v-1.3h-1.79v-1.08h2.98v2.94c-.69.59-1.68 1.09-2.92 1.09zm5.22-.12v-7h1.23v5.88h3.68V345h-4.91zm6.88 0v-7h5.19v1.1h-3.96v1.82h3.51v1.11h-3.51v1.87h4.01v1.1h-5.24zm7.4 0v-7h3.12c.88 0 1.57.26 2.02.7.37.38.58.9.58 1.51v.02c0 1.15-.69 1.84-1.66 2.12l1.89 2.65h-1.46l-1.72-2.44h-1.54V345h-1.23zm1.23-3.53h1.8c.88 0 1.44-.46 1.44-1.17v-.02c0-.75-.54-1.16-1.45-1.16h-1.79v2.35zM322.9 360v-7h5.19v1.1h-3.96v1.82h3.51v1.11h-3.51v1.87h4.01v1.1h-5.24zm11.91-7h1.41l-2.44 3.42 2.54 3.58h-1.45l-1.85-2.67-1.84 2.67h-1.41l2.53-3.56-2.43-3.44h1.45l1.73 2.53 1.76-2.53zm3.48 7v-7h2.76c1.64 0 2.66.93 2.66 2.34v.02c0 1.57-1.26 2.39-2.8 2.39h-1.39V360h-1.23zm1.23-3.36h1.43c.93 0 1.51-.52 1.51-1.25v-.02c0-.82-.59-1.25-1.51-1.25h-1.43v2.52zm6.15 3.36v-7h1.23v5.88h3.68V360h-4.91zm9.79.12c-2.15 0-3.65-1.63-3.65-3.6v-.02c0-1.97 1.52-3.62 3.67-3.62s3.65 1.63 3.65 3.6v.02c0 1.97-1.52 3.62-3.67 3.62zm.02-1.14c1.39 0 2.36-1.1 2.36-2.46v-.02c0-1.36-.99-2.48-2.38-2.48s-2.36 1.1-2.36 2.46v.02c0 1.36.99 2.48 2.38 2.48zm5.91 1.02v-7h1.23v7h-1.23zm5.51 0v-5.86h-2.23V353h5.69v1.14h-2.23V360h-1.23zm3.95 0l3.08-7.05h1.14l3.08 7.05h-1.3l-.71-1.69h-3.31l-.72 1.69h-1.26zm2.43-2.78h2.41l-1.21-2.8-1.2 2.8zm6.77 2.78v-7h3.14c.8 0 1.43.22 1.83.62.31.31.47.7.47 1.16v.02c0 .84-.48 1.29-1 1.56.82.28 1.39.75 1.39 1.7v.02c0 1.25-1.03 1.92-2.59 1.92h-3.24zm4.21-5v-.02c0-.55-.44-.89-1.23-.89h-1.77v1.86h1.68c.79 0 1.32-.31 1.32-.95zm.39 2.93c0-.59-.47-.94-1.44-.94h-1.95v1.92h2.04c.83 0 1.35-.33 1.35-.96v-.02zm3.32 2.07v-7h1.23v5.88h3.68V360h-4.91zm6.88 0v-7h5.19v1.1h-3.96v1.82h3.51v1.11h-3.51v1.87h4.01v1.1h-5.24zm13.4.05l-2.9-7.05h1.36l2.11 5.38 2.1-5.38h1.33l-2.9 7.05h-1.1zm8.77.06c-1.82 0-2.98-1.05-2.98-3.08V353h1.23v3.98c0 1.3.67 1.99 1.77 1.99 1.09 0 1.76-.65 1.76-1.94V353h1.23v3.97c0 2.09-1.18 3.14-3.01 3.14zm5.4-.11v-7h1.23v5.88h3.68V360h-4.91zm6.88 0v-7h1.14l3.75 4.84V353h1.21v7h-1.03l-3.86-4.98V360h-1.21zm8.38 0v-1.38h1.33V360h-1.33z"/></g><g mask="url(#b)"><g transform="translate(412 79)"><use fill="#000" filter="url(#k)" xlink:href="#l"/><use fill="#FFF" xlink:href="#l"/></g><path fill="#FF9D47" d="M588 150c30.376 0 55 24.624 55 55 0 15.188-6.156 28.938-16.11 38.89L588 205v-55z"/><g transform="translate(523 135)"><circle cx="65" cy="69" r="65" fill="#FF7847"/><path fill="#ED2E26" d="M0 69C0 33.101 29.101 4 65 4v65H0z"/><path fill="#FF9D47" d="M65 0c35.899 0 65 29.101 65 65 0 17.95-7.275 34.2-19.038 45.962L65 65V0z"/><circle cx="65" cy="69" r="45" fill="#FFF"/></g><path fill="#30405C" d="M442.9 119v-7h5.19v1.1h-3.96v1.82h3.51v1.11h-3.51v1.87h4.01v1.1h-5.24zm6.8 0l3.08-7.05h1.14L457 119h-1.3l-.71-1.69h-3.31l-.72 1.69h-1.26zm2.43-2.78h2.41l-1.21-2.8-1.2 2.8zm9.11 2.88c-1.07 0-2.08-.37-2.92-1.12l.74-.88c.67.58 1.35.91 2.21.91.76 0 1.24-.36 1.24-.88v-.02c0-.5-.28-.77-1.58-1.07-1.49-.36-2.33-.8-2.33-2.09v-.02c0-1.2 1-2.03 2.39-2.03 1.02 0 1.83.31 2.54.88l-.66.93c-.63-.47-1.26-.72-1.9-.72-.72 0-1.14.37-1.14.83v.02c0 .54.32.78 1.67 1.1 1.48.36 2.24.89 2.24 2.05v.02c0 1.31-1.03 2.09-2.5 2.09zm4.72-.1v-7h1.23v7h-1.23zm3.8 0v-7h1.23v5.88h3.68V119h-4.91zm7.65 0v-2.76l-2.78-4.24h1.46l1.95 3.09 1.98-3.09h1.41l-2.78 4.21V119h-1.24zm9.5 0v-7h5.19v1.1h-3.96v1.82h3.51v1.11h-3.51v1.87h4.01v1.1h-5.24zm11.91-7h1.41l-2.44 3.42 2.54 3.58h-1.45l-1.85-2.67-1.84 2.67h-1.41l2.53-3.56-2.43-3.44h1.45l1.73 2.53 1.76-2.53zm3.48 7v-7h2.76c1.64 0 2.66.93 2.66 2.34v.02c0 1.57-1.26 2.39-2.8 2.39h-1.39V119h-1.23zm1.23-3.36h1.43c.93 0 1.51-.52 1.51-1.25v-.02c0-.82-.59-1.25-1.51-1.25h-1.43v2.52zm6.15 3.36v-7h1.23v5.88h3.68V119h-4.91zm9.79.12c-2.15 0-3.65-1.63-3.65-3.6v-.02c0-1.97 1.52-3.62 3.67-3.62s3.65 1.63 3.65 3.6v.02c0 1.97-1.52 3.62-3.67 3.62zm.02-1.14c1.39 0 2.36-1.1 2.36-2.46v-.02c0-1.36-.99-2.48-2.38-2.48s-2.36 1.1-2.36 2.46v.02c0 1.36.99 2.48 2.38 2.48zm5.91 1.02v-7h1.23v7h-1.23zm5.51 0v-5.86h-2.23V112h5.69v1.14h-2.23V119h-1.23zm3.95 0l3.08-7.05h1.14l3.08 7.05h-1.3l-.71-1.69h-3.31l-.72 1.69h-1.26zm2.43-2.78h2.41l-1.21-2.8-1.2 2.8zm6.77 2.78v-7h3.14c.8 0 1.43.22 1.83.62.31.31.47.7.47 1.16v.02c0 .84-.48 1.29-1 1.56.82.28 1.39.75 1.39 1.7v.02c0 1.25-1.03 1.92-2.59 1.92h-3.24zm4.21-5v-.02c0-.55-.44-.89-1.23-.89h-1.77v1.86h1.68c.79 0 1.32-.31 1.32-.95zm.39 2.93c0-.59-.47-.94-1.44-.94h-1.95v1.92h2.04c.83 0 1.35-.33 1.35-.96v-.02zm3.32 2.07v-7h1.23v5.88h3.68V119h-4.91zm6.88 0v-7h5.19v1.1h-3.96v1.82h3.51v1.11h-3.51v1.87h4.01v1.1h-5.24z"/><path fill="#E5E7EB" d="M452 154h60v5h-60zM452 164h40v5h-40zM672 165h60v5h-60zM672 175h30v5h-30zM452 240h60v5h-60zM452 250h40v5h-40z"/></g></g></svg>