<svg xmlns="http://www.w3.org/2000/svg" viewBox="0 0 167 167"><path fill="#2e8be0" d="M83.5 167c-20.5 0-40.1-7.5-55.4-21l-1.2-1.1v13.5H24v-18.3h18.3v2.9H29l1.4 1.3c14.7 12.8 33.5 19.9 53 19.9 21.5 0 41.8-8.4 57-23.6 24-24 30.4-60.5 16-91.2l2.6-1.2c14.9 31.8 8.2 69.6-16.6 94.4-15.6 15.7-36.6 24.4-58.9 24.4zM8 119.1C-7 87.3-.5 49.4 24.4 24.5 40.2 8.7 61.2 0 83.5 0 104 0 123.8 7.5 139 21.2l1.2 1.1V8.7h2.9V27h-18.3v-2.9h13.3l-1.4-1.3C122 10 103.1 2.9 83.5 2.9c-21.5 0-41.8 8.4-57 23.6-24 24-30.4 60.7-15.9 91.4L8 119.1z"/></svg>