<svg data-name="Layer 1" xmlns="http://www.w3.org/2000/svg" viewBox="0 0 923.89 345.4"><g fill="#2e8be0"><path d="M0 0h457.71v178.24H0zM476.69 0h104.13v178.24H476.69zM599.21 0h193.28v178.24H599.21zM811.21 0h95.5v178.24h-95.5z"/></g><g data-name="Layer 4" fill="#2e8be0"><path d="M226.85 174.25h3.99v93.11h-3.99zM526.76 174.25h3.99v93.11h-3.99zM693.85 174.25h3.99v93.11h-3.99zM856.97 174.25h3.99v93.11h-3.99z"/></g><path d="M72.65 135.02l.58-13.07h-.29c-5.81 5.95-13.94 10.74-22.65 10.74-18.29 0-30.49-13.36-30.49-36.87 0-22.94 15.24-37.16 31.94-37.16 8.56 0 15.24 3.34 21.78 9.58h.44l1.16-7.84h9.58v100.31H72.65v-25.69zm0-22.94V76.95c-6.39-5.95-12.34-8.13-18.44-8.13-12.19 0-22.07 10.74-22.07 26.86 0 16.84 7.84 26.86 20.76 26.86 6.98-.01 13.51-3.49 19.75-10.46zM109.38 104.24V60.4h12.05v42.25c0 13.21 4.65 19.6 16.26 19.6 8.13 0 14.08-3.77 21.92-12.92V60.41h12.05v70.55h-10.02l-1.02-12.34h-.58c-7.11 8.27-15.39 14.08-26.28 14.08-16.69 0-24.38-9.87-24.38-28.46zM196.91 112.66c0-15.82 14.81-23.52 51.25-26.42-.44-9.58-5.08-17.71-18.73-17.71-9.15 0-18.15 4.35-24.68 8.42l-4.79-8.13c7.26-4.65 19.16-10.16 31.5-10.16 19.31 0 28.74 11.47 28.74 29.03v43.26h-10.02l-1.02-9.58h-.44c-7.69 6.1-17.86 11.32-27.73 11.32-13.19.01-24.08-7.4-24.08-20.03zm51.25-.14V94.23c-30.2 2.32-39.34 8.27-39.34 17.57 0 7.98 7.26 11.18 15.39 11.18 7.98-.01 15.82-3.78 23.95-10.46zM282.13 159.84l2.47-9.58a22.672 22.672 0 006.39 1.02c9.87 0 15.82-6.24 19.31-14.95l2.03-5.23-32.81-70.7h12.19l17.13 38.91c2.76 6.24 5.81 13.65 8.71 20.47h.58c2.47-6.68 5.23-14.08 7.55-20.47l15.24-38.91h11.61l-31.21 76.36c-5.23 13.94-13.79 24.53-29.91 24.53a29.107 29.107 0 01-9.28-1.45zM369.81 121.66l5.52-7.98c8.13 5.81 17.71 9.58 30.63 9.58 11.9 0 17.71-4.94 17.71-10.89 0-5.37-2.76-9.15-21.92-13.07-18.44-3.77-27.58-10.02-27.58-20.61 0-11.32 10.02-20.03 29.32-20.03a52.93 52.93 0 0128.45 9l-5.81 7.69a41.616 41.616 0 00-23.66-7.4c-11.9 0-16.26 4.79-16.26 10.16 0 6.1 6.1 8.71 20.61 11.76 23.37 5.08 29.03 10.89 29.03 21.78 0 11.47-11.18 21.05-31.36 21.05a61.908 61.908 0 01-34.68-11.04zM620.36 112.66c0-15.82 14.81-23.52 51.25-26.42-.44-9.58-5.08-17.71-18.73-17.71-9.15 0-18.15 4.35-24.68 8.42l-4.79-8.13c7.26-4.65 19.16-10.16 31.5-10.16 19.31 0 28.74 11.47 28.74 29.03v43.26h-10.02l-1.02-9.58h-.44c-7.69 6.1-17.86 11.32-27.73 11.32-13.19.01-24.08-7.4-24.08-20.03zm51.25-.14V94.23c-30.2 2.32-39.34 8.27-39.34 17.57 0 7.98 7.26 11.18 15.39 11.18 7.98-.01 15.82-3.78 23.95-10.46zM720.53 123.12h-.44l-1.16 7.84h-9.58V27.59h12.05v28.16l-.58 13.65h.44c6.39-6.53 15.39-10.74 23.66-10.74 19.02 0 29.32 14.08 29.32 35.86 0 24.1-15.1 38.18-31.79 38.18-6.97 0-15.39-3.63-21.92-9.58zm41.37-28.46c0-15.53-5.81-25.84-19.89-25.84-6.24 0-13.5 3.19-20.61 10.45v35.13c6.53 5.95 13.94 8.13 19.02 8.13 12.19 0 21.48-10.45 21.48-27.87zM829.49 120.94h26.71V53h-20.76v-7.84c10.89-1.45 17.86-3.63 23.81-6.82h9v82.6h24.1v10.02h-62.86v-10.02zM493.92 140.97h69.68v10.31h-69.68v-10.31z" fill="#fff"/><path d="M94.77 290.18v-.07a9.26 9.26 0 019.35-9.38 9.07 9.07 0 017.17 3.09l-2.58 2.75a6.133 6.133 0 00-4.62-2.24c-2.99 0-5.2 2.58-5.2 5.71v.07a5.433 5.433 0 005.37 5.75 6.334 6.334 0 004.66-2.21l2.48 2.45a9.09 9.09 0 01-7.34 3.37 9.184 9.184 0 01-9.29-9.29zM113.68 290.18v-.07a9.573 9.573 0 0119.14-.06v.07a9.573 9.573 0 01-19.14.06zm15.02 0v-.07a5.552 5.552 0 00-5.51-5.78 5.387 5.387 0 00-5.41 5.71v.07a5.536 5.536 0 005.47 5.75 5.387 5.387 0 005.45-5.68zM136.97 281.1h4.15v2.72a6.43 6.43 0 015.47-3.09 5.701 5.701 0 015.37 3.16 7.23 7.23 0 016.05-3.16c3.91 0 6.29 2.48 6.29 6.87v11.46h-4.11v-10.2c0-2.86-1.33-4.39-3.64-4.39-2.24 0-3.84 1.56-3.84 4.45v10.13h-4.11v-10.23c0-2.79-1.36-4.35-3.64-4.35s-3.84 1.7-3.84 4.45v10.13h-4.15V281.1zM169.23 281.1h4.15v2.99a7.2 7.2 0 016.12-3.37c4.22 0 8.33 3.33 8.33 9.32v.07c0 5.95-4.08 9.32-8.33 9.32a7.352 7.352 0 01-6.12-3.16v8.23h-4.15v-23.4zm14.42 9.01v-.07c0-3.47-2.38-5.75-5.13-5.75a5.415 5.415 0 00-5.24 5.75v.07a5.42 5.42 0 005.24 5.75c2.81 0 5.13-2.21 5.13-5.75zM190.86 293.88v-.07c0-3.88 3.06-5.78 7.45-5.78a15.07 15.07 0 014.83.75v-.44c0-2.55-1.56-3.91-4.45-3.91a12.457 12.457 0 00-5.13 1.12l-1.12-3.23a15.642 15.642 0 016.8-1.46c2.69 0 4.69.71 5.95 2.01a7.436 7.436 0 011.94 5.54v10.64h-4.01v-2.24a7.292 7.292 0 01-5.85 2.62c-3.39-.01-6.41-1.94-6.41-5.55zm12.34-1.29v-1.22a11.36 11.36 0 00-4.08-.71c-2.65 0-4.22 1.12-4.22 2.99v.07c0 1.73 1.53 2.72 3.5 2.72 2.72-.01 4.8-1.57 4.8-3.85zM212 281.1h4.15v2.75a6.502 6.502 0 015.61-3.13c4.05 0 6.39 2.72 6.39 6.87v11.46h-4.11v-10.2c0-2.79-1.39-4.39-3.84-4.39-2.38 0-4.05 1.67-4.05 4.45v10.13H212V281.1zM245.05 281.1h4.28l-7.14 18.43c-1.43 3.71-3.03 5.07-5.92 5.07a8.198 8.198 0 01-4.25-1.12l1.39-3.03a5.035 5.035 0 002.41.68c1.16 0 1.87-.51 2.55-2.04l-7.48-17.98h4.42l5.03 13.33zM263.04 281.1h4.15v2.75a6.502 6.502 0 015.61-3.13c4.05 0 6.39 2.72 6.39 6.87v11.46h-4.11v-10.2c0-2.79-1.39-4.39-3.84-4.39-2.38 0-4.05 1.67-4.05 4.45v10.13h-4.15V281.1zM282.93 293.88v-.07c0-3.88 3.06-5.78 7.45-5.78a15.07 15.07 0 014.83.75v-.44c0-2.55-1.56-3.91-4.45-3.91a12.457 12.457 0 00-5.13 1.12l-1.12-3.23a15.642 15.642 0 016.8-1.46c2.69 0 4.69.71 5.95 2.01a7.436 7.436 0 011.94 5.54v10.64h-4.01v-2.24a7.292 7.292 0 01-5.85 2.62c-3.39-.01-6.41-1.94-6.41-5.55zm12.34-1.29v-1.22a11.36 11.36 0 00-4.08-.71c-2.65 0-4.22 1.12-4.22 2.99v.07c0 1.73 1.53 2.72 3.5 2.72 2.72-.01 4.8-1.57 4.8-3.85zM304.07 281.1h4.15v2.72a6.43 6.43 0 015.47-3.09 5.701 5.701 0 015.37 3.16 7.23 7.23 0 016.05-3.16c3.91 0 6.29 2.48 6.29 6.87v11.46h-4.11v-10.2c0-2.86-1.33-4.39-3.64-4.39-2.24 0-3.84 1.56-3.84 4.45v10.13h-4.11v-10.23c0-2.79-1.36-4.35-3.64-4.35s-3.84 1.7-3.84 4.45v10.13h-4.15V281.1zM335.39 290.14v-.07c0-5.13 3.64-9.35 8.77-9.35 5.71 0 8.6 4.49 8.6 9.66 0 .37-.03.75-.07 1.16H339.5a5.02 5.02 0 005.17 4.56 6.524 6.524 0 004.86-2.14l2.41 2.14a9.086 9.086 0 01-7.34 3.37 8.968 8.968 0 01-9.21-9.33zm13.29-1.32c-.27-2.65-1.84-4.72-4.56-4.72-2.52 0-4.28 1.94-4.66 4.72h9.22zM156.09 334.68v-.07c0-3.88 3.06-5.78 7.45-5.78a15.07 15.07 0 014.83.75v-.44c0-2.55-1.56-3.91-4.45-3.91a12.457 12.457 0 00-5.13 1.12l-1.12-3.23a15.643 15.643 0 016.8-1.46c2.69 0 4.69.71 5.95 2.01a7.436 7.436 0 011.94 5.54v10.64h-4.01v-2.24a7.292 7.292 0 01-5.85 2.62c-3.38-.01-6.41-1.94-6.41-5.55zm12.34-1.29v-1.22a11.36 11.36 0 00-4.08-.71c-2.65 0-4.22 1.12-4.22 2.99v.07c0 1.73 1.53 2.72 3.5 2.72 2.73-.01 4.8-1.57 4.8-3.85zM176.29 330.98v-.07a9.26 9.26 0 019.35-9.38 9.07 9.07 0 017.17 3.09l-2.58 2.75a6.133 6.133 0 00-4.62-2.24c-2.99 0-5.2 2.58-5.2 5.71v.07a5.433 5.433 0 005.37 5.75 6.334 6.334 0 004.66-2.21l2.48 2.45a9.413 9.413 0 01-16.63-5.92zM196.65 321.9h4.15v4.05c1.12-2.69 3.2-4.52 6.36-4.39v4.35h-.24c-3.6 0-6.12 2.35-6.12 7.11v6.83h-4.15V321.9zM209.13 330.98v-.07a9.573 9.573 0 0119.14-.06v.07a9.573 9.573 0 01-19.14.06zm15.03 0v-.07a5.552 5.552 0 00-5.51-5.78 5.387 5.387 0 00-5.41 5.71v.07a5.536 5.536 0 005.47 5.75 5.393 5.393 0 005.45-5.68zM232.42 321.9h4.15v2.75a6.502 6.502 0 015.61-3.13c4.05 0 6.39 2.72 6.39 6.87v11.46h-4.11v-10.2c0-2.79-1.39-4.39-3.84-4.39-2.38 0-4.05 1.67-4.05 4.45v10.13h-4.15V321.9zM265.47 321.9h4.28l-7.14 18.43c-1.43 3.71-3.03 5.07-5.92 5.07a8.198 8.198 0 01-4.25-1.12l1.39-3.03a5.035 5.035 0 002.41.68c1.16 0 1.87-.51 2.55-2.04l-7.48-17.98h4.42l5.03 13.33zM273.25 321.9h4.15v2.72a6.43 6.43 0 015.47-3.09 5.701 5.701 0 015.37 3.16 7.23 7.23 0 016.05-3.16c3.91 0 6.29 2.48 6.29 6.87v11.46h-4.11v-10.2c0-2.86-1.33-4.39-3.64-4.39-2.24 0-3.84 1.56-3.84 4.45v10.13h-4.11v-10.23c0-2.79-1.36-4.35-3.64-4.35s-3.84 1.7-3.84 4.45v10.13h-4.15V321.9zM452.51 281.1h4.15v2.99a7.2 7.2 0 016.12-3.37c4.22 0 8.33 3.33 8.33 9.32v.07c0 5.95-4.08 9.32-8.33 9.32a7.352 7.352 0 01-6.12-3.16v8.23h-4.15v-23.4zm14.42 9.01v-.07c0-3.47-2.38-5.75-5.13-5.75a5.415 5.415 0 00-5.24 5.75v.07a5.42 5.42 0 005.24 5.75c2.82 0 5.13-2.21 5.13-5.75zM475.56 274.23h4.15v24.82h-4.15v-24.82zM483.86 293.88v-.07c0-3.88 3.06-5.78 7.44-5.78a15.07 15.07 0 014.83.75v-.44c0-2.55-1.56-3.91-4.45-3.91a12.457 12.457 0 00-5.13 1.12l-1.12-3.23a15.643 15.643 0 016.8-1.46c2.69 0 4.69.71 5.95 2.01a7.436 7.436 0 011.94 5.54v10.64h-4.01v-2.24a7.292 7.292 0 01-5.85 2.62c-3.37-.01-6.4-1.94-6.4-5.55zm12.34-1.29v-1.22a11.36 11.36 0 00-4.08-.71c-2.65 0-4.22 1.12-4.22 2.99v.07c0 1.73 1.53 2.72 3.5 2.72 2.73-.01 4.8-1.57 4.8-3.85zM505.72 294.09v-9.45h-2.28v-3.54h2.28v-4.93h4.11v4.93h4.83v3.54h-4.83v8.81a1.957 1.957 0 002.21 2.24 5.51 5.51 0 002.55-.61v3.37a7.094 7.094 0 01-3.71.92c-3.02-.01-5.16-1.34-5.16-5.28zM519.76 284.64h-2.28v-3.43h2.28v-1.33a6.076 6.076 0 011.46-4.42 5.414 5.414 0 014.01-1.43 10.87 10.87 0 013.37.48v3.47a7.29 7.29 0 00-2.41-.44c-1.56 0-2.38.88-2.38 2.72v.99h4.76v3.4h-4.69v14.42h-4.11v-14.43h-.01zM530.3 290.18v-.07a9.573 9.573 0 0119.14-.06v.07a9.573 9.573 0 01-19.14.06zm15.03 0v-.07a5.552 5.552 0 00-5.51-5.78 5.387 5.387 0 00-5.41 5.71v.07a5.536 5.536 0 005.47 5.75 5.393 5.393 0 005.45-5.68zM553.59 281.1h4.15v4.05c1.12-2.69 3.2-4.52 6.36-4.39v4.35h-.24c-3.6 0-6.12 2.35-6.12 7.11v6.83h-4.15V281.1zM567.64 281.1h4.15v2.72a6.43 6.43 0 015.47-3.09 5.701 5.701 0 015.37 3.16 7.23 7.23 0 016.05-3.16c3.91 0 6.29 2.48 6.29 6.87v11.46h-4.11v-10.2c0-2.86-1.33-4.39-3.64-4.39-2.24 0-3.84 1.56-3.84 4.45v10.13h-4.11v-10.23c0-2.79-1.36-4.35-3.64-4.35s-3.84 1.7-3.84 4.45v10.13h-4.15V281.1zM453.94 315.24h4.42v3.91h-4.42v-3.91zm.14 6.66h4.15v17.95h-4.15V321.9zM462.68 330.91v-.07c0-5.95 4.05-9.32 8.33-9.32a7.337 7.337 0 016.12 3.16v-9.66h4.11v24.82h-4.11v-2.99a7.2 7.2 0 01-6.12 3.37c-4.22 0-8.33-3.36-8.33-9.31zm14.52 0v-.07c0-3.47-2.45-5.75-5.2-5.75-2.82 0-5.17 2.21-5.17 5.75v.07c0 3.47 2.38 5.75 5.17 5.75 2.75 0 5.2-2.32 5.2-5.75zM485.43 330.94v-.07c0-5.13 3.64-9.35 8.77-9.35 5.71 0 8.6 4.49 8.6 9.66 0 .37-.03.75-.07 1.16h-13.19a5.02 5.02 0 005.17 4.56 6.524 6.524 0 004.86-2.14l2.41 2.14a9.086 9.086 0 01-7.34 3.37 8.968 8.968 0 01-9.21-9.33zm13.29-1.32c-.27-2.65-1.84-4.73-4.56-4.73-2.52 0-4.28 1.94-4.66 4.73h9.22zM506.91 321.9h4.15v2.75a6.502 6.502 0 015.61-3.13c4.05 0 6.39 2.72 6.39 6.87v11.46h-4.11v-10.2c0-2.79-1.39-4.39-3.84-4.39-2.38 0-4.05 1.67-4.05 4.45v10.13h-4.15V321.9zM528.88 334.89v-9.45h-2.28v-3.54h2.28v-4.93h4.11v4.93h4.83v3.54h-4.83v8.8a1.957 1.957 0 002.21 2.24 5.51 5.51 0 002.55-.61v3.37a7.094 7.094 0 01-3.71.92c-3.02 0-5.16-1.33-5.16-5.27zM542.07 315.24h4.42v3.91h-4.42v-3.91zm.13 6.66h4.15v17.95h-4.15V321.9zM552.64 325.44h-2.28v-3.43h2.28v-1.33a6.076 6.076 0 011.46-4.42 5.414 5.414 0 014.01-1.43 10.87 10.87 0 013.37.48v3.47a7.29 7.29 0 00-2.41-.44c-1.56 0-2.38.88-2.38 2.72v.99h4.76v3.4h-4.69v14.41h-4.11v-14.42h-.01zm11.93-10.2h4.42v3.91h-4.42v-3.91zm.14 6.66h4.15v17.95h-4.15V321.9zM573.25 330.94v-.07c0-5.13 3.64-9.35 8.77-9.35 5.71 0 8.6 4.49 8.6 9.66 0 .37-.03.75-.07 1.16h-13.19a5.02 5.02 0 005.17 4.56 6.524 6.524 0 004.86-2.14l2.41 2.14a9.086 9.086 0 01-7.34 3.37 8.968 8.968 0 01-9.21-9.33zm13.29-1.32c-.27-2.65-1.84-4.73-4.56-4.73-2.52 0-4.28 1.94-4.66 4.73h9.22zM594.73 321.9h4.15v4.05c1.12-2.69 3.2-4.52 6.36-4.39v4.35H605c-3.6 0-6.12 2.35-6.12 7.11v6.83h-4.15V321.9zM656.78 292.52V281.1h4.11v10.2c0 2.79 1.39 4.35 3.84 4.35 2.38 0 4.05-1.63 4.05-4.42V281.1h4.15v17.95h-4.15v-2.79a6.461 6.461 0 01-5.61 3.16c-4.04 0-6.39-2.72-6.39-6.9zM676.61 296.7l1.84-2.79a10.175 10.175 0 005.88 2.21c1.77 0 2.79-.75 2.79-1.94v-.07c0-1.39-1.9-1.87-4.01-2.52-2.65-.75-5.61-1.84-5.61-5.24v-.07c0-3.43 2.82-5.51 6.39-5.51a12.469 12.469 0 016.6 2.04l-1.63 2.92a10.446 10.446 0 00-5.07-1.7c-1.6 0-2.52.78-2.52 1.77v.07c0 1.33 1.94 1.87 4.05 2.55 2.62.82 5.58 2 5.58 5.24v.07c0 3.77-2.92 5.64-6.66 5.64a12.198 12.198 0 01-7.63-2.67zM694.12 290.14v-.07c0-5.13 3.64-9.35 8.77-9.35 5.71 0 8.6 4.49 8.6 9.66 0 .37-.03.75-.07 1.16h-13.19a5.02 5.02 0 005.17 4.56 6.524 6.524 0 004.86-2.14l2.41 2.14a9.086 9.086 0 01-7.34 3.37 8.968 8.968 0 01-9.21-9.33zm13.29-1.32c-.27-2.65-1.84-4.72-4.56-4.72-2.52 0-4.28 1.94-4.66 4.72h9.22zM715.6 281.1h4.15v4.05c1.12-2.69 3.2-4.52 6.36-4.39v4.35h-.24c-3.6 0-6.12 2.35-6.12 7.11v6.83h-4.15V281.1zM643.03 315.24h4.42v3.91h-4.42v-3.91zm.14 6.66h4.15v17.95h-4.15V321.9zM652.65 321.9h4.15v2.75a6.502 6.502 0 015.61-3.13c4.05 0 6.39 2.72 6.39 6.87v11.46h-4.11v-10.2c0-2.79-1.39-4.39-3.84-4.39-2.38 0-4.04 1.67-4.04 4.45v10.13h-4.15V321.9h-.01zM673.84 315.24h4.42v3.91h-4.42v-3.91zm.13 6.66h4.15v17.95h-4.15V321.9zM684.34 334.89v-9.45h-2.28v-3.54h2.28v-4.93h4.11v4.93h4.83v3.54h-4.83v8.8a1.957 1.957 0 002.21 2.24 5.51 5.51 0 002.55-.61v3.37a7.094 7.094 0 01-3.71.92c-3.02 0-5.16-1.33-5.16-5.27zM697.53 315.24h4.42v3.91h-4.42v-3.91zm.14 6.66h4.15v17.95h-4.15V321.9zM705.97 334.68v-.07c0-3.88 3.06-5.78 7.45-5.78a15.07 15.07 0 014.83.75v-.44c0-2.55-1.56-3.91-4.45-3.91a12.457 12.457 0 00-5.13 1.12l-1.12-3.23a15.642 15.642 0 016.8-1.46c2.69 0 4.69.71 5.95 2.01a7.436 7.436 0 011.94 5.54v10.64h-4.01v-2.24a7.292 7.292 0 01-5.85 2.62c-3.39-.01-6.41-1.94-6.41-5.55zm12.34-1.29v-1.22a11.36 11.36 0 00-4.08-.71c-2.65 0-4.22 1.12-4.22 2.99v.07c0 1.73 1.53 2.72 3.5 2.72 2.72-.01 4.8-1.57 4.8-3.85zM727.35 315.03h4.15v24.82h-4.15v-24.82zM735.41 337.5l1.84-2.79a10.175 10.175 0 005.88 2.21c1.77 0 2.79-.75 2.79-1.94v-.07c0-1.39-1.9-1.87-4.01-2.52-2.65-.75-5.61-1.84-5.61-5.24v-.07c0-3.43 2.82-5.51 6.39-5.51a12.469 12.469 0 016.6 2.04l-1.63 2.92a10.446 10.446 0 00-5.07-1.7c-1.6 0-2.52.78-2.52 1.77v.07c0 1.33 1.94 1.87 4.05 2.55 2.62.82 5.58 2.01 5.58 5.24v.07c0 3.77-2.92 5.64-6.66 5.64a12.198 12.198 0 01-7.63-2.67zM819.89 292.52V281.1H824v10.2c0 2.79 1.39 4.35 3.84 4.35 2.38 0 4.05-1.63 4.05-4.42V281.1h4.15v17.95h-4.15v-2.79a6.461 6.461 0 01-5.61 3.16c-4.04 0-6.39-2.72-6.39-6.9zM839.72 296.7l1.84-2.79a10.175 10.175 0 005.88 2.21c1.77 0 2.79-.75 2.79-1.94v-.07c0-1.39-1.9-1.87-4.01-2.52-2.65-.75-5.61-1.84-5.61-5.24v-.07c0-3.43 2.82-5.51 6.39-5.51a12.469 12.469 0 016.6 2.04l-1.63 2.92a10.446 10.446 0 00-5.07-1.7c-1.6 0-2.52.78-2.52 1.77v.07c0 1.33 1.94 1.87 4.04 2.55 2.62.82 5.58 2 5.58 5.24v.07c0 3.77-2.92 5.64-6.66 5.64a12.191 12.191 0 01-7.62-2.67zM857.23 290.14v-.07c0-5.13 3.64-9.35 8.77-9.35 5.71 0 8.6 4.49 8.6 9.66 0 .37-.04.75-.07 1.16h-13.19a5.02 5.02 0 005.17 4.56 6.524 6.524 0 004.86-2.14l2.41 2.14a9.086 9.086 0 01-7.34 3.37 8.968 8.968 0 01-9.21-9.33zm13.29-1.32c-.27-2.65-1.84-4.72-4.56-4.72-2.52 0-4.28 1.94-4.66 4.72h9.22zM878.72 281.1h4.15v4.05c1.12-2.69 3.2-4.52 6.36-4.39v4.35h-.24c-3.6 0-6.12 2.35-6.12 7.11v6.83h-4.15V281.1zM795.6 321.9h4.15v2.75a6.502 6.502 0 015.61-3.13c4.04 0 6.39 2.72 6.39 6.87v11.46h-4.11v-10.2c0-2.79-1.39-4.39-3.84-4.39-2.38 0-4.04 1.67-4.04 4.45v10.13h-4.15V321.9h-.01zM816.51 333.32V321.9h4.11v10.2c0 2.79 1.39 4.35 3.84 4.35 2.38 0 4.05-1.63 4.05-4.42V321.9h4.15v17.95h-4.15v-2.79a6.461 6.461 0 01-5.61 3.16c-4.04 0-6.39-2.72-6.39-6.9zM837.76 321.9h4.15v2.72a6.43 6.43 0 015.47-3.09 5.701 5.701 0 015.37 3.16 7.23 7.23 0 016.05-3.16c3.91 0 6.29 2.48 6.29 6.87v11.46h-4.11v-10.2c0-2.86-1.33-4.39-3.64-4.39-2.24 0-3.84 1.56-3.84 4.45v10.13h-4.11v-10.23c0-2.79-1.36-4.35-3.64-4.35s-3.84 1.7-3.84 4.45v10.13h-4.15V321.9zM874.18 337.06v2.79h-4.15v-24.82h4.15v9.86a7.2 7.2 0 016.12-3.37c4.21 0 8.33 3.33 8.33 9.32v.07c0 5.95-4.08 9.32-8.33 9.32a7.33 7.33 0 01-6.12-3.17zm10.26-6.15v-.07c0-3.47-2.38-5.75-5.13-5.75a5.415 5.415 0 00-5.24 5.75v.07a5.42 5.42 0 005.24 5.75c2.82 0 5.13-2.21 5.13-5.75zM891.89 330.94v-.07c0-5.13 3.64-9.35 8.77-9.35 5.71 0 8.6 4.49 8.6 9.66 0 .37-.04.75-.07 1.16H896a5.02 5.02 0 005.17 4.56 6.524 6.524 0 004.86-2.14l2.41 2.14a9.086 9.086 0 01-7.34 3.37 8.968 8.968 0 01-9.21-9.33zm13.29-1.32c-.27-2.65-1.84-4.73-4.56-4.73-2.52 0-4.28 1.94-4.66 4.73h9.22zM913.38 321.9h4.15v4.05c1.12-2.69 3.2-4.52 6.36-4.39v4.35h-.24c-3.6 0-6.12 2.35-6.12 7.11v6.83h-4.15V321.9z"/></svg>