<svg xmlns="http://www.w3.org/2000/svg" width="815" height="514" viewBox="0 0 815 514" xmlns:xlink="http://www.w3.org/1999/xlink"><defs><filter id="g" width="106.5%" height="110%" x="-3.3%" y="-3.6%" filterUnits="objectBoundingBox"><feOffset dy="2" in="SourceAlpha" result="shadowOffsetOuter1"/><feGaussianBlur stdDeviation="2" in="shadowOffsetOuter1" result="shadowBlurOuter1"/><feColorMatrix values="0 0 0 0 0.908056973 0 0 0 0 0.908056973 0 0 0 0 0.908056973 0 0 0 0.5 0" in="shadowBlurOuter1"/></filter><filter id="m" width="102.9%" height="104.8%" x="-1.4%" y="-1.7%" filterUnits="objectBoundingBox"><feOffset dy="2" in="SourceAlpha" result="shadowOffsetOuter1"/><feGaussianBlur stdDeviation="2" in="shadowOffsetOuter1" result="shadowBlurOuter1"/><feColorMatrix values="0 0 0 0 0.908056973 0 0 0 0 0.908056973 0 0 0 0 0.908056973 0 0 0 0.5 0" in="shadowBlurOuter1"/></filter><filter id="c" width="106.5%" height="110%" x="-3.3%" y="-3.6%" filterUnits="objectBoundingBox"><feOffset dy="2" in="SourceAlpha" result="shadowOffsetOuter1"/><feGaussianBlur stdDeviation="2" in="shadowOffsetOuter1" result="shadowBlurOuter1"/><feColorMatrix values="0 0 0 0 0.908056973 0 0 0 0 0.908056973 0 0 0 0 0.908056973 0 0 0 0.5 0" in="shadowBlurOuter1"/></filter><filter id="k" width="106.1%" height="108.4%" x="-3%" y="-3%" filterUnits="objectBoundingBox"><feOffset dy="2" in="SourceAlpha" result="shadowOffsetOuter1"/><feGaussianBlur stdDeviation="2" in="shadowOffsetOuter1" result="shadowBlurOuter1"/><feColorMatrix values="0 0 0 0 0.908056973 0 0 0 0 0.908056973 0 0 0 0 0.908056973 0 0 0 0.5 0" in="shadowBlurOuter1"/></filter><filter id="e" width="106.5%" height="109%" x="-3.3%" y="-3.2%" filterUnits="objectBoundingBox"><feOffset dy="2" in="SourceAlpha" result="shadowOffsetOuter1"/><feGaussianBlur stdDeviation="2" in="shadowOffsetOuter1" result="shadowBlurOuter1"/><feColorMatrix values="0 0 0 0 0.908056973 0 0 0 0 0.908056973 0 0 0 0 0.908056973 0 0 0 0.5 0" in="shadowBlurOuter1"/></filter><filter id="i" width="105.6%" height="108.4%" x="-2.8%" y="-3%" filterUnits="objectBoundingBox"><feOffset dy="2" in="SourceAlpha" result="shadowOffsetOuter1"/><feGaussianBlur stdDeviation="2" in="shadowOffsetOuter1" result="shadowBlurOuter1"/><feColorMatrix values="0 0 0 0 0.908056973 0 0 0 0 0.908056973 0 0 0 0 0.908056973 0 0 0 0.5 0" in="shadowBlurOuter1"/></filter><rect id="d" width="215" height="140" rx="2"/><rect id="j" width="248" height="166" rx="2"/><rect id="h" width="215" height="140" rx="2"/><rect id="l" width="231" height="166" rx="2"/><rect id="f" width="215" height="156" rx="2"/><rect id="n" width="490" height="290" rx="2"/><path id="a" d="M0 0h815v514H0z"/></defs><g fill="none" fill-rule="evenodd"><mask id="b" fill="#fff"><use xlink:href="#a"/></mask><use fill="#F7FAFC" xlink:href="#a"/><path fill="#30405C" d="M89.815 57.075h1.62L95.8 46.5h-1.995l-3.15 8.07-3.165-8.07h-2.04l4.365 10.575zm9.505.09c1.23 0 1.965-.645 2.475-1.395V57h1.815v-7.92h-1.815v4.47c0 1.23-.735 1.965-1.785 1.965-1.08 0-1.695-.705-1.695-1.935v-4.5H96.5v5.04c0 1.845 1.035 3.045 2.82 3.045zm6.475-.165h1.815V46.05h-1.815V57zm3.985 0h1.815v-4.47c0-1.23.735-1.965 1.785-1.965 1.08 0 1.695.705 1.695 1.935V57h1.815v-5.04c0-1.845-1.035-3.045-2.82-3.045-1.23 0-1.965.645-2.475 1.395v-1.23h-1.815V57zm12.73.18c-2.295 0-4.065-1.665-4.065-4.11v-.03c0-2.265 1.605-4.125 3.87-4.125 2.52 0 3.795 1.98 3.795 4.26 0 .165-.015.33-.03.51h-5.82c.195 1.29 1.11 2.01 2.28 2.01.885 0 1.515-.33 2.145-.945l1.065.945c-.75.9-1.785 1.485-3.24 1.485zm-2.265-4.695h4.065c-.12-1.17-.81-2.085-2.01-2.085-1.11 0-1.89.855-2.055 2.085zM127.74 57h1.815v-3.015c0-2.1 1.11-3.135 2.7-3.135h.105v-1.92c-1.395-.06-2.31.75-2.805 1.935V49.08h-1.815V57zm12.265 0h-1.8v-.975c-.54.645-1.365 1.14-2.565 1.14-1.5 0-2.82-.855-2.82-2.445v-.03c0-1.755 1.365-2.595 3.21-2.595.96 0 1.575.135 2.19.33v-.15c0-1.095-.69-1.695-1.95-1.695-.885 0-1.545.195-2.265.495l-.495-1.455c.87-.39 1.725-.66 3.015-.66 2.34 0 3.48 1.23 3.48 3.345V57zm-1.755-2.865v-.45a5.185 5.185 0 00-1.815-.315c-1.14 0-1.815.465-1.815 1.23v.03c0 .75.675 1.17 1.53 1.17 1.2 0 2.1-.675 2.1-1.665zm8.215 3.03c-1.305 0-2.13-.66-2.685-1.395V57h-1.815V46.05h1.815v4.35c.585-.825 1.41-1.485 2.685-1.485 1.875 0 3.69 1.485 3.69 4.11v.03c0 2.625-1.8 4.11-3.69 4.11zm-.42-1.575c1.245 0 2.265-.975 2.265-2.535v-.03c0-1.53-1.035-2.535-2.265-2.535-1.23 0-2.31 1.02-2.31 2.535v.03c0 1.53 1.08 2.535 2.31 2.535zm5.8-7.725h1.95V46.14h-1.95v1.725zM151.92 57h1.815v-7.92h-1.815V57zm4.09 0h1.815V46.05h-1.815V57zm4.015-9.135h1.95V46.14h-1.95v1.725zM160.1 57h1.815v-7.92H160.1V57zm6.64.135c.675 0 1.185-.15 1.635-.405v-1.485c-.36.18-.72.27-1.125.27-.615 0-.975-.285-.975-.99V50.64h2.13v-1.56h-2.13v-2.175h-1.815v2.175h-1.005v1.56h1.005v4.17c0 1.74.945 2.325 2.28 2.325zm4.915 2.31c1.275 0 1.98-.6 2.61-2.22l3.15-8.145h-1.89l-2.055 5.88-2.25-5.88h-1.935l3.3 7.92c-.3.69-.615.915-1.125.915-.375 0-.735-.12-1.065-.3l-.615 1.35c.555.3 1.11.48 1.875.48zM183.285 57h1.815v-7.5l3.285 4.92h.06l3.315-4.95V57h1.845V46.5h-1.965l-3.195 4.965-3.195-4.965h-1.965V57zm19.255 0h-1.8v-.975c-.54.645-1.365 1.14-2.565 1.14-1.5 0-2.82-.855-2.82-2.445v-.03c0-1.755 1.365-2.595 3.21-2.595.96 0 1.575.135 2.19.33v-.15c0-1.095-.69-1.695-1.95-1.695-.885 0-1.545.195-2.265.495l-.495-1.455c.87-.39 1.725-.66 3.015-.66 2.34 0 3.48 1.23 3.48 3.345V57zm-1.755-2.865v-.45a5.185 5.185 0 00-1.815-.315c-1.14 0-1.815.465-1.815 1.23v.03c0 .75.675 1.17 1.53 1.17 1.2 0 2.1-.675 2.1-1.665zM204.5 57h1.815v-4.47c0-1.23.735-1.965 1.785-1.965 1.08 0 1.695.705 1.695 1.935V57h1.815v-5.04c0-1.845-1.035-3.045-2.82-3.045-1.23 0-1.965.645-2.475 1.395v-1.23H204.5V57zm15.745 0h-1.8v-.975c-.54.645-1.365 1.14-2.565 1.14-1.5 0-2.82-.855-2.82-2.445v-.03c0-1.755 1.365-2.595 3.21-2.595.96 0 1.575.135 2.19.33v-.15c0-1.095-.69-1.695-1.95-1.695-.885 0-1.545.195-2.265.495l-.495-1.455c.87-.39 1.725-.66 3.015-.66 2.34 0 3.48 1.23 3.48 3.345V57zm-1.755-2.865v-.45a5.185 5.185 0 00-1.815-.315c-1.14 0-1.815.465-1.815 1.23v.03c0 .75.675 1.17 1.53 1.17 1.2 0 2.1-.675 2.1-1.665zm7.24 5.295c-1.305 0-2.52-.33-3.54-.945l.675-1.365c.84.525 1.74.84 2.82.84 1.62 0 2.505-.84 2.505-2.43v-.615c-.66.855-1.485 1.455-2.79 1.455-1.86 0-3.6-1.38-3.6-3.705v-.03c0-2.34 1.755-3.72 3.6-3.72 1.335 0 2.16.615 2.775 1.35V49.08h1.815v6.3c0 1.335-.345 2.325-1.005 2.985-.72.72-1.83 1.065-3.255 1.065zm.15-4.59c1.26 0 2.325-.9 2.325-2.175v-.03c0-1.305-1.065-2.19-2.325-2.19-1.26 0-2.25.87-2.25 2.175v.03c0 1.305 1.005 2.19 2.25 2.19zm9.805 2.34c-2.295 0-4.065-1.665-4.065-4.11v-.03c0-2.265 1.605-4.125 3.87-4.125 2.52 0 3.795 1.98 3.795 4.26 0 .165-.015.33-.03.51h-5.82c.195 1.29 1.11 2.01 2.28 2.01.885 0 1.515-.33 2.145-.945l1.065.945c-.75.9-1.785 1.485-3.24 1.485zm-2.265-4.695h4.065c-.12-1.17-.81-2.085-2.01-2.085-1.11 0-1.89.855-2.055 2.085zM240.915 57h1.815v-4.455c0-1.23.69-1.98 1.695-1.98 1.005 0 1.605.69 1.605 1.92V57h1.815v-4.47c0-1.275.705-1.965 1.695-1.965 1.02 0 1.605.675 1.605 1.935V57h1.815v-5.055c0-1.935-1.05-3.03-2.775-3.03-1.2 0-2.04.555-2.685 1.395-.42-.84-1.215-1.395-2.355-1.395-1.215 0-1.905.66-2.415 1.365v-1.2h-1.815V57zm17.68.18c-2.295 0-4.065-1.665-4.065-4.11v-.03c0-2.265 1.605-4.125 3.87-4.125 2.52 0 3.795 1.98 3.795 4.26 0 .165-.015.33-.03.51h-5.82c.195 1.29 1.11 2.01 2.28 2.01.885 0 1.515-.33 2.145-.945l1.065.945c-.75.9-1.785 1.485-3.24 1.485zm-2.265-4.695h4.065c-.12-1.17-.81-2.085-2.01-2.085-1.11 0-1.89.855-2.055 2.085zM263.825 57h1.815v-4.47c0-1.23.735-1.965 1.785-1.965 1.08 0 1.695.705 1.695 1.935V57h1.815v-5.04c0-1.845-1.035-3.045-2.82-3.045-1.23 0-1.965.645-2.475 1.395v-1.23h-1.815V57zm11.755.135c.675 0 1.185-.15 1.635-.405v-1.485c-.36.18-.72.27-1.125.27-.615 0-.975-.285-.975-.99V50.64h2.13v-1.56h-2.13v-2.175H273.3v2.175h-1.005v1.56h1.005v4.17c0 1.74.945 2.325 2.28 2.325z" mask="url(#b)"/><g transform="translate(698 40)" mask="url(#b)"><rect width="67" height="24" fill="#2E8BE0" rx="2"/><path fill="#FFF" d="M9.9 15h1.21v-4.98L14.97 15H16V8h-1.21v4.84L11.04 8H9.9v7zm10.18.12c-1.53 0-2.71-1.11-2.71-2.74v-.02c0-1.51 1.07-2.75 2.58-2.75 1.68 0 2.53 1.32 2.53 2.84 0 .11-.01.22-.02.34h-3.88c.13.86.74 1.34 1.52 1.34.59 0 1.01-.22 1.43-.63l.71.63c-.5.6-1.19.99-2.16.99zm-1.51-3.13h2.71c-.08-.78-.54-1.39-1.34-1.39-.74 0-1.26.57-1.37 1.39zm6.4 3.05h1.08l1.19-3.61 1.18 3.61h1.08l1.73-5.32h-1.21l-1.08 3.62-1.18-3.64h-1.03l-1.17 3.64-1.06-3.62h-1.24l1.71 5.32zm12.15.06c1.1 0 1.96-.55 1.96-1.66v-.02c0-.95-.87-1.3-1.64-1.54-.62-.2-1.19-.36-1.19-.74v-.02c0-.31.27-.53.74-.53.44 0 .98.19 1.49.5l.48-.86c-.56-.37-1.28-.6-1.94-.6-1.05 0-1.88.61-1.88 1.61v.02c0 1.01.87 1.33 1.65 1.55.62.19 1.18.33 1.18.74v.02c0 .35-.3.57-.82.57-.54 0-1.16-.22-1.73-.65l-.54.82c.66.52 1.49.79 2.24.79zm5.63.02c1.03 0 1.64-.41 2.16-.99l-.73-.72c-.38.39-.8.66-1.37.66-.93 0-1.58-.76-1.58-1.7v-.02c0-.92.64-1.68 1.52-1.68.61 0 1 .27 1.37.66l.75-.81c-.49-.54-1.11-.91-2.11-.91-1.58 0-2.74 1.26-2.74 2.76v.02c0 1.5 1.16 2.73 2.73 2.73zm7.7-.12h-1.2v-.65c-.36.43-.91.76-1.71.76-1 0-1.88-.57-1.88-1.63v-.02c0-1.17.91-1.73 2.14-1.73.64 0 1.05.09 1.46.22v-.1c0-.73-.46-1.13-1.3-1.13-.59 0-1.03.13-1.51.33l-.33-.97c.58-.26 1.15-.44 2.01-.44 1.56 0 2.32.82 2.32 2.23V15zm-1.17-1.91v-.3c-.31-.12-.74-.21-1.21-.21-.76 0-1.21.31-1.21.82v.02c0 .5.45.78 1.02.78.8 0 1.4-.45 1.4-1.11zM51.89 15h1.21v-2.98c0-.82.49-1.31 1.19-1.31.72 0 1.13.47 1.13 1.29v3h1.21v-3.36c0-1.23-.69-2.03-1.88-2.03-.82 0-1.31.43-1.65.93v-.82h-1.21V15z"/></g><g mask="url(#b)"><g transform="translate(550 229)"><use fill="#000" filter="url(#c)" xlink:href="#d"/><use fill="#FFF" xlink:href="#d"/></g><path fill="#30405C" d="M580.9 267h1.21v-4.98l3.86 4.98H587v-7h-1.21v4.84l-3.75-4.84h-1.14v7zm8.6 0h5.24v-1.1h-4.01v-1.88h3.51v-1.1h-3.51v-1.82h3.96V260h-5.19v7zm9.3.05h1.06l1.72-5.03 1.72 5.03h1.06l2.44-7.05h-1.29l-1.67 5.19-1.72-5.21h-1.04l-1.72 5.21-1.67-5.19h-1.33l2.44 7.05zm13.66-.05h1.21v-5l2.19 3.28h.04l2.21-3.3V267h1.23v-7h-1.31l-2.13 3.31-2.13-3.31h-1.31v7zm11.83.1c1.47 0 2.5-.78 2.5-2.09v-.02c0-1.16-.77-1.69-2.25-2.05-1.34-.32-1.66-.56-1.66-1.1v-.02c0-.46.42-.83 1.14-.83.64 0 1.27.25 1.9.72l.66-.93c-.71-.57-1.52-.88-2.54-.88-1.39 0-2.39.83-2.39 2.03v.02c0 1.29.84 1.73 2.33 2.09 1.3.3 1.58.57 1.58 1.07v.02c0 .53-.48.88-1.24.88-.87 0-1.54-.33-2.21-.91l-.74.88c.84.75 1.85 1.12 2.92 1.12zm8.35-.1v-7h2.76c1.63 0 2.66.93 2.66 2.34v.02c0 1.57-1.26 2.39-2.8 2.39h-1.39V267h-1.23zm1.23-3.36h1.43c.93 0 1.51-.52 1.51-1.25v-.02c0-.82-.59-1.25-1.51-1.25h-1.43v2.52zm4.85 3.36l3.08-7.05h1.14l3.08 7.05h-1.3l-.71-1.69h-3.31l-.72 1.69h-1.26zm2.43-2.78h2.41l-1.21-2.8-1.2 2.8zm7.59 2.78h1.24v-5.86h2.22V260h-5.68v1.14h2.22V267zm8.33.12c1.31 0 2.11-.48 2.84-1.24l-.79-.8c-.6.56-1.15.91-2.01.91-1.34 0-2.31-1.12-2.31-2.49v-.02c0-1.37.97-2.47 2.31-2.47.8 0 1.4.35 1.96.87l.79-.91c-.67-.64-1.45-1.09-2.74-1.09-2.12 0-3.61 1.63-3.61 3.62v.02c0 2.01 1.52 3.6 3.56 3.6zm4.83-.12h1.23v-2.95h3.34V267h1.23v-7h-1.23v2.91h-3.34V260h-1.23v7zm12 0v-7h3.12c.88 0 1.57.26 2.02.7.37.38.58.9.58 1.51v.02c0 1.15-.69 1.84-1.67 2.12l1.89 2.65h-1.45l-1.72-2.44h-1.54V267h-1.23zm1.23-3.53h1.8c.88 0 1.44-.46 1.44-1.17v-.02c0-.75-.54-1.16-1.45-1.16h-1.79v2.35zm6.7 3.53h5.24v-1.1h-4.01v-1.88h3.51v-1.1h-3.51v-1.82h3.96V260h-5.19v7zm7.4 0h4.91v-1.12h-3.68V260h-1.23v7zm6.89 0h5.24v-1.1h-4.01v-1.88h3.51v-1.1h-3.51v-1.82h3.96V260h-5.19v7zm6.8 0l3.08-7.05h1.14l3.08 7.05h-1.3l-.71-1.69h-3.31l-.72 1.69h-1.26zm2.43-2.78h2.41l-1.21-2.8-1.2 2.8zm9.1 2.88c1.47 0 2.5-.78 2.5-2.09v-.02c0-1.16-.77-1.69-2.25-2.05-1.34-.32-1.66-.56-1.66-1.1v-.02c0-.46.42-.83 1.14-.83.64 0 1.27.25 1.9.72l.66-.93c-.71-.57-1.52-.88-2.54-.88-1.39 0-2.39.83-2.39 2.03v.02c0 1.29.84 1.73 2.33 2.09 1.3.3 1.58.57 1.58 1.07v.02c0 .53-.48.88-1.24.88-.87 0-1.54-.33-2.21-.91l-.74.88c.84.75 1.85 1.12 2.92 1.12zm4.65-.1h5.24v-1.1h-4.01v-1.88h3.51v-1.1h-3.51v-1.82h3.96V260h-5.19v7zm9.85.1c1.47 0 2.5-.78 2.5-2.09v-.02c0-1.16-.77-1.69-2.25-2.05-1.34-.32-1.66-.56-1.66-1.1v-.02c0-.46.42-.83 1.14-.83.64 0 1.27.25 1.9.72l.66-.93c-.71-.57-1.52-.88-2.54-.88-1.39 0-2.39.83-2.39 2.03v.02c0 1.29.84 1.73 2.33 2.09 1.3.3 1.58.57 1.58 1.07v.02c0 .53-.48.88-1.24.88-.87 0-1.54-.33-2.21-.91l-.74.88c.84.75 1.85 1.12 2.92 1.12z"/><path fill="#E5E7EB" d="M580 289h153v5H580zm0 20h139.427v5H580zm0 20h144.94v5H580z"/></g><g transform="translate(550 379)" mask="url(#b)"><use fill="#000" filter="url(#e)" xlink:href="#f"/><use fill="#FFF" xlink:href="#f"/><path fill="#30405C" d="M30.9 38h4.91v-1.12h-3.68V31H30.9v7zm6.29 0l3.08-7.05h1.14L44.49 38h-1.3l-.71-1.69h-3.31L38.45 38h-1.26zm2.43-2.78h2.41l-1.21-2.8-1.2 2.8zM47.21 38h1.24v-5.86h2.22V31h-5.68v1.14h2.22V38zm5.46 0h5.24v-1.1H53.9v-1.88h3.51v-1.1H53.9V32.1h3.96V31h-5.19v7zm9.85.1c1.47 0 2.5-.78 2.5-2.09v-.02c0-1.16-.77-1.69-2.25-2.05-1.34-.32-1.66-.56-1.66-1.1v-.02c0-.46.42-.83 1.14-.83.64 0 1.27.25 1.9.72l.66-.93c-.71-.57-1.52-.88-2.54-.88-1.39 0-2.39.83-2.39 2.03v.02c0 1.29.84 1.73 2.33 2.09 1.3.3 1.58.57 1.58 1.07v.02c0 .53-.48.88-1.24.88-.87 0-1.54-.33-2.21-.91l-.74.88c.84.75 1.85 1.12 2.92 1.12zm6.22-.1h1.24v-5.86h2.22V31h-5.68v1.14h2.22V38zm9.16 0v-7h3.12c.88 0 1.57.26 2.02.7.37.38.58.9.58 1.51v.02c0 1.15-.69 1.84-1.67 2.12L83.84 38h-1.45l-1.72-2.44h-1.54V38H77.9zm1.23-3.53h1.8c.88 0 1.44-.46 1.44-1.17v-.02c0-.75-.54-1.16-1.45-1.16h-1.79v2.35zm6.7 3.53h5.24v-1.1h-4.01v-1.88h3.51v-1.1h-3.51V32.1h3.96V31h-5.19v7zm7.4 0v-7h2.76c1.63 0 2.66.93 2.66 2.34v.02c0 1.57-1.26 2.39-2.8 2.39h-1.39V38h-1.23zm1.23-3.36h1.43c.93 0 1.51-.52 1.51-1.25v-.02c0-.82-.59-1.25-1.51-1.25h-1.43v2.52zm9.49 3.48c-2.15 0-3.65-1.63-3.65-3.6v-.02c0-1.97 1.52-3.62 3.67-3.62s3.65 1.63 3.65 3.6v.02c0 1.97-1.52 3.62-3.67 3.62zm.02-1.13c1.39 0 2.36-1.11 2.36-2.47v-.02c0-1.36-.99-2.49-2.38-2.49s-2.36 1.11-2.36 2.47v.02c0 1.36.99 2.49 2.38 2.49zm5.84 1.01v-7h3.12c.88 0 1.57.26 2.02.7.37.38.58.9.58 1.51v.02c0 1.15-.69 1.84-1.67 2.12l1.89 2.65h-1.45l-1.72-2.44h-1.54V38h-1.23zm1.23-3.53h1.8c.88 0 1.44-.46 1.44-1.17v-.02c0-.75-.54-1.16-1.45-1.16h-1.79v2.35zm8.39 3.53h1.24v-5.86h2.22V31h-5.68v1.14h2.22V38zm7.91.1c1.47 0 2.5-.78 2.5-2.09v-.02c0-1.16-.77-1.69-2.25-2.05-1.34-.32-1.66-.56-1.66-1.1v-.02c0-.46.42-.83 1.14-.83.64 0 1.27.25 1.9.72l.66-.93c-.71-.57-1.52-.88-2.54-.88-1.39 0-2.39.83-2.39 2.03v.02c0 1.29.84 1.73 2.33 2.09 1.3.3 1.58.57 1.58 1.07v.02c0 .53-.48.88-1.24.88-.87 0-1.54-.33-2.21-.91l-.74.88c.84.75 1.85 1.12 2.92 1.12z"/><rect width="7" height="7" x="30" y="60" fill="#2FA8E0" rx="3.5"/><rect width="7" height="7" x="30" y="80" fill="#2E8BE0" rx="3.5"/><rect width="7" height="7" x="30" y="100" fill="#2FC6E0" rx="3.5"/><rect width="7" height="7" x="30" y="120" fill="#2E8BE0" rx="3.5"/><path fill="#E5E7EB" d="M50 61h120v5H50zm0 20h136v5H50zm0 20h120v5H50zm0 20h136v5H50z"/></g><g transform="translate(550 79)" mask="url(#b)"><use fill="#000" filter="url(#g)" xlink:href="#h"/><use fill="#FFF" xlink:href="#h"/><path fill="#30405C" d="M32.62 38h1.24v-5.86h2.22V31H30.4v1.14h2.22V38zm8.42.12c-2.15 0-3.65-1.63-3.65-3.6v-.02c0-1.97 1.52-3.62 3.67-3.62s3.65 1.63 3.65 3.6v.02c0 1.97-1.52 3.62-3.67 3.62zm.02-1.13c1.39 0 2.36-1.11 2.36-2.47v-.02c0-1.36-.99-2.49-2.38-2.49s-2.36 1.11-2.36 2.47v.02c0 1.36.99 2.49 2.38 2.49zM46.9 38v-7h2.76c1.63 0 2.66.93 2.66 2.34v.02c0 1.57-1.26 2.39-2.8 2.39h-1.39V38H46.9zm1.23-3.36h1.43c.93 0 1.51-.52 1.51-1.25v-.02c0-.82-.59-1.25-1.51-1.25h-1.43v2.52zM58.86 38h1.22v-7.05h-.86l-1.88.6.26 1 1.26-.35V38zm6.49.12c-1.84 0-3.04-1.6-3.04-3.6v-.02c0-2 1.22-3.62 3.06-3.62 1.83 0 3.04 1.6 3.04 3.6v.02c0 2-1.22 3.62-3.06 3.62zm.02-1.11c1.09 0 1.77-1.11 1.77-2.49v-.02c0-1.38-.71-2.51-1.79-2.51s-1.77 1.1-1.77 2.49v.02c0 1.38.7 2.51 1.79 2.51zm11.22 1.04h1.08L80.58 31h-1.33l-2.1 5.38L75.04 31h-1.36l2.91 7.05zm8.76.06c1.83 0 3.01-1.05 3.01-3.14V31h-1.23v4.03c0 1.29-.67 1.95-1.76 1.95-1.1 0-1.77-.7-1.77-2V31h-1.23v4.03c0 2.03 1.16 3.08 2.98 3.08zm5.4-.11h4.91v-1.12h-3.68V31h-1.23v7zm6.89 0h1.21v-4.98l3.86 4.98h1.03v-7h-1.21v4.84L98.78 31h-1.14v7zm8.6 0h5.24v-1.1h-4.01v-1.88h3.51v-1.1h-3.51V32.1h3.96V31h-5.19v7zm7.4 0v-7h3.12c.88 0 1.57.26 2.02.7.37.38.58.9.58 1.51v.02c0 1.15-.69 1.84-1.67 2.12l1.89 2.65h-1.45l-1.72-2.44h-1.54V38h-1.23zm1.23-3.53h1.8c.88 0 1.44-.46 1.44-1.17v-.02c0-.75-.54-1.16-1.45-1.16h-1.79v2.35zm6.1 3.53l3.08-7.05h1.14l3.08 7.05h-1.3l-.71-1.69h-3.31l-.72 1.69h-1.26zm2.43-2.78h2.41l-1.21-2.8-1.2 2.8zm6.77 2.78v-7h3.14c.8 0 1.43.22 1.83.62.31.31.47.69.47 1.16v.02c0 .84-.48 1.29-1 1.56.82.28 1.39.75 1.39 1.7v.02c0 1.25-1.03 1.92-2.59 1.92h-3.24zm1.21-4.05h1.68c.79 0 1.32-.31 1.32-.95v-.02c0-.55-.44-.89-1.23-.89h-1.77v1.86zm0 2.96h2.04c.84 0 1.35-.33 1.35-.96v-.02c0-.59-.47-.94-1.44-.94h-1.95v1.92zm6.78 1.09h1.23v-7h-1.23v7zm3.8 0h4.91v-1.12h-3.68V31h-1.23v7zm6.96 0h1.23v-7h-1.23v7zm5.52 0h1.24v-5.86h2.22V31h-5.68v1.14h2.22V38zm5.53 0h1.23v-7h-1.23v7zm3.8 0h5.24v-1.1H165v-1.88h3.51v-1.1H165V32.1h3.96V31h-5.19v7zm9.85.1c1.47 0 2.5-.78 2.5-2.09v-.02c0-1.16-.77-1.69-2.25-2.05-1.34-.32-1.66-.56-1.66-1.1v-.02c0-.46.42-.83 1.14-.83.64 0 1.27.25 1.9.72l.66-.93c-.71-.57-1.52-.88-2.54-.88-1.39 0-2.39.83-2.39 2.03v.02c0 1.29.84 1.73 2.33 2.09 1.3.3 1.58.57 1.58 1.07v.02c0 .53-.48.88-1.24.88-.87 0-1.54-.33-2.21-.91l-.74.88c.84.75 1.85 1.12 2.92 1.12z"/><path fill="#E5E7EB" d="M30 60h127v5H30zm0 20h112.007v5H30zm0 20h121.994v5H30z"/><rect width="12" height="5" x="173" y="60" fill="#4346E0" rx="1"/><rect width="12" height="5" x="173" y="80" fill="#4346E0" rx="1"/><rect width="12" height="5" x="173" y="100" fill="#4346E0" rx="1"/></g><g transform="translate(291 379)" mask="url(#b)"><use fill="#000" filter="url(#i)" xlink:href="#j"/><use fill="#FFF" xlink:href="#j"/><path fill="#30405C" d="M30.9 38h1.21v-5l2.19 3.28h.04l2.21-3.3V38h1.23v-7h-1.31l-2.13 3.31L32.21 31H30.9v7zm12.72.12c-2.15 0-3.65-1.63-3.65-3.6v-.02c0-1.97 1.52-3.62 3.67-3.62s3.65 1.63 3.65 3.6v.02c0 1.97-1.52 3.62-3.67 3.62zm.02-1.13c1.39 0 2.36-1.11 2.36-2.47v-.02c0-1.36-.99-2.49-2.38-2.49s-2.36 1.11-2.36 2.47v.02c0 1.36.99 2.49 2.38 2.49zm8.24 1.11c1.47 0 2.5-.78 2.5-2.09v-.02c0-1.16-.77-1.69-2.25-2.05-1.34-.32-1.66-.56-1.66-1.1v-.02c0-.46.42-.83 1.14-.83.64 0 1.27.25 1.9.72l.66-.93c-.71-.57-1.52-.88-2.54-.88-1.39 0-2.39.83-2.39 2.03v.02c0 1.29.84 1.73 2.33 2.09 1.3.3 1.58.57 1.58 1.07v.02c0 .53-.48.88-1.24.88-.87 0-1.54-.33-2.21-.91l-.74.88c.84.75 1.85 1.12 2.92 1.12zm6.22-.1h1.24v-5.86h2.22V31h-5.68v1.14h2.22V38zm11.47.05h1.08L73.56 31h-1.33l-2.1 5.38L68.02 31h-1.36l2.91 7.05zm8.76.06c1.83 0 3.01-1.05 3.01-3.14V31h-1.23v4.03c0 1.29-.67 1.95-1.76 1.95-1.1 0-1.77-.7-1.77-2V31h-1.23v4.03c0 2.03 1.16 3.08 2.98 3.08zm5.4-.11h4.91v-1.12h-3.68V31h-1.23v7zm6.89 0h1.21v-4.98L95.69 38h1.03v-7h-1.21v4.84L91.76 31h-1.14v7zm8.6 0h5.24v-1.1h-4.01v-1.88h3.51v-1.1h-3.51V32.1h3.96V31h-5.19v7zm7.4 0v-7h3.12c.88 0 1.57.26 2.02.7.37.38.58.9.58 1.51v.02c0 1.15-.69 1.84-1.67 2.12l1.89 2.65h-1.45l-1.72-2.44h-1.54V38h-1.23zm1.23-3.53h1.8c.88 0 1.44-.46 1.44-1.17v-.02c0-.75-.54-1.16-1.45-1.16h-1.79v2.35zm6.1 3.53l3.08-7.05h1.14l3.08 7.05h-1.3l-.71-1.69h-3.31l-.72 1.69h-1.26zm2.43-2.78h2.41l-1.21-2.8-1.2 2.8zm6.77 2.78v-7h3.14c.8 0 1.43.22 1.83.62.31.31.47.69.47 1.16v.02c0 .84-.48 1.29-1 1.56.82.28 1.39.75 1.39 1.7v.02c0 1.25-1.03 1.92-2.59 1.92h-3.24zm1.21-4.05h1.68c.79 0 1.32-.31 1.32-.95v-.02c0-.55-.44-.89-1.23-.89h-1.77v1.86zm0 2.96h2.04c.84 0 1.35-.33 1.35-.96v-.02c0-.59-.47-.94-1.44-.94h-1.95v1.92zm6.71 1.09h4.91v-1.12h-3.68V31h-1.23v7zm6.89 0h5.24v-1.1h-4.01v-1.88h3.51v-1.1h-3.51V32.1h3.96V31h-5.19v7zm11.1 0h1.23v-2.95h3.34V38h1.23v-7h-1.23v2.91h-3.34V31h-1.23v7zm11.64.12c-2.15 0-3.65-1.63-3.65-3.6v-.02c0-1.97 1.52-3.62 3.67-3.62s3.65 1.63 3.65 3.6v.02c0 1.97-1.52 3.62-3.67 3.62zm.02-1.13c1.39 0 2.36-1.11 2.36-2.47v-.02c0-1.36-.99-2.49-2.38-2.49s-2.36 1.11-2.36 2.47v.02c0 1.36.99 2.49 2.38 2.49zm8.24 1.11c1.47 0 2.5-.78 2.5-2.09v-.02c0-1.16-.77-1.69-2.25-2.05-1.34-.32-1.66-.56-1.66-1.1v-.02c0-.46.42-.83 1.14-.83.64 0 1.27.25 1.9.72l.66-.93c-.71-.57-1.52-.88-2.54-.88-1.39 0-2.39.83-2.39 2.03v.02c0 1.29.84 1.73 2.33 2.09 1.3.3 1.58.57 1.58 1.07v.02c0 .53-.48.88-1.24.88-.87 0-1.54-.33-2.21-.91l-.74.88c.84.75 1.85 1.12 2.92 1.12zm6.22-.1h1.24v-5.86h2.22V31h-5.68v1.14h2.22V38zm7.76.1c1.47 0 2.5-.78 2.5-2.09v-.02c0-1.16-.77-1.69-2.25-2.05-1.34-.32-1.66-.56-1.66-1.1v-.02c0-.46.42-.83 1.14-.83.64 0 1.27.25 1.9.72l.66-.93c-.71-.57-1.52-.88-2.54-.88-1.39 0-2.39.83-2.39 2.03v.02c0 1.29.84 1.73 2.33 2.09 1.3.3 1.58.57 1.58 1.07v.02c0 .53-.48.88-1.24.88-.87 0-1.54-.33-2.21-.91l-.74.88c.84.75 1.85 1.12 2.92 1.12z"/><path fill="#E5E7EB" d="M30 61h143.083v5H30z"/><rect width="12" height="5" x="206" y="61" fill="#2F6DE0" rx="1"/><rect width="12" height="5" x="206" y="81" fill="#2F6DE0" rx="1"/><rect width="12" height="5" x="206" y="101" fill="#2F6DE0" rx="1"/><rect width="12" height="5" x="206" y="121" fill="#2F6DE0" rx="1"/><path fill="#E5E7EB" d="M30 81h146v5H30zm0 20h143.083v5H30zm0 20h130v5H30z"/></g><g mask="url(#b)"><path stroke="#2E8BE0" d="M71.533 63.147a43.096 43.096 0 01-17.066 0c-1.166-.245-2.369-1.448-2.614-2.614a43.096 43.096 0 010-17.066c.245-1.166 1.448-2.369 2.614-2.614a43.096 43.096 0 0117.066 0c1.166.245 2.369 1.448 2.614 2.614a43.096 43.096 0 010 17.066c-.245 1.166-1.448 2.369-2.614 2.614"/><path fill="#2E8BE0" d="M55.165 49l2.55 7h1.53l2.58-7h-1.54s-1.28 3.67-1.74 5.2h-.02c-.47-1.53-1.75-5.2-1.75-5.2h-1.61zm12 7c.3-.85 1.28-3.78 1.68-5.03h.03V56h1.38v-7h-2.09s-1.46 4.52-1.66 5.21c-.21-.69-1.72-5.21-1.72-5.21h-2.1v7h1.38v-5.03h.03c.38 1.25 1.28 3.93 1.67 5.03h1.4z"/></g><g transform="translate(50 380)" mask="url(#b)"><use fill="#000" filter="url(#k)" xlink:href="#l"/><use fill="#FFF" xlink:href="#l"/><path fill="#30405C" d="M32.96 37h1.24v-2.79L36.98 30h-1.41l-1.98 3.1-1.96-3.1h-1.45l2.78 4.24V37zm8.54.12c-2.15 0-3.65-1.63-3.65-3.6v-.02c0-1.97 1.52-3.62 3.67-3.62s3.65 1.63 3.65 3.6v.02c0 1.97-1.52 3.62-3.67 3.62zm.02-1.13c1.39 0 2.36-1.11 2.36-2.47v-.02c0-1.36-.99-2.49-2.38-2.49s-2.36 1.11-2.36 2.47v.02c0 1.36.99 2.49 2.38 2.49zm8.71 1.12c1.83 0 3.01-1.05 3.01-3.14V30h-1.23v4.03c0 1.29-.67 1.95-1.76 1.95-1.1 0-1.77-.7-1.77-2V30h-1.23v4.03c0 2.03 1.16 3.08 2.98 3.08zm5.4-.11v-7h3.12c.88 0 1.57.26 2.02.7.37.38.58.9.58 1.51v.02c0 1.15-.69 1.84-1.67 2.12L61.57 37h-1.45l-1.72-2.44h-1.54V37h-1.23zm1.23-3.53h1.8c.88 0 1.44-.46 1.44-1.17v-.02c0-.75-.54-1.16-1.45-1.16h-1.79v2.35zM67.26 37h4.91v-1.12h-3.68V30h-1.23v7zm6.29 0l3.08-7.05h1.14L80.85 37h-1.3l-.71-1.69h-3.31L74.81 37h-1.26zm2.43-2.78h2.41l-1.21-2.8-1.2 2.8zm9.1 2.88c1.47 0 2.5-.78 2.5-2.09v-.02c0-1.16-.77-1.69-2.25-2.05-1.34-.32-1.66-.56-1.66-1.1v-.02c0-.46.42-.83 1.14-.83.64 0 1.27.25 1.9.72l.66-.93c-.71-.57-1.52-.88-2.54-.88-1.39 0-2.39.83-2.39 2.03v.02c0 1.29.84 1.73 2.33 2.09 1.3.3 1.58.57 1.58 1.07v.02c0 .53-.48.88-1.24.88-.87 0-1.54-.33-2.21-.91l-.74.88c.84.75 1.85 1.12 2.92 1.12zm6.22-.1h1.24v-5.86h2.22V30h-5.68v1.14h2.22V37zm11.61.1c1.47 0 2.5-.78 2.5-2.09v-.02c0-1.16-.77-1.69-2.25-2.05-1.34-.32-1.66-.56-1.66-1.1v-.02c0-.46.42-.83 1.14-.83.64 0 1.27.25 1.9.72l.66-.93c-.71-.57-1.52-.88-2.54-.88-1.39 0-2.39.83-2.39 2.03v.02c0 1.29.84 1.73 2.33 2.09 1.3.3 1.58.57 1.58 1.07v.02c0 .53-.48.88-1.24.88-.87 0-1.54-.33-2.21-.91l-.74.88c.84.75 1.85 1.12 2.92 1.12zm7.9.02c1.31 0 2.11-.48 2.84-1.24l-.79-.8c-.6.56-1.15.91-2.01.91-1.34 0-2.31-1.12-2.31-2.49v-.02c0-1.37.97-2.47 2.31-2.47.8 0 1.4.35 1.96.87l.79-.91c-.67-.64-1.45-1.09-2.74-1.09-2.12 0-3.61 1.63-3.61 3.62v.02c0 2.01 1.52 3.6 3.56 3.6zm4.23-.12l3.08-7.05h1.14l3.08 7.05h-1.3l-.71-1.69h-3.31L116.3 37h-1.26zm2.43-2.78h2.41l-1.21-2.8-1.2 2.8zm6.77 2.78h1.21v-4.98l3.86 4.98h1.03v-7h-1.21v4.84L125.38 30h-1.14v7zm11.05.1c1.47 0 2.5-.78 2.5-2.09v-.02c0-1.16-.77-1.69-2.25-2.05-1.34-.32-1.66-.56-1.66-1.1v-.02c0-.46.42-.83 1.14-.83.64 0 1.27.25 1.9.72l.66-.93c-.71-.57-1.52-.88-2.54-.88-1.39 0-2.39.83-2.39 2.03v.02c0 1.29.84 1.73 2.33 2.09 1.3.3 1.58.57 1.58 1.07v.02c0 .53-.48.88-1.24.88-.87 0-1.54-.33-2.21-.91l-.74.88c.84.75 1.85 1.12 2.92 1.12z"/><path fill="#E5E7EB" d="M30 60h132.116v5H30z"/><rect width="12" height="5" x="189" y="60" fill="#2FC6E0" rx="1"/><rect width="12" height="5" x="189" y="80" fill="#2FC6E0" rx="1"/><rect width="12" height="5" x="189" y="100" fill="#2FC6E0" rx="1"/><rect width="12" height="5" x="189" y="120" fill="#2FC6E0" rx="1"/><path fill="#E5E7EB" d="M30 80h144.043v5H30zm0 20h132.116v5H30zm0 20h132.116v5H30z"/></g><g transform="translate(50 79)" mask="url(#b)"><use fill="#000" filter="url(#m)" xlink:href="#n"/><use fill="#FFF" xlink:href="#n"/><path fill="#30405C" d="M33.21 38.05h1.08L37.2 31h-1.33l-2.1 5.38L31.66 31H30.3l2.91 7.05zm8.76.06c1.83 0 3.01-1.05 3.01-3.14V31h-1.23v4.03c0 1.29-.67 1.95-1.76 1.95-1.1 0-1.77-.7-1.77-2V31h-1.23v4.03c0 2.03 1.16 3.08 2.98 3.08zm5.4-.11h4.91v-1.12H48.6V31h-1.23v7zm6.89 0h1.21v-4.98L59.33 38h1.03v-7h-1.21v4.84L55.4 31h-1.14v7zm8.6 0h5.24v-1.1h-4.01v-1.88h3.51v-1.1h-3.51V32.1h3.96V31h-5.19v7zm7.4 0v-7h3.12c.88 0 1.57.26 2.02.7.37.38.58.9.58 1.51v.02c0 1.15-.69 1.84-1.67 2.12L76.2 38h-1.45l-1.72-2.44h-1.54V38h-1.23zm1.23-3.53h1.8c.88 0 1.44-.46 1.44-1.17v-.02c0-.75-.54-1.16-1.45-1.16h-1.79v2.35zm6.1 3.53l3.08-7.05h1.14L84.89 38h-1.3l-.71-1.69h-3.31L78.85 38h-1.26zm2.43-2.78h2.41l-1.21-2.8-1.2 2.8zM86.79 38v-7h3.14c.8 0 1.43.22 1.83.62.31.31.47.69.47 1.16v.02c0 .84-.48 1.29-1 1.56.82.28 1.39.75 1.39 1.7v.02c0 1.25-1.03 1.92-2.59 1.92h-3.24zM88 33.95h1.68c.79 0 1.32-.31 1.32-.95v-.02c0-.55-.44-.89-1.23-.89H88v1.86zm0 2.96h2.04c.84 0 1.35-.33 1.35-.96v-.02c0-.59-.47-.94-1.44-.94H88v1.92zM94.78 38h1.23v-7h-1.23v7zm3.8 0h4.91v-1.12h-3.68V31h-1.23v7zm6.96 0h1.23v-7h-1.23v7zm5.52 0h1.24v-5.86h2.22V31h-5.68v1.14h2.22V38zm5.53 0h1.23v-7h-1.23v7zm3.8 0h5.24v-1.1h-4.01v-1.88h3.51v-1.1h-3.51V32.1h3.96V31h-5.19v7zm9.85.1c1.47 0 2.5-.78 2.5-2.09v-.02c0-1.16-.77-1.69-2.25-2.05-1.34-.32-1.66-.56-1.66-1.1v-.02c0-.46.42-.83 1.14-.83.64 0 1.27.25 1.9.72l.66-.93c-.71-.57-1.52-.88-2.54-.88-1.39 0-2.39.83-2.39 2.03v.02c0 1.29.84 1.73 2.33 2.09 1.3.3 1.58.57 1.58 1.07v.02c0 .53-.48.88-1.24.88-.87 0-1.54-.33-2.21-.91l-.74.88c.84.75 1.85 1.12 2.92 1.12zm8.35-.1v-7h3.14c.8 0 1.43.22 1.83.62.31.31.47.69.47 1.16v.02c0 .84-.48 1.29-1 1.56.82.28 1.39.75 1.39 1.7v.02c0 1.25-1.03 1.92-2.59 1.92h-3.24zm1.21-4.05h1.68c.79 0 1.32-.31 1.32-.95v-.02c0-.55-.44-.89-1.23-.89h-1.77v1.86zm0 2.96h2.04c.84 0 1.35-.33 1.35-.96v-.02c0-.59-.47-.94-1.44-.94h-1.95v1.92zm8.47 1.09h1.24v-2.79l2.78-4.21h-1.41l-1.98 3.1-1.96-3.1h-1.45l2.78 4.24V38zm11.95.1c1.47 0 2.5-.78 2.5-2.09v-.02c0-1.16-.77-1.69-2.25-2.05-1.34-.32-1.66-.56-1.66-1.1v-.02c0-.46.42-.83 1.14-.83.64 0 1.27.25 1.9.72l.66-.93c-.71-.57-1.52-.88-2.54-.88-1.39 0-2.39.83-2.39 2.03v.02c0 1.29.84 1.73 2.33 2.09 1.3.3 1.58.57 1.58 1.07v.02c0 .53-.48.88-1.24.88-.87 0-1.54-.33-2.21-.91l-.74.88c.84.75 1.85 1.12 2.92 1.12zm4.65-.1h5.24v-1.1h-4.01v-1.88h3.51v-1.1h-3.51V32.1h3.96V31h-5.19v7zm9.71.05h1.08l2.91-7.05h-1.33l-2.1 5.38-2.11-5.38h-1.36l2.91 7.05zm5.89-.05h5.24v-1.1h-4.01v-1.88h3.51v-1.1h-3.51V32.1h3.96V31h-5.19v7zm7.4 0v-7h3.12c.88 0 1.57.26 2.02.7.37.38.58.9.58 1.51v.02c0 1.15-.69 1.84-1.67 2.12l1.89 2.65h-1.45l-1.72-2.44h-1.54V38h-1.23zm1.23-3.53h1.8c.88 0 1.44-.46 1.44-1.17v-.02c0-.75-.54-1.16-1.45-1.16h-1.79v2.35zm6.77 3.53h1.23v-7h-1.23v7zm5.52 0h1.24v-5.86h2.22V31h-5.68v1.14h2.22V38zm7.52 0h1.24v-2.79l2.78-4.21h-1.41l-1.98 3.1-1.96-3.1h-1.45l2.78 4.24V38z"/><path fill="#E5E7EB" d="M35 250h36v5H35zm95 0h36v5h-36zm96 0h36v5h-36zm95 0h36v5h-36zm95 0h36v5h-36z"/><rect width="36" height="40.52" x="35" y="193.473" fill="#2FC6E1" rx="2"/><rect width="36" height="73.994" x="130" y="159.999" fill="#2FA8E1" rx="2"/><rect width="36" height="165.043" x="226" y="68.95" fill="#2E8BE0" rx="2"/><rect width="36" height="147.996" x="321" y="86.098" fill="#2F6DE1" rx="2"/><rect width="36" height="60.939" x="416" y="173.054" fill="#4346E1" rx="2"/></g></g></svg>