<svg id="Layer_3" data-name="Layer 3" xmlns="http://www.w3.org/2000/svg" viewBox="0 0 87.98 87.98">
  <title>vuln-count-icon</title>
  <g>
    <g>
      <path d="M40.22,61.13H28.61c-2.38,0-4.31-2.26-4.31-5V31.9c0-2.78,1.93-5,4.31-5H40.22c2.38,0,4.31,2.26,4.31,5V56.08C44.53,58.86,42.6,61.13,40.22,61.13ZM28.61,28.39c-1.53,0-2.78,1.58-2.78,3.51V56.08c0,1.94,1.25,3.51,2.78,3.51H40.22C41.75,59.6,43,58,43,56.08V31.9c0-1.94-1.25-3.51-2.78-3.51Z" style="fill: #014596"/>
      <rect x="27.32" y="33.51" width="14.2" height="1.77" style="fill: #014596"/>
      <rect x="27.32" y="37.26" width="14.2" height="1.77" style="fill: #014596"/>
      <rect x="27.32" y="41.02" width="14.2" height="1.77" style="fill: #014596"/>
      <rect x="27.32" y="44.78" width="14.2" height="1.77" style="fill: #014596"/>
      <rect x="27.32" y="48.54" width="14.2" height="1.77" style="fill: #014596"/>
      <rect x="35.56" y="53.04" width="1.07" height="1.5" style="fill: #014596"/>
      <rect x="33.29" y="53.04" width="1.07" height="1.5" style="fill: #014596"/>
      <path d="M59.37,61.13H47.77c-2.38,0-4.31-2.26-4.31-5V31.9c0-2.78,1.93-5,4.31-5H59.37c2.38,0,4.31,2.26,4.31,5V56.08C63.68,58.86,61.75,61.13,59.37,61.13ZM47.77,28.39C46.23,28.39,45,30,45,31.9V56.08c0,1.94,1.25,3.51,2.78,3.51H59.37c1.53,0,2.78-1.58,2.78-3.51V31.9c0-1.94-1.25-3.51-2.78-3.51Z" style="fill: #014596"/>
      <rect x="46.47" y="33.51" width="14.2" height="1.77" style="fill: #014596"/>
      <rect x="46.47" y="37.26" width="14.2" height="1.77" style="fill: #014596"/>
      <rect x="46.47" y="41.02" width="14.2" height="1.77" style="fill: #014596"/>
      <rect x="46.47" y="44.78" width="14.2" height="1.77" style="fill: #014596"/>
      <rect x="46.47" y="48.54" width="14.2" height="1.77" style="fill: #014596"/>
      <rect x="55.25" y="53.04" width="1.07" height="1.5" style="fill: #014596"/>
      <rect x="52.98" y="53.04" width="1.07" height="1.5" style="fill: #014596"/>
      <path d="M39.57,55.17a1.38,1.38,0,1,1,1.38-1.38,1.38,1.38,0,0,1-1.38,1.38" style="fill: #014596"/>
      <path d="M59.5,55.17a1.38,1.38,0,1,1,1.38-1.38,1.38,1.38,0,0,1-1.38,1.38" style="fill: #014596"/>
    </g>
    <g>
      <rect x="42.53" width="2.93" height="17.35" style="fill: #014596"/>
      <rect x="60.29" y="17.55" width="17.35" height="2.93" transform="translate(6.75 54.34) rotate(-45)" style="fill: #014596"/>
      <rect x="70.64" y="42.53" width="17.34" height="2.93" style="fill: #014596"/>
      <rect x="67.5" y="60.29" width="2.93" height="17.35" transform="translate(-28.57 68.97) rotate(-45)" style="fill: #014596"/>
      <rect x="42.53" y="70.64" width="2.93" height="17.35" style="fill: #014596"/>
      <rect x="10.35" y="67.5" width="17.35" height="2.93" transform="translate(-43.2 33.65) rotate(-45)" style="fill: #014596"/>
      <rect y="42.53" width="17.35" height="2.93" style="fill: #014596"/>
      <rect x="17.55" y="10.34" width="2.93" height="17.35" transform="translate(-7.88 19.02) rotate(-45)" style="fill: #014596"/>
    </g>
  </g>
</svg>
