<svg xmlns="http://www.w3.org/2000/svg" xmlns:xlink="http://www.w3.org/1999/xlink" width="815" height="514" viewBox="0 0 815 514"><defs><filter id="n" width="104%" height="106.4%" x="-2%" y="-2.3%" filterUnits="objectBoundingBox"><feOffset dy="2" in="SourceAlpha" result="shadowOffsetOuter1"/><feGaussianBlur in="shadowOffsetOuter1" result="shadowBlurOuter1" stdDeviation="2"/><feColorMatrix in="shadowBlurOuter1" values="0 0 0 0 0.908056973 0 0 0 0 0.908056973 0 0 0 0 0.908056973 0 0 0 0.5 0"/></filter><filter id="e" width="106.1%" height="106.1%" x="-3%" y="-2.2%" filterUnits="objectBoundingBox"><feOffset dy="2" in="SourceAlpha" result="shadowOffsetOuter1"/><feGaussianBlur in="shadowOffsetOuter1" result="shadowBlurOuter1" stdDeviation="2"/><feColorMatrix in="shadowBlurOuter1" values="0 0 0 0 0.908056973 0 0 0 0 0.908056973 0 0 0 0 0.908056973 0 0 0 0.5 0"/></filter><filter id="g" width="106.1%" height="106.1%" x="-3%" y="-2.2%" filterUnits="objectBoundingBox"><feOffset dy="2" in="SourceAlpha" result="shadowOffsetOuter1"/><feGaussianBlur in="shadowOffsetOuter1" result="shadowBlurOuter1" stdDeviation="2"/><feColorMatrix in="shadowBlurOuter1" values="0 0 0 0 0.908056973 0 0 0 0 0.908056973 0 0 0 0 0.908056973 0 0 0 0.5 0"/></filter><filter id="c" width="106.1%" height="106.1%" x="-3%" y="-2.2%" filterUnits="objectBoundingBox"><feOffset dy="2" in="SourceAlpha" result="shadowOffsetOuter1"/><feGaussianBlur in="shadowOffsetOuter1" result="shadowBlurOuter1" stdDeviation="2"/><feColorMatrix in="shadowBlurOuter1" values="0 0 0 0 0.908056973 0 0 0 0 0.908056973 0 0 0 0 0.908056973 0 0 0 0.5 0"/></filter><filter id="i" width="119.9%" height="131.8%" x="-9.7%" y="-11.4%" filterUnits="objectBoundingBox"><feOffset dx="1" dy="10" in="SourceAlpha" result="shadowOffsetOuter1"/><feGaussianBlur in="shadowOffsetOuter1" result="shadowBlurOuter1" stdDeviation="10"/><feComposite in="shadowBlurOuter1" in2="SourceAlpha" operator="out" result="shadowBlurOuter1"/><feColorMatrix in="shadowBlurOuter1" values="0 0 0 0 0.666666667 0 0 0 0 0.694117647 0 0 0 0 0.737254902 0 0 0 0.3 0"/></filter><filter id="l" width="104%" height="137.8%" x="-2%" y="-13.5%" filterUnits="objectBoundingBox"><feOffset dy="2" in="SourceAlpha" result="shadowOffsetOuter1"/><feGaussianBlur in="shadowOffsetOuter1" result="shadowBlurOuter1" stdDeviation="2"/><feColorMatrix in="shadowBlurOuter1" values="0 0 0 0 0.908056973 0 0 0 0 0.908056973 0 0 0 0 0.908056973 0 0 0 0.5 0"/></filter><rect id="d" width="231" height="230" rx="2"/><rect id="h" width="231" height="230" rx="2"/><rect id="m" width="352" height="37" rx="2"/><rect id="f" width="231" height="230" rx="2"/><rect id="o" width="352" height="220" rx="2"/><path id="j" d="M0 0h352v220H0z"/><path id="a" d="M0 0h815v514H0z"/><path id="p" d="M0 135.99h271.395V0H0z"/><path id="r" d="M0 34.823V.105h28.979v34.718H0z"/><linearGradient id="k" x1="0%" x2="97.796%" y1="50%" y2="50%"><stop offset="0%" stop-color="#3F67AD"/><stop offset="52.629%" stop-color="#3A8BC7"/><stop offset="100%" stop-color="#25A8DC"/></linearGradient></defs><g fill="none" fill-rule="evenodd"><mask id="b" fill="#fff"><use xlink:href="#a"/></mask><use fill="#F7FAFC" xlink:href="#a"/><g mask="url(#b)"><g transform="translate(533 332)"><use fill="#000" filter="url(#c)" xlink:href="#d"/><use fill="#FFF" xlink:href="#d"/><path fill="#30405C" d="M30.3 40l3.08-7.05h1.14L37.6 40h-1.3l-.71-1.69h-3.31L31.56 40H30.3zm2.43-2.78h2.41l-1.21-2.8-1.2 2.8zm9.11 2.88c1.47 0 2.5-.78 2.5-2.09v-.02c0-1.16-.76-1.69-2.24-2.05-1.35-.32-1.67-.56-1.67-1.1v-.02c0-.46.42-.83 1.14-.83.64 0 1.27.25 1.9.72l.66-.93c-.71-.57-1.52-.88-2.54-.88-1.39 0-2.39.83-2.39 2.03v.02c0 1.29.84 1.73 2.33 2.09 1.3.3 1.58.57 1.58 1.07v.02c0 .52-.48.88-1.24.88-.86 0-1.54-.33-2.21-.91l-.74.88c.84.75 1.85 1.12 2.92 1.12zm7 0c1.47 0 2.5-.78 2.5-2.09v-.02c0-1.16-.76-1.69-2.24-2.05-1.35-.32-1.67-.56-1.67-1.1v-.02c0-.46.42-.83 1.14-.83.64 0 1.27.25 1.9.72l.66-.93c-.71-.57-1.52-.88-2.54-.88-1.39 0-2.39.83-2.39 2.03v.02c0 1.29.84 1.73 2.33 2.09 1.3.3 1.58.57 1.58 1.07v.02c0 .52-.48.88-1.24.88-.86 0-1.54-.33-2.21-.91l-.74.88c.84.75 1.85 1.12 2.92 1.12zm4.65-.1h5.24v-1.1h-4.01v-1.87h3.51v-1.11h-3.51V34.1h3.96V33h-5.19v7zm9.1 0h1.23v-5.86h2.23V33h-5.69v1.14h2.23V40zm7.75.1c1.47 0 2.5-.78 2.5-2.09v-.02c0-1.16-.76-1.69-2.24-2.05-1.35-.32-1.67-.56-1.67-1.1v-.02c0-.46.42-.83 1.14-.83.64 0 1.27.25 1.9.72l.66-.93c-.71-.57-1.52-.88-2.54-.88-1.39 0-2.39.83-2.39 2.03v.02c0 1.29.84 1.73 2.33 2.09 1.3.3 1.58.57 1.58 1.07v.02c0 .52-.48.88-1.24.88-.86 0-1.54-.33-2.21-.91l-.74.88c.84.75 1.85 1.12 2.92 1.12zm10.24-.05h1.07l1.72-5.03 1.72 5.03h1.07L88.59 33H87.3l-1.67 5.19-1.72-5.21h-1.04l-1.72 5.21L79.48 33h-1.33l2.43 7.05zM90.62 40h1.23v-7h-1.23v7zm5.51 0h1.23v-5.86h2.23V33H93.9v1.14h2.23V40zm5.44 0h1.23v-2.95h3.34V40h1.23v-7h-1.23v2.91h-3.34V33h-1.23v7zm13.89.05h1.07l1.72-5.03 1.72 5.03h1.07l2.43-7.05h-1.29l-1.67 5.19-1.72-5.21h-1.04l-1.72 5.21-1.67-5.19h-1.33l2.43 7.05zm8.47-.05l3.08-7.05h1.14l3.08 7.05h-1.3l-.71-1.69h-3.31l-.72 1.69h-1.26zm2.43-2.78h2.41l-1.21-2.8-1.2 2.8zm6.77 2.78h1.21v-4.98L138.2 40h1.03v-7h-1.21v4.84L134.27 33h-1.14v7zm8.6 0h1.21v-4.98L146.8 40h1.03v-7h-1.21v4.84L142.87 33h-1.14v7zm8 0l3.08-7.05h1.14l3.08 7.05h-1.3l-.71-1.69h-3.31l-.72 1.69h-1.26zm2.43-2.78h2.41l-1.21-2.8-1.2 2.8zm9.58 2.9c1.31 0 2.11-.48 2.84-1.24l-.79-.8c-.6.56-1.15.9-2.01.9-1.34 0-2.31-1.11-2.31-2.48v-.02c0-1.37.98-2.46 2.3-2.46.81 0 1.4.34 1.97.86l.79-.91c-.67-.64-1.45-1.09-2.75-1.09-2.11 0-3.6 1.63-3.6 3.62v.02c0 2.01 1.51 3.6 3.56 3.6zm4.84-.12v-7h3.12c.88 0 1.57.26 2.02.7.37.38.58.9.58 1.51v.02c0 1.15-.69 1.84-1.66 2.12l1.89 2.65h-1.46l-1.72-2.44h-1.54V40h-1.23zm1.23-3.53h1.8c.88 0 1.44-.46 1.44-1.17v-.02c0-.75-.54-1.16-1.45-1.16h-1.79v2.35zm8.51 3.53h1.24v-2.79l2.78-4.21h-1.41l-1.98 3.09L175 33h-1.46l2.78 4.24V40z"/><rect width="7" height="7" x="30" y="59" fill="#FF6E47" rx="3.5"/><rect width="7" height="7" x="30" y="79" fill="#BDD6E9" rx="3.5"/><rect width="7" height="7" x="30" y="99" fill="#FF6E47" rx="3.5"/><rect width="7" height="7" x="30" y="159" fill="#FF6E47" rx="3.5"/><rect width="7" height="7" x="30" y="119" fill="#BDD6E9" rx="3.5"/><rect width="7" height="7" x="30" y="179" fill="#BDD6E9" rx="3.5"/><rect width="7" height="7" x="30" y="139" fill="#BDD6E9" rx="3.5"/><path fill="#E5E7EB" d="M50 60h80v5H50zM171 60h30v5h-30zM171 80h30v5h-30zM171 100h30v5h-30zM171 120h30v5h-30zM171 140h30v5h-30zM171 160h30v5h-30zM171 180h30v5h-30zM50 80h90v5H50zM50 100h80v5H50zM50 120h90v5H50zM50 160h90v5H50zM50 180h80v5H50zM50 140h80v5H50z"/></g></g><g mask="url(#b)"><g transform="translate(291 332)"><use fill="#000" filter="url(#e)" xlink:href="#f"/><use fill="#FFF" xlink:href="#f"/></g><path stroke="#2159C8" stroke-width="2" d="M321 487h25.72c11.038 0 11.072 13 20.727 13h16.743c7.882 0 7.56-9 17.005-9h19.638c13.355 0 15.155-19 28.466-19H492"/><path fill="#2159C8" fill-opacity=".102" d="M321 487h25.72c11.038 0 11.072 13 20.727 13h16.743c7.882 0 7.56-9 17.005-9h19.638c13.355 0 15.155-19 28.466-19H492v46H321v-31z"/><path fill="#E5E7EB" d="M472 439h20v5h-20zM459 439h8l-4 7z"/><path fill="#30405C" d="M323.79 368.05h1.07l1.72-5.03 1.72 5.03h1.07l2.43-7.05h-1.29l-1.67 5.19-1.72-5.21h-1.04l-1.72 5.21-1.67-5.19h-1.33l2.43 7.05zm8.47-.05l3.08-7.05h1.14l3.08 7.05h-1.3l-.71-1.69h-3.31l-.72 1.69h-1.26zm2.43-2.78h2.41l-1.21-2.8-1.2 2.8zm6.77 2.78h1.21v-4.98l3.86 4.98h1.03v-7h-1.21v4.84L342.6 361h-1.14v7zm8.6 0h1.21v-4.98l3.86 4.98h1.03v-7h-1.21v4.84L351.2 361h-1.14v7zm8 0l3.08-7.05h1.14l3.08 7.05h-1.3l-.71-1.69h-3.31l-.72 1.69h-1.26zm2.43-2.78h2.41l-1.21-2.8-1.2 2.8zm9.58 2.9c1.31 0 2.11-.48 2.84-1.24l-.79-.8c-.6.56-1.15.9-2.01.9-1.34 0-2.31-1.11-2.31-2.48v-.02c0-1.37.98-2.46 2.3-2.46.81 0 1.4.34 1.97.86l.79-.91c-.67-.64-1.45-1.09-2.75-1.09-2.11 0-3.6 1.63-3.6 3.62v.02c0 2.01 1.51 3.6 3.56 3.6zm4.84-.12v-7h3.12c.88 0 1.57.26 2.02.7.37.38.58.9.58 1.51v.02c0 1.15-.69 1.84-1.66 2.12l1.89 2.65h-1.46l-1.72-2.44h-1.54V368h-1.23zm1.23-3.53h1.8c.88 0 1.44-.46 1.44-1.17v-.02c0-.75-.54-1.16-1.45-1.16h-1.79v2.35zm8.51 3.53h1.24v-2.79l2.78-4.21h-1.41l-1.98 3.09-1.95-3.09h-1.46l2.78 4.24V368zm9.5 0v-7h3.12c.88 0 1.57.26 2.02.7.37.38.58.9.58 1.51v.02c0 1.15-.69 1.84-1.66 2.12l1.89 2.65h-1.46l-1.72-2.44h-1.54V368h-1.23zm1.23-3.53h1.8c.88 0 1.44-.46 1.44-1.17v-.02c0-.75-.54-1.16-1.45-1.16h-1.79v2.35zm6.1 3.53l3.08-7.05h1.14l3.08 7.05h-1.3l-.71-1.69h-3.31l-.72 1.69h-1.26zm2.43-2.78h2.41l-1.21-2.8-1.2 2.8zm6.77 2.78h1.21v-4.98l3.86 4.98h1.03v-7h-1.21v4.84l-3.75-4.84h-1.14v7zm11.05.1c1.47 0 2.5-.78 2.5-2.09v-.02c0-1.16-.76-1.69-2.24-2.05-1.35-.32-1.67-.56-1.67-1.1v-.02c0-.46.42-.83 1.14-.83.64 0 1.27.25 1.9.72l.66-.93c-.71-.57-1.52-.88-2.54-.88-1.39 0-2.39.83-2.39 2.03v.02c0 1.29.84 1.73 2.33 2.09 1.3.3 1.58.57 1.58 1.07v.02c0 .52-.48.88-1.24.88-.86 0-1.54-.33-2.21-.91l-.74.88c.84.75 1.85 1.12 2.92 1.12zm7.99.02c-2.15 0-3.65-1.63-3.65-3.6v-.02c0-1.97 1.52-3.62 3.67-3.62s3.65 1.63 3.65 3.6v.02c0 1.97-1.52 3.62-3.67 3.62zm.02-1.14c1.39 0 2.36-1.1 2.36-2.46v-.02c0-1.36-.99-2.48-2.38-2.48s-2.36 1.1-2.36 2.46v.02c0 1.36.99 2.48 2.38 2.48zm5.84 1.02h1.21v-5l2.19 3.28h.04l2.21-3.3V368h1.23v-7h-1.31l-2.13 3.31-2.13-3.31h-1.31v7zm9.38 0h5.24v-1.1h-4.01v-1.87h3.51v-1.11h-3.51v-1.82h3.96V361h-5.19v7zm9.29.05h1.07l1.72-5.03 1.72 5.03h1.07l2.43-7.05h-1.29l-1.67 5.19-1.72-5.21h-1.04l-1.72 5.21-1.67-5.19h-1.33l2.43 7.05zm8.47-.05l3.08-7.05h1.14l3.08 7.05h-1.3l-.71-1.69h-3.31l-.72 1.69h-1.26zm2.43-2.78h2.41l-1.21-2.8-1.2 2.8zm6.77 2.78v-7h3.12c.88 0 1.57.26 2.02.7.37.38.58.9.58 1.51v.02c0 1.15-.69 1.84-1.66 2.12l1.89 2.65h-1.46l-1.72-2.44h-1.54V368h-1.23zm1.23-3.53h1.8c.88 0 1.44-.46 1.44-1.17v-.02c0-.75-.54-1.16-1.45-1.16h-1.79v2.35zm6.7 3.53h5.24v-1.1h-4.01v-1.87h3.51v-1.11h-3.51v-1.82h3.96V361h-5.19v7zM321.9 383v-7h2.61c2.2 0 3.72 1.51 3.72 3.48v.02c0 1.97-1.52 3.5-3.72 3.5h-2.61zm2.61-5.88h-1.38v4.76h1.38c1.47 0 2.43-.99 2.43-2.36v-.02c0-1.37-.96-2.38-2.43-2.38zm5.91 5.88h5.24v-1.1h-4.01v-1.87h3.51v-1.11h-3.51v-1.82h3.96V376h-5.19v7zm9.1 0h1.23v-5.86h2.23V376h-5.69v1.14h2.23V383zm5.44 0h5.24v-1.1h-4.01v-1.87h3.51v-1.11h-3.51v-1.82h3.96V376h-5.19v7zm10.65.12c1.31 0 2.11-.48 2.84-1.24l-.79-.8c-.6.56-1.15.9-2.01.9-1.34 0-2.31-1.11-2.31-2.48v-.02c0-1.37.98-2.46 2.3-2.46.81 0 1.4.34 1.97.86l.79-.91c-.67-.64-1.45-1.09-2.75-1.09-2.11 0-3.6 1.63-3.6 3.62v.02c0 2.01 1.51 3.6 3.56 3.6zm6.55-.12h1.23v-5.86h2.23V376h-5.69v1.14h2.23V383zm5.44 0h5.24v-1.1h-4.01v-1.87h3.51v-1.11h-3.51v-1.82h3.96V376h-5.19v7zm7.4 0v-7h2.61c2.2 0 3.72 1.51 3.72 3.48v.02c0 1.97-1.52 3.5-3.72 3.5H375zm2.61-5.88h-1.38v4.76h1.38c1.47 0 2.43-.99 2.43-2.36v-.02c0-1.37-.96-2.38-2.43-2.38zm9.27 3.41h2.96v-1.19h-2.96v1.19zm8.22 2.47l3.08-7.05h1.14l3.08 7.05h-1.3l-.71-1.69h-3.31l-.72 1.69h-1.26zm2.43-2.78h2.41l-1.21-2.8-1.2 2.8zm9.39 2.89c1.83 0 3.01-1.05 3.01-3.14V376h-1.23v4.03c0 1.29-.67 1.94-1.76 1.94-1.1 0-1.77-.69-1.77-1.99V376h-1.23v4.03c0 2.03 1.16 3.08 2.98 3.08zm7.11-.11h1.23v-5.86h2.23V376h-5.69v1.14h2.23V383zm5.44 0h1.23v-2.95h3.34V383h1.23v-7h-1.23v2.91h-3.34V376h-1.23v7zm15.34.12c-2.15 0-3.65-1.63-3.65-3.6v-.02c0-1.97 1.52-3.62 3.67-3.62s3.65 1.63 3.65 3.6v.02c0 1.97-1.52 3.62-3.67 3.62zm.02-1.14c1.39 0 2.36-1.1 2.36-2.46v-.02c0-1.36-.99-2.48-2.38-2.48s-2.36 1.1-2.36 2.46v.02c0 1.36.99 2.48 2.38 2.48zm5.84 1.02h1.21v-4.98l3.86 4.98h1.03v-7h-1.21v4.84l-3.75-4.84h-1.14v7zm8.6 0v-7h1.23v5.88h3.68V383h-4.91zm7.65 0v-2.76l-2.78-4.24h1.46l1.95 3.09 1.98-3.09h1.41l-2.78 4.21V383h-1.24z"/><path fill="#BDD6E9" d="M336.1 452.6c7.05 0 12.2-4.65 12.2-11.25v-.1c0-6.25-5.25-10.55-12-10.55-3.25 0-5.5.8-7.75 1.9l.85-13.1h17.35V417H327.1l-1 16.95 2 1.3c2.2-1.2 4.65-2.2 7.9-2.2 5.65 0 9.6 3.45 9.6 8.3v.1c0 4.9-3.85 8.8-9.4 8.8-3.7 0-7.35-2-10.5-5.15l-1.85 1.85c3.05 3.1 7.5 5.65 12.25 5.65z"/></g><g mask="url(#b)"><g transform="translate(50 332)"><use fill="#000" filter="url(#g)" xlink:href="#h"/><use fill="#FFF" xlink:href="#h"/></g><path stroke="#2159C8" stroke-width="2" d="M80 471h31c12.397 0 8.388 18 21 18h25c9.426 0 5.252 14 15 14h37c3.633 0 .63 3 4 3h38"/><path fill="#2159C8" fill-opacity=".1" d="M80 471h31c12.397 0 8.388 18 21 18h25c9.426 0 5.252 14 15 14h37c3.633 0 .63 3 4 3h38v12.193L80 518s-.007-24.316 0-47z"/><path fill="#E5E7EB" d="M231 439h20v5h-20zM218 439h8l-4 7z"/><path fill="#BDD6E9" d="M82.4 452h23.9v-2.5H86.5l10.7-9.7c6.15-5.6 8.75-8.8 8.75-13.6v-.1c0-5.45-4.45-9.6-10.4-9.6-6.15 0-9.4 2.85-12.45 7.5l1.95 1.3c2.9-4.2 5.8-6.5 10.25-6.5 4.2 0 7.9 2.95 7.9 7.5 0 3.7-2 6.7-7.75 11.95l-13.05 11.8V452zm48.35 0v-8.55H111.8l-.9-1.95 20-24.75h2.35v24.45h5.7v2.25h-5.7V452h-2.5zm-16.7-10.8h16.7v-20.7l-16.7 20.7z"/><path fill="#30405C" d="M80.9 368h1.21v-5l2.19 3.28h.04l2.21-3.3V368h1.23v-7h-1.31l-2.13 3.31-2.13-3.31H80.9v7zm9.45 0h1.23v-7h-1.23v7zm6.25.1c1.47 0 2.5-.78 2.5-2.09v-.02c0-1.16-.76-1.69-2.24-2.05-1.35-.32-1.67-.56-1.67-1.1v-.02c0-.46.42-.83 1.14-.83.64 0 1.27.25 1.9.72l.66-.93c-.71-.57-1.52-.88-2.54-.88-1.39 0-2.39.83-2.39 2.03v.02c0 1.29.84 1.73 2.33 2.09 1.3.3 1.58.57 1.58 1.07v.02c0 .52-.48.88-1.24.88-.86 0-1.54-.33-2.21-.91l-.74.88c.84.75 1.85 1.12 2.92 1.12zm7 0c1.47 0 2.5-.78 2.5-2.09v-.02c0-1.16-.76-1.69-2.24-2.05-1.35-.32-1.67-.56-1.67-1.1v-.02c0-.46.42-.83 1.14-.83.64 0 1.27.25 1.9.72l.66-.93c-.71-.57-1.52-.88-2.54-.88-1.39 0-2.39.83-2.39 2.03v.02c0 1.29.84 1.73 2.33 2.09 1.3.3 1.58.57 1.58 1.07v.02c0 .52-.48.88-1.24.88-.86 0-1.54-.33-2.21-.91l-.74.88c.84.75 1.85 1.12 2.92 1.12zm4.72-.1h1.23v-7h-1.23v7zm3.8 0h1.21v-4.98l3.86 4.98h1.03v-7h-1.21v4.84l-3.75-4.84h-1.14v7zm11.92.12c1.24 0 2.23-.5 2.92-1.09v-2.94h-2.98v1.08h1.79v1.3c-.43.32-1.03.53-1.69.53-1.43 0-2.38-1.06-2.38-2.5v-.02c0-1.34.98-2.46 2.27-2.46.89 0 1.42.29 1.96.74l.78-.93c-.72-.61-1.47-.95-2.69-.95-2.11 0-3.61 1.66-3.61 3.62v.02c0 2.04 1.44 3.6 3.63 3.6zm8.92-.12h1.21v-5l2.19 3.28h.04l2.21-3.3V368h1.23v-7h-1.31l-2.13 3.31-2.13-3.31h-1.31v7zm11.83.1c1.47 0 2.5-.78 2.5-2.09v-.02c0-1.16-.76-1.69-2.24-2.05-1.35-.32-1.67-.56-1.67-1.1v-.02c0-.46.42-.83 1.14-.83.64 0 1.27.25 1.9.72l.66-.93c-.71-.57-1.52-.88-2.54-.88-1.39 0-2.39.83-2.39 2.03v.02c0 1.29.84 1.73 2.33 2.09 1.3.3 1.58.57 1.58 1.07v.02c0 .52-.48.88-1.24.88-.86 0-1.54-.33-2.21-.91l-.74.88c.84.75 1.85 1.12 2.92 1.12zm5.53-.1h1.22v-7.05h-.85l-1.89.6.26 1 1.26-.35v5.8zm3.94 0h1.39l3.15-6.07V361h-4.92v1.08h3.52l-3.14 5.92zm5.99-2.47h2.96v-1.19h-2.96v1.19zm7.83 2.59c-1.84 0-3.04-1.6-3.04-3.6v-.02c0-2 1.22-3.62 3.06-3.62 1.83 0 3.04 1.6 3.04 3.6v.02c0 2-1.22 3.62-3.06 3.62zm.02-1.11c1.09 0 1.77-1.12 1.77-2.49v-.02c0-1.38-.71-2.51-1.79-2.51s-1.77 1.11-1.77 2.49v.02c0 1.38.7 2.51 1.79 2.51zm6.04.99h1.22v-7.05h-.85l-1.89.6.26 1 1.26-.35v5.8zm6.49.12c-1.84 0-3.04-1.6-3.04-3.6v-.02c0-2 1.22-3.62 3.06-3.62 1.83 0 3.04 1.6 3.04 3.6v.02c0 2-1.22 3.62-3.06 3.62zm.02-1.11c1.09 0 1.77-1.12 1.77-2.49v-.02c0-1.38-.71-2.51-1.79-2.51s-1.77 1.11-1.77 2.49v.02c0 1.38.7 2.51 1.79 2.51zM80.9 383v-7h2.76c1.64 0 2.66.93 2.66 2.34v.02c0 1.57-1.26 2.39-2.8 2.39h-1.39V383H80.9zm1.23-3.36h1.43c.93 0 1.51-.52 1.51-1.25v-.02c0-.82-.59-1.25-1.51-1.25h-1.43v2.52zm4.85 3.36l3.08-7.05h1.14l3.08 7.05h-1.3l-.71-1.69h-3.31l-.72 1.69h-1.26zm2.43-2.78h2.41l-1.21-2.8-1.2 2.8zM97 383h1.23v-5.86h2.23V376h-5.69v1.14H97V383zm8.33.12c1.31 0 2.11-.48 2.84-1.24l-.79-.8c-.6.56-1.15.9-2.01.9-1.34 0-2.31-1.11-2.31-2.48v-.02c0-1.37.98-2.46 2.3-2.46.81 0 1.4.34 1.97.86l.79-.91c-.67-.64-1.45-1.09-2.75-1.09-2.11 0-3.6 1.63-3.6 3.62v.02c0 2.01 1.51 3.6 3.56 3.6zm4.84-.12h1.23v-2.95h3.34V383h1.23v-7h-1.23v2.91h-3.34V376h-1.23v7z"/></g><g mask="url(#b)"><g transform="translate(413 103)"><use fill="#000" filter="url(#i)" xlink:href="#j"/><use fill="#FFF" xlink:href="#j"/><path stroke="url(#k)" stroke-width="3" d="M1.5 1.5h349v217H1.5z"/><path fill="#E42822" d="M29 63.935h30.384V59H29z"/><path fill="#F79C49" d="M29 89.734h30.384v-4.935H29z"/><path fill="#E42822" d="M29 115.534h30.384v-4.935H29zM29 141.333h30.384v-4.935H29zM29 167.132h30.384v-4.935H29z"/><path fill="#F79C49" d="M29 192.932h30.384v-4.936H29z"/><path fill="#E5E6EA" d="M291 63.935h30.384V59H291zM291 89.734h30.384v-4.935H291zM291 115.534h30.384v-4.935H291zM291 141.333h30.384v-4.935H291zM291 167.132h30.384v-4.935H291zM291 192.932h30.384v-4.936H291zM76 63.935h152.729V59H76zM76 89.734h192.025v-4.935H76zM76 115.534h146.825v-4.935H76zM76 141.333h176.899v-4.935H76zM76 167.132h164.717v-4.935H76zM76 192.932h137.062v-4.936H76z"/></g><path fill="#30405C" d="M442.9 138h4.91v-1.12h-3.68V131h-1.23v7zm6.28 0l3.08-7.05h1.14l3.08 7.05h-1.3l-.71-1.69h-3.31l-.72 1.69h-1.26zm2.43-2.78h2.41l-1.21-2.8-1.2 2.8zm7.59 2.78h1.23v-5.86h2.23V131h-5.69v1.14h2.23V138zm5.44 0h5.24v-1.1h-4.01v-1.87h3.51v-1.11h-3.51v-1.82h3.96V131h-5.19v7zm9.85.1c1.47 0 2.5-.78 2.5-2.09v-.02c0-1.16-.76-1.69-2.24-2.05-1.35-.32-1.67-.56-1.67-1.1v-.02c0-.46.42-.83 1.14-.83.64 0 1.27.25 1.9.72l.66-.93c-.71-.57-1.52-.88-2.54-.88-1.39 0-2.39.83-2.39 2.03v.02c0 1.29.84 1.73 2.33 2.09 1.3.3 1.58.57 1.58 1.07v.02c0 .52-.48.88-1.24.88-.86 0-1.54-.33-2.21-.91l-.74.88c.84.75 1.85 1.12 2.92 1.12zm6.22-.1h1.23v-5.86h2.23V131h-5.69v1.14h2.23V138zm10.85 0h1.23v-5.86h2.23V131h-5.69v1.14h2.23V138zm5.44 0h1.23v-2.95h3.34V138h1.23v-7h-1.23v2.91h-3.34V131H497v7zm8.3 0v-7h3.12c.88 0 1.57.26 2.02.7.37.38.58.9.58 1.51v.02c0 1.15-.69 1.84-1.66 2.12l1.89 2.65h-1.46l-1.72-2.44h-1.54V138h-1.23zm1.23-3.53h1.8c.88 0 1.44-.46 1.44-1.17v-.02c0-.75-.54-1.16-1.45-1.16h-1.79v2.35zm6.7 3.53h5.24v-1.1h-4.01v-1.87h3.51v-1.11h-3.51v-1.82h3.96V131h-5.19v7zm6.8 0l3.08-7.05h1.14l3.08 7.05h-1.3l-.71-1.69h-3.31l-.72 1.69h-1.26zm2.43-2.78h2.41l-1.21-2.8-1.2 2.8zm7.59 2.78h1.23v-5.86h2.23V131h-5.69v1.14h2.23V138zm7.75.1c1.47 0 2.5-.78 2.5-2.09v-.02c0-1.16-.76-1.69-2.24-2.05-1.35-.32-1.67-.56-1.67-1.1v-.02c0-.46.42-.83 1.14-.83.64 0 1.27.25 1.9.72l.66-.93c-.71-.57-1.52-.88-2.54-.88-1.39 0-2.39.83-2.39 2.03v.02c0 1.29.84 1.73 2.33 2.09 1.3.3 1.58.57 1.58 1.07v.02c0 .52-.48.88-1.24.88-.86 0-1.54-.33-2.21-.91l-.74.88c.84.75 1.85 1.12 2.92 1.12zm8.35-.1h1.23v-2.85h3.53v-1.12h-3.53v-1.91h3.98V131h-5.21v7zm7.26 0v-7h3.12c.88 0 1.57.26 2.02.7.37.38.58.9.58 1.51v.02c0 1.15-.69 1.84-1.66 2.12l1.89 2.65h-1.46l-1.72-2.44h-1.54V138h-1.23zm1.23-3.53h1.8c.88 0 1.44-.46 1.44-1.17v-.02c0-.75-.54-1.16-1.45-1.16h-1.79v2.35zm10.04 3.65c-2.15 0-3.65-1.63-3.65-3.6v-.02c0-1.97 1.52-3.62 3.67-3.62s3.65 1.63 3.65 3.6v.02c0 1.97-1.52 3.62-3.67 3.62zm.02-1.14c1.39 0 2.36-1.1 2.36-2.46v-.02c0-1.36-.99-2.48-2.38-2.48s-2.36 1.1-2.36 2.46v.02c0 1.36.99 2.48 2.38 2.48zm5.84 1.02h1.21v-5l2.19 3.28h.04l2.21-3.3V138h1.23v-7h-1.31l-2.13 3.31-2.13-3.31h-1.31v7zm13.08 0h4.91v-1.12h-3.68V131h-1.23v7zm6.95 0h1.23v-7h-1.23v7zm6.1.05h1.1l2.9-7.05h-1.33l-2.1 5.38-2.11-5.38h-1.36l2.9 7.05zm5.9-.05h5.24v-1.1h-4.01v-1.87h3.51v-1.11h-3.51v-1.82h3.96V131h-5.19v7zm11.1 0h1.23v-2.85h3.53v-1.12h-3.53v-1.91h3.98V131h-5.21v7zm7.26 0h5.24v-1.1h-4.01v-1.87h3.51v-1.11h-3.51v-1.82h3.96V131h-5.19v7zm7.4 0h5.24v-1.1h-4.01v-1.87h3.51v-1.11h-3.51v-1.82h3.96V131h-5.19v7zm7.4 0v-7h2.61c2.2 0 3.72 1.51 3.72 3.48v.02c0 1.97-1.52 3.5-3.72 3.5h-2.61zm2.61-5.88h-1.38v4.76h1.38c1.47 0 2.43-.99 2.43-2.36v-.02c0-1.37-.96-2.38-2.43-2.38z"/></g><g mask="url(#b)"><g transform="translate(412 57)"><use fill="#000" filter="url(#l)" xlink:href="#m"/><use fill="#FFF" xlink:href="#m"/></g><path fill="#6A778B" d="M429.35 79.1c1.47 0 2.5-.78 2.5-2.09v-.02c0-1.16-.76-1.69-2.24-2.05-1.35-.32-1.67-.56-1.67-1.1v-.02c0-.46.42-.83 1.14-.83.64 0 1.27.25 1.9.72l.66-.93c-.71-.57-1.52-.88-2.54-.88-1.39 0-2.39.83-2.39 2.03v.02c0 1.29.84 1.73 2.33 2.09 1.3.3 1.58.57 1.58 1.07v.02c0 .52-.48.88-1.24.88-.86 0-1.54-.33-2.21-.91l-.74.88c.84.75 1.85 1.12 2.92 1.12zM434 79h5.24v-1.1h-4.01v-1.87h3.51v-1.11h-3.51V73.1h3.96V72H434v7zm6.8 0l3.08-7.05h1.14L448.1 79h-1.3l-.71-1.69h-3.31l-.72 1.69h-1.26zm2.43-2.78h2.41l-1.21-2.8-1.2 2.8zM450 79v-7h3.12c.88 0 1.57.26 2.02.7.37.38.58.9.58 1.51v.02c0 1.15-.69 1.84-1.66 2.12l1.89 2.65h-1.46l-1.72-2.44h-1.54V79H450zm1.23-3.53h1.8c.88 0 1.44-.46 1.44-1.17v-.02c0-.75-.54-1.16-1.45-1.16h-1.79v2.35zm9.95 3.65c1.31 0 2.11-.48 2.84-1.24l-.79-.8c-.6.56-1.15.9-2.01.9-1.34 0-2.31-1.11-2.31-2.48v-.02c0-1.37.98-2.46 2.3-2.46.81 0 1.4.34 1.97.86l.79-.91c-.67-.64-1.45-1.09-2.75-1.09-2.11 0-3.6 1.63-3.6 3.62v.02c0 2.01 1.51 3.6 3.56 3.6zm4.84-.12h1.23v-2.95h3.34V79h1.23v-7h-1.23v2.91h-3.34V72h-1.23v7zm13.34 0h1.3v-1.34h-1.3V79zm-2.63 0h1.3v-1.34h-1.3V79zm-2.63 0h1.3v-1.34h-1.3V79z"/></g><g mask="url(#b)"><g transform="translate(50 102)"><use fill="#000" filter="url(#n)" xlink:href="#o"/><use fill="#FFF" xlink:href="#o"/></g><g transform="translate(91 156)"><path fill="#365EAB" d="M159.162 10.719a64.78 64.78 0 00-24.342-4.73c-35.899 0-65 29.101-65 65 0 35.898 29.101 65 65 65 17.91 0 34.127-7.245 45.884-18.963L134.82 70.99l24.342-60.271z"/><path fill="#BED7EB" d="M192.257 40.557c-7.142-13.451-18.866-24.085-33.095-29.838l-24.343 60.27 57.438-30.432z"/><path fill="#0083C9" d="M199.82 70.99a64.7 64.7 0 00-7.563-30.433L134.82 70.99h65z"/><path fill="#F79C49" d="M194.269 97.27a64.746 64.746 0 005.551-26.281h-65l59.449 26.282z"/><path fill="#E42822" d="M180.704 117.027A65.103 65.103 0 00194.27 97.27L134.82 70.989l45.884 46.038z"/><path fill="#FEFEFE" d="M134.82 41.02c16.55 0 29.969 13.417 29.969 29.969s-13.418 29.97-29.97 29.97c-16.551 0-29.97-13.418-29.97-29.97s13.419-29.97 29.97-29.97"/><mask id="q" fill="#fff"><use xlink:href="#p"/></mask><path fill="#E5E6EA" mask="url(#q)" d="M-.001 59.135h60.166v-4.87H-.001zM0 69.193h39.956v-4.87H0zM186.958 4.87h60.166V0h-60.166zM186.958 14.929h39.957v-4.87h-39.957zM211.23 40.572h60.165v-4.87H211.23zM211.23 50.631h39.956v-4.87H211.23zM211.23 73.858h60.165v-4.87H211.23zM211.23 83.916h39.956v-4.87H211.23zM195.518 118.391h60.166v-4.87h-60.166zM195.518 128.45h39.956v-4.87h-39.956z"/></g><path fill="#30405C" d="M82.61 142h1.23v-5.86h2.23V135h-5.69v1.14h2.23V142zm8.42.12c-2.15 0-3.65-1.63-3.65-3.6v-.02c0-1.97 1.52-3.62 3.67-3.62s3.65 1.63 3.65 3.6v.02c0 1.97-1.52 3.62-3.67 3.62zm.02-1.14c1.39 0 2.36-1.1 2.36-2.46v-.02c0-1.36-.99-2.48-2.38-2.48s-2.36 1.1-2.36 2.46v.02c0 1.36.99 2.48 2.38 2.48zm5.84 1.02v-7h2.76c1.64 0 2.66.93 2.66 2.34v.02c0 1.57-1.26 2.39-2.8 2.39h-1.39V142h-1.23zm1.23-3.36h1.43c.93 0 1.51-.52 1.51-1.25v-.02c0-.82-.59-1.25-1.51-1.25h-1.43v2.52zm11.99 3.48c1.55 0 2.6-.94 2.6-2.37v-.02c0-1.48-1.08-2.2-2.44-2.2-.47 0-.78.08-1.11.2l.11-1.63h3.13V135h-4.19l-.2 3.43.74.49c.36-.17.79-.31 1.29-.31.85 0 1.45.45 1.45 1.16v.02c0 .73-.55 1.21-1.39 1.21-.65 0-1.24-.32-1.8-.84l-.76.89c.66.64 1.5 1.07 2.57 1.07zm8.49-.12h5.24v-1.1h-4.01v-1.87h3.51v-1.11h-3.51v-1.82h3.96V135h-5.19v7zm10.74.12c-2.15 0-3.65-1.63-3.65-3.6v-.02c0-1.97 1.52-3.62 3.67-3.62s3.65 1.63 3.65 3.6v.02c0 1.97-1.52 3.62-3.67 3.62zm.02-1.14c1.39 0 2.36-1.1 2.36-2.46v-.02c0-1.36-.99-2.48-2.38-2.48s-2.36 1.1-2.36 2.46v.02c0 1.36.99 2.48 2.38 2.48zm5.84 1.02h4.91v-1.12h-3.68V135h-1.23v7zm5.73 1.28h1.05l4.52-9.26h-1.05l-4.52 9.26zm10-1.16c-2.15 0-3.65-1.63-3.65-3.6v-.02c0-1.97 1.52-3.62 3.67-3.62s3.65 1.63 3.65 3.6v.02c0 1.97-1.52 3.62-3.67 3.62zm.02-1.14c1.39 0 2.36-1.1 2.36-2.46v-.02c0-1.36-.99-2.48-2.38-2.48s-2.36 1.1-2.36 2.46v.02c0 1.36.99 2.48 2.38 2.48zm5.84 1.02v-7h3.14c.8 0 1.43.22 1.83.62.31.31.47.7.47 1.16v.02c0 .84-.48 1.29-1 1.56.82.28 1.39.75 1.39 1.7v.02c0 1.25-1.03 1.92-2.59 1.92h-3.24zm4.21-5v-.02c0-.55-.44-.89-1.23-.89H158v1.86h1.68c.79 0 1.32-.31 1.32-.95zm.39 2.93c0-.59-.47-.94-1.44-.94H158v1.92h2.04c.83 0 1.35-.33 1.35-.96v-.02zm5.77 2.17c1.47 0 2.5-.78 2.5-2.09v-.02c0-1.16-.76-1.69-2.24-2.05-1.35-.32-1.67-.56-1.67-1.1v-.02c0-.46.42-.83 1.14-.83.64 0 1.27.25 1.9.72l.66-.93c-.71-.57-1.52-.88-2.54-.88-1.39 0-2.39.83-2.39 2.03v.02c0 1.29.84 1.73 2.33 2.09 1.3.3 1.58.57 1.58 1.07v.02c0 .52-.48.88-1.24.88-.86 0-1.54-.33-2.21-.91l-.74.88c.84.75 1.85 1.12 2.92 1.12zm7.99.02c-2.15 0-3.65-1.63-3.65-3.6v-.02c0-1.97 1.52-3.62 3.67-3.62s3.65 1.63 3.65 3.6v.02c0 1.97-1.52 3.62-3.67 3.62zm.02-1.14c1.39 0 2.36-1.1 2.36-2.46v-.02c0-1.36-.99-2.48-2.38-2.48s-2.36 1.1-2.36 2.46v.02c0 1.36.99 2.48 2.38 2.48zm5.84 1.02h4.91v-1.12h-3.68V135h-1.23v7zm6.88 0h5.24v-1.1h-4.01v-1.87h3.51v-1.11h-3.51v-1.82h3.96V135h-5.19v7zm9.1 0h1.23v-5.86h2.23V135h-5.69v1.14h2.23V142zm5.44 0h5.24v-1.1h-4.01v-1.87h3.51v-1.11h-3.51v-1.82h3.96V135h-5.19v7zm14.44.12c-2.15 0-3.65-1.63-3.65-3.6v-.02c0-1.97 1.52-3.62 3.67-3.62s3.65 1.63 3.65 3.6v.02c0 1.97-1.52 3.62-3.67 3.62zm.02-1.14c1.39 0 2.36-1.1 2.36-2.46v-.02c0-1.36-.99-2.48-2.38-2.48s-2.36 1.1-2.36 2.46v.02c0 1.36.99 2.48 2.38 2.48zm5.84 1.02v-7h2.76c1.64 0 2.66.93 2.66 2.34v.02c0 1.57-1.26 2.39-2.8 2.39h-1.39V142h-1.23zm1.23-3.36h1.43c.93 0 1.51-.52 1.51-1.25v-.02c0-.82-.59-1.25-1.51-1.25h-1.43v2.52zm6.15 3.36h5.24v-1.1h-4.01v-1.87h3.51v-1.11h-3.51v-1.82h3.96V135h-5.19v7zm7.4 0v-7h3.12c.88 0 1.57.26 2.02.7.37.38.58.9.58 1.51v.02c0 1.15-.69 1.84-1.66 2.12l1.89 2.65H242l-1.72-2.44h-1.54V142h-1.23zm1.23-3.53h1.8c.88 0 1.44-.46 1.44-1.17v-.02c0-.75-.54-1.16-1.45-1.16h-1.79v2.35zm6.1 3.53l3.08-7.05h1.14l3.08 7.05h-1.3l-.71-1.69h-3.31l-.72 1.69h-1.26zm2.43-2.78h2.41l-1.21-2.8-1.2 2.8zm7.59 2.78h1.23v-5.86h2.23V135h-5.69v1.14h2.23V142zm5.51 0h1.23v-7h-1.23v7zm3.8 0h1.21v-4.98l3.86 4.98h1.03v-7h-1.21v4.84l-3.75-4.84h-1.14v7zm11.92.12c1.24 0 2.23-.5 2.92-1.09v-2.94h-2.98v1.08h1.79v1.3c-.43.32-1.03.53-1.69.53-1.43 0-2.38-1.06-2.38-2.5v-.02c0-1.34.98-2.46 2.27-2.46.89 0 1.42.29 1.96.74l.78-.93c-.72-.61-1.47-.95-2.69-.95-2.11 0-3.61 1.66-3.61 3.62v.02c0 2.04 1.44 3.6 3.63 3.6zm11.37-.02c1.47 0 2.5-.78 2.5-2.09v-.02c0-1.16-.76-1.69-2.24-2.05-1.35-.32-1.67-.56-1.67-1.1v-.02c0-.46.42-.83 1.14-.83.64 0 1.27.25 1.9.72l.66-.93c-.71-.57-1.52-.88-2.54-.88-1.39 0-2.39.83-2.39 2.03v.02c0 1.29.84 1.73 2.33 2.09 1.3.3 1.58.57 1.58 1.07v.02c0 .52-.48.88-1.24.88-.86 0-1.54-.33-2.21-.91l-.74.88c.84.75 1.85 1.12 2.92 1.12zm6.41-.1h1.24v-2.79l2.78-4.21h-1.41l-1.98 3.09-1.95-3.09h-1.46l2.78 4.24V142zm7.9.1c1.47 0 2.5-.78 2.5-2.09v-.02c0-1.16-.76-1.69-2.24-2.05-1.35-.32-1.67-.56-1.67-1.1v-.02c0-.46.42-.83 1.14-.83.64 0 1.27.25 1.9.72l.66-.93c-.71-.57-1.52-.88-2.54-.88-1.39 0-2.39.83-2.39 2.03v.02c0 1.29.84 1.73 2.33 2.09 1.3.3 1.58.57 1.58 1.07v.02c0 .52-.48.88-1.24.88-.86 0-1.54-.33-2.21-.91l-.74.88c.84.75 1.85 1.12 2.92 1.12zm6.22-.1h1.23v-5.86h2.23V135h-5.69v1.14h2.23V142zm5.44 0h5.24v-1.1h-4.01v-1.87h3.51v-1.11h-3.51v-1.82h3.96V135h-5.19v7zm7.4 0h1.21v-5l2.19 3.28h.04l2.21-3.3V142h1.23v-7h-1.31l-2.13 3.31-2.13-3.31h-1.31v7zm11.83.1c1.47 0 2.5-.78 2.5-2.09v-.02c0-1.16-.76-1.69-2.24-2.05-1.35-.32-1.67-.56-1.67-1.1v-.02c0-.46.42-.83 1.14-.83.64 0 1.27.25 1.9.72l.66-.93c-.71-.57-1.52-.88-2.54-.88-1.39 0-2.39.83-2.39 2.03v.02c0 1.29.84 1.73 2.33 2.09 1.3.3 1.58.57 1.58 1.07v.02c0 .52-.48.88-1.24.88-.86 0-1.54-.33-2.21-.91l-.74.88c.84.75 1.85 1.12 2.92 1.12z"/><path fill="#E5E7EB" d="M90 177h60v5H90zM90 187h40v5H90zM310 192h60v5h-60zM310 202h30v5h-30zM90 263h60v5H90zM90 273h40v5H90z"/></g><path fill="#30405C" d="M55.464 84.08L51.576 72.8h2.128l2.672 8.304 2.752-8.336h1.664l2.752 8.336 2.672-8.304h2.064l-3.888 11.28H62.68l-2.752-8.048-2.752 8.048h-1.712zm15.707.096c-1.584 0-3.008-.912-3.008-2.608v-.032c0-1.824 1.44-2.72 3.504-2.72.944 0 1.616.144 2.272.352v-.208c0-1.2-.736-1.84-2.096-1.84-.944 0-1.648.208-2.416.528l-.528-1.52c.944-.416 1.856-.688 3.2-.688 1.264 0 2.208.336 2.8.944.624.608.912 1.504.912 2.608V84h-1.888v-1.056c-.576.688-1.456 1.232-2.752 1.232zm.544-1.408c1.28 0 2.256-.736 2.256-1.808v-.576a5.367 5.367 0 00-1.92-.336c-1.248 0-1.984.528-1.984 1.408v.032c0 .816.72 1.28 1.648 1.28zM77.9 84h1.952v-4.768c0-1.312.784-2.096 1.904-2.096 1.152 0 1.808.752 1.808 2.064V84h1.936v-5.392c0-1.952-1.104-3.232-3.008-3.232-1.312 0-2.096.688-2.64 1.472v-1.296h-1.952V84zm9.707 0h1.952v-4.768c0-1.312.784-2.096 1.904-2.096 1.152 0 1.808.752 1.808 2.064V84h1.936v-5.392c0-1.952-1.104-3.232-3.008-3.232-1.312 0-2.096.688-2.64 1.472v-1.296h-1.952V84zm12.155.176c-1.584 0-3.008-.912-3.008-2.608v-.032c0-1.824 1.44-2.72 3.504-2.72.944 0 1.616.144 2.272.352v-.208c0-1.2-.736-1.84-2.096-1.84-.944 0-1.648.208-2.416.528l-.528-1.52c.944-.416 1.856-.688 3.2-.688 1.264 0 2.208.336 2.8.944.624.608.912 1.504.912 2.608V84h-1.888v-1.056c-.576.688-1.456 1.232-2.752 1.232zm.544-1.408c1.28 0 2.256-.736 2.256-1.808v-.576a5.367 5.367 0 00-1.92-.336c-1.248 0-1.984.528-1.984 1.408v.032c0 .816.72 1.28 1.648 1.28zm11.626 1.424c2.096 0 3.376-.768 4.544-1.984l-1.264-1.28c-.96.896-1.84 1.44-3.216 1.44-2.144 0-3.696-1.776-3.696-3.968v-.032c0-2.192 1.568-3.936 3.68-3.936 1.296 0 2.24.544 3.152 1.376l1.264-1.456c-1.072-1.024-2.32-1.744-4.4-1.744-3.376 0-5.76 2.608-5.76 5.792v.032c0 3.216 2.416 5.76 5.696 5.76zm6.171-.192h1.952v-3.216c0-2.24 1.184-3.344 2.88-3.344h.112v-2.048c-1.488-.064-2.464.8-2.992 2.064v-1.904h-1.952V84zm10.059-2.176l-2.368-6.272h-2.08l3.52 8.464c-.32.72-.656.96-1.2.96-.4 0-.784-.128-1.136-.32l-.656 1.424c.592.336 1.2.528 2 .528 1.36 0 2.112-.64 2.784-2.384l3.36-8.672h-2.016l-2.208 6.272zM138.648 84V72.8h4.176c3.52 0 5.952 2.416 5.952 5.568v.032c0 3.152-2.432 5.6-5.952 5.6h-4.176zm4.176-9.408h-2.208v7.616h2.208c2.352 0 3.888-1.584 3.888-3.776V78.4c0-2.192-1.536-3.808-3.888-3.808zm10.33 9.584c-1.583 0-3.007-.912-3.007-2.608v-.032c0-1.824 1.44-2.72 3.504-2.72.944 0 1.616.144 2.272.352v-.208c0-1.2-.736-1.84-2.096-1.84-.944 0-1.648.208-2.416.528l-.528-1.52c.944-.416 1.856-.688 3.2-.688 1.264 0 2.208.336 2.8.944.624.608.912 1.504.912 2.608V84h-1.888v-1.056c-.576.688-1.456 1.232-2.752 1.232zm.545-1.408c1.28 0 2.256-.736 2.256-1.808v-.576a5.367 5.367 0 00-1.92-.336c-1.248 0-1.984.528-1.984 1.408v.032c0 .816.72 1.28 1.648 1.28zm9.098 1.392c1.76 0 3.136-.88 3.136-2.656v-.032c0-1.52-1.392-2.08-2.624-2.464-.992-.32-1.904-.576-1.904-1.2v-.032c0-.464.432-.832 1.184-.832.704 0 1.568.304 2.384.8l.768-1.376c-.896-.592-2.048-.96-3.104-.96-1.68 0-3.008.976-3.008 2.592v.032c0 1.6 1.392 2.112 2.64 2.464.992.304 1.888.528 1.888 1.184v.032c0 .56-.48.912-1.312.912-.864 0-1.84-.352-2.768-1.04l-.864 1.312a5.834 5.834 0 003.584 1.264zm4.891-.16h1.952v-4.768c0-1.312.784-2.096 1.904-2.096 1.152 0 1.808.752 1.808 2.064V84h1.936v-5.392c0-1.952-1.104-3.232-3.008-3.232-1.312 0-2.096.688-2.64 1.472V72.32h-1.952V84zm14.539.176c-1.408 0-2.288-.704-2.88-1.488V84h-1.952V72.32h1.952v4.64c.624-.88 1.504-1.584 2.88-1.584 1.984 0 3.92 1.568 3.92 4.384v.032c0 2.8-1.92 4.384-3.92 4.384zm-.464-1.68c1.328 0 2.416-1.04 2.416-2.704v-.032c0-1.632-1.12-2.704-2.416-2.704-1.312 0-2.464 1.088-2.464 2.704v.032c0 1.616 1.152 2.704 2.464 2.704zm10.186 1.696c-2.576 0-4.48-1.968-4.48-4.368v-.032c0-2.416 1.92-4.416 4.512-4.416 2.592 0 4.496 1.968 4.496 4.384v.032c0 2.4-1.92 4.4-4.528 4.4zm.032-1.696c1.568 0 2.56-1.216 2.56-2.672v-.032c0-1.488-1.072-2.72-2.592-2.72-1.552 0-2.544 1.216-2.544 2.688v.032c0 1.472 1.072 2.704 2.576 2.704zm8.683 1.68c-1.584 0-3.008-.912-3.008-2.608v-.032c0-1.824 1.44-2.72 3.504-2.72.944 0 1.616.144 2.272.352v-.208c0-1.2-.736-1.84-2.096-1.84-.944 0-1.648.208-2.416.528l-.528-1.52c.944-.416 1.856-.688 3.2-.688 1.264 0 2.208.336 2.8.944.624.608.912 1.504.912 2.608V84h-1.888v-1.056c-.576.688-1.456 1.232-2.752 1.232zm.544-1.408c1.28 0 2.256-.736 2.256-1.808v-.576a5.367 5.367 0 00-1.92-.336c-1.248 0-1.984.528-1.984 1.408v.032c0 .816.72 1.28 1.648 1.28zM207.395 84h1.952v-3.216c0-2.24 1.184-3.344 2.88-3.344h.112v-2.048c-1.488-.064-2.464.8-2.992 2.064v-1.904h-1.952V84zm9.674.176c-1.984 0-3.92-1.584-3.92-4.384v-.032c0-2.8 1.904-4.384 3.92-4.384 1.392 0 2.272.688 2.88 1.488V72.32h1.936V84h-1.936v-1.408c-.624.88-1.504 1.584-2.88 1.584zm.464-1.68c1.296 0 2.448-1.088 2.448-2.704v-.032c0-1.632-1.152-2.704-2.448-2.704-1.328 0-2.432 1.04-2.432 2.704v.032c0 1.632 1.12 2.704 2.432 2.704z" mask="url(#b)"/><g mask="url(#b)"><g transform="translate(51 21.013)"><mask id="s" fill="#fff"><use xlink:href="#r"/></mask><path fill="#ED2E26" d="M14.487.105c9.436 0 14.18 5.08 14.18 5.08s.542 3.76.196 11.331C28.34 27.953 14.49 34.822 14.49 34.823c0 0-13.85-6.87-14.373-18.307-.347-7.57.196-11.33.196-11.33S5.052.105 14.487.105" mask="url(#s)"/></g><path fill="#262626" d="M97.4 44.397c-3.26 0-5.91-2.667-5.91-5.947 0-3.279 2.65-5.946 5.91-5.946 3.258 0 5.91 2.667 5.91 5.946 0 3.28-2.652 5.947-5.91 5.947m0-14.298c-4.577 0-8.3 3.747-8.3 8.351 0 2.788 1.164 5.272 3.367 7.183 2.062 1.79 5.02 3.024 8.435 3.596.488-.27 1.412-1.18 1.706-1.805-2.516-.437-3.67-.87-3.67-.87s.322-.013.969-.195c3.36-.95 5.825-4.29 5.792-7.909-.042-4.604-3.723-8.35-8.3-8.35m45.897 12.187l-2.803-7.484h-2.498l4.09 10.447-1.808 4.327c1.19 0 2.492-.084 3.002-1.346 1.195-2.96 5.356-13.428 5.356-13.428h-2.498l-2.84 7.484zm-9.369 3.734s2.319-.043 2.319-1.626V30.177h-2.319v15.844zm-8.28-2.189c-1.402 0-3.5-.941-3.531-3.534v-.019c0-2.047 1.5-3.592 3.492-3.592 1.487 0 2.695.782 3.235 2.098.213.445.315.967.295 1.508a3.885 3.885 0 01-.355 1.524c-.546 1.262-1.719 2.015-3.137 2.015zm3.472-7.555c-.646-.906-1.907-1.786-3.763-1.786-3.17 0-5.559 2.48-5.559 5.769 0 1.537.523 2.965 1.47 4.021 1.027 1.143 2.44 1.747 4.089 1.747 1.597 0 2.964-.655 3.763-1.778v1.77s2.318-.036 2.318-1.624v-9.593h-2.318v1.474zm-13.546 4.607c0 1.884-.972 2.93-2.736 2.948-1.79 0-2.659-1.022-2.659-3.124v-5.905h-2.318v6.373c0 .92.154 2.232.888 3.258.75 1.049 1.937 1.585 3.525 1.594h.065c1.9 0 2.878-.866 3.351-1.54v1.533s2.202-.038 2.202-1.547v-9.67h-2.318v6.08zm38.62-1.648c-1.204-.524-2.08-.977-2.065-1.68.01-.465.62-.91 1.252-.888.678.023 1.18.493 1.46.87 0 0 1.267-1.09 1.42-1.207-.656-1.093-1.77-1.708-3.02-1.736-1.783-.04-3.265 1.368-3.304 3.137-.033 1.532.859 2.165 2.028 2.832l1.926 1.09c.444.312.654.545.643 1.026-.016.754-.643 1.242-1.454 1.29-.597.036-1.087-.311-1.551-.8-.903-.952-2.29-.494-2.715-.357.882 2.042 2.552 3.231 4.22 3.268 2.1.047 3.78-1.513 3.825-3.55.022-.982-.406-2.2-2.665-3.295"/><path fill="#FFF" d="M58.407 36.153c0-4.044 3.177-7.334 7.082-7.334 3.909 0 7.089 3.2 7.089 7.132 0 3.14-2.683 5.723-4.75 7.05.802.46 2.572.944 4.267 1.1a10.316 10.316 0 003.983-8.15c0-5.875-4.75-10.655-10.589-10.655-5.838 0-10.589 4.78-10.589 10.655 0 3.548 1.469 6.7 4.247 9.116 2.597 2.258 6.396 3.766 10.72 4.48.938-.522 2.54-2.06 3.142-2.96-3.613-.468-7.032-1.355-9.324-2.564-3.502-1.85-5.278-4.497-5.278-7.87"/></g></g></svg>