<svg xmlns="http://www.w3.org/2000/svg" xmlns:xlink="http://www.w3.org/1999/xlink" width="815" height="514" viewBox="0 0 815 514">
  <defs>
    <rect id="wannacry-dashboard-a" width="815" height="514"/>
    <rect id="wannacry-dashboard-d" width="231" height="230" rx="2"/>
    <filter id="wannacry-dashboard-c" width="106.1%" height="106.1%" x="-3%" y="-2.2%" filterUnits="objectBoundingBox">
      <feOffset dy="2" in="SourceAlpha" result="shadowOffsetOuter1"/>
      <feGaussianBlur in="shadowOffsetOuter1" result="shadowBlurOuter1" stdDeviation="2"/>
      <feColorMatrix in="shadowBlurOuter1" values="0 0 0 0 0.908056973   0 0 0 0 0.908056973   0 0 0 0 0.908056973  0 0 0 0.5 0"/>
    </filter>
    <rect id="wannacry-dashboard-f" width="231" height="230" rx="2"/>
    <filter id="wannacry-dashboard-e" width="106.1%" height="106.1%" x="-3%" y="-2.2%" filterUnits="objectBoundingBox">
      <feOffset dy="2" in="SourceAlpha" result="shadowOffsetOuter1"/>
      <feGaussianBlur in="shadowOffsetOuter1" result="shadowBlurOuter1" stdDeviation="2"/>
      <feColorMatrix in="shadowBlurOuter1" values="0 0 0 0 0.908056973   0 0 0 0 0.908056973   0 0 0 0 0.908056973  0 0 0 0.5 0"/>
    </filter>
    <rect id="wannacry-dashboard-h" width="231" height="230" rx="2"/>
    <filter id="wannacry-dashboard-g" width="106.1%" height="106.1%" x="-3%" y="-2.2%" filterUnits="objectBoundingBox">
      <feOffset dy="2" in="SourceAlpha" result="shadowOffsetOuter1"/>
      <feGaussianBlur in="shadowOffsetOuter1" result="shadowBlurOuter1" stdDeviation="2"/>
      <feColorMatrix in="shadowBlurOuter1" values="0 0 0 0 0.908056973   0 0 0 0 0.908056973   0 0 0 0 0.908056973  0 0 0 0.5 0"/>
    </filter>
    <rect id="wannacry-dashboard-j" width="352" height="220" rx="2"/>
    <filter id="wannacry-dashboard-i" width="104%" height="106.4%" x="-2%" y="-2.3%" filterUnits="objectBoundingBox">
      <feOffset dy="2" in="SourceAlpha" result="shadowOffsetOuter1"/>
      <feGaussianBlur in="shadowOffsetOuter1" result="shadowBlurOuter1" stdDeviation="2"/>
      <feColorMatrix in="shadowBlurOuter1" values="0 0 0 0 0.908056973   0 0 0 0 0.908056973   0 0 0 0 0.908056973  0 0 0 0.5 0"/>
    </filter>
    <polygon id="wannacry-dashboard-k" points="0 113.173 0 .534 25.27 .534 25.27 113.173 0 113.173"/>
    <polygon id="wannacry-dashboard-m" points="26.138 .639 26.138 40.173 .868 40.173 .868 .639 26.138 .639"/>
    <polygon id="wannacry-dashboard-o" points="0 128.466 292.138 128.466 292.138 1 0 1"/>
    <rect id="wannacry-dashboard-r" width="352" height="37" rx="2"/>
    <filter id="wannacry-dashboard-q" width="104%" height="137.8%" x="-2%" y="-13.5%" filterUnits="objectBoundingBox">
      <feOffset dy="2" in="SourceAlpha" result="shadowOffsetOuter1"/>
      <feGaussianBlur in="shadowOffsetOuter1" result="shadowBlurOuter1" stdDeviation="2"/>
      <feColorMatrix in="shadowBlurOuter1" values="0 0 0 0 0.908056973   0 0 0 0 0.908056973   0 0 0 0 0.908056973  0 0 0 0.5 0"/>
    </filter>
    <polygon id="wannacry-dashboard-s" points="0 113.173 0 .534 25.27 .534 25.27 113.173 0 113.173"/>
    <rect id="wannacry-dashboard-u" width="352" height="220" rx="2"/>
    <filter id="wannacry-dashboard-t" width="104%" height="106.4%" x="-2%" y="-2.3%" filterUnits="objectBoundingBox">
      <feOffset dy="2" in="SourceAlpha" result="shadowOffsetOuter1"/>
      <feGaussianBlur in="shadowOffsetOuter1" result="shadowBlurOuter1" stdDeviation="2"/>
      <feColorMatrix in="shadowBlurOuter1" values="0 0 0 0 0.908056973   0 0 0 0 0.908056973   0 0 0 0 0.908056973  0 0 0 0.5 0"/>
    </filter>
    <polygon id="wannacry-dashboard-v" points="0 135.99 271.395 135.99 271.395 0 0 0"/>
    <polygon id="wannacry-dashboard-x" points="0 34.823 0 .105 28.979 .105 28.979 34.823 0 34.823"/>
  </defs>
  <g fill="none" fill-rule="evenodd">
    <mask id="wannacry-dashboard-b" fill="#fff">
      <use xlink:href="#wannacry-dashboard-a"/>
    </mask>
    <use fill="#F7FAFC" xlink:href="#wannacry-dashboard-a"/>
    <g mask="url(#wannacry-dashboard-b)">
      <g transform="translate(533 332)">
        <g>
          <use fill="#000" filter="url(#wannacry-dashboard-c)" xlink:href="#wannacry-dashboard-d"/>
          <use fill="#FFF" xlink:href="#wannacry-dashboard-d"/>
        </g>
        <path fill="#30405C" d="M30.3,40 L33.38,32.95 L34.52,32.95 L37.6,40 L36.3,40 L35.59,38.31 L32.28,38.31 L31.56,40 L30.3,40 Z M32.73,37.22 L35.14,37.22 L33.93,34.42 L32.73,37.22 Z M41.84,40.1 C40.77,40.1 39.76,39.73 38.92,38.98 L39.66,38.1 C40.33,38.68 41.01,39.01 41.87,39.01 C42.63,39.01 43.11,38.65 43.11,38.13 L43.11,38.11 C43.11,37.61 42.83,37.34 41.53,37.04 C40.04,36.68 39.2,36.24 39.2,34.95 L39.2,34.93 C39.2,33.73 40.2,32.9 41.59,32.9 C42.61,32.9 43.42,33.21 44.13,33.78 L43.47,34.71 C42.84,34.24 42.21,33.99 41.57,33.99 C40.85,33.99 40.43,34.36 40.43,34.82 L40.43,34.84 C40.43,35.38 40.75,35.62 42.1,35.94 C43.58,36.3 44.34,36.83 44.34,37.99 L44.34,38.01 C44.34,39.32 43.31,40.1 41.84,40.1 Z M48.84,40.1 C47.77,40.1 46.76,39.73 45.92,38.98 L46.66,38.1 C47.33,38.68 48.01,39.01 48.87,39.01 C49.63,39.01 50.11,38.65 50.11,38.13 L50.11,38.11 C50.11,37.61 49.83,37.34 48.53,37.04 C47.04,36.68 46.2,36.24 46.2,34.95 L46.2,34.93 C46.2,33.73 47.2,32.9 48.59,32.9 C49.61,32.9 50.42,33.21 51.13,33.78 L50.47,34.71 C49.84,34.24 49.21,33.99 48.57,33.99 C47.85,33.99 47.43,34.36 47.43,34.82 L47.43,34.84 C47.43,35.38 47.75,35.62 49.1,35.94 C50.58,36.3 51.34,36.83 51.34,37.99 L51.34,38.01 C51.34,39.32 50.31,40.1 48.84,40.1 Z M53.49,40 L53.49,33 L58.68,33 L58.68,34.1 L54.72,34.1 L54.72,35.92 L58.23,35.92 L58.23,37.03 L54.72,37.03 L54.72,38.9 L58.73,38.9 L58.73,40 L53.49,40 Z M62.59,40 L62.59,34.14 L60.36,34.14 L60.36,33 L66.05,33 L66.05,34.14 L63.82,34.14 L63.82,40 L62.59,40 Z M70.3399999,40.1 C69.2699999,40.1 68.2599999,39.73 67.4199999,38.98 L68.1599999,38.1 C68.8299999,38.68 69.5099999,39.01 70.3699999,39.01 C71.1299999,39.01 71.6099999,38.65 71.6099999,38.13 L71.6099999,38.11 C71.6099999,37.61 71.3299999,37.34 70.0299999,37.04 C68.5399999,36.68 67.6999999,36.24 67.6999999,34.95 L67.6999999,34.93 C67.6999999,33.73 68.6999999,32.9 70.0899999,32.9 C71.1099999,32.9 71.9199999,33.21 72.6299999,33.78 L71.9699999,34.71 C71.3399999,34.24 70.7099999,33.99 70.0699999,33.99 C69.3499999,33.99 68.9299999,34.36 68.9299999,34.82 L68.9299999,34.84 C68.9299999,35.38 69.2499999,35.62 70.5999999,35.94 C72.0799999,36.3 72.8399999,36.83 72.8399999,37.99 L72.8399999,38.01 C72.8399999,39.32 71.8099999,40.1 70.3399999,40.1 Z M80.5799999,40.05 L78.1499999,33 L79.4799999,33 L81.1499999,38.19 L82.8699999,32.98 L83.9099999,32.98 L85.6299999,38.19 L87.2999999,33 L88.5899999,33 L86.1599999,40.05 L85.0899999,40.05 L83.3699999,35.02 L81.6499999,40.05 L80.5799999,40.05 Z M90.6199999,40 L90.6199999,33 L91.8499999,33 L91.8499999,40 L90.6199999,40 Z M96.1299999,40 L96.1299999,34.14 L93.8999999,34.14 L93.8999999,33 L99.5899999,33 L99.5899999,34.14 L97.3599999,34.14 L97.3599999,40 L96.1299999,40 Z M101.57,40 L101.57,33 L102.8,33 L102.8,35.91 L106.14,35.91 L106.14,33 L107.37,33 L107.37,40 L106.14,40 L106.14,37.05 L102.8,37.05 L102.8,40 L101.57,40 Z M115.46,40.05 L113.03,33 L114.36,33 L116.03,38.19 L117.75,32.98 L118.79,32.98 L120.51,38.19 L122.18,33 L123.47,33 L121.04,40.05 L119.97,40.05 L118.25,35.02 L116.53,40.05 L115.46,40.05 Z M123.93,40 L127.01,32.95 L128.15,32.95 L131.23,40 L129.93,40 L129.22,38.31 L125.91,38.31 L125.19,40 L123.93,40 Z M126.36,37.22 L128.77,37.22 L127.56,34.42 L126.36,37.22 Z M133.13,40 L133.13,33 L134.27,33 L138.02,37.84 L138.02,33 L139.23,33 L139.23,40 L138.2,40 L134.34,35.02 L134.34,40 L133.13,40 Z M141.73,40 L141.73,33 L142.87,33 L146.62,37.84 L146.62,33 L147.83,33 L147.83,40 L146.8,40 L142.94,35.02 L142.94,40 L141.73,40 Z M149.73,40 L152.81,32.95 L153.95,32.95 L157.03,40 L155.73,40 L155.02,38.31 L151.71,38.31 L150.99,40 L149.73,40 Z M152.16,37.22 L154.57,37.22 L153.36,34.42 L152.16,37.22 Z M161.74,40.12 C159.69,40.12 158.18,38.53 158.18,36.52 L158.18,36.5 C158.18,34.51 159.67,32.88 161.78,32.88 C163.08,32.88 163.86,33.33 164.53,33.97 L163.74,34.88 C163.17,34.36 162.58,34.02 161.77,34.02 C160.45,34.02 159.47,35.11 159.47,36.48 L159.47,36.5 C159.47,37.87 160.44,38.98 161.78,38.98 C162.64,38.98 163.19,38.64 163.79,38.08 L164.58,38.88 C163.85,39.64 163.05,40.12 161.74,40.12 Z M166.58,40 L166.58,33 L169.7,33 C170.58,33 171.27,33.26 171.72,33.7 C172.09,34.08 172.3,34.6 172.3,35.21 L172.3,35.23 C172.3,36.38 171.61,37.07 170.64,37.35 L172.53,40 L171.07,40 L169.35,37.56 L167.81,37.56 L167.81,40 L166.58,40 Z M167.81,36.47 L169.61,36.47 C170.49,36.47 171.05,36.01 171.05,35.3 L171.05,35.28 C171.05,34.53 170.51,34.12 169.6,34.12 L167.81,34.12 L167.81,36.47 Z M176.32,40 L176.32,37.24 L173.54,33 L175,33 L176.95,36.09 L178.93,33 L180.34,33 L177.56,37.21 L177.56,40 L176.32,40 Z"/>
        <rect width="7" height="7" x="30" y="59" fill="#FF6E47" rx="3.5"/>
        <rect width="7" height="7" x="30" y="79" fill="#BDD6E9" rx="3.5"/>
        <rect width="7" height="7" x="30" y="99" fill="#FF6E47" rx="3.5"/>
        <rect width="7" height="7" x="30" y="159" fill="#FF6E47" rx="3.5"/>
        <rect width="7" height="7" x="30" y="119" fill="#BDD6E9" rx="3.5"/>
        <rect width="7" height="7" x="30" y="179" fill="#BDD6E9" rx="3.5"/>
        <rect width="7" height="7" x="30" y="139" fill="#BDD6E9" rx="3.5"/>
        <rect width="80" height="5" x="50" y="60" fill="#E5E7EB"/>
        <rect width="30" height="5" x="171" y="60" fill="#E5E7EB"/>
        <rect width="30" height="5" x="171" y="80" fill="#E5E7EB"/>
        <rect width="30" height="5" x="171" y="100" fill="#E5E7EB"/>
        <rect width="30" height="5" x="171" y="120" fill="#E5E7EB"/>
        <rect width="30" height="5" x="171" y="140" fill="#E5E7EB"/>
        <rect width="30" height="5" x="171" y="160" fill="#E5E7EB"/>
        <rect width="30" height="5" x="171" y="180" fill="#E5E7EB"/>
        <rect width="90" height="5" x="50" y="80" fill="#E5E7EB"/>
        <rect width="80" height="5" x="50" y="100" fill="#E5E7EB"/>
        <rect width="90" height="5" x="50" y="120" fill="#E5E7EB"/>
        <rect width="90" height="5" x="50" y="160" fill="#E5E7EB"/>
        <rect width="80" height="5" x="50" y="180" fill="#E5E7EB"/>
        <rect width="80" height="5" x="50" y="140" fill="#E5E7EB"/>
      </g>
    </g>
    <g mask="url(#wannacry-dashboard-b)">
      <g transform="translate(291 332)">
        <g>
          <use fill="#000" filter="url(#wannacry-dashboard-e)" xlink:href="#wannacry-dashboard-f"/>
          <use fill="#FFF" xlink:href="#wannacry-dashboard-f"/>
        </g>
        <path stroke="#2159C8" stroke-width="2" d="M30,155 C43.2939453,155 44.6809455,155 55.7195752,155 C66.7582048,155 66.7921733,168 76.4471528,168 C86.1021323,168 85.3084017,168 93.1902256,168 C101.072049,168 100.749967,159 110.195058,159 C119.640149,159 116.477896,159 129.833177,159 C143.188458,159 144.987656,140 158.298779,140 C171.609901,140 196.151387,140 201,140"/>
        <path fill="#2159C8" fill-opacity=".102" d="M30,155 C43.2939453,155 44.6809455,155 55.7195752,155 C66.7582048,155 66.7921733,168 76.4471528,168 C86.1021323,168 85.3084017,168 93.1902256,168 C101.072049,168 100.749967,159 110.195058,159 C119.640149,159 116.477896,159 129.833177,159 C143.188458,159 144.987656,140 158.298779,140 C171.609901,140 196.151387,140 201,140 C201,146.327313 201,186 201,186 L30,186 C30,186 30,163.65792 30,155 Z"/>
        <rect width="20" height="5" x="181" y="107" fill="#E5E7EB"/>
        <polygon fill="#E5E7EB" points="168 107 176 107 172 114"/>
        <path fill="#30405C" d="M32.79,36.05 L30.36,29 L31.69,29 L33.36,34.19 L35.08,28.98 L36.12,28.98 L37.84,34.19 L39.51,29 L40.8,29 L38.37,36.05 L37.3,36.05 L35.58,31.02 L33.86,36.05 L32.79,36.05 Z M41.26,36 L44.34,28.95 L45.48,28.95 L48.56,36 L47.26,36 L46.55,34.31 L43.24,34.31 L42.52,36 L41.26,36 Z M43.69,33.22 L46.1,33.22 L44.89,30.42 L43.69,33.22 Z M50.46,36 L50.46,29 L51.6,29 L55.35,33.84 L55.35,29 L56.56,29 L56.56,36 L55.53,36 L51.67,31.02 L51.67,36 L50.46,36 Z M59.06,36 L59.06,29 L60.2,29 L63.95,33.84 L63.95,29 L65.16,29 L65.16,36 L64.13,36 L60.27,31.02 L60.27,36 L59.06,36 Z M67.06,36 L70.14,28.95 L71.28,28.95 L74.36,36 L73.06,36 L72.35,34.31 L69.04,34.31 L68.32,36 L67.06,36 Z M69.49,33.22 L71.9,33.22 L70.69,30.42 L69.49,33.22 Z M79.0699999,36.12 C77.0199999,36.12 75.5099999,34.53 75.5099999,32.52 L75.5099999,32.5 C75.5099999,30.51 76.9999999,28.88 79.1099999,28.88 C80.4099999,28.88 81.1899999,29.33 81.8599999,29.97 L81.0699999,30.88 C80.4999999,30.36 79.9099999,30.02 79.0999999,30.02 C77.7799999,30.02 76.7999999,31.11 76.7999999,32.48 L76.7999999,32.5 C76.7999999,33.87 77.7699999,34.98 79.1099999,34.98 C79.9699999,34.98 80.5199999,34.64 81.1199999,34.08 L81.9099999,34.88 C81.1799999,35.64 80.3799999,36.12 79.0699999,36.12 Z M83.9099999,36 L83.9099999,29 L87.0299999,29 C87.9099999,29 88.5999999,29.26 89.0499999,29.7 C89.4199999,30.08 89.6299999,30.6 89.6299999,31.21 L89.6299999,31.23 C89.6299999,32.38 88.9399999,33.07 87.9699999,33.35 L89.8599999,36 L88.3999999,36 L86.6799999,33.56 L85.1399999,33.56 L85.1399999,36 L83.9099999,36 Z M85.1399999,32.47 L86.9399999,32.47 C87.8199999,32.47 88.3799999,32.01 88.3799999,31.3 L88.3799999,31.28 C88.3799999,30.53 87.8399999,30.12 86.9299999,30.12 L85.1399999,30.12 L85.1399999,32.47 Z M93.6499999,36 L93.6499999,33.24 L90.8699999,29 L92.3299999,29 L94.2799999,32.09 L96.2599999,29 L97.6699999,29 L94.8899999,33.21 L94.8899999,36 L93.6499999,36 Z M103.15,36 L103.15,29 L106.27,29 C107.15,29 107.84,29.26 108.29,29.7 C108.66,30.08 108.87,30.6 108.87,31.21 L108.87,31.23 C108.87,32.38 108.18,33.07 107.21,33.35 L109.1,36 L107.64,36 L105.92,33.56 L104.38,33.56 L104.38,36 L103.15,36 Z M104.38,32.47 L106.18,32.47 C107.06,32.47 107.62,32.01 107.62,31.3 L107.62,31.28 C107.62,30.53 107.08,30.12 106.17,30.12 L104.38,30.12 L104.38,32.47 Z M110.48,36 L113.56,28.95 L114.7,28.95 L117.78,36 L116.48,36 L115.77,34.31 L112.46,34.31 L111.74,36 L110.48,36 Z M112.91,33.22 L115.32,33.22 L114.11,30.42 L112.91,33.22 Z M119.68,36 L119.68,29 L120.82,29 L124.57,33.84 L124.57,29 L125.78,29 L125.78,36 L124.75,36 L120.89,31.02 L120.89,36 L119.68,36 Z M130.73,36.1 C129.66,36.1 128.65,35.73 127.81,34.98 L128.55,34.1 C129.22,34.68 129.9,35.01 130.76,35.01 C131.52,35.01 132,34.65 132,34.13 L132,34.11 C132,33.61 131.72,33.34 130.42,33.04 C128.93,32.68 128.09,32.24 128.09,30.95 L128.09,30.93 C128.09,29.73 129.09,28.9 130.48,28.9 C131.5,28.9 132.31,29.21 133.02,29.78 L132.36,30.71 C131.73,30.24 131.1,29.99 130.46,29.99 C129.74,29.99 129.32,30.36 129.32,30.82 L129.32,30.84 C129.32,31.38 129.64,31.62 130.99,31.94 C132.47,32.3 133.23,32.83 133.23,33.99 L133.23,34.01 C133.23,35.32 132.2,36.1 130.73,36.1 Z M138.72,36.12 C136.57,36.12 135.07,34.49 135.07,32.52 L135.07,32.5 C135.07,30.53 136.59,28.88 138.74,28.88 C140.89,28.88 142.39,30.51 142.39,32.48 L142.39,32.5 C142.39,34.47 140.87,36.12 138.72,36.12 Z M138.74,34.98 C140.13,34.98 141.1,33.88 141.1,32.52 L141.1,32.5 C141.1,31.14 140.11,30.02 138.72,30.02 C137.33,30.02 136.36,31.12 136.36,32.48 L136.36,32.5 C136.36,33.86 137.35,34.98 138.74,34.98 Z M144.58,36 L144.58,29 L145.89,29 L148.02,32.31 L150.15,29 L151.46,29 L151.46,36 L150.23,36 L150.23,30.98 L148.02,34.28 L147.98,34.28 L145.79,31 L145.79,36 L144.58,36 Z M153.96,36 L153.96,29 L159.15,29 L159.15,30.1 L155.19,30.1 L155.19,31.92 L158.7,31.92 L158.7,33.03 L155.19,33.03 L155.19,34.9 L159.2,34.9 L159.2,36 L153.96,36 Z M163.25,36.05 L160.82,29 L162.15,29 L163.82,34.19 L165.54,28.98 L166.58,28.98 L168.3,34.19 L169.97,29 L171.26,29 L168.83,36.05 L167.76,36.05 L166.04,31.02 L164.32,36.05 L163.25,36.05 Z M171.72,36 L174.8,28.95 L175.94,28.95 L179.02,36 L177.72,36 L177.01,34.31 L173.7,34.31 L172.98,36 L171.72,36 Z M174.15,33.22 L176.56,33.22 L175.35,30.42 L174.15,33.22 Z M180.92,36 L180.92,29 L184.04,29 C184.92,29 185.61,29.26 186.06,29.7 C186.43,30.08 186.64,30.6 186.64,31.21 L186.64,31.23 C186.64,32.38 185.95,33.07 184.98,33.35 L186.87,36 L185.41,36 L183.69,33.56 L182.15,33.56 L182.15,36 L180.92,36 Z M182.15,32.47 L183.95,32.47 C184.83,32.47 185.39,32.01 185.39,31.3 L185.39,31.28 C185.39,30.53 184.85,30.12 183.94,30.12 L182.15,30.12 L182.15,32.47 Z M188.85,36 L188.85,29 L194.04,29 L194.04,30.1 L190.08,30.1 L190.08,31.92 L193.59,31.92 L193.59,33.03 L190.08,33.03 L190.08,34.9 L194.09,34.9 L194.09,36 L188.85,36 Z M30.9,51 L30.9,44 L33.51,44 C35.71,44 37.23,45.51 37.23,47.48 L37.23,47.5 C37.23,49.47 35.71,51 33.51,51 L30.9,51 Z M33.51,45.12 L32.13,45.12 L32.13,49.88 L33.51,49.88 C34.98,49.88 35.94,48.89 35.94,47.52 L35.94,47.5 C35.94,46.13 34.98,45.12 33.51,45.12 Z M39.42,51 L39.42,44 L44.61,44 L44.61,45.1 L40.65,45.1 L40.65,46.92 L44.16,46.92 L44.16,48.03 L40.65,48.03 L40.65,49.9 L44.66,49.9 L44.66,51 L39.42,51 Z M48.52,51 L48.52,45.14 L46.29,45.14 L46.29,44 L51.98,44 L51.98,45.14 L49.75,45.14 L49.75,51 L48.52,51 Z M53.96,51 L53.96,44 L59.15,44 L59.15,45.1 L55.19,45.1 L55.19,46.92 L58.7,46.92 L58.7,48.03 L55.19,48.03 L55.19,49.9 L59.2,49.9 L59.2,51 L53.96,51 Z M64.61,51.12 C62.56,51.12 61.05,49.53 61.05,47.52 L61.05,47.5 C61.05,45.51 62.54,43.88 64.65,43.88 C65.95,43.88 66.73,44.33 67.4,44.97 L66.61,45.88 C66.04,45.36 65.45,45.02 64.64,45.02 C63.32,45.02 62.34,46.11 62.34,47.48 L62.34,47.5 C62.34,48.87 63.31,49.98 64.65,49.98 C65.51,49.98 66.06,49.64 66.66,49.08 L67.45,49.88 C66.72,50.64 65.92,51.12 64.61,51.12 Z M71.1599999,51 L71.1599999,45.14 L68.9299999,45.14 L68.9299999,44 L74.6199999,44 L74.6199999,45.14 L72.3899999,45.14 L72.3899999,51 L71.1599999,51 Z M76.5999999,51 L76.5999999,44 L81.7899999,44 L81.7899999,45.1 L77.8299999,45.1 L77.8299999,46.92 L81.3399999,46.92 L81.3399999,48.03 L77.8299999,48.03 L77.8299999,49.9 L81.8399999,49.9 L81.8399999,51 L76.5999999,51 Z M83.9999999,51 L83.9999999,44 L86.6099999,44 C88.8099999,44 90.3299999,45.51 90.3299999,47.48 L90.3299999,47.5 C90.3299999,49.47 88.8099999,51 86.6099999,51 L83.9999999,51 Z M86.6099999,45.12 L85.2299999,45.12 L85.2299999,49.88 L86.6099999,49.88 C88.0799999,49.88 89.0399999,48.89 89.0399999,47.52 L89.0399999,47.5 C89.0399999,46.13 88.0799999,45.12 86.6099999,45.12 Z M95.8799999,48.53 L95.8799999,47.34 L98.8399999,47.34 L98.8399999,48.53 L95.8799999,48.53 Z M104.1,51 L107.18,43.95 L108.32,43.95 L111.4,51 L110.1,51 L109.39,49.31 L106.08,49.31 L105.36,51 L104.1,51 Z M106.53,48.22 L108.94,48.22 L107.73,45.42 L106.53,48.22 Z M115.92,51.11 C114.1,51.11 112.94,50.06 112.94,48.03 L112.94,44 L114.17,44 L114.17,47.98 C114.17,49.28 114.84,49.97 115.94,49.97 C117.03,49.97 117.7,49.32 117.7,48.03 L117.7,44 L118.93,44 L118.93,47.97 C118.93,50.06 117.75,51.11 115.92,51.11 Z M123.03,51 L123.03,45.14 L120.8,45.14 L120.8,44 L126.49,44 L126.49,45.14 L124.26,45.14 L124.26,51 L123.03,51 Z M128.47,51 L128.47,44 L129.7,44 L129.7,46.91 L133.04,46.91 L133.04,44 L134.27,44 L134.27,51 L133.04,51 L133.04,48.05 L129.7,48.05 L129.7,51 L128.47,51 Z M143.81,51.12 C141.66,51.12 140.16,49.49 140.16,47.52 L140.16,47.5 C140.16,45.53 141.68,43.88 143.83,43.88 C145.98,43.88 147.48,45.51 147.48,47.48 L147.48,47.5 C147.48,49.47 145.96,51.12 143.81,51.12 Z M143.83,49.98 C145.22,49.98 146.19,48.88 146.19,47.52 L146.19,47.5 C146.19,46.14 145.2,45.02 143.81,45.02 C142.42,45.02 141.45,46.12 141.45,47.48 L141.45,47.5 C141.45,48.86 142.44,49.98 143.83,49.98 Z M149.67,51 L149.67,44 L150.81,44 L154.56,48.84 L154.56,44 L155.77,44 L155.77,51 L154.74,51 L150.88,46.02 L150.88,51 L149.67,51 Z M158.27,51 L158.27,44 L159.5,44 L159.5,49.88 L163.18,49.88 L163.18,51 L158.27,51 Z M165.92,51 L165.92,48.24 L163.14,44 L164.6,44 L166.55,47.09 L168.53,44 L169.94,44 L167.16,48.21 L167.16,51 L165.92,51 Z"/>
        <path fill="#BDD6E9" d="M45.1,120.6 C40.35,120.6 35.9,118.05 32.85,114.95 L34.7,113.1 C37.85,116.25 41.5,118.25 45.2,118.25 C50.75,118.25 54.6,114.35 54.6,109.45 L54.6,109.35 C54.6,104.5 50.65,101.05 45,101.05 C41.75,101.05 39.3,102.05 37.1,103.25 L35.1,101.95 L36.1,85 L55.75,85 L55.75,87.5 L38.4,87.5 L37.55,100.6 C39.8,99.5 42.05,98.7 45.3,98.7 C52.05,98.7 57.3,103 57.3,109.25 L57.3,109.35 C57.3,115.95 52.15,120.6 45.1,120.6 Z"/>
      </g>
    </g>
    <g mask="url(#wannacry-dashboard-b)">
      <g transform="translate(50 332)">
        <g>
          <use fill="#000" filter="url(#wannacry-dashboard-g)" xlink:href="#wannacry-dashboard-h"/>
          <use fill="#FFF" xlink:href="#wannacry-dashboard-h"/>
        </g>
        <path stroke="#2159C8" stroke-width="2" d="M30,139 L61,139 C73.3970474,139 69.3877434,157 82,157 L107,157 C116.42571,157 112.251662,171 122,171 L159,171 C162.63318,171 159.630859,174 163,174 L201,174"/>
        <path fill="#2159C8" fill-opacity=".1" d="M30,139 L61,139 C73.3970474,139 69.3877434,157 82,157 L107,157 C116.42571,157 112.251662,171 122,171 L159,171 C162.63318,171 159.630859,174 163,174 L201,174 L201,186.192848 L30,186 C30,186 29.9933078,161.683631 30,139 Z"/>
        <rect width="20" height="5" x="181" y="107" fill="#E5E7EB"/>
        <polygon fill="#E5E7EB" points="168 107 176 107 172 114"/>
        <path fill="#BDD6E9" d="M32.4,120 L32.4,118.05 L45.45,106.25 C51.2,101 53.2,98 53.2,94.3 C53.2,89.75 49.5,86.8 45.3,86.8 C40.85,86.8 37.95,89.1 35.05,93.3 L33.1,92 C36.15,87.35 39.4,84.5 45.55,84.5 C51.5,84.5 55.95,88.65 55.95,94.1 L55.95,94.2 C55.95,99 53.35,102.2 47.2,107.8 L36.5,117.5 L56.3,117.5 L56.3,120 L32.4,120 Z M80.75,120 L80.75,111.45 L61.8,111.45 L60.9,109.5 L80.9,84.75 L83.25,84.75 L83.25,109.2 L88.95,109.2 L88.95,111.45 L83.25,111.45 L83.25,120 L80.75,120 Z M64.05,109.2 L80.75,109.2 L80.75,88.5 L64.05,109.2 Z"/>
        <path fill="#30405C" d="M30.9,36 L30.9,29 L32.21,29 L34.34,32.31 L36.47,29 L37.78,29 L37.78,36 L36.55,36 L36.55,30.98 L34.34,34.28 L34.3,34.28 L32.11,31 L32.11,36 L30.9,36 Z M40.35,36 L40.35,29 L41.58,29 L41.58,36 L40.35,36 Z M46.6,36.1 C45.53,36.1 44.52,35.73 43.68,34.98 L44.42,34.1 C45.09,34.68 45.77,35.01 46.63,35.01 C47.39,35.01 47.87,34.65 47.87,34.13 L47.87,34.11 C47.87,33.61 47.59,33.34 46.29,33.04 C44.8,32.68 43.96,32.24 43.96,30.95 L43.96,30.93 C43.96,29.73 44.96,28.9 46.35,28.9 C47.37,28.9 48.18,29.21 48.89,29.78 L48.23,30.71 C47.6,30.24 46.97,29.99 46.33,29.99 C45.61,29.99 45.19,30.36 45.19,30.82 L45.19,30.84 C45.19,31.38 45.51,31.62 46.86,31.94 C48.34,32.3 49.1,32.83 49.1,33.99 L49.1,34.01 C49.1,35.32 48.07,36.1 46.6,36.1 Z M53.6,36.1 C52.53,36.1 51.52,35.73 50.68,34.98 L51.42,34.1 C52.09,34.68 52.77,35.01 53.63,35.01 C54.39,35.01 54.87,34.65 54.87,34.13 L54.87,34.11 C54.87,33.61 54.59,33.34 53.29,33.04 C51.8,32.68 50.96,32.24 50.96,30.95 L50.96,30.93 C50.96,29.73 51.96,28.9 53.35,28.9 C54.37,28.9 55.18,29.21 55.89,29.78 L55.23,30.71 C54.6,30.24 53.97,29.99 53.33,29.99 C52.61,29.99 52.19,30.36 52.19,30.82 L52.19,30.84 C52.19,31.38 52.51,31.62 53.86,31.94 C55.34,32.3 56.1,32.83 56.1,33.99 L56.1,34.01 C56.1,35.32 55.07,36.1 53.6,36.1 Z M58.32,36 L58.32,29 L59.55,29 L59.55,36 L58.32,36 Z M62.1199999,36 L62.1199999,29 L63.2599999,29 L67.0099999,33.84 L67.0099999,29 L68.2199999,29 L68.2199999,36 L67.1899999,36 L63.3299999,31.02 L63.3299999,36 L62.1199999,36 Z M74.0399999,36.12 C71.8499999,36.12 70.4099999,34.56 70.4099999,32.52 L70.4099999,32.5 C70.4099999,30.54 71.9099999,28.88 74.0199999,28.88 C75.2399999,28.88 75.9899999,29.22 76.7099999,29.83 L75.9299999,30.76 C75.3899999,30.31 74.8599999,30.02 73.9699999,30.02 C72.6799999,30.02 71.6999999,31.14 71.6999999,32.48 L71.6999999,32.5 C71.6999999,33.94 72.6499999,35 74.0799999,35 C74.7399999,35 75.3399999,34.79 75.7699999,34.47 L75.7699999,33.17 L73.9799999,33.17 L73.9799999,32.09 L76.9599999,32.09 L76.9599999,35.03 C76.2699999,35.62 75.2799999,36.12 74.0399999,36.12 Z M82.9599999,36 L82.9599999,29 L84.2699999,29 L86.3999999,32.31 L88.5299999,29 L89.8399999,29 L89.8399999,36 L88.6099999,36 L88.6099999,30.98 L86.3999999,34.28 L86.3599999,34.28 L84.1699999,31 L84.1699999,36 L82.9599999,36 Z M94.7899999,36.1 C93.7199999,36.1 92.7099999,35.73 91.8699999,34.98 L92.6099999,34.1 C93.2799999,34.68 93.9599999,35.01 94.8199999,35.01 C95.5799999,35.01 96.0599999,34.65 96.0599999,34.13 L96.0599999,34.11 C96.0599999,33.61 95.7799999,33.34 94.4799999,33.04 C92.9899999,32.68 92.1499999,32.24 92.1499999,30.95 L92.1499999,30.93 C92.1499999,29.73 93.1499999,28.9 94.5399999,28.9 C95.5599999,28.9 96.3699999,29.21 97.0799999,29.78 L96.4199999,30.71 C95.7899999,30.24 95.1599999,29.99 94.5199999,29.99 C93.7999999,29.99 93.3799999,30.36 93.3799999,30.82 L93.3799999,30.84 C93.3799999,31.38 93.6999999,31.62 95.0499999,31.94 C96.5299999,32.3 97.2899999,32.83 97.2899999,33.99 L97.2899999,34.01 C97.2899999,35.32 96.2599999,36.1 94.7899999,36.1 Z M100.32,36 L100.32,30.2 L99.0599999,30.55 L98.7999999,29.55 L100.69,28.95 L101.54,28.95 L101.54,36 L100.32,36 Z M104.26,36 L107.4,30.08 L103.88,30.08 L103.88,29 L108.8,29 L108.8,29.93 L105.65,36 L104.26,36 Z M110.25,33.53 L110.25,32.34 L113.21,32.34 L113.21,33.53 L110.25,33.53 Z M118.08,36.12 C116.24,36.12 115.04,34.52 115.04,32.52 L115.04,32.5 C115.04,30.5 116.26,28.88 118.1,28.88 C119.93,28.88 121.14,30.48 121.14,32.48 L121.14,32.5 C121.14,34.5 119.92,36.12 118.08,36.12 Z M118.1,35.01 C119.19,35.01 119.87,33.89 119.87,32.52 L119.87,32.5 C119.87,31.12 119.16,29.99 118.08,29.99 C117,29.99 116.31,31.1 116.31,32.48 L116.31,32.5 C116.31,33.88 117.01,35.01 118.1,35.01 Z M124.14,36 L124.14,30.2 L122.88,30.55 L122.62,29.55 L124.51,28.95 L125.36,28.95 L125.36,36 L124.14,36 Z M130.63,36.12 C128.79,36.12 127.59,34.52 127.59,32.52 L127.59,32.5 C127.59,30.5 128.81,28.88 130.65,28.88 C132.48,28.88 133.69,30.48 133.69,32.48 L133.69,32.5 C133.69,34.5 132.47,36.12 130.63,36.12 Z M130.65,35.01 C131.74,35.01 132.42,33.89 132.42,32.52 L132.42,32.5 C132.42,31.12 131.71,29.99 130.63,29.99 C129.55,29.99 128.86,31.1 128.86,32.48 L128.86,32.5 C128.86,33.88 129.56,35.01 130.65,35.01 Z M30.9,51 L30.9,44 L33.66,44 C35.3,44 36.32,44.93 36.32,46.34 L36.32,46.36 C36.32,47.93 35.06,48.75 33.52,48.75 L32.13,48.75 L32.13,51 L30.9,51 Z M32.13,47.64 L33.56,47.64 C34.49,47.64 35.07,47.12 35.07,46.39 L35.07,46.37 C35.07,45.55 34.48,45.12 33.56,45.12 L32.13,45.12 L32.13,47.64 Z M36.98,51 L40.06,43.95 L41.2,43.95 L44.28,51 L42.98,51 L42.27,49.31 L38.96,49.31 L38.24,51 L36.98,51 Z M39.41,48.22 L41.82,48.22 L40.61,45.42 L39.41,48.22 Z M47,51 L47,45.14 L44.77,45.14 L44.77,44 L50.46,44 L50.46,45.14 L48.23,45.14 L48.23,51 L47,51 Z M55.33,51.12 C53.28,51.12 51.77,49.53 51.77,47.52 L51.77,47.5 C51.77,45.51 53.26,43.88 55.37,43.88 C56.67,43.88 57.45,44.33 58.12,44.97 L57.33,45.88 C56.76,45.36 56.17,45.02 55.36,45.02 C54.04,45.02 53.06,46.11 53.06,47.48 L53.06,47.5 C53.06,48.87 54.03,49.98 55.37,49.98 C56.23,49.98 56.78,49.64 57.38,49.08 L58.17,49.88 C57.44,50.64 56.64,51.12 55.33,51.12 Z M60.17,51 L60.17,44 L61.4,44 L61.4,46.91 L64.74,46.91 L64.74,44 L65.97,44 L65.97,51 L64.74,51 L64.74,48.05 L61.4,48.05 L61.4,51 L60.17,51 Z"/>
      </g>
    </g>
    <g mask="url(#wannacry-dashboard-b)">
      <g transform="translate(412 102)">
        <g>
          <use fill="#000" filter="url(#wannacry-dashboard-i)" xlink:href="#wannacry-dashboard-j"/>
          <use fill="#FFF" xlink:href="#wannacry-dashboard-j"/>
        </g>
        <g transform="translate(30 59)">
          <g transform="translate(0 .466)">
            <mask id="wannacry-dashboard-l" fill="#fff">
              <use xlink:href="#wannacry-dashboard-k"/>
            </mask>
            <path fill="#365EAB" d="M23.6268,113.1733 L1.6428,113.1733 C0.7348,113.1733 -0.0002,112.4383 -0.0002,111.5303 L-0.0002,2.1773 C-0.0002,1.2703 0.7348,0.5343 1.6428,0.5343 L23.6268,0.5343 C24.5338,0.5343 25.2698,1.2703 25.2698,2.1773 L25.2698,111.5303 C25.2698,112.4383 24.5338,113.1733 23.6268,113.1733" mask="url(#wannacry-dashboard-l)"/>
          </g>
          <path fill="#BED7EB" d="M90.1619,113.6393 L68.1779,113.6393 C67.2699,113.6393 66.5349,112.9043 66.5349,111.9963 L66.5349,60.0813 C66.5349,59.1743 67.2699,58.4383 68.1779,58.4383 L90.1619,58.4383 C91.0689,58.4383 91.8049,59.1743 91.8049,60.0813 L91.8049,111.9963 C91.8049,112.9043 91.0689,113.6393 90.1619,113.6393"/>
          <path fill="#0083C9" d="M157.4959,113.6393 L135.5109,113.6393 C134.6029,113.6393 133.8679,112.9043 133.8679,111.9963 L133.8679,70.9143 C133.8679,70.0073 134.6029,69.2723 135.5109,69.2723 L157.4959,69.2723 C158.4029,69.2723 159.1389,70.0073 159.1389,70.9143 L159.1389,111.9963 C159.1389,112.9043 158.4029,113.6393 157.4959,113.6393"/>
          <path fill="#F79C49" d="M223.9959,113.6393 L202.0109,113.6393 C201.1029,113.6393 200.3679,112.9043 200.3679,111.9963 L200.3679,73.5813 C200.3679,72.6743 201.1029,71.9383 202.0109,71.9383 L223.9959,71.9383 C224.9029,71.9383 225.6389,72.6743 225.6389,73.5813 L225.6389,111.9963 C225.6389,112.9043 224.9029,113.6393 223.9959,113.6393"/>
          <g transform="translate(266 73.466)">
            <mask id="wannacry-dashboard-n" fill="#fff">
              <use xlink:href="#wannacry-dashboard-m"/>
            </mask>
            <path fill="#E42822" d="M24.4959,40.1733 L2.5109,40.1733 C1.6029,40.1733 0.8679,39.4383 0.8679,38.5303 L0.8679,2.2813 C0.8679,1.3743 1.6029,0.6393 2.5109,0.6393 L24.4959,0.6393 C25.4029,0.6393 26.1389,1.3743 26.1389,2.2813 L26.1389,38.5303 C26.1389,39.4383 25.4029,40.1733 24.4959,40.1733" mask="url(#wannacry-dashboard-n)"/>
          </g>
          <mask id="wannacry-dashboard-p" fill="#fff">
            <use xlink:href="#wannacry-dashboard-o"/>
          </mask>
          <polygon fill="#E5E6EA" points="-.001 128.466 25.269 128.466 25.269 124.972 -.001 124.972" mask="url(#wannacry-dashboard-p)"/>
          <polygon fill="#E5E6EA" points="66.535 128.466 91.805 128.466 91.805 124.972 66.535 124.972" mask="url(#wannacry-dashboard-p)"/>
          <polygon fill="#E5E6EA" points="133.867 128.466 159.138 128.466 159.138 124.972 133.867 124.972" mask="url(#wannacry-dashboard-p)"/>
          <polygon fill="#E5E6EA" points="200.367 128.466 225.638 128.466 225.638 124.972 200.367 124.972" mask="url(#wannacry-dashboard-p)"/>
          <polygon fill="#E5E6EA" points="266.867 128.466 292.138 128.466 292.138 124.972 266.867 124.972" mask="url(#wannacry-dashboard-p)"/>
        </g>
        <path fill="#30405C" d="M32.61,36 L32.61,30.14 L30.38,30.14 L30.38,29 L36.07,29 L36.07,30.14 L33.84,30.14 L33.84,36 L32.61,36 Z M41.03,36.12 C38.88,36.12 37.38,34.49 37.38,32.52 L37.38,32.5 C37.38,30.53 38.9,28.88 41.05,28.88 C43.2,28.88 44.7,30.51 44.7,32.48 L44.7,32.5 C44.7,34.47 43.18,36.12 41.03,36.12 Z M41.05,34.98 C42.44,34.98 43.41,33.88 43.41,32.52 L43.41,32.5 C43.41,31.14 42.42,30.02 41.03,30.02 C39.64,30.02 38.67,31.12 38.67,32.48 L38.67,32.5 C38.67,33.86 39.66,34.98 41.05,34.98 Z M46.89,36 L46.89,29 L49.65,29 C51.29,29 52.31,29.93 52.31,31.34 L52.31,31.36 C52.31,32.93 51.05,33.75 49.51,33.75 L48.12,33.75 L48.12,36 L46.89,36 Z M48.12,32.64 L49.55,32.64 C50.48,32.64 51.06,32.12 51.06,31.39 L51.06,31.37 C51.06,30.55 50.47,30.12 49.55,30.12 L48.12,30.12 L48.12,32.64 Z M60.11,36.12 C59.04,36.12 58.2,35.69 57.54,35.05 L58.3,34.16 C58.86,34.68 59.45,35 60.1,35 C60.94,35 61.49,34.52 61.49,33.79 L61.49,33.77 C61.49,33.06 60.89,32.61 60.04,32.61 C59.54,32.61 59.11,32.75 58.75,32.92 L58.01,32.43 L58.21,29 L62.4,29 L62.4,30.1 L59.27,30.1 L59.16,31.73 C59.49,31.61 59.8,31.53 60.27,31.53 C61.63,31.53 62.71,32.25 62.71,33.73 L62.71,33.75 C62.71,35.18 61.66,36.12 60.11,36.12 Z M68.5999999,36 L68.5999999,29 L69.9099999,29 L72.0399999,32.31 L74.1699999,29 L75.4799999,29 L75.4799999,36 L74.2499999,36 L74.2499999,30.98 L72.0399999,34.28 L71.9999999,34.28 L69.8099999,31 L69.8099999,36 L68.5999999,36 Z M78.0499999,36 L78.0499999,29 L79.2799999,29 L79.2799999,36 L78.0499999,36 Z M84.2999999,36.1 C83.2299999,36.1 82.2199999,35.73 81.3799999,34.98 L82.1199999,34.1 C82.7899999,34.68 83.4699999,35.01 84.3299999,35.01 C85.0899999,35.01 85.5699999,34.65 85.5699999,34.13 L85.5699999,34.11 C85.5699999,33.61 85.2899999,33.34 83.9899999,33.04 C82.4999999,32.68 81.6599999,32.24 81.6599999,30.95 L81.6599999,30.93 C81.6599999,29.73 82.6599999,28.9 84.0499999,28.9 C85.0699999,28.9 85.8799999,29.21 86.5899999,29.78 L85.9299999,30.71 C85.2999999,30.24 84.6699999,29.99 84.0299999,29.99 C83.3099999,29.99 82.8899999,30.36 82.8899999,30.82 L82.8899999,30.84 C82.8899999,31.38 83.2099999,31.62 84.5599999,31.94 C86.0399999,32.3 86.7999999,32.83 86.7999999,33.99 L86.7999999,34.01 C86.7999999,35.32 85.7699999,36.1 84.2999999,36.1 Z M91.2999999,36.1 C90.2299999,36.1 89.2199999,35.73 88.3799999,34.98 L89.1199999,34.1 C89.7899999,34.68 90.4699999,35.01 91.3299999,35.01 C92.0899999,35.01 92.5699999,34.65 92.5699999,34.13 L92.5699999,34.11 C92.5699999,33.61 92.2899999,33.34 90.9899999,33.04 C89.4999999,32.68 88.6599999,32.24 88.6599999,30.95 L88.6599999,30.93 C88.6599999,29.73 89.6599999,28.9 91.0499999,28.9 C92.0699999,28.9 92.8799999,29.21 93.5899999,29.78 L92.9299999,30.71 C92.2999999,30.24 91.6699999,29.99 91.0299999,29.99 C90.3099999,29.99 89.8899999,30.36 89.8899999,30.82 L89.8899999,30.84 C89.8899999,31.38 90.2099999,31.62 91.5599999,31.94 C93.0399999,32.3 93.7999999,32.83 93.7999999,33.99 L93.7999999,34.01 C93.7999999,35.32 92.7699999,36.1 91.2999999,36.1 Z M96.0199999,36 L96.0199999,29 L97.2499999,29 L97.2499999,36 L96.0199999,36 Z M99.8199999,36 L99.8199999,29 L100.96,29 L104.71,33.84 L104.71,29 L105.92,29 L105.92,36 L104.89,36 L101.03,31.02 L101.03,36 L99.8199999,36 Z M111.74,36.12 C109.55,36.12 108.11,34.56 108.11,32.52 L108.11,32.5 C108.11,30.54 109.61,28.88 111.72,28.88 C112.94,28.88 113.69,29.22 114.41,29.83 L113.63,30.76 C113.09,30.31 112.56,30.02 111.67,30.02 C110.38,30.02 109.4,31.14 109.4,32.48 L109.4,32.5 C109.4,33.94 110.35,35 111.78,35 C112.44,35 113.04,34.79 113.47,34.47 L113.47,33.17 L111.68,33.17 L111.68,32.09 L114.66,32.09 L114.66,35.03 C113.97,35.62 112.98,36.12 111.74,36.12 Z M120.66,36 L120.66,29 L121.97,29 L124.1,32.31 L126.23,29 L127.54,29 L127.54,36 L126.31,36 L126.31,30.98 L124.1,34.28 L124.06,34.28 L121.87,31 L121.87,36 L120.66,36 Z M132.49,36.1 C131.42,36.1 130.41,35.73 129.57,34.98 L130.31,34.1 C130.98,34.68 131.66,35.01 132.52,35.01 C133.28,35.01 133.76,34.65 133.76,34.13 L133.76,34.11 C133.76,33.61 133.48,33.34 132.18,33.04 C130.69,32.68 129.85,32.24 129.85,30.95 L129.85,30.93 C129.85,29.73 130.85,28.9 132.24,28.9 C133.26,28.9 134.07,29.21 134.78,29.78 L134.12,30.71 C133.49,30.24 132.86,29.99 132.22,29.99 C131.5,29.99 131.08,30.36 131.08,30.82 L131.08,30.84 C131.08,31.38 131.4,31.62 132.75,31.94 C134.23,32.3 134.99,32.83 134.99,33.99 L134.99,34.01 C134.99,35.32 133.96,36.1 132.49,36.1 Z M138.02,36 L138.02,30.2 L136.76,30.55 L136.5,29.55 L138.39,28.95 L139.24,28.95 L139.24,36 L138.02,36 Z M141.96,36 L145.1,30.08 L141.58,30.08 L141.58,29 L146.5,29 L146.5,29.93 L143.35,36 L141.96,36 Z M147.95,33.53 L147.95,32.34 L150.91,32.34 L150.91,33.53 L147.95,33.53 Z M155.78,36.12 C153.94,36.12 152.74,34.52 152.74,32.52 L152.74,32.5 C152.74,30.5 153.96,28.88 155.8,28.88 C157.63,28.88 158.84,30.48 158.84,32.48 L158.84,32.5 C158.84,34.5 157.62,36.12 155.78,36.12 Z M155.8,35.01 C156.89,35.01 157.57,33.89 157.57,32.52 L157.57,32.5 C157.57,31.12 156.86,29.99 155.78,29.99 C154.7,29.99 154.01,31.1 154.01,32.48 L154.01,32.5 C154.01,33.88 154.71,35.01 155.8,35.01 Z M161.84,36 L161.84,30.2 L160.58,30.55 L160.32,29.55 L162.21,28.95 L163.06,28.95 L163.06,36 L161.84,36 Z M168.33,36.12 C166.49,36.12 165.29,34.52 165.29,32.52 L165.29,32.5 C165.29,30.5 166.51,28.88 168.35,28.88 C170.18,28.88 171.39,30.48 171.39,32.48 L171.39,32.5 C171.39,34.5 170.17,36.12 168.33,36.12 Z M168.35,35.01 C169.44,35.01 170.12,33.89 170.12,32.52 L170.12,32.5 C170.12,31.12 169.41,29.99 168.33,29.99 C167.25,29.99 166.56,31.1 166.56,32.48 L166.56,32.5 C166.56,33.88 167.26,35.01 168.35,35.01 Z M177.26,36 L177.26,29 L180.02,29 C181.66,29 182.68,29.93 182.68,31.34 L182.68,31.36 C182.68,32.93 181.42,33.75 179.88,33.75 L178.49,33.75 L178.49,36 L177.26,36 Z M178.49,32.64 L179.92,32.64 C180.85,32.64 181.43,32.12 181.43,31.39 L181.43,31.37 C181.43,30.55 180.84,30.12 179.92,30.12 L178.49,30.12 L178.49,32.64 Z M183.34,36 L186.42,28.95 L187.56,28.95 L190.64,36 L189.34,36 L188.63,34.31 L185.32,34.31 L184.6,36 L183.34,36 Z M185.77,33.22 L188.18,33.22 L186.97,30.42 L185.77,33.22 Z M193.36,36 L193.36,30.14 L191.13,30.14 L191.13,29 L196.82,29 L196.82,30.14 L194.59,30.14 L194.59,36 L193.36,36 Z M201.69,36.12 C199.64,36.12 198.13,34.53 198.13,32.52 L198.13,32.5 C198.13,30.51 199.62,28.88 201.73,28.88 C203.03,28.88 203.81,29.33 204.48,29.97 L203.69,30.88 C203.12,30.36 202.53,30.02 201.72,30.02 C200.4,30.02 199.42,31.11 199.42,32.48 L199.42,32.5 C199.42,33.87 200.39,34.98 201.73,34.98 C202.59,34.98 203.14,34.64 203.74,34.08 L204.53,34.88 C203.8,35.64 203,36.12 201.69,36.12 Z M206.53,36 L206.53,29 L207.76,29 L207.76,31.91 L211.1,31.91 L211.1,29 L212.33,29 L212.33,36 L211.1,36 L211.1,33.05 L207.76,33.05 L207.76,36 L206.53,36 Z"/>
      </g>
    </g>
    <g mask="url(#wannacry-dashboard-b)">
      <g transform="translate(412 57)">
        <g>
          <use fill="#000" filter="url(#wannacry-dashboard-q)" xlink:href="#wannacry-dashboard-r"/>
          <use fill="#FFF" xlink:href="#wannacry-dashboard-r"/>
        </g>
        <g transform="translate(30 18.466)"/>
        <path fill="#6A778B" d="M17.35,22.1 C16.28,22.1 15.27,21.73 14.43,20.98 L15.17,20.1 C15.84,20.68 16.52,21.01 17.38,21.01 C18.14,21.01 18.62,20.65 18.62,20.13 L18.62,20.11 C18.62,19.61 18.34,19.34 17.04,19.04 C15.55,18.68 14.71,18.24 14.71,16.95 L14.71,16.93 C14.71,15.73 15.71,14.9 17.1,14.9 C18.12,14.9 18.93,15.21 19.64,15.78 L18.98,16.71 C18.35,16.24 17.72,15.99 17.08,15.99 C16.36,15.99 15.94,16.36 15.94,16.82 L15.94,16.84 C15.94,17.38 16.26,17.62 17.61,17.94 C19.09,18.3 19.85,18.83 19.85,19.99 L19.85,20.01 C19.85,21.32 18.82,22.1 17.35,22.1 Z M22,22 L22,15 L27.19,15 L27.19,16.1 L23.23,16.1 L23.23,17.92 L26.74,17.92 L26.74,19.03 L23.23,19.03 L23.23,20.9 L27.24,20.9 L27.24,22 L22,22 Z M28.8,22 L31.88,14.95 L33.02,14.95 L36.1,22 L34.8,22 L34.09,20.31 L30.78,20.31 L30.06,22 L28.8,22 Z M31.23,19.22 L33.64,19.22 L32.43,16.42 L31.23,19.22 Z M38,22 L38,15 L41.12,15 C42,15 42.69,15.26 43.14,15.7 C43.51,16.08 43.72,16.6 43.72,17.21 L43.72,17.23 C43.72,18.38 43.03,19.07 42.06,19.35 L43.95,22 L42.49,22 L40.77,19.56 L39.23,19.56 L39.23,22 L38,22 Z M39.23,18.47 L41.03,18.47 C41.91,18.47 42.47,18.01 42.47,17.3 L42.47,17.28 C42.47,16.53 41.93,16.12 41.02,16.12 L39.23,16.12 L39.23,18.47 Z M49.18,22.12 C47.13,22.12 45.62,20.53 45.62,18.52 L45.62,18.5 C45.62,16.51 47.11,14.88 49.22,14.88 C50.52,14.88 51.3,15.33 51.97,15.97 L51.18,16.88 C50.61,16.36 50.02,16.02 49.21,16.02 C47.89,16.02 46.91,17.11 46.91,18.48 L46.91,18.5 C46.91,19.87 47.88,20.98 49.22,20.98 C50.08,20.98 50.63,20.64 51.23,20.08 L52.02,20.88 C51.29,21.64 50.49,22.12 49.18,22.12 Z M54.0199999,22 L54.0199999,15 L55.2499999,15 L55.2499999,17.91 L58.5899999,17.91 L58.5899999,15 L59.8199999,15 L59.8199999,22 L58.5899999,22 L58.5899999,19.05 L55.2499999,19.05 L55.2499999,22 L54.0199999,22 Z M67.3599999,22 L67.3599999,20.66 L68.6599999,20.66 L68.6599999,22 L67.3599999,22 Z M64.7299999,22 L64.7299999,20.66 L66.0299999,20.66 L66.0299999,22 L64.7299999,22 Z M62.0999999,22 L62.0999999,20.66 L63.3999999,20.66 L63.3999999,22 L62.0999999,22 Z"/>
      </g>
    </g>
    <g mask="url(#wannacry-dashboard-b)">
      <g transform="translate(50 102)">
        <g>
          <use fill="#000" filter="url(#wannacry-dashboard-t)" xlink:href="#wannacry-dashboard-u"/>
          <use fill="#FFF" xlink:href="#wannacry-dashboard-u"/>
        </g>
        <g transform="translate(41 54)">
          <path fill="#365EAB" d="M159.1621,10.7185 C151.6411,7.6775 143.4301,5.9885 134.8201,5.9885 C98.9211,5.9885 69.8191,35.0905 69.8191,70.9895 C69.8191,106.8875 98.9211,135.9895 134.8201,135.9895 C152.7301,135.9895 168.9471,128.7445 180.7041,117.0265 L134.8201,70.9895 L159.1621,10.7185 Z"/>
          <path fill="#BED7EB" d="M192.2573,40.5569 C185.1153,27.1059 173.3913,16.4719 159.1623,10.7189 L134.8193,70.9889 L192.2573,40.5569 Z"/>
          <path fill="#0083C9" d="M199.8203,70.9891 C199.8203,59.9911 197.0783,49.6371 192.2573,40.5571 L134.8203,70.9891 L199.8203,70.9891 Z"/>
          <path fill="#F79C49" d="M194.269,97.2708 C197.828,89.2328 199.82,80.3458 199.82,70.9888 L134.82,70.9888 L194.269,97.2708 Z"/>
          <path fill="#E42822" d="M180.7041,117.0267 C186.3701,111.3797 190.9861,104.6867 194.2691,97.2707 L134.8201,70.9887 L180.7041,117.0267 Z"/>
          <path fill="#FEFEFE" d="M134.8198,41.0198 C151.3708,41.0198 164.7888,54.4368 164.7888,70.9888 C164.7888,87.5408 151.3708,100.9588 134.8198,100.9588 C118.2678,100.9588 104.8498,87.5408 104.8498,70.9888 C104.8498,54.4368 118.2678,41.0198 134.8198,41.0198"/>
          <mask id="wannacry-dashboard-w" fill="#fff">
            <use xlink:href="#wannacry-dashboard-v"/>
          </mask>
          <polygon fill="#E5E6EA" points="-.001 59.135 60.165 59.135 60.165 54.265 -.001 54.265" mask="url(#wannacry-dashboard-w)"/>
          <polygon fill="#E5E6EA" points="0 69.193 39.956 69.193 39.956 64.323 0 64.323" mask="url(#wannacry-dashboard-w)"/>
          <polygon fill="#E5E6EA" points="186.958 4.87 247.124 4.87 247.124 0 186.958 0" mask="url(#wannacry-dashboard-w)"/>
          <polygon fill="#E5E6EA" points="186.958 14.929 226.915 14.929 226.915 10.059 186.958 10.059" mask="url(#wannacry-dashboard-w)"/>
          <polygon fill="#E5E6EA" points="211.23 40.572 271.395 40.572 271.395 35.702 211.23 35.702" mask="url(#wannacry-dashboard-w)"/>
          <polygon fill="#E5E6EA" points="211.23 50.631 251.186 50.631 251.186 45.761 211.23 45.761" mask="url(#wannacry-dashboard-w)"/>
          <polygon fill="#E5E6EA" points="211.23 73.858 271.395 73.858 271.395 68.988 211.23 68.988" mask="url(#wannacry-dashboard-w)"/>
          <polygon fill="#E5E6EA" points="211.23 83.916 251.186 83.916 251.186 79.046 211.23 79.046" mask="url(#wannacry-dashboard-w)"/>
          <polygon fill="#E5E6EA" points="195.518 118.391 255.684 118.391 255.684 113.521 195.518 113.521" mask="url(#wannacry-dashboard-w)"/>
          <polygon fill="#E5E6EA" points="195.518 128.45 235.474 128.45 235.474 123.58 195.518 123.58" mask="url(#wannacry-dashboard-w)"/>
        </g>
        <path fill="#30405C" d="M32.61,40 L32.61,34.14 L30.38,34.14 L30.38,33 L36.07,33 L36.07,34.14 L33.84,34.14 L33.84,40 L32.61,40 Z M41.03,40.12 C38.88,40.12 37.38,38.49 37.38,36.52 L37.38,36.5 C37.38,34.53 38.9,32.88 41.05,32.88 C43.2,32.88 44.7,34.51 44.7,36.48 L44.7,36.5 C44.7,38.47 43.18,40.12 41.03,40.12 Z M41.05,38.98 C42.44,38.98 43.41,37.88 43.41,36.52 L43.41,36.5 C43.41,35.14 42.42,34.02 41.03,34.02 C39.64,34.02 38.67,35.12 38.67,36.48 L38.67,36.5 C38.67,37.86 39.66,38.98 41.05,38.98 Z M46.89,40 L46.89,33 L49.65,33 C51.29,33 52.31,33.93 52.31,35.34 L52.31,35.36 C52.31,36.93 51.05,37.75 49.51,37.75 L48.12,37.75 L48.12,40 L46.89,40 Z M48.12,36.64 L49.55,36.64 C50.48,36.64 51.06,36.12 51.06,35.39 L51.06,35.37 C51.06,34.55 50.47,34.12 49.55,34.12 L48.12,34.12 L48.12,36.64 Z M60.11,40.12 C59.04,40.12 58.2,39.69 57.54,39.05 L58.3,38.16 C58.86,38.68 59.45,39 60.1,39 C60.94,39 61.49,38.52 61.49,37.79 L61.49,37.77 C61.49,37.06 60.89,36.61 60.04,36.61 C59.54,36.61 59.11,36.75 58.75,36.92 L58.01,36.43 L58.21,33 L62.4,33 L62.4,34.1 L59.27,34.1 L59.16,35.73 C59.49,35.61 59.8,35.53 60.27,35.53 C61.63,35.53 62.71,36.25 62.71,37.73 L62.71,37.75 C62.71,39.18 61.66,40.12 60.11,40.12 Z M68.5999999,40 L68.5999999,33 L73.7899999,33 L73.7899999,34.1 L69.8299999,34.1 L69.8299999,35.92 L73.3399999,35.92 L73.3399999,37.03 L69.8299999,37.03 L69.8299999,38.9 L73.8399999,38.9 L73.8399999,40 L68.5999999,40 Z M79.3399999,40.12 C77.1899999,40.12 75.6899999,38.49 75.6899999,36.52 L75.6899999,36.5 C75.6899999,34.53 77.2099999,32.88 79.3599999,32.88 C81.5099999,32.88 83.0099999,34.51 83.0099999,36.48 L83.0099999,36.5 C83.0099999,38.47 81.4899999,40.12 79.3399999,40.12 Z M79.3599999,38.98 C80.7499999,38.98 81.7199999,37.88 81.7199999,36.52 L81.7199999,36.5 C81.7199999,35.14 80.7299999,34.02 79.3399999,34.02 C77.9499999,34.02 76.9799999,35.12 76.9799999,36.48 L76.9799999,36.5 C76.9799999,37.86 77.9699999,38.98 79.3599999,38.98 Z M85.1999999,40 L85.1999999,33 L86.4299999,33 L86.4299999,38.88 L90.1099999,38.88 L90.1099999,40 L85.1999999,40 Z M90.9299999,41.28 L95.4499999,32.02 L96.4999999,32.02 L91.9799999,41.28 L90.9299999,41.28 Z M100.93,40.12 C98.7799999,40.12 97.2799999,38.49 97.2799999,36.52 L97.2799999,36.5 C97.2799999,34.53 98.7999999,32.88 100.95,32.88 C103.1,32.88 104.6,34.51 104.6,36.48 L104.6,36.5 C104.6,38.47 103.08,40.12 100.93,40.12 Z M100.95,38.98 C102.34,38.98 103.31,37.88 103.31,36.52 L103.31,36.5 C103.31,35.14 102.32,34.02 100.93,34.02 C99.5399999,34.02 98.5699999,35.12 98.5699999,36.48 L98.5699999,36.5 C98.5699999,37.86 99.5599999,38.98 100.95,38.98 Z M106.79,40 L106.79,33 L109.93,33 C110.73,33 111.36,33.22 111.76,33.62 C112.07,33.93 112.23,34.32 112.23,34.78 L112.23,34.8 C112.23,35.64 111.75,36.09 111.23,36.36 C112.05,36.64 112.62,37.11 112.62,38.06 L112.62,38.08 C112.62,39.33 111.59,40 110.03,40 L106.79,40 Z M111,35 L111,34.98 C111,34.43 110.56,34.09 109.77,34.09 L108,34.09 L108,35.95 L109.68,35.95 C110.47,35.95 111,35.64 111,35 Z M111.39,37.93 C111.39,37.34 110.92,36.99 109.95,36.99 L108,36.99 L108,38.91 L110.04,38.91 C110.87,38.91 111.39,38.58 111.39,37.95 L111.39,37.93 Z M117.16,40.1 C116.09,40.1 115.08,39.73 114.24,38.98 L114.98,38.1 C115.65,38.68 116.33,39.01 117.19,39.01 C117.95,39.01 118.43,38.65 118.43,38.13 L118.43,38.11 C118.43,37.61 118.15,37.34 116.85,37.04 C115.36,36.68 114.52,36.24 114.52,34.95 L114.52,34.93 C114.52,33.73 115.52,32.9 116.91,32.9 C117.93,32.9 118.74,33.21 119.45,33.78 L118.79,34.71 C118.16,34.24 117.53,33.99 116.89,33.99 C116.17,33.99 115.75,34.36 115.75,34.82 L115.75,34.84 C115.75,35.38 116.07,35.62 117.42,35.94 C118.9,36.3 119.66,36.83 119.66,37.99 L119.66,38.01 C119.66,39.32 118.63,40.1 117.16,40.1 Z M125.15,40.12 C123,40.12 121.5,38.49 121.5,36.52 L121.5,36.5 C121.5,34.53 123.02,32.88 125.17,32.88 C127.32,32.88 128.82,34.51 128.82,36.48 L128.82,36.5 C128.82,38.47 127.3,40.12 125.15,40.12 Z M125.17,38.98 C126.56,38.98 127.53,37.88 127.53,36.52 L127.53,36.5 C127.53,35.14 126.54,34.02 125.15,34.02 C123.76,34.02 122.79,35.12 122.79,36.48 L122.79,36.5 C122.79,37.86 123.78,38.98 125.17,38.98 Z M131.01,40 L131.01,33 L132.24,33 L132.24,38.88 L135.92,38.88 L135.92,40 L131.01,40 Z M137.89,40 L137.89,33 L143.08,33 L143.08,34.1 L139.12,34.1 L139.12,35.92 L142.63,35.92 L142.63,37.03 L139.12,37.03 L139.12,38.9 L143.13,38.9 L143.13,40 L137.89,40 Z M146.99,40 L146.99,34.14 L144.76,34.14 L144.76,33 L150.45,33 L150.45,34.14 L148.22,34.14 L148.22,40 L146.99,40 Z M152.43,40 L152.43,33 L157.62,33 L157.62,34.1 L153.66,34.1 L153.66,35.92 L157.17,35.92 L157.17,37.03 L153.66,37.03 L153.66,38.9 L157.67,38.9 L157.67,40 L152.43,40 Z M166.87,40.12 C164.72,40.12 163.22,38.49 163.22,36.52 L163.22,36.5 C163.22,34.53 164.74,32.88 166.89,32.88 C169.04,32.88 170.54,34.51 170.54,36.48 L170.54,36.5 C170.54,38.47 169.02,40.12 166.87,40.12 Z M166.89,38.98 C168.28,38.98 169.25,37.88 169.25,36.52 L169.25,36.5 C169.25,35.14 168.26,34.02 166.87,34.02 C165.48,34.02 164.51,35.12 164.51,36.48 L164.51,36.5 C164.51,37.86 165.5,38.98 166.89,38.98 Z M172.73,40 L172.73,33 L175.49,33 C177.13,33 178.15,33.93 178.15,35.34 L178.15,35.36 C178.15,36.93 176.89,37.75 175.35,37.75 L173.96,37.75 L173.96,40 L172.73,40 Z M173.96,36.64 L175.39,36.64 C176.32,36.64 176.9,36.12 176.9,35.39 L176.9,35.37 C176.9,34.55 176.31,34.12 175.39,34.12 L173.96,34.12 L173.96,36.64 Z M180.11,40 L180.11,33 L185.3,33 L185.3,34.1 L181.34,34.1 L181.34,35.92 L184.85,35.92 L184.85,37.03 L181.34,37.03 L181.34,38.9 L185.35,38.9 L185.35,40 L180.11,40 Z M187.51,40 L187.51,33 L190.63,33 C191.51,33 192.2,33.26 192.65,33.7 C193.02,34.08 193.23,34.6 193.23,35.21 L193.23,35.23 C193.23,36.38 192.54,37.07 191.57,37.35 L193.46,40 L192,40 L190.28,37.56 L188.74,37.56 L188.74,40 L187.51,40 Z M188.74,36.47 L190.54,36.47 C191.42,36.47 191.98,36.01 191.98,35.3 L191.98,35.28 C191.98,34.53 191.44,34.12 190.53,34.12 L188.74,34.12 L188.74,36.47 Z M194.84,40 L197.92,32.95 L199.06,32.95 L202.14,40 L200.84,40 L200.13,38.31 L196.82,38.31 L196.1,40 L194.84,40 Z M197.27,37.22 L199.68,37.22 L198.47,34.42 L197.27,37.22 Z M204.86,40 L204.86,34.14 L202.63,34.14 L202.63,33 L208.32,33 L208.32,34.14 L206.09,34.14 L206.09,40 L204.86,40 Z M210.37,40 L210.37,33 L211.6,33 L211.6,40 L210.37,40 Z M214.17,40 L214.17,33 L215.31,33 L219.06,37.84 L219.06,33 L220.27,33 L220.27,40 L219.24,40 L215.38,35.02 L215.38,40 L214.17,40 Z M226.09,40.12 C223.9,40.12 222.46,38.56 222.46,36.52 L222.46,36.5 C222.46,34.54 223.96,32.88 226.07,32.88 C227.29,32.88 228.04,33.22 228.76,33.83 L227.98,34.76 C227.44,34.31 226.91,34.02 226.02,34.02 C224.73,34.02 223.75,35.14 223.75,36.48 L223.75,36.5 C223.75,37.94 224.7,39 226.13,39 C226.79,39 227.39,38.79 227.82,38.47 L227.82,37.17 L226.03,37.17 L226.03,36.09 L229.01,36.09 L229.01,39.03 C228.32,39.62 227.33,40.12 226.09,40.12 Z M237.46,40.1 C236.39,40.1 235.38,39.73 234.54,38.98 L235.28,38.1 C235.95,38.68 236.63,39.01 237.49,39.01 C238.25,39.01 238.73,38.65 238.73,38.13 L238.73,38.11 C238.73,37.61 238.45,37.34 237.15,37.04 C235.66,36.68 234.82,36.24 234.82,34.95 L234.82,34.93 C234.82,33.73 235.82,32.9 237.21,32.9 C238.23,32.9 239.04,33.21 239.75,33.78 L239.09,34.71 C238.46,34.24 237.83,33.99 237.19,33.99 C236.47,33.99 236.05,34.36 236.05,34.82 L236.05,34.84 C236.05,35.38 236.37,35.62 237.72,35.94 C239.2,36.3 239.96,36.83 239.96,37.99 L239.96,38.01 C239.96,39.32 238.93,40.1 237.46,40.1 Z M243.87,40 L243.87,37.24 L241.09,33 L242.55,33 L244.5,36.09 L246.48,33 L247.89,33 L245.11,37.21 L245.11,40 L243.87,40 Z M251.77,40.1 C250.7,40.1 249.69,39.73 248.85,38.98 L249.59,38.1 C250.26,38.68 250.94,39.01 251.8,39.01 C252.56,39.01 253.04,38.65 253.04,38.13 L253.04,38.11 C253.04,37.61 252.76,37.34 251.46,37.04 C249.97,36.68 249.13,36.24 249.13,34.95 L249.13,34.93 C249.13,33.73 250.13,32.9 251.52,32.9 C252.54,32.9 253.35,33.21 254.06,33.78 L253.4,34.71 C252.77,34.24 252.14,33.99 251.5,33.99 C250.78,33.99 250.36,34.36 250.36,34.82 L250.36,34.84 C250.36,35.38 250.68,35.62 252.03,35.94 C253.51,36.3 254.27,36.83 254.27,37.99 L254.27,38.01 C254.27,39.32 253.24,40.1 251.77,40.1 Z M257.99,40 L257.99,34.14 L255.76,34.14 L255.76,33 L261.45,33 L261.45,34.14 L259.22,34.14 L259.22,40 L257.99,40 Z M263.43,40 L263.43,33 L268.62,33 L268.62,34.1 L264.66,34.1 L264.66,35.92 L268.17,35.92 L268.17,37.03 L264.66,37.03 L264.66,38.9 L268.67,38.9 L268.67,40 L263.43,40 Z M270.83,40 L270.83,33 L272.14,33 L274.27,36.31 L276.4,33 L277.71,33 L277.71,40 L276.48,40 L276.48,34.98 L274.27,38.28 L274.23,38.28 L272.04,35 L272.04,40 L270.83,40 Z M282.66,40.1 C281.59,40.1 280.58,39.73 279.74,38.98 L280.48,38.1 C281.15,38.68 281.83,39.01 282.69,39.01 C283.45,39.01 283.93,38.65 283.93,38.13 L283.93,38.11 C283.93,37.61 283.65,37.34 282.35,37.04 C280.86,36.68 280.02,36.24 280.02,34.95 L280.02,34.93 C280.02,33.73 281.02,32.9 282.41,32.9 C283.43,32.9 284.24,33.21 284.95,33.78 L284.29,34.71 C283.66,34.24 283.03,33.99 282.39,33.99 C281.67,33.99 281.25,34.36 281.25,34.82 L281.25,34.84 C281.25,35.38 281.57,35.62 282.92,35.94 C284.4,36.3 285.16,36.83 285.16,37.99 L285.16,38.01 C285.16,39.32 284.13,40.1 282.66,40.1 Z"/>
        <rect width="60" height="5" x="40" y="75" fill="#E5E7EB"/>
        <rect width="40" height="5" x="40" y="85" fill="#E5E7EB"/>
        <rect width="60" height="5" x="260" y="90" fill="#E5E7EB"/>
        <rect width="30" height="5" x="260" y="100" fill="#E5E7EB"/>
        <rect width="60" height="5" x="40" y="161" fill="#E5E7EB"/>
        <rect width="40" height="5" x="40" y="171" fill="#E5E7EB"/>
      </g>
    </g>
    <path fill="#30405C" d="M55.464,84.08 L51.576,72.8 L53.704,72.8 L56.376,81.104 L59.128,72.768 L60.792,72.768 L63.544,81.104 L66.216,72.8 L68.28,72.8 L64.392,84.08 L62.68,84.08 L59.928,76.032 L57.176,84.08 L55.464,84.08 Z M71.1706666,84.176 C69.5866666,84.176 68.1626666,83.264 68.1626666,81.568 L68.1626666,81.536 C68.1626666,79.712 69.6026666,78.816 71.6666666,78.816 C72.6106666,78.816 73.2826666,78.96 73.9386666,79.168 L73.9386666,78.96 C73.9386666,77.76 73.2026666,77.12 71.8426666,77.12 C70.8986666,77.12 70.1946666,77.328 69.4266666,77.648 L68.8986666,76.128 C69.8426666,75.712 70.7546666,75.44 72.0986666,75.44 C73.3626666,75.44 74.3066666,75.776 74.8986666,76.384 C75.5226666,76.992 75.8106666,77.888 75.8106666,78.992 L75.8106666,84 L73.9226666,84 L73.9226666,82.944 C73.3466666,83.632 72.4666666,84.176 71.1706666,84.176 Z M71.7146666,82.768 C72.9946666,82.768 73.9706666,82.032 73.9706666,80.96 L73.9706666,80.384 C73.4746666,80.192 72.8186666,80.048 72.0506666,80.048 C70.8026666,80.048 70.0666666,80.576 70.0666666,81.456 L70.0666666,81.488 C70.0666666,82.304 70.7866666,82.768 71.7146666,82.768 Z M77.9013332,84 L77.9013332,75.552 L79.8533332,75.552 L79.8533332,76.848 C80.3973332,76.064 81.1813332,75.376 82.4933332,75.376 C84.3973332,75.376 85.5013332,76.656 85.5013332,78.608 L85.5013332,84 L83.5653332,84 L83.5653332,79.2 C83.5653332,77.888 82.9093332,77.136 81.7573332,77.136 C80.6373332,77.136 79.8533332,77.92 79.8533332,79.232 L79.8533332,84 L77.9013332,84 Z M87.6079998,84 L87.6079998,75.552 L89.5599998,75.552 L89.5599998,76.848 C90.1039998,76.064 90.8879998,75.376 92.1999998,75.376 C94.1039998,75.376 95.2079998,76.656 95.2079998,78.608 L95.2079998,84 L93.2719998,84 L93.2719998,79.2 C93.2719998,77.888 92.6159998,77.136 91.4639998,77.136 C90.3439998,77.136 89.5599998,77.92 89.5599998,79.232 L89.5599998,84 L87.6079998,84 Z M99.7626664,84.176 C98.1786664,84.176 96.7546664,83.264 96.7546664,81.568 L96.7546664,81.536 C96.7546664,79.712 98.1946664,78.816 100.258666,78.816 C101.202666,78.816 101.874666,78.96 102.530666,79.168 L102.530666,78.96 C102.530666,77.76 101.794666,77.12 100.434666,77.12 C99.4906664,77.12 98.7866664,77.328 98.0186664,77.648 L97.4906664,76.128 C98.4346664,75.712 99.3466664,75.44 100.690666,75.44 C101.954666,75.44 102.898666,75.776 103.490666,76.384 C104.114666,76.992 104.402666,77.888 104.402666,78.992 L104.402666,84 L102.514666,84 L102.514666,82.944 C101.938666,83.632 101.058666,84.176 99.7626664,84.176 Z M100.306666,82.768 C101.586666,82.768 102.562666,82.032 102.562666,80.96 L102.562666,80.384 C102.066666,80.192 101.410666,80.048 100.642666,80.048 C99.3946664,80.048 98.6586664,80.576 98.6586664,81.456 L98.6586664,81.488 C98.6586664,82.304 99.3786664,82.768 100.306666,82.768 Z M111.933333,84.192 C108.653333,84.192 106.237333,81.648 106.237333,78.432 L106.237333,78.4 C106.237333,75.216 108.621333,72.608 111.997333,72.608 C114.077333,72.608 115.325333,73.328 116.397333,74.352 L115.133333,75.808 C114.221333,74.976 113.277333,74.432 111.981333,74.432 C109.869333,74.432 108.301333,76.176 108.301333,78.368 L108.301333,78.4 C108.301333,80.592 109.853333,82.368 111.997333,82.368 C113.373333,82.368 114.253333,81.824 115.213333,80.928 L116.477333,82.208 C115.309333,83.424 114.029333,84.192 111.933333,84.192 Z M118.104,84 L118.104,75.552 L120.056,75.552 L120.056,77.456 C120.584,76.192 121.56,75.328 123.048,75.392 L123.048,77.44 L122.936,77.44 C121.24,77.44 120.056,78.544 120.056,80.784 L120.056,84 L118.104,84 Z M128.162666,81.824 L130.370666,75.552 L132.386666,75.552 L129.026666,84.224 C128.354666,85.968 127.602666,86.608 126.242666,86.608 C125.442666,86.608 124.834666,86.416 124.242666,86.08 L124.898666,84.656 C125.250666,84.848 125.634666,84.976 126.034666,84.976 C126.578666,84.976 126.914666,84.736 127.234666,84.016 L123.714666,75.552 L125.794666,75.552 L128.162666,81.824 Z M138.647999,84 L138.647999,72.8 L142.823999,72.8 C146.343999,72.8 148.775999,75.216 148.775999,78.368 L148.775999,78.4 C148.775999,81.552 146.343999,84 142.823999,84 L138.647999,84 Z M142.823999,74.592 L140.615999,74.592 L140.615999,82.208 L142.823999,82.208 C145.175999,82.208 146.711999,80.624 146.711999,78.432 L146.711999,78.4 C146.711999,76.208 145.175999,74.592 142.823999,74.592 Z M153.154666,84.176 C151.570666,84.176 150.146666,83.264 150.146666,81.568 L150.146666,81.536 C150.146666,79.712 151.586666,78.816 153.650666,78.816 C154.594666,78.816 155.266666,78.96 155.922666,79.168 L155.922666,78.96 C155.922666,77.76 155.186666,77.12 153.826666,77.12 C152.882666,77.12 152.178666,77.328 151.410666,77.648 L150.882666,76.128 C151.826666,75.712 152.738666,75.44 154.082666,75.44 C155.346666,75.44 156.290666,75.776 156.882666,76.384 C157.506666,76.992 157.794666,77.888 157.794666,78.992 L157.794666,84 L155.906666,84 L155.906666,82.944 C155.330666,83.632 154.450666,84.176 153.154666,84.176 Z M153.698666,82.768 C154.978666,82.768 155.954666,82.032 155.954666,80.96 L155.954666,80.384 C155.458666,80.192 154.802666,80.048 154.034666,80.048 C152.786666,80.048 152.050666,80.576 152.050666,81.456 L152.050666,81.488 C152.050666,82.304 152.770666,82.768 153.698666,82.768 Z M162.797333,84.16 C161.597333,84.16 160.269333,83.744 159.213333,82.896 L160.077333,81.584 C161.005333,82.272 161.981333,82.624 162.845333,82.624 C163.677333,82.624 164.157333,82.272 164.157333,81.712 L164.157333,81.68 C164.157333,81.024 163.261333,80.8 162.269333,80.496 C161.021333,80.144 159.629333,79.632 159.629333,78.032 L159.629333,78 C159.629333,76.384 160.957333,75.408 162.637333,75.408 C163.693333,75.408 164.845333,75.776 165.741333,76.368 L164.973333,77.744 C164.157333,77.248 163.293333,76.944 162.589333,76.944 C161.837333,76.944 161.405333,77.312 161.405333,77.776 L161.405333,77.808 C161.405333,78.432 162.317333,78.688 163.309333,79.008 C164.541333,79.392 165.933333,79.952 165.933333,81.472 L165.933333,81.504 C165.933333,83.28 164.557333,84.16 162.797333,84.16 Z M167.687999,84 L167.687999,72.32 L169.639999,72.32 L169.639999,76.848 C170.183999,76.064 170.967999,75.376 172.279999,75.376 C174.183999,75.376 175.287999,76.656 175.287999,78.608 L175.287999,84 L173.351999,84 L173.351999,79.2 C173.351999,77.888 172.695999,77.136 171.543999,77.136 C170.423999,77.136 169.639999,77.92 169.639999,79.232 L169.639999,84 L167.687999,84 Z M182.226666,84.176 C180.818666,84.176 179.938666,83.472 179.346666,82.688 L179.346666,84 L177.394666,84 L177.394666,72.32 L179.346666,72.32 L179.346666,76.96 C179.970666,76.08 180.850666,75.376 182.226666,75.376 C184.210666,75.376 186.146666,76.944 186.146666,79.76 L186.146666,79.792 C186.146666,82.592 184.226666,84.176 182.226666,84.176 Z M181.762666,82.496 C183.090666,82.496 184.178666,81.456 184.178666,79.792 L184.178666,79.76 C184.178666,78.128 183.058666,77.056 181.762666,77.056 C180.450666,77.056 179.298666,78.144 179.298666,79.76 L179.298666,79.792 C179.298666,81.408 180.450666,82.496 181.762666,82.496 Z M191.949332,84.192 C189.373332,84.192 187.469332,82.224 187.469332,79.824 L187.469332,79.792 C187.469332,77.376 189.389332,75.376 191.981332,75.376 C194.573332,75.376 196.477332,77.344 196.477332,79.76 L196.477332,79.792 C196.477332,82.192 194.557332,84.192 191.949332,84.192 Z M191.981332,82.496 C193.549332,82.496 194.541332,81.28 194.541332,79.824 L194.541332,79.792 C194.541332,78.304 193.469332,77.072 191.949332,77.072 C190.397332,77.072 189.405332,78.288 189.405332,79.76 L189.405332,79.792 C189.405332,81.264 190.477332,82.496 191.981332,82.496 Z M200.663999,84.176 C199.079999,84.176 197.655999,83.264 197.655999,81.568 L197.655999,81.536 C197.655999,79.712 199.095999,78.816 201.159999,78.816 C202.103999,78.816 202.775999,78.96 203.431999,79.168 L203.431999,78.96 C203.431999,77.76 202.695999,77.12 201.335999,77.12 C200.391999,77.12 199.687999,77.328 198.919999,77.648 L198.391999,76.128 C199.335999,75.712 200.247999,75.44 201.591999,75.44 C202.855999,75.44 203.799999,75.776 204.391999,76.384 C205.015999,76.992 205.303999,77.888 205.303999,78.992 L205.303999,84 L203.415999,84 L203.415999,82.944 C202.839999,83.632 201.959999,84.176 200.663999,84.176 Z M201.207999,82.768 C202.487999,82.768 203.463999,82.032 203.463999,80.96 L203.463999,80.384 C202.967999,80.192 202.311999,80.048 201.543999,80.048 C200.295999,80.048 199.559999,80.576 199.559999,81.456 L199.559999,81.488 C199.559999,82.304 200.279999,82.768 201.207999,82.768 Z M207.394666,84 L207.394666,75.552 L209.346666,75.552 L209.346666,77.456 C209.874666,76.192 210.850666,75.328 212.338666,75.392 L212.338666,77.44 L212.226666,77.44 C210.530666,77.44 209.346666,78.544 209.346666,80.784 L209.346666,84 L207.394666,84 Z M217.069332,84.176 C215.085332,84.176 213.149332,82.592 213.149332,79.792 L213.149332,79.76 C213.149332,76.96 215.053332,75.376 217.069332,75.376 C218.461332,75.376 219.341332,76.064 219.949332,76.864 L219.949332,72.32 L221.885332,72.32 L221.885332,84 L219.949332,84 L219.949332,82.592 C219.325332,83.472 218.445332,84.176 217.069332,84.176 Z M217.533332,82.496 C218.829332,82.496 219.981332,81.408 219.981332,79.792 L219.981332,79.76 C219.981332,78.128 218.829332,77.056 217.533332,77.056 C216.205332,77.056 215.101332,78.096 215.101332,79.76 L215.101332,79.792 C215.101332,81.424 216.221332,82.496 217.533332,82.496 Z" mask="url(#wannacry-dashboard-b)"/>
    <g mask="url(#wannacry-dashboard-b)">
      <g transform="translate(51 21)">
        <g transform="translate(0 .013)">
          <mask id="wannacry-dashboard-y" fill="#fff">
            <use xlink:href="#wannacry-dashboard-x"/>
          </mask>
          <path fill="#ED2E26" d="M14.4871962,0.105320997 C23.9227417,0.105320997 28.666882,5.18517583 28.666882,5.18517583 C28.666882,5.18517583 29.2094158,8.9453202 28.8631076,16.5164217 C28.3401139,27.9534386 14.4904921,34.8219264 14.489315,34.822637 C14.4881379,34.8233477 0.638633809,27.9534386 0.115522398,16.5164217 C-0.230785831,8.9453202 0.311748033,5.18517583 0.311748033,5.18517583 C0.311748033,5.18517583 5.05165063,0.105320997 14.4871962,0.105320997" mask="url(#wannacry-dashboard-y)"/>
        </g>
        <path fill="#262626" d="M46.3994053 23.3973461C43.140553 23.3973461 40.4893293 20.7296169 40.4893293 17.4504763 40.4893293 14.1713358 43.140553 11.5036065 46.3994053 11.5036065 49.6583753 11.5036065 52.309599 14.1713358 52.309599 17.4504763 52.309599 20.7296169 49.6583753 23.3973461 46.3994053 23.3973461M46.3994053 9.09941671C41.8231222 9.09941671 38.1000144 12.8457031 38.1000144 17.4504763 38.1000144 20.2378347 39.2641845 22.7215009 41.466573 24.6330793 43.5291198 26.4231336 46.4868652 27.6570901 49.9018033 28.2289409 50.3901898 27.9590055 51.3136391 27.0481661 51.6076833 26.424318 49.0915928 25.9874941 47.9376636 25.5542235 47.9376636 25.5542235 47.9376636 25.5542235 48.2598409 25.5410761 48.9065497 25.3585529 52.2678113 24.4098111 54.7319909 21.0691978 54.6989139 17.4504763 54.6567731 12.8459399 50.9758062 9.09941671 46.3994053 9.09941671M92.2963223 21.2874439L89.4931326 13.8031624 86.9954051 13.8031624 91.0854206 24.2499819C91.0854206 24.2499819 89.2760719 28.5777131 89.2767782 28.5773578 90.467198 28.5773578 91.7693264 28.4927883 92.2789009 27.2307604 93.4737938 24.2704728 97.6352604 13.8031624 97.6352604 13.8031624L95.1369444 13.8031624 92.2963223 21.2874439zM82.9272015 25.020879C82.9272015 25.020879 85.2455362 24.9777651 85.2455362 23.3947522L85.2455362 9.17748359 82.9272015 9.17748359 82.9272015 25.020879zM74.6463385 22.8320808C73.2446259 22.8320808 71.1479427 21.890801 71.1155719 19.297692L71.1155719 19.2792146C71.1155719 17.2315432 72.616751 15.6874985 74.6076113 15.6874985 76.094665 15.6874985 77.3028593 16.4686411 77.8431566 17.7851536 78.0556265 18.2302686 78.1576826 18.7518989 78.1384956 19.2931911 78.1189554 19.8432481 77.9966528 20.3685502 77.7827704 20.8174555 77.2368229 22.0790096 76.0642953 22.8320808 74.6463385 22.8320808L74.6463385 22.8320808zM78.1189554 15.276614C77.4734237 14.3706307 76.2123768 13.4912975 74.3555903 13.4912975 71.1867876 13.4912975 68.7972372 15.9711735 68.7972372 19.2596712 68.7972372 20.7966092 69.3195247 22.2250519 70.267929 23.2814599 71.2937876 24.424214 72.7073891 25.0284002 74.3555903 25.0284002 75.9527045 25.0284002 77.3201629 24.3729275 78.1189554 23.250072L78.1189554 25.0208198C78.1189554 25.0208198 80.4372901 24.983865 80.4372901 23.3959959L80.4372901 13.8031624 78.1189554 13.8031624 78.1189554 15.276614zM64.572889 19.8838035C64.572889 21.7675475 63.6005892 22.8147168 61.836795 22.8321282 60.0478105 22.8321282 59.1780377 21.810306 59.1780377 19.7082686L59.1780377 13.8032097 56.8598207 13.8032097 56.8598207 20.1762434C56.8598207 21.0960847 57.0139055 22.4080963 57.7483097 23.4341824 58.498605 24.4828915 59.6849049 25.0190905 61.2731907 25.0284476 61.2948497 25.0286845 61.3167441 25.028803 61.3382853 25.028803 63.2378013 25.028803 64.2161044 24.1622618 64.6891883 23.4889038L64.6891883 25.0208672C64.6891883 25.0208672 66.8912236 24.9832018 66.8912236 23.4738614L66.8912236 13.8032097 64.572889 13.8032097 64.572889 19.8838035zM103.193413 18.236333C101.98875 17.7123338 101.112739 17.2591645 101.128159 16.5561954 101.1384 16.0910632 101.747206 15.6457113 102.38026 15.6676235 103.057809 15.691194 103.560086 16.1613009 103.840475 16.5374812 103.840475 16.5374812 105.107055 15.4481456 105.260316 15.3314776 104.60419 14.2383517 103.489694 13.6230317 102.239712 13.5953157 100.456849 13.5557551 98.9749742 14.9628778 98.936247 16.7319673 98.9026991 18.2642859 99.7947194 18.896662 100.964422 19.5643346L102.889835 20.6535517C103.333961 20.9661272 103.543606 21.1994632 103.53313 21.6803486 103.516532 22.4338935 102.890305 22.9223593 102.079035 22.9705663 101.482354 23.0060997 100.99232 22.6589384 100.527946 22.1699988 99.6245081 21.2184144 98.2373918 21.6758477 97.8129229 21.8133619 98.6954086 23.855348 100.365033 25.044414 102.032892 25.0814871 104.133225 25.1280359 105.813561 23.5681196 105.858174 21.5301607 105.879598 20.5490835 105.452186 19.3306433 103.193413 18.236333"/>
        <path fill="#FFF" d="M7.40694681,15.1526024 C7.40694681,11.1085462 10.584107,7.81862716 14.489315,7.81862716 C18.3978189,7.81862716 21.5775688,11.0182914 21.5775688,14.9510096 C21.5775688,18.0907408 18.8952691,20.6737821 16.8281315,22.001073 C17.6301023,22.4615859 19.4000175,22.945077 21.0945971,23.1013055 C23.5691354,21.1743293 25.0783188,18.1955643 25.0783188,14.9510096 C25.0783188,9.07591729 20.3281753,4.29620124 14.489315,4.29620124 C8.65057238,4.29620124 3.90042885,9.07591729 3.90042885,14.9510096 C3.90042885,18.4993749 5.36876633,21.6515428 8.14653029,24.0671033 C10.7436066,26.3252509 14.5425207,27.8325777 18.8678423,28.5462068 C19.8049462,28.0251687 21.4075929,26.4868094 22.0085118,25.5862746 C18.3961709,25.1187735 14.9773483,24.2323336 12.6854988,23.0225398 C9.18298303,21.1738555 7.40694681,18.5259065 7.40694681,15.1526024"/>
      </g>
    </g>
  </g>
</svg>
