<svg xmlns="http://www.w3.org/2000/svg" xmlns:xlink="http://www.w3.org/1999/xlink" width="815" height="514" viewBox="0 0 815 514"><defs><filter id="k" width="104%" height="106.4%" x="-2%" y="-2.3%" filterUnits="objectBoundingBox"><feOffset dy="2" in="SourceAlpha" result="shadowOffsetOuter1"/><feGaussianBlur stdDeviation="2" in="shadowOffsetOuter1" result="shadowBlurOuter1"/><feColorMatrix values="0 0 0 0 0.908056973 0 0 0 0 0.908056973 0 0 0 0 0.908056973 0 0 0 0.5 0" in="shadowBlurOuter1"/></filter><filter id="c" width="104%" height="106.4%" x="-2%" y="-2.3%" filterUnits="objectBoundingBox"><feOffset dy="2" in="SourceAlpha" result="shadowOffsetOuter1"/><feGaussianBlur stdDeviation="2" in="shadowOffsetOuter1" result="shadowBlurOuter1"/><feColorMatrix values="0 0 0 0 0.908056973 0 0 0 0 0.908056973 0 0 0 0 0.908056973 0 0 0 0.5 0" in="shadowBlurOuter1"/></filter><filter id="e" width="106.1%" height="108.4%" x="-3%" y="-3%" filterUnits="objectBoundingBox"><feOffset dy="2" in="SourceAlpha" result="shadowOffsetOuter1"/><feGaussianBlur stdDeviation="2" in="shadowOffsetOuter1" result="shadowBlurOuter1"/><feColorMatrix values="0 0 0 0 0.908056973 0 0 0 0 0.908056973 0 0 0 0 0.908056973 0 0 0 0.5 0" in="shadowBlurOuter1"/></filter><filter id="g" width="106.1%" height="108.4%" x="-3%" y="-3%" filterUnits="objectBoundingBox"><feOffset dy="2" in="SourceAlpha" result="shadowOffsetOuter1"/><feGaussianBlur stdDeviation="2" in="shadowOffsetOuter1" result="shadowBlurOuter1"/><feColorMatrix values="0 0 0 0 0.908056973 0 0 0 0 0.908056973 0 0 0 0 0.908056973 0 0 0 0.5 0" in="shadowBlurOuter1"/></filter><filter id="i" width="106.1%" height="108.4%" x="-3%" y="-3%" filterUnits="objectBoundingBox"><feOffset dy="2" in="SourceAlpha" result="shadowOffsetOuter1"/><feGaussianBlur stdDeviation="2" in="shadowOffsetOuter1" result="shadowBlurOuter1"/><feColorMatrix values="0 0 0 0 0.908056973 0 0 0 0 0.908056973 0 0 0 0 0.908056973 0 0 0 0.5 0" in="shadowBlurOuter1"/></filter><rect id="d" width="352" height="220" rx="2"/><rect id="f" width="231" height="166" rx="2"/><rect id="j" width="231" height="166" rx="2"/><rect id="h" width="231" height="166" rx="2"/><rect id="l" width="352" height="220" rx="2"/><path id="a" d="M0 0h815v514H0z"/></defs><g fill="none" fill-rule="evenodd"><mask id="b" fill="#fff"><use xlink:href="#a"/></mask><use fill="#F7FAFC" xlink:href="#a"/><g transform="translate(697 40)" mask="url(#b)"><rect width="67" height="24" fill="#043471" rx="2"/><path fill="#FFF" d="M9.9 15h1.21v-4.98L14.97 15H16V8h-1.21v4.84L11.04 8H9.9v7zm10.18.12c-1.53 0-2.71-1.11-2.71-2.74v-.02c0-1.51 1.07-2.75 2.58-2.75 1.68 0 2.53 1.32 2.53 2.84 0 .11-.01.22-.02.34h-3.88c.13.86.74 1.34 1.52 1.34.59 0 1.01-.22 1.43-.63l.71.63c-.5.6-1.19.99-2.16.99zm-1.51-3.13h2.71c-.08-.78-.54-1.39-1.34-1.39-.74 0-1.26.57-1.37 1.39zm6.4 3.05h1.08l1.19-3.61 1.18 3.61h1.08l1.73-5.32h-1.21l-1.08 3.62-1.18-3.64h-1.03l-1.17 3.64-1.06-3.62h-1.24l1.71 5.32zm12.15.06c1.1 0 1.96-.55 1.96-1.66v-.02c0-.95-.87-1.3-1.64-1.54-.62-.2-1.19-.36-1.19-.74v-.02c0-.31.27-.53.74-.53.44 0 .98.19 1.49.5l.48-.86c-.56-.37-1.28-.6-1.94-.6-1.05 0-1.88.61-1.88 1.61v.02c0 1.01.87 1.33 1.65 1.55.62.19 1.18.33 1.18.74v.02c0 .35-.3.57-.82.57-.54 0-1.16-.22-1.73-.65l-.54.82c.66.52 1.49.79 2.24.79zm5.63.02c1.03 0 1.64-.41 2.16-.99l-.73-.72c-.38.39-.8.66-1.37.66-.93 0-1.58-.76-1.58-1.7v-.02c0-.92.64-1.68 1.52-1.68.61 0 1 .27 1.37.66l.75-.81c-.49-.54-1.11-.91-2.11-.91-1.58 0-2.74 1.26-2.74 2.76v.02c0 1.5 1.16 2.73 2.73 2.73zm7.7-.12h-1.2v-.65c-.36.43-.91.76-1.71.76-1 0-1.88-.57-1.88-1.63v-.02c0-1.17.91-1.73 2.14-1.73.64 0 1.05.09 1.46.22v-.1c0-.73-.46-1.13-1.3-1.13-.59 0-1.03.13-1.51.33l-.33-.97c.58-.26 1.15-.44 2.01-.44 1.56 0 2.32.82 2.32 2.23V15zm-1.17-1.91v-.3c-.31-.12-.74-.21-1.21-.21-.76 0-1.21.31-1.21.82v.02c0 .5.45.78 1.02.78.8 0 1.4-.45 1.4-1.11zM51.89 15h1.21v-2.98c0-.82.49-1.31 1.19-1.31.72 0 1.13.47 1.13 1.29v3h1.21v-3.36c0-1.23-.69-2.03-1.88-2.03-.82 0-1.31.43-1.65.93v-.82h-1.21V15z"/></g><path fill="#30405C" d="M89.2 57.075h1.59l2.58-7.545 2.58 7.545h1.59L101.2 46.5h-1.935l-2.505 7.785-2.58-7.815h-1.56l-2.58 7.815-2.505-7.785H85.54l3.66 10.575zm16.135.105c-2.295 0-4.065-1.665-4.065-4.11v-.03c0-2.265 1.605-4.125 3.87-4.125 2.52 0 3.795 1.98 3.795 4.26 0 .165-.015.33-.03.51h-5.82c.195 1.29 1.11 2.01 2.28 2.01.885 0 1.515-.33 2.145-.945l1.065.945c-.75.9-1.785 1.485-3.24 1.485zm-2.265-4.695h4.065c-.12-1.17-.81-2.085-2.01-2.085-1.11 0-1.89.855-2.055 2.085zm11.995 4.68c-1.305 0-2.13-.66-2.685-1.395V57h-1.815V46.05h1.815v4.35c.585-.825 1.41-1.485 2.685-1.485 1.875 0 3.69 1.485 3.69 4.11v.03c0 2.625-1.8 4.11-3.69 4.11zm-.42-1.575c1.245 0 2.265-.975 2.265-2.535v-.03c0-1.53-1.035-2.535-2.265-2.535-1.23 0-2.31 1.02-2.31 2.535v.03c0 1.53 1.08 2.535 2.31 2.535zm9.38 1.41l4.62-10.575h1.71L134.975 57h-1.95l-1.065-2.535h-4.965L125.915 57h-1.89zm3.645-4.17h3.615l-1.815-4.2-1.8 4.2zm8.695 6.57V49.08h1.815v1.32c.585-.825 1.41-1.485 2.685-1.485 1.875 0 3.69 1.485 3.69 4.11v.03c0 2.625-1.8 4.11-3.69 4.11-1.305 0-2.13-.66-2.685-1.395v3.63h-1.815zm4.08-3.81c1.245 0 2.265-.975 2.265-2.535v-.03c0-1.53-1.035-2.535-2.265-2.535-1.23 0-2.31 1.02-2.31 2.535v.03c0 1.53 1.08 2.535 2.31 2.535zm5.77 3.81V49.08h1.815v1.32c.585-.825 1.41-1.485 2.685-1.485 1.875 0 3.69 1.485 3.69 4.11v.03c0 2.625-1.8 4.11-3.69 4.11-1.305 0-2.13-.66-2.685-1.395v3.63h-1.815zm4.08-3.81c1.245 0 2.265-.975 2.265-2.535v-.03c0-1.53-1.035-2.535-2.265-2.535-1.23 0-2.31 1.02-2.31 2.535v.03c0 1.53 1.08 2.535 2.31 2.535zm13.955 1.56c2.205 0 3.75-1.17 3.75-3.135v-.03c0-1.74-1.155-2.535-3.375-3.075-2.01-.48-2.49-.84-2.49-1.65v-.03c0-.69.63-1.245 1.71-1.245.96 0 1.905.375 2.85 1.08l.99-1.395c-1.065-.855-2.28-1.32-3.81-1.32-2.085 0-3.585 1.245-3.585 3.045v.03c0 1.935 1.26 2.595 3.495 3.135 1.95.45 2.37.855 2.37 1.605v.03c0 .795-.72 1.32-1.86 1.32-1.305 0-2.31-.495-3.315-1.365l-1.11 1.32a6.468 6.468 0 004.38 1.68zm9.175.03c1.545 0 2.46-.615 3.24-1.485l-1.095-1.08c-.57.585-1.2.99-2.055.99-1.395 0-2.37-1.14-2.37-2.55v-.03c0-1.38.96-2.52 2.28-2.52.915 0 1.5.405 2.055.99l1.125-1.215c-.735-.81-1.665-1.365-3.165-1.365-2.37 0-4.11 1.89-4.11 4.14v.03c0 2.25 1.74 4.095 4.095 4.095zm11.35-.18h-1.8v-.975c-.54.645-1.365 1.14-2.565 1.14-1.5 0-2.82-.855-2.82-2.445v-.03c0-1.755 1.365-2.595 3.21-2.595.96 0 1.575.135 2.19.33v-.15c0-1.095-.69-1.695-1.95-1.695-.885 0-1.545.195-2.265.495l-.495-1.455c.87-.39 1.725-.66 3.015-.66 2.34 0 3.48 1.23 3.48 3.345V57zm-1.755-2.865v-.45a5.185 5.185 0 00-1.815-.315c-1.14 0-1.815.465-1.815 1.23v.03c0 .75.675 1.17 1.53 1.17 1.2 0 2.1-.675 2.1-1.665zM186.735 57h1.815v-4.47c0-1.23.735-1.965 1.785-1.965 1.08 0 1.695.705 1.695 1.935V57h1.815v-5.04c0-1.845-1.035-3.045-2.82-3.045-1.23 0-1.965.645-2.475 1.395v-1.23h-1.815V57zm9.1 0h1.815v-4.47c0-1.23.735-1.965 1.785-1.965 1.08 0 1.695.705 1.695 1.935V57h1.815v-5.04c0-1.845-1.035-3.045-2.82-3.045-1.23 0-1.965.645-2.475 1.395v-1.23h-1.815V57zm9.13-9.135h1.95V46.14h-1.95v1.725zM205.04 57h1.815v-7.92h-1.815V57zm3.985 0h1.815v-4.47c0-1.23.735-1.965 1.785-1.965 1.08 0 1.695.705 1.695 1.935V57h1.815v-5.04c0-1.845-1.035-3.045-2.82-3.045-1.23 0-1.965.645-2.475 1.395v-1.23h-1.815V57zm12.625 2.43c-1.305 0-2.52-.33-3.54-.945l.675-1.365c.84.525 1.74.84 2.82.84 1.62 0 2.505-.84 2.505-2.43v-.615c-.66.855-1.485 1.455-2.79 1.455-1.86 0-3.6-1.38-3.6-3.705v-.03c0-2.34 1.755-3.72 3.6-3.72 1.335 0 2.16.615 2.775 1.35V49.08h1.815v6.3c0 1.335-.345 2.325-1.005 2.985-.72.72-1.83 1.065-3.255 1.065zm.15-4.59c1.26 0 2.325-.9 2.325-2.175v-.03c0-1.305-1.065-2.19-2.325-2.19-1.26 0-2.25.87-2.25 2.175v.03c0 1.305 1.005 2.19 2.25 2.19z" mask="url(#b)"/><g mask="url(#b)"><g transform="translate(412 79)"><use fill="#000" filter="url(#c)" xlink:href="#d"/><use fill="#FFF" xlink:href="#d"/></g><g transform="translate(442 139)"><path fill="#E5E7EB" d="M50 0h165v5H50zm212 0h30v5h-30z"/><rect width="30" height="5" fill="#00B3BD" rx="1"/><rect width="30" height="5" y="30" fill="#00B3BD" rx="1"/><rect width="30" height="5" y="60" fill="#00B3BD" rx="1"/><rect width="30" height="5" y="90" fill="#007DA3" rx="1"/><rect width="30" height="5" y="120" fill="#043471" rx="1"/><path fill="#E5E7EB" d="M50 30h180v5H50zm212 0h30v5h-30zM50 60h165v5H50zm212 0h30v5h-30zM50 90h180v5H50zm212 0h30v5h-30zM50 120h165v5H50zm212 0h30v5h-30z"/></g><path fill="#30405C" d="M442.9 117h1.21v-5l2.19 3.28h.04l2.21-3.3V117h1.23v-7h-1.31l-2.13 3.31-2.13-3.31h-1.31v7zm12.72.12c-2.15 0-3.65-1.63-3.65-3.6v-.02c0-1.97 1.52-3.62 3.67-3.62s3.65 1.63 3.65 3.6v.02c0 1.97-1.52 3.62-3.67 3.62zm.02-1.13c1.39 0 2.36-1.11 2.36-2.47v-.02c0-1.36-.99-2.49-2.38-2.49s-2.36 1.11-2.36 2.47v.02c0 1.36.99 2.49 2.38 2.49zm8.24 1.11c1.47 0 2.5-.78 2.5-2.09v-.02c0-1.16-.77-1.69-2.25-2.05-1.34-.32-1.66-.56-1.66-1.1v-.02c0-.46.42-.83 1.14-.83.64 0 1.27.25 1.9.72l.66-.93c-.71-.57-1.52-.88-2.54-.88-1.39 0-2.39.83-2.39 2.03v.02c0 1.29.84 1.73 2.33 2.09 1.3.3 1.58.57 1.58 1.07v.02c0 .53-.48.88-1.24.88-.87 0-1.54-.33-2.21-.91l-.74.88c.84.75 1.85 1.12 2.92 1.12zm6.22-.1h1.24v-5.86h2.22V110h-5.68v1.14h2.22V117zm11.47.05h1.08l2.91-7.05h-1.33l-2.1 5.38-2.11-5.38h-1.36l2.91 7.05zm8.76.06c1.83 0 3.01-1.05 3.01-3.14V110h-1.23v4.03c0 1.29-.67 1.95-1.76 1.95-1.1 0-1.77-.7-1.77-2V110h-1.23v4.03c0 2.03 1.16 3.08 2.98 3.08zm5.4-.11h4.91v-1.12h-3.68V110h-1.23v7zm6.89 0h1.21v-4.98l3.86 4.98h1.03v-7h-1.21v4.84l-3.75-4.84h-1.14v7zm8.6 0h5.24v-1.1h-4.01v-1.88h3.51v-1.1h-3.51v-1.82h3.96V110h-5.19v7zm7.4 0v-7h3.12c.88 0 1.57.26 2.02.7.37.38.58.9.58 1.51v.02c0 1.15-.69 1.84-1.67 2.12l1.89 2.65h-1.45l-1.72-2.44h-1.54V117h-1.23zm1.23-3.53h1.8c.88 0 1.44-.46 1.44-1.17v-.02c0-.75-.54-1.16-1.45-1.16h-1.79v2.35zm6.1 3.53l3.08-7.05h1.14l3.08 7.05h-1.3l-.71-1.69h-3.31l-.72 1.69h-1.26zm2.43-2.78h2.41l-1.21-2.8-1.2 2.8zm6.77 2.78v-7h3.14c.8 0 1.43.22 1.83.62.31.31.47.69.47 1.16v.02c0 .84-.48 1.29-1 1.56.82.28 1.39.75 1.39 1.7v.02c0 1.25-1.03 1.92-2.59 1.92h-3.24zm1.21-4.05h1.68c.79 0 1.32-.31 1.32-.95v-.02c0-.55-.44-.89-1.23-.89h-1.77v1.86zm0 2.96h2.04c.84 0 1.35-.33 1.35-.96v-.02c0-.59-.47-.94-1.44-.94h-1.95v1.92zm6.71 1.09h4.91v-1.12h-3.68V110h-1.23v7zm6.89 0h5.24v-1.1h-4.01v-1.88h3.51v-1.1h-3.51v-1.82h3.96V110h-5.19v7zm13 .05h1.06l1.72-5.03 1.72 5.03h1.06l2.44-7.05h-1.29l-1.67 5.19-1.72-5.21h-1.04l-1.72 5.21-1.67-5.19h-1.33l2.44 7.05zm9.96-.05h5.24v-1.1h-4.01v-1.88h3.51v-1.1h-3.51v-1.82h3.96V110h-5.19v7zm7.4 0v-7h3.14c.8 0 1.43.22 1.83.62.31.31.47.69.47 1.16v.02c0 .84-.48 1.29-1 1.56.82.28 1.39.75 1.39 1.7v.02c0 1.25-1.03 1.92-2.59 1.92h-3.24zm1.21-4.05h1.68c.79 0 1.32-.31 1.32-.95v-.02c0-.55-.44-.89-1.23-.89h-1.77v1.86zm0 2.96h2.04c.84 0 1.35-.33 1.35-.96v-.02c0-.59-.47-.94-1.44-.94h-1.95v1.92zm9.81 1.09l3.08-7.05h1.14l3.08 7.05h-1.3l-.71-1.69h-3.31l-.72 1.69h-1.26zm2.43-2.78h2.41l-1.21-2.8-1.2 2.8zm6.77 2.78v-7h2.76c1.63 0 2.66.93 2.66 2.34v.02c0 1.57-1.26 2.39-2.8 2.39h-1.39V117h-1.23zm1.23-3.36h1.43c.93 0 1.51-.52 1.51-1.25v-.02c0-.82-.59-1.25-1.51-1.25h-1.43v2.52zm6.15 3.36v-7h2.76c1.63 0 2.66.93 2.66 2.34v.02c0 1.57-1.26 2.39-2.8 2.39h-1.39V117h-1.23zm1.23-3.36h1.43c.93 0 1.51-.52 1.51-1.25v-.02c0-.82-.59-1.25-1.51-1.25h-1.43v2.52zm6.15 3.36h4.91v-1.12h-3.68V110h-1.23v7zm6.96 0h1.23v-7h-1.23v7zm7.05.12c1.31 0 2.11-.48 2.84-1.24l-.79-.8c-.6.56-1.15.91-2.01.91-1.34 0-2.31-1.12-2.31-2.49v-.02c0-1.37.97-2.47 2.31-2.47.8 0 1.4.35 1.96.87l.79-.91c-.67-.64-1.45-1.09-2.74-1.09-2.12 0-3.61 1.63-3.61 3.62v.02c0 2.01 1.52 3.6 3.56 3.6zm4.23-.12l3.08-7.05h1.14l3.08 7.05h-1.3l-.71-1.69h-3.31l-.72 1.69h-1.26zm2.43-2.78h2.41l-1.21-2.8-1.2 2.8zm7.59 2.78h1.24v-5.86h2.22V110h-5.68v1.14h2.22V117zm5.53 0h1.23v-7h-1.23v7zm7.14.12c-2.15 0-3.65-1.63-3.65-3.6v-.02c0-1.97 1.52-3.62 3.67-3.62s3.65 1.63 3.65 3.6v.02c0 1.97-1.52 3.62-3.67 3.62zm.02-1.13c1.39 0 2.36-1.11 2.36-2.47v-.02c0-1.36-.99-2.49-2.38-2.49s-2.36 1.11-2.36 2.47v.02c0 1.36.99 2.49 2.38 2.49zm5.84 1.01h1.21v-4.98l3.86 4.98h1.03v-7h-1.21v4.84l-3.75-4.84h-1.14v7zm11.05.1c1.47 0 2.5-.78 2.5-2.09v-.02c0-1.16-.77-1.69-2.25-2.05-1.34-.32-1.66-.56-1.66-1.1v-.02c0-.46.42-.83 1.14-.83.64 0 1.27.25 1.9.72l.66-.93c-.71-.57-1.52-.88-2.54-.88-1.39 0-2.39.83-2.39 2.03v.02c0 1.29.84 1.73 2.33 2.09 1.3.3 1.58.57 1.58 1.07v.02c0 .53-.48.88-1.24.88-.87 0-1.54-.33-2.21-.91l-.74.88c.84.75 1.85 1.12 2.92 1.12z"/></g><g mask="url(#b)"><path stroke="#2E8BE0" d="M71.533 63.147a43.096 43.096 0 01-17.066 0c-1.166-.245-2.369-1.448-2.614-2.614a43.096 43.096 0 010-17.066c.245-1.166 1.448-2.369 2.614-2.614a43.096 43.096 0 0117.066 0c1.166.245 2.369 1.448 2.614 2.614a43.096 43.096 0 010 17.066c-.245 1.166-1.448 2.369-2.614 2.614"/><path fill="#2E8BE0" d="M59.425 49s-.93 3.94-1.18 5.23h-.03c-.26-1.29-1.22-5.23-1.22-5.23h-1.41s-.96 3.94-1.21 5.23h-.03c-.23-1.29-1.15-5.23-1.15-5.23h-1.52l1.76 7h1.74s.83-3.39 1.09-4.64h.03c.28 1.25 1.05 4.64 1.05 4.64h1.74l1.75-7h-1.41zm5.83 0l2.52 7h-1.55l-.56-1.62h-2.51l-.56 1.62h-1.47l2.52-7h1.61zm-.84 1.64h-.02c-.12.45-.83 2.55-.83 2.55h1.69s-.72-2.1-.84-2.55zm5.59.2c0-.47.37-.77 1.12-.77.74 0 1.19.4 1.3 1.04l1.52-.33c-.24-1.23-1.33-1.92-2.78-1.92-1.55 0-2.68.7-2.68 2.1 0 1.41 1.11 1.89 2.57 2.12 1.09.17 1.47.42 1.47.94 0 .64-.58.91-1.29.91-.88 0-1.33-.49-1.4-1.16l-1.5.24c.06 1.13 1.13 2.13 2.9 2.13 1.63 0 2.82-.85 2.82-2.2 0-1.26-.76-1.84-2.42-2.12-1.14-.19-1.63-.38-1.63-.98z"/></g><g transform="translate(532 309)" mask="url(#b)"><use fill="#000" filter="url(#e)" xlink:href="#f"/><use fill="#FFF" xlink:href="#f"/><path fill="#30405C" d="M30.9 38h4.91v-1.12h-3.68V31H30.9v7zm6.29 0l3.08-7.05h1.14L44.49 38h-1.3l-.71-1.69h-3.31L38.45 38h-1.26zm2.43-2.78h2.41l-1.21-2.8-1.2 2.8zM47.21 38h1.24v-5.86h2.22V31h-5.68v1.14h2.22V38zm5.46 0h5.24v-1.1H53.9v-1.88h3.51v-1.1H53.9V32.1h3.96V31h-5.19v7zm9.85.1c1.47 0 2.5-.78 2.5-2.09v-.02c0-1.16-.77-1.69-2.25-2.05-1.34-.32-1.66-.56-1.66-1.1v-.02c0-.46.42-.83 1.14-.83.64 0 1.27.25 1.9.72l.66-.93c-.71-.57-1.52-.88-2.54-.88-1.39 0-2.39.83-2.39 2.03v.02c0 1.29.84 1.73 2.33 2.09 1.3.3 1.58.57 1.58 1.07v.02c0 .53-.48.88-1.24.88-.87 0-1.54-.33-2.21-.91l-.74.88c.84.75 1.85 1.12 2.92 1.12zm6.22-.1h1.24v-5.86h2.22V31h-5.68v1.14h2.22V38zm9.16 0v-7h3.12c.88 0 1.57.26 2.02.7.37.38.58.9.58 1.51v.02c0 1.15-.69 1.84-1.67 2.12L83.84 38h-1.45l-1.72-2.44h-1.54V38H77.9zm1.23-3.53h1.8c.88 0 1.44-.46 1.44-1.17v-.02c0-.75-.54-1.16-1.45-1.16h-1.79v2.35zm6.7 3.53h5.24v-1.1h-4.01v-1.88h3.51v-1.1h-3.51V32.1h3.96V31h-5.19v7zm7.4 0v-7h2.76c1.63 0 2.66.93 2.66 2.34v.02c0 1.57-1.26 2.39-2.8 2.39h-1.39V38h-1.23zm1.23-3.36h1.43c.93 0 1.51-.52 1.51-1.25v-.02c0-.82-.59-1.25-1.51-1.25h-1.43v2.52zm9.49 3.48c-2.15 0-3.65-1.63-3.65-3.6v-.02c0-1.97 1.52-3.62 3.67-3.62s3.65 1.63 3.65 3.6v.02c0 1.97-1.52 3.62-3.67 3.62zm.02-1.13c1.39 0 2.36-1.11 2.36-2.47v-.02c0-1.36-.99-2.49-2.38-2.49s-2.36 1.11-2.36 2.47v.02c0 1.36.99 2.49 2.38 2.49zm5.84 1.01v-7h3.12c.88 0 1.57.26 2.02.7.37.38.58.9.58 1.51v.02c0 1.15-.69 1.84-1.67 2.12l1.89 2.65h-1.45l-1.72-2.44h-1.54V38h-1.23zm1.23-3.53h1.8c.88 0 1.44-.46 1.44-1.17v-.02c0-.75-.54-1.16-1.45-1.16h-1.79v2.35zm8.39 3.53h1.24v-5.86h2.22V31h-5.68v1.14h2.22V38zm7.91.1c1.47 0 2.5-.78 2.5-2.09v-.02c0-1.16-.77-1.69-2.25-2.05-1.34-.32-1.66-.56-1.66-1.1v-.02c0-.46.42-.83 1.14-.83.64 0 1.27.25 1.9.72l.66-.93c-.71-.57-1.52-.88-2.54-.88-1.39 0-2.39.83-2.39 2.03v.02c0 1.29.84 1.73 2.33 2.09 1.3.3 1.58.57 1.58 1.07v.02c0 .53-.48.88-1.24.88-.87 0-1.54-.33-2.21-.91l-.74.88c.84.75 1.85 1.12 2.92 1.12z"/><rect width="7" height="7" x="30" y="60" fill="#007DA3" rx="3.5"/><rect width="7" height="7" x="30" y="80" fill="#043471" rx="3.5"/><rect width="7" height="7" x="30" y="100" fill="#00B3BD" rx="3.5"/><rect width="7" height="7" x="30" y="120" fill="#043471" rx="3.5"/><rect width="7" height="7" x="30" y="140" fill="#043471" rx="3.5"/><path fill="#E5E7EB" d="M50 61h120v5H50zm0 20h136v5H50zm0 20h120v5H50zm0 20h136v5H50zm0 20h120v5H50z"/></g><g transform="translate(291 309)" mask="url(#b)"><use fill="#000" filter="url(#g)" xlink:href="#h"/><use fill="#FFF" xlink:href="#h"/><path fill="#30405C" d="M32.96 38h1.24v-2.79L36.98 31h-1.41l-1.98 3.1-1.96-3.1h-1.45l2.78 4.24V38zm8.54.12c-2.15 0-3.65-1.63-3.65-3.6v-.02c0-1.97 1.52-3.62 3.67-3.62s3.65 1.63 3.65 3.6v.02c0 1.97-1.52 3.62-3.67 3.62zm.02-1.13c1.39 0 2.36-1.11 2.36-2.47v-.02c0-1.36-.99-2.49-2.38-2.49s-2.36 1.11-2.36 2.47v.02c0 1.36.99 2.49 2.38 2.49zm8.71 1.12c1.83 0 3.01-1.05 3.01-3.14V31h-1.23v4.03c0 1.29-.67 1.95-1.76 1.95-1.1 0-1.77-.7-1.77-2V31h-1.23v4.03c0 2.03 1.16 3.08 2.98 3.08zm5.4-.11v-7h3.12c.88 0 1.57.26 2.02.7.37.38.58.9.58 1.51v.02c0 1.15-.69 1.84-1.67 2.12L61.57 38h-1.45l-1.72-2.44h-1.54V38h-1.23zm1.23-3.53h1.8c.88 0 1.44-.46 1.44-1.17v-.02c0-.75-.54-1.16-1.45-1.16h-1.79v2.35zm13.27 3.64c1.83 0 3.01-1.05 3.01-3.14V31h-1.23v4.03c0 1.29-.67 1.95-1.76 1.95-1.1 0-1.77-.7-1.77-2V31h-1.23v4.03c0 2.03 1.16 3.08 2.98 3.08zm5.4-.11v-7h2.76c1.63 0 2.66.93 2.66 2.34v.02c0 1.57-1.26 2.39-2.8 2.39h-1.39V38h-1.23zm1.23-3.36h1.43c.93 0 1.51-.52 1.51-1.25v-.02c0-.82-.59-1.25-1.51-1.25h-1.43v2.52zm9.4 3.48c1.31 0 2.11-.48 2.84-1.24l-.79-.8c-.6.56-1.15.91-2.01.91-1.34 0-2.31-1.12-2.31-2.49v-.02c0-1.37.97-2.47 2.31-2.47.8 0 1.4.35 1.96.87l.79-.91c-.67-.64-1.45-1.09-2.74-1.09-2.12 0-3.61 1.63-3.61 3.62v.02c0 2.01 1.52 3.6 3.56 3.6zm7.97 0c-2.15 0-3.65-1.63-3.65-3.6v-.02c0-1.97 1.52-3.62 3.67-3.62s3.65 1.63 3.65 3.6v.02c0 1.97-1.52 3.62-3.67 3.62zm.02-1.13c1.39 0 2.36-1.11 2.36-2.47v-.02c0-1.36-.99-2.49-2.38-2.49s-2.36 1.11-2.36 2.47v.02c0 1.36.99 2.49 2.38 2.49zM99.99 38h1.21v-5l2.19 3.28h.04l2.21-3.3V38h1.23v-7h-1.31l-2.13 3.31L101.3 31h-1.31v7zm9.45 0h1.23v-7h-1.23v7zm3.8 0h1.21v-4.98l3.86 4.98h1.03v-7h-1.21v4.84L114.38 31h-1.14v7zm11.92.12c1.24 0 2.23-.5 2.92-1.09v-2.94h-2.98v1.07h1.79v1.31c-.43.32-1.03.53-1.69.53-1.43 0-2.38-1.06-2.38-2.5v-.02c0-1.34.98-2.47 2.27-2.47.89 0 1.42.29 1.96.75l.78-.93c-.72-.61-1.47-.95-2.69-.95-2.11 0-3.61 1.66-3.61 3.62v.02c0 2.04 1.44 3.6 3.63 3.6zm11.37-.02c1.47 0 2.5-.78 2.5-2.09v-.02c0-1.16-.77-1.69-2.25-2.05-1.34-.32-1.66-.56-1.66-1.1v-.02c0-.46.42-.83 1.14-.83.64 0 1.27.25 1.9.72l.66-.93c-.71-.57-1.52-.88-2.54-.88-1.39 0-2.39.83-2.39 2.03v.02c0 1.29.84 1.73 2.33 2.09 1.3.3 1.58.57 1.58 1.07v.02c0 .53-.48.88-1.24.88-.87 0-1.54-.33-2.21-.91l-.74.88c.84.75 1.85 1.12 2.92 1.12zm7.9.02c1.31 0 2.11-.48 2.84-1.24l-.79-.8c-.6.56-1.15.91-2.01.91-1.34 0-2.31-1.12-2.31-2.49v-.02c0-1.37.97-2.47 2.31-2.47.8 0 1.4.35 1.96.87l.79-.91c-.67-.64-1.45-1.09-2.74-1.09-2.12 0-3.61 1.63-3.61 3.62v.02c0 2.01 1.52 3.6 3.56 3.6zm4.23-.12l3.08-7.05h1.14l3.08 7.05h-1.3l-.71-1.69h-3.31l-.72 1.69h-1.26zm2.43-2.78h2.41l-1.21-2.8-1.2 2.8zm6.77 2.78h1.21v-4.98l3.86 4.98h1.03v-7h-1.21v4.84L159 31h-1.14v7zm11.05.1c1.47 0 2.5-.78 2.5-2.09v-.02c0-1.16-.77-1.69-2.25-2.05-1.34-.32-1.66-.56-1.66-1.1v-.02c0-.46.42-.83 1.14-.83.64 0 1.27.25 1.9.72l.66-.93c-.71-.57-1.52-.88-2.54-.88-1.39 0-2.39.83-2.39 2.03v.02c0 1.29.84 1.73 2.33 2.09 1.3.3 1.58.57 1.58 1.07v.02c0 .53-.48.88-1.24.88-.87 0-1.54-.33-2.21-.91l-.74.88c.84.75 1.85 1.12 2.92 1.12z"/><path fill="#E5E7EB" d="M30 61h143.083v5H30z"/><rect width="12" height="5" x="189" y="61" fill="#007DA3" rx="1"/><rect width="12" height="5" x="189" y="81" fill="#00B3BD" rx="1"/><rect width="12" height="5" x="189" y="101" fill="#007DA3" rx="1"/><rect width="12" height="5" x="189" y="121" fill="#00B3BD" rx="1"/><rect width="12" height="5" x="189" y="141" fill="#007DA3" rx="1"/><path fill="#E5E7EB" d="M30 81h146v5H30zm0 20h143.083v5H30zm0 20h130v5H30zm0 20h143.083v5H30z"/></g><g transform="translate(50 310)" mask="url(#b)"><use fill="#000" filter="url(#i)" xlink:href="#j"/><use fill="#FFF" xlink:href="#j"/><path fill="#30405C" d="M32.96 37h1.24v-2.79L36.98 30h-1.41l-1.98 3.1-1.96-3.1h-1.45l2.78 4.24V37zm8.54.12c-2.15 0-3.65-1.63-3.65-3.6v-.02c0-1.97 1.52-3.62 3.67-3.62s3.65 1.63 3.65 3.6v.02c0 1.97-1.52 3.62-3.67 3.62zm.02-1.13c1.39 0 2.36-1.11 2.36-2.47v-.02c0-1.36-.99-2.49-2.38-2.49s-2.36 1.11-2.36 2.47v.02c0 1.36.99 2.49 2.38 2.49zm8.71 1.12c1.83 0 3.01-1.05 3.01-3.14V30h-1.23v4.03c0 1.29-.67 1.95-1.76 1.95-1.1 0-1.77-.7-1.77-2V30h-1.23v4.03c0 2.03 1.16 3.08 2.98 3.08zm5.4-.11v-7h3.12c.88 0 1.57.26 2.02.7.37.38.58.9.58 1.51v.02c0 1.15-.69 1.84-1.67 2.12L61.57 37h-1.45l-1.72-2.44h-1.54V37h-1.23zm1.23-3.53h1.8c.88 0 1.44-.46 1.44-1.17v-.02c0-.75-.54-1.16-1.45-1.16h-1.79v2.35zM67.26 37h4.91v-1.12h-3.68V30h-1.23v7zm6.29 0l3.08-7.05h1.14L80.85 37h-1.3l-.71-1.69h-3.31L74.81 37h-1.26zm2.43-2.78h2.41l-1.21-2.8-1.2 2.8zm9.1 2.88c1.47 0 2.5-.78 2.5-2.09v-.02c0-1.16-.77-1.69-2.25-2.05-1.34-.32-1.66-.56-1.66-1.1v-.02c0-.46.42-.83 1.14-.83.64 0 1.27.25 1.9.72l.66-.93c-.71-.57-1.52-.88-2.54-.88-1.39 0-2.39.83-2.39 2.03v.02c0 1.29.84 1.73 2.33 2.09 1.3.3 1.58.57 1.58 1.07v.02c0 .53-.48.88-1.24.88-.87 0-1.54-.33-2.21-.91l-.74.88c.84.75 1.85 1.12 2.92 1.12zm6.22-.1h1.24v-5.86h2.22V30h-5.68v1.14h2.22V37zm11.61.1c1.47 0 2.5-.78 2.5-2.09v-.02c0-1.16-.77-1.69-2.25-2.05-1.34-.32-1.66-.56-1.66-1.1v-.02c0-.46.42-.83 1.14-.83.64 0 1.27.25 1.9.72l.66-.93c-.71-.57-1.52-.88-2.54-.88-1.39 0-2.39.83-2.39 2.03v.02c0 1.29.84 1.73 2.33 2.09 1.3.3 1.58.57 1.58 1.07v.02c0 .53-.48.88-1.24.88-.87 0-1.54-.33-2.21-.91l-.74.88c.84.75 1.85 1.12 2.92 1.12zm7.9.02c1.31 0 2.11-.48 2.84-1.24l-.79-.8c-.6.56-1.15.91-2.01.91-1.34 0-2.31-1.12-2.31-2.49v-.02c0-1.37.97-2.47 2.31-2.47.8 0 1.4.35 1.96.87l.79-.91c-.67-.64-1.45-1.09-2.74-1.09-2.12 0-3.61 1.63-3.61 3.62v.02c0 2.01 1.52 3.6 3.56 3.6zm4.23-.12l3.08-7.05h1.14l3.08 7.05h-1.3l-.71-1.69h-3.31L116.3 37h-1.26zm2.43-2.78h2.41l-1.21-2.8-1.2 2.8zm6.77 2.78h1.21v-4.98l3.86 4.98h1.03v-7h-1.21v4.84L125.38 30h-1.14v7zm11.05.1c1.47 0 2.5-.78 2.5-2.09v-.02c0-1.16-.77-1.69-2.25-2.05-1.34-.32-1.66-.56-1.66-1.1v-.02c0-.46.42-.83 1.14-.83.64 0 1.27.25 1.9.72l.66-.93c-.71-.57-1.52-.88-2.54-.88-1.39 0-2.39.83-2.39 2.03v.02c0 1.29.84 1.73 2.33 2.09 1.3.3 1.58.57 1.58 1.07v.02c0 .53-.48.88-1.24.88-.87 0-1.54-.33-2.21-.91l-.74.88c.84.75 1.85 1.12 2.92 1.12z"/><path fill="#E5E7EB" d="M30 60h132.116v5H30z"/><rect width="12" height="5" x="189" y="60" fill="#00BD97" rx="1"/><rect width="12" height="5" x="189" y="80" fill="#00BD97" rx="1"/><rect width="12" height="5" x="189" y="100" fill="#007DA3" rx="1"/><rect width="12" height="5" x="189" y="120" fill="#00BD97" rx="1"/><rect width="12" height="5" x="189" y="140" fill="#00BD97" rx="1"/><path fill="#E5E7EB" d="M30 80h144.043v5H30zm0 20h132.116v5H30zm0 20h132.116v5H30zm0 20h132.116v5H30z"/></g><g mask="url(#b)"><g transform="translate(50 79)"><use fill="#000" filter="url(#k)" xlink:href="#l"/><use fill="#FFF" xlink:href="#l"/></g><path fill="#FF9D47" d="M226 154c30.376 0 55 24.624 55 55 0 15.188-6.156 28.938-16.11 38.89L226 209v-55z"/><g transform="translate(161 139)"><circle cx="65" cy="65" r="65" fill="#00B3BD"/><path fill="#043471" d="M0 65C0 29.101 29.101 0 65 0v65H0z"/><path fill="#007DA3" d="M65 0c35.899 0 65 29.101 65 65 0 17.95-7.275 34.2-19.038 45.962L65 65V0z"/><circle cx="65" cy="65" r="45" fill="#FFF"/></g><path fill="#30405C" d="M84.15 117.12c1.31 0 2.11-.48 2.84-1.24l-.79-.8c-.6.56-1.15.91-2.01.91-1.34 0-2.31-1.12-2.31-2.49v-.02c0-1.37.97-2.47 2.31-2.47.8 0 1.4.35 1.96.87l.79-.91c-.67-.64-1.45-1.09-2.74-1.09-2.12 0-3.61 1.63-3.61 3.62v.02c0 2.01 1.52 3.6 3.56 3.6zm4.23-.12l3.08-7.05h1.14l3.08 7.05h-1.3l-.71-1.69h-3.31l-.72 1.69h-1.26zm2.43-2.78h2.41l-1.21-2.8-1.2 2.8zM98.4 117h1.24v-5.86h2.22V110h-5.68v1.14h2.22V117zm3.96 0l3.08-7.05h1.14l3.08 7.05h-1.3l-.71-1.69h-3.31l-.72 1.69h-1.26zm2.43-2.78h2.41l-1.21-2.8-1.2 2.8zm6.77 2.78h4.91v-1.12h-3.68V110h-1.23v7zm9.83.12c-2.15 0-3.65-1.63-3.65-3.6v-.02c0-1.97 1.52-3.62 3.67-3.62s3.65 1.63 3.65 3.6v.02c0 1.97-1.52 3.62-3.67 3.62zm.02-1.13c1.39 0 2.36-1.11 2.36-2.47v-.02c0-1.36-.99-2.49-2.38-2.49s-2.36 1.11-2.36 2.47v.02c0 1.36.99 2.49 2.38 2.49zm9.16 1.13c1.24 0 2.23-.5 2.92-1.09v-2.94h-2.98v1.07h1.79v1.31c-.43.32-1.03.53-1.69.53-1.43 0-2.38-1.06-2.38-2.5v-.02c0-1.34.98-2.47 2.27-2.47.89 0 1.42.29 1.96.75l.78-.93c-.72-.61-1.47-.95-2.69-.95-2.11 0-3.61 1.66-3.61 3.62v.02c0 2.04 1.44 3.6 3.63 3.6z"/><path fill="#E5E7EB" d="M90 154h60v5H90zm0 10h40v5H90zm220 5h60v5h-60zm0 10h30v5h-30zM90 240h60v5H90zm0 10h40v5H90z"/></g></g></svg>