<svg xmlns="http://www.w3.org/2000/svg" viewBox="0 0 426.667 426.667"><path fill="#333" d="M277.333 170.667a21.333 21.333 0 0 0 15.083-6.251L384 72.832V128c0 11.782 9.551 21.333 21.333 21.333s21.333-9.551 21.333-21.333V21.333C426.667 9.551 417.115 0 405.333 0H298.667c-11.782 0-21.333 9.551-21.333 21.333s9.551 21.333 21.333 21.333h55.168l-91.584 91.584c-8.33 8.332-8.328 21.84.005 30.17a21.331 21.331 0 0 0 15.077 6.247zm-256 256H128c11.782 0 21.333-9.551 21.333-21.333S139.782 384 128 384H72.832l91.584-91.584c8.185-8.475 7.95-21.98-.524-30.165-8.267-7.985-21.374-7.985-29.641 0l-91.584 91.584v-55.168c0-11.782-9.551-21.333-21.333-21.333S0 286.885 0 298.667v106.667c0 11.781 9.551 21.333 21.333 21.333z"/></svg>