<svg xmlns="http://www.w3.org/2000/svg" viewBox="0 0 48 43"><path fill="#8D7249" d="M44.663 16.562c.361 0 .54.053.54.227 0 .175-.152.225-.46.225a3.82 3.82 0 0 0-.747.078c-.696.123-.899.55-.952 1.432-.039.615-.048 1.171-.05 3.107V28.5c0 1.085.078 2.29.078 3.547 0 1.432-.101 3.044-.62 4.454-.537 1.534-1.897 3.27-4.363 4.75-.334.2-.746.405-1.284.656-.184.1-.386.149-.514.149-.103 0-.207-.073-.207-.2 0-.126.13-.227.564-.455.336-.176.72-.45 1.236-.953 1.843-1.83 1.922-4.17 1.925-8.581v-9.764c-.001-2.074-.007-2.77-.04-3.366l-.012-.213c-.052-.856-.256-1.259-1.105-1.432-.207-.051-.64-.078-1-.078-.284 0-.439-.05-.439-.225 0-.174.183-.227.567-.227 1.361 0 2.98.075 3.647.075.616 0 2.234-.075 3.236-.075zm-18.427-.666c.237 0 .394.225.654.803.631 1.384 4.826 11.64 6.502 15.46.997 2.264 1.756 2.615 2.308 2.74.392.078.784.101 1.1.101.21 0 .341.025.341.203 0 .206-.236.254-1.207.254-.944 0-2.857 0-4.954-.048-.471-.03-.787-.03-.787-.206 0-.15.105-.203.368-.226.183-.05.367-.278.235-.578l-2.098-5.332c-.05-.126-.129-.174-.26-.174h-5.845c-.13 0-.184.048-.237.2l-1.414 3.594c-.262.63-.393 1.233-.393 1.534 0 .45.236.779 1.048.779h.392c.313 0 .395.052.395.202 0 .207-.156.255-.446.255-.838 0-1.965-.073-2.777-.073-.29 0-1.73.073-3.1.073-.339 0-.497-.048-.497-.255 0-.15.105-.202.314-.202.236 0 .603-.024.812-.05 1.211-.153 1.707-1.003 2.235-2.263l6.58-15.786c.313-.73.468-1.005.73-1.005zm-24.85.193c.215 0 .487.252 1.155.304.78.074 1.802.126 2.687.126h10.64c1.719 0 2.364-.254 2.577-.254.19 0 .216.154.216.531 0 .525-.081 2.261-.081 2.916-.027.25-.08.399-.243.399-.213 0-.268-.124-.296-.502l-.027-.275c-.052-.654-.777-1.356-3.168-1.408l-3.386-.075v11.064c.001 1.984.015 3.658.136 4.62.081.705.24 1.258 1.046 1.36.376.05.967.1 1.371.1.295 0 .428.076.428.202 0 .172-.213.254-.508.254-1.773 0-3.467-.076-4.219-.076-.617 0-2.31.076-3.385.076-.348 0-.536-.082-.536-.254 0-.126.107-.202.43-.202.403 0 .725-.05.965-.1.54-.102.7-.655.781-1.382.119-.942.132-2.614.133-4.598V17.851l-4 .1c-1.56.05-2.203.174-2.606.73-.27.376-.405.678-.459.878-.053.2-.134.301-.296.301-.186 0-.241-.125-.241-.401 0-.402.51-2.69.564-2.891.08-.33.163-.479.323-.479zm24.195 4.96c-.076 0-.132.127-.157.227l-2.412 6.183c-.024.102 0 .177.106.177h4.823c.13 0 .156-.075.13-.153l-2.358-6.207c-.025-.1-.053-.227-.132-.227zM39.104 9.343l1.522.832v4.802l-5.916-3.234 4.394-2.4zm3.985 0l4.395 2.397-5.919 3.236v-4.801l1.524-.832zm-.941 1.012v2.986l1.365-.748-1.365-2.238zm-2.108.005l-1.362 2.233 1.362.746v-2.98zm-.81-.445l-2.728 1.49 1.362.743 1.366-2.233zm3.735-.002l1.361 2.234 1.362-.742-2.723-1.492zm-8.723-5.408l4.394 2.402v1.666l-4.394 2.4V4.505zm13.71-.001v6.47l-4.394-2.4V6.907l4.394-2.404zm-9.775 3.679h-2.73v1.492l2.73-1.492zm8.568 0h-2.732l2.732 1.492V8.183zM35.448 5.805v1.491h2.725l-2.725-1.49zm11.297 0l-2.725 1.49h2.725v-1.49zM40.628.501v4.803l-1.524.832-4.394-2.4L40.628.5zM41.565.5l5.92 3.236-4.396 2.4-1.524-.832V.5zm2.761 2.828l-1.365 2.24 2.73-1.49-1.365-.75zm-6.46 0l-1.365.748 2.73 1.492-1.366-2.24zm4.283-1.19v2.987l1.364-2.237-1.364-.75zm-2.11.003l-1.36.747 1.36 2.232V2.14z"/></svg>