<svg xmlns="http://www.w3.org/2000/svg" viewBox="0 0 156 162"><g fill="none"><path fill="#B5A191" d="M79 1.06c1.51 1.57 3.62 2.9 4.11 5.19l.05 1.15c3.51-.06 4.18 3.81 6.9 5.08.18.12.12.36.12.48a8.66 8.66 0 0 1-1.39.85c-1.51 1.33-2.66 3.2-4.59 4.11-.37.06-.73-.06-1.09.12.24 2.54-2.48 3.57-3.81 5.26a10.63 10.63 0 0 0-1.09 1.75c-.3.18-.54-.06-.66-.36-1.27-2-3.33-3.2-4.54-5.26a2.64 2.64 0 0 1-.3-1.51c-.36-.18-.85.06-1.21-.12-2.54-.73-3.32-3.57-5.56-4.66-.18-.12-.3-.48-.12-.6 2.54-.91 3.69-3.75 6-4.9l1.21-.18a3.51 3.51 0 0 1 .61-2.35c1-1.7 3.5-2.6 4-4.72a.53.53 0 0 1 .78-.3c.36.24.24.66.61 1L79 1.06zm-.85 1.45c-1.27 1.69-3.14 2.54-3.93 4.41a1.44 1.44 0 0 0 .18 1.39l2.78 2.9h.24l.37-3.81.24-.36a.53.53 0 0 1 .6.3A35.39 35.39 0 0 0 79 11a39.9 39.9 0 0 0 3-3.08c.21-.44.21-.95 0-1.39-1-1.57-2.6-2.6-3.87-4l.02-.02zm5.92 6.22c-.54-.24-1 .06-1.51.31l-3.08 3c1.27.18 2.66.18 3.93.3l.3.24c.24.24 0 .48-.18.6-1.21.18-2.48.25-3.69.31l-.18.18a24.44 24.44 0 0 0 3.14 3 1.74 1.74 0 0 0 1.34-.3c1.38-1.09 2.41-2.6 3.8-3.63-.9-1-1.81-2.18-2.78-3.14l-1.09-.85v-.02zm-11.54.06c-1.69 1.09-2.78 2.91-4.41 4.05.78 1.09 2 2 2.84 3.09.6.48 1.33 1.08 2.12.66a26.61 26.61 0 0 0 3.2-3.08l-3.09-.13-.42-.24a.46.46 0 0 1 .12-.54 36.4 36.4 0 0 0 3.81-.54l-2.6-2.91a1.66 1.66 0 0 0-1.57-.36zm4.89 5.32l-.06-.06-3.32 3-.18.61c.54 2.36 2.78 3.2 4.05 5 1-1.33 2.54-2.11 3.57-3.38 1.39-2.3-1.46-3.57-2.48-5a17.59 17.59 0 0 0-.31 4l-.24.24c-.24.06-.54.06-.66-.18l-.37-4.35v.12zm13.82-.48a22.1 22.1 0 0 0 6.29 6c.29.48-.43.67-.43 1.09 2.06.06 2.9 1.87 4.23 3.08a3.52 3.52 0 0 1 .18 3.21c-1.09 1.69-3.08 3-4.17 4.53-.12.18-.12.54-.42.54s-.54-.36-.79-.54a6.6 6.6 0 0 1-.9 2.11c-1.39 1.58-3.33 2.42-4 4.42a.55.55 0 0 1-.67.06c-1-2.54-4.59-3.27-4.59-6.29l-.06-.12c-.37.18-.42.54-.85.48-.43-.06-.24-.6-.42-.9-1.15-1.82-3-2.72-4.17-4.42A2.57 2.57 0 0 1 80.3 25l.6-.91L84.1 21c.31-.3.79-.18 1-.36-.12-.3-.42-.37-.3-.73a20.34 20.34 0 0 0 5.62-5.74c.12-.3.36-.72.79-.54h.03zm.6 3.2l-.18 3.44 5.08 5.08c.18.18.18.55-.07.61a.56.56 0 0 1-.54-.06c-1.51-1.21-2.9-2.66-4.47-3.87l-.12 3.87L94 28.5a.43.43 0 0 1 0 .5c-1.08-.06-1.63-1.21-2.41-1.57a28.17 28.17 0 0 0-.06 3.2l-.18.31a.42.42 0 0 1-.55-.25 29.86 29.86 0 0 0-.24-3.38l-1.93 1.81-.37.12a.52.52 0 0 1-.3-.54c.85-1 1.82-1.88 2.6-2.9-.12-1.27 0-2.66-.18-3.93l-4.71 4.53-.36.06a.42.42 0 0 1-.25-.66l5.32-5.62-.12-3-.12-.12a38 38 0 0 1-3.51 3.45c.24.36.55.54.67 1 .06.24-.18.42-.37.48-2-.61-3 1.51-4.29 2.6-.36.36-.84.78-.72 1.45.9 1.87 2.9 2.6 3.81 4.53.48-.3.9-1.21 1.63-.79.18 1-.61 2.24.42 3a39 39 0 0 0 3.08 2.9c1.15-1.27 2.78-1.81 3.63-3.39.36-.9-.3-1.93.36-2.66.67-.24.91.61 1.45.91 1.09-1.33 2.54-2.6 3.87-4l.3-.78c.06-1-.84-1.52-1.45-2.24-.61-.72-1.44-1.52-2.46-1.52-.54-.12-1.15.48-1.7 0 0-.85.85-1.09 1-1.81a15.63 15.63 0 0 1-4-3.39l-.02.03zM75.3 24c-1.15-1.27-2.84-2.29-3.5-3.87-.25-.3-.19-1-.73-1s-.36.72-.61 1a41 41 0 0 1-4.29 3.8 1.46 1.46 0 0 1 .55-1c1.21-1.51 3.44-2.54 2.66-4.84-.18-.3-.24-.85-.67-.9l-.24.18c.15 2.05-1.94 4.35-2.84 5.38-.12.14 0-.31 0-.43a5.44 5.44 0 0 0 1.63-5.38 8.12 8.12 0 0 0-1.87-3.26s-.17-.22-.31-.22c-.14 0-.29.19-.32.22a8.12 8.12 0 0 0-1.87 3.26 5.46 5.46 0 0 0 1.63 5.38c0 .12.13.57 0 .43-.89-1-3-3.33-2.84-5.38l-.24-.18c-.42.05-.48.6-.67.9-.78 2.3 1.46 3.33 2.66 4.84.311.245.51.606.55 1a43.13 43.13 0 0 1-4.29-3.8c-.24-.31-.12-1-.61-1s-.48.66-.72 1c-.67 1.58-2.36 2.6-3.51 3.87a3.08 3.08 0 0 0-.48 3c1 2 3.5 3.14 4.53 5.31.55.19.67-.36 1.09-.36a2 2 0 0 0 .48 1.51c1.15 1.39 2.72 2.48 3.87 3.87.25.29.28.73.5 1 0 0 .16.15.24.12.08-.03.23-.12.23-.12.22-.24.25-.68.5-1 1.15-1.39 2.72-2.48 3.87-3.87a2 2 0 0 0 .48-1.51c.43 0 .55.55 1.09.36 1-2.17 3.51-3.26 4.53-5.31a3 3 0 0 0-.48-3zm-10.9 5.87h-.18l-4.59-4.18a.41.41 0 0 0-.43.31l.12.36c1.64 1.87 3.39 3.57 5 5.38l-.06 3.14-.06.06-2.78-2.47c-.54-.67-.24-1.58-.12-2.36-.73-.73-1.09.6-1.69.78-.67-.66-1.09-1.51-1.82-2.17-.72-1.15-2.66-1.63-2.29-3.27 1-1.45 2.54-2.35 3.62-3.74 1.7 1.63 3.69 3 5.08 4.95a9.38 9.38 0 0 1 .2 3.23v-.02zm.18-14.39a.53.53 0 0 1 1 0c.58 1.27 1.3 3.81-.49 5.16-1.81-1.33-1.09-3.87-.51-5.14v-.02zm7.76 13.24c-.73.66-1.15 1.51-1.81 2.17-.61-.18-1-1.51-1.7-.78.12.78.43 1.69-.12 2.36L65.93 35l-.06-.06-.06-3.14c1.63-1.81 3.39-3.51 5-5.38L71 26a.41.41 0 0 0-.42-.31l-4.6 4.18h-.18a9.38 9.38 0 0 1 .18-3.21c1.39-1.93 3.38-3.32 5.08-4.95 1.09 1.39 2.66 2.29 3.63 3.74.31 1.66-1.63 2.14-2.35 3.29v-.02zm6.32-.95l.12 3.87h.07L80.6 30a.5.5 0 0 1 .6.36c.18.24 0 .48-.12.66l-2.36 2.48c.06.3-.06.73.13 1 1-.85 2-2.06 3-2.9a.61.61 0 0 1 .72.3l-.12.54-3.69 3.75v2.24a11 11 0 0 0 2 .06c1.39-1.21 2.54-2.54 4.05-3.87.3 0 .43.3.54.42l-.06.43c-.9 1-1.93 1.93-2.78 2.9 1.76.78 2.54-1.58 3.75-2.18.24 0 .54.12.54.36-.12.79-1.08 1.15-1.38 1.82v.06l3.8.12a.83.83 0 0 1 .18.84l-.24.19-3.5.12-.06.06 1.45 1.63a.62.62 0 0 1-.37.72h-.48l-2.54-2.47-1 .06.07.18 3.14 3.2c-.12.36-.55.42-.85.55l-.54-.37-3.57-3.56h-2a6.48 6.48 0 0 0-.13 1.93l4.05 4.11a.68.68 0 0 1-.42.61l-.54-.06-3-2.91c-.25.25-.13.73-.13 1.09l2.54 2.6a.59.59 0 0 1-.42.6h-.42l-1.57-1.57-.13.06-.06 4.17a.74.74 0 0 1-.9.25l-.24-.31-.06-3.92h-.19L75.46 48c-.3.12-.6-.18-.66-.42l.12-.37 2.6-2.72c-.07-.36.12-.9-.13-1.15L74 46.57c-.3 0-.61-.06-.67-.37l.06-.42 4-4a5.41 5.41 0 0 0 .06-2c-.74-.08-1.486-.1-2.23-.06l-3.93 3.93c-.18 0-.48.17-.6-.06s-.31-.43-.13-.67a36.7 36.7 0 0 0 3-3.08c-.25-.24-.73-.06-1.09-.06l-2.66 2.54a.66.66 0 0 1-.79-.31l.12-.48a13.87 13.87 0 0 0 1.58-1.75l-4.12-.06a.52.52 0 0 1-.24-.73c.07-.3.37-.36.61-.48h4v-.18l-1.82-1.94c-.12-.24.13-.42.31-.6l.48.06 2.72 2.66h1.15l-.12-.3L70.56 35c-.12-.24.13-.48.31-.6h.48l4.17 4.11h1.81l.19-.3-.13-1.88-3.87-3.93a.75.75 0 0 1 .37-.9l.54.06 2.9 2.9c.19-.24.12-.73.06-1.09l-2.59-2.6c-.06-.36.18-.6.48-.78l.36.06 1.63 1.51.12-.06v-3.67a1 1 0 0 1 .43-.42.73.73 0 0 1 .84.36z"/><path fill="#323232" d="M40.51 130.35h-3.19v-.64c.31 0 1.42 0 1.42-.47s-.56-.86-.8-1.15c-1.06-1.17-2.13-2.3-3.19-3.48-.25-.26-.82-1-1.18-1.09a.65.65 0 0 0-.2 0 5.72 5.72 0 0 0-.59 0V128a2 2 0 0 0 .22 1.13c.37.51 1.31.56 1.9.6v.64h-6.36v-.64c.53-.07 1.49 0 1.84-.47a4.71 4.71 0 0 0 .22-2v-5.45c0-.84.11-4.39-.29-4.88-.4-.49-1.42-.35-1.93-.42v-.64H35v.64c-.56.05-1.33-.09-1.8.27s-.31 1.55-.33 2.06v4.12H33c1.07 0 1.78-1 2.44-1.73.66-.73 3.06-3.21 3.06-4.05 0-.65-1.15-.6-1.6-.67v-.64h5.72v.64c-2 .11-1.92.27-3.28 1.58-.68.66-1.33 1.44-2 2.12-.67.68-1.27 1.45-1.93 2.16.75.73 1.46 1.55 2.17 2.32l2.93 3.13a15.12 15.12 0 0 0 1.7 1.62c.357.196.753.31 1.16.33v.64c-.97-.06-1.91-.06-2.86-.06zm8.02.33a4.67 4.67 0 0 1-4.46-4.7 5.89 5.89 0 0 1 1.6-4.21 4.4 4.4 0 0 1 3-1.29 3.63 3.63 0 0 1 3.73 3.44c-2.18.09-4.33.18-6.5.18-.02.22-.02.44 0 .66v.33a3.87 3.87 0 0 0 3.74 4.06 4 4 0 0 0 2.66-1.44l.33.29a5.15 5.15 0 0 1-4.1 2.68zm1.53-8.65a1.9 1.9 0 0 0-1.8-1c-1.31 0-2.06 1.42-2.26 2.55 1.47 0 2.939-.12 4.39-.36a2.58 2.58 0 0 0-.33-1.22v.03zm15.82 8.36v-.55c.42 0 1.35-.07 1.64-.42a2.55 2.55 0 0 0 .24-1.29c0-1 .13-1.95.13-2.93a6.31 6.31 0 0 0-.33-2.32 2.2 2.2 0 0 0-2-1.09 4 4 0 0 0-2.31.87c.042.271.059.546.05.82v5.25c-.009.231.04.461.14.67.2.39 1.15.42 1.53.44v.55h-5.24v-.55c.4 0 1.45-.05 1.65-.47a15.44 15.44 0 0 0 .17-2.86v-2.06a5.79 5.79 0 0 0-.18-1.66 2.17 2.17 0 0 0-2-1.11 4.11 4.11 0 0 0-2.33.86c-.06.05-.11.07-.11.18v5.72a2.09 2.09 0 0 0 .14.93c.26.47 1.17.45 1.64.49v.53h-5.26v-.55c1.35-.09 1.64 0 1.64-1.46v-6.17a10 10 0 0 0-1.51-.66v-.29l3.37-1.26v2.12c.47-.26.87-.64 1.31-.93a4.27 4.27 0 0 1 2.42-.95 2.82 2.82 0 0 1 2.06 1.22c.173.262.315.544.42.84 1.2-.86 2.06-2 3.68-2a3 3 0 0 1 2.08 1.24 4.74 4.74 0 0 1 .82 3c0 1.33-.17 2.68-.17 4 0 1.32.62 1.09 1.68 1.22v.55l-5.37.08zm10.66-.09h-.58a3.58 3.58 0 0 1-.86-.05v3.99c.09 1.07 1.15.8 1.88.93v.56h-5.41v-.53c.8-.07 1.73-.09 1.73-1.14v-11.85a8.75 8.75 0 0 0-1.5-.66v-.29c1.08-.44 2.15-.89 3.25-1.26v1.81c.88-.53 2-1.39 3.06-1.39a4.55 4.55 0 0 1 3.32 1.66 5.25 5.25 0 0 1 1 2.95c.05 3.12-2.96 5.16-5.89 5.27zm1.73-8.33a3.3 3.3 0 0 0-1.22-.29 3.34 3.34 0 0 0-2 .71v5.74a2.94 2.94 0 0 0 2.55 1.55 2.32 2.32 0 0 0 1.15-.33 4.26 4.26 0 0 0 1.82-3.77 3.69 3.69 0 0 0-2.3-3.58v-.03zm8.38 8.38H83.25v-.55c1.71-.16 1.78-.16 1.78-2v-5.26a.23.23 0 0 0-.07-.2c-.29-.15-1.15-.53-1.48-.68v-.23l3.37-1.33v7.9c0 1.71.15 1.68 1.79 1.84v.55c-.64-.02-1.33-.04-1.99-.04zm-.8-11.88a1.14 1.14 0 1 1 .02-2.28 1.14 1.14 0 0 1-.02 2.28zm10.22 11.92v-.55c.43 0 1.38-.07 1.67-.42a2.55 2.55 0 0 0 .24-1.29c.05-1 .11-2 .11-3a5.92 5.92 0 0 0-.33-2.32 2.2 2.2 0 0 0-2-1.09 3.73 3.73 0 0 0-2.31.91c-.11.09-.11.15-.11.29-.09 1.77 0 3.59 0 5.36 0 1.53.44 1.42 1.73 1.6v.55h-5.28v-.55c.51-.05 1.42 0 1.62-.64.09-.31.07-2.42.07-2.84v-4.15c-.49-.26-1-.44-1.51-.66v-.29l3.37-1.26v2.12c.47-.26.86-.68 1.31-1a4.19 4.19 0 0 1 2.39-.91 3 3 0 0 1 2 1.22 4.74 4.74 0 0 1 .82 3c0 1.37-.18 2.74-.18 4.12s.63 1.09 1.69 1.22v.55l-5.3.03zm12.08-.57a4.09 4.09 0 0 1-2.55.86 10 10 0 0 1-2.43-.33c-.12-.82-.25-1.66-.36-2.48l.6-.14c.53 1 .93 2.42 2.31 2.42a1.66 1.66 0 0 0 1.79-1.55c0-2.71-4.59-2.35-4.59-5.46a3 3 0 0 1 3.17-2.7 9.25 9.25 0 0 1 1.89.26h.15a1.25 1.25 0 0 0 .51-.14c.16.82.29 1.67.38 2.51l-.56.13c-.44-1-1.17-2.26-2.43-2.26a1.46 1.46 0 0 0-1.62 1.55c0 .93.57 1.24 1.26 1.69 1.42.95 3.39 1.53 3.39 3.61a3.27 3.27 0 0 1-.91 2.03zm2.07.57v-.55c.44 0 1.33.09 1.46-.47a7 7 0 0 0 .11-1.53c0-3 .07-5.85.07-8.8v-3.17a11.85 11.85 0 0 0-1.37-.71V115c1.06-.49 2.15-1 3.24-1.44v.22c0 1.31 0 2.59-.07 3.9 0 3.08-.09 6.19-.09 9.27v1.46c0 1.42.38 1.4 1.6 1.46v.51l-4.95.01zm5.91 0v-.51c.34 0 1.22 0 1.22-.46s-2.48-2.91-2.92-3.33l-.87-.77a14.25 14.25 0 0 0 2.55-2c.25-.25 1.13-1.13 1.13-1.46 0-.33-.91-.54-1.22-.56v-.55h4.59v.55a4.19 4.19 0 0 0-2.57 1.09c-.93.73-1.82 1.53-2.73 2.28 1.14 1.22 2.24 2.44 3.42 3.61.42.43.86.91 1.33 1.31.29.208.645.303 1 .27v.55l-4.93-.02zm9.42-.04h-3.39v-.55c1.71-.16 1.78-.16 1.78-2v-5.26a.23.23 0 0 0-.07-.2c-.29-.15-1.15-.53-1.49-.68v-.23l3.37-1.33v7.9c0 1.71.16 1.68 1.8 1.84v.55c-.67-.02-1.33-.04-2-.04zm-.79-11.88a1.14 1.14 0 1 1 1.15-1.13 1.15 1.15 0 0 1-1.15 1.13zM51.27 157v4.83h-1.21v-6.51h1.58l1.6 2.47 1.6-2.47h1.58v6.51H55.2V157l-2 3zM62.06 162a2.46 2.46 0 0 1-2.63-2.57v-4.11h1.22v4.07a1.36 1.36 0 0 0 1.41 1.49 1.34 1.34 0 0 0 1.41-1.49v-4.07h1.22v4.11a2.48 2.48 0 0 1-2.63 2.57zm-1.45-7.66a.6.6 0 0 1 1.19 0 .6.6 0 0 1-1.19 0zm1.72 0a.59.59 0 1 1 1.18 0 .59.59 0 0 1-1.18 0zM68.92 157v4.83H67.7v-6.51h1.58l3 4.68v-4.68h1.2v6.51H72zM82 160.09a3 3 0 0 1-2.8 1.91c-1.73 0-3.06-1.26-3.06-3.44a3.1 3.1 0 0 1 3.1-3.41 2.58 2.58 0 0 1 2.62 1.84l-1.18.4a1.34 1.34 0 0 0-1.4-1.11c-1.07 0-1.81.86-1.81 2.26s.78 2.33 1.82 2.33a1.7 1.7 0 0 0 1.53-1.17l1.18.39zM88.69 155.32h1.22v6.51h-1.22V159h-2.94v2.84h-1.22v-6.51h1.22v2.59h2.94zM94.2 156.41v1.52h3V159h-3v1.74h3.29v1.08H93v-6.51h4.35v1.09zM101.41 157v4.83h-1.22v-6.51h1.58l3 4.68v-4.68h1.21v6.51h-1.5zM33.46 144.39h89.08v1H33.46zM14.11 92.73a8.18 8.18 0 0 0-1.44 2.46c-.62 1.37-1.24 2.7-1.86 4.08-.62 1.38-1.17 2.59-1.71 3.9a16.93 16.93 0 0 0-.59 1.6c-.18.57-.34 1.15-.49 1.72h-.76c-1.37-3.79-2.85-7.53-4.34-11.28a10.66 10.66 0 0 0-.93-2.13 2.68 2.68 0 0 0-2-.75v-.64h7.12v.64c-.91.09-2.26.11-2.26 1.35.007.235.051.468.13.69.35 1.08.8 2.13 1.2 3.19.71 1.86 1.44 3.7 2.17 5.56C9 101.35 12 95 12 93.61v-.15c-.11-.87-1.38-1.09-2.09-1.13v-.64h5.58v.64a2.8 2.8 0 0 0-1.38.4zm5.23 13.45h-3.39v-.56c1.71-.15 1.77-.15 1.77-2v-5.25c0-.07 0-.16-.06-.2-.29-.16-1.16-.53-1.49-.69v-.22L19.54 96v7.8c0 1.71.15 1.69 1.8 1.84v.56c-.67.01-1.34-.02-2-.02zm-.8-11.88a1.13 1.13 0 1 1 1.15-1.13 1.14 1.14 0 0 1-1.15 1.13zm8.08 12.22a4.67 4.67 0 0 1-4.46-4.7 5.91 5.91 0 0 1 1.6-4.22 4.44 4.44 0 0 1 3-1.28 3.62 3.62 0 0 1 3.72 3.44c-2.17.08-4.32.17-6.49.17a3 3 0 0 0 0 .67v.33a3.87 3.87 0 0 0 3.69 4.07 4 4 0 0 0 2.66-1.44l.33.28a5.14 5.14 0 0 1-4.05 2.68zm1.53-8.65a1.89 1.89 0 0 0-1.8-1c-1.31 0-2.06 1.42-2.26 2.55a26.89 26.89 0 0 0 4.39-.35 2.58 2.58 0 0 0-.33-1.2zm10.37.8a5.17 5.17 0 0 0-1.84-.76 1.78 1.78 0 0 0-1.59 1.67v4.74a1.45 1.45 0 0 0 .2.82c.28.45 1.46.49 1.95.53v.56h-5.7v-.56c.84 0 1.71 0 1.71-1.13v-6.4a12.63 12.63 0 0 0-1.51-.67v-.29c1.08-.42 2.24-.79 3.32-1.22v2.35l.87-1a2.59 2.59 0 0 1 1.88-1.15 2.31 2.31 0 0 1 1.51 1c-.24.51-.51 1.02-.8 1.51zM50.39 93a8.44 8.44 0 0 0-.11 1.84c0 2.71 0 5.41-.07 8.12a10.54 10.54 0 0 1-1.77 5.72 8.19 8.19 0 0 1-1.89 2.3 3.69 3.69 0 0 1-1.59.8c-.22-.69-.42-1.35-.65-2 .273.02.547.02.82 0 3 0 3.06-2 3.06-4.39V94.4c0-1.91-.35-1.89-2.11-2v-.64h6.12v.64c-.64-.01-1.52-.09-1.81.6zm9.39 13.47c-.62 0-.93-1-1.11-1.48a12.41 12.41 0 0 1-3.9 1.5c-1 0-1.13-1.26-1.13-2 0-1 .11-1.64 1.13-2.11 1.02-.47 2.71-.84 3.9-1.24v-1.62c0-1.15-.34-2.24-2-2.24a1.4 1.4 0 0 0-1.42.71 4.5 4.5 0 0 0-.18 1.33H53.3a.86.86 0 0 1 .31-.8 15.93 15.93 0 0 1 2.46-1.84 3.92 3.92 0 0 1 1.69-.58 2.74 2.74 0 0 1 2.66 2.84v4.52c0 .58-.14 1.58.71 1.58a2.64 2.64 0 0 0 1.06-.4l.2.33a7.49 7.49 0 0 1-2.61 1.5zm-1.11-4.79c-.82.2-2.66.6-3.19 1.36a1.44 1.44 0 0 0 1.07 2.26 5 5 0 0 0 2.12-.87v-2.75zm10.8 4.55v-.56c.37 0 1.28 0 1.48-.39a13.58 13.58 0 0 0 .29-3.24c0-1.82.2-4.46-2.35-4.46a4.76 4.76 0 0 0-2.26.89v5.67c0 1.67.35 1.36 1.71 1.53v.56h-5.06v-.56c.44 0 1.42 0 1.55-.57a5 5 0 0 0 0-1.16V91.69a10.69 10.69 0 0 0-1.4-.69v-.16l3.24-1.44v.16c0 2.55-.09 5.12-.09 7.67V98c1.2-.87 1.82-1.69 3.44-1.69a2.85 2.85 0 0 1 1.86.85c1.13 1.13 1.11 2.48 1.11 4 0 1.15-.13 2.28-.13 3.41 0 1.29.62 1 1.61 1.15v.56l-5-.05zm13.25-7.56a5.17 5.17 0 0 0-1.84-.76 1.79 1.79 0 0 0-1.6 1.67v4.74c-.011.287.058.57.2.82.29.45 1.47.49 2 .53v.56h-5.7v-.56c.84 0 1.71 0 1.71-1.13v-6.4a12.63 12.63 0 0 0-1.51-.67v-.29c1.08-.42 2.24-.79 3.32-1.22v2.35l.87-1a2.59 2.59 0 0 1 1.88-1.15 2.31 2.31 0 0 1 1.51 1c-.28.51-.56 1.02-.84 1.51zm5.85 7.85a4.67 4.67 0 0 1-4.46-4.7 5.91 5.91 0 0 1 1.6-4.22 4.46 4.46 0 0 1 3-1.28 3.62 3.62 0 0 1 3.73 3.44c-2.18.08-4.33.17-6.5.17a3.77 3.77 0 0 0 0 .67v.33a3.87 3.87 0 0 0 3.74 4.06 4 4 0 0 0 2.66-1.44l.34.28a5.17 5.17 0 0 1-4.11 2.69zm1.53-8.65a1.89 1.89 0 0 0-1.8-1c-1.3 0-2.06 1.42-2.26 2.55a26.8 26.8 0 0 0 4.39-.35 2.58 2.58 0 0 0-.33-1.2zm9.48 7.78a4.06 4.06 0 0 1-2.55.87 10.11 10.11 0 0 1-2.44-.34c-.11-.82-.24-1.66-.35-2.48l.6-.13c.53 1 .93 2.41 2.3 2.41a1.66 1.66 0 0 0 1.8-1.55c0-2.7-4.59-2.35-4.59-5.45a3 3 0 0 1 3.17-2.71 9.07 9.07 0 0 1 1.88.27h.16a1.28 1.28 0 0 0 .51-.13c.16.82.29 1.66.38 2.5l-.56.14c-.44-1-1.17-2.26-2.44-2.26a1.46 1.46 0 0 0-1.62 1.55c0 .93.58 1.24 1.27 1.68 1.42 1 3.39 1.53 3.39 3.62a3.22 3.22 0 0 1-.91 2.01zm10.49.6h-8L102 106a6 6 0 0 0 .76-1c1.77-2.61 3.54-5.21 5.27-7.84h-1c-.91 0-2.84.13-3.53.73a2.84 2.84 0 0 0-.66 1.53h-.51c.09-1 .22-2.06.37-3.08l.23-.09c.26.4.84.42 1.26.45h6.08l.07.28c-2 2.86-3.88 5.79-5.77 8.72h2.4c2.37-.16 2.37-.74 3.28-2.55l.53.06-.71 3.04zm6.54.27a4.68 4.68 0 0 1-4.46-4.7 5.91 5.91 0 0 1 1.6-4.22 4.46 4.46 0 0 1 3-1.28 3.62 3.62 0 0 1 3.73 3.44c-2.17.08-4.33.17-6.5.17a3.77 3.77 0 0 0 0 .67v.33a3.87 3.87 0 0 0 3.74 4.06 4 4 0 0 0 2.66-1.44l.34.28a5.17 5.17 0 0 1-4.11 2.69zm1.53-8.65a1.89 1.89 0 0 0-1.8-1c-1.3 0-2.06 1.42-2.26 2.55a26.8 26.8 0 0 0 4.39-.35 2.58 2.58 0 0 0-.33-1.2zm6.76 8.31h-3.38v-.56c1.71-.15 1.77-.15 1.77-2v-5.25c0-.07 0-.16-.06-.2-.29-.16-1.16-.53-1.49-.69v-.22L125.1 96v7.8c0 1.71.16 1.69 1.8 1.84v.56c-.67.01-1.33-.02-2-.02zm-.8-11.88a1.13 1.13 0 1 1 1.16-1.13 1.14 1.14 0 0 1-1.16 1.13zm9.67 3.3h-3.1v5.72c0 1.09.36 2 1.6 2a2.58 2.58 0 0 0 1.68-.62l.22.36a4.36 4.36 0 0 1-3.12 1.44c-1.62 0-2.31-1-2.31-2.51 0-2.1.09-4.3.11-6.41h-1.33v-.15c1.09-1 2.15-1.91 3.26-2.84v2h3.48l-.49 1.01zm5.71 8.92a4.67 4.67 0 0 1-4.46-4.7 5.91 5.91 0 0 1 1.6-4.22 4.44 4.44 0 0 1 3-1.28 3.63 3.63 0 0 1 3.73 3.44c-2.18.08-4.33.17-6.5.17a3.77 3.77 0 0 0 0 .67v.33a3.87 3.87 0 0 0 3.74 4.06 4 4 0 0 0 2.66-1.44l.34.28a5.17 5.17 0 0 1-4.11 2.69zm1.53-8.65a1.89 1.89 0 0 0-1.8-1c-1.31 0-2.06 1.42-2.26 2.55a26.8 26.8 0 0 0 4.39-.35 2.58 2.58 0 0 0-.34-1.2h.01zm9.65 8.36v-.56c.42 0 1.38-.06 1.67-.42.19-.398.273-.84.24-1.28 0-1 .11-2 .11-3a5.94 5.94 0 0 0-.33-2.33 2.21 2.21 0 0 0-2-1.08 3.72 3.72 0 0 0-2.31.9.3.3 0 0 0-.11.29c-.09 1.78 0 3.59 0 5.37 0 1.53.44 1.42 1.73 1.59v.56h-5.28v-.56c.51 0 1.42 0 1.62-.64.09-.31.07-2.42.07-2.84v-4.14c-.49-.27-1-.45-1.51-.67v-.29l3.37-1.26V98c.47-.27.86-.69 1.31-1a4.19 4.19 0 0 1 2.39-.91 3 3 0 0 1 2 1.22 4.75 4.75 0 0 1 .82 3c0 1.38-.18 2.75-.18 4.12s.63 1.09 1.69 1.22v.56l-5.3.02zM62.25 82.06v-.66c.71-.05 1.69.07 2.19-.51a7.51 7.51 0 0 0 .31-2.68V74.9h-8.22v4.57c0 2 .79 1.88 2.43 1.93v.66H52.2v-.66c.6-.05 1.51 0 1.89-.58a5.06 5.06 0 0 0 .26-2.17c0-2.88.07-5.83.07-8.71 0-1.78-.73-1.67-2.2-1.78v-.64h6.65v.64a4 4 0 0 0-1.75.29c-.51.31-.48.76-.48 1.29 0 1.44 0 2.9-.07 4.34h8.22c0-1.22.05-2.41.05-3.63 0-2.22-.31-2.22-2.4-2.29v-.64h6.72v.64c-.58 0-1.62 0-2 .51A8.38 8.38 0 0 0 67 71.2c0 2.59-.07 5.26-.07 7.85a4.48 4.48 0 0 0 .25 1.91c.44.53 1.37.37 2 .44v.66h-6.93zm16.9-1.39a5.8 5.8 0 0 1-3.81 1.68 5.19 5.19 0 0 1-5.19-5.23c0-2.62 2.68-4.94 5.23-4.94a5.85 5.85 0 0 1 3.37 1.24 4.83 4.83 0 0 1 1.84 3.75 5.17 5.17 0 0 1-1.44 3.5zm-1.53-6.54a2.77 2.77 0 0 0-2.24-1.33 2.48 2.48 0 0 0-1.37.42 4.45 4.45 0 0 0-1.75 3.9c0 1.88 1 4.61 3.28 4.61 2.06 0 3-2.75 3-4.43a5.7 5.7 0 0 0-.92-3.17zM88 73.44h-3.11v5.72c0 1.09.36 2 1.6 2a2.56 2.56 0 0 0 1.68-.62l.23.35a4.36 4.36 0 0 1-3.13 1.44c-1.62 0-2.31-1-2.31-2.5 0-2.11.09-4.3.11-6.41H81.7v-.15c1.09-1 2.15-1.91 3.26-2.84v2h3.48L88 73.44zm5.66 8.91a4.67 4.67 0 0 1-4.46-4.7 5.89 5.89 0 0 1 1.6-4.21 4.46 4.46 0 0 1 3-1.28 3.61 3.61 0 0 1 3.73 3.43c-2.18.09-4.33.18-6.5.18-.02.22-.02.44 0 .66v.34a3.87 3.87 0 0 0 3.74 4 4 4 0 0 0 2.66-1.44l.34.29a5.18 5.18 0 0 1-4.11 2.73zm1.53-8.64a1.89 1.89 0 0 0-1.8-1c-1.3 0-2.06 1.42-2.26 2.55a25.75 25.75 0 0 0 4.39-.36 2.51 2.51 0 0 0-.33-1.19zm3.19 8.35v-.55c.47 0 1.36 0 1.6-.49a6 6 0 0 0 .13-1.71V69.14v-1.66c-.44-.2-.88-.45-1.33-.65v-.15c1.09-.44 2.15-1 3.24-1.44v.22c0 4.52-.13 9.07-.13 13.59a9.49 9.49 0 0 0 .13 2c.24.53 1.33.49 1.84.51v.55l-5.48-.05z"/></g></svg>