<svg viewBox="0 0 141 67" xmlns="http://www.w3.org/2000/svg" xmlns:xlink="http://www.w3.org/1999/xlink"><defs><path id="a" d="M0 .23h56.084V67H0z"/></defs><g fill="none" fill-rule="evenodd"><g transform="translate(0 -.23)"><mask id="b" fill="#fff"><use xlink:href="#a"/></mask><path d="M40.826 44.423c-3.28-.301-6.704-1.23-8.258-2.116 4-2.554 9.192-7.518 9.192-13.559-.01-7.571-6.148-13.704-13.718-13.712-7.559 0-13.707 6.328-13.707 14.106 0 6.488 3.437 11.581 10.215 15.135 4.434 2.326 11.05 4.032 18.042 4.929-1.162 1.732-4.265 4.691-6.078 5.696-8.373-1.368-15.718-4.272-20.749-8.616C10.39 41.642 7.55 35.579 7.55 28.745 7.19 17.428 16.075 7.964 27.392 7.606c11.318-.359 20.783 8.526 21.14 19.843a20 20 0 0 1 0 1.296 19.803 19.803 0 0 1-7.706 15.678M55.477 10S46.298.23 28.037.23C9.777.23.605 10 .605 10S-.454 17.231.23 31.791C1.241 53.787 28.044 67 28.046 67c.003 0 26.805-13.213 27.817-35.209.665-14.56-.386-21.791-.386-21.791" fill="#E52823" mask="url(#b)"/></g><path d="M75.01 47.809c-5.454 0-9.977-1.771-14.234-5.573l-.276-.245 2.887-3.416.29.262c3.726 3.368 7.052 4.743 11.48 4.743 4.268 0 7.25-2.237 7.25-5.44v-.098c0-2.8-1.372-4.608-8.6-6.132-7.077-1.538-11.79-3.87-11.79-10.247v-.097c0-5.631 4.89-9.718 11.625-9.718 4.852 0 8.52 1.283 12.265 4.288l.286.23-2.707 3.59-.305-.25c-3.038-2.475-6.1-3.63-9.637-3.63-4.067 0-6.907 2.117-6.907 5.147v.098c0 2.887 1.39 4.65 8.99 6.279 8.025 1.749 11.447 4.755 11.447 10.052v.097c0 5.923-4.96 10.06-12.063 10.06M108.257 47.906c-10 0-17.54-7.73-17.54-17.98v-.098c0-10.137 7.769-18.078 17.687-18.078 6.803 0 10.56 2.658 13.608 5.53l.273.258-3.157 3.39-.277-.262c-3.39-3.217-6.53-4.59-10.495-4.59-7.34 0-12.872 5.87-12.872 13.654v.098c0 7.711 5.653 13.751 12.872 13.751 4.754 0 7.75-1.932 10.788-4.833l.264-.253 3.076 3.016-.267.27c-2.988 3.03-6.984 6.127-13.96 6.127" fill="#E52823"/><path d="M125.796 44.626l3.208-2.828c1.35-1.213 1.844-1.895 1.844-2.778 0-1.036-.822-1.693-1.781-1.693-1.01 0-1.667.53-2.375 1.516l-.732-.53c.796-1.188 1.629-1.882 3.183-1.882 1.59 0 2.74 1.06 2.74 2.5v.025c0 1.288-.682 2.084-2.235 3.435l-2.362 2.096h4.685v.91h-6.175v-.77zM139.965 41.002v-.025c0-1.932-1.061-3.663-2.703-3.663-1.653 0-2.69 1.693-2.69 3.637v.026c0 1.932 1.06 3.662 2.715 3.662 1.655 0 2.678-1.705 2.678-3.637m-6.428 0v-.025c0-2.475 1.478-4.572 3.75-4.572 2.274 0 3.713 2.072 3.713 4.546v.026c0 2.475-1.465 4.571-3.738 4.571-2.285 0-3.725-2.07-3.725-4.546" fill="#ED2E26"/></g></svg>