<svg width="266" height="67" viewBox="0 0 266 67" xmlns="http://www.w3.org/2000/svg"><g fill="none" fill-rule="evenodd"><text font-family="Gotham-Medium, Gotham" font-size="15" font-weight="400" letter-spacing="-.142" fill="#ED2E26"><tspan x="121" y="64">Apr 16, 2020</tspan></text><g fill-rule="nonzero"><path d="M23.535 6.294c-9.7.304-17.31 8.389-16.998 18.045 0 5.832 2.433 11.004 7.04 14.973 4.31 3.705 10.6 6.189 17.774 7.351 1.551-.858 4.21-3.381 5.204-4.86-5.986-.767-11.655-2.22-15.453-4.208-5.808-3.032-8.751-7.378-8.751-12.92 0-6.637 5.27-12.04 11.74-12.04 6.484.007 11.741 5.244 11.755 11.704 0 5.158-4.449 9.392-7.876 11.572 1.332.76 4.263 1.552 7.073 1.803a16.877 16.877 0 006.603-13.382c.014-.37.014-.74 0-1.11-.311-9.649-8.419-17.231-18.111-16.928z" fill="#FFF"/><path d="M47.593 8.342S39.731 0 24.085 0C8.439 0 .583 8.342.583 8.342s-.908 6.169-.318 18.6c.869 18.777 23.827 30.051 23.833 30.051 0 0 22.965-11.274 23.833-30.052.564-12.43-.338-18.6-.338-18.6zm-5.947 15.997c0 5.238-2.44 10.178-6.603 13.381-2.81-.257-5.74-1.05-7.073-1.803 3.427-2.18 7.876-6.413 7.876-11.571-.007-6.46-5.264-11.698-11.754-11.704-6.477 0-11.741 5.402-11.741 12.04 0 5.535 2.943 9.888 8.75 12.92 3.8 1.988 9.468 3.44 15.454 4.207-.994 1.48-3.653 4.002-5.204 4.861-7.173-1.17-13.465-3.646-17.774-7.351-4.607-3.963-7.04-9.141-7.04-14.973-.312-9.663 7.299-17.748 16.998-18.052 9.692-.303 17.807 7.279 18.111 16.935.007.37.007.74 0 1.11zM65.188 43.843c-4.674 0-8.546-1.512-12.198-4.755l-.233-.212 2.473-2.913.252.225c3.189 2.873 6.04 4.049 9.838 4.049 3.66 0 6.212-1.909 6.212-4.643v-.086c0-2.391-1.173-3.937-7.365-5.231-6.066-1.315-10.103-3.303-10.103-8.745v-.086c0-4.808 4.19-8.296 9.957-8.296 4.157 0 7.3 1.097 10.508 3.66l.245.198-2.32 3.064-.259-.211c-2.605-2.114-5.224-3.098-8.254-3.098-3.487 0-5.92 1.803-5.92 4.392v.086c0 2.464 1.194 3.97 7.704 5.357 6.875 1.492 9.805 4.055 9.805 8.58v.085c-.007 5.053-4.256 8.58-10.342 8.58zM94.802 43.929c-8.566 0-15.03-6.598-15.03-15.35v-.086c0-8.652 6.657-15.429 15.156-15.429 5.827 0 9.049 2.273 11.654 4.723l.232.218-2.704 2.893-.24-.225c-2.903-2.747-5.594-3.916-8.989-3.916-6.284 0-11.025 5.013-11.025 11.65v.086c0 6.579 4.847 11.737 11.025 11.737 4.07 0 6.643-1.651 9.242-4.128l.225-.218 2.632 2.576-.225.231c-2.553 2.596-5.98 5.238-11.953 5.238z" fill="#ED2E26"/></g><path d="M124.468 43V17.464l11.634 16.926h.168l11.634-16.926V43h2.184V13.6h-2.058l-11.802 17.388L124.426 13.6h-2.058V43h2.1zm39.543.504c3.906 0 6.3-1.974 7.728-4.494V43h2.058V21.58h-2.058v12.39c0 4.452-3.234 7.644-7.434 7.644-4.326 0-6.804-2.898-6.804-7.308V21.58h-2.058v13.104c0 5.124 3.15 8.82 8.568 8.82zM181.168 43V30.652c0-4.326 3.024-7.686 6.846-7.686s6.258 2.73 6.258 7.182V43h2.058V30.526c0-4.788 3.15-7.56 6.762-7.56 3.948 0 6.342 2.688 6.342 7.308V43h2.058V30.022c0-5.376-3.15-8.946-8.232-8.946-4.032 0-6.342 2.226-7.728 4.62-1.176-2.478-3.486-4.62-7.224-4.62-3.822 0-5.754 2.1-7.14 4.326V21.58h-2.058V43h2.058zm46.095.504c5.166 0 10.416-4.242 10.416-11.214v-.084c0-6.972-5.25-11.13-10.416-11.13-4.242 0-6.972 2.478-8.82 5.292V12.34h-2.058V43h2.058v-4.62c1.764 2.688 4.536 5.124 8.82 5.124zm-.21-1.974c-4.452 0-8.736-3.696-8.736-9.198v-.084c0-5.46 4.284-9.198 8.736-9.198 4.494 0 8.4 3.612 8.4 9.24v.084c0 5.754-3.738 9.156-8.4 9.156zm21.063 1.974c4.074 0 6.72-2.016 8.19-4.074V43h2.016V29.644c0-2.646-.756-4.62-2.184-6.048-1.554-1.554-3.864-2.352-6.762-2.352-2.94 0-5.25.756-7.602 1.848l.756 1.806c1.974-1.008 4.116-1.722 6.72-1.722 4.41 0 7.056 2.226 7.056 6.552v.924c-2.058-.546-4.116-.924-7.098-.924-5.544 0-9.366 2.52-9.366 6.972v.084c0 4.452 4.284 6.72 8.274 6.72zm.126-1.932c-3.276 0-6.216-1.806-6.216-4.914v-.084c0-2.982 2.52-4.998 7.056-4.998 3.066 0 5.46.504 7.266.966v2.436c0 3.906-3.738 6.594-8.106 6.594zm17.577-25.578V13.18h-2.562v2.814h2.562zM265.567 43V21.58h-2.058V43h2.058z" fill="#ED2E26" fill-rule="nonzero"/></g></svg>