<svg viewBox="0 0 379.9 66.2" xmlns="http://www.w3.org/2000/svg"><g fill="#ed2e26"><path d="M122.3 53.5h7.8v1.7h-6V58h5.3v1.7h-5.3V64h-1.8zm9 6.6c0-2.3 1.6-4.2 3.9-4.2 2.5 0 3.8 2 3.8 4.3v.5h-5.8c.2 1.3 1.1 2 2.3 2 .9 0 1.5-.3 2.1-.9l1.1.9c-.8.9-1.8 1.5-3.2 1.5-2.5 0-4.2-1.7-4.2-4.1zm5.8-.6c-.1-1.2-.8-2.1-2-2.1-1.1 0-1.9.9-2.1 2.1zm5.5 3.3V64h-1.8V53.1h1.8v4.3c.6-.8 1.4-1.5 2.7-1.5 1.9 0 3.7 1.5 3.7 4.1s-1.8 4.1-3.7 4.1c-1.4.1-2.2-.6-2.7-1.3zm4.5-2.7c0-1.6-1-2.6-2.3-2.6-1.2 0-2.3 1-2.3 2.5s1.1 2.5 2.3 2.5c1.3.1 2.3-.9 2.3-2.4zM154.5 62.5l3.6-3.1c1.4-1.2 2-1.9 2-2.8 0-1-.7-1.6-1.7-1.6s-1.6.5-2.4 1.6l-1.3-1c1-1.4 2-2.2 3.9-2.2 2.1 0 3.5 1.3 3.5 3.1 0 1.7-.9 2.5-2.7 4.1l-2.2 1.8h5V64h-7.6v-1.5zm14.3-.9h-5.3l-.3-1.3 5.8-6.9h1.6v6.7h1.5v1.5h-1.5V64h-1.8zm0-1.5V56l-3.5 4.2h3.5zm4.6 5.3c.9-.2 1.3-.6 1.3-1.4h-.8v-2.1h2v1.8c0 1.7-.8 2.4-2.3 2.5zM181.9 62.5l3.6-3.1c1.4-1.2 2-1.9 2-2.8 0-1-.7-1.6-1.7-1.6s-1.6.5-2.4 1.6l-1.3-1c1-1.4 2-2.2 3.9-2.2 2.1 0 3.5 1.3 3.5 3.1 0 1.7-.9 2.5-2.7 4.1l-2.2 1.8h5V64H182v-1.5zM190.5 58.8c0-3 1.8-5.5 4.6-5.5 2.7 0 4.6 2.4 4.6 5.4s-1.8 5.4-4.6 5.4-4.6-2.3-4.6-5.3zm7.3 0c0-2.1-1.1-3.8-2.7-3.8s-2.7 1.7-2.7 3.7c0 2.1 1 3.8 2.7 3.8 1.6 0 2.7-1.7 2.7-3.7zM200.4 62.5l3.6-3.1c1.4-1.2 2-1.9 2-2.8 0-1-.7-1.6-1.7-1.6s-1.6.5-2.4 1.6l-1.3-1c1-1.4 2-2.2 3.9-2.2 2.1 0 3.5 1.3 3.5 3.1 0 1.7-.9 2.5-2.7 4.1l-2.2 1.8h5V64h-7.6v-1.5zM208.9 58.8c0-3 1.8-5.5 4.6-5.5 2.7 0 4.6 2.4 4.6 5.4s-1.8 5.4-4.6 5.4-4.6-2.3-4.6-5.3zm7.3 0c0-2.1-1.1-3.8-2.7-3.8s-2.7 1.7-2.7 3.7c0 2.1 1 3.8 2.7 3.8 1.6 0 2.7-1.7 2.7-3.7z"/></g><path d="M23.5 6.3c-9.7.3-17.3 8.4-17 18 0 5.8 2.4 11 7 15 4.3 3.7 10.6 6.2 17.8 7.4 1.6-.9 4.2-3.4 5.2-4.9-6-.8-11.7-2.2-15.5-4.2-5.8-3-8.8-7.4-8.8-12.9 0-6.6 5.3-12 11.7-12 6.5 0 11.7 5.2 11.8 11.7 0 5.2-4.4 9.4-7.9 11.6 1.3.8 4.3 1.6 7.1 1.8 4.2-3.2 6.6-8.1 6.6-13.4v-1.1c-.2-9.7-8.3-17.3-18-17z" fill="#fff"/><g fill="#ed2e26"><path d="M47.5 8.3S39.6 0 24 0 .5 8.3.5 8.3s-.9 6.2-.3 18.6C1.1 45.7 24 57 24 57s23-11.3 23.8-30.1c.6-12.4-.3-18.6-.3-18.6zm-5.9 16c0 5.2-2.4 10.2-6.6 13.4-2.8-.3-5.7-1.1-7.1-1.8 3.4-2.2 7.9-6.4 7.9-11.6 0-6.5-5.3-11.7-11.8-11.7s-11.7 5.4-11.7 12c0 5.5 2.9 9.9 8.8 12.9 3.8 2 9.5 3.4 15.5 4.2-1 1.5-3.7 4-5.2 4.9-7.2-1.2-13.5-3.6-17.8-7.4-4.6-4-7-9.1-7-15-.3-9.7 7.3-17.7 17-18.1 9.7-.3 17.8 7.3 18.1 16.9-.1.6-.1 1-.1 1.3zM65.1 43.8c-4.7 0-8.5-1.5-12.2-4.8l-.2-.2 2.5-2.9.3.2c3.2 2.9 6 4 9.8 4 3.7 0 6.2-1.9 6.2-4.6v-.1c0-2.4-1.2-3.9-7.4-5.2C58 29 54 27 54 21.5v-.1c0-4.8 4.2-8.3 10-8.3 4.2 0 7.3 1.1 10.5 3.7l.2.2-2.3 3.1-.3-.2c-2.6-2.1-5.2-3.1-8.3-3.1-3.5 0-5.9 1.8-5.9 4.4v.1c0 2.5 1.2 4 7.7 5.4 6.9 1.5 9.8 4.1 9.8 8.6v.1c.1 4.9-4.2 8.4-10.3 8.4zm29.6.1c-8.6 0-15-6.6-15-15.3v-.1c0-8.7 6.7-15.4 15.2-15.4 5.8 0 9 2.3 11.7 4.7l.2.2-2.7 2.9-.2-.2c-2.9-2.7-5.6-3.9-9-3.9-6.3 0-11 5-11 11.7v.1c0 6.6 4.8 11.7 11 11.7 4.1 0 6.6-1.7 9.2-4.1l.2-.2 2.6 2.6-.2.2c-2.6 2.5-6 5.1-12 5.1z"/></g><path d="M120.4 38.7l1.4-1.6c3.2 3 6.2 4.4 10.5 4.4 4.4 0 7.4-2.5 7.4-5.8v-.1c0-3.1-1.6-4.9-8.3-6.3-7.1-1.4-9.9-3.8-9.9-8.3v-.1c0-4.4 4-7.7 9.5-7.7 4.3 0 7.1 1.2 10.1 3.6l-1.4 1.7c-2.8-2.4-5.5-3.3-8.8-3.3-4.3 0-7.2 2.5-7.2 5.5v.1c0 3.1 1.6 5 8.6 6.4 6.8 1.4 9.7 3.8 9.7 8.1v.1c0 4.7-4.1 8-9.7 8-4.7 0-8.4-1.5-11.9-4.7zm24.6-1.9c0-4.5 3.8-7.1 9.4-7.1 3 0 5 .4 7.1.9v-.9c0-4.3-2.6-6.6-7.1-6.6-2.6 0-4.7.7-6.7 1.7l-.8-1.8c2.4-1.1 4.7-1.8 7.6-1.8s5.2.8 6.8 2.4c1.4 1.4 2.2 3.4 2.2 6V43h-2v-3.6c-1.5 2.1-4.1 4.1-8.2 4.1-4 0-8.3-2.3-8.3-6.7zm16.5-1.8v-2.4c-1.8-.5-4.2-1-7.3-1-4.5 0-7.1 2-7.1 5v.1c0 3.1 2.9 4.9 6.2 4.9 4.5 0 8.2-2.7 8.2-6.6zm7.4-13.4h2.1v4c1.4-2.5 3.8-4.5 7.7-4.5 5.4 0 8.6 3.7 8.6 8.8V43h-2.1V30.3c0-4.4-2.5-7.3-6.8-7.3-4.2 0-7.4 3.2-7.4 7.6V43h-2.1zm34.8-8h20.7v2h-18.5v12.1h16.6v2h-16.6V43h-2.2zm25.2 8h2.1v6.1c1.7-3.8 5.3-6.6 9.5-6.4v2.3h-.2c-5 0-9.3 3.7-9.3 10.7V43h-2.1zm12 15.2c0-4.5 3.8-7.1 9.4-7.1 3 0 5 .4 7.1.9v-.9c0-4.3-2.6-6.6-7.1-6.6-2.6 0-4.7.7-6.7 1.7l-.8-1.8c2.4-1.1 4.7-1.8 7.6-1.8s5.2.8 6.8 2.4c1.4 1.4 2.2 3.4 2.2 6V43h-2v-3.6c-1.5 2.1-4.1 4.1-8.2 4.1-4 0-8.3-2.3-8.3-6.7zm16.5-1.8v-2.4c-1.8-.5-4.2-1-7.3-1-4.5 0-7.1 2-7.1 5v.1c0 3.1 2.9 4.9 6.2 4.9 4.4 0 8.2-2.7 8.2-6.6zm7.4-13.4h2.1v4c1.4-2.5 3.8-4.5 7.7-4.5 5.4 0 8.6 3.7 8.6 8.8V43h-2.1V30.3c0-4.4-2.5-7.3-6.8-7.3-4.2 0-7.4 3.2-7.4 7.6V43h-2.1zm22.3 10.8c0-6.1 4.8-11.3 10.9-11.3 4 0 6.6 1.8 8.6 3.9l-1.5 1.5c-1.8-1.9-3.9-3.5-7.1-3.5-4.9 0-8.7 4.1-8.7 9.2v.1c0 5.2 3.9 9.3 8.8 9.3 3 0 5.4-1.6 7.2-3.6l1.4 1.3c-2.2 2.5-4.8 4.2-8.7 4.2-6.2 0-10.9-5.1-10.9-11.1zm23.5-19.2h2.6V16h-2.6zm.2 8.4h2.1V43h-2.1zm6.4 18.7l1.2-1.6c2.4 1.8 5 2.8 7.7 2.8 2.9 0 5.2-1.6 5.2-4.1v-.1c0-2.5-2.7-3.4-5.7-4.3-3.5-1-7.4-2.1-7.4-5.9V27c0-3.4 2.9-5.9 7.1-5.9 2.6 0 5.5.9 7.6 2.4l-1.1 1.7c-2-1.3-4.3-2.1-6.6-2.1-2.9 0-4.9 1.6-4.9 3.7v.1c0 2.4 2.9 3.3 6 4.2 3.4 1 7.1 2.2 7.1 6v.1c0 3.8-3.3 6.3-7.4 6.3-3.1-.1-6.5-1.3-8.8-3.2zm19.3-7.9c0-6.1 4.8-11.3 10.9-11.3 4 0 6.6 1.8 8.6 3.9l-1.5 1.5c-1.8-1.9-3.9-3.5-7.1-3.5-4.9 0-8.7 4.1-8.7 9.2v.1c0 5.2 3.9 9.3 8.8 9.3 3 0 5.4-1.6 7.2-3.6l1.4 1.3c-2.2 2.5-4.8 4.2-8.7 4.2-6.2 0-10.9-5.1-10.9-11.1zm21.3 0c0-6.1 4.7-11.3 11-11.3s11 5.1 11 11.1v.1c0 6-4.7 11.2-11 11.2s-11-5.1-11-11.1zm19.8 0c0-5.3-3.9-9.4-8.8-9.4-5.1 0-8.7 4.2-8.7 9.2v.1c0 5.2 3.9 9.3 8.8 9.3 5.1 0 8.7-4.2 8.7-9.2z" fill="#ed2e26"/></svg>