<svg width="225" height="67" viewBox="0 0 225 67" xmlns="http://www.w3.org/2000/svg"><g fill-rule="nonzero" fill="none"><path d="M123.34 64l1.08-2.535h4.965L130.45 64h1.95l-4.62-10.575h-1.71L121.45 64h1.89zm5.37-4.17h-3.615l1.8-4.2 1.815 4.2zm6.952 6.57v-3.63c.555.735 1.38 1.395 2.7 1.395 1.876 0 3.675-1.485 3.675-4.11v-.03c0-2.64-1.815-4.11-3.674-4.11-1.29 0-2.115.66-2.7 1.485v-1.32h-1.83V66.4h1.83zm2.266-3.81c-1.23 0-2.31-1.02-2.31-2.535v-.03c0-1.515 1.08-2.535 2.31-2.535 1.215 0 2.264 1.005 2.264 2.535v.03c0 1.56-1.02 2.535-2.264 2.535zm7.657 1.41v-3.015c0-2.1 1.11-3.135 2.7-3.135h.105v-1.92c-1.395-.06-2.31.75-2.805 1.935V56.08h-1.83V64h1.83zm11.955 0V53.425h-1.275l-2.835.9.39 1.5 1.89-.525V64h1.83zm9.248 0v-2.355h1.5V60.13h-1.5v-6.705h-1.576l-5.834 6.9.345 1.32h5.294V64h1.77zm-1.77-3.87h-3.45l3.45-4.155v4.155zm4.612 6.06c1.515-.135 2.31-.84 2.31-2.505V61.93h-1.995V64h.78c.06.765-.375 1.23-1.29 1.41l.195.78zM185.5 64v-1.62h-4.995l2.16-1.8c1.86-1.515 2.73-2.4 2.73-4.065v-.03c0-1.875-1.41-3.135-3.465-3.135-1.875 0-2.865.795-3.87 2.19l1.32 1.035c.795-1.05 1.455-1.575 2.415-1.575s1.695.615 1.695 1.635c0 .945-.54 1.605-1.965 2.835l-3.615 3.075V64h7.59zm6.143.18c2.76 0 4.59-2.43 4.59-5.43v-.03c0-3-1.816-5.4-4.56-5.4-2.76 0-4.59 2.43-4.59 5.43v.03c0 3 1.8 5.4 4.56 5.4zm.03-1.665c-1.636 0-2.685-1.695-2.685-3.765v-.03c0-2.07 1.035-3.735 2.655-3.735 1.62 0 2.684 1.695 2.684 3.765v.03c0 2.055-1.02 3.735-2.654 3.735zM205.12 64v-1.62h-4.995l2.16-1.8c1.86-1.515 2.73-2.4 2.73-4.065v-.03c0-1.875-1.41-3.135-3.465-3.135-1.875 0-2.865.795-3.87 2.19l1.32 1.035c.795-1.05 1.455-1.575 2.415-1.575s1.695.615 1.695 1.635c0 .945-.54 1.605-1.965 2.835l-3.615 3.075V64h7.59zm6.142.18c2.76 0 4.59-2.43 4.59-5.43v-.03c0-3-1.815-5.4-4.56-5.4-2.76 0-4.59 2.43-4.59 5.43v.03c0 3 1.8 5.4 4.56 5.4zm.03-1.665c-1.635 0-2.685-1.695-2.685-3.765v-.03c0-2.07 1.036-3.735 2.655-3.735 1.62 0 2.685 1.695 2.685 3.765v.03c0 2.055-1.02 3.735-2.655 3.735z" fill="#ED2E26"/><path d="M23.535 6.294c-9.7.304-17.31 8.389-16.998 18.045 0 5.832 2.433 11.004 7.04 14.973 4.31 3.705 10.6 6.189 17.774 7.351 1.551-.858 4.21-3.381 5.204-4.86-5.986-.767-11.655-2.22-15.453-4.208-5.808-3.032-8.751-7.378-8.751-12.92 0-6.637 5.27-12.04 11.74-12.04 6.484.007 11.741 5.244 11.755 11.704 0 5.158-4.449 9.392-7.876 11.572 1.332.76 4.263 1.552 7.073 1.803a16.877 16.877 0 006.603-13.382c.014-.37.014-.74 0-1.11-.311-9.649-8.419-17.231-18.111-16.928z" fill="#FFF"/><path d="M47.593 8.342S39.731 0 24.085 0C8.439 0 .583 8.342.583 8.342s-.908 6.169-.318 18.6c.869 18.777 23.827 30.051 23.833 30.051 0 0 22.965-11.274 23.833-30.052.564-12.43-.338-18.6-.338-18.6zm-5.947 15.997c0 5.238-2.44 10.178-6.603 13.381-2.81-.257-5.74-1.05-7.073-1.803 3.427-2.18 7.876-6.413 7.876-11.571-.007-6.46-5.264-11.698-11.754-11.704-6.477 0-11.741 5.402-11.741 12.04 0 5.535 2.943 9.888 8.75 12.92 3.8 1.988 9.468 3.44 15.454 4.207-.994 1.48-3.653 4.002-5.204 4.861-7.173-1.17-13.465-3.646-17.774-7.351-4.607-3.963-7.04-9.141-7.04-14.973-.312-9.663 7.299-17.748 16.998-18.052 9.692-.303 17.807 7.279 18.111 16.935.007.37.007.74 0 1.11zM65.188 43.843c-4.674 0-8.546-1.512-12.198-4.755l-.233-.212 2.473-2.913.252.225c3.189 2.873 6.04 4.049 9.838 4.049 3.66 0 6.212-1.909 6.212-4.643v-.086c0-2.391-1.173-3.937-7.365-5.231-6.066-1.315-10.103-3.303-10.103-8.745v-.086c0-4.808 4.19-8.296 9.957-8.296 4.157 0 7.3 1.097 10.508 3.66l.245.198-2.32 3.064-.259-.211c-2.605-2.114-5.224-3.098-8.254-3.098-3.487 0-5.92 1.803-5.92 4.392v.086c0 2.464 1.194 3.97 7.704 5.357 6.875 1.492 9.805 4.055 9.805 8.58v.085c-.007 5.053-4.256 8.58-10.342 8.58zM94.802 43.929c-8.566 0-15.03-6.598-15.03-15.35v-.086c0-8.652 6.657-15.429 15.156-15.429 5.827 0 9.049 2.273 11.654 4.723l.232.218-2.704 2.893-.24-.225c-2.903-2.747-5.594-3.916-8.989-3.916-6.284 0-11.025 5.013-11.025 11.65v.086c0 6.579 4.847 11.737 11.025 11.737 4.07 0 6.643-1.651 9.242-4.128l.225-.218 2.632 2.576-.225.231c-2.553 2.596-5.98 5.238-11.953 5.238zM132.154 43c9.24 0 15.624-6.426 15.624-14.7v-.084c0-8.274-6.384-14.616-15.624-14.616h-9.786V43h9.786zm0-2.016h-7.602V15.616h7.602c8.19 0 13.356 5.712 13.356 12.684v.084c0 7.014-5.166 12.6-13.356 12.6zm28.245 2.52c3.906 0 6.3-1.974 7.728-4.494V43h2.058V21.58h-2.058v12.39c0 4.452-3.234 7.644-7.434 7.644-4.326 0-6.804-2.898-6.804-7.308V21.58h-2.058v13.104c0 5.124 3.15 8.82 8.568 8.82zm25.977 0c5.166 0 10.416-4.242 10.416-11.214v-.084c0-6.972-5.25-11.13-10.416-11.13-4.242 0-6.972 2.478-8.82 5.292V12.34h-2.058V43h2.058v-4.62c1.764 2.688 4.536 5.124 8.82 5.124zm-.21-1.974c-4.452 0-8.736-3.696-8.736-9.198v-.084c0-5.46 4.284-9.198 8.736-9.198 4.494 0 8.4 3.612 8.4 9.24v.084c0 5.754-3.738 9.156-8.4 9.156zm21.063 1.974c4.074 0 6.72-2.016 8.19-4.074V43h2.016V29.644c0-2.646-.756-4.62-2.184-6.048-1.554-1.554-3.864-2.352-6.762-2.352-2.94 0-5.25.756-7.602 1.848l.756 1.806c1.974-1.008 4.116-1.722 6.72-1.722 4.41 0 7.056 2.226 7.056 6.552v.924c-2.058-.546-4.116-.924-7.098-.924-5.544 0-9.366 2.52-9.366 6.972v.084c0 4.452 4.284 6.72 8.274 6.72zm.126-1.932c-3.276 0-6.216-1.806-6.216-4.914v-.084c0-2.982 2.52-4.998 7.056-4.998 3.066 0 5.46.504 7.266.966v2.436c0 3.906-3.738 6.594-8.106 6.594zm17.577-25.578V13.18h-2.562v2.814h2.562zM224.68 43V21.58h-2.058V43h2.058z" fill="#ED2E26"/></g></svg>