<svg viewBox="0 0 142 55" xmlns="http://www.w3.org/2000/svg"><path d="M5.332 41.611c.325 0 .536.21.631.441l4.665 11.844a.93.93 0 0 1 .057.288.65.65 0 0 1-.669.652.65.65 0 0 1-.63-.44L8.01 50.861H2.677v.001L1.28 54.375c-.095.249-.306.46-.63.46a.659.659 0 0 1-.65-.652c0-.078.018-.211.057-.288l4.664-11.843c.095-.23.267-.442.611-.441zm.001 2.188l-2.256 5.874h4.531zm9.002 3.475c.382-.883 1.338-1.535 2.656-1.535.326 0 .594.268.594.595a.597.597 0 0 1-.594.595c-1.757 0-2.656 1.228-2.656 2.994v4.3a.605.605 0 0 1-.612.614.605.605 0 0 1-.611-.614V46.43c0-.346.267-.614.611-.614s.612.268.612.614zm8.715-1.573c1.701.001 2.639.903 2.944 1.325.095.135.134.23.134.365a.544.544 0 0 1-.555.556c-.19 0-.325-.076-.458-.23-.287-.326-.803-.903-2.065-.903-1.758 0-2.695 1.133-2.695 3.494 0 2.4.937 3.513 2.695 3.513 1.11 0 1.778-.5 2.219-.825.133-.096.229-.135.363-.135.305 0 .554.25.554.557 0 .173-.057.308-.249.48-.42.346-1.338 1.036-2.887 1.036-2.465 0-3.937-1.479-3.937-4.626 0-3.148 1.472-4.607 3.937-4.607M36.067 49.1v5.125a.605.605 0 0 1-.611.615.605.605 0 0 1-.612-.615V49.35c0-1.517-.44-2.553-2.294-2.553-1.892 0-2.542 1.15-2.542 2.687v4.74a.605.605 0 0 1-.612.615.605.605 0 0 1-.611-.615l-.001-12.592c0-.345.267-.613.611-.613s.613.268.613.613v5.414c.363-.73 1.3-1.343 2.542-1.343 2.944 0 3.517 1.766 3.517 3.397m4.166 5.126a.605.605 0 0 1-.611.615.605.605 0 0 1-.612-.615v-7.793c0-.346.267-.614.612-.614.343 0 .611.268.611.614zm-1.339-10.942c0-.556.268-.767.727-.767s.727.211.727.767c0 .462-.268.73-.727.73s-.727-.268-.727-.73zm4.97.673a.63.63 0 0 1 .612-.614c.343 0 .611.288.611.614v2.016h1.243c.324 0 .573.25.573.576a.564.564 0 0 1-.573.576h-1.243l.001 5.298c0 .825.459 1.266 1.109 1.266a.58.58 0 0 1 .592.576.58.58 0 0 1-.592.576c-1.51 0-2.333-1.017-2.333-2.418v-5.298l-.745-.001a.564.564 0 0 1-.574-.576c0-.326.249-.576.574-.576h.745zm8.888 1.748c3.058 0 3.651 2.438 3.651 3.743 0 .557 0 1.229-.765 1.229h-5.581c0 1.9 1.09 3.129 2.886 3.129 1.109 0 1.76-.423 2.294-.825a.557.557 0 0 1 .899.441c0 .211-.096.327-.21.44-.288.29-1.282 1.076-2.983 1.075-2.542 0-4.129-1.4-4.129-4.625 0-2.957 1.453-4.607 3.938-4.607zm0 1.114c-1.664 0-2.58 1.074-2.695 2.782h5.141c0-1.381-.478-2.782-2.446-2.782zm9.575-1.113c1.701.001 2.637.903 2.944 1.325.095.135.134.23.134.365a.544.544 0 0 1-.555.556c-.19 0-.325-.076-.459-.23-.286-.326-.802-.902-2.064-.903-1.759 0-2.695 1.133-2.695 3.494 0 2.4.936 3.513 2.695 3.513 1.109 0 1.778-.5 2.218-.825.133-.096.23-.135.364-.135.305 0 .553.25.553.557 0 .173-.056.308-.248.48-.42.346-1.338 1.036-2.887 1.036-2.465 0-3.937-1.479-3.937-4.626 0-3.148 1.472-4.607 3.937-4.607m6.211-1.746a.63.63 0 0 1 .612-.614c.344 0 .612.289.612.615v2.015h1.242c.325 0 .573.25.574.576a.565.565 0 0 1-.573.576h-1.243v5.299c0 .825.46 1.266 1.11 1.266a.58.58 0 0 1 .592.575.58.58 0 0 1-.593.576c-1.51 0-2.333-1.017-2.333-2.419v-5.298h-.745a.564.564 0 0 1-.573-.575c0-.326.248-.577.573-.577h.745v-2.014zm6.556 2.478v5.009c0 1.247.402 2.323 2.333 2.323 1.93.001 2.331-1.075 2.331-2.322v-5.01a.62.62 0 0 1 .63-.614c.325 0 .593.268.594.615v5.009c0 1.824-.592 3.494-3.555 3.493-2.944 0-3.556-1.67-3.556-3.494v-5.01c0-.345.268-.614.612-.614.324 0 .611.27.611.615m10.073.845c.382-.883 1.338-1.535 2.656-1.535a.596.596 0 0 1 0 1.19c-1.757 0-2.656 1.228-2.656 2.994v4.3a.605.605 0 0 1-.612.614.605.605 0 0 1-.611-.613v-7.794c0-.345.267-.614.61-.614.345 0 .613.269.613.614zm8.716-1.573c3.058.001 3.65 2.439 3.65 3.744 0 .556 0 1.228-.765 1.228h-5.58c0 1.9 1.09 3.13 2.885 3.13 1.11 0 1.76-.423 2.295-.826a.557.557 0 0 1 .899.441c0 .211-.096.327-.21.442-.288.288-1.282 1.074-2.984 1.074-2.541 0-4.128-1.401-4.128-4.626 0-2.956 1.452-4.607 3.938-4.607zm0 1.114c-1.664 0-2.58 1.074-2.695 2.782l5.141.001c0-1.382-.477-2.782-2.446-2.783zm5.599 7.122c0-.633.344-.922.899-.922.554 0 .898.289.898.922 0 .634-.344.903-.898.903-.555 0-.899-.27-.899-.903m7.703-8.234c1.7.001 2.638.903 2.943 1.325.095.135.134.23.134.365a.544.544 0 0 1-.554.556c-.192 0-.324-.076-.46-.23-.285-.326-.802-.902-2.063-.903-1.76 0-2.695 1.133-2.695 3.494 0 2.4.937 3.513 2.696 3.513 1.108 0 1.777-.5 2.216-.825.134-.096.23-.135.363-.135.306 0 .555.25.555.556 0 .174-.057.309-.249.481-.42.345-1.338 1.036-2.885 1.036-2.467 0-3.939-1.479-3.939-4.626 0-3.148 1.472-4.607 3.938-4.607m9.174.002c2.485 0 4.015 1.458 4.015 4.607 0 3.148-1.53 4.626-4.014 4.626-2.467 0-4.014-1.48-4.014-4.627 0-3.149 1.547-4.607 4.013-4.606zm0 1.113c-1.759 0-2.771 1.075-2.771 3.493 0 2.457 1.013 3.514 2.772 3.514 1.758 0 2.771-1.057 2.771-3.513v-.001c0-2.417-1.013-3.493-2.772-3.493zm19.745 2.287v5.125a.605.605 0 0 1-.612.614.605.605 0 0 1-.611-.614v-4.876c0-1.516-.536-2.552-2.39-2.553-1.644 0-2.39.883-2.39 2.303l.001 5.125a.605.605 0 0 1-.611.614.606.606 0 0 1-.613-.614v-4.876c0-1.515-.478-2.552-2.35-2.553-1.779 0-2.352 1.075-2.352 2.688v4.74a.604.604 0 0 1-.612.614.605.605 0 0 1-.611-.613v-7.795a.603.603 0 0 1 .61-.613c.344 0 .612.269.613.614v.614c.325-.71 1.242-1.343 2.484-1.343 1.568 0 2.581.576 3.04 1.343.477-.747 1.318-1.342 2.791-1.342 2.944 0 3.613 1.766 3.613 3.398M9.985 4.129c6.574 0 8.175 4.396 8.175 7.136 0 2.932-1.785 5.766-5.88 6.512v.077c2.068 1.014 3.429 2.815 4.633 4.852l2.536 4.738c2.564 4.38 3.939 4.423 4.789 4.5v.31h-5.1c-.312-.43-.624-.778-1.205-1.64-.354-.509-.977-1.487-1.02-1.527l-3.343-5.99c-2.919-4.852-5.54-4.969-7.41-4.969v10.724c0 2.624 1.828 3.051 3.046 3.092v.31H.28v-.31c1.446-.041 3.004-.665 3.004-3.091V7.573c0-2.469-1.643-3.05-2.607-3.05H.28v-.394zm-2.068.742c-.893 0-1.36.078-1.757.155v12.357h1.6c5.214 0 7.17-2.127 7.17-5.884 0-2.777-1.403-6.628-7.013-6.628zm29.185-.429c-1.444 0-3.003.662-3.003 3.05v21.36c0 2.428 1.756 3.093 3.003 3.093v.309h-8.883v-.309c1.36 0 2.989-.665 2.989-3.093V7.492c0-2.621-1.784-3.05-2.99-3.05V4.13h8.884v.313m6.135-.314h9.152c4.916 0 8.104 3.193 8.104 6.753 0 3.507-2.475 5.633-5.773 6.572l-.262.072v.076c2.323.211 4.561.578 6.275 2.177 1.431 1.333 2.295 3.089 2.295 5.16 0 3.29-2.181 5.32-3.697 6.183-1.89 1.06-4.932 1.128-5.555 1.132h-.056v.001H43.237v-.31h.396c1.204 0 2.513-.8 2.602-2.868l.005-.226V7.608c0-1.96-.988-3.083-2.481-3.16l-.168-.005h-.354v-.314h9.152zm8.769 14.103h-2.89v9.995c.008 1.417.18 3.17 4.052 3.17 2.933 0 4.604-1.174 5.497-2.587.893-1.404 1.134-3.012 1.134-3.988 0-4.262-3.047-6.59-7.793-6.59zM51.61 4.988c-1.163 0-1.984.274-2.494.432v11.95h1.841c1.871 0 2.651-.197 3.188-.468.581-.277 3.117-1.833 3.117-5.471 0-3.445-2.337-6.443-5.652-6.443zm28.618-.907l8.373 23.767c1.374 3.873 2.423 3.951 3.783 4.068v.313h-9.153v-.313c1.205 0 2.919.116 2.919-1.721 0-.235-.071-.859-.354-1.725a1.176 1.176 0 0 1-.07-.232l-3.5-9.928h-7.551l-3.06 9.38c-.185.588-.455 1.685-.455 2.269 0 1.721 1.092 1.957 2.268 1.957v.313h-6.915v-.313c1.956-.159 2.933-1.486 3.74-3.952l7.424-22.392c-.453-.875-1.359-1.227-2.323-1.227v-.264zm-1.885 3.246h-.084l-3.23 9.92h6.814zm44.275 21.402H119.5a.562.562 0 0 0-.566.568c0 .32.24.576.566.576h3.117a.562.562 0 0 0 .566-.576.562.562 0 0 0-.566-.568m-3.584 2.876h4.052v-.942h-4.052zm4.675-.48v1.12h-5.327V30.01h5.327v1.133h-.51v-.6h-4.292v1.179h4.292v-.601zm.808-29.107c-.114-.02-.226-.039-.326-.058l-.24 1.171c.112.02.212.036.311.052zm-.453-.081c-.354-.055-.695-.1-1.049-.142l-.17 1.21c.368.033.709.072.992.11zm-2.919-.364c.212 0 .411.006.609.013l.07-1.586h-1.359l.07 1.582c.2-.006.397-.01.61-.01m.071 1.356c.312 0 .623.01.936.029l.099-1.23a18.83 18.83 0 0 0-1.035-.035zm3.33-1.026L124.87.47c-.142-.04-1.006-.19-1.006-.19l-.283 1.463c.311.045.638.097.964.158m-1.658 2.438l.17-1.19a20.971 20.971 0 0 0-1.148-.085l-.07 1.275zm-3.443-1.333l-.17-1.214c-.382.04-.723.09-1.048.145l.227 1.179c.283-.04.623-.078.991-.11m1.643-1.314c-.382 0-.722.016-1.048.035l.1 1.23c.311-.019.623-.029.948-.029zm-3.315.326l.27 1.165c.084-.016.184-.033.297-.052l-.241-1.171c-.1.02-.212.038-.326.058m1.346 1.139c-.44.045-.793.097-1.048.146l.227 1.036h.99zm4.052 0l-.156 1.182h.978l.24-1.036c-.254-.049-.623-.1-1.062-.146m-1.388-.1c-.213-.003-.425-.006-.637-.006-.213 0-.425.003-.638.006l.07 1.282h1.148zm-3.061-1.32l-.297-1.455s-.864.148-.992.189l.312 1.431c.311-.058.623-.113.977-.165m1.729 2.602l-.07-1.275a20.27 20.27 0 0 0-1.134.084l.155 1.19h1.05m2.167.123H119.5a.56.56 0 0 0-.566.572c0 .316.24.571.566.571h3.117a.561.561 0 0 0 .566-.571.56.56 0 0 0-.566-.572m-1.53 12.409c-.07.074-.764.778-.764.778l-.809-.811v1.553c.17.185.738.749.809.813.07-.074.764-.774.764-.774s.724.716.794.79c.07-.06.58-.577.793-.79v-1.56l-.793.798s-.708-.723-.794-.797m.794 9.442l.793-.795v1.56c-.213.212-.722.732-.793.794a98.846 98.846 0 0 0-.793-.797s-.695.696-.766.778a46.255 46.255 0 0 1-.807-.811v-1.555l.807.81s.695-.704.766-.782c.085.078.793.798.793.798m0-19.026l.793-.794V8.05c-.213.213-.722.733-.793.794-.07-.074-.793-.797-.793-.797s-.695.7-.766.777a42.49 42.49 0 0 1-.807-.81V6.46l.807.81s.695-.7.766-.781c.085.081.793.797.793.797"/><path d="M122.674 5.734v.586c-.212.217-.722.734-.793.795-.07-.078-.793-.795-.793-.795s-.694.701-.765.775a36.955 36.955 0 0 1-.809-.81v-.551zm-.793 22.308l.793-.79V28.6h-3.16v-1.389l.808.813s.695-.703.766-.778c.085.075.793.795.793.795m-8.175-19.622h-.935v-.382l.935.004zm-1.063.394h1.063v.378l-1.063-.003zm1.063 1.917h-5.058v-.378h5.058zm0-.768h-1.374l.241-.372v-.009l1.133.003zm-4.08-1.543h-.978V8.04l.964-.003h.014zm.128.768l-1.106.003v-.378h1.106zm-.397 2.321h-.709v-.378h1.247l-.07.033c0 .003-.27.142-.468.345m-.34.416a1.96 1.96 0 0 0-.34.707v-.707zm1.048-1.965l-1.417.003V9.58h1.177zm1.813-1.195l.128.143-.1.806-.24.059v-.833zm-.992.807v-.758h.624v.758a.682.682 0 0 1-.312.584.683.683 0 0 1-.312-.584m-.481-.664l.128-.143.212.174v.833l-.256-.058zm8.968 1.778a.258.258 0 0 0-.085.02c-.142.054-.184.245-.113.367.014.01.042.052.1.156.098.173.07.322.027.412 0 0-.198-.135-.396-.083 0 0 .07-.03.085-.146.028-.113-.128-.168-.241-.164a.63.63 0 0 0-.58.44c-.114.343-.256.712-.85.832-.369.07-.894.148-1.149.212-.283.071-.538.165-.567.31-.014.149.199.275.425.336.199.058.596.11.864.11.553 0 .921-.046 1.191.107.1.058.213.15.269.225.156.194.283.262.41.284.143.033.256-.058.214-.174-.029-.088-.071-.116-.071-.116.24.028.396-.085.396-.085a.408.408 0 0 1-.027.378c-.03.042-.086.137-.086.137-.085.141-.056.357.086.435.027.01.042.019.084.026.088.019.18.001.255-.049-.028.207-.17.3-.34.31-.014.003-.028.003-.043.003-.551-.003-.722-.606-.722-.606-.198-.408-.439-.53-.581-.585-.155-.055-.368-.068-.893.05-.399.091-.808.13-1.217.115-1.007-.062-1.446-.29-1.644-.617-.213-.319-.227-.806-.1-1.061.157-.271.553-.394 1.034-.255.482.138 1.248.277 1.744.277.51 0 .806-.1.948-.326.1-.152.142-.384.284-.6a.997.997 0 0 1 .496-.365s.043-.633.651-.581c.015.003.057.01.071.016.2.048.312.203.312.346 0 0-.071-.098-.24-.091"/><path d="M118.807 12.696c0 .242.226.368.524.342.042.042.056.097.042.197-.014.168-.198.378-.552.378-.383 0-.766-.259-.766-.914 0-.662.383-.92.766-.92.354 0 .538.207.552.381a.35.35 0 0 1-.028.213c-.298 0-.538.13-.538.323m-5.072-.12a1.53 1.53 0 0 0 .1.675c.055.123.097.364-.171.477-.212.098-.468.143-.921.113-.651-.044-1.36-.257-1.885-.486-.24-.104-.466-.227-.466-.417 0-.26.212-.297.382-.348a1.7 1.7 0 0 0 .736-.45c.2-.186.44-.376.75-.376.312 0 .525.035.866.183.339.143.651.297.609.63m-2.721 1.559c.058-.146.17-.26.37-.226.211.032.338.068.48.139.086.048.114.128.086.252-.03.122-.142.515-.794 1.113-.24.219-.637.488-.978.504-.325.02-.44-.155-.44-.35v-.322c0-.122.086-.28.214-.313.311-.068.878-.329 1.062-.797"/><path d="M114.258 11.724s-.24.071-.424.305c0 0-.44-.395-1.247-.518-.78-.083-.907.103-1.36.491-.369.313-.694.375-.737.298-.085-.16.213-.362.34-.485.114-.122.015-.239-.183-.136-.185.103-.596.514-.667.875l-.014.003v.017c-.013.113-.057.494.255.757.142.13.27.192.467.27.157.056.227.29.043.516-.17.229-.481.47-.879.577-.227.058-.354.226-.354.472v2.546c0 .187-.084.414-.354.414-.255 0-.453.064-.453-.172v-4.011c0-1.731.978-2.432 1.318-2.609.638-.345 1.671-.52 2.805-.281.708.149 1.19.436 1.444.671m-.693 2.96s-.567-.009-.936-.329c-.113-.107-.042-.254.143-.254.197 0 .495.035.793-.036v.62"/><path d="M113.465 14.936c-.027.103-.098.249-.156.271 0 0-.14.042-.34.048-.127 0-.226-.009-.424-.15-.127-.097-.326-.295-.397-.362-.071-.085-.114-.158-.043-.278.057-.12.17-.143.326-.02.156.12.312.23.496.298.17.057.298.09.454.093.057.007.113.049.084.1"/><path d="M113.126 15.989c-.312.067-.553-.078-.708-.155-.157-.078-.525-.372-.61-.455-.128-.124-.142-.274-.057-.381.084-.103.212-.139.312-.072.099.072.268.252.396.343.156.1.355.193.539.174 0 0 .17-.012.269-.048s.156.02.142.174c-.015.159-.128.384-.283.42m-.383.623c-.24.016-.482-.04-.78-.226-.296-.191-.82-.572-.68-.83.072-.11.213-.14.341-.035.141.107.482.375.68.488.127.06.325.164.496.18.226.032.34 0 .34 0 .014.26-.157.406-.397.423m-.029.19s.044.139-.057.259c-.112.119-.367.138-.693.07a1.777 1.777 0 0 1-.865-.452c-.227-.226-.453-.5-.325-.671.07-.106.254-.136.382 0 .114.135.58.49.836.62.269.128.438.19.722.174"/><path d="M111.595 17.651c-.185-.036-.708-.223-1.119-.623-.269-.258-.51-.49-.624-.778-.013-.07 0-.106.128-.087.113.016.142.01.198.016.114.003.227 0 .312.12.185.258.454.538.695.729.24.19.694.327.977.31 0 0 .1.103 0 .222-.085.127-.368.127-.567.091"/><path d="M111.637 17.925c-.197.055-.608.078-.949 0a1.376 1.376 0 0 1-.793-.471c-.128-.164-.17-.245-.199-.426 0 0-.027-.345.058-.381.07-.033.14.039.255.177.085.12.368.458.764.705.34.215.766.277.922.264.155-.02.127.08-.058.132m3.33-3.825s-.439.138-.736.42c0 0-.128-.258-.455-.507 0 0 .213-.059.341-.278 0 0 .212.304.85.365m-3.429 8.206c.157.528.213 1.317.213 2.356 0 1.04-.524 2.977-1.261 2.977s-1.261-.953-1.331-2.225c-.057-1.256.198-1.882.41-2.53.17-.517.17-.801.015-1.027-.128-.188-.34-.245-.567-.297-.241-.052-.51-.145-.51-.636V18.8c0-.442.254-.442.439-.442s.468.116.651.281c.185.161.34.368.34 1.085 0 .713-.084 1.962.553 1.962.709 0 .893.09 1.048.62m-4.221-.333c-.412.216-.88.316-1.431.316-1.106 0-3.003-.813-3.046-3.847l-.014-.927c-.029-2.272.042-5.312-.61-6.623-.24-.479-.595-.552-.977-.41 0 .007-.015.01-.028.016-.015 0-.015.003-.015.003a.721.721 0 0 1-.963-.68c0-.402.354-.73.808-.734 1.006 0 1.46.826 1.728 1.472.609 1.479.594 4.332.623 6.95l.014.887c.014 1.173.327 2.06.92 2.637a2.23 2.23 0 0 0 1.56.66c1.346 0 2.082-1.208 2.267-1.65v1.65c0 .167-.114.206-.213.2-.141-.03-.354-.03-.623.08m4.689-.729c0 .397-.213.458-.467.458.112-.022.212-.198.212-.365v-2.353c0-.368-.198-.442-.198-.442v-.459l.184-.022a.47.47 0 0 0 .156.369c.113.112.113.23.113.415zm3.372.058c-.141.345-.425.542-.637.522-.227-.018-.354-.041-.567-.225-.315-.26-.712-.4-1.12-.397-.324 0-.962.039-.864-.742.043-.359.595-.579 1.22-.62.65-.049 1.345.115 1.685.368.34.252.439.71.283 1.094"/><path d="M108.195 31.618c-.014.184-.256.494-.694.54-.412.044-1.02-.104-1.162-.769-.071-.31-.142-.82-.113-1.617.028-.92.042-1.469-.043-1.863-.085-.387-.383-1.345.312-1.52.198-.052.397.036.539.12.126.083.254.116.51.003.24-.116.608-.194 1.048-.197-.071-.132-.114-.32-.17-.565-.213-.975-.184-2.851-.015-3.774.044-.184.185-.231.397-.207.24.03.454.101.553.23.17.2.141.358-.1 1.117a6.676 6.676 0 0 0-.297 2.275c.015.414.07.717.128.94.042.1 0 .242-.141.255a1.34 1.34 0 0 0-.496.155c-.044.035-.213.181-.384.293a1.356 1.356 0 0 1-.665.227c-.213.006-.298-.026-.51-.084-.185-.052-.327.009-.411.12a.533.533 0 0 0-.085.403c.014.242.113.441.198.568.213.343.213.697.198 1.075-.028 1.017-.1 1.743.142 1.872.199.094.368-.123.624-.14.34-.019.297.673.397.48.084-.157.254-.124.24.063"/><path d="M111.283 27.287c.014.787-.41 1.1-.92 1.149-.582.058-1.43-.249-1.728-.285-.298-.032-.37.024-.482.146-.128.122-.397.458-.425.762 0 .174 0 .646.056.994.043.352.694.31.694.31-.269.038-.424.275-.467.384-.057.203.014.51.014.51-.085-.226-.198-.407-.425-.417-.099-.006-.283.052-.467.146-.213.109-.156-.527-.142-.988.014-.468.07-.885-.014-1.34-.043-.274.396-.358.51-.43.127-.08.198-.199.241-.367.056-.198.212-.372.367-.539.27-.291.553-.485.893-.52.043 0 .227-.016.327.19.283.569.567.671.821.766.071.026-.156.349-.368.368.098.045.425.103.736 0 .284-.094.425-.41.425-.41.114-.053.283-.24.354-.43"/><path d="M109.853 30.911s-.142.1-.17.33c-.015.19 0 .377-.03.39-.04.007-.04 0-.07-.177a.795.795 0 0 0-.255-.482c-.127-.116-.439-.148-.382-.006.057.14.07.298.057.442-.029.223-.185.414-.227.247-.057-.17-.27-.415-.566-.428 0 0-.1-.258.042-.48.17-.294.722-.316.949-.284.198.029.58.19.652.448m.552.694c.043.19-.07.504-.198.603-.141.107-.156 0-.127-.115.041-.123-.071-.227-.128-.265-.043-.032-.1-.048-.1-.203 0-.16.029-.539.185-.539.184 0 .34.329.368.52"/><path d="M109.371 31.415c.057.168.099.45.071.62-.043.174-.07.225-.129.074-.055-.158-.21-.268-.155-.4a.722.722 0 0 0 0-.52c.014-.103.155.107.213.226m-.737.575c0 .118-.014.185-.084.255-.043.057-.1.055-.129-.088-.014-.087-.042-.241-.112-.29 0 0 .098-.12.042-.417.184.127.297.378.283.54m2.409-26.57L111 4.488h.397l-.043.932zm.877.161l-.296-.123.31-.848.015-.03.355.155zm.228.136l.581-.681.029-.023.283.271-.667.655zm.368.41l.78-.464.013-.017.198.349-.835.416zm.198.507l.893-.161.028-.003.057.39-.921.093zm.057.629h.935v.375h-.935V7.28zm-2.281-1.682l-.396-.846.34-.141.029-.014.311.878zm-.468.359l-.665-.675.269-.251.014-.02.624.724zm-.282.471l-.865-.426.185-.326.013-.02.808.488zm-.1.542l-.963-.092.056-.363v-.029l.95.164zm-.014.685h-.978v-.375h.978zm2.437.419c0 .52-.255.598-.44.598-.183 0-.34-.078-.34-.316V7.85c0-.158.113-.31.255-.384.128-.055.2-.2.213-.335 0-.091.029-.094.071-.04.142.171.24.513.24.965m.143-.186c0-.471-.199-.79-.27-.858-.07-.069-.014-.1.057-.072.213.08.426 0 .538-.064 0 0 .113-.116.113.336 0 .538-.255.832-.353.877-.028.023-.085.052-.085-.022zm-1.431.785c-.17 0-.425-.078-.425-.598 0-.451.084-.794.226-.965.042-.055.07-.052.07.039.015.135.086.281.213.336.142.073.255.226.255.384v.487c0 .24-.155.317-.34.317"/><path d="M110.745 7.128v-.575c0-.032-.027-.064-.057-.064h-.75c-.029 0-.029-.04-.029-.062.199-.52.708-.884 1.29-.884.58 0 1.105.365 1.288.884 0 .023 0 .062-.028.062h-.75c-.029 0-.057.032-.057.064v.575c0 .025-.028.061-.057.061h-.779c-.043 0-.071-.036-.071-.061"/><path d="M110.462 7.011c-.07.069-.255.388-.255.86v.196c-.015.074-.056.046-.1.023-.098-.045-.353-.34-.353-.878 0-.452.113-.336.113-.336.128.064.34.145.538.064.084-.028.128.003.057.071m8.926 5.875c-.029.007-.057.014-.071.014-.043.006-.34.028-.34-.188 0-.17.227-.187.34-.187a.18.18 0 0 1 .056.006c.1.016.283.071.482.181a1.573 1.573 0 0 1-.467.174m-8.246 5.794v.246c0 .01-.014.022-.028.022h-.312c-.014 0-.014-.013-.014-.022v-.32c0-.016 0-.028.014-.028h.312c.014 0 .028.012.028.028v.09h.199v-.487s-.992.214-1.587-.532c-.03-.035-.07 0-.07.078 0 .076.027.445-.285.503 0 0 .326.12.496.351.142.181.256.501.256 1.101v.778c0 .484.07.963.368.963.651 0 .822.144.822.144.14 0 .17-.245.17-.394v-.306h-.37v.248c0 .01-.013.024-.027.024h-.312c-.014 0-.014-.014-.014-.024v-.326c0-.012 0-.022.014-.022h.312c.014 0 .028.01.028.022v.094l.369.006v-.694h-.37v.158c0 .01-.013.024-.027.024h-.312c-.014 0-.014-.013-.014-.024v-.325c0-.01 0-.023.014-.023h.312c.014 0 .028.013.028.023v.203h.369v-.752h-.37v.161c0 .017-.013.026-.027.026h-.312c-.014 0-.014-.01-.014-.026v-.326c0-.009 0-.019.014-.019h.312c.014 0 .028.01.028.02v.18h.369v-.517c0-.123-.071-.219-.128-.245l-.042-.023v-.055l-.2-.003m-3.441 8.803c-.072.078-.185.316-.227.426-.043.116-.156.162-.227.184a.814.814 0 0 0-.255.133c-.07.052-.156.052-.199-.01-.085-.117-.099-.18-.155-.32-.043-.112-.058-.352 0-.429.042-.077.183-.107.396-.039.213.061.426.058.638-.02.07-.025.085-.002.028.075m7.509-4.683c-.071.364-.071.723.028.891.114.203.368.271.482.283.128.01.496.02.85.036 1.048.052 1.572.445 1.46.575-.043.045-.128.08-.327.019-.155-.045-.694-.285-1.318-.271-.34.003-.864.159-1.175.274-.312.117-.269-.174-.269-.255v-.539c-.043-1.385-.553-1.876-.553-1.876.071.06.397.098.454.084.297-.074.51-.228.608-.46-.013.334-.17.95-.24 1.239m14.21-14.762l-.935.003v.378h.935v-.362zm-.935.775v.378l1.062-.003v-.375h-1.048zm0 1.539v.378h5.058v-.378h-5.044zm1.134-.772l-1.133.004v.378h1.36l-.227-.372zm2.947-1.542v.381h.978v-.378l-.965-.003zm.977.775h-1.106v.375l1.106.003v-.362zm0 2.317h-1.26l.085.033c0 .003.268.142.467.346h.708v-.378m-.028 1.5v-.706h-.34c.155.21.269.43.34.706m-1.148-3.051l-.24.379 1.416.003V9.58h-1.163zm-1.842.191v-.833l-.212-.174-.128.143.1.806zm.467.385a.68.68 0 0 0 .312-.584v-.76h-.623v.76a.68.68 0 0 0 .312.584m.453-.385v-.833l.213-.174.127.143-.085.806zm.355 3.167c0-.26-.213-.297-.384-.348a1.719 1.719 0 0 1-.736-.45c-.198-.186-.44-.376-.75-.376a1.94 1.94 0 0 0-.866.183c-.339.143-.65.298-.623.63.043.303-.041.555-.085.674-.056.123-.098.364.172.478.212.097.466.142.92.113.65-.045 1.36-.258 1.884-.487.24-.104.468-.226.468-.417m-1.474 1.111c-.085.048-.114.13-.085.251.042.124.141.517.793 1.114.242.22.638.488.963.504.34.02.454-.155.454-.349v-.322c0-.124-.085-.281-.228-.314-.311-.067-.863-.33-1.047-.798-.071-.144-.17-.257-.369-.226a1.48 1.48 0 0 0-.481.14"/><path d="M129.602 11.511c.78-.083.907.104 1.36.491.369.313.695.375.723.297.099-.158-.198-.36-.326-.484-.114-.122-.014-.24.17-.136.198.103.61.513.68.875l.014.003v.017c.014.113.057.494-.254.758-.157.129-.284.19-.469.268-.141.058-.226.29-.056.516.184.23.496.471.893.578.227.058.354.226.354.472v2.546c0 .187.085.414.354.414.255 0 .453.064.453-.172v-4.011c0-1.731-.977-2.432-1.317-2.609-.637-.346-1.672-.52-2.806-.281-.708.149-1.19.436-1.444.671 0 0 .24.071.41.304 0 0 .454-.394 1.261-.517m-.977 3.173s.566-.009.92-.329c.128-.107.057-.254-.127-.254-.198 0-.495.035-.793-.036v.62"/><path d="M128.71 14.936c.042.103.113.249.17.271 0 0 .141.042.326.048.126 0 .241-.009.439-.15.127-.097.325-.295.396-.362.071-.085.114-.158.043-.278-.057-.12-.185-.143-.326-.02-.156.12-.31.23-.497.298-.169.057-.297.09-.453.093-.056.007-.112.049-.098.1"/><path d="M129.063 15.989c.312.067.567-.078.71-.155.155-.078.524-.372.608-.455.128-.124.142-.274.057-.381-.084-.103-.212-.139-.312-.072-.098.072-.27.252-.396.343-.156.1-.355.193-.538.174 0 0-.171-.012-.27-.048s-.156.02-.141.174c.014.159.127.384.282.42"/><path d="M129.39 16.189c.17-.017.368-.12.496-.18.198-.114.538-.383.68-.489.128-.102.269-.074.34.036.156.258-.384.64-.68.83-.298.187-.538.242-.779.225-.241-.016-.41-.16-.396-.422a.9.9 0 0 0 .338 0m2.026-.181c-.07-.107-.268-.135-.382 0-.114.136-.581.491-.85.62-.256.129-.425.19-.709.175 0 0-.042.138.071.257.1.12.355.139.68.072a1.79 1.79 0 0 0 .865-.453c.227-.226.439-.5.325-.67"/><path d="M132.337 16.25c.014-.071 0-.107-.128-.088-.127.017-.142.01-.212.017-.1.004-.212 0-.312.12a3.41 3.41 0 0 1-.68.73c-.24.19-.694.325-.977.309 0 0-.1.103 0 .223.084.126.368.126.566.09.184-.035.708-.223 1.12-.623.269-.258.509-.49.623-.778"/><path d="M132.436 16.647c-.085-.032-.156.038-.256.178-.098.12-.368.458-.764.704-.34.216-.765.277-.921.264-.156-.02-.127.081.057.132.184.055.609.077.949 0 .34-.078.608-.249.779-.472.127-.164.183-.244.213-.425 0 0 .028-.346-.057-.381m-4.478-2.127s.128-.258.455-.507c0 0-.213-.058-.34-.278 0 0-.213.304-.851.365 0 0 .44.138.736.42m5.725 4.28c0-.442-.255-.442-.44-.442-.184 0-.467.116-.652.281-.183.161-.34.368-.34 1.085 0 .713.086 1.961-.552 1.961-.722 0-.893.091-1.048.62-.156.53-.213 1.318-.213 2.358 0 1.038.524 2.976 1.26 2.976.738 0 1.262-.953 1.318-2.225.058-1.256-.183-1.882-.396-2.53-.17-.517-.17-.801-.015-1.026.128-.189.34-.247.567-.298.24-.052.51-.145.51-.635V18.8m.355 2.892v-1.65c.183.443.92 1.65 2.267 1.65.269 0 .963-.064 1.558-.659.595-.577.906-1.464.92-2.637l.015-.887c.014-2.618.014-5.471.624-6.95.268-.646.722-1.472 1.728-1.472.453.003.807.332.807.732a.726.726 0 0 1-.722.725.726.726 0 0 1-.24-.043c-.015 0-.015-.003-.015-.003-.015-.006-.029-.01-.029-.017-.382-.141-.736-.068-.978.41-.65 1.312-.58 4.352-.608 6.624l-.014.927c-.044 3.034-1.942 3.848-3.046 3.848-.553 0-1.02-.1-1.432-.317-.268-.11-.481-.11-.623-.08-.099.006-.212-.033-.212-.2m-3.387.009c-.254 0-.467-.061-.467-.458v-2.399c0-.183 0-.302.114-.416a.464.464 0 0 0 .155-.368l.185.022v.46s-.2.073-.2.44v2.354c0 .168.1.343.214.365M130 20.46c-.043-.36-.596-.578-1.219-.62-.652-.049-1.346.115-1.687.368-.354.251-.439.71-.283 1.094.142.345.425.541.637.523.227-.02.355-.042.568-.226.315-.26.711-.4 1.119-.397.326 0 .963.038.864-.743"/><path d="M133.243 26.586c.142.02.297.048.496.155.043.035.213.181.383.293.198.126.425.217.666.226.212.007.282-.025.51-.083.184-.052.326.009.411.119a.53.53 0 0 1 .084.403 1.31 1.31 0 0 1-.198.569c-.213.342-.213.697-.198 1.074.028 1.018.099 1.744-.141 1.872-.2.095-.384-.122-.638-.137-.326-.02-.283.67-.384.477-.084-.156-.253-.123-.24.064.014.184.255.494.695.54.396.045 1.033-.105 1.161-.769.071-.31.142-.82.114-1.617-.015-.92-.043-1.469.042-1.862.071-.388.383-1.346-.311-1.52-.199-.054-.397.035-.539.119-.128.084-.254.116-.51.003-.24-.116-.624-.194-1.048-.197.07-.132.113-.32.17-.565.213-.975.184-2.85.014-3.774-.043-.184-.184-.232-.383-.207-.254.03-.467.101-.567.23-.17.2-.14.358.1 1.117.254.82.325 1.582.298 2.275a4.395 4.395 0 0 1-.129.94c-.027.1 0 .242.142.255"/><path d="M135.057 30.986c-.185-.094-.368-.152-.467-.146-.228.01-.341.19-.425.417 0 0 .084-.307.013-.51-.042-.11-.198-.345-.467-.384 0 0 .637.041.694-.31.057-.348.057-.82.057-.994-.029-.304-.297-.64-.425-.762-.114-.122-.184-.178-.482-.146-.297.036-1.147.343-1.728.285-.51-.05-.935-.362-.921-1.15.07.19.241.378.354.43 0 0 .142.316.425.41.311.103.637.045.736 0-.212-.02-.438-.342-.367-.368.253-.094.537-.197.821-.766.099-.206.283-.19.326-.19.34.036.623.23.893.52.155.168.325.342.368.54.042.167.113.286.241.367.114.071.552.155.495.43-.07.454-.014.872 0 1.339.015.461.071 1.098-.14.988"/><path d="M133.937 30.747c-.169-.293-.722-.316-.949-.283-.199.028-.58.19-.651.447 0 0 .142.1.17.329.013.191 0 .379.028.392.042.006.042 0 .07-.178a.808.808 0 0 1 .255-.482c.128-.115.44-.148.384-.006a.945.945 0 0 0-.057.442c.028.224.183.413.226.246.057-.168.27-.414.567-.426 0 0 .1-.258-.043-.481m-1.785.339c.155 0 .185.38.185.54 0 .153-.057.17-.114.202-.042.039-.156.143-.113.265.028.116.015.223-.127.116-.142-.1-.241-.413-.199-.604.029-.19.185-.52.368-.52"/><path d="M133.031 31.19c-.014-.105-.17.106-.213.224-.056.17-.098.45-.07.62.042.175.07.227.127.075.042-.159.213-.268.156-.4a.722.722 0 0 1 0-.52m.807.261a.718.718 0 0 0-.283.54c0 .119.014.185.085.255.056.057.1.055.127-.088.015-.087.043-.24.114-.29 0 0-.1-.12-.043-.416m-3.046-26.964l.043.932h.312l.042-.932h-.368zm-.552.093l-.354.155.381.847.299-.123-.312-.849zm-.808.434l-.284.27.667.655.24-.222-.595-.681zm-.552.632l-.185.348.823.417.155-.284-.765-.465zm-.326.824l-.057.39.92.093.057-.319-.892-.162zm.864.793h-.935v.375h.935V7.28zm2.31-2.683l-.312.879.283.123.397-.846-.34-.142zm.822.414l-.624.723.227.222.68-.674-.27-.251zm.566.646l-.822.488.156.284.864-.427-.184-.326zm.34.83l-.95.164.043.319.964-.093-.057-.361zm-.892.793v.375h.978v-.375h-.965zm-2.197-.171c.043-.055.071-.052.071.039.014.135.085.28.198.336.156.073.269.226.269.384v.487c0 .239-.17.316-.34.316-.184 0-.438-.077-.438-.596 0-.453.098-.795.24-.966m-.708-.216c.113.064.325.145.538.064.071-.028.114.003.057.072-.07.067-.27.387-.27.858v.197c0 .074-.055.046-.098.023-.085-.046-.34-.339-.34-.879 0-.45.113-.335.113-.335m1.955.216c-.043-.055-.07-.052-.084.039a.392.392 0 0 1-.199.336.434.434 0 0 0-.256.384v.487c0 .239.157.316.34.316.172 0 .425-.077.425-.596 0-.453-.098-.795-.226-.966"/><path d="M130.99 7.19h.383c.043 0 .071-.037.071-.062v-.574c0-.033.029-.065.057-.065h.752c.027 0 .027-.04.027-.062a1.383 1.383 0 0 0-1.29-.884c-.595 0-1.104.365-1.288.884-.015.023 0 .062.028.062h.75c.029 0 .057.032.057.065v.574c0 .025.029.061.057.061h.397"/><path d="M132.322 6.876c-.126.064-.34.145-.538.064-.084-.028-.127.003-.057.072.057.067.256.387.256.858v.197c.014.074.056.046.099.023.085-.046.354-.339.354-.879 0-.45-.114-.335-.114-.335m-11.235 8.264c-.07.077-.764.778-.764.778l-.809-.814v1.562c.17.177.738.743.809.811.07-.078.764-.785.764-.785s.724.726.794.8c.07-.06.58-.58.793-.793v-1.56l-.793.795s-.708-.717-.794-.795"/><path d="M122.519 14.449a.478.478 0 0 0 .155.1v-1.14l-.792.798s-.71-.72-.795-.797c-.07.077-.764.778-.764.778l-.808-.81v1.17a.395.395 0 0 0 .155-.1s.142.32-.113.536c.213.22.695.701.766.762.07-.077.764-.778.764-.778s.724.717.795.798c.056-.061.538-.54.764-.768-.284-.213-.127-.55-.127-.55"/><path d="M121.087 13.239s.724.72.794.794c.07-.062.58-.579.793-.791V13c-.438-.133-.538-.278-.538-.278s.084-.152.538-.287v-.753l-.793.795s-.708-.716-.794-.798c-.07.078-.764.781-.764.781l-.809-.813v.785c.455.138.539.29.539.29s-.114.145-.539.281v.203c.17.177.738.742.809.81.07-.078.764-.777.764-.777m0-3.461s.724.72.794.797c.07-.065.58-.581.793-.794v-1.56l-.793.795s-.708-.72-.794-.794c-.07.074-.764.778-.764.778l-.809-.81v1.555c.17.182.738.746.809.814.07-.077.764-.781.764-.781"/><path d="M122.462 11.008c-.043-.35.042-.533.212-.652v-.403l-.793.793s-.709-.716-.794-.796c-.07.08-.765.777-.765.777l-.807-.81v.436c.156.115.255.3.213.655 0 0-.072-.094-.213-.14v.608c.17.177.736.746.807.807l.765-.775s.723.72.794.798c.07-.061.58-.582.793-.798v-.636a.469.469 0 0 0-.212.136"/><path d="M128.115 12.263c-.157-.27-.553-.394-1.034-.254-.482.138-1.247.277-1.742.277-.512 0-.809-.1-.965-.326-.084-.152-.141-.384-.269-.6-.084-.149-.269-.284-.496-.365 0 0-.042-.633-.651-.581a.283.283 0 0 0-.071.016c-.199.048-.311.204-.311.345 0 0 .07-.097.24-.09.028 0 .056.01.085.019.127.055.184.245.113.369a.662.662 0 0 0-.099.154.436.436 0 0 0-.028.414s.198-.137.397-.085c0 0-.071-.028-.086-.144-.028-.114.128-.168.242-.165.155.006.453.09.581.439.113.344.255.713.85.833.367.07.893.148 1.147.213.283.07.538.165.567.31.014.148-.199.274-.425.335-.199.059-.595.11-.865.11-.552 0-.921-.045-1.19.106-.1.059-.212.152-.269.227-.156.193-.298.26-.41.283-.142.032-.242-.057-.213-.174.028-.087.07-.117.07-.117-.24.03-.396-.083-.396-.083a.406.406 0 0 0 .028.378c.028.042.086.135.086.135.084.142.056.359-.086.436-.028.01-.056.02-.085.026-.156.03-.254-.048-.254-.048.028.206.169.3.34.31a.288.288 0 0 0 .042.002c.553-.003.722-.607.722-.607.199-.406.44-.53.581-.584.17-.055.369-.067.892.049.454.096.865.135 1.22.116 1.004-.061 1.43-.29 1.643-.616.212-.32.24-.807.099-1.063"/><path d="M122.845 13.038c-.029.042-.044.097-.029.197.015.168.198.378.553.378.382 0 .765-.259.765-.914 0-.662-.383-.92-.765-.92-.355 0-.538.206-.553.382a.344.344 0 0 0 .029.212c.297 0 .538.13.538.323 0 .243-.227.368-.538.342"/><path d="M122.335 12.713c.163.092.34.155.524.186.071.007.353.03.353-.186 0-.172-.226-.189-.353-.189 0 0-.03 0-.043.007a1.637 1.637 0 0 0-.481.182m8.713 8.247v.184c0 .01.014.022.027.022h.312c.015 0 .015-.013.015-.022v-.327c0-.012 0-.022-.015-.022h-.312c-.013 0-.027.01-.027.022v.155l-.369.004v-.8l.369-.004v.21c0 .01.014.023.027.023h.312c.015 0 .015-.014.015-.024v-.325c0-.01 0-.023-.015-.023h-.312c-.013 0-.027.013-.027.023v.136h-.369v-.717h.369v.193c0 .017.014.027.027.027h.312c.015 0 .015-.01.015-.027v-.326c0-.009 0-.02-.015-.02h-.312c-.013 0-.027.011-.027.02v.161h-.369v-.496c0-.123.071-.22.128-.245l.042-.024v-.06h.199v.249c0 .009.014.021.027.021h.312c.015 0 .015-.012.015-.021v-.32c0-.017 0-.03-.015-.03h-.312c-.013 0-.027.013-.027.03v.086l-.2-.003v-.48s.993.213 1.573-.533c.043-.036.085 0 .085.077 0 .078-.027.445.284.504 0 0-.326.12-.496.352-.142.18-.256.5-.256 1.101v.777c0 .484-.07.963-.368.963-.65 0-.821.145-.821.145-.141 0-.17-.245-.17-.395v-.234zm3.47 6.45c.213.077.44.08.637.019.213-.069.341-.039.412.038.043.078.028.317-.014.43-.057.138-.071.203-.156.319-.043.061-.128.061-.198.01a.806.806 0 0 0-.256-.132c-.07-.023-.184-.068-.226-.185-.043-.11-.156-.348-.227-.425-.07-.078-.043-.101.028-.075m-7.778-5.849c.1.232.312.388.61.461.057.013.382-.025.452-.083 0 0-.509.49-.552 1.876 0 .209-.014.341 0 .539 0 .08.043.37-.282.254-.299-.116-.823-.27-1.163-.274-.624-.013-1.161.226-1.317.27-.198.062-.284.027-.326-.018-.114-.13.41-.523 1.459-.575.355-.016.723-.026.835-.035.142-.014.384-.082.497-.284.099-.169.099-.527.015-.892-.057-.287-.213-.903-.228-1.24m-10.668-8.499c0 .091.44.26 1.204.201.184-.02.496 0 .624.042 0 0-.142-.359-.07-.69 0 0-.397.154-.625.196-.34.058-1.133.12-1.133.251m10.102 0c0 .091-.453.26-1.204.201-.199-.02-.511 0-.624.042 0 0 .128-.359.071-.69 0 0 .383.154.623.196.326.058 1.134.12 1.134.251"/><path d="M123.355 23.097c-.071-.143-.327-.274-.455-.274 0 0-.013.002-.028.002a.545.545 0 0 0-.367.148s.17.069.297.214c.043.048.085.106.128.17 0 0 .155-.2.425-.26m-.483-1.744a.204.204 0 0 0 .058.036c.098.081.155.265.155.265s.142-.188.482-.21c-.157-.262-.438-.39-.58-.39-.029 0-.057.003-.087.006a.662.662 0 0 0-.324.162s.127.003.296.13m.383.815c-.085-.149-.197-.28-.312-.323-.013-.016-.056-.026-.084-.033-.2-.038-.354.088-.354.162.142.036.24.11.311.188.05.044.092.095.127.151.128-.116.312-.145.312-.145m.1-.21c.127.125.112.196.112.196.355.014.596.29.596.29.07-.218.127-.553-.142-.75-.27-.194-.652-.023-.75.07-.1.094.042.062.184.194m-.341.594c.241.013.468.313.567.523.128-.046.581.2.524-.2-.042-.236-.255-.514-.51-.562a.935.935 0 0 0-.652.146c-.071.048-.056.08.07.093m6.263-1.124c-.85 0-1.275.533-1.444.814-.37.594-.398 1.786-.37 2.085.043.417-.155.507-.268.524a.827.827 0 0 1-.44-.088c-.51-.216-1.09-.3-1.671-.122-.199.055-.666.27-.935.19-.213-.064-.326-.21-.185-.439.227-.38 1.29-.626 2.04-.597.298.01.652-.007.766-.233.1-.171.085-.348-.1-1.139-.268-1.188-.07-1.798-.07-1.798-.227.23-.27.581-.27.858-.028.478.043 1.195.114 1.45s.043.458-.354.553c-.383.09-.723.138-1.134.067-.311-.055-.623-.494-.665-.736.014.083.014.316-.128.42-.114.077-.241.066-.397.028a.75.75 0 0 0-.722.194c-.241.252-.227.755-.1 1.02.128.275.412.645.92.645.54 0 1.56-.074 2.042-.051.524.026.779.087 1.104.11.185.013.454-.036.61.035.142.058.297.079.425-.003.128-.083.17-.281.142-.452 0 0-.114-.859-.057-1.65.028-.203.1-.319.354-.18.256.138.638.255.963.255.312 0 .68-.142.808-.858.057-.34-.128-.902-.978-.902m-9.96 1.398l-.042-.002c-.113 0-.368.131-.439.274.269.06.44.26.44.26a.672.672 0 0 1 .113-.17c.127-.145.283-.214.283-.214a.489.489 0 0 0-.354-.148m-.213-1.17s.057-.185.17-.266c.014-.014.029-.023.043-.036.17-.128.297-.131.297-.131a.666.666 0 0 0-.326-.162.799.799 0 0 0-.084-.007c-.142 0-.44.129-.568.39.326.023.468.211.468.211m.581.32c0-.075-.155-.201-.354-.163a.84.84 0 0 0-.1.033c-.099.043-.212.174-.297.323 0 0 .184.03.312.145 0 0 .042-.074.128-.151a.607.607 0 0 1 .311-.188m-.964.18s-.014-.07.114-.196c.142-.132.283-.1.184-.194-.085-.093-.481-.264-.751-.07-.269.197-.213.532-.142.75 0 0 .241-.276.595-.29m-.113.16c-.269.047-.482.325-.524.56-.056.4.397.155.524.201.086-.21.326-.51.567-.523.128-.014.142-.045.07-.093a.911.911 0 0 0-.637-.146m-.184.952c-.156.038-.283.049-.396-.029-.142-.103-.142-.336-.128-.42-.043.243-.354.682-.68.737-.396.071-.737.022-1.12-.067-.396-.095-.424-.298-.353-.553.056-.255.142-.972.113-1.45 0-.277-.042-.628-.27-.858 0 0 .198.61-.07 1.798-.184.79-.198.968-.1 1.14.115.225.469.241.766.232.764-.03 1.813.216 2.04.597.141.23.028.375-.184.44-.27.08-.738-.136-.935-.191-.581-.178-1.163-.094-1.673.122a.851.851 0 0 1-.44.088c-.113-.017-.31-.107-.268-.524.03-.3 0-1.491-.368-2.085a1.634 1.634 0 0 0-1.444-.814c-.851 0-1.036.563-.978.902.112.716.482.858.806.858.327 0 .71-.117.964-.255.255-.139.326-.023.34.18.072.791-.056 1.65-.056 1.65-.014.171.028.369.155.452.128.082.284.061.426.003.155-.071.424-.022.609-.035.34-.023.58-.084 1.105-.11.482-.023 1.487.051 2.04.051.51 0 .793-.37.92-.644.129-.266.157-.77-.099-1.02a.756.756 0 0 0-.722-.195m2.664.523c-.071.078-.766.781-.766.781l-.807-.816v1.559c.17.177.737.745.807.81.071-.074.766-.774.766-.774s.723.717.793.79c.07-.058.581-.578.793-.79v-1.56l-.793.798s-.708-.72-.793-.798m1.246-.723c.029-.165.17-.274.34-.345v-.5a.255.255 0 0 0-.098-.069l-.695.704-.694-.707-.057-.054-.042-.035-.085.086c-.212.21-.681.69-.681.69l-.694-.693c-.042.02-.07.045-.113.08v.498c.17.071.312.18.34.345 0 0-.198.006-.34.195v.326c.17.173.737.745.807.806.071-.074.766-.775.766-.775s.723.72.793.795c.07-.062.581-.582.793-.795v-.365c-.155-.18-.34-.187-.34-.187m-2.521-1.736s-.156-.014-.298.074v.268a.49.49 0 0 1 .34.41s-.042-.003-.113.013l.057.048.481.484c.015.02.029.033.042.042.044-.045.312-.313.511-.523.013-.016.043-.031.056-.05l.199-.204.213.203.056.054.524.533c.043-.039.297-.3.524-.53.029-.019.043-.037.057-.055-.07-.018-.128-.016-.128-.016a.479.479 0 0 1 .34-.403v-.277c-.155-.085-.311-.07-.311-.07.028-.162.156-.276.311-.353v-.646l-.793.795s-.708-.72-.793-.795c-.071.075-.766.774-.766.774l-.807-.81v.678c.156.081.284.195.298.356m.509-.395c.071-.076.766-.777.766-.777s.723.72.793.794c.07-.058.581-.578.793-.79V18.6l-.793.791s-.708-.717-.793-.794c-.071.077-.766.781-.766.781l-.807-.81v1.556c.17.177.737.745.807.81"/></svg>