<svg xmlns="http://www.w3.org/2000/svg" viewBox="0 0 192 196"><g fill="none" fill-rule="evenodd"><g fill="#B5D0E5" transform="rotate(90 73.499 73.999)"><ellipse cx="7.35" cy="7.33" rx="7.35" ry="7.33"/><ellipse cx="95.55" cy="7.33" rx="7.35" ry="7.33"/><ellipse cx="51.45" cy="7.33" rx="7.35" ry="7.33"/><ellipse cx="139.65" cy="7.33" rx="7.35" ry="7.33"/></g><g fill="#B5D0E5" transform="rotate(90 29.52 30.02)"><ellipse cx="7.35" cy="7.33" rx="7.35" ry="7.33"/><ellipse cx="95.55" cy="7.33" rx="7.35" ry="7.33"/><ellipse cx="51.45" cy="7.33" rx="7.35" ry="7.33"/><ellipse cx="139.65" cy="7.33" rx="7.35" ry="7.33"/></g><g fill="#B5D0E5" transform="rotate(90 95.489 95.989)"><ellipse cx="7.35" cy="7.33" rx="7.35" ry="7.33"/><ellipse cx="95.55" cy="7.33" rx="7.35" ry="7.33"/><ellipse cx="51.45" cy="7.33" rx="7.35" ry="7.33"/><ellipse cx="139.65" cy="7.33" rx="7.35" ry="7.33"/></g><g transform="rotate(90 51.509 52.009)"><ellipse cx="7.35" cy="7.33" fill="#B5D0E5" rx="7.35" ry="7.33"/><ellipse cx="98.2" cy="9.973" fill="#ED2E26" rx="10" ry="9.973"/><ellipse cx="51.45" cy="7.33" fill="#B5D0E5" rx="7.35" ry="7.33"/><ellipse cx="139.65" cy="7.33" fill="#B5D0E5" rx="7.35" ry="7.33"/></g><g fill="#B5D0E5" transform="rotate(90 7.53 8.03)"><ellipse cx="7.35" cy="7.33" rx="7.35" ry="7.33"/><ellipse cx="95.55" cy="7.33" rx="7.35" ry="7.33"/><ellipse cx="51.45" cy="7.33" rx="7.35" ry="7.33"/><ellipse cx="139.65" cy="7.33" rx="7.35" ry="7.33"/></g><g fill="#B5D0E5" transform="rotate(90 5.5 186)"><ellipse cx="7.493" cy="7.33" rx="7.493" ry="7.33" transform="translate(0 44.002)"/><ellipse cx="7.493" cy="7.33" rx="7.493" ry="7.33" transform="translate(0 131.96)"/><ellipse cx="7.493" cy="7.33" rx="7.493" ry="7.33" transform="translate(0 .023)"/><ellipse cx="7.493" cy="7.33" rx="7.493" ry="7.33" transform="translate(0 87.982)"/><ellipse cx="7.493" cy="7.33" rx="7.493" ry="7.33" transform="translate(0 175.94)"/></g></g></svg>