<svg xmlns="http://www.w3.org/2000/svg" viewBox="0 0 168 177"><g fill="#B5D0E5" fill-rule="evenodd" opacity=".3"><path d="M20.385 88.137L.642 2.098 5.827.885l20.021 87.248-20.019 87.752-5.189-1.206z"/><path d="M40.341 88.137L20.596 2.098 25.782.885l20.022 87.248-20.02 87.752-5.188-1.206z"/><path d="M60.296 88.137L40.552 2.098 45.738.885 65.76 88.133l-20.021 87.752-5.187-1.206z"/><path d="M80.252 88.137L60.508 2.098 65.695.885l20.021 87.248-20.021 87.752-5.187-1.206z"/><path d="M100.209 88.137L80.466 2.098 85.651.885l20.021 87.248-20.019 87.752-5.189-1.206z"/><path d="M120.165 88.137L100.42 2.098l5.186-1.213 20.022 87.248-20.02 87.752-5.188-1.206z"/><path d="M141.17 88.137L121.428 2.098l5.184-1.213 20.022 87.248-20.02 87.752-5.187-1.206z"/><path d="M161.126 88.137L141.383 2.098 146.57.885l20.02 87.248-20.02 87.752-5.187-1.206z"/></g></svg>