<svg xmlns="http://www.w3.org/2000/svg" viewBox="0 0 176 244"><g fill="none" fill-rule="evenodd"><circle cx="88.5" cy="226.5" r="17.5" fill="#ED2E26" transform="matrix(1 0 0 -1 0 453)"/><g fill="#B5D0E5" opacity=".3"><path d="M88.363 19.885L174.402.142l1.213 5.185-87.248 20.021L.615 5.329 1.821.14z"/><path d="M88.363 39.841l86.039-19.745 1.213 5.186-87.248 20.022L.615 25.284l1.206-5.188z"/><path d="M88.363 59.796l86.039-19.744 1.213 5.186L88.367 65.26.615 45.239l1.206-5.187z"/><path d="M88.363 79.752l86.039-19.744 1.213 5.187-87.248 20.021L.615 65.195l1.206-5.187z"/><path d="M88.363 99.709l86.039-19.743 1.213 5.185-87.248 20.021L.615 85.153l1.206-5.189z"/><path d="M88.363 119.665l86.039-19.745 1.213 5.186-87.248 20.022-87.752-20.02 1.206-5.188z"/><path d="M88.363 140.67l86.039-19.742 1.213 5.184-87.248 20.022-87.752-20.02 1.206-5.187z"/><path d="M88.363 160.626l86.039-19.743 1.213 5.187-87.248 20.02L.615 146.07l1.206-5.187z"/></g></g></svg>