<svg xmlns="http://www.w3.org/2000/svg" viewBox="0 0 277 272"><g fill="none" fill-rule="evenodd" transform="translate(1 1)"><ellipse cx="10.363" cy="72.458" stroke="#B5D0E5" stroke-width="2" rx="10.363" ry="10.351"/><ellipse cx="134.722" cy="72.458" stroke="#B5D0E5" stroke-width="2" rx="10.363" ry="10.351"/><ellipse cx="72.542" cy="72.458" stroke="#B5D0E5" stroke-width="2" rx="10.363" ry="10.351"/><ellipse cx="196.901" cy="72.458" stroke="#B5D0E5" stroke-width="2" rx="10.363" ry="10.351"/><ellipse cx="10.363" cy="196.672" stroke="#B5D0E5" stroke-width="2" rx="10.363" ry="10.351"/><ellipse cx="134.722" cy="196.672" stroke="#B5D0E5" stroke-width="2" rx="10.363" ry="10.351"/><ellipse cx="72.542" cy="196.672" stroke="#B5D0E5" stroke-width="2" rx="10.363" ry="10.351"/><ellipse cx="196.901" cy="196.672" stroke="#B5D0E5" stroke-width="2" rx="10.363" ry="10.351"/><ellipse cx="10.363" cy="10.351" stroke="#B5D0E5" stroke-width="2" rx="10.363" ry="10.351"/><ellipse cx="134.722" cy="10.351" stroke="#B5D0E5" stroke-width="2" rx="10.363" ry="10.351"/><ellipse cx="72.542" cy="10.351" stroke="#B5D0E5" stroke-width="2" rx="10.363" ry="10.351"/><ellipse cx="196.901" cy="10.351" stroke="#B5D0E5" stroke-width="2" rx="10.363" ry="10.351"/><ellipse cx="10.363" cy="134.565" stroke="#B5D0E5" stroke-width="2" rx="10.363" ry="10.351"/><ellipse cx="138.458" cy="138.297" fill="#ED2E26" rx="14.1" ry="14.083"/><ellipse cx="72.542" cy="134.565" stroke="#B5D0E5" stroke-width="2" rx="10.363" ry="10.351"/><ellipse cx="196.901" cy="134.565" stroke="#B5D0E5" stroke-width="2" rx="10.363" ry="10.351"/><ellipse cx="10.363" cy="258.778" stroke="#B5D0E5" stroke-width="2" rx="10.363" ry="10.351"/><ellipse cx="134.722" cy="258.778" stroke="#B5D0E5" stroke-width="2" rx="10.363" ry="10.351"/><ellipse cx="72.542" cy="258.778" stroke="#B5D0E5" stroke-width="2" rx="10.363" ry="10.351"/><ellipse cx="196.901" cy="258.778" stroke="#B5D0E5" stroke-width="2" rx="10.363" ry="10.351"/><ellipse cx="264.234" cy="72.458" stroke="#B5D0E5" stroke-width="2" rx="10.496" ry="10.351"/><ellipse cx="264.234" cy="196.672" stroke="#B5D0E5" stroke-width="2" rx="10.496" ry="10.351"/><ellipse cx="264.234" cy="10.351" stroke="#B5D0E5" stroke-width="2" rx="10.496" ry="10.351"/><ellipse cx="264.234" cy="134.565" stroke="#B5D0E5" stroke-width="2" rx="10.496" ry="10.351"/><ellipse cx="264.234" cy="258.778" stroke="#B5D0E5" stroke-width="2" rx="10.496" ry="10.351"/></g></svg>