<svg xmlns="http://www.w3.org/2000/svg" viewBox="0 0 340 121"><g fill="#B3CEE2" fill-rule="evenodd"><path d="M340 .577h-11.022v11.022H340zM340 37.044h-11.022v11.022H340zM340 73.511h-11.022v11.022H340zM340 109.978h-11.022V121H340zM303.533 109.978h-11.022V121h11.022zM267.066 109.978h-11.022V121h11.022zM230.599 109.978h-11.022V121h11.022zM194.132 109.978H183.11V121h11.022zM157.665 109.978h-11.022V121h11.022zM121.198 109.978h-11.022V121h11.022zM303.533 73.511h-11.022v11.022h11.022zM267.066 73.511h-11.022v11.022h11.022zM230.599 73.511h-11.022v11.022h11.022zM194.132 73.511H183.11v11.022h11.022zM157.665 73.511h-11.022v11.022h11.022zM121.198 73.511h-11.022v11.022h11.022zM303.533 37.044h-11.022v11.022h11.022zM267.066 37.044h-11.022v11.022h11.022zM230.599 37.044h-11.022v11.022h11.022zM194.132 37.044H183.11v11.022h11.022zM157.665 37.044h-11.022v11.022h11.022zM121.198 37.044h-11.022v11.022h11.022zM303.533.577h-11.022v11.022h11.022zM267.066.577h-11.022v11.022h11.022zM230.599.577h-11.022v11.022h11.022zM194.132.577H183.11v11.022h11.022zM157.665.577h-11.022v11.022h11.022zM121.198.577h-11.022v11.022h11.022zM84.731 109.978H73.709V121h11.022zM48.264 109.978H37.242V121h11.022zM11.797 109.978H.775V121h11.022zM84.731 73.511H73.709v11.022h11.022zM48.264 73.511H37.242v11.022h11.022zM11.797 73.511H.775v11.022h11.022zM84.731 37.044H73.709v11.022h11.022zM48.264 37.044H37.242v11.022h11.022zM11.797 37.044H.775v11.022h11.022zM84.731.577H73.709v11.022h11.022zM48.264.577H37.242v11.022h11.022zM11.797.577H.775v11.022h11.022z"/></g></svg>