<svg xmlns="http://www.w3.org/2000/svg" xmlns:xlink="http://www.w3.org/1999/xlink" width="278" height="49" viewBox="0 0 278 49">
  <defs>
    <polygon id="gatwick-airport-a" points=".146 .619 14.947 .619 14.947 15.418 .146 15.418 .146 .619"/>
    <polygon id="gatwick-airport-c" points=".541 .619 15.341 .619 15.341 15.418 .541 15.418 .541 .619"/>
    <polygon id="gatwick-airport-e" points=".798 .619 15.598 .619 15.598 15.418 .798 15.418 .798 .619"/>
    <polygon id="gatwick-airport-g" points="0 49.381 277.559 49.381 277.559 1 0 1"/>
  </defs>
  <g fill="none" fill-rule="evenodd" transform="translate(0 -1)">
    <path fill="#FFF" d="M239.5186,26.8046 C238.2546,28.5506 235.8686,28.6896 235.8686,28.6896 C235.8686,28.6896 234.7796,26.7786 236.2756,25.2686 C236.7356,24.8036 237.2166,24.5236 237.7896,24.4096 C238.1196,24.3456 238.3796,24.3556 238.6906,24.3916 C239.6786,24.5106 240.4596,25.5036 239.5186,26.8046 Z M165.0656,38.7496 C162.2756,40.7066 158.9456,41.5986 155.9766,41.6336 C151.5676,41.6876 150.6606,39.4086 150.9506,36.9286 C151.0606,35.9976 151.4846,34.8886 152.1716,33.7416 C154.2286,30.3096 158.3346,27.3496 160.9336,25.9146 C162.3166,25.1526 168.3706,22.1096 175.6926,22.4386 C176.8696,22.4906 177.6226,22.7666 178.1166,23.1606 C178.7516,23.6686 179.1456,24.6906 178.6866,25.8956 C178.3016,26.9076 177.1416,27.4786 175.8666,27.4486 C174.5276,27.4156 173.6366,26.3906 174.4996,24.8306 C174.9146,24.0836 174.3846,23.8756 173.8436,23.8936 C169.5516,24.0336 165.6556,26.0676 162.9236,28.1586 C158.6716,31.4176 156.2976,35.1356 156.1156,37.4636 C156.0726,38.0006 156.1386,38.4946 156.4186,38.8756 C156.7476,39.3246 157.4726,39.5156 158.3306,39.5146 C159.9826,39.5116 163.3906,39.0756 167.7766,34.6886 C168.4336,34.0316 168.9586,33.3946 169.6816,32.5696 C170.3726,31.7826 171.2586,31.6146 172.6316,31.6006 C173.8266,31.5896 174.5976,31.8746 173.9616,32.7746 C173.3666,33.6196 171.0226,36.7516 171.0256,36.7506 C170.6016,37.3526 169.3626,39.0456 168.9966,39.5296 L169.0406,39.5296 C170.0466,38.9446 171.5656,37.9836 172.6386,37.2606 L175.4956,35.3796 C175.4956,35.3796 176.8966,34.4346 176.8796,34.4466 C177.7866,33.8196 178.7546,33.2876 180.0656,32.7016 C182.0346,31.8056 183.7466,31.3976 185.1516,31.4866 C186.0516,31.5176 186.5036,31.8866 186.7226,32.1896 C186.8486,32.3676 186.9246,32.5776 186.9706,32.8016 L187.0136,32.8016 C187.9966,31.7876 188.4636,31.6426 189.9396,31.6426 C190.8526,31.6426 191.4456,31.7246 191.5886,32.0956 C191.7396,32.4836 191.3886,32.8266 191.2496,32.9916 C190.3516,34.0426 189.3766,35.1296 188.3906,36.3996 C187.4186,37.6516 186.5826,38.8256 186.5826,38.8256 C186.3836,39.1146 186.3026,39.3676 186.3566,39.5296 C186.4046,39.6736 186.6126,39.9306 187.4426,39.5536 C188.2806,39.1736 189.2516,38.5236 190.0626,37.9446 C192.2326,36.3936 193.9776,34.9576 193.9776,34.9576 C194.9376,34.1646 196.2266,32.9596 196.3086,32.8816 L194.9096,32.8836 C194.5696,32.8836 194.3516,32.5946 194.4056,32.2836 C194.4826,31.8466 194.8426,31.6856 195.1836,31.6856 L197.4226,31.6886 C199.2926,29.4966 199.8066,28.9886 200.8016,28.0156 C200.8016,28.0156 202.9896,25.6056 206.4906,25.1036 C206.4906,25.1036 207.7076,24.9036 206.8706,25.7486 C206.1466,26.4796 205.5396,27.0296 204.2716,28.4996 C203.2486,29.6886 202.5186,30.5776 201.6346,31.6936 L204.2926,31.6856 C204.6326,31.6856 204.8516,31.9736 204.7966,32.2836 C204.7186,32.7216 204.3606,32.8836 204.0206,32.8836 L200.7346,32.8766 C199.6646,34.1706 197.4766,37.3746 196.6916,38.8266 C196.5036,39.1736 196.3576,39.4826 196.5526,39.6426 C196.7476,39.8046 197.0966,39.8386 197.8386,39.4086 C198.4316,39.0676 199.1036,38.6096 200.1346,37.8416 C201.0046,37.1946 202.4556,36.1306 203.2636,35.5416 C204.2816,34.8006 205.5576,33.8806 206.8246,32.9966 C208.0226,32.1606 208.6076,31.5996 210.9116,31.6426 C211.9266,31.6616 212.4136,31.7656 212.6036,32.0866 C212.7836,32.3906 212.4466,32.7836 212.2906,32.9566 C211.3616,33.9996 210.3996,35.1796 209.3936,36.4206 C208.5116,37.4976 207.9006,38.2326 207.3346,39.1386 C207.0336,39.6226 207.4556,39.9246 208.1736,39.5756 C209.4056,38.9746 210.5126,38.1256 211.8576,37.0756 C214.4146,35.0766 215.3936,34.0066 217.2586,32.3546 C217.7896,31.8816 218.0336,31.6276 219.7676,31.6366 C220.7266,31.6426 221.0866,31.8276 221.2136,32.1176 C221.3386,32.4066 221.0536,32.7466 220.8536,32.9966 L219.9636,34.1246 C219.3886,34.8366 218.9396,35.3866 218.2766,36.2876 C217.4506,37.4046 216.9626,38.1256 216.5876,38.8386 C216.4496,39.1006 216.3716,39.3036 216.3656,39.5146 C216.3606,39.6676 216.4226,39.7856 216.4816,39.8356 C216.6026,39.9376 216.9846,40.1146 217.7996,39.7746 C218.5446,39.4636 219.1316,39.1756 220.4896,38.2156 C221.0036,37.8506 222.3386,36.6856 222.9156,36.0936 C222.6216,35.2676 222.7776,34.2336 223.4056,33.1926 C224.3826,31.6336 225.6606,31.1366 226.4426,31.4946 C227.1006,31.7956 227.1546,33.0096 226.2396,34.3096 C225.8026,34.9296 225.0316,35.7006 224.6096,36.0066 C225.6616,36.0446 226.5136,35.5846 227.2056,35.0936 C228.0086,34.5266 228.4736,34.1166 229.9246,32.9866 C231.5486,31.7216 232.1766,31.6426 233.6836,31.6426 C234.9906,31.6426 235.4216,31.7156 235.5976,32.1166 C235.6436,32.2236 235.7306,32.4926 235.2356,33.0096 C235.2356,33.0096 233.3126,35.1096 232.2776,36.4426 C231.3076,37.6946 230.7976,38.4486 230.5756,38.7996 C230.3246,39.1966 230.1856,39.4846 230.4266,39.6806 C230.5956,39.8196 231.0336,39.7476 231.5086,39.5206 C231.8936,39.3386 232.8176,38.8306 233.8326,38.0466 C234.5716,37.4786 235.7706,36.5356 236.3286,36.1006 C237.0246,35.5426 237.5656,35.1966 238.2286,34.6996 C238.4806,34.5106 239.8026,33.5636 240.8396,33.0676 C241.7676,32.5986 243.1766,31.8556 244.8106,31.5646 C245.7006,31.4046 246.5026,31.3096 247.4666,31.3356 C248.6526,31.3666 249.2686,31.8236 249.2686,32.7566 C249.2686,33.5986 248.4616,34.1766 247.4666,34.1766 C246.6656,34.1766 246.0396,33.8356 245.7896,33.2916 C245.6686,33.0596 245.5396,32.7566 245.1716,32.7876 C244.5676,32.8396 243.5166,33.1606 242.1876,34.5416 C240.2036,36.6076 239.9676,38.0586 240.2226,39.0136 C240.4096,39.7096 240.9786,39.9206 241.3776,39.9516 C242.1386,40.0086 243.1346,39.9746 245.6606,38.3416 C246.9356,37.5146 248.3836,36.4976 249.8066,35.3496 C250.8776,34.4836 251.9146,33.4666 252.5346,32.7876 C255.6956,29.3246 256.3156,28.4746 258.0796,26.7596 C259.5846,25.2976 261.1366,24.4586 261.4666,24.3006 C263.0676,23.5346 264.8646,23.0006 265.0366,23.4496 C265.1546,23.7516 263.9286,24.7306 262.5386,26.2736 C261.4676,27.4606 260.3936,28.6986 259.6076,29.6266 C259.0336,30.3096 257.2516,32.3406 255.0666,35.3086 C254.8876,35.5496 254.3326,36.3216 254.1906,36.5316 L254.2356,36.5326 C255.1116,35.8356 256.1996,34.9216 257.1716,34.1996 C259.5206,32.4486 262.1496,31.2506 265.0066,31.3356 C266.1966,31.3696 266.8116,31.8486 266.8116,32.7566 C266.8116,33.5986 266.0026,34.1766 265.0066,34.1766 C264.1826,34.1766 263.5536,33.8126 263.3126,33.2686 C263.1686,32.9606 262.9976,32.7596 262.6556,32.7836 C260.9716,32.9046 259.0276,34.0366 257.3606,35.3866 C259.0716,36.3086 260.2416,36.8906 261.2756,37.4076 C261.5756,37.5576 262.9936,38.2506 263.4326,38.4376 C265.3026,39.2336 266.5786,39.8716 268.9826,40.2396 C271.9876,40.6976 273.8196,40.4076 275.8436,39.8176 C275.8726,39.8086 276.0756,39.7426 276.1206,39.7256 C277.1076,39.3746 277.5556,39.4286 277.5586,39.6696 C277.5616,39.8766 277.2306,40.2256 276.6276,40.5716 C276.5066,40.6426 276.3066,40.7516 276.2356,40.7856 C274.3876,41.6676 272.1216,42.2076 269.1376,42.2046 C265.3716,42.2016 262.9556,41.7236 258.3016,39.4926 C257.9146,39.3086 255.7676,38.2246 254.6016,37.5766 C254.2626,37.8636 253.6646,38.3926 253.4646,38.5806 C252.3326,39.6526 251.7186,40.2456 251.0386,40.8676 C250.3216,41.5206 250.2546,41.4756 248.7206,41.4836 C247.9536,41.4876 247.5436,41.4236 247.3396,41.1046 C247.2726,40.9996 247.2476,40.8396 247.2516,40.7216 C247.2536,40.5556 247.3066,40.3926 247.4466,40.1546 C247.7936,39.5646 248.8466,37.9836 249.6956,36.7296 L249.6496,36.7306 C248.4176,37.6516 247.1826,38.5726 246.2276,39.2426 C243.7716,40.9736 241.7496,41.5996 239.6096,41.5906 L239.5606,41.5906 C237.2056,41.5906 236.0186,40.6316 236.0436,38.9436 C236.0496,38.4396 236.2186,37.8236 236.5666,37.2286 L236.5256,37.2276 C235.7396,37.7856 234.0916,39.0916 233.4046,39.5936 C231.6596,40.8666 230.0796,41.6306 228.0156,41.5906 C226.0466,41.5516 225.8256,40.4826 225.8486,39.8226 C225.8706,39.2096 226.1196,38.5016 226.6246,37.6896 C227.1826,36.7916 227.9636,35.9636 228.8126,35.0406 L228.7636,35.0406 C228.3286,35.3536 227.8196,35.7056 227.5976,35.8526 C226.6786,36.4576 225.9976,36.7896 224.8996,36.8926 C224.5176,36.9266 224.0096,36.9216 223.6276,36.8086 C223.1186,37.3236 221.8736,38.4606 221.1206,39.0236 C218.4856,40.9966 216.8336,41.5906 214.8426,41.5906 C212.6736,41.5906 212.2376,40.3746 212.2086,39.6806 C212.1866,39.0716 212.4496,38.2946 212.9396,37.5756 L212.8926,37.5756 C212.2976,38.0516 211.6976,38.5026 211.1816,38.9066 C209.6286,40.1146 207.4146,41.5936 205.2896,41.5906 C203.9136,41.6196 203.0956,40.7726 203.1716,39.5416 C203.2086,39.0996 203.3306,38.4606 204.5126,36.8536 C204.9556,36.2506 205.9146,35.1056 206.5406,34.4036 L206.4996,34.4046 C206.3396,34.5176 205.7276,34.9556 205.5476,35.0856 C204.8326,35.6036 204.1266,36.1496 203.6116,36.5206 C202.7856,37.1526 200.6736,38.7906 199.8866,39.3556 C199.0566,39.9546 197.2466,41.5906 194.8056,41.5906 C192.6156,41.5906 192.5066,40.1576 192.5116,39.7166 C192.5216,38.8506 193.1566,37.4976 194.0516,36.2006 L194.0066,36.2016 C193.7926,36.4086 191.0806,38.5696 189.8066,39.4326 C187.9966,40.6546 186.1946,41.5826 184.4226,41.5906 C182.7056,41.5986 182.2846,40.7146 182.2316,40.0796 C182.2226,39.9736 182.2036,39.7066 182.2936,39.3556 L182.2496,39.3556 C180.2766,40.8846 178.4726,41.5376 176.8746,41.5906 C175.7306,41.6276 174.9446,41.4126 174.4576,40.8616 C173.8616,40.1826 173.9476,39.3106 173.9576,39.1986 C174.0126,38.6056 174.2036,37.9696 174.6496,37.2906 L174.5976,37.2926 L167.7546,41.6836 C165.9736,43.4916 164.6366,44.6966 162.7686,46.0656 C159.5346,48.4386 155.6716,49.3046 153.6686,49.3766 C152.1896,49.4306 151.4476,48.9796 153.5956,48.3536 C155.5076,47.7946 158.0156,46.7836 160.8666,43.8366 C162.7686,41.8676 163.9986,40.3626 165.1476,38.7496 L165.0656,38.7496 Z M179.9766,35.5446 C177.7896,37.5236 177.7126,39.2336 177.9506,39.6126 C178.0266,39.7286 178.1906,39.9336 178.5866,39.9236 C179.6606,39.8946 181.1366,39.0136 182.5516,37.7476 C184.3766,36.1166 185.6656,34.4526 185.8606,33.7146 C186.0176,33.1176 185.5956,32.9356 185.3926,32.8836 C184.9406,32.7636 184.3696,32.8266 183.6476,33.0866 C182.6716,33.4376 181.4686,34.1946 179.9766,35.5446 Z"/>
    <polygon fill="#FFF" points="10.58 1.286 6.277 8.505 1.99 1.286 0 1.286 5.411 9.794 5.411 15.356 7.15 15.356 7.15 9.794 12.564 1.286"/>
    <path fill="#FFF" d="M42.9917,1.2855 L42.9917,10.6215 C42.9917,13.1125 41.2067,14.4315 38.9817,14.4315 C36.7157,14.4315 34.9627,13.1125 34.9627,10.6215 L34.9627,1.2855 L33.2287,1.2855 L33.2287,10.0045 C33.2287,14.0665 35.7567,15.7485 38.9807,15.7485 C42.0457,15.7485 44.7317,14.0665 44.7317,10.0045 L44.7317,1.2855 L42.9917,1.2855 Z"/>
    <g transform="translate(14 .381)">
      <mask id="gatwick-airport-b" fill="#fff">
        <use xlink:href="#gatwick-airport-a"/>
      </mask>
      <path fill="#FFF" d="M14.9468,8.0174 C14.9468,12.1044 11.8938,15.4184 7.5458,15.4184 C3.1548,15.4184 0.1458,12.1044 0.1458,8.0174 C0.1458,3.9324 3.1548,0.6184 7.5458,0.6184 C11.8938,0.6184 14.9468,3.9324 14.9468,8.0174 M7.5458,1.9414 C4.1118,1.9414 1.9928,4.6624 1.9928,8.0174 C1.9928,11.3744 4.1118,14.0954 7.5458,14.0954 C10.9818,14.0954 13.0968,11.3744 13.0968,8.0174 C13.0968,4.6624 10.9818,1.9414 7.5458,1.9414" mask="url(#gatwick-airport-b)"/>
    </g>
    <path fill="#FFF" d="M55.9673,1.2851 C58.3363,1.2851 60.2573,3.0461 60.2573,5.4721 C60.2573,7.5591 58.6933,9.0861 56.7523,9.5191 L61.2463,15.3591 L59.0673,15.3591 L54.7753,9.6781 L51.3713,9.6781 L51.3713,15.3591 L49.6113,15.3591 L49.6113,1.2871 L55.9673,1.2851 Z M55.4073,8.3221 C57.2963,8.3221 58.4773,7.0721 58.4773,5.4721 C58.4773,3.8381 57.2323,2.6201 55.6963,2.6201 L51.3723,2.6231 L51.3713,8.3231 L55.4073,8.3221 Z"/>
    <polygon fill="#FFF" points="111.905 1.286 111.907 13.486 111.867 13.486 103.572 1.286 101.294 1.286 101.294 15.356 102.73 15.356 102.731 3.19 102.77 3.19 111.052 15.356 113.345 15.356 113.345 1.286"/>
    <polygon fill="#FFF" points="164.348 1.286 164.35 13.486 164.309 13.486 156.013 1.286 153.735 1.286 153.735 15.356 155.171 15.356 155.174 3.19 155.212 3.19 163.495 15.356 165.785 15.356 165.785 1.286"/>
    <path fill="#FFF" d="M118.5913,1.2851 L124.2693,1.2851 C127.0313,1.2851 130.9663,3.1331 130.9663,8.3201 C130.9663,13.5081 127.0313,15.3561 124.2693,15.3561 L118.5913,15.3561 L118.5913,1.2851 Z M120.3313,14.0251 L123.5123,14.0251 C126.7323,14.0251 129.1773,12.3291 129.1773,8.3201 C129.1773,4.3101 126.7323,2.6171 123.5123,2.6171 L120.3313,2.6171 L120.3313,14.0251 Z"/>
    <g transform="translate(82 .381)">
      <mask id="gatwick-airport-d" fill="#fff">
        <use xlink:href="#gatwick-airport-c"/>
      </mask>
      <path fill="#FFF" d="M15.3413,8.0174 C15.3413,12.1044 12.2903,15.4184 7.9413,15.4184 C3.5503,15.4184 0.5413,12.1044 0.5413,8.0174 C0.5413,3.9324 3.5503,0.6184 7.9413,0.6184 C12.2903,0.6184 15.3413,3.9324 15.3413,8.0174 M7.9413,1.9414 C4.5083,1.9414 2.3893,4.6624 2.3893,8.0174 C2.3893,11.3744 4.5083,14.0954 7.9413,14.0954 C11.3783,14.0954 13.4923,11.3744 13.4923,8.0174 C13.4923,4.6624 11.3783,1.9414 7.9413,1.9414" mask="url(#gatwick-airport-d)"/>
    </g>
    <g transform="translate(134 .381)">
      <mask id="gatwick-airport-f" fill="#fff">
        <use xlink:href="#gatwick-airport-e"/>
      </mask>
      <path fill="#FFF" d="M15.5977,8.0174 C15.5977,12.1044 12.5467,15.4184 8.1997,15.4184 C3.8077,15.4184 0.7977,12.1044 0.7977,8.0174 C0.7977,3.9324 3.8077,0.6184 8.1997,0.6184 C12.5457,0.6184 15.5977,3.9324 15.5977,8.0174 M8.1997,1.9414 C4.7637,1.9414 2.6467,4.6624 2.6467,8.0174 C2.6467,11.3744 4.7637,14.0954 8.1997,14.0954 C11.6347,14.0954 13.7497,11.3744 13.7497,8.0174 C13.7497,4.6624 11.6347,1.9414 8.1997,1.9414" mask="url(#gatwick-airport-f)"/>
    </g>
    <polygon fill="#FFF" points="72.075 1.286 73.844 1.286 73.844 14.005 80.584 14.005 80.584 15.357 72.075 15.357"/>
    <mask id="gatwick-airport-h" fill="#fff">
      <use xlink:href="#gatwick-airport-g"/>
    </mask>
    <polygon fill="#FFF" points="193.562 15.356 195.333 15.356 195.333 1.286 193.562 1.286" mask="url(#gatwick-airport-h)"/>
    <path fill="#FFF" d="M190.1484,15.3559 L188.2614,15.3559 L186.9044,11.8979 L179.2594,11.8979 L177.8804,15.3559 L175.9964,15.3559 L181.7354,1.2849 L184.4084,1.2849 L190.1484,15.3559 Z M179.7284,10.5459 L186.4194,10.5499 L183.2804,2.6339 L182.8584,2.6339 L179.7284,10.5459 Z" mask="url(#gatwick-airport-h)"/>
    <polygon fill="#FFF" points="270.523 2.636 265.971 2.636 265.971 15.356 264.202 15.356 264.202 2.636 259.649 2.636 259.649 1.286 270.523 1.286" mask="url(#gatwick-airport-h)"/>
    <path fill="#FFF" d="M243.2656 8.3988C243.2656 12.4858 240.2146 15.7998 235.8666 15.7998 231.4746 15.7998 228.4646 12.4858 228.4646 8.3988 228.4646 4.3138 231.4746.9998 235.8666.9998 240.2146.9998 243.2656 4.3138 243.2656 8.3988M235.8666 2.3228C232.4306 2.3228 230.3136 5.0438 230.3136 8.3988 230.3136 11.7558 232.4306 14.4768 235.8666 14.4768 239.3006 14.4768 241.4166 11.7558 241.4166 8.3988 241.4166 5.0438 239.3006 2.3228 235.8666 2.3228M206.8838 1.2851C209.2528 1.2851 211.1738 3.0461 211.1738 5.4721 211.1738 7.5591 209.6108 9.0861 207.6688 9.5191L212.1628 15.3591 209.9848 15.3591 205.6918 9.6781 202.2878 9.6781 202.2878 15.3591 200.5298 15.3591 200.5298 1.2871 206.8838 1.2851zM206.3248 8.3221C208.2128 8.3221 209.3948 7.0721 209.3948 5.4721 209.3948 3.8381 208.1508 2.6201 206.6128 2.6201L202.2878 2.6231 202.2878 8.3231 206.3248 8.3221zM253.3828 1.2851C255.7528 1.2851 257.6728 3.0461 257.6728 5.4721 257.6728 7.5591 256.1098 9.0861 254.1698 9.5191L258.6618 15.3591 256.4838 15.3591 252.1908 9.6781 248.7888 9.6781 248.7888 15.3591 247.0288 15.3591 247.0288 1.2871 253.3828 1.2851zM252.8238 8.3221C254.7118 8.3221 255.8948 7.0721 255.8948 5.4721 255.8948 3.8381 254.6488 2.6201 253.1118 2.6201L248.7888 2.6231 248.7888 8.3231 252.8238 8.3221zM215.3467 1.2875L221.4007 1.2855C224.0737 1.2855 225.9857 3.0555 225.9857 5.4815 225.9857 7.9105 224.1007 9.6775 221.4097 9.6775L217.1287 9.6725 217.1057 9.6725 217.1057 15.3585 215.3467 15.3585 215.3467 1.2875 215.3467 1.2875zM217.1097 8.3325L221.1217 8.3265C223.0167 8.3265 224.2167 7.1265 224.2167 5.4875 224.2167 3.8505 222.9707 2.6335 221.4367 2.6335L217.1057 2.6285 217.1097 8.3325z" mask="url(#gatwick-airport-h)"/>
  </g>
</svg>
