<svg xmlns="http://www.w3.org/2000/svg" viewBox="0 0 622 909"><g fill="none" fill-rule="evenodd"><path fill="#EFF8FD" d="M19.968 121.385C-.777 164.97-5.624 216.033 6.676 262.77c10.905 41.423 36.607 80.682 75.232 99.56 14.026 6.819 29.043 10.888 44.39 13.454 80.703 21.334 96.785 34.384 96.785 34.384 116.722 50.953 295.237-30.022 295.237-30.022 8.409-2.566 16.927-5.572 25.335-9.091 24.82-10.374 50.412-22.764 64.841-45.491 13.365-21.151 14.54-47.764 12.961-72.69-2.9-43.916-12.96-87.098-29.96-127.713-12.447-29.73-29.337-58.945-55.883-77.053-34.22-23.387-78.206-24.963-119.512-29.106-49.678-5.022-98.62-14.736-148.298-17.962-49.678-3.225-101.044.33-146.389 20.932C77.32 41.876 40.712 77.8 19.968 121.385"/><g transform="translate(62 69)"><path fill="#EDD4C8" fill-rule="nonzero" d="M460.614 232.393l10.182-5.131s2.234-2.016 10.914-3.482c0 0 15.052-2.162 24.684-13.084 0 0 6.08-7.55 12.305-11.58 0 0 9.56-9.42 18.495-26.315 0 0 1.905-6.194-.55-6.194 0 0-.878-3.225-5.712.623 0 0-2.198-2.602-5.347-1.026 0 0-14.393 13.597-19.228 17.409 0 0-8.863 6.083-23.11 7.073l-17.835 2.529-4.87 7.146-13.259 5.314"/><path fill="#DABCB0" fill-rule="nonzero" d="M452.191 203.99l8.387-3.629c1.611-1.356 4.87-7.146 4.87-7.146 8.021-6.927 16.262-6.487 16.262-6.487 7.141-.88 18.714-5.57 18.714-5.57 5.128-.88 7.362 1.318 7.362 1.318s-6.959 5.754-18.532 7.477c0 0-18.495 1.173-28.676 10.408"/><path fill="#262626" fill-rule="nonzero" d="M270.978 813.942s49.698 10.445 54.898 18.215c0 0 2.967 4.398 0 7.77H210.842s.879-12.68.842-24.702c0-.037 35.598-27.267 59.294-1.283zm-126.168 0l-2.967 25.985H34.975s-3.698-9.31 8.9-12.974c0 0 34.133-6.707 45.267-12.974l31.166-21.88 24.502 21.843z"/><path fill="#6A778A" fill-rule="nonzero" d="M291.743 410.325s-9.705 184.602-20.729 403.617c0 0-13.917-9.895-59.806 1.283 0 0-.183-138.094.476-174.67 0 0 6.19-209.23-10.547-215.864 0 0-10.072-1.65-12.562 16.822 0 0-12.709 118.34-20.363 185.518 0 0-16.737 151.142-22.67 187.351 0 0-34.28-8.612-56.364-.44 0 0 6.886-309.429 17.067-404.13l94.928-64.723 90.57 65.236z"/><path fill="#44536B" fill-rule="nonzero" d="M105.036 419.89s29.226-1.65 53.434 4.691c0 0 12.196 1.943 16.224 17.152 0 0 6.3 27.377-4.65 89.277 0 0-9.926 69.01-10.255 107.236 0 0-2.6 86.016-19.045 175.147l4.761 1.026s22.89-170.346 27.358-229.058c0 0 13.954-129.921 16.005-145.864 0 0 2.6-15.209 12.269-14.77 0 0 2.087 1.21 3.296 4.472 0 0 15.93 11.141 49.368 14.11 0 0 15.968-1.173 19.52 22.54 0 0 6.373 45.298-3.222 108.7 0 0-3.992 36.283-1.099 128.42 0 0 5.896 61.24-3.955 108.701 0 0 2.527-.366 5.933 2.31 0 0 7.434-146.451 9.558-187.938 0 0 8.424-167.744 10.328-199.592L204.8 365.54l-99.8 48.743.037 5.607z"/><path fill="#EDD4C8" fill-rule="nonzero" d="M222.378 101.995V86.822L204.433 76.67l-24.208 8.539v16.383l23.585 25.911z"/><path fill="#DABCB0" fill-rule="nonzero" d="M191.798 93.749l20.509 15.502 10.071-7.256V84.403z"/><path fill="#EDD4C8" fill-rule="nonzero" d="M228.055 42.88s0 36.172-2.857 41.523c-1.904 3.555-14.54 9.639-17.323 10.665-2.783 1.026-9.339 1.1-12.745 0-3.406-1.1-15.894-6.34-16.847-10.225-.988-3.885-3.113-34.89-.915-46.984l5.384-11.875h36.037l9.266 16.896z"/><path fill="#DABCB0" fill-rule="nonzero" d="M202.455 60.874s-.696 6.12 1.135 9.566c0 0-.256 2.125-4.358 2.675 0 0 .77 1.796 3.223 2.016 0 0 4.175-1.32 3.809-5.24 0 0-4.065-7.66-3.809-9.017z"/><path fill="#262626" fill-rule="nonzero" d="M240.983 31.225s-10.328 15.65-13.624 34.414c0 0 .366-18.215-4.98-22.613l5.712-14.953 12.892 3.152zm-64.494 30.639s-2.051-11.765-11.61-22.833l15.309-13.047 2.893 7.623c.037 0-6.995 15.393-6.592 28.257z"/><path fill="#EDD4C8" fill-rule="nonzero" d="M228.055 59.775s.989-8.063 4.907-4.435c0 0 4.029 4.875-2.49 12.205 0 0-1.355 3.811-3.333 2.858l.916-10.628zm-51.566 0s-.989-8.063-4.908-4.435c0 0-4.028 4.875 2.49 12.205 0 0 1.356 3.811 3.333 2.858l-.915-10.628z"/><path fill="#262626" fill-rule="nonzero" d="M235.856 4.984s10.694 9.053 6.995 20.707c0 0-3.296 16.969-17.287 17.372 0 0-11.536.183-22.67-4.655 0 0-11.939-8.539-19.776-4.837 0 0-8.24 6.963-15.236 7 0 0-7.398-2.09-6.995-10.519 0 0-.696-15.282 15.932-11.874 0 0 10.437 2.199 16.627-4.398 0 0 6.592-9.492 21.827-13.01-.036.036 11.866-2.969 20.583 4.214z"/><path stroke="#DABCB0" stroke-linecap="round" stroke-linejoin="round" stroke-width="2" d="M210.292 79.749s-7.507 4.434-16.04 0"/><g fill="#262626" fill-rule="nonzero" transform="translate(190.076 52.775)"><ellipse cx="21.608" cy="3.702" rx="2.417" ry="3.665"/><ellipse cx="2.747" cy="3.702" rx="2.417" ry="3.665"/></g><path fill="#E0EAF3" fill-rule="nonzero" d="M206.374 120.869l-38.125-11.728 21.608 157.995 46.438 12.498-6.922-170.749z"/><path fill="#A0B7C3" fill-rule="nonzero" d="M228.311 125.963s-2.6 16.053-6.629 18.398c0 0-1.245 1.87-3.552-1.246 0 0-2.49-7.036-3.919-5.79 0 0-1.392 2.858-3.37 2.785l.697-14.55 17.872-16.675c-.037 0 2.014 11.288-1.099 17.078zm-37.905 5.498s-4.029 10.225-4.102 15.502c0 0-.366 2.676-1.795 2.86 0 0-2.71.072-4.284-3.41 0 0-11.72-24.078-11.976-37.272l22.157 22.32z"/><path fill="#A0B7C3" fill-rule="nonzero" d="M210.805 140.11s-.036.733 2.893-1.1c0 0 1.026-.513 2.125 1.356 0 0 1.135 5.608 4.578 7.477 0 0 3.662 1.686 4.394 6.56 0 0 .513 10.665-1.94 29.87 0 0 13-62.011 6.518-75.388l-13.55 1.21-5.018 30.015z"/><path fill="#EC2E26" fill-rule="nonzero" d="M210.805 140.11s9.266 40.754 7.764 91.77l-12.928 55.083-13.843-53.874s-7.362-32.215 1.281-93.382c0-.037 10.108-6.597 17.726.403z"/><path fill="#EC2E26" fill-rule="nonzero" d="M213.662 131.46s.732 5.388-2.857 8.65c0 0-.366.55-1.575 0 0 0-9.778-1.833-14.722.256 0 0-1.209.037-1.429-.66 0 0-2.783-4.617-2.673-8.209 0 0 2.307-11.398 11.793-11.8 0-.037 9.009-.367 11.463 11.764z"/><path fill="#981F20" fill-rule="nonzero" d="M210.805 128.052s1.355 4.948-.22 7.77c0 0-.622 1.54-2.087 2.309 0 0-7.398-.953-13.99 2.199 0 0 4.248-1.76 14.722-.257 0 0 1.319.257 1.575 0 .366-.33.366-.366.916-.99 0 0 2.527-2.931 2.16-7.806l-3.076-3.225z"/><path fill="#E0EAF3" fill-rule="nonzero" d="M168.249 109.141s9.339-9.858 10.913-12.79c0 0 .55-.77 1.282 0 0 0 14.247 19.02 21.828 23.272 0 0-11.537 3.958-18.349 25.911-.402 1.283-8.02-17.298-15.674-36.393zm34.023 10.482s9.888-13.377 19.3-21.293c0 0 .88-.916 1.612-.037 0 0 3.516 5.79 6.226 10.592 0 0-6.849 34.853-8.753 34.23-1.941-.623-8.9-17.885-18.385-23.492z"/><path fill="#981F20" fill-rule="nonzero" d="M194.288 140.33s-.806.036-1.209-.66c0 0-1.208-2.052-1.977-4.288 0 0 1.83 4.508 3.186 4.948zm.22 0s9.815-.733 13.294 2.052c0 0 3.04.66 3.772 13.634 0 0 .55 15.429 3.48 27.78 0 0 3.405 20.67 3.186 33.974 0 0 1.538-35.917-7.435-77.697 0 .037-10.547-2.309-16.297.257z"/><path fill="#231F20" fill-rule="nonzero" d="M363.818 220.628s9.266 12.314 7.362 31.555c0 0 .146-15.282-7.362-31.555z"/><path fill="#231F20" fill-rule="nonzero" d="M363.818 220.628s6.41 17.372-4.394 39.508c-.037-.037 6.409-23.492 4.394-39.508zm0 0s-4.394 20.267-14.979 27.707c0 0 10.731-14.806 14.98-27.707zm-255.962 10.335l11.537-11.91s-8.167 22.062-11.537 75.937v-64.027z"/><path fill="#131A23" fill-rule="nonzero" d="M108.918 192.188l-1.062 38.775s-.22 70.147 0 107.712c0 0-11.683 68.424-15.052 78.32 0 0 33.108 3.958 63.688-2.236 0 0 28.054-5.717 45.89 1.283 0 0 5.567-53.325 4.065-92.063 0 0-.879-22.722-.879-52.592 0 0-11.72-37.602-22.23-79.199h-74.42z"/><path fill="#E0EAF3" fill-rule="nonzero" d="M447.283 198.932s3.553-2.639 3.956-1.942c0 0 17.652 17.921 11.72 44.675 0 0 .22 1.76-3.224 2.455"/><path fill="#000" fill-rule="nonzero" d="M107.856 315.88s5.787 14.183 15.382 20.926c0 0 16.81 14.917 13.917 24.775 0 0-2.417 20.45-20.912 22.1 0 0-10.474-1.65-21.351 24.774.036 0 13.22-70.22 12.964-92.575zm96.577 62.853s-2.124 19.387-13.99 22.942c0 0-8.937 4.435-36.697 8.21 0 0-22.487 5.057-37.54 5.24 0 0-15.015.037-23.439 1.796 0 0 30.545 4.582 61.821-1.869 0 0 28.31-5.607 47.757.917l2.71-33.168-.622-4.068z"/><path fill="#EDD4C8" fill-rule="nonzero" d="M109.907 345.785s6.666 6.817 9.669 7.77c0 0 11.793.22 19.447 5.68 0 0 6.446 4.508 16.993 6.45 0 0 4.652 1.723 4.102 6.011 0 0-.293 9.42-11.28 7 0 0-14.356-2.822-19.154-4.837 0 0 8.863 4.984 16.517 11.141 0 0 3.406 1.43 4.981 6.194 0 0 3.772 7.44 4.322 15.1 0 0-.22 5.35-6.153 8.978 0 0-4.212 1.466-9.083 3.555 0 0-4.578 3.445-8.753 2.272 0 0-6.482-1.136-8.094-6.303 0 0-1.72-3.519-5.53-6.304 0 0-2.234-3.188-10.547-5.387 0 0-7.215-3.592-10.255-7.513 0 0-8.79-6.34-5.75-19.095L86.651 371"/><path fill="#131A23" fill-rule="nonzero" d="M117.415 221.288c-26.332 26.167-42.96 45.665-42.96 45.665 5.934 10.848 41.385 70.953 41.385 70.953-6.812 14.806-37.502 36.612-37.502 36.612C17.176 320.094.183 272.304.183 272.304c3.406-46.985 90.9-137.545 90.9-137.545 19.557-14.476 77.166-25.581 77.166-25.581 19.557 117.534 37.319 162.21 37.319 162.21 17.836-46.875 23.805-162.503 23.805-162.503s37.576 7.953 64.75 25.874c0 0 47.575 46.911 69.659 85.906 0 0 36.55-2.236 82.403-23.272 0 0 19.154 14.256 13.184 48.853 0 0-63.322 39.471-98.993 52.005 0 0-19.557 6.157-28.896 0 0 0-32.302-23.052-46.732-58.822l12.782 116.508"/><path fill="#E0EAF3" fill-rule="nonzero" d="M80.132 373.199s2.747 5.13 3.846 4.435c0 0 28.163-21.697 33.84-32.545 0 0 .403-1.43-2.783-3.921"/><g fill-rule="nonzero"><path fill="#231F20" d="M256.878 194.827s-2.088 4.068-1.539 7.33c0 0 .733 6.78 7.325 8.87 0 0 7.618-3.446 7.984-8.76l-13.77-7.44z"/><path fill="#EC2E26" d="M263.873 192.335c4.651 0 6.995 2.492 6.995 2.492s.256 1.833.11 5.571c-.257 5.607-7.105 8.98-7.105 8.98s-6.849-3.373-7.105-8.98c-.183-3.702.11-5.57.11-5.57s2.344-2.493 6.995-2.493z"/><path fill="#FFF" d="M260.357 199.702c0-1.98 1.575-3.592 3.48-3.592a3.518 3.518 0 013.515 3.518c0 1.54-1.318 2.822-2.344 3.445.403.22 1.282.477 2.088.55 1.208-.953 1.977-2.419 1.977-3.995a5.238 5.238 0 10-10.474 0c0 1.76.733 3.299 2.088 4.472 1.281 1.1 3.15 1.832 5.273 2.199.476-.257 1.246-1.027 1.539-1.466-1.795-.22-3.48-.66-4.615-1.246-1.648-.917-2.527-2.236-2.527-3.885z"/></g><path fill="#000" fill-rule="nonzero" d="M168.688 111.707s.66-3.665-3.15-2.419c0 0-30.067 18.801-33.217 43.613 0 0 0 7.146 23.952 2.748 0 0-4.432 6.084-17.03 11.361 0 0-9.266 4.435.622 16.42 0 0 52.372 62.156 65.703 89.02 0-.036-22.597-73.225-36.88-160.743zm36.88 162.832s-.623 105.074 0 111.56c0 0-10.035-61.79-8.57-82.46 0 0 2.893-20.927 8.57-29.1z"/><path fill="#131A23" fill-rule="nonzero" d="M206.117 269.445c-11.646 59.592 3.223 145.497 3.223 145.497 16.115-2.382 30.215 7.477 30.215 7.477 26.369 9.492 63.908-.293 63.908-.293-6.153-47.131-11.61-163.456-11.61-163.456l-5.164-33.277-64.75-6.194c.036 0-5.75 20.45-15.822 50.246z"/><path fill="#000" fill-rule="nonzero" d="M291.743 253.576s-5.64-8.942-6.958-14.183c0 0-1.538-5.974-1.538-8.613 0 0 2.234 13.45 4.248 38.958 0 0 4.87 49.11 2.49 71.43 0 0-.952 28.11 5.054 71.356 0 0 4.798 8.905-36.77 9.382 0 0-13.514-1.43-26.698-6.267 0 0-16.884-5.718-22.597-.916 0 0 11.83-.77 36.074 10.774 0 0 37.979 7.33 58.012-3.188 0 0-10.767-159.168-11.317-168.733z"/><ellipse cx="208.974" cy="294.953" fill="#000" fill-rule="nonzero" rx="4.541" ry="4.545"/><path fill="#000" fill-rule="nonzero" d="M233.182 109.764s21.242 13.927 30.434 35.037c0 0 4.981 11.178-3.223 9.932 0 0-14.502-2.932-22.523-4.911 0 0 9.083 5.02 17.616 11.508 0 0 6.702 3.188-.586 17.152 0 0-23.696 52.335-49.332 92.905 0 0 17.543-76.633 23.476-160.523 0 0 0-2.236.659-2.236 0-.036 1.868-.33 3.48 1.136z"/></g><g fill-rule="nonzero"><path fill="#9BC0E0" d="M566.329 227.982H549.26c-.336 0-.635-.291-.635-.618v-9.273c0-.327.3-.618.635-.618h17.069c.336 0 .635.29.635.618v9.273c0 .327-.299.618-.635.618zm-16.434-1.237h15.799v-8.036h-15.799v8.036z"/><path fill="#9BC0E0" d="M566.329 223.364H549.26c-.336 0-.635-.291-.635-.619 0-.327.3-.618.635-.618h17.069c.336 0 .635.291.635.618 0 .328-.299.619-.635.619z"/><g fill="#9BC0E0"><path d="M576.861 196.6c0-10.254-8.553-18.582-19.085-18.582-10.533 0-19.086 8.328-19.086 18.582 0 7.273 4.295 13.564 10.57 16.618v4.873h17.069v-4.873c6.237-3.054 10.532-9.345 10.532-16.618z"/><path d="M566.329 218.71h-17.07c-.335 0-.634-.292-.634-.619v-4.509c-6.536-3.345-10.57-9.818-10.57-16.982 0-10.582 8.852-19.2 19.72-19.2 10.87 0 19.721 8.618 19.721 19.2 0 7.164-4.034 13.637-10.532 16.982v4.51c0 .326-.3.617-.635.617zm-16.434-1.237h15.799v-4.255c0-.218.149-.436.336-.545 6.274-3.091 10.196-9.236 10.196-16.073 0-9.89-8.291-17.963-18.45-17.963-10.16 0-18.451 8.072-18.451 17.963 0 6.837 3.922 12.982 10.234 16.073.224.109.336.327.336.545v4.255z"/></g><path fill="#FFF" d="M559.27 219.618h-.075a.646.646 0 01-.56-.69l1.98-15.564h-.262c-.261.036-1.083.109-1.68-.4-.262-.219-.524-.582-.524-1.2 0-.073 0-.546-.298-.619-.3.073-.3.619-.3.619 0 .654-.298 1.018-.522 1.2-.598.472-1.42.4-1.68.4h-.262l1.98 15.563a.619.619 0 01-.561.691c-.336.037-.672-.182-.71-.545l-2.016-15.71h-3.735c-3.511 0-4.445-2.654-4.445-4.072 0-1.382.41-2.473 1.233-3.2 1.27-1.164 2.987-1.127 3.212-1.127 3.025 0 4.22 2.618 4.407 4l.41 3.163h.561c.187.037.56.037.71-.109.037-.036.074-.073.074-.254 0-.691.374-1.673 1.382-1.819.038 0 .112-.036.15-.036h.112c.074 0 .112 0 .149.036 1.008.146 1.382 1.164 1.382 1.819 0 .181.075.254.075.254.149.11.523.146.71.11h.56l.41-3.164c.224-1.382 1.42-4 4.408-4 .224 0 1.942-.037 3.212 1.09.821.764 1.27 1.855 1.27 3.237 0 1.418-.934 4.073-4.445 4.073h-3.735l-2.017 15.709c.037.327-.261.545-.56.545zm2.764-17.49h3.548c3.137 0 3.175-2.728 3.175-2.837 0-1.018-.3-1.818-.86-2.327-.896-.837-2.278-.764-2.278-.764h-.037c-2.69 0-3.175 2.8-3.175 2.945l-.373 2.982zm-12.101-5.928c-.3 0-1.42.036-2.241.764-.56.509-.86 1.309-.86 2.327 0 .29.113 2.836 3.175 2.836h3.548l-.373-3.018c0-.109-.486-2.909-3.175-2.909h-.037-.037z"/><path fill="#9BC0E0" d="M561.586 230.964h-7.545c-.336 0-.635-.291-.635-.619V227.4c0-.327.299-.618.635-.618h7.545c.336 0 .634.29.634.618v2.945c0 .328-.298.619-.634.619zm-6.91-1.237h6.275v-1.709h-6.275v1.71zm3.361-55.454c-.336 0-.635-.291-.635-.618v-5.891c0-.328.3-.619.635-.619.336 0 .635.291.635.619v5.89c0 .328-.299.619-.635.619zm-24.09 22.945h-6.013c-.336 0-.635-.29-.635-.618 0-.327.299-.618.635-.618h6.013c.336 0 .635.29.635.618 0 .327-.299.618-.635.618zm7.171-16a.699.699 0 01-.448-.182l-4.258-4.145a.584.584 0 010-.873.622.622 0 01.896 0l4.258 4.146a.584.584 0 010 .872c-.15.11-.299.182-.448.182zm-4.258 36.655a.699.699 0 01-.448-.182.584.584 0 010-.873l4.258-4.145a.622.622 0 01.896 0 .584.584 0 010 .872l-4.258 4.146c-.149.109-.298.182-.448.182zm51.318-20.655h-6.05c-.336 0-.635-.29-.635-.618 0-.327.299-.618.635-.618h6.05c.336 0 .635.29.635.618 0 .327-.299.618-.635.618zm-13.184-16a.699.699 0 01-.448-.182.584.584 0 010-.872l4.258-4.146a.622.622 0 01.896 0 .584.584 0 010 .873l-4.258 4.145c-.15.11-.299.182-.448.182zm4.258 36.655a.699.699 0 01-.448-.182l-4.258-4.146a.584.584 0 010-.872.622.622 0 01.896 0l4.258 4.145a.584.584 0 010 .873c-.15.109-.299.182-.448.182z"/></g></g></svg>