<svg xmlns="http://www.w3.org/2000/svg" xmlns:xlink="http://www.w3.org/1999/xlink" viewBox="0 0 614 621"><defs><path id="b" d="M.267.066h99.466V97.85H.267z"/><path id="d" d="M0 .36h212.938V349H0z"/><path id="f" d="M.005.115h228.654v355.817H.005z"/><linearGradient id="a" x1="50%" x2="50%" y1="100%" y2=".688%"><stop offset="0%" stop-color="#FFF"/><stop offset="100%" stop-color="#C7DBEB"/></linearGradient></defs><g fill="none" fill-rule="evenodd"><path fill="url(#a)" d="M185 0h2v621h-2z"/><path fill="#E9D0C6" d="M435.238 121.378l-2.666 17.413L446.642 155s23.92-15.814 39.358-20.87v-17.474l-.545-43.135L472.164 48l-36.25.964-11.76 10.298L424 64.48l3.397 51.413 7.841 5.485z"/><g transform="matrix(-1 0 0 1 511 18)"><mask id="c" fill="#fff"><use xlink:href="#b"/></mask><path fill="#262626" d="M25.132 97.85s3.692-10.874 10.033-20.177c0 0 2.688-2.34 2.778-5.498 0 0-.924-4.04-4.67-7.579 0 0-6.665-6.737-3.891-13.566 0 0 .872-2.776 1.955-3.438 0 0 2.293-3.266 7.16-.208 0 0 5.965 2.66 10.8 14.01 0 0-2.618-10.806-1.477-15.703 0 0-.116-3.949 4.21-6.81 0 0 8.12-4.542 21.38 2.114 0 0 13.657 8.175 18.653 3.106 0 0 6.13-4.009 7.654-14.631 0 0 .915-12.612-11.387-18.456 0 0-7.857-4.696-21.078-1.21 0 0-13.853.615-19.622-4.886 0 0-17.158-11.524-32.594.947 0 0-15.696 9.925-14.726 30.325 0 0 2.628 20.533 16.09 34.55 0 0 7.264 10.19 8.732 27.11" mask="url(#c)"/></g><path fill="#DABCB2" d="M434 130l23-10-21.735 1.336z"/><path fill="#333" d="M431 78c0 2.209.671 4 1.5 4s1.5-1.791 1.5-4-.671-4-1.5-4-1.5 1.791-1.5 4"/><path stroke="#D9BBAF" stroke-linecap="round" stroke-linejoin="round" stroke-width=".5" d="M427 106s7.845-.01 13-2"/><path fill="#E9D0C6" d="M425.973 83S423.778 94.937 422 97.51c0 0 3.111 1.103 8 0L425.973 83z"/><path fill="#DFE9F2" d="M505 152.95l-57.72 2.757L424.898 146s-43.774 177.968-27.115 220c0 0 57.734-122.795 107.218-213.05"/><path fill="#9FB6C2" d="M432.915 166.146s-3.24-1.17-5.596.97c0 0-6.252 4.5-11.332 14.884l-.987-5.935L432.484 157l3.516 1.87-3.085 7.276z"/><path fill="#EB2E26" d="M454.888 165.825s-2.413 7.034-7.582 9.175c0 0-9.572-5.573-13.552-4.055 0 0-2.068-6.744.647-11.817 0 0 9.075-5.207 12.904-3.925 0 0 8.78 4.252 7.583 10.622"/><path fill="#971F20" d="M446.466 177s-9.407-5.62-13.466-4.275c0 0 3.365-1.97 13.693.865 0 0 3.936-.48 6.786-7.59l.521 1.328s-2.815 7.703-7.534 9.672"/><path fill="#EB2E26" d="M447 176.282s-4.574 34.376-18.834 81.227L402.918 358l-4.898-4.414s-.855-75.647 8.733-97.957c0 0 11.816-52.993 26.925-83.452 0 0 3.833-1.477 13.322 4.105"/><g transform="matrix(-1 0 0 1 614 152)"><mask id="e" fill="#fff"><use xlink:href="#d"/></mask><path fill="#131A23" d="M109.385.36S50.11 19.963 33.697 43.725c0 0-44.411 74.494-31.263 179.294 0 0-2.434 34.776 49.116 30.72L37.075 349H205.18s12.242-72.336 5.968-144.972c0 0-44.756-158.986-101.763-203.668" mask="url(#e)"/></g><g transform="matrix(-1 0 0 1 425 145)"><mask id="g" fill="#fff"><use xlink:href="#f"/></mask><path fill="#131A23" d="M.005.115s55.911 31.54 69.826 50.49c0 0 45.881 83.935 59.299 115.35 0 0 35.922-40.72 66.732-54.254 0 0 27.828 14.975 32.797 36.375 0 0-34.922 74.095-95.05 119.971 0 0-29.355 15.351-53.533-35.242 0 0 12.117 70.308 10.56 123.128h-74.12S41.826 80.278.005.115" mask="url(#g)"/></g><path fill="#000" d="M465 349s41.206-12.437 75.959-10.364c0 0 .518-8.888-2.124-22.636 0 0-3.02-.001-3.398 6.128 0 0 .07 9.379-3.74 11.496 0 0-26.157 2.629-66.697 15.376M333.124 501C330.646 408.958 366 259 366 259s-13.558 119.956-15.531 136.558L333.124 501zM465 400.304s85.255 11.323 91.707 20.417c0 0 10.088 17.05 15.293 45.279l-9.203-60.335s-88.156-7.212-97.797-5.361M403.5 438s-.072 40.136 5.5 61h-11s.805-45.315 5.5-61"/><path fill="#9FB6C2" d="M453.89 165.636s2.255 19.65-2.89 39.364l53-53-36.171 4.835-13.94 8.8z"/><path fill="#DFE9F2" d="M490.648 133.004c-2.055.328-24.334 2.782-43.648 22.638 0 0 15.252 10.108 8.196 40.358 0 0 7.42-33.852 49.804-43.113 0 0-12.296-20.211-14.352-19.883"/><path fill="#DFE9F2" d="M447 156.521s-25.81 7.752-32 24.479c0 0 4.116-18.149 8.65-34.165 0 0 7.067-7.393 8.292-6.801 1.226.592 15.089 10.594 15.058 16.487"/><path fill="#000" d="M402.131 358C393.151 250.29 425 145 425 145s-17.772 17.086-22.749 43.98c0 0 3.787 1.44 5.333 6.448 0 0-2.757-.11-7.049 6.434 0 0-8.93 65.43 1.596 156.138m.869-2s24.543-171.822 101.767-203.948c0 0 6.333-.665 6.83 2.757 0 0 3.155 17.79.002 49.828 0 0-24.423-4.581-35.589 5.444 0 0 12.709 9.465 15.693 20.723 0 0-51.573 10.087-88.703 125.196"/><path fill="#D8D9DA" d="M532 258.325s-103.747-21.672-136-2.22c0 0 8.007 73.064 6.886 114.324 0 0 .557 48.215-1.129 70.583 0 0 107.84 4.473 125.762 0 0 0-6.471-132.253 4.481-182.687"/><path fill="#F6F9FB" d="M524.476 255.649s2.99-12.659 4.036-17.649c0 0-140.02 7.47-142.512 2.732 0 0 16.137 81.167 14.815 116.305 0 0 7.355 81.777 4.752 89.76 0 0 112.48-2.035 126.433 4.203 0 0-10.563-168.735-7.524-195.351"/><path fill="#131A23" d="M540.638 339.287s-40.061-3.227-76.86 11.971c0 0-4.413 27.884.666 49.376 0 0 57.938 4.715 97.556 5.366"/><path fill="#E9D0C6" d="M455.855 353.798s-19.581.017-25.494-2.692c0 0-9.456-4.061-15.544-10.944 0 0-8.744-8.237-9.408-9.14 0 0-2.768-3.16-4.428-1.58 0 0-3.21 3.386-2.546 8.914 0 0 2.214 8.124 7.749 12.864 0 0 5.202 4.964 3.32 8.35 0 0-1.882 2.82-6.53 3.159 0 0-6.31 1.128-6.974 5.303 0 0 0 3.949 3.1 5.867 0 0 1.66 1.467 1.549 2.934 0 0-.221 2.143-2.103 3.498 0 0-1.993 2.214-.886 4.097 0 0 1.218 1.996 2.325 2.898 0 0 1.882 1.467.443 3.498 0 0-1.882 2.257-1.882 4.175 0 0-.664 7.222 10.183 6.996 0 0 23.361-.384 34.541-5.687 0 0 7.77-2.594 14.73 1.51"/><path fill="#DFE9F2" d="M464.52 351s-6.399 0-8.647.831c0 0-3.114 30.598 2.421 46.063 0 0 1.995 1.507 6.706 1.003 0 0-4.804-31.767-.48-47.897"/><path fill="#9FB6C2" d="M454.228 176s-.184-6.883-4.228-3.612c0 0 3.124-4.23 3.753-6.388l1.247 5.432-.772 4.568z"/><path fill="#E9D0C6" d="M188.214 232.866V204c5.59 7.494 15.61 12.639 15.61 12.639 5.616 2.46 6.382 9.67 6.382 9.67 1.224 5.825 4.41 18.852 4.41 18.852 1.982 7.382 4.384 10.647 4.384 10.647S205.894 264.81 198.566 277c0 0-9.81-7.253-14.338-14.1 0 0-3.22-5.009-4.427-10.528 0 0-1.308-6.338-5.333-11.346 0 0-4.025-4.088-6.138-5.417 0 0-6.487-4.774-7.292-10.805 0 0-.538-3.709 2.42-6.06 0 0 4.279-3.662 10.417 2.369 0 0 9.58 8.612 14.34 11.753"/><path fill="#DABCB2" d="M180 256c3.511 13.397 8.41 18.322 8.41 18.322 3.315 3.414 7.31 5.678 7.31 5.678s.54-1.098 2.28-3.609c0 0-13.666-9.355-17.841-20.21M189 230s7.706 7.869 10 8c0 0-4.304.153-10-3.556V230z"/><path fill="#DFE9F2" d="M227 257.836S222.993 255 221.184 255c-1.809 0-17.01 9.507-27.025 31.022 0 0-1.112 2.308 2.55 6.978 0 0 6.537-20.986 30.291-35.164"/><path fill="#B5D0E5" d="M0 0h187v2H0z"/></g></svg>