<svg xmlns="http://www.w3.org/2000/svg" viewBox="0 0 36 36"><g fill="none" fill-rule="evenodd"><path stroke="#2E8BE0" d="M30.09 33.79a61.017 61.017 0 0 1-24.18 0c-1.65-.346-3.354-2.05-3.7-3.7a61.017 61.017 0 0 1 0-24.18c.346-1.65 2.05-3.354 3.7-3.7a61.017 61.017 0 0 1 24.18 0c1.65.346 3.354 2.05 3.7 3.7a61.017 61.017 0 0 1 0 24.18c-.346 1.65-2.05 3.354-3.7 3.7"/><g fill-rule="nonzero"><path fill="#2E8BE0" d="M10.333 11.05H14V8.34c0-.187.15-.339.333-.339h11.334c.184 0 .333.152.333.339v19.322c0 .187-.15.339-.333.339H10.333a.337.337 0 0 1-.333-.34V11.39c0-.187.15-.34.333-.34zM18.5 27.323H21v-3.05h-2.5v3.05z"/><path fill="#FFF" d="M12 24.356a.333.333 0 0 0-.333.333v1.334c0 .184.149.333.333.333h1.333c.184 0 .334-.15.334-.333v-1.334a.333.333 0 0 0-.334-.333zm0-3a.333.333 0 0 0-.333.333v1.334c0 .184.149.333.333.333h1.333c.184 0 .334-.15.334-.333v-1.334a.333.333 0 0 0-.334-.333zm3.917-2a.25.25 0 0 0-.25.25v1.5c0 .138.112.25.25.25h1.5a.25.25 0 0 0 .25-.25v-1.5a.25.25 0 0 0-.25-.25zm-3.917-1a.333.333 0 0 0-.333.333v1.334c0 .184.149.333.333.333h1.333c.184 0 .334-.15.334-.333v-1.334a.333.333 0 0 0-.334-.333zm0-3a.333.333 0 0 0-.333.333v1.334c0 .184.149.333.333.333h1.333c.184 0 .334-.15.334-.333v-1.334a.333.333 0 0 0-.334-.333zm0-3a.333.333 0 0 0-.333.333v1.334c0 .184.149.333.333.333h1.333c.184 0 .334-.15.334-.333v-1.334a.333.333 0 0 0-.334-.333zm10.25 7a.25.25 0 0 0-.25.25v1.5c0 .138.112.25.25.25h1.5a.25.25 0 0 0 .25-.25v-1.5a.25.25 0 0 0-.25-.25zm-3 0a.25.25 0 0 0-.25.25v1.5c0 .138.112.25.25.25h1.5a.25.25 0 0 0 .25-.25v-1.5a.25.25 0 0 0-.25-.25zm3-3a.25.25 0 0 0-.25.25v1.5c0 .138.112.25.25.25h1.5a.25.25 0 0 0 .25-.25v-1.5a.25.25 0 0 0-.25-.25zm-3 0a.25.25 0 0 0-.25.25v1.5c0 .138.112.25.25.25h1.5a.25.25 0 0 0 .25-.25v-1.5a.25.25 0 0 0-.25-.25zm-3 0a.25.25 0 0 0-.25.25v1.5c0 .138.112.25.25.25h1.5a.25.25 0 0 0 .25-.25v-1.5a.25.25 0 0 0-.25-.25zm6-3a.25.25 0 0 0-.25.25v1.5c0 .138.112.25.25.25h1.5a.25.25 0 0 0 .25-.25v-1.5a.25.25 0 0 0-.25-.25zm-3 0a.25.25 0 0 0-.25.25v1.5c0 .138.112.25.25.25h1.5a.25.25 0 0 0 .25-.25v-1.5a.25.25 0 0 0-.25-.25zm-3 0a.25.25 0 0 0-.25.25v1.5c0 .138.112.25.25.25h1.5a.25.25 0 0 0 .25-.25v-1.5a.25.25 0 0 0-.25-.25zm6-3a.25.25 0 0 0-.25.25v1.5c0 .138.112.25.25.25h1.5a.25.25 0 0 0 .25-.25v-1.5a.25.25 0 0 0-.25-.25zm-3 0a.25.25 0 0 0-.25.25v1.5c0 .138.112.25.25.25h1.5a.25.25 0 0 0 .25-.25v-1.5a.25.25 0 0 0-.25-.25zm-3 0a.25.25 0 0 0-.25.25v1.5c0 .138.112.25.25.25h1.5a.25.25 0 0 0 .25-.25v-1.5a.25.25 0 0 0-.25-.25z"/></g></g></svg>