<svg xmlns="http://www.w3.org/2000/svg" viewBox="0 0 36 36"><path d="M30.09 33.79a61.017 61.017 0 01-24.18 0c-1.65-.346-3.354-2.05-3.7-3.7a61.017 61.017 0 010-24.18c.346-1.65 2.05-3.354 3.7-3.7a61.017 61.017 0 0124.18 0c1.65.346 3.354 2.05 3.7 3.7a61.017 61.017 0 010 24.18c-.346 1.65-2.05 3.354-3.7 3.7" stroke="#2E8BE0" fill="none"/><path d="M17.136 13.9l3.276 9.1h-2.015l-.728-2.106h-3.265L13.678 23h-1.912l3.277-9.1h2.093zm-1.092 2.132h-.026c-.156.585-1.08 3.315-1.08 3.315h2.198s-.936-2.73-1.092-3.315zm5.5 6.968h1.95v-9.1h-1.95V23z" fill="#2E8BE0"/></svg>