<svg viewBox="0 0 36 36" xmlns="http://www.w3.org/2000/svg"><g fill="none" fill-rule="evenodd"><path d="M5.911 33.791c-1.652-.347-3.355-2.05-3.702-3.702a61.053 61.053 0 010-24.178C2.556 4.26 4.259 2.556 5.91 2.21a61.053 61.053 0 0124.178 0c1.652.347 3.355 2.05 3.702 3.702a61.053 61.053 0 010 24.178c-.347 1.652-2.05 3.355-3.702 3.702a61.053 61.053 0 01-24.178 0z" stroke="#2E8BE0"/><path d="M13.406 13.9l3.276 9.1h-2.015l-.728-2.106h-3.263L9.948 23H8.037l3.276-9.1h2.093zm-1.092 2.132h-.026c-.156.585-1.079 3.315-1.079 3.315h2.197s-.936-2.73-1.092-3.315zm8.657 3.77H19.45V23h-1.937v-9.1h3.458c2.171 0 3.601.871 3.601 2.899 0 2.067-1.495 3.003-3.601 3.003zm1.612-3.003c0-.988-.598-1.287-1.807-1.287H19.45v2.678h1.326c1.209 0 1.807-.403 1.807-1.391zM25.572 23v-9.1h1.95V23h-1.95z" fill="#2E8BE0"/></g></svg>