<svg viewBox="0 0 77 75" xmlns="http://www.w3.org/2000/svg"><g fill="none" fill-rule="evenodd"><path d="M65.167 71.43c-17.778 3.462-35.556 3.462-53.334 0-3.644-.745-7.401-4.404-8.166-7.952-3.556-17.31-3.556-34.62 0-51.93C4.432 8 8.189 4.342 11.833 3.596 29.611.135 47.39.135 65.167 3.596c3.644.746 7.401 4.404 8.166 7.952 3.556 17.31 3.556 34.62 0 51.93-.765 3.548-4.522 7.207-8.166 7.952" stroke="#2E8BE0"/><path d="M28.862 27.8L35.414 46h-4.03l-1.456-4.212h-6.526L21.946 46h-3.822l6.552-18.2h4.186zm-2.184 4.264h-.052c-.312 1.17-2.158 6.63-2.158 6.63h4.394s-1.872-5.46-2.184-6.63zm17.614 7.54H41.25V46h-3.874V27.8h6.916c4.342 0 7.202 1.742 7.202 5.798 0 4.134-2.99 6.006-7.202 6.006zm3.224-6.006c0-1.976-1.196-2.574-3.614-2.574H41.25v5.356h2.652c2.418 0 3.614-.806 3.614-2.782zM53.794 46V27.8h3.9V46h-3.9z" fill="#2E8BE0"/></g></svg>