<svg xmlns="http://www.w3.org/2000/svg" viewBox="0 0 36 36"><path fill="none" stroke="#2E8BE0" d="M30.1 33.8c-8.1 1.6-16.1 1.6-24.2 0-1.7-.3-3.4-2-3.7-3.7C.6 22 .6 14 2.2 5.9c.3-1.7 2-3.4 3.7-3.7C14 .6 22 .6 30.1 2.2c1.6.3 3.4 2 3.7 3.7 1.6 8.1 1.6 16.1 0 24.2-.4 1.6-2.1 3.3-3.7 3.7"/><path fill="#2E8BE0" d="M12.6 13.9l3.3 9.1h-2l-.7-2.1H9.9L9.2 23H7.3l3.3-9.1h2zM11.5 16l-1.1 3.3h2.2L11.5 16zm13.4 7h2v-9.1h-2V23zm-4.5-3.2h-1.5V23H17v-9.1h3.5c2.2 0 3.6.9 3.6 2.9-.1 2.1-1.6 3-3.7 3zm1.6-3c0-1-.6-1.3-1.8-1.3h-1.3v2.7h1.3c1.2 0 1.8-.4 1.8-1.4z"/></svg>