<svg xmlns="http://www.w3.org/2000/svg" viewBox="0 0 36 36">
	<g fill="none" fill-rule="evenodd">
		<path stroke="#2E8BE0" d="M5.91 33.79c-1.65-.346-3.354-2.05-3.7-3.7-1.613-8.06-1.613-16.12 0-24.18.346-1.65 2.05-3.354 3.7-3.7 8.06-1.613 16.12-1.613 24.18 0 1.65.346 3.354 2.05 3.7 3.7 1.613 8.06 1.613 16.12 0 24.18-.346 1.65-2.05 3.354-3.7 3.7-8.06 1.613-16.12 1.613-24.18 0z" />
		<path fill="#2E8BE0" d="M15.088 13.9l3.276 9.1H16.35l-.73-2.106H12.36L11.63 23H9.72l3.275-9.1h2.093zm-1.092 2.132h-.026c-.156.585-1.08 3.315-1.08 3.315h2.198s-.936-2.73-1.092-3.315zm3.64-2.132h2.093s1.663 4.77 2.274 6.76h.026c.598-1.99 2.262-6.76 2.262-6.76h2.002L22.94 23h-1.99l-3.314-9.1z" />
	</g>
</svg>