<svg viewBox="0 0 77 75" xmlns="http://www.w3.org/2000/svg"><g fill="none" fill-rule="evenodd"><path d="M65.167 71.43c-17.778 3.462-35.556 3.462-53.334 0-3.644-.745-7.401-4.404-8.166-7.952-3.556-17.31-3.556-34.62 0-51.93C4.432 8 8.189 4.342 11.833 3.596 29.611.135 47.39.135 65.167 3.596c3.644.746 7.401 4.404 8.166 7.952 3.556 17.31 3.556 34.62 0 51.93-.765 3.548-4.522 7.207-8.166 7.952" stroke="#2E8BE0"/><path d="M32.976 27.8L39.528 46h-4.03l-1.456-4.212h-6.526L26.06 46h-3.822l6.552-18.2h4.186zm-2.184 4.264h-.052c-.312 1.17-2.158 6.63-2.158 6.63h4.394s-1.872-5.46-2.184-6.63zm6.98-4.264h4.186s3.328 9.542 4.55 13.52h.052c1.196-3.978 4.524-13.52 4.524-13.52h4.004L48.38 46h-3.978l-6.63-18.2z" fill="#2E8BE0" fill-rule="nonzero"/></g></svg>