<svg viewBox="0 0 36 36" xmlns="http://www.w3.org/2000/svg"><g fill="none" fill-rule="evenodd"><path d="M5.911 33.791c-1.652-.347-3.355-2.05-3.702-3.702a61.053 61.053 0 010-24.178C2.556 4.26 4.259 2.556 5.91 2.21a61.053 61.053 0 0124.178 0c1.652.347 3.355 2.05 3.702 3.702a61.053 61.053 0 010 24.178c-.347 1.652-2.05 3.355-3.702 3.702a61.053 61.053 0 01-24.178 0z" stroke="#2E8BE0"/><path d="M15.388 13.9l3.276 9.1h-2.015l-.728-2.106h-3.263L11.93 23h-1.911l3.276-9.1h2.093zm-1.092 2.132h-.026c-.156.585-1.079 3.315-1.079 3.315h2.197s-.936-2.73-1.092-3.315zm3.34-2.132h2.093s1.664 4.771 2.275 6.76h.026c.598-1.989 2.262-6.76 2.262-6.76h2.002L22.94 23h-1.989l-3.315-9.1z" fill="#2E8BE0" fill-rule="nonzero"/></g></svg>