<svg viewBox="0 0 36 36" xmlns="http://www.w3.org/2000/svg"><g fill="none" fill-rule="evenodd"><path d="M5.911 33.791c-1.652-.347-3.355-2.05-3.702-3.702a61.053 61.053 0 010-24.178C2.556 4.26 4.259 2.556 5.91 2.21a61.053 61.053 0 0124.178 0c1.652.347 3.355 2.05 3.702 3.702a61.053 61.053 0 010 24.178c-.347 1.652-2.05 3.355-3.702 3.702a61.053 61.053 0 01-24.178 0z" stroke="#2E8BE0"/><path d="M9.727 18.45c0-2.977 1.715-4.732 4.458-4.732 1.938 0 3.302.858 3.848 2.574l-1.898.663c-.311-1.014-.896-1.612-1.988-1.612-1.612 0-2.406 1.3-2.406 3.107 0 1.794.794 3.107 2.419 3.107 1 0 1.625-.507 1.95-1.521l1.871.663c-.598 1.534-1.858 2.483-3.848 2.483-2.677 0-4.406-1.742-4.406-4.732zM23.66 13.9l3.276 9.1h-2.015l-.728-2.106h-3.262L20.203 23h-1.91l3.276-9.1h2.092zm-1.092 2.132h-.025c-.156.585-1.08 3.315-1.08 3.315h2.197s-.936-2.73-1.092-3.315z" fill="#2E8BE0"/></g></svg>