<svg xmlns="http://www.w3.org/2000/svg" viewBox="0 0 36 36"><path stroke="#2E8BE0" d="M30.089 33.791a61.045 61.045 0 01-24.178 0c-1.652-.347-3.355-2.05-3.702-3.702a61.045 61.045 0 010-24.178c.347-1.652 2.05-3.355 3.702-3.702a61.045 61.045 0 0124.178 0c1.652.347 3.355 2.05 3.702 3.702a61.045 61.045 0 010 24.178c-.347 1.652-2.05 3.355-3.702 3.702" fill="none"/><path fill="#2E8BE0" d="M9.427 18.45c0 2.99 1.729 4.732 4.407 4.732 1.989 0 3.25-.949 3.848-2.483l-1.872-.663c-.325 1.014-.949 1.521-1.95 1.521-1.625 0-2.418-1.313-2.418-3.107 0-1.807.793-3.107 2.405-3.107 1.092 0 1.677.598 1.989 1.612l1.898-.663c-.546-1.716-1.911-2.574-3.848-2.574-2.743 0-4.459 1.755-4.459 4.732zm14.235-4.55l3.276 9.1h-2.015l-.728-2.106h-3.263L20.204 23h-1.911l3.276-9.1h2.093zm-1.092 2.132h-.026c-.156.585-1.079 3.315-1.079 3.315h2.197s-.936-2.73-1.092-3.315z"/></svg>