<svg viewBox="0 0 36 36" xmlns="http://www.w3.org/2000/svg" xmlns:xlink="http://www.w3.org/1999/xlink"><symbol id="a" viewBox="0 0 36 36"><path d="m18 1c4.11 0 8.26.41 12.33 1.23 1.49.31 3.13 1.95 3.44 3.43 1.64 8.19 1.64 16.5 0 24.68-.31 1.49-1.95 3.13-3.43 3.44-4.08.82-8.23 1.23-12.34 1.23s-8.27-.41-12.33-1.23c-1.49-.31-3.13-1.95-3.44-3.43-1.64-8.19-1.64-16.5 0-24.68.31-1.49 1.95-3.13 3.43-3.44 4.08-.82 8.24-1.23 12.35-1.23m-.01-1c-4.19 0-8.38.42-12.55 1.25-1.89.4-3.81 2.32-4.21 4.21-1.66 8.32-1.66 16.76 0 25.08.4 1.89 2.32 3.81 4.21 4.21 4.16.83 8.35 1.25 12.54 1.25s8.38-.42 12.54-1.25c1.89-.4 3.81-2.32 4.21-4.21 1.66-8.32 1.66-16.76 0-25.08-.4-1.89-2.32-3.81-4.21-4.21-4.15-.83-8.34-1.25-12.53-1.25z" fill="#2e8be0"/></symbol><use height="36" width="36" xlink:href="#a"/><path d="m9.8 13.14c1.91 0 3.25.84 3.79 2.53l-1.87.65c-.31-1-.88-1.58-1.96-1.58-1.59 0-2.37 1.28-2.37 3.06s.78 3.06 2.38 3.06c.98 0 1.6-.5 1.92-1.5l1.84.65c-.59 1.51-1.83 2.44-3.78 2.44-2.63 0-4.33-1.71-4.33-4.65s1.69-4.65 4.39-4.65zm4.93.18h3.34c2.74 0 4.39 1.62 4.39 4.48s-1.65 4.48-4.39 4.48h-3.34v-8.95zm3.29 1.59h-1.36v5.78h1.36c1.7 0 2.45-1.15 2.45-2.89s-.75-2.89-2.45-2.89zm10.78 3.7 2.06 3.67h-2.11l-1.85-3.39h-1.19v3.39h-1.91v-8.95h3.27c2.07 0 3.43.82 3.43 2.72 0 1.33-.65 2.15-1.7 2.56zm-1.94-3.7h-1.15v2.42h1.15c1.11 0 1.67-.36 1.67-1.27s-.56-1.15-1.67-1.15z" fill="#2e8be0"/></svg>