<svg id="Layer_1" data-name="Layer 1" xmlns="http://www.w3.org/2000/svg" viewBox="0 0 36 36"><defs><style>.cls-2{fill:#4187c7}</style></defs><path d="M30.15 34A61 61 0 016 34a5.31 5.31 0 01-3.7-3.7 61.13 61.13 0 010-24.18A5.3 5.3 0 016 2.4a60.76 60.76 0 0124.18 0 5.27 5.27 0 013.7 3.7 60.76 60.76 0 010 24.18 5.27 5.27 0 01-3.7 3.7" fill="none" stroke="#4187c7" stroke-miterlimit="10"/><circle class="cls-2" cx="13.04" cy="9.13" r="5.73"/><circle class="cls-2" cx="24.74" cy="11.83" r="4.55"/><path class="cls-2" d="M17.7 19.69a1 1 0 01.26-.54 10.22 10.22 0 017.29-2.65 11.4 11.4 0 014.73 1 6.62 6.62 0 00-5.24-2.74 6.5 6.5 0 00-4.63 2A8.5 8.5 0 0013 12.65c-4.84 0-8.77 4.52-8.89 10.15h13.4a24.1 24.1 0 01.19-3.11z"/><path d="M25.25 17.5a9.3 9.3 0 016.56 2.33A30.9 30.9 0 0131.9 25c-.24 5.26-6.65 8.42-6.65 8.42S18.84 30.3 18.6 25a30.9 30.9 0 01.09-5.21 9.27 9.27 0 016.56-2.29z" fill="#ed2f27"/><path d="M22 24.41A3.33 3.33 0 0125.25 21a3.28 3.28 0 013.28 3.28 4.29 4.29 0 01-2.2 3.24 5.76 5.76 0 002 .5 4.7 4.7 0 001.85-3.74 4.9 4.9 0 00-9.8 0 5.43 5.43 0 002 4.19 10.17 10.17 0 005 2.06 5.73 5.73 0 001.46-1.36A14 14 0 0124.41 28 4 4 0 0122 24.41z" fill="#fff"/></svg>