<svg xmlns="http://www.w3.org/2000/svg" viewBox="0 0 77 75"><path fill="none" stroke="#2E8BE0" d="M65.167 71.43c-17.778 3.462-35.556 3.462-53.334 0-3.644-.745-7.4-4.404-8.166-7.952-3.556-17.31-3.556-34.62 0-51.93C4.432 8 8.19 4.342 11.833 3.596c17.778-3.46 35.556-3.46 53.334 0 3.644.746 7.4 4.404 8.166 7.952 3.556 17.31 3.556 34.62 0 51.93-.765 3.548-4.522 7.207-8.166 7.952"/><path fill="#2E8BE0" d="M26.866 36.9c0-5.954 3.432-9.464 8.918-9.464 3.874 0 6.604 1.716 7.696 5.148l-3.796 1.326c-.624-2.028-1.794-3.224-3.978-3.224-3.224 0-4.81 2.6-4.81 6.214 0 3.588 1.586 6.214 4.836 6.214 2.002 0 3.25-1.014 3.9-3.042l3.744 1.326c-1.196 3.068-3.718 4.966-7.696 4.966-5.356 0-8.814-3.484-8.814-9.464zM45.78 46V27.8h3.9V46h-3.9z"/></svg>