<svg viewBox="0 0 36 36" xmlns="http://www.w3.org/2000/svg"><g fill="none" fill-rule="evenodd"><path d="M5.911 33.791c-1.652-.347-3.355-2.05-3.702-3.702a61.053 61.053 0 010-24.178C2.556 4.26 4.259 2.556 5.91 2.21a61.053 61.053 0 0124.178 0c1.652.347 3.355 2.05 3.702 3.702a61.053 61.053 0 010 24.178c-.347 1.652-2.05 3.355-3.702 3.702a61.053 61.053 0 01-24.178 0z" stroke="#2E8BE0"/><path d="M12.333 11.45c0-2.977 1.716-4.732 4.459-4.732 1.937 0 3.302.858 3.848 2.574l-1.898.663c-.312-1.014-.897-1.612-1.989-1.612-1.612 0-2.405 1.3-2.405 3.107 0 1.794.793 3.107 2.418 3.107 1.001 0 1.625-.507 1.95-1.521l1.872.663c-.598 1.534-1.859 2.483-3.848 2.483-2.678 0-4.407-1.742-4.407-4.732zM21.64 16V6.9h1.95V16h-1.95zM5.625 24.45c0-2.977 1.716-4.732 4.46-4.732 1.937 0 3.301.858 3.847 2.574l-1.897.663c-.313-1.014-.898-1.612-1.99-1.612-1.612 0-2.405 1.3-2.405 3.107 0 1.794.793 3.107 2.418 3.107 1.002 0 1.625-.507 1.95-1.521l1.872.663c-.598 1.534-1.858 2.483-3.848 2.483-2.677 0-4.407-1.742-4.407-4.732zM16.7 22.292c0 .78.637 1.027 2.12 1.274 2.157.364 3.145 1.118 3.145 2.756 0 1.755-1.546 2.86-3.665 2.86-2.302 0-3.692-1.3-3.77-2.769l1.95-.312c.09.871.676 1.508 1.82 1.508.922 0 1.677-.351 1.677-1.183 0-.676-.494-1.001-1.912-1.222-1.898-.299-3.34-.923-3.34-2.756 0-1.82 1.469-2.73 3.484-2.73 1.884 0 3.302.897 3.613 2.496l-1.976.429c-.143-.832-.728-1.352-1.69-1.352-.974 0-1.456.39-1.456 1.001zM27.764 19.9l3.275 9.1h-2.015l-.728-2.106h-3.263L24.304 29h-1.91l3.276-9.1h2.093zm-1.093 2.132h-.026c-.155.585-1.078 3.315-1.078 3.315h2.197s-.936-2.73-1.093-3.315z" fill="#2E8BE0"/></g></svg>