<svg xmlns="http://www.w3.org/2000/svg" viewBox="0 0 36 36"><path stroke="#2E8BE0" d="M30.09 33.79a61.017 61.017 0 01-24.18 0c-1.65-.346-3.354-2.05-3.7-3.7a61.017 61.017 0 010-24.18c.346-1.65 2.05-3.354 3.7-3.7a61.017 61.017 0 0124.18 0c1.65.346 3.354 2.05 3.7 3.7a61.017 61.017 0 010 24.18c-.346 1.65-2.05 3.354-3.7 3.7" fill="none"/><path fill="#2E8BE0" d="M12.033 18.45c0-2.977 1.716-4.732 4.459-4.732 1.937 0 3.302.858 3.848 2.574l-1.898.663c-.312-1.014-.897-1.612-1.989-1.612-1.612 0-2.405 1.3-2.405 3.107 0 1.794.793 3.107 2.418 3.107 1.001 0 1.625-.507 1.95-1.521l1.872.663c-.598 1.534-1.859 2.483-3.848 2.483-2.678 0-4.407-1.742-4.407-4.732zM21.64 23v-9.1h1.95V23h-1.95z"/></svg>