<svg xmlns="http://www.w3.org/2000/svg" viewBox="0 0 36 36"><path stroke="#2E8BE0" d="M30.089 33.791c-8.059 1.612-16.118 1.612-24.178 0-1.652-.347-3.355-2.05-3.702-3.702-1.612-8.059-1.612-16.118 0-24.178.347-1.652 2.05-3.355 3.702-3.702 8.059-1.612 16.118-1.612 24.178 0 1.652.347 3.355 2.05 3.702 3.702 1.612 8.059 1.612 16.118 0 24.178-.347 1.652-2.05 3.355-3.702 3.702" fill="none"/><path fill="#2E8BE0" d="M8.088 18.45c0 2.99 1.729 4.732 4.407 4.732 1.989 0 3.25-.949 3.848-2.483l-1.872-.663c-.325 1.014-.949 1.521-1.95 1.521-1.625 0-2.418-1.313-2.418-3.107 0-1.807.793-3.107 2.405-3.107 1.092 0 1.677.598 1.989 1.612l1.898-.663c-.546-1.716-1.911-2.574-3.848-2.574-2.743 0-4.459 1.755-4.459 4.732zm15.431 4.55c.39-1.105 1.664-4.914 2.184-6.539h.039v6.539h1.794v-9.1h-2.717s-1.898 5.876-2.158 6.773c-.273-.897-2.236-6.773-2.236-6.773h-2.73v9.1h1.794v-6.539h.039c.494 1.625 1.664 5.109 2.171 6.539h1.82z"/></svg>
