<svg xmlns="http://www.w3.org/2000/svg" viewBox="0 0 77 75"><path d="M65.167 71.43c-17.778 3.462-35.556 3.462-53.334 0-3.644-.745-7.401-4.404-8.166-7.952-3.556-17.31-3.556-34.62 0-51.93C4.432 8 8.189 4.342 11.833 3.596 29.611.135 47.39.135 65.167 3.596c3.644.746 7.401 4.404 8.166 7.952 3.556 17.31 3.556 34.62 0 51.93-.765 3.548-4.522 7.207-8.166 7.952" stroke="#2E8BE0" fill="#FFF"/><path d="M38.497 12c14.652 0 22.019 7.901 22.019 7.901s.842 5.849.305 17.625C60.009 55.316 38.5 66 38.5 66c-.002.001-21.508-10.685-22.32-28.474-.538-11.776.304-17.625.304-17.625S23.844 12 38.497 12z" fill="#2E8BE0"/><path d="M27.464 35.594c0-6.161 4.95-11.173 11.036-11.173 6.097.006 11.038 4.868 11.045 10.866 0 4.783-4.18 8.719-7.4 10.741 1.249.702 4.007 1.438 6.647 1.677C52.706 44.736 55 40.149 55 35.287c.02-5.812-3.12-11.191-8.234-14.103a16.735 16.735 0 00-16.532 0c-5.113 2.912-8.254 8.29-8.234 14.103 0 5.406 2.288 10.209 6.616 13.889 4.047 3.44 9.967 5.737 16.707 6.824 1.46-.794 3.957-3.138 4.893-4.51-5.628-.712-10.956-2.062-14.526-3.906-5.459-2.816-8.226-6.85-8.226-11.99z" fill="#FFF"/></svg>