<svg viewBox="0 0 36 36" xmlns="http://www.w3.org/2000/svg"><g fill="none" fill-rule="evenodd"><path d="M30.1 33.8c-8.1 1.6-16.1 1.6-24.2 0-1.7-.3-3.4-2-3.7-3.7C.6 22 .6 14 2.2 5.9c.3-1.7 2-3.4 3.7-3.7C14 .6 22 .6 30.1 2.2c1.6.3 3.4 2 3.7 3.7 1.6 8.1 1.6 16.1 0 24.2-.4 1.6-2.1 3.3-3.7 3.7" stroke="#2E8BE0"/><g fill-rule="nonzero"><path d="M17.998 6c6.513 0 9.787 3.658 9.787 3.658s.374 2.708.135 8.16C27.56 26.053 18 30.999 18 31c0 0-9.56-4.947-9.92-13.182-.24-5.452.135-8.16.135-8.16S11.487 6 17.998 6z" fill="#2E8BE0"/><path d="M12.65 16.624c0-2.83 2.4-5.133 5.35-5.133 2.956.003 5.352 2.236 5.355 4.992 0 2.198-2.026 4.006-3.588 4.935.606.323 1.943.661 3.223.77 1.898-1.363 3.01-3.47 3.01-5.705.01-2.67-1.513-5.142-3.992-6.48a8.505 8.505 0 00-8.016 0c-2.479 1.338-4.002 3.81-3.992 6.48 0 2.484 1.11 4.69 3.208 6.382 1.962 1.58 4.832 2.635 8.1 3.135.708-.365 1.919-1.442 2.373-2.072-2.73-.327-5.312-.948-7.044-1.795-2.646-1.294-3.988-3.147-3.988-5.509z" fill="#FFF"/></g></g></svg>