<svg xmlns="http://www.w3.org/2000/svg" viewBox="0 0 36 36"><path stroke="#2E8BE0" d="M30.09 33.79c-8.06 1.613-16.12 1.613-24.18 0-1.65-.346-3.354-2.05-3.7-3.7-1.613-8.06-1.613-16.12 0-24.18.346-1.65 2.05-3.354 3.7-3.7 8.06-1.613 16.12-1.613 24.18 0 1.65.346 3.354 2.05 3.7 3.7 1.613 8.06 1.613 16.12 0 24.18-.346 1.65-2.05 3.354-3.7 3.7" fill="none"/><path fill="#2E8BE0" d="M4.162 17.45c0-2.977 1.716-4.732 4.459-4.732 1.937 0 3.302.858 3.848 2.574l-1.898.663c-.312-1.014-.897-1.612-1.989-1.612-1.612 0-2.405 1.3-2.405 3.107 0 1.794.793 3.107 2.418 3.107 1.001 0 1.625-.507 1.95-1.521l1.872.663c-.598 1.534-1.859 2.483-3.848 2.483-2.678 0-4.407-1.742-4.407-4.732zm16.419-1.781c0 1.352-.663 2.184-1.729 2.6l2.093 3.731h-2.145l-1.885-3.445h-1.209v3.445h-1.937v-9.1h3.328c2.106 0 3.484.832 3.484 2.769zm-2.002.013c0-.884-.572-1.17-1.703-1.17h-1.17v2.457h1.17c1.131 0 1.703-.364 1.703-1.287zm8.346-2.782l3.276 9.1h-2.015l-.728-2.106h-3.263l-.728 2.106h-1.911l3.276-9.1h2.093zm-1.092 2.132h-.026c-.156.585-1.079 3.315-1.079 3.315h2.197s-.936-2.73-1.092-3.315z"/></svg>
