<svg viewBox="0 0 36 36" xmlns="http://www.w3.org/2000/svg"><g fill="none" fill-rule="evenodd"><path d="M5.911 33.791c-1.652-.347-3.355-2.05-3.702-3.702a61.053 61.053 0 010-24.178C2.556 4.26 4.259 2.556 5.91 2.21a61.053 61.053 0 0124.178 0c1.652.347 3.355 2.05 3.702 3.702a61.053 61.053 0 010 24.178c-.347 1.652-2.05 3.355-3.702 3.702a61.053 61.053 0 01-24.178 0z" stroke="#2E8BE0"/><path d="M8.219 11.45c0-2.977 1.716-4.732 4.459-4.732 1.937 0 3.302.858 3.848 2.574l-1.898.663c-.312-1.014-.897-1.612-1.989-1.612-1.612 0-2.405 1.3-2.405 3.107 0 1.794.793 3.107 2.418 3.107 1.001 0 1.625-.507 1.95-1.521l1.872.663c-.598 1.534-1.859 2.483-3.848 2.483-2.678 0-4.407-1.742-4.407-4.732zm16.119-1.781c0 1.352-.663 2.184-1.729 2.6L24.702 16h-2.145l-1.885-3.445h-1.209V16h-1.937V6.9h3.328c2.106 0 3.484.832 3.484 2.769zm-2.002.013c0-.884-.572-1.17-1.703-1.17h-1.17v2.457h1.17c1.131 0 1.703-.364 1.703-1.287zM25.754 16V6.9h1.95V16h-1.95zM5.612 24.45c0-2.977 1.716-4.732 4.46-4.732 1.936 0 3.302.858 3.848 2.574l-1.898.663c-.313-1.014-.897-1.612-1.99-1.612-1.611 0-2.404 1.3-2.404 3.107 0 1.794.793 3.107 2.418 3.107 1 0 1.625-.507 1.95-1.521l1.871.663c-.598 1.534-1.859 2.483-3.848 2.483-2.678 0-4.406-1.742-4.406-4.732zm16.12-1.781c0 1.352-.663 2.184-1.73 2.6L22.096 29H19.95l-1.884-3.445h-1.21V29H14.92v-9.1h3.329c2.105 0 3.483.832 3.483 2.769zm-2.002.013c0-.884-.573-1.17-1.704-1.17h-1.17v2.457h1.17c1.131 0 1.704-.364 1.704-1.287zm8.046-2.782L31.05 29h-2.015l-.727-2.106h-3.264L24.318 29h-1.912l3.276-9.1h2.094zm-1.092 2.132h-.027c-.155.585-1.079 3.315-1.079 3.315h2.198s-.936-2.73-1.092-3.315z" fill="#2E8BE0"/></g></svg>