<svg viewBox="0 0 77 75" xmlns="http://www.w3.org/2000/svg"><g fill="none" fill-rule="evenodd"><path d="M65.167 71.43c-17.778 3.462-35.556 3.462-53.334 0-3.644-.745-7.401-4.404-8.166-7.952-3.556-17.31-3.556-34.62 0-51.93C4.432 8 8.189 4.342 11.833 3.596 29.611.135 47.39.135 65.167 3.596c3.644.746 7.401 4.404 8.166 7.952 3.556 17.31 3.556 34.62 0 51.93-.765 3.548-4.522 7.207-8.166 7.952" stroke="#2E8BE0"/><path d="M18.488 24.9c0-5.954 3.432-9.464 8.918-9.464 3.874 0 6.604 1.716 7.696 5.148l-3.796 1.326c-.624-2.028-1.794-3.224-3.978-3.224-3.224 0-4.81 2.6-4.81 6.214 0 3.588 1.586 6.214 4.836 6.214 2.002 0 3.25-1.014 3.9-3.042l3.744 1.326c-1.196 3.068-3.718 4.966-7.696 4.966-5.356 0-8.814-3.484-8.814-9.464zm32.538-3.562c0 2.704-1.326 4.368-3.458 5.2L51.754 34h-4.29l-3.77-6.89h-2.418V34h-3.874V15.8h6.656c4.212 0 6.968 1.664 6.968 5.538zm-4.004.026c0-1.768-1.144-2.34-3.406-2.34h-2.34v4.914h2.34c2.262 0 3.406-.728 3.406-2.574zM54.158 34V15.8h3.9V34h-3.9zM13.275 48.9c0-5.954 3.432-9.464 8.918-9.464 3.874 0 6.604 1.716 7.696 5.148l-3.796 1.326c-.624-2.028-1.794-3.224-3.978-3.224-3.224 0-4.81 2.6-4.81 6.214 0 3.588 1.586 6.214 4.836 6.214 2.002 0 3.25-1.014 3.9-3.042l3.744 1.326c-1.196 3.068-3.718 4.966-7.696 4.966-5.356 0-8.814-3.484-8.814-9.464zm32.538-3.562c0 2.704-1.326 4.368-3.458 5.2L46.541 58h-4.29l-3.77-6.89h-2.418V58h-3.874V39.8h6.656c4.212 0 6.968 1.664 6.968 5.538zm-4.004.026c0-1.768-1.144-2.34-3.406-2.34h-2.34v4.914h2.34c2.262 0 3.406-.728 3.406-2.574zM58.201 39.8L64.753 58h-4.03l-1.456-4.212h-6.526L51.285 58h-3.822l6.552-18.2h4.186zm-2.184 4.264h-.052c-.312 1.17-2.158 6.63-2.158 6.63h4.394s-1.872-5.46-2.184-6.63z" fill="#2E8BE0"/></g></svg>