<svg version="1.1" id="Layer_1" xmlns="http://www.w3.org/2000/svg" x="0" y="0" viewBox="0 0 35 35" xml:space="preserve"><style>.st0{fill:#2e8be0}</style><path class="st0" d="M17.5 35c-4.1 0-8.1-.4-12.2-1.2-1.8-.4-3.7-2.3-4.1-4.1-1.6-8.1-1.6-16.3 0-24.4.4-1.8 2.3-3.7 4.1-4.1 8.1-1.6 16.3-1.6 24.4 0 1.8.4 3.7 2.3 4.1 4.1 1.6 8.1 1.6 16.3 0 24.4-.4 1.8-2.3 3.7-4.1 4.1-4.1.8-8.1 1.2-12.2 1.2zm0-34c-4 0-8 .4-12 1.2-1.5.3-3 1.9-3.3 3.3-1.6 8-1.6 16 0 24 .3 1.5 1.9 3 3.3 3.3 8 1.6 16 1.6 24 0 1.5-.3 3-1.9 3.3-3.3 1.6-8 1.6-16 0-24-.3-1.5-1.9-3-3.3-3.3-4-.8-8-1.2-12-1.2z"/><path class="st0" d="M5.9 13.3c1.7 0 2.9.8 3.4 2.3l-1.7.6c-.3-.9-.8-1.4-1.8-1.4-1.4 0-2.1 1.2-2.1 2.8 0 1.6.7 2.8 2.1 2.8.9 0 1.4-.4 1.7-1.3l1.7.6c-.5 1.4-1.6 2.2-3.4 2.2-2.4 0-3.9-1.5-3.9-4.2.1-2.8 1.6-4.4 4-4.4zM13.4 16.7c1.9.3 2.8 1 2.8 2.4 0 1.6-1.4 2.5-3.2 2.5-2 0-3.3-1.2-3.3-2.5l1.7-.3c.1.8.6 1.3 1.6 1.3.8 0 1.5-.3 1.5-1 0-.6-.4-.9-1.7-1.1-1.7-.3-3-.8-3-2.4 0-1.6 1.3-2.4 3.1-2.4 1.7 0 2.9.8 3.2 2.2l-1.7.4c-.1-.7-.6-1.2-1.5-1.2s-1.3.3-1.3.9c-.1.8.5 1 1.8 1.2zM23.9 21.5h-1.8l-.6-1.9h-2.9l-.6 1.9h-1.7l2.9-8.1H21l2.9 8.1zM20 15.4c-.1.5-1 2.9-1 2.9h2s-.9-2.4-1-2.9zM27.8 21.5c-.4-1.3-1.5-4.3-1.9-5.8v5.8h-1.6v-8.1h2.4s1.7 5.2 2 6c.2-.8 1.9-6 1.9-6H33v8.1h-1.6v-5.8c-.5 1.4-1.6 4.8-1.9 5.8h-1.7z"/></svg>