<svg viewBox="0 0 77 75" xmlns="http://www.w3.org/2000/svg"><g fill="none" fill-rule="evenodd"><path d="M65.167 71.43c-17.778 3.462-35.556 3.462-53.334 0-3.644-.745-7.401-4.404-8.166-7.952-3.556-17.31-3.556-34.62 0-51.93C4.432 8 8.189 4.342 11.833 3.596 29.611.135 47.39.135 65.167 3.596c3.644.746 7.401 4.404 8.166 7.952 3.556 17.31 3.556 34.62 0 51.93-.765 3.548-4.522 7.207-8.166 7.952" stroke="#2E8BE0"/><path d="M17.04 43.28c3.06 0 5-1.46 5.92-3.82l-2.88-1.02c-.5 1.56-1.46 2.34-3 2.34-2.5 0-3.72-2.02-3.72-4.78 0-2.78 1.22-4.78 3.7-4.78 1.68 0 2.58.92 3.06 2.48l2.92-1.02c-.84-2.64-2.94-3.96-5.92-3.96-4.22 0-6.86 2.7-6.86 7.28 0 4.6 2.66 7.28 6.78 7.28zm13.18 0c3.26 0 5.64-1.7 5.64-4.4 0-2.52-1.52-3.68-4.84-4.24-2.28-.38-3.26-.76-3.26-1.96 0-.94.74-1.54 2.24-1.54 1.48 0 2.38.8 2.6 2.08l3.04-.66c-.48-2.46-2.66-3.84-5.56-3.84-3.1 0-5.36 1.4-5.36 4.2 0 2.82 2.22 3.78 5.14 4.24 2.18.34 2.94.84 2.94 1.88 0 1.28-1.16 1.82-2.58 1.82-1.76 0-2.66-.98-2.8-2.32l-3 .48c.12 2.26 2.26 4.26 5.8 4.26zm9.7-.28l1.12-3.24h5.02L47.18 43h3.1l-5.04-14h-3.22l-5.04 14h2.94zm5.32-5.62h-3.38l.016-.047.045-.135c.06-.175.157-.465.276-.82l.125-.374.067-.2.14-.42c.403-1.216.863-2.626.991-3.104h.04c.24.9 1.68 5.1 1.68 5.1zM54.78 43V32.94h.06c.76 2.5 2.56 7.86 3.34 10.06h2.8c.31-.877.982-2.863 1.67-4.923l.257-.774a450.768 450.768 0 001.433-4.363h.06V43h2.76V29h-4.18s-2.92 9.04-3.32 10.42c-.17-.557-.763-2.364-1.41-4.32l-.187-.562c-.56-1.692-1.136-3.417-1.49-4.483l-.11-.33-.214-.638-.026-.077-.003-.01h-4.2v14h2.76z" fill="#2E8BE0" fill-rule="nonzero"/></g></svg>