<svg viewBox="0 0 77 75" xmlns="http://www.w3.org/2000/svg"><g fill="none" fill-rule="evenodd"><path d="M65.167 71.43c-17.778 3.462-35.556 3.462-53.334 0-3.644-.745-7.401-4.404-8.166-7.952-3.556-17.31-3.556-34.62 0-51.93C4.432 8 8.189 4.342 11.833 3.596 29.611.135 47.39.135 65.167 3.596c3.644.746 7.401 4.404 8.166 7.952 3.556 17.31 3.556 34.62 0 51.93-.765 3.548-4.522 7.207-8.166 7.952" stroke="#2E8BE0"/><path d="M27.757 46v-3.224h-8.684v-4.524h7.956v-3.224h-7.956v-4.004h8.554V27.8H15.225V46h12.532zm9.398 0c5.564 0 8.918-3.302 8.918-9.1s-3.354-9.1-8.918-9.1h-6.786V46h6.786zm-.104-3.224h-2.756V31.024h2.756c3.458 0 4.992 2.34 4.992 5.876 0 3.536-1.534 5.876-4.992 5.876zM52.637 46v-6.89h2.418l3.77 6.89h4.29l-4.186-7.462c2.132-.832 3.458-2.496 3.458-5.2 0-3.874-2.756-5.538-6.968-5.538h-6.656V46h3.874zm2.34-10.062h-2.34v-4.914h2.34c2.262 0 3.406.572 3.406 2.34 0 1.846-1.144 2.574-3.406 2.574z" fill="#2E8BE0" fill-rule="nonzero"/></g></svg>