<svg viewBox="0 0 36 36" xmlns="http://www.w3.org/2000/svg"><g fill="none" fill-rule="evenodd"><path d="M5.911 33.791c-1.652-.347-3.355-2.05-3.702-3.702a61.053 61.053 0 010-24.178C2.556 4.26 4.259 2.556 5.91 2.21a61.053 61.053 0 0124.178 0c1.652.347 3.355 2.05 3.702 3.702a61.053 61.053 0 010 24.178c-.347 1.652-2.05 3.355-3.702 3.702a61.053 61.053 0 01-24.178 0z" stroke="#2E8BE0"/><path d="M12.853 23v-1.612H8.512v-2.262h3.977v-1.612H8.512v-2.002h4.276V13.9h-6.2V23h6.265zm4.55 0c2.782 0 4.459-1.651 4.459-4.55s-1.677-4.55-4.46-4.55H14.01V23h3.393zm-.053-1.612h-1.378v-5.876h1.378c1.73 0 2.496 1.17 2.496 2.938 0 1.768-.766 2.938-2.496 2.938zM24.993 23v-3.445h1.21L28.087 23h2.146l-2.094-3.731c1.067-.416 1.73-1.248 1.73-2.6 0-1.937-1.379-2.769-3.484-2.769h-3.329V23h1.937zm1.17-5.031h-1.17v-2.457h1.17c1.131 0 1.704.286 1.704 1.17 0 .923-.573 1.287-1.704 1.287z" fill="#2E8BE0" fill-rule="nonzero"/></g></svg>