<svg xmlns="http://www.w3.org/2000/svg" viewBox="0 0 36 36"><path stroke="#2E8BE0" d="M30.089 33.791a61.045 61.045 0 01-24.178 0c-1.652-.347-3.355-2.05-3.702-3.702a61.045 61.045 0 010-24.178c.347-1.652 2.05-3.355 3.702-3.702a61.045 61.045 0 0124.178 0c1.652.347 3.355 2.05 3.702 3.702a61.045 61.045 0 010 24.178c-.347 1.652-2.05 3.355-3.702 3.702" fill="none"/><path fill="#2E8BE0" d="M9.303 23v-3.874h3.965v-1.612H9.303v-2.002h4.303V13.9H7.379V23h1.924zm5.655 0h1.95v-9.1h-1.95V23zm9.646 0a381.13 381.13 0 002.184-6.539h.039V23h1.794v-9.1h-2.717s-1.898 5.876-2.158 6.773c-.273-.897-2.236-6.773-2.236-6.773h-2.73V23h1.794v-6.539h.039c.494 1.625 1.664 5.109 2.171 6.539h1.82z"/></svg>