<svg viewBox="0 0 36 36" xmlns="http://www.w3.org/2000/svg"><g fill="none" fill-rule="evenodd"><path d="M9.108 22.464c1.248 0 2.002-.494 2.405-1.118v.936h1.768v-5.044H9.095v1.547h2.327v.416c0 1.17-1.079 1.664-2.002 1.664-1.599 0-2.405-1.014-2.405-3.042 0-2.106.975-3.211 2.431-3.211 1.014 0 1.742.559 2.093 1.521l1.807-.741C12.696 13.832 11.344 13 9.524 13 6.69 13 5 14.963 5 17.758c0 2.613 1.391 4.706 4.108 4.706zm7.176-.182l.728-2.106h3.263l.728 2.106h2.015l-3.276-9.1h-2.093l-3.276 9.1h1.911zm3.458-3.653h-2.197s.25-.738.511-1.53l.12-.365c.2-.609.386-1.186.448-1.42h.026c.156.585 1.092 3.315 1.092 3.315zm7.957 3.653l3.354-9.1h-2.002s-.61 1.748-1.223 3.569l-.16.475c-.345 1.03-.674 2.036-.879 2.716h-.026c-.209-.68-.541-1.686-.888-2.716l-.16-.475c-.617-1.821-1.227-3.569-1.227-3.569h-2.093l3.315 9.1h1.989z" fill="#2E8BE0" fill-rule="nonzero"/><path d="M5.911 33.791c-1.652-.347-3.355-2.05-3.702-3.702a61.053 61.053 0 010-24.178C2.556 4.26 4.259 2.556 5.91 2.21a61.053 61.053 0 0124.178 0c1.652.347 3.355 2.05 3.702 3.702a61.053 61.053 0 010 24.178c-.347 1.652-2.05 3.355-3.702 3.702a61.053 61.053 0 01-24.178 0z" stroke="#2E8BE0"/></g></svg>