<svg viewBox="0 0 77 75" xmlns="http://www.w3.org/2000/svg"><g fill="none" fill-rule="evenodd"><path d="M20.216 46.928c2.496 0 4.004-.988 4.81-2.236v1.872h3.536V36.476H20.19v3.094h4.654v.832c0 2.34-2.158 3.328-4.004 3.328-3.198 0-4.81-2.028-4.81-6.084 0-4.212 1.95-6.422 4.862-6.422 2.028 0 3.484 1.118 4.186 3.042l3.614-1.482c-1.3-3.12-4.004-4.784-7.644-4.784C15.38 28 12 31.926 12 37.516c0 5.226 2.782 9.412 8.216 9.412zm14.352-.364l1.456-4.212h6.526l1.456 4.212h4.03l-6.552-18.2h-4.186l-6.552 18.2h3.822zm6.916-7.306H37.09s.37-1.093.806-2.405l.156-.471c.5-1.511 1.04-3.169 1.196-3.754h.052c.312 1.17 2.184 6.63 2.184 6.63zm15.914 7.306l6.708-18.2h-4.004s-1.266 3.629-2.516 7.343l-.304.904c-.67 2.003-1.305 3.947-1.704 5.273h-.052c-.448-1.459-1.18-3.665-1.926-5.875l-.204-.603c-1.222-3.607-2.42-7.042-2.42-7.042H46.79l6.63 18.2h3.978z" fill="#2E8BE0" fill-rule="nonzero"/><path d="M65.167 71.43c-17.778 3.462-35.556 3.462-53.334 0-3.644-.745-7.401-4.404-8.166-7.952-3.556-17.31-3.556-34.62 0-51.93C4.432 8 8.189 4.342 11.833 3.596 29.611.135 47.39.135 65.167 3.596c3.644.746 7.401 4.404 8.166 7.952 3.556 17.31 3.556 34.62 0 51.93-.765 3.548-4.522 7.207-8.166 7.952" stroke="#2E8BE0"/></g></svg>