<svg xmlns="http://www.w3.org/2000/svg" viewBox="0 0 36 36"><path stroke="#2E8BE0" d="M30.089 33.791a61.045 61.045 0 01-24.178 0c-1.652-.347-3.355-2.05-3.702-3.702a61.045 61.045 0 010-24.178c.347-1.652 2.05-3.355 3.702-3.702a61.045 61.045 0 0124.178 0c1.652.347 3.355 2.05 3.702 3.702a61.045 61.045 0 010 24.178c-.347 1.652-2.05 3.355-3.702 3.702" fill="none"/><path fill="#2E8BE0" d="M14.23 23a381.13 381.13 0 002.184-6.539h.039V23h1.794v-9.1H15.53s-1.898 5.876-2.158 6.773c-.273-.897-2.236-6.773-2.236-6.773h-2.73V23H10.2v-6.539h.039c.494 1.625 1.664 5.109 2.171 6.539h1.82zm5.889 0v-9.1h3.393c2.782 0 4.459 1.651 4.459 4.55S26.294 23 23.512 23h-3.393zm5.837-4.55c0-1.768-.767-2.938-2.496-2.938h-1.378v5.876h1.378c1.729 0 2.496-1.17 2.496-2.938z"/></svg>