<svg xmlns="http://www.w3.org/2000/svg" viewBox="0 0 36 36"><g fill="none" fill-rule="evenodd"><path fill="#2E8BE0" d="M4.595 18.45c0-2.951 1.768-4.732 4.433-4.732s4.432 1.781 4.432 4.732c0 2.951-1.768 4.732-4.432 4.732-2.665 0-4.433-1.781-4.433-4.732zm2.015 0c0 1.846.78 3.12 2.418 3.12 1.638 0 2.417-1.274 2.417-3.12s-.78-3.12-2.417-3.12c-1.638 0-2.418 1.274-2.418 3.12zm7.949 0c0-2.977 1.716-4.732 4.458-4.732 1.938 0 3.303.858 3.849 2.574l-1.898.663c-.313-1.014-.898-1.612-1.99-1.612-1.612 0-2.405 1.3-2.405 3.107 0 1.794.793 3.107 2.418 3.107 1.002 0 1.625-.507 1.95-1.521l1.873.663c-.599 1.534-1.86 2.483-3.849 2.483-2.678 0-4.406-1.742-4.406-4.732zm14.085-4.55L31.92 23h-2.016l-.727-2.106h-3.264L25.186 23h-1.912l3.276-9.1h2.093zm-1.092 2.132h-.026c-.157.585-1.08 3.315-1.08 3.315h2.197s-.936-2.73-1.091-3.315z"/><path stroke="#2E8BE0" d="M5.911 33.791c-1.652-.347-3.355-2.05-3.702-3.702a61.053 61.053 0 010-24.178C2.556 4.26 4.259 2.556 5.91 2.21a61.053 61.053 0 0124.178 0c1.652.347 3.355 2.05 3.702 3.702a61.053 61.053 0 010 24.178c-.347 1.652-2.05 3.355-3.702 3.702a61.053 61.053 0 01-24.178 0z"/></g></svg>