<svg xmlns="http://www.w3.org/2000/svg" viewBox="0 0 77 75"><g fill="none" fill-rule="evenodd"><path stroke="#2E8BE0" d="M65.167 71.43c-17.778 3.462-35.556 3.462-53.334 0-3.644-.745-7.401-4.404-8.166-7.952-3.556-17.31-3.556-34.62 0-51.93C4.432 8 8.189 4.342 11.833 3.596 29.611.135 47.39.135 65.167 3.596c3.644.746 7.401 4.404 8.166 7.952 3.556 17.31 3.556 34.62 0 51.93-.765 3.548-4.522 7.207-8.166 7.952"/><path fill="#2E8BE0" d="M11.689 36.9c0-5.902 3.536-9.464 8.866-9.464s8.866 3.562 8.866 9.464c0 5.902-3.536 9.464-8.866 9.464s-8.866-3.562-8.866-9.464zm4.03 0c0 3.692 1.56 6.24 4.836 6.24 3.276 0 4.836-2.548 4.836-6.24s-1.56-6.24-4.836-6.24c-3.276 0-4.836 2.548-4.836 6.24zm15.898 0c0-5.954 3.432-9.464 8.918-9.464 3.874 0 6.604 1.716 7.696 5.148l-3.796 1.326c-.624-2.028-1.794-3.224-3.978-3.224-3.224 0-4.81 2.6-4.81 6.214 0 3.588 1.586 6.214 4.836 6.214 2.002 0 3.25-1.014 3.9-3.042l3.744 1.326c-1.196 3.068-3.718 4.966-7.696 4.966-5.356 0-8.814-3.484-8.814-9.464zm28.17-9.1L66.339 46h-4.03l-1.456-4.212h-6.526L52.871 46h-3.822l6.552-18.2h4.186zm-2.184 4.264h-.052c-.312 1.17-2.158 6.63-2.158 6.63h4.394s-1.872-5.46-2.184-6.63z"/></g></svg>