<svg viewBox="0 0 36 36" xmlns="http://www.w3.org/2000/svg"><g fill="none" fill-rule="evenodd"><path d="M5.911 33.791c-1.652-.347-3.355-2.05-3.702-3.702a61.053 61.053 0 010-24.178C2.556 4.26 4.259 2.556 5.91 2.21a61.053 61.053 0 0124.178 0c1.652.347 3.355 2.05 3.702 3.702a61.053 61.053 0 010 24.178c-.347 1.652-2.05 3.355-3.702 3.702a61.053 61.053 0 01-24.178 0z" stroke="#2E8BE0"/><path d="M4.82 18.45c0-2.951 1.767-4.732 4.433-4.732 2.665 0 4.432 1.781 4.432 4.732 0 2.951-1.768 4.732-4.432 4.732-2.666 0-4.433-1.781-4.433-4.732zm2.014 0c0 1.846.78 3.12 2.419 3.12 1.637 0 2.418-1.274 2.418-3.12s-.78-3.12-2.418-3.12c-1.639 0-2.419 1.274-2.419 3.12zm7.8 0c0-2.977 1.715-4.732 4.459-4.732 1.936 0 3.302.858 3.848 2.574l-1.899.663c-.312-1.014-.897-1.612-1.989-1.612-1.612 0-2.405 1.3-2.405 3.107 0 1.794.793 3.107 2.418 3.107 1.002 0 1.625-.507 1.95-1.521l1.873.663c-.598 1.534-1.86 2.483-3.848 2.483-2.679 0-4.408-1.742-4.408-4.732zm13.934-4.55l3.276 9.1H29.83l-.728-2.106h-3.263L25.11 23h-1.912l3.276-9.1h2.093zm-1.091 2.132h-.027c-.155.585-1.079 3.315-1.079 3.315h2.198s-.936-2.73-1.092-3.315z" fill="#2E8BE0" fill-rule="nonzero"/></g></svg>