<svg width="36" height="36" xmlns="http://www.w3.org/2000/svg"><g fill="none" fill-rule="evenodd"><path d="M30.09 33.79c-8.06 1.613-16.12 1.613-24.18 0-1.65-.346-3.354-2.05-3.7-3.7-1.613-8.06-1.613-16.12 0-24.18.346-1.65 2.05-3.354 3.7-3.7 8.06-1.613 16.12-1.613 24.18 0 1.65.346 3.354 2.05 3.7 3.7 1.613 8.06 1.613 16.12 0 24.18-.346 1.65-2.05 3.354-3.7 3.7" stroke="#2E8BE0"/><path d="M11.688 19.802h-1.52V23H8.23v-9.1h3.458c2.17 0 3.6.87 3.6 2.9 0 2.066-1.494 3.002-3.6 3.002zM13.3 16.8c0-.99-.598-1.288-1.807-1.288h-1.325v2.678h1.325c1.21 0 1.807-.403 1.807-1.39zm2.912 1.65c0 2.99 1.73 4.732 4.407 4.732 1.988 0 3.25-.95 3.847-2.483l-1.872-.664c-.325 1.014-.95 1.52-1.95 1.52-1.625 0-2.418-1.312-2.418-3.106 0-1.807.793-3.107 2.405-3.107 1.092 0 1.677.598 1.99 1.612l1.897-.663c-.547-1.716-1.912-2.574-3.85-2.574-2.742 0-4.458 1.755-4.458 4.732zM25.82 23h1.95v-9.1h-1.95V23z" fill="#2E8BE0"/></g></svg>