<svg viewBox="0 0 77 75" xmlns="http://www.w3.org/2000/svg"><g fill="none" fill-rule="evenodd"><path d="M65.167 71.43c-17.778 3.462-35.556 3.462-53.334 0-3.644-.745-7.401-4.404-8.166-7.952-3.556-17.31-3.556-34.62 0-51.93C4.432 8 8.189 4.342 11.833 3.596 29.611.135 47.39.135 65.167 3.596c3.644.746 7.401 4.404 8.166 7.952 3.556 17.31 3.556 34.62 0 51.93-.765 3.548-4.522 7.207-8.166 7.952" stroke="#2E8BE0"/><path d="M22.504 34.564v-6.396h3.042c4.212 0 7.202-1.872 7.202-6.006 0-4.056-2.86-5.798-7.202-5.798H18.63v18.2h3.874zm2.652-9.62h-2.652v-5.356h2.652c2.418 0 3.614.598 3.614 2.574s-1.196 2.782-3.614 2.782zm18.252 9.984c3.978 0 6.5-1.898 7.696-4.966l-3.744-1.326c-.65 2.028-1.898 3.042-3.9 3.042-3.25 0-4.836-2.626-4.836-6.214 0-3.614 1.586-6.214 4.81-6.214 2.184 0 3.354 1.196 3.978 3.224l3.796-1.326C50.116 17.716 47.386 16 43.512 16c-5.486 0-8.918 3.51-8.918 9.464 0 5.98 3.458 9.464 8.814 9.464zm14.3-.364v-18.2h-3.9v18.2h3.9zm-41.886 24l1.456-4.212h6.526l1.456 4.212h4.03l-6.552-18.2h-4.186L12 58.564h3.822zm6.916-7.306h-4.394s.37-1.093.806-2.405l.156-.471c.5-1.511 1.04-3.169 1.196-3.754h.052c.312 1.17 2.184 6.63 2.184 6.63zm15.548 7.67c4.238 0 7.332-2.21 7.332-5.72 0-3.276-1.976-4.784-6.292-5.512-2.964-.494-4.238-.988-4.238-2.548 0-1.222.962-2.002 2.912-2.002 1.924 0 3.094 1.04 3.38 2.704l3.952-.858C44.708 41.794 41.874 40 38.104 40c-4.03 0-6.968 1.82-6.968 5.46 0 3.666 2.886 4.914 6.682 5.512 2.834.442 3.822 1.092 3.822 2.444 0 1.664-1.508 2.366-3.354 2.366-2.288 0-3.458-1.274-3.64-3.016l-3.9.624c.156 2.938 2.938 5.538 7.54 5.538zm19.37-.364l6.708-18.2H60.36s-1.266 3.629-2.516 7.343l-.304.904c-.67 2.003-1.305 3.947-1.704 5.273h-.052c-.448-1.459-1.18-3.665-1.926-5.875l-.204-.603c-1.222-3.607-2.42-7.042-2.42-7.042h-4.186l6.63 18.2h3.978z" fill="#2E8BE0" fill-rule="nonzero"/></g></svg>