<svg viewBox="0 0 36 36" xmlns="http://www.w3.org/2000/svg"><g fill="none" fill-rule="evenodd"><path d="M5.911 33.791c-1.652-.347-3.355-2.05-3.702-3.702a61.053 61.053 0 010-24.178C2.556 4.26 4.259 2.556 5.91 2.21a61.053 61.053 0 0124.178 0c1.652.347 3.355 2.05 3.702 3.702a61.053 61.053 0 010 24.178c-.347 1.652-2.05 3.355-3.702 3.702a61.053 61.053 0 01-24.178 0z" stroke="#2E8BE0"/><path d="M10.252 16.282v-3.198h1.521c2.106 0 3.601-.936 3.601-3.003 0-2.028-1.43-2.899-3.601-2.899H8.315v9.1h1.937zm1.326-4.81h-1.326V8.794h1.326c1.209 0 1.807.299 1.807 1.287s-.598 1.391-1.807 1.391zm9.126 4.992c1.989 0 3.25-.949 3.848-2.483l-1.872-.663c-.325 1.014-.949 1.521-1.95 1.521-1.625 0-2.418-1.313-2.418-3.107 0-1.807.793-3.107 2.405-3.107 1.092 0 1.677.598 1.989 1.612l1.898-.663C24.058 7.858 22.693 7 20.756 7c-2.743 0-4.459 1.755-4.459 4.732 0 2.99 1.729 4.732 4.407 4.732zm7.15-.182v-9.1h-1.95v9.1h1.95zm-20.943 13l.728-2.106h3.263l.728 2.106h2.015l-3.276-9.1H8.276L5 29.282h1.911zm3.458-3.653H8.172s.923-2.73 1.079-3.315h.026c.062.234.25.811.452 1.42l.122.366c.265.79.518 1.529.518 1.529zm7.774 3.835c2.119 0 3.666-1.105 3.666-2.86 0-1.638-.988-2.392-3.146-2.756-1.482-.247-2.119-.494-2.119-1.274 0-.611.481-1.001 1.456-1.001.962 0 1.547.52 1.69 1.352l1.976-.429C21.354 20.897 19.937 20 18.052 20c-2.015 0-3.484.91-3.484 2.73 0 1.833 1.443 2.457 3.341 2.756 1.417.221 1.911.546 1.911 1.222 0 .832-.754 1.183-1.677 1.183-1.144 0-1.729-.637-1.82-1.508l-1.95.312c.078 1.469 1.469 2.769 3.77 2.769zm9.685-.182l3.354-9.1H29.18s-.61 1.748-1.223 3.569l-.16.475c-.345 1.03-.674 2.036-.879 2.716h-.026c-.611-1.989-2.275-6.76-2.275-6.76h-2.093l3.315 9.1h1.989z" fill="#2E8BE0" fill-rule="nonzero"/></g></svg>