<svg xmlns="http://www.w3.org/2000/svg" xmlns:xlink="http://www.w3.org/1999/xlink" viewBox="0 0 36 36"><defs><path id="a" d="M11.358 18.802h-1.52V22H7.9v-9.1h3.458c2.17 0 3.6.87 3.6 2.9 0 2.066-1.494 3.002-3.6 3.002zM12.97 15.8c0-.99-.598-1.288-1.807-1.288H9.837v2.678h1.326c1.21 0 1.807-.403 1.807-1.39zm9.113 6.2h-1.82c-.507-1.43-1.677-4.914-2.17-6.54h-.04V22H16.26v-9.1h2.73s1.962 5.876 2.235 6.773c.26-.897 2.158-6.773 2.158-6.773H26.1V22h-1.794v-6.54h-.04A379.195 379.195 0 0122.083 22z"/></defs><g fill="none" fill-rule="evenodd"><path stroke="#2E8BE0" d="M5.91 33.79c-1.65-.346-3.354-2.05-3.7-3.7a61.017 61.017 0 010-24.18c.346-1.65 2.05-3.354 3.7-3.7a61.017 61.017 0 0124.18 0c1.65.346 3.354 2.05 3.7 3.7a61.017 61.017 0 010 24.18c-.346 1.65-2.05 3.354-3.7 3.7a61.017 61.017 0 01-24.18 0z"/><use xlink:href="#a" fill="#2E8BE0" transform="translate(1 1)"/></g></svg>