<svg viewBox="0 0 36 36" xmlns="http://www.w3.org/2000/svg"><g fill="none" fill-rule="evenodd"><path d="M5.911 33.791c-1.652-.347-3.355-2.05-3.702-3.702a61.053 61.053 0 010-24.178C2.556 4.26 4.259 2.556 5.91 2.21a61.053 61.053 0 0124.178 0c1.652.347 3.355 2.05 3.702 3.702a61.053 61.053 0 010 24.178c-.347 1.652-2.05 3.355-3.702 3.702a61.053 61.053 0 01-24.178 0z" stroke="#2E8BE0"/><path d="M9.675 19.802H8.154V23H6.217v-9.1h3.458c2.171 0 3.601.871 3.601 2.899 0 2.067-1.495 3.003-3.601 3.003zm1.612-3.003c0-.988-.598-1.287-1.807-1.287H8.154v2.678H9.48c1.209 0 1.807-.403 1.807-1.391zM14.276 23v-9.1h2.028s2.795 4.524 3.692 5.98h.039V13.9h1.846V23h-2.028s-2.73-4.433-3.692-5.98h-.039V23h-1.846zm10.945-6.708c0 .78.637 1.027 2.119 1.274 2.158.364 3.146 1.118 3.146 2.756 0 1.755-1.547 2.86-3.666 2.86-2.301 0-3.692-1.3-3.77-2.769l1.95-.312c.091.871.676 1.508 1.82 1.508.923 0 1.677-.351 1.677-1.183 0-.676-.494-1.001-1.911-1.222-1.898-.299-3.341-.923-3.341-2.756 0-1.82 1.469-2.73 3.484-2.73 1.885 0 3.302.897 3.614 2.496l-1.976.429c-.143-.832-.728-1.352-1.69-1.352-.975 0-1.456.39-1.456 1.001z" fill="#2E8BE0"/></g></svg>