<svg xmlns="http://www.w3.org/2000/svg" viewBox="0 0 36 36"><g fill="none" fill-rule="evenodd"><path stroke="#2E8BE0" d="M30.09 33.79a61.017 61.017 0 0 1-24.18 0c-1.65-.346-3.354-2.05-3.7-3.7a61.017 61.017 0 0 1 0-24.18c.346-1.65 2.05-3.354 3.7-3.7a61.017 61.017 0 0 1 24.18 0c1.65.346 3.354 2.05 3.7 3.7a61.017 61.017 0 0 1 0 24.18c-.346 1.65-2.05 3.354-3.7 3.7"/><path fill="#2E8BE0" fill-rule="nonzero" d="M20.171 15.574c0-.611.481-1.001 1.456-1.001.962 0 1.547.52 1.69 1.352l1.976-.429C24.981 13.897 23.564 13 21.679 13c-2.015 0-3.484.91-3.484 2.73 0 1.833 1.443 2.457 3.341 2.756 1.417.221 1.911.546 1.911 1.222 0 .832-.754 1.183-1.677 1.183-1.144 0-1.729-.637-1.82-1.508l-1.95.312c.078 1.469 1.469 2.769 3.77 2.769 2.119 0 3.666-1.105 3.666-2.86 0-1.638-.988-2.392-3.146-2.756-1.482-.247-2.119-.494-2.119-1.274zm-6.713 3.328h-1.521V22.1H10V13h3.458c2.171 0 3.601.871 3.601 2.899 0 2.067-1.495 3.003-3.601 3.003zm1.612-3.003c0-.988-.598-1.287-1.807-1.287h-1.326v2.678h1.326c1.209 0 1.807-.403 1.807-1.391z"/></g></svg>