<svg viewBox="0 0 36 36" xmlns="http://www.w3.org/2000/svg"><g fill="none" fill-rule="evenodd"><path d="M5.911 33.791c-1.652-.347-3.355-2.05-3.702-3.702a61.053 61.053 0 010-24.178C2.556 4.26 4.259 2.556 5.91 2.21a61.053 61.053 0 0124.178 0c1.652.347 3.355 2.05 3.702 3.702a61.053 61.053 0 010 24.178c-.347 1.652-2.05 3.355-3.702 3.702a61.053 61.053 0 01-24.178 0z" stroke="#2E8BE0"/><path d="M12.06 23.949l-.987-1.092a4.97 4.97 0 01-1.808.325c-2.665 0-4.433-1.781-4.433-4.732 0-2.951 1.769-4.732 4.433-4.732 2.665 0 4.434 1.781 4.434 4.732 0 1.573-.508 2.821-1.378 3.627l.832.91-1.093.962zM6.847 18.45c0 1.846.78 3.12 2.418 3.12.209 0 .404-.026.585-.065l-.844-.936 1.066-.962 1 1.105c.416-.546.611-1.326.611-2.262 0-1.846-.78-3.12-2.418-3.12-1.637 0-2.418 1.274-2.418 3.12zm11.895 1.053v-1.547h4.186V23H21.16v-.936c-.403.624-1.158 1.118-2.405 1.118-2.717 0-4.108-2.093-4.108-4.706 0-2.795 1.69-4.758 4.523-4.758 1.82 0 3.172.832 3.822 2.392l-1.807.741c-.35-.962-1.079-1.521-2.092-1.521-1.457 0-2.432 1.105-2.432 3.211 0 2.028.806 3.042 2.405 3.042.924 0 2.003-.494 2.003-1.664v-.416h-2.327zm7.486-3.211c0 .78.637 1.027 2.12 1.274 2.157.364 3.145 1.118 3.145 2.756 0 1.755-1.546 2.86-3.665 2.86-2.302 0-3.692-1.3-3.77-2.769l1.95-.312c.09.871.676 1.508 1.82 1.508.923 0 1.677-.351 1.677-1.183 0-.676-.494-1.001-1.912-1.222-1.897-.299-3.34-.923-3.34-2.756 0-1.82 1.468-2.73 3.483-2.73 1.885 0 3.302.897 3.614 2.496l-1.976.429c-.143-.832-.727-1.352-1.69-1.352-.975 0-1.456.39-1.456 1.001z" fill="#2E8BE0"/></g></svg>