<svg viewBox="0 0 77 75" xmlns="http://www.w3.org/2000/svg"><g fill="none" fill-rule="evenodd"><path d="M65.167 71.43c-17.778 3.462-35.556 3.462-53.334 0-3.644-.745-7.401-4.404-8.166-7.952-3.556-17.31-3.556-34.62 0-51.93C4.432 8 8.189 4.342 11.833 3.596 29.611.135 47.39.135 65.167 3.596c3.644.746 7.401 4.404 8.166 7.952 3.556 17.31 3.556 34.62 0 51.93-.765 3.548-4.522 7.207-8.166 7.952" stroke="#2E8BE0"/><path d="M26.171 47.898l-1.976-2.184c-1.066.416-2.288.65-3.614.65-5.33 0-8.866-3.562-8.866-9.464 0-5.902 3.536-9.464 8.866-9.464s8.866 3.562 8.866 9.464c0 3.146-1.014 5.642-2.756 7.254l1.664 1.82-2.184 1.924zM15.745 36.9c0 3.692 1.56 6.24 4.836 6.24a5.56 5.56 0 001.17-.13l-1.69-1.872 2.132-1.924 2.002 2.21c.832-1.092 1.222-2.652 1.222-4.524 0-3.692-1.56-6.24-4.836-6.24-3.276 0-4.836 2.548-4.836 6.24zm24.088 2.106v-3.094h8.372V46h-3.536v-1.872c-.806 1.248-2.314 2.236-4.81 2.236-5.434 0-8.216-4.186-8.216-9.412 0-5.59 3.38-9.516 9.048-9.516 3.64 0 6.344 1.664 7.644 4.784l-3.614 1.482c-.702-1.924-2.158-3.042-4.186-3.042-2.912 0-4.862 2.21-4.862 6.422 0 4.056 1.612 6.084 4.81 6.084 1.846 0 4.004-.988 4.004-3.328v-.832h-4.654zm15.274-6.422c0 1.56 1.274 2.054 4.238 2.548 4.316.728 6.292 2.236 6.292 5.512 0 3.51-3.094 5.72-7.332 5.72-4.602 0-7.384-2.6-7.54-5.538l3.9-.624c.182 1.742 1.352 3.016 3.64 3.016 1.846 0 3.354-.702 3.354-2.366 0-1.352-.988-2.002-3.822-2.444-3.796-.598-6.682-1.846-6.682-5.512 0-3.64 2.938-5.46 6.968-5.46 3.77 0 6.604 1.794 7.228 4.992l-3.952.858c-.286-1.664-1.456-2.704-3.38-2.704-1.95 0-2.912.78-2.912 2.002z" fill="#2E8BE0"/></g></svg>