<svg viewBox="0 0 36 36" xmlns="http://www.w3.org/2000/svg"><g fill="none" fill-rule="evenodd"><path d="M5.911 33.791c-1.652-.347-3.355-2.05-3.702-3.702a61.053 61.053 0 010-24.178C2.556 4.26 4.259 2.556 5.91 2.21a61.053 61.053 0 0124.178 0c1.652.347 3.355 2.05 3.702 3.702a61.053 61.053 0 010 24.178c-.347 1.652-2.05 3.355-3.702 3.702a61.053 61.053 0 01-24.178 0z" stroke="#2E8BE0"/><path d="M13.9 16.669c0 1.352-.663 2.184-1.729 2.6L14.264 23h-2.145l-1.885-3.445H9.025V23H7.088v-9.1h3.328c2.106 0 3.484.832 3.484 2.769zm-2.002.013c0-.884-.572-1.17-1.703-1.17h-1.17v2.457h1.17c1.131 0 1.703-.364 1.703-1.287zm6.876 3.12h-1.521V23h-1.937v-9.1h3.458c2.171 0 3.601.871 3.601 2.899 0 2.067-1.495 3.003-3.601 3.003zm1.612-3.003c0-.988-.598-1.287-1.807-1.287h-1.326v2.678h1.326c1.209 0 1.807-.403 1.807-1.391zm2.3-1.274V13.9h7.215v1.625h-2.626V23h-1.963v-7.475h-2.626z" fill="#2E8BE0"/></g></svg>