<svg id="Layer_1" data-name="Layer 1" xmlns="http://www.w3.org/2000/svg" viewBox="0 0 36 36"><defs><style>.cls-1{fill:none;stroke:#4187c7;stroke-miterlimit:10;}.cls-2{fill:#4187c7;}</style></defs><title>RPT-outlined</title><path class="cls-1" d="M30.15 34A61.13 61.13 0 0 1 6 34a5.31 5.31 0 0 1-3.7-3.7 61.13 61.13 0 0 1 0-24.18A5.29 5.29 0 0 1 6 2.4a60.76 60.76 0 0 1 24.18 0 5.27 5.27 0 0 1 3.7 3.7 60.76 60.76 0 0 1 0 24.18 5.29 5.29 0 0 1-3.7 3.7"/><path class="cls-2" d="M12 19.46l2.1 3.73H12l-1.88-3.45H8.9v3.45H7v-9.1h3.33c2.1 0 3.48.83 3.48 2.77a2.57 2.57 0 0 1-1.81 2.6zm-2-3.76H8.9v2.46h1.17c1.13 0 1.7-.37 1.7-1.29s-.57-1.17-1.7-1.17zM17.42 20v3.2h-1.93v-9.1H19c2.17 0 3.6.87 3.6 2.9s-1.5 3-3.6 3zm1.33-4.29h-1.33v2.68h1.33c1.21 0 1.81-.41 1.81-1.39s-.56-1.3-1.81-1.3zM22.64 14.09h7.21v1.62h-2.62v7.48h-2v-7.48h-2.59z"/></svg>