<svg viewBox="0 0 77 75" xmlns="http://www.w3.org/2000/svg"><g fill="none" fill-rule="evenodd"><path d="M65.167 71.43c-17.778 3.462-35.556 3.462-53.334 0-3.644-.745-7.401-4.404-8.166-7.952-3.556-17.31-3.556-34.62 0-51.93C4.432 8 8.189 4.342 11.833 3.596 29.611.135 47.39.135 65.167 3.596c3.644.746 7.401 4.404 8.166 7.952 3.556 17.31 3.556 34.62 0 51.93-.765 3.548-4.522 7.207-8.166 7.952" stroke="#2E8BE0"/><path d="M29.85 33.338c0 2.704-1.326 4.368-3.458 5.2L30.578 46h-4.29l-3.77-6.89H20.1V46h-3.874V27.8h6.656c4.212 0 6.968 1.664 6.968 5.538zm-4.004.026c0-1.768-1.144-2.34-3.406-2.34H20.1v4.914h2.34c2.262 0 3.406-.728 3.406-2.574zm14.052 6.24h-3.042V46h-3.874V27.8h6.916c4.342 0 7.202 1.742 7.202 5.798 0 4.134-2.99 6.006-7.202 6.006zm3.224-6.006c0-1.976-1.196-2.574-3.614-2.574h-2.652v5.356h2.652c2.418 0 3.614-.806 3.614-2.782zm4.9-2.548V27.8h14.43v3.25H57.2V46h-3.926V31.05h-5.252z" fill="#2E8BE0"/></g></svg>