<svg xmlns="http://www.w3.org/2000/svg" viewBox="0 0 36 36"><path fill="none" stroke="#2E8BE0" d="M5.91 33.79c-1.65-.346-3.354-2.05-3.7-3.7a61.017 61.017 0 010-24.18c.346-1.65 2.05-3.354 3.7-3.7a61.017 61.017 0 0124.18 0c1.65.346 3.354 2.05 3.7 3.7a61.017 61.017 0 010 24.18c-.346 1.65-2.05 3.354-3.7 3.7a61.017 61.017 0 01-24.18 0z"/><path fill="#2E8BE0" d="M13.45 16.67c0 1.35-.663 2.183-1.73 2.6L13.815 23H11.67l-1.886-3.445h-1.21V23H6.64v-9.1h3.328c2.106 0 3.484.832 3.484 2.77zm-2.002.012c0-.884-.572-1.17-1.703-1.17h-1.17v2.457h1.17c1.13 0 1.703-.365 1.703-1.288zm7.176 3.12h-1.52V23h-1.938v-9.1h3.458c2.17 0 3.6.87 3.6 2.9 0 2.066-1.494 3.002-3.6 3.002zm1.612-3.003c0-.99-.598-1.288-1.807-1.288h-1.327v2.678h1.326c1.208 0 1.806-.403 1.806-1.39zm2.6-1.275V13.9h7.215v1.625h-2.625V23h-1.963v-7.475h-2.626z"/></svg>