<svg viewBox="0 0 36 36" xmlns="http://www.w3.org/2000/svg"><g fill="none" fill-rule="evenodd"><path d="M5.911 33.791c-1.652-.347-3.355-2.05-3.702-3.702a61.053 61.053 0 010-24.178C2.556 4.26 4.259 2.556 5.91 2.21a61.053 61.053 0 0124.178 0c1.652.347 3.355 2.05 3.702 3.702a61.053 61.053 0 010 24.178c-.347 1.652-2.05 3.355-3.702 3.702a61.053 61.053 0 01-24.178 0z" stroke="#2E8BE0"/><path d="M7.511 16.182c2.119 0 3.666-1.105 3.666-2.86 0-1.638-.988-2.392-3.146-2.756-1.482-.247-2.119-.494-2.119-1.274 0-.611.481-1.001 1.456-1.001.962 0 1.547.52 1.69 1.352l1.976-.429c-.312-1.599-1.729-2.496-3.614-2.496-2.015 0-3.484.91-3.484 2.73 0 1.833 1.443 2.457 3.341 2.756 1.417.221 1.911.546 1.911 1.222 0 .832-.754 1.183-1.677 1.183-1.144 0-1.729-.637-1.82-1.508l-1.95.312c.078 1.469 1.469 2.769 3.77 2.769zm6.447 0c.923 0 1.469-.377 1.833-.962 0 .338.052.689.117.78h1.807a2.523 2.523 0 01-.143-.871V11.97c0-1.664-1.157-2.34-2.665-2.34-1.469 0-2.665.663-2.795 1.859l1.781.273c0-.377.312-.754.962-.754.598 0 .884.338.884.806v.403c-2.054 0-3.913.52-3.913 2.171 0 1.118.806 1.794 2.132 1.794zm.494-1.339c-.442 0-.806-.182-.806-.559 0-.741.832-.936 2.093-.936v.468c0 .65-.637 1.027-1.287 1.027zm6.096 1.339c.923 0 1.469-.377 1.833-.962 0 .338.052.689.117.78h1.807a2.523 2.523 0 01-.143-.871V11.97c0-1.664-1.157-2.34-2.665-2.34-1.469 0-2.665.663-2.795 1.859l1.781.273c0-.377.312-.754.962-.754.598 0 .884.338.884.806v.403c-2.054 0-3.913.52-3.913 2.171 0 1.118.806 1.794 2.132 1.794zm.494-1.339c-.442 0-.806-.182-.806-.559 0-.741.832-.936 2.093-.936v.468c0 .65-.637 1.027-1.287 1.027zm7.851 1.339c2.119 0 3.666-1.105 3.666-2.86 0-1.638-.988-2.392-3.146-2.756-1.482-.247-2.119-.494-2.119-1.274 0-.611.481-1.001 1.456-1.001.962 0 1.547.52 1.69 1.352l1.976-.429c-.312-1.599-1.729-2.496-3.614-2.496-2.015 0-3.484.91-3.484 2.73 0 1.833 1.443 2.457 3.341 2.756 1.417.221 1.911.546 1.911 1.222 0 .832-.754 1.183-1.677 1.183-1.144 0-1.729-.637-1.82-1.508l-1.95.312c.078 1.469 1.469 2.769 3.77 2.769zM13.691 29c2.783 0 4.46-1.651 4.46-4.55s-1.677-4.55-4.46-4.55h-3.393V29h3.393zm-.052-1.612h-1.378v-5.876h1.378c1.73 0 2.497 1.17 2.497 2.938 0 1.768-.768 2.938-2.497 2.938zM21.282 29v-3.445h1.21L24.376 29h2.146l-2.093-3.731c1.066-.416 1.729-1.248 1.729-2.6 0-1.937-1.379-2.769-3.485-2.769h-3.327V29h1.936zm1.17-5.031h-1.17v-2.457h1.17c1.131 0 1.704.286 1.704 1.17 0 .923-.572 1.287-1.703 1.287z" fill="#2E8BE0" fill-rule="nonzero"/></g></svg>