<svg version="1.1" id="Layer_1" xmlns="http://www.w3.org/2000/svg" x="0" y="0" viewBox="0 0 77 75" xml:space="preserve"><style>.st1{fill:#2e8be0}</style><path d="M65.2 71.4c-17.8 3.5-35.6 3.5-53.3 0-3.6-.7-7.4-4.4-8.2-8C.1 46.1.1 28.8 3.7 11.5c.8-3.5 4.5-7.2 8.2-8C29.7 0 47.5 0 65.2 3.5c3.6.7 7.4 4.4 8.2 8 3.6 17.3 3.6 34.6 0 51.9-.8 3.6-4.6 7.3-8.2 8" fill="none" stroke="#2e8be0"/><path class="st1" d="M20.6 38.9H28c6.1 0 9.8 3.6 9.8 10s-3.7 10-9.8 10h-7.5v-20zm7.3 3.5h-3v13h3c3.8 0 5.5-2.6 5.5-6.5s-1.7-6.5-5.5-6.5zM51.8 50.7l4.6 8.2h-4.7l-4.2-7.6h-2.7v7.6h-4.3v-20h7.3c4.6 0 7.7 1.8 7.7 6.1.1 3-1.3 4.8-3.7 5.7zm-4.3-8.3h-2.6v5.4h2.6c2.5 0 3.8-.8 3.8-2.8-.1-1.9-1.3-2.6-3.8-2.6z"/><g><path class="st1" d="M19.8 23.4c4.1.7 6 2.1 6 5.3 0 3.4-3 5.5-7 5.5-4.4 0-7.1-2.5-7.2-5.3l3.7-.6c.2 1.7 1.3 2.9 3.5 2.9 1.8 0 3.2-.7 3.2-2.3 0-1.3-.9-1.9-3.7-2.3-3.5-.6-6.3-1.8-6.3-5.3s2.8-5.2 6.7-5.2c3.6 0 6.3 1.7 6.9 4.8l-3.8.8c-.3-1.6-1.4-2.6-3.2-2.6-1.9 0-2.8.7-2.8 1.9 0 1.5 1.2 2 4 2.4zM34.6 32.4c-.7 1.1-1.7 1.8-3.5 1.8-2.5 0-4.1-1.3-4.1-3.4 0-3.2 3.6-4.2 7.5-4.2v-.8c0-.9-.5-1.5-1.7-1.5S31 25 31 25.7l-3.4-.5c.2-2.3 2.5-3.6 5.4-3.6 2.9 0 5.1 1.3 5.1 4.5v6.1c0 .7.1 1.3.3 1.7h-3.5c-.2-.2-.3-.9-.3-1.5zm-.1-2.7v-.9c-2.4 0-4 .4-4 1.8 0 .7.7 1.1 1.5 1.1 1.2-.1 2.5-.8 2.5-2zM46.5 32.4c-.7 1.1-1.7 1.8-3.5 1.8-2.5 0-4.1-1.3-4.1-3.4 0-3.2 3.6-4.2 7.5-4.2v-.8c0-.9-.5-1.5-1.7-1.5s-1.8.7-1.8 1.4l-3.4-.5c.2-2.3 2.5-3.6 5.4-3.6 2.9 0 5.1 1.3 5.1 4.5v6.1c0 .7.1 1.3.3 1.7h-3.5c-.2-.2-.3-.9-.3-1.5zm-.1-2.7v-.9c-2.4 0-4 .4-4 1.8 0 .7.7 1.1 1.5 1.1 1.3-.1 2.5-.8 2.5-2zM59.3 23.4c4.1.7 6 2.1 6 5.3 0 3.4-3 5.5-7 5.5-4.4 0-7.1-2.5-7.2-5.3l3.7-.6c.2 1.7 1.3 2.9 3.5 2.9 1.8 0 3.2-.7 3.2-2.3 0-1.3-.9-1.9-3.7-2.3-3.6-.6-6.4-1.8-6.4-5.3s2.8-5.2 6.7-5.2c3.6 0 6.3 1.7 6.9 4.8l-3.8.8c-.3-1.6-1.4-2.6-3.2-2.6-1.9 0-2.8.7-2.8 1.9.1 1.5 1.3 2 4.1 2.4z"/></g></svg>