<svg viewBox="0 0 36 36" xmlns="http://www.w3.org/2000/svg"><g fill="none" fill-rule="evenodd"><path d="M5.911 33.791c-1.652-.347-3.355-2.05-3.702-3.702a61.053 61.053 0 010-24.178C2.556 4.26 4.259 2.556 5.91 2.21a61.053 61.053 0 0124.178 0c1.652.347 3.355 2.05 3.702 3.702a61.053 61.053 0 010 24.178c-.347 1.652-2.05 3.355-3.702 3.702a61.053 61.053 0 01-24.178 0z" stroke="#2E8BE0"/><path d="M7.998 16.292c0 .78.637 1.027 2.119 1.274 2.158.364 3.146 1.118 3.146 2.756 0 1.755-1.547 2.86-3.666 2.86-2.301 0-3.692-1.3-3.77-2.769l1.95-.312c.091.871.676 1.508 1.82 1.508.923 0 1.677-.351 1.677-1.183 0-.676-.494-1.001-1.911-1.222-1.898-.299-3.341-.923-3.341-2.756 0-1.82 1.469-2.73 3.484-2.73 1.885 0 3.302.897 3.614 2.496l-1.976.429c-.143-.832-.728-1.352-1.69-1.352-.975 0-1.456.39-1.456 1.001zM19.06 13.9l3.276 9.1h-2.015l-.728-2.106H16.33L15.602 23h-1.911l3.276-9.1h2.093zm-1.092 2.132h-.026c-.156.585-1.079 3.315-1.079 3.315h2.197s-.936-2.73-1.092-3.315zm4.367 2.418c0-2.977 1.716-4.732 4.459-4.732 1.937 0 3.302.858 3.848 2.574l-1.898.663c-.312-1.014-.897-1.612-1.989-1.612-1.612 0-2.405 1.3-2.405 3.107 0 1.794.793 3.107 2.418 3.107 1.001 0 1.625-.507 1.95-1.521l1.872.663c-.598 1.534-1.859 2.483-3.848 2.483-2.678 0-4.407-1.742-4.407-4.732z" fill="#2E8BE0"/></g></svg>