<svg viewBox="0 0 77 75" xmlns="http://www.w3.org/2000/svg"><g fill="none" fill-rule="evenodd"><path d="M65.167 71.43c-17.778 3.462-35.556 3.462-53.334 0-3.644-.745-7.401-4.404-8.166-7.952-3.556-17.31-3.556-34.62 0-51.93C4.432 8 8.189 4.342 11.833 3.596 29.611.135 47.39.135 65.167 3.596c3.644.746 7.401 4.404 8.166 7.952 3.556 17.31 3.556 34.62 0 51.93-.765 3.548-4.522 7.207-8.166 7.952" stroke="#2E8BE0"/><path d="M18.046 32.584c0 1.56 1.274 2.054 4.238 2.548 4.316.728 6.292 2.236 6.292 5.512 0 3.51-3.094 5.72-7.332 5.72-4.602 0-7.384-2.6-7.54-5.538l3.9-.624c.182 1.742 1.352 3.016 3.64 3.016 1.846 0 3.354-.702 3.354-2.366 0-1.352-.988-2.002-3.822-2.444-3.796-.598-6.682-1.846-6.682-5.512 0-3.64 2.938-5.46 6.968-5.46 3.77 0 6.604 1.794 7.228 4.992l-3.952.858c-.286-1.664-1.456-2.704-3.38-2.704-1.95 0-2.912.78-2.912 2.002zM40.47 27.8L47.022 46h-4.03l-1.456-4.212H35.01L33.554 46h-3.822l6.552-18.2h4.186zm-2.184 4.264h-.052c-.312 1.17-2.158 6.63-2.158 6.63h4.394s-1.872-5.46-2.184-6.63zM47.32 36.9c0-5.954 3.432-9.464 8.918-9.464 3.874 0 6.604 1.716 7.696 5.148l-3.796 1.326c-.624-2.028-1.794-3.224-3.978-3.224-3.224 0-4.81 2.6-4.81 6.214 0 3.588 1.586 6.214 4.836 6.214 2.002 0 3.25-1.014 3.9-3.042l3.744 1.326c-1.196 3.068-3.718 4.966-7.696 4.966-5.356 0-8.814-3.484-8.814-9.464z" fill="#2E8BE0"/></g></svg>