<svg xmlns="http://www.w3.org/2000/svg" viewBox="0 0 77 75"><g fill="none" fill-rule="evenodd"><path stroke="#2E8BE0" d="M65.167 71.43c-17.778 3.462-35.556 3.462-53.334 0-3.644-.745-7.401-4.404-8.166-7.952-3.556-17.31-3.556-34.62 0-51.93C4.432 8 8.189 4.342 11.833 3.596 29.611.135 47.39.135 65.167 3.596c3.644.746 7.401 4.404 8.166 7.952 3.556 17.31 3.556 34.62 0 51.93-.765 3.548-4.522 7.207-8.166 7.952"/><path fill="#2E8BE0" d="M17.292 32.584c0-1.222.962-2.002 2.912-2.002 1.924 0 3.094 1.04 3.38 2.704l3.952-.858c-.624-3.198-3.458-4.992-7.228-4.992-4.03 0-6.968 1.82-6.968 5.46 0 3.666 2.886 4.914 6.682 5.512 2.834.442 3.822 1.092 3.822 2.444 0 1.664-1.508 2.366-3.354 2.366-2.288 0-3.458-1.274-3.64-3.016l-3.9.624c.156 2.938 2.938 5.538 7.54 5.538 4.238 0 7.332-2.21 7.332-5.72 0-3.276-1.976-4.784-6.292-5.512-2.964-.494-4.238-.988-4.238-2.548zM39.716 27.8L46.268 46h-4.03l-1.456-4.212h-6.526L32.8 46h-3.822l6.552-18.2h4.186zm-2.184 4.264h-.052c-.312 1.17-2.158 6.63-2.158 6.63h4.394s-1.872-5.46-2.184-6.63zm23.49 15.834l-1.976-2.184c-1.066.416-2.288.65-3.614.65-5.33 0-8.866-3.562-8.866-9.464 0-5.902 3.536-9.464 8.866-9.464s8.866 3.562 8.866 9.464c0 3.146-1.014 5.642-2.756 7.254l1.664 1.82-2.184 1.924zM50.596 36.9c0 3.692 1.56 6.24 4.836 6.24a5.56 5.56 0 001.17-.13l-1.69-1.872 2.132-1.924 2.002 2.21c.832-1.092 1.222-2.652 1.222-4.524 0-3.692-1.56-6.24-4.836-6.24-3.276 0-4.836 2.548-4.836 6.24z"/></g></svg>