<svg xmlns="http://www.w3.org/2000/svg" viewBox="0 0 36 36"><g fill="none" fill-rule="evenodd"><path fill="#2E8BE0" d="M6.96 16.292c0 .78.638 1.027 2.12 1.274 2.158.364 3.146 1.118 3.146 2.756 0 1.755-1.547 2.86-3.666 2.86-2.301 0-3.692-1.3-3.77-2.769l1.95-.312c.09.871.676 1.508 1.82 1.508.923 0 1.677-.351 1.677-1.183 0-.676-.494-1.001-1.911-1.222-1.898-.299-3.341-.923-3.341-2.756 0-1.82 1.469-2.73 3.484-2.73 1.885 0 3.302.897 3.614 2.496l-1.976.429c-.143-.832-.728-1.352-1.69-1.352-.975 0-1.456.39-1.456 1.001zM19.81 23h-6.265v-9.1h6.2v1.612h-4.277v2.002h3.979v1.612h-3.978v2.262h4.342V23zm7.13 0h-1.82c-.507-1.43-1.677-4.914-2.17-6.539h-.04V23h-1.794v-9.1h2.73s1.963 5.876 2.236 6.773c.26-.897 2.159-6.773 2.159-6.773h2.716V23h-1.794v-6.539h-.038A381.13 381.13 0 0126.94 23z"/><path stroke="#2E8BE0" d="M5.911 33.791c-1.652-.347-3.355-2.05-3.702-3.702a61.053 61.053 0 010-24.178C2.556 4.26 4.259 2.556 5.91 2.21a61.053 61.053 0 0124.178 0c1.652.347 3.355 2.05 3.702 3.702a61.053 61.053 0 010 24.178c-.347 1.652-2.05 3.355-3.702 3.702a61.053 61.053 0 01-24.178 0z"/></g></svg>