<svg xmlns="http://www.w3.org/2000/svg" viewBox="0 0 77 75"><g fill="none" fill-rule="evenodd"><path stroke="#2E8BE0" d="M65.167 71.43c-17.778 3.462-35.556 3.462-53.334 0-3.644-.745-7.401-4.404-8.166-7.952-3.556-17.31-3.556-34.62 0-51.93C4.432 8 8.189 4.342 11.833 3.596 29.611.135 47.39.135 65.167 3.596c3.644.746 7.401 4.404 8.166 7.952 3.556 17.31 3.556 34.62 0 51.93-.765 3.548-4.522 7.207-8.166 7.952"/><path fill="#2E8BE0" d="M16.421 32.584c0 1.56 1.274 2.054 4.238 2.548 4.316.728 6.292 2.236 6.292 5.512 0 3.51-3.094 5.72-7.332 5.72-4.602 0-7.384-2.6-7.54-5.538l3.9-.624c.182 1.742 1.352 3.016 3.64 3.016 1.846 0 3.354-.702 3.354-2.366 0-1.352-.988-2.002-3.822-2.444-3.796-.598-6.682-1.846-6.682-5.512 0-3.64 2.938-5.46 6.968-5.46 3.77 0 6.604 1.794 7.228 4.992l-3.952.858c-.286-1.664-1.456-2.704-3.38-2.704-1.95 0-2.912.78-2.912 2.002zM42.121 46H29.589V27.8h12.402v3.224h-8.554v4.004h7.956v3.224h-7.956v4.524h8.684V46zm14.26 0h-3.64c-1.014-2.86-3.354-9.828-4.342-13.078h-.078V46h-3.588V27.8h5.46s3.926 11.752 4.472 13.546c.52-1.794 4.316-13.546 4.316-13.546h5.434V46h-3.588V32.922h-.078c-1.04 3.25-3.588 10.868-4.368 13.078z"/></g></svg>