<svg viewBox="0 0 36 36" xmlns="http://www.w3.org/2000/svg"><g fill="none" fill-rule="evenodd"><path d="M5.911 33.791c-1.652-.347-3.355-2.05-3.702-3.702a61.053 61.053 0 010-24.178C2.556 4.26 4.259 2.556 5.91 2.21a61.053 61.053 0 0124.178 0c1.652.347 3.355 2.05 3.702 3.702a61.053 61.053 0 010 24.178c-.347 1.652-2.05 3.355-3.702 3.702a61.053 61.053 0 01-24.178 0z" stroke="#2E8BE0"/><path d="M7.186 16.292c0 .78.637 1.027 2.119 1.274 2.157.364 3.145 1.118 3.145 2.756 0 1.755-1.546 2.86-3.665 2.86-2.302 0-3.692-1.3-3.77-2.769l1.95-.312c.09.871.675 1.508 1.82 1.508.922 0 1.677-.351 1.677-1.183 0-.676-.494-1.001-1.912-1.222-1.898-.299-3.34-.923-3.34-2.756 0-1.82 1.468-2.73 3.484-2.73 1.884 0 3.301.897 3.613 2.496l-1.976.429c-.142-.832-.727-1.352-1.69-1.352-.975 0-1.455.39-1.455 1.001zM19.886 23H13.62v-9.1h6.2v1.612h-4.276v2.002h3.978v1.612h-3.978v2.262h4.341V23zm6.98 0h-1.82c-.508-1.43-1.678-4.914-2.172-6.539h-.038V23h-1.794v-9.1h2.73s1.962 5.876 2.236 6.773c.26-.897 2.158-6.773 2.158-6.773h2.716V23H29.09v-6.539h-.04A381.13 381.13 0 0126.866 23z" fill="#2E8BE0"/></g></svg>