<svg xmlns="http://www.w3.org/2000/svg" viewBox="0 0 36 36"><path fill="transparent" stroke="#2E8BE0" d="M30.09 33.79a61.017 61.017 0 01-24.18 0c-1.65-.346-3.354-2.05-3.7-3.7a61.017 61.017 0 010-24.18c.346-1.65 2.05-3.354 3.7-3.7a61.017 61.017 0 0124.18 0c1.65.346 3.354 2.05 3.7 3.7a61.017 61.017 0 010 24.18c-.346 1.65-2.05 3.354-3.7 3.7"/><path fill="#2E8BE0" d="M6.178 15.292c0-.611.48-1.001 1.455-1.001.962 0 1.548.52 1.69 1.352l1.976-.429c-.311-1.599-1.729-2.496-3.613-2.496-2.016 0-3.484.91-3.484 2.73 0 1.833 1.442 2.457 3.34 2.756 1.418.221 1.912.546 1.912 1.222 0 .832-.755 1.183-1.678 1.183-1.143 0-1.728-.637-1.82-1.508l-1.95.312c.079 1.469 1.47 2.769 3.77 2.769 2.12 0 3.667-1.105 3.667-2.86 0-1.638-.989-2.392-3.146-2.756-1.483-.247-2.12-.494-2.12-1.274zM15.537 22h1.95v-3.809l3.445-5.291h-2.171l-2.21 3.484-2.223-3.484h-2.237l3.445 5.291V22zm6.447 0h1.846v-5.98h.04c.962 1.547 3.692 5.98 3.692 5.98h2.027v-9.1h-1.846v5.98h-.038l-3.692-5.98h-2.029V22z"/></svg>