<svg xmlns="http://www.w3.org/2000/svg" viewBox="0 0 36 36" width="36" height="36">
	<title>CMDB Sync</title>
	<path fill="transparent" stroke="#2E8BE0" d="M30.09 33.79c-8.06 1.613-16.12 1.613-24.18 0-1.65-.346-3.354-2.05-3.7-3.7-1.613-8.06-1.613-16.12 0-24.18.346-1.65 2.05-3.354 3.7-3.7 8.06-1.613 16.12-1.613 24.18 0 1.65.346 3.354 2.05 3.7 3.7 1.613 8.06 1.613 16.12 0 24.18-.346 1.65-2.05 3.354-3.7 3.7"/>
	<path fill="#2E8BE0" d="M6.1775,15.292 C6.1775,14.681 6.6585,14.291 7.6335,14.291 C8.5955,14.291 9.1805,14.811 9.3235,15.643 L11.2995,15.214 C10.9875,13.615 9.5705,12.718 7.6855,12.718 C5.6705,12.718 4.2015,13.628 4.2015,15.448 C4.2015,17.281 5.6445,17.905 7.5425,18.204 C8.9595,18.425 9.4535,18.75 9.4535,19.426 C9.4535,20.258 8.6995,20.609 7.7765,20.609 C6.6325,20.609 6.0475,19.972 5.9565,19.101 L4.0065,19.413 C4.0845,20.882 5.4755,22.182 7.7765,22.182 C9.8955,22.182 11.4425,21.077 11.4425,19.322 C11.4425,17.684 10.4545,16.93 8.2965,16.566 C6.8145,16.319 6.1775,16.072 6.1775,15.292 Z M15.5375,22 L17.4875,22 L17.4875,18.191 L20.9325,12.9 L18.7615,12.9 L16.5515,16.384 L14.3285,12.9 L12.0925,12.9 L15.5375,18.191 L15.5375,22 Z M21.9855,22 L23.8315,22 L23.8315,16.02 L23.8705,16.02 C24.8325,17.567 27.5625,22 27.5625,22 L29.5905,22 L29.5905,12.9 L27.7445,12.9 L27.7445,18.88 L27.7055,18.88 C26.8085,17.424 24.0135,12.9 24.0135,12.9 L21.9855,12.9 L21.9855,22 Z"/>
</svg>
