<svg xmlns="http://www.w3.org/2000/svg" viewBox="0 0 77 75"><g fill="none" fill-rule="evenodd"><path stroke="#2E8BE0" d="M65.167 71.43c-17.778 3.462-35.556 3.462-53.334 0-3.644-.745-7.401-4.404-8.166-7.952-3.556-17.31-3.556-34.62 0-51.93C4.432 8 8.189 4.342 11.833 3.596 29.611.135 47.39.135 65.167 3.596c3.644.746 7.401 4.404 8.166 7.952 3.556 17.31 3.556 34.62 0 51.93-.765 3.548-4.522 7.207-8.166 7.952"/><path fill="#2E8BE0" d="M17.695 32.584c0-1.222.962-2.002 2.912-2.002 1.924 0 3.094 1.04 3.38 2.704l3.952-.858c-.624-3.198-3.458-4.992-7.228-4.992-4.03 0-6.968 1.82-6.968 5.46 0 3.666 2.886 4.914 6.682 5.512 2.834.442 3.822 1.092 3.822 2.444 0 1.664-1.508 2.366-3.354 2.366-2.288 0-3.458-1.274-3.64-3.016l-3.9.624c.156 2.938 2.938 5.538 7.54 5.538 4.238 0 7.332-2.21 7.332-5.72 0-3.276-1.976-4.784-6.292-5.512-2.964-.494-4.238-.988-4.238-2.548zM35.335 46h3.9v-7.618l6.89-10.582h-4.342l-4.42 6.968-4.446-6.968h-4.472l6.89 10.582V46zm12.596 0h3.692V34.04h.078C53.625 37.134 59.085 46 59.085 46h4.056V27.8h-3.692v11.96h-.078c-1.794-2.912-7.384-11.96-7.384-11.96h-4.056V46z"/></g></svg>