<?xml version="1.0" encoding="UTF-8"?>
<svg id="App_Badges" data-name="App Badges" xmlns="http://www.w3.org/2000/svg" viewBox="0 0 36 36">
  <defs>
    <style>
      .cls-1 {
        fill: #627281;
      }
    </style>
  </defs>
  <g id="Badge">
    <path class="cls-1" d="M18,1h0c4.11,0,8.26,.41,12.33,1.23,1.49,.31,3.13,1.95,3.44,3.43,1.64,8.19,1.64,16.5,0,24.68-.31,1.49-1.95,3.13-3.43,3.44-4.08,.82-8.23,1.23-12.34,1.23s-8.27-.41-12.33-1.23c-1.49-.31-3.13-1.95-3.44-3.43-1.64-8.19-1.64-16.5,0-24.68,.31-1.49,1.95-3.13,3.43-3.44,4.08-.82,8.24-1.23,12.35-1.23M18,0C13.81,0,9.62,.42,5.46,1.25,3.57,1.64,1.64,3.57,1.25,5.46c-1.66,8.32-1.66,16.76,0,25.08,.4,1.89,2.32,3.81,4.21,4.21,4.16,.83,8.35,1.25,12.54,1.25s8.38-.42,12.54-1.25h0c1.89-.4,3.81-2.32,4.21-4.21,1.66-8.32,1.66-16.76,0-25.08-.4-1.89-2.32-3.81-4.21-4.21C26.38,.42,22.19,0,18,0h0Z"/>
  </g>
  <g>
    <path class="cls-1" d="M11.58,14.41h5.76v1.3h-2.1v5.97h-1.57v-5.97h-2.1v-1.3Z"/>
    <path class="cls-1" d="M21.38,14.27c1.55,0,2.63,.68,3.07,2.05l-1.51,.53c-.25-.81-.72-1.29-1.59-1.29-1.29,0-1.92,1.04-1.92,2.48s.63,2.48,1.93,2.48c.8,0,1.3-.41,1.56-1.21l1.49,.53c-.48,1.22-1.48,1.98-3.07,1.98-2.14,0-3.52-1.39-3.52-3.78s1.37-3.78,3.56-3.78Z"/>
  </g>
</svg>