<?xml version="1.0" encoding="UTF-8"?>
<svg id="App_Badges" data-name="App Badges" xmlns="http://www.w3.org/2000/svg" viewBox="0 0 36 36">
  <defs>
    <style>
      .cls-1 {
        fill: #fff;
      }
    </style>
  </defs>
  <path class="cls-1" d="M34.75,5.46c-.4-1.89-2.32-3.81-4.21-4.21-8.32-1.66-16.76-1.66-25.08,0C3.57,1.64,1.64,3.57,1.25,5.46c-1.66,8.32-1.66,16.76,0,25.08,.4,1.89,2.32,3.81,4.21,4.21,4.16,.83,8.35,1.25,12.54,1.25s8.38-.42,12.54-1.25h0c1.89-.4,3.81-2.32,4.21-4.21,1.66-8.32,1.66-16.76,0-25.08ZM17.33,15.71h-2.1v5.97h-1.57v-5.97h-2.1v-1.3h5.76v1.3Zm4.03,4.81c.8,0,1.3-.41,1.56-1.21l1.49,.53c-.48,1.22-1.48,1.98-3.07,1.98-2.14,0-3.52-1.39-3.52-3.78s1.37-3.78,3.56-3.78c1.55,0,2.63,.68,3.07,2.05l-1.51,.53c-.25-.81-.72-1.29-1.59-1.29-1.29,0-1.92,1.04-1.92,2.48s.63,2.48,1.93,2.48Z"/>
</svg>