<?xml version="1.0" encoding="UTF-8"?>
<svg id="App_Badges" data-name="App Badges" xmlns="http://www.w3.org/2000/svg" viewBox="0 0 36 36">
  <defs>
    <style>
      .cls-1 {
        fill: #fff;
      }

      .cls-2 {
        fill: #627281;
      }
    </style>
  </defs>
  <g id="Badge">
    <path class="cls-1" d="M18,36c-4.19,0-8.38-.42-12.54-1.25-1.89-.4-3.82-2.32-4.21-4.21-1.66-8.32-1.66-16.76,0-25.08C1.64,3.57,3.57,1.64,5.46,1.25c8.32-1.66,16.76-1.67,25.08,0,1.89,.4,3.82,2.32,4.21,4.21,1.66,8.33,1.66,16.76,0,25.08-.4,1.89-2.32,3.82-4.21,4.21h0c-4.16,.83-8.35,1.25-12.54,1.25Z"/>
  </g>
  <g>
    <path class="cls-2" d="M11.58,14.41h5.76v1.3h-2.1v5.97h-1.57v-5.97h-2.1v-1.3Z"/>
    <path class="cls-2" d="M21.38,14.27c1.55,0,2.63,.68,3.07,2.05l-1.51,.53c-.25-.81-.72-1.29-1.59-1.29-1.29,0-1.92,1.04-1.92,2.48s.63,2.48,1.93,2.48c.8,0,1.3-.41,1.56-1.21l1.49,.53c-.48,1.22-1.48,1.98-3.07,1.98-2.14,0-3.52-1.39-3.52-3.78s1.37-3.78,3.56-3.78Z"/>
  </g>
</svg>