<svg xmlns="http://www.w3.org/2000/svg" viewBox="0 0 77 75"><g fill="none" fill-rule="evenodd"><path stroke="#2E8BE0" d="M65.167 71.43c-17.778 3.462-35.556 3.462-53.334 0-3.644-.745-7.401-4.404-8.166-7.952-3.556-17.31-3.556-34.62 0-51.93C4.432 8 8.189 4.342 11.833 3.596 29.611.135 47.39.135 65.167 3.596c3.644.746 7.401 4.404 8.166 7.952 3.556 17.31 3.556 34.62 0 51.93-.765 3.548-4.522 7.207-8.166 7.952"/><path fill="#2E8BE0" d="M24.226 31.05h5.252V46h3.926V31.05h5.252V27.8h-14.43v3.25zm23.412 8.554h-3.042V46h-3.874V27.8h6.916c4.342 0 7.202 1.742 7.202 5.798 0 4.134-2.99 6.006-7.202 6.006zm3.224-6.006c0-1.976-1.196-2.574-3.614-2.574h-2.652v5.356h2.652c2.418 0 3.614-.806 3.614-2.782z"/></g></svg>