<svg xmlns="http://www.w3.org/2000/svg" viewBox="0 0 36 36"><path stroke="#2E8BE0" d="M30.089 33.791a61.045 61.045 0 01-24.178 0c-1.652-.347-3.355-2.05-3.702-3.702a61.045 61.045 0 010-24.178c.347-1.652 2.05-3.355 3.702-3.702a61.045 61.045 0 0124.178 0c1.652.347 3.355 2.05 3.702 3.702a61.045 61.045 0 010 24.178c-.347 1.652-2.05 3.355-3.702 3.702" fill="none"/><path fill="#2E8BE0" d="M10.213 15.525h2.626V23h1.963v-7.475h2.626V13.9h-7.215v1.625zm11.856 4.277h-1.521V23h-1.937v-9.1h3.458c2.171 0 3.601.871 3.601 2.899 0 2.067-1.495 3.003-3.601 3.003zm1.612-3.003c0-.988-.598-1.287-1.807-1.287h-1.326v2.678h1.326c1.209 0 1.807-.403 1.807-1.391z"/></svg>