<svg viewBox="0 0 36 36" xmlns="http://www.w3.org/2000/svg"><g fill="none" fill-rule="evenodd"><path d="M5.911 33.791c-1.652-.347-3.355-2.05-3.702-3.702a61.053 61.053 0 010-24.178C2.556 4.26 4.259 2.556 5.91 2.21a61.053 61.053 0 0124.178 0c1.652.347 3.355 2.05 3.702 3.702a61.053 61.053 0 010 24.178c-.347 1.652-2.05 3.355-3.702 3.702a61.053 61.053 0 01-24.178 0z" stroke="#2E8BE0"/><path d="M13.627 23.182c2.534 0 3.64-1.313 3.64-3.536V13.9h-1.95v5.759c0 1.105-.546 1.911-1.69 1.911-1.145 0-1.69-.806-1.69-1.911V13.9h-1.95v5.746c0 2.223 1.104 3.536 3.64 3.536zM22.18 23c2.782 0 4.459-1.651 4.459-4.55s-1.677-4.55-4.46-4.55h-3.392V23h3.393zm-.052-1.612H20.75v-5.876h1.378c1.729 0 2.495 1.17 2.495 2.938 0 1.768-.767 2.938-2.495 2.938z" fill="#2E8BE0" fill-rule="nonzero"/></g></svg>