<svg viewBox="0 0 77 75" xmlns="http://www.w3.org/2000/svg"><g fill="none" fill-rule="evenodd"><path d="M65.167 71.43c-17.778 3.462-35.556 3.462-53.334 0-3.644-.745-7.401-4.404-8.166-7.952-3.556-17.31-3.556-34.62 0-51.93C4.432 8 8.189 4.342 11.833 3.596 29.611.135 47.39.135 65.167 3.596c3.644.746 7.401 4.404 8.166 7.952 3.556 17.31 3.556 34.62 0 51.93-.765 3.548-4.522 7.207-8.166 7.952" stroke="#2E8BE0"/><path d="M29.453 46.364c5.07 0 7.28-2.626 7.28-7.072V27.8h-3.9v11.518c0 2.21-1.092 3.822-3.38 3.822s-3.38-1.612-3.38-3.822V27.8h-3.9v11.492c0 4.446 2.21 7.072 7.28 7.072zM46.859 46c5.564 0 8.918-3.302 8.918-9.1s-3.354-9.1-8.918-9.1h-6.786V46h6.786zm-.104-3.224h-2.756V31.024h2.756c3.458 0 4.992 2.34 4.992 5.876 0 3.536-1.534 5.876-4.992 5.876z" fill="#2E8BE0" fill-rule="nonzero"/></g></svg>