<svg xmlns="http://www.w3.org/2000/svg" viewBox="0 0 76 74.026"><path fill="#FFF" stroke="#2E8BE0" d="M64.667 70.93c-17.778 3.462-35.555 3.462-53.334 0-3.644-.745-7.401-4.404-8.167-7.952-3.555-17.31-3.555-34.62 0-51.93.766-3.548 4.523-7.206 8.167-7.952 17.778-3.462 35.555-3.462 53.334 0 3.644.745 7.401 4.404 8.167 7.952 3.555 17.31 3.555 34.62 0 51.93-.766 3.548-4.523 7.207-8.167 7.952"/><path fill="#2E8BE0" d="M17.929 27.3l6.63 18.2h3.978l6.708-18.2h-4.004s-3.328 9.542-4.524 13.52h-.052c-1.222-3.978-4.55-13.52-4.55-13.52h-4.186zm30.9 18.2c.78-2.21 3.328-9.828 4.368-13.078h.078V45.5h3.588V27.3h-5.434s-3.796 11.752-4.316 13.546c-.546-1.794-4.472-13.546-4.472-13.546h-5.46v18.2h3.588V32.422h.078c.988 3.25 3.328 10.218 4.342 13.078h3.64z"/></svg>