<svg width="36" height="36" xmlns="http://www.w3.org/2000/svg"><g fill="none" fill-rule="evenodd"><path d="M30.09 33.79c-8.06 1.613-16.12 1.613-24.18 0-1.65-.346-3.354-2.05-3.7-3.7-1.613-8.06-1.613-16.12 0-24.18.346-1.65 2.05-3.354 3.7-3.7 8.06-1.613 16.12-1.613 24.18 0 1.65.346 3.354 2.05 3.7 3.7 1.613 8.06 1.613 16.12 0 24.18-.346 1.65-2.05 3.354-3.7 3.7" stroke="#2E8BE0"/><path d="M7.814 13.9L11.13 23h1.988l3.354-9.1H14.47s-1.664 4.77-2.261 6.76h-.028c-.61-1.99-2.274-6.76-2.274-6.76H7.815zm15.6 9.1c.39-1.105 1.664-4.914 2.184-6.54h.04V23h1.793l.002-9.1h-2.717s-1.898 5.876-2.159 6.773c-.273-.897-2.236-6.773-2.236-6.773h-2.73V23h1.794v-6.54h.04c.494 1.626 1.663 5.11 2.17 6.54h1.82z" fill="#2E8BE0"/></g></svg>