<svg data-name="App Badges" xmlns="http://www.w3.org/2000/svg" viewBox="0 0 36 36"><path d="M29.87 11.61h-.93v1.96h.93c.9 0 1.36-.29 1.36-1.03s-.46-.93-1.36-.93zm-7.25 0h-1.1v4.69h1.1c1.38 0 1.99-.93 1.99-2.35s-.61-2.34-1.99-2.34zm-7.56 9.06c-1.31 0-1.93 1.02-1.93 2.49s.62 2.49 1.93 2.49 1.93-1.02 1.93-2.49-.62-2.49-1.93-2.49zM34.75 5.46c-.4-1.89-2.32-3.81-4.21-4.21a63.776 63.776 0 00-25.08 0c-1.89.39-3.82 2.32-4.21 4.21a63.776 63.776 0 000 25.08c.4 1.89 2.32 3.81 4.21 4.21C9.62 35.58 13.81 36 18 36s8.38-.42 12.54-1.25c1.89-.4 3.81-2.32 4.21-4.21a63.776 63.776 0 000-25.08zM7.05 17.59H5.46l-2.65-7.26h1.67s1.33 3.81 1.82 5.39h.02c.48-1.59 1.81-5.39 1.81-5.39h1.6l-2.68 7.26zm3.53-7.26h2.18s1.57 4.69 1.79 5.41c.21-.72 1.72-5.41 1.72-5.41h2.17v7.26h-1.43v-5.22h-.03c-.42 1.3-1.43 4.34-1.74 5.22h-1.45c-.4-1.14-1.34-3.92-1.73-5.22h-.03v5.22H10.6v-7.26zm4.48 16.62c-2.13 0-3.54-1.42-3.54-3.78s1.41-3.78 3.54-3.78 3.54 1.42 3.54 3.78-1.41 3.78-3.54 3.78zm9.78-6.11h-2.1v5.97h-1.57v-5.97h-2.1v-1.3h5.76v1.3zm-2.19-3.24h-2.71v-7.26h2.71c2.22 0 3.56 1.32 3.56 3.63s-1.34 3.63-3.56 3.63zm8.74 0l-1.5-2.75h-.96v2.75h-1.55v-7.26h2.66c1.68 0 2.78.66 2.78 2.21 0 1.08-.53 1.74-1.38 2.08l1.67 2.98H31.4z" fill="#627281"/></svg>