<svg xmlns="http://www.w3.org/2000/svg" viewBox="0 0 36 36"><path d="M30.1 33.8c-8.1 1.6-16.1 1.6-24.2 0-1.7-.3-3.4-2-3.7-3.7C.6 22 .6 14 2.2 5.9c.3-1.7 2-3.4 3.7-3.7C14 .6 22 .6 30.1 2.2c1.6.3 3.4 2 3.7 3.7 1.6 8.1 1.6 16.1 0 24.2-.4 1.6-2.1 3.3-3.7 3.7" fill="none" stroke="#2e8be0"/><path d="M10.3 14.4h2.1l1.7 2.8 1.7-2.8H18v7.3h-2v-4.2l-1.9 2.8-1.8-2.8v4.2h-2v-7.3zm9 0h2.8c2.5 0 4 1.5 4 3.6s-1.5 3.6-4.1 3.6h-2.7v-7.2zm2 1.7v3.7h.8c1.2 0 2-.7 2-1.8 0-1.2-.8-1.8-2-1.8h-.8zm5.3-1.7h3.5c1.1 0 1.9.3 2.4.8.4.4.7 1 .7 1.7 0 1.1-.6 1.9-1.5 2.2l1.8 2.5H31l-1.5-2.2h-.9v2.2h-2v-7.2zm3.4 3.4c.7 0 1.1-.3 1.1-.9 0-.6-.4-.9-1.1-.9h-1.3v1.7l1.3.1zM2.1 14.4h2.4L6.2 19 8 14.4h2.3l-3.1 7.3h-2l-3.1-7.3z" fill="#2e8be0"/></svg>