<svg viewBox="0 0 36 36" xmlns="http://www.w3.org/2000/svg"><path d="M22.62 11.51h-1.1v4.69h1.1c1.38 0 1.99-.93 1.99-2.34s-.61-2.35-1.99-2.35zm5.17 10.73c-.5 0-.76.33-.8.84h1.57c-.02-.55-.33-.84-.77-.84zm-13.83.05c-.59 0-.85.53-.85 1.21s.26 1.21.85 1.21.86-.53.86-1.21-.26-1.21-.86-1.21zm4.93.03c-.42 0-.92.31-.92 1.07v.23c0 .76.51 1.06.92 1.06.54 0 .87-.5.87-1.18s-.33-1.18-.87-1.18zM34.75 5.46c-.4-1.89-2.32-3.81-4.21-4.21a63.776 63.776 0 00-25.08 0c-1.89.39-3.82 2.32-4.21 4.21a63.776 63.776 0 000 25.08c.4 1.89 2.32 3.81 4.21 4.21C9.62 35.58 13.81 36 18 36s8.38-.42 12.54-1.25c1.89-.4 3.81-2.32 4.21-4.21a63.776 63.776 0 000-25.08zm-24.16 4.76h2.18s1.57 4.69 1.79 5.41c.21-.72 1.72-5.41 1.72-5.41h2.17v7.26h-1.43v-5.22h-.03c-.42 1.3-1.43 4.34-1.74 5.22H13.8c-.41-1.14-1.34-3.92-1.73-5.22h-.03v5.22h-1.43v-7.26zm-6.1 0s1.33 3.81 1.82 5.4h.02c.48-1.59 1.81-5.4 1.81-5.4h1.6l-2.68 7.26H5.47l-2.65-7.26zm6.56 15.26H9.89v-4.21h-.03c-.33 1.05-1.16 3.5-1.41 4.21H7.28c-.33-.92-1.08-3.17-1.4-4.21h-.02v4.21H4.7v-5.86h1.76s1.27 3.79 1.44 4.36c.17-.58 1.39-4.36 1.39-4.36h1.75v5.86zm2.91.12c-1.24 0-2.08-.8-2.08-2.11s.84-2.11 2.08-2.11 2.09.8 2.09 2.11-.84 2.11-2.09 2.11zm5.26 0c-.68 0-1.08-.33-1.29-.7v.58h-1.16v-5.86h1.21v2.39c.23-.36.67-.64 1.25-.64.99 0 1.77.81 1.77 2.11s-.78 2.11-1.77 2.11zm3.68-.12h-1.21v-3.99h1.21zm-.6-4.57c-.45 0-.72-.31-.72-.7 0-.43.29-.71.72-.71s.72.29.72.71c0 .39-.27.7-.72.7zm2.74 4.57h-1.21v-5.86h1.21zm-2.39-8h-2.71v-7.26h2.71c2.22 0 3.56 1.32 3.56 3.63s-1.34 3.63-3.56 3.63zm7.11 6.32h-2.78c.02.46.22.91.83.91.42 0 .65-.24.76-.48l1.04.42c-.32.59-.93.95-1.79.95-1.24 0-2.07-.8-2.07-2.12s.85-2.1 2.03-2.1c1.34 0 1.98.97 1.98 2.13zm1.63-6.32l-1.5-2.75h-.96v2.75h-1.55v-7.26h2.66c1.68 0 2.78.66 2.78 2.21 0 1.08-.53 1.74-1.38 2.07l1.67 2.98H31.4zm-1.54-5.98h-.93v1.96h.93c.9 0 1.36-.29 1.36-1.03s-.46-.93-1.36-.93z" fill="#fff"/></svg>