<svg viewBox="0 0 36 36" xmlns="http://www.w3.org/2000/svg" xmlns:xlink="http://www.w3.org/1999/xlink"><symbol id="a" viewBox="0 0 36 36"><path d="M18 1c4.11 0 8.26.41 12.33 1.23 1.49.31 3.13 1.95 3.44 3.43 1.64 8.19 1.64 16.5 0 24.68-.31 1.49-1.95 3.13-3.43 3.44a62.5 62.5 0 01-24.67 0c-1.49-.31-3.13-1.95-3.44-3.43a62.516 62.516 0 010-24.68c.31-1.49 1.95-3.13 3.43-3.44A62.85 62.85 0 0118.01 1M18 0C13.81 0 9.62.42 5.46 1.25c-1.89.39-3.82 2.32-4.21 4.21a63.776 63.776 0 000 25.08c.4 1.89 2.32 3.81 4.21 4.21C9.62 35.58 13.81 36 18 36s8.38-.42 12.54-1.25c1.89-.4 3.81-2.32 4.21-4.21a63.776 63.776 0 000-25.08c-.4-1.89-2.32-3.81-4.21-4.21C26.38.42 22.19 0 18 0z" fill="#2e8be0"/></symbol><use height="36" width="36" xlink:href="#a"/><path d="M4.49 10.22s1.33 3.81 1.82 5.4h.02c.48-1.59 1.81-5.4 1.81-5.4h1.6l-2.68 7.26H5.47l-2.65-7.26zm9.29 7.26c-.4-1.14-1.34-3.92-1.73-5.22h-.03v5.22h-1.43v-7.26h2.18s1.57 4.69 1.79 5.41c.21-.72 1.72-5.41 1.72-5.41h2.17v7.26h-1.43v-5.22h-.03c-.42 1.3-1.43 4.34-1.74 5.22H13.8zm6.17-7.26h2.71c2.22 0 3.56 1.32 3.56 3.63s-1.34 3.63-3.56 3.63h-2.71zm2.67 1.29h-1.1v4.69h1.1c1.38 0 1.99-.93 1.99-2.34s-.61-2.35-1.99-2.35zm8.83 3l1.67 2.98h-1.71l-1.5-2.75h-.96v2.75H27.4v-7.26h2.66c1.68 0 2.78.66 2.78 2.21 0 1.08-.53 1.74-1.38 2.08zm-1.58-3h-.93v1.96h.93c.9 0 1.36-.29 1.36-1.03s-.46-.93-1.36-.93zM7.29 25.48c-.33-.92-1.08-3.17-1.4-4.21h-.02v4.21H4.71v-5.86h1.76s1.27 3.79 1.44 4.36c.17-.58 1.39-4.36 1.39-4.36h1.75v5.86H9.89v-4.21h-.02c-.34 1.05-1.16 3.5-1.41 4.21zm8.76-1.99c0 1.31-.84 2.11-2.09 2.11s-2.08-.8-2.08-2.11.84-2.11 2.08-2.11 2.09.8 2.09 2.11zm-1.22 0c0-.68-.26-1.21-.86-1.21s-.85.53-.85 1.21.26 1.21.85 1.21.86-.53.86-1.21zm6.17 0c0 1.31-.78 2.11-1.77 2.11-.68 0-1.08-.33-1.29-.7v.58h-1.16v-5.86h1.21v2.4c.23-.36.67-.64 1.25-.64.99 0 1.77.81 1.77 2.11zm-3.02.12c0 .76.51 1.06.92 1.06.54 0 .87-.5.87-1.18s-.33-1.18-.87-1.18c-.42 0-.92.31-.92 1.07zm4.34-4.1c.43 0 .72.29.72.71 0 .39-.27.7-.72.7s-.72-.31-.72-.7c0-.43.29-.71.72-.71zm-.6 1.99h1.21v3.99h-1.21zm2.14-1.88h1.21v5.86h-1.21zm5.78 5.03c-.32.59-.93.95-1.79.95-1.24 0-2.07-.8-2.07-2.12s.85-2.1 2.03-2.1c1.34 0 1.98.97 1.98 2.13v.29h-2.78c.02.46.22.91.83.91.42 0 .65-.23.76-.48zm-2.62-1.58h1.57c-.02-.55-.33-.84-.77-.84-.5 0-.76.34-.8.84z" fill="#2e8be0"/></svg>