<svg data-name="App Badges" xmlns="http://www.w3.org/2000/svg" viewBox="0 0 36 36"><path d="M18 36c-4.19 0-8.38-.42-12.54-1.25-1.89-.4-3.82-2.32-4.21-4.21a63.776 63.776 0 010-25.08c.39-1.89 2.32-3.82 4.21-4.21 8.32-1.66 16.76-1.67 25.08 0 1.89.4 3.82 2.32 4.21 4.21a63.776 63.776 0 010 25.08c-.4 1.89-2.32 3.82-4.21 4.21C26.38 35.58 22.19 36 18 36z" fill="#627281" data-name="Badge"/><path d="M4.49 10.32s1.33 3.81 1.82 5.39h.02c.48-1.59 1.81-5.39 1.81-5.39h1.6l-2.68 7.26H5.47l-2.65-7.26h1.67zm9.29 7.26c-.4-1.14-1.34-3.92-1.73-5.22h-.03v5.22h-1.43v-7.26h2.18s1.57 4.69 1.79 5.41c.21-.72 1.72-5.41 1.72-5.41h2.17v7.26h-1.43v-5.22h-.03c-.42 1.3-1.43 4.34-1.74 5.22H13.8zm6.17-7.26h2.71c2.22 0 3.56 1.32 3.56 3.63s-1.34 3.63-3.56 3.63h-2.71v-7.26zm2.67 1.29h-1.1v4.69h1.1c1.38 0 1.99-.93 1.99-2.35s-.61-2.34-1.99-2.34zm8.83 3l1.67 2.98h-1.71l-1.5-2.75h-.96v2.75H27.4v-7.26h2.66c1.68 0 2.78.66 2.78 2.21 0 1.08-.53 1.74-1.38 2.08zm-1.58-3h-.93v1.96h.93c.9 0 1.36-.29 1.36-1.03s-.46-.93-1.36-.93zm-14.81 7.78c2.13 0 3.54 1.42 3.54 3.78s-1.41 3.78-3.54 3.78-3.54-1.42-3.54-3.78 1.41-3.78 3.54-3.78zm0 6.27c1.31 0 1.93-1.02 1.93-2.49s-.62-2.49-1.93-2.49-1.93 1.02-1.93 2.49.62 2.49 1.93 2.49zm4.03-6.12h5.76v1.3h-2.1v5.97h-1.57v-5.97h-2.1v-1.3z" fill="#fff"/></svg>