<svg viewBox="0 0 36 36" xmlns="http://www.w3.org/2000/svg"><g fill="none" fill-rule="evenodd"><path d="M5.911 33.791c-1.652-.347-3.355-2.05-3.702-3.702a61.053 61.053 0 010-24.178C2.556 4.26 4.259 2.556 5.91 2.21a61.053 61.053 0 0124.178 0c1.652.347 3.355 2.05 3.702 3.702a61.053 61.053 0 010 24.178c-.347 1.652-2.05 3.355-3.702 3.702a61.053 61.053 0 01-24.178 0z" stroke="#2E8BE0"/><path d="M9.865 21l2.064-5.6h-1.232s-1.024 2.936-1.392 4.16H9.29c-.376-1.224-1.4-4.16-1.4-4.16H6.601l2.04 5.6h1.224zm3.672 0v-4.024h.024c.304 1 1.024 3.144 1.336 4.024h1.12c.24-.68 1.024-3.024 1.344-4.024h.024V21h1.104v-5.6h-1.672s-1.168 3.616-1.328 4.168a470.495 470.495 0 00-1.376-4.168h-1.68V21h1.104zm8.007 0c1.712 0 2.744-1.016 2.744-2.8 0-1.784-1.032-2.8-2.744-2.8h-2.088V21h2.088zm-.032-.992h-.848v-3.616h.848c1.064 0 1.536.72 1.536 1.808s-.472 1.808-1.536 1.808zm4.703.992v-2.12h.744L28.12 21h1.32l-1.288-2.296c.656-.256 1.064-.768 1.064-1.6 0-1.192-.848-1.704-2.144-1.704h-2.048V21h1.192zm.72-3.096h-.72v-1.512h.72c.696 0 1.048.176 1.048.72 0 .568-.352.792-1.048.792z" fill="#2E8BE0" fill-rule="nonzero"/></g></svg>