<svg id="a" data-name="App Badges" xmlns="http://www.w3.org/2000/svg" viewBox="0 0 36 36"><defs><style>.c{fill:#627281}</style></defs><path class="c" d="M18 1c4.11 0 8.26.41 12.33 1.23 1.49.31 3.13 1.95 3.44 3.43 1.64 8.19 1.64 16.5 0 24.68-.31 1.49-1.95 3.13-3.43 3.44a62.5 62.5 0 01-24.67 0c-1.49-.31-3.13-1.95-3.44-3.43a62.516 62.516 0 010-24.68c.31-1.49 1.95-3.13 3.43-3.44A62.85 62.85 0 0118.01 1M18 0C13.81 0 9.62.42 5.46 1.25c-1.89.39-3.82 2.32-4.21 4.21a63.776 63.776 0 000 25.08c.4 1.89 2.32 3.81 4.21 4.21C9.62 35.58 13.81 36 18 36s8.38-.42 12.54-1.25c1.89-.4 3.81-2.32 4.21-4.21a63.776 63.776 0 000-25.08c-.4-1.89-2.32-3.81-4.21-4.21C26.38.42 22.19 0 18 0z" id="b" data-name="Badge"/><path class="c" d="M4.49 10.32s1.33 3.81 1.82 5.39h.02c.48-1.59 1.81-5.39 1.81-5.39h1.6l-2.68 7.26H5.47l-2.65-7.26h1.67zm9.29 7.26c-.4-1.14-1.34-3.92-1.73-5.22h-.03v5.22h-1.43v-7.26h2.18s1.57 4.69 1.79 5.41c.21-.72 1.72-5.41 1.72-5.41h2.17v7.26h-1.43v-5.22h-.03c-.42 1.3-1.43 4.34-1.74 5.22H13.8zm6.17-7.26h2.71c2.22 0 3.56 1.32 3.56 3.63s-1.34 3.63-3.56 3.63h-2.71v-7.26zm2.67 1.29h-1.1v4.69h1.1c1.38 0 1.99-.93 1.99-2.35s-.61-2.34-1.99-2.34zm8.83 3l1.67 2.98h-1.71l-1.5-2.75h-.96v2.75H27.4v-7.26h2.66c1.68 0 2.78.66 2.78 2.21 0 1.08-.53 1.74-1.38 2.08zm-1.58-3h-.93v1.96h.93c.9 0 1.36-.29 1.36-1.03s-.46-.93-1.36-.93zm-14.81 7.78c2.13 0 3.54 1.42 3.54 3.78s-1.41 3.78-3.54 3.78-3.54-1.42-3.54-3.78 1.41-3.78 3.54-3.78zm0 6.27c1.31 0 1.93-1.02 1.93-2.49s-.62-2.49-1.93-2.49-1.93 1.02-1.93 2.49.62 2.49 1.93 2.49zm4.03-6.12h5.76v1.3h-2.1v5.97h-1.57v-5.97h-2.1v-1.3z"/></svg>