<svg viewBox="0 0 77 75" xmlns="http://www.w3.org/2000/svg"><g fill="none" fill-rule="evenodd"><path d="M65.167 71.43c-17.778 3.462-35.556 3.462-53.334 0-3.644-.745-7.401-4.404-8.166-7.952-3.556-17.31-3.556-34.62 0-51.93C4.432 8 8.189 4.342 11.833 3.596 29.611.135 47.39.135 65.167 3.596c3.644.746 7.401 4.404 8.166 7.952 3.556 17.31 3.556 34.62 0 51.93-.765 3.548-4.522 7.207-8.166 7.952" stroke="#2E8BE0"/><path d="M17.702 45l5.16-14h-3.08s-2.56 7.34-3.48 10.4h-.04c-.94-3.06-3.5-10.4-3.5-10.4h-3.22l5.1 14h3.06zm9.409 0V34.94h.06c.76 2.5 2.56 7.86 3.34 10.06h2.8c.6-1.7 2.56-7.56 3.36-10.06h.06V45h2.76V31h-4.18l-.013.04c-.208.644-2.923 9.053-3.307 10.38C31.57 40.04 28.55 31 28.55 31h-4.2v14h2.76zm20.249 0c4.28 0 6.86-2.54 6.86-7s-2.58-7-6.86-7h-5.22v14h5.22zm-.08-2.48h-2.12v-9.04h2.12c2.66 0 3.84 1.8 3.84 4.52 0 2.72-1.18 4.52-3.84 4.52zM59.27 45v-5.3h1.86l2.9 5.3h3.3l-3.22-5.74c1.64-.64 2.66-1.92 2.66-4 0-2.98-2.12-4.26-5.36-4.26h-5.12v14h2.98zm1.8-7.74h-1.8v-3.78h1.8c1.74 0 2.62.44 2.62 1.8 0 1.42-.88 1.98-2.62 1.98z" fill="#2E8BE0" fill-rule="nonzero"/></g></svg>