<svg viewBox="0 0 36 36" xmlns="http://www.w3.org/2000/svg"><g fill="none" fill-rule="evenodd"><path d="M5.911 33.791c-1.652-.347-3.355-2.05-3.702-3.702a61.053 61.053 0 010-24.178C2.556 4.26 4.259 2.556 5.91 2.21a61.053 61.053 0 0124.178 0c1.652.347 3.355 2.05 3.702 3.702a61.053 61.053 0 010 24.178c-.347 1.652-2.05 3.355-3.702 3.702a61.053 61.053 0 01-24.178 0z" stroke="#FFF"/><path d="M5.294 6.9h2.093s1.665 4.771 2.276 6.76h.026c.598-1.989 2.262-6.76 2.262-6.76h2.002L10.599 16h-1.99L5.295 6.9zM19.88 9.812V16h-1.807v-.91c-.311.585-.91 1.092-1.897 1.092-1.183 0-2.146-.702-2.146-2.106V9.812h1.872v3.705c0 .845.43 1.131.936 1.131.585 0 1.17-.507 1.17-1.651V9.812h1.872zM21.244 16V6.9h1.872V16h-1.872zm3.237 0V9.812h1.806v.949c.313-.611.923-1.131 1.938-1.131 1.208 0 2.183.702 2.183 2.106V16h-1.872v-3.705c0-.845-.442-1.131-.975-1.131-.61 0-1.208.507-1.208 1.651V16H24.48zM8.584 22.292c0 .78.637 1.027 2.119 1.274 2.158.364 3.146 1.118 3.146 2.756 0 1.755-1.548 2.86-3.666 2.86-2.302 0-3.692-1.3-3.77-2.769l1.95-.312c.09.871.675 1.508 1.82 1.508.922 0 1.677-.351 1.677-1.183 0-.676-.494-1.001-1.912-1.222-1.898-.299-3.34-.923-3.34-2.756 0-1.82 1.468-2.73 3.484-2.73 1.885 0 3.302.897 3.614 2.496l-1.976.429c-.143-.832-.729-1.352-1.69-1.352-.976 0-1.456.39-1.456 1.001zm6.147-1.469c0-.663.456-1.105 1.118-1.105.664 0 1.119.442 1.119 1.105 0 .598-.417 1.079-1.119 1.079-.701 0-1.118-.481-1.118-1.079zM14.913 29v-6.188h1.872V29h-1.872zm9.385-6.318l-.35 1.105a.613.613 0 00-.39-.13.607.607 0 00-.364.117c.247.286.377.715.377 1.17 0 1.404-1.34 2.197-2.756 2.197-.482 0-.664-.091-.846-.091-.233 0-.455.143-.455.364 0 .455.845.377 1.99.481 1.17.117 2.534.364 2.534 1.846 0 1.404-1.507 2.041-3.354 2.041-1.755 0-3.028-.546-3.028-1.768 0-.533.285-1.027.883-1.274-.494-.26-.675-.754-.675-1.144 0-.468.324-.884.884-1.118a1.935 1.935 0 01-.729-1.534c0-1.508 1.379-2.314 2.692-2.314.572 0 1.04.156 1.416.312.378-.312.729-.442 1.262-.442.39 0 .676.078.91.182zm-4.51 2.223c0 .715.429 1.04 1.013 1.04.585 0 1.002-.325 1.002-1.04 0-.728-.417-1.079-1.002-1.079-.584 0-1.013.351-1.013 1.079zm1.287 4.368a15.255 15.255 0 01-1.495-.13c-.313.156-.364.507-.364.715 0 .533.584.728 1.56.728.896 0 1.585-.169 1.585-.715 0-.455-.429-.559-1.287-.598zm5.316-4.771c0 .481.572.585 1.117.663 1.274.182 2.523.585 2.523 1.95 0 1.313-1.17 2.067-2.822 2.067-1.534 0-2.716-.624-2.885-1.794l1.806-.273c.052.546.546.754 1.106.754.494 0 .91-.156.91-.611 0-.39-.273-.52-1.145-.65-1.247-.182-2.496-.546-2.496-1.95 0-1.43 1.34-2.028 2.73-2.028 1.392 0 2.523.598 2.718 1.651l-1.795.364c-.065-.455-.416-.702-.922-.702-.469 0-.845.208-.845.559z" fill="#2E8BE0"/></g></svg>