<svg viewBox="0 0 77 75" xmlns="http://www.w3.org/2000/svg"><g fill="none" fill-rule="evenodd"><path d="M65.167 71.43c-17.778 3.462-35.556 3.462-53.334 0-3.644-.745-7.401-4.404-8.166-7.952-3.556-17.31-3.556-34.62 0-51.93C4.432 8 8.189 4.342 11.833 3.596 29.611.135 47.39.135 65.167 3.596c3.644.746 7.401 4.404 8.166 7.952 3.556 17.31 3.556 34.62 0 51.93-.765 3.548-4.522 7.207-8.166 7.952" stroke="#FFF"/><path d="M12.489 15.8h4.186s3.328 9.542 4.55 13.52h.052c1.196-3.978 4.524-13.52 4.524-13.52h4.004L23.097 34h-3.978l-6.63-18.2zm29.47 5.824V34h-3.614v-1.82c-.624 1.17-1.82 2.184-3.796 2.184-2.366 0-4.29-1.404-4.29-4.212v-8.528h3.744v7.41c0 1.69.858 2.262 1.872 2.262 1.17 0 2.34-1.014 2.34-3.302v-6.37h3.744zM44.987 34V15.8h3.744V34h-3.744zm6.772 0V21.624h3.614v1.898c.624-1.222 1.846-2.262 3.874-2.262 2.418 0 4.368 1.404 4.368 4.212V34h-3.744v-7.41c0-1.69-.884-2.262-1.95-2.262-1.222 0-2.418 1.014-2.418 3.302V34h-3.744zM19.067 44.584c0 1.56 1.274 2.054 4.238 2.548 4.316.728 6.292 2.236 6.292 5.512 0 3.51-3.094 5.72-7.332 5.72-4.602 0-7.384-2.6-7.54-5.538l3.9-.624c.182 1.742 1.352 3.016 3.64 3.016 1.846 0 3.354-.702 3.354-2.366 0-1.352-.988-2.002-3.822-2.444-3.796-.598-6.682-1.846-6.682-5.512 0-3.64 2.938-5.46 6.968-5.46 3.77 0 6.604 1.794 7.228 4.992l-3.952.858c-.286-1.664-1.456-2.704-3.38-2.704-1.95 0-2.912.78-2.912 2.002zm12.596-2.938c0-1.326.91-2.21 2.236-2.21s2.236.884 2.236 2.21c0 1.196-.832 2.158-2.236 2.158-1.404 0-2.236-.962-2.236-2.158zM32.027 58V45.624h3.744V58h-3.744zm19.07-12.636l-.702 2.21a1.227 1.227 0 00-.78-.26c-.312 0-.546.104-.728.234.494.572.754 1.43.754 2.34 0 2.808-2.678 4.394-5.512 4.394-.962 0-1.326-.182-1.69-.182-.468 0-.91.286-.91.728 0 .91 1.69.754 3.978.962 2.34.234 5.07.728 5.07 3.692 0 2.808-3.016 4.082-6.708 4.082-3.51 0-6.058-1.092-6.058-3.536 0-1.066.572-2.054 1.768-2.548-.988-.52-1.352-1.508-1.352-2.288 0-.936.65-1.768 1.768-2.236a3.87 3.87 0 01-1.456-3.068c0-3.016 2.756-4.628 5.382-4.628 1.144 0 2.08.312 2.834.624.754-.624 1.456-.884 2.522-.884.78 0 1.352.156 1.82.364zm-9.022 4.446c0 1.43.858 2.08 2.028 2.08s2.002-.65 2.002-2.08c0-1.456-.832-2.158-2.002-2.158s-2.028.702-2.028 2.158zm2.574 8.736c-1.144-.052-2.366-.156-2.99-.26-.624.312-.728 1.014-.728 1.43 0 1.066 1.17 1.456 3.12 1.456 1.794 0 3.172-.338 3.172-1.43 0-.91-.858-1.118-2.574-1.196zm10.932-9.542c0 .962 1.144 1.17 2.236 1.326 2.548.364 5.044 1.17 5.044 3.9 0 2.626-2.34 4.134-5.642 4.134-3.068 0-5.434-1.248-5.772-3.588l3.614-.546c.104 1.092 1.092 1.508 2.21 1.508.988 0 1.82-.312 1.82-1.222 0-.78-.546-1.04-2.288-1.3-2.496-.364-4.992-1.092-4.992-3.9 0-2.86 2.678-4.056 5.46-4.056s5.044 1.196 5.434 3.302l-3.588.728c-.13-.91-.832-1.404-1.846-1.404-.936 0-1.69.416-1.69 1.118z" fill="#2E8BE0"/></g></svg>