<svg width="36" height="36" xmlns="http://www.w3.org/2000/svg"><g fill="none" fill-rule="evenodd"><path d="M30.09 33.79c-8.06 1.613-16.12 1.613-24.18 0-1.65-.346-3.354-2.05-3.7-3.7-1.613-8.06-1.613-16.12 0-24.18.346-1.65 2.05-3.354 3.7-3.7 8.06-1.613 16.12-1.613 24.18 0 1.65.346 3.354 2.05 3.7 3.7 1.613 8.06 1.613 16.12 0 24.18-.346 1.65-2.05 3.354-3.7 3.7" stroke="#2E8BE0"/><path d="M13.352 13.9s-1.21 5.122-1.534 6.8h-.038c-.338-1.678-1.586-6.8-1.586-6.8H8.36s-1.247 5.122-1.572 6.8h-.04c-.3-1.678-1.495-6.8-1.495-6.8H3.277L5.566 23h2.262s1.08-4.407 1.418-6.032h.04C9.646 18.593 10.648 23 10.648 23h2.26l2.275-9.1h-1.833zm7.58 0l3.276 9.1h-2.015l-.73-2.106h-3.262L17.476 23h-1.912l3.277-9.1h2.091zm-1.092 2.132h-.026c-.157.585-1.08 3.315-1.08 3.315h2.197c.002 0-.934-2.73-1.09-3.315zm7.267.26c0-.61.48-1 1.456-1 .962 0 1.547.52 1.69 1.35l1.976-.428c-.314-1.6-1.73-2.496-3.616-2.496-2.015 0-3.484.91-3.484 2.73 0 1.833 1.443 2.457 3.34 2.756 1.418.22 1.912.546 1.912 1.222 0 .832-.754 1.183-1.677 1.183-1.144 0-1.73-.638-1.82-1.51l-1.95.313c.078 1.47 1.47 2.77 3.77 2.77 2.12 0 3.666-1.106 3.666-2.86.002-1.64-.986-2.393-3.145-2.757-1.482-.247-2.12-.494-2.12-1.274z" fill="#2E8BE0"/></g></svg>