<svg xmlns="http://www.w3.org/2000/svg" viewBox="0 0 77 75"><g fill="none" fill-rule="evenodd"><path stroke="#fff" d="M65.167 71.43c-17.778 3.462-35.556 3.462-53.334 0-3.644-.745-7.401-4.404-8.166-7.952-3.556-17.31-3.556-34.62 0-51.93C4.432 8 8.189 4.342 11.833 3.596 29.611.135 47.39.135 65.167 3.596c3.644.746 7.401 4.404 8.166 7.952 3.556 17.31 3.556 34.62 0 51.93-.765 3.548-4.522 7.207-8.166 7.952"/><path fill="#fff" d="M22.556 46v-7.748h7.93v-3.224h-7.93v-4.004h8.606V27.8H18.708V46h3.848zm11.01 0h3.9V27.8h-3.9V46zm18.992 0c.78-2.21 3.328-9.828 4.368-13.078h.078V46h3.588V27.8h-5.434s-3.796 11.752-4.316 13.546C50.296 39.552 46.37 27.8 46.37 27.8h-5.46V46h3.588V32.922h.078c.988 3.25 3.328 10.218 4.342 13.078h3.64z"/></g></svg>