<svg xmlns="http://www.w3.org/2000/svg" viewBox="0 0 77 75"><g fill="none" fill-rule="evenodd"><path stroke="#fff" d="M65.167 71.43c-17.778 3.462-35.556 3.462-53.334 0-3.644-.745-7.401-4.404-8.166-7.952-3.556-17.31-3.556-34.62 0-51.93C4.432 8 8.189 4.342 11.833 3.596 29.611.135 47.39.135 65.167 3.596c3.644.746 7.401 4.404 8.166 7.952 3.556 17.31 3.556 34.62 0 51.93-.765 3.548-4.522 7.207-8.166 7.952"/><path fill="#fff" d="M22.186 36.9c0 5.98 3.458 9.464 8.814 9.464 3.978 0 6.5-1.898 7.696-4.966l-3.744-1.326c-.65 2.028-1.898 3.042-3.9 3.042-3.25 0-4.836-2.626-4.836-6.214 0-3.614 1.586-6.214 4.81-6.214 2.184 0 3.354 1.196 3.978 3.224l3.796-1.326c-1.092-3.432-3.822-5.148-7.696-5.148-5.486 0-8.918 3.51-8.918 9.464zm22.45-4.316c0-1.222.962-2.002 2.912-2.002 1.924 0 3.094 1.04 3.38 2.704l3.952-.858c-.624-3.198-3.458-4.992-7.228-4.992-4.03 0-6.968 1.82-6.968 5.46 0 3.666 2.886 4.914 6.682 5.512 2.834.442 3.822 1.092 3.822 2.444 0 1.664-1.508 2.366-3.354 2.366-2.288 0-3.458-1.274-3.64-3.016l-3.9.624c.156 2.938 2.938 5.538 7.54 5.538 4.238 0 7.332-2.21 7.332-5.72 0-3.276-1.976-4.784-6.292-5.512-2.964-.494-4.238-.988-4.238-2.548z"/></g></svg>