<svg xmlns="http://www.w3.org/2000/svg" viewBox="0 0 77 75"><g fill="none" fill-rule="evenodd"><path stroke="#fff" d="M65.167 71.43c-17.778 3.462-35.556 3.462-53.334 0-3.644-.745-7.401-4.404-8.166-7.952-3.556-17.31-3.556-34.62 0-51.93C4.432 8 8.189 4.342 11.833 3.596 29.611.135 47.39.135 65.167 3.596c3.644.746 7.401 4.404 8.166 7.952 3.556 17.31 3.556 34.62 0 51.93-.765 3.548-4.522 7.207-8.166 7.952"/><path fill="#fff" d="M18.656 46h3.9V27.8h-3.9V46zm6.59-9.1c0-5.902 3.536-9.464 8.866-9.464s8.866 3.562 8.866 9.464c0 5.902-3.536 9.464-8.866 9.464s-8.866-3.562-8.866-9.464zm4.03 0c0 3.692 1.56 6.24 4.836 6.24 3.276 0 4.836-2.548 4.836-6.24s-1.56-6.24-4.836-6.24c-3.276 0-4.836 2.548-4.836 6.24zm15.898 0c0 5.98 3.458 9.464 8.814 9.464 3.978 0 6.5-1.898 7.696-4.966l-3.744-1.326c-.65 2.028-1.898 3.042-3.9 3.042-3.25 0-4.836-2.626-4.836-6.214 0-3.614 1.586-6.214 4.81-6.214 2.184 0 3.354 1.196 3.978 3.224l3.796-1.326c-1.092-3.432-3.822-5.148-7.696-5.148-5.486 0-8.918 3.51-8.918 9.464z"/></g></svg>