<svg xmlns="http://www.w3.org/2000/svg" viewBox="0 0 77 75"><g fill="none" fill-rule="evenodd"><path stroke="#fff" d="M65.167 71.43c-17.778 3.462-35.556 3.462-53.334 0-3.644-.745-7.401-4.404-8.166-7.952-3.556-17.31-3.556-34.62 0-51.93C4.432 8 8.189 4.342 11.833 3.596 29.611.135 47.39.135 65.167 3.596c3.644.746 7.401 4.404 8.166 7.952 3.556 17.31 3.556 34.62 0 51.93-.765 3.548-4.522 7.207-8.166 7.952"/><path fill="#fff" d="M18.975 36.9c0 5.98 3.458 9.464 8.814 9.464 3.978 0 6.5-1.898 7.696-4.966l-3.744-1.326c-.65 2.028-1.898 3.042-3.9 3.042-3.25 0-4.836-2.626-4.836-6.214 0-3.614 1.586-6.214 4.81-6.214 2.184 0 3.354 1.196 3.978 3.224l3.796-1.326c-1.092-3.432-3.822-5.148-7.696-5.148-5.486 0-8.918 3.51-8.918 9.464zM49.537 46c.78-2.21 3.328-9.828 4.368-13.078h.078V46h3.588V27.8h-5.434s-3.796 11.752-4.316 13.546c-.546-1.794-4.472-13.546-4.472-13.546h-5.46V46h3.588V32.922h.078c.988 3.25 3.328 10.218 4.342 13.078h3.64z"/></g></svg>