<svg xmlns="http://www.w3.org/2000/svg" viewBox="0 0 77 75"><g fill="none" fill-rule="evenodd"><path stroke="#fff" d="M65.167 71.43c-17.778 3.462-35.556 3.462-53.334 0-3.644-.745-7.401-4.404-8.166-7.952-3.556-17.31-3.556-34.62 0-51.93C4.432 8 8.189 4.342 11.833 3.596 29.611.135 47.39.135 65.167 3.596c3.644.746 7.401 4.404 8.166 7.952 3.556 17.31 3.556 34.62 0 51.93-.765 3.548-4.522 7.207-8.166 7.952"/><path fill="#fff" d="M32.228 27.8h3.666L31.344 46H26.82s-2.002-8.814-2.73-12.064h-.078C23.336 37.186 21.178 46 21.178 46h-4.524l-4.576-18.2h3.952s2.392 10.244 2.99 13.598h.078c.65-3.354 3.146-13.598 3.146-13.598h3.666s2.496 10.244 3.172 13.598h.078c.65-3.354 3.068-13.598 3.068-13.598zm13.558 0L52.338 46h-4.03l-1.456-4.212h-6.526L38.87 46h-3.822L41.6 27.8h4.186zm-2.184 4.264h-.052c-.312 1.17-2.158 6.63-2.158 6.63h4.394s-1.872-5.46-2.184-6.63zM58.148 46v-7.748h7.93v-3.224h-7.93v-4.004h8.606V27.8H54.3V46h3.848z"/></g></svg>