<svg viewBox="0 0 36 36" xmlns="http://www.w3.org/2000/svg"><g fill="#fff"><path d="M18 1c4.11 0 8.26.41 12.33 1.23 1.49.31 3.13 1.95 3.44 3.43 1.64 8.19 1.64 16.5 0 24.68-.31 1.49-1.95 3.13-3.43 3.44a62.5 62.5 0 01-24.67 0c-1.49-.31-3.13-1.95-3.44-3.43a62.516 62.516 0 010-24.68c.31-1.49 1.95-3.13 3.43-3.44A62.85 62.85 0 0118.01 1M18 0C13.81 0 9.62.42 5.46 1.25c-1.89.39-3.82 2.32-4.21 4.21a63.776 63.776 0 000 25.08c.4 1.89 2.32 3.81 4.21 4.21C9.62 35.58 13.81 36 18 36s8.38-.42 12.54-1.25c1.89-.4 3.81-2.32 4.21-4.21a63.776 63.776 0 000-25.08c-.4-1.89-2.32-3.81-4.21-4.21C26.38.42 22.19 0 18 0z"/><path d="M7.65 12.87c1.91 0 3.25.84 3.79 2.53l-1.87.65c-.31-1-.88-1.58-1.96-1.58-1.59 0-2.37 1.28-2.37 3.06s.78 3.06 2.38 3.06c.98 0 1.6-.5 1.92-1.5l1.84.65c-.59 1.51-1.83 2.44-3.78 2.44-2.63 0-4.33-1.71-4.33-4.65s1.69-4.65 4.39-4.65zm10.85 6.09c0 1.99-1.28 3.22-3.18 3.22s-3.17-1.23-3.17-3.22 1.28-3.22 3.17-3.22 3.18 1.23 3.18 3.22zm-1.87 0c0-1.04-.4-1.84-1.32-1.84s-1.3.81-1.3 1.84.4 1.84 1.3 1.84 1.32-.81 1.32-1.84zm2.96-3.04h1.78v.93c.31-.6.91-1.11 1.91-1.11 1.19 0 2.15.69 2.15 2.07V22h-1.84v-3.64c0-.83-.43-1.11-.96-1.11-.6 0-1.19.5-1.19 1.62V22H19.6v-6.09zm7.23 0h1.78v.93c.31-.6.91-1.11 1.91-1.11 1.19 0 2.15.69 2.15 2.07V22h-1.84v-3.64c0-.83-.43-1.11-.96-1.11-.6 0-1.19.5-1.19 1.62V22h-1.84v-6.09z"/></g></svg>