<svg viewBox="0 0 77 75" xmlns="http://www.w3.org/2000/svg"><g fill="none" fill-rule="evenodd"><path d="M65.167 71.43c-17.778 3.462-35.556 3.462-53.334 0-3.644-.745-7.401-4.404-8.166-7.952-3.556-17.31-3.556-34.62 0-51.93C4.432 8 8.189 4.342 11.833 3.596 29.611.135 47.39.135 65.167 3.596c3.644.746 7.401 4.404 8.166 7.952 3.556 17.31 3.556 34.62 0 51.93-.765 3.548-4.522 7.207-8.166 7.952" stroke="#2E8BE0"/><g fill="#2E8BE0" fill-rule="nonzero"><path d="M29.394 28H25l-3.952 5.616L17.226 28H12.52l6.162 8.84L12 46.2h4.368l4.472-6.318 4.394 6.318h4.68l-6.734-9.542zM32.15 46.2h6.786c5.564 0 8.918-3.302 8.918-9.1S44.5 28 38.936 28H32.15v18.2zm11.674-9.1c0 3.536-1.534 5.876-4.992 5.876h-2.756V31.224h2.756c3.458 0 4.992 2.34 4.992 5.876zM64.468 33.538c0-3.874-2.756-5.538-6.968-5.538h-6.656v18.2h3.874v-6.89h2.418l3.77 6.89h4.29l-4.186-7.462c2.132-.832 3.458-2.496 3.458-5.2zm-4.004.026c0 1.846-1.144 2.574-3.406 2.574h-2.34v-4.914h2.34c2.262 0 3.406.572 3.406 2.34z"/></g></g></svg>