<svg xmlns="http://www.w3.org/2000/svg" viewBox="0 0 36 36"><g fill="#2E8BE0"><path d="M18 35.5c-4.1 0-8.1-.4-12.2-1.2-1.8-.4-3.7-2.3-4.1-4.1C.1 22.1.1 13.9 1.7 5.8 2.1 4 4 2.1 5.8 1.7 13.9.1 22.1.1 30.2 1.7c1.8.4 3.7 2.3 4.1 4.1 1.6 8.1 1.6 16.3 0 24.4-.4 1.8-2.3 3.7-4.1 4.1-4.1.8-8.1 1.2-12.2 1.2zm0-34c-4 0-8 .4-12 1.2C4.5 3 3 4.6 2.7 6c-1.6 8-1.6 16 0 24 .3 1.5 1.9 3 3.3 3.3 8 1.6 16 1.6 24 0 1.5-.3 3-1.9 3.3-3.3 1.6-8 1.6-16 0-24-.3-1.5-1.9-3-3.3-3.3-4-.8-8-1.2-12-1.2z"/><path d="M11 16.8l3.4 4.8h-2.3l-2.2-3.2-2.2 3.2H5.4l3.3-4.7-3-4.4h2.4l1.9 2.8 2-2.8h2.2zM14.9 12.5h3.4c2.8 0 4.5 1.7 4.5 4.6 0 2.9-1.7 4.6-4.5 4.6h-3.4v-9.2zm3.3 1.6h-1.4V20h1.4c1.7 0 2.5-1.2 2.5-2.9s-.8-3-2.5-3zm10.4 3.7l2.1 3.7h-2.1l-1.9-3.4h-1.2v3.4h-1.9v-9h3.3c2.1 0 3.5.8 3.5 2.8 0 1.3-.7 2.1-1.8 2.5zm-1.9-3.7h-1.2v2.4h1.2c1.1 0 1.7-.4 1.7-1.3 0-.8-.6-1.1-1.7-1.1z"/></g></svg>