<svg xmlns="http://www.w3.org/2000/svg" viewBox="0 0 93 60"><g fill="none"><path fill="#6A778B" d="M.608 44.172a4.81 4.81 0 0 0 2.12 6.461 4.81 4.81 0 0 0 6.46-2.12c.02-.037.038-.074.056-.11l1.917-3.899-4.11-13.447L.608 44.172zM27.41.498a4.803 4.803 0 0 0-6.433 2.193l-7.724 15.742 4.102 13.456L29.604 6.922A4.8 4.8 0 0 0 27.41.498"/><path fill="#44536B" d="M14.839 56.58a4.818 4.818 0 0 0 6 3.199 4.81 4.81 0 0 0 3.198-6l-6.673-21.89-6.203 12.627 3.678 12.065zM10.553 9.577a4.806 4.806 0 0 0-6.055-3.097 4.8 4.8 0 0 0-3.143 5.899L7.05 31.06l6.202-12.627-2.7-8.857z"/><path fill="#6A778B" d="M7.051 31.051l4.101 13.456 6.203-12.627-4.102-13.456z"/><path fill="#44536B" d="M30.959 35.106h-7.355c-.019-.166-.019-.313-.019-.424 0-1.853.728-3.07 2.526-4.249.93-.617 1.493-.995 1.723-1.152.24-.175.433-.405.6-.663.156-.277.239-.59.239-.913 0-.811-.553-1.364-1.355-1.364-.977 0-1.53.682-1.558 1.954h-2.166c.037-1.401.36-2.212 1.171-2.876.682-.553 1.511-.83 2.571-.83 2.23 0 3.641 1.171 3.641 3.024 0 1.465-.747 2.48-2.783 3.788-1.549.995-1.742 1.189-1.9 1.908h4.665v1.797zm3.078-3.189c0 1.005.663 1.64 1.687 1.64.958 0 1.576-.534 1.576-1.363 0-.996-.618-1.383-2.212-1.383h-.24v-1.77h.23c1.53 0 2.13-.377 2.13-1.336 0-.783-.6-1.355-1.448-1.355-1.013 0-1.557.6-1.557 1.705v.019h-2.258c.064-1.337.378-2.037 1.189-2.682.663-.535 1.557-.811 2.682-.811 2.184 0 3.613 1.124 3.613 2.848 0 1.216-.7 2.11-1.936 2.424.442.1.6.165.83.294.81.424 1.235 1.19 1.235 2.166 0 1.853-1.466 3.005-3.77 3.005-2.525 0-3.972-1.318-3.972-3.659h2.249c-.019.11-.028.194-.028.258m11.124-.323l-.737.111c-1.364.212-1.908.516-1.908 1.124 0 .553.489.931 1.19.931 1.123 0 1.704-.728 1.741-2.212l-.286.046zm-1.041-4.571c1.143 0 2.046.304 2.636.912.571.572.765 1.208.765 2.6-.019.11-.019.488-.037 1.142v.729c0 1.235.064 2.046.212 2.7h-1.834c-.083-.442-.083-.59-.083-.876v-.322c-.572.977-1.364 1.382-2.655 1.382-1.677 0-2.848-.977-2.848-2.378 0-.58.23-1.133.6-1.53.451-.47 1.023-.718 2.101-.93.83-.148 1.723-.277 2.47-.323 0-1.106-.387-1.576-1.3-1.576-.857 0-1.3.387-1.354 1.152h-2.23c.119-1.668 1.437-2.682 3.557-2.682zm6.912 1.207c.572-.765 1.337-1.152 2.295-1.152 1.143 0 2.12.6 2.452 1.53.193.489.23.876.23 2.046v4.461h-2.166v-4.608c0-1.272-.36-1.77-1.253-1.77-.996 0-1.447.728-1.447 2.304v4.065h-2.166v-7.853h2.055v.977zm9.807 5.282c.995 0 1.659-.931 1.659-2.341-.019-1.447-.618-2.314-1.632-2.314-1.004 0-1.64.913-1.64 2.323 0 1.373.673 2.332 1.613 2.332zm3.788 1.594H62.58v-1.041c-.507.81-1.281 1.216-2.295 1.216-1.908 0-3.235-1.677-3.235-4.083 0-2.46 1.272-4.129 3.143-4.129 1.06 0 1.76.36 2.276 1.17v-3.963h2.166v10.83h-.01zm13.89 0H76.35v-8.719l-2.654 8.719h-2.36l-2.672-8.719v8.719h-2.166v-10.83h3.631l2.489 8.194 2.442-8.194h3.465l-.009 10.83zm6.995-4.83c-.037-.958-.683-1.612-1.641-1.612-.94 0-1.53.553-1.705 1.612h3.346zm-1.558 5.014c-2.442 0-4-1.613-4-4.147 0-2.443 1.576-4.065 3.935-4.065 2.378 0 3.871 1.632 3.871 4.258 0 .13-.018.23-.018.507h-5.558c.046 1.143.72 1.788 1.825 1.788.728 0 1.217-.304 1.429-.93h2.304c-.507 1.686-1.843 2.59-3.788 2.59zm6.728-7.06a.788.788 0 0 0-.295-.036h-.12v.562h.194a.42.42 0 0 0 .276-.074c.065-.046.102-.12.102-.23-.01-.111-.056-.185-.157-.222zm-.922 1.549v-1.926c.314 0 .627 0 .931.009.157.009.277.046.378.101a.495.495 0 0 1 .258.461c0 .166-.046.276-.138.35a.645.645 0 0 1-.332.13c.12.027.212.064.277.11.11.092.166.24.166.433v.175c0 .037.009.074.018.11l.018.056h-.479a1.316 1.316 0 0 1-.028-.267c0-.083-.009-.157-.027-.24-.028-.064-.074-.12-.138-.138a.537.537 0 0 0-.176-.028l-.11-.009h-.102v.682c-.009-.01-.516-.01-.516-.01zm-.258-1.973a1.378 1.378 0 0 0-.414 1.005c0 .406.138.747.424 1.023.276.277.617.424 1.013.424.397 0 .728-.138 1.014-.424.277-.267.424-.636.424-1.023 0-.387-.138-.719-.415-1.005a1.386 1.386 0 0 0-1.013-.433 1.344 1.344 0 0 0-1.033.433zm2.23 2.25a1.676 1.676 0 0 1-1.216.488c-.46.009-.912-.175-1.235-.507a1.675 1.675 0 0 1-.498-1.235c0-.507.185-.931.544-1.263.323-.304.747-.48 1.198-.47.48 0 .885.166 1.226.507.341.341.507.747.507 1.226.01.48-.184.93-.525 1.253z"/></g></svg>