<svg viewBox="0 0 90 90" xmlns="http://www.w3.org/2000/svg" xmlns:xlink="http://www.w3.org/1999/xlink"><defs><path id="a" d="M0 .392h26.493v26.495H0z"/><path id="c" d="M0 .016h26.493V26.51H0z"/><path id="e" d="M0 .505h26.493V27H0z"/></defs><g fill="none" fill-rule="evenodd"><path d="M85.389 88.112a44.945 44.945 0 0 1-17.78 0c-1.212-.256-2.466-1.508-2.72-2.722a44.863 44.863 0 0 1 0-17.777c.254-1.216 1.508-2.468 2.72-2.724a44.875 44.875 0 0 1 17.78 0c1.214.256 2.468 1.508 2.722 2.724a44.863 44.863 0 0 1 0 17.777c-.254 1.214-1.508 2.466-2.722 2.722" fill="#2E8BE0"/><g><mask id="b" fill="#fff"><use xlink:href="#a"/></mask><path d="M13.248 2.259c-2.866 0-5.73.285-8.58.855-.823.171-1.777 1.125-1.952 1.958a43.55 43.55 0 0 0 .002 17.143c.173.825 1.127 1.78 1.96 1.953a43.461 43.461 0 0 0 17.14 0c.83-.176 1.782-1.128 1.958-1.96a43.49 43.49 0 0 0-.002-17.146c-.174-.823-1.128-1.777-1.96-1.95a43.539 43.539 0 0 0-8.566-.853m-.002 24.628c-2.989 0-5.975-.296-8.941-.89C2.744 25.67 1.217 24.143.89 22.59A45.43 45.43 0 0 1 .89 4.697c.328-1.56 1.855-3.088 3.406-3.413a45.351 45.351 0 0 1 17.892-.002c1.56.327 3.088 1.856 3.414 3.405a45.37 45.37 0 0 1 .002 17.896c-.328 1.56-1.855 3.087-3.406 3.412l-.01.002c-2.966.594-5.953.89-8.941.89" fill="#B5D0E5" mask="url(#b)"/></g><path d="M44.503 1.903c-2.92 0-5.842.289-8.745.869-.839.177-1.811 1.149-1.99 1.997a44.375 44.375 0 0 0 .002 17.47c.177.84 1.15 1.81 1.998 1.99a44.377 44.377 0 0 0 17.469-.002c.846-.18 1.815-1.15 1.993-1.996A44.313 44.313 0 0 0 55.23 4.76c-.177-.84-1.15-1.811-1.996-1.99a44.531 44.531 0 0 0-8.73-.867M44.501 27a46.24 46.24 0 0 1-9.114-.91c-1.59-.33-3.146-1.886-3.48-3.469a46.29 46.29 0 0 1-.001-18.234c.335-1.59 1.89-3.146 3.472-3.477A46.196 46.196 0 0 1 53.613.908c1.59.333 3.145 1.889 3.478 3.47a46.22 46.22 0 0 1 .002 18.234c-.335 1.59-1.89 3.148-3.47 3.477l-.01.002c-3.022.607-6.066.909-9.112.909M76.503 1.903c-2.92 0-5.842.289-8.745.869-.837.177-1.81 1.149-1.988 1.997a44.302 44.302 0 0 0 .002 17.47c.176.84 1.149 1.81 1.995 1.99a44.378 44.378 0 0 0 17.47-.002c.848-.18 1.816-1.15 1.993-1.996a44.312 44.312 0 0 0-.002-17.471c-.175-.841-1.147-1.811-1.995-1.99a44.533 44.533 0 0 0-8.73-.867M76.499 27c-3.046 0-6.09-.302-9.112-.91-1.59-.33-3.145-1.888-3.478-3.469a46.219 46.219 0 0 1-.002-18.234c.335-1.59 1.89-3.146 3.47-3.477A46.198 46.198 0 0 1 85.613.908c1.593.333 3.149 1.89 3.478 3.471a46.21 46.21 0 0 1 .002 18.233c-.331 1.59-1.887 3.148-3.47 3.477l-.01.002c-3.023.607-6.066.909-9.114.909" fill="#B5D0E5"/><g transform="translate(0 31)"><mask id="d" fill="#fff"><use xlink:href="#c"/></mask><path d="M13.248 1.881c-2.866 0-5.73.286-8.58.855-.823.174-1.777 1.128-1.952 1.958a43.56 43.56 0 0 0 .002 17.146c.173.825 1.127 1.779 1.96 1.952a43.496 43.496 0 0 0 17.14-.002c.832-.175 1.782-1.127 1.958-1.958a43.499 43.499 0 0 0-.002-17.147c-.174-.821-1.128-1.775-1.96-1.95a43.539 43.539 0 0 0-8.566-.854m-.002 24.629c-2.989 0-5.975-.297-8.941-.889-1.561-.328-3.088-1.855-3.415-3.406A45.43 45.43 0 0 1 .89 4.32c.328-1.56 1.855-3.088 3.406-3.412A45.316 45.316 0 0 1 22.187.907c1.56.326 3.088 1.853 3.414 3.405a45.36 45.36 0 0 1 .002 17.893c-.328 1.561-1.855 3.088-3.406 3.415l-.01.001a45.644 45.644 0 0 1-8.941.889" fill="#B5D0E5" mask="url(#d)"/></g><path d="M44.503 32.9c-2.92 0-5.842.292-8.745.872-.839.177-1.811 1.15-1.99 1.996a44.39 44.39 0 0 0 .002 17.472c.177.841 1.15 1.813 1.998 1.99a44.445 44.445 0 0 0 17.469 0c.846-.18 1.815-1.15 1.993-1.997a44.329 44.329 0 0 0-.001-17.475c-.177-.837-1.15-1.809-1.996-1.988a44.386 44.386 0 0 0-8.73-.87M44.501 58c-3.047 0-6.091-.302-9.114-.906-1.59-.334-3.146-1.89-3.48-3.471a46.297 46.297 0 0 1-.001-18.236c.335-1.59 1.89-3.146 3.472-3.477a46.193 46.193 0 0 1 18.235-.002c1.59.333 3.145 1.889 3.478 3.47a46.226 46.226 0 0 1 .002 18.235c-.335 1.59-1.89 3.147-3.47 3.48l-.01.001a46.517 46.517 0 0 1-9.112.906M76.503 32.9c-2.92 0-5.842.292-8.745.872-.837.177-1.81 1.15-1.988 1.996a44.318 44.318 0 0 0 .002 17.472c.176.841 1.149 1.813 1.995 1.99a44.447 44.447 0 0 0 17.47 0c.848-.18 1.816-1.15 1.993-1.997a44.328 44.328 0 0 0-.002-17.475c-.175-.837-1.147-1.809-1.995-1.988a44.387 44.387 0 0 0-8.73-.87M76.499 58c-3.046 0-6.09-.302-9.112-.906-1.59-.334-3.145-1.89-3.478-3.471a46.225 46.225 0 0 1-.002-18.236c.335-1.59 1.89-3.146 3.47-3.477a46.194 46.194 0 0 1 18.236-.002c1.593.333 3.149 1.89 3.478 3.47a46.225 46.225 0 0 1 .002 18.235c-.331 1.59-1.887 3.147-3.47 3.48l-.01.001A46.523 46.523 0 0 1 76.5 58" fill="#B5D0E5"/><g transform="translate(0 63)"><mask id="f" fill="#fff"><use xlink:href="#e"/></mask><path d="M13.248 2.37c-2.866 0-5.73.286-8.58.856-.823.173-1.777 1.127-1.952 1.96a43.55 43.55 0 0 0 .002 17.143c.173.825 1.127 1.779 1.96 1.953a43.496 43.496 0 0 0 17.14-.002c.832-.176 1.782-1.128 1.958-1.958a43.49 43.49 0 0 0-.002-17.146c-.174-.823-1.128-1.777-1.96-1.952a43.539 43.539 0 0 0-8.566-.853m-.002 24.628c-2.989 0-5.975-.296-8.941-.888-1.561-.329-3.088-1.856-3.415-3.407A45.421 45.421 0 0 1 .89 4.812c.328-1.56 1.855-3.09 3.406-3.414a45.316 45.316 0 0 1 17.892-.002c1.56.327 3.088 1.856 3.414 3.407a45.351 45.351 0 0 1 .002 17.892c-.328 1.56-1.855 3.087-3.406 3.414l-.01.002a45.644 45.644 0 0 1-8.941.888" fill="#B5D0E5" mask="url(#f)"/></g><path d="M44.503 64.9c-2.92 0-5.842.292-8.745.872-.839.177-1.811 1.15-1.99 1.998a44.38 44.38 0 0 0 .002 17.47c.177.841 1.15 1.813 1.998 1.99a44.445 44.445 0 0 0 17.469 0c.846-.18 1.815-1.15 1.993-1.997a44.319 44.319 0 0 0-.001-17.473c-.177-.839-1.15-1.81-1.996-1.99a44.386 44.386 0 0 0-8.73-.87M44.501 90c-3.047 0-6.091-.302-9.114-.906-1.59-.334-3.146-1.89-3.48-3.471a46.288 46.288 0 0 1-.001-18.234c.335-1.59 1.89-3.148 3.472-3.48a46.193 46.193 0 0 1 18.235-.001c1.59.333 3.145 1.89 3.478 3.472a46.216 46.216 0 0 1 .002 18.233c-.335 1.59-1.89 3.147-3.47 3.48l-.01.001a46.517 46.517 0 0 1-9.112.906" fill="#B5D0E5"/><path d="M82.79 77H69.21c-.668 0-1.21-.448-1.21-1s.542-1 1.21-1h13.58c.668 0 1.21.448 1.21 1s-.542 1-1.21 1" fill="#FFF"/><path d="M76 84c-.552 0-1-.542-1-1.21V69.21c0-.668.448-1.21 1-1.21s1 .542 1 1.21v13.58c0 .668-.448 1.21-1 1.21" fill="#FFF"/></g></svg>