<svg xmlns="http://www.w3.org/2000/svg" xmlns:xlink="http://www.w3.org/1999/xlink" viewBox="0 0 52 58"><defs><path id="a" d="M0 56h50.733V0H0z"/></defs><g fill="none" fill-rule="evenodd" transform="translate(1 1)"><path stroke="#B5D0E6" stroke-linecap="round" stroke-linejoin="round" stroke-width="2" d="M4.718 7.197l.069-1.416 41.39.032-.067 1.416M9.627 2.322L9.678.875l31.59.038-.05 1.409M.935 9.983l48.921.069-.058 45.073-48.923-.07zM49.858 22.471H.876"/><path fill="#B5D0E6" d="M5.773 16.223c0-.796.661-1.44 1.472-1.438.81 0 1.469.648 1.469 1.444-.002.796-.662 1.439-1.473 1.438-.81-.001-1.47-.645-1.468-1.444m6.86 0c0-.796.657-1.44 1.468-1.438.814 0 1.47.648 1.47 1.444-.002.796-.66 1.439-1.473 1.438a1.451 1.451 0 0 1-1.465-1.444m6.856 0c0-.796.662-1.44 1.472-1.438.81 0 1.47.648 1.467 1.444 0 .796-.66 1.439-1.47 1.438-.815-.001-1.47-.645-1.469-1.444"/><path stroke="#B5D0E5" stroke-linecap="round" stroke-linejoin="round" stroke-width="2" d="M12.917 27.416H6.484v6.993M38.297 49.835h6.438v-6.993"/><path fill="#EB3027" d="M21.11 36.195h8.674a2.89 2.89 0 0 1 2.895 2.89v6.465a2.894 2.894 0 0 1-2.895 2.894H21.11a2.894 2.894 0 0 1-2.894-2.894v-6.465a2.89 2.89 0 0 1 2.894-2.89"/><path stroke="#ED2E26" stroke-width="2" d="M22.074 37.158h6.747a2.894 2.894 0 0 1 2.895 2.89v4.539a2.898 2.898 0 0 1-2.895 2.894h-6.747a2.898 2.898 0 0 1-2.894-2.894v-4.539a2.894 2.894 0 0 1 2.894-2.89z"/><path stroke="#EB3027" stroke-width="2" d="M23.245 32.056a.963.963 0 0 0-.964.963v3.29c0 .532.43.963.964.963h4.405a.963.963 0 0 0 .964-.963v-3.29a.963.963 0 0 0-.964-.963h-4.405z"/><mask id="b" fill="#fff"><use xlink:href="#a"/></mask><path fill="#FFF" mask="url(#b)" d="M24.932 45.382h1.03v-4.085h-1.03z"/><path fill="#FFF" d="M25.45 40.278a1.54 1.54 0 0 1 1.548 1.531c0 .846-.694 1.533-1.549 1.533-.86 0-1.552-.687-1.552-1.533a1.54 1.54 0 0 1 1.552-1.531" mask="url(#b)"/></g></svg>