<svg xmlns="http://www.w3.org/2000/svg" viewBox="0 0 74 55"><g fill="none" fill-rule="evenodd"><path stroke="#B5D0E7" stroke-linecap="round" stroke-linejoin="round" stroke-width="2" d="M61.003 19.464c-.534 0-1.056.048-1.57.118-1.082-4.5-5.122-7.848-9.953-7.848-1.686 0-3.273.415-4.677 1.137C42.293 5.967 35.749 1 27.975 1 18.044 1 9.992 9.052 9.992 18.983c0 .14.038.271.042.412C4.85 20.717 1 25.377 1 30.972c0 .08.011.155.012.233-.001.088-.012.172-.012.26 0 5.439 3.625 10.024 8.586 11.496h54.83C69.375 41.49 73 36.904 73 31.464c0-6.631-5.373-12-11.997-12z"/><path fill="#ED2E26" d="M36.397 19c9.768 0 14.68 5.226 14.68 5.226s.562 3.869.203 11.658C50.739 47.651 36.4 54.718 36.4 54.719c-.001 0-14.339-7.068-14.88-18.835-.359-7.79.203-11.658.203-11.658S26.629 19 36.397 19"/><path fill="#FEFEFE" d="M28.99 34.97c0-4.16 3.29-7.546 7.332-7.546 4.046 0 7.338 3.292 7.338 7.338 0 3.23-2.777 5.889-4.916 7.254.83.473 2.661.97 4.416 1.132a10.59 10.59 0 0 0 4.124-8.386c0-6.044-4.918-10.962-10.962-10.962S25.36 28.718 25.36 34.762c0 3.65 1.52 6.894 4.396 9.38 2.689 2.323 6.621 3.873 11.098 4.607.971-.535 2.63-2.118 3.252-3.045-3.74-.48-7.279-1.392-9.651-2.638-3.627-1.902-5.465-4.626-5.465-8.096"/></g></svg>