<svg xmlns="http://www.w3.org/2000/svg" viewBox="0 0 42 58"><g fill="none" fill-rule="evenodd"><path stroke="#B5D0E7" stroke-width="2" d="M1 57h39.433V9.4H1zM21.183 1a4.2 4.2 0 1 1 0 8.4 4.2 4.2 0 0 1 0-8.4z"/><path fill="#FFF" d="M10.45 10.333h20.533v-5.6H10.45z"/><path stroke="#B5D0E7" stroke-width="2" d="M11.383 9.4H30.05V5.667H11.383zM7.65 17.8h9.333c.517 0 .934.418.934.933v9.333a.932.932 0 0 1-.934.934H7.65a.932.932 0 0 1-.933-.934v-9.333c0-.515.417-.933.933-.933z"/><path stroke="#EB3027" stroke-width="2" d="M7.65 36.261h9.333c.517 0 .934.418.934.933v9.334a.932.932 0 0 1-.934.933H7.65a.932.932 0 0 1-.933-.933v-9.334c0-.515.417-.933.933-.933z"/><path stroke="#B5D0E7" stroke-width="2" d="M24.245 17.8h9.333c.517 0 .934.418.934.933v9.333a.932.932 0 0 1-.934.934h-9.333a.933.933 0 0 1-.933-.934v-9.333c0-.515.418-.933.933-.933zm0 18.461h9.333c.517 0 .934.418.934.933v9.334a.932.932 0 0 1-.934.933h-9.333a.933.933 0 0 1-.933-.933v-9.334c0-.515.418-.933.933-.933z"/><path stroke="#EB3027" stroke-linecap="round" stroke-linejoin="round" stroke-width="2" d="M9.723 41.971l1.413 1.626 3.873-3.367"/></g></svg>