<svg xmlns="http://www.w3.org/2000/svg" viewBox="0 0 56 56"><g fill="none" fill-rule="evenodd"><path fill="#B5D0E7" d="M28 56C12.561 56 0 43.44 0 28a.903.903 0 1 1 1.806 0c0 14.443 11.75 26.194 26.194 26.194 14.443 0 26.194-11.751 26.194-26.194a26.048 26.048 0 0 0-7.495-18.345.903.903 0 1 1 1.288-1.264A27.838 27.838 0 0 1 56 28c0 15.44-12.561 28-28 28"/><path fill="#ED2E26" d="M47.159 8.838A27.008 27.008 0 0 0 28 .903C13.035.903.904 13.035.904 28H28L47.16 8.838z"/><path fill="#FFF" d="M1.822 27.097h25.805L45.87 8.849C41.005 4.3 34.694 1.806 28 1.806c-14.141 0-25.7 11.265-26.179 25.29m26.179 1.807H.904A.903.903 0 0 1 0 28C0 12.56 12.56 0 28 0c7.477 0 14.508 2.912 19.796 8.2a.902.902 0 0 1 0 1.277L28.64 28.639c-.17.17-.4.264-.638.264"/><path fill="#FFF" d="M28 28.903H8.042A.903.903 0 0 1 7.139 28C7.139 16.497 16.497 7.138 28 7.138c5.572 0 10.81 2.17 14.751 6.11a.904.904 0 0 1-1.277 1.278A18.934 18.934 0 0 0 28 8.945c-10.204 0-18.56 8.063-19.034 18.152H28a.903.903 0 1 1 0 1.806"/><path fill="#FFF" d="M15.751 28.903a.903.903 0 0 1-.903-.903c0-7.252 5.9-13.153 13.152-13.153 3.512 0 6.814 1.368 9.299 3.852a.902.902 0 1 1-1.277 1.277A11.276 11.276 0 0 0 28 16.654c-6.256 0-11.345 5.09-11.345 11.346 0 .5-.405.903-.904.903"/><path fill="#ED2E26" d="M28 28.903a.902.902 0 0 1-.639-1.542l19.16-19.16A.902.902 0 1 1 47.8 9.478l-19.16 19.16a.9.9 0 0 1-.639.265"/><path fill="#ED2E26" d="M24.934 28a3.067 3.067 0 1 1 6.134 0 3.067 3.067 0 0 1-6.134 0"/><path fill="#FFF" d="M28 25.836c-1.193 0-2.163.97-2.163 2.164 0 1.193.97 2.163 2.163 2.163 1.193 0 2.163-.97 2.163-2.163 0-1.194-.97-2.164-2.163-2.164m0 6.133A3.974 3.974 0 0 1 24.03 28c0-2.189 1.781-3.97 3.97-3.97A3.975 3.975 0 0 1 31.97 28 3.974 3.974 0 0 1 28 31.97M21.92 8.554a1.58 1.58 0 1 1 3.159.001 1.58 1.58 0 0 1-3.159 0"/><path fill="#FFF" d="M23.498 7.88a.677.677 0 0 0-.675.675.676.676 0 1 0 .676-.676m0 3.158a2.485 2.485 0 0 1-2.483-2.482 2.485 2.485 0 0 1 2.482-2.482 2.485 2.485 0 0 1 2.482 2.482 2.485 2.485 0 0 1-2.482 2.482M16.382 21.36a1.579 1.579 0 1 1 3.157 0 1.579 1.579 0 0 1-3.157 0"/><path fill="#FFF" d="M17.96 20.683a.676.676 0 1 0 .002 1.353.676.676 0 0 0-.002-1.353m0 3.157a2.484 2.484 0 0 1-2.482-2.481 2.485 2.485 0 0 1 2.482-2.482 2.485 2.485 0 0 1 2.483 2.482 2.484 2.484 0 0 1-2.483 2.481"/></g></svg>