<svg xmlns="http://www.w3.org/2000/svg" viewBox="0 0 58 53"><g fill="none" fill-rule="evenodd"><g stroke="#B5D0E7" stroke-linecap="round" stroke-linejoin="round" stroke-width="2"><path d="M15.376 14.385h26.507V1.983H15.376zM40.536 33.416H56.26v-9.292H40.536zM1 51.069h15.723v-9.291H1zM20.768 51.069h15.723v-9.291H20.768z"/></g><path stroke="#B5D0E7" stroke-linecap="round" stroke-linejoin="round" stroke-width="2" d="M16.724 28.769h4.045M36.492 28.769h4.045M16.724 46.423h4.045M36.492 46.423h4.045M20.768 33.416h15.723v-9.292H20.768zM25.899 14.384v4.024H8.862v5.716M25.899 33.416v3.645H8.862v4.716M31.362 14.384v4.024h17.037v5.716M31.362 33.416v3.645h17.037v4.716"/><path fill="#ED2E26" d="M1 33.416h15.723v-9.292H1z"/><path stroke="#ED2E26" stroke-linecap="round" stroke-linejoin="round" stroke-width="2" d="M1 33.416h15.723v-9.292H1z"/><path fill="#ED2E26" d="M40.536 51.069H56.26v-9.291H40.536z"/><path stroke="#ED2E26" stroke-linecap="round" stroke-linejoin="round" stroke-width="2" d="M40.536 51.069H56.26v-9.291H40.536z"/></g></svg>