<svg xmlns="http://www.w3.org/2000/svg" viewBox="0 0 424.9 414.47"><defs><style>.q,.s,.t,.u{stroke-linecap:round;stroke-linejoin:round}.q,.s,.u{stroke:#b4cfe4}.q,.u{stroke-width:8.4px}.q{fill:#b4cfe4}.s{stroke-width:10.9px}.s,.t,.u{fill:none}.t{stroke:#fff;stroke-width:8.43px}</style></defs><g id="b" data-name="Layer 2"><g id="c" data-name="Hero_1290x682"><path stroke-width="18.04" fill="#b4cfe4" stroke="#b4cfe4" stroke-linecap="round" stroke-linejoin="round" d="M327.45 77.02l-35-68 78 2-43 66z"/><path class="s" d="M98.45 30.02c7-4 13-8 20-12M45.45 80.02c6-8 13-16 20-24M5.45 202.02c0-24 4-47 11-68M342.45 41.02c47 38 77 96 77 161 0 114-93 207-207 207-96 0-177-66-200-154"/><path id="d" data-name="Fill-9" d="M163.53 318.62c0 6.3-5.11 11.42-11.42 11.42s-11.43-5.11-11.43-11.42 5.12-11.42 11.43-11.42 11.42 5.11 11.42 11.42" fill="#fff"/><path id="e" data-name="Stroke-11" class="q" d="M163.53 318.62c0 6.3-5.11 11.42-11.42 11.42s-11.43-5.11-11.43-11.42 5.12-11.42 11.43-11.42 11.42 5.11 11.42 11.42z"/><path id="f" data-name="Stroke-19" class="q" d="M265.8 318.62c0 6.3 5.11 11.42 11.42 11.42s11.43-5.11 11.43-11.42-5.12-11.42-11.43-11.42-11.42 5.11-11.42 11.42z"/><path id="g" data-name="Stroke-27" class="q" d="M226.6 318.62c0 6.3-5.11 11.42-11.42 11.42s-11.43-5.11-11.43-11.42 5.12-11.42 11.43-11.42 11.42 5.11 11.42 11.42z"/><path id="h" data-name="Page-1" d="M288.46 134.46c-1.61 0-3.18.14-4.73.35-3.25-13.28-15.41-23.15-29.95-23.15-5.07 0-9.85 1.22-14.08 3.35-7.55-20.37-27.24-35.03-50.64-35.03-29.88 0-54.11 23.76-54.11 53.06 0 .41.12.79.12 1.21-15.6 3.9-27.18 17.65-27.18 34.16 0 .24.03.46.04.69 0 .25-.04.51-.04.76 0 16.05 10.92 29.58 25.83 33.92h164.99c14.93-4.34 25.83-17.87 25.83-33.92 0-19.56-16.17-35.41-36.1-35.41z" stroke-width="8.4" stroke="#b4cfe4" stroke-linecap="round" stroke-linejoin="round" fill="#fff"/><path id="i" data-name="Path-4" class="u" d="M157.34 129.08c8.12-16.1 20.78-24.19 37.99-24.25"/><path id="j" data-name="Stroke-7" class="u" d="M152.11 318.61v-22.39c0-8.33 6.75-15.07 15.07-15.07h32.92c8.33 0 15.08-6.75 15.08-15.07v-8.81"/><path id="k" data-name="Stroke-15" class="u" d="M278.25 318.61v-22.39c0-8.33-6.75-15.07-15.07-15.07h-32.92c-8.33 0-15.08-6.75-15.08-15.07v-8.81"/><path id="l" data-name="Stroke-23" class="u" d="M215.18 204.47v114.15"/><g><path id="m" data-name="Fill-41" d="M215.34 135.53c33.31 0 50.06 17.82 50.06 17.82s1.92 13.19.7 39.76c-1.85 40.13-50.75 64.24-50.76 64.24 0 0-48.9-24.1-50.75-64.24-1.22-26.57.7-39.76.7-39.76s16.73-17.82 50.05-17.82" fill="#ee3e3a"/><path class="t" d="M195.39 179.71l-14.12 7.95 14.12 8.73M235.31 179.71l14.12 7.95-14.12 8.73M222.21 173.26l-12.84 29.64"/></g></g></g></svg>