<svg xmlns="http://www.w3.org/2000/svg" viewBox="0 0 151 25"><g fill="none"><path fill="#44536B" d="M63.063 10.156l-1.37.032V4.71h1.57c1.189 0 1.58.873 1.58 2.778 0 1.906-.44 2.667-1.78 2.667m6.91 12.486v-5.87c0-2.783-.993-4.4-3.115-4.781 2.466-.655 3.141-2.724 3.141-5.374C70 2.881 68.656.559 64.3.559h-7.803l.005 24.19h5.194V14.231h1.28c1.25 0 1.844.862 1.844 2.014v6.435c0 1.069.215 1.858.362 2.068h5.254c-.183-.2-.462-1.035-.462-2.106m-58.268-2.007c.929-.775 1.089-1.735 1.089-2.596v-3.616h-5.05v4.907a1.27 1.27 0 0 1-1.27 1.272c-.701 0-1.223-.57-1.223-1.272V5.428c0-.701.522-1.27 1.223-1.27.702 0 1.27.569 1.27 1.27v4.939h5.043V5.243c0-2.83-1.85-5.16-6.356-5.165C1.805.078.056 2.418.056 5.25v14.515c0 2.806 2.228 4.928 5.077 4.928h1.563l5.009-4.057zm131.843-10.492h-1.38V4.7h1.578c1.187 0 1.58.872 1.58 2.776 0 1.907-.436 2.668-1.778 2.668m6.904 12.487v-5.871c0-2.782-.989-4.4-3.111-4.782 2.467-.653 3.142-2.721 3.142-5.37 0-3.739-1.348-6.06-5.7-6.06h-7.805v24.19h5.207V14.22h1.271c1.253 0 1.84.86 1.84 2.014v6.434c0 1.071.22 1.859.366 2.068h5.25c-.18-.2-.46-1.037-.46-2.106m-24.29-6.598l1.352-11.287 1.35 11.287h-2.702zM130.994.5h-6.985l-4.15 24.236h5.258l.516-4.276 3.757-.003.512 4.28h5.263L130.994.498z"/><path fill="#000" d="M96.165 24.732V.552h5.327v19.59h5.552v4.59z"/><path fill="#44536B" d="M88.019.553h5.324v24.181h-5.324zM96.165 24.732V.552h5.327v19.59h5.552v4.59zM108.326 24.732V.552h5.323v19.59h5.554v4.59zM79.302 10.861l-1.589-.019V4.709h1.58c1.35 0 1.577.925 1.577 3.139 0 2.287-.228 3.013-1.568 3.013M80.642.553h-8.118v24.19h5.206v-9.6h2.912c4.782 0 5.59-3.047 5.59-7.295 0-4.248-.806-7.295-5.59-7.295M47.502 5.161v4.792h5.512v4.738h-5.512v5.369l6.55-.003v4.668l-11.882.006V.548h-.006 11.673v4.613zM31.613 21.205V5.253h-3.486V.555h12.614v4.698h-3.503v19.41h-1.494z"/><path fill="#6A778B" d="M33.873 24.699L21.59 14.406 8.862 24.699z"/><path fill="#44536B" d="M20.231 11.632l1.36-6.95 1.353 6.95H20.23zM25.094.58h-7.036l-4.1 18.393 7.634-6.163 7.959 6.67L25.094.58z"/></g></svg>