<svg xmlns="http://www.w3.org/2000/svg" viewBox="0 0 284 53"><g fill="none"><path fill="#80C342" d="M268.4 45.5c0-4.1 3.4-7.5 7.5-7.5s7.5 3.4 7.5 7.5-3.4 7.5-7.5 7.5-7.5-3.4-7.5-7.5"/><path fill="#231F20" d="M185.6 1.2v12.2h8.3v10h-8.3v15.1c0 2.5 1.2 3.8 3.5 3.8 1.8 0 3.9-.4 6.3-1.3v9.8c-1.8.8-3.4 1.3-5 1.7-1.6.3-3.5.5-5.6.5-4.4 0-7.5-1.1-9.5-3.3-1.9-2.2-2.9-5.6-2.9-10.1v-16h-4.6v-10h4.6V3.5l13.2-2.3zm30.3.3v12.2h8.3v10h-8.3v15.1c-.1 2.2 1.1 3.5 3.5 3.5 1.8 0 3.9-.4 6.3-1.3v9.8c-1.8.8-3.4 1.3-5 1.7-1.6.3-3.5.5-5.6.5-4.4 0-7.5-1.1-9.5-3.3-1.9-2.2-2.9-5.6-2.9-10.1v-16h-4.6v-10h4.6v-10l13.2-2.1zm31.5 11.2c5.7 0 10.1 1.6 13.2 4.6 3.1 3 4.6 7.4 4.7 13.4v5.9H242c.1 2.2.8 3.9 2.3 5.1 1.5 1.2 3.5 1.8 6 1.8 2.3 0 4.4-.3 6.3-.7 1.3-.3 2.7-.8 4.2-1.4l2 8.7c-2 1.1-4.1 1.8-6.3 2.2-2.2.4-4.8.6-7.8.6-6.3 0-11.2-1.7-14.7-5.1-3.5-3.5-5.2-8.4-5.2-14.7 0-6.6 1.6-11.6 4.8-15.1 3.2-3.6 7.8-5.3 13.8-5.3zm-181.8 0c5.7 0 10.1 1.6 13.2 4.6 3.1 3 4.7 7.4 4.7 13.4v5.9H60.2c.1 2.2.8 3.9 2.3 5.1 1.5 1.2 3.5 1.8 6 1.8 2.3 0 4.4-.3 6.3-.7 1.3-.3 2.7-.8 4.2-1.4l2 8.7c-2 1.1-4.1 1.8-6.3 2.2-2.2.4-4.8.6-7.8.6-6.3 0-11.2-1.7-14.7-5.1-3.5-3.5-5.2-8.4-5.2-14.7 0-6.6 1.6-11.6 4.8-15.1 3.2-3.6 7.8-5.3 13.8-5.3zm60 .1c3.7 0 7 .8 9.9 2.4 2.9 1.6 5 3.9 6.6 7 1.6 2.9 2.3 6.5 2.3 10.5 0 6.3-1.7 11.3-5 14.8s-8 5.3-14 5.3c-5.7 0-10.3-1.8-13.7-5.4-3.4-3.6-5.1-8.5-5.1-14.7 0-6.3 1.7-11.2 5-14.7s8-5.2 14-5.2zM101.6 0v52.2H88.5V0h13.1zm61.1 13.4v38.8h-13.1V13.4h13.1zM17.6.1C25.7.1 32 2.2 36.5 6.5c4.3 4.4 6.6 10.5 6.6 18.6 0 8.7-2.3 15.3-7 20-4.7 4.7-11.2 7-19.7 7H0V.1h17.6zm108 22.6c-2 0-3.4.8-4.3 2.5-.9 1.7-1.4 4.2-1.4 7.5s.4 5.9 1.3 7.6c.9 1.7 2.3 2.6 4.4 2.6 2 0 3.5-.9 4.3-2.6.8-1.7 1.3-4.3 1.3-7.6s-.4-5.8-1.3-7.5c-.8-1.7-2.3-2.5-4.3-2.5zm-108-11.1h-4v29.1h3.1c4.2 0 7.2-1.2 9.2-3.7 2-2.5 2.9-6.3 2.9-11.4 0-4.8-.9-8.3-2.8-10.6-1.8-2.3-4.6-3.4-8.4-3.4zm230.3 10.2c-1.6 0-2.9.5-3.9 1.5s-1.6 2.6-1.8 4.7h11.3c-.1-1.9-.6-3.4-1.6-4.5s-2.3-1.7-4-1.7zm-181.8 0c-1.6 0-2.9.5-3.9 1.5s-1.6 2.6-1.8 4.7h11.3c-.1-1.9-.6-3.4-1.6-4.5s-2.3-1.7-4-1.7zM162.7 0v8.7h-13.1V0h13.1z"/></g></svg>