<svg xmlns="http://www.w3.org/2000/svg" viewBox="0 0 227 228"><path fill="#44546B" d="M3.432 183.898c1.259.238 2.044 1.355 2.922 2.186 11.955 11.907 23.861 23.837 35.791 35.743.665.738 1.521 1.474 1.64 2.52-.048 1.021-.595 1.925-1.021 2.828-14.094-.024-28.162-.024-42.232-.024 0-14.093-.024-28.21 0-42.302.95-.38 1.854-.975 2.9-.951zM176.8.857c-3.161 3.208-6.394 6.393-9.577 9.602 1.258 1.33 2.589 2.566 3.849 3.873 2.9-1.996 6.179-3.588 9.744-3.85 3.208-.333 6.441.499 9.387 1.783 1.117.475 2.163 1.235 3.422 1.354 1.236-.071 2.163-1.164 2.591-2.258.356-.759.023-1.663-.57-2.21-2.757-2.78-5.538-5.513-8.271-8.294l6.987-.023h18.286c2.105.002 4.21.004 6.314.004l7.887-.004V39.38l-2.02-2.002c-2.01-2.01-3.999-4.033-6.013-6.029-.713-.738-1.876-1.118-2.851-.666-.642.309-1.26.808-1.545 1.497-.357 1.379.262 2.733.808 3.968 1.664 3.518 2.401 7.487 1.902 11.361-.333 2.638-1.284 5.228-2.71 7.486-.38.546-.736 1.116-1.069 1.688 1.378 1.187 2.543 2.613 3.945 3.778 3.137-3.232 6.368-6.392 9.553-9.601v64.38l-.143.053c-.58.222-1.213.565-1.806.279-.855-.546-1.497-1.354-2.21-2.043-7.7-7.653-15.329-15.377-23.052-23.005-3.066 3.066-6.083 6.155-9.198 9.15 1.641 1.853 3.471 3.493 5.182 5.275 6.179 6.18 12.357 12.359 18.561 18.537.522.547 1.14 1.023 1.425 1.736.095.784-.451 1.449-.665 2.162-.309.832.357 1.83 1.236 1.853.784.144 1.45-.38 1.949-.902 2.899-2.924 5.821-5.822 8.721-8.722v107.538H119.287c2.757-2.756 5.514-5.49 8.271-8.247a15855.75 15855.75 0 0 1-28.115-28.114c-3.065 2.947-6.012 6.013-9.054 8.983-.642.666-1.355 1.307-1.663 2.21-.143.879.665 1.711 1.52 1.759.761-.095 1.402-.595 2.163-.761.665-.046 1.189.476 1.663.904 5.562 5.608 11.147 11.17 16.732 16.755 1.401 1.472 2.923 2.803 4.229 4.325.595.665.191 1.52-.142 2.186H50.559l15.185-15.186c.95-.903 1.925-1.948 2.067-3.327.214-1.592-1.401-3.185-2.994-2.852-1.331.261-2.423 1.307-3.802 1.307-.879-.071-1.545-.713-2.139-1.283-12.097-12.073-24.169-24.169-36.242-36.243-.808-.807-1.782-1.591-2.068-2.757-.047-1.377.927-2.495 1.284-3.754.451-1.592-1.046-3.328-2.663-3.208-1.116.071-2.114.712-2.874 1.497-5.229 5.3-10.552 10.528-15.781 15.828V.834H168.24c2.855.004 5.708.011 8.56.023zm-53.71 186.82c-3.493-2.306-7.7-3.826-11.93-3.47-3.779.237-7.344 2.115-9.958 4.801.428.95 1.378 1.52 2.068 2.281.736-.428 1.521-.879 2.4-.784 1.616.118 2.852 1.283 3.945 2.352l16.041 16.042c.975.974 1.95 2.139 2.187 3.565.142.951-.357 1.807-.784 2.614.708.733 1.43 1.454 2.163 2.162 3.184-3.16 4.942-7.675 4.872-12.143-.025-3.921-1.45-7.724-3.78-10.837-1.948-2.638-4.491-4.753-7.224-6.583zm-78.558-53.048l-.153.004c-.998.071-1.925.594-2.638 1.283-5.918 5.965-11.883 11.883-17.824 17.848-.832.807-1.782 1.663-2.091 2.851-.618 1.688 1.022 3.732 2.828 3.423 1.402-.262 2.567-1.427 4.064-1.331 1.092.262 1.83 1.188 2.614 1.925 5.133 5.109 10.195 10.243 15.353 15.304 0 .096-.025.309-.025.405a180.625 180.625 0 0 0-5.656 5.656c1.284 1.307 2.567 2.59 3.85 3.873 1.902-1.829 3.732-3.755 5.633-5.585.309-.332.594.144.808.31 5.442 5.465 10.932 10.908 16.398 16.398.546.617 1.236 1.283 1.284 2.162-.025 1.474-1.212 2.615-1.356 4.04-.118 1.451 1.213 2.805 2.639 2.757 1.164 0 2.162-.689 2.97-1.473l18.418-18.419c.737-.76 1.331-1.734 1.379-2.804.071-1.568-1.498-2.994-3.066-2.685-1.307.309-2.377 1.33-3.755 1.33-.808-.071-1.449-.617-2.02-1.164l-36.598-36.598c-.761-.761-1.712-1.569-1.807-2.709.048-1.308.927-2.377 1.283-3.589.453-1.593-1.045-3.304-2.685-3.208zm80.459 30.565c-3.279 3.304-6.606 6.56-9.887 9.887-.759.713-1.044 2.139-.046 2.78 1.164.832 2.257-.713 3.469-.474 1.212.713 2.068 1.853 3.089 2.803l17.325 17.326c.713.736 1.545 1.402 2.021 2.329.142 1.093-1.022 1.972-.666 3.09.19.665.927.879 1.521 1.092.594-.261 1.236-.546 1.687-1.046 3.186-3.255 6.465-6.44 9.649-9.719-4.111-4.04-8.151-8.152-12.239-12.216-5.348-5.252-10.6-10.599-15.923-15.852zm30.752 10.03c-.594-.713-1.806-.594-2.305.166-.618.855.047 1.901.357 2.757 1.711 3.612 1.354 8.152-1.189 11.288.713.737 1.451 1.45 2.139 2.187 2.995-2.781 5.799-5.775 8.722-8.627-2.542-2.614-5.157-5.18-7.724-7.771zm-7.89-32.891a3370.301 3370.301 0 0 1-9.459 9.435c-.522.547-1.14 1.187-1.069 2.019-.047.761.666 1.403 1.403 1.474.95-.119 1.758-.975 2.78-.69.595.31 1.022.88 1.521 1.331a8207.186 8207.186 0 0 0 20.653 20.653c.95 1.021-.856 2.21-.191 3.327.451.903 1.83 1.307 2.567.499 3.35-3.304 6.654-6.654 10.004-9.958.571-.618 1.356-1.26 1.356-2.187.07-.688-.499-1.283-1.117-1.497-1.023-.19-1.83.809-2.853.713-.499-.095-.855-.522-1.235-.832-5.347-5.347-10.694-10.694-16.018-16.041-2.804-2.733-5.49-5.585-8.342-8.246zm-8.151 24.905c-1.022-.166-1.925.975-1.545 1.95.404 1.14 1.212 2.138 1.497 3.35.381 1.189.143 2.472-.38 3.589.761.736 1.498 1.497 2.258 2.258a5.104 5.104 0 0 1 4.586-.025c1.046.381 1.901 1.308 3.067 1.189.712-.071 1.045-.784 1.354-1.307-.333-1.188-1.379-1.901-2.186-2.733-2.472-2.519-4.992-4.99-7.487-7.51-.333-.333-.689-.642-1.164-.761zm-74.885-56.419c-2.448 2.971-4.515 6.298-5.822 9.934-1.853 4.944-2.186 10.41-1.141 15.566 1.544 7.772 5.918 14.736 11.336 20.415 5.87 6.108 13.213 11.122 21.555 12.953 5.49 1.211 11.336.878 16.565-1.141 3.469-1.355 6.725-3.28 9.53-5.728l-3.85-3.826c-1.402.523-2.9 1.046-4.421.808-1.711-.262-3.065-1.402-4.182-2.615-11.574-11.573-23.148-23.123-34.697-34.697-1.498-1.473-2.306-3.707-1.688-5.751.119-.76.736-1.473.499-2.234-1.188-1.26-2.472-2.447-3.684-3.684zm70.298 44.299c-2.876 2.734-5.633 5.609-8.46 8.39.737.713 1.449 1.449 2.162 2.185 1.331-.784 2.662-1.639 4.183-1.948 2.4-.618 4.92-.096 7.105.975.547.237 1.118.617 1.736.546.879-.38 1.782-1.64.927-2.472-2.543-2.566-5.11-5.109-7.653-7.676zm-41.542-54.161c-4.872-.998-10.005-.832-14.734.69-3.992 1.283-7.7 3.398-10.861 6.107 0 .071.024.214.024.285.95 1.046 1.996 1.973 2.947 2.994.309.239.617.832 1.093.57 1.188-.427 2.424-.878 3.684-.712 1.545.119 2.899.998 3.968 2.091 11.741 11.764 23.529 23.528 35.268 35.291 1.593 1.522 2.234 3.875 1.593 5.966-.12.617-.524 1.164-.524 1.806 1.189 1.331 2.543 2.543 3.779 3.85 2.875-3.422 5.158-7.391 6.418-11.693 1.282-4.349 1.472-9.007.617-13.451-1.545-8.103-6.108-15.376-11.835-21.175-5.847-6.012-13.166-10.86-21.437-12.619zm77.69 16.897c-2.377 2.71-3.969 6.156-4.255 9.768-.332 3.445.618 6.868 2.139 9.91-2.424-2.353-5.87-3.827-9.292-3.256-4.183.523-7.439 3.494-10.29 6.37.737.712 1.45 1.449 2.186 2.162.737-.428 1.521-.879 2.4-.785 1.497.095 2.615 1.212 3.66 2.187 1.78 1.776 3.556 3.558 5.324 5.347.855.903 1.83 1.758 2.281 2.947.381 1.164-.023 2.352-.642 3.351.737.712 1.474 1.45 2.187 2.163 1.973-2.02 3.969-4.112 5.252-6.678 1.308-2.614 1.497-5.728.666-8.509 1.758 2.068 3.873 3.851 6.179 5.324 3.184 1.996 6.939 3.351 10.765 3.185 3.945 0 7.676-1.736 10.671-4.207-.689-.76-1.426-1.473-2.14-2.187-.926.285-1.9.619-2.851.357-1.046-.285-1.759-1.141-2.495-1.854-6.275-6.25-12.501-12.524-18.775-18.774-.571-.57-1.117-1.212-1.259-2.021-.239-.902.166-1.805.427-2.661-.712-.713-1.45-1.426-2.138-2.139zm17.467-16.421c-1.783 1.805-3.588 3.588-5.372 5.37 1.83 2.02 3.851 3.874 5.752 5.846-1.568-.356-3.137-.736-4.753-.689-4.207-.214-8.318 1.521-11.478 4.23.713.713 1.449 1.451 2.186 2.139.76-.261 1.592-.499 2.423-.403.88.071 1.617.641 2.235 1.259 6.25 6.251 12.501 12.5 18.774 18.75.784.785 1.664 1.593 1.901 2.734.214.879-.213 1.734-.333 2.614.595.808 1.403 1.449 2.092 2.162 2.543-3.042 4.278-6.891 4.254-10.908.095-4.23-1.592-8.27-3.992-11.669a30.553 30.553 0 0 0-7.724-7.51c.214-.57.428-1.211.119-1.782-.571-1.188-1.498-2.162-2.139-3.303-1.235-1.997-2.044-4.349-1.735-6.725-.737-.713-1.426-1.474-2.21-2.115zm-77.855-1.094c.95 1.117 2.043 2.067 3.042 3.113 6.464 6.488 12.928 12.929 19.368 19.393 1.711 2.067 3.256 4.467 3.637 7.177.261 1.616-.357 3.184-.809 4.729-.475 1.522 1.07 3.184 2.638 2.947 1.094-.119 1.997-.855 2.781-1.568 2.955-2.9 5.886-5.823 8.793-8.77.879-.903 1.711-1.996 1.782-3.303a2.665 2.665 0 0 0-1.639-2.234c-.903-.285-1.83.047-2.686.332-1.687.595-3.589.595-5.276-.047a16.91 16.91 0 0 1-6.369-4.23c-3.255-3.256-6.512-6.488-9.743-9.768-.286-.261-.595-.522-.927-.689-3.851-1.877-7.652-3.802-11.479-5.656-1.022-.523-2.02-1.07-3.113-1.426zm33.628-60.174c.308-1.616-1.356-3.16-2.947-2.923-.904.119-1.711.594-2.353 1.236-5.87 5.846-11.693 11.716-17.587 17.562 4.683 8.912 9.602 17.705 14.283 26.617l.333-.047c-.142.166-.261.332-.404.499-.262-.285-.57-.499-.855-.712-8.913-4.35-17.825-8.604-26.712-12.953-5.704 5.657-11.384 11.36-17.088 17.039-.618.619-1.212 1.332-1.449 2.187-.357 1.26.451 2.639 1.616 3.161.973.309 2.019-.071 2.804-.689.76-.546 1.473-1.403 2.519-1.259 3.137.38 5.894 1.996 8.674 3.374 17.634 8.721 35.268 17.516 52.926 26.213.618-.642 1.236-1.284 1.877-1.877a6.08 6.08 0 0 0-.38-.784c-8.817-16.374-17.705-32.702-26.522-49.076 10.67 10.647 21.317 21.318 31.988 31.964.523.571 1.069 1.212 1.14 1.996.048 1.664-1.497 2.9-1.33 4.564.166 1.26 1.401 2.352 2.686 2.281 1.164 0 2.162-.713 2.946-1.497 6.107-6.084 12.191-12.216 18.3-18.3.736-.736 1.378-1.663 1.472-2.732.191-1.569-1.354-3.113-2.922-2.853-1.355.239-2.448 1.308-3.874 1.308-.951 0-1.616-.784-2.282-1.379-12.096-12.144-24.24-24.24-36.385-36.36-.688-.738-1.544-1.451-1.782-2.495-.094-1.499 1.094-2.639 1.308-4.065zM36.299 77.857c-2.638 2.638-5.252 5.276-7.914 7.89-.261.285-.475.57-.713.879 7.605 7.511 15.115 15.115 22.696 22.648.38.428.927.832.879 1.474 0 .761-.594 1.379-.642 2.139-.071.714.642 1.427 1.379 1.355.665.047 1.236-.404 1.688-.855 3.208-3.209 6.393-6.417 9.625-9.625.403-.429.76-.952.76-1.57.024-.902-.975-1.663-1.83-1.283-.856.31-1.901 1.046-2.686.167-2.78-2.685-5.466-5.467-8.223-8.199a4525.206 4525.206 0 0 1-15.019-15.02zM25.961 88.242c-1.734 1.593-3.327 3.327-5.038 4.944 2.591 2.614 5.204 5.18 7.795 7.795.38.356.784.855 1.378.855 1.046.119 2.068-.974 1.758-2.02-.285-.784-.831-1.425-1.283-2.115-1.545-2.163-2.851-4.753-2.471-7.51-.713-.618-1.259-1.616-2.139-1.949zm32.083-29.207c-.332-.808-1.401-1.094-2.115-.641-.404.237-.713.546-1.045.855-3.067 3.089-6.156 6.179-9.245 9.269-.499.499-1.022 1.092-.951 1.83.024.688.642 1.33 1.355 1.306.832-.094 1.545-.736 2.4-.689.785.285 1.284.975 1.877 1.521 6.207 6.23 12.426 12.45 18.657 18.656.285.309.545.641.665 1.045.048.927-.808 1.665-.665 2.615.094.807 1.021 1.283 1.782 1.069.689-.214 1.188-.784 1.687-1.26 3.066-3.113 6.179-6.178 9.269-9.292.713-.618.998-1.924.166-2.59-1.283-.951-2.805 1.259-3.992-.024-6.583-6.559-13.143-13.141-19.726-19.725-.309-.333-.713-.689-.689-1.188.024-.951.903-1.783.57-2.757zm148.7 24.383c-1.782 1.782-3.541 3.589-5.371 5.348.642.831 1.402 1.568 2.187 2.281 2.946-.499 5.727 1.021 8.08 2.638.879.594 1.758 1.497 2.899 1.331 1.236-.191 1.901-1.949.975-2.829-2.9-2.946-5.823-5.87-8.77-8.769zM71.424 45.916c-.095-.76-.95-1.187-1.64-1.045-.689.166-1.212.689-1.687 1.188-3.114 3.137-6.274 6.226-9.387 9.387-.737.665-1.023 1.95-.119 2.591 1.117.903 2.234-.737 3.398-.356.642.38 1.117.95 1.664 1.472 2.542 2.543 5.085 5.111 7.653 7.629-1.046 1.023-2.069 2.068-3.114 3.09.665.736 1.378 1.426 2.091 2.115a191.478 191.478 0 0 0 3.09-3.089c2.923 2.875 5.799 5.798 8.698 8.674.309.332.642.642.879 1.045.262 1.046-.855 1.902-.618 2.948.167.451.547.807.998.998.809.19 1.522-.38 2.068-.927 3.089-3.066 6.179-6.155 9.269-9.245.428-.451.927-.927 1.045-1.569.285-.855-.546-1.83-1.449-1.734-.738.166-1.379.665-2.139.736-.618-.142-1.069-.641-1.497-1.046-6.346-6.321-12.667-12.667-19.013-19.011-.38-.428-.903-.88-.807-1.522.166-.807.784-1.497.617-2.329zm93.16-32.13c-.214-.357-.594-.142-.808.095-5.727 5.751-11.478 11.502-17.229 17.254-.928.95-1.498 2.495-.88 3.778.451.736 1.188 1.449 2.092 1.426 1.568.166 2.732-1.26 4.277-1.283 1.046-.072 1.806.76 2.495 1.425 12.287 12.288 24.55 24.574 36.837 36.836.594.643 1.307 1.331 1.259 2.258-.024 1.474-1.259 2.591-1.307 4.04-.119 1.474 1.331 2.782 2.781 2.662 1.045-.071 1.972-.665 2.733-1.378 5.8-5.82 11.607-11.635 17.42-17.444a49489.376 49489.376 0 0 0-49.67-49.669zM42.977 71.179c-1.426 1.402-2.804 2.828-4.23 4.207-.285.285-.595.546-.784.927.57.712 1.283 1.331 1.925 1.996 2.233-.262 4.42.475 6.297 1.639 1.118.618 2.044 1.545 3.209 2.068 1.165.523 2.495-.76 2.209-1.925-.237-.618-.759-1.046-1.187-1.521-2.496-2.448-4.943-4.966-7.439-7.391zm38.31-38.358c-3.018 3.114-6.108 6.132-9.15 9.198-.404.404-.737.903-.784 1.473-.095.738.57 1.45 1.283 1.522.927-.048 1.664-.904 2.614-.69.689.357 1.165.998 1.735 1.521 6.2 6.222 12.41 12.434 18.632 18.633.405.427.903.973.618 1.591-.238.832-1.069 1.83-.309 2.638.618.88 1.901.57 2.543-.142 3.123-3.088 6.228-6.193 9.316-9.316-5.419-5.371-10.789-10.79-16.184-16.161-3.446-3.398-6.821-6.892-10.314-10.267zm28.922 9.459c-.57-.665-1.782-.57-2.21.214-.499.761.071 1.64.333 2.401.927 1.996 1.283 4.277.879 6.44-.214 1.568-1.046 2.923-1.83 4.254.475.832 1.308 1.402 1.926 2.115 2.742-2.7 5.467-5.417 8.174-8.151-2.423-2.425-4.872-4.849-7.272-7.273zm-15.295-7.521l-.152.012c-.832.119-1.378 1.069-1.07 1.853.38 1.141 1.236 2.092 1.426 3.327.262 1.094-.023 2.21-.333 3.256.713.642 1.403 1.355 2.092 2.044 1.307-.713 2.923-.665 4.254-.048.903.333 1.663 1.117 2.662 1.117.76.072 1.473-.641 1.378-1.378-.048-.737-.69-1.188-1.141-1.687-2.591-2.543-5.157-5.134-7.723-7.7-.428-.405-.927-.879-1.545-.784zm95.17-17.599c-1.069-.142-1.972.666-2.447 1.545-.452 1.235.071 2.567.736 3.636 1.308 2.163 2.354 4.635 2.187 7.224-.072 1.142-.571 2.164-.951 3.233 1.236 1.45 2.733 2.709 4.04 4.111 1.118-.499 2.305-.998 3.541-.974 2.401-.119 4.682.832 6.703 2.02.95.523 1.948 1.117 3.041 1.093 1.307-.143 2.543-1.355 2.424-2.709-.214-1.307-1.283-2.162-2.186-3.042-4.76-4.755-9.512-9.516-14.26-14.283-.784-.785-1.64-1.758-2.828-1.854zm-99.339 6.203c-2.566 2.686-5.275 5.229-7.843 7.938.666.618 1.26 1.331 1.973 1.901.713-.119 1.26-.689 1.926-.974 2.566-1.378 5.751-1.236 8.317.023.665.238 1.307.737 2.044.642.879-.309 1.592-1.592.808-2.353-2.401-2.4-4.777-4.801-7.225-7.177z"/></svg>