<svg xmlns="http://www.w3.org/2000/svg" viewBox="0 0 109 31"><g fill="#44536B" fill-rule="evenodd"><path d="M22.387 17.471H19.04c.14-.348.07-.836-.209-1.395l-1.884-3.139-3.14-5.512s-1.185-2.232-2.929-3.557c1.116.419 15.208 8.65 15.208 8.65 2.303 1.396 4.325 4.883-3.698 4.953zm-10.603 8.86c-2.303 1.326-6.419 1.326-2.442-5.65.697-1.187 1.674-2.93 1.674-2.93.28.348.698.557 1.326.557h10.045s2.513.07 4.536-.766c-.907.697-15.14 8.79-15.14 8.79zM6.97 7.076c0-2.65 2.093-6.209 6.14.698a194.06 194.06 0 0 0 1.674 2.93c-.42.07-.768.35-1.117.908l-1.814 3.209-3.209 5.44S7.32 22.425 7.04 24.659C6.9 23.4 6.97 7.076 6.97 7.076zM14.993.52a14.827 14.827 0 0 0-14.86 14.86c0 8.231 6.628 14.93 14.86 14.93s14.93-6.699 14.93-14.93c0-8.232-6.698-14.86-14.93-14.86zM40.945 27.308h3.767V16.844h2.024c5.301 0 12.348-.42 12.348-6.488 0-6.14-6.627-6.628-11.93-6.628H36.55v.628c3.768.418 4.395.977 4.395 3.139v19.813zm3.767-19.813c0-2.093.21-2.372 3.768-2.372 3.906 0 6.278 1.744 6.278 5.233 0 4.534-4.046 5.162-8.162 5.162h-1.884V7.495zM63.13 7.914c0-2.86-.629-3.07-4.396-3.558v-.628h8.79l13.743 19.185h.07V3.728h2.303v23.58h-3.35L65.5 6.798h-.069v20.51H63.13V7.914zM108.337 26.68c-2.093.559-4.116.977-8.233.977-8.232 0-12.697-5.79-12.697-12.906 0-6.348 2.651-11.371 11.65-11.371 6.628 0 9 2.79 9.28 5.162h-4.256c-.209-1.116-.977-3.558-5.302-3.558-4.674 0-7.116 3.489-7.116 8.86 0 4.954 1.256 12.279 10.883 12.279 2.581 0 5.302-.768 5.79-.907v1.464z"/><path fill-rule="nonzero" d="M27.004 28.633h.256c.267 0 .437-.146.437-.368 0-.25-.182-.36-.446-.363-.121 0-.207.012-.247.024v.707zm-.25-.882c.126-.026.307-.041.48-.041.267 0 .44.05.56.159a.481.481 0 0 1 .153.367.51.51 0 0 1-.365.495v.009c.149.051.238.19.284.39.063.27.11.458.15.532h-.26c-.032-.057-.074-.221-.129-.462-.057-.268-.161-.368-.388-.377h-.235v.84h-.25V27.75z"/><path fill-rule="nonzero" d="M25.956 28.697a1.37 1.37 0 0 0 2.736 0 1.37 1.37 0 0 0-1.368-1.366 1.37 1.37 0 0 0-1.368 1.366zm-.24 0a1.609 1.609 0 1 1 1.608 1.61c-.889 0-1.608-.72-1.608-1.61z"/></g></svg>