<svg viewBox="0 0 100 53" xmlns="http://www.w3.org/2000/svg"><defs><linearGradient x1="50%" y1="-20.341%" x2="50%" y2="100%" id="a"><stop stop-color="#FF958C" offset="0%"/><stop stop-color="#ED2E26" offset="100%"/></linearGradient></defs><g fill="none" fill-rule="evenodd"><path fill="url(#a)" d="M0 24.95l49.935 25.159 49.935-25.16L49.898 0z"/><path fill="#BE0A00" d="M49.935 50.116L0 24.958v2.622l49.898 24.926L99.87 27.58v-2.622z"/><path d="M49.935 35.73v2.46s10.525-2.553 15.179-6.97c0 0 1.772-1.598 2.223-3.26 0 0 .655-2.33.444-5.395 0 0-.57 4.774-4.037 7.057 0 0-4.245 3.53-13.809 6.109" fill="#BC2222"/><path d="M49.935 35.73v2.46s-10.525-2.553-15.179-6.97c0 0-1.771-1.598-2.223-3.26 0 0-.655-2.33-.444-5.395 0 0 .57 4.774 4.038 7.057 0 0 4.245 3.53 13.808 6.109" fill="#A52121"/><path d="M49.935 14.517c11.912 0 17.459 3.083 17.459 3.083s.977 5.36-.173 8.357c0 0-1.548 5.469-17.286 9.776-15.737-4.307-17.286-9.776-17.286-9.776-1.15-2.998-.173-8.357-.173-8.357s5.547-3.083 17.46-3.083" fill="#ED2E26"/><path d="M52.775 27.848s1.85.516 5.205.673c0 0 2.745-.894 4.06-2.723 0 0 2.197-2.461-.495-5.09 0 0-1.64-1.956-5.805-2.945 0 0-2.787-.83-7.014-.673 0 0-4.122.137-7.246 1.525 0 0-4.555 1.65-4.565 4.964 0 0-.114 1.966 1.873 3.533 0 0 2.02 1.893 6.31 3.04 0 0 1.8.557 4.802 1.05 0 0 3.295.495 5.378.642 0 0 2.176-.704 3.838-1.809 0 0-4.522-.294-7.183-.725 0 0-3.849-.526-6.383-1.493 0 0-3.218-1.063-4.08-2.945 0 0-1.451-2.682 2.629-4.522 0 0 2.273-1.136 5.8-1.136 0 0 3.286-.168 6.21 1.304 0 0 2.472 1.166 2.472 3.05 0 0 .272 2.387-5.806 4.28" fill="#F6F9FB"/></g></svg>