<?xml version="1.0" encoding="UTF-8"?>
<svg id="Layer_2" data-name="Layer 2" xmlns="http://www.w3.org/2000/svg" viewBox="0 0 1462.5 311.62">
  <defs>
    <style>
      .cls-1 {
        fill: #ed2e26;
      }

      .cls-2 {
        fill: #fff;
      }
    </style>
  </defs>
  <g id="Artwork">
    <g id="Copy">
      <g>
        <g id="QSC_Logos" data-name="QSC Logos">
          <path class="cls-1" d="M118.11,0c76.92,0,115.6,41.16,115.6,41.16,0,0,4.42,30.46,1.6,91.8-4.27,92.65-117.18,148.29-117.19,148.3,0,0-112.92-55.65-117.18-148.3C-1.89,71.62,2.54,41.16,2.54,41.16,2.54,41.16,41.18,0,118.11,0Z"/>
          <path class="cls-2" d="M103.41,185.55c18.68,9.8,46.55,16.98,75.99,20.77-4.89,7.29-17.96,19.75-25.6,23.98-35.26-5.78-66.22-17.99-87.39-36.29-22.64-19.57-34.61-45.1-34.61-73.85,0-47.6,38.72-86.32,86.32-86.32s86.32,38.72,86.32,86.32c0,26.29-12.3,50.42-32.47,66.03-13.81-1.27-28.24-5.18-34.78-8.92,16.85-10.75,38.72-31.68,38.72-57.11,0-31.86-25.92-57.78-57.78-57.78s-57.73,26.65-57.73,59.41c0,27.33,14.47,48.78,43.03,63.76h0Zm212.61,15.7c29.9,0,50.94-17.26,50.94-41.68v-.42c0-22.31-14.32-35.36-48-42.52-32-6.74-37.89-14.32-37.89-26.52v-.42c0-12.63,11.78-21.47,29.05-21.47,14.74,0,27.79,4.63,40.42,15.16l1.27,.84,11.37-15.16-1.27-.84c-16-12.63-31.15-18.1-51.79-18.1-28.21,0-48.84,17.26-48.84,40.84v.42c0,26.52,19.79,36.63,49.68,42.95,30.32,6.32,36.21,13.89,36.21,25.69v.84c0,13.47-12.21,22.73-30.32,22.73s-32.84-5.47-48.42-19.79l-1.27-1.27-12.21,14.32,1.27,.84c17.68,16,36.63,23.58,59.78,23.58m140.2,.42c29.05,0,45.89-13.05,58.94-25.69l1.27-1.27-13.05-12.63-1.27,1.27c-12.63,12.21-25.27,20.21-45.47,20.21-30.32,0-54.31-25.69-54.31-58.11v-.42c0-32.84,23.58-57.68,54.31-57.68,16.84,0,29.9,5.9,44.21,19.37l1.27,1.27,13.47-14.32-1.27-1.27c-12.63-11.78-28.63-23.16-57.26-23.16-41.68,0-74.52,33.68-74.52,76.21v.42c0,43.37,31.57,75.79,73.68,75.79"/>
        </g>
        <g id="City-Date-Outline">
          <g>
            <path class="cls-2" d="M592.27,52.15h10.78V187.29h85.19v9.95h-95.96V52.15h0Z"/>
            <path class="cls-2" d="M691.95,166.57v-.41c0-21.97,18.86-34.41,46.22-34.41,14.72,0,24.87,1.87,35.02,4.56v-4.56c0-21.35-13.06-32.33-34.82-32.33-12.85,0-23.42,3.52-33.16,8.49l-3.73-8.92c11.61-5.39,23.01-9.12,37.52-9.12s25.71,3.94,33.37,11.61c7.05,7.05,10.78,16.79,10.78,29.85v65.91h-9.95v-17.62c-7.26,10.15-20.32,20.1-40.42,20.1s-40.83-11.19-40.83-33.16h0Zm81.46-8.91v-12.02c-8.92-2.28-20.73-4.76-35.86-4.76-22.39,0-34.82,9.95-34.82,24.67v.41c0,15.34,14.51,24.25,30.67,24.25,21.55,0,40-13.27,40-32.54h0Z"/>
            <path class="cls-2" d="M792.52,183.97l6.01-8.08c11.61,8.92,24.46,13.88,37.93,13.88,14.3,0,25.49-7.87,25.49-20.11v-.41c0-12.44-13.27-17-27.98-21.14-17.2-4.98-36.27-10.15-36.27-29.02v-.41c0-17,14.3-29.22,34.82-29.22,12.65,0,26.94,4.56,37.52,11.61l-5.39,8.49c-9.74-6.42-21.35-10.57-32.54-10.57-14.51,0-24.05,7.87-24.05,18.45v.41c0,11.81,14.3,16.16,29.43,20.52,17,4.76,34.82,10.99,34.82,29.64v.41c0,18.86-16.17,30.88-36.48,30.88-15.34,0-32.13-6.22-43.32-15.34h.02Z"/>
            <path class="cls-2" d="M932.22,52.15h12.02l56.79,133.48,57-133.48h11.4l-63.83,146.12h-9.53l-63.83-146.12h0Z"/>
            <path class="cls-2" d="M1058.98,144.6v-.41c0-30.67,21.55-55.13,50.16-55.13s48.5,24.05,48.5,55.34c0,1.87,0,2.48-.21,4.14h-87.67c1.87,26.32,20.73,41.66,41.46,41.66,16.38,0,27.56-7.26,36.27-16.58l7.05,6.22c-10.78,11.61-23.42,19.89-43.73,19.89-27.77,0-51.82-22.18-51.82-55.13h0Zm87.67-5.17c-1.45-21.35-13.68-41.03-37.93-41.03-20.93,0-37.1,17.62-38.96,41.03h76.89Z"/>
            <path class="cls-2" d="M1169.17,214.65l6.01-8.29c12.65,9.74,27.15,14.92,42.69,14.92,24.25,0,41.46-13.88,41.46-41.03v-15.34c-9.12,13.06-23.21,24.46-44.15,24.46-25.49,0-50.78-19.48-50.78-49.74v-.41c0-30.47,25.28-50.16,50.78-50.16,21.14,0,35.45,11.19,44.15,23.62v-21.14h10.15v89.33c0,15.34-4.98,27.36-13.47,35.86-9.12,9.12-22.8,14.09-38.34,14.09-17.62,0-33.99-5.39-48.5-16.16v-.02Zm90.79-75.23v-.41c0-24.46-21.76-40.21-43.73-40.21s-40.83,15.34-40.83,40v.41c0,23.83,19.07,40.42,40.83,40.42s43.73-16.16,43.73-40.21Z"/>
            <path class="cls-2" d="M1282.13,166.57v-.41c0-21.97,18.86-34.41,46.22-34.41,14.72,0,24.87,1.87,35.02,4.56v-4.56c0-21.35-13.06-32.33-34.82-32.33-12.85,0-23.42,3.52-33.16,8.49l-3.73-8.92c11.61-5.39,23.01-9.12,37.52-9.12s25.7,3.94,33.37,11.61c7.05,7.05,10.78,16.79,10.78,29.85v65.91h-9.95v-17.62c-7.26,10.15-20.32,20.1-40.42,20.1s-40.83-11.19-40.83-33.16h0Zm81.46-8.91v-12.02c-8.92-2.28-20.73-4.76-35.86-4.76-22.39,0-34.82,9.95-34.82,24.67v.41c0,15.34,14.51,24.25,30.67,24.25,21.55,0,40-13.27,40-32.54h0Z"/>
            <path class="cls-2" d="M1382.72,183.97l6.01-8.08c11.61,8.92,24.46,13.88,37.93,13.88,14.3,0,25.49-7.87,25.49-20.11v-.41c0-12.44-13.27-17-27.98-21.14-17.2-4.98-36.27-10.15-36.27-29.02v-.41c0-17,14.3-29.22,34.82-29.22,12.65,0,26.94,4.56,37.52,11.61l-5.39,8.49c-9.74-6.42-21.35-10.57-32.54-10.57-14.51,0-24.05,7.87-24.05,18.45v.41c0,11.81,14.3,16.16,29.43,20.52,17,4.76,34.82,10.99,34.82,29.64v.41c0,18.86-16.17,30.88-36.48,30.88-15.34,0-32.13-6.22-43.32-15.34h.02Z"/>
          </g>
          <g>
            <path class="cls-2" d="M591.54,249.07h8.43l27.72,35.78v-35.78h8.94v51.75h-7.61l-28.54-36.82v36.82h-8.94v-51.75Z"/>
            <path class="cls-2" d="M646.1,281.52v-.15c0-11.17,8.87-20.4,20.85-20.4s20.77,9.09,20.77,20.26v.15c0,11.09-8.87,20.33-20.92,20.33s-20.7-9.09-20.7-20.18h0Zm32.68,0v-.15c0-6.87-4.95-12.57-11.98-12.57s-11.76,5.62-11.76,12.42v.15c0,6.8,4.95,12.5,11.91,12.5s11.83-5.62,11.83-12.35h0Z"/>
            <path class="cls-2" d="M690.22,261.79h9.61l10.5,28.69,10.58-28.69h9.38l-15.97,39.33h-8.06l-16.04-39.33h0Z"/>
            <path class="cls-2" d="M788.02,277.16c-2.89,3.4-6.87,5.47-12.2,5.47-11.02,0-18.34-6.43-18.34-16.42v-.15c0-10.12,7.84-17.89,19.29-17.89,6.51,0,10.72,1.85,14.42,5.54,3.77,3.77,6.21,9.46,6.21,19.67v.15c0,16.63-8.2,28.16-22.18,28.16-7.17,0-12.2-2.59-16.56-6.21l4.95-6.95c3.92,3.25,7.39,4.88,11.83,4.88,9.09,0,12.42-9.38,12.57-16.27h0Zm-.37-11.46v-.15c0-5.4-4.22-9.46-10.79-9.46s-10.28,4.22-10.28,9.61v.15c0,5.32,4.14,9.17,10.58,9.17s10.5-4.28,10.5-9.32h0Z"/>
            <path class="cls-2" d="M805.1,273.91h30.75v8.5h-30.75v-8.5Z"/>
            <path class="cls-2" d="M847.31,257.94l-9.32,2.59-1.92-7.4,13.97-4.43h6.28v52.12h-9.02v-42.88h0Z"/>
            <path class="cls-2" d="M866.97,275.09v-.15c0-14.78,9.02-26.77,22.62-26.77s22.47,11.83,22.47,26.62v.15c0,14.78-9.02,26.77-22.62,26.77s-22.47-11.83-22.47-26.62Zm35.71,0v-.15c0-10.2-5.25-18.55-13.24-18.55s-13.09,8.2-13.09,18.41v.15c0,10.2,5.18,18.55,13.24,18.55s13.09-8.28,13.09-18.41Z"/>
            <path class="cls-2" d="M916.65,307.77c4.51-.89,6.66-3.18,6.36-6.95h-3.84v-10.2h9.83v8.65c0,8.2-3.92,11.68-11.38,12.35l-.97-3.84h0Z"/>
            <path class="cls-2" d="M958.49,293.65l17.81-15.16c7.02-6.07,9.68-9.32,9.68-13.97,0-5.02-3.62-8.06-8.35-8.06s-7.99,2.59-11.91,7.76l-6.51-5.1c4.95-6.87,9.83-10.79,19.08-10.79,10.13,0,17.08,6.21,17.08,15.45v.15c0,8.2-4.28,12.57-13.45,20.03l-10.65,8.87h24.62v7.99h-37.41v-7.17h0Z"/>
            <path class="cls-2" d="M1003.72,275.09v-.15c0-14.78,9.02-26.77,22.62-26.77s22.47,11.83,22.47,26.62v.15c0,14.78-9.02,26.77-22.62,26.77s-22.47-11.83-22.47-26.62Zm35.71,0v-.15c0-10.2-5.25-18.55-13.24-18.55s-13.09,8.2-13.09,18.41v.15c0,10.2,5.18,18.55,13.24,18.55s13.09-8.28,13.09-18.41Z"/>
            <path class="cls-2" d="M1055.25,293.65l17.81-15.16c7.02-6.07,9.68-9.32,9.68-13.97,0-5.02-3.62-8.06-8.35-8.06s-7.99,2.59-11.91,7.76l-6.51-5.1c4.95-6.87,9.83-10.79,19.08-10.79,10.13,0,17.08,6.21,17.08,15.45v.15c0,8.2-4.28,12.57-13.45,20.03l-10.65,8.87h24.62v7.99h-37.41v-7.17h0Z"/>
            <path class="cls-2" d="M1099.9,293.65l17.81-15.16c7.02-6.07,9.68-9.32,9.68-13.97,0-5.02-3.62-8.06-8.35-8.06s-7.99,2.59-11.91,7.76l-6.51-5.1c4.95-6.87,9.83-10.79,19.08-10.79,10.13,0,17.08,6.21,17.08,15.45v.15c0,8.2-4.28,12.57-13.45,20.03l-10.65,8.87h24.62v7.99h-37.41v-7.17h0Z"/>
          </g>
        </g>
      </g>
    </g>
  </g>
</svg>