<svg id="Layer_2" xmlns="http://www.w3.org/2000/svg" xmlns:xlink="http://www.w3.org/1999/xlink" viewBox="0 0 941.79 402.14"><defs><linearGradient id="linear-gradient" x1="301.66" y1="-211.36" x2="339.91" y2="441.75" gradientUnits="userSpaceOnUse"><stop offset=".02" stop-color="#043471"/><stop offset=".71" stop-color="#043471" stop-opacity="0"/></linearGradient><linearGradient id="linear-gradient-2" x1="471.32" y1=".59" x2="471.32" y2="373.98" gradientUnits="userSpaceOnUse"><stop offset=".01" stop-color="#043471" stop-opacity=".7"/><stop offset=".84" stop-color="#043471" stop-opacity="0"/></linearGradient><symbol id="VMDR_Live" viewBox="0 0 651.29 265.77"><use width="-32766" height="-32766" transform="matrix(.46 0 0 .46 7816.25 7602.81)" xlink:href="#VMDR_2.0"/><path fill="url(#linear-gradient)" d="M532.22 126.94l119.07 138.83H93.93L2.04 165.45 47.31 2.1l33.74 123.68h45.37l20.77 23.51L192.46 2.1l53.55 91.06 13.86-91.12 49.05 70.35 74.93-70.35 15.82 88.45 44.81-50.12 35.63 24.97-35.63 35.7 35.63 25.9h52.11z"/><path class="cls-7" d="M2.04 2.1h45.27v123.68h79.11v39.67H2.04V2.1zM147.19 2.1h45.27v163.35h-45.27V2.1z"/><path class="cls-4" d="M194.5 167.49h-49.36V.05h49.36v167.44zm-45.27-4.09h41.18V4.14h-41.18V163.4z"/><path class="cls-7" d="M399.67 2.1h131.38v38.27h-86.58v24.97h86.58v35.7h-86.58v25.9h87.74v38.5H399.66V2.1zM209.45 2.04h50.42l37.1 103.41L334.35 2.04h49.5l-66.31 164.57h-42.06L209.45 2.04z"/><path class="cls-4" d="M318.92 168.66H274.1L206.43 0h54.88l35.67 99.42L332.91 0h53.96l-67.95 168.66zm-42.06-4.09h39.3L380.82 4.09h-45.04l-38.82 107.4-38.53-107.4h-45.96l64.39 160.48zM49.36 123.73V.05H0v167.44h128.47v-43.76H49.36zm75.02 39.67H4.09V4.14h41.18v121.44c.06 1.23 1.05 2.2 2.29 2.24h76.82v35.58zM531.91 124.9h-85.39v-21.82h84.27c1.27-.04 2.3-1.07 2.3-2.35V65.6c-.04-1.27-1.07-2.3-2.35-2.3h-84.23V42.42h84.28a2.368 2.368 0 002.3-2.34V.05v2.31a2.359 2.359 0 00-2.36-2.3H399.92c-1.28.04-2.3 1.07-2.3 2.36v162.77c.04 1.28 1.07 2.3 2.36 2.3h131.97c1.28-.04 2.3-1.07 2.3-2.36V127.2c-.04-1.27-1.07-2.3-2.35-2.3zm-1.73 38.5H401.72V4.14h127.29v34.18h-84.29a2.365 2.365 0 00-2.28 2.34v24.45a2.359 2.359 0 002.32 2.27h84.26V99h-84.31a2.355 2.355 0 00-2.26 2.31v25.43a2.365 2.365 0 002.33 2.25h85.42v34.42z"/></symbol><style>.cls-1{fill:none}.cls-3{fill:#f4f6f8}.cls-4{fill:#b5d0e5}.cls-5{fill:#1e7bc1}.cls-6{fill:#43a5ed}.cls-7{fill:#2e8be0}</style></defs><g id="Artwork"><path fill="url(#linear-gradient-2)" d="M310.58 373.98L18.84 66.39l1.94-24.76L.85 19.24 56.08 1.01l12.19 13.94 47.82-4.82 6.25 6.93 55.24-16.05 14.8 17.22L212.22.59l30.82 34.81L259.7 1.01l36.94 36.27 13.67-25.79 37.19-2.37 8.29 9.11 15.54-17.22 32.14 36.89 25.05-28.64 32.73 2.54 13.55 14.95 16.34-25.74 20.73 23.89 17.8-23.89 9.94 11.44 51.59-.54 350.59 358.24-631.21 3.83z"/><path class="cls-1" d="M205.13 35.4l-3.47-8.46-3.47 8.46h6.94zM103.92 36.81c0-10.14-7.44-18.59-17.91-18.59-3.34 0-6.35.84-8.9 2.32-1.67 2.86-2.61 6.24-2.61 9.87v.17c0 10.14 7.44 18.59 17.91 18.59 3.34 0 6.35-.84 8.9-2.32 1.67-2.86 2.61-6.24 2.61-9.87v-.17zM566.66 48.41c3.56 0 6.73-.81 9.38-2.27 1.43-2.6 2.22-5.7 2.22-9.16v-.17c0-10.48-7.18-17.83-17.83-17.83h-3.83v29.43h10.05zM418.89 30.59c0 10.14 7.44 18.59 17.91 18.59 3.34 0 6.35-.84 8.9-2.32 1.67-2.86 2.61-6.24 2.61-9.87v-.17c0-10.14-7.44-18.59-17.91-18.59-3.34 0-6.35.84-8.9 2.32-1.67 2.86-2.61 6.24-2.61 9.87v.17z"/><path class="cls-5" d="M38.08 19.24h-6.23V66.39l6.23-6.23V19.24zM101.32 46.86c-2.56 1.47-5.57 2.32-8.9 2.32-10.48 0-17.91-8.45-17.91-18.59v-.17c0-3.63.93-7.01 2.61-9.87-5.46 3.15-8.84 9.19-8.84 16.1v.17c0 10.14 7.44 18.59 17.91 18.59 6.73 0 12.13-3.42 15.13-8.55zM159.58 19.24h-6.23V66.39l6.23-6.23V19.24zM205.13 35.4h-6.94l3.47-8.46-1.84-4.49-7.86 19.18h15.72l-2.55-6.23zM185.02 58.75l-.57 1.41-2.54 6.23 6.23-6.23 2.87-7.04h-3.69l-2.3 5.63zM289.19 48.33H259.7V1.01l-6.23 6.23v47.32h29.49l6.23-6.23zM307.61 30.59v-.17c0-3.69.96-7.14 2.65-10.03-5.43 3.1-8.88 9.23-8.88 16.26v.17c0 10.14 7.01 18.59 17.15 18.59 6.76 0 10.9-2.7 15.55-6.93l6.23-6.23c-4.65 4.22-8.79 6.93-15.55 6.93-10.14 0-17.15-8.45-17.15-18.59zM371.99 48.33V1.01l-6.23 6.23v47.32h29.49l6.02-6.02c-.03-.07-.05-.14-.08-.21h-29.2zM418.89 30.59v-.17c0-3.63.93-7.01 2.61-9.87-5.46 3.15-8.84 9.19-8.84 16.1v.17c0 10.14 7.44 18.59 17.91 18.59 6.73 0 12.13-3.42 15.13-8.55-2.56 1.47-5.57 2.32-8.9 2.32-10.48 0-17.91-8.45-17.91-18.59zM491.8 34.47V1.01l-6.23 6.23V40.7c0 9.63 4.82 14.62 12.76 14.62 5.6 0 9.64-2.41 11.54-7.12-1.56.59-3.34.89-5.31.89-7.94 0-12.76-4.98-12.76-14.62zM566.66 48.41h-10.05V18.99h-6.23v35.65h10.05c7.13 0 12.7-3.22 15.61-8.5-2.65 1.46-5.82 2.27-9.38 2.27z"/><path class="cls-6" d="M49.85 13.01v6.23l6.23-6.23v-12h-49L.85 7.24h49v5.77zM113.42 52.19c-.56.96-1.16 1.89-1.82 2.77-.88 1.19-1.86 2.32-2.91 3.37l6.15-6.14c5.6-5.55 8.92-13.2 8.92-21.61v-.17c0-16.81-13.1-30.42-31.35-30.42-9.28 0-17.26 3.56-22.88 9.27l-5.85 5.84c.98-.96 2.03-1.86 3.14-2.68.47-.35.94-.68 1.43-1 4.99-3.28 11.11-5.2 17.93-5.2 18.25 0 31.35 13.6 31.35 30.42v.17c0 5.6-1.48 10.85-4.11 15.38zM171.35 7.24v12l6.23-6.23v-12h-49.01l-6.23 6.23H171.35zM436.8 0c-9.29 0-17.28 3.57-22.9 9.3l-5.85 5.84a30.203 30.203 0 015.46-4.25c4.83-2.95 10.63-4.66 17.05-4.66 18.25 0 31.35 13.6 31.35 30.42v.17c0 5.81-1.58 11.25-4.4 15.89-.47.78-.98 1.54-1.53 2.27-.63.84-1.3 1.66-2.01 2.43l4.71-4.7c5.92-5.58 9.46-13.44 9.46-22.12v-.17c0-16.81-13.1-30.42-31.35-30.42zM598.09 30.42c0-16.64-12.84-29.4-31.43-29.4h-23.07l-6.23 6.23h23.07c18.59 0 31.43 12.76 31.43 29.4v.17c0 5.34-1.33 10.3-3.74 14.57-.53.94-1.11 1.84-1.74 2.7-.97 1.34-2.05 2.59-3.25 3.74l6.45-6.45c5.39-5.29 8.52-12.59 8.52-20.8v-.17zM63.27 15.54c.05-.06.11-.11.16-.17l-.17.17zM200.22 6.82h5.77l20.67 48.58 2.03 4.76 2.65 6.23 6.23-6.23L212.22.59h-12l-6.23 6.23h6.23zM289.19 48.33l-6.23 6.23v11.83l6.23-6.23V48.33zM511.09 7.24h13.01v33.38c0 5.74-1.04 10.54-2.96 14.41a21.046 21.046 0 01-3.54 5.13l5.3-5.31c4.76-4.43 7.43-11.23 7.43-20.46V1.01h-13.01l-6.23 6.23zM472.56 7.24H485.57l6.23-6.23h-13.01l-6.23 6.23zM395.25 54.56v11.83l6.23-6.23V49.05l-.21-.51-6.02 6.02zM352.75 7.24H365.76l6.23-6.23h-13.01l-6.23 6.23zM259.7 1.01h-13.01l-6.23 6.23h13.01l6.23-6.23zM333.66 24.9l6.23-6.23 8.28-9.55C342.68 3.71 336 0 324.85 0c-9.25 0-17.07 3.58-22.52 9.3l-5.68 5.67c1.02-1.02 2.12-1.96 3.29-2.82.57-.42 1.15-.81 1.75-1.19 4.74-2.99 10.49-4.73 16.94-4.73 11.15 0 17.83 3.72 23.32 9.12l-2.52 2.9-5.76 6.64zM334.08 48.47l7.82 7.9.46.46 3.9-3.9c.79-.74 1.57-1.51 2.33-2.33l-8.28-8.36-6.23 6.23z"/><path class="cls-3" d="M18.84 66.39h13.01V19.24h18v-12h-49v12h17.99v47.15zM117.53 36.65c0-16.81-13.1-30.42-31.35-30.42-6.81 0-12.93 1.92-17.93 5.2-.49.32-.96.65-1.43 1a31.03 31.03 0 00-3.14 2.68l-.25.25c-.06.06-.11.11-.16.17-5.41 5.52-8.6 13.03-8.6 21.28v.17c0 16.81 13.1 30.42 31.35 30.42 9.17 0 17.07-3.48 22.67-9.06 1.05-1.05 2.03-2.18 2.91-3.37.66-.89 1.26-1.82 1.82-2.77 2.63-4.53 4.11-9.78 4.11-15.38v-.17zm-49.26 0c0-6.91 3.38-12.95 8.84-16.1 2.56-1.47 5.57-2.32 8.9-2.32 10.48 0 17.91 8.45 17.91 18.59v.17c0 3.63-.93 7.01-2.61 9.87-3.01 5.13-8.41 8.55-15.13 8.55-10.48 0-17.91-8.45-17.91-18.59v-.17zM140.34 66.39h13.01V19.24h18v-12H122.34v12h18v47.15zM191.01 53.12h21.32l5.41 13.27h13.6l-2.65-6.23-2.02-4.75-20.68-48.59h-12l-25.35 59.57h13.26l2.54-6.23.58-1.41 2.29-5.62H191zm8.81-30.67l1.84 4.49 3.47 8.46 2.55 6.23h-15.72l7.86-19.18zM282.96 60.16v-5.6h-29.49V7.24H240.46v59.15h42.5v-6.23zM334.08 48.47c-4.65 4.22-8.79 6.93-15.55 6.93-10.14 0-17.15-8.45-17.15-18.59v-.17c0-7.02 3.45-13.15 8.88-16.26 2.41-1.38 5.21-2.16 8.27-2.16 5.91 0 10.56 2.53 15.12 6.67l5.76-6.64 2.52-2.9c-5.49-5.41-12.17-9.12-23.32-9.12-6.45 0-12.2 1.74-16.94 4.73-.6.38-1.18.77-1.75 1.19-1.17.86-2.27 1.81-3.29 2.82-5.59 5.56-8.86 13.31-8.86 21.85v.17c0 16.98 12.93 30.42 30.33 30.42 11.41 0 18.17-4.06 24.25-10.56l-.46-.46-7.82-7.9zM365.76 7.24H352.75v59.15h42.5V54.56h-29.49V7.24zM430.57 6.23c-6.42 0-12.23 1.71-17.05 4.66a30.378 30.378 0 00-5.46 4.25c-5.65 5.55-9 13.23-9 21.68v.17c0 4.01.75 7.84 2.14 11.34.03.07.05.14.08.21l.21.51c4.59 10.8 15.32 18.36 28.92 18.36 9.67 0 17.93-3.87 23.57-10 .71-.78 1.38-1.59 2.01-2.43.54-.73 1.05-1.49 1.53-2.27 2.82-4.64 4.4-10.08 4.4-15.89v-.17c0-16.81-13.1-30.42-31.35-30.42zm-9.07 14.32c2.56-1.47 5.57-2.32 8.9-2.32 10.48 0 17.91 8.45 17.91 18.59v.17c0 3.63-.93 7.01-2.61 9.87-3.01 5.13-8.41 8.55-15.13 8.55-10.48 0-17.91-8.45-17.91-18.59v-.17c0-6.91 3.38-12.95 8.84-16.1zM511.09 7.24v33.88c0 2.76-.43 5.11-1.22 7.08-1.9 4.71-5.93 7.12-11.54 7.12-7.94 0-12.76-4.98-12.76-14.62V7.24h-13.01v33.8c0 17.41 9.72 26.28 25.6 26.28 8.25 0 14.92-2.37 19.43-7.16.87-.93 1.67-1.94 2.37-3.05.42-.66.81-1.36 1.17-2.08 1.93-3.88 2.96-8.67 2.96-14.41V7.24h-13.01zM560.43 7.24h-23.07v59.14h23.07c9.3 0 17.16-3.24 22.7-8.56a28.11 28.11 0 003.25-3.74c.63-.87 1.21-1.77 1.74-2.7 2.41-4.27 3.74-9.23 3.74-14.57v-.17c0-16.64-12.84-29.4-31.43-29.4zm-10.05 11.74h10.05c10.65 0 17.83 7.35 17.83 17.83v.17c0 3.46-.79 6.56-2.22 9.16-2.91 5.27-8.48 8.5-15.61 8.5h-10.05V18.99z"/><use width="651.29" height="265.77" transform="matrix(1.12 0 0 1.12 0 103.24)" xlink:href="#VMDR_Live"/></g></svg>