<?xml version="1.0" encoding="utf-8"?>
<!-- Generator: Adobe Illustrator 23.0.1, SVG Export Plug-In . SVG Version: 6.00 Build 0)  -->
<svg version="1.1" id="Layer_1" xmlns="http://www.w3.org/2000/svg" xmlns:xlink="http://www.w3.org/1999/xlink" x="0px" y="0px"
	 viewBox="0 0 56 44" style="enable-background:new 0 0 56 44;" xml:space="preserve">
<style type="text/css">
	.st0{fill:#9DA3A8;}
</style>
<path class="st0" d="M25.8,40.9c7.2-1.3,13.1-2.3,13.2-2.3l0.1,0l-6.8-8c-3.7-4.4-6.8-8.1-6.8-8.1c0,0,7-19.3,7-19.4
	c0,0,4.8,8.2,11.5,19.9l11.6,20.1l0.1,0.2l-21.5,0l-21.5,0L25.8,40.9L25.8,40.9z M0,38.5c0,0,3.2-5.5,7.1-12.3l7.1-12.3l8.3-6.9
	c2.8-2.3,5.5-4.6,8.3-6.9c0,0,0,0.1-0.1,0.3l-9,19.2l-8.8,18.9l-6.4,0C2.9,38.5,0,38.5,0,38.5"/>
</svg>
