<svg xmlns="http://www.w3.org/2000/svg" width="56" height="44"><path d="M25.81 40.906c7.169-1.267 13.089-2.314 13.157-2.328l.124-.026-6.767-8.05c-3.722-4.427-6.767-8.067-6.767-8.088 0-.039 6.987-19.282 7.026-19.35.014-.024 4.769 8.186 11.528 19.901L55.704 43.06l.088.155-21.507-.003-21.507-.003 13.033-2.302zM0 38.451c0-.01 3.188-5.546 7.086-12.3l7.086-12.28 8.258-6.93A3268.97 3268.97 0 0 1 30.715 0c.015-.007-.045.144-.133.333l-8.967 19.233-8.807 18.89-6.404.007c-3.522.005-6.404 0-6.404-.013" fill="#BAC4CB"/></svg>