<svg xmlns="http://www.w3.org/2000/svg" width="1216" height="516" viewBox="0 0 1216 516">
  <g fill="none" fill-rule="evenodd" transform="translate(6)">
    <path stroke="#1A1919" stroke-width="8" d="M43.708,183.745 L82.761,220.961 L133.761,203.502 M295.489,184.664 L259.192,220.961 L208.192,203.502 M255.762,426.177 L321.964,18.533"/>
    <polyline fill="#1A1919" points="325.41 .854 331.555 70.035 295.962 64.342 325.41 .854"/>
    <path stroke="#1A1919" stroke-width="8" d="M143.869,308.257 C143.563,343.33 143.257,378.401 142.95,413.473 C141.919,425.361 131.468,438.151 114.923,433.229 M202.219,308.257 C202.525,343.33 202.832,378.401 203.138,413.473 C204.169,425.361 214.62,438.151 231.165,433.229"/>
    <path fill="#FFFFFE" d="M171.436,69.8 C199.344,69.8 221.976,92.432 221.976,120.34 C221.976,136.274 214.593,150.483 203.068,159.747 L237.598,309.636 L108.031,309.636 L141.484,161.042 C129.001,151.838 120.896,137.036 120.896,120.34 C120.896,92.432 143.528,69.8 171.436,69.8 Z"/>
    <path stroke="#1A1919" stroke-width="8" d="M171.436,69.8 C199.344,69.8 221.976,92.432 221.976,120.34 C221.976,136.274 214.593,150.483 203.068,159.747 L237.598,309.636 L108.031,309.636 L141.484,161.042 C129.001,151.838 120.896,137.036 120.896,120.34 C120.896,92.432 143.528,69.8 171.436,69.8 Z"/>
    <polygon fill="#D8232A" points="35.6 152.549 70.356 244.393 .519 244.393"/>
    <polygon stroke="#1A1919" stroke-width="7.999" points="35.6 152.549 70.356 244.393 .519 244.393"/>
    <path fill="#D8232A" d="M396.823,216.169 L339.53,207.361 C345.999,187.078 357.165,172.066 372.951,162.324 C388.737,152.583 412.225,147.712 443.336,147.712 C471.598,147.712 492.698,150.581 506.56,156.386 C520.344,162.191 530.124,169.53 535.745,178.471 C541.367,187.412 544.216,203.758 544.216,227.645 L543.292,291.697 C543.292,309.912 544.293,323.39 546.295,332.064 C548.297,340.738 552.071,350.012 557.615,359.887 L494.777,359.887 C493.16,356.284 491.081,350.946 488.694,343.873 C487.693,340.604 486.922,338.469 486.46,337.468 C475.679,346.676 464.128,353.548 451.807,358.152 C439.486,362.756 426.395,365.091 412.456,365.091 C387.891,365.091 368.485,359.286 354.315,347.677 C340.146,336.134 333.061,321.455 333.061,303.707 C333.061,292.031 336.296,281.556 342.764,272.348 C349.233,263.207 358.243,256.135 369.948,251.264 C381.576,246.393 398.364,242.123 420.311,238.454 C449.882,233.65 470.443,229.112 481.84,224.976 L481.84,219.438 C481.84,208.762 478.837,201.156 472.83,196.552 C466.746,192.015 455.349,189.747 438.639,189.747 C427.318,189.747 418.54,191.682 412.225,195.618 C405.833,199.488 400.751,206.36 396.823,216.169 Z M481.84,260.605 C473.754,262.94 460.894,265.743 443.259,269.012 C425.702,272.281 414.15,275.484 408.76,278.553 C400.52,283.691 396.361,290.096 396.361,297.902 C396.361,305.642 399.673,312.247 406.296,317.852 C412.918,323.457 421.312,326.259 431.554,326.259 C442.951,326.259 453.886,322.99 464.282,316.518 C471.906,311.514 476.988,305.509 479.376,298.303 C480.993,293.632 481.84,284.692 481.84,271.548 L481.84,260.605 Z M815.514,213.767 L753.138,223.375 C751.059,212.632 746.284,204.559 738.815,199.088 C731.344,193.684 721.719,190.948 709.859,190.948 C694.073,190.948 681.444,195.685 672.049,205.16 C662.654,214.634 657.956,230.447 657.956,252.665 C657.956,277.352 662.731,294.766 672.28,304.975 C681.829,315.183 694.612,320.254 710.629,320.254 C722.643,320.254 732.5,317.252 740.124,311.313 C747.824,305.375 753.215,295.167 756.372,280.622 L818.748,289.829 C812.279,314.649 799.881,333.398 781.554,346.075 C763.226,358.753 738.661,365.091 707.78,365.091 C672.819,365.091 644.865,355.483 624.073,336.334 C603.204,317.118 592.808,290.563 592.808,256.602 C592.808,222.24 603.281,195.552 624.15,176.403 C645.019,157.254 673.281,147.712 708.935,147.712 C738.044,147.712 761.224,153.183 778.473,164.059 C795.646,174.935 807.967,191.482 815.514,213.767 Z M861.795,152.116 L920.937,152.116 L920.937,182.608 C928.638,172.199 938.957,163.792 952.048,157.32 C965.14,150.915 979.694,147.712 995.635,147.712 C1023.434,147.712 1047.076,157.187 1066.481,176.136 C1085.887,195.018 1095.59,221.44 1095.59,255.2 C1095.59,289.963 1085.811,316.918 1066.251,336.201 C1046.69,355.483 1022.972,365.091 995.095,365.091 C981.85,365.091 969.837,362.823 959.056,358.219 C948.352,353.681 936.955,345.875 925.096,334.8 L925.096,438.752 L861.795,438.752 L861.795,152.116 Z M924.172,252.799 C924.172,276.218 929.485,293.499 940.189,304.708 C950.816,315.851 963.831,321.455 979.078,321.455 C993.786,321.455 1006.031,316.317 1015.811,306.043 C1025.591,295.767 1030.442,278.954 1030.442,255.534 C1030.442,233.65 1025.437,217.436 1015.349,206.828 C1005.338,196.219 992.862,190.948 978,190.948 C962.521,190.948 949.661,196.152 939.496,206.561 C929.254,216.969 924.172,232.382 924.172,252.799 Z M1145.876,359.887 L1209.177,359.887 L1209.177,73.251 L1145.876,73.251 L1145.876,359.887 Z"/>
    <path fill="#1A1919" d="M188.738,503.031 L178.615,469.533 L184.553,469.533 L189.9,488.864 L191.793,496.061 C191.868,495.706 192.449,493.403 193.525,489.155 L198.828,469.533 L204.648,469.533 L209.693,488.982 L211.339,495.361 L213.264,488.896 L219.052,469.533 L224.57,469.533 L214.06,503.031 L208.187,503.031 L202.873,482.99 L201.528,477.257 L194.751,503.031 L188.738,503.031 Z M284.664,503.031 L274.542,469.533 L280.48,469.533 L285.826,488.864 L287.719,496.061 C287.794,495.706 288.375,493.403 289.451,489.155 L294.754,469.533 L300.574,469.533 L305.619,488.982 L307.265,495.361 L309.191,488.896 L314.979,469.533 L320.497,469.533 L309.987,503.031 L304.113,503.031 L298.799,482.99 L297.455,477.257 L290.677,503.031 L284.664,503.031 Z M380.59,503.031 L370.468,469.533 L376.406,469.533 L381.752,488.864 L383.646,496.061 C383.721,495.706 384.302,493.403 385.378,489.155 L390.681,469.533 L396.5,469.533 L401.546,488.982 L403.192,495.361 L405.117,488.896 L410.905,469.533 L416.423,469.533 L405.913,503.031 L400.04,503.031 L394.726,482.99 L393.381,477.257 L386.604,503.031 L380.59,503.031 Z M468.546,503.031 L475,503.031 L475,496.577 L468.546,496.577 L468.546,503.031 Z M556.059,498.836 C553.951,500.632 551.918,501.891 549.971,502.633 C548.024,503.376 545.936,503.741 543.699,503.741 C540.02,503.741 537.191,502.849 535.212,501.052 C533.232,499.266 532.242,496.975 532.242,494.189 C532.242,492.554 532.619,491.059 533.361,489.703 C534.114,488.348 535.093,487.272 536.298,486.454 C537.514,485.637 538.869,485.013 540.386,484.593 C541.505,484.303 543.194,484.023 545.442,483.743 C550.025,483.205 553.413,482.55 555.575,481.796 C555.597,481.022 555.608,480.527 555.608,480.323 C555.608,478.02 555.07,476.396 553.994,475.45 C552.542,474.169 550.379,473.535 547.518,473.535 C544.839,473.535 542.86,474.008 541.591,474.944 C540.311,475.88 539.375,477.536 538.761,479.924 L533.211,479.15 C533.716,476.773 534.545,474.847 535.706,473.384 C536.868,471.921 538.546,470.802 540.741,470.006 C542.925,469.221 545.474,468.823 548.357,468.823 C551.219,468.823 553.553,469.156 555.349,469.834 C557.135,470.512 558.458,471.351 559.297,472.373 C560.136,473.395 560.728,474.686 561.072,476.245 C561.255,477.214 561.352,478.956 561.352,481.463 L561.352,488.993 C561.352,494.253 561.47,497.577 561.707,498.987 C561.933,500.396 562.406,501.741 563.095,503.031 L557.157,503.031 C556.586,501.837 556.221,500.439 556.059,498.836 Z M555.608,486.25 C553.542,487.089 550.444,487.799 546.313,488.38 C543.968,488.713 542.311,489.09 541.343,489.509 C540.375,489.929 539.633,490.542 539.106,491.338 C538.579,492.145 538.31,493.038 538.31,494.027 C538.31,495.523 538.88,496.781 540.031,497.782 C541.182,498.782 542.86,499.288 545.065,499.288 C547.249,499.288 549.196,498.814 550.906,497.857 C552.606,496.91 553.865,495.609 554.661,493.963 C555.274,492.683 555.575,490.8 555.575,488.315 L555.608,486.25 Z M641.271,490.768 L646.822,491.542 C646.209,495.361 644.66,498.341 642.153,500.503 C639.647,502.666 636.56,503.741 632.913,503.741 C628.341,503.741 624.662,502.246 621.886,499.256 C619.1,496.265 617.713,491.984 617.713,486.411 C617.713,482.797 618.315,479.645 619.509,476.934 C620.703,474.234 622.521,472.201 624.974,470.856 C627.416,469.501 630.073,468.823 632.956,468.823 C636.581,468.823 639.561,469.737 641.863,471.577 C644.176,473.416 645.66,476.03 646.306,479.408 L640.819,480.247 C640.292,477.999 639.367,476.31 638.022,475.17 C636.688,474.04 635.075,473.47 633.181,473.47 C630.32,473.47 627.997,474.492 626.2,476.536 C624.414,478.591 623.522,481.818 623.522,486.25 C623.522,490.746 624.382,494.006 626.103,496.039 C627.835,498.072 630.083,499.094 632.848,499.094 C635.086,499.094 636.947,498.416 638.431,497.05 C639.927,495.695 640.873,493.597 641.271,490.768 Z M700.977,515.876 L700.977,469.533 L706.141,469.533 L706.141,473.932 C707.356,472.233 708.734,470.953 710.272,470.103 C711.799,469.253 713.66,468.823 715.844,468.823 C718.706,468.823 721.223,469.554 723.406,471.028 C725.59,472.491 727.236,474.567 728.355,477.235 C729.463,479.914 730.022,482.84 730.022,486.035 C730.022,489.445 729.409,492.522 728.183,495.265 C726.956,497.997 725.171,500.095 722.826,501.558 C720.491,503.01 718.028,503.741 715.446,503.741 C713.553,503.741 711.853,503.343 710.358,502.547 C708.852,501.751 707.625,500.751 706.657,499.535 L706.657,515.876 L700.977,515.876 Z M706.141,486.487 C706.141,490.779 707.012,493.952 708.744,496.007 C710.487,498.062 712.595,499.094 715.07,499.094 C717.587,499.094 719.738,498.029 721.524,495.899 C723.32,493.769 724.214,490.477 724.214,486.013 C724.214,481.753 723.342,478.569 721.588,476.45 C719.835,474.331 717.748,473.277 715.317,473.277 C712.907,473.277 710.777,474.406 708.927,476.654 C707.066,478.914 706.141,482.184 706.141,486.487 Z M786.06,503.031 L791.74,503.031 L791.74,456.817 L786.06,456.817 L786.06,503.031 Z M851.457,503.031 L857.911,503.031 L857.911,496.577 L851.457,496.577 L851.457,503.031 Z M938.971,490.768 L944.522,491.542 C943.909,495.361 942.359,498.341 939.853,500.503 C937.346,502.666 934.259,503.741 930.612,503.741 C926.041,503.741 922.362,502.246 919.586,499.256 C916.8,496.265 915.412,491.984 915.412,486.411 C915.412,482.797 916.014,479.645 917.209,476.934 C918.403,474.234 920.221,472.201 922.673,470.856 C925.115,469.501 927.773,468.823 930.655,468.823 C934.281,468.823 937.26,469.737 939.563,471.577 C941.875,473.416 943.36,476.03 944.005,479.408 L938.519,480.247 C937.992,477.999 937.067,476.31 935.722,475.17 C934.388,474.04 932.775,473.47 930.881,473.47 C928.02,473.47 925.696,474.492 923.9,476.536 C922.114,478.591 921.221,481.818 921.221,486.25 C921.221,490.746 922.082,494.006 923.803,496.039 C925.535,498.072 927.783,499.094 930.548,499.094 C932.785,499.094 934.647,498.416 936.131,497.05 C937.626,495.695 938.573,493.597 938.971,490.768 Z M996.547,486.282 C996.547,480.097 998.268,475.514 1001.721,472.534 C1004.594,470.06 1008.111,468.823 1012.253,468.823 C1016.846,468.823 1020.611,470.329 1023.537,473.341 C1026.453,476.342 1027.916,480.505 1027.916,485.809 C1027.916,490.112 1027.27,493.49 1025.979,495.953 C1024.689,498.416 1022.806,500.331 1020.332,501.698 C1017.868,503.064 1015.168,503.741 1012.253,503.741 C1007.562,503.741 1003.776,502.246 1000.882,499.245 C997.989,496.244 996.547,491.919 996.547,486.282 Z M1002.356,486.293 C1002.356,490.574 1003.292,493.78 1005.164,495.899 C1007.047,498.029 1009.402,499.094 1012.253,499.094 C1015.071,499.094 1017.416,498.029 1019.299,495.889 C1021.171,493.748 1022.107,490.488 1022.107,486.11 C1022.107,481.979 1021.16,478.849 1019.277,476.73 C1017.395,474.599 1015.05,473.535 1012.253,473.535 C1009.402,473.535 1007.047,474.589 1005.164,476.708 C1003.292,478.827 1002.356,482.022 1002.356,486.293 Z M1083.889,503.031 L1083.889,469.533 L1088.988,469.533 L1088.988,474.266 C1090.031,472.631 1091.43,471.308 1093.173,470.318 C1094.915,469.318 1096.895,468.823 1099.121,468.823 C1101.596,468.823 1103.629,469.339 1105.21,470.361 C1106.792,471.394 1107.91,472.824 1108.556,474.675 C1111.224,470.77 1114.677,468.823 1118.937,468.823 C1122.271,468.823 1124.842,469.737 1126.628,471.577 C1128.424,473.416 1129.328,476.245 1129.328,480.064 L1129.328,503.031 L1123.648,503.031 L1123.648,481.947 C1123.648,479.688 1123.454,478.053 1123.089,477.052 C1122.723,476.052 1122.056,475.256 1121.077,474.643 C1120.109,474.029 1118.969,473.728 1117.667,473.728 C1115.301,473.728 1113.343,474.513 1111.783,476.073 C1110.223,477.644 1109.448,480.15 1109.448,483.593 L1109.448,503.031 L1103.769,503.031 L1103.769,481.291 C1103.769,478.773 1103.306,476.88 1102.381,475.622 C1101.456,474.363 1099.939,473.728 1097.841,473.728 C1096.249,473.728 1094.775,474.148 1093.42,474.987 C1092.064,475.826 1091.086,477.052 1090.472,478.677 C1089.87,480.29 1089.569,482.625 1089.569,485.669 L1089.569,503.031 L1083.889,503.031 Z"/>
  </g>
</svg>
