<svg xmlns="http://www.w3.org/2000/svg" xmlns:xlink="http://www.w3.org/1999/xlink" width="2170" height="736"><defs><path id="a" d="M.06.65h2169.52v621.066H.06z"/></defs><g fill="none" fill-rule="evenodd"><path fill="#636463" d="M632.229 439.565c-68.683 8.362-111.089 23.295-111.089 81.814 0 41.816 25.087 59.728 67.488 59.728 16.724 0 32.848-3.582 43.601-8.959V439.565zM583.85 621.716c-87.79 0-131.391-35.831-131.391-97.941 0-84.804 81.815-109.29 179.77-118.846v-17.317c0-41.813-26.276-53.158-63.909-53.158-31.054 0-60.918 10.149-80.628 19.704l-16.717-41.803c20.905-10.159 59.722-24.488 110.491-24.488 66.292 0 118.852 28.068 118.852 111.091v199.466c-25.683 13.736-66.305 23.292-116.468 23.292zm236.323-437.475v434.957h-72.867V273.005s-9.804-88.764 72.867-88.764m472.637 149.611c-51.37 0-61.52 59.137-61.52 120.645 0 60.923 11.35 117.651 61.52 117.651 51.95 0 61.51-56.728 61.51-117.651 0-61.508-9.56-120.645-61.51-120.645m0 287.864c-90.19 0-133.79-71.66-133.79-166.629 0-96.14 43.6-167.215 133.79-167.215 90.77 0 133.78 71.075 133.78 167.215 0 94.969-43.6 166.629-133.78 166.629"/><path fill="#4BA3CF" d="M1534.11 621.124c-37.64 0-69.89-10.148-89-23.293l19.11-46.583c11.95 9.556 34.04 18.509 60.33 18.509 29.85 0 49.57-19.112 49.57-45.385 0-27.476-14.34-40.609-47.19-53.155-60.91-23.292-73.45-56.736-73.45-90.171 0-51.378 40.6-93.176 102.12-93.176 35.84 0 62.71 8.956 83.62 22.692l-17.93 42.401c-9.55-7.76-28.66-17.918-51.35-17.918-29.87 0-45.99 19.713-45.99 42.41 0 26.287 19.71 39.419 47.78 50.776 62.71 25.07 77.05 57.326 77.05 94.941 0 52.562-44.21 97.952-114.67 97.952m274.13-288.459c-42.4 0-71.66 34.641-69.87 111.68l133.19-20.307c0-65.091-23.3-91.373-63.32-91.373m-65.69 148.711c5.97 59.712 34.63 89.576 87.79 89.576 37.03 0 63.91-8.952 81.23-17.916l17.32 45.991c-22.7 12.54-57.33 22.689-106.31 22.689-91.38 0-149.32-59.124-149.32-167.815 0-105.12 53.16-166.031 137.38-166.031 85.4 0 131.99 56.731 129 164.837l-197.09 28.669"/><mask id="b" fill="#fff"><use xlink:href="#a"/></mask><path fill="#4BA3CF" d="M2093.74 621.716c-73.47 0-127.21-61.516-127.21-167.812 0-106.908 56.14-166.034 127.8-166.034 39.42 0 62.71 11.938 74.66 22.097l-15.54 41.209c-8.95-7.167-22.09-13.737-42.99-13.737-49.57 0-70.48 44.801-70.48 115.268 0 71.068 24.49 116.457 69.28 116.457 19.72 0 33.45-5.969 43.6-14.34l16.72 44.795c-13.13 11.948-37.03 22.097-75.84 22.097M212.095.65C94.954.65 0 95.604 0 212.737c0 26.724 4.986 52.267 14.004 75.823C1.127 144.298 155.587 52.932 221.826 51.697l.07-.081v253.385h-56.98v-41.978h-66.01c-1.95 0 5.868-27.979 9.029-27.979h56.981V126.919c-61.481 22.884-196.494 181.611-45.862 276.434 30.597 14.964 65.326 22.807 102.03 21.286 109.027-4.518 198.998-94.956 202.959-204.004C428.427 99.901 331.836.65 212.095.65" mask="url(#b)"/><path fill="#636463" d="M1050.31 566.179c-10.15 5.969-24.48 10.149-41.21 10.149-53.743 0-76.444-40.013-76.444-118.244 0-80.629 23.295-127.216 80.034-127.216 15.53 0 28.06 1.797 37.62 7.164v228.147zm70.49 46.663l-.01-301.677c-20.31-13.146-57.33-23.295-104.51-23.295-103.929 0-155.89 69.279-155.89 173.791 0 97.354 52.561 157.067 129.6 157.067 27.47 0 47.78-4.769 60.32-11.933l-.01 11.73s-.14 5.219-.19 5.807c-3.63 36.377-24.88 60.301-73.487 60.301-29.864 0-58.535-8.954-77.051-19.113l-20.296 47.78c23.288 13.736 63.897 22.7 109.883 22.7 74.261 0 124.351-38.039 131.191-112.222.08-.844.17-2.953.25-5.094.11-2.891.2-5.842.2-5.842z"/></g></svg>