<svg xmlns="http://www.w3.org/2000/svg" width="176" height="41"><path d="M5.85 2.092c0-.897.15-1.046 2.242-1.046 3.885 0 5.678 2.54 5.678 5.379 0 2.242-.897 3.587-1.793 4.184-1.046.897-2.39.897-3.586.897-1.794 0-2.242 0-2.39-.15-.15-.149-.15-.448-.15-1.046V2.092zm-2.839 15.69c0 3.586 0 4.034-2.092 4.333l-.747.149c-.299.15-.149.748 0 .748H8.69c.15 0 .3-.598 0-.748l-.747-.149C6 21.816 5.85 21.368 5.85 17.782v-4.334c0-.747.15-.896 1.644-.896s1.943.448 2.54 1.195c1.046 1.495 2.391 3.885 3.288 5.23 2.54 3.437 4.333 4.333 7.172 4.333.747 0 1.196 0 1.644-.149.15-.149 0-.448-.15-.448-.896-.149-1.793-.449-2.39-1.046-2.242-1.943-4.184-4.632-6.874-9.115-.149-.299-.448-.747-.149-.897 1.643-.747 4.333-2.54 4.333-5.827 0-2.391-1.345-3.885-2.989-4.782C12.425.149 10.333 0 8.241 0 4.804 0 2.413.149.471.299c-.299.149-.299.598 0 .896h1.046c1.494.299 1.494.897 1.494 4.184v12.403zm30.035 4.782c-5.828 0-7.92-5.679-7.92-10.012 0-6.575 4.035-8.667 7.023-8.667 5.68 0 7.92 5.379 7.92 10.161 0 5.828-3.437 8.518-7.023 8.518zm-.299.896c5.678 0 10.161-4.334 10.161-10.31 0-5.23-3.437-10.161-10.16-10.161-6.127 0-10.61 4.632-10.61 10.459 0 5.23 4.034 10.012 10.61 10.012zm18.977 0c-2.54 0-4.184-.747-4.632-1.196-.448-.597-.747-2.689-.897-4.034.15-.299.598-.299.748-.15.448 1.495 1.643 4.484 5.08 4.484 2.54 0 3.736-1.644 3.736-3.438 0-1.344-.299-2.689-2.39-4.183l-2.84-1.793c-1.494-.897-3.288-2.69-3.288-5.081 0-2.69 2.242-5.08 6.127-5.08.897 0 1.943.149 2.69.448.448.149.747.149 1.045.149.3.747.598 2.391.598 3.587-.149.149-.598.298-.747.149-.448-1.494-1.195-3.437-4.035-3.437-2.988 0-3.586 1.943-3.586 3.288 0 1.793 1.495 2.988 2.541 3.735l2.391 1.345c1.792 1.195 3.586 2.989 3.586 5.678 0 3.287-2.39 5.529-6.127 5.529M65.471 7.92c0-2.989 0-3.437-1.793-3.736h-.448c-.149-.149-.149-.747 0-.747h13c.3.448.448 2.54.598 3.885-.15.149-.598.299-.747 0-.449-1.345-.747-2.391-2.242-2.69-.597-.149-1.643-.149-2.988-.149H68.76c-.897 0-.897 0-.897 1.046v5.977c0 .747.15.747 1.046.747h1.644c1.345 0 2.241 0 2.54-.149.448-.15.598-.299.747-1.046l.3-1.196c0-.149.597-.149.746 0 0 .747-.149 1.943-.149 2.989 0 1.046.15 2.241.15 2.839-.15.299-.748.299-.897 0l-.15-1.046c-.149-.598-.299-1.046-.896-1.196-.449-.149-1.196-.149-2.39-.149h-1.645c-.896 0-1.046 0-1.046.747v4.184c0 1.644.15 2.69.598 3.138.3.299 1.046.598 3.586.598 2.242 0 3.138 0 3.736-.299.598-.299 1.345-1.345 2.092-2.989.298-.149.598 0 .747.299-.149 1.046-.897 3.287-1.345 4.035H62.782c-.299 0-.299-.598-.15-.748h1.046c1.644-.149 1.793-.597 1.793-3.735V7.92m13.45-3.885c-.15-.15-.15-.598.148-.598h6.276c.3 0 .3.448.15.598l-.748.149c-.597 0-.896.149-.896.448 0 .449.597 1.943 1.494 4.035 1.644 3.586 3.437 7.322 5.081 10.908.747-1.495 1.494-3.138 2.241-4.782.3-.448.448-1.046.448-1.195.15-.15 0-.299-.149-.747a147.111 147.111 0 0 0-3.288-7.023c-.448-.897-.896-1.644-1.793-1.644l-.747-.149c-.299-.15-.149-.598 0-.598h6.426c.15 0 .298.448 0 .598l-.748.149c-1.046 0-1.195.299-.597 1.644.597 1.345 1.494 3.287 2.241 5.08.598-1.195 1.195-2.241 1.793-3.885 1.046-2.54.897-2.839 0-2.839l-.896-.149c-.15-.299-.15-.598 0-.598h5.678c.15 0 .15.448 0 .598l-.747.149c-1.345 0-1.793 1.345-2.54 2.54-.598 1.196-1.794 3.736-2.242 4.782-.149.299-.299.598-.299.747l.3.598c.896 2.241 1.942 4.483 2.988 6.724.896-2.092 1.793-4.035 2.54-6.127.598-1.494 2.241-5.379 2.391-5.977.448-1.046.896-2.241.896-2.689 0-.299-.299-.598-.896-.598l-.897-.149c-.299-.15-.299-.598 0-.598H108.06c.298 0 .298.448.148.598l-.598.149c-1.494.149-1.792 1.046-3.436 5.08l-2.242 5.081c-1.195 2.989-2.39 5.827-3.586 8.965-.149.15-.299.15-.448.15-.15 0-.299 0-.448-.15-.897-2.54-2.54-6.275-3.587-8.367-1.046 2.092-2.839 5.977-3.586 8.367-.149.15-.299.15-.448.15-.15 0-.299 0-.448-.15-.449-1.195-1.644-3.884-1.943-4.781-1.943-4.035-3.736-8.069-5.678-12.253-.598-1.195-.897-1.943-2.092-2.092l-.747-.149m40.345 18.529c-5.828 0-7.92-5.679-7.92-10.012 0-6.575 4.035-8.667 7.023-8.667 5.678 0 7.92 5.379 7.92 10.161 0 5.828-3.437 8.518-7.023 8.518zm-.299.896c5.678 0 10.161-4.334 10.161-10.31 0-5.23-3.437-10.161-10.16-10.161-6.128 0-10.61 4.632-10.61 10.459 0 5.23 4.034 10.012 10.61 10.012zm23.908-.896c-5.828 0-7.92-5.679-7.92-10.012 0-6.575 4.035-8.667 7.024-8.667 5.678 0 7.92 5.379 7.92 10.161 0 5.828-3.438 8.518-7.024 8.518zm-.299.896c5.678 0 10.161-4.334 10.161-10.31 0-5.23-3.287-10.161-10.16-10.161-6.127 0-10.61 4.632-10.61 10.459 0 5.23 4.034 10.012 10.61 10.012zm17.782-16.437c0-1.345 0-2.092.3-2.241.298-.299 1.194-.449 2.987-.449 7.621 0 9.265 5.529 9.265 8.667 0 5.529-2.54 9.264-8.368 9.264-1.793 0-2.989-.298-3.586-1.195-.449-.747-.598-1.643-.598-3.287V7.023zm-2.39 11.506c0 3.138-.15 3.437-1.794 3.735h-.747c-.149.15 0 .748.15.748h3.735c.896 0 2.84.149 4.782.149 2.241 0 4.632-.299 6.574-1.345 3.288-1.942 5.081-5.08 5.081-8.816 0-3.885-1.943-7.322-5.977-8.667-1.793-.747-3.885-.896-6.426-.896-2.54 0-4.93 0-7.47.149-.3.15-.15.598 0 .747l.746.15c1.196.149 1.345.747 1.345 2.839v11.207zM7.941 33.023c0-.896 0-1.644-.149-1.793a1.144 1.144 0 0 0-.747-.299l-.299-.149c-.15 0-.15-.15 0-.15h3.437c.15 0 .15.15 0 .15l-.15.149c-.448 0-.597.15-.747.299-.149.149-.149.897-.149 1.793v1.644c0 .448 0 .448.597.448h4.483c.598 0 .747 0 .747-.448v-1.644c0-.896-.149-1.644-.298-1.793-.15-.149-.449-.299-.598-.299l-.299-.149c-.149 0-.149-.15 0-.15h3.437s.15.15 0 .15l-.299.149c-.15 0-.598.15-.747.299-.15.149-.15.897-.15 1.793v5.081c0 .896 0 1.643.15 1.942.15.15.597.15.747.15l.3.149c.148 0 .148.15 0 .15H13.77c-.149 0-.149-.15 0-.15l.3-.149c.298 0 .447 0 .597-.299.15-.15.298-.897.298-1.793v-2.092c0-.449-.149-.449-.747-.449H9.735c-.597 0-.597 0-.597.449v2.092c0 .896 0 1.643.15 1.793.15.299.447.299.746.299l.45.149v.15H6.895c-.149 0-.149-.15 0-.15h.15c.3-.149.597-.149.747-.448.15-.15.15-.897.15-1.793v-5.081m17.632-1.046c2.69 0 3.586 2.391 3.586 4.483 0 2.839-1.495 3.885-3.287 3.885-2.54 0-3.437-2.54-3.437-4.483 0-2.988 1.793-3.885 3.138-3.885zm.3-.299c-2.69 0-4.634 1.943-4.634 4.633 0 2.241 1.644 4.333 4.633 4.333 2.54 0 4.482-1.793 4.482-4.483 0-2.391-1.494-4.483-4.482-4.483zm14.493.15h.896c.15 0 .15-.15.3-.299h.15c-.15.598-.3 1.644-.15 1.942h-.3c-.149-.448-.149-.747-.298-.896-.449-.299-.897-.448-1.644-.448h-.897c-.299 0-.299 0-.299.597v5.679c0 .747 0 1.494.15 1.643.15.15.448.15.598.299h.448v.15h-3.586v-.15l.597-.149c.15 0 .45 0 .598-.15.15-.149.15-.896.15-1.643v-5.679c0-.597 0-.597-.449-.597h-.747c-.747 0-1.345.149-1.644.448-.299.299-.448.598-.597.896 0 0-.15 0-.299-.149.3-.448.448-1.345.597-1.793h.15c0 .149.15.149.3.299H40.367m5.827 2.092c0-.897 0-1.345-.149-1.494-.149-.15-.299-.299-.598-.299l-.149-.15c-.15 0-.15-.149 0-.149h5.678c0 .299.15 1.195.15 1.643 0 0-.15.15-.15 0-.149-.597-.448-1.045-1.046-1.195-.299 0-.747-.149-1.345-.149h-.747c-.448 0-.448.149-.448.149-.15.15-.15.448-.15 1.046v2.092c0 .299 0 .448.45.448h.746c.448 0 .896-.149 1.195-.149.15 0 .15-.15.3-.448l.15-.598s.148 0 .297.149c0 .15-.149.747-.149 1.196 0 .448.15 1.046.15 1.195-.15.15-.299.15-.299.15l-.15-.598c-.149-.299-.149-.448-.299-.448-.299-.15-.747-.15-1.195-.15h-.747c-.449 0-.449 0-.449.448v1.794c0 .597 0 1.195.3 1.494.15.149.298.299 1.494.299 1.494 0 2.092-.15 2.69-1.495h.298c-.149.449-.299 1.495-.598 1.794H45c-.149 0-.149-.15 0-.15l.448-.149c.3 0 .45-.15.598-.15.15-.299.15-.896.15-1.643V33.92m11.206 4.483c0 .597 0 1.195.3 1.494.15.149.298.299 1.493.299 1.495 0 1.943-.15 2.541-1.495h.15c0 .449-.3 1.495-.449 1.794H55.311c-.15 0-.15-.15 0-.15l.298-.149c.3 0 .598 0 .598-.15.15-.299.3-.896.3-1.643V33.92c0-.747-.15-1.345-.3-1.644 0-.149-.299-.149-.598-.149l-.298-.15c-.15 0-.15-.149 0-.149h3.137c.15 0 .15.149.15.149l-.299.15c-.299 0-.598 0-.747.149-.15.299-.15.897-.15 1.644v4.483m12.104-6.575h.448c.15.448.3 1.195.3 1.643h-.3c-.149-.597-.598-1.494-1.793-1.494-1.345 0-1.644 1.046-1.644 1.494 0 .897.748 1.345 1.196 1.644l1.195.747c.598.449 1.345 1.196 1.345 2.391 0 1.494-1.046 2.391-2.69 2.391-1.046 0-1.643-.299-1.942-.448-.15-.299-.299-1.046-.299-1.793h.15c.298.747.896 1.942 2.39 1.942 1.046 0 1.644-.747 1.644-1.644 0-.597-.15-1.195-1.196-1.793l-1.045-.747c-.897-.448-1.495-1.195-1.495-2.241 0-1.196.897-2.242 2.54-2.242.45 0 .897 0 1.196.15m12.253 3.885c.896.598 2.241 1.942 2.69 3.138-.449.598-1.196 1.195-2.242 1.195-1.195 0-1.943-1.046-1.943-2.092 0-.896.598-1.643 1.495-2.241zm.15 4.931c1.045 0 2.091-.747 2.69-1.494.298.149.597 1.046.895 1.195.15.15.748.299 1.345.299.747 0 1.495-.149 2.092-.897 0 0 0-.149-.149-.149-.299.299-.747.448-1.196.448-.597 0-1.195-.149-1.942-1.195a2.053 2.053 0 0 1-.448-.598c.747-1.046 1.344-1.793 1.494-2.241.448-.598.747-1.046.896-1.196.15-.149.3-.149.45-.299l.746-.149v-.149h-2.839c-.15.149-.15.149 0 .298h.448c.3 0 .3.15.3.15 0 .149 0 .448-.3.896-.299.748-.747 1.495-1.345 2.391-.747-1.345-1.644-2.092-2.39-2.689.448-.449 1.195-.897 1.195-1.644 0-.747-.747-1.494-1.644-1.494-.897 0-1.793.747-1.793 1.793 0 .597.448 1.195 1.046 1.494-1.046.747-2.092 1.644-2.092 2.839 0 1.196.747 2.391 2.54 2.391zm.447-5.678c-.597-.299-1.195-.747-1.195-1.495 0-.597.45-1.045.897-1.045.747 0 1.046.597 1.046 1.195 0 .448-.299 1.046-.748 1.345zm15.99-3.138c0-.449 0-.747.15-.747.148-.15.447-.15.895-.15 1.644 0 2.391 1.196 2.391 2.391s-.299 1.644-.747 1.943c-.448.298-1.046.448-1.644.448-.598 0-.896-.15-.896-.15-.15 0-.15-.149-.15-.448v-3.287zm-1.047 6.276c0 .896-.149 1.643-.299 1.793-.149.299-.448.299-.597.299l-.449.149v.15H99.541c.15 0 .15-.15 0-.15l-.299-.149c-.15 0-.449 0-.598-.299-.149-.15-.299-.897-.299-1.793V36.46c0-.448 0-.448.897-.448.597 0 .747.149.896.448.598.747 1.196 1.793 1.495 2.391 1.046 1.494 1.793 1.793 3.138 1.793h.746v-.299c-.597 0-.896 0-1.195-.299-1.046-.896-1.793-2.092-2.988-4.034-.15-.15-.15-.299-.15-.449.747-.149 1.943-1.046 1.943-2.39 0-1.046-.598-1.794-1.345-2.092-.598-.449-1.494-.449-2.39-.449-1.196 0-2.093 0-3.288.15-.15 0-.15.149 0 .149h.3c.447.15.596.299.746.448 0 .15.15.748.15 1.644v5.081zm12.253-4.184c0-.897 0-1.345-.149-1.494-.15-.15-.299-.299-.598-.299l-.299-.15v-.149h5.828c0 .299 0 1.195.15 1.643 0 0-.15.15-.3 0-.149-.597-.299-1.045-1.046-1.195-.299 0-.747-.149-1.195-.149h-.747c-.449 0-.598.149-.598.149v3.138c0 .299 0 .448.3.448h.746c.598 0 1.046-.149 1.195-.149.15 0 .3-.15.45-.448v-.598c.148 0 .298 0 .298.149v2.391c0 .15-.15.15-.299.15l-.15-.598c0-.299-.149-.448-.299-.448-.149-.15-.597-.15-1.195-.15h-.747c-.299 0-.299 0-.299.448v1.794c0 .597 0 1.195.15 1.494.15.149.448.299 1.494.299 1.643 0 2.241-.15 2.84-1.495h.148c0 .449-.299 1.495-.448 1.794H108.207v-.15l.598-.149c.15 0 .448-.15.598-.15.15-.299.15-.896.15-1.643V33.92m13.298-2.092h.448c.15.448.3 1.195.3 1.643h-.3c-.149-.597-.597-1.494-1.793-1.494-1.345 0-1.644 1.046-1.644 1.494 0 .897.748 1.345 1.196 1.644l1.195.747c.598.449 1.495 1.196 1.495 2.391 0 1.494-1.196 2.391-2.84 2.391-1.046 0-1.643-.299-1.942-.448-.15-.299-.299-1.046-.299-1.793h.15c.298.747.896 1.942 2.39 1.942 1.046 0 1.644-.747 1.644-1.644 0-.597-.149-1.195-1.195-1.793l-1.046-.747c-.748-.448-1.495-1.195-1.495-2.241 0-1.196.897-2.242 2.541-2.242.448 0 .896 0 1.195.15m9.265.149c2.69 0 3.586 2.391 3.586 4.483 0 2.839-1.495 3.885-3.288 3.885-2.54 0-3.436-2.54-3.436-4.483 0-2.988 1.792-3.885 3.138-3.885zm.298-.299c-2.69 0-4.632 1.943-4.632 4.633 0 2.241 1.644 4.333 4.632 4.333 2.54 0 4.483-1.793 4.483-4.483 0-2.391-1.644-4.483-4.483-4.483zm10.161 1.196c0-.448 0-.598.15-.598 0-.149.448-.149.747-.149 1.494 0 2.092 1.046 2.092 2.092 0 .896-.299 1.344-.598 1.643a2.524 2.524 0 0 1-1.494.449c-.598 0-.747-.15-.897-.15v-3.287zm-1.046 5.529c0 .747 0 1.344-.149 1.643-.15.15-.448.15-.598.299h-.299v.15h3.138v-.15h-.299c-.149-.149-.448-.149-.597-.299-.15-.299-.15-.896-.15-1.643v-1.495c0-.299 0-.299.747-.299.45 0 .598.15.897.449.448.597.896 1.494 1.195 1.942 1.046 1.345 1.644 1.644 2.84 1.644h.597v-.299c-.448 0-.747 0-1.046-.299-.896-.747-1.644-1.793-2.69-3.437 0-.149-.149-.298 0-.448.598-.149 1.644-.896 1.644-2.092 0-.896-.598-1.494-1.195-1.793-.598-.299-1.345-.448-2.092-.448-1.046 0-1.943 0-2.839.149-.15 0-.15.15-.15.15h.45c.297 0 .447.149.447.299.15.298.15.747.15 1.494v4.483zm16.138-6.575h.897c.15 0 .15-.15.3-.299h.148c-.149.598-.149 1.644-.149 1.942h-.299c0-.448-.149-.747-.299-.896-.299-.299-.896-.448-1.494-.448h-.897c-.448 0-.448 0-.448.597v5.679c0 .747 0 1.494.15 1.643.15.15.447.15.597.299h.448v.15H153.035v-.15l.598-.149c.3 0 .448 0 .598-.15.15-.149.15-.896.15-1.643v-5.679c0-.597 0-.597-.449-.597h-.747c-.748 0-1.345.149-1.644.448-.299.299-.448.598-.598.896 0 0-.149 0-.149-.149.15-.448.448-1.345.448-1.793h.15c0 .149.15.149.298.299h5.977m9.115 0h.45c.148.448.148 1.195.148 1.643h-.149c-.299-.597-.598-1.494-1.943-1.494-1.195 0-1.494 1.046-1.494 1.494 0 .897.597 1.345 1.195 1.644l1.196.747c.597.449 1.344 1.196 1.344 2.391 0 1.494-1.046 2.391-2.689 2.391-1.046 0-1.644-.299-1.943-.448-.299-.299-.448-1.046-.448-1.793h.3c.148.747.895 1.942 2.24 1.942 1.196 0 1.644-.747 1.644-1.644 0-.597-.15-1.195-1.046-1.793l-1.196-.747c-.747-.448-1.344-1.195-1.344-2.241 0-1.196.896-2.242 2.54-2.242.3 0 .896 0 1.195.15" fill="#1A1919" fill-rule="evenodd"/></svg>