<svg xmlns="http://www.w3.org/2000/svg" xmlns:xlink="http://www.w3.org/1999/xlink" width="537" height="120"><defs><path id="a" d="M.06.072h87.921V119.94H.06z"/></defs><g fill="none" fill-rule="evenodd"><mask id="b" fill="#fff"><use xlink:href="#a"/></mask><path fill="#233038" d="M43.991.072L0 25.47v46.274c0 29.395 40.126 46.63 41.833 47.349l2.156.907h.002v-.069.069l2.157-.907c.518-.218 4.57-1.961 9.956-5.09l-12.113-6.993V93.197l23.181 13.383c2.998-2.325 5.983-4.958 8.727-7.884l-31.908-18.42V66.462L83.14 89.063c1.872-3.275 3.292-6.801 4.096-10.556L43.991 53.541V39.728l43.99 25.396V52.202l-43.99-25.395V12.993l43.99 25.396V25.468L43.991.072" mask="url(#b)"/><g fill="#233038"><path d="M130.396 88.994h7.221V34.727h-7.221zM152.476 82.914h18.089c6.309 0 10.185-3.725 10.185-9.729 0-7.068-5.701-9.045-11.781-9.045h-16.493v18.774zm0-24.854h14.441c8.208 0 11.552-2.888 11.552-8.664 0-7.6-5.244-8.589-11.552-8.589h-14.441V58.06zm-7.22-23.333h19.685c4.712 0 11.172 0 14.365 1.976 3.571 2.128 6.384 5.928 6.384 11.325 0 5.776-2.964 10.108-8.057 12.16v.152c6.689 1.445 10.337 6.384 10.337 13.073 0 7.904-5.776 15.581-16.493 15.581h-26.221V34.727zM193.643 34.727h9.881l17.101 45.603 17.177-45.603h9.88v54.267h-6.84V43.847h-.152l-16.949 45.147h-6.157l-16.948-45.147h-.153v45.147h-6.84V34.727M307.492 50.612c-.836-7.829-5.929-11.097-13.453-11.097-6.156 0-12.161 2.204-12.161 9.273 0 13.377 34.734 3.952 34.734 25.309 0 11.553-11.325 16.189-21.205 16.189-12.16 0-22.421-6.004-22.421-19.154h6.84c0 9.122 7.601 13.074 15.809 13.074 6.537 0 13.758-2.053 13.758-9.881 0-14.897-34.735-5.092-34.735-25.005 0-10.945 9.729-15.885 19.686-15.885 11.095 0 19.608 5.244 19.988 17.177h-6.84m41.699 14.972c-.38-6.156-4.865-11.096-11.325-11.096-6.688 0-10.868 5.017-11.248 11.096h22.573zm6.232 10.945c-1.748 8.74-7.904 13.377-16.797 13.377-12.54 0-18.469-8.74-18.849-20.673 0-11.857 7.752-20.445 18.469-20.445 13.909 0 18.165 12.997 17.785 22.497h-29.413c-.228 6.841 3.648 12.921 12.236 12.921 5.397 0 9.044-2.509 10.185-7.677h6.384zm33.579-14.213c-.988-4.94-4.333-7.828-9.729-7.828-9.348 0-12.237 7.448-12.237 15.352 0 7.297 3.269 14.366 11.477 14.366 6.308 0 9.957-3.573 10.793-9.577h6.612c-1.444 9.653-7.372 15.277-17.329 15.277-12.009 0-18.393-8.284-18.393-20.066 0-11.78 6.08-21.052 18.545-21.052 8.968 0 15.961 4.179 16.948 13.528h-6.687m43.827 26.678h-6.08v-6.233h-.152c-2.736 4.865-7.069 7.145-12.769 7.145-10.336 0-13.528-5.929-13.528-14.365V49.7h6.46v26.601c0 4.865 3.04 7.905 7.98 7.905 7.829 0 11.629-5.244 11.629-12.313V49.7h6.46v39.294m6.055-39.294h6.08v8.284h.152c3.116-6.384 7.448-9.425 14.441-9.196v6.84c-10.412 0-14.213 5.852-14.213 15.885v17.481h-6.46V49.7m24.523 39.294h6.46V49.7h-6.46v39.294zm0-46.363h6.46v-7.904h-6.46v7.904zm24.092 7.069h7.828v5.7h-7.828v24.397c0 3.041.836 3.496 4.864 3.496h2.964v5.701h-4.94c-6.689 0-9.349-1.368-9.349-8.589V55.4h-6.688v-5.7h6.688V37.92h6.461V49.7m31.463 44.538c-3.04 7.6-5.624 10.488-11.4 10.488-1.52 0-3.041-.151-4.485-.683v-5.929c1.217.381 2.509.912 3.801.912 2.66 0 4.104-1.216 5.32-3.572l2.66-6.688L499.277 49.7h7.297l11.477 32.149h.151L529.223 49.7h6.84l-17.101 44.538"/></g></g></svg>