<svg xmlns="http://www.w3.org/2000/svg" width="32" height="31"><g fill="#6A778B" fill-rule="evenodd"><path d="M23.543 4.104v2.399a.406.406 0 1 0 .812 0V4.104h3.988a2.846 2.846 0 0 1 2.845 2.845v4.024H.813V6.949a2.845 2.845 0 0 1 2.845-2.845h4.291v2.399a.406.406 0 1 0 .813 0V4.104h14.781zm4.8 25.156H3.658a2.844 2.844 0 0 1-2.845-2.844v-14.63h30.375v14.63a2.845 2.845 0 0 1-2.845 2.845zM8.355 0a.406.406 0 0 0-.406.406v2.886H3.658A3.657 3.657 0 0 0 0 6.95v19.467a3.657 3.657 0 0 0 3.658 3.657h24.685A3.657 3.657 0 0 0 32 26.416V6.95a3.657 3.657 0 0 0-3.657-3.658h-3.988V.408a.406.406 0 1 0-.812 0v2.885H8.762V.408A.407.407 0 0 0 8.355 0z"/><path d="M7.803 21.466a1.663 1.663 0 1 1 .001-3.325 1.663 1.663 0 0 1-.001 3.325m0-4.133a2.475 2.475 0 1 0 0 4.95 2.475 2.475 0 0 0 0-4.95m8.27 4.133a1.663 1.663 0 1 1 .002-3.325 1.663 1.663 0 0 1-.002 3.325m0-4.133a2.475 2.475 0 1 0 0 4.95 2.475 2.475 0 0 0 0-4.95m8.266 4.133a1.663 1.663 0 1 1 .001-3.325 1.663 1.663 0 0 1-.001 3.325m0-4.133a2.476 2.476 0 1 0 0 4.951 2.476 2.476 0 0 0 0-4.95"/></g></svg>