<svg xmlns="http://www.w3.org/2000/svg" width="23" height="35"><g fill="#6A778B" fill-rule="evenodd"><path d="M21.933 12.036c0 2.045-.591 4.036-1.712 5.764l-8.856 15.339-8.867-15.357a10.517 10.517 0 0 1-1.701-5.746c0-5.83 4.741-10.571 10.568-10.571 5.828 0 10.568 4.742 10.568 10.57M11.365.668C5.098.667 0 5.767 0 12.036c0 2.202.63 4.335 1.819 6.162l9.201 15.937a.399.399 0 0 0 .69 0l9.19-15.92a11.32 11.32 0 0 0 1.83-6.18C22.73 5.768 17.632.668 11.365.668"/><path d="M16.669 12.232a5.442 5.442 0 0 1-5.435 5.435 5.444 5.444 0 0 1-5.438-5.435 5.443 5.443 0 0 1 5.438-5.435 5.441 5.441 0 0 1 5.435 5.435M11.234 6A6.24 6.24 0 0 0 5 12.232a6.24 6.24 0 0 0 6.234 6.231 6.238 6.238 0 0 0 6.232-6.231A6.239 6.239 0 0 0 11.234 6"/></g></svg>