<svg xmlns="http://www.w3.org/2000/svg" xmlns:xlink="http://www.w3.org/1999/xlink" width="188" height="79"><defs><path id="a" d="M0 0v18.251h15.09V0H0z"/><path id="c" d="M0 77.562h186.32V0H0z"/></defs><g fill="none" fill-rule="evenodd"><path fill="#6A778B" d="M0 0v18.252h63.757V0H0zm3.985 14.281h55.788V3.971H3.985v10.31zM39.52 65.43h6.418c-.088-1.897-1.026-3.356-3.018-3.356-1.846 0-3.048 1.371-3.4 3.356zM42.89 60c3.545 0 5.392 2.54 5.392 6.306v1.11h-8.85c.265 2.6 1.935 3.855 4.25 3.855 1.436 0 2.46-.32 3.604-1.167h.088v2.131c-1.055.818-2.432 1.14-4.015 1.14-3.78 0-6.359-2.513-6.359-6.542C37 62.803 39.403 60 42.89 60zm10.542 2.189v-1.985H51v12.848h2.432v-8.38c.41-1.46 1.524-2.337 2.842-2.337.587 0 1.173.088 1.524.262h.089v-2.393c-.206-.117-.704-.204-1.26-.204-1.407 0-2.637.818-3.195 2.189M43.215 43.68L41.135 36h-3.106l-2.051 7.68L33.809 36H30v.145l3.985 12.851h3.487l2.051-7.652 2.081 7.652h3.487l3.984-12.851V36h-3.662zM52 31v14.338c0 2.949 1.29 4.205 4.454 4.205a4.65 4.65 0 0 0 1.465-.233v-3.183h-.06a2.903 2.903 0 0 1-.878.175c-.762 0-1.113-.32-1.113-1.227V31H52zm-31.22 9.286c.352-1.782 1.377-2.277 2.549-2.277 1.553 0 2.11.934 2.198 2.277H20.78zm8.322 1.198c0-3.885-1.934-6.484-5.83-6.484C19.697 35 17 37.804 17 41.863c0 4.176 2.755 6.717 6.798 6.717 1.817 0 3.31-.38 4.367-1.14v-3.008h-.147c-1.231.76-2.227 1.052-3.604 1.052-1.582 0-3.165-.526-3.634-2.54h8.322v-1.46z"/><g transform="translate(0 30.163)"><mask id="b" fill="#fff"><use xlink:href="#a"/></mask><path fill="#6A778B" mask="url(#b)" d="M3.985 10.687h7.12v7.564h3.986V0h-3.986v7.212h-7.12V0H0v18.251h3.985z"/></g><path fill="#6A778B" d="M0 72.25h11.31v-2.219H2.549v-6.074h7.941v-2.162H2.549v-5.577h8.761V54H0zM31.659 56h-2.432v3.416H27v2.074h2.227v7.153c0 2.51 1.2 3.884 4.219 3.884.674 0 1.172-.117 1.524-.263v-2.072h-.089c-.293.116-.703.174-1.083.174-1.377 0-2.14-.496-2.14-1.956v-6.92h3.312v-2.074h-3.311V56zm-11.36 4c-1.816 0-3.106.934-3.867 2.132v-1.87H14v12.85h2.432v-8.556c.439-1.374 1.728-2.337 3.253-2.337 1.846 0 2.695 1.197 2.695 2.862v8.03h2.431v-8.089c0-3.124-1.61-5.022-4.511-5.022m45.029-21.992c1.553 0 2.11.935 2.197 2.277H62.78c.351-1.782 1.377-2.277 2.549-2.277m.469 10.57c1.816 0 3.31-.38 4.366-1.139v-3.008h-.147c-1.23.76-2.227 1.052-3.604 1.052-1.582 0-3.165-.525-3.633-2.54h8.321v-1.46c0-3.884-1.934-6.483-5.83-6.483C61.695 35 59 37.803 59 41.863c0 4.176 2.754 6.716 6.798 6.716M103.52 65.43c.35-1.985 1.553-3.356 3.4-3.356 1.99 0 2.928 1.46 3.016 3.356h-6.416zm3.369-5.43c-3.486 0-5.889 2.803-5.889 6.833 0 4.029 2.578 6.541 6.358 6.541 1.582 0 2.96-.32 4.015-1.139v-2.131h-.088c-1.144.846-2.168 1.167-3.605 1.167-2.314 0-3.985-1.255-4.249-3.854h8.85v-1.11c0-3.767-1.847-6.307-5.392-6.307zM139.866 41.395V31H136v18.251h3.866v-5.898l3.869 5.898h4.424v-.146l-4.688-6.805 4.688-5.899v-.145h-4.395zM117.97 44.199c-.352.964-1.172 1.519-2.256 1.519-1.144 0-1.905-.467-1.905-1.548 0-1.052.761-1.52 2.022-1.52.792 0 1.553.118 2.139.44v1.109zM115.772 35c-1.728 0-3.487.497-4.482 1.08v3.097h.145c1.085-.613 2.344-.993 3.664-.993 2.08 0 2.87.612 2.87 2.015v.233a10.289 10.289 0 0 0-2.9-.438c-2.988 0-5.069 1.694-5.069 4.234 0 2.746 2.08 4.293 4.63 4.293 1.348 0 2.607-.497 3.456-1.518v1.285h3.751V40.14c0-3.271-2.138-5.14-6.065-5.14zM65.626 71.184c-1.319 0-2.549-.76-3.194-2.014v-4.936c.645-1.255 1.875-2.044 3.194-2.044 2.403 0 3.81 1.926 3.81 4.497 0 2.599-1.407 4.497-3.81 4.497M66.036 60c-1.582 0-2.93.818-3.604 1.723v-1.46H60v17.784h2.432v-6.366c.675.875 2.022 1.693 3.604 1.693 3.84 0 5.89-3.124 5.89-6.687 0-3.562-2.05-6.687-5.89-6.687m91.935-15.801c-.352.964-1.172 1.519-2.257 1.519-1.143 0-1.905-.467-1.905-1.548 0-1.052.762-1.52 2.023-1.52.79 0 1.553.118 2.139.44v1.109zM155.773 35c-1.73 0-3.487.497-4.483 1.08v3.097h.145c1.085-.613 2.346-.993 3.665-.993 2.08 0 2.87.612 2.87 2.015v.233a10.295 10.295 0 0 0-2.9-.438c-2.99 0-5.07 1.694-5.07 4.234 0 2.746 2.08 4.293 4.63 4.293 1.348 0 2.608-.497 3.457-1.518v1.285h3.751V40.14c0-3.271-2.138-5.14-6.065-5.14zm27.456 9.842c-.644.934-1.493 1.343-2.46 1.343-1.7 0-2.842-1.197-2.842-3.417 0-2.22 1.143-3.446 2.842-3.446.967 0 1.816.41 2.46 1.343v4.177zm0-13.842v6.454c-.82-.964-2.05-1.49-3.75-1.49-3.34 0-5.479 3.066-5.479 6.804 0 3.739 2.138 6.775 5.48 6.775 1.757 0 3.047-.584 3.866-1.634v1.343h3.752V31h-3.87zm-15.477 7.248v-2.103H164v12.996h3.868v-7.477c.323-1.342 1.26-2.043 2.462-2.043.733 0 1.26.116 1.7.292h.145v-3.68c-.204-.117-.732-.233-1.258-.233-1.437 0-2.464.818-3.165 2.248M124 41.804c0 4.176 2.96 6.775 6.827 6.775 1.378 0 2.667-.291 3.634-.993v-3.3h-.147c-.85.642-1.846 1.022-2.989 1.022-1.933 0-3.398-1.284-3.398-3.504 0-2.22 1.465-3.533 3.398-3.533 1.143 0 2.14.379 2.99 1.022h.146v-3.3c-.967-.701-2.256-.993-3.634-.993-3.867 0-6.827 2.628-6.827 6.804"/><mask id="d" fill="#fff"><use xlink:href="#c"/></mask><path fill="#6A778B" mask="url(#d)" d="M84 72.848h2.432V60H84zM85.553 54c-.82 0-1.553.671-1.553 1.519 0 .846.733 1.518 1.553 1.518.85 0 1.554-.672 1.554-1.518 0-.848-.704-1.519-1.554-1.519m-8.12 8.189v-1.985H75v12.848h2.432v-8.38c.41-1.46 1.523-2.337 2.842-2.337.587 0 1.173.088 1.524.262h.087v-2.393c-.205-.117-.702-.204-1.259-.204-1.407 0-2.637.818-3.194 2.189M86.68 32h-3.868v3.562h-4.951V32h-3.868v3.562H72v3.095h1.993v5.462c0 3.3 1.23 4.73 4.366 4.73 1.113 0 1.875-.203 2.374-.379v-3.038h-.089c-.44.147-.85.176-1.172.176-1.171 0-1.611-.526-1.611-1.665v-5.286h4.951v5.462c0 3.3 1.23 4.73 4.366 4.73 1.114 0 1.876-.203 2.374-.379v-3.038h-.087a3.67 3.67 0 0 1-1.173.176c-1.172 0-1.612-.526-1.612-1.665v-5.286h2.872v-3.095H86.68V32zm8.74 33.607c-2.08-.672-3.017-.965-3.017-1.986 0-.906.85-1.577 2.374-1.577 1.523 0 2.755.496 3.809 1.343h.088V61.05C97.59 60.321 96.242 60 94.718 60c-2.608 0-4.659 1.459-4.659 3.942 0 2.423 2.022 3.096 3.839 3.68 2.022.67 3.047.934 3.047 2.072 0 1.11-1.231 1.635-2.608 1.635-1.524 0-3.135-.437-4.22-1.43H90v2.307c.967.759 2.667 1.168 4.367 1.168 2.783 0 4.95-1.343 4.95-3.972 0-2.453-2.05-3.212-3.896-3.795m4.563-25.642v-5.607h2.52c2.022 0 2.99 1.138 2.99 2.832 0 1.636-.968 2.775-2.99 2.775h-2.52zm9.554-2.775c0-4.029-2.667-6.19-6.712-6.19H96v18.252h3.984v-5.928h2.842c4.045 0 6.712-2.162 6.712-6.134z"/></g></svg>