<svg xmlns="http://www.w3.org/2000/svg" width="134" height="64"><g fill="none" fill-rule="evenodd"><path fill="#6A778B" d="M36.33 22c1.341 0 2.362 1.432 2.362 2.75v18.915c0 3.09-2.533 5.82-5.632 5.82-3.1 0-5.613-2.674-5.613-5.764v-18.97c0-1.32 1.001-2.751 2.343-2.751H20c1.323 0 2.344 1.432 2.344 2.75v18.406c0 5.896 4.8 9.344 10.735 9.344 5.934 0 10.697-3.466 10.697-9.344V24.75c0-1.318 1.02-2.75 2.363-2.75h-9.81zM70.838 8.29A8.279 8.279 0 0 0 62.522 0c-2.684 0-5.065 1.45-6.577 3.429V7.78c2.04-5.783 6.577-5.369 6.577-5.369 3.25 0 5.897 2.619 5.897 5.878 0 3.221-2.627 5.859-5.897 5.859-1.626 0-3.08-.64-4.158-1.714L55.49 9.23a6.756 6.756 0 0 0-4.763-1.96c-3.704 0-6.728 3.015-6.728 6.707 0 3.693 3.024 6.707 6.728 6.707a6.78 6.78 0 0 0 5.217-2.43V14.77c-2.023 3.918-5.217 3.504-5.217 3.504a4.3 4.3 0 0 1-4.309-4.296 4.288 4.288 0 0 1 4.31-4.295 4.23 4.23 0 0 1 3.042 1.262l2.873 3.203a8.363 8.363 0 0 0 5.878 2.411c4.611 0 8.316-3.692 8.316-8.27m32.129 28.669l-6.01-3.26c-2.987-1.62-2.59-3.955-2.59-3.955s-.264-4.672 5.708-4.672c0 0 3.761-.34 5.349 2.392l.019-4.578c-.775-.753-5.576-.885-5.576-.885-10.716 0-10.565 8.29-10.565 8.29s-.737 4.558 5.5 7.968l5.972 3.259c2.665 1.488 2.344 3.523 2.344 3.523s-.038 4.728-6.823 5.049c0 0-5.5-.415-7.295-3.222l1.739 5.558c1.984.734 5.5.64 5.5.64 12.077 0 11.83-8.44 11.83-8.44s.681-4.483-5.102-7.667M49.328 24.75v30.237s-.094 5.388-4.328 8.44c0 0 9.45-1.338 9.45-10.23l-.038-28.447c0-1.318 1.02-2.75 2.363-2.75h-9.81c1.342 0 2.363 1.432 2.363 2.75M67.79 22H58c1.323 0 2.344 1.432 2.344 2.75v24.19c0 1.337-1.021 2.75-2.344 2.75h9.79c-1.323 0-2.343-1.413-2.343-2.75V24.75c0-1.318 1.02-2.75 2.343-2.75m56.577 0c1.323 0 2.344 1.432 2.344 2.75v18.915c0 3.09-2.533 5.82-5.613 5.82-3.119 0-5.633-2.674-5.633-5.764v-18.97c0-1.32 1.021-2.751 2.363-2.751H108c1.342 0 2.362 1.432 2.362 2.75l-.018 18.406c0 5.896 4.838 9.344 10.773 9.344 5.915 0 10.697-3.466 10.697-9.344V24.75c0-1.318 1.02-2.75 2.344-2.75h-9.79zm-54.742 0L68 27.463c1.304-2.43 3.364-2.468 3.364-2.468h5.179V48.94c0 1.338-1.02 2.75-2.344 2.75h9.79c-1.323 0-2.343-1.412-2.343-2.75V25.014h4.328a2.408 2.408 0 0 1 2.419 2.412l1.588-5.407L69.625 22zM2.344 24.75v24.19c0 1.337-1.002 2.75-2.344 2.75h9.809c-1.342 0-2.362-1.413-2.362-2.75V37.221h6.822c1.323 0 2.57 1.017 2.57 2.336l-.018-5.35H7.447v-9.194h9.09c1.342 0 2.57 1.017 2.57 2.355V22H0c1.342 0 2.344 1.432 2.344 2.75"/></g></svg>