<svg xmlns="http://www.w3.org/2000/svg" width="165" height="92"><g fill="#6A778B" fill-rule="evenodd"><path d="M82.316 59.853L83.372 54h-8.316L74 59.853zM23.62 63l-5.94 13.104L16.316 63H8l3.564 20.748h9.284L31.584 63zM119.13 72.92c-.66 3.93-2.332 5.634-4.576 5.634-2.112 0-3.3-1.703-2.596-5.635.44-2.358 1.804-5.241 4.62-5.241 2.156-.131 3.124 2.184 2.552 5.241m-15.928.394c-1.232 7.12 3.3 10.745 10.032 10.745 6.688 0 12.496-3.582 13.86-11.182 1.144-6.465-2.64-10.789-10.032-10.789-7.084 0-12.584 4.018-13.86 11.226m-60.8-6.203c1.98 0 3.388 1.703 3.036 3.625h-7.524c.396-2.183 2.068-3.581 4.488-3.625zm10.648 7.862c1.452-7.556-2.288-12.841-9.988-12.885-6.732 0-12.628 4.368-13.86 11.182-1.232 6.988 3.3 10.789 9.988 10.789 4.884 0 10.472-1.704 12.804-6.858H44.03c-.792 1.223-2.112 1.834-3.432 1.834-2.2 0-3.828-1.616-3.388-4.062h15.84zm18.826-12.754c-.352-.044-.704-.131-1.056-.131-3.212 0-5.544 1.573-7.26 4.805h-.088l.748-4.193h-7.524L53 83.446l8.272.044 1.276-7.163c.792-4.5 2.816-6.072 6.204-6.072.572 0 1.144.131 1.672.218l1.452-8.255zM73.696 63.087L70 83.835h8.316l3.696-20.748zM145.436 62.087c-3.168 0-5.412 1.354-7.744 3.844l.572-3.232h-7.568L127 83.446h8.228l1.892-10.57c.484-2.664 1.452-4.28 4.004-4.28 2.376 0 2.596 1.834 2.244 3.887l-1.936 10.963h8.316l2.2-12.448c1.012-5.722-1.012-8.911-6.512-8.911M18.04 50.711l2.068 5.634 6.204-2.227-.004-.013L164.912 4.018 163.504.087 22.616 50.973 22 49.269l-.007.003L3.96.087 0 1.528l18.041 49.183z"/><path d="M102.76 68.416l.968-5.329H83.884l-1.056 6.028h10.384l-13.288 17.34L79 91.74H147.552l1.056-5.984h-59.18z"/></g></svg>