<svg xmlns="http://www.w3.org/2000/svg" xmlns:xlink="http://www.w3.org/1999/xlink" width="107" height="95"><defs><path id="a" d="M0 0h75.69v53.539H0V0z"/></defs><g fill="none" fill-rule="evenodd"><path fill="#6A778B" d="M0 68v7.834h7.619v18.83H18.33V75.835h7.374V68zM33.088 68L23 94.664h10.286l5.412-15.891 5.48 15.891H54.59L44.259 68zM52 68v7.834h7.621v18.83h10.71V75.835h7.372V68zM85.091 68L75 94.664h10.286l5.413-15.891 5.479 15.891h10.408L96.259 68z"/><g transform="translate(15.431 .118)"><mask id="b" fill="#fff"><use xlink:href="#a"/></mask><path fill="#6A778B" d="M35.54 14.427c.65.825.6 3.765.585 5.08l-.347 33.995c.687.023 1.377.037 2.068.037.697 0 1.39-.011 2.078-.034l-.347-33.998c-.018-1.315-.068-4.255.584-5.08.535-.677 1.342-1.054 2.52-1.03 12.194.258 25.329 2.715 33.009 4.574-.96-1.89-2.224-3.702-3.797-5.401-3.534-3.82-8.519-7-14.419-9.192C51.526 1.17 44.741 0 37.846 0s-13.68 1.169-19.625 3.378C12.318 5.571 7.332 8.75 3.8 12.57 2.228 14.268.959 16.083 0 17.974c7.681-1.86 20.82-4.317 33.02-4.576 1.176-.026 1.986.352 2.52 1.03" mask="url(#b)"/></g><path fill="#6A778B" d="M66.564 19.155c-6.457-.36-6.541 1.95-5.896 6.363.042.27.093.609.155.996 2.166 12.849 4.863 23.906 5.326 25.783C81.891 48.692 93.243 38.7 93.243 26.96c0-1.478-.178-2.942-.522-4.378-11.242-2.546-18.75-3.017-26.157-3.428m-32.775 31.2a52.021 52.021 0 0 0 6.713 1.96c.436-1.758 3.195-13.045 5.384-26.124.04-.25.078-.482.104-.673.645-4.413.563-6.723-5.894-6.364-7.41.412-14.919.883-26.165 3.43a18.778 18.778 0 0 0-.524 4.377c0 5.073 2.06 9.983 5.96 14.2 3.533 3.82 8.52 7 14.422 9.193"/></g></svg>