<svg xmlns="http://www.w3.org/2000/svg" width="209" height="35"><g fill="#6A778B" fill-rule="evenodd"><path d="M14.338 12c-1.212-.4-2.827-.8-4.948-1.3-2.02-.5-3.433-.9-4.24-1.4-.707-.4-1.111-1.2-1.111-2.1 0-1 .505-1.9 1.413-2.5 1.01-.6 2.323-.9 4.04-.9 3.634 0 5.553 1.4 5.856 4.1h3.029c-.101-2.3-1.01-3.9-2.626-5.1C14.136 1.6 11.915 1 9.29 1c-2.524 0-4.543.6-6.058 1.8C1.717 4 .91 5.5.91 7.3c0 1.7.606 3 1.817 4 1.11 1 3.03 1.7 5.756 2.3 2.726.6 4.644 1.1 5.755 1.7 1.11.5 1.615 1.4 1.615 2.7 0 1.2-.504 2.1-1.615 2.8-1.11.7-2.423 1-4.24 1-1.92 0-3.434-.4-4.747-1.2-1.312-.8-2.019-2-2.22-3.7H0c.101 2.2.909 4 2.625 5.5 1.616 1.5 4.04 2.2 7.371 2.2 2.625 0 4.746-.7 6.361-2.1 1.616-1.3 2.424-2.9 2.424-4.9 0-1.4-.404-2.7-1.313-3.6-.808-.9-1.918-1.6-3.13-2m11.095 2c.202-1.5.707-2.7 1.616-3.5.908-.8 1.918-1.2 3.13-1.2 1.211 0 2.221.4 3.13 1.2.808.7 1.312 1.9 1.615 3.5h-9.491zm4.544-7c-2.323 0-4.241.8-5.756 2.3C22.707 10.8 22 12.9 22 15.6c0 2.7.808 4.8 2.322 6.3 1.515 1.5 3.534 2.3 6.059 2.3 2.019 0 3.534-.5 4.846-1.4 1.414-.9 2.12-2.2 2.423-3.9h-3.13c0 .9-.403 1.7-1.312 2.2-.808.5-1.717.8-2.827.8-1.414 0-2.626-.5-3.534-1.4-.91-.9-1.515-2.3-1.616-4.2h12.823v-.8c0-2.7-.807-4.8-2.221-6.3C34.318 7.7 32.4 7 29.977 7zm19.1 3.3c1.01 0 1.92.3 2.626.8.707.5 1.01 1.2 1.11 2.2h3.13c-.201-1.8-1.009-3.1-2.22-4C52.41 8.5 50.793 8 48.976 8c-2.424 0-4.241.7-5.756 2.2C41.707 11.6 41 13.8 41 16.5c0 2.7.808 4.8 2.221 6.3 1.414 1.5 3.332 2.2 5.756 2.2 1.817 0 3.433-.5 4.745-1.1 1.313-1 2.02-2.3 2.222-4h-3.13c0 .9-.404 1.7-1.111 2.2-.707.5-1.616.8-2.625.8-1.515 0-2.626-.5-3.534-1.6-.808-1.1-1.313-2.6-1.313-4.7s.404-3.6 1.313-4.7c.908-1.1 2.12-1.6 3.534-1.6m19.726 9.5c-1.414 1.7-2.928 2.601-4.645 2.601-1.11 0-1.918-.3-2.423-.901-.404-.599-.707-1.599-.707-2.899V8H58v10.8c0 4.101 1.918 6.101 5.755 6.101 1.919 0 3.635-.8 5.15-2.5l-.101 2h3.029V8h-3.03v11.8zM84.472 7c-1.717 0-3.13.8-4.443 2.6V7.3H77v16.4h3.03V12.1c1.21-1.5 2.422-2.3 4.038-2.3.808 0 1.414.1 1.817.2V7.1c-.504-.1-1.01-.1-1.413-.1m5.86 7c.202-1.5.707-2.7 1.616-3.5.908-.8 1.918-1.2 3.13-1.2 1.211 0 2.221.4 3.13 1.2.808.7 1.312 1.9 1.615 3.5h-9.491zm4.645-7c-2.323 0-4.241.8-5.756 2.3C87.707 10.8 87 12.9 87 15.6c0 2.7.808 4.8 2.322 6.3 1.515 1.5 3.534 2.3 6.059 2.3 1.918 0 3.534-.5 4.846-1.4 1.414-.9 2.12-2.2 2.423-3.9h-3.13c0 .9-.403 1.7-1.312 2.2-.808.5-1.717.8-2.827.8-1.414 0-2.626-.5-3.534-1.4-.91-.9-1.515-2.3-1.616-4.2h12.823v-.8c0-2.7-.807-4.8-2.221-6.3C99.318 7.7 97.4 7 94.977 7zM131.665 0l-3.937 15.4L123.284 0h-5.351l-4.443 15.4L109.553 0H104l7.168 24.8h4.544L120.558 8l4.848 16.8h4.643L137.218 0zM162.25 12.7c.908-1.1 1.818-1.6 2.828-1.6.907 0 1.312.1 1.614.2l1.415.4V6.4l-.91-.3c-.505-.1-1.11-.1-1.614-.1-1.212 0-2.323.4-3.333 1.1v-.7H157v18.5h5.25V12.7zM180.299 6.3l-5.049 5V0H170v24.8h5.25v-7.1l.607-.6 5.149 7.7h6.26l-7.775-11.2 7.775-7.3z"/><path d="M201.238 15c-1.112-.7-2.726-1.3-4.948-1.8-2.625-.6-3.434-.9-3.534-1.1-.1-.1-.203-.1-.203-.5 0-.3.102-.5.505-.7.505-.3 1.213-.4 2.02-.4 2.424 0 2.524.9 2.524 1.3l.102 1h5.15v-1.1c-.102-2.6-1.515-5.7-7.978-5.7-2.22 0-3.937.5-5.352 1.6-1.412 1.1-2.12 2.5-2.12 4.2 0 1.9.606 3.2 1.918 4.1 1.01.7 2.627 1.3 4.746 1.8 2.424.6 3.332.9 3.737 1.1.302.099.404.3.404.599 0 .301-.102.701-.607 1-.505.401-1.212.5-2.221.5-3.13 0-3.13-1.299-3.13-2V17.8H187l.102 1.099c.101 2.901 1.817 6.301 8.38 6.301 2.323 0 4.241-.6 5.654-1.7 1.514-1.2 2.222-2.7 2.222-4.601-.1-1.599-.708-2.999-2.12-3.899m3.267-8.8v-.8h.606c.505 0 .706.1.706.4 0 .3-.201.4-.706.4h-.606zm.908.3c.404-.1.707-.3.707-.8 0-.4-.405-.7-1.11-.7H204v2.7h.505V6.6h.403c.303 0 .607.1.708.5l.201.6h.505l-.405-.7c-.1-.2-.202-.4-.504-.5z"/><path d="M207.039 8.2c-.404.4-.909.6-1.515.6-.606 0-1.01-.3-1.514-.6-.404-.4-.606-.9-.606-1.5s.202-1.1.606-1.5c.404-.4.908-.6 1.514-.6s1.111.2 1.515.6c.404.4.606.9.606 1.5s-.202 1.1-.606 1.5m.303-3.5c-.505-.4-1.11-.7-1.818-.7-.606 0-1.211.3-1.817.7-.404.5-.707 1.1-.707 1.8s.202 1.3.707 1.8c.505.4 1.11.7 1.817.7.707 0 1.313-.2 1.818-.7.404-.5.707-1.1.707-1.8s-.202-1.3-.707-1.8m-37.096 24.9c-10.501 3.8-24.738 4.101-31.705.7-4.524-2.207-4.83-5.426-1.618-8.452A9.907 9.907 0 0 0 144.7 25.6c5.466 0 9.896-4.388 9.896-9.8 0-5.412-4.43-9.8-9.896-9.8-5.464 0-9.895 4.388-9.895 9.8 0 1.981.598 3.821 1.618 5.362-5.498 3.586-6.06 7.815-.608 10.438 7.17 3.5 21.81 3.2 32.613-.7 2.626-1 4.746-2.1 6.463-3.199l-.1-.101c-1.314.7-2.829 1.4-4.544 2"/></g></svg>