<svg xmlns="http://www.w3.org/2000/svg" xmlns:xlink="http://www.w3.org/1999/xlink" width="172" height="49"><defs><path id="a" d="M0 38.85h24.865V0H0v38.85z"/></defs><g fill="none" fill-rule="evenodd"><path fill="#6A778B" d="M153 1v1.722h2.894v7.917h2.007V2.722h2.873V1zM37.394 15.687v-4.603H31v26.9h6.895V23.76c0-3.768 1.77-6.09 5.658-6.09h2.296l-.024-7.297c-3.932-.685-6.814 2.02-8.43 5.313M13.047 32.235c-4.732 0-6.063-4.377-6.063-8.362 0-3.991 1.345-8.31 6.063-8.31 4.707 0 6.022 4.335 6.022 8.31 0 3.948-1.326 8.362-6.022 8.362m.007-22.736C4.43 9.499 0 15.624 0 23.873c0 8.26 4.41 14.4 13.054 14.4 8.63 0 13.047-6.158 13.047-14.4 0-8.232-4.437-14.374-13.047-14.374"/><g transform="translate(104.425 9.499)"><mask id="b" fill="#fff"><use xlink:href="#a"/></mask><path fill="#6A778B" d="M12.594 21.824c-4.434 0-5.61-4.14-5.61-7.847 0-3.598 1.183-7.82 5.522-7.82 4.383 0 5.682 3.987 5.682 7.72 0 3.744-1.083 7.947-5.594 7.947zm5.74-17.618C16.734 1.283 14.164 0 10.897 0 2.975 0 0 7.35 0 14.23c0 6.855 3.33 13.632 11.01 13.632 3.097 0 5.611-1.008 7.178-3.808v2.398c0 4.43-1.108 6.681-5.771 6.681-1.94 0-3.628-.646-4.123-2.694l-7.534.025c.382 6.255 5.809 8.386 11.317 8.386 4.758 0 10.306-1.193 12.028-6.308.51-1.487.76-3.64.76-6.461V.963h-6.531v3.243z" mask="url(#b)"/></g><path fill="#6A778B" d="M168.822.267l-1.914 7.336-1.94-7.336H162v9.639h1.88V2.133l2.008 7.773h2.053l1.979-7.773v7.773h1.881V.267zM63.38 27.473c0 3.732-2.256 6.14-5.998 6.14-2.816 0-4.696-3.191-2.691-5.498 1.104-1.231 3.28-1.53 4.817-1.875 1.456-.33 2.748-.769 3.872-1.318v2.55zm-4.55-17.17c-4.015.306-8.433 1.888-10.057 5.787l5.44 3.24c1.207-2.182 2.58-3.44 4.859-3.41 2.44.03 4.211.391 4.211 3.04 0 1.368-1.454 2.254-4.38 2.651a93.935 93.935 0 0 0-2.797.389C51.282 22.77 47 25.053 47 30.564c0 4.922 3.235 8.564 8.184 8.564 3.437 0 6.448-1.315 8.318-4.299l-.004 3.336h7.153l.002-19.22c0-6.275-6.757-9.03-11.823-8.642zm82.55 10.872c-.03-3.065 1.818-4.894 5.183-4.894 3.47 0 5.323 1.9 5.302 4.894h-10.486zm5.037-10.908c-8.325 0-12.417 6.59-12.417 14.222 0 4.477 1.477 8.02 3.655 10.635 2.177 2.612 5.133 3.918 8.86 3.918 4.096 0 9.666-2.465 11.573-6.371l-5.625-3.339c-.908 2.088-3.375 3.62-5.616 3.62-3.86 0-5.31-2.928-5.468-6.375h16.986c.553-4.72-.114-9.041-2.493-12.127-2-2.595-5.093-4.183-9.455-4.183zm-54.875 0c-3.2 0-5.876 1.341-7.792 3.91v-3.192H77v26.9h6.896V21.921c0-3.29 1.878-5.667 5.278-5.667 3.37 0 3.977 2.474 3.977 5.372v16.257h6.895V19.55c0-5.743-2.548-9.282-8.504-9.282"/></g></svg>