<svg xmlns="http://www.w3.org/2000/svg" width="30" height="30"><g fill="none" fill-rule="evenodd"><path fill="#FFF" d="M2.49 0l25.064.036A2.45 2.45 0 0 1 30 2.49l-.036 25.063A2.45 2.45 0 0 1 27.51 30l-25.064-.036A2.45 2.45 0 0 1 0 27.51L.036 2.447A2.451 2.451 0 0 1 2.49 0"/><path stroke="#ED2E26" stroke-linecap="round" stroke-linejoin="round" stroke-width="1.5" d="M7.36 5.838l15.307.022a1.496 1.496 0 0 1 1.494 1.5l-.022 15.307a1.496 1.496 0 0 1-1.498 1.494L7.333 24.14a1.497 1.497 0 0 1-1.495-1.5L5.86 7.332a1.497 1.497 0 0 1 1.5-1.494z"/><path stroke="#ED2E26" stroke-linecap="round" stroke-linejoin="round" stroke-width="1.5" d="M12.242 11.242l6.516 3.645-6.516 3.871z"/></g></svg>