<svg xmlns="http://www.w3.org/2000/svg" width="26" height="9"><path fill="#BE3A34" d="M25.4 8.742l-1.676.004-3.038-6.69-2.91 6.69h-1.687L19.915.214l1.572-.001 3.913 8.53zM6.757 2.698C6.736 1.2 5.505.155 3.764.155H0v8.576h1.37V1.407h2.316c.775 0 1.609.386 1.623 1.31.012.821-.632 1.335-1.722 1.38h-.02l-.83.008L5.5 8.745l1.62-.003-2.165-3.651c1.229-.438 1.817-1.406 1.802-2.393zm5.418.978c-1.44-.389-2.002-.717-2.002-1.38 0-1.005 1.288-1.102 1.75-1.102.725 0 1.648.231 2.194.5l.58-1.086C13.958.244 12.828 0 11.883 0c-2.01 0-3.269.875-3.269 2.37 0 1.707 1.775 2.19 3.155 2.56 1.438.389 1.94.826 1.94 1.49 0 1.106-1.175 1.279-1.903 1.279-.998 0-1.822-.267-2.627-.742L8.492 8.07c1.016.598 2.07.877 3.315.877 2.08 0 3.461-1.028 3.461-2.62 0-1.777-1.68-2.27-3.093-2.65z"/></svg>