<svg xmlns="http://www.w3.org/2000/svg" xmlns:xlink="http://www.w3.org/1999/xlink" width="216" height="24"><defs><path id="a" d="M0 .256h41.908V23.94H0z"/><path id="c" d="M.383.256h50.398V23.94H.383z"/></defs><g fill="none" fill-rule="evenodd"><mask id="b" fill="#fff"><use xlink:href="#a"/></mask><path fill="#545554" d="M10.078 10.305c-4.01-.871-5.767-1.455-5.767-3.448 0-2.037 1.902-3.25 5.083-3.25 2.631 0 4.789 1.071 6.075 3.022l.191.205h.223c.512 0 1.994-.686 1.994-1.994 0-1.92-2.945-4.584-8.483-4.584C4.158.256.641 3.074.641 7.269c0 4.778 4.611 5.772 7.982 6.502 4.111.866 6.086 1.383 6.086 3.625 0 2.036-1.95 3.254-5.221 3.254-3.113 0-5.513-1.131-7.183-3.412l-.167-.129h-.167c-.477 0-1.971.612-1.971 2.032C0 21.17 3.571 24 9.394 24c5.489 0 9.033-2.772 9.033-7.063 0-4.789-4.782-5.847-8.349-6.632m21.238-6.608c3.671 0 6.155 2.393 6.563 6.278H23.927c.779-3.774 3.695-6.278 7.389-6.278zm0-3.441c-6.502 0-11.412 5.144-11.412 11.965C19.904 19.154 24.711 24 31.593 24c5.971 0 9.626-3.414 9.626-5.273 0-1.499-1.473-2.135-2.063-2.135-.248 0-.377.115-.445.222-1.138 1.829-2.874 3.698-7.118 3.698-4.277 0-7.448-2.914-7.853-7.147h16.513c.802 0 1.655-.109 1.655-1.418v-.275c0-6.828-4.256-11.416-10.592-11.416z" mask="url(#b)"/><path fill="#545554" d="M52.924.439c-2.419 0-4.223 1.026-5.385 3.049-.135-1.779-.916-2.681-2.315-2.681-.444 0-1.419.185-1.419.736v20.439c0 1.2.603 1.836 1.744 1.836h.318c1.14 0 1.744-.636 1.744-1.836V13.41c0-4.219.87-9.254 4.995-9.254 1.007 0 1.72.244 2.363.791l.152.135h.173c.487-.002 1.209-.832 1.209-1.982 0-1.665-1.338-2.661-3.579-2.661m24.051.137c-1.192 0-1.83.621-2.541 2.467l-6.121 16.076-6.074-16.08C61.51 1.154 60.896.576 59.604.576c-.69 0-1.315.272-1.664.723-.104.136-.272.396-.182.717l8.108 20.304c.409.987.72 1.356 2.399 1.356 1.64 0 2.142-.487 2.543-1.453L78.837 1.99c.06-.183.005-.396-.162-.629-.134-.183-.651-.785-1.7-.785"/><g transform="translate(80)"><mask id="d" fill="#fff"><use xlink:href="#c"/></mask><path fill="#545554" d="M2.447.623h-.32C.984.623.383 1.256.383 2.457v19.34c0 1.201.601 1.836 1.744 1.836h.32c1.143 0 1.744-.635 1.744-1.836V2.457c0-1.201-.601-1.834-1.744-1.834m15.02 3.121c3.439 0 5.746 1.49 7.056 4.584.094.186.286.279.567.279.765 0 2.187-.554 2.187-1.886 0-2.321-3.276-6.465-9.81-6.465-6.639 0-11.645 5.086-11.645 11.828C5.822 18.877 10.828 24 17.467 24c6.534 0 9.81-4.145 9.81-6.467 0-1.33-1.422-1.883-2.187-1.883-.281 0-.473.096-.58.303-1.297 3.068-3.604 4.559-7.043 4.559-4.514 0-7.791-3.543-7.791-8.428 0-4.834 3.277-8.34 7.791-8.34m22.724-.047c3.67 0 6.151 2.393 6.565 6.278H32.805c.779-3.774 3.689-6.278 7.386-6.278zm0-3.441c-6.506 0-11.414 5.144-11.414 11.965C28.777 19.154 33.584 24 40.463 24c5.978 0 9.627-3.414 9.627-5.273 0-1.499-1.473-2.135-2.059-2.135a.506.506 0 0 0-.449.22c-1.137 1.831-2.875 3.7-7.119 3.7-4.276 0-7.442-2.914-7.848-7.147h16.514c.801 0 1.652-.109 1.652-1.418v-.275c0-6.828-4.258-11.416-10.59-11.416z" mask="url(#d)"/></g><path fill="#BC3039" d="M145.035.611c-2.797 0-5.215 1.11-6.926 3.143-.451-2.305-1.888-2.824-3.107-2.824-.693 0-2.059.277-2.059.927v19.514c0 1.674.836 2.557 2.418 2.557h.498c1.586 0 2.426-.883 2.426-2.557V8.869c1.092-2.199 3.149-3.461 5.662-3.461 2.869 0 4.584 2.051 4.584 5.485v10.478c0 1.674.838 2.557 2.42 2.557h.498c1.58 0 2.418-.883 2.418-2.557V10.352c0-6.1-3.304-9.741-8.832-9.741m65.547 1.516c-.367-.451-1.572-1.289-2.818-1.289-.532 0-2.295.201-2.727 2.734l-2.99 13.533-3.537-11.482c-.379-1.309-1.344-1.893-3.125-1.893-1.811 0-2.785.584-3.166 1.883l-3.672 11.61-3.037-13.641c-.483-2.475-2.098-2.744-2.774-2.744-1.222 0-2.566.783-2.955 1.324-.174.238-.16.43-.125.535l5.422 19.473c.451 1.547 1.787 1.758 3.17 1.758 1.869 0 2.629-.457 3.121-1.879l3.918-11.881 3.801 11.883c.482 1.457 1.191 1.877 3.166 1.877 1.392 0 2.74-.213 3.127-1.764l5.381-19.498c.048-.258-.123-.471-.18-.539M178.164 6.67a10.7 10.7 0 0 0-.73-1.338c-.424-.553-.885-.994-1.352-1.268-1.613-.951-3.299.375-3.846 1.301-.199.346-.224.647-.047.922.329.445.602.891.846 1.34a7.6 7.6 0 0 1 .465.791c.525 1.066.826 2.318.826 3.689 0 4.227-2.857 7.293-6.799 7.293-3.9 0-6.841-3.172-6.841-7.382 0-1.344.291-2.569.818-3.618.201-.41.439-.785.709-1.136.197-.327.402-.653.646-.977.176-.275.151-.576-.05-.922-.547-.926-2.233-2.252-3.844-1.301-.567.33-1.121.893-1.615 1.62a12.02 12.02 0 0 0-.508.968c-.727 1.58-1.131 3.383-1.131 5.366 0 7.013 4.857 11.91 11.816 11.91 6.848 0 11.819-4.971 11.819-11.821 0-1.998-.424-3.832-1.182-5.437"/><path fill="#BC3039" d="M167.719.074h-.346c-1.402 0-2.209 1.008-2.209 2.764v9.31c0 1.731.807 2.727 2.209 2.727h.346c1.398 0 2.176-.973 2.176-2.727v-9.31c0-1.783-.778-2.764-2.176-2.764m46.39 2.715a.765.765 0 0 0 .297-.049c.076-.035.115-.113.115-.242a.207.207 0 0 0-.041-.137.277.277 0 0 0-.103-.076.525.525 0 0 0-.139-.039.968.968 0 0 0-.148-.01h-.354v.553h.373zm.006-.879c.266 0 .469.047.612.139.142.096.212.256.212.484 0 .098-.013.18-.045.248a.394.394 0 0 1-.117.17.527.527 0 0 1-.173.1 1.012 1.012 0 0 1-.219.045l.564.92h-.437L214 3.117h-.264v.899h-.416V1.91h.795zm-1.353 1.649c.074.179.176.335.302.468a1.36 1.36 0 0 0 1.004.42c.198 0 .379-.037.553-.109.172-.074.32-.178.449-.311.127-.133.229-.289.305-.468.076-.182.111-.381.111-.594a1.463 1.463 0 0 0-.416-1.055 1.38 1.38 0 0 0-1.002-.418 1.384 1.384 0 0 0-1.004.418 1.44 1.44 0 0 0-.302.463c-.073.18-.11.379-.11.592 0 .213.037.412.11.594zm-.463-1.368c.105-.232.244-.429.424-.591.177-.163.382-.287.613-.377a2.071 2.071 0 0 1 1.463 0c.234.09.439.214.617.377.18.162.318.359.424.591.105.231.16.489.16.774a1.822 1.822 0 0 1-1.201 1.75 2.115 2.115 0 0 1-1.463 0 1.873 1.873 0 0 1-.613-.377 1.807 1.807 0 0 1-.424-.592 1.864 1.864 0 0 1-.16-.781c0-.285.054-.543.16-.774z"/></g></svg>