<svg xmlns="http://www.w3.org/2000/svg" width="384" height="138"><g fill="#0668A4" fill-rule="evenodd"><path d="M152.816 79.987V63.869h-6.496v-6.7h22.099v6.7h-6.301v16.118h-9.302M196.909 79.987V63.869h-6.492v-6.7h22.098v6.7h-6.304v16.118h-9.302M166.307 80.016l8.36-22.819 9.512-.003 8.873 22.822h-8.961l-4.616-13.795-4.601 13.795h-8.567M210.385 80.011l8.353-22.818h9.41l8.982 22.818h-8.965l-4.515-13.79-4.704 13.79h-8.561M180.552 44.409c-13.469-3.068-23.193-11.599-23.193-21.596 0-1.247.154-2.475.446-3.67 6.563-1.782 23.782-4.43 26.932-2.34 2.07 1.216-1.958 17.606-4.185 27.606m44.804-25.269c.299 1.197.447 2.427.447 3.674 0 10.016-9.766 18.561-23.273 21.616-2.229-10.005-6.251-26.413-4.186-27.626 3.148-2.088 20.44.557 27.012 2.336"/><path d="M191.623 0c14.747.012 27.357 6.295 32.137 15.051-5.503-.856-30.99-6.976-30.707-1.924v32.48a44.708 44.708 0 0 1-3.026 0v-32.48c.283-5.046-25.083 1.051-30.618 1.919C164.185 6.295 176.795.012 191.542 0h.081m-69.657 136.335c-.978.504-3.136 1.044-5.867 1.044-7.212 0-11.596-4.55-11.596-11.462 0-7.483 5.191-12.001 12.136-12.001 2.732 0 4.685.575 5.528 1.011l-.908 3.305c-1.081-.473-2.563-.876-4.45-.876-4.618 0-7.957 2.897-7.957 8.36 0 4.988 2.931 8.19 7.923 8.19 1.685 0 3.437-.336 4.516-.842l.675 3.271m5.866-10.585c0 4.618 2.324 8.326 6.303 8.326 4.011 0 6.27-3.743 6.27-8.495 0-4.28-2.124-8.36-6.27-8.36-4.111 0-6.303 3.842-6.303 8.529zm16.954-.338c0 7.62-4.618 11.967-10.888 11.967-6.406 0-10.451-4.889-10.451-11.563 0-6.977 4.385-11.9 10.789-11.9 6.643 0 10.55 5.025 10.55 11.496zm22.753 2.326c-.135-2.934-.303-6.472-.269-9.574h-.102a116.252 116.252 0 0 1-2.697 8.73l-3.302 9.845h-3.203l-3.034-9.71a110.114 110.114 0 0 1-2.292-8.865h-.068a493.225 493.225 0 0 1-.405 9.709l-.505 9.135h-3.877l1.518-22.719h5.46l2.968 9.134a115.97 115.97 0 0 1 2.089 7.888h.1a110.7 110.7 0 0 1 2.26-7.92l3.133-9.102h5.396l1.314 22.719h-4.044l-.44-9.27m27.878 0c-.135-2.934-.304-6.472-.27-9.574h-.102a114.892 114.892 0 0 1-2.698 8.73l-3.302 9.845h-3.202l-3.036-9.71a110.95 110.95 0 0 1-2.291-8.865h-.067a526.08 526.08 0 0 1-.404 9.709l-.506 9.135h-3.877l1.516-22.719h5.462l2.966 9.134c.809 2.664 1.516 5.36 2.091 7.888h.101c.606-2.46 1.381-5.258 2.259-7.92l3.134-9.102h5.393l1.317 22.719h-4.046l-.438-9.27m12.807-13.45v13.248c0 4.45 1.854 6.506 4.652 6.506 3 0 4.787-2.056 4.787-6.506v-13.248h4.147v12.978c0 7.012-3.608 10.113-9.069 10.113-5.258 0-8.662-2.933-8.662-10.08v-13.011h4.145m18.338 22.72v-22.719h4.719l5.866 9.741a62.576 62.576 0 0 1 3.875 7.619h.069c-.271-3.034-.369-5.967-.369-9.439v-7.921h3.841v22.719h-4.282l-5.931-10.011c-1.451-2.461-2.967-5.259-4.08-7.821l-.1.034c.166 2.933.201 5.932.201 9.674v8.124h-3.809M249.347 137.007h4.146v-22.719h-4.146zM274.53 136.335c-.978.504-3.139 1.044-5.868 1.044-7.212 0-11.595-4.55-11.595-11.462 0-7.483 5.191-12.001 12.138-12.001 2.727 0 4.685.575 5.525 1.011l-.91 3.305c-1.081-.473-2.561-.876-4.449-.876-4.619 0-7.958 2.897-7.958 8.36 0 4.988 2.934 8.19 7.926 8.19 1.682 0 3.438-.336 4.515-.842l.676 3.271m14.829-8.9l-1.786-5.597c-.44-1.382-.812-2.932-1.146-4.245h-.069c-.338 1.313-.67 2.895-1.079 4.245l-1.751 5.597h5.831zm-6.504 3.135l-1.956 6.438h-4.282l7.283-22.721h5.291l7.384 22.721h-4.449l-2.057-6.438h-7.214zM301.36 117.76h-6.476v-3.471h17.163v3.471h-6.54v19.248h-4.147V117.76M314.71 137.007h4.143v-22.719h-4.143zM326.807 125.75c0 4.618 2.326 8.326 6.304 8.326 4.012 0 6.272-3.743 6.272-8.495 0-4.28-2.124-8.36-6.272-8.36-4.112 0-6.304 3.842-6.304 8.529zm16.957-.338c0 7.62-4.619 11.967-10.888 11.967-6.407 0-10.449-4.889-10.449-11.563 0-6.977 4.38-11.9 10.787-11.9 6.64 0 10.55 5.025 10.55 11.496zm3.571 11.596v-22.719h4.721l5.866 9.741a62.72 62.72 0 0 1 3.875 7.619h.069c-.269-3.034-.371-5.967-.371-9.439v-7.921h3.844v22.719h-4.284l-5.931-10.011c-1.448-2.461-2.97-5.259-4.081-7.821l-.102.034c.171 2.933.208 5.932.208 9.674v8.124h-3.814m22.684-4.518c1.348.779 3.374 1.45 5.497 1.45 2.664 0 4.15-1.246 4.15-3.101 0-1.719-1.151-2.73-4.05-3.776-3.743-1.346-6.134-3.336-6.134-6.607 0-3.706 3.101-6.539 8.023-6.539 2.461 0 4.28.538 5.459 1.145l-1.009 3.338c-.807-.437-2.394-1.078-4.517-1.078-2.629 0-3.776 1.416-3.776 2.731 0 1.753 1.316 2.562 4.35 3.742 3.943 1.482 5.866 3.471 5.866 6.742 0 3.639-2.768 6.843-8.631 6.843-2.394 0-4.887-.707-6.137-1.45l.909-3.44M6.608 136.913v-16.088H.122v-6.689h22.061v6.689h-6.29v16.088H6.608M50.624 136.913v-16.088h-6.482v-6.689h22.06v6.689h-6.293v16.088h-9.285M20.076 136.942l8.344-22.777 9.497-.004 8.858 22.781h-8.946L33.22 123.17l-4.593 13.772h-8.551M64.075 136.936l8.338-22.776h9.396l8.963 22.776h-8.948L77.32 123.17l-4.699 13.766h-8.546"/></g></svg>