<svg xmlns="http://www.w3.org/2000/svg" width="496" height="110"><g fill="none" fill-rule="evenodd"><path fill="#DA3332" d="M483.679.589c3.793-.238 7.586-.165 11.388-.138-11.397 23.784-22.372 47.759-33.54 71.652a259.41 259.41 0 0 1-9.253-.027c-5.14-12.029-11.067-23.728-16.417-35.666 3.701-.073 7.402-.11 11.103-.009 3.207 7.357 6.981 14.457 9.922 21.923 8.951-19.239 18.167-38.359 26.797-57.735"/><path fill="#000105" d="M197.448 10.795c7.338.073 14.676.055 22.015.009-.11 6.541-.064 13.082-.046 19.624-7.348-.11-14.704-.019-22.052-.055.101-6.523-.018-13.055.083-19.578M98.431 51.279c-4.902 2.346-7.329 7.641-8.401 12.698a3460.25 3460.25 0 0 1 29.353 0c-.632-3.93-1.961-7.989-4.984-10.746-4.187-4.041-10.874-4.16-15.968-1.952zM86.722 38.838c14.989-8.502 36.756-5.589 46.889 9.07 6.211 8.676 7.97 19.679 7.906 30.132-17.205.147-34.41-.019-51.616.082.788 5.323 3.079 10.921 7.989 13.678 6.963 4.068 17.975 2.914 21.493-5.185 7.054-.229 14.127-.174 21.19.018-2.226 8.136-8.089 14.97-15.547 18.809-8.025 4.379-17.59 5.249-26.504 3.738-9.363-1.503-18.149-6.807-23.444-14.741-5.753-8.392-7.338-19.083-5.982-29.033 1.411-10.911 7.897-21.236 17.626-26.568zm233.059 12.487c-6.221 2.171-9.07 8.932-9.977 14.979-.724 7.622-.623 16.197 4.342 22.51 5.287 6.889 16.977 6.697 22.281-.073 4.443-5.516 5.057-13.019 4.636-19.826-.339-5.982-2.373-12.423-7.421-16.06-4.003-2.73-9.354-3.161-13.861-1.53zm-2.52-16.289c11.819-2.126 24.91.357 33.98 8.575 15.511 13.761 16.17 40.485 1.787 55.28-11.36 11.855-30.462 14.072-45.066 7.366-11.296-5.094-18.982-16.637-20.301-28.84-.55-7.064-.248-14.411 2.711-20.971 4.416-11.213 15.08-19.431 26.889-21.41zm78.578 4.104c7.265-5.735 17.682-6.339 26.083-2.895 5.992 2.565 10.517 7.879 12.56 14.017 2.355 6.294 1.659 13.11 1.75 19.679.046 12.579-.091 25.157.073 37.736-7.32.138-14.64-.018-21.96.073-.027-14.401.01-28.812-.018-43.205-.018-3.747-1.383-7.741-4.498-10.013-4.654-3.207-11.534-2.575-15.538 1.42-3.152 3.197-4.572 7.805-4.498 12.23-.028 13.202.036 26.394-.028 39.596-7.228-.137-14.466 0-21.694-.064 0-23.792.055-47.585-.028-71.377 7.064.073 14.137-.083 21.209.091-.082 3.289-.11 6.569-.174 9.858 2.19-2.446 4.059-5.213 6.761-7.146M0 36.373c7.595-.036 15.18-.036 22.766 0 4.554 15.346 9.482 30.591 13.825 45.991 5.268-15.135 9.335-30.691 14.255-45.954 7.348-.119 14.695-.037 22.043-.055-8.392 23.756-16.628 47.567-24.874 71.368-7.613.046-15.226-.101-22.83.092C16.536 84.096 8.804 60.038 0 36.373m146.51-.009c7.009-.036 14.026.009 21.044-.027-.064 4.003-.018 8.016-.22 12.02 1.842-2.007 3.115-4.453 5.011-6.422 4.737-5.168 12.432-7.32 19.184-5.534a924.852 924.852 0 0 0 0 18.845c-5.414-.632-11.369-.394-15.959 2.886-4.901 3.445-7.091 9.656-7.027 15.465-.055 11.369-.018 22.747-.009 34.117-7.347.046-14.686-.055-22.024.055.083-23.802.083-47.603 0-71.405m50.855.028c7.366-.101 14.732.009 22.098-.055-.128 23.801-.046 47.612-.046 71.423-7.348-.064-14.704-.037-22.052-.019.074-23.783.074-47.566 0-71.349m28.053-.073c19.88.091 39.76-.019 59.641.064-.202 5.451.009 10.902-.092 16.353-.678 1.374-1.887 2.4-2.849 3.573-10.242 11.323-20.238 22.867-30.553 34.135 11.699.229 23.398.028 35.097.11-.027 5.745.009 11.48-.027 17.224a7177.081 7177.081 0 0 0-61.208 0c-.028-5.515.027-11.04-.028-16.555 10.655-11.983 21.347-23.939 32.148-35.794.311-.623 1.612-1.218.944-2.015-10.994.32-22.006 0-33 .174-.119-5.754-.046-11.516-.073-17.269"/></g></svg>