<svg xmlns="http://www.w3.org/2000/svg" width="58" height="58"><g fill="none" fill-rule="evenodd"><path fill="#ED2E26" d="M4.814 0l48.457.07A4.736 4.736 0 0 1 58 4.814l-.07 48.455A4.736 4.736 0 0 1 53.188 58L4.73 57.93A4.737 4.737 0 0 1 0 53.186L.07 4.731A4.739 4.739 0 0 1 4.814 0"/><path stroke="#FFF" stroke-linecap="round" stroke-linejoin="round" stroke-width="1.5" d="M13.905 11l29.241.042A2.857 2.857 0 0 1 46 13.905l-.042 29.241A2.858 2.858 0 0 1 43.097 46l-29.241-.042A2.859 2.859 0 0 1 11 43.095l.042-29.241A2.86 2.86 0 0 1 13.905 11z"/><path stroke="#FFF" stroke-linecap="round" stroke-linejoin="round" stroke-width="1.5" d="M24 22l13 7.274L24 37z"/></g></svg>