<svg xmlns="http://www.w3.org/2000/svg" width="47" height="64" viewBox="0 0 47 64"><g fill="none" fill-rule="evenodd"><path fill="#FEFEFE" d="M17.971 34.485l9.496 2.56-6.912 25.64-3.724-5.079-5.773 2.52"/><path stroke="#B5D0E7" stroke-width="2.065" d="M17.971 34.485l9.496 2.56-6.912 25.64-3.724-5.079-5.773 2.52z" stroke-linecap="round" stroke-linejoin="round"/><path fill="#FEFEFE" d="M28.816 34.485l-9.496 2.56 6.912 25.64 3.724-5.079 5.773 2.52"/><path stroke="#B5D0E7" stroke-width="2.065" d="M28.816 34.485l-9.496 2.56 6.912 25.64 3.724-5.079 5.773 2.52z" stroke-linecap="round" stroke-linejoin="round"/><path fill="#FEFEFE" d="M1.033 23.394c0-2.808 3.737-4.852 4.75-7.294 1.049-2.531-.108-6.61 1.799-8.518 1.908-1.907 5.987-.75 8.518-1.8 2.442-1.012 4.486-4.75 7.294-4.75s4.852 3.738 7.294 4.75c2.53 1.05 6.61-.107 8.518 1.8 1.907 1.908.749 5.987 1.799 8.518 1.012 2.442 4.75 4.486 4.75 7.294s-3.738 4.852-4.75 7.294c-1.05 2.53.108 6.61-1.8 8.518-1.907 1.907-5.986.75-8.517 1.799-2.442 1.013-4.486 4.75-7.294 4.75s-4.853-3.737-7.294-4.75c-2.531-1.05-6.61.108-8.518-1.8-1.907-1.907-.75-5.986-1.8-8.517-1.012-2.442-4.75-4.486-4.75-7.294"/><path stroke="#B5D0E7" stroke-width="2.065" d="M1.033 23.394c0-2.808 3.737-4.852 4.75-7.294 1.049-2.531-.108-6.61 1.799-8.518 1.908-1.907 5.987-.75 8.518-1.8 2.442-1.012 4.486-4.75 7.294-4.75s4.852 3.738 7.294 4.75c2.53 1.05 6.61-.107 8.518 1.8 1.907 1.908.749 5.987 1.799 8.518 1.012 2.442 4.75 4.486 4.75 7.294s-3.738 4.852-4.75 7.294c-1.05 2.53.108 6.61-1.8 8.518-1.907 1.907-5.986.75-8.517 1.799-2.442 1.013-4.486 4.75-7.294 4.75s-4.853-3.737-7.294-4.75c-2.531-1.05-6.61.108-8.518-1.8-1.907-1.907-.75-5.986-1.8-8.517-1.012-2.442-4.75-4.486-4.75-7.294z" stroke-linecap="round" stroke-linejoin="round"/><path fill="#ED2E26" d="M23.395 8.44c8.284 0 15 6.716 15 15 0 8.284-6.716 15-15 15-8.283 0-15-6.716-15-15 0-8.284 6.717-15 15-15"/><path stroke="#FEFEFE" stroke-width="1.5" d="M16.515 23.438l4.931 4.931 9.047-9.047" stroke-linecap="round" stroke-linejoin="round"/></g></svg>