<svg xmlns="http://www.w3.org/2000/svg" width="62" height="62" viewBox="0 0 62 62"><g fill="none" fill-rule="evenodd"><path stroke="#B5D0E7" stroke-width="2" d="M1 50.049l7.187-32.623a7.357 7.357 0 1114.715 0v32.623" stroke-linecap="round" stroke-linejoin="round"/><path fill="#FEFEFE" d="M1 50.049c0-6.048 4.903-10.951 10.951-10.951 6.048 0 10.951 4.903 10.951 10.951C22.902 56.097 17.999 61 11.951 61 5.903 61 1 56.097 1 50.049"/><path stroke="#B5D0E7" stroke-width="2" d="M1 50.049c0-6.048 4.903-10.951 10.951-10.951 6.048 0 10.951 4.903 10.951 10.951C22.902 56.097 17.999 61 11.951 61 5.903 61 1 56.097 1 50.049z" stroke-linecap="round" stroke-linejoin="round"/><path fill="#ED2E26" d="M5.468 50.049a6.484 6.484 0 1112.967.001 6.484 6.484 0 01-12.967-.001"/><path stroke="#B5D0E7" stroke-width="2" d="M60.544 50.049l-7.187-32.623a7.357 7.357 0 10-14.715 0v32.623" stroke-linecap="round" stroke-linejoin="round"/><path fill="#FEFEFE" d="M60.544 50.049c0-6.048-4.903-10.951-10.95-10.951-6.049 0-10.952 4.903-10.952 10.951C38.642 56.097 43.545 61 49.593 61c6.048 0 10.951-4.903 10.951-10.951"/><path stroke="#B5D0E7" stroke-width="2" d="M60.544 50.049c0-6.048-4.903-10.951-10.95-10.951-6.049 0-10.952 4.903-10.952 10.951C38.642 56.097 43.545 61 49.593 61c6.048 0 10.951-4.903 10.951-10.951zm-22.01-4.677H22.902v-29.12h15.74z" stroke-linecap="round" stroke-linejoin="round"/><path fill="#ED2E26" d="M27.655 39.098a3.117 3.117 0 116.234 0 3.117 3.117 0 01-6.234 0"/><path stroke="#B5D0E7" stroke-width="2" d="M38.534 32.878H22.902" stroke-linecap="round" stroke-linejoin="round"/><path fill="#ED2E26" d="M43.11 50.049a6.484 6.484 0 1112.968.001 6.484 6.484 0 01-12.968-.001"/><path stroke="#B5D0E7" stroke-width="2" d="M22.902 17.426V5.846A4.847 4.847 0 0018.055 1h0a4.848 4.848 0 00-4.801 4.183l-.676 4.885m26.064 7.358V5.846A4.847 4.847 0 0143.49 1h0a4.848 4.848 0 014.801 4.183l.676 4.885" stroke-linecap="round" stroke-linejoin="round"/></g></svg>