<svg width="59" height="60" xmlns="http://www.w3.org/2000/svg"><g fill="none" fill-rule="evenodd"><path d="M29.5 60c-1.38 0-2.5-1.12-2.5-2.5v-55C27 1.12 28.12 0 29.5 0S32 1.12 32 2.5v55c0 1.38-1.12 2.5-2.5 2.5" fill="#ED2E26"/><path d="M43.51 30H59" stroke="#B5D0E7" stroke-width="2" stroke-linejoin="round"/><path stroke="#B5D0E7" stroke-width="2" stroke-linecap="round" stroke-linejoin="round" d="M50.762 37.354L43.512 30l7.25-7.354M43 9.5c-4.48 6.952-6.683 15.09-5.817 23.604.604 5.95 2.658 11.488 5.817 16.396M15.997 9.5c4.48 6.952 6.683 15.09 5.817 23.604-.604 5.95-2.658 11.488-5.817 16.396"/><path d="M15.49 30H0" stroke="#B5D0E7" stroke-width="2" stroke-linejoin="round"/><path stroke="#B5D0E7" stroke-width="2" stroke-linecap="round" stroke-linejoin="round" d="M8.238 37.354L15.488 30l-7.25-7.354"/></g></svg>