<svg width="62" height="42" xmlns="http://www.w3.org/2000/svg"><g fill="none" fill-rule="evenodd"><path d="M9 1h45c1.657 0 3 1.343 3 3v34H6V4c0-1.657 1.343-3 3-3" fill="#FEFEFE"/><path d="M9 1h45c1.657 0 3 1.343 3 3v34H6V4c0-1.657 1.343-3 3-3z" stroke="#B5D0E7" stroke-width="2" stroke-linecap="round" stroke-linejoin="round"/><path d="M21 15.95c.01-6.094 4.956-11.027 11.05-11.02 6.094.01 11.028 4.957 11.02 11.052C43.06 22.076 38.112 27.01 32.02 27c-6.096-.008-11.03-4.956-11.02-11.05" fill="#ED2E26"/><path d="M32.034 9.673c-5.324 0-7.532 5.552-7.623 5.79-.117.302-.132.635-.044.948.58 2.05 2.928 5.922 7.668 5.922s7.088-3.873 7.668-5.92c.088-.314.073-.647-.045-.95-.09-.237-2.3-5.79-7.623-5.79m0 1.5c4.357 0 6.224 4.83 6.224 4.83s-1.366 4.83-6.224 4.83c-4.858 0-6.224-4.83-6.224-4.83s1.867-4.83 6.224-4.83" fill="#FEFEFE"/><path d="M29.384 16.532c-.36-1.903 1.277-3.54 3.18-3.18 1.056.2 1.92 1.066 2.12 2.123.362 1.902-1.275 3.54-3.178 3.18-1.057-.2-1.922-1.066-2.122-2.123z" stroke="#FEFEFE" stroke-width="1.5" stroke-linecap="round" stroke-linejoin="round"/><path d="M6 30h51" stroke="#B5D0E7" stroke-width="2" stroke-linecap="round" stroke-linejoin="round"/><path d="M36 34v3H26v-3H1v1.938C1 38.734 3.266 41 6.062 41h49.876C58.734 41 61 38.734 61 35.938V34H36z" fill="#FEFEFE"/><path d="M36 34v3H26v-3H1v1.938C1 38.734 3.266 41 6.062 41h49.876C58.734 41 61 38.734 61 35.938V34H36z" stroke="#B5D0E7" stroke-width="2" stroke-linecap="round" stroke-linejoin="round"/></g></svg>