<svg xmlns="http://www.w3.org/2000/svg" width="59" height="81" viewBox="0 0 59 81">
  <g fill="none" fill-rule="evenodd" transform="translate(1 1)">
    <polygon fill="#FEFEFE" points="21.847 43 34 46.268 25.154 79 20.388 72.516 13 75.732"/>
    <polygon stroke="#B5D0E7" stroke-linecap="round" stroke-linejoin="round" stroke-width="2.065" points="21.847 43 34 46.268 25.154 79 20.388 72.516 13 75.732"/>
    <polygon fill="#FEFEFE" points="35.152 43 23 46.268 31.845 79 36.613 72.516 44 75.732"/>
    <polygon stroke="#B5D0E7" stroke-linecap="round" stroke-linejoin="round" stroke-width="2.065" points="35.233 43.027 23.206 46.289 31.96 78.959 36.678 72.487 43.989 75.697"/>
    <path fill="#FEFEFE" d="M0.0407866667,28.8934855 C0.0407866667,25.31555 4.77432,22.7110984 6.05745333,19.5995177 C7.38745333,16.3745339 5.92192,11.1770984 8.33745333,8.7459371 C10.7529867,6.31605 15.91972,7.79029194 19.1256533,6.4536629 C22.22012,5.16290484 24.8091867,0.401243548 28.36472,0.401243548 C31.92152,0.401243548 34.5105867,5.16290484 37.6037867,6.4536629 C40.8109867,7.79156613 45.97772,6.31605 48.3932533,8.74721129 C50.8087867,11.1770984 49.3419867,16.3745339 50.6732533,19.5995177 C51.9538533,22.7110984 56.68992,25.31555 56.68992,28.8934855 C56.68992,32.471421 51.9538533,35.0758726 50.6732533,38.1874532 C49.3419867,41.4124371 50.8087867,46.6098726 48.3919867,49.0423081 C45.97772,51.470921 40.8109867,49.996679 37.6037867,51.3333081 C34.5105867,52.6240661 31.92152,57.3857274 28.36472,57.3857274 C24.8091867,57.3857274 22.2188533,52.6240661 19.1256533,51.3333081 C15.91972,49.996679 10.7529867,51.470921 8.33745333,49.0410339 C5.92192,46.6098726 7.38745333,41.4124371 6.05745333,38.1874532 C4.77432,35.0758726 0.0407866667,32.471421 0.0407866667,28.8934855"/>
    <path stroke="#B5D0E7" stroke-linecap="round" stroke-linejoin="round" stroke-width="2.065" d="M0.0407866667,28.8934855 C0.0407866667,25.31555 4.77432,22.7110984 6.05745333,19.5995177 C7.38745333,16.3745339 5.92192,11.1770984 8.33745333,8.7459371 C10.7529867,6.31605 15.91972,7.79029194 19.1256533,6.4536629 C22.22012,5.16290484 24.8091867,0.401243548 28.36472,0.401243548 C31.92152,0.401243548 34.5105867,5.16290484 37.6037867,6.4536629 C40.8109867,7.79156613 45.97772,6.31605 48.3932533,8.74721129 C50.8087867,11.1770984 49.3419867,16.3745339 50.6732533,19.5995177 C51.9538533,22.7110984 56.68992,25.31555 56.68992,28.8934855 C56.68992,32.471421 51.9538533,35.0758726 50.6732533,38.1874532 C49.3419867,41.4124371 50.8087867,46.6098726 48.3919867,49.0423081 C45.97772,51.470921 40.8109867,49.996679 37.6037867,51.3333081 C34.5105867,52.6240661 31.92152,57.3857274 28.36472,57.3857274 C24.8091867,57.3857274 22.2188533,52.6240661 19.1256533,51.3333081 C15.91972,49.996679 10.7529867,51.470921 8.33745333,49.0410339 C5.92192,46.6098726 7.38745333,41.4124371 6.05745333,38.1874532 C4.77432,35.0758726 0.0407866667,32.471421 0.0407866667,28.8934855 Z"/>
    <path fill="#ED2E26" d="M30.0250667,8.7577871 C28.9965333,8.16146452 27.7324,8.16146452 26.7051333,8.7577871 L12.2917333,17.1279645 C11.2632,17.7255613 10.6311333,18.8277387 10.6311333,20.0203839 L10.6311333,36.7632871 C10.6311333,37.9559323 11.2632,39.0581097 12.2917333,39.6557065 L26.7051333,48.0258839 C27.7324,48.6222065 28.9965333,48.6222065 30.0250667,48.0258839 L44.4384667,39.6557065 C45.4657333,39.0581097 46.0978,37.9559323 46.0978,36.7632871 L46.0978,20.0203839 C46.0978,18.8277387 45.4657333,17.7255613 44.4384667,17.1279645 L30.0250667,8.7577871 Z"/>
    <path stroke="#FFF" d="M21.7262467,22.3819742 L35.0034467,22.3819742 C38.3031133,22.3819742 40.9783133,25.0717968 40.9783133,28.3923452 C40.9783133,31.7116194 38.3031133,34.4027161 35.0034467,34.4027161 L21.7262467,34.4027161 C18.4278467,34.4027161 15.75138,31.7116194 15.75138,28.3923452 C15.75138,25.0717968 18.4278467,22.3819742 21.7262467,22.3819742 Z"/>
    <path fill="#FFF" d="M34.3397133,25.7204887 C35.8065133,25.7204887 36.9959133,26.9169565 36.9959133,28.3924726 C36.9959133,29.8679887 35.8065133,31.0631823 34.3397133,31.0631823 C32.87418,31.0631823 31.6835133,29.8679887 31.6835133,28.3924726 C31.6835133,26.9169565 32.87418,25.7204887 34.3397133,25.7204887"/>
  </g>
</svg>
