<svg viewBox="0 0 69 69" xmlns="http://www.w3.org/2000/svg"><g fill="none" fill-rule="evenodd"><path d="M34.5 2C52.45 2 67 16.55 67 34.5S52.45 67 34.5 67 2 52.45 2 34.5 16.55 2 34.5 2z" stroke="#B5CFE5" stroke-width="2.2"/><path d="M34.597 9c14.138 0 25.597 11.46 25.597 25.596 0 14.135-11.46 25.594-25.597 25.594C20.459 60.19 9 48.731 9 34.596 9 20.46 20.46 9 34.597 9" fill="#ED2E26"/><path d="M34.396 23.836a6.887 6.887 0 016.777 6.182c.467 4.528 2.085 7.865 4.862 10.01-4.546.237-15.347-.24-23.384 0 2.938-1.784 4.614-5.144 5.028-10.08a6.669 6.669 0 016.717-6.112M31.794 41.968h5.008v1.048a2.502 2.502 0 01-2.504 2.503 2.502 2.502 0 01-2.504-2.503v-1.048z" fill="#FFF"/><path d="M31.794 28.914h5.008v-5.465a2.503 2.503 0 10-5.008 0v5.465zM26.848 35.859H41.84a4.197 4.197 0 014.198 4.197v.008H22.65v-.008a4.199 4.199 0 014.197-4.197" fill="#FFF"/></g></svg>