<svg viewBox="0 0 63 65" xmlns="http://www.w3.org/2000/svg"><g fill="none" fill-rule="evenodd"><path d="M30.967 15.487c8.866 0 13.32 4.743 13.32 4.743s.506 3.514.185 10.582c-.496 10.684-13.505 17.101-13.505 17.101s-13.01-6.417-13.506-17.091c-.33-7.068.186-10.581.186-10.581s4.454-4.754 13.32-4.754" stroke="#B5CFE5" stroke-width="2" stroke-linecap="round" stroke-linejoin="round"/><path d="M11.643 53.948a29.442 29.442 0 01-9.186-14.529C-1.903 23.671 7.334 7.376 23.082 3.025a29.475 29.475 0 0118.724.982M46.87 6.59a29.434 29.434 0 0112.617 17.071c4.35 15.748-4.888 32.044-20.636 36.404a29.446 29.446 0 01-22.857-3.007" stroke="#B5CFE5" stroke-width="2" stroke-linecap="round" stroke-linejoin="round"/><path stroke="#B5CFE5" stroke-width="2" stroke-linecap="round" stroke-linejoin="round" d="M47.314 13.059l-.723-6.768 6.768-.724M5.526 54.795l6.8-.454-.455-6.79"/><path d="M30.243 34.242l-3.193 3.193c-.475.476-1.26.558-1.798.104a1.22 1.22 0 01-.434-.972c0-.33.124-.661.372-.909l3.255-3.255a1.036 1.036 0 000-1.447l-3.255-3.255a1.282 1.282 0 01-.372-.909c0-.372.145-.723.434-.971.517-.434 1.323-.372 1.798.103l3.214 3.214a1.036 1.036 0 001.447 0l3.213-3.214a1.29 1.29 0 011.902.083c.434.516.351 1.302-.124 1.777l-3.214 3.214a1.036 1.036 0 000 1.446l3.255 3.255a1.29 1.29 0 01-.083 1.902c-.516.434-1.302.351-1.777-.124l-3.214-3.214c-.372-.413-1.033-.413-1.426-.02z" fill="#B5D0E7" fill-rule="nonzero"/><path d="M62.09 47.552c0 8.556-6.943 15.5-15.5 15.5-8.555 0-15.5-6.944-15.5-15.5 0-8.556 6.945-15.5 15.5-15.5 8.557 0 15.5 6.933 15.5 15.5" fill="#ED2E26" fill-rule="nonzero"/><g transform="translate(34.067 35.1)" fill="#FFF" fill-rule="nonzero"><path d="M5.115 7.688c-1.271 0-2.46.496-3.348 1.395a4.69 4.69 0 00-1.395 3.348c0 2.614 2.15 4.764 4.764 4.764h14.787c1.27 0 2.459-.496 3.348-1.395a4.732 4.732 0 001.395-3.348c0-2.615-2.15-4.764-4.764-4.764H5.115zm.02 8.06a3.256 3.256 0 01-2.335-.961 3.273 3.273 0 01-.96-2.335c0-.889.34-1.716.96-2.336a3.273 3.273 0 012.336-.96h1.89v6.602h-1.89v-.01zm3.37 0V9.145h8.08l-.031 6.603h-8.05zm14.714-3.296c0 .899-.341 1.715-.961 2.335-.62.62-1.447.961-2.335.961h-1.891V9.145h1.89c.9 0 1.716.341 2.336.961.62.62.961 1.447.961 2.346zM7.76 5.043c0 .413.331.744.724.723.413 0 .744-.33.723-.723a3.299 3.299 0 013.296-3.297c.9 0 1.716.341 2.336.961.62.62.96 1.447.96 2.336 0 .413.331.744.724.723a.734.734 0 00.517-.207.734.734 0 00.206-.516c0-2.615-2.149-4.764-4.763-4.764-2.584.01-4.723 2.15-4.723 4.764zM8.504 19.117c-.413 0-.744.33-.723.723 0 2.614 2.15 4.764 4.764 4.764 1.302 0 2.49-.538 3.348-1.395a4.735 4.735 0 001.395-3.348c0-.414-.331-.744-.724-.724-.413 0-.744.331-.723.724a3.299 3.299 0 01-3.296 3.296 3.256 3.256 0 01-2.336-.961 3.273 3.273 0 01-.96-2.335c-.021-.434-.352-.755-.745-.744z"/><circle cx="4.423" cy="12.462" r="1"/><circle cx="20.863" cy="12.441" r="1"/><circle cx="14.301" cy="14.281" r="1"/><circle cx="10.757" cy="14.281" r="1"/><circle cx="14.291" cy="10.612" r="1"/><circle cx="10.747" cy="10.623" r="1"/></g></g></svg>