<svg xmlns="http://www.w3.org/2000/svg" viewBox="0 0 52 57.97"><defs><style>.cls-1{fill:none;stroke:#b5d0e7;stroke-linecap:round;stroke-linejoin:round;stroke-width:2px}</style></defs><g id="Layer_2" data-name="Layer 2"><g id="Guides"><path id="Stroke-3" class="cls-1" d="M30 7l-6 6"/><path id="Stroke-5" class="cls-1" d="M30 7l-6-6"/><path id="Stroke-1" class="cls-1" d="M40.4 11.53A25 25 0 1126 7h3.21"/><path id="Oval-4" d="M26 16.94A15 15 0 1111 32a15 15 0 0115-15.06z" fill="#ed2e26"/><path d="M34 37.62c-.38-2.12-4.66-2-6.1-3.52v-1.51a4.83 4.83 0 001.25-2.94s.06-.62.08-.91A3.57 3.57 0 0026 24.62a3.58 3.58 0 00-3.28 4.09c0 .3.08.92.08.92a4.78 4.78 0 001.31 3v1.41c-1.41 1.57-5.75 1.42-6.13 3.55 0 .26.08 1.7.08 1.7h15.88s.12-1.41.06-1.67z" fill="#fff"/></g></g></svg>