<svg version="1.1" id="Layer_1" xmlns="http://www.w3.org/2000/svg" x="0" y="0" viewBox="0 0 64 64" xml:space="preserve"><style>.st1{fill:none;stroke:#b5cfe5;stroke-width:2;stroke-linecap:round;stroke-linejoin:round}</style><switch><g><path id="Fill-3_70_" d="M32 16.5c8.6 0 12.9 4.6 12.9 4.6s.5 3.4.2 10.2C44.6 41.6 32 47.8 32 47.8s-12.6-6.2-13.1-16.5c-.3-6.8.2-10.2.2-10.2s4.3-4.6 12.9-4.6" fill="#ed2e26"/><path class="st1" d="M13.3 53.7C9.1 50.1 6 45.3 4.4 39.6c-4.2-15.2 4.7-31 20-35.2 6.2-1.7 12.5-1.2 18.1 1M47.4 7.9c5.8 3.7 10.2 9.4 12.2 16.5 4.2 15.2-4.7 31-20 35.2-7.8 2.1-15.7.9-22.1-2.9"/><path class="st1" d="M47.8 14.1l-.7-6.5 6.6-.7M7.4 54.5l6.6-.4-.5-6.6"/><path id="Stroke-31_6_" fill="none" stroke="#fff" stroke-width="2" stroke-linecap="round" stroke-linejoin="round" d="M26.4 30l4.9 5.1 7.9-10.2"/></g></switch></svg>