<svg xmlns="http://www.w3.org/2000/svg" xmlns:xlink="http://www.w3.org/1999/xlink" width="65" height="69" viewBox="0 0 65 69">
  <defs>
    <polygon id="bug-a" points="0 68.801 64.08 68.801 64.08 .809 0 .809"/>
  </defs>
  <g fill="none" fill-rule="evenodd">
    <path fill="#ED2E26" d="M32.0187006,18.5518952 C42.4007144,18.5518952 50.815956,26.8624026 50.815956,37.1130388 C50.815956,47.3658404 42.4007144,55.6741825 32.0187006,55.6741825 C21.6388794,55.6741825 13.2236378,47.3658404 13.2236378,37.1130388 C13.2236378,26.8624026 21.6388794,18.5518952 32.0187006,18.5518952 Z"/>
    <path fill="#FFF" d="M31.8580919,28.6775923 C34.6865602,28.6775923 36.9833204,32.705092 36.9833204,37.6766722 C36.9833204,42.6460872 34.6865602,46.6746695 31.8580919,46.6746695 C29.0274309,46.6746695 26.7295744,42.6460872 26.7295744,37.6766722 C26.7295744,32.705092 29.0274309,28.6775923 31.8580919,28.6775923"/>
    <mask id="bug-b" fill="#fff">
      <use xlink:href="#bug-a"/>
    </mask>
    <polygon fill="#ED2E26" points="31.126 46.674 32.59 46.674 32.59 36.175 31.126 36.175" mask="url(#bug-b)"/>
    <path stroke="#ED2E26" stroke-linecap="round" stroke-linejoin="round" stroke-width="1.3" d="M25.5468799,32.7344321 C29.7391524,37.1289539 33.9752772,37.1289539 38.2574468,32.7344321" mask="url(#bug-b)"/>
    <path stroke="#FFF" stroke-linecap="round" stroke-linejoin="round" stroke-width="1.3" d="M24.1689334 30.2286128C29.505749 35.8151446 34.8940909 35.8151446 40.3372481 30.2286128M26.9633067 39L22.4991504 39M41.4464901 39L36.2412312 39M36.8781847 25.6484145L33.3108064 30.1771864M30.2756844 41.4421679L25.9891296 46.6746695M33.310916 41.4421679L37.5974708 46.6746695M26.8198003 25.7668577L30.2753555 30.1765368" mask="url(#bug-b)"/>
    <path fill="#B5D0E7" d="M57.187684,17.5506501 C56.7919177,17.0547912 56.0650671,16.969261 55.5651518,17.362267 C55.0630438,17.7531077 54.9786283,18.4719948 55.3776835,18.9646056 C59.5600893,24.1906112 61.7713376,30.4808728 61.7713376,37.1598098 C61.7713376,45.2028999 58.4780357,52.4913751 53.1576647,57.799663 C53.1138125,57.8310602 53.0644788,57.8483827 53.0272044,57.8851932 C52.98993,57.9220037 52.9723891,57.9739714 52.9405962,58.0161952 C47.5665063,63.27035 40.1850809,66.5226643 32.0439157,66.5226643 C23.9049431,66.5226643 16.5257102,63.27035 11.1516203,58.0226912 C11.1165385,57.9772194 11.0989976,57.9252517 11.0584343,57.8851932 C11.0189673,57.8462174 10.9663447,57.8278122 10.9202998,57.7942497 C5.60321779,52.4870445 2.30881954,45.1964039 2.30881954,37.1576445 C2.30881954,20.9686115 15.6453769,7.79478996 32.041723,7.79478996 C35.7395618,7.79478996 39.349696,8.46062661 42.7745546,9.76848134 C43.3742338,10.0012535 44.038595,9.70568699 44.2699154,9.11563663 C44.5012359,8.52558628 44.2063297,7.86732827 43.6077469,7.63888675 C39.9197749,6.23359251 36.0278901,5.51795345 32.041723,5.51795345 C14.3725661,5.51795345 1.71073067e-16,19.7116418 1.71073067e-16,37.1598098 C1.71073067e-16,45.4757305 3.28782042,53.0283751 8.61915443,58.6809492 L0.338758423,66.8561239 C-0.112919474,67.3010977 -0.112919474,68.0221501 0.338758423,68.4671238 C0.563501066,68.6890694 0.860599877,68.8005835 1.15550608,68.8005835 C1.44931597,68.8005835 1.74641478,68.6890694 1.97225373,68.4671238 L10.2504571,60.2919491 C15.9742685,65.5536825 23.6220962,68.8005835 32.041723,68.8005835 C40.4591573,68.8005835 48.1058886,65.5536825 53.8297,60.2919491 L62.1089998,68.4671238 C62.3337424,68.6890694 62.6319375,68.8005835 62.9257474,68.8005835 C63.2206536,68.8005835 63.5177524,68.6890694 63.7424951,68.4671238 C64.1930766,68.0221501 64.1930766,67.3010977 63.7424951,66.8561239 L55.4642917,58.6777012 C60.7923368,53.0251271 64.0801572,45.4735652 64.0801572,37.1576445 C64.0834461,29.9622781 61.6989815,23.1837363 57.187684,17.5506501" mask="url(#bug-b)"/>
    <path fill="#B5D0E7" d="M61.0954652,1.70298017 C60.6021277,1.30780883 59.8752771,1.38142979 59.4707404,1.87404064 L57.0402309,4.841615 L56.6620055,1.80908097 C56.5841678,1.18222013 55.9921628,0.742659683 55.3738465,0.817363306 C54.7390855,0.894232251 54.2917928,1.46371204 54.3663416,2.0873249 L55.0197397,7.31116521 L53.7260992,8.8907679 L53.3456811,5.84848992 C53.2667471,5.22162908 52.6692606,4.77665533 52.0575221,4.8556896 C51.4227612,4.93255854 50.9754685,5.50420366 51.0500173,6.12781651 L51.7034154,11.3559875 L32.9719383,34.2152961 C32.6704543,34.1243526 32.3711629,34.030161 32.0422712,34.030161 C30.2947601,34.030161 28.8684666,35.4354553 28.8684666,37.1601346 C28.8684666,38.8880619 30.2925675,40.2944388 32.0422712,40.2944388 C33.7908786,40.2944388 35.2149795,38.8880619 35.2149795,37.1601346 C35.2149795,36.6014814 35.026415,36.1056226 34.7633016,35.6487395 L53.5156085,12.7645297 L58.8041866,12.2167031 C59.3950953,12.1571568 59.8380028,11.6602153 59.8380028,11.0853222 C59.8380028,11.0452637 59.8347138,11.0052052 59.8292323,10.9662294 C59.7623577,10.3415339 59.2339384,9.88248556 58.5608068,9.95069322 L55.5678925,10.261417 L56.8242587,8.72728606 L62.1183183,8.17945949 C62.7103234,8.12099579 63.1510382,7.62513695 63.1510382,7.04807853 C63.1510382,7.00802007 63.1477493,6.9679616 63.1422678,6.9289858 C63.0797783,6.30429029 62.565611,5.84524194 61.8749385,5.91453225 L58.8765428,6.22525602 L61.2599111,3.31398004 C61.6666405,2.81812121 61.5920917,2.10248215 61.0954652,1.70298017" mask="url(#bug-b)"/>
  </g>
</svg>
