<svg xmlns="http://www.w3.org/2000/svg" width="47" height="64" viewBox="0 0 47 64">
  <g fill="none" fill-rule="evenodd" transform="translate(1)">
    <polygon fill="#FFF" points="16.939 34.452 26.435 37.013 19.523 62.652 15.799 57.573 10.026 60.093"/>
    <polygon stroke="#B5D0E7" stroke-linecap="round" stroke-linejoin="round" stroke-width="2" points="16.939 34.452 26.435 37.013 19.523 62.652 15.799 57.573 10.026 60.093"/>
    <polygon fill="#FFF" points="27.783 34.452 18.287 37.013 25.199 62.652 28.924 57.573 34.696 60.093"/>
    <g transform="translate(0 .652)">
      <polygon stroke="#B5D0E7" stroke-linecap="round" stroke-linejoin="round" stroke-width="2" points="27.783 33.8 18.287 36.361 25.199 62 28.924 56.921 34.696 59.441"/>
      <path fill="#F7FAFC" d="M0.0002,22.7089 C0.0002,19.8999 3.7372,17.8559 4.7502,15.4149 C5.7992,12.8839 4.6422,8.8049 6.5492,6.8959 C8.4572,4.9889 12.5362,6.1469 15.0672,5.0979 C17.5092,4.0849 19.5532,0.3479 22.3612,0.3479 C25.1682,0.3479 27.2122,4.0849 29.6552,5.0979 C32.1862,6.1469 36.2652,4.9889 38.1722,6.8969 C40.0802,8.8049 38.9212,12.8839 39.9722,15.4149 C40.9842,17.8559 44.7222,19.8999 44.7222,22.7089 C44.7222,25.5169 40.9842,27.5609 39.9722,30.0029 C38.9212,32.5329 40.0802,36.6119 38.1712,38.5209 C36.2652,40.4279 32.1862,39.2709 29.6552,40.3189 C27.2122,41.3329 25.1682,45.0689 22.3612,45.0689 C19.5532,45.0689 17.5082,41.3329 15.0672,40.3189 C12.5362,39.2699 8.4572,40.4279 6.5492,38.5199 C4.6422,36.6119 5.7992,32.5329 4.7502,30.0029 C3.7372,27.5609 0.0002,25.5169 0.0002,22.7089"/>
      <path stroke="#B5D0E7" stroke-linecap="round" stroke-linejoin="round" stroke-width="2" d="M0.0002,22.7089 C0.0002,19.8999 3.7372,17.8559 4.7502,15.4149 C5.7992,12.8839 4.6422,8.8049 6.5492,6.8959 C8.4572,4.9889 12.5362,6.1469 15.0672,5.0979 C17.5092,4.0849 19.5532,0.3479 22.3612,0.3479 C25.1682,0.3479 27.2122,4.0849 29.6552,5.0979 C32.1862,6.1469 36.2652,4.9889 38.1722,6.8969 C40.0802,8.8049 38.9212,12.8839 39.9722,15.4149 C40.9842,17.8559 44.7222,19.8999 44.7222,22.7089 C44.7222,25.5169 40.9842,27.5609 39.9722,30.0029 C38.9212,32.5329 40.0802,36.6119 38.1712,38.5209 C36.2652,40.4279 32.1862,39.2709 29.6552,40.3189 C27.2122,41.3329 25.1682,45.0689 22.3612,45.0689 C19.5532,45.0689 17.5082,41.3329 15.0672,40.3189 C12.5362,39.2699 8.4572,40.4279 6.5492,38.5199 C4.6422,36.6119 5.7992,32.5329 4.7502,30.0029 C3.7372,27.5609 0.0002,25.5169 0.0002,22.7089 Z"/>
      <path fill="#EE3C39" d="M23.1506,8.9999 C31.2906,8.9999 35.3836,13.3539 35.3836,13.3539 C35.3836,13.3539 35.8516,16.5789 35.5526,23.0699 C35.1016,32.8759 23.1536,38.7649 23.1526,38.7659 C23.1516,38.7659 11.2036,32.8759 10.7526,23.0699 C10.4536,16.5789 10.9216,13.3539 10.9216,13.3539 C10.9216,13.3539 15.0106,8.9999 23.1506,8.9999"/>
      <path fill="#FFF" d="M17.0422,21.8896 C17.0422,18.4226 19.7832,15.6016 23.1522,15.6016 C26.5242,15.6016 29.2672,18.3446 29.2672,21.7166 C29.2672,24.4086 26.9542,26.6236 25.1702,27.7616 C25.8622,28.1556 27.3882,28.5706 28.8502,28.7046 C30.9852,27.0526 32.2882,24.4986 32.2882,21.7166 C32.2882,16.6796 28.1892,12.5816 23.1522,12.5816 C18.1152,12.5816 14.0172,16.6796 14.0172,21.7166 C14.0172,24.7586 15.2842,27.4616 17.6802,29.5326 C19.9212,31.4686 23.1982,32.7606 26.9292,33.3726 C27.7382,32.9256 29.1212,31.6076 29.6392,30.8346 C26.5222,30.4346 23.5732,29.6746 21.5962,28.6366 C18.5742,27.0516 17.0422,24.7816 17.0422,21.8896"/>
    </g>
  </g>
</svg>
