<svg xmlns="http://www.w3.org/2000/svg" xmlns:xlink="http://www.w3.org/1999/xlink" width="68" height="73" viewBox="0 0 68 73">
  <defs>
    <polygon id="changes-a" points=".043 .242 50.207 .242 50.207 66.544 .043 66.544 .043 .242"/>
    <polygon id="changes-c" points="36.966 .085 36.966 36.944 .052 36.944 .052 .085 36.966 .085"/>
  </defs>
  <g fill="none" fill-rule="evenodd" transform="translate(1)">
    <polygon stroke="#B5D0E7" stroke-linecap="round" stroke-linejoin="round" stroke-width="2" points="0 7 0 70 48 70 48 22.052 41.242 14.237 34.389 7"/>
    <g transform="translate(5)">
      <mask id="changes-b" fill="#fff">
        <use xlink:href="#changes-a"/>
      </mask>
      <path fill="#FFF" d="M1.2966439,0.2412 L35.439278,0.2412 C35.7900585,0.2412 36.1172049,0.386366667 36.358522,0.6432 L43.1639122,7.9734963 C43.1813268,7.9859037 43.192522,8.00203333 43.2037171,8.01568148 L49.9120829,15.9328481 C50.1048878,16.1574222 50.2068878,16.4427926 50.2068878,16.7405704 L50.2068878,65.2944778 C50.2068878,65.9855704 49.6458878,66.5439037 48.9530341,66.5439037 L1.2966439,66.5439037 C0.602546341,66.5439037 0.0427902439,65.9855704 0.0427902439,65.2944778 L0.0427902439,1.49310741 C0.0427902439,0.800774074 0.602546341,0.2412 1.2966439,0.2412" mask="url(#changes-b)"/>
    </g>
    <polygon stroke="#B5D0E7" stroke-linecap="round" stroke-linejoin="round" stroke-width="2" points="6 1 6 64 54 64 54 16.056 47.242 8.237 40.389 1"/>
    <polyline stroke="#B5D0E7" stroke-linecap="round" stroke-linejoin="round" stroke-width="2" points="53 16 41 16 41 3"/>
    <path stroke="#B5D0E7" stroke-linecap="round" stroke-linejoin="round" stroke-width="2" d="M12 7L31 7M12 14L36 14M12 19L36 19M12 25L48 25"/>
    <g transform="translate(30 36)">
      <mask id="changes-d" fill="#fff">
        <use xlink:href="#changes-c"/>
      </mask>
      <path fill="#ED2E26" d="M18.5354109,0.0854250896 L18.5354109,0.0854250896 C28.7285869,0.101360573 36.9808487,8.36329606 36.9661169,18.5423928 C36.9513851,28.719038 28.675798,36.958909 18.4826219,36.9441993 C8.2894459,36.9307154 0.0371841475,28.6663283 0.0519159447,18.4896832 C0.0666477419,8.31058638 8.34223484,0.0707154122 18.5354109,0.0854250896" mask="url(#changes-d)"/>
    </g>
    <path stroke="#B5D0E7" stroke-linecap="round" stroke-linejoin="round" stroke-width="2" d="M32,33 L12,33"/>
    <path fill="#B5D0E6" d="M14,33.5005599 C14,32.1198208 15.1198208,31 16.5005599,31 C17.881299,31 19,32.1198208 19,33.5005599 C19,34.8801792 17.881299,36 16.5005599,36 C15.1198208,36 14,34.8801792 14,33.5005599"/>
    <path stroke="#B5D0E6" stroke-linecap="round" stroke-linejoin="round" d="M14,33.5005599 C14,32.1198208 15.1198208,31 16.5005599,31 C17.881299,31 19,32.1198208 19,33.5005599 C19,34.8801792 17.881299,36 16.5005599,36 C15.1198208,36 14,34.8801792 14,33.5005599 Z"/>
    <path stroke="#B5D0E7" stroke-linecap="round" stroke-linejoin="round" stroke-width="2" d="M24,52 L12,52"/>
    <path fill="#B5D0E6" d="M14,51.4994401 C14,50.1198208 15.1198208,49 16.5005599,49 C17.881299,49 19,50.1198208 19,51.4994401 C19,52.8801792 17.881299,54 16.5005599,54 C15.1198208,54 14,52.8801792 14,51.4994401"/>
    <path stroke="#B5D0E6" stroke-linecap="round" stroke-linejoin="round" d="M14,51.4994401 C14,50.1198208 15.1198208,49 16.5005599,49 C17.881299,49 19,50.1198208 19,51.4994401 C19,52.8801792 17.881299,54 16.5005599,54 C15.1198208,54 14,52.8801792 14,51.4994401 Z"/>
    <path stroke="#B5D0E6" stroke-linecap="round" stroke-linejoin="round" stroke-width="2" d="M30,42 L12,42"/>
    <path fill="#B5D0E6" d="M20,41.5 C20,40.1195701 21.1198208,39 22.5005599,39 C23.881299,39 25,40.1195701 25,41.5 C25,42.8804299 23.881299,44 22.5005599,44 C21.1198208,44 20,42.8804299 20,41.5"/>
    <path stroke="#B5D0E6" stroke-linecap="round" stroke-linejoin="round" d="M20,41.5 C20,40.1195701 21.1198208,39 22.5005599,39 C23.881299,39 25,40.1195701 25,41.5 C25,42.8804299 23.881299,44 22.5005599,44 C21.1198208,44 20,42.8804299 20,41.5 Z"/>
    <path stroke="#FFF" stroke-width="2" d="M48,48 C51.8655944,48 55,51.134237 55,55.0006122 C55,58.865763 51.8655944,62 48,62 C44.1344056,62 41,58.865763 41,55.0006122 C41,51.134237 44.1344056,48 48,48 Z"/>
    <polygon fill="#ED2E26" points="36 54 41.652 49 47 53.731"/>
    <polygon fill="#FFF" points="38 56 40.569 53 43 55.838"/>
    <polygon fill="#ED2E26" points="48 54 54.681 60 61 54.324"/>
    <polygon fill="#FFF" points="51 53 54.083 56 57 53.163"/>
  </g>
</svg>
