<svg version="1.1" id="Layer_1" xmlns="http://www.w3.org/2000/svg" x="0" y="0" viewBox="0 0 64 64" xml:space="preserve"><style>.st2,.st3{fill:none;stroke:#b5d0e7;stroke-width:1.4002;stroke-linecap:round;stroke-linejoin:round}.st3{fill:#b5d0e7}</style><path id="Fill-41_8_" d="M32 22.2c5.4 0 8.1 2.9 8.1 2.9s.3 2.1.1 6.4c-.3 6.4-8.2 10.3-8.2 10.3s-7.9-3.9-8.2-10.4c-.2-4.3.1-6.4.1-6.4s2.7-2.8 8.1-2.8" fill="#ee3d3a"/><path id="Fill-43_9_" d="M28 30.7c0-2.3 1.8-4.2 4-4.2s4 1.8 4 4c0 1.8-1.5 3.2-2.7 4 .5.3 1.5.5 2.4.6 1.4-1.1 2.3-2.8 2.3-4.6 0-3.3-2.7-6-6-6s-6 2.7-6 6c0 2 .8 3.8 2.4 5.2 1.5 1.3 3.6 2.1 6.1 2.5.5-.3 1.4-1.2 1.8-1.7-2.1-.3-4-.8-5.3-1.5-2-.9-3-2.4-3-4.3" fill="#fff"/><path class="st2" d="M39.3 43.7c-2.1 1.3-4.6 2.1-7.3 2.1-7.6 0-13.8-6.2-13.8-13.8S24.4 18.2 32 18.2h.7"/><path class="st3" d="M37.3 41.9l4.8-.1-2.3 4.2zM43.5 19.5L40 12.7l7.8.2z"/><path class="st2" d="M20.6 14.8c.7-.4 1.3-.8 2-1.2M15.3 19.8c.6-.8 1.3-1.6 2-2.4M11.3 32c0-2.4.4-4.7 1.1-6.8M45 15.9c4.7 3.8 7.7 9.6 7.7 16.1 0 11.4-9.3 20.7-20.7 20.7-9.6 0-17.7-6.6-20-15.4"/><circle cx="32" cy="32" r="26.6" fill="none" stroke="#ed2e26" stroke-width="1.339" stroke-miterlimit="10"/></svg>