<svg xmlns="http://www.w3.org/2000/svg" viewBox="0 0 54.97 58.81"><defs><style>.cls-1,.cls-4{fill:none;stroke-linecap:round;stroke-linejoin:round}.cls-1{stroke:#b5d0e7;stroke-width:2px}.cls-2{fill:#fff}.cls-3{fill:#b5d0e6}.cls-4{stroke:#b5d0e6}</style></defs><g id="Layer_2" data-name="Layer 2"><g id="Icons"><g id="Page-1"><g id="Comprehensive_-customizable-reports" data-name="Comprehensive,-customizable-reports"><g id="Paper"><path id="Rectangle" class="cls-1" d="M1 6.05v51.42h38.31V18.34L33.92 12l-5.47-5.95z"/><g id="Rectangle-2" data-name="Rectangle"><path id="path-1" class="cls-2" d="M6 0h27.49a1 1 0 01.74.32l5.47 5.91 5.4 6.38a1 1 0 01.23.65v39.17a1 1 0 01-1 1H6a1 1 0 01-1-1V1a1 1 0 011-1z"/><path class="cls-1" d="M6 1v51.43h38.35V13.3L39 6.92 33.49 1z"/></g><path id="Path-2" class="cls-1" d="M43.72 12.68h-9.45V2.02"/></g><path id="Path-17" class="cls-1" d="M10.47 5.62h15.28"/><path id="Path-17-2" data-name="Path-17" class="cls-1" d="M10.47 10.67h19.31"/><path id="Path-17-3" data-name="Path-17" class="cls-1" d="M10.47 15.71h19.31"/><path id="Path-17-4" data-name="Path-17" class="cls-1" d="M10.47 20.75h29.39"/></g></g><path id="Stroke-21" class="cls-1" d="M26.72 26.72H10.47"/><path id="Fill-29" class="cls-3" d="M12.24 26.72A2.24 2.24 0 1114.48 29a2.23 2.23 0 01-2.24-2.23"/><path id="Stroke-31" class="cls-4" d="M12.24 26.72A2.24 2.24 0 1114.48 29a2.23 2.23 0 01-2.24-2.28z"/><path id="Stroke-21-2" data-name="Stroke-21" class="cls-1" d="M19.8 41.65h-9.33"/><path id="Fill-29-2" data-name="Fill-29" class="cls-3" d="M12.24 41.65a2.24 2.24 0 112.24 2.23 2.23 2.23 0 01-2.24-2.23"/><path id="Stroke-31-2" data-name="Stroke-31" class="cls-4" d="M12.24 41.65a2.24 2.24 0 112.24 2.23 2.23 2.23 0 01-2.24-2.23z"/><path id="Stroke-23" d="M24.9 34.19H10.47" stroke="#b5d0e6" stroke-width="2" fill="none" stroke-linecap="round" stroke-linejoin="round"/><path id="Fill-33" class="cls-3" d="M17 34.19a2.23 2.23 0 112.23 2.23A2.23 2.23 0 0117 34.19"/><path id="Stroke-35" class="cls-4" d="M17 34.19a2.23 2.23 0 112.23 2.23A2.23 2.23 0 0117 34.19z"/><path id="Fill-7" d="M40.06 28.74A15 15 0 0155 43.89 15 15 0 0139.82 58.8 15 15 0 0124.9 43.65a15 15 0 0115.16-14.91" fill="#ed2e26"/><path id="Fill-9" class="cls-2" d="M39.94 35.69c-6.89 0-9.76 7.23-9.88 7.54a1.54 1.54 0 000 1c.75 2.65 3.79 7.67 9.93 7.67s9.17-5 9.92-7.67a1.54 1.54 0 000-1c-.12-.31-3-7.54-9.88-7.54m0 1.5c5.93 0 8.48 6.58 8.48 6.58s-1.86 6.58-8.48 6.58-8.48-6.58-8.48-6.58 2.54-6.58 8.48-6.58"/><path id="Stroke-11" d="M36.26 43.77a3.68 3.68 0 113.68 3.68 3.68 3.68 0 01-3.68-3.68z" stroke="#fff" stroke-width="1.5" fill="none" stroke-linecap="round" stroke-linejoin="round"/></g></g></svg>