<svg viewBox="0 0 68 54" xmlns="http://www.w3.org/2000/svg" xmlns:xlink="http://www.w3.org/1999/xlink"><defs><path id="a" d="M30.993.931V31H.924V.931h30.069z"/></defs><g fill="none" fill-rule="evenodd"><path d="M56.002 18.024c-.49 0-.968.044-1.439.108-.992-4.149-4.694-7.235-9.123-7.235a9.3 9.3 0 00-4.288 1.048C38.852 5.58 32.852 1 25.727 1 16.623 1 9.242 8.424 9.242 17.58c0 .13.035.25.039.38C4.529 19.179 1 23.475 1 28.634c0 .073.01.143.011.215-.001.08-.011.158-.011.239 0 5.015 3.323 9.242 7.87 10.6h50.26a11.055 11.055 0 007.87-10.6c0-6.114-4.926-11.064-10.998-11.064z" stroke="#B5D0E7" stroke-width="2" stroke-linecap="round" stroke-linejoin="round"/><g transform="translate(17 22.277)"><mask id="b" fill="#fff"><use xlink:href="#a"/></mask><path d="M15.98.931c8.303.012 15.025 6.753 15.013 15.056C30.981 24.29 24.24 31.012 15.937 31 7.634 30.988.912 24.247.924 15.944.936 7.641 7.677.92 15.98.931" fill="#ED2E26" mask="url(#b)"/></g><path d="M32.959 30.214c-6.886 0-9.761 7.232-9.88 7.54a1.504 1.504 0 00-.044.949c.75 2.653 3.79 7.672 9.924 7.672 6.133 0 9.173-5.02 9.924-7.672a1.504 1.504 0 00-.044-.95c-.12-.307-2.994-7.54-9.88-7.54m0 1.5c5.937 0 8.48 6.58 8.48 6.58s-1.861 6.582-8.48 6.582c-6.62 0-8.481-6.581-8.481-6.581s2.544-6.58 8.48-6.58" fill="#FEFEFE"/><path d="M29.28 38.294a3.68 3.68 0 117.36.001 3.68 3.68 0 01-7.36 0z" stroke="#FEFEFE" stroke-width="1.5" stroke-linecap="round" stroke-linejoin="round"/></g></svg>