<svg version="1.0" xmlns="http://www.w3.org/2000/svg" viewBox="0 0 52.2 55.9"><path fill="none" d="M21.5 38.5c-8.4 0-15.6-1.4-19.2-3.5H2v10.5c.3 1.2 6.7 4.3 19.5 4.3 1.2 0 2.3 0 3.4-.1V38.4c-1.1 0-2.2.1-3.4.1zM15.3 45c-.1 0-.1 0 0 0-.6-.1-1-.5-1-1.1 0-.5.5-.9 1.1-.9.5.1 1 .5.9 1.1-.1.6-.5.9-1 .9zm6.2.3c-.5 0-1-.5-1-1 0-.6.5-1 1-1s1 .4 1 1-.5 1-1 1zM35 21.7c1.2-.3 2.3-.7 3.2-1 .9-.3 1.5-.7 2-1 .5-.3.8-.6.8-.9V8.9c-3.4 2.2-10.8 3.7-19.5 3.7S5.4 11.1 2 8.9v9.9c.1.2.3.5.8.8.5.3 1.1.7 2 1 .9.3 1.9.7 3.2 1 3.2.8 7.7 1.5 13.5 1.5s10.3-.6 13.5-1.4zm-7.4-4.5c.6 0 1 .4 1.1.9.1.5-.4 1-.9 1.1h-.1c-.5 0-1-.4-1-.9 0-.6.4-1.1.9-1.1zm-12.3 2c-.1 0-.1 0 0 0-.6-.1-1-.5-1-1.1 0-.6.5-1 1.1-.9.5 0 1 .5.9 1.1-.1.5-.5.9-1 .9zm5.2-.8c0-.6.5-1 1-1s1 .4 1 1c0 .5-.5 1-1 1s-1-.4-1-1z"/><path fill="none" d="M37.7 8.3c.9-.3 1.6-.7 2.2-1 .6-.4 1-.7 1.1-1C40.7 5.1 34.3 2 21.5 2 8.8 2 2.3 5.1 2 6.3c.1.2.4.6 1.1 1 .5.3 1.3.7 2.2 1 3.1 1.2 8.5 2.3 16.2 2.3 7.7 0 13.1-1.1 16.2-2.3zM24.9 36.4v-6.7c0-.3.1-.5.3-.7.2-.2.5-.3.7-.3h15v-7h-.3c-3.5 2.1-10.8 3.5-19.2 3.5-8.4 0-15.6-1.4-19.2-3.5H2v10.5c.1.2.3.5.8.8.5.3 1.1.7 2 1 .9.3 1.9.7 3.2 1 3.2.8 7.7 1.5 13.5 1.5 1.2 0 2.3-.1 3.4-.1zm-9.6-4.7c-.1 0-.1 0 0 0-.6-.1-1-.5-1-1.1 0-.6.5-1 1.1-.9.5 0 1 .5.9 1.1-.1.5-.5.9-1 .9zm5.2-.7c0-.5.5-1 1-1s1 .5 1 1c0 .6-.5 1-1 1s-1-.5-1-1z"/><path fill="#B5D0E7" d="M43 6.3C43 2.8 33.4 0 21.5 0S0 2.8 0 6.3v12.5c0 .3.1.6.2.8H0v12.5c0 .3.1.6.2.8H0v12.5c0 3.5 9.6 6.3 21.5 6.3 1.2 0 2.3 0 3.4-.1v-2c-1.1.1-2.2.1-3.4.1-12.8.1-19.2-3-19.5-4.2V35h.3c3.5 2.1 10.8 3.5 19.2 3.5 1.2 0 2.3 0 3.4-.1v-2c-1.1.1-2.2.1-3.4.1-5.8 0-10.3-.6-13.5-1.5-1.3-.3-2.3-.7-3.2-1-.9-.3-1.5-.7-2-1-.5-.3-.8-.6-.8-.8V21.7h.3c3.5 2.1 10.8 3.5 19.2 3.5 8.4 0 15.6-1.4 19.2-3.5h.3v7h2v-9h-.2c.1-.3.2-.6.2-.8V6.3zm-2.8 13.4c-.5.3-1.1.7-2 1-.9.3-1.9.7-3.2 1-3.2.8-7.7 1.5-13.5 1.5S11.2 22.6 8 21.7c-1.2-.3-2.3-.7-3.2-1-.9-.3-1.5-.7-2-1-.5-.4-.7-.7-.8-.9V8.9c3.4 2.2 10.8 3.7 19.5 3.7S37.6 11.1 41 8.9v9.9c-.1.2-.3.5-.8.9zM41 6.3c-.1.3-.4.6-1.1 1-.5.3-1.3.7-2.2 1-3.1 1.2-8.5 2.3-16.2 2.3-7.7 0-13.1-1.1-16.2-2.3-1-.3-1.7-.7-2.2-1-.6-.4-1-.7-1.1-1C2.3 5.1 8.8 2 21.5 2 34.3 2 40.7 5.1 41 6.3z"/><path fill="#ED2E26" d="M15.4 17.2c-.6 0-1 .4-1.1.9 0 .5.4 1 .9 1.1h.1c.5 0 .9-.4 1-.9 0-.6-.4-1.1-.9-1.1z"/><circle fill="#ED2E26" cx="21.5" cy="18.4" r="1"/><path fill="#ED2E26" d="M27.7 19.2s.1 0 0 0c.6-.1 1-.5 1-1.1 0-.6-.5-1-1.1-.9-.5 0-1 .5-.9 1.1.1.5.5.9 1 .9z"/><circle fill="#ED2E26" cx="21.5" cy="31" r="1"/><path fill="#ED2E26" d="M15.4 29.7c-.6 0-1 .4-1.1.9 0 .5.4 1 .9 1.1h.1c.5 0 .9-.4 1-.9 0-.6-.4-1.1-.9-1.1zM15.4 43c-.6 0-1 .4-1.1.9 0 .6.4 1 .9 1.1h.1c.5 0 .9-.4 1-.9 0-.5-.4-1-.9-1.1z"/><circle fill="#ED2E26" cx="21.5" cy="44.3" r="1"/><path fill="#E52823" d="M43.1 44.1s0-.1-.1-.1v.4h.4l-.3-.3z"/><path fill="#E52823" d="M51.9 28.9c-.2-.2-.5-.3-.7-.3H26c-.3 0-.5.1-.7.3-.2.2-.3.5-.3.7V54.8c0 .6.5 1.1 1 1.1h25.2c.6 0 1-.5 1-1.1V29.7c0-.3-.1-.6-.3-.8zM34.1 42c-.2.2-.5.3-.7.3-.3 0-.5-.1-.7-.3l-2.1-2.1c-.4-.4-.4-1.1 0-1.5l.6-.6 1.2-1.2.3-.3c.4-.4 1.1-.4 1.5 0 .3.3.3.6.3 1 0 .2-.1.4-.3.5l-.3.3h7.8c.1 0 .2 0 .3.1.4.1.8.5.8 1s-.3.9-.8 1c-.1 0-.2.1-.3.1h-7.9l.3.3c.4.3.4.9 0 1.4zm12.6 4.2l-2.1 2.1c-.2.2-.5.3-.7.3-.3 0-.5-.1-.7-.3-.4-.4-.4-1.1 0-1.5l.3-.3h-8.1c-.6 0-1.1-.5-1.1-1.1s.5-1.1 1.1-1.1H43v-.4c-.3-.4-.3-.9 0-1.2 0 0 0-.1.1-.1.4-.4 1.1-.4 1.5 0l2.1 2.1c.4.4.4 1 0 1.5z"/></svg>