<svg xmlns="http://www.w3.org/2000/svg" width="56" height="72" viewBox="0 0 56 72">
  <g fill="none" fill-rule="evenodd" transform="translate(1 1)">
    <g transform="translate(5 20)">
      <path stroke="#EB3027" stroke-width="2" d="M4.37598947,31.4512171 L14.0675684,31.4512171 C16.4759895,31.4512171 18.4293579,33.4274171 18.4293579,35.8639886 C18.4293579,38.30056 16.4759895,40.2744171 14.0675684,40.2744171 L4.37598947,40.2744171 C1.96756842,40.2744171 0.0142,38.30056 0.0142,35.8639886 C0.0142,33.4274171 1.96756842,31.4512171 4.37598947,31.4512171 Z"/>
      <path fill="#EB3027" d="M13.5826421,33.9027829 C14.6536947,33.9027829 15.5209579,34.7801829 15.5209579,35.8637543 C15.5209579,36.9461543 14.6536947,37.8247257 13.5826421,37.8247257 C12.5127474,37.8247257 11.6443263,36.9461543 11.6443263,35.8637543 C11.6443263,34.7801829 12.5127474,33.9027829 13.5826421,33.9027829"/>
      <path stroke="#B5D0E6" stroke-width="2" d="M4.37598947,15.9333029 L14.0675684,15.9333029 C16.4759895,15.9333029 18.4293579,17.9095029 18.4293579,20.3460743 C18.4293579,22.7826457 16.4759895,24.7576743 14.0675684,24.7576743 L4.37598947,24.7576743 C1.96756842,24.7576743 0.0142,22.7826457 0.0142,20.3460743 C0.0142,17.9095029 1.96756842,15.9333029 4.37598947,15.9333029 Z"/>
      <path fill="#B5D0E6" d="M4.74350526,18.3847514 C5.81455789,18.3847514 6.68182105,19.2621514 6.68182105,20.3457229 C6.68182105,21.4281229 5.81455789,22.3066943 4.74350526,22.3066943 C3.67245263,22.3066943 2.80518947,21.4281229 2.80518947,20.3457229 C2.80518947,19.2621514 3.67245263,18.3847514 4.74350526,18.3847514"/>
      <path stroke="#B5D0E6" stroke-width="2" d="M4.37598947,0.507345714 L14.0675684,0.507345714 C16.4759895,0.507345714 18.4293579,2.48354571 18.4293579,4.92011714 C18.4293579,7.35668857 16.4759895,9.33171714 14.0675684,9.33171714 L4.37598947,9.33171714 C1.96756842,9.33171714 0.0142,7.35668857 0.0142,4.92011714 C0.0142,2.48354571 1.96756842,0.507345714 4.37598947,0.507345714 Z"/>
      <path fill="#B5D0E6" d="M4.74350526,2.95891143 C5.81455789,2.95891143 6.68182105,3.83748286 6.68182105,4.91988286 C6.68182105,6.00228286 5.81455789,6.88085429 4.74350526,6.88085429 C3.67245263,6.88085429 2.80518947,6.00228286 2.80518947,4.91988286 C2.80518947,3.83748286 3.67245263,2.95891143 4.74350526,2.95891143"/>
      <path stroke="#B5D0E6" stroke-width="2" d="M28.2258421,31.4512171 L37.9174211,31.4512171 C40.3258421,31.4512171 42.2780526,33.4274171 42.2780526,35.8639886 C42.2780526,38.30056 40.3258421,40.2744171 37.9174211,40.2744171 L28.2258421,40.2744171 C25.8174211,40.2744171 23.8640526,38.30056 23.8640526,35.8639886 C23.8640526,33.4274171 25.8174211,31.4512171 28.2258421,31.4512171 Z"/>
      <path fill="#B5D0E6" d="M28.5933579,33.9027829 C29.6632526,33.9027829 30.5316737,34.7801829 30.5316737,35.8637543 C30.5316737,36.9461543 29.6632526,37.8247257 28.5933579,37.8247257 C27.5223053,37.8247257 26.6550421,36.9461543 26.6550421,35.8637543 C26.6550421,34.7801829 27.5223053,33.9027829 28.5933579,33.9027829"/>
      <path stroke="#B5D0E6" stroke-width="2" d="M28.2258421,15.9333029 L37.9174211,15.9333029 C40.3258421,15.9333029 42.2780526,17.9095029 42.2780526,20.3460743 C42.2780526,22.7826457 40.3258421,24.7576743 37.9174211,24.7576743 L28.2258421,24.7576743 C25.8174211,24.7576743 23.8640526,22.7826457 23.8640526,20.3460743 C23.8640526,17.9095029 25.8174211,15.9333029 28.2258421,15.9333029 Z"/>
      <path fill="#B5D0E6" d="M28.5933579,18.3847514 C29.6632526,18.3847514 30.5316737,19.2621514 30.5316737,20.3457229 C30.5316737,21.4281229 29.6632526,22.3066943 28.5933579,22.3066943 C27.5223053,22.3066943 26.6550421,21.4281229 26.6550421,20.3457229 C26.6550421,19.2621514 27.5223053,18.3847514 28.5933579,18.3847514"/>
      <path stroke="#B5D0E6" stroke-width="2" d="M28.2258421,0.507345714 L37.9174211,0.507345714 C40.3258421,0.507345714 42.2780526,2.48354571 42.2780526,4.92011714 C42.2780526,7.35668857 40.3258421,9.33171714 37.9174211,9.33171714 L28.2258421,9.33171714 C25.8174211,9.33171714 23.8640526,7.35668857 23.8640526,4.92011714 C23.8640526,2.48354571 25.8174211,0.507345714 28.2258421,0.507345714 Z"/>
      <path fill="#B5D0E6" d="M28.5933579,2.95891143 C29.6632526,2.95891143 30.5316737,3.83748286 30.5316737,4.91988286 C30.5316737,6.00228286 29.6632526,6.88085429 28.5933579,6.88085429 C27.5223053,6.88085429 26.6550421,6.00228286 26.6550421,4.91988286 C26.6550421,3.83748286 27.5223053,2.95891143 28.5933579,2.95891143"/>
    </g>
    <polygon stroke="#B5D0E7" stroke-width="2" points="0 70 53.142 70 53.142 10.5 0 10.5"/>
    <path stroke="#B5D0E7" stroke-width="2" d="M27.1451106,0 C30.000217,0 32.3153234,2.35083333 32.3153234,5.25 C32.3153234,8.14916667 30.000217,10.5 27.1451106,10.5 C24.2900043,10.5 21.9748979,8.14916667 21.9748979,5.25 C21.9748979,2.35083333 24.2900043,0 27.1451106,0 Z"/>
    <polygon fill="#FFF" points="13.932 11.667 39.209 11.667 39.209 4.667 13.932 4.667"/>
    <polygon stroke="#B5D0E7" stroke-width="2" points="15.081 10.5 38.06 10.5 38.06 5.833 15.081 5.833"/>
  </g>
</svg>
