<svg xmlns="http://www.w3.org/2000/svg" xmlns:xlink="http://www.w3.org/1999/xlink" width="63" height="72" viewBox="0 0 63 72">
  <defs>
    <polygon id="config-content-a" points="0 72 63 72 63 0 0 0"/>
  </defs>
  <g fill="none" fill-rule="evenodd">
    <mask id="config-content-b" fill="#fff">
      <use xlink:href="#config-content-a"/>
    </mask>
    <path fill="#B5CFE5" d="M7.26552873,69.7393446 L56.7332956,69.7393446 L56.7332956,39.7528288 L7.26552873,39.7528288 L7.26552873,69.7393446 Z M15.6857242,26.3636044 L15.6857242,37.4921733 L8.25427271,37.4921733 L15.6857242,26.3636044 Z M17.9524286,24.2694495 L45.9335307,24.2917277 L45.9335307,37.4921733 L17.9524286,37.4921733 L17.9524286,24.2694495 Z M48.1990595,26.1830334 L55.746903,37.4921733 L48.1990595,37.4921733 L48.1990595,26.1830334 Z M58.8107161,37.9799496 L55.5493893,33.1080495 C52.2433868,28.1646245 48.5693976,22.6736237 48.4718164,22.5247113 C48.2601946,22.2010905 47.9074917,22.0099666 47.5242211,22.0099666 C43.5680695,22.0134842 39.5789989,22.008794 35.6592933,22.0041039 C28.8403692,22.0005863 22.2318913,21.9947236 16.3593869,22.0099666 C16.0266704,22.0111391 15.7198189,22.2046081 15.5317106,22.5200211 L5.21162178,37.9600164 C5.02468921,38.2402533 5,38.5228352 5,38.7374099 L5,70.8708448 C5,71.4817377 5.51847336,72 6.1333522,72 L57.8666478,72 C58.480351,72 59,71.4817377 59,70.8708448 L59,38.6916808 C59,38.5064197 58.9800135,38.233218 58.8107161,37.9799496 L58.8107161,37.9799496 Z" mask="url(#config-content-b)"/>
    <path fill="#EB3027" d="M58.6319129,11.973262 C58.1411301,11.4860565 57.3470805,11.4860565 56.8562977,11.973262 L33.2558947,35.4027931 L33.2558947,12.2467406 C33.2558947,11.5584479 32.6933465,11 32,11 C31.3066535,11 30.7441053,11.5584479 30.7441053,12.2467406 L30.7441053,35.4027931 L7.14370231,11.973262 C6.65291949,11.4860565 5.85886993,11.4860565 5.36808711,11.973262 C4.8773043,12.4604676 4.8773043,13.2487294 5.36808711,13.7359349 L28.8029666,37 L35.1958758,37 L58.6319129,13.7359349 C59.1226957,13.2487294 59.1226957,12.4604676 58.6319129,11.973262" mask="url(#config-content-b)"/>
    <path fill="#ED2E26" d="M1.24463356,4.00000181 L13.7760738,4.01840671 C14.4524541,4.01955702 15,4.5671029 15,5.24463341 L14.9815951,17.7772224 C14.9804448,18.4524523 14.4317485,19.0011485 13.7542179,18.9999982 L1.22277774,18.9815933 C0.546397449,18.980443 -0.00114849747,18.4317468 1.80914205e-06,17.7553666 L0.0184067149,5.22277759 C0.0195570215,4.54639738 0.568253274,3.9988515 1.24463356,4.00000181" mask="url(#config-content-b)"/>
    <path stroke="#FFF" stroke-linecap="round" stroke-linejoin="round" stroke-width="1.3" d="M3 8L11 8M3 11L9 11M3 15L9 15" mask="url(#config-content-b)"/>
    <path fill="#ED2E26" d="M49.2446336,4.00000181 L61.7760738,4.01840671 C62.4524541,4.01955702 63,4.5671029 63,5.24463341 L62.9815951,17.7772224 C62.9804448,18.4524523 62.4317485,19.0011485 61.7542179,18.9999982 L49.2227777,18.9815933 C48.5463974,18.980443 47.9988515,18.4317468 48.0000018,17.7553666 L48.0184067,5.22277759 C48.019557,4.54639738 48.5682533,3.9988515 49.2446336,4.00000181" mask="url(#config-content-b)"/>
    <path stroke="#FFF" stroke-linecap="round" stroke-linejoin="round" stroke-width="1.3" d="M51 8L56 8M51 11L60 11M51 15L58 15" mask="url(#config-content-b)"/>
    <path fill="#ED2E26" d="M25.2446336,1.80914184e-06 L37.7760738,0.0184067127 C38.4524541,0.0195570192 39,0.567102899 39,1.24463341 L38.9815951,13.7772224 C38.9804448,14.4524523 38.4317485,15.0011485 37.7542179,14.9999982 L25.2227777,14.9815933 C24.5463974,14.980443 23.9988515,14.4317468 24.0000018,13.7553666 L24.0184067,1.22277759 C24.019557,0.546397383 24.5682533,-0.00114849733 25.2446336,1.80914184e-06" mask="url(#config-content-b)"/>
    <path stroke="#FFF" stroke-linecap="round" stroke-linejoin="round" stroke-width="1.3" d="M27 4L35 4M27 7L30 7M27 11L36 11" mask="url(#config-content-b)"/>
  </g>
</svg>
