<svg viewBox="0 0 70 67" xmlns="http://www.w3.org/2000/svg"><g transform="translate(1 1)" fill="none" fill-rule="evenodd"><path d="M31.82 17.31L16.81 43.428c-.7 1.101.2 2.502 1.502 2.502H48.43c1.3 0 2.1-1.4 1.5-2.502L34.922 17.311c-.8-1.2-2.402-1.2-3.102 0" fill="#ED2E26" fill-rule="nonzero"/><path fill="#EE3D4A" fill-rule="nonzero" d="M33.321 26.116v6.904"/><path stroke="#FFF" stroke-width="3.24" stroke-linecap="round" d="M33.321 26.116v6.904"/><path d="M34.922 38.925c0 .9-.7 1.6-1.601 1.6-.9 0-1.601-.7-1.601-1.6 0-.901.7-1.601 1.601-1.601.9 0 1.601.7 1.601 1.6" fill="#FFF" fill-rule="nonzero"/><circle stroke="#B4CFE4" stroke-width="2" stroke-linecap="round" stroke-linejoin="round" cx="33.321" cy="31.82" r="28.518"/><g stroke="#B4CFE4" stroke-linecap="round" stroke-linejoin="round" stroke-width="2"><path d="M33.321 0v13.108"/><path fill="#B4CFE4" fill-rule="nonzero" d="M29.819 10.407l3.502 6.203 3.402-6.203z"/></g><g stroke="#B4CFE4" stroke-linecap="round" stroke-linejoin="round" stroke-width="2"><path d="M66.442 31.82H53.334"/><path fill="#B4CFE4" fill-rule="nonzero" d="M56.135 28.418l-6.304 3.402 6.304 3.502z"/></g><g stroke="#B4CFE4" stroke-linecap="round" stroke-linejoin="round" stroke-width="2"><path d="M0 31.82h13.108"/><path fill="#B4CFE4" fill-rule="nonzero" d="M10.407 35.322l6.203-3.502-6.203-3.402z"/></g><g stroke="#B4CFE4" stroke-linecap="round" stroke-linejoin="round" stroke-width="2"><path d="M33.321 63.74V50.633"/><path fill="#B4CFE4" fill-rule="nonzero" d="M36.723 53.434l-3.402-6.304-3.502 6.304z"/></g><g stroke="#B4CFE4" stroke-linecap="round" stroke-linejoin="round" stroke-width="2"><path d="M57.736 7.604l-9.105 9.306"/><path fill="#B4CFE4" fill-rule="nonzero" d="M52.933 17.411l-6.804 2.001 1.901-6.904z"/></g><g stroke="#B4CFE4" stroke-linecap="round" stroke-linejoin="round" stroke-width="2"><path d="M57.736 56.236l-9.105-9.406"/><path fill="#B4CFE4" fill-rule="nonzero" d="M52.933 46.43l-6.804-2.102 1.901 6.904z"/></g><g stroke="#B4CFE4" stroke-linecap="round" stroke-linejoin="round" stroke-width="2"><path d="M9.106 56.236l9.206-9.406"/><path fill="#B4CFE4" fill-rule="nonzero" d="M13.909 46.43l6.804-2.102-1.901 6.904z"/></g><g stroke="#B4CFE4" stroke-linecap="round" stroke-linejoin="round" stroke-width="2"><path d="M9.406 7.604l9.106 9.306"/><path fill="#B4CFE4" fill-rule="nonzero" d="M14.109 17.411l6.904 2.001-1.901-6.904z"/></g></g></svg>