<svg version="1.1" id="Layer_1" xmlns="http://www.w3.org/2000/svg" x="0" y="0" viewBox="0 0 64 64" xml:space="preserve"><style>.st0{fill:#fefefe}.st1{stroke-linecap:round}.st1,.st2,.st6{fill:none;stroke:#b5d0e7;stroke-width:2;stroke-linejoin:round}.st6{stroke:#fefefe;stroke-width:1.5;stroke-linecap:round}</style><switch><g><path id="Fill-1_22_" class="st0" d="M52.1 39.7l-40.2-3v-27h40.2z"/><path id="Stroke-2_6_" class="st1" d="M52 39.7l-40-3v-27h40z"/><path id="Fill-4_6_" class="st0" d="M7.1 46.6h49.8v-30H7.1z"/><path id="Stroke-5_13_" class="st1" d="M7 46.7h50v-30H7z"/><path id="Fill-6_16_" class="st0" d="M2 54.3h60v-31H2z"/><path id="Stroke-7_12_" class="st1" d="M2 53.7h60v-31H2z"/><path id="Fill-9_14_" class="st0" d="M46.3 28.4h6.2c0 3.1 2.4 5.6 5.4 5.7v9.3c-3 .1-5.4 2.7-5.4 5.7v.6h-6.2"/><path id="Stroke-13_10_" class="st2" d="M18 48.7h-6.5c0-3-2.5-5.5-5.5-5.5v-8.9c3.1 0 5.5-2.5 5.5-5.5H18"/><path id="Stroke-13_9_" class="st2" d="M46 48.7h6.5c0-3 2.5-5.5 5.5-5.5v-8.9c-3.1 0-5.5-2.5-5.5-5.5H46"/><path id="Fill-15_13_" d="M22 38.7c0-5.5 4.5-10 10-10s10 4.5 10 10-4.5 10-10 10-10-4.5-10-10" fill="#ed2e26"/><path id="Stroke-16_1_" d="M22 38.7c0-5.5 4.5-10 10-10s10 4.5 10 10-4.5 10-10 10-10-4.5-10-10z" fill="none" stroke="#ed2e26" stroke-width="2" stroke-linecap="round" stroke-linejoin="round"/><path id="Stroke-17_5_" fill="none" stroke="#fefefe" stroke-width="1.5" stroke-linejoin="round" d="M37 41.7v3H27v-3"/><path id="Stroke-20_1_" class="st6" d="M32 32.6V42"/><path id="Stroke-18_1_" class="st6" d="M32 41.7l-4-4"/><path id="Stroke-19_3_" class="st6" d="M36 37.7l-4 4"/><path id="Stroke-22_6_" class="st1" d="M47 38.7c0-1.7 1.3-3 3-3s3 1.3 3 3-1.3 3-3 3-3-1.3-3-3z"/><path id="Fill-23_3_" class="st0" d="M16.8 36.7h-4.9"/><path id="Stroke-24_14_" class="st2" d="M18 36.7h-6"/><path id="Stroke-24_5_" class="st2" d="M18 41.7h-6"/></g></switch></svg>