<?xml version="1.0" encoding="utf-8"?>
<!-- Generator: Adobe Illustrator 23.0.4, SVG Export Plug-In . SVG Version: 6.00 Build 0)  -->
<svg version="1.1" id="Layer_1" xmlns="http://www.w3.org/2000/svg" xmlns:xlink="http://www.w3.org/1999/xlink" x="0px" y="0px"
	 viewBox="0 0 64 64" style="enable-background:new 0 0 64 64;" xml:space="preserve">
<style type="text/css">
	.st0{fill:none;}
	.st1{fill:#B5D0E6;}
	.st2{fill:#ED2E26;}
	.st3{fill:#FEFEFE;}
</style>
<g>
	<g>
		<path class="st0" d="M37.2,10.9c-4.5,3.3-11.2,0-11.2,0c-2,0.8-1.1,6.5-1.1,6.5c-0.5-0.4-1-0.5-1.3-0.6c0.1,1.3,0.4,2.5,0.8,3.7
			c1.2,0.5,2.6,0.7,4,0.7c0.2-0.4,0.6-0.8,1.1-0.8c0.8-0.1,1.5,0.4,1.7,1.2c0.1,0.8-0.4,1.5-1.2,1.7c-0.6,0.1-1.1-0.1-1.4-0.6
			c-0.2,0-0.5,0-0.7,0c-1,0-1.9-0.1-2.8-0.4c1.5,3.2,4.1,5.3,6.9,5.3c4.4,0,8-4.8,8.4-11c0.1-0.4,0.1-0.8,0.1-1.2l-1.4,1.6
			C39.9,15.1,37.2,10.9,37.2,10.9z"/>
		<path class="st0" d="M15.2,60.7h33.6c1.4,0,2.5-1.1,2.5-2.5l3.4-19.5c0-1.4-1.1-2.5-2.5-2.5H11.9c-1.4,0-2.5,1.1-2.5,2.5l3.4,19.4
			C12.7,59.6,13.8,60.7,15.2,60.7z M32,46.9c0.7,0,1.2,0.5,1.2,1.2c0,0.7-0.5,1.2-1.2,1.2c-0.7,0-1.2-0.5-1.2-1.2
			C30.8,47.4,31.3,46.9,32,46.9z"/>
		<path class="st0" d="M22.1,15.6c0,1-0.1,2-0.4,2.7c0.3,0.5,0.7,0.9,1.2,1.3c-0.2-0.9-0.4-1.9-0.5-2.9c0-0.1,0-0.2,0-0.3
			c0-0.3-0.1-0.6-0.1-0.9c0-0.2,0-0.4,0-0.6c0-0.5,0-1,0.1-1.5c0.7-4.9,4.7-8.7,9.6-8.7c4.9,0,8.9,3.8,9.6,8.7c0,0.1,0,0.3,0,0.4
			c0.1-0.4,0.2-0.8,0.3-1.1c-1.2-5.3-5.3-9.3-10.2-9.3c-4.9,0-9,4-10.2,9.3C21.9,13.4,22.1,14.4,22.1,15.6z"/>
		<path class="st1" d="M24.3,27.3c-5,0.5-9.2,3.9-10.8,8.5H29C26.9,32.8,24.3,28.7,24.3,27.3z"/>
		<path class="st1" d="M39.7,27.3c0,1.4-2.9,5.4-5.2,8.5h16C48.9,31.2,44.7,27.8,39.7,27.3z"/>
		<path class="st2" d="M32.9,32.5c0.9-0.5,1.6-1.4,1.6-2.4c0,0-1.3,0.6-2.7,0.6c-1.4,0-2.7-0.6-2.7-0.6c0,1,0.7,1.9,1.6,2.4
			l-0.2,3.4h2.7L32.9,32.5z"/>
		<path class="st1" d="M51.1,61.6H12.9c-0.4,0-0.7,0.3-0.7,0.7c0,0.4,0.3,0.7,0.7,0.7h38.1c0.4,0,0.7-0.3,0.7-0.7
			C51.7,61.9,51.4,61.6,51.1,61.6z"/>
		<path class="st1" d="M15.2,61h33.6c1.6,0,2.9-1.3,2.9-2.8L55,38.7c0-1.6-1.3-2.9-2.9-2.9h-1.6h-16h-1.4h-2.7H29H13.5h-1.6
			c-1.6,0-2.9,1.3-2.9,2.9l3.4,19.4C12.4,59.7,13.6,61,15.2,61z M11.9,36.2h40.3c1.4,0,2.5,1.1,2.5,2.5l-3.4,19.5
			c0,1.4-1.1,2.5-2.5,2.5H15.2c-1.4,0-2.5-1.1-2.5-2.5L9.3,38.7C9.3,37.3,10.5,36.2,11.9,36.2z"/>
		<path class="st1" d="M20.2,20.3c0.3,0,0.6-0.2,0.8-0.5c0.6,0.7,1.3,1.3,2.2,1.7c0.1,0.1,0.2,0.1,0.3,0.1c1.6,4.4,4.8,7.3,8.5,7.3
			c4.9,0,8.9-5.3,9.5-12.1c0.2,2,0.9,3.4,1.8,3.4c1,0,1.9-2.1,1.9-4.7c0-2.2-0.6-4-1.4-4.5c-1.7-5.8-6.4-10-12-10
			c-5.6,0-10.4,4.2-12,10c-0.8,0.5-1.4,2.3-1.4,4.5C18.3,18.2,19.2,20.3,20.2,20.3z M40.4,16.4c-0.5,6.2-4.1,11-8.4,11
			c-2.9,0-5.4-2.1-6.9-5.3c0.9,0.2,1.8,0.4,2.8,0.4c0.2,0,0.5,0,0.7,0c0.3,0.4,0.9,0.7,1.4,0.6c0.8-0.1,1.3-0.9,1.2-1.7
			c-0.1-0.8-0.9-1.3-1.7-1.2c-0.5,0.1-0.9,0.4-1.1,0.8c-1.4,0.1-2.8-0.1-4-0.7c-0.4-1.1-0.6-2.4-0.8-3.7c0.4,0.1,0.8,0.3,1.3,0.6
			c0,0-1-5.7,1.1-6.5c0,0,6.7,3.3,11.2,0c0,0,2.7,4.2,1.9,5.9l1.4-1.6C40.5,15.6,40.5,16,40.4,16.4z M31.8,3.3c4.9,0,9,4,10.2,9.3
			c-0.1,0.3-0.2,0.7-0.3,1.1c0-0.1,0-0.3,0-0.4c-0.7-4.9-4.7-8.7-9.6-8.7c-4.9,0-8.9,3.8-9.6,8.7c-0.1,0.5-0.1,1-0.1,1.5
			c0,0.2,0,0.4,0,0.6c0,0.3,0,0.6,0.1,0.9c0,0.1,0,0.2,0,0.3c0.1,1,0.3,2,0.5,2.9c-0.5-0.4-0.9-0.8-1.2-1.3c0.2-0.8,0.4-1.7,0.4-2.7
			c0-1.2-0.2-2.2-0.4-3C22.8,7.2,26.9,3.3,31.8,3.3z"/>
	</g>
	<g>
		<path id="Fill-3_30_" class="st2" d="M31.7,44c2.1,0,3.1,1.1,3.1,1.1s0.1,0.8,0,2.5c-0.1,2.5-3.2,4-3.2,4c0,0-3.1-1.5-3.2-4
			c-0.1-1.7,0-2.5,0-2.5S29.6,44,31.7,44"/>
		<path id="Fill-5_34_" class="st3" d="M30.2,47.3c0-0.9,0.7-1.6,1.6-1.6c0.9,0,1.6,0.7,1.6,1.6c0,0.7-0.6,1.3-1.1,1.6
			c0.2,0.1,0.6,0.2,0.9,0.2c0.5-0.4,0.9-1.1,0.9-1.8c0-1.3-1.1-2.3-2.3-2.3c-1.3,0-2.3,1.1-2.3,2.3c0,0.8,0.3,1.5,0.9,2
			c0.6,0.5,1.4,0.8,2.4,1c0.2-0.1,0.6-0.5,0.7-0.7c-0.8-0.1-1.6-0.3-2.1-0.6C30.6,48.6,30.2,48,30.2,47.3"/>
	</g>
</g>
</svg>
