<svg xmlns="http://www.w3.org/2000/svg" xmlns:xlink="http://www.w3.org/1999/xlink" width="66" height="66" viewBox="0 0 66 66">
  <defs>
    <polygon id="dashboard-a" points="0 66 65.247 66 65.247 .749 0 .749"/>
  </defs>
  <g fill="none" fill-rule="evenodd">
    <polygon fill="#FEFEFE" points="2 65.916 58.93 66 59 9.083 2.068 9"/>
    <polygon stroke="#B5CFE5" stroke-linecap="round" stroke-linejoin="round" stroke-width="2" points="1.07 8 58 8.083 57.93 65 1 64.916"/>
    <polygon fill="#FEFEFE" points="7.069 2 64 2.085 63.931 59 7 58.914"/>
    <polygon stroke="#B5CFE5" stroke-linecap="round" stroke-linejoin="round" stroke-width="2" points="6.932 1.886 64.109 1.971 64.039 59.131 6.861 59.046"/>
    <path stroke="#B5CFE5" stroke-linecap="round" stroke-linejoin="round" stroke-width="2" d="M64.1086448,16.7706 L6.86161034,16.7706"/>
    <path fill="#B5CFE5" d="M12.5862 9.32511724C12.5873379 8.37608276 13.3588552 7.60911724 14.3067517 7.61025517 15.2557862 7.6113931 16.0238897 8.38063448 16.0227517 9.32966897 16.0216138 10.2787034 15.2512345 11.045669 14.3022 11.044531 13.3531655 11.0433931 12.5850621 10.2741517 12.5862 9.32511724M20.6016724 9.32511724C20.6028103 8.37608276 21.3720517 7.60911724 22.3210862 7.61025517 23.2701207 7.6113931 24.0382241 8.38063448 24.0370862 9.32966897 24.0359483 10.2787034 23.2667069 11.045669 22.3165345 11.044531 21.3675 11.0433931 20.6005345 10.2741517 20.6016724 9.32511724M28.6149828 9.32511724C28.6161207 8.37608276 29.3865 7.60911724 30.3366724 7.61025517 31.2857069 7.6113931 32.0526724 8.38063448 32.0515345 9.32966897 32.0503966 10.2787034 31.2800172 11.045669 30.3309828 11.044531 29.3819483 11.0433931 28.6138448 10.2741517 28.6149828 9.32511724"/>
    <mask id="dashboard-b" fill="#fff">
      <use xlink:href="#dashboard-a"/>
    </mask>
    <polygon fill="#EC3027" points="12.26 39.57 16.526 39.57 16.526 31.12 12.26 31.12" mask="url(#dashboard-b)"/>
    <polygon fill="#EC3027" points="20.185 39.656 24.452 39.656 24.452 23.834 20.185 23.834" mask="url(#dashboard-b)"/>
    <polygon fill="#EC3027" points="28.109 39.656 32.378 39.656 32.378 27.381 28.109 27.381" mask="url(#dashboard-b)"/>
    <g transform="translate(12 23)">
      <path fill="#EB3027" d="M33.6837805,22.69154 C33.6097317,22.68134 33.5771951,19.2462067 33.603,12.3884067 C28.0055854,12.4858733 23.552561,17.1484067 23.6479268,22.79694 C23.7477805,28.45114 28.3623659,32.95614 33.9541707,32.8552733 C39.5504634,32.7532733 44.0113415,28.0918733 43.9103659,22.4422067"/>
      <path fill="#B5D0E7" d="M35.0193512,21.1542867 C35.0305707,21.0715533 38.4323268,21.1066867 45.2223756,21.24722 C45.2223756,15.5975533 40.6840829,11.0109533 35.0866683,11.0109533"/>
      <path stroke="#B5D0E7" stroke-linecap="round" stroke-linejoin="round" stroke-width="2" d="M.144619512 22.4148933L12.6521317 22.4148933M.144619512 28.67588L19.1830098 28.67588M25.446639.06964L40.099322.06964M25.446639 6.33402667L43.9689317 6.33402667"/>
    </g>
  </g>
</svg>
