<svg version="1.1" id="Layer_1" xmlns="http://www.w3.org/2000/svg" x="0" y="0" viewBox="0 0 64 64" xml:space="preserve"><style>.st0{fill:#f7fafc;stroke:#b5d0e7;stroke-width:2;stroke-linecap:round;stroke-linejoin:round}.st1{fill:#ed2e26}.st2{fill:none;stroke:#fff;stroke-width:1.5;stroke-linecap:round;stroke-linejoin:round;stroke-miterlimit:10}</style><switch><g><path id="Stroke-3_37_" class="st0" d="M10.5 22.9h43.9c1.6 0 2.9 1.3 2.9 2.9V59H7.6V25.8c0-1.6 1.3-2.9 2.9-2.9z"/><path id="Stroke-11_13_" class="st0" d="M7.6 53.9h49.8"/><path id="Stroke-15_10_" class="st0" d="M36.9 56.7v1.5h-9.8v-1.5H2.7v1.8c0 2.7 2.2 2.7 4.9 2.7h48.7c2.7 0 4.9 0 4.9-2.7v-1.8H36.9z"/><path id="Stroke-1_78_" class="st1" d="M41.4 44.6V34.4L32 29.3l-9.4 5.1v10.2l9.4 5.2z"/><path id="Stroke-7_69_" class="st1" d="M22.6 34.4l9.4 5 9.4-5"/><path id="Stroke-9_37_" class="st1" d="M32 39.4v10.4"/><path class="st2" d="M22.6 34.4l9.4 5M41.4 34.4l-9.4 5M32 49.8V39.4"/><g><path id="Stroke-40_15_" class="st0" d="M20.5 32.8l-5.4-5.3"/><path id="Stroke-42_18_" class="st0" d="M25.8 27.5l-5.3 5.3"/><path id="Stroke-44_17_" class="st0" d="M20.6 18l-.1 14.9"/></g><g><path id="Stroke-40_14_" class="st0" d="M32 16.5l-5.4-5.3"/><path id="Stroke-42_17_" class="st0" d="M37.3 11.2L32 16.5"/><path id="Stroke-44_16_" class="st0" d="M32.1 1.7L32 16.5"/></g><g><path id="Stroke-40_13_" class="st0" d="M43.1 22.9l-5.4-5.3"/><path id="Stroke-42_16_" class="st0" d="M48.3 17.6L43 22.9"/><path id="Stroke-44_15_" class="st0" d="M43.2 8l-.1 14.9"/></g></g></switch></svg>