<svg version="1.1" id="Layer_1" xmlns="http://www.w3.org/2000/svg" x="0" y="0" viewBox="0 0 64 64" xml:space="preserve"><style>.st0{fill:none;stroke:#b5d0e7;stroke-width:2;stroke-linecap:round;stroke-linejoin:round}.st3{fill:#b5d0e6}.st4{fill:none;stroke:#b5d0e5;stroke-width:2;stroke-linecap:round;stroke-linejoin:round}.st5{fill:#b5d0e5}.st6{fill:none;stroke:#ed2e26;stroke-width:2;stroke-linecap:round;stroke-linejoin:round}</style><switch><g><g id="Squares_5_" transform="translate(1 1)"><path id="Path-20_23_" class="st0" d="M12 0H0v12"/><path id="Path-20_22_" class="st0" d="M50 0h12v12"/><path id="Path-20_21_" class="st0" d="M12 62H0V50"/><path id="Path-20_20_" class="st0" d="M50 62h12V50"/></g><path id="Stroke-7_76_" fill="#fff" stroke="#b5d0e6" stroke-width="2" stroke-linecap="round" stroke-linejoin="round" d="M9.5 15h45.1l-.1 34H9.4z"/><path id="Stroke-9_80_" d="M54.6 23.3H9.4" fill="none" stroke="#b5d0e6" stroke-width="2" stroke-linecap="round" stroke-linejoin="round"/><path id="Fill-11_22_" class="st3" d="M13.9 19.4c0-.7.6-1.2 1.2-1.2.7 0 1.2.5 1.2 1.2s-.6 1.2-1.2 1.2c-.7 0-1.2-.6-1.2-1.2"/><path id="Fill-13_15_" class="st3" d="M19.6 19.4c0-.7.5-1.2 1.2-1.2s1.2.5 1.2 1.2-.5 1.2-1.2 1.2-1.2-.6-1.2-1.2"/><path id="Fill-15_30_" class="st3" d="M25.3 19.4c0-.7.6-1.2 1.2-1.2.7 0 1.2.5 1.2 1.2s-.6 1.2-1.2 1.2c-.7 0-1.2-.6-1.2-1.2"/><path id="Path-2_27_" class="st4" d="M19 26.6h-5.4v5.8"/><path id="Path-2_26_" class="st4" d="M45.2 46.1h5.4v-5.8"/><path class="st5" d="M29.9 43.6h-.3c-.3-.1-.6-.4-.6-.8 0-1-.9-1.8-1.8-1.8-.2 0-.3 0-.5.1-.3.1-.7 0-.9-.3-.2-.3-.2-.7 0-1 .6-.8.3-2-.5-2.5-.1-.1-.3-.2-.4-.2-.3-.1-.6-.4-.6-.8s.2-.7.6-.8c.9-.3 1.4-1.4 1.1-2.3-.1-.1-.1-.3-.2-.4-.2-.3-.2-.7 0-1 .2-.3.6-.4.9-.3 1 .3 2-.3 2.3-1.2 0-.2.1-.3.1-.5 0-.4.3-.7.6-.8.3-.1.7 0 .9.3.6.8 1.8.9 2.6.3l.3-.3c.2-.3.6-.4.9-.3.3.1.6.4.6.8 0 1 .9 1.8 1.9 1.8.2 0 .3 0 .5-.1.4-.1.7 0 .9.3.2.3.2.7 0 1-.6.8-.3 2 .5 2.6.1.1.3.2.4.2.3.1.6.4.6.8s-.2.7-.6.8c-.9.3-1.4 1.4-1.1 2.3.1.1.1.3.2.4.2.3.2.7 0 1-.2.3-.6.4-.9.3-1-.3-2 .3-2.3 1.3 0 .2-.1.3-.1.5 0 .4-.3.7-.6.8-.3.1-.7 0-.9-.3-.6-.8-1.8-.9-2.6-.3l-.3.3c-.2 0-.5.1-.7.1zm2.1-2.8c.6 0 1.1.1 1.7.4.5-1 1.5-1.8 2.7-1.9-.2-1.2.2-2.3 1-3.1-.8-.8-1.2-2-1-3.1-1.2-.2-2.1-.9-2.7-1.9-1 .5-2.3.5-3.3 0-.5 1-1.5 1.8-2.7 1.9.2 1.2-.2 2.3-1 3.1.8.8 1.2 2 1 3.1 1.2.2 2.1.9 2.7 1.9.5-.2 1-.4 1.6-.4z"/><path class="st5" d="M32 38.7c-1.4 0-2.6-1.2-2.6-2.6 0-1.4 1.2-2.6 2.6-2.6 1.4 0 2.6 1.2 2.6 2.6 0 1.5-1.2 2.6-2.6 2.6zm0-3.4c-.5 0-.9.4-.9.9s.4.9.9.9.9-.4.9-.9-.4-.9-.9-.9z"/><g><path class="st6" d="M11.3 10.3h39.2c4 0 7.2 3.2 7.2 7.2s-3.2 7.2-7.2 7.2H13.4c-4 0-7.2 3.2-7.2 7.2s3.2 7.2 7.2 7.2h37.1c4 0 7.2 3.2 7.2 7.2s-3.2 7.2-7.2 7.2H15.1"/><path class="st6" d="M16.7 57l-3.3-3.3 3.3-3.2"/></g></g></switch></svg>