<svg width="68" height="61" viewBox="0 0 68 61" xmlns="http://www.w3.org/2000/svg"><g fill="none" fill-rule="evenodd"><path stroke="#ED2E26" stroke-width="2.203" stroke-linecap="round" stroke-linejoin="round" d="M2 44.852h64.609V2H2zM2 9.758h64.609"/><path d="M7.732 5.683a1.046 1.046 0 11-2.091 0 1.046 1.046 0 012.091 0M11.304 5.683a1.046 1.046 0 11-2.091 0 1.046 1.046 0 012.091 0M14.875 5.683a1.045 1.045 0 11-2.09 0 1.045 1.045 0 012.09 0" fill="#ED2E26"/><path d="M29.15 21.435H13.69v-4.56h18.854v1.165a3.394 3.394 0 01-3.394 3.395" fill="#B5D0E5"/><path d="M29.15 21.435H13.69v-4.56h18.854v1.165a3.394 3.394 0 01-3.394 3.395z" stroke="#B5D0E7" stroke-width="1.102" stroke-linecap="round" stroke-linejoin="round"/><path d="M29.15 29.526H13.69v-4.56h18.854v1.166a3.394 3.394 0 01-3.394 3.394" fill="#B5D0E5"/><path d="M29.15 29.526H13.69v-4.56h18.854v1.166a3.394 3.394 0 01-3.394 3.394z" stroke="#B5D0E7" stroke-width="1.102" stroke-linecap="round" stroke-linejoin="round"/><path d="M29.15 37.618H13.69v-4.56h18.854v1.166a3.394 3.394 0 01-3.394 3.394" fill="#B5D0E5"/><path d="M29.15 37.618H13.69v-4.56h18.854v1.166a3.394 3.394 0 01-3.394 3.394z" stroke="#B5D0E7" stroke-width="1.102" stroke-linecap="round" stroke-linejoin="round"/><path d="M43.216 27.07c6.37 0 11.537 5.164 11.537 11.535 0 6.37-5.166 11.536-11.537 11.536S31.68 44.975 31.68 38.605c0-6.37 5.165-11.535 11.536-11.535" fill="#FFF"/><path d="M43.216 27.07c6.37 0 11.537 5.164 11.537 11.535 0 6.37-5.166 11.536-11.537 11.536S31.68 44.975 31.68 38.605c0-6.37 5.165-11.535 11.536-11.535z" stroke="#B5D0E7" stroke-width="2.203" stroke-linecap="round" stroke-linejoin="round"/><path fill="#B5D0E5" d="M51.823 47.355l12.311 9.836-1.823 2.02z"/><path stroke="#B5D0E7" stroke-width="2.203" stroke-linecap="round" stroke-linejoin="round" d="M51.823 47.355l12.311 9.836-1.823 2.02-10.488-11.856"/><path stroke="#B5D0E7" stroke-width="1.102" stroke-linecap="round" stroke-linejoin="round" d="M13.973 35.275H6.687V19.22h2.88"/><path fill="#B5D0E5" d="M9.38 21.685l3.29-2.53-3.29-2.53z"/><path stroke="#B5D0E7" stroke-width=".551" stroke-linecap="round" stroke-linejoin="round" d="M9.38 21.685l3.29-2.53-3.29-2.53z"/><path d="M61.875 22.811l-9.416-17a1.188 1.188 0 00-2.078 0l-9.415 17a1.189 1.189 0 001.04 1.764h18.83c.904 0 1.476-.972 1.039-1.764" fill="#B5D0E5"/><path fill="#FFF" d="M50.415 21.435h2.025v-2.102h-2.025zM52.502 11.307l-.564 6.747h-1.02l-.579-6.747v-.533h2.163z"/></g></svg>