<svg width="68" height="68" viewBox="0 0 68 68" xmlns="http://www.w3.org/2000/svg"><g fill="none" fill-rule="evenodd"><path d="M34.415 7.73c14.74 0 26.687 11.948 26.687 26.685 0 14.742-11.948 26.686-26.687 26.686S7.729 49.157 7.729 34.415C7.73 19.678 19.676 7.73 34.415 7.73" fill="#ED2E26"/><path d="M2 34.416C2 16.513 16.513 2 34.416 2c17.902 0 32.416 14.513 32.416 32.416 0 17.902-14.514 32.415-32.416 32.415C16.513 66.83 2 52.318 2 34.416z" stroke="#B5D0E7" stroke-width="2.203" stroke-linecap="round" stroke-linejoin="round"/><path d="M18.667 23.972l5.969-.076a.44.44 0 00.366-.645l-3.006-5.158a.44.44 0 00-.77-.011l-2.964 5.234a.44.44 0 00.405.656M33.154 23.972l-5.97-.076a.439.439 0 01-.365-.645l3.005-5.158a.439.439 0 01.77-.011l2.965 5.234a.44.44 0 01-.405.656M29.288 30.344l-3.006-5.157a.44.44 0 00-.742 0l-3.009 5.157a.44.44 0 00.372.676h6.015a.44.44 0 00.37-.676" fill="#FFF"/><path d="M25.91 25.723a1.595 1.595 0 10.002-3.191 1.595 1.595 0 00-.002 3.19" fill="#ED2E26"/><path d="M23.356 44.86l5.76 1.566a.44.44 0 00.528-.52l-1.472-5.785a.44.44 0 00-.739-.223l-4.287 4.219a.44.44 0 00.21.742M37.285 48.837l-5.718-1.712a.44.44 0 01-.175-.72l4.306-4.136a.44.44 0 01.743.202l1.415 5.847a.44.44 0 01-.57.519M31.82 53.903l-1.477-5.784a.44.44 0 00-.712-.204l-4.308 4.133a.44.44 0 00.17.752l5.785 1.652a.44.44 0 00.542-.55" fill="#FFF"/><path d="M29.84 48.532a1.596 1.596 0 10.877-3.07 1.596 1.596 0 00-.877 3.07" fill="#ED2E26"/><path d="M41.127 33.84l5.719-1.71a.44.44 0 00.175-.72l-4.304-4.137a.439.439 0 00-.744.2l-1.417 5.847a.44.44 0 00.571.52M55.059 29.867l-5.761 1.564a.44.44 0 01-.53-.52l1.476-5.784a.44.44 0 01.74-.222l4.284 4.22a.439.439 0 01-.21.742M53.089 37.055l-4.306-4.133a.44.44 0 00-.714.202l-1.477 5.784a.44.44 0 00.542.549l5.784-1.65a.44.44 0 00.17-.752" fill="#FFF"/><path d="M48.573 33.538a1.597 1.597 0 10-.876-3.07 1.597 1.597 0 00.876 3.07" fill="#ED2E26"/><path stroke="#B5D0E7" stroke-width="2.203" stroke-linecap="round" stroke-linejoin="round" d="M58.706 13.214L10.125 56.139"/></g></svg>