<svg xmlns="http://www.w3.org/2000/svg" viewBox="0 0 63.62 50.54"><defs><style>.cls-1,.cls-3{fill:none;stroke-linejoin:round}.cls-1{stroke:#b5d0e7;stroke-width:1.63px}.cls-3{stroke:#fff;stroke-linecap:round;stroke-width:2px}</style></defs><g id="Layer_2" data-name="Layer 2"><g id="Icons"><path class="cls-1" d="M7.76 28.49L.81 32.16l31.41 17.56 30.59-17.17-6.92-3.68-23.67 13.29L7.76 28.49z"/><path class="cls-1" d="M55.89 21.32L32.22 34.61 7.76 20.93.81 24.6l6.95 3.89 24.46 13.67 23.67-13.29 6.92-3.88-6.92-3.67z"/><path class="cls-1" d="M32.22 34.61l23.67-13.29 6.92-3.89L31.5.81.81 17.05l6.95 3.88 24.46 13.68z"/><circle cx="31.81" cy="17.71" r="11" fill="#ed2e26"/><path id="Stroke-40" class="cls-3" d="M31.81 12.09l4 4"/><path id="Stroke-42" class="cls-3" d="M27.78 16.12l4-4"/><path id="Stroke-44" class="cls-3" d="M31.7 23.33V12.09"/></g></g></svg>