<svg viewBox="0 0 84 77" xmlns="http://www.w3.org/2000/svg"><g fill="none" fill-rule="evenodd"><path d="M3.434 2h56.317c.794 0 1.438.662 1.438 1.477v13.816c0 .816-.644 1.477-1.438 1.477H3.434C2.642 18.77 2 18.11 2 17.293V3.477C2 2.662 2.642 2 3.434 2zM3.434 18.77h56.317c.794 0 1.438.662 1.438 1.478v13.814c0 .817-.644 1.479-1.438 1.479H3.434C2.642 35.54 2 34.879 2 34.062V20.248c0-.816.642-1.478 1.434-1.478z" stroke="#B5D0E7" stroke-width="2.2" stroke-linecap="round" stroke-linejoin="round"/><path d="M3.434 34.554h56.317c.794 0 1.438.661 1.438 1.478v13.814c0 .817-.644 1.478-1.438 1.478H3.434c-.792 0-1.434-.66-1.434-1.478V36.032c0-.817.642-1.478 1.434-1.478zM3.434 2h56.317c.794 0 1.438.661 1.438 1.478v13.814c0 .817-.644 1.478-1.438 1.478H3.434C2.642 18.77 2 18.11 2 17.292V3.478C2 2.661 2.642 2 3.434 2z" stroke="#B5D0E7" stroke-width="2.2" stroke-linecap="round" stroke-linejoin="round"/><path d="M6.932 10.385a2.466 2.466 0 114.932 0 2.466 2.466 0 01-4.932 0z" stroke="#ED2E26" stroke-width="1.15" stroke-linecap="round"/><path d="M17.784 10.385a2.466 2.466 0 114.932 0 2.466 2.466 0 01-4.932 0" fill="#ED2E26"/><path d="M6.932 43.926a2.466 2.466 0 114.932-.001 2.466 2.466 0 01-4.932 0z" stroke="#ED2E26" stroke-width="1.15" stroke-linecap="round"/><path d="M17.784 43.926a2.466 2.466 0 114.932-.001 2.466 2.466 0 01-4.932 0" fill="#ED2E26"/><path d="M22.716 27.155a2.466 2.466 0 11-4.932.001 2.466 2.466 0 014.932 0z" stroke="#ED2E26" stroke-width="1.15" stroke-linecap="round"/><path d="M11.865 27.155a2.466 2.466 0 11-4.932.001 2.466 2.466 0 014.932 0" fill="#ED2E26"/><path stroke="#C5E2E9" stroke-width="2.2" stroke-linecap="round" stroke-linejoin="round" d="M38.5 42.446l4.932 4.932"/><path stroke="#B5D0E7" stroke-width="2.2" stroke-linecap="round" stroke-linejoin="round" d="M28.635 42.446l4.933 4.932"/><path stroke="#C5E2E9" stroke-width="2.2" stroke-linecap="round" stroke-linejoin="round" d="M48.365 42.446l4.932 4.932"/><path stroke="#B5D0E7" stroke-width="2.2" stroke-linecap="round" stroke-linejoin="round" d="M38.5 24.689l4.932 4.933M28.635 24.689l4.933 4.933M48.365 24.689l4.932 4.933M38.5 7.919l4.932 4.932M28.635 7.919l4.933 4.932M48.365 7.919l4.932 4.932"/><path d="M52.804 27.649c8.989 0 16.277 7.508 16.277 16.77s-7.288 16.77-16.277 16.77c-8.99 0-16.277-7.508-16.277-16.77s7.287-16.77 16.277-16.77" fill="#FFF"/><path d="M52.804 27.649c8.989 0 16.277 7.508 16.277 16.77s-7.288 16.77-16.277 16.77c-8.99 0-16.277-7.508-16.277-16.77s7.287-16.77 16.277-16.77z" stroke="#B5CFE5" stroke-width="2.2"/><path stroke="#B5CFE5" stroke-width="2.132" stroke-linecap="round" stroke-linejoin="round" d="M70.068 62.176L82.892 75"/><path stroke="#B5CFE5" stroke-width="2.2" stroke-linecap="round" stroke-linejoin="round" d="M63.162 56.257L80.919 75"/><path d="M51.819 31.595c6.81 0 12.33 5.52 12.33 12.33 0 6.81-5.52 12.332-12.33 12.332-6.81 0-12.333-5.521-12.333-12.331S45.01 31.595 51.82 31.595" fill="#ED2E26"/><path d="M52.055 42.685h3.04c.097 0 .175.09.175.202 0 .04-.01.077-.028.11l-4.465 8.233c-.054.096-.16.122-.242.063a.213.213 0 01-.082-.18l.212-5.901c.002-.112-.073-.207-.167-.211h-2.944c-.097 0-.176-.091-.176-.205 0-.042.01-.085.033-.12l4.426-7.078c.057-.091.167-.111.246-.047.048.043.074.11.07.18l-.272 4.735c-.007.113.064.21.161.219h.013z" fill="#FFF"/></g></svg>