<svg viewBox="0 0 67 62" xmlns="http://www.w3.org/2000/svg" xmlns:xlink="http://www.w3.org/1999/xlink"><defs><path id="a" d="M32.5 25.661H65v33.47H32.5z"/></defs><g transform="translate(2 2)" fill="none" fill-rule="evenodd"><path d="M1.444 0h56.693c.8 0 1.447.666 1.447 1.487v13.901c0 .821-.648 1.487-1.447 1.487H1.444C.646 16.875 0 16.21 0 15.388V1.487C0 .666.646 0 1.444 0z" stroke="#B5D0E7" stroke-width="2.2" stroke-linecap="round" stroke-linejoin="round"/><path d="M1.444 16.735h56.693c.8 0 1.447.66 1.447 1.475v13.786c0 .815-.648 1.475-1.447 1.475H1.444C.646 33.47 0 32.81 0 31.996V18.21c0-.815.646-1.475 1.444-1.475z" stroke="#B5D0E7" stroke-width="2.2" stroke-linecap="round" stroke-linejoin="round"/><path d="M1.444 33.47h56.693c.8 0 1.447.66 1.447 1.476V48.73c0 .815-.648 1.475-1.447 1.475H1.444c-.798 0-1.444-.66-1.444-1.475V34.946c0-.815.646-1.475 1.444-1.475zM1.444 0h56.693c.8 0 1.447.66 1.447 1.475V15.26c0 .815-.648 1.475-1.447 1.475H1.444C.646 16.735 0 16.075 0 15.26V1.475C0 .66.646 0 1.444 0z" stroke="#B5D0E7" stroke-width="2.2" stroke-linecap="round" stroke-linejoin="round"/><path d="M5.378 8.438c0-1.365 1.074-2.47 2.4-2.47 1.326 0 2.4 1.105 2.4 2.47 0 1.364-1.074 2.47-2.4 2.47-1.326 0-2.4-1.106-2.4-2.47z" stroke="#ED2E26" stroke-width="1.15" stroke-linecap="round"/><path d="M15.309 8.438c0-1.365 1.074-2.47 2.399-2.47 1.326 0 2.4 1.105 2.4 2.47 0 1.364-1.074 2.47-2.4 2.47-1.325 0-2.4-1.106-2.4-2.47" fill="#ED2E26"/><path d="M5.378 42.187c0-1.364 1.074-2.47 2.4-2.47 1.326 0 2.4 1.106 2.4 2.47 0 1.365-1.074 2.47-2.4 2.47-1.326 0-2.4-1.105-2.4-2.47z" stroke="#ED2E26" stroke-width="1.15" stroke-linecap="round"/><path d="M15.309 42.187c0-1.364 1.074-2.47 2.399-2.47 1.326 0 2.4 1.106 2.4 2.47 0 1.365-1.074 2.47-2.4 2.47-1.325 0-2.4-1.105-2.4-2.47" fill="#ED2E26"/><path d="M20.108 25.313c0 1.364-1.074 2.47-2.399 2.47-1.326 0-2.4-1.106-2.4-2.47 0-1.365 1.074-2.471 2.4-2.471 1.325 0 2.4 1.106 2.4 2.47z" stroke="#ED2E26" stroke-width="1.15" stroke-linecap="round"/><path d="M10.178 25.313c0 1.364-1.074 2.47-2.4 2.47-1.326 0-2.4-1.106-2.4-2.47 0-1.365 1.074-2.471 2.4-2.471 1.326 0 2.4 1.106 2.4 2.47" fill="#ED2E26"/><path stroke="#C5E2E9" stroke-width="2.2" stroke-linecap="round" stroke-linejoin="round" d="M36.576 39.716l4.966 5.494"/><path stroke="#B5D0E7" stroke-width="2.2" stroke-linecap="round" stroke-linejoin="round" d="M26.646 39.716l4.966 5.494"/><path stroke="#C5E2E9" stroke-width="2.2" stroke-linecap="round" stroke-linejoin="round" d="M46.508 39.716l4.964 5.494"/><path stroke="#B5D0E7" stroke-width="2.2" stroke-linecap="round" stroke-linejoin="round" d="M36.576 22.565l4.966 5.495M26.646 22.565l4.966 5.495M46.508 22.565l4.964 5.495M36.576 5.691l4.966 5.494M26.646 5.691l4.966 5.494M46.508 5.691l4.964 5.494"/><mask id="b" fill="#fff"><use xlink:href="#a"/></mask><path d="M48.772 25.661c8.974.014 16.241 7.517 16.228 16.759-.013 9.242-7.299 16.726-16.273 16.712-8.976-.014-16.24-7.517-16.227-16.76.013-9.243 7.298-16.724 16.272-16.71" fill="#ED2E26" mask="url(#b)"/><path d="M55.644 35.296c3.809 3.922 3.809 10.278 0 14.2a9.553 9.553 0 01-13.789 0c-3.808-3.922-3.808-10.278 0-14.2a9.55 9.55 0 0113.79 0zM55.644 35.296L41.855 49.497" stroke="#FEFEFE" stroke-width="2.2" stroke-linecap="round" stroke-linejoin="round" mask="url(#b)"/></g></svg>