<svg viewBox="0 0 56 78" xmlns="http://www.w3.org/2000/svg"><g fill="none" fill-rule="evenodd"><path d="M1 76.349h53.057V12.3H1V76.35zM28.157 1a5.652 5.652 0 110 11.303 5.652 5.652 0 010-11.303z" stroke="#B5D0E7" stroke-width="2"/><path fill="#FFFFFE" d="M13.715 13.558h27.628V6.023H13.715z"/><path d="M14.97 12.302h25.117V7.28H14.971v5.023zM9.949 23.605h12.558c.694 0 1.256.562 1.256 1.255V37.42c0 .693-.562 1.255-1.256 1.255H9.948a1.255 1.255 0 01-1.256-1.255V24.86c0-.693.561-1.255 1.256-1.255z" stroke="#B5D0E7" stroke-width="2"/><path d="M9.948 48.446h12.558c.694 0 1.256.561 1.256 1.256V62.26c0 .694-.562 1.256-1.256 1.256H9.948a1.255 1.255 0 01-1.256-1.256V49.702c0-.695.561-1.256 1.256-1.256z" stroke="#ED2E26" stroke-width="2"/><path d="M32.276 23.605h12.558c.695 0 1.256.562 1.256 1.255V37.42c0 .693-.561 1.255-1.256 1.255H32.276a1.256 1.256 0 01-1.256-1.255V24.86c0-.693.563-1.255 1.256-1.255zm0 24.84h12.558c.695 0 1.256.562 1.256 1.257V62.26c0 .694-.561 1.256-1.256 1.256H32.276a1.255 1.255 0 01-1.256-1.256V49.702c0-.695.563-1.256 1.256-1.256z" stroke="#B2CADA" stroke-width="2"/><path stroke="#ED2E26" stroke-width="2" stroke-linecap="round" stroke-linejoin="round" d="M12.737 56.128l1.9 2.187 5.213-4.53"/></g></svg>