<svg xmlns="http://www.w3.org/2000/svg" viewBox="0 0 38.58 55.45"><defs><style>.cls-1,.cls-3,.cls-4{fill:none;stroke-linecap:round;stroke-width:1.24px}.cls-1{stroke:#b5d0e7}.cls-1,.cls-4{stroke-linejoin:round}.cls-2{fill:#ee3e4a}.cls-3{stroke:#ee3e4a}.cls-4{stroke:#c5e2e9}</style></defs><g id="Layer_2" data-name="Layer 2"><g id="Icons"><path id="Stroke-3" class="cls-1" d="M1.53 32.36h35.52a.92.92 0 01.91.93V42a.92.92 0 01-.91.93H1.53A.92.92 0 01.62 42v-8.71a.92.92 0 01.91-.93z"/><path id="Stroke-5" class="cls-1" d="M1.53 42.93h35.52a.93.93 0 01.91.94v8.71a.92.92 0 01-.91.93H1.53a.92.92 0 01-.91-.93v-8.71a.93.93 0 01.91-.94z"/><path id="Stroke-7" class="cls-1" d="M1.53 21.78h35.52a.92.92 0 01.91.93v8.71a.93.93 0 01-.91.94H1.53a.93.93 0 01-.91-.94v-8.71a.92.92 0 01.91-.93z"/><path id="Fill-11" class="cls-2" d="M17.42 27a1.51 1.51 0 111.51 1.5 1.51 1.51 0 01-1.51-1.5"/><path id="Stroke-13" class="cls-3" d="M3.73 48.17a1.51 1.51 0 111.51 1.5 1.51 1.51 0 01-1.51-1.5z"/><path id="Fill-15" class="cls-2" d="M10 48.17a1.5 1.5 0 111.5 1.5 1.5 1.5 0 01-1.5-1.5"/><path id="Stroke-17" class="cls-3" d="M13 37.59a1.5 1.5 0 11-1.5-1.5 1.51 1.51 0 011.5 1.5z"/><path id="Fill-19" class="cls-2" d="M6.74 37.59a1.51 1.51 0 11-1.5-1.5 1.51 1.51 0 011.5 1.5"/><path id="Stroke-21" class="cls-4" d="M23.54 45.94l3.11 3.34"/><path id="Stroke-23" class="cls-1" d="M17.42 46.67L20.53 50"/><path id="Stroke-25" class="cls-4" d="M26.65 45.94l3.11 3.34"/><path id="Stroke-27" class="cls-4" d="M29.76 45.94l3.11 3.34"/><path id="Stroke-29" class="cls-1" d="M23.64 36.09l3.12 3.34"/><path id="Stroke-31" class="cls-1" d="M17.42 36.09l3.11 3.34"/><path id="Stroke-33" class="cls-1" d="M29.87 36.09L33 39.43"/><path id="Stroke-35" class="cls-1" d="M11.82 25.51l3.11 3.34"/><path id="Stroke-37" class="cls-1" d="M5.6 25.51l3.11 3.34"/><path id="Stroke-35-2" data-name="Stroke-35" class="cls-1" d="M29.87 25.51L33 28.85"/><path id="Stroke-37-2" data-name="Stroke-37" class="cls-1" d="M23.64 25.51l3.12 3.34"/><path id="Stroke-7-2" data-name="Stroke-7" class="cls-1" d="M1.53 11.2h35.52a.92.92 0 01.91.93v8.72a.92.92 0 01-.91.93H1.53a.92.92 0 01-.91-.93v-8.72a.92.92 0 01.91-.93z"/><path id="Fill-11-2" data-name="Fill-11" class="cls-2" d="M17.42 16.44a1.51 1.51 0 113 0 1.51 1.51 0 01-3 0"/><path id="Stroke-35-3" data-name="Stroke-35" class="cls-1" d="M11.82 14.93l3.11 3.35"/><path id="Stroke-37-3" data-name="Stroke-37" class="cls-1" d="M5.6 14.93l3.11 3.35"/><path id="Stroke-35-4" data-name="Stroke-35" class="cls-1" d="M29.87 14.93L33 18.28"/><path id="Stroke-37-4" data-name="Stroke-37" class="cls-1" d="M23.64 14.93l3.12 3.35"/><path id="Stroke-7-3" data-name="Stroke-7" class="cls-1" d="M1.53.62h35.52a.92.92 0 01.91.93v8.72a.92.92 0 01-.91.93H1.53a.92.92 0 01-.91-.93V1.55a.92.92 0 01.91-.93z"/><path id="Stroke-9" class="cls-3" d="M3.73 5.86a1.51 1.51 0 111.51 1.5 1.51 1.51 0 01-1.51-1.5z"/><path id="Fill-11-3" data-name="Fill-11" class="cls-2" d="M10 5.86a1.5 1.5 0 111.5 1.5 1.5 1.5 0 01-1.5-1.5"/><path id="Stroke-35-5" data-name="Stroke-35" class="cls-1" d="M23.64 4.36l3.12 3.34"/><path id="Stroke-37-5" data-name="Stroke-37" class="cls-1" d="M17.42 4.36l3.11 3.34"/><path id="Stroke-39" class="cls-1" d="M29.87 4.36L33 7.7"/><path id="Fill-41" d="M27.9 40.63A8.58 8.58 0 0134 42.8a27.79 27.79 0 01.09 4.83c-.23 4.89-6.17 7.82-6.17 7.82s-5.92-2.93-6.2-7.82a27.79 27.79 0 01.09-4.83 8.59 8.59 0 016.09-2.17" fill="#ee3c39"/><path id="Fill-43" d="M24.85 47.05a3.09 3.09 0 013-3.13 3 3 0 013 3 4 4 0 01-2 3 5.34 5.34 0 001.83.47A4.38 4.38 0 0032.44 47a4.55 4.55 0 10-9.09 0 5 5 0 001.82 3.89 9.42 9.42 0 004.61 1.91 5.18 5.18 0 001.34-1.26 12.55 12.55 0 01-4-1.1 3.68 3.68 0 01-2.27-3.35" fill="#fefefe"/></g></g></svg>