<svg version="1.1" id="Layer_1" xmlns="http://www.w3.org/2000/svg" x="0" y="0" viewBox="0 0 64 64" xml:space="preserve"><style>.st0{fill:none;stroke:#b5cfe5;stroke-width:2;stroke-linecap:round;stroke-linejoin:round}.st1{fill:#ed2e26}.st2{fill:none;stroke:#fff;stroke-linecap:round;stroke-linejoin:round;stroke-miterlimit:10}</style><switch><g><path class="st0" d="M17.1 46.5h29.8V54H17.1zM22 46.5V54M26.9 50.2h11.3M17.1 54h29.8v7.5H17.1zM22 54v7.4M26.9 57.6h11.3M4.4 8.6v11.2L22.5 30v8.5M59.6 8.6v11.2L41.5 30v8.5"/><g><path id="Stroke-40_17_" class="st0" d="M32 32l3.5 3.5"/><path id="Stroke-42_20_" class="st0" d="M28.5 35.5L32 32"/><path id="Stroke-44_19_" class="st0" d="M31.9 41.7L32 32"/></g><g><path id="Stroke-1_81_" class="st1" d="M23.3 14.6V7.3l-6.7-3.6-6.7 3.6v7.3l6.7 3.7z"/><path id="Stroke-7_72_" class="st1" d="M9.9 7.3l6.7 3.6 6.7-3.6"/><path id="Stroke-9_40_" class="st1" d="M16.6 10.9v7.4"/><path class="st2" d="M9.9 7.3l6.7 3.6M23.3 7.3l-6.7 3.6M16.6 18.3v-7.4"/></g><g><path id="Stroke-1_80_" class="st1" d="M38.7 23.6v-7.4L32 12.6l-6.7 3.6v7.4l6.7 3.6z"/><path id="Stroke-7_71_" class="st1" d="M25.3 16.2l6.7 3.6 6.7-3.6"/><path id="Stroke-9_39_" class="st1" d="M32 19.8v7.4"/><path class="st2" d="M25.3 16.2l6.7 3.6M38.7 16.2L32 19.8M32 27.2v-7.4"/></g><g><path id="Stroke-1_79_" class="st1" d="M51.5 11V3.7L44.8.1l-6.7 3.6V11l6.7 3.7z"/><path id="Stroke-7_70_" class="st1" d="M38.1 3.7l6.7 3.6 6.7-3.6"/><path id="Stroke-9_38_" class="st1" d="M44.8 7.3v7.4"/><path class="st2" d="M38.1 3.7l6.7 3.6M51.6 3.7l-6.7 3.6M44.8 14.7V7.3"/></g></g></switch></svg>