<svg version="1.1" id="Layer_1" xmlns="http://www.w3.org/2000/svg" x="0" y="0" viewBox="0 0 64 64" xml:space="preserve"><style>.st1,.st13,.st14{fill:none;stroke:#b5d0e7;stroke-width:2;stroke-linecap:round;stroke-linejoin:round}.st13,.st14{fill:#f7fafc;stroke:#ed2e26}.st14{fill:#fff;stroke:#b5d0e7}</style><switch><g><path id="Stroke-1_34_" d="M48.3 47.2L47 54c-4 3.2-8.9 5.2-14.3 5.7-.4-.9-1-1.6-1.6-2.3-.9-.9-2.1-1.6-3.3-2-1-.3-1.8-.8-2.5-1.5a5.1 5.1 0 01-1.4-2.6c-.8-3.1.5-6.4 3.2-8.1l.2-.2c1.1-.7 1.1-2.2.1-2.9L21.7 36c-3.2-2.3-6-5.1-8.3-8.2L12.1 26c-1.6-2.2-2.5-5-2.5-7.7v-4.2C14.6 8.5 21.9 5 30 5c4.9 0 9.5 1.3 13.6 3.6-1.3 1.8-3 3.4-5 4.4-.9.5-1.6 1-1.9 1.9-.2.6-.2 1.2-.2 1.8 0 1.5.5 2.9 1.4 4.2.3.4.5.8.7 1.3l.7 1.8c.1.2.1.4.1.5 0 .6-.3 1.1-.9 1.3-.5.2-1.2.1-1.6-.4l-1.5-1.7c-.5-.6-1.2-1.1-1.8-1.5l-1.9-1.1c-1.4-.8-3-1.2-4.6-1l-2 .2c-.9.1-1.8.4-2.5.9s-1.4 1.1-1.8 1.9c-.9 1.5-1 3.3-.3 4.9l.4.9c.3.7 1.1.9 1.7.5l1.4-1c.6-.4 1.3-.4 1.9-.1l1.7 1c.5.3.8.8.9 1.3l.4 2.9c.2 1.9 1.2 3.7 2.6 5l.6.6c.8.8 2.1 1 3.1.6l.8-.3c1.7-.7 3.6-.5 5.2.5l5.4 3.3c1.3.8 2 2.4 1.7 4z" fill="#dae7f2"/><path id="Stroke-3_11_" class="st1" d="M2.6 32.5C2.6 17.3 14.9 5 30 5s27.5 12.3 27.5 27.5S45.2 59.9 30 59.9 2.6 47.6 2.6 32.5z"/><path class="st1" d="M8.1 46.7v1.4l.8-1.2"/><path fill="none" stroke="#b5d0e7" stroke-width="2" stroke-linecap="round" stroke-linejoin="round" stroke-dasharray="2.7651,5.5302" d="M11.7 42.1l2.9-4.7"/><path class="st1" d="M16 35.1l.8-1.2 1 1"/><path fill="none" stroke="#b5d0e7" stroke-width="2" stroke-linecap="round" stroke-linejoin="round" stroke-dasharray="2.8235,5.6471" d="M21.7 38.9L37.5 55"/><path class="st1" d="M39.5 57l1 1-.1-1.4"/><path fill="none" stroke="#b5d0e7" stroke-width="2" stroke-linecap="round" stroke-linejoin="round" stroke-dasharray="2.9982,5.9964" d="M39.8 50.7l-.8-9L42.9 26l-5-16"/><path class="st1" d="M37 7.1l-.4-1.3-1.3.5"/><path fill="none" stroke="#b5d0e7" stroke-width="2" stroke-linecap="round" stroke-linejoin="round" stroke-dasharray="2.5203,5.0406" d="M30.6 8.1l-18.8 7.3"/><path class="st1" d="M9.4 16.3l-1.3.5v1.4"/><path fill="none" stroke="#b5d0e7" stroke-width="2" stroke-linecap="round" stroke-linejoin="round" stroke-dasharray="2.584,5.1679" d="M8.1 23.4v20.7"/><path class="st1" d="M8.1 16.8l.7 1.3"/><path fill="none" stroke="#b5d0e7" stroke-width="2" stroke-linecap="round" stroke-linejoin="round" stroke-dasharray="3.2557,6.5113" d="M11.7 23.9l3 5.8"/><path class="st1" d="M16.1 32.6l.7 1.3 1.3-.4"/><path fill="none" stroke="#b5d0e7" stroke-width="2" stroke-linecap="round" stroke-linejoin="round" stroke-dasharray="2.8057,5.6113" d="M23.5 31.8L42.9 26l10.5 1.8"/><path class="st1" d="M56.1 28.3l1.4.2"/><g><path class="st1" d="M36.6 5.8l-.8 1.1"/><path fill="none" stroke="#b5d0e7" stroke-width="2" stroke-linecap="round" stroke-linejoin="round" stroke-dasharray="2.8687,5.7374" d="M32.5 11.6L19.2 30.4"/><path class="st1" d="M17.6 32.7l-.8 1.2 1.3.4"/><path fill="none" stroke="#b5d0e7" stroke-width="2" stroke-linecap="round" stroke-linejoin="round" stroke-dasharray="2.5946,5.1892" d="M23 36l12.2 4.4"/><path class="st1" d="M37.7 41.2l1.3.5 1.2-.8"/><path fill="none" stroke="#b5d0e7" stroke-width="2" stroke-linecap="round" stroke-linejoin="round" stroke-dasharray="2.5292,5.0585" d="M44.3 38l10.4-7.2"/><path class="st1" d="M56.8 29.3l1.2-.8"/></g><g><path class="st1" d="M8.1 48.1l1.4.4"/><path fill="none" stroke="#b5d0e7" stroke-width="2" stroke-linecap="round" stroke-linejoin="round" stroke-dasharray="2.8236,5.6472" d="M14.9 50.1l21.6 6.7"/><path class="st1" d="M39.2 57.6l1.3.4"/></g><circle class="st13" cx="42.9" cy="26" r="3.9"/><circle class="st14" cx="57.5" cy="28.5" r="3.9"/><circle class="st13" cx="8.1" cy="16.8" r="3.9"/><circle class="st14" cx="36" cy="6" r="3.9"/><circle class="st14" cx="16.8" cy="33.9" r="3.9"/><circle class="st13" cx="8.1" cy="48.1" r="3.9"/><circle class="st14" cx="39" cy="41.7" r="3.9"/><circle class="st13" cx="40.5" cy="58" r="3.9"/></g></switch></svg>