<svg version="1.1" id="Layer_1" xmlns="http://www.w3.org/2000/svg" x="0" y="0" viewBox="0 0 64 64" xml:space="preserve"><style>.st1{fill:none;stroke:#b5d0e7;stroke-width:2;stroke-linecap:round;stroke-linejoin:round}</style><switch><g><path id="Stroke-3_75_" d="M10.2 32.1C10.2 19.9 20 10 32.1 10 44.2 10 54 19.9 54 32.1c0 12.2-9.8 22.1-21.9 22.1-12.1.1-21.9-9.8-21.9-22.1z" fill="#fff" stroke="#b5cfe5" stroke-width="2" stroke-linecap="round" stroke-linejoin="round"/><g id="Squares_6_" transform="translate(1 1)"><path id="Path-20_27_" class="st1" d="M12 0H0v12"/><path id="Path-20_26_" class="st1" d="M50 0h12v12"/><path id="Path-20_25_" class="st1" d="M12 62H0V50"/><path id="Path-20_24_" class="st1" d="M50 62h12V50"/></g><path id="Stroke-1_85_" d="M46.7 44.1l-1 5.5c-3.2 2.6-7.1 4.2-11.4 4.6-.3-.7-.8-1.3-1.3-1.8-.7-.7-1.6-1.3-2.7-1.6-.8-.2-1.5-.7-2-1.2-.5-.6-.9-1.3-1.1-2.1-.6-2.5.4-5.2 2.6-6.5l.2-.1c.8-.5.9-1.8.1-2.4l-4.6-3.3c-2.5-1.8-4.8-4.1-6.6-6.6L17.8 27c-1.3-1.8-2-4-2-6.2v-3.4c4-4.5 9.9-7.4 16.4-7.4 3.9 0 7.6 1 10.8 2.9-1 1.5-2.4 2.7-4 3.6-.7.4-1.3.8-1.5 1.5-.1.5-.2 1-.2 1.5 0 1.2.4 2.4 1.1 3.4.2.3.4.7.6 1l.6 1.5c.1.1.1.3.1.4 0 .5-.3.9-.7 1.1-.4.2-.9 0-1.3-.3l-1.2-1.4c-.4-.5-.9-.9-1.5-1.2l-1.6-1c-1.1-.7-2.4-.9-3.7-.8l-1.6.1c-.7.1-1.4.3-2 .7-.6.4-1.1.9-1.5 1.6-.7 1.2-.8 2.7-.3 3.9l.3.7c.2.5.9.7 1.4.4l1.1-.8c.4-.3 1-.3 1.5-.1l1.4.8c.4.2.7.6.7 1.1l.3 2.3c.2 1.5.9 3 2.1 4l.5.5c.7.6 1.6.8 2.5.5l.6-.3c1.4-.5 2.9-.4 4.1.4l4.3 2.7c1.3.8 1.8 2.1 1.6 3.4z" fill="none" stroke="#b5cfe5" stroke-width="2" stroke-linecap="round" stroke-linejoin="round"/><path id="Rectangle-19_2_" d="M3 31h58c.6 0 1 .4 1 1s-.4 1-1 1H3c-.6 0-1-.4-1-1s.4-1 1-1z" fill="#eb3027"/></g></switch></svg>