<svg version="1.1" id="Layer_1" xmlns="http://www.w3.org/2000/svg" x="0" y="0" viewBox="0 0 64 64" xml:space="preserve"><style>.st0{fill:none;stroke:#b5cfe5;stroke-width:2;stroke-linecap:round;stroke-linejoin:round}.st1{fill:#ed2e26}.st2{fill:#fff}.st3{fill:#b5d0e5}</style><switch><g><g id="Page-1_76_"><path id="Stroke-1_35_" class="st0" d="M51.3 47.5L50 54.8c-4.3 3.4-9.6 5.6-15.4 6.2-.4-.9-1-1.8-1.7-2.5-1-1-2.2-1.7-3.6-2.1-1-.3-2-.9-2.7-1.6-.7-.8-1.3-1.7-1.6-2.8-.8-3.4.6-6.9 3.5-8.7l.3-.2c1.1-.7 1.2-2.4.1-3.1l-6.1-4.4c-3.4-2.5-6.4-5.4-8.9-8.8l-1.4-2c-1.8-2.4-2.7-5.3-2.7-8.3V12C15.1 5.9 23 2 31.7 2 37 2 42 3.4 46.3 5.9c-1.4 2-3.2 3.6-5.4 4.7-1 .5-1.8 1.1-2 2.1-.2.7-.3 1.3-.3 2 0 1.6.5 3.2 1.5 4.5.3.4.6.9.8 1.4l.8 2c.1.2.1.4.1.6 0 .6-.4 1.2-1 1.4-.6.2-1.3.1-1.7-.4l-1.6-1.8c-.6-.6-1.2-1.2-2-1.6l-2-1.2c-1.5-.9-3.2-1.3-4.9-1.1l-2.1.2c-1 .1-1.9.4-2.7.9-.8.5-1.5 1.2-2 2.1-.9 1.6-1.1 3.5-.4 5.3l.4.9c.3.7 1.2 1 1.8.5l1.5-1.1c.6-.4 1.4-.5 2-.1l1.9 1c.5.3.9.8 1 1.4l.4 3.1c.3 2.1 1.2 4 2.8 5.4l.7.6c.9.8 2.2 1.1 3.4.6l.7-.3c1.8-.7 3.9-.5 5.6.5l5.8 3.6c1.5.9 2.3 2.6 1.9 4.4z"/><path id="Stroke-3_23_" class="st0" d="M2.2 31.6C2.2 15.3 15.4 2 31.7 2s29.6 13.3 29.6 29.6-13.2 29.5-29.5 29.5c-16.4 0-29.6-13.2-29.6-29.5z"/></g><path class="st1" d="M8.9 9.2c.2-2.8 2.5-5.8 6-5.8s5.8 2.9 6 5.8c.1 1.5-.4 3-1.3 4.1l-4.7 6.3-4.7-6.3c-.9-1.1-1.4-2.6-1.3-4.1z"/><circle class="st2" cx="14.9" cy="9" r="3.4"/><path class="st3" d="M31 9.9c.2-2.8 2.5-5.8 6-5.8s5.8 2.9 6 5.8c.1 1.5-.4 3-1.3 4.1L37 20.4l-4.7-6.3c-.9-1.2-1.4-2.7-1.3-4.2z"/><circle class="st2" cx="37" cy="9.7" r="3.4"/><g><path class="st3" d="M24.6 29.2c.2-2.8 2.5-5.8 6-5.8s5.8 2.9 6 5.8c.1 1.5-.4 3-1.3 4.1l-4.7 6.3-4.7-6.3c-.9-1.2-1.4-2.6-1.3-4.1z"/><circle class="st2" cx="30.6" cy="29" r="3.4"/></g><g><path class="st1" d="M39.3 42.3c.2-2.8 2.5-5.8 6-5.8s5.8 2.9 6 5.8c.1 1.5-.4 3-1.3 4.1l-4.7 6.3-4.7-6.3c-.9-1.1-1.4-2.6-1.3-4.1z"/><circle class="st2" cx="45.3" cy="42.1" r="3.4"/></g></g></switch></svg>