<svg xmlns="http://www.w3.org/2000/svg" width="64" height="55" viewBox="0 0 64 55"><g fill="none" fill-rule="evenodd"><path stroke="#B5D0E7" stroke-linecap="round" stroke-linejoin="round" stroke-width="2" d="M52 38.198v.361l1.561-.008a9.39 9.39 0 004.593-1.213h0a8.596 8.596 0 004.371-7.486v-.255a8.596 8.596 0 00-4.372-7.487h0a8.587 8.587 0 00-4.626-1.1L52 21.2"/><path stroke="#B5D0E7" stroke-linecap="round" stroke-linejoin="round" stroke-width="2" d="M12 38.47V21.749C12 10.78 20.512 1.428 31.472 1.015 42.994.579 52.507 9.827 52.507 21.253V38.25M26.004 51.033c-.074 1.326.807 2.599 2.12 2.8.145.022.293.033.444.033h6.875c1.587 0 3.01-1.188 3.093-2.773A2.933 2.933 0 0035.61 48h-7.073c-1.362.015-2.43 1.197-2.506 2.557l-.026.476z"/><path fill="#ED2E26" d="M32 6c8.284 0 15 6.716 15 15 0 8.284-6.716 15-15 15-8.284 0-15-6.716-15-15 0-8.284 6.716-15 15-15"/><path stroke="#B5D0E7" stroke-linecap="round" stroke-linejoin="round" stroke-width="2" d="M26 50.912C17.753 48.648 13.002 42.342 11 39"/><path stroke="#FFF" stroke-linecap="round" stroke-linejoin="round" stroke-width="2" d="M25 22.116l4.931 4.931L38.978 18"/><path stroke="#B5D0E7" stroke-linecap="round" stroke-linejoin="round" stroke-width="2" d="M11.525 38.198v.361l-1.561-.008a9.39 9.39 0 01-4.593-1.213h0A8.596 8.596 0 011 29.852v-.255a8.596 8.596 0 014.372-7.487h0a8.587 8.587 0 014.626-1.1l1.527.191"/></g></svg>