<svg xmlns="http://www.w3.org/2000/svg" width="74" height="55" viewBox="0 0 74 55"><g fill="#E42822" fill-rule="evenodd" stroke="#ED2E26" stroke-width=".25"><path d="M11.828 14.404c-.025 0-.046.021-.046.044v13.417l3.698.046.046-13.463-3.698-.044zm3.652 15.822h-3.652a2.364 2.364 0 01-2.361-2.361V14.448c0-1.3 1.059-2.361 2.361-2.361h3.652a2.365 2.365 0 012.361 2.361v13.417a2.364 2.364 0 01-2.361 2.361h0zm15.367 21.748h5.47l-4.765-15.865-6.544-1.919 5.839 17.784zm6.961 2.315h-8.586l-.317-.803-7.472-22.758 11.974 3.513 5.606 18.845v1.156l-1.205.047z"/><path d="M7.743 16.822a4.34 4.34 0 00-4.336 4.335 4.34 4.34 0 004.336 4.335h1.8v-8.67h-1.8zm4.115 10.985H7.743a6.656 6.656 0 01-6.65-6.65 6.656 6.656 0 016.65-6.65h4.115v13.3zm42.992-2.355a4.343 4.343 0 003.745-4.295 4.343 4.343 0 00-3.745-4.295v8.59zm-.889 2.355v-13.3h.296a6.658 6.658 0 016.652 6.65 6.658 6.658 0 01-6.652 6.65h-.296zm-7.408 10.88c-.64 0-1.157-.518-1.157-1.156v-32.7a1.157 1.157 0 012.315 0v32.7c0 .638-.519 1.157-1.158 1.157"/><path d="M17.764 28.517l34.85 10.67V3.127L17.763 13.8v14.717zm35.96 13.377l-.295-.036-37.95-11.62-.03-.903V12.15l.85-.324L53.829.33l.898.464.2.542.001.288v40.222l-1.205.047zm18.592-19.58H63.9a1.158 1.158 0 110-2.314h8.416a1.157 1.157 0 110 2.315m-7.818-9.07a1.155 1.155 0 01-.724-2.06l6.023-4.837a1.16 1.16 0 011.45 1.807l-6.024 4.835c-.214.173-.47.256-.725.256m7.22 22.975c-.22 0-.444-.063-.643-.197l-7.22-4.835a1.161 1.161 0 01-.32-1.607 1.161 1.161 0 011.608-.318l7.221 4.837a1.158 1.158 0 01-.646 2.12"/></g></svg>