<svg width="52" height="61" viewBox="0 0 52 61" xmlns="http://www.w3.org/2000/svg" xmlns:xlink="http://www.w3.org/1999/xlink"><defs><path id="a" d="M0 .167h23.833V24H0z"/><path id="c" d="M0 59.661h51.106V.001H0z"/></defs><g fill="none" fill-rule="evenodd"><path d="M28.517 23.62a2.631 2.631 0 002.631 2.631H42.42a2.633 2.633 0 012.633 2.632v7.218" stroke="#B5CFE5" stroke-width="2.106" stroke-linecap="round" stroke-linejoin="round"/><path d="M28.453 16.468v7.151a2.633 2.633 0 01-2.632 2.632H14.549a2.632 2.632 0 00-2.632 2.632v7.218" stroke="#ED2E26" stroke-width="2.106"/><g transform="translate(0 35.661)"><mask id="b" fill="#fff"><use xlink:href="#a"/></mask><path d="M0 12.084C0 5.502 5.335.167 11.917.167c6.58 0 11.916 5.335 11.916 11.917 0 6.58-5.335 11.916-11.916 11.916C5.335 24 0 18.665 0 12.084" fill="#ED2E26" mask="url(#b)"/></g><path stroke="#FFF" stroke-width="2.527" stroke-linecap="round" stroke-linejoin="round" d="M6.281 47.745l3.359 4.01 7.845-6.888"/><path stroke="#B5CFE5" stroke-width="2.527" stroke-linecap="round" stroke-linejoin="round" d="M49.843 42.956l-9.579 9.579M49.843 52.534l-9.579-9.579"/><path d="M31.23 13.916h-5.963a.848.848 0 01-.848-.848V7.106c0-.468.38-.848.848-.848h5.963c.468 0 .848.38.848.848v5.962c0 .469-.38.848-.848.848" fill="#B5CFE5"/><path stroke="#B5CFE5" stroke-width="1.8" stroke-linecap="round" stroke-linejoin="round" d="M24.159.9v2.499M28.249.9v2.499M32.339.9v2.499M24.159 16.776v2.498M32.339 16.776v2.498M37.436 5.998h-2.499M37.436 10.087h-2.499M37.436 14.177h-2.499M21.56 5.998h-2.499M21.56 10.087h-2.499M21.56 14.177h-2.499"/><mask id="d" fill="#fff"><use xlink:href="#c"/></mask><path stroke="#B5CFE5" stroke-width="1.8" stroke-linecap="round" stroke-linejoin="round" mask="url(#d)" d="M21.867 16.468h12.764V3.705H21.867z"/></g></svg>