<svg width="66" height="58" viewBox="0 0 66 58" xmlns="http://www.w3.org/2000/svg"><g fill="none" fill-rule="evenodd"><path stroke="#ED2E26" stroke-width="2.241" stroke-linecap="round" stroke-linejoin="round" d="M28.517 8.074h2.802"/><path d="M36.87 8.074h14.034c6.19 0 11.207 4.434 11.207 9.904 0 3.741-2.345 6.997-5.806 8.682" stroke="#ED2E26" stroke-width="2.241" stroke-linecap="round" stroke-linejoin="round" stroke-dasharray="5.551896547449045,5.551896547449045"/><path d="M53.686 27.577c-.89.2-1.821.307-2.78.307M35.189 47.694h-2.802" stroke="#ED2E26" stroke-width="2.241" stroke-linecap="round" stroke-linejoin="round"/><path d="M26.515 47.695H12.802c-6.191 0-11.207-4.435-11.207-9.905 0-5.471 5.016-9.906 11.207-9.906h32.366" stroke="#ED2E26" stroke-width="2.241" stroke-linecap="round" stroke-linejoin="round" stroke-dasharray="5.871292928169513,5.871292928169513"/><path stroke="#ED2E26" stroke-width="2.241" stroke-linecap="round" stroke-linejoin="round" d="M48.103 27.884h2.802"/><path d="M1.86 13.759V.793h20.656V13.76"/><path stroke="#B5D0E7" stroke-width="1.345" stroke-linecap="round" stroke-linejoin="round" d="M1.86 13.759V.793h20.656V13.76M10.415 2.533h3.544"/><path d="M12.187 16.08h8.124c3.835 0 3.375-2.322 3.375-2.322H14.6l-.724.65h-3.38l-.723-.65H.69s-.462 2.323 3.373 2.323h8.124z" fill="#FFF"/><path d="M12.187 16.08h8.124c3.835 0 3.375-2.322 3.375-2.322H14.6l-.724.65h-3.38l-.723-.65H.69s-.462 2.323 3.373 2.323h8.124z" stroke="#B5D0E7" stroke-width="1.345" stroke-linecap="round" stroke-linejoin="round"/><path fill="#ED2E26" d="M42.497 53.078V40.113h20.658v12.965"/><path stroke="#ED2E26" stroke-width="1.345" stroke-linecap="round" stroke-linejoin="round" d="M42.497 53.078V40.113h20.658v12.965"/><path stroke="#FFF" stroke-width="1.345" stroke-linecap="round" stroke-linejoin="round" d="M51.053 41.852h3.545"/><path d="M52.825 55.4h8.124c3.836 0 3.375-2.322 3.375-2.322h-9.085l-.722.65H51.135l-.722-.65h-9.085s-.461 2.322 3.375 2.322h8.122z" fill="#FFF"/><path d="M52.825 55.4h8.124c3.836 0 3.375-2.322 3.375-2.322h-9.085l-.722.65H51.135l-.722-.65h-9.085s-.461 2.322 3.375 2.322h8.122z" stroke="#ED2E26" stroke-width="1.345" stroke-linecap="round" stroke-linejoin="round"/></g></svg>