<svg width="69" height="51" viewBox="0 0 69 51" xmlns="http://www.w3.org/2000/svg" xmlns:xlink="http://www.w3.org/1999/xlink"><defs><path id="a" d="M0 .254h27.083V32.5H0z"/></defs><g fill="none" fill-rule="evenodd"><path d="M56.169 18.67c-.482 0-.953.042-1.417.105-.977-4.062-4.624-7.085-8.985-7.085a9.201 9.201 0 00-4.223 1.027C39.279 6.484 33.37 2 26.352 2c-8.965 0-16.235 7.27-16.235 16.235 0 .126.035.245.038.371C5.475 19.8 2 24.006 2 29.058c0 .072.01.14.01.21 0 .08-.01.155-.01.234 0 4.911 3.274 9.05 7.751 10.38H59.25c4.48-1.33 7.75-5.469 7.75-10.38 0-5.986-4.85-10.833-10.831-10.833z" stroke="#B5D0E7" stroke-width="2.167" stroke-linecap="round" stroke-linejoin="round"/><g transform="translate(20.417 17.996)"><mask id="b" fill="#fff"><use xlink:href="#a"/></mask><path d="M13.54.254c8.818 0 13.25 4.718 13.25 4.718s.509 3.492.184 10.524C26.486 26.12 13.543 32.5 13.542 32.5 13.54 32.5.597 26.12.108 15.496-.216 8.464.291 4.972.291 4.972S4.721.254 13.54.254" fill="#ED2E26" mask="url(#b)"/></g><path d="M27.269 32.667c0-3.756 2.97-6.812 6.618-6.812a6.633 6.633 0 016.626 6.624c0 2.917-2.507 5.316-4.439 6.55.749.426 2.403.876 3.987 1.02a9.563 9.563 0 003.723-7.57c0-5.456-4.44-9.896-9.897-9.896-5.456 0-9.895 4.44-9.895 9.896 0 3.296 1.372 6.224 3.968 8.468 2.428 2.097 5.978 3.497 10.02 4.16.875-.483 2.373-1.912 2.936-2.75-3.378-.433-6.572-1.256-8.714-2.381-3.273-1.717-4.933-4.176-4.933-7.31" fill="#FEFEFE"/></g></svg>