<svg width="69" height="69" viewBox="0 0 69 69" xmlns="http://www.w3.org/2000/svg"><g fill="none" fill-rule="evenodd"><path d="M56.081 52.004l-1.487 8.043A32.306 32.306 0 0137.65 66.85a9.523 9.523 0 00-1.916-2.714 9.326 9.326 0 00-3.95-2.316 6.687 6.687 0 01-2.973-1.795 6.851 6.851 0 01-1.682-3.04 8.844 8.844 0 013.843-9.604l.293-.179c1.244-.796 1.3-2.6.105-3.461l-6.751-4.875a44.257 44.257 0 01-9.799-9.718l-1.585-2.16a15.47 15.47 0 01-2.997-9.158v-4.94C16.186 6.21 24.856 2 34.499 2a32.355 32.355 0 0116.032 4.225 16.439 16.439 0 01-5.947 5.217c-1.065.552-1.927 1.235-2.21 2.266a8.245 8.245 0 00-.284 2.17 8.32 8.32 0 001.616 4.932c.349.471.634.983.853 1.52l.886 2.153c.09.211.122.422.122.633a1.688 1.688 0 01-2.941 1.13L40.83 24.23a9.133 9.133 0 00-2.178-1.77l-2.25-1.325a8.988 8.988 0 00-5.445-1.202l-2.356.219a6.692 6.692 0 00-2.974 1.04 6.61 6.61 0 00-2.16 2.283 6.625 6.625 0 00-.39 5.801l.422 1.032a1.348 1.348 0 002.023.593l1.682-1.17a2.097 2.097 0 012.225-.122l2.048 1.13c.594.325.992.91 1.082 1.576l.437 3.438a9.829 9.829 0 003.048 5.922l.756.699a3.516 3.516 0 003.696.691l.943-.382a6.842 6.842 0 016.142.545l6.361 3.948a4.678 4.678 0 012.139 4.827z" stroke="#B5D0E7" stroke-width="2.167" stroke-linecap="round" stroke-linejoin="round"/><path d="M2 34.501C2 16.551 16.55 2 34.5 2S67 16.551 67 34.501c0 17.95-14.55 32.501-32.5 32.501S2 52.451 2 34.502z" stroke="#B5D0E7" stroke-width="2.167" stroke-linecap="round" stroke-linejoin="round"/><path d="M51.207 35.454c8.665.013 15.68 7.047 15.666 15.711-.012 8.665-7.046 15.68-15.71 15.666-8.665-.011-15.68-7.047-15.668-15.711.013-8.665 7.048-15.678 15.712-15.666" fill="#ED2E26"/><path d="M51.185 44.276c6.195 0 8.85 6.866 8.85 6.866s-1.943 6.867-8.85 6.867-8.851-6.867-8.851-6.867 2.655-6.866 8.85-6.866m0-1.566C44 42.71 41 50.257 40.875 50.58a1.566 1.566 0 00-.046.99c.785 2.769 3.957 8.006 10.357 8.006 6.4 0 9.572-5.237 10.357-8.006a1.573 1.573 0 00-.047-.99c-.125-.322-3.124-7.869-10.31-7.869" fill="#FFF"/><path d="M47.344 51.142a3.84 3.84 0 117.682.003 3.84 3.84 0 01-7.682-.003z" stroke="#FFF" stroke-width="1.625" stroke-linecap="round" stroke-linejoin="round"/></g></svg>