<svg width="68" height="68" viewBox="0 0 68 68" xmlns="http://www.w3.org/2000/svg"><g fill="none" fill-rule="evenodd"><path d="M33.977 46.008c.537 0 1.396.938 1.396.938.939.994 2.65.939 2.65.939 2.981 0 5.362-1.104 5.362-1.104 2.215-.718 3.527-4.859 3.527-4.859 1.547-3.7-2.153-2.76-2.153-2.76-6.184.662-10.782.496-10.782.496s-4.598.166-10.782-.497c0 0-3.699-.938-2.153 2.761 0 0 1.313 4.14 3.527 4.859 0 0 2.382 1.104 5.362 1.104 0 0 1.712.055 2.65-.939 0 0 .86-.938 1.396-.938" fill="#B5D0E7"/><path d="M6.883 33.977c0-14.964 12.131-27.094 27.095-27.094 14.963 0 27.094 12.13 27.094 27.094 0 14.965-12.13 27.095-27.094 27.095S6.883 48.942 6.883 33.977zM33.977 2v9.765M33.977 56.19v9.765M65.955 33.977H56.19M11.765 33.977H2" stroke="#ED2E26" stroke-width="2.281" stroke-linecap="round" stroke-linejoin="round"/><path d="M33.977 37.357c20.36 0 18.789-3.38 18.789-3.38-.112-1.282-7.233-2.086-7.233-2.086l-2.099-9.11c-1.214-4.472-5.3-1.877-5.3-1.877-1.933 1.27-4.157 1.053-4.157 1.053s-2.223.218-4.156-1.053c0 0-4.086-2.595-5.3 1.877l-2.099 9.11s-7.121.804-7.233 2.086c0 0-1.57 3.38 18.788 3.38" stroke="#B5D0E7" stroke-width="2.28"/><path d="M27.778 41.671s-2.872 0-2.705 1.05c0 0 .496 2.319 3.81 2.319 0 0 2.429-.112 2.538-1.933 0 0-.22-1.214-3.643-1.436M40.177 41.671s2.871 0 2.705 1.05c0 0-.496 2.319-3.81 2.319 0 0-2.43-.112-2.539-1.933 0 0 .22-1.214 3.644-1.436" fill="#FFF"/></g></svg>