<svg xmlns="http://www.w3.org/2000/svg" xmlns:xlink="http://www.w3.org/1999/xlink" width="61" height="55"><defs><path id="a" d="M0 .247h60.48V55H0z"/></defs><g fill="none" fill-rule="evenodd"><path fill="#FFF" d="M1 42.267h56.083V1H1z"/><g transform="translate(0 -.247)"><mask id="b" fill="#fff"><use xlink:href="#a"/></mask><path fill="#B5D0E5" d="M2 41.514h54.083V2.247H2v39.267zm55.083 2H1a1 1 0 0 1-1-1V1.247a1 1 0 0 1 1-1h56.083a1 1 0 0 1 1 1v41.267a1 1 0 0 1-1 1z" mask="url(#b)"/><path fill="#B5D0E5" d="M57.083 11.37H1a1 1 0 1 1 0-2h56.083a1 1 0 1 1 0 2M4.861 5.571a1.544 1.544 0 1 1 3.088 0 1.544 1.544 0 0 1-3.088 0m4.81 0a1.544 1.544 0 1 1 3.088 0 1.544 1.544 0 0 1-3.087 0m4.81 0a1.544 1.544 0 1 1 3.087 0 1.544 1.544 0 0 1-3.088 0" mask="url(#b)"/><path fill="#B5CFE5" d="M6.66 31.588a7.822 7.822 0 1 1 15.643.001 7.822 7.822 0 0 1-15.643-.001" mask="url(#b)"/><path fill="#FFF" d="M23.773 32.588h-9.292a1 1 0 0 1-1-1v-9.011a1 1 0 1 1 2 0v8.01h8.292a1 1 0 1 1 0 2" mask="url(#b)"/><path fill="#B5CFE5" d="M19.144 16.026H6.503a.61.61 0 0 1-.608-.609v-.042a.61.61 0 0 1 .608-.609h12.64a.61.61 0 0 1 .609.61v.041a.61.61 0 0 1-.608.61m6.802 2.645H6.503a.61.61 0 0 1-.609-.61v-.041a.61.61 0 0 1 .61-.61h19.442a.61.61 0 0 1 .608.61v.042a.61.61 0 0 1-.608.609M28.688 38.198h3.76V27.616h-3.76zM34.799 38.198h3.76V14.766h-3.76zM40.909 38.198h3.76V14.766h-3.76zM47.018 38.198h3.761V22.577h-3.761z" mask="url(#b)"/><path fill="#FFF" d="M45.412 48.257a1 1 0 1 0 2 0v-4.203c0-.013-.007-.024-.007-.036a1.003 1.003 0 0 0-.068-.344l-.002-.004c-.006-.014-.017-.024-.023-.038a.991.991 0 0 0-.17-.251c-.025-.027-.052-.05-.08-.073a.883.883 0 0 0-.204-.137c-.032-.017-.062-.034-.097-.047a.983.983 0 0 0-.349-.07H42.25a1 1 0 1 0 0 2h1.73l-5.544 5.487c.43.512.904.984 1.41 1.42l5.566-5.511v1.807z" mask="url(#b)"/><path fill="#ED2E26" d="M57.496 34.426l-5.549 5.548h1.79a1 1 0 1 1 0 2h-4.204c-.129 0-.259-.025-.383-.076l-.003-.002c-.008-.004-.015-.011-.025-.015a.947.947 0 0 1-.264-.18c-.026-.022-.046-.048-.069-.075a.977.977 0 0 1-.14-.208c-.016-.032-.033-.061-.046-.095a1 1 0 0 1-.07-.35V36.77a1 1 0 1 1 2 0v1.79l5.55-5.548c-2.18-1.857-5-2.984-8.089-2.984-6.896 0-12.486 5.589-12.486 12.486 0 3.058 1.102 5.856 2.928 8.027l5.544-5.487h-1.73a1 1 0 1 1 0-2h4.162c.122 0 .238.028.35.07.034.013.064.03.096.047a.883.883 0 0 1 .203.137c.03.024.056.046.081.073a.991.991 0 0 1 .17.25c.006.015.017.025.023.039l.002.004c.046.11.063.228.068.344 0 .012.007.023.007.036v4.203a1 1 0 1 1-2 0V46.45l-5.567 5.51a12.425 12.425 0 0 0 8.15 3.04c6.895 0 12.485-5.591 12.485-12.486 0-3.088-1.127-5.91-2.984-8.088" mask="url(#b)"/><path fill="#FFF" d="M50.533 36.77a1 1 0 1 0-2 0v4.203c0 .123.03.239.07.35.013.033.03.063.045.094a.953.953 0 0 0 .141.209c.023.027.043.053.07.077a.965.965 0 0 0 .263.177c.01.005.016.011.025.015.001.002.002.002.003.002a.987.987 0 0 0 .383.077h4.204a1 1 0 1 0 0-2h-1.79l5.55-5.548a12.422 12.422 0 0 0-1.415-1.415l-5.549 5.548v-1.79z" mask="url(#b)"/></g></g></svg>