<svg xmlns="http://www.w3.org/2000/svg" width="56" height="56"><g fill="none" fill-rule="evenodd"><path fill="#B5D0E7" d="M.875 12.25A.874.874 0 0 1 0 11.375V.875C0 .391.391 0 .875 0h10.5a.874.874 0 1 1 0 1.75H1.75v9.625a.874.874 0 0 1-.875.875m54.25 0a.874.874 0 0 1-.875-.875V1.75h-9.625a.874.874 0 1 1 0-1.75h10.5c.484 0 .875.391.875.875v10.5a.874.874 0 0 1-.875.875M11.375 56H.875A.874.874 0 0 1 0 55.125v-10.5a.874.874 0 1 1 1.75 0v9.625h9.625a.874.874 0 1 1 0 1.75m43.75 0h-10.5a.874.874 0 1 1 0-1.75h9.625v-9.625a.874.874 0 1 1 1.75 0v10.5a.874.874 0 0 1-.875.875m-26.586-8.089c-.114 0-.226 0-.34-.002-5.135-.09-9.927-2.182-13.494-5.89-3.567-3.709-5.48-8.59-5.391-13.743.185-10.641 8.971-19.117 19.56-18.962a.874.874 0 0 1 .859.89c-.01.483-.409.896-.89.86-9.616-.19-17.61 7.566-17.78 17.242a17.477 17.477 0 0 0 4.903 12.5 17.324 17.324 0 0 0 12.264 5.353c9.633.147 17.61-7.566 17.78-17.243a.885.885 0 0 1 .89-.86.875.875 0 0 1 .86.89c-.184 10.527-8.775 18.965-19.22 18.965"/><path fill="#B5D0E7" d="M28.543 43.222c-.088 0-.175 0-.262-.003a14.43 14.43 0 0 1-10.217-4.46 14.541 14.541 0 0 1-4.08-10.402 14.543 14.543 0 0 1 4.441-10.254c2.797-2.711 6.438-4.174 10.366-4.1a.877.877 0 0 1 .86.89.877.877 0 0 1-.89.86c-3.397-.087-6.658 1.222-9.117 3.607a12.805 12.805 0 0 0-3.91 9.028 12.801 12.801 0 0 0 3.592 9.159 12.691 12.691 0 0 0 8.986 3.922 12.67 12.67 0 0 0 9.117-3.606 12.801 12.801 0 0 0 3.91-9.028.895.895 0 0 1 .89-.86.876.876 0 0 1 .86.89 14.549 14.549 0 0 1-4.442 10.255 14.434 14.434 0 0 1-10.104 4.102"/><path fill="#B5D0E7" d="M28.54 37.19h-.154c-4.713-.083-8.479-3.998-8.397-8.728.082-4.68 3.903-8.43 8.547-8.43h.15a.874.874 0 0 1 .86.89.864.864 0 0 1-.89.86h-.12c-3.695 0-6.732 2.986-6.797 6.711-.066 3.765 2.93 6.881 6.678 6.947a6.758 6.758 0 0 0 4.841-1.914 6.8 6.8 0 0 0 2.076-4.796c.007-.482.416-.843.89-.86a.875.875 0 0 1 .86.89 8.54 8.54 0 0 1-2.608 6.022 8.478 8.478 0 0 1-5.936 2.409"/><path fill="#EB3027" d="M28.35 29.617a.874.874 0 0 1-.619-1.494L40.406 15.45a.874.874 0 1 1 1.237 1.238L28.97 29.36a.873.873 0 0 1-.619.257M14.76 14.759a2 2 0 1 1-2.003 2.001c0-1.106.897-2.001 2.003-2.001M28.77 39.448a2.002 2.002 0 1 1 0 4.003 2.002 2.002 0 0 1 0-4.003"/><path fill="#EB3027" d="M27.884 27.009a2 2 0 1 1 0 4.003 2.002 2.002 0 1 1 0-4.003"/></g></svg>