<svg width="66" height="63" viewBox="0 0 66 63" xmlns="http://www.w3.org/2000/svg" xmlns:xlink="http://www.w3.org/1999/xlink"><defs><path id="a" d="M.633.618h28.573v26.104H.633z"/></defs><g fill="none" fill-rule="evenodd"><path d="M9.968 9.845C4.48 15.299 1.083 22.853 1.083 31.2c0 16.634 13.489 30.118 30.129 30.118S61.34 47.834 61.34 31.2c0-16.633-13.488-30.116-30.128-30.116" stroke="#B5D0E7" stroke-width="2.167" stroke-linecap="round" stroke-linejoin="round"/><path d="M35.35 30.316a4.138 4.138 0 00-4.137-4.137 4.138 4.138 0 104.138 4.137" fill="#FEFEFE"/><path d="M53.685 31.19c0-12.411-10.06-22.472-22.473-22.472-12.411 0-22.472 10.06-22.472 22.472 0 12.411 10.06 22.473 22.472 22.473S53.685 43.601 53.685 31.19z" stroke="#B5D0E7" stroke-width="2.167" stroke-linecap="round" stroke-linejoin="round"/><path d="M31.212 30.53l10.952-10.868c-3.123-2.922-6.392-4.725-11.008-4.725l.056 15.593z" fill="#ED2E26"/><path stroke="#B5D0E7" stroke-width="2.167" stroke-linecap="round" stroke-linejoin="round" d="M30.542 31.285l11.623-11.623"/><path d="M34.3 30.53a3.086 3.086 0 00-3.088-3.086 3.087 3.087 0 103.087 3.086" fill="#FEFEFE"/><path d="M34.3 30.53a3.086 3.086 0 00-3.088-3.086 3.087 3.087 0 103.087 3.086zM31.212 8.717v3.015M31.212 50.647v3.015M53.684 31.19h-3.015M11.755 31.19H8.74M47.103 15.299l-2.132 2.132M17.454 44.948l-2.132 2.132M47.103 47.081l-2.132-2.132M17.454 17.432L15.322 15.3" stroke="#B5D0E7" stroke-width="2.167" stroke-linecap="round" stroke-linejoin="round"/><path d="M12.326 12.658l1.92-6.466a.412.412 0 00-.504-.515l-6.5 1.803a.412.412 0 00-.184.686l4.578 4.663c.22.225.6.13.69-.17" fill="#B5D0E7"/><g transform="translate(35.75 35.318)"><mask id="b" fill="#fff"><use xlink:href="#a"/></mask><path d="M29.003 24.346L16.32 1.443c-.61-1.1-2.19-1.1-2.8 0L.835 24.346a1.6 1.6 0 001.4 2.376h25.368a1.6 1.6 0 001.4-2.376" fill="#ED2E26" mask="url(#b)"/></g><path fill="#FFF" d="M49.253 58.06h2.854v-2.963h-2.854zM52.193 43.788l-.794 9.507h-1.438l-.815-9.507v-.751h3.047z"/></g></svg>