<svg xmlns="http://www.w3.org/2000/svg" xmlns:xlink="http://www.w3.org/1999/xlink" width="59" height="61">
  <defs>
    <path id="icon-deploy-a" d="M.081.127h10.236v9.85H.081z"/>
  </defs>
  <g fill="none" fill-rule="evenodd">
    <path fill="#EC3027" d="M25.135 20.527c8.122 0 12.205 4.344 12.205 4.344s.466 3.217.167 9.692c-.448 9.784-12.369 15.66-12.37 15.66 0 0-11.921-5.876-12.371-15.66-.298-6.475.168-9.692.168-9.692s4.08-4.344 12.201-4.344"/>
    <path fill="#FFF" d="M18.977 33.804c0-3.459 2.735-6.274 6.095-6.274a6.108 6.108 0 0 1 6.101 6.1c0 2.687-2.308 4.897-4.088 6.032.69.393 2.213.807 3.672.942a8.807 8.807 0 0 0 3.43-6.974c0-5.023-4.09-9.113-9.115-9.113s-9.113 4.09-9.113 9.113c0 3.036 1.263 5.733 3.654 7.799 2.236 1.93 5.506 3.22 9.228 3.83.807-.444 2.185-1.76 2.703-2.531-3.11-.4-6.051-1.158-8.025-2.193-3.014-1.582-4.542-3.845-4.542-6.731"/>
    <path fill="#B5D0E7" d="M25.228 60.873C11.318 60.873 0 49.555 0 35.645c0-6.908 2.739-13.356 7.712-18.155a.969.969 0 1 1 1.346 1.394c-4.592 4.43-7.12 10.383-7.12 16.76 0 12.844 10.447 23.292 23.29 23.292s23.29-10.448 23.29-23.291V3.2l-6.66 6.35a.969.969 0 1 1-1.338-1.402l8.3-7.912a.97.97 0 0 1 1.636.702v34.707c0 13.91-11.318 25.228-25.228 25.228"/>
    <path fill="#B5D0E7" d="M41.189 9.818a.967.967 0 0 1-.669-1.67L48.82.236a.97.97 0 0 1 1.338 1.403l-8.3 7.912a.969.969 0 0 1-.668.267"/>
    <g transform="translate(48.438 -.158)">
      <mask id="icon-deploy-b" fill="#fff">
        <use xlink:href="#icon-deploy-a"/>
      </mask>
      <path fill="#B5D0E7" d="M9.349 9.976c-.24 0-.48-.089-.669-.267L.381 1.797A.97.97 0 0 1 1.72.394l8.298 7.912a.97.97 0 0 1-.668 1.67" mask="url(#icon-deploy-b)"/>
    </g>
  </g>
</svg>
