<svg xmlns="http://www.w3.org/2000/svg" width="61" height="55"><g fill="none" fill-rule="evenodd"><g fill="#B5D0E5"><path d="M29.032 31.378c.748 0 1.493.176 2.165.521a4.732 4.732 0 0 1 3.491-2.536 4.732 4.732 0 0 1 1.334-4.103 4.733 4.733 0 0 1-1.33-4.103A4.727 4.727 0 0 1 31.2 18.62a4.733 4.733 0 0 1-4.314 0 4.725 4.725 0 0 1-3.49 2.534 4.727 4.727 0 0 1-1.337 4.103 4.721 4.721 0 0 1 1.333 4.104 4.737 4.737 0 0 1 3.491 2.537 4.677 4.677 0 0 1 2.15-.519m-2.786 3.617a1.137 1.137 0 0 1-1.133-1.091 2.434 2.434 0 0 0-2.422-2.33l-.055.001a2.43 2.43 0 0 0-.604.09 1.134 1.134 0 0 1-1.251-1.723 2.429 2.429 0 0 0-1.18-3.62 1.133 1.133 0 0 1 .003-2.128 2.432 2.432 0 0 0 1.175-3.623 1.135 1.135 0 0 1 1.253-1.72 2.425 2.425 0 0 0 3.081-2.242c.02-.474.333-.886.784-1.033.451-.15.947.005 1.241.38a2.432 2.432 0 0 0 3.372.427 2.35 2.35 0 0 0 .431-.426 1.13 1.13 0 0 1 1.242-.38c.453.146.767.56.786 1.034.05 1.316 1.144 2.413 2.475 2.33.208-.005.411-.035.606-.09a1.135 1.135 0 0 1 1.252 1.721 2.436 2.436 0 0 0 .634 3.343c.164.111.347.207.544.28a1.133 1.133 0 0 1-.003 2.127 2.432 2.432 0 0 0-1.449 3.076c.068.195.16.376.272.543a1.134 1.134 0 0 1-1.25 1.724 2.437 2.437 0 0 0-2.98 1.638c-.06.197-.094.4-.1.604a1.134 1.134 0 1 1-2.025.655 2.43 2.43 0 0 0-3.374-.429c-.16.123-.307.267-.435.43a1.13 1.13 0 0 1-.89.432"/><path d="M29.042 24.124a1.135 1.135 0 1 0 1.134 1.134c0-.625-.509-1.134-1.134-1.134m0 4.535a3.404 3.404 0 0 1-3.401-3.4 3.405 3.405 0 0 1 3.401-3.403 3.405 3.405 0 0 1 3.401 3.402 3.404 3.404 0 0 1-3.401 3.401"/></g><path fill="#B5D0E5" d="M2 41.267h54.084V2H2v39.267zm55.084 2H1a1 1 0 0 1-1-1V1a1 1 0 0 1 1-1h56.084a1 1 0 0 1 1 1v41.267a1 1 0 0 1-1 1z"/><path fill="#ED2E26" d="M60.48 42.267c0 6.896-5.59 12.486-12.485 12.486-6.896 0-12.487-5.59-12.487-12.486 0-6.896 5.59-12.486 12.486-12.486 6.897 0 12.486 5.59 12.486 12.486"/><path fill="#FFF" d="M47.997 34.14c-3.3 0-3.52 3.68-3.533 4.1 0 .468-.125 2.62-.14 2.863-.027 1.888-1.692 3.406-1.882 3.573-.025.033-.024.126-.016.172.073.13.423.221.622.221h9.891c.25-.004.56-.105.615-.179.017-.088.018-.18-.076-.279-.12-.102-1.786-1.62-1.815-3.55-.013-.2-.139-2.353-.139-2.852-.013-.389-.232-4.07-3.527-4.07m4.944 12.93h-9.895c-.812 0-2.263-.369-2.565-1.757-.015-.038-.317-1.127.573-2.072.396-.359 1.258-1.32 1.272-2.21.057-.977.138-2.487.138-2.82.057-2.118 1.286-6.07 5.528-6.07 4.247 0 5.475 3.952 5.532 6.042 0 .361.082 1.87.137 2.804.016.942.898 1.918 1.206 2.188.958 1.011.656 2.1.618 2.221-.279 1.305-1.73 1.674-2.544 1.674m-6.213 3c.297.267.844.325 1.267.325.42 0 .969-.058 1.265-.324h-2.532zm1.267 2.325c-1.297 0-2.267-.38-2.883-1.13-.833-1.012-.617-2.25-.592-2.387.093-.47.505-.807.981-.807h4.986c.477 0 .889.338.981.807.027.137.241 1.375-.592 2.387-.614.75-1.584 1.13-2.881 1.13z"/><path fill="#B5D0E5" d="M57.084 11.123H1a1 1 0 1 1 0-2h56.084a1 1 0 1 1 0 2M4.862 5.325a1.544 1.544 0 1 1 3.088-.001 1.544 1.544 0 0 1-3.088 0m4.81 0a1.543 1.543 0 1 1 3.089 0 1.544 1.544 0 0 1-3.088 0m4.81 0a1.544 1.544 0 1 1 3.087 0 1.544 1.544 0 0 1-3.088 0"/></g></svg>