<svg xmlns="http://www.w3.org/2000/svg" viewBox="0 0 52 57.97"><defs><style>.cls-1{fill:none;stroke:#b5d0e7;stroke-linecap:round;stroke-linejoin:round;stroke-width:2px}.cls-3{fill:#fff}</style></defs><g id="Layer_2" data-name="Layer 2"><g id="Icons"><path id="Stroke-3" class="cls-1" d="M30 7l-6 6"/><path id="Stroke-5" class="cls-1" d="M30 7l-6-6"/><path id="Stroke-1" class="cls-1" d="M40.4 11.53A25 25 0 1126 7h3.21"/><path id="Oval-4" d="M26 16.94A15 15 0 1111 32a15 15 0 0115-15.06z" fill="#ed2e26"/><g id="bell"><path id="Rectangle-5" class="cls-3" d="M26 25.55a4 4 0 014 3.63 8.25 8.25 0 002.87 6c-2.68.14-9-.15-13.78 0q2.61-1.61 3-6.06A3.91 3.91 0 0126 25.55z"/><path id="Rectangle-6" class="cls-3" d="M24.5 36.35h2.95v.54A1.47 1.47 0 0126 38.36a1.47 1.47 0 01-1.47-1.47z"/><path id="Rectangle-6-2" data-name="Rectangle-6" class="cls-3" d="M24.5 28.57h2.95v-3.28A1.47 1.47 0 0026 23.83a1.46 1.46 0 00-1.47 1.46z"/><path id="Rectangle-7" class="cls-3" d="M21.57 32.71h8.86a2.46 2.46 0 012.46 2.45v.06H19.11v-.06a2.46 2.46 0 012.46-2.45z"/></g></g></g></svg>