<svg viewBox="0 0 67 60" xmlns="http://www.w3.org/2000/svg"><g fill="none" fill-rule="evenodd"><path stroke="#ED2E26" stroke-width="2.203" stroke-linecap="round" stroke-linejoin="round" d="M2 44.193h63.615V2H2zM2 9.639h63.615"/><path d="M7.644 5.627a1.03 1.03 0 11-2.059 0 1.03 1.03 0 012.06 0M11.161 5.627a1.03 1.03 0 11-2.06 0 1.03 1.03 0 012.06 0M14.677 5.627a1.03 1.03 0 11-2.059 0 1.03 1.03 0 012.059 0" fill="#ED2E26"/><path d="M28.732 21.136H13.51v-4.49h18.564v1.148a3.342 3.342 0 01-3.342 3.342" fill="#B5D0E5"/><path d="M28.732 21.136H13.51v-4.49h18.564v1.148a3.342 3.342 0 01-3.342 3.342z" stroke="#B5D0E7" stroke-width="1.102" stroke-linecap="round" stroke-linejoin="round"/><path d="M28.732 29.103H13.51v-4.49h18.564v1.148a3.342 3.342 0 01-3.342 3.342" fill="#B5D0E5"/><path d="M28.732 29.103H13.51v-4.49h18.564v1.148a3.342 3.342 0 01-3.342 3.342z" stroke="#B5D0E7" stroke-width="1.102" stroke-linecap="round" stroke-linejoin="round"/><path d="M28.732 37.07H13.51v-4.49h18.564v1.148a3.342 3.342 0 01-3.342 3.342" fill="#B5D0E5"/><path d="M28.732 37.07H13.51v-4.49h18.564v1.148a3.342 3.342 0 01-3.342 3.342z" stroke="#B5D0E7" stroke-width="1.102" stroke-linecap="round" stroke-linejoin="round"/><path d="M42.582 26.684c6.273 0 11.36 5.085 11.36 11.358 0 6.272-5.087 11.359-11.36 11.359s-11.359-5.087-11.359-11.359c0-6.273 5.086-11.358 11.359-11.358" fill="#FFF"/><path d="M42.582 26.684c6.273 0 11.36 5.085 11.36 11.358 0 6.272-5.087 11.359-11.36 11.359s-11.359-5.087-11.359-11.359c0-6.273 5.086-11.358 11.359-11.358z" stroke="#B5D0E7" stroke-width="2.203" stroke-linecap="round" stroke-linejoin="round"/><path fill="#B5D0E5" d="M51.056 46.657l12.122 9.685-1.795 1.988z"/><path stroke="#B5D0E7" stroke-width="2.203" stroke-linecap="round" stroke-linejoin="round" d="M51.056 46.657l12.122 9.685-1.795 1.988-10.327-11.673"/><path stroke="#B5D0E7" stroke-width="1.102" stroke-linecap="round" stroke-linejoin="round" d="M13.79 34.763H6.614V18.955H9.45"/><path fill="#B5D0E5" d="M9.267 21.382l3.238-2.491-3.238-2.492z"/><path stroke="#B5D0E7" stroke-width=".551" stroke-linecap="round" stroke-linejoin="round" d="M9.267 21.382l3.238-2.491-3.238-2.492z"/><path d="M60.953 22.491l-9.27-16.739a1.17 1.17 0 00-2.047 0l-9.27 16.74a1.17 1.17 0 001.024 1.736h18.54a1.17 1.17 0 001.023-1.737" fill="#B5D0E5"/><path fill="#FFF" d="M49.67 21.136h1.994v-2.07H49.67zM51.725 11.164l-.556 6.643h-1.003l-.57-6.643v-.525h2.129z"/></g></svg>