<svg xmlns="http://www.w3.org/2000/svg" viewBox="0 0 64 64"><defs><style>.cls-1,.cls-2{fill:none;stroke:#b5cfe5;stroke-width:2px}.cls-1{stroke-linecap:round;stroke-linejoin:round}</style></defs><g id="Layer_2" data-name="Layer 2"><g id="Icons"><path id="Path-13" class="cls-1" d="M32 11.33V52"/><path id="Path-13-2" data-name="Path-13" class="cls-1" d="M52.32 31.65H11.68"/><path id="Path-13-3" data-name="Path-13" class="cls-1" d="M46 17.44L17.27 46.17"/><path id="Path-13-4" data-name="Path-13" class="cls-1" d="M17.27 17.44L46 46.17"/><g id="Group"><path id="Oval-5" class="cls-2" d="M32 1a5.17 5.17 0 11-5.17 5.17A5.17 5.17 0 0132 1z"/><path id="Oval-5-2" data-name="Oval-5" class="cls-2" d="M32 52.67a5.17 5.17 0 11-5.17 5.16A5.17 5.17 0 0132 52.67z"/><path id="Oval-5-3" data-name="Oval-5" class="cls-2" d="M57.83 26.83A5.17 5.17 0 1152.67 32a5.17 5.17 0 015.16-5.17z"/><path id="Oval-5-4" data-name="Oval-5" class="cls-2" d="M6.17 26.83A5.17 5.17 0 111 32a5.17 5.17 0 015.17-5.17z"/></g><g id="Group-2" data-name="Group"><path id="Oval-5-5" data-name="Oval-5" class="cls-2" d="M53.92 10.08a5.17 5.17 0 11-7.31 0 5.17 5.17 0 017.31 0z"/><path id="Oval-5-6" data-name="Oval-5" class="cls-2" d="M17.39 46.61a5.17 5.17 0 11-7.31 0 5.18 5.18 0 017.31 0z"/><path id="Oval-5-7" data-name="Oval-5" class="cls-2" d="M53.92 46.61a5.17 5.17 0 11-7.31 0 5.17 5.17 0 017.31 0z"/><path id="Oval-5-8" data-name="Oval-5" class="cls-2" d="M17.39 10.08a5.17 5.17 0 11-7.31 0 5.18 5.18 0 017.31 0z"/></g><path id="Fill-19" d="M32 18.9c7.16 0 10.76 3.84 10.76 3.84a49.41 49.41 0 01.15 8.55C42.52 39.91 32 45.1 32 45.1s-10.52-5.19-10.91-13.81a49.41 49.41 0 01.15-8.55S24.84 18.9 32 18.9" fill="#ee3c39"/><path id="Fill-21" d="M26.62 30.25A5.48 5.48 0 0132 24.71a5.39 5.39 0 015.38 5.38c0 2.37-2 4.32-3.6 5.32a9.14 9.14 0 003.23.83 7.76 7.76 0 003-6.15 8 8 0 00-16.08 0A8.91 8.91 0 0027.18 37a16.63 16.63 0 008.14 3.38 9.22 9.22 0 002.39-2.23 22.07 22.07 0 01-7.08-1.94c-2.66-1.39-4-3.39-4-5.93" fill="#fefefe"/></g></g></svg>