<svg xmlns="http://www.w3.org/2000/svg" viewBox="0 0 61.5 61.43"><defs><style>.cls-5{fill:#fff}</style></defs><g id="Layer_2" data-name="Layer 2"><g id="Icons"><path id="Oval" d="M21.7 1A20.71 20.71 0 111 21.7 20.71 20.71 0 0121.7 1z" stroke-width="2" fill="none" stroke="#b5cfe5"/><path id="Path-12" d="M44 44l15 15" stroke-width="5" stroke-linecap="round" stroke-linejoin="round" fill="none" stroke="#b5cfe5"/><path id="Path-12-2" data-name="Path-12" d="M36.78 36.71L59 58.93" stroke-linecap="round" stroke-linejoin="round" stroke-width="2" fill="none" stroke="#b5cfe5"/><path id="Fill-3" d="M36.35 21.35a15 15 0 11-15-15 15 15 0 0115 15" fill="#ed2e26"/><path class="cls-5" d="M14.18 16.75a4.59 4.59 0 00-4.59 4.59A4.63 4.63 0 0014.2 26h14.31a4.61 4.61 0 004.59-4.6 4.63 4.63 0 00-4.61-4.6zm0 7.8a3.15 3.15 0 01-2.26-.93 3.2 3.2 0 010-4.53 3.15 3.15 0 012.26-.93H16v6.39zm3.26 0v-6.39h7.82v6.39zm14.24-3.2a3.18 3.18 0 01-3.19 3.2h-1.81v-6.39h1.83a3.18 3.18 0 013.19 3.19zM16.74 14.18a.7.7 0 001.4 0 3.2 3.2 0 116.39 0 .68.68 0 00.7.7.71.71 0 00.5-.2.69.69 0 00.2-.5 4.6 4.6 0 10-9.19 0zM17.46 27.81a.68.68 0 00-.7.7 4.63 4.63 0 004.61 4.61A4.61 4.61 0 0026 28.53a.7.7 0 00-1.4 0 3.19 3.19 0 01-3.19 3.19 3.18 3.18 0 01-3.19-3.19.72.72 0 00-.76-.72z"/><ellipse class="cls-5" cx="13.52" cy="21.36" rx=".73" ry=".71"/><ellipse class="cls-5" cx="29.43" cy="21.35" rx=".73" ry=".71"/><ellipse class="cls-5" cx="23.07" cy="23.12" rx=".73" ry=".71"/><ellipse class="cls-5" cx="19.64" cy="23.12" rx=".73" ry=".71"/><ellipse class="cls-5" cx="23.06" cy="19.58" rx=".73" ry=".71"/><ellipse class="cls-5" cx="19.63" cy="19.58" rx=".73" ry=".71"/></g></g></svg>