<svg width="63" height="56" viewBox="0 0 63 56" xmlns="http://www.w3.org/2000/svg"><g stroke-width="2" fill="none" fill-rule="evenodd" stroke-linecap="round" stroke-linejoin="round"><path stroke="#B5D0E7" d="M17 15h29V1H17zM44 35h18V25H44zM1 55h18V45H1zM22 55h18V45H22zM18 30.5h5M40 30.5h5M18 49.5h5M40 49.5h5M22 35h18V25H22zM28 15v4.141H9V25M28 36v3.918H9V45M34 15v4.141h19V25M34 36v3.918h19V45"/><path stroke="#ED2E26" fill="#ED2E26" fill-rule="nonzero" d="M1 35h18V25H1zM44 55h18V45H44z"/></g></svg>