<svg xmlns="http://www.w3.org/2000/svg" xmlns:xlink="http://www.w3.org/1999/xlink" width="71" height="57" viewBox="0 0 71 57">
  <defs>
    <polygon id="investigate-a" points="52.855 .383 .962 .383 .962 50.956 52.855 50.956"/>
  </defs>
  <g fill="none" fill-rule="evenodd">
    <path fill="#FEFEFE" d="M10.3857904,10.2268902 L61.4101526,10.0000403 C63.2889831,9.99101146 64.8174462,11.4999583 64.8265172,13.3700591 L65,51.7415491 L7.17238945,52 L7.0000405,13.62851 C6.9909695,11.7572805 8.50695999,10.2347904 10.3857904,10.2268902"/>
    <path fill="#B5D0E7" d="M10.5745882,10.3782068 L10.5860647,10.3782068 L10.5745882,10.3782068 Z M10.5791788,11.5257561 C9.96633322,11.5280512 9.39136013,11.7690366 8.95984339,12.2051053 C8.52832666,12.6411741 8.29191057,13.2183914 8.29535353,13.8311827 L8.46405821,51.6991636 L64.6989518,51.4478503 L64.5290995,13.5798694 C64.5256566,12.9659305 64.2846499,12.3910083 63.8496902,11.9595298 C63.4158781,11.5303463 62.8432004,11.2950987 62.2349454,11.2950987 L62.2234689,11.2950987 L10.5791788,11.5257561 Z M7.32214557,54 C7.01916574,54 6.72881006,53.8795073 6.51305169,53.6672107 C6.29729333,53.452619 6.17564233,53.1611414 6.17449468,52.8581884 L6.00005175,13.8426582 C5.99431349,12.6147804 6.46599801,11.4603458 7.32903148,10.5905034 C8.19206495,9.71836589 9.34315879,9.23639516 10.5699976,9.23065742 L62.21314,9 L62.2349454,9 C63.4537506,9 64.6002539,9.47164278 65.4655826,10.3288621 C66.335502,11.1918192 66.818663,12.3428112 66.8244013,13.5683939 L66.9999919,52.5839241 C67.0011395,52.8891722 66.8806362,53.1817973 66.6671731,53.3975366 C66.4525624,53.6144234 66.1610591,53.7360637 65.8569316,53.7372112 L7.32673618,54 L7.32214557,54 Z"/>
    <path fill="#B5D0E7" d="M7.15095083,45 C6.51793213,45 6.00230962,44.4024226 6.00000773,43.6608345 C5.99770584,42.9165545 6.50987552,42.3122476 7.14634706,42.30821 L65.8432945,42 L65.8490492,42 C66.4809169,42 66.9965395,42.5989233 66.9999923,43.3405114 C67.0022942,44.0834455 66.4889735,44.6890983 65.853653,44.69179 L7.15555461,45 L7.15095083,45 Z"/>
    <path fill="#FEFEFE" d="M41.2445966,47.1236536 L41.2595446,50.4358041 L29.7610884,50.4854863 L29.7461404,47.1733359 L1,47.2958854 L1.01034861,49.4366387 C1.02414676,52.5235629 3.64119538,55.013196 6.85616372,54.9999474 L64.2058637,54.7526401 C67.420832,54.7382875 70.0148837,52.2265734 69.9999357,49.1396492 L69.9895871,47 L41.2445966,47.1236536 Z"/>
    <path fill="#B5D0E7" d="M2.29464926,48.6934891 L2.29922938,49.8094311 C2.30495453,51.1014493 2.79388255,52.3125676 3.67670104,53.2215012 C4.55837451,54.1292451 5.72745063,54.6503353 6.97095373,54.6205927 L64.0793488,54.3552888 C66.6453621,54.3433917 68.7213024,52.166234 68.709852,49.5024876 L68.706417,48.3853558 L42.370716,48.5078953 L42.3798762,50.8884923 C42.3821663,51.544019 41.8726277,52.0793857 41.2405709,52.0829548 L29.7902661,52.1364915 L29.785686,52.1364915 C29.1559192,52.1364915 28.6429456,51.6070733 28.6406555,50.9515466 L28.6303502,48.5721393 L2.29464926,48.6934891 Z M6.94919815,57 C5.10684411,57 3.37326797,56.2588146 2.06449813,54.9120701 C0.747713083,53.5558079 0.0171836388,51.7474584 0.00916842546,49.8201384 L8.18163507e-06,47.5156825 C-0.00113684884,47.1992213 0.117946321,46.8958469 0.33092199,46.6721826 C0.545042689,46.4473286 0.83588043,46.32122 1.13931351,46.3200303 L29.7650754,46.1879732 L29.7696556,46.1879732 C30.3994223,46.1879732 30.912396,46.7162016 30.914686,47.3717283 L30.9249913,49.7511356 L40.0852351,49.709496 L40.0760749,47.328899 C40.0737848,46.6721826 40.5833234,46.1380056 41.2153802,46.1344365 L69.8399971,46 L69.8457223,46 C70.474344,46 70.9873177,46.5294181 70.9907528,47.1837551 L70.999913,49.4905905 C71.0090732,51.4179104 70.2945742,53.2310188 68.9903845,54.6003677 C67.6850498,55.9673372 65.9446034,56.7251785 64.0907991,56.7346961 L6.981259,57 L6.94919815,57 Z"/>
    <path fill="#FFF" d="M35.0011268,1 C44.3907337,1 52,8.61151985 52,17.9988732 C52,27.3884801 44.3907337,35 35.0011268,35 C25.6115199,35 18,27.3884801 18,17.9988732 C18,8.61151985 25.6115199,1 35.0011268,1"/>
    <g transform="translate(16)">
      <mask id="investigate-b" fill="#fff">
        <use xlink:href="#investigate-a"/>
      </mask>
      <path fill="#ED2E26" d="M19.7399652,35.05808 C10.6562261,35.05808 3.26618261,27.78888 3.26618261,18.85368 C3.26618261,9.91848 10.6562261,2.64928 19.7399652,2.64928 C28.8248565,2.64928 36.2149,9.91848 36.2149,18.85368 C36.2149,27.78888 28.8248565,35.05808 19.7399652,35.05808 L19.7399652,35.05808 Z M33.6858783,31.17868 C36.6792261,27.9056133 38.5192478,23.5921467 38.5192478,18.85368 C38.5192478,8.66954667 30.0945522,0.382613333 19.7399652,0.382613333 C9.38537826,0.382613333 0.961834783,8.66954667 0.961834783,18.85368 C0.961834783,29.0378133 9.38537826,37.3247467 19.7399652,37.3247467 C24.4477478,37.3247467 28.7453565,35.5998133 32.0451826,32.77328 L48.0523348,50.5734133 C48.2700957,50.8159467 48.5811826,50.9542133 48.9095522,50.95648 L48.915313,50.95648 C49.2413783,50.95648 49.5524652,50.82048 49.7702261,50.58248 L52.5573348,47.5474133 C52.770487,47.31508 52.8776391,47.0068133 52.8511391,46.69628 C52.8257913,46.3846133 52.6702478,46.0967467 52.4213783,45.9018133 L33.6858783,31.17868 Z" mask="url(#investigate-b)"/>
    </g>
    <path fill="#ED2E26" d="M49,18.5 C49,11.5974478 43.1800741,6 36.00058,6 C28.821086,6 23,11.5974478 23,18.5 C23,25.4025522 28.821086,31 36.00058,31 C43.1800741,31 49,25.4025522 49,18.5"/>
    <path fill="#FFF" d="M27.608288 15L40.39054 15C40.726915 15 41 14.5509039 41 13.9990485 41 13.4471931 40.726915 13 40.39054 13L27.608288 13C27.2707409 13 27 13.4471931 27 13.9990485 27 14.5509039 27.2707409 15 27.608288 15M43.2605728 17L27.7382896 17C27.3287607 17 27 17.4488825 27 18.0004755 27 18.5520685 27.3287607 19 27.7382896 19L43.2605728 19C43.6689641 19 44 18.5520685 44 18.0004755 44 17.4488825 43.6689641 17 43.2605728 17M35.6072555 22L27.3915615 22C27.1750789 22 27 22.4479315 27 22.9995245 27 23.5520685 27.1750789 24 27.3915615 24L35.6072555 24C35.8249211 24 36 23.5520685 36 22.9995245 36 22.4479315 35.8249211 22 35.6072555 22"/>
  </g>
</svg>
