<svg xmlns="http://www.w3.org/2000/svg" width="96" height="65" viewBox="0 0 96 65">
  <g fill="none" fill-rule="evenodd" transform="translate(1 1)">
    <path fill="#FEFEFE" d="M12.6470588,0 L82.3529412,0 C84.9196667,0 87,2.10524324 87,4.7027027 L87,58 L8,58 L8,4.7027027 C8,2.10524324 10.0803333,0 12.6470588,0"/>
    <path stroke="#B5D0E7" stroke-linecap="round" stroke-linejoin="round" stroke-width="2" d="M12.6470588,0 L82.3529412,0 C84.9196667,0 87,2.10524324 87,4.7027027 L87,58 L8,58 L8,4.7027027 C8,2.10524324 10.0803333,0 12.6470588,0 Z"/>
    <path fill="#ED2E26" d="M31.0000195,23.475416 C31.0142929,13.8107376 38.8599047,5.98732794 48.524582,6.00001541 C58.1892592,6.01428881 66.0142539,13.8599015 65.9999805,23.5261659 C65.9857071,33.1908442 58.1400953,41.0142539 48.475418,40.9999805 C38.8091548,40.987293 30.9857461,33.1400944 31.0000195,23.475416"/>
    <path fill="#FEFEFE" d="M49,16.3698554 C55.7686913,16.3698554 58.6691151,24.00079 58.6691151,24.00079 C58.6691151,24.00079 56.5470053,31.6301446 49,31.6301446 C41.4529947,31.6301446 39.3308849,24.00079 39.3308849,24.00079 C39.3308849,24.00079 42.2313087,16.3698554 49,16.3698554 M49,14 C40.7290539,14 37.2988794,22.7716249 37.1575089,23.1460621 C36.9741935,23.6247729 36.9508906,24.1508808 37.0876005,24.6453906 C37.9886427,27.8810333 41.6363102,34 49,34 C56.3636898,34 60.0113573,27.8810333 60.9123995,24.6453906 C61.0491094,24.1508808 61.0258065,23.6247729 60.8424911,23.1460621 C60.7011206,22.7716249 57.2709461,14 49,14"/>
    <path stroke="#FEFEFE" stroke-linecap="round" stroke-linejoin="round" stroke-width="1.5" d="M45.0837324,24.3806037 C44.4822363,21.2098362 47.2114623,18.4822765 50.3805635,19.0837725 C52.1417307,19.4170114 53.5829886,20.8582693 53.9162275,22.6194365 C54.5177235,25.7885377 51.7901638,28.5177637 48.6193963,27.9162676 C46.8582291,27.5830288 45.4169712,26.1417709 45.0837324,24.3806037 Z"/>
    <path stroke="#B5D0E7" stroke-linecap="round" stroke-linejoin="round" stroke-width="2" d="M8,46 L87,46"/>
    <path fill="#FEFEFE" d="M54.8333333,52 L54.8333333,56.7142857 L39.1666667,56.7142857 L39.1666667,52 L0,52 L0,55.0454286 C0,59.4391429 3.55006667,63 7.93046667,63 L86.0695333,63 C90.4499333,63 94,59.4391429 94,55.0454286 L94,52 L54.8333333,52 Z"/>
    <path stroke="#B5D0E7" stroke-linecap="round" stroke-linejoin="round" stroke-width="2" d="M54.8333333,52 L54.8333333,56.7142857 L39.1666667,56.7142857 L39.1666667,52 L0,52 L0,55.0454286 C0,59.4391429 3.55006667,63 7.93046667,63 L86.0695333,63 C90.4499333,63 94,59.4391429 94,55.0454286 L94,52 L54.8333333,52 Z"/>
  </g>
</svg>
