<svg viewBox="0 0 65 54" xmlns="http://www.w3.org/2000/svg" xmlns:xlink="http://www.w3.org/1999/xlink"><defs><path id="a" d="M0 .619h64.78v52.4H0z"/></defs><g fill="none" fill-rule="evenodd"><path d="M5.52 10.196h53.738c.979 0 1.884.285 2.684.746-.35-1.67-1.43-2.933-2.684-2.933H26.484c-2.238 0-3.306-1.572-4.085-2.72C21.523 4 21 3.328 19.581 3.328H5.52c-1.525 0-2.813 1.86-2.813 4.062v3.625c.827-.507 1.782-.818 2.813-.818z" stroke="#B2CBD9" stroke-width=".144"/><g><mask id="b" fill="#fff"><use xlink:href="#a"/></mask><path d="M5.52 3.327H19.58c1.42 0 1.942.674 2.818 1.963.779 1.148 1.846 2.72 4.085 2.72H59.26c1.253 0 2.333 1.262 2.684 2.932-.797-.46-1.704-.746-2.684-.746H5.52c-1.03 0-1.985.311-2.812.818V7.39c.001-2.202 1.288-4.062 2.813-4.062zM62.07 47.41c0 1.636-1.26 2.966-2.812 2.966H5.52c-1.552 0-2.813-1.331-2.813-2.966V15.87c0-1.635 1.261-2.965 2.813-2.965h53.738c1.552 0 2.813 1.331 2.813 2.966V47.41zM59.26 5.302H26.483c-.739 0-1.073-.398-1.844-1.532-.902-1.33-2.138-3.151-5.058-3.151H5.521C2.477.619 0 3.656 0 7.389v40.02c0 3.129 2.477 5.674 5.52 5.674h53.74c3.044 0 5.52-2.545 5.52-5.674V12.073c-.001-3.734-2.477-6.771-5.52-6.771z" fill="#B5D0E5" mask="url(#b)"/></g><path d="M27.026 28.315h9.332a4.001 4.001 0 014.003 3.998v6.277a4.007 4.007 0 01-4.003 4.004h-9.332a4.008 4.008 0 01-4.004-4.004v-6.277a4.002 4.002 0 014.004-3.998z" stroke="#D9312D" stroke-width="2.234"/><path d="M28.645 21.258c-.738 0-1.333.596-1.333 1.333v4.55c0 .735.595 1.332 1.333 1.332h6.092c.738 0 1.334-.597 1.334-1.332v-4.55c0-.737-.596-1.333-1.334-1.333h-6.092z" stroke="#ED2E26" stroke-width="2.234"/><path d="M32.404 36.74v2.95h-1.425v-2.95a2.114 2.114 0 01-1.432-1.992c0-1.169.956-2.118 2.147-2.118 1.182 0 2.142.949 2.142 2.118 0 .923-.6 1.7-1.432 1.992zm5.286-9.756H25.692a3.998 3.998 0 00-4.003 3.996v8.943a4.003 4.003 0 004.003 4.003H37.69a4.002 4.002 0 004.002-4.003V30.98a3.997 3.997 0 00-4.002-3.996z" fill="#ED2E26"/></g></svg>