<svg version="1.1" id="Layer_1" xmlns="http://www.w3.org/2000/svg" x="0" y="0" viewBox="0 0 64 64" xml:space="preserve"><style>.st0{fill:none;stroke:#b5d0e7;stroke-width:2;stroke-linecap:round;stroke-linejoin:round}.st4{fill:#fff}</style><switch><g><path class="st0" d="M4.2 20.3V3h17.3m.1 48H4.2V33.7M34.9 3h17.3v17.3m0 13.4V51H34.9"/><path d="M28.2 18C21 18 15 23.9 11.8 28 15 32.1 21 38 28.2 38s13.2-5.9 16.5-10c-3.3-4.1-9.2-10-16.5-10z" fill="none" stroke="#b5d0e7" stroke-width="2"/><path d="M30.3 28c0 1.1-.9 2-2 2s-2-.9-2-2v-.1c0-1.1.9-2 2-2s2 1 2 2.1" fill-rule="evenodd" clip-rule="evenodd" fill="#b5d0e7"/><path class="st0" d="M34.3 28c0 3.3-2.7 6-6 6s-6-2.7-6-6 2.7-6 6-6 6 2.7 6 6z"/><g><path d="M61.6 57.3L48 32.9c-.6-1.2-2.3-1.2-3 0L31.5 57.3c-.6 1.1.2 2.5 1.5 2.5h27c1.4 0 2.2-1.4 1.6-2.5z" fill="#ed2e26"/><path class="st4" d="M45 52.4h3v3.2h-3zM48.2 40.4l-.9 10.1h-1.5l-.9-10.1v-.8h3.3z"/></g></g></switch></svg>