<svg xmlns="http://www.w3.org/2000/svg" width="64" height="64" viewBox="0 0 64 64">
  <g fill="none" fill-rule="evenodd" transform="translate(1 1)">
    <path stroke="#B5D0E7" stroke-linecap="round" stroke-linejoin="round" stroke-width="2" d="M49.9204,46.1572 L48.5474,53.5822 C44.1604,57.0402 38.7824,59.2972 32.9094,59.8602 C32.4674,58.9222 31.8674,58.0752 31.1394,57.3552 C30.1344,56.3652 28.8894,55.6222 27.4944,55.2172 C26.4294,54.9102 25.4924,54.3322 24.7494,53.5602 C24.0144,52.7872 23.4674,51.8272 23.1974,50.7552 C22.3494,47.3422 23.7744,43.7722 26.7444,41.8892 L27.0144,41.7242 C28.1624,40.9892 28.2144,39.3242 27.1124,38.5292 L20.8794,34.0292 C17.4144,31.5322 14.3614,28.5012 11.8344,25.0592 L10.3714,23.0642 C8.5714,20.6112 7.6044,17.6492 7.6044,14.6112 L7.6044,10.0512 C13.0944,3.8862 21.0974,0.0012 29.9994,0.0012 C35.3774,0.0012 40.4254,1.4182 44.7974,3.9012 C43.3954,5.9182 41.5124,7.5762 39.3074,8.7162 C38.3254,9.2262 37.5304,9.8562 37.2674,10.8082 C37.0874,11.4682 37.0054,12.1432 37.0054,12.8112 C37.0054,14.4312 37.5154,16.0292 38.4974,17.3642 C38.8204,17.7992 39.0824,18.2712 39.2854,18.7662 L40.1024,20.7542 C40.1854,20.9492 40.2154,21.1442 40.2154,21.3392 C40.2154,21.9612 39.8404,22.5542 39.2174,22.7942 C38.6174,23.0262 37.9274,22.8612 37.5004,22.3812 L35.8424,20.5212 C35.2574,19.8762 34.5824,19.3212 33.8324,18.8862 L31.7544,17.6642 C30.2394,16.7712 28.4774,16.3812 26.7294,16.5542 L24.5544,16.7562 C23.5644,16.8542 22.6194,17.1912 21.8094,17.7162 C20.9924,18.2412 20.3094,18.9612 19.8144,19.8242 C18.8774,21.4592 18.7424,23.4312 19.4544,25.1792 L19.8444,26.1312 C20.1444,26.8742 21.0594,27.1362 21.7124,26.6792 L23.2644,25.5992 C23.8724,25.1712 24.6674,25.1262 25.3194,25.4862 L27.2094,26.5292 C27.7574,26.8292 28.1244,27.3692 28.2074,27.9842 L28.6124,31.1572 C28.8824,33.2492 29.8794,35.1842 31.4244,36.6242 L32.1224,37.2692 C33.0444,38.1242 34.3724,38.3722 35.5354,37.9072 L36.4054,37.5542 C38.2654,36.8122 40.3724,36.9992 42.0754,38.0572 L47.9474,41.7022 C49.4624,42.6392 50.2424,44.4092 49.9204,46.1572 Z"/>
    <path stroke="#B5D0E7" stroke-linecap="round" stroke-linejoin="round" stroke-width="2" d="M0,30.001 C0,13.432 13.431,-7.10542736e-15 30,-7.10542736e-15 C46.569,-7.10542736e-15 60,13.432 60,30.001 C60,46.57 46.569,60.002 30,60.002 C13.431,60.002 0,46.57 0,30.001 Z"/>
    <path fill="#ED2E26" d="M39.874,43.9204 L39.874,50.1054 C36.812,53.5324 27.345,53.1964 26.521,57.8534 C26.425,58.4184 26.687,61.5544 26.687,61.5544 L61.313,61.5544 C61.313,61.5544 61.576,58.4184 61.478,57.8534 C60.661,53.2304 51.313,53.5274 48.191,50.1794 L48.191,43.9204 L39.874,43.9204 Z"/>
    <path stroke="#F7FAFC" stroke-linecap="round" stroke-linejoin="round" stroke-width="2" d="M39.874,43.9204 L39.874,50.1054 C36.812,53.5324 27.345,53.1964 26.521,57.8534 C26.425,58.4184 26.687,61.5544 26.687,61.5544 L61.313,61.5544 C61.313,61.5544 61.576,58.4184 61.478,57.8534 C60.661,53.2304 51.313,53.5274 48.191,50.1794 L48.191,43.9204 L39.874,43.9204 Z"/>
    <path fill="#ED2E26" d="M50.9136,40.4731 C50.9136,40.4731 51.0316,39.1231 51.0866,38.4821 C51.4976,33.7601 48.3466,29.5151 44.0036,29.5011 C39.6636,29.4871 36.4826,33.7091 36.8626,38.4351 C36.9146,39.0771 37.0226,40.4271 37.0226,40.4271 C37.4166,45.3381 40.5886,48.8581 43.9406,48.8691 C47.2926,48.8801 50.4876,45.3821 50.9136,40.4731"/>
    <path stroke="#F7FAFC" stroke-width="2" d="M50.9136,40.4731 C50.9136,40.4731 51.0316,39.1231 51.0866,38.4821 C51.4976,33.7601 48.3466,29.5151 44.0036,29.5011 C39.6636,29.4871 36.4826,33.7091 36.8626,38.4351 C36.9146,39.0771 37.0226,40.4271 37.0226,40.4271 C37.4166,45.3381 40.5886,48.8581 43.9406,48.8691 C47.2926,48.8801 50.4876,45.3821 50.9136,40.4731 Z"/>
  </g>
</svg>
