<svg xmlns="http://www.w3.org/2000/svg" viewBox="0 0 54.45 62"><defs><style>.cls-3{fill:#ed2e26}.cls-4{fill:none;stroke:#fff;stroke-linecap:round;stroke-linejoin:round;stroke-width:1.3px}</style></defs><g id="Layer_2" data-name="Layer 2"><g id="Icons"><path d="M50.18 33l-2.77-4.16c-2.82-4.22-5.94-8.9-6-9a1 1 0 00-.81-.44H14.07a.85.85 0 00-.7.44L4.59 33a1.14 1.14 0 00-.18.66V61a1 1 0 001 1h44a1 1 0 001-1V33.59a1.06 1.06 0 00-.23-.59zm-9-10.07l6.42 9.65h-6.44zm-25.75-1.64h23.8v11.28h-23.8zm-1.93 1.79v9.49H7.18zm34.91 37H6.34V34.5h42.07z" fill="#b5cfe5"/><path d="M50.39 10.79a1.07 1.07 0 00-1.53 0L28.47 31.18V11a1.09 1.09 0 10-2.17 0v20.18L5.91 10.79a1.09 1.09 0 00-1.54 1.53l20.25 20.25h5.52l20.25-20.25a1.09 1.09 0 000-1.53z" fill="#eb3027"/><path id="Fill-39" class="cls-3" d="M1.08 3.43H12a1.07 1.07 0 011 1.08V15.4a1.06 1.06 0 01-1 1.07H1.1A1.07 1.07 0 010 15.38V4.49a1 1 0 011.08-1.06"/><path id="Path-17" class="cls-4" d="M2.54 7h7.08"/><path id="Path-17-2" data-name="Path-17" class="cls-4" d="M2.54 10h5.38"/><path id="Path-17-3" data-name="Path-17" class="cls-4" d="M2.54 13h5.38"/><path id="Fill-39-2" data-name="Fill-39" class="cls-3" d="M42.49 3.43h10.89a1.07 1.07 0 011.07 1.07v10.89a1.07 1.07 0 01-1.07 1.07H42.49a1.06 1.06 0 01-1.06-1.07V4.49a1.06 1.06 0 011.07-1.06"/><path id="Path-17-4" data-name="Path-17" class="cls-4" d="M44 7h4"/><path id="Path-17-5" data-name="Path-17" class="cls-4" d="M44 10h8.18"/><path id="Path-17-6" data-name="Path-17" class="cls-4" d="M44 13h6.44"/><path id="Fill-39-3" data-name="Fill-39" class="cls-3" d="M21.78 0h10.9a1.05 1.05 0 011.06 1.06V12a1.07 1.07 0 01-1.08 1H21.77a1.06 1.06 0 01-1.07-1V1.1A1.07 1.07 0 0121.78 0"/><path id="Path-17-7" data-name="Path-17" class="cls-4" d="M23.24 3.52h6.64"/><path id="Path-17-8" data-name="Path-17" class="cls-4" d="M23.24 6.52h2.39"/><path id="Path-17-9" data-name="Path-17" class="cls-4" d="M23.24 9.52h7.5"/></g></g></svg>