<svg version="1.1" id="Layer_1" xmlns="http://www.w3.org/2000/svg" x="0" y="0" viewBox="0 0 64 64" xml:space="preserve"><style>.st1{fill:#b5d0e7}</style><path d="M33.8 31.4c-.5-3.1-6.8-2.9-8.9-5.1V24c1-1 1.7-2.5 1.8-4.3 0 0 .1-.9.1-1.3.3-3.1-1.8-6-4.7-6-2.9 0-5 2.8-4.8 6 0 .4.1 1.3.1 1.3.1 1.8.9 3.4 1.9 4.4v2.1c-2 2.3-8.3 2.1-8.9 5.2-.1.4.1 2.5.1 2.5h23.1c.1-.1.2-2.2.2-2.5z" fill="#ed2e26"/><path class="st1" d="M57.1 28.7c-.3-2-4.3-1.8-5.7-3.3V24c.6-.6 1.1-1.6 1.2-2.7 0 0 .1-.6.1-.8.2-2-1.2-3.8-3-3.8-1.9 0-3.2 1.8-3 3.8 0 .3.1.8.1.8.1 1.2.6 2.2 1.2 2.8v1.3c-1.3 1.5-5.3 1.3-5.7 3.3 0 .2.1 1.6.1 1.6H57s.1-1.3.1-1.6zM29 53.5c-.3-2-4.3-1.8-5.7-3.3v-1.4c.6-.6 1.1-1.6 1.2-2.7 0 0 .1-.6.1-.8.2-2-1.2-3.8-3-3.8-1.9 0-3.2 1.8-3 3.8 0 .3.1.8.1.8.1 1.2.6 2.2 1.2 2.8v1.3c-1.3 1.5-5.3 1.3-5.7 3.3 0 .2.1 1.6.1 1.6h14.8c-.2 0-.1-1.4-.1-1.6zM57.1 54.2c-.3-2-4.3-1.8-5.7-3.3v-1.4c.6-.6 1.1-1.6 1.2-2.7 0 0 .1-.6.1-.8.2-2-1.2-3.8-3-3.8-1.9 0-3.2 1.8-3 3.8 0 .3.1.8.1.8.1 1.2.6 2.2 1.2 2.8v1.3c-1.3 1.5-5.3 1.3-5.7 3.3 0 .2.1 1.6.1 1.6H57c0-.1.1-1.4.1-1.6z"/><path d="M33.7 38.7H10.5c-2 0-3.6-1.6-3.6-3.6V11.9c0-2 1.6-3.6 3.6-3.6h23.2c2 0 3.6 1.6 3.6 3.6v23.2c0 2-1.6 3.6-3.6 3.6z" fill="none" stroke="#b5d0e7" stroke-width="2" stroke-miterlimit="10" stroke-dasharray="3.0385,3.0385"/></svg>