<svg xmlns="http://www.w3.org/2000/svg" viewBox="0 0 68.42 65.72"><defs><style>.cls-5,.cls-6{fill:none;stroke-linecap:round;stroke:#b4cfe4;stroke-linejoin:round;stroke-width:2px}.cls-6{fill:#b4cfe4}</style></defs><g id="Layer_2" data-name="Layer 2"><g id="Icons"><g id="::-02"><g id="::-icon"><g id="Group-23"><path id="Fill-15" d="M32.81 18.27l-15 26.06a1.69 1.69 0 001.46 2.54h30.05a1.69 1.69 0 001.47-2.54l-15-26.06a1.71 1.71 0 00-2.94 0" fill="#ed2e26"/><g id="Group-20"><path id="Fill-17" d="M34.28 27.06V34" fill="#ee3d4a"/><path id="Stroke-19" d="M34.28 27.06V34" stroke-linecap="round" stroke="#fff" stroke-width="3.24" fill="none"/></g><path id="Fill-21" d="M35.9 39.85a1.62 1.62 0 11-1.62-1.62 1.62 1.62 0 011.62 1.62" fill="#fff"/></g></g></g><circle class="cls-5" cx="34.28" cy="32.75" r="28.55"/><path class="cls-5" d="M34.28 1v13.08"/><path class="cls-6" d="M30.83 11.35l3.45 6.25 3.45-6.25h-6.9z"/><path class="cls-5" d="M67.42 32.83H54.34"/><path class="cls-6" d="M57.07 29.38l-6.25 3.45 6.25 3.46v-6.91z"/><path class="cls-5" d="M1 32.83h13.08"/><path class="cls-6" d="M11.35 36.29l6.25-3.46-6.25-3.45v6.91z"/><path class="cls-5" d="M34.28 64.72V51.64"/><path class="cls-6" d="M37.73 54.37l-3.45-6.25-3.45 6.25h6.9z"/><path class="cls-5" d="M58.73 8.57l-9.16 9.33"/><path class="cls-6" d="M53.94 18.38l-6.84 2.04 1.91-6.88 4.93 4.84z"/><path class="cls-5" d="M58.73 57.16l-9.16-9.33"/><path class="cls-6" d="M53.94 47.35l-6.84-2.04 1.91 6.88 4.93-4.84z"/><path class="cls-5" d="M10.12 57.16l9.16-9.33"/><path class="cls-6" d="M14.9 47.35l6.85-2.04-1.92 6.88-4.93-4.84z"/><path class="cls-5" d="M10.36 8.57l9.16 9.33"/><path class="cls-6" d="M15.14 18.38l6.85 2.04-1.92-6.88-4.93 4.84z"/></g></g></svg>