<svg version="1.1" id="Layer_1" xmlns="http://www.w3.org/2000/svg" x="0" y="0" viewBox="0 0 64 64" xml:space="preserve"><style>.st0{fill:#fff}.st1{fill:#b5d0e6}.st2{fill:#b5d0e5}</style><switch><g><path id="Stroke-7_1_" class="st0" d="M2.5 9.7l59.1.1-.1 44.5-59.1-.1z"/><path class="st1" d="M61.5 55.3l-59.1-.1c-.3 0-.5-.1-.7-.3-.2-.2-.3-.4-.3-.7l.1-44.5c0-.6.4-1 1-1l59.1.1c.3 0 .5.1.7.3s.3.4.3.7l-.1 44.6c0 .5-.4.9-1 .9zM3.4 53.2l57.1.1.1-42.6H3.5l-.1 42.5z"/><path class="st1" d="M61.6 21.6H2.5c-.6 0-1-.4-1-1s.4-1 1-1h59.1c.6 0 1 .4 1 1s-.5 1-1 1z"/><path id="Fill-11_18_" class="st1" d="M8.3 15.4c0-.9.7-1.6 1.6-1.6.9 0 1.6.7 1.6 1.6 0 .9-.7 1.6-1.6 1.6-.9 0-1.6-.7-1.6-1.6"/><path id="Fill-13_5_" class="st1" d="M15.7 15.4c0-.9.7-1.6 1.6-1.6.9 0 1.6.7 1.6 1.6 0 .9-.7 1.6-1.6 1.6-.8 0-1.6-.7-1.6-1.6"/><path id="Fill-15_12_" class="st1" d="M23.2 15.4c0-.9.7-1.6 1.6-1.6.9 0 1.6.7 1.6 1.6 0 .9-.7 1.6-1.6 1.6-.9 0-1.6-.7-1.6-1.6"/><path class="st2" d="M8 33.5c-.6 0-1-.4-1-1v-7.6c0-.6.4-1 1-1h7c.6 0 1 .4 1 1s-.4 1-1 1H9v6.6c0 .6-.5 1-1 1zM56.4 51.5h-7c-.6 0-1-.4-1-1s.4-1 1-1h6v-6.6c0-.6.4-1 1-1s1 .4 1 1v7.6c0 .5-.5 1-1 1z"/><g><path d="M37.5 33.2l-.1-4.1c0-1.5-1.2-2.7-2.7-2.7h-5.6c-1.5 0-2.7 1.2-2.7 2.7v4.1h-.1c-2.2 0-4 1.8-4 4v8.2c0 2.2 1.8 4 4 4h11.1c2.2 0 4-1.8 4-4v-8.2c.1-2.2-1.6-4-3.9-4zm-8.3-4.1h5.6v4.1h-5.6v-4.1z" fill="#eb3027"/><path class="st0" d="M34 40.6c0-1.1-.9-2-2-2s-2 .9-2 2c0 .9.6 1.6 1.4 1.9v2.8h1.4v-2.8c.7-.3 1.2-1 1.2-1.9z"/></g></g></switch></svg>