<svg id="Layer_2" data-name="Layer 2" xmlns="http://www.w3.org/2000/svg" viewBox="0 0 126.73 113.39"><defs><style>.cls-2{fill:#ed2e26}.cls-3{fill:#fff}.cls-4{fill:#fefefe}.cls-5{fill:#b5d0e7}</style></defs><g id="Layer_1-2" data-name="Layer 1"><path class="cls-5" d="M110.3 75.31H16.44c-.17 0-.33-.02-.49-.07C6.55 72.45 0 63.67 0 53.89c0-.12 0-.23.01-.35 0-.27-.01-.38-.01-.49 0-9.67 6.26-18.15 15.4-21.11C15.71 14.28 30.18 0 47.92 0c12.92 0 24.65 7.85 29.75 19.72 2.25-.9 4.62-1.35 7.06-1.35 8.42 0 15.74 5.39 18.31 13.29.49-.04.96-.06 1.41-.06 12.28 0 22.28 9.99 22.28 22.28 0 9.78-6.55 18.56-15.94 21.35-.16.05-.33.07-.49.07zm-93.61-3.48h93.35c7.79-2.43 13.22-9.77 13.22-17.94 0-10.37-8.43-18.81-18.8-18.81-.74 0-1.52.06-2.45.19-.87.11-1.71-.45-1.92-1.32a15.737 15.737 0 00-15.35-12.1c-2.52 0-4.95.59-7.21 1.75-.44.23-.96.25-1.43.07-.46-.18-.83-.56-1-1.02C70.93 11.18 60.01 3.47 47.93 3.47c-16.02 0-29.05 13.03-29.05 29.05.04.3.07.47.07.66.02.81-.52 1.53-1.31 1.73-8.33 2.13-14.16 9.58-14.16 18.14.01.18.02.28.02.38v.35c-.02 8.29 5.4 15.63 13.2 18.06z"/><path id="Fill-1" class="cls-2" d="M59.56 57.31c12.24.02 22.15 9.96 22.13 22.2-.02 12.24-9.96 22.15-22.2 22.13-12.24-.02-22.15-9.96-22.13-22.2.02-12.24 9.96-22.15 22.2-22.13"/><path id="Fill-7" class="cls-4" d="M59.53 67.63c-10.15 0-14.39 10.66-14.57 11.12-.17.45-.19.94-.06 1.4 1.11 3.91 5.59 11.31 14.63 11.31s13.52-7.4 14.63-11.31c.13-.46.11-.95-.06-1.4-.18-.45-4.41-11.12-14.57-11.12m0 2.21c8.75 0 12.5 9.7 12.5 9.7s-2.74 9.7-12.5 9.7-12.5-9.7-12.5-9.7 3.75-9.7 12.5-9.7"/><path class="cls-4" d="M59.53 86.16c-3.65 0-6.62-2.97-6.62-6.61s2.97-6.61 6.62-6.61 6.61 2.97 6.61 6.61-2.97 6.61-6.61 6.61zm0-10.85c-2.34 0-4.24 1.9-4.24 4.24s1.9 4.24 4.24 4.24 4.24-1.9 4.24-4.24-1.9-4.24-4.24-4.24z"/><path class="cls-5" d="M45.06 97.57c.29.29.46.68.46 1.12 0 .88-.71 1.59-1.59 1.59H33.01c-.88 0-1.59-.71-1.59-1.59s.71-1.59 1.59-1.59h10.92c.44 0 .83.18 1.12.46z"/><path class="cls-5" d="M34.13 97.57c.29.29.46.68.46 1.12v10.92c0 .88-.71 1.59-1.59 1.59s-1.59-.71-1.59-1.59V98.69c0-.88.71-1.59 1.59-1.59.44 0 .83.18 1.12.46z"/><path class="cls-5" d="M83.53 55.48c13.23 13.23 13.23 34.76 0 47.99-13.23 13.23-34.76 13.23-47.99 0l-2.94-2.94c-.62-.62-.62-1.62 0-2.24s1.62-.62 2.24 0l2.94 2.94c11.99 11.99 31.51 11.99 43.5 0s11.99-31.51 0-43.5c-11.99-11.99-31.51-11.99-43.5 0a30.832 30.832 0 00-8.56 27.01c.15.86-.43 1.68-1.29 1.83s-1.68-.43-1.83-1.29c-1.87-10.86 1.66-22 9.45-29.79 13.23-13.23 34.76-13.23 47.99 0z"/><path class="cls-5" d="M101.72 58.79c-.18 0-.36-.06-.5-.18l-3.67-3.04a.804.804 0 01-.11-1.12c.28-.34.78-.38 1.12-.1l3.67 3.04c.34.28.38.78.11 1.12-.16.19-.38.29-.61.29zm-4.06-.06s-.09 0-.13-.01l-4.69-.8a.797.797 0 01.27-1.57l4.69.8a.797.797 0 01-.13 1.58zm-10.95-1.86s-.09 0-.13-.01l-4.69-.8c-.43-.07-.72-.48-.65-.92s.48-.72.91-.65l4.69.8a.797.797 0 01-.13 1.58zm6.45-5.16c-.18 0-.36-.06-.5-.18l-3.67-3.03a.804.804 0 01-.11-1.12c.28-.34.78-.38 1.12-.1l3.67 3.03c.34.28.38.78.11 1.12-.16.19-.38.29-.61.29zm-50.23-2.29s-.09 0-.13-.01l-4.69-.8a.797.797 0 01.26-1.57l4.69.8a.797.797 0 01-.13 1.58zm-10.95-1.86s-.09 0-.13-.01l-4.69-.8a.797.797 0 01-.65-.92c.07-.43.49-.72.92-.65l4.69.8a.797.797 0 01-.13 1.58zm52.63-2.93c-.18 0-.36-.06-.5-.18l-3.67-3.03a.804.804 0 01-.11-1.12c.28-.34.78-.38 1.12-.1l3.67 3.03c.34.28.38.78.11 1.12-.16.19-.38.29-.61.29zm-59.33-.04c-.23 0-.46-.1-.62-.29a.796.796 0 01.12-1.12l3.7-2.99a.796.796 0 111 1.24l-3.7 2.99c-.15.12-.32.18-.5.18zm8.64-6.98c-.23 0-.46-.1-.62-.29a.805.805 0 01.12-1.12l3.7-2.99c.34-.28.84-.22 1.12.12.27.34.22.84-.12 1.12l-3.7 2.99c-.15.12-.32.18-.5.18zm42.14-.07c-.18 0-.36-.06-.5-.18l-3.67-3.04a.804.804 0 01-.11-1.12c.28-.34.78-.38 1.12-.1l3.67 3.04c.34.28.38.78.11 1.12-.16.19-.38.29-.61.29zm-33.51-6.91c-.23 0-.46-.1-.62-.29a.805.805 0 01.12-1.12l3.7-2.99c.34-.28.84-.22 1.12.12.27.34.22.84-.12 1.12l-3.7 2.99c-.15.12-.32.18-.5.18zm24.95-.17c-.18 0-.36-.06-.5-.18l-3.67-3.03a.804.804 0 01-.11-1.12c.28-.34.78-.38 1.12-.1l3.67 3.03c.34.28.38.78.11 1.12-.16.19-.38.29-.61.29zm-16.32-6.81c-.23 0-.46-.1-.62-.29a.805.805 0 01.12-1.12l3.7-2.99c.07-.06.15-.1.23-.13a.793.793 0 011.18-.18l3.67 3.03c.34.28.38.78.11 1.12s-.78.38-1.12.1l-3.17-2.62-3.6 2.9c-.15.12-.32.18-.5.18z"/><g><circle class="cls-3" cx="102.68" cy="58.79" r="5.36"/><path class="cls-5" d="M102.68 65.74c-3.1 0-5.94-2.1-6.73-5.24-.94-3.71 1.32-7.5 5.03-8.43 3.72-.94 7.49 1.32 8.43 5.03.45 1.8.18 3.67-.77 5.26a6.876 6.876 0 01-4.26 3.17c-.57.14-1.14.21-1.7.21zm0-10.72c-.31 0-.61.04-.92.12-.98.25-1.8.86-2.32 1.72-.52.87-.66 1.88-.42 2.86a3.777 3.777 0 006.9 1.01c.52-.86.66-1.88.42-2.85a3.776 3.776 0 00-3.66-2.85z"/></g><g><circle cx="23.41" cy="45.3" r="5.36" fill="#f7fafc"/><path class="cls-2" d="M23.4 52.25c-1.24 0-2.46-.33-3.55-.98a6.876 6.876 0 01-3.17-4.26 6.92 6.92 0 01.77-5.26 6.876 6.876 0 014.26-3.17c3.71-.93 7.49 1.32 8.43 5.03.45 1.8.18 3.67-.77 5.26a6.876 6.876 0 01-4.26 3.17c-.57.14-1.14.21-1.71.21zm.01-10.72c-.31 0-.61.04-.92.12-.98.25-1.8.86-2.32 1.72a3.782 3.782 0 001.3 5.18c.86.52 1.88.66 2.86.42.98-.25 1.8-.86 2.32-1.72a3.776 3.776 0 00-3.24-5.71z"/></g><g><circle class="cls-3" cx="55.29" cy="19.55" r="5.36"/><path class="cls-5" d="M55.29 26.5c-3.1 0-5.94-2.1-6.73-5.24a6.92 6.92 0 01.77-5.26 6.876 6.876 0 014.26-3.17c3.7-.94 7.49 1.32 8.43 5.03.45 1.8.18 3.67-.77 5.26a6.876 6.876 0 01-4.26 3.17c-.57.14-1.14.21-1.7.21zm0-10.72c-.31 0-.62.04-.93.12-.98.25-1.8.86-2.32 1.72-.52.87-.66 1.88-.42 2.86a3.777 3.777 0 006.9 1.01c.52-.86.66-1.88.42-2.85-.25-.98-.86-1.8-1.72-2.32-.59-.35-1.25-.53-1.92-.53z"/></g></g></svg>