<svg id="Layer_2" data-name="Layer 2" xmlns="http://www.w3.org/2000/svg" viewBox="0 0 157.09 192.97"><defs><style>.cls-3{fill:#fff}.cls-4{fill:#b5d0e7}</style></defs><g id="Layer_1-2" data-name="Layer 1"><text transform="translate(14.19 183.75)" font-family="Gotham-Bold,Gotham" font-size="31.04" font-weight="700" fill="#b5d0e7"><tspan x="0" y="0">Fl</tspan><tspan x="29.73" y="0" letter-spacing="-.03em">e</tspan><tspan x="47.83" y="0">xScan</tspan></text><path class="cls-4" d="M27.48 69.18l-7.98-24.5L1.25 63.85l26.23 5.33z"/><path class="cls-4" d="M27.23 70.4L1 65.07c-.45-.09-.81-.41-.94-.85-.14-.43-.03-.91.29-1.24l18.26-19.16c.3-.32.74-.45 1.18-.36.43.1.77.41.91.83l7.97 24.5c.14.42.04.89-.26 1.22-.24.27-.58.42-.93.42-.08 0-.17 0-.25-.03zM3.71 63.08l21.92 4.46-6.66-20.47L3.71 63.08zM63.58 5.92c.13 0 .26-.02.38-.06 2.5-.81 5.07-1.48 7.65-2 .68-.14 1.11-.79.98-1.47-.14-.68-.79-1.12-1.47-.98a73.87 73.87 0 00-7.93 2.07c-.66.21-1.02.92-.8 1.57.17.53.66.86 1.19.86zM96.03 3.31c.61 0 1.14-.44 1.23-1.06.1-.68-.36-1.32-1.04-1.42C92.69.29 89.09.01 85.52 0a1.25 1.25 0 000 2.5c3.44 0 6.92.28 10.32.8.06 0 .13.01.19.01zM135.18 23.14c.32 0 .64-.12.88-.37.49-.49.49-1.28 0-1.77a71.633 71.633 0 00-19.54-13.9c-.62-.3-1.37-.04-1.67.58-.3.62-.04 1.37.58 1.67 6.98 3.37 13.32 7.88 18.86 13.41.24.24.56.37.88.37z"/><path class="cls-4" d="M85.33 143.45c18.37 0 36.74-6.99 50.73-20.98 23.06-23.06 27.68-58.8 11.24-86.92-.35-.6-1.11-.79-1.71-.45-.6.35-.79 1.11-.45 1.71 15.87 27.14 11.41 61.64-10.85 83.89-27 27-70.93 27-97.93 0-14.87-14.87-22.12-35.41-19.89-56.34.07-.69-.42-1.3-1.11-1.37-.69-.07-1.3.42-1.37 1.11-2.31 21.69 5.2 42.97 20.61 58.38 13.99 13.99 32.36 20.98 50.73 20.98z"/><g><path class="cls-4" d="M69.06 59.35H41.7V32h27.36v27.36zm-24.9-2.45h22.45V34.45H44.16V56.9zM124.01 59.53H96.65V32.17h27.36v27.36zm-24.9-2.45h22.45V34.63H99.11v22.45zM69.17 113.43H41.81V86.07h27.36v27.36zm-24.9-2.45h22.45V88.53H44.27v22.45zM124.01 114.3H96.65V86.94h27.36v27.36zm-24.9-2.45h22.45V89.4H99.11v22.45z"/><path id="Fill-7" d="M83.41 45.78c16.12.12 29.09 12.6 28.96 27.87-.13 15.27-13.31 27.54-29.43 27.42-16.12-.12-29.09-12.6-28.96-27.87.13-15.27 13.31-27.54 29.43-27.42" fill="#ed2e26"/><path id="Fill-9" class="cls-3" d="M83.17 58.57c-13.37 0-18.96 13.3-19.19 13.86-.23.56-.26 1.17-.09 1.74 1.46 4.88 7.36 14.11 19.27 14.11s17.81-9.23 19.27-14.11c.17-.58.14-1.19-.09-1.74-.23-.57-5.81-13.86-19.19-13.86m0 2.76c11.53 0 16.47 12.1 16.47 12.1S96 85.53 83.15 85.53s-16.47-12.1-16.47-12.1 4.94-12.1 16.47-12.1"/><path class="cls-3" d="M83.17 81.65c-4.75 0-8.61-3.69-8.61-8.23s3.86-8.23 8.61-8.23 8.61 3.69 8.61 8.23-3.86 8.23-8.61 8.23zm0-13.53c-3.14 0-5.69 2.38-5.69 5.31s2.55 5.31 5.69 5.31 5.69-2.38 5.69-5.31-2.55-5.31-5.69-5.31z"/></g></g></svg>