<svg width="67" height="51" viewBox="0 0 67 51" xmlns="http://www.w3.org/2000/svg"><g fill="none" fill-rule="evenodd"><path d="M55.169 17.67c-.482 0-.953.043-1.417.105-.977-4.062-4.624-7.085-8.985-7.085a9.201 9.201 0 00-4.223 1.027C38.279 5.484 32.37 1 25.352 1 16.387 1 9.117 8.27 9.117 17.235c0 .127.035.245.038.371C4.475 18.8 1 23.006 1 28.058c0 .072.01.14.01.21 0 .08-.01.155-.01.235 0 4.91 3.273 9.05 7.751 10.379H58.25c4.478-1.33 7.75-5.469 7.75-10.38 0-5.986-4.851-10.833-10.831-10.833z" stroke="#B5D0E7" stroke-width="2" stroke-linecap="round" stroke-linejoin="round"/><path d="M32.956 17.25c8.818 0 13.252 4.718 13.252 4.718s.507 3.493.183 10.524c-.488 10.624-13.432 17.003-13.433 17.005 0 0-12.945-6.381-13.433-17.005-.324-7.031.183-10.524.183-10.524s4.43-4.718 13.248-4.718" fill="#ED2E26"/><path d="M26.269 31.667c0-3.756 2.97-6.812 6.619-6.812a6.632 6.632 0 016.624 6.625c0 2.916-2.506 5.316-4.438 6.548.75.427 2.403.877 3.987 1.022a9.56 9.56 0 003.723-7.57c0-5.457-4.44-9.897-9.896-9.897-5.457 0-9.896 4.44-9.896 9.897 0 3.295 1.372 6.223 3.968 8.467 2.428 2.097 5.978 3.497 10.02 4.16.876-.483 2.373-1.912 2.935-2.75-3.376-.433-6.571-1.256-8.713-2.38-3.274-1.718-4.933-4.177-4.933-7.31" fill="#FEFEFE"/></g></svg>