<?xml version="1.0" encoding="utf-8"?>
<!-- Generator: Adobe Illustrator 23.0.4, SVG Export Plug-In . SVG Version: 6.00 Build 0)  -->
<svg version="1.1" id="Layer_1" xmlns="http://www.w3.org/2000/svg" xmlns:xlink="http://www.w3.org/1999/xlink" x="0px" y="0px"
	 viewBox="0 0 64 64" style="enable-background:new 0 0 64 64;" xml:space="preserve">
<style type="text/css">
	.st0{fill:#FFFFFF;stroke:#B5D0E5;stroke-width:2;stroke-linecap:round;stroke-linejoin:round;}
	.st1{fill:#B5D0E5;stroke:#B5D0E5;stroke-width:1.5;stroke-linecap:round;stroke-linejoin:round;}
	.st2{fill:#FFFFFF;stroke:#B5D0E5;stroke-width:1.5;stroke-linecap:round;stroke-linejoin:round;}
	.st3{fill:#ED2E26;}
	.st4{fill:#FEFEFE;}
</style>
<g>
	<rect x="11.7" y="1.9" class="st0" width="37.1" height="51.5"/>
	<rect x="5" y="6.8" class="st0" width="37.1" height="51.5"/>
	<g>
		<rect x="12.7" y="16" class="st1" width="3.1" height="11.4"/>
		<rect x="18.9" y="11.1" class="st1" width="3.1" height="16.3"/>
		<rect x="25.1" y="17.5" class="st1" width="3.1" height="10"/>
		<rect x="31.2" y="17.5" class="st1" width="3.1" height="10"/>
	</g>
	<rect x="9.9" y="32.6" class="st2" width="7.4" height="7.4"/>
	<g>
		<line class="st2" x1="20.4" y1="33.9" x2="30.1" y2="33.9"/>
		<line class="st2" x1="20.4" y1="36.3" x2="37.9" y2="36.3"/>
		<line class="st2" x1="20.4" y1="38.6" x2="29.2" y2="38.6"/>
	</g>
	<rect x="9.9" y="42.9" class="st2" width="7.4" height="7.4"/>
	<g>
		<line class="st2" x1="20.4" y1="44.2" x2="27" y2="44.2"/>
		<line class="st2" x1="20.4" y1="46.6" x2="37.9" y2="46.6"/>
		<line class="st2" x1="20.4" y1="49" x2="33.2" y2="49"/>
	</g>
	<g>
		<path id="Fill-5_16_" class="st3" d="M37.5,51.3c0-6,4.8-10.8,10.8-10.8l0,0c6,0,10.8,4.8,10.8,10.8l0,0c0,6-4.8,10.8-10.8,10.8
			l0,0C42.3,62.1,37.5,57.2,37.5,51.3"/>
		<path id="Fill-7_51_" class="st4" d="M48.3,45.1c-5.2,0-7.4,5.4-7.4,5.7c-0.1,0.3-0.1,0.6,0,0.9c0.6,2,2.9,5.8,7.5,5.8
			s6.9-3.8,7.5-5.8c0.1-0.3,0.1-0.6,0-0.9C55.6,50.6,53.5,45.1,48.3,45.1 M48.3,46.6c4.3,0,6.1,4.7,6.1,4.7S53,56,48.3,56
			s-6.1-4.7-6.1-4.7S44,46.6,48.3,46.6"/>
		<path class="st4" d="M48.3,54.7c-0.2,0-0.4,0-0.6-0.1c-1.3-0.3-2.4-1.3-2.7-2.7c-0.2-1.1,0.1-2.2,0.9-3c0.8-0.8,1.9-1.1,3-0.9
			c1.3,0.3,2.4,1.3,2.7,2.7c0.2,1.1-0.1,2.2-0.9,3C50,54.3,49.1,54.7,48.3,54.7z M48.3,49.4c-0.5,0-1,0.2-1.3,0.6
			c-0.5,0.5-0.6,1.1-0.5,1.7c0,0,0,0,0,0c0.1,0.7,0.8,1.3,1.5,1.5c0.6,0.1,1.3-0.1,1.7-0.5c0.5-0.5,0.6-1.1,0.5-1.7
			c-0.1-0.7-0.8-1.3-1.5-1.5C48.5,49.4,48.4,49.4,48.3,49.4z"/>
	</g>
</g>
</svg>
