<svg width="64" height="51" viewBox="0 0 64 51" xmlns="http://www.w3.org/2000/svg"><g fill="none" fill-rule="evenodd"><path d="M58.2 40.5H5c-2.2 0-4-1.8-4-4V5c0-2.2 1.8-4 4-4h53.2c2.2 0 4 1.8 4 4v31.5c0 2.2-1.8 4-4 4z" stroke="#B5CFE5" stroke-width="2" stroke-linecap="round" stroke-linejoin="round"/><g stroke="#B5CFE5" stroke-linecap="round" stroke-linejoin="round" stroke-width="2"><path d="M26.1 41.2l-1.2 7.5M37.2 41.2l1.1 7.5"/></g><path stroke="#B5CFE5" stroke-width="2" stroke-linecap="round" stroke-linejoin="round" d="M19.2 49.4h24.9"/><path fill="#ED2E26" fill-rule="nonzero" d="M32.6 32.6l2.8-5.2 8.5 8.4 2.7-2.7-8.5-8.5 5.3-2.8-14.9-4.2z"/><path stroke="#B5CFE5" stroke-width="2" stroke-linecap="round" stroke-linejoin="round" d="M22.1 11.1L25 14M29 6.5v7.3M17.4 18h7.3M32.8 14l2.9-2.9M24.9 22L22 24.8"/></g></svg>