<?xml version="1.0" encoding="utf-8"?>
<!-- Generator: Adobe Illustrator 23.0.4, SVG Export Plug-In . SVG Version: 6.00 Build 0)  -->
<svg version="1.1" id="Layer_1" xmlns="http://www.w3.org/2000/svg" xmlns:xlink="http://www.w3.org/1999/xlink" x="0px" y="0px"
	 viewBox="0 0 64 64" style="enable-background:new 0 0 64 64;" xml:space="preserve">
<style type="text/css">
	.st0{fill:#FFFFFF;}
	.st1{fill:none;stroke:#B5D0E7;stroke-width:2;stroke-linecap:round;stroke-linejoin:round;}
	.st2{fill:#ED2E26;}
</style>
<g>
	<path id="Fill-1_19_" class="st0" d="M56.5,56.6l-48-48"/>
	<path id="Stroke-2_10_" class="st1" d="M56.5,56.6l-48-48"/>
	<path id="Fill-4_6_" class="st0" d="M4.5,10.5c0-3.3,2.7-6,6-6c3.3,0,6,2.7,6,6c0,3.3-2.7,6-6,6C7.2,16.5,4.5,13.8,4.5,10.5"/>
	<path id="Stroke-6_8_" class="st1" d="M4.5,10.5c0-3.3,2.7-6,6-6c3.3,0,6,2.7,6,6c0,3.3-2.7,6-6,6C7.2,16.5,4.5,13.8,4.5,10.5z"/>
	<path id="Fill-8_1_" class="st0" d="M47.5,53.5c0-3.3,2.7-6,6-6c3.3,0,6,2.7,6,6c0,3.3-2.7,6-6,6C50.2,59.5,47.5,56.8,47.5,53.5"/>
	<path id="Stroke-10_3_" class="st1" d="M47.5,53.5c0-3.3,2.7-6,6-6c3.3,0,6,2.7,6,6c0,3.3-2.7,6-6,6C50.2,59.5,47.5,56.8,47.5,53.5
		z"/>
	<path id="Fill-12_5_" class="st0" d="M56.6,7.5l-48,48"/>
	<path id="Stroke-14_7_" class="st1" d="M56.6,7.5l-48,48"/>
	<path id="Fill-16_5_" class="st0" d="M57.7,14.7c-2.3,2.3-6.1,2.3-8.5,0c-2.3-2.3-2.3-6.1,0-8.5c2.3-2.3,6.1-2.3,8.5,0
		C60.1,8.6,60.1,12.4,57.7,14.7"/>
	<path id="Stroke-18_3_" class="st1" d="M57.7,14.7c-2.3,2.3-6.1,2.3-8.5,0c-2.3-2.3-2.3-6.1,0-8.5c2.3-2.3,6.1-2.3,8.5,0
		C60.1,8.6,60.1,12.4,57.7,14.7z"/>
	<path id="Fill-20_3_" class="st0" d="M14.7,57.7c-2.3,2.3-6.1,2.3-8.5,0c-2.3-2.3-2.3-6.1,0-8.5c2.3-2.3,6.1-2.3,8.5,0
		C17.1,51.6,17.1,55.4,14.7,57.7"/>
	<path id="Stroke-22_4_" class="st1" d="M14.7,57.7c-2.3,2.3-6.1,2.3-8.5,0c-2.3-2.3-2.3-6.1,0-8.5c2.3-2.3,6.1-2.3,8.5,0
		C17.1,51.6,17.1,55.4,14.7,57.7z"/>
	<path id="Fill-24_1_" class="st2" d="M32,17.5c8.1,0,12.2,4.4,12.2,4.4s0.5,3.2,0.2,9.7C43.9,41.4,32,47.3,32,47.3
		c0,0-11.9-5.9-12.4-15.7c-0.3-6.5,0.2-9.7,0.2-9.7S23.9,17.5,32,17.5"/>
	<path id="Fill-26_2_" class="st0" d="M25.9,30.4c0-3.5,2.7-6.3,6.1-6.3c3.4,0,6.1,2.7,6.1,6.1c0,2.7-2.3,4.9-4.1,6
		c0.7,0.4,2.2,0.8,3.7,0.9c2.1-1.7,3.4-4.2,3.4-7c0-5-4.1-9.1-9.1-9.1s-9.1,4.1-9.1,9.1c0,3,1.3,5.7,3.7,7.8
		c2.2,1.9,5.5,3.2,9.2,3.8c0.8-0.4,2.2-1.8,2.7-2.5c-3.1-0.4-6.1-1.2-8-2.2C27.4,35.6,25.9,33.3,25.9,30.4"/>
</g>
</svg>
