<svg version="1.1" id="Layer_1" xmlns="http://www.w3.org/2000/svg" x="0" y="0" viewBox="0 0 64 64" xml:space="preserve"><style>.st1{fill:#ed2e26}.st2{fill:none;stroke:#fff;stroke-width:2;stroke-linecap:round;stroke-linejoin:round}.st4{fill:#fff}</style><switch><g><path id="Stroke-1_32_" d="M53.4 11c5.3 5.4 8.6 12.8 8.6 21 0 16.6-13.4 30-30 30S2 48.6 2 32h0" fill="none" stroke="#b5d0e7" stroke-width="2" stroke-linecap="round" stroke-linejoin="round"/><path id="Fill-3_71_" class="st1" d="M53.2 10.8C47.8 5.4 40.3 2 32 2 15.4 2 2 15.4 2 32h30l21.2-21.2z"/><path id="Stroke-5_7_" class="st2" d="M53.2 10.8C47.8 5.4 40.3 2 32 2 15.4 2 2 15.4 2 32h30l21.2-21.2z"/><path id="Stroke-9_26_" class="st2" d="M47.6 16.4c-4-4-9.5-6.5-15.6-6.5C19.8 9.9 9.9 19.8 9.9 32H32"/><path id="Stroke-11_2_" class="st2" d="M18.4 32c0-7.5 6.1-13.6 13.6-13.6 3.7 0 7.1 1.5 9.6 4"/><path id="Stroke-13_7_" d="M32 32l21.2-21.2" fill="none" stroke="#ed2e26" stroke-width="2" stroke-linecap="round" stroke-linejoin="round"/><path id="Fill-15_12_" class="st1" d="M28.6 32c0-1.9 1.5-3.4 3.4-3.4s3.4 1.5 3.4 3.4-1.5 3.4-3.4 3.4-3.4-1.5-3.4-3.4"/><path id="Stroke-17_1_" class="st2" d="M28.6 32c0-1.9 1.5-3.4 3.4-3.4s3.4 1.5 3.4 3.4-1.5 3.4-3.4 3.4-3.4-1.5-3.4-3.4z"/><path id="Fill-19_4_" class="st4" d="M25.3 10.5c0-1 .8-1.7 1.7-1.7s1.7.8 1.7 1.7-.7 1.7-1.7 1.7-1.7-.8-1.7-1.7"/><path id="Stroke-21_4_" class="st2" d="M25.3 10.5c0-1 .8-1.7 1.7-1.7s1.7.8 1.7 1.7-.7 1.7-1.7 1.7-1.7-.8-1.7-1.7z"/><path id="Fill-23_2_" class="st4" d="M19.1 24.6c0-1 .8-1.7 1.7-1.7s1.7.8 1.7 1.7-.8 1.7-1.7 1.7-1.7-.7-1.7-1.7"/><path id="Stroke-25_1_" class="st2" d="M19.1 24.6c0-1 .8-1.7 1.7-1.7s1.7.8 1.7 1.7-.8 1.7-1.7 1.7-1.7-.7-1.7-1.7z"/></g></switch></svg>