<?xml version="1.0" encoding="utf-8"?>
<!-- Generator: Adobe Illustrator 23.0.4, SVG Export Plug-In . SVG Version: 6.00 Build 0)  -->
<svg version="1.1" id="Layer_1" xmlns="http://www.w3.org/2000/svg" xmlns:xlink="http://www.w3.org/1999/xlink" x="0px" y="0px"
	 viewBox="0 0 64 64" style="enable-background:new 0 0 64 64;" xml:space="preserve">
<style type="text/css">
	.st0{fill:#1CABE2;}
	.st1{fill:#ED2E26;}
	.st2{fill:none;stroke:#B5D0E7;stroke-width:2;stroke-linecap:round;stroke-linejoin:round;}
	.st3{fill:#FEFEFE;}
	.st4{fill:none;stroke:#FEFEFE;stroke-width:2;stroke-linecap:round;stroke-linejoin:round;}
</style>
<g>
	<path id="Fill-1_8_" class="st0" d="M46.8,21.9c-0.3,0-0.5-0.1-0.7-0.3c-0.2-0.2-0.3-0.4-0.3-0.7c0-0.3,0.1-0.5,0.3-0.7
		c0.4-0.4,1-0.4,1.4,0c0.2,0.2,0.3,0.4,0.3,0.7c0,0.3-0.1,0.5-0.3,0.7C47.3,21.8,47,21.9,46.8,21.9z"/>
	<path id="Fill-3_8_" class="st1" d="M49,27.7c-0.1-0.5,0.2-1.1,0.7-1.2c0.5-0.1,1.1,0.2,1.2,0.7c0.1,0.5-0.2,1.1-0.7,1.2
		c-0.1,0-0.2,0-0.2,0C49.5,28.4,49.1,28.2,49,27.7 M50.2,35.7c-0.5-0.1-0.9-0.6-0.8-1.1c0.1-0.5,0.6-0.9,1.1-0.8
		c0.5,0.1,0.9,0.6,0.8,1.1c-0.1,0.5-0.5,0.8-1,0.8C50.3,35.7,50.3,35.7,50.2,35.7 M47.3,42.4c-0.5-0.3-0.6-0.9-0.3-1.4v0
		c0.3-0.5,0.9-0.6,1.4-0.3c0.5,0.3,0.6,0.9,0.3,1.4v0c-0.2,0.3-0.5,0.5-0.8,0.5C47.7,42.5,47.5,42.5,47.3,42.4"/>
	<path id="Fill-5_9_" class="st1" d="M42.9,47.8c-0.3,0-0.5-0.1-0.7-0.3c-0.2-0.2-0.3-0.4-0.3-0.7c0-0.3,0.1-0.5,0.3-0.7
		c0.4-0.4,1-0.4,1.4,0c0.2,0.2,0.3,0.4,0.3,0.7c0,0.3-0.1,0.5-0.3,0.7C43.4,47.7,43.2,47.8,42.9,47.8"/>
	<path id="Fill-7_9_" class="st0" d="M18.1,44.1c-0.3,0-0.5-0.1-0.7-0.3c-0.2-0.2-0.3-0.4-0.3-0.7c0-0.3,0.1-0.5,0.3-0.7
		c0.4-0.4,1-0.4,1.4,0c0.2,0.2,0.3,0.4,0.3,0.7c0,0.3-0.1,0.5-0.3,0.7C18.6,44,18.4,44.1,18.1,44.1"/>
	<path id="Fill-9_4_" class="st1" d="M16.7,23.1c-0.5-0.3-0.6-0.9-0.3-1.4c0.3-0.5,0.9-0.6,1.4-0.3c0.5,0.3,0.6,0.9,0.3,1.4h0
		c-0.2,0.3-0.5,0.5-0.9,0.5C17,23.3,16.8,23.2,16.7,23.1 M14.4,30.1c-0.6-0.1-0.9-0.6-0.8-1.1c0.1-0.5,0.6-0.9,1.1-0.8
		c0.6,0.1,0.9,0.6,0.8,1.1c-0.1,0.5-0.5,0.8-1,0.8C14.5,30.1,14.5,30.1,14.4,30.1 M13.9,36.7c-0.1-0.5,0.2-1.1,0.7-1.2
		c0.5-0.1,1.1,0.2,1.2,0.7v0c0.1,0.5-0.2,1.1-0.7,1.2c-0.1,0-0.2,0-0.2,0C14.4,37.5,14,37.2,13.9,36.7"/>
	<path id="Fill-11_9_" class="st1" d="M22.3,18c-0.3,0-0.5-0.1-0.7-0.3c-0.2-0.2-0.3-0.4-0.3-0.7c0-0.3,0.1-0.5,0.3-0.7
		c0.4-0.4,1-0.4,1.4,0c0.2,0.2,0.3,0.4,0.3,0.7c0,0.3-0.1,0.5-0.3,0.7C22.9,17.9,22.6,18,22.3,18"/>
	<polyline id="Stroke-13_12_" class="st2" points="8.1,57.1 19.3,57.1 30.2,62 55.4,49.1 53,44.5 32.3,51.1 	"/>
	<polyline id="Stroke-15_2_" class="st2" points="3.6,43.1 24.3,43.1 35,53.7 31.6,57.1 24.5,49.9 	"/>
	<polygon id="Fill-17_1_" class="st3" points="3.6,59.5 10.1,59.5 10.1,40.6 3.6,40.6 	"/>
	<polygon id="Stroke-19_3_" class="st2" points="3.6,59.5 10.1,59.5 10.1,40.6 3.6,40.6 	"/>
	<polyline id="Stroke-20_2_" class="st2" points="55.9,6.9 44.7,6.9 33.8,2 8.6,14.9 11,19.5 31.7,12.9 	"/>
	<polyline id="Stroke-21_5_" class="st2" points="60.4,20.9 39.7,20.9 29,10.3 32.4,6.9 39.5,14.1 	"/>
	<polygon id="Fill-22_1_" class="st3" points="53.9,23.4 60.4,23.4 60.4,4.5 53.9,4.5 	"/>
	<polygon id="Stroke-23_5_" class="st2" points="53.9,23.4 60.4,23.4 60.4,4.5 53.9,4.5 	"/>
	<path id="Fill-24" class="st1" d="M32.4,20.8c6.5,0,9.8,3.5,9.8,3.5s0.4,2.6,0.1,7.8c-0.4,7.8-9.9,12.6-9.9,12.6
		c0,0-9.6-4.7-9.9-12.6c-0.2-5.2,0.1-7.8,0.1-7.8S25.9,20.8,32.4,20.8"/>
	<polyline id="Stroke-25_6_" class="st4" points="27,31.4 30.8,35.2 37.9,28.2 	"/>
</g>
</svg>
