<svg viewBox="0 0 69 68" xmlns="http://www.w3.org/2000/svg"><g stroke-width="2.2" fill="none" fill-rule="evenodd" stroke-linecap="round" stroke-linejoin="round"><path d="M47.005 13.554c-.207-.135-1.82-1.13-2.46-1.434l-.794-1.983c.235-.655.687-2.491.767-2.812a.894.894 0 00-.23-.818l-1.251-1.284a.837.837 0 00-.795-.238c-.236.056-2.048.529-2.725.793l-1.92-.82c-.278-.634-1.22-2.258-1.392-2.539A.844.844 0 0035.481 2h-1.762a.852.852 0 00-.725.411c-.13.213-1.095 1.88-1.39 2.539l-1.92.82c-.636-.244-2.414-.71-2.724-.793a.842.842 0 00-.795.237l-1.243 1.293a.895.895 0 00-.232.818c.054.244.512 2.116.768 2.812l-.793 1.983c-.614.287-2.19 1.258-2.46 1.434a.88.88 0 00-.409.747v1.816c0 .304.15.585.4.748.205.134 1.82 1.13 2.461 1.433l.793 1.981c-.234.657-.688 2.492-.767 2.812a.898.898 0 00.23.82l1.244 1.283a.832.832 0 00.795.237c.236-.053 2.048-.526 2.725-.79l1.92.817c.278.634 1.219 2.26 1.391 2.541a.84.84 0 00.73.421h1.76a.852.852 0 00.725-.41c.13-.211 1.096-1.88 1.392-2.54l1.92-.82c.635.244 2.414.711 2.725.794a.836.836 0 00.793-.238l1.245-1.285a.894.894 0 00.23-.818c-.054-.243-.512-2.115-.769-2.811l.795-1.983c.615-.287 2.188-1.258 2.46-1.434a.884.884 0 00.411-.756v-1.818a.882.882 0 00-.4-.747z" stroke="#EC3027"/><path d="M34.6 20.962c-3.081-.002-5.578-2.582-5.574-5.763.002-3.18 2.503-5.753 5.584-5.751 3.081.002 5.578 2.582 5.576 5.763-.008 3.177-2.505 5.751-5.586 5.751z" stroke="#EC3027"/><path d="M20.472 64.734c-.43-2.52-5.367-2.357-7.017-4.18v-1.802c.763-.818 1.315-2.037 1.437-3.487 0 0 .064-.737.092-1.086.219-2.572-1.447-4.886-3.74-4.894-2.292-.006-3.972 2.293-3.771 4.869l.084 1.084c.118 1.51.702 2.779 1.505 3.599v1.675c-1.615 1.867-6.615 1.684-7.051 4.222-.05.308.088 2.016.088 2.016h18.287s.138-1.708.086-2.016zM43.83 64.734c-.43-2.52-5.367-2.357-7.017-4.18v-1.802c.763-.818 1.317-2.037 1.438-3.487 0 0 .064-.737.092-1.086.218-2.572-1.446-4.886-3.74-4.894-2.293-.006-3.972 2.293-3.772 4.869l.084 1.084c.118 1.51.703 2.779 1.508 3.599v1.675c-1.618 1.867-6.617 1.684-7.054 4.222-.05.308.088 2.016.088 2.016h18.287s.138-1.708.086-2.016zM66.988 64.734c-.432-2.52-5.367-2.357-7.017-4.18v-1.802c.763-.818 1.315-2.037 1.437-3.487 0 0 .065-.737.093-1.086.216-2.572-1.448-4.886-3.74-4.894-2.293-.006-3.972 2.293-3.772 4.869l.084 1.084c.118 1.51.7 2.779 1.505 3.599v1.675c-1.615 1.867-6.614 1.684-7.05 4.222-.051.308.087 2.016.087 2.016h18.287s.138-1.708.086-2.016z" stroke="#B4CFE4"/><path stroke="#EC3027" d="M11.343 44.872v-4.414h46.516v4.414M34.6 44.872V32.924"/></g></svg>