<svg version="1.1" id="Layer_1" xmlns="http://www.w3.org/2000/svg" x="0" y="0" viewBox="0 0 64 64" xml:space="preserve"><style>.st0{fill:none;stroke:#b5d0e7;stroke-width:2;stroke-linecap:round;stroke-linejoin:round}.st2{fill:#eb3027}</style><g id="Corner-Brackets"><path id="Path-20_19_" class="st0" d="M13 1H1v12"/><path id="Path-20_18_" class="st0" d="M51 1h12v12"/><path id="Path-20_17_" class="st0" d="M13 63H1V51"/><path id="Path-20_16_" class="st0" d="M51 63h12V51"/></g><g id="Circles_3_" transform="rotate(-179 26.339 26.332)"><path id="Oval-13_11_" class="st0" d="M20.9 42c11.6 0 21-9.4 21-21.1-.1-11.6-9.4-21-21-21S-.1 9.3-.1 21"/><path id="Oval-13_10_" class="st0" d="M20.9 36.7c8.6 0 15.6-7 15.6-15.7s-7-15.7-15.6-15.7S5.3 12.3 5.3 21"/><path id="Oval-13_9_" class="st0" d="M20.9 29.8c4.8 0 8.8-3.9 8.8-8.8s-3.9-8.8-8.8-8.8c-4.8 0-8.8 3.9-8.8 8.8"/></g><g id="Dots"><path id="Path-21_3_" d="M32 32l14.5-14.5" fill="none" stroke="#eb3027" stroke-width="2" stroke-linecap="round" stroke-linejoin="round"/><circle class="st2" cx="15.6" cy="18.3" r="2.3"/><circle class="st2" cx="32" cy="32" r="2.3"/><circle class="st2" cx="36.2" cy="46.8" r="2.3"/></g></svg>