<svg version="1.1" id="Layer_1" xmlns="http://www.w3.org/2000/svg" x="0" y="0" viewBox="0 0 64 64" xml:space="preserve"><style>.st1{fill:#b5d0e7}.st2{fill:#ed2e26}.st3{fill:#fefefe}</style><switch><g><path id="Stroke-1_1_" d="M45.2 52.5h-34c-3.7 0-6.7-3-6.7-6.7V9.7C4.5 6 7.5 3 11.2 3h34c3.7 0 6.7 3 6.7 6.7v36.1c0 3.7-3 6.7-6.7 6.7z" fill="#fff"/><path class="st1" d="M45.2 53.5h-34c-4.2 0-7.7-3.5-7.7-7.7V9.7C3.5 5.4 7 2 11.2 2h34c4.2 0 7.7 3.5 7.7 7.7v36.1c0 4.2-3.4 7.7-7.7 7.7zM11.2 4C8.1 4 5.5 6.5 5.5 9.7v36.1c0 3.1 2.6 5.7 5.7 5.7h34c3.1 0 5.7-2.6 5.7-5.7V9.7c0-3.1-2.6-5.7-5.7-5.7h-34z"/><path class="st1" d="M13 26.4c-.3 0-.6-.1-.8-.4-.3-.4-.2-1.1.2-1.4l7.9-5.8-7.5-5.4c-.4-.3-.5-.9-.2-1.4.3-.4.9-.5 1.4-.2l8.6 6.2c.3.2.4.5.4.8s-.2.6-.4.8l-9 6.6c-.2.2-.4.2-.6.2zM39.6 29.3H24.1c-.6 0-1-.4-1-1s.4-1 1-1h15.5c.6 0 1 .4 1 1s-.5 1-1 1z"/><path id="Fill-7_19_" class="st2" d="M37.9 43.4v6.2c-3.1 3.4-12.5 3.1-13.4 7.7-.1.6.2 3.7.2 3.7h34.6s.3-3.1.2-3.7c-.8-4.6-10.2-4.3-13.3-7.7v-6.3h-8.3z"/><path class="st3" d="M59.3 62H24.7c-.5 0-1-.4-1-.9-.1-1-.3-3.3-.2-4 .6-3.3 4.2-4.4 7.8-5.5 2.2-.7 4.4-1.4 5.6-2.5v-5.8c0-.6.4-1 1-1h8.3c.6 0 1 .4 1 1v5.8c1.2 1.1 3.4 1.8 5.5 2.4 3.5 1.1 7.2 2.2 7.8 5.5.1.6-.1 3-.2 4 0 .6-.5 1-1 1zm-33.7-2h32.8c.1-1.2.1-2.3.1-2.5-.4-2-3.3-3-6.4-3.9-2.5-.8-5.1-1.6-6.6-3.2-.2-.2-.3-.4-.3-.7v-5.3h-6.3v5.2c0 .2-.1.5-.3.7-1.5 1.7-4.2 2.5-6.7 3.3-3.1 1-6 1.9-6.4 3.9 0 .3 0 1.4.1 2.5zm12.3-10.4z"/><path id="Fill-11_20_" class="st2" d="M48.9 40s.1-1.3.2-2c.4-4.7-2.7-9-7.1-9-4.3 0-7.5 4.2-7.1 8.9.1.6.2 2 .2 2 .4 4.9 3.6 8.4 6.9 8.4 3.3.1 6.5-3.4 6.9-8.3"/><path class="st3" d="M41.9 49.4c-4 0-7.5-4.1-7.9-9.4l-.2-2c-.2-2.8.7-5.5 2.5-7.5 1.5-1.6 3.5-2.5 5.6-2.5 2.1 0 4.1.9 5.7 2.6 1.8 2 2.7 4.7 2.4 7.5l-.2 2c-.4 5.2-3.8 9.3-7.9 9.3zM42 30c-1.6 0-3 .7-4.2 1.9-1.4 1.5-2.1 3.7-1.9 6l.2 2c.3 4.2 2.9 7.5 5.9 7.5 3 0 5.6-3.3 6-7.5l.2-2c.2-2.3-.5-4.4-1.9-6C45 30.7 43.6 30 42 30z"/></g></switch></svg>