<svg version="1.1" id="Layer_1" xmlns="http://www.w3.org/2000/svg" x="0" y="0" viewBox="0 0 64 64" xml:space="preserve"><style>.st1{fill:#fff;stroke:#b5d0e7;stroke-width:2;stroke-linecap:round;stroke-linejoin:round}.st2{fill:#b5d0e7}.st3{fill:none;stroke:#b5d0e7;stroke-linecap:round;stroke-linejoin:round}.st10{fill:#ed2e26}.st11{fill:none;stroke:#ed2e26;stroke-width:2;stroke-linecap:round;stroke-linejoin:round}</style><switch><g><path fill="none" stroke="#b5d0e7" stroke-width="2" stroke-linecap="round" stroke-linejoin="round" d="M3.2 8.1H55v51.8H3.2z"/><path class="st1" d="M9.2 2.4H61v51.8H9.2zM9.2 15h51.9"/><circle class="st2" cx="15.7" cy="8.1" r="1.6"/><circle class="st2" cx="22.8" cy="8.1" r="1.6"/><circle class="st2" cx="29.9" cy="8.1" r="1.6"/><path class="st3" d="M16.2 48.7v-.2"/><path fill="none" stroke="#b5d0e7" stroke-linecap="round" stroke-linejoin="round" stroke-dasharray=".5252,2.1009" d="M16.2 46.4v-20"/><path class="st3" d="M16.2 25.3v-.2M23.8 51.1v-.2"/><path fill="none" stroke="#b5d0e7" stroke-linecap="round" stroke-linejoin="round" stroke-dasharray=".482,1.9282" d="M23.8 49V23.4"/><path class="st3" d="M23.8 22.4v-.2M31.3 49.8v-.3"/><path fill="none" stroke="#b5d0e7" stroke-linecap="round" stroke-linejoin="round" stroke-dasharray=".51,2.04" d="M31.3 47.5V28.1"/><path class="st3" d="M31.3 27.1v-.3M38.9 49.8v-.3"/><path fill="none" stroke="#b5d0e7" stroke-linecap="round" stroke-linejoin="round" stroke-dasharray=".5012,2.005" d="M38.9 47.5V23.4"/><path class="st3" d="M38.9 22.4v-.2M46.5 51.1v-.2"/><path fill="none" stroke="#b5d0e7" stroke-linecap="round" stroke-linejoin="round" stroke-dasharray=".4801,1.9204" d="M46.5 49V25.9"/><path class="st3" d="M46.5 25v-.3M54.1 49v-.2"/><path fill="none" stroke="#b5d0e7" stroke-linecap="round" stroke-linejoin="round" stroke-dasharray=".488,1.9521" d="M54.1 46.8V23.4"/><path class="st3" d="M54.1 22.4v-.2"/><circle class="st10" cx="16.2" cy="25.4" r="2.1"/><circle class="st10" cx="16.2" cy="39.8" r="2.1"/><circle class="st10" cx="23.8" cy="20.1" r="2.1"/><circle class="st10" cx="23.8" cy="44.1" r="2.1"/><circle class="st10" cx="31.3" cy="26.8" r="2.1"/><circle class="st10" cx="31.3" cy="38.7" r="2.1"/><circle class="st10" cx="46.5" cy="24.7" r="2.1"/><circle class="st10" cx="46.5" cy="37.7" r="2.1"/><circle class="st10" cx="38.9" cy="20.1" r="2.1"/><circle class="st10" cx="38.9" cy="44.7" r="2.1"/><circle class="st10" cx="54.1" cy="20.1" r="2.1"/><circle class="st10" cx="54.1" cy="40.9" r="2.1"/><path class="st11" d="M16.2 25.1l7.6-5 7.5 6.7 7.6-6.7 7.6 4.9 7.6-4.9M16.2 39.8l7.6 4.3 7.5-5.4 7.6 6 7.6-7 7.6 3.2"/></g></switch></svg>