<svg viewBox="0 0 69 66" xmlns="http://www.w3.org/2000/svg"><g fill="none" fill-rule="evenodd"><path d="M57.091 33.192c0-12.85-10.113-23.265-22.59-23.265H3.615M18.53 16.74c-4.089 4.211-6.618 10.028-6.618 16.453" stroke="#B5D0E7" stroke-width="2.2" stroke-linecap="round" stroke-linejoin="round"/><path stroke="#B5D0E7" stroke-width="2.2" stroke-linecap="round" stroke-linejoin="round" d="M9.695 17.852L2 9.925 9.695 2M11.908 33.079c0 12.85 10.113 23.265 22.59 23.265h30.886M50.474 49.53c4.088-4.21 6.618-10.028 6.618-16.452"/><path stroke="#B5D0E7" stroke-width="2.2" stroke-linecap="round" stroke-linejoin="round" d="M59.305 48.418L67 56.343l-7.695 7.928"/><path d="M34.477 16.33c8.996.014 16.279 7.535 16.265 16.8-.01 9.265-7.314 16.765-16.312 16.753-8.996-.013-16.279-7.535-16.266-16.802.014-9.264 7.317-16.764 16.313-16.75" fill="#ED2E26"/><path stroke="#FEFEFE" stroke-width="2.2" stroke-linecap="round" stroke-linejoin="round" d="M27.573 32.45l5.341 5.5 9.803-10.093"/></g></svg>