<svg xmlns="http://www.w3.org/2000/svg" xmlns:xlink="http://www.w3.org/1999/xlink" width="64" height="68" viewBox="0 0 64 68">
  <defs>
    <polygon id="usability-a" points="0 .958 54.592 .958 54.592 18.434 0 18.434"/>
  </defs>
  <g fill="none" fill-rule="evenodd">
    <mask id="usability-b" fill="#fff">
      <use xlink:href="#usability-a"/>
    </mask>
    <path fill="#ED2E26" d="M23.3675918,13.5060941 C21.2551429,13.5060941 19.5422857,11.8005647 19.5422857,9.69603529 C19.5422857,7.59150588 21.2551429,5.88597647 23.3675918,5.88597647 C25.4811633,5.88597647 27.1940204,7.59150588 27.1940204,9.69603529 C27.1940204,11.8005647 25.4811633,13.5060941 23.3675918,13.5060941 M11.0206531,13.5060941 C8.90820408,13.5060941 7.19534694,11.8005647 7.19534694,9.69603529 C7.19534694,7.59150588 8.90820408,5.88597647 11.0206531,5.88597647 C13.1342245,5.88597647 14.8470816,7.59150588 14.8470816,9.69603529 C14.8470816,11.8005647 13.1342245,13.5060941 11.0206531,13.5060941 M53.4694286,0.957152941 L1.12289796,0.957152941 C0.502183673,0.957152941 0.000448979592,1.45785882 0.000448979592,2.0748 L0.000448979592,17.3161529 C0.000448979592,17.9342118 0.502183673,18.4338 1.12289796,18.4338 L35.6707551,18.4338 L35.8806531,9.23891765 L43.7377959,9.23891765 L43.1945306,18.4338 L53.4694286,18.4338 C54.0901429,18.4338 54.5918776,17.9342118 54.5918776,17.3161529 L54.5918776,2.0748 C54.5918776,1.45785882 54.0901429,0.957152941 53.4694286,0.957152941" mask="url(#usability-b)"/>
    <polyline stroke="#B5D0E7" stroke-linecap="round" stroke-linejoin="round" stroke-width="2" points="36.295 41.02 36.295 9 43.733 9 43.733 26.747 63 26.747 63 52.98 58.803 60.309 58.803 67 39.345 67 39.345 59.731 30 50.278 30 29.833 35.913 29.833"/>
  </g>
</svg>
