<svg viewBox="0 0 69 60" xmlns="http://www.w3.org/2000/svg" xmlns:xlink="http://www.w3.org/1999/xlink"><defs><path id="a" d="M0 0h21.262v25.314H0z"/></defs><g fill="none" fill-rule="evenodd"><path d="M64.98 36.327H15.773a2.025 2.025 0 01-2.018-2.018V4.019c0-1.11.909-2.019 2.018-2.019h49.209C66.09 2 67 2.91 67 4.02v30.289c0 1.11-.908 2.018-2.02 2.018" fill="#FFF"/><path d="M64.98 36.327H15.773a2.025 2.025 0 01-2.018-2.018V4.019c0-1.11.909-2.019 2.018-2.019h49.209C66.09 2 67 2.91 67 4.02v30.289c0 1.11-.908 2.018-2.02 2.018z" stroke="#B5D0E7" stroke-width="2.2" stroke-linecap="round" stroke-linejoin="round"/><path d="M59.104 41.704H9.896a2.024 2.024 0 01-2.019-2.02V9.396c0-1.11.908-2.018 2.019-2.018h49.208c1.11 0 2.02.908 2.02 2.018v30.288c0 1.111-.91 2.02-2.02 2.02" fill="#FFF"/><path d="M59.104 41.704H9.896a2.024 2.024 0 01-2.019-2.02V9.396c0-1.11.908-2.018 2.019-2.018h49.208c1.11 0 2.02.908 2.02 2.018v30.288c0 1.111-.91 2.02-2.02 2.02z" stroke="#B5D0E7" stroke-width="2.2" stroke-linecap="round" stroke-linejoin="round"/><path d="M53.226 47.08H4.018A2.025 2.025 0 012 45.06V14.775c0-1.111.908-2.02 2.018-2.02h49.208c1.11 0 2.02.909 2.02 2.02v30.287c0 1.11-.91 2.02-2.02 2.02" fill="#FFF"/><path d="M53.226 47.08H4.018A2.025 2.025 0 012 45.06V14.775c0-1.111.908-2.02 2.018-2.02h49.208c1.11 0 2.02.909 2.02 2.02v30.287c0 1.11-.91 2.02-2.02 2.02z" stroke="#B5D0E7" stroke-width="2.2" stroke-linecap="round" stroke-linejoin="round"/><g transform="translate(43.073 34.161)"><mask id="b" fill="#fff"><use xlink:href="#a"/></mask><path d="M10.63 0c6.922 0 10.402 3.705 10.402 3.705s.4 2.74.145 8.26c-.384 8.34-10.547 13.35-10.547 13.35S.47 20.304.084 11.964c-.253-5.52.145-8.26.145-8.26S3.706 0 10.63 0" fill="#EE3D3A" mask="url(#b)"/></g><path d="M48.507 45.123c0-2.948 2.33-5.347 5.196-5.347 2.868 0 5.2 2.333 5.2 5.2 0 2.29-1.968 4.173-3.484 5.141.589.336 1.888.689 3.13.802a7.507 7.507 0 002.923-5.942c0-4.284-3.485-7.77-7.769-7.77-4.284 0-7.769 3.486-7.769 7.77 0 2.587 1.077 4.886 3.115 6.646 1.906 1.646 4.694 2.746 7.866 3.266.689-.38 1.865-1.501 2.305-2.16-2.651-.338-5.158-.985-6.84-1.867-2.57-1.348-3.873-3.278-3.873-5.739M7.45 28.081h17.92v-8.916H7.45z" fill="#FFF"/><path stroke="#B5D0E7" stroke-width="2.2" stroke-linecap="round" stroke-linejoin="round" d="M7.45 28.081h17.92v-8.916H7.45z"/><path fill="#FFF" d="M30.54 28.081H48.46v-8.916H30.54z"/><path stroke="#B5D0E7" stroke-width="2.2" stroke-linecap="round" stroke-linejoin="round" d="M30.54 28.081H48.46v-8.916H30.54z"/><path fill="#FFF" d="M7.45 32.75h21.173"/><path stroke="#B5D0E7" stroke-width="2.2" stroke-linecap="round" stroke-linejoin="round" d="M7.45 32.75h21.173"/><path fill="#FFF" d="M7.45 36.796h32.049"/><path stroke="#B5D0E7" stroke-width="2.2" stroke-linecap="round" stroke-linejoin="round" d="M7.45 36.796h32.049"/><g><path fill="#FFF" d="M7.45 40.843h26.482"/><path stroke="#B5D0E7" stroke-width="2.2" stroke-linecap="round" stroke-linejoin="round" d="M7.45 40.843h26.482"/></g></g></svg>