<?xml version="1.0" encoding="utf-8"?>
<!-- Generator: Adobe Illustrator 23.0.4, SVG Export Plug-In . SVG Version: 6.00 Build 0)  -->
<svg version="1.1" id="Layer_1" xmlns="http://www.w3.org/2000/svg" xmlns:xlink="http://www.w3.org/1999/xlink" x="0px" y="0px"
	 viewBox="0 0 64 64" style="enable-background:new 0 0 64 64;" xml:space="preserve">
<style type="text/css">
	.st0{fill:none;stroke:#B5D0E7;stroke-width:2;stroke-linecap:round;stroke-linejoin:round;}
	.st1{fill:#ED2E26;}
	.st2{fill:#FFFFFF;}
	.st3{fill:none;stroke:#FFFFFF;stroke-width:1.5;stroke-linecap:round;stroke-linejoin:round;}
</style>
<g>
	<path id="Stroke-3_17_" class="st0" d="M36.3,8.4l-6.4,6.4"/>
	<path id="Stroke-5_19_" class="st0" d="M36.3,8.4l-6.4-6.4"/>
	<g>
		<path id="Stroke-1_20_" class="st0" d="M47.5,13.3c6.9,4.9,11.4,12.9,11.4,22c0,14.8-12,26.8-26.8,26.8c-14.8,0-26.8-12-26.8-26.8
			S17.2,8.4,32,8.4h3.4"/>
		<path id="Fill-7_14_" class="st1" d="M32.1,19.1L32.1,19.1c8.9,0.1,16.1,7.4,16,16.3l0,0c-0.1,8.9-7.4,16.1-16.3,16l0,0
			c-8.9-0.1-16.1-7.4-16-16.3l0,0C15.9,26.2,23.2,19,32.1,19.1"/>
		<path id="Fill-9_7_" class="st2" d="M32,26.5c-7.4,0-10.5,7.8-10.6,8.1c-0.1,0.3-0.1,0.7,0,1c0.8,2.8,4.1,8.2,10.7,8.2
			s9.9-5.4,10.7-8.2c0.1-0.3,0.1-0.7,0-1C42.5,34.3,39.4,26.5,32,26.5 M32,28.1c6.4,0,9.1,7.1,9.1,7.1s-2,7.1-9.1,7.1
			s-9.1-7.1-9.1-7.1S25.6,28.1,32,28.1"/>
		<path id="Stroke-11_9_" class="st3" d="M28,35.2c0-2.2,1.8-4,4-4s4,1.8,4,4c0,2.2-1.8,4-4,4S28,37.4,28,35.2z"/>
	</g>
</g>
</svg>
