<svg xmlns="http://www.w3.org/2000/svg" width="62" height="62" viewBox="0 0 62 62"><g fill="none" fill-rule="evenodd"><path fill="#FEFEFE" d="M1 60.926L50.94 61 51 11.073 1.062 11"/><path stroke="#B5D0E7" stroke-width="2" d="M1.06 11l49.94.074L50.938 61 1 60.926z" stroke-linecap="round" stroke-linejoin="round"/><path fill="#FEFEFE" d="M7.06 7L57 7.074 56.938 57 7 56.926"/><path stroke="#B5D0E7" stroke-width="2" d="M6.06 6L56 6.074 55.938 56 6 55.926z" stroke-linecap="round" stroke-linejoin="round"/><path fill="#FEFEFE" d="M10.934.893l50.02.074-.06 49.926-50.021-.073"/><path stroke="#B5D0E7" stroke-width="2" d="M11.06 1L61 1.074 60.94 51 11 50.927zM61 14H11" stroke-linecap="round" stroke-linejoin="round"/><path fill="#B5D0E7" d="M16 7.498a1.5 1.5 0 113 .004 1.5 1.5 0 01-3-.004m7 0a1.5 1.5 0 113 .004 1.5 1.5 0 01-3-.004m7 0a1.5 1.5 0 113 .004 1.5 1.5 0 01-3-.004"/><path fill="#68CC61" d="M19.976 42.722h7V31.064h-7m13 11.776h7V21.011h-7m13 21.829h7V25.905h-7"/></g></svg>