<svg xmlns="http://www.w3.org/2000/svg" width="58" height="61" viewBox="0 0 58 61"><g fill="none" fill-rule="evenodd"><path stroke="#B5D0E7" stroke-width="2" d="M16.326 51.71l-3.052-5.059-6.706-3.69 6.616-12.023 7.06 3.885 8.954-2.598m8.932 9.984l9.631 5.3-1.883 3.422-10.008-4.615m8.02 4.508l-1.639 2.979-8.682-3.306M40.06 54.067l-1.626 2.955-7.124-2.419m4.396 2.42l-1.489 2.702-8.11-2.502M37.67 34.823l7.06-3.885 6.616 12.023-5.925 3.26-7.29-4.012" stroke-linecap="round" stroke-linejoin="round"/><path fill="#FFF" d="M18.545 47.155l-4.79 5.072-2.823-2.737 4.791-5.072"/><path stroke="#B5D0E7" stroke-width="2" d="M18.545 47.155l-4.79 5.072-2.823-2.737 4.791-5.072z" stroke-linecap="round" stroke-linejoin="round"/><path fill="#FFF" d="M12.978 53.015l2.822 2.737 7.44-7.71-2.873-2.787"/><path stroke="#B5D0E7" stroke-width="2" d="M12.978 53.015l2.822 2.737 7.44-7.71-2.873-2.787zm3.531 2.006l2.822 2.737 5.504-5.675-2.822-2.737z" stroke-linecap="round" stroke-linejoin="round"/><path fill="#FFF" d="M19.92 57.143l2.822 2.737 4.325-4.459-2.822-2.737"/><path stroke="#B5D0E7" stroke-width="2" d="M19.92 57.143l2.822 2.737 4.325-4.459-2.822-2.737zm23.97-16.368l-4.209 1.98-12.726-3.96-8.723 3.96-2.01-3.654 12.975-6.875 8.473 2.597" stroke-linecap="round" stroke-linejoin="round"/><path fill="#FFF" d="M56.891 42.134l-5.122 2.67-7.75-14.872 5.122-2.669"/><path stroke="#B5D0E7" stroke-width="2" d="M56.891 42.134l-5.122 2.67-7.75-14.872 5.122-2.669z" stroke-linecap="round" stroke-linejoin="round"/><path fill="#FFF" d="M1 42.134l5.122 2.67 7.75-14.872-5.122-2.669"/><path stroke="#B5D0E7" stroke-width="2" d="M1 42.134l5.122 2.669 7.75-14.871-5.122-2.67z" stroke-linecap="round" stroke-linejoin="round"/><path fill="#68CC61" d="M27.94.783L14.01 24.911a1.567 1.567 0 001.357 2.351h27.86a1.567 1.567 0 001.358-2.351L30.655.783a1.567 1.567 0 00-2.714 0"/><path fill="#EE3D4A" d="M29.297 8.914v6.414"/><path stroke="#FFF" stroke-width="3" d="M29.297 8.914v6.414" stroke-linecap="round"/><path fill="#FFF" d="M30.797 20.571a1.5 1.5 0 11-3-.001 1.5 1.5 0 013 .001"/></g></svg>