<svg xmlns="http://www.w3.org/2000/svg" xmlns:xlink="http://www.w3.org/1999/xlink" width="50" height="61" viewBox="0 0 50 61"><defs><path id="a" d="M30.744 31H.674V.931h30.07V31z"/></defs><g fill="none" fill-rule="evenodd"><path fill="#FEFEFE" d="M8.193 22.06h5.857v-5.857H8.193"/><path stroke="#B5D0E7" stroke-width="2" d="M8.193 22.06h5.857v-5.857H8.193z" stroke-linecap="round" stroke-linejoin="round"/><path fill="#FEFEFE" d="M8.193 35.023h5.857v-5.857H8.193"/><path stroke="#B5D0E7" stroke-width="2" d="M8.193 35.023h5.857v-5.857H8.193z" stroke-linecap="round" stroke-linejoin="round"/><path fill="#FEFEFE" d="M8.193 47.985h5.857v-5.857H8.193"/><path stroke="#B5D0E7" stroke-width="2" d="M8.193 47.985h5.857v-5.857H8.193z" stroke-linecap="round" stroke-linejoin="round"/><path stroke="#B5D0E7" stroke-width="2" d="M1 56h38.078V8.2H1zM32.597 19.13H21.255m11.342 12.963H21.255m11.342 12.963H21.255" stroke-linecap="round" stroke-linejoin="round"/><path fill="#FEFEFE" d="M27.146 4.96L24.02 1.832A2.843 2.843 0 0022.01 1h-4.752c-.754 0-1.477.3-2.01.833L12.122 4.96a4.69 4.69 0 00-4.69 4.69v.981h24.404v-.98c0-2.59-2.1-4.69-4.69-4.69z"/><path stroke="#B5D0E7" stroke-width="2" d="M27.146 4.96L24.02 1.832A2.843 2.843 0 0022.01 1h-4.752c-.754 0-1.477.3-2.01.833L12.122 4.96h0a4.69 4.69 0 00-4.69 4.69v.981h24.404v-.98c0-2.59-2.1-4.69-4.69-4.69h0z" stroke-linecap="round" stroke-linejoin="round"/><g transform="translate(19 29.287)"><mask id="b" fill="#fff"><use xlink:href="#a"/></mask><path fill="#68CC61" d="M15.73.931c8.304.012 15.026 6.753 15.014 15.056C30.732 24.29 23.99 31.012 15.688 31 7.385 30.988.663 24.247.675 15.944.687 7.641 7.428.92 15.73.931" mask="url(#b)"/></g><path stroke="#FEFEFE" stroke-width="2" d="M42.834 38.002h-16.25m16.25 7h-16.25m16.25 7h-16.25" stroke-linecap="round" stroke-linejoin="round"/><path fill="#FEFEFE" d="M36.353 38.002a2.233 2.233 0 114.467 0 2.233 2.233 0 01-4.467 0"/><path stroke="#FEFEFE" d="M36.353 38.002a2.233 2.233 0 114.467 0 2.233 2.233 0 01-4.467 0z" stroke-linecap="round" stroke-linejoin="round"/><path fill="#FEFEFE" d="M28.353 45.002a2.233 2.233 0 114.466 0 2.233 2.233 0 01-4.466 0"/><path stroke="#FEFEFE" d="M28.353 45.002a2.233 2.233 0 114.466 0 2.233 2.233 0 01-4.466 0z" stroke-linecap="round" stroke-linejoin="round"/><path fill="#FEFEFE" d="M34.12 52.002a2.233 2.233 0 114.467 0 2.233 2.233 0 01-4.467 0"/><path stroke="#FEFEFE" d="M34.12 52.002a2.233 2.233 0 114.467 0 2.233 2.233 0 01-4.467 0z" stroke-linecap="round" stroke-linejoin="round"/></g></svg>