<svg xmlns="http://www.w3.org/2000/svg" width="72" height="68" viewBox="0 0 72 68"><g fill="none" fill-rule="evenodd"><path stroke="#B5D0E7" stroke-linecap="round" stroke-linejoin="round" stroke-width="2" d="M24.333 66.296L44.11 30.86m.39.002l19.777 35.434"/><path fill="#FFF" d="M17.22 28c0-14.912 12.038-27 26.89-27C58.96 1 71 13.088 71 28c0 14.91-12.04 27-26.89 27-14.852 0-26.89-12.09-26.89-27"/><path stroke="#B5D0E7" stroke-linecap="round" stroke-linejoin="round" stroke-width="2" d="M17.22 28c0-14.912 12.038-27 26.89-27C58.96 1 71 13.088 71 28c0 14.91-12.04 27-26.89 27-14.852 0-26.89-12.09-26.89-27z"/><path fill="#FFF" d="M44.11 45.953c-9.86 0-17.88-8.054-17.88-17.953 0-9.9 8.02-17.954 17.88-17.954S61.99 18.1 61.99 28s-8.02 17.953-17.88 17.953"/><path fill="#B5D0E7" d="M44.11 11.184c9.233 0 16.747 7.543 16.747 16.816 0 9.272-7.514 16.815-16.747 16.815-9.234 0-16.748-7.543-16.748-16.815 0-9.273 7.514-16.816 16.748-16.816m0-2.276c-10.503 0-19.015 8.548-19.015 19.092 0 10.544 8.512 19.09 19.015 19.09 10.5 0 19.014-8.546 19.014-19.09S54.61 8.908 44.11 8.908"/><path fill="#68CC61" d="M36.605 28c0-4.162 3.36-7.536 7.505-7.536s7.505 3.374 7.505 7.536c0 4.16-3.36 7.535-7.505 7.535S36.605 32.16 36.605 28"/><path stroke="#FFF" stroke-linecap="round" stroke-width="6" d="M44.11 28H3"/><path stroke="#68CC61" stroke-linecap="round" stroke-width="2" d="M44.11 28H3"/><path stroke="#68CC61" stroke-linecap="round" stroke-linejoin="round" stroke-width="2" d="M20.495 28l-6.855-6.884M11.36 28l-6.855-6.884m0 13.893l6.855-6.884m2.28 6.883l6.856-6.884"/></g></svg>