<svg xmlns="http://www.w3.org/2000/svg" width="40" height="72" viewBox="0 0 40 72"><g fill="none" fill-rule="evenodd"><path fill="#68CC61" d="M14.49.18c7.99.012 14.458 6.49 14.447 14.47-.01 7.982-6.497 14.443-14.49 14.43C6.458 29.07-.012 22.59 0 14.61.01 6.63 6.497.167 14.49.18"/><path fill="#FEFEFE" d="M10.565 43.838v-33.09h7.784v18.34h20.158v27.11l-4.39 7.573v6.916h-20.36v-7.512l-9.78-9.768v-21.13h6.188"/><path stroke="#B5D0E7" stroke-linecap="round" stroke-linejoin="round" stroke-width="2" d="M10.565 43.838v-33.09h7.784v18.34h20.158v27.11l-4.39 7.573v6.916h-20.36v-7.512l-9.78-9.768v-21.13h6.188"/></g></svg>