<svg xmlns="http://www.w3.org/2000/svg" xmlns:xlink="http://www.w3.org/1999/xlink" width="99" height="68" viewBox="0 0 99 68"><defs><path id="a" d="M67.542 44.302V.224H.042v44.078h67.5z"/></defs><g fill="none" fill-rule="evenodd"><path stroke="#B5D0E7" stroke-linecap="round" stroke-linejoin="round" stroke-width="2" d="M26.663 1C34.13 12.47 37.8 25.897 36.358 39.947 35.35 49.764 31.928 58.902 26.663 67"/><path stroke="#B5D0E7" stroke-linejoin="round" stroke-width="2" d="M25.815 34.825H0"/><path stroke="#B5D0E7" stroke-linecap="round" stroke-linejoin="round" stroke-width="2" d="M13.73 46.96l12.085-12.134L13.73 22.692"/><path fill="#68CC61" d="M49.072 31.76h-.847v4.704h.782c1.107 0 2.017-.194 2.604-.58.587-.322.912-.967.912-1.805 0-1.548-1.172-2.32-3.45-2.32"/><g transform="translate(31 14.2)"><mask id="b" fill="#fff"><use xlink:href="#a"/></mask><path fill="#68CC61" d="M50.358 5.445c.782-.71 1.757-1.032 2.928-1.032 1.172 0 2.15.322 2.93 1.032.78.645 1.172 1.61 1.172 2.834 0 1.16-.392 2.126-1.172 2.77-.78.645-1.758 1.03-2.93 1.03-1.17 0-2.146-.32-2.928-1.03-.782-.644-1.172-1.61-1.172-2.77 0-1.225.39-2.126 1.172-2.835zM47.038 30.9c-1.042.257-1.172.32-2.213.512-1.042.193-2.212.324-3.58.324-1.89 0-3.58-.195-5.014-.644-1.495-.45-2.73-1.03-3.772-1.805-1.042-.774-1.823-1.74-2.343-2.836-.522-1.16-.782-2.383-.782-3.735 0-1.354.26-2.58.847-3.74.585-1.094 1.366-2.06 2.408-2.9 1.042-.772 2.277-1.415 3.708-1.866 1.434-.453 2.995-.646 4.69-.646 1.3 0 2.535.065 3.642.258 1.108.257 1.108.257 1.953.58v4.703c-.65-.386-1.43-.708-2.277-.903-.847-.257-1.757-.386-2.667-.386-1.563 0-2.8.45-3.776 1.225-.977.84-1.432 2-1.432 3.61 0 .773.13 1.48.455 2.126.325.58.717 1.096 1.237 1.482.52.388 1.106.71 1.823.902.717.193 1.432.322 2.213.322.782 0 1.627-.064 2.407-.257.782-.193 1.628-.386 2.475-.774v4.45zm-19.723-8.313c-.457.77-1.107 1.48-1.954 1.996-.844.515-1.885.903-3.057 1.16-1.172.257-2.473.386-3.97.386H17.29v5.282h-6.77v-17.59h7.943c2.993 0 5.337.516 7.03 1.48 1.692.968 2.538 2.514 2.538 4.513 0 1.03-.26 1.933-.715 2.772zm22.523 8.89V13.822h6.833V31.44l10.873-3.377L54.913.223.04 3.254l15.233 41.05L56.55 31.476h-6.712z" mask="url(#b)"/></g></g></svg>