<svg xmlns="http://www.w3.org/2000/svg" xmlns:xlink="http://www.w3.org/1999/xlink" width="119" height="96" viewBox="0 0 119 96">
  <defs>
    <polygon id="best-sans-logo-2-a" points="0 74.143 0 .135 118.282 .135 118.282 74.143 0 74.143"/>
  </defs>
  <g fill="none" fill-rule="evenodd" transform="translate(0 -4)">
    <g transform="translate(0 25.533)">
      <polygon fill="#1D567D" points="64.673 47.743 76.39 47.743 64.673 19.362"/>
      <path fill="#1D567D" d="M56.1102433,63.6882266 L58.0779121,63.6882266 C59.7135936,63.5172427 60.8315873,62.9324175 61.431135,61.9329942 C62.0291669,60.9328144 62.3285618,58.8968963 62.3285618,55.8244831 L62.3285618,49.6857094 L53.6718803,49.6857094 L56.1102433,63.6882266 Z"/>
      <polygon fill="#1D567D" points="40.428 19.802 35.702 47.743 45.008 47.743"/>
      <path fill="#1D567D" d="M105.20123,49.6858607 L94.0197777,49.6858607 C94.4919879,53.5451021 95.4038159,56.78169 96.7605675,59.3903284 C98.5925611,62.9144112 100.852045,64.6749395 103.539778,64.6749395 C104.932154,64.6749395 106.06758,64.1582052 106.946816,63.1217102 C107.826052,62.0859718 108.265669,60.7506334 108.265669,59.1164516 C108.265669,57.2144456 107.691892,54.9719849 106.54358,52.3868001 C106.178243,51.5644132 105.724224,50.6588041 105.20123,49.6858607"/>
      <mask id="best-sans-logo-2-b" fill="#fff">
        <use xlink:href="#best-sans-logo-2-a"/>
      </mask>
      <path fill="#1D567D" d="M110.519545,62.2984911 C108.82171,64.8829194 106.591787,66.1751335 103.832806,66.1751335 C102.293385,66.1751335 100.882818,65.8271133 99.6003471,65.1325861 C98.3178758,64.4380588 97.0293408,63.3349861 95.734742,61.8226113 L93.6829395,65.7726406 L92.1814172,65.7726406 L92.1814172,49.6857851 L85.3013981,49.6857851 L85.3013981,65.3338325 L83.6528312,65.3338325 L77.191965,49.6857851 L64.6734682,49.6857851 L64.6734682,55.3857507 C64.6734682,58.3371133 65.113086,60.4214517 65.9923217,61.640279 C66.8715573,62.8598628 68.4102197,63.5422851 70.6090669,63.6883022 L70.6090669,65.3338325 L58.5650541,65.3338325 L58.0776847,65.3338325 L43.7256783,65.3338325 L43.7256783,63.6883022 L47.6094745,63.6883022 L45.3757611,49.6857851 L35.2979013,49.6857851 L33.9798057,57.6902497 C33.9062834,58.1532679 33.8570159,58.5988851 33.8335191,59.0255881 C33.8085064,59.4522911 33.796379,59.8850467 33.796379,60.3238547 C33.796379,61.5184719 34.113965,62.3658255 34.7491369,62.8651588 C35.3843089,63.3652487 36.4712261,63.6391255 38.0098885,63.6883022 L38.0098885,65.3338325 L26.615449,65.3338325 L26.615449,63.6883022 C28.9113153,63.2494941 30.4749904,60.8716083 31.3049586,56.5561578 C31.3542261,56.2890901 31.3906083,56.0938962 31.4148631,55.9713325 L40.0988312,9.81704465 L46.7302389,9.81704465 L53.3336019,47.7429244 L62.3283344,47.7429244 L62.3283344,11.4633315 L58.7378694,11.4633315 L58.7378694,9.81704465 L69.4736401,9.81704465 L83.0661688,43.3904022 L83.0661688,18.5939628 C83.0661688,16.1071315 82.6568694,14.2974265 81.8390287,13.1633345 C81.0204299,12.0299992 79.6955127,11.4633315 77.8635191,11.4633315 L77.8635191,9.81704465 L89.5149076,9.81704465 L89.5149076,11.4633315 L89.2950987,11.4633315 C87.7564363,11.4633315 86.7059013,11.871877 86.1442516,12.6882113 C85.5826019,13.5053022 85.3013981,15.2295154 85.3013981,17.8631204 L85.3013981,47.7429244 L92.1814172,47.7429244 L92.1814172,45.4021103 L93.6829395,45.4021103 C93.713258,46.205583 93.7632834,46.982576 93.8246783,47.7429244 L104.110978,47.7429244 C103.170347,46.1329527 102.054627,44.35578 100.754723,42.403084 C97.4325764,37.4052113 95.2640478,33.4612345 94.2514108,30.5719103 C93.237258,27.6825861 92.7301815,24.6903689 92.7301815,21.5929891 C92.7301815,17.7897335 93.5002707,14.730182 95.0389331,12.413578 C96.5775955,10.0977305 98.5566338,8.93942848 100.974532,8.93942848 C102.170596,8.93942848 103.337857,9.27534364 104.473283,9.94490424 C105.60871,10.615978 106.617557,11.5488234 107.496793,12.742684 L109.14536,9.01205879 L110.64764,9.01205879 L110.64764,27.4450244 L109.14536,27.4450244 C108.729997,22.1543608 107.789366,18.0091376 106.324226,15.0101113 C104.858328,12.0110851 103.074844,10.5123285 100.974532,10.5123285 C99.6064108,10.5123285 98.5255573,10.9995568 97.7319713,11.9747699 C96.9376274,12.949983 96.5412134,14.2785123 96.5412134,15.9611143 C96.5412134,18.3511053 98.3368248,22.093079 101.92729,27.1893053 C103.270398,29.1397315 104.308806,30.6634547 105.040997,31.7604749 C108.094825,36.4178931 110.195137,40.2332537 111.343449,43.2080699 C112.491761,46.1828861 113.065538,49.1085255 113.065538,51.9849881 C113.065538,56.2769851 112.216621,59.7140628 110.519545,62.2984911 M18.0519968,66.1751335 C16.5133344,66.1751335 15.1027675,65.8271133 13.8202962,65.1325861 C12.5378248,64.4380588 11.2492898,63.3349861 9.95469108,61.8226113 L7.90288854,65.7726406 L6.40060828,65.7726406 L6.40060828,45.4021103 L7.90288854,45.4021103 C8.12269745,51.2049689 9.14897771,55.867683 10.9809713,59.3902527 C12.812965,62.9143356 15.0716911,64.6756204 17.7586656,64.6756204 C19.1510414,64.6756204 20.2872261,64.1581295 21.1664618,63.1216345 C22.0456975,62.0858962 22.4853153,60.7505578 22.4853153,59.116376 C22.4853153,57.2143699 21.9115382,54.9719093 20.7632261,52.3867244 C19.614914,49.8030527 17.6851433,46.475677 14.973914,42.403084 C11.6525255,37.4052113 9.48399682,33.4612345 8.47060191,30.5719103 C7.45644904,27.6825861 6.95013057,24.6903689 6.95013057,21.5929891 C6.95013057,17.7897335 7.71946178,14.730182 9.2581242,12.413578 C10.7975446,10.0977305 12.7758248,8.93942848 15.1937229,8.93942848 C16.3905446,8.93942848 17.5578057,9.27534364 18.6932325,9.94490424 C19.8294172,10.615978 20.8367484,11.5488234 21.7159841,12.742684 L23.3653089,9.01205879 L24.8668312,9.01205879 L24.8668312,27.4450244 L23.3653089,27.4450244 C22.9491879,22.1543608 22.0093153,18.0091376 20.5434172,15.0101113 C19.0775191,12.0110851 17.294793,10.5123285 15.1937229,10.5123285 C13.8263599,10.5123285 12.7447484,10.9995568 11.9519204,11.9747699 C11.1575764,12.949983 10.7611624,14.2785123 10.7611624,15.9611143 C10.7611624,18.3511053 12.5560159,22.093079 16.1464809,27.1893053 C17.4903471,29.1397315 18.5287548,30.6634547 19.2617038,31.7604749 C22.3140159,36.4178931 24.414328,40.2332537 25.5633981,43.2080699 C26.7109522,46.1828861 27.2854873,49.1085255 27.2854873,51.9849881 C27.2854873,56.2769851 26.4358121,59.7140628 24.7387357,62.2984911 C23.0409013,64.8829194 20.8117357,66.1751335 18.0519968,66.1751335 M115.24771,0.134517374 L3.03374204,0.134517374 C1.35788854,0.134517374 -0.000378980892,1.20808404 -0.000378980892,2.53131737 L-0.000378980892,71.746483 C-0.000378980892,73.0704729 1.35788854,74.143283 3.03374204,74.143283 L115.24771,74.143283 C116.923564,74.143283 118.281831,73.0704729 118.281831,71.746483 L118.281831,2.53131737 C118.281831,1.20808404 116.923564,0.134517374 115.24771,0.134517374" mask="url(#best-sans-logo-2-b)"/>
    </g>
    <path fill="#1D567D" d="M31.0557617,5.07128906 L33.6045898,5.07128906 C34.6299856,5.07128906 35.4180637,5.19286988 35.9688477,5.43603516 C36.5196317,5.67920043 36.9546859,6.05273186 37.2740234,6.55664062 C37.593361,7.06054939 37.7530273,7.62011411 37.7530273,8.23535156 C37.7530273,8.80957318 37.6124038,9.33251717 37.3311523,9.80419922 C37.0499009,10.2758813 36.6368191,10.6582017 36.0918945,10.9511719 C36.765726,11.1796886 37.2842755,11.4477524 37.6475586,11.7553711 C38.0108417,12.0629898 38.2935537,12.4350564 38.4957031,12.871582 C38.6978526,13.3081077 38.7989258,13.7812475 38.7989258,14.2910156 C38.7989258,15.3281302 38.419535,16.2055628 37.6607422,16.9233398 C36.9019493,17.6411169 35.8838931,18 34.606543,18 L31.0557617,18 L31.0557617,5.07128906 Z M32.3213867,6.33691406 L32.3213867,10.4765625 L33.059668,10.4765625 C33.9561568,10.4765625 34.6153299,10.3930672 35.037207,10.2260742 C35.4590841,10.0590812 35.7930652,9.79541196 36.0391602,9.43505859 C36.2852551,9.07470523 36.4083008,8.67480688 36.4083008,8.23535156 C36.4083008,7.64355173 36.2017599,7.1792009 35.7886719,6.84228516 C35.3755839,6.50536941 34.7178756,6.33691406 33.8155273,6.33691406 L32.3213867,6.33691406 Z M32.3213867,11.7773437 L32.3213867,16.734375 L33.9209961,16.734375 C34.8643602,16.734375 35.5557595,16.6420908 35.9952148,16.4575195 C36.4346702,16.2729483 36.787694,15.984377 37.0542969,15.5917969 C37.3208998,15.1992168 37.4541992,14.7744163 37.4541992,14.3173828 C37.4541992,13.7431612 37.2667011,13.2421896 36.8916992,12.8144531 C36.5166973,12.3867166 36.0010775,12.0937508 35.3448242,11.9355469 C34.9053689,11.8300776 34.1407281,11.7773437 33.0508789,11.7773437 L32.3213867,11.7773437 Z M41.365332,5.07128906 L48.7745117,5.07128906 L48.7745117,6.34570312 L42.6573242,6.34570312 L42.6573242,10.3886719 L48.7217773,10.3886719 L48.7217773,11.6542969 L42.6573242,11.6542969 L42.6573242,16.7255859 L48.7217773,16.7255859 L48.7217773,18 L41.365332,18 L41.365332,5.07128906 Z M49.6709961,15.5917969 L50.7696289,14.9326172 C51.5430703,16.3564524 52.436616,17.0683594 53.450293,17.0683594 C53.8838889,17.0683594 54.2911114,16.9672862 54.6719727,16.7651367 C55.0528339,16.5629873 55.3428701,16.2919939 55.5420898,15.9521484 C55.7413096,15.612303 55.840918,15.251955 55.840918,14.8710938 C55.840918,14.4374978 55.6944351,14.0126974 55.4014648,13.5966797 C54.9971659,13.0224581 54.2588921,12.3310587 53.1866211,11.5224609 C52.1084907,10.7080037 51.437599,10.1191424 51.1739258,9.75585938 C50.7168922,9.14648133 50.4883789,8.48730823 50.4883789,7.77832031 C50.4883789,7.2158175 50.6231432,6.70312731 50.8926758,6.24023438 C51.1622084,5.77734144 51.5415991,5.41259899 52.0308594,5.14599609 C52.5201196,4.8793932 53.0518526,4.74609375 53.6260742,4.74609375 C54.2354523,4.74609375 54.8052708,4.89697115 55.3355469,5.19873047 C55.865823,5.50048979 56.4268525,6.05566002 57.0186523,6.86425781 L55.9639648,7.6640625 C55.4776343,7.01952803 55.0630877,6.59472759 54.7203125,6.38964844 C54.3775373,6.18456929 54.0040059,6.08203125 53.599707,6.08203125 C53.07822,6.08203125 52.6519548,6.24023279 52.3208984,6.55664062 C51.9898421,6.87304846 51.8243164,7.262693 51.8243164,7.72558594 C51.8243164,8.00683734 51.8829096,8.27929556 52.0000977,8.54296875 C52.1172857,8.80664194 52.3311508,9.09374845 52.6416992,9.40429688 C52.8116219,9.5683602 53.368257,9.99901995 54.3116211,10.6962891 C55.4307673,11.5224651 56.1983378,12.2578093 56.6143555,12.9023438 C57.0303732,13.5468782 57.2383789,14.1943327 57.2383789,14.8447266 C57.2383789,15.7822312 56.8824254,16.5966762 56.1705078,17.2880859 C55.4585902,17.9794956 54.5928762,18.3251953 53.5733398,18.3251953 C52.7881797,18.3251953 52.0762727,18.1157248 51.4375977,17.6967773 C50.7989226,17.2778299 50.2100613,16.5761768 49.6709961,15.5917969 Z M58.6885742,6.328125 L58.6885742,5.07128906 L65.7813477,5.07128906 L65.7813477,6.328125 L62.8985352,6.328125 L62.8985352,18 L61.5801758,18 L61.5801758,6.328125 L58.6885742,6.328125 Z M76.943457,8.19140625 C78.4141675,8.19140625 79.6329053,8.72460404 80.599707,9.79101562 C81.4786177,10.7636767 81.9180664,11.9150324 81.9180664,13.2451172 C81.9180664,14.5810614 81.4537156,15.7485302 80.525,16.7475586 C79.5962844,17.746587 78.4024487,18.2460937 76.943457,18.2460937 C75.478606,18.2460937 74.2818406,17.746587 73.353125,16.7475586 C72.4244094,15.7485302 71.9600586,14.5810614 71.9600586,13.2451172 C71.9600586,11.9208918 72.3995073,10.7724658 73.278418,9.79980469 C74.2452197,8.7275337 75.4668871,8.19140625 76.943457,8.19140625 Z M76.943457,9.39550781 C75.9239207,9.39550781 75.0479529,9.77343372 74.3155273,10.5292969 C73.5831018,11.28516 73.2168945,12.1992134 73.2168945,13.2714844 C73.2168945,13.9628941 73.383885,14.6074189 73.7178711,15.2050781 C74.0518571,15.8027374 74.5030245,16.2641585 75.0713867,16.5893555 C75.6397489,16.9145524 76.2637661,17.0771484 76.943457,17.0771484 C77.6231479,17.0771484 78.2471651,16.9145524 78.8155273,16.5893555 C79.3838896,16.2641585 79.8350569,15.8027374 80.169043,15.2050781 C80.503029,14.6074189 80.6700195,13.9628941 80.6700195,13.2714844 C80.6700195,12.1992134 80.3023474,11.28516 79.5669922,10.5292969 C78.8316369,9.77343372 77.957134,9.39550781 76.943457,9.39550781 Z M88.1407227,4.74609375 L88.1407227,5.95019531 C87.6895485,5.75683497 87.3028336,5.66015625 86.9805664,5.66015625 C86.7403308,5.66015625 86.5411141,5.70849561 86.3829102,5.80517578 C86.2247062,5.90185595 86.1250979,6.01318296 86.084082,6.13916016 C86.0430662,6.26513735 86.0225586,6.60058321 86.0225586,7.14550781 L86.0225586,8.4375 L88.0176758,8.4375 L88.0176758,9.4921875 L86.0137695,9.4921875 L86.0137695,18 L84.7833008,18 L84.7833008,9.4921875 L83.5264648,9.4921875 L83.5264648,8.4375 L84.7833008,8.4375 L84.7833008,6.94335938 C84.7833008,6.25780907 84.8462884,5.76855615 84.9722656,5.47558594 C85.0982428,5.18261572 85.3121079,4.94677824 85.6138672,4.76806641 C85.9156265,4.58935458 86.280369,4.5 86.7081055,4.5 C87.106545,4.5 87.5840792,4.58203043 88.1407227,4.74609375 Z"/>
  </g>
</svg>
