<svg xmlns="http://www.w3.org/2000/svg" xmlns:xlink="http://www.w3.org/1999/xlink" width="119" height="96" viewBox="0 0 119 96">
  <defs>
    <polygon id="best-sans-logo-a" points="0 74.143 0 .135 118.282 .135 118.282 74.143 0 74.143"/>
  </defs>
  <g fill="none" fill-rule="evenodd">
    <g transform="translate(0 21.533)">
      <polygon fill="#627281" fill-rule="nonzero" points="64.673 47.743 76.39 47.743 64.673 19.362"/>
      <path fill="#627281" fill-rule="nonzero" d="M56.1102433,63.6882266 L58.0779121,63.6882266 C59.7135936,63.5172427 60.8315873,62.9324175 61.431135,61.9329942 C62.0291669,60.9328144 62.3285618,58.8968963 62.3285618,55.8244831 L62.3285618,49.6857094 L53.6718803,49.6857094 L56.1102433,63.6882266 Z"/>
      <polygon fill="#627281" fill-rule="nonzero" points="40.428 19.802 35.702 47.743 45.008 47.743"/>
      <path fill="#627281" fill-rule="nonzero" d="M105.20123,49.6858607 L94.0197777,49.6858607 C94.4919879,53.5451021 95.4038159,56.78169 96.7605675,59.3903284 C98.5925611,62.9144112 100.852045,64.6749395 103.539778,64.6749395 C104.932154,64.6749395 106.06758,64.1582052 106.946816,63.1217102 C107.826052,62.0859718 108.265669,60.7506334 108.265669,59.1164516 C108.265669,57.2144456 107.691892,54.9719849 106.54358,52.3868001 C106.178243,51.5644132 105.724224,50.6588041 105.20123,49.6858607"/>
      <mask id="best-sans-logo-b" fill="#fff">
        <use xlink:href="#best-sans-logo-a"/>
      </mask>
      <path fill="#627281" fill-rule="nonzero" d="M110.519545,62.2984911 C108.82171,64.8829194 106.591787,66.1751335 103.832806,66.1751335 C102.293385,66.1751335 100.882818,65.8271133 99.6003471,65.1325861 C98.3178758,64.4380588 97.0293408,63.3349861 95.734742,61.8226113 L93.6829395,65.7726406 L92.1814172,65.7726406 L92.1814172,49.6857851 L85.3013981,49.6857851 L85.3013981,65.3338325 L83.6528312,65.3338325 L77.191965,49.6857851 L64.6734682,49.6857851 L64.6734682,55.3857507 C64.6734682,58.3371133 65.113086,60.4214517 65.9923217,61.640279 C66.8715573,62.8598628 68.4102197,63.5422851 70.6090669,63.6883022 L70.6090669,65.3338325 L58.5650541,65.3338325 L58.0776847,65.3338325 L43.7256783,65.3338325 L43.7256783,63.6883022 L47.6094745,63.6883022 L45.3757611,49.6857851 L35.2979013,49.6857851 L33.9798057,57.6902497 C33.9062834,58.1532679 33.8570159,58.5988851 33.8335191,59.0255881 C33.8085064,59.4522911 33.796379,59.8850467 33.796379,60.3238547 C33.796379,61.5184719 34.113965,62.3658255 34.7491369,62.8651588 C35.3843089,63.3652487 36.4712261,63.6391255 38.0098885,63.6883022 L38.0098885,65.3338325 L26.615449,65.3338325 L26.615449,63.6883022 C28.9113153,63.2494941 30.4749904,60.8716083 31.3049586,56.5561578 C31.3542261,56.2890901 31.3906083,56.0938962 31.4148631,55.9713325 L40.0988312,9.81704465 L46.7302389,9.81704465 L53.3336019,47.7429244 L62.3283344,47.7429244 L62.3283344,11.4633315 L58.7378694,11.4633315 L58.7378694,9.81704465 L69.4736401,9.81704465 L83.0661688,43.3904022 L83.0661688,18.5939628 C83.0661688,16.1071315 82.6568694,14.2974265 81.8390287,13.1633345 C81.0204299,12.0299992 79.6955127,11.4633315 77.8635191,11.4633315 L77.8635191,9.81704465 L89.5149076,9.81704465 L89.5149076,11.4633315 L89.2950987,11.4633315 C87.7564363,11.4633315 86.7059013,11.871877 86.1442516,12.6882113 C85.5826019,13.5053022 85.3013981,15.2295154 85.3013981,17.8631204 L85.3013981,47.7429244 L92.1814172,47.7429244 L92.1814172,45.4021103 L93.6829395,45.4021103 C93.713258,46.205583 93.7632834,46.982576 93.8246783,47.7429244 L104.110978,47.7429244 C103.170347,46.1329527 102.054627,44.35578 100.754723,42.403084 C97.4325764,37.4052113 95.2640478,33.4612345 94.2514108,30.5719103 C93.237258,27.6825861 92.7301815,24.6903689 92.7301815,21.5929891 C92.7301815,17.7897335 93.5002707,14.730182 95.0389331,12.413578 C96.5775955,10.0977305 98.5566338,8.93942848 100.974532,8.93942848 C102.170596,8.93942848 103.337857,9.27534364 104.473283,9.94490424 C105.60871,10.615978 106.617557,11.5488234 107.496793,12.742684 L109.14536,9.01205879 L110.64764,9.01205879 L110.64764,27.4450244 L109.14536,27.4450244 C108.729997,22.1543608 107.789366,18.0091376 106.324226,15.0101113 C104.858328,12.0110851 103.074844,10.5123285 100.974532,10.5123285 C99.6064108,10.5123285 98.5255573,10.9995568 97.7319713,11.9747699 C96.9376274,12.949983 96.5412134,14.2785123 96.5412134,15.9611143 C96.5412134,18.3511053 98.3368248,22.093079 101.92729,27.1893053 C103.270398,29.1397315 104.308806,30.6634547 105.040997,31.7604749 C108.094825,36.4178931 110.195137,40.2332537 111.343449,43.2080699 C112.491761,46.1828861 113.065538,49.1085255 113.065538,51.9849881 C113.065538,56.2769851 112.216621,59.7140628 110.519545,62.2984911 M18.0519968,66.1751335 C16.5133344,66.1751335 15.1027675,65.8271133 13.8202962,65.1325861 C12.5378248,64.4380588 11.2492898,63.3349861 9.95469108,61.8226113 L7.90288854,65.7726406 L6.40060828,65.7726406 L6.40060828,45.4021103 L7.90288854,45.4021103 C8.12269745,51.2049689 9.14897771,55.867683 10.9809713,59.3902527 C12.812965,62.9143356 15.0716911,64.6756204 17.7586656,64.6756204 C19.1510414,64.6756204 20.2872261,64.1581295 21.1664618,63.1216345 C22.0456975,62.0858962 22.4853153,60.7505578 22.4853153,59.116376 C22.4853153,57.2143699 21.9115382,54.9719093 20.7632261,52.3867244 C19.614914,49.8030527 17.6851433,46.475677 14.973914,42.403084 C11.6525255,37.4052113 9.48399682,33.4612345 8.47060191,30.5719103 C7.45644904,27.6825861 6.95013057,24.6903689 6.95013057,21.5929891 C6.95013057,17.7897335 7.71946178,14.730182 9.2581242,12.413578 C10.7975446,10.0977305 12.7758248,8.93942848 15.1937229,8.93942848 C16.3905446,8.93942848 17.5578057,9.27534364 18.6932325,9.94490424 C19.8294172,10.615978 20.8367484,11.5488234 21.7159841,12.742684 L23.3653089,9.01205879 L24.8668312,9.01205879 L24.8668312,27.4450244 L23.3653089,27.4450244 C22.9491879,22.1543608 22.0093153,18.0091376 20.5434172,15.0101113 C19.0775191,12.0110851 17.294793,10.5123285 15.1937229,10.5123285 C13.8263599,10.5123285 12.7447484,10.9995568 11.9519204,11.9747699 C11.1575764,12.949983 10.7611624,14.2785123 10.7611624,15.9611143 C10.7611624,18.3511053 12.5560159,22.093079 16.1464809,27.1893053 C17.4903471,29.1397315 18.5287548,30.6634547 19.2617038,31.7604749 C22.3140159,36.4178931 24.414328,40.2332537 25.5633981,43.2080699 C26.7109522,46.1828861 27.2854873,49.1085255 27.2854873,51.9849881 C27.2854873,56.2769851 26.4358121,59.7140628 24.7387357,62.2984911 C23.0409013,64.8829194 20.8117357,66.1751335 18.0519968,66.1751335 M115.24771,0.134517374 L3.03374204,0.134517374 C1.35788854,0.134517374 -0.000378980892,1.20808404 -0.000378980892,2.53131737 L-0.000378980892,71.746483 C-0.000378980892,73.0704729 1.35788854,74.143283 3.03374204,74.143283 L115.24771,74.143283 C116.923564,74.143283 118.281831,73.0704729 118.281831,71.746483 L118.281831,2.53131737 C118.281831,1.20808404 116.923564,0.134517374 115.24771,0.134517374" mask="url(#best-sans-logo-b)"/>
    </g>
    <path fill="#6A778B" d="M0.0557617375,1.07128906 L2.60458986,1.07128906 C3.62998561,1.07128906 4.41806367,1.19286988 4.96884768,1.43603516 C5.51963168,1.67920043 5.95468592,2.05273186 6.27402346,2.55664062 C6.59336099,3.06054939 6.75302736,3.62011411 6.75302736,4.23535156 C6.75302736,4.80957318 6.61240377,5.33251717 6.33115236,5.80419922 C6.04990096,6.27588126 5.63681915,6.65820166 5.09189455,6.95117188 C5.76572604,7.17968864 6.28427555,7.44775237 6.64755861,7.75537109 C7.01084168,8.06298982 7.2935537,8.43505641 7.49570314,8.87158203 C7.69785259,9.30810765 7.7989258,9.78124745 7.7989258,10.2910156 C7.7989258,11.3281302 7.41953506,12.2055628 6.66074221,12.9233398 C5.90194935,13.6411169 4.88389312,14 3.60654299,14 L0.0557617375,14 L0.0557617375,1.07128906 Z M1.32138674,2.33691406 L1.32138674,6.4765625 L2.05966799,6.4765625 C2.95615684,6.4765625 3.61532994,6.39306724 4.03720705,6.22607422 C4.45908416,6.0590812 4.79306519,5.79541196 5.03916018,5.43505859 C5.28525516,5.07470523 5.4083008,4.67480688 5.4083008,4.23535156 C5.4083008,3.64355173 5.2017599,3.1792009 4.78867189,2.84228516 C4.37558389,2.50536941 3.71787562,2.33691406 2.81552736,2.33691406 L1.32138674,2.33691406 Z M1.32138674,7.77734375 L1.32138674,12.734375 L2.92099611,12.734375 C3.8643602,12.734375 4.55575954,12.6420908 4.99521486,12.4575195 C5.43467018,12.2729483 5.787694,11.984377 6.05429689,11.5917969 C6.32089979,11.1992168 6.45419924,10.7744163 6.45419924,10.3173828 C6.45419924,9.74316119 6.26670111,9.24218964 5.89169924,8.81445312 C5.51669736,8.38671661 5.00107752,8.09375079 4.34482424,7.93554687 C3.90536892,7.8300776 3.14072812,7.77734375 2.05087893,7.77734375 L1.32138674,7.77734375 Z M10.3653321,1.07128906 L17.7745117,1.07128906 L17.7745117,2.34570312 L11.6573242,2.34570312 L11.6573242,6.38867188 L17.7217774,6.38867188 L17.7217774,7.65429688 L11.6573242,7.65429688 L11.6573242,12.7255859 L17.7217774,12.7255859 L17.7217774,14 L10.3653321,14 L10.3653321,1.07128906 Z M18.6709961,11.5917969 L19.7696289,10.9326172 C20.5430703,12.3564524 21.436616,13.0683594 22.450293,13.0683594 C22.8838889,13.0683594 23.2911114,12.9672862 23.6719727,12.7651367 C24.052834,12.5629873 24.3428701,12.2919939 24.5420899,11.9521484 C24.7413096,11.612303 24.840918,11.251955 24.840918,10.8710938 C24.840918,10.4374978 24.6944351,10.0126974 24.4014649,9.59667969 C23.997166,9.02245807 23.2588921,8.33105873 22.1866211,7.52246094 C21.1084907,6.70800374 20.437599,6.11914244 20.1739258,5.75585938 C19.7168923,5.14648133 19.4883789,4.48730823 19.4883789,3.77832031 C19.4883789,3.2158175 19.6231432,2.70312731 19.8926758,2.24023438 C20.1622084,1.77734144 20.5415991,1.41259899 21.0308594,1.14599609 C21.5201197,0.879393198 22.0518526,0.74609375 22.6260742,0.74609375 C23.2354523,0.74609375 23.8052708,0.896971147 24.3355469,1.19873047 C24.865823,1.50048979 25.4268525,2.05566002 26.0186524,2.86425781 L24.9639649,3.6640625 C24.4776343,3.01952803 24.0630877,2.59472759 23.7203125,2.38964844 C23.3775374,2.18456929 23.0040059,2.08203125 22.599707,2.08203125 C22.0782201,2.08203125 21.6519548,2.24023279 21.3208985,2.55664062 C20.9898421,2.87304846 20.8243164,3.262693 20.8243164,3.72558594 C20.8243164,4.00683734 20.8829096,4.27929556 21.0000977,4.54296875 C21.1172858,4.80664194 21.3311508,5.09374845 21.6416992,5.40429688 C21.811622,5.5683602 22.368257,5.99901995 23.3116211,6.69628906 C24.4307673,7.52246507 25.1983378,8.25780928 25.6143555,8.90234375 C26.0303732,9.54687822 26.2383789,10.1943327 26.2383789,10.8447266 C26.2383789,11.7822312 25.8824255,12.5966762 25.1705078,13.2880859 C24.4585902,13.9794956 23.5928762,14.3251953 22.5733399,14.3251953 C21.7881797,14.3251953 21.0762727,14.1157248 20.4375977,13.6967773 C19.7989226,13.2778299 19.2100613,12.5761768 18.6709961,11.5917969 Z M27.6885742,2.328125 L27.6885742,1.07128906 L34.7813477,1.07128906 L34.7813477,2.328125 L31.8985352,2.328125 L31.8985352,14 L30.5801758,14 L30.5801758,2.328125 L27.6885742,2.328125 Z M45.943457,4.19140625 C47.4141675,4.19140625 48.6329053,4.72460404 49.599707,5.79101562 C50.4786177,6.76367674 50.9180664,7.91503241 50.9180664,9.24511719 C50.9180664,10.5810614 50.4537156,11.7485302 49.525,12.7475586 C48.5962844,13.746587 47.4024487,14.2460937 45.943457,14.2460937 C44.478606,14.2460937 43.2818406,13.746587 42.353125,12.7475586 C41.4244094,11.7485302 40.9600586,10.5810614 40.9600586,9.24511719 C40.9600586,7.92089182 41.3995073,6.7724658 42.278418,5.79980469 C43.2452197,4.7275337 44.4668872,4.19140625 45.943457,4.19140625 Z M45.943457,5.39550781 C44.9239207,5.39550781 44.0479529,5.77343372 43.3155274,6.52929688 C42.5831018,7.28516003 42.2168945,8.19921339 42.2168945,9.27148438 C42.2168945,9.96289408 42.3838851,10.6074189 42.7178711,11.2050781 C43.0518572,11.8027374 43.5030245,12.2641585 44.0713867,12.5893555 C44.639749,12.9145524 45.2637662,13.0771484 45.943457,13.0771484 C46.6231479,13.0771484 47.2471651,12.9145524 47.8155274,12.5893555 C48.3838896,12.2641585 48.8350569,11.8027374 49.169043,11.2050781 C49.503029,10.6074189 49.6700195,9.96289408 49.6700195,9.27148438 C49.6700195,8.19921339 49.3023474,7.28516003 48.5669922,6.52929688 C47.831637,5.77343372 46.957134,5.39550781 45.943457,5.39550781 Z M57.1407227,0.74609375 L57.1407227,1.95019531 C56.6895485,1.75683497 56.3028337,1.66015625 55.9805664,1.66015625 C55.7403308,1.66015625 55.5411141,1.70849561 55.3829102,1.80517578 C55.2247063,1.90185595 55.1250979,2.01318296 55.084082,2.13916016 C55.0430662,2.26513735 55.0225586,2.60058321 55.0225586,3.14550781 L55.0225586,4.4375 L57.0176758,4.4375 L57.0176758,5.4921875 L55.0137695,5.4921875 L55.0137695,14 L53.7833008,14 L53.7833008,5.4921875 L52.5264649,5.4921875 L52.5264649,4.4375 L53.7833008,4.4375 L53.7833008,2.94335938 C53.7833008,2.25780907 53.8462885,1.76855615 53.9722656,1.47558594 C54.0982428,1.18261572 54.3121079,0.946778237 54.6138672,0.768066406 C54.9156265,0.589354575 55.280369,0.5 55.7081055,0.5 C56.106545,0.5 56.5840793,0.58203043 57.1407227,0.74609375 Z" transform="translate(31)"/>
  </g>
</svg>
