<svg xmlns="http://www.w3.org/2000/svg" xmlns:xlink="http://www.w3.org/1999/xlink" width="193" height="62" viewBox="0 0 193 62">
  <defs>
    <polygon id="frost-sullivan-logo-2-a" points="15.478 14.595 15.478 .582 .022 .582 .022 14.595 15.478 14.595"/>
  </defs>
  <g fill="none" fill-rule="evenodd">
    <path fill="#0F3053" d="M8.47139595 7.15703145L8.47139595 7.75355975C9.66069324 7.75355975 10.5526662 8.0518239 10.5526662 9.24226415L10.5526662 19.0849811C10.5526662 19.9797736 9.66069324 20.2780377 8.47139595 20.2780377L8.47139595 20.874566 11.7419635 20.874566 15.3098554 20.874566 15.3098554 20.2780377 14.7152068 20.2780377C13.5233014 20.2780377 12.9286527 19.9797736 12.9286527 18.4884528L12.9286527 14.3127547 15.6045716 14.3127547C17.0911932 14.3127547 17.3885176 14.3127547 17.3885176 16.1023396L18.2804905 16.1023396 18.2804905 13.7162264 18.2804905 11.6283774 17.3885176 11.6283774C17.3885176 13.4179623 16.7938689 13.4179623 15.6045716 13.4179623L12.9286527 13.4179623 12.9286527 8.0518239 15.9045041 8.0518239C18.2804905 8.0518239 18.8751392 8.35008805 19.1724635 10.139673L19.7671122 10.139673 19.7671122 7.15703145 13.8232338 7.15703145 8.47139595 7.15703145zM39.6834081 13.4182239L38.4941108 13.4182239 38.4941108 8.05208553C38.7914351 8.05208553 39.6834081 7.75120503 39.9807324 7.75120503 42.0620027 7.75120503 43.2513 8.64861384 43.2513 10.4355824 43.2513 12.5234314 42.0620027 13.4182239 39.6834081 13.4182239M42.6566514 13.7164881C44.7353135 13.1199597 45.6298946 12.2251673 45.6298946 10.4355824 45.6298946 8.35034969 43.8459486 7.15729308 41.4673541 7.15729308L37.3048135 7.15729308 34.0368541 7.15729308 34.0368541 7.75120503C35.5208676 7.75120503 36.1155162 8.05208553 36.1155162 9.24252579L36.1155162 19.0852428C36.1155162 19.9800352 35.5208676 20.2782994 34.0368541 20.2782994L34.0368541 20.8748277 37.3048135 20.8748277 40.5753811 20.8748277 40.5753811 20.2782994C39.3860838 20.2782994 38.4941108 19.9800352 38.4941108 19.0852428L38.4941108 14.3130164 39.6834081 14.3130164 40.5753811 14.3130164C42.0620027 16.6991296 43.5486243 19.6817711 44.7353135 20.8748277L46.5218676 20.8748277 48.3032054 20.8748277 48.3032054 20.2782994C46.5218676 19.6817711 45.6298946 19.0852428 42.6566514 13.7164881M70.3018149 20.2772528C67.3285716 20.2772528 65.2499095 17.5928755 65.2499095 13.7180579 65.2499095 10.7354164 66.4365986 7.75277484 70.0044905 7.75277484 72.6804095 7.75277484 75.0563959 10.4371522 75.0563959 14.3119698 75.0563959 17.2946113 73.8697068 20.2772528 70.3018149 20.2772528M70.3018149 6.85798239C66.1392743 6.85798239 62.2740581 9.54235975 62.2740581 14.0137057 62.2740581 18.1894038 65.5446257 21.1720453 70.0044905 21.1720453 74.7590716 21.1720453 77.7323149 17.2946113 77.7323149 14.0137057 77.7323149 9.8406239 74.7590716 6.85798239 70.3018149 6.85798239M98.541627 13.120483C95.8657081 11.6291623 95.5683838 11.032634 95.5683838 9.83957736 95.5683838 8.64913711 96.4603568 7.45346415 97.9443703 7.45346415 99.7283162 7.45346415 100.325573 8.64913711 100.622897 9.83957736L101.214938 9.83957736 101.214938 7.15781635C100.025641 7.15781635 98.8363432 6.85693585 97.6496541 6.85693585 95.2710595 6.85693585 93.7844378 8.64913711 93.7844378 10.4361057 93.7844378 12.5239547 94.3790865 13.7170113 97.6496541 15.2083321 99.4336 16.4013887 100.025641 16.9953006 100.025641 18.1883572 100.025641 19.085766 99.7283162 20.5770868 97.3523297 20.5770868 95.2710595 20.5770868 94.3790865 19.3840302 94.0817622 17.5918289L93.1897892 17.5918289 93.7844378 20.5770868C94.6764108 20.8727346 95.8657081 21.1709987 97.3523297 21.1709987 100.025641 21.1709987 102.106911 19.679678 102.106911 17.2961811 102.106911 15.5065962 101.51487 14.3135396 98.541627 13.120483M119.645916 20.2772528L119.645916 20.8737811 122.916484 20.8737811 126.481768 20.8737811 126.481768 20.2772528C124.997754 20.2772528 124.105781 19.9789887 124.105781 19.0841962L124.105781 8.05103899 127.079024 8.05103899C128.268322 8.05103899 128.563038 8.34930314 128.563038 10.1388881L129.457619 10.1388881 129.752335 6.55971824 129.157686 6.55971824C128.563038 7.15624654 128.268322 7.15624654 127.671065 7.15624654L118.753943 7.15624654C118.159295 7.15624654 117.564646 7.15624654 117.564646 6.55971824L116.972605 6.55971824 116.375349 10.1388881 117.267322 10.1388881C117.564646 8.34930314 117.86197 8.05103899 119.645916 8.05103899L121.727186 8.05103899 121.727186 19.0841962C121.727186 19.9789887 121.132538 20.2772528 119.645916 20.2772528M162.154949 14.0147522C161.857624 13.7164881 161.857624 13.4182239 161.857624 13.1199597 161.857624 10.4355824 163.638962 7.45555723 166.017557 7.45555723 166.612205 7.45555723 167.206854 7.75120503 167.206854 8.05208553L167.206854 8.64861384 164.530935 11.3329912C163.638962 12.2251673 163.046922 13.1199597 162.154949 14.0147522M179.989192 11.628639C181.77053 11.628639 183.8518 9.83905409 183.8518 8.05208553 183.8518 7.45555723 183.557084 6.56076478 182.662503 6.56076478 182.367786 6.56076478 181.77053 7.15729308 181.77053 7.45555723 181.77053 8.34773333 182.662503 8.64861384 182.662503 9.24252579 182.662503 9.83905409 182.070462 10.4355824 181.475814 10.4355824 179.694476 10.4355824 179.097219 6.85902893 176.123976 6.85902893 174.045314 6.85902893 171.07207 8.94687799 171.07207 11.3329912 171.07207 12.8216956 172.261368 13.4182239 172.856016 13.4182239 173.448057 13.4182239 174.342638 13.1199597 174.342638 12.2251673 174.342638 10.7364629 172.556084 11.9269031 172.556084 10.1399346 172.556084 8.94687799 173.448057 8.34773333 174.342638 8.34773333 175.234611 8.34773333 176.718624 8.94687799 177.015949 9.54340629 176.718624 11.9269031 176.423908 14.3130164 174.637354 16.1026013 173.448057 17.593922 171.07207 19.3835069 167.801503 19.3835069 166.314881 19.3835069 164.828259 18.7869786 163.638962 17.593922 163.341638 16.9973937 162.749597 16.4008654 162.749597 15.506073 162.749597 14.6112805 163.046922 14.0147522 163.638962 13.4182239L165.128192 11.628639 166.314881 10.4355824 171.964043 5.06944403C172.856016 4.17465157 174.637354 2.38506667 174.637354 1.49027421 174.637354.595481761 174.045314.00156981132 173.448057.00156981132 172.856016.00156981132 172.556084.595481761 172.556084 1.19201006L172.556084 2.38506667C172.556084 3.57812327 170.180097 5.66597233 169.585449 6.56076478 168.9908 5.96423648 168.396151 5.66597233 167.801503 5.66597233 163.938895 5.66597233 160.368395 10.4355824 160.368395 14.0147522 160.368395 18.4887145 163.341638 21.471356 167.504178 21.471356 172.556084 21.471356 174.934678 18.1904503 176.123976 16.1026013 177.313273 14.0147522 177.610597 11.9269031 177.610597 10.1399346 178.205246 10.7364629 179.097219 11.628639 179.989192 11.628639M5.35001216 53.6739421C2.67670135 52.1826214 2.0820527 51.5860931 2.0820527 50.3930365 2.0820527 49.2025962 3.26874189 48.0069233 4.45803919 48.0069233 6.53930946 48.0069233 7.13395811 49.2025962 7.43128243 50.3930365L8.02593108 50.3930365 7.72860676 47.7112755C6.83663378 47.7112755 5.35001216 47.410395 4.45803919 47.410395 2.0820527 47.410395.298106757 49.2025962.298106757 50.9895648.298106757 53.0774138 1.18747162 54.2704704 4.16071486 55.7617912 5.94726892 56.9548478 6.83663378 57.5487597 6.83663378 58.7418164 6.83663378 59.6392252 6.24198514 61.1305459 4.16071486 61.1305459 2.0820527 61.1305459 1.18747162 59.9374893.595431081 58.1452881L.000782432432 58.1452881.298106757 61.1305459C1.48740405 61.4261937 2.67670135 61.7244579 3.86339054 61.7244579 6.83663378 61.7244579 8.91790405 60.2331371 8.91790405 57.8496403 8.91790405 56.0600553 8.32325541 54.8669987 5.35001216 53.6739421M32.698373 47.7104906L32.698373 48.3070189C34.7796432 48.3070189 35.0769676 48.605283 35.0769676 51.5853082L35.0769676 54.8662138C35.0769676 57.5505912 35.0769676 60.5332327 31.2117514 60.5332327 28.8331568 60.5332327 27.3491432 59.6384403 27.3491432 56.9540629L27.3491432 49.5000755C27.3491432 48.3070189 28.2411162 48.3070189 29.1304811 48.3070189L29.1304811 47.7104906 26.1598459 47.7104906 22.8892784 47.7104906 22.8892784 48.3070189C23.7812514 48.3070189 24.9705486 48.3070189 24.9705486 49.5000755L24.9705486 57.252327C24.9705486 60.5332327 27.0492108 61.723673 30.6171027 61.723673 34.7796432 61.723673 36.2662649 59.3401761 36.2662649 56.0592704L36.2662649 50.3922516C36.2662649 48.605283 36.8609135 48.3070189 38.0502108 48.3070189L38.0502108 47.7104906 35.6716162 47.7104906 32.698373 47.7104906zM59.1537176 60.5329711C57.0750554 60.5329711 56.4777986 60.2347069 56.4777986 59.0416503L56.4777986 49.7954616C56.4777986 48.6050214 57.3697716 48.3067572 58.5590689 48.3067572L58.5590689 47.7102289 55.2911095 47.7102289 52.0205419 47.7102289 52.0205419 48.3067572C53.5071635 48.3067572 54.1018122 48.6050214 54.1018122 49.7954616L54.1018122 59.6381786C54.1018122 60.5329711 53.5071635 60.8312352 52.0205419 60.8312352L52.0205419 61.4277635 57.9644203 61.4277635 63.3162581 61.4277635 63.9109068 57.8485937 63.3162581 57.8485937C62.1269608 60.2347069 61.5323122 60.5329711 59.1537176 60.5329711M84.7191757 60.5329711C82.3405811 60.5329711 82.0432568 60.2347069 82.0432568 59.0416503L82.0432568 49.7954616C82.0432568 48.6050214 82.9352297 48.3067572 84.1219189 48.3067572L84.1219189 47.7102289 80.8539595 47.7102289 77.586 47.7102289 77.586 48.3067572C78.7726892 48.3067572 79.6646622 48.6050214 79.6646622 49.7954616L79.6646622 59.6381786C79.6646622 60.5329711 78.7726892 60.8312352 77.586 60.8312352L77.586 61.4277635 83.5298784 61.4277635 88.5817838 61.4277635 89.4737568 57.8485937 88.8817162 57.8485937C87.6898108 60.2347069 87.0977703 60.5329711 84.7191757 60.5329711M102.553158 47.7104906L102.553158 48.3070189C104.03978 48.3070189 104.634428 48.605283 104.634428 49.7957233L104.634428 59.6384403C104.634428 60.5332327 104.03978 60.8314969 102.553158 60.8314969L102.553158 61.4280252 105.823726 61.4280252 109.094293 61.4280252 109.094293 60.8314969C107.904996 60.8314969 107.013023 60.5332327 107.013023 59.6384403L107.013023 49.7957233C107.013023 48.605283 107.904996 48.3070189 109.094293 48.3070189L109.094293 47.7104906 105.823726 47.7104906 102.553158 47.7104906zM132.278809 47.7104906L132.278809 48.3070189C133.468107 48.3070189 134.36008 48.3070189 134.36008 49.2018113 134.36008 49.5000755 134.062755 50.0966038 134.062755 50.3922516L130.794796 58.7436478 126.926972 49.7957233 126.926972 49.2018113C126.926972 48.605283 127.226904 48.3070189 127.818945 48.3070189L128.416201 48.3070189 128.416201 47.7104906 125.442958 47.7104906 122.469715 47.7104906 122.469715 48.3070189C123.656404 48.3070189 123.956336 48.605283 124.253661 49.7957233L129.305566 61.723673 130.494864 61.723673 135.252053 50.0966038C136.144026 48.3070189 136.44135 48.3070189 137.330715 48.3070189L137.330715 47.7104906 135.252053 47.7104906 132.278809 47.7104906zM154.277158 55.4637887L156.358428 49.7967698 158.439699 55.4637887 154.277158 55.4637887zM162.004982 59.0429585L157.842442 47.1150088 155.761172 48.0071849 155.761172 48.3054491C155.761172 48.6037132 155.761172 48.9019774 155.463847 49.2002415L151.601239 59.6394868C151.301307 60.2333987 150.709266 60.829927 149.519969 60.829927L149.519969 61.4264553 151.601239 61.4264553 154.571874 61.4264553 154.571874 60.829927 154.277158 60.829927C153.679901 60.829927 152.790536 60.5316629 152.790536 59.9351346 152.790536 59.3386063 153.087861 58.4438138 153.385185 58.1455497L153.979834 56.3585811 158.734415 56.3585811 159.628996 59.0429585C159.923712 59.6394868 159.923712 59.6394868 159.923712 59.9351346 159.923712 60.5316629 159.031739 60.829927 158.439699 60.829927L158.139766 60.829927 158.139766 61.4264553 161.410334 61.4264553 164.383577 61.4264553 164.383577 60.829927C162.896955 60.829927 162.597023 60.2333987 162.004982 59.0429585L162.004982 59.0429585z"/>
    <g transform="translate(176.846 47.129)">
      <mask id="frost-sullivan-logo-2-b" fill="#fff">
        <use xlink:href="#frost-sullivan-logo-2-a"/>
      </mask>
      <path fill="#0F3053" d="M13.1016307,0.581739027 L10.4283199,0.581739027 L10.4283199,1.17826733 C11.9123334,1.17826733 12.5043739,1.47653148 12.5043739,3.26350003 L12.5043739,10.7201038 L3.88718475,0.581739027 L2.10063069,0.581739027 L0.319292857,0.581739027 L0.319292857,1.17826733 C0.616617181,1.17826733 2.39795502,1.47653148 2.39795502,2.66697173 L2.39795502,10.4218397 C2.39795502,12.5096887 2.39795502,13.7027453 0.0219685328,13.7027453 L0.0219685328,14.2992736 L2.99521178,14.2992736 L5.96845502,14.2992736 L5.96845502,13.7027453 C3.88718475,13.7027453 3.58986042,13.106217 3.58986042,11.018368 L3.58986042,3.56438054 L13.1016307,14.5949214 L13.6962793,14.5949214 L13.6962793,2.66697173 C13.6962793,1.47653148 14.2883199,1.17826733 15.4802253,1.17826733 L15.4802253,0.581739027 L13.1016307,0.581739027 Z" mask="url(#frost-sullivan-logo-2-b)"/>
    </g>
  </g>
</svg>
