
<svg width="246px" height="13px" viewBox="0 0 246 13" version="1.1" xmlns="http://www.w3.org/2000/svg" xmlns:xlink="http://www.w3.org/1999/xlink">
    <!-- Generator: Sketch 44.1 (41455) - http://www.bohemiancoding.com/sketch -->
    <desc>Created with Sketch.</desc>
    <defs></defs>
    <g id="25-News-" stroke="none" stroke-width="1" fill="none" fill-rule="evenodd">
        <g id="250.-Awards" transform="translate(-815.000000, -455.000000)" fill-rule="nonzero" fill="#FFFFFF">
            <g id="Quote" transform="translate(735.000000, 369.000000)">
                <path d="M81.287722,91.5814568 C81.287722,90.8614725 80.7358411,90.6814765 80,90.6814765 L80,90.3214844 L86.9888771,90.3214844 L86.9888771,92.121445 L86.6209565,92.121445 C86.4369962,91.0414686 86.0690757,90.8614725 84.5973934,90.8614725 L82.7577906,90.8614725 L82.7577906,94.0998227 L84.4134331,94.0998227 C85.1492742,94.0998227 85.5171948,94.0998227 85.5171948,93.0198463 L86.0690757,93.0198463 L86.0690757,95.7197873 L85.5171948,95.7197873 C85.5171948,94.638232 85.3332345,94.638232 84.4134331,94.638232 L82.7577906,94.638232 L82.7577906,97.1597557 C82.7577906,98.0565782 83.1257111,98.2397321 83.8615523,98.2397321 L84.2294728,98.2397321 L84.2294728,98.5981453 L80,98.5981453 L80,98.2397321 C80.7358411,98.2397321 81.287722,98.0581571 81.287722,97.5181689 L81.287722,91.5814568 Z M98.5751475,94.0998227 L98.5751475,90.8614725 C98.7591078,90.8614725 99.3109887,90.6814765 99.494949,90.6814765 C100.782671,90.6814765 101.518512,91.2214647 101.518512,92.2998621 C101.518512,93.5598345 100.782671,94.0998227 99.3109887,94.0998227 L98.5751475,94.0998227 L98.5751475,94.0998227 Z M97.105079,97.5197479 C97.105079,98.059736 96.7371584,98.241311 95.817357,98.241311 L95.817357,98.5997242 L99.8628695,98.5997242 L99.8628695,98.241311 C99.1270284,98.241311 98.5751475,98.059736 98.5751475,97.5197479 L98.5751475,94.6413898 L99.8628695,94.6413898 C100.782671,96.0797794 101.702472,97.8813189 102.438313,98.5997242 L104.645837,98.5997242 L104.645837,98.241311 C103.542075,97.87974 102.991808,97.5197479 101.150591,94.2813977 C102.438313,93.9198266 102.990194,93.3814174 102.990194,92.301441 C102.990194,91.0414686 101.884819,90.3230633 100.41475,90.3230633 L95.817357,90.3230633 L95.817357,90.6830554 C96.7371584,90.6830554 97.105079,90.8630515 97.105079,91.5830357 L97.105079,97.5197479 Z M115.128346,94.2813977 C115.128346,92.4814371 115.864187,90.6814765 118.07171,90.6814765 C119.725739,90.6814765 121.199035,92.2998621 121.199035,94.6398109 C121.199035,96.4397715 120.463194,98.2397321 118.25567,98.2397321 C116.416068,98.241311 115.128346,96.6181886 115.128346,94.2813977 Z M113.290356,94.4598148 C113.290356,96.9797597 115.312306,98.7797203 118.07171,98.7797203 C121.013461,98.7797203 122.853064,96.4397715 122.853064,94.4598148 C122.853064,91.9414489 121.013461,90.1414883 118.25567,90.1414883 C115.680226,90.1414883 113.290356,91.7614528 113.290356,94.4598148 L113.290356,94.4598148 Z M132.417385,96.6181886 L132.969266,96.6181886 C133.153226,97.7013228 133.705107,98.4197282 134.992829,98.4197282 C136.464511,98.4197282 136.646858,97.5197479 136.646858,96.9797597 C136.646858,96.2613543 136.278937,95.8997833 135.176789,95.181378 C133.153226,94.2813977 132.785305,93.5598345 132.785305,92.2998621 C132.785305,91.2198857 133.705107,90.1414883 135.176789,90.1414883 C135.91263,90.1414883 136.646858,90.3214844 137.384313,90.3214844 L137.384313,91.9414489 L137.016392,91.9414489 C136.832432,91.2214647 136.464511,90.5014804 135.360749,90.5014804 C134.440948,90.5014804 133.889067,91.2214647 133.889067,91.9414489 C133.889067,92.6614331 134.073027,93.0214253 135.72867,93.9198266 C137.568273,94.6398109 137.936193,95.3597951 137.936193,96.4397715 C137.936193,97.87974 136.648471,98.7797203 134.992829,98.7797203 C134.073027,98.7797203 133.337186,98.5981453 132.785305,98.4181492 L132.417385,96.6181886 L132.417385,96.6181886 Z M150.072731,90.8614725 L148.785009,90.8614725 C147.681247,90.8614725 147.498901,91.0414686 147.313327,92.121445 L146.76306,92.121445 L147.13098,89.9614922 L147.498901,89.9614922 C147.498901,90.3214844 147.866821,90.3214844 148.234742,90.3214844 L153.751937,90.3214844 C154.121471,90.3214844 154.305431,90.3214844 154.671738,89.9614922 L155.039659,89.9614922 L154.855698,92.121445 L154.303818,92.121445 C154.303818,91.0414686 154.119857,90.8614725 153.384016,90.8614725 L151.544413,90.8614725 L151.544413,97.5197479 C151.544413,98.059736 152.096294,98.241311 153.016096,98.241311 L153.016096,98.5997242 L148.785009,98.5997242 L148.785009,98.241311 C149.70481,98.241311 150.072731,98.059736 150.072731,97.5197479 L150.072731,90.8614725 Z M177.476358,90.5014804 C177.844279,90.5014804 178.2122,90.6814765 178.2122,90.8614725 L178.2122,91.2214647 L176.556557,92.8414292 C176.004676,93.3814174 175.636756,93.9214056 175.084875,94.4598148 C174.900914,94.2813977 174.900914,94.0998227 174.900914,93.9198266 C174.902528,92.2998621 176.004676,90.5014804 177.476358,90.5014804 L177.476358,90.5014804 Z M182.627246,93.3798385 C182.627246,92.4798582 181.523485,93.1998424 181.523485,92.119866 C181.523485,91.3998818 182.075366,91.0398897 182.627246,91.0398897 C183.179127,91.0398897 184.098929,91.4014607 184.281275,91.7598739 C184.097315,93.1998424 183.913355,94.6398109 182.809593,95.7197873 C182.073752,96.6166097 180.60207,97.6997439 178.578506,97.6997439 C177.658705,97.6997439 176.738904,97.3381729 176.003062,96.6166097 C175.819102,96.2581965 175.451182,95.8982044 175.451182,95.3582162 C175.451182,94.818228 175.635142,94.4582359 176.003062,94.0982438 L176.922864,93.0182674 L177.658705,92.2982832 L181.15395,89.059933 C181.705831,88.5199448 182.809593,87.4399685 182.809593,86.8999803 C182.809593,86.3599921 182.441672,86 182.073752,86 C181.705831,86 181.521871,86.3599921 181.521871,86.7199842 L181.521871,87.4399685 C181.521871,88.1599527 180.050189,89.4199251 179.682268,89.9599133 C179.314348,89.5999212 178.946427,89.4199251 178.578506,89.4199251 C176.188636,89.4199251 173.981113,92.2982832 173.981113,94.4582359 C173.981113,97.1597557 175.820716,98.9581374 178.394546,98.9581374 C181.521871,98.9581374 182.99194,96.9781808 183.727781,95.7197873 C184.463622,94.4582359 184.647582,93.1998424 184.647582,92.119866 C185.015503,92.4798582 185.567384,93.0198463 186.119264,93.0198463 C187.223026,93.0198463 188.509134,91.93987 188.509134,90.8598936 C188.509134,90.4999015 188.325174,89.9599133 187.773293,89.9599133 C187.589333,89.9599133 187.221412,90.3199054 187.221412,90.4999015 C187.221412,91.0398897 187.773293,91.2198857 187.773293,91.5798779 C187.773293,91.93987 187.405373,92.2998621 187.037452,92.2998621 C185.93369,92.2998621 185.56577,90.1414883 183.726167,90.1414883 C182.438445,90.1414883 180.598842,91.4014607 180.598842,92.8398503 C180.598842,93.7398306 181.334683,94.0982438 181.702604,94.0982438 C182.070524,94.0982438 182.627246,93.9198266 182.627246,93.3798385 L182.627246,93.3798385 Z M206.905163,96.6181886 L207.27147,96.6181886 C207.641004,97.7013228 208.191271,98.4197282 209.477379,98.4197282 C210.766715,98.4197282 211.134636,97.5197479 211.134636,96.9797597 C211.134636,96.2613543 210.582755,95.8997833 209.477379,95.181378 C207.63939,94.2813977 207.089123,93.5598345 207.089123,92.2998621 C207.089123,91.2198857 208.192885,90.1414883 209.664567,90.1414883 C210.216448,90.1414883 211.136249,90.3214844 211.68813,90.3214844 L211.870477,91.9414489 L211.500942,91.9414489 C211.318596,91.2214647 210.949062,90.5014804 209.662953,90.5014804 C208.925498,90.5014804 208.191271,91.2214647 208.191271,91.9414489 C208.191271,92.6614331 208.560805,93.0214253 210.214834,93.9198266 C212.052823,94.6398109 212.420744,95.3597951 212.420744,96.4397715 C212.420744,97.87974 211.134636,98.7797203 209.293419,98.7797203 C208.559192,98.7797203 207.821737,98.5981453 207.087509,98.4181492 L206.905163,96.6181886 Z M222.352985,91.4014607 C222.352985,90.6814765 221.618758,90.6814765 221.066877,90.6814765 L221.066877,90.3214844 L224.928429,90.3214844 L224.928429,90.6814765 C224.376549,90.6814765 223.824668,90.6814765 223.824668,91.4014607 L223.824668,95.8997833 C223.824668,97.5181689 224.744469,98.0581571 226.216151,98.0581571 C228.604408,98.0581571 228.604408,96.2597754 228.604408,94.6398109 L228.604408,92.6614331 C228.604408,90.8614725 228.422061,90.6814765 227.132725,90.6814765 L227.132725,90.3214844 L230.445624,90.3214844 L230.445624,90.6814765 C229.708169,90.6814765 229.341862,90.8614725 229.341862,91.9414489 L229.341862,95.361374 C229.341862,97.3413307 228.422061,98.7812992 225.846617,98.7812992 C223.640707,98.7812992 222.351372,98.059736 222.351372,96.0797794 L222.351372,91.4014607 L222.352985,91.4014607 Z M239.090144,90.6814765 L239.090144,90.3214844 L243.134043,90.3214844 L243.134043,90.6814765 C242.399815,90.6814765 241.847934,90.8614725 241.847934,91.5814568 L241.847934,97.1613346 C241.847934,97.87974 242.217469,98.0581571 243.501963,98.0581571 C244.973645,98.0581571 245.34318,97.87974 246.077407,96.4397715 L246.446941,96.4397715 L246.077407,98.5981453 L239.090144,98.5981453 L239.090144,98.2397321 C240.006718,98.2397321 240.376252,98.0581571 240.376252,97.5181689 L240.376252,91.5814568 C240.376252,90.8614725 240.006718,90.6814765 239.090144,90.6814765 Z M256.195223,91.5814568 C256.195223,90.8614725 255.643342,90.6814765 254.905887,90.6814765 L254.905887,90.3214844 L258.953013,90.3214844 L258.953013,90.6814765 C258.215558,90.6814765 257.663678,90.8614725 257.663678,91.5814568 L257.663678,97.1613346 C257.663678,97.87974 257.849252,98.0581571 259.320934,98.0581571 C260.789389,98.0581571 261.158923,97.87974 261.896378,96.4397715 L262.262685,96.4397715 L261.710804,98.5981453 L254.905887,98.5981453 L254.905887,98.2397321 C255.643342,98.2397321 256.195223,98.0581571 256.195223,97.5181689 L256.195223,91.5814568 L256.195223,91.5814568 Z M271.643045,91.5814568 C271.643045,90.8614725 271.276739,90.6814765 270.356937,90.6814765 L270.356937,90.3214844 L274.404063,90.3214844 L274.404063,90.6814765 C273.666609,90.6814765 273.114728,90.8614725 273.114728,91.5814568 L273.114728,97.5197479 C273.114728,98.059736 273.666609,98.241311 274.404063,98.241311 L274.404063,98.5997242 L270.356937,98.5997242 L270.356937,98.241311 C271.276739,98.241311 271.643045,98.059736 271.643045,97.5197479 L271.643045,91.5814568 Z M283.78281,91.5814568 C283.597237,90.8614725 283.413276,90.6814765 282.679049,90.6814765 L282.679049,90.3214844 L286.358254,90.3214844 L286.358254,90.6814765 L285.98872,90.6814765 C285.619186,90.6814765 285.436839,90.8614725 285.436839,91.2214647 L285.436839,91.5814568 L287.828323,96.9797597 L289.851886,91.9414489 C289.851886,91.7614528 290.034233,91.4014607 290.034233,91.2214647 C290.034233,90.6814765 289.482352,90.6814765 288.744897,90.6814765 L288.744897,90.3214844 L291.872222,90.3214844 L291.872222,90.6814765 C291.320341,90.6814765 291.137994,90.6814765 290.586114,91.7614528 L287.642749,98.7812992 L286.908522,98.7812992 L283.78281,91.5814568 L283.78281,91.5814568 Z M304.933402,94.999803 L302.357958,94.999803 L303.644066,91.5814568 L304.933402,94.999803 Z M304.747828,98.5981453 L308.612608,98.5981453 L308.612608,98.2397321 C307.692806,98.2397321 307.508846,97.8781611 307.140925,97.1597557 L304.565481,89.9599133 L303.276146,90.4999015 L303.276146,90.6798976 C303.276146,90.8598936 303.276146,91.0398897 303.093799,91.2198857 L300.702315,97.5181689 C300.519969,97.87974 300.150435,98.2397321 299.416207,98.2397321 L299.416207,98.5981453 L302.543532,98.5981453 L302.543532,98.2397321 L302.361185,98.2397321 C301.991651,98.2397321 301.441384,98.0581571 301.441384,97.6997439 C301.441384,97.3381729 301.623731,96.7997636 301.810918,96.6166097 L302.177225,95.5366334 L305.12059,95.5366334 L305.67247,97.1581768 C305.854817,97.51659 305.854817,97.51659 305.854817,97.698165 C305.854817,98.0565782 305.302936,98.2381532 304.938243,98.2381532 L304.752669,98.2381532 L304.752669,98.5981453 L304.747828,98.5981453 L304.747828,98.5981453 Z M317.805781,91.5814568 C317.805781,90.8614725 316.702019,90.6814765 316.519672,90.6814765 L316.519672,90.3214844 L318.727196,90.3214844 L324.06043,96.4397715 L324.06043,91.9414489 C324.06043,90.8614725 323.694123,90.6814765 322.774322,90.6814765 L322.774322,90.3214844 L325.900033,90.3214844 L325.900033,90.6814765 C325.165806,90.6814765 324.796271,90.8614725 324.796271,91.5814568 L324.796271,98.7812992 L324.426737,98.7812992 L318.543236,92.121445 L318.543236,96.6197676 C318.543236,97.8813189 318.725582,98.241311 320.014918,98.241311 L320.014918,98.5997242 L316.335712,98.5997242 L316.335712,98.241311 C317.804167,98.241311 317.804167,97.5197479 317.804167,96.2613543 L317.804167,91.5814568 L317.805781,91.5814568 Z" id="::-logo"></path>
            </g>
        </g>
    </g>
</svg>