
<svg width="193px" height="62px" viewBox="0 0 193 62" version="1.1" xmlns="http://www.w3.org/2000/svg" xmlns:xlink="http://www.w3.org/1999/xlink">
    <!-- Generator: Sketch 44.1 (41455) - http://www.bohemiancoding.com/sketch -->
    <desc>Created with Sketch.</desc>
    <defs>
        <polygon id="path-1" points="15.4783996 14.5949214 15.4783996 0.581739027 0.0219685328 0.581739027 0.0219685328 14.5949214 15.4783996 14.5949214"></polygon>
    </defs>
    <g id="25-News-" stroke="none" stroke-width="1" fill="none" fill-rule="evenodd">
        <g id="250.-Awards" transform="translate(-238.000000, -1174.000000)">
            <g id="---Awards-List" transform="translate(185.000000, 1100.000000)">
                <g id="Award-1">
                    <g id="Logo">
                        <g id="Frost-&amp;-Sullivan" transform="translate(53.000000, 74.000000)">
                            <g id="Group-2">
                                <path d="M8.47139595,7.15703145 L8.47139595,7.75355975 C9.66069324,7.75355975 10.5526662,8.0518239 10.5526662,9.24226415 L10.5526662,19.0849811 C10.5526662,19.9797736 9.66069324,20.2780377 8.47139595,20.2780377 L8.47139595,20.874566 L11.7419635,20.874566 L15.3098554,20.874566 L15.3098554,20.2780377 L14.7152068,20.2780377 C13.5233014,20.2780377 12.9286527,19.9797736 12.9286527,18.4884528 L12.9286527,14.3127547 L15.6045716,14.3127547 C17.0911932,14.3127547 17.3885176,14.3127547 17.3885176,16.1023396 L18.2804905,16.1023396 L18.2804905,13.7162264 L18.2804905,11.6283774 L17.3885176,11.6283774 C17.3885176,13.4179623 16.7938689,13.4179623 15.6045716,13.4179623 L12.9286527,13.4179623 L12.9286527,8.0518239 L15.9045041,8.0518239 C18.2804905,8.0518239 18.8751392,8.35008805 19.1724635,10.139673 L19.7671122,10.139673 L19.7671122,7.15703145 L13.8232338,7.15703145 L8.47139595,7.15703145 Z" id="Fill-1" fill="#0F3053"></path>
                                <path d="M39.6834081,13.4182239 L38.4941108,13.4182239 L38.4941108,8.05208553 C38.7914351,8.05208553 39.6834081,7.75120503 39.9807324,7.75120503 C42.0620027,7.75120503 43.2513,8.64861384 43.2513,10.4355824 C43.2513,12.5234314 42.0620027,13.4182239 39.6834081,13.4182239 M42.6566514,13.7164881 C44.7353135,13.1199597 45.6298946,12.2251673 45.6298946,10.4355824 C45.6298946,8.35034969 43.8459486,7.15729308 41.4673541,7.15729308 L37.3048135,7.15729308 L34.0368541,7.15729308 L34.0368541,7.75120503 C35.5208676,7.75120503 36.1155162,8.05208553 36.1155162,9.24252579 L36.1155162,19.0852428 C36.1155162,19.9800352 35.5208676,20.2782994 34.0368541,20.2782994 L34.0368541,20.8748277 L37.3048135,20.8748277 L40.5753811,20.8748277 L40.5753811,20.2782994 C39.3860838,20.2782994 38.4941108,19.9800352 38.4941108,19.0852428 L38.4941108,14.3130164 L39.6834081,14.3130164 L40.5753811,14.3130164 C42.0620027,16.6991296 43.5486243,19.6817711 44.7353135,20.8748277 L46.5218676,20.8748277 L48.3032054,20.8748277 L48.3032054,20.2782994 C46.5218676,19.6817711 45.6298946,19.0852428 42.6566514,13.7164881" id="Fill-3" fill="#0F3053"></path>
                                <path d="M70.3018149,20.2772528 C67.3285716,20.2772528 65.2499095,17.5928755 65.2499095,13.7180579 C65.2499095,10.7354164 66.4365986,7.75277484 70.0044905,7.75277484 C72.6804095,7.75277484 75.0563959,10.4371522 75.0563959,14.3119698 C75.0563959,17.2946113 73.8697068,20.2772528 70.3018149,20.2772528 M70.3018149,6.85798239 C66.1392743,6.85798239 62.2740581,9.54235975 62.2740581,14.0137057 C62.2740581,18.1894038 65.5446257,21.1720453 70.0044905,21.1720453 C74.7590716,21.1720453 77.7323149,17.2946113 77.7323149,14.0137057 C77.7323149,9.8406239 74.7590716,6.85798239 70.3018149,6.85798239" id="Fill-5" fill="#0F3053"></path>
                                <path d="M98.541627,13.120483 C95.8657081,11.6291623 95.5683838,11.032634 95.5683838,9.83957736 C95.5683838,8.64913711 96.4603568,7.45346415 97.9443703,7.45346415 C99.7283162,7.45346415 100.325573,8.64913711 100.622897,9.83957736 L101.214938,9.83957736 L101.214938,7.15781635 C100.025641,7.15781635 98.8363432,6.85693585 97.6496541,6.85693585 C95.2710595,6.85693585 93.7844378,8.64913711 93.7844378,10.4361057 C93.7844378,12.5239547 94.3790865,13.7170113 97.6496541,15.2083321 C99.4336,16.4013887 100.025641,16.9953006 100.025641,18.1883572 C100.025641,19.085766 99.7283162,20.5770868 97.3523297,20.5770868 C95.2710595,20.5770868 94.3790865,19.3840302 94.0817622,17.5918289 L93.1897892,17.5918289 L93.7844378,20.5770868 C94.6764108,20.8727346 95.8657081,21.1709987 97.3523297,21.1709987 C100.025641,21.1709987 102.106911,19.679678 102.106911,17.2961811 C102.106911,15.5065962 101.51487,14.3135396 98.541627,13.120483" id="Fill-7" fill="#0F3053"></path>
                                <path d="M119.645916,20.2772528 L119.645916,20.8737811 L122.916484,20.8737811 L126.481768,20.8737811 L126.481768,20.2772528 C124.997754,20.2772528 124.105781,19.9789887 124.105781,19.0841962 L124.105781,8.05103899 L127.079024,8.05103899 C128.268322,8.05103899 128.563038,8.34930314 128.563038,10.1388881 L129.457619,10.1388881 L129.752335,6.55971824 L129.157686,6.55971824 C128.563038,7.15624654 128.268322,7.15624654 127.671065,7.15624654 L118.753943,7.15624654 C118.159295,7.15624654 117.564646,7.15624654 117.564646,6.55971824 L116.972605,6.55971824 L116.375349,10.1388881 L117.267322,10.1388881 C117.564646,8.34930314 117.86197,8.05103899 119.645916,8.05103899 L121.727186,8.05103899 L121.727186,19.0841962 C121.727186,19.9789887 121.132538,20.2772528 119.645916,20.2772528" id="Fill-9" fill="#0F3053"></path>
                                <path d="M162.154949,14.0147522 C161.857624,13.7164881 161.857624,13.4182239 161.857624,13.1199597 C161.857624,10.4355824 163.638962,7.45555723 166.017557,7.45555723 C166.612205,7.45555723 167.206854,7.75120503 167.206854,8.05208553 L167.206854,8.64861384 L164.530935,11.3329912 C163.638962,12.2251673 163.046922,13.1199597 162.154949,14.0147522 M179.989192,11.628639 C181.77053,11.628639 183.8518,9.83905409 183.8518,8.05208553 C183.8518,7.45555723 183.557084,6.56076478 182.662503,6.56076478 C182.367786,6.56076478 181.77053,7.15729308 181.77053,7.45555723 C181.77053,8.34773333 182.662503,8.64861384 182.662503,9.24252579 C182.662503,9.83905409 182.070462,10.4355824 181.475814,10.4355824 C179.694476,10.4355824 179.097219,6.85902893 176.123976,6.85902893 C174.045314,6.85902893 171.07207,8.94687799 171.07207,11.3329912 C171.07207,12.8216956 172.261368,13.4182239 172.856016,13.4182239 C173.448057,13.4182239 174.342638,13.1199597 174.342638,12.2251673 C174.342638,10.7364629 172.556084,11.9269031 172.556084,10.1399346 C172.556084,8.94687799 173.448057,8.34773333 174.342638,8.34773333 C175.234611,8.34773333 176.718624,8.94687799 177.015949,9.54340629 C176.718624,11.9269031 176.423908,14.3130164 174.637354,16.1026013 C173.448057,17.593922 171.07207,19.3835069 167.801503,19.3835069 C166.314881,19.3835069 164.828259,18.7869786 163.638962,17.593922 C163.341638,16.9973937 162.749597,16.4008654 162.749597,15.506073 C162.749597,14.6112805 163.046922,14.0147522 163.638962,13.4182239 L165.128192,11.628639 L166.314881,10.4355824 L171.964043,5.06944403 C172.856016,4.17465157 174.637354,2.38506667 174.637354,1.49027421 C174.637354,0.595481761 174.045314,0.00156981132 173.448057,0.00156981132 C172.856016,0.00156981132 172.556084,0.595481761 172.556084,1.19201006 L172.556084,2.38506667 C172.556084,3.57812327 170.180097,5.66597233 169.585449,6.56076478 C168.9908,5.96423648 168.396151,5.66597233 167.801503,5.66597233 C163.938895,5.66597233 160.368395,10.4355824 160.368395,14.0147522 C160.368395,18.4887145 163.341638,21.471356 167.504178,21.471356 C172.556084,21.471356 174.934678,18.1904503 176.123976,16.1026013 C177.313273,14.0147522 177.610597,11.9269031 177.610597,10.1399346 C178.205246,10.7364629 179.097219,11.628639 179.989192,11.628639" id="Fill-11" fill="#0F3053"></path>
                                <path d="M5.35001216,53.6739421 C2.67670135,52.1826214 2.0820527,51.5860931 2.0820527,50.3930365 C2.0820527,49.2025962 3.26874189,48.0069233 4.45803919,48.0069233 C6.53930946,48.0069233 7.13395811,49.2025962 7.43128243,50.3930365 L8.02593108,50.3930365 L7.72860676,47.7112755 C6.83663378,47.7112755 5.35001216,47.410395 4.45803919,47.410395 C2.0820527,47.410395 0.298106757,49.2025962 0.298106757,50.9895648 C0.298106757,53.0774138 1.18747162,54.2704704 4.16071486,55.7617912 C5.94726892,56.9548478 6.83663378,57.5487597 6.83663378,58.7418164 C6.83663378,59.6392252 6.24198514,61.1305459 4.16071486,61.1305459 C2.0820527,61.1305459 1.18747162,59.9374893 0.595431081,58.1452881 L0.000782432432,58.1452881 L0.298106757,61.1305459 C1.48740405,61.4261937 2.67670135,61.7244579 3.86339054,61.7244579 C6.83663378,61.7244579 8.91790405,60.2331371 8.91790405,57.8496403 C8.91790405,56.0600553 8.32325541,54.8669987 5.35001216,53.6739421" id="Fill-13" fill="#0F3053"></path>
                                <path d="M32.698373,47.7104906 L32.698373,48.3070189 C34.7796432,48.3070189 35.0769676,48.605283 35.0769676,51.5853082 L35.0769676,54.8662138 C35.0769676,57.5505912 35.0769676,60.5332327 31.2117514,60.5332327 C28.8331568,60.5332327 27.3491432,59.6384403 27.3491432,56.9540629 L27.3491432,49.5000755 C27.3491432,48.3070189 28.2411162,48.3070189 29.1304811,48.3070189 L29.1304811,47.7104906 L26.1598459,47.7104906 L22.8892784,47.7104906 L22.8892784,48.3070189 C23.7812514,48.3070189 24.9705486,48.3070189 24.9705486,49.5000755 L24.9705486,57.252327 C24.9705486,60.5332327 27.0492108,61.723673 30.6171027,61.723673 C34.7796432,61.723673 36.2662649,59.3401761 36.2662649,56.0592704 L36.2662649,50.3922516 C36.2662649,48.605283 36.8609135,48.3070189 38.0502108,48.3070189 L38.0502108,47.7104906 L35.6716162,47.7104906 L32.698373,47.7104906 Z" id="Fill-15" fill="#0F3053"></path>
                                <path d="M59.1537176,60.5329711 C57.0750554,60.5329711 56.4777986,60.2347069 56.4777986,59.0416503 L56.4777986,49.7954616 C56.4777986,48.6050214 57.3697716,48.3067572 58.5590689,48.3067572 L58.5590689,47.7102289 L55.2911095,47.7102289 L52.0205419,47.7102289 L52.0205419,48.3067572 C53.5071635,48.3067572 54.1018122,48.6050214 54.1018122,49.7954616 L54.1018122,59.6381786 C54.1018122,60.5329711 53.5071635,60.8312352 52.0205419,60.8312352 L52.0205419,61.4277635 L57.9644203,61.4277635 L63.3162581,61.4277635 L63.9109068,57.8485937 L63.3162581,57.8485937 C62.1269608,60.2347069 61.5323122,60.5329711 59.1537176,60.5329711" id="Fill-17" fill="#0F3053"></path>
                                <path d="M84.7191757,60.5329711 C82.3405811,60.5329711 82.0432568,60.2347069 82.0432568,59.0416503 L82.0432568,49.7954616 C82.0432568,48.6050214 82.9352297,48.3067572 84.1219189,48.3067572 L84.1219189,47.7102289 L80.8539595,47.7102289 L77.586,47.7102289 L77.586,48.3067572 C78.7726892,48.3067572 79.6646622,48.6050214 79.6646622,49.7954616 L79.6646622,59.6381786 C79.6646622,60.5329711 78.7726892,60.8312352 77.586,60.8312352 L77.586,61.4277635 L83.5298784,61.4277635 L88.5817838,61.4277635 L89.4737568,57.8485937 L88.8817162,57.8485937 C87.6898108,60.2347069 87.0977703,60.5329711 84.7191757,60.5329711" id="Fill-19" fill="#0F3053"></path>
                                <path d="M102.553158,47.7104906 L102.553158,48.3070189 C104.03978,48.3070189 104.634428,48.605283 104.634428,49.7957233 L104.634428,59.6384403 C104.634428,60.5332327 104.03978,60.8314969 102.553158,60.8314969 L102.553158,61.4280252 L105.823726,61.4280252 L109.094293,61.4280252 L109.094293,60.8314969 C107.904996,60.8314969 107.013023,60.5332327 107.013023,59.6384403 L107.013023,49.7957233 C107.013023,48.605283 107.904996,48.3070189 109.094293,48.3070189 L109.094293,47.7104906 L105.823726,47.7104906 L102.553158,47.7104906 Z" id="Fill-21" fill="#0F3053"></path>
                                <path d="M132.278809,47.7104906 L132.278809,48.3070189 C133.468107,48.3070189 134.36008,48.3070189 134.36008,49.2018113 C134.36008,49.5000755 134.062755,50.0966038 134.062755,50.3922516 L130.794796,58.7436478 L126.926972,49.7957233 L126.926972,49.2018113 C126.926972,48.605283 127.226904,48.3070189 127.818945,48.3070189 L128.416201,48.3070189 L128.416201,47.7104906 L125.442958,47.7104906 L122.469715,47.7104906 L122.469715,48.3070189 C123.656404,48.3070189 123.956336,48.605283 124.253661,49.7957233 L129.305566,61.723673 L130.494864,61.723673 L135.252053,50.0966038 C136.144026,48.3070189 136.44135,48.3070189 137.330715,48.3070189 L137.330715,47.7104906 L135.252053,47.7104906 L132.278809,47.7104906 Z" id="Fill-23" fill="#0F3053"></path>
                                <path d="M154.277158,55.4637887 L156.358428,49.7967698 L158.439699,55.4637887 L154.277158,55.4637887 Z M162.004982,59.0429585 L157.842442,47.1150088 L155.761172,48.0071849 L155.761172,48.3054491 C155.761172,48.6037132 155.761172,48.9019774 155.463847,49.2002415 L151.601239,59.6394868 C151.301307,60.2333987 150.709266,60.829927 149.519969,60.829927 L149.519969,61.4264553 L151.601239,61.4264553 L154.571874,61.4264553 L154.571874,60.829927 L154.277158,60.829927 C153.679901,60.829927 152.790536,60.5316629 152.790536,59.9351346 C152.790536,59.3386063 153.087861,58.4438138 153.385185,58.1455497 L153.979834,56.3585811 L158.734415,56.3585811 L159.628996,59.0429585 C159.923712,59.6394868 159.923712,59.6394868 159.923712,59.9351346 C159.923712,60.5316629 159.031739,60.829927 158.439699,60.829927 L158.139766,60.829927 L158.139766,61.4264553 L161.410334,61.4264553 L164.383577,61.4264553 L164.383577,60.829927 C162.896955,60.829927 162.597023,60.2333987 162.004982,59.0429585 L162.004982,59.0429585 Z" id="Fill-25" fill="#0F3053"></path>
                                <g id="Group-29" transform="translate(176.846100, 47.128752)">
                                    <mask id="mask-2" fill="white">
                                        <use xlink:href="#path-1"></use>
                                    </mask>
                                    <g id="Clip-28"></g>
                                    <path d="M13.1016307,0.581739027 L10.4283199,0.581739027 L10.4283199,1.17826733 C11.9123334,1.17826733 12.5043739,1.47653148 12.5043739,3.26350003 L12.5043739,10.7201038 L3.88718475,0.581739027 L2.10063069,0.581739027 L0.319292857,0.581739027 L0.319292857,1.17826733 C0.616617181,1.17826733 2.39795502,1.47653148 2.39795502,2.66697173 L2.39795502,10.4218397 C2.39795502,12.5096887 2.39795502,13.7027453 0.0219685328,13.7027453 L0.0219685328,14.2992736 L2.99521178,14.2992736 L5.96845502,14.2992736 L5.96845502,13.7027453 C3.88718475,13.7027453 3.58986042,13.106217 3.58986042,11.018368 L3.58986042,3.56438054 L13.1016307,14.5949214 L13.6962793,14.5949214 L13.6962793,2.66697173 C13.6962793,1.47653148 14.2883199,1.17826733 15.4802253,1.17826733 L15.4802253,0.581739027 L13.1016307,0.581739027 Z" id="Fill-27" fill="#0F3053" mask="url(#mask-2)"></path>
                                </g>
                            </g>
                        </g>
                    </g>
                </g>
            </g>
        </g>
    </g>
</svg>