<svg xmlns="http://www.w3.org/2000/svg" xmlns:xlink="http://www.w3.org/1999/xlink" width="158" height="68" viewBox="0 0 158 68">
  <defs>
    <polygon id="idc-logo-2-a" points="0 .718 0 15.841 14.276 15.841 14.276 .718"/>
    <polygon id="idc-logo-2-c" points="11.719 15.906 .784 15.906 .784 .825 11.719 .825 11.719 15.906"/>
  </defs>
  <g fill="none" fill-rule="evenodd">
    <path fill="#004A84" d="M43.2661989 33.7451902L18.0769649 33.7317956C21.5378372 36.8636289 26.1324436 38.7698531 31.1749968 38.7698531 35.8267521 38.7698531 40.0868691 37.2051921 43.4384862 34.5078473L60.3133904 34.5078473 60.3133904 33.6547764 43.2661989 33.6547764 43.2661989 33.7451902zM17.6886043 32.7584241L45.2797745 32.7559126C46.2555085 31.7379203 47.3623489 30.4553839 48.2557213 28.9627192L60.1006787 28.9627192 60.1006787 28.1096483 47.7934872 28.1096483 47.7934872 28.2184797 13.481434 28.2075966C14.4697745 29.5788724 15.3917213 30.8488513 16.4002319 32.005813L1.45998723 32.005813 1.45998723 32.8588839 17.6886043 32.8588839 17.6886043 32.7584241zM12.3879564 21.3070987L50.5693287 21.3054243C50.6323606 20.6641561 50.6651372 20.0145163 50.6651372 19.357342 50.6651372 19.06266 50.6407649 18.7746753 50.6273181 18.483342L60.1005947 18.483342 60.1005947 17.6311082 50.340733 17.6311082 50.340733 17.680501 11.7458713 17.6838496C11.7727649 18.773001 11.6870415 18.6382174 11.6870415 19.357342 11.6870415 19.6896964 11.6954457 20.1576715 11.7088926 20.5754167L1.59773298 20.5754167 1.59773298 21.4284875 12.3879564 21.4284875 12.3879564 21.3070987zM12.4872947 15.8626814L50.3493053 15.8601699C50.1686138 14.8681297 49.8400074 13.9020416 49.483667 12.9686029L59.9284755 12.9686029 59.9284755 12.115532 48.5659223 12.115532 48.5659223 12.2210148 13.0520606 12.206783C12.6839543 13.1301757 12.4074543 14.0979381 12.1839011 15.0849554L1.81136915 15.0849554 1.81136915 15.9371891 12.4872947 15.9371891 12.4872947 15.8626814zM15.0417681 9.51730747L48.053683 9.50726149C47.5427043 8.65000479 46.9619702 7.83879215 46.3366936 7.06525192L59.9003213 7.06525192 59.9003213 6.2130182 45.1037894 6.2130182 45.1037894 6.30594349 16.7486723 6.30510632C16.0729702 7.04599713 15.3888638 7.87395307 14.800566 8.72869828L1.81767234 8.72869828 1.81767234 9.58176916 15.0417681 9.58176916 15.0417681 9.51730747zM20.9075181 3.92287031L42.9308691 3.92705613C41.8727734 3.12923812 40.7222309 2.44862318 39.5111777 1.87683966L60.2579223 1.87683966 60.2579223 1.02376877 37.4311245 1.02376877C35.46705.361571456 33.3643053-.0000837164751 31.1749968-.0000837164751 27.2224755-.0000837164751 23.5481351 1.18031858 20.4763798 3.19537414L1.90297553 3.19537414 1.90297553 4.04844502 20.9075181 4.04844502 20.9075181 3.92287031zM79.7422638 38.4149789C79.7422638 36.7917165 74.9022532 38.0357433 74.9022532 34.3530556L74.9022532 5.26325479C74.9022532 1.20049425 78.8177957 2.44703257 78.8177957 1.14691571 78.8177957.713264368 78.6547532.60443295 77.7840723.60443295 76.0981787.60443295 74.4122851.821258621 72.7263915.821258621 70.7144128.821258621 68.7570617.60443295 66.7442426.60443295 66.3097426.60443295 66.2013277.713264368 66.2013277 1.20049425 66.2013277 2.39261686 70.5513702 1.30932567 70.6059979 5.26325479L70.6059979 32.9993602C70.6059979 38.3630747 66.3635298 36.5748908 66.3635298 38.1437375 66.3635298 38.6853831 66.5265723 38.9574617 67.5056681 38.9574617 68.2670936 38.9574617 69.4092319 38.7414732 72.7263915 38.7414732 75.0652957 38.7414732 77.4033596 38.9574617 78.6547532 38.9574617 79.5792213 38.9574617 79.7422638 38.7942146 79.7422638 38.4149789M99.0884394 37.4952697C96.6428011 37.4952697 92.5104287 36.8456299 90.7152798 35.0582831 90.2261521 34.5702161 90.3883543 31.9699824 90.3883543 31.1035169L90.3883543 5.37158391C90.3883543 2.8257659 90.6060245 1.95930038 95.7712798 1.95930038 106.104312 2.01371609 114.152227 8.83912031 114.152227 20.864992 114.152227 33.3789307 106.810269 37.4952697 99.0884394 37.4952697M118.177024 17.8855226C118.177024 7.86382337 108.713833.604767816 99.0884394.604767816 94.4123117.604767816 90.8766415.821593487 87.2888649.821593487 85.6575989.821593487 84.0809606.604767816 82.395067.604767816 82.0681415.604767816 81.6319606.767177778 81.6319606 1.14725057 81.6319606 2.60894023 86.0904181.876009195 86.0904181 6.40129655L86.0904181 33.3789307C86.0904181 38.5241452 82.231184 37.1704498 82.231184 38.4153138 82.231184 38.7409709 82.3395989 38.9577966 82.7757798 38.9577966 83.1564926 38.9577966 88.3755351 38.7409709 88.8663436 38.7409709 91.6397479 38.7409709 94.4123117 38.9577966 97.1848755 38.9577966 112.248663 38.9577966 118.177024 30.3450456 118.177024 17.8855226M154.916815 35.0581994L156.167368 29.6409063C156.221996 29.3705021 155.949698 29.044845 155.679081 29.044845 155.352155 29.044845 155.02523 29.3705021 154.916815 29.7489006 154.100762 32.24114 148.772464 37.657596 140.234581 37.657596 129.793134 37.657596 124.355581 28.2327952 124.355581 18.8063201 124.355581 8.73020517 129.467889 1.68797529 140.072379 1.68797529 147.087411 1.68797529 150.946645 5.20909023 154.318432 11.0064561 154.536102 11.3848546 154.916815 12.7938029 155.568985 12.7938029 156.493453 12.7938029 156.004326 11.0064561 155.897591 8.13498103 155.732868 4.61386609 155.732868 3.74740057 155.134485 3.74740057 154.589889 3.74740057 154.264645 4.28904617 153.829304 4.28904617 152.251826 4.28904617 149.426315.117454215 139.200017.117454215 127.726528.117454215 119.623985 9.27268793 119.623985 20.4856726 119.623985 31.6994944 127.618953 39.3352741 138.766357 39.3352741 151.001272 39.3352741 154.864709 35.2750251 154.916815 35.0581994"/>
    <path fill="#627281" d="M13.7532277,26.7936253 L49.214983,26.7936253 C49.6856213,25.7429835 50.026834,24.9886981 50.2907277,23.987449 L60.0724404,23.987449 L60.0724404,23.1343782 L49.9688447,23.1343782 L49.9688447,23.2030257 L12.067334,23.189631 C12.264834,24.1749739 12.5573021,25.1226444 12.8985149,26.0477115 L1.53091915,26.0477115 L1.53091915,26.9007824 L13.7532277,26.9007824 L13.7532277,26.7936253 Z"/>
    <g transform="translate(0 45.317)">
      <mask id="idc-logo-2-b" fill="#fff">
        <use xlink:href="#idc-logo-2-a"/>
      </mask>
      <path fill="#004A84" d="M11.0961383,8.5804364 C11.0734468,8.98060115 11.0280638,9.02580805 10.6490319,9.02580805 L7.83024468,9.02580805 C7.33943617,9.02580805 7.2713617,8.95883487 7.45121277,8.69177931 L10.558266,4.21294789 C11.2079149,3.25690575 11.3407021,3.12212222 11.4087766,3.12212222 C11.4524787,3.12212222 11.4524787,3.39001494 11.4524787,3.70144023 L11.0961383,8.5804364 Z M13.621617,15.2174785 C12.414766,15.0843693 12.3920745,15.0609287 12.5265426,12.5887812 L12.9736489,4.16941533 C13.0854255,2.23137893 13.1972021,1.27449962 13.1972021,0.895263985 C13.1972021,0.806524521 13.0400426,0.717785057 12.928266,0.717785057 C12.8845638,0.717785057 12.0567447,1.34063563 11.297,1.45197854 C11.2079149,1.83037701 10.9162872,2.40969502 9.95568085,3.74748429 L6.01912766,9.27109732 C4.29709574,11.7206414 2.97762766,13.4803617 2.32965957,14.2823655 C1.88255319,14.8156395 1.39006383,15.1270648 0.719404255,15.2174785 L0.115138298,15.2844517 C-0.0176489362,15.4183981 -0.0403404255,15.7072199 0.0714361702,15.8411663 C0.87656383,15.7951222 1.68169149,15.7750303 2.55321277,15.7750303 C3.44826596,15.7750303 4.14161702,15.7951222 4.83412766,15.8411663 C4.99128723,15.753264 5.05768085,15.4183981 4.87867021,15.2844517 L4.05253191,15.1505054 C3.62643617,15.0843693 3.53735106,14.9495858 3.53735106,14.8156395 C3.53735106,14.7042966 3.76006383,14.3702678 4.54334043,13.1454958 L6.17628723,10.6072123 C6.60070213,9.93915479 6.64608511,9.91655134 7.31590426,9.91655134 L10.5364149,9.91655134 C11.0053723,9.91655134 11.0280638,9.98268736 11.0053723,10.4958693 L10.8045106,13.4803617 C10.738117,14.4380782 10.6263404,14.7495034 10.558266,14.8608464 C10.4691809,14.9947927 10.179234,15.1731088 9.68674468,15.2174785 L8.99339362,15.2844517 C8.79253191,15.372354 8.79253191,15.753264 9.01608511,15.8411663 C9.68674468,15.7951222 10.558266,15.7750303 11.5869468,15.7750303 C12.5702447,15.7750303 13.4207553,15.7951222 14.1141064,15.8411663 C14.271266,15.753264 14.3376596,15.4183981 14.2031915,15.2844517 L13.621617,15.2174785 Z" mask="url(#idc-logo-2-b)"/>
    </g>
    <path fill="#004A84" d="M24.6722043 58.5969282C24.0242362 59.3763285 22.9501723 60.1113592 22.5711404 60.1113592 22.4131404 60.1113592 22.4366723 59.9096025 22.5257574 59.6877538 22.5938319 59.5102749 24.2032468 55.8794914 24.6058106 54.7660623 24.7839809 54.2545546 24.9638319 53.5630565 24.9638319 53.2072615 24.9638319 52.473068 24.5831191 52.0025814 23.7107574 52.0025814 22.0341085 52.0025814 19.8204277 54.454637 18.2320234 56.8589741L18.1656298 56.8154416 19.6859596 52.9184397C19.8876617 52.4052577 19.6405766 52.0025814 19.1035447 52.0025814 17.9857787 52.0025814 16.6217681 52.9184397 15.7729383 54.0754013 15.7502468 54.2545546 15.8620234 54.4094301 16.0418745 54.4094301 16.7789277 53.7639761 17.5622043 53.2951638 18.0748638 53.2951638 18.2547149 53.2951638 18.2547149 53.5186868 18.1429383 53.8083458 18.0320021 54.1197711 15.6611617 60.5341274 15.5502255 60.8237864 15.3468426 61.3352941 15.9511085 61.4047787 16.1973532 61.4047787 16.3982149 61.4047787 16.4889809 61.3352941 16.6007574 61.1352117 17.9193851 58.6856676 18.8362894 56.9485508 20.0212894 55.4784895 21.2499915 53.9422921 22.5711404 52.828863 23.1073319 52.828863 23.4426617 52.828863 23.4645128 53.0942443 23.4645128 53.3629741 23.4645128 53.8083458 23.1737255 54.5885833 22.9955553 54.9879109 22.4820553 56.1021772 21.6542362 58.2855029 21.1844383 59.3763285 20.7146404 60.4905948 20.6474064 60.6463075 20.6474064 60.847227 20.6474064 61.1126082 20.9827362 61.4047787 21.1844383 61.4047787 22.4131404 61.4047787 24.1797149 60.3332079 25.0302255 58.9083534 25.0302255 58.7308745 24.9865234 58.5517213 24.6722043 58.5969282M30.2175 58.7743234C28.9442553 59.9329594 28.2719149 60.2217812 28.0483617 60.2217812 27.8475 60.2217812 27.7130319 60.0669057 27.7130319 59.799013 27.7130319 58.2176088 29.0770426 55.3000897 30.5091277 54.0309479 31.2007979 53.4072602 31.5588191 53.1636452 32.0950106 53.1636452 32.6774255 53.1636452 33.0572979 53.5403693 33.2127766 53.9639747 32.8564362 55.2791605 31.9168404 57.1945935 30.2175 58.7743234M35.4953723 51.8250188C35.3609043 51.5353598 34.7793298 51.3126739 34.3994574 51.4918272L33.7733404 52.9183559C33.6624043 52.694833 33.4161596 52.4947506 33.3253936 52.4478693 33.191766 52.3834077 33.0354468 52.313923 32.7892021 52.313923 32.2067872 52.313923 31.6479043 52.4729843 30.7772234 52.9618885 29.8594787 53.4742333 28.8988723 54.3649766 27.8248085 55.8350379 26.3490213 57.862651 25.8582128 59.6441375 25.8582128 60.1556452 25.8582128 60.779333 26.2145532 61.4055322 26.8415106 61.4055322 27.892883 61.4055322 30.1737979 59.8668234 31.7596809 57.9061835L31.8285957 57.9279498 31.0898617 59.9329594C30.9116915 60.444467 30.8654681 60.6462238 30.8654681 60.8010992 30.8654681 60.9810897 31.0007766 61.4055322 31.515117 61.4055322 32.7446596 61.4055322 34.3322234 60.1556452 35.2709787 58.9082697 35.2709787 58.7307908 35.1146596 58.6194479 34.9583404 58.6194479 33.6842553 59.7337142 33.0354468 60.1112755 32.6538936 60.1112755 32.4757234 60.1112755 32.3639468 59.9773291 32.4984149 59.5989307 33.2127766 57.5713176 35.1592021 52.6487889 35.4953723 51.8250188M41.107734 58.4399598C41.107734 58.2172739 40.973266 58.1067682 40.7497128 58.1293716 39.7210319 59.2880077 38.6696596 60.3779962 38.1771702 60.3779962 37.9326064 60.3779962 37.9099149 60.1561475 38.089766 59.6438027L41.621234 49.1298506C42.4263617 46.7246762 42.6499149 46.1018257 42.9415426 45.2998218L42.829766 45.1658755C41.7994043 45.2554521 40.414383 45.6782203 40.0109787 45.8330958 39.8992021 45.9009061 39.8992021 46.1018257 40.0109787 46.189728L40.414383 46.3688812C40.7497128 46.5245939 40.973266 46.7464425 40.4370745 48.3060805L36.881234 58.8417989C36.5005213 59.9778314 36.3887447 60.3779962 36.3887447 60.7354655 36.3887447 61.0920977 36.5904468 61.4051973 37.2611064 61.4051973 39.116766 61.4051973 40.5261596 59.5533889 41.107734 58.4399598"/>
    <g transform="translate(37.82 51.177)">
      <mask id="idc-logo-2-d" fill="#fff">
        <use xlink:href="#idc-logo-2-c"/>
      </mask>
      <path fill="#004A84" d="M11.5171915,1.07131973 C11.3373404,0.959139655 11.0473936,0.872074521 10.890234,0.872074521 C10.7339149,0.872074521 10.3985851,0.914769923 10.3540426,1.56106111 C10.3313511,2.14037912 9.99518085,4.3898408 9.52790426,5.68158602 C9.03541489,7.04030441 8.38576596,8.42162625 7.64787234,9.51245192 L7.55962766,9.51245192 C7.87226596,7.66482931 7.91680851,6.0382182 7.89411702,4.61252663 C7.84873404,3.05456303 7.67056383,0.825193295 6.53010638,0.825193295 C5.43503191,0.825193295 4.45005319,2.20818946 3.98025532,3.70001705 C4.0256383,3.89926226 4.16010638,4.05581207 4.40551064,3.98967605 C4.87446809,3.05456303 5.25518085,2.29692893 5.70228723,2.29692893 C6.12670213,2.29692893 6.50825532,3.16590594 6.5536383,5.63805345 C6.57464894,7.53088295 6.41917021,9.58026226 6.10569149,10.7154577 C5.68043617,12.1863561 4.69629787,13.5886071 4.13741489,14.0574193 C3.6012234,14.502791 3.19781915,14.6819443 2.90787234,14.6819443 C2.54985106,14.6819443 2.34898936,14.3906109 2.28091489,14.279268 C2.12543617,14.0574193 1.90188298,13.923473 1.67832979,13.923473 C1.18584043,13.923473 0.784117021,14.3253121 0.784117021,14.8820266 C0.784117021,15.437904 1.2312234,15.9067163 1.94558511,15.9067163 C2.66162766,15.9067163 3.77939362,15.5492469 5.43503191,13.6564174 C7.22345745,11.6296416 8.00589362,10.1579059 9.1245,8.31028333 C11.1137872,4.94739253 11.7407447,2.0742431 11.7180532,1.51752854 C11.7180532,1.27056494 11.6516596,1.15922203 11.5171915,1.07131973" mask="url(#idc-logo-2-d)"/>
    </g>
    <path fill="#004A84" d="M59.0402298 52.4481205C59.0856128 52.1827393 58.8166766 51.9592163 58.4813468 52.0027489 58.2577936 52.2723159 57.9451553 52.7838236 57.1627191 52.7838236 56.6265277 52.7838236 56.0432723 52.5594634 55.5297723 52.4045879 55.1280489 52.293245 54.545634 52.1827393 54.0993681 52.1827393 53.5841872 52.1827393 52.6000489 52.3367776 51.7730702 53.0726454 51.1914957 53.6084308 50.7670809 54.2095151 50.7670809 54.6766531 50.7670809 55.0768178 51.036017 55.5012603 51.5949 55.5012603 52.1302511 55.5012603 52.3764957 55.1220247 52.3764957 54.8767354 52.1983255 54.6992565 52.0193149 54.3652278 52.0193149 54.031199 52.0193149 53.8085132 52.153783 53.2291952 52.9816021 53.2291952 53.6068787 53.2291952 54.5010915 53.3405381 55.5297723 53.6745669 55.9541872 53.8085132 56.0432723 53.9198561 55.7987085 54.1651454 53.7640383 56.0797412 52.4000277 57.3723236 50.364517 59.1981799 49.3585277 60.1106895 49.0669 60.4673216 49.0669 60.7787469 49.0669 61.0240362 49.179517 61.4694079 49.9384213 61.4049462 50.1628149 60.6464749 50.4762936 60.2446358 51.2368787 60.2446358 51.7949213 60.2446358 52.5555064 60.6900075 53.406017 61.0466397 53.8749745 61.246722 54.6355596 61.6050285 55.2398255 61.6050285 55.776017 61.6050285 56.2668255 61.4258753 57.0282511 60.8239538 57.7216021 60.2672393 58.1914 59.4878389 58.1914 58.8850803 58.1914 58.3961761 57.8560702 57.7515592 57.2291128 57.7515592 57.0509426 57.7515592 56.6038362 57.8394615 56.7820064 58.4187795 56.939166 58.9302872 57.0055596 59.2651531 57.0055596 59.4878389 57.0055596 60.1106895 56.4466766 60.5125285 55.9768787 60.5125285 55.5524638 60.5125285 55.0599745 60.3124462 54.569166 60.0897603 53.6959638 59.6870841 52.8244426 59.2199462 51.7730702 59.2651531L51.7503787 59.1981799C54.545634 56.3467967 57.8106872 53.5849902 59.0402298 52.4481205M64.4258447 54.7225297C63.5997064 55.5019301 62.9063553 55.9246983 61.4305681 56.3700699 61.6978234 55.7237787 62.2130043 54.6999262 63.0845255 53.7631389 63.8888128 52.894999 64.4712277 52.6949167 64.783866 52.6949167 65.1855894 52.6949167 65.297366 52.9829013 65.297366 53.2064243 65.297366 53.4073439 65.1191957 54.0754013 64.4258447 54.7225297M65.2309723 52.0025814C64.5830043 52.0025814 63.7106426 52.1825718 62.548334 53.072478 60.1102596 54.9452155 59.2160468 57.660978 59.2160468 59.0649033 59.2160468 60.1557289 59.6850043 61.4047787 61.0271638 61.4047787 61.9667596 61.4047787 63.2416851 61.0464722 64.6056957 59.3763285 64.6493979 59.1762462 64.5149298 58.9970929 64.3140681 58.9970929 63.3307702 59.8443036 62.7718872 60.2888381 61.9667596 60.2888381 61.3616532 60.2888381 60.8926957 59.7764933 60.8926957 59.0196964 60.8926957 58.1289531 61.0490149 57.417363 61.2061745 57.0381274 64.4258447 56.1465469 66.640366 55.0331178 66.640366 53.3412079 66.640366 52.7593784 66.1251851 52.0025814 65.2309723 52.0025814M77.3506649 57.7949243C76.6119309 58.6421351 75.136984 59.7990967 74.8024947 59.7990967 74.6218032 59.7990967 74.510867 59.6651504 74.6453351 59.2423822L76.6573138 53.3855776 79.0953883 53.3855776C79.3853351 53.2290278 79.5198032 52.7844933 79.3626436 52.559296L76.92625 52.559296 77.5742181 50.3784818C77.3960479 50.1549588 76.9472606 50.1097519 76.7237074 50.2436983L75.4731543 52.4479531 73.6830479 52.7593784C73.4594947 52.8506293 73.3931011 53.1637289 73.438484 53.3855776L75.1815266 53.3855776 73.0796223 59.5328784C72.8560691 60.2009358 72.766984 60.5123611 72.766984 60.801183 72.766984 61.07075 73.0577713 61.4047787 73.3704096 61.4047787 74.3100053 61.4047787 76.4110691 60.044386 77.6633032 58.1959262 77.7086862 57.9280335 77.5742181 57.7949243 77.3506649 57.7949243M87.2346574 52.0025814C86.6303915 52.0025814 85.9160298 52.2939148 85.1092213 52.8715584 84.304934 53.4517136 83.1426255 54.3432941 81.5760723 56.5475489L81.5374128 56.5090393 81.5323702 56.5249454 81.5323702 56.5040163 81.5374128 56.5090393 83.8351362 49.8435335C84.2822426 48.5735546 84.9974447 46.5459416 85.4445511 45.2994033L85.355466 45.1654569C84.5730298 45.2106638 83.0972426 45.5220891 82.7383809 45.6778017 82.6274447 45.7673784 82.6274447 45.8561178 82.6719872 45.9674607L83.1426255 46.278886C83.5006468 46.5241753 83.3888702 46.8356006 82.8963809 48.3056619L78.6463489 60.8237864C78.4454872 61.3352941 79.0497532 61.4047787 79.2968383 61.4047787 79.4968596 61.4047787 79.6094766 61.3143649 79.6977213 61.1352117 80.2801362 60.0000163 81.3979021 57.8401312 82.4038915 56.5040163 83.5670404 54.9879109 84.304934 54.2537174 85.2436894 53.5404531 85.6681043 53.2064243 86.1387426 52.9402059 86.4513809 52.9402059 86.7648596 52.9402059 86.9220191 53.1838209 86.9220191 53.6082634 86.9220191 54.8338726 85.9160298 57.9062672 85.310083 59.3537251 84.9747532 60.1331255 84.7512 60.4671542 84.4158702 60.4671542 84.2603915 60.4671542 84.0141468 60.3122787 83.8351362 60.1783324 83.7233596 60.0895929 83.611583 60.0435489 83.5216574 60.0435489 83.2308702 60.0435489 82.9190723 60.3784148 82.9190723 60.7576504 82.9190723 60.9351293 83.0081574 61.4047787 83.7452106 61.4047787 84.0359979 61.4047787 84.6394234 61.269158 85.3781574 60.5341274 85.9588915 59.9556466 86.3841468 59.465068 86.8320936 58.7082711 87.6136894 57.2834167 88.5759766 55.0331178 88.5759766 53.4969205 88.5759766 52.7175201 88.2179553 52.0025814 87.2346574 52.0025814M94.7246138 54.7225297C93.8984755 55.5019301 93.204284 55.9246983 91.7293372 56.3700699 91.9957521 55.7237787 92.510933 54.6999262 93.3824543 53.7631389 94.1875819 52.894999 94.7699968 52.6949167 95.0826351 52.6949167 95.4851989 52.6949167 95.597816 52.9829013 95.597816 53.2064243 95.597816 53.4073439 95.4179649 54.0754013 94.7246138 54.7225297M95.5297415 52.0025814C94.8817734 52.0025814 94.0094117 52.1825718 92.8471032 53.072478 90.4081883 54.9452155 89.5139755 57.660978 89.5139755 59.0649033 89.5139755 60.1557289 89.9837734 61.4047787 91.3250926 61.4047787 92.2646883 61.4047787 93.5404543 61.0464722 94.9044649 59.3763285 94.9498479 59.1762462 94.8128585 58.9970929 94.6119968 58.9970929 93.6286989 59.8443036 93.069816 60.2888381 92.2646883 60.2888381 91.6604223 60.2888381 91.1931457 59.7764933 91.1931457 59.0196964 91.1931457 58.1289531 91.347784 57.417363 91.5049436 57.0381274 94.7246138 56.1465469 96.9391351 55.0331178 96.9391351 53.3412079 96.9391351 52.7593784 96.4231138 52.0025814 95.5297415 52.0025814M109.68402 47.8380216C109.884882 47.1481979 109.907573 47.0812247 110.534531 47.0812247L111.764914 47.0812247C112.925541 47.0812247 113.621414 47.1481979 114.134914 47.2813071 115.118212 47.5483626 115.051818 48.1050772 114.91735 49.2637132 114.983744 49.4420293 115.386307 49.4637956 115.476233 49.2863167 115.698946 48.4843128 116.235978 46.7036634 116.392297 46.3235906 115.744329 46.3905638 114.671105 46.3905638 113.23818 46.3905638L109.080595 46.3905638C108.610797 46.3905638 108.185541 46.3905638 107.80651 46.3687975 107.403105 46.3687975 107.045084 46.3470312 106.666052 46.3235906 106.419807 46.4131672 106.397116 46.7036634 106.531584 46.8803052L106.933307 46.9698818C108.141839 47.1925676 108.119148 47.5039929 107.448488 49.5985791L104.832244 57.8839987C104.117041 60.1560638 103.893488 60.4231193 102.819424 60.5344623L102.126914 60.6014354C101.968914 60.7353818 101.968914 61.0459699 102.148765 61.15815 103.020286 61.1121059 103.780871 61.092014 104.675084 61.092014 105.637371 61.092014 106.419807 61.1121059 107.715744 61.15815 107.872903 61.0710849 107.939297 60.7579852 107.80651 60.6014354L106.933307 60.5344623C105.794531 60.4448856 105.860084 59.9559814 106.508893 57.8839987L107.49219 54.6768205C107.671201 54.1201059 107.715744 54.0539699 108.208233 54.0539699L109.863871 54.0539699C111.696839 54.0539699 112.188488 54.2975849 112.165797 55.0334527L112.143105 55.8789891C112.300265 56.0137726 112.590212 56.0355389 112.72468 55.8789891 112.814605 55.3222745 113.037318 54.4767381 113.307095 53.6512937 113.576031 52.8291979 113.91052 51.9367803 114.06852 51.5349412 114.022297 51.3792285 113.597882 51.3574623 113.486105 51.4914086L113.105393 52.1820695C112.612903 53.1180197 112.165797 53.2745695 110.042041 53.2745695L108.49818 53.2745695C108.030063 53.2745695 107.98468 53.1841557 108.141839 52.717855L109.68402 47.8380216zM123.688115 58.2625646C123.10654 58.9532255 121.91986 59.9996814 121.496285 59.9996814 121.271891 59.9996814 121.294583 59.733463 121.40636 59.4421297 122.344274 56.7925033 123.799891 53.1407906 124.022604 52.5371948 123.932679 52.2726508 123.395647 52.0491278 122.926689 52.1370301 122.189636 53.4974228 121.025647 56.0800761 118.990977 58.0850856 117.827828 59.220281 116.933615 59.9327082 116.598285 59.9327082 116.35204 59.9327082 116.241104 59.7100224 116.441126 59.1767485L118.946434 52.6728155C119.080902 52.2935799 118.566562 52.0022466 118.276615 52.0022466 117.223562 52.0022466 114.987189 53.7636412 114.407296 54.6543845 114.385445 54.8544669 114.563615 55.0336201 114.787168 54.9884132 115.32336 54.4316987 116.486509 53.4522159 116.910923 53.4522159 117.090774 53.4522159 117.068083 53.6749017 116.910923 54.0976699L114.855243 59.50994C114.47453 60.49026 114.586306 61.405281 115.503211 61.405281 116.710062 61.405281 119.483466 58.5522236 121.09204 56.5254477L121.138264 56.547214 119.617934 60.6233692C119.483466 60.9808385 119.818796 61.405281 120.176817 61.405281 121.360977 61.405281 123.507423 59.6438864 124.089838 58.5739898 124.066306 58.3077715 123.888136 58.2173577 123.688115 58.2625646M129.299468 53.3859125L131.735862 53.3859125C132.026649 53.2293626 132.161957 52.783991 132.005638 52.5596308L129.566723 52.5596308 130.217213 50.3779795C130.037362 50.1552937 129.590255 50.1100868 129.365862 50.2440331L128.113628 52.4482879 126.325202 52.7597132C126.101649 52.850127 126.033574 53.1632266 126.078957 53.3859125L127.822 53.3859125 125.720936 59.5332132C125.497383 60.2012707 125.408298 60.512696 125.408298 60.8006807 125.408298 61.0710849 125.698245 61.4051136 126.012564 61.4051136 126.950479 61.4051136 129.053223 60.0438837 130.305457 58.1962611 130.34916 57.9283684 130.217213 57.7952592 129.992819 57.7952592 129.254085 58.6416328 127.778298 59.7985944 127.442968 59.7985944 127.263117 59.7985944 127.15134 59.6654852 127.285809 59.2418799L129.299468 53.3859125zM141.127785 58.2625646C140.547051 58.9532255 139.362051 59.9996814 138.937636 59.9996814 138.713243 59.9996814 138.735094 59.733463 138.84687 59.4421297 139.785626 56.7925033 141.239562 53.1407906 141.463115 52.5371948 141.37403 52.2726508 140.836998 52.0491278 140.36804 52.1370301 139.629306 53.4974228 138.467838 56.0800761 136.431487 58.0850856 135.269179 59.220281 134.375806 59.9327082 134.039636 59.9327082 133.793391 59.9327082 133.682455 59.7100224 133.883317 59.1767485L136.387785 52.6728155C136.522253 52.2935799 136.007072 52.0022466 135.717126 52.0022466 134.665753 52.0022466 132.429381 53.7636412 131.847806 54.6543845 131.826796 54.8544669 132.005806 55.0336201 132.228519 54.9884132 132.764711 54.4316987 133.92786 53.4522159 134.352274 53.4522159 134.530445 53.4522159 134.510274 53.6749017 134.352274 54.0976699L132.294913 59.50994C131.91504 60.49026 132.026817 61.405281 132.945402 61.405281 134.151413 61.405281 136.924817 58.5522236 138.534232 56.5254477L138.579615 56.547214 137.058445 60.6233692C136.924817 60.9808385 137.260147 61.405281 137.616487 61.405281 138.802328 61.405281 140.949615 59.6438864 141.531189 58.5739898 141.508498 58.3077715 141.329487 58.2173577 141.127785 58.2625646M150.407764 53.0939931C150.407764 52.7599644 150.295987 52.0023303 149.513551 52.0023303 148.954668 52.0023303 148.394945 52.4945831 147.880604 53.1634778 147.300711 53.8976713 146.203115 55.6791579 145.532455 56.9265333L145.420679 56.9265333 146.383806 54.1203571C146.583828 53.5184356 146.986391 52.0023303 145.868626 52.0023303 144.793721 52.0023303 143.945732 52.9399548 143.229689 54.1421234 143.207838 54.4091789 143.363317 54.5422881 143.58687 54.4995927 143.990274 53.9638073 144.59286 53.3409567 145.174434 53.3409567 145.376136 53.3409567 145.420679 53.5636425 145.352604 53.8089318 144.75086 55.9905831 143.341466 59.932792 143.050679 60.8235352 142.89436 61.3141138 143.543168 61.4053648 143.787732 61.4053648 143.967583 61.4053648 144.07936 61.3141138 144.168445 61.1349605 145.352604 58.5740736 146.60736 55.8566368 147.97137 54.1203571 148.3067 53.6741483 148.550423 53.4522996 148.752966 53.4522996 148.97736 53.4522996 149.110147 53.7411215 149.221923 54.3204395 149.311849 54.7875774 149.66903 54.7658111 149.937126 54.4317824 150.206902 54.0751502 150.407764 53.428859 150.407764 53.0939931M153.676683 53.7635575C154.481811 52.8954176 155.062545 52.6953352 155.376864 52.6953352 155.779428 52.6953352 155.891204 52.9824828 155.891204 53.2068429 155.891204 53.4069253 155.713034 54.0749828 155.018002 54.7229483 154.191023 55.5015115 153.498513 55.9242797 152.021885 56.3696513 152.291662 55.7241973 152.804321 54.6995077 153.676683 53.7635575M157.231683 53.3407893C157.231683 52.7597969 156.719023 52.0021628 155.824811 52.0021628 155.175162 52.0021628 154.30364 52.1821533 153.140491 53.0728966 150.702417 54.9447969 149.807364 57.6605594 149.807364 59.0644847 149.807364 60.1561475 150.277162 61.4051973 151.621002 61.4051973 152.558917 61.4051973 153.833843 61.0460536 155.197853 59.37591 155.241555 59.1766648 155.107087 58.9975115 154.906226 58.9975115 153.922928 59.8447222 153.364045 60.2892567 152.558917 60.2892567 151.955491 60.2892567 151.486534 59.7769119 151.486534 59.0192778 151.486534 58.1293716 151.641172 57.4169444 151.799172 57.0377088 155.018002 56.1469655 157.231683 55.0335364 157.231683 53.3407893"/>
  </g>
</svg>
