<svg xmlns="http://www.w3.org/2000/svg" xmlns:xlink="http://www.w3.org/1999/xlink" width="107" height="113" viewBox="0 0 107 113">
  <defs>
    <polygon id="sc-magazine-logo-2-a" points="0 112.159 106.978 112.159 106.978 .29 0 .29"/>
  </defs>
  <g fill="none" fill-rule="evenodd">
    <path fill="#EC1C23" d="M8.83947761,90.9303802 L1.10673134,112.235756 L1.85413433,112.235756 L4.61457463,104.618511 L13.8133806,104.618511 L16.5738209,112.235756 L17.3483731,112.235756 L9.61642537,90.9303802 L8.83947761,90.9303802 Z M9.21397761,91.9032175 L13.584209,103.959878 L4.84374627,103.959878 L9.21397761,91.9032175 Z"/>
    <polygon fill="#EC1C23" points="40.145 91.044 35.086 110.947 29.537 91.044 28.789 91.044 23.73 110.947 18.181 91.044 17.407 91.044 23.328 112.236 24.103 112.236 29.162 92.448 34.681 112.236 35.458 112.236 40.864 91.044"/>
    <path fill="#EC1C23" d="M48.078853,90.9303802 L40.3445097,112.235756 L41.0935097,112.235756 L43.852353,104.618511 L53.0503604,104.618511 L55.8108007,112.235756 L56.5861515,112.235756 L48.8534052,90.9303802 L48.078853,90.9303802 Z M48.4509575,91.9032175 L52.8211888,103.959878 L44.0831216,103.959878 L48.4509575,91.9032175 Z"/>
    <g transform="translate(0 .506)">
      <path fill="#EC1C23" d="M59.6054679 90.5385407L65.9001022 90.5385407C70.6440351 90.5385407 73.0291769 92.8580776 73.0291769 96.0088615 73.0291769 98.8724872 70.9889903 100.962139 67.0507515 101.306569L73.0866694 111.730167 72.2538261 111.730167 66.245856 101.363046 60.3225276 101.363046 60.3225276 111.730167 59.6054679 111.730167 59.6054679 90.5385407zM65.929647 100.733049C70.15455 100.733049 72.3113187 98.8144193 72.3113187 96.0088615 72.3113187 93.2025082 70.15455 91.1971747 65.929647 91.1971747L60.3225276 91.1971747 60.3225276 100.733049 65.929647 100.733049zM76.1340134 90.5385407L80.0139612 90.5385407C87.2588194 90.5385407 90.9375433 94.0329597 90.9375433 101.133956 90.9375433 108.237339 87.2588194 111.730167 80.0139612 111.730167L76.1340134 111.730167 76.1340134 90.5385407zM80.0722522 111.070738C86.8563716 111.070738 90.2188866 107.834841 90.2188866 101.133956 90.2188866 94.4330718 86.8563716 91.1971747 80.0722522 91.1971747L76.8510731 91.1971747 76.8510731 111.070738 80.0722522 111.070738zM92.403603 106.460777L93.0943119 106.231687C94.0708866 109.381676 95.8531552 111.500759 100.107603 111.500759 103.844618 111.500759 106.260901 109.638607 106.260901 106.74714 106.260901 103.68306 104.736551 102.451701 100.05011 100.93398 95.191991 99.35819 93.6684388 98.2708076 93.6684388 94.9490017 93.6684388 92.3995793 95.9114463 90.1078832 99.7339015 90.1078832 103.585901 90.1078832 105.598939 92.3717385 106.518021 95.0070697L105.82811 95.2353643C104.880282 92.6294648 103.069267 90.7681081 99.7339015 90.7681081 96.3130955 90.7681081 94.3870955 92.7440099 94.3870955 94.9490017 94.3870955 97.8404683 95.8827 98.8435328 100.308827 100.275346 104.764499 101.707159 106.977961 102.937722 106.977961 106.74714 106.977961 110.096787 104.103334 112.158597 100.107603 112.158597 95.2215358 112.158597 93.3817746 109.668038 92.403603 106.460777"/>
      <mask id="sc-magazine-logo-2-b" fill="#fff">
        <use xlink:href="#sc-magazine-logo-2-a"/>
      </mask>
      <polygon stroke="#FEFEFE" stroke-width=".5" points=".2 86.659 105.999 86.659 105.999 .488 .2 .488" mask="url(#sc-magazine-logo-2-b)"/>
      <path fill="#EC1C23" d="M105.998512 14.8583997L105.998512.488566378 87.3773179.488566378C97.1957657 1.99276537 103.674057 7.38831363 105.998512 14.8583997M81.8935679 13.1039516C74.6231575 13.1039516 70.7344261 17.2927998 70.7344261 24.0191386L70.7344261 48.069618C70.7344261 54.3902765 74.9313813 58.5775337 81.9917843 58.5775337 88.2329187 58.5775337 91.6082097 55.2080007 91.6082097 49.5976805L91.6082097 45.2187194 105.998113 45.2187194 105.998113 26.3609481 91.8142246 26.3609481 91.8142246 22.3860764C91.8142246 16.2682581 88.1291127 13.1039516 81.8935679 13.1039516M18.9861119.488168652L.199626866.488168652.199626866 16.082202C2.09847761 8.27643535 8.69654478 2.11884445 18.9861119.488168652M24.7908619 59.0824864C31.4440261 59.0824864 34.2076604 55.9213617 34.2076604 51.3347878 34.2076604 40.2119879 4.66527985 42.2308441.199227612 25.3768154L.199227612 47.3543479 13.4352873 47.3543479 13.4352873 49.3970676C13.4352873 56.1265882 18.1424888 59.0824864 24.7908619 59.0824864M22.1676851 81.4560743L25.7106627 81.4560743C25.7218418 81.4560743 23.9483567 77.0739314 23.9483567 77.0739314L22.1676851 81.4560743z" mask="url(#sc-magazine-logo-2-b)"/>
      <path fill="#EC1C23" d="M100.182822,83.4967258 L95.2408597,83.4967258 L95.2408597,75.5986868 L100.019128,75.5986868 L100.019128,76.2692525 L95.9970463,76.2692525 L95.9970463,80.2210561 L99.5887328,80.2210561 L99.5887328,80.8876446 L95.9970463,80.8876446 L95.9970463,82.8293419 L100.182822,82.8293419 L100.182822,83.4967258 Z M87.5967478,83.6621798 L87.5280761,83.6621798 L82.1884567,77.2890215 L82.1884567,83.4967258 L81.4785836,83.4967258 L81.4785836,75.4372101 L81.5472552,75.4372101 L86.8860761,81.8143457 L86.8860761,75.5986868 L87.5967478,75.5986868 L87.5967478,83.6621798 Z M73.0271806,83.4967258 L73.7913522,83.4967258 L73.7913522,75.5986868 L73.0271806,75.5986868 L73.0271806,83.4967258 Z M65.9124791,83.4967258 L60.0330687,83.4967258 L60.0330687,83.4505896 L64.6524343,76.2692525 L60.6040015,76.2692525 L60.6040015,75.5986868 L65.8877254,75.5986868 L65.8877254,75.6464139 L61.2667627,82.8293419 L65.9124791,82.8293419 L65.9124791,83.4967258 Z M52.9199642,83.4967258 L52.3753821,82.1285491 L48.2798373,82.1285491 L47.7232776,83.4967258 L46.960703,83.4967258 L50.2928746,75.4173238 L50.3559567,75.4173238 L53.7009045,83.4967258 L52.9199642,83.4967258 Z M40.5223373,82.4849114 C39.7972925,83.1292272 38.8774119,83.5913846 37.3858,83.5913846 C35.0605463,83.5913846 33.2487328,81.8867318 33.2487328,79.548104 C33.2487328,77.2134536 35.0437776,75.5024372 37.2676209,75.5024372 C38.6570239,75.5024372 39.576106,75.9876626 40.2556358,76.7345917 L39.7174418,77.238908 C39.1688672,76.6287966 38.4701731,76.1952755 37.2460612,76.1952755 C35.4055015,76.1952755 34.0392552,77.6350429 34.0392552,79.548104 C34.0392552,81.4619606 35.4238672,82.9009326 37.3858,82.9009326 C38.5508224,82.9009326 39.2838522,82.5660474 39.7972925,82.137299 L39.7972925,80.8940082 L37.4097552,80.8940082 L37.4097552,80.2210561 L40.5223373,80.2210561 L40.5223373,82.4849114 Z M26.5364791,83.4967258 L25.9903,82.1285491 L21.9011433,82.1285491 L21.3365985,83.4967258 L20.5772179,83.4967258 L23.9141806,75.4173238 L23.9740687,75.4173238 L27.3238075,83.4967258 L26.5364791,83.4967258 Z M13.6070463,83.4967258 L12.8820015,83.4967258 L12.8820015,77.2985669 L9.84048657,81.1000301 L9.79417313,81.1000301 L6.78699403,77.2985669 L6.78699403,83.4967258 L6.06035224,83.4967258 L6.06035224,75.4372101 L6.10826269,75.4372101 L9.84048657,80.034125 L13.5495537,75.4372101 L13.6070463,75.4372101 L13.6070463,83.4967258 Z M81.581591,71.7208602 C64.187703,71.7208602 54.1592478,60.9154456 54.1592478,46.8494748 L54.1592478,24.9300102 C54.1592478,12.4867607 62.3335687,2.60406993 75.9768672,0.488168652 L30.4148299,0.488168652 C42.7445836,2.35986629 49.9654866,10.2563144 49.9654866,20.5542309 L49.9654866,23.9134231 L35.0246134,23.9134231 L35.0246134,21.8746806 C35.0246134,16.5777683 31.444106,12.6999417 24.5881209,12.6999417 C18.7550239,12.6999417 15.3789343,15.6550445 15.3789343,20.1485506 C15.3789343,31.665099 50.1667104,28.3965883 50.1667104,50.1052582 C50.1667104,62.0386232 41.4741582,71.7208602 24.9969567,71.7208602 C12.1218224,71.7208602 3.61532239,67.0245139 0.199307463,59.2609062 L0.199307463,86.6594414 L105.998352,86.6594414 L105.998352,56.2708036 C103.418375,65.5457694 94.3744791,71.7208602 81.581591,71.7208602 L81.581591,71.7208602 Z" mask="url(#sc-magazine-logo-2-b)"/>
      <path fill="#EC1C23" d="M48.5449418,81.4560743 L52.0927104,81.4560743 C52.1038896,81.4560743 50.3320015,77.0739314 50.3320015,77.0739314 L48.5449418,81.4560743 Z" mask="url(#sc-magazine-logo-2-b)"/>
    </g>
  </g>
</svg>
