<svg width="40" height="40" viewBox="0 0 40 40" xmlns="http://www.w3.org/2000/svg"><g fill="none" fill-rule="evenodd"><path d="M3.32 0l33.419.048A3.266 3.266 0 0140 3.32l-.048 33.417A3.266 3.266 0 0136.682 40l-33.42-.048A3.267 3.267 0 010 36.68L.048 3.263A3.268 3.268 0 013.32 0" fill="#9BC0E1"/><g stroke="#FEFEFE" stroke-width="2"><path d="M18.742 28.67c9.273 0 12-13 10-19-3.048 2.417-5.512 3.126-9.382 4-4.428 1-8 3.91-8 8 0 3.92 2.76 7 7.382 7zM7.36 27.67c7.068-2.733 12.6-5.867 16-10"/></g></g></svg>