<svg width="40" height="40" viewBox="0 0 40 40" xmlns="http://www.w3.org/2000/svg"><g fill="none" fill-rule="evenodd"><path d="M3.32 0l33.419.048A3.266 3.266 0 0140 3.32l-.048 33.417A3.266 3.266 0 0136.682 40l-33.42-.048A3.267 3.267 0 010 36.68L.048 3.263A3.268 3.268 0 013.32 0" fill="#9BC0E1"/><path d="M28.457 29.069L23 18.7V9h-6v9.7l-5.457 10.367c-.7 1.332.265 2.933 1.77 2.933h13.374c1.505 0 2.471-1.6 1.77-2.932z" stroke="#FEFEFE" stroke-width="2"/><path d="M25 10H15a1 1 0 010-2h10a1 1 0 010 2" fill="#FEFEFE"/><path d="M16 22h8M20 17h3M20 13h3" stroke="#FEFEFE" stroke-width="2"/></g></svg>