<svg xmlns="http://www.w3.org/2000/svg" viewBox="0 0 40 40"><g fill="none"><path fill="#9BC0E1" d="M3.3 0h33.4C38.5 0 40 1.5 40 3.3v33.4c0 1.8-1.5 3.3-3.3 3.3H3.3C1.5 40 0 38.5 0 36.7V3.3C.1 1.5 1.5 0 3.3 0"/><g fill="#FFF"><path d="M27.6 32.2l-6.2-14.8c.4-.4.7-.9.7-1.5 0-1.1-.9-2.1-2.1-2.1-1.2 0-2.1.9-2.1 2.1 0 .6.3 1.1.7 1.5l-6.2 14.8c-.2.4 0 .9.4 1 .1 0 .2.1.3.1.3 0 .6-.2.7-.5l1.5-3.7h9.1l1.5 3.7c.1.3.4.5.7.5.1 0 .2 0 .3-.1.6-.2.8-.6.7-1zM22 23h-4l2-4.8 2 4.8zm-5.9 4.5l1.2-2.9h5.3l1.2 2.9h-7.7z"/><path d="M20 6.7c-5.1 0-9.2 4.1-9.2 9.2 0 3 1.5 5.8 4 7.5l.5-1.2c-2-1.5-3.2-3.8-3.2-6.3 0-4.3 3.5-7.8 7.8-7.8s7.8 3.5 7.8 7.8c0 2.5-1.2 4.8-3.2 6.3l.5 1.3c2.5-1.7 4-4.5 4-7.5.2-5.2-3.9-9.3-9-9.3z"/><path d="M20 9c-3.7 0-6.8 3-6.8 6.8 0 2.1.9 4 2.6 5.3l.5-1.2c-1.2-1.1-1.8-2.5-1.8-4.1 0-3.1 2.5-5.5 5.5-5.5 3.1 0 5.5 2.5 5.5 5.5 0 1.6-.7 3-1.8 4.1l.5 1.2c1.6-1.3 2.6-3.2 2.6-5.3 0-3.7-3.1-6.8-6.8-6.8z"/><path d="M20 11.3c-2.5 0-4.5 2-4.5 4.5 0 1.1.4 2.2 1.2 3l.5-1.2c-.4-.5-.6-1.2-.6-1.8 0-1.8 1.5-3.3 3.3-3.3 1.8 0 3.3 1.5 3.3 3.3 0 .7-.2 1.3-.6 1.8l.5 1.2c.8-.8 1.2-1.9 1.2-3 .2-2.5-1.8-4.5-4.3-4.5z"/></g></g></svg>