<svg xmlns="http://www.w3.org/2000/svg" viewBox="0 0 40 40"><g fill="none" fill-rule="evenodd"><path fill="#9BC0E1" fill-rule="nonzero" d="M3.3 0h33.4C38.5 0 40 1.5 40 3.3v33.4c0 1.8-1.5 3.3-3.3 3.3H3.3C1.5 40 0 38.5 0 36.7V3.3C.1 1.5 1.5 0 3.3 0"/><g fill="#FFF"><path d="M31.9 17.1h-.2s-1.4-5.5-1.5-5.7c-1-1.8-2.5-1.7-2.5-1.7H12.2c-2-.1-2.5 1.4-2.5 1.4l-1.2 6h-.4c-.7 0-1.2.5-1.2 1.2v6.5c0 .7.5 1.2 1.2 1.2H9v3.1c0 .7.5 1.2 1.2 1.2H12c.7 0 1.2-.5 1.2-1.2V26h14.1v3.1c0 .7.5 1.2 1.2 1.2h1.8c.7 0 1.2-.5 1.2-1.2V26h.4c.7 0 1.2-.5 1.2-1.2v-6.5c0-.7-.5-1.2-1.2-1.2zm-21.6-5.3s.5-1.3 2.1-1.3h14.5s1.3-.1 2.1 1.2c.1.2 1.3 5.1 1.3 5.1H9.7l.6-5zM11.6 23c-1 0-1.7-.8-1.7-1.7 0-1 .8-1.7 1.7-1.7 1 0 1.7.8 1.7 1.7 0 .9-.8 1.7-1.7 1.7zm11.2 0h-5.3c-.9 0-1.6-.7-1.6-1.6 0-.9.7-1.6 1.6-1.6h5.3c.9 0 1.6.7 1.6 1.6 0 .9-.7 1.6-1.6 1.6zm5.9 0c-1 0-1.7-.8-1.7-1.7 0-1 .8-1.7 1.7-1.7 1 0 1.7.8 1.7 1.7.1.9-.7 1.7-1.7 1.7z"/><path d="M11.5 20c-.7 0-1.2.6-1.2 1.2 0 .5.3 1 .8 1.1-.3-.2-.6-.6-.6-1 0-.7.5-1.2 1.2-1.2.4 0 .8.2 1 .6-.2-.4-.7-.7-1.2-.7zm17.2 0c-.5 0-1 .3-1.1.8.2-.3.6-.6 1-.6.6 0 1.2.5 1.2 1.2 0 .4-.2.8-.6 1 .5-.2.8-.6.8-1.1-.1-.7-.6-1.3-1.3-1.3z"/></g></g></svg>