<svg width="40" height="40" viewBox="0 0 40 40" xmlns="http://www.w3.org/2000/svg"><g fill="none" fill-rule="evenodd"><path d="M3.32 0l33.419.048A3.266 3.266 0 0140 3.32l-.048 33.417A3.266 3.266 0 0136.682 40l-33.42-.048A3.267 3.267 0 010 36.68L.048 3.263A3.268 3.268 0 013.32 0" fill="#9BC0E1"/><path stroke="#FEFEFE" stroke-width="2" d="M31 29H9l2-14h18zM25 15H15v-3a5 5 0 015-5h0a5 5 0 015 5v3z"/><path fill="#FEFEFE" d="M10.992 22h18.015v-2H10.992z"/><path fill="#FEFEFE" d="M19 24h2v-4h-2z"/></g></svg>