<svg xmlns="http://www.w3.org/2000/svg" xmlns:xlink="http://www.w3.org/1999/xlink" viewBox="0 0 357 335"><defs><path id="a" d="M0 .072h81.106V91H0z"/><path id="c" d="M0 .151h76.741v90.848H0z"/><path id="e" d="M0 .252h83.821v83.824H0z"/></defs><g fill="none" fill-rule="evenodd" transform="translate(-38 -22)"><circle cx="216" cy="184" r="148" stroke="#2E8BE0" stroke-width="7"/><circle cx="353.5" cy="276.5" r="53.5" fill="#FFF"/><circle cx="99" cy="281" r="54" fill="#FFF"/><circle cx="75.5" cy="75.5" r="75.5" fill="#FFF"/><circle cx="349.5" cy="84.5" r="66.5" fill="#FFF"/><path fill="#ED2E26" fill-rule="nonzero" d="M67.493 143v-10.5h-1.846V143h1.846zm5.665.165c1.29 0 2.114-.66 2.7-1.485V143h1.814v-10.95h-1.814v4.26c-.57-.75-1.395-1.395-2.7-1.395-1.89 0-3.675 1.485-3.675 4.11v.03c0 2.625 1.814 4.11 3.674 4.11zm.434-1.575c-1.23 0-2.28-1.005-2.28-2.535v-.03c0-1.56 1.035-2.535 2.28-2.535 1.216 0 2.296 1.005 2.296 2.535v.03c0 1.515-1.08 2.535-2.296 2.535zm9.79 1.59c1.456 0 2.49-.585 3.24-1.485l-1.064-.945c-.63.615-1.26.945-2.146.945-1.17 0-2.085-.72-2.28-2.01h5.82c.016-.18.03-.345.03-.51 0-2.28-1.275-4.26-3.794-4.26-2.266 0-3.87 1.86-3.87 4.125v.03c0 2.445 1.77 4.11 4.064 4.11zm1.8-4.695h-4.064c.165-1.23.945-2.085 2.055-2.085 1.2 0 1.89.915 2.01 2.085zM90.428 143v-4.47c0-1.23.735-1.965 1.785-1.965 1.08 0 1.695.705 1.695 1.935v4.5h1.816v-5.055c0-1.83-1.035-3.03-2.82-3.03-1.23 0-1.966.645-2.476 1.38v-1.215h-1.83V143h1.83zm9.94.135c.69 0 1.185-.15 1.635-.405v-1.485c-.36.18-.72.27-1.124.27-.615 0-.975-.285-.975-.99v-3.885h2.13v-1.56h-2.13v-2.175h-1.816v2.175h-1.005v1.56h1.006v4.17c0 1.74.945 2.325 2.28 2.325zm5.29-9.27v-1.725h-1.95v1.725h1.95zm-.06 9.135v-7.92h-1.83V143h1.83zm4.39 0v-6.36h2.07v-1.5h-2.1v-.435c0-.81.36-1.2 1.05-1.2.39 0 .706.075 1.066.195v-1.53c-.405-.12-.84-.21-1.485-.21-.765 0-1.35.21-1.77.63-.42.42-.645 1.08-.645 1.95v.585h-1.005v1.515h1.004V143h1.816zm4.84 2.445c1.276 0 1.98-.6 2.61-2.235l3.15-8.13h-1.89l-2.07 5.88-2.22-5.88h-1.95l3.3 7.935c-.3.675-.615.9-1.125.9-.375 0-.735-.12-1.065-.3l-.614 1.335a3.598 3.598 0 001.874.495zM323.106 143c3.3 0 5.58-2.295 5.58-5.25v-.03c0-2.955-2.28-5.22-5.58-5.22h-3.915V143h3.915zm0-1.68h-2.07v-7.14h2.07c2.205 0 3.645 1.515 3.645 3.57v.03c0 2.055-1.44 3.54-3.645 3.54zm11.035 1.86c1.455 0 2.49-.585 3.24-1.485l-1.065-.945c-.63.615-1.26.945-2.145.945-1.17 0-2.085-.72-2.28-2.01h5.82c.015-.18.03-.345.03-.51 0-2.28-1.275-4.26-3.795-4.26-2.265 0-3.87 1.86-3.87 4.125v.03c0 2.445 1.77 4.11 4.065 4.11zm1.8-4.695h-4.065c.165-1.23.945-2.085 2.055-2.085 1.2 0 1.89.915 2.01 2.085zm6.085 4.65c.69 0 1.185-.15 1.635-.405v-1.485c-.36.18-.72.27-1.125.27-.615 0-.975-.285-.975-.99v-3.885h2.13v-1.56h-2.13v-2.175h-1.815v2.175h-1.005v1.56h1.005v4.17c0 1.74.945 2.325 2.28 2.325zm6.715.045c1.455 0 2.49-.585 3.24-1.485l-1.065-.945c-.63.615-1.26.945-2.145.945-1.17 0-2.085-.72-2.28-2.01h5.82c.015-.18.03-.345.03-.51 0-2.28-1.275-4.26-3.795-4.26-2.265 0-3.87 1.86-3.87 4.125v.03c0 2.445 1.77 4.11 4.065 4.11zm1.8-4.695h-4.065c.165-1.23.945-2.085 2.055-2.085 1.2 0 1.89.915 2.01 2.085zm7.09 4.695c1.545 0 2.46-.615 3.24-1.485l-1.095-1.08c-.585.585-1.2.975-2.055.975-1.395 0-2.37-1.125-2.37-2.535v-.03c0-1.38.975-2.52 2.295-2.52.9 0 1.485.42 2.04.99l1.14-1.215c-.75-.81-1.68-1.365-3.165-1.365-2.385 0-4.125 1.89-4.125 4.14v.03c0 2.25 1.74 4.095 4.095 4.095zm7.36-.045c.69 0 1.185-.15 1.635-.405v-1.485c-.36.18-.72.27-1.125.27-.615 0-.975-.285-.975-.99v-3.885h2.13v-1.56h-2.13v-2.175h-1.815v2.175h-1.005v1.56h1.005v4.17c0 1.74.945 2.325 2.28 2.325zM62.117 345v-3.66h2.31l2.58 3.66h2.19l-2.835-3.975c1.456-.42 2.49-1.455 2.49-3.18v-.03c0-.915-.315-1.695-.87-2.265-.674-.66-1.71-1.05-3.03-1.05h-4.68V345h1.846zm2.7-5.295h-2.7v-3.525h2.685c1.365 0 2.175.615 2.175 1.74v.03c0 1.065-.84 1.755-2.16 1.755zm9.37 5.475c1.456 0 2.49-.585 3.24-1.485l-1.065-.945c-.63.615-1.26.945-2.144.945-1.17 0-2.086-.72-2.28-2.01h5.82c.014-.18.03-.345.03-.51 0-2.28-1.275-4.26-3.795-4.26-2.265 0-3.87 1.86-3.87 4.125v.03c0 2.445 1.77 4.11 4.064 4.11zm1.8-4.695h-4.064c.165-1.23.945-2.085 2.055-2.085 1.2 0 1.89.915 2.01 2.085zm6.145 4.665c1.65 0 2.94-.825 2.94-2.49v-.03c0-1.425-1.305-1.95-2.46-2.31-.93-.3-1.784-.54-1.784-1.125v-.03c0-.435.404-.78 1.11-.78.66 0 1.47.285 2.234.75l.72-1.29c-.84-.555-1.92-.9-2.91-.9-1.575 0-2.82.915-2.82 2.43v.03c0 1.5 1.305 1.98 2.475 2.31.93.285 1.77.495 1.77 1.11v.03c0 .525-.45.855-1.23.855-.81 0-1.725-.33-2.595-.975l-.81 1.23a5.47 5.47 0 003.36 1.185zm6.415 2.25v-3.63c.556.735 1.38 1.395 2.7 1.395 1.876 0 3.675-1.485 3.675-4.11v-.03c0-2.64-1.814-4.11-3.674-4.11-1.29 0-2.116.66-2.7 1.485v-1.32h-1.83v10.32h1.83zm2.266-3.81c-1.23 0-2.31-1.02-2.31-2.535v-.03c0-1.515 1.08-2.535 2.31-2.535 1.215 0 2.264 1.005 2.264 2.535v.03c0 1.56-1.02 2.535-2.264 2.535zm9.55 1.59c2.445 0 4.245-1.875 4.245-4.125v-.03c0-2.265-1.785-4.11-4.216-4.11-2.43 0-4.23 1.875-4.23 4.14v.03c0 2.25 1.785 4.095 4.2 4.095zm.03-1.59c-1.41 0-2.415-1.155-2.415-2.535v-.03c0-1.38.93-2.52 2.385-2.52 1.424 0 2.43 1.155 2.43 2.55v.03c0 1.365-.93 2.505-2.4 2.505zm7.674 1.41v-4.47c0-1.23.736-1.965 1.786-1.965 1.08 0 1.695.705 1.695 1.935v4.5h1.814v-5.055c0-1.83-1.034-3.03-2.82-3.03-1.23 0-1.965.645-2.475 1.38v-1.215h-1.83V345h1.83zm10.556.165c1.29 0 2.114-.66 2.7-1.485V345h1.815v-10.95h-1.816v4.26c-.57-.75-1.395-1.395-2.7-1.395-1.89 0-3.674 1.485-3.674 4.11v.03c0 2.625 1.815 4.11 3.675 4.11zm.434-1.575c-1.23 0-2.28-1.005-2.28-2.535v-.03c0-1.56 1.035-2.535 2.28-2.535 1.215 0 2.296 1.005 2.296 2.535v.03c0 1.515-1.08 2.535-2.295 2.535zM325.63 345v-3.375h2.085c2.31 0 4.2-1.23 4.2-3.585v-.03c0-2.115-1.53-3.51-3.99-3.51h-4.14V345h1.845zm2.145-5.04h-2.145v-3.78h2.145c1.38 0 2.265.645 2.265 1.875v.03c0 1.095-.87 1.875-2.265 1.875zm7.435 5.04v-3.015c0-2.1 1.11-3.135 2.7-3.135h.105v-1.92c-1.395-.06-2.31.75-2.805 1.935v-1.785h-1.83V345h1.83zm7.675.18c2.445 0 4.245-1.875 4.245-4.125v-.03c0-2.265-1.785-4.11-4.215-4.11-2.43 0-4.23 1.875-4.23 4.14v.03c0 2.25 1.785 4.095 4.2 4.095zm.03-1.59c-1.41 0-2.415-1.155-2.415-2.535v-.03c0-1.38.93-2.52 2.385-2.52 1.425 0 2.43 1.155 2.43 2.55v.03c0 1.365-.93 2.505-2.4 2.505zm8.515 1.545c.69 0 1.185-.15 1.635-.405v-1.485c-.36.18-.72.27-1.125.27-.615 0-.975-.285-.975-.99v-3.885h2.13v-1.56h-2.13v-2.175h-1.815v2.175h-1.005v1.56h1.005v4.17c0 1.74.945 2.325 2.28 2.325zm6.715.045c1.455 0 2.49-.585 3.24-1.485l-1.065-.945c-.63.615-1.26.945-2.145.945-1.17 0-2.085-.72-2.28-2.01h5.82c.015-.18.03-.345.03-.51 0-2.28-1.275-4.26-3.795-4.26-2.265 0-3.87 1.86-3.87 4.125v.03c0 2.445 1.77 4.11 4.065 4.11zm1.8-4.695h-4.065c.165-1.23.945-2.085 2.055-2.085 1.2 0 1.89.915 2.01 2.085zm7.09 4.695c1.545 0 2.46-.615 3.24-1.485l-1.095-1.08c-.585.585-1.2.975-2.055.975-1.395 0-2.37-1.125-2.37-2.535v-.03c0-1.38.975-2.52 2.295-2.52.9 0 1.485.42 2.04.99l1.14-1.215c-.75-.81-1.68-1.365-3.165-1.365-2.385 0-4.125 1.89-4.125 4.14v.03c0 2.25 1.74 4.095 4.095 4.095zm7.36-.045c.69 0 1.185-.15 1.635-.405v-1.485c-.36.18-.72.27-1.125.27-.615 0-.975-.285-.975-.99v-3.885h2.13v-1.56h-2.13v-2.175h-1.815v2.175h-1.005v1.56h1.005v4.17c0 1.74.945 2.325 2.28 2.325z" opacity=".9"/><g transform="translate(51 232.929)"><mask id="b" fill="#fff"><use xlink:href="#a"/></mask><path fill="#B5CFE4" d="M40.553 91a8.772 8.772 0 01-4.39-1.171L4.39 71.484A8.81 8.81 0 010 63.88V27.192a8.812 8.812 0 014.39-7.605L36.163 1.244a8.806 8.806 0 018.78 0l31.773 18.343a8.812 8.812 0 014.39 7.605V63.88a8.81 8.81 0 01-4.39 7.604L44.943 89.829a8.772 8.772 0 01-4.39 1.17m0-88.002c-1.014 0-2.025.26-2.928.782L5.855 22.122a5.871 5.871 0 00-2.928 5.07V63.88a5.871 5.871 0 002.927 5.069l31.772 18.344a5.867 5.867 0 005.854 0l31.772-18.344a5.871 5.871 0 002.927-5.07V27.193a5.871 5.871 0 00-2.927-5.07L43.48 3.779a5.852 5.852 0 00-2.927-.782" mask="url(#b)"/></g><path fill="#E93229" d="M103.755 293.097c.847-.969 1.681-1.944 2.502-2.93l-.072.003h-3.609a154.41 154.41 0 01-2.576 2.927h3.755z"/><path fill="#E93229" d="M118.557 270.686l-.018-.029a14.27 14.27 0 00-.898-1.27 16.646 16.646 0 00-.752-.866 13.996 13.996 0 00-1.09-1.06 14.993 14.993 0 00-2.492-1.767c-.13-.073-.262-.142-.393-.209a15.48 15.48 0 00-.889-.43l-.33-.139a15.3 15.3 0 00-.98-.36c-.093-.029-.182-.06-.275-.09a14.709 14.709 0 00-1.168-.3c-.5-.11-1.006-.192-1.515-.247l-.214-.019c-.447-.04-.9-.068-1.358-.068H76.918c-8.068 0-14.632 6.565-14.632 14.632 0 8.07 6.564 14.634 14.632 14.634h29.267c8.07 0 14.633-6.565 14.633-14.634a14.53 14.53 0 00-2.26-7.777m-12.373 19.484H76.918c-6.454 0-11.706-5.252-11.706-11.707 0-6.455 5.252-11.706 11.706-11.706h29.267c.36 0 .713.021 1.064.054.418.036.833.095 1.244.177.058.011.116.027.174.04.285.061.565.135.842.217.08.023.16.045.238.07.301.097.597.207.887.326.092.038.182.08.273.12.227.1.45.208.67.322.082.043.166.083.247.128.558.311 1.09.666 1.59 1.064a11.826 11.826 0 011.61 1.537c.233.27.454.55.662.84.104.142.205.287.303.434a12.118 12.118 0 01.861 1.578c.072.158.141.32.206.48.065.164.124.331.182.498.051.147.106.29.151.44.324 1.071.503 2.206.503 3.38 0 6.456-5.252 11.708-11.707 11.708"/><path fill="#E93229" d="M104.722 272.612a5.854 5.854 0 10-.151 11.707h.153a5.855 5.855 0 00-.002-11.708"/><path fill="#E93229" d="M104.722 272.612a5.855 5.855 0 000 11.706 5.823 5.823 0 003.625-1.265c.617-.808 1.219-1.627 1.818-2.446.271-.683.41-1.409.411-2.142a5.854 5.854 0 00-5.854-5.854"/><path fill="#E93229" d="M110.164 280.607c-.598.82-1.2 1.638-1.816 2.446a5.851 5.851 0 001.817-2.446"/><g><g transform="translate(311 231.849)"><mask id="d" fill="#fff"><use xlink:href="#c"/></mask><path fill="#B5CFE4" d="M38.415 91c-.487 0-1.328-.45-4.16-2.11C24.41 83.114 1.397 67.102.298 43.22c-.876-19.072.458-28.544.514-28.938a1.49 1.49 0 01.39-.81C1.712 12.928 13.987.15 38.365.15c24.378 0 36.663 12.777 37.176 13.322.21.222.347.505.39.809.056.394 1.39 9.868.512 28.94-1.368 29.7-37.157 47.473-37.516 47.619-.184.091-.32.159-.512.159M3.714 15.196c-.254 2.16-1.178 11.51-.425 27.889C4.47 68.76 33.597 85.233 38.368 87.76c4.807-2.563 33.908-19.126 35.084-44.676.755-16.372-.17-25.72-.424-27.887C70.963 13.245 59.26 3.146 38.365 3.146c-20.965 0-32.596 10.096-34.651 12.05" mask="url(#d)"/></g><path fill="#ED2E26" d="M349.166 251.057c-11.238-.016-20.515 8.4-21.858 19.276a22.075 22.075 0 00-.174 2.693c-.001.184.009.37.012.552.279 11.896 9.99 21.462 21.957 21.48a22.138 22.138 0 006.986-1.128c8.728-2.907 15.032-11.134 15.045-20.841.017-12.15-9.82-22.013-21.968-22.032m10.903 16.873l-13.237 13.238a1.095 1.095 0 01-1.55.004l-.003-.004-7.216-7.214a1.098 1.098 0 011.552-1.552l6.44 6.439 12.463-12.464a1.098 1.098 0 011.552 1.554"/></g><g><path fill="#B5CFE4" d="M93.253 108.613c-.172 0-.34 0-.514-.004-7.783-.136-15.047-3.306-20.453-8.928-5.405-5.619-8.306-13.016-8.17-20.828.282-16.125 13.52-28.99 29.643-28.737a1.327 1.327 0 011.303 1.35c-.013.731-.609 1.267-1.35 1.302-14.613-.256-26.688 11.468-26.944 26.132-.124 7.104 2.514 13.832 7.43 18.943 4.913 5.11 11.514 7.991 18.587 8.114 14.62.196 26.69-11.468 26.945-26.133.013-.732.606-1.33 1.35-1.303a1.326 1.326 0 011.302 1.349v.001c-.279 15.953-13.298 28.741-29.129 28.742m40.293 12.259h-15.914a1.325 1.325 0 110-2.652h14.588v-14.588a1.326 1.326 0 112.652-.006v15.92c0 .733-.594 1.326-1.326 1.326m-66.306 0H51.326A1.326 1.326 0 0150 119.546v-15.914a1.327 1.327 0 012.653 0v14.588H67.24a1.326 1.326 0 010 2.652m66.306-66.305a1.326 1.326 0 01-1.326-1.326V38.652h-14.588a1.326 1.326 0 110-2.652h15.914c.732 0 1.326.593 1.326 1.326V53.24c0 .733-.594 1.326-1.326 1.326m-82.22.001A1.326 1.326 0 0150 53.241V37.327c0-.733.594-1.326 1.326-1.326H67.24a1.326 1.326 0 110 2.652H52.652v14.588c0 .733-.594 1.326-1.326 1.326"/><path fill="#B5CFE4" d="M93.258 101.507c-.132 0-.264 0-.396-.004-5.892-.102-11.39-2.503-15.483-6.759-4.092-4.254-6.288-9.853-6.184-15.766.103-5.912 2.493-11.43 6.73-15.54 4.239-4.11 9.836-6.327 15.71-6.214a1.326 1.326 0 011.303 1.35c-.013.731-.606 1.268-1.35 1.302-5.203-.105-10.088 1.851-13.817 5.466a19.406 19.406 0 00-5.924 13.683 19.398 19.398 0 005.443 13.88c3.6 3.744 8.437 5.855 13.619 5.946 5.14.12 10.089-1.85 13.817-5.467 3.73-3.615 5.835-8.476 5.926-13.682.012-.732.576-1.329 1.349-1.303a1.325 1.325 0 011.303 1.349v.001c-.104 5.912-2.494 11.431-6.732 15.54-4.143 4.018-9.568 6.217-15.314 6.218"/><path fill="#B5CFE4" d="M93.254 92.367l-.232-.001c-7.142-.126-12.852-6.06-12.728-13.228.126-7.093 5.915-12.778 12.955-12.778h.227a1.328 1.328 0 011.303 1.35c-.013.732-.568 1.307-1.35 1.303-5.668-.152-10.383 4.464-10.483 10.172-.1 5.706 4.442 10.429 10.122 10.529 2.736.057 5.38-.99 7.336-2.903a10.3 10.3 0 003.146-7.268c.013-.731.625-1.29 1.349-1.302a1.328 1.328 0 011.303 1.349 12.94 12.94 0 01-3.951 9.126 12.846 12.846 0 01-8.997 3.65"/><path fill="#ED2E26" d="M113.113 59.417a1.324 1.324 0 00-1.874 0h-.001l-17.771 17.77a3.035 3.035 0 101.826 2.781c0-.26-.043-.51-.105-.752l17.925-17.924a1.324 1.324 0 000-1.874m-40.745-1.05a3.035 3.035 0 00-.012 6.07h.011a3.035 3.035 0 00.001-6.07m21.236 37.418a3.034 3.034 0 100 6.068 3.034 3.034 0 000-6.068"/></g><g><g transform="translate(300 36.672)"><mask id="f" fill="#fff"><use xlink:href="#e"/></mask><path fill="#B5CFE4" d="M41.912 84.076C18.8 84.076 0 65.275 0 42.164S18.801.252 41.912.252c23.11 0 41.91 18.802 41.91 41.912s-18.8 41.911-41.91 41.911m0-81.118c-21.62 0-39.21 17.588-39.21 39.207 0 21.62 17.59 39.207 39.21 39.207 21.618 0 39.207-17.589 39.207-39.207 0-21.619-17.59-39.207-39.207-39.207" mask="url(#f)"/></g><path fill="#ED2E26" d="M337.792 83.856c-.014-.043-.022-.087-.04-.129-.02-.05-.05-.097-.075-.143-.018-.03-.028-.06-.05-.09a1.37 1.37 0 00-.374-.375c-.028-.019-.06-.033-.092-.05-.045-.025-.09-.054-.141-.073-.044-.019-.088-.028-.13-.042-.041-.012-.08-.028-.122-.036a1.428 1.428 0 00-.266-.027h-10.816a1.352 1.352 0 100 2.705h7.553l-17.766 17.768a1.352 1.352 0 001.91 1.913l17.769-17.77v7.552a1.351 1.351 0 102.702 0V84.243c0-.089-.007-.177-.026-.264-.01-.043-.023-.083-.036-.123m4.12-9.076a4.056 4.056 0 00-.012 8.112h.01a4.056 4.056 0 00.002-8.112m26.44-22.384a1.35 1.35 0 00-1.912 0l-17.768 17.769v-7.553a1.352 1.352 0 10-2.704 0v10.815c0 .089.01.177.028.265.009.043.023.082.037.123.01.042.02.087.04.128.019.051.047.097.075.144.015.028.027.06.048.09.1.147.227.276.377.375.027.019.057.033.087.05.046.025.092.054.145.073.043.019.085.028.128.042.041.012.08.027.122.036.088.017.177.026.265.026h10.816a1.352 1.352 0 100-2.704h-7.551l17.766-17.768a1.352 1.352 0 000-1.913"/></g><path stroke="#2E8BE0" stroke-width="8" d="M281.122 32.11l9.768 23.012-23.012 9.768M150.03 334.521l-8.551-23.492 23.492-8.55"/></g></svg>