<svg xmlns="http://www.w3.org/2000/svg" xmlns:xlink="http://www.w3.org/1999/xlink" width="410" height="412"><defs><path id="a" d="M0 412h410V.713H0z"/></defs><g fill="none" fill-rule="evenodd"><path fill="#F6F9FB" d="M214.964 195.036H410V.001H214.964z"/><path fill="#B5CFE4" d="M312.482 36.614c-23.4 0-42.437 19.037-42.437 42.436 0 23.4 19.037 42.436 42.437 42.436s42.436-19.037 42.436-42.436-19.037-42.436-42.436-42.436m0 87.8c-25.014 0-45.363-20.35-45.363-45.364 0-25.014 20.35-45.363 45.363-45.363 25.013 0 45.362 20.35 45.362 45.363 0 25.014-20.349 45.363-45.362 45.363"/><path fill="#ED2E26" d="M308.023 84.484c-.014-.046-.024-.094-.043-.139-.022-.055-.053-.105-.082-.155-.018-.033-.03-.066-.052-.097a1.474 1.474 0 0 0-.407-.407c-.03-.02-.065-.035-.098-.053-.05-.028-.099-.059-.154-.08-.046-.02-.094-.03-.14-.045-.045-.013-.086-.03-.132-.039a1.463 1.463 0 0 0-.287-.029h-11.707a1.463 1.463 0 0 0 0 2.927h8.175l-19.23 19.232a1.464 1.464 0 0 0 2.068 2.07l19.231-19.233v8.174a1.462 1.462 0 1 0 2.926 0V84.903a1.46 1.46 0 0 0-.028-.286c-.01-.046-.026-.089-.04-.133m4.46-9.823a4.39 4.39 0 1 0-.002 8.78 4.39 4.39 0 0 0 .001-8.78M341.1 50.433a1.464 1.464 0 0 0-2.07 0L319.8 69.665V61.49a1.463 1.463 0 1 0-2.927 0v11.706c0 .096.01.192.029.287.01.046.026.089.04.133.013.046.024.094.043.139.022.055.053.105.082.156.017.03.03.065.052.096.108.16.246.3.408.407.03.02.063.035.095.053.05.028.1.059.156.08.046.02.093.03.14.045.044.013.086.03.132.039.095.019.19.029.286.029h11.707a1.463 1.463 0 0 0 0-2.927h-8.174l19.23-19.232a1.464 1.464 0 0 0 0-2.07M284.493 152.448v-12.292h4.583c3.863 0 6.532 2.651 6.532 6.11v.036c0 3.459-2.669 6.146-6.532 6.146h-4.583zm4.583-10.326h-2.423v8.359h2.423c2.581 0 4.267-1.739 4.267-4.144v-.035c0-2.406-1.686-4.18-4.267-4.18zm13.152 10.536c-2.686 0-4.758-1.949-4.758-4.811v-.035c0-2.652 1.879-4.83 4.53-4.83 2.95 0 4.443 2.319 4.443 4.988 0 .193-.018.386-.035.597h-6.814c.229 1.51 1.3 2.353 2.67 2.353 1.036 0 1.773-.386 2.51-1.106l1.247 1.106c-.878 1.053-2.09 1.738-3.793 1.738zm-2.651-5.496h4.759c-.14-1.37-.949-2.44-2.353-2.44-1.3 0-2.213 1-2.406 2.44zm12.116 5.444c-1.563 0-2.669-.685-2.669-2.722v-4.882h-1.176v-1.826h1.176v-2.546h2.125v2.546h2.493v1.826h-2.493v4.548c0 .826.421 1.16 1.141 1.16.474 0 .896-.106 1.317-.317v1.739c-.527.298-1.106.474-1.914.474zm7.832.052c-2.687 0-4.759-1.949-4.759-4.811v-.035c0-2.652 1.879-4.83 4.53-4.83 2.95 0 4.443 2.319 4.443 4.988 0 .193-.017.386-.035.597h-6.813c.228 1.51 1.3 2.353 2.669 2.353 1.036 0 1.773-.386 2.511-1.106l1.247 1.106c-.878 1.053-2.09 1.738-3.793 1.738zm-2.652-5.496h4.759c-.14-1.37-.948-2.44-2.353-2.44-1.3 0-2.213 1-2.406 2.44zm13.293 5.496c-2.757 0-4.794-2.16-4.794-4.794v-.035c0-2.634 2.037-4.846 4.83-4.846 1.738 0 2.826.65 3.704 1.598l-1.334 1.422c-.65-.667-1.335-1.159-2.388-1.159-1.546 0-2.687 1.335-2.687 2.95v.035c0 1.651 1.141 2.968 2.774 2.968 1.001 0 1.721-.457 2.406-1.141l1.282 1.264c-.913 1.018-1.984 1.738-3.793 1.738zm8.85-.052c-1.563 0-2.669-.685-2.669-2.722v-4.882h-1.176v-1.826h1.176v-2.546h2.125v2.546h2.493v1.826h-2.493v4.548c0 .826.421 1.16 1.141 1.16.474 0 .896-.106 1.317-.317v1.739c-.527.298-1.106.474-1.914.474z"/><path fill="#F6F9FB" d="M0 195.036h195.036V0H0z"/><path fill="#B5CFE4" d="M56.408 55.225a1.326 1.326 0 0 1-1.326-1.326V37.985c0-.733.594-1.326 1.326-1.326h15.914a1.326 1.326 0 1 1 0 2.652H57.734v14.588c0 .733-.594 1.326-1.326 1.326m82.22 0a1.326 1.326 0 0 1-1.326-1.326V39.31h-14.588a1.326 1.326 0 1 1 0-2.652h15.914c.732 0 1.326.593 1.326 1.326v15.914c0 .733-.594 1.326-1.326 1.326M72.322 121.53H56.408a1.326 1.326 0 0 1-1.326-1.326v-15.914a1.326 1.326 0 1 1 2.653 0v14.588h14.587a1.325 1.325 0 1 1 0 2.652m66.306 0h-15.914a1.326 1.326 0 1 1 0-2.652h14.588v-14.588a1.326 1.326 0 1 1 2.652 0v15.914c0 .733-.594 1.326-1.326 1.326m-40.293-12.259c-.172 0-.34 0-.514-.004-7.783-.136-15.047-3.306-20.453-8.928-5.405-5.619-8.306-13.016-8.17-20.828.282-16.125 13.52-28.99 29.643-28.737a1.327 1.327 0 0 1 1.303 1.35c-.013.731-.609 1.267-1.35 1.302-14.613-.256-26.688 11.468-26.944 26.132-.124 7.104 2.514 13.832 7.43 18.943 4.913 5.11 11.514 7.991 18.587 8.114 14.62.196 26.69-11.468 26.945-26.133.013-.732.606-1.33 1.35-1.303a1.326 1.326 0 0 1 1.302 1.35c-.279 15.953-13.298 28.741-29.129 28.742"/><path fill="#B5CFE4" d="M98.34 102.165c-.132 0-.264 0-.396-.004-5.892-.102-11.39-2.503-15.483-6.759-4.092-4.254-6.288-9.853-6.184-15.766.103-5.912 2.493-11.43 6.73-15.54 4.239-4.11 9.836-6.327 15.71-6.214a1.327 1.327 0 0 1 1.303 1.35c-.013.731-.606 1.268-1.35 1.302-5.203-.105-10.088 1.851-13.817 5.466a19.407 19.407 0 0 0-5.924 13.683 19.4 19.4 0 0 0 5.443 13.88c3.6 3.744 8.437 5.855 13.619 5.946 5.14.12 10.089-1.85 13.817-5.467 3.73-3.615 5.835-8.476 5.926-13.682.012-.732.576-1.329 1.349-1.303a1.326 1.326 0 0 1 1.303 1.35c-.104 5.912-2.494 11.431-6.732 15.54-4.143 4.018-9.568 6.217-15.314 6.218"/><path fill="#B5CFE4" d="M98.336 93.025l-.232-.001c-7.142-.126-12.852-6.06-12.728-13.228.126-7.093 5.915-12.778 12.955-12.778h.227a1.328 1.328 0 0 1 1.303 1.35c-.013.732-.568 1.307-1.35 1.303-5.668-.152-10.383 4.464-10.483 10.172-.1 5.706 4.442 10.429 10.122 10.529a10.184 10.184 0 0 0 7.336-2.903 10.298 10.298 0 0 0 3.146-7.268c.013-.731.625-1.29 1.349-1.302a1.326 1.326 0 0 1 1.303 1.349 12.94 12.94 0 0 1-3.951 9.126 12.844 12.844 0 0 1-8.997 3.65"/><path fill="#ED2E26" d="M118.195 60.075a1.325 1.325 0 0 0-1.875 0l-17.771 17.77a3.035 3.035 0 1 0 1.826 2.781c0-.261-.043-.51-.105-.752l17.925-17.924a1.325 1.325 0 0 0 0-1.875M77.45 59.026a3.035 3.035 0 1 0-.001 6.07 3.035 3.035 0 0 0 .001-6.07m21.236 37.418a3.033 3.033 0 1 0 0 6.067 3.033 3.033 0 1 0 0-6.067M65.147 149.476v-12.291h2.16v12.291h-2.16zm9.025.194c-2.177 0-4.302-1.739-4.302-4.812v-.035c0-3.073 2.09-4.811 4.302-4.811 1.528 0 2.494.755 3.161 1.633v-4.987h2.125v12.818h-2.125v-1.545c-.685.966-1.65 1.739-3.16 1.739zm.51-1.844c1.422 0 2.686-1.194 2.686-2.968v-.035c0-1.791-1.264-2.968-2.686-2.968-1.458 0-2.67 1.142-2.67 2.968v.035c0 1.791 1.23 2.968 2.67 2.968zm11.694 1.861c-2.686 0-4.758-1.949-4.758-4.811v-.035c0-2.652 1.879-4.83 4.53-4.83 2.95 0 4.443 2.319 4.443 4.988 0 .193-.018.386-.035.597h-6.813c.228 1.51 1.299 2.353 2.669 2.353 1.036 0 1.773-.387 2.51-1.107l1.247 1.107c-.878 1.053-2.09 1.738-3.793 1.738zm-2.651-5.496h4.759c-.14-1.37-.949-2.44-2.353-2.44-1.3 0-2.213 1-2.406 2.44zm8.99 5.285v-9.271h2.143v1.422c.597-.86 1.457-1.615 2.897-1.615 2.09 0 3.301 1.404 3.301 3.547v5.917h-2.124v-5.268c0-1.44-.72-2.265-1.985-2.265-1.229 0-2.09.86-2.09 2.3v5.233h-2.141zm14.013.158c-1.563 0-2.669-.684-2.669-2.721v-4.882h-1.176v-1.826h1.176v-2.546h2.125v2.546h2.493v1.826h-2.493v4.548c0 .825.421 1.159 1.141 1.159.474 0 .896-.105 1.317-.316v1.738c-.526.299-1.106.474-1.914.474zm4.144-10.852v-2.019h2.283v2.02h-2.283zm.07 10.694v-9.271h2.143v9.271h-2.142zm5.392 0v-7.445h-1.177v-1.773h1.177v-.685c0-1.019.263-1.791.755-2.283.491-.492 1.176-.738 2.072-.738.755 0 1.264.106 1.738.246v1.791c-.421-.14-.79-.228-1.247-.228-.807 0-1.229.457-1.229 1.405v.51h2.459v1.755h-2.424v7.445h-2.124zm10.132-2.388l2.423-6.883h2.212l-3.687 9.517c-.738 1.914-1.563 2.617-3.056 2.617-.878 0-1.545-.211-2.195-.58l.72-1.563c.387.211.808.352 1.247.352.597 0 .966-.264 1.317-1.054l-3.863-9.29h2.283l2.599 6.884z"/><path fill="#F6F9FB" d="M214.964 411.287H410V216.251H214.964z"/><path fill="#B5CFE4" d="M277.824 264.968c-.254 2.16-1.178 11.51-.425 27.888 1.182 25.677 30.308 42.15 35.08 44.677 4.806-2.563 33.908-19.126 35.084-44.677.754-16.371-.169-25.718-.424-27.885-2.066-1.953-13.769-12.052-34.663-12.052-20.965 0-32.597 10.095-34.652 12.049m34.701 75.804c-.487 0-1.328-.45-4.16-2.111-9.844-5.774-32.857-21.785-33.957-45.67-.876-19.07.458-28.544.515-28.937.044-.305.18-.588.39-.811.51-.544 12.785-13.32 37.163-13.32 24.378 0 36.663 12.776 37.175 13.32.21.223.347.506.39.81.057.394 1.391 9.869.513 28.939-1.368 29.7-37.157 47.474-37.517 47.619-.183.092-.319.16-.512.16"/><path fill="#B5CFE4" d="M312.275 268.98c12.15.018 21.986 9.882 21.97 22.032-.019 12.15-9.883 21.987-22.032 21.97-12.15-.019-21.987-9.883-21.969-22.033.017-12.15 9.882-21.987 22.031-21.969"/><path fill="#B5CFE4" d="M309.166 299.413c-.281 0-.562-.107-.776-.321l-7.216-7.215a1.098 1.098 0 0 1 1.552-1.553l6.44 6.44 12.462-12.462a1.098 1.098 0 0 1 1.553 1.55l-13.24 13.24a1.092 1.092 0 0 1-.775.32M281.558 368.714v-12.292h4.846c2.88 0 4.671 1.633 4.671 4.11v.034c0 2.757-2.212 4.197-4.916 4.197h-2.441v3.951h-2.16zm2.16-5.9h2.51c1.634 0 2.652-.913 2.652-2.195v-.035c0-1.44-1.036-2.195-2.651-2.195h-2.511v4.425zm9.306 5.9v-9.271h2.143v2.09c.58-1.388 1.65-2.336 3.283-2.266v2.248h-.123c-1.86 0-3.16 1.211-3.16 3.67v3.53h-2.143zm11.046.21c-2.828 0-4.917-2.159-4.917-4.793v-.035c0-2.652 2.107-4.847 4.952-4.847 2.844 0 4.934 2.16 4.934 4.812v.035c0 2.634-2.107 4.829-4.97 4.829zm.035-1.86c1.72 0 2.81-1.335 2.81-2.933v-.035c0-1.633-1.177-2.985-2.845-2.985-1.704 0-2.792 1.334-2.792 2.95v.035c0 1.615 1.176 2.968 2.827 2.968zm10.202 1.808c-1.563 0-2.67-.685-2.67-2.722v-4.881h-1.176v-1.826h1.177v-2.547h2.125v2.547h2.493v1.826h-2.493v4.548c0 .825.421 1.159 1.14 1.159.475 0 .896-.106 1.318-.316v1.738c-.527.299-1.106.474-1.914.474zm7.832.053c-2.687 0-4.76-1.95-4.76-4.811v-.036c0-2.651 1.88-4.829 4.531-4.829 2.95 0 4.443 2.318 4.443 4.987 0 .194-.018.387-.035.597h-6.813c.228 1.51 1.299 2.353 2.669 2.353 1.036 0 1.773-.386 2.51-1.106l1.247 1.106c-.877 1.054-2.09 1.739-3.792 1.739zm-2.652-5.496h4.759c-.14-1.37-.948-2.441-2.353-2.441-1.3 0-2.213 1-2.406 2.44zm13.293 5.496c-2.757 0-4.794-2.16-4.794-4.794v-.035c0-2.634 2.037-4.847 4.829-4.847 1.738 0 2.827.65 3.705 1.598l-1.334 1.423c-.65-.668-1.335-1.16-2.389-1.16-1.545 0-2.686 1.335-2.686 2.95v.036c0 1.65 1.141 2.968 2.774 2.968 1.001 0 1.721-.457 2.406-1.142l1.282 1.264c-.913 1.019-1.985 1.739-3.793 1.739zm8.85-.053c-1.563 0-2.67-.685-2.67-2.722v-4.881h-1.176v-1.826h1.177v-2.547h2.125v2.547h2.493v1.826h-2.493v4.548c0 .825.421 1.159 1.141 1.159.474 0 .896-.106 1.317-.316v1.738c-.527.299-1.106.474-1.914.474z"/><text fill="#ED2E26" font-family="Gotham-Medium, Gotham" font-size="17.56" font-weight="400" transform="translate(0 -1)"><tspan x="279.978" y="369.714">P</tspan> <tspan x="291.707" y="369.714" letter-spacing="-.316">r</tspan> <tspan x="298.327" y="369.714">o</tspan> <tspan x="309.864" y="369.714" letter-spacing="-.263">t</tspan> <tspan x="316.555" y="369.714">ect</tspan></text><g transform="translate(0 -.713)"><path fill="#ED2E26" d="M323.18 286.566l-13.238 13.238a1.095 1.095 0 0 1-1.552 0l-7.216-7.215a1.097 1.097 0 1 1 1.552-1.552l6.44 6.44 12.462-12.464a1.098 1.098 0 1 1 1.553 1.553m-10.905-16.873c-11.238-.016-20.514 8.4-21.858 19.276a22.173 22.173 0 0 0-.174 2.693c-.001.185.009.37.013.552.278 11.895 9.99 21.462 21.956 21.48a22.073 22.073 0 0 0 3.848-.337 21.868 21.868 0 0 0 3.138-.792c8.729-2.907 15.032-11.133 15.045-20.84.018-12.15-9.818-22.014-21.968-22.032"/><path fill="#FFF" d="M323.18 285.014a1.1 1.1 0 0 0-1.552 0l-12.462 12.462-6.44-6.44a1.098 1.098 0 0 0-1.552 1.553l7.216 7.216a1.096 1.096 0 0 0 1.552 0l13.239-13.238a1.098 1.098 0 0 0 0-1.553"/><mask id="b" fill="#fff"><use xlink:href="#a"/></mask><path fill="#F6F9FB" mask="url(#b)" d="M0 412h195.036V216.964H0z"/><path fill="#B5CFE4" d="M97.518 253.637c-1.013 0-2.024.26-2.927.782L62.82 272.762a5.872 5.872 0 0 0-2.927 5.07v36.688a5.872 5.872 0 0 0 2.927 5.069l31.772 18.344a5.867 5.867 0 0 0 5.854 0l31.772-18.344a5.872 5.872 0 0 0 2.927-5.069v-36.688a5.872 5.872 0 0 0-2.927-5.07l-31.772-18.343a5.843 5.843 0 0 0-2.927-.782m0 88.003a8.781 8.781 0 0 1-4.39-1.171l-31.773-18.345a8.809 8.809 0 0 1-4.39-7.604v-36.688a8.81 8.81 0 0 1 4.39-7.605l31.773-18.343a8.804 8.804 0 0 1 8.78 0l31.773 18.343a8.81 8.81 0 0 1 4.39 7.605v36.688a8.809 8.809 0 0 1-4.39 7.604l-31.773 18.345a8.784 8.784 0 0 1-4.39 1.171" mask="url(#b)"/></g><path fill="#ED2E26" d="M60.14 368.638v-12.292h5.479c1.545 0 2.757.457 3.547 1.23.65.667 1.018 1.58 1.018 2.651v.035c0 2.02-1.211 3.231-2.915 3.723l3.32 4.653h-2.565l-3.02-4.284H62.3v4.284h-2.16zm2.16-6.199h3.16c1.546 0 2.53-.807 2.53-2.054v-.035c0-1.317-.949-2.037-2.547-2.037H62.3v4.126zm14.188 6.41c-2.686 0-4.759-1.95-4.759-4.812v-.035c0-2.651 1.88-4.829 4.53-4.829 2.95 0 4.444 2.318 4.444 4.987 0 .194-.018.387-.036.597h-6.813c.228 1.51 1.3 2.353 2.67 2.353 1.035 0 1.773-.386 2.51-1.106l1.247 1.106c-.878 1.054-2.09 1.739-3.793 1.739zm-2.651-5.496h4.758c-.14-1.37-.948-2.441-2.353-2.441-1.3 0-2.212 1-2.405 2.44zm12.186 5.46a6.403 6.403 0 0 1-3.933-1.387l.948-1.44c1.018.756 2.09 1.142 3.038 1.142.913 0 1.44-.386 1.44-1.001v-.035c0-.72-.984-.966-2.072-1.3-1.37-.386-2.898-.948-2.898-2.704v-.035c0-1.773 1.458-2.845 3.302-2.845 1.158 0 2.423.404 3.406 1.054l-.843 1.51c-.895-.544-1.844-.878-2.616-.878-.825 0-1.3.404-1.3.913v.035c0 .685 1.001.966 2.09 1.317 1.352.422 2.88 1.036 2.88 2.705v.035c0 1.949-1.51 2.915-3.442 2.915zm5.602 2.635v-12.081h2.142v1.545c.685-.966 1.65-1.739 3.16-1.739 2.178 0 4.303 1.721 4.303 4.812v.035c0 3.073-2.107 4.811-4.302 4.811-1.545 0-2.511-.772-3.161-1.633v4.25h-2.142zm4.794-4.46c1.457 0 2.651-1.142 2.651-2.968v-.035c0-1.791-1.23-2.968-2.651-2.968-1.44 0-2.705 1.194-2.705 2.968v.035c0 1.773 1.265 2.967 2.705 2.967zm11.413 1.86c-2.827 0-4.916-2.159-4.916-4.793v-.035c0-2.652 2.107-4.847 4.952-4.847 2.844 0 4.934 2.16 4.934 4.812v.035c0 2.634-2.107 4.829-4.97 4.829zm.036-1.86c1.72 0 2.81-1.335 2.81-2.933v-.035c0-1.633-1.177-2.985-2.846-2.985-1.703 0-2.792 1.334-2.792 2.95v.035c0 1.615 1.177 2.967 2.828 2.967zm7.076 1.65v-9.271h2.142v1.422c.597-.86 1.458-1.616 2.898-1.616 2.09 0 3.301 1.405 3.301 3.547v5.918h-2.125v-5.268c0-1.44-.72-2.265-1.984-2.265-1.23 0-2.09.86-2.09 2.3v5.233h-2.142zm14.733.193c-2.178 0-4.302-1.738-4.302-4.811v-.035c0-3.073 2.09-4.812 4.302-4.812 1.527 0 2.493.755 3.16 1.633v-4.987h2.125v12.82h-2.124v-1.546c-.685.966-1.651 1.738-3.161 1.738zm.509-1.844c1.422 0 2.687-1.194 2.687-2.967v-.035c0-1.791-1.265-2.968-2.687-2.968-1.457 0-2.67 1.142-2.67 2.968v.035c0 1.791 1.23 2.967 2.67 2.967z"/><g fill="#E93229"><path d="M109.721 310.096c.847-.969 1.681-1.945 2.502-2.93l-.072.003h-3.609c-.845.985-1.704 1.96-2.576 2.927h3.755z"/><path d="M112.151 307.17H82.884c-6.454 0-11.706-5.252-11.706-11.707 0-6.455 5.252-11.706 11.706-11.706h29.267c.36 0 .713.02 1.064.054a11.422 11.422 0 0 1 1.244.176c.058.012.116.028.174.04.285.062.565.135.842.217.08.024.16.046.238.07.301.097.597.207.887.327.092.038.182.079.273.119.227.1.45.209.67.323.082.043.166.083.247.128a11.691 11.691 0 0 1 1.59 1.063 12.08 12.08 0 0 1 .847.736 10.528 10.528 0 0 1 .763.802 11.82 11.82 0 0 1 .662.839 11.918 11.918 0 0 1 .303.435c.244.375.463.768.665 1.17.067.135.134.269.196.407.072.158.141.319.206.48.065.165.124.332.182.499.051.146.106.29.151.44.324 1.07.503 2.205.503 3.38 0 6.456-5.252 11.708-11.707 11.708m12.372-19.485l-.018-.03a14.51 14.51 0 0 0-.898-1.27 16.683 16.683 0 0 0-.437-.52 12.73 12.73 0 0 0-.315-.345 13.869 13.869 0 0 0-1.09-1.061 14.074 14.074 0 0 0-1.199-.947 15.105 15.105 0 0 0-1.293-.821c-.13-.072-.262-.14-.393-.208a15.14 15.14 0 0 0-.889-.43l-.33-.138a14.86 14.86 0 0 0-.98-.36c-.093-.03-.182-.062-.275-.09a14.59 14.59 0 0 0-1.168-.301 14.089 14.089 0 0 0-1.515-.246c-.07-.008-.142-.013-.214-.02-.447-.04-.9-.068-1.358-.068H82.884c-8.068 0-14.632 6.565-14.632 14.633 0 8.068 6.564 14.634 14.632 14.634h29.267c8.07 0 14.633-6.566 14.633-14.634 0-2.86-.837-5.522-2.26-7.778"/><path d="M110.688 289.61a5.854 5.854 0 1 0 .002 11.707 5.854 5.854 0 0 0-.002-11.708"/><path d="M110.688 289.61a5.854 5.854 0 0 0 0 11.706 5.82 5.82 0 0 0 3.625-1.264c.617-.809 1.219-1.627 1.818-2.447a5.824 5.824 0 0 0 .411-2.142 5.855 5.855 0 0 0-5.854-5.854"/><path d="M116.13 297.605c-.598.82-1.2 1.638-1.816 2.447a5.85 5.85 0 0 0 1.817-2.447"/></g><g fill="#69778A" fill-opacity=".45"><path d="M208.914 362.039l-7.305.173 20.531-18.855-1.906-2.076-23.987 22.025 22.02 23.993 2.075-1.905-18.73-20.41 6.117-.095c33.528-.53 65.823-11.641 92.512-31.566a95.366 95.366 0 0 1-2.339-1.766c-25.746 19-56.78 29.72-88.988 30.482m-163.07-163.23A158.905 158.905 0 0 0 59.67 270.8a8.768 8.768 0 0 1 1.687-1.285l.655-.378a156.105 156.105 0 0 1-13.355-70.21c1.2-27.968 9.655-54.495 24.352-77.46h-3.342c-14.371 23.028-22.628 49.487-23.821 77.343m97.65 153.781l1.043-2.62a155.975 155.975 0 0 1-30.66-17.125l-2.68 1.546a158.743 158.743 0 0 0 32.297 18.2M266.913 58.83l-1.053 2.617c1.38.582 2.744 1.19 4.1 1.808.33-.884.693-1.752 1.075-2.609a158.685 158.685 0 0 0-4.122-1.816m70.393 58.159a45.53 45.53 0 0 1-2.404 1.47c18.173 27.093 27.907 59.803 26.442 93.876-.78 18.177-4.622 35.747-11.25 52.126.102.795.32 2.79.499 6.013 8.04-18.067 12.69-37.67 13.563-58.021 1.49-34.644-8.394-67.904-26.85-95.464M192.17 23.99l-2.076 1.905L208.8 46.28l-6.137.082A158.613 158.613 0 0 0 140 60.173v3.11a156.155 156.155 0 0 1 61.56-14.06l7.28-.154-20.548 18.86 1.904 2.075 23.993-22.02-22.019-23.993z"/></g></g></svg>