<svg height="59" width="100" xmlns="http://www.w3.org/2000/svg"><g fill="#fff" fill-rule="evenodd"><path d="m0 50.232v7.772h.996v-3.481h2.961v-.832h-2.961v-2.629h3.495v-.83zm9.22 4.468c0-1.175-.521-1.824-1.421-1.824-.807 0-1.54.662-1.66 1.824zm-1.445-2.596c1.468 0 2.298 1.053 2.298 2.702 0 .202-.01.39-.034.534h-3.887c.07 1.245.817 2.026 1.917 2.026.547 0 1.008-.177 1.436-.45l.343.641c-.498.317-1.113.592-1.896.592-1.54 0-2.762-1.126-2.762-3.011s1.27-3.034 2.585-3.034zm5.785 5.226c.532 0 .996-.26 1.469-.794v-3.01c-.486-.439-.924-.605-1.398-.605-.924 0-1.66.89-1.66 2.205 0 1.374.583 2.204 1.59 2.204m-.096-5.226c.664 0 1.104.25 1.612.662l-.048-.98v-2.218h.985v8.436h-.807l-.083-.674h-.036c-.451.438-1.066.82-1.742.82-1.445 0-2.381-1.092-2.381-3.011 0-1.873 1.185-3.035 2.5-3.035m5.428 1.812h1.304c1.209 0 1.873-.496 1.873-1.504 0-1.02-.664-1.385-1.873-1.385h-1.304v2.89zm3.273 4.09-1.875-3.283h-1.398v3.283h-.996v-7.773h2.443c1.574 0 2.715.568 2.715 2.179 0 1.208-.69 1.932-1.745 2.204l1.981 3.39zm5.748-3.165-.368-1.185a75.947 75.947 0 0 1 -.77-2.617h-.047c-.25.9-.498 1.753-.77 2.617l-.38 1.185zm.249.796h-2.833l-.747 2.368h-1.008l2.631-7.773h1.113l2.632 7.773h-1.041zm2.702-5.405h1.173l1.506 4.17.557 1.59h.047l.545-1.59 1.494-4.17h1.161v7.773h-.936v-4.277c0-.69.083-1.61.13-2.3h-.047l-.617 1.73-1.494 4.066h-.568l-1.493-4.066-.615-1.73h-.047c.047.69.117 1.61.117 2.3v4.277h-.913zm10.705 3.888c1.364 0 2.015-.498 2.015-1.602 0-1.124-.676-1.492-2.015-1.492h-1.268v3.094zm-2.264-3.887h2.394c1.72 0 2.868.578 2.868 2.285 0 1.636-1.172 2.406-2.868 2.406h-1.398v3.08h-.996zm12.234 4.607-.368-1.185a75.947 75.947 0 0 1 -.77-2.617h-.047c-.249.9-.498 1.753-.77 2.617l-.379 1.185zm.25.796h-2.833l-.746 2.368h-1.011l2.632-7.773h1.113l2.632 7.773h-1.043l-.747-2.368zm2.56-3.391h.985v3.519c0 1.079.319 1.542 1.076 1.542.594 0 1.007-.297 1.553-.972v-4.09h.97v5.76h-.804l-.083-.9h-.036c-.532.628-1.102 1.043-1.893 1.043-1.224 0-1.768-.783-1.768-2.251zm6.579.793h-.853v-.734l.9-.06.119-1.61h.817v1.61h1.55v.794h-1.55v3.2c0 .713.225 1.113.89 1.113.2 0 .46-.08.652-.153l.188.736c-.32.106-.711.213-1.066.213-1.232 0-1.647-.783-1.647-1.92v-3.187zm3.722-3.472h.973v2.3l-.037 1.186c.545-.522 1.126-.95 1.92-.95 1.208 0 1.755.784 1.755 2.254v3.649h-.972v-3.52c0-1.078-.332-1.54-1.092-1.54-.591 0-.996.307-1.574.89v4.17h-.973zm8.57 7.776c.995 0 1.659-.89 1.659-2.205 0-1.327-.664-2.227-1.66-2.227-.983 0-1.657.9-1.657 2.227 0 1.315.674 2.205 1.657 2.205m0-5.239c1.41 0 2.666 1.102 2.666 3.034 0 1.907-1.255 3.01-2.666 3.01-1.41 0-2.666-1.103-2.666-3.01 0-1.932 1.256-3.034 2.666-3.034m4.067.142h.807l.083 1.042h.036c.391-.723.983-1.183 1.634-1.183.249 0 .428.034.617.117l-.19.856a1.557 1.557 0 0 0 -.555-.096c-.487 0-1.068.355-1.46 1.328v3.695h-.972v-5.76zm3.997 5.76h.972v-5.76h-.972zm-.179-7.573c0-.379.296-.63.675-.63.38 0 .676.251.676.63 0 .368-.295.628-.676.628-.379 0-.675-.26-.675-.628zm2.371 7.052 3.034-4.445h-2.704v-.793h3.936v.521l-3.034 4.444h3.128v.794h-4.36zm9.124-2.784c0-1.175-.52-1.824-1.42-1.824-.807 0-1.541.662-1.66 1.824zm-1.444-2.596c1.468 0 2.298 1.053 2.298 2.702 0 .202-.01.39-.034.534h-3.887c.07 1.245.817 2.026 1.917 2.026.546 0 1.008-.177 1.436-.45l.342.641c-.498.317-1.112.592-1.895.592-1.54 0-2.762-1.126-2.762-3.011s1.27-3.034 2.585-3.034zm5.785 5.226c.532 0 .996-.26 1.468-.794v-3.01c-.485-.439-.923-.605-1.398-.605-.923 0-1.66.89-1.66 2.205 0 1.374.584 2.204 1.59 2.204m-.095-5.226c.663 0 1.104.25 1.612.662l-.049-.98v-2.218h.985v8.436h-.806l-.083-.674h-.036c-.451.438-1.066.82-1.743.82-1.444 0-2.38-1.092-2.38-3.011 0-1.873 1.185-3.035 2.5-3.035m-56.072-21.41c.068-.029.11-.088.16-.137l9.876-9.932c2.373-2.385 4.743-4.77 7.113-7.156l7.366-7.408c1.485-1.492 2.966-2.987 4.453-4.479.828-.83 1.828-1.322 2.996-1.428 1.553-.142 2.826.424 3.792 1.639.734.93 1.03 2.004.919 3.176a4.23 4.23 0 0 1 -1.251 2.668c-1.781 1.796-3.56 3.594-5.339 5.39l-7.815 7.891-5.668 5.722-4.489 4.531c-2.917 2.945-5.836 5.89-8.749 8.84-.47.475-.985.867-1.602 1.12-1.662.68-3.553.323-4.81-.932-2.624-2.623-5.23-5.26-7.845-7.89-2.156-2.17-4.313-4.338-6.473-6.506-.678-.68-1.149-1.48-1.368-2.419-.632-2.678 1.139-5 3.602-5.361 1.454-.213 2.724.214 3.768 1.261 2.862 2.873 5.72 5.75 8.577 8.624l2.613 2.634c.055.053.102.117.174.153"/><path d="m40.439 18.49c.068-.026.108-.085.16-.134 1.584-1.592 3.18-3.173 4.757-4.775 2.6-2.642 5.238-5.242 7.84-7.887 1.526-1.549 3.073-3.079 4.598-4.628a3.035 3.035 0 0 1 1.836-.916c.66-.085 1.25.09 1.77.473.803.587 1.156 1.408 1.088 2.393a2.469 2.469 0 0 1 -.73 1.6c-1.69 1.726-3.409 3.424-5.098 5.147-1.483 1.515-2.998 2.998-4.474 4.517-1.36 1.396-2.754 2.755-4.115 4.153-1.551 1.594-3.137 3.154-4.696 4.74l-.9.926c-.432.445-.94.75-1.555.836-.817.115-1.558-.063-2.188-.619-.095-.083-.183-.176-.272-.266-2.253-2.26-4.513-4.515-6.76-6.783-.591-.595-1.187-1.191-1.77-1.795a2.872 2.872 0 0 1 -.8-1.73c-.087-.783.143-1.458.658-2.028a2.533 2.533 0 0 1 1.68-.838c.69-.07 1.296.11 1.852.506.087.062.163.136.238.21 1.61 1.616 3.23 3.222 4.83 4.848.638.65 1.285 1.293 1.92 1.942.041.04.073.088.13.109"/></g></svg>