<svg xmlns="http://www.w3.org/2000/svg" width="89" height="19" viewBox="0 0 89 19">
  <g fill="#FFF">
    <path d="M3.335 3.152C7.419 3.156 11.503 3.156 15.589 3.152 15.773 3.152 16.023 3.236 16.123 3.116 16.225 2.99 16.151 2.748 16.145 2.556L16.145.404 16.153.284C16.155.006 16.155.006 15.867.006 11.429.006 6.991.002 2.555.01 2.191.01 1.823.046 1.485.206 1.417.198 1.355.206 1.319.278L1.119.402C.967.5.793.574.719.758.554340259.878195905.429051745 1.04455121.359 1.236.217 1.352.209 1.532.129 1.68.101 1.798.039 1.91.049 2.038.00274902321 2.20653481-.0108284078 2.38236254.009 2.556L.009 17.75C.007 18.04.009 18.334.001 18.624-.001 18.72.029 18.748.125 18.748 1.081 18.744 2.037 18.744 2.993 18.748 3.087 18.748 3.117 18.72 3.115 18.624 3.107 18.334 3.109 18.04 3.107 17.75L3.107 11.25C3.121 10.97 3.121 10.97 3.413 10.97L15.891 10.97C15.937 10.97 15.985 10.964 16.031 10.97 16.127 10.982 16.157 10.946 16.155 10.85 16.147 10.558 16.147 10.266 16.145 9.972L16.145 8.418C16.147 8.304 16.139 8.192 16.155 8.08 16.179 7.896 16.111 7.856 15.931 7.856 11.745 7.86 7.559 7.86 3.373 7.86 3.327 7.86 3.279 7.856 3.233 7.86 3.139 7.872 3.109 7.836 3.111 7.74 3.115 7.488 3.109 7.234 3.107 6.982L3.107 3.356C3.075 3.166 3.179 3.152 3.335 3.152M44.498.002C41.836.008 39.174.006 36.512.006L30.914.008C30.792.018 30.666-.03 30.548.04 30.512.054 30.478.074 30.442.084 30.052.198 29.688.362 29.392.65 29.2019163.794952554 29.0496077.983623165 28.948 1.2 28.81 1.33 28.77 1.508 28.72 1.68 28.6383075 1.84099544 28.5971171 2.01948718 28.6 2.2L28.6 8.54C28.59 8.712 28.586 8.886 28.63 9.06 28.738 9.482 28.91 9.868 29.226 10.174 29.68 10.706 30.27 10.964 30.956 10.966 34.414 10.974 37.872 10.97 41.332 10.97 41.378 10.97 41.426 10.974 41.472 10.968 41.568 10.958 41.598 10.994 41.594 11.092 41.588 11.264 41.596 11.436 41.6 11.608L41.6 15.118C41.596 15.23 41.582 15.344 41.596 15.456 41.62 15.638 41.552 15.68 41.372 15.68 37.312 15.674 33.252 15.676 29.194 15.678 28.998 15.678 28.718 15.59 28.624 15.714 28.526 15.848 28.602 16.11 28.6 16.314L28.6 17.75C28.598 18.028 28.606 18.306 28.59 18.586 28.578 18.78 28.644 18.83 28.834 18.83 33.298 18.824 37.762 18.826 42.226 18.824 42.39 18.824 42.556 18.814 42.714 18.78 43.37 18.634 43.922 18.326 44.296 17.75 44.596 17.318 44.744 16.84 44.736 16.314L44.736 10.172C44.682 9.69 44.548 9.234 44.224 8.856 43.78 8.246 43.184 7.872 42.428 7.868 38.926 7.852 35.422 7.862 31.918 7.858 31.844 7.858 31.758 7.898 31.698 7.82L31.698 6.944 31.696 6.186C31.698 6.052 31.698 5.92 31.698 5.788L31.696 5.19 31.696 4.432 31.698 3.794 31.696 3.196C31.76 3.12 31.844 3.156 31.918 3.156 33.898 3.154 35.878 3.154 37.858 3.154 40.078 3.154 42.296 3.152 44.516 3.158 44.688 3.158 44.768 3.114 44.744 2.936 44.736 2.888 44.738 2.842 44.736 2.796L44.736.684C44.738.538 44.73.39 44.746.246 44.766.048 44.688.002 44.498.002M67.186 1.998C67.16 1.892 67.134 1.786 67.106 1.68 67.032 1.518 66.992 1.338 66.866 1.202 66.74.94 66.524.754 66.32.56 65.988.294 65.606.14 65.198.04 65.11-.03 65.01.018 64.914.006L51.726.006C51.632.018 51.532-.028 51.444.04 51.034.112 50.666.276 50.336.528 50.188.506 50.152.606 50.126.716 49.958.868 49.816 1.038 49.73 1.248 49.59 1.374 49.57 1.558 49.5 1.718 49.466 1.852 49.416 1.98 49.418 2.122L49.416 2.398 49.416 17.708C49.414 18.014 49.414 18.32 49.406 18.624 49.404 18.72 49.434 18.748 49.53 18.748 50.486 18.744 51.442 18.744 52.398 18.748 52.494 18.748 52.522 18.72 52.52 18.624 52.514 18.32 52.514 18.014 52.512 17.708L52.512 3.712C52.514 3.602 52.53 3.486 52.516 3.374 52.492 3.192 52.562 3.15 52.742 3.15 56.368 3.156 59.994 3.154 63.62 3.156 63.784 3.156 64 3.08 64.096 3.192 64.176 3.288 64.118 3.496 64.122 3.654L64.13 3.712 64.13 17.47C64.128 17.856 64.128 18.24 64.12 18.624 64.118 18.72 64.148 18.748 64.244 18.748 65.2 18.744 66.156 18.744 67.112 18.748 67.208 18.748 67.236 18.72 67.234 18.624 67.228 18.24 67.228 17.856 67.226 17.47L67.226 2.398C67.264 2.26 67.188 2.132 67.186 1.998zM88.319 15.955L88.319 2.717C88.311 2.543 88.371 2.365 88.279 2.197 88.2987303 2.04622804 88.2707548 1.89306235 88.199 1.759 88.1865633 1.64455108 88.1452735 1.53513316 88.079 1.441 88.011 1.281 87.943 1.121 87.813.999 87.701.819 87.569.659 87.373.561 87.3402891.512260072 87.2972767.471295829 87.247.441 86.807.137 86.309.009 85.787.007 82.097.001 78.405.005 74.715.003 74.471.003 74.231.029 73.995.087 73.649.177 73.309.293 73.049.561 72.853.659 72.721.819 72.611.999 72.479 1.121 72.411 1.281 72.343 1.441 72.2767265 1.53513316 72.2354367 1.64455108 72.223 1.759 72.143 1.911 72.163 2.083 72.107 2.241L72.103 2.717C72.101 2.755 72.097 2.797 72.097 2.835 72.093 3.155 72.095 3.155 72.421 3.155L84.975 3.155C85.093 3.155 85.205 3.143 85.183 3.315L85.183 5.19C85.181 6.006 85.171 6.826 85.181 7.642 85.183 7.826 85.133 7.866 84.955 7.866 80.747 7.86 76.541 7.862 72.335 7.858 72.173 7.858 72.097 7.888 72.143 8.06 72.079 8.618 72.093 9.176 72.103 9.736L72.103 17.55C72.101 17.91 72.103 18.268 72.095 18.626 72.093 18.722 72.121 18.748 72.217 18.748 73.187 18.746 74.157 18.746 75.125 18.748 75.221 18.748 75.251 18.722 75.249 18.626 75.241 18.268 75.241 17.91 75.239 17.55L75.239 11.17C75.227 11.02 75.271 10.966 75.445 10.966 78.621 10.974 81.799 10.972 84.975 10.972 85.001 10.972 85.027 10.974 85.055 10.972 85.149 10.958 85.181 10.996 85.179 11.09 85.173 11.264 85.181 11.436 85.183 11.608L85.183 17.43C85.181 17.83 85.181 18.228 85.173 18.626 85.173 18.722 85.201 18.748 85.297 18.748 86.267 18.746 87.235 18.746 88.205 18.748 88.301 18.748 88.329 18.722 88.327 18.626 88.321 18.228 88.321 17.83 88.319 17.43L88.319 15.956 88.319 15.955z"/>
    <path d="M59.674,4.666 C58.838,4.676 58.002,4.67 57.166,4.67 C56.728,4.67 56.728,4.67 56.752,5.11 L56.752,17.39 C56.75,17.802 56.75,18.212 56.744,18.624 C56.742,18.72 56.77,18.748 56.866,18.748 C57.836,18.744 58.804,18.744 59.774,18.748 C59.87,18.748 59.898,18.72 59.898,18.624 C59.89,18.212 59.89,17.802 59.888,17.39 L59.888,5.11 C59.89,5.038 59.884,4.962 59.896,4.89 C59.926,4.708 59.854,4.664 59.674,4.666 M23.764,4.03010958e-14 C22.95,0.012 22.136,0.006 21.32,0.006 C20.88,0.006 20.88,0.006 20.904,0.444 L20.904,17.75 C20.902,18.042 20.904,18.334 20.896,18.626 C20.892,18.72 20.924,18.748 21.018,18.748 C21.974,18.744 22.93,18.744 23.888,18.748 C23.982,18.748 24.012,18.72 24.01,18.626 C24.002,18.334 24.004,18.042 24.002,17.75 L24.002,0.444 C24.004,0.376 23.998,0.31 24.01,0.246 C24.046,0.042 23.96,-0.002 23.764,4.03010958e-14"/>
  </g>
</svg>
