<svg xmlns="http://www.w3.org/2000/svg" width="428" height="428" viewBox="0 0 428 428" xmlns:xlink="http://www.w3.org/1999/xlink"><defs><filter id="b" width="156.9%" height="156.9%" x="-28.5%" y="-20.3%" filterUnits="objectBoundingBox"><feOffset dy="10" in="SourceAlpha" result="shadowOffsetOuter1"/><feGaussianBlur stdDeviation="10" in="shadowOffsetOuter1" result="shadowBlurOuter1"/><feColorMatrix values="0 0 0 0 0.666666667 0 0 0 0 0.694117647 0 0 0 0 0.737254902 0 0 0 0.2 0" in="shadowBlurOuter1"/></filter><circle id="c" cx="215.5" cy="210.5" r="61.5"/><path id="a" d="M314.956 157.824c0 86.766-70.34 157.107-157.11 157.107S.73 244.59.73 157.824C.73 71.054 71.074.714 157.845.714c86.772 0 157.111 70.34 157.111 157.11z"/></defs><g fill="none" fill-rule="evenodd"><path fill="#B5D0E7" d="M208.022 2.03a1.984 1.984 0 011.96-2.03h.01a1.984 1.984 0 012.03 1.96 1.994 1.994 0 01-1.97 2.03h-.03c-1.09 0-1.98-.87-2-1.96zm14.01.07c.06-1.1.99-1.95 2.1-1.9a2 2 0 011.9 2.09 1.986 1.986 0 01-2.09 1.9v.01a2.011 2.011 0 01-1.91-2.1zm-28 .77a1.996 1.996 0 011.83-2.16 2.01 2.01 0 012.16 1.83 1.995 1.995 0 01-1.83 2.15c-.06.01-.11.01-.17.01a2 2 0 01-1.99-1.83zm43.75 2.43a2.002 2.002 0 01-1.77-2.21c.13-1.1 1.12-1.89 2.22-1.76a2 2 0 01-.22 3.99c-.08 0-.16-.01-.23-.02zm-57.65-.68a1.983 1.983 0 011.68-2.27h-.01c1.1-.17 2.12.59 2.28 1.68a1.993 1.993 0 01-1.68 2.27c-.1.02-.2.03-.3.03-.97 0-1.83-.71-1.97-1.71zm71.38 2.7a1.994 1.994 0 01-1.61-2.32 2.009 2.009 0 012.32-1.62 2 2 0 011.61 2.33 1.983 1.983 0 01-1.96 1.64c-.121 0-.24-.01-.36-.03zm-85.14-.02a2.01 2.01 0 011.52-2.39 2.015 2.015 0 012.39 1.53 2.001 2.001 0 01-1.531 2.38c-.14.03-.29.05-.43.05-.92 0-1.75-.64-1.95-1.57zm98.71 2.94a2.008 2.008 0 01-1.46-2.42 2.008 2.008 0 012.43-1.46 2.018 2.018 0 011.46 2.43 2.004 2.004 0 01-2.43 1.45zm-112.26.64a2.001 2.001 0 113.842-1.12 2.001 2.001 0 01-3.842 1.12zm125.61 3.18a1.985 1.985 0 01-1.29-2.51 1.995 1.995 0 012.51-1.3 2.003 2.003 0 011.29 2.52 1.989 1.989 0 01-1.9 1.39c-.2 0-.41-.03-.61-.1zm-138.89 1.29a2.001 2.001 0 011.19-2.56c1.04-.38 2.19.16 2.57 1.2a2.008 2.008 0 01-1.2 2.56 1.999 1.999 0 01-2.56-1.201zm151.97 3.42a1.997 1.997 0 01-1.12-2.6 2.004 2.004 0 012.6-1.12v.01a2.004 2.004 0 011.12 2.59 2.021 2.021 0 01-1.86 1.26c-.25 0-.5-.04-.74-.14zm-164.91 1.93c-.44-1.01.01-2.2 1.02-2.64 1.02-.45 2.2.01 2.64 1.02a2.001 2.001 0 01-3.66 1.62zm177.64 3.64c-.99-.48-1.42-1.67-.94-2.67s1.67-1.42 2.67-.94c.989.47 1.42 1.67.94 2.66-.34.72-1.06 1.14-1.81 1.14-.28 0-.58-.06-.86-.19zm-190.2 2.55a2 2 0 01.85-2.7 1.992 1.992 0 012.7.84c.51.98.13 2.19-.85 2.7-.29.16-.61.23-.92.23-.72 0-1.42-.39-1.78-1.07zm202.54 3.85a2.012 2.012 0 01-.77-2.73 2.011 2.011 0 012.73-.76c.96.54 1.3 1.76.76 2.72a1.967 1.967 0 01-1.74 1.02c-.34 0-.67-.08-.98-.25zm-214.66 3.16c-.57-.95-.28-2.18.67-2.75a2 2 0 012.75.66c.57.95.27 2.18-.67 2.75a2.017 2.017 0 01-2.75-.66zm226.539 4.04a2.01 2.01 0 01-.58-2.77 1.99 1.99 0 012.77-.58c.92.6 1.18 1.84.58 2.77-.38.58-1.02.9-1.68.9-.37 0-.75-.1-1.09-.32zM90.28 41.69a2.006 2.006 0 01.49-2.79h-.01c.91-.63 2.16-.42 2.79.49.64.9.42 2.15-.48 2.78-.35.25-.75.37-1.15.37-.63 0-1.25-.3-1.64-.85zm249.56 4.22a2 2 0 01-.4-2.8 1.988 1.988 0 012.8-.4c.88.66 1.06 1.91.4 2.8a1.998 1.998 0 01-2.8.4zm-260.66 4.33a2 2 0 01.3-2.81c.86-.7 2.12-.56 2.81.3.69.85.56 2.11-.3 2.81-.37.3-.81.44-1.25.44-.59 0-1.16-.25-1.56-.74zm271.49 4.37a1.997 1.997 0 01-.22-2.82c.72-.84 1.99-.94 2.82-.22a1.999 1.999 0 01-1.3 3.52c-.46 0-.93-.16-1.3-.48zM68.662 59.5a1.996 1.996 0 01.12-2.83 2.001 2.001 0 012.82.12c.75.81.7 2.08-.11 2.82-.39.36-.87.53-1.36.53-.54 0-1.07-.21-1.47-.64zm292.24 4.5c-.79-.78-.8-2.04-.03-2.83s2.04-.8 2.83-.03c.78.77.8 2.04.03 2.83a2.003 2.003 0 01-2.83.03zm-302.13 5.44a2.005 2.005 0 01-.07-2.83c.76-.8 2.03-.83 2.83-.08.8.76.83 2.03.07 2.83-.39.42-.92.63-1.45.63-.49 0-.99-.19-1.38-.55zm311.72 4.6c-.74-.83-.67-2.09.16-2.83.82-.73 2.08-.66 2.82.16.73.82.66 2.09-.16 2.83-.38.34-.86.51-1.33.51-.55 0-1.1-.23-1.49-.67zM49.552 80a2.009 2.009 0 01-.25-2.82 1.996 1.996 0 012.81-.26c.85.71.97 1.97.26 2.82-.39.48-.96.72-1.54.72-.45 0-.9-.15-1.28-.46zm329.85 4.68c-.69-.86-.53-2.12.34-2.8.87-.68 2.12-.53 2.81.34.67.87.52 2.13-.35 2.81-.36.28-.8.42-1.23.42a1.97 1.97 0 01-1.57-.77zm-338.35 6.47a1.997 1.997 0 01-.44-2.79c.65-.9 1.9-1.1 2.79-.45a2.01 2.01 0 01.45 2.8c-.4.53-1.01.82-1.62.82-.41 0-.82-.12-1.18-.38zm346.53 4.74c-.62-.91-.38-2.16.53-2.78.91-.62 2.15-.38 2.78.53a2.007 2.007 0 01-1.65 3.13c-.64 0-1.27-.31-1.66-.88zm-354.28 6.95a2.005 2.005 0 01-.62-2.76 1.983 1.983 0 012.75-.63 1.996 1.996 0 01-1.06 3.69c-.37 0-.74-.1-1.07-.3zm361.71 4.77c-.56-.95-.25-2.18.71-2.74.95-.56 2.17-.24 2.74.71a2.012 2.012 0 01-.71 2.74c-.32.19-.67.28-1.02.28-.68 0-1.35-.36-1.72-.99zm-368.67 7.4a1.994 1.994 0 01-.81-2.71 2.004 2.004 0 012.71-.81 2.017 2.017 0 01.81 2.72 2.008 2.008 0 01-2.71.8zm375.3 4.78a2 2 0 01.9-2.68c.98-.5 2.18-.1 2.68.89v-.01a2 2 0 01-.89 2.69c-.29.14-.6.21-.9.21-.73 0-1.44-.4-1.79-1.1zm-381.44 7.84a1.999 1.999 0 01-.99-2.65 1.997 1.997 0 012.65-.99c1.01.46 1.45 1.65.99 2.65a2.004 2.004 0 01-2.65.99zm387.26 4.75a1.996 1.996 0 011.06-2.62 2.004 2.004 0 012.62 1.06c.43 1.02-.05 2.2-1.06 2.63-.26.1-.52.15-.78.15a2 2 0 01-1.84-1.22zM14.9 140.63a1.997 1.997 0 01-1.15-2.58h-.01a2 2 0 012.59-1.16 2 2 0 011.16 2.58h-.01c-.3.8-1.06 1.29-1.87 1.29-.23 0-.47-.04-.71-.13zm397.52 4.69a1.99 1.99 0 011.23-2.54 2.01 2.01 0 012.55 1.23 2.01 2.01 0 01-1.89 2.66c-.83 0-1.61-.52-1.89-1.35zm-401.93 8.63a1.995 1.995 0 01-1.33-2.49 1.992 1.992 0 012.5-1.33 2.003 2.003 0 011.33 2.49 2.02 2.02 0 01-1.92 1.42c-.19 0-.39-.03-.58-.09zm406.02 4.64v-.01a1.997 1.997 0 011.41-2.45c1.06-.29 2.16.34 2.45 1.4a2.006 2.006 0 01-1.4 2.46c-.18.05-.35.07-.53.07-.88 0-1.69-.58-1.93-1.47zm-409.53 8.93a2.003 2.003 0 01-1.49-2.4 1.983 1.983 0 012.4-1.49 1.99 1.99 0 011.49 2.4 1.985 1.985 0 01-1.94 1.54c-.15 0-.3-.01-.46-.05zm412.74 4.57a2.005 2.005 0 011.56-2.36 2.01 2.01 0 012.36 1.57 1.992 1.992 0 01-1.57 2.35 1.986 1.986 0 01-2.35-1.559zm-415.34 9.2a1.993 1.993 0 01-1.65-2.29 2.004 2.004 0 012.3-1.65 1.988 1.988 0 011.65 2.29 1.994 1.994 0 01-2.3 1.65zm417.64 4.49c-.15-1.1.62-2.1 1.71-2.25 1.1-.14 2.1.62 2.25 1.72a1.998 1.998 0 01-1.72 2.25c-.09.01-.18.02-.26.02-.99 0-1.85-.73-1.98-1.74zm-419.32 9.43a2.007 2.007 0 01-1.8-2.19 1.99 1.99 0 012.18-1.79 1.986 1.986 0 011.8 2.18 2.005 2.005 0 01-1.99 1.81c-.06 0-.13-.01-.19-.01zm420.71 4.38c-.08-1.1.75-2.05 1.86-2.13 1.1-.07 2.05.76 2.13 1.86a2.003 2.003 0 01-1.86 2.13c-.05.01-.1.01-.14.01a2 2 0 01-1.99-1.87zM1.932 209.2a2 2 0 01-1.93-2.06 1.995 1.995 0 012.06-1.94c1.1.04 1.97.96 1.93 2.06a1.993 1.993 0 01-1.99 1.94h-.07zm421.96 4.76c0-.08.01-.16.02-.24-.01-.08-.02-.16-.02-.25a2 2 0 012-2c1.1-.01 2 .89 2 1.99 0 .09-.01.17-.02.25.01.08.02.17.02.25a2 2 0 01-4 0zM.012 221.28a2.001 2.001 0 112.07 1.94h-.07c-1.07 0-1.96-.85-2-1.94zm425.29 8.68a1.994 1.994 0 01-1.86-2.12 1.997 1.997 0 012.13-1.87 2.004 2.004 0 011.86 2.13 2 2 0 01-1.99 1.86h-.14zM.952 235.4a1.998 1.998 0 011.79-2.19c1.1-.11 2.08.69 2.19 1.79a1.998 1.998 0 01-1.79 2.19c-.07.01-.14.01-.2.01-1.02 0-1.89-.77-1.99-1.8zm422.85 8.49a2 2 0 01-1.72-2.24 1.993 1.993 0 012.25-1.72 2.003 2.003 0 011.72 2.24h-.01a1.993 1.993 0 01-1.97 1.74c-.09 0-.18-.01-.27-.02zm-420.99 5.53c-.18-1.09.56-2.12 1.65-2.3a1.988 1.988 0 012.3 1.64 2.002 2.002 0 01-1.65 2.3c-.11.02-.22.03-.32.03-.96 0-1.81-.69-1.98-1.67zm418.57 8.28a2.014 2.014 0 01-1.57-2.36 2.008 2.008 0 012.35-1.57 2.019 2.019 0 011.58 2.36c-.2.95-1.03 1.61-1.97 1.61-.13 0-.26-.01-.39-.04zm-415.78 5.59a2 2 0 011.49-2.4 1.996 1.996 0 012.41 1.48 2.012 2.012 0 01-1.49 2.41c-.16.03-.31.05-.46.05-.91 0-1.73-.62-1.95-1.54zm412.45 8.02a1.993 1.993 0 01-1.41-2.45 1.998 1.998 0 012.45-1.41c1.07.29 1.7 1.39 1.41 2.45a2.005 2.005 0 01-1.93 1.48c-.17 0-.34-.02-.52-.07zm-408.74 5.63c-.33-1.05.27-2.17 1.32-2.5a2.002 2.002 0 012.5 1.33 1.996 1.996 0 01-1.91 2.59c-.86 0-1.65-.56-1.91-1.42zm404.51 7.73a1.996 1.996 0 01-1.24-2.54 2 2 0 111.24 2.54zm-399.91 5.65a2.004 2.004 0 011.16-2.58 1.99 1.99 0 012.58 1.15 1.999 1.999 0 01-1.15 2.58c-.24.09-.48.14-.72.14-.8 0-1.56-.49-1.87-1.29zm394.79 7.42a1.992 1.992 0 01-1.07-2.61c.43-1.02 1.6-1.5 2.62-1.08a2.007 2.007 0 011.07 2.62 2.005 2.005 0 01-1.85 1.23c-.26 0-.52-.05-.77-.16zm-389.3 5.6h-.01c-.46-1-.02-2.19.98-2.65a2.013 2.013 0 012.66.98 2 2 0 01-.98 2.65c-.27.13-.56.19-.84.19-.76 0-1.48-.44-1.81-1.17zm383.32 7.1a2.009 2.009 0 01-.89-2.68 2 2 0 012.68-.9c.99.5 1.39 1.7.9 2.69-.35.7-1.06 1.1-1.79 1.1-.3 0-.61-.07-.9-.21zm-376.99 5.54c-.53-.97-.17-2.19.8-2.71a1.997 1.997 0 111.91 3.51c-.3.17-.63.24-.95.24-.71 0-1.4-.37-1.76-1.04zm370.19 6.73a2.018 2.018 0 01-.72-2.74 2.006 2.006 0 012.74-.71c.95.56 1.27 1.78.72 2.73-.37.64-1.04.99-1.73.99-.34 0-.69-.09-1.01-.27zm-363.04 5.46c-.59-.93-.31-2.17.62-2.76a2.002 2.002 0 012.76.62c.59.94.31 2.17-.62 2.76a2.002 2.002 0 01-2.76-.62zm355.44 6.33a2.007 2.007 0 01-.53-2.78 1.997 1.997 0 012.78-.53c.91.62 1.15 1.86.53 2.78v-.01c-.39.57-1.02.88-1.66.88-.38 0-.77-.11-1.12-.34zm-347.49 5.37v-.01a1.99 1.99 0 01.44-2.79 2 2 0 012.79.44c.65.89.46 2.14-.44 2.79-.35.26-.76.39-1.17.39-.62 0-1.23-.29-1.62-.82zm339.13 5.89a2.003 2.003 0 01-.34-2.81c.68-.87 1.93-1.03 2.8-.35.87.68 1.03 1.94.35 2.81-.39.51-.98.77-1.58.77-.43 0-.86-.14-1.23-.42zm-330.43 5.26a2.007 2.007 0 01.25-2.82c.85-.71 2.11-.6 2.82.25s.6 2.11-.25 2.82c-.38.31-.83.46-1.28.46a2 2 0 01-1.54-.71zm321.35 5.42a2.003 2.003 0 012.67-2.99c.82.74.89 2 .16 2.83-.4.44-.95.67-1.5.67-.47 0-.94-.17-1.33-.51zm-311.93 5.13c-.76-.8-.73-2.07.06-2.83.8-.76 2.07-.73 2.83.07a1.995 1.995 0 01-1.44 3.38 2 2 0 01-1.45-.62zm302.17 4.93c-.77-.78-.76-2.05.03-2.82.78-.78 2.05-.77 2.83.02.77.79.76 2.05-.03 2.83-.39.38-.89.57-1.4.57-.52 0-1.03-.2-1.43-.6zm-292.08 4.99a2.006 2.006 0 01-.12-2.83c.75-.81 2.02-.87 2.83-.12s.86 2.02.12 2.83c-.4.43-.94.65-1.48.65-.48 0-.97-.18-1.35-.53zm281.69 4.41c-.73-.84-.63-2.1.21-2.82.83-.72 2.1-.63 2.82.21a2.005 2.005 0 01-1.52 3.31c-.56 0-1.12-.24-1.51-.7zm-270.97 4.82h.01c-.87-.69-1-1.95-.31-2.81.69-.86 1.95-1 2.81-.3.86.69 1 1.95.31 2.81-.4.49-.98.74-1.56.74-.44 0-.89-.14-1.26-.44zm259.98 3.87c-.67-.88-.49-2.13.39-2.8v.01c.88-.67 2.14-.49 2.8.39.66.88.49 2.13-.39 2.8-.36.27-.79.4-1.21.4-.6 0-1.2-.27-1.59-.8zm-248.67 4.64c-.9-.63-1.12-1.88-.48-2.78a1.982 1.982 0 012.78-.49c.91.63 1.12 1.88.49 2.78-.39.56-1.01.85-1.64.85-.4 0-.8-.11-1.15-.36zm237.13 3.31c-.61-.92-.35-2.16.58-2.76.92-.61 2.16-.35 2.77.57a2.01 2.01 0 01-1.68 3.1c-.65 0-1.29-.32-1.67-.91zm-225.28 4.44a2.012 2.012 0 01-.67-2.75 2 2 0 012.75-.67c.95.57 1.24 1.8.67 2.75-.38.62-1.03.96-1.71.96-.35 0-.71-.1-1.04-.29zm213.24 2.73a1.992 1.992 0 01.77-2.72 1.98 1.98 0 012.72.76c.54.96.2 2.18-.76 2.72-.31.18-.65.26-.98.26-.7 0-1.38-.37-1.75-1.02zm-200.9 4.22a2.002 2.002 0 011.85-3.55c.98.51 1.36 1.71.85 2.69a2.003 2.003 0 01-1.78 1.08c-.31 0-.62-.07-.92-.22zm188.43 2.14c-.48-1-.06-2.19.94-2.67a1.987 1.987 0 012.66.94c.48.99.06 2.19-.93 2.67-.28.13-.58.19-.87.19-.74 0-1.46-.42-1.8-1.13zm-175.65 3.97a1.983 1.983 0 01-1.03-2.63 1.98 1.98 0 012.63-1.03 1.998 1.998 0 01-1.6 3.66zm162.78 1.54a1.999 1.999 0 011.12-2.6c1.02-.41 2.18.09 2.6 1.11a1.997 1.997 0 01-1.12 2.6c-.24.1-.49.15-.74.15-.79 0-1.54-.48-1.86-1.26zm-149.62 3.72a2.005 2.005 0 01-1.21-2.56 2.01 2.01 0 012.56-1.21 1.995 1.995 0 011.2 2.56 1.984 1.984 0 01-1.88 1.32c-.22 0-.45-.03-.67-.11zm136.4.93a1.995 1.995 0 011.29-2.52c1.05-.34 2.17.23 2.52 1.28.34 1.05-.24 2.18-1.29 2.52a2.002 2.002 0 01-2.52-1.28zm-122.95 3.42a1.999 1.999 0 01-1.37-2.47 2.008 2.008 0 012.48-1.37c1.06.3 1.67 1.41 1.37 2.48a1.997 1.997 0 01-1.92 1.44c-.19 0-.37-.02-.56-.08zm109.45.34c-.27-1.07.38-2.16 1.45-2.43a2.002 2.002 0 11-1.45 2.431zm-95.73 3.12a2.001 2.001 0 01-1.53-2.38c.24-1.08 1.3-1.76 2.38-1.53 1.08.23 1.77 1.3 1.53 2.38a1.995 1.995 0 01-1.95 1.57c-.14 0-.28-.01-.43-.04zm82.01-.27c-.2-1.09.52-2.13 1.61-2.33a2.002 2.002 0 01.72 3.94c-.13.02-.25.03-.37.03-.94 0-1.78-.67-1.96-1.64zm-68.09 2.8a1.99 1.99 0 01-1.68-2.27 1.991 1.991 0 012.27-1.68 1.997 1.997 0 01-.29 3.971c-.1 0-.2 0-.3-.021zm54.21-.86a2.003 2.003 0 011.76-2.22c1.09-.13 2.09.66 2.21 1.76a1.986 1.986 0 01-1.76 2.21 1.475 1.475 0 01-.23.02 2 2 0 01-1.98-1.77zm-40.16 2.47a1.995 1.995 0 01-1.83-2.15 2.007 2.007 0 012.16-1.84c1.1.09 1.92 1.06 1.83 2.16a2 2 0 01-1.99 1.84c-.06 0-.11-.01-.17-.01zm26.18-1.45c-.05-1.11.8-2.05 1.9-2.1 1.1-.05 2.04.8 2.1 1.9.05 1.1-.8 2.04-1.9 2.1h-.1c-1.06 0-1.94-.83-2-1.9zm-12.05 2.13a2.013 2.013 0 01-1.97-2.03 2.018 2.018 0 012.04-1.97c1.1.02 1.98.93 1.96 2.03a1.992 1.992 0 01-2 1.97h-.03z" opacity=".5"/><g fill-rule="nonzero" opacity=".397"><g transform="translate(57 57)"><use fill="#B5D0E7" fill-rule="evenodd" xlink:href="#a"/><path stroke="#B5D0E7" stroke-width="2" d="M315.956 157.824c0 87.319-70.789 158.107-158.11 158.107C70.521 315.93-.27 245.143-.27 157.824-.27 70.502 70.52-.286 157.845-.286c87.324 0 158.111 70.787 158.111 158.11z"/></g><path fill="#FFF" d="M202.96 362.741c-.795-.12-1.477-.507-1.526-.845-.042-.347-.099-.87-.134-1.169-.085-.73-3.763-3.952-6.177-5.413-1.218-.73-2.195-1.853-2.595-2.976-.36-.992-.845-1.806-1.077-1.806-.226 0-.41-.338-.41-.754 0-.42-.5-1.104-1.108-1.539-.603-.42-.949-1.021-.757-1.33.216-.346.035-.438-.47-.25-.594.234-.81-.032-.81-.956 0-.8-.904-2.21-2.419-3.803-2.498-2.593-3.57-5.782-2.44-7.22.288-.36.672-1.298.864-2.085.19-.785 1.05-1.953 1.907-2.592 1.861-1.373 1.915-1.88.461-4.341-.607-1.03-.965-2.225-.792-2.676.169-.437-.664-2.805-1.856-5.243-1.608-3.313-2.91-5.128-5.105-7.134-2.648-2.414-5.304-6.067-5.304-7.3 0-.25.357-.47.787-.47.534 0 .792-.546.803-1.698.01-.939.36-2.16.787-2.723 1.368-1.814.56-5.533-.891-4.09-.358.363-.953.653-1.334.653-.965 0-.845-1.538.155-1.92 1.517-.583-.374-1.21-3.713-1.224-1.73-.008-3.41-.192-3.734-.4-.322-.22-1.21-1.614-1.96-3.112-1.2-2.379-1.634-2.776-3.352-3.098-2.638-.495-5.873-.488-10.614.02-3.686.4-4.102.334-6.555-.98-2.03-1.084-3.633-1.47-7.078-1.695-5.102-.343-5.528-.613-10.11-6.459-1.473-1.872-3.753-4.395-5.063-5.612-1.565-1.453-2.187-2.35-1.803-2.621.939-.654.227-3.55-1.29-5.256-.766-.862-1.692-2.006-2.054-2.545-.365-.55-1.142-1.702-1.726-2.56-.787-1.168-.96-1.976-.68-3.145.211-.869.403-2.747.416-4.19.019-1.672.33-2.898.861-3.405 1.104-1.046 2.187-3.668 1.518-3.668-.28 0-.512-.706-.512-1.576 0-.86.203-1.568.454-1.568.25 0 .426.413.395.915-.142 2.061.904 1.269 1.096-.833.142-1.52.027-2.165-.342-1.93-.699.426-.707.541.23-3.913.638-3.042 1.203-4.219 3.018-6.325 1.227-1.425 2.641-2.718 3.145-2.879.507-.162.915-.637.915-1.069 0-1.392 1.592-3.226 3.06-3.517.815-.164 1.756-.873 2.16-1.622.557-1.038.987-1.265 1.936-1.03.758.197 1.235.082 1.235-.293 0-.33.293-.557.653-.494.36.056 1.011-.046 1.442-.23a66.34 66.34 0 012.153-.827c1.053-.384 1.442-.968 1.696-2.514.442-2.787 3.59-5.99 6.692-6.812 2.94-.776 5.136-3.494 4.774-5.924-.158-1.088-.526-1.573-1.192-1.573-.526 0-1.1-.237-1.277-.522-.181-.288-.781-.526-1.345-.526-1.208 0-1.253-.424-.21-1.811.492-.65.66-1.608.468-2.63-.237-1.28.027-2.03 1.3-3.629 1.664-2.091 2.656-4.793 2.664-7.235.003-1.222.307-1.504 2.152-2.003 1.784-.477 2.302-.438 3.051.243.5.45 1.257.818 1.68.818.427 0 1.004.238 1.289.52.28.28 1.688.872 3.117 1.307 2.5.76 2.646.75 3.507-.285.496-.595 1.056-1.896 1.237-2.883.396-2.1-.13-5.462-.853-5.462-.272 0-.5-.328-.5-.734 0-.403-.353-.865-.786-1.035-.459-.176-.785-.96-.785-1.888 0-1.499.115-1.587 2.054-1.587 1.133 0 2.187.296 2.357.657.165.36.154.085-.02-.603-.25-.992-.14-1.192.497-.947.446.174.907.032 1.034-.314.15-.43.555-.334 1.288.322 1.016.9 1.173.904 3.091.062l2.022-.891-1.837-.459c-1.008-.25-3.603-.546-5.767-.661-2.165-.107-4.347-.227-4.848-.253-1.422-.086-1.08-.934.52-1.292.795-.176 1.915-.688 2.494-1.133.85-.662.907-.896.315-1.265-.965-.592-.342-2.125.87-2.125.698 0 .949-.39.933-1.438-.016-1.264.162-1.422 1.419-1.288 1.277.13 1.434-.019 1.384-1.312-.035-.89-.155-1.103-.3-.55-.13.508-.6.916-1.042.916-.496 0-.691-.296-.512-.777.25-.65.131-.672-.73-.133-.566.357-1.03 1.138-1.03 1.744 0 .603-.411 1.461-.918 1.902-1.061.926-5.424 1.676-6.95 1.192-1.56-.496-1.376-2.752.285-3.513.792-.357 1.222-.896 1.056-1.322-.41-1.07 1.291-3.39 2.227-3.038.426.169 1.214-.085 1.738-.565.554-.499 1.48-.757 2.21-.619.843.162 1.457-.085 1.862-.722.373-.596.4-.96.072-.96-.93 0-.568-1.046.392-1.108.873-.061.873-.072 0-.299-1.234-.323-1.157-.9.32-2.494 1.27-1.373 2.956-1.795 2.956-.746 0 .415.226.403.76-.046.419-.347 1.027-.473 1.345-.273.315.197 1.045-.061 1.607-.573.82-.741 1.158-.795 1.67-.277.514.515.288.969-1.065 2.187-1.472 1.326-1.565 1.539-.657 1.539 1.392 0 1.392 1.634 0 2.886-1.214 1.099-1.077 2.88.585 7.477 1.138 3.172 1.318 6.727.341 7.07-.36.131-.499.403-.311.608.584.635 3.347-1.118 4.835-3.08 1.288-1.688 1.664-1.864 3.987-1.864 2.83 0 2.918-.112 3.417-4.136.392-3.121.83-3.748 3.187-4.556 1.565-.541 2.11-.554 2.421-.066.235.369.408-.077.408-1.069.011-1.88-.738-2.176-2.379-.93-.56.423-1.726.776-2.595.784-2.337.023-3.048-1.465-2.598-5.417.488-4.243 1.312-5.708 3.878-6.862 1.176-.53 2.134-1.15 2.134-1.373 0-.23.83-.715 1.845-1.077 1.242-.45 2.456-1.553 3.71-3.376 1.03-1.488 2.437-3.01 3.136-3.379.696-.381 1.173-.776 1.054-.899-.12-.12-.73.061-1.357.395s-1.265.485-1.42.33c-.415-.418 2.99-3.416 5.186-4.554 1.061-.55 2.072-1.238 2.256-1.53.181-.297 1.022-.54 1.872-.54.846 0 1.542-.188 1.542-.415 0-.619 3.129-1.56 5.32-1.603 1.339-.027 2.328.35 3.304 1.257.768.711 1.738 1.288 2.152 1.288.42 0 .76.237.76.525 0 .289.465.523 1.038.523 1.857 0 7.758 2.729 8.366 3.87.342.627 1.164 1.139 1.923 1.185 1.222.072 1.256.007.502-.827-.449-.5-.819-1.3-.819-1.78 0-.484-.242-.88-.527-.88-.288 0-.526-.376-.526-.842 0-.65.392-.792 1.707-.6.933.128 2.114.411 2.613.63.673.293 1.403-.162 2.83-1.741 1.24-1.388 2.54-2.257 3.678-2.473 3.365-.626 1.397-2.837-2.176-2.437-1.403.157-2.76-.05-3.809-.595-1.38-.712-1.68-1.222-1.944-3.334-.174-1.368-.45-3.08-.613-3.797-.638-2.88-.35-4.348 1.058-5.371.756-.555 1.384-1.358 1.384-1.787 0-.465.372-.707.915-.596.718.142.872.585.715 2.006-.115 1-.23 3.548-.25 5.67-.041 3.398.093 3.972 1.138 4.817 1.56 1.261 6.128 2.118 8.758 1.64l2.099-.383-1.446-1.254c-.792-.696-1.437-1.73-1.437-2.307 0-.576-.331-1.414-.73-1.872-.404-.453-.9-1.626-1.108-2.602-.36-1.704-.323-1.758.958-1.438 1.16.288 1.352.15 1.499-1.1l.163-1.437 1.176 1.273c.958 1.026 1.181 1.103 1.181.384 0-.485-.258-.885-.58-.885-.342 0-.486-.547-.334-1.312.133-.72.064-1.311-.16-1.311-.226 0-.557-1-.741-2.227-.674-4.435-.877-5-1.883-5.267-1.438-.376-1.307-1.93.162-1.952 1.146-.02 1.148-.035.126-.608-.572-.328-1.222-.853-1.43-1.165-.264-.395-.387-.4-.395-.011-.008.307-1.52.861-3.36 1.226-3.534.704-4.667.462-6.125-1.318-.688-.83-.603-.877 1.045-.554 1.243.25 2.176.104 3.064-.477.76-.5 1.776-.712 2.537-.52.75.19 1.261.085 1.261-.245 0-.373.788-.45 2.283-.227 1.817.27 2.348.173 2.606-.488.395-1.038 1.956-1.057 5.198-.072 2.417.738 2.49.725 2.49-.342 0-.603.412-1.403.919-1.792.834-.635.792-.7-.493-.715-1.675-.019-2.053-.48-1.649-2.026.241-.918.7-1.147 2.463-1.177 1.192-.026 1.872-.162 1.515-.307-.364-.146-.657-.588-.657-.992 0-1.89-5.382-3.39-7.208-2.01-1.857 1.407-5.374.522-5.374-1.353 0-.554-.233-1.146-.523-1.323-.942-.58-.554-1.834.576-1.834.659 0 1.208.419 1.373 1.046.15.573.523 1.05.825 1.05.304 0 .981.392 1.5.861.884.795.976.795 1.28 0 .18-.47.656-.861 1.06-.861.87 0 .964-.838.163-1.339-.315-.192-.453-.787-.315-1.317.18-.692-.261-1.273-1.53-2.022-1.792-1.057-2.342-2.11-1.128-2.157 1.07-.043-3.894-2.433-5.892-2.849-1.012-.208-4.432-1.63-7.603-3.16-3.176-1.53-6.302-2.937-6.95-3.129-1.328-.389-1.6-1.322-.397-1.322.43 0 .788-.238.788-.523 0-.288.355-.523.785-.523.433 0 .784.235.784.523 0 .285.648.526 1.445.526.787.003 2.148.376 3.014.834 2.115 1.112 7.076 1.641 7.076.755 0-.411.346-.523.92-.3.502.193 3.629.926 6.945 1.638 3.313.704 6.501 1.504 7.078 1.771 2.579 1.211 5.19 2.11 6.12 2.11.558 0 1.71.36 2.556.8 1.392.72 1.544.72 1.544 0 0-.437.243-.8.531-.8.285 0 .523.358.523.784 0 .43.412.788.922.788.512 0 2.219.493 3.803 1.096 1.58.6 3.713 1.269 4.74 1.483 2.098.43 7.309 3.12 7.309 3.779 0 .595-5.974-.73-10.745-2.387-.577-.203-.164.176.911.842s1.964 1.51 1.964 1.872c.005.358.25.654.543.654.293 0 1.539.912 2.753 2.034 1.217 1.123 4.692 3.513 7.721 5.31 3.03 1.8 6.243 3.97 7.15 4.824 1.038.981 1.776 1.342 1.997.984.51-.826-.139-1.622-1.038-1.277-.727.277-.85.085-.976-1.522-.028-.36-.412-.93-.838-1.265-1.573-1.226-.034-1.253 3.483-.077 3.663 1.23 4.748 1.968 3.782 2.56-.32.204-.18.473.339.677.485.185 1.102.197 1.376.027.277-.173.825-.042 1.23.288.403.339 1.456.627 2.344.65 1.172.038 1.577.278 1.477.889-.085.546.257.842 1.003.853 1.36.02 6.466 4.171 6.466 5.255 0 1.064-.728.933-1.884-.342-.546-.603-1.464-1.323-2.045-1.6-1.24-.592 1.81 2.23 6.398 5.908 1.878 1.507 3.928 3.763 4.84 5.336 1.64 2.803 7.956 9.572 11.093 11.887l1.773 1.311-1.969-2.69c-2.05-2.807-2.28-3.337-1.477-3.337.692 0 9.706 12.001 9.306 12.393-.184.181-.691.032-1.13-.334-1.118-.93-.992-.395.25 1.038 1.033 1.2 1.348 2.096.73 2.096-.176 0-1.535-1.296-3.021-2.88-1.488-1.58-2.92-2.88-3.18-2.88-.262 0-.942-.411-1.51-.915-1.02-.904-1.02-.899-.16.784.569 1.104.662 1.7.277 1.7-.325 0-.453.372-.285.815.205.53.104.688-.28.442-1.208-.738.139.811 1.603 1.849l1.483 1.061-.18-1.56c-.289-2.5.708-1.806 2.476 1.722 2.107 4.206 2.61 4.836 3.132 3.987.282-.45 1.189.211 2.933 2.137 2.846 3.129 4.214 5.166 6.558 9.726.892 1.726 2.115 3.656 2.724 4.278 1.846 1.88 2.45 2.737 3.238 4.628 1 2.379.984 3.609-.046 3.214-.616-.238-.691-.1-.31.6.691 1.303 2.686 11.021 2.686 13.092 0 .965.512 2.86 1.139 4.214 1.273 2.76 1.957 7.957 1.045 7.957-.31 0-.83-1-1.146-2.226-.942-3.644-1.123-4.152-1.376-3.89-.134.133.097 2.075.527 4.325.707 3.736.964 4.264 3.075 6.216 2.96 2.733 3.86 5.928 4.329 15.362.299 6.096.245 6.942-.482 6.942-.449 0-.822-.354-.822-.784a.787.787 0 00-.78-.788.788.788 0 01-.784-.78c0-1.177-.927-.95-1.33.32-.43 1.356.192 6.754.776 6.754.238 0 .58 1.008.764 2.233.242 1.579.669 2.395 1.453 2.752 2.327 1.07 3.529 10.718 2.32 18.58-.424 2.729-1.022 5.047-1.331 5.154-.307.097-.56.522-.56.922 0 .413-.238.747-.528.747-.288 0-.523-.358-.523-.792 0-.992-2.163-5.697-2.729-5.936-.688-.289-.472-1.238.427-1.895.747-.546.688-.72-.527-1.511-1.739-1.142-1.764-2.937-.077-4.52 1.088-1.023 1.43-1.108 2.111-.547.449.373.96.53 1.146.346.531-.534-1.46-7.15-2.152-7.15-.36 0-1.019-1.74-1.538-4.06-1.566-7.014-2.011-8.69-3.137-11.919l-1.107-3.144-.538 2.84c-.52 2.702-1.611 4.079-2.05 2.576a280.3 280.3 0 01-.808-2.925c-.334-1.227-.803-2.227-1.041-2.227-.246 0-1.343-.826-2.445-1.834-1.1-1.016-2.134-1.834-2.291-1.827-.555.016-3.7 7.447-3.7 8.73 0 .704-.33 2.384-.73 3.74-.869 2.933-1.988 9.299-1.935 11.017.02.674-.53 2.403-1.222 3.851-1.163 2.435-1.207 2.765-.51 4.418.408.988.772 2.907.8 4.27.065 2.96.808 5.726 1.694 6.274 1.312.808 2.95 3.752 2.95 5.301 0 1.992-.936 4.108-1.997 4.513-1.07.411-1.584-.512-2.001-3.557-.377-2.779-1.046-2.683-2.006.293-.424 1.3-.85 1.707-1.819 1.707-1.003 0-1.576-.595-2.756-2.883-.82-1.58-1.722-2.96-2.013-3.052-.293-.099-1.107-1.395-1.814-2.883-.707-1.486-1.861-3.313-2.553-4.054-.691-.739-1.418-1.861-1.622-2.488-.2-.625-.603-1.142-.903-1.142-.298 0-.422-.322-.268-.722.154-.4-.29-1.566-.994-2.592-.697-1.027-1.264-2.104-1.264-2.392 0-.293-.858-.416-1.984-.282-1.33.162-2.648-.102-4.036-.815-1.138-.58-2.376-1.057-2.744-1.057-.368 0-.677-.335-.677-.743 0-.411-.723-.902-1.608-1.094-.885-.197-1.733-.692-1.89-1.104-.163-.411-.761-1.008-1.34-1.31-.824-.438-1.352-.351-2.429.433-.756.546-2.209 1.33-3.213 1.73-1.011.413-2.295 1.16-2.86 1.688-.568.518-1.272.854-1.571.746-.304-.103-1.611.119-2.904.507-2.936.885-5.884.915-6.712.089-.923-.918-.833.815.138 2.687.885 1.715 1.969 2.257 3.642 1.838.726-.184 1.934.15 3.153.87 1.84 1.08 1.952 1.286 1.64 3.044-.18 1.038-.461 2.768-.625 3.852-.18 1.192-.584 1.963-1.03 1.963-.492 0-.735.638-.735 1.973 0 1.4-.296 2.156-1.045 2.625-.577.36-1.054 1.146-1.054 1.742 0 .66-.423 1.207-1.072 1.376-.65.168-1.192.861-1.368 1.74-.181.911-.72 1.568-1.411 1.749-1.745.446-4.966 3.355-5.15 4.654-.103.728-1.161 1.819-2.788 2.883-1.442.947-3.182 2.235-3.859 2.865-1.568 1.448-6.427 4.59-7.104 4.59-.285 0-1.153.61-1.936 1.36-.864.833-2.086 1.392-3.131 1.44-1.539.075-1.838-.162-2.904-2.275-1.483-2.952-1.864-4.054-2.045-5.977-.1-1.066-.95-2.26-2.787-3.933-1.454-1.326-2.776-2.89-2.945-3.494-.165-.6-1.069-1.419-2-1.834-1.319-.58-1.86-1.273-2.418-3.102-1.208-3.957-2.267-5.774-3.582-6.102-.68-.176-1.592-.992-2.022-1.825-.433-.83-.984-1.511-1.233-1.511-.245 0-.597-.53-.773-1.176-.56-2.014-3.651-5.206-4.667-4.817-.493.187-.894.699-.894 1.138 0 1.008 2.717 5.782 4.182 7.35.61.65.98 1.396.819 1.657-.385.623.22 2.137.858 2.137 1.472 0 3.363 3.198 3.867 6.55.277 1.866.68 2.557 1.875 3.264.838.494 2.038 1.968 2.657 3.27.623 1.3 1.388 2.545 1.698 2.753.377.261.355.389-.085.392-.35.004-.499.365-.333.796.4 1.033 1.237 1.008 1.237-.037 0-.551.384-.769 1.176-.654.777.107 1.18.526 1.18 1.217 0 .646.845 1.611 2.218 2.534 3.321 2.214 5.167 4.113 5.567 5.705.571 2.322 2.075 2.755 4.953 1.453 1.357-.616 2.819-1.343 3.248-1.608.43-.269 1.142-.634 1.569-.808 3.409-1.357 6.63-3.05 6.977-3.664.23-.403.881-.733 1.442-.733.764 0 1.022.36 1.022 1.464 0 .808.293 1.768.653 2.13.526.531.48.761-.242 1.169-.493.277-.769.83-.616 1.23.151.396-.24 1.727-.872 2.964-.627 1.23-1.715 3.748-2.403 5.598-1.976 5.247-4.513 8.714-11.389 15.557-9.502 9.47-14.505 15.476-12.886 15.476.819 0 .554 2.006-.29 2.192-.685.147-.691.347-.046 1.584.843 1.614.808 2.584-.133 3.72-.885 1.062-.259 3.345 1.003 3.668.899.238.996.743.922 4.897l-.085 4.636-2.16 2.09c-1.225 1.193-3.337 2.515-4.867 3.06-1.491.523-3.001 1.307-3.36 1.735-.36.43-1.56 1.246-2.678 1.814-2.23 1.146-2.912 2.217-2.05 3.252.665.807.212 4.32-.646 5-.323.25-1.795.854-3.267 1.33-2.254.74-2.825 1.2-3.583 2.868-.899 2-1.072 2.13-8.321 5.958-4.44 2.35-7.363 2.915-16.343 3.173-4.62.13-9.044.134-9.836.003zm41.122-35.74c-.435-1.098-1.038 1.896-.678 3.36.204.809.347.646.633-.738.207-.984.224-2.163.045-2.621zm-11.108-7.32c0-.253-.488-.592-1.08-.746-.885-.23-.965-.146-.458.461.693.837 1.538.992 1.538.285zm7.558-12.108c1.074 0 2.56-1.976 2.199-2.92-.246-.646-.692-.765-1.764-.5-.789.192-1.52.573-1.608.838-.099.269-.485.485-.866.485-.371 0-.78.703-.902 1.557-.189 1.249-.028 1.571.857 1.699.596.085 1.16-.139 1.253-.5.091-.363.47-.659.831-.659zm127.15-69.88c-.499-.461-.573-.376-.307.366.185.526.369 1.355.408 1.832.046.482.18.315.307-.363.13-.682-.058-1.507-.408-1.835zm-.496-1.645c0-1.003-.326-1.003-.71 0-.168.435-.082.789.203.789.28 0 .507-.354.507-.789zm-81.777-3.86c.008-.738.082-.749.5-.076.658 1.037 1.157.481 3.144-3.53.891-1.805 1.853-3.274 2.13-3.274.277 0 .504-.293.493-.654-.01-.363-.61.024-1.345.854-1.672 1.896-5.005 2.426-7.43 1.173-.896-.462-1.992-.7-2.434-.53-.784.295-4.505-3.052-4.505-4.057 0-.249-.249-.453-.557-.453-.31 0-.408-.233-.23-.523.176-.288.072-.523-.235-.523-.302 0-.56.528-.564 1.176-.008.953-.104 1.03-.515.392-.437-.677-.511-.669-.52.09-.002.48-.298 1.003-.66 1.16-.45.193-.285.558.527 1.153.646.477 1.176 1.187 1.176 1.576 0 .396.33.577.75.416.442-.173 1.122.307 1.696 1.195.522.816 1.302 1.797 1.74 2.18.434.38.538.57.228.412-.312-.15-.573.028-.573.405 0 .368.338.672.743.672.499 0 .664-.411.51-1.233-.203-1.058-.077-1.184.874-.896 1.417.43 1.326.323 1.87 2.206.32 1.123.27 1.691-.15 1.872-.429.177-.396.4.132.764.95.649 3.19-.712 3.205-1.946zm-80.22-7.929c.23-2.053.493-2.472 2.096-3.272 2.38-1.184 4.47-1.163 5.694.062.538.538 1.891 1.149 3.018 1.357 1.118.21 2.271.568 2.56.795.289.23 1.349.546 2.361.712 1.008.162 3.017.515 4.454.787 2.243.416 2.835.346 4.027-.502 1.46-1.043 4.082-1.291 7.273-.712 2.413.442 2.736.016 4.12-5.546 1.364-5.48 1.03-8.5-.976-8.784-.715-.1-1.422.157-1.683.615-.677 1.203-3.48 1.649-4.541.723-1.392-1.222-3.238-1.634-3.238-.726 0 1.507-2.752 1.87-4.09.534-.808-.808-.892-.784-1.156.354-.29 1.243-1.568 2.118-1.568 1.08 0-.314-.49-1.06-1.088-1.656-.596-.595-.95-1.438-.788-1.872.224-.581.038-.696-.746-.443-.746.238-1.042.089-1.042-.522 0-.465.234-.707.522-.53.285.175.523.076.523-.23 0-.308-.36-.558-.81-.558-.63 0-.782-.526-.69-2.35.069-1.29-.038-2.51-.238-2.706-.203-.203-.364-.085-.364.25s-.354.608-.78.608a.785.785 0 01-.785-.784c0-.427.235-.784.523-.784.29 0 .522-.392.522-.87 0-.69-.2-.626-1.03.328-.576.653-1.77 1.342-2.671 1.526l-1.635.334 1.36 1.464c.769.83 1.622 1.304 1.966 1.096.33-.208.464-.15.296.12-.169.269.645 1.522 1.806 2.783 1.81 1.958 1.992 2.353 1.261 2.76-.47.259-.715.697-.55.966.169.27.086.493-.192.493s-.637-.35-.8-.777c-.168-.442-.645-.642-1.103-.464-.572.219-.808-.019-.808-.811 0-1.345-1.491-2.064-2.141-1.035-.25.404-.465 1.38-.473 2.172 0 .792-.242 1.437-.53 1.437-.285 0-.523-.184-.523-.41 0-.224-.707-.678-1.568-1-1.062-.4-1.577-.953-1.577-1.688 0-.603-.338-1.096-.754-1.096-1.091 0-1.595-1.088-.754-1.622.526-.328.546-.458.07-.461-.361-.004-.654-.47-.654-1.027 0-.56-.243-1.165-.534-1.345-.992-.615-2.056-3.955-1.75-5.493.246-1.208.012-1.792-1.117-2.838-.777-.723-2.222-1.58-3.203-1.907-.981-.32-1.784-.837-1.784-1.141 0-.3-.53-1.065-1.176-1.704-1.95-1.89-3.022-3.39-3.022-4.217 0-1.192-1.026-.922-1.538.404-.35.911-.169 1.48.808 2.517.688.739 1.253 1.71 1.253 2.157 0 1.265 2.053 3.58 3.187 3.58.554 0 1.008.311 1.008.684 0 .381 1.069 1.435 2.363 2.353 2.392 1.688 2.729 2.376 1.849 3.77-.416.662-.662.596-1.595-.407-.608-.65-1.345-1.034-1.641-.85-.365.223-.354.515.031.899.312.315.573.973.573 1.461 0 1.238-2.653 4.144-3.786 4.144-.688 0-.93.411-.93 1.573 0 1.742-.988 2.08-2.284.785-.435-.435-.946-.785-1.138-.785-.8 0-3.395-2.221-3.395-2.91 0-.93 2.514-1.6 3.245-.869.657.654 4.19.19 4.755-.626.635-.912-.07-2.921-1.448-4.156-2.841-2.533-4.033-3.494-4.364-3.506-.196-.008-1.045-.95-1.89-2.096-.846-1.15-1.85-2.083-2.227-2.083-.378 0-.688-.238-.688-.526 0-.288.25-.523.565-.523.76 0 .027-2.198-.984-2.936-.603-.438-1.2-.385-2.414.219-3.09 1.533-3.445 1.672-4.152 1.672-.392 0-1.464-.377-2.387-.835-2.049-1.022-3.203-.656-3.203 1.019 0 1.51-.63 2.067-3.406 3.025-2.763.95-5.611 3.502-5.232 4.683.312.984-2.66 4.363-3.421 3.893-.243-.15-.792.085-1.23.523-.904.904-2.326 1.008-4.187.296-1.73-.656-3.499-.127-3.499 1.05 0 1.166.507 1.51 2.446 1.657.818.061 1.779.395 2.136.738.43.424 1.123.48 2.096.181 5.732-1.77 7.009-1.83 16.914-.707 1.58.182 4.133.304 5.66.273 1.94-.038 2.859.168 3.055.685a.797.797 0 001.03.458c.496-.192.742.08.742.835 0 .615-.347 1.248-.765 1.407-.6.238-.638.534-.181 1.427 1.544 3.002 1.565 3.102.86 3.552-.388.246-1.087.446-1.56.453-.472 0-1.003.377-1.18.822-.177.47-.089.677.215.485.285-.176 1.315.523 2.283 1.55.977 1.033 2.272 1.869 2.907 1.869 2.091 0 5.812 2.033 5.812 3.171 0 .661.534 1.25 1.437 1.6.795.304 2.507 1.099 3.803 1.765 3.266 1.69 3.858 1.513 4.173-1.293zm10.323-9.811c-.83-.123-1.38-.493-1.266-.838.235-.707.312-.711 3.657-.141 4.624.798 2.409 1.706-2.39.979zm18.508-.176c0-.758 1.373-2.088 1.757-1.704.169.168.902-.085 1.638-.565 1.363-.896 1.814-.493.694.623-.346.347-.419.627-.162.627.253 0 .013.35-.55.773-1.188.899-3.377 1.056-3.377.246zm-12.247-1.28c.392-1.004.72-1.004.72 0 0 .434-.23.787-.507.787-.282 0-.377-.35-.213-.788zm-28.12-1.835c0-.67.373-.67.787 0 .176.293.072.523-.235.523-.302 0-.552-.227-.552-.523zm-11.071-9.783a3.247 3.247 0 01.045-.952c.062-.289.104-1.496.104-2.691 0-1.68.192-2.145.865-2.091.677.053.826-.342.704-1.865-.12-1.507.08-2.048.933-2.506.947-.512 1.077-.435 1.046.615-.019.662-.224 1.672-.45 2.24-.235.577-.224 1.574.015 2.215.331.885-.176 3.92-.78 4.667-.31.38-2.437.691-2.482.368zm-11.717-3.283c-.46-.746.128-1.6 1.1-1.6.453 0 .722.366.618.873-.2 1.053-1.245 1.493-1.718.727zm2.868-1.045c0-.304.237-.554.526-.554.669 0 .669.368 0 .784-.292.178-.526.074-.526-.23zm43.573 10.297c-.43-.426-.58-.368-.58.22 0 1.045.703 1.749.96.965.113-.331-.06-.865-.38-1.185zm58.302-7.318c.768-.565.807-.888.245-2.36-.357-.934-.83-1.7-1.056-1.7-.229 0-.413-.299-.413-.664 0-.368-.472-1.545-1.048-2.618-.577-1.074-1.05-2.28-1.05-2.683 0-.396-.358-1.016-.785-1.377-.433-.357-.787-1.21-.787-1.895 0-.904-.293-1.243-1.074-1.243-.584 0-1.661-.592-2.376-1.311-.726-.723-1.526-1.312-1.776-1.312-.254 0-.895-.546-1.417-1.21-1.284-1.623-2.568-2.046-3.353-1.097-.477.569-.496 1.073-.085 1.934.307.634.7 1.744.865 2.467.162.72.474 1.553.696 1.846.822 1.111 6.067 4.966 6.753 4.966.397 0 .72.354.72.784 0 .43-.366.787-.816.787-.658 0-.776.573-.653 3.01.141 2.769.264 3.033 1.469 3.19.723.097 1.538.396 1.806.654.726.701 3.092.6 4.135-.168zm-50.499-1.438c0-.288-.371-.526-.815-.526-.449 0-.677.238-.495.526.42.677 1.31.677 1.31 0zm6.697-3.349c2.091-1.338 6.935-2.264 6.935-1.326 0 .3.245.396.546.208s.896-.053 1.312.296c.43.354 2.283.63 4.2.63 2.846 0 3.649-.2 4.694-1.184 1.572-1.472 1.107-2.58-1.695-4.051a825.262 825.262 0 01-4.867-2.576c-3.091-1.646-4.183-1.665-6.374-.112-1.7 1.207-3.06 1.272-3.06.154 0-.461-.488-.965-1.09-1.123-.747-.196-1.012-.588-.834-1.26.18-.689-.028-.977-.699-.977-.527 0-1.077-.296-1.227-.653-.35-.854-2.409 1.607-2.424 2.886-.013.507-.49 1.325-1.07 1.818-.576.5-1.045 1.545-1.045 2.353 0 .8-.216 1.456-.466 1.456-.885 0-1.072 2.334-.293 3.529 1.107 1.674 4.782 1.644 7.457-.068zm9.196-12.042c.154-.4.031-.969-.27-1.27-.699-.703-3.04.289-3.04 1.289 0 .941 2.95.922 3.31-.02zm-38.204-22.09c1.237-.941 3.002-.995 3.875-.12.45.45.765.478 1.022.093.208-.307.757-.699 1.234-.877.55-.203.957-1.133 1.13-2.579.15-1.245.692-3.494 1.208-5 .785-2.289 1.2-2.796 2.542-3.137 1.407-.358 1.226-.438-1.545-.673-1.834-.154-3.232-.053-3.36.25-.368.886-1.36 1.692-2.537 2.062-1.18.373-2.003 2.018-1.453 2.91.36.573-.61 2.683-1.51 3.28-.315.215-1.104.388-1.753.395-1.218.008-1.579.746-.653 1.318.787.488.624 1.307-.265 1.307-.43 0-.784-.235-.784-.523s-.589-.523-1.311-.523c-.723 0-1.312.235-1.312.523 0 .288.354.523.784.523.435 0 .792.36.792.787-.006 1.022 2.532 1.014 3.896-.016zm3.44-6.342c0-.608.358-1.408.795-1.772 1.238-1.037 1.358-.373.23 1.342-.905 1.374-1.02 1.425-1.025.43zm-9.47 1.414c.615-.39.634-.704.11-1.696-.38-.73-.522-.819-.353-.238.176.592-.08 1.261-.635 1.691-1.034.778-.304.989.877.243zm18.716-1.872c.454-1.181-.816-2.523-1.691-1.792-.554.45-.565.784-.072 1.576.755 1.212 1.355 1.285 1.763.216zm20.635-3.894c0-.712-.926-1.177-1.257-.638-.315.507.139 1.134.82 1.134.242 0 .437-.222.437-.496zm-15.538-2.39c.384-1.004.115-1.004-.715 0-.38.453-.427.784-.118.784.293.003.665-.35.833-.785zm-10.014-2.558c.434-.637.304-6.085-.147-6.085-.157 0-1.003.66-1.883 1.464-2.075 1.896-2.699 4.147-1.403 5.12.989.744 2.76.49 3.433-.499zm16.115.48c0-.669-1.48-1.856-2.327-1.856-.534 0-.31 1.353.336 1.992.869.872 1.991.792 1.991-.135zm-12.809-8.46c1.987-1.518 2.357-2.821.788-2.821-1.027 0-2.66 1.283-2.66 2.09 0 .243-.142.82-.315 1.27-.453 1.18.12 1.037 2.187-.539zm16.218-1.253c-.176-.285-.722-.507-1.21-.488-.728.035-.696.12.162.488 1.403.608 1.418.608 1.048 0zm2.619-2.826c0-.973-.304-1.096-2.653-1.096-2.376 0-2.634.107-2.453 1.045.163.862.64 1.062 2.653 1.104 2.162.043 2.453-.08 2.453-1.053zm102.724-9.687c.159-.25-.046-.739-.45-1.072-.604-.5-.69-.416-.456.46.306 1.188.479 1.3.906.612zm-84.045-15.396c-.515-.515-.58-.45-.293.293.197.52.49.807.65.645.166-.157 0-.584-.357-.938zm61.276-14.73c0-.104-.41-.52-.915-.915-.83-.65-.848-.63-.195.2.679.867 1.11 1.15 1.11.715zm-37.75-21.525c0-.395-6.484-2.35-6.774-2.037-.318.346-.146.426 3.63 1.76 2.095.743 3.144.834 3.144.277zM264.266 346.46c-.115-.208-.24-1.338-.277-2.514-.057-1.745.228-2.414 1.527-3.66 1.387-1.322 1.548-1.768 1.265-3.445-.377-2.201.853-5.17 2.13-5.17 1.458 0 5.513-2.226 6.947-3.805 5.777-6.404 5.82-6.443 6.585-5.62 1.022 1.08 1.461 5.04.634 5.729-.359.296-.807.384-.996.2-.192-.192-.347.285-.347 1.053 0 .772-.237 1.4-.526 1.4-.29 0-.522.23-.522.515 0 .608-3.507 6.273-6.555 10.597-1.595 2.267-2.657 3.194-4.422 3.867-2.662 1.022-5.134 1.407-5.443.853zm27.952-13.185c0-.307.233-.558.523-.558.672 0 .672.372 0 .784-.289.178-.523.08-.523-.226zM167.962 300.79c0-.307.242-.557.526-.557.677 0 .677.371 0 .784-.287.181-.526.08-.526-.227zm-87.92-4.62c-5.827-9.097-13.065-25.52-16.583-37.62-5.598-19.281-7.697-41.308-5.646-59.342.853-7.477 1.784-7.942 1.64-.81-.258 13.188-.162 17.978.384 18.634.32.381.854 2.342 1.188 4.353.33 2.013.818 4.063 1.08 4.563.258.499.48 2.037.485 3.405.008 1.377.334 3.909.73 5.644.4 1.73.873 4.32 1.057 5.766.584 4.621 4.889 15.068 7.673 18.644.803 1.046 2.552 4.17 3.875 6.95 1.33 2.78 2.618 5.055 2.872 5.055.55 0 .957.984 1.922 4.613 1.07 4.003.931 5.167-.853 7.385l-1.595 1.984 1.368 4.144c1.518 4.614 2.84 9.65 2.534 9.65-.112-.004-1.07-1.358-2.13-3.018zm211.648-33.136c1.035-.67 2.246-.67 1.838 0-.176.285-.841.522-1.472.514-.934-.003-1.003-.1-.366-.514zm-30.406-3.453c0-.923 1.13-.761 1.453.212.115.342-.164.624-.623.624a.843.843 0 01-.83-.836zm-159.138-19.113c-.189-.307-.219-.685-.066-.837.373-.377 1.395.285 1.395.899.005.672-.902.63-1.329-.062zm1.857-2.064c0-.674.373-.674.787 0 .176.285.077.526-.235.526-.302 0-.552-.238-.552-.526zm-2.753-3.387c-1.053-1.44-1.138-1.853-.395-1.853.285 0 .523.274.523.612 0 .339.395 1.05.872 1.577.477.525.654.946.392.941-.261-.012-.888-.58-1.392-1.277zm257.407-15.796c-.208-.208-.365-.989-.351-1.727l.034-1.356.503 1.261c.55 1.369.436 2.446-.186 1.822zm-232.854-2.752c-.227-.366-.265-.803-.093-.977.469-.469.98.224.726.98-.178.53-.303.53-.633-.003zm3.634-.91c.754-.747 1.488-1.238 1.637-1.096.411.41-1.518 2.462-2.31 2.462-.401-.003-.12-.571.673-1.366zm-5.513-1.258c0-.285.369-.523.819-.523.45 0 .672.238.493.523-.42.684-1.312.684-1.312 0zm3.67-12.048c0-.669.374-.669.788 0 .176.289.072.523-.23.523-.307 0-.557-.234-.557-.523zm-7.864-19.912c0-.672.373-.672.787 0 .176.285.077.526-.23.526-.312 0-.557-.237-.557-.526zm-2.902-4.218c-.477-.776-.096-1.056.741-.53.454.272.507.546.155.76-.296.186-.701.082-.896-.23zm-52.062-4.694c0-.72.12-1.015.264-.653.142.36.142.95 0 1.311-.146.361-.264.07-.264-.658zm.326-4.77c-.39-1.015.656-5.704 1.277-5.704.427 0 .157 2.307-.624 5.22-.253.96-.422 1.083-.653.485zm5.882-18.806c0-.285.235-.523.523-.523a.526.526 0 010 1.05.526.526 0 01-.523-.527zm1.569-2.902c0-.653 1.672-3.46 1.91-3.217.285.28-1.243 3.507-1.662 3.507-.133-.005-.248-.132-.248-.29zm108.543-3.48c-.008-.492.238-1.045.55-1.234.917-.573 1.053.031.237 1.107-.675.89-.771.9-.787.127zm-106.441-.888c0-.288.238-.669.526-.845.285-.181.522-.093.522.197 0 .29-.237.672-.522.85-.287.176-.526.088-.526-.202zm101.933-5.3c0-.576.312-1.053.691-1.053.53 0 .565.25.13 1.053-.703 1.31-.821 1.31-.821 0zm-67.666-3.275c.062-.36.285-.95.512-1.311.261-.42.112-.657-.408-.657-.45 0-.819-.342-.819-.768 0-.496.304-.65.865-.43.872.334.845-.33-.15-3.683-.2-.661.05-1.038.811-1.235.603-.157 1.096-.445 1.096-.642 0-.192.424-.384.953-.419 1.595-.123 5.35-1.941 5.166-2.507-.096-.288-.715-.56-1.373-.592-1.395-.072-2.219-1.141-1.835-2.376.15-.48.027-1.03-.272-1.214-.304-.189-.546.096-.546.643 0 .538-.347 1.434-.769 1.995-1.203 1.592-1.007-.211.246-2.272 1.442-2.357 1.323-3.072-.589-3.457-2.576-.514-2.71-.407-1.168.915 1.41 1.214 1.418 1.273.541 2.622-.496.757-1.253 1.376-1.675 1.376-.427 0-.776.211-.776.465s-.48.589-1.07.741c-.58.155-1.021.477-.973.72.227 1.16-.795 3.843-1.46 3.843-.416 0-.627.208-.473.454.154.25.93.35 1.73.23 1.33-.211 1.38-.162.542.52-.504.407-.918 1.042-.918 1.4 0 .818-2.51.268-3.713-.812-.45-.408-1.23-.741-1.722-.741-.75 0-.796-.181-.3-1.112.328-.611 1.046-1.227 1.592-1.373.547-.142.995-.48.995-.754 0-.265-.2-.369-.445-.216-.246.15-.715-.307-1.038-1.019-.323-.715-.795-1.29-1.056-1.29-.792 0-3.21 2.125-3.083 2.709.066.307-.216.68-.62.827-.51.189-.634.003-.41-.585.184-.472.1-.856-.176-.856s-.507-.392-.507-.872c0-.803-.07-.803-.961 0-.526.48-1.21.872-1.515.872-.307 0-1.714 1.037-3.125 2.302-2.107 1.89-2.833 2.253-4.044 2.026-1.173-.223-1.738.027-2.763 1.235l-1.291 1.515.922-1.692c.507-.922 2.945-4.39 5.41-7.696 23.273-31.21 57.216-52.692 95.23-60.268 14.824-2.96 32.63-4.187 41.453-2.868 2.545.381 4.088.777 3.422.888-.67.107-1.345.531-1.502.942-.169.438-1.008.742-2.035.742-1.918 0-2.89.826-1.422 1.21.769.204.744.25-.15.3-.588.037-1.352.341-1.695.684-.427.424-3.94.665-11.244.761-12.655.173-13.532.27-17.21 1.896-1.568.691-4.07 1.403-5.563 1.58-1.496.175-3.15.553-3.675.841-.523.285-1.654.67-2.502.854-1.146.242-1.353.446-.808.78.4.247.918.343 1.146.2.224-.138 1.238-.026 2.249.251 1.104.307 1.952.315 2.133.032.166-.265 0-.48-.36-.48-.416 0-.477-.182-.169-.48.896-.865 4.16-.82 5.425.065 1.141.8 1.157.88.242 1.35-.976.504-4.59 1.368-8.118 1.93-1.43.235-1.995.616-2.219 1.518-.285 1.13-.568 1.214-4.117 1.214-4.086 0-8.91 1.115-8.623 1.995.238.72 2.883.992 3.667.376 2.137-1.69 7.478-2.026 6.866-.426-.315.822 1.173 1.573 1.637.826.169-.277.76-.504 1.326-.504.58 0 1.019-.36 1.019-.842 0-.557.285-.738.826-.526.459.173 1.181.32 1.611.32.68 0 .68.099-.024.8-1.276 1.277-.541 2.157 1.6 1.907 1.312-.155 1.78-.038 1.53.368-.248.406.393.592 2.046.592s2.499.246 2.71.781c.165.43.63.787 1.03.787.653 0 .952.643.6 1.288-.073.131.333.577.899.988.885.645.941.941.41 2.106-.341.739-1.2 1.496-1.901 1.673l-1.282.32 1.13 1.134c.627.624 1.649 1.177 2.276 1.235.626.053 1.872.472 2.768.934 1.28.66 1.587 1.125 1.448 2.17-.096.732-.514 1.546-.93 1.804-.569.365-.59.48-.07.485.377.003.54.25.361.538-.176.285.046.523.493.523.453 0 .819.354.819.784 0 .427-.323.784-.723.784-1.096 0-5.57 2.083-5.57 2.595 0 .25-.531.35-1.182.235-.65-.12-.885-.085-.526.088.48.23.504.576.089 1.36-.312.577-.704.915-.87.75-.165-.162-.565.066-.888.512-.327.442-1.015.869-1.538.946-1.112.162-1.915 1.277-1.565 2.18.21.553-.873 1.076-2.707 1.31-.285.039-.853.343-1.245.673-.403.328-1.054.603-1.443.608-.81.008-4.91 3.817-4.91 4.566 0 .265-.503.33-1.117.139-.712-.23-.992-.158-.769.192.273.445-3.832 1.522-4.923 1.288-4.537-.957-6.355-1.022-10.884-.403-1.853.258-2.99.18-3.49-.235-.577-.477-1.169-.438-2.625.169-1.035.43-1.884 1-1.884 1.256 0 .254-.733.493-1.634.52-.896.027-3.23.888-5.185 1.91-4.201 2.21-4.987 2.329-4.46.691.209-.65.428-1.93.497-2.848.15-2.134 1.899-4.406 6.731-8.724 4.52-4.048 10.868-7.353 10.868-5.662 0 .246.595.339 1.326.2 1.234-.238 1.256-.304.392-.976-.888-.688-.88-.76.12-1.545.576-.453 1.69-.733 2.48-.618 1.053.15 1.522-.062 1.744-.766.181-.576 2.115-1.81 4.72-3.032 5.07-2.36 7.108-4.086 6.692-5.675-.226-.846.169-1.296 1.857-2.16 1.176-.6 2.318-1.054 2.541-1.003.227.05.816-.089 1.312-.307.584-.254 1.58.023 2.806.776 1.533.946 1.992 1.037 2.341.469.965-1.56-3.19-2.625-11.948-3.051-1.557-.08-1.49-1.185.181-3.169 1.011-1.203 1.153-1.607.555-1.607-.438 0-.95.245-1.142.55-.227.365-.8.25-1.691-.328-1.187-.776-1.771-.811-4.836-.262-1.914.342-4.182 1.08-5.024 1.638-.85.56-1.965 1.016-2.488 1.022-.523 0-.803.238-.627.526.542.872 2.369.584 4.091-.638 1.787-1.272 7.889-2.01 8.83-1.069.953.953-2.034 4.486-5.112 6.051-1.58.803-3.01 1.806-3.171 2.227-.161.42-.624.765-1.027.765-.4 0-.739.293-.746.653-.016.715-4.195 3.014-5.478 3.014-.435 0-1.443.754-2.233 1.675-3.341 3.878-3.656 4.086-5.958 3.998l-2.203-.085 1.653-1.472c.907-.816 1.653-1.608 1.653-1.768 0-.55-2.267.93-3.912 2.56-.912.899-2.545 1.907-3.63 2.23-1.365.407-1.8.415-1.41.031.976-.973.61-1.608-.396-.7-1.603 1.45-1.792.977-.515-1.298.665-1.192 2.195-2.971 3.395-3.96 1.203-.987 2.43-2.491 2.726-3.341.315-.889 1.122-1.766 1.914-2.065 1.769-.672 1.827-.664 1.827.28 0 1.096 1.565 1.62 2.141.715.331-.52.465-.541.473-.072.003.357.264.653.589.653.33 0 .46-.464.303-1.077-.203-.776.038-1.2.88-1.517.635-.243 1.473-.82 1.862-1.28.384-.459 1.256-.843 1.941-.843.688 0 1.243-.211 1.243-.47 0-.268-.811-.272-1.965-.007-1.077.258-2.953.327-4.153.154-1.883-.261-2.528-.072-4.624 1.373-1.342.918-2.595 1.515-2.79 1.318-.2-.197.069-.664.589-1.05.642-.47.757-.811.36-1.057-.934-.576 1.03-2.437 2.184-2.067 1.414.45 2.168-.208 1.27-1.104-.416-.415-.977-.754-1.25-.754-.277 0-.791-.354-1.149-.784-.822-.992-3.525-1.003-5.243-.024a51.212 51.212 0 01-3.094 1.568c-.984.45-2.78 1.707-3.998 2.784-1.222 1.073-3.206 2.75-4.417 3.721s-2.453 2.315-2.755 2.98c-.303.664-1.277 1.51-2.16 1.88-.885.364-2.326 1.29-3.206 2.052-.885.766-2.28 1.742-3.11 2.176-1.208.62-1.342.843-.657 1.1.47.184.857.099.857-.182 0-.272.245-.507.554-.507s1.422-.588 2.488-1.314c1.069-.723 2.018-1.073 2.115-.784.469 1.402 5.558-.254 7.56-2.473.504-.557 1.45-.968 2.096-.911.65.058 1.654-.15 2.227-.462 1.222-.66 4.531-1.89 5.123-1.902.224-.003.046.547-.395 1.22-.437.668-.677 1.344-.52 1.503.155.154-.554 1.01-1.568 1.907-1.022.89-1.856 1.864-1.856 2.157 0 .288-.88.899-1.957 1.352-2.076.865-4.332 2.71-4.332 3.548 0 .28 1.054.38 2.475.219 2.11-.238 2.342-.181 1.558.395-.904.661-5.063 4.398-8.788 7.904-1.035.969-2.187 2.707-2.571 3.856-.381 1.158-.865 1.992-1.073 1.865-.215-.131-.672.445-1.018 1.283-.931 2.253-3.918 4.832-4.702 4.051-.472-.464-.539-.407-.293.246.243.619-.112 1.008-1.277 1.41-.885.308-1.603.927-1.603 1.374 0 .45-.285.81-.63.81-.464 0-.477.155-.037.593.746.746.277 1.95-1.35 3.46-.707.653-1.096 1.191-.87 1.191.228 0-.223.589-.999 1.312-1.552 1.41-2.38 1.656-2.225.634zm-5.728-22.138c.25-1.05.197-1.395-.154-1.05-.285.285-.692 1.23-.892 2.09-.25 1.054-.192 1.4.155 1.054.288-.288.69-1.23.89-2.094zm-1.398-1.08c.069-.774-.104-1.203-.411-1.02-.608.382-.707 2.361-.107 2.361.225-.005.46-.605.518-1.341zm5.623-4.945c1.114-1.23.2-1.434-1.011-.226-.926.922-1.03 1.272-.381 1.272.247 0 .869-.472 1.392-1.046zm3.149-4.72c.41-.665-.28-.665-1.312 0-.68.434-.664.512.1.52.489.003 1.03-.229 1.212-.52zm5.101-3.256c.904-.843 1.376-1.688 1.15-2.049-.254-.408-.158-.48.288-.203.45.272.592.173.43-.315-.312-.93-1.065-.784-1.73.342-.286.488-1.17 1.55-1.966 2.357-.792.81-1.442 1.757-1.442 2.102.001.68.521.329 3.27-2.234zm46.275-11.413c-.18-.288-.56-.523-.853-.523-.285 0-.376.235-.2.523.176.288.56.526.85.526.29 0 .381-.238.203-.526zm21.67-6.278c.754.008.765.077.085.515-.685.443-.677.512.072.515.462.008 1.126-.323 1.47-.734.484-.589.407-.803-.393-1.06-1.38-.439-2.729.164-2.68 1.202.027.55.139.619.304.208.151-.365.661-.65 1.142-.646zm-15.507-4.725c.443 0 .939-.354 1.104-.784.408-1.054-.112-.987-2.184.27-1.022.623-1.576 1.295-1.36 1.648.258.41.565.33 1-.27.352-.475.998-.864 1.44-.864zm5.892-4.713c.181-.288.093-.526-.2-.526-.288 0-.669.238-.85.526-.181.285-.085.523.203.523s.671-.238.847-.523zm4.46-4.194c0-.289-.355-.526-.785-.526-.43 0-.784.237-.784.526 0 .285.355.522.784.522.43 0 .785-.237.785-.522zm-12.578 61.55c0-.443-.358-.939-.787-1.104-1.02-.392-1.02-1.235 0-1.235.43 0 .787-.357.787-.784 0-.434-.25-.787-.56-.787-.305 0-.412-.224-.243-.5.168-.275.696-.353 1.168-.172.673.258.776.12.493-.635-.411-1.064.389-1.814 1.952-1.826.723-.008.904.261.704 1.037-.21.808-.015 1.054.857 1.057.619 0 2.034.245 3.125.554 1.835.512 1.984.691 1.838 2.219-.211 2.171-1.84 2.97-6.062 2.983-2.595-.004-3.272-.173-3.272-.807zm72.17-4.264c-.722-.72-.31-1.745.7-1.745.699 0 1.05.35 1.05 1.05.001 1.007-1.027 1.414-1.75.695zm-28.59-14.708c-.327-.616-.591-1.484-.591-1.937 0-.446-.238-.819-.526-.819-.616 0-.688-2.072-.096-3.003.238-.373 1.115-.554 2.088-.43.923.12 1.68.004 1.68-.245 0-.488 3.525-.307 4.04.208.515.507-1.019 1.965-1.765 1.675-.965-.368-.888.73.134 1.853.976 1.08.603 2.006-.768 1.9-.654-.051-.888-.377-.723-1.016.423-1.608-.6-1.027-1.765 1-1.068 1.856-1.13 1.888-1.707.814zm-70.463-7.02c.354-.357.773-.515.934-.354.16.16-.123.453-.646.65-.741.29-.798.229-.288-.296zm108.657-.729c-.964-1.157-.416-1.29.666-.162.502.53.71.96.456.96-.256 0-.762-.357-1.122-.798zm-23.419-.058c-.433-.176-.36-.526.262-1.153.62-.626 1.066-.738 1.483-.36.33.296.477.746.323 1-.158.253.045.35.445.21.462-.157.67-.842.565-1.898-.162-1.6-.122-1.635 1.265-1.107 1.034.395 1.538.38 1.804-.058.265-.435.473-.443.73-.024.2.32.097.58-.227.58s-.441.239-.262.527c.181.285.016.526-.36.53-.5.008-.473.147.097.515.641.416.572.512-.354.52-.62.003-1.25-.288-1.397-.65-.168-.408-.28-.334-.307.207-.056 1.26-2.269 1.892-4.067 1.161zm-95.885-5.366c.157-.254.819-.595 1.472-.76 1.146-.286 1.153-.265.173.46-1.13.841-2.088 1.018-1.645.3zm13.407-5.305c1.03-.664 1.726-.664 1.312 0-.176.285-.72.523-1.208.52-.768-.01-.78-.079-.104-.52zm2.622-2.618c0-.285.357-.526.787-.526s.784.242.784.526-.354.525-.784.525c-.433.002-.787-.24-.787-.525zm46.804-9.226c.177-.173.627-.192 1.008-.042.411.165.293.292-.32.315-.554.026-.86-.1-.688-.273zm-3.514-.715c-.558-.197-.792-.477-.523-.623.696-.384 5.236-.558 4.867-.19-.642.643-3.376 1.155-4.344.813zm3.502-2.456c-1.118-.45-.723-1.307.526-1.13.645.092 1.118.407 1.045.69-.156.638-.694.785-1.571.44zm-7.469-.351c0-.166.534-.88 1.192-1.58.862-.922 1.945-1.368 3.87-1.572 1.478-.158 3.3-.443 4.052-.63 1.019-.259 1.368-.142 1.368.426 0 1.046-1.376 2.145-2.11 1.691-.32-.2-1.687-.192-3.032.02-1.953.303-2.24.464-1.403.802.95.385.926.424-.261.465-.723.024-1.841.184-2.491.357-.655.175-1.185.183-1.185.02zm50.19-9.607c.354-.141 1.066-.15 1.573-.019.51.134.219.25-.646.262-.866.01-1.284-.096-.927-.243z"/></g><path fill="#F7FAFC" stroke="#B5D0E7" stroke-width="2" d="M346.97 55.333h38.06c.536 0 .97.447.97 1v9.334c0 .553-.434 1-.97 1h-38.06c-.535 0-.97-.447-.97-1v-9.334c0-.553.435-1 .97-1z" stroke-linecap="round" stroke-linejoin="round"/><path fill="#F7FAFC" stroke="#B5D0E7" stroke-width="2" d="M346.97 66.667h38.06c.536 0 .97.447.97 1V77c0 .552-.434.999-.97.999h-38.06c-.535 0-.97-.447-.97-1v-9.334c0-.552.435-1 .97-1zM346.97 44h38.06c.536 0 .97.447.97 1v9.334c0 .552-.434 1-.97 1h-38.06c-.535 0-.97-.448-.97-1v-9.335c0-.552.435-.999.97-.999z" stroke-linecap="round" stroke-linejoin="round"/><path stroke="#B5D0E7" stroke-width="2" d="M349.333 49.611a1.611 1.611 0 113.223 0 1.611 1.611 0 01-3.223 0z" stroke-linecap="round"/><path fill="#B5D0E7" d="M356 49.611a1.611 1.611 0 113.222 0 1.611 1.611 0 01-3.222 0"/><path stroke="#B5D0E7" stroke-width="2" d="M349.333 72.278a1.611 1.611 0 113.223 0 1.611 1.611 0 01-3.223 0z" stroke-linecap="round"/><path fill="#B5D0E7" d="M356 72.278a1.611 1.611 0 113.222 0 1.611 1.611 0 01-3.222 0"/><path stroke="#B5D0E7" stroke-width="2" d="M359.222 60.945a1.611 1.611 0 11-3.222 0 1.611 1.611 0 013.222 0z" stroke-linecap="round"/><path fill="#B5D0E7" d="M352.555 60.945a1.611 1.611 0 11-3.222 0 1.611 1.611 0 013.222 0"/><path stroke="#B5D0E7" stroke-width="2" d="M370.667 70.667l3.333 3.58M364 70.667l3.333 3.58M377.333 70.667l3.334 3.58M370.667 59.333L374 62.914M364 59.333l3.333 3.581M377.333 59.333l3.334 3.581M370.667 48L374 51.58M364 48l3.333 3.58M377.333 48l3.334 3.58" stroke-linecap="round" stroke-linejoin="round"/><path fill="#F7FAFC" stroke="#B5D0E7" stroke-width="2" d="M76.002 363.31a7.77 7.77 0 00-1.047.078c-.721-3-3.414-5.232-6.635-5.232a6.795 6.795 0 00-3.118.758C63.529 354.311 59.166 351 53.983 351c-6.62 0-11.989 5.368-11.989 11.989 0 .093.026.18.028.274-3.456.882-6.022 3.988-6.022 7.719 0 .052.007.103.008.155 0 .058-.008.114-.008.173 0 3.626 2.417 6.683 5.724 7.664h36.553c3.307-.981 5.723-4.038 5.723-7.664 0-4.421-3.582-8-7.998-8zM343 369.093h45v10.857c0 .58-.488 1.05-1.091 1.05H344.09c-.603 0-1.091-.47-1.091-1.05v-10.857zM388 369.093h-45L350.5 349h30z" stroke-linecap="round" stroke-linejoin="round"/><path fill="#B5D0E7" d="M347.5 375.047c0-.823.672-1.489 1.5-1.489s1.5.666 1.5 1.489c0 .822-.672 1.488-1.5 1.488s-1.5-.666-1.5-1.488M352.75 375.047c0-.823.672-1.489 1.5-1.489s1.5.666 1.5 1.489c0 .822-.672 1.488-1.5 1.488s-1.5-.666-1.5-1.488"/><path stroke="#B5D0E7" stroke-width="2" d="M366.125 372.99l3.75 3.997M372.875 372.99l3.75 3.997M359.375 372.99l3.75 3.997M379.625 372.99l3.75 3.997" stroke-linecap="round" stroke-linejoin="round"/><g stroke="#B5D0E7" stroke-width="2" stroke-linecap="round" stroke-linejoin="round"><path fill="#F7FAFC" d="M77.974 70.984V50.328L59.987 40 42 50.328v20.656L59.987 81.31z"/><path d="M42 50.328l17.987 10.064 17.987-10.064M60 60.656v20.92"/></g><g fill="#ED2E26"><path d="M343.577 85.105a1.5 1.5 0 11-2.121-2.123 1.5 1.5 0 012.121 2.123M328.551 101.28a2.313 2.313 0 11-3.27-3.271 2.313 2.313 0 013.27 3.27M313.525 117.455a3.125 3.125 0 11-4.42-4.42 3.125 3.125 0 014.42 4.42M298.5 133.63a3.938 3.938 0 11-5.57-5.569 3.938 3.938 0 015.57 5.569M283.473 149.805a4.75 4.75 0 11-6.717-6.719 4.75 4.75 0 016.717 6.719"/></g><g fill="#ED2E26"><path d="M87.605 81.923a1.5 1.5 0 11-2.123 2.121 1.5 1.5 0 012.123-2.121M103.78 96.949a2.313 2.313 0 11-3.271 3.27 2.313 2.313 0 013.27-3.27M119.955 111.975a3.125 3.125 0 11-4.42 4.42 3.125 3.125 0 014.42-4.42M136.13 127a3.938 3.938 0 11-5.569 5.57 3.938 3.938 0 015.569-5.57M152.305 142.027a4.75 4.75 0 11-6.719 6.717 4.75 4.75 0 016.719-6.717"/></g><g fill="#ED2E26"><path d="M343.577 337.895a1.5 1.5 0 10-2.121 2.123 1.5 1.5 0 002.121-2.123M328.551 321.72a2.313 2.313 0 10-3.27 3.271 2.313 2.313 0 003.27-3.27M313.525 305.545a3.125 3.125 0 10-4.42 4.42 3.125 3.125 0 004.42-4.42M298.5 289.37a3.938 3.938 0 10-5.57 5.569 3.938 3.938 0 005.57-5.569M283.473 273.195a4.75 4.75 0 10-6.717 6.719 4.75 4.75 0 006.717-6.719"/></g><g fill="#ED2E26"><path d="M87.605 341.077a1.5 1.5 0 10-2.123-2.121 1.5 1.5 0 002.123 2.121M103.78 326.051a2.313 2.313 0 10-3.271-3.27 2.313 2.313 0 003.27 3.27M119.955 311.025a3.125 3.125 0 10-4.42-4.42 3.125 3.125 0 004.42 4.42M136.13 296a3.938 3.938 0 10-5.569-5.57 3.938 3.938 0 005.569 5.57M152.305 280.973a4.75 4.75 0 10-6.719-6.717 4.75 4.75 0 006.719 6.717"/></g><g transform="translate(-1)"><use fill="#000" filter="url(#b)" xlink:href="#c"/><use fill="#FFF" xlink:href="#c"/></g><path fill="#ED2E26" d="M214.497 189c12.047 0 18.105 6.387 18.105 6.387s.692 4.729.25 14.249c-.668 14.382-18.35 23.02-18.352 23.02-.002 0-17.685-8.638-18.352-23.02-.443-9.52.25-14.249.25-14.249S202.45 189 214.497 189"/><path fill="#FEFEFE" d="M205.477 207.652c0-5.085 4.057-9.223 9.043-9.223 4.99 0 9.05 4.023 9.05 8.969 0 3.948-3.425 7.197-6.064 8.866 1.025.578 3.283 1.187 5.447 1.383 3.16-2.423 5.087-6.169 5.087-10.249 0-7.388-6.065-13.398-13.52-13.398S201 200.01 201 207.398c0 4.462 1.875 8.426 5.421 11.463 3.317 2.84 8.167 4.735 13.689 5.632 1.197-.654 3.242-2.588 4.01-3.722-4.613-.587-8.977-1.701-11.903-3.224-4.473-2.324-6.74-5.654-6.74-9.895"/><g stroke="#B5D0E7" stroke-width="2" stroke-linecap="round" stroke-linejoin="round"><path d="M194.307 172.016c12.12-6.472 27.104-7.112 40.275-.401 21.405 10.906 29.917 37.101 19.01 58.507M252.944 231.46l-2.609-8.03M252.944 231.46l8.03-2.61"/></g><g stroke="#B5D0E7" stroke-width="2" stroke-linecap="round" stroke-linejoin="round"><path d="M235.22 248.353c-12.12 6.472-27.104 7.113-40.274.402-21.406-10.907-29.917-37.102-19.01-58.508M176.583 188.91l2.61 8.03M176.583 188.91l-8.03 2.609"/></g></g></svg>