<svg xmlns="http://www.w3.org/2000/svg" xmlns:xlink="http://www.w3.org/1999/xlink" width="113" height="143"><defs><path id="a" d="M0 .903h112.293V62.38H0z"/><path id="c" d="M.466.712h47.305v59.332H.466z"/></defs><g fill="none" fill-rule="evenodd"><path fill="#B5D0E6" d="M102.665 139.012H9.629c-.905 0-1.642.734-1.642 1.64a1.64 1.64 0 0 0 1.642 1.636h93.036a1.639 1.639 0 0 0 0-3.276"/><g transform="translate(0 75.288)"><mask id="b" fill="#fff"><use xlink:href="#a"/></mask><path fill="#B5D0E6" d="M6.963 1.723h98.366c3.388 0 6.148 2.758 6.155 6.078l-8.202 47.613a6.16 6.16 0 0 1-6.151 6.15H15.159c-3.39 0-6.148-2.762-6.154-6.218L.815 7.869a6.15 6.15 0 0 1 6.148-6.146m8.196 60.657H97.13c3.844 0 6.968-3.124 6.96-6.9l8.203-47.611a6.971 6.971 0 0 0-6.965-6.966H6.963C3.119.903-.007 4.025 0 7.939l8.192 47.475a6.974 6.974 0 0 0 6.967 6.966" mask="url(#b)"/></g><path fill="#B5D0E6" d="M73.922 28.273c-.006.105-.017.204-.028.305.01-.1.022-.2.028-.305m-.308 1.389a3.14 3.14 0 0 0-.002.002l.002-.002zM73.726 26.07c.017.083.035.167.05.25-.015-.083-.033-.167-.05-.25m-.1-.461c.009.034.018.067.025.102-.007-.035-.016-.069-.025-.102m-1.016-3.114l.155.397c-.05-.132-.102-.264-.155-.397m-.995-2.265l.135.287-.135-.287M36.633 35.379a42.013 42.013 0 0 1 0 0m33.96-17.177l.072.138-.072-.138m-31.89 11.151c.124 1.068.236 1.743.238 1.752 0 0-.113-.677-.238-1.752M70.355 17.76l.023.043-.023-.043m2.53 5.446c.054.147.105.294.157.441-.052-.147-.103-.294-.157-.44m-36.8 9.514c-.061-.355-.124-.71-.176-1.07.052.36.115.715.177 1.07m-.43-3.153c.002.017.005.031.006.047-.001-.016-.004-.03-.006-.047"/><g transform="translate(32 -.712)"><mask id="d" fill="#fff"><use xlink:href="#c"/></mask><path fill="#B5D0E6" d="M44.935 26.562a23.789 23.789 0 0 1-.232 2.986C43.567 44.663 34.8 56.422 24.148 56.422c-7 0-13.174-5.095-16.915-12.872l-1.726-4.318c-.093-.285-.172-.582-.26-.872l-.22-.742s-.27-1.012-.395-1.527a41.715 41.715 0 0 1-.39-1.783c-.057-.29-.106-.582-.157-.875-.06-.355-.125-.71-.176-1.07a38.077 38.077 0 0 1-.247-2.035c0-.016-.004-.031-.006-.047v-.001c.923.23 2.054.677 3.285 1.537a38.282 38.282 0 0 1-.238-1.752C6.263 26.269 5.69 17.499 9.54 15.98c0 0 16.368 7.959 27.373 0 0 0 .63 1 1.442 2.492l.023.043c.071.13 4.137 6.953 3.236 11.86l3.321-3.817v.004zm2.611-4.594C45.816 10 36.002.712 24.148.712 12.29.712 2.468 9.886.738 21.856a26.506 26.506 0 0 0-.272 3.783c0 .526.021 1.04.05 1.557.043.75.28 5.335 1.474 10.027.211.832.455 1.796.425 1.696.59 1.882.444 1.507 1.104 3.3 4.01 10.62 11.738 17.825 20.63 17.825 10.916 0 20.071-10.858 22.737-25.576 1.473-8.093.663-12.481.66-12.5z" mask="url(#d)"/></g><path fill="#B5D0E6" d="M37.248 37.648l-.222-.742.222.742zm-.222-.743c.071.25.146.496.222.742-.075-.247-.15-.492-.22-.742h-.002z"/><path fill="#ED2E26" d="M55.486 96.026c5.104 0 7.67 2.73 7.67 2.73s.293 2.022.105 6.092c-.282 6.148-7.773 9.84-7.774 9.84 0 .001-7.49-3.692-7.774-9.84-.188-4.07.106-6.092.106-6.092s2.563-2.73 7.667-2.73"/><path fill="#FEFEFE" d="M51.657 104.109c0-2.174 1.718-3.942 3.83-3.942a3.838 3.838 0 0 1 3.834 3.832c0 1.689-1.451 3.078-2.568 3.79.433.248 1.39.507 2.307.591a5.533 5.533 0 0 0 2.155-4.38 5.734 5.734 0 0 0-5.728-5.728A5.734 5.734 0 0 0 49.76 104c0 1.909.794 3.603 2.296 4.901 1.406 1.215 3.46 2.023 5.8 2.407.506-.28 1.373-1.106 1.698-1.59-1.954-.251-3.802-.727-5.043-1.379-1.894-.993-2.854-2.417-2.854-4.23"/><path fill="#B5D0E6" d="M101.338 76.19c-3.877-11.302-14.082-19.664-26.4-20.79-1.027 3.313-9.961 11.215-19.361 11.215-9.397 0-17.182-7.888-18.212-11.202l-.002-.011c-12.323 1.123-22.53 9.486-26.404 20.788h36.264c2.617.962 5.755.69 8.354.69 2.037 0 5.187.07 7.773-.69h37.988z"/></g></svg>