<svg xmlns="http://www.w3.org/2000/svg" xmlns:xlink="http://www.w3.org/1999/xlink" width="113" height="151"><defs><path id="a" d="M0 .903h112.293V62.38H0z"/></defs><g fill="none" fill-rule="evenodd"><path fill="#B5D0E6" d="M37.364 64.034c-12.324 1.124-22.53 9.486-26.405 20.79h37.898c-5.112-7.516-11.42-17.439-11.493-20.79m37.574 0c-.075 3.351-6.987 13.274-12.595 20.79h38.995c-3.877-11.303-14.083-19.665-26.4-20.79"/><path fill="#ED2E26" d="M58.26 76.597c2.176-1.126 3.86-3.465 3.86-5.843 0 0-3.237 1.43-6.534 1.43-3.297 0-6.533-1.43-6.533-1.43 0 2.378 1.684 4.717 3.86 5.843l-.575 8.225h6.496l-.575-8.225z"/><path fill="#B5D0E6" d="M102.665 147.645H9.63c-.907 0-1.644.734-1.644 1.64a1.64 1.64 0 0 0 1.644 1.636h93.034a1.639 1.639 0 0 0 0-3.276"/><g transform="translate(0 83.921)"><mask id="b" fill="#fff"><use xlink:href="#a"/></mask><path fill="#B5D0E6" d="M6.962 1.723h98.367c3.387 0 6.148 2.758 6.154 6.078l-8.202 47.613a6.16 6.16 0 0 1-6.15 6.15H15.158c-3.39 0-6.149-2.762-6.154-6.218L.815 7.869a6.15 6.15 0 0 1 6.147-6.146M15.16 62.38H97.13c3.844 0 6.968-3.124 6.961-6.9l8.202-47.611A6.971 6.971 0 0 0 105.33.903H6.962C3.118.903-.007 4.025 0 7.939l8.191 47.475c0 3.842 3.126 6.966 6.968 6.966" mask="url(#b)"/></g><path fill="#B5D0E6" d="M55.588 5.332c11.937 0 21.961 9.656 24.778 22.652a18.604 18.604 0 0 0-.703 2.787c-.035-.335-.06-.672-.108-1.002C77.825 17.8 68.002 8.633 56.148 8.633c-11.858 0-21.68 9.174-23.412 21.143a26.668 26.668 0 0 0 0 7.567c.02.223.036.446.056.668.22 2.474.637 4.854 1.197 7.133-1.21-.917-2.205-1.965-2.955-3.124.54-1.874.863-4.164.863-6.648 0-2.82-.414-5.395-1.09-7.387C33.62 14.988 43.65 5.332 55.588 5.332M76.702 37.47C75.567 52.583 66.8 64.343 56.148 64.343c-7 0-13.174-5.096-16.915-12.872 2.14.568 4.393.89 6.721.89.6 0 1.204-.038 1.81-.079a3.545 3.545 0 0 0 3.456 1.401 3.557 3.557 0 1 0-3.861-4.935c-3.52.201-6.909-.344-9.852-1.595a40.891 40.891 0 0 1-1.85-8.953c.921.232 2.053.677 3.285 1.537 0 0-2.342-13.887 2.598-15.837 0 0 16.367 7.96 27.373 0 0 0 6.531 10.335 4.698 14.397l3.324-3.819a23.68 23.68 0 0 1-.233 2.991m-49.38 9.315c.717 0 1.395-.425 1.998-1.157 1.422 1.64 3.23 3.06 5.415 4.174.252.13.525.22.784.34 4.01 10.62 11.738 17.824 20.63 17.824 11.88 0 21.681-12.859 23.293-29.559.534 4.828 2.302 8.38 4.407 8.38 2.527 0 4.576-5.11 4.576-11.41 0-5.359-1.485-9.844-3.483-11.069C80.87 10.21 69.26 0 55.588 0c-13.676 0-25.286 10.21-29.36 24.307-1.996 1.225-3.483 5.71-3.483 11.071 0 6.297 2.051 11.406 4.576 11.406"/><path fill="#ED2E26" d="M55.486 104.66c5.104 0 7.67 2.73 7.67 2.73s.294 2.021.106 6.091c-.283 6.148-7.774 9.84-7.774 9.84-.001.001-7.492-3.692-7.774-9.84-.188-4.07.105-6.092.105-6.092s2.563-2.73 7.667-2.73"/><path fill="#FEFEFE" d="M51.657 112.742c0-2.175 1.719-3.943 3.83-3.943a3.838 3.838 0 0 1 3.835 3.833c0 1.688-1.451 3.078-2.57 3.79.434.249 1.39.508 2.308.591a5.531 5.531 0 0 0 2.156-4.38 5.734 5.734 0 0 0-5.728-5.727 5.733 5.733 0 0 0-5.727 5.726c0 1.908.793 3.602 2.296 4.901 1.405 1.215 3.459 2.023 5.799 2.407.507-.28 1.374-1.105 1.699-1.59-1.954-.251-3.803-.727-5.044-1.378-1.893-.994-2.854-2.418-2.854-4.23"/></g></svg>