<svg viewBox="0 0 463 439" xmlns="http://www.w3.org/2000/svg"><path d="M423 207.5V199h16.5a7.5 7.5 0 007.5-7.5V167h8.5a7.5 7.5 0 007.5-7.5v-24a7.5 7.5 0 00-3.779-6.512l-224-128a7.503 7.503 0 00-7.442 0l-224 128A7.499 7.499 0 000 135.5v24a7.5 7.5 0 007.5 7.5H16v24.5a7.5 7.5 0 007.5 7.5H40v8.5c0 5.827 3.235 10.908 8 13.555V360H23.5a7.5 7.5 0 00-7.5 7.5V392H7.5a7.5 7.5 0 00-7.5 7.5v32a7.5 7.5 0 007.5 7.5h448a7.5 7.5 0 007.5-7.5v-32a7.5 7.5 0 00-7.5-7.5H447v-24.5a7.5 7.5 0 00-7.5-7.5H415V221.055c4.765-2.647 8-7.728 8-13.555zm-15 0a.5.5 0 01-.5.5h-32a.5.5 0 01-.5-.5V199h33v8.5zM335 360V221.055c4.765-2.647 8-7.728 8-13.555V199h17v8.5c0 5.827 3.235 10.908 8 13.555V360h-33zm-32 0V223h17v137h-17zm-48 0V221.055c4.765-2.647 8-7.728 8-13.555V199h17v8.5c0 5.827 3.235 10.908 8 13.555V360h-33zm-32 0V223h17v137h-17zm-48 0V221.055c4.765-2.647 8-7.728 8-13.555V199h17v8.5c0 5.827 3.235 10.908 8 13.555V360h-33zm-32 0V223h17v137h-17zm-48 0V221.055c4.765-2.647 8-7.728 8-13.555V199h17v8.5c0 5.827 3.235 10.908 8 13.555V360H95zm73-161v8.5a.5.5 0 01-.5.5h-32a.5.5 0 01-.5-.5V199h33zm80 0v8.5a.5.5 0 01-.5.5h-32a.5.5 0 01-.5-.5V199h33zm80 0v8.5a.5.5 0 01-.5.5h-32a.5.5 0 01-.5-.5V199h33zM15 139.852L231.5 16.138 448 139.852V152H15v-12.148zM31 167h401v17H31v-17zm57 32v8.5a.5.5 0 01-.5.5h-32a.5.5 0 01-.5-.5V199h33zm-25 24h17v137H63V223zm385 201H15v-17h433v17zm-16-32H31v-17h401v17zm-49-32V223h17v137h-17z" fill="#FFF" fill-rule="nonzero"/></svg>