<svg xmlns="http://www.w3.org/2000/svg" width="90" height="25" viewBox="0 0 90 25">
  <g fill="#FFF">
    <path d="M6.218.63C2.78591234.632206422.00420642155 3.41391234.002 6.846L.05 24.118 5.577 24.118 5.53 12.628 5.53 6.847C5.53 6.489 5.802 6.192 6.15 6.157 6.172 6.154 6.195 6.157 6.22 6.157 6.41 6.157 6.582 6.234 6.707 6.359L21.21 22.269C22.374245 23.4369995 23.9558523 24.0930337 25.605 24.092 29.0397538 24.0908961 31.8238961 21.3067538 31.825 17.872L31.825.599 26.297.599 26.297 17.899C26.2844857 18.1726244 26.1122009 18.4132919 25.8572164 18.5133409 25.6022318 18.6133899 25.3122528 18.5541023 25.117 18.362L10.614 2.452C9.45045451 1.28234579 7.86782433.626036682 6.218.629M34.586.6L34.586 17.873C34.5876557 21.3062587 37.3707411 24.0888965 40.804 24.09L64.296 24.09C68.1615894 23.9064289 71.2019526 20.7199452 71.204 16.85 71.2030945 12.9787321 68.1628375 9.79015909 64.296 9.605L64.296 9.583 49.096 9.583C48.326 9.538 47.714 8.78 47.714 7.853 47.714 6.928 48.326 6.173 49.096 6.128L73.97 6.128 73.97 24.09 79.497 24.09 79.497 6.128 89.17 6.128 89.17.6 49.096.6 49.096.623C45.22883.808123466 42.1879735 3.99640211 42.186 7.868 42.186 11.755 45.251 14.928 49.096 15.11L64.296 15.11C65.064 15.153 65.679 15.91 65.679 16.835 65.679 17.763 65.064 18.52 64.296 18.565L40.804 18.565C40.6206536 18.5650008 40.4448456 18.4920301 40.3153879 18.3621971 40.1859301 18.2323641 40.1134686 18.0563457 40.114 17.873L40.114.6 34.586.6z"/>
  </g>
</svg>
