<svg xmlns="http://www.w3.org/2000/svg" viewBox="0 0 125 66"><defs><linearGradient id="a" x1="50%" x2="50%" y1="-20.341%" y2="100%"><stop offset="0%" stop-color="#F3FAFF"/><stop offset="100%" stop-color="#B5D0E5"/></linearGradient></defs><g fill="none" fill-rule="evenodd"><path fill="url(#a)" d="M0 31.187l62.419 31.449 62.419-31.449L62.372 0z"/><path fill="#9BC0E0" d="M62.419 62.645L0 31.197v3.278l62.372 31.157 62.466-31.157v-3.278z"/><path fill="#BC2222" d="M62.419 44.663v3.076s13.156-3.192 18.974-8.713c0 0 2.214-1.999 2.778-4.076 0 0 .82-2.912.556-6.743 0 0-.712 5.967-5.047 8.82 0 0-5.307 4.413-17.261 7.636"/><path fill="#A52121" d="M62.419 44.663v3.076s-13.157-3.192-18.974-8.713c0 0-2.214-1.999-2.778-4.076 0 0-.82-2.912-.556-6.743 0 0 .712 5.967 5.047 8.82 0 0 5.307 4.413 17.26 7.636"/><path fill="#ED2E26" d="M62.419 18.146c14.89 0 21.824 3.854 21.824 3.854s1.22 6.699-.217 10.446c0 0-1.935 6.836-21.607 12.22-19.672-5.384-21.608-12.22-21.608-12.22C39.374 28.7 40.595 22 40.595 22s6.934-3.854 21.824-3.854"/><path fill="#F6F9FB" d="M65.968 34.81s2.314.644 6.507.842c0 0 3.431-1.118 5.074-3.405 0 0 2.747-3.076-.618-6.363 0 0-2.05-2.444-7.256-3.68 0 0-3.483-1.039-8.768-.841 0 0-5.153.17-9.057 1.906 0 0-5.693 2.063-5.706 6.204 0 0-.143 2.458 2.341 4.417 0 0 2.524 2.366 7.887 3.799 0 0 2.25.697 6.002 1.314 0 0 4.12.618 6.723.802 0 0 2.72-.88 4.798-2.26 0 0-5.653-.369-8.978-.908 0 0-4.812-.657-7.98-1.866 0 0-4.022-1.328-5.1-3.681 0 0-1.814-3.352 3.286-5.652 0 0 2.843-1.42 7.251-1.42 0 0 4.107-.21 7.761 1.63 0 0 3.09 1.457 3.09 3.811 0 0 .341 2.985-7.257 5.351"/></g></svg>