<svg xmlns="http://www.w3.org/2000/svg" width="481" height="187" viewBox="0 0 481 187"><path d="M474.6 177.4L459 159.5h-10.5v1.4c3.2 0 3.6.4 3.6 3.1v15c0 5.4-1.1 5.9-3.7 5.9v1.4h9.7v-1.4c-3.1 0-4.1-.7-4.1-3.8v-17.6l20.9 23.6h1.6v-22.4c0-3.3 1.8-3.7 3.5-3.7v-1.4h-9.7v1.4c2.4 0 4.3.5 4.3 3.6v12.8M428.6 158.8c-7.2 0-14.6 4.7-14.6 14.1 0 9.4 7.4 14.1 14.6 14.1 7.2 0 14.6-4.7 14.6-14.1 0-9.4-7.4-14.1-14.6-14.1m0 27c-5 0-7.3-4.5-7.3-12.8s2.3-12.8 7.3-12.8 7.3 4.5 7.3 12.8-2.3 12.8-7.3 12.8zM393.2 182.7c0 1.9-.6 2.1-3.4 2.1v1.4h13.4v-1.4c-2.8 0-3.4-.2-3.4-2.1v-20.5c0-1 .5-1.4 1.4-1.4 2.3 0 6.2 2.1 8.4 6.2l1-.4-1.6-7.9h-1c-.7.4-1.7.7-2.7.7h-17.7c-.5 0-.9-.1-1.4-.2-.5-.2-.9-.3-1.2-.5h-1l-1.6 7.9 1 .4c2.2-4.2 6.1-6.2 8.4-6.2.9 0 1.4.4 1.4 1.4v20.5m-32.2 0c0 1.9-.6 2.1-3.4 2.1v1.4h25.3l2-7.8h-1.2c-3.7 5.4-6.1 6.4-12.5 6.4-3 0-3.5-.5-3.5-1.9V163c0-1.9.6-2.1 3.4-2.1v-1.4h-13.4v1.4c2.8 0 3.4.2 3.4 2.1v19.7M349.4 182.2l-4.4-6.9c-1.1-1.7-2.1-2.3-3.5-2.4v-.1c4.3-.3 6.9-2.5 6.9-5.8 0-3.4-3-7.4-11.7-7.4h-13.4v1.4c2.8 0 3.4.2 3.4 2.1v19.7c0 1.9-.6 2.1-3.4 2.1v1.4h13.4v-1.4c-2.8 0-3.4-.2-3.4-2.1v-9.4c2.8 0 3.8.4 4.5 1.7l6.2 11.2h9.2v-1.4c-1.4 0-2.2-.2-3.8-2.7m-13.7-10.1h-2.3v-11.2h1.5c5.5 0 6.9 3.2 6.9 5.6 0 4.2-2.9 5.6-6.1 5.6z"/><g><path d="M315.9 182l-11.3-21.7c-.5-.8-.7-1.1-.9-1.1-.4 0-1.2 2.1-4.5 4.3.5.2.8.7.8 1.2 0 .3-.1.6-.4 1.3l-6.8 14.1c-1.7 3.6-2.8 4.8-5.3 4.8v1.4h9.7v-1.4c-2.6 0-3.6-.7-3.6-1.8 0-.6.3-1.7 1.6-3.7h12.2c1.7 2.5 2 3.9 2 4.3 0 .9-.8 1.1-3.6 1.1v1.4h14.5v-1.4c-2.5.1-3.1-.5-4.4-2.8m-20.1-4.2l5.3-11.2 5.5 11.2h-10.8zm-13.8-.7c-2.3 4.8-5.9 8.5-10.3 8.5-4.1 0-8.6-3.1-8.6-12.7 0-8.8 3.6-12.7 8.8-12.7 4.9 0 7.9 3.3 10 7.3h1.1v-8.4h-.9c-.4.7-1.3 1.1-2 1.1-1.6 0-4.9-1.4-8.8-1.4-9.5 0-15.5 6.3-15.5 14.6 0 7.4 6.1 13.6 14.7 13.6 4.9 0 8.4-1.8 9.6-1.8.9 0 1.6.6 2 1.8h.9v-9.9h-1"/></g><g><path d="M199.5 186.3h23.3l2.8-8.1h-1.1c-3.9 5.2-6.3 6.8-10.1 6.8h-6.6l16.9-24.8v-.7h-22.9l-2.5 7.5h.9c3.1-4.1 6.3-6.1 9.9-6.1h6.1l-16.8 24.4v1m-20.6-3.6c0 1.9-.6 2.1-3.4 2.1v1.4h13.4v-1.4c-2.8 0-3.4-.2-3.4-2.1v-20.5c0-1 .5-1.4 1.4-1.4 2.3 0 6.2 2.1 8.4 6.2l1-.4-1.6-7.9h-1.1c-.7.4-1.7.7-2.7.7h-17.7c-.5 0-.9-.1-1.4-.2-.5-.2-.9-.3-1.2-.5h-1.1l-1.6 7.9 1 .4c2.2-4.2 6.1-6.2 8.4-6.2.9 0 1.4.4 1.4 1.4v20.5m-24 0c0 1.9-.6 2.1-3.4 2.1v1.4h13.4v-1.4c-2.8 0-3.4-.2-3.4-2.1V163c0-1.9.6-2.1 3.4-2.1v-1.4h-13.4v1.4c2.8 0 3.4.2 3.4 2.1v19.7M143.7 182.2l-4.4-6.9c-1.1-1.7-2.1-2.3-3.5-2.4v-.1c4.3-.3 6.9-2.5 6.9-5.8 0-3.4-3-7.4-11.7-7.4h-13.4v1.4c2.8 0 3.4.2 3.4 2.1v19.7c0 1.9-.6 2.1-3.4 2.1v1.4H131v-1.4c-2.8 0-3.4-.2-3.4-2.1v-9.4c2.8 0 3.8.4 4.5 1.7l6.2 11.2h9.2v-1.4c-1.4 0-2.2-.2-3.8-2.7M130 172.1h-2.3v-11.2h1.5c5.5 0 6.9 3.2 6.9 5.6 0 4.2-2.9 5.6-6.1 5.6zm-54.9 10.6c0 1.9-.6 2.1-3.4 2.1v1.4h24.7l2.1-7.8h-1.2c-3 5-6 6.4-11.4 6.4-3.6 0-4.1-.5-4.1-1.6v-10.1h1.8c4.8 0 7 1.3 7.8 5.1h1.1v-11.9h-1.1c-1.1 4-2.9 5.4-7.8 5.4h-1.8v-9.1c0-1.5.5-1.7 2.4-1.7 6 0 8.9 1.7 12.7 5.9H98l-2.7-7.3H71.7v1.4c2.8 0 3.4.2 3.4 2.1v19.7m-19 0c0 1.9-.6 2.1-3.4 2.1v1.4h13.4v-1.4c-2.8 0-3.4-.2-3.4-2.1V163c0-1.9.6-2.1 3.4-2.1v-1.4H52.7v1.4c2.8 0 3.4.2 3.4 2.1v8.2H42.4V163c0-1.9.6-2.1 3.4-2.1v-1.4H32.4v1.4c2.8 0 3.4.2 3.4 2.1v19.7c0 1.9-.6 2.1-3.4 2.1v1.4h13.4v-1.4c-2.8 0-3.4-.2-3.4-2.1v-9.6H56v9.6m-45.1 0c0 1.9-.6 2.1-3.4 2.1v1.4h13.4v-1.4c-2.8 0-3.4-.2-3.4-2.1v-20.5c0-1 .5-1.4 1.4-1.4 2.3 0 6.2 2.1 8.4 6.2l1-.4-1.6-7.9h-1.1c-.7.4-1.7.7-2.7.7H5.4c-.5 0-.9-.1-1.4-.2-.5-.2-.9-.3-1.2-.5H1.6l-1.6 8 1 .4c2.2-4.2 6.1-6.2 8.4-6.2.9 0 1.4.4 1.4 1.4v20.4m223.4-7.9h9l3.7-5.4H238l-3.8 5.4"/></g><g><path d="M224.2 108c0-.6 1.5-2.1 1.9-2.1.2 0 1.7 1.5 1.7 2.1 0 .2-1.5 1.9-1.7 1.9-.4 0-1.9-1.7-1.9-1.9m29.3 0c0-.6 1.5-2.1 1.9-2.1.2 0 1.7 1.5 1.7 2.1 0 .2-1.5 1.9-1.7 1.9-.4 0-1.9-1.7-1.9-1.9zm-14.8 0c0-.6 1.5-2.1 1.9-2.1.2 0 1.7 1.5 1.7 2.1 0 .2-1.5 1.9-1.7 1.9-.3 0-1.9-1.7-1.9-1.9zm-16.4 3h7.4c.6 0 .9-.4.9-.9v-4.2c0-.6-.4-.9-.9-.9-1.5 0-5.1.2-7.4.4-.4 0-.8.2-.8.8v4.2c0 .4.4.6.8.6zm-4.9-2.6c0-.4 1.1-1.5 1.3-1.5.2 0 1.3 1.1 1.3 1.5 0 .2-1.1 1.5-1.3 1.5-.2 0-1.3-1.3-1.3-1.5zm14.5-.4c0-.4 1.1-1.5 1.3-1.5.2 0 1.3 1.1 1.3 1.5 0 .2-1.1 1.5-1.3 1.5-.1 0-1.3-1.3-1.3-1.5zm12.3 3.2c.6 0 .9-.4.9-.9v-4.5c0-.6-.4-.9-.9-.9H237c-.6 0-.9.4-.9.9v4.5c0 .6.4.9.9.9h7.2zm14.8-.2c.4 0 .8-.2.8-.8V106c0-.6-.4-.8-.8-.8-2.3-.2-5.9-.4-7.4-.4-.6 0-.9.4-.9.9v4.2c0 .6.4.9.9.9h7.4zm4.9-2.6c0 .2-1.1 1.5-1.3 1.5-.2 0-1.3-1.3-1.3-1.5 0-.4 1.1-1.5 1.3-1.5.2 0 1.3 1.1 1.3 1.5zm-14.6-.4c0 .2-1.1 1.5-1.3 1.5-.2 0-1.3-1.3-1.3-1.5 0-.4 1.1-1.5 1.3-1.5.2 0 1.3 1.1 1.3 1.5zM230 20.2h.2c.9 3.6 5.1 4 6.1 8.1l-.2.2c-2.1-3-4.9-3.4-6.1-4.9-.5-.7-.5-1.7 0-3.4zm7 48.5c0 5.9-4.9 8.5-10 8.5 6.6-7.2 1.5-17.6 7.9-24.4-.5 6 2.1 11.7 2.1 15.9zm31.4 16c7 0 10.6-3.6 10.6-9.1 0-1.9-.6-3.2-.6-3.2-1.9 1.5-4.2 1.9-5.5 1.9-2.8 0-6.6-1.7-6.6-6.2 0-5.9 6.2-8.9 6.2-15.5 0-1.9-.8-2.6-.8-2.6 2.8-3.8 3.8-7.4 3.8-10.2 0-5.3-2.8-8.7-2.8-8.7l3 1.5c-1.3-5.1-4.2-8.5-4.2-8.5s1.5.8 2.3.4c-1.5-.8-3.8-3.6-3.8-8.7s-1.1-7.9-11-9.6c-1.1-2.3-3.8-4.7-5.1-5.5-2.3 1.1-5.7 2.5-6.8 3.4 0 0-2.8.2-4 .2-1.7 0-3-.6-3.8-.6-2.3 0-3.8 2.3-3.8 2.3s-4.9 0-8.5.8c-1.9.4-3 1.9-4.4 5.1l-9.3 5.1c-1.7.9-2.8 1.5-2.8 3 0 .8.6 2.1 1.7 3.8.9 5.7 1.9 6.6 3.2 6.6.4 0 1.1-.2 1.1-.2.4.4 1.3 1.9 1.5 2.5-1.5.8-3.4-.9-5.7-.9-1.3 0-3.4.8-3.4 3 0 .8.4.9.8.9.6 0 1.1-.2 2.5-.2 1.7 0 3 1.5 5.7 1.5.9 0 1.5-.2 1.9 0-1.3.9-2.1 1.5-1.7 2.8.6 2.5 2.8 5.3 4 5.3.9 0 2.6-.6 2.6-.6l-1.1.9c-7.6 6.4-5.9 13.6-5.9 20.8 0 5.5-1.5 8.9-5.9 8.9-2.8 0-6.8-1.7-9.8-5.5-.4 1.1-.6 2.8-.6 4.4 0 6.6 6.1 11 12.1 11 5.3 0 9.1-1.5 12.9-4.5 10.8-.2 14.2-7.4 14.2-7.4 5.1 7.4 14.6 6.8 16.1 6.8 3.2 3.5 8.1 4.8 11.7 4.8zm.8-40.1c0 7.9-10.2 8.9-10.2 16.6 0 3 .9 5.1.4 7 0 0 2.1-2.3 2.3-4 0 5.9 3 12.7 10.8 12.7 1.1 0 2.8-.2 4.4-1.1 0 0-.4 5.5-6.6 5.5-7.9 0-15.1-6.6-15.1-18.9 0-2.3.4-4.9 1.7-6.8 0 0-3.8 2.1-4.2 8.7 0 0-1.5-2.3-1.5-5.1-.2-9.5 11.4-6.1 18-14.6zm-8.9-35.7c7 1.5 6.1 6.1 7.4 9.3-3-3.8-7-6.2-7-6.2.4-1.8-.4-3.1-.4-3.1zm-42.4 18.9c.4-.2 1.7-.4 1.7-.4.4.8.4 2.1.2 3.2-1.7 0-2.2-1.7-1.9-2.8zm4 5.7c-.8 1.1-1.3 2.6-3.6 2.6s-4.2-1.7-5.7-1.7c-.8 0-1.1.2-1.5.2-.4 0-.6-.2-.6-.4 0-.6.8-1.1 1.9-1.1 1.1 0 2.1.6 3.8.9 2.5.8 4-1.3 4.9-2.1 1.1-.9 2.1-1.1 3-1.1 1.9 0 3.2.9 3.2.9-.9 0-3 .9-4.5 1.9-.5-.1-.7-.3-.9-.1zm2.1 2.4c-.8.8-1.5.8-1.9.8-.4-.9 0-2.3 0-2.3.8 0 1.9.6 1.9 1.5zm-12.1 41.7c8.9 0 8.7-10.2 8.7-13.6 0-15.3 4.5-19.1 15.1-24 7.9-3.8 15.1-5.3 15.1-12.9 0-2.6-.8-5.5-3.8-5.5 0 0 1.1 1.1 1.1 3 0 .8-.2 1.5-.6 2.5 0-.8-.2-1.7-.8-2.5-.9 1.5-.8 3.8-1.3 4.7 0 0-.4.9-3 2.3 0 0-.4.4.9.4 0 0 3.2 0 4.4-1.3-.9 2.6-2.1 3.6-3.8 3.6-.9 0-2.5-.2-3.8-.2-2.3 0-7.6 1.1-9.6 4.7-1.5 2.5-5.9 4.7-7.4 4.7-1.3 0-3.2-3-3.2-4.4 0-1.5 2.6-.6 4.7-2.6 3.4-3.4 4.7-4.2 8.3-4.2 0 0 2.1 0 .2-1.9l-5.9-5.5c-.8-.8-1.3-1.1-2.1-1.1-.4 0-1.1.2-2.8 1.7-3.4.4-4.7.9-5.7 1.5-.6.4-.9.8-1.3.8-.6 0-1.3-3-1.3-3.6 0-1.5 1.7-2.5 1.7-3.4 0-.6-.6-.8-.6-.8l-2.5 1.1s-1.3-1.5.2-2.3c0 0 3.8-2.1 11-5.5.4 2.1.9 2.5 2.6 2.3l-.8.2-.4.6c.6.2 1.7 0 2.8-.4.9-.4 2.1-.4 2.3-.6.2-.2.8-.8.8-.9-.4 0-1.5.2-2.3.4 1.1-.8 1.7-1.3 1.7-1.7 0-.2-.2-.4-.2-.4-.6 0-.9.4-1.5.2-.4-.2-.8-.6-.8-1.1 0-.4.4-.8 1.7-.8h.9c0-.8-1.9-1.1-2.6-1.1-.9 0-2.3.4-3.4.9 0 0 .2-1.5 1.9-2.3.9-.4 5.9-.9 10.6-.9 6.8 0 11.9 5.9 12.9 5.9.4 0 .8-.4.2-.8-2.5-1.7-4-3-4-4.7 0-.6 0-4.2 7.8-5.5 3.4 2.8 4.5 4.9 4.5 6.8 0 3.2-3.6 3.6-4 4.9 8.9.6 15.5 12.3 15.5 18.2 0 10.6-10 14.9-16.3 16.3 9.1-6.8 12.5-13.6 12.5-18.3 0-7.8-7-12.3-8.7-13.2 4 4.4 4.9 8.9 4.9 12.3 0 6.6-4.2 9.8-4.2 9.8.8-1.5.9-2.8.9-4 0-.9-.2-1.7-.2-1.7-3.6 8.5-11.9 14.4-12.5 21.6-.6-1.7-.8-3.4-.8-4.9 0-6.1 3.8-9.8 3.8-9.8-7.4 5.1-9.1 11-9.1 15.5s1.9 7.9 1.9 7.9c-.4-1.7-.2-4.5.2-6.8.8 6.4 4 14.4 12.9 19.5-15.5 0-21.9-18.5-15.5-30.3-10.8 2.8-12.1 14-12.3 20.4-.8-3.4-.9-6.1-.9-8.1 0-11.5 9.6-14.6 16.8-17.8 10.6-4.7 14.9-8.5 14.9-15.3 0-7.2-8.5-11.7-14.8-10.4l2.3 2.3c.4.4.9.8.9.8 6.6 3.4 7.6 7.2 7.6 9.5 0 6.1-6.8 9.3-11.7 11.4-15.9 6.8-18.7 9.8-18.7 19.7 0 7.2 2.1 18.5-5.5 19.5.6.9 3.2 1.3 3.2 1.3-2.3 1.9-4.7 2.5-7.6 2.5-2.6 0-7.9-.8-9.5-6.4 2.1.6 4.2 1.8 7.4 1.8zm41.4-65.3l.6.4s3.4-1.5 3.4-4c0 0 0-1.3-.8-2.1-.4 0-.4.8-.4 1.1 0 .8-.6 1.3-1.5 1.3-.8 0-2.1-.8-2.1-2.1s.6-1.9.6-2.3c0 0 0-.2-.2-.2-3 1.1-3.2 2.5-3.2 3.4 0 1.5.6 2.8 3.6 4.5zM216.8 20c.2.4.8.8 1.1.8.8-.8 1.5-1.7 1.5-2.6-.9.1-2.6.5-2.6 1.8zm61.5 63l-.6-.2c-.8 1.1-3.4 3.6-7.4 3.6l-.2.4c1.7 1.7 1.3 5.5-.8 5.5-1.3 0-1.9-1.1-2.1-2.1l-.4-.2c-.6.4-2.1 1.5-2.5 1.9 0 1.1.2 2.6.4 3.6h.4c.4-.8 1.1-.9 1.5-.9.9 0 1.7.8 1.7 1.9 0 1.9-1.3 3.6-4 3.6-2.8 0-5.3-1.3-5.3-4.4 0-1.5.8-3.2 2.8-4.2v-.4c-1.5-1.1-2.8-3-3.2-4h-.4c-.6.8-2.5 2.5-4.2 2.8v.4c1.5 1.5 1.7 3 1.7 4 0 2.5-2.1 4-6.4 4-3.2 0-6.4-.9-6.4-4.2 0-1.7 1.1-2.6 2.5-2.6.9 0 2.1.4 2.8 1.5h.4c.8-.9 1.1-1.5 2.5-2.6V90c-.6-.4-1.5-1.5-2.5-2.8h-.4c-1.3 1.5-2.3 1.7-3.4 1.7-.8 0-1.9-.4-1.9-1.7 0-1.7 2.1-2.5 3.8-3v-.4c-2.8-1.1-5.5-4.2-6.1-6.1h-.4c-.6 1.9-3.2 4.9-6.1 6.1v.4c1.7.6 3.8 1.3 3.8 3 0 1.3-1.1 1.7-1.9 1.7-1.1 0-2.1-.2-3.4-1.7h-.4c-.9 1.3-1.9 2.5-2.5 2.8v.4c1.3 1.1 1.7 1.7 2.5 2.6h.4c.8-1.1 1.9-1.5 2.8-1.5 1.3 0 2.5.9 2.5 2.6 0 3.2-3.2 4.2-6.4 4.2-4.4 0-6.4-1.5-6.4-4 0-.9.2-2.5 1.7-4V90c-1.7-.4-3.6-2.1-4.2-2.8h-.4c-.4.9-1.7 2.8-3.2 4v.4c2.1.9 2.8 2.6 2.8 4.2 0 3-2.5 4.4-5.3 4.4-2.6 0-4-1.7-4-3.6 0-1.1.8-1.9 1.7-1.9.4 0 1.1.2 1.5.9h.4c.2-.9.4-2.5.4-3.6-.4-.4-1.9-1.5-2.5-1.9l-.4.2c-.2.9-.8 2.1-2.1 2.1-2.1 0-2.5-3.8-.8-5.5l-.2-.4c-4 0-6.6-2.5-7.4-3.6l-.1.1 7.9 18.2s-1.7.8-1.3 2.1c.8 2.6 3 6.1 3 10.2 0 1.7-.2 1.9-.2 2.6 0 .8.6 1.1 1.3 1.1h53.7c.8 0 1.3-.4 1.3-1.1 0-.8-.2-.9-.2-2.6 0-4.2 2.3-7.6 3-10.2.4-1.3-1.3-2.1-1.3-2.1l8.1-18.2zm-37.7 29.9c-14.8 0-24.6-.2-24.6-.2l-2.1-7.9s13.4-1.9 26.7-1.9c13.2 0 26.7 1.9 26.7 1.9l-2.1 7.9s-9.8.2-24.6.2z"/></g></svg>