<svg xmlns="http://www.w3.org/2000/svg" width="120" height="57" viewBox="0 0 120 57"><g fill="none" fill-rule="evenodd"><g fill-rule="nonzero"><path fill="#FFF" d="M23.535 6.294c-9.7.304-17.31 8.389-16.998 18.045 0 5.832 2.433 11.004 7.04 14.973 4.31 3.705 10.6 6.189 17.774 7.351 1.551-.858 4.21-3.381 5.204-4.86-5.986-.767-11.655-2.22-15.453-4.208-5.808-3.032-8.751-7.378-8.751-12.92 0-6.637 5.27-12.04 11.74-12.04 6.484.007 11.741 5.244 11.755 11.704 0 5.158-4.449 9.392-7.876 11.572 1.332.76 4.263 1.552 7.073 1.803a16.877 16.877 0 006.603-13.382c.014-.37.014-.74 0-1.11-.311-9.649-8.419-17.231-18.111-16.928z"/><path fill="#ED2E26" d="M47.593 8.342S39.731 0 24.085 0C8.439 0 .583 8.342.583 8.342s-.908 6.169-.318 18.6c.869 18.777 23.827 30.051 23.833 30.051 0 0 22.965-11.274 23.833-30.052.564-12.43-.338-18.6-.338-18.6zm-5.947 15.997c0 5.238-2.44 10.178-6.603 13.381-2.81-.257-5.74-1.05-7.073-1.803 3.427-2.18 7.876-6.413 7.876-11.571-.007-6.46-5.264-11.698-11.754-11.704-6.477 0-11.741 5.402-11.741 12.04 0 5.535 2.943 9.888 8.75 12.92 3.8 1.988 9.468 3.44 15.454 4.207-.994 1.48-3.653 4.002-5.204 4.861-7.173-1.17-13.465-3.646-17.774-7.351-4.607-3.963-7.04-9.141-7.04-14.973-.312-9.663 7.299-17.748 16.998-18.052 9.692-.303 17.807 7.279 18.111 16.935.007.37.007.74 0 1.11zm23.542 19.504c-4.674 0-8.546-1.512-12.198-4.755l-.233-.212 2.473-2.913.252.225c3.189 2.873 6.04 4.049 9.838 4.049 3.66 0 6.212-1.909 6.212-4.643v-.086c0-2.391-1.173-3.937-7.365-5.231-6.066-1.315-10.103-3.303-10.103-8.745v-.086c0-4.808 4.19-8.296 9.957-8.296 4.157 0 7.3 1.097 10.508 3.66l.245.198-2.32 3.064-.259-.211c-2.605-2.114-5.224-3.098-8.254-3.098-3.487 0-5.92 1.803-5.92 4.392v.086c0 2.464 1.194 3.97 7.704 5.357 6.875 1.492 9.805 4.055 9.805 8.58v.085c-.007 5.053-4.256 8.58-10.342 8.58zm29.614.086c-8.566 0-15.03-6.598-15.03-15.35v-.086c0-8.652 6.657-15.429 15.156-15.429 5.827 0 9.049 2.273 11.654 4.723l.232.218-2.704 2.893-.24-.225c-2.903-2.747-5.594-3.916-8.989-3.916-6.284 0-11.025 5.013-11.025 11.65v.086c0 6.579 4.847 11.737 11.025 11.737 4.07 0 6.643-1.651 9.242-4.128l.225-.218 2.632 2.576-.225.231c-2.553 2.596-5.98 5.238-11.953 5.238z"/></g><g fill="#ED2E26"><path d="M110.659 41.85v-6.853l-1.452.451-.209-.704 1.881-.649h.638v7.755zM115.957 41.19c1.485 0 2.288-1.551 2.288-3.212v-.154c-.484.748-1.188 1.221-2.178 1.221-1.584 0-2.684-1.001-2.684-2.387v-.022c0-1.463 1.133-2.618 2.772-2.618.88 0 1.529.297 2.024.792.583.583.957 1.441.957 2.981v.022c0 2.442-1.298 4.169-3.201 4.169-1.001 0-1.727-.407-2.376-.946l.506-.671c.627.55 1.21.825 1.892.825zm.209-2.893c1.177 0 1.914-.858 1.914-1.738v-.022c0-.979-.803-1.749-1.958-1.749-1.155 0-1.848.847-1.848 1.804v.022c0 .979.77 1.683 1.892 1.683z"/></g></g></svg>