<svg width="170" height="41" viewBox="0 0 170 41" xmlns="http://www.w3.org/2000/svg"><defs><linearGradient x1="50%" y1="0%" x2="50%" y2="100%" id="a"><stop stop-color="#043471" offset="0%"/><stop stop-color="#043471" stop-opacity="0" offset="100%"/></linearGradient></defs><g fill="none" fill-rule="evenodd"><path d="M44.586 10.266L37.47.064l-2.01 13.214L27.687.072l-6.569 21.345-3.013-3.41h-6.583L6.628.072.06 23.76 13.392 38.31h80.871L76.987 18.177h-7.56l-5.172-3.757 5.171-5.177-5.17-3.621-6.502 7.268L55.458.064z" transform="translate(75 2)" fill="url(#a)"/><path d="M55.367 14.015c2.149 0 3.438-1.058 3.438-2.744v-.066c0-1.852-1.355-2.777-3.471-2.777h-4.232v5.587h4.265zM44.688 2.906h10.943c3.538 0 5.985.926 7.539 2.48 1.355 1.355 2.05 3.108 2.05 5.389v.066c0 3.57-1.885 5.918-4.762 7.141l5.522 8.067h-7.373l-4.662-7.009h-2.843v7.01h-6.414V2.905z" fill="#FFF"/><path d="M44.688 2.906h10.943c3.538 0 5.985.926 7.539 2.48.475.476.87 1 1.181 1.58 0 0-2.51-6.829-9.017-6.829h-7.672l-2.974 2.77z" fill="#43A5ED"/><path fill="#176EA3" d="M51.102 14.041l1.558-2.45V8.429h-1.558z"/><path d="M51.102 14.015h4.265c2.149 0 3.438-1.058 3.438-2.744v-.066c0-.944-.352-1.647-.977-2.11 1.263 2.549-1.988 2.497-1.988 2.497h-3.18l-1.558 2.423z" fill="#1E7BC1"/><path fill="#176EA3" d="M51.102 26.05l1.558-2.45v-4.56h-1.558z"/><path d="M27.455 8.56v11.803h2.612c3.868 0 6.414-2.116 6.414-5.852v-.066c0-3.703-2.546-5.885-6.414-5.885h-2.612zm-6.413-5.654h8.96c8.232 0 13.025 4.761 13.025 11.44v.066c0 6.678-4.86 11.637-13.158 11.637h-8.827V2.906z" fill="#FFF"/><path d="M42.836 12.107S42.101.137 30.93.137h-6.807l-3.08 2.77h9.238c7.117.094 11.603 3.792 12.556 9.2" fill="#43A5ED"/><path fill="#176EA3" d="M27.455 20.363l1.559-2.45V8.56h-1.559z"/><path d="M34.628 10.03c1.032.788 1.08 3.07 1.08 3.07 0 4.841-4.243 4.816-4.243 4.816h-2.451l-1.559 2.449h2.612c3.869 0 6.414-2.116 6.414-5.852v-.066c0-1.904-.673-3.406-1.853-4.416z" fill="#1E7BC1"/><path fill="#FFF" d="M0 2.856h18.654V8.29H6.362v3.545h12.292v5.07H6.362v3.677H18.82v5.467H0z"/><path fill="#43A5ED" d="M18.654 2.856L16.127.127H2.573L0 2.856z"/><path fill="#176EA3" d="M6.364 11.835l.987-1.546v-2h-.987z"/><path fill="#1E7BC1" d="M7.351 10.289h10.316l.987 1.546H6.364z"/><path fill="#176EA3" d="M6.364 20.566l.987-1.547v-2.115h-.987z"/><path fill="#1E7BC1" d="M7.351 19.02h10.482l.987 1.546H6.364z"/><g><path fill="#2E8BE0" d="M74.06 2.072h6.568v17.935h11.478v5.753H74.06z"/><path d="M80.178 2.522h-5.669V25.31h17.147v-4.853H80.178V2.522z" stroke="#B5D0E5" stroke-width=".9"/><path fill="#2E8BE0" d="M95.12 25.76h6.568V2.072h-6.569z"/><path d="M101.238 2.522h-5.669V25.31h5.669V2.522z" stroke="#B5D0E5" stroke-width=".9"/><path fill="#2E8BE0" d="M131.754 2.072h19.063v5.55h-12.562v3.62h12.562v5.178h-12.562v3.757h12.731v5.583h-19.232z"/><path stroke="#B5D0E5" stroke-width=".9" stroke-linecap="round" stroke-linejoin="round" d="M131.754 2.072h19.063v5.55h-12.562v3.62h12.562v5.178h-12.562v3.757h12.731v5.583h-19.232z"/><path fill="#2E8BE0" d="M104.154 2.064h7.315l5.384 14.996 5.423-14.996h7.182l-9.62 23.865h-6.104z"/><path d="M111.153 2.514h-6.334l9.22 22.965h5.495l9.257-22.965h-6.2l-5.74 15.873-5.698-15.873z" stroke="#B5D0E5" stroke-width=".9"/></g></g></svg>