<svg xmlns="http://www.w3.org/2000/svg" width="97" height="82" viewBox="0 0 97 82"><g fill="none" fill-rule="evenodd"><path fill="#B5D0E6" d="M34.967 79.6h10.2V19.89h-10.2V79.6zM2.121 30.5h30.727V19.89H2.121V30.5zm18.92-20.208c-.522-1.796-.112-3.68 1.125-5.162 1.57-1.884 4.078-3.01 6.708-3.01 2.477 0 4.67 1.012 5.722 2.64 1.94 2.999 3.534 9.909 4.152 12.87-2.514-.28-7.939-1.005-12.411-2.452-2.723-.879-4.653-2.66-5.296-4.886zM45.056 8.51c1.195-1.78 3.31-2.931 5.387-2.931.895 0 2.186.221 3.253 1.276 1.18 1.162 1.287 2.449 1.17 3.326-.216 1.623-1.338 3.15-3 4.087-2.9 1.637-7.817 2.739-10.348 3.225.648-2.337 1.99-6.679 3.538-8.983zm2.23 21.992h30.73V19.89h-30.73V30.5zm.001 2.118h26.625v6.214h2.12V32.62h4.105V17.77h-31.12c1.408-.474 2.77-1.024 3.89-1.655 2.238-1.26 3.754-3.374 4.059-5.654.255-1.914-.378-3.732-1.782-5.115-1.252-1.235-2.892-1.888-4.743-1.888-2.765 0-5.57 1.519-7.146 3.87-1.243 1.85-2.322 4.735-3.086 7.124-.833-3.498-2.188-8.297-3.834-10.842C34.914 1.348 32.11 0 28.873 0c-3.3 0-6.338 1.376-8.338 3.773-1.694 2.033-2.252 4.625-1.533 7.109.843 2.913 3.278 5.214 6.68 6.314.639.207 1.295.394 1.954.573H0v14.85h32.848V79.6H6.225V33.376h-2.12V81.72H52.383V79.6h-5.097V32.62z"/><path fill="#B5D0E6" d="M82.188 79.6h10.2V63.534h-10.2v16.064zm-24.635 0h12.25V63.534h-12.25v16.064zm-2.052-18.186h14.304v-8.79H55.5v8.79zm7.455-16.004c-.049-.85.344-1.734 1.1-2.485.858-.852 1.953-1.32 3.088-1.32 1.03 0 2.063.389 2.998 1.127 2.473 1.953 3.347 5.833 3.638 7.755-2.073-.076-6.682-.485-9.266-2.526-.969-.764-1.506-1.647-1.558-2.551zm17.4-2.678c.93-.737 1.969-1.127 2.997-1.127 1.133 0 2.231.468 3.086 1.321.758.752 1.149 1.634 1.102 2.484-.05.904-.591 1.787-1.56 2.551-2.579 2.04-7.486 2.448-9.719 2.526.458-1.966 1.621-5.805 4.093-7.755zm-8.432 9.892h2.337l.384.003.123-.003h.422l.13.003.412-.003h4.335V79.6h-8.145V52.624h.002zm10.264 8.79H94.44v-8.79H82.188v8.79zm14.374-10.91H85.936c.487-.26.947-.552 1.36-.88 1.841-1.453 2.302-3.028 2.362-4.096.083-1.463-.53-2.92-1.725-4.106-2.375-2.361-6.113-2.551-8.894-.354-1.904 1.505-3.131 3.805-3.911 5.86-.653-2.057-1.766-4.352-3.673-5.86-2.783-2.197-6.52-2.004-8.894.353-1.193 1.186-1.805 2.644-1.722 4.107.06 1.068.518 2.643 2.36 4.097.415.328.867.618 1.346.879H53.38v13.03h2.056V81.72h39.072V63.535h2.054V50.504z"/><path fill="#EB3027" d="M34.889 79.614h10.273V19.906H34.889zM71.914 79.715h8.137V52.557h-8.137z"/></g></svg>