<svg xmlns="http://www.w3.org/2000/svg" xmlns:xlink="http://www.w3.org/1999/xlink" width="62" height="87" viewBox="0 0 62 87"><defs><path id="a" d="M0 .932h61.458v85.671H0z"/></defs><g fill="none" fill-rule="evenodd"><g transform="translate(0 -.534)"><mask id="b" fill="#fff"><use xlink:href="#a"/></mask><path fill="#B5D0E6" d="M2.373 15.23c.12-1.065.473-1.891 1.065-2.836.353-.592 1.061-.947 1.771-.947h49.867c1.772 0 3.31 1.183 3.782 2.718.118.355.118.593.235.946H2.373v.119zM50.47 83.294c0 .591-.474 1.065-1.183 1.065h-37.34c-.59 0-1.064-.474-1.182-1.065l-3.428-65.7h46.56l-3.427 65.7zM9.936 3.295h40.296c.71.354 3.19 1.773 3.545 5.79H7.455c.355-3.781 1.89-5.317 2.48-5.79zM56.14 9.204c-.473-6.382-5.199-8.155-5.318-8.155-.117 0-.236-.117-.353-.117H9.581c-.236 0-.355 0-.472.117-.119.119-3.545 1.773-3.9 8.036-1.535 0-2.836.708-3.662 1.89C.837 12.04-.107 13.93.01 16.412c0 .59.59 1.063 1.182 1.063h3.781l3.426 65.82c.12 1.89 1.656 3.308 3.547 3.308h37.459c1.89 0 3.426-1.417 3.545-3.309l3.426-65.82h3.9c.59 0 1.182-.472 1.182-1.062 0-.946 0-1.892-.355-2.837-.71-2.245-2.6-3.899-4.963-4.371z" mask="url(#b)"/></g><path fill="#B5D0E6" d="M20.53 74.397l1.25 1.592c.632.794 2.036 1.164 3.05.764l.009.013c-1.147.614-2.684.303-3.649-.48-.682-.53-1.07-1.282-1.643-1.892v1.261c0 .11.069.186.069.186l-.502-.001s.067-.076.067-.185v-2.98c.475.57.885 1.118 1.35 1.722m23.533 1.446a.337.337 0 100-.675.337.337 0 000 .675m-.376-.338a.376.376 0 11.752 0 .376.376 0 01-.752 0"/><path fill="#B5D0E6" d="M43.975 75.472h.122c.046 0 .073-.024.073-.067 0-.055-.037-.066-.074-.066h-.12v.133zm-.075-.193h.204c.092 0 .14.043.14.114 0 .083-.058.104-.07.108.025.004.063.024.063.09 0 .05.007.094.022.112h-.08c-.01-.02-.01-.04-.01-.062 0-.079-.016-.112-.085-.112h-.109v.174H43.9v-.424zm-1.735.194c.084 0 .696.028.69-1.192-.005-1.127-.598-1.095-.694-1.095-.096 0-.691-.032-.696 1.095-.007 1.22.607 1.192.69 1.192h.01zm-.005.416c-.194.002-1.517-.042-1.514-1.549.002-1.501 1.311-1.521 1.514-1.52.204-.001 1.511.019 1.514 1.52.003 1.507-1.32 1.55-1.514 1.55zm-1.894-2.9v.374c-.155-.065-.241-.113-.405-.157-.128-.028-.679-.16-.943.117-.111.113-.145.32.077.478.312.202.759.294 1.125.593.239.19.315.414.255.753-.062.347-.441.627-.78.699a2.61 2.61 0 01-1.492-.135l.001-.367c.405.17 1.035.386 1.428.043.107-.099.173-.24.116-.384-.09-.267-.815-.424-1.259-.757-.439-.268-.4-.73-.246-.987.414-.62 1.466-.449 2.123-.27m-2.538 0l-.001.374c-.154-.065-.242-.113-.406-.157-.128-.028-.677-.16-.941.117-.112.113-.145.32.075.478.313.202.759.294 1.126.593.24.19.316.414.255.753-.062.347-.442.627-.78.699a2.614 2.614 0 01-1.493-.135l.003-.367c.405.17 1.035.386 1.427.043.106-.099.172-.24.116-.384-.09-.267-.814-.424-1.26-.757-.438-.268-.4-.73-.246-.987.415-.62 1.467-.449 2.125-.27m-10.401 0v.374c-.155-.065-.242-.113-.405-.157-.129-.028-.68-.16-.943.117-.112.113-.145.32.077.478.311.202.758.294 1.124.593.239.19.317.414.256.753-.063.347-.442.627-.781.699a2.61 2.61 0 01-1.492-.135l.002-.367c.405.17 1.035.386 1.427.043.108-.099.173-.24.116-.384-.09-.267-.814-.424-1.259-.757-.438-.268-.399-.73-.245-.987.413-.62 1.465-.449 2.123-.27m-6.493 1.319c.465.603.874 1.152 1.348 1.72V73.05c.001-.108.068-.184.068-.184h-.501s.068.076.068.184v1.262c-.427-.453-.75-.985-1.17-1.444a7.944 7.944 0 00-.523-.545 2.834 2.834 0 00-3.105-.545l.01.018c.39-.133.95-.13 1.504.095.353.13.65.313.943.675.075.099 1.358 1.743 1.358 1.743m2.747 1.23c.4.04.891-.023 1.282-.03l.002.332h-2.122s.067-.07.067-.186v-2.603c0-.116-.067-.186-.067-.186h2.122l-.002.332c-.39-.01-.881-.07-1.282-.03l-.001.983c.33.021.717.022 1.023-.018v.355a7.98 7.98 0 00-1.022-.017v1.068zm10.413 0c.401.04.892-.023 1.283-.03v.332h-2.12s.066-.07.066-.186v-2.603c0-.116-.067-.186-.067-.186h2.12v.332c-.39-.01-.88-.07-1.282-.03l-.001.983c.33.021.718.022 1.024-.018v.355a7.998 7.998 0 00-1.024-.017l.001.113v.955zM31.11 73.24v1.003c.256.001.565.033.742-.172.152-.2.127-.46.025-.642-.177-.3-.767-.189-.767-.189zm.005 1.37v1.045c0 .115.067.185.067.185h-.908s.067-.069.067-.185V73.05c0-.116-.067-.186-.067-.186h1.546c.419.017.863.249.879.755.002.412-.18.65-.454.78-.055.026-.05.019-.066.033.193.453.37.785.605 1.223a.493.493 0 00.144.185h-.938s.056-.072-.001-.185c0 0-.332-.783-.489-1.045h-.385zm-2.547-1.367l-.002 1.116c.259.018.565.046.743-.158.151-.201.126-.588.026-.771-.18-.3-.767-.187-.767-.187zm.004 2.412c0 .115.067.184.067.184h-.908s.067-.068.067-.184V73.05c0-.116-.067-.186-.067-.186h1.499c.376.013.665.186.79.55.093.32.08.732-.146.99-.303.406-1.305.346-1.305.346l.003.905z"/><path fill="#EB3027" d="M29.073 45.351l5.195 6.621c2.634 3.306 8.477 4.843 12.7 3.18l.036.057c-4.779 2.554-11.168 1.258-15.186-2-2.833-2.205-4.452-5.331-6.84-7.869v5.248c0 .454.287.772.287.772l-2.087-.003s.278-.315.282-.77V38.185c1.974 2.37 3.677 4.658 5.613 7.167"/><path fill="#EB3027" d="M30.333 44.979c1.936 2.51 3.638 4.796 5.611 7.167V39.742c.004-.454.282-.768.282-.768l-2.08-.003s.283.317.283.771v5.248c-1.777-1.886-3.128-4.097-4.867-6.013-.218-.269-1.72-1.882-2.179-2.265-3.126-3.057-8.192-4.31-12.929-2.27l.046.082c1.62-.554 3.959-.542 6.254.388 1.479.546 2.707 1.306 3.93 2.813.312.416 5.65 7.254 5.65 7.254"/></g></svg>