<svg xmlns="http://www.w3.org/2000/svg" xmlns:xlink="http://www.w3.org/1999/xlink" width="376" height="63" viewBox="0 0 376 63"><defs><path id="a" d="M.8.852h5.226v5.294H.8z"/><path id="c" d="M0 1.32h375.845v1.56H0z"/><path id="e" d="M0 63.148h375.97V1.562H0z"/></defs><g fill="none" fill-rule="evenodd" transform="translate(0 -1)"><path fill="#231F20" d="M76.06 30.095L64.918 2.24l-.142-.353H60.14l-.14.353L48.85 30.095l-.307.77H54.668l.14-.367 7.65-20.82 7.646 20.82.136.368h6.132l-.31-.77zM39.506 13.86c-1.174-.127-2.326-.27-3.422-.43-2.424-.33-3.865-1.453-3.865-3 0-2.53 2.355-3.428 4.558-3.428 2.413 0 4.936.715 7.293 2.076l.433.25.3-.4 2.58-3.485.37-.495-.53-.323c-3.282-1.973-6.724-2.97-10.23-2.97-6.41 0-10.548 3.41-10.548 8.696 0 4.504 3.303 7.716 8.628 8.385l1.776.226c.752.1 1.465.193 2.272.283 2.29.26 3.5 1.366 3.5 3.196 0 2.01-2.157 3.31-5.503 3.31-2.968 0-6.017-.973-8.363-2.667l-.395-.29-.34.35-3.055 3.17-.432.446.485.387c3.28 2.62 7.34 3.955 12.056 3.955 6.985 0 11.32-3.317 11.32-8.663 0-3.507-2.324-7.862-8.89-8.58zm-22.527 4.384c3.52-1.372 5.68-4.383 5.68-8.007 0-2.456-1.195-4.786-3.28-6.394C17.69 2.51 15.6 1.887 12.8 1.887H.27V30.866H6.043V6.77h6.71c1.414 0 2.276.21 3.08.76.846.556 1.305 1.516 1.305 2.707 0 1.776-1.216 3.857-4.643 3.857H10.18l-.82-.005-.95-.006.45.835 8.39 15.65.157.296H24.227l-.482-.844-6.767-11.778z"/><g transform="translate(68.683 .71)"><mask id="b" fill="#fff"><use xlink:href="#a"/></mask><path fill="#231F20" d="M2.922 3.4h.34c.388 0 .72-.14.72-.507 0-.256-.187-.516-.72-.516-.152 0-.255.014-.34.025V3.4zm0 1.632h-.468v-2.95c.245-.035.48-.072.834-.072.446 0 .74.1.916.225.176.13.27.33.27.613 0 .384-.26.62-.575.715v.026c.257.046.432.28.493.714.07.46.14.636.187.728h-.493c-.07-.092-.142-.364-.202-.756-.07-.37-.257-.513-.633-.513h-.33v1.27zm.492-3.773c-1.158 0-2.114 1-2.114 2.236 0 1.253.956 2.238 2.128 2.238 1.175.013 2.118-.985 2.118-2.232 0-1.242-.943-2.243-2.118-2.243h-.014zM3.428.85c1.446 0 2.598 1.17 2.598 2.644 0 1.49-1.152 2.65-2.612 2.65C1.972 6.146.8 4.986.8 3.496.8 2.022 1.97.852 3.413.852h.014z" mask="url(#b)"/></g><g transform="translate(0 38.173)"><mask id="d" fill="#fff"><use xlink:href="#c"/></mask><path fill="#231F20" mask="url(#d)" d="M.81 1.32L0 2.13h375.845v-.81"/></g><path fill="#231F20" d="M91.51 2.038c6.72 0 10.117 3.562 10.117 3.562l-1.05 1.296s-3.36-3.2-9.027-3.2c-6.962 0-12.263 5.466-12.263 12.792 0 7.366 5.26 13.195 12.385 13.195 6.07 0 9.592-3.846 9.592-3.846l1.092 1.214s-3.804 4.292-10.684 4.292c-8.258 0-14.207-6.638-14.207-14.854 0-8.217 6.072-14.45 14.044-14.45m25.74 8.095c5.788 0 10.485 4.574 10.485 10.484 0 6.03-4.697 10.725-10.485 10.725-5.788 0-10.483-4.695-10.483-10.725 0-5.91 4.695-10.484 10.483-10.484m0 19.55c4.817 0 8.702-3.926 8.702-9.066 0-5.02-3.885-8.824-8.702-8.824-4.816 0-8.7 3.804-8.7 8.824 0 5.14 3.884 9.066 8.7 9.066m16.11-19.065h1.7v3.562c0 .93-.164 1.66-.164 1.66h.08c.69-1.903 3.524-5.707 8.582-5.707 5.262 0 6.68 3.115 6.68 7.892v12.83h-1.7V18.632c0-3.52-.446-6.84-4.98-6.84-3.803 0-7.164 2.67-8.173 6.436-.244.85-.325 1.78-.325 2.752v9.875h-1.7V10.618zm24.447 1.66h-2.55V10.74h2.55v-.93c0-6.68 4.37-7.49 6.395-7.49.646 0 1.052.082 1.052.082v1.58s-.365-.082-.93-.082c-1.62 0-4.818.648-4.818 5.868v.973h5.545v1.538h-5.544v18.577h-1.7V12.278zm19.71-2.145c5.504 0 8.256 4.33 8.256 9.23 0 .444-.08 1.092-.08 1.092h-16.23c0 5.867 3.966 9.228 8.66 9.228 3.886 0 6.275-2.55 6.275-2.55l.93 1.417s-2.835 2.792-7.204 2.792c-5.707 0-10.443-4.128-10.443-10.564 0-6.84 4.656-10.645 9.837-10.645zm6.476 8.743c-.203-4.94-3.158-7.164-6.517-7.164-3.723 0-7.165 2.428-7.892 7.164h14.41zm7.487-8.258h1.7v3.845c0 .932-.164 1.66-.164 1.66h.083c1.01-3.116 3.277-5.667 6.476-5.667.605 0 1.172.122 1.172.122v1.7s-.484-.082-.93-.082c-3.158 0-5.14 2.673-6.03 5.667-.447 1.417-.608 2.914-.608 4.25v8.742h-1.7V10.618zm21.613-.485c5.504 0 8.256 4.33 8.256 9.23 0 .444-.082 1.092-.082 1.092h-16.23c0 5.867 3.967 9.228 8.664 9.228 3.884 0 6.272-2.55 6.272-2.55l.93 1.417s-2.833 2.792-7.202 2.792c-5.71 0-10.445-4.128-10.445-10.564 0-6.84 4.657-10.645 9.836-10.645zm6.477 8.743c-.202-4.94-3.158-7.164-6.516-7.164-3.724 0-7.165 2.428-7.894 7.164h14.41zm7.487-8.258h1.7v3.562c0 .93-.163 1.66-.163 1.66h.08c.69-1.903 3.523-5.707 8.582-5.707 5.262 0 6.678 3.115 6.678 7.892v12.83h-1.7V18.632c0-3.52-.445-6.84-4.978-6.84-3.804 0-7.163 2.67-8.175 6.436-.242.85-.324 1.78-.324 2.752v9.875h-1.7V10.618zm32.743-.485c4.818 0 7.245 2.874 7.245 2.874l-1.052 1.375s-2.31-2.59-6.193-2.59c-4.736 0-8.663 3.522-8.663 8.986 0 5.383 3.927 8.905 8.663 8.905 4.452 0 6.758-2.914 6.758-2.914l.89 1.415s-2.63 3.157-7.648 3.157c-5.707 0-10.443-4.128-10.443-10.564 0-6.435 4.818-10.645 10.443-10.645m21.574 0c5.502 0 8.254 4.33 8.254 9.23 0 .444-.08 1.092-.08 1.092h-16.23c0 5.867 3.967 9.228 8.663 9.228 3.886 0 6.273-2.55 6.273-2.55l.932 1.417s-2.835 2.792-7.204 2.792c-5.708 0-10.444-4.128-10.444-10.564 0-6.84 4.657-10.645 9.838-10.645zm6.474 8.743c-.2-4.94-3.156-7.164-6.515-7.164-3.723 0-7.165 2.428-7.892 7.164h14.408zM.85 57.422s1.265 1.332 3.184 1.332c1.333 0 2.422-.795 2.422-2.11 0-3.062-6.072-2.284-6.072-6.056 0-1.746 1.54-3.268 3.788-3.268 2.11 0 3.252 1.175 3.252 1.175L6.836 49.5s-1.073-1.04-2.664-1.04c-1.557 0-2.56 1.022-2.56 2.094 0 2.89 6.07 2.06 6.07 6.055 0 1.816-1.4 3.287-3.68 3.287-2.494 0-3.86-1.558-3.86-1.558l.71-.918zm13.842-3.114h.486v-.225c0-1.678-.918-2.25-2.164-2.25-1.436 0-2.457.83-2.457.83l-.552-.898s1.142-.986 3.095-.986c2.093 0 3.253 1.158 3.253 3.337v5.572H15.23v-.954c0-.432.034-.725.034-.725h-.035s-.728 1.885-2.907 1.885c-1.454 0-2.958-.846-2.958-2.578 0-2.94 3.822-3.01 5.327-3.01m-2.18 4.585c1.66 0 2.666-1.73 2.666-3.235v-.38h-.503c-1.367 0-4.1.052-4.1 1.972 0 .812.64 1.642 1.938 1.642m6.627-7.905h1.16v1.297c0 .38-.036.693-.036.693h.035c.31-.796 1.418-2.198 3.476-2.198 2.145 0 2.907 1.228 2.907 3.373v5.535h-1.177v-5.223c0-1.367-.208-2.58-1.886-2.58-1.487 0-2.767 1.022-3.165 2.458-.103.364-.14.76-.14 1.176v4.168H19.14v-8.7zM34.54 47.527h6.4V48.6h-5.206v4.567h4.463v1.072h-4.463v5.448H34.54M43.035 50.987h1.158v1.54c0 .38-.034.692-.034.692h.033c.416-1.317 1.385-2.32 2.752-2.32.242 0 .467.053.467.053v1.158s-.207-.033-.432-.033c-1.23 0-2.147.97-2.526 2.25-.173.552-.243 1.14-.243 1.694v3.668h-1.175v-8.7zm10.848 3.32h.484v-.224c0-1.678-.917-2.25-2.162-2.25-1.436 0-2.457.83-2.457.83l-.553-.898s1.14-.986 3.094-.986c2.094 0 3.254 1.158 3.254 3.337v5.572H54.42v-.954c0-.432.034-.725.034-.725h-.034s-.728 1.885-2.907 1.885c-1.453 0-2.958-.846-2.958-2.578 0-2.94 3.823-3.01 5.328-3.01m-2.18 4.585c1.66 0 2.664-1.73 2.664-3.235v-.38h-.5c-1.37 0-4.102.052-4.102 1.972 0 .812.64 1.642 1.94 1.642m6.626-7.905h1.16v1.297c0 .38-.035.693-.035.693h.034c.31-.796 1.418-2.198 3.477-2.198 2.145 0 2.906 1.228 2.906 3.373v5.535h-1.176v-5.223c0-1.367-.208-2.58-1.886-2.58-1.487 0-2.767 1.022-3.165 2.458-.103.364-.137.76-.137 1.176v4.168H58.33v-8.7zm14.292-.208c2.126 0 3.183 1.245 3.183 1.245l-.607.882s-.968-1.056-2.543-1.056c-1.9 0-3.39 1.42-3.39 3.496 0 2.04 1.504 3.494 3.426 3.494 1.766 0 2.786-1.23 2.786-1.23l.536.92s-1.175 1.365-3.39 1.365c-2.577 0-4.57-1.85-4.57-4.55 0-2.68 2.008-4.566 4.57-4.566"/><mask id="f" fill="#fff"><use xlink:href="#e"/></mask><path fill="#231F20" d="M78.194 48.998h1.228v-1.47h-1.228v1.47zm.036 10.69h1.175v-8.7H78.23v8.7zm4.012-1.903s.97 1.055 2.595 1.055c.935 0 1.748-.466 1.748-1.384 0-1.903-4.69-1.435-4.69-4.273 0-1.556 1.403-2.404 2.98-2.404 1.83 0 2.678.95 2.678.95l-.534.9s-.747-.797-2.183-.797c-.882 0-1.73.38-1.73 1.35 0 1.92 4.69 1.402 4.69 4.273 0 1.42-1.23 2.44-2.977 2.44-2.11 0-3.218-1.263-3.218-1.263l.64-.848zm11.766-7.006c2.127 0 3.183 1.245 3.183 1.245l-.605.882s-.968-1.056-2.543-1.056c-1.9 0-3.39 1.42-3.39 3.496 0 2.04 1.504 3.494 3.424 3.494 1.766 0 2.787-1.23 2.787-1.23l.535.92s-1.175 1.365-3.39 1.365c-2.576 0-4.568-1.85-4.568-4.55 0-2.68 2.008-4.566 4.568-4.566m9.568 0c2.543 0 4.602 1.936 4.602 4.513 0 2.63-2.06 4.602-4.602 4.602-2.542 0-4.6-1.97-4.6-4.602 0-2.577 2.058-4.514 4.6-4.514m0 8.06c1.87 0 3.39-1.522 3.39-3.547 0-1.97-1.52-3.442-3.39-3.442-1.868 0-3.39 1.472-3.39 3.443 0 2.025 1.522 3.547 3.39 3.547M118.924 62.404h1.09V46.056h-1.09M136.71 55.813h-4.895l-1.384 3.875h-1.262l4.463-12.16h1.28l4.465 12.16h-1.263l-1.402-3.875zm-2.457-7.023s-.26 1.003-.466 1.574l-1.627 4.41h4.187l-1.59-4.41c-.21-.57-.468-1.574-.468-1.574h-.037zm6.837 2.197h1.124v.848c0 .38-.036.674-.036.674h.036s.71-1.73 3.01-1.73c2.336 0 3.788 1.868 3.788 4.567 0 2.75-1.644 4.55-3.892 4.55-2.094 0-2.853-1.662-2.853-1.662h-.037s.037.312.037.76v4.154h-1.177V50.986zm3.91 7.87c1.538 0 2.802-1.297 2.802-3.51 0-2.128-1.124-3.495-2.75-3.495-1.455 0-2.822 1.038-2.822 3.512 0 1.747.97 3.494 2.77 3.494zm6.35-7.87h1.157v1.54c0 .38-.032.692-.032.692h.032c.417-1.317 1.386-2.32 2.754-2.32.24 0 .468.053.468.053v1.158s-.208-.033-.434-.033c-1.23 0-2.147.97-2.526 2.25-.172.552-.24 1.14-.24 1.694v3.668h-1.177v-8.7zm6.195-1.99h1.228v-1.47h-1.228v1.47zm.034 10.692h1.174v-8.703h-1.175v8.702zm3.996-12.163h1.177v9.843c0 1.14.518 1.315.966 1.315.157 0 .295-.018.295-.018v1.056s-.207.034-.433.034c-.727 0-2.006-.225-2.006-2.128V47.526zm8.703 11.088h2.732V49.69c0-.347.017-.676.017-.676h-.035s-.122.26-.606.727l-1.298 1.298-.76-.78 2.75-2.732h1.107v11.09h2.68v1.07h-6.59v-1.07zm8.287-4.428c0-3.044 1.592-6.87 5.345-6.87 1.35 0 2.232.504 2.232.504l-.45 1.056s-.76-.432-1.765-.432c-2.544 0-3.84 2.508-4.048 4.878h.032c.59-.865 1.817-1.42 3.082-1.42 2.215 0 3.788 1.628 3.788 3.928 0 2.526-1.695 4.065-3.824 4.065-2.645 0-4.393-2.42-4.393-5.708m6.99 1.66c0-1.73-1.092-2.872-2.752-2.872-1.626 0-2.94 1.092-2.94 2.077 0 1.626 1.262 3.72 3.08 3.72 1.64 0 2.61-1.246 2.61-2.924M190.99 55.276h8.648v-1.003h-8.648M203.933 58.91c0-4.272 6.227-4.826 6.227-8.114 0-1.33-1.002-2.335-2.526-2.335-1.783 0-2.714 1.662-2.714 1.662l-.9-.606s1.107-2.196 3.683-2.196c2.318 0 3.7 1.505 3.7 3.407 0 4.084-6.138 4.654-6.156 7.888h6.347v1.074H204c-.05-.28-.067-.538-.067-.78m10.018-5.312c0-3.495 1.04-6.28 4.205-6.28 3.166 0 4.187 2.785 4.187 6.28 0 3.53-1.02 6.297-4.187 6.297-3.166 0-4.204-2.767-4.204-6.297m7.146 0c0-2.89-.64-5.154-2.94-5.154-2.32 0-2.96 2.265-2.96 5.154 0 2.907.64 5.173 2.96 5.173 2.3 0 2.94-2.265 2.94-5.172M233.174 62.404h1.09V46.056h-1.09M245.89 47.527h1.246l3.183 7.144c.278.624.587 1.49.587 1.49h.035s.33-.866.605-1.49l3.183-7.143h1.23l.968 12.16h-1.193l-.675-8.51c-.052-.658-.033-1.696-.033-1.696h-.038s-.36 1.075-.64 1.696l-2.854 6.246h-1.124l-2.855-6.246c-.276-.604-.657-1.73-.657-1.73h-.033s.016 1.073-.036 1.73l-.673 8.512h-1.194l.967-12.16zm17.874 3.252c2.543 0 4.602 1.936 4.602 4.513 0 2.63-2.06 4.602-4.602 4.602-2.543 0-4.602-1.97-4.602-4.602 0-2.577 2.06-4.514 4.602-4.514m0 8.06c1.867 0 3.39-1.522 3.39-3.547 0-1.97-1.523-3.442-3.39-3.442-1.87 0-3.39 1.472-3.39 3.443 0 2.025 1.52 3.547 3.39 3.547m6.8-1.055s.968 1.055 2.594 1.055c.934 0 1.75-.466 1.75-1.384 0-1.903-4.69-1.435-4.69-4.273 0-1.556 1.4-2.404 2.976-2.404 1.833 0 2.68.95 2.68.95l-.533.9s-.746-.797-2.182-.797c-.88 0-1.728.38-1.728 1.35 0 1.92 4.688 1.402 4.688 4.273 0 1.42-1.228 2.44-2.977 2.44-2.11 0-3.216-1.263-3.216-1.263l.64-.848zm11.765-7.006c2.125 0 3.182 1.245 3.182 1.245l-.607.882s-.968-1.056-2.543-1.056c-1.9 0-3.39 1.42-3.39 3.496 0 2.04 1.504 3.494 3.426 3.494 1.765 0 2.785-1.23 2.785-1.23l.537.92s-1.177 1.365-3.39 1.365c-2.578 0-4.57-1.85-4.57-4.55 0-2.68 2.008-4.566 4.57-4.566m9.567 0c2.542 0 4.6 1.936 4.6 4.513 0 2.63-2.058 4.602-4.6 4.602-2.543 0-4.6-1.97-4.6-4.602 0-2.577 2.057-4.514 4.6-4.514m0 8.06c1.868 0 3.39-1.522 3.39-3.547 0-1.97-1.522-3.442-3.39-3.442-1.867 0-3.39 1.472-3.39 3.443 0 2.025 1.523 3.547 3.39 3.547m6.87-7.853h1.158v1.297c0 .38-.033.693-.033.693h.033c.312-.796 1.42-2.198 3.48-2.198 2.144 0 2.904 1.228 2.904 3.373v5.535h-1.178v-5.223c0-1.367-.207-2.58-1.885-2.58-1.488 0-2.766 1.022-3.164 2.458-.105.364-.138.76-.138 1.176v4.168h-1.177v-8.7zm14.015-.208c2.404 0 3.63 1.85 3.63 4.012 0 .208-.032.606-.032.606h-6.678c.053 2.232 1.574 3.442 3.374 3.442 1.592 0 2.647-1.055 2.647-1.055l.537.9s-1.263 1.21-3.217 1.21c-2.596 0-4.55-1.868-4.55-4.55 0-2.854 1.935-4.566 4.29-4.566zm2.438 3.65c-.068-1.817-1.175-2.664-2.472-2.664-1.454 0-2.718.916-2.993 2.663h5.465zm13.878-7.11c2.905 0 4.377 1.573 4.377 1.573l-.64.883s-1.42-1.35-3.705-1.35c-2.853 0-4.893 2.215-4.893 5.087 0 2.905 2.04 5.276 4.928 5.276 2.457 0 3.944-1.627 3.944-1.627l.692.848s-1.662 1.886-4.654 1.886c-3.597 0-6.157-2.82-6.157-6.365 0-3.53 2.628-6.21 6.108-6.21m10.71 3.46c2.404 0 3.63 1.85 3.63 4.012 0 .208-.032.606-.032.606h-6.678c.053 2.232 1.574 3.442 3.373 3.442 1.594 0 2.65-1.055 2.65-1.055l.536.9s-1.263 1.21-3.217 1.21c-2.597 0-4.552-1.868-4.552-4.55 0-2.854 1.936-4.566 4.29-4.566zm2.438 3.65c-.068-1.817-1.175-2.664-2.472-2.664-1.454 0-2.718.916-2.993 2.663h5.466zm3.515-3.443h1.16v1.297c0 .38-.034.693-.034.693h.033c.31-.796 1.418-2.198 3.478-2.198 2.145 0 2.905 1.228 2.905 3.373v5.535h-1.177v-5.223c0-1.367-.207-2.58-1.885-2.58-1.487 0-2.765 1.022-3.163 2.458-.105.364-.14.76-.14 1.176v4.168h-1.176v-8.7zm10.66 1.09h-1.142v-.987h1.158v-2.51h1.16v2.51h2.178v.986h-2.178V56.4c0 2.042 1.297 2.303 1.955 2.303.243 0 .4-.036.4-.036v1.055s-.192.034-.504.034c-1.002 0-3.027-.327-3.027-3.234v-4.446zm9.22-1.298c2.404 0 3.633 1.85 3.633 4.012 0 .208-.033.606-.033.606h-6.678c.053 2.232 1.573 3.442 3.373 3.442 1.59 0 2.648-1.055 2.648-1.055l.537.9s-1.265 1.21-3.22 1.21c-2.595 0-4.55-1.868-4.55-4.55 0-2.854 1.938-4.566 4.29-4.566zm2.44 3.65c-.07-1.817-1.175-2.664-2.473-2.664-1.454 0-2.717.916-2.992 2.663h5.465zm3.515-3.443h1.156v1.54c0 .38-.03.692-.03.692h.03c.42-1.317 1.387-2.32 2.753-2.32.242 0 .47.053.47.053v1.158s-.21-.033-.435-.033c-1.23 0-2.145.97-2.526 2.25-.172.552-.242 1.14-.242 1.694v3.668h-1.175v-8.7zm-76.813-21.81c0-9.87 15.153-11.01 15.153-19.62 0-3.413-2.518-6.095-6.622-6.095-4.55 0-6.906 4.063-6.906 4.063l-1.3-.894s2.56-4.874 8.246-4.874c5.607 0 8.41 3.737 8.41 7.8 0 9.71-15.112 10.93-15.112 19.5h15.56v1.625h-17.306c-.08-.527-.122-1.015-.122-1.502m21.65-12.715c0-8.206 2.358-14.706 9.59-14.706 7.23 0 9.586 6.5 9.586 14.706 0 8.246-2.357 14.706-9.586 14.706-7.232 0-9.59-6.46-9.59-14.707m17.348 0c0-7.313-1.704-13-7.758-13-6.053 0-7.76 5.687-7.76 13 0 7.353 1.707 13 7.76 13 6.054 0 7.758-5.647 7.758-13m5.688 12.593h6.46V5.9c0-.73.04-1.42.04-1.42h-.08s-.287.527-1.504 1.746l-3.372 3.37-1.22-1.177 6.135-6.176h1.747v26.812h6.297v1.625H339.47v-1.624zm22.912-14.543c-2.154-1.3-3.697-3.047-3.697-5.81 0-3.575 2.843-6.946 8.37-6.946 5.28 0 8.448 2.966 8.448 7.19 0 4.387-3.533 7.76-3.817 8.043 2.396 1.34 4.184 3.13 4.184 6.094 0 4.47-4.023 8.085-9.142 8.085-4.71 0-9.425-3.008-9.425-8.613 0-5.2 5.08-8.044 5.08-8.044m1.665.933c-.568.286-4.915 2.763-4.915 7.11 0 4.348 3.777 6.906 7.595 6.906 3.617 0 7.314-2.6 7.314-6.337 0-4.265-5.566-5.524-9.995-7.68m6.013.734c.486-.448 3.615-3.373 3.615-7.233 0-3.372-2.763-5.484-6.62-5.484-4.105 0-6.542 2.357-6.542 5.24 0 4.226 5.2 5.445 9.548 7.476" mask="url(#f)"/></g></svg>