<svg xmlns="http://www.w3.org/2000/svg" width="166" height="18" viewBox="0 0 166 18">
  <g fill="#6A788B">
    <g transform="translate(44)">
      <path d="M8.11.46C11.96.46 13.91 2.5 13.91 2.5L13.31 3.24C13.31 3.24 11.38 1.41 8.13 1.41 4.14 1.41 1.1 4.54 1.1 8.74 1.1 12.96 4.12 16.31 8.2 16.31 11.68 16.31 13.7 14.11 13.7 14.11L14.33 14.81C14.33 14.81 12.15 17.27 8.2 17.27 3.47 17.27.05 13.46.05 8.75.05 4.04 3.54.46 8.11.46M22.87 5.1C26.19 5.1 28.88 7.72 28.88 11.11 28.88 14.57 26.19 17.26 22.87 17.26 19.55 17.26 16.86 14.57 16.86 11.11 16.86 7.72 19.55 5.1 22.87 5.1M22.87 16.31C25.63 16.31 27.86 14.06 27.86 11.11 27.86 8.23 25.63 6.05 22.87 6.05 20.11 6.05 17.88 8.23 17.88 11.11 17.88 14.06 20.11 16.31 22.87 16.31M32.11 5.38L33.08 5.38 33.08 7.42C33.08 7.95 32.99 8.37 32.99 8.37L33.04 8.37C33.44 7.28 35.06 5.1 37.96 5.1 40.98 5.1 41.79 6.89 41.79 9.62L41.79 16.98 40.82 16.98 40.82 9.97C40.82 7.95 40.56 6.05 37.97 6.05 35.79 6.05 33.86 7.58 33.28 9.74 33.14 10.23 33.1 10.76 33.1 11.32L33.1 16.98 32.13 16.98 32.13 5.38 32.11 5.38zM46.12 6.33L44.66 6.33 44.66 5.45 46.12 5.45 46.12 4.92C46.12 1.09 48.63.63 49.79.63 50.16.63 50.39.68 50.39.68L50.39 1.58C50.39 1.58 50.18 1.53 49.86 1.53 48.93 1.53 47.1 1.9 47.1 4.89L47.1 5.45 50.28 5.45 50.28 6.33 47.1 6.33 47.1 16.98 46.13 16.98 46.13 6.33 46.12 6.33zM57.42 5.1C60.58 5.1 62.15 7.58 62.15 10.39 62.15 10.65 62.1 11.02 62.1 11.02L52.79 11.02C52.79 14.38 55.06 16.31 57.76 16.31 59.99 16.31 61.36 14.85 61.36 14.85L61.89 15.66C61.89 15.66 60.27 17.26 57.76 17.26 54.49 17.26 51.77 14.89 51.77 11.2 51.78 7.28 54.45 5.1 57.42 5.1zM61.14 10.11C61.02 7.28 59.33 6 57.4 6 55.27 6 53.29 7.39 52.87 10.11L61.14 10.11zM65.43 5.38L66.4 5.38 66.4 7.59C66.4 8.12 66.31 8.54 66.31 8.54L66.36 8.54C66.94 6.75 68.24 5.29 70.07 5.29 70.42 5.29 70.74 5.36 70.74 5.36L70.74 6.34C70.74 6.34 70.46 6.29 70.21 6.29 68.4 6.29 67.26 7.82 66.75 9.54 66.49 10.35 66.4 11.21 66.4 11.98L66.4 16.99 65.43 16.99 65.43 5.38zM77.82 5.1C80.98 5.1 82.55 7.58 82.55 10.39 82.55 10.65 82.5 11.02 82.5 11.02L73.19 11.02C73.19 14.38 75.46 16.31 78.16 16.31 80.39 16.31 81.76 14.85 81.76 14.85L82.29 15.66C82.29 15.66 80.67 17.26 78.16 17.26 74.89 17.26 72.17 14.89 72.17 11.2 72.18 7.28 74.85 5.1 77.82 5.1zM81.53 10.11C81.41 7.28 79.72 6 77.79 6 75.66 6 73.68 7.39 73.27 10.11L81.53 10.11zM85.83 5.38L86.81 5.38 86.81 7.42C86.81 7.95 86.72 8.37 86.72 8.37L86.77 8.37C87.17 7.28 88.79 5.1 91.69 5.1 94.71 5.1 95.52 6.89 95.52 9.62L95.52 16.98 94.55 16.98 94.55 9.97C94.55 7.95 94.29 6.05 91.7 6.05 89.52 6.05 87.59 7.58 87.01 9.74 86.87 10.23 86.83 10.76 86.83 11.32L86.83 16.98 85.85 16.98 85.85 5.38 85.83 5.38zM104.6 5.1C107.36 5.1 108.75 6.75 108.75 6.75L108.15 7.54C108.15 7.54 106.83 6.06 104.6 6.06 101.88 6.06 99.63 8.08 99.63 11.21 99.63 14.3 101.88 16.32 104.6 16.32 107.15 16.32 108.48 14.65 108.48 14.65L108.99 15.46C108.99 15.46 107.48 17.27 104.6 17.27 101.33 17.27 98.61 14.9 98.61 11.21 98.61 7.52 101.38 5.1 104.6 5.1M116.97 5.1C120.13 5.1 121.7 7.58 121.7 10.39 121.7 10.65 121.65 11.02 121.65 11.02L112.34 11.02C112.34 14.38 114.61 16.31 117.31 16.31 119.54 16.31 120.91 14.85 120.91 14.85L121.44 15.66C121.44 15.66 119.82 17.26 117.31 17.26 114.04 17.26 111.32 14.89 111.32 11.2 111.33 7.28 114 5.1 116.97 5.1zM120.68 10.11C120.56 7.28 118.87 6 116.94 6 114.81 6 112.83 7.39 112.41 10.11L120.68 10.11z"/>
    </g>
    <path d="M43.11 16.93L36.72.96 36.64.76 36.42.76 34.2.76 33.98.76 33.9.96 27.51 16.93 27.33 17.37 27.81 17.37 30.62 17.37 30.84 17.37 30.92 17.16 35.31 5.22 39.69 17.16 39.77 17.37 40 17.37 42.81 17.37 43.29 17.37 43.11 16.93zM22.39 7.62C21.72 7.55 21.05 7.46 20.43 7.37 19.04 7.18 18.21 6.54 18.21 5.65 18.21 4.2 19.56 3.69 20.82 3.69 22.2 3.69 23.65 4.1 25 4.88L25.25 5.02 25.42 4.79 26.9 2.79 27.11 2.51 26.81 2.32C24.93 1.19 22.95.62 20.94.62 17.27.62 14.89 2.58 14.89 5.61 14.89 8.19 16.79 10.03 19.84 10.42L20.86 10.55C21.29 10.61 21.7 10.66 22.16 10.71 23.47 10.86 24.17 11.49 24.17 12.54 24.17 13.69 22.93 14.44 21.02 14.44 19.32 14.44 17.57 13.88 16.22 12.91L16 12.74 15.8 12.94 14.05 14.76 13.8 15.02 14.08 15.24C15.96 16.74 18.29 17.51 20.99 17.51 25 17.51 27.48 15.61 27.48 12.54 27.49 10.53 26.15 8.03 22.39 7.62zM10.02 10.13C12.04 9.34 13.27 7.62 13.27 5.54 13.27 4.13 12.59 2.8 11.39 1.87 10.42 1.11 9.22.75 7.62.75L.76.75.44.75.44 1.07.44 17.04.44 17.36.76 17.36 3.43 17.36 3.75 17.36 3.75 17.04 3.75 3.55 7.6 3.55C8.41 3.55 8.9 3.67 9.37 3.98 9.85 4.3 10.12 4.85 10.12 5.53 10.12 6.55 9.42 7.74 7.46 7.74L6.13 7.74 5.66 7.74 5.12 7.74 5.38 8.22 10.19 17.19 10.28 17.36 10.47 17.36 13.63 17.36 14.19 17.36 13.91 16.87 10.02 10.13zM40.32 2.03L40.52 2.03C40.74 2.03 40.93 1.95 40.93 1.74 40.93 1.59 40.82 1.44 40.52 1.44 40.43 1.44 40.37 1.45 40.32 1.45L40.32 2.03zM40.32 2.97L40.05 2.97 40.05 1.28C40.19 1.26 40.33 1.24 40.53 1.24 40.78 1.24 40.95 1.3 41.06 1.37 41.16 1.45 41.21 1.56 41.21 1.72 41.21 1.94 41.06 2.07 40.88 2.13L40.88 2.14C41.03 2.17 41.13 2.3 41.16 2.55 41.2 2.81 41.24 2.91 41.27 2.97L40.99 2.97C40.95 2.92 40.91 2.76 40.87 2.54 40.83 2.33 40.72 2.25 40.51 2.25L40.32 2.25 40.32 2.97zM40.6.8C39.93.8 39.39 1.37 39.39 2.08 39.39 2.8 39.94 3.36 40.61 3.36 41.28 3.37 41.82 2.79 41.82 2.08 41.82 1.38 41.28.8 40.6.8zM40.61.57C41.44.57 42.1 1.24 42.1 2.09 42.1 2.94 41.44 3.61 40.6 3.61 39.77 3.61 39.1 2.94 39.1 2.09 39.1 1.24 39.77.57 40.61.57z"/>
  </g>
</svg>
