<svg xmlns="http://www.w3.org/2000/svg" xmlns:xlink="http://www.w3.org/1999/xlink" width="104" height="90" viewBox="0 0 104 90"><defs><path id="a" d="M0 .561h103.915v88.753H0z"/></defs><g fill="none" fill-rule="evenodd"><g transform="translate(0 .124)"><mask id="b" fill="#fff"><use xlink:href="#a"/></mask><path fill="#B5D0E6" d="M90.422 41.35l-11.2-14.46a1.205 1.205 0 00-1.35-.403c-.49.166-.82.626-.82 1.146v59.262H26.886V27.633c0-.519-.329-.979-.817-1.144a1.198 1.198 0 00-.4-.067c-.374 0-.723.17-.95.468L13.514 41.35 2.909 33.146 26.21 2.982h11.936c2.65 6.431 7.973 10.422 13.93 10.422 5.84-.005 11.089-3.996 13.718-10.422l11.811-.059 23.402 30.224-10.585 8.202zm13.24-8.727L79.328 1.196a1.215 1.215 0 00-1.067-.635h-13.3c-.507 0-.963.32-1.137.795-2.197 6.021-6.589 9.621-11.762 9.626-5.192 0-9.771-3.687-11.95-9.626a1.218 1.218 0 00-1.138-.795h-13.3c-.414 0-.794.216-1.01.564L.252 32.621a1.21 1.21 0 00.22 1.699l12.518 9.685a1.207 1.207 0 001.697-.216l9.779-12.62v56.937a1.21 1.21 0 001.208 1.208h52.588a1.21 1.21 0 001.212-1.208V31.171l9.777 12.618c.194.251.487.418.968.47.26 0 .515-.087.73-.254l12.497-9.685c.257-.199.42-.484.46-.805a1.19 1.19 0 00-.245-.892z" mask="url(#b)"/></g><path fill="#ED2E26" d="M62.63 17.478c4.024 0 6.047 2.154 6.047 2.154s.232 1.594.084 4.801c-.223 4.848-6.13 7.759-6.13 7.759s-5.907-2.91-6.13-7.759c-.148-3.207.083-4.8.083-4.8s2.022-2.155 6.046-2.155"/><path fill="#FEFEFE" d="M59.61 23.85c0-1.713 1.355-3.107 3.02-3.107a3.026 3.026 0 013.023 3.022c0 1.33-1.144 2.426-2.025 2.987.342.196 1.097.402 1.82.467a4.365 4.365 0 001.698-3.454 4.52 4.52 0 00-4.516-4.515 4.52 4.52 0 00-4.516 4.515c0 1.505.627 2.84 1.811 3.864 1.11.957 2.729 1.596 4.572 1.897.401-.22 1.084-.871 1.34-1.253-1.54-.2-2.998-.573-3.975-1.087-1.495-.784-2.252-1.906-2.252-3.335"/></g></svg>