<svg xmlns="http://www.w3.org/2000/svg" width="93" height="84" viewBox="0 0 93 84"><g fill="none" fill-rule="evenodd"><path fill="#B5D0E6" d="M83.048 74.87H8.178a1.29 1.29 0 110-2.58h74.87a1.29 1.29 0 010 2.58"/><path fill="#B5D0E6" d="M2.78 27.108l7.536 52.743c.009.06.013.122.013.183 0 .712.577 1.29 1.29 1.29h69.706c.714 0 1.292-.578 1.292-1.29 0-.054.005-.108.01-.162l6.702-52.764H2.78zm78.544 56.798H11.618a3.877 3.877 0 01-3.872-3.77L.014 26a1.3 1.3 0 01.3-1.03c.246-.281.601-.444.978-.444h89.5c.37 0 .724.16.967.437.246.28.36.65.314 1.017l-6.877 54.144a3.875 3.875 0 01-3.872 3.782z"/><path fill="#B5D0E6" d="M61.534 27.108a1.292 1.292 0 01-1.293-1.29c0-7.852-7.013-23.236-15.49-23.236s-15.49 15.384-15.49 23.236a1.291 1.291 0 01-2.582 0C26.68 16.979 34.311 0 44.751 0s18.073 16.978 18.073 25.817a1.29 1.29 0 01-1.29 1.29"/><path fill="#ED2E26" d="M46.04 34.364c8.003 0 12.029 4.282 12.029 4.282s.46 3.17.165 9.553c-.443 9.642-12.191 15.432-12.193 15.432 0 .002-11.748-5.79-12.191-15.432-.296-6.382.165-9.553.165-9.553s4.021-4.282 12.025-4.282"/><path fill="#FEFEFE" d="M40.033 47.039c0-3.41 2.695-6.182 6.008-6.182a6.019 6.019 0 016.014 6.012c0 2.647-2.275 4.824-4.028 5.944.68.387 2.18.795 3.617.927a8.684 8.684 0 003.381-6.871c0-4.953-4.03-8.983-8.984-8.983-4.953 0-8.983 4.03-8.983 8.983 0 2.99 1.247 5.648 3.604 7.685 2.202 1.903 5.425 3.174 9.093 3.775.796-.439 2.156-1.735 2.666-2.494-3.065-.395-5.965-1.142-7.91-2.162-2.97-1.558-4.478-3.791-4.478-6.634"/></g></svg>