<svg xmlns="http://www.w3.org/2000/svg" viewBox="0 0 34 35"><g fill="none"><path fill="#2E8BE0" d="M17 0c4.11 0 8.26.41 12.33 1.23 1.49.31 3.13 1.95 3.44 3.43 1.64 8.19 1.64 16.5 0 24.68-.31 1.49-1.95 3.13-3.43 3.44a62.5 62.5 0 01-24.67 0c-1.49-.31-3.13-1.95-3.44-3.43a62.516 62.516 0 010-24.68c.31-1.49 1.95-3.13 3.43-3.44A62.85 62.85 0 0117.01 0"/><path fill="#FFF" d="M9.03 11.87c1.91 0 3.25.84 3.79 2.53l-1.87.65c-.31-1-.88-1.58-1.96-1.58-1.59 0-2.37 1.28-2.37 3.06S7.4 19.59 9 19.59c.98 0 1.6-.5 1.92-1.5l1.84.65c-.59 1.51-1.83 2.44-3.78 2.44-2.63 0-4.33-1.71-4.33-4.65 0-2.94 1.69-4.65 4.39-4.65l-.01-.01zM21.61 21h-1.98l-.72-2.07H15.7L14.98 21H13.1l3.22-8.95h2.06L21.6 21h.01zm-4.32-6.85c-.15.58-1.06 3.26-1.06 3.26h2.16s-.92-2.69-1.07-3.26h-.03zm10.28 3.18L29.63 21h-2.11l-1.85-3.39h-1.19V21h-1.91v-8.95h3.27c2.07 0 3.43.82 3.43 2.72 0 1.33-.65 2.15-1.7 2.56zm-1.94-3.7h-1.15v2.42h1.15c1.11 0 1.67-.36 1.67-1.27s-.56-1.15-1.67-1.15z"/></g></svg>