<?xml version="1.0" encoding="UTF-8"?>
<svg id="App_Badges" data-name="App Badges" xmlns="http://www.w3.org/2000/svg" viewBox="0 0 36 36">
  <defs>
    <style>
      .cls-1 {
        fill: #2e8be0;
      }
    </style>
  </defs>
  <path class="cls-1" d="m18.02,14.91h-1.36v5.78h1.36c1.7,0,2.45-1.15,2.45-2.89s-.75-2.89-2.45-2.89Zm8.84,0h-1.15v2.42h1.15c1.11,0,1.67-.36,1.67-1.27s-.56-1.15-1.67-1.15Zm7.9-9.45c-.4-1.89-2.32-3.81-4.21-4.21-8.32-1.66-16.76-1.66-25.08,0-1.89.4-3.81,2.32-4.21,4.21-1.66,8.32-1.66,16.76,0,25.08.4,1.89,2.32,3.81,4.21,4.21,4.16.83,8.35,1.25,12.54,1.25s8.38-.42,12.54-1.25h0c1.89-.4,3.81-2.32,4.21-4.21,1.66-8.32,1.66-16.76,0-25.08Zm-24.98,15.4c.98,0,1.6-.5,1.92-1.5l1.84.65c-.59,1.51-1.83,2.44-3.78,2.44-2.63,0-4.33-1.71-4.33-4.65s1.69-4.65,4.39-4.65c1.91,0,3.25.84,3.79,2.53l-1.87.65c-.31-1-.88-1.58-1.96-1.58-1.59,0-2.37,1.28-2.37,3.06s.78,3.06,2.38,3.06Zm8.29,1.42h-3.34v-8.95h3.34c2.74,0,4.39,1.62,4.39,4.48s-1.65,4.48-4.39,4.48Zm10.68,0l-1.85-3.39h-1.19v3.39h-1.91v-8.95h3.27c2.07,0,3.43.82,3.43,2.72,0,1.33-.65,2.15-1.7,2.56l2.06,3.67h-2.11Z"/>
</svg>