<svg xmlns="http://www.w3.org/2000/svg" viewBox="0 0 36 36"><path stroke="none" d="M30.089 33.791c-8.059 1.612-16.118 1.612-24.178 0-1.652-.347-3.355-2.05-3.702-3.702-1.612-8.059-1.612-16.118 0-24.178.347-1.652 2.05-3.355 3.702-3.702 8.059-1.612 16.118-1.612 24.178 0 1.652.347 3.355 2.05 3.702 3.702 1.612 8.059 1.612 16.118 0 24.178-.347 1.652-2.05 3.355-3.702 3.702" fill="#2E8BE0"/><path fill="#FFF" d="M5.176 18.45c0 2.99 1.729 4.732 4.407 4.732 1.989 0 3.25-.949 3.848-2.483l-1.872-.663c-.325 1.014-.949 1.521-1.95 1.521-1.625 0-2.418-1.313-2.418-3.107 0-1.807.793-3.107 2.405-3.107 1.092 0 1.677.598 1.989 1.612l1.898-.663c-.546-1.716-1.911-2.574-3.848-2.574-2.743 0-4.459 1.755-4.459 4.732zm11.375-2.158c0-.611.481-1.001 1.456-1.001.962 0 1.547.52 1.69 1.352l1.976-.429c-.312-1.599-1.729-2.496-3.614-2.496-2.015 0-3.484.91-3.484 2.73 0 1.833 1.443 2.457 3.341 2.756 1.417.221 1.911.546 1.911 1.222 0 .832-.754 1.183-1.677 1.183-1.144 0-1.729-.637-1.82-1.508l-1.95.312c.078 1.469 1.469 2.769 3.77 2.769 2.119 0 3.666-1.105 3.666-2.86 0-1.638-.988-2.392-3.146-2.756-1.482-.247-2.119-.494-2.119-1.274zm11.362-2.392l3.276 9.1h-2.015l-.728-2.106h-3.263l-.728 2.106h-1.911l3.276-9.1h2.093zm-1.092 2.132h-.026c-.156.585-1.079 3.315-1.079 3.315h2.197s-.936-2.73-1.092-3.315z"/></svg>
