<svg version="1.1" id="Layer_1" xmlns="http://www.w3.org/2000/svg" x="0" y="0" viewBox="0 0 34 34" xml:space="preserve"><style>.st1{fill:#fff}</style><path d="M29.1 32.8c-8.1 1.6-16.1 1.6-24.2 0-1.7-.3-3.4-2.1-3.7-3.7C-.4 21-.4 13 1.2 4.9c.3-1.7 2.1-3.4 3.7-3.7C13-.4 21-.4 29.1 1.2c1.7.3 3.4 2.1 3.7 3.7 1.6 8.1 1.6 16.1 0 24.2-.4 1.6-2.1 3.3-3.7 3.7" fill="#2e8be0"/><path class="st1" d="M5.5 12.7c1.7 0 2.9.8 3.4 2.3l-1.7.6c-.3-.9-.8-1.4-1.8-1.4-1.4 0-2.1 1.2-2.1 2.8 0 1.6.7 2.8 2.1 2.8.9 0 1.4-.4 1.7-1.3l1.7.6c-.5 1.4-1.6 2.2-3.4 2.2-2.4 0-3.9-1.5-3.9-4.2.1-2.8 1.6-4.4 4-4.4zM12.9 16.1c1.9.3 2.8 1 2.8 2.4 0 1.6-1.4 2.5-3.2 2.5-2 0-3.3-1.2-3.3-2.5l1.7-.3c.1.8.6 1.3 1.6 1.3.8 0 1.5-.3 1.5-1 0-.6-.4-.9-1.7-1.1-1.7-.3-3-.8-3-2.4s1.3-2.4 3.1-2.4c1.7 0 2.9.8 3.2 2.2l-1.6.4c-.1-.7-.6-1.2-1.5-1.2s-1.3.3-1.3.9c-.1.8.5 1 1.7 1.2zM23.5 20.9h-1.8L21 19h-2.9l-.6 1.9h-1.7l2.9-8.1h1.8l3 8.1zm-4-6.1c-.1.5-1 2.9-1 2.9h2s-.8-2.4-1-2.9zM27.3 20.9c-.4-1.3-1.5-4.3-1.9-5.8v5.8h-1.6v-8.1h2.4s1.7 5.2 2 6c.2-.8 1.9-6 1.9-6h2.4v8.1H31v-5.8c-.5 1.4-1.6 4.8-1.9 5.8h-1.8z"/></svg>