<svg xmlns="http://www.w3.org/2000/svg" viewBox="0 0 36 36"><path stroke="none" d="M30.089 33.791c-8.059 1.612-16.118 1.612-24.178 0-1.652-.347-3.355-2.05-3.702-3.702-1.612-8.059-1.612-16.118 0-24.178.347-1.652 2.05-3.355 3.702-3.702 8.059-1.612 16.118-1.612 24.178 0 1.652.347 3.355 2.05 3.702 3.702 1.612 8.059 1.612 16.118 0 24.178-.347 1.652-2.05 3.355-3.702 3.702" fill="#2E8BE0"/><path fill="#FFF" d="M9.303 23v-3.874h3.965v-1.612h-3.965v-2.002h4.303v-1.612h-6.227v9.1h1.924zm5.655 0h1.95v-9.1h-1.95v9.1zm9.646 0c.39-1.105 1.664-4.914 2.184-6.539h.039v6.539h1.794v-9.1h-2.717s-1.898 5.876-2.158 6.773c-.273-.897-2.236-6.773-2.236-6.773h-2.73v9.1h1.794v-6.539h.039c.494 1.625 1.664 5.109 2.171 6.539h1.82z"/></svg>
