<svg version="1.1" id="Layer_1" xmlns="http://www.w3.org/2000/svg" x="0" y="0" viewBox="0 0 34 34" xml:space="preserve"><style>.st1{fill:#fff}</style><path d="M29.1 32.8c-8.1 1.6-16.1 1.6-24.2 0-1.7-.3-3.4-2.1-3.7-3.7C-.4 21-.4 13 1.2 4.9c.3-1.7 2.1-3.4 3.7-3.7C13-.4 21-.4 29.1 1.2c1.7.3 3.4 2.1 3.7 3.7 1.6 8.1 1.6 16.1 0 24.2-.4 1.6-2.1 3.3-3.7 3.7" fill="#2e8be0"/><path class="st1" d="M8.8 16.5H13v5h-1.8v-.9c-.4.6-1.2 1.1-2.4 1.1-2.7 0-4.1-2.1-4.1-4.7 0-2.8 1.7-4.8 4.5-4.8 1.8 0 3.2.8 3.8 2.4l-1.8.7c-.4-1-1.1-1.5-2.1-1.5-1.5 0-2.4 1.1-2.4 3.2 0 2 .8 3 2.4 3 .9 0 2-.5 2-1.7v-.4H8.8v-1.4zM22 21.6h-2l-.7-2.1H16l-.7 2.1h-1.9l3.3-9.1h2.1l3.2 9.1zm-4.3-7l-1.1 3.3h2.2s-1-2.7-1.1-3.3zM22.8 12.4s1.7 4.8 2.3 6.8c.6-2 2.3-6.8 2.3-6.8h2L26 21.6h-2l-3.3-9.1h2.1z"/></svg>