<svg xmlns="http://www.w3.org/2000/svg" viewBox="0 0 36 36"><path stroke="none" d="M30.089 33.791c-8.059 1.612-16.118 1.612-24.178 0-1.652-.347-3.355-2.05-3.702-3.702-1.612-8.059-1.612-16.118 0-24.178.347-1.652 2.05-3.355 3.702-3.702 8.059-1.612 16.118-1.612 24.178 0 1.652.347 3.355 2.05 3.702 3.702 1.612 8.059 1.612 16.118 0 24.178-.347 1.652-2.05 3.355-3.702 3.702" fill="#2E8BE0"/><path fill="#FFF" d="M7.418 23h1.95v-9.1h-1.95v9.1zm3.445-4.55c0-2.951 1.768-4.732 4.433-4.732s4.433 1.781 4.433 4.732c0 2.951-1.768 4.732-4.433 4.732s-4.433-1.781-4.433-4.732zm2.015 0c0 1.846.78 3.12 2.418 3.12 1.638 0 2.418-1.274 2.418-3.12s-.78-3.12-2.418-3.12c-1.638 0-2.418 1.274-2.418 3.12zm7.969 0c0 2.99 1.729 4.732 4.407 4.732 1.989 0 3.25-.949 3.848-2.483l-1.872-.663c-.325 1.014-.949 1.521-1.95 1.521-1.625 0-2.418-1.313-2.418-3.107 0-1.807.793-3.107 2.405-3.107 1.092 0 1.677.598 1.989 1.612l1.898-.663c-.546-1.716-1.911-2.574-3.848-2.574-2.743 0-4.459 1.755-4.459 4.732z"/></svg>
