<svg xmlns="http://www.w3.org/2000/svg" width="36" height="36" viewBox="0 0 36 36"><g fill="#2E8BE0" fill-rule="evenodd"><path stroke="none" d="M5.911 33.791c-1.652-.347-3.355-2.05-3.702-3.702a61.053 61.053 0 0 1 0-24.178C2.556 4.26 4.259 2.556 5.91 2.21a61.053 61.053 0 0 1 24.178 0c1.652.347 3.355 2.05 3.702 3.702a61.053 61.053 0 0 1 0 24.178c-.347 1.652-2.05 3.355-3.702 3.702a61.053 61.053 0 0 1-24.178 0z"/><path fill="#FFF" d="M12.658 19.802h-1.521V23H9.2v-9.1h3.458c2.171 0 3.601.871 3.601 2.899 0 2.067-1.495 3.003-3.601 3.003zm1.612-3.003c0-.988-.598-1.287-1.807-1.287h-1.326v2.678h1.326c1.209 0 1.807-.403 1.807-1.391zM23.083 23h-1.82c-.507-1.43-1.677-4.914-2.171-6.539h-.039V23h-1.794v-9.1h2.73s1.963 5.876 2.236 6.773c.26-.897 2.158-6.773 2.158-6.773H27.1V23h-1.794v-6.539h-.039A381.13 381.13 0 0 1 23.083 23z"/></g></svg>