<svg width="36" height="36" xmlns="http://www.w3.org/2000/svg"><g fill="none" fill-rule="evenodd"><path d="M30.09 33.79c-8.06 1.613-16.12 1.613-24.18 0-1.65-.346-3.354-2.05-3.7-3.7-1.613-8.06-1.613-16.12 0-24.18.346-1.65 2.05-3.354 3.7-3.7 8.06-1.613 16.12-1.613 24.18 0 1.65.346 3.354 2.05 3.7 3.7 1.613 8.06 1.613 16.12 0 24.18-.346 1.65-2.05 3.354-3.7 3.7" stroke="none" fill="#2E8BE0"/><path d="M6.944 16.292c0-.61.48-1 1.455-1 .96 0 1.546.52 1.69 1.35l1.976-.428c-.313-1.6-1.73-2.496-3.615-2.496-2.014 0-3.483.91-3.483 2.73 0 1.833 1.443 2.457 3.342 2.756 1.415.22 1.91.546 1.91 1.222 0 .832-.755 1.183-1.678 1.183-1.143 0-1.728-.638-1.82-1.51l-1.95.313c.078 1.47 1.47 2.77 3.77 2.77 2.12 0 3.667-1.106 3.667-2.86-.002-1.64-.99-2.393-3.148-2.757-1.48-.247-2.118-.494-2.118-1.274zM18.305 13.9l3.276 9.1h-2.013l-.73-2.106h-3.261L14.845 23h-1.91l3.277-9.1h2.092zm-1.09 2.132h-.027c-.156.585-1.08 3.315-1.08 3.315h2.197s-.936-2.73-1.09-3.315zm12.35 7.917l-.99-1.093c-.532.208-1.143.325-1.806.325-2.666 0-4.434-1.78-4.434-4.732 0-2.95 1.768-4.732 4.433-4.732 2.663 0 4.431 1.78 4.431 4.732.002 1.573-.505 2.82-1.377 3.627l.832.91-1.09.962zm-5.215-5.5c0 1.846.78 3.12 2.418 3.12.21 0 .404-.026.585-.065l-.845-.936 1.067-.963 1 1.105c.416-.546.61-1.326.61-2.262.002-1.846-.778-3.12-2.416-3.12-1.64 0-2.42 1.274-2.42 3.12z" fill="#FFF"/></g></svg>