<svg xmlns="http://www.w3.org/2000/svg" viewBox="0 0 36 36"><path d="M18 36c-4.19 0-8.38-.42-12.54-1.25-1.89-.4-3.82-2.32-4.21-4.21a63.776 63.776 0 010-25.08c.39-1.89 2.32-3.82 4.21-4.21 8.32-1.66 16.76-1.67 25.08 0 1.89.4 3.82 2.32 4.21 4.21a63.776 63.776 0 010 25.08c-.4 1.89-2.32 3.82-4.21 4.21C26.38 35.58 22.19 36 18 36z" fill="#2e8be0"/><path fill="#FFF" d="M11.58 14.41h5.76v1.3h-2.1v5.97h-1.57v-5.97h-2.1v-1.3zm9.8-.14c1.55 0 2.63.68 3.07 2.05l-1.51.53c-.25-.81-.72-1.29-1.59-1.29-1.29 0-1.92 1.04-1.92 2.48s.63 2.48 1.93 2.48c.8 0 1.3-.41 1.56-1.21l1.49.53c-.48 1.22-1.48 1.98-3.07 1.98-2.14 0-3.52-1.39-3.52-3.78s1.37-3.78 3.56-3.78z"/></svg>