<svg xmlns="http://www.w3.org/2000/svg" viewBox="0 0 36 36"><path stroke="none" d="M30.089 33.791c-8.059 1.612-16.118 1.612-24.178 0-1.652-.347-3.355-2.05-3.702-3.702-1.612-8.059-1.612-16.118 0-24.178.347-1.652 2.05-3.355 3.702-3.702 8.059-1.612 16.118-1.612 24.178 0 1.652.347 3.355 2.05 3.702 3.702 1.612 8.059 1.612 16.118 0 24.178-.347 1.652-2.05 3.355-3.702 3.702" fill="#2E8BE0"/><path fill="#FFF" d="M10.213 15.525h2.626v7.475h1.963v-7.475h2.626v-1.625h-7.215v1.625zm11.856 4.277h-1.521v3.198h-1.937v-9.1h3.458c2.171 0 3.601.871 3.601 2.899 0 2.067-1.495 3.003-3.601 3.003zm1.612-3.003c0-.988-.598-1.287-1.807-1.287h-1.326v2.678h1.326c1.209 0 1.807-.403 1.807-1.391z"/></svg>
