<svg width="36" height="36" xmlns="http://www.w3.org/2000/svg"><g fill="#2E8BE0" fill-rule="evenodd"><path d="M30.09 33.79c-8.06 1.613-16.12 1.613-24.18 0-1.65-.346-3.354-2.05-3.7-3.7-1.613-8.06-1.613-16.12 0-24.18.346-1.65 2.05-3.354 3.7-3.7 8.06-1.613 16.12-1.613 24.18 0 1.65.346 3.354 2.05 3.7 3.7 1.613 8.06 1.613 16.12 0 24.18-.346 1.65-2.05 3.354-3.7 3.7" stroke="none"/><path d="M13.814 13.9s-1.21 5.122-1.534 6.8h-.04c-.337-1.678-1.585-6.8-1.585-6.8H8.822s-1.248 5.122-1.573 6.8h-.04c-.3-1.678-1.495-6.8-1.495-6.8H3.74L6.026 23H8.29s1.078-4.407 1.416-6.032h.04C10.108 18.593 11.11 23 11.11 23h2.262l2.275-9.1h-1.833zm7.58 0l3.275 9.1h-2.016l-.728-2.106h-3.263L17.935 23h-1.91l3.275-9.1h2.093zM20.3 16.032h-.025c-.156.585-1.08 3.315-1.08 3.315h2.198s-.936-2.73-1.092-3.315zM27.725 23v-3.874h3.965v-1.612h-3.966v-2.002h4.303V13.9H25.8V23h1.924z" fill="#FFF"/></g></svg>