<svg version="1.1" xmlns="http://www.w3.org/2000/svg" viewBox="0 0 34 34" xml:space="preserve"><style>.st1{fill:#fff}</style><path d="M29.1 32.8c-8.1 1.6-16.1 1.6-24.2 0-1.7-.3-3.4-2.1-3.7-3.7C-.4 21-.4 13 1.2 4.9c.3-1.7 2.1-3.4 3.7-3.7C13-.4 21-.4 29.1 1.2c1.7.3 3.4 2.1 3.7 3.7 1.6 8.1 1.6 16.1 0 24.2-.4 1.6-2.1 3.3-3.7 3.7" fill="#2e8be0"/><path class="st1" d="M9.9 15.8l3.4 4.8H11l-2.2-3.2-2.2 3.2H4.3l3.3-4.7-3.1-4.4h2.4l1.9 2.8 2-2.8H13l-3.1 4.3zM13.8 11.5h3.4c2.8 0 4.5 1.7 4.5 4.6s-1.7 4.6-4.5 4.6h-3.4v-9.2zm3.3 1.6h-1.4V19h1.4c1.7 0 2.5-1.2 2.5-2.9s-.8-3-2.5-3zM27.5 16.8l2.1 3.7h-2.1l-1.9-3.4h-1.2v3.4h-1.9v-9.1h3.3c2.1 0 3.5.8 3.5 2.8 0 1.4-.7 2.2-1.8 2.6zm-1.9-3.7h-1.2v2.5h1.2c1.1 0 1.7-.4 1.7-1.3s-.6-1.2-1.7-1.2z"/></svg>