<svg xmlns="http://www.w3.org/2000/svg" width="126" height="20" viewBox="0 0 126 20"><path fill="#ED2E26" fill-rule="evenodd" d="M10.42 16.364l-6.44 3.37 1.23-7.14L0 7.539l7.2-1.042L10.42 0l3.22 6.496 7.2 1.042-5.21 5.057 1.23 7.14m19.56-3.371l-6.44 3.37 1.23-7.14L26 7.539l7.2-1.042L36.42 0l3.22 6.496 7.2 1.042-5.21 5.057 1.23 7.14m19.56-3.371l-6.44 3.37 1.23-7.14L52 7.539l7.2-1.042L62.42 0l3.22 6.496 7.2 1.042-5.21 5.057 1.23 7.14m20.56-3.371l-6.44 3.37 1.23-7.14L79 7.539l7.2-1.042L89.42 0l3.22 6.496 7.2 1.042-5.21 5.057 1.23 7.14m19.56-3.371l-6.44 3.37 1.23-7.14L105 7.539l7.2-1.042L115.42 0l3.22 6.496 7.2 1.042-5.21 5.057 1.23 7.14"/></svg>