<svg xmlns="http://www.w3.org/2000/svg" width="64" height="60"><g fill="none" fill-rule="evenodd"><path stroke="#B5D0E7" stroke-linecap="round" stroke-linejoin="round" stroke-width="2" d="M21.823 58.38l17.45-31.138m.345 0l17.45 31.14"/><path fill="#FFF" d="M15.546 24.727C15.546 11.623 26.169 1 39.273 1 52.377 1 63 11.623 63 24.727c0 13.104-10.623 23.727-23.727 23.727-13.104 0-23.727-10.623-23.727-23.727"/><path stroke="#B5D0E7" stroke-linecap="round" stroke-linejoin="round" stroke-width="2" d="M15.546 24.727C15.546 11.623 26.169 1 39.273 1 52.377 1 63 11.623 63 24.727c0 13.104-10.623 23.727-23.727 23.727-13.104 0-23.727-10.623-23.727-23.727z"/><path fill="#FFF" d="M39.273 40.504c-8.7 0-15.776-7.078-15.776-15.777 0-8.7 7.076-15.778 15.776-15.778S55.05 16.027 55.05 24.727s-7.077 15.777-15.777 15.777"/><path fill="#B5D0E7" d="M39.273 9.95c8.147 0 14.777 6.628 14.777 14.777 0 8.148-6.63 14.777-14.776 14.777-8.149 0-14.779-6.629-14.779-14.777 0-8.149 6.63-14.778 14.778-14.778m0-2c-9.267 0-16.778 7.512-16.778 16.778 0 9.266 7.511 16.777 16.778 16.777 9.266 0 16.777-7.51 16.777-16.777 0-9.266-7.51-16.778-16.776-16.778"/><path fill="#ED2E26" d="M32.651 24.727a6.622 6.622 0 1 1 13.245 0 6.622 6.622 0 0 1-13.245 0"/><path stroke="#FFF" stroke-linecap="round" stroke-width="6" d="M39.273 24.727H3"/><path stroke="#ED2E26" stroke-linecap="round" stroke-width="2" d="M39.273 24.727H3"/><path stroke="#ED2E26" stroke-linecap="round" stroke-linejoin="round" stroke-width="2" d="M18.437 24.727l-6.049-6.049m-2.011 6.049l-6.05-6.049m0 12.209l6.05-6.05m2.012 6.05l6.049-6.05"/></g></svg>