<svg xmlns="http://www.w3.org/2000/svg" viewBox="0 0 64 64"><path fill="#ffffff" d="M6 4h2v39H6zM56 1h2v29h-2z"/><path fill="#ffffff" d="M62 44h-2v-2h2V2H2v40h24v2H2c-1.1 0-2-.9-2-2V2C0 .9.9 0 2 0h60c1.1 0 2 .9 2 2v40c0 1.1-.9 2-2 2z"/><path fill="#ffffff" d="M51 35h2v3h-2zM46 34h2v3h-2zM41 32h2v4h-2zM58 64h-2v-4H37v4h-2v-4c0-1.1.9-2 2-2h19c1.1 0 2 .9 2 2v4z"/><path fill="#ffffff" d="M56 59h-2v-3c0-.8.3-1.8.6-3.1.6-2.3 1.4-5.5 1.4-9.9v-7c0-1.1-.9-2-2-2v-2c2.2 0 4 1.8 4 4v7c0 4.7-.9 8.1-1.5 10.4-.3 1.1-.5 2-.5 2.6v3zM53 36h-2v-2c0-1.1-.9-2-2-2v-2c2.2 0 4 1.8 4 4v2zM48 34h-2v-2c0-1.1-.9-2-2-2v-2c2.2 0 4 1.8 4 4v2zM38 60c-.6 0-1-.4-1-1v-2.7l-5.8-7.7c-.1-.1-.1-.2-.2-.3-1.5-5.6-3.3-11.7-3.8-12.6-.6-.7-.8-1.7-.4-2.7.5-1.2 1.8-2 3.2-2 2.5 0 3.7 2.9 3.9 3.6l2.1 3.7V20c0-1.7 1.3-3 3-3h1c1.7 0 3 1.3 3 3v12c0 .6-.4 1-1 1s-1-.4-1-1V20c0-.6-.4-1-1-1h-1c-.6 0-1 .4-1 1v22c0 .5-.3.9-.7 1-.4.1-.9-.1-1.1-.5l-4-7c0-.1-.1-.1-.1-.2-.3-.6-1.1-2.3-2.1-2.3-.7 0-1.2.4-1.3.8-.1.1-.1.4 0 .5.6.6 2 5.1 4.2 13.3l5.9 7.8c.1.2.2.4.2.6v3c0 .6-.4 1-1 1zM12 6h2v2h-2zM18 6h2v2h-2zM24 6h2v2h-2zM30 6h2v2h-2zM36 6h2v2h-2zM42 6h2v2h-2zM48 6h2v2h-2zM12 12h2v2h-2zM18 12h2v2h-2zM24 12h2v2h-2zM30 12h2v2h-2zM12 18h2v2h-2zM18 18h2v2h-2zM24 18h2v2h-2zM30 18h2v2h-2zM12 24h2v2h-2zM18 24h2v2h-2z"/><g><path fill="#ffffff" d="M12 30h2v2h-2z"/></g><g><path fill="#ffffff" d="M18 30h2v2h-2z"/></g><g><path fill="#ffffff" d="M24 24h2v2h-2z"/></g><g><path fill="#ffffff" d="M30 24h2v2h-2z"/></g><g><path fill="#ffffff" d="M36 12h2v2h-2z"/></g><g><path fill="#ffffff" d="M42 12h2v2h-2z"/></g><g><path fill="#ffffff" d="M48 12h2v2h-2z"/></g></svg>