
<svg width="26px" height="24px" viewBox="0 0 26 24" version="1.1" xmlns="http://www.w3.org/2000/svg" xmlns:xlink="http://www.w3.org/1999/xlink">
    <!-- Generator: Sketch 44.1 (41455) - http://www.bohemiancoding.com/sketch -->
    <desc>Created with Sketch.</desc>
    <defs></defs>
    <g id="12.1-13-App-detail" stroke="none" stroke-width="1" fill="none" fill-rule="evenodd">
        <g id="12.4-App-Detail---Continuous-Monitoring" transform="translate(-743.000000, -4004.000000)" fill="#FFFFFF">
            <g id="---Feature-01" transform="translate(185.000000, 3218.000000)">
                <g id="::-list" transform="translate(0.000000, 313.000000)">
                    <g id="::-Icon:-Vulns" transform="translate(551.000000, 465.000000)">
                        <g id="Group-11" transform="translate(7.000000, 8.000000)">
                            <path d="M5.4619,19.0552 C1.3059,15.1652 1.3059,8.8362 5.4619,4.9462 C9.6179,1.0552 16.3819,1.0552 20.5379,4.9462 C24.6949,8.8362 24.6949,15.1652 20.5379,19.0552 C16.3819,22.9452 9.6179,22.9452 5.4619,19.0552 M22.0699,3.5112 C17.0689,-1.1708 8.9319,-1.1708 3.9299,3.5112 C-1.0721,8.1922 -1.0721,15.8082 3.9299,20.4892 C8.7599,25.0102 16.5139,25.1642 21.5449,20.9532 L22.5659,19.9972 C27.0669,15.2892 26.9009,8.0312 22.0699,3.5112" id="Fill-4"></path>
                            <path d="M13.0098,18.4053 C12.6208,18.4053 12.2828,18.2883 11.9928,18.0523 C11.7028,17.8173 11.5588,17.4883 11.5588,17.0653 C11.5588,16.6963 11.6968,16.3813 11.9738,16.1223 C12.2508,15.8633 12.5898,15.7343 12.9898,15.7343 C13.3918,15.7343 13.7338,15.8633 14.0168,16.1223 C14.2998,16.3813 14.4418,16.6963 14.4418,17.0653 C14.4418,17.4823 14.2988,17.8093 14.0128,18.0483 C13.7258,18.2863 13.3918,18.4053 13.0098,18.4053 M11.9498,12.5263 L11.6448,8.2463 C11.5868,7.4123 11.5588,6.8133 11.5588,6.4493 C11.5588,5.9553 11.6968,5.5693 11.9738,5.2933 C12.2508,5.0163 12.6148,4.8773 13.0668,4.8773 C13.6138,4.8773 13.9808,5.0543 14.1648,5.4093 C14.3498,5.7633 14.4418,6.2743 14.4418,6.9413 C14.4418,7.3343 14.4198,7.7333 14.3748,8.1383 L13.9648,12.5443 C13.9198,13.0683 13.8238,13.4703 13.6778,13.7503 C13.5318,14.0303 13.2898,14.1703 12.9518,14.1703 C12.6088,14.1703 12.3698,14.0353 12.2368,13.7633 C12.1028,13.4923 12.0078,13.0803 11.9498,12.5263" id="Fill-6"></path>
                        </g>
                    </g>
                </g>
            </g>
        </g>
    </g>
</svg>