<svg xmlns="http://www.w3.org/2000/svg" viewBox="0 0 87.8 87.8"><path d="M43.9 87.8C19.7 87.8 0 68.1 0 43.9S19.7 0 43.9 0s43.9 19.7 43.9 43.9-19.7 43.9-43.9 43.9zm0-84.5C21.5 3.3 3.3 21.5 3.3 43.9s18.2 40.6 40.6 40.6c22.4 0 40.6-18.2 40.6-40.6S66.3 3.3 43.9 3.3z"/><path d="M49.3 23.8c7.6 0 13.8 6.1 13.9 13.8 3.8 1.7 6.4 5.4 6.4 9.8 0 5.9-4.8 10.7-10.7 10.7h-30c-5.9 0-10.7-4.8-10.7-10.7 0-4.4 2.7-8.2 6.5-9.9 0-.3-.1-.6-.1-.9 0-3.5 2.9-6.4 6.4-6.4 2.1 0 4 1 5.2 2.6 2-5.3 7.1-9 13.1-9m0-2.7c-5.6 0-10.9 2.9-13.9 7.5-1.3-.7-2.8-1.1-4.3-1.1-4.8 0-8.7 3.7-9.1 8.4-4 2.4-6.5 6.7-6.5 11.5 0 7.4 6 13.4 13.4 13.4h30c7.4 0 13.4-6 13.4-13.4 0-4.8-2.5-9.1-6.5-11.5-1-8.3-8.1-14.8-16.5-14.8z"/><path d="M29.5 48.5c.5.3 6.1 3.8 14 3.7 6.4 0 10.3-2 10.7-2.1.9-.4 1.3.2.5.8 0 0-4.4 3.4-11.4 3.4s-11.1-3.1-14.1-5.4c-.4-.2-.1-.7.3-.4z"/><path d="M52.4 48.8c.4-.2 1.7-1 3.3-.9 1.6.1 2.1.2 1.9 1.2-.2 1.3-.6 2.9-1.9 4.1-.5.3-.4-.1-.3-.4.1-.3.8-2 .9-2.9 0-1-1-.7-1.5-.7s-1.9.1-2.2.2c-.3-.2-.5-.4-.2-.6zM36 43.2h-3.7v2.4h4.1v1.9H30v-10h6.2v1.9h-3.9v2.1H36v1.7zM48.2 47.2c-.4.2-1.4.4-2.6.4-3.5 0-5.2-2.2-5.2-5 0-3.4 2.4-5.3 5.5-5.3 1.2 0 2.1.2 2.5.4l-.5 1.8c-.4-.2-1.1-.4-1.9-.4-1.8 0-3.2 1.1-3.2 3.3 0 2 1.2 3.3 3.2 3.3.7 0 1.4-.1 1.9-.3l.3 1.8zM52.2 47.5v-2.1s1-.4 2-1.2c1.2-1 2.4-2.6 2.4-3.2 0-.8-.5-1.4-1.6-1.4-.8 0-1.6.4-2.1.8l-.6-1.6c.7-.5 1.9-1 3.1-1 2.2 0 3.4 1.3 3.4 3 0 1.5-1 2.7-2.3 3.9-.1.1.7-.4 2.5 1v1.9c-3-2.3-6.8-.1-6.8-.1z"/></svg>