<svg xmlns="http://www.w3.org/2000/svg" viewBox="0 0 56 64"><path fill="#ffffff" d="M30 28H9c-.6 0-1-.4-1-1V1c0-.6.4-1 1-1h38c.6 0 1 .4 1 1v15h-2V2H10v24h20v2z"/><path fill="#ffffff"  d="M12 12h2v2h-2zM12 8h2v2h-2zM16 6h2v8h-2zM20 12h2v2h-2zM24 6h2v8h-2zM30 6h2v8h-2zM34 6h2v2h-2zM38 6h2v2h-2zM34 10h2v2h-2zM38 12h2v4h-2zM42 6h2v8h-2zM34 14h2v6h-2zM12 16h2v8h-2zM16 22h2v2h-2zM26 22h2v2h-2zM30 20h2v2h-2zM30 16h2v2h-2zM16 16h2v2h-2zM22 16h2v8h-2zM50 1h2v3h-2zM4 1h2v3H4zM4 26h2v2H4zM44 64c-2.2 0-4-1.8-4-4V41h2v19c0 1.1.9 2 2 2s2-.9 2-2V41h2v19c0 2.2-1.8 4-4 4z"/><path fill="#ffffff" d="M44 42c-6.6 0-12-5.4-12-12s5.4-12 12-12 12 5.4 12 12-5.4 12-12 12zm0-22c-5.5 0-10 4.5-10 10s4.5 10 10 10 10-4.5 10-10-4.5-10-10-10zM8 40h14v2H8zM8 44h24v2H8zM8 48h24v2H8z"/><path fill="#ffffff" d="M36 58H1c-.6 0-1-.4-1-1V17c0-.6.4-1 1-1h3v2H2v38h34v2zM50 56h2v2h-2zM50 52h2v2h-2zM50 48h2v2h-2zM56 18h-2V2H2v10h2v2H1c-.6 0-1-.4-1-1V1c0-.6.4-1 1-1h54c.6 0 1 .4 1 1v17z"/><g><path fill="#ffffff" d="M38 30h-2c0-4.4 3.6-8 8-8v2c-3.3 0-6 2.7-6 6z"/></g></svg>