<svg width="56" height="62" viewBox="0 0 56 62" xmlns="http://www.w3.org/2000/svg" xmlns:xlink="http://www.w3.org/1999/xlink"><defs><path id="a" d="M0 .675h43v18.817H0z"/><path id="c" d="M0 .32h43v18.815H0z"/><path id="e" d="M0 .963h43V19.78H0z"/><path id="g" d="M0 .667h43V13.26H0z"/><path id="i" d="M.066.818H30.25V31H.066z"/></defs><g fill="none" fill-rule="evenodd"><path d="M21.5 51.825C8.799 51.825 1 48.74 1 46.529V35.008h41v11.52c0 2.212-7.8 5.297-20.5 5.297" fill="#FEFEFE"/><g transform="translate(0 33.333)"><mask id="b" fill="#fff"><use xlink:href="#a"/></mask><path d="M41 2.675l.002 10.502c-.277 1.188-6.695 4.315-19.502 4.315-12.806 0-19.224-3.127-19.5-4.296V2.675h39zm2-2H0v12.52c0 3.478 9.626 6.297 21.5 6.297S43 16.672 43 13.196V.675z" fill="#B5D0E7" mask="url(#b)"/></g><path d="M21.5 38.468C8.799 38.468 1 35.383 1 33.172v-11.52h41v11.52c0 2.211-7.8 5.296-20.5 5.296" fill="#FEFEFE"/><g transform="translate(0 20.333)"><mask id="d" fill="#fff"><use xlink:href="#c"/></mask><path d="M41 2.32l.002 10.501c-.277 1.187-6.695 4.314-19.502 4.314-12.806 0-19.224-3.127-19.5-4.295V2.32h39zm2-2H0v12.52c0 3.477 9.626 6.295 21.5 6.295S43 16.317 43 12.84V.32z" fill="#B5D0E7" mask="url(#d)"/></g><path d="M21.5 25.113C8.799 25.113 1 22.028 1 19.817V8.296h41v11.521c0 2.211-7.8 5.296-20.5 5.296" fill="#FEFEFE"/><g transform="translate(0 6.333)"><mask id="f" fill="#fff"><use xlink:href="#e"/></mask><path d="M41 2.963l.002 10.502c-.277 1.188-6.695 4.315-19.502 4.315-12.806 0-19.224-3.127-19.5-4.296V2.963h39zm2-2H0v12.52c0 3.478 9.626 6.297 21.5 6.297S43 16.96 43 13.484V.963z" fill="#B5D0E7" mask="url(#f)"/></g><path d="M21.5 12.591C8.799 12.591 1 9.508 1 7.296 1 5.083 8.799 2 21.5 2 34.2 2 42 5.085 42 7.295c0 2.212-7.8 5.296-20.5 5.296" fill="#FFF"/><g transform="translate(0 .333)"><mask id="h" fill="#fff"><use xlink:href="#g"/></mask><path d="M21.5 2.667c12.807 0 19.225 3.127 19.502 4.277-.277 1.188-6.695 4.316-19.502 4.316-12.806 0-19.224-3.128-19.502-4.278.278-1.188 6.696-4.315 19.502-4.315m0-2C9.626.667 0 3.486 0 6.963c0 3.477 9.626 6.297 21.5 6.297S43 10.44 43 6.963 33.374.667 21.5.667" fill="#B5D0E7" mask="url(#h)"/></g><path d="M15.28 19.167c1.97.175 4.058.269 6.22.269 3.336 0 6.497-.224 9.314-.623M15.28 31.688c1.97.175 4.058.268 6.22.268 3.336 0 6.497-.223 9.314-.622M15.28 45.044c1.97.175 4.058.269 6.22.269 3.336 0 6.497-.224 9.314-.623" stroke="#ED2E26" stroke-width="2" stroke-linecap="round" stroke-linejoin="round" stroke-dasharray="0,6.225"/><g transform="translate(25 30.333)"><mask id="j" fill="#fff"><use xlink:href="#i"/></mask><path d="M22.046 2.493a14.154 14.154 0 00-1.017-.488 14.57 14.57 0 00-1.012-.373A15.02 15.02 0 005.635 4.206a15.114 15.114 0 00-4.758 6.851 15.031 15.031 0 002.637 14.452c.233.282.485.549.739.814.258.271.527.526.806.776 2.67 2.413 6.196 3.896 10.078 3.901 8.334.013 15.1-6.736 15.112-15.069.009-5.858-3.33-10.93-8.203-13.438" fill="#ED3126" mask="url(#j)"/></g><path fill="#FFF200" d="M40.158 39.92v6.959"/><path stroke="#FFF" stroke-width="3.254" stroke-linecap="round" d="M40.158 39.92v6.959"/><path d="M41.785 52.773a1.628 1.628 0 11-3.256-.001 1.628 1.628 0 013.256.001" fill="#FFF"/></g></svg>