<svg id="Layer_1" xmlns="http://www.w3.org/2000/svg" viewBox="0 0 64 64"><style>.st1{fill:#b5d0e7}.st2{fill:#b5cfe5}.st3{fill:#fff}.st4{fill:#e8e9eb}</style><path d="M58.3 50.1H5.7c-2.2 0-3.9-1.8-3.9-3.9V15.1c0-2.2 1.8-3.9 3.9-3.9h52.6c2.2 0 3.9 1.8 3.9 3.9v31.1c0 2.1-1.8 3.9-3.9 3.9z" fill="#f7fafc"/><path class="st1" d="M58.3 51.1H5.7c-2.7 0-4.9-2.2-4.9-5v-31c0-2.7 2.2-5 4.9-5h52.6c2.7 0 5 2.2 5 5v31.1c-.1 2.7-2.3 4.9-5 4.9zm-52.6-39c-1.6 0-2.9 1.3-2.9 3v31.1c0 1.6 1.3 3 2.9 3h52.6c1.6 0 3-1.3 3-3V15.1c0-1.6-1.3-3-3-3H5.7z"/><path class="st2" d="M25.3 59.2h-.2c-.5-.1-.9-.6-.8-1.1l1.2-7.4c.1-.5.6-.9 1.1-.8.5.1.9.6.8 1.1l-1.2 7.4c.1.5-.4.8-.9.8zm13.3 0c-.5 0-.9-.4-1-.8L36.5 51c-.1-.5.3-1.1.8-1.1.5-.1 1.1.3 1.1.8l1.2 7.4c.1.5-.3 1.1-.8 1.1h-.2z"/><path class="st2" d="M44.3 59.9H19.7c-.6 0-1-.4-1-1s.4-1 1-1h24.6c.6 0 1 .4 1 1s-.5 1-1 1z"/><path class="st3" d="M24.7 45.5H8c-.7 0-1.2-.5-1.2-1.2V17.6c0-.7.5-1.2 1.2-1.2h16.7c.7 0 1.2.5 1.2 1.2v26.6c0 .8-.5 1.3-1.2 1.3z"/><path class="st4" d="M12.8 20.1H8.5c-.2 0-.4-.2-.4-.4s.2-.4.4-.4h4.3c.2 0 .4.2.4.4.1.2-.1.4-.4.4zm4.3 1.8H8.5c-.2 0-.4-.2-.4-.4s.2-.4.4-.4h8.6c.2 0 .4.2.4.4s-.2.4-.4.4z"/><path class="st1" d="M11.1 44H9.4c-.1 0-.2-.1-.2-.2V29.1c0-.1.1-.2.2-.2h1.8c.1 0 .2.1.2.2v14.8c-.1 0-.2.1-.3.1zm4.1 0h-1.7c-.1 0-.2-.1-.2-.2V25.3c0-.1.1-.2.2-.2h1.7c.1 0 .2.1.2.2v18.6s-.1.1-.2.1zm4.1 0h-1.8c-.1 0-.2-.1-.2-.2V31.6c0-.1.1-.2.2-.2h1.8c.1 0 .2.1.2.2v12.2c-.1.1-.1.2-.2.2zm4.1 0h-1.8c-.1 0-.1-.1-.1-.1v-9.8c0-.1.1-.1.1-.1h1.8c.1 0 .1.1.1.1v9.8l-.1.1z"/><g><path class="st3" d="M56 45.5H29.9c-.8 0-1.5-.7-1.5-1.5V17.9c0-.8.7-1.5 1.5-1.5H56c.8 0 1.5.7 1.5 1.5V44c0 .8-.7 1.5-1.5 1.5z"/><path class="st4" d="M40.5 20.1h-9.2c-.2 0-.4-.2-.4-.4s.2-.4.4-.4h9.2c.2 0 .4.2.4.4s-.2.4-.4.4zm-2 3.6h-7.3c-.2 0-.4-.2-.4-.4s.2-.4.4-.4h7.3c.2 0 .4.2.4.4.1.2-.1.4-.4.4zm8.4-1.8H31.2c-.2 0-.4-.2-.4-.4s.2-.4.4-.4h15.7c.2 0 .4.2.4.4s-.2.4-.4.4z"/><path d="M50.7 29.9c-1-1.8-2.5-3.2-4.4-4-1-.4-2.1-.6-3.3-.6-4.8 0-8.7 3.9-8.7 8.7s3.9 8.7 8.7 8.7c2.4 0 4.6-1 6.1-2.5.8-.8 1.4-1.7 1.8-2.6.5-1.1.7-2.3.7-3.5.1-1.6-.3-3-.9-4.2zM43 38c-2.2 0-4-1.8-4-4s1.8-4 4-4 4 1.8 4 4-1.8 4-4 4z" fill="#ed2e26"/><path class="st1" d="M46.5 32.1l4.2-2.2c-1-1.8-2.5-3.2-4.4-4l-1.8 4.4c.8.3 1.6.9 2 1.8z"/></g></svg>