
<svg width="32px" height="16px" viewBox="0 0 32 16" version="1.1" xmlns="http://www.w3.org/2000/svg" xmlns:xlink="http://www.w3.org/1999/xlink">
    <!-- Generator: Sketch 44.1 (41455) - http://www.bohemiancoding.com/sketch -->
    <desc>Created with Sketch.</desc>
    <defs></defs>
    <g id="12.1-13-App-detail" stroke="none" stroke-width="1" fill="none" fill-rule="evenodd">
        <g id="12.4-App-Detail---Continuous-Monitoring" transform="translate(-740.000000, -4115.000000)" fill="#FFFFFF">
            <g id="---Feature-01" transform="translate(185.000000, 3218.000000)">
                <g id="::-list" transform="translate(0.000000, 313.000000)">
                    <g id="::-Icon:-Tickets" transform="translate(551.000000, 572.000000)">
                        <g id="Group-12" transform="translate(4.000000, 12.000000)">
                            <polygon id="Fill-4" points="9.7314 10.1865 12.5854 10.1865 12.5854 11.1605 11.0054 11.1605 11.0054 12.6455 12.4894 12.6455 12.4894 13.5785 11.0054 13.5785 11.0054 15.9635 9.7314 15.9635"></polygon>
                            <polygon id="Fill-6" points="14.98 15.963 16.256 15.963 16.256 10.186 14.98 10.186"></polygon>
                            <path d="M21.2012,15.9634 L20.7932,14.9014 C20.6662,14.5684 20.5472,14.2384 20.4382,13.8724 L20.4112,13.8724 C20.3052,14.2384 20.2092,14.5904 20.1102,14.9184 L19.7612,15.9634 L18.4932,15.9634 L19.7192,13.0064 L18.5432,10.1864 L19.8662,10.1864 L20.2562,11.2584 C20.3532,11.5594 20.4522,11.8594 20.5472,12.1844 L20.5692,12.1844 C20.6752,11.8304 20.7622,11.5594 20.8512,11.2374 L21.1802,10.1864 L22.4552,10.1864 L21.2292,13.0584 L22.5262,15.9634 L21.2012,15.9634 Z" id="Fill-8"></path>
                            <polygon id="Fill-9" points="0 15.963 0.497 15.963 0.497 0.036 0 0.036"></polygon>
                            <polygon id="Fill-10" points="7.576 15.963 8.535 15.963 8.535 0.036 7.576 0.036"></polygon>
                            <polygon id="Fill-11" points="2.506 15.963 2.738 15.963 2.738 0.036 2.506 0.036"></polygon>
                            <polygon id="Fill-12" points="12.113 9.036 12.346 9.036 12.346 0.037 12.113 0.037"></polygon>
                            <polygon id="Fill-13" points="4.784 15.963 5.017 15.963 5.017 0.036 4.784 0.036"></polygon>
                            <polygon id="Fill-14" points="8.8 9.036 9.034 9.036 9.034 0.037 8.8 0.037"></polygon>
                            <polygon id="Fill-15" points="14.839 9.036 15.798 9.036 15.798 0.037 14.839 0.037"></polygon>
                            <polygon id="Fill-16" points="16.066 9.036 16.3 9.036 16.3 0.037 16.066 0.037"></polygon>
                            <polygon id="Fill-17" points="24.679 15.963 24.913 15.963 24.913 0.036 24.679 0.036"></polygon>
                            <polygon id="Fill-18" points="12.695 9.036 13.656 9.036 13.656 0.037 12.695 0.037"></polygon>
                            <polygon id="Fill-19" points="13.922 9.036 14.157 9.036 14.157 0.037 13.922 0.037"></polygon>
                            <polygon id="Fill-20" points="22.458 9.036 23.418 9.036 23.418 0.037 22.458 0.037"></polygon>
                            <polygon id="Fill-21" points="23.685 15.963 23.918 15.963 23.918 0.036 23.685 0.036"></polygon>
                            <polygon id="Fill-22" points="17.241 9.036 17.473 9.036 17.473 0.037 17.241 0.037"></polygon>
                            <polygon id="Fill-23" points="17.826 9.036 18.787 9.036 18.787 0.037 17.826 0.037"></polygon>
                            <polygon id="Fill-24" points="19.55 9.036 20.509 9.036 20.509 0.037 19.55 0.037"></polygon>
                            <polygon id="Fill-25" points="28.732 15.963 28.967 15.963 28.967 0.036 28.732 0.036"></polygon>
                            <polygon id="Fill-26" points="29.316 15.963 30.275 15.963 30.275 0.036 29.316 0.036"></polygon>
                            <polygon id="Fill-27" points="31.04 15.963 32 15.963 32 0.036 31.04 0.036"></polygon>
                            <polygon id="Fill-28" points="20.775 9.036 21.01 9.036 21.01 0.037 20.775 0.037"></polygon>
                            <polygon id="Fill-29" points="3.117 15.963 4.528 15.963 4.528 0.036 3.117 0.036"></polygon>
                            <polygon id="Fill-30" points="25.22 15.963 25.451 15.963 25.451 0.036 25.22 0.036"></polygon>
                            <polygon id="Fill-31" points="27.495 15.963 27.73 15.963 27.73 0.036 27.495 0.036"></polygon>
                            <polygon id="Fill-32" points="25.73 15.963 27.241 15.963 27.241 0.036 25.73 0.036"></polygon>
                            <polygon id="Fill-33" points="10.605 9.036 10.839 9.036 10.839 0.037 10.605 0.037"></polygon>
                            <polygon id="Fill-34" points="9.732 9.036 10.349 9.036 10.349 0.037 9.732 0.037"></polygon>
                            <polygon id="Fill-35" points="5.689 15.963 6.307 15.963 6.307 0.036 5.689 0.036"></polygon>
                        </g>
                    </g>
                </g>
            </g>
        </g>
    </g>
</svg>