<svg version="1.1" id="Layer_1" xmlns="http://www.w3.org/2000/svg" x="0" y="0" viewBox="0 0 64 64" xml:space="preserve"><style>.st0{fill:none;stroke:#b5d0e7;stroke-width:2;stroke-linecap:round;stroke-linejoin:round}</style><path transform="rotate(45.001 13.736 49.164)" class="st0" d="M2.7 44.7h22v9h-22z"/><path class="st0" d="M11.6 40.6l5.9-5.8s2.7-2.7 7-2.7c0 0 4-.2 5.9.9 0 0 2.3 1.9 4.9 1.9h6.8s2.8.2 2.8 3.3c0 0 .2 3.2-2.5 3.2H30.3"/><path class="st0" d="M22.4 51.4s1.1-1.6 2.6-1.6h16.8s3 .1 5.3-2.6l6.1-5.9s6.2-7.2 7.7-10.7c0 0 1.5-2.9-1.8-2.9 0 0-4-.8-8.4 4.3 0 0-3.5 4-6 4.6M24.5 16.9v9.6M29.3 21.7h-9.6M41.8 22.3v6.3M44.9 25.4h-6.2M46.5 3.9v12.2M52.6 10H40.4"/></svg>