<svg xmlns="http://www.w3.org/2000/svg" width="82" height="112"><g fill="none"><path fill="#B4CEE4" d="M51.5 30.137h28.167a2 2 0 0 1 2 2v72a7.472 7.472 0 0 1-7.47 7.472H7.47a7.471 7.471 0 0 1-7.47-7.471V7.47A7.471 7.471 0 0 1 7.47 0h42.03a2 2 0 0 1 2 2v28.137zm26.167 4H49.5a2 2 0 0 1-2-2V4H7.471a3.471 3.471 0 0 0-3.47 3.47v96.668a3.471 3.471 0 0 0 3.47 3.47h66.725a3.472 3.472 0 0 0 3.471-3.47v-70z"/><path fill="#ED3027" d="M18.833 89.275a3 3 0 0 1 0-6h44a3 3 0 0 1 0 6h-44zm0-17.667a3 3 0 0 1 0-6h44a3 3 0 0 1 0 6h-44zm0-17.667a3 3 0 0 1 0-6h44a3 3 0 0 1 0 6h-44z"/><path fill="#B4CEE4" d="M51.53 6.828v23.31h23.308L51.53 6.828zm28.137 27.31H49.53a2 2 0 0 1-2-2V2c0-1.782 2.154-2.675 3.414-1.415L81.08 30.723c1.26 1.26.367 3.415-1.414 3.415z"/></g></svg>