<svg xmlns="http://www.w3.org/2000/svg" width="54" height="49" viewBox="0 0 54 49"><g fill="none" fill-rule="evenodd"><path stroke="#B5D0E5" stroke-width="2" d="M2.677 48h48.646V27.857H2.677zM1 27.857h52V22.82H1z"/><path fill="#B5D0E5" d="M3.516 31.214h14.258c.464 0 .84.375.84.84 0 .464-.376.84-.84.84H3.516v-1.68zm0 11.75h14.258c.464 0 .84.375.84.84 0 .464-.376.84-.84.84H3.516v-1.68zm0-5.875h9.226c.464 0 .84.374.84.84 0 .463-.376.838-.84.838H3.516v-1.68zm46.968-5.876H36.226c-.464 0-.84.375-.84.84 0 .464.376.84.84.84h14.258v-1.68zm0 11.75H36.226c-.464 0-.84.375-.84.84 0 .464.376.84.84.84h14.258v-1.68zm0-5.875h-9.226c-.464 0-.84.374-.84.84 0 .463.376.838.84.838h9.226v-1.68z"/><path stroke="#B5D0E5" stroke-width="2" d="M1.84 19.464l1.676-7.553H14.42l1.677 7.554M8.968 1c2.084 0 3.774 1.69 3.774 3.777 0 2.085-1.69 3.777-3.774 3.777S5.194 6.862 5.194 4.777C5.194 2.69 6.884 1 8.968 1zM19.87 19.464l1.678-7.553h10.904l1.677 7.554M27 1c2.084 0 3.774 1.69 3.774 3.777 0 2.085-1.69 3.777-3.774 3.777s-3.774-1.692-3.774-3.777C23.226 2.69 24.916 1 27 1zM37.903 19.464l1.678-7.553h10.904l1.677 7.554M45.032 1c2.084 0 3.774 1.69 3.774 3.777 0 2.085-1.69 3.777-3.774 3.777s-3.774-1.692-3.774-3.777C41.258 2.69 42.948 1 45.032 1z"/></g></svg>