<svg width="63" height="69" viewBox="0 0 63 69" xmlns="http://www.w3.org/2000/svg" xmlns:xlink="http://www.w3.org/1999/xlink"><defs><path id="a" d="M.59.51h24.29V24.84H.59z"/></defs><g fill="none" fill-rule="evenodd"><path fill="#FFF" d="M9.607 59.244H51.41V1.128H9.607z"/><path stroke="#B5D0E5" stroke-width="2.258" stroke-linecap="round" stroke-linejoin="round" d="M9.607 59.244H51.41V1.128H9.607z"/><path fill="#FFF" d="M2 64.755h41.803V6.639H2z"/><path stroke="#B5D0E5" stroke-width="2.258" stroke-linecap="round" stroke-linejoin="round" d="M2 64.755h41.803V6.639H2z"/><path fill="#B5D0E5" d="M10.732 29.925h3.466V17.06h-3.466z"/><path stroke="#B5D0E5" stroke-width="1.694" stroke-linecap="round" stroke-linejoin="round" d="M10.732 29.925h3.466V17.06h-3.466z"/><path fill="#B5D0E5" d="M17.69 29.925h3.466V11.473h-3.467z"/><path stroke="#B5D0E5" stroke-width="1.694" stroke-linecap="round" stroke-linejoin="round" d="M17.69 29.925h3.466V11.473h-3.467z"/><path fill="#B5D0E5" d="M24.647 29.925h3.466V18.684h-3.466z"/><path stroke="#B5D0E5" stroke-width="1.694" stroke-linecap="round" stroke-linejoin="round" d="M24.647 29.925h3.466V18.684h-3.466z"/><path fill="#B5D0E5" d="M31.606 29.925h3.466V18.684h-3.466z"/><path stroke="#B5D0E5" stroke-width="1.694" stroke-linecap="round" stroke-linejoin="round" d="M31.606 29.925h3.466V18.684h-3.466z"/><path fill="#FFF" d="M7.563 44.042h8.332v-8.345H7.563z"/><path stroke="#B5D0E5" stroke-width="1.694" stroke-linecap="round" stroke-linejoin="round" d="M7.563 44.042h8.332v-8.345H7.563z"/><path d="M19.423 37.172h10.934-10.934z" fill="#FFF"/><path d="M19.422 37.172h10.935" stroke="#B5D0E5" stroke-width="1.694" stroke-linecap="round" stroke-linejoin="round"/><path d="M19.423 39.87h19.745-19.745z" fill="#FFF"/><path d="M19.422 39.87h19.746" stroke="#B5D0E5" stroke-width="1.694" stroke-linecap="round" stroke-linejoin="round"/><path d="M19.423 42.568h9.872-9.872z" fill="#FFF"/><path d="M19.422 42.568h9.873" stroke="#B5D0E5" stroke-width="1.694" stroke-linecap="round" stroke-linejoin="round"/><path fill="#FFF" d="M7.563 55.74h8.332v-8.345H7.563z"/><path stroke="#B5D0E5" stroke-width="1.694" stroke-linecap="round" stroke-linejoin="round" d="M7.563 55.74h8.332v-8.345H7.563z"/><path d="M19.423 48.869h7.462-7.462z" fill="#FFF"/><path d="M19.422 48.869h7.463" stroke="#B5D0E5" stroke-width="1.694" stroke-linecap="round" stroke-linejoin="round"/><path d="M19.423 51.567h19.745-19.745z" fill="#FFF"/><path d="M19.422 51.567h19.746" stroke="#B5D0E5" stroke-width="1.694" stroke-linecap="round" stroke-linejoin="round"/><path d="M19.423 54.265H33.78 19.423z" fill="#FFF"/><path d="M19.422 54.265H33.78" stroke="#B5D0E5" stroke-width="1.694" stroke-linecap="round" stroke-linejoin="round"/><g transform="translate(38.073 44.175)"><mask id="b" fill="#fff"><use xlink:href="#a"/></mask><path d="M.59 12.658C.6 5.94 6.046.502 12.752.51c6.708.01 12.139 5.463 12.129 12.182-.01 6.717-5.455 12.156-12.162 12.146C6.01 24.83.58 19.375.59 12.658" fill="#ED2E26" mask="url(#b)"/></g><path d="M50.809 51.567c4.795 0 6.85 5.325 6.85 5.325s-1.504 5.323-6.85 5.323c-5.347 0-6.85-5.323-6.85-5.323s2.054-5.325 6.85-5.325m0-1.654c-5.86 0-8.29 6.12-8.39 6.381-.131.335-.147.703-.05 1.047.638 2.258 3.223 6.528 8.44 6.528s7.8-4.27 8.439-6.528a1.648 1.648 0 00-.05-1.047c-.1-.26-2.53-6.381-8.39-6.381" fill="#FEFEFE"/><path d="M50.807 54.741a2.12 2.12 0 00-1.517.63 2.147 2.147 0 00-.587 1.948v.001a2.146 2.146 0 003.624 1.092 2.15 2.15 0 00-1.09-3.63 2.335 2.335 0 00-.43-.04m-.008 5.952a3.787 3.787 0 01-3.719-3.065 3.834 3.834 0 011.043-3.428 3.809 3.809 0 013.42-1.043 3.783 3.783 0 012.994 2.997 3.828 3.828 0 01-1.042 3.425 3.803 3.803 0 01-2.696 1.114" fill="#FEFEFE"/></g></svg>