<svg xmlns="http://www.w3.org/2000/svg" width="116" height="141"><g fill="none" fill-rule="evenodd"><path fill="#043470" d="M57.99.241c37.772 0 56.759 20.494 56.759 20.494s2.174 15.17.79 45.725c-2.09 46.152-57.537 73.87-57.537 73.87S2.551 112.612.462 66.46c-1.385-30.555.79-45.725.79-45.725S20.225.24 57.989.24"/><path fill="#1C2636" d="M20.79 91.784l-.327-53.505L.349 63.818c.035.868.1 1.746.112 2.642.568 39.994 47.711 68.09 47.711 68.09L96.82 93.37 20.79 91.784z"/><path fill="#F6F9FB" d="M84.738 43.995H47.503a2.383 2.383 0 0 1-2.376-2.376 2.383 2.383 0 0 1 2.376-2.377h37.235a2.383 2.383 0 0 1 2.377 2.377 2.384 2.384 0 0 1-2.377 2.376m-50.736-1.023a1.355 1.355 0 1 1 .001-2.71 1.355 1.355 0 0 1 0 2.71m-4.061 0a1.354 1.354 0 1 1 .001-2.71 1.354 1.354 0 0 1-.001 2.71m-4.06 0a1.354 1.354 0 1 1 0-2.71 1.354 1.354 0 0 1 0 2.71m66.184-6.214H23.934a4.767 4.767 0 0 0-4.753 4.753V93.37H96.82V41.511a4.767 4.767 0 0 0-4.754-4.753"/><path fill="#1C2636" d="M45.032 66.1c-.78-1.064-2.335-1.398-3.4-.618-1.064.78-1.398 2.335-.617 3.4L52.28 84.025l26.679-27.902c1.015-1.072.767-2.526.036-3.3-1.072-1.015-2.526-.767-3.3-.036l-22.57 23.908-8.093-10.595z"/></g></svg>