<svg xmlns="http://www.w3.org/2000/svg" viewBox="0 0 191.55 276.032"><path fill="#FF9A80" d="M133.533 20.044L98.69 34.99 69.683 14.948 104.525 0"/><path fill="#6E1115" d="M98.69 206.055l-29.007-20.04V14.946L98.69 34.99"/><path fill="#99BEEC" d="M98.69 116.797L69.683 96.755 0 126.648l29.01 20.043"/><path fill="#002E68" d="M29.01 235.948L0 215.906v-89.258l29.01 20.043"/><path fill="#DC2129" d="M98.69 206.055l34.843-14.947V20.044L98.69 34.99"/><path fill="#9ED79B" d="M162.542 91.186L127.7 106.133 98.69 86.09l34.843-14.947"/><path fill="#2F5E2C" d="M127.7 226.098l-29.01-20.043V86.09l29.01 20.043"/><path fill="#5DBC58" d="M127.7 226.098l34.842-14.948V91.186L127.7 106.133"/><path fill="#005CCF" d="M29.01 146.69v89.258l69.68-29.893v-89.258"/><path fill="#737373" d="M191.55 153.36l-34.84 14.948-29.01-20.045 34.842-14.947"/><path fill="#3F3F3F" d="M156.71 246.14l-29.01-20.042v-77.835l29.01 20.045"/><path fill="#505050" d="M156.71 246.14l34.84-14.947V153.36l-34.84 14.948"/><path fill="#006B9F" d="M58.017 255.99L29.01 235.95v-57.006l29.007 20.042"/><path fill="#008ED4" d="M58.017 255.99l34.842-14.946v-57.007l-34.843 14.947"/><path fill="#99D2EE" d="M127.7 169.09l-29.01-20.04-34.84 14.945-34.84 14.947 29.007 20.042 34.842-14.947 29.008 20.044 34.842-14.946"/><path fill="#006B9F" d="M121.868 261.087l-29.01-20.043v-57.007l29.01 20.044"/><path fill="#008ED4" d="M121.868 261.087l34.842-14.947v-57.006l-34.842 14.947"/><g><path fill="#D6D5C7" d="M121.868 232.594l-34.842 14.948-29.01-20.044L92.86 212.55"/><path fill="#757368" d="M87.026 276.032l-29.01-20.04v-28.494l29.01 20.044"/><path fill="#939185" d="M87.026 276.032l34.842-14.945v-28.493l-34.842 14.948"/></g></svg>