<svg xmlns="http://www.w3.org/2000/svg" viewBox="0 0 87.8 87.8"><path d="M43.9 87.8C19.7 87.8 0 68.1 0 43.9S19.7 0 43.9 0s43.9 19.7 43.9 43.9-19.7 43.9-43.9 43.9zm0-84.5C21.5 3.3 3.3 21.5 3.3 43.9s18.2 40.6 40.6 40.6c22.4 0 40.6-18.2 40.6-40.6S66.3 3.3 43.9 3.3z"/><path fill-rule="evenodd" clip-rule="evenodd" d="M30.7 24.4h7v4.7h-7v-4.7zm0 8.2h7v4.7h-7v-4.7zm0 8.3h7v4.7h-7v-4.7zm0 8.2h7v4.7h-7v-4.7zM40 24.4h7v4.7h-7v-4.7zm0 8.2h7v4.7h-7v-4.7zm0 8.3h7v4.7h-7v-4.7zm0 8.2h7v4.7h-7v-4.7zm9.3-24.7h7.1v4.7h-7.1v-4.7zm0 8.2h7.1v4.7h-7.1v-4.7zm0 8.3h7.1v4.7h-7.1v-4.7zm0 8.2h7.1v4.7h-7.1v-4.7zM28.2 20.3v47.2h10.5V58h9.4v9.4h10.5V20.3c0-.7-1-1.7-1.7-1.7h-27c-.7-.1-1.7 1-1.7 1.7m0 47.2V20.3v47.2zm-.1 0l.1-47.2"/></svg>