<svg xmlns="http://www.w3.org/2000/svg" viewBox="0 18 504 504"><path fill="#ffffff" d="M94.5 18h63v63h-63zM346.5 18h63v63h-63z"/><path fill="#ffffff" d="M472.5 49.5H441V81c0 17.4-14.1 31.5-31.5 31.5h-63c-17.4 0-31.5-14.1-31.5-31.5V49.5H189V81c0 17.4-14.1 31.5-31.5 31.5h-63C77.1 112.5 63 98.4 63 81V49.5H31.5C14.1 49.5 0 63.6 0 81v409.5C0 507.9 14.1 522 31.5 522h441c17.4 0 31.5-14.1 31.5-31.5V81c0-17.4-14.1-31.5-31.5-31.5zm-315 378h-63v-63h63v63zm0-126h-63v-63h63v63zm126 126h-63v-63h63v63zm0-126h-63v-63h63v63zm126 126h-63v-63h63v63zm0-126h-63v-63h63v63z"/></svg>