
<svg width="26px" height="24px" viewBox="0 0 26 24" version="1.1" xmlns="http://www.w3.org/2000/svg" xmlns:xlink="http://www.w3.org/1999/xlink">
    <!-- Generator: Sketch 44.1 (41455) - http://www.bohemiancoding.com/sketch -->
    <desc>Created with Sketch.</desc>
    <defs></defs>
    <g id="12.1-13-App-detail" stroke="none" stroke-width="1" fill="none" fill-rule="evenodd">
        <g id="12.4-App-Detail---Continuous-Monitoring" transform="translate(-744.000000, -4222.000000)" fill="#FFFFFF">
            <g id="---Feature-01" transform="translate(185.000000, 3218.000000)">
                <g id="::-list" transform="translate(0.000000, 313.000000)">
                    <g id="::-Icon:-Software" transform="translate(551.000000, 685.000000)">
                        <g id="Group-13" transform="translate(8.000000, 6.000000)">
                            <path d="M17.9902,18.3921 C16.5862,18.3921 15.4462,17.2531 15.4462,15.8491 C15.4462,14.4451 16.5862,13.3071 17.9902,13.3071 C19.3942,13.3071 20.5322,14.4451 20.5322,15.8491 C20.5322,17.2531 19.3942,18.3921 17.9902,18.3921 M17.9902,7.8391 C13.5652,7.8391 9.9782,11.4251 9.9782,15.8491 C9.9782,20.2731 13.5652,23.8601 17.9902,23.8601 C22.4142,23.8601 26.0002,20.2731 26.0002,15.8491 C26.0002,11.4251 22.4142,7.8391 17.9902,7.8391" id="Fill-4"></path>
                            <path d="M11.3574,21.3755 L5.9774,23.0665 L5.9774,0.7935 C5.9774,0.7935 14.6074,2.7555 16.2734,3.6155 C17.9394,4.4765 17.9344,5.5095 17.9344,7.2205 L17.9344,7.3775 C18.0734,7.3845 18.2114,7.3945 18.3484,7.4065 L18.3484,5.9405 C18.3484,4.6135 17.2694,3.2845 16.2734,3.0355 C15.2764,2.7865 5.3974,0.1405 5.3974,0.1405 L0.0004,2.0385 L0.0004,22.2385 L5.3974,23.8595 L11.7304,21.7555 C11.6024,21.6325 11.4774,21.5065 11.3574,21.3755" id="Fill-6"></path>
                        </g>
                    </g>
                </g>
            </g>
        </g>
    </g>
</svg>