
<svg width="26px" height="24px" viewBox="0 0 26 24" version="1.1" xmlns="http://www.w3.org/2000/svg" xmlns:xlink="http://www.w3.org/1999/xlink">
    <!-- Generator: Sketch 44.1 (41455) - http://www.bohemiancoding.com/sketch -->
    <desc>Created with Sketch.</desc>
    <defs></defs>
    <g id="12.1-13-App-detail" stroke="none" stroke-width="1" fill="none" fill-rule="evenodd">
        <g id="12.4-App-Detail---Continuous-Monitoring" transform="translate(-743.000000, -3753.000000)" fill="#FFFFFF">
            <g id="---Feature-01" transform="translate(185.000000, 3218.000000)">
                <g id="::-list" transform="translate(0.000000, 313.000000)">
                    <g id="::-Icon:-Certs" transform="translate(551.000000, 214.000000)">
                        <g id="Group-9" transform="translate(7.000000, 8.000000)">
                            <polygon id="Fill-4" points="3.163 5.413 14.951 5.413 14.951 4.467 3.163 4.467"></polygon>
                            <polygon id="Fill-6" points="18.03 8.182 22.15 8.182 22.15 4.349 18.03 4.349"></polygon>
                            <polygon id="Fill-7" points="3.163 7.936 14.951 7.936 14.951 6.99 3.163 6.99"></polygon>
                            <polygon id="Fill-8" points="3.163 10.685 22.151 10.685 22.151 9.739 3.163 9.739"></polygon>
                            <path d="M13.0225,11.6201 C13.1295,11.5821 13.2465,11.6421 13.3075,11.7301 C13.4655,11.9421 13.6205,12.1571 13.7755,12.3711 C13.9065,12.5521 14.1565,12.6371 14.3695,12.5701 C14.6365,12.4831 14.9025,12.3921 15.1705,12.3121 C15.3175,12.2691 15.4735,12.3841 15.4805,12.5351 C15.4855,12.8111 15.4875,13.0881 15.4855,13.3641 C15.4805,13.5841 15.6275,13.7951 15.8325,13.8721 C16.1045,13.9621 16.3785,14.0451 16.6495,14.1421 C16.7925,14.1931 16.8505,14.3791 16.7675,14.5041 C16.6095,14.7381 16.4375,14.9611 16.2735,15.1901 C16.1535,15.3601 16.1495,15.6031 16.2575,15.7801 C16.4235,16.0141 16.5985,16.2421 16.7615,16.4781 C16.8485,16.6011 16.8015,16.7891 16.6595,16.8481 C16.3905,16.9451 16.1165,17.0251 15.8455,17.1181 C15.6545,17.1831 15.5095,17.3671 15.4885,17.5661 C15.4835,17.8601 15.4855,18.1541 15.4815,18.4471 C15.4825,18.6031 15.3245,18.7281 15.1725,18.6851 C14.9035,18.6091 14.6395,18.5141 14.3725,18.4311 C14.1645,18.3611 13.9155,18.4421 13.7855,18.6181 C13.6185,18.8431 13.4575,19.0741 13.2875,19.2971 C13.1955,19.4191 12.9955,19.4211 12.9035,19.2981 C12.7325,19.0741 12.5715,18.8441 12.4025,18.6191 C12.2695,18.4381 12.0145,18.3611 11.8025,18.4361 C11.5465,18.5171 11.2925,18.6041 11.0355,18.6821 C10.8785,18.7381 10.7055,18.6131 10.7055,18.4491 C10.7025,18.1791 10.7035,17.9081 10.7045,17.6381 C10.7095,17.4121 10.5565,17.1941 10.3435,17.1201 C10.0795,17.0311 9.8105,16.9481 9.5445,16.8571 C9.3995,16.8101 9.3355,16.6201 9.4215,16.4931 C9.5775,16.2591 9.7515,16.0371 9.9135,15.8081 C10.0425,15.6301 10.0425,15.3711 9.9165,15.1931 C9.7515,14.9631 9.5835,14.7371 9.4215,14.5061 C9.3375,14.3791 9.3985,14.1931 9.5425,14.1421 C9.8055,14.0471 10.0755,13.9661 10.3425,13.8791 C10.5325,13.8141 10.6745,13.6331 10.7005,13.4351 C10.7105,13.1341 10.6965,12.8331 10.7085,12.5321 C10.7145,12.3811 10.8755,12.2731 11.0185,12.3151 C11.2885,12.3941 11.5525,12.4871 11.8215,12.5711 C12.0395,12.6401 12.2945,12.5461 12.4215,12.3581 C12.5625,12.1601 12.7085,11.9651 12.8495,11.7681 C12.8925,11.7041 12.9465,11.6421 13.0225,11.6201" id="Fill-9"></path>
                            <path d="M16.2441,18.5073 C17.1131,19.4053 17.9711,20.3153 18.8361,21.2183 C18.0971,21.2223 17.3581,21.2163 16.6201,21.2203 C16.6161,21.9593 16.6201,22.6973 16.6181,23.4363 C15.6101,22.3563 14.6011,21.2783 13.5961,20.1973 C13.7971,20.0383 13.9371,19.8233 14.0811,19.6153 C14.2521,19.6543 14.4131,19.7283 14.5841,19.7663 C14.9171,19.8413 15.2761,19.7903 15.5711,19.6183 C15.9671,19.3923 16.2131,18.9563 16.2441,18.5073" id="Fill-10"></path>
                            <path d="M25.3311,0.564 L0.6701,0.564 C0.3051,0.564 0.0001,0.869 0.0001,1.233 L0.0001,19.093 C0.0001,19.458 0.3051,19.763 0.6701,19.763 L6.6371,19.763 C6.8191,19.571 7.0021,19.379 7.1851,19.188 C7.4271,18.932 7.6721,18.679 7.9151,18.424 L1.3391,18.424 L1.3391,1.903 L24.6611,1.903 L24.6611,18.424 L17.9271,18.424 C18.1231,18.63 18.3211,18.835 18.5181,19.041 C18.7471,19.282 18.9771,19.522 19.2061,19.763 L25.3311,19.763 C25.5271,19.763 25.6781,19.691 25.7851,19.584 C25.7911,19.578 25.7971,19.571 25.8041,19.565 C25.8091,19.56 25.8151,19.553 25.8201,19.547 C25.9291,19.44 26.0001,19.291 26.0001,19.093 L26.0001,1.233 C26.0001,0.869 25.6951,0.564 25.3311,0.564" id="Fill-11"></path>
                            <path d="M7.0078,21.2183 C7.7768,20.4153 8.5348,19.6013 9.3118,18.8063 C9.4598,19.3713 10.0018,19.8023 10.5888,19.7993 C10.8778,19.8133 11.1448,19.6913 11.4158,19.6143 C11.6098,19.8873 11.8058,20.1743 12.1098,20.3353 C11.1488,21.3693 10.1868,22.4023 9.2258,23.4363 C9.2228,22.6973 9.2278,21.9593 9.2238,21.2203 C8.4848,21.2163 7.7468,21.2223 7.0078,21.2183" id="Fill-12"></path>
                        </g>
                    </g>
                </g>
            </g>
        </g>
    </g>
</svg>