<svg xmlns="http://www.w3.org/2000/svg" width="58" height="92" viewBox="0 0 58 92"><path fill="none" stroke="#0F4B84" stroke-width="3" stroke-miterlimit="10" d="M52.8 75H50c1 0 1.9-.8 1.9-1.9 0-1-.8-1.9-1.9-1.9h-1.4c-.3-3.5.3-6.5 1-9.1.9-3.5 3.9-12 4.4-13.7.5-1.8 4.1-10.6-.8-23.7C48.3 11.6 35.1 9 35.1 9l-5.8-5.4V9c-3.6.5-5 1.4-5 1.4l.9 3.4-8.1 2.2-.5 3.4L3.1 32c.9 3.1-1 5.7-1 5.7l3.1 3.6c.8-.2 2.3.4 2.3.4 2.7 1.2 7 0 9.1-2.5 2.1-2.5 4.7-1.9 7.6-.7 2.9 1.2 8.5-.2 8.5-.2S21.2 49.9 17.2 58.6c-2.2 4.8-2.2 9.5-1.7 12.6h-1.8c-1 0-1.9.8-1.9 1.9 0 1 .8 1.9 1.9 1.9H11c-2 0-3.5 1.6-3.5 3.6v8.1c0 2 1.6 3.6 3.5 3.6h12.8c.1-.6-1-.7-1.2-1.2-.2-.6-.1-1.3.2-1.8.2-.3.5-.7.7-1 .1-.1.1-.2.2-.3l-.3-.3-.6-.9c-.4-.6-.4-1.2-.2-1.8.2-.6.7-1.1 1.2-1.3.4-.2.9-.3 1.3-.4l.2-.1v-.5-1c.1-1.1.9-1.9 2-1.9.2 0 .4 0 .6.1.4.1.7.2 1.1.3.1 0 .3.1.4.1.1-.2.3-.4.4-.6l.3-.5c.1-.1.4-.7 1.1-.9.8-.3 1.8.1 2.3.8.2.3.5.6.7 1l.1.2.2-.1c.4-.1.8-.3 1.2-.4 1.3-.4 2.5.6 2.6 1.9v1.6l.2.1c.4.1.8.3 1.2.4.6.2 1 .7 1.2 1.3.2.6.1 1.3-.2 1.8-.2.3-.5.7-.7 1 0-.1 0 0-.1.1.1.1.2.2.2.3l.6.9c.3.5.5 1.1.3 1.7-.2.6-.6 1.1-1.2 1.3h-.1 13.1c2 0 3.5-1.6 3.5-3.6v-8.1c.1-1.9-1.5-3.5-3.5-3.5z"/></svg>