<svg width="84" height="84" viewBox="0 0 84 84" xmlns="http://www.w3.org/2000/svg" xmlns:xlink="http://www.w3.org/1999/xlink"><defs><path id="a" d="M15 15.931H68.07V69H15z"/></defs><g fill="none" fill-rule="evenodd"><g transform="translate(0 -.966)"><circle fill="#2E8BE0" cx="42" cy="42.966" r="42"/><mask id="b" fill="#fff"><use xlink:href="#a"/></mask><path d="M41.542 17.406c-5.96 0-11.92.59-17.842 1.774-2.396.505-4.948 3.058-5.453 5.467A90.434 90.434 0 0018.25 60.3c.505 2.397 3.059 4.948 5.465 5.453a90.96 90.96 0 0035.648-.002c2.402-.505 4.956-3.056 5.46-5.464a90.48 90.48 0 00-.002-35.656c-.504-2.397-3.058-4.948-5.464-5.455a90.795 90.795 0 00-17.814-1.77M41.534 69a92.468 92.468 0 01-18.117-1.803c-3.017-.633-5.98-3.593-6.612-6.602a91.968 91.968 0 01-.004-36.245c.635-3.017 3.595-5.981 6.604-6.614a91.931 91.931 0 0136.245-.002c3.02.633 5.982 3.593 6.612 6.602a91.895 91.895 0 01.004 36.245c-.632 3.021-3.597 5.983-6.602 6.614A92.548 92.548 0 0141.534 69" fill="#FFF" mask="url(#b)"/></g><path d="M34.335 47.38l4.946-13.419h-2.953s-2.453 7.036-3.335 9.969h-.039c-.9-2.933-3.354-9.969-3.354-9.969h-3.087l4.889 13.42h2.933zm9.24 0v-9.642h.057c.729 2.396 2.454 7.534 3.202 9.642h2.684c.575-1.629 2.453-7.246 3.22-9.642h.058v9.642h2.645V33.961h-4.006s-2.8 8.665-3.183 9.988c-.402-1.323-3.297-9.988-3.297-9.988H40.93v13.42h2.646z" fill="#FFF" fill-rule="nonzero"/></g></svg>