<svg width="84" height="84" viewBox="0 0 84 84" xmlns="http://www.w3.org/2000/svg" xmlns:xlink="http://www.w3.org/1999/xlink"><defs><path id="a" d="M15 20.506h54.536v35.769H15z"/><path id="c" d="M.01.055h23.183v1.778H.011z"/></defs><g fill="none" fill-rule="evenodd"><g transform="translate(0 -.672)"><circle fill="#2E8BE0" cx="42" cy="42.672" r="42"/><mask id="b" fill="#fff"><use xlink:href="#a"/></mask><path d="M19.311 22.23a2.59 2.59 0 00-2.586 2.586v27.148a2.59 2.59 0 002.586 2.587h45.913a2.591 2.591 0 002.588-2.587V24.816a2.591 2.591 0 00-2.588-2.586H19.31zm45.913 34.045H19.31A4.316 4.316 0 0115 51.965V24.815a4.315 4.315 0 014.312-4.31h45.913a4.315 4.315 0 014.312 4.31v27.148a4.316 4.316 0 01-4.312 4.31z" fill="#FFF" mask="url(#b)"/><path d="M36.47 63.36a.864.864 0 01-.853-.995l1.014-6.446a.863.863 0 011.703.268l-1.014 6.446a.863.863 0 01-.85.728M48.067 63.36a.862.862 0 01-.851-.727l-1.014-6.446a.863.863 0 011.703-.268l1.014 6.446a.862.862 0 01-.852.996" fill="#FFF"/><path d="M52.996 64H31.54a.86.86 0 110-1.724h21.457a.862.862 0 110 1.724" fill="#FFF"/></g><use fill="#FFF" xlink:href="#c" transform="translate(30.667 61.495)"/><path fill="#FFF" d="M43.12 47.967l2.37-4.522 7.322 7.29 2.4-2.399-7.323-7.322 4.552-2.369-12.859-3.63zM36.537 32.77a.86.86 0 01-.61-.253l-2.492-2.492a.86.86 0 111.22-1.22l2.492 2.493a.864.864 0 01-.61 1.472M39.982 32.585a.862.862 0 01-.862-.863v-6.307a.862.862 0 011.724 0v6.307a.862.862 0 01-.862.863M36.29 36.185h-6.306a.864.864 0 010-1.725h6.306a.862.862 0 010 1.725M43.305 32.8a.862.862 0 01-.61-1.472l2.491-2.491a.863.863 0 011.221 1.219l-2.491 2.491a.862.862 0 01-.611.253M33.983 42.123a.862.862 0 01-.61-1.472l2.493-2.492a.86.86 0 111.219 1.22l-2.492 2.49a.86.86 0 01-.61.254"/></g></svg>