<svg xmlns="http://www.w3.org/2000/svg" width="65" height="70" viewBox="0 0 65 70"><path fill="#8EB1D9" d="M57 24.5L30.9 49.7l-3.2 3.1-1 5 5.2-1 .9-.8 2.3-2.2 26.1-25.2M62.5 27.4l2.1-2c.6-.6.6-1.5 0-2l-2.1-2c-.6-.6-1.5-.6-2.1 0l-2.1 2 4.2 4zM34.6 12.9l-.9-2.7c.5-.9.8-2 .8-3.1 0-3.9-3.3-7-7.3-7s-7.3 3.2-7.3 7c0 1.1.3 2.2.8 3.1l-.9 2.7-1.6 6.3H36l-1.4-6.3zm-7.2-2.7c-1.7 0-3.2-1.4-3.2-3.1 0-1.7 1.4-3.1 3.2-3.1s3.2 1.4 3.2 3.1c-.1 1.7-1.5 3.1-3.2 3.1zM24.2 27.7h17.7v2.8H24.2zM24.2 32h17.7v2.8H24.2zM17.5 49.6h-6.9c-.3 0-.6.1-.8.2-.7.3-1.3 1-1.3 1.8v6.6c0 1.1.9 2 2.1 2H17.5c1.1 0 2.1-.9 2.1-2V51.6c-.1-1.1-1-2-2.1-2zm.7 6.6v2c0 .4-.3.7-.7.7h-6.9c-.1 0-.2 0-.3-.1-.2-.1-.3-.3-.3-.6v-6.6-.2c.1-.3.3-.5.6-.5h6.9c.4 0 .7.3.7.7V56.2zM17.5 23.6h-6.9c-.3 0-.6.1-.8.2-.7.3-1.3 1-1.3 1.8v6.6c0 1.1.9 2 2.1 2H17.5c1.1 0 2.1-.9 2.1-2V25.6c-.1-1.1-1-2-2.1-2zm.7 6.6v2c0 .4-.3.7-.7.7h-6.9c-.1 0-.2 0-.3-.1-.2-.1-.3-.3-.3-.6v-6.6-.2c.1-.3.3-.5.6-.5h6.9c.4 0 .7.3.7.7V30.2zM14.5 44.6c-.3 0-.5-.1-.7-.3l-2.6-2.5c-.4-.4-.4-1 0-1.4.4-.4 1.1-.4 1.5 0l1.7 1.6 4.4-6.3c.3-.5 1-.6 1.4-.3.5.3.6.9.3 1.4l-5.1 7.3c-.2.3-.5.5-.9.5.1 0 .1 0 0 0z"/><path fill="#8EB1D9" d="M18.2 42.5v2.9c0 .4-.3.7-.7.7h-6.9c-.4 0-.7-.3-.7-.7v-6.6c0-.4.3-.7.7-.7h4.8l.9-1.3h-5.7c-1.1 0-2.1.9-2.1 2v6.6c0 1.1.9 2 2.1 2h6.9c1.1 0 2.1-.9 2.1-2v-4.9l-1.4 2z"/><g fill="#8EB1D9"><path d="M37.2 15.5h9.5c1.3 0 2.3 1 2.3 2.2v11.4l5.3-5.1v-6.3c0-4-3.4-7.3-7.6-7.3H36.5c-.1.4-.2.8-.3 1.1l.6 2.1.4 1.9zM49 43.5v19.2c0 1.2-1 2.2-2.3 2.2H7.6c-1.3 0-2.3-1-2.3-2.2V17.8c0-1.2 1-2.2 2.3-2.2h9.5l.5-1.9.6-2c-.1-.4-.3-.7-.4-1.1H7.6c-4.2 0-7.6 3.3-7.6 7.3v44.9c0 4 3.4 7.3 7.6 7.3h39.1c4.2 0 7.6-3.3 7.6-7.3V38.4L49 43.5z"/></g></svg>