<svg width="56" height="33" viewBox="0 0 56 33" xmlns="http://www.w3.org/2000/svg"><g fill="none" fill-rule="evenodd"><path d="M46.045 14.169c-.41 0-.811.037-1.205.09-.83-3.453-3.93-6.023-7.636-6.023a7.83 7.83 0 00-3.591.873C31.688 3.811 26.665 0 20.7 0 13.079 0 6.9 6.178 6.9 13.799c0 .107.03.208.032.316C2.955 15.13 0 18.705 0 23.001c0 .06.009.118.009.177 0 .067-.009.132-.009.2 0 4.174 2.783 7.692 6.588 8.821h42.076c3.807-1.129 6.588-4.647 6.588-8.821a9.206 9.206 0 00-9.207-9.209" fill="#2E8BE0"/><path fill="#FFF" d="M24 15l8 5-8 5z"/></g></svg>