<svg width="54" height="47" viewBox="0 0 54 47" xmlns="http://www.w3.org/2000/svg"><g fill="none" fill-rule="evenodd" stroke-linejoin="round"><path d="M44.014 13.979c-.384 0-.758.033-1.127.082-.774-3.162-3.67-5.515-7.134-5.515a7.428 7.428 0 00-3.352.798A12.835 12.835 0 0020.337 1C13.217 1 7.446 6.66 7.446 13.64c0 .099.028.19.029.289C3.76 14.859 1 18.134 1 22.067c0 .057.008.108.009.164-.001.06-.01.12-.01.183 0 3.822 2.602 7.045 6.156 8.08h39.304c3.558-1.035 6.155-4.258 6.155-8.08 0-4.662-3.851-8.435-8.6-8.435zM13.283 14.635c1.934-3.836 4.95-5.762 9.048-5.776" stroke="#B5D0E7" stroke-width="2" stroke-linecap="round"/><path d="M26.813 29.841v9.929M26.813 39.833a3.002 3.002 0 110 6.004 3.002 3.002 0 010-6.004zM15.808 35.844a3.002 3.002 0 110 6.003 3.002 3.002 0 010-6.003zM37.806 35.844a3.002 3.002 0 11-.001 6.003 3.002 3.002 0 010-6.003zM27.814 29.841l7.99 7.003M25.813 29.841l-8.004 7.003" stroke="#B5D0E5" stroke-width="1.4"/></g></svg>