<svg xmlns="http://www.w3.org/2000/svg" data-name="Layer 1" viewBox="0 0 67.83 65"><path fill="none" stroke="#b5d0e7" stroke-width="2" d="M55.92 19.89a9.71 9.71 0 00-1.31.1 8.52 8.52 0 00-12.19-5.59 14.94 14.94 0 00-29 5.09v.34a10 10 0 00-7.53 9.65v.41a10 10 0 007.16 9.58h45.71a10 10 0 00-2.84-19.58z" stroke-linecap="round" stroke-linejoin="round"/><path fill="#2face1" d="M42.13 44.75v6.19C39.06 54.36 29.6 54 28.77 58.68c-.1.56.17 3.7.17 3.7h34.62a36.71 36.71 0 00.17-3.7c-.82-4.62-10.17-4.33-13.29-7.67v-6.26z"/><path fill="none" stroke="#fefefe" stroke-width="2" d="M42.13 44.75v6.19C39.06 54.36 29.6 54 28.77 58.68c-.1.56.17 3.7.17 3.7h34.62a36.71 36.71 0 00.17-3.7c-.82-4.62-10.17-4.33-13.29-7.67v-6.26z" stroke-linecap="round" stroke-linejoin="round"/><path fill="#2face1" d="M53.17 41.3l.17-2c.41-4.72-2.74-9-7.08-9s-7.52 4.21-7.14 8.93l.16 2c.39 4.91 3.57 8.43 6.92 8.44s6.55-3.49 7-8.4"/><path fill="none" stroke="#fefefe" stroke-width="2" d="M53.17 41.3l.17-2c.41-4.72-2.74-9-7.08-9s-7.52 4.21-7.14 8.93l.16 2c.39 4.91 3.57 8.43 6.92 8.44s6.55-3.49 7-8.4z"/></svg>