
<svg width="82px" height="67px" viewBox="0 0 82 67" version="1.1" xmlns="http://www.w3.org/2000/svg" xmlns:xlink="http://www.w3.org/1999/xlink">
    <!-- Generator: Sketch 44.1 (41455) - http://www.bohemiancoding.com/sketch -->
    <desc>Created with Sketch.</desc>
    <defs>
        <polygon id="path-1" points="32.2938065 32.3218176 0.100258065 32.3218176 0.100258065 0.0663243697 32.2938065 0.0663243697 32.2938065 32.3218176"></polygon>
    </defs>
    <g id="12.1-13-App-detail" stroke="none" stroke-width="1" fill="none" fill-rule="evenodd">
        <g id="13-App-Detail---WAF" transform="translate(-736.000000, -1404.000000)">
            <g id="---Features-overview" transform="translate(185.000000, 1290.000000)">
                <g id="::-02" transform="translate(550.000000, 115.000000)">
                    <g id="icon" transform="translate(2.000000, 0.000000)">
                        <path d="M66.6708387,20.1556269 C66.076,20.1556269 65.4966452,20.2086347 64.9237419,20.2836213 C63.7237419,15.3719979 59.2347097,11.7183396 53.8669677,11.7183396 C51.9934194,11.7183396 50.2295484,12.1708451 48.6695484,12.9594974 C45.8811613,5.42204955 38.6101935,-0.000258574541 29.9727742,-0.000258574541 C18.9379355,-0.000258574541 9.99083871,8.78869007 9.99083871,19.6320134 C9.99083871,19.7832796 10.0334194,19.9242027 10.036,20.0780545 C4.27858065,21.5234862 -0.000129032258,26.6096474 -0.000129032258,32.7171781 C-0.000129032258,32.8050934 0.0127741935,32.8865444 0.0140645161,32.971874 C0.0127741935,33.0662537 -0.000129032258,33.1593406 -0.000129032258,33.2550131 C-0.000129032258,39.1918846 4.03083871,44.1978877 9.53922581,45.8036356 L70.4618065,45.8036356 C75.9740645,44.1978877 79.999871,39.1918846 79.999871,33.2550131 C79.999871,26.0175117 74.0308387,20.1556269 66.6708387,20.1556269 Z" id="Stroke-1" stroke="#B5D0E6" stroke-width="2" stroke-linecap="round" stroke-linejoin="round"></path>
                        <g id="Group-5" transform="translate(23.225806, 33.259280)">
                            <mask id="mask-2" fill="white">
                                <use xlink:href="#path-1"></use>
                            </mask>
                            <g id="Clip-4"></g>
                            <path d="M16.1970323,0.0663243697 C25.0873548,0.0663243697 32.2938065,7.28701843 32.2938065,16.1936185 C32.2938065,25.1015114 25.0873548,32.3222055 16.1970323,32.3222055 C7.308,32.3222055 0.100258065,25.1015114 0.100258065,16.1936185 C0.100258065,7.28701843 7.308,0.0663243697 16.1970323,0.0663243697" id="Fill-3" fill="#ED2E26" mask="url(#mask-2)"></path>
                        </g>
                        <path d="M39.5047742,42.6654457 C43.3589677,42.6654457 46.484129,45.9751998 46.484129,50.0580918 C46.484129,54.1396909 43.3589677,57.4494451 39.5047742,57.4494451 C35.6505806,57.4494451 32.5254194,54.1396909 32.5254194,50.0580918 C32.5254194,45.9751998 35.6505806,42.6654457 39.5047742,42.6654457 Z" id="Stroke-6" stroke="#FFFFFF" stroke-width="2"></path>
                        <polygon id="Fill-8" fill="#ED2E26" points="27.1472258 50.0451631 32.807871 44.3746234 38.164 49.7400451"></polygon>
                        <polygon id="Fill-10" fill="#FFFFFF" points="29.7543226 51.3304078 32.7349677 48.342579 35.5556129 51.1687988"></polygon>
                        <polygon id="Fill-12" fill="#ED2E26" points="39.8727742 49.7471559 46.4624516 56.3511497 52.696 50.1039888"></polygon>
                        <polygon id="Fill-14" fill="#FFFFFF" points="42.9082581 48.2523365 46.3779355 51.7288712 49.6618065 48.4410959"></polygon>
                        <path d="M18.256,18.1652494 C21.2547097,12.2076919 25.9282581,9.21727737 32.2818065,9.19400566" id="Stroke-16" stroke="#B5D0E7" stroke-width="2" stroke-linecap="round" stroke-linejoin="round"></path>
                    </g>
                </g>
            </g>
        </g>
    </g>
</svg>