<svg xmlns="http://www.w3.org/2000/svg" width="32" height="32"><g fill="none" fill-rule="evenodd"><path fill="#2E8BE0" d="M13.827 15.13v3.2c-1.584 1.771-6.48 1.597-6.907 4.007-.05.292.086 1.914.086 1.914h17.91s.136-1.622.086-1.914c-.423-2.391-5.258-2.238-6.873-3.97V15.13h-4.302z"/><path stroke="#FEFEFE" stroke-linecap="round" stroke-linejoin="round" stroke-width="2" d="M13.827 15.13v3.2c-1.584 1.771-6.48 1.597-6.907 4.007-.05.292.086 1.914.086 1.914h17.91s.136-1.622.086-1.914c-.423-2.391-5.258-2.238-6.873-3.97V15.13h-4.302z"/><path fill="#2E8BE0" d="M19.537 13.347l.09-1.03c.213-2.443-1.417-4.638-3.663-4.646-2.246-.006-3.891 2.177-3.695 4.622.028.332.083 1.03.083 1.03.204 2.54 1.845 4.361 3.578 4.367 1.735.005 3.387-1.804 3.607-4.343"/><path stroke="#FEFEFE" stroke-width="2" d="M19.537 13.347l.09-1.03c.213-2.443-1.417-4.638-3.663-4.646-2.246-.006-3.891 2.177-3.695 4.622.028.332.083 1.03.083 1.03.204 2.54 1.845 4.361 3.578 4.367 1.735.005 3.387-1.804 3.607-4.343z"/><path stroke="#B5D0E7" stroke-linecap="round" stroke-linejoin="round" stroke-width="2" d="M29.747 10.137a14.914 14.914 0 0 1 1.175 5.825c0 8.262-6.698 14.96-14.96 14.96C7.698 30.923 1 24.225 1 15.963 1 7.698 7.698 1 15.962 1c4.13 0 7.871 1.674 10.579 4.382"/><path stroke="#B5D0E7" stroke-linecap="round" stroke-linejoin="round" stroke-width="2" d="M22.821 5.382h3.719l-.863-3.856"/></g></svg>