<svg xmlns="http://www.w3.org/2000/svg" data-name="Layer 2" viewBox="0 0 67.83 65"><path fill="#fefefe" d="M16.14 23.32H22v-5.86h-5.86"/><path fill="none" stroke="#b5d0e7" stroke-width="2" d="M16.14 23.32H22v-5.86h-5.86z" stroke-linecap="round" stroke-linejoin="round"/><path fill="#fefefe" d="M16.14 36.28H22v-5.86h-5.86"/><path fill="none" stroke="#b5d0e7" stroke-width="2" d="M16.14 36.28H22v-5.86h-5.86z" stroke-linecap="round" stroke-linejoin="round"/><path fill="#fefefe" d="M16.14 49.24H22v-5.85h-5.86"/><path fill="none" stroke="#b5d0e7" stroke-width="2" d="M16.14 49.24H22v-5.85h-5.86z" stroke-linecap="round" stroke-linejoin="round"/><path fill="none" stroke="#b5d0e7" stroke-width="2" d="M8.95 57.26H47V9.46H8.95zm31.6-36.87H29.2m11.34 13H29.2m11.34 13H29.2" stroke-linecap="round" stroke-linejoin="round"/><path fill="#fefefe" d="M35.09 6.22L32 3.09a2.85 2.85 0 00-2-.83h-4.8a2.84 2.84 0 00-2 .83l-3.13 3.13a4.69 4.69 0 00-4.69 4.69v1h24.4v-1a4.69 4.69 0 00-4.69-4.69z"/><path fill="none" stroke="#b5d0e7" stroke-width="2" d="M35.09 6.22L32 3.09a2.85 2.85 0 00-2-.83h-4.8a2.84 2.84 0 00-2 .83l-3.13 3.13a4.69 4.69 0 00-4.69 4.69v1h24.4v-1a4.69 4.69 0 00-4.69-4.69z" stroke-linecap="round" stroke-linejoin="round"/><path fill="#ED2E26" d="M42.28 44.75v6.19c-3.06 3.42-12.53 3.06-13.35 7.74-.1.56.17 3.7.17 3.7h34.62a36.71 36.71 0 00.17-3.7c-.82-4.62-10.17-4.33-13.29-7.68v-6.25h-8.32z"/><path fill="none" stroke="#fefefe" stroke-width="2" d="M42.28 44.75v6.19c-3.06 3.42-12.53 3.06-13.35 7.74-.1.56.17 3.7.17 3.7h34.62a36.71 36.71 0 00.17-3.7c-.82-4.62-10.17-4.33-13.29-7.68v-6.25h-8.32z" stroke-linecap="round" stroke-linejoin="round"/><path fill="#ED2E26" d="M53.32 41.3l.17-2c.41-4.72-2.74-9-7.08-9s-7.52 4.21-7.14 8.93c0 .64.16 2 .16 2 .39 4.91 3.56 8.43 6.92 8.44s6.55-3.49 7-8.4"/><path fill="none" stroke="#fefefe" stroke-width="2" d="M53.32 41.3l.17-2c.41-4.72-2.74-9-7.08-9s-7.52 4.21-7.14 8.93c0 .64.16 2 .16 2 .39 4.91 3.56 8.43 6.92 8.44s6.55-3.49 7-8.4z"/></svg>