<svg xmlns="http://www.w3.org/2000/svg" viewBox="0 0 87.8 87.8"><path d="M43.9 87.8C19.7 87.8 0 68.1 0 43.9S19.7 0 43.9 0s43.9 19.7 43.9 43.9-19.7 43.9-43.9 43.9zm0-84.5C21.5 3.3 3.3 21.5 3.3 43.9s18.2 40.6 40.6 40.6c22.4 0 40.6-18.2 40.6-40.6S66.3 3.3 43.9 3.3z"/><path d="M46.5 53.1h-7v-4.4h15.2c1.4 0 1.4-1.6 1.4-1.6V26.6c0-.8-.6-1.4-1.4-1.4H19.8c-.8 0-1.4.6-1.4 1.4v20.6c0 .8.7 1.4 1.4 1.4h15.1V53H28c-.3 0-.5.3-.5.6v3.3c0 .3.2.5.5.5h18.5c.3 0 .5-.2.5-.5v-3.3c0-.3-.2-.5-.5-.5zM21 45.5V28.4h32.5v17.1H21zM67.6 35.7h-7.2c-1 0-1.9.9-1.9 1.9v19c0 1 .9 1.9 1.9 1.9h7.2c1 0 1.9-.9 1.9-1.9v-19c0-1-.9-1.9-1.9-1.9zM64 55.5c-.7 0-1.3-.6-1.3-1.3 0-.7.6-1.3 1.3-1.3.7 0 1.3.6 1.3 1.3 0 .7-.6 1.3-1.3 1.3zm3.7-13h-7.5v-1.2h7.5v1.2zm0-2.7h-7.5v-1.2h7.5v1.2z"/></svg>