<svg xmlns="http://www.w3.org/2000/svg" width="64" height="64" viewBox="0 0 64 64"><g fill="none" fill-rule="evenodd"><path d="M50.92 47.157l-1.372 7.425A29.815 29.815 0 0133.91 60.86a8.793 8.793 0 00-1.77-2.505 8.611 8.611 0 00-3.645-2.138 6.176 6.176 0 01-2.745-1.657 6.313 6.313 0 01-1.552-2.805 8.161 8.161 0 013.547-8.866l.27-.165c1.148-.735 1.2-2.4.098-3.195l-6.233-4.5a40.874 40.874 0 01-9.045-8.97l-1.463-1.995a14.287 14.287 0 01-2.767-8.453v-4.56C14.095 4.886 22.098 1.001 31 1.001a29.866 29.866 0 0114.798 3.9 15.174 15.174 0 01-5.49 4.815c-.982.51-1.777 1.14-2.04 2.092a7.61 7.61 0 00-.262 2.003c0 1.62.51 3.218 1.492 4.553.323.435.585.907.788 1.402l.817 1.988c.083.195.113.39.113.585a1.558 1.558 0 01-2.715 1.042l-1.658-1.86a8.43 8.43 0 00-2.01-1.635l-2.078-1.222a8.295 8.295 0 00-5.025-1.11l-2.175.202a6.181 6.181 0 00-2.745.96 6.11 6.11 0 00-1.995 2.108 6.12 6.12 0 00-.36 5.355l.39.952a1.244 1.244 0 001.868.548l1.552-1.08a1.937 1.937 0 012.055-.113l1.89 1.043c.548.3.915.84.998 1.455l.405 3.173a9.066 9.066 0 002.812 5.467l.698.645a3.246 3.246 0 003.413.638l.87-.353a6.316 6.316 0 015.67.503l5.872 3.645a4.317 4.317 0 011.973 4.455z" stroke="#B5D0E7" stroke-width="2" stroke-linecap="round" stroke-linejoin="round"/><path d="M1 31.001C1 14.432 14.431 1 31 1c16.569 0 30 13.432 30 30.001 0 16.569-13.431 30.001-30 30.001-16.569 0-30-13.432-30-30.001z" stroke="#B5D0E7" stroke-width="2" stroke-linecap="round" stroke-linejoin="round"/><path d="M40.874 44.92v6.186c-3.062 3.427-12.53 3.09-13.353 7.748-.096.565.166 3.7.166 3.7h34.626s.263-3.135.165-3.7c-.817-4.623-10.165-4.326-13.287-7.674v-6.26h-8.317z" fill="#ED2E26"/><path d="M40.874 44.92v6.186c-3.062 3.427-12.53 3.09-13.353 7.748-.096.565.166 3.7.166 3.7h34.626s.263-3.135.165-3.7c-.817-4.623-10.165-4.326-13.287-7.674v-6.26h-8.317z" stroke="#F7FAFC" stroke-width="2" stroke-linecap="round" stroke-linejoin="round"/><path d="M51.914 41.473l.173-1.99c.41-4.723-2.74-8.968-7.083-8.982-4.34-.014-7.521 4.208-7.141 8.934l.16 1.992c.394 4.911 3.566 8.431 6.918 8.442 3.352.011 6.547-3.487 6.973-8.396" fill="#ED2E26"/><path d="M51.914 41.473l.173-1.99c.41-4.723-2.74-8.968-7.083-8.982-4.34-.014-7.521 4.208-7.141 8.934l.16 1.992c.394 4.911 3.566 8.431 6.918 8.442 3.352.011 6.547-3.487 6.973-8.396z" stroke="#F7FAFC" stroke-width="2"/></g></svg>