<svg xmlns="http://www.w3.org/2000/svg" width="62" height="36" viewBox="0 0 62 36"><g fill="none" fill-rule="evenodd"><path stroke="#B4CFE6" stroke-width="2" d="M17.42 26.187l-3.27-5.211-7.185-3.802 7.088-12.387 7.564 4.003 9.594-2.677m9.57 10.286l10.32 5.46-2.018 3.526L38.36 20.63m8.594 4.646l-1.756 3.068-9.302-3.406m6.953 3.68l-1.742 3.044-7.633-2.493m4.71 2.493l-1.593 2.785-8.69-2.578M40.29 8.79l7.563-4.003 7.089 12.387-6.347 3.359-7.813-4.134" stroke-linecap="round" stroke-linejoin="round"/><path fill="#FEFEFE" d="M19.798 21.495l-5.133 5.226-3.023-2.82 5.134-5.226"/><path stroke="#B4CFE6" stroke-width="2" d="M19.798 21.495l-5.133 5.226-3.023-2.82 5.134-5.226z" stroke-linecap="round" stroke-linejoin="round"/><path fill="#FEFEFE" d="M13.834 27.533l3.022 2.82 7.972-7.946-3.077-2.87"/><path stroke="#B4CFE6" stroke-width="2" d="M13.834 27.533l3.022 2.82 7.972-7.946-3.077-2.87zm3.783 2.067l3.023 2.82 5.897-5.847-3.022-2.82z" stroke-linecap="round" stroke-linejoin="round"/><path fill="#FEFEFE" d="M21.271 31.786l3.024 2.82 4.635-4.595-3.025-2.82"/><path stroke="#B4CFE6" stroke-width="2" d="M21.271 31.786l3.024 2.82 4.634-4.594-3.024-2.82zm25.683-16.864l-4.51 2.04-13.636-4.08-9.345 4.08-2.154-3.765 13.903-7.084 9.077 2.677m20.595 7.532l-5.488 2.75L47.092 3.75 52.58 1zM1 16.322l5.488 2.75L14.79 3.75 9.303 1z" stroke-linecap="round" stroke-linejoin="round"/></g></svg>