<svg xmlns="http://www.w3.org/2000/svg" viewBox="0 0 75.3 75.3"><g fill="#DE1D0B"><path fill="#ffffff" d="M37.7 0C16.9 0 0 16.9 0 37.7c0 20.8 16.9 37.7 37.7 37.7 20.8 0 37.7-16.9 37.7-37.7C75.3 16.9 58.5 0 37.7 0zm23.9 61.6c-6.4 6.4-14.9 9.9-24 9.9S20 68 13.6 61.6c-6.4-6.4-9.9-14.9-9.9-24 0-9 3.5-17.6 9.9-24 6.4-6.4 14.9-9.9 24-9.9 9 0 17.6 3.5 24 9.9 6.4 6.4 9.9 14.9 9.9 24 .1 9.1-3.5 17.6-9.9 24z"/><path fill="#ffffff"  d="M26.8 26.6L19.4 25H19l-7.4 1.6c-.5.1-.8.5-.8 1v5.8c0 1.2.4 2.4 1.2 3.6.7 1 1.7 2 3 2.9 1.1.7 2.4 1.4 3.9 2 .1 0 .2.1.4.1.1 0 .2 0 .4-.1 1.5-.6 2.8-1.2 3.9-2 1.3-.9 2.3-1.8 3-2.9.8-1.1 1.2-2.3 1.2-3.6v-5.8c-.2-.4-.5-.8-1-1zM15.4 39.1c-2.3-1.6-3.7-3.5-3.7-5.6v-5.8l7.2-1.5v14.7c-1.3-.6-2.5-1.1-3.5-1.8zm11.2-5.6c0 2.1-1.4 4-3.7 5.6-1 .7-2.1 1.2-3.4 1.8V26.1l7.2 1.5v5.9zM50.5 46.4c2 0 3.9.8 5.3 2.2 1.4 1.4 2.2 3.3 2.2 5.3s-.8 3.8-2.2 5.3c-1.4 1.4-3.3 2.2-5.3 2.2s-3.8-.8-5.2-2.2c-1.4-1.4-2.2-3.3-2.2-5.3s.8-3.8 2.2-5.3c1.4-1.4 3.2-2.2 5.2-2.2m0-1.1c-4.7 0-8.5 3.8-8.5 8.5s3.8 8.5 8.5 8.5 8.5-3.8 8.5-8.5-3.8-8.5-8.5-8.5zm-1 12.2c.4 0 .6-.2.8-.4l4.2-5.3c.4-.5.3-1.1-.2-1.5-.5-.4-1.1-.3-1.5.2l-3.5 4.4-1.3-1.3c-.4-.4-1.1-.4-1.5 0-.4.4-.4 1.1 0 1.5l2.1 2.1c.3.2.6.3.9.3zM44.6 11.1c.6 0 1.2.5 1.2 1.2v9.3c0 .6-.5 1.2-1.2 1.2H30.7c-.6 0-1.2-.5-1.2-1.2v-9.3c0-.6.5-1.2 1.2-1.2h13.9m0-1.1H30.7c-1.3 0-2.3 1-2.3 2.3v9.3c0 1.3 1 2.3 2.3 2.3h13.9c1.3 0 2.3-1 2.3-2.3v-9.3c0-1.3-1-2.3-2.3-2.3zm-.6 2.9v1.7H31.3v-1.7H44m0-.6H31.3c-.3 0-.6.3-.6.6v1.7c0 .3.3.6.6.6H44c.3 0 .6-.3.6-.6v-1.7c0-.4-.2-.6-.6-.6zm-10.4 4.6V21h-2.3v-4.1h2.3m0-.6h-2.3c-.3 0-.6.3-.6.6V21c0 .3.3.6.6.6h2.3c.3 0 .6-.3.6-.6v-4.1c0-.3-.3-.6-.6-.6zm10.4.6V21h-8.1v-4.1H44m0-.6h-8.1c-.3 0-.6.3-.6.6V21c0 .3.3.6.6.6H44c.3 0 .6-.3.6-.6v-4.1c0-.3-.2-.6-.6-.6zM32.7 53v-3.8c0-2.5-2.1-4.6-4.6-4.6-2.5 0-4.6 2.1-4.6 4.6V53c-.7.4-1.2 1.1-1.2 2V61.9c0 .6.5 1.1 1.2 1.1h9.2c.6 0 1.2-.5 1.2-1.1V55c-.1-.9-.5-1.6-1.2-2zm-8.1-3.8c0-1.9 1.5-3.5 3.5-3.5s3.5 1.5 3.5 3.5v3.5h-1.2v-3.5c0-1.3-1-2.3-2.3-2.3-1.3 0-2.3 1-2.3 2.3v3.5h-1.2v-3.5zm4.6 3.5h-2.3v-3.5c0-.6.5-1.2 1.1-1.2.6 0 1.2.5 1.2 1.2v3.5zm-4.6 1.1h6.9c.6 0 1.1.5 1.1 1.2v4h-9.2v-4c.1-.6.6-1.2 1.2-1.2zm8.1 8.1h-9.2v-2.3h9.2v2.3zM66.7 39L62 34.3c.4-.9.7-2 .7-3.1 0-3.9-3.2-7.1-7.1-7.1-3.9 0-7.1 3.2-7.1 7.1 0 3.9 3.2 7.1 7.1 7.1 1.1 0 2.1-.2 3.1-.7l4.7 4.7c.5.5 1.1.7 1.7.7.6 0 1.2-.2 1.7-.7.8-.9.8-2.4-.1-3.3zm-17.1-7.8c0-3.3 2.7-5.9 5.9-5.9 3.3 0 5.9 2.7 5.9 5.9 0 3.3-2.7 5.9-5.9 5.9s-5.9-2.7-5.9-5.9zm16.2 10.3c-.2.2-.5.3-.8.3-.3 0-.6-.1-.8-.3L59.7 37c.6-.5 1.2-1 1.7-1.7l4.5 4.5c.4.5.4 1.2-.1 1.7z"/></g></svg>