<svg xmlns="http://www.w3.org/2000/svg" viewBox="0 0 75.6 75.7"><path fill="#FFF" d="M12.1 43.6H0V31.5h12.1v12.1zM2 41.6h8.1v-8.1H2v8.1zM75.6 44.2h-12v-12h12.1v12zm-10-2h8.1v-8.1h-8.1v8.1zM43.5 75.7H31.4V63.6h12.1v12.1zm-10.1-2h8.1v-8.1h-8.1v8.1zM32.4 0h10.1v10.1H32.4zM60 69.1l-8.5-8.5L60 52l8.5 8.5-8.5 8.6zm-5.7-8.5l5.7 5.7 5.7-5.7-5.7-5.7-5.7 5.7zM15.1 68.6l-8.5-8.5 8.5-8.5 8.5 8.5-8.5 8.5zm-5.7-8.5l5.7 5.7 5.7-5.7-5.7-5.7-5.7 5.7zM15.6 23.7L7 15.2l8.5-8.5 8.5 8.5-8.4 8.5zm-5.7-8.5l5.7 5.7 5.7-5.7-5.7-5.7-5.7 5.7zM60.5 24.2L52 15.6l8.5-8.5 8.5 8.5-8.5 8.6zm-5.7-8.6l5.7 5.7 5.7-5.7-5.7-5.7-5.7 5.7z"/></svg>