<svg xmlns="http://www.w3.org/2000/svg" width="77" height="77" viewBox="0 0 77 77"><g fill="#8DB1DA"><path d="M38.5 0C17.2 0 0 17.2 0 38.5S17.2 77 38.5 77 77 59.8 77 38.5 59.8 0 38.5 0zM63 63c-6.5 6.5-15.2 10.1-24.5 10.1S20.6 69.5 14 63C7.5 56.4 3.9 47.7 3.9 38.5S7.5 20.6 14 14C20.6 7.5 29.2 3.9 38.5 3.9S56.4 7.5 63 14c6.5 6.5 10.1 15.2 10.1 24.5S69.5 56.4 63 63z"/><path d="M27.4 27.2l-7.6-1.6h-.4l-7.6 1.6c-.5.1-.9.6-.9 1.1v6c0 1.3.4 2.5 1.2 3.7.7 1.1 1.8 2.1 3.1 2.9 1.1.8 2.5 1.4 4 2 .1 0 .3.1.4.1.1 0 .3 0 .4-.1 1.5-.6 2.9-1.2 4-2 1.3-.9 2.4-1.9 3.1-2.9.8-1.2 1.2-2.4 1.2-3.7v-6c-.1-.5-.4-1-.9-1.1zM15.8 40c-2.4-1.6-3.8-3.6-3.8-5.7v-6l7.3-1.6v15c-1.3-.5-2.5-1.1-3.5-1.7zm11.4-5.7c0 2.1-1.4 4.1-3.8 5.7-1 .7-2.2 1.3-3.5 1.8v-15l7.3 1.6v5.9zM51.6 47.4c2 0 3.9.8 5.4 2.2 1.4 1.4 2.2 3.3 2.2 5.4s-.8 4-2.2 5.4c-1.4 1.4-3.3 2.2-5.4 2.2-2 0-3.9-.8-5.4-2.2C44.8 59 44 57 44 55s.8-3.9 2.2-5.4c1.5-1.4 3.4-2.2 5.4-2.2m0-1.1c-4.8 0-8.7 3.9-8.7 8.7s3.9 8.7 8.7 8.7c4.8 0 8.7-3.9 8.7-8.7s-3.9-8.7-8.7-8.7zm-1.1 12.5c.1 0 .1 0 0 0 .4 0 .7-.2.8-.4l4.3-5.4c.4-.5.3-1.1-.2-1.5-.5-.4-1.2-.3-1.5.2l-3.6 4.5-1.3-1.3c-.4-.4-1.1-.4-1.5 0-.4.4-.4 1.1 0 1.5l2.2 2.2c.3.1.6.2.8.2zM45.6 11.4c.7 0 1.2.5 1.2 1.2V22c0 .7-.5 1.2-1.2 1.2H31.4c-.7 0-1.2-.5-1.2-1.2v-9.5c0-.7.5-1.2 1.2-1.2h14.2m0-1.1H31.4c-1.3 0-2.4 1.1-2.4 2.4V22c0 1.3 1.1 2.4 2.4 2.4h14.2c1.3 0 2.4-1.1 2.4-2.4v-9.5c0-1.2-1.1-2.3-2.4-2.3zm-.6 3V15H32v-1.8h13m0-.6H32c-.3 0-.6.3-.6.6V15c0 .3.3.6.6.6h13c.3 0 .6-.3.6-.6v-1.8c0-.4-.3-.6-.6-.6zm-10.6 4.7v4.1H32v-4.1h2.4m0-.6H32c-.3 0-.6.3-.6.6v4.1c0 .3.3.6.6.6h2.4c.3 0 .6-.3.6-.6v-4.1c-.1-.3-.3-.6-.6-.6zm10.6.6v4.1h-8.3v-4.1H45m0-.6h-8.3c-.3 0-.6.3-.6.6v4.1c0 .3.3.6.6.6H45c.3 0 .6-.3.6-.6v-4.1c0-.3-.3-.6-.6-.6zM33.4 54.2v-3.8c0-2.6-2.1-4.7-4.7-4.7S24 47.8 24 50.4v3.8c-.7.4-1.2 1.2-1.2 2v7.1c0 .6.5 1.2 1.2 1.2h9.4c.7 0 1.2-.5 1.2-1.2v-7.1c0-.9-.5-1.6-1.2-2zm-8.2-3.9c0-2 1.6-3.5 3.5-3.5 2 0 3.5 1.6 3.5 3.5v3.5H31v-3.5c0-1.3-1.1-2.4-2.4-2.4-1.3 0-2.4 1.1-2.4 2.4v3.5H25v-3.5zm4.7 3.5h-2.4v-3.5c0-.6.5-1.2 1.2-1.2s1.2.5 1.2 1.2v3.5zM25.2 55h7.1c.6 0 1.2.5 1.2 1.2v4.1H24v-4.1c0-.6.5-1.2 1.2-1.2zm8.2 8.3H24v-2.4h9.4v2.4zM68.1 39.8L63.3 35c.5-.9.7-2 .7-3.1 0-4-3.3-7.3-7.3-7.3s-7.3 3.3-7.3 7.3 3.3 7.3 7.3 7.3c1.1 0 2.2-.3 3.1-.7l4.8 4.8c.5.5 1.1.7 1.7.7.6 0 1.2-.2 1.7-.7 1.1-1 1.1-2.5.1-3.5zm-17.4-8c0-3.3 2.7-6.1 6.1-6.1 3.3 0 6.1 2.7 6.1 6.1s-2.7 6.1-6.1 6.1c-3.4 0-6.1-2.7-6.1-6.1zm16.6 10.6c-.2.2-.5.4-.9.4-.3 0-.6-.1-.9-.4L61 37.8c.7-.5 1.2-1 1.7-1.7l4.6 4.6c.5.4.5 1.2 0 1.7z"/></g></svg>