
<svg width="20px" height="20px" viewBox="0 0 20 20" version="1.1" xmlns="http://www.w3.org/2000/svg" xmlns:xlink="http://www.w3.org/1999/xlink">
    <!-- Generator: Sketch 44.1 (41455) - http://www.bohemiancoding.com/sketch -->
    <desc>Created with Sketch.</desc>
    <defs></defs>
    <g id="12.1-13-App-detail" stroke="none" stroke-width="1" fill="none" fill-rule="evenodd">
        <g id="12.4-App-Detail---Continuous-Monitoring" transform="translate(-746.000000, -3641.000000)" fill="#FFFFFF">
            <g id="---Feature-01" transform="translate(185.000000, 3218.000000)">
                <g id="::-list" transform="translate(0.000000, 313.000000)">
                    <g id="::-Icon:-Hosts" transform="translate(551.000000, 100.000000)">
                        <g id="Group-6" transform="translate(10.000000, 10.000000)">
                            <path d="M19.552272,13.0322558 C19.552272,13.0322558 16.6329972,14.2484547 10.1277242,14.2484547 C3.45949652,14.2484547 0.702182861,13.0322558 0.702182861,13.0322558 L0.702182861,8.75866806 C0.702182861,8.75866806 5.40998542,9.97586057 10.1277242,9.97586057 C16.3577627,9.97586057 19.552272,8.75866806 19.552272,8.75866806 L19.552272,13.0322558 Z" id="Fill-4"></path>
                            <path d="M19.552272,18.5204527 C19.552272,18.5204527 16.6329972,19.7376452 10.1277242,19.7376452 C3.45949652,19.7376452 0.702182861,18.5204527 0.702182861,18.5204527 L0.702182861,14.2478585 C0.702182861,14.2478585 5.40998542,15.4640574 10.1277242,15.4640574 C16.3577627,15.4640574 19.552272,14.2478585 19.552272,14.2478585 L19.552272,18.5204527 Z" id="Fill-6"></path>
                            <path d="M19.552272,7.54395961 C19.552272,7.54395961 16.6329972,8.75916487 10.1277242,8.75916487 C3.45949652,8.75916487 0.702182861,7.54395961 0.702182861,7.54395961 L0.702182861,3.27037185 C0.702182861,3.27037185 5.40998542,4.48657074 10.1277242,4.48657074 C16.3577627,4.48657074 19.552272,3.27037185 19.552272,3.27037185 L19.552272,7.54395961 Z" id="Fill-8"></path>
                            <path d="M19.552272,1.73362904 C19.552272,1.36300634 14.8414886,0.332615613 10.1287179,0.328641107 C5.41495355,0.326653854 0.703176487,1.35108282 0.703176487,1.73362904 C0.703176487,2.58218611 4.92211479,3.2707693 10.1277242,3.2707693 C15.3323401,3.2707693 19.552272,2.58218611 19.552272,1.73362904" id="Fill-10"></path>
                        </g>
                    </g>
                </g>
            </g>
        </g>
    </g>
</svg>