<svg version="1.1" id="Layer_1" xmlns="http://www.w3.org/2000/svg" x="0" y="0" viewBox="0 0 64 64" xml:space="preserve"><style>.st0,.st1,.st2{fill:#fff;stroke:#b5d0e5;stroke-width:2;stroke-linecap:round;stroke-linejoin:round}.st1,.st2{fill:#b5d0e5;stroke-width:1.5}.st2{fill:#fff}.st4{fill:#fefefe}</style><path class="st0" d="M11.7 1.9h37.1v51.5H11.7z"/><path class="st0" d="M5 6.8h37.1v51.5H5z"/><path class="st1" d="M12.7 16h3.1v11.4h-3.1zM18.9 11.1H22v16.3h-3.1zM25.1 17.5h3.1v10h-3.1zM31.2 17.5h3.1v10h-3.1z"/><path class="st2" d="M9.9 32.6h7.4V40H9.9zM20.4 33.9h9.7M20.4 36.3h17.5M20.4 38.6h8.8M9.9 42.9h7.4v7.4H9.9z"/><g><path class="st2" d="M20.4 44.2H27M20.4 46.6h17.5M20.4 49h12.8"/></g><g><path id="Fill-5_16_" d="M37.5 51.3c0-6 4.8-10.8 10.8-10.8 6 0 10.8 4.8 10.8 10.8 0 6-4.8 10.8-10.8 10.8-6 0-10.8-4.9-10.8-10.8" fill="#ed2e26"/><path id="Fill-7_51_" class="st4" d="M48.3 45.1c-5.2 0-7.4 5.4-7.4 5.7-.1.3-.1.6 0 .9.6 2 2.9 5.8 7.5 5.8s6.9-3.8 7.5-5.8c.1-.3.1-.6 0-.9-.3-.2-2.4-5.7-7.6-5.7m0 1.5c4.3 0 6.1 4.7 6.1 4.7S53 56 48.3 56s-6.1-4.7-6.1-4.7 1.8-4.7 6.1-4.7"/><path class="st4" d="M48.3 54.7c-.2 0-.4 0-.6-.1-1.3-.3-2.4-1.3-2.7-2.7-.2-1.1.1-2.2.9-3 .8-.8 1.9-1.1 3-.9 1.3.3 2.4 1.3 2.7 2.7.2 1.1-.1 2.2-.9 3-.7.6-1.6 1-2.4 1zm0-5.3c-.5 0-1 .2-1.3.6-.5.5-.6 1.1-.5 1.7.1.7.8 1.3 1.5 1.5.6.1 1.3-.1 1.7-.5.5-.5.6-1.1.5-1.7-.1-.7-.8-1.3-1.5-1.5-.2-.1-.3-.1-.4-.1z"/></g></svg>