<svg width="54" height="39" viewBox="0 0 54 39" xmlns="http://www.w3.org/2000/svg"><g fill="none" fill-rule="evenodd"><g fill="#D9312D"><path d="M9.688.28c-.774 0-1.402.628-1.402 1.402v32.232l-5.86-6.283a1.403 1.403 0 00-1.981-.07 1.403 1.403 0 00-.067 1.982l8.286 8.887a1.401 1.401 0 002.427-.956V1.682C11.09.908 10.462.28 9.688.28"/><path d="M17.978 27c-.374 0-.75.15-1.024.445l-8.29 8.886a1.401 1.401 0 102.05 1.913l8.29-8.886A1.403 1.403 0 0017.979 27"/></g><path d="M30.78 7.437h-7.043a1.403 1.403 0 010-2.804h7.043a1.402 1.402 0 110 2.804M37.825 17.228H23.737a1.403 1.403 0 010-2.804h14.088a1.403 1.403 0 010 2.804M44.87 27.02H23.736a1.403 1.403 0 010-2.805h21.132a1.403 1.403 0 010 2.805M51.91 36.813H23.737a1.403 1.403 0 010-2.805H51.91a1.402 1.402 0 110 2.805" fill="#B5D0E5"/></g></svg>