<svg xmlns="http://www.w3.org/2000/svg" viewBox="0 0 87.8 87.8"><path d="M43.9 87.8C19.7 87.8 0 68.1 0 43.9S19.7 0 43.9 0s43.9 19.7 43.9 43.9-19.7 43.9-43.9 43.9zm0-84.5C21.5 3.3 3.3 21.5 3.3 43.9s18.2 40.6 40.6 40.6c22.4 0 40.6-18.2 40.6-40.6S66.3 3.3 43.9 3.3z"/><path d="M68.4 47.5h6.1v5.1H62.3V35.2h6.1v12.3zm-19.9-.9l-10 7.9-9.2-7.2c-1.3 3.2-4.5 5.4-8.2 5.4h-7.8V35.2h7.8c4.1 0 7.1 2.6 8.2 5.4l9.2-7.2 3.4 2.7-8.4 6.6 1.6 1.3 8.4-6.6 3.4 2.7-8.4 6.6 1.6 1.3 8.4-6.6v-6.1h6.1v12.4h6.1v5.1H48.5v-6.2zm-24.2-2.7c0-2.4-1.6-3.7-3.8-3.7h-1.4v7.4h1.3c2.2 0 3.9-1.1 3.9-3.7"/></svg>