<svg version="1.1" id="Layer_1" xmlns="http://www.w3.org/2000/svg" x="0" y="0" viewBox="0 0 64 64" xml:space="preserve"><style>.st0{fill:none}.st1{fill:#b5d0e6}.st2{fill:#ed2e26}</style><path class="st0" d="M15.2 58.9h33.6c1.4 0 2.5-1.1 2.5-2.5l3.4-19.5c0-1.4-1.1-2.5-2.5-2.5H11.9c-1.4 0-2.5 1.1-2.5 2.5l3.4 19.4c-.1 1.5 1 2.6 2.4 2.6zM32 45.1c.7 0 1.2.5 1.2 1.2s-.5 1.2-1.2 1.2-1.2-.5-1.2-1.2c0-.6.5-1.2 1.2-1.2z"/><path class="st1" d="M24.3 25.6c-5 .5-9.2 3.9-10.8 8.5H29c-2.1-3.1-4.7-7.2-4.7-8.5zM39.7 25.6c0 1.4-2.9 5.4-5.2 8.5h16c-1.6-4.7-5.8-8.1-10.8-8.5z"/><path class="st2" d="M32.9 30.7c.9-.5 1.6-1.4 1.6-2.4 0 0-1.3.6-2.7.6-1.4 0-2.7-.6-2.7-.6 0 1 .7 1.9 1.6 2.4l-.2 3.4h2.7l-.3-3.4z"/><path class="st1" d="M51.1 59.8H12.9c-.4 0-.7.3-.7.7 0 .4.3.7.7.7H51c.4 0 .7-.3.7-.7 0-.4-.3-.7-.6-.7zM15.2 59.3h33.6c1.6 0 2.9-1.3 2.9-2.8L55 36.9c0-1.6-1.3-2.9-2.9-2.9H11.9C10.3 34 9 35.3 9 36.9l3.4 19.4c0 1.7 1.2 3 2.8 3zm-3.3-24.9h40.3c1.4 0 2.5 1.1 2.5 2.5l-3.4 19.5c0 1.4-1.1 2.5-2.5 2.5H15.2c-1.4 0-2.5-1.1-2.5-2.5L9.3 36.9c0-1.4 1.2-2.5 2.6-2.5z"/><path class="st0" d="M37.9 10.4c0 .1.1.1.1.2 0-.1 0-.2-.1-.2zM38.7 11.9s0 .1.1.1c-.1 0-.1 0-.1-.1zM23.8 16.6c0-.1 0-.2-.1-.4.1.2.1.3.1.4zM38 10.6c.1.1.1.2.2.3 0-.1-.1-.2-.2-.3zM38.5 11.6c0 .1.1.1.1.2 0-.1 0-.2-.1-.2zM38.3 11s0 .1.1.1c-.1 0-.1-.1-.1-.1zM38.4 11.3s0 .1.1.1c-.1 0-.1-.1-.1-.1zM23.7 15.8c0-.3-.1-.6-.1-.8 0 .3.1.5.1.8zM24 17.3v-.2.2zM39.2 13.6v0zM39.3 13.9v0zM39.2 13.4v0zM39.3 14.1v0zM39.2 14.8zM39.3 14.6zM39.3 14.3c0 .1 0 .1 0 0 0 .1 0 .1 0 0zM37.8 10.1c0 .1.1.1.1.2 0 0 0-.1-.1-.2zM25 15.6c-.5-.4-1-.5-1.3-.6.3.1.7.2 1.3.6zM40.5 13.4L39.2 15z"/><path class="st0" d="M26 9.1s6.7 3.3 11.2 0c0 0 .3.4.6 1-.3-.6-.6-1-.6-1-4.5 3.3-11.2 0-11.2 0-1.6.6-1.3 4.2-1.2 5.8-.1-1.6-.4-5.2 1.2-5.8z"/><path class="st0" d="M38.9 12.4v-.1c0-.1 0-.1-.1-.2 0 0 0-.1-.1-.1 0-.1-.1-.1-.1-.2s-.1-.1-.1-.2c0 0 0-.1-.1-.1 0-.1 0-.1-.1-.1 0 0 0-.1-.1-.1 0-.1 0-.1-.1-.1 0 0 0-.1-.1-.1-.1-.1-.1-.2-.2-.3 0-.1-.1-.1-.1-.2v-.1c0-.1-.1-.1-.1-.2-.3-.6-.6-1-.6-1-4.5 3.3-11.2 0-11.2 0-1.6.6-1.3 4.2-1.2 5.8.1.4.1.7.1.7-.5-.4-1-.5-1.3-.6 0 .3.1.6.1.8 0 .1 0 .3.1.4 0 .1 0 .2.1.4 0 .2.1.4.1.6v.2c.1.2.1.4.2.6 0 .1.1.2.1.3 0 .1.1.2.1.4l.7 1.8c1.5 3.2 4.1 5.3 6.9 5.3 4.4 0 8-4.8 8.4-11 .1-.4.1-.8.1-1.2L39.2 15c0-.1 0-.1.1-.2v-.1-.1-.1-.1-.1-.1-.1-.1-.1-.1-.1-.1-.1c-.1-.3-.1-.5-.2-.8-.2-.2-.2-.3-.2-.3z"/><path class="st0" d="M38.9 12.5c.1.3.2.5.2.8v-.2s-.1-.2-.2-.6c0 .1 0 .1 0 0zM38.8 12.2v0z"/><path class="st1" d="M39.3 14.4v0zM39.3 14v0zM39.3 14.2v0zM39.2 15c0-.1 0-.1.1-.2-.1.1-.1.2-.1.2zM39.3 14.6v.1c-.1 0 0 0 0-.1zM39.2 13.5v0zM39.2 13.3c0 .1 0 .1 0 0 0 .1 0 .1 0 0zM39.2 13.8v.1c.1-.1 0-.1 0-.1zM38.7 12.1c0 .1 0 .1.1.2 0-.1 0-.2-.1-.2zM38.3 11.1s0 .1.1.1l-.1-.1zM38.6 11.8c0 .1.1.1.1.2 0-.1-.1-.2-.1-.2zM24 17.3c.1.2.1.4.2.6-.1-.1-.1-.3-.2-.6zM37.9 10.3s0 .1 0 0c0 .1 0 0 0 0zM38 10.5s0 .1 0 0c0 .1 0 0 0 0zM38.5 11.4s0 .1.1.1c-.1 0-.1 0-.1-.1zM38.2 10.9s0 .1.1.1c-.1 0-.1-.1-.1-.1zM24.9 14.9c.1.4.1.7.1.7s-.1-.3-.1-.7zM37.8 10.1zM38.9 12.4c0 .1 0 .1.1.2-.1-.1-.1-.2-.1-.2zM23.8 16.3c0-.1-.1-.3-.1-.4 0 .1.1.2.1.4zM24 17.2c0-.2-.1-.4-.1-.6 0 .2 0 .4.1.6zM23.6 15z"/><path class="st1" d="M41.6 11.6c-.7-4.9-4.7-8.7-9.6-8.7-4.9 0-8.9 3.8-9.6 8.7-.1.5-.1 1-.1 1.5v.6c0 .3.1 2.2.6 4.1.1.3.2.7.2.7.2.8.2.6.5 1.4 1.6 4.4 4.8 7.3 8.5 7.3 4.5 0 8.2-4.4 9.3-10.5.5-3.3.2-5.1.2-5.1zm-1.1 1.8c0 .4 0 .8-.1 1.2-.5 6.2-4.1 11-8.4 11-2.9 0-5.4-2.1-6.9-5.3l-.7-1.8c0-.1-.1-.2-.1-.4l-.1-.1s-.1-.4-.2-.6v-.2c0-.2-.1-.4-.1-.6 0-.1 0-.2-.1-.4 0-.1-.1-.3-.1-.4 0-.3-.1-.6-.1-.8.4.1.8.3 1.3.6 0 0 0-.3-.1-.7-.2-1.6-.4-5.1 1.2-5.8 0 0 6.7 3.3 11.2 0 0 0 .3.4.6 1 0 .1 1.7 2.8 1.3 4.9l1.4-1.6zM24.3 18.3l-.1-.3.1.3z"/><path class="st1" d="M24.2 18c0 .1.1.2.1.3-.1-.1-.1-.2-.1-.3z"/><g><path id="Fill-3_28_" class="st2" d="M31.7 42.2c2.1 0 3.1 1.1 3.1 1.1s.1.8 0 2.5c-.1 2.5-3.2 4-3.2 4s-3.1-1.5-3.2-4c-.1-1.7 0-2.5 0-2.5s1.2-1.1 3.3-1.1"/><path id="Fill-5_32_" d="M30.2 45.5c0-.9.7-1.6 1.6-1.6.9 0 1.6.7 1.6 1.6 0 .7-.6 1.3-1.1 1.6.2.1.6.2.9.2.5-.4.9-1.1.9-1.8 0-1.3-1.1-2.3-2.3-2.3-1.3 0-2.3 1.1-2.3 2.3 0 .8.3 1.5.9 2 .6.5 1.4.8 2.4 1 .2-.1.6-.5.7-.7-.8-.1-1.6-.3-2.1-.6-.8-.4-1.2-1-1.2-1.7" fill="#fefefe"/></g></svg>