<svg xmlns="http://www.w3.org/2000/svg" viewBox="0 0 52 65"><g fill="none"><path fill="#B5D0E5" d="M0 0v56.033h5.412v5.412h41.6l2.972 2.971c.212.213.53.319.743.319.212 0 .53-.106.742-.319a1.026 1.026 0 000-1.485l-2.971-2.972V22.18l-.53-.53-4.882-4.882V0H0zm2.122 2.122h38.841v12.523l-8.702-8.702-.53-.53H5.412V53.91h-3.29V2.122zm5.413 5.413h22.604v16.13h16.13v34.066l-8.065-8.066c1.91-2.228 2.972-5.094 2.972-8.171 0-7.004-5.731-12.735-12.735-12.735s-12.735 5.73-12.735 12.735c0 7.004 5.73 12.735 12.735 12.735 3.077 0 5.943-1.168 8.171-2.972l8.066 8.065H7.535V7.535zm24.832 1.592L43.192 19.95l1.698 1.698H32.367V9.127zm-3.82 21.755c5.837 0 10.612 4.775 10.612 10.612s-4.775 10.612-10.612 10.612-10.612-4.775-10.612-10.612 4.775-10.612 10.612-10.612z"/><path fill="#EE3127" d="M28.76 38.84c.636 0 1.06-.53 1.06-1.06 0-.531-.53-1.062-1.06-1.062h-6.474c-.637 0-1.062.531-1.062 1.062 0 .53.531 1.06 1.062 1.06h6.473zm-6.474 4.246c-.637 0-1.062.53-1.062 1.06 0 .532.531 1.062 1.062 1.062h12.947c.636 0 1.06-.53 1.06-1.061 0-.53-.53-1.061-1.06-1.061H22.286z"/></g></svg>