<svg xmlns="http://www.w3.org/2000/svg" xmlns:xlink="http://www.w3.org/1999/xlink" width="78" height="68"><defs><path id="a" d="M0 68h78V0H0z"/></defs><g fill="none" fill-rule="evenodd"><path fill="#B5D0E7" d="M6.115 2.495c-2.023 0-3.669 1.68-3.669 3.743v45.524c0 2.064 1.646 3.743 3.67 3.743h20.769c2.024 0 3.669-1.68 3.669-3.743V6.238c0-2.064-1.645-3.743-3.67-3.743H6.116zM26.885 58H6.115C2.743 58 0 55.202 0 51.762V6.238C0 2.798 2.743 0 6.115 0h20.77C30.257 0 33 2.798 33 6.238v45.524C33 55.202 30.257 58 26.885 58z"/><path fill="#B5D0E7" d="M47.69 58H36.826C33.612 58 31 55.334 31 52.058V5.942C31 2.666 33.612 0 36.825 0h21.348C61.386 0 64 2.666 64 5.942v30.72c0 .69-.547 1.248-1.223 1.248a1.234 1.234 0 0 1-1.223-1.248V5.942c0-1.901-1.517-3.447-3.38-3.447H36.824c-1.862 0-3.379 1.546-3.379 3.447v46.116c0 1.901 1.517 3.447 3.38 3.447H47.69c.676 0 1.223.558 1.223 1.247 0 .69-.547 1.248-1.223 1.248"/><mask id="b" fill="#fff"><use xlink:href="#a"/></mask><path fill="#B5D0E7" mask="url(#b)" d="M4 11h25v-1H4zM4 17h25v-1H4zM4 22h25v-1H4zM4 26h25v-1H4zM4 31h25v-1H4z"/><path fill="#1D2737" d="M25 38.5a1.5 1.5 0 1 1 3 0 1.5 1.5 0 0 1-3 0m-5 0a1.5 1.5 0 1 1 3 .001 1.5 1.5 0 0 1-3-.002m-4 0a1.5 1.5 0 1 1 3 .002 1.5 1.5 0 0 1-3-.002" mask="url(#b)"/><path fill="#B5D0E7" mask="url(#b)" d="M35 11h25v-1H35zM35 17h25v-1H35zM35 22h25v-1H35zM35 26h25v-1H35zM35 31h25v-1H35z"/><path fill="#1D2737" d="M52.5 40a1.5 1.5 0 1 1 1.5-1.5m-7 0a1.5 1.5 0 1 1 3.002.002A1.5 1.5 0 0 1 47 38.5M47 51c0 8.285 6.715 15 15 15V51H47z" mask="url(#b)"/><path fill="#1D2737" d="M76 52c0-8.285-6.716-15-15-15v15h15z" mask="url(#b)"/><path fill="#1D2737" d="M62 38.416c-7.49 0-13.584 6.094-13.584 13.583 0 7.49 6.094 13.585 13.584 13.585 7.49 0 13.584-6.094 13.584-13.585 0-7.489-6.094-13.583-13.584-13.583M62 68c-8.823 0-16-7.178-16-16 0-8.824 7.177-16 16-16s16 7.176 16 16c0 8.822-7.177 16-16 16" mask="url(#b)"/></g></svg>