<svg xmlns="http://www.w3.org/2000/svg" xmlns:xlink="http://www.w3.org/1999/xlink" width="78" height="67"><defs><path id="a" d="M0 .146h32.978V56.53H0z"/><path id="c" d="M0 67h78V0H0z"/></defs><g fill="none" fill-rule="evenodd"><mask id="b" fill="#fff"><use xlink:href="#a"/></mask><path fill="#B5D0E7" d="M6.11 2.571c-2.02 0-3.666 1.633-3.666 3.638v44.257c0 2.006 1.645 3.638 3.667 3.638h20.755c2.023 0 3.667-1.632 3.667-3.638V6.209c0-2.005-1.644-3.638-3.667-3.638H6.111zM26.867 56.53H6.111C2.74 56.53 0 53.81 0 50.466V6.209C0 2.866 2.74.146 6.11.146h20.756c3.37 0 6.112 2.72 6.112 6.063v44.257c0 3.343-2.742 6.064-6.112 6.064z" mask="url(#b)"/><path fill="#B5D0E7" d="M36.825 57C33.612 57 31 54.38 31 51.16V5.84C31 2.62 33.612 0 36.825 0h21.348C61.386 0 64 2.62 64 5.84v30.19a1.223 1.223 0 1 1-2.446 0V5.84a3.388 3.388 0 0 0-3.38-3.388H36.824a3.387 3.387 0 0 0-3.379 3.388v45.32a3.387 3.387 0 0 0 3.38 3.388H47.69c.676 0 1.223.548 1.223 1.226 0 .678-.547 1.226-1.223 1.226H36.825z"/><mask id="d" fill="#fff"><use xlink:href="#c"/></mask><path fill="#B5D0E7" mask="url(#d)" d="M4 11h24v-1H4zM4 16h24v-1H4zM4 21h24v-1H4zM4 25h24v-1H4zM4 30h24v-1H4z"/><path fill="#1D2737" d="M24 38a2 2 0 1 1 4 0 2 2 0 0 1-4 0m-3.5-1a1.5 1.5 0 1 1 0 3 1.5 1.5 0 0 1 0-3zM15 38.5a1.5 1.5 0 1 1 3.002.002A1.5 1.5 0 0 1 15 38.5" mask="url(#d)"/><path fill="#B5D0E7" mask="url(#d)" d="M36 11h24v-1H36zM36 16h24v-1H36zM36 21h24v-1H36zM36 25h24v-1H36zM36 30h24v-1H36z"/><path fill="#1D2737" d="M52.5 40a1.501 1.501 0 0 1 0-3 1.5 1.5 0 0 1 1.5 1.5m-7 0a1.5 1.5 0 1 1 3 0 1.5 1.5 0 0 1-3 0" mask="url(#d)"/><path fill="#1D2737" d="M47 51.5C47 42.938 53.715 36 62 36s15 6.939 15 15.5S70.285 67 62 67s-15-6.939-15-15.5" mask="url(#d)"/><path fill="#1D2737" d="M62 37.416c-7.49 0-13.584 6.094-13.584 13.583 0 7.49 6.094 13.585 13.584 13.585 7.49 0 13.584-6.094 13.584-13.585 0-7.489-6.094-13.583-13.584-13.583M62 67c-8.823 0-16-7.178-16-16 0-8.824 7.177-16 16-16s16 7.176 16 16c0 8.822-7.177 16-16 16" mask="url(#d)"/><path fill="#FFF" d="M59.882 60h3.378v-3.699h-3.378V60zm.227-10.29l.127-.134c3.2-.108 4.638-1.207 4.638-2.976v-.052c0-1.501-1.083-2.546-2.873-2.546-1.59 0-2.9.75-4.11 2.116L56 43.975C57.463 42.205 59.353 41 62.076 41 65.606 41 68 43.091 68 46.441v.052c0 3.404-2.294 4.906-5.092 5.414l-.251 2.145h-2.044l-.504-4.343z" mask="url(#d)"/></g></svg>