<svg xmlns="http://www.w3.org/2000/svg" width="48" height="50" viewBox="0 0 48 50"><g fill="none" fill-rule="evenodd"><path stroke="#B5D0E7" stroke-linecap="round" stroke-linejoin="round" stroke-width="2" d="M35.22 41.932H7.293a5.495 5.495 0 01-5.495-5.496V6.75a5.495 5.495 0 015.495-5.495h27.929a5.495 5.495 0 015.495 5.495v29.686a5.495 5.495 0 01-5.495 5.496z"/><path stroke="#B5D0E7" stroke-linecap="round" stroke-linejoin="round" stroke-width="2" d="M9.075 9.214l7.048 5.101L8.73 19.73M30.57 22.06H17.815"/><path fill="#B5D0E5" d="M29.159 34.473v5.085c-2.514 2.81-10.293 2.513-10.966 6.358-.083.46.14 3.039.14 3.039H46.77c.098-1.01.144-2.024.14-3.04-.674-3.794-8.354-3.556-10.917-6.308v-5.134h-6.834z"/><path stroke="#FEFEFE" stroke-linecap="round" stroke-linejoin="round" stroke-width="2" d="M29.159 34.473v5.085c-2.514 2.81-10.293 2.513-10.966 6.358-.083.46.14 3.039.14 3.039H46.77c.098-1.01.144-2.024.14-3.04-.674-3.794-8.354-3.556-10.917-6.308v-5.134h-6.834 0z"/><path fill="#B5D0E5" d="M38.227 31.64l.14-1.644c.337-3.877-2.25-7.392-5.816-7.392-3.565 0-6.177 3.458-5.865 7.335 0 .526.131 1.643.131 1.643.32 4.033 2.925 6.924 5.685 6.933 2.76.008 5.38-2.867 5.75-6.9"/><path stroke="#FEFEFE" stroke-width="2" d="M38.227 31.64l.14-1.644c.337-3.877-2.25-7.392-5.816-7.392-3.565 0-6.177 3.458-5.865 7.335 0 .526.131 1.643.131 1.643.32 4.033 2.925 6.924 5.685 6.933 2.76.008 5.38-2.867 5.75-6.9l-.025.024z"/></g></svg>