<svg xmlns="http://www.w3.org/2000/svg" data-name="Layer 3" viewBox="0 0 67.83 65"><path fill="none" stroke="#b5d0e7" stroke-width="2" d="M49.66 53.83h-34a6.69 6.69 0 01-6.69-6.69V11a6.69 6.69 0 016.69-6.69h34A6.69 6.69 0 0156.35 11v36.14a6.69 6.69 0 01-6.69 6.69z" stroke-linecap="round" stroke-linejoin="round"/><path fill="none" stroke="#b5d0e7" stroke-width="2" d="M17.83 14l8.58 6.21-9 6.59M44 29.64H28.47" stroke-linecap="round" stroke-linejoin="round"/><path fill="#ed2e26" d="M42.28 44.75v6.19c-3.06 3.42-12.53 3.06-13.35 7.74-.1.56.17 3.7.17 3.7h34.62a36.7 36.7 0 00.17-3.7c-.82-4.62-10.17-4.33-13.29-7.68v-6.25h-8.32z"/><path fill="none" stroke="#fefefe" stroke-width="2" d="M42.28 44.75v6.19c-3.06 3.42-12.53 3.06-13.35 7.74-.1.56.17 3.7.17 3.7h34.62a36.7 36.7 0 00.17-3.7c-.82-4.62-10.17-4.33-13.29-7.68v-6.25h-8.32z" stroke-linecap="round" stroke-linejoin="round"/><path fill="#ed2e26" d="M53.32 41.3l.17-2c.41-4.72-2.74-9-7.08-9s-7.52 4.21-7.14 8.93c0 .64.16 2 .16 2 .39 4.91 3.56 8.43 6.92 8.44s6.55-3.49 7-8.4"/><path fill="none" stroke="#fefefe" stroke-width="2" d="M53.32 41.3l.17-2c.41-4.72-2.74-9-7.08-9s-7.52 4.21-7.14 8.93c0 .64.16 2 .16 2 .39 4.91 3.56 8.43 6.92 8.44s6.55-3.49 7-8.4z"/></svg>