<svg viewBox="0 0 58 58" xmlns="http://www.w3.org/2000/svg"><g fill="none" fill-rule="evenodd"><path d="M11.566 49.972A27.103 27.103 0 013.11 36.607C-.898 22.112 7.605 7.114 22.099 3.109a27.105 27.105 0 0117.23.908M43.984 6.39A27.131 27.131 0 0155.597 22.1c4.006 14.493-4.496 29.49-18.991 33.498-7.39 2.041-14.91.833-21.04-2.765" stroke="#B5CFE5" stroke-width="2.282" stroke-linecap="round" stroke-linejoin="round"/><path stroke="#B5CFE5" stroke-width="2.282" stroke-linecap="round" stroke-linejoin="round" d="M44.4 12.348l-.67-6.233 6.232-.67M5.941 50.75l6.255-.413-.414-6.255"/><path d="M37.108 29.5h10.704c.59 0 1.07.479 1.07 1.07v10.703c0 .592-.48 1.07-1.07 1.07H37.108c-.591 0-1.07-.478-1.07-1.07V30.57c0-.591.479-1.07 1.07-1.07M13.04 14.453h12.233c.675 0 1.223.548 1.223 1.224V27.91c0 .676-.548 1.223-1.223 1.223H13.041a1.223 1.223 0 01-1.224-1.223V15.677c0-.676.547-1.224 1.224-1.224" fill="#B5CFE4"/><path d="M20.79 19.077h17.126c.946 0 1.712.768 1.712 1.714v17.124c0 .946-.766 1.713-1.712 1.713H20.79a1.713 1.713 0 01-1.712-1.713V20.79c0-.946.766-1.714 1.712-1.714" fill="#ED3126"/><path fill="#FFF" d="M32.718 25.596h-4.806v2.81h4.51v1.8h-4.51v2.919h5.063v1.794H25.73V23.787h6.987z"/></g></svg>