<svg xmlns="http://www.w3.org/2000/svg" xmlns:xlink="http://www.w3.org/1999/xlink" viewBox="0 0 198.5 263.4"><defs><path id="a" d="M-2.427 1.865l198.46-3.684 4.888 263.348-198.46 3.684z"/></defs><clipPath id="b"><use xlink:href="#a" overflow="visible"/></clipPath><path clip-path="url(#b)" d="M62.2 181.3c.9 0 1.6.7 1.6 1.7s-.7 1.7-1.6 1.7c-.9 0-1.6-.7-1.7-1.7 0-.9.8-1.7 1.7-1.7zm-.1-.4c-1.2 0-2.1 1-2.1 2.2 0 1.2 1 2.1 2.2 2.1 1.2 0 2.1-1 2.1-2.2 0-1.2-1-2.1-2.2-2.1zm.5 3.4h.5v-2.4c-.2 0-.4-.1-.8 0-.4 0-.7.1-.8.2-.1.1-.2.3-.2.5 0 .3.2.5.5.5-.2 0-.3.2-.4.6 0 .4-.1.5-.1.6h.5c.1-.1.1-.3.1-.6s.2-.4.4-.4h.2l.1 1zm0-1.4h-.2c-.3 0-.5-.1-.5-.3 0-.2.1-.3.5-.4h.3l-.1.7zM3.8 259.4c-.7-36.9 28.8-67.4 65.7-68.1 36.9-.7 67.4 28.7 68 65.6"/><path clip-path="url(#b)" fill="none" stroke="#000" stroke-width="2.809" d="M3.8 259.4c-.7-36.9 28.8-67.4 65.7-68.1 36.9-.7 67.4 28.7 68 65.6"/><path clip-path="url(#b)" fill="#FFF" d="M137.4 124.1c-12.7 17.3-14.6-11.4-8.3-27.9 2.3-6.1 3.3-8 4.6-10.4 5.5-9.4 14.2-22.5 18.8-20.4 6 2.7 3.2 22.5 1 31-2.1 8.4-16.1 27.7-16.1 27.7"/><path clip-path="url(#b)" fill="none" stroke="#000" stroke-width="3.587" stroke-linecap="round" stroke-linejoin="round" d="M137.4 124.1c-12.7 17.3-14.6-11.4-8.3-27.9 2.3-6.1 3.3-8 4.6-10.4 5.5-9.4 14.2-22.5 18.8-20.4 6 2.7 3.2 22.5 1 31-2.1 8.4-16.1 27.7-16.1 27.7z"/><path clip-path="url(#b)" fill="#FFF" d="M40 62c-9.6-19.2-16.3 8.8-12.8 26.1 1.3 6.4 1.9 8.5 2.9 11 3.9 10.2 10.2 23.5 15.2 23.2 5.1-.3 6.9-21.7 6.1-30.4C50.6 83.3 40 62 40 62"/><path clip-path="url(#b)" fill="none" stroke="#000" stroke-width="3.587" stroke-linecap="round" stroke-linejoin="round" d="M40 62c-9.6-19.2-16.3 8.8-12.8 26.1 1.3 6.4 1.9 8.5 2.9 11 3.9 10.2 10.2 23.5 15.2 23.2 5.1-.3 6.9-21.7 6.1-30.4C50.6 83.3 40 62 40 62z"/><path clip-path="url(#b)" fill="#FFF" d="M30.2 18.2l47.7 194.4 83.9-183.5"/><path clip-path="url(#b)" fill="none" stroke="#000" stroke-width="3.587" stroke-linecap="round" stroke-linejoin="round" d="M30.2 18.2l47.7 194.4 83.9-183.5z"/><path clip-path="url(#b)" d="M20.4 1.4L39.9 54l.5-23.8 53.9 14.1 53.1-5.2-1.9 22.2 27.9-44.1-15.9 5.2-2.2-11.4-11.9 8.6-8.5-13.5-7.1 9-5.8-6.9-10 5.6-19-13L83.3 13 76 4.4 70.6 12 57.1 1.3l-7.2 10.6-8.7-10.3-2.4 9.3"/><path clip-path="url(#b)" fill="none" stroke="#000" stroke-width="3.587" stroke-linecap="round" stroke-linejoin="round" d="M81.1 113.5l3.9 20.2 8-19.3M93.8 152.8c-10.1 11.4-18.7-2.7-18.7-2.7l1.4-3.3-3.7 5.8M45.6 49.8c7.9-8.1 17.2-9.2 22.8-5.3M140.5 56.8c-6.4-9.3-19-7.5-26.4-4.7"/><path clip-path="url(#b)" fill="#FFF" d="M59.9 53.4c-16.1.5-28.7 14-28.1 30 .5 16.1 14 28.7 30 28.1 16.1-.5 28.7-14 28.1-30-.5-16-14-28.6-30-28.1"/><circle clip-path="url(#b)" fill="none" stroke="#000" stroke-width="3.587" stroke-linecap="round" stroke-linejoin="round" cx="60.8" cy="82.5" r="29.1"/><path clip-path="url(#b)" d="M72.1 72.7c-3.3.1-5.9 2.9-5.7 6.1.1 3.3 2.9 5.9 6.1 5.7 3.3-.1 5.8-2.9 5.7-6.1-.1-3.2-2.8-5.8-6.1-5.7"/><circle clip-path="url(#b)" fill="none" stroke="#000" stroke-width="3.505" cx="72.3" cy="78.6" r="5.9"/><path clip-path="url(#b)" fill="#FFF" d="M118.7 58.5c-16.1.5-28.7 14-28.1 30 .5 16.1 14 28.7 30 28.1 16.1-.5 28.7-14 28.1-30-.5-16.1-13.9-28.7-30-28.1"/><circle clip-path="url(#b)" fill="none" stroke="#000" stroke-width="3.587" stroke-linecap="round" stroke-linejoin="round" cx="119.7" cy="87.6" r="29.1"/><path clip-path="url(#b)" d="M129.5 79.6c-3.3.1-5.8 2.9-5.7 6.1.1 3.3 2.9 5.9 6.1 5.7 3.3-.1 5.9-2.9 5.7-6.1-.1-3.2-2.8-5.8-6.1-5.7"/><circle clip-path="url(#b)" fill="none" stroke="#000" stroke-width="3.505" cx="129.7" cy="85.6" r="5.9"/><path clip-path="url(#b)" fill="#FFF" d="M167.6 185.7c14.7-10.1 27.1-16.7 23.2-28.7.2-1.8-7.4-14.6-14.9-22.8 4.6-5.2 9.8-14.6 10.6-16.7 1.2-3 1.5-5.9-1.2-7.7-4.1-2.9-8.3 2.9-11.6 6.5-1.7 1.9-6.2 6.7-9.1 11-2.4 3-7.2 12-11.6 15.8-3.8 2.5-8 4.5-14 21.2-2.8 7.7 0 9.6.3 16.7l-.6 9.3-15.7 63.4c-.1 3 17.2 9.8 21.2 6l10.9-67.7s6.3-2.5 11.9-6"/><path clip-path="url(#b)" fill="none" stroke="#000" stroke-width="3.599" stroke-linecap="round" stroke-linejoin="round" d="M167.6 185.7c14.7-10.1 27.1-16.7 23.2-28.7.2-1.8-7.4-14.6-14.9-22.8 4.6-5.2 9.8-14.6 10.6-16.7 1.2-3 1.5-5.9-1.2-7.7-4.1-2.9-8.3 2.9-11.6 6.5-1.7 1.9-6.2 6.7-9.1 11-2.4 3-7.2 12-11.6 15.8-3.8 2.5-8 4.5-14 21.2-2.8 7.7 0 9.6.3 16.7l-.6 9.3-15.7 63.4c-.1 3 17.2 9.8 21.2 6l10.9-67.7s6.3-2.5 11.9-6"/><path clip-path="url(#b)" fill="none" stroke="#000" stroke-width="3.665" stroke-linecap="round" stroke-linejoin="round" d="M154 162.5c-.3 3.4 5.1 8.5 7.6 7.6"/><path clip-path="url(#b)" fill="#FFF" d="M187.6 139.1c.2 4.6-10.5 11.7-15.2 16-2.1 1.9-6.2 5.8-10 1.7-2-2.1-1.2-5.1.2-7.4 1.4-2.4 12.7-15.6 15.6-17.8 2.9-2.2 9.1 1.3 9.4 7.5"/><path clip-path="url(#b)" fill="none" stroke="#000" stroke-width="3.666" stroke-linecap="round" stroke-linejoin="round" d="M187.6 139.1c.2 4.6-10.5 11.7-15.2 16-2.1 1.9-6.2 5.8-10 1.7-2-2.1-1.2-5.1.2-7.4 1.4-2.4 12.7-15.6 15.6-17.8 2.9-2.2 9.1 1.3 9.4 7.5z"/><path clip-path="url(#b)" fill="#FFF" d="M186.6 141.4l-10 9.2c-5.4 4.8-9.6 8-6.3 12.2 3.8 4.9 6.4 2.4 9.6-.2 3-2.4 12.6-7.5 14.2-11.3 1.6-3.9-4.2-12-7.5-9.9"/><path clip-path="url(#b)" fill="none" stroke="#000" stroke-width="3.666" stroke-linecap="round" stroke-linejoin="round" d="M186.6 141.4l-10 9.2c-5.4 4.8-9.6 8-6.3 12.2 3.8 4.9 6.4 2.4 9.6-.2 3-2.4 12.6-7.5 14.2-11.3 1.6-3.9-4.2-12-7.5-9.9z"/><path clip-path="url(#b)" fill="#FFF" d="M197.1 158.7c.8 3.5-3.9 7.6-6.7 9.4-7.1 4.3-11.8 7.3-14.5 2.6-1-1.8 0-5.6 2.8-7.3 5.3-3 16.2-14 18.4-4.7"/><path clip-path="url(#b)" fill="none" stroke="#000" stroke-width="3.666" stroke-linecap="round" stroke-linejoin="round" d="M197.1 158.7c.8 3.5-3.9 7.6-6.7 9.4-7.1 4.3-11.8 7.3-14.5 2.6-1-1.8 0-5.6 2.8-7.3 5.3-3 16.2-14 18.4-4.7z"/><path clip-path="url(#b)" fill="#FFF" d="M157.9 154.3c-.1-.2.9-2.8 4.7-7.8 1.8-2.3 11.6 3.9 13.6-5.2 2.1-9.8-22.4-5.3-25.9 1.7-.6 1.3-5.8 7.8-7.9 13.8"/><path clip-path="url(#b)" fill="none" stroke="#000" stroke-width="3.599" stroke-linecap="round" stroke-linejoin="round" d="M157.9 154.3c-.1-.2.9-2.8 4.7-7.8 1.8-2.3 11.6 3.9 13.6-5.2 2.1-9.8-22.4-5.3-25.9 1.7-.6 1.3-5.8 7.8-7.9 13.8"/></svg>