<svg xmlns="http://www.w3.org/2000/svg" viewBox="0 0 206.119 91.506" enable-background="new 0 0 206.119 91.506"><g><path fill="#2d4991" d="M152.002 34.926c-1.563-19.478-18.016-34.926-37.809-34.926-13.709 0-26.302 7.529-32.958 19.234-3.273-2.33-7.191-3.602-11.336-3.602-10.743 0-19.506 8.647-19.693 19.348-9.582 5.247-15.629 15.314-15.629 26.406 0 16.609 13.508 30.12 30.11 30.12h72.949c16.607 0 30.121-13.511 30.121-30.12.001-11.097-6.107-21.221-15.755-26.46zm-14.366 52.514h-72.948c-14.38 0-26.043-11.669-26.043-26.054 0-10.768 6.524-19.999 15.836-23.967-.091-.692-.212-1.376-.212-2.088 0-8.636 7.001-15.634 15.631-15.634 5.192 0 9.739 2.545 12.59 6.427 4.792-12.874 17.17-22.059 31.704-22.059 18.574 0 33.62 14.939 33.86 33.452 9.193 4.02 15.637 13.18 15.637 23.868 0 14.386-11.664 26.055-26.055 26.055z"/><path d="M167.758 61.386c0 6.108-1.833 11.794-4.97 16.546h24.607c8.942 0 16.195-7.256 16.195-16.202 0-6.696-4.057-12.437-9.847-14.904.057-.43.132-.856.132-1.298 0-5.37-4.354-9.722-9.72-9.722-3.229 0-6.056 1.583-7.829 3.997-2.98-8.006-10.677-13.717-19.715-13.717-2.132 0-4.187.321-6.125.909.775 2.545 1.298 5.196 1.517 7.932 9.647 5.238 15.755 15.362 15.755 26.459zM33.309 19.83c-11.55 0-20.907 9.29-21.056 20.802-5.717 2.5-9.724 8.196-9.724 14.842 0 8.945 7.253 16.202 16.202 16.202h17.658c-1.171-3.212-1.811-6.678-1.811-10.29 0-11.092 6.047-21.159 15.629-26.406.033-1.862.34-3.655.857-5.358-3.732-5.88-10.281-9.792-17.755-9.792z" fill="none"/><path fill="#2d4991" d="M196.4 45.31c-.117-6.655-5.566-12.032-12.246-12.032-2.577 0-5.014.791-7.049 2.24-4.139-7.279-11.97-11.961-20.495-11.961-2.408 0-4.733.379-6.928 1.061.295.779.559 1.574.803 2.376 1.938-.588 3.993-.909 6.125-.909 9.038 0 16.735 5.712 19.715 13.717 1.773-2.414 4.6-3.997 7.829-3.997 5.367 0 9.72 4.352 9.72 9.722 0 .443-.075.868-.132 1.298 5.791 2.467 9.847 8.208 9.847 14.904 0 8.945-7.253 16.202-16.195 16.202h-24.607c-.578.875-1.196 1.72-1.859 2.528h26.466c10.324 0 18.724-8.402 18.724-18.73.001-6.896-3.76-13.156-9.718-16.419zM18.731 71.676c-8.949 0-16.202-7.256-16.202-16.202 0-6.646 4.007-12.342 9.724-14.842.149-11.512 9.506-20.802 21.056-20.802 7.474 0 14.023 3.912 17.754 9.792.298-.98.674-1.924 1.114-2.834-4.383-5.846-11.354-9.486-18.868-9.486-12.308 0-22.539 9.606-23.511 21.719-6 3.257-9.798 9.553-9.798 16.453 0 10.328 8.404 18.73 18.731 18.73h18.717c-.389-.824-.745-1.666-1.059-2.528h-17.658z"/></g><g><path fill="#2d4991" d="M68.659 62.158c1.067.584 13.852 8.536 31.746 8.446 14.562-.073 23.386-4.475 24.239-4.821 1.972-.8 3.052.558 1.208 1.918 0 0-10 7.687-25.97 7.687-15.968 0-25.294-6.948-32.121-12.19-.854-.611-.215-1.649.898-1.04zM120.594 62.731c.809-.516 3.78-2.312 7.535-2.114 3.755.199 4.725.522 4.427 2.661-.348 3.034-1.294 6.615-4.353 9.251-1.143.672-1.019-.274-.72-.969.298-.696 1.866-4.451 1.939-6.616.075-2.164-2.338-1.641-3.432-1.691-1.094-.05-4.253.323-4.949.422-.696.1-1.158-.491-.447-.944zM83.3 50.148h-8.378v5.405h9.357v4.222h-14.491v-22.768h14.019v4.223h-8.885v4.729h8.378v4.189zM111.008 59.167c-.912.439-3.073.979-5.809.979-7.871 0-11.925-4.931-11.925-11.417 0-7.77 5.54-12.06 12.43-12.06 2.67 0 4.697.507 5.608 1.013l-1.082 4.054c-1.012-.439-2.465-.845-4.323-.845-4.054 0-7.229 2.466-7.229 7.533 0 4.56 2.702 7.431 7.261 7.431 1.589 0 3.278-.304 4.324-.743l.745 4.055zM120.238 59.775v-4.803s2.19-.835 4.483-2.841c2.67-2.335 5.498-5.973 5.516-7.353 0-1.791-1.046-3.21-3.58-3.21-1.892 0-3.547.946-4.695 1.791l-1.453-3.648c1.622-1.25 4.223-2.263 7.161-2.263 4.998 0 7.701 2.904 7.701 6.856 0 3.457-2.28 6.241-5.181 8.897-.218.2 1.505-.842 5.62 2.353v4.222c-6.917-5.001-15.572-.001-15.572-.001z"/></g></svg>