<svg width="55" height="48" viewBox="0 0 55 48" xmlns="http://www.w3.org/2000/svg"><g stroke="#B5D0E7" stroke-width="1.988" fill="none" fill-rule="evenodd" stroke-linecap="round" stroke-linejoin="round"><path d="M27.826 10.08v27.826M5.466 36.606c0-3.782 3.198-6.85 7.143-6.85h8.076c3.943 0 7.14-3.066 7.14-6.849M9.938 42.237a4.473 4.473 0 11-8.94-.003 4.473 4.473 0 018.94.003zM53.664 42.237a4.473 4.473 0 11-8.94-.003 4.473 4.473 0 018.94.003zM49.272 36.606a6.85 6.85 0 00-6.852-6.85h-7.745a6.85 6.85 0 01-6.848-6.849M23.354 42.237a4.473 4.473 0 108.943-.003 4.473 4.473 0 00-8.944.003zM24.56 2.18c-3.67 4.791 1.764 10.225 6.555 6.548 0 0 0 0 0 0 3.618-4.786-1.777-10.168-6.555-6.549z"/></g></svg>