<svg xmlns="http://www.w3.org/2000/svg" data-name="Layer 4" viewBox="0 0 67.83 65"><path fill="none" stroke="#b5d0e7" stroke-width="2" d="M28.76 8.4v40m-22.5-.35v-5.82a7 7 0 017.19-6.89h8.13a7 7 0 007.19-6.89" stroke-linecap="round" stroke-linejoin="round"/><path fill="#fefefe" d="M11.19 48.06a4.63 4.63 0 11-4.63-4.63 4.63 4.63 0 014.63 4.63"/><path fill="none" stroke="#b5d0e7" stroke-width="2" d="M10.76 47.9a4.5 4.5 0 11-4.5-4.5 4.5 4.5 0 014.5 4.5zm39.58.15v-5.82a6.89 6.89 0 00-6.89-6.89h-7.8a6.89 6.89 0 01-6.89-6.89" stroke-linecap="round" stroke-linejoin="round"/><path fill="#fefefe" d="M24.51 48.06a4.63 4.63 0 104.63-4.63 4.63 4.63 0 00-4.63 4.63"/><path fill="none" stroke="#b5d0e7" stroke-width="2" d="M24.26 47.9a4.5 4.5 0 104.5-4.5 4.5 4.5 0 00-4.5 4.5z" stroke-linecap="round" stroke-linejoin="round"/><path fill="#fefefe" d="M26 7.59c-3.69 4.82 1.77 10.29 6.59 6.59C36.21 9.37 30.78 4 26 7.59"/><path fill="none" stroke="#b5d0e7" stroke-width="2" d="M25.47 7.59c-3.69 4.82 1.77 10.29 6.59 6.59C35.71 9.37 30.28 4 25.47 7.59z" stroke-linecap="round" stroke-linejoin="round"/><path fill="#2c75be" d="M42.28 44.75v6.19c-3.06 3.42-12.53 3.06-13.35 7.74-.1.56.17 3.7.17 3.7h34.62a36.71 36.71 0 00.17-3.7c-.82-4.62-10.17-4.33-13.29-7.68v-6.25z"/><path fill="none" stroke="#fefefe" stroke-width="2" d="M42.28 44.75v6.19c-3.06 3.42-12.53 3.06-13.35 7.74-.1.56.17 3.7.17 3.7h34.62a36.71 36.71 0 00.17-3.7c-.82-4.62-10.17-4.33-13.29-7.68v-6.25z" stroke-linecap="round" stroke-linejoin="round"/><path fill="#2c75be" d="M53.32 41.3l.17-2c.41-4.72-2.74-9-7.08-9s-7.52 4.21-7.14 8.93c0 .64.16 2 .16 2 .39 4.91 3.56 8.43 6.92 8.44s6.55-3.49 7-8.4"/><path fill="none" stroke="#fefefe" stroke-width="2" d="M53.32 41.3l.17-2c.41-4.72-2.74-9-7.08-9s-7.52 4.21-7.14 8.93c0 .64.16 2 .16 2 .39 4.91 3.56 8.43 6.92 8.44s6.55-3.46 6.97-8.37z"/></svg>