<svg xmlns="http://www.w3.org/2000/svg" xmlns:xlink="http://www.w3.org/1999/xlink" width="66" height="44"><defs><path id="a" d="M.123.341h43.659V44H.123z"/><path id="c" d="M0 44h66V1H0z"/></defs><g fill="none" fill-rule="evenodd"><g transform="translate(22)"><mask id="b" fill="#fff"><use xlink:href="#a"/></mask><path fill="#1D2737" d="M29.844 17.212c0 4.212-3.017 6.07-6.697 6.699l-.332 2.654h-2.686l-.663-5.373.166-.165c4.21-.135 6.1-1.493 6.1-3.682v-.065c0-1.858-1.425-3.151-3.78-3.151-2.088 0-3.812.928-5.404 2.618l-2.488-2.65c1.924-2.19 4.41-3.68 7.992-3.68 4.643 0 7.792 2.586 7.792 6.73v.065zM19.168 33.925h4.442v-4.577h-4.442v4.577zM21.952.341C9.897.341.122 10.115.122 22.171S9.898 44 21.953 44c12.057 0 21.83-9.773 21.83-21.83 0-12.055-9.773-21.829-21.83-21.829z" mask="url(#b)"/></g><mask id="d" fill="#fff"><use xlink:href="#c"/></mask><path fill="#B5D0E7" d="M6.369 23.519h11.21v-2.635H6.369v2.635zM20.973 22.5c0-8.105 4.423-15.204 11.027-19.186A22.433 22.433 0 0 0 22.077 1C9.884 1 0 10.626 0 22.5S9.884 44 22.077 44c3.573 0 6.937-.846 9.923-2.314-6.604-3.982-11.027-11.081-11.027-19.186z" mask="url(#d)"/></g></svg>