<svg xmlns="http://www.w3.org/2000/svg" xmlns:xlink="http://www.w3.org/1999/xlink" width="67" height="45"><defs><path id="a" d="M0 .349h44.651V45H0z"/><path id="c" d="M.405.349h32.36V45H.405z"/></defs><g fill="none" fill-rule="evenodd"><mask id="b" fill="#fff"><use xlink:href="#a"/></mask><path fill="#1D2737" d="M30.397 17.603c0 4.308-3.086 6.208-6.85 6.851l-.34 2.715H20.46l-.678-5.495.17-.169c4.306-.138 6.24-1.527 6.24-3.767v-.066c0-1.9-1.458-3.222-3.867-3.222-2.135 0-3.899.95-5.526 2.678l-2.545-2.711c1.968-2.24 4.51-3.764 8.174-3.764 4.748 0 7.969 2.645 7.969 6.884v.066zm-10.92 17.093h4.544v-4.681h-4.543v4.68zM22.326.349C9.995.35 0 10.345 0 22.675S9.996 45 22.325 45c12.33 0 22.326-9.995 22.326-22.325S34.656.349 22.325.349z" mask="url(#b)"/><g transform="translate(34)"><mask id="d" fill="#fff"><use xlink:href="#c"/></mask><path fill="#B5D0E7" d="M22.282 23.887V28h-2.469v-4.113h-4.157v-2.425h4.157v-4.114h2.469v4.114h4.157v2.425h-4.157zM10.44.35A22.2 22.2 0 0 0 .405 2.75c6.678 4.136 11.15 11.508 11.15 19.923 0 8.416-4.472 15.789-11.15 19.924A22.193 22.193 0 0 0 10.44 45c12.33 0 22.325-9.996 22.325-22.326S22.77.35 10.44.35z" mask="url(#d)"/></g></g></svg>