
<svg width="73px" height="66px" viewBox="0 0 73 66" version="1.1" xmlns="http://www.w3.org/2000/svg" xmlns:xlink="http://www.w3.org/1999/xlink">
    <!-- Generator: Sketch 44.1 (41455) - http://www.bohemiancoding.com/sketch -->
    <desc>Created with Sketch.</desc>
    <defs></defs>
    <g id="12.1-13-App-detail" stroke="none" stroke-width="1" fill="none" fill-rule="evenodd">
        <g id="13-App-Detail---WAF" transform="translate(-185.000000, -1773.000000)">
            <g id="---Features-overview" transform="translate(185.000000, 1290.000000)">
                <g id="::-03" transform="translate(0.000000, 484.000000)">
                    <g id="icon" transform="translate(1.000000, 0.000000)">
                        <g id="Group-9" stroke-width="2" stroke="#B5D0E5">
                            <polygon id="Stroke-1" points="0 9.14285714 71 9.14285714 71 0 0 0"></polygon>
                            <polygon id="Stroke-3" points="0 18.2857143 71 18.2857143 71 9.14285714 0 9.14285714"></polygon>
                            <polygon id="Stroke-4" points="0 27.4285714 71 27.4285714 71 18.2857143 0 18.2857143"></polygon>
                            <polygon id="Stroke-5" points="0 36.5714286 71 36.5714286 71 27.4285714 0 27.4285714"></polygon>
                            <polygon id="Stroke-6" points="0 45.7142857 71 45.7142857 71 36.5714286 0 36.5714286"></polygon>
                            <polygon id="Stroke-7" points="0 54.8571429 71 54.8571429 71 45.7142857 0 45.7142857"></polygon>
                            <polygon id="Stroke-8" points="0 64 71 64 71 54.8571429 0 54.8571429"></polygon>
                        </g>
                        <polygon id="Fill-10" fill="#B5D0E5" points="16.0322581 8 18.3225806 8 18.3225806 1.14285714 16.0322581 1.14285714"></polygon>
                        <polygon id="Fill-11" fill="#B5D0E5" points="33.2096774 8 35.5 8 35.5 1.14285714 33.2096774 1.14285714"></polygon>
                        <polygon id="Fill-12" fill="#B5D0E5" points="51.5322581 8 53.8225806 8 53.8225806 1.14285714 51.5322581 1.14285714"></polygon>
                        <polygon id="Fill-13" fill="#B5D0E5" points="8.01612903 17.1428571 10.3064516 17.1428571 10.3064516 10.2857143 8.01612903 10.2857143"></polygon>
                        <polygon id="Fill-14" fill="#B5D0E5" points="24.0483871 17.1428571 26.3387097 17.1428571 26.3387097 10.2857143 24.0483871 10.2857143"></polygon>
                        <polygon id="Fill-15" fill="#B5D0E5" points="42.3709677 17.1428571 44.6612903 17.1428571 44.6612903 10.2857143 42.3709677 10.2857143"></polygon>
                        <polygon id="Fill-16" fill="#B5D0E5" points="60.6935484 17.1428571 62.983871 17.1428571 62.983871 10.2857143 60.6935484 10.2857143"></polygon>
                        <polygon id="Fill-17" fill="#B5D0E5" points="16.0322581 26.2857143 18.3225806 26.2857143 18.3225806 19.4285714 16.0322581 19.4285714"></polygon>
                        <polygon id="Fill-18" fill="#B5D0E5" points="33.2096774 26.2857143 35.5 26.2857143 35.5 19.4285714 33.2096774 19.4285714"></polygon>
                        <polygon id="Fill-19" fill="#B5D0E5" points="51.5322581 26.2857143 53.8225806 26.2857143 53.8225806 19.4285714 51.5322581 19.4285714"></polygon>
                        <polygon id="Fill-20" fill="#B5D0E5" points="8.01612903 35.4285714 10.3064516 35.4285714 10.3064516 28.5714286 8.01612903 28.5714286"></polygon>
                        <polygon id="Fill-21" fill="#B5D0E5" points="24.0483871 35.4285714 26.3387097 35.4285714 26.3387097 28.5714286 24.0483871 28.5714286"></polygon>
                        <polygon id="Fill-22" fill="#B5D0E5" points="42.3709677 35.4285714 44.6612903 35.4285714 44.6612903 28.5714286 42.3709677 28.5714286"></polygon>
                        <polygon id="Fill-23" fill="#B5D0E5" points="60.6935484 35.4285714 62.983871 35.4285714 62.983871 28.5714286 60.6935484 28.5714286"></polygon>
                        <polygon id="Fill-24" fill="#B5D0E5" points="16.0322581 44.5714286 18.3225806 44.5714286 18.3225806 37.7142857 16.0322581 37.7142857"></polygon>
                        <polygon id="Fill-25" fill="#B5D0E5" points="33.2096774 44.5714286 35.5 44.5714286 35.5 37.7142857 33.2096774 37.7142857"></polygon>
                        <polygon id="Fill-26" fill="#B5D0E5" points="51.5322581 44.5714286 53.8225806 44.5714286 53.8225806 37.7142857 51.5322581 37.7142857"></polygon>
                        <polygon id="Fill-27" fill="#B5D0E5" points="8.01612903 53.7142857 10.3064516 53.7142857 10.3064516 46.8571429 8.01612903 46.8571429"></polygon>
                        <polygon id="Fill-28" fill="#B5D0E5" points="24.0483871 53.7142857 26.3387097 53.7142857 26.3387097 46.8571429 24.0483871 46.8571429"></polygon>
                        <polygon id="Fill-29" fill="#B5D0E5" points="42.3709677 53.7142857 44.6612903 53.7142857 44.6612903 46.8571429 42.3709677 46.8571429"></polygon>
                        <polygon id="Fill-30" fill="#B5D0E5" points="60.6935484 53.7142857 62.983871 53.7142857 62.983871 46.8571429 60.6935484 46.8571429"></polygon>
                        <polygon id="Fill-31" fill="#B5D0E5" points="16.0322581 62.8571429 18.3225806 62.8571429 18.3225806 56 16.0322581 56"></polygon>
                        <polygon id="Fill-32" fill="#B5D0E5" points="33.2096774 62.8571429 35.5 62.8571429 35.5 56 33.2096774 56"></polygon>
                        <polygon id="Fill-33" fill="#B5D0E5" points="51.5322581 62.8571429 53.8225806 62.8571429 53.8225806 56 51.5322581 56"></polygon>
                        <g id="Group-44" transform="translate(12.596774, 9.142857)">
                            <g id="Group-37">
                                <path d="M22.9344887,0.0792 L22.9344887,0.0792 C35.5850855,0.0974857143 45.8228274,10.3454857 45.8067952,22.9683429 C45.7861823,35.5900571 35.5198113,45.8129143 22.8692145,45.7934857 C10.2209081,45.7740571 -0.016833871,35.5249143 0.000343548387,22.9032 C0.0198112903,10.2803429 10.2861823,0.0609142857 22.9344887,0.0792" id="Fill-34" fill="#FFFFFF"></path>
                                <path d="M22.9344887,0.0792 L22.9344887,0.0792 C35.5850855,0.0974857143 45.8228274,10.3454857 45.8067952,22.9683429 C45.7861823,35.5900571 35.5198113,45.8129143 22.8692145,45.7934857 C10.2209081,45.7740571 -0.016833871,35.5249143 0.000343548387,22.9032 C0.0198112903,10.2803429 10.2861823,0.0609142857 22.9344887,0.0792" id="Stroke-36" stroke="#B5D0E5" stroke-width="2.2"></path>
                            </g>
                            <path d="M22.9670113,5.71428571 L22.9670113,5.71428571 C32.4764306,5.728 40.1719145,13.432 40.1616081,22.9211429 C40.1455758,32.408 32.4271887,40.0925714 22.9177694,40.0777143 C13.40835,40.0651429 5.71286613,32.3588571 5.7254629,22.872 C5.74035,13.3828571 13.4587371,5.70057143 22.9670113,5.71428571" id="Fill-38" fill="#EC3127"></path>
                            <path d="M22.9423903,13.7198857 C15.0568097,13.7198857 11.764471,21.9850286 11.6293419,22.3370286 C11.4953581,22.6833143 11.4758903,23.0638857 11.5778097,23.4216 C12.438971,26.4536 15.9191161,32.1896 22.9423903,32.1896 C29.9668097,32.1896 33.4481,26.4536 34.3081161,23.4216 C34.4088903,23.0638857 34.3905677,22.6833143 34.257729,22.3370286 C34.1226,21.9850286 30.8302613,13.7198857 22.9423903,13.7198857 M22.9423903,15.4341714 C29.7412129,15.4341714 32.6545032,22.9541714 32.6545032,22.9541714 C32.6545032,22.9541714 30.5222129,30.4753143 22.9423903,30.4753143 C15.3625677,30.4753143 13.2325677,22.9541714 13.2325677,22.9541714 C13.2325677,22.9541714 16.1435677,15.4341714 22.9423903,15.4341714" id="Fill-40" fill="#FEFEFE"></path>
                            <path d="M18.7285403,22.9553143 C18.7285403,20.6318857 20.614621,18.7484571 22.943879,18.7484571 C25.2697016,18.7484571 27.1569274,20.6318857 27.1569274,22.9553143 C27.1569274,25.2764571 25.2697016,27.1610286 22.943879,27.1610286 C20.614621,27.1610286 18.7285403,25.2764571 18.7285403,22.9553143 Z" id="Stroke-42" stroke="#FEFEFE" stroke-width="1.5" stroke-linecap="round" stroke-linejoin="round"></path>
                        </g>
                    </g>
                </g>
            </g>
        </g>
    </g>
</svg>