<svg xmlns="http://www.w3.org/2000/svg" xmlns:xlink="http://www.w3.org/1999/xlink" width="80" height="47" viewBox="0 0 80 47"><path fill="#8EB1D8" d="M11.8 33.4l4.6-19.3h10.3l-.8 3.3h-6.3l-1.1 4.4h5l-.8 3.3h-4.9l-2 8.3M27.7 16.3l.7-3.1H32l-.7 3.1h-3.6zm3 2.6l-3.4 14.6h-3.6l3.4-14.6h3.6zM32.7 18.9h3.8l1.1 4.1 3.1-4.1h3.8L38.9 26l2.4 7.4h-3.8l-1.3-4.7-3.4 4.7H29l6-7.5M51.4 33.4L56 14.1h3.9l-4.6 19.3"/><defs><path id="a" d="M0 0h80v47H0z"/></defs><clipPath id="b"><use xlink:href="#a" overflow="visible"/></clipPath><path clip-path="url(#b)" fill="#8EB1D8" d="M60.2 22.2l.6-2.7h1.4l.9-4h3.6l-.9 4h2.3l-.6 2.7h-2.3l-1.8 7.5c-.2.7.4 1.1 1.4 1.1h.7l-.7 2.8c-.7.1-1.4.1-2.1.1-2.3 0-3.7-.8-3.2-2.9l2-8.6h-1.3z"/><path clip-path="url(#b)" fill="#8EB1D8" d="M75 37.6c0 2.6-2.3 4.7-5 4.7H10c-2.8 0-5-2.1-5-4.7V9.4c0-2.6 2.2-4.7 5-4.7h60c2.8 0 5 2.1 5 4.7v28.2zM70 0H10C4.5 0 0 4.2 0 9.4v28.2C0 42.8 4.5 47 10 47h60c5.5 0 10-4.2 10-9.4V9.4C80 4.2 75.5 0 70 0"/></svg>