<svg width="93" height="68" viewBox="0 0 93 68" xmlns="http://www.w3.org/2000/svg"><g fill="none" fill-rule="evenodd"><g fill="#D9312D"><path d="M16.859 67.757a2.443 2.443 0 01-2.44-2.444V9.133L4.223 20.087a2.438 2.438 0 01-3.449.12 2.448 2.448 0 01-.117-3.454l14.42-15.488a2.436 2.436 0 012.677-.606 2.436 2.436 0 011.545 2.271v62.384a2.443 2.443 0 01-2.44 2.444"/><path d="M31.284 20.861a2.43 2.43 0 01-1.782-.775L15.076 4.597a2.448 2.448 0 01.117-3.454 2.435 2.435 0 013.449.12l14.429 15.49a2.448 2.448 0 01-.12 3.453 2.443 2.443 0 01-1.667.655"/></g><path d="M53.56 12.962H41.305a2.443 2.443 0 01-2.44-2.444 2.44 2.44 0 012.44-2.444H53.56c1.35 0 2.44 1.092 2.44 2.444a2.44 2.44 0 01-2.44 2.444M65.819 30.028H41.305a2.443 2.443 0 01-2.44-2.444 2.443 2.443 0 012.44-2.444h24.514a2.443 2.443 0 012.44 2.444 2.443 2.443 0 01-2.44 2.444M78.078 47.093H41.305a2.443 2.443 0 01-2.44-2.444 2.443 2.443 0 012.44-2.444h36.773a2.443 2.443 0 012.44 2.444 2.443 2.443 0 01-2.44 2.444M90.33 64.162H41.305a2.443 2.443 0 01-2.44-2.444 2.44 2.44 0 012.44-2.444H90.33a2.44 2.44 0 012.44 2.444 2.443 2.443 0 01-2.44 2.444" fill="#2E8BE0"/></g></svg>