<svg width="66" height="49" viewBox="0 0 66 49" xmlns="http://www.w3.org/2000/svg"><g fill="none" fill-rule="evenodd"><g fill="#D9312D"><path d="M11.972 48.517a1.733 1.733 0 01-1.733-1.733V6.954L3 14.72c-.652.7-1.747.737-2.45.086a1.734 1.734 0 01-.082-2.45l10.24-10.98a1.732 1.732 0 012.998 1.18v44.23c0 .956-.776 1.732-1.733 1.732"/><path d="M22.216 15.27c-.462 0-.926-.186-1.266-.55L10.706 3.737a1.731 1.731 0 112.532-2.363l10.247 10.98a1.734 1.734 0 01-1.269 2.914"/></g><path d="M38.035 9.669h-8.703a1.733 1.733 0 010-3.466h8.703a1.732 1.732 0 110 3.466M46.74 21.768H29.333a1.733 1.733 0 010-3.465h17.409a1.733 1.733 0 010 3.465M55.446 33.867H29.332a1.733 1.733 0 010-3.465h26.114a1.733 1.733 0 010 3.465M64.147 45.969H29.332a1.733 1.733 0 010-3.466h34.815a1.732 1.732 0 110 3.466" fill="#B2CBD9"/></g></svg>