<svg xmlns="http://www.w3.org/2000/svg" width="70" height="70" viewBox="0 0 70 70"><g fill="#8EB1D8"><path d="M69.8 31.2c-.2-1.8-1.5-3.3-3.3-3.8l-7-1.7-.6-1.5 3.7-6.2c.9-1.6.8-3.6-.3-5-1.6-2-3.4-3.8-5.4-5.4-.8-.6-1.8-1-2.7-1-.8 0-1.6.2-2.2.6l-6.2 3.7-1.5-.6-1.7-7c-.4-1.8-2-3.1-3.8-3.3-1.3.1-2.5 0-3.8 0-1.3 0-2.5.1-3.8.2-1.8.2-3.3 1.5-3.8 3.3l-1.7 7-1.5.6L18 7.4c-.7-.4-1.5-.6-2.3-.6-1 0-1.9.3-2.7 1-2 1.6-3.8 3.4-5.4 5.4-1.1 1.4-1.3 3.4-.3 5l3.7 6.2-.6 1.5-7 1.7c-1.8.4-3.1 2-3.3 3.8 0 1.1-.1 2.3-.1 3.6 0 1.3.1 2.5.2 3.8.2 1.8 1.5 3.3 3.3 3.8l7 1.7.6 1.5L7.4 52c-.9 1.6-.8 3.6.3 5 1.6 2 3.4 3.8 5.4 5.4.8.6 1.8 1 2.7 1 .8 0 1.6-.2 2.3-.6l6.2-3.7 1.5.6 1.7 7c.4 1.8 2 3.1 3.8 3.3 1.3.1 2.5.2 3.8.2 1.3 0 2.5-.1 3.8-.2 1.8-.2 3.3-1.5 3.8-3.3l1.7-7 1.5-.6 6.2 3.7c.7.4 1.5.6 2.2.6 1 0 1.9-.3 2.7-1 2-1.6 3.8-3.4 5.4-5.4 1.1-1.4 1.3-3.4.3-5L59 45.8l.6-1.5 7-1.7c1.8-.4 3.1-2 3.3-3.8.1-1.3.2-2.5.2-3.8-.1-1.3-.2-2.5-.3-3.8zm-2.7 7.3l-.1 1.1-9.6 2.4c-.4 1.3-1 2.6-1.6 3.9l5 8.4-.7.9c-1.5 1.8-3.1 3.5-5 5l-.9.7-8.4-5c-1.2.7-2.5 1.2-3.9 1.6L39.6 67l-1.1.1c-1.2.1-2.4.2-3.5.2s-2.3-.1-3.5-.2l-1.1-.1-2.4-9.6c-1.3-.4-2.6-1-3.9-1.6l-8.4 5-.9-.7c-1.8-1.5-3.5-3.1-5-5l-.7-.9 5-8.4c-.7-1.2-1.2-2.6-1.6-3.9L3 39.6l-.1-1.1c-.1-1.2-.2-2.3-.2-3.5 0-1.2.1-2.3.2-3.5l.1-1.1 9.5-2.4c.4-1.3 1-2.6 1.6-3.9l-5-8.4.7-.9c1.5-1.8 3.1-3.5 5-5l.9-.7 8.4 5c1.2-.7 2.6-1.2 3.9-1.6L30.4 3l1.1-.1c2.3-.3 4.7-.3 7 0l1.1.1 2.4 9.5c1.3.4 2.6 1 3.9 1.6l8.4-5 .9.7c1.8 1.5 3.5 3.1 5 5l.7.9-5 8.4c.7 1.2 1.2 2.6 1.6 3.9l9.5 2.4.1 1.1c.1 1.2.2 2.3.2 3.5 0 1.2-.1 2.3-.2 3.5z"/><path d="M35 20.8c-7.8 0-14.2 6.4-14.2 14.2 0 7.8 6.4 14.2 14.2 14.2 7.8 0 14.2-6.4 14.2-14.2 0-7.8-6.4-14.2-14.2-14.2zm0 25.3c-6.1 0-11.1-5-11.1-11.1s5-11.1 11.1-11.1 11.1 5 11.1 11.1-5 11.1-11.1 11.1z"/></g></svg>