<svg xmlns="http://www.w3.org/2000/svg" width="62" height="62" viewBox="0 0 62 62">
  <g fill="none" fill-rule="evenodd" transform="translate(1 1)">
    <path stroke="#B5D0E7" stroke-linecap="round" stroke-linejoin="round" stroke-width="2" d="M49.9206,46.1574 L48.5476,53.5824 C44.1606,57.0404 38.7826,59.2974 32.9096,59.8604 C32.4676,58.9224 31.8676,58.0754 31.1396,57.3554 C30.1346,56.3654 28.8896,55.6224 27.4946,55.2174 C26.4296,54.9104 25.4926,54.3324 24.7496,53.5604 C24.0146,52.7874 23.4676,51.8274 23.1976,50.7554 C22.3496,47.3424 23.7746,43.7724 26.7446,41.8894 L27.0146,41.7244 C28.1626,40.9894 28.2146,39.3244 27.1126,38.5294 L20.8796,34.0294 C17.4146,31.5324 14.3616,28.5014 11.8346,25.0594 L10.3716,23.0644 C8.5716,20.6114 7.6046,17.6494 7.6046,14.6114 L7.6046,10.0514 C13.0946,3.8864 21.0976,0.0014 29.9996,0.0014 C35.3776,0.0014 40.4256,1.4184 44.7976,3.9014 C43.3956,5.9184 41.5126,7.5764 39.3076,8.7164 C38.3256,9.2264 37.5306,9.8564 37.2676,10.8084 C37.0876,11.4684 37.0056,12.1434 37.0056,12.8114 C37.0056,14.4314 37.5156,16.0294 38.4976,17.3644 C38.8206,17.7994 39.0826,18.2714 39.2856,18.7664 L40.1026,20.7544 C40.1856,20.9494 40.2156,21.1444 40.2156,21.3394 C40.2156,21.9614 39.8406,22.5544 39.2176,22.7944 C38.6176,23.0264 37.9276,22.8614 37.5006,22.3814 L35.8426,20.5214 C35.2576,19.8764 34.5826,19.3214 33.8326,18.8864 L31.7546,17.6644 C30.2396,16.7714 28.4776,16.3814 26.7296,16.5544 L24.5546,16.7564 C23.5646,16.8544 22.6196,17.1914 21.8096,17.7164 C20.9926,18.2414 20.3096,18.9614 19.8146,19.8244 C18.8776,21.4594 18.7426,23.4314 19.4546,25.1794 L19.8446,26.1314 C20.1446,26.8744 21.0596,27.1364 21.7126,26.6794 L23.2646,25.5994 C23.8726,25.1714 24.6676,25.1264 25.3196,25.4864 L27.2096,26.5294 C27.7576,26.8294 28.1246,27.3694 28.2076,27.9844 L28.6126,31.1574 C28.8826,33.2494 29.8796,35.1844 31.4246,36.6244 L32.1226,37.2694 C33.0446,38.1244 34.3726,38.3724 35.5356,37.9074 L36.4056,37.5544 C38.2656,36.8124 40.3726,36.9994 42.0756,38.0574 L47.9476,41.7024 C49.4626,42.6394 50.2426,44.4094 49.9206,46.1574 Z"/>
    <path stroke="#B5D0E7" stroke-linecap="round" stroke-linejoin="round" stroke-width="2" d="M0,30.001 C0,13.432 13.431,0 30,0 C46.569,0 60,13.432 60,30.001 C60,46.57 46.569,60.002 30,60.002 C13.431,60.002 0,46.57 0,30.001 Z"/>
    <path fill="#2E8BE0" d="M31.1052,28.9396 L57.8682,28.9396 C59.3132,28.9396 60.4852,30.1106 60.4852,31.5556 L60.4852,58.3196 C60.4852,59.7646 59.3132,60.9356 57.8682,60.9356 L31.1052,60.9356 C29.6602,60.9356 28.4892,59.7646 28.4892,58.3196 L28.4892,31.5556 C28.4892,30.1106 29.6602,28.9396 31.1052,28.9396"/>
    <polygon stroke="#FEFEFE" stroke-linecap="round" stroke-linejoin="round" stroke-width="2" points="33 46.331 44.355 35.744 50 46.334 34.882 49.861"/>
    <path stroke="#FEFEFE" stroke-linecap="round" stroke-linejoin="round" stroke-width="2" d="M39.8694,49.4685 L41.6134,52.7395 C41.9494,53.3695 41.7104,54.1525 41.0804,54.4885 L41.0804,54.4885 C40.4504,54.8245 39.6674,54.5865 39.3314,53.9565 L37.1174,49.8025"/>
    <path stroke="#FEFEFE" stroke-linejoin="round" stroke-width="2" d="M49.8245 39.628L55.1195 36.805M47.9427 36.0983L51.0017 33.3343M51.7064 43.1577L55.7064 42.1587"/>
  </g>
</svg>
