<svg xmlns="http://www.w3.org/2000/svg" viewBox="0 0 30 30"><path fill="#ceecf7" d="M15 0C6.7 0 0 6.7 0 15s6.7 15 15 15 15-6.7 15-15S23.3 0 15 0zm5.6 5.9l1.1-.7s-.5-1.2-.4-1.7c.3-.1 1.3.4 2.2 1.4-.6 2.2-2 2-2 2s-1-.1-.9-1zm-9 13.2c-.1.3-.5 1.1-.7 1.7-.3.5-.4.7-.7 1-.3.3-.5.7-.5.7l-.1 1.1s.1.9.3 1.3c.2.3-.7 2.3-.7 2.3-.7 0-1-.7-1.2-1.2-.2-.5-.5-.8-.4-1.4.1-.6-.5-.9-.7-1.3-.2-.3-.5-.8-.5-1.1 0-.3-.7-.8-.7-.8s-1.3-.6-1.5-.9c-.2-.3-.4-1.4-.5-1.9-.1-.5.2-1.7.2-1.7s.5-.4.2-.7c-.4-.3-.4-1.2-.4-1.2l-.6-.7s-.5-.7-.5-1c-.1-.3 0-.5.1-.9.1-.3-.1-.9-.1-1.3C5 5 9.2 3.6 9.2 3.6L9.5 5s-.7.2-1.1.1c-.4-.2-.6-.2-.6-.2l-.6.8s-.2.5-.3.7c0 .3.2.7.2.7s.9 0 .9-.2c0-.3-.1-.4-.1-.4L7.8 6s.6-.3 2.2-.2c1.6.1 1 1.3 1.7 1.5.7.3-.5 1.2-.8 1.7-.3.5-.7-.7-.7-.7s.4-.5-.3-.6c-.7 0-1.1 1.3-.8 1.2.3-.1.7.4.6.7-.1.3-.1.3-.4 1-.3.8-1 1.4-1 1.4s-.3-.2-.1.2c.2.4-.1 1.3-.1 1.6 0 .3-.8-.5-.9-1.1-.2-.7-1-.2-1.2-.1-.3.1-.8-.1-.9-.5-.1-.3-1.3.7-1.7.9-.3.2-.2.7.3.5.5-.3 1-.1.9.5-.1.5-.7.2-.6.5.1.3.6.7.7 1.1.1.5 1.4.1 1.8-.1.4-.2 1.5-.4 1.7.1.1.5 1.4.7 1.9.9.5.1 1.4.2 1.9.7.6.6-.3 1.6-.4 1.9zm3-15.7c-.1.7-1.1 1.5-1 1.8.1.3 0 1.4-.9.4-.9-1-1.9-1.3-1.8-2 0-.1 1-.3 1-.6 1.4-1.3 3.7-1.1 3.9-.7-.5.7-1.1.5-1.2 1.1zm12.1 12s.5.8 1.3.7c-.5 5.6-5.2 9.2-5.2 9.2-.7-.7-.4-1.3-.4-1.3l.2-1.1.1-1.8s0-1.9-1.8-1c-1.9.5-1.1.5-3.1.6-1.9.1-1.6-4-1.6-4 0-6.1 4.7-1.5 4.7-1.5 2.7 1.8 3-1.5 3-1.5l2-.7.2-.9-.3-1.3-2.9-1.2s-.3.9.5 2.1c0 0-.2 1.3-.8 1L21 12s-.6-.2-1.5.3-2.4 0-2.4 0 .1-.9 1.1-1.4l.8-.5s-.2-.9 0-1.6c.2-.7.5-.1 1.2-.6s1.2 1.1 2.3.9c1.1-.2.5-.4 1.3-.7.6-.5 1.2.6 1.2.6l1.4.2s-.2-1.6-.1-1.2c.9 1.6 2.2 5.7 1.7 6.5-.3-.1-.5-.2-.5-.2h-1.8l1 1.1z"/></svg>