<svg xmlns="http://www.w3.org/2000/svg" xmlns:xlink="http://www.w3.org/1999/xlink" width="68" height="68"><defs><path id="a" d="M0 .449h67v66.923H0z"/><path id="c" d="M.198.991h32.01v32.008H.198z"/></defs><g fill="none" fill-rule="evenodd"><path fill="#B5D0E7" d="M54.84 51.075h.01-.01zm-44.677-38.69v4.522c0 3.087.961 6.03 2.782 8.515l1.583 2.162a43.027 43.027 0 009.54 9.477l6.74 4.875a3.157 3.157 0 011.308 2.654 3.185 3.185 0 01-1.462 2.596l-.313.191c-2.803 1.78-4.155 5.167-3.35 8.417.24.947.728 1.83 1.414 2.553a5.614 5.614 0 002.484 1.501 10.41 10.41 0 016.175 4.913 31.125 31.125 0 0015.303-6.246l1.41-7.637a3.574 3.574 0 00-1.64-3.706l-6.351-3.95a5.765 5.765 0 00-5.162-.459l-.934.38a4.617 4.617 0 01-4.831-.9l-.754-.698a10.932 10.932 0 01-3.38-6.578l-.437-3.439a1.022 1.022 0 00-.526-.762l-2.048-1.131a1.005 1.005 0 00-1.077.06l-1.683 1.173a2.42 2.42 0 01-2.083.337 2.405 2.405 0 01-1.556-1.413l-.421-1.027a7.686 7.686 0 01.45-6.75 7.728 7.728 0 012.514-2.656 7.766 7.766 0 013.446-1.206l2.358-.22a10.117 10.117 0 016.083 1.348l2.246 1.323a10.193 10.193 0 012.427 1.977l1.798 2.023c.162.18.435.245.66.156a.608.608 0 00.352-.773l-.89-2.168a5.884 5.884 0 00-.72-1.285 9.353 9.353 0 01-1.825-5.576c0-.844.108-1.67.32-2.454.437-1.582 1.78-2.437 2.752-2.942a15.418 15.418 0 004.814-3.903 31.353 31.353 0 00-14.38-3.493 31.353 31.353 0 00-23.136 10.22zM36.443 67c-.414 0-.797-.24-.977-.622a8.456 8.456 0 00-1.695-2.404 8.242 8.242 0 00-3.483-2.045 7.785 7.785 0 01-3.447-2.084 7.954 7.954 0 01-1.947-3.523 9.923 9.923 0 014.305-10.784l.308-.188a.997.997 0 00.448-.82.985.985 0 00-.412-.837l-6.74-4.875a45.22 45.22 0 01-10.02-9.953l-1.581-2.161A16.468 16.468 0 018 16.907V11.97c0-.266.096-.522.274-.72A33.518 33.518 0 0133.298 0a33.483 33.483 0 0116.536 4.366c.264.15.453.405.521.7.066.299.006.61-.167.86a17.566 17.566 0 01-6.328 5.56c-.985.512-1.498 1.002-1.66 1.59a7.167 7.167 0 00-.245 1.882c0 1.557.485 3.04 1.404 4.289.395.535.726 1.125.98 1.751l.883 2.152c.133.312.205.669.205 1.046a2.786 2.786 0 01-1.774 2.585 2.766 2.766 0 01-3.051-.737L38.81 24.03a8.003 8.003 0 00-1.909-1.553l-2.253-1.328a7.92 7.92 0 00-4.78-1.057l-2.357.22a5.58 5.58 0 00-4.289 2.78 5.532 5.532 0 00-.326 4.855l.421 1.028c.04.1.113.139.168.154a.26.26 0 00.232-.037l1.68-1.17a3.149 3.149 0 013.364-.183l2.042 1.129a3.213 3.213 0 011.629 2.38l.439 3.445a8.745 8.745 0 002.706 5.265l.751.696a2.438 2.438 0 002.554.48l.936-.379a7.924 7.924 0 017.11.628l6.348 3.947a5.728 5.728 0 012.627 5.942v.001l-1.485 8.041c-.048.26-.187.492-.394.654a33.269 33.269 0 01-17.476 7.028 1.11 1.11 0 01-.104.005z"/><mask id="b" fill="#fff"><use xlink:href="#a"/></mask><path fill="#B5D0E7" d="M33.5 2.608C16.22 2.608 2.161 16.65 2.161 33.91c0 17.26 14.06 31.303 31.339 31.303 17.28 0 31.339-14.043 31.339-31.303S50.779 2.608 33.5 2.608m0 64.764C15.027 67.372 0 52.36 0 33.91 0 15.46 15.027.45 33.5.45S67 15.459 67 33.91c0 18.45-15.027 33.462-33.5 33.462" mask="url(#b)"/><g transform="translate(35 34)"><mask id="d" fill="#fff"><use xlink:href="#c"/></mask><path fill="#ED2E26" d="M16.226.991c8.84.013 15.994 7.19 15.982 16.028C32.195 25.857 25.02 33.013 16.181 33 7.34 32.988.186 25.811.198 16.973.21 8.135 7.386.978 16.226.991" mask="url(#d)"/></g><path fill="#FEFEFE" d="M51 44.578c6.544 0 9.346 6.921 9.346 6.921S58.294 58.422 51 58.422c-7.295 0-9.347-6.923-9.347-6.923s2.804-6.921 9.347-6.921M51 43c-7.59 0-10.758 7.606-10.89 7.931a1.522 1.522 0 00-.048.999C40.89 54.72 44.24 60 51 60c6.76 0 10.11-5.28 10.938-8.07.097-.33.08-.68-.049-.999C61.76 50.606 58.59 43 51 43"/><path fill="#FEFEFE" d="M51 48.693A3.311 3.311 0 0047.694 52 3.311 3.311 0 0051 55.307 3.31 3.31 0 0054.307 52a3.31 3.31 0 00-3.306-3.307M51 57c-2.756 0-5-2.243-5-5s2.244-5 5-5 5 2.243 5 5-2.244 5-5 5"/></g></svg>