<svg width="46" height="47" viewBox="0 0 46 47" xmlns="http://www.w3.org/2000/svg"><g fill="none" fill-rule="evenodd"><g stroke="#B5D0E5" stroke-linecap="round" stroke-linejoin="round" stroke-width="1.57"><path d="M37.735 34.98l-1.01 5.326a21.233 21.233 0 01-11.296 4.5c-.276-.643-.735-1.286-1.286-1.837a6.033 6.033 0 00-2.663-1.56c-.735-.185-1.47-.644-2.02-1.195-.552-.55-.92-1.285-1.103-2.02-.643-2.48.46-5.051 2.572-6.429l.183-.092c.827-.55.827-1.744.092-2.295l-4.5-3.215c-2.48-1.836-4.684-3.949-6.52-6.428l-1.01-1.47c-1.286-1.745-2.02-3.949-2.02-6.06V8.99c3.948-4.408 9.734-7.255 16.162-7.255 3.857 0 7.53 1.01 10.653 2.847a11.094 11.094 0 01-3.949 3.49c-.642.275-1.285.734-1.469 1.469-.092.459-.184.918-.184 1.47 0 1.193.368 2.295 1.102 3.305.276.276.46.643.551 1.01l.551 1.47c.092.184.092.275.092.46 0 .458-.275.917-.734 1.01-.46.183-.919.091-1.194-.276l-1.194-1.378a9.273 9.273 0 00-1.47-1.194l-1.469-.918a6.252 6.252 0 00-3.582-.827l-1.56.184c-.736.092-1.378.276-2.021.735a4.807 4.807 0 00-1.47 1.561 4.715 4.715 0 00-.275 3.857l.275.643c.184.551.919.735 1.378.367l1.102-.734c.46-.276 1.01-.368 1.47-.092l1.377.735c.367.183.643.642.735 1.01l.275 2.296c.184 1.47.918 2.938 2.02 3.949l.552.367a2.257 2.257 0 002.48.46l.642-.276c1.378-.551 2.847-.368 4.133.367l4.224 2.663c1.01.735 1.561 2.02 1.378 3.215z"/><path d="M1.735 23.316c0-11.938 9.643-21.673 21.673-21.673a21.596 21.596 0 0121.674 21.673c0 12.03-9.827 21.674-21.766 21.674-11.938 0-21.581-9.735-21.581-21.674z"/></g><path d="M35.071 24.418c5.97 0 10.837 4.868 10.837 10.837 0 5.97-4.867 10.837-10.837 10.837-5.969 0-10.836-4.868-10.836-10.837 0-5.97 4.867-10.837 10.836-10.837" fill="#B5D0E5"/><path d="M35.071 29.47c-4.959 0-7.071 5.234-7.163 5.418a.784.784 0 000 .643c.551 1.928 2.755 5.51 7.163 5.51 4.409 0 6.613-3.582 7.164-5.51a.784.784 0 000-.643c-.184-.184-2.204-5.419-7.164-5.419m0 1.102c4.317 0 6.153 4.776 6.153 4.776s-1.377 4.775-6.153 4.775c-4.775 0-6.153-4.775-6.153-4.775s1.837-4.776 6.153-4.776" fill="#FFF" fill-rule="nonzero"/><path d="M32.408 35.347a2.665 2.665 0 012.663-2.663 2.665 2.665 0 012.664 2.663 2.665 2.665 0 01-2.664 2.663 2.665 2.665 0 01-2.663-2.663z" stroke="#FFF" stroke-width="1.178" stroke-linecap="round" stroke-linejoin="round"/></g></svg>