<svg xmlns="http://www.w3.org/2000/svg" xmlns:xlink="http://www.w3.org/1999/xlink" width="45" height="44"><defs><path id="a" d="M0 44h44.619V.456H0z"/></defs><g fill="none" fill-rule="evenodd"><path fill="#B4CEE6" d="M3.097 38.944h38.425V24.029H3.097v14.915zm40.51 2.023H1.011v-18.96h42.533v18.96h.063z"/><path fill="#B4CEE6" d="M16.18 18.151v-.758H1.01v6.636h2.022v-4.614H14.6c.38-.569.885-1.01 1.58-1.264M43.607 24.029h-2.085v-4.614H28.945v-2.022h14.662z"/><mask id="b" fill="#fff"><use xlink:href="#a"/></mask><path fill="#B4CEE6" mask="url(#b)" d="M0 44h44.619v-2.022H0zM30.083 40.461h2.022V22.513h-2.022zM12.514 40.461h2.022V22.513h-2.022zM6.699 40.461h2.022V22.513H6.699zM35.897 40.967h2.022V23.018h-2.022zM21.298 11.831h2.022V.961h-2.022z"/><path fill="#B4CEE6" d="M23.32 5.575h7.205V2.478H23.32v3.097zM21.298 7.66h11.25V.456h-11.25V7.66zM33.116 23.776L22.309 13.159 11.502 23.776l-1.453-1.454 12.26-12.008L34.57 22.322z" mask="url(#b)"/><path fill="#B4CEE6" d="M3.097 38.944h38.425V24.029H3.097v14.915zm40.51 2.023H1.011v-18.96h42.533v18.96h.063z" mask="url(#b)"/><path fill="#B4CEE6" d="M16.18 18.151v-.758H1.01v6.636h2.022v-4.614H14.6c.38-.569.885-1.01 1.58-1.264M43.607 24.029h-2.085v-4.614H28.945v-2.022h14.662zM0 44h44.619v-2.022H0zM30.083 40.461h2.022V22.513h-2.022zM12.514 40.461h2.022V22.513h-2.022z" mask="url(#b)"/><path fill="#B4CEE6" mask="url(#b)" d="M6.699 40.461h2.022V22.513H6.699zM35.897 40.967h2.022V23.018h-2.022zM21.298 11.831h2.022V.961h-2.022z"/><path fill="#B4CEE6" d="M23.32 5.575h7.205V2.478H23.32v3.097zM21.298 7.66h11.25V.456h-11.25V7.66zM33.116 23.776L22.309 13.159 11.502 23.776l-1.453-1.454 12.26-12.008L34.57 22.322z" mask="url(#b)"/></g></svg>