<svg width="64" height="63" xmlns="http://www.w3.org/2000/svg"><g fill="none" fill-rule="evenodd"><path fill="#FEFEFE" d="M1 44.312h62v-6H1"/><path stroke="#B5D0E7" stroke-width="2" stroke-linecap="round" stroke-linejoin="round" d="M1 44h62v-6H1z"/><path stroke="#B5D0E7" stroke-width="2" d="M57.518 62H6.482L4 44h56z"/><path d="M32 36.312v-26" stroke="#B5D0E7" stroke-width="2" stroke-linecap="round" stroke-linejoin="round"/><path d="M34.95 29.93c-2.033 2.032-3.01 4.715-2.947 7.38 2.663.06 5.346-.915 7.378-2.948 2.034-2.032 3.01-4.715 2.948-7.378-2.664-.063-5.347.914-7.38 2.946" fill="#FEFEFE"/><path d="M34.95 29.93c-2.033 2.032-3.01 4.715-2.947 7.38 2.663.06 5.346-.915 7.378-2.948 2.034-2.032 3.01-4.715 2.948-7.378-2.664-.063-5.347.914-7.38 2.946z" stroke="#B5D0E7" stroke-width="2" stroke-linecap="round" stroke-linejoin="round"/><path d="M24.618 34.362c2.032 2.032 4.715 3.01 7.38 2.946.06-2.663-.915-5.346-2.948-7.378-2.032-2.033-4.715-3.01-7.378-2.947-.063 2.664.914 5.347 2.946 7.38" fill="#FEFEFE"/><path d="M24.618 34.362c2.032 2.032 4.715 3.01 7.38 2.946.06-2.663-.915-5.346-2.948-7.378-2.032-2.033-4.715-3.01-7.378-2.947-.063 2.664.914 5.347 2.946 7.38z" stroke="#B5D0E7" stroke-width="2" stroke-linecap="round" stroke-linejoin="round"/><path d="M30.736 3.626L32 5.31l1.264-1.684c.746-.995 2.3-.764 2.723.405l2.406 6.634c.402 1.09.607 2.24.607 3.402 0 3.45-2.796 6.245-6.246 6.245h-1.508c-3.45 0-6.246-2.795-6.246-6.244 0-1.16.205-2.313.607-3.402l2.406-6.633c.424-1.168 1.977-1.4 2.723-.404" fill="#ED2E26"/><path d="M53 36V10" stroke="#B5D0E7" stroke-width="2" stroke-linecap="round" stroke-linejoin="round"/><path d="M55.618 29.93c-2.032 2.032-3.01 4.715-2.946 7.38 2.663.06 5.346-.915 7.378-2.948 2.033-2.032 3.01-4.715 2.947-7.378-2.664-.063-5.347.914-7.38 2.946" fill="#FEFEFE"/><path d="M55.618 29.93c-2.032 2.032-3.01 4.715-2.946 7.38 2.663.06 5.346-.915 7.378-2.948 2.033-2.032 3.01-4.715 2.947-7.378-2.664-.063-5.347.914-7.38 2.946z" stroke="#B5D0E7" stroke-width="2" stroke-linecap="round" stroke-linejoin="round"/><path d="M45.288 34.362c2.032 2.032 4.715 3.01 7.38 2.946.06-2.663-.915-5.346-2.948-7.378-2.032-2.033-4.715-3.01-7.378-2.947-.063 2.664.914 5.347 2.946 7.38" fill="#FEFEFE"/><path d="M45.288 34.362c2.032 2.032 4.715 3.01 7.38 2.946.06-2.663-.915-5.346-2.948-7.378-2.032-2.033-4.715-3.01-7.378-2.947-.063 2.664.914 5.347 2.946 7.38z" stroke="#B5D0E7" stroke-width="2" stroke-linecap="round" stroke-linejoin="round"/><path d="M51.736.626L53 2.31 54.264.627c.746-.995 2.3-.764 2.723.405l2.406 6.634c.402 1.09.607 2.24.607 3.402 0 3.448-2.796 6.244-6.246 6.244h-1.508c-3.45 0-6.246-2.796-6.246-6.244 0-1.16.205-2.313.606-3.402l2.407-6.633c.424-1.168 1.977-1.4 2.723-.404" fill="#ED2E26"/><path d="M11 36V16.974" stroke="#B5D0E7" stroke-width="2" stroke-linecap="round" stroke-linejoin="round"/><path d="M14.28 29.93c-2.032 2.032-3.01 4.715-2.946 7.38 2.663.06 5.346-.915 7.378-2.948 2.033-2.032 3.01-4.715 2.947-7.378-2.665-.063-5.348.914-7.38 2.946" fill="#FEFEFE"/><path d="M14.28 29.93c-2.032 2.032-3.01 4.715-2.946 7.38 2.663.06 5.346-.915 7.378-2.948 2.033-2.032 3.01-4.715 2.947-7.378-2.665-.063-5.348.914-7.38 2.946z" stroke="#B5D0E7" stroke-width="2" stroke-linecap="round" stroke-linejoin="round"/><path d="M3.95 34.362c2.03 2.032 4.714 3.01 7.378 2.946.062-2.663-.914-5.346-2.947-7.378-2.03-2.033-4.714-3.01-7.377-2.947-.063 2.664.914 5.347 2.946 7.38" fill="#FEFEFE"/><path d="M3.95 34.362c2.03 2.032 4.714 3.01 7.378 2.946.062-2.663-.914-5.346-2.947-7.378-2.03-2.033-4.714-3.01-7.377-2.947-.063 2.664.914 5.347 2.946 7.38z" stroke="#B5D0E7" stroke-width="2" stroke-linecap="round" stroke-linejoin="round"/><path d="M9.736 6.626L11 8.31l1.264-1.684c.746-.995 2.3-.764 2.723.405l2.406 6.634c.402 1.09.607 2.24.607 3.402 0 3.45-2.796 6.245-6.246 6.245h-1.508C6.796 23.31 4 20.516 4 17.067c0-1.16.205-2.313.606-3.402L7.013 7.03c.424-1.168 1.977-1.4 2.723-.404" fill="#ED2E26"/></g></svg>