<svg width="52" height="63" viewBox="0 0 52 63" xmlns="http://www.w3.org/2000/svg" xmlns:xlink="http://www.w3.org/1999/xlink"><defs><path id="a" d="M0 .836h45.922V49H0z"/></defs><g fill="none" fill-rule="evenodd"><path d="M1 48.886l12.538 12.798 3.613-3.676s1.284-1.077 2.448-1.077c0 0 4.777-.507 6.425-2.345l15.251-15.06s1.877-1.731.291-4.158c0 0-1.229-2.103-3.834-1.375l6.4-6.3s1.706-1.966.12-3.892c0 0-1.48-1.698-3.709-1.06 0 0 4.426-3.924 2.2-6.327 0 0-1.816-2.115-4.42.09l-5.443 5.34s1.6-2.358-.997-4.276c0 0-2.126-1.58-4.918 1.454l-12.56 12.836 1.054-4.887s.567-2.91-2.397-3.186c0 0-2.783-.47-3.634 3.34l-3 14.97s-.464 2.01-2.01 3.434L1 48.886z" fill="#FFF"/><g transform="translate(0 13.684)"><mask id="b" fill="#fff"><use xlink:href="#a"/></mask><path d="M2.413 35.216L13.54 46.572l2.9-2.95c.226-.195 1.635-1.344 3.1-1.374 1.71-.19 4.74-.896 5.741-2.013L40.572 25.13c.225-.216 1.204-1.296.157-2.898-.11-.18-.957-1.455-2.727-.96a.999.999 0 01-.97-1.675l6.398-6.3c.057-.075 1.051-1.328.05-2.544-.02-.02-1.09-1.18-2.66-.733a1 1 0 01-.94-1.708c.667-.596 2.417-2.46 2.486-3.91a1.282 1.282 0 00-.357-.992c-.302-.333-1.363-1.247-3.04.174l-5.389 5.29a1 1 0 01-1.527-1.275c.167-.258.941-1.652-.764-2.91-.138-.091-1.522-.92-3.588 1.326L15.12 18.873a.999.999 0 01-1.692-.91l1.054-4.887c.038-.218.075-.96-.283-1.43-.24-.314-.64-.493-1.229-.548-.37-.057-1.965-.123-2.566 2.56l-2.995 14.95c-.028.123-.559 2.359-2.314 3.973l-2.68 2.635zM13.538 49a.996.996 0 01-.714-.3L.286 35.903A1 1 0 01.3 34.489l3.417-3.357c1.311-1.208 1.734-2.932 1.738-2.95l2.993-14.937c.842-3.77 3.504-4.347 4.78-4.13 1.384.127 2.172.8 2.578 1.34.945 1.263.67 2.847.635 3.024l-.328 1.519L26.25 4.638c2.67-2.903 5.245-2.29 6.23-1.557.995.736 1.521 1.556 1.751 2.353l3.391-3.326c2.814-2.387 5.193-.828 5.88-.03.6.649.907 1.496.862 2.423-.064 1.31-.817 2.605-1.574 3.59a5.037 5.037 0 012.216 1.369c1.697 2.062.662 4.304-.12 5.205l-4.774 4.703c1.178.387 1.974 1.224 2.318 1.812 1.594 2.437.387 4.6-.477 5.397L26.727 41.614c-1.81 2.02-6.495 2.572-7.023 2.627a.924.924 0 01-.105.006c-.605 0-1.477.569-1.805.843l-3.543 3.61a.995.995 0 01-.713.3z" fill="#B5D0E5" mask="url(#b)"/></g><path d="M32.88 21.844L21.528 33.236" fill="#FFF"/><path d="M21.529 34.235a.999.999 0 01-.708-1.706l11.351-11.392a1 1 0 111.417 1.412L22.237 33.941a.995.995 0 01-.708.294" fill="#B5D0E5"/><path d="M40.543 22.742L25.81 37.305" fill="#FFF"/><path d="M25.809 38.305a.999.999 0 01-.703-1.711L39.84 22.032a1 1 0 111.407 1.42L26.512 38.017a.996.996 0 01-.703.289" fill="#B5D0E5"/><path d="M37.733 33.993l-8.147 8.012" fill="#FFF"/><path d="M29.585 43.005a.999.999 0 01-.701-1.713l8.147-8.012a1 1 0 011.403 1.426l-8.148 8.012a.998.998 0 01-.7.287" fill="#B5D0E5"/><path d="M6.91 48.886l12.538 12.798 3.612-3.676s1.284-1.077 2.45-1.077c0 0 4.775-.507 6.423-2.345l15.251-15.06s1.877-1.731.292-4.158c0 0-1.229-2.103-3.835-1.375l6.4-6.3s1.706-1.966.121-3.892c0 0-1.482-1.698-3.71-1.06 0 0 4.426-3.924 2.2-6.327 0 0-1.816-2.115-4.42.09l-5.443 5.34s1.601-2.358-.997-4.276c0 0-2.126-1.58-4.918 1.454l-12.56 12.836 1.054-4.887s.567-2.91-2.397-3.186c0 0-2.783-.47-3.634 3.34l-3 14.97s-.464 2.01-2.01 3.434l-3.418 3.357z" fill="#FFF"/><path d="M8.322 48.9L19.45 60.254l2.898-2.949c.227-.196 1.636-1.345 3.101-1.375 1.71-.19 4.74-.896 5.741-2.013l15.292-15.105c.225-.216 1.204-1.296.158-2.898-.112-.18-.954-1.46-2.728-.959a1.001 1.001 0 01-.971-1.676l6.4-6.3c.056-.075 1.05-1.328.05-2.544-.02-.02-1.093-1.179-2.662-.733a1 1 0 01-.94-1.708c.668-.596 2.418-2.459 2.487-3.91a1.282 1.282 0 00-.357-.992c-.302-.333-1.36-1.247-3.039.174l-5.39 5.29a1 1 0 01-1.527-1.275c.167-.258.941-1.652-.764-2.91-.138-.09-1.522-.917-3.588 1.326L21.028 32.556a.999.999 0 01-1.692-.91l1.054-4.887c.038-.218.075-.96-.283-1.429-.24-.315-.64-.494-1.229-.549-.37-.057-1.964-.123-2.566 2.561l-2.995 14.95c-.028.122-.559 2.358-2.314 3.972L8.323 48.9zm11.126 13.783a.996.996 0 01-.714-.3L6.195 49.586a1 1 0 01.013-1.414l3.417-3.357c1.311-1.208 1.734-2.932 1.738-2.949l2.993-14.938c.843-3.769 3.506-4.347 4.78-4.13 1.384.127 2.172.8 2.578 1.34.945 1.263.67 2.847.635 3.024l-.328 1.52 10.138-10.36c2.67-2.904 5.246-2.29 6.23-1.558.995.736 1.521 1.556 1.751 2.353l3.392-3.326c2.81-2.387 5.192-.828 5.878-.029.601.648.908 1.495.863 2.422-.064 1.311-.817 2.605-1.574 3.59a5.037 5.037 0 012.216 1.37c1.698 2.061.662 4.304-.12 5.204l-4.774 4.703c1.178.387 1.975 1.224 2.32 1.812 1.592 2.438.385 4.6-.479 5.397L32.636 55.297c-1.81 2.021-6.494 2.572-7.022 2.627a.924.924 0 01-.105.006c-.606 0-1.478.57-1.806.843l-3.542 3.611a.995.995 0 01-.713.3z" fill="#B5D0E5"/><path d="M38.79 21.844L27.436 33.236" fill="#FFF"/><path d="M27.438 34.235a.999.999 0 01-.708-1.706l11.352-11.392a1 1 0 111.416 1.412L28.146 33.941a.995.995 0 01-.708.294" fill="#B5D0E5"/><path d="M46.452 22.742L31.718 37.305" fill="#FFF"/><path d="M31.718 38.305a.999.999 0 01-.703-1.711l14.734-14.562a1 1 0 111.407 1.42L32.42 38.017a.996.996 0 01-.703.289" fill="#B5D0E5"/><path d="M43.642 33.993l-8.147 8.012" fill="#FFF"/><path d="M35.494 43.005a.999.999 0 01-.701-1.713l8.147-8.012a1 1 0 011.403 1.426l-8.148 8.012a.998.998 0 01-.7.287" fill="#B5D0E5"/><path d="M37.475 11.37a1 1 0 01-1-1V1a1 1 0 112 0v9.37a1 1 0 01-1 1M33.113 13.315a.998.998 0 01-.706-.292L25.62 6.25a1 1 0 111.412-1.417l6.788 6.773a.999.999 0 01-.706 1.708M41.291 13.366a1 1 0 01-.717-1.697l7.273-7.478a.999.999 0 111.433 1.395l-7.272 7.477a.999.999 0 01-.717.303" fill="#ED2E26"/></g></svg>