
<svg width="65px" height="67px" viewBox="0 0 65 67" version="1.1" xmlns="http://www.w3.org/2000/svg" xmlns:xlink="http://www.w3.org/1999/xlink">
    <!-- Generator: Sketch 44.1 (41455) - http://www.bohemiancoding.com/sketch -->
    <desc>Created with Sketch.</desc>
    <defs>
        <polygon id="path-1" points="0 66.3 64.8015789 66.3 64.8015789 0.85 0 0.85"></polygon>
    </defs>
    <g id="12.1-13-App-detail" stroke="none" stroke-width="1" fill="none" fill-rule="evenodd">
        <g id="12.4-App-Detail---Continuous-Monitoring" transform="translate(-815.000000, -569.000000)">
            <g id="---Header" transform="translate(75.000000, 315.000000)">
                <g id="---Quote" transform="translate(660.000000, 185.000000)">
                    <g id="::-bloc">
                        <g id="Hospital-Icon" transform="translate(80.000000, 68.000000)">
                            <g id="Group-3" transform="translate(0.000000, 0.850850)">
                                <mask id="mask-2" fill="white">
                                    <use xlink:href="#path-1"></use>
                                </mask>
                                <g id="Clip-2"></g>
                                <path d="M25.1319079,62.9 L39.6713816,62.9 L39.6713816,50.7841 C39.6713816,50.15 40.0271711,49.5669 40.5933553,49.2745 C41.16125,48.9821 41.8454605,49.0297 42.3671711,49.3952 L52.3326974,56.372 L60.7074342,44.5621 L47.0044079,34.9639 C46.5494079,34.6443 46.2791447,34.1275 46.2791447,33.575 C46.2791447,33.0208 46.5494079,32.5023 47.0044079,32.1844 L60.7074342,22.5896 L52.3326974,10.7763 L42.3671711,17.7565 C41.8454605,18.122 41.1595395,18.1679 40.5950658,17.8755 C40.0271711,17.5831 39.6713816,17.0017 39.6713816,16.3659 L39.6713816,4.25 L25.1319079,4.25 L25.1319079,16.3659 C25.1319079,17.0017 24.7761184,17.5831 24.2082237,17.8755 C23.6420395,18.1696 22.9578289,18.1237 22.4361184,17.7565 L12.4688816,10.7763 L4.09414474,22.5896 L17.7971711,32.1844 C18.2521711,32.5023 18.5224342,33.0208 18.5224342,33.575 C18.5224342,34.1275 18.2521711,34.6443 17.7971711,34.9639 L4.09414474,44.5621 L12.4688816,56.372 L22.4361184,49.3952 C22.9578289,49.028 23.6420395,48.9821 24.2082237,49.2745 C24.7761184,49.5669 25.1319079,50.15 25.1319079,50.7841 L25.1319079,62.9 Z M41.3819079,66.3 L23.4213816,66.3 C22.4771711,66.3 21.7108553,65.5401 21.7108553,64.6 L21.7108553,54.0617 L13.0419079,60.1307 C12.26875,60.6713 11.2013816,60.486 10.6591447,59.721 L0.312171053,45.1316 C-0.231776316,44.3632 -0.0470394737,43.3041 0.724407895,42.7618 L13.8424342,33.575 L0.724407895,24.3882 C0.354934211,24.1281 0.103486842,23.7337 0.0248026316,23.29 C-0.0521710526,22.8446 0.0504605263,22.3873 0.312171053,22.0201 L10.6591447,7.429 C11.2013816,6.6606 12.2670395,6.477 13.0419079,7.0176 L21.7108553,13.09 L21.7108553,2.55 C21.7108553,1.6099 22.4771711,0.85 23.4213816,0.85 L41.3819079,0.85 C42.3278289,0.85 43.0924342,1.6099 43.0924342,2.55 L43.0924342,13.0883 L51.7596711,7.0176 C52.1308553,6.7592 52.5909868,6.6555 53.0374342,6.732 C53.4838816,6.8102 53.8841447,7.0601 54.1441447,7.429 L64.4894079,22.0201 C65.0333553,22.7868 64.8486184,23.8476 64.0771711,24.3882 L50.9608553,33.575 L64.0771711,42.7618 C64.8486184,43.3041 65.0333553,44.3632 64.4894079,45.1316 L54.1441447,59.721 C53.6019079,60.4877 52.53625,60.6696 51.7596711,60.1307 L43.0924342,54.0617 L43.0924342,64.6 C43.0924342,65.5401 42.3278289,66.3 41.3819079,66.3 L41.3819079,66.3 Z" id="Fill-1" fill="#FFFFFF" mask="url(#mask-2)"></path>
                            </g>
                            <path d="M32.4016447,55.81865 C31.9295395,55.81865 31.5463816,55.43785 31.5463816,54.96865 L31.5463816,18.84365 C31.5463816,18.37275 31.9295395,17.99365 32.4016447,17.99365 C32.87375,17.99365 33.2569079,18.37275 33.2569079,18.84365 L33.2569079,54.96865 C33.2569079,55.43785 32.87375,55.81865 32.4016447,55.81865" id="Fill-4" fill="#FFFFFF"></path>
                            <path d="M29.0266053,26.50351 L29.0266053,26.50691 L29.0266053,26.50351 M29.0266053,26.50691 C29.0266053,26.50861 29.0248947,26.51031 29.0248947,26.51201 C29.0248947,26.51031 29.0266053,26.50861 29.0266053,26.50691 M29.0248947,26.51201 L29.0248947,26.51711 L29.0248947,26.51201 M29.0248947,26.51711 C29.0248947,26.51881 29.0231842,26.52051 29.0231842,26.52221 C29.0231842,26.52051 29.0248947,26.51881 29.0248947,26.51711 M32.4014737,53.77151 C31.5325263,53.77151 30.8158158,53.12721 30.7046316,52.29421 C30.5695,52.11571 30.2291053,51.79781 29.9947632,51.58021 C29.0334474,50.68431 27.7180526,49.45861 27.742,47.58691 C27.7693684,45.43981 30.0888421,44.48781 32.1346316,43.64801 C32.6050263,43.45591 33.267,43.18391 33.7733158,42.93061 C33.1951579,42.63821 32.4134474,42.31521 31.8643684,42.08911 C29.4542368,41.09801 26.962,40.07121 27.0577895,37.82381 C27.1552895,35.51861 29.8801579,34.37111 32.5160789,33.26441 C32.9864737,33.06551 33.6108158,32.80371 34.0760789,32.57931 C33.6929211,32.36511 33.0172632,32.05401 31.8301579,31.63751 C25.8039737,29.92731 25.5439737,27.03731 25.6329211,26.09381 C25.6654211,24.95141 26.1871316,23.82771 27.0766053,22.99641 C27.9558158,22.17191 29.6064737,21.21311 32.5023947,21.39671 C36.3510789,21.62111 37.7468684,24.39721 37.7468684,26.20941 C37.7468684,27.14781 36.9822632,27.90941 36.0363421,27.90941 C35.1023947,27.90941 34.3446316,27.16651 34.3258158,26.24171 C34.2984474,25.74021 33.9973947,24.88851 32.3022632,24.78991 C30.5233158,24.69301 29.7416053,25.17071 29.4234474,25.46991 C29.0881842,25.78271 29.0522632,26.09041 29.0522632,26.20941 C29.0522632,26.23661 29.0522632,26.26551 29.0505526,26.29271 C29.1223947,26.46951 29.6731842,27.49121 32.8718684,28.39901 C35.3983158,29.28471 37.0250263,30.08881 37.6425263,31.46071 C37.9777895,32.21041 37.9692368,33.01961 37.6185789,33.86961 C37.1464737,35.00861 35.8327895,35.56111 33.8485789,36.39581 C33.0463421,36.73241 31.5496316,37.36141 30.8072632,37.86631 C31.4213421,38.22671 32.4733158,38.66021 33.1729211,38.94921 C35.5163421,39.91311 37.9401579,40.91101 37.7588421,43.10061 C37.5929211,45.08791 35.4804211,45.95321 33.4397632,46.79131 C32.7538421,47.07181 31.6693684,47.51721 31.2177895,47.84701 C31.3888421,48.21761 31.9242368,48.71741 32.3347632,49.09991 C33.1677895,49.87681 34.112,50.75741 34.112,52.07151 C34.112,53.01161 33.3456842,53.77151 32.4014737,53.77151" id="Fill-6" fill="#FFFFFF"></path>
                        </g>
                    </g>
                </g>
            </g>
        </g>
    </g>
</svg>