<svg viewBox="0 0 29 30" xmlns="http://www.w3.org/2000/svg"><g fill="none" transform="translate(1.29 .88)"><path d="m19.81-.58h-16.55c-2.12032515 0-3.84 1.71967485-3.84 3.84v17.57c0 2.1203252 1.71967485 3.84 3.84 3.84h16.55c2.1203252 0 3.84-1.7196748 3.84-3.84v-17.57c0-2.12032515-1.7196748-3.84-3.84-3.84zm-16.55 1.16h16.55c1.4796748 0 2.68 1.20032515 2.68 2.68v17.57c0 1.4796748-1.2003252 2.68-2.68 2.68h-16.55c-1.47967485 0-2.68-1.2003252-2.68-2.68v-17.57c0-1.47967485 1.20032515-2.68 2.68-2.68z" fill="#fff"/><path d="m3.85948054 4.32086664c.16648727-.23098731.4714008-.30313044.71961246-.18476505l.09004036.05337895 4.19 3.02c.29295588.21115197.31895102.62797672.07649881.87535299l-.07278017.06298322-4.38 3.20999995c-.25836806.189352-.62131682.1334034-.81066875-.1249647-.16831282-.2296605-.14280793-.5419527.0463979-.7415035l.07856685-.0691652 3.735852-2.7381833-3.54213336-2.55348054c-.23098731-.16648727-.30313044-.4714008-.18476505-.71961246z" fill="#fff"/><path d="m17.08 11.73c.3203252 0 .58.2596748.58.58 0 .2882926-.2103366.5274585-.485921.5724088l-.094079.0075912h-7.55c-.32032515 0-.58-.2596748-.58-.58 0-.2882926.21033662-.5274585.48592099-.5724088l.09407901-.0075912z" fill="#b4cfe4"/><path d="m16.25 19.66v3.02c-1.51 1.66-6.09 1.51-6.52 3.75-.05.29.1 1.8.1 1.8h16.84s.15-1.51.1-1.8c-.39-2.24-4.97-2.09-6.47-3.75v-3.07h-4.04v.05z" fill="#2e8be0"/><path d="m20.3 19.16h-4.04l-.0808881.0072501c-.1836837.0333396-.3285222.1781781-.3618618.3618618l-.0022501.0208881-.0077499.0291119c-.0047628.0262406-.0072501.0532739-.0072501.0808881l-.001 2.836-.0445428.0425255c-.2886703.2580899-.6740826.4672368-1.2896452.7025611l-.3980229.1449368-.4596626.1548251-1.1014459.3513494-.4770973.1613387-.431079.1571862c-1.4988405.5716403-2.11228954 1.1074502-2.30943532 2.1344422-.00761633.0440562-.01270482.0970019-.01550517.159418l-.00177633.2162402.01051429.2765476.03258924.4932484.06831299.7838638c.0228644.2301683.21649488.405517.447796.405517h16.84c.2313011 0 .4249316-.1753487.447796-.405517l.0433423-.4747321.0481462-.6403857.0161978-.3075827.0048408-.2443549c-.0006346-.1068204-.0060138-.1909428-.016866-.2538857-.1714734-.9848755-.7322951-1.520188-2.0802273-2.0646137l-.4068851-.1561944c-.0714984-.0262058-.1448675-.0525313-.2201503-.0790261l-.4750045-.1613958-.8542962-.2726091c-.1740322-.0557154-.3363734-.1089301-.4880645-.1602347l-.4241635-.1487741c-.0657158-.0240375-.1290293-.0477451-.1900706-.0711966l-.3400218-.1382271c-.4197827-.1817805-.7107972-.3566219-.9396585-.5623204l-.0459148-.0429499.001-2.886c0-.2485281-.2014719-.45-.45-.45zm-3.601.899h3.15l.001 2.621c0 .1114781.0413784.2189881.1161184.3017003.3836829.4246091.8272148.7129077 1.5670691 1.0136643l.3957154.1521052.4516713.158314.5141958.1686553.6002385.190074.4723355.1559463c.0743641.0253329.1465843.0503649.2167137.0751386l.3961088.14588c1.1775747.4542825 1.6385888.8458954 1.7465027 1.4657091l.0030416.0342897.000473.1302624-.0130209.3229969-.0581629.7842639h-16.019l-.0492396-.6496665-.0209134-.4577723.0005268-.1305728c.0007121-.0151235.0017387-.0267317.0030833-.0345303.1060188-.5519936.4921919-.9233407 1.4228398-1.3215239l.3515023-.1419874.3993006-.146243.4496813-.1525259.8364169-.2659832.5187264-.1694074c.0809828-.0272368.1593232-.0540328.2351609-.0804753l.4261157-.1551093c.8630357-.3298997 1.3504425-.6295151 1.7696813-1.0904001l.0500914-.0665141c.0435366-.0705652.0670263-.1522951.0670263-.2362885z" fill="#b5d0e5"/><path d="m21.61 18s.05-.63.1-.97c.2-2.29-1.31-4.38-3.46-4.38s-3.65 2.05-3.46 4.33c.05.29.1.97.1.97.19 2.39 1.75 4.09 3.36 4.09 1.61.05 3.16-1.66 3.36-4.04" fill="#2e8be0"/><path d="m18.25 12.2c-2.3850742 0-4.123545 2.2361781-3.9084456 4.8173705l.0279202.2009197.0250251.2273585.0467119.5373504c.201269 2.5318528 1.8796332 4.5070009 3.8087884 4.5070009 1.909713.0595248 3.5951356-1.9142389 3.8084195-4.4523177l.0534322-.5818124.0295319-.2587819c.0047314-.0371802.0093497-.0711631.013828-.1016157.2295006-2.618814-1.5193389-4.8954723-3.9052116-4.8954723zm0 .9c1.8186714 0 3.1950327 1.7917621 3.0117065 3.8908477l-.0327923.2583548-.0571207.5891745c-.0039037.0458583-.0073847.0882427-.0103829.1260207-.1767434 2.1031883-1.513635 3.6687945-2.8974422 3.6258191-1.4202536-.0002168-2.7583638-1.574944-2.9253837-3.6758783l-.0334977-.4017939-.0434423-.4131497-.0281601-.1956933c-.169014-2.048772 1.19532-3.8037016 3.0165154-3.8037016z" fill="#b5d0e5"/></g></svg>