<svg class="q-social-icon" xmlns="http://www.w3.org/2000/svg"><g transform="translate(1 .586)" fill="none" fill-rule="evenodd"><ellipse cx="22.521" cy="22.481" rx="22.521" ry="22.481"/><path d="M30.628 16.99c-.597.29-1.238.485-1.91.572.686-.45 1.213-1.16 1.462-2.01-.643.417-1.355.72-2.112.883-.607-.706-1.472-1.148-2.428-1.148-1.837 0-3.328 1.627-3.328 3.633 0 .284.03.56.087.828-2.766-.152-5.217-1.6-6.858-3.796-.285.536-.45 1.16-.45 1.827 0 1.258.587 2.37 1.48 3.022-.545-.018-1.06-.183-1.507-.455v.046c0 1.76 1.147 3.227 2.67 3.562-.28.083-.574.128-.878.128-.215 0-.423-.023-.626-.067.424 1.444 1.653 2.494 3.11 2.524-1.14.973-2.574 1.554-4.133 1.554-.268 0-.533-.017-.794-.05 1.473 1.03 3.222 1.63 5.1 1.63 6.12 0 9.465-5.533 9.465-10.333 0-.156-.003-.314-.01-.47.65-.51 1.214-1.15 1.66-1.88" fill="#FFF"/></g></svg>