<svg	lass="q-social-icon" xmlns="http://www.w3.org/2000/svg"><g transform="translate(-57 .586)" fill="none" fill-rule="evenodd"><ellipse cx="80.174" cy="22.481" rx="22.521" ry="22.481"/><path d="M87.38 29.675h-2.986v-5.057c0-1.325-.468-2.227-1.495-2.227-.787 0-1.223.61-1.428 1.2-.076.208-.064.502-.064.795v5.29H78.45s.037-8.96 0-9.775h2.958v1.535c.176-.672 1.12-1.627 2.63-1.627 1.87 0 3.342 1.406 3.342 4.432v5.435zM75.457 18.68h-.018c-.954 0-1.572-.75-1.572-1.696 0-.965.635-1.697 1.608-1.697.972 0 1.57.73 1.59 1.695 0 .947-.618 1.697-1.61 1.697zm-1.25 10.995h2.635V19.9h-2.635v9.775z" fill="#FFF"/></g></svg>