<svg class="q-social-icon" xmlns="http://www.w3.org/2000/svg"><g transform="translate(-172 .586)" fill="none" fill-rule="evenodd"><ellipse cx="195.479" cy="22.481" rx="22.521" ry="22.481"/><path d="M197.965 23.042l-4.462 2.98c-.468.313-.854.06-.854-.564l-.008-5.95c0-.624.383-.878.853-.568l4.47 2.967c.47.31.47.822 0 1.135m5.513-4.065c0-1.473-1.05-2.667-2.342-2.667-1.754-.086-3.543-.124-5.37-.124h-.574c-1.826 0-3.62.038-5.372.124-1.292 0-2.34 1.194-2.34 2.667-.076 1.167-.11 2.335-.108 3.503-.002 1.168.032 2.333.11 3.503 0 1.472 1.046 2.665 2.34 2.665 1.845.094 3.733.132 5.657.128 1.923.004 3.81-.034 5.656-.128 1.292 0 2.342-1.193 2.342-2.665.077-1.17.112-2.335.11-3.503.002-1.168-.033-2.336-.11-3.503" fill="#FFF"/></g></svg>