<svg viewBox="0 0 30 30" xmlns="http://www.w3.org/2000/svg"><g fill="none" transform="translate(.866517 .92159)"><path d="m14.0534834 6.16840983.3959473.0065275c1.6987572.05634861 3.1761925.47461369 4.4269939 1.14170779.8192204.43691754 1.375034.88102012 1.6697019 1.19455845.0816155.08684206.1344986.19671735.1514557.31467956l.0205663.16537635.0364884.39078763.0127576.16834901c.0129953.18123066.0243092.37118134.033771.56985878l.0226581.6222195c.0139668.5403445.0152905 1.1352737.0013032 1.7848933l-.0243047.8058017c-.0053325.1386778-.0113202.2795449-.0179844.4226021-.1073936 2.2739433-1.3233714 4.2917922-3.2626098 6.039593-.700128.6310129-1.4480646 1.1825345-2.1962279 1.6524783-.1748765.1098452-.3416674.2100521-.4986097.3005059l-.4013282.2218636-.1147177.0587119c-.1614803.0793762-.3506557.0793109-.5120812-.0001768l-.1943085-.1012332-.0937957-.0511287c-.2199169-.1211145-.4639742-.2642823-.7262226-.4291014-.7479914-.470101-1.4957617-1.0214641-2.1957408-1.6518866-1.94336409-1.750253-3.16026739-3.7686778-3.26308386-6.0399983l-.03203079-.8319115c-.02009808-.6713923-.02458459-1.2881268-.01578048-1.8502825l.01671847-.648394c.00756711-.207402.01707163-.4060765.02834288-.59602844l.04357983-.59603693.03468736-.3336849c.00344034-.02756235.00670487-.05195458.00975571-.0731778.01695707-.11796221.06984016-.2278375.15145562-.31467956.29466797-.31353833.85048154-.75764091 1.66970193-1.19455845 1.25080143-.6670941 2.72823673-1.08535918 4.42699393-1.14170779zm-.3807912 1.16669004c-1.5057852.0532859-2.8031294.42206761-3.89626758 1.00507466-.41049981.21893323-.76081617.4523334-1.05057816.68385716l-.19171991.16000429-.03752489.4493261-.032361.54705022c-.00453336.0955365-.0086224.1932546-.01224578.2931554l-.01598139.6256077c-.00335056.2172734-.00466759.4432875-.00378025.678052l.00944604.7305542c.00273349.1261374.00606078.2544649.01000323.3849835l.03120759.8094164c.08652019 1.9113097 1.146533 3.6695071 2.8806048 5.231265.6467063.5824435 1.3418134 1.0949757 2.0366992 1.5317007l.4238508.2572687.2290816.1296201.2300589-.1294283.2728262-.1633409.1509802-.0937176c.6948554-.4364596 1.3899375-.9490068 2.0366269-1.5318564 1.7305708-1.5597325 2.7900827-3.3179348 2.880493-5.2322723.0194569-.417675.0329951-.8156547.0411906-1.19396l.0094383-.7303842c.0004427-.1173607.0002425-.2325368-.0003035-.3455292l-.010012-.6517556-.0216987-.5993827-.0323612-.54704672-.0382387-.4493261-.1910061-.16000429c-.289762-.23152376-.6400783-.46492393-1.0505781-.68385716-1.0931383-.58300705-2.3904824-.95178876-3.8962676-1.00507466l-.3807913-.00669004z" fill="#fff"/><path d="m10.308939.50937852c2.971291-.82141493 6.0688643-.63825408 8.8960509.46897111.298267.11681179.4453655.45329965.3285537.75156666s-.4532996.44536553-.7515666.32855373c-2.5963679-1.01682847-5.4372952-1.18481374-8.1641048-.43098585-6.86180462 1.89489164-10.88953257 9.00560843-8.98477758 15.86849423.6790912 2.493102 2.0750207 4.6754706 3.99896006 6.3330184.24268112.2090791.26992092.5753031.0608418.8179843-.20907912.2426811-.57530315.2699209-.81798427.0608418-2.0972709-1.8068796-3.62048996-4.1882502-4.36030264-6.9043002-2.07551527-7.4781128 2.31460615-15.22861394 9.79432943-17.29414418z" fill="#fff"/><path d="m20.8040857 2.38713847c.1719104-.2702869.5303822-.3500368.8006691-.17812638 2.9141831 1.85350619 5.0517695 4.7072521 5.997803 8.11500901 2.0648594 7.4772938-2.3243939 15.2173435-9.8047866 17.2934909-3.7148144 1.0251264-7.6033846.4829832-10.85807087-1.4290107-.27619289-.1622519-.36856029-.5176817-.20630836-.7938746s.51768169-.3685603.79387458-.2063083c2.98690235 1.7546819 6.55261135 2.2518119 9.96110405 1.3112176 6.8630927-1.9048194 10.890445-9.0066897 8.9962486-15.8659788-.8684945-3.12844772-2.8284264-5.74501927-5.5024071-7.44574964-.2702869-.17191042-.3500368-.53038218-.1781264-.80066909z" fill="#fff"/><path d="m24.1816942 1.65171052c.3185023-.03412524.6043633.19640786.6384886.51491009.0307127.28665201-.1529479.54686466-.4221752.62091797l-.0927349.01757056-2.5031462.26792684.2680774 2.51378234c.0306144.28666252-.1531353.5468122-.422388.6207732l-.092741.01753876c-.2866625.03061445-.5468121-.15313529-.6207732-.42238802l-.0175387-.09274093-.33-3.09c-.030607-.28659303.1530486-.54669942.4222177-.62072604l.0927135-.01756477z" fill="#fff"/><path d="m5.31428296 20.7697361c.28763343-.0194849.54046846.1742063.60394186.4461224l.01393238.0933508.21 3.1c.01952911.2882869-.17505983.5414923-.44773488.6043191l-.09359716.0136781-3.1.2c-.31966058.0206233-.59551513-.2217944-.6161384-.541455-.01856093-.2876945.17594126-.5399061.44805987-.6025059l.09339509-.0136325 2.51898483-.1625771-.17031687-2.5194257c-.01948484-.2876334.17420631-.5404685.44612246-.6039419z" fill="#fff"/><path d="m13.7234834 15.2984098-1.45 1.45c-.22.22-.57.25-.82.05-.13-.11-.21-.28-.2-.44 0-.15.06-.3.17-.41l1.48-1.48c.18-.18.18-.48 0-.66l-1.48-1.48c-.11-.11-.17-.26-.17-.41 0-.17.07-.33.2-.44.24-.2.6-.17.82.05l1.46 1.46c.18.18.48.18.66 0l1.46-1.46c.24-.24.64-.23.87.04.2.24.16.59-.06.81l-1.46 1.46c-.18.18-.18.48 0 .66l1.48 1.48c.24.24.23.64-.04.87-.24.2-.59.16-.81-.06l-1.46-1.46c-.17-.19-.47-.19-.65 0z" fill="#fff"/><path d="m28.2234834 21.3484098c0 3.9-3.16 7.06-7.06 7.06s-7.06-3.16-7.06-7.06 3.16-7.06 7.06-7.06 7.06 3.16 7.06 7.06" fill="#2e8be0"/><g fill="#fff"><path d="m17.7934834 19.1784098c-.58 0-1.12.23-1.52.64s-.64.95-.64 1.52c0 1.19.98 2.17 2.17 2.17h6.73c.58 0 1.12-.23 1.53-.64.4-.41.64-.95.64-1.53 0-1.19-.98-2.17-2.17-2.17h-6.73zm0 3.68c-.41 0-.78-.16-1.06-.44s-.44-.66-.44-1.06.16-.78.44-1.06.66-.44 1.06-.44h.86v3.01h-.86zm1.53 0v-3.01h3.68v3.01zm6.7-1.51c0 .41-.16.78-.44 1.06s-.66.44-1.06.44h-.86v-3.01h.86c.41 0 .78.16 1.06.44s.44.66.44 1.07z"/><path d="m18.9934834 17.9784098c0 .19.15.34.33.33.19 0 .34-.15.33-.33 0-.83.67-1.5 1.5-1.5.41 0 .78.16 1.06.44s.44.66.44 1.06c0 .19.15.34.33.33.09 0 .18-.04.24-.09.06-.06.09-.14.09-.24 0-1.19-.98-2.17-2.17-2.17-1.18 0-2.15.98-2.15 2.17z"/><path d="m19.3334834 24.3884098c-.19 0-.34.15-.33.33 0 1.19.98 2.17 2.17 2.17.59 0 1.13-.24 1.52-.64s.64-.93.64-1.53c0-.19-.15-.34-.33-.33-.19 0-.34.15-.33.33 0 .83-.67 1.5-1.5 1.5-.41 0-.78-.16-1.06-.44s-.44-.66-.44-1.06c0-.2-.16-.35-.34-.34z"/><path d="m17.8234834 21.3584098c0 .18-.15.33-.34.33s-.34-.15-.34-.33.15-.33.34-.33.34.15.34.33z"/><path d="m25.3134834 21.3484098c0 .18-.15.33-.34.33s-.34-.15-.34-.33.15-.33.34-.33.34.15.34.33z"/><path d="m22.3234834 22.1884098c0 .18-.15.33-.34.33s-.34-.15-.34-.33.15-.33.34-.33.34.15.34.33z"/><path d="m20.7034834 22.1884098c0 .18-.15.33-.34.33s-.34-.15-.34-.33.15-.33.34-.33.34.15.34.33z"/><path d="m22.3134834 20.5184098c0 .18-.15.33-.34.33s-.34-.15-.34-.33.15-.33.34-.33.34.15.34.33z"/><path d="m20.7034834 20.5184098c0 .18-.15.33-.34.33s-.34-.15-.34-.33.15-.33.34-.33.34.15.34.33z"/></g></g></svg>