<svg viewBox="0 0 31 29" xmlns="http://www.w3.org/2000/svg"><g fill="none" transform="translate(.45 .99)"><path d="m.58 13.85c.32032516 0 .58.2596748.58.58 0 1.4348224.22507272 2.8488662.65857684 4.1116826.10400484.3029706-.0572888.6328894-.36025942.7368942-.30297062.1040049-.63288942-.0572888-.73689426-.3602594-.47610879-1.3869256-.72142316-2.9281398-.72142316-4.4883174 0-.3203252.25967485-.58.58-.58z" fill="#fff"/><path d="m23.9132122 4.30657079c.2283307-.22466268.5955543-.22168921.820217.00664144 2.6330059 2.67599377 4.1365708 6.26921257 4.1365708 10.10678777 0 1.5916699-.2398366 3.0854348-.7214232 4.4883174-.1040048.3029706-.4339236.4642643-.7368942.3602594-.3029706-.1040048-.4642643-.4339236-.3602594-.7368942.4391675-1.2793141.6585768-2.6458525.6585768-4.1116826 0-3.5299293-1.3817212-6.83196611-3.8034292-9.29321223-.2246627-.22833064-.2216892-.59555429.0066414-.82021698z" fill="#fff"/><path d="m24.23 4.64c-2.49-2.49-5.96-4.06-9.79-4.06-7.67 0-13.86 6.19-13.86 13.86h13.86l9.79-9.79z" fill="#2e8be0"/><path d="m14.44 0c-7.99032515 0-14.44 6.44967485-14.44 14.44 0 .3203252.25967485.58.58.58h13.86c.1538256 0 .3013508-.061107.4101219-.1698781l9.79-9.78999997c.0870169-.08701688.1435287-.19883642.1626528-.32396226l.0072253-.09615967c0-.15382556-.061107-.30135083-.1698781-.41012193-2.6815154-2.68151539-6.3282807-4.22987807-10.2001219-4.22987807zm0 1.16.3806499.00543012c3.1649506.09035748 6.1451499 1.3047641 8.4573684 3.37225382l.1269817.11531606-9.207 9.207h-13.025l.00101619-.0376197c.32121288-7.0614523 6.12334206-12.6623803 13.26598381-12.6623803z" fill="#b5d0e5"/><path d="m14.43 3.64c2.8949955 0 5.602794 1.15255015 7.6201219 3.16987807.2265041.22650409.2265041.59373977 0 .82024386s-.5937397.22650409-.8202438 0c-1.8025828-1.80258279-4.2166808-2.83012193-6.7998781-2.83012193-5.04451925 0-9.18140389 3.87596123-9.59586144 8.8130912l-.01713856.2369088h9.613c.2882926 0 .5274585.2103366.5724088.485921l.0075912.094079c0 .2882926-.2103366.5274585-.485921.5724088l-.094079.0075912h-10.21c-.32032515 0-.58-.2596748-.58-.58 0-5.96032515 4.82967485-10.79 10.79-10.79z" fill="#b5d0e5"/><path d="m14.44 7.57c1.8359189 0 3.5621253.7307607 4.8418935 2.02165731.2255214.2274825.2239317.59471479-.0035508.82023619s-.5947148.2239317-.8202362-.0035508c-1.0635668-1.07281521-2.4939467-1.6783427-4.0181065-1.6783427-3.1396748 0-5.7 2.5603252-5.7 5.7 0 .3203252-.25967485.58-.58.58s-.58-.2596748-.58-.58c0-3.7803252 3.0796748-6.86 6.86-6.86z" fill="#b5d0e5"/><path d="m23.8198781 4.22987807c.2265041-.22650409.5937397-.22650409.8202438 0 .201337.20133697.2237078.51386927.0671124.73991631l-.0671124.08032755-9.79 9.78999997c-.2265041.2265041-.5937397.2265041-.8202438 0-.201337-.2013369-.2237078-.5138692-.0671124-.7399163l.0671124-.0803275z" fill="#2e8be0"/><path d="m12.87 14.43c0-.88.69-1.57 1.57-1.57s1.57.69 1.57 1.57-.69 1.57-1.57 1.57-1.57-.69-1.57-1.57" fill="#2e8be0"/><path d="m14.44 12.28c-1.2003252 0-2.15.9496748-2.15 2.15s.9496748 2.15 2.15 2.15 2.15-.9496748 2.15-2.15-.9496748-2.15-2.15-2.15zm0 1.16c.5596748 0 .99.4303252.99.99s-.4303252.99-.99.99-.99-.4303252-.99-.99.4303252-.99.99-.99z" fill="#fff"/><path d="m11.34 4.5c0-.46.37-.83.83-.83s.83.37.83.83-.42.79-.88.79-.79-.37-.79-.79" fill="#b5d0e5"/><path d="m12.17 3.09-.1360431.00643892c-.6714212.06390164-1.2036163.59609675-1.2679569 1.27356108l-.0084088.03592099c-.0049945.03062048-.0075912.06204649-.0075912.09407901 0 .74996655.598653 1.37 1.37 1.37.7812044 0 1.46-.58480848 1.46-1.37 0-.78032515-.6296748-1.41-1.41-1.41zm0 1.16c.1396748 0 .25.11032515.25.25 0 .10296232-.1242402.21-.3.21l-.0577124-.00734391c-.0726143-.01918093-.1265098-.07430681-.1462876-.15465609l.004-.048c0-.13967485.1103252-.25.25-.25z" fill="#b5d0e5"/><path d="m8.48 11.01c0-.46.37-.83.83-.83s.83.37.83.83-.37.83-.83.83-.83-.37-.83-.83" fill="#b5d0e5"/><path d="m9.31 9.6c-.78032515 0-1.41.6296748-1.41 1.41s.62967485 1.41 1.41 1.41c.7803252 0 1.41-.6296748 1.41-1.41s-.6296748-1.41-1.41-1.41zm0 1.16c.13967485 0 .25.1103252.25.25s-.11032515.25-.25.25-.25-.1103252-.25-.25.11032515-.25.25-.25z" fill="#b5d0e5"/><g fill="#fff"><path d="m2.51 22.7h-1.66v-1.11h4.53v1.11h-1.66v4.34h-1.2v-4.34z"/><path d="m5.7 22.88h1.2v.83c.23-.55.65-.97 1.34-.92v1.25h-.05c-.79 0-1.29.46-1.29 1.48v1.57h-1.2v-4.2z"/><path d="m8.93 25.61v-2.73h1.2v2.36c0 .55.28.83.74.83s.74-.28.74-.83v-2.36h1.2v4.2h-1.2v-.6c-.28.37-.65.69-1.25.69-.92-.05-1.43-.65-1.43-1.57z"/><path d="m13.97 21.59h2.49c.69 0 1.25.18 1.62.55.32.32.46.74.46 1.25 0 .88-.46 1.43-1.15 1.71l1.34 1.94h-1.39l-1.25-1.71h-.92v1.76h-1.2zm2.45 2.68c.6 0 .92-.32.92-.79 0-.51-.37-.79-.92-.79h-1.25v1.57h1.25z"/><path d="m19.51 21.36h1.25v1.06h-1.25zm.05 1.52h1.2v4.2h-1.2z"/><path d="m21.54 26.53.51-.79c.46.32.92.51 1.34.51.37 0 .51-.14.51-.32 0-.28-.42-.32-.88-.51-.6-.18-1.25-.46-1.25-1.25 0-.83.69-1.34 1.52-1.34.55 0 1.11.18 1.57.46l-.46.83c-.42-.23-.83-.37-1.15-.37-.28 0-.46.14-.46.28 0 .23.42.32.83.51.6.18 1.25.46 1.25 1.25 0 .92-.69 1.34-1.62 1.34-.51 0-1.15-.18-1.71-.6z"/><path d="m25.79 21.36h1.2v3.05l1.39-1.52h1.43l-1.62 1.66 1.66 2.54h-1.39l-1.06-1.71-.42.46v1.29h-1.2v-5.77z"/></g></g></svg>