<svg width="52" height="47" viewBox="0 0 52 47" xmlns="http://www.w3.org/2000/svg"><g fill="none" fill-rule="evenodd"><path d="M14.84 11.309h22.286V1.83H14.84v9.478zm23.18 1.783H13.95a.893.893 0 01-.893-.892V.939c0-.494.4-.893.893-.893H38.02c.49 0 .891.399.891.893v11.26c0 .494-.4.893-.89.893zM37.687 28.59h12.496v-6.654H37.687v6.655zm13.39 1.784h-14.28a.89.89 0 01-.892-.89v-8.44a.89.89 0 01.891-.891h14.28a.89.89 0 01.891.89v8.44a.89.89 0 01-.89.891zM1.784 44.623H14.28v-6.656H1.784v6.656zm13.387 1.784H.89A.891.891 0 010 45.514v-8.438a.89.89 0 01.891-.89h14.28c.494 0 .893.398.893.89v8.438a.892.892 0 01-.893.893zM19.736 44.623h12.496v-6.656H19.736v6.656zm13.388 1.784h-14.28a.892.892 0 01-.892-.893v-8.438c0-.492.399-.89.893-.89h14.28a.89.89 0 01.89.89v8.438a.891.891 0 01-.89.893zM18.845 26.155H15.17a.892.892 0 010-1.784h3.674a.892.892 0 010 1.784" fill="#B5D0E5"/><path d="M36.796 26.155h-3.672a.891.891 0 110-1.783h3.672a.891.891 0 010 1.783M18.845 42.188H15.17a.893.893 0 010-1.786h3.674a.893.893 0 010 1.786M36.796 42.188h-3.672a.892.892 0 110-1.786h3.672c.494 0 .891.401.891.895a.89.89 0 01-.89.891" fill="#B5D0E5"/><path d="M19.736 28.59h12.496v-6.654H19.736v6.655zm13.388 1.784h-14.28a.891.891 0 01-.892-.89v-8.44c0-.493.399-.891.893-.891h14.28a.89.89 0 01.89.89v8.44a.89.89 0 01-.89.891zM8.032 21.936a.893.893 0 01-.893-.892v-5.19c0-.495.4-.892.893-.892H22.61V12.2a.892.892 0 011.785 0v3.653a.892.892 0 01-.892.893H8.925v4.298c0 .494-.401.892-.893.892" fill="#B5D0E5"/><path d="M8.032 37.967a.891.891 0 01-.893-.89v-4.284c0-.492.4-.89.893-.89H22.61v-2.42a.893.893 0 011.785 0v3.31a.893.893 0 01-.892.895H8.925v3.388c0 .494-.401.891-.893.891M43.935 21.936a.891.891 0 01-.89-.892v-4.298h-14.58a.893.893 0 01-.893-.893V12.2a.892.892 0 011.783 0v2.762h14.58a.89.89 0 01.893.891v5.19a.892.892 0 01-.893.893M43.935 37.967a.89.89 0 01-.89-.89v-3.39h-14.58a.894.894 0 01-.893-.894v-3.31a.893.893 0 011.783 0v2.42h14.58c.494 0 .893.398.893.89v4.283a.89.89 0 01-.893.891" fill="#B5D0E5"/><path fill="#ED2E26" d="M.891 29.483h14.28v-8.438H.89z"/><path d="M1.784 28.59H14.28v-6.654H1.784v6.655zm13.387 1.784H.89a.89.89 0 01-.891-.89v-8.44a.89.89 0 01.891-.891h14.28c.494 0 .893.398.893.89v8.44a.891.891 0 01-.893.891zM36.796 45.514h14.28v-8.438h-14.28z" fill="#ED2E26"/><path d="M37.687 44.623h12.496v-6.656H37.687v6.656zm13.39 1.784h-14.28a.89.89 0 01-.892-.893v-8.438a.89.89 0 01.891-.89h14.28a.89.89 0 01.891.89v8.438a.891.891 0 01-.89.893z" fill="#ED2E26"/></g></svg>