<svg width="38" height="53" viewBox="0 0 38 53" xmlns="http://www.w3.org/2000/svg"><g fill="none" fill-rule="evenodd"><path d="M1.857 1A.859.859 0 001 1.857v48.686c0 .514.343.857.857.857H35.8c.429 0 .857-.429.857-.857V11.37c0-.171-.086-.342-.171-.514l-3-4.114s0 0 0 0l-3.943-5.4C29.37 1.17 29.114 1 28.857 1h-27z" stroke="#B5D0E7" stroke-width="1.811"/><path stroke="#B5D0E7" stroke-width="1.811" stroke-linecap="round" stroke-linejoin="round" d="M36.057 11.029h-7.971V1.857"/><path d="M10.686 14.286H26.97c1.115 0 2.058.943 2.058 2.057v16.714c0 1.114-.943 2.057-2.058 2.057H10.686c-1.115 0-2.057-.943-2.057-2.057V16.43c0-1.2.942-2.143 2.057-2.143" fill="#B5D0E7"/><path d="M19.086 23.886H22c.086 0 .171.085.171.171v.086l-4.285 7.371c-.086.086-.172.172-.257.086-.086 0-.086-.086-.086-.171l.171-5.229c0-.086-.085-.171-.171-.257H14.8a.184.184 0 01-.171-.172v-.085l4.2-6.343c.085-.086.171-.086.257-.086.085 0 .085.086.085.172l-.257 4.2c0 .085.086.257.172.257" fill="#FFF"/><path d="M11.114 40.943L9.486 38.37h-.943v5.486h.943v-3.943l1.628 2.572 1.715-2.572v3.943h.942v-5.486h-1.028l-1.629 2.572zm4.972.514h2.657V40.6h-2.657v-1.457h3v-.857h-3.943v5.485h4.028v-.857h-3.085v-1.457zm7.971-3.086h-4.371v.858H21.4v4.542h.943V39.23h1.714v-.858zm1.2 3.258L26.2 39.4l.943 2.229h-1.886zm1.372-3.343h-.858l-2.314 5.485h.943l.514-1.285H27.4l.514 1.285h1.029l-2.314-5.485z" fill="#B5D0E7"/></g></svg>