<svg width="45" height="43" viewBox="0 0 45 43" xmlns="http://www.w3.org/2000/svg"><g fill="none" fill-rule="evenodd"><path d="M1.9 13.3h39.8c.6 0 1 .4 1 1V24c0 .6-.4 1-1 1H1.9c-.6 0-1-.4-1-1v-9.7c0-.5.4-1 1-1zM1.9 25.2h39.8c.6 0 1 .4 1 1v9.7c0 .6-.4 1-1 1H1.9c-.6.1-1-.4-1-1v-9.7c0-.6.4-1 1-1zM1.9 1.5h39.8c.6 0 1 .4 1 1v9.7c0 .6-.4 1-1 1H1.9c-.6 0-1-.4-1-1V2.6c0-.6.4-1.1 1-1.1z" stroke="#B5D0E7" stroke-width="1.464" stroke-linecap="round" stroke-linejoin="round"/><path d="M4.4 7.4c0-1 .7-1.7 1.7-1.7s1.7.7 1.7 1.7-.7 1.7-1.7 1.7-1.7-.8-1.7-1.7z" stroke="#B5D0E7" stroke-width="1.464" stroke-linecap="round"/><path d="M11.4 7.4c0-1 .7-1.7 1.7-1.7s1.7.7 1.7 1.7-.7 1.7-1.7 1.7-1.7-.8-1.7-1.7" fill="#B5D0E7"/><path d="M4.4 31c0-1 .7-1.7 1.7-1.7s1.7.7 1.7 1.7-.7 1.7-1.7 1.7S4.4 32 4.4 31z" stroke="#B5D0E7" stroke-width="1.464" stroke-linecap="round"/><path d="M11.4 31c0-1 .7-1.7 1.7-1.7s1.7.7 1.7 1.7-.7 1.7-1.7 1.7-1.7-.7-1.7-1.7" fill="#B5D0E7"/><path d="M14.7 19.2c0 1-.7 1.7-1.7 1.7s-1.7-.7-1.7-1.7.7-1.7 1.7-1.7c.9.1 1.7.8 1.7 1.7z" stroke="#B5D0E7" stroke-width="1.464" stroke-linecap="round"/><path d="M7.8 19.2c0 1-.7 1.7-1.7 1.7s-1.7-.7-1.7-1.7.7-1.7 1.7-1.7c.9.1 1.7.8 1.7 1.7" fill="#B5D0E7"/><path d="M26.6 28.5l3.5 3.7" stroke="#C5E2E9" stroke-width="1.464" stroke-linecap="round" stroke-linejoin="round"/><path d="M19.7 29.3l3.5 3.7" stroke="#B5D0E7" stroke-width="1.464" stroke-linecap="round" stroke-linejoin="round"/><path d="M30 28.5l3.5 3.7M33.6 28.5l3.5 3.7" stroke="#C5E2E9" stroke-width="1.464" stroke-linecap="round" stroke-linejoin="round"/><path d="M26.7 17.6l3.5 3.7M19.7 17.6l3.5 3.7M33.6 17.6l3.5 3.7M26.7 5.7l3.5 3.7M19.7 5.7l3.5 3.7M33.6 5.7l3.5 3.7" stroke="#B5D0E7" stroke-width="1.464" stroke-linecap="round" stroke-linejoin="round"/><path d="M34.4 23.2c5.4 0 9.7 4.4 9.7 9.7 0 5.3-4.4 9.7-9.7 9.7-5.3 0-9.7-4.4-9.7-9.7 0-5.3 4.2-9.7 9.7-9.7" fill="#B5D0E7"/><path d="M33.2 38.6c-.2.3-.7.4-1 .1-.1-.1-.3-.3-.3-.5 0-.8-.7-1.5-1.5-1.5-.1 0-.3 0-.4.1-.4.1-.7-.1-.9-.4-.1-.2 0-.4.1-.6.4-.7.3-1.6-.4-2.1-.1-.1-.2-.1-.4-.1-.4-.1-.5-.5-.4-.9.1-.2.2-.4.4-.4.8-.3 1.2-1.1.9-1.9-.1-.1-.1-.2-.1-.4-.2-.3-.1-.7.1-1 .1-.1.4-.1.6-.1.8.2 1.6-.2 1.8-1 .1-.1.1-.3.1-.4 0-.4.3-.7.7-.7.2 0 .4.1.5.3.5.7 1.5.8 2.1.3.1-.1.2-.1.3-.3.2-.3.7-.4 1-.1.1.1.3.3.3.5 0 .8.7 1.5 1.5 1.5.1 0 .3 0 .4-.1.4-.1.7.1.9.4.1.2 0 .4-.1.6-.4.7-.3 1.6.4 2.1.1.1.2.1.4.1.4.1.5.5.4.9-.1.2-.2.4-.4.4-.8.3-1.2 1.1-.9 1.9.1.1.1.2.1.4.2.3.1.7-.1 1-.1.1-.4.1-.6.1-.8-.2-1.6.2-1.8 1-.1.1-.1.1-.1.3 0 .4-.3.7-.7.7-.2 0-.4-.1-.5-.3-.5-.7-1.5-.8-2.1-.3-.2.2-.2.3-.3.4" fill="#B5D0E7"/><path d="M32.6 38.2c.1-.1.2-.3.4-.4 1-.7 2.3-.5 3.1.4 0-.2.1-.4.1-.5.4-1.2 1.5-1.8 2.7-1.5-.1-.1-.2-.3-.2-.5-.4-1.1.2-2.3 1.3-2.8-.1-.1-.4-.1-.5-.2-1-.7-1.2-2.1-.6-3-.1.1-.4.1-.5.1-1.2 0-2.2-.9-2.3-2.1-.1.1-.2.3-.4.4-1 .7-2.3.6-3.1-.4 0 .2-.1.4-.1.5-.4 1.2-1.5 1.8-2.7 1.5.1.1.2.3.2.5.4 1.1-.2 2.3-1.3 2.8.1.1.4.1.5.2 1 .7 1.2 2.1.6 3 .1-.1.4-.1.5-.1 1.3 0 2.3.9 2.3 2.1z" stroke="#FFF" stroke-width="1.464" stroke-linecap="round" stroke-linejoin="round"/><path d="M34.4 31.5c.8 0 1.4.7 1.4 1.4s-.7 1.4-1.4 1.4c-.8 0-1.4-.7-1.4-1.4 0-.8.6-1.4 1.4-1.4" fill="#B5D0E7"/><path d="M34.4 31.5c.8 0 1.4.7 1.4 1.4s-.7 1.4-1.4 1.4c-.8 0-1.4-.7-1.4-1.4 0-.8.6-1.4 1.4-1.4z" stroke="#FFF" stroke-width="1.464"/></g></svg>