<svg xmlns="http://www.w3.org/2000/svg" data-name="Layer 5" viewBox="0 0 67.83 65"><path fill="none" stroke="#b5d0e7" stroke-width="2" d="M9.91 6.38h52.33a1.33 1.33 0 011.33 1.33v12.46a1.33 1.33 0 01-1.33 1.33H9.91a1.33 1.33 0 01-1.33-1.33V7.71a1.33 1.33 0 011.33-1.33z" stroke-linecap="round" stroke-linejoin="round"/><path fill="none" stroke="#b5d0e7" stroke-width="2" d="M9.91 21.38h52.33a1.33 1.33 0 011.33 1.32v12.36a1.33 1.33 0 01-1.33 1.32H9.91a1.33 1.33 0 01-1.33-1.32V22.7a1.33 1.33 0 011.33-1.32zm0 15h52.33a1.33 1.33 0 011.33 1.32v12.36a1.33 1.33 0 01-1.33 1.32H9.91a1.33 1.33 0 01-1.33-1.32V37.7a1.33 1.33 0 011.33-1.32zm0-30h52.33a1.33 1.33 0 011.33 1.32v12.36a1.33 1.33 0 01-1.33 1.32H9.91a1.33 1.33 0 01-1.33-1.32V7.7a1.33 1.33 0 011.33-1.32z" stroke-linecap="round" stroke-linejoin="round"/><path fill="none" stroke="#2e8be0" stroke-width="2" d="M13.54 13.94a2.22 2.22 0 112.22 2.22 2.22 2.22 0 01-2.22-2.22z" stroke-linecap="round"/><path fill="#2e8be0" d="M22.7 13.94a2.22 2.22 0 112.22 2.22 2.22 2.22 0 01-2.22-2.22"/><path fill="none" stroke="#2e8be0" stroke-width="2" d="M13.54 44.19a2.22 2.22 0 112.22 2.22 2.22 2.22 0 01-2.22-2.22z" stroke-linecap="round"/><path fill="#2e8be0" d="M22.7 44.19a2.22 2.22 0 112.22 2.22 2.22 2.22 0 01-2.22-2.22"/><path fill="none" stroke="#2e8be0" stroke-width="2" d="M27.14 29.07a2.22 2.22 0 11-2.22-2.22 2.22 2.22 0 012.22 2.22z" stroke-linecap="round"/><path fill="#2e8be0" d="M18 29.07a2.22 2.22 0 11-2.21-2.22A2.22 2.22 0 0118 29.07"/><path fill="none" stroke="#c5e2e9" stroke-width="2" d="M42.34 42l4.58 4.92" stroke-linecap="round" stroke-linejoin="round"/><path fill="none" stroke="#b5d0e7" stroke-width="2" d="M33.57 41.38l4.58 4.92m13.42-4.92l4.58 4.92M42.57 26.38l4.58 4.92m-13.58-4.92l4.58 4.92m13.42-4.92l4.58 4.92M42.57 11.38l4.58 4.92m-13.58-4.92l4.58 4.92m13.42-4.92l4.58 4.92" stroke-linecap="round" stroke-linejoin="round"/><path fill="#2e8be0" d="M42.28 44.75v6.19c-3.06 3.42-12.53 3.06-13.35 7.74-.1.56.17 3.7.17 3.7h34.62a36.7 36.7 0 00.17-3.7c-.82-4.62-10.17-4.33-13.29-7.68v-6.25h-8.32z"/><path fill="none" stroke="#fefefe" stroke-width="2" d="M42.28 44.75v6.19c-3.06 3.42-12.53 3.06-13.35 7.74-.1.56.17 3.7.17 3.7h34.62a36.7 36.7 0 00.17-3.7c-.82-4.62-10.17-4.33-13.29-7.68v-6.25h-8.32z" stroke-linecap="round" stroke-linejoin="round"/><path fill="#2e8be0" d="M53.32 41.3l.17-2c.41-4.72-2.74-9-7.08-9s-7.52 4.21-7.14 8.93l.16 2c.39 4.91 3.57 8.43 6.92 8.44s6.55-3.49 7-8.4"/><path fill="none" stroke="#fefefe" stroke-width="2" d="M53.32 41.3l.17-2c.41-4.72-2.74-9-7.08-9s-7.52 4.21-7.14 8.93l.16 2c.39 4.91 3.57 8.43 6.92 8.44s6.55-3.49 7-8.4z"/></svg>