<svg width="64" height="64" viewBox="0 0 64 64" xmlns="http://www.w3.org/2000/svg" xmlns:xlink="http://www.w3.org/1999/xlink"><defs><path id="a" d="M1.183.625h38.12V38.87H1.183z"/></defs><g fill="none" fill-rule="evenodd"><g fill="#B2CBD9"><path d="M18.696 20.725c-.115 1.057-.403 4.498-.136 10.27.416 9.055 10.46 15.074 12.755 16.335 2.344-1.272 12.335-7.222 12.753-16.335.266-5.772-.024-9.213-.139-10.27-1.007-.908-5.263-4.294-12.619-4.294-7.349 0-11.602 3.382-12.614 4.294zM31.313 49.58c-.668 0-14.337-6.986-14.866-18.489-.331-7.245.178-10.867.2-11.02.03-.214.127-.413.275-.569.197-.212 4.974-5.183 14.389-5.183 9.414 0 14.193 4.97 14.393 5.183.15.156.245.355.277.57.022.151.53 3.774.195 11.02-.52 11.335-13.823 18.093-14.391 18.377-.145.072-.308.11-.472.11z"/><path d="M11.55 55.754c-.244 0-.49-.085-.689-.258a31.158 31.158 0 01-9.726-15.368c-4.6-16.643 5.196-33.922 21.836-38.522C29.579-.218 36.428.142 42.787 2.651a1.057 1.057 0 01-.775 1.965c-5.928-2.34-12.318-2.674-18.476-.973C8.02 7.933-1.117 24.047 3.172 39.564a29.034 29.034 0 009.067 14.33 1.06 1.06 0 01-.689 1.86M31.252 63.114c-5.492 0-10.91-1.463-15.79-4.327a1.057 1.057 0 011.07-1.822c6.87 4.032 14.883 5.083 22.561 2.962 15.516-4.288 24.652-20.404 20.362-35.92A29.132 29.132 0 0047.005 7.163a1.056 1.056 0 111.135-1.783 31.239 31.239 0 0113.353 18.065c4.6 16.64-5.198 33.922-21.835 38.521a31.581 31.581 0 01-8.405 1.149"/></g><path d="M48.033 13.948c-.533 0-.992-.401-1.049-.943l-.745-6.927c-.063-.58.355-1.1.936-1.163l6.927-.745a1.057 1.057 0 01.223 2.101l-5.874.633.633 5.874a1.056 1.056 0 01-1.051 1.17M5.3 56.618a1.056 1.056 0 01-.067-2.112l5.893-.388-.388-5.896a1.056 1.056 0 112.108-.14l.46 6.95a1.055 1.055 0 01-.984 1.123l-6.95.461-.072.002" fill="#B2CBD9"/><g transform="translate(23.833 25)"><mask id="b" fill="#fff"><use xlink:href="#a"/></mask><path d="M6.736 9.549l-3.263 3.26c-.487.49-1.293.575-1.844.107a1.246 1.246 0 01-.444-.995c0-.338.128-.678.381-.932l3.326-3.328a1.06 1.06 0 000-1.482L1.566 2.853a1.317 1.317 0 01-.38-.931c0-.384.147-.743.443-.997.531-.446 1.357-.381 1.844.106l3.285 3.285c.4.4 1.079.4 1.482 0l3.282-3.285a1.325 1.325 0 011.953.085c.444.528.36 1.334-.128 1.822l-3.285 3.283a1.062 1.062 0 000 1.484l3.328 3.325c.55.553.507 1.441-.085 1.95-.53.447-1.336.362-1.824-.127L8.197 9.568c-.382-.422-1.06-.422-1.46-.02" fill="#B2CBD9" mask="url(#b)"/><path d="M39.303 23.15c0 8.754-7.095 15.85-15.849 15.85-8.753 0-15.849-7.096-15.849-15.85 0-8.75 7.096-15.848 15.85-15.848 8.753 0 15.848 7.098 15.848 15.849" fill="#D9312D" mask="url(#b)"/></g><path d="M58.223 48.153c0 .914-.351 1.757-.984 2.39a3.35 3.35 0 01-2.39.983h-1.935v-6.749h1.935a3.35 3.35 0 012.39.984 3.35 3.35 0 01.984 2.392zm-15.048 3.373v-6.749h8.262l-.033 6.75h-8.229zm-3.445 0a3.35 3.35 0 01-2.392-.983 3.346 3.346 0 01-.983-2.39c0-.914.35-1.76.983-2.392a3.35 3.35 0 012.392-.984h1.933v6.75H39.73zm-.017-8.244c-1.3 0-2.514.51-3.428 1.424a4.818 4.818 0 00-1.423 3.43c0 2.669 2.197 4.868 4.868 4.868h15.12c1.3 0 2.512-.509 3.425-1.423a4.815 4.815 0 001.425-3.428c0-2.674-2.197-4.87-4.868-4.87h-15.12zM42.419 40.576c0 .42.334.754.739.739.422 0 .756-.336.739-.739A3.375 3.375 0 0147.27 37.2c.914 0 1.76.351 2.392.984.633.633.986 1.478.986 2.392 0 .42.331.754.737.739.21 0 .405-.089.528-.212a.756.756 0 00.21-.527c0-2.673-2.197-4.868-4.868-4.868-2.656.017-4.836 2.195-4.836 4.868M43.175 54.974c-.422 0-.756.333-.736.739 0 2.671 2.197 4.868 4.868 4.868 1.335 0 2.55-.546 3.428-1.424a4.833 4.833 0 001.423-3.427c0-.423-.334-.756-.739-.739-.42 0-.754.334-.736.739a3.377 3.377 0 01-3.376 3.376c-.914 0-1.76-.354-2.392-.986a3.346 3.346 0 01-.984-2.39c-.017-.44-.35-.776-.756-.756" fill="#FFFFFE"/><path d="M39.009 48.907a.76.76 0 01-.772-.745.76.76 0 01.772-.748c.426 0 .771.334.771.748a.76.76 0 01-.771.745M55.82 48.894a.76.76 0 01-.772-.747c0-.412.345-.746.772-.746a.76.76 0 01.771.745.761.761 0 01-.771.748M49.108 50.768a.758.758 0 01-.77-.745.76.76 0 01.77-.748c.424 0 .77.336.77.748a.76.76 0 01-.77.745M45.48 50.766a.758.758 0 01-.769-.745.76.76 0 01.77-.748.76.76 0 01.77.748.758.758 0 01-.77.745M48.325 46.275c0-.412.345-.746.77-.746.426 0 .77.334.77.745a.758.758 0 01-.77.746.758.758 0 01-.77-.745M45.47 47.029a.758.758 0 01-.77-.746c0-.414.345-.745.77-.745.429 0 .773.331.773.745a.759.759 0 01-.773.745" fill="#FFFFFE"/></g></svg>