<svg width="93" height="92" viewBox="0 0 93 92" xmlns="http://www.w3.org/2000/svg" xmlns:xlink="http://www.w3.org/1999/xlink"><defs><path id="a" d="M.372.233h55.736v55.364H.372z"/></defs><g fill="none" fill-rule="evenodd"><g fill="#2E8BE0"><path d="M27.336 29.434c-.168 1.53-.59 6.51-.2 14.867.608 13.107 15.295 21.82 18.65 23.646C49.212 66.106 63.82 57.493 64.431 44.3c.39-8.356-.035-13.337-.203-14.867-1.473-1.315-7.695-6.217-18.45-6.217-10.745 0-16.964 4.896-18.443 6.217zm18.446 41.769c-.975 0-20.962-10.113-21.735-26.764-.484-10.489.26-15.733.292-15.953.044-.31.187-.599.402-.825.288-.307 7.274-7.502 21.038-7.502 13.765 0 20.753 7.195 21.044 7.502.219.226.358.515.406.825.031.22.776 5.464.285 15.953-.76 16.41-20.211 26.193-21.041 26.604-.212.103-.45.16-.69.16z"/><path d="M16.888 80.142c-.358 0-.716-.123-1.007-.374A45.053 45.053 0 011.66 57.521C-5.065 33.43 9.257 8.416 33.586 1.757c9.662-2.641 19.676-2.12 28.973 1.512a1.526 1.526 0 01.868 1.985 1.545 1.545 0 01-2.002.86c-8.667-3.388-18.01-3.87-27.012-1.409-22.689 6.21-36.048 29.537-29.775 52A41.982 41.982 0 0017.895 77.45c.647.553.72 1.522.165 2.158a1.554 1.554 0 01-1.172.534M45.694 90.796c-8.031 0-15.95-2.117-23.088-6.263a1.522 1.522 0 01-.551-2.092 1.555 1.555 0 012.116-.546c10.045 5.837 21.76 7.358 32.987 4.288 22.685-6.208 36.044-29.537 29.772-51.998C84.11 24.083 77.645 15.423 68.724 9.8a1.52 1.52 0 01-.475-2.11 1.557 1.557 0 012.135-.471c9.567 6.031 16.502 15.318 19.524 26.152 6.725 24.088-7.6 49.105-31.926 55.764a46.608 46.608 0 01-12.288 1.662"/></g><path d="M70.229 19.623c-.78 0-1.451-.58-1.533-1.365l-1.09-10.027a1.53 1.53 0 011.368-1.685l10.128-1.079c.846-.084 1.61.518 1.698 1.359a1.53 1.53 0 01-1.372 1.684l-8.588.916.925 8.503a1.533 1.533 0 01-1.536 1.694M7.749 81.393a1.538 1.538 0 01-1.54-1.427 1.539 1.539 0 011.441-1.631l8.617-.561-.567-8.535a1.533 1.533 0 011.438-1.628c.85-.047 1.587.58 1.644 1.424l.672 10.062c.057.84-.59 1.572-1.438 1.625l-10.163.668c-.035 0-.07.003-.104.003" fill="#2E8BE0"/><g transform="translate(36.204 36.294)"><mask id="b" fill="#fff"><use xlink:href="#a"/></mask><path d="M8.491 13.15l-4.77 4.721c-.713.709-1.892.831-2.696.154-.434-.367-.682-.92-.65-1.44 0-.49.187-.982.558-1.349l4.862-4.817c.59-.58.59-1.562 0-2.146L.933 3.46A1.896 1.896 0 01.375 2.11c0-.555.216-1.076.65-1.443C1.8.021 3.008.115 3.72.821l4.803 4.755c.586.58 1.578.58 2.167 0L15.49.82a1.95 1.95 0 012.853.122c.65.766.526 1.932-.187 2.638l-4.802 4.752a1.527 1.527 0 000 2.148l4.866 4.815c.804.8.741 2.086-.124 2.823-.776.646-1.954.524-2.667-.185l-4.803-4.755c-.557-.612-1.549-.612-2.135-.028" fill="#2E8BE0" mask="url(#b)"/><path d="M56.108 32.842c0 12.671-10.375 22.943-23.173 22.943-12.799 0-23.173-10.272-23.173-22.943 0-12.669 10.374-22.944 23.173-22.944 12.798 0 23.173 10.275 23.173 22.944" fill="#D9312D" mask="url(#b)"/></g><path d="M85.127 69.139a4.82 4.82 0 01-1.438 3.46 4.922 4.922 0 01-3.494 1.423h-2.829v-9.77h2.829c1.334 0 2.57.508 3.494 1.424a4.826 4.826 0 011.438 3.463zm-22 4.883v-9.77h12.079l-.048 9.77H63.126zm-5.038 0a4.924 4.924 0 01-3.497-1.424 4.82 4.82 0 01-1.438-3.46c0-1.323.513-2.546 1.438-3.462a4.924 4.924 0 013.497-1.424h2.826v9.77H58.09zm-.025-11.934c-1.9 0-3.675.737-5.011 2.06a6.94 6.94 0 00-2.082 4.966c0 3.864 3.212 7.047 7.118 7.047h22.106a7.06 7.06 0 005.008-2.06 6.936 6.936 0 002.085-4.962c0-3.87-3.212-7.051-7.118-7.051H58.064zM62.02 58.17c0 .609.489 1.092 1.081 1.07.618 0 1.106-.486 1.08-1.07 0-2.7 2.211-4.886 4.933-4.886 1.337 0 2.572.508 3.497 1.424a4.83 4.83 0 011.441 3.462c0 .609.485 1.092 1.078 1.07.307 0 .592-.129.772-.308.181-.178.308-.457.308-.762 0-3.87-3.212-7.047-7.118-7.047-3.884.025-7.071 3.177-7.071 7.047M63.126 79.012c-.617 0-1.105.483-1.077 1.07 0 3.867 3.213 7.048 7.119 7.048 1.951 0 3.728-.79 5.011-2.06a6.961 6.961 0 002.081-4.963c0-.612-.487-1.095-1.08-1.07-.614 0-1.102.484-1.077 1.07 0 2.698-2.211 4.887-4.935 4.887a4.927 4.927 0 01-3.498-1.427 4.82 4.82 0 01-1.438-3.46c-.025-.637-.513-1.123-1.106-1.095" fill="#FFFFFE"/><path d="M57.035 70.23c-.621 0-1.128-.486-1.128-1.079 0-.599.507-1.082 1.128-1.082.624 0 1.127.483 1.127 1.082 0 .593-.503 1.08-1.127 1.08M81.614 70.211c-.624 0-1.128-.486-1.128-1.082 0-.596.504-1.079 1.128-1.079.621 0 1.128.483 1.128 1.08 0 .595-.507 1.081-1.128 1.081M71.8 72.924c-.62 0-1.125-.483-1.125-1.078 0-.596.504-1.083 1.125-1.083s1.128.487 1.128 1.083c0 .595-.507 1.078-1.128 1.078M66.497 72.921c-.62 0-1.125-.483-1.125-1.079s.504-1.082 1.125-1.082c.624 0 1.128.486 1.128 1.082 0 .596-.504 1.08-1.128 1.08M70.656 66.42c0-.597.504-1.08 1.125-1.08.624 0 1.128.483 1.128 1.08 0 .595-.504 1.078-1.128 1.078-.62 0-1.125-.483-1.125-1.079M66.481 67.51c-.62 0-1.124-.482-1.124-1.078 0-.6.503-1.08 1.124-1.08.627 0 1.131.48 1.131 1.08 0 .596-.504 1.079-1.13 1.079" fill="#FFFFFE"/></g></svg>