<svg xmlns="http://www.w3.org/2000/svg" viewBox="0 0 68 60.6"><style>.st0,.st1{fill:none;stroke:#b5d0e7;stroke-width:2;stroke-linecap:round;stroke-linejoin:round}.st1{fill:#ed2e26;stroke:#ed2e26}</style><path id="Stroke-7_104_" class="st0" d="M18.2 15.8h31.6V1H18.2z"/><path id="Stroke-7_103_" class="st0" d="M48.2 38.5H67V27.4H48.2z"/><path id="Stroke-7_102_" class="st0" d="M1 59.6h18.8V48.5H1z"/><path id="Stroke-7_101_" class="st0" d="M24.6 59.6h18.8V48.5H24.6z"/><path class="st0" d="M19.8 33h4.8M43.4 33h4.8M19.8 54.1h4.8M43.4 54.1h4.8"/><path id="Stroke-7_100_" class="st0" d="M24.6 38.5h18.8V27.4H24.6z"/><path class="st0" d="M30.7 15.8v4.8H10.4v6.8M30.7 38.5v4.4H10.4v5.6M37.3 15.8v4.8h20.3v6.8M37.3 38.5v4.4h20.3v5.6"/><path id="Stroke-7_99_" class="st1" d="M1 38.5h18.8V27.4H1z"/><path id="Stroke-7_98_" class="st1" d="M48.2 59.6H67V48.5H48.2z"/></svg>