<svg width="60" height="52" viewBox="0 0 60 52" xmlns="http://www.w3.org/2000/svg"><g fill="none" fill-rule="evenodd"><path d="M36.81 2.788a13.704 13.704 0 00-13.728 0M34.75 6.34a9.595 9.595 0 00-9.608 0M32.612 10.028a5.316 5.316 0 00-2.666-.733c-.976 0-1.878.28-2.666.733" stroke="#B5D0E5" stroke-width="1.892" stroke-linecap="round" stroke-linejoin="round"/><path d="M28.611 13.858c0-.733.598-1.328 1.335-1.328s1.335.595 1.335 1.328c0 .734-.598 1.33-1.335 1.33a1.332 1.332 0 01-1.335-1.33" fill="#B5D0E5"/><path d="M58.93 41.924v-6.078c0-1.805-2.8-2.788-2.8-2.788l-9.554-3.156-5.765-6.933c-3.08-3.26-4.86-3.083-4.86-3.083H19.004c-3.87 0-4.96 2.202-4.96 2.202l-4.85 7.814-5.074 2.582C.701 33.819.95 36.42.95 36.42v4.183c0 5.086 6.341 4.1 6.341 4.1l.595.002c.01-3.08 2.517-5.573 5.61-5.573 3.1 0 5.611 2.502 5.611 5.588v.004l22.824.038-.002-.042c0-3.086 2.512-5.588 5.61-5.588 3.1 0 5.612 2.502 5.612 5.588l-.003.06h.511c5.847 0 5.271-2.856 5.271-2.856z" stroke="#B5D0E7" stroke-width="1.892" stroke-linecap="round" stroke-linejoin="round"/><path d="M7.886 44.705v.015c0 3.086 2.513 5.588 5.61 5.588 3.098 0 5.61-2.5 5.612-5.584M19.107 44.723v-.004c0-3.086-2.512-5.588-5.61-5.588-3.094 0-5.602 2.494-5.61 5.573M41.931 44.761c.022 3.066 2.524 5.546 5.608 5.546 3.08 0 5.576-2.47 5.61-5.526" stroke="#B5D0E7" stroke-width="1.892" stroke-linecap="round" stroke-linejoin="round"/><path d="M53.148 44.78c0-.021.003-.04.003-.061 0-3.085-2.513-5.587-5.61-5.587-3.1 0-5.612 2.502-5.612 5.587l.002.042M14.456 30.127h9.992s1.577-.16 1.577-1.59v-4.45s-.35-1.431-1.861-1.431H18.98s-1.717-.207-2.793 1.589l-2.674 4.17s-.777 1.712.942 1.712zM40.62 30.127H30.07s-1.577-.16-1.577-1.59v-4.45s.35-1.431 1.86-1.431h5.184s1.708-.008 2.793 1.589l3.234 4.17s.777 1.712-.943 1.712z" stroke="#B5D0E7" stroke-width="1.892" stroke-linecap="round" stroke-linejoin="round"/></g></svg>