<svg data-name="Text Outlined" xmlns="http://www.w3.org/2000/svg" viewBox="0 0 213.11 207.67"><title>isc-cpe</title><path d="M107.36 115.82a16.55 16.55 0 1 0 16.54 16.55 16.57 16.57 0 0 0-16.54-16.55zM178.71 37.73a2.55 2.55 0 1 0-2.55-2.56 2.56 2.56 0 0 0 2.55 2.56zm-1.33-4.15h1.45a.91.91 0 1 1 .15 1.81 1.77 1.77 0 0 1 .77.82l.4.64h-.65l-.29-.51c-.42-.74-.57-.88-1-.88h-.31v1.39h-.53v-3.27z" fill="#07376a"/><path d="M179.35 34.52a.51.51 0 0 0-.59-.49h-.86v1h.76a.55.55 0 0 0 .69-.51z" fill="#73c5ed"/><path d="M192.23 0H20.87C9.35 0 0 10.52 0 23.5v160.67c0 13 9.35 23.5 20.87 23.5h171.36c11.53 0 20.88-10.52 20.88-23.5V23.5c0-12.98-9.35-23.5-20.88-23.5zm-13.52 32.12a3.06 3.06 0 1 1-3.05 3.05 3.06 3.06 0 0 1 3.05-3.05zm-14.89 13a57.37 57.37 0 0 0 4.57-6.07 5 5 0 0 0 .92-2.81 2.29 2.29 0 0 0-2.26-2.48 3.76 3.76 0 0 0-3 1.78V33.2a4.9 4.9 0 0 1 3.11-1.25 3.88 3.88 0 0 1 4 4.11c0 2.14-1.16 3.94-4.1 7.43h5v1.79h-8.33v-.13zm-33.31-13.34c4.28 0 8.62 1 14.32 3.43v6.42c-5.14-3-9.54-4.34-14.38-4.34-9.54 0-16.63 6.79-16.63 16 0 9.35 6.85 15.84 16.87 15.84a27.26 27.26 0 0 0 14.56-4.72v6.55a30.56 30.56 0 0 1-15.11 3.67c-15.65 0-22.5-12-22.5-20.79 0-12.76 9.6-22.06 22.87-22.06zm-37.51 0a16.67 16.67 0 0 1 9.3 2.94v6.78c-3.55-3.37-7-4.34-9.79-4.34-3.85 0-6.61 2-6.61 4.95 0 8 18 7.9 18 21.16 0 6.55-5 11.32-11.68 11.32a18.37 18.37 0 0 1-11.67-3.85v-7.59c3 3.91 6.9 6.05 11 6.05 4.65 0 6.78-2.93 6.78-5.25 0-8.63-18-9.6-18-21 .04-6.82 5.05-11.17 12.67-11.17zM66.94 22.1c.92.53 1.89 1.05 2.94 1.55-10.07 7.7-16.35 18.58-16.35 30.65 0 11.13 5.34 21.24 14.06 28.78a33.26 33.26 0 0 0-3 1.9C52.95 77.29 45.7 66.39 45.7 54.3c0-12.92 8.25-24.46 21.24-32.2zm5.76 10.24V74h-6V32.34h6zm-.28 111.4a28.84 28.84 0 1 1-1.26-25.31 6.15 6.15 0 0 1-10.76 5.94 16.55 16.55 0 1 0 .72 14.52 6.15 6.15 0 0 1 11.29 4.85zm34.95 17.47A28.69 28.69 0 0 1 90.81 156v21.8a6.14 6.14 0 0 1-12.29 0v-45.43a28.83 28.83 0 1 1 28.84 28.84zM154.79 54.3c0-12.06-6.27-22.94-16.32-30.62 1-.5 2-1 2.94-1.55 13 7.73 21.21 19.27 21.21 32.17 0 12.08-7.24 23-18.84 30.66-.93-.65-1.95-1.29-3-1.91 8.68-7.53 14.01-17.64 14.01-28.75zm39.62 93.23a28.84 28.84 0 1 1-3-34.33 6.15 6.15 0 0 1-9.18 8.17 16.52 16.52 0 0 0-27.29 3.9h21.56a6.15 6.15 0 0 1 0 12.3h-22.31a16.54 16.54 0 0 0 29.81 3.49 6.15 6.15 0 0 1 10.41 6.47z" fill="#07376a"/></svg>