<svg xmlns="http://www.w3.org/2000/svg" width="58" height="58" viewBox="0 0 58 58"><g fill="none" fill-rule="evenodd"><path stroke="#B5D0E7" stroke-width="2" d="M29 57h28V29h-7.99a3.21 3.21 0 00-3.21 3.21v.005c0 .659.302 1.259.753 1.74a2.39 2.39 0 01.647 1.635v.058a2.452 2.452 0 01-2.452 2.452h-3.496a2.452 2.452 0 01-2.452-2.452v-.063c0-.659.302-1.259.753-1.74a2.39 2.39 0 00.647-1.635A3.21 3.21 0 0036.99 29H29v7.99a3.21 3.21 0 01-3.21 3.21h-.005c-.659 0-1.259-.302-1.74-.753a2.39 2.39 0 00-1.635-.647h-.058a2.452 2.452 0 00-2.452 2.452v3.496a2.452 2.452 0 002.452 2.452h.063c.659 0 1.259-.302 1.74-.753a2.39 2.39 0 011.635-.647A3.21 3.21 0 0129 49.01V57z" stroke-linejoin="round"/><path stroke="#B5D0E7" stroke-width="2" d="M1 29v28h28v-7.99a3.21 3.21 0 00-3.21-3.21h-.005c-.659 0-1.259.302-1.74.753a2.39 2.39 0 01-1.635.647h-.058a2.452 2.452 0 01-2.452-2.452v-3.496a2.452 2.452 0 012.452-2.452h.063c.659 0 1.259.302 1.74.753a2.39 2.39 0 001.635.647A3.21 3.21 0 0029 36.99V29h-7.99a3.21 3.21 0 01-3.21-3.21v-.005c0-.659.302-1.259.753-1.74a2.39 2.39 0 00.647-1.635v-.058a2.452 2.452 0 00-2.452-2.452h-3.496a2.452 2.452 0 00-2.452 2.452v.063c0 .659.302 1.259.753 1.74a2.39 2.39 0 01.647 1.635A3.21 3.21 0 018.99 29H1z" stroke-linejoin="round"/><path stroke="#B5D0E7" stroke-width="2" d="M29 1H1v28h7.99a3.21 3.21 0 003.21-3.21v-.005c0-.659-.302-1.259-.753-1.74a2.39 2.39 0 01-.647-1.635v-.058a2.452 2.452 0 012.452-2.452h3.496a2.452 2.452 0 012.452 2.452v.063c0 .659-.302 1.259-.753 1.74a2.39 2.39 0 00-.647 1.635A3.21 3.21 0 0021.01 29H29v-7.99a3.21 3.21 0 013.21-3.21h.005c.659 0 1.259.302 1.74.753a2.39 2.39 0 001.635.647h.058a2.452 2.452 0 002.452-2.452v-3.496a2.452 2.452 0 00-2.452-2.452h-.063c-.659 0-1.259.302-1.74.753a2.39 2.39 0 01-1.635.647A3.21 3.21 0 0129 8.99V1z" stroke-linejoin="round"/><path fill="#ED2E26" d="M57 29V1H29v7.99a3.21 3.21 0 003.21 3.21h.005c.659 0 1.259-.302 1.74-.753a2.39 2.39 0 011.635-.647h.058a2.452 2.452 0 012.452 2.452v3.496a2.452 2.452 0 01-2.452 2.452h-.063c-.659 0-1.259-.302-1.74-.753a2.39 2.39 0 00-1.635-.647A3.21 3.21 0 0029 21.01V29h7.99a3.21 3.21 0 013.21 3.21v.005c0 .659-.302 1.259-.753 1.74a2.39 2.39 0 00-.647 1.635v.058a2.452 2.452 0 002.452 2.452h3.496a2.452 2.452 0 002.452-2.452v-.063c0-.659-.302-1.259-.753-1.74a2.39 2.39 0 01-.647-1.635A3.21 3.21 0 0149.01 29H57z"/><path stroke="#ED2E26" stroke-width="2" d="M57 29V1H29v7.99a3.21 3.21 0 003.21 3.21h.005c.659 0 1.259-.302 1.74-.753a2.39 2.39 0 011.635-.647h.058a2.452 2.452 0 012.452 2.452v3.496a2.452 2.452 0 01-2.452 2.452h-.063c-.659 0-1.259-.302-1.74-.753a2.39 2.39 0 00-1.635-.647A3.21 3.21 0 0029 21.01V29h7.99a3.21 3.21 0 013.21 3.21v.005c0 .659-.302 1.259-.753 1.74a2.39 2.39 0 00-.647 1.635v.058a2.452 2.452 0 002.452 2.452h3.496a2.452 2.452 0 002.452-2.452v-.063c0-.659-.302-1.259-.753-1.74a2.39 2.39 0 01-.647-1.635A3.21 3.21 0 0149.01 29H57z"/></g></svg>