<svg xmlns="http://www.w3.org/2000/svg" width="58" height="58" viewBox="0 0 58 58">
  <g fill="none" fill-rule="evenodd" transform="translate(1 1)">
    <path stroke="#B5D0E7" stroke-linejoin="round" stroke-width="2" d="M28,56 L56,56 L56,28 L48.01,28 C46.237,28 44.8,29.437 44.8,31.21 L44.8,31.215 C44.8,31.874 45.102,32.474 45.553,32.955 C45.968,33.397 46.2,33.982 46.2,34.59 L46.2,34.648 C46.2,36.002 45.102,37.1 43.748,37.1 L40.252,37.1 C38.898,37.1 37.8,36.002 37.8,34.648 L37.8,34.585 C37.8,33.926 38.102,33.326 38.553,32.845 C38.968,32.403 39.2,31.818 39.2,31.21 L39.2,31.21 C39.2,29.437 37.763,28 35.99,28 L28,28 L28,35.99 C28,37.763 26.563,39.2 24.79,39.2 L24.785,39.2 C24.126,39.2 23.526,38.898 23.045,38.447 C22.603,38.032 22.018,37.8 21.41,37.8 L21.352,37.8 C19.998,37.8 18.9,38.898 18.9,40.252 L18.9,43.748 C18.9,45.102 19.998,46.2 21.352,46.2 L21.415,46.2 C22.074,46.2 22.674,45.898 23.155,45.447 C23.597,45.032 24.182,44.8 24.79,44.8 L24.79,44.8 C26.563,44.8 28,46.237 28,48.01 L28,56 Z"/>
    <path stroke="#B5D0E7" stroke-linejoin="round" stroke-width="2" d="M0,28 L0,56 L28,56 L28,48.01 C28,46.237 26.563,44.8 24.79,44.8 L24.785,44.8 C24.126,44.8 23.526,45.102 23.045,45.553 C22.603,45.968 22.018,46.2 21.41,46.2 L21.352,46.2 C19.998,46.2 18.9,45.102 18.9,43.748 L18.9,40.252 C18.9,38.898 19.998,37.8 21.352,37.8 L21.415,37.8 C22.074,37.8 22.674,38.102 23.155,38.553 C23.597,38.968 24.182,39.2 24.79,39.2 L24.79,39.2 C26.563,39.2 28,37.763 28,35.99 L28,28 L20.01,28 C18.237,28 16.8,26.563 16.8,24.79 L16.8,24.785 C16.8,24.126 17.102,23.526 17.553,23.045 C17.968,22.603 18.2,22.018 18.2,21.41 L18.2,21.352 C18.2,19.998 17.102,18.9 15.748,18.9 L12.252,18.9 C10.898,18.9 9.8,19.998 9.8,21.352 L9.8,21.415 C9.8,22.074 10.102,22.674 10.553,23.155 C10.968,23.597 11.2,24.182 11.2,24.79 L11.2,24.79 C11.2,26.563 9.763,28 7.99,28 L0,28 Z"/>
    <path stroke="#B5D0E7" stroke-linejoin="round" stroke-width="2" d="M28,0 L0,0 L0,28 L7.99,28 C9.763,28 11.2,26.563 11.2,24.79 L11.2,24.785 C11.2,24.126 10.898,23.526 10.447,23.045 C10.032,22.603 9.8,22.018 9.8,21.41 L9.8,21.352 C9.8,19.998 10.898,18.9 12.252,18.9 L15.748,18.9 C17.102,18.9 18.2,19.998 18.2,21.352 L18.2,21.415 C18.2,22.074 17.898,22.674 17.447,23.155 C17.032,23.597 16.8,24.182 16.8,24.79 L16.8,24.79 C16.8,26.563 18.237,28 20.01,28 L28,28 L28,20.01 C28,18.237 29.437,16.8 31.21,16.8 L31.215,16.8 C31.874,16.8 32.474,17.102 32.955,17.553 C33.397,17.968 33.982,18.2 34.59,18.2 L34.648,18.2 C36.002,18.2 37.1,17.102 37.1,15.748 L37.1,12.252 C37.1,10.898 36.002,9.8 34.648,9.8 L34.585,9.8 C33.926,9.8 33.326,10.102 32.845,10.553 C32.403,10.968 31.818,11.2 31.21,11.2 L31.21,11.2 C29.437,11.2 28,9.763 28,7.99 L28,0 Z"/>
    <path fill="#2E8BE0" stroke="#979797" d="M56,28 L56,0 L28,0 L28,7.99 C28,9.763 29.437,11.2 31.21,11.2 L31.215,11.2 C31.874,11.2 32.474,10.898 32.955,10.447 C33.397,10.032 33.982,9.8 34.59,9.8 L34.648,9.8 C36.002,9.8 37.1,10.898 37.1,12.252 L37.1,15.748 C37.1,17.102 36.002,18.2 34.648,18.2 L34.585,18.2 C33.926,18.2 33.326,17.898 32.845,17.447 C32.403,17.032 31.818,16.8 31.21,16.8 L31.21,16.8 C29.437,16.8 28,18.237 28,20.01 L28,28 L35.99,28 C37.763,28 39.2,29.437 39.2,31.21 L39.2,31.215 C39.2,31.874 38.898,32.474 38.447,32.955 C38.032,33.397 37.8,33.982 37.8,34.59 L37.8,34.648 C37.8,36.002 38.898,37.1 40.252,37.1 L43.748,37.1 C45.102,37.1 46.2,36.002 46.2,34.648 L46.2,34.585 C46.2,33.926 45.898,33.326 45.447,32.845 C45.032,32.403 44.8,31.818 44.8,31.21 L44.8,31.21 C44.8,29.437 46.237,28 48.01,28 L56,28 Z"/>
    <path stroke="#2E8BE0" stroke-width="2" d="M56,28 L56,0 L28,0 L28,7.99 C28,9.763 29.437,11.2 31.21,11.2 L31.215,11.2 C31.874,11.2 32.474,10.898 32.955,10.447 C33.397,10.032 33.982,9.8 34.59,9.8 L34.648,9.8 C36.002,9.8 37.1,10.898 37.1,12.252 L37.1,15.748 C37.1,17.102 36.002,18.2 34.648,18.2 L34.585,18.2 C33.926,18.2 33.326,17.898 32.845,17.447 C32.403,17.032 31.818,16.8 31.21,16.8 L31.21,16.8 C29.437,16.8 28,18.237 28,20.01 L28,28 L35.99,28 C37.763,28 39.2,29.437 39.2,31.21 L39.2,31.215 C39.2,31.874 38.898,32.474 38.447,32.955 C38.032,33.397 37.8,33.982 37.8,34.59 L37.8,34.648 C37.8,36.002 38.898,37.1 40.252,37.1 L43.748,37.1 C45.102,37.1 46.2,36.002 46.2,34.648 L46.2,34.585 C46.2,33.926 45.898,33.326 45.447,32.845 C45.032,32.403 44.8,31.818 44.8,31.21 L44.8,31.21 C44.8,29.437 46.237,28 48.01,28 L56,28 Z"/>
  </g>
</svg>
