<svg width="30" height="30" xmlns="http://www.w3.org/2000/svg"><g fill="none" fill-rule="evenodd"><path d="M2.49 0l25.063.036c1.354.002 2.45 1.1 2.447 2.453l-.035 25.064c-.002 1.352-1.1 2.448-2.454 2.446l-25.063-.036c-1.353-.002-2.45-1.1-2.447-2.453L.036 2.448C.038 1.094 1.136-.003 2.49 0" fill="#9ABFE1"/><path d="M7.52 6l15.31.022c.825 0 1.495.672 1.493 1.5L24.3 22.828c0 .825-.67 1.494-1.497 1.493L7.495 24.3C6.668 24.3 6 23.63 6 22.803l.022-15.308C6.024 6.668 6.694 6 7.522 6z" stroke="#FEFEFE" stroke-width="1.5" stroke-linecap="round" stroke-linejoin="round"/><path stroke="#FEFEFE" stroke-width="1.5" stroke-linecap="round" stroke-linejoin="round" d="M23.23 7l-7.974 11L6.73 7"/><path d="M18.5 13.5l6 10M12.5 13.5l-6 10" stroke="#FFF" stroke-width="1.5" stroke-linecap="square"/></g></svg>