<svg width="30" height="30" xmlns="http://www.w3.org/2000/svg" xmlns:xlink="http://www.w3.org/1999/xlink"><defs><path id="a" d="M0 0h30v30H0V0z"/></defs><g fill="none" fill-rule="evenodd"><path fill="#EE3E44" d="M17 22.742h9.75V19.41H17"/><g><mask id="b" fill="#fff"><use xlink:href="#a"/></mask><path d="M2.49 0L27.55.036c1.354.002 2.45 1.1 2.448 2.454l-.036 25.064c-.002 1.353-1.1 2.448-2.454 2.446l-25.064-.035C1.093 29.963-.002 28.865 0 27.51L.035 2.448C.037 1.094 1.135-.003 2.49 0" fill="#9ABFE1" mask="url(#b)"/></g><path stroke="#FEFEFE" stroke-width="1.5" stroke-linecap="round" stroke-linejoin="round" d="M23.07 19.242V9.844h-5.535V4.117H6.93v21.767h8.904M17.535 4.117l5.535 5.727M19.25 17.16h-8M19.25 13.16h-8M15.25 21.16h-4M22.833 23.534h-5M20.333 21.034v5"/></g></svg>