<svg width="30" height="30" xmlns="http://www.w3.org/2000/svg"><g fill="none" fill-rule="evenodd"><path d="M2.49 0L27.55.036c1.354.002 2.45 1.1 2.448 2.454l-.036 25.064c-.002 1.353-1.1 2.448-2.454 2.446l-25.064-.035C1.093 29.963-.002 28.865 0 27.51L.035 2.448C.037 1.094 1.135-.003 2.49 0" fill="#9ABFE1"/><path stroke="#FFF" stroke-width="1.5" d="M10 15.37L13.434 19 21 11"/><path d="M7.52 6l15.31.022c.825 0 1.495.672 1.493 1.5L24.3 22.828c0 .825-.67 1.494-1.497 1.493L7.495 24.3C6.668 24.3 6 23.63 6 22.803l.022-15.308C6.024 6.668 6.694 6 7.522 6z" stroke="#FEFEFE" stroke-width="1.5" stroke-linecap="round" stroke-linejoin="round"/></g></svg>