<svg width="57" height="57" viewBox="0 0 57 57" xmlns="http://www.w3.org/2000/svg"><g fill="none" fill-rule="evenodd"><path stroke="#ED2E26" stroke-width="2.241" stroke-linecap="round" stroke-linejoin="round" d="M25.13 8.074h2.371"/><path d="M32.198 8.074h11.875c5.237 0 9.482 4.434 9.482 9.904 0 3.741-1.984 6.997-4.912 8.682" stroke="#ED2E26" stroke-width="2.241" stroke-linecap="round" stroke-linejoin="round" stroke-dasharray="5.551896547449045,5.551896547449045"/><path d="M46.427 27.577a9.15 9.15 0 01-2.353.307m-13.299 19.81h-2.37" stroke="#ED2E26" stroke-width="2.241" stroke-linecap="round" stroke-linejoin="round"/><path d="M23.436 47.695H11.832c-5.238 0-9.482-4.435-9.482-9.905 0-5.471 4.244-9.906 9.482-9.906H39.22" stroke="#ED2E26" stroke-width="2.241" stroke-linecap="round" stroke-linejoin="round" stroke-dasharray="5.871292928169513,5.871292928169513"/><path stroke="#ED2E26" stroke-width="2.241" stroke-linecap="round" stroke-linejoin="round" d="M41.703 27.884h2.37"/><path d="M2.574 13.759V.793h17.478V13.76"/><path d="M2.574 13.759V.793h17.478V13.76M9.812 2.533h3" stroke="#B5D0E7" stroke-width="1.345" stroke-linecap="round" stroke-linejoin="round"/><path d="M11.312 16.08h6.874c3.245 0 2.856-2.322 2.856-2.322h-7.688l-.613.65h-2.86l-.612-.65H1.584s-.391 2.323 2.854 2.323h6.874v-.001z" fill="#FFF" fill-rule="nonzero"/><path d="M11.312 16.08h6.874c3.245 0 2.856-2.322 2.856-2.322h-7.688l-.613.65h-2.86l-.612-.65H1.584s-.391 2.323 2.854 2.323h6.874v-.001z" stroke="#B5D0E7" stroke-width="1.345" stroke-linecap="round" stroke-linejoin="round"/><path fill="#ED2E26" fill-rule="nonzero" d="M36.959 53.078V40.113h17.48v12.965"/><path stroke="#ED2E26" stroke-width="1.345" stroke-linecap="round" stroke-linejoin="round" d="M36.959 53.078V40.113h17.48v12.965"/><path stroke="#FFF" stroke-width="1.345" stroke-linecap="round" stroke-linejoin="round" d="M44.199 41.852h2.999"/><path d="M45.698 55.4h6.874c3.246 0 2.856-2.322 2.856-2.322h-7.687l-.611.65h-2.862l-.61-.65H35.97s-.39 2.322 2.856 2.322h6.872z" fill="#FFF" fill-rule="nonzero"/><path d="M45.698 55.4h6.874c3.246 0 2.856-2.322 2.856-2.322h-7.687l-.611.65h-2.862l-.61-.65H35.97s-.39 2.322 2.856 2.322h6.872z" stroke="#ED2E26" stroke-width="1.345" stroke-linecap="round" stroke-linejoin="round"/></g></svg>