<svg width="53" height="37" viewBox="0 0 53 37" xmlns="http://www.w3.org/2000/svg"><g fill="none" fill-rule="evenodd"><path d="M8.5 1.8h37.6c1.4 0 2.5 1.1 2.5 2.5v28.4H6V4.3C6 3 7.1 1.8 8.5 1.8" fill="#FFF"/><path d="M8.5 1.8h37.6c1.4 0 2.5 1.1 2.5 2.5v28.4H6V4.3C6 3 7.1 1.8 8.5 1.8z" stroke="#B5D0E5" stroke-width="1.673" stroke-linecap="round" stroke-linejoin="round"/><path d="M18.6 14.3c0-5.1 4.1-9.2 9.2-9.2S37 9.2 37 14.3s-4.1 9.2-9.2 9.2c-5.1.1-9.2-4.1-9.2-9.2" fill="#B5D0E5"/><path d="M27.8 9.1c-4.5 0-6.3 4.6-6.4 4.8-.1.3-.1.5 0 .8.5 1.7 2.4 5 6.4 5s5.9-3.2 6.4-5c.1-.3.1-.5 0-.8-.1-.2-1.9-4.8-6.4-4.8m0 1.2c3.6 0 5.2 4 5.2 4s-1.1 4-5.2 4-5.2-4-5.2-4 1.6-4 5.2-4" fill="#FFF" fill-rule="nonzero"/><path d="M25.6 14.8c-.3-1.6 1.1-3 2.7-2.7.9.2 1.6.9 1.8 1.8.3 1.6-1.1 3-2.7 2.7-.9-.2-1.6-.9-1.8-1.8z" stroke="#FFF" stroke-width="1.255" stroke-linecap="round" stroke-linejoin="round"/><path d="M6 26.1h42.7" stroke="#B5D0E5" stroke-width="1.673" stroke-linecap="round" stroke-linejoin="round"/><path d="M31.1 29.4V32h-8.4v-2.5H1.8v1.6c0 2.3 1.9 4.2 4.2 4.2h41.7c2.3 0 4.2-1.9 4.2-4.2v-1.6H31.1v-.1z" fill="#FFF"/><path d="M31.1 29.4V32h-8.4v-2.5H1.8v1.6c0 2.3 1.9 4.2 4.2 4.2h41.7c2.3 0 4.2-1.9 4.2-4.2v-1.6H31.1v-.1z" stroke="#B5D0E5" stroke-width="1.673" stroke-linecap="round" stroke-linejoin="round"/></g></svg>