<svg xmlns="http://www.w3.org/2000/svg" viewBox="0 0 87.8 87.8"><path d="M43.9 87.8C19.7 87.8 0 68.1 0 43.9S19.7 0 43.9 0s43.9 19.7 43.9 43.9-19.7 43.9-43.9 43.9zm0-84.5C21.5 3.3 3.3 21.5 3.3 43.9s18.2 40.6 40.6 40.6c22.4 0 40.6-18.2 40.6-40.6S66.3 3.3 43.9 3.3z"/><path d="M66 28.5c0-1.4-1.2-2.6-2.6-2.6H24.3c-1.4 0-2.6 1.2-2.6 2.6V54c0 1.4 1.2 2.6 2.6 2.6h39.2c1.4 0 2.6-1.2 2.6-2.6V28.5zm-2.8 24.8H24.7V29.1h38.5v24.2zM20.2 57.8v.9c0 1.8 1.4 3.2 3.1 3.2h41.4c1.7 0 3-1.5 3-3.2v-.9H20.2zm26.3 2.6h-5.3v-1.2h5.3v1.2z"/></svg>