<svg xmlns="http://www.w3.org/2000/svg" viewBox="0 0 63.2 45.2"><g fill="#ffffff"><path d="M4.4 45.2L0 40.8V38h24.8l2 2h9.5l2-2h24.8v2.8l-4.4 4.4H4.4zm54-1.2l3.6-3.6v-1.2H38.8l-2 2H26.4l-2-2H1.2v1.2L4.8 44h53.6z"/><path d="M4.4 45L.2 40.8v-2.6h24.6l2 2h9.7l2-2H63v2.6L58.8 45H4.4zM1 40.4l3.8 3.8h53.7l3.8-3.8V39H38.8l-2 2H26.4l-2-2H1v1.4zM58 35.2V3.6c0-1.3-1.1-2.4-2.4-2.4h-48c-1.3 0-2.4 1.1-2.4 2.4v31.6H4V3.6C4 1.6 5.6 0 7.6 0h48c2 0 3.6 1.6 3.6 3.6v31.6H58z"/><path d="M58.2 35V3.6C58.2 2.2 57 1 55.6 1h-48C6.2 1 5 2.2 5 3.6V35h-.8V3.6C4.2 1.7 5.7.2 7.6.2h48C57.5.2 59 1.7 59 3.6V35h-.8z"/><path d="M27 32h1.2v1.2H27z"/><path d="M27.2 32.2h.8v.8h-.8zM23 32h1.2v1.2H23z"/><path d="M23.2 32.2h.8v.8h-.8z"/><g><path d="M31 32h1.2v1.2H31z"/><path d="M31.2 32.2h.8v.8h-.8z"/></g><g><path d="M35 32h1.2v1.2H35z"/><path d="M35.2 32.2h.8v.8h-.8z"/></g><g><path d="M39 32h1.2v1.2H39z"/><path d="M39.2 32.2h.8v.8h-.8z"/></g><g><path d="M43 33.2V32h11V5.2H9.2V32h11v1.2H8V4h47.2v29.2"/><path d="M43.2 33v-.8h11V5H9v27.2h11v.8H8.2V4.2H55V33"/></g></g><path fill="#ffffff" d="M38 23.5c-2.8-1-3.7-1.9-3.7-3.7 0-1.1.9-.7 1.2-2.8.2-.8.9 0 1.1-1.9 0-.8-.4-1-.4-1s.2-1.1.3-2c.1-1.1-.6-3.9-4.5-3.9s-4.6 2.8-4.5 3.9c.1.9.3 2 .3 2s-.4.2-.4 1c.1 1.9.9 1.1 1.1 1.9.4 2 1.2 1.7 1.2 2.8 0 1.8-.9 2.7-3.7 3.7-2.8 1-4.6 2.1-4.6 2.8v2.4H42.7v-2.4c0-.7-1.8-1.7-4.7-2.8z"/></svg>