
<svg width="57px" height="75px" viewBox="0 0 57 75" version="1.1" xmlns="http://www.w3.org/2000/svg" xmlns:xlink="http://www.w3.org/1999/xlink">
    <!-- Generator: Sketch 44.1 (41455) - http://www.bohemiancoding.com/sketch -->
    <desc>Created with Sketch.</desc>
    <defs>
        <polygon id="path-1" points="0 75 57.0164167 75 57.0164167 0 0 0"></polygon>
    </defs>
    <g id="12.1-13-App-detail" stroke="none" stroke-width="1" fill="none" fill-rule="evenodd">
        <g id="13-App-Detail---WAF" transform="translate(-735.000000, -1764.000000)">
            <g id="---Features-overview" transform="translate(185.000000, 1290.000000)">
                <g id="::-04" transform="translate(549.000000, 474.000000)">
                    <g id="icon" transform="translate(1.000000, 0.000000)">
                        <polygon id="Stroke-1" stroke="#B5D0E5" stroke-width="2" stroke-linecap="round" stroke-linejoin="round" points="1.20833333 73.8095238 55.8080833 73.8095238 55.8080833 5.0047619 1.20833333 5.0047619"></polygon>
                        <polygon id="Fill-3" fill="#B5D0E5" points="1.69770833 17.5440476 55.0154167 17.5440476 55.0154167 14.9821429 1.69770833 14.9821429"></polygon>
                        <g id="Group-30">
                            <path d="M9.05899583,1.36607143 L9.05899583,8.6422619 C9.05899583,9.39702381 8.44032917,10.0089286 7.6730375,10.0089286 C6.9081625,10.0089286 6.28587083,9.39702381 6.28587083,8.6422619 L6.28587083,1.36607143 C6.28587083,0.611309524 6.9081625,0.000595238095 7.6730375,0.000595238095 C8.44032917,0.000595238095 9.05899583,0.611309524 9.05899583,1.36607143 Z" id="Fill-4" fill="#B5D0E5"></path>
                            <path d="M17.9491875,1.36607143 L17.9491875,8.6422619 C17.9491875,9.39702381 17.3268958,10.0089286 16.5632292,10.0089286 C15.7947292,10.0089286 15.1760625,9.39702381 15.1760625,8.6422619 L15.1760625,1.36607143 C15.1760625,0.611309524 15.7947292,0.000595238095 16.5632292,0.000595238095 C17.3268958,0.000595238095 17.9491875,0.611309524 17.9491875,1.36607143" id="Fill-6" fill="#B5D0E5"></path>
                            <path d="M25.5673667,1.36607143 L25.5673667,8.6422619 C25.5673667,9.39702381 24.945075,10.0089286 24.1814083,10.0089286 C23.4129083,10.0089286 22.7942417,9.39702381 22.7942417,8.6422619 L22.7942417,1.36607143 C22.7942417,0.611309524 23.4129083,0.000595238095 24.1814083,0.000595238095 C24.945075,0.000595238095 25.5673667,0.611309524 25.5673667,1.36607143" id="Fill-8" fill="#B5D0E5"></path>
                            <path d="M33.1855458,1.36607143 L33.1855458,8.6422619 C33.1855458,9.39702381 32.5632542,10.0089286 31.7995875,10.0089286 C31.0347125,10.0089286 30.4124208,9.39702381 30.4124208,8.6422619 L30.4124208,1.36607143 C30.4124208,0.611309524 31.0347125,0.000595238095 31.7995875,0.000595238095 C32.5632542,0.000595238095 33.1855458,0.611309524 33.1855458,1.36607143" id="Fill-10" fill="#B5D0E5"></path>
                            <path d="M40.803725,1.36607143 L40.803725,8.6422619 C40.803725,9.39702381 40.1850583,10.0089286 39.4177667,10.0089286 C38.6528917,10.0089286 38.0306,9.39702381 38.0306,8.6422619 L38.0306,1.36607143 C38.0306,0.611309524 38.6528917,0.000595238095 39.4177667,0.000595238095 C40.1850583,0.000595238095 40.803725,0.611309524 40.803725,1.36607143" id="Fill-12" fill="#B5D0E5"></path>
                            <path d="M48.4219042,1.36607143 L48.4219042,8.6422619 C48.4219042,9.39702381 47.8032375,10.0089286 47.0359458,10.0089286 C46.2710708,10.0089286 45.6487792,9.39702381 45.6487792,8.6422619 L45.6487792,1.36607143 C45.6487792,0.611309524 46.2710708,0.000595238095 47.0359458,0.000595238095 C47.8032375,0.000595238095 48.4219042,0.611309524 48.4219042,1.36607143" id="Fill-14" fill="#B5D0E5"></path>
                            <mask id="mask-2" fill="white">
                                <use xlink:href="#path-1"></use>
                            </mask>
                            <g id="Clip-17"></g>
                            <polygon id="Stroke-16" stroke="#B5D0E5" stroke-width="2" stroke-linecap="round" stroke-linejoin="round" mask="url(#mask-2)" points="7.558125 35.0285714 17.7129583 35.0285714 17.7129583 25.0202381 7.558125 25.0202381"></polygon>
                            <polygon id="Fill-18" fill="#B5D0E5" mask="url(#mask-2)" points="11.3667917 31.2761905 13.9042917 31.2761905 13.9042917 28.772619 11.3667917 28.772619"></polygon>
                            <path d="M22.7943625,23.77 L49.4574458,23.77 C50.1606958,23.77 50.7298208,24.3295238 50.7298208,25.02 C50.7298208,25.7104762 50.1606958,26.2711905 49.4574458,26.2711905 L22.7943625,26.2711905 C22.0911125,26.2711905 21.5256125,25.7104762 21.5256125,25.02 C21.5256125,24.3295238 22.0911125,23.77 22.7943625,23.77" id="Fill-19" fill="#B5D0E5" mask="url(#mask-2)"></path>
                            <path d="M22.7943625,28.7725 L49.4574458,28.7725 C50.1606958,28.7725 50.7298208,29.3332143 50.7298208,30.0236905 C50.7298208,30.7141667 50.1606958,31.2760714 49.4574458,31.2760714 L22.7943625,31.2760714 C22.0911125,31.2760714 21.5256125,30.7141667 21.5256125,30.0236905 C21.5256125,29.3332143 22.0911125,28.7725 22.7943625,28.7725" id="Fill-20" fill="#B5D0E5" mask="url(#mask-2)"></path>
                            <path d="M22.7943625,33.7769048 L49.4574458,33.7769048 C50.1606958,33.7769048 50.7298208,34.337619 50.7298208,35.0280952 C50.7298208,35.7197619 50.1606958,36.2804762 49.4574458,36.2804762 L22.7943625,36.2804762 C22.0911125,36.2804762 21.5256125,35.7197619 21.5256125,35.0280952 C21.5256125,34.337619 22.0911125,33.7769048 22.7943625,33.7769048" id="Fill-21" fill="#B5D0E5" mask="url(#mask-2)"></path>
                            <polygon id="Stroke-22" stroke="#EC3127" stroke-width="2" stroke-linecap="round" stroke-linejoin="round" mask="url(#mask-2)" points="7.558125 51.2928571 17.7129583 51.2928571 17.7129583 41.2845238 7.558125 41.2845238"></polygon>
                            <path d="M22.7943625,40.0309524 L49.4574458,40.0309524 C50.1606958,40.0309524 50.7298208,40.5916667 50.7298208,41.2845238 C50.7298208,41.9738095 50.1606958,42.5345238 49.4574458,42.5345238 L22.7943625,42.5345238 C22.0911125,42.5345238 21.5256125,41.9738095 21.5256125,41.2845238 C21.5256125,40.5916667 22.0911125,40.0309524 22.7943625,40.0309524" id="Fill-23" fill="#EC3127" mask="url(#mask-2)"></path>
                            <path d="M22.7943625,45.0370238 L49.4574458,45.0370238 C50.1606958,45.0370238 50.7298208,45.5977381 50.7298208,46.2870238 C50.7298208,46.979881 50.1606958,47.5405952 49.4574458,47.5405952 L22.7943625,47.5405952 C22.0911125,47.5405952 21.5256125,46.979881 21.5256125,46.2870238 C21.5256125,45.5977381 22.0911125,45.0370238 22.7943625,45.0370238" id="Fill-24" fill="#EC3127" mask="url(#mask-2)"></path>
                            <path d="M22.7943625,50.0395238 L49.4574458,50.0395238 C50.1606958,50.0395238 50.7298208,50.6002381 50.7298208,51.2930952 C50.7298208,51.982381 50.1606958,52.5430952 49.4574458,52.5430952 L22.7943625,52.5430952 C22.0911125,52.5430952 21.5256125,51.982381 21.5256125,51.2930952 C21.5256125,50.6002381 22.0911125,50.0395238 22.7943625,50.0395238" id="Fill-25" fill="#EC3127" mask="url(#mask-2)"></path>
                            <polygon id="Stroke-26" stroke="#B5D0E5" stroke-width="2" stroke-linecap="round" stroke-linejoin="round" mask="url(#mask-2)" points="7.558125 67.5535714 17.7129583 67.5535714 17.7129583 57.5452381 7.558125 57.5452381"></polygon>
                            <path d="M22.7943625,56.2953571 L49.4574458,56.2953571 C50.1606958,56.2953571 50.7298208,56.8560714 50.7298208,57.5453571 C50.7298208,58.2382143 50.1606958,58.7989286 49.4574458,58.7989286 L22.7943625,58.7989286 C22.0911125,58.7989286 21.5256125,58.2382143 21.5256125,57.5453571 C21.5256125,56.8560714 22.0911125,56.2953571 22.7943625,56.2953571" id="Fill-27" fill="#B5D0E5" mask="url(#mask-2)"></path>
                            <path d="M22.7943625,61.2978571 L49.4574458,61.2978571 C50.1606958,61.2978571 50.7298208,61.8585714 50.7298208,62.5514286 C50.7298208,63.2407143 50.1606958,63.8014286 49.4574458,63.8014286 L22.7943625,63.8014286 C22.0911125,63.8014286 21.5256125,63.2407143 21.5256125,62.5514286 C21.5256125,61.8585714 22.0911125,61.2978571 22.7943625,61.2978571" id="Fill-28" fill="#B5D0E5" mask="url(#mask-2)"></path>
                            <path d="M22.7943625,66.3039286 L49.4574458,66.3039286 C50.1606958,66.3039286 50.7298208,66.8646429 50.7298208,67.5539286 C50.7298208,68.2467857 50.1606958,68.8075 49.4574458,68.8075 L22.7943625,68.8075 C22.0911125,68.8075 21.5256125,68.2467857 21.5256125,67.5539286 C21.5256125,66.8646429 22.0911125,66.3039286 22.7943625,66.3039286" id="Fill-29" fill="#B5D0E5" mask="url(#mask-2)"></path>
                        </g>
                    </g>
                </g>
            </g>
        </g>
    </g>
</svg>