<svg xmlns="http://www.w3.org/2000/svg" width="126" height="168" viewBox="0 0 126 168"><path fill="#bed2ed" d="M110.2 68.2v-21C110.2 21.2 89.1 0 63 0S15.8 21.2 15.8 47.2v21C7 68.2 0 75.3 0 84v36.7C0 146.8 21.1 168 47.2 168h31.5c26.1 0 47.2-21.2 47.2-47.2V84c.1-8.7-6.9-15.8-15.7-15.8m-84-21C26.2 27 42.7 10.5 63 10.5c20.3 0 36.8 16.5 36.8 36.8v21H89.2v-21C89.2 32.8 77.5 21 63 21S36.8 32.8 36.8 47.2v21H26.2v-21zm57.8 0v21H42v-21c0-11.6 9.4-21 21-21s21 9.5 21 21m31.5 52.6v20.9c0 20.3-16.5 36.8-36.8 36.8H47.2c-20.3 0-36.8-16.5-36.8-36.8V84c0-2.9 2.4-5.2 5.2-5.2h94.5c2.9 0 5.2 2.4 5.2 5.2v15.8z"/><path fill="#bed2ed" d="M63 99.8c-5.8 0-10.5 4.7-10.5 10.5 0 3.2 1.7 9.2 3.5 14 1.4 3.9 3.2 7 7 7 4.1 0 5.6-3 7-6.9 1.8-4.8 3.5-10.9 3.5-14.1 0-5.8-4.7-10.5-10.5-10.5"/></svg>