<svg xmlns="http://www.w3.org/2000/svg" xmlns:xlink="http://www.w3.org/1999/xlink" width="149" height="50"><defs><path id="a" d="M0 .001h42.318V50H0z"/><path id="c" d="M0 50h150V0H0z"/></defs><g fill="none" fill-rule="evenodd"><mask id="b" fill="#fff"><use xlink:href="#a"/></mask><path fill="#1D2737" d="M16.803 9.226c-.264.033-.165.233-.165.4.364.2.397.666.463 1.033 0 .132.199.066.23.033.166-.3-.031-.633-.098-.966a1.647 1.647 0 0 0-.33-.5c-.033-.067-.1 0-.1 0m6.146.133c.298 0 .66.534.694 1.1 0 .1.231.066.298 0 .132-.234.033-.5-.033-.766-.067-.234-.331-.467-.562-.566a.826.826 0 0 0-.496-.067c-.033.034-.199.3.1.3m-3.008 2.031c.133.2.363.2.529.266.099.033.298.1.364-.033.132-.467-.463-.333-.76-.333-.066 0-.199 0-.133.1m-1.453-.067c-.298-.066-.694-.033-.893.2-.066.066-.033.333.1.366.198.066.33-.1.364-.266.033-.067.033-.133.098-.166.066-.034.198 0 .298-.034.066 0 .033-.1.033-.1m-4.527-3.063c-.165-5.66 2.015-8.158 6.575-8.257 4.56-.101 7.4 2.33 7.996 5.493.562 3.163.231 7.325 1.421 9.49 1.156 2.164 1.883 3.83 3.899 6.327 1.982 2.496 3.238 5.06 3.8 8.124.594 3.096.925 4.528-.595 6.126-1.488 1.599-4.13 4.163-6.113 1.233-.991-1.466-1.09-3.263.595-3.663 1.09-.266 1.85-.167 2.644.233.793.432.99.233.032-.5s-1.156-.066-.825-1.23c.33-1.167.76-3.264-.133-5.562-.43-1.066-1.85-3.962-3.173-4.695-.131-.066-.462-.2-.23.066.364.467 2.28 3.297 2.841 5.028.595 1.832.662 3.564.364 4.695-.298 1.099-.826 1.565-1.454 1.565-.627 0-1.223.3-1.223-1.165s.166-3.696-.627-5.594c-.794-1.865-1.752-3.163-1.95-3.962-.198-.8-.661-2.931-1.619-4.13-.958-1.199-1.355-1.998-.859-3.396.495-1.365.132-1.732-.859-2.03-.991-.3-2.313-.7-2.643-1.366-.33-.667-.132-1.997.628-2.33.759-.334 1.982.133 2.015 1.098.033.965-.43 1.465-.297 1.665.132.2.793.532 1.123.166.33-.366.43-1.531.066-2.63-.33-1.099-.495-1.831-1.685-2.098-1.19-.266-1.751-.167-2.313.567-.561.732-.826 1.964-.66 2.829.165.866-.166.367-.76.334-.562-.033-.43-.067-.992-.033-.562.033-.363-.334-.43-.966-.032-.633-.132-1.932-.99-2.431-.86-.5-2.347.067-2.314 2.164.033 2.098.76 3.097 1.156 2.33.43-.732.199-.365-.197-.698-.43-.333-.694-1.699-.265-2.131.462-.433.992-.433 1.289-.167.297.267.726 1.1.661 1.631-.066.533-.132.567-.661.967-.595.499-.793.832-1.421 1.231-.628.434-.858 1.365-.363 1.632.495.266.528.2.957.833.43.632 1.124.931 2.876.632 1.718-.3 2.445-.7 3.766-1.165.959-.333.628-.3.959-.666.33-.366.858.166.363.499-.496.334-1.62.666-2.446.965-.826.3-1.783 1.133-3.502 1.033-1.751-.067-.528-.033-1.09-.067-.529-.032-.792.034-.198.466.595.433.529.533 1.024.7.496.166 1.157.166 1.95-.133.793-.3 2.775-1.165 3.403-1.599.628-.433 1.123.134.496.534-.628.431-.793.299-1.356.665-.561.366-1.651.999-2.346 1.666-.693.665-.858.698-1.75.731-.86.034-1.42-.866-1.785-1.298-.364-.433-.33-.666-.793-1.166-.462-.5-.495-.366-.561.168-.066.531-.694 1.93-1.256 2.829-.529.932-.562 2.031-.496 2.83.066.8-.165.933-.793 1.832-.627.932-1.651 3.63-1.816 4.494-.166.866-.364 2.665-.298 3.697s-.199 1.265-.959.533c-.726-.7-.99-1.499-.957-2.531.033-.9.164-1.531.264-1.864.099-.333 0-.567-.231-.167-.496.9-.53 2.43-.397 2.964.132.532.165 1.498 1.52 2.797 1.354 1.298 3.37 3.096 5.022 4.295 1.652 1.199 2.247 2.697-.199 3.796 1.521 2.098 2.346 3.163 1.686 4.562 1.355-.8.827-2.665.198-3.163-.66-.5-.264-.9.33-.5.562.366.794 1.132 3.074 1.098 2.28-.033 4.724-.266 6.08-2.263 1.354-1.999 1.618-.334 1.288.866-.33 1.165-1.156 3.795.132 3.562.165-1.532.53-2.897.53-4.562 0-1.665.164-2.464.031-4.895-.132-2.33.86-2.497 1.917-2.497 1.024 0 .694.666.032.632-.66-.033-1.354.2-1.42 1.932-.032 1.698 0 1.53.297 3.097.298 1.531.331 1.997.067 3.696-.232 1.698-.463 2.63.66 3.662 1.124 1.033 2.809.733 3.669.068.858-.667 2.51-2.199 3.997-2.698 1.487-.5 3.073-.866 3.899-1.698.826-.833.628-1.433-.264-1.864-.86-.467-1.686-.267-2.346-1-.661-.765-.991-2.43-.76-3.296.264-.866.529-.5.529.133s.033 1.198.66 1.998c.628.799 1.19 1.165 2.18 1.798.992.632 1.62 1.63.365 2.497-1.223.866-1.95 1.365-2.974 1.799-1.024.432-2.743 1.43-3.767 2.463-1.024 1.033-1.62 1.964-3.635 1.964-2.015 0-2.94-.498-3.568-1.697-.43-.833-.627-.7-1.586-.766-.958-.033-4.13-.067-6.609-.033-2.477.033-3.303.466-4.427 1.365-1.123.932-1.52 1.631-3.634.932-2.115-.7-3.239-1.498-6.378-2.132-3.139-.632-1.453-.332-3.37-.765-1.916-.4-1.784-1.331-1.52-2.097.232-.733.86-1.933.33-3.464-.528-1.531-.33-3.13 1.125-3.13 1.453 0 2.808.3 3.402-1.631.563-1.932.76-.433.563.067-.166.499-.232 1.864-1.52 2.097-1.289.2-1.586-.067-2.346-.067-.793 0-1.124.534-.694 1.465.43.933.858 1.865.793 2.665-.1.799-.165 1.099-.76 1.831-.562.732-.496 1.132.528 1.365 1.024.267 2.908.766 4.626 1.166 1.752.4 1.85.4 4.89 1.198 3.007.8 3.867-.633 4.097-2.331.265-1.698-.925-3.33-1.982-4.961-1.09-1.632-2.247-3.496-3.634-5.194-1.422-1.699-2.248-1.832-2.942-1.465-.693.366-.826.299-.859-.666-.033-.966-.131-1.598.662-2.998.793-1.43 1.486-2.962 2.312-5.326.827-2.364 1.586-2.831 2.974-4.895 1.421-2.032.793-1.233 1.784-2.63.992-1.366.694-1.134.628-3.297 0-2.165-.066-3.43-.165-6.26" mask="url(#b)"/><path fill="#B5D0E7" d="M78.935 7.97c1.748-2.1 2.956-5.068 2.62-7.97-2.552.1-5.609 1.668-7.422 3.802-1.646 1.867-3.056 4.87-2.687 7.738 2.821.2 5.71-1.434 7.49-3.57m6.313 18.612c.067 7.572 6.684 10.107 6.751 10.14-.067.167-1.04 3.602-3.492 7.103-2.117 3.036-4.266 6.071-7.725 6.138-3.359.067-4.467-2.002-8.33-2.002-3.862 0-5.07 1.935-8.261 2.035-3.326.134-5.844-3.301-7.96-6.337-4.266-6.17-7.557-17.51-3.123-25.182 2.217-3.802 6.145-6.204 10.41-6.27 3.26-.067 6.315 2.168 8.33 2.168 1.982 0 5.71-2.702 9.64-2.302 1.645.067 6.246.668 9.201 4.97-.234.167-5.474 3.202-5.44 9.539"/><mask id="d" fill="#fff"><use xlink:href="#c"/></mask><path fill="#FFF" d="M69.236 38h2.815v-2.92h-2.815V38zm.189-8.124l.105-.105c2.668-.086 3.865-.953 3.865-2.35v-.042c0-1.185-.903-2.01-2.395-2.01-1.323 0-2.415.593-3.423 1.671L66 25.348C67.22 23.951 68.795 23 71.063 23 74.005 23 76 24.65 76 27.295v.041c0 2.689-1.91 3.874-4.243 4.275l-.21 1.693h-1.702l-.42-3.428z" mask="url(#d)"/><path fill="#1D2737" d="M149 26.347L148.994 49l-26.01-3.66-.036-19.036 26.052.043zM122.985 4.784L148.995 1v22.756l-26.01.206V4.784zm-2.379 21.385l.016 18.88-19.606-2.687-.002-16.319 19.592.126zM101 7.797l19.616-2.664.009 18.863-19.608.112L101 7.797z" mask="url(#d)"/></g></svg>