<svg xmlns="http://www.w3.org/2000/svg" width="32" height="32" viewBox="0 0 32 32"><path fill="#0F446C" d="M20 0C13.4 0 8 5.4 8 12c0 2 .5 3.9 1.4 5.6l-8.3 8.3c-.7.7-1.1 1.6-1.1 2.6C0 30.4 1.6 32 3.5 32c1 0 1.9-.4 2.5-1.1l8.3-8.3c1.8.9 3.7 1.4 5.7 1.4 6.6 0 12-5.4 12-12S26.6 0 20 0M4.8 29.7c-.3.3-.8.5-1.3.5-1 0-1.8-.8-1.8-1.8 0-.5.2-.9.5-1.3l8.1-8.1c.7 1 1.5 1.8 2.5 2.5l-8 8.2zM20 22c-5.5 0-10-4.5-10-10S14.5 2 20 2s10 4.5 10 10-4.5 10-10 10"/><path fill="#0F446C" d="M20 5c-3.9 0-7 3.1-7 7 0 .3.2.5.5.5s.5-.2.5-.5c0-3.3 2.7-6 6-6 .3 0 .5-.2.5-.5S20.3 5 20 5"/></svg>