<svg xmlns="http://www.w3.org/2000/svg" width="48" height="51" viewBox="0 0 48 51"><g fill="none" fill-rule="evenodd"><path fill="#B5D0E5" stroke="#B5D0E5" d="M9.332 26.955v2.732c0 .39.26.65.65.65.391 0 .65-.26.65-.65V27.02c0-.39-.259-.65-.65-.65-.39 0-.65.26-.65.585m4.097-2.862v5.593c0 .39.26.65.65.65s.65-.26.65-.65v-5.593c0-.39-.26-.65-.65-.65s-.65.26-.65.65m4.096-1.43v7.023c0 .39.261.65.651.65s.65-.26.65-.65v-7.023c0-.39-.26-.65-.65-.65s-.65.325-.65.65m4.162 1.95v5.073c0 .39.26.65.65.65s.65-.26.65-.65v-5.072c0-.39-.26-.65-.65-.65s-.65.324-.65.65m4.097-3.317v8.389c0 .39.26.65.65.65s.65-.26.65-.65v-8.389c0-.39-.26-.65-.65-.65s-.65.26-.65.65m4.096-3.706v12.095c0 .39.26.65.65.65s.65-.26.65-.65V17.591c0-.39-.26-.65-.65-.65s-.65.324-.65.65"/><path fill="#B5D0E5" stroke="#B5D0E5" stroke-width=".5" d="M33.393 14.08h.13c.325 0 .585-.196.65-.521l1.106-5.267c.065-.326-.13-.716-.52-.78L29.49 6.405c-.325-.065-.716.13-.78.52-.066.325.13.716.52.78l3.771.78-10.664 7.154-3.772-1.821c-.195-.065-.455-.065-.65.065L4.65 22.338c-.325.195-.39.585-.195.91.13.195.326.326.52.326.13 0 .26-.066.326-.13l12.94-8.26 3.772 1.822c.195.065.454.065.65-.066l10.99-7.348-.78 3.772c-.066.325.13.65.52.715"/><path stroke="#B5D0E7" stroke-linecap="round" stroke-linejoin="round" stroke-width="2" d="M35.061 42.42H6.597A5.597 5.597 0 011 36.825V6.598A5.597 5.597 0 016.597 1h28.464a5.597 5.597 0 015.596 5.598v30.226a5.597 5.597 0 01-5.596 5.597z"/><path fill="#B5D0E5" d="M28.89 34.824v5.173c-2.561 2.867-10.479 2.586-11.168 6.48-.08.473.139 3.096.139 3.096h28.96s.22-2.623.138-3.095c-.684-3.867-8.502-3.619-11.113-6.419v-5.235H28.89z"/><path stroke="#FEFEFE" stroke-linecap="round" stroke-linejoin="round" stroke-width="2" d="M28.89 34.824v5.173c-2.561 2.867-10.479 2.586-11.168 6.48-.08.473.139 3.096.139 3.096h28.96s.22-2.623.138-3.095c-.684-3.867-8.502-3.619-11.113-6.419v-5.235H28.89z"/><path fill="#B5D0E5" d="M38.123 31.94l.145-1.664c.344-3.95-2.292-7.5-5.924-7.512-3.63-.011-6.29 3.52-5.972 7.472l.133 1.666c.33 4.108 2.983 7.052 5.786 7.061 2.804.01 5.476-2.916 5.832-7.022"/><path stroke="#FEFEFE" stroke-width="2" d="M38.123 31.94l.145-1.664c.344-3.95-2.292-7.5-5.924-7.512-3.63-.011-6.29 3.52-5.972 7.472l.133 1.666c.33 4.108 2.983 7.052 5.786 7.061 2.804.01 5.476-2.916 5.832-7.022z"/></g></svg>