<svg xmlns="http://www.w3.org/2000/svg" width="78" height="68" viewBox="0 0 78 68"><path fill="#236CA9" d="M66 34.8c-.2.5.1 1.2.6 1.4.6.2 1.2-.1 1.4-.6 4.1-11-1.5-23.2-12.5-27.3-.6-.2-1.2.1-1.4.6-.2.6.1 1.2.6 1.4 9.9 3.5 15 14.6 11.3 24.5"/><path fill="#236CA9" d="M57 4.1C70.2 9 76.9 23.8 72 37c-.4 1.1.2 2.3 1.3 2.7 1.1.4 2.3-.2 2.7-1.3C81.7 23 73.9 5.9 58.5.2c-1.1-.4-2.3.2-2.7 1.3-.5 1 .1 2.2 1.2 2.6"/><path fill="none" stroke="#0F4B84" stroke-width="3" stroke-miterlimit="10" d="M55.9 25.4C50.5 12.8 41.8 3.2 37.4 5 29.9 8 41.8 22.7 5 37.6c-3.2 1.3-4 6.5-2.7 9.6 1.3 3.1 5.7 6.2 8.9 4.9.5-.2 2.6-.9 2.6-.9 2.3 3 4.6 1.2 5.5 3.2 1 2.3 3.2 7.4 4 9.1.7 1.7 2.4 3.3 3.7 2.8 1.2-.5 5.4-2.1 7-2.7 1.6-.6 2-2 1.5-3.2-.5-1.2-2.7-1.6-3.3-3-.6-1.4-2.6-6-3.2-7.4-.8-1.9.9-3.5 3.3-3.8 16.7-1.7 19.9 8.6 25.6 6.3 4.3-1.7 3.4-14.5-2-27.1zM54 45.9c-1 .4-7.6-4.8-11.8-14.6-4.2-9.8-3.7-18.8-2.7-19.2 1-.4 7.4 5.9 11.6 15.7 4.3 9.8 3.9 17.7 2.9 18.1z"/></svg>