<svg width="44" height="49" viewBox="0 0 44 49" xmlns="http://www.w3.org/2000/svg"><g fill="none" fill-rule="evenodd"><g stroke="#B5D0E7" stroke-linecap="round" stroke-linejoin="round" stroke-width="1.718"><path d="M.859 7.15h28.52M.859 39.444h28.52"/></g><path fill="#B5D0E7" d="M12.392 5.053h5.452V3.746h-5.452zM13.89 43.623a1.229 1.229 0 112.457 0 1.229 1.229 0 01-2.457 0"/><path d="M24.23 26.29v-3.617H21.91V11.756h7.469V2.988a2.13 2.13 0 00-2.13-2.13H2.989a2.13 2.13 0 00-2.13 2.13v42.285a2.13 2.13 0 002.13 2.13h24.26a2.13 2.13 0 002.13-2.13v-22.6h-1.034L24.23 26.29z" stroke="#B5D0E7" stroke-width="1.718" stroke-linecap="round" stroke-linejoin="round"/><path stroke="#B5D0E5" stroke-width="1.718" stroke-linecap="round" stroke-linejoin="round" d="M29.378 22.673h13.48V11.756h-13.48"/><path d="M39.739 17.214a1.25 1.25 0 10-2.499 0 1.25 1.25 0 002.499 0M35.596 17.214a1.25 1.25 0 10-2.5.003 1.25 1.25 0 002.5-.003M31.453 17.214a1.25 1.25 0 10-2.5 0 1.25 1.25 0 002.5 0M27.31 17.214a1.25 1.25 0 10-2.5.003 1.25 1.25 0 002.5-.003" fill="#B5D0E5"/></g></svg>