<svg data-name="Layer 3" xmlns="http://www.w3.org/2000/svg" viewBox="0 0 193.47 154.74"><title>monitor-click</title><path fill="#07376a"  d="M121.74 149.64a9.47 9.47 0 0 1-3.71-6.17l-1.26-8H76.7l-1.26 8a9.45 9.45 0 0 1-3.71 6.17c-3.35 2.47-6 4.58-3.35 4.94s26.58 0 28.36 0 25.8.34 28.36 0 0-2.47-3.35-4.94M185.73 0h-24.15l-10.67 11.61h31v92.87H11.61V11.61h145.68L167.07 0H7.74A7.74 7.74 0 0 0 0 7.74V120a7.74 7.74 0 0 0 7.74 7.74h178a7.74 7.74 0 0 0 7.74-7.74V7.74A7.74 7.74 0 0 0 185.73 0"/><path fill="#07376a"  d="M125.53 88.14h-.07a1.11 1.11 0 0 1-.77-.38l-9.9-11.38c-3.86 9.55-3.9 9.55-4.78 9.55a1.11 1.11 0 0 1-1-.69C96.64 54.94 96.81 54.39 97 53.92a1.19 1.19 0 0 1 1.11-.8c.69 0 3.45.89 28.43 11.47l2.39 1 .17.08a1.11 1.11 0 0 1-.44 2.07c-.7.2-4.26 1.62-7.81 3.07l10.52 11a1.11 1.11 0 0 1-.06 1.59l-5 4.43a1.11 1.11 0 0 1-.78.31zM87.35 45.21a1.66 1.66 0 0 1-1.18-.49l-5.53-5.52A1.67 1.67 0 1 1 83 36.84l5.53 5.53a1.67 1.67 0 0 1-1.18 2.84zM83.59 51.73a1.68 1.68 0 0 1-.43-.06l-7.55-2a1.67 1.67 0 0 1 .86-3.22l7.55 2a1.67 1.67 0 0 1-.43 3.28zM76 61.27a1.67 1.67 0 0 1-.4-3.27l7.55-2a1.67 1.67 0 0 1 .85 3.19l-7.55 2a1.7 1.7 0 0 1-.45.08zM81.82 71.28a1.67 1.67 0 0 1-1.18-2.85l5.53-5.53a1.67 1.67 0 0 1 2.36 2.36L83 70.79a1.66 1.66 0 0 1-1.18.49zM91.84 77.07A1.67 1.67 0 0 1 90.22 75l2-7.55a1.67 1.67 0 1 1 3.22.86l-2 7.55a1.67 1.67 0 0 1-1.6 1.21zM111.65 51.73a1.67 1.67 0 0 1-.43-3.28l7.55-2a1.67 1.67 0 1 1 .86 3.22l-7.55 2a1.68 1.68 0 0 1-.43.06zM107.89 45.21a1.67 1.67 0 0 1-1.18-2.85l5.53-5.53a1.67 1.67 0 0 1 2.36 2.36l-5.53 5.53a1.67 1.67 0 0 1-1.18.49zM101.38 41.45a1.67 1.67 0 0 1-1.61-2.1l2-7.55a1.67 1.67 0 0 1 3.22.86l-2 7.55a1.67 1.67 0 0 1-1.61 1.24zM93.86 41.45a1.67 1.67 0 0 1-1.61-1.24l-2-7.55a1.67 1.67 0 0 1 3.22-.86l2 7.55a1.67 1.67 0 0 1-1.61 2.1z"/></svg>