<svg width="65" height="59" viewBox="0 0 65 59" xmlns="http://www.w3.org/2000/svg"><g fill="none" fill-rule="evenodd"><path d="M18.46 14.512h27.722V2.723H18.46v11.79zm28.835 2.22H17.35a1.11 1.11 0 01-1.11-1.111V1.613c0-.615.498-1.11 1.11-1.11h29.944c.61 0 1.108.495 1.108 1.11V15.62a1.11 1.11 0 01-1.108 1.11zM46.88 36.01h15.545v-8.277H46.88v8.277zm16.655 2.219H45.772a1.107 1.107 0 01-1.108-1.108V26.622c0-.612.494-1.108 1.108-1.108h17.763c.612 0 1.109.496 1.109 1.108v10.499c0 .612-.497 1.108-1.109 1.108zM2.219 55.953h15.544v-8.28H2.22v8.28zm16.652 2.22H1.108A1.109 1.109 0 010 57.061V46.566c0-.613.496-1.109 1.108-1.109h17.763c.615 0 1.111.496 1.111 1.109v10.496a1.11 1.11 0 01-1.11 1.11zM24.55 55.953h15.544v-8.28H24.55v8.28zm16.654 2.22H23.441a1.11 1.11 0 01-1.11-1.111V46.566c0-.613.496-1.109 1.11-1.109h17.763c.613 0 1.109.496 1.109 1.109v10.496c0 .614-.496 1.11-1.109 1.11zM23.441 32.98h-4.57a1.11 1.11 0 010-2.219h4.57a1.11 1.11 0 010 2.22" fill="#B2CBD9"/><path d="M45.772 32.98h-4.568a1.109 1.109 0 110-2.218h4.568a1.109 1.109 0 010 2.219M23.441 52.924h-4.57a1.11 1.11 0 010-2.221h4.57a1.11 1.11 0 010 2.221M45.772 52.924h-4.568a1.11 1.11 0 110-2.221h4.568a1.11 1.11 0 011.108 1.113c0 .612-.493 1.108-1.108 1.108" fill="#B2CBD9"/><path d="M24.55 36.01h15.544v-8.277H24.55v8.277zm16.654 2.219H23.441c-.614 0-1.11-.496-1.11-1.108V26.622c0-.612.496-1.108 1.11-1.108h17.763c.613 0 1.109.496 1.109 1.108v10.499c0 .612-.496 1.108-1.109 1.108zM9.991 27.733a1.11 1.11 0 01-1.11-1.11v-6.457c0-.615.498-1.109 1.11-1.109h18.134v-3.436a1.11 1.11 0 012.221 0v4.545a1.11 1.11 0 01-1.11 1.11H11.102v5.346a1.11 1.11 0 01-1.111 1.11" fill="#B2CBD9"/><path d="M9.991 47.674c-.612 0-1.11-.494-1.11-1.108v-5.328a1.11 1.11 0 011.11-1.109h18.134v-3.008a1.11 1.11 0 012.221 0v4.117c0 .614-.496 1.113-1.11 1.113H11.102v4.215c0 .614-.499 1.108-1.111 1.108M54.653 27.733a1.109 1.109 0 01-1.109-1.11v-5.347H35.408a1.11 1.11 0 01-1.11-1.11V15.62a1.11 1.11 0 012.218 0v3.436h18.137c.614 0 1.11.494 1.11 1.109v6.456a1.11 1.11 0 01-1.11 1.11M54.653 47.674a1.107 1.107 0 01-1.109-1.108V42.35H35.408c-.612 0-1.11-.499-1.11-1.113V37.12a1.11 1.11 0 012.218 0v3.008h18.137c.614 0 1.11.497 1.11 1.109v5.328c0 .614-.496 1.108-1.11 1.108" fill="#B2CBD9"/><path fill="#D9312D" d="M1.108 37.12h17.763V26.625H1.108z"/><path d="M2.219 36.01h15.544v-8.277H2.22v8.277zm16.652 2.219H1.108A1.108 1.108 0 010 37.121V26.622c0-.612.496-1.108 1.108-1.108h17.763c.615 0 1.111.496 1.111 1.108v10.499c0 .612-.496 1.108-1.11 1.108zM45.772 57.062h17.763V46.566H45.772z" fill="#D9312D"/><path d="M46.88 55.953h15.545v-8.28H46.88v8.28zm16.655 2.22H45.772a1.107 1.107 0 01-1.108-1.111V46.566c0-.613.494-1.109 1.108-1.109h17.763c.612 0 1.109.496 1.109 1.109v10.496c0 .614-.497 1.11-1.109 1.11z" fill="#D9312D"/></g></svg>