<svg xmlns="http://www.w3.org/2000/svg" xmlns:xlink="http://www.w3.org/1999/xlink" width="72" height="68"><defs><path id="a" d="M.623.637h18.363V19H.623z"/><path id="c" d="M.49.073h23.194V22.3H.49z"/></defs><g fill="none" fill-rule="evenodd"><path fill="#B5D0E7" d="M17.028 60c-.55 0-1.057-.35-1.229-.895a1.272 1.272 0 01.844-1.599l40.378-12.53L8.776 24.3a1.271 1.271 0 01.142-2.393L55.714 8.053c.69-.2 1.4.183 1.606.857a1.274 1.274 0 01-.865 1.588L13.045 23.35l48.178 20.648c.494.212.804.706.775 1.238-.028.532-.388.99-.9 1.15L17.414 59.94a1.3 1.3 0 01-.386.06"/><path fill="#FFF" d="M9 58c0-4.419 3.58-8 7.999-8A8 8 0 119 58"/><g transform="translate(7 49)"><mask id="b" fill="#fff"><use xlink:href="#a"/></mask><path fill="#B5D0E7" d="M9.804 2.7a7.124 7.124 0 00-7.117 7.12 7.124 7.124 0 007.117 7.116 7.124 7.124 0 007.118-7.116A7.125 7.125 0 009.804 2.7m0 16.3c-5.062 0-9.18-4.12-9.18-9.182 0-5.064 4.118-9.182 9.18-9.182 5.063 0 9.182 4.118 9.182 9.182 0 5.062-4.119 9.181-9.182 9.181" mask="url(#b)"/></g><path fill="#ED2E26" d="M50 45c0-5.523 4.477-10 10-10s10 4.477 10 10c0 5.522-4.477 10-10 10s-10-4.478-10-10"/><g transform="translate(48 33)"><mask id="d" fill="#fff"><use xlink:href="#c"/></mask><path fill="#ED2E26" d="M12.087 2.57c-4.957 0-8.99 3.866-8.99 8.617 0 4.75 4.033 8.615 8.99 8.615 4.958 0 8.991-3.865 8.991-8.615 0-4.751-4.033-8.616-8.991-8.616m0 19.73C5.692 22.3.49 17.314.49 11.186S5.692.073 12.087.073s11.598 4.985 11.598 11.114c0 6.128-5.203 11.113-11.598 11.113" mask="url(#d)"/></g><path fill="#FFF" d="M1 24a8 8 0 018-8 8 8 0 11-8 8"/><path fill="#B5D0E7" d="M9 17.023a6.984 6.984 0 00-6.977 6.976 6.984 6.984 0 006.978 6.977 6.984 6.984 0 006.976-6.977A6.983 6.983 0 009 17.023M9 33c-4.963 0-9-4.038-9-9.001C0 19.037 4.037 15 9 15s9 4.037 9 8.999C18 28.962 13.963 33 9 33"/><path fill="#FFF" d="M48 9c0-4.419 3.58-8 8-8a8 8 0 110 16 8 8 0 01-8-8"/><path fill="#B5D0E7" d="M56 2.023a6.984 6.984 0 00-6.977 6.976 6.984 6.984 0 006.978 6.977 6.984 6.984 0 006.976-6.977A6.983 6.983 0 0056 2.023M56 18c-4.963 0-9-4.038-9-9.001C47 4.037 51.037 0 56 0s9 4.037 9 8.999C65 13.962 60.963 18 56 18"/><path fill="#FFF" d="M55.309 51c-.335 0-.67-.127-.927-.383a1.31 1.31 0 01.001-1.852l10.383-10.381a1.308 1.308 0 111.85 1.852L56.235 50.618a1.308 1.308 0 01-.926.382"/><path fill="#FFF" d="M65.691 51c-.335 0-.67-.127-.926-.382l-10.38-10.382a1.308 1.308 0 111.85-1.852l10.382 10.381A1.31 1.31 0 0165.69 51"/></g></svg>