<svg width="93" height="82" viewBox="0 0 93 82" xmlns="http://www.w3.org/2000/svg"><g fill="none" fill-rule="evenodd"><path d="M26.396 19.928h39.642v-16.7H26.396v16.7zm41.234 3.144H24.812a1.58 1.58 0 01-1.589-1.574V1.654c0-.87.713-1.574 1.589-1.574H67.63a1.58 1.58 0 011.585 1.574v19.844a1.58 1.58 0 01-1.585 1.574zM67.038 50.383h22.227V38.657H67.038v11.726zm23.815 3.144h-25.4a1.575 1.575 0 01-1.585-1.57V37.084c0-.867.706-1.57 1.585-1.57h25.4c.876 0 1.585.703 1.585 1.57v14.873c0 .867-.71 1.57-1.585 1.57zM3.173 78.636h22.228V66.907H3.173v11.73zm23.813 3.144H1.585A1.578 1.578 0 010 80.207v-14.87c0-.867.71-1.57 1.585-1.57h25.4c.88 0 1.589.703 1.589 1.57v14.87c0 .87-.71 1.573-1.588 1.573zM35.105 78.636h22.228V66.907H35.105v11.73zm23.816 3.144h-25.4a1.579 1.579 0 01-1.589-1.573v-14.87c0-.867.71-1.57 1.588-1.57h25.401c.875 0 1.585.703 1.585 1.57v14.87c0 .87-.71 1.573-1.585 1.573zM33.52 46.092h-6.534c-.876 0-1.585-.7-1.585-1.57 0-.867.71-1.573 1.585-1.573h6.534a1.58 1.58 0 011.585 1.573c0 .87-.71 1.57-1.585 1.57" fill="#2E8BE0"/><path d="M65.453 46.092H58.92c-.875 0-1.588-.7-1.588-1.57 0-.867.713-1.573 1.588-1.573h6.532c.878 0 1.585.706 1.585 1.573 0 .87-.707 1.57-1.585 1.57M33.52 74.345h-6.534a1.577 1.577 0 01-1.585-1.57c0-.87.71-1.577 1.585-1.577h6.534a1.58 1.58 0 011.585 1.577c0 .867-.71 1.57-1.585 1.57M65.453 74.345H58.92a1.58 1.58 0 01-1.588-1.57c0-.87.713-1.577 1.588-1.577h6.532c.878 0 1.585.706 1.585 1.577 0 .867-.707 1.57-1.585 1.57" fill="#2E8BE0"/><path d="M35.105 50.383h22.228V38.657H35.105v11.726zm23.816 3.144h-25.4a1.578 1.578 0 01-1.589-1.57V37.084c0-.867.71-1.57 1.588-1.57h25.401c.875 0 1.585.703 1.585 1.57v14.873c0 .867-.71 1.57-1.585 1.57zM14.287 38.657a1.58 1.58 0 01-1.588-1.573v-9.147c0-.87.712-1.57 1.588-1.57h25.931v-4.869c0-.867.713-1.57 1.588-1.57.879 0 1.588.703 1.588 1.57v6.439c0 .87-.71 1.573-1.588 1.573H15.875v7.574a1.58 1.58 0 01-1.588 1.573" fill="#2E8BE0"/><path d="M14.287 66.907c-.876 0-1.588-.7-1.588-1.57v-7.548c0-.867.712-1.57 1.588-1.57h25.931v-4.262c0-.87.713-1.574 1.588-1.574.879 0 1.588.703 1.588 1.574v5.832c0 .87-.71 1.577-1.588 1.577H15.875v5.97c0 .871-.713 1.571-1.588 1.571M78.151 38.657a1.578 1.578 0 01-1.585-1.573V29.51H50.632a1.58 1.58 0 01-1.588-1.573v-6.439c0-.867.713-1.57 1.588-1.57.879 0 1.585.703 1.585 1.57v4.869H78.15c.879 0 1.588.7 1.588 1.57v9.147c0 .87-.709 1.573-1.588 1.573M78.151 66.907c-.875 0-1.585-.7-1.585-1.57v-5.971H50.632a1.584 1.584 0 01-1.588-1.577v-5.832c0-.87.713-1.574 1.588-1.574.879 0 1.585.703 1.585 1.574v4.262H78.15c.879 0 1.588.703 1.588 1.57v7.548c0 .87-.709 1.57-1.588 1.57" fill="#2E8BE0"/><path fill="#ED2E26" d="M1.585 51.957h25.4v-14.87h-25.4z"/><path d="M3.173 50.383h22.228V38.657H3.173v11.726zm23.813 3.144H1.585A1.577 1.577 0 010 51.957V37.084c0-.867.71-1.57 1.585-1.57h25.4c.88 0 1.589.703 1.589 1.57v14.873c0 .867-.71 1.57-1.588 1.57zM65.453 80.207h25.4v-14.87h-25.4z" fill="#ED2E26"/><path d="M67.038 78.636h22.227V66.907H67.038v11.73zm23.815 3.144h-25.4a1.576 1.576 0 01-1.585-1.573v-14.87c0-.867.706-1.57 1.585-1.57h25.4c.876 0 1.585.703 1.585 1.57v14.87c0 .87-.71 1.573-1.585 1.573z" fill="#ED2E26"/></g></svg>