<svg width="41" height="41" viewBox="0 0 41 41" xmlns="http://www.w3.org/2000/svg"><g fill="#B5D0E6" fill-rule="evenodd"><path d="M1.6 39.4h37.8V1.6H1.6v37.8zM0 .8v39.4c0 .4.4.8.8.8h39.4c.4 0 .8-.4.8-.8V.8c0-.4-.4-.8-.8-.8H.8C.4 0 0 .4 0 .8z"/><path d="M6.3 17.3h11v-11h-11v11zM4.7 5.5v12.6c0 .4.4.8.8.8h12.6c.4 0 .8-.4.8-.8V5.5c0-.4-.4-.8-.8-.8H5.5c-.4 0-.8.4-.8.8zM11.8 22.1c-3.9 0-7.1 3.2-7.1 7.1 0 3.9 3.2 7.1 7.1 7.1 3.9 0 7.1-3.2 7.1-7.1 0-4-3.2-7.1-7.1-7.1M29.1 8.2l4.5 9.1h-9.1c.1 0 4.6-9.1 4.6-9.1zm.7-2.1a.77.77 0 00-1.4 0l-5.8 11.7c-.3.5.1 1.1.7 1.1H35c.6 0 1-.6.7-1.1L29.8 6.1zm-.2 16.1c-.3-.2-.7-.2-.9 0l-6.6 5c-.3.2-.4.6-.3.9l2.5 7.6c.1.3.4.5.7.5h8.2c.3 0 .6-.2.7-.5l2.5-7.6c.1-.3 0-.7-.3-.9l-6.5-5zm5.2 5.9l-2.2 6.6h-7l-2.2-6.6 5.7-4.3 5.7 4.3z"/></g></svg>