<svg width="40" height="45" viewBox="0 0 40 45" xmlns="http://www.w3.org/2000/svg" xmlns:xlink="http://www.w3.org/1999/xlink"><defs><path id="a" d="M0 44.549h39.485V-.001H0z"/></defs><g fill="none" fill-rule="evenodd"><path d="M3.712.742h32.046a2.97 2.97 0 012.97 2.971v7.172H.742V3.713a2.97 2.97 0 012.97-2.97z" stroke="#B5D0E5" stroke-width="1.485"/><mask id="b" fill="#fff"><use xlink:href="#a"/></mask><path stroke="#B5D0E5" stroke-width="1.485" mask="url(#b)" d="M.742 27.338h38V17.21h-38zM5.806 17.21h27.858v-6.325H5.806zM.743 33.679h37.984v7.157a2.97 2.97 0 01-2.968 2.97H3.712a2.97 2.97 0 01-2.97-2.97v-7.157zM5.806 33.664h27.858v-6.326H5.806z"/><path fill="#B5D0E5" mask="url(#b)" d="M7.069 7.083h2.539v-2.54H7.069zM7.069 23.552h2.539v-2.54H7.069zM7.069 40.02h2.539v-2.54H7.069z"/></g></svg>