<svg width="50" height="52" viewBox="0 0 50 52" xmlns="http://www.w3.org/2000/svg"><g fill="none" fill-rule="evenodd"><path d="M21.5 50.825C8.8 50.825 1 47.74 1 45.528v-11.52h41v11.52c0 2.211-7.8 5.297-20.5 5.297" fill="#FEFEFE"/><path d="M41 35.008l.002 10.502c-.278 1.187-6.696 4.314-19.502 4.314-12.807 0-19.225-3.127-19.5-4.295V35.008h39zm2-2H0v12.521c0 3.477 9.626 6.295 21.5 6.295S43 49.006 43 45.529V33.008z" fill="#B5D0E7"/><path d="M21.5 37.469C8.8 37.469 1 34.384 1 32.172v-11.52h41v11.52c0 2.212-7.8 5.297-20.5 5.297" fill="#FEFEFE"/><path d="M41 21.651l.002 10.503c-.278 1.188-6.696 4.314-19.502 4.314-12.807 0-19.225-3.127-19.5-4.296v-10.52h39zm2-2H0v12.521c0 3.478 9.626 6.297 21.5 6.297S43 35.648 43 32.172v-12.52z" fill="#B5D0E7"/><path d="M21.5 24.113C8.8 24.113 1 21.028 1 18.816V7.296h41v11.52c0 2.212-7.8 5.297-20.5 5.297" fill="#FEFEFE"/><path d="M41 8.296l.002 10.502c-.278 1.187-6.696 4.315-19.502 4.315-12.807 0-19.225-3.128-19.5-4.296V8.297h39zm2-2H0v12.521c0 3.477 9.626 6.296 21.5 6.296S43 22.294 43 18.817V6.297z" fill="#B5D0E7"/><path d="M21.5 11.592C8.8 11.592 1 8.506 1 6.295S8.8.999 21.5.999 42 4.084 42 6.295c0 2.211-7.8 5.297-20.5 5.297" fill="#FFF"/><path d="M21.5 2c12.806 0 19.224 3.127 19.502 4.276-.278 1.19-6.696 4.316-19.502 4.316-12.807 0-19.225-3.127-19.502-4.278C2.275 5.127 8.693 2 21.5 2m0-2C9.626 0 0 2.818 0 6.296c0 3.476 9.626 6.296 21.5 6.296S43 9.772 43 6.296C43 2.818 33.374 0 21.5 0" fill="#B5D0E7"/><path d="M15.28 18.167c1.97.175 4.058.268 6.22.268 3.336 0 6.497-.223 9.315-.622M15.28 30.688c1.97.175 4.058.269 6.22.269 3.336 0 6.497-.224 9.315-.623M15.28 44.044c1.97.175 4.058.268 6.22.268 3.336 0 6.497-.223 9.315-.622" stroke="#ED2E26" stroke-width="2" stroke-linecap="round" stroke-linejoin="round" stroke-dasharray="0,6.225"/><path stroke="#ED3126" stroke-width="4.624" stroke-linecap="round" stroke-linejoin="round" d="M14.573 22.162l11.402 11.401 20.918-20.918"/></g></svg>