<svg width="51" height="53" viewBox="0 0 51 53" xmlns="http://www.w3.org/2000/svg" xmlns:xlink="http://www.w3.org/1999/xlink"><defs><path id="a" d="M.813.578H19.96V53H.813z"/></defs><g fill="none" fill-rule="evenodd"><path d="M14.678 35.76c-6.744 0-12.235-5.49-12.235-12.234 0-6.745 5.492-12.235 12.236-12.235 6.743 0 12.234 5.49 12.234 12.235 0 6.744-5.491 12.234-12.235 12.234m0-25.662c-7.4 0-13.429 6.027-13.429 13.428 0 7.4 6.03 13.427 13.43 13.427 7.4 0 13.428-6.027 13.428-13.427 0-7.401-6.029-13.428-13.428-13.428" fill="#B5D0E5"/><path d="M14.678 35.76c-6.744 0-12.235-5.49-12.235-12.234 0-6.745 5.492-12.235 12.236-12.235 6.743 0 12.234 5.49 12.234 12.235 0 6.744-5.491 12.234-12.235 12.234zm0-25.662c-7.4 0-13.429 6.027-13.429 13.428 0 7.4 6.03 13.427 13.43 13.427 7.4 0 13.428-6.027 13.428-13.427 0-7.401-6.029-13.428-13.428-13.428z" stroke="#B5D0E5" stroke-width=".5"/><path d="M14.827 16.066c-4.207 0-7.608 3.341-7.608 7.46a.6.6 0 01-.598.596.6.6 0 01-.597-.596c0-4.774 3.94-8.653 8.803-8.653 1.492 0 2.984.386 4.327 1.103.299.15.388.507.239.806-.15.299-.507.387-.805.238a7.998 7.998 0 00-3.761-.954M23.63 23.526a.6.6 0 01-.597.596.598.598 0 01-.596-.596 6.96 6.96 0 00-.895-3.462c-.15-.299-.06-.657.238-.806.299-.148.657-.06.806.24.687 1.192 1.045 2.595 1.045 4.027M21.333 18.304l-5.014 4.535c.09.209.15.447.15.687 0 .984-.806 1.79-1.79 1.79a1.795 1.795 0 01-1.791-1.79c0-.985.805-1.79 1.79-1.79.299 0 .597.089.866.208l5.013-4.536c.239-.208.627-.208.836.03.209.268.209.627-.06.866M19.154 30.09a.6.6 0 01-.597.597H10.8a.599.599 0 01-.597-.597c0-.328.268-.597.597-.597h7.758a.6.6 0 01.597.597M37.45 1.504a3.718 3.718 0 00-3.712 3.713v30.024a.714.714 0 01-.338.612c-2.638 1.573-4.173 4.426-4.008 7.452.225 4.102 3.593 7.446 7.668 7.613a7.92 7.92 0 005.948-2.222 8.296 8.296 0 002.557-5.783 8.114 8.114 0 00-4.056-6.999.715.715 0 01-.345-.617V5.217a3.674 3.674 0 00-3.713-3.713zm-.507 50.793c-4.813-.229-8.758-4.148-8.986-8.923-.222-3.388 1.44-6.633 4.346-8.483V5.217a5.097 5.097 0 015.09-5.092 5.097 5.097 0 015.093 5.092V34.89c2.737 1.738 4.402 4.765 4.346 7.916 0 2.655-1.036 5.093-2.918 6.861a9.328 9.328 0 01-6.52 2.63h-.451z" fill="#B5D0E5"/><g transform="translate(27 -.578)"><mask id="b" fill="#fff"><use xlink:href="#a"/></mask><path d="M10.48 51.382a8.08 8.08 0 01-.412-.01c-3.947-.163-7.334-3.525-7.55-7.496-.164-2.978 1.347-5.79 3.94-7.334a.849.849 0 00.405-.723V5.795a3.592 3.592 0 013.588-3.588 3.55 3.55 0 013.588 3.588v30.08c0 .293.14.547.392.717 2.48 1.432 4.01 4.073 4.01 6.902a8.164 8.164 0 01-2.52 5.69 7.79 7.79 0 01-5.442 2.198M10.394.578a5.222 5.222 0 00-5.217 5.217V35.4C2.271 37.28.61 40.55.833 43.962c.23 4.834 4.226 8.806 9.098 9.038h.463a9.45 9.45 0 006.607-2.666c1.905-1.79 2.956-4.26 2.956-6.952.056-3.167-1.606-6.214-4.346-7.982V5.795A5.223 5.223 0 0010.394.578m.085 51.054a8.007 8.007 0 005.615-2.268 8.411 8.411 0 002.596-5.87 8.224 8.224 0 00-4.12-7.11.593.593 0 01-.28-.51V5.795a3.807 3.807 0 00-3.839-3.837 3.841 3.841 0 00-3.838 3.838v30.024a.593.593 0 01-.282.508c-2.653 1.58-4.233 4.458-4.064 7.563.226 4.12 3.668 7.562 7.788 7.73.142.009.283.012.424.012M10.394.828c2.766 0 4.967 2.258 4.967 4.967v29.742c2.71 1.693 4.401 4.684 4.346 7.845 0 2.596-1.017 5.022-2.879 6.772-1.749 1.694-4.007 2.596-6.434 2.596h-.45c-4.742-.225-8.636-4.063-8.862-8.804-.226-3.443 1.467-6.603 4.345-8.41V5.796c0-2.766 2.258-4.967 4.967-4.967" fill="#B5D0E5" mask="url(#b)"/></g><path d="M48.681 28.863h-2.935c-.338 0-.564.226-.564.564 0 .34.226.565.564.565h2.935c.34 0 .564-.226.564-.565a.565.565 0 00-.564-.564M49.81 23.615h-4.063c-.339 0-.565.226-.565.564 0 .338.226.564.565.564h4.063c.34 0 .564-.226.564-.564 0-.338-.225-.564-.564-.564M45.747 19.495h2.935c.338 0 .564-.226.564-.564 0-.339-.226-.565-.564-.565h-2.935c-.34 0-.564.226-.564.565 0 .338.225.564.564.564M49.81 13.117h-4.063c-.339 0-.565.227-.565.564 0 .34.226.565.565.565h4.063c.34 0 .564-.226.564-.565 0-.337-.225-.564-.564-.564M45.747 8.941h2.935c.338 0 .564-.226.564-.564 0-.338-.226-.565-.564-.565h-2.935c-.34 0-.564.227-.564.565 0 .338.225.564.564.564M45.747 3.692h4.063c.339 0 .565-.226.565-.564 0-.337-.226-.565-.565-.565h-4.063c-.34 0-.564.228-.564.565 0 .338.225.564.564.564M37.45 47.544a4.673 4.673 0 01-4.684-4.684 4.673 4.673 0 014.685-4.684 4.672 4.672 0 014.684 4.684c0 2.596-2.145 4.684-4.684 4.684m.564-10.497V11.933c0-.339-.226-.565-.564-.565-.34 0-.564.226-.564.565v25.171c-2.935.282-5.25 2.765-5.25 5.812a5.805 5.805 0 005.814 5.814 5.805 5.805 0 005.812-5.814c0-3.103-2.313-5.587-5.248-5.869" fill="#B5D0E5"/></g></svg>