<svg width="53" height="53" viewBox="0 0 53 53" xmlns="http://www.w3.org/2000/svg" xmlns:xlink="http://www.w3.org/1999/xlink"><defs><path id="a" d="M.212.134H32.01v31.902H.212z"/></defs><g fill="none" fill-rule="evenodd"><g fill="#B5D0E5"><path d="M15.595 16.96c-.095.882-.336 3.752-.114 8.567.347 7.552 8.726 12.573 10.64 13.625 1.956-1.06 10.29-6.024 10.638-13.625.222-4.815-.02-7.685-.116-8.567-.84-.757-4.39-3.582-10.526-3.582-6.13 0-9.678 2.821-10.522 3.582zM26.12 41.028c-.556 0-11.959-5.827-12.4-15.422-.276-6.043.149-9.065.167-9.192a.872.872 0 01.23-.475c.164-.177 4.149-4.323 12.001-4.323 7.853 0 11.84 4.146 12.006 4.323.125.13.205.296.232.475.018.127.443 3.149.162 9.192-.433 9.456-11.53 15.093-12.004 15.33a.895.895 0 01-.394.092z"/><path d="M9.635 46.179a.872.872 0 01-.575-.215 25.99 25.99 0 01-8.113-12.82C-2.89 19.264 5.281 4.85 19.161 1.013c5.512-1.521 11.225-1.221 16.53.871a.882.882 0 01-.647 1.64c-4.945-1.952-10.275-2.23-15.411-.812C6.689 6.29-.933 19.731 2.646 32.675a24.219 24.219 0 007.564 11.953.884.884 0 01-.575 1.55M26.069 52.318c-4.582 0-9.1-1.22-13.172-3.609a.882.882 0 01.893-1.52c5.73 3.364 12.414 4.24 18.82 2.47C45.551 46.084 53.172 32.64 49.593 19.7A24.3 24.3 0 0039.208 5.645a.881.881 0 11.947-1.487 26.058 26.058 0 0111.138 15.07c3.837 13.88-4.335 28.295-18.214 32.131-2.319.64-4.673.958-7.01.958"/></g><path d="M40.066 11.307a.879.879 0 01-.874-.786l-.622-5.778a.88.88 0 01.78-.97l5.779-.623a.882.882 0 01.186 1.753l-4.9.528.528 4.9a.881.881 0 01-.877.976M4.42 46.9a.881.881 0 01-.055-1.762l4.916-.324-.324-4.917a.88.88 0 111.759-.118l.383 5.798a.88.88 0 01-.82.936l-5.799.385-.06.002" fill="#B5D0E5"/><g transform="translate(20.655 20.913)"><mask id="b" fill="#fff"><use xlink:href="#a"/></mask><path d="M4.844 7.578l-2.721 2.72c-.407.408-1.08.478-1.538.088a1.04 1.04 0 01-.371-.83c0-.281.107-.565.318-.777l2.774-2.776a.884.884 0 000-1.236L.532 1.993a1.098 1.098 0 01-.318-.777c0-.32.123-.62.37-.832.443-.372 1.132-.318 1.539.089l2.74 2.74c.334.334.9.334 1.236 0L8.837.473a1.105 1.105 0 011.628.07c.37.441.3 1.114-.107 1.52l-2.74 2.739a.886.886 0 000 1.238l2.777 2.774c.459.46.423 1.202-.07 1.626-.444.373-1.116.302-1.523-.106l-2.74-2.74c-.318-.353-.883-.353-1.218-.016" fill="#B5D0E5" mask="url(#b)"/><path d="M32.01 18.924c0 7.301-5.919 13.22-13.22 13.22-7.302 0-13.22-5.919-13.22-13.22 0-7.3 5.918-13.22 13.22-13.22 7.301 0 13.22 5.92 13.22 13.22" fill="#D9312D" mask="url(#b)"/></g><path d="M48.566 39.839a2.79 2.79 0 01-.82 1.993 2.794 2.794 0 01-1.994.82h-1.614v-5.629h1.614c.761 0 1.466.293 1.994.82.527.528.82 1.233.82 1.996zm-12.552 2.814v-5.63h6.892l-.028 5.63h-6.864zm-2.873 0a2.795 2.795 0 01-1.996-.82 2.79 2.79 0 01-.82-1.994c0-.763.293-1.468.82-1.995a2.795 2.795 0 011.996-.82h1.612v5.629H33.14zm-.015-6.877a4.015 4.015 0 00-2.859 1.187 4.02 4.02 0 00-1.187 2.861c0 2.227 1.832 4.061 4.06 4.061h12.612a4.008 4.008 0 002.857-1.187 4.017 4.017 0 001.19-2.86c0-2.23-1.833-4.062-4.061-4.062H33.126zM35.384 33.519c0 .35.278.629.616.616.352 0 .63-.28.616-.616a2.815 2.815 0 012.814-2.816c.763 0 1.468.293 1.995.82.528.528.823 1.233.823 1.996 0 .35.276.629.614.616a.636.636 0 00.441-.177.63.63 0 00.176-.44 4.078 4.078 0 00-4.062-4.06 4.073 4.073 0 00-4.033 4.06M36.014 45.528a.599.599 0 00-.614.617c0 2.228 1.832 4.06 4.06 4.06a4.039 4.039 0 002.86-1.187 4.031 4.031 0 001.187-2.859.601.601 0 00-.616-.616.601.601 0 00-.614.616 2.817 2.817 0 01-2.816 2.816 2.797 2.797 0 01-1.995-.823 2.79 2.79 0 01-.82-1.993c-.015-.367-.294-.647-.632-.63" fill="#FFFFFE"/><path d="M32.539 40.468a.635.635 0 01-.644-.622c0-.345.29-.623.644-.623.356 0 .643.278.643.623a.634.634 0 01-.643.622M46.562 40.457a.634.634 0 01-.644-.624c0-.343.288-.621.644-.621.354 0 .643.278.643.621 0 .344-.289.624-.643.624M40.963 42.02a.632.632 0 01-.642-.621c0-.344.288-.624.642-.624.354 0 .643.28.643.624 0 .343-.289.621-.643.621M37.937 42.018a.632.632 0 01-.641-.621c0-.344.287-.624.641-.624.356 0 .644.28.644.624a.632.632 0 01-.644.621M40.31 38.272c0-.343.288-.622.642-.622.356 0 .643.279.643.622a.632.632 0 01-.643.622.632.632 0 01-.642-.622M37.928 38.9a.632.632 0 01-.641-.62.63.63 0 01.641-.623c.358 0 .645.277.645.622a.633.633 0 01-.645.622" fill="#FFFFFE"/></g></svg>