<?xml version="1.0" encoding="utf-8"?>
<!-- Generator: Adobe Illustrator 23.0.4, SVG Export Plug-In . SVG Version: 6.00 Build 0)  -->
<svg version="1.1" id="Layer_1" xmlns="http://www.w3.org/2000/svg" xmlns:xlink="http://www.w3.org/1999/xlink" x="0px" y="0px"
	 viewBox="0 0 64 64" style="enable-background:new 0 0 64 64;" xml:space="preserve">
<style type="text/css">
	.st0{fill:none;stroke:#B5D0E7;stroke-width:2;stroke-linecap:round;stroke-linejoin:round;}
	.st1{fill:none;stroke:#B5D0E7;stroke-width:2;stroke-linejoin:round;}
	.st2{fill:#ED2E26;}
</style>
<g>
	<path id="Stroke-9_60_" class="st0" d="M18.4,12c4.5,7,6.7,15.1,5.8,23.6c-0.6,6-2.7,11.5-5.8,16.4"/>
	<path id="Stroke-11_36_" class="st1" d="M17.9,32.5H2.4"/>
	<polyline id="Stroke-13_35_" class="st0" points="10.7,39.9 17.9,32.5 10.7,25.1 	"/>
	<path class="st2" d="M31.9,30.6h-0.5v2.9h0.5c0.7,0,1.2-0.1,1.6-0.4c0.4-0.2,0.5-0.6,0.5-1.1C34,31.1,33.2,30.6,31.9,30.6z"/>
	<path class="st2" d="M50.9,39.1V28.4H55v10.7l6.5-2L54,20.1L21.1,22l9.1,24.9L55,39.1H50.9z M37.4,33.7c-0.3,0.5-0.7,0.9-1.2,1.2
		c-0.5,0.3-1.1,0.5-1.8,0.7c-0.7,0.2-1.5,0.2-2.4,0.2h-0.6V39h-4.1V28.4h4.8c1.8,0,3.2,0.3,4.2,0.9c1,0.6,1.5,1.5,1.5,2.7
		C37.9,32.6,37.7,33.2,37.4,33.7z M49.3,38.7c-0.6,0.2-0.7,0.2-1.3,0.3c-0.6,0.1-1.3,0.2-2.1,0.2c-1.1,0-2.1-0.1-3-0.4
		c-0.9-0.3-1.6-0.6-2.3-1.1c-0.6-0.5-1.1-1.1-1.4-1.7c-0.3-0.7-0.5-1.4-0.5-2.3c0-0.8,0.2-1.6,0.5-2.3c0.4-0.7,0.8-1.2,1.4-1.8
		c0.6-0.5,1.4-0.9,2.2-1.1c0.9-0.3,1.8-0.4,2.8-0.4c0.8,0,1.5,0,2.2,0.2c0.7,0.2,0.7,0.2,1.2,0.4v2.9c-0.4-0.2-0.9-0.4-1.4-0.5
		c-0.5-0.2-1.1-0.2-1.6-0.2c-0.9,0-1.7,0.3-2.3,0.7c-0.6,0.5-0.9,1.2-0.9,2.2c0,0.5,0.1,0.9,0.3,1.3c0.2,0.4,0.4,0.7,0.7,0.9
		c0.3,0.2,0.7,0.4,1.1,0.5c0.4,0.1,0.9,0.2,1.3,0.2c0.5,0,1,0,1.4-0.2s1-0.2,1.5-0.5V38.7z M51.3,23.3c0.5-0.4,1.1-0.6,1.8-0.6
		c0.7,0,1.3,0.2,1.8,0.6c0.5,0.4,0.7,1,0.7,1.7c0,0.7-0.2,1.3-0.7,1.7c-0.5,0.4-1.1,0.6-1.8,0.6c-0.7,0-1.3-0.2-1.8-0.6
		c-0.5-0.4-0.7-1-0.7-1.7C50.5,24.3,50.8,23.7,51.3,23.3z"/>
</g>
</svg>
