<svg xmlns="http://www.w3.org/2000/svg" viewBox="0 0 51.1 51.7" width="51.7" height="51.7"><path fill="#7e7e7e" d="M34.7 32.1c2.2 1.7 8.8 3.2 14 6.1 1.7.9 1.9 2.3 2 3.2.1.8.4 10.3.4 10.3H0s.3-9.5.4-10.3c.1-.8.1-2.1 2-3.2 5.2-2.9 11.8-4.3 14-6 .9-.7.6-1.8.8-2.8.2-1 .8-.3.8-1.4 0-1.1.2-.9.1-2.4-.1-1.3-1.9-1.4-2-3.8 0-.5-.9-.8-1.4-1.6-.5-.8-1.4-2.1-1.4-3.7s.3-1.2.3-3.1c0-1.9-.1-3.1 1-7.6.6-1.8 2-3.8 3.4-4.6 1.9-1.2 1.1.4 7.5-1C29.6-.7 36.1 3.6 36.2 7c.1 4.7.4 4.3.6 6.2.2 1.4.6 1 .6 2.6s-.8 3.5-1.4 4.3c-.5.8-1 2-1.1 2.5-.3 2.6-2.1 2-2.2 3.4-.1 1.3-.1 1.1 0 2.1.2.8.6-.1.8 1 .5 1 .4 2.5 1.2 3"/></svg>