<svg xmlns="http://www.w3.org/2000/svg" viewBox="0 0 86.4 97.9"><path fill="#fff" d="M39.3 40.4l.2-.2c.6-.4 1.4-.4 2 .1.3.2.6.3 1.5.3s1.2-.1 1.5-.3c.6-.5 1.6-.6 2.1.1.5.5-.3 1.2-.8.7-.3-.2-.5-.1-.8.1l-.1.1c-.6.5-1.1.9-2 .9-.9 0-1.3-.5-2-.9-.1 0-.1-.1-.2-.1-.3-.2-.5-.3-.8-.1-.3.5-1.1-.2-.6-.7zm23.4-8.1c.7.2.4 1.2-.2 1-.5-.1-1.3.4-2 1.7.2.2.2.6.1 1-.2.6-.7 1.1-1.1 1.1-1-.1-.4-1.5-.3-1.7.7-1.8 2.1-3.4 3.5-3.1zm-39.5 0c1.4-.4 2.8 1.2 3.6 3.1.1.1.7 1.6-.3 1.7-.4 0-1-.5-1.1-1.1-.1-.4-.1-.8.1-1-.7-1.2-1.5-1.8-2-1.7-.7.2-.9-.8-.3-1zm27.3 10.8c-.5.1-.7-.6-.2-.8 1.1-.3 2.3.8 2.4 1.9.1.5-.8.6-.8.1-.1-.6-.7-1.4-1.4-1.2zm-12.2 2.8c.3.3.5.6.8.8.5.4 2.3 1 3.8 1s3.3-.6 3.8-1l.9-.9c-.6.1-1.2.1-2 .1-.1 0-1.2 0-2.7.1-1.6 0-2.7-.1-2.7-.1-.7.1-1.4 0-1.9 0zm11-.3c-2.3 2.1-2.6 3.7-6.4 3.7-3.8 0-4.1-1.6-6.4-3.7l-.1-.1c-.4-.1-.7-.2-1.1-.4-.6-.3-.3-1.2.4-1 1.4.6 2.4.7 4.5.8 0 0 1.1 0 2.7.1 1.6 0 2.7-.1 2.7-.1 2.1-.1 3.2-.2 4.5-.8.6-.3 1 .7.4 1-.4.2-.7.4-1.2.5.1 0 0 0 0 0zm-14.1-2.5c-.6-.2-1.3.6-1.3 1.2-.1.5-.9.5-.8-.1.1-1.1 1.2-2.2 2.4-1.9.5.1.3.9-.3.8zm12.4-15.7c1.2-.3 2.7-.6 4.6-.7 3.2-.1 5.3.4 6 .8.2.1.4.4.4.6v1.7c0 .4-.2.7-.5.9-.5.4-.5 1.1-.6 1.7-.1 1.1-.3 2.1-.9 3-.7 1.1-2 2.1-4.5 2.3-4.6.5-6.7-2.1-7.4-4-.2-.7-.4-1.3-.7-2-.2-.3-.4-.5-.9-.5-.8 0-1 .7-1.2 1.3-.1.3-.2.7-.4 1.2-.7 1.9-2.8 4.4-7.4 4-2.6-.3-4.6-1.4-5.1-4-.1-.7-.2-1.3-.3-2-.1-.5-.1-.8-.5-1.1-.3-.3-.5-.6-.5-.9V28c0-.3.1-.5.4-.6.7-.4 2.8-.9 6-.8 1.9.1 3.4.4 4.6.7 1.2.3 2 .7 2.4.8.8.3 2 .3 2.1.3.1 0 1.4 0 2.1-.3.3-.1 1.1-.4 2.3-.7zm8.6 4.9c0-4-2.4-4.3-5.1-4.1-6.3.5-5.7 1.8-5.5 4.2.2 2.4 2.2 4.6 5.6 4.6 2.7 0 4.9-1.6 5-4.7zm-26.2 0c0 3.1 2.2 4.7 5 4.7 3.4 0 5.4-2.2 5.6-4.6.2-2.4.8-3.7-5.5-4.2-2.7-.2-5.1 0-5.1 4.1zm19.6-1.2c-1 .2-1.8.8-2.2 1.5-.4.7-1.4 0-1-.6.8-1.3 2.4-2.2 4.2-2.2 1.8 0 3.4.8 4.2 2.2.4.7-.6 1.3-1 .6-.5-.7-1.3-1.3-2.3-1.5.3.3.6.7.6 1.2 0 .8-.7 1.5-1.5 1.5s-1.5-.7-1.5-1.5c0-.5.2-.9.5-1.2zm-13.3 0c.3.3.5.7.5 1.2 0 .8-.7 1.5-1.5 1.5s-1.5-.7-1.5-1.5c0-.5.2-.9.6-1.2-1 .2-1.8.8-2.3 1.5-.4.7-1.4 0-1-.6.8-1.3 2.4-2.2 4.2-2.2s3.4.8 4.2 2.2c.4.7-.6 1.3-1 .6-.4-.7-1.2-1.2-2.2-1.5zm-3.1 21.1l.8 7.5c.1 1 1.1 1.9 2.5 2.6l3.8 1.9-.3 8.5c-.2.1-.4.4-.4.7v.8c0 .4.1.6.4.8 0 .7 1 .7 1 0 .2-.1.4-.4.4-.8v-.8c0-.4-.1-.6-.4-.8l.3-8h.1c.5.2 1.1.4 1.7.4.6 0 1.3-.1 1.7-.4l.3-.1.4 9.6c-.2.2-.4.4-.4.8v.8c0 .4.2.6.4.8 0 .7 1.1.6 1-.1.2-.2.4-.4.4-.8v-.8c0-.4-.2-.6-.4-.8l-.4-10 3.4-1.7c1.5-.7 2.6-1.6 2.7-2.6l.8-7.9c-.7.5-1.4 1-2.1 1.4-.7.4-1.3.8-1.9 1.1-1.5.9-1.8 1.8-3.7 2.2-.9.2-4.2.2-5 0-1.8-.4-2.2-1.4-3.7-2.2-.6-.3-1.2-.7-1.9-1.1-.3-.3-.9-.6-1.5-1zm21.1-1.3v.4l-.4 4.2c1.6 0 2.3.5 2.6 1.2l1 2.2c.3.1.6.3.9.4.8.2 1.7.4 2.7.7l.3.1.6.1c7.8 1.8 18.4 2.1 20.2 12 .4 2.3 1.9 14.3 4.1 25.7H0c2.2-11.4 3.6-23.4 4.1-25.7 1.8-9.9 12.5-10.2 20.2-12 .9-.2 1.7-.4 2.5-.6.4-.1.8-.3 1.2-.4l1-2.2c.3-.7 1-1.2 2.6-1.2l-.4-4.2c-.3-.3-.7-.6-1-.9-2.3-2.3-3.5-6-3.7-9.3-.9.1-1.7-.1-2.6-.7-.7-.5-1.3-1.2-2-2.1-.4-.6-.8-1.2-1.2-1.9-.7-1.3-1.1-2.7-1.2-3.9-.1-.9.1-1.7.4-2.3.3-.6.7-1 1.4-1.2.7-.2 1.4-.2 2.2.1.5.2.9.4 1.3.8 0-.2-.1-.5-.1-.7-.7-3.4-1.9-5.6-3-8.6-1.5-4.1-1.2-7.3 1.2-11.2 3.8-5.4 7-9 13.7-9.3 1.6-.1 3.4 0 5.5 0C49.9.2 54 2.7 56 5.5c.7 1.2.9 2.4.9 4 0 2.8-1.1 6.7-4.6 7.4-.3 0-.5.1-.8.1-3.3.5-6.2 1.5-9.5 1.6-3.4-.1-6.1-1.1-9.4-1.6-8.2-1.2-4 4.2-4.7 8.1 0 .2-.3 1.2-.5 1.9l-.6.3c-.4.2-.6.7-.6 1.2v1.7c0 .6.4 1.1.8 1.4.1.1.2.3.2.5s.1.4.1.6c.1.6.1 1.2.2 1.6-.2.3-.6.3-.9-.1-.4-.6-.7-.9-.9-1.3-.2-.2-.3-.4-.4-.5l-.1-.1c-.7-1-1.4-1.6-2.2-1.9-.6-.2-1.1-.2-1.5-.1-.3.1-.6.3-.8.7-.2.4-.3 1-.3 1.8.1 1.1.4 2.3 1.1 3.5.4.7.8 1.3 1.1 1.8.6.9 1.2 1.5 1.8 1.9.8.6 1.6.7 2.3.5.4-.1.7.2.7.5.1 3.1 1.2 6.9 3.4 9.1 1.1 1.1 2.4 1.9 3.5 2.6.7.4 1.3.8 1.9 1.1.2.1.3.2.5.3.2-.3.7-.3.9.1.2.4.3.6.5.8.3.4.8.7 1.2.9.9.2 4.4.2 5.3 0 .4-.2 1-.5 1.2-.9.1-.1.2-.3.5-.8.2-.4.7-.3.9-.1.1-.1.3-.2.5-.3.6-.3 1.2-.7 1.9-1.1 1.2-.7 2.5-1.5 3.5-2.6 2.2-2.3 3.3-6 3.4-9.1 0-.3.3-.7.7-.5.7.2 1.5.1 2.3-.5.6-.4 1.1-1 1.8-1.9.4-.5.8-1.1 1.1-1.8.7-1.2 1-2.4 1.1-3.5 0-.7-.1-1.3-.3-1.8-.2-.3-.4-.6-.8-.7-.4-.1-.9-.1-1.5.1-.7.3-1.5.9-2.2 1.9l-.1.1c-.1.1-.2.2-.3.4-.2.3-.7.8-1.1 1.4-.2.2-.4.3-.6.3.1-.2.1-.5.1-.7.1-.3.1-.6.1-.9.1-.6.1-1.1.4-1.2.2-.2.5-.4.6-.8.1-.2.2-.4.2-.7v-1.8c0-.5-.3-.9-.6-1.2-.2-.1-.6-.3-1-.4-.1-.2-.1-.4-.2-.7-.5-1.6-.4-2.9 0-4.5.8-3.2-.1-4.4-1.6-4.7 2.4-1.8 3.1-5.2 3.1-7.4 0-.4 0-.8-.1-1.2 2.4-.3 3.9-.3 4.5 1 2.9 4.6 2.5 7.8 1 11.7-1 2.8-2.1 4.9-2.7 8.1-.1.3-.1.6-.2.9.5-.4 1-.7 1.5-.9.7-.3 1.5-.3 2.2-.1.6.2 1.1.6 1.4 1.2.3.6.4 1.5.4 2.3-.1 1.2-.5 2.6-1.2 3.9-.4.7-.8 1.4-1.2 1.9-.7.9-1.3 1.6-2 2.1-.8.6-1.7.8-2.6.7-.2 3.3-1.4 7-3.7 9.3-.3.2-.5.4-.7.5z"/></svg>