<svg xmlns="http://www.w3.org/2000/svg" width="124" height="67.5" viewBox="0 0 124 67.5"><path fill="none" stroke="#236CA9" stroke-width="3" stroke-miterlimit="10" d="M121.9 16.7c-1-1.5-2.8-2.3-4.6-1.8-5.1 1.3-10.2 2.7-15.2 4.1-1 .3-1.5.2-2.1-.8-1.8-3.3-4.3-5.9-7.5-7.8-5-3-10.3-3.8-16-2.5-.2 0-.4-.1-.5-.1-.2-.9-.4-1.8-.7-2.7-.7-2.5-2.8-3.8-5-3.3-2.4.6-3.6 2.6-2.9 5.2 4.2 15.8 8.4 31.6 12.6 47.5.6 2.2 2.7 3.5 4.8 3 2.3-.5 3.5-2.4 3.1-4.8-.2-1.1-.6-2.1-.9-3.2l.4-.4c9-2.4 15.6-11.2 15.4-20.7 0-1 .2-1.3 1.2-1.6 5-1.3 9.9-2.6 14.8-3.9 1.1-.3 2.1-.7 2.8-1.6 1-1.3 1.1-3.2.3-4.6z"/><path fill="none" stroke="#0F4B84" stroke-width="3" stroke-miterlimit="10" d="M65.9 48.2c1-.3 1.9-.9 2.6-2.1.5-1.2.6-2.7-.4-4-1-1.4-2.5-2-4.2-1.5-4.1 1.1-8.2 2.3-12.3 3.5-.2.1.3-.1-.5.1-1.3-4.4-2.5-8.7-3.7-13.1 1-.3.3-.1.6-.2 4-1.2 8-2.3 11.9-3.4 1.1-.3 2-.9 2.6-1.9.7-1.3.6-3-.2-4.3-1-1.3-2.6-2-4.2-1.6-4.1 1.1-8.2 2.3-12.3 3.5-.2.1.4-.1-.5.1l-2.4-8.4c-.1-.3-.2-.7-.3-1-1-2.3-3.7-3.1-5.8-1.8-1.8 1.1-2.2 2.6-1.4 5.3.6 2.1.6 2.1-1.4 3.1-.2 0-.4.1-.5.1-7.8 3.3-12.9 11.3-12.6 19.7 0 1.1-.3 1.4-1.2 1.6-4.8 1.3-9.5 2.7-14.3 4-.9.3-1.8.6-2.5 1.3-1.2 1.2-1.4 3.2-.5 4.7.9 1.6 2.7 2.3 4.6 1.8 4.8-1.3 9.6-2.7 14.4-4.1 1.3-.4 1.9-.2 2.7 1 4.4 6.9 10.7 10.3 18.9 9.9.4 0 .9.1 1.3 0 1-.1 2.4-.8 3-.4.7.5.7 2 1.1 3 .9 2.5 3.5 3.5 5.7 2.2 1.9-1.1 2.4-2.6 1.6-5.3-.8-2.8-1.6-5.5-2.3-8.2.4-.1.3 0 .5-.1 3.8-1.2 7.9-2.4 12-3.5z"/></svg>