
<svg width="30px" height="14px" viewBox="0 0 30 14" version="1.1" xmlns="http://www.w3.org/2000/svg" xmlns:xlink="http://www.w3.org/1999/xlink">
    <!-- Generator: Sketch 44.1 (41455) - http://www.bohemiancoding.com/sketch -->
    <desc>Created with Sketch.</desc>
    <defs></defs>
    <g id="12.1-13-App-detail" stroke="none" stroke-width="1" fill="none" fill-rule="evenodd">
        <g id="12.4-App-Detail---Continuous-Monitoring" transform="translate(-741.000000, -3895.000000)" fill="#FFFFFF">
            <g id="---Feature-01" transform="translate(185.000000, 3218.000000)">
                <g id="::-list" transform="translate(0.000000, 313.000000)">
                    <g id="::-Icon:-Ports" transform="translate(551.000000, 351.000000)">
                        <g id="Group-10" transform="translate(5.000000, 13.000000)">
                            <polygon id="Fill-4" points="22.6299 0.0991 22.3929 0.0991 21.3929 0.0991 9.3929 0.0991 8.3919 0.0991 8.1569 0.0991 2.1829 4.5111 27.7549 4.5111"></polygon>
                            <path d="M27.4092,10.7007 C26.9302,10.7007 26.5452,10.3137 26.5452,9.8347 C26.5452,9.3547 26.9302,8.9697 27.4092,8.9697 C27.8882,8.9697 28.2752,9.3547 28.2752,9.8347 C28.2752,10.3137 27.8882,10.7007 27.4092,10.7007 M22.2542,12.5927 L7.7472,12.5927 C6.2042,12.5927 4.9542,11.3417 4.9542,9.7987 C4.9542,8.2557 6.2042,7.0047 7.7472,7.0047 L22.2542,7.0047 C23.7962,7.0047 25.0472,8.2557 25.0472,9.7987 C25.0472,11.3417 23.7962,12.5927 22.2542,12.5927 M2.5072,10.7007 C2.0292,10.7007 1.6402,10.3137 1.6402,9.8347 C1.6402,9.3547 2.0292,8.9697 2.5072,8.9697 C2.9842,8.9697 3.3712,9.3547 3.3712,9.8347 C3.3712,10.3137 2.9842,10.7007 2.5072,10.7007 M27.9212,5.6957 L2.0792,5.6957 C1.0862,5.6957 0.2792,6.5017 0.2792,7.4957 L0.2792,12.1007 C0.2792,13.0957 1.0862,13.9007 2.0792,13.9007 L27.9212,13.9007 C28.9142,13.9007 29.7212,13.0957 29.7212,12.1007 L29.7212,7.4957 C29.7212,6.5017 28.9142,5.6957 27.9212,5.6957" id="Fill-6"></path>
                            <path d="M20.8291,9.5288 C20.4631,9.5288 20.1661,9.2318 20.1661,8.8648 C20.1661,8.4978 20.4631,8.2008 20.8291,8.2008 C21.1961,8.2008 21.4931,8.4978 21.4931,8.8648 C21.4931,9.2318 21.1961,9.5288 20.8291,9.5288 M18.6391,11.5208 C18.2731,11.5208 17.9751,11.2238 17.9751,10.8568 C17.9751,10.4898 18.2731,10.1928 18.6391,10.1928 C19.0051,10.1928 19.3041,10.4898 19.3041,10.8568 C19.3041,11.2238 19.0051,11.5208 18.6391,11.5208 M16.8941,9.5288 C16.5281,9.5288 16.2291,9.2318 16.2291,8.8648 C16.2291,8.4978 16.5281,8.2008 16.8941,8.2008 C17.2601,8.2008 17.5581,8.4978 17.5581,8.8648 C17.5581,9.2318 17.2601,9.5288 16.8941,9.5288 M14.8801,11.5208 C14.5141,11.5208 14.2161,11.2238 14.2161,10.8568 C14.2161,10.4898 14.5141,10.1928 14.8801,10.1928 C15.2461,10.1928 15.5431,10.4898 15.5431,10.8568 C15.5431,11.2238 15.2461,11.5208 14.8801,11.5208 M12.9581,9.5288 C12.5921,9.5288 12.2931,9.2318 12.2931,8.8648 C12.2931,8.4978 12.5921,8.2008 12.9581,8.2008 C13.3241,8.2008 13.6211,8.4978 13.6211,8.8648 C13.6211,9.2318 13.3241,9.5288 12.9581,9.5288 M11.1201,11.5208 C10.7541,11.5208 10.4551,11.2238 10.4551,10.8568 C10.4551,10.4898 10.7541,10.1928 11.1201,10.1928 C11.4861,10.1928 11.7841,10.4898 11.7841,10.8568 C11.7841,11.2238 11.4861,11.5208 11.1201,11.5208 M9.0211,9.5288 C8.6551,9.5288 8.3581,9.2318 8.3581,8.8648 C8.3581,8.4978 8.6551,8.2008 9.0211,8.2008 C9.3881,8.2008 9.6861,8.4978 9.6861,8.8648 C9.6861,9.2318 9.3881,9.5288 9.0211,9.5288 M21.8411,7.5758 L8.1591,7.5758 C6.7001,7.5758 5.6621,8.5708 5.6621,9.7988 C5.6621,11.0248 6.7001,12.0208 8.1591,12.0208 L21.8411,12.0208 C23.3011,12.0208 24.3381,11.0248 24.3381,9.7988 C24.3381,8.5708 23.3011,7.5758 21.8411,7.5758" id="Fill-8"></path>
                        </g>
                    </g>
                </g>
            </g>
        </g>
    </g>
</svg>