<svg width="68" height="69" viewBox="0 0 68 69" xmlns="http://www.w3.org/2000/svg" xmlns:xlink="http://www.w3.org/1999/xlink"><defs><path id="a" d="M0 68.889h67.397V.603H0z"/></defs><g fill="none" fill-rule="evenodd"><path fill="#FFF" d="M25.161 5.833h17.075v-4.61H25.16z"/><path stroke="#B5D0E7" stroke-width="2.222" stroke-linecap="round" stroke-linejoin="round" d="M25.161 5.833h17.075v-4.61H25.16z"/><path fill="#FFF" d="M25.161 57.613h17.075v-4.61H25.16z"/><path stroke="#B5D0E7" stroke-width="2.222" stroke-linecap="round" stroke-linejoin="round" d="M25.161 57.613h17.075v-4.61H25.16z"/><path fill="#FFF" d="M3.777 48.745h59.842V8.138H3.777z"/><path stroke="#B5D0E7" stroke-width="2.222" stroke-linecap="round" stroke-linejoin="round" d="M3.777 48.745h59.842V8.138H3.777z"/><path fill="#FFF" d="M1.115 10.967h65.167V5.309H1.115z"/><path stroke="#B5D0E7" stroke-width="2.222" stroke-linecap="round" stroke-linejoin="round" d="M1.115 10.967h65.167V5.309H1.115z"/><path fill="#FFF" d="M1.115 52.762h65.167v-5.656H1.115z"/><path stroke="#B5D0E7" stroke-width="2.222" stroke-linecap="round" stroke-linejoin="round" d="M1.115 52.763h65.167v-5.657H1.115z"/><path d="M33.698 67.286v-9.672 9.672z" fill="#FFF"/><path d="M33.698 57.613v9.673" stroke="#B5D0E7" stroke-width="2.222" stroke-linecap="round" stroke-linejoin="round"/><path d="M25.796 67.286l7.902-9.672-7.902 9.672z" fill="#FFF"/><path d="M25.796 67.286l7.902-9.672" stroke="#B5D0E7" stroke-width="2.222" stroke-linecap="round" stroke-linejoin="round"/><path d="M41.602 67.286l-7.904-9.672 7.904 9.672z" fill="#FFF"/><g transform="translate(0 -.492)"><path d="M41.602 67.778l-7.904-9.672" stroke="#B5D0E7" stroke-width="2.222" stroke-linecap="round" stroke-linejoin="round"/><path d="M23.176 25.601c0 3.682-2.996 6.667-6.689 6.667S9.798 29.283 9.798 25.6c0-3.68 2.996-6.666 6.689-6.666V25.6h6.689z" fill="#FFF"/><path d="M23.176 25.601c0 3.682-2.996 6.667-6.689 6.667S9.798 29.283 9.798 25.6c0-3.68 2.996-6.666 6.689-6.666V25.6h6.689z" stroke="#B5D0E7" stroke-width="2.222" stroke-linecap="round" stroke-linejoin="round"/><path d="M27.578 21.154c0-3.682-2.995-6.667-6.689-6.667v6.667h6.689z" fill="#FFF"/><path d="M27.578 21.154c0-3.682-2.995-6.667-6.689-6.667v6.667h6.689z" stroke="#B5D0E7" stroke-width="2.222" stroke-linecap="round" stroke-linejoin="round"/><path d="M10.913 37.823h11.148" fill="#FFF"/><path d="M10.913 37.823h11.148" stroke="#B5D0E7" stroke-width="2.222" stroke-linecap="round" stroke-linejoin="round"/><path d="M8.684 42.268H24.29" fill="#FFF"/><path d="M8.684 42.268H24.29" stroke="#B5D0E7" stroke-width="2.222" stroke-linecap="round" stroke-linejoin="round"/><mask id="b" fill="#fff"><use xlink:href="#a"/></mask><path fill="#FFF" mask="url(#b)" d="M36.352 43.379h22.362V14.487H36.352z"/><path stroke="#B5D0E7" stroke-width="2.222" stroke-linecap="round" stroke-linejoin="round" mask="url(#b)" d="M36.352 43.379h22.362V14.487H36.352z"/><g mask="url(#b)"><path d="M39.897 18.935H47.7" fill="#FFF"/><path d="M39.897 18.935H47.7" stroke="#B5D0E7" stroke-width="2.222" stroke-linecap="round" stroke-linejoin="round"/></g><g mask="url(#b)"><path d="M39.897 23.379h15.606" fill="#FFF"/><path d="M39.897 23.379h15.606" stroke="#B5D0E7" stroke-width="2.222" stroke-linecap="round" stroke-linejoin="round"/></g><g mask="url(#b)"><path d="M39.897 26.512h13.377" fill="#FFF"/><path d="M39.897 26.512h13.377" stroke="#B5D0E7" stroke-width="2.222" stroke-linecap="round" stroke-linejoin="round"/></g><g mask="url(#b)"><path d="M39.897 32.268h8.36" fill="#FFF"/><path d="M39.897 32.268h8.36" stroke="#B5D0E7" stroke-width="2.222" stroke-linecap="round" stroke-linejoin="round"/></g><g mask="url(#b)"><path d="M39.897 35.675H51.6" fill="#FFF"/><path d="M39.897 35.675H51.6" stroke="#B5D0E7" stroke-width="2.222" stroke-linecap="round" stroke-linejoin="round"/></g><path fill="#ED2E26" mask="url(#b)" d="M64.36 66.999l-9.016-6.505L46.647 67V39.72H64.36z"/><path stroke="#ED2E26" stroke-width="2.222" stroke-linecap="round" stroke-linejoin="round" mask="url(#b)" d="M64.36 66.999l-9.016-6.505L46.647 67V39.72H64.36z"/><path d="M55.923 45.019l1.27 3.897a.44.44 0 00.42.304h4.11a.44.44 0 01.26.795l-3.326 2.41a.437.437 0 00-.16.49l1.27 3.898c.132.404-.333.742-.679.492l-3.326-2.409a.44.44 0 00-.517 0l-3.328 2.41c-.344.25-.81-.089-.678-.493l1.27-3.898a.437.437 0 00-.16-.49l-3.326-2.41a.44.44 0 01.259-.795h4.111a.439.439 0 00.42-.304l1.27-3.897c.133-.405.708-.405.84 0" fill="#FFF" mask="url(#b)"/></g></g></svg>