<svg xmlns="http://www.w3.org/2000/svg" viewBox="0 0 87.8 87.8"><path d="M43.9 87.8C19.7 87.8 0 68.1 0 43.9S19.7 0 43.9 0s43.9 19.7 43.9 43.9-19.7 43.9-43.9 43.9zm0-84.5C21.5 3.3 3.3 21.5 3.3 43.9s18.2 40.6 40.6 40.6c22.4 0 40.6-18.2 40.6-40.6S66.3 3.3 43.9 3.3z"/><path d="M32.4 25.3h23v6.6h-23zM62.4 34.3H25.5c-1.1 0-2 .9-2 2v14.6h6V42h28.9v8.9h6V36.3c-.1-1.1-.9-2-2-2zm-33.3 4.8c-.9 0-1.6-.7-1.6-1.6 0-.9.7-1.6 1.6-1.6.9 0 1.6.7 1.6 1.6 0 .9-.7 1.6-1.6 1.6zm31-.9H32.4v-1.9h27.7v1.9z"/><path d="M52.7 59.8H35.1V44.4h-2.9v15.7s-.1 2.4 2.4 2.4h19.1c1.8 0 2.1-1.4 2.1-3.1v-15h-2.9l-.2 15.4z"/><path d="M36.5 48.5h14.6V51H36.5zM36.6 54.3h14.6v2.5H36.6z"/></svg>