<svg xmlns="http://www.w3.org/2000/svg" width="59" height="43" viewBox="0 0 59 43"><g fill="none" fill-rule="evenodd"><g fill="#ED2E26"><path d="M10.543 42.724a1.526 1.526 0 01-1.526-1.526V6.124L2.64 12.962a1.527 1.527 0 01-2.157.075 1.527 1.527 0 01-.073-2.157l9.017-9.67a1.525 1.525 0 012.64 1.04v38.948c0 .843-.683 1.526-1.525 1.526"/><path d="M19.564 13.446a1.52 1.52 0 01-1.115-.484l-9.021-9.67a1.525 1.525 0 112.23-2.081l9.023 9.67a1.527 1.527 0 01-1.117 2.565"/></g><path d="M33.494 8.514H25.83a1.526 1.526 0 010-3.051h7.664a1.525 1.525 0 110 3.052M41.16 19.169H25.83a1.526 1.526 0 010-3.052h15.33a1.526 1.526 0 010 3.052M48.826 29.823H25.83a1.526 1.526 0 010-3.051h22.996a1.526 1.526 0 010 3.051M56.487 40.48H25.83a1.526 1.526 0 010-3.052h30.657a1.525 1.525 0 110 3.052" fill="#B2CBD9"/></g></svg>