<svg xmlns="http://www.w3.org/2000/svg" viewBox="0 0 36.437 36.123" enable-background="new 0 0 36.437 36.123"><path fill-rule="evenodd" clip-rule="evenodd" d="M7.269 31.254c.447-.222 1.9 1.217 2.682 1.882.672.775 2.238 2.988 2.238 2.988l12.076-12.065s-2.236-1.44-2.907-2.104c-.782-.775-2.124-2.103-2.012-2.768.111-.553 6.038-1.328 2.571-4.759-3.577-3.432-4.361 2.213-4.92 2.546-.448.221-1.9-1.218-2.683-1.993-.672-.665-2.124-2.878-2.124-2.878s-2.238 1.438-3.02 2.213c-.67.665-2.124 2.104-1.9 2.658.224.442 5.927 1.327 2.459 4.76-3.466 3.432-4.248-2.325-4.809-2.547-.557-.11-2.012 1.218-2.682 1.993-.783.774-2.238 2.877-2.238 2.877s2.237 1.438 2.907 2.215c.783.775 2.124 2.102 2.012 2.655-.111.665-6.038 1.33-2.458 4.761 3.467 3.542 4.249-2.215 4.808-2.434z" fill="#327edd"/><path clip-rule="evenodd" stroke="#2d4991" stroke-miterlimit="8" d="M31.067 16.782c-.214-.525 1.168-1.893 1.912-2.63.637-.631 2.763-1.997 2.763-1.997s-1.382-2.104-2.126-2.841c-.637-.632-2.018-1.999-2.549-1.788-.426.209-1.275 5.681-4.569 2.313-3.294-3.261 2.232-3.891 2.339-4.522.212-.526-1.17-1.789-1.809-2.525-.742-.736-2.762-2.103-2.762-2.103s-1.488 2.103-2.125 2.84c-.742.632-2.018 1.894-2.551 1.789-.637-.106-1.275-5.681-4.569-2.315-3.399 3.263 2.126 4.104 2.338 4.524.214.42-1.168 1.788-1.912 2.524-.638.736-2.762 2.104-2.762 2.104s1.38 1.997 2.124 2.734c.638.735 2.126 2.104 2.55 1.893.425-.314 1.276-5.68 4.569-2.418 3.294 3.261-2.23 3.997-2.338 4.523-.107.631 1.17 1.893 1.809 2.524.742.736 2.867 2.104 2.867 2.104s1.381-2.104 2.019-2.735c.742-.736 2.018-1.998 2.551-1.893.636.104 1.273 5.681 4.674 2.419 3.294-3.261-2.232-4.102-2.443-4.524z" fill="none"/></svg>