<svg width="55" height="41" viewBox="0 0 55 41" xmlns="http://www.w3.org/2000/svg" xmlns:xlink="http://www.w3.org/1999/xlink"><defs><path id="a" d="M0 .778H54.83v32.691H0z"/><path id="c" d="M.168.286h17.797v7.78H.168z"/></defs><g fill="none" fill-rule="evenodd"><g transform="translate(0 -.25)"><mask id="b" fill="#fff"><use xlink:href="#a"/></mask><path d="M20.763.777c5.573 0 10.635 3.36 12.88 8.453a8.341 8.341 0 012.969-.543 8.404 8.404 0 017.98 5.714c.175-.012.345-.017.511-.017 5.363 0 9.726 4.364 9.726 9.728 0 4.273-2.861 8.105-6.959 9.32a.862.862 0 01-.167.033l-.085.004H35.872v.001h-8.346c-.73-.246-1.415-.508-1.986-.808a9.88 9.88 0 01-1.487-.96h4.918c-.09.062-.183.13-.27.187.61.348 1.96.715 3.254.833.394-.304.747-.651 1.074-1.02l3.817-.001h.001-3.818a7.783 7.783 0 001.965-5.158c0-4.455-3.624-8.08-8.079-8.08-4.453 0-8.079 3.625-8.079 8.08 0 1.783.503 3.429 1.452 4.872l.195.285h-3.385l.221.459c.153.301.317.595.49.883l.265.427H7.213a.875.875 0 01-.252-.036C2.86 32.217 0 28.383 0 24.112c0-.054.002-.107.005-.16C.003 23.856 0 23.802 0 23.75a9.69 9.69 0 016.63-9.185C6.818 6.93 13.087.777 20.764.777zm0 1.769c-6.82 0-12.368 5.549-12.368 12.369.019.111.03.194.03.28a.884.884 0 01-.664.88c-3.527.9-5.992 4.055-5.992 7.675l.007.128.002.03-.007.164c-.002 3.402 2.168 6.436 5.322 7.545l.251.083h9.754l-.161-.364c-.52-1.225-.865-2.547-.93-3.967-.264-5.74.15-8.592.15-8.592s3.614-3.85 10.813-3.85c7.2 0 10.819 3.85 10.819 3.85s.414 2.852.15 8.592c-.066 1.42-.41 2.742-.93 3.967l-.162.364h10.64c3.287-1.032 5.573-4.135 5.573-7.588 0-4.388-3.569-7.958-7.957-7.958-.313 0-.641.024-1.037.078a.883.883 0 01-.98-.67 6.64 6.64 0 00-6.474-5.105 6.594 6.594 0 00-3.042.739.883.883 0 01-1.236-.484c-1.775-4.885-6.424-8.166-11.571-8.166zm6.152 18.588a5.414 5.414 0 015.408 5.409c0 2.164-1.689 3.97-3.18 5.038l-.172.12h-4.918c-1.679-1.307-2.54-2.981-2.54-5.006 0-3.066 2.423-5.56 5.402-5.56z" fill="#2E8BE0" mask="url(#b)"/></g><g transform="translate(17.906 32.934)"><mask id="d" fill="#fff"><use xlink:href="#c"/></mask><path d="M14.746 1.423c-.458.682-1.682 1.85-2.397 2.244C9.06 3.127 6.173 1.989 4.191.286H.168c3.181 4.95 8.898 7.78 8.9 7.78 0 0 5.717-2.83 8.897-7.78H9.621c1.505.504 3.27.898 5.125 1.137" fill="#2E8BE0" mask="url(#d)"/></g><path d="M22.076 33.205a9.833 9.833 0 01-1.592-1.753H17.1c.282.617.612 1.204.974 1.768h4.025c-.006-.006-.016-.01-.022-.015" fill="#2E8BE0"/></g></svg>