<svg xmlns="http://www.w3.org/2000/svg" viewBox="0 0 87.8 87.8"><path fill="#fff" d="M24 49.3V25.8s8.2-5.9 19.9-5.9c11.6 0 19.9 5.9 19.9 5.9v23.5c.1 12.6-19.9 18.6-19.9 18.6s-20-6-19.9-18.6m4.2-20.6v19.4c-.1 10.4 15.7 15.4 15.7 15.4s15.9-4.9 15.8-15.3V28.8s-6.6-4.9-15.8-4.9c-9.2 0-15.7 4.8-15.7 4.8"/><path fill="#fff" d="M43.4 52c-7.2 0-12-4.2-12-11.6 0-7.3 5.7-11.7 12.8-11.7 7.2 0 12 4.6 12 11.6 0 5.3-3.3 9.5-8.3 11.2 2.7 1.7 3.3 1.8 6.3 3.5-1.6.3-3.1.9-4.6 1.8-1.6-1.3-3.2-2.5-4.9-3.7L43.4 52zm-6.6-10.6c0 4.2 1.9 8.7 6.8 8.7 4.5 0 7.3-4.3 7.3-10.4 0-4.2-2-9-6.8-9-5.4-.1-7.3 4.6-7.3 10.7"/><path fill="none" d="M24 19.9h39.8v47.9H24z"/><path fill="#fff" d="M43.9 87.8C19.7 87.8 0 68.1 0 43.9S19.7 0 43.9 0s43.9 19.7 43.9 43.9-19.7 43.9-43.9 43.9zm0-84.5C21.5 3.3 3.3 21.5 3.3 43.9s18.2 40.6 40.6 40.6c22.4 0 40.6-18.2 40.6-40.6S66.3 3.3 43.9 3.3z"/></svg>