<svg xmlns="http://www.w3.org/2000/svg" viewBox="0 0 146.5 141.7"><path fill="#f2f2f2" d="M56.5 87.3c0 .2.1.4.1.6V88.2c0-.3-.1-.6-.1-.9zM56.8 88.5v.1c0 .2.1.3.2.5-.1-.2-.2-.5-.2-.7v.1zM44.1 113.6c-3.7 0-5 3.2-5 7.4 0 2.9 1.3 6 4.7 6 3.1 0 5-3 5-7.2 0-2.9-1.3-6.2-4.7-6.2zM56.3 86v-.8.8zM56.4 86.5v.2c0 .2.1.4.1.6 0-.3-.1-.6-.1-.8 0-.1 0 0 0 0zM58.6 92.1c0 .1.1.1.1.1-.1-.1-.2-.2-.2-.3 0 .1 0 .2.1.2zM59.4 93.2s0-.1-.1-.1l.1.1zM57.9 91c.1.2.2.4.3.5 0 0 0 .1.1.1v.1c-.2-.2-.3-.5-.4-.7zM57.5 90.4s.1 0 0 0c.1.2.2.3.2.5l-.3-.6c.1 0 .1 0 .1.1zM57 89.2s0 .1 0 0c.1.2.2.4.2.6 0 0 0 .1.1.1v.1c-.1-.3-.2-.5-.3-.8z"/><path fill="#f2f2f2" d="M73.3 106.6s21.7-6.4 21.5-20.1V61.1s-9-6.3-21.6-6.3c-12.6 0-21.5 6.3-21.5 6.3v25.4c0 13.6 21.6 20.1 21.6 20.1zm-17-42.4S63.4 59 73.4 59c10 0 17.1 5.3 17.1 5.3v21c.1 11.3-17.1 16.6-17.1 16.6s-7.6-2.4-12.6-7.3l.1.1-.1-.1c-.4-.4-.9-.9-1.3-1.4l-.1-.1c-.2-.3-.4-.5-.6-.8l-.1-.1c0-.1-.1-.1-.1-.2-.1-.1-.1-.2-.2-.2v-.1s0-.1-.1-.1c-.1-.2-.2-.3-.3-.5 0-.1-.1-.1-.1-.2-.1-.1-.1-.3-.2-.4v-.1c0-.1 0-.1-.1-.2 0-.1-.1-.2-.1-.2v-.1s0-.1-.1-.1c-.1-.2-.1-.3-.2-.5v-.1c-.1-.2-.1-.3-.2-.5v-.1-.1c0-.1 0-.2-.1-.2v-.1-.2c0-.2-.1-.4-.1-.6v-.1c0-.2-.1-.4-.1-.6v-.2-.1-.2-.1-.2-.6l-.4-21.1zM71.4 122.9h3.4l-1.6-4.3M113.6 114.7c-.7 0-1.2.5-1.2 1.2s.5 1.2 1.2 1.2 1.2-.5 1.2-1.2-.5-1.2-1.2-1.2zm.8 2h-.4c-.3-.4-.5-.6-.7-.8h-.1v.8h-.4v-.9-.8h.4c.4 0 .8 0 .8.4 0 .3-.4.4-.5.4.3.2.8.8.9.9z"/><path fill="#f2f2f2" d="M113.9 115.4c0-.3-.3-.3-.6-.3v.6c.2.1.6.1.6-.3z"/><path fill="#f2f2f2" d="M108.6 42.8V16.5L92.5 0v42.8H54.1V0L37.9 16.5v26.3H0v99h146.5v-99h-37.9zM51.3 60.3c.4-.3 9.3-6.5 22-6.5S95 60 95.4 60.3l.4.3v25.9c.1 5.9-3.8 11.4-11.2 16-5.4 3.3-10.8 5-11 5l-.3.1-.3-.1c-.2-.1-5.6-1.7-11-5-7.3-4.5-11.2-10-11.1-16V60.6l.4-.3zm-.1 70c-1.1.2-2.1.6-3.1 1.2-1.1-.9-2.2-1.7-3.4-2.6l-.9-.7c-5 0-8.3-2.9-8.3-8 0-5 3.9-8.1 8.8-8.1 5 0 8.3 3.2 8.3 8 0 3.7-2.2 6.6-5.7 7.7 1.8 1.2 2.2 1.4 4.3 2.5zm15.3-8.5c-.1 2.1 0 4.1-2 5.4-1 .7-2.3 1-3.5 1-2.3 0-4.7-.7-5.4-3.1-.2-.7-.3-1.5-.3-2.3v-7.6c.5 0 .9.1 1.4.1.5 0 .9-.1 1.4-.1v5.3c0 1 0 2.5.1 3.5.2.9.3 1.5 1 2.1.6.6 1.3.8 2.1.8 1.7 0 2.7-.6 3.3-2.3.3-.8.3-2.9.3-3.8v-5.6c.2 0 .5.1.7.1.2 0 .5 0 .7-.1v6.6zm11.7 6.1c-.5 0-1.1.1-1.6.1-.4-1.4-.8-2.6-1.3-3.9H71c-.5 1.4-.6 2.6-1 3.9-.3 0-.6-.1-.9-.1-.3 0-.6 0-.9.1l5-12.9c.2 0 .5.1.7.1s.5 0 .7-.1l5.2 12.9c-.5-.1-1.1-.1-1.6-.1zm11.1 0h-7v-12.7c.5 0 .9.1 1.4.1.5 0 .9-.1 1.4-.1v11.3c1.6 0 3-.1 4.3-.3 0 .3-.1.5-.1.8-.1.3 0 .6 0 .9zm7.8-5.7v5.7c-.5 0-.9-.1-1.4-.1-.5 0-.9.1-1.4.1v-5.4c-1.4-2.4-2.6-4.9-4-7.4.6 0 1.1.1 1.7.1.6 0 1.1-.1 1.7-.1.5 1 1.1 2.2 1.6 3.3.5 1 .9 2 1.2 2.2.7-.9 2.1-4 2.8-5.5.3 0 .6.1.9.1.3 0 .6 0 .9-.1-1.5 2.5-2.9 4.7-4 7.1zm8.7 6c-1 0-2.1-.2-3-.8.2-.8.4-1.6.5-2.4h.4c.3 1.3 1.3 2 2.6 2 1.2 0 2.2-.7 2.2-1.9 0-3-5.5-1.9-5.5-6.4 0-2.1 1.5-3.9 4.3-3.9 1.3 0 2.5.5 2.9.9l-.6 1.8h-.3c-.4-1-1.1-1.6-2.1-1.6-1.5 0-2 .8-2 1.8 0 2.5 5.7 2 5.7 6.3-.1 2.5-2.2 4.2-5.1 4.2zm7.8-10.8c-.8 0-1.5-.7-1.5-1.5s.7-1.5 1.5-1.5 1.5.7 1.5 1.5-.7 1.5-1.5 1.5z"/><path fill="#f2f2f2" d="M56.8 0h32.9v14.9H56.8zM65.4 87.7c2 1.2 4.5 1.8 7.4 1.8l1.5 1.1c1.8 1.3 3.6 2.6 5.4 4 1.6-1 3.2-1.6 4.9-1.9-3.3-1.8-3.9-2-6.8-3.8 4.9-1.6 8.2-5.4 8.8-10.3.1-.6.1-1.2.1-1.8 0-7.5-5.2-12.5-13-12.5-7.7 0-13.9 4.8-13.9 12.7 0 5 2.1 8.6 5.6 10.7zm8.1-21.4c5.3 0 7.4 5.2 7.4 9.8 0 1-.1 2-.2 3-.8 5-3.5 8.3-7.6 8.3-2.2 0-3.8-.9-5-2.2-1.6-1.8-2.3-4.6-2.3-7.3-.1-6.6 1.9-11.6 7.7-11.6z"/></svg>