<svg width="67" height="69" viewBox="0 0 67 69" xmlns="http://www.w3.org/2000/svg" xmlns:xlink="http://www.w3.org/1999/xlink"><defs><path id="a" d="M.247.234h24.999V30H.247z"/><path id="c" d="M.446.857h14.138v14.139H.446z"/><path id="e" d="M.498.864h10.384v10.385H.498z"/></defs><g fill="none" fill-rule="evenodd"><path d="M8.552 57.338h45.392c3.718-1.168 6.303-4.677 6.303-8.581 0-4.963-4.036-9-8.998-9-.354 0-.726.028-1.172.09a.997.997 0 01-1.108-.757 7.51 7.51 0 00-7.322-5.774 7.46 7.46 0 00-3.441.836.996.996 0 01-.822.041.992.992 0 01-.574-.588c-2.008-5.524-7.266-9.235-13.084-9.235-7.712 0-13.986 6.275-13.986 13.987.02.126.032.215.035.309a1 1 0 01-.752 1.002c-3.99 1.018-6.776 4.586-6.776 8.679 0 .019.01.16.01.179l-.007.182c-.003 3.953 2.582 7.462 6.302 8.63m45.54 2H8.403c-.096 0-.192-.014-.284-.041C3.484 57.922.247 53.588.247 48.757c0-.061.003-.12.007-.179-.004-.113-.007-.172-.007-.231 0-4.736 3.044-8.896 7.498-10.386.21-8.633 7.299-15.591 15.98-15.591 6.303 0 12.027 3.8 14.565 9.559a9.417 9.417 0 013.357-.613 9.502 9.502 0 019.022 6.46c.199-.013.39-.019.58-.019 6.065 0 10.998 4.935 10.998 11 0 4.831-3.236 9.165-7.87 10.54a1.005 1.005 0 01-.284.041" fill="#B5D0E7"/><g transform="translate(18 38.136)"><mask id="b" fill="#fff"><use xlink:href="#a"/></mask><path d="M12.745.234c8.14 0 12.232 4.354 12.232 4.354s.468 3.225.169 9.716C24.695 24.11 12.748 30 12.747 30c-.001 0-11.949-5.89-12.4-15.696-.299-6.49.169-9.716.169-9.716S4.604.234 12.745.234" fill="#ED2E26" mask="url(#b)"/></g><path d="M24.572 51.678c0-3.467 2.74-6.288 6.11-6.288a6.123 6.123 0 016.115 6.115c0 2.693-2.314 4.907-4.097 6.045.691.395 2.218.81 3.68.943a8.828 8.828 0 003.437-6.988c0-5.037-4.099-9.135-9.136-9.135-5.037 0-9.134 4.098-9.134 9.135 0 3.042 1.266 5.745 3.663 7.817 2.241 1.935 5.517 3.227 9.25 3.839.807-.446 2.19-1.764 2.71-2.538-3.119-.4-6.068-1.16-8.044-2.198-3.023-1.585-4.554-3.854-4.554-6.747" fill="#FEFEFE"/><path d="M6.547 25.106c-1.523 0-3.048-.151-4.561-.454-.687-.145-1.387-.845-1.532-1.53a23.155 23.155 0 010-9.123c.145-.688.845-1.388 1.53-1.532a23.155 23.155 0 019.124-.001c.686.145 1.387.845 1.53 1.53.606 3.029.606 6.097.002 9.124-.145.687-.846 1.387-1.531 1.53l-.001.002a23.214 23.214 0 01-4.561.454" fill="#E1ECF5"/><g transform="translate(52 21.136)"><mask id="d" fill="#fff"><use xlink:href="#c"/></mask><path d="M7.515 14.996c-1.646 0-3.291-.163-4.925-.49-.741-.156-1.5-.912-1.654-1.653a25.013 25.013 0 010-9.851c.155-.742.913-1.5 1.652-1.654a24.98 24.98 0 019.852 0c.742.155 1.499.912 1.654 1.652a24.976 24.976 0 010 9.85c-.155.744-.912 1.5-1.652 1.656h-.002c-1.634.327-3.28.49-4.925.49" fill="#C4DAEA" mask="url(#d)"/></g><g transform="translate(14 -.864)"><mask id="f" fill="#fff"><use xlink:href="#e"/></mask><path d="M5.69 11.249c-1.209 0-2.417-.12-3.617-.36-.545-.115-1.102-.67-1.216-1.214a18.398 18.398 0 010-7.236c.114-.545.671-1.1 1.214-1.214a18.342 18.342 0 017.236-.001c.545.115 1.101.67 1.215 1.213.48 2.403.48 4.836 0 7.237-.114.545-.67 1.1-1.214 1.215-1.2.24-2.41.36-3.618.36" fill="#E9F1F7" mask="url(#f)"/></g><path d="M45.01 22.613c-1.21 0-2.417-.12-3.617-.359-.545-.116-1.102-.67-1.216-1.214a18.403 18.403 0 010-7.237c.114-.544.67-1.1 1.214-1.214a18.323 18.323 0 017.236 0c.545.114 1.1.67 1.215 1.213a18.36 18.36 0 010 7.236c-.114.545-.67 1.1-1.214 1.215l-.001.001a18.5 18.5 0 01-3.617.36" fill="#D3E3EF"/></g></svg>