<svg xmlns="http://www.w3.org/2000/svg" viewBox="0 0 91.2 84.5"><path fill="#fff" d="M34.3 10.4h42.6v3.2H34.3zM34.3 16.8h42.6V20H34.3zM34.3 23.2h42.6v3.2H34.3zM13.1 29.6h63.8v3.2H13.1zM13.1 37.6h63.8v3.2H13.1zM45.9 44.6c.4-.1.8.1 1 .4.5.7 1.1 1.4 1.6 2.2.4.6 1.3.9 2 .7l2.7-.9c.5-.1 1 .2 1 .8v2.8c0 .7.5 1.5 1.2 1.7.9.3 1.8.6 2.8.9.5.2.7.8.4 1.2-.5.8-1.1 1.5-1.7 2.3-.4.6-.4 1.4-.1 2 .6.8 1.2 1.6 1.7 2.4.3.4.1 1.1-.3 1.3l-2.7.9c-.6.2-1.1.8-1.2 1.5v3c0 .5-.5 1-1 .8l-2.7-.9c-.7-.2-1.5 0-2 .6-.6.8-1.1 1.5-1.7 2.3-.3.4-1 .4-1.3 0-.6-.8-1.1-1.5-1.7-2.3-.4-.6-1.3-.9-2-.6-.9.3-1.7.6-2.6.8-.5.2-1.1-.2-1.1-.8V65c0-.8-.5-1.5-1.2-1.7l-2.7-.9c-.5-.2-.7-.8-.4-1.2.5-.8 1.1-1.5 1.7-2.3.4-.6.4-1.5 0-2.1-.6-.8-1.1-1.5-1.7-2.3-.3-.4-.1-1.1.4-1.2l2.7-.9c.6-.2 1.1-.8 1.2-1.5v-3.1c0-.5.6-.9 1.1-.7l2.7.9c.7.2 1.6-.1 2-.7.5-.7 1-1.3 1.4-2 .1-.4.3-.7.5-.7M56.8 67.9c2.9 3 5.8 6.1 8.8 9.2h-7.5v7.5c-3.4-3.7-6.8-7.3-10.2-11 .7-.5 1.2-1.3 1.6-2 .6.1 1.1.4 1.7.5 1.1.3 2.3.1 3.3-.5 1.4-.7 2.2-2.2 2.3-3.7"/><path fill="#fff" d="M88.9.3L2.3 0C1 0 0 1 0 2.3v69.5C0 73 1 74 2.3 74h22.1c.6-.6 1.2-1.3 1.9-1.9.8-.9 1.7-1.7 2.5-2.6H4.5v-65l82.1.3v64.9l-24.1-.3c.7.7 1.3 1.4 2 2.1.8.8 1.6 1.6 2.3 2.4l22.1.3c.7 0 1.2-.2 1.5-.6l.1-.1.1-.1c.4-.4.6-.9.6-1.5V2.6c0-1.3-1.1-2.3-2.3-2.3z"/><path fill="#fff"  d="M88.9.3L2.3 0C1 0 0 1 0 2.3v69.5C0 73 1 74 2.3 74h22.1c.6-.6 1.2-1.3 1.9-1.9.8-.9 1.7-1.7 2.5-2.6H4.5v-65l82.1.3v64.9l-24.1-.3c.7.7 1.3 1.4 2 2.1.8.8 1.6 1.6 2.3 2.4l22.1.3c.7 0 1.2-.2 1.5-.6l.1-.1.1-.1c.4-.4.6-.9.6-1.5V2.6c0-1.3-1.1-2.3-2.3-2.3z"/><path fill="#fff"  d="M25.6 77c2.6-2.7 5.2-5.5 7.8-8.2.5 1.9 2.3 3.4 4.3 3.4 1 0 1.9-.4 2.8-.6.7.9 1.3 1.9 2.3 2.4-3.2 3.5-6.5 7-9.8 10.5V77h-7.4"/><g fill-rule="evenodd" clip-rule="evenodd"><path fill="#fff"  d="M14.7 20v-8.6s3-2.2 7.3-2.2 7.3 2.2 7.3 2.2V20c0 4.7-7.3 6.9-7.3 6.9s-7.3-2.2-7.3-6.9m1.5-7.5v7.2c0 3.8 5.8 5.7 5.8 5.7s5.9-1.8 5.8-5.7v-7.2s-2.4-1.8-5.8-1.8c-3.3 0-5.8 1.8-5.8 1.8"/><path fill="#fff" d="M21.9 21c-2.6 0-4.4-1.5-4.4-4.3 0-2.7 2.1-4.3 4.7-4.3 2.7 0 4.4 1.7 4.4 4.3 0 2-1.2 3.5-3 4.1 1 .6 1.2.7 2.3 1.3-.6.1-1.1.3-1.7.7-.6-.5-1.2-.9-1.8-1.4l-.5-.4zm-2.5-3.9c0 1.6.7 3.2 2.5 3.2 1.7 0 2.7-1.6 2.7-3.8 0-1.5-.7-3.3-2.5-3.3-2 0-2.7 1.7-2.7 3.9"/></g></svg>