<svg xmlns="http://www.w3.org/2000/svg" viewBox="0 0 216.5 209.1"><path fill="#fff" d="M195.8 87c0-.6-.2-1.1-.7-1.5-.8-.7-1.9-.3-2.7-1.1-1.1-1-1.5-4.8-1.6-5.7l-.6-1.5c-.2-.6-.2-1.9-1-2.3-1.6-.8-3.3.5-4.9.5-.1-.2-1.6-1.8-1.6-1.8-.5-.3-2.4 0-2.7 1-.1.4 0 1 0 1.4-.5.3-1 .4-1.2.8v.8c-.6.4-1.3.8-2 1.2 2.9 1 5.7 2 8.3 3.1 4 1.6 7.5 3.3 10.7 5.1zM66.5 121.6c-.2.1-.4.1-.5 0-.3-.2 0-.7-.1-1-.4-1.2-1.6-1.2-2.3-.5-.2 1 .8 2.4-.3 3.2-2.3.3-6.1-.7-8-2.3-1.3-1.1-1.9-3.2-3.2-3.8-.8-.3-.9.5-1.7.8-.8.3-1.7.2-2.5.2-1.3 0-2.4-.7-3.5-1.5-.4-.2-.5-.7-.9-.8h-.6c6.8 5.9 14.9 11.7 23.9 17.2-.2-1.3-.3-2.7-.3-4v-7.5zm142.8-21c.1 2.2.3 4.6.4 6.7.2 3.6.5 7.1 0 10.5 0 .3 0 .6.1.9-.2 1.5-.2 3-.4 4.5-.1 1.2-.4 2.5-.7 3.8 4.2-4.6 6.4-9.6 6.4-14.7 0-5.2-2.3-10.2-6.5-14.8 0 .1 0 .3.1.4.1.9.5 1.7.6 2.7zm-12.4-36.5c.6 1.4 1.7 2.7 2.3 4.2.5 1.3 1 2.4 1.4 3.6.4.8.9 1.6 1.3 2.4 1.4 4 3.6 9.1 4.4 13.2.2.9.5 1.6.8 2.3 2.2-6 2.5-11.7.4-16.6-2-4.9-6.2-8.6-12-11.2.1.1.1.2.2.3.5.6.8 1.2 1.2 1.8z"/><path fill="none" d="M55.6 97.2c.3 0 .6.1.9.2.3-.1.5-.4.8-.4.4 0 .8.5 1.2.4.6-.2 1.1-.4 1.7-.6.6 0 1 .7 1.6.6.3-.1.7-.2 1-.3.4 0 2.4.8 2.4 1.7v.3c-1.5.9-3 2.2-4.2 1.6-.3-.3-.5-.7-.8-1-.4-.4-1.4-1.1-2-1.2-.6.2-1.1.4-1.7.6-.1.2 0 .4-.4.5-.8.3-1.8-.8-3.2-.2-.2.4-.4 1.1-1 1.3-.2.1-.3 0-.5-.1-.1-.3-.1-.6 0-.8-4.7 3.4-8.9 7-12.7 10.5.1.6.2 1.3.6 1.6.8.7 2.2.6 2.8-.5.2-.3 0-.7.3-1 1.1-1.1 2.5-.8 3.4-2.2 1-1.4-.2-4 2.6-4.6.2 0 1.2-.1 1.3.5.2.8-.2 3.1-.4 4-.1.3-.2.5-.4.8l.3.9c0 1-.3 1.8-.7 2.6.2.3.4.7.6.8 1.1.5 3.5-2.2 4.6-2.2.7 1.2 1.9 1.4 2.4 2.9.2.8-.2 1.8 0 2.5.6 2.4 3.6 4.3 5.5 4 .6-.1 1.6-2 3.1-2.4.5-.1 1 .1 1.6.3v-17.1c-.1 0-.2-.1-.3-.1 0-.2-.1-.4-.1-.5.2-.1.3-.2.4-.3V89.8c-4.1 2.5-7.9 5-11.6 7.5.4 0 .6-.1.9-.1zm6 7.5c-.5.1-.8.5-1.1.6-.1-.1-.1-.2-.2-.3 0-.2.2-.5.2-.7 0-.4-.2-.7-.1-1 .2-.1.4-.3.6-.4.9-.6 2.3-.1 3.1 0 0 .1.1.1.1.2-.6 1.3-1.6 1.3-2.6 1.6zm88.1-37.6c-.3-.6-.9-1.2-1.2-1.6-.6-.6-.5-1.6-1.2-2.2-1-.7-2.5 0-2.5-2.1.5-.6.7-1.1.7-1.6-3.5.6-7.2 1.4-10.9 2.2 5.8 1.6 10.9 3.5 15.1 5.3zm-5.5-10.4c0-.1-.6-2.3-.6-2.4.1-.4.3-.9.5-1.3 0-.4-.4-.9-.2-1.2.2-.3.5-.5.7-.8.5-.7 1.1-2.1.6-3-.6-.4-1.4-.9-2.1-1.5-8.8.2-17.7 3.1-25.6 9.2.5.1 1.6.2 2.1.2 1.2.2 1.7 1.6 1.4 2.5-.1.4-.4.8-.8 1.1 4.8.4 9.2 1.1 13.4 2.1 4-.9 7.9-1.8 11.7-2.4-.2-.7-.7-1.4-1.1-2.5z"/><path fill="none" d="M55.4 79.6c-.1.4 0 1.1 0 1.5-.6.4-1.3.4-1.7 1-.7.9-.5 3.6-.2 4.8.2.5.5 1 .7 1.6.1.4 0 .9.2 1.4.2.8.9 2.3.6 2.9-.1.4-.8.7-1.1.6-1.4-.3-1.7-4.3-2.7-4.8-1.4.3-2.5 0-3.8.5-.8.6-1.5 1.2-2.2 1.8-.3.6-.5 1.4-1.6 1.7-.3.1-.7-.1-1.1-.1-2.1.2-3.8 1.1-4.8 3-.5 1-.9 2.2-.8 3.4.1.5.6 1 .4 1.5-.1.2-.3.4-.5.7-.3.8-.6 4.6-.3 5.4.7 1 1.3 2 1.9 3 0 .1.1.1.1.2 4-3.7 8.5-7.4 13.3-10.9.1-.2.2-.3.3-.5.5-.3.9-.6 1.4-.7 4-2.9 8.3-5.7 12.9-8.4v-15c-2.5.5-5 1.1-7.4 1.7v.3c-1 1.1-3.1 2-3.6 3.4zm-24.7 31.7c-.7-1.6-2-2.6-2.4-4.3-.3-1.3 0-3.4-1.5-4.6-.2.1-.3.2-.5.3-.2.7-.5 1.7-.3 2.5 0 .5.6 1 .5 1.5 0 .1-.2.2-.4.3h-.2c-1-1.4-.2-2.2-.5-3.3-.2-1.2-.7-1.9-1-3.2v-1.1c-.2-1.1-.1-1.9-.2-2.9l-.3-.9v-.9c-.3-.4-.5-.9-.7-1.3-.1-.2-.2-.3-.3-.5-.3-.4-.5-.8-.8-1.3-8.1 6.1-12.7 13-12.7 20.4 0 7.1 4.2 13.7 11.6 19.6 2.7-5.3 6.9-11 12.4-16.7-.6-.6-1.2-1.3-1.7-1.8-.8-.4-.8-1.2-1-1.8zm176.1 22.2h-.3c-1-1.1-.9-6.1-1.1-7.5-.1-.8-.8-1-1.1-1.3-.2-.4-.4-.8-.7-1.1 0-.4.1-.8.1-1.1.4-.8 1.1-.7 1.1-1.5-.1-.8-1.2-1.6-1.1-2.3 0-.8 1-1.6.7-2.4-.2-.5-.5-1-.8-1.5-.2-.5-.2-1-.3-1.4-.4-.8-.8-1.5-1.2-2.3-.4-.8-1.1-1.4-1.2-2.2-.2-1.5.4-2.9.4-4.4 0-1-.4-2.2-.4-3.3.1-.7.6-1.3.5-2-.1-.5-.1-1.5-.6-2-.6-.5-1.5-1-1.9-2.1-.5-1.2-.2-2.6-.8-3.9-.5-1.1-1.6-.7-2.1-2-.2-.4-.1-1-.1-1.5-5.6-3.2-12.2-6-19.6-8.5-.8.3-1.6.4-2.4.8-1.6.7-2 2.4-3.7 2.3-1.1 0-2.1-1.4-3.1-1.9-.9-.4-2.3-.6-3.3-.6-.7 0-1 .4-1.5.1-.4-.2-.7-.8-1-1.4v50.6c.1 14.5-10.9 25.3-22.3 32.6 14.7 3.1 28.3 4.3 39.6 3.4.8-1.5 1.6-2.9 2.2-4.3-1.2.5-3.5 1.5-4.7 1.9-2.6.9-5-1.2-5.2-3.3-.3-2.3 1.1-5.5 3.4-6.7 5.2-3.1 10.3-6.2 15.4-9.5.9-.6 2.1-.6 3.1-.1s2 1.5 2.6 3c1.5 4.7 2.8 9.4 4 14.1 5.3-2.7 9-6.3 10.9-10.9 2.3-5.7 1.6-12.7-1.8-19.9-.5 1.1-.4 3.1-1.7 4.1zM27.9 68.2c1.9-3.2 3.9-6.4 5.3-8.4-6.2 2.7-10.7 6.8-12.8 11.9-1.9 4.6-1.7 9.8.2 15.3.4-2 1.3-5.1 1.6-6.3.8-2.9 2.8-7.5 5.7-12.5z"/><path stroke="#fff" stroke-width="2" d="M66.4 74.2v-.5c-2.5.5-5.1 1.1-7.5 1.7 0 .1.1.3.1.4 2.4-.5 4.9-1.1 7.4-1.6zm-57.2 38c0-7.4 4.6-14.4 12.7-20.4-.1-.1-.2-.3-.3-.4-8.4 6.3-12.9 13.4-12.9 20.8 0 7.2 4.1 13.6 12 19.7 0-.1.1-.1.1-.2-7.4-5.8-11.6-12.4-11.6-19.5zm167-33.2c7.4 2.4 14 5.3 19.6 8.5V87c-3.2-1.8-6.7-3.5-10.6-5.1-2.7-1.1-5.5-2.1-8.3-3.1-.1 0-.2.1-.2.1-.2.1-.4.1-.5.1zm38.9 33.2c0 5.2-2.3 10.2-6.4 14.7 0 .1 0 .2-.1.4 4.6-4.8 6.9-9.7 6.9-15.1s-2.4-10.7-7-15.6c0 .3.1.5.1.8 4.2 4.6 6.5 9.6 6.5 14.8z"/><path stroke="#fff" d="M23.8 94.7c-.2-.4-.5-.8-.7-1.2.2.4.4.9.7 1.2 0 .1 0 .1 0 0zm19 21.2c-.2 0-.3.1-.5.2 7.1 6.2 15.3 12.1 24.5 17.6 0-.2-.1-.4-.1-.6-9.1-5.5-17.1-11.3-23.9-17.2zM20.4 71.6c2.1-5.1 6.6-9.2 12.8-11.9.1-.1.1-.2.2-.3-6.7 2.8-11.2 6.7-13.4 12.1-2 4.8-1.8 10.4.4 16.4 0-.3.1-.6.2-.9-1.9-5.6-2-10.8-.2-15.4zm118.3 90.1c-.2.1-.4.2-.5.3 11.7 2.5 22.9 3.8 33 3.8 2.4 0 4.7-.1 6.9-.3.1-.2.2-.3.3-.5-11.4.9-25-.2-39.7-3.3zm69.5-32.5c3.4 7.2 4.1 14.2 1.8 19.9-1.9 4.6-5.6 8.3-10.9 10.9 0 .1.1.3.1.4 5.5-2.7 9.3-6.5 11.2-11.2 2.4-5.9 1.6-12.8-2.2-20.4.1.2 0 .3 0 .4z"/><path stroke="#fff" stroke-width="2" d="M51.9 98.9c-4.8 3.5-9.3 7.2-13.3 10.9 0 .1.1.3.1.5 3.8-3.5 8.1-7 12.7-10.5.2-.3.3-.7.5-.9zm1.7-1.2c.4-.2.9-.3 1.3-.4 3.6-2.6 7.5-5.1 11.6-7.5v-.5c-4.6 2.7-8.9 5.5-12.9 8.4zM33.2 115c-5.5 5.8-9.7 11.4-12.4 16.7h.1c.1.2 0 .1.1.3l-.2-.2c-4 8-4.9 15.2-2.3 21.3 2.7 6.5 9 11.1 18.4 13.7-.1-.2 0 0-.2-.2-8.7-2.5-15.2-7.3-17.8-13.6-4.4-10.4 1.6-24 14.7-37.8-.2 0-.3-.1-.4-.2z"/><path stroke="#fff" stroke-width="2" d="M20.9 131.8s-.1 0 0 0c-.1 0-.1.1-.1.1l.2.2c-.1-.2-.1 0-.1-.3zm124.5-72.1c0-.1 0-.3-.1-.4-3.8.7-7.7 1.5-11.7 2.4.3.1.6.1.9.2 3.7-.9 7.3-1.6 10.9-2.2zm62.2 13.5c2.1 4.9 1.8 10.5-.4 16.6 0 .1.1.2.1.3 2.5-6.4 2.8-11.9.7-17-2.1-5.1-6.5-9-12.8-11.7.2.2.3.5.5.7 5.7 2.5 9.9 6.3 11.9 11.1z"/><path fill="#fff" d="M120.2 59.6c.4-.3.6-.7.8-1.1.3-.9-.2-2.3-1.4-2.5-.5-.1-1.6-.2-2.1-.2 7.9-6.1 16.8-9.1 25.6-9.2-.1-.1-.2-.1-.3-.2-.4-.4-.5-1.4-.5-2.5-9.5-.3-19.2 2.2-27.7 7.9.3-.7.4-.8.6-1.5.5-1-.2-2.1-1.3-2.2-1.3-.2-2.1.6-2.5 1.8-1.1 2.8-2 5.5-2.7 8.4-.1.5-.1 1 0 1.3 1.6-.1 3.3-.2 5-.2 2.2-.1 4.4 0 6.5.2zm-32-42.8c2.2 0 5.5 0 8.2-.1 1.2 0 2.4-1 2.7-2 .3-.9-.3-2.2-1.4-2.3-.5-.1-1.6-.2-2.1-.2 10.9-8.3 24.9-11.7 38.4-9 7.4 1.5 14.4 4.7 20.4 9.4.4.3 3 2.4 3.3 2.6-.3-.2-2.2-2.1-2.7-2.5-9-6.6-18-11.5-29.5-12.5s-23.1 2-32.8 8.2c.2-.6.3-.8.6-1.4.5-.9-.2-1.9-1.3-2.1-1.2-.2-2 .6-2.5 1.6-1.1 2.6-2 5.1-2.7 7.9-.2.7-.1 1.3.2 1.7.3.5.7.7 1.2.7zm61.8 176a82.575 82.575 0 01-58.8 9.4c-17.3-4.7-28.4-14.5-33.1-28.7C65.2 197 87.8 209 114.5 209c16.8-.1 33.6-4.4 48-13.2 12-7.3 21.9-18.5 28.7-31.1.2 1.5.2 2 .4 3.5.1 2.3 2.7 3.6 5.4 2.4 2.9-1.3 3.6-3.8 3.2-6.5-.3-1.3-.6-2.5-.9-3.8-5.5 2.7-12.6 4.4-21.2 5.1-6.2 10.5-17.2 21-28.1 27.4z"/><path fill="#fff" d="M192.6 142.9c-1-.5-2.1-.5-3.1.1-5.1 3.3-10.2 6.5-15.4 9.5-2.3 1.2-3.7 4.4-3.4 6.7.2 2.1 2.7 4.2 5.2 3.3 1.2-.4 3.5-1.4 4.7-1.9-.6 1.4-1.4 2.9-2.2 4.3 8.3-.6 15.3-2.3 20.8-5-1.2-4.8-2.5-9.4-4-14.1-.7-1.4-1.6-2.4-2.6-2.9z"/><path fill="#fff" d="M178.3 165.1c-.1.2-.2.3-.3.5 8.6-.6 15.7-2.3 21.2-5.1 0-.1-.1-.3-.1-.4-5.5 2.7-12.5 4.3-20.8 5zM59.7 32.9c.4-.3.8-.5 1.3-.8-10.9.3-25.2 2.7-37.5 10.9-12 7.9-18.7 20.7-18.7 35.2-.4-.7-.6-.9-1-1.6-.6-1.1-2.1-1.3-3.1-.3-1.1 1.1-.8 2.4 0 3.6 2 2.9 3.8 5.6 6.1 8.2.5.6 1.2 1 1.8 1.1.6.1 1.1-.1 1.5-.6 1.5-2 3.8-5 5.7-7.5.9-1.1.8-2.9.2-3.9-.6-1-2.3-1.5-3.3-.6-.5.4-1.4 1.3-1.8 1.8 0-18.1 10.1-33.2 27-40.2 5.8-2.5 13.7-3.8 21-4.6.3-.1.6-.4.8-.7zM104.8 170c.1.4.2.9.3 1.3.4.9.9 1.7 1.4 2.6.2.3.4.6.7 1 0 .3 0 .5.1.8.3 1 1.1 1.8 1.4 2.9.1.5.1 1.2.4 2 1.1 2.8 2.9 3 4.3 4.2 1.1 1 1.1 2.4 1.5 3.5.4 1.2 2.4 2 3.2 2.6.7.6 1.1 2 1.8 2.5.5.3 1.3.5 1.9.8.2.1.3.3.5.5.2 0 .5.1.8.2 1.6.8 1.5 1 3.3 1 .3 0 .7.1 1.1 0 .3-.1.6-.3 1-.5 1.3-.4 2.2-.7 2.7-2 0-.1 0-.1-.1-.2-1-.5-1.8.1-2.8 0-1.5-.3-3-1.3-3.5-3.5.4-.8 1.6-1.1 1.6-2l-.1-.1c-.9-.4-1.2.3-2.2-.9-1.2-1.2-.4-2.8-.5-3.8-.1-1.1-.8-1.4-.3-2.4.3-.5 1.3-.9 1.9-1.3.2-.7-.2-1.9 0-2.4.2-.6.9-.6 1.3-1.1.1-.2.1-.6.3-.8.4-.2.8-.5 1.2-.8.7-.7 1.2-1.8.2-2.7-.6-.4-3-.3-2.8-2 0-.1 0-.2.1-.4.8-.4 2.9-.2 3.7-1.1.4-.4 1.3-1.1 1.8-1.7-9.3 4.8-17.2 7.1-17.2 7.1s-3.8-1.1-9-3.3zm-61.4-54.2c.4.1.5.5.9.8 1.1.8 2.2 1.6 3.5 1.5.8 0 1.7.1 2.5-.2.8-.3.9-1.1 1.7-.8 1.4.6 2 2.7 3.2 3.8 1.9 1.6 5.6 2.6 8 2.3 1-.8 0-2.2.3-3.2.7-.7 1.9-.7 2.3.5 0 .2-.2.8.1 1 .1.1.3 0 .5 0v-3.3c-.6-.1-1.2-.4-1.6-.3-1.5.4-2.5 2.3-3.1 2.4-1.9.3-5-1.6-5.5-4-.1-.7.3-1.7 0-2.5-.5-1.5-1.7-1.7-2.4-2.9-1.1 0-3.5 2.7-4.6 2.2-.2-.1-.4-.5-.6-.8.3-.9.7-1.7.7-2.6l-.3-.9c.1-.3.2-.5.4-.8.2-.9.6-3.2.4-4-.1-.6-1.1-.5-1.3-.5-2.8.6-1.7 3.2-2.6 4.6-.9 1.4-2.3 1-3.4 2.2-.3.3-.1.7-.3 1-.6 1.1-2 1.1-2.8.5-.4-.4-.5-1-.6-1.6-.4.3-.7.6-1 1 1.6 1.6 3.3 3.1 5.1 4.7.1-.1.3-.1.5-.1zm-19.6-21v.9l.3.9c.1 1 0 1.8.2 2.9v1.1c.3 1.3.8 2 1 3.2.2 1.1-.6 1.9.5 3.3h.2c.2 0 .4-.1.4-.3.1-.4-.4-1-.5-1.5-.1-.8.1-1.8.3-2.5.2-.1.3-.2.5-.3 1.5 1.1 1.2 3.2 1.5 4.6.4 1.6 1.8 2.7 2.4 4.3.2.6.2 1.4.8 2 .5.5 1.1 1.1 1.7 1.8.4-.5.9-.9 1.3-1.4.8-.8 1.7-1.6 2.5-2.5-.1-.1-.3-.2-.4-.4-5.4-5.6-9.7-11-12.7-16.1z"/><path fill="#fff" d="M35.1 59c-.7.2-1.3.5-1.9.8-1.3 2-3.4 5.2-5.3 8.4-3 5.1-5 9.6-5.7 12.6-.3 1.1-1.1 4.2-1.6 6.3.4 1.3 1 2.6 1.6 4 4.5-3.3 10.2-6.4 16.8-9.1 6-2.5 12.7-4.6 19.8-6.4-.2-.8-.6-1.6-.6-2.3 0-1.1 1.2-1.6 1.4-2.5.2-.5-.3-1 .1-1.4.4-.6 1.1-.7 1.4-1.3.2-.5-.1-1 .2-1.5.6-1 2.7-1.1 3.1-2.1.5-1.3-.4-2.9.5-4.2.9-1.2 3.1-1.1 4.2-1.4 2.6-.5 4.8-3 4.8-4.8-.1-.1-.1-.2-.2-.4h-.6c-.6.5-.4 1.4-1.4 1.7-.3 0-.5-.2-.8-.3-1.5-.5-.8-.9-2-2.1-.2-.2-.4-.2-.6-.6 0-.1.1-.2.1-.3.9-.8 1.6-.4 2.5-.8l3.9-2.4c.1 0 .1 0 .2.1 1.5.6-.4 2.5-.4 3.1.1.2.2.3.3.5 1.1 0 1.7-1.1 2.9-1.5.8-.3 1.4-.1 2.3-.5.5-.2 1.5-.8 1.4-1.2 0-.2-2.7-1.7-3-1.9h-1c-.8-.6-.3-2.1-1.3-2.9-.3-.1-.6 0-1 0-1.2-.2-2.4-1-3.6-1.3-.4-.1-.8.1-1.2-.2-.2-.2-.2-.7-.5-1.1-1-.7-1.7-.2-2.8.1-.4.7-.4 1.8-1.6 2.1-.6.1-1.5-1-1.9-1.7-.5-.1-1-.1-1.4-.2-1.5.3-3.2 2.2-3.3 3.2-.1 1.4.4 2.1 0 3.5-.1.4-.6.6-.9.9-.2.3 0 .7-.4 1-.6.5-1.2.7-1.5 1.2-.3.8 1.2 3.7-1.1 3.5-.4 0-.6-.3-1.1-.3l-.3-.3c.1-.6.3-1.1.5-1.7-1-2-2.7-.1-4.2-.3-.4 0-1.5-.7-1.5-1.4 0-.8 0-1.7.4-2.4l.6-.6c.1-.2.1-.6.3-.8.9-1 2.1-1 2.8-1.9.5-.6.6-1.4 1.6-1.8.9-.4 1.6.1 2.4-.6 1.3-1.1.2-2.5 1.3-3.5.6-.6 1.6-1 2.3-1.5.2-.3.4-.6.7-1 .7-.7 1.9-.6 2.5-.3.3.1.4.4.6.8-.3 1.2-2.5 1.5-3.3 2.4 0 .1 0 .3.1.5.9 0 1.8-.6 2.8-.7.9 0 1.8-.1 2.8 0 .2 0 .4.1.6.1.7-.1 2.2-1.1 2.4-1.6v-.3l-.2-.2c-.7-.4-1.4.2-2.1-.7.5-1 2.9-.9 4-1.6 0-.2 0-.4.1-.7-.1-.1-.3-.3-.4-.5-.5 0-1.6.5-2.1.2-.2-.2-.4-.5-.6-.7-.4-.1-.7-.2-1.1-.2-.2-.2-.5-.5-.8-.7-.5-.2-1.4.1-2-.1-.1 0-.1-.2-.2-.3 0-.4.9-1.5 1.1-1.7.5-.6 1.4-.4 2-.6.6-.3 1.2-.7 1.8-1 .4-.1.9-.1 1.2-.2.3-.1.7-.2 1.1-.4 1.1-.1 2.9.8 3.5 2.5.1.4.1 1 .6 1.5 1.7 1.7 7.1 3 9.6 1.7 0-.9-.1-4.9.3-5.3.8-.8 1.6-.6 2.3-.9.2-.5.5-1.2 1-1.6 1-.7 2.5-1.3 2.6-2.4 0-.2-.1-.8-.5-1-1.1-.9-4.6-.1-6.1-.2-.6 0-1.1-.9-1.7-1.1h-1.4c-2.1.2-3.9 1.8-6.1 2.6-.8.3-1.6.6-2.4 1-.9.5-1.7 1-2.5 1.5-3 1.3-5.9 3-9.2 5h1.8l-2.1 1.4c-.6.1-1.2.1-1.8.2-.7.4-1.6.7-2.3 1.4-1 1.3-2.6 2-4.1 3.2-2 1.8-4.1 3.4-6 5.5-4.3 4.4-8.4 9-11.8 13.8-.1.2-.6.8-1.2 1.8.6-.3 1.2-.5 1.9-.7-.3 0-.2-.2-.4.1zM20.5 87.9c-.1.3-.1.6-.1.7 0 .8.6 1.8 1.3 2.8l.2-.2c-.6-1.1-1-2.2-1.4-3.3z"/><path fill="#fff" d="M37.4 110.9c.4-.4.8-.8 1.2-1.1 0-.1-.1-.1-.1-.2-.6-1-1.2-2-1.9-3-.3-.9 0-4.6.3-5.4.1-.2.3-.5.5-.7.2-.5-.3-1-.4-1.5-.1-1.2.2-2.4.8-3.4 1-1.9 2.7-2.8 4.8-3 .3 0 .7.2 1.1.1 1.1-.3 1.3-1.1 1.6-1.7.8-.6 1.5-1.2 2.2-1.8 1.3-.5 2.3-.2 3.8-.5 1 .5 1.3 4.5 2.7 4.8.3.1 1.1-.2 1.1-.6.3-.5-.4-2.1-.6-2.9-.1-.5-.1-1-.2-1.4-.2-.5-.5-1.1-.7-1.6-.3-1.1-.5-3.9.2-4.8.4-.5 1.1-.6 1.7-1 0-.5-.1-1.1 0-1.5.4-1.3 2.6-2.2 3.6-3.3v-.3C43.8 79.7 31.2 85 22.5 91.4c3 6.3 8.1 12.9 14.9 19.5zM23 93.5c-.3-.6-.7-1.2-1-1.8-.1 0-.1.1-.2.1.3.4.6.9.8 1.3.3.1.3.3.4.4zm10.5 21.8c.6.6 1.2 1.1 1.7 1.4.7.2 1.3.4 2.1.6l.9-.3c.4.2.7.4 1.1.6.9-.3 2-1.2 3-1.6-1.7-1.5-3.3-3-4.9-4.5-1.4 1.3-2.7 2.6-3.9 3.8z"/><path fill="#fff" d="M22.3 91c.1.1.1.3.2.4C31.2 85 43.8 79.7 59 75.9c0-.1-.1-.3-.1-.4-7.1 1.8-13.8 3.9-19.8 6.4-6.7 2.7-12.3 5.8-16.8 9.1zm-.2.7c-.1-.1-.1-.3-.2-.4l-.2.2c.1.1.2.3.3.4 0-.2 0-.2.1-.2z"/><path d="M22.5 91.4c-.1.1-.2.2-.4.3.3.6.6 1.2 1 1.8.2.4.5.8.7 1.2v.1c3 5.1 7.3 10.5 12.9 16 .1.1.3.2.4.4l.3-.3c-6.8-6.6-11.9-13.2-14.9-19.5zm-.2-.4c-.6-1.3-1.2-2.7-1.6-4-.1.3-.1.6-.2.9.4 1.1.9 2.2 1.4 3.4.1-.1.2-.2.4-.3zm12.8-32c.1-.2 0-.1.2-.3-.7.2-1.3.5-1.9.7-.1.1-.1.2-.2.3.6-.2 1.3-.5 1.9-.7zm2.6 52.2l-.3.3c1.6 1.5 3.2 3 4.9 4.5.2-.1.3-.1.5-.2-1.8-1.5-3.5-3-5.1-4.6z"/><path fill="#fff" d="M22.3 91c-.1.1-.2.2-.4.3.1.1.1.3.2.4.1-.1.2-.2.4-.3-.1-.1-.2-.3-.2-.4zm16.3 18.8c-.4.4-.8.8-1.2 1.1l.3.3 1-1c0-.1 0-.3-.1-.4zm-1.2 1.7l-.3-.3c-.9.8-1.7 1.6-2.5 2.5-.5.5-.9.9-1.3 1.4l.3.3c1.1-1.3 2.4-2.6 3.8-3.9z"/><path fill="#fff" d="M37.1 111.2l.3.3.3-.3-.3-.3-.3.3zm25.6-79.1h-1.8c-.4.3-.8.5-1.3.8-.2.3-.5.6-.9.7.6-.1 1.2-.1 1.8-.2l2.2-1.3zm77.1-11.9c-7.6-2.3-15.6-3.5-23.7-3.3h-4.5c-1.3 0-2.5.5-3.7.5-.9 0-2.3-.1-3.2.4-.1.9.6 2.3 1.6 2.2.4-.2.8-.4 1.1-.6.7-.2 1.7-.2 2.2 0 .7.4 1.4.8 2.2 1.2.6.2 1.5-.1 2.2 0 .6.1 1 .6 1.6.9.4.2 1.5.2 2 .2.2 0 1.5-.1 1.7-.2.4-.2.9-.4 1.3-.7.5-.1 1.6-.2 2 0 .3.2.3.5.7.5.2 0 .5-.1.7-.2.9 0 1.4.1 2.2.4.4.8-.2 1.2 0 1.9.1.4.4.5.3.8v.1c-.1.3-.4.5-.8.8-.6-.1-1.3-.6-1.9-.4-.4.2-.8.5-1.2.7-.6.1-1.2-.7-1.8-.9-.5-.2-1.2.1-1.8 0-.9-.2-1.1-.8-1.9-1.2l-1.5.9c-1 .2-1.5-.8-2.7.2.3.8 1.5.4 2.1 1 .8.8.1 1.4.3 2.1.6 1.8 3.4 1.8 4.5 1.8.4-.3.5-.7.7-1.1-.2-.8-1.1-1.4-1.3-2v-.3c.2-.1.3-.2.5-.3.5.1 1.1.2 1.6.4.3.5.7 1 1.1 1.4.3.3.9.4 1.3.7 1.8-.7 2.4-2.1 4-1.3.1.2.1.3.2.5-.3.7-1.1.8-1.6 1.2 0 .6.5.8.9 1.1 1.5-.1 1.6-.4 3 .5 0 0 3.8-.2 3.8-.3.3.3.6.6.6 1.1 0 .3-.3.9-.8 1.1-.5.1-1 .2-1.4.3-1.1.4-2.3 1.1-3 1.8.1 2.1 1.9 1.2 2.7 1.8.3.4.6.8.8 1.1.5.1 1.1-.2 1.6 0 .7.4.6 1.5 1.2 2 .5.4 1 0 1.6.7.6 0 1.1-.7 1.8-.7s1.3 1 2 .3c.1-.3 0-.5.1-.8.5-.8 1-.1 1.5-.3.6-.2.9-2.2.9-2.7-.8-.9-1.7-1-2.3-1.9.2-.6.6-1.3.3-2-.7-.3-3.2-1-2-2.2.4-.4 1 .2 1.5-.3.5-.9.1-1.9 1.5-2.4.6.3.7.6 1.4 1.3 1 1 2.2 1.8 1.3 3.2.1.1.2.3.3.4.7.1 1.9.6 2.6.4.1-.1.2-.1.3-.2v-.2c-.7-.8-1.7-.3-2.1-1.6.5-1.1 1.5-.7 2.3-1.1v-.2c-.5-.6-1.4-.6-2-.8-.1-.1-.1-.2-.2-.3 0 0 .1-.1.1-.2.8-.7 2.3-.4 3.1-.2.6.6.2 1 .3 1.5.1.6.9.6 1.3 1 .1 0 .1 0 .2-.1.3-.1.2-.4.4-.6.5-.4 1 .3 1.3.8-.3.6-.7 1.4-.7 2.1.1.1.1.2.2.3.2 0 .4 0 .7.1 1.1-.2 1.1-2.1 1.5-2.8.5-.3.7-.3 1.1-.2.3.4.7.8 1 1.2.4 0 1.2-1 1.7-.9.9.1 1.7.7 2.6.8l.1-.1c.4-.9-2.2-2.5-2.7-2.8-3.3-1.8-6.5-2.8-10-4.4-2.7-1.5-6.2-2.1-8.9-2.9zm-45.1 4.5c-.1.3-.3.6-.5.9h-.1c0 .1 0 .1.1.2.9 0 1-.3 1.8.6.4 0 1-.6 1.4-.6.3 0 .6 0 .9.1 1-.2 3.1-1.3 3.1-2.2l-2.5-.7c-.4 0-3.9 1.5-4.2 1.7z"/><path fill="#fff" d="M173.2 57.1c8.8.3 16.2 1.8 22 4.2-1-1.5-2-2.9-2.9-4.2-2-3.1-4.3-6.1-6.6-8.3-.5-.6-1-1.3-1.5-1.9-3-2.9-6-5.8-9.1-8.2-1.6-1.2-3.3-3.3-5-3.4-.4 0-1.1-.1-1.5 0-.3.1-.6.3-.9.5-.9 0-2-1.2-2.8-.6 0 .6 1 1.5.7 2-.5 1.3-2.8 0-3.4-.2-1.3-.4-2.9.1-4.3-.3-1.8-.6-2.9-2.2-4.6-3-.6-.2-1 .2-1.7.4-1.5.4-3 .3-4.7 1.4-.2.8 0 1.8-.3 2.6-.5 1.1-3.4 2-4.2 2.3 0 .6-.2 2-.2 3.4 2.3.1 4.6.3 6.9.8 9 1.5 17.4 5.8 24.1 12.5z"/><path fill="#fff" d="M144.5 51c-.2.3-.4.5-.7.8-.1.4.2.8.2 1.2-.1.4-.3.9-.5 1.3 0 .1.6 2.2.6 2.4.3 1 .8 1.8 1 2.5 8.1-1.4 15.9-2.2 23.2-2.2h3.7c-4.3-3.7-9.2-6.5-14.5-8.3-4.7-1.6-9.6-2.4-14.6-2.3.6.6 1.5 1.1 2.1 1.5.6 1 0 2.4-.5 3.1zm62.2 78.2l.1-.3.9-.9-.6-1.2v-.3c.2.4.5.9.7 1.3l.9-.9c.3-1.3.5-2.5.7-3.8.1-1.5.1-3 .4-4.5 0-.3-.1-.6-.1-.9.5-3.4.2-6.8 0-10.5-.1-2.1-.3-4.5-.4-6.7 0-1-.5-1.8-.6-2.8 0-.1 0-.3-.1-.4-3.2-3.5-7.5-6.8-12.8-9.9 0 .6 0 1.1.1 1.5.5 1.3 1.6.9 2.1 2 .6 1.3.3 2.7.8 3.9.4 1.1 1.3 1.6 1.9 2.1.5.5.5 1.5.6 2 .1.7-.4 1.3-.5 2 0 1.1.3 2.2.4 3.3 0 1.4-.6 2.9-.4 4.4.1.8.9 1.3 1.2 2.2.4.8.8 1.5 1.2 2.3.1.4.1.9.3 1.4.3.5.6 1 .8 1.5.3.9-.6 1.6-.7 2.4 0 .7 1 1.6 1.1 2.3 0 .8-.7.8-1.1 1.5 0 .3-.1.7-.1 1.1.2.4.4.8.7 1.1.3.3 1.1.6 1.1 1.3.1 1.4.1 6.4 1.1 7.5h.3c1.3-1 1.2-3 1.4-4.3-.2-.3-.3-.7-.5-1-.2.6-.6 1-.9 1.3z"/><path fill="#fff" d="M208.3 128.9c.1-.5.2-1 .3-1.6l-.7.7c.1.3.2.6.4.9zm-2.2-36.5c.4-.9.8-1.8 1.1-2.6-.3-.7-.6-1.4-.8-2.3-.8-4.1-3-9.2-4.4-13.2-.5-.8-.9-1.6-1.3-2.4-.4-1.1-.9-2.3-1.4-3.6-.7-1.5-1.8-2.8-2.3-4.2-.4-.6-.7-1.2-1.1-1.8-.1-.1-.1-.2-.2-.3-5.8-2.6-13.3-4.1-22-4.5 1.4 1.5 2.8 3 4.1 4.7.4.5 1.9 2.8 2.1 3.1-.3-.4-2.4-3-2.8-3.4-1.3-1.6-2.8-3.1-4.3-4.4-8.2-.3-17.4.5-27.4 2.2 0 .5-.1 1-.7 1.6 0 2.1 1.6 1.4 2.5 2.1.7.5.7 1.5 1.2 2.2.4.4.9 1 1.2 1.6 7.2 3.2 11.4 6.1 11.4 6.1v1.2c5.5 1.2 10.8 2.7 15.7 4.3.7-.4 1.4-.8 2-1.2v-.8c.2-.4.7-.5 1.2-.8 0-.4-.1-1.1 0-1.4.3-1 2.2-1.2 2.7-1 0 0 1.4 1.6 1.6 1.8 1.7 0 3.3-1.2 4.9-.5.8.5.8 1.8 1 2.3l.6 1.5c.1.9.5 4.7 1.6 5.7.8.7 1.9.4 2.7 1.1.5.4.6 1 .7 1.5 5.2 3 9.5 6.2 12.7 9.6-.3-1.8-.6-3.7-.9-5.6-.1-.4-.2-.7-.3-1-.3.9-.7 1.8-1.1 2.7 0-.2.1 0 0-.3z"/><path fill="#fff" d="M161.1 78.4c.4.6.7 1.2 1 1.4.6.3.9-.1 1.5-.1 1 0 2.4.2 3.3.6 1 .4 2 1.8 3.1 1.9 1.7.1 2.1-1.6 3.7-2.3.8-.4 1.6-.5 2.4-.8-4.7-1.6-9.8-2.9-15.2-4.1l.2 3.4z"/><path d="M176.2 79c.1 0 .2-.1.4-.1.1 0 .2-.1.2-.1-5-1.7-10.2-3.1-15.7-4.3v.5c5.3 1.1 10.4 2.5 15.1 4zm31.6 48.9c0 .1.1.1.1.2l.7-.7c0-.1 0-.2.1-.4l-.9.9zm-12-40.9v.5c5.3 3 9.6 6.3 12.8 9.9 0-.3-.1-.5-.1-.8-3.2-3.4-7.5-6.6-12.7-9.6zm10.9 41.9l-.1.3c.4-.3.7-.7 1.1-1 0-.1-.1-.1-.1-.2l-.9.9z"/><path fill="#fff" d="M207.7 128.2c.2.3.3.7.5 1 0-.1 0-.2.1-.3-.1-.3-.3-.6-.4-.8-.1 0-.1 0-.2.1zm-.7-1.3l.6 1.2.1-.1c-.2-.4-.5-.9-.7-1.3 0 .1.1-.1 0 .2z"/><path d="M207.6 128c0 .1.1.1.1.2l.1-.1c0-.1-.1-.1-.1-.2 0 0 0 .1-.1.1zm-1.5-35.6v.3c.4-.9.8-1.8 1.1-2.7 0-.1-.1-.2-.1-.3-.2 1-.6 1.9-1 2.7zm-32.5-34.9c8.7.4 16.2 1.9 22 4.5-.2-.2-.3-.5-.5-.7-5.8-2.5-13.2-3.9-22-4.2.2.1.4.3.5.4zm-28.3 1.7c0 .1.1.3.1.4 9.9-1.7 19.2-2.4 27.4-2.2-.2-.2-.4-.3-.6-.5h-3.7c-7.3.2-15.1.9-23.2 2.3z"/><path d="M142.8 46.2c.1.1.2.2.3.2 5-.1 9.9.7 14.6 2.3 5.3 1.8 10.2 4.6 14.5 8.3h1c-6.7-6.7-15.1-10.9-24-12.6-2.3-.4-4.6-.7-6.9-.8-.1 1.2.1 2.2.5 2.6zM177 61.9c.4.4 2.5 3.1 2.8 3.4-.2-.3-1.8-2.6-2.1-3.1-1.3-1.7-2.6-3.3-4.1-4.7h-.9c1.5 1.4 3 2.8 4.3 4.4z"/><path d="M173.6 57.5c-.1-.2-.3-.3-.4-.5h-1c.2.2.4.3.6.5h.8zM51.4 100.6c.2.1.3.2.5.1.6-.1.8-.9 1-1.3 1.4-.6 2.4.5 3.2.2.3-.1.2-.3.4-.5.6-.2 1.1-.4 1.7-.6.5 0 1.5.8 2 1.2.2.3.5.7.8 1 1.2.6 2.7-.7 4.2-1.6v-.3c0-1-2-1.7-2.4-1.7-.4.1-.7.2-1 .3-.6.1-1-.6-1.6-.6-.5.2-1.1.4-1.7.6-.5 0-.8-.4-1.2-.4-.3 0-.4.3-.8.4-.3-.1-.6-.1-.9-.2-.2 0-.5.1-.7.1-1.2.8-2.3 1.6-3.4 2.5-.1.2-.2.5-.1.8zm.8-2.2c-.1.1-.2.3-.3.5.5-.4 1.1-.8 1.6-1.2-.4.1-.8.4-1.3.7z"/><path d="M54.9 97.3c-.4.1-.9.2-1.3.4-.6.4-1.1.8-1.6 1.2-.2.3-.4.6-.5.9 1.1-.9 2.2-1.7 3.4-2.5zm11.2 3.8c.1 0 .2.1.3.1v-.9c-.1.1-.3.2-.4.3 0 .1 0 .3.1.5zm-5.2 1.8c-.2.1-.4.3-.6.4-.1.3.1.6.1 1 0 .2-.2.4-.2.7.1.1.1.2.2.3.4-.1.7-.5 1.1-.6.9-.3 2-.3 2.5-1.5 0-.1-.1-.1-.1-.2-.7-.2-2.1-.7-3-.1zm42.5 64.4c-.7-1.6-2-4.1-3.3-5.6-.4-.5-.2-.9-.3-1.2-.2-.4-.4-.8-.7-1.2-.5-1.2-.8-2.2-1.9-3.1-2.8-2.2-8.2-.2-11.3-2.2-.2-.3-.5-.6-.8-.9-.2-.1-.6-.2-.9-.5-.2-.3-.5-.7-.8-1-.3-.2-.7-.4-1.1-.6-.2-.4-.5-.7-.8-1.1-.3-.1-.6-.2-.8-.3l-.7-.7c-.5-.3-1.4-.7-2-1-.2-.3-.5-.5-.7-.8-.3-.1-.7-.2-1-.3-.6-.5-2.6-2.6-3.2-2.6-.4.1-.6.3-1 0-.9-.9-2.1-3.3-2-4.3.1-.3.3-.6.5-.9-.1-.2-.2-.6-.4-.8-.4-.2-1.1 0-1.6 0-.6-1.1-.6-2.4-.4-3.6l-1.5-.9c3 19.1 25.3 31 38 36.4 0-.1 0-.2-.1-.3-.3-.9-.8-1.7-1.2-2.5zm-34.2-42.6c-.4-.9-.2-2.2-1.1-3.1-.5-.5-1.1-.2-1.6 0v7.5c0 1.4.1 2.7.3 4 .6.3 1.1.7 1.7 1 .5-2.1 1.7-4.1 2.1-5.7.3-1.8-.7-1.9-1.4-3.7zm61.9 41.1c0 .1-.1.2-.2.4 2.4-1.2 4.8-2.6 7.3-4.1-1.9-.4-3.8-.8-5.8-1.3-.3 1.6-.5 3.3-1.3 5zm.3-103.6c0 .1 0 .3.1.4 0-.1-.1-.3-.1-.4zm1.1 98c0 .1-.1.3-.1.4 1.9.5 3.9.9 5.8 1.3.2-.1.4-.2.5-.3-2-.4-4.1-.9-6.2-1.4zm-64.1-26.1c-.6-.3-1.2-.7-1.7-1 0 .2.1.4.1.6l1.5.9c.1-.2.1-.3.1-.5z"/><path d="M134.5 61.9c-.3-.1-.6-.2-.9-.2-.7.2-1.4.3-2.2.5 0 .1.1.3.1.4 1-.2 2-.5 3-.7zM110 60.6c2.1 0 5.5-.1 8.2-.2.7 0 1.4-.4 2-.9-2.1-.2-4.3-.3-6.5-.3-1.7 0-3.4.1-5 .2 0 .2.1.3.2.5.2.5.6.8 1.1.7zm43.5 12.8c0 .2 0 .5.1.7.1.6 1.1 1.3 1.5 1.5.6.1 1.1.1 1.7.2 1 .4 2.6 1 3.4 1.6.4.2.6.6.9 1v-3.5c-2.5-.6-5-1.1-7.6-1.5zm-2.3-1.5c.6.4 1.5.2 2.1.8 0 .1.1.1.1.2l7.8 1.5v-1.2s-4.2-3-11.4-6.1c0 .1.1.1.1.2.4 1.3-.1 3.3 1.3 4.6z"/><path d="M153.5 73.4c2.6.5 5.1 1 7.6 1.5v-.5c-2.5-.6-5.1-1.1-7.8-1.5.1.1.2.3.2.5zm-82.7 26.9c.6-.5.8-1.3 1.9-1.7.6-.2 1.7.1 2.4-.8.1-.2.1-.4 0-.6-.6-.5-1-.1-1.7-.4-.7-.3-1.4-1.1-2.2-1-.6.1-1.2.9-1.8.9-.3 0-.8-.2-1-.4-.1 0-.2.1-.3.1-.2.4-.7.8-.9 1.1.2.5.5.9.8 1.3-.2.6-.7 1-1.4 1.4v.9c.9.4 3 .2 4.2-.8z"/><g fill-rule="evenodd" clip-rule="evenodd" fill="#fff"><path d="M66.5 129l-.1-55.8S86 59.3 113.7 59.3c27.7 0 47.4 13.9 47.4 13.9V129c.2 30.1-47.4 44.2-47.4 44.2S66.2 159.1 66.5 129m9.8-48.8l-.1 46.2c-.2 24.8 37.5 36.6 37.5 36.6s37.8-11.6 37.7-36.5l.1-46.2s-15.6-11.6-37.6-11.6h-.1c-22 0-37.5 11.5-37.5 11.5"/><path d="M112.7 135.7c-17.1 0-28.6-10-28.6-27.6 0-17.4 13.6-27.8 30.5-27.8 17.2 0 28.7 11 28.7 27.5 0 12.6-7.8 22.7-19.7 26.5 6.4 4 7.7 4.4 14.9 8.3-3.8.8-7.3 2.1-10.8 4.3-3.8-3-7.7-6-11.8-8.8l-3.2-2.4zm-15.8-25.4c0 10.1 4.6 20.8 16.2 20.8 10.8 0 17.3-10.2 17.3-24.8 0-10-4.7-21.4-16.2-21.4-12.9-.2-17.3 10.9-17.3 25.4"/></g></svg>