<svg width="20" height="20" viewBox="0 0 20 20" xmlns="http://www.w3.org/2000/svg"><g fill="none" fill-rule="evenodd"><path d="M2.36.839L17.666.86a1.496 1.496 0 011.494 1.499l-.022 15.308a1.496 1.496 0 01-1.498 1.494L2.333 19.14a1.497 1.497 0 01-1.495-1.5L.86 2.332A1.497 1.497 0 012.36.84z" stroke="#FEFEFE" stroke-width="1.5" stroke-linecap="round" stroke-linejoin="round"/><path d="M8.998 14.252h1.607v-1.644H8.998v1.644zm.108-4.594l.06-.06c1.523-.06 2.219-.552 2.219-1.344v-.023c0-.672-.516-1.14-1.379-1.14-.756 0-1.379.336-1.955.948l-.899-.959c.695-.792 1.594-1.331 2.89-1.331 1.679 0 2.806.935 2.806 2.434v.024c0 1.511-1.079 2.195-2.41 2.422l-.12.972h-.972l-.24-1.943z" fill="#FEFEFE"/></g></svg>