<svg xmlns="http://www.w3.org/2000/svg" viewBox="0 0 87.8 87.8"><path d="M43.9 87.8C19.7 87.8 0 68.1 0 43.9S19.7 0 43.9 0s43.9 19.7 43.9 43.9-19.7 43.9-43.9 43.9zm0-84.5C21.5 3.3 3.3 21.5 3.3 43.9s18.2 40.6 40.6 40.6c22.4 0 40.6-18.2 40.6-40.6S66.3 3.3 43.9 3.3z"/><path d="M19.6 19.9v14.6h48.5V19.9H19.6zm1.9 13.9c-.7 0-1.2-.5-1.2-1.2s.5-1.2 1.2-1.2 1.2.5 1.2 1.2-.6 1.2-1.2 1.2zm0-10.9c-.7 0-1.2-.5-1.2-1.2s.5-1.2 1.2-1.2 1.2.5 1.2 1.2-.6 1.2-1.2 1.2zm6 8.8c0 .5-.4.9-.9.9s-.9-.4-.9-.9v-9.1c0-.5.4-.9.9-.9s.9.4.9.9v9.1zm3.1 0c0 .5-.4.9-.9.9s-.9-.4-.9-.9v-9.1c0-.5.4-.9.9-.9s.9.4.9.9v9.1zm3 0c0 .5-.4.9-.9.9s-.9-.4-.9-.9v-9.1c0-.5.4-.9.9-.9s.9.4.9.9v9.1zm3 0c0 .5-.4.9-.9.9s-.9-.4-.9-.9v-9.1c0-.5.4-.9.9-.9s.9.4.9.9v9.1zm3.1 0c0 .5-.4.9-.9.9s-.9-.4-.9-.9v-9.1c0-.5.4-.9.9-.9s.9.4.9.9v9.1zm3 0c0 .5-.4.9-.9.9s-.9-.4-.9-.9v-9.1c0-.5.4-.9.9-.9s.9.4.9.9v9.1zm3 0c0 .5-.4.9-.9.9s-.9-.4-.9-.9v-9.1c0-.5.4-.9.9-.9s.9.4.9.9v9.1zm3.1 0c0 .5-.4.9-.9.9s-.9-.4-.9-.9v-9.1c0-.5.4-.9.9-.9s.9.4.9.9v9.1zm3 0c0 .5-.4.9-.9.9s-.9-.4-.9-.9v-9.1c0-.5.4-.9.9-.9s.9.4.9.9v9.1zm3 0c0 .5-.4.9-.9.9s-.9-.4-.9-.9v-9.1c0-.5.4-.9.9-.9s.9.4.9.9v9.1zm3 0c0 .5-.4.9-.9.9s-.9-.4-.9-.9v-9.1c0-.5.4-.9.9-.9s.9.4.9.9v9.1zm6.7-3.9c0 .3-.3.6-.6.6h-4.2c-.3 0-.6-.3-.6-.6v-.6c0-.3.3-.6.6-.6h4.2c.3 0 .6.3.6.6v.6zm0-2.4c0 .3-.3.6-.6.6h-4.2c-.3 0-.6-.3-.6-.6v-3c0-.3.3-.6.6-.6h4.2c.3 0 .6.3.6.6v3zm1.8 8.4c-.7 0-1.2-.5-1.2-1.2s.5-1.2 1.2-1.2 1.2.5 1.2 1.2c.1.7-.5 1.2-1.2 1.2zm0-10.9c-.7 0-1.2-.5-1.2-1.2s.5-1.2 1.2-1.2 1.2.5 1.2 1.2c.1.7-.5 1.2-1.2 1.2zM19.6 36.5v14.6h48.5V36.5H19.6zm1.9 14c-.7 0-1.2-.5-1.2-1.2s.5-1.2 1.2-1.2 1.2.5 1.2 1.2c0 .6-.6 1.2-1.2 1.2zm0-11c-.7 0-1.2-.5-1.2-1.2s.5-1.2 1.2-1.2 1.2.5 1.2 1.2-.6 1.2-1.2 1.2zm6 8.8c0 .5-.4.9-.9.9s-.9-.4-.9-.9v-9.1c0-.5.4-.9.9-.9s.9.4.9.9v9.1zm3.1 0c0 .5-.4.9-.9.9s-.9-.4-.9-.9v-9.1c0-.5.4-.9.9-.9s.9.4.9.9v9.1zm3 0c0 .5-.4.9-.9.9s-.9-.4-.9-.9v-9.1c0-.5.4-.9.9-.9s.9.4.9.9v9.1zm3 0c0 .5-.4.9-.9.9s-.9-.4-.9-.9v-9.1c0-.5.4-.9.9-.9s.9.4.9.9v9.1zm3.1 0c0 .5-.4.9-.9.9s-.9-.4-.9-.9v-9.1c0-.5.4-.9.9-.9s.9.4.9.9v9.1zm3 0c0 .5-.4.9-.9.9s-.9-.4-.9-.9v-9.1c0-.5.4-.9.9-.9s.9.4.9.9v9.1zm3 0c0 .5-.4.9-.9.9s-.9-.4-.9-.9v-9.1c0-.5.4-.9.9-.9s.9.4.9.9v9.1zm3.1 0c0 .5-.4.9-.9.9s-.9-.4-.9-.9v-9.1c0-.5.4-.9.9-.9s.9.4.9.9v9.1zm3 0c0 .5-.4.9-.9.9s-.9-.4-.9-.9v-9.1c0-.5.4-.9.9-.9s.9.4.9.9v9.1zm3 0c0 .5-.4.9-.9.9s-.9-.4-.9-.9v-9.1c0-.5.4-.9.9-.9s.9.4.9.9v9.1zm3 0c0 .5-.4.9-.9.9s-.9-.4-.9-.9v-9.1c0-.5.4-.9.9-.9s.9.4.9.9v9.1zm6.7-3.9c0 .3-.3.6-.6.6h-4.2c-.3 0-.6-.3-.6-.6v-.6c0-.3.3-.6.6-.6h4.2c.3 0 .6.3.6.6v.6zm0-2.4c0 .3-.3.6-.6.6h-4.2c-.3 0-.6-.3-.6-.6v-3c0-.3.3-.6.6-.6h4.2c.3 0 .6.3.6.6v3zm1.8 8.5c-.7 0-1.2-.5-1.2-1.2s.5-1.2 1.2-1.2 1.2.5 1.2 1.2c.1.6-.5 1.2-1.2 1.2zm0-11c-.7 0-1.2-.5-1.2-1.2s.5-1.2 1.2-1.2 1.2.5 1.2 1.2c.1.7-.5 1.2-1.2 1.2zM19.6 53.3v14.6h48.5V53.3H19.6zm1.9 14c-.7 0-1.2-.5-1.2-1.2s.5-1.2 1.2-1.2 1.2.5 1.2 1.2-.6 1.2-1.2 1.2zm0-10.9c-.7 0-1.2-.5-1.2-1.2s.5-1.2 1.2-1.2 1.2.5 1.2 1.2-.6 1.2-1.2 1.2zm6 8.8c0 .5-.4.9-.9.9s-.9-.4-.9-.9v-9.1c0-.5.4-.9.9-.9s.9.4.9.9v9.1zm3.1 0c0 .5-.4.9-.9.9s-.9-.4-.9-.9v-9.1c0-.5.4-.9.9-.9s.9.4.9.9v9.1zm3 0c0 .5-.4.9-.9.9s-.9-.4-.9-.9v-9.1c0-.5.4-.9.9-.9s.9.4.9.9v9.1zm3 0c0 .5-.4.9-.9.9s-.9-.4-.9-.9v-9.1c0-.5.4-.9.9-.9s.9.4.9.9v9.1zm3.1 0c0 .5-.4.9-.9.9s-.9-.4-.9-.9v-9.1c0-.5.4-.9.9-.9s.9.4.9.9v9.1zm3 0c0 .5-.4.9-.9.9s-.9-.4-.9-.9v-9.1c0-.5.4-.9.9-.9s.9.4.9.9v9.1zm3 0c0 .5-.4.9-.9.9s-.9-.4-.9-.9v-9.1c0-.5.4-.9.9-.9s.9.4.9.9v9.1zm3.1 0c0 .5-.4.9-.9.9s-.9-.4-.9-.9v-9.1c0-.5.4-.9.9-.9s.9.4.9.9v9.1zm3 0c0 .5-.4.9-.9.9s-.9-.4-.9-.9v-9.1c0-.5.4-.9.9-.9s.9.4.9.9v9.1zm3 0c0 .5-.4.9-.9.9s-.9-.4-.9-.9v-9.1c0-.5.4-.9.9-.9s.9.4.9.9v9.1zm3 0c0 .5-.4.9-.9.9s-.9-.4-.9-.9v-9.1c0-.5.4-.9.9-.9s.9.4.9.9v9.1zm6.7-4c0 .3-.3.6-.6.6h-4.2c-.3 0-.6-.3-.6-.6v-.6c0-.3.3-.6.6-.6h4.2c.3 0 .6.3.6.6v.6zm0-2.4c0 .3-.3.6-.6.6h-4.2c-.3 0-.6-.3-.6-.6v-3c0-.3.3-.6.6-.6h4.2c.3 0 .6.3.6.6v3zm1.8 8.5c-.7 0-1.2-.5-1.2-1.2s.5-1.2 1.2-1.2 1.2.5 1.2 1.2-.5 1.2-1.2 1.2zm0-10.9c-.7 0-1.2-.5-1.2-1.2s.5-1.2 1.2-1.2 1.2.5 1.2 1.2-.5 1.2-1.2 1.2z"/></svg>