<svg width="93" height="90" viewBox="0 0 93 90" xmlns="http://www.w3.org/2000/svg" xmlns:xlink="http://www.w3.org/1999/xlink"><defs><path id="a" d="M0 .308H92.98v79.07H0z"/><path id="c" d="M0 89.862h92.979V0H0z"/></defs><g fill="none" fill-rule="evenodd"><g transform="translate(0 10.484)"><mask id="b" fill="#fff"><use xlink:href="#a"/></mask><path d="M79.673.435c-.056-.057-.128-.082-.19-.127.431.585.407 1.4-.124 1.93l-1.087 1.086c7.552 8.07 11.707 18.543 11.707 29.625 0 23.95-19.515 43.433-43.5 43.433-23.482 0-42.666-18.678-43.462-41.936H1.479c-.83 0-.555.021-1.479.021.831 24.877 21.365 44.91 46.48 44.91 25.64 0 46.5-20.827 46.5-46.428 0-12.234-4.726-23.78-13.307-32.514" fill="#2E8BE0" mask="url(#b)"/></g><mask id="d" fill="#fff"><use xlink:href="#c"/></mask><path fill="#FFF" mask="url(#d)" d="M14.868 41.935h9.844zM60.811 27.005l6.932-6.92c0-.002-.002-.002-.002-.002l-6.931 6.922h.001M27.714 41.935h12.36zM49.942 37.857l8.748-8.733-.001-.001-8.747 8.734z"/><path d="M67.743 20.084l2.121-2.117c0-.002-.002-.002-.003-.002l-2.12 2.118.002.001M24.712 41.935h3zM58.689 29.122l.001.002 2.121-2.12h-.001l-2.121 2.118z" fill="#FFF" mask="url(#d)"/><path d="M79.484 10.791c-.045-.061-.07-.132-.125-.187l-.001-.002c.055.056.08.126.124.189h.002zM70.983 21.08c-.003.003-.004.008-.007.01-.003.004-.008.005-.01.008L52.063 39.975l26.208-26.167-.003-.003-7.286 7.275z" fill="#ED2E26" mask="url(#d)"/><path d="M79.356 12.719l-1.087 1.086.003.003 1.087-1.086c.53-.53.555-1.345.125-1.93l-.002-.002c.43.587.405 1.399-.126 1.929M70.976 21.091l.007-.01-.018.018c.003-.005.008-.005.01-.008" fill="#ED2E26" mask="url(#d)"/><path d="M79.482 10.79c-.045-.061-.069-.131-.124-.187a1.5 1.5 0 00-2.12 0l-.025.026-1.053 1.05C68.084 4.16 57.58 0 46.48 0 22.994 0 3.797 18.677 3.004 41.935h8.866c.617-14.375 10.06-26.502 23.046-31.106.186-2.098 1.937-3.753 4.086-3.753a4.11 4.11 0 013.516 1.998c1.3-.148 2.62-.232 3.96-.232 8.726 0 16.985 3.28 23.384 9.125l-2.12 2.118h-.001c-5.835-5.3-13.323-8.248-21.263-8.248-1.164 0-2.311.077-3.444.2a4.126 4.126 0 01-4.032 3.27c-1.308 0-2.463-.623-3.219-1.575-11.746 4.23-20.305 15.183-20.916 28.203h9.845a21.63 21.63 0 011.726-7.153 4.078 4.078 0 01-.754-2.36 4.123 4.123 0 014.12-4.116c.305 0 .599.037.885.1 3.98-4.168 9.578-6.781 15.788-6.781 5.32 0 10.359 1.924 14.334 5.38l-2.12 2.117a18.768 18.768 0 00-12.214-4.502c-5.174 0-9.866 2.095-13.275 5.479.456.662.724 1.461.724 2.323a4.124 4.124 0 01-4.122 4.115 4.1 4.1 0 01-.808-.082 18.606 18.606 0 00-1.284 5.48h12.361c.684-2.907 3.288-5.085 6.405-5.085 1.27 0 2.459.384 3.465 1.007l-.001.001c.43.267.837.566 1.195.923.357.356.657.764.926 1.193L70.965 21.1l.018-.018 7.286-7.276 1.087-1.086c.531-.53.555-1.343.126-1.929M47.05 44.818s.004 0 .005-.002c-.001 0-.003 0-.004.002h-.002zM43.224 41.935h2.634zM45.858 41.935l1.859-1.855-1.859 1.855zM46.582 44.911c-.035.002-.068.02-.102.02h-3.255v.001h3.255c.036 0 .066-.02.102-.02M47.055 44.815c.184-.076.35-.187.487-.326l-.003.003c-.14.14-.304.249-.484.323" fill="#ED2E26" mask="url(#d)"/><path d="M47.05 44.817c.002 0 .004 0 .005-.002a1.518 1.518 0 00-.004.002M47.543 44.49l2.295-2.292-2.295 2.291zM46.582 44.911c.157-.01.318-.031.468-.093-.1.04-.21.044-.315.062-.053.009-.1.028-.153.031" fill="#ED2E26" mask="url(#d)"/><path d="M46.734 44.88c.105-.02.216-.022.315-.063h.002c-.098.04-.21.044-.317.063M46.48 44.93c.034 0 .067-.017.101-.019.054-.004.102-.022.153-.031-.085.015-.166.05-.255.05M47.543 44.49l-.003.002z" fill="#ED2E26" mask="url(#d)"/><path d="M49.838 42.197a3.599 3.599 0 00-.82-1.3 3.596 3.596 0 00-1.3-.817 3.548 3.548 0 00-1.238-.234c-1.445 0-2.684.86-3.255 2.09-.213.457-.34.96-.34 1.497 0 .536.127 1.04.34 1.498v.001a3.594 3.594 0 003.255 2.088 3.593 3.593 0 003.59-3.587c0-.436-.088-.85-.232-1.236" fill="#ED2E26" mask="url(#d)"/><path d="M49.942 37.858" fill="#FFF" mask="url(#d)"/></g></svg>