<svg width="65" height="65" viewBox="0 0 65 65" xmlns="http://www.w3.org/2000/svg" xmlns:xlink="http://www.w3.org/1999/xlink"><defs><path id="a" d="M0 .565h64.435V64.87H0z"/></defs><g fill="none" fill-rule="evenodd"><g><mask id="b" fill="#fff"><use xlink:href="#a"/></mask><path d="M32.217 65C14.453 65 0 50.547 0 32.783a1.038 1.038 0 112.078 0c0 16.617 13.52 30.14 30.139 30.14 16.62 0 30.138-13.523 30.138-30.14 0-7.942-3.062-15.44-8.622-21.106a1.04 1.04 0 011.483-1.456c5.944 6.059 9.22 14.072 9.22 22.562C64.435 50.547 49.981 65 32.215 65" fill="#B2CBD9" mask="url(#b)"/><path d="M54.261 10.735c-5.643-5.642-13.435-9.13-22.044-9.13-17.22 0-31.177 13.959-31.177 31.176h31.177L54.26 10.735" fill="#D9312D" mask="url(#b)"/><path d="M2.097 31.743h29.69l20.99-20.996C47.18 5.515 39.92 2.645 32.218 2.645c-16.27 0-29.572 12.96-30.12 29.098zm30.12 2.078H1.037A1.038 1.038 0 010 32.783C0 15.018 14.453.565 32.217.565c8.605 0 16.695 3.352 22.777 9.436a1.035 1.035 0 010 1.469L32.952 33.519a1.038 1.038 0 01-.735.302z" fill="#FFFFFE" mask="url(#b)"/></g><path d="M32.217 33.821H9.253c-.575 0-1.04-.464-1.04-1.038 0-13.234 10.77-24.003 24.004-24.003 6.41 0 12.44 2.496 16.972 7.031a1.035 1.035 0 010 1.468 1.038 1.038 0 01-1.47 0 21.778 21.778 0 00-15.502-6.42c-11.74 0-21.357 9.276-21.9 20.884h21.9a1.04 1.04 0 010 2.078" fill="#FFFFFE"/><path d="M18.123 33.821a1.04 1.04 0 01-1.04-1.038c0-8.343 6.79-15.133 15.134-15.133 4.04 0 7.84 1.573 10.698 4.43a1.035 1.035 0 010 1.47 1.035 1.035 0 01-1.468 0 12.967 12.967 0 00-9.23-3.822c-7.2 0-13.056 5.856-13.056 13.055 0 .574-.464 1.038-1.038 1.038" fill="#FFFFFE"/><path d="M32.217 33.821a1.038 1.038 0 01-.733-1.773l22.044-22.044a1.035 1.035 0 011.468 0 1.035 1.035 0 010 1.468L32.952 33.519a1.035 1.035 0 01-.735.302" fill="#D9312D"/><path d="M28.69 32.783a3.528 3.528 0 117.056 0 3.529 3.529 0 11-7.056 0" fill="#D9312D"/><path d="M32.217 30.294a2.492 2.492 0 00-2.49 2.49 2.492 2.492 0 002.49 2.489 2.492 2.492 0 002.489-2.49 2.492 2.492 0 00-2.49-2.489zm0 7.056a4.573 4.573 0 01-4.567-4.567 4.573 4.573 0 014.567-4.567 4.571 4.571 0 014.567 4.567 4.571 4.571 0 01-4.567 4.567zM25.222 10.409c0-1.002.814-1.816 1.816-1.816a1.817 1.817 0 010 3.633 1.818 1.818 0 01-1.816-1.817" fill="#FFFFFE"/><path d="M27.038 9.633a.776.776 0 10-.003 1.552.776.776 0 00.003-1.552zm0 3.631a2.857 2.857 0 01-2.856-2.855 2.859 2.859 0 012.856-2.856 2.859 2.859 0 012.856 2.856 2.857 2.857 0 01-2.856 2.855zM18.848 25.141a1.816 1.816 0 113.634 0 1.816 1.816 0 11-3.634 0" fill="#FFFFFE"/><path d="M20.666 24.363a.78.78 0 00-.778.778c0 .429.35.778.778.778a.78.78 0 00.778-.778.78.78 0 00-.778-.778zm0 3.634a2.859 2.859 0 01-2.856-2.856 2.859 2.859 0 012.856-2.856 2.859 2.859 0 012.855 2.856 2.859 2.859 0 01-2.855 2.856z" fill="#FFFFFE"/></g></svg>