<svg width="54" height="40" viewBox="0 0 54 40" xmlns="http://www.w3.org/2000/svg" xmlns:xlink="http://www.w3.org/1999/xlink"><defs><path id="a" d="M0 0h53.462v39.664H0z"/></defs><g fill="none" fill-rule="evenodd"><mask id="b" fill="#fff"><use xlink:href="#a"/></mask><path d="M10.347 6.036h32.767V1.724H10.347v4.312zm37.941 0H44.84V.863A.862.862 0 0043.976 0H9.486a.86.86 0 00-.862.862v5.173h-3.45a.862.862 0 00-.862.862v4.312h1.725V7.76h41.389v3.45H49.15V6.898a.86.86 0 00-.86-.862z" fill="#2E8BE0" mask="url(#b)"/><path d="M51.737 37.94H1.726V12.934h50.011V37.94zM52.6 11.21H.862a.862.862 0 00-.861.863v26.73a.86.86 0 00.861.862H52.6a.862.862 0 00.864-.862v-26.73a.864.864 0 00-.864-.863z" fill="#2E8BE0" mask="url(#b)"/><path d="M6.036 22.609a5.62 5.62 0 002.587-1.773c.284-.341.536-.71.734-1.113a5.622 5.622 0 00.515-1.615h4.786v-1.725H9.075a.836.836 0 00-.45.146.848.848 0 00-.411.717c0 1.533-.893 2.847-2.177 3.489a3.847 3.847 0 01-.742.28c-.315.083-.64.142-.983.142a.86.86 0 00-.861.861v7.71a.86.86 0 00.861.861c.343 0 .668.059.983.141a3.93 3.93 0 011.916 1.173c.203.23.377.483.524.756.163.304.297.625.376.97.062.279.103.565.103.861 0 .477.385.864.861.864h5.585v-1.725H9.872a5.74 5.74 0 00-.248-.97 5.494 5.494 0 00-.32-.755 5.647 5.647 0 00-3.268-2.767 5.545 5.545 0 00-.742-.178v-6.172c.253-.046.502-.101.742-.178M49.15 21.156c-.34 0-.667-.059-.982-.141a3.903 3.903 0 01-2.917-3.77.846.846 0 00-.413-.715.816.816 0 00-.45-.146H38.802v1.723H43.592a5.566 5.566 0 001.246 2.728 5.634 5.634 0 002.589 1.773c.238.077.488.134.74.178v6.173a5.74 5.74 0 00-.74.177 5.654 5.654 0 00-3.269 2.769c-.125.242-.23.495-.319.753a5.55 5.55 0 00-.247.972h-4.79v1.723h5.585a.862.862 0 00.864-.861 3.868 3.868 0 01.477-1.833 3.878 3.878 0 011.7-1.648 3.83 3.83 0 01.74-.281c.315-.083.641-.14.982-.14a.864.864 0 00.864-.863v-7.708a.864.864 0 00-.864-.863M31.69 31.042c0 .358-.29.647-.647.647H22.42a.647.647 0 01-.647-.647v-2.587h1.293v1.94h7.33v-1.94h1.294v2.587zm-8.864-6.493a.646.646 0 01.914 0l.74.74.912.913.691.691V20.567c0-.352.292-.637.648-.637.357 0 .647.285.647.637V26.893l.504-.504.79-.788.82-.821.23-.231a.646.646 0 01.915 0c.092.09.11.212.136.328.046.207.028.425-.136.586l-.264.264-.788.79-2.242 2.24a.635.635 0 01-1.223 0l-2.704-2.703-.59-.59c-.087-.085-.101-.199-.129-.307-.055-.214-.04-.44.129-.608zm13.332.731c-.31-4.952-4.399-8.897-9.427-8.897-4.547 0-8.35 3.22-9.268 7.496-.06.286-.07.587-.104.88-.033.277-.077.552-.085.835-.003.093-.027.18-.027.275 0 2.304.858 4.39 2.23 6.035.214.257.415.522.655.755.365.354.758.677 1.176.97a9.412 9.412 0 005.423 1.725 9.418 9.418 0 005.424-1.725 9.77 9.77 0 001.176-.97c.238-.233.441-.498.656-.755a9.355 9.355 0 002.114-4.899c.035-.28.077-.557.086-.845.004-.099.03-.192.03-.291 0-.202-.048-.391-.06-.589z" fill="#2E8BE0" mask="url(#b)"/><path d="M42.253 27.593c-.268 0-.514-.073-.74-.183a1.707 1.707 0 01-.859-.917 1.69 1.69 0 01-.126-.625c0-.09.038-.169.051-.257.13-.823.814-1.466 1.674-1.466.32 0 .605.111.861.264.507.3.862.828.862 1.459 0 .317-.108.598-.258.852a1.675 1.675 0 01-1.007.78c-.15.042-.297.093-.458.093m2.587-3.982a3.493 3.493 0 00-.734-.642 3.442 3.442 0 00-.992-.427 3.431 3.431 0 00-.861-.123c-1.77 0-3.216 1.344-3.41 3.062-.015.128-.04.255-.04.387 0 .169.027.33.05.491.043.303.114.596.232.87a3.451 3.451 0 003.168 2.087 3.452 3.452 0 003.448-3.448c0-.867-.331-1.65-.861-2.257M10.348 23.282h-.862V25.005h5.174V23.282zM9.486 29.318h5.173v-1.724H9.486z" fill="#2E8BE0" mask="url(#b)"/></g></svg>