<svg width="55" height="53" viewBox="0 0 55 53" xmlns="http://www.w3.org/2000/svg" xmlns:xlink="http://www.w3.org/1999/xlink"><defs><path id="a" d="M0 .18h54.207v46.168H0z"/><path id="c" d="M0 52.47h54.207V0H0z"/></defs><g fill="none" fill-rule="evenodd"><g transform="translate(0 6.122)"><mask id="b" fill="#fff"><use xlink:href="#a"/></mask><path d="M46.45.254c-.033-.033-.075-.048-.11-.074a.863.863 0 01-.073 1.127l-.634.634a25.2 25.2 0 016.825 17.298c0 13.984-11.377 25.36-25.36 25.36-13.69 0-24.875-10.906-25.34-24.486H.863c-.483 0-.323.012-.862.012.485 14.526 12.456 26.223 27.098 26.223 14.948 0 27.11-12.16 27.11-27.11A26.955 26.955 0 0046.448.255" fill="#B5D0E5" mask="url(#b)"/></g><mask id="d" fill="#fff"><use xlink:href="#c"/></mask><path fill="#FFF" mask="url(#d)" d="M8.668 24.486h5.74zM35.453 15.768l4.041-4.04v-.002l-4.042 4.042h.001M16.157 24.486h7.206zM29.117 22.105l5.1-5.1h-.001l-5.1 5.1zM39.494 11.727l1.237-1.236-.002-.001-1.235 1.236v.001M14.407 24.486h1.75zM34.216 17.005l1.237-1.237-1.237 1.237z"/><path d="M46.34 6.3c-.027-.035-.04-.076-.073-.108l-.001-.001c.032.032.046.073.073.11zM41.384 12.309l-.005.006-.006.004-11.02 11.023 15.28-15.28c-.001 0-.002 0-.002-.002l-4.247 4.249zM46.265 7.426l-.634.634.002.002.634-.634a.863.863 0 01-.002-.002" fill="#ED2E26" mask="url(#d)"/><path d="M41.38 12.315l.004-.006-.01.01c0-.002.004-.002.005-.004" fill="#ED2E26" mask="url(#d)"/><path d="M46.339 6.3c-.027-.035-.04-.076-.073-.109a.874.874 0 00-1.236 0l-.015.015-.614.614A25.254 25.254 0 0027.098 0C13.406 0 2.214 10.906 1.752 24.486H6.92c.36-8.394 5.865-15.475 13.436-18.163a2.397 2.397 0 012.382-2.191c.872 0 1.628.47 2.05 1.166a20.319 20.319 0 012.309-.135c5.087 0 9.902 1.915 13.632 5.328l-1.235 1.237h-.001c-3.402-3.095-7.768-4.816-12.396-4.816-.679 0-1.348.044-2.008.116a2.406 2.406 0 01-2.35 1.91 2.391 2.391 0 01-1.878-.92c-6.848 2.47-11.838 8.866-12.194 16.468h5.74a12.645 12.645 0 011.006-4.177 2.384 2.384 0 01-.44-1.378 2.405 2.405 0 012.403-2.403c.177 0 .349.022.516.058a12.677 12.677 0 0117.561-.818l-1.236 1.236a10.932 10.932 0 00-7.121-2.628 10.95 10.95 0 00-7.74 3.199c.266.386.423.853.423 1.356a2.406 2.406 0 01-2.875 2.355 10.878 10.878 0 00-.748 3.2h7.206a3.845 3.845 0 013.735-2.97c.74 0 1.433.225 2.02.589h-.001c.25.156.488.331.697.54.208.207.383.445.54.696l11.02-11.021.01-.01 4.247-4.25.634-.633a.863.863 0 00.074-1.127M27.43 26.169h.001-.001zM25.2 24.486h1.535zM26.736 24.486l1.083-1.083-1.083 1.083zM27.157 26.224c-.02 0-.039.011-.059.011H25.2h1.898c.021 0 .038-.01.06-.011M27.433 26.168a.865.865 0 00.284-.19h-.001a.885.885 0 01-.283.19" fill="#ED2E26" mask="url(#d)"/><path d="M27.43 26.169l.003-.001a.885.885 0 00-.002 0M27.718 25.977l1.338-1.338-1.338 1.338zM27.157 26.224a.865.865 0 00.273-.055c-.058.024-.122.026-.183.036-.031.006-.059.017-.09.019" fill="#ED2E26" mask="url(#d)"/><path d="M27.246 26.206c.061-.012.126-.013.184-.037-.056.023-.122.025-.184.037M27.098 26.235c.02 0 .039-.01.06-.011.03-.003.059-.013.088-.019-.05.01-.097.03-.148.03M27.718 25.977l-.002.002z" fill="#ED2E26" mask="url(#d)"/><path d="M29.056 24.639a2.102 2.102 0 00-.478-.759 2.096 2.096 0 00-.759-.478 2.066 2.066 0 00-.721-.136c-.842 0-1.565.502-1.898 1.22a2.06 2.06 0 00-.197.875c0 .313.073.607.197.874a2.095 2.095 0 001.898 1.22c1.154 0 2.093-.94 2.093-2.094 0-.255-.051-.496-.135-.722" fill="#ED2E26" mask="url(#d)"/><path d="M29.117 22.105" fill="#FFF" mask="url(#d)"/></g></svg>