<svg xmlns="http://www.w3.org/2000/svg" viewBox="0 0 87.8 87.8"><path d="M43.9 87.8C19.7 87.8 0 68.1 0 43.9S19.7 0 43.9 0s43.9 19.7 43.9 43.9-19.7 43.9-43.9 43.9zm0-84.5C21.5 3.3 3.3 21.5 3.3 43.9s18.2 40.6 40.6 40.6c22.4 0 40.6-18.2 40.6-40.6S66.3 3.3 43.9 3.3z"/><path d="M66.1 52.6H24.9c-.6 0-.9.6-.9 1.3v11.4c0 .7.3 1.2.9 1.2h41.2c.6 0 1.1-.5 1.1-1.2V53.9c0-.7-.5-1.3-1.1-1.3zM31.3 63.2c-2 0-3.6-1.6-3.6-3.6s1.6-3.5 3.6-3.5 3.6 1.6 3.6 3.5c-.1 2-1.7 3.6-3.6 3.6zm18-.5h-2.7v-6.2h2.7v6.2zm4.8 0h-2.6v-6.2h2.6v6.2zm5 0h-2.8v-6.2h2.8v6.2zm5 0h-2.8v-6.2h2.8v6.2zM37.5 51.2V30.8c0-1.1-1-2-2.1-2s-2.1.9-2.1 2v20.5h4.2zM41.3 34.6c-.3 0-.5-.1-.7-.2-.5-.4-.6-1.1-.2-1.7.9-1.2 1.4-2.4 1.4-3.7 0-1.1-.3-2.2-1-3.3-.4-.5-.2-1.3.3-1.6.5-.4 1.3-.2 1.6.3.9 1.4 1.4 3 1.4 4.6 0 1.8-.6 3.6-1.8 5.2-.3.3-.7.4-1 .4zM46.3 36.1c-.3 0-.5-.1-.7-.2-.5-.4-.6-1.1-.2-1.7 1.4-1.9 2.1-3.8 2.1-5.9 0-1.8-.5-3.5-1.6-5.2-.4-.5-.2-1.3.3-1.6.5-.4 1.3-.2 1.6.3 1.3 2 2 4.2 2 6.5 0 1.3-.2 2.6-.7 3.9-.4 1.2-1.1 2.4-1.9 3.5-.2.3-.5.4-.9.4zM29.2 35.2c-.4 0-.7-.2-.9-.5-1.2-1.6-1.8-3.4-1.8-5.2 0-1.6.5-3.1 1.4-4.6.4-.5 1.1-.7 1.6-.3.5.4.7 1.1.3 1.6-.7 1-1 2.1-1 3.3 0 1.3.5 2.5 1.4 3.7.4.5.3 1.3-.2 1.7-.3.2-.5.3-.8.3zM24.2 36.7c-.4 0-.7-.2-.9-.5-.8-1.1-1.5-2.3-1.9-3.5-.5-1.3-.7-2.6-.7-3.9 0-2.3.7-4.5 2-6.5.4-.5 1.1-.7 1.6-.3.5.4.7 1.1.3 1.6-1.1 1.7-1.6 3.4-1.6 5.2 0 2.1.7 4.1 2.1 5.9.4.5.3 1.3-.2 1.7-.2.2-.5.3-.7.3z"/></svg>