<svg width="64" height="63" viewBox="0 0 64 63" xmlns="http://www.w3.org/2000/svg" xmlns:xlink="http://www.w3.org/1999/xlink"><defs><path id="a" d="M.871.63H25.87v29.767H.871z"/></defs><g fill="none" fill-rule="evenodd"><path d="M61.389 31.183C61.389 14.513 47.869 1 31.196 1 14.519 1 1 14.514 1 31.183c0 16.67 13.519 30.184 30.196 30.184 16.674 0 30.193-13.514 30.193-30.184" fill="#FEFEFE"/><path d="M31.195 62.366C13.995 62.366 0 48.377 0 31.182c0-8.362 3.266-16.214 9.198-22.11a.997.997 0 011.414.003.999.999 0 01-.004 1.414C5.058 16.01 2 23.357 2 31.182c0 16.092 13.096 29.184 29.195 29.184 16.098 0 29.193-13.092 29.193-29.184C60.388 15.092 47.293 2 31.195 2a1 1 0 110-2c17.2 0 31.193 13.988 31.193 31.182 0 17.195-13.993 31.184-31.193 31.184" fill="#B5D0E7"/><path d="M35.343 30.297a4.147 4.147 0 00-4.147-4.146 4.147 4.147 0 104.147 4.146" fill="#FEFEFE"/><path d="M53.717 31.173c0-12.438-10.084-22.521-22.522-22.521-12.44 0-22.523 10.083-22.523 22.52 0 12.439 10.084 22.522 22.523 22.522 12.438 0 22.522-10.083 22.522-22.521" fill="#FEFEFE"/><path d="M31.194 9.651c-11.867 0-21.522 9.654-21.522 21.521 0 11.868 9.655 21.522 21.522 21.522 11.867 0 21.522-9.654 21.522-21.522 0-11.867-9.655-21.52-21.522-21.52m0 45.042c-12.97 0-23.522-10.552-23.522-23.522 0-12.969 10.551-23.52 23.522-23.52 12.971 0 23.522 10.551 23.522 23.52 0 12.97-10.55 23.522-23.522 23.522" fill="#B5D0E7"/><path d="M31.194 30.512l10.977-10.893c-3.13-2.928-6.407-4.735-11.033-4.735l.056 15.628z" fill="#ED2E26"/><path d="M30.523 32.269a.999.999 0 01-.707-1.707l11.648-11.65a.999.999 0 111.413 1.415L31.23 31.974a.997.997 0 01-.706.294" fill="#B5D0E7"/><path d="M34.288 30.512a3.093 3.093 0 10-6.187-.001 3.093 3.093 0 006.187 0" fill="#FEFEFE"/><path d="M31.195 28.418a2.097 2.097 0 00-2.095 2.094c0 1.154.94 2.093 2.095 2.093a2.095 2.095 0 002.093-2.093 2.096 2.096 0 00-2.093-2.094m0 6.187a4.099 4.099 0 01-4.095-4.093 4.1 4.1 0 014.095-4.094 4.098 4.098 0 014.093 4.094 4.097 4.097 0 01-4.093 4.093M31.194 12.673a1 1 0 01-1-1V8.652a1 1 0 112 0v3.02a1 1 0 01-1 1M31.194 54.694a1 1 0 01-1-1v-3.02a1 1 0 112 0v3.02a1 1 0 01-1 1M53.716 32.173h-3.021a1 1 0 110-2h3.02a1 1 0 110 2M11.694 32.173h-3.02a1 1 0 110-2h3.02a1 1 0 110 2M44.982 18.384a.999.999 0 01-.707-1.707l2.137-2.137a1 1 0 011.414 1.414L45.69 18.09a.997.997 0 01-.707.293M15.27 48.098a.999.999 0 01-.707-1.707l2.136-2.137a1 1 0 011.414 1.414l-2.136 2.137a.997.997 0 01-.707.293M47.12 48.098a.997.997 0 01-.708-.293l-2.137-2.137a1 1 0 011.414-1.414l2.137 2.137a.999.999 0 01-.707 1.707M17.406 18.384a.997.997 0 01-.707-.293l-2.137-2.137a1 1 0 011.414-1.414l2.137 2.137a.999.999 0 01-.707 1.707" fill="#B5D0E7"/><g transform="translate(38 31.366)"><mask id="b" fill="#fff"><use xlink:href="#a"/></mask><path d="M13.368.63c8.141 0 12.233 4.355 12.233 4.355s.468 3.224.17 9.715c-.452 9.806-12.4 15.696-12.4 15.697-.002 0-11.949-5.891-12.4-15.697-.299-6.491.168-9.715.168-9.715S5.23.63 13.37.63" fill="#ED2E26" mask="url(#b)"/></g><path d="M45.195 45.305c0-3.468 2.741-6.288 6.11-6.288a6.122 6.122 0 016.116 6.114c0 2.693-2.315 4.907-4.098 6.046.692.394 2.22.809 3.681.942a8.825 8.825 0 003.436-6.988c0-5.036-4.098-9.135-9.135-9.135s-9.134 4.099-9.134 9.135c0 3.042 1.266 5.745 3.663 7.817 2.24 1.935 5.517 3.228 9.25 3.839.807-.446 2.19-1.764 2.71-2.538-3.119-.4-6.068-1.16-8.044-2.197-3.023-1.586-4.555-3.855-4.555-6.747" fill="#FEFEFE"/><path d="M12.267 12.6l1.926-6.48a.413.413 0 00-.507-.515L7.17 7.41a.413.413 0 00-.183.687l4.589 4.675c.219.224.6.13.69-.172" fill="#B5D0E7"/></g></svg>