<svg xmlns="http://www.w3.org/2000/svg" viewBox="0 0 1145.7 1107.2"><path fill="#ffffff" d="M461.1 557.7c.1-60.3 49-109 109.2-109 60.4 0 109.4 49.2 109.1 109.5-.2 60.3-49.2 109-109.4 108.8-60.2-.2-109-49.2-108.9-109.3z"/><path fill="#ffffff" d="M407.7 533.6c-13.5-7.5-27.8-12.5-42.1-17.4-38.6-13.3-76.5-28.1-114.6-42.7-27.8-10.6-55.9-20.5-83.8-30.9-3.3-1.2-4.3.2-5.8 2.4-21.7 31.7-63.7 30-84.1 10.3-15.4-14.9-20.4-33.1-14.7-53.5 5.8-20.7 21.1-32 41.5-35.9 31.1-6 59.6 12.8 65.1 42.2 1 5.1.9 10.3.1 15.4-1 6.5-.2 8 5.7 10.2 21.5 8 43 16.2 64.6 24 53 19.1 105.7 39.1 158.4 59.1 9.8 3.7 19.7 7.1 29.6 10.5 2.9 1 4.1 2.2 3.2 5.3-1.1 4-.4 9.7-2.8 11.7-2.5 2-7.9.5-12 .4-69.6-2.6-139.1-6.2-208.7-10.4-30.1-1.8-60.2-3-90.3-4.5-7.2-.4-14.4-.5-21.4-1.6-10.5-1.6-17.5 1.7-23.3 11-13.8 22.2-45.5 24.9-62.3 5.7-9.3-10.4-12.5-22.7-8-35.8 4.9-14.3 16-22.2 30.4-25.3 18.1-3.8 36.2 6 42.7 24 2.7 7.6 6.6 9.7 14.2 10 33.8 1.3 67.5 3.7 101.3 4.9 47.4 1.7 94.8 4.7 142.1 7.1 25.1 1.2 50 2.5 75 3.8zM455.8 452.6c-18.7-37.2-37.4-74.4-56.2-111.5-40.9-80.8-80.5-162.3-122.9-242.4-.6-1.2-1.3-2.3-1.8-3.6-2.3-5.3-6-7.2-11.9-6.6-18.7 1.8-36.7-10.9-41.3-28.5-7-27.1 19.9-52.4 48-44.8 14.4 3.9 23.7 13 27.5 27.5 3.7 14.1-.2 26.2-10.6 35.9-3.7 3.5-3.5 5.8-1.4 9.9C347 209.5 408 331 468.7 452.5c2 4 2.2 6.5-1.4 9.8-4 3.6-7.3 8.1-11.1 12.5-21.4-26.8-42.6-53.4-63.7-80-44.4-56.2-88.8-112.4-133.1-168.7-2.6-3.3-4.7-3.9-8.6-2.6-17.5 5.7-36.6-.6-46.1-14.9-8.5-12.8-8.2-29.6.8-41.8 9-12.4 26-17.7 41.6-13.5 22.9 6.3 37.4 33.2 21.9 55.9-3.5 5.1-1.7 8.8 1.5 13 32.7 42.1 66.8 83.1 99.9 124.9 26.9 34 53.6 68.1 80.4 102.1 1.2 1.6 2.5 3.1 3.8 4.6.7.2 1.1.8 1.7 1.1-.2-.7-.1-1.6-.5-2.3z"/><path fill="#ffffff" d="M671.8 676.5c2.2 2.6 3.7 4.4 5.3 6.3 34.5 41.5 68.6 83.4 103.8 124.3 4.4 5.1 9.1 7.5 15.9 7.4 10.7-.3 18.5 5.6 20.8 14.6 2 8.1-1.9 18-8.9 22.2-8.4 5-19.1 3.9-26.3-3-5.7-5.4-6.9-12.1-5.2-19.3 1.2-5.4-.1-9.7-3.8-13.7-41.4-44.5-78.1-92.8-117-139.3-2.7-3.2-3.2-4.9.7-7.6 4.1-2.8 7.7-6.4 11.2-10 2-2 3.2-2.4 5.7-.5 36.8 28.4 73.6 56.7 109.9 85.9 35.4 28.5 71.8 55.8 107.7 83.7 7.1 5.5 14.4 10.8 21.3 16.6 6.2 5.2 11.8 5.6 19.1 1.7 24.4-13 54.3-2.4 65.1 22.6 13.2 30.6-11.8 63.7-46.1 60.8-25.4-2.1-43.7-22-43-45.4.1-4.4 1-8.6 2.3-12.7 2.5-8 1.8-10.2-4.8-15.5-33.1-26-66.1-52.4-99.5-78-42.5-32.5-85.1-64.7-127.1-97.8-2-1.3-3.7-2.8-7.1-3.3zM1145.7 665.4c0 29.3-19.5 51.5-46.5 55.3-27.7 3.9-53.4-12-60.7-37.5-1.2-4.4-1.8-8.8-1.6-13.3.2-4.7-1.7-7.3-6.6-8.3-36-7.5-71.9-15.5-108-22.8-71-14.3-141.3-31.6-211.4-49.6-5.5-1.4-2.8-4.5-2.7-7.2.2-3.8 2.9-2.3 4.8-1.8 49.4 11.7 98.8 23.5 148.2 35 39.4 9.2 79.3 16.2 118.8 24.6 16.6 3.5 33.2 7.4 49.7 11 7.8 1.7 8.7 1.2 12.7-5.7 10.6-18.4 26.8-28.3 47.8-28.5 20.6-.3 37 8.7 48.2 26.2 5 7.4 7.2 15.9 7.3 22.6z"/><path fill="#ffffff" d="M639.5 702c11.5 35.1 23 70.2 34.7 105.3 16.2 49 32.6 97.9 48.8 146.9 2.1 6.3 5.6 11 11.1 14.8 7 4.7 8.9 12.9 5.3 19.3-4.1 7.1-12.6 9.9-20.4 6.6-6.3-2.7-10-10.1-7.7-17.6 2.4-7.7 1.3-14.6-1.1-21.9-28.7-86.9-57.2-173.9-85.9-260.9-1.3-3.9-1.3-5.9 3-7.4 3.6-1.2 7-3.1 10.2-5.3 3.3-2.3 4.8-1.5 6.7 1.8 18.1 31.5 36.7 62.7 54.6 94.2 18.9 33.3 37.6 66.7 57.2 99.6 1.8 3.1 3.3 4.5 7.3 3.7 7-1.4 14.3-1.4 21.4 0 17 3.3 29.8 15.6 33 32.2 3.2 17-2.1 31-16.2 41.2-13.7 10-33.4 10.1-48.1.8-19.1-12.1-24.8-30.9-15.4-51.5 2.2-4.9 4.9-9.5 8.1-13.8 1.5-2 1.8-3.4.5-5.7L641 700.7c-.7-.5-1.1-1.2-1.6-1.8-.6-.3.2-.6-.2-.1 0 0 .1.1.2.4.1.3.2.4.2.4-.1.8-.4 1.6-.1 2.4z"/><path fill="#ffffff" d="M406.5 50.5c.1-24.3 17.6-42.6 42.5-44.3 23.2-1.6 44.6 15.9 47.7 38.8 1.6 11.8-2.4 21.6-10.1 30.2-5 5.6-10.9 10.4-17.3 14.3-2.3 1.4-3.1 2.9-2.5 5.6 14.7 71.6 29 143.3 44.1 214.8 7.6 36 15.3 72 22.6 108 .3 1.5 2.2 3.7-.5 4.7-3.1 1.1-6.3 2.2-9.5 2.4-1.1.1-1.1-2.9-1.4-4.5-7.1-34.7-14-69.5-21.2-104.2-14.8-71.3-29.9-142.6-44.5-214-1.4-7-3.9-9.9-11-10.7-7.4-.8-14.4-3.9-20.8-8-11.9-7.9-18.1-18.8-18.1-33.1z"/><path fill="#ffffff" d="M352.5 1066.3c.4-23.3 17.8-40.3 41.2-41.5 10-.5 10.1-.6 13.3-10.1 19.7-58.4 39.8-116.6 58.9-175.1 15.9-48.7 32.9-97.1 48.9-145.8.6-1.9.4-5.4 4.2-3.2 2.5 1.5 7.5.3 5.5 6.7-15 46.9-31.5 93.4-47.1 140.1-20.5 61.4-40.8 122.9-61.4 184.3-1.6 4.7-.7 6.8 3.3 9.5 17.2 11.6 23.6 30.1 17.1 48.3-6.1 17-24.7 29-42.8 27.6-20.8-1.6-36.8-15.3-40.5-34.7-.4-2.4-.5-5-.6-6.1z"/><path fill="#ffffff" d="M71.4 592.6c9.5.1 22.5 7.7 30.7 23.1 3.9 7.3 5.2 7.8 13.6 6.5 55.3-8.8 110.7-16.4 166.1-24.4 46.8-6.8 93.6-13.7 140.4-20.5 6.9-1 8.9 1 8.4 8.1-.2 2.4-2 1.9-3.2 2.1-25.2 3.8-50.4 7.5-75.6 11.3-72.9 11.1-146 21.4-219.1 31.7-7.1 1-14.2 2.1-21.3 2.9-2.6.3-3.8 1.3-4.4 3.8-.9 3.7-2.1 7.4-3.4 11-7.2 19.2-28.5 30.1-49.8 25.6-20.4-4.3-34.2-22.1-33.2-42.7 1.2-21.4 20.4-38.6 50.8-38.5z"/><path fill="#ffffff" d="M727.1 70.4c-8.6-.1-9.7.8-12.2 9.2-21.1 71.9-44.4 143.1-67.5 214.3-13.5 41.5-25.7 83.3-38.5 125-.5 1.5-.2 4-2.2 3.9-2.7-.2-5.6-1-8-2.3-1.1-.6.2-2.7.6-4 10.2-35 20.6-69.9 30.7-104.9 22.2-76.3 46.3-151.9 72.4-226.9.6-1.7.9-3.5 1.5-5.3 2.6-7.7 2.5-13.3-5.6-19.1-11.4-8.1-13.6-21.1-10.3-34.3 3.3-13.3 12.6-21.2 25.7-24.7 17.5-4.7 35.3 3.5 43.2 19.6 7.2 14.6 3.2 32.2-9.9 42.8-5.8 4.7-12.4 7-19.9 6.7zM159.6 891c-11.6-.4-23.7-6.1-31-19.4-6.8-12.4-6.5-25 .9-37.1 11.1-18.3 37.9-23.8 55.4-11.1 6 4.4 10.6 4.1 16.6.3 55.9-34.3 111.7-68.8 167.7-103 32-19.5 63.1-40.3 94.7-60.6 1.6-1 3.3-3.4 5.1-2.4 2.7 1.6 5.1 3.9 6.9 6.4 1.4 1.9-1.3 2.2-2.3 2.9-13 8.4-26.1 16.6-39.2 24.9-54.8 34.8-109.5 69.9-165.4 102.9-20.6 12.2-40.1 26.3-61.1 37.8-7.1 3.9-8.8 6.7-6.8 14.3 5 19.6-11.4 44.3-41.5 44.1z"/><path fill="#ffffff" d="M962.1 728.9c-.4 22.1-17.8 39.4-40.7 40.6-21.8 1.2-41.5-14.7-44.3-35.8-.4-2.8-.3-5.6.1-8.5.9-6.6 0-8.1-6.6-11-31.6-14.1-63.2-28.3-95.2-41.4-28.2-11.5-55.8-24.3-83.7-36.6-3-1.3-4.1-2.2-2-5.5 4.3-6.6 4.1-6.7 11.5-3.6 59.4 25.2 118 52.5 177.7 77.1 3.3 1.3 5.1 1 7.6-1.5 20.3-20.6 46.5-20.2 66.4 1 6.8 7.1 9.2 15.7 9.2 25.2zM376 106.4c17-.1 31.7 9.6 37.2 24.3 5.5 14.7 1.4 30.6-11.9 41.3-4.8 3.9-4.7 6.8-2.7 11.9 20.8 53 40.8 106.3 62.3 159 12.2 29.7 23.7 59.7 36 89.3 1.5 3.7 1.7 6.1-2.5 7.6-.9.3-1.8 1-2.5 1.6-2.7 2.4-4 1.9-5.4-1.7-9.3-24.4-18.8-48.8-28.4-73.1-22.8-58.1-45.8-116.1-68.6-174.2-2.9-7.3-7-11.9-15.6-12.1-20.5-.5-36.1-16.3-36.4-36.2-.3-19.7 15-36.1 35.3-37.6 1.2 0 2.4-.1 3.2-.1z"/><path fill="#ffffff" d="M204.2 280.5c24.1-.1 41 18.7 38.5 42.7-.2 1.9-.8 3.9-1.6 5.7-2.3 4.7-1.1 8.1 3.2 11.1 24.6 17.2 48.5 35.2 72.3 53.5 41.5 31.8 85.2 60.6 126.9 92.2 1.3 1 4.1 1.6 3.2 3.8-1.3 3.4-3.2 6.6-5.3 9.6-.6.8-1.9-.8-2.8-1.4-29.5-22.1-59.3-43.7-88.5-66-32.1-24.4-64.7-48.1-97-72.1-3.9-2.9-7.7-5.8-11.7-8.6-6.4-4.5-13.4-5.2-19.7-.8-15.2 10.7-32.6 4.1-43.5-5.5-11.9-10.5-15.7-25-10.1-39.9 5.5-14.8 19.5-24.2 36.1-24.3z"/><path fill="#ffffff" d="M515.9 1028.2c-19.7 0-36.8-15-38.9-34-2-18 10.6-34.3 30.2-38.8 5.2-1.2 7-4.5 7.5-9.2 2.3-22.9 4.1-45.8 7-68.6 4.7-35.6 7.4-71.5 11.6-107.2 2.6-22.8 4.9-45.7 7.4-68.5.2-2.1-.3-5.5 3.5-4 2.7 1.1 8.3-2 7.6 4.7-5.2 46.8-7.3 94-14.4 140.6-5.2 34.3-8 68.7-10.9 103.2-.5 5.6 1.5 8.9 6.6 11.4 16.8 8.2 24.5 24.2 20.4 41.7-4 16.8-19.5 28.7-37.6 28.7zM368.8 886.2c1.2.1 3.6-.1 5.8.5 4.8 1.5 7.1-.3 9.6-4.6 21-36.3 43-72.1 63.5-108.7 16.4-29.4 33.2-58.4 50.5-87.3.8-1.4 1.2-4.3 3.4-3.6 2.9.9 5.8 2.6 8.2 4.5 1 .8-.8 2.6-1.4 3.9-13.8 26.1-29.9 50.8-44.3 76.5-15.9 28.3-32.2 56.4-48.3 84.5-6.2 10.8-12.5 21.6-18.9 32.4-3.4 5.8-3.5 11.3.9 16.6 12.4 14.7 10.4 32.5 1 44.6-11 14.3-29.2 19.2-46.2 12.6-17.5-6.8-27.4-24.1-23.9-41.9 3.5-17.5 19.9-30.3 40.1-30z"/><path fill="#ffffff" d="M961.6 200.5c16.5 0 31.4 10.3 36.2 25 4.5 13.8-.8 29.8-12.9 38.6-7.9 5.8-16.9 7.6-26.5 6.2-2.3-.3-4.8-.5-6.8-1.5-11.6-5.7-19.8-1.4-28.9 6.7-31.7 27.8-64.3 54.5-96.4 81.8-46 39-91.8 78.2-137.8 117.3-3.9 3.3-7.8 2.1-9-2.8-.5-1.9 1.3-2.5 2.3-3.3 11.2-9.8 22.3-19.6 33.6-29.2 69.5-59 139-118 208.6-176.8 4.9-4.2 6.4-8.3 4.5-14.3-2.2-7.1-2.9-14.4-1.3-21.7 3.3-15.2 17.9-26 34.4-26zM838.8 558.4c40.3 0 80.7-.1 121 .1 7.1 0 11.2-2.2 14-9.1 5.9-14.6 17.7-21.9 33.1-22.4 15.7-.5 29.1 5.2 36.6 19.7 6.7 12.9 4.7 26.1-2.6 38.1-7.5 12.3-19.6 16.6-33.4 16.3-16-.4-27.4-8.7-34.7-22.5-3.2-6-7.3-8.6-14.2-8.9-30.1-1.3-60.3-1.5-90.5-1.5H714.6c-2.2 0-5.5 1.2-4.8-3.3.5-3.1-1.2-6.8 4.9-6.8 41.3.3 82.7.1 124 .1l.1.2zM1093.7 401.1c-.7 10.8-6.9 20.2-18.6 25.3-12.6 5.4-24.7 4.3-35.6-4.8-.5-.4-1.1-.8-1.4-1.4-3.9-7.4-9.3-6.1-16-3.8-90.6 31.2-181.3 62.3-272 93.3-13.4 4.6-26.9 8.8-40.3 13.2-2.1.7-4.6 2.3-5.1-1.8-.3-2.8-3.7-5.7 2.1-7.6 48.5-16.1 97.1-31.8 145.3-48.7 56.2-19.7 112.7-38.6 169.1-57.7 5-1.7 7.6-4.3 7.8-10 .7-17.6 15.1-30.4 32.8-30 17.6.4 32 14.8 31.9 34zM564.6 335.3c.6-25 1.1-50 2-74.9.3-8.7-2.6-14.4-10.8-18.1-16.1-7.3-23.8-22.2-20.7-38.6 3.4-17.7 16.1-29.2 33.9-30.7 21.8-1.8 38.5 10.3 42.9 30.5 3.4 15.7-9.3 39.8-27 41.1-6.1.5-7.9 3.3-8 10.5-.4 17.3-.6 34.6-1 52-.7 35.5-1.4 71-2.1 106.4 0 1.5 1 3.9-1.2 4.3-3.1.4-6.3.3-9.3-.3-1.2-.3-.5-2.7-.4-4.2.6-26 1.3-52 1.9-77.9 0-.1-.1-.1-.2-.1zM31.4 751C16 750.8 7 741.5 8.2 728.3c1.4-14.5 13.3-22.5 27.6-18.4 1.6.5 3.4.8 4.6 1.9 8.3 7.8 17.3 5.5 27 2.9 123-32.3 246-64.4 369-96.6 3.8-1 9.4 3.9 9.1 8-.2 2.4-2.6 1.7-4 2-24.8 6.6-49.6 13.1-74.4 19.6-100.3 26.4-200.5 52.8-300.8 79.1-8.4 2.2-14.7 5.5-18 14.5-2.9 7.9-10.5 9.7-16.9 9.7zM824.1 163.9c-5.5-1.7-9.2 1.3-12.6 6.5-16.7 25.5-32.1 51.8-48 77.8-1.1 1.8-1.5 4.6-4.6 4.6-.8 0-1.3.7-1.1 1.4 1 4.2-2.1 6.8-3.9 9.9-27.4 46.8-56.2 92.8-85 138.9-7.1 11.4-14.6 22.7-21.3 34.3-1.8 3.2-3.2 3-6.1 1.3-3.1-1.8-3-3.3-1.3-6.1 53.5-87.2 107-174.5 160.4-261.8 1.4-2.3 2.8-4.5 4.1-6.9 3.1-6 2.4-8.9-2.2-13.9-6.3-6.9-6.4-15.2-4.1-23.5 4.2-15.7 20.4-25 36.8-21.5 15.9 3.4 26.6 18.1 24.3 33.4-2.5 16.2-16.9 26.9-35.4 25.6z"/><path fill="#ffffff" d="M802.2 243.8c13.9.7 24.7 6.6 30.9 19.3 5.9 12 4.4 23.9-3.9 34.2-9.2 11.5-21.8 15.4-35.8 11.8-6.9-1.7-10.3.3-14.1 5.4-23.3 31.2-46.6 62.4-70.6 93.1-12.6 16.1-25.9 31.7-38.2 48.1-2.1 2.8-3.3 2.6-5.6.3-4.9-4.8-5.1-4.6-1-9.9 34.9-45 70-89.9 104.4-135.3 5.2-6.9 6.8-12.3 2-20.6-10.1-17.4 2.1-40.8 22.9-45.6 3-.4 5.9-1 9-.8zM593.3 872.7c.6 55.6 1.6 111.3 1.2 166.9 0 3 .1 4.6 3.8 6 5.8 2.2 11.2 5.8 15.8 10.3 12.6 12.3 8.2 34.2-8.6 42.9-10.8 5.6-24 4-33.6-4.1-8.7-7.4-11.9-18.9-8.3-30.4 2.2-7.1 6.6-12.1 13.8-14.6 7.4-2.5 9-4.8 8.9-12.4-.2-33 .7-66-1-98.9-2.1-41.1-.5-82.3-2-123.3-1.1-31.8-.4-63.6-1.4-95.4-.2-5.6-1.5-11.1-1.4-16.8 0-5.9 4.5-3.5 7.1-4.2 3.9-1 2.7 2.3 2.8 4.1 1 56.7 2 113.3 2.9 169.9zM621.7 689.7c1.6 13.8 3.2 27.3 4.9 40.8 4.8 39.4 9.9 78.7 14.5 118 4.4 37.7 8.4 75.5 12.6 113.2.4 3.1.7 6.3 1.2 9.4.7 4.3 3.5 7.2 7.5 8.6 11.9 4 18.7 12.9 18.5 24.7-.2 11.1-8.2 21.2-19.5 24.5-12.9 3.7-26.2-1.7-32-13-6-11.5-3.1-24.5 8-32.9 6-4.5 7-10.1 6.1-16.7-2.8-22-5.5-43.9-8.2-65.9l-15.6-129c-2.8-23-5.5-46-8.3-69-1.1-8.5-1.2-8.5 6.6-11.5 1-.3 2.1-.7 3.7-1.2zM1026.2 327.7c-10.2-4-19.4 2.3-28.9 7.6-98.7 54.1-198.9 105.3-298.4 157.8-1.4.7-3.1 3.1-4.7 1.2-1.8-2.1-3.2-4.7-3.9-7.4-.4-1.3 2.1-1.8 3.4-2.4 34.4-18.2 68.8-36.5 103.3-54.7 68.7-36.1 136.4-73.9 204.8-110.4 5.1-2.7 7.5-6.6 7.5-12.4 0-8.1 3.9-14.2 11.6-17 8.2-3 16.3-2.3 22.8 4 5.9 5.7 7.4 13 5 20.7-2.5 8.3-10.5 13.2-22.5 13zM978.1 518.1c-9.8.2-17.3-4.3-23-12-1.7-2.3-3.5-3.1-6.2-2.9-11 .7-21.6 3.8-32.4 6.1-67.4 13.8-135 26.4-202.5 39.5-3.5.7-4.8-.1-4.6-3.6.1-1-.2-2-.4-3-.9-3.3.3-4.6 3.7-5.3 22.9-4.3 45.8-8.8 68.7-13.3 54-10.4 107.9-20.8 161.9-31.2 4.9-1 7-4.6 8.5-8.8 6.8-19.3 30.4-25.4 45.8-11.9 8.3 7.3 11 18.1 7 28.7-4.3 11.1-14 17.6-26.5 17.7zM737.7 152.3c16.9 0 30.5 12.6 30.8 27 .4 15.4-11.6 28-27.5 28.4-6.8.2-11.8 2.3-14.6 9-27.6 63.7-59.5 125.5-88.2 188.6-3.3 7.3-6.9 14.5-9.7 21.9-1.6 4.3-3.7 2.1-6.1 1.5-3.2-.9-3-2.5-1.8-5.1 19.3-44.3 39.9-87.9 60.6-131.5 12.4-26.2 24.8-52.4 37.4-78.4 3.1-6.3 3.1-11.1-2-16.6-7.7-8.3-8-18.5-3.5-28.5 5.1-11.3 14.9-15.5 24.6-16.3zM208.3 787.7c-10.9.1-19.9-5.7-23.6-15.2-3.6-9.2-.9-19.6 6.8-26.3 8.1-7 19.3-8.8 28.2-2.8 6.6 4.5 11.8 3.6 18.3.4 34.6-16.8 69.6-32.6 103.9-50.1 23-11.7 46.1-23 69.3-34.4 13.1-6.5 26.6-12.1 39.9-18.3 2.2-1 3.4-.9 4.9 1.2 4.7 6.3 4.9 6.2-2 9.4-30.2 13.9-59.5 29.9-89.7 43.8-41.1 18.9-81.5 39.4-122.2 59.1-5.5 2.7-8.4 6.4-9.5 12.3-2.4 13.1-11.7 20.8-24.3 20.9zM327 876.7c-15.4 0-28.9-13.6-27.7-28.1 1.2-15.8 15.8-27.2 31.6-24.3 6.6 1.2 10.9-.8 15.2-5.8 42.8-49.7 84.5-100.4 129.1-148.7 1.1-1.2 1.9-4 4-2.8 2.7 1.5 5.2 3.7 7.2 6 .7.8-1.5 2.3-2.4 3.4-29.5 33.5-58.9 67.1-88.4 100.6-14.5 16.5-28.3 33.7-42 50.9-1.9 2.4-2.7 4.8-2.4 7.8.5 4.3.9 8.6 1.3 12.9 1.6 16.5-8.9 28.1-25.5 28.1z"/><path fill="#ffffff" d="M455.8 452.6c1.4 1.7 2.7 3.5 2.9 6.3-2-1.6-3.3-3.1-4.1-5.1l1.2-1.2z"/><path fill="#ffffff" d="M639.5 702c-.3-.7-.6-1.4-1-2-.2-.9-.9-2.1 1-2.1.4 1 .8 1.9 1.3 2.9-.4.3-.9.7-1.3 1.2z"/><path fill="#ffffff" d="M639.5 697.8c-.9.4-.8 1.3-1 2.1-.3-.6-.8-1.1-.8-1.7-.1-.8-1.5-1.9-.3-2.4 1.4-.5 1.7 1 2.1 2z"/></svg>