<svg xmlns="http://www.w3.org/2000/svg" xmlns:xlink="http://www.w3.org/1999/xlink" width="83" height="51"><defs><path id="a" d="M0 .268h83V51H0z"/></defs><g fill="none" fill-rule="evenodd"><mask id="b" fill="#fff"><use xlink:href="#a"/></mask><path fill="#B5D0E7" d="M30.907 2.696c-10.24 0-18.57 8.288-18.57 18.475a2.96 2.96 0 0 1 .046.42 1.215 1.215 0 0 1-.919 1.207c-5.313 1.348-9.023 6.077-9.023 11.5l.003.045c.005.063.01.126.01.19 0 .103-.004.168-.009.233l-.004.07c0 .028.003.056.004.083a3.627 3.627 0 0 1 .007.21c0 .057-.004.115-.008.172-.003 7.332 5.967 13.27 13.304 13.27h51.504c7.338 0 13.307-5.938 13.307-13.237 0-7.3-5.97-13.238-13.307-13.238-.536 0-1.106.043-1.79.135a1.223 1.223 0 0 1-1.326-.832 10.012 10.012 0 0 0-9.562-6.95c-1.605 0-3.15.373-4.589 1.11a1.22 1.22 0 0 1-1.706-.665C45.614 7.598 38.633 2.696 30.907 2.696M67.252 51H15.748C7.064 51 0 43.972 0 35.334c0-.07.004-.138.009-.207l-.001-.069A4.012 4.012 0 0 1 0 34.836c0-.079.004-.155.01-.232l.003-.07-.003-.01a2.95 2.95 0 0 1-.01-.227c0-6.2 4.023-11.648 9.9-13.574C10.14 9.403 19.471.268 30.907.268c8.314 0 15.863 5.006 19.181 12.585a12.367 12.367 0 0 1 4.486-.833c5.107 0 9.626 3.054 11.542 7.696.398-.033.77-.049 1.136-.049C75.936 19.667 83 26.695 83 35.334 83 43.972 75.936 51 67.252 51" mask="url(#b)"/><path fill="#1D2737" d="M21 28l4.875-6h29.25L60 28zM21 30h39v11h-8.531v-1.833H29.531V41H21z"/><path fill="#FFF" d="M37 35c0-1.657 1.567-3 3.5-3s3.5 1.343 3.5 3-1.567 3-3.5 3-3.5-1.343-3.5-3"/></g></svg>