
<svg width="72px" height="72px" viewBox="0 0 72 72" version="1.1" xmlns="http://www.w3.org/2000/svg" xmlns:xlink="http://www.w3.org/1999/xlink">
    <!-- Generator: Sketch 44.1 (41455) - http://www.bohemiancoding.com/sketch -->
    <desc>Created with Sketch.</desc>
    <defs></defs>
    <g id="12.1-13-App-detail" stroke="none" stroke-width="1" fill="none" fill-rule="evenodd">
        <g id="12.9-App-Detail---WAS" transform="translate(-736.000000, -1402.000000)">
            <g id="---Features-overview" transform="translate(185.000000, 1290.000000)">
                <g id="::-02" transform="translate(550.000000, 113.000000)">
                    <g id="icon" transform="translate(2.000000, 0.000000)">
                        <polyline id="Stroke-1" stroke="#B5D0E7" stroke-width="2" stroke-linecap="round" stroke-linejoin="round" points="13.5483871 0 0 0 0 13.5483871"></polyline>
                        <polyline id="Stroke-3" stroke="#B5D0E7" stroke-width="2" stroke-linecap="round" stroke-linejoin="round" points="56.4516129 0 70 0 70 13.5483871"></polyline>
                        <polyline id="Stroke-5" stroke="#B5D0E7" stroke-width="2" stroke-linecap="round" stroke-linejoin="round" points="13.5483871 70 0 70 0 56.4516129"></polyline>
                        <polyline id="Stroke-7" stroke="#B5D0E7" stroke-width="2" stroke-linecap="round" stroke-linejoin="round" points="56.4516129 70 70 70 70 56.4516129"></polyline>
                        <path d="M51.6069355,48.6057419 L50.4733871,54.7894516 C46.8503226,57.6684839 42.4109677,59.5494516 37.5629032,60.018 C37.1982258,59.2378387 36.7025806,58.5310645 36.1019355,57.9315484 C35.2709677,57.1073548 34.2435484,56.4886452 33.0919355,56.1521935 C32.2124194,55.8959032 31.4390323,55.4138065 30.8259677,54.7713871 C30.2196774,54.1278387 29.7669355,53.3284839 29.5445161,52.4365484 C28.8445161,49.5936452 30.0209677,46.6186452 32.4732258,45.0515484 L32.6956452,44.9126774 C33.6429032,44.3007419 33.6869355,42.9142903 32.7769355,42.2526774 L27.6308065,38.5042903 C24.7687097,36.4246129 22.2487097,33.9012258 20.161129,31.0334839 L18.9541935,29.3715484 C17.4695161,27.328 16.6712903,24.8610645 16.6712903,22.3309032 L16.6712903,18.5328387 C21.2032258,13.398 27.8114516,10.1633226 35.1614516,10.1633226 C39.5996774,10.1633226 43.7680645,11.3431613 47.3775806,13.4104194 C46.2203226,15.0904194 44.6656452,16.4712258 42.8445161,17.421871 C42.033871,17.8452581 41.3767742,18.3702581 41.161129,19.1628387 C41.0120968,19.7138065 40.9454839,20.2749355 40.9454839,20.8315484 C40.9454839,22.1807419 41.3666129,23.511871 42.175,24.6239677 C42.4425806,24.9863871 42.6593548,25.3792903 42.8264516,25.7913871 L43.5004839,27.4476774 C43.5693548,27.609129 43.5941935,27.7717097 43.5941935,27.9342903 C43.5941935,28.4525161 43.2848387,28.9470323 42.771129,29.148 C42.2743548,29.3399355 41.7053226,29.2021935 41.3530645,28.8025161 L39.9835484,27.2534839 C39.5003226,26.7171935 38.9437097,26.2542903 38.325,25.891871 L36.61,24.8734839 C35.3579032,24.1294516 33.9037097,23.8054194 32.4608065,23.9488065 L30.6645161,24.1181613 C29.8482258,24.1994516 29.0658065,24.4794516 28.3974194,24.9186452 C27.7233871,25.3544516 27.161129,25.9550968 26.7512903,26.6731613 C25.9767742,28.0336452 25.866129,29.6763871 26.4554839,31.1317097 L26.7772581,31.9265484 C27.0245161,32.5452581 27.7798387,32.7631613 28.3183871,32.3826774 L29.5998387,31.4828387 C30.1022581,31.1283226 30.7582258,31.0899355 31.2967742,31.388 L32.8570968,32.2573548 C33.3087097,32.508 33.6124194,32.9573548 33.6801613,33.4699355 L34.0154839,36.111871 C34.2379032,37.8550968 35.0609677,39.4650968 36.3367742,40.6652581 L36.9125806,41.2026774 C37.6746774,41.9150968 38.7709677,42.1217097 39.7295161,41.7344516 L40.4487097,41.4397742 C41.9853226,40.8210645 43.7240323,40.978 45.1296774,41.8586452 L49.9777419,44.8946129 C51.2298387,45.6747742 51.871129,47.1492903 51.6069355,48.6057419 Z" id="Stroke-9" stroke="#B5CFE5" stroke-width="2" stroke-linecap="round" stroke-linejoin="round"></path>
                        <path d="M10.3928548,35.1488065 C10.3928548,21.3486452 21.4822097,10.1610645 35.1604355,10.1610645 C48.8397903,10.1610645 59.9291452,21.3486452 59.9291452,35.1488065 C59.9291452,48.9500968 48.8397903,60.1365484 35.1604355,60.1365484 C21.4822097,60.1365484 10.3928548,48.9500968 10.3928548,35.1488065 Z" id="Stroke-11" stroke="#B5CFE5" stroke-width="2" stroke-linecap="round" stroke-linejoin="round"></path>
                        <path d="M2.25806452,33.8709677 L67.7419355,33.8709677 C68.3662903,33.8709677 68.8709677,34.3756452 68.8709677,35 C68.8709677,35.6243548 68.3662903,36.1290323 67.7419355,36.1290323 L2.25806452,36.1290323 C1.63370968,36.1290323 1.12903226,35.6243548 1.12903226,35 C1.12903226,34.3756452 1.63370968,33.8709677 2.25806452,33.8709677" id="Fill-13" fill="#EC3027"></path>
                    </g>
                </g>
            </g>
        </g>
    </g>
</svg>