<svg xmlns="http://www.w3.org/2000/svg" width="63" height="63"><g fill="none" fill-rule="evenodd"><path fill="#B5CFE5" d="M2 27.57h25.57V2H2v25.57zm26.57 2H1a1 1 0 0 1-1-1V1a1 1 0 0 1 1-1h27.57a1 1 0 0 1 1 1v27.57a1 1 0 0 1-1 1z"/><path fill="#B5CFE5" d="M14.785 32.07a1 1 0 0 1-1-1v-2.5a1 1 0 1 1 2 0v2.5a1 1 0 0 1-1 1m0 8.854a1 1 0 0 1-1-1v-2.951a1 1 0 1 1 2 0v2.95a1 1 0 0 1-1 1m2.5 8.402h-2.5a1 1 0 0 1-1-1v-2.5a1 1 0 1 1 2 0v1.5h1.5a1 1 0 1 1 0 2m8.482 0H22.94a1 1 0 1 1 0-2h2.827a1 1 0 1 1 0 2m8.153 0h-2.5a1 1 0 1 1 0-2h2.5a1 1 0 1 1 0 2"/><path fill="#ED2E26" d="M14.783 3.66c6.085 0 9.145 3.256 9.145 3.256s.35 2.41.126 7.262c-.337 7.33-9.268 11.731-9.269 11.732 0 0-8.932-4.402-9.269-11.732-.223-4.852.126-7.262.126-7.262S8.7 3.66 14.783 3.66"/><path fill="#FEFEFE" d="M10.218 13.296c0-2.592 2.049-4.7 4.567-4.7a4.575 4.575 0 0 1 4.57 4.57c0 2.013-1.73 3.668-3.062 4.519.518.295 1.658.604 2.75.705a6.597 6.597 0 0 0 2.57-5.224c0-3.765-3.063-6.828-6.828-6.828a6.836 6.836 0 0 0-6.828 6.828c0 2.275.947 4.295 2.738 5.843 1.675 1.447 4.125 2.413 6.914 2.87.604-.334 1.637-1.32 2.025-1.897-2.33-.3-4.534-.868-6.012-1.643-2.258-1.185-3.404-2.882-3.404-5.043"/><path fill="#ED2E26" d="M33.92 61.491h27.57V33.92H33.92z"/><path fill="#ED2E26" d="M34.92 60.491h25.57v-25.57H34.92v25.57zm26.57 2H33.92a1 1 0 0 1-1-1v-27.57a1 1 0 0 1 1-1h27.57a1 1 0 0 1 1 1v27.57a1 1 0 0 1-1 1z"/><path fill="#FFF" d="M47.695 53.826c.748 0 1.493.176 2.166.521a4.729 4.729 0 0 1 3.49-2.536 4.727 4.727 0 0 1 1.335-4.102 4.736 4.736 0 0 1-1.33-4.104 4.727 4.727 0 0 1-3.493-2.538 4.733 4.733 0 0 1-4.314 0 4.721 4.721 0 0 1-3.49 2.534 4.726 4.726 0 0 1-1.337 4.103 4.726 4.726 0 0 1 1.334 4.104 4.737 4.737 0 0 1 3.49 2.537 4.677 4.677 0 0 1 2.15-.519m-2.786 3.617a1.134 1.134 0 0 1-1.132-1.091 2.435 2.435 0 0 0-2.423-2.329l-.055.001c-.207.004-.41.034-.604.09a1.138 1.138 0 0 1-1.228-.425 1.136 1.136 0 0 1-.023-1.299 2.429 2.429 0 0 0-1.18-3.62 1.134 1.134 0 0 1 .003-2.128 2.431 2.431 0 0 0 1.175-3.623 1.135 1.135 0 0 1 1.253-1.72 2.425 2.425 0 0 0 3.082-2.242 1.133 1.133 0 0 1 2.024-.654 2.432 2.432 0 0 0 3.372.428c.164-.125.31-.268.431-.425a1.135 1.135 0 1 1 2.028.654c.05 1.316 1.144 2.412 2.475 2.328.208-.004.411-.034.606-.089.46-.128.948.04 1.227.423.28.386.29.903.025 1.298a2.436 2.436 0 0 0 .634 3.343c.164.112.347.207.544.28a1.133 1.133 0 0 1-.003 2.127 2.434 2.434 0 0 0-1.449 3.077c.068.194.16.375.272.542a1.133 1.133 0 0 1-1.25 1.724 2.44 2.44 0 0 0-2.98 1.638c-.06.197-.094.4-.1.604a1.135 1.135 0 1 1-2.025.655 2.428 2.428 0 0 0-3.373-.428 2.36 2.36 0 0 0-.435.43 1.135 1.135 0 0 1-.89.431"/><path fill="#FFF" d="M47.705 46.572a1.135 1.135 0 1 0 1.134 1.134c0-.625-.509-1.134-1.134-1.134m0 4.535a3.404 3.404 0 0 1-3.4-3.4 3.405 3.405 0 0 1 3.4-3.403 3.405 3.405 0 0 1 3.401 3.402 3.404 3.404 0 0 1-3.4 3.401"/></g></svg>