<svg xmlns="http://www.w3.org/2000/svg" xmlns:xlink="http://www.w3.org/1999/xlink" width="60" height="49"><defs><path id="a" d="M0 .718h59.056v8.805H0z"/><path id="c" d="M.795.322H31.84v31.044H.795z"/></defs><g fill="none" fill-rule="evenodd"><path fill="#FEFEFE" d="M8.431 9.19l42.856-.192a2.856 2.856 0 0 1 2.87 2.844l.145 32.381-48.57.218-.145-32.38A2.856 2.856 0 0 1 8.431 9.19"/><path fill="#B5D0E7" d="M8.436 10.142c-.51.003-.987.203-1.345.564a1.891 1.891 0 0 0-.552 1.35l.14 31.428 46.666-.208-.14-31.429a1.888 1.888 0 0 0-.564-1.345 1.89 1.89 0 0 0-1.34-.551h-.01l-42.855.191zM5.732 45.394a.956.956 0 0 1-.953-.948l-.144-32.38a3.782 3.782 0 0 1 1.103-2.7 3.786 3.786 0 0 1 2.688-1.128l42.856-.192h.02c1.01 0 1.961.392 2.68 1.103a3.782 3.782 0 0 1 1.128 2.69l.145 32.38a.952.952 0 0 1-.948.957l-48.57.218h-.005z"/><path fill="#B5D0E7" d="M5.698 37.774a.952.952 0 0 1-.005-1.904l48.57-.218h.005a.953.953 0 0 1 .005 1.904l-48.57.218h-.005z"/><path fill="#FEFEFE" d="M34.286 40.503l.013 2.857-9.524.043-.013-2.857-23.81.107.009 1.845a4.82 4.82 0 0 0 4.843 4.8l47.5-.214a4.82 4.82 0 0 0 4.8-4.842l-.009-1.846-23.81.107z"/><g transform="translate(0 38.726)"><mask id="b" fill="#fff"><use xlink:href="#a"/></mask><path fill="#B5D0E7" d="M1.91 2.875l.003.892A3.844 3.844 0 0 0 3.06 6.5a3.841 3.841 0 0 0 2.722 1.12h.018l47.5-.213a3.874 3.874 0 0 0 3.852-3.885l-.003-.894-21.905.098.008 1.905a.955.955 0 0 1-.947.957l-9.524.043h-.005a.953.953 0 0 1-.952-.948l-.009-1.905-21.905.098zm3.87 6.648a5.737 5.737 0 0 1-4.062-1.671 5.737 5.737 0 0 1-1.71-4.075L0 1.932A.952.952 0 0 1 .948.975L24.757.868h.005c.524 0 .95.423.952.948l.009 1.905 7.619-.034-.009-1.905a.952.952 0 0 1 .948-.957L58.09.718h.004c.524 0 .95.424.953.947l.008 1.847a5.736 5.736 0 0 1-1.673 4.09 5.736 5.736 0 0 1-4.075 1.709l-47.5.212h-.027z" mask="url(#b)"/></g><path fill="#FFF" d="M29.521 1.975c7.935 0 14.368 6.434 14.368 14.369S37.456 30.713 29.52 30.713c-7.935 0-14.37-6.434-14.37-14.369s6.435-14.369 14.37-14.369"/><g transform="translate(13.333 .63)"><mask id="d" fill="#fff"><use xlink:href="#c"/></mask><path fill="#ED2E26" d="M16.317 2.227C8.808 2.227 2.7 8.335 2.7 15.845c0 7.508 6.108 13.616 13.617 13.616 7.51 0 13.618-6.108 13.618-13.616 0-7.51-6.109-13.618-13.618-13.618m0 29.139C7.759 31.366.795 24.403.795 15.845.795 7.285 7.759.322 16.317.322c8.559 0 15.523 6.964 15.523 15.523 0 8.558-6.964 15.52-15.523 15.52" mask="url(#d)"/></g><path fill="#ED2E26" d="M48.534 35.147l5.24 5.924.912-1.01-6.152-4.914zm5.233 8.305h-.005a.952.952 0 0 1-.709-.322L39.808 28.156a.952.952 0 0 1 1.307-1.375l15.55 12.424a.95.95 0 0 1 .112 1.382l-2.304 2.55a.951.951 0 0 1-.706.315zM29.52 5.672c5.893 0 10.671 4.778 10.671 10.672 0 5.894-4.778 10.672-10.671 10.672-5.894 0-10.673-4.778-10.673-10.672 0-5.894 4.779-10.672 10.673-10.672"/><path fill="#FFF" d="M22.713 11.36H33.1c.274 0 .496.447.496 1 0 .552-.222 1.002-.496 1.002H22.713c-.273 0-.494-.45-.494-1.002 0-.553.22-1 .494-1m.125 4.002h12.995c.343 0 .62.45.62 1.002s-.277 1-.62 1H22.838c-.343 0-.618-.448-.618-1 0-.553.275-1.002.618-1.002m-.304 4.004h6.615c.174 0 .315.448.315 1 0 .554-.141 1.003-.315 1.003h-6.615c-.175 0-.315-.449-.315-1.002 0-.553.14-1.001.315-1.001"/><path fill="#ED2E26" d="M54.695 41.872a.946.946 0 0 1-.649-.255l-7.472-6.937a.952.952 0 1 1 1.296-1.395l7.474 6.938a.952.952 0 0 1-.649 1.65"/></g></svg>