<svg width="55" height="45" viewBox="0 0 55 45" xmlns="http://www.w3.org/2000/svg" xmlns:xlink="http://www.w3.org/1999/xlink"><defs><path id="a" d="M0 .506h54.536v35.769H0z"/><path id="c" d="M.01.055h23.183v1.778H.011z"/></defs><g fill="none" fill-rule="evenodd"><g transform="translate(0 .328)"><mask id="b" fill="#fff"><use xlink:href="#a"/></mask><path d="M4.311 2.23a2.59 2.59 0 00-2.586 2.586v27.148a2.59 2.59 0 002.586 2.587h45.913a2.591 2.591 0 002.588-2.587V4.816a2.591 2.591 0 00-2.588-2.586H4.31zm45.913 34.045H4.31A4.316 4.316 0 010 31.965V4.815A4.315 4.315 0 014.311.506h45.913a4.315 4.315 0 014.312 4.31v27.148a4.316 4.316 0 01-4.312 4.31z" fill="#2E8BE0" mask="url(#b)"/><path d="M21.47 43.36a.864.864 0 01-.853-.995l1.014-6.446a.863.863 0 011.703.268l-1.014 6.446a.863.863 0 01-.85.728M33.067 43.36a.862.862 0 01-.851-.727l-1.014-6.446a.863.863 0 011.703-.268l1.014 6.446a.862.862 0 01-.852.996" fill="#2E8BE0"/><path d="M37.996 44H16.54a.86.86 0 110-1.724h21.457a.862.862 0 110 1.724" fill="#2E8BE0"/></g><use fill="#2E8BE0" xlink:href="#c" transform="translate(15.667 42.495)"/><path fill="#2E8BE0" d="M28.12 28.967l2.37-4.522 7.322 7.29 2.4-2.399-7.323-7.322 4.552-2.369-12.859-3.63zM21.537 13.77a.86.86 0 01-.61-.253l-2.492-2.492a.86.86 0 111.22-1.22l2.492 2.493a.864.864 0 01-.61 1.472M24.982 13.585a.862.862 0 01-.862-.863V6.415a.862.862 0 011.724 0v6.307a.862.862 0 01-.862.863M21.29 17.185h-6.306a.864.864 0 010-1.725h6.307a.862.862 0 010 1.725M28.305 13.8a.862.862 0 01-.61-1.472l2.491-2.491a.863.863 0 011.221 1.219l-2.491 2.491a.862.862 0 01-.611.253M18.983 23.123a.862.862 0 01-.61-1.472l2.493-2.492a.86.86 0 111.219 1.22l-2.492 2.49a.86.86 0 01-.61.254"/></g></svg>