<svg width="38" height="38" viewBox="0 0 38 38" xmlns="http://www.w3.org/2000/svg"><g fill="none" fill-rule="evenodd"><path d="M13.282 1c6.784 0 12.283 5.499 12.283 12.283 0 6.782-5.499 12.281-12.283 12.281S1 20.064 1 13.283C1 6.499 6.498 1 13.282 1z" stroke="#B5CFE5" stroke-width="2"/><path d="M26 26l8.878 8.878" stroke="#B5CFE5" stroke-width="5" stroke-linecap="round" stroke-linejoin="round"/><path d="M22 22l13.182 13.182" stroke="#B5CFE5" stroke-width="2" stroke-linecap="round" stroke-linejoin="round"/><path d="M13.997 4a8.996 8.996 0 018.997 8.996A8.997 8.997 0 1113.997 4"/><path d="M14.294 11.03h3.441a.197.197 0 01.168.304l-5.057 8.008a.199.199 0 01-.366-.114l.24-5.74a.2.2 0 00-.19-.206H9.199a.199.199 0 01-.161-.315l5.01-6.885a.199.199 0 01.359.13l-.31 4.606a.198.198 0 00.184.212h.014" fill="#9BC0E0"/></g></svg>