<svg xmlns="http://www.w3.org/2000/svg" data-name="Layer 6" viewBox="0 0 67.83 65"><path fill="#fefefe" d="M8.81 12.21l41.62.06v35.67l-41.67-.06"/><path fill="none" stroke="#b5d0e7" stroke-width="2" d="M8.81 12.21l41.95.06-.06 35.94-41.94-.06z" style="isolation:isolate" stroke-linecap="round" stroke-linejoin="round" opacity=".9"/><path fill="#fefefe" d="M3.81 7.21l41.62.06v35.67l-41.67-.06"/><path fill="none" stroke="#b5d0e7" stroke-width="2" d="M3.81 7.21l41.95.06-.06 35.94-41.94-.06zm41.95 10h-42" stroke-linecap="round" stroke-linejoin="round"/><path fill="#b5d0e7" d="M9.05 12.68a1.49 1.49 0 111.48 1.49 1.49 1.49 0 01-1.48-1.49m5.94 0a1.49 1.49 0 111.48 1.49A1.49 1.49 0 0115 12.69m5.95 0a1.49 1.49 0 111.48 1.49 1.49 1.49 0 01-1.48-1.49"/><path fill="none" stroke="#b5d0e7" stroke-width="2" d="M8.77 22.21h12v16h-12zm31 14h-14m14-6h-14m0-6h14" stroke-linecap="round" stroke-linejoin="round"/><path fill="#043471" d="M42.13 44.21v6.19c-3.06 3.43-12.53 3.09-13.35 7.75-.09.56.17 3.7.17 3.7h34.62a36.7 36.7 0 00.17-3.7c-.82-4.62-10.17-4.33-13.29-7.67v-6.27h-8.32z"/><path fill="none" stroke="#fefefe" stroke-width="2" d="M42.1 44.75v6.19C39 54.36 29.57 54 28.75 58.68c-.1.56.17 3.7.17 3.7h34.62a36.65 36.65 0 00.17-3.7c-.82-4.62-10.17-4.33-13.29-7.67v-6.26z" stroke-linecap="round" stroke-linejoin="round"/><path fill="#043471" d="M53.14 41.3l.17-2c.41-4.72-2.74-9-7.08-9s-7.52 4.21-7.14 8.93c0 .64.16 2 .16 2 .39 4.91 3.56 8.43 6.92 8.44s6.55-3.49 7-8.4"/><path fill="none" stroke="#fefefe" stroke-width="2" d="M53.14 41.3l.17-2c.41-4.72-2.74-9-7.08-9s-7.52 4.21-7.14 8.93c0 .64.16 2 .16 2 .39 4.91 3.56 8.43 6.92 8.44s6.55-3.46 6.97-8.37z"/></svg>