<svg xmlns="http://www.w3.org/2000/svg" viewBox="0 0 87.8 87.8"><path d="M43.9 87.8C19.7 87.8 0 68.1 0 43.9S19.7 0 43.9 0s43.9 19.7 43.9 43.9-19.7 43.9-43.9 43.9zm0-84.5C21.5 3.3 3.3 21.5 3.3 43.9s18.2 40.6 40.6 40.6c22.4 0 40.6-18.2 40.6-40.6S66.3 3.3 43.9 3.3z"/><path d="M58 65.4c0 2.1-1.7 3.7-3.7 3.7H33.5c-2.1 0-3.7-1.7-3.7-3.7v-43c0-2.1 1.7-3.7 3.7-3.7h20.7c2.1 0 3.7 1.7 3.7 3.7v43zm-2.9-43c0-.5-.3-.8-.8-.8H33.6c-.5 0-.8.4-.8.8v43.1c0 .5.4.9.8.9h20.7c.5 0 .8-.4.8-.9V22.4z"/><path d="M43.9 63c-2.8 0-5-2.2-5-5s2.2-5 5-5 5 2.2 5 5c0 2.7-2.2 5-5 5zM37 25.6h13.8v2.3H37zM37 30.5h13.8v2.3H37zM37 35.3h13.8v2.3H37zM43.9 50.9c-1.4 0-2.6-1.2-2.6-2.6 0-1.4 1.2-2.6 2.6-2.6 1.4 0 2.6 1.2 2.6 2.6 0 1.4-1.2 2.6-2.6 2.6z"/></svg>