<svg xmlns="http://www.w3.org/2000/svg" xmlns:xlink="http://www.w3.org/1999/xlink" width="66" height="68"><defs><path id="a" d="M0 0h60v61H0z"/></defs><g fill="none" fill-rule="evenodd"><path fill="#B5D0E7" d="M42.097 6.1c.13.526.427.95.737 1.328.226.277.49.553.8.571a.341.341 0 0 0 .27-.09.342.342 0 0 0 .084-.325c-.047-.152-.192-.195-.304-.268-.14-.092-.242-.253-.341-.408l-.477-.755c-.18-.285-.366-.589-.481-.919-.128-.08-.256-.158-.385-.234v.016c.006.364.011.735.097 1.084m-6.324 6.827c.018-.205.11-.413.05-.6-.178.073-.381-.018-.504-.228-.022-.036-.043-.078-.074-.093-.074-.036-.133.096-.162.206-.066.252-.13.55-.034.78.033.08.084.141.131.203.193.252.364.542.506.862.073.164.127.426.013.528-.029.024-.064.032-.092.06-.109.103-.045.347-.012.535.046.26-.006.554-.13.749.06.1.17.083.249.02.079-.065.143-.166.223-.227a.573.573 0 0 1 .268-.09c.186-.026.374-.055.56-.082a.28.28 0 0 0 .133-.045c.128-.1.128-.393.043-.568-.085-.175-.223-.27-.344-.386-.21-.203-.381-.485-.549-.763-.147-.245-.305-.535-.275-.86"/><path fill="#B5D0E7" d="M34.203 15.2c.072.2-.182.409-.092.603.111.248.6.22.943.142.176-.041.356-.082.506-.16.502-.264.475-.805.396-1.251-.038-.213-.127-.471-.412-.525-.245-.046-.47.091-.643.233-.212.038-.423.085-.598.18-.227.123-.374.348-.268.538.047.084.136.154.168.24m18.2 27.689c-.191.246-.418.488-.713.573-.243.069-.537.039-.707.232-.13.147-.132.367-.145.565-.03.441-.16.874-.373 1.257-.203.361-.494.72-.463 1.136a.417.417 0 0 0 .078.23c.07.087.189.12.3.118.415-.004.719-.389.958-.739.44-.638.88-1.28 1.202-1.988.321-.71.52-1.496.444-2.273-.168.312-.362.61-.58.889M12.234 9.372c-.02.022-.053.03-.084.036-.07.015-.229.025-.354.057.068-.052.125-.117.192-.17.05-.041.112-.077.177-.065.064.013.111.095.068.142m18.538-1.129a.774.774 0 0 0-.149-.802c.1.12.33.04.37-.109.04-.149-.067-.306-.206-.38-.139-.074-.303-.086-.462-.095l-.453-.028a.247.247 0 0 1-.136-.035c-.09-.065-.047-.209.036-.281.083-.072.195-.113.266-.197.168-.2-.001-.504-.212-.664-.21-.158-.478-.283-.573-.524-.037-.098-.042-.204-.065-.304-.156-.7-.955-.96-1.578-.756-.638.208-1.15.778-1.86.777-.364-.001-.704-.164-1.052-.268-1.108-.329-2.263-.03-3.282.428-.531.24-1.052.521-1.544.83-.163.103-.373.212-.512.348-.266.262-.087.795-.39 1.023-.453.337-1.208-.484-1.52.268-.07.173-.135.354-.157.535.076-.007.208.042.307.004-.076.382-.524.66-.788.914-.298.286-.62.614-.766 1.003l.42.03c-.041.18-.085.365-.19.518-.11.167-.283.283-.449.394l-.346.233c-.094.064-.253.112-.298.01-.029-.066.024-.137.08-.181.085-.065.187-.111.253-.195.065-.083.073-.223-.02-.273-.06-.033-.135-.015-.203-.022a.271.271 0 0 1-.236-.223.264.264 0 0 1 .168-.273c.052-.02.11-.024.156-.053.157-.098.051-.368.186-.495.065-.06.185-.088.186-.176.001-.054-.052-.109-.029-.16.031-.065.13-.03.204-.039.062-.007.11-.052.16-.088.136-.1.304-.153.447-.244.143-.091.266-.247.234-.41a.674.674 0 0 0-.544.144c-.057.048-.11.108-.183.13-.12.035-.24-.044-.347-.109-.105-.065-.254-.116-.347-.035-.054.047-.069.122-.106.181-.06.097-.173.149-.282.188-.109.041-.224.08-.3.166-.076.087-.09.234.003.302.054.04.135.045.173.1.023.033.023.075.014.113-.045.201-.305.302-.359.503-.034.13.03.265.034.4.006.222-.247.347-.33.105-.092-.265.062-.201-.23-.241-.39-.053-.291-.65-.115-.895.104-.142.26-.249.333-.413.056-.129.096-.514-.155-.44-.226.065-.45.132-.674.198-.065.02-.135.039-.2.02-.066-.018-.12-.09-.091-.15.133.015.271.03.396-.015.126-.043.235-.163.218-.292a.268.268 0 0 0-.077-.146c-.107-.11-.277-.145-.43-.122a1.173 1.173 0 0 0-.426.179c-.54.34-.956.848-1.271 1.375.05.029.112.03.17.016l-.005.007c-.085.145.11.148.033.274-.057.095-.261.094-.343.182-.088.096-.098.219-.064.341.032.124.08.254.044.376-.004.016-.01.035-.005.05.007.026.038.037.066.043.472.09.606-.45 1.032-.431.157.007.295.076.458.073.119-.003.227.02.34.022.053.002.112-.033.116-.084.006-.057-.05-.102-.06-.158-.013-.082.076-.142.153-.174s.186-.049.228.021c.038.064-.013.14-.026.21-.011.068.01.136.012.204.002.129-.073.247-.162.342a.49.49 0 0 1-.17.128.623.623 0 0 1-.245.03c-.093 0-.266.033-.35-.007-.061-.03-.054-.1-.107-.13-.14-.08-.406-.104-.539-.001-.046.035-.077.087-.12.127-.128.122-.331.116-.51.105-.152-.011-.324-.035-.407-.158-.062-.092-.052-.21-.063-.318a.787.787 0 0 0-.129-.357c-.02-.029-.044-.059-.08-.066-.036-.01-.074.006-.108.02a.694.694 0 0 1-.488.005c-.107-.038-.204-.104-.312-.142-.104-.037-.258-.036-.41-.024a30.451 30.451 0 0 0-4.394 4.713C4.784 16.9 3.55 18.829 2.81 20.87c-.677 1.87-1.014 3.98-.679 5.948l.214 1.262c.088.512.175 1.026.33 1.524.12.388.287.775.577 1.067.009-1.167-.314-2.32-.314-3.472.352 1.948.785 6.67 3.62 6.534.023-.102.048-.203.07-.305.832.265 1.164 1.35 2.005 1.587.193.056.412.064.568.188.17.134.215.361.291.559.295.755 1.111 1.164 1.837 1.557.085.047.176.099.222.183.182.335-.124.636-.237.908-.163.396-.22.747-.139 1.188.055.3.163.6.131.903-.042.385-.3.709-.446 1.068-.464 1.137.235 2.382.909 3.416.576.884 1.189 1.804 2.13 2.316.354.192.744.32 1.08.538.743.48.81 1.431 1.062 2.212.293.909.61 1.81.984 2.692 1.043 2.448 2.747 5.813 5.744 6.248.071.01.146.018.21-.014.062-.031.101-.117.056-.17-.029-.036-.079-.044-.125-.051-1.732-.264-1.899-2.061-2.272-3.383-.083-.291-.025-.685.271-.777.2-.06.415.044.621.01.279-.046.453-.392.318-.635a.327.327 0 0 0-.135-.134c-.077-.037-.166-.031-.247-.057-.192-.062-.282-.317-.172-.481.165-.24.645-.035.915-.153.37-.163.664-.665.77-1.024.223-.768.257-1.7.937-2.148.56-.369 1.374-.247 1.894-.668.937-.762.042-2.308.497-3.41.287-.7 1.13-1.33.813-2.018-.148-.322-.508-.491-.841-.635-1.815-.78-3.8-1.58-5.726-1.115.57-.326.6-1.171.233-1.707-.366-.536-.994-.836-1.593-1.112-.461-.212-.947-.4-1.392-.645-.435-.24-.657-.61-1.034-.9-.49-.376-1.25-.212-1.806-.403-.662-.229-1.188-.227-1.885-.216-.438.002-.229-.006-.556-.33-.197-.197-.385-.362-.67-.43-.147-.034-.298-.041-.447-.07-.506-.095-.973-.464-1.084-.955-.046-.203-.031-.415-.044-.624a2.36 2.36 0 0 0-.188-.797.54.54 0 0 0-.156-.226c-.124-.095-.298-.084-.454-.07-.325.03-.666.177-.965.184.054-.858.345-1.758.522-2.604-.25-.423-.895.067-1.054.53-.16.462-.569 1.075-.992.81-.129-.082-.196-.23-.253-.37a8.328 8.328 0 0 1-.6-3.312c.025-.971 1.062-1.073 1.794-.734.221.103.516.168.688-.003.16-.156.125-.433.281-.592a.404.404 0 0 1 .067-.057c.481-.338 1.382.426 1.586.781.237.41.173 1.99.71 2.144 1.077.31.053-1.687.053-1.937a1.64 1.64 0 0 1 .216-.962c.2-.37.49-.798.797-1.087.307-.29.805-.427 1.018-.802.355-.625.001-1.236.563-1.828a4.038 4.038 0 0 1 1.833-1.078c.243-.067.525-.13.646-.344.12-.216-.165-.555-.349-.387.14-.127 1.107-.684 1.313-.607.308.11-.17.972.491.615l1.536-.826c.151-.082.31-.169.403-.311.091-.143.09-.358-.05-.457-.068-.073-.198-.033-.266.04-.067.073-.104.17-.178.238-.19.175-.65.164-.884.076a.735.735 0 0 0-.291-.803c.106.057.268-.043.273-.167.006-.137-.118-.252-.254-.286-.136-.035-.279-.009-.417.017-.3.058-.614.123-.839.324.75-.755 1.727-.767 2.716-.967.456-.092.541-.264.936-.486.095-.051.235-.048.29.043.196.328-.617 1.158-.627 1.535-.002.114.079.236.195.24.302.011.445-.001.746.127.365.156.715.395 1.114.39.398-.006.803-.443.577-.762-.1-.145-.287-.203-.432-.308-.487-.35-.384-1.063-.392-1.651-.009-.589-.49-1.33-1.039-1.084a8.98 8.98 0 0 0-.907-1.899c-.163-.26-.41-.543-.718-.498-.488.07-.705.86-1.23.712.031-.272.275-.502.267-.778-.007-.258-.26-.437-.488-.573-.257-.155-.518-.31-.808-.393-.29-.085-.616-.09-.883.048-.042.023-.085.05-.105.094-.022.046-.013.099-.006.15.045.366-.12.714-.357.992-.177.209-.54.392-.393.719.034.072.089.135.109.212.037.138-.049.278-.13.397-.177.26-.396.543-.714.572-.092.008-.198-.002-.265.062-.07.066-.053.176-.04.27.048.31.028.63-.057.931-.064.228-.2.473-.437.523-.254.054-.505-.162-.568-.406-.062-.246.018-.503.118-.735a6.95 6.95 0 0 1 .228-.463c.018-.033.035-.072.018-.104-.015-.03-.052-.041-.085-.05-.647-.173-1.06-.305-1.587-.692-.13-.097-.366-.142-.436-.286-.077-.16.136-.366 0-.55-.03-.04-.075-.073-.095-.12a.24.24 0 0 1-.003-.15c.098-.444.718-1.064 1.095-1.31.387-.256.834-.405 1.227-.648.197-.123.377-.271.514-.456.072-.097.159-.191.102-.288-.046-.074-.199-.112-.172-.224.023-.102.178-.103.258-.082.068.02.425.113.449.177.008.024 0 .049-.009.071-.074.194-.158.399-.338.506-.079.046-.169.07-.255.1-.016.005-.033.013-.042.027-.012.017-.008.04 0 .06.045.113.172.178.294.187a.92.92 0 0 0 .362-.068c.113-.038.234-.088.291-.19.02-.035.037-.08.077-.09.036-.01.074.018.091.051s.021.071.034.107c.047.138.24.21.37.136.011-.006.024-.014.03-.026.007-.016.002-.033-.003-.049-.06-.195-.225-.34-.364-.494a.856.856 0 0 1-.226-.373c-.025-.117.068-.256-.008-.348.17.039.356.001.495-.1.029-.021.057-.045.093-.048.052-.003.092.04.134.07.14.1.354.052.47-.074.116-.126.15-.306.138-.476-.003-.06-.01-.129.032-.174.051-.056.143-.042.22-.055a.288.288 0 0 0 .234-.313c-.015-.096-.083-.182-.086-.278-.01-.459 1.542-.218 1.683.304.293 1.09-2.202 1.36-1.978 2.464.242-.516 1.056-.324 1.507.035.508.406.865.653 1.519.697.081-.26-.115-.505-.324-.652-.068-.05-.152-.12-.123-.198.107-.042.233-.003.322.07a.904.904 0 0 1 .203.27c.037.064.083.137.16.147.04.003.078-.011.116-.027.22-.095.453-.296.384-.52-.021-.067-.068-.122-.113-.177l-.218-.26c-.104-.126-.213-.26-.237-.419-.094-.617.74-.455.763.022.003.052-.004.113.036.148.029.023.068.024.104.023.163-.003.332-.007.473-.086.141-.077.238-.252.17-.395.082-.02.166.013.249.026.083.013.187-.005.217-.082.035-.089-.057-.175-.139-.23-.165-.111-.33-.223-.494-.336-.182-.122-.949-.112-.555-.438.028-.023.062-.043.081-.074.016-.025.019-.055.022-.083.021-.171.038-.36-.07-.497-.058-.074-.143-.12-.22-.174-.239-.172-.412-.443-.697-.52-.04-.01-.083-.018-.11-.049-.05-.053-.018-.138-.04-.205-.032-.109-.184-.137-.291-.094-.108.043-.188.13-.286.192-.097.06-.237.088-.322.011-.077-.068-.013-.686.021-.688a1.42 1.42 0 0 1-.549-.073c-.023-.008-.048-.017-.063-.039-.11-.158.733-.344.82-.341.47.017.648.051 1.018-.269.41-.352.794-.708 1.258-.995.331-.204.876-.53 1.286-.505.373.024.677.485 1.099.289.104-.049.192-.136.306-.144.174-.013.3.161.358.32.186.509.072 1.11-.289 1.522.158.059.34.04.493.113.153.071.236.312.087.39-.149.077-.296-.095-.448-.164a.367.367 0 0 0-.394.066.312.312 0 0 0-.05.38c.124.2.421.19.66.156-.01.178-.161.32-.318.413-.157.093-.335.159-.468.282-.582.543-.183 1.87.204 2.42.202.284.474.514.743.74.102.086.211.175.345.195.299.041.553-.283.853-.245.351.045.423.473.724.584.43.157.68-.27.739-.63.06-.366-.067-.675.124-1.03.095-.176.266-.286.34-.473.085-.206.003-.424.148-.618.118-.157.426-.35.596-.465.35-.234.897-.338 1.051-.772.093-.262.027-.617.272-.76.13-.074.295-.048.447-.061a.811.811 0 0 0 .672-.486"/><path fill="#B5D0E7" d="M11.305 30.215c-.29-.17-.618-.302-.912-.144-.293.16-.502.72-.332 1.111.22-.255.517-.35.787-.255.376.134.655.593 1 .849.354.26.78.296 1.152.094-.481-.716-1.062-1.283-1.695-1.655m2.085 2.653c.13-.046.268.04.4.078.222.069.45.061.67-.023.113-.04.221-.141.332-.174.072-.023.191.012.207-.22a.622.622 0 0 0-.069-.297c-.185-.401-.384-.778-.62-1.01-.233-.232-.506-.308-.744-.102-.126.109-.253.434-.176.682.024.078.064.132.082.22.034.17-.043.359-.123.408-.08.052-.167.029-.244.096-.077.067-.138.3-.085.443.04.103.315-.082.37-.101m17.15-22.724c-.26-.079-.528.04-.791-.003-.201-.032-.399-.16-.6-.139-.034.005-.07.015-.095.053a.426.426 0 0 0-.04.193c-.019.36-.035.744.064 1.065a.662.662 0 0 0 .233.35l-.037.006c.477.528 1.17.413 1.574-.266.06-.1.114-.212.138-.347.077-.426-.186-.834-.446-.912M35 4.028c.09-.02.182-.02.272-.006l.03-.014a.712.712 0 0 0-.302.02"/><path fill="#B5D0E7" d="M34.254 5.19c.446.247.892.494 1.338.739.088.048.187.1.276.052.175-.091.163-.468.04-.664-.121-.197-.306-.293-.445-.466.129.037.27.07.387-.018.116-.084.17-.346.065-.456-.215.181-.45-.058-.692-.225.036.02.08.036.131.047L35.008 4l-.025.016c.05.013.09.042.135.073a.587.587 0 0 0-.152-.061l-.77.522c-.084.057-.178.131-.194.26-.023.187.127.313.252.38M14.292 7.87c.651.424 1.588-.255 1.7-1.065a.406.406 0 0 0-.013-.215c-.03-.065-.103-.102-.152-.06-.028.024-.041.065-.056.103-.074.182-.244.302-.412.284-.024-.003-.05-.008-.068-.028a.144.144 0 0 1-.033-.061c-.042-.158.06-.313.148-.439.442-.615-.221-.354-.472-.202-.22.134-.512.269-.697.475-.288.325-.362.936.055 1.208m1.897.046c.036 0 .075-.01.105.009.026.016.04.048.065.064.042.027.095 0 .135-.028.289-.198.517-.577.506-.945a.804.804 0 0 0-.22-.014c-.39.023-.865.283-.767.761a.194.194 0 0 0 .176.153m1.268-1.076c.17.018.354.01.523.029.154.13.493.173.722.085.277-.108.364-.35.248-.537-.117-.19-.398-.324-.704-.394a.649.649 0 0 0-.214-.02c-.183.021-.25.159-.381.24-.198.124-.587.142-.645.313-.05.145.212.26.45.284m23.798 13.814c.092.196.322.418.553.324.156-.064.184-.232.19-.372.008-.291.01-.588-.082-.87a1.169 1.169 0 0 0-.602-.7.29.29 0 0 0-.13-.036.183.183 0 0 0-.181.158.253.253 0 0 0 .018.122 2.53 2.53 0 0 0 .234 1.374"/><path fill="#B5D0E7" d="M53.286 21.367c-.163.185-.485.14-.659-.034-.174-.175-.231-.431-.254-.676-.022-.244-.02-.496-.105-.726-.13-.352-.444-.598-.697-.875a3.147 3.147 0 0 1-.607-.973c-.074-.19-.124-.418-.006-.585.141-.197.431-.192.675-.166.034.003.07.008.096.03.039.036.038.094.033.146-.028.377.005.764.159 1.11.153.345.44.643.803.753.088.026.183.043.252.102.07.058.1.179.031.237-.029.026-.066.035-.097.058-.121.09-.025.277.066.398.131.17.238.357.32.554.09.21.141.477-.01.647m-.87 9.455a22.038 22.038 0 0 1-1.926-3.631c-.381-.918-.713-1.883-1.358-2.64.456.467.902.944 1.337 1.43.261.293.522.595.691.948.216.451.272.967.498 1.413.144.283.35.53.514.803.262.44.405.95.407 1.463 0 .106-.063.254-.163.214M49.01 19.314c-.312-.187-.736-.26-1.03-.047-.126.093-.215.23-.345.319a.61.61 0 0 1-.647.013c-.164-.102-.267-.276-.34-.453a2.273 2.273 0 0 1-.171-1.085c.014-.167.05-.338.147-.473.098-.135.272-.226.435-.188.308.073.36.498.606.698a.499.499 0 0 0 .3.11.33.33 0 0 0 .248-.087c.063-.062.085-.17.036-.244-.059-.09-.19-.106-.255-.19-.075-.099-.024-.249.074-.324.098-.074.227-.093.35-.109.033-.004.069-.008.1.008.044.022.059.077.063.126.018.223-.08.47.042.658a.656.656 0 0 0 .172.162c.498.361 1.063.744 1.203 1.341.01.044.017.094-.011.13-.024.029-.065.039-.104.042-.327.027-.593-.238-.873-.407M44.29 6c-.073.227-.057.47.095.662.325.41 1.086.42 1.223.924.123.452-.429.825-.9.81a.442.442 0 0 1-.252.346 1.133 1.133 0 0 1-.261-.5l-.36-.004c-.085.328.089.659.182.984.093.326.05.763-.268.882-.218.081-.47-.038-.609-.222-.138-.185-.19-.42-.23-.645l.738-.008c-.023-.36-.298-.66-.613-.835-.315-.176-.674-.257-1.017-.373-.91-.309-1.895-.886-2.759-.464-1.073.525-.492 1.863-1.249 2.63-.141.144-.317.254-.434.419-.621.869.082 1.96 1.077 1.628.383-.128.594-.315 1.003-.13.422.193.926.896.539 1.325-.156.17-.457.343-.33.537.412.171.947-.165.966-.61.446-.436.354-1.225-.006-1.733-.088-.125-.198-.237-.26-.378-.251-.576.445-1.267.154-1.825.246-.072.473.196.498.45.025.255-.072.505-.078.759-.015.644.654 1.21 1.292 1.094.219-.04.43-.146.652-.12.221.026.428.287.292.461-.205-.026-.424-.05-.61.043-.185.093-.3.35-.171.51.081.1.246.171.22.298-.035.172-.318.078-.467.174-.186.12-.042.4-.044.62 0 .428-.564.584-.995.608-.659.038-1.442.021-1.814-.521-.107-.158-.166-.344-.275-.5-.11-.157-.302-.285-.487-.231l.634 1.362a1.068 1.068 0 0 0-1.136.465c-.108.179-.16.384-.248.573-.258.561-.859.95-1.482.958-.168.002-.345-.02-.495.053-.15.075-.242.296-.119.409.08.073.2.066.31.071.615.036 1.06.793.79 1.342-.07.144-.189.275-.344.317-.164.046-.337-.014-.504-.05a1.93 1.93 0 0 0-1.72.484c.51.382.203 1.203.425 1.798.18.482.719.765 1.236.773.518.009 1.014-.21 1.453-.48.148-.091.294-.19.398-.327.353-.472.267-1 .719-1.436.136-.13.26-.38.4-.486.27-.207.657-.084.97-.127.29-.038.533-.17.828-.08.68.206 1.374 1.02 1.92 1.457.14.114.294.247.309.428.017.208-.173.39-.377.44-.206.05-.421.001-.627-.046-.054.447.583.71.986.502.403-.208.597-.661.762-1.081.041-.109.085-.23.048-.34-.043-.127-.174-.2-.293-.264a4.306 4.306 0 0 1-1.148-.93c-.046-.054-.759-1.179-.292-.996.028.01.05.032.073.053.758.73 1.458 1.306 2.054 2.193.62.898 1.3 1.821 2.288 2.293.127.06.313.096.381-.028.085-.155-.133-.291-.292-.37-.518-.251-.783-.82-1.009-1.347-.058-.134-.116-.281-.082-.424.075-.301.528-.35.771-.156.245.193.336.516.431.81.096.295.238.612.523.739.464.205 1.002-.21 1.495-.091.363.088.602.456.653.824.052.37-.045.74-.141 1.098-.053.2-.122.422-.305.52-.154.083-.344.053-.516.02-.843-.16-1.709-.329-2.433-.784-.22-.14-.439-.308-.698-.337-.26-.026-.563.173-.523.428.019.112.094.234.027.325-.066.088-.206.056-.308.014l-2.29-.933c-.11-.046-.228-.095-.306-.19-.245-.3.058-.852-.247-1.092-.265-.208-.672-.034-.97-.029-.466.011-.875-.066-1.341.048-.473.117-.922.312-1.392.432a1.702 1.702 0 0 1-.575.065c-.166-.014-.326-.067-.491-.087-.242-.029-.544.052-.77.185-.05.03-.097.063-.138.097-.204.17-.365.38-.58.548-.47.368-.581.865-.687 1.44-.012.065-.024.13-.06.184-.039.063-.105.104-.17.145-.843.513-1.367 1.066-1.83 1.952-.221.425-.68 1.4-.568 1.893.052.231.24.418.266.655.035.313-.227.573-.325.872-.11.33-.018.688.076 1.022.138.497.313 1.044.764 1.3.13.075.277.12.401.202.279.184.302.431.44.69.167.305.406.543.683.76.379.294.777.411 1.21.59.318.132.578.344.951.225.302-.095.507-.34.807-.428.45-.13.762.128 1.184.175.403.045.75-.253 1.107-.441.359-.188.917-.202 1.054.177.037.1.035.211.07.312.13.364.638.376 1.023.322.361.725-.024 1.62.212 2.396.104.34.322.633.49.948.474.889.541 1.983.18 2.921-.177.46-.449.88-.613 1.343-.4 1.133-.118 2.346.104 3.483.112.567.23 1.143.244 1.723.011.437-.483.9-.052 1.168.76.477 1.79.33 2.55-.144.76-.476 1.302-1.223 1.787-1.973.18-.279.354-.928.68-1.038.17-.058.36-.056.516-.143.151-.083.248-.239.321-.393.135-.29.207-.608.21-.926.002-.264-.029-.565.159-.752.095-.094.227-.137.351-.189.772-.32 1.282-1.033 1.549-1.798.3-.862.074-1.704.28-2.58.344-1.461 1.706-2.421 2.588-3.639a6.17 6.17 0 0 0 1.162-3.743c-.306.327-.663.678-1.112.693-.45.017-.88-.555-.574-.883.084-.089.202-.139.316-.189a5.297 5.297 0 0 0 2.518-2.386c.14-.271.257-.565.249-.868-.014-.452-.284-.826-.486-1.213-.076-.146-.22-.883-.51-.642-.193.16-.022.563-.247.672-.155.073-.314-.082-.413-.22a19.627 19.627 0 0 1-1.131-1.8.68.68 0 0 1-.11-.304c-.005-.11.057-.23.164-.254.094-.021.189.034.246.11.058.077.084.168.118.256.139.382.392.722.719.967.15.111.349.207.521.133.065-.028.129-.078.194-.057a.177.177 0 0 1 .067.043c.264.225.243.645.605.774.32.115.654-.12.978.032.703.331 1.002 1.65 1.142 2.323.37 1.784.169 3.72 1.014 5.386.026.05.054.101.083.151A29.61 29.61 0 0 0 59 31.541C59 20.661 53.093 11.149 44.29 6M12.71 32.152a.646.646 0 0 0-.645-.109.114.114 0 0 0-.054.036c-.102.128.487.74.55.79.106.086.311.228.404.032.053-.112.038-.247-.007-.373a.942.942 0 0 0-.248-.376m4.203.167c-.458-.662-1.25-.186-.759.44.325.412 1.103.056.76-.44z"/><mask id="b" fill="#fff"><use xlink:href="#a"/></mask><path fill="#B5D0E7" d="M29.082 2.49c-15.023 0-27.245 12.426-27.245 27.699 0 15.273 12.222 27.699 27.245 27.699 15.023 0 27.245-12.426 27.245-27.7 0-15.272-12.222-27.698-27.245-27.698m.306 57.888C13.183 60.378 0 46.975 0 30.5S13.183.622 29.388.622c16.205 0 29.388 13.403 29.388 29.878S45.593 60.378 29.388 60.378" mask="url(#b)"/><path fill="#FFF" d="M37 53c0-7.731 6.268-14 14-14s14 6.269 14 14-6.268 14-14 14-14-6.269-14-14"/><path fill="#1D2737" d="M37 53c0 7.731 6.268 14 14 14V53H37zm28 0c0-7.73-6.268-14-14-14v14h14z"/><path fill="#1D2737" d="M51 40.14c-7.09 0-12.86 5.77-12.86 12.86S43.91 65.86 51 65.86 63.86 60.09 63.86 53 58.09 40.14 51 40.14M51 68c-8.271 0-15-6.729-15-15s6.729-15 15-15 15 6.729 15 15-6.729 15-15 15"/></g></svg>