<svg xmlns="http://www.w3.org/2000/svg" xmlns:xlink="http://www.w3.org/1999/xlink" viewBox="0 0 65 79"><defs><path id="a" d="M0 .11h64.85v78.314H0z"/></defs><g fill="none" fill-rule="evenodd"><g transform="translate(0 .068)"><mask id="b" fill="#fff"><use xlink:href="#a"/></mask><path fill="#9BC0E0" d="M32.418.11c21.117 0 31.73 11.455 31.73 11.455s1.217 8.48.443 25.563c-1.167 25.8-32.164 41.296-32.164 41.296S1.426 62.93.258 37.128C-.516 20.046.7 11.565.7 11.565S11.307.11 32.418.11" mask="url(#b)"/></g><path fill="#6CA3CF" d="M11.623 51.352l-.183-29.91L.195 35.717c.02.486.056.977.063 1.477C.575 59.553 26.93 75.26 26.93 75.26l27.196-23.02-42.503-.888z"/><path fill="#F3F4F5" d="M47.372 24.637H26.556c-.73 0-1.328-.598-1.328-1.33 0-.73.598-1.327 1.328-1.327h20.816c.73 0 1.33.598 1.33 1.328 0 .73-.6 1.33-1.33 1.33m-28.363-.574c-.42 0-.758-.34-.758-.756 0-.418.34-.757.757-.757.416 0 .755.34.755.758 0 .417-.34.756-.756.756m-2.27 0c-.42 0-.758-.34-.758-.756 0-.418.338-.757.757-.757.417 0 .756.34.756.758 0 .417-.34.756-.757.756m-2.27 0c-.42 0-.758-.34-.758-.756 0-.418.34-.757.757-.757s.756.34.756.758c0 .417-.34.756-.757.756m37-3.473H13.38c-1.462 0-2.657 1.196-2.657 2.658V52.24h43.403V23.247c0-1.462-1.196-2.657-2.657-2.657"/><path fill="#9BC0E0" d="M25.174 36.995c-.436-.596-1.305-.782-1.9-.346-.595.435-.78 1.304-.345 1.9l6.297 8.465L44.14 31.417c.568-.6.43-1.412.02-1.845-.598-.567-1.41-.428-1.843-.02L29.7 42.918l-4.526-5.923z"/></g></svg>