<svg xmlns="http://www.w3.org/2000/svg" xmlns:xlink="http://www.w3.org/1999/xlink" viewBox="0 0 65 79"><defs><path id="a" d="M0 .11h64.85v78.314H0z"/></defs><g fill="none" fill-rule="evenodd"><g transform="translate(0 .068)"><mask id="b" fill="#fff"><use xlink:href="#a"/></mask><path fill="#9ABFDF" d="M32.418.11c21.117 0 31.73 11.455 31.73 11.455s1.217 8.48.443 25.563c-1.167 25.8-32.165 41.296-32.165 41.296S1.425 62.93.258 37.128C-.516 20.046.7 11.565.7 11.565S11.307.11 32.418.11" mask="url(#b)"/></g><path fill="#6CA3CF" d="M30.168 49.818L14.93 14.97.028 29.327c.02.485.23 7.368.23 7.868-.063 21.758 26.708 38.09 26.708 38.09l14.994-12.04-11.792-13.427z"/><path fill="#FEFEFE" d="M29.152 26.892c1.906-1.716 3.112-4.195 3.112-6.962 0-5.178-4.198-9.376-9.377-9.376-5.178 0-9.376 4.198-9.376 9.376 0 2.767 1.206 5.246 3.112 6.962-4.85 2.338-8.204 7.284-8.204 13.028 0 2.838.83 5.477 2.24 7.71 3.83 1.09 7.942 1.688 12.23 1.688 4.285 0 8.398-.598 12.227-1.687 1.412-2.233 2.24-4.872 2.24-7.71 0-5.744-3.354-10.69-8.203-13.028"/><path fill="#FEFEFE" d="M46.632 26.717c1.434-1.292 2.34-3.157 2.34-5.238 0-3.898-3.158-7.056-7.054-7.056-3.896 0-7.055 3.158-7.055 7.055 0 2.08.907 3.946 2.34 5.237-1.07.516-2.028 1.218-2.87 2.04 2.933 2.643 4.786 6.46 4.786 10.72 0 1.366-.203 2.68-.56 3.93 1.104.108 2.22.184 3.358.184 3.225 0 6.32-.45 9.2-1.27 1.063-1.68 1.686-3.666 1.686-5.8 0-4.322-2.524-8.045-6.172-9.803"/><path fill="#9ABFDF" d="M28.994 48.908c-.767.136-1.58.186-1.58.186-.392-1.524-.85-10.565.013-13.56.067-.234.194-.447.366-.62.21-.21 5.208-5.104 14.165-5.104.37 0 9.13.064 14.17 5.104.563.564.563 1.48 0 2.043-.565.564-1.48.564-2.044 0C49.88 32.753 42.036 32.7 41.957 32.7c-6.66 0-10.774 3.094-11.843 4.007-.504 2.53-.282 9.433-.146 12.012.043.795-.217-.025-1.014.017-.026.002.065.17.04.17"/><path fill="#9ABFDF" d="M51.778 38.39l1.47 9.664-3.893 9.396-6.71 2.28-3.222-2.28-7.28-7.383-2.384-11.677s4.16-3.624 4.562-3.892c.403-.268 14.362-1.208 14.362-1.208l3.094 5.1z"/><path fill="#FEFEFE" d="M48.084 52.432c-1.57-.144-3.212-.59-3.955-1.013 1.915-1.225 4.402-3.605 4.402-6.498 0-3.624-2.948-6.572-6.572-6.572-3.62 0-6.567 3.032-6.567 6.758 0 3.108 1.647 5.548 4.894 7.252 2.126 1.114 5.295 1.93 8.645 2.362-.557.83-2.044 2.247-2.912 2.727-4.01-.658-7.533-2.047-9.94-4.128-2.576-2.226-3.938-5.13-3.938-8.4 0-5.413 4.405-9.818 9.818-9.818 5.414 0 9.818 4.405 9.818 9.818 0 2.99-1.4 5.735-3.694 7.51m7.02-16.497s-4.397-4.68-13.146-4.68c-8.748 0-13.143 4.68-13.143 4.68s-.503 3.465-.182 10.442c.485 10.538 13.326 16.87 13.327 16.868 0 0 12.842-6.33 13.327-16.868.32-6.977-.182-10.442-.182-10.442"/></g></svg>