<svg xmlns="http://www.w3.org/2000/svg" xmlns:xlink="http://www.w3.org/1999/xlink" viewBox="0 0 65 79"><defs><path id="a" d="M0 .11h64.85v78.314H0z"/></defs><g fill="none" fill-rule="evenodd"><g transform="translate(0 .068)"><mask id="b" fill="#fff"><use xlink:href="#a"/></mask><path fill="#9BC0E0" d="M32.418.11c21.117 0 31.73 11.455 31.73 11.455s1.217 8.48.443 25.563c-1.167 25.8-32.165 41.296-32.165 41.296S1.425 62.93.258 37.128C-.516 20.046.7 11.565.7 11.565S11.307.11 32.418.11" mask="url(#b)"/></g><path fill="#6CA3CF" d="M23.02 28.847l-1.376-15.48-21.45 22.35c.02.487.037.978.064 1.478 1.18 22.187 23.68 36.077 23.68 36.077l25.895-22.014-26.813-22.41z"/><path fill="#FEFEFE" d="M23.496 28.847l-.012-6.572c.016-4.917 4.017-8.91 8.94-8.91 4.922 0 8.923 3.993 8.936 8.91l.003 6.572H23.496zm24.48 0h-1.547v-6.572c-.017-7.716-6.287-13.977-14.005-13.977-7.722 0-13.99 6.26-14.007 13.977l.013 6.572h-1.56c-1.252 0-2.268 1.018-2.268 2.27v18.84c0 1.25 1.016 2.267 2.267 2.267h31.105c1.255 0 2.272-1.016 2.272-2.268v-18.84c0-1.25-1.017-2.27-2.272-2.27z"/><path fill="#9BC0E0" d="M19.112 44.563l1.41-1.688c.976.805 1.998 1.317 3.238 1.317.976 0 1.565-.388 1.565-1.023v-.032c0-.604-.372-.914-2.185-1.38-2.184-.557-3.594-1.16-3.594-3.314v-.032c0-1.967 1.58-3.27 3.796-3.27 1.58 0 2.928.497 4.028 1.38l-1.24 1.797c-.96-.667-1.905-1.07-2.82-1.07-.914 0-1.394.42-1.394.946v.03c0 .713.465.946 2.34 1.426 2.2.573 3.44 1.363 3.44 3.254v.03c0 2.154-1.643 3.363-3.983 3.363-1.642 0-3.3-.574-4.6-1.737m9.606 0l1.41-1.688c.975.805 1.997 1.317 3.237 1.317.976 0 1.565-.388 1.565-1.023v-.032c0-.604-.372-.914-2.185-1.38-2.185-.557-3.595-1.16-3.595-3.314v-.032c0-1.967 1.58-3.27 3.796-3.27 1.58 0 2.93.497 4.03 1.38l-1.24 1.797c-.96-.667-1.906-1.07-2.82-1.07-.915 0-1.395.42-1.395.946v.03c0 .713.465.946 2.34 1.426 2.2.573 3.44 1.363 3.44 3.254v.03c0 2.154-1.643 3.363-3.983 3.363-1.642 0-3.3-.574-4.6-1.737M39.224 35.298h2.386v8.677h5.407v2.17h-7.793"/></g></svg>