<svg xmlns="http://www.w3.org/2000/svg" xmlns:xlink="http://www.w3.org/1999/xlink" width="64" height="63"><defs><path id="a" d="M0 0h63.238v62.931H0z"/></defs><g fill="none" fill-rule="evenodd"><mask id="b" fill="#fff"><use xlink:href="#a"/></mask><path fill="#B5CFE5" d="M2 53.59h59.238V13.675H2V53.59zm60.238 2H1a1 1 0 0 1-1-1V12.675a1 1 0 0 1 1-1h61.238a1 1 0 0 1 1 1V54.59a1 1 0 0 1-1 1z" mask="url(#b)"/><path fill="#B5CFE5" d="M13.256 55.59a1 1 0 0 1-1-1V12.677a1 1 0 1 1 2 0V54.59a1 1 0 0 1-1 1m12.246 0a1 1 0 0 1-1-1V12.676a1 1 0 1 1 2 0V54.59a1 1 0 0 1-1 1m12.245 0a1 1 0 0 1-1-1V12.676a1 1 0 1 1 2 0V54.59a1 1 0 0 1-1 1m12.246 0a1 1 0 0 1-1-1V12.676a1 1 0 1 1 2 0V54.59a1 1 0 0 1-1 1" mask="url(#b)"/><path fill="#B5CFE5" d="M62.238 24.154H1a1 1 0 1 1 0-2h61.238a1 1 0 1 1 0 2m0 10.479H1a1 1 0 1 1 0-2h61.238a1 1 0 1 1 0 2m0 10.48H1a1 1 0 1 1 0-2h61.238a1 1 0 1 1 0 2" mask="url(#b)"/><path fill="#ED2E26" d="M8.094 58.085a.998.998 0 0 1-.871-1.489l11.232-20.034a1 1 0 0 1 .869-.511h.003a1 1 0 0 1 .87.506l5.493 9.672 11.175-29.003a1 1 0 0 1 .933-.641h.01c.419.005.79.269.932.66l6.126 17.035 8.892-26.673a1 1 0 1 1 1.897.633L45.85 37.65a1 1 0 0 1-.937.685.982.982 0 0 1-.953-.661L37.766 20.45l-10.97 28.469a1.002 1.002 0 0 1-1.802.135l-5.661-9.968L8.967 57.574a1 1 0 0 1-.873.51" mask="url(#b)"/><path fill="#ED2E26" d="M2.849 59.622a3.31 3.31 0 1 1 6.621.001 3.31 3.31 0 0 1-6.621-.001M56.795.999l-4.707 5.629 5.58 1.504z" mask="url(#b)"/><path fill="#ED2E26" d="M53.858 6.07l2.637.71-.412-3.37-2.225 2.66zm3.81 3.062a1 1 0 0 1-.26-.035l-5.58-1.504a1.001 1.001 0 0 1-.508-1.607L56.027.357c.257-.306.67-.428 1.051-.317a.998.998 0 0 1 .71.838l.872 7.132a.997.997 0 0 1-.337.876.993.993 0 0 1-.655.246z" mask="url(#b)"/></g></svg>