<svg width="64" height="64" xmlns="http://www.w3.org/2000/svg"><g fill="none" fill-rule="evenodd"><path d="M27 63V43.112l18.322-18.777-2.002 16.02c-.536 4.282-2.483 8.263-5.534 11.315L27 63zM1 37h19.888l18.777-18.322-16.02 2.002c-4.282.536-8.263 2.483-11.315 5.534L1 37z" fill="#ED2E26"/><path d="M27.77 16.43c-5.868 5.87-10.048 12.795-12.578 20.2L27.37 48.81c7.405-2.53 14.33-6.71 20.2-12.58C57.287 26.513 62.41 13.904 63 1c-12.903.59-25.512 5.713-35.23 15.43" fill="#FEFEFE"/><path d="M27.77 16.43c-5.868 5.87-10.048 12.795-12.578 20.2L27.37 48.81c7.405-2.53 14.33-6.71 20.2-12.58C57.287 26.513 62.41 13.904 63 1c-12.903.59-25.512 5.713-35.23 15.43z" stroke="#B5D0E7" stroke-width="2" stroke-linecap="round" stroke-linejoin="round"/><path d="M51.686 19.385c-1.953 1.953-5.118 1.953-7.07 0-1.954-1.953-1.954-5.118 0-7.07 1.952-1.954 5.117-1.954 7.07 0 1.953 1.952 1.953 5.117 0 7.07" fill="#ED2E26"/><path d="M36.13 27.87L13.503 50.497" stroke="#ED2E26" stroke-width="2"/><path d="M13 42L3 52" fill="#FEFEFE"/><path d="M13 42L3 52" stroke="#B5D0E7" stroke-width="2" stroke-linecap="round" stroke-linejoin="round"/><path d="M22 51L12 61" fill="#FEFEFE"/><path d="M22 51L12 61M11 53L1 63" stroke="#B5D0E7" stroke-width="2" stroke-linecap="round" stroke-linejoin="round"/></g></svg>