<svg xmlns="http://www.w3.org/2000/svg" width="86" height="50" viewBox="-9.4 19 86 50"><path fill="#8DB1DA" d="M45.1 19H22c-1.4 0-2.4 1.1-2.4 2.3v13.4c0 1.3 1.2 2.3 2.4 2.3h23.2c1.4 0 2.4-1.1 2.4-2.3V21.3c-.1-1.2-1.1-2.3-2.5-2.3zM43.8 53.5H23.2c-1.2 0-2.2.8-2.2 2V67c0 1.1 1 2 2.2 2h20.6c1.3 0 2.2-.8 2.2-2V55.5c0-1.1-.9-2-2.2-2zM74.4 53.5H53.8c-1.3 0-2.2.8-2.2 2V67c0 1.1 1 2 2.2 2h20.6c1.3 0 2.2-.8 2.2-2V55.5c0-1.1-1-2-2.2-2zM13.4 53.5H-7.2c-1.3 0-2.2.8-2.2 2V67c0 1.1 1 2 2.2 2h20.6c1.2 0 2.2-.8 2.2-2V55.5c0-1.1-1.1-2-2.2-2zM35.1 43.3v-4.8h-3v4.8H1.6v8.5h3.1v-5.6h27.4v5.6h3v-5.6h27.3v5.6h3.2v-8.5"/></svg>