<svg data-name="Layer 1" xmlns="http://www.w3.org/2000/svg" viewBox="0 0 88.5 88.28"><title>student-cap-book</title><path fill="#07376a"  d="M87.61 88.28H.8a.8.8 0 0 1-.8-.8V38.22a.8.8 0 0 1 .8-.8h5.38a.8.8 0 0 1 0 1.61H1.59v47.64h85.23L86.91 39h-5.48a.8.8 0 0 1 0-1.61h6.27a.79.79 0 0 1 .56.24.81.81 0 0 1 .23.57l-.09 49.27a.8.8 0 0 1-.79.81z"/><path fill="#07376a"  d="M33.65 39h-15.9a.8.8 0 0 1 0-1.61h15.9a.8.8 0 0 1 0 1.61zM37.89 50.44H13.51a.8.8 0 0 1 0-1.61h24.38a.8.8 0 0 1 0 1.61zM37.89 61.86H13.51a.8.8 0 0 1 0-1.61h24.38a.8.8 0 0 1 0 1.61zM37.89 73.29H13.51a.8.8 0 0 1 0-1.61h24.38a.8.8 0 0 1 0 1.61zM75 61.86H50.61a.8.8 0 0 1 0-1.61H75a.8.8 0 0 1 0 1.61zM75 73.29H50.61a.8.8 0 0 1 0-1.61H75a.8.8 0 0 1 0 1.61zM70.75 39h-15.9a.8.8 0 0 1 0-1.61h15.9a.8.8 0 0 1 0 1.61zM75 50.44H50.61a.8.8 0 0 1 0-1.61H75a.8.8 0 0 1 0 1.61z"/><path fill="#07376a"  d="M81.25 81.85H7.15a.8.8 0 0 1-.8-.8v-51.4a.8.8 0 0 1 .8-.8h23.32a.8.8 0 0 1 0 1.61H7.95v49.79h72.51l.09-49.79H66.1a.8.8 0 0 1 0-1.61h15.24a.79.79 0 0 1 .56.24.8.8 0 0 1 .23.57L82 81a.8.8 0 0 1-.75.85z"/><path fill="#07376a"  d="M61.77 30.45h-4.28a.8.8 0 0 1 0-1.61h4.28a.8.8 0 0 1 0 1.61zM44.25 81.85a.8.8 0 0 1-.79-.8v-46a.8.8 0 1 1 1.59 0V81a.8.8 0 0 1-.8.85zM44.4 22.05A.79.79 0 0 1 44 22l-16.39-9a.81.81 0 0 1 .06-1.44l16.16-7.13a.79.79 0 0 1 1 .42.81.81 0 0 1-.41 1.06L29.8 12.34l15 8.21a.81.81 0 0 1 .32 1.09.79.79 0 0 1-.72.41z"/><path fill="#07376a"  d="M44.38 35.87c-8.93 0-14.48-3.52-14.48-9.19v-8.4a.8.8 0 1 1 1.59 0v8.4c0 5.59 6.66 7.58 12.89 7.58s12.89-2 12.89-7.58v-8a.8.8 0 1 1 1.59 0v8c0 5.67-5.55 9.19-14.48 9.19z"/><path fill="#07376a"  d="M45.47 27.12a.78.78 0 0 1-.38-.1L19 12.75a.81.81 0 0 1 .06-1.44L44.74.07a.78.78 0 0 1 .66 0l23.4 11.31a.81.81 0 0 1 .07 1.41L45.88 27a.8.8 0 0 1-.41.12zm-24.23-15l24.2 13.26L66.79 12.2 45 1.69z"/><path fill="#07376a"  d="M64 25.65a.8.8 0 0 1-.79-.79v-3.18c.06-3.33 0-4.05-1.29-4.66-3.83-1.75-7.12-3.46-7.15-3.48a.81.81 0 0 1-.34-1.08.79.79 0 0 1 1.07-.34s3.28 1.71 7.07 3.44c2.32 1.06 2.29 2.87 2.23 6.15v3.13a.8.8 0 0 1-.78.81z"/><path fill="#07376a"  d="M63.88 35.19A2.82 2.82 0 0 1 61 32.45V27a2.9 2.9 0 0 1 5.78 0v5.47a2.82 2.82 0 0 1-2.9 2.72zm0-9.34a1.23 1.23 0 0 0-1.3 1.15v5.47a1.31 1.31 0 0 0 2.6 0V27a1.23 1.23 0 0 0-1.3-1.16z"/></svg>