<svg width="64" height="55" viewBox="0 0 64 55" xmlns="http://www.w3.org/2000/svg"><g fill="none" fill-rule="evenodd"><path d="M52.25 38.5v.362l1.561-.008a9.39 9.39 0 004.593-1.213h0a8.596 8.596 0 004.371-7.486V29.9a8.596 8.596 0 00-4.372-7.487h0a8.587 8.587 0 00-4.626-1.101l-1.527.192M11.743 38.72V22c0-10.969 8.512-20.322 19.472-20.735C42.737.83 52.25 10.077 52.25 21.503v16.998M26.009 50.667c-.075 1.326.806 2.6 2.12 2.8.144.022.293.033.444.033h6.874c1.587 0 3.01-1.188 3.093-2.773a2.933 2.933 0 00-2.926-3.093H28.54c-1.363.015-2.43 1.197-2.506 2.557l-.026.476z" stroke="#B5D0E7" stroke-width="2" stroke-linecap="round" stroke-linejoin="round"/><path d="M31.775 6.5c8.284 0 15 6.717 15 15 0 8.285-6.716 15-15 15-8.284 0-15-6.715-15-15 0-8.283 6.716-15 15-15" fill="#ED2E26"/><path d="M25.775 50.5c-8.247-2.263-12.998-8.57-15-11.911" stroke="#B5D0E7" stroke-width="2" stroke-linecap="round" stroke-linejoin="round"/><path stroke="#FFF" stroke-width="2" stroke-linecap="round" stroke-linejoin="round" d="M25.043 22l4.931 4.932 9.047-9.047"/><path d="M11.775 38.5v.362l-1.561-.008A9.39 9.39 0 015.62 37.64h0a8.596 8.596 0 01-4.371-7.486V29.9a8.596 8.596 0 014.372-7.487h0a8.587 8.587 0 014.626-1.101l1.527.192" stroke="#B5D0E7" stroke-width="2" stroke-linecap="round" stroke-linejoin="round"/></g></svg>