<svg xmlns="http://www.w3.org/2000/svg" viewBox="0 0 145.8 195.9"><path fill="transparent" d="M89.5 31C75.2 41.3 54 31 54 31c-6.4 2.5-3.4 20.6-3.4 20.6-1.6-1.1-3.1-1.7-4.3-2 .4 4.1 1.2 8 2.4 11.6 3.8 1.6 8.2 2.3 12.8 2.1.6-1.4 1.9-2.4 3.4-2.7 2.5-.4 4.9 1.2 5.3 3.8.4 2.5-1.2 4.9-3.8 5.3-1.7.3-3.4-.5-4.4-1.8-.8.1-1.6.1-2.3.1-3 0-5.9-.4-8.7-1.2 4.9 10.1 12.9 16.7 22 16.7 13.8 0 25.2-15.3 26.7-34.9.2-1.3.3-2.6.3-3.9l-4.3 5C98 44.5 89.5 31 89.5 31zM19.7 188.9h106.4c4.4 0 8-3.6 8-8l10.6-61.8c0-4.3-3.6-7.9-8-7.9H9c-4.4 0-8 3.6-8 8l10.6 61.6c.1 4.5 3.7 8.1 8.1 8.1zm53.2-43.7c2.1 0 3.8 1.7 3.8 3.8 0 2.1-1.7 3.8-3.8 3.8-2.1 0-3.8-1.7-3.8-3.8 0-2.1 1.7-3.8 3.8-3.8z"/><path fill="transparent" d="M41.4 45.9c0 3.2-.4 6.2-1.1 8.6 1 1.5 2.3 2.9 3.8 4.1-.7-3-1.3-6-1.6-9.3 0-.3 0-.6-.1-.9-.1-1-.2-1.9-.3-2.9 0-.7-.1-1.3-.1-2 0-1.7.1-3.3.4-4.9 2.2-15.5 15-27.5 30.4-27.5 15.4 0 28.1 11.9 30.4 27.4.1.4.1.9.1 1.3.2-1.3.5-2.5.9-3.6-3.5-16.7-16.5-29.3-32-29.3S43.7 19.5 40 36.3c.9 2.6 1.4 6 1.4 9.6z"/><path fill="#fff" d="M48.5 83.1c-16 1.5-29.3 12.3-34.3 27h49.2c-6.6-9.7-14.8-22.6-14.9-27zM97.3 83.1c-.1 4.4-9.1 17.2-16.4 27h50.6c-5-14.6-18.2-25.5-34.2-27zM75.6 99.4c2.8-1.5 5-4.5 5-7.6 0 0-4.2 1.9-8.5 1.9s-8.5-1.9-8.5-1.9c0 3.1 2.2 6.1 5 7.6l-.6 10.7h8.4l-.8-10.7zM133.3 191.7H12.5c-1.2 0-2.1 1-2.1 2.1 0 1.2 1 2.1 2.1 2.1h120.8c1.2 0 2.1-.9 2.1-2.1 0-1.2-.9-2.1-2.1-2.1zM19.7 189.9h106.4c5 0 9-4.1 9-9l10.6-61.8c0-5-4.1-9-9-9H9c-5 0-9 4.1-9 9.1l10.6 61.6c0 5.1 4.1 9.1 9.1 9.1zM9 111.2h127.7c4.4 0 8 3.6 8 7.9l-10.6 61.8c0 4.4-3.6 8-8 8H19.7c-4.4 0-8-3.6-8-8.1L1.1 119.2c0-4.4 3.5-8 7.9-8zM35.5 60.7c.9 0 1.8-.6 2.6-1.5 1.8 2.1 4.2 4 7 5.4.3.2.7.3 1 .4 5.2 13.8 15.2 23.1 26.8 23.1 15.4 0 28.2-16.7 30.2-38.4.7 6.3 3 10.9 5.7 10.9 3.3 0 5.9-6.6 5.9-14.8 0-7-1.9-12.8-4.5-14.4C105 13.3 89.9 0 72.2 0 54.4 0 39.3 13.3 34.1 31.6c-2.6 1.6-4.5 7.4-4.5 14.4-.1 8.1 2.6 14.7 5.9 14.7zm64.1-12.1c-1.5 19.6-12.9 34.9-26.7 34.9-9.1 0-17.1-6.6-22-16.7 2.8.7 5.7 1.2 8.7 1.2.8 0 1.6-.1 2.3-.1 1 1.4 2.7 2.1 4.5 1.8 2.5-.4 4.2-2.8 3.8-5.3-.4-2.5-2.8-4.2-5.3-3.8-1.6.3-2.8 1.3-3.4 2.7-4.6.3-9-.4-12.8-2.1-1.2-3.6-2-7.5-2.4-11.6 1.2.3 2.7.9 4.3 2 0 0-3-18 3.4-20.6 0 0 21.2 10.3 35.5 0 0 0 8.5 13.4 6.1 18.7l4.3-5c0 1.4-.1 2.7-.3 3.9zM72.2 6.9c15.5 0 28.5 12.5 32.2 29.4-.4 1.1-.7 2.3-.9 3.6 0-.4-.1-.9-.1-1.3-2.2-15.5-15-27.4-30.4-27.4-15.4 0-28.1 11.9-30.4 27.5-.2 1.6-.4 3.2-.4 4.9 0 .7 0 1.3.1 2 .1 1 .2 1.9.3 2.9 0 .3 0 .6.1.9.3 3.2.8 6.3 1.6 9.3-1.6-1.2-2.9-2.6-3.8-4.1.7-2.4 1.1-5.4 1.1-8.6 0-3.7-.5-7-1.4-9.6 3.5-16.9 16.5-29.5 32-29.5z"/><g fill-rule="evenodd" clip-rule="evenodd"><path fill="#fff" d="M62.4 152.9v-12.4s4.3-3.1 10.5-3.1c6.1 0 10.5 3.1 10.5 3.1v12.4c.1 6.7-10.5 9.8-10.5 9.8s-10.6-3.1-10.5-9.8m2.2-10.9v10.3c-.1 5.5 8.3 8.1 8.3 8.1s8.4-2.6 8.4-8.1v-10.2s-3.5-2.6-8.3-2.6c-5 0-8.4 2.5-8.4 2.5"/><path fill="#fff" d="M72.7 154.3c-3.8 0-6.3-2.2-6.3-6.1 0-3.9 3-6.2 6.8-6.2s6.4 2.4 6.4 6.1c0 2.8-1.7 5-4.4 5.9 1.4.9 1.7 1 3.3 1.9-.8.2-1.6.5-2.4.9-.9-.7-1.7-1.3-2.6-2l-.8-.5zm-3.5-5.6c0 2.2 1 4.6 3.6 4.6 2.4 0 3.8-2.3 3.8-5.5 0-2.2-1-4.8-3.6-4.8-2.9 0-3.8 2.5-3.8 5.7"/></g></svg>