<svg xmlns="http://www.w3.org/2000/svg" viewBox="0 0 87.8 87.8"><path d="M43.9 87.8C19.7 87.8 0 68.1 0 43.9S19.7 0 43.9 0s43.9 19.7 43.9 43.9-19.7 43.9-43.9 43.9zm0-84.5C21.5 3.3 3.3 21.5 3.3 43.9s18.2 40.6 40.6 40.6c22.4 0 40.6-18.2 40.6-40.6S66.3 3.3 43.9 3.3z"/><path d="M35.7 59.3c-.7 0-1.3-.6-1.3-1.3 0-.7.6-1.3 1.3-1.3.7 0 1.3.6 1.3 1.3 0 .7-.6 1.3-1.3 1.3zm0-2.3c-.5 0-1 .4-1 1 0 .5.4 1 1 1 .5 0 1-.4 1-1 0-.5-.5-1-1-1zM66.5 56.7c-.4.2-.9.1-1.1-.3-.2-.4-.1-.9.3-1.1.4-.2.9-.1 1.1.3.3.4.1.9-.3 1.1zm-.7-1.2c-.3.2-.4.5-.2.8.2.3.5.4.8.2.3-.2.4-.5.2-.8-.1-.3-.5-.4-.8-.2z"/><path d="M49 43c-.4-.7-.5-1.4-.3-2.2.2-.7.7-1.3 1.4-1.7l.9-.5V24.4c0-.8-.7-1.4-1.4-1.4H21.9c-.8 0-1.4.6-1.4 1.4v35.1c0 .8.6 1.4 1.4 1.4h27.6c.8 0 1.4-.6 1.4-1.4V46.6L49 43zM35.7 59.9c-1.1 0-1.9-.9-1.9-1.9 0-1.1.9-1.9 1.9-1.9 1.1 0 1.9.9 1.9 1.9 0 1-.8 1.9-1.9 1.9zm12.5-6.2c0 .7-.7 1.3-1.5 1.3h-22c-.8 0-1.4-.6-1.4-1.3V27.1c0-.7.7-1.3 1.4-1.3h22.1c.8 0 1.5.6 1.5 1.3v26.6z"/><path d="M63.5 35c-.6-1-1.8-1.4-2.8-.8l-10.3 5.7c-1 .6-1.4 1.8-.8 2.8l9.5 17.2c.6 1 1.8 1.4 2.8.8L72.2 55c1-.6 1.4-1.8.8-2.8L63.5 35zm-9.2 3.9l3.7-2.1c.2-.1.4-.1.5.1.1.1 0 .3-.2.4l-3.7 2.1c-.2.1-.4.1-.5-.1-.1 0 0-.3.2-.4zm12.4 18.2c-.6.3-1.3.1-1.6-.5-.3-.6-.1-1.3.5-1.6.6-.3 1.3-.1 1.6.5.3.5.1 1.2-.5 1.6zm3.8-6.9c.3.5.1 1.1-.4 1.4L60.3 57c-.5.3-1.1.1-1.4-.4l-7.1-13c-.3-.5-.1-1.2.4-1.4l9.8-5.4c.5-.3 1.2-.1 1.4.4l7.1 13z"/></svg>