<svg xmlns="http://www.w3.org/2000/svg" xmlns:xlink="http://www.w3.org/1999/xlink" width="68" height="68"><defs><path id="a" d="M0 .07h67.93v67.929H0z"/></defs><g fill="none" fill-rule="evenodd"><path fill="#FFF" d="M1.063 34C1.063 15.808 15.81 1.061 34 1.061c18.19 0 32.937 14.747 32.937 32.937 0 18.192-14.746 32.938-32.937 32.938-18.19 0-32.938-14.746-32.938-32.938"/><mask id="b" fill="#fff"><use xlink:href="#a"/></mask><path fill="#B5D0E7" d="M33.966 2.336c-17.48 0-31.7 14.22-31.7 31.699s14.22 31.698 31.7 31.698c17.478 0 31.698-14.219 31.698-31.698S51.444 2.336 33.966 2.336m0 65.663C15.237 68 0 52.763 0 34.035 0 15.306 15.237.07 33.966.07 52.693.07 67.93 15.306 67.93 34.035c0 18.728-15.238 33.964-33.965 33.964" mask="url(#b)"/><path fill="#FFF" d="M11.688 33.469c0-12.01 9.77-21.782 21.78-21.782 12.011 0 21.782 9.771 21.782 21.782 0 12.01-9.77 21.781-21.781 21.781-12.01 0-21.782-9.772-21.782-21.781z"/><path fill="#B5D0E7" d="M34 13.412c11.351 0 20.588 9.236 20.588 20.59 0 11.351-9.237 20.587-20.588 20.587s-20.588-9.236-20.588-20.588c0-11.353 9.237-20.59 20.588-20.59m0-2.786c-12.909 0-23.375 10.465-23.375 23.376 0 12.91 10.466 23.374 23.375 23.374s23.375-10.464 23.375-23.374c0-12.91-10.466-23.376-23.375-23.376"/><path fill="#ED2E26" d="M23.375 34.531c0-6.16 4.995-11.156 11.156-11.156 6.162 0 11.157 4.996 11.157 11.156 0 6.162-4.995 11.157-11.157 11.157-6.161 0-11.156-4.995-11.156-11.157"/><path fill="#FFF" d="M30.528 38.851L21 28.19c-1.29-1.443-1.095-3.307.326-4.618a3.439 3.439 0 014.908.241l7.726 8.181L55.72 9.36c1.342-1.396 2.863-1.714 4.234-.356 1.373 1.361 2.254 3.562.914 4.955L36.53 39.277c-.654.68-2.493.73-3.429.73-1.021-.018-1.93-.436-2.573-1.156z"/><path fill="#ED2E26" d="M33.73 38.25h-.021a1.116 1.116 0 01-.81-.37l-9.233-10.235a1.132 1.132 0 01.078-1.594 1.116 1.116 0 011.585.078l8.43 9.344 22.753-23.445a1.118 1.118 0 011.587-.02c.443.435.452 1.151.02 1.597L34.534 37.91c-.212.219-.5.341-.804.341"/></g></svg>