<svg data-name="Layer 1" xmlns="http://www.w3.org/2000/svg" viewBox="0 0 59 58.9849"><title>target-arrow2</title><path fill="#07376a"  d="M47.724 15.355a.484.484 0 0 0-.086.68 26.043 26.043 0 0 1 1.27 30.103 26.365 26.365 0 0 1-5.44 6.055c-.13.114-.264.213-.463.36A26.058 26.058 0 0 1 10.578 11.76a25.54 25.54 0 0 1 13.52-5.654 25.65 25.65 0 0 1 10.385.93 25.297 25.297 0 0 1 8.71 4.503.484.484 0 0 0 .6-.76 26.265 26.265 0 0 0-9.035-4.673A26.61 26.61 0 0 0 23.992 5.145a26.498 26.498 0 0 0-14.028 5.867 27.026 27.026 0 0 0 33.678 42.273c.16-.118.31-.23.45-.353a27.317 27.317 0 0 0 5.627-6.268A27.012 27.012 0 0 0 48.4 15.44a.484.484 0 0 0-.678-.085z"/><path fill="#07376a"  d="M35.518 19.113a.483.483 0 1 0 .532-.807 15.96 15.96 0 0 0-4.338-2.01 16.427 16.427 0 0 0-15.03 2.974A16.38 16.38 0 0 0 37.1 44.89c.098-.072.19-.14.272-.213a16.366 16.366 0 0 0 3.44-21.55.483.483 0 1 0-.813.523 15.416 15.416 0 0 1-.03 16.703 15.604 15.604 0 0 1-3.22 3.585c-.076.065-.15.12-.27.21a15.414 15.414 0 0 1-19.18-24.13 15.46 15.46 0 0 1 14.14-2.793 14.986 14.986 0 0 1 4.08 1.888z"/><path fill="#07376a"  d="M24.018 28.28a4.666 4.666 0 0 1 2.47-1.033 4.756 4.756 0 0 1 1.27.026.484.484 0 1 0 .148-.956 5.68 5.68 0 0 0-1.524-.03 5.622 5.622 0 0 0-2.978 1.245 5.73 5.73 0 0 0 3.623 10.174 5.673 5.673 0 0 0 3.503-1.197c.046-.034.088-.066.114-.09a5.716 5.716 0 0 0 2.09-4.937.483.483 0 0 0-.964.083 4.752 4.752 0 0 1-1.74 4.107l-.087.068a4.765 4.765 0 0 1-5.925-7.46z"/><path fill="#07376a"  d="M53.768 9.497h-4.265V5.233a.484.484 0 0 0-.968 0V9.78L26.682 31.636a.484.484 0 1 0 .683.683L49.22 10.465h4.548a.484.484 0 1 0 0-.968z"/><path fill="#07376a"  d="M56.142 7.124h-4.265V2.858a.484.484 0 1 0-.967 0v4.75a.483.483 0 0 0 .484.483h4.748a.484.484 0 1 0 0-.966z"/><path fill="#07376a"  d="M58.516 4.75H54.25V.483a.484.484 0 1 0-.966 0v4.75a.483.483 0 0 0 .484.482h4.748a.484.484 0 1 0 0-.967z"/></svg>