<?xml version="1.0" encoding="utf-8"?>
<!-- Generator: Adobe Illustrator 26.0.1, SVG Export Plug-In . SVG Version: 6.00 Build 0)  -->
<svg version="1.1" id="Threat_Protection" xmlns="http://www.w3.org/2000/svg" xmlns:xlink="http://www.w3.org/1999/xlink" x="0px"
	 y="0px" viewBox="0 0 50 50" style="enable-background:new 0 0 50 50;" xml:space="preserve">
<style type="text/css">
	.st0{fill:none;stroke:#B5D0E7;stroke-width:1.5313;stroke-linecap:round;stroke-linejoin:round;}
	.st1{fill-rule:evenodd;clip-rule:evenodd;fill:#B5D0E7;}
	.st2{fill-rule:evenodd;clip-rule:evenodd;fill:#FFFFFF;}
	.st3{fill:#2E8BE0;}
	.st4{fill:none;stroke:#FEFEFE;stroke-width:1.5312;stroke-linecap:round;stroke-linejoin:round;}
	.st5{fill:none;stroke:#FEFEFE;stroke-width:1.5312;}
	.st6{fill:none;}
</style>
<path class="st0" d="M1.4,33.4H48v-31H1.4V33.4z M1.4,8H48"/>
<path class="st1" d="M5.6,5.1c0,0.4-0.3,0.8-0.7,0.8c-0.4,0-0.8-0.3-0.8-0.7l0,0c0-0.4,0.4-0.7,0.8-0.7C5.2,4.4,5.6,4.7,5.6,5.1
	 M8.1,5.1c0,0.4-0.3,0.8-0.7,0.8C7,5.9,6.7,5.6,6.6,5.1l0,0c0-0.4,0.4-0.7,0.8-0.7S8.1,4.7,8.1,5.1 M10.7,5.1c0,0.4-0.3,0.8-0.8,0.8
	c-0.4,0-0.8-0.3-0.8-0.8c0-0.4,0.3-0.8,0.8-0.8C10.4,4.3,10.7,4.7,10.7,5.1"/>
<path class="st1" d="M24.2,27.1l-8.7-15.6c-0.3-0.5-1-0.7-1.5-0.4c-0.2,0.1-0.3,0.2-0.4,0.4L5,27.1c-0.3,0.5-0.1,1.2,0.4,1.5
	c0.2,0.1,0.3,0.1,0.5,0.1h17.3C24,28.7,24.6,27.8,24.2,27.1"/>
<path class="st2" d="M13.6,25.8h1.9v-1.9h-1.9V25.8z M15.6,16.5L15,22.7h-0.9l-0.5-6.2V16h2V16.5z"/>
<g id="person">
	<path class="st3" d="M30.1,33.5v4.7c-2.3,2.6-9.6,2.3-10.2,5.9c-0.1,0.5,0.2,2.8,0.2,2.8h26.5c0,0,0.2-2.4,0.2-2.8
		c-0.6-3.5-7.8-3.3-10.2-5.9v-4.8L30.1,33.5L30.1,33.5z"/>
	<path class="st4" d="M30.1,33.5v4.7c-2.3,2.6-9.6,2.3-10.2,5.9c-0.1,0.5,0.2,2.8,0.2,2.8h26.5c0,0,0.2-2.4,0.2-2.8
		c-0.6-3.5-7.8-3.3-10.2-5.9v-4.8L30.1,33.5L30.1,33.5z"/>
	<path class="st3" d="M38.8,29.1c0-3.9-2.1-6.8-5.5-6.8c-3.3,0-5.5,3-5.5,6.7c0,5,2.9,8,5.5,8C35.8,37.2,38.8,34.1,38.8,29.1z"/>
	<path class="st5" d="M38.8,29.1c0-3.9-2.1-6.8-5.5-6.8c-3.3,0-5.5,3-5.5,6.7c0,5,2.9,8,5.5,8C35.8,37.2,38.8,34.1,38.8,29.1z"/>
</g>
<line class="st0" x1="25.8" y1="12.3" x2="43.2" y2="12.3"/>
<line class="st0" x1="25.8" y1="16" x2="43.2" y2="16"/>
<line class="st0" x1="25.8" y1="19.7" x2="34.5" y2="19.7"/>
<g id="Artboard_50x50_00000106825866526330841680000015857643500474394510_">
	<rect class="st6" width="50" height="50"/>
</g>
</svg>
