<svg xmlns="http://www.w3.org/2000/svg" viewBox="0 0 423 551.7"><circle fill="#ec1d29" cx="211.4" cy="64.2" r="9.2"/><circle fill="#ec1d29" cx="156.3" cy="64.2" r="9.2"/><circle fill="#ec1d29" cx="183.9" cy="36.7" r="9.2"/><circle fill="#ec1d29" cx="45.9" cy="119.4" r="9.2"/><circle fill="#ec1d29" cx="18.3" cy="147" r="9.2"/><circle fill="#ec1d29" cx="101.1" cy="119.4" r="9.2"/><circle fill="#ec1d29" cx="73.5" cy="91.8" r="9.2"/><circle fill="#ec1d29" cx="18.3" cy="91.8" r="9.2"/><circle fill="#ec1d29" cx="128.7" cy="91.8" r="9.2"/><circle fill="#ec1d29" cx="156.3" cy="119.4" r="9.2"/><circle fill="#ec1d29" cx="183.9" cy="91.8" r="9.2"/><circle fill="#ec1d29" cx="211.4" cy="119.4" r="9.2"/><circle fill="#ec1d29" cx="45.9" cy="174.6" r="9.2"/><circle fill="#ec1d29" cx="73.5" cy="147" r="9.2"/><circle fill="#ec1d29" cx="101.1" cy="174.6" r="9.2"/><circle fill="#ec1d29" cx="128.7" cy="147" r="9.2"/><circle fill="#ec1d29" cx="156.3" cy="174.6" r="9.2"/><circle fill="#ec1d29" cx="183.9" cy="147" r="9.2"/><circle fill="#ec1d29" cx="211.4" cy="174.6" r="9.2"/><circle fill="#ec1d29" cx="45.9" cy="229.8" r="9.2"/><circle fill="#ec1d29" cx="18.3" cy="257.4" r="9.2"/><circle fill="#ec1d29" cx="18.3" cy="202.2" r="9.2"/><circle fill="#ec1d29" cx="73.5" cy="202.2" r="9.2"/><circle fill="#ec1d29" cx="101.1" cy="229.8" r="9.2"/><circle fill="#ec1d29" cx="128.7" cy="202.2" r="9.2"/><circle fill="#ec1d29" cx="156.3" cy="229.8" r="9.2"/><circle fill="#ec1d29" cx="183.9" cy="202.2" r="9.2"/><circle fill="#ec1d29" cx="211.4" cy="229.8" r="9.2"/><circle fill="#ec1d29" cx="45.9" cy="285" r="9.2"/><circle fill="#ec1d29" cx="73.5" cy="257.4" r="9.2"/><circle fill="#ec1d29" cx="101.1" cy="285" r="9.2"/><circle fill="#ec1d29" cx="128.7" cy="257.4" r="9.2"/><circle fill="#ec1d29" cx="156.3" cy="285" r="9.2"/><circle fill="#ec1d29" cx="183.9" cy="257.4" r="9.2"/><circle fill="#ec1d29" cx="211.4" cy="285" r="9.2"/><circle fill="#ec1d29" cx="45.9" cy="340.2" r="9.2"/><circle fill="#ec1d29" cx="73.5" cy="312.6" r="9.2"/><circle fill="#ec1d29" cx="18.3" cy="312.6" r="9.2"/><circle fill="#ec1d29" cx="101.1" cy="340.2" r="9.2"/><circle fill="#ec1d29" cx="128.7" cy="312.6" r="9.2"/><circle fill="#ec1d29" cx="156.3" cy="340.2" r="9.2"/><circle fill="#ec1d29" cx="183.9" cy="312.6" r="9.2"/><circle fill="#ec1d29" cx="211.4" cy="340.2" r="9.2"/><circle fill="#ec1d29" cx="73.5" cy="367.8" r="9.2"/><circle fill="#ec1d29" cx="45.9" cy="395.4" r="9.2"/><circle fill="#ec1d29" cx="101.1" cy="395.4" r="9.2"/><circle fill="#ec1d29" cx="73.5" cy="422.9" r="9.2"/><circle fill="#ec1d29" cx="128.7" cy="367.8" r="9.2"/><circle fill="#ec1d29" cx="156.3" cy="395.4" r="9.2"/><circle fill="#ec1d29" cx="183.9" cy="367.8" r="9.2"/><circle fill="#ec1d29" cx="211.4" cy="395.4" r="9.2"/><circle fill="#ec1d29" cx="101.1" cy="450.5" r="9.2"/><circle fill="#ec1d29" cx="128.7" cy="422.9" r="9.2"/><circle fill="#ec1d29" cx="156.3" cy="450.5" r="9.2"/><circle fill="#ec1d29" cx="128.9" cy="478.1" r="9.2"/><circle fill="#ec1d29" cx="183.9" cy="422.9" r="9.2"/><circle fill="#ec1d29" cx="211.4" cy="450.5" r="9.2"/><circle fill="#ec1d29" cx="183.9" cy="478.1" r="9.2"/><circle fill="#ec1d29" cx="156.3" cy="505.7" r="9.2"/><circle fill="#ec1d29" cx="211.4" cy="505.7" r="9.2"/><path fill="#ec1d29" d="M413.8 73.4c-134.6 0-194.7-69.6-195.3-70.3-1.7-2.1-4.4-3.2-7-3.2-2.7 0-5.3 1.1-7 3.2-.6.6-60.7 70.3-195.3 70.3-5.1 0-9.2 4.1-9.2 9.2v175.6c0 95.9 43.1 187.1 115.4 243.9 29.2 22.9 60.6 39.5 93.5 49.2.8.3 1.7.4 2.5.4s1.7-.1 2.5-.4c32.9-9.7 64.4-26.3 93.5-49.2 72.3-56.8 115.4-148 115.4-243.9V82.6c.2-5-3.9-9.2-9-9.2zm-9.1 184.8c-.1 90.3-40.6 176.1-108.4 229.5-26.5 20.9-55 36-84.8 45.2-29.8-9.2-58.3-24.4-84.8-45.2C58.9 434.3 18.4 348.5 18.4 258.2h-.1V91.7c112.6-2.6 173.6-50.6 193.1-69.4C231 41.2 292 89.2 404.5 91.7v166.5z"/></svg>