
<svg width="95px" height="50px" viewBox="0 0 95 50" version="1.1" xmlns="http://www.w3.org/2000/svg" xmlns:xlink="http://www.w3.org/1999/xlink">
    <!-- Generator: Sketch 44.1 (41455) - http://www.bohemiancoding.com/sketch -->
    <desc>Created with Sketch.</desc>
    <defs>
        <polygon id="path-1" points="0.514169047 0.142135135 41.5318432 0.142135135 41.5318432 49.4591514 0.514169047 49.4591514 0.514169047 0.142135135"></polygon>
    </defs>
    <g id="12.1-13-App-detail" stroke="none" stroke-width="1" fill="none" fill-rule="evenodd">
        <g id="12.9-App-Detail---WAS" transform="translate(-185.000000, -1775.000000)">
            <g id="---Features-overview" transform="translate(185.000000, 1290.000000)">
                <g id="::-03" transform="translate(0.000000, 485.000000)">
                    <g id="icon" transform="translate(1.000000, 0.000000)">
                        <polyline id="Stroke-1" stroke="#B5D0E7" stroke-width="2" stroke-linecap="round" stroke-linejoin="round" points="19.2283951 43.3687784 -0.000464203572 24.2260216 19.2283951 5.08326486"></polyline>
                        <polyline id="Stroke-3" stroke="#B5D0E7" stroke-width="2" stroke-linecap="round" stroke-linejoin="round" points="73.6121646 43.3687784 92.8410239 24.2260216 73.6121646 5.08326486"></polyline>
                        <g id="Group-7" transform="translate(24.757524, 0.020335)">
                            <mask id="mask-2" fill="white">
                                <use xlink:href="#path-1"></use>
                            </mask>
                            <g id="Clip-6"></g>
                            <path d="M21.0191378,0.141827027 C34.3758219,0.141827027 41.0897529,7.35617838 41.0897529,7.35617838 C41.0897529,7.35617838 41.8587835,12.6972324 41.368275,23.4532865 C40.6301913,39.7013676 21.0237798,49.4591514 21.0237798,49.4591514 C21.0237798,49.4591514 1.4158209,39.7013676 0.677737216,23.4532865 C0.187228774,12.6972324 0.956259359,7.35617838 0.956259359,7.35617838 C0.956259359,7.35617838 7.66554832,0.141827027 21.0191378,0.141827027" id="Fill-5" fill="#EC3127" mask="url(#mask-2)"></path>
                        </g>
                        <path d="M50.5864296,17.7813243 L50.5864296,17.7813243 C51.2440513,18.4345135 51.2440513,19.4897838 50.5864296,20.142973 L38.6749659,32.0035946 C38.0188915,32.6567838 36.954318,32.6567838 36.3013383,32.0035946 C35.6452639,31.3519459 35.6452639,30.2951351 36.3013383,29.6419459 L48.2143493,17.7813243 C48.8704237,17.1281351 49.9319025,17.1281351 50.5864296,17.7813243" id="Fill-8" fill="#FFFFFF"></path>
                        <path d="M49.39714,18.9638432 C51.3638158,20.9249514 54.555989,20.9203297 56.5288542,18.9546 C57.7264994,17.7637622 58.1984397,16.1261676 57.9446751,14.5825459 C57.8982548,14.2913838 56.9296166,15.2573027 55.0403081,17.4741405 L51.4922455,16.8810324 L51.0079264,13.4579514 C53.2747872,11.5353568 54.2681828,10.5447892 53.9896607,10.4908703 C52.386611,10.1658162 50.6535843,10.6264378 49.4079714,11.866573 C47.4351062,13.8307622 47.4304642,17.0073568 49.39714,18.9638432" id="Fill-10" fill="#FFFFFF"></path>
                        <polygon id="Fill-12" fill="#FFFFFF" points="39.0432341 17.7873324 41.4153143 15.4256838 54.411467 28.3600622 52.0378394 30.7247919"></polygon>
                        <path d="M52.7547244,31.4385243 L55.1298994,29.0768757 L55.9453503,29.8887405 C56.5998774,30.5419297 56.5998774,31.6002811 55.9453503,32.2503892 C55.2892759,32.9035784 54.2277971,32.9035784 53.5717227,32.2503892 L52.7547244,31.4385243 Z" id="Fill-14" fill="#FFFFFF"></path>
                        <polygon id="Fill-16" fill="#FFFFFF" points="38.4297117 17.1795892 36.9535443 13.2296432 40.8048866 14.8148595"></polygon>
                    </g>
                </g>
            </g>
        </g>
    </g>
</svg>