<svg width="70" height="55" viewBox="0 0 70 55" xmlns="http://www.w3.org/2000/svg" xmlns:xlink="http://www.w3.org/1999/xlink"><defs><path id="a" d="M0 54.867h69.453V.001H0z"/></defs><g fill="none" fill-rule="evenodd"><path d="M6.055 39.543c0-2.255 1.818-4.083 4.06-4.083 2.243 0 4.06 1.828 4.06 4.083s-1.817 4.082-4.06 4.082c-2.242 0-4.06-1.827-4.06-4.082" fill="#ED2E26"/><path d="M6.055 39.543c0-2.255 1.818-4.083 4.06-4.083 2.243 0 4.06 1.828 4.06 4.083s-1.817 4.082-4.06 4.082c-2.242 0-4.06-1.827-4.06-4.082z" stroke="#ED2E26" stroke-width="2.188" stroke-linecap="round" stroke-linejoin="round"/><path d="M1.094 53.768s.79-5.898 3.495-7.373c0 0 1.128-.68 3.158-.34 0 0 .79.227 2.368.227 1.578 0 2.368-.227 2.368-.227 2.03-.34 3.158.34 3.158.34 2.705 1.475 3.494 7.373 3.494 7.373H1.094z" fill="#ED2E26"/><path d="M1.094 53.768s.79-5.898 3.495-7.373c0 0 1.128-.68 3.158-.34 0 0 .79.227 2.368.227 1.578 0 2.368-.227 2.368-.227 2.03-.34 3.158.34 3.158.34 2.705 1.475 3.494 7.373 3.494 7.373H1.094z" stroke="#ED2E26" stroke-width="2.188" stroke-linecap="round" stroke-linejoin="round"/><path d="M27.982 43.225a2.69 2.69 0 012.681-2.697 2.69 2.69 0 012.682 2.697 2.69 2.69 0 01-2.682 2.697 2.69 2.69 0 01-2.681-2.697zM36.624 53.768s-.522-3.897-2.31-4.87c0 0-.745-.45-2.086-.226 0 0-.52.15-1.564.15-1.043 0-1.565-.15-1.565-.15-1.34-.224-2.085.226-2.085.226-1.788.973-2.31 4.87-2.31 4.87M42.947 43.225a2.69 2.69 0 012.682-2.697 2.69 2.69 0 012.682 2.697 2.69 2.69 0 01-2.682 2.697 2.69 2.69 0 01-2.682-2.697zM51.589 53.768s-.522-3.897-2.309-4.87c0 0-.746-.45-2.087-.226 0 0-.52.15-1.564.15-1.042 0-1.565-.15-1.565-.15-1.34-.224-2.085.226-2.085.226-1.788.973-2.31 4.87-2.31 4.87M57.912 43.225a2.69 2.69 0 012.682-2.697 2.69 2.69 0 012.682 2.697 2.69 2.69 0 01-2.682 2.697 2.69 2.69 0 01-2.682-2.697zM66.554 53.768s-.521-3.897-2.309-4.87c0 0-.745-.45-2.086-.226 0 0-.521.15-1.564.15-1.043 0-1.565-.15-1.565-.15-1.34-.224-2.085.226-2.085.226-1.789.973-2.31 4.87-2.31 4.87" stroke="#B5CFE5" stroke-width="2.188" stroke-linecap="round" stroke-linejoin="round"/><path d="M36.39 6.643H22.567a.669.669 0 01-.665-.67v-.046c0-.368.298-.67.665-.67H36.39a.67.67 0 01.666.67v.046c0 .369-.3.67-.666.67M43.831 12.463H22.567a.67.67 0 01-.667-.67v-.046c0-.368.3-.67.667-.67H43.83a.67.67 0 01.666.67v.046c0 .369-.3.67-.666.67M43.831 9.553H22.567a.67.67 0 01-.667-.67v-.046c0-.368.3-.67.667-.67H43.83a.67.67 0 01.666.67v.046c0 .369-.3.67-.666.67" fill="#B5CFE5"/><path d="M37.884 23.272c0 4.44-3.578 8.037-7.992 8.037s-7.991-3.598-7.991-8.037c0-4.439 3.577-8.038 7.991-8.038v8.038h7.992z" fill="#ED2E26"/><path d="M31.27 13.849c4.414 0 7.992 3.598 7.992 8.037H31.27V13.85z" fill="#ED2E26"/><mask id="b" fill="#fff"><use xlink:href="#a"/></mask><path fill="#B5CFE5" mask="url(#b)" d="M49.457 31.032h2.205v-11.64h-2.205zM53.04 31.032h2.205V5.257H53.04zM56.622 31.032h2.205V5.257h-2.205zM60.205 31.032h2.205V13.848h-2.205z"/><path d="M66.84 1.1H19.01c-.836 0-1.518.687-1.518 1.528v29.925c0 .84.682 1.527 1.518 1.527h3.25l-3.06 5.389 9.525-5.389H66.84c.835 0 1.519-.686 1.519-1.527V2.628c0-.84-.684-1.528-1.52-1.528z" stroke="#B5CFE5" stroke-width="2.188" stroke-linecap="round" stroke-linejoin="round" mask="url(#b)"/></g></svg>