<svg xmlns="http://www.w3.org/2000/svg" xmlns:xlink="http://www.w3.org/1999/xlink" width="55" height="54" viewBox="0 0 55 54"><defs><path id="a" d="M0 52.87V.15h54.128V52.87H0z"/></defs><g fill="none" fill-rule="evenodd"><g transform="translate(0 .73)"><mask id="b" fill="#fff"><use xlink:href="#a"/></mask><path fill="#B5D0E5" d="M27.064 43.396c-9.225 0-16.73-7.575-16.73-16.886 0-9.31 7.505-16.886 16.73-16.886 9.225 0 16.73 7.575 16.73 16.886 0 9.31-7.505 16.886-16.73 16.886M52.14 23.674c-.532-.19-1.035-.45-1.5-.77-2.947-2.04-3.7-6.105-1.68-9.08l.053-.077c.51-.748.653-1.69.393-2.556-.473-1.578-2.128-2.47-3.692-1.994-.554.17-1.13.262-1.708.276-3.533.08-6.463-2.745-6.543-6.312l-.003-.104c-.02-.91-.452-1.756-1.172-2.304-1.296-.99-3.142-.73-4.124.58-.355.477-.777.902-1.248 1.262-2.816 2.146-6.825 1.583-8.952-1.26C21.42.606 20.578.173 19.678.15c-1.623-.037-2.973 1.263-3.01 2.904l-.002.104c-.014.585-.105 1.165-.274 1.724-1.022 3.415-4.596 5.346-7.98 4.312-.86-.262-1.79-.116-2.532.396-1.347.933-1.692 2.793-.765 4.155l.053.077c.318.47.574.977.76 1.513 1.195 3.4-.57 7.133-3.94 8.337-.848.303-1.516.976-1.818 1.832-.547 1.567.264 3.286 1.818 3.84.53.19 1.035.45 1.5.77 2.948 2.04 3.698 6.104 1.68 9.08l-.053.077c-.51.75-.653 1.688-.393 2.556.473 1.58 2.128 2.47 3.69 1.993.556-.168 1.13-.262 1.71-.275 3.533-.08 6.463 2.746 6.544 6.313l.002.103c.02.91.452 1.757 1.172 2.305 1.295.988 3.143.73 4.124-.58.354-.478.776-.9 1.248-1.262 2.816-2.146 6.826-1.58 8.952 1.26.545.725 1.386 1.162 2.285 1.182 1.623.038 2.973-1.264 3.01-2.905l.003-.102c.014-.583.104-1.163.272-1.724 1.022-3.415 4.596-5.345 7.98-4.313.86.262 1.79.118 2.532-.394 1.348-.934 1.692-2.794.766-4.157l-.053-.077c-.318-.47-.574-.978-.76-1.514-1.194-3.4.57-7.132 3.94-8.335.847-.304 1.515-.977 1.817-1.832.547-1.568-.264-3.287-1.817-3.84" mask="url(#b)"/></g><path fill="#B5D0E5" d="M33.664 35.086H20.73v-3.85c0-2.08 1.67-3.766 3.73-3.766h5.473c2.06 0 3.73 1.686 3.73 3.766v3.85zM27.246 19.13c1.834 0 3.32 1.515 3.32 3.387 0 1.87-1.486 3.387-3.32 3.387-1.832 0-3.317-1.516-3.317-3.387 0-1.872 1.484-3.388 3.316-3.388zm-.182-7.014c-8.262 0-14.985 6.784-14.985 15.124S18.8 42.364 27.063 42.364 42.048 35.58 42.048 27.24c0-8.34-6.722-15.124-14.984-15.124z"/></g></svg>