<svg xmlns="http://www.w3.org/2000/svg" width="52" height="52" viewBox="0 0 52 52"><g fill="none"><path fill="#FFF" d="M20.3 50.9V40.2h5.2v-7.3h.3v7.3H31v10.7H20.3zm.3-.3h10v-10h-10v10z"/><path fill="#B5D0E4" d="M26.2 32.6h-1v7.3H20v11.4h11.4V39.9h-5.1v-7.3h-.1zM21 50.2v-9.3h9.3v9.3H21z"/><path fill="#B5D0E4" d="M31.3 0H19.9v11.4h5.2V19h-4.7v-6.3h-5V7.5H4.1v11.4h11.4v-5.2h4V19h-2v6.2h-6V20H0v11.4h11.4v-5.1h6v6.2h2v5.3h-4v-5.2H4.1V44h11.4v-5.2h5v-6.3h10.4v6.3h5V44h11.4V32.6H36v5.2h-4v-5.3h2v-6.2h5.9v5.1h11.4V20H39.9v5.2H34V19h-2v-5.3h4v5.2h11.4V7.5H36v5.2h-5V19h-4.8v-7.6h5.1V0zM21 10.3V1h9.3v9.3H21zm16 7.5V8.5h9.3v9.3H37zm-31.9 0V8.5h9.3v9.3H5.1zm13.3 13.6V20.1h14.5v11.4H18.4v-.1zm22.5-1v-9.3h9.3v9.3h-9.3zM1 30.4v-9.3h9.3v9.3H1zM37 43v-9.3h9.3V43H37zM5.1 43v-9.3h9.3V43H5.1z"/><g fill="#B5D0E4"><path d="M25.6 21.2c-4.2 0-6 4.6-6 4.6s1.3 4.6 6 4.6 6-4.6 6-4.6-1.8-4.6-6-4.6zm0 7.2c-1.4 0-2.6-1.2-2.6-2.6 0-1.4 1.2-2.6 2.6-2.6 1.4 0 2.6 1.2 2.6 2.6 0 1.5-1.2 2.6-2.6 2.6z"/><path d="M25.7 15.2c-5.9 0-10.7 4.7-10.7 10.5 0 5.9 4.7 10.7 10.5 10.7 5.9 0 10.7-4.7 10.7-10.5.1-5.8-4.6-10.6-10.5-10.7zm6.9 10.9c-.5 1.9-2.7 5.4-7 5.4s-6.5-3.5-7-5.4c-.1-.2-.1-.5 0-.7.1-.2 2.1-5.3 7-5.3s6.9 5.1 7 5.3c.1.3.1.5 0 .7z"/></g></g></svg>