<svg xmlns="http://www.w3.org/2000/svg" viewBox="0 0 87.8 87.8"><path d="M43.9 87.8C19.7 87.8 0 68.1 0 43.9S19.7 0 43.9 0s43.9 19.7 43.9 43.9-19.7 43.9-43.9 43.9zm0-84.5C21.5 3.3 3.3 21.5 3.3 43.9s18.2 40.6 40.6 40.6c22.4 0 40.6-18.2 40.6-40.6S66.3 3.3 43.9 3.3z"/><path d="M63 64.3h.8v2.4h.3v-2.4h.8V64H63M67.4 64l-.8 1.8c0 .1-.1.2-.1.3 0-.1-.1-.2-.1-.3l-.9-1.8h-.4v2.7h.3v-1.8-.5c0 .1.1.2.1.3l.9 2h.2l.9-2c0-.1.1-.1.1-.3v2.3h.3V64h-.5zM20 58.6l14.9 3V44.8H20M20 42.9h14.9V26.2l-14.9 3M37.3 42.9h24.1V21l-24.1 4.8M37.3 62l24.1 4.8v-22H37.3"/></svg>