<svg width="34" height="34" viewBox="0 0 34 34" xmlns="http://www.w3.org/2000/svg"><g fill="#ED2E26" fill-rule="evenodd"><path d="M11.542 24.5c-.42 0-.841-.13-1.121-.393a1.355 1.355 0 010-1.962l12.056-11.252c.56-.524 1.542-.524 2.102 0 .561.523.561 1.439 0 1.962L12.523 24.107c-.28.262-.56.393-.98.393z" fill-rule="nonzero"/><rect fill-opacity=".099" width="34" height="34" rx="4"/><path d="M23.598 24.5c-.42 0-.841-.13-1.121-.393L10.42 12.855a1.355 1.355 0 010-1.962c.56-.524 1.542-.524 2.102 0L24.58 22.145c.561.523.561 1.44 0 1.962-.14.262-.56.393-.98.393z" fill-rule="nonzero"/></g></svg>