<svg version="1.1" id="Layer_1" xmlns="http://www.w3.org/2000/svg" x="0" y="0" viewBox="0 0 48 48" xml:space="preserve"><style>.st1{fill:#72c163}.st2{fill:none;stroke:#72c163;stroke-width:.1495;stroke-miterlimit:10}.st3{fill:#fff}</style><path d="M30.2 11.5V2.1H8.4V32h30.9V12.6h-8c-.6 0-1.1-.5-1.1-1.1z" fill="none"/><path class="st1" d="M39.4 9.1l-6.1-7L31.4 0H8.6c-1 0-1.9.8-1.9 1.9v44.3c0 1 .8 1.9 1.9 1.9h30.8c1 0 1.9-.8 1.9-1.9V11.3l-1.9-2.2zm0 22.8h-31V2.1h21.8v9.4c0 .6.5 1.1 1.1 1.1h8v19.3z"/><path class="st2" d="M15.5 14.9h17.4v10.3H15.5zM15.5 17.6h17.3M21.3 14.9v10.3M26.9 14.9v2.7M15.5 20h5.8M15.4 22.6h5.9"/><path class="st1" d="M23.6 21.1h1.5v4.1h-1.5zM26.2 19.7h1.5v5.5h-1.5zM28.9 18.3h1.5v6.9h-1.5z"/><g><path class="st3" d="M19.9 33.7l-3.8 5.5L20 45h-2.9l-2.5-3.9-2.5 3.9H9.2l3.9-5.7-3.8-5.6h2.9l2.4 3.7 2.4-3.7h2.9zM21.1 33.7h2.5v9h5.6V45h-8.1V33.7zM29.8 43.4l1.5-1.8c1 .8 2.1 1.4 3.4 1.4 1 0 1.6-.4 1.6-1.1 0-.6-.4-1-2.3-1.4-2.3-.6-3.7-1.2-3.7-3.5 0-2 1.6-3.4 4-3.4 1.6 0 3.1.5 4.2 1.4l-1.3 1.9c-1-.7-2-1.1-2.9-1.1-1 0-1.5.4-1.5 1 0 .7.5 1 2.4 1.5 2.3.6 3.6 1.4 3.6 3.4 0 2.2-1.7 3.5-4.1 3.5-1.8 0-3.5-.6-4.9-1.8z"/></g></svg>