<svg xmlns="http://www.w3.org/2000/svg" width="48" height="48" viewBox="0 0 550.801 550.801"><path fill="#2E8BE0" d="M475.084 131.986c-.021-2.525-.828-5.015-2.562-6.992L366.324 3.684c-.031-.029-.062-.045-.084-.071-.633-.712-1.371-1.289-2.151-1.803a10.952 10.952 0 00-2.837-1.313c-.201-.058-.38-.145-.58-.188A10.507 10.507 0 00358.193 0H97.2C85.282 0 75.6 9.688 75.6 21.601v507.6c0 11.907 9.682 21.601 21.6 21.601h356.4c11.908 0 21.601-9.693 21.601-21.601V133.197c-.001-.406-.064-.804-.117-1.211zm-297.58 378.557l-10.676-21.331c-4.369-8.211-7.162-14.328-10.481-21.151h-.345c-2.447 6.823-5.424 12.94-9.094 21.151l-9.79 21.331h-30.406l34.077-59.611-32.854-58.197h30.586l10.304 21.494c3.499 7.172 6.117 12.941 8.92 19.575h.346c2.797-7.509 5.065-12.751 8.037-19.575l9.967-21.494h30.409l-33.212 57.507 34.965 60.302h-30.753zm146.485 0l-1.751-45.099c-.527-14.164-1.055-31.292-1.055-48.421h-.517c-3.67 15.035-8.563 31.815-13.109 45.621l-14.333 45.969h-20.812l-12.579-45.615c-3.839-13.807-7.857-30.586-10.666-45.975h-.345c-.696 15.905-1.226 34.088-2.101 48.764l-2.089 44.751h-24.647l7.522-117.814h35.479l11.538 39.335c3.671 13.626 7.341 28.308 9.956 42.119h.527c3.322-13.627 7.341-29.184 11.19-42.293l12.583-39.161h34.783l6.465 117.814h-26.04v.005zm120.098 0H370.49V392.734h26.747v95.438h46.85v22.371zm9.513-143.796H97.2V21.601h250.192v110.51c0 5.962 4.842 10.8 10.801 10.8H453.6v223.836z"/><path fill="#2E8BE0" d="M118.078 234.885l62.337 28.959V250.08l-47.142-20.651v-.263l47.142-20.648v-13.767l-62.337 28.959zm258.751-26.367l48.189 20.648v.263l-48.189 20.651v13.764l62.338-28.572v-11.95l-62.338-28.571zm-99.446-53.602c-41.08 0-74.382 33.302-74.382 74.379 0 41.077 33.302 74.382 74.382 74.382s74.377-33.305 74.377-74.382c0-41.078-33.297-74.379-74.377-74.379zm27.954 29.522l5.321-3.56s-2.236-5.729-1.856-8.537c1.287-.628 6.528 2.122 10.953 6.781-2.979 11.093-9.972 9.77-9.972 9.77s-5.115-.123-4.446-4.454zm-44.835 65.492c-.33 1.661-2.333 5.664-3.663 8.321-1.329 2.661-1.993 3.665-3.667 4.994-1.667 1.35-2.655 3.665-2.655 3.665l-.335 5.656s.654 4.669 1.653 6.336c.996 1.655-3.565 11.574-3.565 11.574-2.895-.574-4.503-3.928-5.508-6.575-1.005-2.674-2.328-4.093-1.993-7.077.335-3.001-2.587-4.583-3.576-6.246-.991-1.686-2.331-4-2.331-5.664 0-1.669-3.657-4.002-3.657-4.002s-6.663-2.996-7.662-4.319c-1-1.334-2.01-7.011-2.334-9.326-.34-2.323.994-8.316.994-8.316s2.689-2.02 1-3.667c-1.669-1.661-1.988-6.004-1.988-6.004l-3-3.322s-2.339-3.33-2.668-5c-.334-1.663 0-2.663.335-4.329.33-1.674-.665-4.662-.665-6.32 12.443-30.504 33.302-37.621 33.302-37.621l1.669 6.977s-3.662 1.004-5.647.345c-2.009-.669-3.02-.669-3.02-.669l-2.652 3.657s-1.015 2.336-1.345 3.67.665 3.322.665 3.322 4.657.335 4.657-.994c0-1.334-.654-1.999-.654-1.999l-.67-2.331s3.02-1.669 10.982-1.012c7.994.675 5.007 6.331 8.345 7.675 3.331 1.332-2.679 5.988-4.008 8.646-1.329 2.666-3.327-3.333-3.327-3.333s1.999-2.305-1.326-2.993c-3.333-.651-5.537 5.996-3.853 5.671 1.659-.329 3.518 1.793 3.177 3.449-.334 1.669-.334 1.54-1.999 5.197-1.664 3.66-5.281 6.371-5.281 6.371s-1.701-1.037-.717.967c1.021 1.994-.33 6.653-.33 7.987 0 1.323-3.997-2.334-4.651-5.672-.68-3.309-4.577-.424-5.906-.084-1.334.34-3.765-.58-4.406-2.231-.68-1.674-6.681 3.32-8.351 4.314-1.656 1.004-.981 3.673 1.669 2.339 2.663-1.334 4.991-.335 4.332 2.344-.659 2.645-3.317.999-2.993 2.645.33 1.664 2.993 3.333 3.652 5.672.669 2.32 7.008.335 9.001-.67 1.991-1.01 7.657-1.999 8.316.67.691 2.666 7.003 3.649 9.329 4.308 2.339.669 7 1.004 9.671 3.667 2.654 2.671-1.994 7.668-2.346 9.337zm14.982-77.923c-.338 3.338-5.65 7.657-4.989 9.002.669 1.345 0 7.037-4.659 2.035-4.665-4.994-9.337-6.689-8.991-10.033.082-.665 4.822-1.706 4.898-2.874 7.062-6.565 18.339-5.215 19.203-3.66-2.023 3.299-5.124 2.197-5.462 5.53zm57.861 22.362c4.503 7.726 11.085 28.334 8.653 32.015-1.461-.659-2.689-1.208-2.689-1.208h-8.886l5.321 6.226s2.578 3.778 6.228 3.536c-2.404 27.849-25.645 45.736-25.645 45.736-3.549-3.555-1.771-6.65-1.771-6.65l.996-5.342.564-8.985s0-9.313-8.886-4.892c-9.545 2.437-5.568 2.437-15.203 3.104-9.656.67-8.058-19.686-8.058-19.686 0-30.473 23.366-7.475 23.366-7.475 13.331 8.867 15.108-7.354 15.108-7.354l9.761-3.538.887-4.448-1.419-6.204-14.186-5.854s-1.366 4.608 2.272 10.275c0 0-1.213 6.436-4.197 4.772l-8.222-4.129s-2.769-1.2-7.203 1.474c-4.451 2.655-11.976-.132-11.976-.132s.611-4.464 5.283-6.782l3.818-2.521s-1.002-4.559-.127-8.105c.876-3.549 2.447-.442 5.991-3.111 3.549-2.649 5.996 5.216 11.316 4.333 5.321-.891 2.669-1.777 6.229-3.549 3.56-1.777 6.217 3.549 6.217 3.549l7.088.883c.003.005-1.105-8.019-.63-5.938z"/></svg>