<svg xmlns="http://www.w3.org/2000/svg" viewBox="0 0 140 67"><g fill="none" fill-rule="evenodd"><path fill="#ED2E26" d="M76 47.8c-5.5 0-10-1.8-14.2-5.6l-.3-.2 2.9-3.4.3.3c3.7 3.4 7.1 4.7 11.5 4.7 4.3 0 7.2-2.2 7.2-5.4V38c0-2.8-1.4-4.6-8.6-6.1C67.7 30.4 63 28 63 21.7v-.1c0-5.6 4.9-9.7 11.6-9.7 4.9 0 8.5 1.3 12.3 4.3l.3.2-2.7 3.6-.3-.2c-3-2.5-6.1-3.6-9.6-3.6-4.1 0-6.9 2.1-6.9 5.1v.1c0 2.9 1.4 4.7 9 6.3 8 1.7 11.4 4.8 11.4 10.1v.1c0 5.8-5 9.9-12.1 9.9m33.3.1c-10 0-17.5-7.7-17.5-18v-.1c0-10.1 7.8-18.1 17.7-18.1 6.8 0 10.6 2.7 13.6 5.5l.3.3-3.2 3.4-.3-.3c-3.4-3.2-6.5-4.6-10.5-4.6-7.3 0-12.9 5.9-12.9 13.7v.1c0 7.7 5.7 13.8 12.9 13.8 4.8 0 7.8-1.9 10.8-4.8l.3-.3 3.1 3-.3.3c-3.1 3-7.1 6.1-14 6.1"/><path d="M126.2 36.1h12.9v9.7h-12.9z"/><path fill="#ED2E26" fill-rule="nonzero" d="M126.609 45.416c.041-.765.2-1.43.474-1.997.275-.566.812-1.08 1.61-1.544l1.19-.688c.534-.31.908-.575 1.123-.794.339-.343.508-.736.508-1.178 0-.517-.155-.927-.465-1.231-.31-.304-.723-.456-1.24-.456-.765 0-1.294.29-1.588.868-.157.31-.244.74-.26 1.29h-1.135c.012-.773.155-1.403.428-1.891.484-.86 1.337-1.29 2.561-1.29 1.017 0 1.76.275 2.23.825.469.55.703 1.161.703 1.835 0 .711-.25 1.32-.75 1.823-.29.294-.808.65-1.557 1.067l-.85.471a5.503 5.503 0 00-.954.64c-.414.359-.674.758-.782 1.196h4.85v1.054h-6.096zm7.063 0c.041-.765.2-1.43.475-1.997.274-.566.81-1.08 1.609-1.544l1.19-.688c.534-.31.908-.575 1.123-.794.339-.343.508-.736.508-1.178 0-.517-.155-.927-.465-1.231-.31-.304-.723-.456-1.24-.456-.765 0-1.294.29-1.588.868-.157.31-.243.74-.26 1.29h-1.135c.013-.773.155-1.403.428-1.891.484-.86 1.337-1.29 2.561-1.29 1.017 0 1.76.275 2.23.825.469.55.703 1.161.703 1.835 0 .711-.25 1.32-.75 1.823-.29.294-.808.65-1.557 1.067l-.85.471a5.503 5.503 0 00-.954.64c-.413.359-.674.758-.781 1.196h4.849v1.054h-6.096z"/><path fill="#EE3127" fill-rule="nonzero" d="M29 0c18.3 0 27.4 9.8 27.4 9.8s1 7.2.4 21.8c-1 22-27.8 35.2-27.8 35.2S2.2 53.6 1.2 31.6C.5 17 1.6 9.7 1.6 9.7S10.7 0 29 0z"/><path fill="#FFF" fill-rule="nonzero" d="M15.3 28.9c0-7.8 6.1-14.1 13.7-14.1S42.7 21 42.7 28.5c0 6-5.2 11-9.2 13.6 1.6.9 5 1.8 8.3 2.1 4.8-3.7 7.7-9.4 7.7-15.7C49.5 17.2 40.3 8 29 8S8.5 17.2 8.5 28.5c0 6.8 2.8 12.9 8.2 17.5 5 4.3 12.4 7.2 20.7 8.6 1.8-1 4.9-4 6.1-5.7-7-.9-13.6-2.6-18-4.9-6.8-3.5-10.2-8.6-10.2-15.1z"/></g></svg>