<svg xmlns="http://www.w3.org/2000/svg" width="48" height="49" viewBox="0 0 48 49"><g fill="none" fill-rule="evenodd"><path stroke="#C5E2E9" stroke-width="2" d="M2.095 1h42.988c.606 0 1.096.492 1.096 1.1v10.272c0 .607-.49 1.1-1.096 1.1H2.095A1.097 1.097 0 011 12.372V2.1C1 1.492 1.49 1 2.095 1z" stroke-linecap="round" stroke-linejoin="round"/><path stroke="#B5D0E7" stroke-width="2" d="M2.095 13.472h42.988c.606 0 1.096.492 1.096 1.099v10.273c0 .607-.49 1.1-1.096 1.1H2.095A1.097 1.097 0 011 24.843V14.57c0-.607.49-1.1 1.095-1.1zm0 12.471h42.988c.606 0 1.096.492 1.096 1.1v10.272c0 .607-.49 1.1-1.096 1.1H2.095A1.097 1.097 0 011 37.315V27.042c0-.607.49-1.099 1.095-1.099z" stroke-linecap="round" stroke-linejoin="round"/><path stroke="#B5D0E7" stroke-width="2" d="M2.095 1h42.988c.606 0 1.096.492 1.096 1.1v10.272c0 .607-.49 1.1-1.096 1.1H2.095A1.097 1.097 0 011 12.372V2.1C1 1.492 1.49 1 2.095 1z" stroke-linecap="round" stroke-linejoin="round"/><path stroke="#2E8BE0" stroke-width="2" d="M5.079 7.236c0-1.01.814-1.827 1.82-1.827s1.82.818 1.82 1.827c0 1.01-.816 1.826-1.82 1.826s-1.82-.817-1.82-1.826z" stroke-linecap="round"/><path fill="#2E8BE0" d="M12.608 7.236c0-1.01.815-1.827 1.82-1.827 1.005 0 1.82.818 1.82 1.827 0 1.01-.815 1.826-1.82 1.826a1.823 1.823 0 01-1.82-1.826"/><path stroke="#2E8BE0" stroke-width="2" d="M5.079 32.179c0-1.01.814-1.827 1.82-1.827s1.82.818 1.82 1.827c0 1.01-.816 1.826-1.82 1.826s-1.82-.817-1.82-1.826z" stroke-linecap="round"/><path fill="#2E8BE0" d="M12.608 32.179c0-1.01.815-1.827 1.82-1.827 1.005 0 1.82.818 1.82 1.827 0 1.01-.815 1.826-1.82 1.826a1.823 1.823 0 01-1.82-1.826"/><path stroke="#2E8BE0" stroke-width="2" d="M16.248 19.707c0 1.01-.815 1.827-1.82 1.827-1.005 0-1.82-.817-1.82-1.827s.815-1.826 1.82-1.826c1.005 0 1.82.817 1.82 1.826z" stroke-linecap="round"/><path fill="#2E8BE0" d="M8.718 19.707c0 1.01-.815 1.827-1.82 1.827-1.005 0-1.82-.817-1.82-1.827s.815-1.826 1.82-1.826c1.005 0 1.82.817 1.82 1.826"/><path stroke="#C5E2E9" stroke-width="2" d="M28.734 30.352l3.766 4.06" stroke-linecap="round" stroke-linejoin="round"/><path stroke="#B5D0E7" stroke-width="2" d="M21.205 30.352l3.764 4.06m11.296-4.06l3.764 4.06M28.734 17.676l3.766 4.06m-11.295-4.06l3.764 4.06m11.296-4.06l3.764 4.06M28.734 5.206l3.766 4.06m-11.295-4.06l3.764 4.06m11.296-4.06l3.764 4.06" stroke-linecap="round" stroke-linejoin="round"/><path fill="#2E8BE0" d="M28.69 32.636v5.1c-2.517 2.826-10.292 2.549-10.969 6.389-.079.466.136 3.052.136 3.052H46.3s.217-2.586.137-3.052c-.671-3.812-8.351-3.567-10.915-6.329v-5.16H28.69z"/><path stroke="#FEFEFE" stroke-width="2" d="M28.69 32.636v5.1c-2.517 2.826-10.292 2.549-10.969 6.389-.079.466.136 3.052.136 3.052H46.3s.217-2.586.137-3.052c-.671-3.812-8.351-3.567-10.915-6.329v-5.16H28.69z" stroke-linecap="round" stroke-linejoin="round"/><path fill="#2E8BE0" d="M37.758 29.793l.142-1.641c.338-3.894-2.25-7.394-5.818-7.406-3.566-.011-6.179 3.47-5.867 7.367.044.53.132 1.642.132 1.642.324 4.05 2.929 6.952 5.682 6.961 2.755.01 5.378-2.875 5.73-6.923"/><path stroke="#FEFEFE" stroke-width="2" d="M37.758 29.793l.142-1.641c.338-3.894-2.25-7.394-5.818-7.406-3.566-.011-6.179 3.47-5.867 7.367.044.53.132 1.642.132 1.642.324 4.05 2.929 6.952 5.682 6.961 2.755.01 5.378-2.875 5.73-6.923z"/></g></svg>