<svg xmlns="http://www.w3.org/2000/svg" width="41" height="42" viewBox="0 0 41 42"><g fill="#FFF"><path d="M27.36 12.66c-.18-.18-.72-.18-.9 0l-.36.36c-.72-.54-1.44-1.08-2.16-1.44-1.8-1.08-3.96-1.62-6.3-1.62v9.54c-1.62 0-2.88 1.26-2.88 2.88 0 1.62 1.26 2.88 2.88 2.88 1.62 0 2.88-1.26 2.88-2.88 0-.54-.18-1.08-.36-1.44l.54-.54 6.84-6.84c.18-.18.18-.72-.18-.9zM17.64 24c-.9 0-1.62-.72-1.62-1.62 0-.9.72-1.62 1.62-1.62.18 0 .36 0 .72.18.18 0 .36.18.54.36.18.18.36.36.36.54 0 .18.18.36.18.54-.18.9-.9 1.62-1.8 1.62z"/><path d="M35.1 22.74c0-3.42-1.08-6.66-2.88-9.36l.54-.54c1.44-1.44 1.44-3.6 0-5.04s-3.6-1.44-5.04 0l-.54.54c-2.52-1.62-5.58-2.7-8.82-2.88V1.32c0-.36-.36-.72-.72-.72s-.72.36-.72.72v4.14c-3.06.18-6.12 1.08-8.46 2.7l-.54-.54c-1.44-1.44-3.6-1.44-5.04 0s-1.44 3.6 0 5.04l.36.36c-1.8 2.7-2.88 6.12-2.88 9.72 0 9.54 7.74 17.46 17.46 17.46 2.16 0 4.14-.36 6.12-1.08 1.8 1.62 4.14 2.52 6.66 2.52 5.58 0 10.08-4.5 10.08-10.08-.18-3.78-2.34-7.2-5.58-8.82zm-14.22 5.58c-.36 1.08-.54 2.16-.54 3.24 0 2.52.9 4.68 2.34 6.48-1.62.54-3.24.72-5.04.72-8.82 0-16.02-7.2-16.02-16.02 0-3.24.9-6.3 2.52-8.82 1.44-1.8 3.06-3.6 5.22-4.86a15.89 15.89 0 018.28-2.34c3.06 0 6.12.9 8.46 2.52 1.98 1.26 3.78 3.06 5.04 5.04 1.44 2.34 2.34 4.86 2.52 7.74-1.08-.36-2.16-.54-3.24-.54-2.34 0-4.68.9-6.3 2.34-1.44 1.26-2.52 2.7-3.24 4.5zm16.2 3.6c-.54 1.8-2.52 5.22-6.66 5.22-.9 0-1.62-.18-2.34-.36-.18 0-.18 0-.36-.18s-.54-.18-.72-.36c-.18 0-.18-.18-.36-.18-1.8-1.08-2.7-2.88-3.06-4.14v-.72c0-.18 1.98-5.04 6.66-5.04 1.08 0 1.98.18 2.7.72.18 0 .18.18.36.18.18.18.36.18.54.36.18 0 .18.18.36.18 1.8 1.44 2.7 3.6 2.7 3.6.18.36.18.54.18.72z"/><path d="M32.4 31.38c0-.36-.18-.54-.36-.9 0-.18-.18-.18-.18-.36-.36-.36-.9-.54-1.44-.54-1.08 0-1.98.9-1.98 1.98 0 .72.54 1.44 1.26 1.8.18 0 .18 0 .36.18h.9c.18 0 .36-.18.72-.18.36-.36.72-.72.9-1.26v-.36c-.18-.18-.18-.18-.18-.36z"/><path d="M34.02 28.68s-.18-.18-.36-.18c-.18-.18-.36-.36-.54-.36-.18 0-.18-.18-.36-.18-.72-.36-1.44-.54-2.52-.54-3.96 0-5.76 4.5-5.76 4.5s.72 2.52 2.88 3.78c.18 0 .18.18.36.18.18.18.54.18.72.36.18 0 .18 0 .36.18.36.18.9.18 1.44.18 4.5 0 5.76-4.5 5.76-4.5s-.54-2.16-1.98-3.42zm-3.6 5.94h-.54c-.18 0-.54-.18-.72-.18-.18 0-.18-.18-.36-.18-.9-.54-1.44-1.44-1.44-2.52 0-1.62 1.26-3.06 3.06-3.06.72 0 1.26.18 1.8.72.18 0 .18.18.18.18l.54.54c0 .18.18.18.18.36.18.36.18.72.18 1.08.18 1.8-1.26 3.06-2.88 3.06z"/></g></svg>