<svg xmlns="http://www.w3.org/2000/svg" width="39" height="38" viewBox="0 0 39 38"><g fill="none" fill-rule="evenodd"><path d="M8 14.22l.9 1.26c1.44 1.98 3.24 3.78 5.4 5.4l3.78 2.7c.54.36.72.9.72 1.44 0 .54-.36 1.08-.9 1.44l-.18.18c-1.62 1.08-2.34 2.88-1.8 4.68.18.54.36 1.08.72 1.44.36.36.9.72 1.44.9.18 0 .54.18.72.36V22.14c-.36-.72-.72-1.62-.9-2.34l-.18-1.98c0-.18-.18-.36-.36-.36l-1.08-.72c-.18-.18-.36-.18-.54 0l-.9.72c-.36.18-.72.36-1.26.18-.36-.18-.72-.36-.9-.72l-.18-.54c-.54-1.26-.36-2.7.18-3.78.36-.54.9-1.08 1.44-1.44.54-.36 1.26-.54 1.98-.72l1.26-.18c1.26-.18 2.34.18 3.42.72l1.26.72c.54.36.9.72 1.44 1.08l1.08 1.08c.18.18.18.18.36 0 .18 0 .18-.18.18-.36v-.18l-.54-1.26c-.18-.18-.18-.54-.36-.72-.72-.9-1.08-1.98-1.08-3.06 0-.54 0-.9.18-1.44.18-.9 1.08-1.44 1.62-1.62a7.97 7.97 0 002.7-2.16c-.36-.18-.72-.36-1.26-.54h-.18c-.18 0-.18 0-.36-.18h-.18-.18c-1.44-.54-3.06-.9-4.5-1.08h-1.62c-3.6 0-7.02 1.08-9.9 3.06-1.08.72-2.16 1.62-3.06 2.7v2.52c0 1.62.54 3.24 1.62 4.68z"/><path d="M25.28 6.3c-.54.36-.9.54-.9.9-.18.36-.18.72-.18 1.08 0 .9.36 1.62.72 2.34.18.36.36.54.54.9l.54 1.26c0 .18.18.36.18.54 0 .72-.36 1.26-1.08 1.44-.54.18-1.26 0-1.8-.36l-1.08-1.08c-.36-.36-.72-.72-1.08-.9l-1.26-.72c-.72-.54-1.8-.72-2.7-.54l-1.26.18c-.54 0-.9.18-1.44.54-.36.18-.72.72-1.08 1.08-.54.9-.54 1.8-.18 2.7l.54.54h.36l.9-.72c.54-.36 1.26-.36 1.8-.18l1.08.72c.54.36.9.72.9 1.26l.18 1.44c.36-.36.72-.72 1.26-.72H36.8c-.18-6.12-3.6-11.52-8.46-14.4-.72 1.26-1.8 2.16-3.06 2.7zm3.24 19.8c.9 0 1.8.72 1.8 1.8 0 .9-.72 1.8-1.8 1.8-.9 0-1.8-.72-1.8-1.8 0-.9.9-1.8 1.8-1.8zm-9.72 9l-1.08-.54c-.72-.18-1.44-.54-1.98-1.08s-.9-1.26-1.08-1.98c-.54-2.34.36-4.68 2.34-6.12l.18-.18c.18-.18.18-.18.18-.54 0-.18 0-.36-.18-.54l-3.78-2.7a27.324 27.324 0 01-5.58-5.58l-.9-1.26c-1.26-1.62-1.8-3.42-1.8-5.58V7.92C2.96 10.8 1.7 14.4 1.7 18.36 1.7 27.9 9.26 35.64 18.8 36v-.9z"/><path fill="#B4CFE4" fill-rule="nonzero" d="M20.42 1.26h.54-.54zm.54 0zm5.22 1.26s.18 0 0 0c.18 0 0 0 0 0zm-.54-.18h0zm-5.76-1.26h.54c-.18.18-.36 0-.54 0zm8.82 1.26c-.54-.36-1.26-.72-1.8-.9.54.36 1.26.54 1.8.9zm-19.8.72c.18 0 .18-.18.36-.18-.18.18-.18.18-.36.18zm17.46-1.8c.18 0 .18 0 .36.18-.18 0-.18-.18-.36-.18zM8.9 3.24c-1.26.9-2.52 1.98-3.42 3.06.9-1.26 1.98-2.16 3.42-3.06zm.54-.36c0-.18 0-.18 0 0 0-.18 0-.18 0 0zm10.44-1.8h-.54.54zm7.56 1.98c-.36-.18-.72-.36-1.26-.54.54.18.9.36 1.26.54zM9.62 2.7c.18 0 .18-.18.36-.18-.18 0-.36.18-.36.18zM20.06 0h.54-.54zm.54 0c1.8.18 3.6.54 5.22 1.08C24.2.54 22.4.18 20.6 0zm4.86 2.16h.18c0 .18 0 .18-.18 0zm.54.18c.18 0 .18 0 .36.18-.18 0-.36 0-.36-.18zM20.06 0h-.54c-3.42 0-6.66.9-9.54 2.52C12.86.9 16.1 0 19.52 0h.54zM9.62 4.14c-1.08.72-2.16 1.62-3.06 2.7.72-.9 1.8-1.98 3.06-2.7zm-.72-.9s0-.18 0 0c0-.18 0 0 0 0zM26 1.08c.18 0 .18 0 .36.18 0 0-.18 0-.36-.18zM9.26 2.88s.18 0 .18-.18l-.18.18z"/><g fill="#FFF" fill-rule="nonzero" transform="translate(-1)"><path d="M29.52 23.94h-.18c-.54 0-1.26.18-1.62.36-2.34 1.08-3.24 3.6-3.24 3.6s1.08 3.96 5.22 3.96c.72 0 1.26-.18 1.8-.36s.9-.54 1.44-.72c1.44-1.26 1.98-2.88 1.98-2.88s-1.8-3.96-5.4-3.96zm2.16 5.58c-.54.72-1.26 1.08-2.16 1.08-1.44 0-2.7-1.26-2.7-2.7 0-1.44 1.08-2.52 2.34-2.7h.36c1.44 0 2.7 1.26 2.7 2.7 0 .54-.18 1.08-.54 1.62z"/><circle cx="29.52" cy="27.9" r="1.8"/><path d="M39.24 18.72c0-7.02-3.78-13.14-9.54-16.38-.54-.36-1.26-.72-1.98-.9h-.18c-.18 0-.18 0-.36-.18-.18 0-.18 0-.36-.18h-.18C25.2.54 23.4.18 21.6 0h-1.08c-3.42 0-6.66.9-9.54 2.52-.18 0-.18.18-.36.18 0 0-.18 0-.18.18 0 0-.18 0-.18.18-.18 0-.18.18-.36.18-1.26.9-2.52 1.98-3.6 3.06-2.88 3.24-4.68 7.74-4.68 12.42 0 10.44 8.46 18.9 18.9 18.9H37.62c.9 0 1.62-.72 1.62-1.62V19.8v-.18-.9zM7.38 6.84c.9-1.08 1.98-1.98 3.06-2.7 2.88-1.98 6.12-3.06 9.9-3.06h1.62c1.62.18 3.06.54 4.5 1.08h.36c.18 0 .18 0 .36.18h.18c.36.18.72.36 1.26.54a7.97 7.97 0 01-2.7 2.16c-.54.36-1.26.72-1.62 1.62-.18.36-.18.9-.18 1.44 0 1.08.36 2.16 1.08 3.06.18.18.36.54.36.72l.54 1.26v.18c0 .18 0 .18-.18.36h-.36l-1.08-1.08c-.36-.36-.9-.9-1.44-1.08l-1.26-.72c-1.08-.54-2.16-.9-3.42-.72l-1.26.18c-.72 0-1.44.36-1.98.72s-1.08.9-1.44 1.44c-.72 1.08-.72 2.52-.18 3.78l.18.54c.18.36.54.72.9.72.36.18.9 0 1.26-.18l.9-.72c.18-.18.36-.18.54 0l1.08.72c.18 0 .36.18.36.36l.18 1.98c.18.9.36 1.62.9 2.34v11.88c-.18-.18-.54-.18-.72-.36-.54-.18-1.08-.36-1.44-.9-.36-.36-.72-.9-.72-1.44-.54-1.8.36-3.78 1.8-4.68l.18-.18c.54-.36.72-.9.9-1.44 0-.54-.18-1.08-.72-1.44l-3.78-2.7c-1.98-1.44-3.78-3.24-5.4-5.4L9 14.22a7.898 7.898 0 01-1.62-4.86V6.84zM2.7 18.72c0-3.96 1.26-7.56 3.42-10.44v1.08c0 1.98.54 3.96 1.8 5.58l.9 1.26c1.62 2.16 3.42 3.96 5.58 5.58l3.78 2.7c.18.18.18.36.18.54 0 .18-.18.36-.18.54l-.18.18c-1.98 1.26-3.06 3.78-2.34 6.12.18.72.54 1.44 1.08 1.98s1.26.9 1.98 1.08l1.08.54v.9C10.44 36 2.7 28.26 2.7 18.72zm32.94 9.54c-.36 1.08-1.26 2.88-3.06 3.96l-1.08.54h-.18c-.54.18-1.08.18-1.62.18-3.78 0-5.58-3.06-5.94-4.68v-.54c0-.18 1.08-2.52 3.06-3.78.36-.18.9-.54 1.44-.72.36-.18.9-.18 1.44-.18 4.14 0 5.94 4.32 5.94 4.5v.72zm1.98-10.08h-16.2c-.54 0-1.08.18-1.26.72l-.18-1.44c0-.54-.36-1.08-.9-1.26L18 15.48c-.54-.36-1.26-.36-1.8.18l-1.26.54h-.18-.18l-.18-.54c-.36-.9-.36-1.8.18-2.7.18-.36.54-.72 1.08-1.08.36-.36.9-.36 1.44-.54l1.26-.18c.9-.18 1.8.18 2.7.54l1.26.72c.36.18.72.54 1.08.9l1.08 1.08c.36.54 1.08.72 1.8.36.54-.18 1.08-.9 1.08-1.44 0-.18 0-.36-.18-.54l-.54-1.26c-.18-.36-.36-.72-.54-.9-.54-.72-.72-1.62-.72-2.34 0-.36 0-.72.18-1.08.18-.36.36-.54.9-.9 1.26-.72 2.34-1.62 3.24-2.7 4.86 3.06 8.28 8.28 8.46 14.4-.18.18-.36.18-.54.18z"/></g></g></svg>