<svg xmlns="http://www.w3.org/2000/svg" width="41" height="44" viewBox="0 0 41 44"><g fill="#FFF"><path d="M32.4 23.94c0 .36.18.72.54.72h.18c.36 0 .72-.18.72-.54 0-.36-.18-.72-.54-.72-.54-.18-.9 0-.9.54zm-.72 4.14c-.36-.18-.72-.18-.9.18-.18.36-.18.72.18.9.18 0 .18.18.36.18s.54-.18.54-.36c.18-.36.18-.72-.18-.9zm.9-9.72a.99.99 0 00-.54.9c0 .36.36.54.72.54h.18a.99.99 0 00.54-.9c-.18-.54-.54-.72-.9-.54zM8.46 24.48c-.36 0-.54.54-.54.9s.36.54.72.54h.18a.99.99 0 00.54-.9.99.99 0 00-.9-.54zm1.98-9.72c-.36-.18-.72-.18-.9.18-.18.36-.18.72.18.9.18 0 .18.18.36.18s.54-.18.54-.36c.36-.18.18-.72-.18-.9zm-1.98 4.68c-.36 0-.72.18-.72.54 0 .36.18.72.54.72h.18c.36 0 .54-.18.72-.54 0-.36-.36-.72-.72-.72zm27 10.98c-.18-.36-.54-.36-.9-.36l-6.12 1.98s0-.18-.18-.18c-.18-.18-.72-.18-.9 0-.18.18-.18.36-.18.54l-6.48 1.98-5.22-5.22c-.18-.18-.36-.18-.54-.18h-9V27.9c0-.36-.36-.72-.72-.72H.72c-.36 0-.72.36-.72.72v12.96c0 .36.36.72.72.72h4.5c.36 0 .72-.36.72-.72v-1.08h5.58l7.38 3.24h.72l17.46-8.82c.18 0 .36-.18.36-.36v-.54l-1.98-2.88zM4.5 40.14v.36H1.44V29.16H4.5V40.14zm14.58 1.8l-7.2-3.24H5.94v-8.28h8.82l6.66 6.66-1.26 1.26-4.5-4.5c-.18-.18-.72-.18-.9 0-.18.18-.18.72 0 .9l5.04 5.04c.18.18.36.18.54.18.18 0 .36 0 .54-.18l2.34-2.34c.18-.18.18-.72 0-.9l-1.08-1.08 12.6-3.96 1.08 2.16-16.74 8.28z"/><path d="M39.96 2.34h-4.5c-.36 0-.72.36-.72.72v1.08h-5.58L21.78.9h-.54L3.78 9.72c-.18 0-.36.18-.36.36v.54l1.62 3.24c.18.18.36.36.54.36h.18l7.02-2.16c0 .18 0 .18.18.36s.36.18.54.18c.18 0 .36 0 .54-.18.18-.18.18-.36.18-.54v-.18l5.58-1.8 5.22 5.22c.18.18.36.18.54.18h9.18v1.08c0 .36.36.72.72.72h4.5c.36 0 .72-.36.72-.72V3.42c0-.72-.36-1.08-.72-1.08zm-.72 12.78h-3.06V3.6h3.06v11.52zm-13.32-1.26L19.26 7.2l1.26-1.26 4.5 4.5c.18.18.72.18.9 0 .18-.18.18-.72 0-.9L20.88 4.5c-.18-.18-.72-.18-.9 0l-2.34 2.34c-.18.18-.18.72 0 .9l1.08 1.08-12.6 3.96-1.08-2.16 16.38-8.46 7.2 3.24h5.94v8.28h-8.64v.18z"/><path d="M20.34 30.96s6.66-3.24 6.84-8.64c.18-3.6-.18-5.4-.18-5.4s-2.34-2.34-6.66-2.34-6.66 2.34-6.66 2.34-.18 1.8-.18 5.4c.36 5.4 6.84 8.64 6.84 8.64zm0-14.4c2.7 0 5.04 2.34 5.04 5.04 0 1.62-.72 2.88-1.98 3.78-.72 0-1.62-.36-1.98-.54.9-.54 2.34-1.8 2.34-3.24 0-1.8-1.44-3.42-3.42-3.42-1.8 0-3.42 1.62-3.42 3.42 0 1.62.9 2.88 2.52 3.78 1.08.54 2.7 1.08 4.5 1.26l-1.44 1.44c-1.98-.36-3.78-1.08-5.04-2.16a5.75 5.75 0 01-1.98-4.32c-.18-2.88 2.16-5.04 4.86-5.04z"/></g></svg>