<svg xmlns="http://www.w3.org/2000/svg" width="45" height="31" viewBox="0 0 45 31"><g fill="#FFF"><path d="M23.04 4.06c-4.32 0-7.92 3.6-7.92 7.92s3.6 7.92 7.92 7.92 7.92-3.6 7.92-7.92c-.18-4.32-3.6-7.92-7.92-7.92zm5.4 8.28c-.36 1.44-2.16 4.32-5.58 4.32s-5.04-2.7-5.58-4.32v-.72c0-.18 1.62-4.14 5.4-4.14 3.78 0 5.4 3.96 5.4 4.14.36.18.36.54.36.72z"/><path d="M22.86 8.56c-3.06 0-4.5 3.42-4.5 3.42s.9 3.42 4.5 3.42 4.5-3.42 4.5-3.42-1.26-3.42-4.5-3.42zm1.8 5.22c-.54.54-1.08.72-1.8.72h-.54c-.9-.18-1.8-.9-1.98-1.98-.18-.9.18-1.62.72-2.16s1.44-.9 2.16-.72c.9.18 1.8.9 1.98 1.98.36.72 0 1.62-.54 2.16z"/><path d="M23.22 10.72h-.36c-.36 0-.72.18-.9.36-.36.36-.54.72-.36 1.26.18.54.54.9 1.08 1.08.54.18.9 0 1.26-.36s.54-.72.36-1.26c0-.54-.54-1.08-1.08-1.08z"/><path d="M43.74 24.22h-2.16V3.34c0-1.62-1.26-2.88-2.88-2.88H6.48C4.86.46 3.6 1.72 3.6 3.34v20.7H.72c-.36 0-.72.36-.72.72v1.44c0 2.34 1.98 4.32 4.32 4.32h35.64c2.34 0 4.32-1.98 4.32-4.32v-1.44c.18-.18-.18-.54-.54-.54zM5.04 3.34c0-.72.72-1.44 1.44-1.44H38.7c.72 0 1.44.72 1.44 1.44v17.82H5.04V3.34zm0 19.44h35.1v1.44h-14.4c-.36 0-.72.36-.72.72v1.44h-5.76v-1.44c0-.36-.36-.72-.72-.72H5.04v-1.44zm37.98 3.6c0 1.62-1.26 2.88-2.88 2.88H4.32c-1.62 0-2.88-1.26-2.88-2.88v-.72H18v1.44c0 .36.36.72.72.72h7.2c.36 0 .72-.36.72-.72v-1.44H43.2v.72h-.18z"/></g></svg>