<svg xmlns="http://www.w3.org/2000/svg" width="38" height="28" viewBox="0 0 38 28"><g fill="#FFF"><path d="M36.54 7.92H34.2V5.04c0-.36-.18-.54-.54-.54h-2.34V.9c0-.36-.18-.54-.54-.54H7.02c-.36 0-.54.18-.54.54v3.6H3.96c-.36 0-.54.18-.54.54v2.88H1.08c-.36 0-.54.18-.54.54v18.36c0 .36.18.54.54.54h35.46c.36 0 .54-.18.54-.54V8.46c0-.36-.18-.54-.54-.54zM7.56 1.44h22.5v2.88H7.56V1.44zM4.68 5.58H32.94v2.34H4.5V5.58h.18zm31.14 20.7H1.62V9H36v17.28h-.18z"/><path d="M6.84 11.52h-.18c-.18 0-.18 0-.36.18s-.36.36-.36.54c0 1.08-.54 1.98-1.44 2.34-.18 0-.36.18-.54.18-.18 0-.36.18-.72.18s-.54.18-.54.54v5.22c0 .36.18.54.54.54.18 0 .54 0 .72.18.18 0 .36.18.54.18.36.18.54.36.72.54.18.18.18.36.36.54.18.18.18.36.18.72v.54c0 .36.18.54.54.54h3.78v-1.26H7.2c0-.18-.18-.36-.18-.72 0-.18-.18-.36-.18-.54-.54-.9-1.26-1.62-2.16-1.98-.18 0-.36-.18-.54-.18v-4.14c.18 0 .36 0 .54-.18.72-.18 1.26-.72 1.8-1.26.18-.18.36-.54.54-.72.18-.36.36-.72.36-1.08H10.62v-1.26H6.84v.36zm26.64 3.06c-.18 0-.36-.18-.54-.18-.9-.36-1.44-1.26-1.44-2.34 0-.18-.18-.36-.36-.54-.18 0-.18-.18-.36-.18H27v1.26h3.42c0 .36.18.72.36 1.08.18.36.36.54.54.72.54.54 1.08.9 1.8 1.26.18 0 .36.18.54.18v4.14c-.18 0-.36 0-.54.18-.9.36-1.8 1.08-2.16 1.98 0 .18-.18.36-.18.54 0 .18-.18.36-.18.72H27v1.26H30.78c.36 0 .54-.18.54-.54v-.54c0-.18.18-.54.18-.72.18-.18.18-.36.36-.54.18-.18.54-.54.72-.54.18 0 .36-.18.54-.18.18 0 .36-.18.72-.18s.54-.18.54-.54v-5.22c0-.36-.18-.54-.54-.54 0-.36-.18-.36-.36-.54zm-14.76-3.06c-3.06 0-5.76 2.16-6.3 5.22 0 .18 0 .36-.18.54V18c0 1.62.54 3.06 1.44 4.14l.54.54.72.72c1.08.72 2.34 1.26 3.78 1.26s2.7-.36 3.78-1.26c.36-.18.54-.36.72-.72l.54-.54c.72-.9 1.26-2.16 1.44-3.42v-.54V18v-.36c-.18-3.42-3.06-6.12-6.48-6.12zm-2.7 5.58c.18-.18.54-.18.54 0l.54.54.54.54.54.54v-4.68c0-.18.18-.36.36-.36s.36.18.36.36v4.86l.36-.36.54-.54.54-.54.18-.18c.18-.18.54-.18.54 0l.18.18c0 .18 0 .36-.18.36l-.18.18-.54.54-1.62 1.62s-.18.18-.36.18-.18 0-.36-.18l-1.98-1.98-.36-.36-.18-.18c.54-.36.54-.54.54-.54zm6.12 4.32c0 .18-.18.36-.36.36h-5.94c-.18 0-.36-.18-.36-.36v-1.8h.72v1.26h5.04V19.8h.9v1.62z"/><path d="M27.18 18.9c.36.9 1.26 1.44 2.16 1.44 1.26 0 2.34-1.08 2.34-2.34 0-.54-.18-1.08-.54-1.62-.18-.18-.36-.36-.54-.36-.18-.18-.36-.18-.72-.36h-.54c-1.08 0-1.8.72-2.16 1.62 0 .18-.18.36-.18.54v.54c.18 0 .18.18.18.54 0-.18 0 0 0 0zm1.08-1.08c0-.54.54-1.08 1.08-1.08.18 0 .36 0 .54.18.36.18.54.54.54 1.08 0 .18 0 .36-.18.54-.18.18-.36.36-.72.54h-.36c-.18 0-.36 0-.54-.18-.18-.18-.54-.36-.54-.54.18-.18.18-.18.18-.54zM7.02 16.2v1.08h3.42V16.2H7.56zM7.02 19.08h3.6v1.26h-3.6z"/></g></svg>