<svg xmlns="http://www.w3.org/2000/svg" width="20" height="20" viewBox="0 0 20 20"><path fill="#FFF" fill-rule="evenodd" d="M1.206 18.677l.088-3.235.941-.942 3.324 3.323-.942.942-3.41-.088zM18.588 4.794L16.53 6.853 13.177 3.53l2.058-2.06 3.353 3.324zM6.383 17L3.06 13.677l9.324-9.324 3.323 3.324L6.383 17zM0 19.265c0 .147.06.294.177.412a.58.58 0 00.411.176l4.264.089a.582.582 0 00.413-.177l14.558-14.56A.58.58 0 0020 4.795a.579.579 0 00-.177-.411L15.647.236a.568.568 0 00-.824 0L.265 14.765a.581.581 0 00-.177.412L0 19.265z"/></svg>