<svg xmlns="http://www.w3.org/2000/svg" width="33" height="33" viewBox="0 0 33 33"><g fill="#FFF"><path d="M29.34 24.74V8.36c.9-.18 1.62-.54 2.16-1.08 1.62-1.62 1.62-3.96 0-5.58s-3.96-1.62-5.58 0c-1.44 1.44-1.44 3.6-.36 5.22.18.18.18.36.36.36.18.18.36.18.36.36.54.36 1.08.54 1.8.72v16.38c-.72.18-1.26.36-1.8.72-.18.18-.36.18-.36.36-.18.18-.18.36-.36.36-.54.72-.72 1.44-.72 2.34 0 2.16 1.8 3.96 3.96 3.96s3.96-1.8 3.96-3.96c0-1.98-1.44-3.6-3.42-3.78zm1.08 6.12c-.54.36-1.08.54-1.62.54-1.62 0-2.88-1.26-2.88-2.88 0-.54.18-1.08.36-1.44.18-.18.18-.36.36-.36.18-.18.36-.18.36-.36.54-.36 1.08-.54 1.62-.54 1.62 0 2.88 1.26 2.88 2.88 0 .54-.18 1.26-.54 1.62 0 .18-.18.36-.54.54zm-3.6-24.48l-.36-.36c-.72-1.08-.72-2.52.36-3.6.54-.54 1.26-.9 1.98-.9.54 0 1.26.18 1.62.54.18 0 .18.18.36.18l.36.36c.72 1.08.72 2.7-.36 3.6-.9.9-2.34 1.08-3.42.36-.18.18-.36 0-.54-.18zm-15.48 5.58s-.18 1.44 0 4.32c.18 4.32 5.58 7.02 5.58 7.02s5.4-2.7 5.58-7.02c.18-2.88 0-4.32 0-4.32s-1.8-1.98-5.58-1.98c-3.78 0-5.58 1.98-5.58 1.98zm9.54 3.78c0 1.26-.54 2.34-1.62 3.06-.72 0-1.26-.18-1.62-.36.72-.54 1.8-1.44 1.8-2.7 0-1.44-1.26-2.7-2.7-2.7-1.44 0-2.7 1.26-2.7 2.88 0 1.26.72 2.34 1.98 3.06.9.54 2.16.72 3.6.9-.18.36-.9.9-1.26 1.08-1.62-.36-3.06-.9-4.14-1.8-1.08-.9-1.62-2.16-1.62-3.6 0-2.34 1.8-4.14 4.14-4.14 2.34.18 4.14 1.98 4.14 4.32z"/><path d="M8.64 28.16c0-.72-.36-1.26-.72-1.98-.18-.18-.18-.36-.36-.36l-.36-.36c-.54-.36-1.26-.72-1.8-.72V8.36c.72-.18 1.26-.36 1.8-.72.18-.18.36-.18.36-.36.18-.18.18-.36.36-.36.36-.54.72-1.08.72-1.62h16.38V4.22H8.46C8.28 2.24 6.66.62 4.5.62S.54 2.42.54 4.58c0 1.98 1.44 3.6 3.42 3.96v16.38c-.9.18-1.62.54-2.16 1.08-1.62 1.62-1.62 3.96 0 5.58.72.72 1.8 1.08 2.7 1.08 1.08 0 1.98-.36 2.7-1.08.54-.54.9-1.26 1.08-2.16h16.38v-1.08H8.64v-.18zM2.7 30.68c-1.08-1.08-1.08-2.88 0-3.96.54-.54 1.26-.9 1.98-.9.54 0 1.08.18 1.62.54.18.18.36.18.36.36.18.18.18.36.36.36.72 1.08.54 2.52-.36 3.42-1.08 1.26-2.88 1.26-3.96.18zM7.38 4.4c0 .54-.18 1.08-.54 1.62-.18.18-.18.36-.36.36-.18.18-.36.18-.36.36-.36.36-.9.36-1.44.36-1.62 0-2.88-1.26-2.88-2.88 0-1.62 1.26-2.88 2.88-2.88 1.44.18 2.7 1.44 2.7 3.06z"/></g></svg>