<svg xmlns="http://www.w3.org/2000/svg" width="47" height="42"><g fill="none" fill-rule="evenodd"><path fill="#FFF" d="M29.145 21.33a5.558 5.558 0 0 1-5.559 5.557 5.557 5.557 0 0 1 0-11.113 5.557 5.557 0 0 1 5.56 5.557z"/><path fill="#418AC9" d="M31.32 32.937l-4.588 8.093H13.554a2.983 2.983 0 0 1-2.594-1.524l-9.719-17.2a3.073 3.073 0 0 1 0-3.019l3.649-6.469 4.66 7.956 6.838 12.163H31.32z" opacity=".4"/><path fill="#418AC9" d="M36.49 39.507a2.998 2.998 0 0 1-2.604 1.523h-7.157l4.607-8.081 6.913-12.124-6.913-12.123h8.88l6.033 10.615c.53.935.53 2.081 0 3.016L36.49 39.507z" opacity=".8"/><path fill="#418AC9" d="M40.263 8.702H16.675L9.589 20.825l-4.701-8.042 6.2-10.64A3.087 3.087 0 0 1 13.757.62H33.77c1.103 0 2.122.58 2.672 1.522l3.82 6.56z" opacity=".6"/><path fill="#418AC9" opacity=".2" d="M31.403 8.702l6.839 12.124-6.839 12.122H16.359L9.581 20.826 16.63 8.702z"/><path fill="#FFF" d="M24.092 14.764a6.063 6.063 0 1 1 0 12.123 6.063 6.063 0 0 1 0-12.123"/></g></svg>