<svg xmlns="http://www.w3.org/2000/svg" xmlns:xlink="http://www.w3.org/1999/xlink" version="1.1" x="0px" y="0px" viewBox="0.4 109.5 612.2 572.7" enable-background="new 0.4 109.5 612.2 572.7" xml:space="preserve"><path fill="#FFFFFF" d="M145,476.2c-1.4,13.9-5.6,29.3-18.1,43.2c-18.1,18.1-41.8,20.9-40.4,25.1c0,5.6,26.5,9.8,51.6,5.6  c43.2-8.4,71.1-46,85-68.3c131,11.2,239.8-43.2,269.1-125.5c16.7-44.6,5.6-86.4,1.4-100.4c-30.7-99-152-146.4-245.4-146.4  c-99,0-217.5,55.8-242.6,147.8c-11.2,39-1.4,72.5,1.4,83.6C32.1,435.7,132.4,472,145,476.2z"/><path fill="#FFFFFF" d="M517.2,632.3c1.4,8.4,4.2,19.5,12.5,27.9c11.2,12.5,26.5,13.9,26.5,16.7c0,4.2-18.1,7-33.5,4.2  c-29.3-5.6-47.4-29.3-57.2-44.6c-86.4,7-157.5-27.9-177-82.3c-11.2-29.3-4.2-57.2-1.4-65.5c19.5-64.1,100.4-96.2,161.7-96.2  c65.5,0,143.6,36.2,160.3,97.6c7,25.1,1.4,47.4-1.4,54.4C591.1,607.2,525.6,629.5,517.2,632.3z"/></svg>