<svg xmlns="http://www.w3.org/2000/svg" viewBox="0 0 612 792" enable-background="new 0 0 612 792"><path fill="#fff" d="M371.5 103.7h-153c-20.2 0-42 2.4-65.1 7.1-23.3 5.5-46.1 17.3-67.7 35.1-31.8 30.8-47.6 65.1-47.6 102.8 0 31.2 11.2 58.5 33.5 82 21.4 25.3 52.4 38.1 93 38.6 7.7 0 15.9-.6 24.5-1.6-1.4 3.9-2.9 8.4-4.7 13.1-2 4.5-2.9 10.2-2.9 16.9 0 11.4 2.6 21 7.5 29 4.3 8.2 9.2 16.1 14.7 23.3-17.8.6-40.2 2.7-67.3 6.7-27.3 4.7-53.4 14.1-78.1 28.4-22 13.1-37.3 28.4-45.7 45.9-8.6 17.5-12.9 33.3-12.9 47.5 0 29.2 13.3 54.1 40 75.1 26.5 22.4 66.5 33.9 120 34.3 63.9-1 113-16.3 146.9-46.1 32.8-28.6 49-61.6 49-98.9-.4-26.3-6.5-47.5-17.9-63.7-12.2-15.9-26.3-30.6-42.4-43.7l-25.9-21.4c-3.7-3.7-7.6-8-11.6-13.1-4.7-5.3-7.1-11.8-7.1-19.8 0-8.2 2.4-15.5 6.9-21.8 3.9-6.1 8-11.4 12.6-16.1 8-7.1 15.5-13.9 22.6-20.6 6.5-6.7 12.4-14.1 18-22.2 11.6-16.5 17.7-38.4 18-65.9 0-14.9-1.8-28.1-5.1-39.2-4.1-11.2-8.8-21-14.1-29.2-5.5-8.8-11.2-16.1-16.9-22.2-6.1-5.7-11.4-10.2-16.3-13.1h47.1l48-27.2zm-83.7 418.8c12.8 14.5 19 31.4 19 51 0 23.9-9.2 43.5-27.9 58.8-19 15.5-46.5 23.5-82.6 23.9-40.2-.6-71.8-9.4-94.9-26.9-24.3-17.5-36.5-39.6-36.5-66.7 0-13.7 2.7-25.5 8.4-35.3 4.9-9.2 10.8-17.1 17.9-23.1 7.3-6.1 14.5-10.6 21.6-13.9 7.1-2.9 12.6-5.3 16.5-6.7 16.5-4.9 32.8-8.6 48.6-10.8 16.1-1.6 26.1-2 30-1.6 6.7 0 12.4.2 17.1.8 28.4 19.9 49.2 36.8 62.8 50.5zm-25-225.9c-1.8 10.2-6.1 20.2-12.6 30-13.3 13.7-30.2 21-50.4 21.8-15.9 0-30-4.9-42.6-14.7-12.4-9.8-22.6-21.6-30.4-35.7-16.3-30-24.3-58.8-24.3-86.7-.6-21 5.1-40 16.7-57.1 13.7-16.3 31-24.7 51.6-25.1 15.7.6 29.4 5.1 41.6 13.9 11.8 9.2 21.4 21.2 28.6 36.1 15.5 30.8 23.1 61.2 23.1 91.6.3 7-.1 15.7-1.3 25.9zm347.2 46.4v-.4h-80.4v-82h-47.1v82h-81v45.7h.6v1.8h80.4v80.4h47.1v-80.4h82.4v-47.1h-2z"/></svg>