<svg xmlns="http://www.w3.org/2000/svg" width="1794" height="863" viewBox="0 0 1794 863">
  <g fill="none" transform="translate(-1)">
    <path fill="#FFF" d="M355,95.3 C208.7,99.9 93.9,222.3 98.6,368.5 C98.6,456.8 135.3,535.1 204.8,595.2 C269.8,651.3 364.7,688.9 472.9,706.5 C496.3,693.5 536.4,655.3 551.4,632.9 C461.1,621.3 375.6,599.3 318.3,569.2 C230.7,523.3 186.3,457.5 186.3,373.6 C186.3,273.1 265.8,191.3 363.4,191.3 C461.2,191.4 540.5,270.7 540.7,368.5 C540.7,446.6 473.6,510.7 421.9,543.7 C442,555.2 486.2,567.2 528.6,571 C591.4,522.6 628.2,447.7 628.2,368.4 C628.4,362.8 628.4,357.2 628.2,351.6 C623.5,205.5 501.2,90.7 355,95.3 Z"/>
    <path fill="#ED2E26" d="M717.9 126.3C717.9 126.3 599.3 0 363.3 0 127.3 0 8.8 126.3 8.8 126.3 8.8 126.3-4.9 219.7 4 407.9 17.1 692.2 363.4 862.9 363.5 862.9 363.5 862.9 709.9 692.2 723 407.9 731.5 219.7 717.9 126.3 717.9 126.3zM628.2 368.5C628.2 447.8 591.4 522.6 528.6 571.1 486.2 567.2 442 555.2 421.9 543.8 473.6 510.8 540.7 446.7 540.7 368.6 540.6 270.8 461.3 191.5 363.4 191.4 265.7 191.4 186.3 273.2 186.3 373.7 186.3 457.5 230.7 523.4 318.3 569.3 375.6 599.4 461.1 621.4 551.4 633 536.4 655.4 496.3 693.6 472.9 706.6 364.7 688.9 269.8 651.4 204.8 595.3 135.3 535.3 98.6 456.9 98.6 368.6 93.9 222.3 208.7 99.9 355 95.3 501.2 90.7 623.6 205.5 628.2 351.7 628.3 357.3 628.3 362.9 628.2 368.5zM983.3 663.8C912.8 663.8 854.4 640.9 799.3 591.8L795.8 588.6 833.1 544.5 836.9 547.9C885 591.4 928 609.2 985.3 609.2 1040.5 609.2 1079 580.3 1079 538.9L1079 537.6C1079 501.4 1061.3 478 967.9 458.4 876.4 438.5 815.5 408.4 815.5 326L815.5 324.7C815.5 251.9 878.7 199.1 965.7 199.1 1028.4 199.1 1075.8 215.7 1124.2 254.5L1127.9 257.5 1092.9 303.9 1089 300.7C1049.7 268.7 1010.2 253.8 964.5 253.8 911.9 253.8 875.2 281.1 875.2 320.3L875.2 321.6C875.2 358.9 893.2 381.7 991.4 402.7 1095.1 425.3 1139.3 464.1 1139.3 532.6L1139.3 533.9C1139.2 610.4 1075.1 663.8 983.3 663.8zM1430 665.1C1300.8 665.1 1203.3 565.2 1203.3 432.7L1203.3 431.4C1203.3 300.4 1303.7 197.8 1431.9 197.8 1519.8 197.8 1568.4 232.2 1607.7 269.3L1611.2 272.6 1570.4 316.4 1566.8 313C1523 271.4 1482.4 253.7 1431.2 253.7 1336.4 253.7 1264.9 329.6 1264.9 430.1L1264.9 431.4C1264.9 531 1338 609.1 1431.2 609.1 1492.6 609.1 1531.4 584.1 1570.6 546.6L1574 543.3 1613.7 582.3 1610.3 585.8C1571.8 625.1 1520.1 665.1 1430 665.1z"/>
    <g fill="#ED2E26" transform="translate(1652 517)">
      <polygon points="24.7 13.9 3.2 20.6 .1 10.2 28 .6 37.5 .6 37.5 115.6 24.8 115.6 24.8 13.9"/>
      <polygon points="127.7 13.1 64.9 13.1 64.9 1.4 142.4 1.4 142.4 11 90.5 115.5 76.2 115.5"/>
    </g>
  </g>
</svg>
