<svg xmlns="http://www.w3.org/2000/svg" viewBox="0 0 274.501 88.9"><title>qsc17</title><path d="M129.9 38.7c0 5.3-.9 9.7-2.8 13.3a16.78 16.78 0 0 1-8.2 7.8l10.8 12.1h-12.2l-8.2-10.1h-.7c-6.9 0-12.2-2-15.8-6-3.7-4-5.5-9.7-5.5-17.2s1.8-13.2 5.5-17.1 9-5.9 15.9-5.9 12.2 2 15.8 6 5.4 9.7 5.4 17.1zm-32.8 0c0 5 1 8.8 2.9 11.3s4.7 3.8 8.5 3.8c7.6 0 11.4-5 11.4-15.1s-3.8-15.2-11.3-15.2c-3.8 0-6.6 1.3-8.6 3.8-1.9 2.6-2.9 6.4-2.9 11.4zm69.3 10.1a11.736 11.736 0 0 1-4.4 9.6c-2.9 2.4-7 3.5-12.2 3.5a28.574 28.574 0 0 1-12.7-2.7v-8.8a51.838 51.838 0 0 0 7.7 2.9 20.7 20.7 0 0 0 5.8.8 8.1 8.1 0 0 0 4.8-1.2 4.2 4.2 0 0 0 1.7-3.6 3.506 3.506 0 0 0-.7-2.3 11.146 11.146 0 0 0-2.2-2c-1-.6-2.9-1.6-5.8-3a29.614 29.614 0 0 1-6.2-3.7 14.2 14.2 0 0 1-3.3-4.1 12.039 12.039 0 0 1-1.2-5.5c0-4 1.3-7.1 4-9.4s6.4-3.4 11.2-3.4a29.266 29.266 0 0 1 6.7.8 40.093 40.093 0 0 1 6.6 2.3l-3.1 7.4a48.887 48.887 0 0 0-5.9-2.1 18.756 18.756 0 0 0-4.6-.6 5.617 5.617 0 0 0-4.1 1.3 3.922 3.922 0 0 0-1.4 3.3 4.032 4.032 0 0 0 .6 2.2 6.634 6.634 0 0 0 1.9 1.8 67.352 67.352 0 0 0 6 3.1c4.2 2 7.1 4 8.6 6a12.7 12.7 0 0 1 2.2 7.4zm29.1-25.2a9.513 9.513 0 0 0-8.3 4c-2 2.7-2.9 6.4-2.9 11.3 0 10 3.8 15 11.3 15a35.249 35.249 0 0 0 11.5-2.4v8a32.463 32.463 0 0 1-12.3 2.3c-6.5 0-11.5-2-15-5.9-3.5-4-5.2-9.6-5.2-17.1a27.857 27.857 0 0 1 2.5-12.3 18.542 18.542 0 0 1 7.3-8.1 21.419 21.419 0 0 1 11.2-2.8 30.074 30.074 0 0 1 13.1 3.2l-3.1 7.7a54.857 54.857 0 0 0-5.1-2.1 14.534 14.534 0 0 0-5-.8zm35.4 37.6h-3.1v-34.1c0-3.1.1-6.3.4-9.6l-1 .9s-3.6 2.9-9.9 7.8l-1.8-2.3 12.7-9.5h2.8v46.8h-.1zm20.4 0l19.3-43.7h-26.4v-3.1h30.3v2.3l-19.5 44.5z" fill="#fff"/><path d="M37.328 0c24.312 0 36.536 13.008 36.536 13.008s1.4 9.629.506 29.016c-1.348 29.286-37.033 46.876-37.037 46.876s-35.688-17.59-37.033-46.877c-.894-19.387.5-29.015.5-29.015s12.216-13.008 36.528-13.008z" fill="#ed2e26"/><path d="M19.085 38.5c0-10.355 8.186-18.78 18.249-18.78a18.284 18.284 0 0 1 18.266 18.261c0 8.04-6.911 14.654-12.237 18.053 2.066 1.179 6.627 2.417 10.993 2.817a26.358 26.358 0 0 0 10.265-20.87 27.284 27.284 0 0 0-54.571-.181v.183a30.168 30.168 0 0 0 10.94 23.342c6.692 5.782 16.48 9.642 27.625 11.47a31.741 31.741 0 0 0 8.092-7.579c-9.308-1.2-18.117-3.467-24.021-6.565-9.025-4.735-13.601-11.515-13.601-20.151z" fill="#fff"/></svg>