<svg xmlns="http://www.w3.org/2000/svg" xmlns:xlink="http://www.w3.org/1999/xlink" version="1.1" x="0px" y="0px" viewBox="0 0 43.9 41.1" enable-background="new 0 0 43.9 41.1" xml:space="preserve"><g id="Layer_3"><path d="M10.4,26.3c-0.1,1-0.4,2.1-1.3,3.1c-1.3,1.3-3,1.5-2.9,1.8c0,0.4,1.9,0.7,3.7,0.4C13,31,15,28.3,16,26.7   c9.4,0.8,17.2-3.1,19.3-9c1.2-3.2,0.4-6.2,0.1-7.2C33.2,3.4,24.5,0,17.8,0C10.7,0,2.2,4,0.4,10.6c-0.8,2.8-0.1,5.2,0.1,6   C2.3,23.4,9.5,26,10.4,26.3z"/><path d="M37.1,37.5c0.1,0.6,0.3,1.4,0.9,2c0.8,0.9,1.9,1,1.9,1.2c0,0.3-1.3,0.5-2.4,0.3c-2.1-0.4-3.4-2.1-4.1-3.2   c-6.2,0.5-11.3-2-12.7-5.9c-0.8-2.1-0.3-4.1-0.1-4.7c1.4-4.6,7.2-6.9,11.6-6.9c4.7,0,10.3,2.6,11.5,7c0.5,1.8,0.1,3.4-0.1,3.9   C42.4,35.7,37.7,37.3,37.1,37.5z"/></g></svg>