<svg xmlns="http://www.w3.org/2000/svg" xmlns:xlink="http://www.w3.org/1999/xlink" viewBox="0 0 274 223" enable-background="new 0 0 274 223"><path d="M86 223c-31.7 0-61.2-9.3-86-25.2 4.4.5 8.9.8 13.4.8 26.3 0 50.5-9 69.7-24-24.5-.5-45.3-16.7-52.4-39 3.4.7 6.9 1 10.6 1 5.1 0 10.1-.7 14.8-2-25.7-5.2-45-27.8-45-55v-.7c7.6 4.2 16.2 6.7 25.4 7-15-10.1-25-27.2-25-46.7 0-10.3 2.8-19.9 7.6-28.2 27.6 34 68.9 56.4 115.5 58.7-1-4.1-1.5-8.4-1.5-12.8 0-31 25.1-56.1 56.1-56.1 16.1 0 30.7 6.8 40.9 17.7 12.9-2.5 24.9-7.1 35.7-13.6-4.2 13.1-13 24.1-24.6 31.1 11.3-1.4 22.2-4.4 32.2-8.8-7.5 11.2-17 21.1-28 29 .1 2.4.2 4.8.2 7.3 0 74-56.5 159.5-159.6 159.5"/></svg>