<svg xmlns="http://www.w3.org/2000/svg" xmlns:xlink="http://www.w3.org/1999/xlink" viewBox="0 0 1022 719" enable-background="new 0 0 1022 719"><path fill="#FFF" d="M405.2 492.3l276-143-276-144v287"/><path fill="#E0E0E0" d="M647.3 366.9h-.1l34-17.6-33.9 17.6"/><path fill="#E0E0E0" d="M647.2 366.9l-242-161.6 276 144-34 17.6"/><path fill="#000" d="M1011.2 155.6s-10-70.4-40.6-101.4c-38.8-40.7-82.4-40.9-102.3-43.3-142.9-10.3-357.4-10.3-357.4-10.3h-.4s-214.4 0-357.4 10.3c-20 2.4-63.5 2.6-102.3 43.3-30.6 31-40.6 101.4-40.6 101.4s-10.2 82.6-10.2 165.3v77.5c0 82.6 10.2 165.3 10.2 165.3s10 70.4 40.6 101.4c38.9 40.7 89.9 39.4 112.6 43.7 81.7 7.8 347.3 10.3 347.3 10.3s214.6-.3 357.6-10.7c20-2.4 63.5-2.6 102.3-43.3 30.6-31 40.6-101.4 40.6-101.4s10.2-82.7 10.2-165.3v-77.5c.1-82.7-10.2-165.3-10.2-165.3m-605.9 336.7v-287l276 144-276 143z"/></svg>