<svg viewBox="0 0 600 631" xmlns="http://www.w3.org/2000/svg" xmlns:xlink="http://www.w3.org/1999/xlink"><mask id="a" fill="#fff"><path d="m0 .129h583.238v490.25h-583.238z" fill="#fff" fill-rule="evenodd"/></mask><mask id="b" fill="#fff"><path d="m0 630.872h599.857v-630.61h-599.857z" fill="#fff" fill-rule="evenodd"/></mask><mask id="c" fill="#fff"><path d="m0 630.872h599.857v-630.61h-599.857z" fill="#fff" fill-rule="evenodd"/></mask><mask id="d" fill="#fff"><path d="m0 630.872h599.857v-630.61h-599.857z" fill="#fff" fill-rule="evenodd"/></mask><mask id="e" fill="#fff"><path d="m0 630.872h599.857v-630.61h-599.857z" fill="#fff" fill-rule="evenodd"/></mask><mask id="f" fill="#fff"><path d="m0 630.872h599.857v-630.61h-599.857z" fill="#fff" fill-rule="evenodd"/></mask><mask id="g" fill="#fff"><path d="m0 630.872h599.857v-630.61h-599.857z" fill="#fff" fill-rule="evenodd"/></mask><mask id="h" fill="#fff"><path d="m0 630.872h599.857v-630.61h-599.857z" fill="#fff" fill-rule="evenodd"/></mask><mask id="i" fill="#fff"><path d="m0 630.872h599.857v-630.61h-599.857z" fill="#fff" fill-rule="evenodd"/></mask><mask id="j" fill="#fff"><path d="m0 630.872h599.857v-630.61h-599.857z" fill="#fff" fill-rule="evenodd"/></mask><mask id="k" fill="#fff"><path d="m0 630.872h599.857v-630.61h-599.857z" fill="#fff" fill-rule="evenodd"/></mask><mask id="l" fill="#fff"><path d="m0 630.872h599.857v-630.61h-599.857z" fill="#fff" fill-rule="evenodd"/></mask><mask id="m" fill="#fff"><path d="m0 630.872h599.857v-630.61h-599.857z" fill="#fff" fill-rule="evenodd"/></mask><mask id="n" fill="#fff"><path d="m0 630.872h599.857v-630.61h-599.857z" fill="#fff" fill-rule="evenodd"/></mask><mask id="o" fill="#fff"><path d="m0 630.872h599.857v-630.61h-599.857z" fill="#fff" fill-rule="evenodd"/></mask><mask id="p" fill="#fff"><path d="m0 630.872h599.857v-630.61h-599.857z" fill="#fff" fill-rule="evenodd"/></mask><mask id="q" fill="#fff"><path d="m0 630.872h599.857v-630.61h-599.857z" fill="#fff" fill-rule="evenodd"/></mask><mask id="r" fill="#fff"><path d="m0 630.872h599.857v-630.61h-599.857z" fill="#fff" fill-rule="evenodd"/></mask><mask id="s" fill="#fff"><path d="m0 630.872h599.857v-630.61h-599.857z" fill="#fff" fill-rule="evenodd"/></mask><mask id="t" fill="#fff"><path d="m0 630.872h599.857v-630.61h-599.857z" fill="#fff" fill-rule="evenodd"/></mask><mask id="u" fill="#fff"><path d="m0 630.872h599.857v-630.61h-599.857z" fill="#fff" fill-rule="evenodd"/></mask><mask id="v" fill="#fff"><path d="m0 630.872h599.857v-630.61h-599.857z" fill="#fff" fill-rule="evenodd"/></mask><mask id="w" fill="#fff"><path d="m0 630.872h599.857v-630.61h-599.857z" fill="#fff" fill-rule="evenodd"/></mask><mask id="x" fill="#fff"><path d="m0 630.872h599.857v-630.61h-599.857z" fill="#fff" fill-rule="evenodd"/></mask><mask id="y" fill="#fff"><path d="m0 630.872h599.857v-630.61h-599.857z" fill="#fff" fill-rule="evenodd"/></mask><mask id="z" fill="#fff"><path d="m0 630.872h599.857v-630.61h-599.857z" fill="#fff" fill-rule="evenodd"/></mask><mask id="A" fill="#fff"><path d="m0 630.872h599.857v-630.61h-599.857z" fill="#fff" fill-rule="evenodd"/></mask><mask id="B" fill="#fff"><path d="m0 630.872h599.857v-630.61h-599.857z" fill="#fff" fill-rule="evenodd"/></mask><mask id="C" fill="#fff"><path d="m0 630.872h599.857v-630.61h-599.857z" fill="#fff" fill-rule="evenodd"/></mask><mask id="D" fill="#fff"><path d="m0 630.872h599.857v-630.61h-599.857z" fill="#fff" fill-rule="evenodd"/></mask><mask id="E" fill="#fff"><path d="m0 630.872h599.857v-630.61h-599.857z" fill="#fff" fill-rule="evenodd"/></mask><mask id="F" fill="#fff"><path d="m0 630.872h599.857v-630.61h-599.857z" fill="#fff" fill-rule="evenodd"/></mask><mask id="G" fill="#fff"><path d="m0 630.872h599.857v-630.61h-599.857z" fill="#fff" fill-rule="evenodd"/></mask><mask id="H" fill="#fff"><path d="m0 630.872h599.857v-630.61h-599.857z" fill="#fff" fill-rule="evenodd"/></mask><mask id="I" fill="#fff"><path d="m0 630.872h599.857v-630.61h-599.857z" fill="#fff" fill-rule="evenodd"/></mask><mask id="J" fill="#fff"><path d="m0 630.872h599.857v-630.61h-599.857z" fill="#fff" fill-rule="evenodd"/></mask><mask id="K" fill="#fff"><path d="m0 630.872h599.857v-630.61h-599.857z" fill="#fff" fill-rule="evenodd"/></mask><mask id="L" fill="#fff"><path d="m0 630.872h599.857v-630.61h-599.857z" fill="#fff" fill-rule="evenodd"/></mask><mask id="M" fill="#fff"><path d="m0 630.872h599.857v-630.61h-599.857z" fill="#fff" fill-rule="evenodd"/></mask><mask id="N" fill="#fff"><path d="m0 630.872h599.857v-630.61h-599.857z" fill="#fff" fill-rule="evenodd"/></mask><mask id="O" fill="#fff"><path d="m0 630.872h599.857v-630.61h-599.857z" fill="#fff" fill-rule="evenodd"/></mask><mask id="P" fill="#fff"><path d="m0 630.872h599.857v-630.61h-599.857z" fill="#fff" fill-rule="evenodd"/></mask><mask id="Q" fill="#fff"><path d="m0 630.872h599.857v-630.61h-599.857z" fill="#fff" fill-rule="evenodd"/></mask><mask id="R" fill="#fff"><path d="m0 630.872h599.857v-630.61h-599.857z" fill="#fff" fill-rule="evenodd"/></mask><mask id="S" fill="#fff"><path d="m0 630.872h599.857v-630.61h-599.857z" fill="#fff" fill-rule="evenodd"/></mask><mask id="T" fill="#fff"><path d="m0 630.872h599.857v-630.61h-599.857z" fill="#fff" fill-rule="evenodd"/></mask><mask id="U" fill="#fff"><path d="m0 630.872h599.857v-630.61h-599.857z" fill="#fff" fill-rule="evenodd"/></mask><mask id="V" fill="#fff"><path d="m0 630.872h599.857v-630.61h-599.857z" fill="#fff" fill-rule="evenodd"/></mask><mask id="W" fill="#fff"><path d="m0 630.872h599.857v-630.61h-599.857z" fill="#fff" fill-rule="evenodd"/></mask><mask id="X" fill="#fff"><path d="m0 630.872h599.857v-630.61h-599.857z" fill="#fff" fill-rule="evenodd"/></mask><mask id="Y" fill="#fff"><path d="m0 630.872h599.857v-630.61h-599.857z" fill="#fff" fill-rule="evenodd"/></mask><mask id="Z" fill="#fff"><path d="m0 630.872h599.857v-630.61h-599.857z" fill="#fff" fill-rule="evenodd"/></mask><mask id="aa" fill="#fff"><path d="m0 630.872h599.857v-630.61h-599.857z" fill="#fff" fill-rule="evenodd"/></mask><mask id="ab" fill="#fff"><path d="m0 630.872h599.857v-630.61h-599.857z" fill="#fff" fill-rule="evenodd"/></mask><mask id="ac" fill="#fff"><path d="m0 630.872h599.857v-630.61h-599.857z" fill="#fff" fill-rule="evenodd"/></mask><mask id="ad" fill="#fff"><path d="m0 630.872h599.857v-630.61h-599.857z" fill="#fff" fill-rule="evenodd"/></mask><mask id="ae" fill="#fff"><path d="m0 630.872h599.857v-630.61h-599.857z" fill="#fff" fill-rule="evenodd"/></mask><mask id="af" fill="#fff"><path d="m0 630.872h599.857v-630.61h-599.857z" fill="#fff" fill-rule="evenodd"/></mask><mask id="ag" fill="#fff"><path d="m0 630.872h599.857v-630.61h-599.857z" fill="#fff" fill-rule="evenodd"/></mask><mask id="ah" fill="#fff"><path d="m0 630.872h599.857v-630.61h-599.857z" fill="#fff" fill-rule="evenodd"/></mask><mask id="ai" fill="#fff"><path d="m0 630.872h599.857v-630.61h-599.857z" fill="#fff" fill-rule="evenodd"/></mask><mask id="aj" fill="#fff"><path d="m0 630.872h599.857v-630.61h-599.857z" fill="#fff" fill-rule="evenodd"/></mask><mask id="ak" fill="#fff"><path d="m0 630.872h599.857v-630.61h-599.857z" fill="#fff" fill-rule="evenodd"/></mask><mask id="al" fill="#fff"><path d="m0 630.872h599.857v-630.61h-599.857z" fill="#fff" fill-rule="evenodd"/></mask><mask id="am" fill="#fff"><path d="m0 630.872h599.857v-630.61h-599.857z" fill="#fff" fill-rule="evenodd"/></mask><mask id="an" fill="#fff"><path d="m0 630.872h599.857v-630.61h-599.857z" fill="#fff" fill-rule="evenodd"/></mask><mask id="ao" fill="#fff"><path d="m0 630.872h599.857v-630.61h-599.857z" fill="#fff" fill-rule="evenodd"/></mask><mask id="ap" fill="#fff"><path d="m0 630.872h599.857v-630.61h-599.857z" fill="#fff" fill-rule="evenodd"/></mask><mask id="aq" fill="#fff"><path d="m0 630.872h599.857v-630.61h-599.857z" fill="#fff" fill-rule="evenodd"/></mask><mask id="ar" fill="#fff"><path d="m0 630.872h599.857v-630.61h-599.857z" fill="#fff" fill-rule="evenodd"/></mask><mask id="as" fill="#fff"><path d="m0 630.872h599.857v-630.61h-599.857z" fill="#fff" fill-rule="evenodd"/></mask><mask id="at" fill="#fff"><path d="m0 630.872h599.857v-630.61h-599.857z" fill="#fff" fill-rule="evenodd"/></mask><mask id="au" fill="#fff"><path d="m0 630.872h599.857v-630.61h-599.857z" fill="#fff" fill-rule="evenodd"/></mask><mask id="av" fill="#fff"><path d="m0 630.872h599.857v-630.61h-599.857z" fill="#fff" fill-rule="evenodd"/></mask><mask id="aw" fill="#fff"><path d="m0 630.872h599.857v-630.61h-599.857z" fill="#fff" fill-rule="evenodd"/></mask><mask id="ax" fill="#fff"><path d="m0 630.872h599.857v-630.61h-599.857z" fill="#fff" fill-rule="evenodd"/></mask><mask id="ay" fill="#fff"><path d="m0 630.872h599.857v-630.61h-599.857z" fill="#fff" fill-rule="evenodd"/></mask><mask id="az" fill="#fff"><path d="m0 630.872h599.857v-630.61h-599.857z" fill="#fff" fill-rule="evenodd"/></mask><mask id="aA" fill="#fff"><path d="m0 630.872h599.857v-630.61h-599.857z" fill="#fff" fill-rule="evenodd"/></mask><mask id="aB" fill="#fff"><path d="m0 630.872h599.857v-630.61h-599.857z" fill="#fff" fill-rule="evenodd"/></mask><mask id="aC" fill="#fff"><path d="m0 630.872h599.857v-630.61h-599.857z" fill="#fff" fill-rule="evenodd"/></mask><mask id="aD" fill="#fff"><path d="m0 630.872h599.857v-630.61h-599.857z" fill="#fff" fill-rule="evenodd"/></mask><mask id="aE" fill="#fff"><path d="m0 630.872h599.857v-630.61h-599.857z" fill="#fff" fill-rule="evenodd"/></mask><mask id="aF" fill="#fff"><path d="m0 630.872h599.857v-630.61h-599.857z" fill="#fff" fill-rule="evenodd"/></mask><mask id="aG" fill="#fff"><path d="m0 630.872h599.857v-630.61h-599.857z" fill="#fff" fill-rule="evenodd"/></mask><mask id="aH" fill="#fff"><path d="m0 630.872h599.857v-630.61h-599.857z" fill="#fff" fill-rule="evenodd"/></mask><mask id="aI" fill="#fff"><path d="m0 630.872h599.857v-630.61h-599.857z" fill="#fff" fill-rule="evenodd"/></mask><mask id="aJ" fill="#fff"><path d="m0 630.872h599.857v-630.61h-599.857z" fill="#fff" fill-rule="evenodd"/></mask><mask id="aK" fill="#fff"><path d="m0 630.872h599.857v-630.61h-599.857z" fill="#fff" fill-rule="evenodd"/></mask><mask id="aL" fill="#fff"><path d="m0 630.872h599.857v-630.61h-599.857z" fill="#fff" fill-rule="evenodd"/></mask><mask id="aM" fill="#fff"><path d="m0 630.872h599.857v-630.61h-599.857z" fill="#fff" fill-rule="evenodd"/></mask><mask id="aN" fill="#fff"><path d="m0 630.872h599.857v-630.61h-599.857z" fill="#fff" fill-rule="evenodd"/></mask><mask id="aO" fill="#fff"><path d="m0 630.872h599.857v-630.61h-599.857z" fill="#fff" fill-rule="evenodd"/></mask><mask id="aP" fill="#fff"><path d="m0 630.872h599.857v-630.61h-599.857z" fill="#fff" fill-rule="evenodd"/></mask><mask id="aQ" fill="#fff"><path d="m0 630.872h599.857v-630.61h-599.857z" fill="#fff" fill-rule="evenodd"/></mask><mask id="aR" fill="#fff"><path d="m0 630.872h599.857v-630.61h-599.857z" fill="#fff" fill-rule="evenodd"/></mask><mask id="aS" fill="#fff"><path d="m0 630.872h599.857v-630.61h-599.857z" fill="#fff" fill-rule="evenodd"/></mask><mask id="aT" fill="#fff"><path d="m0 630.872h599.857v-630.61h-599.857z" fill="#fff" fill-rule="evenodd"/></mask><mask id="aU" fill="#fff"><path d="m0 630.872h599.857v-630.61h-599.857z" fill="#fff" fill-rule="evenodd"/></mask><mask id="aV" fill="#fff"><path d="m0 630.872h599.857v-630.61h-599.857z" fill="#fff" fill-rule="evenodd"/></mask><mask id="aW" fill="#fff"><path d="m0 630.872h599.857v-630.61h-599.857z" fill="#fff" fill-rule="evenodd"/></mask><mask id="aX" fill="#fff"><path d="m0 630.872h599.857v-630.61h-599.857z" fill="#fff" fill-rule="evenodd"/></mask><mask id="aY" fill="#fff"><path d="m0 630.872h599.857v-630.61h-599.857z" fill="#fff" fill-rule="evenodd"/></mask><mask id="aZ" fill="#fff"><path d="m0 630.872h599.857v-630.61h-599.857z" fill="#fff" fill-rule="evenodd"/></mask><mask id="a0" fill="#fff"><path d="m0 630.872h599.857v-630.61h-599.857z" fill="#fff" fill-rule="evenodd"/></mask><mask id="a1" fill="#fff"><path d="m0 630.872h599.857v-630.61h-599.857z" fill="#fff" fill-rule="evenodd"/></mask><mask id="a2" fill="#fff"><path d="m0 630.872h599.857v-630.61h-599.857z" fill="#fff" fill-rule="evenodd"/></mask><mask id="a3" fill="#fff"><path d="m0 630.872h599.857v-630.61h-599.857z" fill="#fff" fill-rule="evenodd"/></mask><mask id="a4" fill="#fff"><path d="m0 630.872h599.857v-630.61h-599.857z" fill="#fff" fill-rule="evenodd"/></mask><mask id="a5" fill="#fff"><path d="m0 630.872h599.857v-630.61h-599.857z" fill="#fff" fill-rule="evenodd"/></mask><mask id="a6" fill="#fff"><path d="m0 630.872h599.857v-630.61h-599.857z" fill="#fff" fill-rule="evenodd"/></mask><mask id="a7" fill="#fff"><path d="m0 630.872h599.857v-630.61h-599.857z" fill="#fff" fill-rule="evenodd"/></mask><mask id="a8" fill="#fff"><path d="m0 630.872h599.857v-630.61h-599.857z" fill="#fff" fill-rule="evenodd"/></mask><mask id="a9" fill="#fff"><path d="m0 630.872h599.857v-630.61h-599.857z" fill="#fff" fill-rule="evenodd"/></mask><mask id="ba" fill="#fff"><path d="m0 630.872h599.857v-630.61h-599.857z" fill="#fff" fill-rule="evenodd"/></mask><mask id="bb" fill="#fff"><path d="m0 630.872h599.857v-630.61h-599.857z" fill="#fff" fill-rule="evenodd"/></mask><mask id="bc" fill="#fff"><path d="m0 630.872h599.857v-630.61h-599.857z" fill="#fff" fill-rule="evenodd"/></mask><mask id="bd" fill="#fff"><path d="m0 630.872h599.857v-630.61h-599.857z" fill="#fff" fill-rule="evenodd"/></mask><mask id="be" fill="#fff"><path d="m0 630.872h599.857v-630.61h-599.857z" fill="#fff" fill-rule="evenodd"/></mask><mask id="bf" fill="#fff"><path d="m0 630.872h599.857v-630.61h-599.857z" fill="#fff" fill-rule="evenodd"/></mask><mask id="bg" fill="#fff"><path d="m0 630.872h599.857v-630.61h-599.857z" fill="#fff" fill-rule="evenodd"/></mask><mask id="bh" fill="#fff"><path d="m0 630.872h599.857v-630.61h-599.857z" fill="#fff" fill-rule="evenodd"/></mask><mask id="bi" fill="#fff"><path d="m0 630.872h599.857v-630.61h-599.857z" fill="#fff" fill-rule="evenodd"/></mask><g fill="none" fill-rule="evenodd"><g fill-rule="nonzero"><path d="m493.975729 374.582957c27.84655-6.223788 51.980699-25.26437 67.178254-49.416891 15.197554-24.152521 21.903144-53.038852 22.086821-81.575355.178943-29.930311-7.345424-61.239494-27.741494-83.142636-21.833188-23.446576-54.494934-32.606296-82.624192-47.938967-41.281572-22.5021727-73.432926-58.8939447-113.717293-83.1360842-64.797118-38.99386088-153.858864-40.9500133-213.129956 6.0207043-34.293275 27.1764992-55.7428821 66.8694909-79.3564192 103.7085709-22.7017467 35.417234-48.5635808 69.922819-60.14960701 110.365254-14.05860262 49.07309-4.87886462 103.858198 22.62759821 146.858437 27.5064629 42.999977 72.510393 73.966931 122.008821 86.420796 42.19048 10.614845 86.478341 8.26589 129.795983 4.231211 41.326637-3.849152 82.516244-9.169153 123.465065-15.946638 17.984542-2.976549 36.573799-6.498147 51.449345-17.036476 23.853013-16.898641 32.774148-47.550881 40.126114-75.846305" fill="#fff" mask="url(#a)" transform="translate(0 .134)"/><path d="m318.146384 360.734629h53.996332c.76035 0 1.376332.616326 1.376332 1.375727v12.856887c0 .759401-.615982 1.375465-1.376332 1.375465h-53.996332c-.759301 0-1.375546-.616064-1.375546-1.375465v-12.856887c0-.759401.616245-1.375727 1.375546-1.375727" fill="#f6f9fb"/><path d="m318.146384 361.696039c-.228995 0-.41476.185789-.41476.414291v12.856887c0 .228501.185765.41429.41476.41429h53.99607c.228996 0 .415808-.185789.415808-.41429v-12.856887c0-.228502-.186812-.414291-.415808-.414291zm53.99607 15.607817h-53.99607c-1.288559 0-2.336856-1.048435-2.336856-2.336639v-12.856887c0-1.288205 1.048297-2.33664 2.336856-2.33664h53.99607c1.289607 0 2.337642 1.048435 2.337642 2.33664v12.856887c0 1.288204-1.048035 2.336639-2.337642 2.336639z" fill="#b3cde3"/><path d="m318.146384 376.213625h53.996332c.76035 0 1.376332.610823 1.376332 1.364197v12.750235c0 .753375-.615982 1.364197-1.376332 1.364197h-53.996332c-.759301 0-1.375546-.610822-1.375546-1.364197v-12.750235c0-.753374.616245-1.364197 1.375546-1.364197" fill="#fff"/><path d="m318.146384 377.174537c-.228995 0-.41476.180548-.41476.403285v12.750497c0 .222475.185765.403023.41476.403023h53.99607c.228996 0 .415808-.180548.415808-.403023v-12.750497c0-.222737-.186812-.403285-.415808-.403285zm53.99607 15.479154h-53.99607c-1.288559 0-2.336856-1.043194-2.336856-2.325372v-12.750497c0-1.282177 1.048297-2.325371 2.336856-2.325371h53.99607c1.289607 0 2.337642 1.043194 2.337642 2.325371v12.750497c0 1.282178-1.048035 2.325372-2.337642 2.325372z" fill="#b5cfe4"/><path d="m318.146384 391.692333h53.996332c.76035 0 1.376332.611085 1.376332 1.364197v12.750497c0 .753112-.615982 1.364197-1.376332 1.364197h-53.996332c-.759301 0-1.375546-.611085-1.375546-1.364197v-12.750497c0-.753112.616245-1.364197 1.375546-1.364197" fill="#fff"/><path d="m318.146384 392.653743c-.228995 0-.41476.180548-.41476.402498v12.75076c0 .222475.185765.403022.41476.403022h53.99607c.228996 0 .415808-.180547.415808-.403022v-12.75076c0-.22195-.186812-.402498-.415808-.402498zm53.99607 15.478367h-53.99607c-1.288559 0-2.336856-1.042932-2.336856-2.325109v-12.75076c0-1.281915 1.048297-2.324847 2.336856-2.324847h53.99607c1.289607 0 2.337642 1.042932 2.337642 2.324847v12.75076c0 1.282177-1.048035 2.325109-2.337642 2.325109z" fill="#b5cfe4"/><path d="m318.146384 360.734629h53.996332c.76035 0 1.376332.611085 1.376332 1.364197v12.750497c0 .753113-.615982 1.364197-1.376332 1.364197h-53.996332c-.759301 0-1.375546-.611084-1.375546-1.364197v-12.750497c0-.753112.616245-1.364197 1.375546-1.364197" fill="#fff"/><path d="m318.146384 361.696039c-.228995 0-.41476.180548-.41476.403023v12.750235c0 .222475.185765.403023.41476.403023h53.99607c.228996 0 .415808-.180548.415808-.403023v-12.750235c0-.222475-.186812-.403023-.415808-.403023zm53.99607 15.478367h-53.99607c-1.288559 0-2.336856-1.042931-2.336856-2.325109v-12.750235c0-1.281916 1.048297-2.325372 2.336856-2.325372h53.99607c1.289607 0 2.337642 1.043456 2.337642 2.325372v12.750235c0 1.282178-1.048035 2.325109-2.337642 2.325109z" fill="#b5cfe4"/><path d="m321.893555 368.538616c0-1.262 1.023406-2.285803 2.285502-2.285803 1.262882 0 2.286288 1.023803 2.286288 2.285803s-1.023406 2.285803-2.286288 2.285803c-1.262096 0-2.285502-1.023803-2.285502-2.285803" fill="#f6f9fb"/><path d="m324.178716 367.213804c-.729956 0-1.324192.594314-1.324192 1.324891 0 .730314.594236 1.324366 1.324192 1.324366.731267 0 1.326288-.594052 1.326288-1.324366 0-.730577-.595021-1.324891-1.326288-1.324891m0 4.571344c-1.789519 0-3.246026-1.455912-3.246026-3.246453 0-1.79028 1.456507-3.246978 3.246026-3.246978 1.790568 0 3.24786 1.456698 3.24786 3.246978 0 1.790541-1.457292 3.246453-3.24786 3.246453m7.172751-3.246532c0-1.262 1.023668-2.285803 2.285502-2.285803 1.262883 0 2.286289 1.023803 2.286289 2.285803s-1.023406 2.285803-2.286289 2.285803c-1.261834 0-2.285502-1.023803-2.285502-2.285803" fill="#2d8adf"/><path d="m321.893555 399.754249c0-1.262 1.023406-2.285803 2.285502-2.285803 1.262882 0 2.286288 1.023803 2.286288 2.285803s-1.023406 2.285803-2.286288 2.285803c-1.262096 0-2.285502-1.023803-2.285502-2.285803" fill="#f6f9fb"/><path d="m324.178716 398.429699c-.729956 0-1.324192.594314-1.324192 1.324366 0 .730839.594236 1.324629 1.324192 1.324629.731267 0 1.326288-.59379 1.326288-1.324629 0-.730052-.595021-1.324366-1.326288-1.324366m0 4.571344c-1.789519 0-3.246026-1.456699-3.246026-3.246978s1.456507-3.246453 3.246026-3.246453c1.790568 0 3.24786 1.456174 3.24786 3.246453s-1.457292 3.246978-3.24786 3.246978m7.172751-3.246794c0-1.262 1.023668-2.285803 2.285502-2.285803 1.262883 0 2.286289 1.023803 2.286289 2.285803s-1.023406 2.285803-2.286289 2.285803c-1.261834 0-2.285502-1.023803-2.285502-2.285803" fill="#2d8adf"/><path d="m335.923048 384.146563c0 1.261738-1.023406 2.285803-2.285502 2.285803-1.262882 0-2.286288-1.024065-2.286288-2.285803 0-1.262 1.023406-2.285802 2.286288-2.285802 1.262096 0 2.285502 1.023802 2.285502 2.285802" fill="#f6f9fb"/><path d="m333.637651 382.822014c-.731267 0-1.325241.594314-1.325241 1.324366 0 .730838.593974 1.324628 1.325241 1.324628.729956 0 1.324192-.59379 1.324192-1.324628 0-.730052-.594236-1.324366-1.324192-1.324366m0 4.571343c-1.790568 0-3.247337-1.456436-3.247337-3.246977 0-1.790279 1.456769-3.246453 3.247337-3.246453 1.789519 0 3.246026 1.456174 3.246026 3.246453 0 1.790541-1.456507 3.246977-3.246026 3.246977m-7.172751-3.246794c0 1.261738-1.023407 2.285803-2.285503 2.285803-1.262882 0-2.286288-1.024065-2.286288-2.285803 0-1.262 1.023406-2.285802 2.286288-2.285802 1.262096 0 2.285503 1.023802 2.285503 2.285802" fill="#2d8adf"/><path d="m351.607493 397.468289 4.728734 5.081279" fill="#f6f9fb"/><path d="m356.335939 403.510638c-.257031 0-.514323-.102721-.703756-.306329l-4.728733-5.081541c-.36131-.38861-.339826-.99655.048471-1.357908.389607-.36162.996944-.340918 1.35904.048478l4.728995 5.081542c.361048.38861.339564.997074-.048995 1.358432-.185764.172162-.420262.257326-.655022.257326" fill="#b5cfe4"/><path d="m342.149607 397.468289 4.728734 5.081279" fill="#f6f9fb"/><path d="m346.878288 403.510638c-.25703 0-.514323-.102721-.704017-.306329l-4.728734-5.081541c-.36131-.38861-.339563-.99655.048734-1.357908.389607-.36162.996681-.340918 1.359039.048478l4.728996 5.081542c.361048.38861.339301.997074-.048996 1.358432-.185764.172162-.420262.257326-.655022.257326" fill="#b5cfe4"/><path d="m361.065668 397.468289 4.728734 5.081279" fill="#f6f9fb"/><path d="m365.794873 403.510638c-.25703 0-.514323-.102721-.704017-.306329l-4.728734-5.081541c-.36131-.38861-.339825-.99655.048734-1.357908.389607-.36162.996681-.340918 1.359039.048478l4.728734 5.081542c.361048.38861.339563.997074-.048734 1.358432-.186026.172162-.420524.257326-.655022.257326" fill="#b5cfe4"/><path d="m351.607493 381.605976 4.728734 5.08128" fill="#f6f9fb"/><path d="m356.335939 387.648325c-.257031 0-.514323-.102983-.703756-.30659l-4.728733-5.081018c-.36131-.38861-.339826-.996026.048471-1.357908.389607-.361357.996944-.340918 1.35904.048478l4.728995 5.08128c.361048.388348.339564.996288-.048995 1.35817-.185764.172162-.420262.257588-.655022.257588" fill="#b5cfe4"/><path d="m342.149607 381.605976 4.728734 5.08128" fill="#f6f9fb"/><path d="m346.878288 387.648325c-.25703 0-.514323-.102983-.704017-.30659l-4.728734-5.081018c-.36131-.38861-.339563-.996026.048734-1.357908.389607-.361357.996681-.340918 1.359039.048478l4.728996 5.08128c.361048.388348.339301.996288-.048996 1.35817-.185764.172162-.420262.257588-.655022.257588" fill="#b5cfe4"/><path d="m361.065668 381.605976 4.728734 5.08128" fill="#f6f9fb"/><path d="m365.794873 387.648325c-.25703 0-.514323-.102983-.704017-.30659l-4.728734-5.081018c-.36131-.38861-.339825-.996026.048734-1.357908.389607-.361357.996681-.340918 1.359039.048478l4.728734 5.08128c.361048.388348.339563.996288-.048734 1.35817-.186026.172162-.420524.257588-.655022.257588" fill="#b5cfe4"/><path d="m351.607493 365.998291 4.728734 5.081279" fill="#f6f9fb"/><path d="m356.335939 372.04064c-.257031 0-.514323-.102983-.703756-.306591l-4.728733-5.081017c-.36131-.38861-.339826-.996026.048471-1.357908.389607-.361096.996944-.340918 1.35904.048478l4.728995 5.081279c.361048.388348.339564.996289-.048995 1.35817-.185764.172163-.420262.257589-.655022.257589" fill="#b5cfe4"/><path d="m342.149607 365.998291 4.728734 5.081279" fill="#f6f9fb"/><path d="m346.878288 372.04064c-.25703 0-.514323-.102983-.704017-.306591l-4.728734-5.081017c-.36131-.38861-.339563-.996026.048734-1.357908.389607-.361096.996681-.340918 1.359039.048478l4.728996 5.081279c.361048.388348.339301.996289-.048996 1.35817-.185764.172163-.420262.257589-.655022.257589" fill="#b5cfe4"/><path d="m361.065668 365.998291 4.728734 5.081279" fill="#f6f9fb"/><path d="m365.794873 372.04064c-.25703 0-.514323-.102983-.704017-.306591l-4.728734-5.081017c-.36131-.38861-.339825-.996026.048734-1.357908.389607-.361096.996681-.340918 1.359039.048478l4.728734 5.081279c.361048.388348.339563.996289-.048734 1.35817-.186026.172163-.420524.257589-.655022.257589" fill="#b5cfe4"/><path d="m358.013 137.128h-2.58l-3.266 46.601h5.846 5.846l-3.267-46.601z" fill="#fff"/><path d="m353.196943 182.768285h9.631441l-3.132576-44.679412h-3.366288zm10.66166 1.922087h-11.692402c-.266201 0-.520611-.110582-.702708-.305542-.182096-.195222-.274061-.457004-.255196-.722453l3.266725-46.601761c.034847-.503385.453275-.893829.958166-.893829h5.15869c.504891 0 .923581.390444.958166.893829l3.266987 46.601761c.018602.265449-.073363.527231-.255459.722453-.182096.19496-.436244.305542-.702969.305542z" fill="#b5cfe4"/><path d="m355.035118 142.813591h1.907423" fill="#f6f9fb"/><path d="m356.942358 143.774896h-1.906899c-.531354 0-.961049-.430275-.961049-.961174 0-.530638.429695-.960913.961049-.960913h1.906899c.531092 0 .960786.430275.960786.960913 0 .530899-.429694.961174-.960786.961174" fill="#b5cfe4"/><path d="m361.706594 153.031886h-2.357031" fill="#f6f9fb"/><path d="m361.706856 153.992799h-2.357555c-.531091 0-.960786-.430537-.960786-.961175 0-.530637.429695-.960912.960786-.960912h2.357555c.531092 0 .961048.430275.961048.960912 0 .530638-.429956.961175-.961048.961175" fill="#b5cfe4"/><path d="m354.105537 156.072635h5.244105" fill="#f6f9fb"/><path d="m359.349301 157.033784h-5.244104c-.531092 0-.961049-.430537-.961049-.961175 0-.530637.429957-.960912.961049-.960912h5.244104c.531092 0 .961048.430275.961048.960912 0 .530638-.429956.961175-.961048.961175" fill="#b5cfe4"/><path d="m358.015205 166.226154h4.259476" fill="#f6f9fb"/><path d="m362.274629 167.187328h-4.259738c-.531092 0-.961048-.430275-.961048-.961174 0-.530638.429956-.960913.961048-.960913h4.259738c.531092 0 .961048.430275.961048.960913 0 .530899-.429956.961174-.961048.961174" fill="#b5cfe4"/><path d="m328.948 183.729v-28.359l12.941 6.84v21.519z" fill="#fff"/><path d="m329.909135 182.768285h11.019302v-19.979745l-11.019302-5.823386zm11.98035 1.922087h-12.941398c-.531091 0-.961048-.430275-.961048-.961174v-28.3591c0-.336988.176594-.649606.464804-.823078.289781-.174521.646375-.183954.944803-.026729l12.941398 6.839328c.315458.166659.512489.493689.512489.849806v21.519773c0 .530899-.429957.961174-.961048.961174z" fill="#b5cfe4"/><path d="m332.526 167.892h5.786v-2.947h-5.786z" fill="#f6f9fb" mask="url(#b)"/><path d="m333.48655 166.930683h3.864629v-1.024065h-3.864629zm4.825415 1.922087h-5.786463c-.531354 0-.961048-.430275-.961048-.961174v-2.946152c0-.530638.429694-.960912.961048-.960912h5.786463c.531092 0 .960786.430274.960786.960912v2.946152c0 .530899-.429694.961174-.960786.961174z" fill="#b5cfe4" mask="url(#c)"/><path d="m332.526 174.679h5.786v-2.946h-5.786z" fill="#f6f9fb" mask="url(#d)"/><path d="m333.48655 173.717864h3.864629v-1.024065h-3.864629zm4.825415 1.922349h-5.786463c-.531354 0-.961048-.430275-.961048-.961175v-2.946151c0-.530638.429694-.961175.961048-.961175h5.786463c.531092 0 .960786.430537.960786.961175v2.946151c0 .5309-.429694.961175-.960786.961175z" fill="#b5cfe4" mask="url(#e)"/><path d="m342.498 183.729v-28.359l12.941 6.84v21.519z" fill="#fff" mask="url(#f)"/><path d="m343.458367 182.768285h11.019563v-19.979745l-11.019563-5.823386zm11.980611 1.922087h-12.941397c-.531092 0-.961048-.430275-.961048-.961174v-28.3591c0-.336988.176332-.649606.464541-.823078.288996-.174521.646638-.183954.945066-.026729l12.941397 6.839328c.315197.166659.512489.493689.512489.849806v21.519773c0 .530899-.429956.961174-.961048.961174z" fill="#b5cfe4" mask="url(#g)"/><path d="m346.074 167.892h5.787v-2.947h-5.787z" fill="#f6f9fb" mask="url(#h)"/><path d="m347.035808 166.930683h3.864629v-1.024065h-3.864629zm4.825415 1.922087h-5.786463c-.531092 0-.961048-.430275-.961048-.961174v-2.946152c0-.530638.429956-.960912.961048-.960912h5.786463c.531353 0 .961048.430274.961048.960912v2.946152c0 .530899-.429695.961174-.961048.961174z" fill="#b5cfe4" mask="url(#i)"/><path d="m346.074 174.679h5.787v-2.946h-5.787z" fill="#f6f9fb" mask="url(#j)"/><path d="m347.035808 173.717864h3.864629v-1.024065h-3.864629zm4.825415 1.922349h-5.786463c-.531092 0-.961048-.430275-.961048-.961175v-2.946151c0-.530638.429956-.961175.961048-.961175h5.786463c.531353 0 .961048.430537.961048.961175v2.946151c0 .5309-.429695.961175-.961048.961175z" fill="#b5cfe4" mask="url(#k)"/><path d="m360.532428 134.18063c.702707-.41429 1.174061-1.178932 1.174061-2.053894 0-.996027-.612052-1.847143-1.479825-2.202997-.104542-.417173-.303406-.816265-.620961-1.15037-.683581-.719833-1.680786-.947024-2.573974-.694677.048734-.509149-.107161-1.03507-.487074-1.43521-.59607-.627594-1.529869-.735031-2.246201-.316548-.080437-.165612-.17869-.324672-.31179-.465127-.696419-.732673-1.854498-.762284-2.586812-.066297-.732577.696249-.762446 1.85448-.066027 2.587153.133625.140979.28821.24763.450131.336463-.450393.693628-.390131 1.628074.204629 2.253833.266201.280387.600786.455956.952402.529066-.128384.772241.085153 1.592174.665502 2.203521.433101.455431.992227.718522 1.571004.786129" fill="#fff" mask="url(#l)"/><path d="m355.177886 135.452981c-.037467 0-.074934-.001834-.113711-.006551-.819826-.096694-1.584629-.480063-2.154498-1.079356-.580874-.611871-.914149-1.393284-.960786-2.220816-.24131-.134952-.46297-.306853-.657118-.51046-.678603-.714854-.914935-1.705115-.677555-2.616239-1.035982-1.114732-.98358-2.867539.122882-3.920691.541572-.513866 1.252926-.800542 1.994149-.766738.7331.018867 1.414585.316286 1.924978.839586.923319-.192863 1.904018.091977 2.584454.809976.283494.297943.493625.653273.619389 1.037691.91572.028563 1.795284.410097 2.441921 1.091934.310481.32703.550743.707254.71607 1.134385 1.015284.594052 1.649869 1.680483 1.649869 2.880903 0 1.178408-.631703 2.282658-1.648035 2.881951-.456943.269642-1.046463.117657-1.315808-.33987-.269345-.457004-.11738-1.046339.339826-1.315719.439126-.259161.701921-.717475.701921-1.226362 0-.577544-.347162-1.093507-.884017-1.313623-.281398-.115823-.492839-.358475-.566725-.654584-.072315-.285627-.202009-.529327-.386725-.723501-.410044-.431847-1.030481-.597196-1.61607-.430799-.303144.086736-.633537.016247-.876419-.187361-.244192-.203345-.371529-.513343-.340612-.829367.014149-.149888.003406-.43866-.228209-.68236-.275895-.291392-.714236-.351924-1.063232-.148317-.231877.135215-.508559.168494-.764017.090405-.255983-.077564-.46821-.258374-.585328-.49893-.048995-.100624-.095109-.1719-.143842-.223523-.161136-.16928-.376245-.264925-.607861-.271214-.239738.006551-.452489.079399-.621484.238983-.346376.32965-.360524.880727-.030917 1.227934.050829.053457.121048.104294.215895.15644.234498.128663.404279.349042.469257.608202.065765.258899.019651.53352-.125764.757829-.219825.338298-.180262.777744.095633 1.068612.12.126567.276944.213566.451441.249728.503843.105079.83607.588811.751703 1.097699-.084366.513342.066551 1.017775.41476 1.384374.264629.278814.605502.449666.986463.493951.526376.062104.903668.539809.841834 1.066778-.05738.488973-.473188.84902-.953712.84902" fill="#b5cfe4" mask="url(#m)"/><path d="m372.223022 158.190571c7.283057.01051 13.179301 5.924301 13.168588 13.208053-.01051 7.284015-5.923523 13.181035-13.206579 13.170581-7.282795-.01051-13.178778-5.9243-13.168325-13.208315.010508-7.283752 5.923259-13.180772 13.206316-13.170319" fill="#2d8adf" mask="url(#n)"/><path d="m380.903869 166.905317h-17.398952c-.531354 0-.961048-.430537-.961048-.961174 0-.530638.429694-.960912.961048-.960912h17.398952c.531092 0 .961048.430274.961048.960912 0 .530637-.429956.961174-.961048.961174" fill="#fff" mask="url(#o)"/><path d="m380.903869 172.371119h-17.398952c-.531354 0-.961048-.430275-.961048-.961174 0-.530638.429694-.960913.961048-.960913h17.398952c.531092 0 .961048.430275.961048.960913 0 .530899-.429956.961174-.961048.961174" fill="#fff" mask="url(#p)"/><path d="m380.903869 177.836921h-17.398952c-.531354 0-.961048-.430275-.961048-.960913 0-.530899.429694-.961174.961048-.961174h17.398952c.531092 0 .961048.430275.961048.961174 0 .530638-.429956.960913-.961048.960913" fill="#fff" mask="url(#q)"/><path d="m364.393991 165.88403c0-1.099271.891092-1.990742 1.990481-1.990742 1.099388 0 1.990218.891471 1.990218 1.990742 0 1.099533-.89083 1.990742-1.990218 1.990742-1.099389 0-1.990481-.891209-1.990481-1.990742" fill="#2d8adf" mask="url(#r)"/><path d="m366.384131 164.854541c-.567773 0-1.029694.46172-1.029694 1.029568 0 .567847.461921 1.029568 1.029694 1.029568s1.029432-.461721 1.029432-1.029568c0-.567848-.461659-1.029568-1.029432-1.029568m0 3.981484c-1.627336 0-2.951528-1.324366-2.951528-2.951916s1.324192-2.951655 2.951528-2.951655 2.951528 1.324105 2.951528 2.951655-1.324192 2.951916-2.951528 2.951916" fill="#fff" mask="url(#s)"/><path d="m375.288838 171.409971c0-1.099533.891092-1.990742 1.990481-1.990742 1.099126 0 1.990218.891209 1.990218 1.990742 0 1.099271-.891092 1.990742-1.990218 1.990742-1.099389 0-1.990481-.891471-1.990481-1.990742" fill="#2d8adf" mask="url(#t)"/><path d="m377.279502 170.380351c-.567773 0-1.029432.46172-1.029432 1.029567 0 .567848.461659 1.029568 1.029432 1.029568s1.029695-.46172 1.029695-1.029568c0-.567847-.461922-1.029567-1.029695-1.029567m0 3.981484c-1.627336 0-2.951528-1.324366-2.951528-2.951917 0-1.627288 1.324192-2.951654 2.951528-2.951654s2.951529 1.324366 2.951529 2.951654c0 1.627551-1.324193 2.951917-2.951529 2.951917" fill="#fff" mask="url(#u)"/><path d="m367.471048 176.875641c0-1.099271.891092-1.990742 1.99048-1.990742 1.099389 0 1.990219.891471 1.990219 1.990742 0 1.099534-.89083 1.990743-1.990219 1.990743-1.099388 0-1.99048-.891209-1.99048-1.990743" fill="#2d8adf" mask="url(#v)"/><path d="m369.461188 175.846257c-.567773 0-1.029433.46172-1.029433 1.029568 0 .567847.46166 1.029568 1.029433 1.029568s1.029694-.461721 1.029694-1.029568c0-.567848-.461921-1.029568-1.029694-1.029568m0 3.981484c-1.627336 0-2.951529-1.324366-2.951529-2.951916s1.324193-2.951917 2.951529-2.951917 2.951528 1.324367 2.951528 2.951917-1.324192 2.951916-2.951528 2.951916" fill="#fff" mask="url(#w)"/><path d="m45.061 318.395 49.599.071-.062 42.517-49.598-.07z" fill="#fff" mask="url(#x)"/><path d="m45.9620175 360.270944 48.0678602.068131.059214-40.912803-48.0678603-.068918zm49.0268122 1.99179h-.001048l-49.9886463-.071014c-.2551965-.000262-.4993887-.101935-.6796507-.282482-.18-.18081-.2803493-.425034-.2803493-.680002l.061048-42.835939c0-.254706.1021834-.499192.2824454-.678953.18-.179762.4241922-.280649.6786026-.280649h.0005241l49.9907423.0718c.2554585.000524.4996507.101673.6796507.282483.180262.180547.2806113.425296.2806113.680264l-.0628821 42.834628c-.001048.530375-.4307423.959864-.961048.959864z" fill="#b5cfe4" mask="url(#y)"/><path d="m39.102 312.435 49.599.072-.062 42.517-49.597-.07z" fill="#fff" mask="url(#z)"/><path d="m40.0036245 354.312003 48.0678602.068131.059214-40.912803-48.0678603-.069704zm49.0270742 1.99179h-.001048l-49.9889083-.071014c-.2549345-.000524-.4991267-.101934-.6793887-.282482-.180262-.18081-.2806113-.425296-.2806113-.680002l.061048-42.8362c0-.254968.1021834-.499717.2824454-.679216.180262-.179762.4241921-.280911.6786026-.280911h.0007861l49.9907423.072586c.2554585.000524.4993887.101673.6793887.282483.180524.180548.2806113.425034.2806113.680002l-.0628821 42.83489c-.000786.530375-.4304803.959864-.960786.959864z" fill="#b5cfe4" mask="url(#A)"/><path d="m89.0926638 325.315037h-50.0507424c-.5313537 0-.961048-.430537-.961048-.961174 0-.530638.4296943-.961175.961048-.961175h50.0507424c.5310917 0 .960786.430537.960786.961175 0 .530637-.4296943.961174-.960786.961174" fill="#b5cfe4" mask="url(#B)"/><path d="m45.3517697 318.95973c.0013133-.978469.7959858-1.76984 1.7743264-1.768794.9772925.001313 1.769607.795042 1.768561 1.773773-.0010501.978207-.7959846 1.770888-1.7743252 1.769581-.9783406-.0021-1.769869-.796091-1.7685622-1.77456" fill="#b5cfe4" mask="url(#C)"/><path d="m52.4372719 318.96995c.0013133-.97847.7959857-1.76984 1.7743264-1.768794.9772925.001312 1.7698689.795041 1.7685621 1.773773-.0010512.978207-.7959857 1.770887-1.7743263 1.769581-.9783407-.0021-1.769869-.796091-1.7685622-1.77456" fill="#b5cfe4" mask="url(#D)"/><path d="m59.5227741 318.980196c.0010512-.97847.7959857-1.770102 1.7743263-1.768796.9772926.001314 1.769607.794781 1.768561 1.773512-.00105.97847-.7962466 1.770888-1.7743252 1.769842-.9783406-.00236-1.769869-.796351-1.7685621-1.774558" fill="#b5cfe4" mask="url(#E)"/><path d="m45.9620175 348.402221 12.3576419.018081.0186026-17.126094-12.3576419-.018081zm13.3176419 1.941741h-.0020961l-14.279476-.020964c-.5300436-.001048-.96-.431061-.9589557-.962223l.0204405-19.048181c0-.255492.1024454-.499454.2824454-.67974.18131-.180024.3888209-.274621.6804366-.280386l14.279738.020963c.5300437.001048.96.431061.9589558.961961l-.0207025 19.048443c0 .255492-.1021834.499455-.2821834.67974-.180524.1795-.4241921.280387-.6786026.280387z" fill="#2d8adf" mask="url(#F)"/><path d="m81.9424192 347.960521h-16.6839301c-.5310917 0-.9610481-.430274-.9610481-.961174 0-.530637.4299564-.960912.9610481-.960912h16.6839301c.5310917 0 .961048.430275.961048.960912 0 .5309-.4299563.961174-.961048.961174" fill="#2d8adf" mask="url(#G)"/><path d="m81.9424192 340.809101h-16.6839301c-.5310917 0-.9610481-.430537-.9610481-.961175 0-.530637.4299564-.961174.9610481-.961174h16.6839301c.5310917 0 .961048.430537.961048.961174 0 .530638-.4299563.961175-.961048.961175" fill="#2d8adf" mask="url(#H)"/><path d="m81.9424192 333.657942h-16.6839301c-.5310917 0-.9610481-.430275-.9610481-.960912 0-.5309.4299564-.961175.9610481-.961175h16.6839301c.5310917 0 .961048.430275.961048.961175 0 .530637-.4299563.960912-.961048.960912" fill="#2d8adf" mask="url(#I)"/><path d="m228.472087 248.116956h-31.0931c-.22559 0-.40821-.182906-.40821-.408525v-51.268226c0-.225619.18262-.408525.40821-.408525h31.0931c.22559 0 .408472.182906.408472.408525v51.268226c0 .225619-.182882.408525-.408472.408525" fill="#fff" mask="url(#J)"/></g><g mask="url(#K)"><g fill-rule="nonzero" transform="translate(224 175)"><g fill="#b5cfe4"><path d="m3.34375546 1.92208679c-.78340612 0-1.42165939.63781313-1.42165939 1.42184635v47.31897296c0 .7842953.63825327 1.4221084 1.42165939 1.4221084h27.14410484c.7836681 0 1.4216594-.6378131 1.4216594-1.4221084v-47.31897296c0-.78403322-.6379913-1.42184635-1.4216594-1.42184635zm27.14410484 52.08527661h-27.14410484c-1.84401747 0-3.34375546-1.5004593-3.34375546-3.3444573v-47.31897296c0-1.84373588 1.49973799-3.34393314 3.34375546-3.34393314h27.14410484c1.8440174 0 3.3434934 1.50019726 3.3434934 3.34393314v47.31897296c0 1.843998-1.499476 3.3444573-3.3434934 3.3444573z"/><path d="m32.8704105 8.96192949h-31.90925766c-.5310917 0-.96104804-.43053697-.96104804-.96117442 0-.53063746.42995634-.96117442.96104804-.96117442h31.90925766c.5310917 0 .961048.43053696.961048.96117442 0 .53063745-.4299563.96117442-.961048.96117442m0 36.13816661h-31.90925766c-.5310917 0-.96104804-.430537-.96104804-.9611744 0-.5306375.42995634-.9609124.96104804-.9609124h31.90925766c.5310917 0 .961048.4302749.961048.9609124 0 .5306374-.4299563.9611744-.961048.9611744"/><path d="m13.866 5.654h6.1v-1.462h-6.1z"/><path d="m15.5412314 48.8164188c0-.7591391.6154586-1.3746786 1.3744979-1.3746786.7593013 0 1.3744978.6155395 1.3744978 1.3746786s-.6151965 1.3746786-1.3744978 1.3746786c-.7590393 0-1.3744979-.6155395-1.3744979-1.3746786"/></g><path d="m24.513 13.156h23.441v12.216h-16.24l-4.602 4.047v-4.047h-2.599z" fill="#f6f9fb"/><g fill="#2d8adf" transform="translate(23.552 12.194)"><path d="m1.92183406 12.2167155h1.63860262c.5310917 0 .96104804.4302749.96104804.9609124v1.9223488l3.00655021-2.6440157c.17554586-.1543435.40087337-.2392455.63458516-.2392455h15.27903931v-10.29436666h-21.51982534zm1.63860262 5.9693439c-.13414847 0-.26934498-.0283007-.3961572-.0854261-.34323145-.1559157-.56489083-.4984061-.56489083-.8757483v-3.0860827h-1.63860262c-.5308297 0-.96078603-.4302749-.96078603-.9611744v-12.21645348c0-.5308995.42995633-.96117442.96078603-.96117442h23.44192137c.5310917 0 .9610481.43027492.9610481.96117442v12.21645348c0 .5308995-.4299564.9611744-.9610481.9611744h-15.87799124l-4.32969433 3.8080117c-.17842794.1569638-.40558952.2392454-.63458515.2392454z"/><path d="m20.9120961 7.06950598c0-.77224128-.6259389-1.39826246-1.3980786-1.39826246-.7721398 0-1.3980786.62602118-1.3980786 1.39826246s.6259388 1.39826246 1.3980786 1.39826246c.7721397 0 1.3980786-.62602118 1.3980786-1.39826246m-4.6355371 0c0-.77224128-.6262009-1.39826246-1.3980787-1.39826246-.7721397 0-1.3980786.62602118-1.3980786 1.39826246s.6259389 1.39826246 1.3980786 1.39826246c.7718778 0 1.3980787-.62602118 1.3980787-1.39826246m-4.6358254 0c0-.77224128-.6259388-1.39826246-1.3980786-1.39826246-.77187771 0-1.39807858.62602118-1.39807858 1.39826246s.62620087 1.39826246 1.39807858 1.39826246c.7721398 0 1.3980786-.62602118 1.3980786-1.39826246m-4.63556329 0c0-.77224128-.62593887-1.39826246-1.39807861-1.39826246-.77213973 0-1.3980786.62602118-1.3980786 1.39826246s.62593887 1.39826246 1.3980786 1.39826246c.77213974 0 1.39807861-.62602118 1.39807861-1.39826246"/></g></g></g><path d="m161.097459 104.020088h-12.325415c-.162446 0-.294236.131546-.294236.294274v30.770684h12.913886v-30.770684c0-.162728-.13179-.294274-.294235-.294274" fill="#fff" fill-rule="nonzero" mask="url(#L)"/><path d="m149.43883 134.124081h10.992052v-28.387401c0-.416648-.338777-.75547-.755371-.75547h-9.48131c-.416594 0-.755371.338822-.755371.75547zm11.9531 1.922087h-12.914148c-.531092 0-.961048-.430275-.961048-.961174v-29.348314c0-1.476351 1.20131-2.677819 2.677467-2.677819h9.48131c1.476157 0 2.677467 1.201468 2.677467 2.677819v29.348314c0 .530899-.429956.961174-.961048.961174z" fill="#b5cfe4" fill-rule="nonzero" mask="url(#M)"/><path d="m161.391956 132.018774h-12.914148c-.531092 0-.961048-.430275-.961048-.960913 0-.530899.429956-.961174.961048-.961174h12.914148c.531092 0 .961048.430275.961048.961174 0 .530638-.429956.960913-.961048.960913" fill="#b5cfe4" fill-rule="nonzero" mask="url(#N)"/><path d="m152.22 114.046h5.43v-2.649h-5.43z" fill="#b4cfe4" fill-rule="nonzero" mask="url(#O)"/><path d="m152.22 119.023h5.43v-2.495h-5.43z" fill="#b4cfe4" fill-rule="nonzero" mask="url(#P)"/><path d="m205.562699 128.297708h-41.352315v-31.0177901c0-.1624668.131529-.2940125.293974-.2940125h40.764105c.162445 0 .294236.1315457.294236.2940125z" fill="#fff" fill-rule="nonzero" mask="url(#Q)"/><path d="m165.171118 127.336665h39.430218v-28.6342457c0-.4166487-.338777-.7554705-.755633-.7554705h-37.919214c-.416594 0-.755371.3388218-.755371.7554705zm40.391266 1.922087h-41.352314c-.531092 0-.961048-.430275-.961048-.960913v-29.5954197c0-1.4763513 1.20131-2.6778193 2.677467-2.6778193h37.919214c1.476419 0 2.677467 1.201468 2.677467 2.6778193v29.5954197c0 .530638-.429694.960913-.960786.960913z" fill="#b5cfe4" fill-rule="nonzero" mask="url(#R)"/><path d="m205.562437 125.377866h-41.352315c-.531091 0-.961048-.430275-.961048-.960913 0-.530899.429957-.961174.961048-.961174h41.352315c.531091 0 .960786.430275.960786.961174 0 .530638-.429695.960913-.960786.960913" fill="#b5cfe4" fill-rule="nonzero" mask="url(#S)"/><path d="m176.669 135.085h16.435v-3.163h-16.435z" fill="#fff" fill-rule="nonzero" mask="url(#T)"/><path d="m177.630131 134.124186h14.51345v-1.240774h-14.51345zm15.473974 1.922087h-16.435022c-.531092 0-.961048-.430275-.961048-.961175v-3.162861c0-.530899.429956-.961174.961048-.961174h16.435022c.531354 0 .961048.430275.961048.961174v3.162861c0 .5309-.429694.961175-.961048.961175z" fill="#b5cfe4" fill-rule="nonzero" mask="url(#U)"/><path d="m184.886253 131.542039c-.531091 0-.961048-.430275-.961048-.961175v-1.907674c0-.530638.429957-.961175.961048-.961175.531092 0 .961048.430537.961048.961175v1.907674c0 .5309-.429956.961175-.961048.961175" fill="#b5cfe4" fill-rule="nonzero" mask="url(#V)"/><path d="m179.850524 115.18622c-.118166 0-.23738-.031445-.345327-.098004l-5.318254-3.288904c-.198078-.122899-.317292-.341181-.31179-.573875.004978-.232694.132314-.445735.335371-.560248l5.317991-2.992795c.318079-.179762.72-.066035.89607.251037.178428.31681.066812.718522-.25048.896974l-4.345939 2.445387 4.36952 2.701665c.309694.191554.405327.597459.214061.906669-.124978.201512-.340612.312094-.561223.312094" fill="#2d8adf" fill-rule="nonzero" mask="url(#W)"/><path d="m189.658192 115.18622c-.220611 0-.436244-.110582-.561223-.312094-.191266-.30921-.095633-.715115.214062-.906669l4.369519-2.701665-4.345939-2.445387c-.317292-.178452-.428908-.580164-.25048-.896974.177118-.316286.577991-.429227.89607-.251037l5.317991 2.992795c.203057.114513.330655.327554.335371.560248.005503.232694-.113711.450976-.31179.573875l-5.318253 3.288904c-.107948.066559-.227162.098004-.345328.098004" fill="#2d8adf" fill-rule="nonzero" mask="url(#X)"/><path d="m182.336541 117.637372c-.08751 0-.176593-.017819-.262008-.054505-.333013-.144386-.486812-.532734-.342446-.866315l4.834847-11.163564c.145415-.333581.531354-.487138.866201-.34249.333275.144648.487337.532734.342708.866315l-4.834847 11.163563c-.107948.248155-.350044.396996-.604455.396996" fill="#2d8adf" fill-rule="nonzero" mask="url(#Y)"/><path d="m210.779 465.098-5.068-.899-1.932-2.505v-6.986l6.039-3.506 3.622-3.714 3.827-6.713 3.926-1.229h15.612l4.255.595 6.414 6.298 3.503 4.255 9.779 2.676 1.431 2.973v7.134l-2.527 1.621h-2.995z" fill="#fff" fill-rule="nonzero" mask="url(#Z)"/><path d="m239.939319 423.206616c-.163232 0-.328297-.041665-.480524-.128925-3.945328-2.283706-9.003406-2.284492-12.952664 0-.462445.264664-1.048297.108224-1.312664-.350614-.266725-.459361-.108733-1.047386.350044-1.313622 4.532489-2.623053 10.347511-2.622004 14.878428 0 .458777.266236.616244.854261.350044 1.313622-.178428.307901-.500175.479539-.832664.479539" fill="#2d8adf" fill-rule="nonzero" mask="url(#aa)"/><path d="m237.85221 426.821974c-.163232 0-.328297-.041141-.480524-.128925-2.67642-1.548676-6.100874-1.549462-8.777293 0-.461921.263877-1.048297.108748-1.312926-.350614-.266463-.459362-.108995-1.047387.350044-1.313623 3.261223-1.886973 7.443668-1.885925 10.703057 0 .459039.266236.616506.854261.350305 1.313623-.177642.307901-.500174.479539-.832663.479539" fill="#2d8adf" fill-rule="nonzero" mask="url(#ab)"/><path d="m235.68448 430.577341c-.163231 0-.328559-.041665-.480524-.128925-1.415109-.819409-3.027511-.819409-4.44262 0-.462707.263615-1.047249.107699-1.312926-.350614-.266462-.459624-.108995-1.047387.350044-1.313623 2.008297-1.161899 4.360087-1.161899 6.368384 0 .45904.266236.616507.853999.350044 1.313623-.178428.307901-.500175.479539-.832402.479539" fill="#2d8adf" fill-rule="nonzero" mask="url(#ac)"/><path d="m231.63 433.515605c0-.747609.605764-1.353191 1.352751-1.353191.747249 0 1.352751.605582 1.352751 1.353191 0 .747347-.605502 1.352929-1.352751 1.352929-.746987 0-1.352751-.605582-1.352751-1.352929" fill="#2d8adf" fill-rule="nonzero" mask="url(#ad)"/><path d="m239.122061 440.609717-17.230218.002096c-3.211441 0-4.135808 1.650086-4.173275 1.71979l-4.955896 8.021142c-.091965.149364-.223493.270428-.380174.350614l-5.141922 2.628031c-2.786986 1.098485-2.69869 2.994629-2.693187 3.074814l.002882 4.335767c0 1.045814.302882 1.814649.925153 2.35079 1.507074 1.294493 4.367685.87863 4.39572.874176.048996-.0076.118428-.004193.148297-.011268l47.003581.078089c2.76655 0 3.766899-.666638 4.116943-1.063634.313363-.35664.281659-.688125.276943-.725073-.004716-.039831-.0131-.118706-.0131-.15906v-6.187102c0-.865791-1.48166-1.67629-2.199825-1.933355l-9.664193-3.206098c-.171877-.05634-.322794-.160371-.438078-.299254l-5.844891-7.058133c-2.603319-2.763245-4.116157-2.792332-4.13476-2.792332m17.899127 25.346127-46.937031-.077826c-.571441.076516-3.824279.416648-5.854061-1.322008-1.063231-.910076-1.601921-2.19304-1.601921-3.814039v-4.258988c-.008385-.046382-.270131-3.296241 3.824279-4.902566l4.815983-2.466612 4.777991-7.726868c.011266-.032231 1.37476-2.697473 5.845415-2.697473h17.17965c.29083-.028824 2.343145-.045071 5.625852 3.44089l5.708646 6.891735 9.422096 3.125127c.373625.13207 3.497817 1.304714 3.497817 3.751673v6.122901c.038253.336463.056332 1.244443-.667336 2.128053-.980699 1.198585-2.87738 1.806001-5.63738 1.806001" fill="#b5cfe4" fill-rule="nonzero" mask="url(#ae)"/><path d="m210.619913 464.93288c0-3.141636 2.546725-5.688433 5.687685-5.688433 3.141223 0 5.687686 2.546797 5.687686 5.688433 0 3.141374-2.546463 5.688434-5.687686 5.688434-3.14096 0-5.687685-2.54706-5.687685-5.688434" fill="#fff" fill-rule="nonzero" mask="url(#af)"/><path d="m216.308122 460.205621c-2.605939 0-4.727161 2.120716-4.727161 4.726997 0 2.606806 2.121222 4.727783 4.727161 4.727783s4.726114-2.120977 4.726114-4.727783c0-2.606281-2.120175-4.726997-4.726114-4.726997m0 11.376867c-3.66655 0-6.648995-2.983362-6.648995-6.64987s2.982445-6.649346 6.648995-6.649346c3.665502 0 6.647948 2.982838 6.647948 6.649346s-2.982446 6.64987-6.647948 6.64987" fill="#b5cfe4" fill-rule="nonzero" mask="url(#ag)"/><path d="m245.130865 464.93288c0-3.141636 2.546463-5.688433 5.687685-5.688433 3.140961 0 5.687424 2.546797 5.687424 5.688433 0 3.141374-2.546463 5.688434-5.687424 5.688434-3.141222 0-5.687685-2.54706-5.687685-5.688434" fill="#fff" fill-rule="nonzero" mask="url(#ah)"/><path d="m250.818052 460.205621c-2.605938 0-4.726113 2.120716-4.726113 4.726997 0 2.606806 2.120175 4.727783 4.726113 4.727783 2.605939 0 4.7269-2.120977 4.7269-4.727783 0-2.606281-2.120961-4.726997-4.7269-4.726997m0 11.376867c-3.665502 0-6.647947-2.983362-6.647947-6.64987s2.982445-6.649346 6.647947-6.649346c3.666551 0 6.648996 2.982838 6.648996 6.649346s-2.982445 6.64987-6.648996 6.64987" fill="#b5cfe4" fill-rule="nonzero" mask="url(#ai)"/><path d="m217.10848 449.104109c.039564.005765.095896.011268.171878.011268h10.0669c.229781-.0359.700087-.169542.700087-.657205v-4.385816c-.081747-.215924-.321223-.640434-.926201-.640434h-5.253537c-.038515 0-.077031-.002096-.115546-.006813-.105065-.007337-1.164629-.063415-1.889869 1.155872l-2.681397 4.19636c-.037467.103507-.065764.234529-.072315.326768m10.300612 1.933355h-10.128734c-1.038079 0-1.552926-.459362-1.801834-.845352-.587424-.908241-.128646-2.037124-.030131-2.253833.018865-.042713.041397-.083592.065764-.122374l2.712315-4.244314c1.251877-2.101586 3.24393-2.092677 3.677816-2.061494h5.216856c1.80917 0 2.635808 1.432066 2.820786 2.189633.018079.07442.027249.150937.027249.227454v4.530988c0 1.839806-1.611092 2.488101-2.463406 2.574575-.031703.003406-.064716.004717-.096681.004717" fill="#b5cfe4" fill-rule="nonzero" mask="url(#aj)"/><path d="m233.166498 449.115351h10.637554c.075983 0 .132053-.005503.172664-.011268-.006812-.08595-.032751-.203346-.061048-.29244l-3.193624-4.13478c-.819302-1.207757-2.027948-1.243919-2.078778-1.244705h-5.246725c-.616768 0-.852052.446784-.925414.638075v4.387913c0 .514915.535021.633097.695371.657205m10.637554 1.922086h-10.69572c-.031965 0-.064716-.00131-.096681-.004716-.852053-.086475-2.462358-.73477-2.462358-2.574575v-4.530989c0-.076516.009432-.153033.026986-.227453.184979-.757567 1.011878-2.189633 2.820262-2.189633h5.253538c.106899.038782 2.257729.014675 3.627773 2.040268l3.242358 4.195312c.046113.059222.08489.123684.115807.192077.098516.216972.557293 1.345592-.029345 2.253834-.248646.38599-.764017.845875-1.80262.845875" fill="#b5cfe4" fill-rule="nonzero" mask="url(#ak)"/><path d="m526.319214 365.912052s2.47572-.083592 2.47572.90667v3.466307s.487861 2.030049-6.935633 2.99594l-1.494498-3.685376z" fill="#dcbeb4" fill-rule="nonzero" mask="url(#al)"/><path d="m487.600533 618.960295s.586113 8.88536 0 11.911173h-49.673974s-.806987-2.892171 0-4.371929c0 0-.403493-.746299 3.631179-1.583527 0 0 17.073799-4.257415 23.260087-8.859942 0 0 12.072053-.734769 22.782708 2.904225" fill="#262626" fill-rule="nonzero" mask="url(#am)"/><path d="m431.649118 402.241353c2.475458 17.827322 10.398079 62.863113 10.398079 62.863113 2.970655 19.313107 11.883406 71.310075 11.883406 71.310075 4.951179 24.2652 9.902882 80.564917 9.902882 80.564917 13.368733-1.485523 23.767074 1.980784 23.767074 1.980784 0-23.769937-6.932227-105.820639-6.932227-105.820639-2.970917-19.313107-3.631965-83.145518-3.631965-83.145518l-4.472227-27.752732-24.154585-5.104339z" fill="#6a778b" fill-rule="nonzero" mask="url(#an)"/><path d="m575.736236 616.979353c11.311441 3.981222 21.84786 7.897196 21.84786 7.897196 1.032838.410359 1.859214 2.069093 1.859214 2.069093.929869 2.582959 0 3.925931 0 3.925931-12.085939-.20649-53.095808 0-53.095808 0-1.343057-2.892695-2.789607-11.990049-2.789607-11.990049l14.307773-10.994808z" fill="#262626" fill-rule="nonzero" mask="url(#ao)"/><path d="m469.209511 408.306736c12.308122 35.311368 72.856768 210.653637 72.856768 210.653637 4.951704 0 17.330306-3.466569 17.330306-3.466569 8.417293-.990261 16.339651 1.485523 16.339651 1.485523-2.475721-20.79863-53.22131-218.122655-53.22131-218.122655l-19.469869-4.595451z" fill="#6a778b" fill-rule="nonzero" mask="url(#ap)"/><path d="m469.209511 408.306736s26.381659 3.499325 45.679127 1.570163c4.729781-.472726 4.473799 2.983099 7.584366 8.88405 0 0 6.944804 16.497977 6.726289 36.215941 0 0-.033276 26.155841 14.358602 64.384011 0 0 16.00428 49.765671 18.013101 72.833071 0 0 1.225938 14.271396 5.642358 23.231701 0 0 3.876419-.092502 8.522882 1.553654 0 0-32.178341-155.468652-53.22131-218.122655 0 0-4.707773-.312093-9.662096.879941 0 0-27.511179 6.960654-43.643319 8.570123" fill="#44526b" fill-rule="nonzero" mask="url(#aq)"/><path d="m431.649118 402.241353s6.219825 4.811637 19.860786 11.935019c0 0 6.517467 3.21134 14.848035 2.65607 0 0 7.830917 9.165747 4.221223 23.033858 0 0-3.017031 11.646248-1.369782 29.142872 0 0 6.183668 30.271229 4.332314 38.047623 0 0-.390393 26.938826 5.543319 51.933815 0 0 5.862184 40.575554.483144 57.988848 0 0 5.338166.711971 8.032402 1.980784 0 0-2.316943-76.420965-7.308996-108.603538 0 0-4.450218-58.565604-3.255196-80.362619l-7.826987-21.68748-6.35345-35.699716-14.446375 24.530125z" fill="#44526b" fill-rule="nonzero" mask="url(#ar)"/><path d="m516.15359 329.835282c4.659825-5.835177 9.691703-11.808452 13.209432-15.08635l-14.092926-8.652404s.495459 53.885775 7.544542 69.07275c0 0 10.057205 18.416133 11.329519 25.557597 0 0-7.590393-3.535225-23.024541-.356379 0 0-27.270393 10.876888-46.708297 6.966156 0 0-3.934323-23.823657-4.036245-29.84803 0 0-1.952751 16.06482-.348733 27.78837 0 0-10.160437 4.166225-21.09904.123423 0 0-8.96358-4.904401-20.151877-5.043808 0 0 7.236419-37.146718 7.207336-62.206694 0 0 .021747-34.60359 2.917467-48.261543 0 0-34.327074.487139-56.016157 3.453468 0 0-11.264542 1.730009-14.52917-2.821157 0 0-4.837206-12.632579-4.084979-15.8544 0 0-.288471-5.58676 9.18-13.174221 0 0 29.938428-29.022331 48.393276-40.03129 0 0 13.15048 8.254885 17.82524 20.798892 0 0-8.462096 8.218723-10.893013 9.904185 0 0 30.870393-6.579643 38.575283-11.334941l43.023407 9.723637s45.521397 23.212572 72.671266 46.2708c0 0 5.610393 6.305022 1.018166 13.75622 0 0-13.110655 18.934978-47.841747 48.054266 0 0-13.780087-5.261827-22.281485-12.87523 0 0 5.748734-7.828803 12.213276-15.923317" fill="#131a23" fill-rule="nonzero" mask="url(#as)"/><path d="m497.998 248.697-21.055 25.277-18.818 39.167-.444-30.504.159-27.853 1.537-13.515 10.324 9.409z" fill="#e1ebf4" fill-rule="nonzero" mask="url(#at)"/><path d="m457.476943 213.05922v-5.017603l-5.242271-.674499s3.101398 2.639299 5.242271 5.692102" fill="#dcbeb4" fill-rule="nonzero" mask="url(#au)"/><path d="m465.831799 200.808832 1.962708.424772s.892139 3.862779-1.54035 7.868109l-1.829345-.58357" fill="#1c2636" fill-rule="nonzero" mask="url(#av)"/><path d="m473.827415 207.856353s-2.383232 3.155786-5.537817 5.185834c0 0 1.718778 1.781894 2.970917 2.476046l-3.465851 8.418662s1.913188 2.049178 3.37965 3.278946c0 0-2.056244 7.74888-3.541834 10.720187 0 0 1.407773 6.899073 1.749957 10.761328 0 0 9.568821-6.509153 21.19703-9.466048l1.402795-6.226933 6.785502-30.522004-18.624891-10.818191-3.874323 9.913618z" fill="#ebd2c8" fill-rule="nonzero" mask="url(#aw)"/><path d="m529.363022 314.748853s-13.044105-8.111809-21.46166-13.063901c0 0 8.104193 2.085864 11.354411 4.802466 4.615808 3.857275 8.726987 4.720184 8.726987 4.720184 1.692052.222736 6.951616-4.230426 6.951616-4.230426 1.875458-1.73656 5.64655-3.806701 5.64655-3.806701-3.713712 3.386646-7.459127 7.455129-11.217904 11.578378" fill="#000" fill-rule="nonzero" mask="url(#ax)"/><path d="m516.813983 328.921459c-2.318778-11.552174-1.544018-22.82501-1.544018-22.82501s-1.324192 12.502605-1.196332 17.3166c0 0 .069695 7.436524-4.026812 11.359048 0 0-3.83869 4.984848-6.106638 10.986423 0 0 5.140088-7.176053 12.213276-15.923316z" fill="#000" fill-rule="nonzero" mask="url(#ay)"/><path d="m391.542341 271.972242c8.010917-4.420407 18.949781-13.156403 27.056593-20.016955 0 0-6.778427 14.359704-27.056593 20.016955" fill="#000" fill-rule="nonzero" mask="url(#az)"/><path d="m492.056725 233.345818s2.47572-9.408923 11.883406-20.303631c0 0 7.922358-8.418399 4.456245-15.351276 0 0-1.980262-4.952354-7.922097-4.952354 0 0-6.931965.495262-13.864192-6.932877 0 0-4.456244-4.952092-9.902882-2.971307 0 0-4.951179 1.485784-6.931965 5.942615 0 0-2.970917 7.9234 7.427162 10.399446 0 0 6.436768.990261 5.446637 8.4184 0 0 .990131-2.971046 3.465852-2.971046 0 0 2.970917.494999 1.980786 4.45683 0 0-.495197 1.980785-2.475721 4.456831 0 0 3.465852.990261 4.455983 7.9234 0 0 .990655 7.428138 1.980786 11.884969" fill="#262626" fill-rule="nonzero" mask="url(#aA)"/><path d="m466.38883 200.614841-42.724978-13.603448s1.491091 7.743377-2.731966 16.327649l44.013014 5.66354s3.009432-4.047257 1.44393-8.387741" fill="#2d8adf" fill-rule="nonzero" mask="url(#aB)"/><path d="m420.773712 203.633212c5.026899-9.205315 2.761048-17.177455 2.761048-17.177455l-6.540786-1.606587s2.0531 8.395078-2.973537 17.600393z" fill="#1c2636" fill-rule="nonzero" mask="url(#aC)"/><path d="m416.994026 184.849144s-.539214-.584094-1.105677 0c0 0-4.610305 5.099885-3.052925 16.217067 0 0 .237379 1.618117 1.184803 1.383588 0 0 5.141921-7.101633 2.973799-17.600655" fill="#b5cfe4" fill-rule="nonzero" mask="url(#aD)"/><path d="m458.881913 195.709865s0-2.476046-3.961048-2.971308c0 0-5.446638-.495262-8.417555-2.476046 0 0-1.485327-1.485523-3.466113-1.980785 0 0-2.970918-.495261-4.95118-.990261 0 0-2.47572-1.485785-3.96131-.495261 0 0-2.970655 2.971045-3.961048 6.932876 0 0-.495196 4.952092.990393 5.447354 0 0 3.465852 2.971046 5.446376 2.971046 0 0 2.970917.495523 5.941834 0 0 0 4.951441-1.485523 9.407686.990523 0 0 2.970917 2.476046 5.446637 1.485785 0 0 2.970917-.990523 2.475721-4.952092z" fill="#ebd2c8" fill-rule="nonzero" mask="url(#aE)"/><path d="m427.582611 204.194902 19.807075 2.437525c2.561397-1.49417 6.058428 1.624406 6.058428 1.624406 4.456506 3.46657 4.391632 6.270956 4.391632 6.270956v4.952354c0 3.466307-.990235 5.447092-.990235 5.447092-1.48559 1.980784-6.932227 6.933139-6.932227 6.933139-3.465852 2.475784-7.427162 1.485522-7.427162 1.485522-2.970655-.495261-7.426899 0-7.426899 0-1.980786.990262-4.920262 3.02031-4.920262 3.02031l-12.785764-13.570168s5.327423-3.811419 5.822358-4.80168c0 0 .495196-3.466569.495196-5.942615 0 0-.548646-3.400011 3.90786-7.856841" fill="#ebd2c8" fill-rule="nonzero" mask="url(#aF)"/><path d="m446.503284 221.460849c1.485589-2.971308 0-6.933139 0-6.933139-.495197-1.980784-1.980524-4.456568-1.980524-4.456568 0-1.981047 2.970917-3.46657 2.970917-3.46657s-3.690393.493166-4.286463 2.397958c0 0-.357642 1.248897 0 2.38171 0 0 2.265065 3.343671 2.563231 8.796528 0 0-.417379 2.770058-.119214 2.770058z" fill="#dcbeb4" fill-rule="nonzero" mask="url(#aG)"/><path d="m412.84462 222.13451 1.96952-1.168713c9.902882 6.437615 16.339912 16.836799 16.339912 16.836799-.495458.990523-2.442445 2.18544-2.442445 2.18544s-4.555022-10.014242-15.866987-17.853526" fill="#e1ebf4" fill-rule="nonzero" mask="url(#aH)"/><path d="m524.981031 358.134401-1.23511 1.985239s0 .990261-4.951179-1.980785c0 0-13.369257-7.428138-15.349519-8.913923 0 0-1.105153-.439184 1.083406-2.950344 0 0 12.53214 8.897414 20.452402 11.859813" fill="#e1ebf4" fill-rule="nonzero" mask="url(#aI)"/><path d="m467.71779 283.939728c3.315197-15.165488 2.174411-22.447668 2.174411-22.447668s-4.187162-3.645021-6.930917-2.482073l-.798865 3.302006s-2.336332 43.776149-3.421834 47.048021z" fill="#ed2e26" fill-rule="nonzero" mask="url(#aJ)"/><path d="m463.336821 255.086703c-.781048 2.633272-.375721 3.92331-.375721 3.92331 3.209607.332009 6.931179 2.482073 6.931179 2.482073 2.107337-1.245491 1.97738-4.189808 1.97738-4.189808s.317031-7.81046-2.487249-8.604974c0 0-4.305065.523038-6.045589 6.389399" fill="#ed2e26" fill-rule="nonzero" mask="url(#aK)"/><path d="m471.849799 257.096941s-.821397 2.727607-2.132227 2.875662c0 0-2.433537-1.142771-6.756419-.962485 0 0 3.891616.639385 6.930917 2.482073 0 0 2.10262-.884658 1.957729-4.39525" fill="#991f20" fill-rule="nonzero" mask="url(#aL)"/><path d="m492.056725 238.793198s.495196 7.428138 5.941834 9.904184c0 0-22.175633 9.564839-25.805502 13.614454 0 0-.335109-12.623931-2.810568-13.614454 0 0 9.800437-7.9234 22.674236-9.904184" fill="#e1ebf4" fill-rule="nonzero" mask="url(#aM)"/><path d="m469.382463 248.697356s-6.60131 1.639866-7.251878 12.328608c0 0-.792838-17.136052-2.75345-19.756746 0 0 6.494149-5.695771 8.006463-4.710227 0 0 .496507.309997.812227 2.234181 0 0 .88559 4.38241 1.186638 9.904184" fill="#e1ebf4" fill-rule="nonzero" mask="url(#aN)"/><path d="m497.99848 248.697356s3.287686.520942 3.287686 2.306504c0 .495262-.034061 1.316243-.034061 1.316243s-.153799 16.03154-1.639389 20.983895c0 0-12.012314-2.321965-18.449083 2.134603 0 0 6.575895 6.73189 6.080699 9.703198 0 0-28.362446 25.456971-30.34297 48.236386 0 0-5.446637-50.015922 41.097118-84.680829" fill="#000" fill-rule="nonzero" mask="url(#aO)"/><path d="m497.99848 248.697356s-16.742882 6.580953-25.80524 13.614716c0 0 .177118-2.647422-.336157-4.527582 0 0-.143581 5.441064-.96131 6.707257 0 0 15.306812-10.456833 27.102707-15.794391" fill="#a1b8c4" fill-rule="nonzero" mask="url(#aP)"/><path d="m457.350786 317.900813c.299738-22.992193-6.16952-43.926561-6.16952-43.926561 1.112489-2.892957 5.524193-7.829065 5.524193-7.829065-1.454411-4.551952-5.928734-7.855793-5.928734-7.855793.707947-2.494651 1.112489-4.38372 1.112489-4.38372 1.820699-9.811945 5.461572-13.076741 5.461572-13.076741s2.221572-1.229245 2.577118 1.624667c0 0 5.322969 18.02831-.24524 61.118692z" fill="#000" fill-rule="nonzero" mask="url(#aQ)"/><path d="m456.705511 334.772124s.034061 26.184927 3.530044 42.284599c0 0-1.650655-35.605119-3.530044-42.284599" fill="#000" fill-rule="nonzero" mask="url(#aR)"/><path d="m546.975406 277.705458s5.598341 6.629693 9.679913 9.041801c0 0 9.832926 4.824477 13.172227 11.875273 0 0 1.484279 4.371928 0 7.473996 0 0-4.823581 4.516576-7.235371 8.7263 0 0-5.751354 10.704202-11.687948 17.198419 0 0-9.532926 7.9876-13.543231 14.253315 0 0-7.135284 8.656335-12.379913 11.859813l1.240611.499454s32.532315-26.683334 47.842009-48.054266c0 0 4.713799-6.669786-1.018428-13.75622 0 0-13.715371-11.304019-26.069869-19.117885" fill="#000" fill-rule="nonzero" mask="url(#aS)"/><path d="m386.533991 240.565684s-9.838166 10.736958-16.839563 16.531257c0 0-10.435808 8.462685-13.077642 16.125351 0 0-2.563472 7.530598 3.170568 15.589736 0 0 4.718515 4.760539 16.644105-1.189152 0 0 8.982969-2.642182 24.43834 0 0 0 21.319651 2.416824 28.03048 2.265363 0 0-39.352925.981352-56.016419 3.45373 0 0-10.463057 1.903481-14.091615-2.304146 0 0-3.197293-3.376427-4.60166-13.832736 0 0-1.878864-6.911127 8.26559-14.893225 0 0 19.13738-17.59882 24.077816-21.746178" fill="#000" fill-rule="nonzero" mask="url(#aT)"/><path d="m499.788524 368.786325s2.433275 2.912872 5.81345 4.63633c0 0 6.826637 1.392236 12.261485 5.170375 0 0 4.889607 3.513213 7.117467 7.424207 0 0 5.210305 7.376254 7.397554 12.802644 0 0-3.130218-.931563-7.397554.258899 0 0 6.024367.316548 9.163231 1.648252 0 0-2.2331-10.80011-12.206201-27.503791 0 0-10.370829 3.44744-22.149432-4.436916" fill="#000" fill-rule="nonzero" mask="url(#aU)"/><path d="m504.885432 350.002126s-5.896768 6.155919-6.886899 9.127226c0 0-.495197 5.942616 1.485327 9.408923 0 0 4.951441 4.456831 15.844716 5.447189 0 0 6.796245.053622 11.747424-3.41321l-.359214-5.005286s0-1.485523-4.456245-.990524c0 0-2.47572-1.485523-.494934-4.95183 0 0-11.366725-5.93161-16.880175-9.622488" fill="#ebd2c8" fill-rule="nonzero" mask="url(#aV)"/><path d="m457.85793 333.378237c0 1.313361 1.06428 2.37778 2.377467 2.37778 1.312926 0 2.377468-1.064419 2.377468-2.37778 0-1.313098-1.064542-2.37778-2.377468-2.37778-1.313187 0-2.377467 1.064682-2.377467 2.37778" fill="#000" fill-rule="nonzero" mask="url(#aW)"/><path d="m471.174 227.216 7.984 4.985-9.383-.134z" fill="#dcbeb4" fill-rule="nonzero" mask="url(#aX)"/><path d="m500.202262 292.696032s.315197 1.74416-.915459 4.96336c0 0-1.44393 3.408658-6.177379 3.906016 0 0-4.686551-3.550685-3.476332-8.320133z" fill="#000" fill-rule="nonzero" mask="url(#aY)"/><path d="m495.938751 289.139005c3.200699.845614 4.357467 2.9831 4.357467 2.9831s-.150655 1.316243-.942183 3.837885c-1.195546 3.809059-6.504891 4.884223-6.505415 4.884223-.000524.000262-4.086812-3.556975-3.246026-7.459846.556506-2.583484 1.075546-3.802771 1.075546-3.802771s2.059912-1.287942 5.260611-.442591" fill="#ed2e26" fill-rule="nonzero" mask="url(#aZ)"/><path d="m492.198472 293.57351c.36-1.363411 1.730567-2.188061 3.055283-1.838233 1.326027.35009 2.119651 1.713762 1.769607 3.039701-.279563 1.058654-1.419301 1.68913-2.238864 1.951436.231092.226929.788384.548718 1.349345.753112 1.010829-.427917 1.788209-1.296852 2.076943-2.390882.522969-1.980523-.66262-4.017909-2.643406-4.540947-1.980262-.523038-4.01738.662707-4.540349 2.643492-.315983 1.196227-.098516 2.39062.628821 3.453991.67965.994192 1.834323 1.842688 3.237903 2.470543.364193-.091453 1.044891-.466699 1.328647-.716426-1.183494-.481111-2.26428-1.086169-2.933974-1.699612-1.023406-.937066-1.390218-1.988908-1.089956-3.126175" fill="#fff" fill-rule="nonzero" mask="url(#a0)"/><path d="m470.081764 218.782584s1.809433 1.057082 5.700786 1.497839" mask="url(#a1)" stroke="#dbbdb1" stroke-linecap="round" stroke-linejoin="round" stroke-width=".611"/><path d="m475.12517 206.535131c-.230305.590121-.100349 1.192296.290306 1.344543.390655.152248.893974-.202821 1.123755-.792942.230306-.590121.10035-1.192297-.290043-1.344544-.390655-.152509-.893712.20256-1.124018.792943" fill="#333" fill-rule="nonzero" mask="url(#a2)"/><path d="m517.796515 327.791896s-8.054934 10.478583-13.856332 17.966467c0 0 11.881834 8.735734 21.040874 12.376038l15.391441-20.047877z" fill="#131a23" fill-rule="nonzero" mask="url(#a3)"/><path d="m154.386699 346.72222c-1.982096 2.880641-3.555459 6.158801-3.555459 9.928555 0 .122112.033537.235576.036419.357688-4.507074 1.150108-7.853973 5.20182-7.853973 10.067438 0 .069179.00917.13469.010218.202297-.001048.076255-.010218.149627-.010218.225619 0 4.730142 3.151703 8.717129 7.46489 9.997472h32.421485 12.641922 2.607772c4.313188-1.280343 7.464105-5.26733 7.464105-9.997472 0-5.76626-4.671877-10.434822-10.431353-10.434822-.464018 0-.918079.041927-1.364542.102197-.941397-3.913091-4.4531-6.824128-8.653362-6.824128-1.466201 0-2.846463.360833-4.067162.988951-2.181747-6.004196-7.872052-10.32293-14.63083-10.32293-2.233624 0-4.357991.468533-6.280087 1.312837 0 0-4.285939 2.195921-5.799825 4.396298" fill="#fff" fill-rule="nonzero" mask="url(#a4)"/><path d="m150.62952 376.48768h47.368821c3.894235-1.221908 6.602096-4.895229 6.602096-8.983627 0-5.194744-4.224629-9.422025-9.417642-9.422025-.373101 0-.76297.029611-1.228035.094074-.522184.069179-1.001136-.261257-1.12297-.768049-.855458-3.560119-4.008733-6.047695-7.667423-6.047695-1.260524 0-2.472577.294799-3.603144.877845-.259389.132594-.561223.149103-.834236.041403-.269869-.105866-.482882-.323361-.581659-.596672-2.098428-5.775694-7.59642-9.656554-13.679214-9.656554-2.043669 0-4.019476.412718-5.871878 1.227148-1.075284.55396-4.25214 2.415252-5.372227 4.043065-2.304105 3.348387-3.377555 6.319957-3.377555 9.353631.021747.135477.033799.233481.036419.333319.011005.472202-.304716.889899-.762707 1.006508-4.174847 1.06573-7.09179 4.800893-7.09179 9.085562.002096.020701.011004.167183.011004.188147l-.00786.191815c-.003144 4.13609 2.704978 7.810197 6.6 9.032105m47.520262 2.02638h-47.671703c-.09773 0-.194673-.013626-.287948-.041403-4.822009-1.431804-8.190131-5.942091-8.190131-10.968604 0-.0642.004192-.126829.008122-.188933-.00393-.114775-.008122-.176355-.008122-.239507 0-4.934536 3.177904-9.270564 7.823319-10.816095.085939-3.323756 1.27703-6.54977 3.728646-10.112771 1.640437-2.382759 5.988734-4.627945 6.172926-4.722018 2.164716-.953575 4.414585-1.424729 6.741223-1.424729 6.571441 0 12.541572 3.968644 15.179214 9.982011 1.124803-.430537 2.303056-.648033 3.519039-.648033 4.298777 0 8.04262 2.731015 9.390917 6.743158.216943-.014675.425502-.02175.627511-.02175 6.310218 0 11.444017 5.135785 11.444017 11.448667 0 5.026513-3.366812 9.5368-8.189083 10.968604-.093013.027777-.189956.041403-.287947.041403" fill="#b4cfe4" fill-rule="nonzero" mask="url(#a5)"/><path d="m176.552009 360.03501h-4.476419l-.001573-3.268727 4.477992-.001048zm-1.690219 7.476616v2.263791h-1.095982v-2.263791c-.636419-.223523-1.094673-.818361-1.094673-1.523781 0-.896974.735197-1.62362 1.642533-1.62362s1.642271.726646 1.642271 1.62362c0 .70542-.457991 1.300258-1.094149 1.523781zm3.904193-7.476616h-.071529v-3.269775c0-1.180243-.96131-2.141679-2.142445-2.141679h-4.476419c-1.181136 0-2.142446.961436-2.142446 2.141679v3.269775h-.07179c-1.774061 0-3.212751 1.438355-3.212751 3.213436v6.561037c0 1.774294 1.43869 3.213174 3.212751 3.213174h8.904629c1.774061 0 3.212751-1.43888 3.212751-3.213174v-6.561037c0-1.775081-1.43869-3.213436-3.212751-3.213436z" fill="#2d8adf" fill-rule="nonzero" mask="url(#a6)"/><path d="m275.171817 46.872137c-1.946201 2.8284941-3.491005 6.0469086-3.491005 9.7480066 0 .1200158.033013.2313841.035895.3513999-4.425327 1.1291441-7.711441 5.1072218-7.711441 9.8845312 0 .0676071.009171.1320697.010219.1986287-.001048.0749444-.010219.1464821-.010219.2214265 0 4.6439294 3.094586 8.5585926 7.329171 9.8156138h31.832489 12.411877 2.56035c4.234585-1.2570212 7.328384-5.1716844 7.328384-9.8156138 0-5.6614431-4.587249-10.2451026-10.241659-10.2451026-.455895 0-.90131.0408788-1.339913.1003626-.924105-3.8418152-4.37214-6.7001823-8.496157-6.7001823-1.439214 0-2.794323.3545444-3.993013.971132-2.141922-5.8949236-7.728734-10.1355685-14.364629-10.1355685-2.193275 0-4.278865.4601478-6.166376 1.2889904 0 0-4.207598 2.1560914-5.693973 4.3163755" fill="#fff" fill-rule="nonzero" mask="url(#a7)"/><path d="m271.483231 76.0966085h46.507599c3.823493-1.1998958 6.482096-4.8061342 6.482096-8.8203738 0-5.1004086-4.148909-9.2506487-9.247598-9.2506487-.361311 0-.754848.030135-1.204193.0914531-.509345.0793991-.983056-.2554921-1.102532-.7531121-.840524-3.4953941-3.93642-5.9376366-7.528559-5.9376366-1.237468 0-2.427511.2892956-3.537642.861598-.254411.1302354-.550743.1467442-.81904.0408787-.265152-.1040311-.473711-.3178584-.570917-.5859286-2.060436-5.6706146-7.45834-9.4809846-13.430305-9.4809846-2.006987 0-3.9469.4051188-5.766288 1.2048746-1.055634.5440016-4.17511 2.3712288-5.275546 3.9694302-2.261398 3.2875939-3.314149 6.2059689-3.314149 9.1835656.021223.1360005.031965.230336.034847.327554.010743.4632924-.299214.87339-.749083.9879028-4.099126 1.0463385-6.961834 4.713895-6.961834 8.9204743.001048.018343.009695.1661354.009695.1844784l-.006551.181858c-.003144 4.0676964 2.655459 7.6747209 6.48 8.8746167m46.656158 1.9896939h-46.804717c-.096419 0-.191528-.0136262-.282707-.0408787-4.73476-1.4055997-8.04131-5.8338676-8.04131-10.769189 0-.0602699.003144-.1205398.006812-.1797616-.003668-.1231603-.006812-.1805478-.006812-.2408177 0-4.8449165 3.12-9.1031184 7.681048-10.6195623.084367-3.2632238 1.253974-6.4294917 3.659738-9.9277683l.001048-.0010481c1.61083-2.3392596 5.878952-4.5438289 6.059476-4.6360681 2.126463-.9365424 4.335459-1.3990486 6.620175-1.3990486 6.451965 0 12.3131 3.8968442 14.902794 9.8006773 1.104367-.4226757 2.261398-.6362409 3.45511-.6362409 4.22096 0 7.896419 2.6812259 9.220611 6.6207833.212489-.0146745.416594-.0214876.614673-.0214876 6.196506 0 11.23703 5.0422351 11.23703 11.2403426 0 4.9353214-3.305502 9.3635893-8.040262 10.769189-.091179.0272525-.18655.0408787-.282707.0408787" fill="#b4cfe4" fill-rule="nonzero" mask="url(#a8)"/><path d="m304.051624 64.0740931c-.522445 0-1.044628-.0602699-1.546899-.1808098-.502271-.1205398-.893974-.2512994-1.155197-.4019742-.160873-.0904049-.271441-.1907674-.311528-.2811723-.040087-.090667-.060262-.1910295-.060262-.2814344v-.5122945c0-.2109447.080175-.3115693.23083-.3115693.060524 0 .120524.0099576.181048.0301349.06.0201774.150655.06027.251004.1003626.341659.1509369.71345.2714767 1.105153.351924.401659.0801852.793624.1205399 1.195284.1205399.632751 0 1.125065-.1105823 1.466725-.3314847.341397-.2211644.522445-.5426914.522445-.9546233 0-.2811724-.090655-.5122945-.271179-.7033239-.181048-.1907675-.522445-.3616196-1.01476-.5225142l-1.456768-.4520245c-.733363-.231122-1.275721-.5725643-1.607162-1.0248509-.331441-.4420668-.502271-.9341839-.502271-1.4566981 0-.4218895.090393-.7937288.271441-1.1152558.180524-.321527.421834-.6026993.723144-.8238638.301311-.2311221.642708-.4019742 1.044891-.5225141.40166-.1205398.823494-.1708521 1.265765-.1708521.220611 0 .451703.0102196.672838.0403546.231092.030135.442009.0702276.652926.1105822.20096.0503123.391703.1003626.572751.1606325.180786.0602699.321223.1205399.421834.1808098.140437.0804473.241048.1608945.30131.2512994.060262.0804473.090393.1907675.090393.3314847v.4722018c0 .2109448-.080175.321527-.231092.321527-.080174 0-.210655-.0400926-.381747-.1205399-.572489-.261257-1.215196-.3917545-1.928646-.3917545-.572751 0-1.024716.0901428-1.336244.2811723-.311267.1910295-.471878.4821595-.471878.8943534 0 .2811723.100349.5222521.30131.7132816.200961.1907674.572751.3817969 1.105153.552649l1.426375.4520245c.723144.2311221 1.24559.5526491 1.557118.964319.311267.4121939.461922.8841337.461922 1.4066478 0 .4321092-.090393.8238638-.261223 1.1655681-.180524.3417044-.421834.642792-.733362.8841338-.311267.2510373-.683057.4318471-1.11511.5626067-.451965.1404551-.924104.2109447-1.436332.2109447zm-12.908646-.2712147c-.180786 0-.30131-.0301349-.381747-.1003625-.080174-.060532-.150655-.2012492-.210917-.3920166l-2.360698-7.766174c-.060524-.2009871-.090655-.3314846-.090655-.4019743 0-.1606324.080698-.2510373.24131-.2510373h.984367c.191004 0 .321746.0298729.391703.1003625.080698.0602699.140698.2009871.201222.3917546l1.687599 6.6511802 1.567074-6.6511802c.050305-.2009872.110305-.3314847.190742-.3917546s.221136-.1003625.401922-.1003625h.803842c.190743 0 .321223.0298729.40166.1003625.080174.0602699.150655.2009871.190742.3917546l1.587249 6.7313654 1.737904-6.7313654c.060262-.2009872.130742-.3314847.200961-.3917546.080436-.0602699.210917-.1003625.391703-.1003625h.934323c.160611 0 .251266.0801852.251266.2510373 0 .0503123-.010218.1003626-.020174.1606325-.009957.0602699-.030131.1407172-.070481.2512994l-2.420961 7.7664361c-.060262.2007251-.13048.3314846-.210917.3917545-.080174.06027-.210917.1003626-.381746.1003626h-.864105c-.190742 0-.321223-.030135-.401659-.1003626-.080175-.0704896-.150655-.2009871-.190743-.4019742l-1.557118-6.4803281-1.547161 6.4703705c-.050044.200725-.110306.3314846-.191005.4019742-.080174.0702276-.220611.1003625-.401659.1003625zm-8.066725-1.0851208c.331703 0 .673101-.0602699 1.034935-.1808098.36131-.1205399.683057-.3417043.954236-.643054.160611-.1907674.281135-.4019742.341659-.643054.06-.2410797.100349-.5324717.100349-.873914v-.4221516c-.291353-.0702276-.602882-.1304975-.924366-.1708521-.321223-.0400927-.632752-.06027-.944018-.06027-.673362 0-1.165415.1307596-1.496856.4019743-.331703.2712147-.492314.6530116-.492314 1.1553484 0 .4722018.120524.8238638.37179 1.0649435.241048.2512994.592664.3718393 1.054585.3718393zm4.07869-1.5271877c0 .3718393.040088.6731889.110568.8943534.080175.2209024.180786.4619821.321223.7232392.050305.0804473.07048.1608945.07048.2311221 0 .1003625-.060524.2009871-.191004.3013497l-.632751.4221515c-.090656.06027-.180787.0901429-.261223.0901429-.100612 0-.200699-.0500503-.30131-.1404552-.140699-.1509368-.261223-.3115693-.361572-.4722018-.100612-.1708521-.201223-.3616196-.311791-.5927417-.783406.9242264-1.767773 1.3864705-2.9531 1.3864705-.84393 0-1.517031-.2413417-2.009083-.7235012-.492314-.4821595-.743581-1.1252135-.743581-1.9288999 0-.8539988.30131-1.5473651.914149-2.0696171.612838-.5225142 1.426637-.7837712 2.46131-.7837712.341659 0 .693013.030135 1.064803.0804472.371529.0500503.753275.1304976 1.155197.2209025v-.7334589c0-.7635939-.160874-1.2960656-.47214-1.607373-.321485-.3115693-.863843-.4622441-1.637293-.4622441-.351615 0-.713449.0400926-1.084978.1307595-.37179.0901429-.733362.2007251-1.08524.3414423-.160611.0702276-.281135.1105822-.351354.1304975-.07048.0201773-.120524.030397-.160873.030397-.140699 0-.210655-.1006246-.210655-.3115693v-.4923792c0-.1606325.019913-.2814344.069956-.351662.050568-.0702275.140699-.1407172.28166-.2109447.351353-.1808098.773449-.3314847 1.265764-.4520245.492052-.1307596 1.014498-.1910295 1.566812-.1910295 1.195546 0 2.069345.2712147 2.63214.8139061.552314.5424294.833712 1.3662932.833712 2.4715914v3.2551005z" fill="#2d8adf" fill-rule="nonzero" mask="url(#a9)"/><path d="m305.950166 68.9569535c-3.304978 2.4411944-8.10655 3.737522-12.235546 3.737522-5.786201 0-10.999913-2.1401067-14.937904-5.6968189-.311266-.2811723-.030131-.6629693.34166-.4420669 4.259476 2.4715914 9.513013 3.9686441 14.94786 3.9686441 3.666812 0 7.694934-.7635938 11.401834-2.3308741.552576-.2512994 1.024454.3616196.482096.7635938" fill="#2d8adf" fill-rule="nonzero" mask="url(#ba)"/><path d="m307.326498 67.3895684c-.421834-.5424294-2.792751-.2612571-3.867511-.1307596-.321485.0403547-.37179-.2408176-.080437-.4520245 1.888821-1.3262005 4.992577-.9444036 5.354411-.5023368.361572.4520246-.100612 3.5567123-1.868647 5.0435453-.271179.2311221-.532401.1105822-.411877-.1907674.401921-.994716 1.295895-3.2351852.874061-3.767657" fill="#2d8adf" fill-rule="nonzero" mask="url(#bb)"/><path d="m240.241 313.071h56.725v-25.325h-56.725z" fill="#fff" fill-rule="nonzero" mask="url(#bc)"/><path d="m241.177991 312.133793h54.850481v-23.449983h-54.850481zm55.787948 1.875181h-56.725415c-.518253 0-.937467-.419269-.937467-.93759v-25.325164c0-.518322.419214-.937591.937467-.937591h56.725415c.517991 0 .937467.419269.937467.937591v25.325164c0 .518321-.419476.93759-.937467.93759z" fill="#b5d0e5" fill-rule="nonzero" mask="url(#bd)"/><path d="m249.075852 296.838044v7.368654h2.135633c2.275022 0 3.760873-1.53269 3.760873-3.653144v-.031183c0-2.120453-1.485851-3.684327-3.760873-3.684327zm-1.903494-1.733154h4.039127c3.404803 0 5.75738 2.336377 5.75738 5.386036v.031445c0 3.048611-2.352577 5.417219-5.75738 5.417219h-4.039127z" fill="#2d8adf" fill-rule="nonzero" mask="url(#be)"/><path d="m259.277 295.105h1.903v4.504h5.17v-4.504h1.903v10.835h-1.903v-4.566h-5.17v4.566h-1.903z" fill="#2d8adf" fill-rule="nonzero" mask="url(#bf)"/><path d="m270.561092 300.553502v-.031183c0-3.081104 2.305939-5.603532 5.572401-5.603532 2.012228 0 3.218778.696773 4.25607 1.687558l-1.223056 1.40822c-.88166-.804996-1.795284-1.331441-3.048734-1.331441-2.043144 0-3.560175 1.687558-3.560175 3.808012v.031183c0 2.120453 1.501572 3.838933 3.575895 3.838933 1.331267 0 2.182533-.526445 3.11083-1.393284l1.222271 1.238678c-1.130044 1.175788-2.367511 1.919204-4.395459 1.919204-3.172925 0-5.510043-2.461371-5.510043-5.572348" fill="#2d8adf" fill-rule="nonzero" mask="url(#bg)"/><path d="m286.597362 300.738242c1.438952 0 2.336332-.804734 2.336332-1.934664v-.030922c0-1.269075-.912838-1.934664-2.336332-1.934664h-2.213711v3.90025zm-4.116943-5.633404h4.271529c2.537554 0 4.116943 1.439141 4.116943 3.621961v.030135c0 2.430975-1.950131 3.70005-4.333625 3.70005h-2.151615v3.482816h-1.903232z" fill="#2d8adf" fill-rule="nonzero" mask="url(#bh)"/><g mask="url(#bi)"><g fill-rule="nonzero" transform="translate(88 203)"><path d="m9.45248132 51.6637498c.00326614-.489231-.09396423-.9739392-.28541006-1.4239714-.18315487-.431438-.44469701-.8249335-.77080816-1.1608872-.33088473-.3387178-.72332356-.6108478-1.15646348-.8010625-.91074954-.3922391-1.94184363-.3922391-2.85234193 0-.43288867.1874506-.82532751.4568167-1.15671472.7935242-.32636238.3351999-.58790453.7289468-.77080816 1.160636-.38012801.915141-.38012801 1.9446117 0 2.8597527.18290363.4316892.44419453.825436.77080816 1.1606359.33138721.3364563.72382605.6058224 1.15671472.793273.91074954.3919879 1.94159239.3919879 2.85234193 0 .43288868-.1902147.82557875-.4620934 1.15646348-.8010625.32636239-.3357024.58765329-.7291979.77080816-1.1608872.19144583-.4500322.2886762-.9344891.28541006-1.4239714zm-3.6427469-5.8893668c1.32856374-.0175892 2.62019501.4407351 3.6427469 1.2925549v-5.2277616c-.00728599-.2887142.10250643-.5681312.3045044-.7739248.20325417-.2060449.48238318-.3181133.77080818-.30957.2884249-.0057793.566549.1057865.7713106.30957.2075253.2027783.3220913.4832004.3158103.7739248v9.8401525c.0301489 1.5606646-.5836335 3.0647925-1.69612972 4.1558255-1.07405635 1.1191757-2.56090207 1.7435923-4.10905066 1.7257518-1.54915356.0233685-3.03826046-.6020532-4.10905067-1.7257518-1.10948137-1.0935457-1.72376623-2.5956634-1.69989831-4.1558255-.02587785-1.5631774.58865826-3.0683104 1.69989831-4.163615 1.06802656-1.1294779 2.5573847-1.760679 4.10905067-1.7413308zm18.66471258 5.9049458c.0288927 1.5611672-.5861459 3.0652951-1.7001496 4.1558255-1.0856134 1.0998276-2.5644194 1.7187162-4.1070407 1.7187162s-3.0214273-.6188886-4.107292-1.7187162c-1.1114913-1.0953046-1.7260274-2.6006889-1.6998983-4.163615-.0251241-1.5599108.5879045-3.0620285 1.6958785-4.1558255 1.0861159-1.1000788 2.5646707-1.7189674 4.1072919-1.7189674 1.5428726 0 3.0216786.6188886 4.107292 1.7189674.546701.5427525.9790872 1.1902863 1.2720345 1.903654.2856613.7191471.4321349 1.4857849.4318837 2.259961zm-5.8092002-3.6914706c-.4919304-.0040204-.9793384.096238-1.4300652.2939909-.4326375.1874506-.8253275.4568167-1.1564635.793273-.3271161.3351999-.588407.7289467-.7708082 1.1608872-.3806305.9146384-.3806305 1.9446117 0 2.8595014.1824012.4319405.4436921.8256873.7708082 1.160636.331136.3364562.723826.6058223 1.1564635.7935242.9107495.3917366 1.9418436.3917366 2.8525931 0 .4328887-.1904659.8253275-.4623447 1.1564635-.8010625.3261112-.3357024.5876533-.7294492.7708082-1.1608872.3796255-.9111206.3796255-1.9368222 0-2.8479428-.1831549-.431438-.444697-.8251848-.7708082-1.1608872-.3308847-.3389691-.7233235-.6108478-1.1564635-.8010625-.4482144-.1975016-.93311-.29776-1.4225279-.2939909zm15.8817132 6.2451712c.288425-.0085433.5678052.103525.7708082.30957.2014954.2060449.3112879.4852106.3045044.7739248.0007537.3052982-.1231083.5977815-.3429444.8086006-2.2928276 2.0134609-5.7509122 1.8863161-7.8907339-.2899705-1.1109889-1.0955559-1.7257762-2.6006889-1.6998983-4.163615-.0236167-1.5604133.5909194-3.0622798 1.6998983-4.1558255 1.0687802-1.1292267 2.5576359-1.7601764 4.1090506-1.7413308 1.3971526-.0223634 2.750338.4894823 3.785452 1.4317609.2462164.2052911.3876652.5105893.385404.8319692.0050249.2882116-.1042651.5668748-.3045044.7739248-.2012442.2095627-.4808757.3246464-.7710594.3173594-.257271.0022615-.5070048-.0869409-.7052341-.2515256-.3354071-.2796683-.7145302-.5017947-1.1217922-.6580873-.402991-.1570465-.8321111-.2359466-1.264246-.2319262-.4891667-.0032666-.9733086.0954842-1.4222767.2899705-.4303763.183179-.8228151.4455093-1.1567148.7739248-1.4406173 1.4438221-1.4458934 3.7854472-.0115571 5.2355512.3338997.3284155.7260873.5907458 1.1564635.7739248.4492194.194235.9336125.2932371 1.422528.2902218.4343961.0110561.8672848-.0598033 1.2758031-.2090602.4027397-.1600617.7743255-.3892239 1.098678-.6771842.1979781-.1490057.4384159-.2304186.6858886-.2321775zm2.3356131 2.228803v-14.6148666c-.0035918-.2904731.1104717-.5698901.3164895-.7739248.200993-.2098141.4806246-.3264053.7708082-.3211286.2904349-.0065331.5703176.1100582.7708082.3211286.2055153.204286.3195788.4834517.3160615.7739248v8.1837524l6.1986241-4.0706435c.1733565-.1118171.3758569-.1698615.5818748-.1663436.1457199-.0005026.2899324.028394.4240952.085182.129138.0542752.2459652.134683.3431955.2359465.0982354.1027712.1776276.2218752.2351618.3522866.0587905.1326728.0889394.2764017.088437.4216382.0241191.3447484-.1339116.6766817-.4160555.8746859l-4.3482324 2.8592501 4.479129 5.0845353c.1959682.2095628.3034995.4867183.3008379.7739248.0004004.1452366-.0299998.2892167-.0887902.4218895-.057283.1301601-.1369265.2492641-.2351618.3520353-.0969792.1015148-.2138064.1819226-.3431956.2359466-.1341628.056788-.2783753.0859358-.423844.085182-.2695819.0080407-.531124-.0937253-.724831-.2824323l-4.7911707-5.4559187-1.2644972.8397587v3.7960007c.0027637.2899705-.1110486.5691363-.3160615.7736735-.1992343.2133319-.4796195.3316821-.7710594.325149-.2909373.0050254-.5708201-.1130735-.7708081-.325149-.2050129-.2045372-.3190764-.483703-.3163128-.7736735zm20.5228184-5.893136c-.1148172-.3791729-.2919423-.7362336-.5243405-1.0563571-.2261171-.3135903-.4992163-.5902433-.809248-.8204105-.3100317-.2284084-.6532273-.4070644-1.0177783-.5301888-.3723396-.1271448-.7630197-.1912197-1.1564635-.1894608-.3931926-.0007538-.7838727.0633211-1.1562123.1894608-.3668122.1231244-.7127714.3020317-1.0255667.5301888-.3115392.2284083-.5848897.5053126-.8094994.8204105-.2288807.3201235-.4012322.6774355-.5087635 1.0563571zm-.4663037 3.6683534c.2884249-.0087946.5678052.1032738.7708081.3095699.2017468.2057937.3112879.4849594.3045044.7736736.0015075.2892167-.1105461.5673773-.3120416.7739248-2.2905665 2.0174813-5.7478974 1.9039053-7.9022911-.2590638-1.1114913-1.0953046-1.7260274-2.6006889-1.7001495-4.163615-.0258779-1.5631774.5886582-3.0685616 1.7001495-4.163615 1.0858647-1.1010839 2.5656757-1.7207263 4.1090507-1.7207263 1.5436262 0 3.023186.6196424 4.1093019 1.7207263.5484596.540491.9826045 1.1867685 1.2758031 1.8998849.28742.720906.4316324 1.4913129.423844 2.2674992.006281.2909756-.1080338.5711465-.3160615.7739248-.2045104.2037835-.4826345.3153493-.7708082.30957h-8.2183526c.1133098.3781678.2881737.7349773.516552 1.0563571.4497219.631201 1.0863672 1.1038479 1.8194892 1.3505993.3723395.1266422.7630197.1907172 1.1564635.1894608.4278638.005528.8532152-.06508 1.2567087-.2090602.3881677-.1442314.7474427-.3578146 1.0599868-.6306985.1994856-.1728767.4532393-.2703711.7170426-.2746428zm6.1403362-7.3520345v.208809c.507256-.4138488 1.0790811-.7407566 1.6926123-.9674061.6250882-.2271519 1.2853502-.3412304 1.9501346-.3364562.3273673.0010051.6544834.0216096.9793384.0618134.3286235.0369374.6522222.1120684.9637614.224388.272848.096238.5225818.2490128.7323682.4490271.1944608.1934813.2992284.4603345.2889275.7352286.0010049.1477493-.029144.2939909-.0884369.4294278-.0575343.1301601-.1369265.2495154-.2354131.3520353-.0969791.1015148-.2138063.1819226-.3429443.2359465-.1341628.0570393-.2786265.0859358-.4240952.085182-.1580308-.0070357-.3127954-.0464857-.4547467-.1160887-.452988-.178656-.9358737-.2678584-1.4222767-.2630842-.4891667-.0030153-.9735599.0957355-1.4227792.2902218-.4308788.1814201-.8235688.4440017-1.1562123.7739248-.3278698.3344461-.5894119.7284442-.7708081 1.1608873-.1914459.455309-.2886762.9450426-.2854101 1.4392991v4.8254715c.0045224.2904731-.1095412.5701413-.3160615.7736735-.2004905.2113217-.4803733.3276617-.7708081.3213798-.2899324.0007539-.5678053-.1140785-.7728181-.3196209-.2047616-.2057936-.3193277-.4849593-.3183227-.7754324v-9.588627c-.0052761-.2939909.108285-.5779308.3143028-.786991.2060178-.2090603.487408-.3256515.7803553-.3236413.2906862-.0060306.5703177.1103094.7713107.3211285.206269.2035322.3205838.4834517.3158102.7739248z" fill="#2d8adf"/><path d="m64.8444923 13.713137c-1.2528694-.8316369-4.1435682-1.1327964-6.3629203-.7166906-.389626-2.2316836-1.682158-4.21048525-3.5795436-5.47834363l-1.2172899-.805774-.8142484 1.20406315c-1.0831372 1.7236207-1.5701697 3.74897558-1.3870222 5.77030738.1061556 1.1241754.4736173 2.2081196 1.0738048 3.1684965-1.3088636.6373776-2.7577126.9414107-4.2153107.885087h-37.7552323l-.0717426.4339225c-.58910524 4.8357935.7996667 9.7043467 3.8571814 13.5234396 3.2301634 3.7788617 8.0532442 5.6996154 14.3805848 5.6996154 13.6923232 0 23.8226009-6.195609 28.5657733-17.5684021 1.8612227 0 5.8793873 0 7.9465052-3.885187.0530778-.0885087.1784814-.3275972.537194-1.0621044l.1965629-.4069102-1.1636288-.7701406zm-29.5306351-8.91861645h5.7534246v-4.79452055h-5.7534246v4.78653766zm0 5.75342465h5.7534246v-4.79452054h-5.7534246v4.78600544zm-6.7035806 0h5.7446765v-4.79452054h-5.7534247v4.78600544zm-6.7123287 0h5.7446764v-4.79452054h-5.7534247v4.78600544zm-6.7123834 5.7534247h5.744731v-4.7945206h-5.7534246v4.7865368zm6.7123834 0h5.7446764v-4.7945206h-5.7534247v4.7865368zm6.7123287 0h5.7446765v-4.7945206h-5.7534247v4.7865368zm6.7035806 0h5.7534246v-4.7945206h-5.7534246v4.7865368zm6.7123287 0h5.7534247v-4.7945206h-5.7534247v4.7865368z" fill="#b5cfe4"/></g></g></g></svg>