<svg viewBox="0 0 665 144" xmlns="http://www.w3.org/2000/svg"><path d="M187.23 99.41h-12.57V94.7h-.16c-2.72 5.68-8.16 6.16-11.52 6.16-2.72 0-9.12-.64-13-5.6-3.52-4.4-4-7.6-4-13.69V55h13.29v24.57c0 3 0 8.89 7.12 8.89 3.84 0 7.6-2 7.6-9V55h13.29zm33.14-45.9L216.16 67c-4.98.4-8.3 2.11-8.3 8v24.4h-13.28V55h12.48v4.73h.16c1.09-2.09 3.42-5.95 13.15-6.22zm214.82 0L430.97 67c-4.97.4-8.3 2.11-8.3 8v24.4h-13.28V55h12.49v4.73h.16c1.08-2.09 3.41-5.95 13.15-6.22zm112.97-2.96l3.13-10.02h13.29l-3.16 10.08h-13.26zM22 67.43c-.1-1-.3-3.35-4.22-3.29-2.8 0-3.73 1.82-3.71 3 0 2.4 3.34 3.7 6.87 4.69 7.56 2 15.59 4.09 15.74 13.69.14 9.36-8 15.25-17.85 15.4-6.72.1-16.93-2.79-18.31-14.45l13.2-.2c.63 4.07 4.54 4 5.1 4 2.24 0 4.62-1.35 4.59-3.51-.05-3.44-3.34-3.79-11.87-7C5.77 78.09.91 74.41.82 68.4c-.13-8.8 7.78-14.77 17-14.91 5.84-.08 16 2.08 17.26 13.75zM86.38 85.5a26 26 0 01-9 11.36 21.61 21.61 0 01-12.65 4c-13 0-23.543-10.53-23.56-23.53 0-12.4 9.76-23.84 23.29-23.84S87.9 64.21 87.9 77.73a18.38 18.38 0 01-.32 3.53H54.29c.8 5.28 5.2 8.4 10.4 8.4 4.09 0 6.24-1.84 8.09-4.16zM74.62 72.29c-.56-2.64-3.2-7.6-10.09-7.6s-9.52 5-10.08 7.6zM140 82.54c-2.883 11.651-13.976 19.345-25.899 17.962C102.178 99.119 93.141 89.092 93 77.09a23.31 23.31 0 0123.45-23.6c11.76 0 21.28 7.76 23.52 18.64H126.5c-1.44-3-4.08-6.24-9.6-6.24-6.32-.32-10.57 4.88-10.57 11.28s4.25 11.29 10.57 11.29a10.22 10.22 0 009.6-5.92zm125.55 2.96a26 26 0 01-9 11.36 21.58 21.58 0 01-12.64 4c-12.988-.017-23.513-10.542-23.53-23.53 0-12.4 9.77-23.84 23.29-23.84s23.44 10.72 23.44 24.24a19.4 19.4 0 01-.31 3.53h-33.33c.8 5.28 5.2 8.4 10.4 8.4 4.08 0 6.24-1.84 8.08-4.16zm-11.76-13.21c-.56-2.64-3.2-7.6-10.08-7.6s-9.52 5-10.08 7.6zm231.33 27.46h-13.28V95h-.16c-2.25 4.32-7.77 6.32-13 6.32-14.08 0-22.32-11-22.32-23.77 0-14.56 10.48-23.69 22.32-23.69 7.29 0 11.37 3.53 13 6.25h.16v-4.77h13.28zm-24.4-10.88c8.31 0 11.12-7.05 11.12-11.37 0-5.36-3.68-11.28-11.21-11.28s-11 6.4-11 11.44c.04 4.16 3.08 11.21 11.09 11.21zm78.47 10.88h-12.64V95h-.16c-1.11 1.83-4.32 6.24-13.28 6.24-13.44 0-22.25-10.41-22.25-23.77 0-15 10.73-23.61 22-23.61 7.84 0 11.6 3.85 13 5.29V40.53h13.28zm-23.92-11c8.32 0 11.37-6.8 11.37-11.44-.181-6.08-5.162-10.915-11.245-10.915S504.331 71.23 504.15 77.31c0 6.91 4.85 11.47 11.12 11.47zm32.89-33.41h13.29v44.41h-13.29zm22.13 0h12.4v4.72h.16c1.36-2.16 4.17-6.25 12.08-6.25 4.24 0 9 1.76 11.37 3.85s5.12 5.59 5.12 14.32v27.77h-13.28V75.5c0-3.12 0-9.2-7-9.2-7.6 0-7.6 6.56-7.6 9.28v24.17h-13.25zM665 94.38c0 6.65-.48 10.89-2.64 14.65-3.44 5.6-11.52 10.48-22.49 10.48-15.44 0-21.28-9.27-22.16-15.6h15.36c1.92 4.4 6.89 4.4 7.76 4.4 1.69 0 10.81-.16 10.81-12.09v-1.35h-.16c-1.36 2.56-5.2 6.32-12.17 6.32-12.08 0-22.4-9.12-22.4-23.37 0-15.2 10.88-23.93 22.4-23.93 5 0 9.85 1.77 12.25 5.61h.16v-4.16H665zm-24.17-5.6c6.41 0 10.89-4.64 10.89-11 0-7.12-4.88-11.44-10.8-11.44a10.79 10.79 0 00-10.73 11c0 7.12 5.12 11.44 10.64 11.44zm-311.62 55.03h-21.28L352.72.78h21.15zm-39.33 0h-21.27L313.39.78h21.15zm106.6-88.47h6.4v10.08h-6.4v34.33h-13.29V65.42h-7.79l3.15-10.08h4.64V40.53h13.29z" fill="#44536b"/></svg>