<svg xmlns="http://www.w3.org/2000/svg" width="62" height="58" viewBox="0 0 62 58"><g fill="none" fill-rule="evenodd"><path fill="#2C75BF" d="M31.018 13.866c8.303.012 15.025 6.753 15.013 15.056-.012 8.303-6.753 15.025-15.056 15.013-8.303-.013-15.025-6.754-15.013-15.057.012-8.302 6.753-15.024 15.056-15.012"/><path stroke="#B5D0E7" stroke-width="2" d="M51.848 28.951c0-11.516-9.335-20.85-20.851-20.85H2.492m13.765 6.106a20.786 20.786 0 00-6.107 14.744" stroke-linecap="round" stroke-linejoin="round"/><path fill="#FEFEFE" d="M30.997 20.87c-6.886 0-9.761 7.233-9.88 7.54a1.504 1.504 0 00-.044.95c.75 2.653 3.79 7.672 9.924 7.672 6.133 0 9.173-5.02 9.924-7.672a1.504 1.504 0 00-.044-.95c-.12-.307-2.994-7.54-9.88-7.54m0 1.5c5.937 0 8.48 6.58 8.48 6.58s-1.861 6.582-8.48 6.582-8.481-6.581-8.481-6.581 2.544-6.58 8.48-6.58"/><path stroke="#FEFEFE" stroke-width="1.5" d="M27.317 28.951a3.68 3.68 0 117.36.001 3.68 3.68 0 01-7.36 0z" stroke-linecap="round" stroke-linejoin="round"/><path stroke="#B5D0E7" stroke-width="2" d="M8.104 15.204L1 8.1 8.104.997m2.041 27.852c0 11.516 9.335 20.85 20.851 20.85h28.505m-13.76-6.106a20.786 20.786 0 006.106-14.744" stroke-linecap="round" stroke-linejoin="round"/><path stroke="#B5D0E7" stroke-width="2" d="M53.89 42.596l7.104 7.104-7.104 7.103" stroke-linecap="round" stroke-linejoin="round"/></g></svg>