<svg xmlns="http://www.w3.org/2000/svg" width="57" height="58" viewBox="0 0 57 58"><g fill="none" fill-rule="evenodd"><path stroke="#B5D0E7" stroke-width="2" d="M22.758 1.023c14.158 0 21.277 7.575 21.277 7.575s.814 5.607.294 16.897c-.785 17.056-21.566 27.298-21.568 27.299-.002 0-20.783-10.243-21.568-27.3-.519-11.29.295-16.896.295-16.896S8.6 1.023 22.758 1.023z" stroke-linecap="round" stroke-linejoin="round"/><path fill="#2C75BE" d="M57 43c0 8.284-6.716 15-15 15-8.284 0-15-6.716-15-15 0-8.284 6.716-15 15-15 8.284 0 15 6.716 15 15"/><path stroke="#2C75BE" stroke-width="2" d="M22.764 14.756v18.305m9.152-9.153H13.611" stroke-linecap="round" stroke-linejoin="round"/><path stroke="#FFF" stroke-width="1.5" d="M38.73 51.428v-16.5" stroke-linecap="round" stroke-linejoin="round"/><path fill="#FFF" d="M38.73 36.553l9.72 2.688c.6.167.617 1.013.023 1.203l-9.742 3.109v-7z"/></g></svg>