<svg xmlns="http://www.w3.org/2000/svg" width="53" height="53" viewBox="0 0 53 53"><g fill="none" fill-rule="evenodd"><path stroke="#B5D0E7" stroke-width="2" d="M4.166 1.023H47.88a3.143 3.143 0 013.143 3.143V47.88a3.143 3.143 0 01-3.143 3.143H4.166a3.143 3.143 0 01-3.143-3.143V4.166a3.143 3.143 0 013.143-3.143z" stroke-linecap="round" stroke-linejoin="round"/><path fill="#FFF" d="M40.188 8.368v35.31"/><path stroke="#B5D0E7" stroke-width="2" d="M40 8.368v35.31" stroke-linecap="round" stroke-linejoin="round"/><path fill="#FFF" d="M26.023 8.368v35.31"/><path stroke="#B5D0E7" stroke-width="2" d="M26 8.368v35.31" stroke-linecap="round" stroke-linejoin="round"/><path fill="#FFF" d="M11.858 8.368v35.31"/><path stroke="#B5D0E7" stroke-width="2" d="M12 8.368v35.31" stroke-linecap="round" stroke-linejoin="round"/><path fill="#2C75BE" d="M11.858 14.082a4.445 4.445 0 110 8.89 4.445 4.445 0 010-8.89m14.165 16.086a4.445 4.445 0 110 8.89 4.445 4.445 0 010-8.89M40.188 6.04a4.445 4.445 0 110 8.89 4.445 4.445 0 010-8.89"/></g></svg>