<svg xmlns="http://www.w3.org/2000/svg" viewBox="0 0 72 69"><g fill="none" fill-rule="evenodd" transform="translate(1 1)"><path fill="#ED2E26" fill-rule="nonzero" d="M33.223 18.074L17.552 45.343c-.732 1.15.209 2.612 1.567 2.612h31.448c1.358 0 2.194-1.463 1.567-2.612L36.462 18.074c-.836-1.254-2.507-1.254-3.239 0"/><path fill="#EE3D4A" fill-rule="nonzero" d="M34.79 27.268v7.209"/><path stroke="#FFF" stroke-linecap="round" stroke-width="3.24" d="M34.79 27.268v7.209"/><path fill="#FFF" fill-rule="nonzero" d="M36.462 40.641a1.65 1.65 0 01-1.671 1.672 1.65 1.65 0 01-1.672-1.672c0-.94.731-1.671 1.672-1.671.94 0 1.671.731 1.671 1.671"/><circle cx="34.791" cy="33.224" r="29.776" stroke="#B4CFE4" stroke-linecap="round" stroke-linejoin="round" stroke-width="2"/><g stroke="#B4CFE4" stroke-linecap="round" stroke-linejoin="round" stroke-width="2"><path d="M34.792 0v13.687"/><path fill="#B4CFE4" fill-rule="nonzero" d="M31.135 10.866l3.657 6.477 3.552-6.477z"/></g><g stroke="#B4CFE4" stroke-linecap="round" stroke-linejoin="round" stroke-width="2"><path d="M69.373 33.224H55.687"/><path fill="#B4CFE4" fill-rule="nonzero" d="M58.612 29.672l-6.582 3.552 6.582 3.657z"/></g><g stroke="#B4CFE4" stroke-linecap="round" stroke-linejoin="round" stroke-width="2"><path d="M0 33.224h13.687"/><path fill="#B4CFE4" fill-rule="nonzero" d="M10.866 36.881l6.477-3.657-6.477-3.552z"/></g><g stroke="#B4CFE4" stroke-linecap="round" stroke-linejoin="round" stroke-width="2"><path d="M34.792 66.552V52.865"/><path fill="#B4CFE4" fill-rule="nonzero" d="M38.344 55.791l-3.552-6.583-3.657 6.583z"/></g><g stroke="#B4CFE4" stroke-linecap="round" stroke-linejoin="round" stroke-width="2"><path d="M60.284 7.94l-9.508 9.716"/><path fill="#B4CFE4" fill-rule="nonzero" d="M55.269 18.179l-7.105 2.089 1.986-7.209z"/></g><g stroke="#B4CFE4" stroke-linecap="round" stroke-linejoin="round" stroke-width="2"><path d="M60.284 58.716l-9.508-9.821"/><path fill="#B4CFE4" fill-rule="nonzero" d="M55.269 48.477l-7.105-2.194 1.986 7.209z"/></g><g stroke="#B4CFE4" stroke-linecap="round" stroke-linejoin="round" stroke-width="2"><path d="M9.507 58.716l9.612-9.821"/><path fill="#B4CFE4" fill-rule="nonzero" d="M14.522 48.477l7.105-2.194-1.985 7.209z"/></g><g stroke="#B4CFE4" stroke-linecap="round" stroke-linejoin="round" stroke-width="2"><path d="M9.821 7.94l9.507 9.716"/><path fill="#B4CFE4" fill-rule="nonzero" d="M14.731 18.179l7.209 2.089-1.985-7.209z"/></g></g></svg>