
<svg width="82px" height="61px" viewBox="0 0 82 61" version="1.1" xmlns="http://www.w3.org/2000/svg" xmlns:xlink="http://www.w3.org/1999/xlink">
    <!-- Generator: Sketch 44.1 (41455) - http://www.bohemiancoding.com/sketch -->
    <desc>Created with Sketch.</desc>
    <defs></defs>
    <g id="12.1-13-App-detail" stroke="none" stroke-width="1" fill="none" fill-rule="evenodd">
        <g id="12.7-App-Detail---Security-Assessment-Questionnaire" transform="translate(-185.000000, -1410.000000)">
            <g id="---Features-overview" transform="translate(185.000000, 1290.000000)">
                <g id="::-01" transform="translate(0.000000, 120.000000)">
                    <g id="icon" transform="translate(1.000000, 1.000000)">
                        <path d="M10.8504918,13.2135089 L14.9855738,13.2135089 C15.7396721,13.2135089 16.3495082,13.8244867 16.3495082,14.5770644 L16.3495082,29.7689089 C16.3495082,30.5214867 15.7396721,31.1324644 14.9855738,31.1324644 L10.8504918,31.1324644 C10.0977049,31.1324644 9.48655738,30.5214867 9.48655738,29.7689089 L9.48655738,14.5770644 C9.48655738,13.8244867 10.0977049,13.2135089 10.8504918,13.2135089 Z" id="Stroke-1" stroke="#B5D0E7" stroke-width="2"></path>
                        <path d="M23.7551475,34.9710044 L31.4325246,58.3468044 C31.439082,58.3690933 31.4587541,58.3822044 31.4823607,58.3822044 L40.2797377,58.3822044 C40.3085902,58.3822044 40.3335082,58.3586044 40.3335082,58.32976 C40.3335082,58.3245156 40.3321967,58.3205822 40.3308852,58.3153378 L34.2430164,38.0494933 L23.7551475,34.9710044 Z" id="Stroke-3" stroke="#B5D0E7" stroke-width="2"></path>
                        <path d="M9.5735082,28.3936844 L9.5735082,15.9525511 L6.22137705,15.9525511 C2.78531148,15.9525511 -0.000262295082,18.7373511 -0.000262295082,22.1724622 C-0.000262295082,25.6075733 2.78531148,28.3936844 6.22137705,28.3936844 L9.5735082,28.3936844 Z" id="Stroke-5" stroke="#B5D0E7" stroke-width="2"></path>
                        <path d="M58.2735738,28.3936844 L58.2735738,15.9525511 L58.9135738,15.9525511 C62.3509508,15.9525511 65.1352131,18.7373511 65.1352131,22.1724622 C65.1352131,25.6075733 62.3509508,28.3936844 58.9135738,28.3936844 L58.2735738,28.3936844 Z" id="Stroke-7" stroke="#B5D0E7" stroke-width="2"></path>
                        <path d="M16.2987541,12.8606889 C16.2777705,12.8672444 16.2633443,12.8882222 16.2633443,12.9105111 L16.2633443,31.4352 C16.2633443,31.4574889 16.2777705,31.4784667 16.2987541,31.4863333 L58.2935082,44.3430889 C58.2974426,44.3444 58.3026885,44.3457111 58.3079344,44.3457111 C58.3380984,44.3457111 58.3603934,44.3234222 58.3603934,44.2932667 L58.3603934,0.0524444444 C58.3603934,0.0472 58.3603934,0.0419555556 58.3577705,0.0367111111 C58.3499016,0.00917777778 58.3197377,-0.00655555556 58.2935082,0.00262222222 L16.2987541,12.8606889 Z" id="Stroke-9" stroke="#B5D0E7" stroke-width="2"></path>
                        <path d="M49.8360656,3.68618889 L49.8360656,40.7145889" id="Stroke-11" stroke="#B5D0E7" stroke-width="2" stroke-linecap="round" stroke-linejoin="round"></path>
                        <path d="M69.8360656,22.1729867 L79.3704918,22.1729867" id="Stroke-13" stroke="#B5D0E7" stroke-width="2" stroke-linecap="round" stroke-linejoin="round"></path>
                        <path d="M70.5135738,11.9023978 L77.3384918,6.42457556" id="Stroke-15" stroke="#B5D0E7" stroke-width="2" stroke-linecap="round" stroke-linejoin="round"></path>
                        <path d="M70.5135738,32.4435756 L78.6932459,37.9213978" id="Stroke-17" stroke="#B5D0E7" stroke-width="2" stroke-linecap="round" stroke-linejoin="round"></path>
                        <path d="M34.9142295,12.6232467 L41.2958689,16.50938 C41.7640656,16.7938911 42.0486557,17.3012911 42.0486557,17.8480244 L42.0486557,25.7684467 C42.0486557,26.31518 41.7640656,26.8238911 41.2958689,27.1084022 L34.9142295,30.9945356 C34.4132459,31.2987133 33.7837377,31.2987133 33.2827541,30.9945356 L26.9011148,27.1084022 C26.432918,26.8238911 26.1470164,26.31518 26.1470164,25.7684467 L26.1470164,17.8480244 C26.1470164,17.3012911 26.432918,16.7938911 26.9011148,16.50938 L33.2827541,12.6232467 C33.7837377,12.3190689 34.4132459,12.3190689 34.9142295,12.6232467" id="Fill-19" fill="#EC3027"></path>
                        <path d="M32.9892459,18.9847578 L35.2069508,18.9847578 C36.0738361,18.9847578 36.7754754,19.6875133 36.7754754,20.5528467 L36.7754754,23.0649356 C36.7754754,23.9302689 36.0738361,24.6330244 35.2069508,24.6330244 L32.9892459,24.6330244 C32.1236721,24.6330244 31.4220328,23.9302689 31.4220328,23.0649356 L31.4220328,20.5528467 C31.4220328,19.6875133 32.1236721,18.9847578 32.9892459,18.9847578" id="Fill-21" fill="#FFFFFF"></path>
                    </g>
                </g>
            </g>
        </g>
    </g>
</svg>