<svg xmlns="http://www.w3.org/2000/svg" width="69" height="69"><g fill="none" fill-rule="evenodd"><path stroke="#B5CFE5" stroke-linecap="round" stroke-linejoin="round" stroke-width="2" d="M34.5 12.166v43.921m21.961-21.96H12.538m37.094-15.365L18.578 49.817m0-31.055l31.054 31.055"/><path stroke="#B5CFE5" stroke-width="2" d="M34.5 1c3.084 0 5.583 2.5 5.583 5.584a5.582 5.582 0 1 1-11.166 0A5.582 5.582 0 0 1 34.5 1zm0 55.833c3.084 0 5.583 2.5 5.583 5.584a5.582 5.582 0 1 1-11.166 0 5.583 5.583 0 0 1 5.583-5.584zm27.917-27.917a5.583 5.583 0 0 1 0 11.167 5.583 5.583 0 1 1 0-11.167zm-55.834 0a5.583 5.583 0 1 1 0 11.166 5.583 5.583 0 1 1 0-11.166zm51.605-18.104a5.583 5.583 0 1 1-7.895 7.896 5.583 5.583 0 0 1 7.895-7.896zm-39.48 39.48a5.583 5.583 0 1 1-7.895 7.896 5.583 5.583 0 0 1 7.895-7.896zm39.48 0a5.583 5.583 0 1 1-7.895 7.896 5.583 5.583 0 0 1 7.895-7.896zm-39.48-39.48a5.583 5.583 0 1 1-7.895 7.896 5.583 5.583 0 0 1 7.895-7.896z"/><path fill="#EE3C39" d="M34.498 20.348c7.74 0 11.633 4.14 11.633 4.14s.445 3.066.161 9.24c-.428 9.325-11.79 14.924-11.79 14.924-.003.002-11.366-5.599-11.794-14.925-.284-6.173.161-9.238.161-9.238s3.888-4.141 11.629-4.141"/><path fill="#FEFEFE" d="M28.69 32.605c0-3.298 2.606-5.979 5.81-5.979a5.821 5.821 0 0 1 5.815 5.815c0 2.559-2.2 4.666-3.897 5.748.66.375 2.11.77 3.501.897a8.392 8.392 0 0 0 3.268-6.645c0-4.79-3.896-8.686-8.687-8.686-4.79 0-8.687 3.895-8.687 8.686 0 2.893 1.204 5.463 3.484 7.432 2.13 1.841 5.247 3.07 8.795 3.652.77-.426 2.084-1.68 2.576-2.414-2.963-.38-5.767-1.102-7.647-2.09-2.874-1.506-4.332-3.666-4.332-6.416"/></g></svg>