<svg width="57" height="57" viewBox="0 0 57 57" xmlns="http://www.w3.org/2000/svg"><g fill="none" fill-rule="evenodd" opacity=".9"><path d="M53.028 53.125L4.98 5.077" fill="#FFF"/><path d="M53.028 53.125L4.98 5.077" stroke="#B5D0E7" stroke-width="2" stroke-linecap="round" stroke-linejoin="round"/><path d="M1 6.998a6.001 6.001 0 0112.001 0A6.001 6.001 0 011 6.998" fill="#FFF"/><path d="M1 6.998a6.001 6.001 0 0112.001 0A6.001 6.001 0 011 6.998z" stroke="#B5D0E7" stroke-width="2" stroke-linecap="round" stroke-linejoin="round"/><path d="M44 50a6.001 6.001 0 0112.001 0A6.001 6.001 0 0144 50" fill="#FFF"/><path d="M44 50a6.001 6.001 0 0112.001 0A6.001 6.001 0 0144 50z" stroke="#B5D0E7" stroke-width="2" stroke-linecap="round" stroke-linejoin="round"/><path d="M53.077 4.02L5.029 52.066" fill="#FFF"/><path d="M53.077 4.02L5.029 52.066" stroke="#B5D0E7" stroke-width="2" stroke-linecap="round" stroke-linejoin="round"/><path d="M54.241 11.243a6.001 6.001 0 01-8.486-8.486 6.002 6.002 0 018.49.003 6 6 0 01-.004 8.483" fill="#FFF"/><path d="M54.241 11.243a6.001 6.001 0 01-8.486-8.486 6.002 6.002 0 018.49.003 6 6 0 01-.004 8.483z" stroke="#B5D0E7" stroke-width="2" stroke-linecap="round" stroke-linejoin="round"/><path d="M11.241 54.243a6.001 6.001 0 01-8.486-8.486 6.002 6.002 0 018.49.002 5.998 5.998 0 01-.004 8.484" fill="#FFF"/><path d="M11.241 54.243a6.001 6.001 0 01-8.486-8.486 6.002 6.002 0 018.49.002 5.998 5.998 0 01-.004 8.484z" stroke="#B5D0E7" stroke-width="2" stroke-linecap="round" stroke-linejoin="round"/><path d="M28.498 14c8.14 0 12.233 4.355 12.233 4.355s.468 3.224.17 9.715c-.452 9.806-12.4 15.695-12.4 15.696-.002 0-11.95-5.89-12.4-15.696-.3-6.491.168-9.715.168-9.715S20.36 14 28.5 14" fill="#ED2E26"/><path d="M22.39 26.89c0-3.467 2.741-6.288 6.11-6.288a6.122 6.122 0 016.115 6.115c0 2.692-2.314 4.907-4.097 6.045.692.394 2.218.809 3.68.943a8.825 8.825 0 003.437-6.988c0-5.037-4.098-9.135-9.135-9.135s-9.135 4.098-9.135 9.135c0 3.042 1.267 5.745 3.663 7.816 2.241 1.936 5.518 3.228 9.249 3.84.809-.447 2.191-1.765 2.71-2.538-3.117-.4-6.066-1.16-8.043-2.198-3.022-1.585-4.554-3.855-4.554-6.747" fill="#FFF"/></g></svg>