
<svg width="65px" height="71px" viewBox="0 0 65 71" version="1.1" xmlns="http://www.w3.org/2000/svg" xmlns:xlink="http://www.w3.org/1999/xlink">
    <!-- Generator: Sketch 44.1 (41455) - http://www.bohemiancoding.com/sketch -->
    <desc>Created with Sketch.</desc>
    <defs></defs>
    <g id="12.1-13-App-detail" stroke="none" stroke-width="1" fill="none" fill-rule="evenodd">
        <g id="13-App-Detail---WAF" transform="translate(-186.000000, -1403.000000)">
            <g id="---Features-overview" transform="translate(185.000000, 1290.000000)">
                <g id="::-01" transform="translate(0.000000, 112.000000)">
                    <g id="icon" transform="translate(1.000000, 0.000000)">
                        <g id="Group-27">
                            <polyline id="Stroke-1" stroke="#B5D0E6" stroke-width="2" stroke-linecap="round" stroke-linejoin="round" points="5.60344828 9.69525 5.69198276 7.875 58.7039655 7.9155 58.6187931 9.73575"></polyline>
                            <polyline id="Stroke-1-Copy" stroke="#B5D0E6" stroke-width="2" stroke-linecap="round" stroke-linejoin="round" points="15.6896552 4.07025 15.746421 2.25 49.736206 2.2905 49.6815958 4.11075"></polyline>
                            <polygon id="Stroke-4" stroke="#B5D0E6" stroke-width="2" stroke-linecap="round" stroke-linejoin="round" points="1.19723276 12.83535 63.8549914 12.924225 63.7810259 70.875225 1.12102586 70.785225"></polygon>
                            <path d="M63.8573448,28.89135 L1.12225862,28.89135" id="Stroke-6" stroke="#B5D0E6" stroke-width="2" stroke-linecap="round" stroke-linejoin="round"></path>
                            <path d="M7.39386207,20.858625 C7.39386207,19.834875 8.24110345,19.008 9.27886207,19.009125 C10.3177414,19.01025 11.1605,19.84275 11.1605,20.865375 C11.1582586,21.89025 10.3132586,22.716 9.27437931,22.714875 C8.23662069,22.71375 7.39162069,21.88575 7.39386207,20.858625" id="Fill-8" fill="#B5D0E6"></path>
                            <path d="M16.1799569,20.858625 C16.1799569,19.834875 17.0215948,19.008 18.0604741,19.009125 C19.1027155,19.01025 19.9421121,19.84275 19.9421121,20.865375 C19.9398707,21.89025 19.0982328,22.716 18.0559914,22.714875 C17.0171121,22.71375 16.1777155,21.88575 16.1799569,20.858625" id="Fill-10" fill="#B5D0E6"></path>
                            <path d="M24.961569,20.858625 C24.961569,19.834875 25.8088103,19.008 26.846569,19.009125 C27.8832069,19.01025 28.7282069,19.84275 28.7259655,20.865375 C28.7259655,21.89025 27.8798448,22.716 26.8420862,22.714875 C25.7987241,22.71375 24.9593276,21.88575 24.961569,20.858625" id="Fill-12" fill="#B5D0E6"></path>
                            <polyline id="Stroke-14" stroke="#B5D0E5" stroke-width="2" stroke-linecap="round" stroke-linejoin="round" points="16.5444052 35.249625 8.30397414 35.249625 8.30397414 44.240625"></polyline>
                            <polyline id="Stroke-16" stroke="#B5D0E5" stroke-width="2" stroke-linecap="round" stroke-linejoin="round" points="49.0497845 64.0733625 57.295819 64.0733625 57.295819 55.0823625"></polyline>
                            <path d="M27.0376466,46.536975 L38.1470431,46.536975 C40.1967845,46.536975 41.8542845,48.199725 41.8542845,50.25285 L41.8542845,58.56435 C41.8542845,60.617475 40.1967845,62.28585 38.1470431,62.28585 L27.0376466,62.28585 C24.9879052,62.28585 23.3304052,60.617475 23.3304052,58.56435 L23.3304052,50.25285 C23.3304052,48.199725 24.9879052,46.536975 27.0376466,46.536975" id="Fill-18" fill="#EC3027"></path>
                            <path d="M28.2721983,47.77515 L36.9138362,47.77515 C38.9579741,47.77515 40.6210776,49.4379 40.6210776,51.491025 L40.6210776,57.3264 C40.6210776,59.3784 38.9579741,61.0479 36.9138362,61.0479 L28.2721983,61.0479 C26.2280603,61.0479 24.5649569,59.3784 24.5649569,57.3264 L24.5649569,51.491025 C24.5649569,49.4379 26.2280603,47.77515 28.2721983,47.77515 Z" id="Stroke-20" stroke="#ED2E26" stroke-width="2"></path>
                            <path d="M29.771569,41.2151625 C29.089069,41.2151625 28.536569,41.7686625 28.536569,42.4537875 L28.536569,46.6826625 C28.536569,47.3666625 29.089069,47.9212875 29.771569,47.9212875 L35.4131207,47.9212875 C36.0967414,47.9212875 36.6481207,47.3666625 36.6481207,46.6826625 L36.6481207,42.4537875 C36.6481207,41.7686625 36.0967414,41.2151625 35.4131207,41.2151625 L29.771569,41.2151625 Z" id="Stroke-22" stroke="#EC3027" stroke-width="2"></path>
                            <polygon id="Fill-24" fill="#FFFFFF" points="31.932931 58.348125 33.2519828 58.348125 33.2519828 53.096625 31.932931 53.096625"></polygon>
                            <path d="M32.5951466,51.786225 C33.6900603,51.786225 34.5787672,52.668225 34.5787672,53.754975 C34.5787672,54.84285 33.6900603,55.725975 32.5951466,55.725975 C31.4935086,55.725975 30.6070431,54.84285 30.6070431,53.754975 C30.6070431,52.668225 31.4935086,51.786225 32.5951466,51.786225" id="Fill-26" fill="#FFFFFF"></path>
                        </g>
                    </g>
                </g>
            </g>
        </g>
    </g>
</svg>