<svg xmlns="http://www.w3.org/2000/svg" xmlns:xlink="http://www.w3.org/1999/xlink" width="73" height="81" viewBox="0 0 73 81"><defs><path id="a" d="M0 0h12.586v12.586H0z"/></defs><g fill="none" fill-rule="evenodd"><path stroke="#EB3027" stroke-linecap="round" stroke-linejoin="round" stroke-width="2" d="M36.5 35.24V12.488m0 55.475V45.212M65.545 26.43l-24.01 12.586m24.01 16.362l-24.01-12.586M10.069 26.43l24.01 12.586M10.07 55.379l24.01-12.586"/><path stroke="#B5CFE5" stroke-width="2" d="M36.475 5.179L6.081 22.727v35.098l30.394 17.547 30.396-17.547V22.727z"/><g transform="translate(30.207)"><mask id="b" fill="#fff"><use xlink:href="#a"/></mask><path fill="#FFF" d="M6.293 0a6.293 6.293 0 110 12.586A6.293 6.293 0 016.293 0" mask="url(#b)"/></g><path stroke="#B5CFE5" stroke-width="2" d="M36.5 1.258a5.035 5.035 0 110 10.07 5.035 5.035 0 010-10.07z"/><path fill="#FFF" d="M6.293 18.879a6.293 6.293 0 110 12.586 6.293 6.293 0 010-12.586"/><path stroke="#B5CFE5" stroke-width="2" d="M6.293 20.138a5.035 5.035 0 110 10.069 5.035 5.035 0 010-10.07z"/><path fill="#FFF" d="M66.707 18.879a6.293 6.293 0 110 12.586 6.293 6.293 0 010-12.586"/><path stroke="#B5CFE5" stroke-width="2" d="M66.707 20.138a5.035 5.035 0 110 10.069 5.035 5.035 0 010-10.07z"/><path fill="#FFF" d="M6.293 49.086a6.292 6.292 0 016.293 6.293 6.292 6.292 0 01-6.293 6.293A6.292 6.292 0 010 55.379a6.292 6.292 0 016.293-6.293"/><path stroke="#B5CFE5" stroke-width="2" d="M6.293 50.344a5.035 5.035 0 110 10.07 5.035 5.035 0 010-10.07z"/><path fill="#FFF" d="M66.707 49.086A6.292 6.292 0 0173 55.379a6.292 6.292 0 01-6.293 6.293 6.292 6.292 0 01-6.293-6.293 6.292 6.292 0 016.293-6.293"/><path stroke="#B5CFE5" stroke-width="2" d="M66.707 50.344a5.035 5.035 0 110 10.07 5.035 5.035 0 010-10.07z"/><path fill="#FFF" d="M36.5 67.965a6.292 6.292 0 016.293 6.293 6.292 6.292 0 01-6.293 6.293 6.292 6.292 0 01-6.293-6.293 6.292 6.292 0 016.293-6.293"/><path stroke="#B5CFE5" stroke-width="2" d="M36.5 69.224a5.035 5.035 0 110 10.07 5.035 5.035 0 010-10.07z"/><path fill="#ED2E26" d="M36.48 24.533c8.672 0 15.702 7.03 15.702 15.7 0 8.67-7.03 15.7-15.702 15.7-8.67 0-15.7-7.03-15.7-15.7 0-8.67 7.03-15.7 15.7-15.7"/><path stroke="#FFF" stroke-width="2" d="M36.134 33.005c3.76 0 6.808 3.222 6.808 7.197 0 3.973-3.049 7.196-6.808 7.196-3.76 0-6.808-3.223-6.808-7.196 0-3.975 3.048-7.197 6.808-7.197z"/><path fill="#ED2E26" d="M24.08 40.189l5.521-5.52 5.225 5.223z"/><path fill="#FFF" d="M26.623 41.441l2.907-2.909 2.751 2.751z"/><path fill="#ED2E26" d="M36.493 39.899l6.427 6.429 6.081-6.081z"/><path fill="#FFF" d="M39.454 38.444l3.384 3.384 3.203-3.2z"/></g></svg>