<svg version="1.1" id="Layer_1" xmlns="http://www.w3.org/2000/svg" x="0" y="0" viewBox="0 0 65 65" xml:space="preserve"><style>.st0{fill:#b5d0e7}.st1{fill:#ed2e26}.st2{fill-rule:evenodd;clip-rule:evenodd;fill:#b5d0e7}.st3{fill:#fefefe}</style><text transform="translate(3.946 78.514)"><tspan x="0" y="0" fill="#fff" font-family="Gotham-Book" font-size="8">Built for AWS</tspan><tspan x="-6.48" y="9.6" fill="#fff" font-family="Gotham-Book" font-size="8">with Transparent</tspan><tspan x="-2.86" y="19.2" fill="#fff" font-family="Gotham-Book" font-size="8">Orchestration™</tspan></text><path class="st0" d="M22.48 51.94c-10.54 0-19.12-8.58-19.12-19.12S11.94 13.7 22.48 13.7 41.6 22.28 41.6 32.82s-8.58 19.12-19.12 19.12zm0-36.23c-9.44 0-17.12 7.68-17.12 17.12 0 9.44 7.68 17.12 17.12 17.12S39.6 42.27 39.6 32.83c-.01-9.45-7.68-17.12-17.12-17.12z"/><g id="Stroke-3_1_"><path class="st1" d="M28.65 11.78a1.005 1.005 0 01-.7-1.72c.51-.49 1.04-.95 1.59-1.38a1 1 0 011.4.17 1 1 0 01-.17 1.4c-.49.38-.97.8-1.43 1.24-.19.2-.44.29-.69.29zM54.93 38.88a.996.996 0 01-.7-1.71c.92-.9 1.75-1.9 2.46-2.98.3-.46.92-.59 1.39-.28.46.3.59.92.28 1.39-.79 1.19-1.71 2.31-2.74 3.31-.19.17-.44.27-.69.27zm4.46-6.78c-.12 0-.24-.02-.36-.07-.52-.2-.77-.78-.58-1.29.46-1.2.79-2.46.98-3.74.08-.55.59-.92 1.14-.84.55.08.92.59.84 1.14-.21 1.42-.58 2.82-1.09 4.16a.99.99 0 01-.93.64zm1.2-8.02c-.52 0-.96-.4-1-.93-.09-1.29-.31-2.57-.67-3.8-.15-.53.15-1.09.68-1.24a.998.998 0 011.24.68c.4 1.37.65 2.8.75 4.23a.99.99 0 01-.93 1.06h-.07zm-2.26-7.79c-.35 0-.7-.19-.88-.52-.62-1.13-1.36-2.2-2.21-3.17a.998.998 0 01.1-1.41.998.998 0 011.41.1c.94 1.08 1.77 2.26 2.46 3.52a.997.997 0 01-.88 1.48zm-5.34-6.11c-.21 0-.42-.06-.59-.2a17.69 17.69 0 00-3.33-1.95 1 1 0 01.82-1.82c1.31.59 2.56 1.32 3.71 2.17.44.33.54.96.21 1.4-.21.26-.52.4-.82.4zM33.62 8.32c-.37 0-.73-.21-.9-.57a.99.99 0 01.47-1.33c1.29-.62 2.66-1.1 4.05-1.42a1 1 0 11.45 1.95c-1.26.29-2.48.72-3.64 1.28-.13.06-.28.09-.43.09zm11.97-1.45c-.07 0-.13-.01-.2-.02-1.18-.24-2.4-.37-3.62-.37h-.23c-.57-.01-1-.44-1.01-.99a.997.997 0 01.99-1.01h.25c1.36 0 2.71.14 4.02.41.54.11.89.64.78 1.18-.1.47-.52.8-.98.8zM49.92 42.38c-.37 0-.73-.21-.9-.57a.99.99 0 01.47-1.33c.57-.27 1.13-.58 1.66-.91a1.003 1.003 0 011.06 1.7c-.59.37-1.22.71-1.85 1.01-.14.06-.29.1-.44.1z"/></g><path class="st0" d="M17.32 30.61c0 .28.03.51.08.68.06.17.14.35.24.55.04.06.05.12.05.17 0 .08-.05.15-.14.23l-.48.32c-.07.05-.14.07-.2.07-.08 0-.15-.04-.23-.11-.11-.11-.2-.24-.27-.36-.08-.13-.15-.27-.24-.45-.59.7-1.34 1.05-2.23 1.05-.64 0-1.15-.18-1.52-.55-.37-.36-.56-.85-.56-1.46 0-.65.23-1.17.69-1.56s1.08-.59 1.86-.59c.26 0 .52.02.8.06.28.04.57.1.87.17v-.55c0-.58-.12-.98-.36-1.21-.24-.24-.65-.35-1.24-.35-.27 0-.54.03-.82.1-.28.07-.55.15-.82.26-.12.05-.21.08-.27.1-.05.02-.09.02-.12.02-.11 0-.16-.08-.16-.24v-.37c0-.12.02-.21.05-.27.04-.05.11-.11.21-.16.27-.14.58-.25.96-.34.37-.1.77-.14 1.18-.14.9 0 1.56.2 1.99.61.42.41.63 1.03.63 1.87v2.46h.05zm-3.08 1.15c.25 0 .51-.05.78-.14.27-.09.52-.26.72-.49.12-.14.21-.3.26-.49s.08-.4.08-.66v-.32c-.22-.05-.46-.1-.7-.13-.24-.03-.48-.05-.71-.05-.51 0-.88.1-1.13.3-.25.2-.37.49-.37.87 0 .36.09.62.28.8.18.22.44.31.79.31zm6.1.82c-.14 0-.23-.02-.29-.08-.06-.05-.11-.15-.16-.3l-1.78-5.87c-.05-.15-.07-.25-.07-.3 0-.12.06-.19.18-.19h.74c.14 0 .24.02.3.08.06.05.11.15.15.3l1.28 5.03 1.18-5.03c.04-.15.08-.25.14-.3.06-.05.17-.08.3-.08h.61c.14 0 .24.02.3.08.06.05.11.15.14.3l1.2 5.09 1.31-5.09c.05-.15.1-.25.15-.3.06-.05.16-.08.3-.08h.71c.12 0 .19.06.19.19 0 .04-.01.08-.02.12s-.02.11-.05.19l-1.83 5.87c-.05.15-.1.25-.16.3-.06.05-.16.08-.29.08h-.65c-.14 0-.24-.02-.3-.08s-.11-.15-.14-.3l-1.18-4.9-1.17 4.89c-.04.15-.08.25-.14.3-.06.05-.17.08-.3.08h-.65zm9.75.21c-.39 0-.79-.05-1.17-.14s-.68-.19-.87-.3a.64.64 0 01-.24-.21.537.537 0 01-.05-.21v-.39c0-.16.06-.24.17-.24.05 0 .09.01.14.02.05.02.11.05.19.08.26.11.54.2.84.27.3.06.6.09.9.09.48 0 .85-.08 1.11-.25.26-.17.39-.41.39-.72 0-.21-.07-.39-.2-.53-.14-.14-.39-.27-.77-.39l-1.1-.34c-.55-.17-.96-.43-1.21-.77-.25-.33-.38-.71-.38-1.1 0-.32.07-.6.2-.84s.32-.46.55-.62c.23-.17.49-.3.79-.39s.62-.13.96-.13c.17 0 .34.01.51.03.17.02.33.05.49.08.15.04.3.08.43.12.14.05.24.09.32.14.11.06.18.12.23.19.05.06.07.14.07.25v.36c0 .16-.06.24-.17.24-.06 0-.16-.03-.29-.09-.43-.2-.92-.3-1.46-.3-.43 0-.77.07-1.01.21-.24.14-.36.36-.36.68 0 .21.08.39.23.54.15.14.43.29.84.42l1.08.34c.55.17.94.42 1.18.73s.35.67.35 1.06c0 .33-.07.62-.2.88-.14.26-.32.49-.55.67-.24.19-.52.33-.84.43-.35.08-.71.13-1.1.13z"/><path class="st2" d="M31.53 36.48c-2.5 1.84-6.13 2.82-9.25 2.82-4.37 0-8.31-1.62-11.29-4.3-.24-.21-.02-.5.26-.33 3.22 1.87 7.19 3 11.3 3 2.77 0 5.82-.58 8.62-1.76.41-.2.77.26.36.57z"/><path class="st2" d="M32.57 35.29c-.32-.41-2.11-.2-2.92-.1-.24.03-.28-.18-.06-.34 1.43-1 3.77-.71 4.05-.38.27.34-.08 2.69-1.41 3.81-.2.17-.4.08-.31-.14.29-.75.97-2.44.65-2.85z"/><path class="st1" d="M50.79 33.97c-.3-.15-.6-.31-.91-.44-.29-.12-.6-.23-.91-.33-1.36-.46-2.81-.72-4.32-.73-3.23 0-6.2 1.13-8.52 3.03a13.49 13.49 0 00-4.25 6.12 13.423 13.423 0 002.36 12.9c.21.25.43.49.66.73.23.24.47.47.72.69 2.38 2.15 5.53 3.48 9 3.48 7.44.01 13.49-6.01 13.5-13.46.01-5.22-2.97-9.75-7.33-11.99z"/><g><path class="st3" d="M43.27 54.68c-4.81 0-8.73-3.92-8.73-8.73 0-4.81 3.92-8.73 8.73-8.73.55 0 1 .45 1 1s-.45 1-1 1c-3.71 0-6.73 3.02-6.73 6.73s3.02 6.73 6.73 6.73S50 49.67 50 45.95c0-.55.45-1 1-1s1 .45 1 1c0 4.82-3.91 8.73-8.73 8.73z"/><path class="st3" d="M53.74 47.95c-.26 0-.51-.1-.71-.29L51 45.63l-2.03 2.03a.996.996 0 11-1.41-1.41l2.74-2.73a.996.996 0 011.41 0l2.74 2.73a.996.996 0 01-.71 1.7z"/></g></svg>