<svg xmlns="http://www.w3.org/2000/svg" width="70" height="66" viewBox="0 0 70 66"><g fill="none" fill-rule="evenodd"><path fill="#B5D0E7" fill-rule="nonzero" d="M23.112 56.878C10.607 56.878.427 46.698.427 34.193c0-12.505 10.18-22.685 22.685-22.685 12.505 0 22.685 10.18 22.685 22.685 0 12.505-10.18 22.685-22.685 22.685zm0-42.985c-11.2 0-20.312 9.112-20.312 20.312 0 11.2 9.112 20.312 20.312 20.312 11.2 0 20.312-9.112 20.312-20.312-.012-11.212-9.112-20.312-20.312-20.312z"/><path fill="#ED2E26" fill-rule="nonzero" d="M30.433 9.23a1.192 1.192 0 01-.83-2.04 24.522 24.522 0 011.886-1.637 1.186 1.186 0 011.66.201 1.186 1.186 0 01-.201 1.661c-.581.451-1.151.95-1.697 1.471a1.113 1.113 0 01-.818.345zm31.18 32.153a1.182 1.182 0 01-.831-2.029A21.416 21.416 0 0063.7 35.82a1.184 1.184 0 011.65-.333c.545.356.7 1.092.332 1.65a23.928 23.928 0 01-3.251 3.927c-.225.201-.522.32-.819.32zm5.29-8.044c-.142 0-.284-.024-.426-.083a1.194 1.194 0 01-.688-1.53 21.066 21.066 0 001.162-4.438c.095-.652.7-1.091 1.353-.996.652.094 1.091.7.996 1.352a23.626 23.626 0 01-1.293 4.936 1.175 1.175 0 01-1.103.759zm1.425-9.515a1.19 1.19 0 01-1.187-1.104 21.371 21.371 0 00-.795-4.508 1.189 1.189 0 011.71-1.373c.276.15.48.406.568.708a23.93 23.93 0 01.89 5.02 1.175 1.175 0 01-1.103 1.257h-.083zm-2.682-9.243c-.415 0-.83-.225-1.044-.617a21.14 21.14 0 00-2.622-3.76A1.184 1.184 0 0162.1 8.53a1.184 1.184 0 011.673.118 23.746 23.746 0 012.918 4.176 1.183 1.183 0 01-1.044 1.756zm-6.335-7.249c-.25 0-.499-.071-.7-.237A20.988 20.988 0 0054.66 4.78a1.186 1.186 0 01.973-2.159c1.554.7 3.037 1.566 4.401 2.575.522.391.641 1.139.25 1.66-.25.31-.617.475-.973.475zM36.329 5.125c-.439 0-.866-.249-1.068-.676a1.175 1.175 0 01.558-1.578 23.108 23.108 0 014.805-1.685 1.187 1.187 0 01.534 2.314 20.516 20.516 0 00-4.319 1.519 1.229 1.229 0 01-.51.106zm14.202-1.72c-.083 0-.154-.012-.237-.024a21.62 21.62 0 00-4.295-.439h-.273c-.676-.011-1.187-.522-1.198-1.174A1.183 1.183 0 0145.702.569H46c1.613 0 3.215.167 4.77.487.64.13 1.055.76.925 1.4-.119.558-.617.95-1.163.95zm5.137 42.13c-.439 0-.866-.249-1.068-.676a1.175 1.175 0 01.558-1.578c.676-.32 1.34-.688 1.97-1.08a1.19 1.19 0 011.257 2.018c-.7.439-1.447.842-2.195 1.198a1.34 1.34 0 01-.522.119z"/><path fill="#B5D0E7" d="M22.204 40.512l5.876-1.023.055-.012-3.022-3.536a505.032 505.032 0 01-3.022-3.552c0-.018 3.12-8.47 3.138-8.5.006-.01 2.13 3.596 5.148 8.742l5.177 8.827.04.067h-9.605l-9.605-.002 5.82-1.011zm-11.526-1.079c0-.005 1.424-2.436 3.164-5.403l3.165-5.395 3.688-3.044c2.028-1.674 3.693-3.046 3.7-3.049a.631.631 0 01-.06.147l-4.004 8.449-3.933 8.297-2.86.004c-1.573.002-2.86 0-2.86-.006z"/><path fill="#ED2E26" d="M56.7 35.558c-.356-.178-.712-.368-1.08-.522a14.468 14.468 0 00-1.08-.392 16.298 16.298 0 00-5.125-.866c-3.832 0-7.356 1.34-10.108 3.595a16.005 16.005 0 00-5.043 7.26 15.926 15.926 0 002.8 15.306c.25.297.51.581.783.866.273.285.558.558.855.819 2.823 2.55 6.56 4.129 10.678 4.129 8.827.011 16.005-7.131 16.017-15.97.011-6.193-3.524-11.568-8.697-14.225z"/><g fill="#FEFEFE"><path d="M47.778 60.13c-5.706 0-10.357-4.652-10.357-10.358 0-5.707 4.65-10.358 10.357-10.358a1.19 1.19 0 011.187 1.186 1.19 1.19 0 01-1.187 1.187c-4.401 0-7.984 3.583-7.984 7.985 0 4.401 3.583 7.984 7.984 7.984 4.402 0 7.985-3.57 7.985-7.984a1.19 1.19 0 011.186-1.187 1.19 1.19 0 011.187 1.187c0 5.718-4.64 10.357-10.358 10.357z"/><path d="M60.2 52.145c-.308 0-.605-.12-.842-.345l-2.409-2.408-2.408 2.408a1.183 1.183 0 11-1.673-1.672l3.251-3.24a1.182 1.182 0 011.673 0l3.25 3.24a1.182 1.182 0 01-.842 2.017z"/></g></g></svg>