<svg xmlns="http://www.w3.org/2000/svg" width="57" height="78" viewBox="0 0 57 78"><g fill="none" fill-rule="evenodd"><path fill="#FEFEFE" d="M21.742 42.148l11.606 3.13L24.9 76.615l-4.551-6.208-7.056 3.08z"/><path stroke="#B5D0E7" stroke-linecap="round" stroke-linejoin="round" stroke-width="2.065" d="M21.742 42.148l11.606 3.13L24.9 76.615l-4.551-6.208-7.056 3.08z"/><path fill="#FEFEFE" d="M34.997 42.148l-11.605 3.13 8.446 31.337 4.553-6.208 7.055 3.08z"/><path stroke="#B5D0E7" stroke-linecap="round" stroke-linejoin="round" stroke-width="2.065" d="M34.997 42.148l-11.605 3.13 8.446 31.337 4.553-6.208 7.055 3.08z"/><path fill="#FEFEFE" d="M1.04 28.591c0-3.432 4.567-5.93 5.805-8.914 1.282-3.093-.13-8.078 2.199-10.411 2.332-2.331 7.317-.917 10.41-2.198C22.44 5.83 24.94 1.263 28.37 1.263c3.432 0 5.93 4.567 8.915 5.805 3.095 1.282 8.08-.133 10.411 2.199 2.331 2.332.916 7.317 2.2 10.41 1.236 2.984 5.806 5.482 5.806 8.915 0 3.433-4.57 5.93-5.806 8.916-1.284 3.092.131 8.077-2.201 10.41-2.33 2.331-7.315.916-10.41 2.198-2.984 1.238-5.483 5.806-8.915 5.806-3.43 0-5.93-4.568-8.914-5.806-3.094-1.282-8.08.133-10.411-2.199-2.33-2.332-.917-7.317-2.2-10.41-1.237-2.984-5.805-5.482-5.805-8.915"/><path stroke="#B5D0E7" stroke-linecap="round" stroke-linejoin="round" stroke-width="2.065" d="M1.04 28.591c0-3.432 4.567-5.93 5.805-8.914 1.282-3.093-.13-8.078 2.199-10.411 2.332-2.331 7.317-.917 10.41-2.198C22.44 5.83 24.94 1.263 28.37 1.263c3.432 0 5.93 4.567 8.915 5.805 3.095 1.282 8.08-.133 10.411 2.199 2.331 2.332.916 7.317 2.2 10.41 1.236 2.984 5.806 5.482 5.806 8.915 0 3.433-4.57 5.93-5.806 8.916-1.284 3.092.131 8.077-2.201 10.41-2.33 2.331-7.315.916-10.41 2.198-2.984 1.238-5.483 5.806-8.915 5.806-3.43 0-5.93-4.568-8.914-5.806-3.094-1.282-8.08.133-10.411-2.199-2.33-2.332-.917-7.317-2.2-10.41-1.237-2.984-5.805-5.482-5.805-8.915z"/><path fill="#EB3027" d="M16.728 13.775H40.54a2.555 2.555 0 012.556 2.555v23.815a2.555 2.555 0 01-2.556 2.556H16.728a2.556 2.556 0 01-2.556-2.556V16.33a2.556 2.556 0 012.556-2.555"/><path fill="#FFF" d="M26.091 33.003h2.786c2.206 0 2.833-.72 2.833-2.044 0-1.555-.975-1.997-2.88-1.997h-2.739v4.041zm0-10.588v3.762h2.437c1.672 0 2.462-.488 2.462-1.928 0-1.323-.649-1.834-2.276-1.834h-2.623zm-3.389-2.832h7.057c3.042 0 4.807 1.81 4.807 4.248 0 1.973-1.207 3.066-2.415 3.506 1.393.209 3.134 1.138 3.134 3.646 0 2.786-2.205 4.852-5.224 4.852h-7.359V19.583z"/></g></svg>