<svg width="63" height="61" xmlns="http://www.w3.org/2000/svg"><g fill="none" fill-rule="evenodd"><g stroke-linecap="round" stroke-width="2" stroke="#B5D0E7" stroke-linejoin="round"><path d="M9.07 52.99h10.01l13.17 6.195 29.577-15.047L59.6 39.81l-23.238 7.78"/><path d="M9 36.982h16.29l12.544 12.544-3.916 3.914-8.43-8.428"/></g><path stroke="#B5D0E7" stroke-width="2" stroke-linecap="round" stroke-linejoin="round" d="M1 56.12h8v-22H1z"/><path d="M41.997 15.636c-2.41-2.41-6.32-2.41-8.73 0l-1.94 1.94-1.94-1.94c-2.41-2.41-6.32-2.41-8.73 0-2.427 2.427-2.408 6.37.043 8.773l10.626 10.42v-.002h.002l10.626-10.42c2.45-2.403 2.47-6.345.043-8.772" fill="#ED2E26"/><path d="M10.327 25.828h-5M12.492 16.848l-4.455-2.27M18.285 9.85l-3.08-3.94M26.59 5.87L25.46 1M36.063 5.87L37.193 1M44.37 9.85l3.08-3.94M50.163 16.848l4.455-2.27M52.327 25.828h5" stroke="#B5D0E7" stroke-width="2" stroke-linecap="round" stroke-linejoin="round"/></g></svg>