<svg xmlns="http://www.w3.org/2000/svg" width="34" height="61" viewBox="0 0 34 61"><g fill="none" fill-rule="evenodd"><path fill="#ED2E26" d="M12.26 0c6.763.01 12.236 5.499 12.226 12.26-.01 6.762-5.498 12.236-12.26 12.226C5.464 24.476-.01 18.987 0 12.225.01 5.464 5.498-.01 12.26 0"/><path fill="#FEFEFE" d="M8.94 36.988V8.953h6.586v15.538h17.058v22.968l-3.716 6.417v5.858H11.642V53.37l-8.275-8.276V27.193h5.235"/><path stroke="#B5D0E7" stroke-width="2" d="M8.94 36.988V8.953h6.586v15.538h17.058v22.968l-3.716 6.417v5.858H11.642V53.37l-8.275-8.276V27.193h5.235" stroke-linecap="round" stroke-linejoin="round"/></g></svg>