
<svg width="74px" height="74px" viewBox="0 0 74 74" version="1.1" xmlns="http://www.w3.org/2000/svg" xmlns:xlink="http://www.w3.org/1999/xlink">
    <!-- Generator: Sketch 44.1 (41455) - http://www.bohemiancoding.com/sketch -->
    <desc>Created with Sketch.</desc>
    <defs></defs>
    <g id="12.1-13-App-detail" stroke="none" stroke-width="1" fill="none" fill-rule="evenodd">
        <g id="12.5-App-Detail---Threat-Protection" transform="translate(-184.000000, -1764.000000)">
            <g id="---Features-overview" transform="translate(185.000000, 1290.000000)">
                <g id="::-03" transform="translate(0.000000, 475.000000)">
                    <g id="icon">
                        <path d="M36,11.9996129 L36,59.1979355" id="Stroke-1" stroke="#B5CFE5" stroke-width="2" stroke-linecap="round" stroke-linejoin="round"></path>
                        <path d="M59.6000903,35.5991226 L12.3994452,35.5991226" id="Stroke-2" stroke="#B5CFE5" stroke-width="2" stroke-linecap="round" stroke-linejoin="round"></path>
                        <path d="M52.2614323,19.0875484 L18.8894323,52.4595484" id="Stroke-3" stroke="#B5CFE5" stroke-width="2" stroke-linecap="round" stroke-linejoin="round"></path>
                        <path d="M18.8890839,19.0875484 L52.2610839,52.4595484" id="Stroke-4" stroke="#B5CFE5" stroke-width="2" stroke-linecap="round" stroke-linejoin="round"></path>
                        <g id="Group-27">
                            <path d="M27.7484516,25.4207613 L44.2515484,25.4207613 C45.5382581,25.4207613 46.5799355,26.4624387 46.5799355,27.7479871 L46.5799355,44.2510839 C46.5799355,45.5389548 45.5382581,46.579471 44.2515484,46.579471 L27.7484516,46.579471 C26.4617419,46.579471 25.4200645,45.5389548 25.4200645,44.2510839 L25.4200645,27.7479871 C25.4200645,26.4624387 26.4617419,25.4207613 27.7484516,25.4207613" id="Fill-5" fill="#FFFFFF"></path>
                            <path d="M27.8403097,25.2002323 L44.1599226,25.2002323 C45.6196645,25.2002323 46.8006968,26.3812645 46.8006968,27.8398452 L46.8006968,44.1594581 C46.8006968,45.6192 45.6196645,46.8013935 44.1599226,46.8013935 L27.8403097,46.8013935 C26.3805677,46.8013935 25.1995355,45.6192 25.1995355,44.1594581 L25.1995355,27.8398452 C25.1995355,26.3812645 26.3805677,25.2002323 27.8403097,25.2002323 Z" id="Stroke-7" stroke="#EC3027" stroke-width="2"></path>
                            <path d="M33.3076645,30.6664258 L38.6925677,30.6664258 C40.1511484,30.6664258 41.3333419,31.8486194 41.3333419,33.3060387 L41.3333419,38.6921032 C41.3333419,40.1506839 40.1511484,41.3340387 38.6925677,41.3340387 L33.3076645,41.3340387 C31.8490839,41.3340387 30.6668903,40.1506839 30.6668903,38.6921032 L30.6668903,33.3060387 C30.6668903,31.8486194 31.8490839,30.6664258 33.3076645,30.6664258" id="Fill-9" fill="#EC3027"></path>
                            <path d="M36,0 C39.3143226,0 41.9992258,2.68606452 41.9992258,6.0003871 C41.9992258,9.31354839 39.3143226,11.9996129 36,11.9996129 C32.6856774,11.9996129 30.0007742,9.31354839 30.0007742,6.0003871 C30.0007742,2.68606452 32.6856774,0 36,0 Z" id="Stroke-11" stroke="#B5CFE5" stroke-width="2"></path>
                            <path d="M36,59.9992258 C39.3143226,59.9992258 41.9992258,62.6864516 41.9992258,66.0007742 C41.9992258,69.3139355 39.3143226,72 36,72 C32.6856774,72 30.0007742,69.3139355 30.0007742,66.0007742 C30.0007742,62.6864516 32.6856774,59.9992258 36,59.9992258 Z" id="Stroke-13" stroke="#B5CFE5" stroke-width="2"></path>
                            <path d="M66.0007742,29.9996129 C69.3150968,29.9996129 72,32.6868387 72,36 C72,39.3143226 69.3150968,41.9992258 66.0007742,41.9992258 C62.6864516,41.9992258 59.9992258,39.3143226 59.9992258,36 C59.9992258,32.6868387 62.6864516,29.9996129 66.0007742,29.9996129 Z" id="Stroke-15" stroke="#B5CFE5" stroke-width="2"></path>
                            <path d="M5.99922581,29.9996129 C9.31354839,29.9996129 12.0007742,32.6868387 12.0007742,36 C12.0007742,39.3143226 9.31354839,41.9992258 5.99922581,41.9992258 C2.68490323,41.9992258 0,39.3143226 0,36 C0,32.6868387 2.68490323,29.9996129 5.99922581,29.9996129 Z" id="Stroke-17" stroke="#B5CFE5" stroke-width="2"></path>
                            <path d="M61.4553677,10.5440516 C63.7988516,12.8875355 63.7988516,16.6872774 61.4553677,19.0296 C59.1130452,21.3730839 55.3144645,21.3730839 52.9698194,19.0296 C50.6274968,16.6872774 50.6274968,12.8875355 52.9698194,10.5440516 C55.3144645,8.20056774 59.1130452,8.20056774 61.4553677,10.5440516 Z" id="Stroke-19" stroke="#B5CFE5" stroke-width="2"></path>
                            <path d="M19.0297161,52.9702839 C21.3732,55.314929 21.3732,59.1135097 19.0297161,61.4558323 C16.685071,63.7981548 12.8864903,63.7981548 10.5441677,61.4558323 C8.20184516,59.1135097 8.20184516,55.314929 10.5441677,52.9702839 C12.8864903,50.6268 16.685071,50.6268 19.0297161,52.9702839 Z" id="Stroke-21" stroke="#B5CFE5" stroke-width="2"></path>
                            <path d="M61.4553677,52.9702839 C63.7988516,55.314929 63.7988516,59.1135097 61.4553677,61.4558323 C59.1130452,63.7981548 55.3144645,63.7981548 52.9698194,61.4558323 C50.6274968,59.1135097 50.6274968,55.314929 52.9698194,52.9702839 C55.3144645,50.6268 59.1130452,50.6268 61.4553677,52.9702839 Z" id="Stroke-23" stroke="#B5CFE5" stroke-width="2"></path>
                            <path d="M19.0297161,10.5440516 C21.3732,12.8875355 21.3732,16.6872774 19.0297161,19.0296 C16.685071,21.3730839 12.8864903,21.3730839 10.5441677,19.0296 C8.20184516,16.6872774 8.20184516,12.8875355 10.5441677,10.5440516 C12.8864903,8.20056774 16.685071,8.20056774 19.0297161,10.5440516 Z" id="Stroke-25" stroke="#B5CFE5" stroke-width="2"></path>
                        </g>
                    </g>
                </g>
            </g>
        </g>
    </g>
</svg>