<svg xmlns="http://www.w3.org/2000/svg" xmlns:xlink="http://www.w3.org/1999/xlink" width="63" height="74" viewBox="0 0 63 74"><defs><path id="a" d="M24.586 0v24.745H0V0z"/><path id="c" d="M5.288 18.248l-.36-3.888.12-.12c3.12-.072 4.776-1.368 4.776-3.384v-.048c0-1.728-1.344-3.12-3.504-3.12-1.776 0-3.144.84-4.368 2.256L.728 8.768C2.096 7.112 3.8 5.984 6.368 5.984c3.24 0 5.376 2.016 5.376 4.752v.048c0 3-2.256 4.488-4.992 4.872l-.24 2.592H5.288zM4.784 23v-2.52h2.208V23H4.784z"/></defs><g fill="none" fill-rule="evenodd"><path stroke="#B5CFE5" stroke-linecap="round" stroke-linejoin="round" stroke-width="2" d="M10.368 67.061V58H2"/><path stroke="#B5CFE5" stroke-linecap="round" stroke-linejoin="round" stroke-width="2" d="M8.937 67.813L1 57.872V1h50.402v66.813z"/><g transform="translate(38.264 49.097)"><mask id="b" fill="#fff"><use xlink:href="#a"/></mask><path fill="#EB3027" fill-rule="nonzero" d="M12.291 0c6.791 0 12.295 5.54 12.295 12.371 0 6.835-5.504 12.375-12.295 12.375C5.501 24.746 0 19.206 0 12.37 0 5.54 5.5 0 12.291 0" mask="url(#b)"/></g><g transform="translate(44 47)"><use fill="#000" xlink:href="#c"/><use fill="#FFF" xlink:href="#c"/></g><path stroke="#B5CFE5" stroke-linecap="round" stroke-linejoin="round" stroke-width="2" d="M8 22h33.727M8 28h33.727M8 35h33.727M8 41h33.727M8 47h33.727M8 53h24.709M8 2.405v14.219l4.308-6.187 4.048 6.187V2"/></g></svg>