<svg xmlns="http://www.w3.org/2000/svg" width="57" height="78" viewBox="0 0 57 78">
  <g fill="none" fill-rule="evenodd" transform="translate(1)">
    <polygon fill="#FEFEFE" points="20.742 42.148 32.348 45.278 23.9 76.615 19.349 70.407 12.293 73.487"/>
    <polygon stroke="#B5D0E7" stroke-linecap="round" stroke-linejoin="round" stroke-width="2.065" points="20.742 42.148 32.348 45.278 23.9 76.615 19.349 70.407 12.293 73.487"/>
    <polygon fill="#FEFEFE" points="33.997 42.148 22.392 45.278 30.838 76.615 35.391 70.407 42.446 73.487"/>
    <g transform="translate(0 .877)">
      <polygon stroke="#B5D0E7" stroke-linecap="round" stroke-linejoin="round" stroke-width="2.065" points="33.997 41.271 22.392 44.401 30.838 75.738 35.391 69.53 42.446 72.61"/>
      <path fill="#FEFEFE" d="M0.0393555556,27.7145 C0.0393555556,24.2825 4.6068,21.7842778 5.84491111,18.7996111 C7.12702222,15.7073889 5.71413333,10.7219444 8.04368889,8.38872222 C10.3756889,6.05794444 15.3611333,7.47205556 18.4545778,6.19116667 C21.4404667,4.95305556 23.9386889,0.385611111 27.3694667,0.385611111 C30.8014667,0.385611111 33.2996889,4.95305556 36.2843556,6.19116667 C39.3790222,7.47327778 44.3644667,6.05794444 46.6952444,8.38994444 C49.0260222,10.7219444 47.6106889,15.7073889 48.8952444,18.7996111 C50.1309111,21.7842778 54.7008,24.2825 54.7008,27.7145 C54.7008,31.1477222 50.1309111,33.6459444 48.8952444,36.6306111 C47.6106889,39.7228333 49.0260222,44.7082778 46.6940222,47.0415 C44.3644667,49.3722778 39.3790222,47.9569444 36.2843556,49.2390556 C33.2996889,50.4771667 30.8014667,55.0446111 27.3694667,55.0446111 C23.9386889,55.0446111 21.4392444,50.4771667 18.4545778,49.2390556 C15.3611333,47.9569444 10.3756889,49.3722778 8.04368889,47.0402778 C5.71413333,44.7082778 7.12702222,39.7228333 5.84491111,36.6306111 C4.6068,33.6459444 0.0393555556,31.1477222 0.0393555556,27.7145"/>
      <path stroke="#B5D0E7" stroke-linecap="round" stroke-linejoin="round" stroke-width="2.065" d="M0.0393555556,27.7145 C0.0393555556,24.2825 4.6068,21.7842778 5.84491111,18.7996111 C7.12702222,15.7073889 5.71413333,10.7219444 8.04368889,8.38872222 C10.3756889,6.05794444 15.3611333,7.47205556 18.4545778,6.19116667 C21.4404667,4.95305556 23.9386889,0.385611111 27.3694667,0.385611111 C30.8014667,0.385611111 33.2996889,4.95305556 36.2843556,6.19116667 C39.3790222,7.47327778 44.3644667,6.05794444 46.6952444,8.38994444 C49.0260222,10.7219444 47.6106889,15.7073889 48.8952444,18.7996111 C50.1309111,21.7842778 54.7008,24.2825 54.7008,27.7145 C54.7008,31.1477222 50.1309111,33.6459444 48.8952444,36.6306111 C47.6106889,39.7228333 49.0260222,44.7082778 46.6940222,47.0415 C44.3644667,49.3722778 39.3790222,47.9569444 36.2843556,49.2390556 C33.2996889,50.4771667 30.8014667,55.0446111 27.3694667,55.0446111 C23.9386889,55.0446111 21.4392444,50.4771667 18.4545778,49.2390556 C15.3611333,47.9569444 10.3756889,49.3722778 8.04368889,47.0402778 C5.71413333,44.7082778 7.12702222,39.7228333 5.84491111,36.6306111 C4.6068,33.6459444 0.0393555556,31.1477222 0.0393555556,27.7145 Z"/>
      <path fill="#ED2E26" d="M27.5811556,9.13892222 C37.7292667,9.22203333 45.8888222,17.5160333 45.8069333,27.6641444 C45.7238222,37.8122556 37.4298222,45.9730333 27.2817111,45.8887 C17.1336,45.8068111 8.97404444,37.5128111 9.05715556,27.3647 C9.13904444,17.2165889 17.4330444,9.05703333 27.5811556,9.13892222"/>
      <path fill="#FFF" d="M27.4319222,19.4717111 C34.6882556,19.4717111 37.7963667,27.5139333 37.7963667,27.5139333 C37.7963667,27.5139333 35.5218111,35.5573778 27.4319222,35.5573778 C19.3420333,35.5573778 17.0662556,27.5139333 17.0662556,27.5139333 C17.0662556,27.5139333 20.1755889,19.4717111 27.4319222,19.4717111 M27.4319222,17.6383778 C19.0157,17.6383778 15.5018111,26.4762667 15.3563667,26.8539333 C15.2133667,27.2242667 15.1950333,27.6312667 15.3025889,28.0138222 C16.2204778,31.2563778 19.9360333,37.3907111 27.4319222,37.3907111 C34.9278111,37.3907111 38.6433667,31.2563778 39.5612556,28.0138222 C39.6688111,27.6312667 39.6504778,27.2242667 39.5074778,26.8539333 C39.3620333,26.4762667 35.8481444,17.6383778 27.4319222,17.6383778"/>
      <path stroke="#FFF" stroke-linecap="round" stroke-linejoin="round" stroke-width="1.5" d="M22.9345111,27.5140556 C22.9345111,25.0305 24.9475111,23.0162778 27.4322889,23.0162778 C29.9158444,23.0162778 31.9288444,25.0305 31.9288444,27.5140556 C31.9288444,29.9976111 29.9158444,32.0118333 27.4322889,32.0118333 C24.9475111,32.0118333 22.9345111,29.9976111 22.9345111,27.5140556 Z"/>
    </g>
  </g>
</svg>
