<svg xmlns="http://www.w3.org/2000/svg" width="57" height="78" viewBox="0 0 57 78">
  <g fill="none" fill-rule="evenodd" transform="translate(1)">
    <polygon fill="#FEFEFE" points="20.742 42.148 32.348 45.278 23.9 76.615 19.349 70.407 12.293 73.487"/>
    <polygon stroke="#B5D0E7" stroke-linecap="round" stroke-linejoin="round" stroke-width="2.065" points="20.742 42.148 32.348 45.278 23.9 76.615 19.349 70.407 12.293 73.487"/>
    <polygon fill="#FEFEFE" points="33.997 42.148 22.392 45.278 30.838 76.615 35.391 70.407 42.446 73.487"/>
    <g transform="translate(0 .877)">
      <polygon stroke="#B5D0E7" stroke-linecap="round" stroke-linejoin="round" stroke-width="2.065" points="33.997 41.271 22.392 44.401 30.838 75.738 35.391 69.53 42.446 72.61"/>
      <path fill="#FEFEFE" d="M0.0393555556,27.7145 C0.0393555556,24.2825 4.6068,21.7842778 5.84491111,18.7996111 C7.12702222,15.7073889 5.71413333,10.7219444 8.04368889,8.38872222 C10.3756889,6.05794444 15.3611333,7.47205556 18.4545778,6.19116667 C21.4404667,4.95305556 23.9386889,0.385611111 27.3694667,0.385611111 C30.8014667,0.385611111 33.2996889,4.95305556 36.2843556,6.19116667 C39.3790222,7.47327778 44.3644667,6.05794444 46.6952444,8.38994444 C49.0260222,10.7219444 47.6106889,15.7073889 48.8952444,18.7996111 C50.1309111,21.7842778 54.7008,24.2825 54.7008,27.7145 C54.7008,31.1477222 50.1309111,33.6459444 48.8952444,36.6306111 C47.6106889,39.7228333 49.0260222,44.7082778 46.6940222,47.0415 C44.3644667,49.3722778 39.3790222,47.9569444 36.2843556,49.2390556 C33.2996889,50.4771667 30.8014667,55.0446111 27.3694667,55.0446111 C23.9386889,55.0446111 21.4392444,50.4771667 18.4545778,49.2390556 C15.3611333,47.9569444 10.3756889,49.3722778 8.04368889,47.0402778 C5.71413333,44.7082778 7.12702222,39.7228333 5.84491111,36.6306111 C4.6068,33.6459444 0.0393555556,31.1477222 0.0393555556,27.7145"/>
      <path stroke="#B5D0E7" stroke-linecap="round" stroke-linejoin="round" stroke-width="2.065" d="M0.0393555556,27.7145 C0.0393555556,24.2825 4.6068,21.7842778 5.84491111,18.7996111 C7.12702222,15.7073889 5.71413333,10.7219444 8.04368889,8.38872222 C10.3756889,6.05794444 15.3611333,7.47205556 18.4545778,6.19116667 C21.4404667,4.95305556 23.9386889,0.385611111 27.3694667,0.385611111 C30.8014667,0.385611111 33.2996889,4.95305556 36.2843556,6.19116667 C39.3790222,7.47327778 44.3644667,6.05794444 46.6952444,8.38994444 C49.0260222,10.7219444 47.6106889,15.7073889 48.8952444,18.7996111 C50.1309111,21.7842778 54.7008,24.2825 54.7008,27.7145 C54.7008,31.1477222 50.1309111,33.6459444 48.8952444,36.6306111 C47.6106889,39.7228333 49.0260222,44.7082778 46.6940222,47.0415 C44.3644667,49.3722778 39.3790222,47.9569444 36.2843556,49.2390556 C33.2996889,50.4771667 30.8014667,55.0446111 27.3694667,55.0446111 C23.9386889,55.0446111 21.4392444,50.4771667 18.4545778,49.2390556 C15.3611333,47.9569444 10.3756889,49.3722778 8.04368889,47.0402778 C5.71413333,44.7082778 7.12702222,39.7228333 5.84491111,36.6306111 C4.6068,33.6459444 0.0393555556,31.1477222 0.0393555556,27.7145 Z"/>
      <path fill="#EB3027" d="M15.7276778,12.8975 L39.5414556,12.8975 C40.9543444,12.8975 42.0971222,14.0427222 42.0971222,15.4531667 L42.0971222,39.2681667 C42.0971222,40.6786111 40.9543444,41.8238333 39.5414556,41.8238333 L15.7276778,41.8238333 C14.3160111,41.8238333 13.1720111,40.6786111 13.1720111,39.2681667 L13.1720111,15.4531667 C13.1720111,14.0427222 14.3160111,12.8975 15.7276778,12.8975"/>
      <path fill="#FFF" d="M25.0913667,32.1259889 L27.8768111,32.1259889 C30.0829222,32.1259889 30.7099222,31.4061 30.7099222,30.0824333 C30.7099222,28.5265444 29.7345889,28.0853222 27.8303667,28.0853222 L25.0913667,28.0853222 L25.0913667,32.1259889 Z M25.0913667,21.5378778 L25.0913667,25.2998778 L27.5284778,25.2998778 C29.2004778,25.2998778 29.9900333,24.8122111 29.9900333,23.3724333 C29.9900333,22.0487667 29.3410333,21.5378778 27.7142556,21.5378778 L25.0913667,21.5378778 Z M21.7021444,18.7059889 L28.7592556,18.7059889 C31.8013667,18.7059889 33.5662556,20.5161 33.5662556,22.9544333 C33.5662556,24.9271 32.3587,26.0197667 31.1511444,26.4597667 C32.5444778,26.6687667 34.2849222,27.5976556 34.2849222,30.1056556 C34.2849222,32.8923222 32.0800333,34.9578778 29.0611444,34.9578778 L21.7021444,34.9578778 L21.7021444,18.7059889 Z"/>
    </g>
  </g>
</svg>
