<svg height="78" viewBox="0 0 57 78" width="57" xmlns="http://www.w3.org/2000/svg"><g fill="none" fill-rule="evenodd" transform="translate(1)"><path d="m20.742 42.148 11.607 3.13-8.448 31.337-4.552-6.208-7.056 3.08z" fill="#fefefe"/><path d="m20.742 42.148 11.607 3.13-8.448 31.337-4.552-6.208-7.056 3.08z" stroke="#b5d0e7" stroke-linecap="round" stroke-linejoin="round" stroke-width="2.065"/><path d="m33.997 42.148-11.606 3.13 8.448 31.337 4.551-6.208 7.056 3.08z" fill="#fefefe"/><g transform="translate(0 .877)"><path d="m33.997 41.271-11.606 3.13 8.448 31.337 4.551-6.208 7.056 3.08z" stroke="#b5d0e7" stroke-linecap="round" stroke-linejoin="round" stroke-width="2.065"/><path d="m.03972222 27.7145c0-3.432 4.56744445-5.9302222 5.80555556-8.9148889 1.28211111-3.0922222-.132-8.0776667 2.19877778-10.41088888 2.33200004-2.33077778 7.31744444-.91666666 10.41088884-2.19755555 2.9846667-1.23811111 5.4828889-5.80555556 8.9148889-5.80555556s5.9302223 4.56744445 8.9148889 5.80555556c3.0934445 1.28211111 8.0788889-.13322223 10.4108889 2.19877777 2.3307778 2.33199996.9154445 7.31744446 2.1987778 10.40966666 1.2368889 2.9846667 5.8055555 5.4828889 5.8055555 8.9148889 0 3.4332222-4.5686666 5.9314444-5.8055555 8.9161111-1.2833333 3.0922222.132 8.0776667-2.2 10.4108889-2.3307778 2.3307778-7.3162222.9154444-10.4096667 2.1975556-2.9846666 1.2381111-5.4828889 5.8055555-8.9148889 5.8055555s-5.9314444-4.5674444-8.9148889-5.8055555c-3.0934444-1.2821112-8.0788888.1332222-10.41088884-2.1987778-2.33077778-2.332-.91666667-7.3174445-2.19877778-10.4096667-1.23811111-2.9846667-5.80555556-5.4828889-5.80555556-8.9161111" fill="#fefefe"/><path d="m.03972222 27.7145c0-3.432 4.56744445-5.9302222 5.80555556-8.9148889 1.28211111-3.0922222-.132-8.0776667 2.19877778-10.41088888 2.33200004-2.33077778 7.31744444-.91666666 10.41088884-2.19755555 2.9846667-1.23811111 5.4828889-5.80555556 8.9148889-5.80555556s5.9302223 4.56744445 8.9148889 5.80555556c3.0934445 1.28211111 8.0788889-.13322223 10.4108889 2.19877777 2.3307778 2.33199996.9154445 7.31744446 2.1987778 10.40966666 1.2368889 2.9846667 5.8055555 5.4828889 5.8055555 8.9148889 0 3.4332222-4.5686666 5.9314444-5.8055555 8.9161111-1.2833333 3.0922222.132 8.0776667-2.2 10.4108889-2.3307778 2.3307778-7.3162222.9154444-10.4096667 2.1975556-2.9846666 1.2381111-5.4828889 5.8055555-8.9148889 5.8055555s-5.9314444-4.5674444-8.9148889-5.8055555c-3.0934444-1.2821112-8.0788888.1332222-10.41088884-2.1987778-2.33077778-2.332-.91666667-7.3174445-2.19877778-10.4096667-1.23811111-2.9846667-5.80555556-5.4828889-5.80555556-8.9161111z" stroke="#b5d0e7" stroke-linecap="round" stroke-linejoin="round" stroke-width="2.065"/><path d="m28.9708222 8.40008889c-.9912222-.572-2.2122222-.572-3.2022222 0l-13.9088889 8.03000001c-.9912222.572-1.6011111 1.6292222-1.6011111 2.7744444v16.0587778c0 1.1452222.6098889 2.2024445 1.6011111 2.7744445l13.9088889 8.03c.99.572 2.211.572 3.2022222 0l13.9088889-8.03c.99-.572 1.6011111-1.6292223 1.6011111-2.7744445v-16.0587778c0-1.1452222-.6111111-2.2024444-1.6011111-2.7744444z" fill="#ed2e26"/><path d="m24.9866222 36.5338111c-.4326666 0-.8482222-.1625555-1.1672222-.4571111l-6.974-6.4545556c-.6954444-.6441111-.7394444-1.7318888-.0941111-2.4285555s1.7331111-.7394445 2.4285555-.0941111l5.5892223 5.1736666 10.3143333-13.4603333c.5781111-.7528889 1.6561111-.8922222 2.409-.319.7541111.5781111.8971111 1.6573333.319 2.4102222l-11.4607778 14.9563334c-.2945555.3837777-.737.627-1.2185555.6673333-.0488889.0036667-.0977778.0061111-.1454445.0061111" fill="#fff"/></g></g></svg>