<svg xmlns="http://www.w3.org/2000/svg" width="57" height="78" viewBox="0 0 57 78">
  <g fill="none" fill-rule="evenodd" transform="translate(1)">
    <polygon fill="#FEFEFE" points="20.742 42.148 32.348 45.278 23.9 76.615 19.349 70.407 12.293 73.487"/>
    <polygon stroke="#B5D0E7" stroke-linecap="round" stroke-linejoin="round" stroke-width="2.065" points="20.742 42.148 32.348 45.278 23.9 76.615 19.349 70.407 12.293 73.487"/>
    <polygon fill="#FEFEFE" points="33.997 42.148 22.392 45.278 30.838 76.615 35.391 70.407 42.446 73.487"/>
    <g transform="translate(0 .877)">
      <polygon stroke="#B5D0E7" stroke-linecap="round" stroke-linejoin="round" stroke-width="2.065" points="33.997 41.271 22.392 44.401 30.838 75.738 35.391 69.53 42.446 72.61"/>
      <path fill="#FEFEFE" d="M0.0393555556,27.7145 C0.0393555556,24.2825 4.6068,21.7842778 5.84491111,18.7996111 C7.12702222,15.7073889 5.71413333,10.7219444 8.04368889,8.38872222 C10.3756889,6.05794444 15.3611333,7.47205556 18.4545778,6.19116667 C21.4404667,4.95305556 23.9386889,0.385611111 27.3694667,0.385611111 C30.8014667,0.385611111 33.2996889,4.95305556 36.2843556,6.19116667 C39.3790222,7.47327778 44.3644667,6.05794444 46.6952444,8.38994444 C49.0260222,10.7219444 47.6106889,15.7073889 48.8952444,18.7996111 C50.1309111,21.7842778 54.7008,24.2825 54.7008,27.7145 C54.7008,31.1477222 50.1309111,33.6459444 48.8952444,36.6306111 C47.6106889,39.7228333 49.0260222,44.7082778 46.6940222,47.0415 C44.3644667,49.3722778 39.3790222,47.9569444 36.2843556,49.2390556 C33.2996889,50.4771667 30.8014667,55.0446111 27.3694667,55.0446111 C23.9386889,55.0446111 21.4392444,50.4771667 18.4545778,49.2390556 C15.3611333,47.9569444 10.3756889,49.3722778 8.04368889,47.0402778 C5.71413333,44.7082778 7.12702222,39.7228333 5.84491111,36.6306111 C4.6068,33.6459444 0.0393555556,31.1477222 0.0393555556,27.7145"/>
      <path stroke="#B5D0E7" stroke-linecap="round" stroke-linejoin="round" stroke-width="2.065" d="M0.0393555556,27.7145 C0.0393555556,24.2825 4.6068,21.7842778 5.84491111,18.7996111 C7.12702222,15.7073889 5.71413333,10.7219444 8.04368889,8.38872222 C10.3756889,6.05794444 15.3611333,7.47205556 18.4545778,6.19116667 C21.4404667,4.95305556 23.9386889,0.385611111 27.3694667,0.385611111 C30.8014667,0.385611111 33.2996889,4.95305556 36.2843556,6.19116667 C39.3790222,7.47327778 44.3644667,6.05794444 46.6952444,8.38994444 C49.0260222,10.7219444 47.6106889,15.7073889 48.8952444,18.7996111 C50.1309111,21.7842778 54.7008,24.2825 54.7008,27.7145 C54.7008,31.1477222 50.1309111,33.6459444 48.8952444,36.6306111 C47.6106889,39.7228333 49.0260222,44.7082778 46.6940222,47.0415 C44.3644667,49.3722778 39.3790222,47.9569444 36.2843556,49.2390556 C33.2996889,50.4771667 30.8014667,55.0446111 27.3694667,55.0446111 C23.9386889,55.0446111 21.4392444,50.4771667 18.4545778,49.2390556 C15.3611333,47.9569444 10.3756889,49.3722778 8.04368889,47.0402778 C5.71413333,44.7082778 7.12702222,39.7228333 5.84491111,36.6306111 C4.6068,33.6459444 0.0393555556,31.1477222 0.0393555556,27.7145 Z"/>
      <path fill="#EB3027" d="M27.7231778,9.3203 C17.6471778,9.3203 9.47784444,17.4896333 9.47784444,27.5668556 C9.47784444,37.6428556 17.6471778,45.8109667 27.7231778,45.8109667 C37.8004,45.8109667 45.9697333,37.6428556 45.9697333,27.5668556 C45.9697333,17.4896333 37.8004,9.3203 27.7231778,9.3203"/>
      <path fill="#FFF" d="M26.7982,17.3757222 L17.2929778,33.8378333 C16.8823111,34.5516111 17.3968667,35.4413889 18.2182,35.4413889 L37.2274222,35.4413889 C38.0512,35.4413889 38.5657556,34.5516111 38.1538667,33.8378333 L28.6498667,17.3757222 C28.2392,16.6631667 27.2100889,16.6631667 26.7982,17.3757222"/>
      <g transform="translate(26.889 22)">
        <path fill="#EB3027" d="M0.834288889,0.922288889 L0.834288889,5.29906667"/>
        <path stroke="#EB3027" stroke-width=".558" d="M0.834288889,0.922288889 L0.834288889,5.29906667"/>
      </g>
      <g transform="translate(26.889 22)">
        <path fill="#EB3027" d="M0.834288889,0.922288889 L0.834288889,5.29906667"/>
        <path stroke="#EB3027" stroke-linecap="round" stroke-width="2" d="M0.834288889,0.922288889 L0.834288889,5.29906667"/>
      </g>
      <path fill="#EB3027" d="M28.9872,31.4826111 C28.9872,32.1792778 28.4213111,32.7451667 27.7234222,32.7451667 C27.0267556,32.7451667 26.4608667,32.1792778 26.4608667,31.4826111 C26.4608667,30.7847222 27.0267556,30.2188333 27.7234222,30.2188333 C28.4213111,30.2188333 28.9872,30.7847222 28.9872,31.4826111"/>
    </g>
  </g>
</svg>
