
<svg width="51px" height="70px" viewBox="0 0 51 70" version="1.1" xmlns="http://www.w3.org/2000/svg" xmlns:xlink="http://www.w3.org/1999/xlink">
    <!-- Generator: Sketch 44.1 (41455) - http://www.bohemiancoding.com/sketch -->
    <desc>Created with Sketch.</desc>
    <defs></defs>
    <g id="12.1-13-App-detail" stroke="none" stroke-width="1" fill="none" fill-rule="evenodd">
        <g id="12.7-App-Detail---Security-Assessment-Questionnaire" transform="translate(-736.000000, -1404.000000)">
            <g id="---Features-overview" transform="translate(185.000000, 1290.000000)">
                <g id="::-02" transform="translate(550.000000, 115.000000)">
                    <g id="icon" transform="translate(2.000000, 0.000000)">
                        <polygon id="Stroke-1" stroke="#B5D0E7" stroke-width="2" points="0 68 48.1453488 68 48.1453488 10.2 0 10.2"></polygon>
                        <path d="M24.6424419,0 C27.474186,0 29.7703488,2.28366667 29.7703488,5.1 C29.7703488,7.91633333 27.474186,10.2 24.6424419,10.2 C21.8106977,10.2 19.5145349,7.91633333 19.5145349,5.1 C19.5145349,2.28366667 21.8106977,0 24.6424419,0 Z" id="Stroke-3" stroke="#B5D0E7" stroke-width="2"></path>
                        <polygon id="Fill-4" fill="#FFFFFF" points="11.5377907 11.3333333 36.6075581 11.3333333 36.6075581 4.53333333 11.5377907 4.53333333"></polygon>
                        <polygon id="Stroke-5" stroke="#B5D0E7" stroke-width="2" points="12.6773256 10.2 35.4680233 10.2 35.4680233 5.66666667 12.6773256 5.66666667"></polygon>
                        <path d="M8.11918605,20.4 L19.5145349,20.4 C20.1446977,20.4 20.6540698,20.9077333 20.6540698,21.5333333 L20.6540698,32.8666667 C20.6540698,33.4922667 20.1446977,34 19.5145349,34 L8.11918605,34 C7.48902326,34 6.97965116,33.4922667 6.97965116,32.8666667 L6.97965116,21.5333333 C6.97965116,20.9077333 7.48902326,20.4 8.11918605,20.4 Z" id="Stroke-6" stroke="#B5D0E7" stroke-width="2"></path>
                        <path d="M8.11918605,42.8176733 L19.5145349,42.8176733 C20.1446977,42.8176733 20.6540698,43.3254067 20.6540698,43.9510067 L20.6540698,55.28434 C20.6540698,55.9110733 20.1446977,56.4176733 19.5145349,56.4176733 L8.11918605,56.4176733 C7.48902326,56.4176733 6.97965116,55.9110733 6.97965116,55.28434 L6.97965116,43.9510067 C6.97965116,43.3254067 7.48902326,42.8176733 8.11918605,42.8176733 Z" id="Stroke-7" stroke="#EC3027" stroke-width="2"></path>
                        <path d="M28.3804581,20.4 L39.775807,20.4 C40.4059698,20.4 40.9153419,20.9077333 40.9153419,21.5333333 L40.9153419,32.8666667 C40.9153419,33.4922667 40.4059698,34 39.775807,34 L28.3804581,34 C27.7514349,34 27.2409233,33.4922667 27.2409233,32.8666667 L27.2409233,21.5333333 C27.2409233,20.9077333 27.7514349,20.4 28.3804581,20.4 Z" id="Stroke-8" stroke="#B5D0E7" stroke-width="2"></path>
                        <path d="M28.3804581,42.8176733 L39.775807,42.8176733 C40.4059698,42.8176733 40.9153419,43.3254067 40.9153419,43.9510067 L40.9153419,55.28434 C40.9153419,55.9110733 40.4059698,56.4176733 39.775807,56.4176733 L28.3804581,56.4176733 C27.7514349,56.4176733 27.2409233,55.9110733 27.2409233,55.28434 L27.2409233,43.9510067 C27.2409233,43.3254067 27.7514349,42.8176733 28.3804581,42.8176733 Z" id="Stroke-9" stroke="#B5D0E7" stroke-width="2"></path>
                        <polyline id="Stroke-10" stroke="#EC3027" stroke-width="2" stroke-linecap="round" stroke-linejoin="round" points="10.6497512 49.75152 12.375007 51.7257867 17.1040767 47.63672"></polyline>
                    </g>
                </g>
            </g>
        </g>
    </g>
</svg>