<svg version="1.1" id="Layer_1" xmlns="http://www.w3.org/2000/svg" x="0" y="0" viewBox="0 0 65 65" xml:space="preserve"><style>.st1{fill:#ed2e26}.st2{fill:#b5d0e7}.st3{fill:#fefefe}</style><text transform="translate(-4.694 78.596)"><tspan x="0" y="0" fill="#fff" font-family="Gotham-Book" font-size="8">2-second visibility</tspan><tspan x="17.4" y="9.6" fill="#fff" font-family="Gotham-Book" font-size="8">across all</tspan><tspan x="6.65" y="19.2" fill="#fff" font-family="Gotham-Book" font-size="8">workloads and</tspan><tspan x="5.46" y="28.8" fill="#fff" font-family="Gotham-Book" font-size="8">PaaS resources</tspan></text><path d="M34.1 42.19a13.49 13.49 0 014.25-6.12c2.32-1.89 5.29-3.03 8.52-3.03 1.51 0 2.96.26 4.32.73-.17-3.81-1.34-7.36-3.25-10.4a21.765 21.765 0 00-6.76-6.78c-3.31-2.09-7.22-3.3-11.41-3.3-4.06 0-7.86 1.14-11.1 3.11a21.558 21.558 0 00-6.87 6.67 21.27 21.27 0 00-3.46 11.66c0 11.82 9.62 21.44 21.44 21.44 2.33 0 4.57-.38 6.67-1.07a13.423 13.423 0 01-3.08-8.59c.01-1.52.27-2.96.73-4.32zm-4.32-4.21a3.91 3.91 0 110-7.82V17.52c3.02 0 5.85.79 8.32 2.15 1.03.57 2 1.24 2.89 2l.5-.5a.9.9 0 011.27 0 .9.9 0 010 1.27l-9.02 9.02-.62.62c.35.59.56 1.26.56 1.99a3.9 3.9 0 01-3.9 3.91z" fill="none"/><path class="st1" d="M49.24 22.07l.75-.75a4.786 4.786 0 000-6.77 4.786 4.786 0 00-6.77 0l-.74.74c2.7 1.78 5 4.09 6.76 6.78zM17.38 15.1l-.54-.54a4.786 4.786 0 00-6.77 0 4.786 4.786 0 000 6.77l.44.44c1.8-2.67 4.15-4.94 6.87-6.67zM29.78 27.5v.5l.25-.25z"/><path class="st1" d="M38.1 19.68c-2.47-1.36-5.3-2.15-8.32-2.15v12.63c.77 0 1.49.23 2.1.62l.59-.59 8.52-8.52a18.07 18.07 0 00-2.89-1.99z"/><path class="st2" d="M33.12 32.08l.62-.62 9.02-9.02a.9.9 0 000-1.27.9.9 0 00-1.27 0l-.5.5-8.52 8.52-.59.59c-.61-.39-1.33-.62-2.1-.62a3.91 3.91 0 103.91 3.91c0-.73-.22-1.4-.57-1.99zm-3.35 4.38a2.48 2.48 0 110-4.96 2.48 2.48 0 010 4.96z"/><path class="st2" d="M36.45 55.1c-2.1.69-4.34 1.07-6.67 1.07-11.82 0-21.44-9.62-21.44-21.44 0-4.3 1.28-8.3 3.46-11.66 1.76-2.7 4.11-4.99 6.87-6.67 3.24-1.97 7.04-3.11 11.1-3.11 4.19 0 8.1 1.21 11.41 3.3 2.73 1.72 5.04 4.04 6.76 6.78 1.91 3.04 3.08 6.59 3.25 10.4.31.1.61.21.91.33.31.13.61.28.91.44a23.19 23.19 0 00-3.76-12.47c-1.76-2.7-4.07-5.01-6.76-6.78a23.044 23.044 0 00-11.81-3.77v-1.9h3.75c.5 0 .9-.4.9-.9s-.4-.9-.9-.9h-3.75V5.97c0-.5-.4-.9-.9-.9s-.9.4-.9.9v1.87h-3.69c-.5 0-.9.4-.9.9s.4.9.9.9h3.69v1.9c-4.22.16-8.15 1.45-11.5 3.58-2.72 1.73-5.07 4-6.87 6.67a23.07 23.07 0 00-3.96 12.96c0 12.81 10.42 23.23 23.23 23.23 2.83 0 5.54-.51 8.05-1.44-.25-.22-.49-.45-.72-.69-.22-.26-.45-.5-.66-.75z"/><path class="st1" d="M49.42 47.11c-.36.57-.75 1.13-1.16 1.67a2.6 2.6 0 001.16-1.67z"/><path class="st1" d="M51.64 42.58a8.7 8.7 0 00-.74-.59c-.25-.18-.51-.34-.79-.48-.93-.5-2.01-.84-3.26-.84-5.32 0-7.6 5.9-7.6 5.9s.93 3.27 3.85 4.94c.28.16.59.31.91.44.31.12.65.22 1 .31.57.13 1.18.22 1.85.22 5.93 0 7.6-5.9 7.6-5.9s-.89-2.28-2.82-4zm-4.79 7.96c-.02 0-.05-.01-.07-.01-.37-.01-.72-.07-1.06-.18a3.54 3.54 0 01-.89-.39 3.958 3.958 0 01-1.95-3.4c0-2.19 1.78-3.97 3.97-3.97.94 0 1.8.34 2.48.9.25.2.48.43.68.69.22.29.4.6.53.94.18.45.28.93.28 1.44 0 2.2-1.78 3.98-3.97 3.98z"/><path class="st1" d="M48.73 44.74c-.48-.49-1.14-.79-1.88-.79-1.45 0-2.63 1.18-2.63 2.63 0 1.07.64 1.99 1.56 2.4.31.14.65.22 1 .22.02 0 .04.01.06.01.52 0 1-.16 1.41-.42.41-.54.8-1.1 1.16-1.67.04-.17.06-.35.06-.54 0-.34-.07-.67-.19-.97a2.39 2.39 0 00-.55-.87z"/><path class="st1" d="M53 34.54c-.3-.15-.6-.31-.91-.44-.29-.12-.6-.23-.91-.33-1.36-.46-2.81-.72-4.32-.73-3.23 0-6.2 1.13-8.52 3.03a13.49 13.49 0 00-4.25 6.12 13.423 13.423 0 002.36 12.9c.21.25.43.49.66.73.23.24.47.47.72.69 2.38 2.15 5.53 3.48 9 3.48 7.44.01 13.49-6.01 13.5-13.46.01-5.22-2.97-9.75-7.33-11.99zm2.75 12.4c-.67 2.38-3.4 6.88-8.9 6.88-1.15 0-2.18-.21-3.1-.54a8.883 8.883 0 01-1.8-.91c-2.29-1.52-3.57-3.91-4-5.42-.08-.28-.07-.58.04-.85.11-.28 2.68-6.76 8.86-6.76 1.4 0 2.61.34 3.66.87a8.859 8.859 0 011.58 1.01c2.44 1.94 3.55 4.71 3.62 4.89.1.25.12.55.04.83z"/><path class="st3" d="M55.71 46.09c-.07-.18-1.18-2.95-3.62-4.89a8.985 8.985 0 00-1.58-1.01 8.07 8.07 0 00-3.66-.87c-6.17 0-8.75 6.48-8.86 6.76-.1.27-.12.57-.04.85.43 1.52 1.7 3.9 4 5.42a8.883 8.883 0 001.8.91c.92.34 1.94.54 3.1.54 5.5 0 8.22-4.5 8.9-6.88.08-.26.06-.56-.04-.83zm-8.86 6.38c-.67 0-1.28-.08-1.85-.22a6.14 6.14 0 01-1-.31 6.95 6.95 0 01-.91-.44c-2.92-1.67-3.85-4.94-3.85-4.94s2.28-5.9 7.6-5.9c1.25 0 2.33.33 3.26.84.28.15.54.31.79.48.26.19.51.38.74.59 1.93 1.72 2.81 3.99 2.81 3.99s-1.66 5.91-7.59 5.91z"/><path class="st3" d="M50.54 45.13a3.79 3.79 0 00-.53-.94c-.2-.26-.42-.49-.68-.69-.68-.55-1.54-.9-2.48-.9-2.19 0-3.97 1.78-3.97 3.97 0 1.45.79 2.71 1.95 3.4.28.17.58.29.89.39.34.1.69.17 1.06.18.02 0 .05.01.07.01 2.19 0 3.97-1.78 3.97-3.97 0-.52-.1-1-.28-1.45zm-2.28 3.65c-.41.26-.89.42-1.41.42-.02 0-.04-.01-.06-.01-.36-.01-.7-.09-1-.22a2.626 2.626 0 01-1.56-2.4c0-1.45 1.18-2.63 2.63-2.63.74 0 1.4.31 1.88.79.24.25.43.54.56.86.12.3.19.63.19.97a2.645 2.645 0 01-1.23 2.22z"/></svg>