
<svg width="60px" height="62px" viewBox="0 0 60 62" version="1.1" xmlns="http://www.w3.org/2000/svg" xmlns:xlink="http://www.w3.org/1999/xlink">
    <!-- Generator: Sketch 44.1 (41455) - http://www.bohemiancoding.com/sketch -->
    <desc>Created with Sketch.</desc>
    <defs>
        <polygon id="path-1" points="30.993 0.931083958 30.993 31 0.924383958 31 0.924383958 0.931083958 30.993 0.931083958"></polygon>
    </defs>
    <g id="12.1-13-App-detail" stroke="none" stroke-width="1" fill="none" fill-rule="evenodd">
        <g id="12.2-App-Detail---Asset-Inventory" transform="translate(-185.000000, -1413.000000)">
            <g id="---Features-overview" transform="translate(185.000000, 1290.000000)">
                <g id="::-01" transform="translate(0.000000, 120.000000)">
                    <g id="::-icon" transform="translate(1.000000, 3.000000)">
                        <path d="M22.6163,42.9778 L47.4603,18.1338 C49.5453,16.0488 49.5453,12.6688 47.4603,10.5838 L47.4603,10.5838 C45.3753,8.4988 41.9953,8.4988 39.9103,10.5838 L14.2143,36.2798" id="Fill-1" fill="#ED2E26"></path>
                        <path d="M27.7657,42.9778 L2.9217,18.1338 C0.8367,16.0488 0.8367,12.6688 2.9217,10.5838 L2.9217,10.5838 C5.0067,8.4988 8.3867,8.4988 10.4717,10.5838 L36.1677,36.2798" id="Fill-3" fill="#ED2E26"></path>
                        <path d="M49.8268,33.0866 C49.8268,19.3276 38.6728,8.1736 24.9138,8.1736 C11.1538,8.1736 -0.0002,19.3276 -0.0002,33.0866 C-0.0002,46.8456 11.1538,57.9996 24.9138,57.9996 C38.6728,57.9996 49.8268,46.8456 49.8268,33.0866" id="Fill-5" fill="#FEFEFE"></path>
                        <path d="M49.8268,33.0866 C49.8268,19.3276 38.6728,8.1736 24.9138,8.1736 C11.1538,8.1736 -0.0002,19.3276 -0.0002,33.0866 C-0.0002,46.8456 11.1538,57.9996 24.9138,57.9996 C38.6728,57.9996 49.8268,46.8456 49.8268,33.0866 Z" id="Stroke-7" stroke="#B5D0E7" stroke-width="2" stroke-linecap="round" stroke-linejoin="round"></path>
                        <path d="M24.9134,32.3551 L38.1324,19.1361 C34.6694,15.8961 30.0304,13.8971 24.9134,13.8971 L24.9134,32.3551 Z" id="Fill-9" fill="#ED2E26"></path>
                        <g id="Group-14" transform="translate(24.000000, 0.277400)">
                            <path d="M0.9134,7.5662 L0.9134,0.7222" id="Fill-11" fill="#FEFEFE"></path>
                            <path d="M0.9134,7.5662 L0.9134,0.7222" id="Stroke-13" stroke="#B5D0E7" stroke-width="2" stroke-linecap="round" stroke-linejoin="round"></path>
                        </g>
                        <path d="M24.1696,33.1925 L38.6846,18.6775" id="Stroke-15" stroke="#B5D0E7" stroke-width="2" stroke-linecap="round" stroke-linejoin="round"></path>
                        <path d="M28.3359,32.3552 C28.3359,30.4652 26.8039,28.9332 24.9139,28.9332 C23.0229,28.9332 21.4909,30.4652 21.4909,32.3552 C21.4909,34.2452 23.0229,35.7772 24.9139,35.7772 C26.8039,35.7772 28.3359,34.2452 28.3359,32.3552" id="Fill-17" fill="#FEFEFE"></path>
                        <path d="M28.3359,32.3552 C28.3359,30.4652 26.8039,28.9332 24.9139,28.9332 C23.0229,28.9332 21.4909,30.4652 21.4909,32.3552 C21.4909,34.2452 23.0229,35.7772 24.9139,35.7772 C26.8039,35.7772 28.3359,34.2452 28.3359,32.3552 Z" id="Stroke-19" stroke="#B5D0E7" stroke-width="1.875" stroke-linecap="round" stroke-linejoin="round"></path>
                        <g id="Group-24" transform="translate(19.000000, 3.277400)">
                            <path d="M11.094,0.807 L0.795,0.807" id="Fill-21" fill="#FEFEFE"></path>
                            <path d="M11.094,0.807 L0.795,0.807" id="Stroke-23" stroke="#B5D0E7" stroke-width="2" stroke-linecap="round" stroke-linejoin="round"></path>
                        </g>
                        <g id="Group-27" transform="translate(28.000000, 30.277400)">
                            <mask id="mask-2" fill="white">
                                <use xlink:href="#path-1"></use>
                            </mask>
                            <g id="Clip-26"></g>
                            <path d="M15.9804,0.9311 L15.9804,0.9311 C24.2834,0.9431 31.0054,7.6841 30.9934,15.9871 L30.9934,15.9871 C30.9814,24.2901 24.2404,31.0121 15.9374,31.0001 L15.9374,31.0001 C7.6344,30.9881 0.9124,24.2471 0.9244,15.9441 L0.9244,15.9441 C0.9364,7.6411 7.6774,0.9191 15.9804,0.9311" id="Fill-25" fill="#ED2E26" mask="url(#mask-2)"></path>
                        </g>
                        <path d="M43.9589,38.2136 C37.0729,38.2136 34.1979,45.4456 34.0789,45.7536 C33.9619,46.0566 33.9469,46.3896 34.0349,46.7026 C34.7859,49.3556 37.8259,54.3746 43.9589,54.3746 C50.0919,54.3746 53.1319,49.3556 53.8829,46.7026 C53.9709,46.3896 53.9559,46.0566 53.8389,45.7536 C53.7199,45.4456 50.8449,38.2136 43.9589,38.2136 M43.9589,39.7136 C49.8959,39.7136 52.4399,46.2936 52.4399,46.2936 C52.4399,46.2936 50.5779,52.8746 43.9589,52.8746 C37.3399,52.8746 35.4779,46.2936 35.4779,46.2936 C35.4779,46.2936 38.0219,39.7136 43.9589,39.7136" id="Fill-28" fill="#FEFEFE"></path>
                        <path d="M40.2791,46.2941 C40.2791,44.2621 41.9271,42.6141 43.9591,42.6141 C45.9911,42.6141 47.6391,44.2621 47.6391,46.2941 C47.6391,48.3261 45.9911,49.9741 43.9591,49.9741 C41.9271,49.9741 40.2791,48.3261 40.2791,46.2941 Z" id="Stroke-30" stroke="#FEFEFE" stroke-width="1.5" stroke-linecap="round" stroke-linejoin="round"></path>
                    </g>
                </g>
            </g>
        </g>
    </g>
</svg>