<svg xmlns="http://www.w3.org/2000/svg" width="72" height="64"><g fill="none" fill-rule="evenodd"><path stroke="#B5D0E7" stroke-linecap="round" stroke-linejoin="round" stroke-width="1.808" d="M55.539 23.347c-.44 0-.871.04-1.294.097-.892-3.708-4.219-6.465-8.2-6.465a8.399 8.399 0 0 0-3.852.937c-2.068-5.688-7.459-9.78-13.863-9.78-8.18 0-14.814 6.634-14.814 14.815 0 .116.031.223.035.339-4.272 1.09-7.442 4.927-7.442 9.537 0 .066.008.127.01.192-.002.072-.01.142-.01.213 0 4.482 2.986 8.259 7.072 9.472h45.168c4.088-1.213 7.073-4.99 7.073-9.472 0-5.462-4.427-9.885-9.883-9.885z"/><path fill="#ED2E26" d="M35.91 24.183c9.082.013 16.433 7.386 16.421 16.468-.014 9.08-7.386 16.433-16.468 16.42-9.082-.013-16.433-7.387-16.42-16.468.012-9.08 7.385-16.433 16.467-16.42"/><path fill="#FEFEFE" d="M35.886 33.485c6.494 0 9.276 7.197 9.276 7.197s-2.036 7.198-9.276 7.198c-7.238 0-9.275-7.198-9.275-7.198s2.782-7.197 9.275-7.197m0-1.64c-7.531 0-10.676 7.91-10.806 8.247a1.645 1.645 0 0 0-.048 1.037c.821 2.902 4.146 8.392 10.854 8.392 6.71 0 10.034-5.49 10.856-8.392a1.653 1.653 0 0 0-.048-1.037c-.13-.337-3.275-8.247-10.808-8.247"/><path stroke="#FEFEFE" stroke-linecap="round" stroke-linejoin="round" stroke-width="1.5" d="M31.862 40.683a4.027 4.027 0 0 1 4.026-4.026 4.026 4.026 0 0 1 0 8.051 4.027 4.027 0 0 1-4.026-4.025z"/><path stroke="#B5D0E5" stroke-linecap="round" stroke-linejoin="round" stroke-width="2" d="M9.392 1.744H1.349v8.741M70.992 9.042V1H62.25M62.6 62.986h8.042v-8.742M.999 54.593v8.043h8.743"/></g></svg>