<svg xmlns="http://www.w3.org/2000/svg" width="184" height="216"><g fill="none" fill-rule="evenodd"><path stroke="#C3D6EC" stroke-linecap="round" stroke-linejoin="round" stroke-width="8" d="M139.385 68.308c0-12.347-9.445-22.482-21.503-23.588a20.247 20.247 0 0 0 1.195-6.874c0-11.215-9.091-20.308-20.307-20.308-5.715 0-10.874 2.365-14.565 6.163C80.992 12.333 70.55 4 58.155 4c-12.813 0-23.54 8.903-26.351 20.857C15.994 27.707 4 41.525 4 58.155 4 76.847 19.154 92 37.846 92H60"/><path stroke="#C3D6EC" stroke-linecap="round" stroke-linejoin="round" stroke-width="8" d="M120 68H60v80s11.25 44 60 64m0-144h60v80s-11.25 44-60 64"/><path fill="#DE1D0B" d="M156 128c0-19.882-16.118-36-36-36s-36 16.118-36 36 16.118 36 36 36 36-16.118 36-36"/><path stroke="#DE1D0B" stroke-linejoin="round" stroke-width="8" d="M156 128c0-19.882-16.118-36-36-36s-36 16.118-36 36 16.118 36 36 36 36-16.118 36-36z"/><path stroke="#FFF" stroke-linecap="round" stroke-linejoin="round" stroke-width="8" d="M102 136l11.333 8L136 111.833"/></g></svg>