<svg xmlns="http://www.w3.org/2000/svg" xmlns:xlink="http://www.w3.org/1999/xlink" width="70" height="47"><defs><path id="a" d="M0 .145h69.589V46.29H0z"/><path id="c" d="M0 46.4h69.589V.254H0z"/></defs><g fill="none" fill-rule="evenodd"><path fill="#ED2E26" d="M49.876 19.456c-.33 0-.654.03-.973.072a6.348 6.348 0 0 0-6.168-4.863 6.332 6.332 0 0 0-2.899.705c-1.555-4.28-5.609-7.357-10.428-7.357-6.154 0-11.143 4.99-11.143 11.145 0 .087.022.168.025.255-3.211.818-5.598 3.706-5.598 7.174 0 .05.007.096.008.144-.001.056-.008.107-.008.16 0 3.372 2.248 6.214 5.32 7.126h33.98a7.435 7.435 0 0 0-2.115-14.561"/><g transform="translate(0 .11)"><mask id="b" fill="#fff"><use xlink:href="#a"/></mask><path fill="#9BC0E0" d="M53.189 44.384V26.782c8.339 1.856 14.066 4.903 14.572 8.344a.92.92 0 0 0 .081.24c.006.07.017.14.017.213 0 3.398-5.728 6.808-14.67 8.805zM34.696 23.201c-5.998 0-11.67.532-16.628 1.476v-2.164c0-.014-.008-.027-.01-.041a.84.84 0 0 0-.66-.92C8.12 19.648 2.053 16.242 1.73 12.81v-.543c0-.013-.007-.024-.008-.038.492-5.072 13.65-10.386 33.075-10.386 18.431 0 31.366 4.866 32.934 9.696.004.043-.004.085.009.128.05.183.08.367.098.55-.001.018-.01.032-.01.05v.547c-.329 3.43-6.394 6.835-15.668 8.74a.84.84 0 0 0-.662.919c0 .014-.007.027-.007.041v2.17c-4.957-.948-10.666-1.482-16.795-1.482zM16.37 44.384C7.427 42.387 1.7 38.977 1.7 35.579c0-.093.002-.188.012-.282.006-.065-.012-.127-.02-.191.015-.065.039-.126.039-.196v-.54a.84.84 0 0 0 .228-.283c1.478-3.065 6.918-5.689 14.41-7.34v17.637zm0-19.36c-6.788 1.472-12.038 3.749-14.64 6.5V16.466c2.488 2.743 7.582 5.07 14.64 6.6v1.958zm36.819.006v-1.964c7.057-1.53 12.15-3.858 14.639-6.6v15.238c-2.517-2.828-7.744-5.17-14.64-6.674zm16.337-12.152c.01-.118.031-.236.031-.355v-.012c.015-.07.035-.14.032-.216C69.265 5.482 53.982.144 34.797.144 15.285.144 0 5.58 0 12.522c0 .118.021.233.032.35V34.91c0 .042.018.077.022.117-.009.041-.03.075-.035.12-.012.144-.02.288-.02.433 0 4.501 6.37 8.5 17.04 10.693a.85.85 0 0 0 1.004-.662c.008-.037-.002-.073 0-.11.006-.041.024-.078.024-.12V26.396c4.936-.95 10.639-1.496 16.628-1.496 6.074 0 11.833.56 16.794 1.528v18.95c0 .044.018.08.024.12.004.039-.007.074.001.112a.847.847 0 0 0 1.002.66c10.669-2.192 17.04-6.19 17.04-10.691 0-.204-.018-.406-.044-.608.001-.021.013-.04.013-.062V12.88z" mask="url(#b)"/></g><mask id="d" fill="#fff"><use xlink:href="#c"/></mask><path fill="#ED2E26" mask="url(#d)" d="M18.067 33.981h33.871V21.562H18.067zM15.808 22.69H13.55s-1.987 2.559-1.987 3.897c0 .05.007.096.008.144-.001.055-.008.107-.008.16 0 2.494 2.362 4.69 4.245 6.039V22.69zm37.258.142v10.77a7.428 7.428 0 0 0 4.245-6.71c0-1.603-.858-4.201-.858-4.201l-3.387.14z"/></g></svg>