<svg xmlns="http://www.w3.org/2000/svg" xmlns:xlink="http://www.w3.org/1999/xlink" width="76" height="59"><defs><path id="a" d="M0 58.799h76V0H0z"/></defs><g fill="none" fill-rule="evenodd"><path stroke="#B5D0E7" stroke-linecap="round" stroke-linejoin="round" stroke-width="2" d="M62.519 20.087c-.546 0-1.08.05-1.604.12-1.105-4.596-5.232-8.016-10.167-8.016-1.722 0-3.344.424-4.778 1.162-2.563-7.054-9.249-12.127-17.19-12.127-10.144 0-18.37 8.225-18.37 18.37 0 .143.04.277.044.42-5.296 1.35-9.228 6.11-9.228 11.827 0 .08.01.158.012.237-.001.09-.012.176-.012.265 0 5.557 3.704 10.24 8.77 11.745h56.009c5.068-1.504 8.77-6.188 8.77-11.745 0-6.774-5.489-12.258-12.256-12.258z"/><path fill="#9BC0E0" d="M23.924 14.57a2.08 2.08 0 1 1 4.158 0 2.08 2.08 0 0 1-4.158 0m5.119 0a3.037 3.037 0 0 0-6.038-.481H17.58a.48.48 0 0 0 0 .96h5.426a3.035 3.035 0 0 0 6.038-.48m2.557 9.916a2.08 2.08 0 1 1 4.159 0 2.08 2.08 0 0 1-4.159 0m5.118 0a3.036 3.036 0 0 0-6.036-.48H15.128a.48.48 0 1 0 0 .96h15.554a3.036 3.036 0 0 0 6.036-.48M23.924 34.4a2.08 2.08 0 1 1 4.158 0 2.08 2.08 0 0 1-4.158 0m2.079 3.038a3.039 3.039 0 1 0-2.998-3.518H7.772a.48.48 0 1 0 0 .96h15.233a3.04 3.04 0 0 0 2.998 2.558m5.278-3.038c0 .264.214.48.48.48h32.727a.48.48 0 0 0 0-.96H31.761a.48.48 0 0 0-.48.48m0-19.832c0 .265.214.48.48.48h8.21a.48.48 0 1 0 0-.96h-8.21a.48.48 0 0 0-.48.48m7.357 9.916c0 .264.215.48.48.48h18.015a.48.48 0 0 0 0-.96H39.117a.48.48 0 0 0-.479.48"/><path fill="#EB3027" d="M43.74 33.147h18.165a6.053 6.053 0 0 1 6.062 6.052v13.539a6.062 6.062 0 0 1-6.062 6.061H43.74a6.061 6.061 0 0 1-6.06-6.061v-13.54a6.052 6.052 0 0 1 6.06-6.051"/><path stroke="#ED2E26" stroke-width="2.99" d="M45.758 35.163h14.13c3.344 0 6.063 2.708 6.063 6.052v9.506a6.068 6.068 0 0 1-6.063 6.062h-14.13a6.067 6.067 0 0 1-6.06-6.062v-9.506c0-3.344 2.717-6.052 6.06-6.052z"/><path stroke="#EB3027" stroke-width="2.99" d="M48.21 24.478a2.015 2.015 0 0 0-2.018 2.017v6.89c0 1.113.901 2.016 2.018 2.016h9.225a2.016 2.016 0 0 0 2.02-2.016v-6.89a2.015 2.015 0 0 0-2.02-2.017H48.21z"/><mask id="b" fill="#fff"><use xlink:href="#a"/></mask><path fill="#FFF" mask="url(#b)" d="M51.745 52.386h2.156v-8.554h-2.156z"/><path fill="#FFF" d="M52.827 41.697c1.79 0 3.243 1.437 3.243 3.207 0 1.772-1.453 3.21-3.243 3.21-1.802 0-3.25-1.438-3.25-3.21 0-1.77 1.448-3.207 3.25-3.207" mask="url(#b)"/></g></svg>