<svg xmlns="http://www.w3.org/2000/svg" width="72" height="72"><g fill="none" fill-rule="evenodd"><g stroke="#B5D0E7" stroke-linecap="round" stroke-linejoin="round" stroke-width="2"><path d="M23.408 13.592L36 1l12.592 12.592M13.592 48.592L1 36l12.592-12.592M58.408 23.408L71 36 58.408 48.592M48.592 58.408L36 71 23.408 58.408"/></g><path fill="#FFF" d="M1 36h70H1z"/><path stroke="#B5D0E7" stroke-linecap="round" stroke-linejoin="round" stroke-width="2" d="M1 36h70"/><path fill="#FFF" d="M36 71V1v70z"/><path stroke="#B5D0E7" stroke-linecap="round" stroke-linejoin="round" stroke-width="2" d="M36 1v70"/><path fill="#ED2E26" d="M57 41.271c0-3.337-2.297-6.118-5.39-6.906.002-.084.025-.161.025-.245 0-5.926-4.804-10.73-10.73-10.73-1.969 0-3.806.539-5.382 1.471a10.543 10.543 0 0 0-5.385-1.471c-5.926 0-10.73 4.804-10.73 10.73 0 .084.024.16.026.245-3.093.788-5.39 3.569-5.39 6.906 0 .047.007.094.007.14 0 .052-.007.102-.007.154 0 1.42.414 2.743 1.127 3.854a7.19 7.19 0 0 0 3.995 3.005h32.71A7.167 7.167 0 0 0 57 41.565c0-.052-.006-.102-.007-.154 0-.046.007-.093.007-.14"/><path stroke="#FFF" stroke-linecap="round" stroke-linejoin="round" stroke-width="2" d="M29.983 36l4.312 4.313 7.916-7.915"/></g></svg>