<svg xmlns="http://www.w3.org/2000/svg" xmlns:xlink="http://www.w3.org/1999/xlink" width="62" height="48" viewBox="0 0 62 48"><defs><path id="a" d="M25.408 30h-25V.235h25V30z"/></defs><g fill="none" fill-rule="evenodd"><path stroke="#B5D0E7" stroke-width="2" d="M51.002 16.387c-.445 0-.88.04-1.308.098-.902-3.75-4.268-6.54-8.294-6.54a8.493 8.493 0 00-3.898.948C35.41 5.139 29.957 1 23.479 1 15.203 1 8.493 7.71 8.493 15.986c0 .117.032.226.035.343C4.208 17.431 1 21.314 1 25.977c0 .066.009.129.01.194-.001.073-.01.143-.01.216 0 4.533 3.02 8.354 7.155 9.581h45.69C57.98 34.741 61 30.92 61 26.387c0-5.526-4.478-10-9.998-10z" stroke-linecap="round" stroke-linejoin="round"/><g transform="translate(17 17.17)"><mask id="b" fill="#fff"><use xlink:href="#a"/></mask><path fill="#ED2E26" d="M12.907.234c8.14 0 12.233 4.356 12.233 4.356s.468 3.224.169 9.715C24.858 24.11 12.909 30 12.909 30c-.001 0-11.95-5.89-12.4-15.696-.3-6.491.169-9.715.169-9.715S4.767.235 12.907.235" mask="url(#b)"/></g><path fill="#FFF" d="M23.798 30.295c0-3.467 2.741-6.288 6.11-6.288a6.122 6.122 0 016.115 6.115c0 2.692-2.314 4.907-4.097 6.045.692.394 2.218.809 3.68.943a8.825 8.825 0 003.437-6.988c0-5.037-4.098-9.135-9.135-9.135s-9.135 4.098-9.135 9.135c0 3.042 1.267 5.745 3.663 7.816 2.241 1.936 5.518 3.228 9.25 3.84.808-.446 2.19-1.765 2.71-2.538-3.118-.4-6.067-1.16-8.044-2.198-3.022-1.585-4.554-3.855-4.554-6.747"/></g></svg>