<svg xmlns="http://www.w3.org/2000/svg" width="64" height="50"><g fill="none" fill-rule="evenodd"><path stroke="#B4CFE4" stroke-linecap="round" stroke-linejoin="round" stroke-width="2" d="M52.849 39.91h2.573c4.258-1.264 7.368-5.2 7.368-9.867 0-5.691-4.612-10.298-10.296-10.298-.458 0-.907.04-1.347.1-.929-3.862-4.396-6.735-8.541-6.735a8.75 8.75 0 0 0-4.015.977c-2.153-5.926-7.77-10.19-14.441-10.19a15.38 15.38 0 0 0-6.199 1.297m-5.725 4.339a15.374 15.374 0 0 0-3.51 9.799c0 .12.033.232.036.352C4.304 20.82 1 24.818 1 29.62c0 .067.009.133.01.199-.001.075-.01.148-.01.223 0 4.668 3.11 8.603 7.369 9.867H40.37M8.956 1.316l45.877 45.876"/><path fill="#EC3027" d="M31.893 19.346c8.383 0 12.598 4.484 12.598 4.484s.482 3.321.174 10.005C44.2 43.935 31.895 49.998 31.895 50c-.001 0-12.306-6.065-12.77-16.164-.308-6.684.174-10.005.174-10.005s4.21-4.484 12.594-4.484"/><path fill="#FFF" d="M25.537 33.05c0-3.57 2.822-6.475 6.291-6.475a6.305 6.305 0 0 1 6.298 6.297c0 2.774-2.383 5.055-4.22 6.227.714.405 2.285.833 3.79.97a9.09 9.09 0 0 0 3.54-7.197c0-5.186-4.22-9.406-9.407-9.406-5.189 0-9.407 4.22-9.407 9.407 0 3.133 1.303 5.916 3.77 8.049 2.31 1.994 5.683 3.325 9.526 3.955.833-.46 2.256-1.817 2.791-2.614-3.21-.411-6.247-1.194-8.284-2.263-3.112-1.633-4.689-3.97-4.689-6.95"/></g></svg>