<svg viewBox="0 0 70 57" xmlns="http://www.w3.org/2000/svg"><g fill-rule="nonzero" fill="none"><path d="M56.219 29.969c-9.188-17.063-22.313-16.407-28-16.188h-1.313c-9.953 0-18.047 7.328-18.703 16.735C3.172 32.594 0 37.296 0 42.656v.438a13.125 13.125 0 009.406 12.578c.219 0 .328.11.547.11.656.109 3.719.765 7.547.765 3.719 0 8.094-.656 11.703-2.844 3.281-1.969 5.36-3.937 6.235-7.984.546-2.516.546-4.703.437-8.203v-.547l6.563 6.672c.218.218.656.437.984.437.328 0 .766-.11.984-.437.328-.22.438-.657.438-.985 0-.218-.11-.547-.219-.765l-8.969-8.97c-.218-.218-.656-.437-.984-.437-.328 0-.766.11-.984.438l-8.75 8.75a1.386 1.386 0 000 1.969c.218.218.656.437.984.437.328 0 .765-.11.984-.437l6.344-6.344.328-.328v.547c0 3.39.11 5.468-.437 7.656-.766 3.39-2.516 4.922-5.25 6.562-6.672 4.375-17.391 1.86-17.5 1.86h-.329c-4.703-1.422-7.874-5.688-7.874-10.5v-.11-.328c0-4.593 2.953-8.75 7.328-10.281a1.05 1.05 0 00.765-.984c.328-8.641 7.547-15.422 16.625-15.422h1.422c5.36-.219 17.719-.766 26.25 15.64.219.328.656.657.984.547H56c6.016 0 10.938 4.922 10.938 10.938 0 4.812-3.172 9.078-7.876 10.5H38.5c-.656 0-1.094.437-1.094 1.093 0 .657.438 1.094 1.094 1.094h20.563c.218 0 .437 0 .656-.11a13.125 13.125 0 009.406-12.577c0-7.219-5.797-13.016-12.906-13.125z" fill="#B4CFE4"/><path d="M35 0c8.422 0 12.688 4.484 12.688 4.484s.437 3.391.218 10.063C47.36 24.828 35 30.953 35 30.953s-12.469-6.125-12.906-16.297c-.328-6.781.218-10.062.218-10.062S26.47 0 35 0" fill="#ED2E26"/><path d="M28.547 13.89c0-3.609 2.844-6.562 6.344-6.562 3.5 0 6.343 2.844 6.343 6.344 0 2.844-2.406 5.14-4.265 6.344.765.437 2.297.875 3.828.984 2.187-1.75 3.61-4.375 3.61-7.219 0-5.25-4.266-9.515-9.516-9.515s-9.516 4.265-9.516 9.515c0 3.172 1.313 6.016 3.828 8.094 2.297 1.969 5.688 3.39 9.625 4.047.875-.438 2.297-1.86 2.844-2.625-3.281-.438-6.344-1.203-8.422-2.297-3.172-1.75-4.703-4.156-4.703-7.11" fill="#FEFEFE"/></g></svg>