<svg xmlns="http://www.w3.org/2000/svg" width="60" height="67"><g fill="none" fill-rule="evenodd"><path stroke="#B5D0E7" stroke-linecap="round" stroke-linejoin="round" stroke-width="2" d="M46.611 13.301c7.402 5.222 12.236 13.84 12.236 23.587 0 15.931-12.915 28.846-28.847 28.846-15.93 0-28.846-12.915-28.846-28.846C1.154 20.958 14.07 8.042 30 8.042h3.7m.898 0l-6.888 6.889m6.888-6.889L27.71 1.154"/><path fill="#ED2E26" d="M45.624 33.342a7.4 7.4 0 0 0-1.006.075c-.695-2.884-3.284-5.03-6.38-5.03a6.55 6.55 0 0 0-2.998.729c-1.61-4.426-5.804-7.61-10.788-7.61-6.365 0-11.528 5.163-11.528 11.527 0 .091.026.176.028.264-3.323.849-5.791 3.836-5.791 7.423 0 .05.007.098.008.148-.001.056-.008.11-.008.167 0 3.486 2.324 6.426 5.504 7.37h35.147a7.69 7.69 0 0 0-2.188-15.062"/></g></svg>