<svg xmlns="http://www.w3.org/2000/svg" xmlns:xlink="http://www.w3.org/1999/xlink" width="78" height="65"><defs><path id="a" d="M.218.179h38.089v38.088H.218z"/></defs><g fill="none" fill-rule="evenodd"><path stroke="#B5D0E7" stroke-linecap="round" stroke-linejoin="round" stroke-width="2" d="M64.336 20.49c-.564 0-1.115.05-1.657.124-1.142-4.75-5.406-8.284-10.506-8.284-1.78 0-3.455.438-4.937 1.201C44.587 6.243 37.679 1 29.473 1 18.99 1 10.491 9.5 10.491 19.982c0 .148.04.286.044.435C5.063 21.812 1 26.73 1 32.637c0 .084.011.164.013.246-.002.093-.013.181-.013.274 0 5.742 3.828 10.581 9.063 12.136h57.875C73.176 43.738 77 38.899 77 33.157c0-7-5.67-12.667-12.664-12.667z"/><g transform="translate(18.467 25.948)"><mask id="b" fill="#fff"><use xlink:href="#a"/></mask><path fill="#ED2E26" d="M19.289.18c10.518.015 19.032 8.553 19.018 19.07-.017 10.517-8.554 19.032-19.073 19.017C8.717 38.252.204 29.713.218 19.196.233 8.679 8.772.164 19.289.179" mask="url(#b)"/></g><path fill="#FEFEFE" d="M37.728 36.9c7.52 0 10.743 8.335 10.743 8.335s-2.359 8.335-10.743 8.335c-8.382 0-10.74-8.335-10.74-8.335s3.22-8.335 10.74-8.335m0-1.9c-8.722 0-12.364 9.16-12.514 9.55a1.905 1.905 0 0 0-.056 1.203c.951 3.36 4.802 9.717 12.57 9.717 7.77 0 11.62-6.357 12.572-9.717a1.914 1.914 0 0 0-.056-1.202C50.094 44.16 46.452 35 37.728 35"/><path stroke="#FEFEFE" stroke-linecap="round" stroke-linejoin="round" stroke-width="1.5" d="M33.067 45.235a4.662 4.662 0 1 1 9.325.002 4.662 4.662 0 0 1-9.325-.002z"/></g></svg>