<svg xmlns="http://www.w3.org/2000/svg" viewBox="0 0 69 70"><g fill="none" fill-rule="evenodd"><path fill="#B5D0E7" fill-rule="nonzero" d="M57.097 43.262H0v16.531c0 4.573 12.78 8.324 28.49 8.324 15.71 0 28.607-3.634 28.607-8.324v-16.53zm-2.697 2.58v13.951c-.352 1.524-8.91 5.745-25.91 5.745S3.048 61.434 2.697 59.793V45.841H54.4z"/><path fill="#FFF" fill-rule="nonzero" d="M28.49 51.117c-16.883 0-27.2-4.103-27.2-7.034V28.84h54.4v15.242c0 2.93-10.318 7.034-27.2 7.034"/><path fill="#B5D0E7" fill-rule="nonzero" d="M57.097 26.145H0v16.648c0 4.573 12.78 8.324 28.49 8.324 15.71 0 28.49-3.751 28.49-8.324V26.145h.117zM54.4 28.84v13.952c-.352 1.524-8.91 5.745-25.91 5.745s-25.442-4.22-25.793-5.745V28.841H54.4z"/><path fill="#FFF" fill-rule="nonzero" d="M1.29 27.903v-15.24h54.4v15.24c0 2.931-10.318 7.035-27.2 7.035-16.883 0-27.2-4.104-27.2-7.035z"/><path fill="#B5D0E7" fill-rule="nonzero" d="M57.097 10.669H0v16.648c0 4.573 12.78 8.324 28.49 8.324 15.71 0 28.49-3.751 28.49-8.324V10.67h.117zM54.4 13.366v13.951c-.352 1.524-8.91 5.745-25.91 5.745s-25.442-4.22-25.793-5.745V13.366H54.4z"/><path fill="#FFF" fill-rule="nonzero" d="M28.49 16.648c-16.883 0-27.2-4.103-27.2-7.034s10.317-7.035 27.2-7.035c16.882 0 27.2 4.104 27.2 7.035 0 2.93-10.318 7.034-27.2 7.034"/><path fill="#B5D0E7" fill-rule="nonzero" d="M28.49 0C12.78 0 0 4.455 0 9.966c0 5.51 12.78 9.965 28.49 9.965 15.71 0 28.49-4.455 28.49-9.965S44.316 0 28.49 0m0 3.166c17 0 25.558 4.924 25.91 6.8-.352 1.875-8.91 6.8-25.91 6.8S3.048 11.84 2.697 10.083C3.048 8.09 11.49 3.166 28.49 3.166"/><path stroke="#B5D0E5" stroke-dasharray="0 7.045" stroke-linecap="round" stroke-linejoin="round" stroke-width="2.264" d="M20.283 27.083c2.58.234 5.393.351 8.207.351 4.455 0 8.676-.351 12.31-.82M20.283 43.73c2.58.235 5.393.352 8.207.352 4.455 0 8.676-.352 12.31-.82M20.283 60.965c2.58.234 5.393.351 8.207.351 4.455 0 8.676-.351 12.31-.82"/><path fill="#B5D0E5" fill-rule="nonzero" d="M28.138 12.78c-4.455 0-8.09-1.056-8.207-2.463V10.2c-.117-1.407 3.635-2.697 8.441-2.697h.235c4.572 0 8.324 1.173 8.441 2.58v.234c0 1.407-3.634 2.58-8.207 2.697h-.351c-.235-.235-.352-.235-.352-.235m.703-7.972c-9.496 0-17.351 2.345-17.469 5.276-.117 1.407 1.759 2.814 5.042 3.869.586.234 1.524.234 2.345.234.703 0 1.407-.117 2.11-.234 2.228-.47 4.807-.704 7.386-.704 2.58 0 5.159.235 7.27.704.585.117 1.289.234 2.11.234.82 0 1.758-.117 2.344-.352 6.918-1.993 7.387-5.393.938-7.503-3.048-.82-7.386-1.407-12.076-1.524"/><circle cx="48.421" cy="49.945" r="18.759" fill="#FFF" fill-rule="nonzero" stroke="#B5D0E5" stroke-width="2"/><g fill-rule="nonzero"><path fill="#ED2E26" d="M48.421 38.69c6.214 0 9.262 3.283 9.262 3.283s.352 2.462.117 7.386c-.351 7.503-9.379 11.959-9.379 11.959s-9.028-4.456-9.38-11.959c-.234-4.924.118-7.386.118-7.386s3.165-3.283 9.262-3.283"/><path fill="#FEFEFE" d="M43.849 48.421c0-2.58 2.11-4.807 4.69-4.807 2.579 0 4.689 2.11 4.689 4.69 0 1.993-1.759 3.752-3.166 4.572.47.352 1.642.586 2.814.704 1.642-1.29 2.58-3.166 2.58-5.276 0-3.87-3.166-6.917-6.918-6.917-3.869 0-6.917 3.165-6.917 6.917 0 2.345.938 4.338 2.814 5.98 1.758 1.523 4.22 2.461 7.034 2.93.587-.352 1.642-1.29 2.11-1.876-2.344-.351-4.572-.938-6.096-1.641-2.462-1.29-3.634-3.048-3.634-5.276"/></g><g stroke="#ED2E26" stroke-linecap="round" stroke-linejoin="round" stroke-width="2"><path d="M62.02 33.648c2.111-1.758 3.518-4.455 3.283-7.386-.234-5.041-4.455-8.91-9.379-8.676"/><path d="M57.214 20.752l-3.4-3.166 3.165-3.283M64.834 34.469l-4.455.821-.703-4.455"/></g></g></svg>