<svg xmlns="http://www.w3.org/2000/svg" width="62" height="62" viewBox="0 0 62 62"><g fill="none" fill-rule="evenodd"><path fill="#FFF" d="M20.207 11.793L31 1l10.793 10.793"/><path stroke="#B5D0E7" stroke-width="2" d="M20.207 11.793L31 1l10.793 10.793" stroke-linecap="round" stroke-linejoin="round"/><path fill="#FFF" d="M11.793 41.793L1 31l10.793-10.793"/><path stroke="#B5D0E7" stroke-width="2" d="M11.793 41.793L1 31l10.793-10.793" stroke-linecap="round" stroke-linejoin="round"/><path fill="#FFF" d="M50.207 20.207L61 31 50.207 41.793"/><path stroke="#B5D0E7" stroke-width="2" d="M50.207 20.207L61 31 50.207 41.793" stroke-linecap="round" stroke-linejoin="round"/><path fill="#FFF" d="M41.793 50.207L31 61 20.207 50.207"/><path stroke="#B5D0E7" stroke-width="2" d="M41.793 50.207L31 61 20.207 50.207" stroke-linecap="round" stroke-linejoin="round"/><path fill="#FFF" d="M1 31h60H1z"/><path stroke="#B5D0E7" stroke-width="2" d="M1 31h60" stroke-linecap="round" stroke-linejoin="round"/><path fill="#FFF" d="M31 61V1v60z"/><path stroke="#B5D0E7" stroke-width="2" d="M31 1v60" stroke-linecap="round" stroke-linejoin="round"/><path fill="#ED2E26" d="M31 16c8.284 0 15 6.716 15 15s-6.716 15-15 15c-8.284 0-15-6.716-15-15s6.716-15 15-15"/><path stroke="#FFF" stroke-width="2" d="M24 31.413l5.284 5.284L38.983 27" stroke-linecap="round" stroke-linejoin="round"/></g></svg>