<svg id="Layer_1" data-name="Layer 1" xmlns="http://www.w3.org/2000/svg" viewBox="0 0 64 64"><defs><style>.cls-1,.cls-2{fill:none;stroke:#b4cfe4;stroke-linecap:round;stroke-linejoin:round;stroke-width:2px}.cls-2{fill:#b4cfe4}.cls-6{fill:#fff}</style></defs><circle class="cls-1" cx="32" cy="33.6" r="28.55"/><path class="cls-1" d="M32 1.85v13.08"/><path class="cls-2" d="M28.55 12.2L32 18.45l3.45-6.25h-6.9z"/><path class="cls-1" d="M57.43 52.61l-10.48-7.83"/><path class="cls-2" d="M51.21 43.65l-7.08-.98 2.94 6.51 4.14-5.53z"/><path class="cls-1" d="M6.16 52.61l10.48-7.83"/><path class="cls-2" d="M12.38 43.65l7.08-.98-2.94 6.51-4.14-5.53z"/><g id="Lock"><g id="Rectangle-4"><rect id="path-1" x="23.07" y="28.57" width="17.85" height="15.12" rx="3.74" fill="#eb3027"/><rect x="24.32" y="29.82" width="15.36" height="12.63" rx="3.74" stroke-width="2.49" stroke="#ed2e26" fill="none"/></g><path d="M29.39 23.52a1.24 1.24 0 00-1.24 1.24v3.83a1.25 1.25 0 001.24 1.25h5.22a1.25 1.25 0 001.24-1.25v-3.83a1.24 1.24 0 00-1.24-1.24z" stroke="#eb3027" stroke-width="2.49" fill="none" id="Rectangle-22"/><g id="KeyHole"><path class="cls-6" d="M31.36 39.27a.64.64 0 001.28 0v-3.76a.64.64 0 10-1.28 0z" id="Path"/><ellipse id="Oval" class="cls-6" cx="32" cy="35.5" rx="1.91" ry="1.89"/></g></g></svg>