<svg width="60" height="62" viewBox="0 0 60 62" xmlns="http://www.w3.org/2000/svg"><g fill="none" fill-rule="evenodd"><path stroke="#B5D0E7" stroke-width="2" stroke-linecap="round" stroke-linejoin="round" d="M58.962 46V16L32.982 1 7 16v30l25.98 15z"/><path d="M7 16l25.98 14.617L58.963 16M33 30.617V61M40 32.617V52M46 28.617V48M52 24.617V44" stroke="#B5D0E7" stroke-width="2" stroke-linecap="round" stroke-linejoin="round"/><path d="M12.5 31c8.142 0 12.236 4.357 12.236 4.357s.468 3.224.17 9.716c-.452 9.807-12.403 15.698-12.404 15.698 0 0-11.95-5.89-12.402-15.698-.3-6.492.17-9.716.17-9.716S4.36 31 12.5 31" fill="#ED2E26" fill-rule="nonzero"/><path d="M6.39 43.893c0-3.468 2.743-6.29 6.112-6.29a6.123 6.123 0 016.116 6.116c0 2.693-2.314 4.908-4.098 6.046.693.395 2.22.81 3.68.944a8.825 8.825 0 003.44-6.99c0-5.037-4.1-9.136-9.138-9.136-5.037 0-9.136 4.1-9.136 9.136 0 3.044 1.267 5.747 3.664 7.818 2.24 1.937 5.52 3.23 9.25 3.84.81-.446 2.192-1.765 2.71-2.537-3.117-.4-6.066-1.16-8.044-2.2-3.022-1.584-4.555-3.855-4.555-6.748" fill="#FEFEFE" fill-rule="nonzero"/></g></svg>