<svg xmlns="http://www.w3.org/2000/svg" viewBox="0 0 72 68"><g fill="none" fill-rule="evenodd"><path fill="#FFF" d="M-186-1875h1440V759H-186z"/><path stroke="#B5D0E7" stroke-linecap="round" stroke-linejoin="round" stroke-width="2" d="M60.267 33.667c0-13.417-10.85-24.384-24.384-24.384H2.75m16.1 7.117c-4.433 4.433-7.117 10.5-7.117 17.15"/><path stroke="#B5D0E7" stroke-linecap="round" stroke-linejoin="round" stroke-width="2" d="M9.283 17.567L1 9.283 9.283 1M11.617 33.55c0 13.417 10.85 24.383 24.383 24.383h33.25M53.15 50.7c4.433-4.433 7.117-10.5 7.117-17.15"/><path stroke="#B5D0E7" stroke-linecap="round" stroke-linejoin="round" stroke-width="2" d="M62.717 49.533L71 57.817 62.717 66.1"/><path fill="#ED2E26" fill-rule="nonzero" d="M36 15.933c9.683 0 17.5 7.934 17.5 17.617s-7.933 17.5-17.617 17.5c-9.683 0-17.5-7.933-17.5-17.617 0-9.566 7.934-17.5 17.617-17.5"/><path stroke="#FEFEFE" stroke-linecap="round" stroke-linejoin="round" stroke-width="2" d="M28.533 32.85l5.717 5.717 10.617-10.5"/></g></svg>