<svg xmlns="http://www.w3.org/2000/svg" width="70" height="67"><g fill="none" fill-rule="evenodd"><path fill="#B5D0E7" d="M34.354 42.107v9.416h-7.12v14.705h15.532V51.523h-7.004v-9.416h-1.408zm-5.702 22.788h12.705v-12.03H28.652v12.03z"/><path fill="#B5D0E7" d="M27.234 0v14.704h7.11v9.883h-6.397v-8.22h-6.878V9.663H5.54v14.705h15.53V17.7h5.471v6.886h-2.779v8.03h-8.22v-6.742H.002V40.58h15.54V33.95h8.22v8.03h2.78v6.885h-5.472V42.17H5.54v14.714h15.53v-6.685h6.878v-8.221h14.269V50.2h6.878v6.685h15.581V42.17H49.143v6.686h-5.508v-6.878h2.73v-8.03h8.103v6.642H70V25.875H54.468v6.732h-8.104v-8.02h-2.73v-6.886h5.509v6.685h15.532V9.663H49.143v6.685h-6.879v8.221h-6.501v-9.865h7.013V0H27.234zm1.418 13.372h12.705V1.333H28.652v12.04zm21.9 9.681h12.713V11.014H50.551v12.039zm-43.577 0h12.686V11.014H6.975v12.039zm18.205 2.869h19.767l-.02 14.714H25.18V25.922zm30.696 13.325H68.59V27.218H55.876v12.029zm-54.458 0h12.716V27.218H1.418v12.029zm49.114 4.257h12.734v12.038H50.551l-.02-12.038zM6.975 55.542h12.686v-12.03H6.975v12.03z"/><path fill="#ED2E26" d="M35.07 19.68c8.01.061 14.451 6.26 14.386 13.843-.066 7.584-6.612 13.681-14.622 13.619-8.01-.061-14.45-6.26-14.386-13.844.066-7.583 6.613-13.681 14.623-13.619"/><path fill="#FFF" d="M34.953 27.4c5.726 0 8.18 6.01 8.18 6.01s-1.795 6.01-8.18 6.01c-6.386 0-8.182-6.01-8.182-6.01s2.454-6.01 8.182-6.01m0-1.37c-6.644 0-9.418 6.605-9.533 6.887-.112.277-.126.581-.041.867.724 2.423 3.656 7.007 9.574 7.007 5.916 0 8.85-4.584 9.573-7.007.085-.286.07-.59-.043-.867-.114-.282-2.888-6.887-9.53-6.887"/><path fill="#FFF" d="M34.953 30.753c-1.57 0-2.848 1.192-2.848 2.658s1.278 2.657 2.848 2.657c1.57 0 2.845-1.191 2.845-2.657s-1.276-2.658-2.845-2.658m0 6.722c-2.347 0-4.255-1.823-4.255-4.064 0-2.242 1.908-4.065 4.255-4.065 2.346 0 4.253 1.823 4.253 4.065 0 2.241-1.907 4.064-4.253 4.064"/></g></svg>