<svg xmlns="http://www.w3.org/2000/svg" xmlns:xlink="http://www.w3.org/1999/xlink" width="60" height="69"><defs><path id="a" d="M.037.756h44.895v59.487H.037z"/><path id="c" d="M.793.205h29.51v35.637H.793z"/></defs><g fill="none" fill-rule="evenodd"><path stroke="#B5D0E7" stroke-linecap="round" stroke-linejoin="round" stroke-width="2" d="M1 6.849v57.243h42.65V20.526l-6.005-7.102-6.089-6.575z"/><g transform="translate(5.453 -.643)"><mask id="b" fill="#fff"><use xlink:href="#a"/></mask><path fill="#FFF" d="M1.16.756h30.556c.313 0 .606.13.822.36l6.09 6.577c.016.011.026.026.035.038l6.005 7.103c.172.202.264.458.264.725v43.563a1.12 1.12 0 0 1-1.122 1.121H1.16c-.62 0-1.123-.5-1.123-1.12V1.878C.037 1.258.54.756 1.16.756" mask="url(#b)"/></g><path stroke="#B5D0E7" stroke-linecap="round" stroke-linejoin="round" stroke-width="2" d="M6.613 1.236v57.243h42.649V14.916l-6.004-7.104-6.089-6.576z"/><path stroke="#B5D0E7" stroke-linecap="round" stroke-linejoin="round" stroke-width="2" d="M48.554 14.227H38.042V2.359"/><g transform="translate(28.83 32.534)"><mask id="d" fill="#fff"><use xlink:href="#c"/></mask><path fill="#EC3127" d="M15.545.205c9.61 0 14.44 5.213 14.44 5.213s.553 3.859.2 11.632c-.531 11.741-14.636 18.792-14.636 18.792S1.442 28.792.91 17.05c-.353-7.773.2-11.632.2-11.632S5.938.205 15.545.205" mask="url(#d)"/></g><path fill="#FFF" d="M47.836 45.47a1.203 1.203 0 0 1 0 1.707l-8.57 8.57a1.207 1.207 0 1 1-1.707-1.706l8.57-8.57a1.205 1.205 0 0 1 1.707 0"/><path fill="#FFF" d="M46.98 46.325a3.624 3.624 0 0 0 5.13-.006 3.626 3.626 0 0 0 1.02-3.16c-.034-.21-.73.488-2.09 2.09l-2.553-.429-.348-2.473c1.63-1.39 2.345-2.105 2.145-2.144a3.63 3.63 0 0 0-3.296.994 3.625 3.625 0 0 0-.008 5.128M39.531 45.475l1.707-1.706 9.349 9.346-1.707 1.709zM49.396 55.34l1.708-1.707.587.587a1.207 1.207 0 0 1-1.708 1.706l-.587-.586zM39.09 45.036l-1.062-2.854 2.771 1.145z"/><path fill="#9BC0E0" d="M17.6 9.607a.662.662 0 0 0-.959 0l-5.137 5.068v.96l5.068 5.068a.74.74 0 0 0 .48.205.737.737 0 0 0 .479-.205.661.661 0 0 0 0-.96l-4.59-4.588 4.59-4.59c.342-.274.342-.684.069-.958m8.904 0a.662.662 0 0 0 0 .958l4.59 4.59-4.59 4.589a.663.663 0 0 0 0 .96.74.74 0 0 0 .48.204.737.737 0 0 0 .479-.205l5.07-5.068v-.96l-5.07-5.068a.662.662 0 0 0-.959 0m-2.397-.343c-.343-.137-.754.07-.89.48L19.86 20.43c-.138.343.068.753.479.89h.206c.274 0 .548-.205.685-.48l3.356-10.684c.068-.41-.137-.822-.48-.89"/><path stroke="#B5D0E7" stroke-linecap="round" stroke-linejoin="round" stroke-width="1.559" d="M11.547 44.383h10.328M11.547 38.77h13.056m-13.056-5.613h13.056m-13.056-5.61H31.42"/></g></svg>