<svg version="1.1" id="Layer_1" xmlns="http://www.w3.org/2000/svg" x="0" y="0" viewBox="0 0 64 64" xml:space="preserve"><style>.st0{fill:none;stroke:#ed2e26;stroke-width:2;stroke-linecap:round;stroke-linejoin:round}.st1{fill:#ed2e26}.st2{fill-rule:evenodd;clip-rule:evenodd;fill:#b5d0e5;stroke:#b5d0e7;stroke-linecap:round;stroke-linejoin:round}.st8{fill:#fff}</style><path class="st0" d="M2.58 6.99h58.64v38.9H2.58zM2.58 14.03h58.64"/><circle class="st1" cx="6.83" cy="10.33" r=".95"/><circle class="st1" cx="10.07" cy="10.33" r=".95"/><circle class="st1" cx="13.32" cy="10.33" r=".95"/><path class="st2" d="M27.22 24.63H13.19v-4.14H30.3v1.06c0 1.7-1.38 3.08-3.08 3.08zM27.22 31.97H13.19v-4.14H30.3v1.06c0 1.7-1.38 3.08-3.08 3.08zM27.22 39.32H13.19v-4.14H30.3v1.06c0 1.7-1.38 3.08-3.08 3.08z"/><g id="Magnify_3_" stroke="#b5d0e7" stroke-width="2" stroke-linecap="round" stroke-linejoin="round"><path id="Oval_34_" d="M39.99 29.74c5.78 0 10.47 4.69 10.47 10.47s-4.69 10.47-10.47 10.47S29.52 46 29.52 40.22c0-5.79 4.69-10.48 10.47-10.48z" fill="#fff"/><path id="Path-12_9_" d="M47.8 48.16l11.18 8.93-1.66 1.83-9.52-10.76" fill="#b5d0e5"/></g><path fill="none" stroke="#b5d0e7" stroke-linecap="round" stroke-linejoin="round" d="M13.45 37.19H6.83V22.62h2.62"/><path fill-rule="evenodd" clip-rule="evenodd" fill="#b5d0e5" stroke="#b5d0e7" stroke-width=".5" stroke-linecap="round" stroke-linejoin="round" d="M9.28 24.86l2.98-2.3-2.98-2.3z"/><path d="M56.93 25.88l-8.55-15.43c-.41-.74-1.48-.74-1.89 0l-8.55 15.43c-.4.72.12 1.6.94 1.6h17.09c.83 0 1.35-.88.96-1.6z" fill="#b5d0e5"/><path class="st8" d="M46.52 22.72h1.84v1.91h-1.84zM48.42 15.44l-.51 6.12h-.93l-.53-6.12v-.49h1.97z"/></svg>