
<svg width="68px" height="76px" viewBox="0 0 68 76" version="1.1" xmlns="http://www.w3.org/2000/svg" xmlns:xlink="http://www.w3.org/1999/xlink">
    <!-- Generator: Sketch 44.1 (41455) - http://www.bohemiancoding.com/sketch -->
    <desc>Created with Sketch.</desc>
    <defs></defs>
    <g id="12.1-13-App-detail" stroke="none" stroke-width="1" fill="none" fill-rule="evenodd">
        <g id="12.9-App-Detail---WAS" transform="translate(-186.000000, -1398.000000)">
            <g id="---Features-overview" transform="translate(185.000000, 1290.000000)">
                <g id="::-01" transform="translate(0.000000, 108.000000)">
                    <g id="icon" transform="translate(1.000000, 0.000000)">
                        <path d="M34,33.2482187 L34,11.7817812" id="Stroke-1" stroke="#EC3027" stroke-width="2" stroke-linecap="round" stroke-linejoin="round"></path>
                        <path d="M34,64.122625 L34,42.657375" id="Stroke-2" stroke="#EC3027" stroke-width="2" stroke-linecap="round" stroke-linejoin="round"></path>
                        <path d="M61.0559103,24.9375 L38.6897724,36.8125" id="Stroke-3" stroke="#EC3027" stroke-width="2" stroke-linecap="round" stroke-linejoin="round"></path>
                        <path d="M61.0559103,52.25 L38.6897724,40.375" id="Stroke-4" stroke="#EC3027" stroke-width="2" stroke-linecap="round" stroke-linejoin="round"></path>
                        <path d="M9.37931034,24.9375 L31.7454483,36.8125" id="Stroke-5" stroke="#EC3027" stroke-width="2" stroke-linecap="round" stroke-linejoin="round"></path>
                        <path d="M9.37931034,52.25 L31.7454483,40.375" id="Stroke-6" stroke="#EC3027" stroke-width="2" stroke-linecap="round" stroke-linejoin="round"></path>
                        <g id="Group-39">
                            <path d="M34,26.125 C40.4752414,26.125 45.7241379,31.4414375 45.7241379,38 C45.7241379,44.5585625 40.4752414,49.875 34,49.875 C27.5247586,49.875 22.2758621,44.5585625 22.2758621,38 C22.2758621,31.4414375 27.5247586,26.125 34,26.125" id="Fill-7" fill="#FFFFFF"></path>
                            <path d="M34,27.3125 C39.828069,27.3125 44.5517241,32.0969375 44.5517241,38 C44.5517241,43.9030625 39.828069,48.6875 34,48.6875 C28.171931,48.6875 23.4482759,43.9030625 23.4482759,38 C23.4482759,32.0969375 28.171931,27.3125 34,27.3125 Z" id="Stroke-9" stroke="#EC3027" stroke-width="2"></path>
                            <path d="M34,32.0625 C37.2382069,32.0625 39.862069,34.7213125 39.862069,38 C39.862069,41.279875 37.2382069,43.9375 34,43.9375 C30.7617931,43.9375 28.137931,41.279875 28.137931,38 C28.137931,34.7213125 30.7617931,32.0625 34,32.0625" id="Fill-11" fill="#EC3027"></path>
                            <polygon id="Stroke-13" stroke="#B5CFE5" stroke-width="2" points="33.9771379 4.88620625 5.66451724 21.4423312 5.66451724 54.5581437 33.9771379 71.1130812 62.290931 54.5581437 62.290931 21.4423312"></polygon>
                            <path d="M34,0 C37.2382069,0 39.862069,2.6588125 39.862069,5.9375 C39.862069,9.2161875 37.2382069,11.875 34,11.875 C30.7617931,11.875 28.137931,9.2161875 28.137931,5.9375 C28.137931,2.6588125 30.7617931,0 34,0" id="Fill-15" fill="#FFFFFF"></path>
                            <path d="M34,1.1875 C36.5898621,1.1875 38.6896552,3.3143125 38.6896552,5.9375 C38.6896552,8.5606875 36.5898621,10.6875 34,10.6875 C31.4101379,10.6875 29.3103448,8.5606875 29.3103448,5.9375 C29.3103448,3.3143125 31.4101379,1.1875 34,1.1875 Z" id="Stroke-17" stroke="#B5CFE5" stroke-width="2"></path>
                            <path d="M5.86206897,17.8125 C9.10027586,17.8125 11.7241379,20.4713125 11.7241379,23.75 C11.7241379,27.0286875 9.10027586,29.6875 5.86206897,29.6875 C2.62386207,29.6875 0,27.0286875 0,23.75 C0,20.4713125 2.62386207,17.8125 5.86206897,17.8125" id="Fill-19" fill="#FFFFFF"></path>
                            <path d="M5.86206897,19 C8.45193103,19 10.5517241,21.1268125 10.5517241,23.75 C10.5517241,26.3731875 8.45193103,28.5 5.86206897,28.5 C3.2722069,28.5 1.17241379,26.3731875 1.17241379,23.75 C1.17241379,21.1268125 3.2722069,19 5.86206897,19 Z" id="Stroke-21" stroke="#B5CFE5" stroke-width="2"></path>
                            <path d="M62.137931,17.8125 C65.3761379,17.8125 68,20.4713125 68,23.75 C68,27.0286875 65.3761379,29.6875 62.137931,29.6875 C58.8997241,29.6875 56.2758621,27.0286875 56.2758621,23.75 C56.2758621,20.4713125 58.8997241,17.8125 62.137931,17.8125" id="Fill-23" fill="#FFFFFF"></path>
                            <path d="M62.137931,19 C64.7277931,19 66.8275862,21.1268125 66.8275862,23.75 C66.8275862,26.3731875 64.7277931,28.5 62.137931,28.5 C59.548069,28.5 57.4482759,26.3731875 57.4482759,23.75 C57.4482759,21.1268125 59.548069,19 62.137931,19 Z" id="Stroke-25" stroke="#B5CFE5" stroke-width="2"></path>
                            <path d="M5.86206897,46.3125 C9.10027586,46.3125 11.7241379,48.970125 11.7241379,52.25 C11.7241379,55.529875 9.10027586,58.1875 5.86206897,58.1875 C2.62386207,58.1875 0,55.529875 0,52.25 C0,48.970125 2.62386207,46.3125 5.86206897,46.3125" id="Fill-27" fill="#FFFFFF"></path>
                            <path d="M5.86206897,47.5 C8.45193103,47.5 10.5517241,49.6268125 10.5517241,52.25 C10.5517241,54.8731875 8.45193103,57 5.86206897,57 C3.2722069,57 1.17241379,54.8731875 1.17241379,52.25 C1.17241379,49.6268125 3.2722069,47.5 5.86206897,47.5 Z" id="Stroke-29" stroke="#B5CFE5" stroke-width="2"></path>
                            <path d="M62.137931,46.3125 C65.3761379,46.3125 68,48.970125 68,52.25 C68,55.529875 65.3761379,58.1875 62.137931,58.1875 C58.8997241,58.1875 56.2758621,55.529875 56.2758621,52.25 C56.2758621,48.970125 58.8997241,46.3125 62.137931,46.3125" id="Fill-31" fill="#FFFFFF"></path>
                            <path d="M62.137931,47.5 C64.7277931,47.5 66.8275862,49.6268125 66.8275862,52.25 C66.8275862,54.8731875 64.7277931,57 62.137931,57 C59.548069,57 57.4482759,54.8731875 57.4482759,52.25 C57.4482759,49.6268125 59.548069,47.5 62.137931,47.5 Z" id="Stroke-33" stroke="#B5CFE5" stroke-width="2"></path>
                            <path d="M34,64.125 C37.2382069,64.125 39.862069,66.782625 39.862069,70.0625 C39.862069,73.342375 37.2382069,76 34,76 C30.7617931,76 28.137931,73.342375 28.137931,70.0625 C28.137931,66.782625 30.7617931,64.125 34,64.125" id="Fill-35" fill="#FFFFFF"></path>
                            <path d="M34,65.3125 C36.5898621,65.3125 38.6896552,67.4393125 38.6896552,70.0625 C38.6896552,72.6856875 36.5898621,74.8125 34,74.8125 C31.4101379,74.8125 29.3103448,72.6856875 29.3103448,70.0625 C29.3103448,67.4393125 31.4101379,65.3125 34,65.3125 Z" id="Stroke-37" stroke="#B5CFE5" stroke-width="2"></path>
                        </g>
                    </g>
                </g>
            </g>
        </g>
    </g>
</svg>