<svg width="62" height="62" viewBox="0 0 62 62" xmlns="http://www.w3.org/2000/svg"><g fill="none" fill-rule="evenodd"><path fill="#FFF" d="M20.207 11.793L31 1l10.793 10.793"/><path stroke="#B5D0E7" stroke-width="2" stroke-linecap="round" stroke-linejoin="round" d="M20.207 11.793L31 1l10.793 10.793"/><path fill="#FFF" d="M11.793 41.793L1 31l10.793-10.793"/><path stroke="#B5D0E7" stroke-width="2" stroke-linecap="round" stroke-linejoin="round" d="M11.793 41.793L1 31l10.793-10.793"/><path fill="#FFF" d="M50.207 20.207L61 31 50.207 41.793"/><path stroke="#B5D0E7" stroke-width="2" stroke-linecap="round" stroke-linejoin="round" d="M50.207 20.207L61 31 50.207 41.793"/><path fill="#FFF" d="M41.793 50.207L31 61 20.207 50.207"/><path stroke="#B5D0E7" stroke-width="2" stroke-linecap="round" stroke-linejoin="round" d="M41.793 50.207L31 61 20.207 50.207"/><path d="M1 31h60H1z" fill="#FFF"/><path d="M1 31h60" stroke="#B5D0E7" stroke-width="2" stroke-linecap="round" stroke-linejoin="round"/><path d="M31 61V1v60z" fill="#FFF"/><path d="M31 1v60" stroke="#B5D0E7" stroke-width="2" stroke-linecap="round" stroke-linejoin="round"/><path d="M31 19.004c6.625 0 11.996 5.37 11.996 11.996 0 6.625-5.371 11.996-11.996 11.996S19.004 37.625 19.004 31 24.375 19.004 31 19.004" fill="#ED2E26"/><path stroke="#FFF" stroke-width="2" stroke-linecap="round" stroke-linejoin="round" d="M25.843 31l3.697 3.697 6.785-6.784"/></g></svg>