
<svg width="62px" height="58px" viewBox="0 0 62 58" version="1.1" xmlns="http://www.w3.org/2000/svg" xmlns:xlink="http://www.w3.org/1999/xlink">
    <!-- Generator: Sketch 44.1 (41455) - http://www.bohemiancoding.com/sketch -->
    <desc>Created with Sketch.</desc>
    <defs></defs>
    <g id="12.1-13-App-detail" stroke="none" stroke-width="1" fill="none" fill-rule="evenodd">
        <g id="12.4-App-Detail---Continuous-Monitoring" transform="translate(-558.000000, -2459.000000)">
            <g id="---Powered-by-Qualys-Cloud-Platform" transform="translate(185.000000, 2330.000000)">
                <g id="::-2" transform="translate(373.000000, 129.000000)">
                    <g id="::-icon-copy-2">
                        <path d="M31.018,13.8655 L31.018,13.8655 C39.321,13.8775 46.043,20.6185 46.031,28.9215 L46.031,28.9215 C46.019,37.2245 39.278,43.9465 30.975,43.9345 L30.975,43.9345 C22.672,43.9225 15.95,37.1815 15.962,28.8785 L15.962,28.8785 C15.974,20.5755 22.715,13.8535 31.018,13.8655" id="Fill-1" fill="#ED2E26"></path>
                        <path d="M51.8476,28.9511 C51.8476,17.4351 42.5126,8.1001 30.9966,8.1001 L2.4916,8.1001" id="Stroke-3" stroke="#B5D0E7" stroke-width="2" stroke-linecap="round" stroke-linejoin="round"></path>
                        <path d="M16.2525,14.2071 C12.4795,17.9801 10.1455,23.1931 10.1455,28.9511" id="Stroke-5" stroke="#B5D0E7" stroke-width="2" stroke-linecap="round" stroke-linejoin="round"></path>
                        <path d="M30.9965,20.8706 C24.1105,20.8706 21.2355,28.1026 21.1165,28.4106 C20.9995,28.7136 20.9845,29.0466 21.0725,29.3596 C21.8235,32.0126 24.8635,37.0316 30.9965,37.0316 C37.1295,37.0316 40.1695,32.0126 40.9205,29.3596 C41.0085,29.0466 40.9935,28.7136 40.8765,28.4106 C40.7575,28.1026 37.8825,20.8706 30.9965,20.8706 M30.9965,22.3706 C36.9335,22.3706 39.4775,28.9506 39.4775,28.9506 C39.4775,28.9506 37.6155,35.5316 30.9965,35.5316 C24.3775,35.5316 22.5155,28.9506 22.5155,28.9506 C22.5155,28.9506 25.0595,22.3706 30.9965,22.3706" id="Fill-7" fill="#FFFFFF"></path>
                        <path d="M27.3167,28.9511 C27.3167,26.9191 28.9647,25.2711 30.9967,25.2711 C33.0287,25.2711 34.6767,26.9191 34.6767,28.9511 C34.6767,30.9831 33.0287,32.6311 30.9967,32.6311 C28.9647,32.6311 27.3167,30.9831 27.3167,28.9511 Z" id="Stroke-9" stroke="#FFFFFF" stroke-width="1.5" stroke-linecap="round" stroke-linejoin="round"></path>
                        <polyline id="Stroke-11" stroke="#B5D0E7" stroke-width="2" stroke-linecap="round" stroke-linejoin="round" points="8.1 15.2035 0.996 8.0995 8.1 0.9965"></polyline>
                        <path d="M10.1454,28.8488 C10.1454,40.3648 19.4804,49.6998 30.9964,49.6998 L59.5014,49.6998" id="Stroke-13" stroke="#B5D0E7" stroke-width="2" stroke-linecap="round" stroke-linejoin="round"></path>
                        <path d="M45.7404,43.5928 C49.5134,39.8198 51.8474,34.6068 51.8474,28.8488" id="Stroke-15" stroke="#B5D0E7" stroke-width="2" stroke-linecap="round" stroke-linejoin="round"></path>
                        <polyline id="Stroke-17" stroke="#B5D0E7" stroke-width="2" stroke-linecap="round" stroke-linejoin="round" points="53.893 42.5964 60.997 49.7004 53.893 56.8034"></polyline>
                    </g>
                </g>
            </g>
        </g>
    </g>
</svg>