<svg xmlns="http://www.w3.org/2000/svg" width="63" height="62" viewBox="0 0 63 62"><g fill="none" fill-rule="evenodd"><path stroke="#B5D0E7" stroke-width="2" d="M51.018 47.157l-1.376 7.425a29.905 29.905 0 01-15.668 6.278 8.794 8.794 0 00-1.774-2.505 8.632 8.632 0 00-3.652-2.138 6.19 6.19 0 01-2.75-1.657 6.31 6.31 0 01-1.555-2.805 8.154 8.154 0 013.554-8.866l.27-.165c1.15-.735 1.202-2.4.098-3.195l-6.245-4.5a40.915 40.915 0 01-9.062-8.97l-1.466-1.995a14.269 14.269 0 01-2.773-8.453v-4.56c5.501-6.165 13.52-10.05 22.439-10.05a29.97 29.97 0 0114.827 3.9 15.195 15.195 0 01-5.501 4.815c-.984.51-1.78 1.14-2.044 2.092a7.597 7.597 0 00-.263 2.003 7.67 7.67 0 001.495 4.553c.324.435.586.907.79 1.402l.818 1.988a1.558 1.558 0 01-2.607 1.627l-1.66-1.86a8.443 8.443 0 00-2.015-1.635l-2.082-1.222a8.324 8.324 0 00-5.034-1.11l-2.18.202a6.201 6.201 0 00-2.75.96 6.115 6.115 0 00-1.999 2.108 6.109 6.109 0 00-.36 5.355l.39.952a1.248 1.248 0 001.872.548l1.555-1.08a1.944 1.944 0 012.059-.113l1.893 1.043c.55.3.917.84 1 1.455l.406 3.173a9.06 9.06 0 002.818 5.467l.699.645a3.258 3.258 0 003.42.638l.871-.353a6.34 6.34 0 015.681.503l5.884 3.645a4.314 4.314 0 011.977 4.455z" stroke-linecap="round" stroke-linejoin="round"/><path stroke="#B5D0E7" stroke-width="2" d="M1 31.001C1 14.432 14.457 1 31.058 1s30.059 13.432 30.059 30.001c0 16.569-13.458 30.001-30.059 30.001S1 47.57 1 31.001z" stroke-linecap="round" stroke-linejoin="round"/><path fill="#ED2E26" d="M32.166 29.94H58.98a2.62 2.62 0 012.622 2.616V59.32a2.62 2.62 0 01-2.622 2.616H32.166a2.618 2.618 0 01-2.621-2.616V32.556a2.618 2.618 0 012.62-2.616"/><path stroke="#FFF" stroke-width="2" d="M35.52 55.316l5.517-8.786 4.593 3.616 7.894-13.756" stroke-linecap="round" stroke-linejoin="round"/><path stroke="#FFF" stroke-width="2" d="M47.666 38.168l5.858-1.777 1.78 5.847" stroke-linecap="round" stroke-linejoin="round"/></g></svg>