
<svg width="70px" height="70px" viewBox="0 0 70 70" version="1.1" xmlns="http://www.w3.org/2000/svg" xmlns:xlink="http://www.w3.org/1999/xlink">
    <!-- Generator: Sketch 44.1 (41455) - http://www.bohemiancoding.com/sketch -->
    <desc>Created with Sketch.</desc>
    <defs>
        <polygon id="path-1" points="31.7619048 0.503809524 31.7619048 31.7619048 16.1330214 31.7619048 0.504138095 31.7619048 0.504138095 0.503809524 31.7619048 0.503809524"></polygon>
    </defs>
    <g id="12.1-13-App-detail" stroke="none" stroke-width="1" fill="none" fill-rule="evenodd">
        <g id="12.4-App-Detail---Continuous-Monitoring" transform="translate(-735.000000, -1403.000000)">
            <g id="---Features-overview" transform="translate(185.000000, 1290.000000)">
                <g id="::-02" transform="translate(550.000000, 114.000000)">
                    <g id="icon" transform="translate(1.000000, 0.000000)">
                        <path d="M53.8078429,49.7509714 L52.327081,57.7538762 C47.5978429,61.4809714 41.8007476,63.9156857 35.4702714,64.5202571 C34.9949381,63.5104476 34.3476524,62.597019 33.5645571,61.8215905 C32.4802714,60.7537333 31.1386048,59.952019 29.6348429,59.5172095 C28.4870333,59.1842571 27.4772238,58.5621619 26.6777,57.729781 C25.8847476,56.8963048 25.2955095,55.8624 25.003081,54.7069238 C24.0896524,51.0291143 25.6273667,47.1804476 28.8254619,45.1498762 L29.1178905,44.9735429 C30.3544143,44.1805905 30.4113667,42.3854952 29.2241286,41.529019 L22.5048429,36.6782095 C18.770081,33.9872095 15.4799857,30.7212095 12.7561286,27.0094476 L11.1778905,24.8594952 C9.24041429,22.2155905 8.19665238,19.0229714 8.19665238,15.7493048 L8.19665238,10.8338762 C14.1142238,4.18906667 22.740319,0.00197142857 32.3357,0.00197142857 C38.1317,0.00197142857 43.5728429,1.52873333 48.2856524,4.20549524 C46.775319,6.37844762 44.7447476,8.16587619 42.3691762,9.39582857 C41.3078905,9.94454286 40.4514143,10.6235905 40.1688429,11.6498286 C39.9749857,12.3617333 39.8873667,13.0878762 39.8873667,13.8085429 C39.8873667,15.5543524 40.436081,17.2771619 41.4951762,18.7163048 C41.8423667,19.1850667 42.1260333,19.6932571 42.3428905,20.2266381 L43.2256524,22.370019 C43.3143667,22.5803048 43.3461286,22.7905905 43.3461286,23.0019714 C43.3461286,23.6711619 42.9419857,24.3096857 42.2717,24.5703524 C41.623319,24.8189714 40.8807476,24.6415429 40.4196524,24.1234952 L38.633319,22.1192095 C38.0024619,21.4248286 37.2752238,20.8257333 36.4669381,20.3569714 L34.2271762,19.0394 C32.5941762,18.0766857 30.6950333,17.6561143 28.812319,17.8434 L26.466319,18.0602571 C25.3995571,18.1664952 24.3798905,18.5301143 23.508081,19.0963524 C22.6264143,19.6614952 21.8915095,20.438019 21.3570333,21.3678762 C20.3461286,23.129019 20.2004619,25.2548762 20.9704143,27.1386857 L21.3887952,28.166019 C21.7129857,28.9666381 22.7008905,29.2492095 23.4029381,28.7563524 L25.0764619,27.5921143 C25.7314143,27.1321143 26.5878905,27.0828286 27.2910333,27.4705429 L29.327081,28.5953524 C29.9185095,28.9184476 30.3149857,29.500019 30.4037,30.1626381 L30.8407,33.5830667 C31.1320333,35.8381619 32.2042714,37.9224 33.8712238,39.4754476 L34.6236524,40.1709238 C35.6181286,41.092019 37.0485095,41.3592571 38.3014619,40.8587333 L39.2378905,40.4786857 C41.2443667,39.6791619 43.5169857,39.8795905 45.349319,41.0186381 L51.6808905,44.9483524 C53.3138905,45.9581619 54.1528429,47.8660667 53.8078429,49.7509714 Z" id="Stroke-1" stroke="#B5CFE5" stroke-width="2" stroke-linecap="round" stroke-linejoin="round"></path>
                        <path d="M0,32.3367952 C0,14.4778429 14.4779524,-0.00010952381 32.3347143,-0.00010952381 C50.1936667,-0.00010952381 64.671619,14.4778429 64.671619,32.3367952 C64.671619,50.1957476 50.1936667,64.6737 32.3347143,64.6737 C14.4779524,64.6737 0,50.1957476 0,32.3367952 Z" id="Stroke-3" stroke="#B5CFE5" stroke-width="2" stroke-linecap="round" stroke-linejoin="round"></path>
                        <g id="Group-7" transform="translate(37.238095, 37.238095)">
                            <mask id="mask-2" fill="white">
                                <use xlink:href="#path-1"></use>
                            </mask>
                            <g id="Clip-6"></g>
                            <path d="M3.09109048,0.503809524 L29.1741857,0.503809524 C30.6034714,0.503809524 31.7622333,1.66257143 31.7622333,3.0907619 L31.7622333,29.1749524 C31.7622333,30.6031429 30.6034714,31.7619048 29.1741857,31.7619048 L3.09109048,31.7619048 C1.66180476,31.7619048 0.504138095,30.6031429 0.504138095,29.1749524 L0.504138095,3.0907619 C0.504138095,1.66257143 1.66180476,0.503809524 3.09109048,0.503809524" id="Fill-5" fill="#ED2E26" mask="url(#mask-2)"></path>
                        </g>
                        <polyline id="Stroke-8" stroke="#FFFFFF" stroke-width="2" stroke-linecap="round" stroke-linejoin="round" points="43.1314619 55.7886905 47.2539381 55.7886905 49.7456048 51.7155 52.4858905 61.4554524 55.4485095 47.4429762 58.3191286 55.7886905 62.5336048 55.7886905"></polyline>
                    </g>
                </g>
            </g>
        </g>
    </g>
</svg>