<svg version="1.1" id="Layer_1" xmlns="http://www.w3.org/2000/svg" x="0" y="0" viewBox="0 0 65 65" xml:space="preserve"><style>.st2{fill:#ed2e26}.st3{fill:#fefefe}</style><text transform="translate(10.421 79.305)"><tspan x="0" y="0" fill="#fff" font-family="Gotham-Book" font-size="8">Continuous</tspan><tspan x="-.24" y="9.6" fill="#fff" font-family="Gotham-Book" font-size="8">assessment</tspan><tspan x="-5.15" y="19.2" fill="#fff" font-family="Gotham-Book" font-size="8">of your global</tspan><tspan x="-1.74" y="28.8" fill="#fff" font-family="Gotham-Book" font-size="8">security and</tspan><tspan x="-16.7" y="38.4" fill="#fff" font-family="Gotham-Book" font-size="8">compliance posture</tspan></text><path id="Stroke-1_14_" d="M49.27 46.23l-1.16 6.25a25.058 25.058 0 01-13.16 5.28c-.37-.79-.88-1.5-1.49-2.11a7.27 7.27 0 00-3.07-1.8c-.9-.26-1.69-.75-2.31-1.39a5.34 5.34 0 01-1.31-2.36c-.71-2.87.49-5.88 2.99-7.46l.23-.14c.97-.62 1.01-2.02.08-2.69l-5.25-3.79a34.07 34.07 0 01-7.61-7.55l-1.23-1.68a11.991 11.991 0 01-2.33-7.12v-3.84c4.62-5.19 11.36-8.46 18.85-8.46 4.53 0 8.78 1.19 12.46 3.28-1.18 1.7-2.77 3.09-4.62 4.05-.83.43-1.5.96-1.72 1.76a6.48 6.48 0 00-.22 1.69c0 1.36.43 2.71 1.26 3.83.27.37.49.76.66 1.18l.69 1.67c.07.16.1.33.1.49a1.313 1.313 0 01-2.29.87l-1.4-1.57a7.247 7.247 0 00-1.69-1.38l-1.75-1.03a6.97 6.97 0 00-4.23-.93l-1.83.17a5.203 5.203 0 00-3.99 2.58 5.15 5.15 0 00-.3 4.51l.33.8c.25.63 1.02.85 1.57.46l1.31-.91c.51-.36 1.18-.4 1.73-.1l1.59.88c.46.25.77.71.84 1.22l.34 2.67a7.645 7.645 0 002.37 4.6l.59.54c.78.72 1.89.93 2.87.54l.73-.3c1.57-.62 3.34-.47 4.77.42l4.94 3.07c1.28.84 1.93 2.33 1.66 3.8z" fill="#dae7f2"/><path d="M32.5 58.89c-14.48 0-26.25-11.78-26.25-26.26S18.02 6.38 32.5 6.38s26.25 11.78 26.25 26.26S46.98 58.89 32.5 58.89zm0-50.51c-13.37 0-24.25 10.88-24.25 24.26S19.13 56.89 32.5 56.89s24.25-10.88 24.25-24.26S45.88 8.38 32.5 8.38z" fill="#b5d0e7"/><path class="st2" d="M50.32 47.2c-.36.57-.75 1.13-1.16 1.67.59-.37 1.02-.97 1.16-1.67z"/><path class="st2" d="M52.54 42.68a8.7 8.7 0 00-.74-.59c-.25-.18-.51-.34-.79-.48-.93-.5-2.01-.84-3.26-.84-5.32 0-7.6 5.9-7.6 5.9s.93 3.27 3.85 4.94c.28.16.59.31.91.44.31.12.65.22 1 .31.57.13 1.18.22 1.85.22 5.93 0 7.6-5.9 7.6-5.9s-.88-2.28-2.82-4zm-4.79 7.96c-.02 0-.05-.01-.07-.01-.37-.01-.72-.07-1.06-.18a3.54 3.54 0 01-.89-.39 3.958 3.958 0 01-1.95-3.4c0-2.19 1.78-3.97 3.97-3.97.94 0 1.8.34 2.48.9.25.2.48.43.68.69.22.29.4.6.53.94.18.45.28.93.28 1.44.01 2.2-1.78 3.98-3.97 3.98z"/><path class="st2" d="M49.63 44.83c-.48-.49-1.14-.79-1.88-.79-1.45 0-2.63 1.18-2.63 2.63 0 1.07.64 1.99 1.56 2.4.31.14.65.22 1 .22.02 0 .04.01.06.01.52 0 1-.16 1.41-.42.41-.54.8-1.1 1.16-1.67.04-.17.06-.35.06-.54 0-.34-.07-.67-.19-.97-.12-.33-.31-.62-.55-.87z"/><path class="st2" d="M53.91 34.64c-.3-.15-.6-.31-.91-.44-.29-.12-.6-.23-.91-.33-1.36-.46-2.81-.72-4.32-.73-3.23 0-6.2 1.13-8.52 3.03A13.49 13.49 0 0035 42.29a13.423 13.423 0 002.36 12.9c.21.25.43.49.66.73.23.24.47.47.72.69 2.38 2.15 5.53 3.48 9 3.48 7.44.01 13.49-6.01 13.5-13.46 0-5.22-2.98-9.75-7.33-11.99zm2.74 12.39c-.67 2.38-3.4 6.88-8.9 6.88-1.15 0-2.18-.21-3.1-.54a8.883 8.883 0 01-1.8-.91c-2.29-1.52-3.57-3.91-4-5.42-.08-.28-.07-.58.04-.85.11-.28 2.68-6.76 8.86-6.76 1.4 0 2.61.34 3.66.87a8.859 8.859 0 011.58 1.01c2.44 1.94 3.55 4.71 3.62 4.89.11.25.12.55.04.83z"/><path class="st3" d="M56.61 46.18c-.07-.18-1.18-2.95-3.62-4.89a8.985 8.985 0 00-1.58-1.01 8.07 8.07 0 00-3.66-.87c-6.17 0-8.75 6.48-8.86 6.76-.1.27-.12.57-.04.85.43 1.52 1.7 3.9 4 5.42a8.883 8.883 0 001.8.91c.92.34 1.94.54 3.1.54 5.5 0 8.22-4.5 8.9-6.88.08-.26.07-.56-.04-.83zm-8.86 6.39c-.67 0-1.28-.08-1.85-.22a6.14 6.14 0 01-1-.31 6.95 6.95 0 01-.91-.44c-2.92-1.67-3.85-4.94-3.85-4.94s2.28-5.9 7.6-5.9c1.25 0 2.33.33 3.26.84.28.15.54.31.79.48.26.19.51.38.74.59 1.93 1.72 2.81 3.99 2.81 3.99s-1.65 5.91-7.59 5.91z"/><path class="st3" d="M51.44 45.22a3.79 3.79 0 00-.53-.94c-.2-.26-.42-.49-.68-.69-.68-.55-1.54-.9-2.48-.9-2.19 0-3.97 1.78-3.97 3.97 0 1.45.79 2.71 1.95 3.4.28.17.58.29.89.39.34.1.69.17 1.06.18.02 0 .05.01.07.01 2.19 0 3.97-1.78 3.97-3.97.01-.51-.1-1-.28-1.45zm-2.28 3.65c-.41.26-.89.42-1.41.42-.02 0-.04-.01-.06-.01-.36-.01-.7-.09-1-.22a2.626 2.626 0 01-1.56-2.4c0-1.45 1.18-2.63 2.63-2.63.74 0 1.4.31 1.88.79.24.25.43.54.56.86.12.3.19.63.19.97 0 .18-.02.36-.06.54a2.62 2.62 0 01-1.17 1.68z"/></svg>