<svg version="1.1" id="Layer_1" xmlns="http://www.w3.org/2000/svg" x="0" y="0" viewBox="0 0 64 64" xml:space="preserve"><style>.st0{fill:none;stroke:#b5cfe5;stroke-width:2;stroke-linecap:round;stroke-linejoin:round}.st2{fill:#fff}.st3{fill:#b5d0e5}</style><g id="Page-1_45_"><path id="Stroke-1_20_" class="st0" d="M51.63 47.97l-1.35 7.31c-4.32 3.4-9.61 5.63-15.39 6.18A8.387 8.387 0 0033.15 59a8.396 8.396 0 00-3.59-2.1c-1.05-.3-1.97-.87-2.7-1.63a6.314 6.314 0 01-1.53-2.76c-.83-3.36.57-6.87 3.49-8.73l.27-.16c1.13-.72 1.18-2.36.1-3.14l-6.13-4.43a40.296 40.296 0 01-8.9-8.83l-1.44-1.96A14.061 14.061 0 0110 16.94v-4.49c5.4-6.07 13.28-9.89 22.04-9.89 5.29 0 10.26 1.39 14.56 3.84a14.96 14.96 0 01-5.4 4.74c-.97.5-1.75 1.12-2.01 2.06-.18.65-.26 1.31-.26 1.97 0 1.59.5 3.17 1.47 4.48.32.43.58.89.77 1.38l.81 1.96c.08.19.11.38.11.58 0 .61-.37 1.19-.98 1.43-.59.23-1.27.06-1.69-.41l-1.63-1.83a8.524 8.524 0 00-1.98-1.61l-2.04-1.2a8.138 8.138 0 00-4.94-1.09l-2.14.2c-.97.1-1.91.43-2.7.95-.8.52-1.48 1.22-1.96 2.07a5.998 5.998 0 00-.35 5.27l.38.94c.3.73 1.2.99 1.84.54l1.53-1.06c.6-.42 1.38-.46 2.02-.11l1.86 1.03c.54.3.9.83.98 1.43l.4 3.12a8.955 8.955 0 002.77 5.38l.69.63c.91.84 2.21 1.08 3.36.63l.86-.35c1.83-.73 3.91-.55 5.58.49l5.78 3.59c1.45.89 2.21 2.63 1.9 4.36z"/><path id="Stroke-3_9_" class="st0" d="M2.5 32.07c0-16.31 13.22-29.52 29.52-29.52 16.31 0 29.52 13.22 29.52 29.52 0 16.31-13.22 29.52-29.52 29.52S2.5 48.37 2.5 32.07z"/></g><path id="Fill-3_44_" d="M49.18 31.79c8.38 0 12.6 4.48 12.6 4.48s.48 3.32.17 10c-.46 10.1-12.77 16.16-12.77 16.16s-12.31-6.07-12.77-16.16c-.31-6.68.17-10 .17-10s4.22-4.48 12.6-4.48" fill="#ec3027"/><path id="Fill-6_28_" class="st2" d="M42.82 45.5c0-3.57 2.82-6.48 6.29-6.48s6.3 2.82 6.3 6.3c0 2.77-2.38 5.05-4.22 6.23.71.41 2.28.83 3.79.97 2.2-1.7 3.54-4.33 3.54-7.2 0-5.19-4.22-9.41-9.41-9.41s-9.41 4.22-9.41 9.41c0 3.13 1.3 5.92 3.77 8.05 2.31 1.99 5.68 3.32 9.52 3.95.83-.46 2.26-1.82 2.79-2.61-3.21-.41-6.25-1.19-8.28-2.26-3.1-1.63-4.68-3.97-4.68-6.95"/><path class="st3" d="M10.71 9.19c.13-1.89 1.66-3.83 3.98-3.83s3.85 1.94 3.96 3.83c.06.99-.23 1.96-.84 2.74l-3.12 4.16-3.12-4.16c-.6-.78-.9-1.75-.86-2.74z"/><circle class="st2" cx="14.68" cy="9.06" r="2.24"/><path class="st3" d="M34.37 13.41c.13-1.89 1.66-3.83 3.98-3.83s3.85 1.94 3.96 3.83c.06.99-.23 1.96-.84 2.74l-3.12 4.16-3.12-4.16c-.6-.78-.9-1.75-.86-2.74z"/><circle class="st2" cx="38.34" cy="13.28" r="2.24"/><g><path class="st3" d="M26.87 7.52c.13-1.89 1.66-3.83 3.98-3.83s3.85 1.94 3.96 3.83c.06.99-.23 1.96-.84 2.74l-3.12 4.16-3.12-4.16c-.6-.78-.91-1.75-.86-2.74z"/><circle class="st2" cx="30.84" cy="7.39" r="2.24"/></g><g><path class="st3" d="M16.92 24.92c.13-1.89 1.66-3.83 3.98-3.83s3.85 1.94 3.96 3.83c.06.99-.23 1.96-.84 2.74l-3.12 4.16-3.12-4.16c-.6-.78-.91-1.75-.86-2.74z"/><circle class="st2" cx="20.89" cy="24.78" r="2.24"/></g><g><path class="st3" d="M22.9 47.59c.13-1.89 1.66-3.83 3.98-3.83s3.85 1.94 3.96 3.83c.06.99-.23 1.96-.84 2.74l-3.12 4.16-3.12-4.16a4.1 4.1 0 01-.86-2.74z"/><circle class="st2" cx="26.87" cy="47.45" r="2.24"/></g></svg>