<svg xmlns="http://www.w3.org/2000/svg" width="61" height="62" viewBox="0 0 61 62"><g fill="none" fill-rule="evenodd"><g stroke="#B5D0E5" stroke-linecap="round" stroke-linejoin="round" stroke-width="1.57"><path d="M49.702 46.334l-1.377 7.263a28.954 28.954 0 01-15.404 6.137c-.376-.877-1.002-1.753-1.753-2.505a8.227 8.227 0 00-3.632-2.129c-1.002-.25-2.004-.876-2.755-1.628-.751-.751-1.252-1.753-1.503-2.755-.876-3.381.626-6.888 3.507-8.766l.25-.125c1.127-.752 1.127-2.38.125-3.131l-6.136-4.383c-3.381-2.505-6.387-5.385-8.891-8.767l-1.378-2.003C9.002 21.162 8 18.157 8 15.276v-4.383C13.385 4.883 21.275 1 30.04 1c5.26 0 10.27 1.378 14.528 3.882-1.378 2.004-3.256 3.632-5.385 4.759-.877.376-1.754 1.002-2.004 2.004-.125.626-.25 1.252-.25 2.003 0 1.628.5 3.131 1.502 4.509.376.375.627.876.752 1.377l.751 2.004c.125.25.125.376.125.626 0 .626-.375 1.253-1.001 1.378-.627.25-1.253.125-1.629-.376l-1.628-1.878a12.645 12.645 0 00-2.003-1.628l-2.004-1.253a8.525 8.525 0 00-4.884-1.127l-2.129.25c-1.002.126-1.878.376-2.755 1.002a6.555 6.555 0 00-2.004 2.13c-.876 1.627-1.002 3.506-.375 5.26l.375.876c.25.751 1.253 1.002 1.879.5l1.503-1.001c.626-.376 1.377-.501 2.003-.125l1.879 1.001c.5.25.876.877 1.002 1.378l.375 3.13c.25 2.005 1.253 4.008 2.755 5.386l.752.5a3.078 3.078 0 003.381.627l.877-.376c1.878-.751 3.882-.5 5.635.501l5.76 3.632c1.378 1.002 2.13 2.755 1.88 4.383z"/><path d="M1 30.555C1 14.275 14.15 1 30.555 1a29.45 29.45 0 0129.554 29.555c0 16.405-13.4 29.554-29.68 29.554S1 46.835 1 30.555z"/></g><path fill="#ED2E26" d="M45.721 32.308c8.14 0 14.778 6.637 14.778 14.777S53.86 61.863 45.72 61.863s-14.777-6.638-14.777-14.778 6.637-14.777 14.777-14.777"/><path fill="#FFF" fill-rule="nonzero" d="M45.806 39.308c-6.763 0-9.643 7.138-9.768 7.389a1.07 1.07 0 000 .876c.751 2.63 3.757 7.514 9.768 7.514 6.011 0 9.017-4.884 9.768-7.514a1.07 1.07 0 000-.876c-.25-.25-3.005-7.389-9.768-7.389m0 1.503c5.886 0 8.39 6.512 8.39 6.512s-1.878 6.512-8.39 6.512c-6.512 0-8.39-6.512-8.39-6.512s2.504-6.512 8.39-6.512"/><path stroke="#FFF" stroke-linecap="round" stroke-linejoin="round" stroke-width="1.178" d="M41.944 46.94a3.634 3.634 0 013.632-3.632 3.634 3.634 0 013.631 3.632 3.634 3.634 0 01-3.631 3.631 3.634 3.634 0 01-3.632-3.631z"/></g></svg>