
<svg width="68px" height="64px" viewBox="0 0 68 64" version="1.1" xmlns="http://www.w3.org/2000/svg" xmlns:xlink="http://www.w3.org/1999/xlink">
    <!-- Generator: Sketch 44.1 (41455) - http://www.bohemiancoding.com/sketch -->
    <desc>Created with Sketch.</desc>
    <defs></defs>
    <g id="12.1-13-App-detail" stroke="none" stroke-width="1" fill="none" fill-rule="evenodd">
        <g id="12.8-App-Detail---PCI" transform="translate(-186.000000, -1410.000000)" stroke-width="2">
            <g id="---Features-overview" transform="translate(185.000000, 1290.000000)">
                <g id="::-01" transform="translate(0.000000, 120.000000)">
                    <g id="icon" transform="translate(2.000000, 1.000000)">
                        <path d="M42.0774484,49.5294483 C50.1762871,48.2156897 54.9538355,42.7051724 56.4122226,32.9989655 C57.8684806,23.2906207 60.0049645,17.7907931 62.8195452,16.4973448" id="Stroke-1" stroke="#B5D0E7" stroke-linecap="round" stroke-linejoin="round"></path>
                        <path d="M49.8171194,18.8953552 L62.8542484,15.6307345" id="Stroke-3" stroke="#B5D0E7" stroke-linecap="round" stroke-linejoin="round"></path>
                        <path d="M66,28.3004345 L62.8543548,15.6310552" id="Stroke-5" stroke="#B5D0E7" stroke-linecap="round" stroke-linejoin="round"></path>
                        <path d="M10.1586774,16.0637724 C7.51335484,23.8618759 10.1150323,30.6850828 17.9647742,36.5344621 C25.8166452,42.3827724 29.6499677,46.8596 29.4647419,49.9628069" id="Stroke-7" stroke="#B5D0E7" stroke-linecap="round" stroke-linejoin="round"></path>
                        <path d="M18.4180452,25.2026793 L10.5193355,14.2874724" id="Stroke-9" stroke="#B5D0E7" stroke-linecap="round" stroke-linejoin="round"></path>
                        <path d="M0,21.9617897 L10.5195484,14.2866172" id="Stroke-11" stroke="#B5D0E7" stroke-linecap="round" stroke-linejoin="round"></path>
                        <path d="M36.2579516,46.7015 C40.3052419,46.7720517 43.5285968,50.1232586 43.4583387,54.1885345 C43.3870161,58.2527414 40.0508226,61.489569 36.0024677,61.4190172 C31.9551774,61.3473966 28.7318226,57.9961897 28.8020806,53.9319828 C28.8734032,49.8677759 32.2095968,46.6309483 36.2579516,46.7015 Z" id="Stroke-13" stroke="#EC3027"></path>
                        <path d="M26.4320419,9.54083793 L35.9339129,0.000320689655" id="Stroke-15" stroke="#EC3027" stroke-linecap="round" stroke-linejoin="round"></path>
                        <path d="M45.4342935,9.54083793 L35.9334871,0.000320689655" id="Stroke-17" stroke="#EC3027" stroke-linecap="round" stroke-linejoin="round"></path>
                        <path d="M36.1301032,1.3142931 L36.1301032,46.6341552" id="Stroke-19" stroke="#EC3027" stroke-linecap="round" stroke-linejoin="round"></path>
                    </g>
                </g>
            </g>
        </g>
    </g>
</svg>