<svg id="Layer_1" data-name="Layer 1" xmlns="http://www.w3.org/2000/svg" viewBox="0 0 64 64"><defs><style>.cls-3{fill:none;stroke:#b5d0e7;stroke-linecap:round;stroke-linejoin:round;stroke-width:2.21px}</style></defs><path id="Fill-3" d="M32.09 6.51c8.19 0 12.31 4.38 12.31 4.38a57.79 57.79 0 01.17 9.77c-.46 9.87-12.48 15.8-12.48 15.8s-12-5.93-12.48-15.8a57.79 57.79 0 01.17-9.77s4.12-4.38 12.31-4.38" fill="#ec3027"/><path id="Fill-6" d="M25.88 19.9A6.24 6.24 0 0132 13.57a6.16 6.16 0 016.16 6.15c0 2.71-2.33 4.94-4.13 6.09a11 11 0 003.71.94 8.87 8.87 0 003.46-7 9.2 9.2 0 00-18.39 0 10.19 10.19 0 003.69 7.87 18.91 18.91 0 009.3 3.86 10.52 10.52 0 002.73-2.55 25.73 25.73 0 01-8.09-2.21c-3-1.6-4.58-3.88-4.58-6.79" fill="#fff"/><circle class="cls-3" cx="32" cy="53.85" r="3.64"/><path class="cls-3" d="M32 50.21V39.17M9.76 53.85h18.6M35.64 53.85h18.6"/></svg>