<svg xmlns="http://www.w3.org/2000/svg" xmlns:xlink="http://www.w3.org/1999/xlink" width="41" height="36"><defs><path id="a" d="M0 0h1.507v2.747H0z"/><path id="c" d="M0 0h16.962v20.196H0z"/></defs><g fill="none" fill-rule="evenodd"><path fill="#B4D0E8" d="M21.798 15.205c-.296 0-.586-.055-.862-.159a.688.688 0 0 0-.89.4.685.685 0 0 0 .4.89c.435.166.89.249 1.352.249h.249c.378 0 .69-.31.69-.69 0-.38-.312-.69-.69-.69h-.249zm-2.108-4.387a.712.712 0 0 0 .365-.103c.305-.193.642-.31 1.001-.345a.68.68 0 0 0 .607-.759.688.688 0 0 0-.759-.607 3.789 3.789 0 0 0-1.579.545.69.69 0 0 0-.22.952c.13.2.358.317.585.317m4-.439h1.379c.38 0 .69-.31.69-.69 0-.378-.31-.689-.69-.689h-1.38c-.379 0-.689.31-.689.69 0 .38.303.69.69.69M12.068 34h-1.38c-.379 0-.689.31-.689.69 0 .38.31.69.69.69h1.379c.379 0 .69-.31.69-.69 0-.38-.311-.69-.69-.69m20.62-13c-.379 0-.689.31-.689.69 0 .38.31.69.69.69h1.379c.379 0 .69-.31.69-.69 0-.38-.311-.69-.69-.69h-1.38zm-2.62-10.62c.379 0 .689-.31.689-.69 0-.38-.31-.69-.69-.69H28.69c-.379 0-.689.31-.689.69 0 .38.31.69.69.69h1.379zm-1.379 12h1.38c.378 0 .689-.31.689-.69 0-.38-.31-.69-.69-.69H28.69c-.38 0-.69.31-.69.69 0 .38.31.69.69.69M24.842 21c-.063 0-.118 0-.18.007a.692.692 0 0 0-.662.718.686.686 0 0 0 .69.661h1.379c.38 0 .69-.31.69-.689 0-.38-.31-.69-.69-.69h-1.227V21zm9.917-5.31c0-.38-.31-.69-.69-.69h-1.378c-.38 0-.691.31-.691.69 0 .38.31.69.69.69h1.38c.386 0 .69-.31.69-.69M24.69 15c-.38 0-.69.31-.69.69 0 .38.31.69.69.69h1.379c.38 0 .69-.31.69-.69 0-.38-.31-.69-.69-.69H24.69zm6.069.69c0-.38-.31-.69-.69-.69H28.69c-.38 0-.69.31-.69.69 0 .38.31.69.69.69h1.38c.385 0 .689-.31.689-.69m-8.396 9.382c.07-.351.214-.682.428-.972a.693.693 0 0 0-.145-.965.692.692 0 0 0-.965.144 3.712 3.712 0 0 0-.669 1.531.69.69 0 0 0 .675.821.686.686 0 0 0 .676-.559m13.068 5.945a.697.697 0 0 0-.828.524 2.455 2.455 0 0 1-.456.958.684.684 0 0 0 .546 1.111c.207 0 .406-.09.544-.262.345-.442.593-.965.718-1.51a.692.692 0 0 0-.524-.821M29.069 34H27.69c-.38 0-.69.31-.69.69 0 .38.31.69.69.69h1.379c.38 0 .69-.31.69-.69 0-.38-.31-.69-.69-.69m2.69-5.31c0-.38-.31-.69-.69-.69H29.69c-.38 0-.69.31-.69.69 0 .38.31.69.69.69h1.38c.378 0 .69-.31.69-.69m2.989 1.548a.71.71 0 0 0 .428-.145.69.69 0 0 0 .117-.965 3.787 3.787 0 0 0-1.297-1.055.69.69 0 1 0-.613 1.234c.317.16.606.393.827.67a.68.68 0 0 0 .538.261m3.017-9.182a2.398 2.398 0 0 1-.931.186h-.145c-.379 0-.69.31-.69.69 0 .38.311.69.69.69h.145c.51 0 1-.097 1.462-.297a.688.688 0 0 0-.53-1.268"/><g transform="translate(39.078 18.297)"><mask id="b" fill="#fff"><use xlink:href="#a"/></mask><path fill="#B4D0E8" d="M1.464.582A.69.69 0 0 0 .671.009a.689.689 0 0 0-.573.794 2.504 2.504 0 0 1-.07 1.062.686.686 0 0 0 .663.882.69.69 0 0 0 .662-.496c.103-.345.152-.704.152-1.062.007-.2-.006-.407-.041-.607" mask="url(#b)"/></g><path fill="#B4D0E8" d="M38.347 15.498a3.724 3.724 0 0 0-1.6-.496.698.698 0 0 0-.745.634c-.028.38.255.71.634.745.359.028.703.138 1.014.318a.7.7 0 0 0 .945-.256.689.689 0 0 0-.248-.945M33.02 34h-1.332c-.379 0-.689.31-.689.69 0 .38.31.69.69.69h1.358l.02-.69v.69c.38 0 .662-.31.662-.69 0-.38-.33-.69-.71-.69m-16.95 0h-1.38c-.38 0-.69.31-.69.69 0 .38.31.69.69.69h1.38c.378 0 .689-.31.689-.69 0-.38-.31-.69-.69-.69m4 0h-1.38c-.379 0-.689.31-.689.69 0 .38.31.69.69.69h1.379c.38 0 .69-.31.69-.69 0-.38-.31-.69-.69-.69m-1.015-19.292a.693.693 0 0 0 .442-.869 2.34 2.34 0 0 1-.096-1.063.69.69 0 0 0-.6-.772.688.688 0 0 0-.773.6c-.02.159-.027.317-.027.476 0 .407.061.807.186 1.186a.694.694 0 0 0 .868.442m3.723 14.503c.262 0 .51-.15.627-.4a.693.693 0 0 0-.338-.917 2.43 2.43 0 0 1-.848-.648.69.69 0 1 0-1.056.89c.36.427.822.779 1.332 1.013a.67.67 0 0 0 .283.062M24.069 34h-1.38c-.379 0-.689.31-.689.69 0 .38.31.69.69.69h1.379c.379 0 .689-.31.689-.69 0-.38-.31-.69-.69-.69m3.691-5.31c0-.38-.31-.69-.69-.69h-1.378c-.38 0-.691.31-.691.69 0 .38.31.69.69.69h1.38c.38 0 .69-.31.69-.69"/><path fill="#ED2E26" d="M32.98 0c2.591 0 3.894 1.387 3.894 1.387s.149 1.026.054 3.094c-.143 3.121-3.948 4.996-3.948 4.996s-3.805-1.875-3.948-4.996c-.096-2.068.054-3.094.054-3.094S30.387 0 32.979 0"/><path fill="#FEFEFE" d="M30.963 3.964c0-1.104.872-2.002 1.945-2.002 1.074 0 1.947.873 1.947 1.946 0 .858-.736 1.563-1.304 1.925.22.125.707.258 1.172.3a2.809 2.809 0 0 0 1.095-2.225A2.912 2.912 0 0 0 32.908 1 2.912 2.912 0 0 0 30 3.908c0 .97.404 1.83 1.166 2.489.714.617 1.758 1.028 2.946 1.223.256-.143.697-.562.862-.808-.993-.128-1.932-.37-2.56-.7-.963-.505-1.451-1.228-1.451-2.148"/><g transform="translate(0 12.813)"><mask id="d" fill="#fff"><use xlink:href="#c"/></mask><path fill="#ED2E26" d="M8.48 0c5.523 0 8.3 2.955 8.3 2.955s.317 2.188.115 6.592c-.306 6.653-8.413 10.649-8.413 10.649C8.48 20.196.374 16.2.068 9.547c-.203-4.404.114-6.592.114-6.592S2.957 0 8.48 0" mask="url(#d)"/></g><path fill="#FEFEFE" d="M4.053 22.315c0-2.352 1.86-4.266 4.145-4.266a4.153 4.153 0 0 1 4.15 4.148c0 1.827-1.57 3.33-2.78 4.102.469.268 1.505.55 2.496.64a5.987 5.987 0 0 0 2.333-4.742A6.205 6.205 0 0 0 8.198 16 6.205 6.205 0 0 0 2 22.197c0 2.065.86 3.899 2.486 5.304 1.52 1.314 3.744 2.191 6.276 2.606.548-.303 1.486-1.198 1.838-1.722-2.115-.272-4.116-.788-5.458-1.492-2.05-1.075-3.09-2.615-3.09-4.578"/></g></svg>