<svg xmlns="http://www.w3.org/2000/svg" xmlns:xlink="http://www.w3.org/1999/xlink" width="43" height="43"><defs><path id="a" d="M0 0h15.235v14.942H0z"/></defs><g fill="none" fill-rule="evenodd"><g transform="translate(13.565)"><mask id="b" fill="#fff"><use xlink:href="#a"/></mask><path fill="#ED2E26" d="M10.826 6.536H4.408a.645.645 0 0 1 0-1.29h6.416a.646.646 0 0 1 .001 1.29m-2.368 2.31H4.409a.645.645 0 0 1 0-1.29h4.049a.646.646 0 0 1 0 1.29m-4.049-5.91h6.416a.645.645 0 0 1 0 1.291H4.41a.645.645 0 0 1 0-1.29M13.531 0H1.704C.762 0 0 .763 0 1.704v8.374c0 .941.762 1.704 1.704 1.704h1.611v2.821a.342.342 0 0 0 .533.28l4.579-3.114h5.104c.94 0 1.704-.763 1.704-1.704v-8.36C15.235.762 14.472 0 13.53 0" mask="url(#b)"/></g><path stroke="#B5CFE5" stroke-linecap="round" stroke-linejoin="round" stroke-width="2" d="M41.391 38.164v2.763c0 .582-.472 1.054-1.055 1.054H2.055A1.054 1.054 0 0 1 1 40.927V38.35a2.89 2.89 0 0 1 1.637-2.318c.77-.372 1.572-.67 2.398-.89 1.301-.345 2.573-.792 3.804-1.335l.09-.053a.889.889 0 0 0 .409-.756v-1.544c-4.05.036-5.241-1.7-5.241-1.7s2.314-.035 2.17-6.14c-.141-6.104 2.67-7.12 3.72-7.51 3.052-1.162 4.587.703 4.587.703 3.56-.33 4.517 3.559 4.085 7.947-.431 4.386 1.985 5.09 1.985 5.09-1.673 1.681-5.17 1.575-5.17 1.575v1.561a.89.89 0 0 0 .409.757l.106.066c.477.24.969.444 1.473.614a44.924 44.924 0 0 1 5.754-3.435.248.248 0 0 0 .138-.222v-2.576a6.162 6.162 0 0 1-.77-2.104c-.294-.024-.681-.446-1.1-1.914-.538-1.9-.03-2.274.445-2.274-.257-1.107-.916-4.96 1.954-6.714a1.542 1.542 0 0 1-.548-1.17s3.27.37 4.855.045c1.584-.326 3.288.916 3.56 2.112 0 0 3.207 0 1.962 5.731.502 0 1.046.326.493 2.27-.418 1.473-.805 1.89-1.098 1.914a6.204 6.204 0 0 1-.77 2.104v2.567c0 .094.053.18.138.223a43.845 43.845 0 0 1 7.946 5.098c.623.515.98 1.283.97 2.092z"/></g></svg>