<svg xmlns="http://www.w3.org/2000/svg" width="45" height="29"><g fill="none" fill-rule="evenodd"><path stroke="#C3D6EC" stroke-linecap="round" stroke-linejoin="round" stroke-width="1.492" d="M28.358 14.365a5.97 5.97 0 1 1-11.94 0 5.97 5.97 0 0 1 11.94 0z"/><path stroke="#C3D6EC" stroke-linecap="round" stroke-linejoin="round" stroke-width="1.492" d="M.747 14.365S5.97.746 22.387.746c16.419 0 21.642 13.62 21.642 13.62m0 .372s-5.224 13.62-21.641 13.62C5.97 28.357.747 14.737.747 14.737"/><path stroke="#C3D6EC" stroke-linecap="round" stroke-linejoin="round" stroke-width="1.492" d="M32.835 14.365c0 5.77-4.677 10.446-10.447 10.446S11.94 20.135 11.94 14.365 16.617 3.917 22.39 3.917c5.77 0 10.446 4.677 10.446 10.448z"/><path fill="#DE1D0B" d="M25.932 14.365a3.545 3.545 0 1 1-7.09 0 3.545 3.545 0 0 1 7.09 0"/></g></svg>