<svg xmlns="http://www.w3.org/2000/svg" width="45" height="32"><g fill="none" fill-rule="evenodd"><path stroke="#C3D6EC" stroke-linecap="round" stroke-linejoin="round" stroke-width="1.499" d="M28.945 24.637v.298c0 1.23-1 2.23-2.231 2.23h-8.09a2.231 2.231 0 0 1-2.231-2.23v-.298H.75v2.485a3.697 3.697 0 0 0 3.696 3.697H40.33a3.697 3.697 0 0 0 3.696-3.697v-2.485H28.945zm12.176-.094V2.563A1.813 1.813 0 0 0 39.308.752H5.468a1.814 1.814 0 0 0-1.814 1.813v21.979"/><path fill="#DE1D0B" d="M28.008 11.429a5.62 5.62 0 1 1-11.24-.001 5.62 5.62 0 0 1 11.24 0"/><path stroke="#DE1D0B" stroke-linejoin="round" stroke-width="1.499" d="M28.008 11.429a5.62 5.62 0 1 1-11.24-.001 5.62 5.62 0 0 1 11.24 0z"/><path fill="#FFF" d="M20.14 9.212v4.564c0 .237.254.386.46.27l4.065-2.282a.31.31 0 0 0 0-.54L20.6 8.943a.31.31 0 0 0-.46.27"/><path stroke="#C3D6EC" stroke-linecap="round" stroke-linejoin="round" stroke-width="1.499" d="M3.654 21.732h37.468"/></g></svg>