<svg xmlns="http://www.w3.org/2000/svg" width="67" height="78"><g fill="none" fill-rule="evenodd"><path stroke="#B5CFE5" stroke-linecap="round" stroke-linejoin="round" stroke-width="2" d="M52.55 34.059c0-10.614-8.605-19.218-19.218-19.218s-19.218 8.604-19.218 19.218a19.143 19.143 0 0 0 4.382 12.217l.009.01c.268.333 4.38 5.542 4.38 14.542h20.924c0-9.305 4.394-14.559 4.394-14.559l-.022-.01a19.138 19.138 0 0 0 4.369-12.2zM22.73 64.382h21.205M22.73 67.917h21.206M33.332 71.45h9.302s2.326.222.744 1.473l-3.72 2.65s-1.489 1.03-6.326 1.03-6.326-1.03-6.326-1.03l-3.72-2.65c-1.582-1.251.744-1.473.744-1.473h9.302zM33.44 1v8.217m32.44 23.79h-8.218m-48.444 0H1m15.665-16.991l-5.81-5.811m39.792 5.81l5.811-5.81"/><path fill="#ED2E26" d="M33.35 19.746c7.325.011 13.253 5.957 13.242 13.281-.01 7.323-5.955 13.253-13.28 13.242-7.322-.011-13.252-5.956-13.241-13.28.011-7.324 5.957-13.253 13.28-13.243"/><path stroke="#FEFEFE" stroke-linecap="round" stroke-linejoin="round" stroke-width="2" d="M27.73 32.488l4.349 4.348 7.98-7.979"/></g></svg>