<svg xmlns="http://www.w3.org/2000/svg" xmlns:xlink="http://www.w3.org/1999/xlink" width="66" height="66"><defs><path id="a" d="M0 .067h38.611v38.611H0z"/></defs><g fill="none" fill-rule="evenodd"><g transform="translate(0 -.035)"><mask id="b" fill="#fff"><use xlink:href="#a"/></mask><path fill="#ED2E26" d="M19.306.067c10.662 0 19.305 8.642 19.305 19.305s-8.643 19.306-19.305 19.306C8.643 38.678 0 30.035 0 19.372S8.643.067 19.306.067" mask="url(#b)"/></g><path fill="#ED2E26" d="M16.963 30.69a1.357 1.357 0 0 1-2.434-.79 2.944 2.944 0 0 0-3.792-2.755 1.357 1.357 0 0 1-1.504-2.07 2.947 2.947 0 0 0-1.448-4.459 1.354 1.354 0 0 1 0-2.558A2.945 2.945 0 0 0 9.233 13.6a1.353 1.353 0 0 1 1.504-2.07 2.948 2.948 0 0 0 3.792-2.754 1.357 1.357 0 0 1 2.434-.792 2.945 2.945 0 0 0 4.686 0 1.358 1.358 0 0 1 1.9-.256c.327.25.523.635.533 1.048a2.947 2.947 0 0 0 3.792 2.755A1.355 1.355 0 0 1 29.38 13.6a2.944 2.944 0 0 0 1.447 4.457 1.357 1.357 0 0 1 0 2.558 2.947 2.947 0 0 0-1.447 4.459 1.354 1.354 0 0 1-.345 1.885 1.365 1.365 0 0 1-1.16.185 2.948 2.948 0 0 0-3.792 2.755 1.355 1.355 0 0 1-2.433.79 2.946 2.946 0 0 0-4.686 0"/><path stroke="#FFF" stroke-linecap="round" stroke-linejoin="round" stroke-width="2" d="M15.907 29.8a4.327 4.327 0 0 1 6.798 0 4.325 4.325 0 0 1 5.502-3.997 4.327 4.327 0 0 1 2.1-6.467 4.326 4.326 0 0 1-2.1-6.466 4.326 4.326 0 0 1-5.502-3.997 4.323 4.323 0 0 1-6.798 0 4.323 4.323 0 0 1-5.502 3.997 4.324 4.324 0 0 1-2.1 6.466c.34.128.666.298.967.505a4.324 4.324 0 0 1 1.132 5.963 4.326 4.326 0 0 1 5.502 3.997z"/><path fill="#ED2E26" d="M19.306 16.58a2.759 2.759 0 1 1-.002 5.517 2.759 2.759 0 0 1 .002-5.518"/><path stroke="#FFF" stroke-width="2" d="M19.306 16.58a2.759 2.759 0 1 1-.002 5.517 2.759 2.759 0 0 1 .002-5.518z"/><path stroke="#FFF" stroke-linecap="round" stroke-linejoin="round" stroke-width="6" d="M39.48 9.141s-10.41-1.83-10.41 10.524v4.805s.343 10.982 10.41 10.982c10.066 0 10.409-10.982 10.409-10.982v-4.805c0-12.354-10.41-10.524-10.41-10.524z"/><path fill="#FFF" d="M39.48 35.452c10.066 0 10.409-10.982 10.409-10.982v-4.805c0-12.354-10.41-10.524-10.41-10.524S29.07 7.311 29.07 19.665v4.805s.343 10.982 10.41 10.982"/><path stroke="#B5CFE5" stroke-linecap="round" stroke-linejoin="round" stroke-width="2" d="M39.48 35.452c10.066 0 10.409-10.982 10.409-10.982v-4.805c0-12.354-10.41-10.524-10.41-10.524S29.07 7.311 29.07 19.665v4.805s.343 10.982 10.41 10.982z"/><path fill="#FFF" d="M29.07 21.267s11.897-1.145 14.643-5.263c0 0 4.117.587 6.177 4.64"/><path stroke="#B5CFE5" stroke-linecap="round" stroke-linejoin="round" stroke-width="2" d="M29.07 21.267s11.897-1.145 14.643-5.263c0 0 4.117.587 6.177 4.64M33.333 33.61v3.901m-4.653 5.033s-14.642 4.577-14.642 11.44v10.98M45.627 33.61v3.901m-6.147 7.092c.457 1.373 5.537 3.203 5.537 3.203l5.034-5.491-2.288-5.033c-1.83 0-8.283 2.745-8.283 2.745s-6.453-2.745-8.283-2.745l-2.289 5.033 5.034 5.49s5.08-1.83 5.538-3.202zm10.8-2.06s14.642 4.578 14.642 11.44v10.982"/></g></svg>