<svg xmlns="http://www.w3.org/2000/svg" xmlns:xlink="http://www.w3.org/1999/xlink" width="65" height="58"><defs><path id="a" d="M0 57.133h64.622V0H0z"/></defs><g fill="none" fill-rule="evenodd"><path fill="#B5D0E5" d="M6.61 4.629a1.011 1.011 0 1 1-2.023 0 1.011 1.011 0 0 1 2.023 0m3.455 0a1.011 1.011 0 1 1-2.023 0 1.011 1.011 0 0 1 2.023 0"/><mask id="b" fill="#fff"><use xlink:href="#a"/></mask><path fill="#B5D0E5" d="M2.131 41.448h60.36V2.13H2.13v39.317zm61.425 2.131H1.066c-.59 0-1.066-.476-1.066-1.066V1.066C0 .476.476 0 1.066 0h62.49c.588 0 1.066.477 1.066 1.066v41.447c0 .59-.478 1.066-1.066 1.066z" mask="url(#b)"/><path fill="#B5D0E5" d="M63.556 9.635H1.065a1.065 1.065 0 1 1 0-2.131h62.49a1.065 1.065 0 1 1 0 2.13M13.52 4.63a1.011 1.011 0 1 1-2.022 0 1.011 1.011 0 0 1 2.022 0m10.037 11.154h32.993a1.12 1.12 0 1 1 0 2.239H23.556c-.62 0-1.119-.502-1.119-1.12 0-.618.499-1.12 1.119-1.12m0 4.479h32.993a1.121 1.121 0 1 1 0 2.24H23.556a1.12 1.12 0 0 1-1.119-1.12c0-.619.499-1.12 1.119-1.12m0 9.693h23.513a1.12 1.12 0 1 1 0 2.24H23.556a1.12 1.12 0 0 1 0-2.24m0 4.477h23.513a1.121 1.121 0 1 1 0 2.241H23.556c-.62 0-1.119-.502-1.119-1.12 0-.619.499-1.12 1.119-1.12M10.119 23.154h6.824v-6.827h-6.824v6.827zm7.89 2.131H9.052c-.59 0-1.065-.476-1.065-1.065v-8.959c0-.589.476-1.065 1.065-1.065h8.955c.59 0 1.066.476 1.066 1.065v8.959c0 .589-.477 1.065-1.066 1.065zm-7.89 11.441h6.824V29.9h-6.824v6.827zm7.89 2.131H9.052c-.59 0-1.065-.477-1.065-1.065v-8.96c0-.588.476-1.065 1.065-1.065h8.955c.59 0 1.066.477 1.066 1.066v8.959c0 .588-.477 1.065-1.066 1.065z" mask="url(#b)"/><path fill="#FFF" d="M41.65 22.41c6.673 0 12.081 5.407 12.081 12.08 0 6.671-5.408 12.08-12.081 12.08-6.673 0-12.08-5.409-12.08-12.08 0-6.673 5.407-12.08 12.08-12.08" mask="url(#b)"/><path fill="#ED2E26" d="M41.65 23.475c-6.074 0-11.015 4.941-11.015 11.015 0 6.074 4.941 11.015 11.015 11.015 6.074 0 11.016-4.941 11.016-11.015 0-6.074-4.942-11.015-11.016-11.015m0 24.16c-7.25 0-13.146-5.896-13.146-13.145 0-7.25 5.897-13.146 13.146-13.146 7.25 0 13.147 5.897 13.147 13.146 0 7.249-5.898 13.146-13.147 13.146" mask="url(#b)"/><path fill="#B5D0E5" mask="url(#b)" d="M50.664 43.652l12.892 10.301-1.909 2.114z"/><path fill="#ED2E26" d="M59.63 52.18l2.024 2.288.352-.39-2.376-1.897zm2.017 4.953h-.006a1.063 1.063 0 0 1-.793-.36L49.866 44.357a1.065 1.065 0 0 1 1.463-1.537l12.892 10.3c.23.184.373.455.397.747a1.07 1.07 0 0 1-.271.8l-1.91 2.114c-.202.224-.489.352-.79.352z" mask="url(#b)"/></g></svg>