<svg xmlns="http://www.w3.org/2000/svg" xmlns:xlink="http://www.w3.org/1999/xlink" width="65" height="51"><defs><path id="a" d="M0 50.659h64.492V0H0z"/></defs><g fill="none" fill-rule="evenodd"><path fill="#ED2E26" d="M5.623 36.51a3.77 3.77 0 1 1 7.539 0 3.77 3.77 0 0 1-7.54 0"/><path stroke="#ED2E26" stroke-linecap="round" stroke-linejoin="round" stroke-width="2" d="M5.623 36.51a3.77 3.77 0 1 1 7.539 0 3.77 3.77 0 0 1-7.54 0z"/><path fill="#ED2E26" d="M1.016 49.643s.733-5.444 3.245-6.806c0 0 1.048-.628 2.932-.315 0 0 .733.21 2.2.21 1.465 0 2.199-.21 2.199-.21 1.885-.313 2.932.315 2.932.315 2.511 1.362 3.245 6.806 3.245 6.806H1.016z"/><path stroke="#ED2E26" stroke-linecap="round" stroke-linejoin="round" stroke-width="2" d="M1.016 49.643s.733-5.444 3.245-6.806c0 0 1.048-.628 2.932-.315 0 0 .733.21 2.2.21 1.465 0 2.199-.21 2.199-.21 1.885-.313 2.932.315 2.932.315 2.511 1.362 3.245 6.806 3.245 6.806H1.016z"/><path stroke="#B5CFE5" stroke-linecap="round" stroke-linejoin="round" stroke-width="2" d="M25.983 39.91a2.49 2.49 0 1 1 4.981 0 2.49 2.49 0 0 1-4.981 0zm8.025 9.733s-.486-3.598-2.145-4.496c0 0-.692-.416-1.937-.208 0 0-.484.139-1.452.139-.97 0-1.454-.139-1.454-.139-1.244-.208-1.936.208-1.936.208-1.661.898-2.144 4.496-2.144 4.496m16.94-9.734a2.49 2.49 0 1 1 4.98 0 2.49 2.49 0 0 1-4.98 0zm8.024 9.734s-.485-3.598-2.144-4.496c0 0-.692-.416-1.938-.208 0 0-.484.139-1.452.139s-1.453-.139-1.453-.139c-1.244-.208-1.937.208-1.937.208-1.66.898-2.144 4.496-2.144 4.496m16.94-9.734a2.49 2.49 0 1 1 4.981 0 2.49 2.49 0 0 1-4.981 0zm8.025 9.734s-.485-3.598-2.144-4.496c0 0-.693-.416-1.938-.208 0 0-.484.139-1.452.139s-1.454-.139-1.454-.139c-1.244-.208-1.936.208-1.936.208-1.66.898-2.145 4.496-2.145 4.496"/><path fill="#B5CFE5" d="M33.792 6.133H20.954a.62.62 0 0 1-.618-.617v-.044a.62.62 0 0 1 .618-.619h12.838a.62.62 0 0 1 .617.619v.044a.62.62 0 0 1-.617.617m6.909 5.374H20.955a.62.62 0 0 1-.62-.618v-.043c0-.34.28-.619.62-.619H40.7a.62.62 0 0 1 .617.619v.043a.62.62 0 0 1-.617.618m0-2.687H20.955a.62.62 0 0 1-.62-.618V8.16c0-.34.28-.619.62-.619H40.7a.62.62 0 0 1 .617.619v.043a.62.62 0 0 1-.617.618"/><path fill="#ED2E26" d="M35.177 21.487a7.42 7.42 0 1 1-14.841 0 7.421 7.421 0 0 1 7.42-7.422v7.422h7.421z"/><path fill="#ED2E26" d="M29.036 12.786a7.42 7.42 0 0 1 7.421 7.421h-7.421v-7.42z"/><mask id="b" fill="#fff"><use xlink:href="#a"/></mask><path fill="#B5CFE5" mask="url(#b)" d="M45.925 28.652h2.047V17.904h-2.047zM49.251 28.652h2.047V4.854h-2.047zM52.577 28.652h2.047V4.854h-2.047zM55.904 28.652h2.048V12.786h-2.048z"/><path stroke="#B5CFE5" stroke-linecap="round" stroke-linejoin="round" stroke-width="2" d="M62.066 1.015H17.652c-.776 0-1.41.635-1.41 1.411v27.63c0 .776.634 1.41 1.41 1.41h3.019l-2.843 4.975 8.845-4.974h35.393c.776 0 1.411-.635 1.411-1.41V2.425c0-.776-.635-1.41-1.41-1.41z" mask="url(#b)"/></g></svg>