<svg xmlns="http://www.w3.org/2000/svg" xmlns:xlink="http://www.w3.org/1999/xlink" width="60" height="68"><defs><path id="a" d="M0 .107h59.521V67.5H0z"/></defs><g fill="none" fill-rule="evenodd"><path fill="#FEFEFE" d="M9.604 26.127h6.948v-6.948H9.604z"/><g transform="translate(0 -.035)"><mask id="b" fill="#fff"><use xlink:href="#a"/></mask><path fill="#B5D0E7" d="M10.676 25.09h4.805v-4.805h-4.805v4.806zm5.876 2.144H9.604a1.07 1.07 0 0 1-1.071-1.072v-6.948a1.07 1.07 0 0 1 1.071-1.072h6.948a1.07 1.07 0 0 1 1.072 1.072v6.948a1.07 1.07 0 0 1-1.072 1.072z" mask="url(#b)"/><path fill="#FEFEFE" mask="url(#b)" d="M9.604 41.54h6.948v-6.948H9.604z"/><path fill="#B5D0E7" d="M10.676 40.469h4.805v-4.805h-4.805v4.805zm5.876 2.143H9.604a1.07 1.07 0 0 1-1.071-1.072v-6.948a1.07 1.07 0 0 1 1.071-1.071h6.948a1.07 1.07 0 0 1 1.072 1.071v6.948a1.07 1.07 0 0 1-1.072 1.072z" mask="url(#b)"/><path fill="#FEFEFE" mask="url(#b)" d="M9.604 56.92h6.948v-6.949H9.604z"/><path fill="#B5D0E7" d="M10.676 55.848h4.805v-4.805h-4.805v4.805zm5.876 2.143H9.604a1.07 1.07 0 0 1-1.071-1.071V49.97A1.07 1.07 0 0 1 9.604 48.9h6.948a1.07 1.07 0 0 1 1.072 1.071v6.949a1.07 1.07 0 0 1-1.072 1.071z" mask="url(#b)"/><path fill="#B5D0E7" d="M2.143 65.357h43.03V10.791H2.144v54.566zM46.245 67.5H1.071A1.07 1.07 0 0 1 0 66.429V9.72c0-.591.479-1.071 1.071-1.071h45.174c.593 0 1.071.48 1.071 1.071v56.709a1.07 1.07 0 0 1-1.071 1.071z" mask="url(#b)"/><path fill="#B5D0E7" d="M32.602 21.77H21.137a1.07 1.07 0 1 1 0-2.143h11.465a1.07 1.07 0 1 1 0 2.143m8.336 4.357h-19.8a1.07 1.07 0 1 1 0-2.143h19.8a1.07 1.07 0 1 1 0 2.143m-13.074 9.998h-6.727a1.07 1.07 0 1 1 0-2.143h6.727a1.07 1.07 0 1 1 0 2.143m6.728 4.197H21.136a1.071 1.071 0 1 1 0-2.143h13.456a1.07 1.07 0 1 1 0 2.143m0 14.194H21.136a1.071 1.071 0 1 1 0-2.143h13.456a1.07 1.07 0 1 1 0 2.143" mask="url(#b)"/><path fill="#FEFEFE" d="M32.09 5.875l-3.709-3.71a3.375 3.375 0 0 0-2.385-.987H20.36a3.37 3.37 0 0 0-2.386.988l-3.709 3.71a5.564 5.564 0 0 0-5.563 5.563v1.164h28.951v-1.164a5.564 5.564 0 0 0-5.563-5.564" mask="url(#b)"/><path fill="#B5D0E7" d="M9.774 11.531h26.808v-.092a4.497 4.497 0 0 0-4.493-4.492c-.285 0-.556-.114-.757-.314l-3.708-3.71a2.292 2.292 0 0 0-1.628-.673H20.36c-.615 0-1.192.24-1.626.673l-3.71 3.71c-.2.2-.473.314-.758.314a4.497 4.497 0 0 0-4.491 4.492v.092zm27.88 2.143H8.701a1.07 1.07 0 0 1-1.071-1.071v-1.164a6.646 6.646 0 0 1 6.176-6.62l3.41-3.41A4.413 4.413 0 0 1 20.359.107h5.637a4.42 4.42 0 0 1 3.142 1.3l3.411 3.412a6.645 6.645 0 0 1 6.176 6.62v1.164a1.07 1.07 0 0 1-1.072 1.071z" mask="url(#b)"/><path fill="#ED2E26" d="M45.94 39.864c7.5 0 13.581 6.081 13.581 13.581 0 7.501-6.081 13.583-13.581 13.583-7.501 0-13.583-6.082-13.583-13.583 0-7.5 6.082-13.581 13.583-13.581" mask="url(#b)"/><path fill="#FEFEFE" d="M44.174 58.98c-.274 0-.548-.105-.757-.314l-4.465-4.465a1.07 1.07 0 1 1 1.515-1.515l3.707 3.707 7.434-7.434a1.073 1.073 0 0 1 1.516 0 1.073 1.073 0 0 1 0 1.516l-8.192 8.191a1.068 1.068 0 0 1-.758.314" mask="url(#b)"/></g></g></svg>