<svg xmlns="http://www.w3.org/2000/svg" xmlns:xlink="http://www.w3.org/1999/xlink" width="67" height="53"><defs><path id="a" d="M.189 0h26.089v1.048H.189z"/></defs><g fill="none" fill-rule="evenodd"><path stroke="#B5CFE5" stroke-linecap="round" stroke-linejoin="round" stroke-width="2" d="M61.016 42.393H5.193A4.206 4.206 0 0 1 1 38.2V5.193A4.206 4.206 0 0 1 5.193 1h55.823a4.206 4.206 0 0 1 4.193 4.193V38.2a4.206 4.206 0 0 1-4.193 4.193zm-33.73.778l-1.233 7.837m12.87-7.837l1.233 7.837"/><g transform="translate(19.871 51.785)"><mask id="b" fill="#fff"><use xlink:href="#a"/></mask><path stroke="#B5CFE5" stroke-linecap="round" stroke-linejoin="round" stroke-width="2" d="M.19 0h26.088" mask="url(#b)"/></g><path fill="#ED2E26" d="M34.141 34.158l2.881-5.499 8.902 8.865 2.917-2.918-8.902-8.901 5.536-2.881-15.636-4.414z"/><path stroke="#B5CFE5" stroke-linecap="round" stroke-linejoin="round" stroke-width="2" d="M23.107 11.602l3.03 3.03m4.189-7.893v7.668m-12.157 4.377h7.668m8.529-4.115l3.03-3.03M26.06 22.973l-3.03 3.03"/></g></svg>