<svg xmlns="http://www.w3.org/2000/svg" xmlns:xlink="http://www.w3.org/1999/xlink" width="65" height="44"><defs><path id="a" d="M0 43.199h64.083V0H0z"/></defs><g fill="none" fill-rule="evenodd"><path fill="#B5D0E5" d="M6.534 4.568a1.004 1.004 0 1 1-2.009 0 1.004 1.004 0 0 1 2.009 0m3.429 0a1.004 1.004 0 1 1-2.009 0 1.004 1.004 0 0 1 2.009 0"/><mask id="b" fill="#fff"><use xlink:href="#a"/></mask><path fill="#B5D0E5" d="M2.063 41.136H62.02V2.064H2.063v39.072zm60.988 2.063H1.031A1.03 1.03 0 0 1 0 42.168V1.032C0 .462.461 0 1.032 0H63.05c.57 0 1.032.461 1.032 1.032v41.136a1.03 1.03 0 0 1-1.032 1.031z" mask="url(#b)"/><path fill="#B5D0E5" d="M63.051 9.511H1.032a1.03 1.03 0 1 1 0-2.063h62.02a1.03 1.03 0 1 1 0 2.063M13.39 4.568a1.004 1.004 0 1 1-2.01 0 1.004 1.004 0 0 1 2.01 0" mask="url(#b)"/><path fill="#ED2E26" d="M6.202 23.068h52.647v-9.613H6.202v9.613zm53.317 1.342H5.53a.67.67 0 0 1-.67-.67V12.784c0-.371.3-.671.67-.671h53.99c.37 0 .671.3.671.671V23.74c0 .37-.3.67-.672.67z" mask="url(#b)"/><path fill="#ED2E26" d="M10.191 16.098c-.222 0-.448.055-.656.17a1.355 1.355 0 0 0 .287 2.489 1.357 1.357 0 1 0 .37-2.659m.005 3.743c-.22 0-.44-.03-.659-.093a2.37 2.37 0 0 1-1.432-1.135 2.378 2.378 0 0 1-.208-1.816 2.372 2.372 0 0 1 1.136-1.432 2.393 2.393 0 0 1 3.247.927 2.392 2.392 0 0 1-2.084 3.549" mask="url(#b)"/><path fill="#ED2E26" d="M12.388 21.917a.516.516 0 0 1-.45-.266l-1.286-2.312a.519.519 0 0 1 .2-.702.52.52 0 0 1 .702.2l1.285 2.313a.518.518 0 0 1-.451.767m46.685 9.898L44.708 21.33l3.685 17.399 3.36-4.565 4.03 6.224 1.779-1.154-4.029-6.222 5.54-1.197z" mask="url(#b)"/><path fill="#ED2E26" d="M51.754 33.649h.015c.17.005.325.094.418.236l3.748 5.789.913-.592-3.748-5.79a.514.514 0 0 1 .324-.783l4.415-.955-12.347-9.013 3.167 14.955 2.68-3.638a.514.514 0 0 1 .415-.21m4.027 7.255a.527.527 0 0 1-.433-.235l-3.621-5.597-2.918 3.963a.516.516 0 0 1-.92-.199l-3.686-17.398a.516.516 0 0 1 .81-.524l14.364 10.484a.517.517 0 0 1-.196.922l-4.809 1.04 3.624 5.596a.518.518 0 0 1-.154.713l-1.78 1.152a.513.513 0 0 1-.28.083" mask="url(#b)"/><path fill="#B5CFE5" d="M43.313 19.69a.515.515 0 0 1-.433-.236l-1.8-2.78a.516.516 0 0 1 .866-.56l1.8 2.781a.516.516 0 0 1-.433.796M42.2 21.308a.552.552 0 0 1-.109-.011l-3.24-.694a.515.515 0 1 1 .216-1.009l3.24.694a.516.516 0 0 1-.107 1.02m-2.427 3.733a.515.515 0 0 1-.28-.95l2.782-1.8a.516.516 0 0 1 .56.867l-2.783 1.8a.513.513 0 0 1-.28.083m5.475-5.705a.515.515 0 0 1-.506-.623l.693-3.24a.515.515 0 1 1 1.01.216l-.694 3.239a.516.516 0 0 1-.503.408m1.616 1.115a.515.515 0 0 1-.28-.95l2.78-1.8a.517.517 0 0 1 .561.867l-2.782 1.8a.513.513 0 0 1-.28.083" mask="url(#b)"/><path fill="#B5D0E5" d="M22.23 29.425H5.53a.774.774 0 0 1 0-1.548h16.7a.774.774 0 0 1 0 1.548m11.316 3.85H5.53a.774.774 0 0 1 0-1.548h28.015a.774.774 0 0 1 0 1.548m0 3.85H5.53a.774.774 0 0 1 0-1.548h28.015a.774.774 0 0 1 0 1.548" mask="url(#b)"/></g></svg>