<svg xmlns="http://www.w3.org/2000/svg" xmlns:xlink="http://www.w3.org/1999/xlink" width="66" height="65"><defs><path id="a" d="M0 64.282h65.913V0H0z"/></defs><g fill="none" fill-rule="evenodd"><path stroke="#B4D0E8" stroke-width="2" d="M64.913 8.048C64.913 4.154 62.11 1 58.651 1H7.26C3.804 1 1 4.154 1 8.048v48.186c0 3.9 2.804 7.047 6.26 7.047H58.65c3.458 0 6.262-3.154 6.262-7.047V8.048z"/><path fill="#ED2E26" d="M40.03 23.382c1.58.03 3.141-.35 4.531-1.1v-1.965a8.172 8.172 0 0 1-4.366 1.416c-3.005 0-5.06-1.947-5.06-4.75 0-2.763 2.126-4.799 4.988-4.799 1.451 0 2.771.401 4.312 1.301V11.56c-1.709-.729-3.01-1.029-4.294-1.029-3.98 0-6.859 2.79-6.859 6.616 0 2.636 2.055 6.235 6.748 6.235m-9.54-3.203c0 .696-.639 1.574-2.034 1.574-1.229 0-2.399-.64-3.299-1.814v2.276a5.502 5.502 0 0 0 3.5 1.155c2.004 0 3.503-1.43 3.503-3.395 0-3.977-5.398-3.946-5.398-6.346 0-.885.828-1.484 1.982-1.484.837 0 1.872.291 2.936 1.302v-2.035a4.99 4.99 0 0 0-2.789-.88c-2.285 0-3.788 1.303-3.799 3.35 0 3.418 5.398 3.71 5.398 6.297m23.863-8.974h.278a.152.152 0 0 1 .157.147.167.167 0 0 1-.207.154h-.228v-.3zm0 .43h.093c.13 0 .175.042.302.263l.085.153h.196l-.12-.192a.534.534 0 0 0-.231-.246.272.272 0 0 0 .265-.312.273.273 0 0 0-.31-.23h-.439v.98h.16v-.416z"/><path fill="#ED2E26" d="M47.423 17.285c0 3.331-1.6 6.363-4.202 8.622.315.186.62.378.9.573 3.479-2.297 5.65-5.573 5.65-9.195 0-3.869-2.462-7.33-6.361-9.648-.282.166-.582.315-.882.465 3.014 2.303 4.895 5.566 4.895 9.183m5.18-3.242h-1.5c.881-1.047 1.228-1.587 1.228-2.229a1.163 1.163 0 0 0-1.199-1.232 1.462 1.462 0 0 0-.931.375v.701c.194-.314.53-.513.898-.533a.686.686 0 0 1 .678.743 1.49 1.49 0 0 1-.276.843 16.977 16.977 0 0 1-1.37 1.82l-.026.01v.038h2.498v-.536zm1.994-3.257a.766.766 0 0 1 0 1.53.765.765 0 0 1 0-1.53m.006 1.683a.917.917 0 1 0-.921-.92v.006a.918.918 0 0 0 .92.914"/><mask id="b" fill="#fff"><use xlink:href="#a"/></mask><path fill="#ED2E26" mask="url(#b)" d="M21.004 23.194h1.8V10.699h-1.8z"/><path fill="#ED2E26" d="M20.371 26.487c.29-.206.59-.396.9-.57-2.616-2.262-4.217-5.293-4.217-8.631 0-3.62 1.883-6.884 4.904-9.193-.316-.15-.607-.306-.882-.464-3.896 2.32-6.37 5.782-6.37 9.657 0 3.625 2.174 6.894 5.665 9.2m-9.01 22.163a8.648 8.648 0 0 0 11.358-4.54h-.004a1.843 1.843 0 0 0-3.385-1.454 4.963 4.963 0 0 1-8.907.441 4.963 4.963 0 1 1 8.691-4.797 1.845 1.845 0 0 0 3.227-1.781 8.648 8.648 0 0 0-15.52.773 8.648 8.648 0 0 0 4.54 11.358m33.225-12.491A8.649 8.649 0 0 0 47.4 48.06a8.651 8.651 0 0 0 11.905-2.815 1.845 1.845 0 0 0-3.123-1.941 4.96 4.96 0 0 1-8.94-1.046h6.69a1.845 1.845 0 0 0 0-3.69h-6.465a4.954 4.954 0 0 1 8.184-1.17c.667.69 1.75.753 2.493.147a1.845 1.845 0 0 0 .26-2.596 8.649 8.649 0 0 0-13.819 1.208m-11.388-.422a4.97 4.97 0 0 1 4.961 4.963v.003a4.965 4.965 0 1 1-4.96-4.966m-6.808 20.43a1.843 1.843 0 0 0 1.843-1.842v-6.538a8.607 8.607 0 0 0 4.966 1.562 8.648 8.648 0 0 0 8.642-8.643 8.647 8.647 0 0 0-17.293-.006v13.625c0 1.017.825 1.843 1.842 1.843" mask="url(#b)"/><path fill="#B4D0E8" mask="url(#b)" d="M33.201 49.348h-.003z"/></g></svg>