<svg xmlns="http://www.w3.org/2000/svg" xmlns:xlink="http://www.w3.org/1999/xlink" width="70" height="70"><defs><path id="a" d="M.509.403h12.812v12.813H.509z"/><path id="c" d="M.509.521h12.812v12.812H.509z"/><path id="e" d="M0 1.018h12.812v12.813H0z"/></defs><g fill="none" fill-rule="evenodd"><path fill="#B5CFE5" d="M22.307 23.866c-.113 1.07-.392 4.452-.131 10.099.408 8.859 10.204 14.77 12.521 16.045 2.363-1.287 12.107-7.128 12.517-16.045.26-5.647-.02-9.029-.131-10.099-1.022-.912-5.2-4.203-12.39-4.203-7.187 0-11.362 3.286-12.386 4.203m12.388 28.512c-.662 0-14.216-6.919-14.74-18.31-.33-7.16.175-10.74.198-10.89.032-.225.133-.435.288-.6.197-.21 4.932-5.138 14.252-5.138s14.057 4.926 14.255 5.137c.156.166.257.376.289.601.022.15.527 3.73.197 10.89-.517 11.222-13.68 17.914-14.24 18.192a1.124 1.124 0 0 1-.5.118"/><path fill="#B5D0E7" d="M33.96 37.475l-3.22 3.22c-.48.481-1.275.566-1.818.106a1.238 1.238 0 0 1-.44-.984c0-.334.126-.669.376-.92l3.283-3.283a1.044 1.044 0 0 0 0-1.463l-3.283-3.283a1.306 1.306 0 0 1-.376-.92c0-.376.146-.733.44-.983.522-.44 1.338-.377 1.819.104l3.24 3.242a1.046 1.046 0 0 0 1.464 0l3.241-3.242a1.305 1.305 0 0 1 1.924.084c.44.522.356 1.318-.125 1.799l-3.241 3.24a1.046 1.046 0 0 0 0 1.464l3.282 3.282a1.307 1.307 0 0 1-.083 1.925c-.523.439-1.318.355-1.798-.125l-3.241-3.24c-.377-.42-1.047-.42-1.443-.023"/><g transform="translate(27.778 -.292)"><mask id="b" fill="#fff"><use xlink:href="#a"/></mask><path fill="#ED2E26" d="M.509 6.809a6.407 6.407 0 1 1 12.813 0 6.407 6.407 0 0 1-12.813 0" mask="url(#b)"/></g><path fill="#FFF" d="M35.577 8.47h-1.044V5.609l.009-.471.018-.514a5.19 5.19 0 0 1-.363.342l-.567.456-.505-.63 1.594-1.268h.858V8.47z"/><g transform="translate(27.778 56.375)"><mask id="d" fill="#fff"><use xlink:href="#c"/></mask><path fill="#ED2E26" d="M.509 6.927a6.406 6.406 0 1 1 12.812 0 6.406 6.406 0 1 1-12.812 0" mask="url(#d)"/></g><path fill="#FFF" d="M36.258 62.166c0 .309-.094.572-.281.788-.187.216-.45.365-.788.446v.02c.399.05.701.171.907.364.204.193.307.453.307.78 0 .476-.172.846-.517 1.11-.346.265-.838.398-1.478.398-.537 0-1.012-.088-1.428-.267v-.89a3.2 3.2 0 0 0 .632.237c.23.062.458.093.684.093.345 0 .6-.06.764-.178.164-.117.248-.305.248-.563 0-.233-.095-.398-.285-.495-.19-.098-.492-.145-.906-.145h-.376v-.802h.382c.384 0 .664-.05.84-.15.178-.1.266-.273.266-.516 0-.375-.235-.562-.703-.562-.163 0-.328.027-.496.08a2.437 2.437 0 0 0-.56.282l-.483-.72c.45-.325.989-.488 1.613-.488.512 0 .917.104 1.213.312a.998.998 0 0 1 .445.866"/><g transform="translate(56.667 27.486)"><mask id="f" fill="#fff"><use xlink:href="#e"/></mask><path fill="#ED2E26" d="M0 7.424a6.406 6.406 0 1 1 12.812 0A6.407 6.407 0 0 1 0 7.424" mask="url(#f)"/></g><path fill="#FFF" d="M64.83 36.862h-3.457v-.727l1.241-1.255c.367-.377.608-.637.72-.783.114-.145.194-.28.244-.405.05-.123.074-.252.074-.385 0-.198-.054-.346-.163-.444a.64.64 0 0 0-.44-.144c-.19 0-.376.044-.557.132a2.791 2.791 0 0 0-.564.375l-.57-.674c.245-.207.446-.353.606-.439a2.16 2.16 0 0 1 .525-.198c.189-.046.4-.07.635-.07.31 0 .582.057.82.17.236.112.42.27.55.472.13.204.197.436.197.697 0 .229-.04.442-.12.642a2.495 2.495 0 0 1-.372.614c-.17.21-.464.509-.888.896l-.636.6v.046h2.155v.88z"/><path fill="#ED2E26" d="M0 34.91a6.406 6.406 0 1 1 12.812 0A6.406 6.406 0 1 1 0 34.91"/><path fill="#FFF" d="M6.202 35.416v-.84c0-.14.006-.342.018-.608.01-.266.02-.421.027-.464H6.22a3.798 3.798 0 0 1-.302.543l-.906 1.369h1.19zm1.617.81h-.594v1.026H6.202v-1.025h-2.11V35.5l2.168-3.193h.965v3.109h.594v.81z"/><path fill="#B5CFE5" d="M6.868 26.098a1.108 1.108 0 0 1-1.046-1.484A30.54 30.54 0 0 1 24.396 6.037a1.109 1.109 0 0 1 1.42.673 1.11 1.11 0 0 1-.673 1.42 28.335 28.335 0 0 0-17.23 17.23 1.11 1.11 0 0 1-1.045.738m55.652 0a1.11 1.11 0 0 1-1.046-.738A28.33 28.33 0 0 0 44.243 8.13a1.11 1.11 0 0 1-.673-1.42 1.107 1.107 0 0 1 1.42-.673 30.538 30.538 0 0 1 18.575 18.577 1.108 1.108 0 0 1-1.045 1.484M24.77 63.847c-.123 0-.25-.022-.373-.066A30.534 30.534 0 0 1 5.82 45.207a1.114 1.114 0 0 1 .675-1.422 1.113 1.113 0 0 1 1.42.675 28.326 28.326 0 0 0 17.228 17.23c.578.204.88.84.673 1.419a1.11 1.11 0 0 1-1.046.738m19.846 0a1.11 1.11 0 0 1-1.046-.738 1.108 1.108 0 0 1 .673-1.42 28.335 28.335 0 0 0 17.23-17.23 1.104 1.104 0 0 1 1.42-.672c.579.205.879.84.673 1.42A30.54 30.54 0 0 1 44.989 63.78c-.123.044-.25.066-.373.066"/><path fill="#B5CFE5" d="M62.52 26.098c-.163 0-.325-.036-.475-.107l-5.516-2.605a1.111 1.111 0 0 1 .948-2.01l4.198 1.983.795-4.545a1.112 1.112 0 0 1 2.19.382l-1.046 5.982a1.112 1.112 0 0 1-1.094.92M5.758 52.378a1.11 1.11 0 0 1-1.096-1.3l1.111-6.434a1.11 1.11 0 0 1 1.738-.717l5.177 3.673a1.112 1.112 0 0 1-1.287 1.812l-3.738-2.654-.812 4.698a1.11 1.11 0 0 1-1.093.922m15.8-38.344a1.108 1.108 0 0 1-.972-1.646l2.395-4.356-4.734-.443a1.112 1.112 0 0 1 .207-2.214l6.419.601c.373.036.703.257.879.587.175.33.173.728-.008 1.056l-3.212 5.839a1.11 1.11 0 0 1-.975.576m30.038 50.753a1.16 1.16 0 0 1-.15-.01l-6.978-.94a1.108 1.108 0 0 1-.86-.64 1.11 1.11 0 0 1 .08-1.07l3.816-5.839a1.111 1.111 0 0 1 1.86 1.215l-2.853 4.366 5.233.706a1.112 1.112 0 0 1-.148 2.212"/></g></svg>