
<svg width="68px" height="68px" viewBox="0 0 68 68" version="1.1" xmlns="http://www.w3.org/2000/svg" xmlns:xlink="http://www.w3.org/1999/xlink">
    <!-- Generator: Sketch 44.1 (41455) - http://www.bohemiancoding.com/sketch -->
    <desc>Created with Sketch.</desc>
    <defs></defs>
    <g id="12.1-13-App-detail" stroke="none" stroke-width="1" fill="none" fill-rule="evenodd">
        <g id="12.4-App-Detail---Continuous-Monitoring" transform="translate(-734.000000, -1770.000000)">
            <g id="---Features-overview" transform="translate(185.000000, 1290.000000)">
                <g id="::-04" transform="translate(549.000000, 481.000000)">
                    <g id="icon" transform="translate(1.000000, 0.000000)">
                        <path d="M1.06451613,0 L64.9354839,0 C65.5241613,0 66,0.476903226 66,1.06451613 L66,64.9354839 C66,65.5241613 65.5241613,66 64.9354839,66 L1.06451613,66 C0.47583871,66 0,65.5241613 0,64.9354839 L0,1.06451613 C0,0.476903226 0.47583871,0 1.06451613,0 Z" id="Stroke-1" stroke="#B5CFE5" stroke-width="2"></path>
                        <path d="M3.19354839,15.9677419 C3.19354839,15.9677419 31.3297742,92.9567419 62.6957419,15.9677419" id="Stroke-3" stroke="#B5CFE5" stroke-width="2" stroke-linecap="round" stroke-linejoin="round"></path>
                        <path d="M3.19354839,50.1851226 C3.19354839,50.1851226 31.3297742,-26.8038774 62.6957419,50.1851226" id="Stroke-5" stroke="#B5CFE5" stroke-width="2" stroke-linecap="round" stroke-linejoin="round"></path>
                        <path d="M33,20.2258065 C40.0545484,20.2258065 45.7741935,25.9454516 45.7741935,33 C45.7741935,40.0545484 40.0545484,45.7741935 33,45.7741935 C25.9454516,45.7741935 20.2258065,40.0545484 20.2258065,33 C20.2258065,25.9454516 25.9454516,20.2258065 33,20.2258065" id="Fill-7" fill="#ED2E26"></path>
                        <path d="M33,29.8064516 C34.7628387,29.8064516 36.1935484,31.2371613 36.1935484,33 C36.1935484,34.7628387 34.7628387,36.1935484 33,36.1935484 C31.2371613,36.1935484 29.8064516,34.7628387 29.8064516,33 C29.8064516,31.2371613 31.2371613,29.8064516 33,29.8064516 Z" id="Stroke-9" stroke="#FFFFFF" stroke-width="2"></path>
                        <path d="M40.4516129,31.9354839 L42.5806452,31.9354839 C43.1693226,31.9354839 43.6451613,32.4113226 43.6451613,33 C43.6451613,33.5886774 43.1693226,34.0645161 42.5806452,34.0645161 L40.4516129,34.0645161 C39.8629355,34.0645161 39.3870968,33.5886774 39.3870968,33 C39.3870968,32.4113226 39.8629355,31.9354839 40.4516129,31.9354839" id="Fill-11" fill="#FFFFFF"></path>
                        <path d="M23.4193548,31.9354839 L25.5483871,31.9354839 C26.1370645,31.9354839 26.6129032,32.4113226 26.6129032,33 C26.6129032,33.5886774 26.1370645,34.0645161 25.5483871,34.0645161 L23.4193548,34.0645161 C22.8306774,34.0645161 22.3548387,33.5886774 22.3548387,33 C22.3548387,32.4113226 22.8306774,31.9354839 23.4193548,31.9354839" id="Fill-13" fill="#FFFFFF"></path>
                        <path d="M34.0645161,40.4516129 L34.0645161,42.5806452 C34.0645161,43.1693226 33.5886774,43.6451613 33,43.6451613 C32.4113226,43.6451613 31.9354839,43.1693226 31.9354839,42.5806452 L31.9354839,40.4516129 C31.9354839,39.8629355 32.4113226,39.3870968 33,39.3870968 C33.5886774,39.3870968 34.0645161,39.8629355 34.0645161,40.4516129" id="Fill-15" fill="#FFFFFF"></path>
                        <path d="M34.0645161,23.4193548 L34.0645161,25.5483871 C34.0645161,26.136 33.5886774,26.6129032 33,26.6129032 C32.4113226,26.6129032 31.9354839,26.136 31.9354839,25.5483871 L31.9354839,23.4193548 C31.9354839,22.8317419 32.4113226,22.3548387 33,22.3548387 C33.5886774,22.3548387 34.0645161,22.8317419 34.0645161,23.4193548" id="Fill-17" fill="#FFFFFF"></path>
                        <path d="M39.0212226,37.5158903 L40.5275129,39.0211161 C40.9426742,39.4373419 40.9426742,40.1111806 40.5275129,40.5274065 C40.1112871,40.9425677 39.4374484,40.9425677 39.0212226,40.5274065 L37.5159968,39.0211161 C37.099771,38.6048903 37.099771,37.9321161 37.5159968,37.5158903 C37.9322226,37.0996645 38.6049968,37.0996645 39.0212226,37.5158903" id="Fill-19" fill="#FFFFFF"></path>
                        <path d="M26.9788839,25.4724871 L28.4841097,26.9787774 C28.9003355,27.3939387 28.9003355,28.0677774 28.4841097,28.4840032 C28.0678839,28.8991645 27.3951097,28.8991645 26.9788839,28.4840032 L25.4725935,26.9787774 C25.0574323,26.5625516 25.0574323,25.8887129 25.4725935,25.4724871 C25.8888194,25.0573258 26.5626581,25.0573258 26.9788839,25.4724871" id="Fill-21" fill="#FFFFFF"></path>
                        <path d="M28.4841097,39.0211161 L26.9788839,40.5274065 C26.5626581,40.9425677 25.8888194,40.9425677 25.4725935,40.5274065 C25.0574323,40.1111806 25.0574323,39.4373419 25.4725935,39.0211161 L26.9788839,37.5158903 C27.3951097,37.0996645 28.0678839,37.0996645 28.4841097,37.5158903 C28.9003355,37.9321161 28.9003355,38.6048903 28.4841097,39.0211161" id="Fill-23" fill="#FFFFFF"></path>
                        <path d="M40.5275129,26.9783516 L39.0212226,28.4835774 C38.6049968,28.8998032 37.9322226,28.8998032 37.5159968,28.4835774 C37.099771,28.0673516 37.099771,27.3935129 37.5159968,26.9783516 L39.0212226,25.4720613 C39.4374484,25.0569 40.1112871,25.0569 40.5275129,25.4720613 C40.9426742,25.8882871 40.9426742,26.5621258 40.5275129,26.9783516" id="Fill-25" fill="#FFFFFF"></path>
                    </g>
                </g>
            </g>
        </g>
    </g>
</svg>