
<svg width="47px" height="64px" viewBox="0 0 47 64" version="1.1" xmlns="http://www.w3.org/2000/svg" xmlns:xlink="http://www.w3.org/1999/xlink">
    <!-- Generator: Sketch 44.1 (41455) - http://www.bohemiancoding.com/sketch -->
    <desc>Created with Sketch.</desc>
    <defs></defs>
    <g id="12.1-13-App-detail" stroke="none" stroke-width="1" fill="none" fill-rule="evenodd">
        <g id="12.2-App-Detail---Asset-Inventory" transform="translate(-736.000000, -1410.000000)">
            <g id="---Features-overview" transform="translate(185.000000, 1290.000000)">
                <g id="::-02" transform="translate(550.000000, 120.000000)">
                    <g id="icon" transform="translate(2.000000, 1.000000)">
                        <path d="M1.0684,0 C0.4784,0 0.0004,0.479 0.0004,1.069 L0.0004,60.932 C0.0004,61.522 0.4784,62 1.0684,62 L43.8274,62 C44.4174,62 44.8964,61.522 44.8964,60.932 L44.8964,12.745 C44.8964,12.512 44.8194,12.285 44.6794,12.099 L40.8844,7.083 C40.8774,7.072 40.8774,7.072 40.8684,7.061 L35.9414,0.431 C35.7374,0.16 35.4224,0 35.0824,0 L1.0684,0 Z" id="Stroke-1" stroke="#B5D0E7" stroke-width="2"></path>
                        <polyline id="Stroke-3" stroke="#B5D0E7" stroke-width="2" stroke-linecap="round" stroke-linejoin="round" points="44.2192 12.3711 34.2062 12.3711 34.2062 1.0691"></polyline>
                        <path d="M12.186,21.3794 L32.71,21.3794 C34.126,21.3794 35.275,22.5284 35.275,23.9444 L35.275,44.4694 C35.275,45.8854 34.126,47.0344 32.71,47.0344 L12.186,47.0344 C10.769,47.0344 9.621,45.8854 9.621,44.4694 L9.621,23.9444 C9.621,22.5284 10.769,21.3794 12.186,21.3794" id="Fill-5" fill="#ED2E26"></path>
                        <path d="M22.8486,33.1045 L26.4696,33.1045 C26.6106,33.1045 26.7246,33.2185 26.7246,33.3605 C26.7246,33.4055 26.7146,33.4525 26.6896,33.4915 L21.3276,42.5915 C21.2556,42.7135 21.0996,42.7535 20.9756,42.6815 C20.8936,42.6335 20.8466,42.5435 20.8506,42.4505 L21.1016,35.9825 C21.1066,35.8395 20.9966,35.7205 20.8556,35.7145 C20.8526,35.7135 20.8486,35.7135 20.8466,35.7135 L17.3576,35.7135 C17.2156,35.7135 17.1006,35.5995 17.1006,35.4585 C17.1006,35.4075 17.1156,35.3575 17.1446,35.3155 L22.4496,27.5005 C22.5286,27.3825 22.6886,27.3525 22.8066,27.4325 C22.8826,27.4835 22.9236,27.5695 22.9176,27.6605 L22.5936,32.8315 C22.5846,32.9725 22.6916,33.0935 22.8336,33.1025 C22.8376,33.1025 22.8446,33.1045 22.8486,33.1045" id="Fill-7" fill="#FFFFFF"></path>
                    </g>
                </g>
            </g>
        </g>
    </g>
</svg>