<svg xmlns="http://www.w3.org/2000/svg" viewBox="0 0 48 67"><g fill="none" fill-rule="evenodd"><path stroke="#B5D0E7" stroke-width="2" d="M2.092 1C1.49 1 1 1.502 1 2.12v62.76c0 .618.49 1.12 1.092 1.12h43.71c.603 0 1.092-.502 1.092-1.12V14.36c0-.242-.078-.48-.222-.675l-3.88-5.26c-.005-.01-.005-.01-.015-.022l-5.037-6.95c-.208-.286-.53-.453-.877-.453H2.093z"/><path stroke="#B5D0E7" stroke-linecap="round" stroke-linejoin="round" stroke-width="2" d="M46.202 13.97H35.967V2.12"/><path fill="#ED2E26" d="M13.457 18.168h20.98c1.448 0 2.622 1.204 2.622 2.69v21.517c0 1.485-1.175 2.688-2.623 2.688h-20.98c-1.45 0-2.622-1.203-2.622-2.688V20.857c0-1.485 1.173-2.69 2.622-2.69"/><path fill="#FFF" d="M24.356 30.46h3.702c.145 0 .26.12.26.268 0 .047-.01.097-.034.138l-5.483 9.54c-.072.128-.232.17-.357.094-.084-.05-.133-.144-.13-.242l.257-6.78c.006-.15-.107-.276-.25-.282h-3.577c-.145 0-.262-.12-.262-.268 0-.054.016-.106.045-.15l5.424-8.193c.08-.124.244-.155.363-.072.078.054.12.145.114.24l-.332 5.42c-.01.148.102.275.246.285l.016.002"/><path fill="#ED2E26" d="M14.087 52.436l-2.09-3.333H10.71v7.046h1.186v-5.034l2.15 3.304h.04l2.17-3.324v5.053h1.206v-7.047h-1.285M20.44 53.16h3.446v-1.118H20.44v-1.83h3.888v-1.108h-5.094v7.046h5.144v-1.107H20.44M30.682 49.104h-5.584v1.148h2.188v5.898h1.208v-5.898h2.188M32.275 53.35l1.178-2.817 1.187 2.818h-2.365zm1.758-4.297h-1.12L29.89 56.15h1.237l.706-1.702h3.25l.697 1.702h1.275l-3.022-7.097z"/></g></svg>