<svg xmlns="http://www.w3.org/2000/svg" xmlns:xlink="http://www.w3.org/1999/xlink" width="60" height="60" viewBox="0 0 60 60">
  <defs>
    <polygon id="inventory-creation-a" points="0 60 59.315 60 59.315 .681 0 .681"/>
  </defs>
  <g fill="none" fill-rule="evenodd" transform="translate(0 -1)">
    <polygon fill="#FEFEFE" points="2.075 60.278 53.425 60.354 54.051 60.354 54.116 8.39 2.138 8.314"/>
    <polygon stroke="#B5CFE5" stroke-linecap="round" stroke-linejoin="round" stroke-width="2" points="1.098 7.274 53.075 7.349 53.011 59.313 1.034 59.237"/>
    <polygon fill="#FEFEFE" points="6.169 1.958 58.233 2.034 58.17 53.998 6.106 53.92"/>
    <g transform="translate(0 .354)">
      <polygon stroke="#B5CFE5" stroke-linecap="round" stroke-linejoin="round" stroke-width="2" points="6.302 1.715 58.28 1.79 58.217 53.757 6.237 53.678"/>
      <path stroke="#B5CFE5" stroke-linecap="round" stroke-linejoin="round" stroke-width="2" d="M57.8033793,14.1003103 L6.66165517,14.1003103"/>
      <path fill="#B5CFE5" d="M11.4415862 8.07631034C11.4426207 7.21355172 12.144 6.51631034 13.0057241 6.51734483 13.8684828 6.51837931 14.5667586 7.21768966 14.5657241 8.08044828 14.5646897 8.94424138 13.8643448 9.64148276 13.0015862 9.64044828 12.1388276 9.63941379 11.4405517 8.94010345 11.4415862 8.07631034M18.7284828 8.07631034C18.7295172 7.21355172 19.4288276 6.51631034 20.2915862 6.51734483 21.1543448 6.51837931 21.8526207 7.21768966 21.8515862 8.08044828 21.8505517 8.94424138 21.1512414 9.64148276 20.2874483 9.64044828 19.4246897 9.63941379 18.7274483 8.94010345 18.7284828 8.07631034M26.0133103 8.07631034C26.0143448 7.21355172 26.7146897 6.51631034 27.5784828 6.51734483 28.4412414 6.51837931 29.1384828 7.21768966 29.1374483 8.08044828 29.1364138 8.94424138 28.436069 9.64148276 27.5733103 9.64044828 26.7105517 9.63941379 26.0122759 8.94010345 26.0133103 8.07631034"/>
      <path fill="#EB3027" d="M50.745931 17.121931C49.5448966 17.121931 48.6252414 18.0415862 48.6252414 19.2426207 48.6252414 19.3843448 48.6252414 19.5250345 48.6966207 19.6667586L45.0211034 21.8577931C44.6673103 21.5753793 44.1728276 21.3643448 43.6773103 21.3643448 43.1817931 21.3643448 42.6883448 21.5753793 42.3345517 21.8577931L38.658 19.6667586C38.658 19.5250345 38.7293793 19.3843448 38.7293793 19.2426207 38.7293793 18.0415862 37.8097241 17.121931 36.6086897 17.121931 35.4066207 17.121931 34.488 18.0415862 34.488 19.2426207 34.488 19.5250345 34.5593793 19.8084828 34.6297241 20.0205517L30.5290345 23.696069C30.2466207 23.5553793 29.8928276 23.484 29.5390345 23.484 29.1862759 23.484 28.8324828 23.5553793 28.550069 23.7674483L24.4493793 20.0908966C24.5197241 19.8084828 24.5911034 19.5964138 24.5911034 19.3129655 24.5911034 18.111931 23.6724828 17.1922759 22.4704138 17.1922759 21.2693793 17.1922759 20.3497241 18.111931 20.3497241 19.3129655L20.3497241 19.5964138 13.9876552 22.7774483C13.6338621 22.281931 13.1393793 22.0698621 12.5745517 22.0698621 11.3714483 22.0698621 10.4538621 22.9895172 10.4538621 24.1905517 10.4538621 25.3926207 11.3714483 26.3122759 12.5745517 26.3122759 13.7755862 26.3122759 14.6942069 25.3926207 14.6942069 24.1905517L14.6942069 23.9091724 21.0573103 20.7271034C21.4111034 21.0808966 21.9748966 21.2929655 22.5407586 21.2929655 22.8945517 21.2929655 23.2483448 21.2226207 23.5307586 21.0105517L27.6304138 24.686069C27.4897241 25.0388276 27.4183448 25.3222759 27.4183448 25.6046897 27.4183448 26.8057241 28.338 27.7253793 29.5390345 27.7253793 30.7411034 27.7253793 31.6607586 26.8057241 31.6607586 25.6046897 31.6607586 25.3222759 31.5893793 25.0388276 31.5190345 24.8267586L35.6186897 21.1522759C35.9011034 21.2929655 36.2548966 21.3643448 36.6086897 21.3643448 37.1031724 21.3643448 37.5976552 21.1522759 37.9514483 20.8688276L41.628 23.0598621C41.628 23.2015862 41.5566207 23.3433103 41.5566207 23.484 41.5566207 24.686069 42.4762759 25.6046897 43.6773103 25.6046897 44.8793793 25.6046897 45.798 24.686069 45.798 23.484 45.798 23.3433103 45.798 23.2015862 45.7266207 23.0598621L49.4031724 20.8688276C49.7569655 21.1522759 50.2514483 21.3643448 50.745931 21.3643448 51.948 21.3643448 52.8676552 20.4446897 52.8676552 19.2426207 52.8676552 18.0415862 51.948 17.121931 50.745931 17.121931M50.745931 37.6216552C50.1107586 37.6216552 49.5448966 37.904069 49.1911034 38.3292414L45.798 36.9864828 45.798 36.9151034C45.798 35.7130345 44.8793793 34.7944138 43.6773103 34.7944138 42.4762759 34.7944138 41.5566207 35.7130345 41.5566207 36.9151034 41.5566207 37.2688966 41.628 37.5513103 41.7686897 37.8337241L37.5273103 42.0761379C37.2448966 41.9344138 36.9624828 41.864069 36.6086897 41.864069 36.2548966 41.864069 35.9011034 41.9344138 35.6186897 42.1464828L31.5190345 38.469931C31.5893793 38.1875172 31.6607586 37.9754483 31.6607586 37.692 31.6607586 36.4909655 30.7411034 35.5723448 29.5390345 35.5723448 28.338 35.5723448 27.4183448 36.4909655 27.4183448 37.692 27.4183448 37.904069 27.4897241 38.1875172 27.560069 38.3995862L23.6021379 41.5806207C23.2483448 41.3685517 22.8945517 41.2268276 22.4704138 41.2268276 21.8342069 41.2268276 21.3397241 41.5102759 20.9155862 41.9344138L14.6942069 39.1775172 14.6942069 39.0357931C14.6942069 37.8337241 13.7755862 36.9151034 12.5745517 36.9151034 11.3714483 36.9151034 10.4538621 37.8337241 10.4538621 39.0357931 10.4538621 40.2368276 11.3714483 41.1564828 12.5745517 41.1564828 13.2107586 41.1564828 13.7042069 40.874069 14.1293793 40.4488966L20.3497241 43.1354483 20.3497241 43.2771724C20.3497241 44.4792414 21.2693793 45.3978621 22.4704138 45.3978621 23.6724828 45.3978621 24.5911034 44.4792414 24.5911034 43.2771724 24.5911034 43.0651034 24.5197241 42.7816552 24.4493793 42.5695862L28.4083448 39.3895862C28.7621379 39.6016552 29.115931 39.7433793 29.5390345 39.7433793 29.8928276 39.7433793 30.2466207 39.672 30.5290345 39.459931L34.6297241 43.1354483C34.5593793 43.4188966 34.488 43.7013103 34.488 43.9837241 34.488 45.1857931 35.4066207 46.1044138 36.6086897 46.1044138 37.8097241 46.1044138 38.7293793 45.1857931 38.7293793 43.9837241 38.7293793 43.6309655 38.658 43.3475172 38.5173103 43.0651034L42.7576552 38.8237241C43.0411034 38.9654483 43.3235172 39.0357931 43.6773103 39.0357931 44.3135172 39.0357931 44.8793793 38.7533793 45.2331724 38.3292414L48.6252414 39.672 48.6252414 39.7433793C48.6252414 40.9444138 49.5448966 41.864069 50.745931 41.864069 51.948 41.864069 52.8676552 40.9444138 52.8676552 39.7433793 52.8676552 38.5413103 51.948 37.6216552 50.745931 37.6216552"/>
      <mask id="inventory-creation-b" fill="#fff">
        <use xlink:href="#inventory-creation-a"/>
      </mask>
      <polygon fill="#B5D0E6" points="11.867 34.794 13.281 34.794 13.281 33.381 11.867 33.381" mask="url(#inventory-creation-b)"/>
      <polygon fill="#B5D0E6" points="11.867 31.968 13.281 31.968 13.281 30.553 11.867 30.553" mask="url(#inventory-creation-b)"/>
      <polygon fill="#B5D0E6" points="11.867 29.139 13.281 29.139 13.281 27.725 11.867 27.725" mask="url(#inventory-creation-b)"/>
      <polygon fill="#B5D0E6" points="21.763 38.329 23.178 38.329 23.178 36.916 21.763 36.916" mask="url(#inventory-creation-b)"/>
      <polygon fill="#B5D0E6" points="21.763 35.501 23.178 35.501 23.178 34.088 21.763 34.088" mask="url(#inventory-creation-b)"/>
      <polygon fill="#B5D0E6" points="21.763 32.673 23.178 32.673 23.178 31.26 21.763 31.26" mask="url(#inventory-creation-b)"/>
      <polygon fill="#B5D0E6" points="21.763 29.846 23.178 29.846 23.178 28.433 21.763 28.433" mask="url(#inventory-creation-b)"/>
      <polygon fill="#B5D0E6" points="21.763 27.018 23.178 27.018 23.178 25.604 21.763 25.604" mask="url(#inventory-creation-b)"/>
      <polygon fill="#B5D0E6" points="21.763 24.19 23.178 24.19 23.178 22.777 21.763 22.777" mask="url(#inventory-creation-b)"/>
      <polygon fill="#B5D0E6" points="28.833 33.381 30.246 33.381 30.246 31.968 28.833 31.968" mask="url(#inventory-creation-b)"/>
      <polygon fill="#B5D0E6" points="28.833 30.552 30.246 30.552 30.246 29.139 28.833 29.139" mask="url(#inventory-creation-b)"/>
      <polygon fill="#B5D0E6" points="35.902 38.329 37.316 38.329 37.316 36.916 35.902 36.916" mask="url(#inventory-creation-b)"/>
      <polygon fill="#B5D0E6" points="35.902 35.501 37.316 35.501 37.316 34.088 35.902 34.088" mask="url(#inventory-creation-b)"/>
      <polygon fill="#B5D0E6" points="35.902 32.673 37.316 32.673 37.316 31.26 35.902 31.26" mask="url(#inventory-creation-b)"/>
      <polygon fill="#B5D0E6" points="35.902 29.846 37.316 29.846 37.316 28.433 35.902 28.433" mask="url(#inventory-creation-b)"/>
      <polygon fill="#B5D0E6" points="35.902 27.018 37.316 27.018 37.316 25.604 35.902 25.604" mask="url(#inventory-creation-b)"/>
      <polygon fill="#B5D0E6" points="35.902 24.19 37.316 24.19 37.316 22.777 35.902 22.777" mask="url(#inventory-creation-b)"/>
      <polygon fill="#B5D0E6" points="42.97 31.26 44.384 31.26 44.384 29.846 42.97 29.846" mask="url(#inventory-creation-b)"/>
      <polygon fill="#B5D0E6" points="42.97 28.433 44.384 28.433 44.384 27.019 42.97 27.019" mask="url(#inventory-creation-b)"/>
      <polygon fill="#B5D0E6" points="50.04 35.501 51.453 35.501 51.453 34.088 50.04 34.088" mask="url(#inventory-creation-b)"/>
      <polygon fill="#B5D0E6" points="50.04 32.673 51.453 32.673 51.453 31.26 50.04 31.26" mask="url(#inventory-creation-b)"/>
      <polygon fill="#B5D0E6" points="50.04 29.846 51.453 29.846 51.453 28.433 50.04 28.433" mask="url(#inventory-creation-b)"/>
      <polygon fill="#B5D0E6" points="50.04 27.018 51.453 27.018 51.453 25.604 50.04 25.604" mask="url(#inventory-creation-b)"/>
      <polygon fill="#B5D0E6" points="50.04 24.19 51.453 24.19 51.453 22.777 50.04 22.777" mask="url(#inventory-creation-b)"/>
      <polygon fill="#B5D0E6" points="11.867 49.64 13.281 49.64 13.281 48.226 11.867 48.226" mask="url(#inventory-creation-b)"/>
      <polygon fill="#B5D0E6" points="11.867 46.811 13.281 46.811 13.281 45.397 11.867 45.397" mask="url(#inventory-creation-b)"/>
      <polygon fill="#B5D0E6" points="11.867 43.984 13.281 43.984 13.281 42.57 11.867 42.57" mask="url(#inventory-creation-b)"/>
      <polygon fill="#B5D0E6" points="21.763 51.053 23.178 51.053 23.178 49.64 21.763 49.64" mask="url(#inventory-creation-b)"/>
      <polygon fill="#B5D0E6" points="21.763 48.224 23.178 48.224 23.178 46.811 21.763 46.811" mask="url(#inventory-creation-b)"/>
      <polygon fill="#B5D0E6" points="28.833 51.053 30.246 51.053 30.246 49.64 28.833 49.64" mask="url(#inventory-creation-b)"/>
      <polygon fill="#B5D0E6" points="28.833 48.224 30.246 48.224 30.246 46.811 28.833 46.811" mask="url(#inventory-creation-b)"/>
      <polygon fill="#B5D0E6" points="28.833 45.397 30.246 45.397 30.246 43.984 28.833 43.984" mask="url(#inventory-creation-b)"/>
      <polygon fill="#B5D0E6" points="28.833 42.57 30.246 42.57 30.246 41.157 28.833 41.157" mask="url(#inventory-creation-b)"/>
      <polygon fill="#B5D0E6" points="35.902 48.932 37.316 48.932 37.316 47.519 35.902 47.519" mask="url(#inventory-creation-b)"/>
      <polygon fill="#B5D0E6" points="42.97 50.346 44.384 50.346 44.384 48.932 42.97 48.932" mask="url(#inventory-creation-b)"/>
      <polygon fill="#B5D0E6" points="42.97 47.519 44.384 47.519 44.384 46.105 42.97 46.105" mask="url(#inventory-creation-b)"/>
      <polygon fill="#B5D0E6" points="42.97 44.691 44.384 44.691 44.384 43.277 42.97 43.277" mask="url(#inventory-creation-b)"/>
      <polygon fill="#B5D0E6" points="42.97 41.863 44.384 41.863 44.384 40.449 42.97 40.449" mask="url(#inventory-creation-b)"/>
      <polygon fill="#B5D0E6" points="50.04 50.346 51.453 50.346 51.453 48.932 50.04 48.932" mask="url(#inventory-creation-b)"/>
      <polygon fill="#B5D0E6" points="50.04 47.519 51.453 47.519 51.453 46.105 50.04 46.105" mask="url(#inventory-creation-b)"/>
      <polygon fill="#B5D0E6" points="50.04 44.691 51.453 44.691 51.453 43.277 50.04 43.277" mask="url(#inventory-creation-b)"/>
    </g>
  </g>
</svg>
