<svg xmlns="http://www.w3.org/2000/svg" width="62" height="42" viewBox="0 0 62 42"><g fill="none" fill-rule="evenodd"><path fill="#FEFEFE" d="M9 1h45a3 3 0 013 3v34H6V4a3 3 0 013-3"/><path stroke="#B5D0E7" stroke-width="2" d="M9 1h45a3 3 0 013 3v34H6V4a3 3 0 013-3z" stroke-linecap="round" stroke-linejoin="round"/><path fill="#ED2E26" d="M21 15.95c.009-6.094 4.956-11.027 11.05-11.02 6.094.01 11.028 4.957 11.019 11.052-.009 6.094-4.956 11.027-11.05 11.018-6.095-.008-11.028-4.956-11.019-11.05"/><path fill="#FEFEFE" d="M32.034 9.673c-5.324 0-7.532 5.552-7.623 5.79a1.498 1.498 0 00-.045.948c.58 2.048 2.928 5.921 7.668 5.921s7.088-3.873 7.668-5.92a1.498 1.498 0 00-.045-.95c-.09-.237-2.299-5.789-7.623-5.789m0 1.5c4.357 0 6.224 4.83 6.224 4.83s-1.366 4.83-6.224 4.83c-4.858 0-6.224-4.83-6.224-4.83s1.867-4.83 6.224-4.83"/><path stroke="#FEFEFE" stroke-width="1.5" d="M29.384 16.532a2.705 2.705 0 013.179-3.18 2.704 2.704 0 012.122 2.123 2.705 2.705 0 01-3.18 3.179 2.704 2.704 0 01-2.121-2.122z" stroke-linecap="round" stroke-linejoin="round"/><path stroke="#B5D0E7" stroke-width="2" d="M6 30h51" stroke-linecap="round" stroke-linejoin="round"/><path fill="#FEFEFE" d="M36 34v3H26v-3H1v1.938A5.062 5.062 0 006.062 41h49.876A5.062 5.062 0 0061 35.938V34H36z"/><path stroke="#B5D0E7" stroke-width="2" d="M36 34v3H26v-3H1v1.938A5.062 5.062 0 006.062 41h49.876A5.062 5.062 0 0061 35.938V34H36z" stroke-linecap="round" stroke-linejoin="round"/></g></svg>