
<svg width="64px" height="49px" viewBox="0 0 64 49" version="1.1" xmlns="http://www.w3.org/2000/svg" xmlns:xlink="http://www.w3.org/1999/xlink">
    <!-- Generator: Sketch 44.1 (41455) - http://www.bohemiancoding.com/sketch -->
    <desc>Created with Sketch.</desc>
    <defs></defs>
    <g id="12.1-13-App-detail" stroke="none" stroke-width="1" fill="none" fill-rule="evenodd">
        <g id="12.5-App-Detail---Threat-Protection" transform="translate(-735.000000, -1419.000000)">
            <g id="---Features-overview" transform="translate(185.000000, 1290.000000)">
                <g id="::-02" transform="translate(550.000000, 120.000000)">
                    <g id="icon" transform="translate(1.000000, 10.000000)">
                        <path d="M31,15.1357 C34.857,15.1357 37.986,18.2637 37.986,22.1207 C37.986,25.9797 34.857,29.1067 31,29.1067 C27.143,29.1067 24.014,25.9797 24.014,22.1207 C24.014,18.2637 27.143,15.1357 31,15.1357" id="Fill-1" fill="#EC3027"></path>
                        <path d="M50.2148,-7.10542736e-15 C44.9968,8.095 42.4308,17.568 43.4418,27.482 C44.1448,34.41 46.5348,40.857 50.2148,46.571" id="Stroke-3" stroke="#B5CFE5" stroke-width="2" stroke-linecap="round" stroke-linejoin="round"></path>
                        <path d="M56.3262,8.3007 C53.0662,13.3577 51.4642,19.2767 52.0942,25.4707 C52.5332,29.7977 54.0282,33.8267 56.3262,37.3967" id="Stroke-5" stroke="#B5CFE5" stroke-width="2" stroke-linecap="round" stroke-linejoin="round"></path>
                        <path d="M62,17.0351 C60.698,19.0571 60.057,21.4221 60.31,23.8961 C60.484,25.6241 61.082,27.2361 62,28.6601" id="Stroke-7" stroke="#B5CFE5" stroke-width="2" stroke-linecap="round" stroke-linejoin="round"></path>
                        <path d="M11.7852,-7.10542736e-15 C17.0032,8.095 19.5692,17.568 18.5582,27.482 C17.8552,34.41 15.4652,40.857 11.7852,46.571" id="Stroke-9" stroke="#B5CFE5" stroke-width="2" stroke-linecap="round" stroke-linejoin="round"></path>
                        <path d="M5.6738,8.3007 C8.9338,13.3577 10.5358,19.2767 9.9058,25.4707 C9.4668,29.7977 7.9718,33.8267 5.6738,37.3967" id="Stroke-11" stroke="#B5CFE5" stroke-width="2" stroke-linecap="round" stroke-linejoin="round"></path>
                        <path d="M0,17.0351 C1.302,19.0571 1.943,21.4221 1.69,23.8961 C1.516,25.6241 0.918,27.2361 0,28.6601" id="Stroke-13" stroke="#B5CFE5" stroke-width="2" stroke-linecap="round" stroke-linejoin="round"></path>
                    </g>
                </g>
            </g>
        </g>
    </g>
</svg>