<svg xmlns="http://www.w3.org/2000/svg" width="62" height="46" viewBox="0 0 62 46"><g fill="none" fill-rule="evenodd" opacity=".9"><path fill="#FEFEFE" d="M51.15 31.023l-40.3-3V1h40.3"/><path stroke="#B5D0E7" stroke-width="2" d="M51 31l-40-2.998V1h40z" stroke-linecap="round" stroke-linejoin="round"/><path fill="#FEFEFE" d="M6.139 37.876H55.86V7.853H6.139"/><path stroke="#B5D0E7" stroke-width="2" d="M6 38h50V8H6z" stroke-linecap="round" stroke-linejoin="round"/><path fill="#FEFEFE" d="M1 45.584h60V14.561H1"/><path stroke="#B5D0E7" stroke-width="2" d="M1 45h60V14H1z" stroke-linecap="round" stroke-linejoin="round"/><path fill="#FEFEFE" d="M45.26 19.702h6.16c0 3.07 2.41 5.58 5.44 5.73v9.29a5.732 5.732 0 00-5.41 6.33h-6.19"/><path stroke="#B5D0E7" stroke-width="2" d="M17 40h-6.476A5.524 5.524 0 005 34.474v-8.939A5.526 5.526 0 0010.524 20H17m28 20h6.476A5.524 5.524 0 0157 34.474v-8.939A5.526 5.526 0 0151.476 20H45" stroke-linejoin="round"/><path fill="#ED2E26" d="M21 30c0-5.523 4.477-10 10-10s10 4.477 10 10-4.477 10-10 10-10-4.477-10-10"/><path stroke="#ED2E26" stroke-width="2" d="M21 30c0-5.523 4.477-10 10-10s10 4.477 10 10-4.477 10-10 10-10-4.477-10-10z" stroke-linecap="round" stroke-linejoin="round"/><path stroke="#FEFEFE" stroke-width="1.5" d="M36 33v3H26v-3" stroke-linejoin="round"/><path stroke="#FEFEFE" stroke-width="1.5" d="M31 22.864v9.465" stroke-linecap="round" stroke-linejoin="round"/><path stroke="#FEFEFE" stroke-width="1.75" d="M31 33l-4-4m8 0l-4 4" stroke-linecap="round" stroke-linejoin="round"/><path stroke="#B5D0E7" stroke-width="2" d="M46 30a3 3 0 116 0 3 3 0 01-6 0z" stroke-linecap="round" stroke-linejoin="round"/><path fill="#FEFEFE" d="M15.75 27.946h-4.899"/><path stroke="#B5D0E7" stroke-width="2" d="M17 28h-6m6 5h-6" stroke-linejoin="round"/></g></svg>