<svg xmlns="http://www.w3.org/2000/svg" width="62" height="62"><g fill="none" fill-rule="evenodd"><path stroke="#B5CFE5" stroke-width="2" d="M22.101 1c11.655 0 21.102 9.447 21.102 21.102 0 11.652-9.447 21.1-21.102 21.1C10.446 43.202 1 33.754 1 22.102 1 10.447 10.446 1 22.101 1z"/><path stroke="#B5CFE5" stroke-linecap="round" stroke-linejoin="round" stroke-width="5" d="M43.857 43.857L59.11 59.11"/><path stroke="#B5CFE5" stroke-linecap="round" stroke-linejoin="round" stroke-width="2" d="M37.429 37.429l22.647 22.647"/><path d="M22.886 6.357c8.537 0 15.456 6.92 15.456 15.456S31.423 37.27 22.886 37.27c-8.536 0-15.457-6.922-15.457-15.458 0-8.536 6.92-15.456 15.457-15.456"/><path fill="#ED2E26" d="M24.024 18.213h5.912a.34.34 0 01.29.522l-8.69 13.758a.341.341 0 01-.628-.196l.411-9.86a.344.344 0 00-.325-.354H15.27a.342.342 0 01-.278-.541l8.609-11.83a.341.341 0 01.615.224l-.532 7.912a.34.34 0 00.315.365h.025"/></g></svg>