<svg xmlns="http://www.w3.org/2000/svg" viewBox="0 0 56 71"><g fill="none" fill-rule="evenodd" transform="translate(1 1)"><path fill="#FFF" fill-rule="nonzero" stroke="#B5D0E7" stroke-linecap="round" stroke-linejoin="round" stroke-width="2" d="M38.74 68.395H3.155A3.124 3.124 0 010 65.24V3.155A3.124 3.124 0 013.155 0H38.74a3.124 3.124 0 013.155 3.155V65.24a3.124 3.124 0 01-3.155 3.155z"/><path stroke="#B5D0E7" stroke-linecap="round" stroke-linejoin="round" stroke-width="2" d="M0 9.212h41.895M0 56.66h41.895"/><path fill="#B5D0E7" fill-rule="nonzero" d="M16.91 4.29h7.95v1.893h-7.95z"/><circle cx="20.948" cy="62.843" r="1.767" fill="#B5D0E7" fill-rule="nonzero"/><path stroke="#EE3127" stroke-linecap="round" stroke-linejoin="round" stroke-width="4.624" d="M11.483 21.452l14.386 14.386L52.243 9.464"/><path fill="#B5D0E7" fill-rule="nonzero" d="M31.295 49.971H9.085a1.4 1.4 0 01-1.387-1.388 1.4 1.4 0 011.388-1.388h22.21a1.4 1.4 0 011.387 1.388 1.4 1.4 0 01-1.388 1.388z"/><path fill="#EE3127" fill-rule="nonzero" d="M28.393 49.971H9.086a1.4 1.4 0 01-1.388-1.388 1.4 1.4 0 011.388-1.388h19.307a1.4 1.4 0 011.388 1.388 1.4 1.4 0 01-1.388 1.388z"/></g></svg>