<svg xmlns="http://www.w3.org/2000/svg" viewBox="0 0 72 72"><g fill="none" fill-rule="evenodd"><g transform="translate(21 13)"><path fill="#FFF" fill-rule="nonzero" stroke="#B5D0E7" stroke-linecap="round" stroke-linejoin="round" stroke-width="1.66" d="M26.4 45.2H3c-1.1 0-2.1-.9-2.1-2.1V2.3C.9 1.2 1.8.2 3 .2h23.4c1.1 0 2.1.9 2.1 2.1v40.9c0 1.1-.9 2-2.1 2z"/><path stroke="#B5D0E7" stroke-linecap="round" stroke-linejoin="round" stroke-width="1.66" d="M.9 6.3h27.6M.9 37.5h27.6"/><path fill="#B5D0E7" fill-rule="nonzero" d="M12.1 3h5.3v1.3h-5.3z"/><circle cx="14.7" cy="41.6" r="1.2" fill="#B5D0E7" fill-rule="nonzero"/></g><g stroke="#B5CFE5" stroke-linecap="round" stroke-linejoin="round" stroke-width="2.41"><path d="M13.2 61.9C8.2 57.6 4.4 51.8 2.5 45c-5.1-18.5 5.7-37.5 24-42.5C34 .4 41.6 1 48.4 3.6m5.9 3C61.2 11 66.6 18 69 26.5c5.1 18.4-5.7 37.4-24.1 42.5-9.4 2.6-18.9 1-26.7-3.5"/><path d="M54.8 14.2l-.9-7.9 7.9-.9M6.1 62.8l7.9-.5-.5-7.9"/></g><path fill="#ED2E26" fill-rule="nonzero" d="M34.8 26.1l-9.3 16.1c-.4.7.1 1.6.9 1.6h18.5c.8 0 1.3-.9.9-1.6l-9.3-16.1c-.3-.7-1.3-.7-1.7 0"/><path fill="#EE3D4A" fill-rule="nonzero" d="M35.7 31.5v4.3"/><path stroke="#FFF" stroke-linecap="round" stroke-width="1.997" d="M35.7 31.5v4.3"/><path fill="#FFF" fill-rule="nonzero" d="M36.7 39.4c0 .6-.4 1-1 1s-1-.4-1-1 .4-1 1-1c.5 0 1 .5 1 1"/></g></svg>