<svg xmlns="http://www.w3.org/2000/svg" viewBox="0 0 72 76"><g fill="none" fill-rule="evenodd"><g transform="translate(20.559 15.412)"><path fill="#FFF" fill-rule="nonzero" stroke="#B5D0E7" stroke-linecap="round" stroke-linejoin="round" stroke-width="1.764" d="M28.206 49.309H2.574a2.285 2.285 0 01-2.265-2.265V2.368A2.285 2.285 0 012.574.103h25.632a2.285 2.285 0 012.265 2.265v44.676a2.285 2.285 0 01-2.265 2.265z"/><path stroke="#B5D0E7" stroke-linecap="round" stroke-linejoin="round" stroke-width="1.764" d="M.309 6.794h30.162M.309 40.868h30.162"/><circle cx="15.441" cy="45.294" r="1.338" fill="#B5D0E7" fill-rule="nonzero"/><path fill="#B5D0E7" fill-rule="nonzero" d="M14.72 11.324l-9.882 9.882a.808.808 0 01-1.132 0 .808.808 0 010-1.132l9.882-9.883a.808.808 0 011.133 0 .808.808 0 010 1.133zm-5.97.102l-4.118 4.118a.808.808 0 01-1.132 0 .808.808 0 010-1.132l4.118-4.118a.808.808 0 011.132 0c.309.206.309.72 0 1.132z"/></g><g stroke-linecap="round" stroke-linejoin="round" stroke-width="2.368" transform="translate(1 1)"><circle cx="35" cy="38.912" r="34.794" stroke="#B4CFE4"/><path stroke="#EE3127" d="M35 .206v15.956"/><path fill="#EE3127" fill-rule="nonzero" stroke="#EE3127" d="M30.779 12.765L35 20.382l4.221-7.617z"/><path stroke="#EE3127" d="M65.985 62.074L53.221 52.5"/><path fill="#EE3127" fill-rule="nonzero" stroke="#EE3127" d="M58.368 51.162l-8.647-1.236 3.603 7.927z"/><path stroke="#EE3127" d="M3.5 62.074L16.265 52.5"/><path fill="#EE3127" fill-rule="nonzero" stroke="#EE3127" d="M11.118 51.162l8.544-1.236-3.5 7.927z"/></g></g></svg>