<svg xmlns="http://www.w3.org/2000/svg" viewBox="0 0 67 84"><g fill="none" fill-rule="evenodd" transform="translate(1 1)"><path fill="#FFF" fill-rule="nonzero" stroke="#B5D0E7" stroke-linecap="round" stroke-linejoin="round" stroke-width="2" d="M39.86 70.371H3.246A3.214 3.214 0 010 67.125V3.245A3.214 3.214 0 013.246 0H39.86a3.214 3.214 0 013.246 3.246v63.88a3.214 3.214 0 01-3.246 3.245z"/><path stroke="#B5D0E7" stroke-linecap="round" stroke-linejoin="round" stroke-width="2" d="M0 9.478h43.106M0 58.296h43.106"/><path fill="#B5D0E7" fill-rule="nonzero" d="M17.398 4.414h8.18v1.948h-8.18z"/><circle cx="21.553" cy="64.658" r="1.818" fill="#B5D0E7" fill-rule="nonzero"/><path fill="#ED2E26" fill-rule="nonzero" d="M46.004 43.409c10.777.13 19.476 8.959 19.346 19.735-.13 10.776-8.959 19.476-19.735 19.346-10.776-.13-19.475-8.959-19.346-19.735.13-10.777 8.959-19.476 19.735-19.346"/><path fill="#FFF" fill-rule="nonzero" d="M45.875 52.368c-8.96 0-12.724 9.348-12.854 9.737-.13.39-.13.78 0 1.169 1.039 3.506 4.934 9.997 12.854 9.997 7.92 0 11.945-6.491 12.853-9.997.13-.39.13-.78 0-1.169-.26-.26-3.895-9.737-12.853-9.737m0 1.947c7.66 0 11.036 8.57 11.036 8.57s-2.467 8.569-11.036 8.569c-8.57 0-11.036-8.57-11.036-8.57s3.245-8.569 11.036-8.569"/><path stroke="#FFF" stroke-linecap="round" stroke-linejoin="round" stroke-width="1.5" d="M41.07 62.884c0-2.596 2.078-4.804 4.805-4.804 2.596 0 4.804 2.078 4.804 4.804 0 2.597-2.078 4.804-4.804 4.804-2.727 0-4.804-2.207-4.804-4.804z"/><path fill="#B5D0E7" fill-rule="nonzero" d="M20.514 16.1L6.362 30.122c-.52.52-1.169.52-1.688 0-.52-.52-.52-1.169 0-1.688l14.152-14.152c.52-.52 1.169-.52 1.688 0 .39.65.39 1.298 0 1.818zm-8.57 0l-5.842 5.972c-.519.52-1.168.52-1.688 0-.519-.52-.519-1.168 0-1.688l5.843-5.842c.52-.52 1.169-.52 1.688 0a.974.974 0 010 1.558z"/></g></svg>