<svg xmlns="http://www.w3.org/2000/svg" width="65" height="59" viewBox="0 0 65 59"><g fill="none" fill-rule="evenodd"><path stroke="#B5D0E7" stroke-width="2" d="M1 18.326V1h17.326m0 48H1V31.674M31.674 1H49v17.326m0 13.348V49H31.674" stroke-linecap="round" stroke-linejoin="round"/><path stroke="#B5D0E7" stroke-width="2" d="M25 16c-7.251 0-13.183 5.873-16.459 10C11.817 30.127 17.749 36 25 36c7.251 0 13.183-5.873 16.459-10C38.183 21.873 32.251 16 25 16z"/><path fill="#B5D0E7" d="M27.041 25.996a2 2 0 11-3.999 0 2 2 0 014 0"/><path stroke="#B5D0E7" stroke-width="2" d="M31.041 25.996a6 6 0 11-12 0 6 6 0 0112 0z" stroke-linecap="round" stroke-linejoin="round"/><path fill="#ED2E26" d="M47.511 32.52L33.58 56.65a1.567 1.567 0 001.357 2.35h27.861a1.567 1.567 0 001.357-2.35L50.225 32.52a1.567 1.567 0 00-2.714 0"/><path fill="#EE3D4A" d="M48.868 40.651v6.414"/><path stroke="#FFF" stroke-width="3" d="M48.868 40.651v6.414" stroke-linecap="round"/><path fill="#FFF" d="M50.368 52.5a1.5 1.5 0 11-3.001-.001 1.5 1.5 0 013 .001"/></g></svg>