<svg id="Layer_1" data-name="Layer 1" xmlns="http://www.w3.org/2000/svg" viewBox="0 0 64 64"><defs><style>.cls-1{fill:none;stroke:#b4cfe4;stroke-linecap:round;stroke-linejoin:round;stroke-width:2px}</style></defs><path class="cls-1" d="M15.33 42.15c-.49 1.31-1.42 5-1.59 5.62a1.77 1.77 0 00.48 1.64L16.79 52a1.73 1.73 0 001.64.48c.48-.11 4.23-1.06 5.62-1.59l4 1.64c.58 1.27 2.52 4.52 2.87 5.08a1.77 1.77 0 001.51.85H36a1.77 1.77 0 001.49-.82c.27-.43 2.27-3.76 2.87-5.09l4-1.64c1.31.49 5 1.43 5.63 1.59a1.78 1.78 0 001.65-.5l2.57-2.57a1.72 1.72 0 00.47-1.63c-.11-.49-1.06-4.23-1.58-5.63l1.64-4c1.26-.57 4.52-2.51 5.08-2.87a1.73 1.73 0 00.84-1.51v-3.61a1.74 1.74 0 00-.82-1.5c-.42-.27-3.76-2.26-5.08-2.87l-1.64-4c.48-1.31 1.42-5 1.58-5.63a1.75 1.75 0 00-.47-1.64L51.64 12a1.75 1.75 0 00-1.64-.46c-.48.11-4.23 1.05-5.62 1.58l-4-1.64c-.55-1.27-2.49-4.48-2.84-5.08A1.77 1.77 0 0036 5.56h-3.6a1.77 1.77 0 00-1.49.82c-.27.43-2.27 3.76-2.87 5.09l-4 1.64c-1.31-.49-5-1.43-5.63-1.59a1.78 1.78 0 00-1.61.48l-2.57 2.58a1.75 1.75 0 00-.47 1.64c.11.49 1.06 4.23 1.58 5.63M3.34 32h13.08"/><path fill="#b4cfe4" stroke="#b4cfe4" stroke-linecap="round" stroke-linejoin="round" stroke-width="2" d="M13.69 35.45L19.94 32l-6.25-3.45v6.9z"/><path id="Fill-3" d="M35.35 19.38c6.9 0 10.37 3.69 10.37 3.69a48.07 48.07 0 01.14 8.24c-.38 8.32-10.51 13.31-10.51 13.31s-10.14-5-10.52-13.31a49.46 49.46 0 01.17-8.24s3.47-3.69 10.38-3.69" fill="#ec3027"/><path id="Fill-6" d="M30.11 30.66a5.26 5.26 0 015.18-5.33 5.2 5.2 0 015.19 5.19c0 2.28-2 4.16-3.48 5.12a9 9 0 003.13.8A7.47 7.47 0 0043 30.52a7.75 7.75 0 00-15.5 0 8.59 8.59 0 003.11 6.63 16 16 0 007.89 3.25 8.82 8.82 0 002.29-2.15A21.53 21.53 0 0134 36.39c-2.56-1.35-3.86-3.27-3.86-5.73" fill="#fff"/></svg>