<svg xmlns="http://www.w3.org/2000/svg" width="61" height="54" viewBox="0 0 61 54"><g fill="none" fill-rule="evenodd" opacity=".9"><path stroke="#B5D0E7" stroke-width="2" d="M2.333 1h52.333C55.403 1 56 1.597 56 2.333v12.459c0 .736-.597 1.333-1.334 1.333H2.333A1.333 1.333 0 011 14.792V2.333C1 1.597 1.597 1 2.333 1z" stroke-linecap="round" stroke-linejoin="round"/><path stroke="#B5D0E7" stroke-width="2" d="M2.333 16h52.333c.737 0 1.334.592 1.334 1.322v12.356c0 .73-.597 1.322-1.334 1.322H2.333A1.328 1.328 0 011 29.678V17.322C1 16.592 1.597 16 2.333 16zm0 15h52.333c.737 0 1.334.592 1.334 1.322v12.356c0 .73-.597 1.322-1.334 1.322H2.333A1.328 1.328 0 011 44.678V32.322C1 31.592 1.597 31 2.333 31zm0-30h52.333C55.403 1 56 1.592 56 2.322v12.356c0 .73-.597 1.322-1.334 1.322H2.333A1.328 1.328 0 011 14.678V2.322C1 1.592 1.597 1 2.333 1z" stroke-linecap="round" stroke-linejoin="round"/><path stroke="#ED2E26" stroke-width="2" d="M5.965 8.563a2.215 2.215 0 114.431 0 2.215 2.215 0 01-4.43 0z" stroke-linecap="round"/><path fill="#ED2E26" d="M15.132 8.563a2.215 2.215 0 114.43 0 2.215 2.215 0 01-4.43 0"/><path stroke="#ED2E26" stroke-width="2" d="M5.965 38.813a2.215 2.215 0 114.431 0 2.215 2.215 0 01-4.43 0z" stroke-linecap="round"/><path fill="#ED2E26" d="M15.132 38.813a2.215 2.215 0 114.43 0 2.215 2.215 0 01-4.43 0"/><path stroke="#ED2E26" stroke-width="2" d="M19.563 23.688a2.215 2.215 0 11-4.431-.001 2.215 2.215 0 014.43 0z" stroke-linecap="round"/><path fill="#ED2E26" d="M10.396 23.688a2.215 2.215 0 11-4.431-.001 2.215 2.215 0 014.43 0"/><path stroke="#C5E2E9" stroke-width="2" d="M34.764 36.597l4.583 4.924" stroke-linecap="round" stroke-linejoin="round"/><path stroke="#B5D0E7" stroke-width="2" d="M25.597 36.597l4.583 4.924" stroke-linecap="round" stroke-linejoin="round"/><path stroke="#C5E2E9" stroke-width="2" d="M43.93 36.597l4.584 4.924" stroke-linecap="round" stroke-linejoin="round"/><path stroke="#B5D0E7" stroke-width="2" d="M34.764 21.226l4.583 4.924m-13.75-4.924l4.583 4.924m13.75-4.924l4.584 4.924M34.764 6.1l4.583 4.925M25.597 6.1l4.583 4.924M43.93 6.1l4.584 4.924" stroke-linecap="round" stroke-linejoin="round"/><path fill="#ED2E26" d="M46.021 24c8.284.012 14.991 6.738 14.979 15.021-.012 8.284-6.738 14.991-15.021 14.979-8.284-.012-14.991-6.738-14.979-15.021.012-8.284 6.738-14.991 15.021-14.979"/><path stroke="#FEFEFE" stroke-width="1.5" d="M52.364 32.636a9 9 0 010 12.728 9 9 0 01-12.728 0 9 9 0 010-12.728 9 9 0 0112.728 0zm0 0L39.636 45.364" stroke-linecap="round" stroke-linejoin="round"/></g></svg>