<svg xmlns="http://www.w3.org/2000/svg" width="62" height="60"><g fill="none" fill-rule="evenodd"><path fill="#EE3D3A" d="M30.557 15.389c7.686 0 11.55 4.112 11.55 4.112s.442 3.044.16 9.173c-.426 9.259-11.708 14.819-11.709 14.819 0 0-11.282-5.56-11.708-14.82-.282-6.128.16-9.172.16-9.172s3.861-4.112 11.547-4.112"/><path fill="#FFF" d="M24.79 27.56c0-3.274 2.588-5.937 5.77-5.937a5.78 5.78 0 0 1 5.773 5.774c0 2.54-2.185 4.633-3.87 5.706.655.373 2.096.766 3.476.892a8.332 8.332 0 0 0 3.246-6.598c0-4.757-3.87-8.625-8.625-8.625-4.757 0-8.626 3.868-8.626 8.625 0 2.873 1.196 5.425 3.458 7.379 2.116 1.828 5.21 3.049 8.734 3.627.764-.423 2.068-1.668 2.558-2.398-2.943-.377-5.727-1.094-7.594-2.074-2.853-1.497-4.3-3.641-4.3-6.371"/><path stroke="#B5D0E7" stroke-linecap="round" stroke-linejoin="round" stroke-width="2" d="M40.958 46.166a19.604 19.604 0 0 1-10.398 2.967c-10.876 0-19.693-8.817-19.693-19.693 0-10.875 8.817-19.69 19.693-19.69.322 0 .642.007.96.022"/><path fill="#B5D0E7" d="M38.154 43.599l6.854-.105-3.301 5.903z"/><path stroke="#B5D0E7" stroke-linecap="round" stroke-linejoin="round" stroke-width="2" d="M38.154 43.599l6.854-.105-3.301 5.903z"/><path fill="#B5D0E7" d="M46.954 11.529l-4.9-9.628 11.095.27z"/><path stroke="#B5D0E7" stroke-linecap="round" stroke-linejoin="round" stroke-width="2" d="M46.954 11.529l-4.9-9.628 11.095.27z"/><path stroke="#B5D0E7" stroke-linecap="round" stroke-linejoin="round" stroke-width="2" d="M14.208 4.813a29.793 29.793 0 0 1 2.914-1.707M6.726 11.952a29.711 29.711 0 0 1 2.876-3.357M1 29.441c0-3.412.579-6.69 1.643-9.74M49.114 6.43c6.711 5.418 11.004 13.713 11.004 23.01C60.118 45.766 46.884 59 30.559 59c-13.73 0-25.274-9.361-28.596-22.05"/></g></svg>