<svg version="1.1" id="Layer_1" xmlns="http://www.w3.org/2000/svg" x="0" y="0" viewBox="0 0 64 64" xml:space="preserve"><style>.st0{fill:none;stroke:#b5cfe5;stroke-width:2;stroke-linecap:round;stroke-linejoin:round}.st3{fill:#fff}</style><path id="Fill-3_50_" class="st0" d="M32 16.02c8.58 0 12.89 4.59 12.89 4.59s.49 3.4.18 10.24C44.59 41.19 32 47.4 32 47.4s-12.59-6.21-13.07-16.54c-.32-6.84.18-10.24.18-10.24s4.31-4.6 12.89-4.6"/><path class="st0" d="M13.3 53.24a28.492 28.492 0 01-8.89-14.06C.19 23.94 9.13 8.17 24.37 3.96a28.525 28.525 0 0118.12.95M47.39 7.41A28.484 28.484 0 0159.6 23.93c4.21 15.24-4.73 31.01-19.97 35.23-7.77 2.15-15.68.88-22.12-2.91"/><path class="st0" d="M47.82 13.67l-.7-6.55 6.55-.7M7.38 54.06l6.58-.44-.44-6.57"/><path d="M31.3 34.17l-3.09 3.09c-.46.46-1.22.54-1.74.1-.28-.24-.44-.6-.42-.94 0-.32.12-.64.36-.88l3.15-3.15c.38-.38.38-1.02 0-1.4l-3.15-3.15a1.24 1.24 0 01-.36-.88c0-.36.14-.7.42-.94.5-.42 1.28-.36 1.74.1l3.11 3.11c.38.38 1.02.38 1.4 0l3.11-3.11c.52-.52 1.36-.48 1.84.08.42.5.34 1.26-.12 1.72l-3.11 3.11c-.38.38-.38 1.02 0 1.4l3.15 3.15c.52.52.48 1.36-.08 1.84-.5.42-1.26.34-1.72-.12l-3.11-3.11c-.36-.4-1-.4-1.38-.02z" fill="#b5d0e7"/><path id="Fill-3_9_" d="M62.12 47.05c0 8.28-6.72 15-15 15s-15-6.72-15-15 6.72-15 15-15 15 6.71 15 15" fill="#ed2e26"/><path class="st3" d="M39.95 42.44c-1.23 0-2.38.48-3.24 1.35-.87.87-1.35 2.01-1.35 3.24 0 2.53 2.08 4.61 4.61 4.61h14.31c1.23 0 2.38-.48 3.24-1.35s1.35-2.01 1.35-3.24c0-2.53-2.08-4.61-4.61-4.61H39.95zm.02 7.8c-.87 0-1.66-.33-2.26-.93s-.93-1.4-.93-2.26.33-1.66.93-2.26 1.4-.93 2.26-.93h1.83v6.39h-1.83v-.01zm3.26 0v-6.39h7.82l-.03 6.39h-7.79zm14.24-3.19c0 .87-.33 1.66-.93 2.26s-1.4.93-2.26.93h-1.83v-6.39h1.83c.87 0 1.66.33 2.26.93s.93 1.4.93 2.27zM42.51 39.88c0 .4.32.72.7.7.4 0 .72-.32.7-.7 0-1.76 1.43-3.19 3.19-3.19.87 0 1.66.33 2.26.93s.93 1.4.93 2.26c0 .4.32.72.7.7.2 0 .38-.08.5-.2s.2-.3.2-.5c0-2.53-2.08-4.61-4.61-4.61-2.5.01-4.57 2.08-4.57 4.61zM43.23 53.5c-.4 0-.72.32-.7.7 0 2.53 2.08 4.61 4.61 4.61 1.26 0 2.41-.52 3.24-1.35.83-.83 1.35-1.98 1.35-3.24 0-.4-.32-.72-.7-.7-.4 0-.72.32-.7.7 0 1.76-1.43 3.19-3.19 3.19-.87 0-1.66-.33-2.26-.93s-.93-1.4-.93-2.26c-.02-.42-.34-.73-.72-.72z"/><ellipse class="st3" cx="39.28" cy="47.06" rx=".73" ry=".71"/><ellipse class="st3" cx="55.19" cy="47.04" rx=".73" ry=".71"/><ellipse class="st3" cx="48.84" cy="48.82" rx=".73" ry=".71"/><ellipse class="st3" cx="45.41" cy="48.82" rx=".73" ry=".71"/><ellipse class="st3" cx="48.83" cy="45.27" rx=".73" ry=".71"/><ellipse class="st3" cx="45.4" cy="45.28" rx=".73" ry=".71"/></svg>