<svg version="1.1" id="Layer_1" xmlns="http://www.w3.org/2000/svg" x="0" y="0" viewBox="0 0 64 64" xml:space="preserve"><style>.st0{fill:#b5d0e5}.st7{fill:#fff;stroke:#b5cfe5;stroke-width:1.5;stroke-linecap:round;stroke-linejoin:round;stroke-miterlimit:10}</style><path class="st0" d="M36.28 27.15H24.74V15.6h11.54v11.55z"/><path d="M49.02 27.15H37.48V15.6h11.54v11.55z" fill="#cbdeed"/><path d="M36.28 39.9H24.74V28.36h11.54V39.9z" fill="#e1ecf5"/><path d="M49.02 39.9H37.48V28.36h11.54V39.9z" fill="#f0f6fa"/><path id="Fill-7_13_" d="M22.31 31.7c4.53.01 8.2 3.69 8.2 8.22-.01 4.53-3.69 8.2-8.22 8.2-4.53-.01-8.2-3.69-8.2-8.22.01-4.54 3.69-8.21 8.22-8.2" fill="#ed2e26"/><path id="Stroke-9_23_" fill="none" stroke="#fefefe" stroke-width="2" stroke-linecap="round" stroke-linejoin="round" d="M18.83 39.58l2.69 2.69 4.94-4.94"/><circle cx="31.68" cy="32" fill="none" stroke="#ed2e26" stroke-width="2" stroke-linecap="round" stroke-linejoin="round" stroke-dasharray="6.0099,7.0115" r="26.95"/><circle class="st7" cx="11.12" cy="11.78" r="10.1"/><circle class="st7" cx="57.42" cy="39.45" r="4.89"/><circle class="st7" cx="47.86" cy="54.45" r="7.31"/><path class="st0" d="M15.32 14.19c-.16.36-.34.7-.56 1.01-.29.42-.54.71-.72.87-.29.26-.6.4-.93.41-.24 0-.52-.07-.86-.2-.33-.14-.64-.2-.92-.2-.29 0-.61.07-.95.2-.34.14-.61.21-.82.22-.32.01-.63-.13-.95-.42-.2-.18-.45-.48-.75-.9-.32-.45-.59-.98-.8-1.58-.22-.65-.33-1.28-.33-1.89 0-.7.15-1.3.45-1.8a2.627 2.627 0 012.23-1.32c.25 0 .58.08.99.23s.67.23.79.23c.09 0 .38-.09.87-.27.47-.17.86-.24 1.19-.21.88.07 1.53.42 1.97 1.04-.78.47-1.17 1.14-1.16 1.99.01.66.25 1.22.72 1.66.21.2.45.36.72.47-.05.14-.11.3-.18.46zm-2.01-7.91c0 .52-.19 1.01-.57 1.46-.46.53-1.01.84-1.61.8-.01-.06-.01-.13-.01-.2 0-.5.22-1.03.6-1.47.19-.22.44-.41.74-.55.3-.14.58-.22.84-.24.01.07.01.14.01.2zM48.87 51.02l2.88 6.86v-6.86h-2.88zm-4.89 0v6.86l2.88-6.86h-2.88zm2.63 5.46h1.31l.58 1.4h1.19l-1.85-4.35-1.23 2.95z"/></svg>