<svg xmlns="http://www.w3.org/2000/svg" xmlns:xlink="http://www.w3.org/1999/xlink" width="47" height="66"><defs><path id="a" d="M.001.252h46.163V65.8H.001z"/></defs><g fill="none" fill-rule="evenodd"><g transform="translate(0 -.207)"><mask id="b" fill="#fff"><use xlink:href="#a"/></mask><path fill="#9CBFDF" d="M21.087 65.8v-5.223c.138.014.283.011.42.022 1.078.097 2.074.097 3.151 0 .139-.012.282-.009.42-.022V65.8l1.997-.001V60.26c8.788-1.846 15.409-9.655 15.409-18.984v-9.684h3.68V17.777h-8.238V.252h-6.57v17.525H14.808V.252h-6.57v17.525H.001v13.817h3.68v9.683c0 9.33 6.621 17.14 15.41 18.986V65.8h1.996zM5.677 41.277v-11.68h-3.68v-9.824h42.171v9.825h-3.681v11.68c0 8.37-5.94 15.377-13.826 17.032l-.747.122c-.48.08-.927.135-1.365.177-.482.042-.971.075-1.467.075-.495 0-.983-.033-1.469-.075a19.827 19.827 0 0 1-1.364-.177l-.747-.122c-7.883-1.656-13.825-8.662-13.825-17.033zm4.556-23.499h2.579V2.248h-2.579v15.53zm23.119 0h2.579V2.248h-2.58v15.53z" mask="url(#b)"/></g><path fill="#ED2E26" d="M23.08 24.79c6.744 0 10.134 3.608 10.134 3.608s.388 2.67.14 8.047c-.374 8.123-10.27 13.002-10.272 13.003 0 0-9.9-4.88-10.272-13.003-.248-5.376.14-8.047.14-8.047s3.387-3.609 10.13-3.609"/><path fill="#FEFEFE" d="M17.967 35.814c0-2.872 2.27-5.208 5.061-5.208a5.07 5.07 0 0 1 5.066 5.065c0 2.23-1.918 4.065-3.395 5.007.574.327 1.839.67 3.05.781a7.309 7.309 0 0 0 2.847-5.788c0-4.172-3.395-7.568-7.568-7.568-4.172 0-7.567 3.396-7.567 7.568 0 2.52 1.049 4.759 3.034 6.475 1.856 1.604 4.572 2.673 7.662 3.181.67-.37 1.816-1.462 2.245-2.103-2.582-.332-5.025-.96-6.663-1.821-2.503-1.313-3.772-3.194-3.772-5.589"/></g></svg>