
<svg width="63px" height="59px" viewBox="0 0 63 59" version="1.1" xmlns="http://www.w3.org/2000/svg" xmlns:xlink="http://www.w3.org/1999/xlink">
    <!-- Generator: Sketch 44.1 (41455) - http://www.bohemiancoding.com/sketch -->
    <desc>Created with Sketch.</desc>
    <defs></defs>
    <g id="12.1-13-App-detail" stroke="none" stroke-width="1" fill="none" fill-rule="evenodd">
        <g id="12.6-App-Detail---Policy-Compliance" transform="translate(-185.000000, -1410.000000)">
            <g id="---Features-overview" transform="translate(185.000000, 1290.000000)">
                <g id="::-01" transform="translate(0.000000, 120.000000)">
                    <g id="icon" transform="translate(1.000000, 0.000000)">
                        <g id="Group-5" transform="translate(19.000000, 0.341800)" stroke-width="2" stroke="#B5D0E7">
                            <polygon id="Stroke-1" points="0.0205 0.6582 0.0205 57.0002 41.9995 57.0002 41.9995 14.1212 36.0915 7.1332 30.0935 0.6582"></polygon>
                            <polyline id="Stroke-3" stroke-linecap="round" stroke-linejoin="round" points="41.3008 13.4429 30.9548 13.4429 30.9548 1.7629"></polyline>
                        </g>
                        <polyline id="Stroke-6" stroke="#EC3027" stroke-width="2" stroke-linecap="round" stroke-linejoin="round" points="30.2402 48.2891 39.1502 29.7241 49.3452 48.2891"></polyline>
                        <polygon id="Fill-7" fill="#FFFFFF" points="36.0605 37.7002 31.7645 38.0742 31.0815 33.7702 27.4205 31.5132 29.3705 27.5902 27.7425 23.5652 31.5765 21.5282 32.6045 17.2732 36.8575 17.8962 40.1465 15.0382 43.1995 18.0842 47.4985 17.7142 48.1815 22.0172 51.8405 24.2762 49.8955 28.1962 51.5225 32.2202 47.6875 34.2562 46.6615 38.5132 42.4045 37.8912 39.1125 40.7472"></polygon>
                        <polygon id="Stroke-8" stroke="#EC3027" stroke-width="2" points="39.1387 39.9414 42.2147 37.2694 46.2077 37.8534 47.1727 33.8644 50.7747 31.9504 49.2457 28.1654 51.0697 24.4904 47.6387 22.3714 46.9967 18.3464 42.9777 18.6924 40.1267 15.8454 37.0487 18.5164 33.0577 17.9334 32.0927 21.9224 28.4877 23.8374 30.0197 27.6204 28.1897 31.2954 31.6267 33.4134 32.2667 37.4414 36.2827 37.0934"></polygon>
                        <g id="Group-15" transform="translate(0.000000, 0.341800)" stroke="#B5D0E7" stroke-width="2">
                            <path d="M5.7666,0.6582 L11.2906,0.6582 C11.8996,0.6582 12.3926,1.1542 12.3926,1.7632 L12.3926,11.7052 C12.3926,12.3162 11.8996,12.8102 11.2906,12.8102 L5.7666,12.8102 C5.1566,12.8102 4.6596,12.3162 4.6596,11.7052 L4.6596,1.7632 C4.6596,1.1542 5.1566,0.6582 5.7666,0.6582 Z" id="Stroke-9"></path>
                            <polygon id="Stroke-11" points="4.6592 0.6582 4.6592 46.8202 8.4842 55.4082 12.3922 46.8162 12.3922 0.6582"></polygon>
                            <polyline id="Stroke-13" stroke-linecap="round" stroke-linejoin="round" points="4.6816 5.3047 -0.0004 5.3047 -0.0004 23.2967"></polyline>
                        </g>
                    </g>
                </g>
            </g>
        </g>
    </g>
</svg>