
<svg width="62px" height="62px" viewBox="0 0 62 62" version="1.1" xmlns="http://www.w3.org/2000/svg" xmlns:xlink="http://www.w3.org/1999/xlink">
    <!-- Generator: Sketch 44.1 (41455) - http://www.bohemiancoding.com/sketch -->
    <desc>Created with Sketch.</desc>
    <defs></defs>
    <g id="12.1-13-App-detail" stroke="none" stroke-width="1" fill="none" fill-rule="evenodd">
        <g id="12.5-App-Detail---Threat-Protection" transform="translate(-734.000000, -1774.000000)">
            <g id="---Features-overview" transform="translate(185.000000, 1290.000000)">
                <g id="::-04" transform="translate(549.000000, 485.000000)">
                    <g id="icon" transform="translate(1.000000, 0.000000)">
                        <path d="M20.7041,0 C32.1401,0 41.4091,9.269 41.4091,20.705 C41.4091,32.138 32.1401,41.408 20.7041,41.408 C9.2681,41.408 0.0001,32.138 0.0001,20.705 C0.0001,9.269 9.2681,0 20.7041,0 Z" id="Stroke-1" stroke="#B5CFE5" stroke-width="2"></path>
                        <path d="M43.0352,42.9644 L58.0002,57.9294" id="Stroke-3" stroke="#B5CFE5" stroke-width="5" stroke-linecap="round" stroke-linejoin="round"></path>
                        <path d="M35.7793,35.7085 L58.0003,57.9295" id="Stroke-5" stroke="#B5CFE5" stroke-width="2" stroke-linecap="round" stroke-linejoin="round"></path>
                        <path d="M20.5195,5.3536 C28.8955,5.3536 35.6845,12.1436 35.6845,20.5186 C35.6845,28.8946 28.8955,35.6856 20.5195,35.6856 C12.1435,35.6856 5.3525,28.8946 5.3525,20.5186 C5.3525,12.1436 12.1435,5.3536 20.5195,5.3536" id="Fill-7" fill="#ED2E26"></path>
                        <path d="M21.2119,18.753 L25.3069,18.753 C25.4379,18.753 25.5429,18.858 25.5429,18.988 C25.5429,19.033 25.5289,19.076 25.5069,19.114 L19.4889,28.643 C19.4179,28.753 19.2739,28.785 19.1639,28.716 C19.0919,28.67 19.0509,28.591 19.0539,28.507 L19.3389,21.678 C19.3429,21.548 19.2409,21.439 19.1139,21.433 L19.1039,21.433 L15.1489,21.433 C15.0189,21.433 14.9129,21.327 14.9129,21.196 C14.9129,21.147 14.9269,21.098 14.9569,21.058 L20.9189,12.865 C20.9949,12.76 21.1439,12.736 21.2489,12.813 C21.3149,12.861 21.3509,12.939 21.3449,13.02 L20.9769,18.5 C20.9669,18.631 21.0649,18.743 21.1949,18.753 L21.2119,18.753" id="Fill-9" fill="#FFFFFF"></path>
                    </g>
                </g>
            </g>
        </g>
    </g>
</svg>