<svg version="1.1" id="Layer_1" xmlns="http://www.w3.org/2000/svg" x="0" y="0" viewBox="0 0 64.3 58.5" xml:space="preserve"><style>.st0{fill:none;stroke:#b4cfe6;stroke-width:2;stroke-linecap:round;stroke-linejoin:round}.st1{fill:#ec2e26}.st2{fill:none;stroke:#fff;stroke-width:2;stroke-linecap:round;stroke-linejoin:round}.st4{fill:#fff}.st5{fill:#b5d0e5}</style><path class="st0" d="M0 30c0 3.2.5 6.4 1.5 9.3M58.5 39.3c1-2.9 1.5-6 1.5-9.3 0-8.2-3.3-15.6-8.6-21" transform="translate(1 1)"/><path class="st1" d="M51.2 8.8C45.8 3.4 38.3 0 30 0 13.4 0 0 13.4 0 30h30L51.2 8.8z" transform="translate(1 1)"/><path class="st2" d="M51.2 8.8C45.8 3.4 38.3 0 30 0 13.4 0 0 13.4 0 30h30L51.2 8.8z" transform="translate(1 1)"/><path class="st2" d="M45.6 14.4c-4-4-9.5-6.5-15.6-6.5C17.8 7.9 7.9 17.8 7.9 30H30" transform="translate(1 1)"/><path class="st2" d="M16.4 30c0-7.5 6.1-13.6 13.6-13.6 3.7 0 7.1 1.5 9.6 4" transform="translate(1 1)"/><path d="M31 31L52.2 9.8" fill="none" stroke="#ec2e26" stroke-width="2" stroke-linecap="round" stroke-linejoin="round"/><path class="st1" d="M26.6 30c0-1.9 1.5-3.4 3.4-3.4s3.4 1.5 3.4 3.4-1.5 3.4-3.4 3.4-3.4-1.5-3.4-3.4" transform="translate(1 1)"/><path class="st2" d="M26.6 30c0-1.9 1.5-3.4 3.4-3.4s3.4 1.5 3.4 3.4-1.5 3.4-3.4 3.4-3.4-1.5-3.4-3.4z" transform="translate(1 1)"/><path class="st4" d="M23.3 8.5c0-1 .8-1.8 1.8-1.8s1.8.8 1.8 1.8-.9 1.7-1.9 1.7-1.7-.8-1.7-1.7" transform="translate(1 1)"/><path class="st2" d="M23.3 8.5c0-1 .8-1.8 1.8-1.8s1.8.8 1.8 1.8-.9 1.7-1.9 1.7-1.7-.8-1.7-1.7z" transform="translate(1 1)"/><path class="st4" d="M17.1 22.6c0-1 .8-1.8 1.8-1.8s1.8.8 1.8 1.8-.8 1.8-1.8 1.8-1.8-.8-1.8-1.8" transform="translate(1 1)"/><path class="st2" d="M17.1 22.6c0-1 .8-1.8 1.8-1.8s1.8.8 1.8 1.8-.8 1.8-1.8 1.8-1.8-.8-1.8-1.8z" transform="translate(1 1)"/><g><path class="st5" d="M3.6 2.9H0V.5h9.8v2.4H6.2v9.4H3.6V2.9zM10.5 3.3h2.6v1.8c.5-1.2 1.4-2.1 2.9-2v2.7h-.1c-1.7 0-2.8 1-2.8 3.2v3.4h-2.6V3.3zM17.5 9.2V3.3h2.6v5.1c0 1.2.6 1.8 1.6 1.8s1.6-.6 1.6-1.8V3.3h2.6v9.1h-2.6v-1.3c-.6.8-1.4 1.5-2.7 1.5-2-.1-3.1-1.4-3.1-3.4zM28.4.5h5.4c1.5 0 2.7.4 3.5 1.2.7.7 1 1.6 1 2.7 0 1.9-1 3.1-2.5 3.7l2.9 4.2h-3L33 8.6h-2v3.8h-2.6V.5zm5.3 5.8c1.3 0 2-.7 2-1.7 0-1.1-.8-1.7-2-1.7H31v3.4h2.7zM40.4 0h2.7v2.3h-2.7V0zm.1 3.3h2.6v9.1h-2.6V3.3zM44.8 11.2l1.1-1.7c1 .7 2 1.1 2.9 1.1.8 0 1.1-.3 1.1-.7 0-.6-.9-.7-1.9-1.1-1.3-.4-2.7-1-2.7-2.7 0-1.8 1.5-2.9 3.3-2.9 1.2 0 2.4.4 3.4 1L51 6c-.9-.5-1.8-.8-2.5-.8-.6 0-1 .3-1 .6 0 .5.9.7 1.8 1.1 1.3.4 2.7 1 2.7 2.7 0 2-1.5 2.9-3.5 2.9-1.1 0-2.5-.4-3.7-1.3zM54 0h2.6v6.6l3-3.3h3.1l-3.5 3.6 3.6 5.5h-3l-2.3-3.7-.9 1v2.8H54V0z" transform="translate(1.58 46)"/></g></svg>