<svg xmlns="http://www.w3.org/2000/svg" width="223" height="223"><g fill="none" fill-rule="evenodd"><path stroke="#C3D6EC" stroke-linecap="round" stroke-linejoin="round" stroke-width="8" d="M131.889 147c0 30.928-25.072 56-56 56s-56-25.072-56-56 25.072-56 56-56 56 25.072 56 56zm-56-72v16m0 112v16M148 147.39h-16m-112 0H4m122.728 50.418l-11.319-11.313m-79.23-79.2l-11.32-11.313m102.251-.39l-11.313 11.319m-79.2 79.23L25.286 197.46"/><path stroke="#C3D6EC" stroke-linecap="round" stroke-linejoin="round" stroke-width="8" d="M113.389 147.633c0 20.507-16.702 37.132-37.305 37.132-20.602 0-37.303-16.625-37.303-37.132 0-20.508 16.7-37.133 37.303-37.133 20.603 0 37.305 16.625 37.305 37.133zm94.736-80.31c-8.187 20.833-31.712 31.085-52.545 22.9-20.834-8.187-31.086-31.713-22.9-52.546s31.712-31.086 52.545-22.899c20.834 8.186 31.086 31.711 22.9 52.544zM189.46 4l-4.235 10.778M155.58 90.223L151.345 101m67.529-29.15l-10.777-4.235M132.652 37.97l-10.778-4.235m69.326 66.447l-4.63-10.617m-32.408-74.321l-4.63-10.617m68.98 26.802l-10.616 4.63m-74.32 32.407l-10.617 4.63"/><path stroke="#C3D6EC" stroke-linecap="round" stroke-linejoin="round" stroke-width="8" d="M191.701 52.286c0 11.664-9.455 21.12-21.119 21.12s-21.12-9.456-21.12-21.12c0-11.664 9.456-21.119 21.12-21.119 11.664 0 21.12 9.455 21.12 21.12z"/><path fill="#DE1D0B" d="M100.889 148c0 13.807-11.193 25-25 25s-25-11.193-25-25 11.193-25 25-25 25 11.193 25 25"/><path stroke="#FFF" stroke-linecap="round" stroke-linejoin="round" stroke-width="8" d="M75.889 146v16"/></g></svg>