
<svg width="86px" height="76px" viewBox="0 0 86 76" version="1.1" xmlns="http://www.w3.org/2000/svg" xmlns:xlink="http://www.w3.org/1999/xlink">
    <!-- Generator: Sketch 44.1 (41455) - http://www.bohemiancoding.com/sketch -->
    <desc>Created with Sketch.</desc>
    <defs></defs>
    <g id="12.1-13-App-detail" stroke="none" stroke-width="1" fill="none" fill-rule="evenodd">
        <g id="12.4-App-Detail---Continuous-Monitoring" transform="translate(-186.000000, -1398.000000)">
            <g id="---Features-overview" transform="translate(185.000000, 1290.000000)">
                <g id="::-01" transform="translate(0.000000, 110.000000)">
                    <g id="icon" transform="translate(2.000000, 0.000000)">
                        <path d="M1.3547521,51.0639989 L19.8295064,51.0639989 C20.5773296,51.0639989 21.1842585,51.6732259 21.1842585,52.4269229 L21.1842585,71.0131172 C21.1842585,71.7654512 20.5773296,72.3760412 19.8295064,72.3760412 L1.3547521,72.3760412 C0.605574187,72.3760412 0,71.7654512 0,71.0131172 L0,52.4269229 C0,51.6732259 0.605574187,51.0639989 1.3547521,51.0639989 Z" id="Stroke-1" stroke="#B5D0E7" stroke-width="2"></path>
                        <path d="M32.715231,51.0639989 L51.1899853,51.0639989 C51.9378085,51.0639989 52.5447374,51.6732259 52.5447374,52.4269229 L52.5447374,71.0131172 C52.5447374,71.7654512 51.9378085,72.3760412 51.1899853,72.3760412 L32.715231,72.3760412 C31.9660531,72.3760412 31.3604789,71.7654512 31.3604789,71.0131172 L31.3604789,52.4269229 C31.3604789,51.6732259 31.9660531,51.0639989 32.715231,51.0639989 Z" id="Stroke-3" stroke="#B5D0E7" stroke-width="2"></path>
                        <path d="M64.0755744,51.0639989 L82.5503287,51.0639989 C83.2981519,51.0639989 83.9050808,51.6732259 83.9050808,52.4269229 L83.9050808,71.0131172 C83.9050808,71.7654512 83.2981519,72.3760412 82.5503287,72.3760412 L64.0755744,72.3760412 C63.3263965,72.3760412 62.7208223,71.7654512 62.7208223,71.0131172 L62.7208223,52.4269229 C62.7208223,51.6732259 63.3263965,51.0639989 64.0755744,51.0639989 Z" id="Stroke-5" stroke="#B5D0E7" stroke-width="2"></path>
                        <path d="M41.3913043,30.5536285 L41.3913043,39.221825" id="Stroke-7" stroke="#B5D0E7" stroke-width="2" stroke-linecap="round"></path>
                        <path d="M41.3913043,41.0696773 L41.3913043,49.7378738" id="Stroke-9" stroke="#B5D0E7" stroke-width="2" stroke-linecap="round"></path>
                        <path d="M74.2608696,39.5670536 L74.2608696,50.084738" id="Stroke-11" stroke="#B5D0E7" stroke-width="2" stroke-linecap="round"></path>
                        <path d="M8.52173913,39.0453263 L8.52173913,49.9487182" id="Stroke-13" stroke="#B5D0E7" stroke-width="2" stroke-linecap="round"></path>
                        <path d="M10.793039,39.0327869 L74.4663875,39.0327869" id="Stroke-15" stroke="#B5D0E7" stroke-width="2" stroke-linecap="round"></path>
                        <path d="M10.5919938,58.7145001 C12.2420818,58.7145001 13.5792222,60.059706 13.5792222,61.7197474 C13.5792222,63.3797888 12.2420818,64.7249948 10.5919938,64.7249948 C8.94326049,64.7249948 7.60612017,63.3797888 7.60612017,61.7197474 C7.60612017,60.059706 8.94326049,58.7145001 10.5919938,58.7145001" id="Fill-17" fill="#ED2E26"></path>
                        <path d="M41.9523372,58.7145001 C43.6024253,58.7145001 44.9395656,60.059706 44.9395656,61.7197474 C44.9395656,63.3797888 43.6024253,64.7249948 41.9523372,64.7249948 C40.3022491,64.7249948 38.9651088,63.3797888 38.9651088,61.7197474 C38.9651088,60.059706 40.3022491,58.7145001 41.9523372,58.7145001" id="Fill-19" fill="#ED2E26"></path>
                        <path d="M73.3126806,58.7145001 C74.9614139,58.7145001 76.2985542,60.059706 76.2985542,61.7197474 C76.2985542,63.3797888 74.9614139,64.7249948 73.3126806,64.7249948 C71.6625926,64.7249948 70.3254522,63.3797888 70.3254522,61.7197474 C70.3254522,60.059706 71.6625926,58.7145001 73.3126806,58.7145001" id="Fill-21" fill="#ED2E26"></path>
                        <path d="M34.0831242,7.77780582 L49.8212793,7.77780582 C52.9575304,7.77780582 55.5004001,10.3346512 55.5004001,13.4898202 L55.5004001,25.1550866 C55.5004001,28.3102556 52.9575304,30.867101 49.8212793,30.867101 L34.0831242,30.867101 C30.9482278,30.867101 28.4053581,28.3102556 28.4053581,25.1550866 L28.4053581,13.4898202 C28.4053581,10.3346512 30.9482278,7.77780582 34.0831242,7.77780582" id="Fill-23" fill="#EC3027"></path>
                        <path d="M35.9750355,9.68249208 L47.929368,9.68249208 C51.0656191,9.68249208 53.6084888,12.2393375 53.6084888,15.3945065 L53.6084888,23.2517632 C53.6084888,26.4069323 51.0656191,28.9637776 47.929368,28.9637776 L35.9750355,28.9637776 C32.8401391,28.9637776 30.2972694,26.4069323 30.2972694,23.2517632 L30.2972694,15.3945065 C30.2972694,12.2393375 32.8401391,9.68249208 35.9750355,9.68249208 Z" id="Stroke-25" stroke="#ED2E26" stroke-width="2.794"></path>
                        <path d="M37.9965966,0.0614754098 C36.9520827,0.0614754098 36.1040079,0.913302898 36.1040079,1.96548021 L36.1040079,7.81787579 C36.1040079,8.8700531 36.9520827,9.72188059 37.9965966,9.72188059 L45.9083488,9.72188059 C46.9528627,9.72188059 47.8009375,8.8700531 47.8009375,7.81787579 L47.8009375,1.96548021 C47.8009375,0.913302898 46.9528627,0.0614754098 45.9083488,0.0614754098 L37.9965966,0.0614754098 Z" id="Stroke-27" stroke="#EC3027" stroke-width="2.794"></path>
                        <path d="M40.9839604,24.1210362 C40.9839604,24.6593911 41.4174811,25.0955268 41.9526082,25.0955268 C42.4863805,25.0955268 42.9212559,24.6593911 42.9212559,24.1210362 L42.9212559,18.3735857 C42.9212559,17.8352308 42.4863805,17.3990951 41.9526082,17.3990951 C41.4174811,17.3990951 40.9839604,17.8352308 40.9839604,18.3735857 L40.9839604,24.1210362 Z" id="Fill-29" fill="#FFFFFF"></path>
                        <path d="M41.9523372,15.474919 C43.5563637,15.474919 44.8555709,16.7669709 44.8555709,18.361592 C44.8555709,19.9548501 43.5563637,21.2469021 41.9523372,21.2469021 C40.3483107,21.2469021 39.0491035,19.9548501 39.0491035,18.361592 C39.0491035,16.7669709 40.3483107,15.474919 41.9523372,15.474919" id="Fill-31" fill="#FFFFFF"></path>
                    </g>
                </g>
            </g>
        </g>
    </g>
</svg>