
<svg width="60px" height="58px" viewBox="0 0 60 58" version="1.1" xmlns="http://www.w3.org/2000/svg" xmlns:xlink="http://www.w3.org/1999/xlink">
    <!-- Generator: Sketch 44.1 (41455) - http://www.bohemiancoding.com/sketch -->
    <desc>Created with Sketch.</desc>
    <defs></defs>
    <g id="12.1-13-App-detail" stroke="none" stroke-width="1" fill="none" fill-rule="evenodd">
        <g id="12.2-App-Detail---Asset-Inventory" transform="translate(-185.000000, -1780.000000)">
            <g id="---Features-overview" transform="translate(185.000000, 1290.000000)">
                <g id="::-03" transform="translate(0.000000, 485.000000)">
                    <g id="icon" transform="translate(1.000000, 6.000000)">
                        <path d="M1.38469194,16.15 L55.7132242,16.15 C56.478321,16.15 57.0968694,16.78745 57.0968694,17.57405 L57.0968694,30.875 C57.0968694,31.66255 56.478321,32.3 55.7132242,32.3 L1.38469194,32.3 C0.620546774,32.3 9.51612903e-05,31.66255 9.51612903e-05,30.875 L9.51612903e-05,17.57405 C9.51612903e-05,16.78745 0.620546774,16.15 1.38469194,16.15 Z" id="Stroke-1" stroke="#B5D0E7" stroke-width="2" stroke-linecap="round" stroke-linejoin="round"></path>
                        <path d="M1.38469194,32.300475 L55.7132242,32.300475 C56.478321,32.300475 57.0968694,32.936975 57.0968694,33.723575 L57.0968694,47.025475 C57.0968694,47.812075 56.478321,48.450475 55.7132242,48.450475 L1.38469194,48.450475 C0.620546774,48.450475 9.51612903e-05,47.812075 9.51612903e-05,47.025475 L9.51612903e-05,33.723575 C9.51612903e-05,32.936975 0.620546774,32.300475 1.38469194,32.300475 Z" id="Stroke-3" stroke="#B5D0E7" stroke-width="2" stroke-linecap="round" stroke-linejoin="round"></path>
                        <path d="M1.38469194,0 L55.7132242,0 C56.478321,0 57.0968694,0.63745 57.0968694,1.42405 L57.0968694,14.72595 C57.0968694,15.51255 56.478321,16.15 55.7132242,16.15 L1.38469194,16.15 C0.620546774,16.15 9.51612903e-05,15.51255 9.51612903e-05,14.72595 L9.51612903e-05,1.42405 C9.51612903e-05,0.63745 0.620546774,0 1.38469194,0 Z" id="Stroke-5" stroke="#B5D0E7" stroke-width="2" stroke-linecap="round" stroke-linejoin="round"></path>
                        <path d="M4.75806452,7.99615 C4.75806452,6.7279 5.78770968,5.7 7.0581129,5.7 C8.32756452,5.7 9.35720968,6.7279 9.35720968,7.99615 C9.35720968,9.2644 8.32756452,10.2923 7.0581129,10.2923 C5.78770968,10.2923 4.75806452,9.2644 4.75806452,7.99615 Z" id="Stroke-7" stroke="#EE3E4A" stroke-width="2" stroke-linecap="round"></path>
                        <path d="M14.2741935,7.99615 C14.2741935,6.7279 15.3038387,5.7 16.5742419,5.7 C17.8436935,5.7 18.8733387,6.7279 18.8733387,7.99615 C18.8733387,9.2644 17.8436935,10.2923 16.5742419,10.2923 C15.3038387,10.2923 14.2741935,9.2644 14.2741935,7.99615" id="Fill-9" fill="#EE3E4A"></path>
                        <path d="M4.75806452,40.295675 C4.75806452,39.028375 5.78770968,38.000475 7.0581129,38.000475 C8.32756452,38.000475 9.35720968,39.028375 9.35720968,40.295675 C9.35720968,41.564875 8.32756452,42.592775 7.0581129,42.592775 C5.78770968,42.592775 4.75806452,41.564875 4.75806452,40.295675 Z" id="Stroke-11" stroke="#EE3E4A" stroke-width="2" stroke-linecap="round"></path>
                        <path d="M14.2741935,40.295675 C14.2741935,39.028375 15.3038387,38.000475 16.5742419,38.000475 C17.8436935,38.000475 18.8733387,39.028375 18.8733387,40.295675 C18.8733387,41.564875 17.8436935,42.592775 16.5742419,42.592775 C15.3038387,42.592775 14.2741935,41.564875 14.2741935,40.295675" id="Fill-13" fill="#EE3E4A"></path>
                        <path d="M18.8733387,24.14615 C18.8733387,25.4144 17.8436935,26.4423 16.5732903,26.4423 C15.3038387,26.4423 14.2741935,25.4144 14.2741935,24.14615 C14.2741935,22.8779 15.3038387,21.85 16.5732903,21.85 C17.8436935,21.85 18.8733387,22.8779 18.8733387,24.14615 Z" id="Stroke-15" stroke="#EE3E4A" stroke-width="2" stroke-linecap="round"></path>
                        <path d="M9.35720968,24.14615 C9.35720968,25.4144 8.32756452,26.4423 7.05716129,26.4423 C5.78770968,26.4423 4.75806452,25.4144 4.75806452,24.14615 C4.75806452,22.8779 5.78770968,21.85 7.05716129,21.85 C8.32756452,21.85 9.35720968,22.8779 9.35720968,24.14615" id="Fill-17" fill="#EE3E4A"></path>
                        <path d="M35.0507581,36.890875 L39.8088226,41.993325" id="Stroke-19" stroke="#C5E2E9" stroke-width="2" stroke-linecap="round" stroke-linejoin="round"></path>
                        <path d="M25.6935484,38.000475 L30.4516129,43.102925" id="Stroke-21" stroke="#B5D0E7" stroke-width="2" stroke-linecap="round" stroke-linejoin="round"></path>
                        <path d="M39.8088226,36.890875 L44.5668871,41.993325" id="Stroke-23" stroke="#C5E2E9" stroke-width="2" stroke-linecap="round" stroke-linejoin="round"></path>
                        <path d="M44.5668871,36.890875 L49.3249516,41.993325" id="Stroke-25" stroke="#C5E2E9" stroke-width="2" stroke-linecap="round" stroke-linejoin="round"></path>
                        <path d="M35.2096774,21.85 L39.9677419,26.95245" id="Stroke-27" stroke="#B5D0E7" stroke-width="2" stroke-linecap="round" stroke-linejoin="round"></path>
                        <path d="M25.6935484,21.85 L30.4516129,26.95245" id="Stroke-29" stroke="#B5D0E7" stroke-width="2" stroke-linecap="round" stroke-linejoin="round"></path>
                        <path d="M44.7258065,21.85 L49.483871,26.95245" id="Stroke-31" stroke="#B5D0E7" stroke-width="2" stroke-linecap="round" stroke-linejoin="round"></path>
                        <path d="M35.2096774,5.7 L39.9677419,10.80245" id="Stroke-33" stroke="#B5D0E7" stroke-width="2" stroke-linecap="round" stroke-linejoin="round"></path>
                        <path d="M25.6935484,5.7 L30.4516129,10.80245" id="Stroke-35" stroke="#B5D0E7" stroke-width="2" stroke-linecap="round" stroke-linejoin="round"></path>
                        <path d="M44.7258065,5.7 L49.483871,10.80245" id="Stroke-37" stroke="#B5D0E7" stroke-width="2" stroke-linecap="round" stroke-linejoin="round"></path>
                        <path d="M45.6774194,29.554405 C53.0352903,29.554405 59,35.509005 59,42.854405 C59,50.199805 53.0352903,56.154405 45.6774194,56.154405 C38.3195484,56.154405 32.3548387,50.199805 32.3548387,42.854405 C32.3548387,35.509005 38.3195484,29.554405 45.6774194,29.554405" id="Fill-39" fill="#ED2E26"></path>
                        <path d="M44.0604387,50.675185 L44.0604387,50.675185 C43.7464065,51.085585 43.1602129,51.165385 42.7491161,50.851885 C42.5235839,50.678985 42.3875032,50.413935 42.3808419,50.131785 C42.3561,49.008885 41.4235194,48.121585 40.3015677,48.148185 C40.1188581,48.151985 39.9390032,48.179535 39.7639065,48.233685 C39.2690677,48.379985 38.7485355,48.099735 38.6000839,47.606685 C38.5182452,47.333085 38.5648742,47.040485 38.7266484,46.806785 C39.3651806,45.884335 39.1348903,44.620835 38.2118258,43.982435 C38.061471,43.878885 37.8987452,43.795285 37.7274548,43.735435 C37.2392774,43.565385 36.9832935,43.032435 37.1536323,42.546035 C37.2487935,42.277185 37.4591,42.067235 37.7274548,41.973185 C38.7875516,41.601735 39.3451968,40.443685 38.9731161,39.386335 C38.9141161,39.214385 38.8303742,39.052885 38.7266484,38.901835 C38.4326,38.479085 38.538229,37.896735 38.9645516,37.603185 C39.1976968,37.441685 39.4917452,37.395135 39.7639065,37.476835 C40.8401806,37.797935 41.9735516,37.189935 42.2961484,36.115485 C42.3484871,35.940685 42.3760839,35.761135 42.3808419,35.578735 C42.3932129,35.062885 42.8214387,34.655335 43.3372129,34.665785 C43.6217452,34.673385 43.8872452,34.809235 44.0604387,35.033435 C44.7408419,35.926435 46.0179065,36.096485 46.9095677,35.417235 C47.0542129,35.307985 47.1845839,35.178785 47.2940194,35.033435 C47.6090032,34.623985 48.1951968,34.545135 48.6053419,34.857685 C48.8318258,35.029635 48.9669548,35.295635 48.9736161,35.578735 C48.9983581,36.699735 49.9309387,37.587035 51.0538419,37.560435 C51.2356,37.556635 51.4154548,37.529085 51.5905516,37.476835 C52.0863419,37.328635 52.6059226,37.608885 52.7553258,38.102885 C52.8371645,38.375535 52.7905355,38.668135 52.6287613,38.901835 C51.9892774,39.824285 52.2195677,41.089685 53.1435839,41.726185 C53.2929871,41.829735 53.4557129,41.913335 53.6279548,41.973185 C54.1151806,42.144185 54.3721161,42.676185 54.2008258,43.164485 C54.1066161,43.431435 53.8963097,43.641385 53.6279548,43.735435 C52.5669065,44.106885 52.0102129,45.264935 52.3813419,46.324185 C52.4412935,46.495185 52.5250355,46.657635 52.6287613,46.806785 C52.9228097,47.231435 52.816229,47.811885 52.3908581,48.105435 C52.1577129,48.266935 51.8627129,48.313485 51.5905516,48.233685 C50.5142774,47.910685 49.3818581,48.520585 49.0583097,49.595035 C49.005971,49.767935 48.9783742,49.949385 48.9736161,50.131785 C48.9612452,50.645735 48.5330194,51.053285 48.0172452,51.042835 C47.7327129,51.035235 47.4672129,50.901285 47.2940194,50.675185 C46.6145677,49.783135 45.3375032,49.612135 44.4448903,50.291385 C44.3002452,50.402535 44.1698742,50.530785 44.0604387,50.675185" id="Fill-41" fill="#ED2E26"></path>
                        <path d="M43.3318839,50.06291 C43.4869968,49.86626 43.6678032,49.68766 43.8666903,49.53566 C45.1665935,48.54671 47.0174806,48.78611 48.0233355,50.06291 C48.0328516,49.81211 48.0747226,49.56416 48.1479968,49.32286 C48.6161903,47.76011 50.2529645,46.86616 51.820271,47.30981 C51.6794323,47.10176 51.5661903,46.87566 51.4834,46.63816 C50.9428839,45.09916 51.7422387,43.41481 53.2695774,42.85431 C53.0335774,42.76691 52.8089968,42.65196 52.6015452,42.50946 C51.2588194,41.57941 50.9133839,39.75066 51.820271,38.39976 C51.5776097,38.46816 51.3273355,38.50521 51.0751581,38.51091 C49.4431419,38.54986 48.0851903,37.26926 48.0233355,35.64571 C47.8682226,35.84426 47.6874161,36.02096 47.4875774,36.17296 C46.1886258,37.16191 44.3377387,36.92441 43.3318839,35.64571 C43.3214161,35.89841 43.2795452,36.14731 43.2072226,36.38766 C42.739029,37.95041 41.1013032,38.84246 39.5349484,38.39976 C39.6748355,38.60876 39.7880774,38.83391 39.8708677,39.07141 C40.4123355,40.61136 39.6129806,42.29381 38.0846903,42.85431 C38.3206903,42.94171 38.5462226,43.05856 38.7527226,43.20106 C40.0964,44.12921 40.4418355,45.96081 39.5349484,47.30981 C39.7776097,47.24046 40.0269323,47.20341 40.2800613,47.19771 C41.9120774,47.16066 43.270029,48.43936 43.3318839,50.06291 Z" id="Stroke-43" stroke="#FFFFFF" stroke-width="2" stroke-linecap="round" stroke-linejoin="round"></path>
                        <path d="M45.6774194,40.954405 C46.728,40.954405 47.5806452,41.805605 47.5806452,42.854405 C47.5806452,43.904155 46.728,44.754405 45.6774194,44.754405 C44.6268387,44.754405 43.7741935,43.904155 43.7741935,42.854405 C43.7741935,41.805605 44.6268387,40.954405 45.6774194,40.954405" id="Fill-45" fill="#ED2E26"></path>
                        <path d="M45.6774194,40.954405 C46.728,40.954405 47.5806452,41.805605 47.5806452,42.854405 C47.5806452,43.904155 46.728,44.754405 45.6774194,44.754405 C44.6268387,44.754405 43.7741935,43.904155 43.7741935,42.854405 C43.7741935,41.805605 44.6268387,40.954405 45.6774194,40.954405 Z" id="Stroke-47" stroke="#FFFFFF" stroke-width="2"></path>
                    </g>
                </g>
            </g>
        </g>
    </g>
</svg>