<svg xmlns="http://www.w3.org/2000/svg" width="62" height="55" viewBox="0 0 62 55" xmlns:xlink="http://www.w3.org/1999/xlink"><defs><path id="a" d="M30.548.931V31H.479V.931h30.069z"/></defs><g fill="none" fill-rule="evenodd"><path stroke="#B5D0E7" stroke-width="2" d="M2.333 1h52.333C55.403 1 56 1.597 56 2.333v12.459c0 .736-.597 1.333-1.334 1.333H2.333A1.333 1.333 0 011 14.792V2.333C1 1.597 1.597 1 2.333 1zm0 15.125h52.333c.737 0 1.334.597 1.334 1.333v12.459c0 .736-.597 1.333-1.334 1.333H2.333A1.333 1.333 0 011 29.917V17.458c0-.736.597-1.333 1.333-1.333zm0 15.125h52.333c.737 0 1.334.597 1.334 1.333v12.459c0 .736-.597 1.333-1.334 1.333H2.333A1.333 1.333 0 011 45.042V32.583c0-.736.597-1.333 1.333-1.333z" stroke-linecap="round" stroke-linejoin="round"/><path stroke="#B5D0E7" stroke-width="2" d="M2.333 1h52.333C55.403 1 56 1.597 56 2.333v12.459c0 .736-.597 1.333-1.334 1.333H2.333A1.333 1.333 0 011 14.792V2.333C1 1.597 1.597 1 2.333 1z" stroke-linecap="round" stroke-linejoin="round"/><path stroke="#ED2E26" stroke-width="2" d="M5.965 8.563a2.215 2.215 0 114.431 0 2.215 2.215 0 01-4.43 0z" stroke-linecap="round"/><path fill="#ED2E26" d="M15.132 8.563a2.215 2.215 0 114.43 0 2.215 2.215 0 01-4.43 0"/><path stroke="#ED2E26" stroke-width="2" d="M5.965 38.813a2.215 2.215 0 114.431 0 2.215 2.215 0 01-4.43 0z" stroke-linecap="round"/><path fill="#ED2E26" d="M15.132 38.813a2.215 2.215 0 114.43 0 2.215 2.215 0 01-4.43 0"/><path stroke="#ED2E26" stroke-width="2" d="M19.563 23.688a2.215 2.215 0 11-4.431-.001 2.215 2.215 0 014.43 0z" stroke-linecap="round"/><path fill="#ED2E26" d="M10.396 23.688a2.215 2.215 0 11-4.431-.001 2.215 2.215 0 014.43 0"/><path stroke="#C5E2E9" stroke-width="2" d="M34.764 36.597l4.583 4.924" stroke-linecap="round" stroke-linejoin="round"/><path stroke="#B5D0E7" stroke-width="2" d="M25.597 36.597l4.583 4.924" stroke-linecap="round" stroke-linejoin="round"/><path stroke="#C5E2E9" stroke-width="2" d="M43.93 36.597l4.584 4.924" stroke-linecap="round" stroke-linejoin="round"/><path stroke="#B5D0E7" stroke-width="2" d="M34.764 21.226l4.583 4.924m-13.75-4.924l4.583 4.924m13.75-4.924l4.584 4.924M34.764 6.1l4.583 4.925M25.597 6.1l4.583 4.924M43.93 6.1l4.584 4.924" stroke-linecap="round" stroke-linejoin="round"/><g transform="translate(31 23.093)"><mask id="b" fill="#fff"><use xlink:href="#a"/></mask><path fill="#ED2E26" d="M15.535.931c8.303.012 15.025 6.753 15.013 15.056C30.536 24.29 23.795 31.012 15.492 31 7.19 30.988.467 24.247.48 15.944.491 7.641 7.232.92 15.535.931" mask="url(#b)"/></g><path stroke="#FFF" stroke-width="1.5" d="M46.514 29.508c5.275 0 9.55 4.276 9.55 9.55s-4.275 9.552-9.55 9.552-9.551-4.276-9.551-9.551 4.276-9.551 9.55-9.551zm6.753 2.797L39.76 45.812" stroke-linecap="round" stroke-linejoin="round"/></g></svg>