<svg height="56" width="62" xmlns="http://www.w3.org/2000/svg"><g fill="none" fill-rule="evenodd"><path d="m2.455 18h57.09c.804 0 1.455.67 1.455 1.5v14c0 .83-.65 1.5-1.454 1.5h-57.09c-.806 0-1.456-.67-1.456-1.5v-14c0-.83.652-1.5 1.455-1.5zm0 17h57.09c.804 0 1.455.67 1.455 1.5v14c0 .83-.65 1.5-1.454 1.5h-57.09c-.806 0-1.456-.67-1.456-1.5v-14c0-.83.652-1.5 1.455-1.5zm0-34h57.09c.805 0 1.455.67 1.455 1.5v14c0 .83-.65 1.5-1.454 1.5h-57.09c-.806 0-1.456-.67-1.456-1.5v-14c0-.83.652-1.5 1.455-1.5z" stroke="#b5d0e7" stroke-linecap="round" stroke-linejoin="round" stroke-width="2"/><path d="m6 9.417c0-1.335 1.082-2.417 2.417-2.417 1.334 0 2.416 1.082 2.416 2.417s-1.082 2.417-2.416 2.417c-1.335 0-2.417-1.082-2.417-2.417z" stroke="#ee3e4a" stroke-linecap="round" stroke-width="2"/><path d="m16 9.417c0-1.335 1.082-2.417 2.417-2.417 1.334 0 2.416 1.082 2.416 2.417s-1.082 2.417-2.416 2.417c-1.335 0-2.417-1.082-2.417-2.417" fill="#ee3e4a"/><path d="m6 43.417c0-1.335 1.082-2.417 2.417-2.417 1.334 0 2.416 1.082 2.416 2.417s-1.082 2.417-2.416 2.417c-1.335 0-2.417-1.082-2.417-2.417z" stroke="#ee3e4a" stroke-linecap="round" stroke-width="2"/><path d="m16 43.417c0-1.335 1.082-2.417 2.417-2.417 1.334 0 2.416 1.082 2.416 2.417s-1.082 2.417-2.416 2.417c-1.335 0-2.417-1.082-2.417-2.417" fill="#ee3e4a"/><path d="m20.833 26.417c0 1.335-1.082 2.417-2.417 2.417-1.334 0-2.416-1.082-2.416-2.417s1.082-2.417 2.416-2.417c1.335 0 2.417 1.082 2.417 2.417z" stroke="#ee3e4a" stroke-linecap="round" stroke-width="2"/><path d="m10.833 26.417c0 1.335-1.082 2.417-2.417 2.417-1.334 0-2.416-1.082-2.416-2.417s1.082-2.417 2.416-2.417c1.335 0 2.417 1.082 2.417 2.417" fill="#ee3e4a"/><g stroke-linecap="round" stroke-linejoin="round" stroke-width="2"><path d="m37.833 39.833 5 5.37" stroke="#c5e2e9"/><path d="m28 41 5 5.37" stroke="#b5d0e7"/><path d="m42.833 39.833 5 5.37m0-5.37 5 5.37" stroke="#c5e2e9"/><path d="m38 24 5 5.37m-15-5.37 5 5.37m15-5.37 5 5.37m-15-22.37 5 5.37m-15-5.37 5 5.37m15-5.37 5 5.37" stroke="#b5d0e7"/></g><path d="m44.832 31.298c6.512 0 9.786 3.484 9.786 3.484s.375 2.58.136 7.772c-.36 7.845-9.92 12.556-9.92 12.556s-9.56-4.71-9.92-12.556c-.24-5.193.135-7.772.135-7.772s3.27-3.484 9.782-3.484" fill="#ee3c39"/><path d="m39.945 41.61c0-2.774 2.193-5.03 4.888-5.03 2.697 0 4.892 2.194 4.892 4.892 0 2.153-1.85 3.925-3.278 4.835.554.316 1.775.648 2.945.755 1.708-1.322 2.75-3.365 2.75-5.59 0-4.03-3.28-7.308-7.31-7.308s-7.307 3.278-7.307 7.308c0 2.434 1.013 4.596 2.93 6.252 1.793 1.55 4.415 2.583 7.4 3.073.647-.358 1.753-1.413 2.167-2.03-2.493-.32-4.852-.93-6.434-1.76-2.417-1.267-3.643-3.083-3.643-5.397" fill="#fefefe"/></g></svg>