<svg xmlns="http://www.w3.org/2000/svg" width="57" height="78" viewBox="0 0 57 78"><g fill="none" fill-rule="evenodd"><path fill="#FEFEFE" d="M21.742 42.148l11.606 3.13L24.9 76.615l-4.551-6.208-7.056 3.08z"/><path stroke="#B5D0E7" stroke-linecap="round" stroke-linejoin="round" stroke-width="2.065" d="M21.742 42.148l11.606 3.13L24.9 76.615l-4.551-6.208-7.056 3.08z"/><path fill="#FEFEFE" d="M34.997 42.148l-11.605 3.13 8.446 31.337 4.553-6.208 7.055 3.08z"/><path stroke="#B5D0E7" stroke-linecap="round" stroke-linejoin="round" stroke-width="2.065" d="M34.997 42.148l-11.605 3.13 8.446 31.337 4.553-6.208 7.055 3.08z"/><path fill="#FEFEFE" d="M1.04 28.591c0-3.432 4.567-5.93 5.805-8.914 1.282-3.093-.13-8.078 2.199-10.411 2.332-2.331 7.317-.917 10.41-2.198C22.44 5.83 24.94 1.263 28.37 1.263c3.432 0 5.93 4.567 8.915 5.805 3.095 1.282 8.08-.133 10.411 2.199 2.331 2.332.916 7.317 2.2 10.41 1.236 2.984 5.806 5.482 5.806 8.915 0 3.433-4.57 5.93-5.806 8.916-1.284 3.092.131 8.077-2.201 10.41-2.33 2.331-7.315.916-10.41 2.198-2.984 1.238-5.483 5.806-8.915 5.806-3.43 0-5.93-4.568-8.914-5.806-3.094-1.282-8.08.133-10.411-2.199-2.33-2.332-.917-7.317-2.2-10.41-1.237-2.984-5.805-5.482-5.805-8.915"/><path stroke="#B5D0E7" stroke-linecap="round" stroke-linejoin="round" stroke-width="2.065" d="M1.04 28.591c0-3.432 4.567-5.93 5.805-8.914 1.282-3.093-.13-8.078 2.199-10.411 2.332-2.331 7.317-.917 10.41-2.198C22.44 5.83 24.94 1.263 28.37 1.263c3.432 0 5.93 4.567 8.915 5.805 3.095 1.282 8.08-.133 10.411 2.199 2.331 2.332.916 7.317 2.2 10.41 1.236 2.984 5.806 5.482 5.806 8.915 0 3.433-4.57 5.93-5.806 8.916-1.284 3.092.131 8.077-2.201 10.41-2.33 2.331-7.315.916-10.41 2.198-2.984 1.238-5.483 5.806-8.915 5.806-3.43 0-5.93-4.568-8.914-5.806-3.094-1.282-8.08.133-10.411-2.199-2.33-2.332-.917-7.317-2.2-10.41-1.237-2.984-5.805-5.482-5.805-8.915z"/><path fill="#EB3027" d="M28.723 10.197c-10.076 0-18.245 8.17-18.245 18.247 0 10.076 8.17 18.244 18.245 18.244 10.077 0 18.247-8.168 18.247-18.244 0-10.077-8.17-18.247-18.247-18.247"/><path fill="#FFF" d="M27.798 18.253l-9.505 16.462a1.07 1.07 0 00.925 1.603h19.01c.823 0 1.338-.89.926-1.603L29.65 18.253a1.07 1.07 0 00-1.852 0"/><path fill="#EB3027" d="M28.723 23.8v4.376"/><path stroke="#EB3027" stroke-width=".558" d="M28.723 23.8v4.376"/><path fill="#EB3027" d="M28.723 23.8v4.376"/><path stroke="#EB3027" stroke-linecap="round" stroke-width="2" d="M28.723 23.8v4.376"/><path fill="#EB3027" d="M29.987 32.36a1.264 1.264 0 11-2.527-.003 1.264 1.264 0 012.527.003"/></g></svg>