<svg id="Layer_1" data-name="Layer 1" xmlns="http://www.w3.org/2000/svg" viewBox="0 0 64 64"><defs><style>.cls-2,.cls-3{fill:none;stroke-linecap:round;stroke-linejoin:round;stroke-width:2px;stroke:#ed2e26}.cls-3{fill:#fff}</style></defs><path d="M48 15.48c-.18-.11-1.58-1-2.14-1.21l-.69-1.67c.21-.55.6-2.09.67-2.36a.74.74 0 00-.2-.69l-1.12-1.08a.71.71 0 00-.69-.2c-.2 0-1.78.44-2.37.66l-1.66-.69c-.25-.53-1.06-1.9-1.21-2.14a.76.76 0 00-.59-.35h-1.57a.73.73 0 00-.63.35c-.12.18-.95 1.58-1.21 2.14l-1.67.69c-.55-.21-2.1-.6-2.37-.67a.74.74 0 00-.69.2l-1.08 1.09a.76.76 0 00-.2.69c.05.2.45 1.78.67 2.36l-.69 1.67c-.53.24-1.9 1.06-2.14 1.21a.73.73 0 00-.35.63v1.53a.75.75 0 00.35.63c.17.11 1.58.95 2.13 1.21l.69 1.67c-.2.55-.6 2.09-.66 2.36a.74.74 0 00.2.69l1.08 1.08a.71.71 0 00.69.2c.2 0 1.78-.44 2.36-.66l1.67.69c.25.53 1.06 1.9 1.21 2.13a.74.74 0 00.64.36H38a.75.75 0 00.63-.35c.11-.17.95-1.58 1.2-2.14l1.67-.68c.55.2 2.1.59 2.37.66a.74.74 0 00.69-.2l1.08-1.08a.74.74 0 00.2-.69c0-.2-.44-1.78-.67-2.37l.69-1.66c.54-.25 1.91-1.06 2.14-1.21a.76.76 0 00.36-.64v-1.53a.74.74 0 00-.36-.63zm-10.81 6.24a4.85 4.85 0 114.86-4.84 4.85 4.85 0 01-4.86 4.84z" stroke-linecap="round" stroke-linejoin="round" stroke-width="2" stroke="#b5d0e5" fill="none"/><path class="cls-2" d="M37.19 32.95h24.87"/><circle class="cls-3" cx="44.49" cy="32.95" r="2.98"/><path class="cls-2" d="M37.19 39.91h24.87"/><circle class="cls-3" cx="56.09" cy="39.91" r="2.98"/><path class="cls-2" d="M37.19 46.87h24.87"/><circle class="cls-3" cx="47.47" cy="46.87" r="2.98"/><path d="M40.54 56.42C39.64 51.35 29.38 51.68 26 48v-3.63a11.59 11.59 0 003-7s.13-1.48.19-2.19c.45-5.18-3-9.84-7.78-9.86s-8.25 4.62-7.84 9.81c.06.71.18 2.19.18 2.19a11.43 11.43 0 003.13 7.24v3.38c-3.36 3.76-13.75 3.39-14.66 8.5-.1.62.19 4.07.19 4.07h38a39.81 39.81 0 00.13-4.09z" stroke="#b4cfe4" stroke-linecap="round" stroke-linejoin="round" stroke-width="2" fill="none"/></svg>