<svg xmlns="http://www.w3.org/2000/svg" width="54" height="63" viewBox="0 0 54 63"><g fill="none" fill-rule="evenodd"><path stroke="#B5D0E7" stroke-linecap="round" stroke-linejoin="round" stroke-width="2.046" d="M27.193 2c16.409 0 24.66 8.779 24.66 8.779s.943 6.498.34 19.583C51.283 50.129 27.199 61.999 27.197 62 27.194 62.001 3.11 50.129 2.2 30.362c-.602-13.085.341-19.583.341-19.583S10.785 2 27.193 2z"/><path fill="#EC3027" d="M27.056 14c8.303.012 15.025 6.753 15.013 15.056-.012 8.303-6.753 15.025-15.056 15.013C18.71 44.057 11.988 37.316 12 29.013 12.012 20.71 18.753 13.988 27.056 14"/><path stroke="#FEFEFE" stroke-linecap="round" stroke-linejoin="round" stroke-width="1.5" d="M20 29.116l4.931 4.931L33.978 25"/></g></svg>