<svg xmlns="http://www.w3.org/2000/svg" width="224" height="222"><g fill="none" fill-rule="evenodd"><path stroke="#C3D6EC" stroke-linecap="round" stroke-linejoin="round" stroke-width="8" d="M137.19 59h68v144H21.189V59h67"/><g stroke="#C3D6EC" stroke-linecap="round" stroke-linejoin="round" stroke-width="8"><path d="M138 59h82V19h-24l.09 15.816L172 35l.181-16H148l.09 15.816L139 35M86 34.816L76 35l.181-16H52l.09 15.816L28 35l.181-16H4v40h82"/></g><path stroke="#C3D6EC" stroke-linecap="round" stroke-linejoin="round" stroke-width="8" d="M36 107h32V91H36zM48 123h32v-16H48zM152 119h34v-16h-34z"/><path stroke="#DE1D0B" stroke-linecap="round" stroke-linejoin="round" stroke-width="8" d="M127.774 142.81L139.77 39.987 113.208 4 86.645 39.987 98.641 142.81"/><path fill="#DE1D0B" d="M139.216 152.933l-26.026-15.905-26.028 15.905-23.134-7.23 17.35 23.135L105 163l-.486 55h18.797l.689-55c9.41 0 21 5.838 21 5.838l17.352-23.134-23.136 7.229z"/><path stroke="#DE1D0B" stroke-linecap="round" stroke-linejoin="round" stroke-width="8" d="M139.216 152.933l-26.026-15.905-26.028 15.905-23.134-7.23 17.35 23.135L105 163l-.486 55h18.797l.689-55c9.41 0 21 5.838 21 5.838l17.352-23.134-23.136 7.229zM112.81 54v85"/></g></svg>