<svg xmlns="http://www.w3.org/2000/svg" xmlns:xlink="http://www.w3.org/1999/xlink" viewBox="0 0 63 52"><defs><path id="a" d="M0 .6h62.787v50.787H0z"/></defs><g fill="none" fill-rule="evenodd"><path stroke="#B2CBD9" stroke-width=".144" d="M5.35 9.883h52.085c.948 0 1.826.276 2.6.722-.338-1.618-1.385-2.842-2.6-2.842H25.669c-2.169 0-3.204-1.524-3.96-2.636-.849-1.25-1.355-1.902-2.73-1.902H5.349c-1.477 0-2.725 1.802-2.725 3.937v3.513a5.195 5.195 0 012.726-.792z"/><mask id="b" fill="#fff"><use xlink:href="#a"/></mask><path fill="#B5D0E5" d="M5.35 3.225h13.629c1.375 0 1.881.653 2.73 1.902.756 1.113 1.79 2.636 3.96 2.636h31.767c1.214 0 2.26 1.224 2.6 2.842-.772-.446-1.65-.722-2.6-.722H5.35c-.999 0-1.925.301-2.726.792V7.162c.001-2.135 1.248-3.937 2.726-3.937zM60.16 45.95c0 1.586-1.221 2.875-2.725 2.875H5.35c-1.504 0-2.726-1.29-2.726-2.875V15.382c0-1.585 1.222-2.874 2.726-2.874h52.085c1.504 0 2.726 1.29 2.726 2.875V45.95zM57.437 5.14H25.67c-.716 0-1.04-.386-1.787-1.485C23.008 2.364 21.81.6 18.98.6H5.35C2.4.6 0 3.544 0 7.162V45.95c0 3.032 2.4 5.5 5.35 5.5h52.086c2.95 0 5.35-2.468 5.35-5.5V11.701c0-3.618-2.4-6.562-5.35-6.562z" mask="url(#b)"/><path stroke="#D9312D" stroke-width="2.234" d="M26.194 27.444h9.045c2.14 0 3.88 1.733 3.88 3.874v6.085c0 2.141-1.74 3.88-3.88 3.88h-9.045c-2.14 0-3.88-1.739-3.88-3.88v-6.085a3.88 3.88 0 013.88-3.874z"/><path stroke="#ED2E26" stroke-width="2.234" d="M27.764 20.604a1.29 1.29 0 00-1.292 1.292v4.41a1.29 1.29 0 001.292 1.291h5.904c.715 0 1.293-.578 1.293-1.291v-4.41a1.29 1.29 0 00-1.293-1.292h-5.904z"/><path fill="#ED2E26" d="M31.407 35.61v2.859h-1.381v-2.86a2.05 2.05 0 01-1.388-1.93c0-1.133.927-2.053 2.08-2.053 1.146 0 2.077.92 2.077 2.053 0 .894-.582 1.648-1.388 1.93zm5.124-9.457H24.9a3.875 3.875 0 00-3.879 3.874v8.668a3.88 3.88 0 003.88 3.88H36.53a3.88 3.88 0 003.878-3.88v-8.668a3.874 3.874 0 00-3.878-3.874z"/></g></svg>