<svg xmlns="http://www.w3.org/2000/svg" width="63" height="63"><g fill="none" fill-rule="evenodd"><path fill="#ED2E26" d="M29.14 26.758c-.544-3.081-6.772-2.883-8.854-5.114v-2.202c.962-.998 1.662-2.492 1.815-4.266 0 0 .08-.9.115-1.326.275-3.147-1.825-5.976-4.72-5.985-2.89-.01-5.01 2.804-4.757 5.954l.106 1.327c.148 1.845.885 3.395 1.9 4.398v2.05c-2.04 2.284-8.349 2.06-8.898 5.164-.063.376.11 2.466.11 2.466h23.074s.174-2.09.11-2.466"/><path fill="#B5D0E7" d="M56.652 26.758c-.544-3.081-6.773-2.883-8.854-5.114v-2.202c.962-.998 1.661-2.492 1.815-4.266l.115-1.326c.274-3.147-1.826-5.976-4.72-5.985-2.892-.01-5.011 2.804-4.758 5.954l.106 1.327c.149 1.845.886 3.395 1.9 4.398v2.05c-2.04 2.284-8.348 2.06-8.897 5.164-.064.376.11 2.466.11 2.466h23.073s.175-2.09.11-2.466M29.14 52.168c-.544-3.08-6.772-2.882-8.854-5.112v-2.203c.962-.998 1.662-2.492 1.815-4.265 0 0 .08-.9.115-1.327.275-3.147-1.825-5.975-4.72-5.985-2.89-.01-5.01 2.804-4.757 5.954l.106 1.327c.148 1.845.885 3.395 1.9 4.398v2.05c-2.04 2.284-8.349 2.06-8.898 5.164-.063.376.11 2.466.11 2.466h23.074s.174-2.09.11-2.466m27.511 0c-.544-3.081-6.773-2.883-8.854-5.113v-2.203c.962-.998 1.661-2.492 1.815-4.265l.115-1.327c.274-3.147-1.826-5.975-4.72-5.985-2.892-.01-5.011 2.804-4.758 5.954l.106 1.327c.149 1.845.886 3.395 1.9 4.398v2.05c-2.04 2.284-8.348 2.06-8.897 5.164-.064.376.11 2.466.11 2.466h23.073s.175-2.09.11-2.466"/><path stroke="#B5D0E7" stroke-dasharray="6.041 6.041" stroke-width="2" d="M54.3 61.5H8.2c-3.96 0-7.2-3.24-7.2-7.2V8.2C1 4.24 4.24 1 8.2 1h46.1c3.96 0 7.2 3.24 7.2 7.2v46.1c0 3.96-3.24 7.2-7.2 7.2z"/></g></svg>