<svg xmlns="http://www.w3.org/2000/svg" viewBox="0 0 60 60">
  <g fill="none">
    <path fill="#B5D0E6" d="M0 1.146v.001C0 .513.513 0 1.146 0h57.32c.634 0 1.147.513 1.147 1.147v57.319c0 .633-.513 1.146-1.147 1.146H1.146A1.146 1.146 0 0 1 0 58.466V1.146zM2.292 57.32H57.32V2.292H2.292V57.32z"/>
    <path fill="#B5D0E6" d="M9.172 25.22h16.05V9.17H9.172v16.05zM6.878 8.024v18.343c0 .634.513 1.147 1.146 1.147h18.343c.633 0 1.147-.513 1.147-1.147V8.024c0-.632-.514-1.145-1.147-1.145H8.024c-.633 0-1.146.512-1.146 1.144v.001z"/>
    <path fill="#ED2E26" d="M17.196 32.1c-5.698 0-10.318 4.618-10.318 10.317 0 5.698 4.62 10.317 10.318 10.317 5.698 0 10.318-4.62 10.318-10.317 0-5.7-4.62-10.318-10.318-10.318"/>
    <path fill="#B5D0E6" d="M42.417 11.956L49.02 25.22H35.81l6.607-13.264zm1.025-3.068a1.146 1.146 0 0 0-2.05 0l-8.484 16.967c-.38.762.174 1.66 1.025 1.66H50.9c.852 0 1.407-.898 1.026-1.66L43.442 8.888zm-.337 23.44a1.146 1.146 0 0 0-1.376 0l-9.63 7.22c-.395.297-.556.81-.4 1.278l3.677 11.123c.155.467.594.785 1.088.785h11.903c.495 0 .933-.318 1.088-.786l3.68-11.124a1.153 1.153 0 0 0-.4-1.278l-9.63-7.22v.002zm7.6 8.557l-3.175 9.557H37.304l-3.164-9.557 8.282-6.212 8.282 6.212h.001z"/>
  </g>
</svg>
