<svg xmlns="http://www.w3.org/2000/svg" width="56" height="61" viewBox="0 0 56 61"><g fill="none" fill-rule="evenodd"><path fill="#FEFEFE" d="M21.5 50.825C8.799 50.825 1 47.74 1 45.529V34.008h41v11.52c0 2.212-7.8 5.297-20.5 5.297"/><path fill="#B5D0E7" d="M43 33.008H0v12.52c0 3.478 9.626 6.297 21.5 6.297S43 49.005 43 45.529V33.008zm-2 2l.002 10.502c-.278 1.188-6.696 4.315-19.502 4.315S2.276 46.698 2 45.529V35.008h39z"/><path fill="#FEFEFE" d="M21.5 37.468C8.799 37.468 1 34.383 1 32.172v-11.52h41v11.52c0 2.212-7.8 5.297-20.5 5.297"/><path fill="#B5D0E7" d="M43 19.652H0v12.52c0 3.478 9.626 6.297 21.5 6.297S43 35.649 43 32.173V19.652zm-2 2l.002 10.502c-.278 1.188-6.696 4.315-19.502 4.315S2.276 33.342 2 32.173V21.652h39z"/><path fill="#FEFEFE" d="M21.5 24.113C8.799 24.113 1 21.028 1 18.817V7.296h41v11.521c0 2.211-7.8 5.296-20.5 5.296"/><path fill="#B5D0E7" d="M43 6.296H0v12.521c0 3.477 9.626 6.296 21.5 6.296S43 22.294 43 18.817V6.296zm-2 2l.002 10.502c-.278 1.188-6.696 4.315-19.502 4.315S2.276 19.986 2 18.817V8.296h39z"/><path fill="#FFF" d="M21.5 11.591C8.799 11.591 1 8.508 1 6.296 1 4.083 8.799.998 21.5.998S42 4.084 42 6.295c0 2.211-7.8 5.296-20.5 5.296"/><path fill="#B5D0E7" d="M21.5 0C9.626 0 0 2.819 0 6.296c0 3.477 9.626 6.296 21.5 6.296S43 9.773 43 6.296C43 2.819 33.374 0 21.5 0m0 2c12.806 0 19.224 3.127 19.502 4.277-.278 1.188-6.696 4.315-19.502 4.315S2.276 7.465 1.998 6.315C2.276 5.127 8.694 2 21.5 2"/><path stroke="#ED2E26" stroke-width="2" d="M15.28 18.167c1.97.175 4.057.268 6.22.268 3.335 0 6.496-.223 9.314-.622M15.28 30.688c1.97.175 4.058.268 6.221.268 3.335 0 6.496-.223 9.314-.622M15.28 44.044c1.97.175 4.058.268 6.221.268 3.335 0 6.496-.223 9.314-.622" stroke-linecap="round" stroke-linejoin="round" stroke-dasharray="0 6.225"/><path fill="#ED2E26" d="M40.056 30c8.303.012 15.025 6.753 15.013 15.056-.012 8.303-6.753 15.025-15.056 15.013C31.71 60.057 24.988 53.316 25 45.013 25.012 36.71 31.753 29.988 40.056 30"/><path stroke="#FFF" stroke-width="2" d="M40.034 37.304a7.73 7.73 0 107.73 7.73M45.03 46.035l2.734-2.735 2.735 2.735" stroke-linecap="round" stroke-linejoin="round"/></g></svg>