<svg width="64" height="60" viewBox="0 0 64 60" xmlns="http://www.w3.org/2000/svg"><g fill="none" fill-rule="evenodd" opacity=".9"><path d="M21.823 58.381l17.45-31.139M39.618 27.242l17.45 31.14" stroke="#B5D0E7" stroke-width="2" stroke-linecap="round" stroke-linejoin="round"/><path d="M15.546 24.727C15.546 11.623 26.169 1 39.273 1 52.377 1 63 11.623 63 24.727c0 13.104-10.623 23.727-23.727 23.727-13.104 0-23.727-10.623-23.727-23.727" fill="#FFF"/><path d="M15.546 24.727C15.546 11.623 26.169 1 39.273 1 52.377 1 63 11.623 63 24.727c0 13.104-10.623 23.727-23.727 23.727-13.104 0-23.727-10.623-23.727-23.727z" stroke="#B5D0E7" stroke-width="2" stroke-linecap="round" stroke-linejoin="round"/><path d="M39.273 40.505c-8.7 0-15.777-7.079-15.777-15.778 0-8.7 7.077-15.777 15.777-15.777S55.05 16.027 55.05 24.727c0 8.7-7.077 15.777-15.777 15.777" fill="#FFF"/><path d="M39.273 7.95c-9.266 0-16.778 7.511-16.778 16.777 0 9.266 7.512 16.777 16.778 16.777 9.266 0 16.778-7.51 16.778-16.777 0-9.266-7.512-16.778-16.778-16.778m0 2c8.148 0 14.778 6.63 14.778 14.778s-6.63 14.777-14.778 14.777-14.778-6.629-14.778-14.777c0-8.149 6.63-14.778 14.778-14.778" fill="#B5D0E7"/><path d="M32.651 24.727a6.622 6.622 0 1113.245 0 6.622 6.622 0 01-13.245 0" fill="#ED2E26"/><path d="M39.273 24.727H3" stroke="#FFF" stroke-width="6" stroke-linecap="round"/><path d="M39.273 24.727H3" stroke="#ED2E26" stroke-width="2" stroke-linecap="round"/><path d="M18.437 24.727l-6.049-6.049M10.376 24.727l-6.049-6.049M4.328 30.887l6.049-6.05M12.389 30.887l6.049-6.05" stroke="#ED2E26" stroke-width="2" stroke-linecap="round" stroke-linejoin="round"/></g></svg>