
<svg width="73px" height="73px" viewBox="0 0 73 73" version="1.1" xmlns="http://www.w3.org/2000/svg" xmlns:xlink="http://www.w3.org/1999/xlink">
    <!-- Generator: Sketch 44.1 (41455) - http://www.bohemiancoding.com/sketch -->
    <desc>Created with Sketch.</desc>
    <defs></defs>
    <g id="12.1-13-App-detail" stroke="none" stroke-width="1" fill="none" fill-rule="evenodd">
        <g id="12.4-App-Detail---Continuous-Monitoring" transform="translate(-185.000000, -1764.000000)">
            <g id="---Features-overview" transform="translate(185.000000, 1290.000000)">
                <g id="::-03" transform="translate(0.000000, 475.000000)">
                    <g id="icon" transform="translate(1.000000, 0.000000)">
                        <path d="M35.8804327,7.21256415 C51.9218337,7.21256415 64.9264972,20.2172276 64.9264972,36.2586287 C64.9264972,52.3000297 51.9218337,65.3046932 35.8804327,65.3046932 C19.8378925,65.3046932 6.83436813,52.3000297 6.83436813,36.2586287 C6.83436813,20.2172276 19.8378925,7.21256415 35.8804327,7.21256415 Z" id="Stroke-1" stroke="#B5CFE5" stroke-width="2"></path>
                        <path d="M35.310902,18.6031777 C44.7468862,18.6031777 52.3968223,26.2531138 52.3968223,35.689098 C52.3968223,45.1250823 44.7468862,52.7750183 35.310902,52.7750183 C25.8749177,52.7750183 18.2249817,45.1250823 18.2249817,35.689098 C18.2249817,26.2531138 25.8749177,18.6031777 35.310902,18.6031777" id="Fill-3" fill="#ED2E26"></path>
                        <path d="M70.621804,35.5 L56.9530677,35.5" id="Stroke-5" stroke="#B5CFE5" stroke-width="2" stroke-linecap="round" stroke-linejoin="round"></path>
                        <path d="M35.5,14.0469323 L35.5,0.378196023" id="Stroke-7" stroke="#B5CFE5" stroke-width="2" stroke-linecap="round" stroke-linejoin="round"></path>
                        <path d="M34.4242424,71 L34.4242424,57.3312637" id="Stroke-9" stroke="#B5CFE5" stroke-width="2" stroke-linecap="round" stroke-linejoin="round"></path>
                        <path d="M13.6687363,35.5 L0,35.5" id="Stroke-11" stroke="#B5CFE5" stroke-width="2" stroke-linecap="round" stroke-linejoin="round"></path>
                        <path d="M35.1762649,28.5065188 L35.1762649,28.5065188 C37.5136188,28.5304391 39.4602747,30.3062358 39.7006166,32.6321991 C40.0115804,35.6552679 41.0925496,37.8821328 42.9458024,39.315072 C39.911343,39.4745406 32.7010846,39.1556034 27.3372447,39.315072 C29.2987083,38.1247529 30.4172666,35.8830802 30.6929194,32.5854975 C30.8876989,30.2618124 32.8434673,28.4825985 35.1762649,28.5065188" id="Fill-13" fill="#FFFFFF"></path>
                        <path d="M33.4398798,40.6101848 L36.7841639,40.6101848 L36.7841639,41.3095685 C36.7841639,42.2344863 36.0346616,42.9817105 35.1120219,42.9817105 C34.1871041,42.9817105 33.4398798,42.2344863 33.4398798,41.3095685 L33.4398798,40.6101848 Z" id="Fill-15" fill="#FFFFFF"></path>
                        <path d="M33.4398798,31.8959098 L36.7841639,31.8959098 L36.7841639,28.2497744 C36.7841639,27.3248566 36.0346616,26.5764933 35.1120219,26.5764933 C34.1871041,26.5764933 33.4398798,27.3248566 33.4398798,28.2497744 L33.4398798,31.8959098 Z" id="Fill-17" fill="#FFFFFF"></path>
                        <path d="M30.1384244,36.5322312 L40.1450784,36.5322312 C41.6930628,36.5322312 42.9460302,37.7863378 42.9460302,39.3331831 L42.9460302,39.3388784 L27.3374725,39.3388784 L27.3374725,39.3331831 C27.3374725,37.7863378 28.5927181,36.5322312 30.1384244,36.5322312" id="Fill-19" fill="#FFFFFF"></path>
                    </g>
                </g>
            </g>
        </g>
    </g>
</svg>