
<svg width="56px" height="63px" viewBox="0 0 56 63" version="1.1" xmlns="http://www.w3.org/2000/svg" xmlns:xlink="http://www.w3.org/1999/xlink">
    <!-- Generator: Sketch 44.1 (41455) - http://www.bohemiancoding.com/sketch -->
    <desc>Created with Sketch.</desc>
    <defs></defs>
    <g id="12.1-13-App-detail" stroke="none" stroke-width="1" fill="none" fill-rule="evenodd">
        <g id="12.6-App-Detail---Policy-Compliance" transform="translate(-734.000000, -1774.000000)">
            <g id="---Features-overview" transform="translate(185.000000, 1290.000000)">
                <g id="::-04" transform="translate(549.000000, 485.000000)">
                    <g id="icon" transform="translate(1.000000, 0.000000)">
                        <path d="M29.2129,0.6698 C27.6659,-0.2232 25.7599,-0.2232 24.2129,0.6698 L2.4999,13.2058 C0.9529,14.0988 -0.0001,15.7498 -0.0001,17.5358 L-0.0001,42.6078 C-0.0001,44.3938 0.9529,46.0448 2.4999,46.9378 L24.2129,59.4738 C25.7599,60.3668 27.6659,60.3668 29.2129,59.4738 L50.9259,46.9378 C52.4729,46.0448 53.4259,44.3938 53.4259,42.6078 L53.4259,17.5358 C53.4259,15.7498 52.4729,14.0988 50.9259,13.2058 L29.2129,0.6698 Z" id="Stroke-1" stroke="#B5D0E7" stroke-width="2"></path>
                        <path d="M16.7129,21.0717 L36.7129,21.0717 C41.6839,21.0717 45.7129,25.1007 45.7129,30.0717 C45.7129,35.0427 41.6839,39.0717 36.7129,39.0717 L16.7129,39.0717 C11.7419,39.0717 7.7129,35.0427 7.7129,30.0717 C7.7129,25.1007 11.7419,21.0717 16.7129,21.0717 Z" id="Stroke-3" stroke="#EC3027" stroke-width="2"></path>
                        <path d="M35.7129,26.0717 C37.9219,26.0717 39.7129,27.8627 39.7129,30.0717 C39.7129,32.2807 37.9219,34.0717 35.7129,34.0717 C33.5039,34.0717 31.7129,32.2807 31.7129,30.0717 C31.7129,27.8627 33.5039,26.0717 35.7129,26.0717" id="Fill-5" fill="#EC3027"></path>
                    </g>
                </g>
            </g>
        </g>
    </g>
</svg>