<svg width="47" height="64" viewBox="0 0 47 64" xmlns="http://www.w3.org/2000/svg"><g fill="none" fill-rule="evenodd"><path fill="#FFF" d="M17.938 34.452l9.496 2.56-6.912 25.64-3.724-5.079-5.773 2.52z"/><path stroke="#B5D0E7" stroke-width="2" stroke-linecap="round" stroke-linejoin="round" d="M17.938 34.452l9.496 2.56-6.912 25.64-3.724-5.079-5.773 2.52z"/><path fill="#FFF" d="M28.783 34.452l-9.496 2.56 6.912 25.64 3.724-5.079 5.773 2.52z"/><path stroke="#B5D0E7" stroke-width="2" stroke-linecap="round" stroke-linejoin="round" d="M28.783 34.452l-9.496 2.56 6.912 25.64 3.724-5.079 5.773 2.52z"/><path d="M1 23.36c0-2.807 3.737-4.851 4.75-7.293 1.049-2.531-.108-6.61 1.799-8.518 1.908-1.907 5.987-.75 8.518-1.8C18.509 4.738 20.553 1 23.361 1s4.852 3.738 7.294 4.75c2.531 1.05 6.61-.107 8.518 1.8 1.907 1.908.749 5.987 1.799 8.518 1.012 2.442 4.75 4.486 4.75 7.294s-3.738 4.852-4.75 7.294c-1.05 2.53.108 6.61-1.8 8.518-1.907 1.907-5.986.75-8.517 1.799-2.442 1.013-4.486 4.75-7.294 4.75s-4.853-3.737-7.294-4.75c-2.531-1.05-6.61.108-8.518-1.8-1.907-1.907-.75-5.986-1.799-8.517C4.737 28.213 1 26.169 1 23.36" fill="#F7FAFC"/><path d="M1 23.36c0-2.807 3.737-4.851 4.75-7.293 1.049-2.531-.108-6.61 1.799-8.518 1.908-1.907 5.987-.75 8.518-1.8C18.509 4.738 20.553 1 23.361 1s4.852 3.738 7.294 4.75c2.531 1.05 6.61-.107 8.518 1.8 1.907 1.908.749 5.987 1.799 8.518 1.012 2.442 4.75 4.486 4.75 7.294s-3.738 4.852-4.75 7.294c-1.05 2.53.108 6.61-1.8 8.518-1.907 1.907-5.986.75-8.517 1.799-2.442 1.013-4.486 4.75-7.294 4.75s-4.853-3.737-7.294-4.75c-2.531-1.05-6.61.108-8.518-1.8-1.907-1.907-.75-5.986-1.799-8.517C4.737 28.213 1 26.169 1 23.36z" stroke="#B5D0E7" stroke-width="2" stroke-linecap="round" stroke-linejoin="round"/><path d="M24.15 9.652c8.14 0 12.233 4.355 12.233 4.355s.468 3.224.17 9.715c-.452 9.806-12.4 15.695-12.4 15.696-.002 0-11.95-5.89-12.4-15.696-.3-6.49.168-9.715.168-9.715s4.09-4.355 12.23-4.355" fill="#EE3C39"/><path d="M18.042 22.542c0-3.467 2.741-6.288 6.11-6.288a6.122 6.122 0 016.115 6.115c0 2.692-2.314 4.907-4.097 6.045.692.394 2.218.809 3.68.943a8.825 8.825 0 003.437-6.988c0-5.037-4.098-9.135-9.135-9.135s-9.135 4.098-9.135 9.135c0 3.042 1.267 5.745 3.663 7.816 2.241 1.936 5.518 3.228 9.25 3.84.808-.447 2.19-1.765 2.71-2.538-3.118-.4-6.067-1.16-8.044-2.198-3.022-1.585-4.554-3.855-4.554-6.747" fill="#FFF"/></g></svg>