<svg xmlns="http://www.w3.org/2000/svg" width="52" height="58" viewBox="0 0 52 58"><g fill="none" fill-rule="evenodd"><path stroke="#B5D0E7" stroke-width="2" d="M40.395 11.528C46.81 16.054 51 23.523 51 31.97c0 13.807-11.192 25-25 25-13.807 0-25-11.193-25-25s11.193-25 25-25h3.206m.78 0l-5.97 5.97m5.97-5.97L24.015 1" stroke-linecap="round" stroke-linejoin="round"/><path fill="#ED2E26" d="M25.998 18.429c8.14 0 12.233 4.355 12.233 4.355s.468 3.224.17 9.715C37.948 42.305 26 48.194 26 48.195c-.002 0-11.95-5.89-12.4-15.696-.3-6.491.168-9.715.168-9.715s4.09-4.355 12.23-4.355"/><path fill="#FEFEFE" d="M19.89 31.318c0-3.467 2.741-6.288 6.11-6.288a6.122 6.122 0 016.115 6.115c0 2.692-2.314 4.907-4.097 6.045.692.394 2.218.81 3.68.943a8.825 8.825 0 003.437-6.988c0-5.037-4.098-9.135-9.135-9.135s-9.135 4.098-9.135 9.135c0 3.042 1.267 5.745 3.663 7.816 2.241 1.936 5.518 3.228 9.249 3.84.809-.447 2.191-1.765 2.71-2.538-3.117-.4-6.066-1.16-8.043-2.198-3.022-1.585-4.554-3.855-4.554-6.747"/></g></svg>