<svg xmlns="http://www.w3.org/2000/svg" width="52" height="58" viewBox="0 0 52 58"><g fill="none" fill-rule="evenodd" opacity=".9"><path stroke="#B5D0E7" stroke-width="2" d="M40.395 11.528C46.81 16.054 51 23.523 51 31.97c0 13.807-11.192 25-25 25-13.807 0-25-11.193-25-25s11.193-25 25-25h3.206m.78 0l-5.97 5.97m5.97-5.97L24.015 1" stroke-linecap="round" stroke-linejoin="round"/><path fill="#ED2E26" d="M26.021 16.936c8.303.012 15.025 6.753 15.013 15.056-.011 8.303-6.752 15.025-15.055 15.013-8.303-.012-15.025-6.753-15.013-15.056.012-8.303 6.753-15.025 15.056-15.013"/><path stroke="#FEFEFE" stroke-width="2" d="M19.649 31.381l4.931 4.931 9.047-9.047" stroke-linecap="round" stroke-linejoin="round"/></g></svg>