<svg xmlns="http://www.w3.org/2000/svg" width="52" height="58" viewBox="0 0 52 58"><g fill="none" fill-rule="evenodd"><path stroke="#B5D0E7" stroke-width="2" d="M40.395 11.528C46.81 16.054 51 23.523 51 31.97c0 13.807-11.192 25-25 25-13.807 0-25-11.193-25-25s11.193-25 25-25h3.206m.78 0l-5.97 5.97m5.97-5.97L24.015 1" stroke-linecap="round" stroke-linejoin="round"/><path fill="#ED2E26" d="M26.021 16.936c8.303.012 15.025 6.753 15.013 15.056-.011 8.303-6.752 15.025-15.055 15.013-8.303-.012-15.025-6.753-15.013-15.056.012-8.303 6.753-15.025 15.056-15.013"/><path fill="#FFF" d="M26 23.89c-6.886 0-9.761 7.232-9.88 7.54a1.504 1.504 0 00-.044.949c.751 2.653 3.791 7.672 9.924 7.672 6.133 0 9.173-5.02 9.924-7.672a1.504 1.504 0 00-.044-.95c-.119-.307-2.994-7.54-9.88-7.54m0 1.5c5.937 0 8.481 6.58 8.481 6.58S32.619 38.552 26 38.552s-8.481-6.581-8.481-6.581 2.544-6.58 8.481-6.58"/><path stroke="#FFF" stroke-width="1.5" d="M22.32 31.97a3.68 3.68 0 117.361.001 3.68 3.68 0 01-7.36 0z" stroke-linecap="round" stroke-linejoin="round"/></g></svg>