<svg xmlns="http://www.w3.org/2000/svg" xmlns:xlink="http://www.w3.org/1999/xlink" width="70" height="67"><defs><path id="a" d="M.363 1.261h20.486v18.763H.363z"/><path id="c" d="M.363.453h20.486v18.763H.363z"/></defs><g fill="none" fill-rule="evenodd"><path fill="#ED2E26" d="M37.87 32.7c-.748-4.23-9.296-3.958-12.152-7.019v-3.023c1.319-1.37 2.28-3.42 2.49-5.854 0 0 .108-1.234.157-1.822.378-4.32-2.504-8.2-6.478-8.214-3.968-.011-6.876 3.848-6.53 8.172l.146 1.821c.205 2.532 1.215 4.66 2.608 6.037v2.815c-2.801 3.135-11.458 2.826-12.213 7.086-.086.516.153 3.385.153 3.385h31.668s.24-2.869.151-3.385"/><g transform="translate(49.04 11.242)"><mask id="b" fill="#fff"><use xlink:href="#a"/></mask><path fill="#B5D0E7" d="M20.837 17.857c-.48-2.705-5.95-2.532-7.777-4.491v-1.937c.844-.875 1.457-2.186 1.593-3.745 0 0 .069-.79.1-1.166.242-2.763-1.603-5.248-4.145-5.256-2.54-.009-4.401 2.463-4.179 5.229.029.376.093 1.165.093 1.165.13 1.623.779 2.984 1.67 3.865v1.801C6.396 15.327.855 15.132.374 17.857c-.055.33.097 2.167.097 2.167h20.269s.153-1.836.096-2.167" mask="url(#b)"/></g><path fill="#B5D0E7" d="M31.308 63.061c-.48-2.706-5.95-2.532-7.778-4.49v-1.937c.844-.876 1.459-2.187 1.593-3.746l.102-1.165c.24-2.763-1.605-5.249-4.145-5.257-2.542-.008-4.404 2.462-4.181 5.23l.093 1.165c.13 1.622.778 2.982 1.67 3.865v1.8c-1.793 2.006-7.334 1.81-7.816 4.535-.056.331.096 2.166.096 2.166H31.21s.154-1.835.098-2.166"/><g transform="translate(49.04 46.928)"><mask id="d" fill="#fff"><use xlink:href="#c"/></mask><path fill="#B5D0E7" d="M20.837 17.049c-.48-2.706-5.95-2.533-7.777-4.491V10.62c.844-.876 1.457-2.186 1.593-3.744 0 0 .069-.79.1-1.167.242-2.763-1.603-5.249-4.145-5.257C8.068.445 6.207 2.917 6.43 5.684l.093 1.164c.13 1.622.779 2.984 1.67 3.865v1.8C6.396 14.52.855 14.325.374 17.05c-.055.33.097 2.167.097 2.167h20.269s.153-1.837.096-2.167" mask="url(#d)"/></g><path stroke="#B5D0E7" stroke-dasharray="3.038 3.038" stroke-width="2" d="M37.798 42.77H5.97A4.986 4.986 0 0 1 1 37.797V5.97C1 3.237 3.237 1 5.97 1h31.827c2.734 0 4.971 2.237 4.971 4.97v31.828a4.986 4.986 0 0 1-4.971 4.971z"/></g></svg>