<svg version="1.1" id="Layer_1" xmlns="http://www.w3.org/2000/svg" x="0" y="0" viewBox="0 0 65 65" xml:space="preserve"><style>.st0{fill:#f7fafc}.st1{fill:#b5d0e7}</style><text transform="translate(-.433 78.014)"><tspan x="0" y="0" fill="#fff" font-family="Gotham-Book" font-size="8">Identify zero-day</tspan><tspan x="-1.99" y="9.6" fill="#fff" font-family="Gotham-Book" font-size="8">vulnerabilities and</tspan><tspan x="-6.74" y="19.2" fill="#fff" font-family="Gotham-Book" font-size="8">compromised assets</tspan></text><path id="Stroke-3_1_" class="st0" d="M9.72 11.92h46.6c1.72 0 3.11 1.39 3.11 3.11v35.21H6.61V15.02c0-1.71 1.39-3.1 3.11-3.1z"/><path class="st1" d="M59.42 51.23H6.61c-.55 0-1-.45-1-1V15.02c0-2.26 1.84-4.11 4.11-4.11h46.6c2.26 0 4.11 1.84 4.11 4.11v35.21c-.01.56-.45 1-1.01 1zm-51.81-2h50.81V15.02c0-1.16-.95-2.11-2.11-2.11H9.72c-1.16 0-2.11.95-2.11 2.11v34.21z"/><path id="Stroke-11_1_" class="st0" d="M6.61 44.86h52.81"/><path class="st1" d="M59.42 45.87H6.61c-.55 0-1-.45-1-1s.45-1 1-1h52.81c.55 0 1 .45 1 1s-.44 1-1 1z"/><g><path id="Stroke-15_1_" class="st0" d="M37.68 47.78v1.58H27.32v-1.58H1.43v1.94c0 2.9 2.35 2.89 5.24 2.89h51.65c2.9 0 5.24.01 5.24-2.89v-1.94H37.68z"/><path class="st1" d="M58.37 53.61H6.65c-1.52 0-2.94 0-4.05-.43-1.44-.55-2.17-1.71-2.17-3.46v-1.94c0-.55.45-1 1-1h25.89c.55 0 1 .45 1 1v.58h8.36v-.58c0-.55.45-1 1-1h25.89c.55 0 1 .45 1 1v1.94c0 1.75-.73 2.91-2.17 3.46-1.11.43-2.53.43-4.03.43zm-51.72-2H58.34c1.33 0 2.57 0 3.33-.29.45-.17.88-.44.88-1.59v-.94H38.68v.58c0 .55-.45 1-1 1H27.32c-.55 0-1-.45-1-1v-.58H2.43v.94c0 1.16.44 1.42.88 1.59.77.29 2 .29 3.31.29h.03z"/></g><path d="M45.99 38.88l-11.7-21.14c-.56-1.02-2.02-1.02-2.59 0L19.99 38.88c-.55.98.17 2.19 1.29 2.19H44.7c1.13.01 1.84-1.2 1.29-2.19zM34.32 37.4h-2.63v-2.73h2.63v2.73zm.08-13.17L33.67 33h-1.33l-.75-8.78v-.69h2.81v.7z" fill="#ed2e26"/></svg>