<?xml version="1.0" encoding="UTF-8"?>
<svg xmlns="http://www.w3.org/2000/svg" xmlns:xlink="http://www.w3.org/1999/xlink" viewBox="0 0 2580 1020">
  <defs>
    <style>
      .cls-1 {
        fill: url(#linear-gradient);
      }

      .cls-2 {
        mask: url(#mask);
      }

      .cls-3 {
        fill: #fff;
      }

      .cls-4 {
        fill: #43a5ed;
      }

      .cls-5 {
        fill: #2e8be0;
      }
    </style>
    <mask id="mask" x="-49.08" y="-48.39" width="1748.18" height="748.44" maskUnits="userSpaceOnUse">
      <g>
        <rect class="cls-3" x="80.12" y="5.36" width="1618.99" height="650.46"/>
        <rect x="80.12" y="-15.69" width="418.76" height="26.97"/>
        <polygon points="1028.78 -31.64 1699.11 -31.64 1699.11 700.05 1028.78 -31.64"/>
        <polygon points="-49.08 -31.64 -49.08 700.05 621.25 700.05 -49.08 -31.64"/>
        <polygon points="45.23 5.15 45.23 112.96 144 112.96 45.23 5.15"/>
        <polygon points="280.58 98.74 280.58 5.15 194.84 5.15 280.58 98.74"/>
        <polygon points="291.91 74.93 291.91 -18.66 206.16 -18.66 291.91 74.93"/>
        <polygon points="362.7 45.21 362.7 -48.39 276.95 -48.39 362.7 45.21"/>
        <polygon points="381.09 63.4 381.09 -30.2 295.35 -30.2 381.09 63.4"/>
        <polygon points="483.43 85.84 483.43 -7.75 397.68 -7.75 483.43 85.84"/>
        <polygon points="559.58 54.07 559.58 -39.53 473.83 -39.53 559.58 54.07"/>
        <polygon points="682.34 54.07 682.34 -39.53 596.6 -39.53 682.34 54.07"/>
        <polygon points="760.21 69.23 760.21 -24.36 674.46 -24.36 760.21 69.23"/>
        <polygon points="844.71 93.25 844.71 -.35 758.96 -.35 844.71 93.25"/>
        <polygon points="907.49 87.95 907.49 -5.64 821.74 -5.64 907.49 87.95"/>
        <polygon points="979.46 89.39 979.46 -4.2 893.72 -4.2 979.46 89.39"/>
        <rect x="62.68" y="92.13" width="61.42" height="65.32"/>
        <rect x="54.32" y="-7.75" width="50.11" height="26.97"/>
        <rect x="263.54" y="-2.2" width="72.96" height="61.26"/>
        <rect x="375.99" y="-6.95" width="82.06" height="61.26"/>
        <rect x="753.15" y="-2.2" width="115.13" height="61.26"/>
        <rect x="905.96" y="5.15" width="32.16" height="48.15"/>
        <rect x="973.19" y="-1.59" width="70.13" height="60.65"/>
        <rect x="554.58" y="-5.64" width="127.76" height="34.28"/>
      </g>
    </mask>
    <linearGradient id="linear-gradient" x1="744.22" y1="17.58" x2="860.36" y2="676.27" gradientUnits="userSpaceOnUse">
      <stop offset="0" stop-color="#043471" stop-opacity=".8"/>
      <stop offset=".01" stop-color="#043471" stop-opacity=".78"/>
      <stop offset=".3" stop-color="#043471" stop-opacity=".45"/>
      <stop offset=".57" stop-color="#043471" stop-opacity=".2"/>
      <stop offset=".8" stop-color="#043471" stop-opacity=".05"/>
      <stop offset=".98" stop-color="#043471" stop-opacity="0"/>
    </linearGradient>
    <symbol id="TotalCloud-Hero-Type" viewBox="0 0 1602.89 684.24">
      <g>
        <g class="cls-2">
          <rect id="SHADOW_use_opacity_panel_" data-name="SHADOW (use opacity panel!)" class="cls-1" x="0" y="0" width="1602.89" height="684.24"/>
        </g>
        <path class="cls-4" d="m336.49,16.6h-23.87c-2.62,2.77-5.32,5.47-8.09,8.09v20.51h-5.13c-2.62,2.77-5.32,5.47-8.09,8.09v20.52h13.22v54.84c0,22.88,12.43,30.58,29.98,30.58,9.07,0,15.58-1.97,21.5-5.33,2.65-2.72,5.35-5.42,8.09-8.09v-19.53c-4.73,2.37-9.47,3.55-14.79,3.55-8.09,0-12.82-3.75-12.82-13.02v-43h19.92c2.62-2.77,5.32-5.47,8.09-8.09v-20.52h-28.01v-28.6Zm-98.57,26.43c-16.03,0-29.97,6.2-39.89,16.14-2.61,2.62-5.24,5.23-7.85,7.85-10,9.9-15.98,23.57-15.98,38.54v.39c0,29.59,23.47,53.85,55.23,53.85,16.18,0,30.2-6.24,40.15-16.21,2.62-2.61,5.23-5.23,7.84-7.84,9.98-9.87,15.92-23.46,15.92-38.28v-.39c0-29.79-23.47-54.05-55.43-54.05Zm23.48,62.93c0,7.33-2.04,14.16-5.77,19.69-4.85,3.26-10.82,5.17-17.71,5.17-18.54,0-31.76-15.19-31.76-33.34v-.39c0-7.47,2.08-14.4,5.85-19.97,4.8-3.21,10.68-5.08,17.43-5.08,18.74,0,31.96,15.19,31.96,33.54v.39Zm161.34-62.14c-16.57,0-27.81,3.35-39.45,8.48-2.62,2.73-5.32,5.42-8.09,8.09l6.51,18.74c9.47-3.95,18.15-6.51,29.79-6.51,13.44,0,21.92,5.08,24.76,14.71-5.48-1.17-11.49-1.88-18.85-1.88-15.13,0-27.54,3.91-35.12,11.8-2.6,2.6-5.2,5.19-7.79,7.8-5.34,5.41-8.38,12.74-8.38,22.02v.39c0,20.91,17.56,32.15,37.09,32.15,14.11,0,24.22-5.23,31.28-12.3.89-.88,1.77-1.77,2.65-2.65v12.78h23.28c2.62-2.77,5.32-5.47,8.09-8.09v-61.74c0-13.61-3.55-24.66-11.24-32.15-7.3-7.5-18.94-11.64-34.52-11.64Zm14.99,76.15c0,3.61-.91,6.92-2.54,9.81-4.68,2.8-10.6,4.39-17.19,4.39-11.44,0-20.32-5.72-20.32-15.78v-.39c0-2.32.44-4.42,1.25-6.32,3.94-1.91,9.03-2.95,15.13-2.95,9.47,0,17.56,1.78,23.67,4.14v7.1ZM200.45,33.76V11.28h-112.24l-8.09,8.09v22.49h43.99v115.6h24.26l8.09-8.09V41.85h35.9l8.09-8.09Zm713.6,11.6c-2.83,2.51-5.26,5.42-8.09,7.93v58.79c0,5.79-1.26,10.71-3.48,14.65-3.41,1.89-7.44,2.9-11.91,2.9-14.2,0-22.29-9.07-22.29-25.25v-59.18h-23.87c-2.62,2.77-5.32,5.47-8.09,8.09v66.28c0,24.26,13.61,40.04,37.09,40.04,10.7,0,18.54-3.72,24.58-9.09,2.76-2.52,5.31-5.25,7.97-7.87v14.79h24.07c2.62-2.77,5.32-5.47,8.09-8.09V45.21h-24.07v.16Zm125.32-40.01c-2.62,2.77-5.32,5.47-8.09,8.09v39.33c-6.8-5.72-15.61-9.74-27.42-9.74-12.45,0-24.55,4.9-33.53,14.12-2.6,2.61-5.21,5.2-7.81,7.81-9.11,9.2-15.08,22.79-15.08,40.2v.39c0,34.52,23.87,54.05,48.33,54.05,12.03,0,20.98-4.38,27.91-10.79,2.59-2.45,5.06-5.02,7.59-7.53v16.14h23.87c2.62-2.77,5.32-5.47,8.09-8.09V5.36h-23.87Zm-7.69,100.21c0,7.93-2.25,14.82-5.97,20.25-4.74,3.22-10.32,5-16.13,5-16.18,0-29.98-13.22-29.98-33.34v-.39c0-8.15,2.16-15.08,5.77-20.48,4.68-3.1,10.22-4.77,16.13-4.77,15.98,0,30.18,13.22,30.18,33.34v.39ZM490.89,5.52c-2.83,2.51-5.26,5.42-8.09,7.93v144h24.07c2.62-2.77,5.32-5.47,8.09-8.09V5.36h-24.07v.16Zm282.34,37.52c-16.02,0-29.96,6.2-39.88,16.14-2.61,2.62-5.24,5.23-7.85,7.86-10,9.9-15.98,23.57-15.98,38.54v.39c0,29.59,23.47,53.85,55.23,53.85,16.18,0,30.2-6.24,40.15-16.21,2.62-2.61,5.22-5.22,7.84-7.84,9.98-9.87,15.93-23.46,15.93-38.29v-.39c0-29.79-23.47-54.05-55.43-54.05Zm23.48,62.93c0,7.33-2.04,14.16-5.77,19.69-4.85,3.26-10.82,5.17-17.71,5.17-18.54,0-31.76-15.19-31.76-33.34v-.39c0-7.47,2.08-14.4,5.85-19.97,4.8-3.21,10.68-5.08,17.42-5.08,18.74,0,31.96,15.19,31.96,33.54v.39ZM676.35,5.52c-2.83,2.51-5.26,5.42-8.09,7.93v144h24.07c2.62-2.77,5.32-5.47,8.09-8.09V5.36h-24.07v.16Zm-69.59,123.72c-26.43,0-45.57-21.9-45.57-48.92v-.39c0-12.01,3.83-22.93,10.36-31.36,7.41-5.72,16.64-9.08,26.92-9.08,15.98,0,27.62,6.71,38.86,16.96,2.69-2.72,5.39-5.41,8.09-8.09l15.58-17.95c-13.22-12.62-28.6-21.5-54.25-21.5-20.83,0-38.6,8.05-51.15,21.02-2.6,2.6-5.2,5.19-7.79,7.79-12.71,12.97-20.16,30.92-20.16,50.68v.39c0,39.65,29.79,71.02,70.23,71.02,25.09,0,40.7-8.93,54.77-23.17,3.11-3.13,6.26-6.22,9.34-9.38l-15.58-15.78c-11.84,11.05-22.69,17.75-39.65,17.75Z"/>
        <path class="cls-3" d="m124.11,41.85h-43.99v-22.49h112.24v22.49h-43.99v115.6h-24.26V41.85Zm50.1,64.11v-.39c0-29.79,23.67-54.45,55.63-54.45s55.43,24.26,55.43,54.05v.39c0,29.59-23.67,54.25-55.83,54.25s-55.23-24.26-55.23-53.85Zm87.19,0v-.39c0-18.35-13.22-33.54-31.96-33.54s-31.37,14.99-31.37,33.14v.39c0,18.15,13.22,33.34,31.76,33.34s31.56-14.99,31.56-32.94Zm43.14,22.69v-54.84h-13.22v-20.52h13.22v-28.6h23.87v28.6h28.01v20.52h-28.01v51.09c0,9.27,4.73,13.02,12.82,13.02,5.33,0,10.06-1.18,14.79-3.55v19.53c-5.92,3.35-12.43,5.33-21.5,5.33-17.56,0-29.98-7.69-29.98-30.58Zm61.58-1.18v-.39c0-22.49,17.75-33.54,43.2-33.54,11.64,0,19.92,1.78,28.01,4.34v-2.56c0-14.79-9.07-22.69-25.84-22.69-11.64,0-20.32,2.56-29.79,6.51l-6.51-18.74c11.64-5.13,22.88-8.48,39.45-8.48,15.58,0,27.22,4.14,34.52,11.64,7.69,7.5,11.24,18.54,11.24,32.15v61.74h-23.28v-13.02c-7.1,8.48-17.95,15.19-33.93,15.19-19.53,0-37.09-11.24-37.09-32.15Zm71.61-7.5v-7.1c-6.12-2.37-14.2-4.14-23.67-4.14-15.39,0-24.46,6.51-24.46,17.36v.39c0,10.06,8.88,15.78,20.32,15.78,15.78,0,27.81-9.07,27.81-22.29Zm45.07-106.52h24.07v144h-24.07V13.45Zm44.86,75.36v-.39c0-39.26,29.39-71.41,71.02-71.41,25.64,0,41.03,8.88,54.25,21.5l-15.58,17.95c-11.24-10.26-22.88-16.96-38.86-16.96-26.04,0-45.37,21.5-45.37,48.53v.39c0,27.03,19.13,48.92,45.57,48.92,16.96,0,27.81-6.71,39.65-17.75l15.58,15.78c-14.4,14.99-30.18,24.46-56.02,24.46-40.44,0-70.23-31.37-70.23-71.02ZM668.26,13.45h24.07v144h-24.07V13.45Zm41.25,92.52v-.39c0-29.79,23.67-54.45,55.63-54.45s55.43,24.26,55.43,54.05v.39c0,29.59-23.67,54.25-55.83,54.25s-55.23-24.26-55.23-53.85Zm87.19,0v-.39c0-18.35-13.22-33.54-31.96-33.54s-31.37,14.99-31.37,33.14v.39c0,18.15,13.22,33.34,31.76,33.34s31.56-14.99,31.56-32.94Zm39.63,13.61V53.29h23.87v59.18c0,16.18,8.09,25.25,22.29,25.25s23.47-9.47,23.47-25.64v-58.79h24.07v104.16h-24.07v-16.18c-6.71,9.86-16.37,18.35-32.55,18.35-23.47,0-37.09-15.78-37.09-40.04Zm111.12-14.01v-.39c0-34.52,23.47-54.05,48.33-54.05,17.16,0,28.01,8.48,35.51,18.35V13.45h23.87v144h-23.87v-17.36c-7.69,10.85-18.54,19.53-35.51,19.53-24.46,0-48.33-19.53-48.33-54.05Zm84.23,0v-.39c0-20.12-14.2-33.34-30.18-33.34s-29.98,12.82-29.98,33.34v.39c0,20.12,13.81,33.34,29.98,33.34s30.18-13.41,30.18-33.34Z"/>
      </g>
    </symbol>
  </defs>
  <g id="Background">
    <rect class="cls-5" x="-1" y="-1" width="2582" height="1022"/>
  </g>
  <g id="Artwork">
    <use width="1602.89" height="684.24" transform="translate(75.78 362.56)" xlink:href="#TotalCloud-Hero-Type"/>
  </g>
</svg>