<svg viewBox="0 0 672 257" xmlns="http://www.w3.org/2000/svg" xmlns:xlink="http://www.w3.org/1999/xlink"><linearGradient id="a" x1="-.008815%" x2="100%" y1="50.007824%" y2="50.007824%"><stop offset="0" stop-color="#ed2e26"/><stop offset=".6" stop-color="#d60500"/></linearGradient><g fill="none" fill-rule="nonzero" transform="translate(.05 .87)"><path d="m217.72 73.79c5.8 0 9.4 2.15 12.24 5.28l-4.35 4.7c-2.15-2.26-4.41-3.83-7.95-3.83-5.1 0-8.82 4.41-8.82 9.74v.12c0 5.45 3.77 9.86 9.16 9.86 3.31 0 5.74-1.57 7.95-3.83l4.23 4.18c-3.02 3.36-6.55 5.74-12.53 5.74-9.11 0-15.83-7.13-15.83-15.83h.01v-.12c0-8.7 6.73-16.01 15.89-16.01zm-94.65 0c9.74 0 14.67 7.66 14.67 16.47 0 .64-.06 1.28-.12 1.97h-22.5c.75 4.99 4.29 7.77 8.82 7.77 3.42 0 5.86-1.28 8.29-3.65l4.12 3.65c-2.9 3.48-6.9 5.74-12.53 5.74-8.87 0-15.72-6.44-15.72-15.89l.01.01v-.12c0-8.76 6.21-15.95 14.96-15.95zm-65.2 0c9.74 0 14.67 7.66 14.67 16.47 0 .64-.06 1.28-.12 1.97h-22.5c.75 4.99 4.29 7.77 8.82 7.77 3.42 0 5.86-1.28 8.29-3.65l4.12 3.65c-2.9 3.48-6.9 5.74-12.53 5.74-8.87 0-15.72-6.44-15.72-15.89l.01.01v-.12c0-8.76 6.21-15.95 14.96-15.95zm241.17-9.33v23.08c0 7.54 3.89 11.6 10.27 11.6s10.21-3.83 10.21-11.31v-23.37h7.13v23.03c0 12.12-6.84 18.21-17.46 18.21s-17.28-6.09-17.28-17.86v-23.38zm-141.4 9.52c9.05 0 13.46 4.76 13.46 12.93v18.15h-6.96-.01v-3.77c-2.09 2.49-5.28 4.41-9.92 4.41-5.8 0-10.9-3.31-10.9-9.45v-.12c0-6.79 5.28-10.03 12.41-10.03 3.71 0 6.09.52 8.47 1.28v-.58c0-4.23-2.67-6.55-7.54-6.55-3.42 0-5.97.75-8.76 1.91l-1.91-5.63c3.36-1.51 6.67-2.55 11.66-2.55zm-67.52-.08c3.83 0 8 1.33 11.25 3.48l-2.78 4.99c-2.96-1.8-6.09-2.9-8.64-2.9-2.73 0-4.29 1.28-4.29 3.07v.12c0 2.2 3.31 3.13 6.9 4.29 4.47 1.39 9.51 3.42 9.51 8.93v.12c0 6.44-4.99 9.63-11.37 9.63-4.205 0-8.8398444-1.467078-12.6037867-4.283805l-.3822133-.293195 3.126-4.753c3.31 2.49 6.9 3.77 10.03 3.77s4.76-1.28 4.76-3.31v-.12c0-2.38-3.25-3.19-6.84-4.29-4.52-1.28-9.57-3.13-9.57-8.99v-.12c0-5.8 4.81-9.34 10.9-9.34zm308.27-7.87v8.41h8.24v6.03h-8.24v15.02c0 2.73 1.39 3.83 3.77 3.83 1.57 0 2.96-.35 4.35-1.04v5.74c-1.74.99-3.71 1.57-6.32 1.57-5.16 0-8.82-2.26-8.82-8.99v-.01-16.12h-3.89v-6.03h3.89v-8.41zm-18.21 8.41v30.62h-7.02v-30.62zm-27.37-.64c6.9 0 10.9 4.64 10.9 11.77v19.49h-7.02v-17.4c0-4.76-2.38-7.48-6.55-7.48s-6.9 2.84-6.9 7.6v17.28h-7.02v-30.63h7.02v4.76c1.97-2.9 4.81-5.39 9.57-5.39zm-331.23-9.34c5.1 0 9.11 1.51 11.72 4.06 2.15 2.2 3.36 5.22 3.36 8.76v.12c0 6.67-4 10.67-9.69 12.29l10.96 15.37h-8.41l-9.98-14.15h-8.93v14.15h-7.13v-40.6zm222.65-1.74v16.47c1.97-2.9 4.81-5.39 9.57-5.39 6.9 0 10.9 4.64 10.9 11.77v19.49h-7.02v-17.4c0-4.76-2.38-7.48-6.55-7.48s-6.9 2.84-6.9 7.6v17.28h-7.02v-42.34zm-46.33 11.13v7.42h-.41c-6.15 0-10.44 4-10.44 12.12v11.66h-7.02v-30.62h7.02v6.9c1.91-4.58 5.45-7.71 10.85-7.48zm-40.62 17.17c-4.41 0-7.02 1.8-7.02 4.76v.12c0 2.9 2.61 4.52 5.92 4.52 4.64 0 8.12-2.61 8.12-6.44v-1.74c-1.8-.7-4.29-1.22-7.02-1.22zm-34.26-11.48c-4.29 0-7.31 3.31-7.95 8.06h15.72c-.46-4.52-3.13-8.06-7.77-8.06zm-65.2 0c-4.29 0-7.31 3.31-7.95 8.06h15.72c-.46-4.52-3.13-8.06-7.77-8.06zm-36.83-8.6h-10.38v13.63h10.44v.01c5.1 0 8.35-2.67 8.35-6.79v-.12c0-4.35-3.13-6.73-8.41-6.73zm359.42-7.87v6.67h-7.54v-6.67zm-238.56-50.16 7.74 20.53 7.84-20.53h6.9s-.018368.045936-.053846.1346528l-.065891.1647664c-.039205.0980316-.08768.21924-.144895.3622941l-.125925.3148414c-.640559 1.6015076-2.011604 5.028716-3.681555 9.1993916l-.920755 2.2992505c-.881471 2.2008448-1.818402 4.5392424-2.756847 6.8799136l-.602964 1.5036993c-2.609144 6.5058513-5.140322 12.8043903-6.427322 15.9711903-1.41 3.46-5 3.69-8.29 3.69l4.99-11.87-11.29-28.65zm-118.95-12.91c12.63 0 22.79 10.28 22.91 22.91.09 9.92-6.71 19.09-15.99 21.69-1.78.5-2.67.54-2.67.54s3.19 1.19 10.13 2.39c-.81 1.71-3.36 4.21-4.71 4.95-9.42-1.57-17.59-4.95-23.28-9.86-6.08-5.24-9.29-12.05-9.29-19.7 0-12.63 10.28-22.91 22.91-22.91zm298.52 13.79c9.74 0 14.67 7.66 14.67 16.47 0 .64-.06 1.28-.12 1.97h-22.5c.75 4.99 4.29 7.77 8.82 7.77 3.42 0 5.86-1.28 8.29-3.65l4.12 3.65c-2.9 3.48-6.9 5.74-12.53 5.74-8.87 0-15.72-6.44-15.72-15.89l.01.01v-.12c0-8.76 6.21-15.95 14.96-15.95zm34.58.19c9.05 0 13.46 4.76 13.46 12.93v18.15h-6.96-.01v-3.77c-2.09 2.49-5.28 4.41-9.92 4.41-5.8 0-10.9-3.31-10.9-9.45v-.12c0-6.79 5.28-10.03 12.41-10.03 3.71 0 6.09.52 8.47 1.28v-.58c0-4.23-2.67-6.55-7.54-6.55-3.42 0-5.97.75-8.76 1.91l-1.91-5.63c3.36-1.51 6.67-2.55 11.66-2.55zm30.56-7.95v8.41h8.24v6.03h-8.24v15.02c0 2.73 1.39 3.83 3.77 3.83 1.57 0 2.96-.35 4.35-1.04v5.74c-1.74.99-3.71 1.57-6.32 1.57-5.16 0-8.82-2.26-8.82-8.99v-16.13h-3.89v-6.03h3.89v-8.41zm-145.42-1.57v6.61h-12.88v33.99h-7.19v-33.99h-12.87v-6.61zm13.99-1.74v16.47c1.97-2.9 4.81-5.39 9.57-5.39 6.9 0 10.9 4.64 10.9 11.77v19.49h-7.02v-17.4c0-4.76-2.38-7.48-6.55-7.48s-6.9 2.84-6.9 7.6v17.28h-7.02v-42.34zm47.39 11.13v7.42h-.41c-6.15 0-10.44 4-10.44 12.12v11.66h-7.02v-30.62h7.02v6.9c1.91-4.58 5.45-7.71 10.85-7.48zm-125.752759-1.512112.262759.002112c3.45.07 6.53 1.76 8.34 4.76-.189677.1445161-1.007534.83359-1.847496 1.5458884l-.359571.3051727c-.893474.7588869-1.712933 1.4589389-1.712933 1.4589389-.77-1.04-2.16-2.33-4.03-2.39-1.75-.06-3.43 1.16-3.46 2.44-.04 1.93 2.37 3.17 5.7 4.61h.02c6.23 3 7.41 6.34 7.35 9.03-.13 5.59-4.76 9.87-10.56 9.74-4.61-.1-9.21-3.36-11.65-8.96 1.17-.38 5-1.63 7.49.98 1.28 1.35 2.63 2.3 4.28 2.2 2.24-.13 3.96-1.47 4.01-3.54.02-1.32-.55-1.96-1.78-2.82l-5.31-2.99c-3.23-1.83-5.69-3.57-5.6-7.77.11-4.85 4.2-8.71 9.12-8.6zm-118.587241.572112v16.2c0 5.77 2.4 8.57 7.34 8.57 4.87-.05 7.55-2.92 7.55-8.09v-16.68h6.4v26.53c0 3.9710204-5.5938026 4.2251062-6.0504395 4.2392323l-.0295605.0007677v-4.2c-1.31 1.84-4.01 4.22-9.25 4.22h-.18c-4.39-.02-7.66-1.49-9.73-4.37-2.02-2.82-2.45-6.42-2.45-8.94v-17.48zm41.89-.86c5.13 0 8.61 2.41 10.39 4.9v-4.05h6.4v26.31c0 4.36-6.4 4.46-6.4 4.46v-4.86c-2.21 3.08-5.84 4.88-10.39 4.88s-8.45-1.66-11.28-4.79c-2.62-2.9-4.06-6.81-4.06-11.03 0-9.02 6.59-15.82 15.34-15.82zm30.06-11.83v39c0 4.34-6.4 4.46-6.4 4.46v-43.46zm225.51 30.8c-4.41 0-7.02 1.8-7.02 4.76v.12c0 2.9 2.61 4.52 5.92 4.52 4.64 0 8.12-2.61 8.12-6.44v-1.74c-1.8-.7-4.29-1.22-7.02-1.22zm-332.73-24.41c-8.99 0-16.31 7.32-16.31 16.31s7.32 16.31 16.31 16.31 16.31-7.32 16.31-16.31-7.32-16.31-16.31-16.31zm77.87 11.47c-5.5 0-9.64 4.23-9.64 9.85v.05c.08 7.11 5.87 9.69 9.74 9.69l.01.01c3.92 0 7.15-2.07 8.66-5.53.59-1.23.93-2.67.98-4.18.05-1.49-.23-2.92-.82-4.14-1.49-3.61-4.83-5.75-8.93-5.75zm220.59 1.46c-4.29 0-7.31 3.31-7.95 8.06h15.72c-.46-4.52-3.13-8.06-7.77-8.06z" fill="#fff" transform="translate(265.29 76.25)"/><path d="m187.71 28.57c-20.52-17.89-48.29-28.57-74.28-28.57s-53.76 10.68-74.28 28.57c-14 12.2-30.1 32.39-36.42 63.49h17.01c5.87-24.63 18.82-40.75 30.16-50.63 17.61-15.35 41.36-24.52 63.53-24.52s45.92 9.17 63.53 24.52c15.22 13.27 33.36 37.74 33.36 78.98 0 27.62-14.44 54.69-42.93 80.44-22.01 19.9-46.3 33.06-53.96 36.97-7.67-3.92-31.96-17.08-53.97-36.97-26.88-24.3-41.25-49.77-42.79-75.77h33.47c-.17-1.68-.28-3.37-.28-5.06 0-27.14 11.89-43.2 21.87-51.9 11.57-10.08 27.15-16.11 41.69-16.11s30.12 6.02 41.69 16.11c8.48 7.4 18.35 20.12 21.11 40.46h-17.91c-2.61-12.43-9.08-20.56-14.73-25.48-8.33-7.26-19.6-11.59-30.17-11.59s-21.84 4.33-30.16 11.59c-7.27 6.33-15.93 17.93-15.93 37.24 0 13.31 6.57 25.99 19.52 37.7 9.25 8.36 19.16 13.78 22.99 15.72l3.58 1.81 3.58-1.81c2.24-1.14 6.81-3.59 12.14-7.23l1.31-.89-1.43-.67c-4.21-1.98-10.26-4.91-15.16-7.62l-.68-.39c-4.06-2.34-10.07-6.18-15.66-11.23-9.36-8.46-14.1-17-14.1-25.4 0-13.05 5.59-20.66 10.28-24.75 5.5-4.79 12.87-7.66 19.72-7.66s14.22 2.86 19.72 7.66c4.69 4.09 10.28 11.7 10.28 24.75 0 8.4-4.74 16.95-14.1 25.4-1.42 1.29-2.98 2.59-4.64 3.88l-1.18.91 16.41 7.57.43-.39c11.19-10.22 17.52-21.18 18.89-32.64h17.48c-1.62 16.33-11.05 32.41-28.14 47.87-13.78 12.46-28.83 20.95-35.14 24.26-6.31-3.3-21.36-11.8-35.14-24.26-11.31-10.22-19.25-20.72-23.81-31.38h-17.27c5.5 16.89 17.43 33.22 35.3 48.09 17.87 14.88 35.52 23.29 37.49 24.21l.7.31.66.19c.26.07.52.13.85.18l.21.03c.34.04.69.07 1.04.07s.68-.03 1.13-.09l.17-.03c.26-.04.52-.1.85-.19l.2-.06c.33-.1.65-.22.96-.37.77-.35 19.06-8.82 37.62-24.27 25.38-21.13 38.8-45.21 38.8-69.64 0-33.43-14.98-53.51-27.54-64.46-14.41-12.56-33.92-20.06-52.19-20.06s-37.78 7.5-52.19 20.06c-11.06 9.64-23.98 26.35-26.92 53.02h-33.87c-.3 3.8-.47 7.74-.47 11.83 0 34.72 19.24 69.08 55.63 99.38 25.9 21.56 51.41 33.72 54.23 35.04l.43.19c.25.1.5.19.77.28l.23.06c.27.07.54.14.86.19l.22.03c.35.05.71.08 1.06.08s.7-.03 1.09-.08l.24-.04c.27-.05.54-.1.88-.2l.19-.05c.33-.1.66-.22 1-.38 1.12-.51 27.62-12.81 54.42-35.13 36.4-30.3 55.63-64.66 55.63-99.38 0-47.68-21.3-76.26-39.17-91.83z" fill="url(#a)"/></g></svg>