<svg viewBox="0 0 228 160" xmlns="http://www.w3.org/2000/svg"><g fill="none"><path class="base" d="m0 148.35c.57 5.72 5.4 10.19 11.27 10.19 6.25 0 11.32-5.07 11.32-11.32 0-2.48-.81-4.77-2.16-6.63l34.13-30.34c2.02 1.86 4.7 3 7.66 3s5.64-1.14 7.66-3l34.13 30.34c-1.35 1.87-2.16 4.15-2.16 6.63 0 6.25 5.07 11.32 11.32 11.32s11.32-5.07 11.32-11.32c0-2.48-.81-4.77-2.16-6.63l34.13-30.34c2.02 1.86 4.7 3 7.66 3s5.64-1.14 7.66-3l34.13 30.34c-1.35 1.87-2.16 4.15-2.16 6.63 0 6.25 5.07 11.32 11.32 11.32 5.87 0 10.7-4.47 11.27-10.19l.03-2.26c-.57-5.72-5.4-10.19-11.27-10.19-1.61 0-3.15.34-4.54.95l-19.01-33.79h12.28c.57 5.72 5.4 10.19 11.27 10.19s10.7-4.47 11.27-10.19v-2.26c-.57-5.72-5.4-10.19-11.27-10.19-2.96 0-5.64 1.14-7.66 3l-16.12-14.32 16.12-14.32c2.02 1.86 4.7 3 7.66 3 5.87 0 10.7-4.47 11.27-10.19v-2.26c-.57-5.72-5.4-10.19-11.27-10.19s-10.7 4.47-11.27 10.19h-12.28l19.01-33.79c1.39.61 2.92.95 4.54.95 5.87 0 10.7-4.47 11.27-10.19v-2.26c-.57-5.72-5.4-10.19-11.27-10.19-6.25 0-11.32 5.07-11.32 11.32 0 2.48.81 4.77 2.16 6.63l-34.13 30.34c-2.02-1.86-4.7-3-7.66-3s-5.64 1.14-7.66 3l-34.13-30.34c1.35-1.87 2.16-4.15 2.16-6.63 0-6.25-5.07-11.32-11.32-11.32s-11.32 5.07-11.32 11.32c0 2.48.81 4.77 2.16 6.63l-34.13 30.34c-2.02-1.86-4.7-3-7.66-3s-5.64 1.14-7.66 3l-34.16-30.37c1.35-1.87 2.16-4.15 2.16-6.63 0-6.26-5.07-11.33-11.32-11.33-5.87 0-10.7 4.47-11.27 10.19m0 92.86c.57 5.72 5.4 10.19 11.27 10.19s10.7-4.47 11.27-10.19h12.28l-19.01 33.79c-1.39-.61-2.92-.95-4.54-.95-5.87 0-10.7 4.47-11.27 10.19m0-88.33c.57 5.72 5.4 10.19 11.27 10.19 2.96 0 5.64-1.14 7.66-3l16.12 14.32-16.12 14.32c-2.02-1.86-4.7-3-7.66-3-5.87.01-10.7 4.48-11.27 10.2m0-88.33c.57 5.72 5.4 10.19 11.27 10.19 1.61 0 3.15-.34 4.54-.95l19.01 33.79h-12.28c-.57-5.72-5.4-10.19-11.27-10.19s-10.7 4.48-11.27 10.2m215.1 38.5c4.37 0 7.93 3.56 7.93 7.93s-3.56 7.93-7.93 7.93-7.93-3.56-7.93-7.93 3.56-7.93 7.93-7.93zm0-45.3c4.37 0 7.93 3.56 7.93 7.93s-3.56 7.93-7.93 7.93-7.93-3.56-7.93-7.93 3.56-7.93 7.93-7.93zm-203.83 15.86c-4.37 0-7.93-3.56-7.93-7.93s3.56-7.93 7.93-7.93 7.93 3.56 7.93 7.93-3.56 7.93-7.93 7.93zm0 45.3c-4.37 0-7.93-3.56-7.93-7.93s3.56-7.93 7.93-7.93 7.93 3.56 7.93 7.93-3.56 7.93-7.93 7.93zm166.91-30.58 3.25-5.77 6.49 5.77-6.49 5.77zm1.51 7.31-7.89 7.02c-.36-.34-.75-.65-1.15-.94l6.23-11.08zm1.14-16.64-7.52-6.69c1.14-1.58 1.9-3.46 2.1-5.5h12.28zm-1.14 2.02-2.81 5-6.23-11.08c.41-.29.79-.6 1.15-.94zm-4.11 7.31-6.91 12.28c-1.39-.61-2.92-.95-4.54-.95s-3.15.34-4.54.95l-6.91-12.28 6.9-12.28c1.39.61 2.92.95 4.54.95s3.15-.34 4.54-.95l6.9 12.28zm-99.32 0 3.25-5.77 6.49 5.77-6.49 5.77zm1.51 7.31-7.89 7.02c-.36-.34-.75-.65-1.15-.94l6.23-11.08zm9.93-5.79 16.31 14.5c-1.14 1.58-1.9 3.46-2.1 5.5h-13.55l-7.72-13.73zm17.82-15.84c2.02 1.86 4.7 3 7.66 3s5.64-1.14 7.66-3l16.12 14.32-16.12 14.32c-2.02-1.86-4.7-3-7.66-3s-5.64 1.14-7.66 3l-16.12-14.32zm-.27-8.32c0-4.37 3.56-7.93 7.93-7.93s7.93 3.56 7.93 7.93-3.56 7.93-7.93 7.93-7.93-3.56-7.93-7.93zm15.85 45.3c0 4.37-3.56 7.93-7.93 7.93s-7.93-3.56-7.93-7.93 3.56-7.93 7.93-7.93 7.93 3.56 7.93 7.93zm-19.19 1.13c.57 5.72 5.4 10.19 11.27 10.19s10.7-4.47 11.27-10.19h12.28l-19.01 33.79c-1.39-.61-2.92-.95-4.54-.95s-3.15.34-4.54.95l-19.01-33.79zm22.53-2.26c-.2-2.04-.96-3.92-2.1-5.5l16.31-14.5 7.06 6.27-7.72 13.73zm15.92-21.52 6.49-5.77 3.25 5.77-3.25 5.77zm11.04 2.31 6.23 11.08c-.41.29-.79.6-1.15.94l-7.89-7.02zm0-4.62-2.81-5 7.89-7.02c.36.34.75.65 1.15.94zm-3.95-7.02-6.86-12.19h12.28c.2 2.04.96 3.92 2.1 5.5zm-1.73 1.54-7.06 6.27-16.31-14.5c1.14-1.58 1.9-3.46 2.1-5.5h13.55zm-21.27-15.99c-.57-5.72-5.4-10.19-11.27-10.19s-10.7 4.47-11.27 10.19h-12.28l19.01-33.79c1.39.61 2.92.95 4.54.95s3.15-.34 4.54-.95l19.01 33.79zm-22.53 2.26c.2 2.04.96 3.92 2.1 5.5l-16.31 14.5-7.06-6.27 7.72-13.73zm-23 12.19-7.52-6.69c1.14-1.58 1.9-3.46 2.1-5.5h12.28zm-1.14 2.02-2.81 5-6.23-11.08c.41-.29.79-.6 1.15-.94zm-4.11 7.31-6.91 12.28c-1.39-.61-2.92-.95-4.54-.95s-3.15.34-4.54.95l-6.91-12.28 6.9-12.28c1.39.61 2.92.95 4.54.95s3.15-.34 4.54-.95l6.9 12.28zm-17.95 13.39c-.41.29-.79.6-1.15.94l-7.89-7.02 2.81-5zm-6.23-15.7-2.81-5 7.89-7.02c.36.34.75.65 1.15.94zm-3.95-7.02-6.86-12.19h12.28c.2 2.04.96 3.92 2.1 5.5zm2.65 9.33-3.25 5.77-6.49-5.77 6.49-5.77zm-2.65 9.33 7.52 6.69c-1.14 1.58-1.9 3.46-2.1 5.5h-12.28l6.85-12.19zm16.69 21.25c-4.37 0-7.93-3.56-7.93-7.93s3.56-7.93 7.93-7.93 7.93 3.56 7.93 7.93-3.56 7.93-7.93 7.93zm16.69-21.25 6.85 12.19h-12.28c-.2-2.04-.96-3.92-2.1-5.5l7.52-6.69zm-7.52 19.95c1.14-1.58 1.9-3.46 2.1-5.5h13.55l19.63 34.91c-.41.29-.79.6-1.15.94l-34.13-30.34zm41.79 46.59c-4.37 0-7.93-3.56-7.93-7.93s3.56-7.93 7.93-7.93 7.93 3.56 7.93 7.93-3.56 7.93-7.93 7.93zm7.66-16.25c-.36-.34-.75-.65-1.15-.94l19.63-34.91h13.55c.2 2.04.96 3.92 2.1 5.5l-34.13 30.34zm32.03-38.11h-12.28l6.85-12.19 7.52 6.69c-1.14 1.58-1.9 3.46-2.1 5.5zm11.27 9.06c-4.37 0-7.93-3.56-7.93-7.93s3.56-7.93 7.93-7.93 7.93 3.56 7.93 7.93-3.56 7.93-7.93 7.93zm16.69-21.25 6.85 12.19h-12.28c-.2-2.04-.96-3.92-2.1-5.5l7.52-6.69zm34.27 50.69c4.37 0 7.93 3.56 7.93 7.93s-3.56 7.93-7.93 7.93-7.93-3.56-7.93-7.93 3.56-7.93 7.93-7.93zm-6.51-1.33c-.41.29-.79.6-1.15.94l-34.13-30.34c1.14-1.58 1.9-3.46 2.1-5.5h13.55l19.63 34.91zm-2.66-42.67c-1.14 1.58-1.9 3.46-2.1 5.5h-13.55l-7.72-13.73 7.06-6.27zm-2.1-37.53c.2 2.04.96 3.92 2.1 5.5l-16.31 14.5-7.06-6.27 7.72-13.73zm11.27-54.36c4.37 0 7.93 3.56 7.93 7.93s-3.56 7.93-7.93 7.93-7.93-3.56-7.93-7.93 3.56-7.93 7.93-7.93zm-7.66 16.25c.36.34.75.65 1.15.94l-19.63 34.9h-13.55c-.2-2.04-.96-3.92-2.1-5.5zm-43.3 29.05c4.37 0 7.93 3.56 7.93 7.93s-3.56 7.93-7.93 7.93-7.93-3.56-7.93-7.93 3.56-7.93 7.93-7.93zm-9.17 1.29c-1.14 1.58-1.9 3.46-2.1 5.5h-13.55l-19.63-34.9c.41-.29.79-.6 1.15-.94zm-41.8-46.59c4.37 0 7.93 3.56 7.93 7.93s-3.56 7.93-7.93 7.93-7.93-3.56-7.93-7.93 3.56-7.93 7.93-7.93zm-7.66 16.25c.36.34.75.65 1.15.94l-19.63 34.9h-13.55c-.2-2.04-.96-3.92-2.1-5.5zm-43.3 29.05c4.37 0 7.93 3.56 7.93 7.93s-3.56 7.93-7.93 7.93-7.93-3.56-7.93-7.93 3.56-7.93 7.93-7.93zm-50.95-29.45c-4.37 0-7.93-3.56-7.93-7.93s3.56-7.93 7.93-7.93 7.93 3.56 7.93 7.93-3.56 7.93-7.93 7.93zm6.51 1.33c.41-.29.79-.6 1.15-.94l34.13 30.34c-1.14 1.58-1.9 3.46-2.1 5.5h-13.55l-19.64-34.9zm2.66 42.67c1.14-1.58 1.9-3.46 2.1-5.5h13.55l7.72 13.73-7.06 6.27zm2.1 37.53c-.2-2.04-.96-3.92-2.1-5.5l16.31-14.5 7.06 6.27-7.72 13.73zm14.87 2.26h13.55c.2 2.04.96 3.92 2.1 5.5l-34.13 30.34c-.36-.34-.75-.65-1.15-.94l19.63-34.91zm-26.14 36.24c4.37 0 7.93 3.56 7.93 7.93s-3.56 7.93-7.93 7.93-7.93-3.56-7.93-7.93 3.56-7.93 7.93-7.93z" fill="#0ff"/><g fill="#f00"><path class="dot1" d="m215.18 135c-6.726828 0-12.18 5.453172-12.18 12.18s5.453172 12.18 12.18 12.18 12.18-5.453172 12.18-12.18-5.453172-12.18-12.18-12.18zm0 6c3.41312 0 6.18 2.76688 6.18 6.18s-2.76688 6.18-6.18 6.18-6.18-2.76688-6.18-6.18 2.76688-6.18 6.18-6.18z"/><path class="dot2" d="m164.18 45c-6.726828 0-12.18 5.4531717-12.18 12.18s5.453172 12.18 12.18 12.18 12.18-5.4531717 12.18-12.18-5.453172-12.18-12.18-12.18zm0 6c3.41312 0 6.18 2.7668802 6.18 6.18s-2.76688 6.18-6.18 6.18-6.18-2.7668802-6.18-6.18 2.76688-6.18 6.18-6.18z"/><path class="dot3" d="m62.18 89c-6.7268283 0-12.18 5.4531717-12.18 12.18 0 6.726828 5.4531717 12.18 12.18 12.18s12.18-5.453172 12.18-12.18c0-6.7268283-5.4531717-12.18-12.18-12.18zm0 6c3.4131198 0 6.18 2.7668802 6.18 6.18 0 3.41312-2.7668802 6.18-6.18 6.18s-6.18-2.76688-6.18-6.18c0-3.4131198 2.7668802-6.18 6.18-6.18z"/></g></g></svg>