<svg xmlns="http://www.w3.org/2000/svg" width="123.1" height="71.4" viewBox="0 0 123.1 71.4"><path opacity=".6" fill="#4C8ABD" d="M123.1 52.3c-.2-4.7-.4-5.5-.8-6.3-.3-.7-.7-1.3-1.3-1.9-.5-.6-1.2-1.1-2.1-1.4-.4-.1-.9-.3-1.6-.6-.7-.3-1.4-.6-2.2-.9-.8-.3-1.7-.7-2.6-1.1l-2.7-1.2c-.9-.4-1.7-.8-2.6-1.1-.8-.4-1.6-.7-2.2-1v-3.6c0-.2 0-.4.2-.8.1-.4.2-.7.3-1.1.1-.4.3-.9.5-1.4.6-1.1 1.1-2.3 1.4-3.7.3-1.4.5-2.8.5-4.4 0-2.1-.2-3.8-.7-5.3-.4-1.4-1-2.6-1.8-3.5-.8-.9-1.7-1.5-2.7-1.9-1-.4-2.1-.6-3.2-.6-1.2 0-2.2.2-3.2.6-1 .4-1.9 1.1-2.6 2-.8.9-1.3 2.1-1.8 3.5-.4 1.4-.7 3.2-.7 5.2 0 1.6.2 3 .5 4.4.3 1.4.8 2.6 1.4 3.7.2.5.3.9.4 1.3.1.3.2.7.3 1 .1.3.2.6.2.7v3.5c-.6.3-1.4.6-2.2 1-.8.4-1.7.7-2.7 1.2-.9.4-1.9.8-2.8 1.2-.9.4-1.8.8-2.7 1.1-.9.4-1.6.7-2.3.9-.7.3-1.2.5-1.7.6l-.6.3c1 .4 2.1.9 3.3 1.5 1.4.6 2.9 1.3 4.4 1.9 1.5.7 3.1 1.3 4.6 2 1.5.7 3 1.3 4.4 1.9 1.4.6 2.7 1.1 3.8 1.5 1.1.5 2 .8 2.7 1 1.5.5 2.6 1.3 3.6 2.4.9 1.1 1.6 2.1 2.1 3.3.1.2.1.4.2.6h14.7v-6.5zM17.1 55.3c.9-1.1 2.1-1.9 3.5-2.4.7-.2 1.7-.6 2.9-1.1 1.2-.5 2.5-1 4-1.6 1.5-.6 3-1.3 4.6-2l4.8-2.1c1.6-.7 3.1-1.4 4.6-2 .9-.4 1.7-.8 2.5-1.1l-.6-.3c-.4-.1-.9-.3-1.6-.6-.7-.3-1.4-.6-2.2-.9-.8-.3-1.7-.7-2.6-1.1l-2.7-1.2c-.9-.4-1.7-.8-2.6-1.1-.8-.4-1.6-.7-2.2-1v-3.6c0-.2 0-.4.2-.8.1-.4.2-.7.3-1.1.1-.4.3-.9.5-1.4.6-1.1 1.1-2.3 1.4-3.7.3-1.4.5-2.8.5-4.4 0-2.1-.2-3.8-.7-5.3-.4-1.4-1-2.6-1.8-3.5-.8-.9-1.6-1.5-2.7-1.9-1-.4-2.1-.6-3.2-.6-1.2 0-2.2.2-3.3.6-1 .4-1.9 1.1-2.6 2-.8.9-1.4 2.1-1.8 3.5-.4 1.4-.7 3.2-.7 5.2 0 1.6.2 3 .5 4.4.3 1.4.8 2.6 1.4 3.7.2.5.3.9.4 1.3.1.3.2.7.3 1 .1.3.2.6.2.7v3.5c-.6.3-1.4.6-2.2 1-.8.4-1.7.7-2.7 1.2-.9.4-1.9.8-2.8 1.2-.9.4-1.8.8-2.7 1.1-.9.4-1.6.7-2.3.9-.7.3-1.3.5-1.7.6-.8.3-1.5.8-2 1.4-.5.6-.9 1.2-1.2 1.9-.4.7-.6 1.5-.8 2.4v10.7h14.8c.1-.2.1-.4.2-.6.5-.8 1.2-1.9 2.1-2.9z"/><path fill="#01569D" d="M102.3 71.3v-6.6c-.3-1.4-.7-2.8-1.4-4.1-.5-1.1-1.2-2.2-2.1-3.3-.9-1.1-2.1-1.9-3.6-2.4-.7-.2-1.6-.6-2.7-1-1.1-.5-2.4-1-3.8-1.5-1.4-.6-2.9-1.2-4.4-1.9-1.5-.7-3.1-1.3-4.6-2-1.5-.7-3-1.3-4.4-1.9-1.4-.6-2.7-1.2-3.8-1.7v-6.1c0-.3.1-.7.3-1.3.2-.6.4-1.2.6-1.9.2-.8.5-1.6.8-2.4 1-1.9 1.8-4 2.4-6.4.6-2.4.9-4.8.9-7.5 0-3.6-.4-6.6-1.1-9-.7-2.5-1.8-4.4-3.1-6C71 2.8 69.5 1.7 67.7 1c-1.7-.7-3.6-1-5.5-1-2 0-3.8.3-5.6 1-1.7.7-3.2 1.8-4.5 3.3-1.3 1.5-2.3 3.5-3.1 6-.7 2.4-1.1 5.4-1.1 8.9 0 2.7.3 5.2.9 7.6.6 2.4 1.4 4.5 2.4 6.4.3.8.5 1.6.7 2.2.2.6.3 1.2.5 1.8.2.6.3 1 .3 1.3v6c-1.1.5-2.3 1-3.8 1.7-1.4.6-2.9 1.3-4.6 2l-4.8 2.1c-1.6.7-3.2 1.4-4.6 2-1.5.6-2.8 1.1-4 1.6-1.2.5-2.1.8-2.9 1.1-1.4.5-2.6 1.3-3.5 2.4-.9 1.1-1.6 2.1-2.1 3.3-.6 1.3-1.1 2.7-1.4 4.1v6.6h37.3l2.1-18.2-1.9-2 1.6-3.2h4.8l1.6 3.2-1.8 2.1 3.2 18.1"/></svg>