<svg width="203" height="41" viewBox="0 0 203 41" xmlns="http://www.w3.org/2000/svg"><defs><linearGradient x1="50%" y1="0%" x2="50%" y2="100%" id="a"><stop stop-color="#043471" offset="0%"/><stop stop-color="#043471" stop-opacity="0" offset="100%"/></linearGradient></defs><g fill="none" fill-rule="evenodd"><path fill="url(#a)" d="M45.586 10.266L38.47.064l-2.01 13.214L28.687.072l-6.569 21.345-3.013-3.41h-6.583L7.628.072 1.06 23.76 14.392 38.31h80.871L77.987 18.177h-7.56l-5.172-3.757 5.171-5.177-5.17-3.621-6.502 7.268L56.458.064z" transform="translate(108 3)"/><path fill="#2E8BE0" d="M108.06 3.072h6.568v17.935h11.478v5.753H108.06z"/><path d="M108.51 3.522V26.31h17.146v-4.853h-11.478V3.522h-5.669z" stroke="#B5D0E5" stroke-width=".9"/><path fill="#2E8BE0" d="M129.12 26.76h6.568V3.072h-6.569z"/><path d="M129.57 26.31h5.668V3.522h-5.669V26.31z" stroke="#B5D0E5" stroke-width=".9"/><path fill="#2E8BE0" d="M165.754 3.072h19.063v5.55h-12.562v3.62h12.562v5.178h-12.562v3.757h12.731v5.583h-19.232z"/><path stroke="#B5D0E5" stroke-width=".9" stroke-linecap="round" stroke-linejoin="round" d="M165.754 3.072h19.063v5.55h-12.562v3.62h12.562v5.178h-12.562v3.757h12.731v5.583h-19.232z"/><path fill="#2E8BE0" d="M138.154 3.064h7.315l5.384 14.996 5.423-14.996h7.182l-9.62 23.865h-6.104z"/><path d="M138.82 3.514l9.219 22.965h5.495l9.257-22.965h-6.2l-5.74 15.873-5.698-15.873h-6.334z" stroke="#B5D0E5" stroke-width=".9"/><g fill-rule="nonzero"><path fill="#F4F6F8" d="M26.395 3.487h6.803l5.536 8.997 5.537-8.997h6.803v23.23h-6.398V13.372l-5.942 9.088h-.13l-5.902-9.062v13.306h-6.307zM53.516 3.487h8.997c8.265 0 13.07 4.78 13.07 11.478v.065c0 6.7-4.883 11.674-13.201 11.674h-8.853V3.487h-.013zm6.437 5.68v11.844h2.625c3.878 0 6.437-2.129 6.437-5.876v-.065c0-3.722-2.56-5.902-6.437-5.902h-2.625zM77.242 3.487h10.981c3.552 0 6.007.928 7.56 2.495 1.358 1.357 2.064 3.12 2.064 5.405v.066c0 3.577-1.894 5.94-4.78 7.168l5.537 8.096H91.2l-4.674-7.038h-2.86v7.038h-6.437l.013-23.23zm10.72 11.152c2.154 0 3.447-1.058 3.447-2.755v-.066c0-1.854-1.358-2.781-3.486-2.781h-4.244v5.602h4.283zM.45 3.487h7.168l5.275 14.703 5.315-14.703h7.038l-9.428 23.4h-5.98z"/><path fill="#5EBEEF" d="M7.618 3.487L9.081.707H3.91L.45 3.486z"/><path fill="#176EA3" d="M12.893 18.19v-7.064L9.081.706 7.618 3.487z"/><path fill="#1E7BC1" d="M18.208 3.487L12.893 18.19v-7.064L16.706.706z"/><path fill="#5EBEEF" d="M33.198 3.487l1.554-2.78h-4.91l-3.447 2.78z"/><path fill="#43A5ED" d="M44.284 3.487L42.782.707h4.858l3.447 2.78z"/><path fill="#176EA3" d="M34.752.706l3.996 6.79v4.988l-5.55-8.997z"/><path fill="#1E7BC1" d="M38.748 7.496l4.034-6.79 1.502 2.781-5.536 8.997z"/><path fill="#125B7F" d="M32.702 26.717l2.05-4.818v-5.354l-2.05-3.134z"/><path fill="#1E7BC1" d="M44.663 26.717L42.626 21.9v-5.354l2.05-3.173z"/><path d="M75.387 12.72S74.643.705 63.44.705h-6.83l-3.094 2.781h9.27c7.143.105 11.648 3.813 12.601 9.232zM77.242 3.487h10.981c3.552 0 6.007.928 7.56 2.495a6.87 6.87 0 011.189 1.58S94.452.705 87.922.705H80.22l-2.977 2.781z" fill="#43A5ED"/><path d="M59.953 21.01l1.567-2.454V9.168h-1.567V21.01zM83.679 14.665l1.567-2.455V9.037h-1.567z" fill="#176EA3"/><path d="M83.679 14.639h4.283c2.154 0 3.447-1.058 3.447-2.755v-.066c0-.953-.352-1.658-.98-2.115 1.267 2.56-1.997 2.507-1.997 2.507h-3.186l-1.567 2.429z" fill="#1E7BC1"/><path fill="#176EA3" d="M83.679 26.717l1.567-2.455V19.68h-1.567z"/><path d="M67.148 10.643c1.032.784 1.084 3.082 1.084 3.082 0 4.857-4.257 4.831-4.257 4.831H61.52l-1.567 2.455h2.625c3.878 0 6.437-2.129 6.437-5.876v-.065c0-1.907-.679-3.421-1.867-4.427z" fill="#1E7BC1"/><path fill="#43A5ED" d="M18.208 3.487h7.025l-3.46-2.78h-5.067l1.502 2.78"/><path d="M95.588 2.023c0-1.097.881-2.009 2-2.009 1.118 0 2 .895 2 1.992v.017a2 2 0 01-4 0zm3.762 0A1.75 1.75 0 0097.588.25c-1 0-1.763.81-1.763 1.773v.016c0 .962.763 1.773 1.763 1.773 1-.017 1.762-.827 1.762-1.79zM96.808.959h.915c.44 0 .78.22.78.642 0 .337-.187.54-.475.607l.543.76h-.475l-.475-.692h-.423v.692h-.39V.959zm.881 1.013c.271 0 .407-.135.407-.338 0-.219-.152-.337-.407-.337h-.491v.658h.491v.017z" fill="#FFF"/></g></g></svg>