<svg xmlns="http://www.w3.org/2000/svg" xmlns:xlink="http://www.w3.org/1999/xlink" width="188" height="75"><defs><path id="a" d="M0 74.971h188V0H0z"/></defs><g fill="none" fill-rule="evenodd"><path fill="#262626" d="M126.164 45.157c0-2.918 1.603-4.167 3.718-4.167 1.892 0 3.078.96 3.078 3.173v9.073h8.017V42.079c0-4.873-3.335-6.861-7.76-6.861-3.846 0-6.218 1.538-6.988 2.66h-.065v-8.334h-8.016v23.692h8.016v-8.08zm32.83.866c0 3.013-2.982 3.685-5.676 3.685-1.988 0-2.98-.768-2.98-1.988 0-1.12.704-1.6 2.178-1.73 2.854-.257 5.13-.449 6.479-.737v.77zm8.014-3.977c0-5.225-3.238-7.052-11.413-7.052-4.233 0-7.15.32-9.106 1.217-1.988.931-2.98 2.404-3.462 4.81h8.015c.384-1.7 2.21-1.987 4.04-1.987 2.276 0 3.719.545 3.719 1.698 0 .962-.545 1.347-2.148 1.443l-6.765.32c-5.932.257-8.207 2.31-8.207 5.515 0 4.49 3.398 5.931 8.784 5.931 4.264 0 6.99-.769 8.786-2.437.03.643.127 1.22.286 1.731h8.208c-.381-.576-.737-1.377-.737-2.725v-8.464zm4.266 5.867c0 4.778 1.86 5.708 6.733 5.708 2.501 0 4.424-.193 5.835-.386v-4.68c-.769.032-1.507.064-2.147.064-1.732 0-2.405-.097-2.405-1.732V40.7h4.327v-5h-4.327v-5.643h-8.016v5.642h-3.72V40.7h3.72v7.214zm-158.868.546c-3.078 0-4.392-1.475-4.392-3.976 0-2.468 1.314-3.975 4.426-3.975 2.883 0 4.36 1.731 4.36 3.975 0 2.31-1.282 3.976-4.394 3.976m2.63-13.338c-3.27 0-5.58.803-6.957 2.47h-.065v-8.144H0V53.14h7.758v-1.859h.065c1.441 1.666 3.654 2.564 7.212 2.564 5.194 0 9.972-2.852 9.972-9.362 0-6.508-4.778-9.362-9.972-9.362"/><mask id="b" fill="#fff"><use xlink:href="#a"/></mask><path fill="#262626" mask="url(#b)" d="M26.138 53.14h8.015V29.447h-8.015zM52.81 45.926c0 3.014-2.98 3.688-5.674 3.688-1.986 0-2.983-.77-2.983-1.988 0-1.121.706-1.602 2.183-1.73 2.85-.258 5.128-.45 6.474-.74v.77zm.546 7.213h8.206c-.384-.575-.735-1.378-.735-2.725V41.95c0-5.224-3.238-7.053-11.413-7.053-4.235 0-7.153.32-9.107 1.218-1.988.93-2.983 2.405-3.463 4.81h8.014c.387-1.7 2.215-1.987 4.042-1.987 2.275 0 3.718.544 3.718 1.698 0 .961-.546 1.346-2.148 1.442l-6.765.322c-5.931.256-8.209 2.309-8.209 5.514 0 4.49 3.398 5.931 8.787 5.931 4.264 0 6.989-.768 8.785-2.437.03.643.128 1.218.288 1.731zm8.367-8.815c0 7.278 5.771 9.521 13.144 9.521 5.516 0 12.055-.833 12.891-8.111h-8.402c-.544 2.276-2.21 2.918-4.455 2.918-3.177 0-4.778-1.732-4.778-4.425 0-2.341 1.252-4.328 4.84-4.328 1.027 0 2.15.16 2.886.545.898.449 1.412 1.123 1.507 2.212h8.402c-.867-5.835-5.354-7.759-12.89-7.759-7.374 0-13.145 2.245-13.145 9.427M113.052 35.602h-10.645l-6.059 5.675v-11.83h-8.017V53.14h8.017v-3.847l2.501-2.052 4.167 5.899h10.838l-8.786-10.998zM185.546 31.768h-.604v-1.103h.834c.385 0 .667.128.667.564 0 .494-.372.539-.897.539m1.152-.54c0-.614-.364-.781-.922-.781h-1.09v2.833h.256v-1.293h.738l.85 1.293h.297l-.853-1.293c.444-.072.724-.264.724-.758"/><path fill="#262626" d="M185.608 33.998a2.132 2.132 0 0 1-2.133-2.135 2.133 2.133 0 1 1 4.268 0 2.133 2.133 0 0 1-2.135 2.135m0-4.524a2.39 2.39 0 1 0 0 4.78 2.39 2.39 0 1 0 0-4.78m-131.234-.952c-.182-1.356-1.265-2.262-1.265-2.262-1.176-.725 1.536-1.356 1.536-1.356-1.175-1.718-1.355-4.433-1.355-4.433-11.669-3.798-.542-5.61-.542-5.61 1.085-7.324 2.44-6.692 2.44-6.692.822-.123 3.004-.134 5.142-.11h.056c2.138-.024 4.321-.013 5.142.11 0 0 1.355-.632 2.44 6.693 0 0 11.128 1.81-.541 5.609 0 0-.181 2.715-1.356 4.433 0 0 2.712.63 1.535 1.356 0 0-1.082.906-1.264 2.262 0 0 8.19 1.41 9.471 3.799a19.757 19.757 0 0 0 4.407-12.466C80.22 8.89 71.33 0 60.366 0h-.016C49.386 0 40.496 8.89 40.496 19.855c0 4.723 1.652 9.059 4.407 12.466 1.281-2.388 9.471-3.8 9.471-3.8m14.545 43.48c0 1.65-1.32 2.97-2.97 2.97H55.86A2.958 2.958 0 0 1 52.89 72V61.959h1.132v11.88h13.767v-11.88h1.131V72zm20.013 0c0 1.65-1.32 2.97-2.97 2.97h-13.06v-1.132H87.8v-4.81H75.26c-1.65 0-2.97-1.32-2.97-2.97v-1.13c0-1.65 1.32-2.97 2.97-2.97h13.06v1.13H73.42v4.81h12.541c1.65 0 2.97 1.32 2.97 2.97V72zm17.726-1.792l-5.563-8.133-5.564 8.133h11.127zm4.644 4.762h-1.368l-2.498-3.63H94.753l-2.498 3.63h-1.368l8.345-12.164a2.258 2.258 0 0 1 1.863-.99c.777 0 1.46.4 1.862.99l8.345 12.164zm25.315 0h-16.03v-4.102c0-1.65 1.32-2.97 2.97-2.97h11.93v-4.81h-14.9v-1.131h13.06c1.65 0 2.97 1.32 2.97 2.97v1.132c0 1.65-1.32 2.97-2.97 2.97H121.72v4.809h14.898v1.132zm4.501-1.132h13.767v-10.75h-13.767v10.75zM156.017 72c0 1.65-1.321 2.97-2.971 2.97h-10.089a2.958 2.958 0 0 1-2.971-2.97v-7.072a2.96 2.96 0 0 1 2.971-2.971h10.089a2.96 2.96 0 0 1 2.971 2.97v7.073zm8.037 2.97V63.939c0-.637-.52-1.132-1.132-1.132-.306 0-.59.118-.778.307l-2.57 2.545-.801-.801 2.57-2.546c.4-.401.99-.636 1.579-.636a2.263 2.263 0 0 1 2.263 2.263V74.97h-1.131zm5.632-1.132h13.767v-4.81h-13.767v4.81zm0-5.94h13.767v-4.81h-13.767v4.81zM184.585 72c0 1.65-1.344 2.97-2.971 2.97h-10.089c-1.65 0-2.97-1.32-2.97-2.97v-1.132c0-.99.471-1.862 1.226-2.404a2.936 2.936 0 0 1-1.226-2.405v-1.131c0-1.65 1.32-2.971 2.97-2.971h10.089a2.974 2.974 0 0 1 2.971 2.97v1.132c0 .99-.495 1.863-1.226 2.405a3 3 0 0 1 1.226 2.404V72z" mask="url(#b)"/></g></svg>