<svg xmlns="http://www.w3.org/2000/svg" xmlns:xlink="http://www.w3.org/1999/xlink" width="62" height="87" viewBox="0 0 62 87">
  <defs>
    <polygon id="nespresso-cup-a" points="0 .932 61.458 .932 61.458 86.603 0 86.603"/>
  </defs>
  <g fill="none" fill-rule="evenodd" transform="translate(0 -1)">
    <g transform="translate(0 .466)">
      <mask id="nespresso-cup-b" fill="#fff">
        <use xlink:href="#nespresso-cup-a"/>
      </mask>
      <path fill="#B5D0E6" d="M2.37348571,15.2298667 C2.49221587,14.1654857 2.8456127,13.3385651 3.43786667,12.3943111 C3.79126349,11.8020571 4.49945397,11.4472635 5.20904127,11.4472635 L55.0757079,11.4472635 C56.8482794,11.4472635 58.3861841,12.6303746 58.8583111,14.1654857 C58.9756444,14.5202794 58.9756444,14.7577397 59.0929778,15.1111365 L2.37348571,15.1111365 L2.37348571,15.2298667 Z M50.4689778,83.2943746 C50.4689778,83.8852317 49.995454,84.3587556 49.2858667,84.3587556 L11.9459302,84.3587556 C11.355073,84.3587556 10.8815492,83.8852317 10.7642159,83.2943746 L7.33640635,17.5932952 L53.8953905,17.5932952 L50.4689778,83.2943746 Z M9.93589841,3.29539048 L50.2315175,3.29539048 C50.9411048,3.6487873 53.4218667,5.0679619 53.7766603,9.08523175 L7.45513651,9.08523175 C7.80993016,5.3040254 9.34504127,3.76751746 9.93589841,3.29539048 Z M56.1400889,9.2039619 C55.6665651,2.82186667 50.9411048,1.04929524 50.8223746,1.04929524 C50.7050413,1.04929524 50.5863111,0.931961905 50.4689778,0.931961905 L9.58110476,0.931961905 C9.34504127,0.931961905 9.22631111,0.931961905 9.10897778,1.04929524 C8.99024762,1.1680254 5.56383492,2.82186667 5.20904127,9.08523175 C3.67393016,9.08523175 2.37348571,9.79342222 1.54656508,10.9751365 C0.836977778,12.0395175 -0.10727619,13.9294222 0.0100571429,16.411581 C0.0100571429,17.0024381 0.600914286,17.4745651 1.19177143,17.4745651 L4.97297778,17.4745651 L8.39939048,83.2943746 C8.51812063,85.1856762 10.0546286,86.603454 11.9459302,86.603454 L49.4045968,86.603454 C51.2945016,86.603454 52.8310095,85.1856762 52.9497397,83.2943746 L56.3761524,17.4745651 L60.2760889,17.4745651 C60.866946,17.4745651 61.4578032,17.0024381 61.4578032,16.411581 C61.4578032,15.4659302 61.4578032,14.5202794 61.1030095,13.5746286 C60.3934222,11.3299302 58.5035175,9.67608889 56.1400889,9.2039619 Z" mask="url(#nespresso-cup-b)"/>
    </g>
    <path fill="#B5D0E6" d="M20.530819 75.3967238L21.779581 76.9891048C22.4123429 77.7825016 23.8161524 78.1526603 24.8302476 77.7531683L24.8386286 77.7657397C23.6918349 78.3803429 22.155327 78.0688508 21.1901206 77.2852317 20.5084698 76.7558349 20.1201524 76.0043429 19.547454 75.3939302L19.547454 76.6552635C19.547454 76.7642159 19.6158984 76.8410413 19.6158984 76.8410413L19.1144381 76.8396444C19.1144381 76.8396444 19.1814857 76.7642159 19.1814857 76.6552635L19.1814857 73.6758349C19.6564063 74.2457397 20.0656762 74.7932952 20.530819 75.3967238M44.0641143 76.8425778C44.2498921 76.8425778 44.4007492 76.6917206 44.4007492 76.504546 44.4007492 76.3187683 44.2498921 76.1679111 44.0641143 76.1679111 43.8769397 76.1679111 43.7260825 76.3187683 43.7260825 76.504546 43.7260825 76.6917206 43.8769397 76.8425778 44.0641143 76.8425778M43.6883683 76.504546C43.6883683 76.296419 43.8573841 76.1288 44.0641143 76.1288 44.2708444 76.1288 44.4398603 76.296419 44.4398603 76.504546 44.4398603 76.7112762 44.2708444 76.8788952 44.0641143 76.8788952 43.8573841 76.8788952 43.6883683 76.7112762 43.6883683 76.504546"/>
    <path fill="#B5D0E6" d="M43.9754159 76.471581L44.0969397 76.471581C44.1430349 76.471581 44.1695746 76.4478349 44.1695746 76.4045333 44.1695746 76.3500571 44.1332571 76.3388825 44.0955429 76.3388825L43.9754159 76.3388825 43.9754159 76.471581zM43.8999873 76.278819L44.1039238 76.278819C44.1961143 76.278819 44.2436063 76.3221206 44.2436063 76.3933587 44.2436063 76.4757714 44.1863365 76.4967238 44.1737651 76.5009143 44.1989079 76.5051048 44.2366222 76.5246603 44.2366222 76.5917079 44.2366222 76.6405968 44.2436063 76.6852952 44.2589714 76.703454L44.1793524 76.703454C44.1695746 76.6838984 44.1695746 76.662946 44.1695746 76.6405968 44.1695746 76.5623746 44.1528127 76.5288508 44.0843683 76.5288508L43.9754159 76.5288508 43.9754159 76.703454 43.8999873 76.703454 43.8999873 76.278819zM42.1652698 76.4729778C42.2490794 76.4729778 42.8608889 76.5009143 42.8553016 75.2814857 42.8497143 74.1542476 42.2574603 74.1863746 42.1610794 74.1863746 42.0646984 74.1863746 41.4696508 74.1542476 41.4654603 75.2814857 41.4584762 76.5009143 42.0716825 76.4729778 42.1540952 76.4729778L42.1652698 76.4729778zM42.1596825 76.8892317C41.9655238 76.8906286 40.6427302 76.847327 40.6455238 75.3401524 40.6483175 73.8385651 41.9571429 73.8190095 42.1596825 73.8204063 42.363619 73.8190095 43.6710476 73.8385651 43.6738413 75.3401524 43.6766349 76.847327 42.3538413 76.8906286 42.1596825 76.8892317zM40.2664254 73.9890032L40.2664254 74.3633524C40.1113778 74.2977016 40.0247746 74.2502095 39.861346 74.2055111 39.7328381 74.1775746 39.1824889 74.046273 38.9184889 74.3228444 38.8067429 74.4359873 38.773219 74.6427175 38.9953143 74.8005587 39.3068063 75.0030984 39.7537905 75.0952889 40.1197587 75.3942095 40.3586159 75.5841778 40.4354413 75.8076698 40.3753778 76.1470984 40.3125206 76.4935111 39.933981 76.774273 39.5945524 76.8455111 39.1000762 76.9474794 38.5441397 76.8985905 38.1027429 76.7114159L38.1041397 76.3440508C38.509219 76.5130667 39.1391873 76.7295746 39.5316952 76.3873524 39.6392508 76.2881778 39.7049016 76.1470984 39.6476317 76.0032254 39.5582349 75.7364317 38.8332825 75.5785905 38.3890921 75.246146 37.9504889 74.9779556 37.9896 74.5156063 38.1432508 74.2585905 38.5567111 73.6384 39.6085206 73.8102095 40.2664254 73.9890032M37.7279746 73.9890032L37.7265778 74.3633524C37.572927 74.2977016 37.484927 74.2502095 37.3214984 74.2055111 37.1929905 74.1775746 36.6440381 74.046273 36.3800381 74.3228444 36.2682921 74.4359873 36.2347683 74.6427175 36.4554667 74.8005587 36.7683556 75.0030984 37.2139429 75.0952889 37.5813079 75.3942095 37.8201651 75.5841778 37.8969905 75.8076698 37.8355302 76.1470984 37.7740698 76.4935111 37.3941333 76.774273 37.0561016 76.8455111 36.5616254 76.9474794 36.0042921 76.8985905 35.5628952 76.7114159L35.5656889 76.3440508C35.9707683 76.5130667 36.6007365 76.7295746 36.9932444 76.3873524 37.0994032 76.2881778 37.165054 76.1470984 37.109181 76.0032254 37.0197841 75.7364317 36.2948317 75.5785905 35.8492444 75.246146 35.4106413 74.9779556 35.4497524 74.5156063 35.6034032 74.2585905 36.0182603 73.6384 37.0700698 73.8102095 37.7279746 73.9890032M27.3267937 73.9890032L27.3267937 74.3633524C27.171746 74.2977016 27.0851429 74.2502095 26.9217143 74.2055111 26.7932063 74.1775746 26.2428571 74.046273 25.9788571 74.3228444 25.8671111 74.4359873 25.8335873 74.6427175 26.0556825 74.8005587 26.3671746 75.0030984 26.8141587 75.0952889 27.180127 75.3942095 27.4189841 75.5841778 27.4972063 75.8076698 27.435746 76.1470984 27.3728889 76.4935111 26.9943492 76.774273 26.6549206 76.8455111 26.1604444 76.9474794 25.6045079 76.8985905 25.1631111 76.7114159L25.1645079 76.3440508C25.5695873 76.5130667 26.1995556 76.7295746 26.5920635 76.3873524 26.699619 76.2881778 26.7652698 76.1470984 26.708 76.0032254 26.6186032 75.7364317 25.8936508 75.5785905 25.4494603 75.246146 25.0108571 74.9779556 25.0499683 74.5156063 25.203619 74.2585905 25.6170794 73.6384 26.6688889 73.8102095 27.3267937 73.9890032M20.8336508 75.3080254C21.2987937 75.911454 21.7080635 76.4604063 22.1815873 77.0289143L22.1815873 74.0494857C22.1829841 73.9405333 22.2500317 73.8651048 22.2500317 73.8651048L21.7485714 73.8651048C21.7485714 73.8651048 21.8170159 73.9405333 21.8170159 74.0494857L21.8170159 75.310819C21.3895873 74.8582476 21.0669206 74.3260571 20.647873 73.8665016 20.5961905 73.8008508 20.2344127 73.4139302 20.1240635 73.3217397 19.3739683 72.5870095 18.1559365 72.2852952 17.0189206 72.7769778L17.0286984 72.7951365C17.4184127 72.6624381 17.9799365 72.6652317 18.5330794 72.8901206 18.8864762 73.0200254 19.1826032 73.2030095 19.4759365 73.5647873 19.5513651 73.6639619 20.8336508 75.3080254 20.8336508 75.3080254M23.580927 76.5384889C23.9818159 76.5776 24.4721016 76.5147429 24.8632127 76.5077587L24.8646095 76.8402032 22.7428317 76.8402032C22.7428317 76.8402032 22.8098794 76.7703619 22.8098794 76.6544254L22.8098794 74.0507429C22.8098794 73.9348063 22.7428317 73.8649651 22.7428317 73.8649651L24.8646095 73.8649651 24.8632127 74.1974095C24.4721016 74.1876317 23.9818159 74.1261714 23.580927 74.1666794 23.580927 74.1666794 23.5795302 75.0857905 23.5795302 75.1500444 23.909181 75.1709968 24.2974984 75.1723937 24.6034032 75.1318857L24.6034032 75.4866794C24.3030857 75.4601397 23.9063873 75.4531556 23.580927 75.4699175L23.580927 75.5830603 23.580927 76.5384889zM33.9944 76.5384889C34.3952889 76.5776 34.8855746 76.5147429 35.2766857 76.5077587L35.2766857 76.8402032 33.1563048 76.8402032C33.1563048 76.8402032 33.2233524 76.7703619 33.2233524 76.6544254L33.2233524 74.0507429C33.2233524 73.9348063 33.1563048 73.8649651 33.1563048 73.8649651L35.2766857 73.8649651 35.2766857 74.1974095C34.8855746 74.1876317 34.3952889 74.1261714 33.9944 74.1666794 33.9944 74.1666794 33.9930032 75.0857905 33.9930032 75.1500444 34.322654 75.1709968 34.7109714 75.1723937 35.0168762 75.1318857L35.0168762 75.4866794C34.7165587 75.4601397 34.3198603 75.4531556 33.9930032 75.4699175L33.9944 75.5830603 33.9944 76.5384889zM31.1093968 74.2400127L31.1093968 75.2429333C31.3650159 75.2443302 31.6737143 75.2764571 31.8511111 75.0711238 32.0033651 74.8713778 31.9782222 74.6115683 31.876254 74.4285841 31.6988571 74.1282667 31.1093968 74.2400127 31.1093968 74.2400127zM31.1135873 75.6102984L31.1135873 76.6551238C31.1135873 76.7696635 31.1806349 76.8395048 31.1806349 76.8395048L30.2726984 76.8395048C30.2726984 76.8395048 30.339746 76.7710603 30.339746 76.6551238L30.339746 74.0500444C30.339746 73.9341079 30.2726984 73.8642667 30.2726984 73.8642667L31.8189841 73.8642667C32.2380317 73.8810286 32.6822222 74.1129016 32.6975873 74.6185524 32.700381 75.0306159 32.5173968 75.2680762 32.243619 75.3993778 32.1891429 75.4245206 32.1947302 75.4175365 32.1779683 75.4315048 32.3707302 75.885473 32.548127 76.2165206 32.7827937 76.6551238 32.8302857 76.7682667 32.9266667 76.8395048 32.9266667 76.8395048L31.9893968 76.8395048C31.9893968 76.8395048 32.0452698 76.7682667 31.988 76.6551238 31.988 76.6551238 31.6555556 75.8715048 31.4991111 75.6102984L31.1135873 75.6102984zM28.5667556 74.2426667L28.5653587 75.3587302C28.8237714 75.3768889 29.1296762 75.4048254 29.3084698 75.2008889 29.459327 74.999746 29.4341841 74.6128254 29.3336127 74.4298413 29.154819 74.1295238 28.5667556 74.2426667 28.5667556 74.2426667zM28.570946 76.6549841C28.570946 76.7695238 28.6379937 76.8393651 28.6379937 76.8393651L27.7300571 76.8393651C27.7300571 76.8393651 27.7971048 76.7709206 27.7971048 76.6549841L27.7971048 74.0499048C27.7971048 73.9339683 27.7300571 73.864127 27.7300571 73.864127L29.2288508 73.864127C29.6045968 73.8766984 29.8937397 74.0499048 30.019454 74.4130794 30.1116444 74.7343492 30.099073 75.1464127 29.8727873 75.4048254 29.5696762 75.8099048 28.5681524 75.7498413 28.5681524 75.7498413L28.570946 76.6549841z"/>
    <path fill="#EB3027" d="M29.0728254,46.3511365 L34.267619,52.9720889 C36.9020317,56.2783746 42.7449524,57.8148825 46.9675556,56.1526603 L47.003873,56.2085333 C42.2253333,58.763327 35.836254,57.467073 31.8175873,54.2082794 C28.9848254,52.0040889 27.3659048,48.8779937 24.9773333,46.3399619 L24.9773333,51.5878349 C24.9773333,52.0418032 25.2650794,52.3602794 25.2650794,52.3602794 L23.1782222,52.3574857 C23.1782222,52.3574857 23.4561905,52.0418032 23.460381,51.5878349 L23.460381,39.1840254 C25.4340952,41.5544381 27.1368254,43.8424381 29.0728254,46.3511365"/>
    <path fill="#EB3027" d="M30.333181,45.9787429 C32.269181,48.4888381 33.9705143,50.7754413 35.9442286,53.145854 L35.9442286,40.7420444 C35.948419,40.2880762 36.2263873,39.9737905 36.2263873,39.9737905 L34.1451175,39.9709968 C34.1451175,39.9709968 34.428673,40.2880762 34.428673,40.7420444 L34.428673,45.9899175 C32.6519111,44.1042032 31.301181,41.8930286 29.5621333,39.9765841 C29.3442286,39.7083937 27.8412444,38.0950603 27.3830857,37.7123302 C24.2569905,34.6546794 19.1907048,33.401727 14.4540698,35.4410921 L14.5001651,35.5235048 C16.1190857,34.9703619 18.4587683,34.9815365 20.7537524,35.9118222 C22.2329905,36.457981 23.4608,37.217854 24.684419,38.7250286 C24.9959111,39.1412825 30.333181,45.9787429 30.333181,45.9787429"/>
  </g>
</svg>
