<svg id="b" data-name="Layer 2" xmlns="http://www.w3.org/2000/svg" viewBox="0 0 859.5 411.75"><defs><linearGradient id="d" x1="383.81" y1="-73.25" x2="446.03" y2="421.29" gradientUnits="userSpaceOnUse"><stop offset=".01" stop-color="#043471"/><stop offset=".7" stop-color="#043471" stop-opacity="0"/></linearGradient><style>.g{fill:none}.i{fill:#fff}.j{fill:#1e7bc1}.k{fill:#43a5ed}</style></defs><g id="c" data-name="Layer 1"><path fill="url(#d)" d="M4.21 205.5l126.88 203.78 728.41 2.47L603.87.84l-24.7 24-23.78-18.03-3.98-5.97-42.51 7.65-4.54-7.65-11.25 22.77-9.78-15.97-41.08 5.78-7.9-12.58-12.66 33.51L400.98.84 389.95 15.1l-4.53-7.46-42.25 6.95L334.61.84h-27.76L295.7 19.12l-8.08-12.81L272.76.84l-21.93 19.93-8.38-13.45-38.93 6.24L195.46.84h-31.35l-7.96 23.46-10.71-17.19h-39.31L102.52.84 78.76 22.5 54.85.84 32.53 0 19.6 7.64 5.91 44.52l20.94 33.61L0 130.52l14.09 22.34-9.88 52.64z"/><path class="j" d="M627.46 193.86l-.81-3.88c-2.43 5.61-7.68 8.28-14.87 8.28-10.11 0-16.53-10.67-16.53-21.97v-.14c0-4.26.88-7.83 2.52-10.64l-6.16 7.84c-.09.97-.13 1.95-.13 2.94v.14c0 13.46 7.74 28.31 20.16 28.31 6.84 0 12.3-4.54 15.83-10.88zM549.94 203.07l28.93-.68-2.91-5.19-19.55.02M573.06 181.27l2.21-13.5c-.56 3.83-4.2 8.44-10.02 13.75l-18.2 16.46-1.52 5.18 3.64-.09 6.47-5.86 14.93-13.53a59.4 59.4 0 002.5-2.41z"/><path class="k" d="M575.27 167.77l-2.21 13.5c6.23-6.39 6.84-10.59 6.84-16.56v-.14c0-7.6-5.93-13.39-14.51-13.39s-13.11 3.98-17.37 10.46l-1.52 5.18c4.05-5.86 11.7-10.9 17.82-9.86 4.53.77 7.45 2.05 10.21 6.8.71 1.23.94 2.57.72 4.02z"/><path class="j" d="M584.8 197.2l-1.33 2.75 1.12.54h2.36l1.12-.54-1.33-2.75h-1.94z"/><path class="k" d="M626.65 189.98l.81 3.88c2.88-5.17 4.47-11.53 4.47-17.57v-.14c0-13.46-7.74-25.11-20.16-25.11-11.5 0-19.11 10.12-20.17 22.31l6.16-7.84c2.73-4.67 7.55-7.19 13.87-7.19 10.11 0 16.53 11.83 16.53 23.2v.14c0 3.27-.53 6.03-1.52 8.31z"/><path d="M545.53 203.16v2.72h33.34v-3.49h-27.62l14.93-13.53c8.58-7.81 12.21-12.27 12.21-18.97v-.14c0-7.6-5.93-13.39-14.51-13.39s-13.11 3.98-17.37 10.46l2.72 1.81c4.05-5.86 8.09-9.07 14.3-9.07 5.86 0 11.02 4.12 11.02 10.46 0 5.16-2.79 9.34-10.81 16.67l-18.2 16.46zm37.94 2.72h4.6v-5.93h-4.6v5.93zm26.64.84c12.42 0 20.3-11.79 20.3-25.25v-.14c0-13.46-7.74-25.11-20.16-25.11s-20.3 11.79-20.3 25.25v.14c0 13.46 7.74 25.11 20.16 25.11zm.14-3.28c-10.11 0-16.53-10.67-16.53-21.97v-.14c0-11.37 6.28-21.83 16.39-21.83s16.53 10.6 16.53 21.97v.14c0 11.3-6.28 21.83-16.39 21.83z" fill="#f7fafc" id="e" data-name="h"/><g><path class="g" d="M198.53 181.13l-4.7-10.88-4.66 10.88h9.36zM471.84 22.08c0-5.26-3.78-8.13-10.16-8.13h-7.29v11.22h12.62c1.69 0 3.21-.25 4.53-.71.19-.7.3-1.44.3-2.24v-.14zM90.94 181.13l-4.7-10.88-4.67 10.88h9.37zM231.37 22.08c0-5.26-3.79-8.13-10.16-8.13h-7.29v11.22h12.62c1.69 0 3.21-.25 4.53-.71.19-.7.3-1.44.3-2.24v-.14zM135.94 40.66c0-4.14-3.3-6.59-10.09-6.59h-8.41v8.2h14.3c1.54 0 2.92-.17 4.13-.49.04-.32.07-.64.07-.98v-.14zM31.66 105.78L26.95 94.9l-4.66 10.88h9.37zM129.21 21.52c1.45 0 2.77-.15 3.93-.45.04-.31.07-.62.07-.95v-.14c0-3.86-3.08-6.24-8.62-6.24h-7.15v7.78h11.78z"/><path class="k" d="M77.82 21.02L65.09.84H54.86l-5.04 5.04C45.54 2.35 40.39 0 32.53 0 23.84 0 16.65 3.95 12.2 10.04c4.1-3 9.25-4.78 15.08-4.78 8.47 0 13.78 2.72 18.26 6.71.34.3.68.61 1.02.93l-.67.77-4.87 5.61 5.26-5.26 4.86-5.59-.2-.31-1.32-2.02h10.23l13.67 21.66 4.32-6.74zM235.09 33.21c-1.83 1.53-4.08 2.65-6.6 3.38l7.78 10.91 1.72 2.41 3.75 5.26 5.26-5.26-2.79-3.91-9.12-12.79zM434.35.84h-8.62s-5.67 5.26-5.26 5.26h8.62v27.83c0 5.59-1.21 10.11-3.41 13.57 5.48-3.46 8.67-9.74 8.67-18.83V.84zM184.23 96.67l-5.25 5.25V109.7l5.25-5.25v-7.78zM212.54 89.45v41.07l5.25-5.25V89.45h-5.25zM197.61 151.2h-3.89l-5.25 5.26H196.46l19.06 43.64.23.52 2.3 5.26 5.25-5.26-21.59-49.42h-4.1zM263.96 162.63l-.71.85-4.75 5.67 5.26-5.26 5.47-6.52c-5.05-4.28-10.3-6.66-18.86-6.66s-15.88 4.01-20.35 10.09c4.12-3.02 9.27-4.83 15.09-4.83 8.55 0 13.81 2.38 18.86 6.66zM51.02 43.2l1.13-1.14-5.53-5.61-5.26 5.26 5.1 5.16.44.45 4.12-4.12zM97.26 6.1l5.26-5.26h-9.88L87.38 6.1h9.88zM111.47 6.1h14.24c5.61 0 10.02 1.54 12.83 4.35 2.17 2.17 3.29 4.91 3.29 8.13v.14c0 .87-.08 1.67-.22 2.42-.2 1.09-.52 2.06-.95 2.94-.07.15-.15.3-.23.44-1.17 2.12-2.96 3.63-4.89 4.74-.24.14-.48.27-.72.39 2.24.76 4.2 1.73 5.78 3.02.03.03.06.05.09.08 2.41 2.01 3.88 4.8 3.88 8.82v.14c0 1.82-.33 3.45-.92 4.92-.11.26-.21.53-.33.78-.58 1.17-1.36 2.21-2.3 3.12l-.02.03 5.45-5.44v-.02c2.16-2.18 3.38-5.07 3.38-8.64v-.14c0-6.22-3.49-9.51-8.64-11.51l3.2-3.66c1.62-1.85 2.71-4.32 2.71-7.68v-.14c0-3.22-1.12-5.96-3.29-8.13-2.8-2.8-7.22-4.35-12.83-4.35h-22.01l-5.26 5.26h7.77zM160.72 6.1h29.48v7.71l5.26-5.26V.84h-36.38l-5.26 5.26H160.72zM192.31 21.31l-5.26 5.26V34.35l5.26-5.26v-7.78zM195.81 42.2l-5.26 5.26v7.71l5.26-5.26V42.2zM206.63 6.1h15.28c6.17 0 11.01 1.82 14.16 4.91 2.59 2.66 4.07 6.31 4.07 10.59v.14c0 1.65-.21 3.16-.59 4.54-.31 1.13-.74 2.18-1.27 3.14-.13.23-.28.46-.42.68l-.1.55 2.56-2.65c.8-.66 1.52-1.41 2.15-2.23l.08-.08v-.02c1.81-2.39 2.87-5.44 2.87-9.19v-.14c0-4.28-1.47-7.92-4.07-10.59-3.15-3.08-7.99-4.91-14.16-4.91h-21.87l-5.26 5.26h6.59zM254.71 7.84c.58-.34 1.19-.64 1.84-.91 2.34-.99 5.04-1.53 8-1.53 7.15 0 12.83 2.17 17.81 6.17l-.39.55-4.24 5.97 5.26-5.26 4.63-6.52c-4.98-4-10.66-6.17-17.81-6.17-5.03 0-9.32 1.56-12.3 4.21h-.01l-.29.28-.66.65-5.73 5.69.2-.11c1.02-1.18 2.26-2.2 3.69-3.02zM279.85 51.16c-.08.08-.17.15-.25.23v.03l.25-.26zM334.96 42.2l-5.25 5.26v7.71l5.25-5.26V42.2zM331.46 21.31l-5.26 5.26V34.35l5.26-5.26v-7.78zM299.91 6.1h29.45v7.71l5.25-5.26V.84H298.23l-5.26 5.26H299.91zM385.77 42.06l-5.54-5.61-5.26 5.26 5.1 5.16.44.45 4.12-4.12 1.14-1.14zM379.49 13.67l-4.87 5.61 5.26-5.26 5.54-6.38C380.72 3.15 375.26 0 366.14 0s-15.88 3.95-20.33 10.04c4.1-3 9.25-4.78 15.08-4.78 9.11 0 14.58 3.15 19.28 7.64l-.67.77zM395.72 6.1l5.26-5.26h-8.62L387.1 6.1h8.62zM487.47 49.91l-11.91-16.7c-1.83 1.53-4.08 2.65-6.6 3.38l9.5 13.32 3.75 5.26 5.26-5.26zM447.7 6.1h14.67c6.17 0 11.01 1.82 14.16 4.91 2.59 2.66 4.07 6.31 4.07 10.59v.14c0 3-.67 5.56-1.87 7.68 4.33-2.56 7.12-6.81 7.12-12.94v-.14c0-4.28-1.47-7.92-4.07-10.59-3.15-3.08-7.99-4.91-14.16-4.91h-21.87l-5.26 5.26h7.2zM499.1 6.1v49.07l5.26-5.26V.84h-8.62l-5.26 5.26h8.62zM556.2.84l-4.79 4.79V.84h-39.89l-5.25 5.26h39.88v7.99l5.26-5.26V6.81l-.46-.71h10.23l13.67 21.66 4.32-6.74L566.44.84H556.2zM593.99.84l-5.26 5.26h9.88l5.26-5.26h-9.88zM26.85 75.85l-5.26 5.26h7.99l19.29 44.16 2.3 5.26 5.26-5.26-.51-1.18c-.28-.24-.56-.47-.84-.72l.35-.41-20.58-47.11h-7.99zM91.21 87.47l-4.24 5.97 5.26-5.26 4.63-6.52c-4.98-4-10.66-6.17-17.81-6.17s-12.48 2.96-15.1 7.7c2.71-1.56 6.06-2.44 9.84-2.44 7.15 0 12.83 2.17 17.81 6.17l-.39.55zM130.51 93.44l5.26-5.26 4.63-6.52c-4.98-4-10.66-6.17-17.81-6.17s-12.48 2.96-15.1 7.7c2.71-1.56 6.06-2.44 9.84-2.44 7.15 0 12.83 2.17 17.81 6.17l-.39.55-4.24 5.97zM151.01 81.45h31.12v7.71l5.26-5.25V76.2h-36.38l-5.26 5.25h5.26zM182.48 125.27v5.25l5.26-5.25v-7.72l-5.26 5.26v2.46zM228.17 89.45l5.26-5.26V76.2h-39.89l-5.26 5.25h39.89v8zM9.46 151.55l-5.25 5.26h9.18l14.93 23.2 4.32-6.71-13.99-21.75H9.46zM43.25 156.81h9.18v49.07l5.26-5.26v-49.07h-9.18l-5.26 5.26zM86.13 151.2l-5.26 5.26h7.99l18.3 41.87 1 2.29 2.29 5.26 5.26-5.26-21.59-49.42h-7.99zM122.56 151.55l-5.26 5.26h7.99l26.29 33.93v-12.05l-21.03-27.14h-7.99zM156.84 151.55l-5.26 5.26h8.48V205.88l5.26-5.26v-49.07h-8.48zM250.08 173.21l-5.26 5.26h20.89v20.61l5.26-5.26v-20.61h-20.89zM314.9 172.02l-5.26 5.26V185.06l5.26-5.26v-7.78zM313.15 200.62v5.26l5.26-5.26v-7.71l-5.26 5.26v2.45zM312.8 159.26v5.26l5.26-5.26v-7.71h-36.39l-5.25 5.26H312.8v2.45zM327.89 151.55l-5.26 5.26h9.18l14.94 23.2 4.32-6.71-14-21.75h-9.18zM361.68 156.81h9.18v49.07l5.26-5.26v-49.07h-9.19l-5.25 5.26zM421.33 172.02l-5.26 5.26V185.06l5.26-5.26v-7.78zM419.23 159.26v5.26l5.25-5.26v-7.71H388.1l-5.25 5.26h36.38v2.45zM419.58 200.62v5.26l5.26-5.26v-7.71l-5.26 5.26v2.45zM434.32 151.55l-5.26 5.26h7.99l26.29 33.93v-12.05l-21.03-27.14h-7.99zM463.34 156.81h8.48v49.07l5.26-5.26v-49.07h-8.48l-5.26 5.26zM484.14 151.55l-5.25 5.26h39.88v7.99l5.26-5.26v-7.99h-39.89z"/><g><path class="j" d="M16.33 25.38v-.14c0-3.61.97-6.94 2.67-9.69-4.83 2.96-7.93 8.51-7.93 14.95v.14c0 9.6 6.8 17.38 16.19 17.38 6.03 0 9.88-2.38 14.09-6.31l5.26-5.26c-4.21 3.93-8.06 6.31-14.09 6.31-9.39 0-16.19-7.78-16.19-17.38zM77.77 35.61V55.17l5.26-5.26V30.35L102.52.84 97.26 6.1 77.77 35.61zM135.87 41.78c-1.21.32-2.59.49-4.13.49h-14.3v-8.2h-5.26v13.46h14.3c5.37 0 8.88-1.97 9.39-5.75zM133.14 21.07c-1.16.3-2.48.45-3.93.45h-11.78v-7.78h-5.26v13.04h11.78c5.13 0 8.69-1.87 9.19-5.71zM195.81 42.2H167.7v-7.85h-5.26v13.11h28.11l5.26-5.26zM192.31 21.31H167.7v-7.5h-5.26v12.76h24.61l5.26-5.26zM208.66 46v9.17l5.26-5.26V38.06h-5.26V46zM231.07 24.46c-1.32.46-2.84.71-4.53.71h-12.62V13.95h-5.26v16.47h12.62c5.18 0 8.77-2.28 9.79-5.96zM256.28 36.59l-5.26 5.26c.16.14.33.28.49.41l.39.33c4.42 3.6 8.96 5.64 14.61 5.64 5.08 0 8.36-2.29 8.66-5.66-1.02.26-2.15.4-3.41.4-6.03 0-10.8-2.31-15.49-6.38z"/><path class="j" d="M289.09 35.82c0-8.13-5.33-11.85-15.7-14.37-9.46-2.24-11.71-3.93-11.71-7.71v-.14c0-.09.01-.18.02-.27-3.37.76-5.27 2.94-5.27 5.53V19c0 3.79 2.24 5.47 11.71 7.71 10.37 2.52 15.7 6.24 15.7 14.37v.14c0 1.37-.18 2.65-.49 3.85-.28 1.08-.68 2.09-1.18 3.03-.55 1.01-1.21 1.93-2.01 2.76l4.86-4.86v-.02c2.58-2.47 4.07-5.86 4.07-10.02v-.14zM306.85 42.2v-7.85h-5.25v13.11h28.11l5.25-5.26h-28.11zM331.46 21.31h-24.61v-7.5h-5.25v12.76h24.6l5.26-5.26zM349.95 25.38v-.14c0-3.61.97-6.94 2.67-9.69-4.83 2.96-7.93 8.51-7.93 14.95v.14c0 9.6 6.8 17.38 16.19 17.38 6.03 0 9.88-2.38 14.09-6.31l5.26-5.26c-4.21 3.93-8.06 6.31-14.09 6.31-9.39 0-16.19-7.78-16.19-17.38zM408.13 47.95c5.22 0 9.06-2.13 10.97-6.36-1.65.72-3.56 1.1-5.72 1.1-7.71 0-12.41-4.84-12.41-13.95V.84l-5.26 5.26V34c0 9.11 4.7 13.95 12.41 13.95zM454.38 25.17V13.95h-5.26v16.47h12.62c5.18 0 8.77-2.28 9.79-5.96-1.32.46-2.84.71-4.53.71h-12.62zM449.12 49.91v5.26l5.26-5.26V38.06h-5.26v11.85zM530.52 49.91v5.26l5.26-5.26V14.09h-5.26v35.82zM598.61 6.1l-19.48 29.51V55.17l5.25-5.26V30.35L603.87.84l-5.26 5.26zM16.9 118.68h-3.02l-2.81 6.59-2.24 5.25 5.26-5.25 2.81-6.59zM25.45 91.41l-8.42 19.63h16.9l-2.27-5.26h-9.37l4.66-10.88-1.5-3.49zM84.42 117.92c-1.02.26-2.15.4-3.41.4-6.03 0-10.8-2.31-15.49-6.38l-5.26 5.26c.16.14.33.28.49.41.2.17.41.34.61.5 4.35 3.49 8.83 5.46 14.39 5.46 5.08 0 8.36-2.29 8.66-5.66zM82.63 96.81c-9.46-2.24-11.71-3.93-11.71-7.71v-.14c0-.09.01-.18.02-.27-3.37.76-5.27 2.94-5.27 5.53v.14c0 3.79 2.24 5.47 11.71 7.71 10.37 2.52 15.7 6.24 15.7 14.37v.14c0 2.61-.6 4.9-1.67 6.87 4.31-2.46 6.93-6.62 6.93-12.13v-.14c0-8.13-5.33-11.85-15.7-14.37zM126.16 96.81c-9.46-2.24-11.71-3.93-11.71-7.71v-.14c0-.09.01-.18.02-.27-3.37.76-5.27 2.94-5.27 5.53v.14c0 3.79 2.24 5.47 11.71 7.71 10.37 2.52 15.7 6.24 15.7 14.37v.14c0 2.61-.6 4.9-1.67 6.87 4.31-2.46 6.93-6.62 6.93-12.13v-.14c0-8.13-5.33-11.85-15.7-14.37zM127.96 117.92c-1.02.26-2.15.4-3.41.4-6.03 0-10.8-2.31-15.49-6.38l-5.26 5.26c.16.14.33.27.49.41.27.22.54.44.8.66 4.29 3.4 8.72 5.31 14.2 5.31 5.08 0 8.36-2.29 8.66-5.66zM187.74 117.55h-28.11v-7.85h-5.26v13.11h28.11l5.26-5.26zM184.23 96.67h-24.6v-7.51h-5.26v12.76h24.61l5.25-5.25zM12.69 200.62v5.26l5.26-5.26V178.7l-5.26-7.87v29.79zM81.57 181.13l4.67-10.88-1.51-3.49-8.41 19.63h16.89l-2.27-5.26h-9.37zM70.72 199.77l-.37.85-2.24 5.26 5.26-5.26 2.81-6.59h-3.02l-2.44 5.74zM125.78 200.58v5.3l5.26-5.26v-22.87l-5.26-6.78v29.61zM189.17 181.13l4.66-10.88-1.51-3.49-8.41 19.63h16.89l-2.27-5.26h-9.36zM177.96 200.6l-.01.02-2.24 5.26 5.25-5.26 2.81-6.59h-3.02l-2.79 6.57zM234.1 176.09v-.14c0-3.6 1.01-6.96 2.76-9.75-4.85 2.98-8.02 8.64-8.02 15.01v.14c0 10.09 6.66 17.52 16.68 17.52 4.63 0 8.83-1.47 11.85-3.72v-2.58a21.26 21.26 0 01-6.59 1.04c-10.02 0-16.68-7.43-16.68-17.52zM290.3 185.06h-5.26v13.11h28.11l5.26-5.26H290.3v-7.85zM285.04 164.52v12.76h24.6l5.26-5.26h-24.6v-7.5h-5.26zM331.11 200.44V205.88l5.26-5.26V178.7l-5.26-7.87v29.61zM396.73 185.06h-5.26v13.11h28.11l5.26-5.26h-28.11v-7.85zM421.33 172.02h-24.6v-7.5h-5.26v12.76h24.6l5.26-5.26zM437.54 197.29v8.59l5.26-5.26V177.75l-5.26-6.78v26.32zM503.14 198.52V205.88l5.26-5.26V164.8h-5.26v33.72zM32.57 187.48l-4.25 6.34 5.26-5.26 10.23-15.28v-2.59l-11.08 16.54-.16.25zM351 187.48l-4.25 6.34 5.25-5.26 10.24-15.28v-2.59l-10.97 16.38-.27.41z"/></g><g><path class="i" d="M26.99 56.01c9.18 0 14.79-3.36 19.91-8.69l-.44-.45-5.1-5.16c-4.21 3.93-8.06 6.31-14.09 6.31-9.39 0-16.19-7.78-16.19-17.38v-.14c0-6.44 3.1-11.99 7.93-14.95 2.37-1.45 5.15-2.29 8.19-2.29 5.68 0 9.81 2.38 13.81 6.03l4.87-5.61.67-.77c-.33-.32-.67-.63-1.02-.93-4.48-3.98-9.8-6.71-18.26-6.71-5.83 0-10.97 1.78-15.08 4.78-6.31 4.6-10.16 12.13-10.16 20.58v.14c0 14.09 10.58 25.24 24.96 25.24zM51.12 8.43l17.96 27.39v19.35h8.69V35.61L97.26 6.1h-9.88l-9.56 14.92-4.32 6.74L59.83 6.1H49.59l1.33 2.02.2.31zM139.67 51.67c.48-.35.92-.74 1.34-1.14.94-.91 1.72-1.95 2.3-3.12.12-.25.23-.52.33-.78.59-1.46.92-3.1.92-4.92v-.14c0-4.02-1.46-6.8-3.88-8.82-.03-.03-.06-.05-.09-.08-1.57-1.29-3.54-2.26-5.78-3.02l.72-.39c1.93-1.11 3.71-2.62 4.89-4.74.08-.15.16-.29.23-.44.43-.87.76-1.85.95-2.94.14-.75.22-1.55.22-2.42v-.14c0-3.22-1.12-5.96-3.29-8.13-2.8-2.8-7.22-4.35-12.83-4.35h-22.01v49.07h22.71c5.52 0 10.09-1.19 13.26-3.5zm-27.49-37.93h12.41c5.54 0 8.62 2.38 8.62 6.24v.14c0 .33-.03.64-.07.95-.5 3.84-4.06 5.71-9.19 5.71h-11.78V13.74zm0 20.33h13.67c6.8 0 10.09 2.45 10.09 6.59v.14c0 .34-.03.67-.07.98-.51 3.77-4.02 5.75-9.39 5.75h-14.3V34.07zM190.55 49.91v-2.45h-28.11V34.35h24.61V26.57h-24.61V13.81H190.2V6.1h-36.38v49.07h36.73v-5.26zM208.66 49.91V38.06h10.8l12.06 17.1h10.23L238 49.9l-1.72-2.41-7.78-10.91c2.52-.73 4.76-1.85 6.6-3.38 1.07-.89 1.99-1.93 2.75-3.11.14-.22.29-.45.42-.68.54-.96.96-2.01 1.27-3.14.38-1.38.59-2.89.59-4.54v-.14c0-4.28-1.47-7.92-4.07-10.59-3.15-3.08-7.99-4.91-14.16-4.91h-21.87v49.08h8.62v-5.26zm0-35.96h12.55c6.38 0 10.16 2.87 10.16 8.13v.14c0 .79-.11 1.54-.3 2.24-1.02 3.68-4.61 5.96-9.79 5.96h-12.62V13.95zM279.85 51.16l.3-.3c.79-.82 1.46-1.75 2.01-2.76.51-.93.91-1.94 1.18-3.03.31-1.2.49-2.48.49-3.85v-.14c0-8.13-5.33-11.85-15.7-14.37-9.46-2.24-11.71-3.93-11.71-7.71v-.14c0-2.59 1.91-4.77 5.27-5.53.82-.18 1.73-.29 2.72-.29 4.49 0 8.9 1.75 13.32 5.05l4.24-5.97.39-.55c-4.98-4-10.66-6.17-17.81-6.17-2.96 0-5.67.54-8 1.53-.64.27-1.25.58-1.84.91-1.43.82-2.67 1.84-3.69 3.02-2.04 2.35-3.22 5.34-3.22 8.76v.14c0 9.04 5.89 12.13 16.33 14.65 9.11 2.1 11.08 4 11.08 7.5v.14c0 .17-.01.34-.03.51-.3 3.37-3.59 5.66-8.66 5.66-5.65 0-10.19-2.03-14.61-5.64l-.39-.33c-.16-.14-.33-.27-.49-.41l-5.19 6.17c5.89 5.26 12.97 7.85 20.47 7.85 5.54 0 10.18-1.59 13.29-4.48.08-.08.17-.15.25-.23zM329.71 49.91v-2.45H301.6V34.35h24.6V26.57h-24.6V13.81h27.76V6.1h-36.39v49.07h36.74v-5.26zM374.97 41.71c-4.21 3.93-8.06 6.31-14.09 6.31-9.39 0-16.19-7.78-16.19-17.38v-.14c0-6.44 3.1-11.99 7.93-14.95 2.37-1.45 5.15-2.29 8.19-2.29 5.68 0 9.81 2.38 13.81 6.03l4.87-5.61.67-.77c-4.7-4.49-10.16-7.64-19.28-7.64-5.83 0-10.97 1.78-15.08 4.78-6.32 4.62-10.16 12.14-10.16 20.6v.14c0 14.09 10.58 25.24 24.96 25.24 9.18 0 14.79-3.36 19.91-8.69l-.44-.45-5.1-5.16zM429.09 6.1h-8.62v28.25c0 2.87-.48 5.28-1.36 7.24-1.91 4.23-5.76 6.36-10.97 6.36-7.71 0-12.41-4.84-12.41-13.95V6.1h-8.62v28.25c0 14.23 8.13 21.59 20.89 21.59 7.94 0 14.12-2.82 17.69-8.44 2.2-3.46 3.41-7.98 3.41-13.57V6.1zM478.46 49.91l-9.5-13.32c2.52-.73 4.76-1.85 6.6-3.38 1.27-1.06 2.35-2.33 3.17-3.8 1.19-2.13 1.87-4.68 1.87-7.68v-.14c0-4.28-1.47-7.92-4.07-10.59-3.15-3.08-7.99-4.91-14.16-4.91H440.5v49.08h8.62v-17.1h10.8l12.06 17.1h10.23l-3.75-5.26zm-29.34-19.49V13.95h12.55c6.38 0 10.16 2.87 10.16 8.13v.14c0 .79-.11 1.54-.3 2.24-1.02 3.68-4.61 5.96-9.79 5.96h-12.62zM499.1 49.91V6.1h-8.62v49.07h8.62v-5.26zM511.52 6.1h-5.25v7.99h15.63v41.08h8.62V14.09H546.15V6.1h-34.63zM590.62 6.1h-1.89l-9.56 14.92-4.32 6.74L561.18 6.1h-10.23l.46.71 19.02 29.01v19.35h8.7V35.61L598.61 6.1h-7.99zM11.07 125.27l2.81-6.59h23.2l4.98 11.85h9.11l-2.3-5.26-19.29-44.16h-7.99L0 130.52h8.83l2.24-5.26zm14.37-33.86l1.51 3.49 4.7 10.88 2.27 5.26H17.03l8.41-19.63zM91.4 123.45c1.07-1.97 1.67-4.26 1.67-6.87v-.14c0-8.13-5.33-11.85-15.7-14.37-9.46-2.24-11.71-3.93-11.71-7.71v-.14c0-2.59 1.91-4.77 5.27-5.53.82-.18 1.73-.29 2.72-.29 4.49 0 8.9 1.75 13.32 5.05l4.24-5.97.39-.55c-4.98-4-10.66-6.17-17.81-6.17-3.78 0-7.13.88-9.84 2.44-4.28 2.47-6.91 6.64-6.91 11.79v.14c0 9.04 5.89 12.13 16.33 14.65 9.11 2.1 11.08 4 11.08 7.5v.14c0 .17-.01.34-.03.51-.3 3.37-3.59 5.66-8.66 5.66-5.56 0-10.04-1.97-14.39-5.46-.2-.16-.41-.33-.61-.5-.16-.14-.33-.27-.49-.41l-4.84 5.76-.35.41c.28.25.56.48.84.72 5.72 4.77 12.48 7.13 19.63 7.13s13.16-2.81 15.85-7.78zM127.96 117.92c-.3 3.37-3.59 5.66-8.66 5.66-5.48 0-9.91-1.91-14.2-5.31-.27-.21-.54-.43-.8-.66-.16-.14-.33-.27-.49-.41l-5.19 6.17c5.89 5.26 12.97 7.85 20.47 7.85s13.16-2.81 15.85-7.78c1.07-1.97 1.67-4.27 1.67-6.87v-.14c0-8.13-5.33-11.85-15.7-14.37-9.46-2.24-11.71-3.93-11.71-7.71v-.14c0-2.59 1.91-4.77 5.27-5.53.82-.18 1.73-.29 2.72-.29 4.49 0 8.9 1.75 13.32 5.05l4.24-5.97.39-.55c-4.98-4-10.66-6.17-17.81-6.17-3.78 0-7.14.88-9.84 2.44-4.28 2.47-6.91 6.64-6.91 11.79v.14c0 9.04 5.89 12.13 16.33 14.65 9.11 2.1 11.08 4 11.08 7.5v.14c0 .17-.01.34-.03.51zM182.48 125.27v-2.46h-28.11V109.7h24.61V101.92h-24.61V89.16H182.13v-7.71h-36.38v49.07h36.73v-5.25zM188.28 89.45h15.63v41.07h8.63V89.45h15.63v-8h-39.89v8zM43.25 156.81L32.64 173.3l-4.32 6.71-14.93-23.2H4.21v49.07h8.48v-35.05l5.26 7.87 10.09 15.12h.28l4.25-6.34.16-.25 11.08-16.54v35.19h8.62v-49.07h-9.18zM107.16 198.33l-18.29-41.87h-7.99l-21.59 49.42h8.83l2.24-5.26.36-.85 2.44-5.74h23.2l4.98 11.85h9.11l-2.3-5.26-1-2.29zm-22.43-31.57l1.51 3.49 4.7 10.88 2.27 5.26H76.32l8.41-19.63zM156.84 156.81h-5.26v33.93l-26.29-33.93h-7.99v49.07h8.48v-34.91l5.26 6.78 21.8 28.13h7.22V156.81h-3.22zM215.52 200.1l-19.07-43.64h-7.99l-21.59 49.42h8.83l2.24-5.26v-.02l2.81-6.57h23.2l4.98 11.85h9.11l-2.3-5.26-.23-.52zm-21.69-29.85l4.7 10.88 2.27 5.26h-16.89l8.41-19.63 1.51 3.49zM250.08 178.47h-5.26v7.57h12.55v9.11c-3.01 2.24-7.22 3.72-11.85 3.72-10.02 0-16.68-7.43-16.68-17.52v-.14c0-6.37 3.17-12.02 8.02-15.01 2.3-1.42 4.98-2.24 7.89-2.24 6.24 0 9.95 2.03 13.74 5.19l4.75-5.67.71-.85c-5.05-4.28-10.3-6.66-18.86-6.66-5.82 0-10.98 1.81-15.09 4.83-6.34 4.66-10.21 12.21-10.21 20.54v.14c0 14.3 10.09 25.24 25.45 25.24 8.69 0 15.63-3.5 20.47-7.64v-20.61h-15.63zM285.04 185.06h24.6V177.28h-24.6v-12.76H312.8v-7.71H276.42v49.07h36.73v-7.71h-28.11v-13.11zM361.68 156.81l-10.61 16.49-4.32 6.71-14.94-23.2h-9.18v49.07h8.48v-35.05l5.26 7.87 10.1 15.12h.28l4.25-6.34.27-.41 10.97-16.38v35.19h8.62v-49.07h-9.18zM391.47 185.06h24.6V177.28h-24.6v-12.76H419.23v-7.71H382.85v49.07h36.73v-7.71h-28.11v-13.11zM463.34 156.81v33.93l-26.29-33.93h-7.99v49.07h8.48v-34.91l5.26 6.78 21.8 28.13h7.22v-49.07h-8.48zM484.14 156.81h-5.25v7.99h15.63v41.08h8.62V164.8H518.77v-7.99h-34.63z"/></g></g></g></svg>