<?xml version="1.0" encoding="UTF-8"?>
<svg xmlns="http://www.w3.org/2000/svg" viewBox="0 0 632.36 300">
  <defs>
    <style>
      .qualys-red {
        fill: #ed2e26;
      }

      .cls-1 {
        fill: #fff;
      }

      .cls-2 {
        isolation: isolate;
      }
    </style>
  </defs>
  <g id="QSC_Logos" data-name="QSC Logos">
    <path class="qualys-red" d="M125.98,0c82.05,0,123.31,43.9,123.31,43.9,0,0,4.72,32.49,1.71,97.92-4.55,98.83-124.99,158.18-125,158.19,0,0-120.45-59.36-124.99-158.19C-2.01,76.39,2.71,43.9,2.71,43.9,2.71,43.9,43.93,0,125.98,0Zm211.1,214.67c31.89,0,54.34-18.41,54.34-44.46v-.45c0-23.8-15.27-37.72-51.2-45.36-34.13-7.19-40.42-15.27-40.42-28.29v-.45c0-13.47,12.57-22.9,30.99-22.9,15.72,0,29.64,4.94,43.11,16.17l1.35,.9,12.13-16.17-1.35-.9c-17.07-13.47-33.23-19.31-55.24-19.31-30.09,0-52.1,18.41-52.1,43.56v.45c0,28.29,21.11,39.07,52.99,45.81,32.34,6.74,38.62,14.82,38.62,27.4v.9c0,14.37-13.02,24.25-32.34,24.25s-35.03-5.84-51.65-21.11l-1.35-1.35-13.02,15.27,1.35,.9c18.86,17.07,39.07,25.15,63.77,25.15m149.55,.45c30.99,0,48.95-13.92,62.87-27.4l1.35-1.35-13.92-13.47-1.35,1.35c-13.47,13.02-26.95,21.56-48.5,21.56-32.34,0-57.93-27.4-57.93-61.98v-.45c0-35.03,25.15-61.53,57.93-61.53,17.96,0,31.89,6.29,47.16,20.66l1.35,1.35,14.37-15.27-1.35-1.35c-13.47-12.57-30.54-24.7-61.08-24.7-44.46,0-79.49,35.93-79.49,81.29v.45c0,46.26,33.68,80.84,78.59,80.84"/>
    <path class="cls-1" d="M64.4,129.91c0-34.94,27.63-63.37,61.58-63.37s61.63,27.65,61.63,61.63c0,27.13-23.32,49.45-41.3,60.92,6.97,3.98,22.36,8.16,37.1,9.51,21.52-16.65,34.64-42.39,34.64-70.43,0-50.77-41.3-92.07-92.07-92.07S33.91,77.4,33.91,128.17c0,30.66,12.77,57.9,36.92,78.77,22.58,19.51,55.61,32.54,93.22,38.71,8.15-4.5,22.08-17.8,27.31-25.58-31.41-4.04-61.14-11.7-81.06-22.15-30.45-15.98-45.9-38.86-45.9-68.01Z"/>
  </g>
  <g id="Year-Outline">
    <g class="cls-2">
      <path class="qualys-red" d="M565.23,198.43l13.75-11.69c5.42-4.68,7.47-7.19,7.47-10.78,0-3.88-2.79-6.22-6.45-6.22s-6.16,2-9.18,5.99l-5.02-3.94c3.82-5.3,7.59-8.33,14.72-8.33,7.81,0,13.18,4.79,13.18,11.92v.11c0,6.33-3.31,9.7-10.38,15.46l-8.21,6.84h18.99v6.16h-28.86v-5.53Z"/>
      <path class="qualys-red" d="M599.85,197.69l4.91-4.62c2.85,3.37,6.05,5.25,10.5,5.25,3.88,0,6.9-2.4,6.9-6.05v-.11c0-3.94-3.59-6.16-9.18-6.16h-3.25l-1.14-4.39,10.78-11.46h-17.28v-6.1h26.41v5.25l-11.12,11.41c6.05,.74,11.75,3.82,11.75,11.18v.11c0,7.36-5.65,12.66-13.97,12.66-6.96,0-11.92-2.91-15.29-6.96Z"/>
    </g>
  </g>
</svg>