<svg width="216" height="88" viewBox="0 0 216 88" xmlns="http://www.w3.org/2000/svg" xmlns:xlink="http://www.w3.org/1999/xlink"><defs><path id="a" d="M.458.432H40.91V45H.458z"/></defs><g fill="none" fill-rule="evenodd"><path d="M20.226 42.51c-4.708-1.154-9.415-2.777-14.09-4.858-2.123-.968-4.288-3.663-4.733-5.89-1.87-9.814-1.87-19.296 0-28.188C1.847 1.563 4.012-.071 6.13.004c9.355.424 18.837 2.75 28.187 6.913 2.123.966 4.288 3.662 4.732 5.89 1.871 9.813 1.871 19.296.001 28.186-.445 2.015-2.61 3.649-4.728 3.574h-.005c-4.675-.214-9.383-.902-14.09-2.056" fill="#2E8BE0"/><path d="M12.736 17.598l-1.533-.377v3.097l1.533.376c1.397.342 2.089.047 2.089-1.096s-.692-1.657-2.089-2zm-1.533 4.584v3.697l-2.238-.55V14.81l3.996.98c2.509.616 4.163 2.03 4.163 4.373 0 2.39-1.729 3.048-4.163 2.451l-1.758-.43zM23.347 18.128c2.238.549 3.816 1.928 4.447 4.066l-2.194.229c-.36-1.261-1.036-2.117-2.299-2.428-1.862-.457-2.779.82-2.779 2.91 0 2.075.917 3.818 2.795 4.278 1.157.284 1.878-.125 2.254-1.205l2.164 1.297c-.692 1.604-2.15 2.343-4.449 1.78-3.094-.76-5.094-3.264-5.094-6.721 0-3.441 1.984-4.984 5.155-4.206M29.3 19.799l2.253.553v10.52L29.3 30.32z" fill="#F8FAFC"/><path d="M78.712 56.86c-4.707-1.156-9.415-2.778-14.09-4.86-2.123-.966-4.288-3.662-4.732-5.889-1.871-9.814-1.871-19.296-.001-28.188.445-2.013 2.61-3.647 4.728-3.572 9.355.425 18.836 2.75 28.187 6.914 2.122.967 4.287 3.663 4.732 5.89 1.87 9.814 1.87 19.296 0 28.186-.445 2.014-2.61 3.648-4.727 3.573h-.005c-4.676-.212-9.383-.9-14.092-2.055" fill="#2E8BE0"/><path fill="#F8FAFC" d="M66.466 39.438v-10.52l7.197 1.764v1.864l-4.974-1.22v2.314l4.584 1.124v1.864l-4.584-1.124v4.48zM75.227 31.067l2.254.553v10.52l-2.254-.552zM84.275 43.807c-.586-1.797-1.938-6.157-2.51-8.176l-.046-.012v7.561l-2.073-.509v-10.52l3.155.773s2.27 7.351 2.585 8.465c.301-.963 2.494-7.219 2.494-7.219l3.141.771v10.521l-2.073-.509v-7.56l-.046-.01a352.185 352.185 0 01-2.523 6.94l-2.104-.516z"/><path d="M137.198 71.208c-4.708-1.154-9.416-2.777-14.091-4.86-2.122-.965-4.287-3.661-4.732-5.888-1.871-9.814-1.871-19.296-.001-28.187.446-2.013 2.61-3.647 4.728-3.572 9.355.425 18.837 2.75 28.187 6.914 2.123.966 4.288 3.662 4.732 5.889 1.87 9.814 1.87 19.296 0 28.186-.444 2.015-2.61 3.649-4.727 3.574h-.005c-4.675-.213-9.383-.901-14.091-2.056" fill="#2E8BE0"/><path d="M126.896 47.981c2.495 1.033 3.637 2.186 3.637 4.08 0 2.028-1.788 2.867-4.238 2.266-2.659-.653-4.267-2.55-4.357-4.27l2.254.192c.104 1.033.781 1.935 2.103 2.26 1.067.261 1.94.07 1.94-.893 0-.78-.572-1.297-2.21-1.954-2.193-.884-3.862-2.015-3.862-4.134 0-2.105 1.7-2.74 4.027-2.168 2.18.534 3.817 1.973 4.178 3.91l-2.285-.064c-.166-1.002-.84-1.77-1.953-2.042-1.127-.277-1.682.038-1.682.744 0 .902.735 1.368 2.448 2.073M136.29 48.513c-.18.633-1.246 3.526-1.246 3.526l2.539.623s-1.082-3.42-1.263-4.142l-.03-.008zm5.08 9.303l-2.33-.573-.841-2.64-3.771-.927-.842 2.23-2.21-.541 3.787-9.593 2.42.593 3.787 11.45zM147.368 57.634c.24.059.466.084.676.09l-.977-1.32 1.233-.811 1.156 1.562c.48-.513.707-1.36.707-2.442 0-2.135-.902-3.83-2.795-4.294-1.894-.464-2.795.788-2.795 2.922 0 2.135.9 3.828 2.795 4.293zm2.088 2c-.615.09-1.321.052-2.088-.137-3.081-.756-5.125-3.316-5.125-6.727 0-3.412 2.044-4.97 5.125-4.214 3.08.756 5.124 3.316 5.124 6.728 0 1.819-.586 3.118-1.593 3.803l.96 1.287-1.261.803-1.142-1.543z" fill="#F8FAFC"/><g transform="translate(175 42.615)"><mask id="b" fill="#fff"><use xlink:href="#a"/></mask><path d="M20.683 42.943c-4.707-1.155-9.415-2.777-14.09-4.86-2.123-.965-4.288-3.661-4.732-5.888-1.87-9.814-1.87-19.296-.002-28.188C2.305 1.994 4.47.36 6.59.435c9.354.425 18.835 2.75 28.185 6.914 2.123.967 4.288 3.663 4.733 5.89 1.87 9.814 1.87 19.296.001 28.186-.446 2.014-2.61 3.648-4.728 3.573h-.006c-4.675-.212-9.382-.9-14.09-2.055" fill="#2E8BE0" mask="url(#b)"/></g><path d="M185.155 66.905c1.894.464 2.796-.787 2.796-2.922 0-2.134-.902-3.828-2.796-4.293-1.893-.465-2.795.787-2.795 2.922 0 2.134.902 3.828 2.795 4.293m0-9.078c3.08.756 5.125 3.316 5.125 6.728s-2.044 4.969-5.125 4.213c-3.08-.756-5.124-3.316-5.124-6.728s2.044-4.969 5.124-4.213M196.73 60.666c2.237.55 3.815 1.929 4.446 4.067l-2.193.229c-.36-1.261-1.037-2.118-2.3-2.428-1.862-.457-2.779.82-2.779 2.91 0 2.075.917 3.817 2.795 4.278 1.157.284 1.878-.125 2.254-1.205l2.164 1.296c-.692 1.605-2.15 2.344-4.449 1.78-3.094-.76-5.094-3.264-5.094-6.72 0-3.442 1.984-4.984 5.155-4.207M206.739 65.798c-.181.63-1.247 3.526-1.247 3.526l2.539.622s-1.082-3.42-1.263-4.141l-.03-.007zm5.079 9.302l-2.33-.572-.841-2.641-3.771-.926-.842 2.23-2.21-.543 3.787-9.592 2.42.594 3.787 11.45z" fill="#F8FAFC"/></g></svg>