<svg width="216" height="88" viewBox="0 0 216 88" xmlns="http://www.w3.org/2000/svg"><g fill="none" fill-rule="evenodd"><path d="M20.226 42.51c-4.708-1.155-9.415-2.777-14.09-4.859-2.123-.967-4.288-3.662-4.733-5.89-1.87-9.813-1.87-19.295 0-28.187C1.847 1.561 4.012-.073 6.13.002c9.355.425 18.837 2.75 28.187 6.914 2.123.967 4.288 3.663 4.732 5.89 1.871 9.814 1.871 19.296.001 28.186-.445 2.014-2.61 3.648-4.728 3.573h-.005c-4.675-.212-9.383-.9-14.09-2.055" fill="#2E8BE0"/><path d="M17.003 16.782l-2.631 9.876-2.614-.642s-1.157-5.38-1.577-7.36l-.046-.012c-.391 1.784-1.638 6.573-1.638 6.573l-2.615-.642-2.645-11.17 2.285.56s1.382 6.26 1.728 8.285l.045.01c.376-1.845 1.818-7.414 1.818-7.414l2.119.52s1.443 6.276 1.833 8.312l.045.01c.375-1.846 1.774-7.426 1.774-7.426l2.119.52zM22.355 20.56c-.182.632-1.247 3.526-1.247 3.526l2.54.623s-1.083-3.421-1.264-4.142l-.029-.007zm5.08 9.303l-2.33-.573-.842-2.64-3.77-.926-.843 2.229-2.209-.542 3.786-9.592 2.42.593 3.787 11.451zM33.237 25.003c2.494 1.033 3.636 2.185 3.636 4.078 0 2.03-1.788 2.868-4.238 2.268-2.659-.653-4.267-2.55-4.357-4.27l2.254.192c.104 1.032.781 1.934 2.103 2.258 1.067.262 1.939.071 1.939-.89 0-.782-.571-1.299-2.209-1.956-2.193-.884-3.862-2.015-3.862-4.134 0-2.105 1.699-2.739 4.027-2.168 2.18.534 3.817 1.974 4.178 3.911l-2.284-.064c-.166-1.003-.842-1.77-1.954-2.043-1.127-.277-1.682.038-1.682.744 0 .902.736 1.37 2.449 2.074" fill="#F8FAFC"/><path d="M78.712 56.859c-4.707-1.154-9.415-2.777-14.09-4.86-2.123-.965-4.288-3.661-4.732-5.888-1.871-9.814-1.871-19.296-.001-28.187.445-2.013 2.61-3.647 4.728-3.572 9.355.424 18.836 2.75 28.187 6.914 2.122.966 4.287 3.662 4.732 5.889 1.87 9.814 1.87 19.296 0 28.186-.445 2.015-2.61 3.649-4.727 3.574l-.005-.001c-4.676-.212-9.383-.9-14.092-2.055" fill="#2E8BE0"/><path d="M76.021 31.262l-2.63 9.876-2.614-.642s-1.157-5.38-1.577-7.36l-.046-.012c-.39 1.783-1.638 6.573-1.638 6.573l-2.615-.643-2.645-11.169 2.285.56s1.382 6.261 1.728 8.285l.045.011c.376-1.847 1.818-7.415 1.818-7.415l2.12.52s1.442 6.276 1.832 8.311l.045.01c.375-1.846 1.774-7.426 1.774-7.426l2.118.521zM81.375 35.04c-.182.632-1.247 3.526-1.247 3.526l2.539.623s-1.083-3.42-1.263-4.142l-.03-.007zm5.079 9.302l-2.33-.572-.841-2.64-3.772-.926-.841 2.23-2.21-.543 3.787-9.593 2.42.594 3.787 11.45zM87.763 44.663v-10.52l7.197 1.765v1.864l-4.973-1.22v2.315l4.583 1.123v1.864l-4.583-1.124v4.48z" fill="#F8FAFC"/><path d="M137.198 71.208c-4.708-1.155-9.416-2.777-14.091-4.859-2.122-.967-4.287-3.662-4.732-5.89-1.871-9.813-1.871-19.295-.001-28.187.446-2.013 2.61-3.647 4.728-3.572 9.355.425 18.837 2.75 28.187 6.914 2.123.967 4.288 3.663 4.732 5.89 1.87 9.814 1.87 19.296 0 28.186-.444 2.014-2.61 3.648-4.727 3.573h-.005c-4.675-.212-9.383-.9-14.091-2.055" fill="#2E8BE0"/><path d="M131.917 46.84l-1.533-.377v3.096l1.533.376c1.397.343 2.089.047 2.089-1.096 0-1.142-.692-1.657-2.09-2zm-1.533 4.583v3.697l-2.238-.549v-10.52l3.996.98c2.509.615 4.163 2.028 4.163 4.372 0 2.391-1.73 3.048-4.163 2.452l-1.758-.432zM142.528 47.369c2.238.549 3.816 1.929 4.447 4.067l-2.194.229c-.36-1.261-1.036-2.118-2.299-2.43-1.862-.456-2.779.822-2.779 2.912 0 2.074.917 3.817 2.795 4.278 1.157.284 1.878-.125 2.254-1.205l2.164 1.296c-.692 1.605-2.15 2.344-4.449 1.78-3.094-.76-5.094-3.264-5.094-6.72 0-3.442 1.984-4.984 5.155-4.207" fill="#F8FAFC"/><path d="M195.683 85.557c-4.707-1.154-9.415-2.777-14.09-4.859-2.123-.966-4.288-3.662-4.732-5.889-1.87-9.814-1.87-19.296-.002-28.187.446-2.013 2.611-3.648 4.73-3.572 9.354.424 18.835 2.749 28.185 6.914 2.123.966 4.288 3.662 4.733 5.889 1.87 9.814 1.87 19.296.001 28.186-.446 2.014-2.61 3.649-4.728 3.573h-.006c-4.675-.212-9.382-.9-14.09-2.055" fill="#2E8BE0"/><path d="M185.816 62.438c2.495 1.033 3.637 2.186 3.637 4.079 0 2.029-1.788 2.867-4.238 2.267-2.66-.653-4.267-2.55-4.357-4.271l2.253.193c.105 1.032.782 1.934 2.104 2.258 1.067.262 1.94.07 1.94-.891 0-.781-.572-1.298-2.21-1.954-2.194-.885-3.862-2.016-3.862-4.135 0-2.104 1.698-2.74 4.027-2.168 2.18.535 3.817 1.974 4.178 3.91l-2.285-.063c-.166-1.003-.84-1.77-1.953-2.042-1.127-.278-1.683.037-1.683.744 0 .9.736 1.368 2.45 2.073M195.872 60.456c2.238.55 3.816 1.93 4.447 4.066l-2.193.23c-.36-1.26-1.037-2.117-2.3-2.428-1.862-.457-2.78.82-2.78 2.91 0 2.075.918 3.818 2.796 4.279 1.157.283 1.878-.127 2.254-1.207l2.164 1.297c-.692 1.606-2.15 2.345-4.45 1.78-3.093-.758-5.092-3.263-5.092-6.72 0-3.441 1.983-4.984 5.154-4.206M205.882 65.587c-.18.632-1.246 3.527-1.246 3.527l2.538.623s-1.082-3.42-1.263-4.142l-.029-.008zm5.08 9.303l-2.33-.572-.841-2.64-3.772-.927-.841 2.23-2.21-.543 3.787-9.592 2.42.594 3.786 11.45z" fill="#F8FAFC"/></g></svg>