<svg width="216" height="88" viewBox="0 0 216 88" xmlns="http://www.w3.org/2000/svg"><g fill="none" fill-rule="evenodd"><path d="M20.226 42.51c-4.708-1.155-9.415-2.777-14.09-4.859-2.123-.967-4.288-3.662-4.733-5.89-1.87-9.813-1.87-19.295 0-28.187C1.847 1.561 4.012-.073 6.13.002c9.355.425 18.837 2.75 28.187 6.914 2.123.967 4.288 3.663 4.732 5.89 1.871 9.814 1.871 19.296.001 28.186-.445 2.014-2.61 3.648-4.728 3.573h-.005c-4.675-.212-9.383-.9-14.09-2.055" fill="#2E8BE0"/><path d="M17.966 19.484c-.18.632-1.247 3.526-1.247 3.526l2.54.623s-1.082-3.421-1.264-4.142l-.029-.007zm5.08 9.302l-2.33-.572-.841-2.641-3.771-.926-.842 2.23-2.21-.542 3.787-9.593 2.42.594 3.787 11.45zM24.355 18.586l2.254.553v10.52l-2.254-.552z" fill="#F8FAFC"/><path d="M78.712 56.859c-4.707-1.154-9.415-2.777-14.09-4.86-2.123-.965-4.288-3.661-4.732-5.888-1.871-9.814-1.871-19.296-.001-28.187.445-2.013 2.61-3.647 4.728-3.572 9.355.424 18.836 2.75 28.187 6.914 2.122.966 4.287 3.662 4.732 5.889 1.87 9.814 1.87 19.296 0 28.186-.445 2.014-2.61 3.649-4.727 3.574l-.005-.001c-4.676-.212-9.383-.9-14.092-2.055" fill="#2E8BE0"/><path d="M68.68 33.7c2.495 1.032 3.637 2.185 3.637 4.078 0 2.029-1.788 2.868-4.238 2.268-2.66-.654-4.267-2.55-4.357-4.271l2.253.193c.105 1.032.782 1.934 2.104 2.258 1.067.262 1.94.07 1.94-.891 0-.781-.572-1.298-2.21-1.955-2.194-.884-3.862-2.015-3.862-4.134 0-2.105 1.698-2.74 4.027-2.168 2.18.534 3.817 1.974 4.178 3.91l-2.285-.064c-.166-1.002-.84-1.77-1.953-2.042-1.127-.277-1.683.038-1.683.744 0 .902.736 1.368 2.45 2.074M77.052 37.632l-3.98-7.094 2.583.634 2.57 4.658 2.554-3.4 2.51.615-3.982 5.14v4.404l-2.255-.554zM84.51 33.344l2.342.575s3.231 6.024 4.268 7.961l.045.011v-6.913l2.134.523v10.521l-2.344-.575s-3.155-5.899-4.268-7.96l-.044-.012v6.914l-2.134-.524v-10.52z" fill="#F8FAFC"/><path d="M137.198 71.208c-4.708-1.155-9.416-2.777-14.091-4.859-2.122-.967-4.287-3.662-4.732-5.89-1.871-9.813-1.871-19.295-.001-28.187.446-2.013 2.61-3.647 4.728-3.572 9.355.425 18.837 2.75 28.187 6.914 2.123.967 4.288 3.662 4.732 5.89 1.87 9.814 1.87 19.296 0 28.186-.444 2.014-2.61 3.648-4.727 3.573h-.005c-4.675-.212-9.383-.9-14.091-2.055" fill="#2E8BE0"/><path d="M130.556 44.432c2.238.55 3.816 1.928 4.447 4.066l-2.193.23c-.36-1.262-1.037-2.119-2.299-2.429-1.863-.457-2.78.821-2.78 2.91 0 2.075.917 3.818 2.795 4.278 1.157.284 1.878-.125 2.255-1.205l2.163 1.297c-.692 1.604-2.15 2.343-4.449 1.78-3.094-.76-5.093-3.265-5.093-6.72 0-3.443 1.984-4.985 5.154-4.207M140.101 48.847l-1.353-.33v2.84l1.353.331c1.308.321 1.97.062 1.97-1.005 0-1.022-.662-1.515-1.97-1.836m2.284 4.904l2.42 4.908-2.48-.609-2.179-4.517-1.398-.343v3.983l-2.238-.55v-10.52l3.847.943c2.433.598 4.026 1.95 4.026 4.19 0 1.563-.765 2.337-1.998 2.515M146.369 48.522l2.254.553v10.52l-2.254-.552z" fill="#F8FAFC"/><path d="M195.683 85.557c-4.707-1.154-9.415-2.777-14.09-4.859-2.123-.966-4.288-3.662-4.732-5.889-1.87-9.814-1.87-19.296-.002-28.187.446-2.013 2.611-3.648 4.73-3.572 9.354.424 18.835 2.75 28.185 6.914 2.123.966 4.288 3.662 4.733 5.89 1.87 9.813 1.87 19.295.001 28.185-.446 2.014-2.61 3.65-4.728 3.573h-.006c-4.675-.212-9.382-.9-14.09-2.055" fill="#2E8BE0"/><path d="M186.359 58.332s1.923 5.988 2.629 8.461l.03.008c.692-2.13 2.615-7.174 2.615-7.174l2.314.567-3.877 9.57-2.299-.564-3.832-11.46 2.42.592zM199.87 72.17c-.586-1.799-1.938-6.158-2.51-8.177l-.045-.012v7.561l-2.073-.509v-10.52l3.155.773s2.269 7.35 2.585 8.465c.3-.964 2.494-7.219 2.494-7.219l3.14.771v10.52l-2.072-.508v-7.56l-.046-.01a354.544 354.544 0 01-2.523 6.94l-2.104-.516z" fill="#F8FAFC"/></g></svg>