<svg width="216" height="88" viewBox="0 0 216 88" xmlns="http://www.w3.org/2000/svg" xmlns:xlink="http://www.w3.org/1999/xlink"><defs><path id="a" d="M0 .385h40.453v44.568H0z"/><path id="c" d="M.458.433H40.91V45H.458z"/></defs><g fill="none" fill-rule="evenodd"><g transform="translate(0 -.385)"><mask id="b" fill="#fff"><use xlink:href="#a"/></mask><path d="M20.226 42.895c-4.708-1.155-9.415-2.777-14.09-4.859-2.123-.966-4.288-3.662-4.733-5.889-1.87-9.814-1.87-19.296 0-28.187C1.847 1.946 4.012.312 6.13.387c9.355.425 18.837 2.75 28.187 6.915 2.123.966 4.288 3.662 4.732 5.89 1.871 9.813 1.871 19.295.001 28.185-.445 2.014-2.61 3.648-4.728 3.573h-.005c-4.675-.212-9.383-.9-14.09-2.055" fill="#2E8BE0" mask="url(#b)"/></g><path d="M10.571 14.993c2.238.55 3.816 1.93 4.447 4.067l-2.194.23c-.36-1.262-1.036-2.119-2.299-2.429-1.862-.457-2.779.82-2.779 2.91 0 2.074.917 3.817 2.795 4.278 1.157.284 1.878-.125 2.254-1.205l2.164 1.296c-.692 1.605-2.15 2.344-4.449 1.78-3.095-.76-5.094-3.264-5.094-6.72 0-3.442 1.984-4.985 5.155-4.207M20.115 19.41l-1.353-.333v2.841l1.353.332c1.308.32 1.969.061 1.969-1.006 0-1.022-.661-1.515-1.97-1.835m2.286 4.904l2.418 4.907-2.48-.608-2.177-4.517-1.4-.343v3.982l-2.237-.549v-10.52l3.847.943c2.433.597 4.027 1.95 4.027 4.19 0 1.562-.766 2.337-1.998 2.515M30.44 22.543c-.18.632-1.247 3.527-1.247 3.527l2.54.622s-1.083-3.42-1.263-4.141l-.03-.008zm5.08 9.303l-2.33-.572-.84-2.641-3.773-.926-.84 2.229-2.21-.542 3.786-9.592 2.42.594 3.786 11.45z" fill="#F8FAFC"/><path d="M78.712 56.86c-4.707-1.156-9.415-2.778-14.09-4.86-2.123-.967-4.288-3.663-4.732-5.89-1.871-9.813-1.871-19.295-.001-28.187.445-2.013 2.61-3.647 4.728-3.572 9.355.425 18.836 2.75 28.187 6.914 2.122.966 4.287 3.662 4.732 5.89 1.87 9.814 1.87 19.296 0 28.186-.445 2.014-2.61 3.648-4.727 3.573h-.005c-4.676-.212-9.383-.9-14.092-2.055" fill="#2E8BE0"/><path d="M77 31.291c2.239.55 3.817 1.93 4.448 4.067l-2.194.23c-.36-1.262-1.036-2.119-2.3-2.429-1.861-.457-2.78.821-2.78 2.91 0 2.075.919 3.817 2.797 4.278 1.156.284 1.878-.125 2.254-1.205l2.163 1.297c-.692 1.604-2.15 2.343-4.45 1.78-3.093-.76-5.092-3.265-5.092-6.72 0-3.443 1.984-4.985 5.155-4.208M82.954 32.963l2.253.553v10.52l-2.253-.552z" fill="#F8FAFC"/><path d="M137.198 71.208c-4.708-1.155-9.416-2.777-14.091-4.859-2.122-.966-4.287-3.662-4.732-5.889-1.871-9.814-1.871-19.296-.001-28.187.446-2.014 2.61-3.648 4.728-3.573 9.355.425 18.837 2.75 28.187 6.915 2.123.966 4.288 3.662 4.732 5.89 1.87 9.813 1.87 19.295 0 28.185-.444 2.014-2.61 3.648-4.727 3.573h-.005c-4.675-.212-9.383-.9-14.091-2.055" fill="#2E8BE0"/><path d="M127.557 43.695c2.238.55 3.817 1.93 4.447 4.067l-2.193.23c-.36-1.262-1.037-2.119-2.299-2.43-1.863-.457-2.78.821-2.78 2.911 0 2.074.917 3.817 2.795 4.278 1.157.284 1.878-.125 2.255-1.205l2.163 1.296c-.692 1.605-2.15 2.344-4.449 1.78-3.094-.759-5.093-3.264-5.093-6.72 0-3.442 1.984-4.984 5.154-4.207M138.004 50.707c2.494 1.033 3.637 2.186 3.637 4.078 0 2.03-1.788 2.868-4.24 2.268-2.658-.653-4.265-2.55-4.355-4.27l2.253.192c.105 1.032.782 1.934 2.103 2.258 1.068.263 1.94.071 1.94-.89 0-.782-.571-1.298-2.21-1.956-2.193-.884-3.861-2.015-3.861-4.134 0-2.104 1.698-2.739 4.027-2.168 2.179.534 3.817 1.974 4.178 3.911l-2.285-.064c-.166-1.003-.841-1.77-1.954-2.043-1.126-.277-1.682.038-1.682.744 0 .902.736 1.37 2.449 2.074M147.398 51.238c-.182.632-1.247 3.526-1.247 3.526l2.54.623s-1.083-3.42-1.264-4.14l-.029-.009zm5.08 9.303l-2.33-.573-.842-2.64-3.77-.926-.843 2.23-2.209-.543 3.786-9.592 2.42.593 3.787 11.451z" fill="#F8FAFC"/><g transform="translate(175 42.615)"><mask id="d" fill="#fff"><use xlink:href="#c"/></mask><path d="M20.683 42.943c-4.707-1.155-9.415-2.777-14.09-4.859-2.123-.967-4.288-3.663-4.732-5.89-1.87-9.813-1.87-19.295-.002-28.187C2.305 1.994 4.47.36 6.59.435c9.354.425 18.835 2.75 28.185 6.914 2.123.966 4.288 3.662 4.733 5.89 1.87 9.814 1.87 19.296.001 28.186-.446 2.014-2.61 3.648-4.728 3.573h-.006c-4.675-.212-9.382-.901-14.09-2.055" fill="#2E8BE0" mask="url(#d)"/></g><path d="M191.265 59.326c2.238.55 3.816 1.928 4.447 4.066l-2.194.23c-.36-1.262-1.036-2.119-2.299-2.429-1.862-.457-2.779.821-2.779 2.91 0 2.075.917 3.817 2.795 4.278 1.157.284 1.878-.125 2.254-1.205l2.164 1.297c-.692 1.604-2.15 2.343-4.449 1.78-3.095-.76-5.094-3.265-5.094-6.72 0-3.443 1.984-4.985 5.155-4.207M201.712 66.338c2.494 1.032 3.636 2.185 3.636 4.078 0 2.029-1.787 2.868-4.238 2.267-2.66-.653-4.266-2.55-4.357-4.27l2.254.192c.105 1.033.78 1.935 2.103 2.259 1.068.262 1.939.07 1.939-.891 0-.781-.571-1.298-2.21-1.955-2.192-.884-3.861-2.015-3.861-4.134 0-2.105 1.699-2.74 4.027-2.17 2.18.536 3.817 1.976 4.178 3.912l-2.284-.064c-.166-1.003-.842-1.77-1.954-2.042-1.127-.277-1.682.038-1.682.744 0 .902.736 1.368 2.449 2.074" fill="#F8FAFC"/></g></svg>