<svg width="216" height="88" viewBox="0 0 216 88" xmlns="http://www.w3.org/2000/svg" xmlns:xlink="http://www.w3.org/1999/xlink"><defs><path id="a" d="M0 .385h40.453v44.568H0z"/><path id="c" d="M.458.433H40.91V45H.458z"/></defs><g fill="none" fill-rule="evenodd"><g transform="translate(0 -.385)"><mask id="b" fill="#fff"><use xlink:href="#a"/></mask><path d="M20.226 42.895c-4.708-1.155-9.415-2.777-14.09-4.859-2.123-.966-4.288-3.662-4.733-5.889-1.87-9.814-1.87-19.296 0-28.188C1.847 1.946 4.012.312 6.13.387c9.355.425 18.837 2.75 28.187 6.914 2.123.967 4.288 3.663 4.732 5.89 1.871 9.814 1.871 19.296.001 28.186-.445 2.014-2.61 3.648-4.728 3.573h-.005c-4.675-.212-9.383-.9-14.09-2.055" fill="#2E8BE0" mask="url(#b)"/></g><path fill="#F8FAFC" d="M11.255 15.372l8.34 2.046v1.88l-3.034-.746v8.642l-2.27-.556v-8.643l-3.036-.744zM24.737 20.543l-1.534-.376v3.096l1.534.376c1.396.342 2.088.047 2.088-1.096 0-1.142-.692-1.657-2.088-2zm-1.534 4.584v3.697l-2.238-.55v-10.52l3.997.98c2.509.616 4.162 2.03 4.162 4.373 0 2.39-1.728 3.048-4.162 2.451l-1.759-.43z"/><path d="M78.712 56.859c-4.707-1.154-9.415-2.777-14.09-4.858-2.123-.967-4.288-3.663-4.732-5.89-1.871-9.814-1.871-19.296-.001-28.187.445-2.013 2.61-3.647 4.728-3.572 9.355.425 18.836 2.75 28.187 6.914 2.122.966 4.287 3.662 4.732 5.889 1.87 9.815 1.87 19.297 0 28.187-.445 2.014-2.61 3.648-4.727 3.573h-.005c-4.676-.213-9.383-.901-14.092-2.056" fill="#2E8BE0"/><path d="M72.438 30.172c2.238.55 3.816 1.93 4.447 4.067l-2.193.23c-.36-1.262-1.037-2.119-2.299-2.429-1.863-.457-2.78.82-2.78 2.91 0 2.074.917 3.817 2.795 4.278 1.157.284 1.878-.125 2.255-1.205l2.163 1.297c-.692 1.604-2.15 2.343-4.449 1.78-3.094-.76-5.093-3.265-5.093-6.72 0-3.443 1.983-4.985 5.154-4.208M83.02 43.5c-.586-1.798-1.938-6.157-2.51-8.176l-.046-.012v7.561l-2.073-.509v-10.52l3.156.773s2.27 7.351 2.584 8.465c.301-.963 2.494-7.219 2.494-7.219l3.141.771v10.521l-2.073-.509v-7.56l-.045-.01a354.063 354.063 0 01-2.524 6.94L83.02 43.5z" fill="#F8FAFC"/><path d="M137.198 71.208c-4.708-1.155-9.416-2.777-14.091-4.859-2.122-.966-4.287-3.662-4.732-5.889-1.871-9.814-1.871-19.296-.001-28.188.446-2.013 2.61-3.647 4.728-3.572 9.355.425 18.837 2.75 28.187 6.914 2.123.967 4.288 3.663 4.732 5.89 1.87 9.814 1.87 19.296 0 28.186-.444 2.014-2.61 3.648-4.727 3.573h-.005c-4.675-.212-9.383-.9-14.091-2.055" fill="#2E8BE0"/><path d="M130.482 46.487l-1.534-.377v3.098l1.534.376c1.396.341 2.088.046 2.088-1.097s-.692-1.657-2.088-2zm-1.534 4.584v3.697l-2.238-.55v-10.52l3.997.98c2.51.617 4.162 2.03 4.162 4.373 0 2.39-1.728 3.048-4.162 2.451l-1.759-.431zM141.003 57.726c-.586-1.797-1.938-6.157-2.51-8.176l-.045-.011v7.56l-2.073-.51V46.07l3.155.774s2.269 7.35 2.584 8.465c.3-.963 2.495-7.22 2.495-7.22l3.14.772v10.52l-2.073-.508v-7.56l-.045-.011a345.411 345.411 0 01-2.524 6.94l-2.104-.515z" fill="#F8FAFC"/><g transform="translate(175 42.615)"><mask id="d" fill="#fff"><use xlink:href="#c"/></mask><path d="M20.683 42.942c-4.707-1.154-9.415-2.777-14.09-4.858-2.123-.967-4.288-3.663-4.732-5.89-1.87-9.814-1.87-19.296-.002-28.187C2.305 1.994 4.47.36 6.59.435c9.354.425 18.835 2.75 28.185 6.914 2.123.966 4.288 3.662 4.733 5.89 1.87 9.813 1.87 19.295.001 28.185-.446 2.015-2.61 3.65-4.728 3.574h-.006c-4.675-.213-9.382-.9-14.09-2.056" fill="#2E8BE0" mask="url(#d)"/></g><path fill="#F8FAFC" d="M183.48 57.626l2.254.553V68.7l-2.254-.553zM192.588 68.729c1.893.464 2.795-.787 2.795-2.922 0-2.134-.902-3.828-2.795-4.293-1.894-.464-2.795.788-2.795 2.922 0 2.135.9 3.828 2.795 4.293m0-9.078c3.08.756 5.124 3.316 5.124 6.728s-2.044 4.969-5.124 4.213c-3.081-.756-5.125-3.316-5.125-6.727 0-3.412 2.044-4.97 5.125-4.214M204.16 62.49c2.239.55 3.817 1.928 4.448 4.066l-2.193.23c-.36-1.261-1.037-2.118-2.3-2.428-1.862-.458-2.78.82-2.78 2.91 0 2.075.918 3.817 2.796 4.278 1.157.283 1.878-.126 2.255-1.206l2.163 1.297c-.692 1.605-2.15 2.344-4.45 1.78-3.093-.76-5.092-3.264-5.092-6.72 0-3.443 1.984-4.985 5.154-4.207"/></g></svg>