<svg width="82" height="29" viewBox="0 0 82 29" xmlns="http://www.w3.org/2000/svg"><g fill="#44526B" fill-rule="evenodd"><path d="M0 4.025v-.028C0 1.21 2.087-.563 5.042.163 6.861.61 7.954 1.508 8.893 2.635L7.786 3.638c-.798-.924-1.624-1.603-2.759-1.881-1.848-.454-3.22.737-3.22 2.656v.027c0 1.92 1.358 3.808 3.235 4.268 1.204.296 1.975.008 2.814-.57L8.963 9.53c-1.023.813-2.143 1.21-3.978.76C2.115 9.588 0 6.84 0 4.026M10.669 1.291l1.708.42v10.225l-1.708-.419zM20.371 10.241v-.028c0-1.303-.937-2.612-2.269-2.938-1.358-.333-2.225.52-2.225 1.807v.028c0 1.29.937 2.598 2.254 2.921 1.373.336 2.24-.516 2.24-1.79m-6.189-1.519v-.028c0-2.115 1.68-3.453 3.95-2.897 2.267.557 3.934 2.69 3.934 4.804v.028c0 2.101-1.68 3.44-3.964 2.88-2.253-.554-3.92-2.685-3.92-4.787M23.702 12.025V7.318l1.694.416v4.203c0 1.148.575 1.933 1.583 2.181.98.24 1.666-.264 1.666-1.412V8.531l1.708.42v7.396l-1.708-.42V14.78c-.476.583-1.163 1.017-2.31.736-1.667-.409-2.633-1.767-2.633-3.49M38.067 14.555v-.028c0-1.43-1.008-2.615-2.143-2.893-1.162-.285-2.128.389-2.128 1.846v.027c0 1.429.981 2.608 2.128 2.89 1.135.278 2.143-.427 2.143-1.842m-5.979-1.467v-.028c0-2.451 1.667-3.43 3.43-2.996 1.22.299 1.99 1.09 2.522 1.92V8.008l1.694.416v10.225l-1.694-.415V17c-.547.636-1.317 1.064-2.522.768-1.736-.426-3.43-2.228-3.43-4.68M52.194 17.81L50.5 13.474l-1.68 3.51 3.375.828zm-2.465-6.585l1.596.392 4.313 10.933-1.82-.446-.994-2.611-4.635-1.138-1.01 2.12-1.763-.433 4.313-8.817zM63.043 20.683v-.028c0-1.43-.98-2.608-2.114-2.886-1.148-.281-2.157.423-2.157 1.838v.028c0 1.415 1.009 2.614 2.157 2.896 1.162.286 2.114-.391 2.114-1.848zm-5.937-5.17l1.708.42v1.233c.546-.636 1.317-1.064 2.521-.768 1.737.426 3.431 2.215 3.431 4.68v.028c0 2.45-1.681 3.426-3.431 2.996-1.232-.302-2.003-1.108-2.521-1.921v3.39l-1.708-.42v-9.637zM72.438 22.988v-.027c0-1.43-.98-2.61-2.115-2.887-1.148-.282-2.156.423-2.156 1.838v.027c0 1.416 1.007 2.616 2.156 2.898 1.163.285 2.115-.392 2.115-1.85zm-5.938-5.17l1.709.42v1.233c.545-.637 1.316-1.064 2.52-.768 1.737.425 3.431 2.215 3.431 4.68v.027c0 2.451-1.68 3.427-3.43 2.997-1.233-.302-2.004-1.108-2.522-1.922v3.39l-1.707-.419V17.82zM75.305 26.409l.757-.963c.812.8 1.667 1.319 2.423 1.505.728.178 1.148-.027 1.148-.517v-.028c0-.575-.784-.963-1.652-1.442-1.093-.576-2.312-1.324-2.312-2.724v-.028c0-1.415 1.163-1.984 2.633-1.623.925.227 1.933.796 2.718 1.507l-.673 1.039c-.714-.61-1.471-1.061-2.087-1.212-.658-.161-1.036.068-1.036.474v.028c0 .546.799.967 1.666 1.46 1.079.6 2.298 1.39 2.298 2.72v.028c0 1.555-1.205 2.03-2.745 1.652-1.051-.257-2.213-.907-3.138-1.876"/></g></svg>