<svg width="284" height="642" viewBox="0 0 284 642" xmlns="http://www.w3.org/2000/svg" xmlns:xlink="http://www.w3.org/1999/xlink"><defs><path id="a" d="M.47.142h268.062V625.45H.47z"/></defs><g fill="none" fill-rule="evenodd"><g transform="translate(15 4.446)"><mask id="b" fill="#fff"><use xlink:href="#a"/></mask><path d="M239.68 624.588L29.322 572.98C13.388 569.07.47 552.982.47 537.047V15.613C.47-.322 46.346-1.984 62.281 1.925L239.68 45.45c15.936 3.91 28.854 19.997 28.854 35.932v521.433c0 15.935-12.918 25.683-28.854 21.774" fill="#B5CFE4" mask="url(#b)"/></g><path d="M253.53 640.295s19.25-4.66 27.356-21.608l-35.31-10.077 7.955 31.685zM6.079 15.396S16.867 2.101 38.483.068c0 0 11.078-1.18 38.797 6.304l-4.245 27.324-66.957-18.3z" fill="#B5CFE4"/><path d="M239.21 640.583L28.852 588.974C12.917 585.064 0 568.978 0 553.042V31.609C0 15.674 12.917 5.925 28.853 9.835l210.356 51.61c15.935 3.909 28.853 19.996 28.853 35.931V618.81c0 15.934-12.918 25.683-28.853 21.773" fill="#F6F9FB"/><path d="M193.399 607.047L74.663 577.915c-1.161-.284-2.103-1.457-2.103-2.618 0-1.162.942-1.872 2.103-1.587l118.736 29.13c1.162.286 2.104 1.458 2.104 2.62 0 1.16-.942 1.87-2.104 1.587" fill="#B5CFE4"/></g></svg>