<svg width="229" height="89" viewBox="0 0 229 89" xmlns="http://www.w3.org/2000/svg"><g fill="none" fill-rule="evenodd"><path fill="#FFF" d="M.25 32.565l227.71 55.867V56.185L.25.32z"/><path d="M0 0v32.762l227.901 55.913.309.077V55.99L.31.077 0 0zm.5 32.369V.638l227.21 55.744v31.732L.5 32.369z" fill="#6BA3CF"/><path d="M15.935 10.036c5.514 1.353 8.287 4.984 8.287 4.984s.317 2.262.114 6.61c-.304 6.567-8.398 8.571-8.4 8.571 0 0-8.095-5.976-8.4-12.694-.202-4.447.115-6.553.115-6.553s2.77-2.27 8.285-.918" fill="#ED2E26"/><path d="M11.797 17.754c0-2.35 1.857-3.804 4.14-3.244 2.284.56 4.142 2.874 4.142 5.159 0 1.823-1.567 2.939-2.775 3.414.469.382 1.503.917 2.493 1.25 1.446-.764 2.328-2.278 2.328-4.162 0-3.413-2.776-6.87-6.188-7.707-3.412-.837-6.19 1.258-6.19 4.67 0 2.06.86 4.102 2.483 5.904 1.517 1.684 3.738 3.104 6.265 4.138.548-.168 1.485-.832 1.836-1.268-2.111-.79-4.11-1.795-5.45-2.826-2.046-1.576-3.084-3.37-3.084-5.328" fill="#FFF"/><path d="M29.06 25.954l.588-.551c.878 1.006 1.718 1.608 2.881 1.894 1.13.277 1.873-.14 1.873-.968v-.024c0-.78-.42-1.327-2.185-2.131-1.931-.894-2.82-1.736-2.82-3.115v-.024c0-1.32 1.165-2.005 2.76-1.613 1.225.3 2.1.863 2.954 1.756l-.553.596c-.78-.827-1.56-1.294-2.424-1.506-1.093-.27-1.79.16-1.79.916v.023c0 .792.434 1.342 2.282 2.192 1.872.867 2.737 1.763 2.737 3.046v.023c0 1.44-1.2 2.08-2.87 1.672-1.331-.327-2.424-1.04-3.432-2.186M41.687 26.833c-.096-1.151-.745-2.293-1.98-2.597-1.082-.265-1.899.434-2.018 1.617l3.997.98zm-4.934-.851v-.024c0-1.787 1.26-2.917 2.976-2.496 1.837.45 2.894 2.173 2.894 3.985 0 .119 0 .19-.011.297l-4.923-1.208c.132 1.376 1.08 2.364 2.185 2.634.852.21 1.453.009 1.956-.395l.578.657c-.626.543-1.382.825-2.559.536-1.703-.418-3.096-2.067-3.096-3.986zM48.346 29.63v-.6a7.79 7.79 0 00-1.824-.712c-1.165-.285-1.813.06-1.813.839v.024c0 .78.72 1.412 1.56 1.618 1.14.28 2.077-.186 2.077-1.17m-4.573-.642v-.024c0-1.307 1.08-1.737 2.653-1.352a7.864 7.864 0 011.908.733v-.216c0-1.116-.683-1.86-1.848-2.144-.733-.18-1.308-.13-1.885-.007l-.276-.824a4.74 4.74 0 012.256.038c.876.215 1.549.608 2.005 1.175.42.524.637 1.176.637 1.968v3.79l-.89-.22v-.934c-.43.458-1.151.785-2.243.517-1.153-.283-2.317-1.228-2.317-2.5M51.188 26.405l.924.227v1.62c.456-.92 1.356-1.444 2.532-1.107v.995l-.072-.017c-1.355-.333-2.46.367-2.46 2.24v2.47l-.925-.228v-6.2zM55.4 30.57v-.025c0-1.75 1.37-2.903 3.182-2.458 1.176.29 1.91.96 2.484 1.713l-.61.498c-.494-.637-1.046-1.192-1.886-1.398-1.26-.31-2.222.522-2.222 1.854v.023c0 1.344.986 2.652 2.281 2.971.792.194 1.406-.052 1.898-.458l.588.695c-.624.543-1.369.864-2.533.578-1.813-.444-3.182-2.255-3.182-3.994M62.637 26.66l.924.226v3.634c.408-.572 1.056-.952 2.125-.69 1.5.368 2.377 1.591 2.377 3.065v3.851l-.924-.227v-3.622c0-1.152-.625-2.025-1.717-2.293-1.07-.26-1.861.324-1.861 1.488v3.55l-.924-.228V26.66zM69.91 35.94l1.103.27v1.26l-1.104-.272zM72.837 36.658l1.104.271v1.26l-1.104-.272zM75.765 37.376l1.104.271v1.259l-1.104-.27z" fill="#6A778B"/></g></svg>