<svg width="213" height="60" viewBox="0 0 213 60" xmlns="http://www.w3.org/2000/svg" xmlns:xlink="http://www.w3.org/1999/xlink"><defs><radialGradient cx="50%" cy="49.999%" fx="50%" fy="49.999%" r="185.792%" gradientTransform="matrix(.26893 .21286 -.00997 .16626 .37 .31)" id="b"><stop stop-color="#231F1F" offset="0%"/><stop stop-color="#FFF" offset="100%"/></radialGradient><path d="M188.123 59.011c-20.349-.044-51.195-3.942-85.175-11.345C44.352 34.9-1.372 16.55.822 6.675 3.015-3.2 52.295-.855 110.892 11.91 169.486 24.677 215.21 43.03 213.017 52.903c-.908 4.083-9.868 6.077-24.21 6.108h-.685" id="a"/></defs><g transform="translate(-.073 .183)" fill="none" fill-rule="evenodd"><mask id="c" fill="#fff"><use xlink:href="#a"/></mask><path d="M213.018 52.903c-2.194 9.874-51.474 7.529-110.07-5.237S-1.372 16.55.822 6.675C3.015-3.2 52.295-.855 110.892 11.91 169.486 24.677 215.21 43.03 213.017 52.903" fill-opacity=".2" fill="url(#b)" mask="url(#c)"/></g></svg>