<svg xmlns="http://www.w3.org/2000/svg" width="59" height="62" viewBox="0 0 59 62"><g fill="none" fill-rule="evenodd"><path fill="#1CABE2" d="M44.17 20.92c-.26 0-.521-.109-.71-.29a1.048 1.048 0 01-.29-.71c0-.27.11-.529.29-.71.38-.37 1.05-.38 1.42 0 .189.19.29.44.29.71a.984.984 0 01-.29.7c-.19.191-.45.3-.71.3z"/><path fill="#2FACE1" d="M46.41 26.681a.997.997 0 01.72-1.22c.53-.14 1.08.18 1.22.71a.996.996 0 01-.97 1.25c-.45 0-.85-.29-.97-.74m1.21 7.98a1 1 0 111.14-.84c-.07.5-.5.85-.99.85-.05 0-.1 0-.15-.01m-2.86 6.68a.992.992 0 01-.33-1.37v-.01c.29-.46.91-.61 1.38-.32a1 1 0 01.32 1.38v-.01a.988.988 0 01-1.37.33m-4.46 5.45c-.26 0-.52-.1-.71-.29-.18-.18-.29-.44-.29-.71 0-.26.11-.52.3-.7.37-.38 1.04-.38 1.41 0 .19.18.29.44.29.7 0 .27-.1.53-.29.71-.18.19-.44.29-.71.29"/><path fill="#1CABE2" d="M15.51 43.03c-.27 0-.53-.11-.71-.3a.967.967 0 01-.29-.7c0-.27.1-.53.29-.71.36-.37 1.04-.37 1.41 0a.98.98 0 010 1.41c-.18.19-.44.3-.7.3"/><path fill="#2FACE1" d="M14.07 22.101a1.002 1.002 0 011.08-1.69.99.99 0 01.3 1.38h.01c-.19.3-.52.46-.85.46-.18 0-.37-.05-.54-.15m-2.23 6.99a.999.999 0 01-.83-1.15.99.99 0 011.14-.82c.55.08.92.6.83 1.14-.08.49-.5.84-.98.84-.06 0-.11 0-.16-.01m-.5 6.58a.992.992 0 01.73-1.21 1 1 0 011.21.72v.01a1.004 1.004 0 01-.97 1.24.992.992 0 01-.97-.76M19.75 17a.977.977 0 01-.71-.3.975.975 0 010-1.41c.359-.37 1.04-.37 1.41 0a.975.975 0 010 1.41c-.18.19-.44.3-.7.3"/><path stroke="#B5D0E7" stroke-width="2" d="M5.471 56.047h11.22l10.934 4.894L52.827 48.12l-2.439-4.674-20.68 6.589" stroke-linecap="round" stroke-linejoin="round"/><path stroke="#B5D0E7" stroke-width="2" d="M1 42.023h20.696L32.384 52.71l-3.336 3.336-7.182-7.182" stroke-linecap="round" stroke-linejoin="round"/><path fill="#FEFEFE" d="M1 58.486h6.504V39.584H1"/><path stroke="#B5D0E7" stroke-width="2" d="M1 58.486h6.504V39.584H1zM53.356 5.894h-11.22L31.202 1 6 13.821l2.439 4.674 20.681-6.589" stroke-linecap="round" stroke-linejoin="round"/><path stroke="#B5D0E7" stroke-width="2" d="M57.827 19.918H37.131L26.443 9.23l3.336-3.336 7.182 7.182" stroke-linecap="round" stroke-linejoin="round"/><path fill="#FEFEFE" d="M51.324 22.357h6.504V3.455h-6.504"/><path stroke="#B5D0E7" stroke-width="2" d="M51.324 22.357h6.504V3.455h-6.504z" stroke-linecap="round" stroke-linejoin="round"/><path fill="#2FACE1" d="M29.863 19.788c6.512 0 9.786 3.484 9.786 3.484s.375 2.579.136 7.772c-.36 7.845-9.92 12.556-9.92 12.556s-9.56-4.712-9.92-12.557c-.24-5.192.135-7.771.135-7.771s3.271-3.484 9.783-3.484"/><path stroke="#FEFEFE" stroke-width="2" d="M24.42 30.376l3.842 3.841 7.047-7.047" stroke-linecap="round" stroke-linejoin="round"/></g></svg>