<svg xmlns="http://www.w3.org/2000/svg" width="55" height="60" viewBox="0 0 55 60"><g fill="none" fill-rule="evenodd"><path fill="#FFF" d="M21.5 50.825C8.8 50.825 1 47.74 1 45.529V34.008h41v11.52c0 2.212-7.799 5.297-20.5 5.297"/><path fill="#B5D0E7" d="M43 33.008H0v12.52c0 3.478 9.626 6.297 21.5 6.297S43 49.005 43 45.529V33.008zm-2 2l.002 10.502c-.278 1.188-6.696 4.315-19.502 4.315S2.276 46.698 2 45.529V35.008h39z"/><path fill="#FFF" d="M21.5 37.468C8.8 37.468 1 34.383 1 32.172v-11.52h41v11.52c0 2.212-7.799 5.297-20.5 5.297"/><path fill="#B5D0E7" d="M43 19.652H0v12.52c0 3.478 9.626 6.297 21.5 6.297S43 35.649 43 32.173V19.652zm-2 2l.002 10.502c-.278 1.188-6.696 4.315-19.502 4.315S2.276 33.342 2 32.173V21.652h39z"/><path fill="#FFF" d="M21.5 24.113C8.8 24.113 1 21.028 1 18.817V7.296h41v11.521c0 2.211-7.799 5.296-20.5 5.296"/><path fill="#B5D0E7" d="M43 6.296H0v12.521c0 3.477 9.626 6.296 21.5 6.296S43 22.294 43 18.817V6.296zm-2 2l.002 10.502c-.278 1.188-6.696 4.315-19.502 4.315S2.276 19.986 2 18.817V8.296h39z"/><path fill="#FFF" d="M21.5 11.591C8.8 11.591 1 8.508 1 6.296 1 4.083 8.8.998 21.5.998S42 4.084 42 6.295c0 2.211-7.799 5.296-20.5 5.296"/><path fill="#B5D0E7" d="M21.5 0C9.626 0 0 2.819 0 6.296c0 3.477 9.626 6.296 21.5 6.296S43 9.773 43 6.296C43 2.819 33.374 0 21.5 0m0 2c12.806 0 19.224 3.127 19.502 4.277-.278 1.188-6.696 4.315-19.502 4.315S2.276 7.465 1.998 6.315C2.276 5.127 8.694 2 21.5 2"/><path fill="#2FACE1" fill-rule="nonzero" d="M15.191 19.163c.335.03.672.057 1.012.082a1 1 0 10.146-1.995c-.33-.024-.657-.05-.981-.08a1 1 0 00-.177 1.993zm7.093.268c.339-.004.677-.01 1.013-.018a1 1 0 00-.048-1.999c-.327.008-.656.014-.986.017a1 1 0 00.021 2zm7.091-.427c.34-.038.677-.08 1.01-.123a1 1 0 10-.26-1.983c-.322.042-.647.082-.976.12a1 1 0 10.226 1.986zm-14.184 12.68c.335.03.672.057 1.012.082a1 1 0 10.146-1.995c-.33-.024-.657-.05-.981-.08a1 1 0 00-.177 1.993zm7.093.268c.339-.004.677-.01 1.013-.018a1 1 0 00-.048-1.999c-.327.008-.656.014-.986.017a1 1 0 00.021 2zm7.091-.427c.34-.038.677-.08 1.01-.123a1 1 0 10-.26-1.983c-.322.042-.647.082-.976.12a1 1 0 10.226 1.986zM15.191 45.04c.335.03.672.057 1.012.082a1 1 0 10.146-1.995c-.33-.024-.657-.05-.981-.08a1 1 0 00-.177 1.993zm7.093.268c.339-.004.677-.01 1.013-.018a1 1 0 00-.048-2c-.327.009-.656.014-.986.018a1 1 0 00.021 2zm7.091-.427c.34-.039.677-.08 1.01-.123a1 1 0 10-.26-1.983c-.322.042-.647.082-.976.119a1 1 0 10.226 1.987z"/><path fill="#2FACE1" d="M27.49 30l25.064.036A2.45 2.45 0 0155 32.49l-.036 25.063A2.45 2.45 0 0152.511 60l-25.064-.036A2.45 2.45 0 0125 57.51l.036-25.063A2.45 2.45 0 0127.49 30"/><path stroke="#FFF" stroke-width="1.75" d="M48 49.962V54H32v-4.038m7.867-.659l-4.772-4.772m9.543 0l-4.772 4.773M40 35.997v13.307" stroke-linecap="round" stroke-linejoin="round"/></g></svg>