<svg xmlns="http://www.w3.org/2000/svg" width="58" height="62" viewBox="0 0 58 62"><g fill="none" fill-rule="evenodd"><path fill="#FEFEFE" d="M56.18 23.97c0-4.287-2.95-7.86-6.922-8.872.002-.108.032-.207.032-.315C49.29 7.17 43.119 1 35.507 1c-2.531 0-4.89.693-6.916 1.89A13.546 13.546 0 0021.674 1C14.062 1 7.89 7.17 7.89 14.783c0 .108.03.207.032.315C3.95 16.11 1 19.683 1 23.97c0 .06.008.119.009.179-.001.066-.01.13-.01.198a9.14 9.14 0 001.449 4.95 9.23 9.23 0 005.132 3.86H49.6a9.208 9.208 0 004.256-2.704 9.147 9.147 0 002.325-6.106c0-.067-.008-.132-.01-.198.002-.06.01-.12.01-.18"/><path stroke="#B5D0E7" stroke-width="2" d="M56.18 23.97c0-4.287-2.95-7.86-6.922-8.872.002-.108.032-.207.032-.315C49.29 7.17 43.119 1 35.507 1c-2.531 0-4.89.693-6.916 1.89A13.546 13.546 0 0021.674 1C14.062 1 7.89 7.17 7.89 14.783c0 .108.03.207.032.315C3.95 16.11 1 19.683 1 23.97c0 .06.008.119.009.179-.001.066-.01.13-.01.198a9.14 9.14 0 001.449 4.95 9.23 9.23 0 005.132 3.86H49.6a9.208 9.208 0 004.256-2.704 9.147 9.147 0 002.325-6.106c0-.067-.008-.132-.01-.198.002-.06.01-.12.01-.18z" stroke-linecap="round" stroke-linejoin="round"/><path fill="#FEFEFE" d="M6.838 57.03v-7.788A5.242 5.242 0 0112.08 44h11.448a5.242 5.242 0 005.243-5.242v-3.063"/><path stroke="#B5D0E7" stroke-width="2" d="M6.838 57.03v-7.788A5.242 5.242 0 0112.08 44h11.448a5.242 5.242 0 005.243-5.242v-3.063" stroke-linecap="round" stroke-linejoin="round"/><path fill="#FEFEFE" d="M10.81 57.03a3.973 3.973 0 01-7.944 0 3.973 3.973 0 017.944 0"/><path stroke="#B5D0E7" stroke-width="2" d="M10.81 57.03a3.973 3.973 0 01-7.944 0 3.973 3.973 0 017.944 0z" stroke-linecap="round" stroke-linejoin="round"/><path fill="#FEFEFE" d="M50.703 57.03v-7.788A5.242 5.242 0 0045.461 44H34.013a5.242 5.242 0 01-5.243-5.242v-3.063"/><path stroke="#B5D0E7" stroke-width="2" d="M50.703 57.03v-7.788A5.242 5.242 0 0045.461 44H34.013a5.242 5.242 0 01-5.243-5.242v-3.063" stroke-linecap="round" stroke-linejoin="round"/><path fill="#FEFEFE" d="M46.371 57.03a3.973 3.973 0 007.944 0 3.973 3.973 0 00-7.944 0"/><path stroke="#B5D0E7" stroke-width="2" d="M46.371 57.03a3.973 3.973 0 007.944 0 3.973 3.973 0 00-7.944 0z" stroke-linecap="round" stroke-linejoin="round"/><path fill="#FEFEFE" d="M28.77 17.335V57.03"/><path stroke="#B5D0E7" stroke-width="2" d="M28.77 17.335V57.03" stroke-linecap="round" stroke-linejoin="round"/><path fill="#FEFEFE" d="M32.742 57.03a3.973 3.973 0 01-7.944 0 3.973 3.973 0 017.944 0"/><path stroke="#B5D0E7" stroke-width="2" d="M32.742 57.03a3.973 3.973 0 01-7.944 0 3.973 3.973 0 017.944 0z" stroke-linecap="round" stroke-linejoin="round"/><path fill="#2FACE1" d="M28.612 8.425c8.303.012 15.025 6.753 15.013 15.056-.012 8.303-6.753 15.025-15.056 15.013-8.303-.012-15.025-6.753-15.013-15.056.012-8.303 6.753-15.025 15.056-15.013"/><path stroke="#FEFEFE" stroke-width="2" d="M22.24 22.87l4.93 4.932 9.047-9.047" stroke-linecap="round" stroke-linejoin="round"/></g></svg>