<svg xmlns="http://www.w3.org/2000/svg" xmlns:xlink="http://www.w3.org/1999/xlink" width="60" height="62" viewBox="0 0 60 62"><defs><path id="a" d="M30.993.931V31H.924V.931h30.069z"/></defs><g fill="none" fill-rule="evenodd"><path fill="#2FACE1" d="M23.616 42.978L48.46 18.134a5.338 5.338 0 10-7.55-7.55L15.214 36.28"/><path fill="#2FACE1" d="M28.766 42.978L3.922 18.134a5.338 5.338 0 117.55-7.55L37.168 36.28"/><path fill="#FEFEFE" d="M50.827 33.087c0-13.76-11.154-24.913-24.913-24.913C12.154 8.174 1 19.328 1 33.087S12.154 58 25.914 58c13.759 0 24.913-11.154 24.913-24.913"/><path stroke="#B5D0E7" stroke-width="2" d="M50.827 33.087c0-13.76-11.154-24.913-24.913-24.913C12.154 8.174 1 19.328 1 33.087S12.154 58 25.914 58c13.759 0 24.913-11.154 24.913-24.913z" stroke-linecap="round" stroke-linejoin="round"/><path fill="#2FACE1" d="M25.913 32.355l13.22-13.219c-3.464-3.24-8.103-5.239-13.22-5.239v18.458z"/><path fill="#FEFEFE" d="M25.913 7.844V1"/><path stroke="#B5D0E7" stroke-width="2" d="M25.913 7.844V1m-.743 32.193l14.515-14.515" stroke-linecap="round" stroke-linejoin="round"/><path fill="#FEFEFE" d="M29.336 32.355a3.422 3.422 0 10-6.844 0 3.422 3.422 0 006.844 0"/><path stroke="#B5D0E7" stroke-width="1.875" d="M29.336 32.355a3.422 3.422 0 10-6.844 0 3.422 3.422 0 006.844 0z" stroke-linecap="round" stroke-linejoin="round"/><path fill="#FEFEFE" d="M31.094 4.084H20.795"/><path stroke="#B5D0E7" stroke-width="2" d="M31.094 4.084H20.795" stroke-linecap="round" stroke-linejoin="round"/><g transform="translate(29 30.277)"><mask id="b" fill="#fff"><use xlink:href="#a"/></mask><path fill="#2FACE1" d="M15.98.931c8.303.012 15.025 6.753 15.013 15.056C30.981 24.29 24.24 31.012 15.937 31 7.634 30.988.912 24.247.924 15.944.936 7.641 7.677.92 15.98.931" mask="url(#b)"/></g><path fill="#FEFEFE" d="M44.959 38.214c-6.886 0-9.761 7.232-9.88 7.54a1.504 1.504 0 00-.044.949c.75 2.653 3.79 7.672 9.924 7.672 6.133 0 9.173-5.02 9.924-7.672a1.504 1.504 0 00-.044-.95c-.12-.307-2.994-7.54-9.88-7.54m0 1.5c5.937 0 8.48 6.58 8.48 6.58s-1.861 6.582-8.48 6.582-8.481-6.581-8.481-6.581 2.544-6.58 8.48-6.58"/><path stroke="#FEFEFE" stroke-width="1.5" d="M41.28 46.294a3.68 3.68 0 117.36.001 3.68 3.68 0 01-7.36 0z" stroke-linecap="round" stroke-linejoin="round"/></g></svg>