<svg xmlns="http://www.w3.org/2000/svg" width="63" height="71" viewBox="0 0 63 71"><g fill="none" fill-rule="evenodd"><path fill="#FEFEFE" d="M1 52.28h60.618v-5.837H1"/><g stroke="#B5D0E7" stroke-width="2"><path stroke-linecap="round" stroke-linejoin="round" d="M1 51.976h60.618V46.14H1z"/><path d="M56.258 69.487H6.36l-2.426-17.51h54.75z"/></g><path stroke="#B5D0E7" stroke-linecap="round" stroke-linejoin="round" stroke-width="2" d="M31.31 44.497V23.735"/><path fill="#FEFEFE" d="M34.193 38.29c-1.987 1.977-2.942 4.586-2.88 7.178 2.602.06 5.226-.89 7.213-2.867 1.988-1.976 2.942-4.586 2.88-7.177-2.604-.06-5.227.89-7.213 2.866"/><path stroke="#B5D0E7" stroke-linecap="round" stroke-linejoin="round" stroke-width="2" d="M34.193 38.29c-1.987 1.977-2.942 4.586-2.88 7.178 2.602.06 5.226-.89 7.213-2.867 1.988-1.976 2.942-4.586 2.88-7.177-2.604-.06-5.227.89-7.213 2.866z"/><path fill="#FEFEFE" d="M24.092 42.602c1.987 1.976 4.61 2.927 7.214 2.865.06-2.59-.893-5.2-2.88-7.178-1.987-1.978-4.61-2.927-7.215-2.867-.06 2.59.894 5.2 2.882 7.18"/><path stroke="#B5D0E7" stroke-linecap="round" stroke-linejoin="round" stroke-width="2" d="M24.092 42.602c1.987 1.976 4.61 2.927 7.214 2.865.06-2.59-.893-5.2-2.88-7.178-1.987-1.978-4.61-2.927-7.215-2.867-.06 2.59.894 5.2 2.882 7.18zm27.75 1.592V20.72"/><path fill="#FEFEFE" d="M54.4 38.29c-1.987 1.977-2.94 4.586-2.88 7.178 2.604.06 5.228-.89 7.214-2.867 1.988-1.976 2.942-4.586 2.88-7.177-2.603-.06-5.226.89-7.213 2.866"/><path stroke="#B5D0E7" stroke-linecap="round" stroke-linejoin="round" stroke-width="2" d="M54.4 38.29c-1.987 1.977-2.94 4.586-2.88 7.178 2.604.06 5.228-.89 7.214-2.867 1.988-1.976 2.942-4.586 2.88-7.177-2.603-.06-5.226.89-7.213 2.866z"/><path fill="#FEFEFE" d="M44.3 42.602c1.987 1.976 4.61 2.927 7.215 2.865.06-2.59-.894-5.2-2.88-7.178-1.988-1.978-4.612-2.927-7.215-2.867-.06 2.59.894 5.2 2.88 7.18"/><path stroke="#B5D0E7" stroke-linecap="round" stroke-linejoin="round" stroke-width="2" d="M44.3 42.602c1.987 1.976 4.61 2.927 7.215 2.865.06-2.59-.894-5.2-2.88-7.178-1.988-1.978-4.612-2.927-7.215-2.867-.06 2.59.894 5.2 2.88 7.18zm-33.523 1.592V27.656"/><path fill="#FEFEFE" d="M13.984 38.29c-1.986 1.977-2.942 4.586-2.88 7.178 2.604.06 5.227-.89 7.214-2.867 1.987-1.976 2.94-4.586 2.88-7.177-2.604-.06-5.227.89-7.214 2.866"/><path stroke="#B5D0E7" stroke-linecap="round" stroke-linejoin="round" stroke-width="2" d="M13.984 38.29c-1.986 1.977-2.942 4.586-2.88 7.178 2.604.06 5.227-.89 7.214-2.867 1.987-1.976 2.94-4.586 2.88-7.177-2.604-.06-5.227.89-7.214 2.866z"/><path fill="#FEFEFE" d="M3.884 42.602c1.986 1.976 4.61 2.927 7.214 2.865.06-2.59-.893-5.2-2.88-7.178-1.988-1.978-4.612-2.927-7.215-2.867-.06 2.59.894 5.2 2.88 7.18"/><path stroke="#B5D0E7" stroke-linecap="round" stroke-linejoin="round" stroke-width="2" d="M3.884 42.602c1.986 1.976 4.61 2.927 7.214 2.865.06-2.59-.893-5.2-2.88-7.178-1.988-1.978-4.612-2.927-7.215-2.867-.06 2.59.894 5.2 2.88 7.18z"/><path fill="#2FACE1" d="M59.124 16.627c0-.75-.117-1.445-.293-2.08-.352-.926-.938-1.736-1.82-2.43-.822-.637-1.937-1.214-3.346-1.677-1.292-.464-2.173-.868-2.7-1.215-.237-.173-.412-.347-.47-.463-.058-.115-.118-.23-.118-.346 0-.116.06-.29.06-.405.116-.173.234-.346.527-.46.294-.175.763-.29 1.468-.29.998 0 1.88.173 2.525.404.705.173 1.233.405 1.586.636.177.057.354.057.53 0 .116-.116.234-.23.294-.404l.938-3.413c.058-.23-.06-.52-.353-.636-.998-.462-2.29-.925-4.11-1.04V.723c0-.172-.058-.29-.176-.404-.117-.116-.236-.175-.412-.175H50.26c-.12 0-.295.06-.412.174-.12.114-.176.23-.176.403v2.372c-1.47.404-2.7 1.04-3.64 1.965-.94 1.042-1.468 2.373-1.468 3.877 0 .81.117 1.503.41 2.14.472.982 1.235 1.734 2.173 2.37.88.636 2.054 1.1 3.29 1.504 1.113.348 1.876.752 2.287 1.1.236.116.352.29.47.462.058.174.117.29.117.52 0 .175-.058.348-.175.463-.06.115-.116.232-.234.29-.176.173-.47.29-.822.404-.293.058-.704.115-1.174.115-1.82 0-3.523-.578-4.754-1.272-.177-.057-.353-.057-.53 0-.174.057-.293.232-.352.405l-.88 3.47c-.06.29.06.52.293.694.647.346 1.47.636 2.408.868.764.23 1.586.346 2.466.404v2.314c0 .172.06.347.175.462.118.06.235.116.41.116h2.995c.176 0 .293-.057.412-.116.117-.115.176-.29.176-.462v-2.603c1.644-.347 2.935-1.04 3.874-2.024 1-1.097 1.527-2.486 1.527-3.933m-21.36 2.83c0-.667-.103-1.282-.26-1.846-.313-.82-.833-1.538-1.614-2.153-.73-.565-1.72-1.078-2.97-1.488-1.144-.41-1.924-.77-2.393-1.077-.21-.154-.364-.308-.416-.41-.05-.104-.103-.206-.103-.308 0-.103.052-.258.052-.36.103-.154.207-.308.467-.41.26-.154.677-.257 1.3-.257.886 0 1.67.154 2.24.36.626.153 1.094.36 1.406.564.157.05.313.05.47 0 .103-.103.207-.205.26-.36l.832-3.025c.053-.205-.052-.462-.312-.564-.885-.41-2.03-.82-3.644-.924V5.352c0-.155-.053-.258-.16-.36-.102-.103-.207-.154-.362-.154H29.9c-.1 0-.26.05-.362.153-.105.102-.157.205-.157.36v2.103c-1.3.36-2.393.923-3.227 1.742-.834.925-1.3 2.104-1.3 3.438 0 .718.103 1.333.363 1.898.416.87 1.093 1.538 1.927 2.102.78.565 1.82.975 2.916 1.333.988.307 1.664.667 2.03.975.208.103.31.255.416.41.052.153.104.256.104.46 0 .155-.052.31-.157.41-.052.104-.104.206-.207.258-.157.153-.418.256-.73.36-.26.05-.625.1-1.04.1-1.615 0-3.125-.512-4.22-1.128-.155-.05-.312-.05-.467 0-.158.052-.26.206-.313.36l-.78 3.077c-.053.258.05.463.26.617.572.305 1.3.563 2.134.766.677.206 1.406.308 2.188.36v2.052c0 .154.05.307.155.41.105.052.208.103.366.103h2.653c.157 0 .26-.05.365-.102.103-.103.156-.256.156-.41v-2.31c1.457-.305 2.604-.92 3.436-1.793.886-.975 1.355-2.206 1.355-3.488M17.42 24.562c0-.667-.103-1.282-.26-1.846-.312-.82-.833-1.54-1.613-2.154-.73-.565-1.72-1.08-2.968-1.49-1.148-.408-1.928-.767-2.396-1.074-.21-.155-.365-.31-.417-.412-.052-.102-.104-.205-.104-.307 0-.104.052-.258.052-.36.104-.154.208-.308.47-.41.26-.154.675-.257 1.3-.257.885 0 1.667.154 2.24.36.624.153 1.092.36 1.405.563.156.05.312.05.47 0 .102-.102.207-.204.26-.36l.83-3.024c.054-.205-.05-.463-.31-.565-.886-.41-2.03-.82-3.645-.923v-1.846c0-.154-.052-.258-.156-.36-.105-.103-.21-.154-.366-.154H9.56c-.105 0-.263.05-.365.155-.105.1-.157.204-.157.358v2.103c-1.302.36-2.395.924-3.228 1.744-.833.924-1.302 2.103-1.302 3.436 0 .72.104 1.333.364 1.898.418.872 1.095 1.54 1.927 2.102.78.565 1.82.976 2.915 1.334.99.308 1.666.667 2.03.975.21.102.312.255.417.41.052.153.104.257.104.46 0 .155-.052.31-.156.41-.053.103-.103.206-.208.258-.157.153-.418.255-.73.358-.26.052-.625.103-1.04.103-1.615 0-3.125-.514-4.218-1.13-.156-.05-.312-.05-.47 0-.154.052-.26.206-.31.36l-.782 3.077c-.052.257.052.463.26.616.573.307 1.302.565 2.135.768.677.208 1.405.31 2.187.36v2.053c0 .154.053.307.156.41.105.052.207.103.365.103h2.655c.156 0 .26-.05.365-.103.104-.103.156-.256.156-.41v-2.308c1.458-.307 2.604-.923 3.437-1.795.885-.974 1.354-2.207 1.354-3.488"/></g></svg>