<svg xmlns="http://www.w3.org/2000/svg" width="67" height="67" viewBox="0 0 67 67"><g fill="none" fill-rule="evenodd"><path fill="#2FACE1" d="M28.238 66V45.15l19.195-19.686-2.098 16.797c-.56 4.49-2.6 8.662-5.797 11.862L28.238 66zM1 38.742h20.835l19.67-19.208-16.783 2.1c-4.485.56-8.655 2.602-11.852 5.8L1 38.742z"/><path fill="#FEFEFE" d="M29.046 17.177C22.898 23.33 18.52 30.59 15.868 38.355L28.625 51.12c7.76-2.65 15.015-7.033 21.163-13.186C59.968 27.746 65.334 14.527 65.953 1c-13.518.62-26.727 5.99-36.907 16.177"/><path stroke="#B5D0E7" stroke-linecap="round" stroke-linejoin="round" stroke-width="2" d="M29.046 17.177C22.898 23.33 18.52 30.59 15.868 38.355L28.625 51.12c7.76-2.65 15.015-7.033 21.163-13.186C59.968 27.746 65.334 14.527 65.953 1c-13.518.62-26.727 5.99-36.907 16.177z"/><path fill="#2FACE1" d="M54.1 20.275c-2.046 2.047-5.362 2.047-7.408 0-2.046-2.048-2.046-5.366 0-7.413 2.046-2.048 5.362-2.048 7.408 0 2.046 2.047 2.046 5.365 0 7.413"/><path stroke="#2FACE1" stroke-width="2" d="M37.803 29.17L14.098 52.893"/><path fill="#FEFEFE" d="M13.57 43.984L3.096 54.468"/><path stroke="#B5D0E7" stroke-linecap="round" stroke-linejoin="round" stroke-width="2" d="M13.57 43.984L3.096 54.468"/><path fill="#FEFEFE" d="M23 53.42L12.524 63.904"/><path stroke="#B5D0E7" stroke-linecap="round" stroke-linejoin="round" stroke-width="2" d="M23 53.42L12.524 63.904M11.476 55.516L1 66"/></g></svg>