<svg xmlns="http://www.w3.org/2000/svg" width="221" height="43"><g fill="none"><path fill="#231F20" d="M214.335 25.674c3.18 0 4.331-1.976 4.331-4.245 0-2.441-1.426-4.125-4.366-4.125h-1.289v8.37h1.324zm-3.129-9.849h3.249c4.021 0 6.136 2.286 6.136 5.586 0 3.369-2.286 5.74-6.274 5.74h-3.11V15.825zm-14.196 0h1.77l4.968 6.428a31.265 31.265 0 0 1 1.392 1.924h.034a65.069 65.069 0 0 1-.034-1.94v-6.412h1.804v11.326h-1.598l-5.156-6.685c-.567-.722-.998-1.341-1.392-1.873h-.036c.036.498.053 1.082.053 1.82v6.738h-1.805V15.825zm-6.634 6.944l-.911-2.579c-.326-.928-.481-1.444-.601-1.821h-.035c-.12.395-.292.911-.619 1.821l-.945 2.579h3.111zm-2.235-6.995h1.341l4.487 11.377h-1.925l-1.1-2.905h-4.212l-1.082 2.905h-1.856l4.347-11.377zm-12.203.051h1.805v9.849h4.073v1.477h-5.879V15.825zm-4.142 10.605c-.929.481-2.406.894-3.97.894-3.61 0-5.827-2.372-5.827-5.638 0-3.455 2.424-5.964 6.101-5.964 1.324 0 2.424.275 3.232.584v1.685a6.791 6.791 0 0 0-3.093-.74c-2.803 0-4.315 1.771-4.315 4.298 0 2.578 1.53 4.245 4.04 4.245.825 0 1.563-.155 2.027-.378v-3.712h1.805v4.726zM148.32 15.825h1.77l4.967 6.427a31.262 31.262 0 0 1 1.393 1.925h.033c-.016-.6-.033-1.237-.033-1.94v-6.412h1.805v11.326h-1.599l-5.156-6.685c-.568-.722-.998-1.341-1.393-1.874h-.033c.033.5.05 1.083.05 1.822v6.737h-1.804V15.825zm-10.724 0h6.839l-.498 1.477H139.4v3.318h4.501v1.479h-4.5v3.575h5.085v1.477h-6.89V15.825zm-14.73 0h6.546l-.497 1.477h-4.244v3.318h4.175v1.479h-4.175v5.052h-1.805V15.825zm-5.671 5.706c0-2.561-1.41-4.28-3.73-4.28-2.234 0-3.73 1.633-3.73 4.28 0 2.646 1.496 4.263 3.73 4.263 2.235 0 3.73-1.617 3.73-4.263zm-9.385 0c0-3.437 2.355-5.81 5.655-5.81 3.317 0 5.637 2.408 5.637 5.81 0 3.506-2.406 5.793-5.637 5.793-3.283 0-5.655-2.304-5.655-5.793zm-14.931-5.706h1.805v4.95h.033l4.023-4.95h2.096l-4.589 5.534 4.864 5.792h-2.2l-4.194-5.036h-.033v5.036h-1.806V15.825zm-14.198 0h1.77l4.967 6.427a31.802 31.802 0 0 1 1.393 1.925h.034c-.017-.6-.034-1.237-.034-1.94v-6.412h1.804v11.326h-1.598l-5.156-6.685c-.567-.722-.997-1.341-1.392-1.874h-.035c.035.5.052 1.083.052 1.822v6.737H78.68V15.825zm-6.634 6.944l-.91-2.579c-.327-.928-.482-1.444-.602-1.821H70.5a41.38 41.38 0 0 1-.619 1.82l-.946 2.58h3.111zm-2.233-6.995h1.34l4.486 11.377h-1.925l-1.1-2.905h-4.211l-1.083 2.905h-1.856l4.349-11.377zM58.93 25.656c1.41 0 2.252-.515 2.252-1.787 0-1.083-.808-1.737-2.063-1.737h-1.632v3.524h1.443zm-.378-5.019c1.272 0 1.942-.652 1.942-1.667 0-.945-.584-1.65-1.942-1.65h-1.065v3.317h1.065zm-2.87-4.812h3.093c2.424 0 3.507 1.375 3.507 2.87 0 1.049-.515 1.96-1.427 2.372v.034c1.324.31 2.165 1.393 2.165 2.75 0 1.805-1.34 3.3-3.935 3.3h-3.403V15.825zM0 21.26c0 11.741 9.52 21.259 21.26 21.259C33 42.519 42.52 33 42.52 21.26 42.52 9.517 33 0 21.26 0 9.52 0 0 9.518 0 21.26"/><path fill="#FFF" d="M1.016 21.256C1.016 32.437 10.08 41.5 21.26 41.5s20.245-9.063 20.245-20.244S32.44 1.012 21.26 1.012c-11.18 0-20.244 9.063-20.244 20.244"/><path fill="#231F20" d="M1.805 21.255c0 10.744 8.711 19.455 19.456 19.455s19.454-8.711 19.454-19.455c0-10.746-8.709-19.456-19.454-19.456-10.745 0-19.456 8.71-19.456 19.456"/><path fill="#FFF" d="M25.608 33.366c-3.28.418-4.902-.621-7.464-2.742.21 1.259 1.115 2.235 1.866 2.784.686.503 2.132.863 3.087.863.954 0 1.843-.537 2.51-.905m-6.847 2.198c.166.023.271-.269.131-.361-.249-.168-.468-.447-.247-1.117-.284.018-.986-.346-1.273-1.573-.162 1.188.559 2.928 1.389 3.05m2.145-.763c-.234-.7-1.586-.796-1.724-1.149-.115.401-.297.42-.331 1.083.596-.486 1.182.3 1.425.646.242.346.851.082.63-.58m1.276.763c-.132-.22-.42-.216-.746-1.028-.359.436-.154.895.066 1.094.221.199.623.07.68-.066"/><path fill="#FFF" d="M19.949 22.938c-3.498 0-4.035 5.138-4.035 7.146 0 .365-.013 1.041-.022 1.327l-.853-3.391c-.21 0-.342.485-.29.69l2.372 9.487c.088.327.141.56.365.514.256-.054.09-.576.028-.853l-.964-3.84a6.15 6.15 0 0 0 .51-1.604c-.22 0-.684-.067-.75-.331.706-.023.812-.217.825-.327.261-2.442-.036-5.442.99-7.044 1.031-1.61 3.222-1.357 4.04-1.446-.42-.265-1.525-.328-2.216-.328M12.255 36.16c1.16.298 3.03-.361 3.58-1.234-.075-.349-.141-.581-.239-.998a2.48 2.48 0 0 1-.756 1.337c-.829-.547-1.06.663-2.585.895m6.296-14.797c-2.076.33-2.678-.175-3.346-.085-.978.132-1.464.785-1.281 1.413.032-.247.552-.784 1.016-.717-.233.242-.38.448-.299.696-.009-.028.184.141.464-.1.526-.455 1.31-.546 1.922-.546.737 0 1.462-.119 1.757-.372.107-.09-.137-.305-.233-.29m19.299-9.248c-1.224 1.081-1.625.551-2.565.85-.046.015-.02-.117-.07-.096 1.224-1.622 2.155-.572 2.635-.754"/><path fill="#FFF" d="M36.759 13.915c.011-.569-.669-1.329-1.713-.922.804.817 1.304.728 1.713.922m-8.603 18.309c.051-.13.224-.223.051-.351-.607-.453-.11-.653-.308-.818-.598-.442-1.327.233-2.222-1.027.432.182.98.583 1.53.41-.535-1.715-1.53-4.32-1.732-5.393-.069-.35-.153-.869-1.005-.869-.536 0-.836.1-1.108.234.07-.184.704-.545 1.123-.596-2.055-.393-5.555-.61-6.12 2.015-.128.59.61 1.432 2.571.741.285-.102.62.116.185.535-.436.419-1.892 1.424-3.165.536.284.435 1.171.735 1.876.735.703 0 1.87-.122 2.415-1.63.15 0 1.012-.034 1.608-.927-.186 1.26-.619 1.692-1.06 2.021-.3.649-.989 2.079-2.996 2.079-.507 0-.785-.017-1.247-.323 1 1.285 5.502 4.807 9.203 2.884-.044.199-.485.64-.966.829-.939.367-1.599 1.446-4.492 1.602.064.928 1.553.718 1.89.602-.565-.083-.858-.19-.896-.337a7.3 7.3 0 0 0 3.535-.663c-.132.298-.209.508-.507.64 1.756.143 2.342-1.306 2.757-1.453-.088-.358-.816-1.38-.92-1.476m-7.98-12.338c-.162.415-.961.895-.795 1.558 0-.199.942-1.035 1.16-1.458.454-.881.199-1.16.033-1.956-.018.685-.125 1.157-.398 1.856m-5.832 8.418c.16.191.26.591.475.607-.044-.048.05-.431-.09-.619-.109-.573-.059-.838.012-.883.265-.173.176.455.369.612.049.041.116.09.199.038-.012-.149-.038-.354-.004-.646-.117-.265-.2-.808-.2-.833-.223-.352-.442-.651-.784-.906-.134-.166-.273-.431-.448-.688-.36-.524-1.012-2.094-1.585-3.355-.386-.852-.817-1.281-.685-1.525.184-.315.287-.515.374-.745-.152-.586-.625-2.417-.884-3.446-.787 1.42-.747 3.289-.936 3.95-.201.704.05.753.099 1.08.162 1.05 1.08 2.535 1.684 3.164.345.358 1.38 1.457 1.38 1.907.046.183.112.514.096.895.055.171.147.145.249.249.048.052.06.229.17.282.058.028.087.038.243.154.08.06.164.587.265.708"/><path fill="#FFF" d="M22.215 21.874c-.288.221-1.223-.326-1.856-.249-.43.066-.644.337-.867.37-1.287-.254-2.732.602-3.44 1.67-.112.169-.272.297-.294.529-.022.232.16.299.027.63a5.098 5.098 0 0 0-.16 2.331c.244-.863.972-3.823 3.756-4.386-.696-.133-1.701.166-2.386.454.774-.886 2.054-.863 2.9-.82.045-.002-.171-.175-.249-.342.178 0 .371.206.962.178.647-.031.882-.063 1.242-.117-.539.27-.956.458-1.718.482 2.144.662 2.542-.134 3.668-.31-.154-.288-.839-.486-1.585-.42m-9.17 5.872c-.461-2.121-2.02-3.503-3.217-3.821-.042-.011-.613 1.951-.547 3.816 1.259-.091 2.825-.059 3.764.005M9.537 30.15c.387 1.977.918 3.188 1.324 3.93.98-.489 2.184-1.644 2.38-4.044-1.372-.064-2.715.041-3.704.114m-2.07-5.93c-1.007.576-2.028 1.909-2.14 4.123.432-.112 1.045-.26 1.625-.348-.022-.818 0-2.152.514-3.775m-1.851 6.414c.611 2.18 2.027 3.162 2.861 3.493-.684-1.276-1.042-2.483-1.275-3.735-.7.096-1.21.174-1.586.242m10.584-7.942c-1.592.21-1.51 1.483-1.359 1.768.324-.723.497-1.016 1.359-1.768m-3.047-4.643c.336-.234.336-.805.284-1.072-.25.386-.366.754-.284 1.072m22.32-6.234c-1.078.05-1.558.386-1.73 1.521 1.757-.662 1.31-1.345 1.73-1.521"/><path fill="#FFF" d="M19.05 15.998c-.105.635-.641.64-.861.927-.084-.115.032-.469.098-.619-.612.415-.993 1.064-.993 1.591-.167-.276-.454-1.214-1.272-1.502-.247-.087-.117.163 0 .42.118.258.34.884.333 1.481-.007.405-.239.789-.37.845.17-1.31-.603-2.835-.78-2.835-.333 0-.818 2.011-.123 3.504-1.423-1.735-.583-3.245-.583-3.636 0-.453-.052-.675-.42-.994.176 1.304-.387 1.8-.59 2.876-.102.535-.1.956.076 1.204.172.25.495.544.612.692.118.15.588.795.962.795.31 0 .308-.45.161-.61.165-.022.364.014.48.136.242.255.075.48.166.474.469-.032 1.099-1.706 1.245-2.226.5 1.333-.46 2.462-.316 2.458.419-.01 1.192-.971 1.439-1.348a.499.499 0 0 1-.01.223c-.077.287-.142.662-.017.662.401 0 .614-1.266.653-1.756.038-.491.706-.751.658-1.556-.017-.289-.283-.914-.185-1.193.292.165.518.283.712.389.253.138.892.351 1.131.415.715.188 1.712.455 1.971.526.296.081.414.164.628.164 1.106 0 2.738-.88 2.9-1.005.175-.135.631-.372.932-.556.289-.207.814-.522 1.128-.62a.465.465 0 0 1 .395.027c.357.178.553.268.961.311-.313.41-.82.995-1.104 1.58.048.06.186.123.238.158.448-.761.92-1.409 1.386-1.914.031-.034-.19-.074-.158-.224.024-.023.457.224.747.133.018-.018.14 0 .123-.157.142-.05.18-.172.167-.2-.349-.057-.617-.11-.733-.102-.035.008-.151.065-.13.149-.066.005-.164.032-.17.099-.646.265-1.32-.479-1.854-.319.18-.348 1.052.025 1.454.031.554.01.645-.214 1.391.019.455.099.553-.104.215-.24-.26-.106-.707-.191-.892-.286.329-.004.652-.054 1.082.12.088-.003.067-.043.084-.067.089-.12 1.45-1.027 3.269-1.478l.029-.18c-.845.15-1.649.416-3.435 1.428-.046-.022-.191-.07-.666-.16-.763.09-2.294.087-2.685.25-1.956.812-3.447.928-4.31 1.424-.49.284-1.12-.271-1.324-.414-.503-.347-.669-.396-1.084-.596-.16-.067-.919-.506-1.073-.536-.793.102-1.54 1.187-1.688 1.817"/><path fill="#FFF" d="M14.526 15.135c.434.501 1.259 1.005 2.154.706-1.293-.281-2.293-2.937-3.75-3.026-.31-.022-.774.088-1.237.706 1.656-.64 2.427 1.145 2.833 1.614m19.262-3.27c-.244.011-1.393.331-1.083 1.945 1.204-.796.928-1.701 1.083-1.945m-1.498.795c-1.027.546-.749 1.106-.768 1.491l.254.1c.763-.762.415-1.403.514-1.591m-1.84 24.217c-.61-.142-1.014.03-1.569-.353-.29-.2-1.24-.713-1.856-.861-1.185.438-1.655.287-2.21.27-.684.37-1.463.248-2.14 0-.639.47-1.184.257-1.461.038-1.083.642-.925-.281-1.656-.298-1.073.686-1.963.23-2.39-.035.1.417.234.893.348 1.38l13.063.007s.202-.07-.129-.148m-.326.675H17.65l.214.873c.101.501-.091.78-.473.768-.35-.01-.514-.172-.637-.638l-.249-1.004-4.03.003c.435.26 3.875 2.207 8.794 2.23 4.49.023 7.904-1.69 8.854-2.23M10.136 15.221c-2.753 3.822-1.472 6.13-1.228 6.62-.133-.575-.375-1.69 0-2.663 0 .169.066.707.465 1.082-.09-.971-.51-1.8 1.137-5.197.116-.252-.145-.159-.374.159M14.9 31.056c-.093-.407-.401-1.655-.556-2.246-.22-.342-.469-.565-.705-.696.027.121.052.245.075.372a7.37 7.37 0 0 1 .066 1.927c-.206 2.122-1.3 4.306-3.619 4.653-2.512.375-5.225-2.587-5.164-6.265.06-3.677 2.254-5.37 3.928-5.386.77-.008 1.529.171 2.37.769-.531-.918-.714-1.413-.866-1.929a4.17 4.17 0 0 0-1.479-.224c-3.865.197-5.566 5.014-4.649 8.803.349 1.441 1.044 2.942 2.171 4.05.568.529 1.475 1.313 2.585 1.491 2.96.676 5.437-1.97 5.843-5.319"/><path fill="#FFF" d="M10.068 9.954c.055.155 3.386 13.565 3.463 13.876.059.236.183.458.311.434.092-.02.23-.171.142-.489 0 0-1.393-5.469-1.441-5.701.413-.663.507-1.635.893-2.135.234.32.263-.017.269-.267.041-1.675-.875-1.94-1.069-1.95-.812-.05-.954.88-.954.88L10.506 9.86c.224-.034.39.066.545.215-.046-.492-.561-2.179-1.497-2.676-.489 1.557-.071 2.621.061 3.064.046-.197.165-.443.453-.51m5.966 25.713c-1.017.707-2.734 1.107-3.695 1.139-.498.013-.511.157-.487.221.393.006 4.53-.006 4.53-.006s-.26-1.022-.348-1.354M33.93 13.325c1.55-.041 1.749.737 1.724 1.094-.142-.133-1.327-.033-1.724-1.094m-1.083.53c.63.917 1.383.831 1.78.972-.465-1.171-1.516-1.032-1.78-.972m.012.641c-.234-.115-.735-.246-.995-.099 0 0 .111 1.038 1.723.839.024.058-.487-.619-.728-.74m-2.652 21.896c.247 0 .708.066 1.15-.287.314.1.472-.16.53-.309-.287-.133-1.17-.629-1.618-1.028-.384-.34-.578-.593-.923-.717-.463.223-1.175 1.239-1.525 1.303.818.332 1.399 1.036 2.386 1.038m.343-8.358c-.055.224-.401.334-.774.243-.371-.09-.627-.347-.572-.572.231.024.437-.065.772-.244.108.239.373.4.574.572m.258 1.482c.28.1.58.077.763-.023.052.174-.041.497-.325.724-.323.26-.756.311-.883.152.313-.147.47-.506.445-.853m-1.152 1.237c.325.154.523.424.465.675-.071.315-.516.482-.993.373-.478-.109-.807-.451-.736-.767.035-.156.163-.274.34-.343.11.085.573.165.924.062m-.32-1.177a.376.376 0 0 0-.046.003c-.441-.165-.545-.394-.523-.683-.23 0-.71.039-.668.407.027.23.292.436.6.495a.364.364 0 0 0-.127.268c.004.264.352.474.777.469.426-.006.768-.226.765-.49-.004-.265-.352-.475-.778-.469m2.768 2.495c-.18.292-.659.326-1.068.075-.41-.252-.595-.694-.415-.986.18-.294.658-.328 1.068-.076.408.252.595.694.415.987m2.522 2.507c0 .628-.575 1.135-1.284 1.135-.71 0-1.285-.507-1.285-1.135 0-.626.575-1.135 1.285-1.135s1.284.509 1.284 1.135m.614-4.572c.2.086.344.235.38.422.07.365-.285.74-.794.838-.508.098-.977-.116-1.048-.48-.034-.18.035-.363.173-.513.161.113.981.163 1.289-.267m.512 2.462c-.532-.016-.95-.41-.937-.877.297.041.939-.269.99-.818.531.017.951.409.936.878-.013.467-.456.834-.989.817m-3.256.054c1.235.109 1.551-.428 1.661-.928.066.03.127.063.183.1.284.19.455.475.426.78-.046.49-.596.84-1.231.78-.518-.05-.929-.355-1.039-.732"/><path fill="#FFF" d="M30.035 33.481c.081-.19.253-.322.47-.387.011.242.306 1.088 1.577.876-.04.094-.048.318.078.416-.18.42-.799.559-1.386.309-.588-.25-.918-.794-.739-1.214m.527-.684c-.09.287-.535.402-.993.258-.46-.144-.761-.492-.672-.777.146.07.543.152.994-.258.46.144.761.491.672.777"/><path fill="#FFF" d="M32.574 33.53a1.906 1.906 0 0 1-.543.078c-.677 0-1.226-.335-1.226-.747.126-.034.685.127 1.325-.47-.055.42.111.901.444 1.139m.882-5.848c-.586.368-1.027.434-1.202.302.542-.144.922-.483.85-.758-.062-.231-.425-.343-.863-.287-.037.261-.133.604-1.082.61a.308.308 0 0 0-.02.196c.053.197.326.307.676.301-.171.413-.635.579-1.13.514-.015.325.396.609.919.633.522.023.957-.22.972-.546v-.036c.099.027.205.045.318.052.53.028.972-.19.988-.492.012-.196-.16-.377-.426-.488m-4.53.473c0-.267-.445-.485-.992-.485-.021 0-.055-.002-.089-.005-.084-1.169-.169-2.445-.156-3.185.007-.397-.066-.817-.599-1.015-.485-.18-2.237-.851-2.79-.977-.687.006-1.29.398-1.825.777.158-.005.2-.027.339-.023.747.02.975-.01 1.671.188.453.13.876.364.99.564.15.268.678.704.891.704.214 0 .522-.203.92-.488-.1.613-.401.878-.613 1.154-.214.276-.332.884-.177 1.614.133-.333.142-1.036.707-1.349-.257.469-.265 1.794-.265 2.32 0 .526.397 1.304 1.038 2.541.061-.266 0-.822-.065-1.851l.023.001c.547 0 .992-.217.992-.485m4.466 2.634c-.196.264-.378.741-1.075.874.18.29.662.37 1.123.173.104-.044.198-.1.281-.162-.266-.365-.316-.581-.329-.885m1.414-2.106c-.486-.207-.967-.169-1.076.085-.046.11.026.364.184.497-.215-.009-.348-.042-.555-.331-.214.1-.434.046-.552.034a.539.539 0 0 0 .063.443c-.246-.093-.57-.05-.85.137-.411.273-.571.753-.359 1.072.213.319.718.354 1.128.079.365-.242.531-.648.416-.957.075.045.159.085.249.115.423.14.849.034 1.007-.236.47.184.925.142 1.03-.103.108-.254-.199-.628-.685-.835m-20.251-18.66c-1.237.906-.355 1.995-1.371 2.536 1.182-.037.864-1.741 1.371-2.536zm4.126-1.268c.033-.011-.033-.246-.431-.223.506-.274.872.008.863.057-.026.125-.163.183-.178.279-.005.04.089.066.111.105-.047-.001-.13.037-.171.039-.017.038-.061.178-.103.182-.248-.008-.394-.274-.555-.322.037.015.194-.088.464-.117zm-.526-1.234c.497-.165.464-.447.276-.806.868.425.752.906-.276.806zm1.822 6.056c-.653-.477-.667-.965-.982-.808.397.863.32 1.481-.941 2.115-.087-.231.234-.364.487-.612.287-.28.385-.693.221-1.348-.033-.134-.308-.818-.927-.806.352.507.716 1.053.387 1.917 0-.73-.156-.962-.653-1.552-.144.178-.491.397-.524.806-.42-.221.574-1.33.366-1.824-.281-.148-.414-.485-.452-.816.281.29.737.545 1.29.629.254.038.514.011.564-.165.05-.178-.04-.213-.028-.289.006-.042-.009-.143.156-.137.055-.153-.007-.2-.09-.26.168 0 .223-.106.234-.143-.033-.059-.071-.099-.035-.185.066-.164.412-.064.439-.24.015-.1-.053-.185-.099-.29-.075-.171-.077-.169-.216-.506-.069-.17.021-.332.05-.589.032-.297-.108-.688-.108-.688.443-.288.395-.722.207-.788-.464-.134-1.168-1.018-2.08-1.084-.695-.05-1.607-.049-2.022.481-.303.389-.957.987-1.076 1.624-.131.696.034 1.43.499 1.761-.155-.575-.164-.899-.151-1.231.013-.355.182-1.74 1.483-2.344.72-.191 1.649-.175 1.947.323-.547-.167-1.143-.1-1.624.098-.48.2-1.028.697-.873 1.525-.376.012-.438-.382-.442-.386-.108.278-.259 1.161.417 1.619.157.106.368-.001.298-.115-.278-.451-.061-.819.036-.855a.814.814 0 0 0 .514-.644c.2.381.1.646-.133.879.713-.166.35-.475 1.277-.608-.574.332-.378.768-.987.964 1.053.381.88-1.292 2.014-1.162-.986.101-.879 2.662-3.104 3.115-.31 1.386-.85 1.48-1.646 1.822 1.618.475 2.286 2.575 4.01 2.265-.176.31-.42.309-.641.309-.021.442.039.801.37.785 1.509-.331 1.872-1.973 3.287-2.221-.055-.177-.475-.143-.718-.342zM7.957 23.99c.508-.184 1.09-.215 1.448-.144-1.375 4.756.055 8.662 1.052 10.369-.67.21-1.366.11-1.502.047-1.317-2.62-2.234-6.513-.999-10.272"/><path fill="#FFF" d="M5.329 28.779c.022.486.111 1.139.176 1.436 1.746-.32 3.95-.552 7.762-.626.038-.39-.07-1.258-.133-1.473-2.337-.21-6.405.13-7.805.663m32.09 4.039a15.922 15.922 0 0 1-1.35 1.575c-.541-.134-.92-.45-.92-.818 0-.49.67-.885 1.497-.885.283 0 .548.046.773.128m-5.439-5.98c-.009.204-.424.354-.928.332-.502-.023-.902-.208-.893-.413.009-.206.423-.355.927-.332.503.021.903.206.894.412"/><path fill="#FFF" d="M30.501 26.302c-.062-.152-.56-.09-1.11.136-.549.227-.943.535-.881.686.063.152.56.092 1.11-.135.549-.227.944-.534.881-.687m-.26 2.278c-.121.188-.132.398.083.653a1.27 1.27 0 0 1-.564.12c-.46 0-.834-.206-.834-.458 0-.254.374-.459.834-.459.084.067.194.155.481.144"/></g></svg>