<svg xmlns="http://www.w3.org/2000/svg" width="266" height="492"><g fill="none" fill-rule="evenodd"><path fill="#B5D1E6" fill-rule="nonzero" d="M245.6 235.2c6-14.4 8.8-29.6 8.8-45.6C254.4 122.4 200 68 132.8 68 65.6 68 11.2 122.4 11.2 189.6c0 16 2.8 31.2 8.8 45.6-11.2 2-20 12-20 24 0 13.6 10.8 24.4 24.4 24.4.8 0 1.6-.4 2.4-.4l85.6 192.4c6.8 13.6 15.6 15.6 20.4 15.6 4.8 0 13.6-2 20.4-16l85.2-192c.8.4 1.6.4 2.4.4 13.6 0 24.4-10.8 24.4-24.4 0-12-8.4-21.6-19.6-24zM141.2 469.6c-2.4 5.2-6 8.4-8.4 8.4-2.4 0-6-3.2-8.4-8L41.6 283.6H224l-82.8 186zm99.6-198.8h-216c-6.4 0-11.2-5.2-11.2-11.2 0-6.4 5.2-11.2 11.2-11.2h5.6c2.4 0 4.4-1.2 5.6-3.2 1.2-2 1.2-4.4.4-6.4-7.6-15.2-11.6-31.6-11.6-48.8 0-60 48.8-108.4 108.4-108.4 59.6 0 108.4 48.8 108.4 108.4 0 17.2-4 33.6-11.6 48.8-1.2 2-.8 4.4.4 6.4 1.2 2 3.2 3.2 5.6 3.2h4.8c6.4 0 11.2 5.2 11.2 11.2.4 6-4.8 11.2-11.2 11.2z"/><path stroke="#B5D1E6" stroke-width="10" d="M207.79 208.983c1.484-33.015-9.206-56.414-32.07-70.199"/><path fill="#ED2E26" fill-rule="nonzero" d="M119.64 48.18C125.02 22.81 143.472 1.284 171.149.515h2.306c8.457.769 9.994 15.376-3.075 16.145-9.226.768-17.682 3.075-24.601 9.225-6.15 6.15-9.226 13.07-10.763 21.526 16.144 2.306 29.214 16.913 29.214 33.827 0 19.22-15.376 34.595-34.596 34.595S95.04 100.457 95.04 81.238c-.77-15.376 9.994-28.445 24.6-33.058z"/></g></svg>