<svg xmlns="http://www.w3.org/2000/svg" xmlns:xlink="http://www.w3.org/1999/xlink" width="85" height="37"><defs><path id="a" d="M.056.51h13.483v13.36H.056z"/></defs><g fill="none" fill-rule="evenodd"><path fill="#44536B" d="M84.76 7.3V3.37H70.79v19.8h13.97v-3.96H74.75v-4.02h9.52v-3.93h-9.52V7.3zM43.11 19.21h-8.77V3.37h-3.97v19.8h12.74zM62.01 3.37l-5.57 8.97-5.49-8.97-.06.06v-.06h-3.97v19.8h3.97V10.83l3.28 5.32h-.06 4.68l3.22-5.2v12.22h3.94V3.37zM15.522 3.34l-.952-.14-1.026-.08-1.098.08-1.026.14C-.006 6.12.8 21.84 12.446 23.45h2.124c11.72-1.68 12.45-17.4.952-20.11M6.147 14.82L6 14.09v-1.46l.147-.81c2.05-8.33 13.77-7.75 14.868.81v1.46c-1.245 8.48-12.817 8.99-14.868.73"/><g transform="translate(0 -.51)"><mask id="b" fill="#fff"><use xlink:href="#a"/></mask><path fill="#44536B" d="M13.539.51h-.733C5.918.95.423 6.35.056 13.14v.73h2.125l.073-1.24c.367-5.11 4.91-9.56 10.112-9.86l1.173-.14V.51zm0 7.01h-.733c-2.931.29-5.496 2.77-5.642 5.7l-.073.65h6.448V7.52z" mask="url(#b)"/></g><g fill="#44536B"><path d="M5.79 29.82h1.085l2.356 5.78H8.053l-.527-1.39H5.108l-.496 1.39H3.435l2.355-5.78zm-.372 3.59h1.829l-.868-2.35-.961 2.35zm4.525-2.06h.88l.148.58c.367-.44.88-.66 1.468-.66.955 0 1.689.66 1.689 1.62v2.71h-1.101v-2.57c0-.51-.367-.88-.881-.88-.661 0-1.101.44-1.101 1.11v2.34H9.943v-4.25zm39.327-1.69c.66 0 1.39.22 2.05.66l-.44.81c-.44-.37-.95-.51-1.46-.51-1.17 0-1.98.8-1.98 2.05 0 1.24.81 2.12 1.98 2.12.51 0 1.02-.22 1.46-.51l.44.73c-.66.44-1.39.66-2.05.66-1.76 0-3-1.25-3-3 0-1.76 1.24-3.01 3-3.01m4.82 1.61c1.39 0 2.35.88 2.35 2.2 0 1.32-.96 2.2-2.35 2.2-1.32 0-2.27-.88-2.27-2.2 0-1.32.95-2.2 2.27-2.2m0 3.52c.73 0 1.17-.52 1.17-1.32 0-.81-.44-1.39-1.17-1.39-.66 0-1.17.58-1.17 1.39 0 .8.51 1.32 1.17 1.32m3.31-3.44h.87l.15.58c.37-.44.81-.66 1.39-.66.59 0 1.1.3 1.39.74.37-.52.88-.74 1.47-.74.95 0 1.61.59 1.61 1.54v2.79h-1.1v-2.64a.82.82 0 0 0-.81-.81c-.58 0-.95.44-.95 1.03v2.42h-1.17v-2.64c0-.44-.29-.81-.8-.81-.52 0-.96.44-.96 1.03v2.42H57.4v-4.25zm8.12 0h.88l.07.51c.37-.37.81-.59 1.4-.59 1.18 0 1.99.88 1.99 2.19 0 1.32-.81 2.2-1.99 2.2-.51 0-.96-.22-1.25-.59v2.27h-1.1v-5.99zm2.06.8c-.59 0-1.03.44-1.03 1.02v.59c0 .58.44 1.02 1.03 1.02.66 0 1.1-.51 1.1-1.32 0-.8-.44-1.31-1.1-1.31zm4.91.81c.29 0 .51 0 .8.07v-.22c0-.44-.29-.73-.88-.73-.44 0-.88.07-1.39.29l-.22-.8c.59-.22 1.17-.3 1.76-.3 1.1 0 1.76.59 1.76 1.54v1.76c0 .14.15.29.3.29.14 0 .22 0 .22-.07l.07.8c-.15.08-.37.08-.59.08a.95.95 0 0 1-.88-.59c-.37.37-.88.59-1.39.59-.88 0-1.54-.52-1.54-1.32 0-.88.73-1.39 1.98-1.39m-.15 1.97c.59 0 .95-.44.95-1.02v-.22c-.22-.07-.44-.07-.66-.07-.66 0-1.02.22-1.02.65 0 .37.29.66.73.66m3.34-3.58h.89l.14.58c.3-.44.81-.66 1.48-.66.95 0 1.62.66 1.62 1.62v2.71H78.7v-2.57c0-.51-.37-.88-.88-.88-.59 0-1.03.44-1.03 1.11v2.34h-1.11v-4.25zm7.26 4.68c-.37.95-.96 1.46-1.69 1.46-.22 0-.44-.07-.66-.07l.15-.88c.15 0 .29.08.37.08.36 0 .65-.22.8-.73l.15-.37-1.76-4.15h1.17l1.1 2.99 1.1-2.99h1.09l-1.82 4.66zM35.42 30.9v-1.08h-4.09v5.69h4.09v-1.08h-2.91v-1.18h2.79v-1.17h-2.79V30.9zM22.465 29.82v2.26h-2.789v-2.26h-1.085v5.69h1.085v-2.26h2.789v2.26h1.175v-5.69zM30.31 35.51l-2.13-3.21c.07-.07.22-.15.29-.22 1.03-.95 1.1-1.97 1.1-2.26h-1.1c0 .15 0 .8-.73 1.46-.29.29-.81.73-1.25 1.09v-2.55h-1.17v5.69h1.17v-1.75s.44-.36.88-.73l1.62 2.48h1.32zm6.66-5.75v1.16c.95 0 1.75.8 1.75 1.75s-.8 1.68-1.75 1.68v1.16c1.6 0 2.91-1.31 2.91-2.84 0-1.6-1.31-2.91-2.91-2.91"/><path d="M42.09 29.76v1.16c-.96 0-1.76.8-1.76 1.75s.8 1.68 1.76 1.68v1.16c-1.61 0-2.86-1.31-2.86-2.84 0-1.6 1.25-2.91 2.86-2.91"/></g></g></svg>