<svg xmlns="http://www.w3.org/2000/svg" xmlns:xlink="http://www.w3.org/1999/xlink" width="62" height="87"><defs><path id="a" d="M0 .932h61.458v85.671H0z"/></defs><g fill="none" fill-rule="evenodd"><mask id="b" fill="#fff"><use xlink:href="#a"/></mask><path fill="#B5D0E6" fill-rule="nonzero" d="M2.373 15.23c.12-1.065.473-1.891 1.065-2.836.353-.592 1.061-.947 1.771-.947h49.867c1.772 0 3.31 1.183 3.782 2.718.118.355.118.593.235.946H2.373v.119zM50.47 83.294c0 .591-.474 1.065-1.183 1.065h-37.34c-.59 0-1.064-.474-1.182-1.065l-3.428-65.7h46.56l-3.427 65.7zM9.936 3.295h40.296c.71.354 3.19 1.773 3.545 5.79H7.455c.355-3.781 1.89-5.317 2.48-5.79zM56.14 9.204c-.473-6.382-5.199-8.155-5.318-8.155-.117 0-.236-.117-.353-.117H9.581c-.236 0-.355 0-.472.117-.119.119-3.545 1.773-3.9 8.036-1.535 0-2.836.708-3.662 1.89C.837 12.04-.107 13.93.01 16.412c0 .59.59 1.063 1.182 1.063h3.781l3.426 65.82c.12 1.89 1.656 3.308 3.547 3.308h37.459c1.89 0 3.426-1.417 3.545-3.309l3.426-65.82h3.9c.59 0 1.182-.472 1.182-1.062 0-.946 0-1.892-.355-2.837-.71-2.245-2.6-3.899-4.963-4.371z" mask="url(#b)"/><g fill-rule="nonzero"><path fill="#ED2E26" d="M30.998 35c7.164 0 10.765 3.804 10.765 3.804s.412 2.816.15 8.486C41.514 55.856 31 61 31 61c-.001 0-10.515-5.144-10.912-13.71-.263-5.67.149-8.486.149-8.486S23.835 35 30.998 35z"/><path fill="#FFF" d="M25.65 46.073c0-2.997 2.4-5.436 5.35-5.436 2.956.003 5.352 2.368 5.355 5.286 0 2.328-2.026 4.242-3.588 5.226.606.341 1.943.7 3.223.815a7.595 7.595 0 0 0 3.01-6.04 7.879 7.879 0 0 0-3.992-6.862 8.09 8.09 0 0 0-8.016 0A7.879 7.879 0 0 0 23 45.924c0 2.63 1.11 4.966 3.208 6.756 1.962 1.674 4.832 2.791 8.1 3.32.708-.386 1.919-1.526 2.373-2.194-2.73-.346-5.312-1.003-7.044-1.9-2.646-1.37-3.988-3.333-3.988-5.833z"/></g></g></svg>