<svg xmlns="http://www.w3.org/2000/svg" width="1000" height="146"><defs><linearGradient id="a" x1="50%" x2="50%" y1="0%" y2="99.998%"><stop offset="0%" stop-color="#4D7636"/><stop offset="100%" stop-color="#8DC640"/></linearGradient><linearGradient id="b" x1="50%" x2="50%" y1="0%" y2="100%"><stop offset="0%" stop-color="#4D4D4E"/><stop offset="100%" stop-color="#969696"/></linearGradient><linearGradient id="c" x1="50%" x2="50%" y1="0%" y2="99.999%"><stop offset="0%" stop-color="#026D38"/><stop offset="100%" stop-color="#08A34A"/></linearGradient></defs><g fill="none"><path fill="#08A34A" d="M25.953 52.044c8.348 0 16.249-.876 23.35-2.414 1.537-7.1 2.413-15.001 2.413-23.35 0-8.348-.876-16.248-2.414-23.349-7.1-1.538-15-2.414-23.35-2.414-8.348 0-16.248.876-23.348 2.414-1.539 7.1-2.415 15-2.415 23.35 0 8.348.876 16.248 2.415 23.349 7.1 1.538 15 2.414 23.349 2.414M119.35 52.044c8.348 0 16.249-.876 23.35-2.414 1.537-7.1 2.413-15.001 2.413-23.35 0-8.348-.876-16.248-2.414-23.349-7.1-1.538-15-2.414-23.35-2.414-8.348 0-16.248.876-23.348 2.414-1.539 7.1-2.415 15-2.415 23.35 0 8.348.876 16.248 2.415 23.349 7.1 1.538 15 2.414 23.349 2.414"/><path fill="#969696" d="M25.953 145.42c8.348 0 16.249-.876 23.35-2.414 1.537-7.1 2.413-15.001 2.413-23.35 0-8.348-.876-16.248-2.414-23.349-7.1-1.538-15-2.414-23.35-2.414-8.348 0-16.248.876-23.348 2.414-1.539 7.1-2.415 15-2.415 23.35 0 8.348.876 16.248 2.415 23.349 7.1 1.538 15 2.414 23.349 2.414"/><path fill="#8DC640" d="M72.652 98.743c8.348 0 16.249-.876 23.35-2.414 1.537-7.1 2.413-15.001 2.413-23.35 0-8.348-.876-16.248-2.414-23.349-7.1-1.538-15-2.414-23.35-2.414-8.348 0-16.248.876-23.348 2.414-1.539 7.1-2.415 15-2.415 23.35 0 8.348.876 16.248 2.415 23.349 7.1 1.538 15 2.414 23.349 2.414"/><path fill="url(#a)" d="M49.714 50.213c1.538-7.1 2.414-15 2.414-23.35 0-8.348-.876-16.253-2.414-23.348C42.618 1.976 34.718 1.1 26.364 1.1c-8.348 0-16.248.876-23.349 2.415 5.288 5.063 42.059 42.053 46.699 46.698" transform="matrix(1 0 0 -1 46.287 99.843)"/><path fill="url(#b)" d="M48.858 49.378c1.538-7.1 2.415-14.996 2.415-23.35 0-8.348-.877-16.248-2.415-23.344-7.095-1.543-15-2.42-23.35-2.42-8.348 0-16.248.877-23.348 2.42 5.287 5.063 42.058 42.048 46.698 46.694" transform="matrix(1 0 0 -1 .444 145.686)"/><path fill="url(#c)" d="M7.253 51.069c-1.538-7.1-2.414-15-2.414-23.35 0-8.348.876-16.248 2.414-23.349 7.1-1.538 15.001-2.414 23.35-2.414 8.348 0 16.248.876 23.349 2.414C48.665 9.44 11.894 46.423 7.253 51.07" transform="matrix(1 0 0 -1 -4.65 54)"/><path fill="url(#c)" d="M50.57 51.069c1.538-7.1 2.414-15 2.414-23.35 0-8.348-.876-16.248-2.414-23.349-7.1-1.538-15.001-2.414-23.35-2.414-8.348 0-16.248.876-23.349 2.414C9.158 9.44 45.93 46.423 50.57 51.07" transform="matrix(1 0 0 -1 92.13 54)"/><path fill="#08A34A" d="M211.647 63.764c-1.136.23-2.445.398-3.927.515a56.518 56.518 0 0 1-4.264.168c-1.37 0-2.791-.056-4.268-.168-1.482-.117-2.786-.285-3.927-.515l9.672-19.004-21.846-39.827c1.212-.224 2.633-.397 4.268-.51a64.306 64.306 0 0 1 4.605-.173c1.518 0 3.092.056 4.722.173 1.63.113 3.056.286 4.268.51l11.38 24.465 11.267-24.465c1.059-.224 2.368-.397 3.927-.51a56.98 56.98 0 0 1 4.263-.173c1.289 0 2.715.056 4.269.173 1.553.113 2.862.286 3.927.51l-28.336 58.831M258.417 34.293c0 5.918 1.08 10.487 3.244 13.712 2.16 3.224 5.405 4.839 9.729 4.839 4.325 0 7.564-1.615 9.729-4.84 2.165-3.224 3.245-7.793 3.245-13.711 0-5.92-1.08-10.468-3.245-13.657-2.165-3.183-5.404-4.777-9.729-4.777-4.324 0-7.57 1.594-9.729 4.777-2.165 3.19-3.244 7.738-3.244 13.657zm12.973 30.836c-4.778 0-8.955-.759-12.52-2.276-3.566-1.518-6.54-3.637-8.93-6.373-2.388-2.73-4.191-5.97-5.404-9.728-1.217-3.754-1.823-7.87-1.823-12.347 0-4.549.606-8.705 1.823-12.46 1.213-3.753 3.016-6.998 5.405-9.728 2.389-2.73 5.363-4.855 8.929-6.372 3.565-1.518 7.742-2.277 12.52-2.277s8.95.759 12.515 2.277c3.566 1.517 6.545 3.642 8.934 6.372 2.39 2.73 4.192 5.975 5.405 9.729 1.212 3.754 1.823 7.91 1.823 12.459 0 4.477-.611 8.593-1.823 12.347-1.213 3.759-3.016 6.998-5.405 9.728-2.389 2.736-5.368 4.855-8.934 6.373-3.565 1.517-7.737 2.276-12.515 2.276zM363.218 63.764c-1.365.23-2.883.398-4.554.515a68.301 68.301 0 0 1-4.548.168c-1.365 0-2.883-.056-4.554-.168a47.86 47.86 0 0 1-4.549-.515l-15.48-26.059c4.325-1.518 7.626-3.392 9.903-5.633 2.277-2.236 3.413-4.987 3.413-8.247 0-6.071-4.172-9.107-12.516-9.107-.835 0-1.711.04-2.618.117-.911.076-1.935.188-3.071.341v48.588c-1.141.23-2.297.398-3.474.515a43.041 43.041 0 0 1-4.04.168c-2.806 0-5.348-.23-7.624-.683V4.933a325.79 325.79 0 0 1 11.267-.968c3.87-.265 7.13-.397 9.785-.397 9.107 0 16.1 1.574 20.996 4.722 4.895 3.153 7.34 7.946 7.34 14.394 0 3.642-1.065 7.02-3.19 10.126-2.123 3.113-5.118 5.654-8.984 7.625l16.498 23.33M390.985 33.152l16.84-28.22a49.314 49.314 0 0 1 4.273-.514 56.311 56.311 0 0 1 4.263-.168c1.365 0 2.786.056 4.269.168 1.477.117 2.898.286 4.263.515L407.03 31.898l19.916 31.866a38.222 38.222 0 0 1-4.213.51 66.583 66.583 0 0 1-4.666.173c-1.517 0-3.071-.061-4.665-.173a38.222 38.222 0 0 1-4.213-.51l-18.204-30.612zm-18.546-28.22c2.271-.458 4.854-.682 7.737-.682s5.46.224 7.737.683v58.831c-2.277.454-4.854.683-7.737.683s-5.466-.23-7.737-.683V4.933zM449.357 38.388c-4.248-1.289-7.549-3.24-9.902-5.863-2.348-2.613-3.525-6.046-3.525-10.294 0-2.806.565-5.369 1.706-7.681 1.141-2.313 2.771-4.284 4.895-5.919 2.124-1.63 4.646-2.883 7.564-3.754 2.92-.87 6.205-1.309 9.846-1.309 1.437 0 2.975.076 4.605.23 1.635.152 3.245.34 4.84.565a47.96 47.96 0 0 1 4.492.855c1.406.342 2.638.703 3.703 1.08a56.095 56.095 0 0 1-1.37 6.714c-.607 2.277-1.29 4.171-2.048 5.69-2.2-.836-4.701-1.539-7.513-2.104-2.802-.57-5.196-.856-7.167-.856-2.5 0-4.513.438-6.03 1.309-1.519.876-2.273 2.185-2.273 3.927 0 1.518.627 2.715 1.875 3.586 1.253.871 2.745 1.574 4.498 2.104l7.737 2.277c4.701 1.365 8.246 3.32 10.64 5.857 2.39 2.542 3.581 6.087 3.581 10.64 0 6.149-2.333 10.967-6.998 14.452-4.666 3.494-11.059 5.236-19.173 5.236-3.418 0-6.825-.265-10.243-.795-3.413-.535-6.184-1.176-8.308-1.935.306-2.277.78-4.57 1.426-6.887.642-2.313 1.31-4.151 1.992-5.516.907.377 1.95.738 3.127 1.08 1.177.34 2.445.646 3.816.911 1.365.265 2.745.494 4.15.683 1.402.188 2.751.28 4.04.28 3.03 0 5.573-.469 7.625-1.421 2.048-.948 3.072-2.445 3.072-4.493 0-1.747-.724-3.112-2.165-4.095-1.442-.988-3.336-1.824-5.685-2.506l-6.83-2.048M525.486 4.933c2.277-.453 4.854-.682 7.737-.682s5.466.229 7.743.682v58.832c-2.277.453-4.86.682-7.743.682s-5.46-.229-7.737-.682V40.777c-2.96.76-6.56 1.136-10.809 1.136-4.095 0-7.625-.377-10.58-1.136v22.988c-2.276.453-4.858.682-7.741.682s-5.46-.229-7.738-.682V4.933c2.277-.453 4.855-.682 7.738-.682s5.465.229 7.742.682V27.81c1.207.377 2.786.698 4.717.963 1.935.27 3.891.397 5.862.397 1.819 0 3.754-.148 5.802-.453 2.048-.301 3.713-.642 5.007-1.024V4.933M553.817 4.933c2.272-.453 4.854-.682 7.737-.682s5.46.229 7.737.682v58.832c-2.276.453-4.854.682-7.737.682s-5.465-.229-7.737-.682V4.933M635.865 63.764c-1.365.23-2.883.398-4.554.515a68.301 68.301 0 0 1-4.548.168c-1.37 0-2.888-.056-4.554-.168a48.17 48.17 0 0 1-4.554-.515l-15.474-26.059c4.324-1.518 7.625-3.392 9.897-5.633 2.277-2.236 3.418-4.987 3.418-8.247 0-6.071-4.177-9.107-12.52-9.107-.836 0-1.707.04-2.614.117-.911.076-1.935.188-3.071.341v48.588c-1.141.23-2.297.398-3.474.515a43.041 43.041 0 0 1-4.04.168c-2.806 0-5.348-.23-7.624-.683V4.933c3.642-.377 7.396-.703 11.267-.968 3.87-.265 7.13-.397 9.785-.397 9.102 0 16.1 1.574 20.996 4.722 4.89 3.153 7.34 7.946 7.34 14.394 0 3.642-1.065 7.02-3.19 10.126-2.123 3.113-5.118 5.654-8.984 7.625l16.498 23.33M657.14 39.865c0 4.706 1.06 7.987 3.19 9.846 2.118 1.859 5.76 2.786 10.92 2.786 2.2 0 4.59-.092 7.167-.285 2.583-.189 4.895-.474 6.943-.85.305.982.55 2.006.738 3.07.189 1.06.29 2.125.29 3.184 0 1.976-.193 3.912-.57 5.807-4.706 1.136-9.866 1.706-15.48 1.706-5.007 0-9.29-.473-12.856-1.426-3.565-.947-6.469-2.48-8.705-4.605-2.241-2.124-3.891-4.874-4.95-8.251-1.065-3.372-1.595-7.529-1.595-12.46V4.934h42.45c.454 1.742.678 3.866.678 6.372 0 2.582-.224 4.701-.678 6.372h-27.541v10.585h23.1c.229.835.397 1.798.514 2.898.112 1.1.168 2.068.168 2.903 0 .836-.056 1.803-.168 2.898-.117 1.106-.285 2.074-.514 2.904h-23.1"/><path fill="#8DC640" d="M204.139 132.096c1.289.153 2.618.27 3.983.341 1.365.077 2.807.118 4.325.118 4.548 0 7.773-.724 9.672-2.165 1.895-1.442 2.843-3.301 2.843-5.578 0-2.348-.907-4.207-2.73-5.572-1.819-1.365-5.084-2.048-9.785-2.048h-8.308v14.904zm7.167-25.488c3.947 0 6.698-.627 8.251-1.88 1.554-1.253 2.333-2.94 2.333-5.063 0-2.348-.927-4.11-2.786-5.292-1.86-1.172-4.462-1.763-7.798-1.763-1.289 0-2.48.041-3.581.117-1.1.077-2.297.189-3.586.342v13.539h7.167zM189.23 83.167a86.176 86.176 0 0 1 5.18-.57c1.86-.154 3.754-.286 5.69-.398 1.935-.112 3.79-.209 5.577-.285a111.19 111.19 0 0 1 4.722-.112c8.72 0 15.434 1.247 20.14 3.754 4.702 2.5 7.055 6.448 7.055 11.837 0 1.59-.265 3.066-.795 4.437a15.308 15.308 0 0 1-2.052 3.698 17.575 17.575 0 0 1-2.843 2.96 28.127 28.127 0 0 1-3.3 2.332c1.441.3 2.883.795 4.324 1.477a13.86 13.86 0 0 1 3.871 2.73c1.136 1.136 2.063 2.542 2.787 4.213.718 1.665 1.08 3.565 1.08 5.69 0 3.336-.74 6.163-2.216 8.475-1.483 2.313-3.495 4.213-6.031 5.69-2.547 1.477-5.562 2.557-9.052 3.244-3.489.683-7.243 1.024-11.262 1.024-1.594 0-3.397-.04-5.404-.117a314.913 314.913 0 0 1-6.087-.28c-2.053-.112-4.065-.25-6.03-.397a86.523 86.523 0 0 1-5.354-.57V83.166zM285.27 83.166c2.277-.453 4.855-.682 7.738-.682s5.46.229 7.737.682v56.33c-2.807 1.065-6.199 1.972-10.182 2.726-3.983.764-8.135 1.141-12.46 1.141-4.252 0-8.063-.474-11.44-1.421-3.372-.948-6.24-2.465-8.587-4.554-2.354-2.083-4.157-4.757-5.405-8.017-1.253-3.265-1.88-7.213-1.88-11.838V83.166c2.277-.453 4.855-.682 7.738-.682s5.465.229 7.737.682v32.885c0 5.236.968 8.934 2.903 11.099 1.936 2.16 4.799 3.24 8.593 3.24 1.742 0 3.184-.092 4.32-.286a15.73 15.73 0 0 0 3.188-.85V83.166M313.601 83.166c2.277-.453 4.854-.682 7.737-.682s5.466.229 7.737.682v58.832c-2.271.453-4.854.682-7.737.682s-5.46-.229-7.737-.682V83.166M382.788 129.024c.229 1.065.397 2.16.514 3.3.112 1.142.168 2.201.168 3.184 0 .988-.056 2.053-.168 3.189a30.582 30.582 0 0 1-.514 3.3h-40.851v-58.83c2.277-.454 4.854-.683 7.737-.683s5.46.229 7.737.682v45.858h25.377M407.935 130.16c1.212.153 2.312.27 3.3.341.988.077 2.124.112 3.413.112 4.783 0 8.44-1.436 10.982-4.319s3.815-7.472 3.815-13.768c0-6.3-1.273-10.87-3.815-13.717-2.542-2.843-6.2-4.264-10.982-4.264-1.289 0-2.425.036-3.413.112-.988.077-2.088.194-3.3.342v35.161zM392.46 83.161a62.868 62.868 0 0 1 4.666-.565c1.742-.153 3.525-.286 5.348-.398a270.09 270.09 0 0 1 5.292-.285c1.707-.076 3.24-.117 4.61-.117 5.761 0 10.712.764 14.848 2.277 4.136 1.523 7.529 3.627 10.182 6.316 2.66 2.694 4.61 5.919 5.863 9.673 1.253 3.759 1.88 7.91 1.88 12.464 0 4.549-.627 8.705-1.88 12.454-1.253 3.759-3.204 6.999-5.863 9.734-2.653 2.73-6.046 4.854-10.182 6.372-4.136 1.518-9.087 2.272-14.848 2.272-1.37 0-2.903-.036-4.61-.112a235.527 235.527 0 0 1-5.292-.286 205.395 205.395 0 0 1-5.348-.397 62.868 62.868 0 0 1-4.666-.565V83.16zM455.729 83.166c2.272-.453 4.854-.682 7.737-.682s5.466.229 7.737.682v58.832c-2.271.453-4.854.682-7.737.682s-5.465-.229-7.737-.682V83.166M536.973 141.997c-2.048.454-4.4.683-7.055.683-2.653 0-5.007-.23-7.054-.683a201.089 201.089 0 0 0-5.349-10.584 205.466 205.466 0 0 0-6.143-10.58 227.229 227.229 0 0 0-6.26-9.56c-2.047-2.96-3.947-5.496-5.69-7.626v38.35c-2.047.454-4.548.683-7.512.683-2.807 0-5.232-.23-7.28-.683V83.166c.831-.23 1.86-.397 3.072-.515a42.111 42.111 0 0 1 3.871-.168c1.366 0 2.654.056 3.866.168 1.213.118 2.237.286 3.072.515 2.13 2.43 4.304 5.063 6.545 7.91a219.906 219.906 0 0 1 6.54 8.761 164.74 164.74 0 0 1 5.92 8.93c1.823 2.959 3.376 5.69 4.665 8.195V83.166c2.048-.453 4.477-.683 7.284-.683 2.96 0 5.46.23 7.508.683v58.831M583.401 112.068c.983-.23 2.18-.398 3.586-.515a47.04 47.04 0 0 1 3.698-.168c1.06 0 2.292.056 3.698.168 1.406.117 2.598.285 3.586.515v28.335c-2.206.836-4.951 1.534-8.252 2.104-3.3.57-7.228.85-11.776.85-5.237 0-9.79-.758-13.656-2.271-3.871-1.518-7.096-3.642-9.673-6.372-2.583-2.735-4.493-5.975-5.75-9.734-1.249-3.749-1.875-7.865-1.875-12.342 0-4.554.626-8.71 1.874-12.459 1.258-3.76 3.168-6.999 5.75-9.734 2.578-2.73 5.803-4.85 9.674-6.372 3.866-1.513 8.42-2.277 13.656-2.277 3.107 0 6.087.25 8.929.744a40.947 40.947 0 0 1 8.252 2.333 51.163 51.163 0 0 1-1.422 6.881c-.646 2.318-1.309 4.157-1.991 5.522a52.472 52.472 0 0 0-5.634-1.595c-2.012-.453-4.345-.682-6.998-.682-2.43 0-4.646.305-6.658.912-2.012.606-3.739 1.61-5.175 3.015-1.441 1.406-2.562 3.224-3.357 5.46-.8 2.242-1.197 4.992-1.197 8.252 0 3.184.377 5.919 1.136 8.19.76 2.277 1.86 4.116 3.3 5.522 1.442 1.406 3.149 2.43 5.125 3.072 1.971.641 4.167.967 6.601.967.907 0 1.778-.04 2.614-.112.835-.076 1.477-.193 1.935-.341v-17.868M644.28 116.621c-4.247-1.289-7.548-3.24-9.901-5.858-2.348-2.618-3.525-6.05-3.525-10.299 0-2.806.57-5.369 1.706-7.681 1.136-2.313 2.766-4.284 4.895-5.914 2.124-1.635 4.646-2.888 7.564-3.759 2.924-.87 6.205-1.309 9.841-1.309 1.442 0 2.98.076 4.61.23 1.635.152 3.245.34 4.84.57a46.11 46.11 0 0 1 4.492.85c1.406.342 2.638.703 3.703 1.08a54.722 54.722 0 0 1-1.37 6.714c-.607 2.277-1.29 4.176-2.048 5.69-2.2-.836-4.707-1.534-7.508-2.104-2.807-.57-5.2-.851-7.172-.851-2.5 0-4.513.433-6.03 1.304-1.519.876-2.273 2.185-2.273 3.927 0 1.518.622 2.715 1.875 3.586 1.253.871 2.75 1.574 4.498 2.104l7.737 2.277c4.701 1.365 8.246 3.32 10.64 5.862 2.39 2.537 3.581 6.087 3.581 10.636 0 6.148-2.333 10.966-6.993 14.456-4.671 3.489-11.064 5.23-19.178 5.23-3.413 0-6.825-.264-10.238-.794-3.418-.53-6.189-1.176-8.308-1.935a49.63 49.63 0 0 1 1.421-6.882c.642-2.318 1.31-4.156 1.992-5.521.912.382 1.95.738 3.127 1.08 1.177.34 2.445.646 3.81.911 1.37.265 2.751.494 4.157.683 1.4.188 2.745.285 4.04.285 3.035 0 5.572-.474 7.624-1.421 2.048-.953 3.072-2.445 3.072-4.498 0-1.742-.724-3.112-2.16-4.095-1.447-.983-3.341-1.824-5.695-2.501l-6.825-2.053M698.675 112.526c0 5.918 1.08 10.487 3.24 13.712 2.164 3.224 5.409 4.839 9.733 4.839 4.32 0 7.564-1.615 9.724-4.84 2.165-3.224 3.244-7.793 3.244-13.711 0-5.92-1.08-10.473-3.244-13.657-2.16-3.188-5.405-4.777-9.724-4.777-4.324 0-7.57 1.589-9.734 4.777-2.16 3.184-3.24 7.738-3.24 13.657zm12.973 30.836c-4.783 0-8.955-.759-12.52-2.271-3.566-1.523-6.54-3.642-8.934-6.378-2.39-2.73-4.192-5.974-5.405-9.728-1.212-3.754-1.818-7.87-1.818-12.347 0-4.554.606-8.705 1.818-12.46 1.213-3.753 3.016-6.998 5.405-9.728 2.394-2.73 5.368-4.855 8.934-6.372 3.565-1.518 7.737-2.277 12.52-2.277 4.778 0 8.95.759 12.515 2.277 3.566 1.517 6.54 3.642 8.934 6.372 2.39 2.73 4.187 5.975 5.405 9.729 1.212 3.754 1.818 7.905 1.818 12.459 0 4.477-.606 8.593-1.818 12.347-1.218 3.754-3.016 6.998-5.405 9.728-2.394 2.736-5.368 4.855-8.934 6.378-3.565 1.512-7.737 2.271-12.515 2.271zM791.869 127.888c.682 1.366 1.344 3.204 1.991 5.517a50.612 50.612 0 0 1 1.421 6.886c-2.124.836-4.497 1.554-7.11 2.16-2.618.606-5.863.912-9.734.912-4.926 0-9.255-.759-12.969-2.272-3.718-1.518-6.83-3.642-9.336-6.377-2.496-2.73-4.376-5.975-5.629-9.729-1.253-3.754-1.874-7.87-1.874-12.347 0-4.554.621-8.705 1.874-12.459 1.253-3.754 3.133-6.999 5.629-9.729 2.506-2.73 5.618-4.854 9.336-6.372 3.714-1.518 8.043-2.277 12.969-2.277 3.871 0 7.116.306 9.734.912 2.613.606 4.986 1.33 7.11 2.16-.3 2.277-.779 4.574-1.42 6.886-.648 2.313-1.31 4.152-1.992 5.517a59.01 59.01 0 0 0-5.466-1.595c-1.895-.453-4.171-.677-6.825-.677-2.124 0-4.116.306-5.975.907a11.75 11.75 0 0 0-4.834 3.02c-1.365 1.4-2.445 3.22-3.245 5.46-.8 2.237-1.191 4.987-1.191 8.247 0 3.265.392 6.016 1.191 8.252.8 2.236 1.88 4.039 3.245 5.404a11.998 11.998 0 0 0 4.834 2.96c1.86.606 3.85.906 5.975.906 2.654 0 4.93-.224 6.825-.677a59.01 59.01 0 0 0 5.466-1.595M806.543 83.166c2.277-.453 4.854-.682 7.737-.682s5.46.229 7.737.682v58.832c-2.276.453-4.854.682-7.737.682s-5.46-.229-7.737-.682V83.166M848.08 118.099c0 4.701 1.06 7.987 3.184 9.84 2.124 1.86 5.766 2.792 10.926 2.792 2.2 0 4.59-.097 7.167-.285 2.577-.189 4.895-.474 6.943-.856.305.988.55 2.012.743 3.072.184 1.064.286 2.129.286 3.188 0 1.976-.194 3.907-.57 5.802-4.707 1.14-9.867 1.706-15.48 1.706-5.008 0-9.291-.474-12.857-1.421-3.57-.947-6.469-2.48-8.705-4.61-2.241-2.124-3.891-4.87-4.95-8.246-1.065-3.377-1.595-7.529-1.595-12.464V83.162h42.445c.453 1.747.683 3.87.683 6.372 0 2.582-.23 4.706-.683 6.372h-27.536v10.584h23.1c.224.836.397 1.804.514 2.904.112 1.1.168 2.068.168 2.898 0 .835-.056 1.808-.168 2.903a19.08 19.08 0 0 1-.514 2.904h-23.1M884.49 83.166h50.295a30.954 30.954 0 0 1 .683 6.372 30.974 30.974 0 0 1-.683 6.373h-17.41v46.087c-2.277.453-4.854.682-7.737.682s-5.46-.229-7.737-.682V95.91h-17.41a30.974 30.974 0 0 1-.683-6.372 30.954 30.954 0 0 1 .683-6.373M970.854 141.997a33.477 33.477 0 0 1-3.927.51 53.939 53.939 0 0 1-4.264.173c-1.365 0-2.786-.056-4.268-.173a33.769 33.769 0 0 1-3.927-.51l9.672-19.004-21.846-39.827c1.212-.23 2.633-.397 4.268-.515a67.399 67.399 0 0 1 4.605-.168c1.523 0 3.092.056 4.727.168 1.63.118 3.05.286 4.268.515l11.374 24.465 11.268-24.465c1.059-.23 2.368-.397 3.927-.515a59.648 59.648 0 0 1 4.263-.168c1.294 0 2.715.056 4.274.168 1.553.118 2.857.286 3.922.515l-28.336 58.831"/></g></svg>