<svg xmlns="http://www.w3.org/2000/svg" viewBox="0 0 156 138"><g fill="none"><g opacity=".504"><path fill="#E5ECF3" d="M154.741 65.757l-49.784-28.666a.286.286 0 0 1-.144-.248V.288c0-.221.24-.36.431-.25l49.784 28.667a.288.288 0 0 1 .143.249v36.555c0 .22-.239.359-.43.248"/><path fill="#B3CEE2" d="M155.171 31.667L104.813 2.67v-.134l50.358 28.997z"/><path fill="#9ABEDF" d="M107.266 10.04c-.016.184-.172.247-.35.141-.176-.106-.307-.34-.291-.524.016-.184.172-.246.35-.14.176.106.307.34.29.524m1.032.584c-.015.183-.172.246-.349.14-.177-.106-.307-.34-.292-.524.016-.184.173-.246.35-.14.177.106.307.34.291.524m1.032.603c-.016.183-.172.246-.35.14-.176-.106-.307-.341-.291-.524.016-.184.172-.247.35-.14.176.105.307.34.291.524"/><path fill="#67A4D1" d="M126.11 40.474l-4.005-11.734c-.424-1.247-.925-1.147-.925-1.147l-.863.086 5.131 14.367.662-1.57v-.002z"/><path fill="#276796" d="M139.22 25.84c.207.003.505.195.822 1.01 0 0 .267.686.289 1.54 0 0-.006 1.371-.426 1.899l-13.069 15.833s-.152.169-.386.169l-.901.134 12.826-20.54.845-.045z"/><path fill="#4087C6" d="M125.476 41.24l12.596-15.224s.522-.633 1.11.879c0 0 .267.685.289 1.54 0 0 .076 1.326-.343 1.854l-13.193 15.967s-.152.169-.386.169c0 0-.414-.011-.67-.735l-4.982-14.59s-.3-.936-.234-1.958c0 0 .082-1.387.654-1.463 0 0 .5-.103.892 1.06l4.267 12.502v-.001z"/></g><g opacity=".701"><path fill="#E5ECF3" d="M138.333 75.07L88.549 46.404a.286.286 0 0 1-.144-.248V9.601c0-.221.24-.36.431-.25l49.784 28.667a.288.288 0 0 1 .143.249v36.555c0 .22-.239.359-.43.248"/><path fill="#B3CEE2" d="M138.763 40.98L88.405 11.983v-.134l50.358 28.997z"/><path fill="#9ABEDF" d="M90.858 19.353c-.016.184-.172.247-.35.141-.176-.106-.307-.34-.291-.524.016-.184.172-.246.35-.14.176.106.307.34.29.524m1.032.584c-.015.183-.172.246-.349.14-.177-.106-.307-.34-.292-.524.016-.184.173-.246.35-.14.177.106.307.34.291.524m1.032.603c-.016.183-.172.246-.35.14-.176-.106-.307-.341-.291-.524.016-.184.172-.247.35-.14.176.105.307.34.291.524"/><path fill="#67A4D1" d="M109.702 49.787l-4.005-11.734c-.424-1.247-.925-1.147-.925-1.147l-.863.086 5.131 14.367.662-1.57v-.002z"/><path fill="#276796" d="M122.812 35.153c.207.003.505.195.822 1.01 0 0 .267.686.289 1.54 0 0-.006 1.371-.426 1.899l-13.069 15.833s-.152.169-.386.169l-.901.134 12.826-20.54.845-.045z"/><path fill="#4087C6" d="M109.068 50.553l12.596-15.224s.522-.633 1.11.879c0 0 .267.685.289 1.54 0 0 .076 1.326-.343 1.854l-13.193 15.967s-.152.169-.386.169c0 0-.414-.011-.67-.735l-4.982-14.59s-.3-.936-.234-1.958c0 0 .082-1.387.654-1.463 0 0 .5-.103.892 1.06l4.267 12.502v-.001z"/></g><g opacity=".797"><path fill="#E5ECF3" d="M123.256 84.826L73.472 56.16a.286.286 0 0 1-.144-.248V19.357c0-.221.24-.36.431-.25l49.784 28.667a.288.288 0 0 1 .143.249v36.555c0 .22-.239.359-.43.248"/><path fill="#B3CEE2" d="M123.686 50.736L73.328 21.739v-.134l50.358 28.997z"/><path fill="#9ABEDF" d="M75.781 21.706c-.016.183-.172.246-.35.14-.176-.106-.307-.34-.291-.524.016-.184.172-.247.35-.14.176.106.307.34.29.524m1.032.584c-.015.183-.172.246-.349.14-.177-.106-.307-.34-.292-.524.016-.184.173-.246.35-.14.177.106.307.34.291.524m1.032.602c-.016.184-.172.246-.35.14-.176-.106-.307-.34-.291-.524.016-.183.172-.246.35-.14.176.106.307.34.291.524"/><path fill="#67A4D1" d="M94.625 59.543L90.62 47.809c-.424-1.247-.925-1.147-.925-1.147l-.863.086 5.131 14.367.662-1.57v-.002z"/><path fill="#276796" d="M107.735 44.909c.207.003.505.195.822 1.01 0 0 .267.686.289 1.54 0 0-.006 1.371-.426 1.899L95.351 65.191s-.152.169-.386.169l-.901.134 12.826-20.54.845-.045z"/><path fill="#4087C6" d="M93.991 60.309l12.596-15.224s.522-.633 1.11.879c0 0 .267.685.289 1.54 0 0 .076 1.326-.343 1.854L94.45 65.325s-.152.169-.386.169c0 0-.414-.011-.67-.735l-4.982-14.59s-.3-.936-.234-1.958c0 0 .082-1.387.654-1.463 0 0 .5-.103.892 1.06l4.267 12.502v-.001z"/></g><path fill="#9ABEDF" d="M114.807 56.047L49.194 18.26c-.873-.513-1.818-.468-2.56-.05a2.58 2.58 0 0 0-.228.146l-1.372.87.418.405a2.874 2.874 0 0 0-.162.96v49.587c0 .954.719 2.21 1.542 2.693l67.035 38.493.774 1.17 1.122-.71c.643-.29.908-1.204.908-2.12V58.368c0-.953-1.04-1.836-1.864-2.32"/><path fill="#F1F1F2" d="M112.815 112.438L45.444 73.752c-.823-.483-1.542-1.74-1.542-2.693V21.472c0-2.083 2.107-3.387 3.903-2.33l65.614 37.787c.823.484 1.864 1.367 1.864 2.32v51.337c0 1.456-.67 2.909-2.468 1.852"/><path fill="#B3CEE2" d="M111.136 107.27L47.428 70.6a.434.434 0 0 1-.217-.376V23.198c0-.333.362-.542.65-.375l63.708 36.67a.435.435 0 0 1 .217.376v47.026a.434.434 0 0 1-.65.376"/><path fill="#F6FBFD" d="M111.386 106.546L48.112 70.112a.267.267 0 0 1-.133-.231V23.339c0-.205.222-.334.4-.231l63.273 36.434a.266.266 0 0 1 .134.23v46.543a.266.266 0 0 1-.4.23"/><path fill="#B3CEE2" d="M115.283 114.492l-2.475-.417L47.44 76.396c-3.079-1.774-4.724-.754-4.724-.754L2.072 95.438.49 95.172v1.789l.026.014c.127.49.699.85.699.85L68.61 136.71c2.4 1.37 4.373.685 4.373.685l41.5-20.384c.586-.307.789-.622.8-.908v-1.611z"/><path fill="#E8E8EA" d="M46.015 73.961l68.468 39.442s1.8 1.027 0 1.97l-41.5 20.384s-1.972.685-4.373-.685L1.215 96.187s-1.63-1.028 0-1.97l41.984-20.449s1.37-.835 2.816.193"/><path fill="#A3C0DE" d="M49.256 118.935l-.007.003c-.004.004.032-.01.007-.003"/><path fill="#A3C3E2" d="M60.338 113.058a.46.46 0 0 0 0-.078c-.031-.408-.581-.722-.581-.722l-17.142-9.85c-.651-.429-1.396.01-1.396.01l-11.06 5.37c-.274.125-.393.261-.423.392-.011.047-.008.093-.008.137v.42l.205-.107c.117.112.24.184.24.184l17.538 10.112c.761.42 1.462.054 1.538.012l.007-.003 10.5-5.242c.26-.136.417.001.501-.134l.081.013v-.514z"/><path fill="#C8DAE9" d="M42.615 102.89l17.142 9.849s1.312.749 0 1.435l-10.501 5.242c-.028.014.03-.009 0 0 0 0-.739.436-1.545-.008l-17.538-10.113s-.994-.577-.013-1.026c.053-.025-.011.005 0 0l11.06-5.37s.744-.438 1.395-.01"/><path fill="#9ABEDF" d="M40.861 79.776l2.287 1.328c.218.128.594.136.84.019l2.563-1.22c.137-.066.197-.156.19-.246l.012-.005.037-.322-.434-.01-2.044-1.187c-.218-.128-.594-.135-.84-.02l-2.289 1.091-.431-.01-.037.325.01.005c-.026.088.014.18.136.252zm-4.335 2.348l6.277 3.647c.218.128.595.136.84.02l2.564-1.221a.327.327 0 0 0 .178-.177l.015-.007.041-.357-.628-.158-5.837-3.391c-.218-.126-.594-.134-.84-.017L36.749 81.6l-.328-.082-.045.392.005.003c-.002.075.043.15.146.21l-.001.001zm16.278 9.36l2.287 1.33c.22.128.593.135.84.018l2.563-1.22c.129-.061.192-.144.195-.228l.004-.001.037-.322-.394-.01-2.082-1.21c-.219-.126-.595-.135-.84-.018l-2.33 1.11-.392-.008-.037.324.003.001c-.014.083.032.168.146.234zm11.73 3.156c-.219-.127-.593-.136-.839-.02l-2.32 1.107-.402-.01-.037.325.005.003c-.017.084.027.17.144.238l2.285 1.33c.219.126.596.134.842.018l2.563-1.22c.13-.062.192-.147.192-.232l.007-.003.037-.322-.405-.01-2.071-1.204h-.001zM32.159 84.397l6.278 3.647c.217.127.595.135.84.019l2.564-1.22c.126-.06.19-.14.196-.223l.002-.001.037-.318-.625-.152-5.84-3.395c-.22-.126-.595-.135-.84-.019l-2.487 1.184-.238-.058-.034.301.003.002c-.014.082.031.167.144.233zm40.356 14.88c-.218-.126-.595-.136-.84-.02l-2.356 1.123-.368-.008-.037.324h.001c-.008.08.042.161.151.225l2.286 1.329c.219.125.594.134.838.018l2.564-1.22c.123-.06.19-.138.198-.218l.037-.322-.372-.008-2.102-1.222v-.001zm-11.78 1.55l2.287 1.328c.22.128.596.136.843.02l2.562-1.22c.134-.064.194-.152.191-.24l.009-.003.037-.323-.419-.009-2.059-1.196c-.219-.127-.594-.135-.838-.019l-2.307 1.098-.415-.01-.037.325.007.003c-.022.087.019.178.138.247l.001-.001zm3.989 2.319l2.289 1.329c.219.127.595.134.84.018l2.564-1.22c.123-.059.19-.137.198-.218l.037-.322-.372-.008-2.102-1.222c-.22-.127-.596-.136-.84-.02l-2.358 1.123-.366-.009-.037.324c-.01.08.04.162.148.225h-.001zm-36.665-16.65l10.268 5.964c.217.128.594.137.84.019l2.564-1.22c.103-.049.157-.113.179-.18l.008-.003.002-.017a.148.148 0 0 0 .003-.03l.032-.278-.712-.242-9.735-5.657c-.217-.127-.593-.135-.838-.018l-2.55 1.214-.179-.06-.035.305.01.005c.005.07.047.141.143.197v.001zm24.352 14.192l2.287 1.329c.219.127.597.135.842.02l2.564-1.22c.122-.06.188-.138.196-.218l.037-.323-.372-.008-2.103-1.222c-.22-.127-.595-.136-.839-.019l-2.358 1.122-.366-.009-.037.325c-.007.08.041.16.15.223h-.001zm3.991 2.318l2.286 1.329c.22.128.596.136.84.02l2.564-1.221c.137-.065.197-.154.192-.244l.01-.004.037-.322-.43-.01-2.049-1.19c-.217-.128-.594-.136-.838-.019l-2.294 1.092-.427-.01-.037.325.009.004c-.024.088.016.18.138.25h-.001zm3.991 2.319l2.287 1.328c.219.128.595.136.84.02l2.564-1.22c.116-.056.179-.13.192-.207l.004-.002.037-.322-.353-.008-2.122-1.231c-.217-.127-.593-.136-.839-.02l-2.375 1.131-.35-.008-.037.324.005.003c-.003.076.043.152.147.212zm16.112-3.729c-.216-.128-.593-.135-.838-.018l-2.36 1.121-.365-.008-.037.324c-.007.08.042.16.15.224l2.289 1.33c.216.126.593.135.837.018l2.565-1.221c.123-.059.189-.137.197-.217l.037-.322-.375-.009-2.1-1.222zm-7.79 3.87l2.288 1.328c.218.126.595.136.84.017l2.565-1.22c.126-.061.19-.143.194-.225l.003-.002.037-.322-.388-.008-2.086-1.213c-.22-.127-.595-.135-.839-.02l-2.337 1.114-.388-.008-.037.323.004.002c-.014.083.031.167.144.233v.001zm-4.333 2.178l2.289 1.328c.218.127.594.136.838.02l2.563-1.222c.135-.064.195-.152.192-.24l.01-.004.037-.322-.424-.01-2.053-1.193c-.22-.127-.595-.135-.84-.018l-2.301 1.095-.42-.01-.037.324.008.005c-.022.087.019.177.138.247zM29.8 88.547l.037-.325-.374-.009-2.1-1.22c-.219-.127-.595-.136-.838-.02l-2.355 1.123-.371-.008-.037.324c-.01.08.039.162.148.225l2.29 1.328c.216.127.592.135.838.019l2.564-1.223c.122-.057.189-.135.198-.214zm3.81 2.2l.038-.322-.37-.008-2.104-1.223c-.217-.127-.595-.135-.838-.019l-2.36 1.123-.366-.009-.037.324c-.009.08.04.161.148.225l2.288 1.329c.219.126.597.135.841.018l2.564-1.22c.122-.059.189-.137.197-.218h-.001zm3.991 2.318l.038-.321-.37-.008-2.104-1.223c-.219-.126-.595-.136-.84-.019l-2.36 1.122-.365-.008-.036.321c-.01.08.038.163.148.227l2.289 1.33c.217.126.594.135.839.018l2.563-1.22c.124-.06.19-.139.199-.22l-.001.001zm28.427 16.496h.002l.034-.3-1.285-.552-17.145-9.963c-.22-.127-.596-.135-.84-.019l-2.5 1.189-.223-.096-.04.343c-.008.08.04.161.15.224l18.247 10.604c.22.128.596.136.842.018l2.562-1.22c.129-.061.192-.144.196-.228zm18.134-.339l2.564-1.219c.123-.058.19-.137.197-.217l.038-.323-.371-.008-2.104-1.221c-.22-.128-.595-.137-.84-.02l-2.357 1.122-.367-.008-.036.322v.001c-.009.08.04.162.15.225l2.287 1.328c.219.128.596.136.839.018zm.865.972l2.286 1.33c.218.127.594.135.837.02l2.566-1.223c.114-.053.173-.125.19-.199l.007-.003.037-.322-.341-.008-2.131-1.237c-.22-.127-.594-.137-.84-.019l-2.385 1.136-.341-.008-.038.324.008.004c0 .073.044.146.145.205zm11.589 3.092c-.218-.129-.593-.135-.838-.019l-2.357 1.122-.369-.009-.037.324.001.001c-.008.08.041.16.15.223l2.286 1.33c.22.127.594.134.839.018l2.565-1.22c.121-.059.188-.137.196-.217h.001l.037-.323-.37-.008-2.104-1.222zm-16.791-1.837l2.563-1.22c.123-.059.189-.137.198-.217l.036-.322-.367-.008-2.106-1.224c-.22-.127-.595-.136-.84-.02l-2.361 1.125-.364-.008-.037.321v.002c-.007.08.042.16.15.224l2.287 1.328c.219.128.596.135.84.019h.001zm8.439 1.95c-.217-.128-.593-.137-.838-.019l-2.472 1.176-.253-.063-.034.292.01.006c-.025.088.015.18.136.25l6.278 3.647c.218.128.594.134.84.018l2.563-1.22c.122-.059.189-.137.197-.217l.032-.277-.48-.12-5.98-3.473h.001zm-19.892-3.436l2.289 1.328c.217.127.594.137.84.019l2.564-1.22c.122-.058.188-.137.196-.217l.037-.323-.371-.008-2.104-1.222c-.219-.128-.593-.135-.838-.019l-2.356 1.122-.37-.008-.036.324c-.01.08.04.16.149.224zm22.008 9.278l.037-.327-.633-.155-5.83-3.387c-.219-.128-.594-.136-.839-.02l-2.47 1.176-.254-.062-.037.322h.001c-.01.08.038.163.147.227l6.28 3.647c.218.126.614.228.859.11l2.543-1.312c.118-.056.181-.131.193-.209h.001v-.004l.002-.006zm-20.359-7.35l.037-.322-.367-.008-2.108-1.223c-.218-.126-.593-.136-.837-.02l-2.359 1.124-.367-.008-.037.321c-.01.08.039.162.149.226l2.287 1.329c.218.128.597.136.84.019l2.565-1.221c.124-.058.19-.137.197-.218v.001zm9.859 5.59c-.216-.126-.592-.136-.838-.018l-2.491 1.185-.236-.057-.036.308c-.009.08.04.162.15.226l6.277 3.647c.217.127.595.135.84.017l2.563-1.22c.123-.058.19-.137.198-.217l.04-.342-.672-.162-5.795-3.367zm-5.868-3.274l.036-.32-.37-.008-2.103-1.222c-.22-.127-.596-.136-.84-.02l-2.358 1.123-.367-.008-.036.321c-.01.081.038.163.15.228l2.286 1.328c.22.126.595.135.84.019l2.565-1.223c.123-.058.19-.137.197-.218zM48.305 97.853l-.037.324.014.007c.009.067.048.133.139.185l2.288 1.329c.22.127.595.135.84.019l2.562-1.22c.103-.05.157-.113.18-.18l.015-.006.037-.322-.31-.007-2.16-1.255c-.22-.127-.595-.135-.84-.02l-2.42 1.153-.308-.007zm4.302-1.88c-.006.078.041.156.148.217l2.287 1.33c.218.125.595.134.84.018l2.564-1.22c.12-.057.184-.134.195-.211l.002-.001V96.1l.037-.317-.358-.007-2.115-1.229c-.218-.127-.594-.136-.839-.02l-2.37 1.129-.356-.008-.037.317v.007h.002v.001zm10.416-2.455l-.438-.01-2.04-1.186c-.219-.128-.595-.135-.84-.018l-2.287 1.088-.433-.01-.037.324.01.005c-.026.09.013.183.136.254l2.287 1.327c.22.129.594.138.838.02l2.565-1.22c.138-.066.197-.157.19-.247l.012-.005.037-.322zm-1.698-2.402l-.037.324.004.003c-.015.083.03.169.145.235l2.286 1.33c.217.126.593.134.84.018l2.563-1.22c.129-.062.192-.146.195-.23l.005-.002.037-.322-.397-.009-2.078-1.208c-.219-.126-.596-.135-.839-.017l-2.328 1.107-.396-.009zm3.965 2.34l-.033.295-.004.03.013.006c.007.067.047.134.14.188l2.287 1.33c.22.126.595.136.84.018l2.565-1.219c.104-.05.16-.116.18-.184l.013-.006.004-.027v-.001l.033-.294-.314-.007-2.156-1.252c-.218-.127-.594-.135-.839-.019l-2.416 1.15-.313-.007v-.001zm3.978 2.274l-.037.324c-.008.08.042.16.151.223l2.287 1.33c.218.127.594.136.84.018l2.563-1.218c.125-.06.19-.14.198-.222l.036-.319-.368-.008-2.104-1.224c-.22-.126-.596-.133-.84-.017l-2.36 1.121-.366-.008zm3.987 2.351l-.037.324.015.008c.01.066.05.131.14.183l2.287 1.33c.218.126.593.135.837.018l2.566-1.22a.322.322 0 0 0 .179-.178l.015-.007.037-.322-.307-.007-2.162-1.257c-.219-.126-.597-.134-.84-.019l-2.424 1.154-.306-.007zm3.99 2.319l-.033.29v.002l-.003.032.013.007c.01.066.05.132.14.184l2.289 1.33c.218.127.592.135.838.018l2.562-1.22c.103-.05.157-.113.18-.179l.016-.006.003-.032v-.001l.034-.29-.308-.006-2.162-1.256c-.217-.127-.595-.135-.838-.019l-2.422 1.153-.308-.007h-.001zm3.991 2.318l-.033.29v.003l-.004.031.014.007c.009.066.048.132.139.184l2.287 1.33c.22.126.596.136.84.019l2.564-1.22c.103-.049.157-.113.18-.18l.014-.006.004-.03v-.003l.033-.289-.307-.007-2.162-1.256c-.22-.127-.596-.135-.842-.018l-2.422 1.152-.305-.007zm3.99 2.319l-.033.29v.001l-.003.033.014.007c.01.066.05.132.14.186l2.287 1.327c.219.127.593.135.838.02l2.565-1.221a.326.326 0 0 0 .179-.179l.015-.006.003-.032v-.001l.034-.29-.305-.006-2.165-1.257c-.219-.127-.594-.135-.84-.018l-2.42 1.153-.308-.007h-.001zm-12.663 2.544c.002.073.045.145.144.202l2.286 1.328c.22.128.597.137.84.02l2.565-1.22c.111-.053.17-.124.187-.197l.008-.003.002-.017.035-.305-.338-.008-2.134-1.242c-.22-.126-.595-.135-.839-.018l-2.393 1.14-.334-.008-.035.305-.002.019.008.004zm10.407-2.435l-.37-.009-2.103-1.222c-.219-.128-.595-.136-.84-.018l-2.357 1.121-.368-.008-.037.324c-.008.08.041.16.15.224l2.288 1.328c.217.128.594.137.84.02l2.562-1.22c.123-.059.19-.138.198-.218l.037-.322zm-12.342-6.965l-2.103-1.222c-.219-.126-.595-.136-.838-.019l-2.358 1.122-.368-.008-.037.322c-.01.08.04.161.15.225l2.287 1.33c.22.127.594.135.84.018l2.563-1.22c.124-.058.19-.137.198-.218l.037-.321-.371-.009zm-14.03.11c-.005.079.041.157.147.218l2.286 1.33c.22.126.597.135.843.017l2.562-1.22c.12-.057.184-.133.195-.21l.002-.002v-.005l.037-.317-.361-.008-2.113-1.228c-.218-.128-.593-.137-.838-.019l-2.369 1.128-.357-.008-.036.317v.007h.002zm15.616 13.766c-.008.08.04.16.15.224l2.288 1.329c.218.127.592.135.837.02l2.565-1.222c.123-.058.19-.137.198-.217l.037-.322-.371-.009-2.103-1.221c-.22-.128-.595-.136-.84-.02l-2.358 1.122-.366-.008-.037.322v.002zM48.49 93.519c-.008.08.04.16.15.223l2.287 1.33c.219.127.595.134.84.019l2.564-1.222c.122-.059.189-.137.197-.217l.037-.322-.37-.008-2.103-1.222c-.219-.128-.595-.136-.841-.02l-2.357 1.123-.367-.008-.037.322v.002zm8.806-4.745l-.037.323c-.009.08.04.162.15.226l2.287 1.329c.219.126.594.134.84.019l2.563-1.22c.123-.06.19-.139.198-.219l.037-.322-.368-.008-2.105-1.222c-.219-.128-.596-.136-.842-.02l-2.357 1.123-.366-.009zm-4.255-2.487l-.037.324c-.008.08.041.16.15.224l2.286 1.33c.22.127.594.134.84.018l2.563-1.22c.123-.058.19-.137.199-.217l.037-.323-.369-.008-2.105-1.222c-.218-.128-.596-.136-.84-.019l-2.358 1.122-.366-.009zm50.313 26.238a.143.143 0 0 0 .002-.02l.036-.315-.613-.15-5.846-3.397c-.22-.126-.596-.134-.84-.019l-2.468 1.176-.256-.063-.034.299.007.004c-.021.086.02.176.14.245l6.276 3.649c.219.126.593.135.84.018l2.562-1.22c.11-.053.17-.123.188-.194l.005-.002.001-.011z"/><path fill="#C8DAE9" d="M46.637 79.138c.219.126.196.325-.048.44l-2.564 1.22c-.246.119-.621.11-.84-.018l-2.287-1.328c-.219-.127-.197-.324.048-.441l2.563-1.221c.246-.116.622-.11.84.018l2.288 1.33zm16.549 9.545c.219.128.196.326-.05.443l-2.562 1.221c-.246.115-.621.107-.84-.02L57.448 89c-.22-.127-.199-.326.046-.442l2.563-1.22c.246-.117.623-.109.842.018l2.287 1.328v-.001zm-4.254-2.486c.218.127.195.326-.05.442l-2.564 1.22c-.245.116-.62.109-.84-.018l-2.286-1.33c-.218-.127-.198-.324.048-.442l2.563-1.219c.245-.117.622-.109.84.019l2.289 1.328z"/><path fill="#9ABEDF" d="M48.858 83.9l-.037.324c-.008.08.042.16.15.223l2.287 1.33c.219.127.594.135.84.019l2.562-1.22c.124-.059.19-.138.2-.218l.036-.322-.368-.008-2.106-1.223c-.217-.127-.595-.135-.84-.018l-2.358 1.121-.366-.008z"/><path fill="#C8DAE9" d="M54.748 83.81c.218.127.195.325-.05.441l-2.563 1.22c-.246.117-.621.11-.84-.018l-2.286-1.33c-.219-.126-.198-.323.047-.441l2.563-1.22c.245-.116.623-.108.84.02l2.29 1.328h-.001z"/><path fill="#9ABEDF" d="M48.527 88.543l-.037.324c-.008.08.041.16.15.224l2.286 1.33c.22.126.595.134.84.018l2.563-1.22c.123-.059.19-.138.199-.218l.037-.322-.369-.008-2.105-1.222c-.218-.128-.596-.136-.84-.02l-2.358 1.122-.366-.008z"/><path fill="#C8DAE9" d="M54.417 88.453c.218.127.195.326-.05.442l-2.564 1.22c-.245.116-.62.108-.84-.019l-2.286-1.33c-.218-.126-.198-.323.048-.441l2.563-1.22c.245-.116.622-.108.84.02l2.289 1.328z"/><path fill="#9ABEDF" d="M44.344 86.156l-.038.324c-.007.08.042.16.15.223l2.287 1.33c.219.127.594.134.84.018l2.562-1.22c.124-.058.19-.137.2-.217l.037-.323-.37-.008-2.105-1.222c-.217-.127-.595-.136-.84-.019l-2.358 1.122-.365-.008z"/><path fill="#C8DAE9" d="M50.233 86.066c.218.127.195.325-.05.441l-2.563 1.22c-.246.116-.621.109-.84-.018l-2.286-1.33c-.219-.126-.198-.324.048-.442l2.562-1.219c.245-.117.623-.108.84.02l2.29 1.328h-.001z"/><path fill="#9ABEDF" d="M44.062 90.806l-.037.324c-.008.08.042.16.15.224l2.286 1.33c.22.127.595.134.84.018l2.563-1.22c.123-.058.19-.137.2-.218l.036-.322-.368-.008-2.106-1.222c-.218-.128-.595-.136-.84-.019l-2.358 1.122-.366-.009z"/><path fill="#C8DAE9" d="M49.952 90.716c.218.127.195.326-.05.442l-2.564 1.22c-.245.116-.62.109-.84-.018l-2.285-1.33c-.219-.127-.198-.324.047-.442l2.563-1.219c.245-.117.623-.109.84.019l2.289 1.328z"/><path fill="#9ABEDF" d="M39.879 88.419l-.037.324c-.008.08.041.16.15.223l2.286 1.33c.219.127.594.135.84.019l2.563-1.22c.123-.059.19-.138.199-.218l.037-.322-.369-.009-2.105-1.222c-.218-.127-.596-.135-.84-.018l-2.358 1.121-.366-.008z"/><path fill="#C8DAE9" d="M45.768 88.329c.218.127.195.325-.05.441l-2.563 1.22c-.246.117-.62.11-.84-.018l-2.286-1.33c-.219-.126-.198-.323.048-.441l2.563-1.22c.244-.117.622-.108.84.02l2.288 1.328z"/><path fill="#9ABEDF" d="M44.124 95.41l-.037.325c-.008.08.042.16.15.223l2.287 1.33c.219.127.594.134.84.018l2.562-1.22c.124-.058.19-.137.2-.217l.036-.323-.368-.008-2.106-1.222c-.217-.127-.595-.136-.84-.019l-2.358 1.122-.366-.008v-.001z"/><path fill="#C8DAE9" d="M50.014 95.32c.218.128.195.326-.05.442l-2.563 1.22c-.246.116-.621.109-.84-.018l-2.286-1.33c-.219-.126-.198-.324.047-.442l2.563-1.219c.245-.117.623-.108.84.02l2.29 1.328-.001-.001z"/><path fill="#9ABEDF" d="M39.94 93.023l-.036.324c-.008.08.041.16.15.224l2.286 1.33c.22.126.594.134.84.018l2.563-1.22c.123-.058.19-.137.199-.218l.037-.322-.369-.008-2.105-1.222c-.218-.128-.596-.136-.84-.019l-2.358 1.121-.366-.008h-.001z"/><path fill="#C8DAE9" d="M45.83 92.933c.218.127.196.326-.05.442l-2.563 1.22c-.246.116-.62.108-.84-.019l-2.286-1.33c-.218-.126-.198-.323.048-.441l2.563-1.219c.244-.117.622-.109.84.019l2.289 1.328h-.001z"/><path fill="#9ABEDF" d="M39.603 97.267l-.037.324c-.008.08.042.16.15.223l2.286 1.33c.22.127.595.134.84.018l2.563-1.22c.124-.058.19-.137.2-.217l.036-.323-.368-.008-2.106-1.222c-.217-.127-.595-.136-.84-.019l-2.358 1.122-.366-.008z"/><path fill="#C8DAE9" d="M45.493 97.177c.218.127.195.325-.05.441l-2.563 1.22c-.246.116-.621.109-.84-.018l-2.286-1.33c-.219-.126-.198-.324.047-.442l2.563-1.219c.245-.117.623-.108.84.02l2.289 1.328z"/><path fill="#9ABEDF" d="M35.42 94.88l-.037.323c-.008.08.041.16.15.224l2.286 1.33c.219.126.594.134.84.018l2.563-1.22c.123-.058.19-.137.199-.218l.037-.322-.369-.008-2.105-1.222c-.218-.128-.596-.136-.84-.019l-2.358 1.121-.366-.008v.001z"/><path fill="#C8DAE9" d="M41.31 94.79c.217.126.195.325-.051.44l-2.563 1.221c-.246.116-.62.108-.84-.019l-2.286-1.33c-.219-.126-.198-.323.048-.441l2.563-1.219c.244-.117.622-.109.84.019l2.288 1.328.001.001z"/><path fill="#9ABEDF" d="M44.818 81.556l-.037.324c-.008.08.042.16.15.224l2.286 1.33c.22.126.595.134.84.018l2.563-1.22c.124-.059.19-.137.2-.218l.036-.322-.368-.008-2.106-1.222c-.217-.128-.595-.136-.84-.019l-2.358 1.121-.366-.008z"/><path fill="#C8DAE9" d="M50.708 81.466c.218.127.195.326-.05.442l-2.563 1.22c-.246.116-.621.108-.84-.019l-2.286-1.33c-.219-.126-.198-.323.047-.441l2.563-1.219c.245-.117.623-.109.84.019l2.289 1.328zm16.503 9.574c.218.128.195.324-.049.442l-2.563 1.22c-.247.116-.623.108-.84-.018l-2.286-1.33c-.219-.126-.198-.323.047-.44l2.566-1.22c.242-.118.62-.11.839.017l2.286 1.33v-.001zm3.97 2.298c.218.126.197.325-.047.442L68.57 95c-.246.117-.62.107-.84-.02l-2.287-1.329c-.22-.127-.197-.323.047-.44l2.566-1.22c.244-.117.62-.109.838.018l2.288 1.329h-.001zm3.976 2.302c.219.127.196.325-.049.443l-2.563 1.219c-.245.117-.622.108-.84-.02l-2.287-1.329c-.22-.126-.198-.323.047-.44l2.565-1.22c.244-.116.62-.11.84.017l2.287 1.33zM46.29 83.804c.219.127.197.325-.047.442l-2.564 1.221c-.245.116-.622.108-.84-.02L36.564 81.8c-.22-.128-.198-.325.047-.441l2.563-1.22c.245-.117.621-.11.84.017l6.277 3.648h-.001zm12.288 7.044c.218.127.196.323-.048.44l-2.564 1.22c-.247.118-.62.11-.84-.018l-2.287-1.33c-.219-.126-.198-.324.048-.44l2.563-1.22c.244-.118.62-.109.84.018l2.288 1.33zm4.29 2.48c.218.125.197.322-.05.44l-2.564 1.22c-.244.118-.618.109-.838-.02l-2.287-1.327c-.22-.127-.197-.326.047-.442l2.565-1.22c.244-.116.62-.109.838.02l2.288 1.328.001.001zm3.988 2.318c.218.127.199.325-.046.44l-2.563 1.221c-.246.116-.623.108-.842-.018l-2.285-1.33c-.22-.128-.198-.324.047-.44l2.563-1.222c.246-.116.62-.108.84.02l2.286 1.329zm3.99 2.318c.22.127.199.325-.047.441l-2.563 1.22c-.246.117-.62.109-.84-.018l-2.286-1.33c-.22-.127-.2-.324.048-.44l2.564-1.22c.243-.118.62-.109.838.018l2.286 1.329zM41.923 86.078c.22.127.2.325-.046.442l-2.563 1.219c-.245.116-.624.108-.84-.019l-6.279-3.647c-.217-.127-.194-.325.049-.441l2.564-1.22c.244-.117.62-.108.839.018l6.276 3.648zm12.494 7.026c.219.128.196.324-.048.44l-2.565 1.223c-.244.115-.62.108-.84-.019l-2.286-1.33c-.219-.126-.197-.325.048-.441l2.563-1.221c.246-.116.622-.108.841.02l2.287 1.328zm4.113 2.447c.218.128.198.326-.048.443l-2.564 1.22c-.245.116-.622.107-.84-.018l-2.287-1.33c-.22-.126-.197-.324.05-.441l2.563-1.221c.245-.117.62-.108.84.02l2.286 1.327zm3.989 2.32c.22.126.199.325-.046.44l-2.563 1.22c-.246.119-.623.11-.842-.016l-2.287-1.33c-.218-.127-.196-.326.049-.441l2.564-1.221c.245-.118.62-.11.838.018l2.287 1.33zm16.63.088c.216.127.193.325-.05.44l-2.566 1.221c-.244.117-.618.108-.837-.018l-2.287-1.33c-.218-.126-.199-.324.047-.44l2.564-1.222c.244-.116.622-.107.841.019l2.287 1.33h.001zm-4.311 2.324c.219.127.196.324-.047.44l-2.565 1.221c-.244.116-.619.108-.838-.018l-2.286-1.33c-.22-.127-.198-.324.045-.44l2.565-1.223c.245-.116.621-.106.84.02l2.286 1.33zm-8.328-.094c.219.128.198.325-.047.442l-2.562 1.22c-.247.116-.624.107-.842-.02l-2.288-1.327c-.22-.127-.196-.326.049-.442l2.564-1.22c.244-.117.62-.109.839.018l2.287 1.329zm3.99 2.319c.22.126.199.325-.047.44l-2.564 1.221c-.244.116-.621.11-.84-.018l-2.288-1.329c-.217-.126-.195-.325.048-.442l2.566-1.221c.244-.116.619-.107.839.02l2.286 1.329zM41.813 90.495c.219.127.197.324-.046.44l-2.564 1.22c-.246.118-.623.11-.84-.019l-10.267-5.965c-.22-.127-.2-.324.047-.44l2.563-1.222c.245-.116.62-.108.838.02l10.269 5.966zm12.383 7.237c.218.126.197.324-.049.44l-2.562 1.22c-.245.117-.62.109-.84-.019l-2.288-1.328c-.218-.126-.196-.325.05-.441l2.563-1.221c.244-.115.62-.107.838.02l2.288 1.329zm3.99 2.319c.218.126.197.325-.046.441l-2.564 1.22c-.245.117-.623.108-.842-.02l-2.287-1.328c-.218-.127-.195-.325.049-.442l2.563-1.22c.245-.116.62-.107.84.02l2.286 1.329h.001zm3.99 2.318c.22.127.198.325-.048.441l-2.563 1.22c-.245.117-.62.109-.84-.02l-2.286-1.328c-.219-.127-.198-.324.047-.44l2.564-1.22c.244-.118.62-.11.838.018l2.288 1.329zm3.991 2.318c.218.128.196.325-.047.442l-2.564 1.22c-.245.116-.62.108-.84-.02l-2.287-1.328c-.219-.126-.197-.324.046-.44l2.564-1.222c.246-.116.622-.107.84.02l2.288 1.328zm16.97-4.41c.219.127.197.324-.05.442l-2.562 1.22c-.246.117-.62.108-.838-.018l-2.289-1.33c-.218-.127-.197-.323.048-.44l2.566-1.22c.243-.117.62-.11.838.018l2.288 1.329-.001-.001zm-4.309 2.326c.219.126.199.322-.046.439l-2.565 1.221c-.244.117-.62.108-.837-.019l-2.289-1.33c-.218-.127-.197-.324.047-.44l2.565-1.22c.245-.117.622-.11.838.018l2.287 1.33v.001zm-4.336 2.224c.217.127.195.323-.048.44l-2.565 1.22c-.244.119-.622.11-.84-.017l-2.288-1.329c-.217-.128-.195-.324.05-.441l2.564-1.223c.244-.115.62-.107.839.02l2.288 1.33zm-4.335 2.18c.218.126.197.323-.049.44l-2.563 1.22c-.244.116-.62.108-.838-.019l-2.289-1.329c-.218-.126-.196-.324.05-.44l2.562-1.22c.245-.117.62-.109.84.017l2.287 1.33v.001zm-40.47-19.01c.217.128.196.326-.049.44l-2.564 1.223c-.246.116-.622.107-.839-.019l-2.289-1.328c-.218-.127-.193-.325.05-.441l2.565-1.222c.243-.117.62-.108.838.018l2.287 1.33.001-.001zm3.81 2.202c.218.128.198.325-.047.441l-2.564 1.221c-.244.117-.622.108-.841-.018l-2.288-1.329c-.217-.128-.195-.326.05-.443l2.565-1.22c.243-.116.62-.108.838.019l2.287 1.329zm3.99 2.319c.22.127.198.324-.047.441l-2.564 1.221c-.245.116-.622.108-.84-.018l-2.288-1.33c-.218-.127-.195-.326.048-.442l2.565-1.22c.245-.117.621-.107.84.019l2.287 1.329h-.001zm28.43 16.507c.218.126.197.323-.048.44l-2.563 1.22c-.246.118-.622.11-.842-.018l-18.246-10.604c-.22-.126-.197-.324.049-.441l2.563-1.219c.244-.116.62-.108.84.019l18.247 10.603zm21.21-6.43c.22.128.198.327-.048.443l-2.564 1.22c-.244.117-.62.107-.84-.019l-2.287-1.33c-.219-.126-.197-.323.048-.44l2.564-1.22c.245-.117.622-.11.84.018l2.288 1.329-.001-.001zm3.992 2.318c.218.128.195.326-.05.443l-2.564 1.22c-.245.116-.619.108-.837-.02l-2.288-1.326c-.22-.13-.198-.327.046-.441l2.565-1.223c.246-.116.622-.108.84.019l2.288 1.328zm12.129 7.054c.218.126.197.323-.05.441l-2.562 1.22c-.247.117-.621.108-.84-.018l-6.277-3.65c-.218-.125-.196-.323.048-.438l2.565-1.222c.243-.115.62-.107.84.019l6.276 3.648zm-20.43-7.048c.219.127.199.325-.047.443l-2.562 1.22c-.246.116-.623.108-.84-.02l-2.287-1.328c-.22-.128-.198-.326.047-.441l2.564-1.22c.245-.118.621-.11.84.018l2.286 1.328h-.001zm3.992 2.319c.219.128.197.325-.048.441l-2.564 1.22c-.243.117-.62.109-.839-.02l-2.287-1.327c-.22-.128-.198-.326.047-.442l2.564-1.22c.244-.117.62-.108.84.02l2.287 1.328zm3.99 2.317c.217.128.198.326-.048.442l-2.566 1.222c-.243.116-.619.108-.837-.018l-2.286-1.332c-.219-.126-.197-.322.049-.44l2.562-1.22c.246-.118.62-.108.84.02l2.286 1.326z"/><path fill="#9ABEDF" d="M89.322 107.944l2.286 1.33c.219.127.594.135.838.02l2.565-1.223c.114-.053.174-.125.19-.199l.007-.003.037-.322-.341-.008-2.131-1.237c-.22-.127-.594-.137-.84-.019l-2.385 1.136-.341-.008-.037.324.007.004c0 .073.045.146.145.205"/><path fill="#C8DAE9" d="M95.096 107.305c.218.128.198.326-.048.442l-2.565 1.222c-.244.116-.62.108-.838-.018l-2.286-1.331c-.218-.127-.197-.323.049-.44l2.562-1.22c.246-.119.62-.109.84.018l2.286 1.327z"/><path fill="#9ABEDF" d="M89.068 112.55l2.286 1.33c.219.127.594.135.838.02l2.565-1.223c.114-.054.174-.125.19-.199l.007-.003.037-.322-.34-.008-2.132-1.237c-.22-.127-.594-.137-.84-.02l-2.385 1.136-.341-.007-.037.324.007.004c0 .073.045.146.145.204"/><path fill="#C8DAE9" d="M94.843 111.911c.217.128.197.326-.049.442l-2.565 1.222c-.244.116-.62.108-.837-.019l-2.287-1.33c-.218-.127-.197-.324.049-.441l2.562-1.22c.246-.118.62-.108.84.019l2.287 1.327zm4.097 2.38c.218.126.195.324-.048.441l-2.565 1.22c-.245.116-.62.109-.839-.018l-2.286-1.33c-.219-.127-.196-.325.048-.44l2.564-1.22c.245-.117.62-.11.838.018l2.288 1.328v.001zm-20.46-7.146c.22.126.199.325-.046.442l-2.564 1.22c-.244.117-.621.108-.84-.02l-2.287-1.328c-.219-.126-.197-.325.049-.441l2.564-1.221c.243-.116.618-.108.838.018l2.286 1.33zm3.993 2.32c.218.126.195.323-.049.44l-2.563 1.22c-.245.116-.622.11-.84-.02l-2.287-1.327c-.22-.128-.198-.325.047-.442l2.564-1.221c.245-.117.62-.108.84.02l2.288 1.33zm12.105 7.257c.218.126.196.323-.048.44l-2.562 1.22c-.247.116-.623.11-.84-.018l-6.279-3.647c-.218-.127-.197-.325.049-.441l2.564-1.22c.245-.118.62-.11.838.019l6.278 3.647zm-20.432-7.398c.22.128.198.326-.045.442l-2.565 1.22c-.245.118-.622.108-.84-.019l-2.288-1.328c-.219-.127-.196-.325.05-.44l2.563-1.222c.245-.116.62-.109.838.019l2.287 1.328zm3.992 2.32c.22.127.197.324-.048.44l-2.565 1.221c-.245.116-.62.108-.837-.02l-2.288-1.328c-.219-.127-.198-.325.048-.442l2.562-1.22c.246-.116.621-.108.841.02l2.287 1.328v.001zm12.129 7.05c.217.129.197.327-.047.442l-2.543 1.313c-.245.117-.641.015-.86-.11l-6.279-3.648c-.216-.128-.195-.325.05-.443l2.563-1.22c.245-.116.62-.107.84.02l6.276 3.647v-.001zm-20.359-7.352c.218.128.198.326-.048.442l-2.565 1.22c-.243.118-.622.11-.84-.018l-2.287-1.33c-.218-.126-.196-.323.05-.44l2.564-1.222c.244-.116.62-.106.837.02l2.29 1.328h-.001zm16.285 9.462c.219.127.198.324-.048.442l-2.562 1.219c-.246.118-.623.11-.841-.017l-6.278-3.647c-.217-.128-.195-.327.05-.443l2.564-1.22c.246-.117.622-.107.838.02l6.277 3.646zm-12.295-7.142c.22.126.197.323-.047.44l-2.565 1.222c-.244.116-.62.107-.84-.019l-2.287-1.328c-.22-.128-.197-.325.048-.443l2.564-1.22c.244-.117.62-.108.84.019l2.287 1.329z"/><path fill="#9ABEDF" d="M83.666 113.946l2.563-1.22c.123-.059.19-.137.198-.217l.036-.321-.367-.009-2.106-1.224c-.22-.126-.595-.135-.84-.02l-2.361 1.125-.364-.008-.036.321v.003c-.008.08.04.16.15.223l2.286 1.328c.22.129.596.135.84.019h.001zm-5.813 2.759l.037-.32-.37-.009-2.104-1.222c-.22-.127-.596-.135-.84-.02l-2.358 1.123-.366-.008-.037.322c-.01.08.038.163.15.227l2.286 1.328c.22.126.596.136.84.019l2.565-1.222c.123-.059.19-.138.197-.218zm-1.798-2.15c-.008.08.04.16.15.224l2.288 1.328c.218.127.592.135.837.02l2.565-1.222c.123-.058.19-.137.198-.217l.037-.322-.371-.008-2.103-1.222c-.22-.128-.595-.136-.84-.02l-2.358 1.122-.366-.008-.037.322v.003z"/><path fill="#C8DAE9" d="M86.315 111.961c.218.127.195.325-.049.44l-2.563 1.22c-.245.117-.622.11-.84-.018l-2.287-1.328c-.22-.128-.197-.325.047-.442l2.564-1.221c.245-.116.62-.107.84.02l2.288 1.33v-.001zm-4.335 2.18c.22.127.197.324-.048.44l-2.565 1.222c-.245.115-.62.107-.837-.02l-2.288-1.328c-.219-.128-.198-.326.048-.443l2.562-1.22c.246-.116.621-.108.842.02l2.286 1.329zm-4.24 2.018c.22.126.197.324-.047.44l-2.565 1.222c-.244.117-.62.107-.84-.019l-2.287-1.328c-.22-.128-.197-.325.048-.443l2.564-1.22c.244-.116.62-.108.84.019l2.287 1.329z"/><path fill="#E5ECF3" d="M104.63 97.686L54.848 69.02a.287.287 0 0 1-.144-.249V32.216c0-.22.24-.359.431-.249l49.784 28.666c.09.052.144.147.143.25v36.554c0 .221-.239.36-.43.25"/><path fill="#B3CEE2" d="M105.061 63.596L54.703 34.599v-.135l50.358 28.997z"/><path fill="#9ABEDF" d="M57.156 34.565c-.016.184-.172.247-.35.14-.176-.106-.307-.34-.291-.524.016-.183.172-.246.349-.14.177.106.308.34.292.524m1.031.584c-.015.184-.172.247-.349.14-.177-.106-.307-.34-.292-.524.016-.183.173-.246.35-.14.177.106.307.341.291.524m1.032.603c-.016.183-.172.246-.35.14-.176-.106-.307-.34-.291-.524.016-.183.172-.246.35-.14.176.106.307.34.291.524"/><path fill="#67A4D1" d="M76 72.403l-4.005-11.736c-.424-1.246-.925-1.146-.925-1.146l-.863.086 5.131 14.367.662-1.571z"/><path fill="#276796" d="M89.11 57.769c.207.003.505.194.822 1.01 0 0 .267.685.289 1.54 0 0-.006 1.37-.426 1.898L76.726 78.051s-.152.169-.386.169l-.901.133 12.826-20.54.845-.044z"/><path fill="#4087C6" d="M75.366 73.169l12.596-15.224s.522-.633 1.11.879c0 0 .267.685.289 1.539 0 0 .076 1.327-.343 1.854L75.825 78.185s-.152.168-.386.168c0 0-.414-.01-.67-.734l-4.982-14.591s-.3-.936-.234-1.958c0 0 .082-1.387.654-1.463 0 0 .5-.104.892 1.06l4.267 12.502z"/><path fill="#E5ECF3" d="M91.77 108.626L41.986 79.96a.286.286 0 0 1-.144-.248V43.157c0-.221.24-.36.431-.25l49.784 28.667a.288.288 0 0 1 .143.249v36.555c0 .22-.239.359-.43.248"/><path fill="#B3CEE2" d="M92.2 74.536L41.842 45.539v-.134L92.2 74.402z"/><path fill="#9ABEDF" d="M44.295 45.506c-.016.183-.172.246-.35.14-.176-.106-.307-.34-.291-.524.016-.184.172-.247.35-.14.176.106.307.34.29.524m1.032.584c-.015.183-.172.246-.349.14-.177-.106-.307-.34-.292-.524.016-.184.173-.246.35-.14.177.106.307.34.291.524m1.032.602c-.016.184-.172.246-.35.14-.176-.106-.307-.34-.291-.524.016-.183.172-.246.35-.14.176.106.307.34.291.524"/><path fill="#67A4D1" d="M63.139 83.343l-4.005-11.734c-.424-1.247-.925-1.147-.925-1.147l-.863.086 5.131 14.367.662-1.57v-.002z"/><path fill="#276796" d="M76.249 68.709c.207.003.505.195.822 1.01 0 0 .267.686.289 1.54 0 0-.006 1.371-.426 1.899L63.865 88.991s-.152.169-.386.169l-.901.134 12.826-20.54.845-.045z"/><path fill="#4087C6" d="M62.505 84.109l12.596-15.224s.522-.633 1.11.879c0 0 .267.685.289 1.54 0 0 .076 1.326-.343 1.854L62.964 89.125s-.152.169-.386.169c0 0-.414-.011-.67-.735l-4.982-14.59s-.3-.936-.234-1.958c0 0 .082-1.387.654-1.463 0 0 .5-.103.892 1.06l4.267 12.502v-.001z"/></g></svg>