<svg xmlns="http://www.w3.org/2000/svg" xmlns:xlink="http://www.w3.org/1999/xlink" viewBox="0 0 45 44"><defs><path id="a" d="M.309.613h32.254v14.856H.309z"/><path id="c" d="M0 43.594h44.516V.328H0z"/></defs><g fill="none" fill-rule="evenodd" opacity=".4"><path fill="#FFF" d="M6.499 9.302V1.407v7.895z"/><g transform="translate(0 .375)"><path fill="#B5D0E5" d="M6.5 9.63a.702.702 0 0 1-.703-.703V1.032a.702.702 0 1 1 1.406 0v7.895a.702.702 0 0 1-.703.703"/><path fill="#1C2636" d="M12.968 35.1h2.488c2.477 0 2.234-1.99 2.234-1.99v-2.865c0-5.34 5.146-8.452 5.146-8.452 2.74-1.705 2.38-6.127 2.38-6.127v-4.067c0-2.816-2.38-2.67-2.38-2.67H3.098S.72 8.782.72 11.598v4.067s-.36 4.422 2.38 6.127c0 0 5.147 3.112 5.147 8.452v2.864S8.002 35.1 10.48 35.1h2.488z"/><path fill="#B5D0E5" d="M8.944 33.195s-.04.471.257.799c.244.267.673.403 1.279.403h4.976c.605 0 1.035-.136 1.278-.403.299-.33.257-.804.257-.809a.916.916 0 0 1-.005-.076v-2.864c0-5.672 5.263-8.918 5.487-9.053 2.34-1.458 2.045-5.43 2.043-5.47l-.003-4.123c0-.704-.172-1.226-.51-1.55-.457-.44-1.125-.42-1.13-.418H3.1c-.041.002-.707-.023-1.166.418-.338.324-.51.846-.51 1.55v4.067c-.005.096-.29 4.075 2.048 5.531.216.13 5.478 3.376 5.478 9.048v2.864a.691.691 0 0 1-.006.086h.001zm6.512 2.608H10.48c-1.032 0-1.818-.298-2.339-.886-.639-.721-.618-1.602-.598-1.84v-2.832c0-4.869-4.76-7.82-4.808-7.85C-.341 20.48.003 15.807.019 15.61l-.002-4.01c0-1.114.324-1.982.962-2.584.893-.84 2.036-.797 2.164-.788l19.694-.002c.083-.005 1.227-.05 2.12.79.64.602.963 1.47.963 2.584v4.067c.013.141.356 4.814-2.712 6.724-.054.034-4.815 2.986-4.815 7.855v2.831c.02.24.04 1.12-.599 1.841-.52.588-1.306.886-2.338.886z"/><path fill="#FFF" d="M19.436 8.927V1.032"/><path fill="#B5D0E5" d="M19.437 9.63a.702.702 0 0 1-.703-.703V1.032a.702.702 0 1 1 1.406 0v7.895a.702.702 0 0 1-.703.703m-9.328 9.525a2.858 2.858 0 1 1 5.717 0 2.858 2.858 0 0 1-5.717 0"/><path fill="#B5D0E5" d="M12.968 17a2.158 2.158 0 0 0-2.155 2.155c0 1.19.967 2.156 2.155 2.156a2.158 2.158 0 0 0 2.155-2.156A2.158 2.158 0 0 0 12.968 17m0 5.717a3.566 3.566 0 0 1-3.561-3.562 3.565 3.565 0 0 1 3.56-3.561 3.565 3.565 0 0 1 3.562 3.561 3.566 3.566 0 0 1-3.561 3.562"/><g transform="translate(11.953 28.125)"><mask id="b" fill="#fff"><use xlink:href="#a"/></mask><path fill="#B5D0E5" d="M9.053 15.469c-1.349 0-2.371-.21-2.463-.23C-.032 13.723.31 7 .313 6.932a.702.702 0 1 1 1.403.087c-.013.246-.247 5.605 5.178 6.848.03.006 4.278.873 6.48-1.068-.003 0 2.402-2.515 3.273-4.23.417-.692 3.93-6.37 6.72-7.315.146-.065 4.78-1.97 8.914 1.12a.702.702 0 1 1-.842 1.127c-3.494-2.61-7.531-.95-7.573-.934-2.006.682-5.002 5.056-5.991 6.684-.943 1.862-3.424 4.453-3.53 4.563-1.524 1.345-3.65 1.656-5.292 1.656" mask="url(#b)"/></g><path fill="#1C2636" d="M43.237 39.286l-9.35-16.884a1.18 1.18 0 0 0-2.064 0l-9.35 16.884a1.18 1.18 0 0 0 1.032 1.75h18.7c.899 0 1.467-.964 1.032-1.75"/><path fill="#B5D0E5" d="M32.855 22.497a.467.467 0 0 0-.417.246l-9.35 16.883a.469.469 0 0 0 .006.473.47.47 0 0 0 .41.235h18.7a.47.47 0 0 0 .411-.235.469.469 0 0 0 .007-.473l-9.35-16.883a.467.467 0 0 0-.417-.246m9.35 19.243h-18.7c-.674 0-1.28-.347-1.622-.927a1.866 1.866 0 0 1-.026-1.867l9.35-16.885a1.861 1.861 0 0 1 1.648-.97c.694 0 1.31.363 1.647.97l9.35 16.885a1.866 1.866 0 0 1-.026 1.867c-.342.58-.948.927-1.621.927"/><mask id="d" fill="#fff"><use xlink:href="#c"/></mask><path fill="#B5D0E5" mask="url(#d)" d="M31.81 38.103h2.105V35.92H31.81zM33.978 27.582l-.586 7.009h-1.059l-.602-7.009v-.554h2.247z"/></g></g></svg>