<svg xmlns="http://www.w3.org/2000/svg" xmlns:xlink="http://www.w3.org/1999/xlink" viewBox="0 0 45 30"><defs><path id="a" d="M0 .117h44.401v4.729H0z"/><path id="c" d="M0 29.56h44.401V0H0z"/></defs><g fill="none" fill-rule="evenodd" opacity=".4"><path fill="#1C2636" d="M6.428.692H38.69a2.15 2.15 0 0 1 2.151 2.15V27.22H4.277V2.843a2.15 2.15 0 0 1 2.15-2.15"/><path fill="#B5D0E5" d="M4.97 26.527h35.178V2.843a1.46 1.46 0 0 0-1.458-1.458H6.427A1.46 1.46 0 0 0 4.97 2.843v23.684zm35.87 1.384H4.278a.692.692 0 0 1-.692-.692V2.843A2.845 2.845 0 0 1 6.427 0H38.69a2.845 2.845 0 0 1 2.843 2.843v24.376c0 .383-.31.692-.692.692z"/><path fill="#2E8BE0" d="M4.277 23.503h36.564"/><path fill="#B5D0E5" d="M40.841 24.196H4.277a.692.692 0 1 1 0-1.385h36.564a.692.692 0 1 1 0 1.385"/><path fill="#1C2636" d="M25.785 25.523v1.09h-7.17v-1.09H.693v1.344c0 2.004 1.625 1.999 3.629 1.999h35.758c2.005 0 3.63.005 3.63-2v-1.343H25.784z"/><g transform="translate(0 24.714)"><mask id="b" fill="#fff"><use xlink:href="#a"/></mask><path fill="#B5D0E5" d="M4.306 3.46h35.79c.922 0 1.777-.002 2.308-.204.31-.119.613-.3.613-1.103v-.652h-16.54V1.9c0 .383-.31.692-.692.692h-7.169a.692.692 0 0 1-.692-.692v-.399H1.384v.652c0 .802.304.984.613 1.103.532.202 1.386.204 2.293.204h.016zM40.11 4.844H4.321c-1.077.009-2.045 0-2.818-.295C.506 4.167 0 3.36 0 2.153V.81C0 .426.31.117.692.117h17.924c.383 0 .693.31.693.692v.399h5.784V.809c0-.383.31-.692.692-.692H43.71c.383 0 .692.31.692.692v1.344c0 1.208-.505 2.014-1.503 2.396-.768.294-1.749.295-2.787.295z" mask="url(#b)"/></g><path fill="#B5D0E5" d="M22.543 4.89a.324.324 0 0 0-.29.171l-8.105 14.637a.319.319 0 0 0 .005.327.32.32 0 0 0 .284.164h16.211a.32.32 0 0 0 .285-.164.319.319 0 0 0 .005-.327L22.83 5.06a.323.323 0 0 0-.288-.17m8.105 16.682h-16.21a1.7 1.7 0 0 1-1.479-.844 1.702 1.702 0 0 1-.023-1.702L21.042 4.39a1.717 1.717 0 0 1 1.5-.884h.001c.624 0 1.198.34 1.5.885l8.106 14.636a1.702 1.702 0 0 1-.023 1.702 1.7 1.7 0 0 1-1.478.844"/><mask id="d" fill="#fff"><use xlink:href="#c"/></mask><path fill="#B5D0E5" mask="url(#d)" d="M21.637 18.337h1.825v-1.892h-1.825zM23.516 9.216l-.507 6.076h-.919l-.521-6.076v-.479h1.947z"/></g></svg>