<svg xmlns="http://www.w3.org/2000/svg" width="117" height="121"><g fill="none" fill-rule="evenodd"><path fill="#9ABEDF" d="M114.807 38.866L49.193 1.078c-.873-.513-1.818-.468-2.56-.05a2.58 2.58 0 0 0-.228.146l-1.372.87.419.405a2.874 2.874 0 0 0-.162.96v49.587c0 .954.718 2.21 1.541 2.693l67.036 38.493.773 1.17 1.122-.71c.643-.29.909-1.204.909-2.12V41.187c0-.953-1.042-1.836-1.864-2.32"/><path fill="#F1F1F2" d="M112.815 95.257L45.443 56.571c-.823-.483-1.542-1.74-1.542-2.693V4.291c0-2.083 2.107-3.387 3.904-2.33l65.614 37.787c.822.484 1.864 1.367 1.864 2.32v51.337c0 1.456-.671 2.909-2.468 1.852"/><path fill="#B3CEE2" d="M111.135 90.09L47.428 53.419a.433.433 0 0 1-.217-.376V6.017c0-.333.36-.542.65-.375l63.707 36.67c.135.078.218.221.218.376v47.026a.434.434 0 0 1-.651.376"/><path fill="#F6FBFD" d="M111.385 89.365L48.112 52.93a.267.267 0 0 1-.134-.231V6.158c0-.205.223-.334.4-.231l63.274 36.434a.267.267 0 0 1 .134.23v46.543a.267.267 0 0 1-.401.23"/><path fill="#B3CEE2" d="M115.283 97.311l-2.475-.417-65.37-37.679c-3.079-1.774-4.724-.754-4.724-.754L2.071 78.257.49 77.991v1.789l.025.014c.128.49.699.85.699.85l67.395 38.885c2.4 1.37 4.373.685 4.373.685l41.5-20.384c.586-.307.79-.622.799-.908l.002-.001v-1.61z"/><path fill="#E8E8EA" d="M46.014 56.78l68.468 39.442s1.801 1.027 0 1.97l-41.5 20.384s-1.972.685-4.373-.685L1.214 79.006s-1.63-1.028 0-1.97l41.984-20.449s1.371-.835 2.816.193"/><path fill="#A3C0DE" d="M49.255 101.754l-.007.003c-.004.004.032-.01.007-.003"/><path fill="#A3C3E2" d="M60.337 95.877a.46.46 0 0 0 0-.078c-.03-.408-.58-.722-.58-.722l-17.143-9.85c-.65-.429-1.395.01-1.395.01l-11.06 5.37c-.274.125-.394.261-.424.392-.011.047-.008.093-.008.137v.42l.206-.107c.117.112.24.184.24.184l17.537 10.112c.762.42 1.463.054 1.538.012l.007-.003 10.501-5.242c.26-.136.416.001.5-.134l.081.013v-.514z"/><path fill="#C8DAE9" d="M42.614 85.709l17.142 9.849s1.313.749 0 1.435l-10.5 5.242c-.029.014.03-.009 0 0 0 0-.74.436-1.546-.008L30.173 92.114s-.994-.577-.014-1.026c.053-.025-.01.005 0 0l11.06-5.37s.744-.438 1.395-.01"/><path fill="#9ABEDF" d="M40.86 62.595l2.288 1.328c.218.128.593.136.839.019l2.564-1.22c.137-.066.196-.156.19-.246l.011-.005.037-.322-.434-.01-2.044-1.187c-.218-.128-.594-.135-.84-.02l-2.289 1.091-.43-.01-.038.325.01.005c-.025.088.014.18.137.252m-4.335 2.348l6.277 3.647c.217.128.594.136.84.02l2.563-1.221c.101-.049.155-.112.178-.177l.016-.007.04-.357-.627-.158-5.837-3.391c-.218-.126-.594-.134-.84-.017l-2.389 1.137-.328-.082-.045.392.005.003c-.002.075.044.15.147.21m16.276 9.361l2.288 1.33c.219.128.592.135.84.018l2.563-1.22c.128-.061.191-.144.195-.228l.004-.001.037-.322-.394-.01-2.082-1.21c-.22-.126-.595-.135-.84-.018l-2.331 1.11-.391-.008-.038.324.004.001c-.014.083.031.168.145.234m11.731 3.156c-.22-.127-.593-.136-.84-.02l-2.32 1.107-.402-.01-.037.325.005.003c-.016.084.028.17.144.238l2.286 1.33c.218.126.596.134.841.018l2.563-1.22c.13-.062.192-.147.193-.232l.006-.003.037-.322-.404-.01-2.072-1.204zM32.157 67.216l6.278 3.647c.218.127.596.135.841.019l2.563-1.22c.126-.06.19-.14.196-.223l.003-.001.036-.318-.625-.152-5.84-3.395c-.22-.126-.594-.135-.839-.019l-2.487 1.184-.238-.058-.035.301.003.002c-.013.082.032.167.144.233m40.357 14.88c-.219-.126-.595-.136-.84-.02L69.317 83.2l-.367-.008-.037.324c-.007.08.042.161.152.225l2.285 1.329c.22.125.594.134.839.018l2.564-1.22c.122-.06.189-.138.197-.218l.038-.322-.373-.008-2.101-1.222zm-11.781 1.55l2.288 1.328c.219.128.596.136.842.02l2.563-1.22c.134-.064.194-.152.19-.24l.01-.003.036-.323-.418-.009-2.06-1.196c-.219-.127-.593-.135-.838-.019l-2.306 1.098-.416-.01-.037.325.007.003c-.021.087.02.178.139.247m3.99 2.318l2.288 1.329c.22.127.596.134.84.018l2.564-1.22c.123-.059.19-.137.198-.218l.037-.322-.372-.008-2.102-1.222c-.22-.127-.595-.136-.84-.02l-2.357 1.123-.367-.009-.037.324c-.009.08.04.162.148.225m-36.665-16.65l10.267 5.964c.217.128.594.137.84.019l2.564-1.22c.103-.049.157-.113.18-.18l.007-.003.002-.017a.148.148 0 0 0 .004-.03l.032-.278-.712-.242-9.735-5.657c-.218-.127-.594-.135-.839-.018l-2.55 1.214-.178-.06-.035.305.01.005c.004.07.046.141.143.197M52.41 83.507l2.286 1.329c.22.127.597.135.842.02l2.565-1.22c.121-.06.187-.138.195-.218l.037-.323-.371-.008-2.103-1.222c-.22-.127-.595-.136-.84-.019l-2.358 1.122-.366-.009-.037.325h.001c-.008.08.04.16.149.223m3.991 2.318l2.285 1.329c.221.128.597.136.841.02l2.564-1.221c.136-.065.196-.154.191-.244l.01-.004.038-.322-.431-.01-2.048-1.19c-.218-.128-.595-.136-.839-.019l-2.294 1.092-.426-.01-.038.325.01.004c-.024.088.016.18.137.25m3.99 2.319l2.288 1.328c.218.128.595.136.84.02l2.563-1.22c.117-.056.179-.13.192-.207l.004-.002.037-.322-.353-.008-2.121-1.231c-.218-.127-.594-.136-.84-.02l-2.374 1.131-.35-.008-.037.324.004.003c-.002.076.043.152.147.212m16.112-3.729c-.216-.128-.592-.135-.838-.018l-2.359 1.121-.366-.008-.037.324h.001c-.008.08.041.16.15.224l2.288 1.33c.216.126.593.135.838.018l2.565-1.221c.122-.059.188-.137.196-.217l.037-.322-.374-.009-2.1-1.222zm-7.79 3.87l2.288 1.328c.218.126.596.136.84.017l2.565-1.22c.126-.061.19-.143.195-.225l.003-.002.037-.322-.389-.008-2.086-1.213c-.22-.127-.594-.135-.839-.02l-2.337 1.114-.387-.008-.037.323.003.002c-.014.083.032.167.144.233m-4.332 2.179l2.288 1.328c.218.127.594.136.838.02l2.563-1.222c.136-.064.196-.152.193-.24l.01-.004.036-.322-.423-.01-2.054-1.193c-.22-.127-.594-.135-.84-.018l-2.3 1.095-.42-.01-.038.324.008.005c-.021.087.02.177.139.247M29.798 71.366l.037-.325-.373-.009-2.1-1.22c-.22-.127-.596-.136-.839-.02l-2.354 1.123-.372-.008-.037.324c-.01.08.039.162.148.225l2.29 1.328c.217.127.592.135.839.019L29.6 71.58c.123-.057.19-.135.198-.214m3.811 2.2l.037-.322-.369-.008-2.105-1.223c-.217-.127-.595-.135-.837-.019l-2.36 1.123-.367-.009-.037.324c-.008.08.04.161.149.225l2.287 1.329c.22.126.597.135.841.018l2.564-1.22c.123-.059.189-.137.197-.218m3.991 2.318l.037-.321-.37-.008-2.104-1.223c-.218-.126-.595-.136-.84-.019l-2.36 1.122-.364-.008-.037.321c-.01.08.039.163.148.227l2.289 1.33c.218.126.594.135.84.018l2.563-1.22c.123-.06.19-.139.198-.22M66.026 92.38h.002l.034-.3-1.284-.552-17.146-9.963c-.22-.127-.595-.135-.84-.019l-2.5 1.189-.223-.096-.039.343c-.009.08.04.161.15.224L62.426 93.81c.22.128.596.136.842.018l2.563-1.22c.128-.061.192-.144.195-.228m18.134-.339l2.564-1.219c.123-.058.19-.137.198-.217l.037-.323-.37-.008-2.104-1.221c-.22-.128-.596-.137-.84-.02l-2.357 1.122-.367-.008-.037.322v.001c-.008.08.04.162.15.225l2.288 1.328c.218.128.596.136.838.018m.865.972l2.286 1.33c.219.127.594.135.838.02l2.565-1.223c.114-.053.174-.125.19-.199l.007-.003.037-.322-.341-.008-2.13-1.237c-.22-.127-.595-.137-.841-.019l-2.385 1.136-.341-.008-.037.324.007.004c0 .073.045.146.145.205m11.59 3.092c-.219-.129-.594-.135-.838-.019l-2.357 1.122-.37-.009-.036.324v.001c-.007.08.041.16.15.223l2.287 1.33c.219.127.594.134.838.018l2.565-1.22c.122-.059.188-.137.197-.217l.038-.323-.37-.008-2.105-1.222zm-16.792-1.837l2.563-1.22c.123-.059.19-.137.198-.217l.037-.322-.368-.008-2.105-1.224c-.22-.127-.595-.136-.841-.02l-2.36 1.125-.364-.008-.037.321v.002c-.008.08.041.16.15.224l2.287 1.328c.218.128.596.135.84.019m8.44 1.95c-.218-.128-.594-.137-.839-.019l-2.471 1.176-.254-.063-.034.292.01.006c-.025.088.015.18.137.25l6.277 3.647c.218.128.594.134.841.018l2.563-1.22c.122-.059.188-.137.197-.217l.032-.277-.48-.12-5.98-3.473zM68.37 92.782l2.29 1.328c.216.127.593.137.839.019l2.564-1.22c.122-.058.188-.137.196-.217l.037-.323-.37-.008-2.105-1.222c-.218-.128-.593-.135-.837-.019l-2.356 1.122-.37-.008-.037.324c-.009.08.04.16.15.224m22.007 9.278l.037-.327-.633-.155-5.83-3.387c-.218-.128-.594-.136-.838-.02l-2.47 1.176-.254-.062-.037.322c-.01.08.039.163.148.227l6.279 3.647c.218.126.615.228.86.11l2.542-1.312c.118-.056.182-.131.193-.209h.002v-.004-.006M70.02 94.71l.037-.322-.368-.008-2.108-1.223c-.217-.126-.593-.136-.837-.02l-2.358 1.124-.367-.008-.037.321c-.01.08.038.162.148.226l2.287 1.329c.219.128.597.136.84.019l2.566-1.221c.123-.058.189-.137.197-.218m9.858 5.591c-.216-.126-.592-.136-.838-.018l-2.49 1.185-.237-.057-.035.308c-.01.08.04.162.149.226l6.277 3.647c.218.127.595.135.841.017l2.562-1.22c.123-.058.19-.137.199-.217l.039-.342-.671-.162-5.796-3.367zm-5.868-3.274l.037-.32-.37-.008-2.103-1.222c-.22-.127-.597-.136-.84-.02l-2.359 1.123-.366-.008-.037.321c-.01.081.038.163.15.228l2.286 1.328c.22.126.596.135.84.019l2.565-1.223c.124-.058.19-.137.197-.218M48.303 80.672l-.037.324.014.007c.01.067.049.133.14.185l2.287 1.329c.22.127.596.135.84.019l2.563-1.22c.102-.05.156-.113.18-.18l.015-.006.036-.322-.31-.007-2.16-1.255c-.22-.127-.595-.135-.839-.02l-2.421 1.153-.308-.007zm4.302-1.88c-.005.078.042.156.148.217l2.288 1.33c.218.125.594.134.84.018l2.564-1.22c.119-.057.183-.134.194-.211l.002-.001v-.005l.001-.001.036-.317-.358-.007-2.114-1.229c-.219-.127-.594-.136-.84-.02l-2.369 1.129-.357-.008-.036.317v.007h.001zm10.416-2.455l-.437-.01-2.041-1.186c-.219-.128-.595-.135-.839-.018l-2.288 1.088-.433-.01-.037.324.01.005c-.026.09.013.183.136.254l2.287 1.327c.22.129.594.138.839.02l2.564-1.22c.139-.066.198-.157.19-.247l.012-.005.037-.322zm-1.698-2.402l-.037.324.005.003c-.016.083.03.169.144.235l2.287 1.33c.216.126.593.134.839.018l2.564-1.22c.128-.062.191-.146.194-.23l.005-.002.037-.322-.397-.009-2.077-1.208c-.22-.126-.597-.135-.84-.017l-2.327 1.107-.397-.009zm3.966 2.34l-.034.295-.003.03.012.006c.007.067.048.134.14.188l2.288 1.33c.22.126.595.136.84.018l2.564-1.219c.105-.05.16-.116.181-.184l.013-.006.003-.027v-.001l.034-.294-.315-.007-2.156-1.252c-.217-.127-.594-.135-.838-.019l-2.416 1.15-.313-.007zm3.978 2.274l-.038.324c-.007.08.042.16.151.223l2.287 1.33c.219.127.595.136.84.018l2.564-1.218c.124-.06.19-.14.197-.222l.037-.319-.368-.008-2.105-1.224c-.219-.126-.596-.133-.84-.017l-2.359 1.121-.366-.008zm3.987 2.351l-.037.324.014.008c.01.066.05.131.14.183l2.288 1.33c.218.126.593.135.836.018l2.566-1.22c.102-.048.156-.112.18-.178l.014-.007.037-.322-.306-.007-2.163-1.257c-.219-.126-.596-.134-.84-.019l-2.424 1.154-.305-.007zm3.99 2.319l-.033.29v.002l-.004.032.014.007c.009.066.049.132.14.184l2.288 1.33c.218.127.593.135.838.018l2.563-1.22c.102-.05.156-.113.18-.179l.015-.006.004-.032v-.001l.033-.29-.308-.006-2.162-1.256c-.217-.127-.595-.135-.838-.019l-2.422 1.153-.308-.007zm3.99 2.318l-.032.29v.003l-.004.031.013.007c.009.066.048.132.14.184l2.287 1.33c.22.126.595.136.84.019l2.563-1.22c.103-.049.158-.113.18-.18l.015-.006.003-.03v-.003l.034-.289-.308-.007-2.162-1.256c-.219-.127-.595-.135-.841-.018l-2.423 1.152-.304-.007zm3.991 2.319l-.033.29v.001l-.004.033.014.007c.01.066.05.132.14.186L87.63 89.7c.218.127.593.135.837.02l2.565-1.221c.102-.049.156-.113.18-.179l.014-.006.004-.032v-.001l.033-.29-.305-.006-2.164-1.257c-.22-.127-.595-.135-.841-.018l-2.42 1.153-.308-.007zM72.561 90.4c.002.073.045.145.144.202l2.287 1.328c.219.128.597.137.84.02l2.564-1.22c.112-.053.17-.124.188-.197l.008-.003.002-.017.035-.305-.339-.008-2.134-1.242c-.22-.126-.594-.135-.838-.018l-2.393 1.14-.334-.008-.035.305-.003.019.008.004zm10.407-2.435l-.37-.009-2.103-1.222c-.219-.128-.594-.136-.84-.018L77.3 87.837l-.369-.008-.037.324c-.007.08.042.16.151.224l2.287 1.328c.218.128.594.137.84.02l2.562-1.22c.123-.059.19-.138.198-.218l.037-.322zM70.626 81l-2.103-1.222c-.219-.126-.595-.136-.837-.019l-2.358 1.122-.369-.008-.037.322c-.009.08.04.161.151.225l2.286 1.33c.22.127.595.135.84.018l2.564-1.22c.123-.058.19-.137.198-.218l.036-.321-.37-.009zm-14.03.11c-.005.079.041.157.147.218l2.287 1.33c.219.126.597.135.843.017l2.562-1.22c.12-.057.183-.133.194-.21l.003-.002v-.005l.037-.317-.362-.008-2.112-1.228c-.219-.128-.594-.137-.839-.019l-2.368 1.128-.357-.008-.037.317v.007h.002zm15.616 13.766c-.008.08.041.16.15.224l2.288 1.329c.218.127.592.135.838.02l2.565-1.222c.122-.058.189-.137.197-.217l.037-.322-.371-.009-2.102-1.221c-.22-.128-.596-.136-.841-.02l-2.358 1.122-.366-.008-.037.322v.002zM48.491 76.338c-.009.08.04.16.15.223l2.286 1.33c.22.127.595.134.84.019l2.564-1.222c.123-.059.19-.137.198-.217l.037-.322-.37-.008-2.103-1.222c-.22-.128-.596-.136-.842-.02l-2.357 1.123-.366-.008-.037.322v.001zm8.805-4.745l-.037.323c-.008.08.041.162.151.226l2.286 1.329c.22.126.595.134.84.019l2.563-1.22c.123-.06.19-.139.199-.219l.037-.322-.369-.008-2.105-1.222c-.218-.128-.596-.136-.842-.02l-2.357 1.123-.366-.009zm-4.255-2.487l-.037.324c-.008.08.042.16.15.224l2.287 1.33c.219.127.594.134.84.018l2.562-1.22c.124-.058.19-.137.2-.217l.036-.323-.368-.008-2.106-1.222c-.217-.128-.595-.136-.84-.019l-2.358 1.122-.366-.009zm50.313 26.238a.143.143 0 0 0 .003-.02l.036-.315-.614-.15-5.845-3.397c-.22-.126-.597-.134-.84-.019l-2.468 1.176-.257-.063-.034.299.008.004c-.022.086.02.176.139.245l6.277 3.649c.218.126.592.135.84.018l2.561-1.22c.111-.053.17-.123.188-.194l.005-.002.001-.011z"/><path fill="#C8DAE9" d="M46.636 61.957c.219.126.196.325-.048.44l-2.564 1.22c-.246.119-.62.11-.84-.018l-2.286-1.328c-.22-.127-.197-.324.047-.441l2.563-1.221c.247-.116.623-.11.84.018l2.288 1.33zm16.55 9.545c.218.128.196.326-.05.443l-2.563 1.221c-.245.115-.62.107-.84-.02l-2.286-1.328c-.22-.127-.198-.326.046-.442l2.563-1.22c.246-.117.624-.109.842.018l2.287 1.328zm-4.255-2.486c.218.127.195.326-.05.442l-2.563 1.22c-.246.116-.621.109-.84-.018l-2.286-1.33c-.219-.127-.198-.324.047-.442l2.563-1.219c.245-.117.623-.109.84.019l2.29 1.328z"/><path fill="#9ABEDF" d="M48.858 66.719l-.037.324c-.008.08.041.16.15.223l2.286 1.33c.22.127.594.135.84.019l2.563-1.22c.123-.059.19-.138.199-.218l.037-.322-.369-.008-2.105-1.223c-.218-.127-.596-.135-.84-.018l-2.358 1.121-.366-.008z"/><path fill="#C8DAE9" d="M54.748 66.629c.217.127.195.325-.051.441l-2.563 1.22c-.245.117-.62.11-.84-.018l-2.286-1.33c-.218-.126-.198-.323.048-.441l2.563-1.22c.244-.116.622-.108.84.02l2.289 1.328z"/><path fill="#9ABEDF" d="M48.526 71.362l-.037.324c-.007.08.042.16.15.224l2.287 1.33c.219.126.594.134.84.018l2.562-1.22c.124-.059.19-.138.2-.218l.037-.322-.37-.008-2.105-1.222c-.217-.128-.595-.136-.84-.02l-2.358 1.122-.366-.008z"/><path fill="#C8DAE9" d="M54.416 71.272c.218.127.195.326-.05.442l-2.563 1.22c-.246.116-.621.108-.84-.019l-2.286-1.33c-.219-.126-.198-.323.048-.441l2.562-1.22c.245-.116.623-.108.84.02l2.29 1.328z"/><path fill="#9ABEDF" d="M44.343 68.975l-.037.324c-.008.08.041.16.15.223l2.286 1.33c.22.127.594.134.84.018l2.563-1.22c.123-.058.19-.137.199-.217l.037-.323-.369-.008-2.105-1.222c-.218-.127-.596-.136-.84-.019l-2.358 1.122-.366-.008z"/><path fill="#C8DAE9" d="M50.233 68.885c.217.127.195.325-.05.441l-2.564 1.22c-.245.116-.62.109-.84-.018l-2.286-1.33c-.218-.126-.198-.324.048-.442l2.563-1.219c.244-.117.622-.108.84.02l2.289 1.328z"/><path fill="#9ABEDF" d="M44.062 73.625l-.037.324c-.008.08.041.16.15.224l2.286 1.33c.219.127.594.134.84.018l2.563-1.22c.123-.058.19-.137.199-.218l.037-.322-.369-.008-2.105-1.222c-.218-.128-.596-.136-.84-.019l-2.359 1.122-.365-.009z"/><path fill="#C8DAE9" d="M49.951 73.535c.218.127.195.326-.05.442l-2.563 1.22c-.246.116-.62.109-.84-.018l-2.286-1.33c-.219-.127-.198-.324.048-.442l2.562-1.219c.245-.117.623-.109.84.019l2.29 1.328z"/><path fill="#9ABEDF" d="M39.878 71.238l-.037.324c-.008.08.041.16.15.223l2.286 1.33c.22.127.595.135.84.019l2.563-1.22c.123-.059.19-.138.199-.218l.037-.322-.369-.009-2.105-1.222c-.218-.127-.595-.135-.84-.018l-2.358 1.121-.366-.008z"/><path fill="#C8DAE9" d="M45.768 71.148c.218.127.195.325-.05.441l-2.564 1.22c-.245.117-.62.11-.84-.018l-2.286-1.33c-.218-.126-.198-.323.048-.441l2.563-1.22c.245-.117.622-.108.84.02l2.289 1.328z"/><path fill="#9ABEDF" d="M44.124 78.23l-.037.324c-.008.08.041.16.15.223l2.286 1.33c.22.127.594.134.84.018l2.563-1.22c.123-.058.19-.137.199-.217l.037-.323-.369-.008-2.105-1.222c-.218-.127-.596-.136-.84-.019l-2.358 1.122-.366-.008z"/><path fill="#C8DAE9" d="M50.013 78.14c.218.127.196.325-.05.441l-2.563 1.22c-.246.116-.62.109-.84-.018l-2.286-1.33c-.218-.126-.198-.324.048-.442l2.563-1.219c.244-.117.622-.108.84.02l2.288 1.328z"/><path fill="#9ABEDF" d="M39.94 75.842l-.037.324c-.008.08.042.16.15.224l2.286 1.33c.22.126.595.134.84.018l2.563-1.22c.124-.058.19-.137.2-.218l.036-.322-.369-.008-2.105-1.222c-.218-.128-.595-.136-.84-.019l-2.358 1.121-.366-.008z"/><path fill="#C8DAE9" d="M45.83 75.752c.218.127.195.326-.05.442l-2.563 1.22c-.246.116-.621.108-.84-.019l-2.286-1.33c-.219-.126-.198-.323.047-.441l2.563-1.219c.245-.117.623-.109.84.019l2.289 1.328z"/><path fill="#9ABEDF" d="M39.603 80.086l-.037.324c-.008.08.041.16.15.223l2.286 1.33c.219.127.594.134.84.018l2.563-1.22c.123-.058.19-.137.199-.217l.037-.323-.369-.008-2.105-1.222c-.218-.127-.596-.136-.84-.019l-2.358 1.122-.366-.008z"/><path fill="#C8DAE9" d="M45.492 79.996c.218.127.196.325-.05.441l-2.563 1.22c-.246.116-.62.109-.84-.018l-2.286-1.33c-.219-.126-.198-.324.048-.442l2.563-1.219c.244-.117.622-.108.84.02l2.288 1.328z"/><path fill="#9ABEDF" d="M35.42 77.698l-.038.324c-.008.08.042.16.15.224l2.286 1.33c.22.126.595.134.84.018l2.563-1.22c.123-.058.19-.137.2-.218l.036-.322-.369-.008-2.105-1.222c-.218-.128-.595-.136-.84-.019l-2.358 1.121-.366-.008z"/><path fill="#C8DAE9" d="M41.309 77.608c.218.127.195.326-.05.442l-2.564 1.22c-.245.116-.62.108-.84-.019l-2.286-1.33c-.218-.126-.197-.323.048-.441l2.563-1.219c.245-.117.622-.109.84.019l2.289 1.328z"/><path fill="#9ABEDF" d="M44.818 64.375l-.037.324c-.008.08.041.16.15.224l2.286 1.33c.22.126.594.134.84.018l2.563-1.22c.123-.059.19-.137.199-.218l.037-.322-.369-.008-2.105-1.222c-.218-.128-.596-.136-.84-.019l-2.358 1.121-.366-.008z"/><path fill="#C8DAE9" d="M50.707 64.285c.218.127.196.326-.05.442l-2.563 1.22c-.246.116-.62.108-.84-.019l-2.286-1.33c-.219-.126-.198-.323.048-.441l2.563-1.219c.244-.117.622-.109.84.019l2.288 1.328zm16.503 9.574c.218.128.196.324-.048.442l-2.564 1.22c-.246.116-.622.108-.84-.018l-2.286-1.33c-.218-.126-.198-.323.047-.44l2.566-1.22c.242-.118.62-.11.839.017l2.286 1.33zm3.971 2.298c.218.126.197.325-.047.442l-2.565 1.22c-.245.117-.62.107-.84-.02l-2.287-1.329c-.22-.127-.197-.323.047-.44l2.566-1.22c.244-.117.62-.109.839.018l2.287 1.329zm3.975 2.302c.22.127.197.325-.048.443l-2.564 1.219c-.245.117-.621.108-.84-.02l-2.287-1.329c-.219-.126-.198-.323.047-.44l2.565-1.22c.244-.116.621-.11.84.017l2.287 1.33zM46.291 66.623c.218.127.197.325-.047.442l-2.565 1.221c-.245.116-.622.108-.84-.02l-6.276-3.647c-.22-.128-.197-.325.048-.441l2.562-1.22c.246-.117.622-.11.84.017l6.278 3.648zm12.287 7.044c.218.127.197.323-.048.44l-2.563 1.22c-.247.118-.62.11-.84-.018l-2.287-1.33c-.22-.126-.199-.324.047-.44l2.563-1.22c.245-.118.62-.109.84.018l2.288 1.33zm4.29 2.48c.218.125.197.322-.049.44l-2.564 1.22c-.245.118-.619.109-.838-.02l-2.288-1.327c-.219-.127-.197-.326.048-.442l2.564-1.22c.245-.116.62-.109.839.02l2.288 1.328zm3.989 2.318c.217.127.198.325-.046.44l-2.564 1.221c-.245.116-.623.108-.841-.018l-2.286-1.33c-.22-.128-.198-.324.047-.44l2.564-1.222c.246-.116.62-.108.84.02l2.286 1.329zm3.99 2.318c.22.127.198.325-.047.441l-2.563 1.22c-.246.117-.621.109-.84-.018l-2.287-1.33c-.22-.127-.199-.324.048-.44l2.565-1.22c.242-.118.619-.109.837.018l2.287 1.329zM41.923 68.897c.22.127.199.325-.047.442l-2.563 1.219c-.245.116-.623.108-.84-.019l-6.279-3.647c-.217-.127-.194-.325.05-.441l2.563-1.22c.245-.117.62-.108.84.018l6.276 3.648zm12.494 7.026c.218.128.196.324-.049.44l-2.564 1.223c-.245.115-.62.108-.84-.019l-2.287-1.33c-.218-.126-.197-.325.049-.441l2.563-1.221c.246-.116.622-.108.84.02l2.288 1.328zm4.113 2.447c.218.128.197.326-.048.443l-2.564 1.22c-.245.116-.622.107-.84-.018l-2.288-1.33c-.219-.126-.196-.324.05-.441l2.564-1.221c.245-.117.62-.108.839.02l2.287 1.327zm3.988 2.32c.22.126.2.325-.046.44l-2.562 1.22c-.246.119-.624.11-.843-.016l-2.287-1.33c-.218-.127-.195-.326.05-.441l2.563-1.221c.246-.118.62-.11.839.018l2.286 1.33zm16.63.088c.217.127.194.325-.05.44l-2.566 1.221c-.243.117-.618.108-.836-.018l-2.288-1.33c-.218-.126-.198-.324.048-.44l2.564-1.222c.244-.116.622-.107.84.019l2.287 1.33zm-4.31 2.324c.218.127.196.324-.048.44l-2.564 1.221c-.245.116-.62.108-.839-.018l-2.285-1.33c-.22-.127-.199-.324.044-.44l2.565-1.223c.245-.116.621-.106.84.02l2.286 1.33zm-8.329-.094c.219.128.198.325-.046.442L63.9 84.67c-.246.116-.623.107-.842-.02l-2.288-1.327c-.219-.127-.196-.326.049-.442l2.564-1.22c.245-.117.62-.109.839.018l2.287 1.329zm3.99 2.319c.22.126.2.325-.047.44l-2.564 1.221c-.244.116-.62.11-.84-.018L64.76 85.64c-.216-.126-.195-.325.049-.442l2.565-1.221c.244-.116.62-.107.84.02l2.286 1.329zM41.813 73.314c.219.127.198.324-.046.44l-2.564 1.22c-.246.118-.623.11-.84-.019L28.095 68.99c-.22-.127-.199-.324.048-.44l2.563-1.222c.245-.116.62-.108.838.02l10.268 5.966zm12.384 7.237c.218.126.196.324-.05.44l-2.562 1.22c-.244.117-.62.109-.84-.019l-2.288-1.328c-.217-.126-.196-.325.05-.441l2.563-1.221c.244-.115.62-.107.839.02l2.288 1.329zm3.989 2.319c.218.126.198.325-.045.441l-2.565 1.22c-.245.117-.623.108-.842-.02l-2.286-1.328c-.218-.127-.196-.325.048-.442l2.564-1.22c.244-.116.62-.107.839.02l2.287 1.329zm3.99 2.318c.22.127.198.325-.047.441l-2.564 1.22c-.244.117-.62.109-.84-.02l-2.286-1.328c-.218-.127-.198-.324.047-.44l2.564-1.22c.245-.118.621-.11.839.018l2.287 1.329zm3.992 2.318c.218.128.195.325-.047.442l-2.565 1.22c-.244.116-.62.108-.84-.02l-2.287-1.328c-.218-.126-.196-.324.046-.44l2.565-1.222c.245-.116.621-.107.839.02l2.289 1.328zm16.97-4.41c.218.127.196.324-.05.442l-2.563 1.22c-.245.117-.62.108-.838-.018l-2.289-1.33c-.218-.127-.197-.323.049-.44l2.565-1.22c.244-.117.621-.11.838.018l2.288 1.329zm-4.31 2.326c.22.126.199.322-.045.439l-2.565 1.221c-.244.117-.622.108-.838-.019l-2.289-1.33c-.218-.127-.196-.324.048-.44l2.564-1.22c.246-.117.622-.11.838.018l2.287 1.33zm-4.336 2.224c.217.127.196.323-.048.44l-2.564 1.22c-.245.119-.622.11-.84-.017L68.75 87.96c-.218-.128-.195-.324.049-.441l2.565-1.223c.244-.115.618-.107.838.02l2.288 1.33zm-4.335 2.18c.218.126.198.323-.049.44l-2.562 1.22c-.245.116-.62.108-.839-.019l-2.288-1.329c-.218-.126-.196-.324.049-.44l2.562-1.22c.246-.117.62-.109.84.017l2.287 1.33zm-40.47-19.01c.217.128.197.326-.048.44l-2.564 1.223c-.246.116-.622.107-.84-.019l-2.288-1.328c-.219-.127-.194-.325.05-.441l2.565-1.222c.242-.117.619-.108.838.018l2.287 1.33zm3.81 2.202c.219.128.198.325-.047.441l-2.564 1.221c-.244.117-.621.108-.84-.018l-2.288-1.329c-.218-.128-.195-.326.05-.443l2.565-1.22c.242-.116.62-.108.837.019l2.287 1.329zm3.991 2.319c.22.127.198.324-.048.441L34.875 77c-.245.116-.621.108-.839-.018l-2.289-1.33c-.218-.127-.195-.326.049-.442l2.564-1.22c.245-.117.622-.107.84.019l2.287 1.329zm28.43 16.507c.218.126.196.323-.049.44l-2.563 1.22c-.246.118-.621.11-.842-.018L44.217 82.882c-.22-.126-.197-.324.05-.441l2.562-1.219c.245-.116.62-.108.84.019l18.247 10.603zm21.21-6.43c.22.128.197.327-.049.443l-2.563 1.22c-.245.117-.62.107-.84-.019l-2.288-1.33c-.218-.126-.196-.323.049-.44l2.563-1.22c.246-.117.622-.11.841.018l2.287 1.329zm3.992 2.318c.217.128.195.326-.05.443l-2.564 1.22c-.245.116-.62.108-.838-.02L85.38 88.05c-.22-.13-.199-.327.045-.441l2.565-1.223c.246-.116.622-.108.841.019l2.288 1.328zm12.128 7.054c.218.126.197.323-.05.441l-2.561 1.22c-.248.117-.622.108-.84-.018l-6.277-3.65c-.218-.125-.196-.323.048-.438l2.564-1.222c.243-.115.62-.107.84.019l6.276 3.648zm-20.429-7.048c.218.127.198.325-.047.443l-2.563 1.22c-.246.116-.622.108-.84-.02l-2.287-1.328c-.22-.128-.197-.326.047-.441l2.564-1.22c.246-.118.622-.11.84.018l2.286 1.328zm3.991 2.319c.22.128.197.325-.048.441l-2.564 1.22c-.242.117-.62.109-.838-.02l-2.288-1.327c-.219-.128-.198-.326.048-.442l2.563-1.22c.245-.117.62-.108.84.02l2.287 1.328zm3.99 2.317c.218.128.198.326-.048.442l-2.565 1.222c-.244.116-.62.108-.838-.018l-2.286-1.332c-.218-.126-.197-.322.049-.44l2.562-1.22c.246-.118.62-.108.84.02l2.287 1.326z"/><path fill="#9ABEDF" d="M89.322 90.763l2.286 1.33c.218.127.593.135.837.02l2.566-1.223c.113-.053.173-.125.189-.199l.007-.003.037-.322-.34-.008-2.132-1.237c-.22-.127-.594-.137-.84-.019l-2.384 1.136-.342-.008-.037.324.008.004c0 .073.044.146.145.205"/><path fill="#C8DAE9" d="M95.096 90.124c.217.128.198.326-.048.442l-2.566 1.222c-.244.116-.619.108-.837-.018l-2.286-1.331c-.219-.127-.198-.323.048-.44l2.562-1.22c.247-.119.62-.109.84.018l2.287 1.327z"/><path fill="#9ABEDF" d="M89.068 95.368l2.286 1.332c.218.126.593.134.837.018l2.566-1.222c.113-.054.173-.125.19-.199l.007-.003.036-.322-.34-.008-2.131-1.237c-.22-.127-.594-.137-.84-.02l-2.385 1.136-.342-.007-.037.324.008.004c0 .073.044.146.145.204"/><path fill="#C8DAE9" d="M94.842 94.73c.217.128.198.326-.048.442l-2.566 1.222c-.243.116-.619.108-.837-.019l-2.286-1.33c-.219-.127-.198-.324.048-.441l2.563-1.22c.246-.118.62-.108.84.019l2.286 1.327zm4.097 2.38c.218.126.195.324-.048.441l-2.564 1.22c-.245.116-.62.109-.84-.018l-2.286-1.33c-.219-.127-.196-.325.048-.44l2.565-1.22c.244-.117.62-.11.837.018l2.288 1.328zm-20.46-7.146c.221.126.199.325-.046.442l-2.564 1.22c-.243.117-.621.108-.84-.02l-2.286-1.328c-.22-.126-.197-.325.048-.441l2.564-1.221c.244-.116.619-.108.838.018l2.286 1.33zm3.993 2.32c.218.126.196.323-.048.44l-2.564 1.22c-.244.116-.621.11-.84-.02l-2.287-1.327c-.22-.128-.197-.325.047-.442l2.564-1.221c.246-.117.62-.108.84.02l2.288 1.33zm12.106 7.257c.218.126.196.323-.048.44l-2.563 1.22c-.247.116-.623.11-.84-.018l-6.278-3.647c-.219-.127-.197-.325.048-.441l2.565-1.22c.244-.118.62-.11.837.019l6.279 3.647zm-20.433-7.398c.22.128.198.326-.044.442l-2.565 1.22c-.245.118-.622.108-.84-.019l-2.289-1.328c-.218-.127-.196-.325.05-.44l2.564-1.222c.244-.116.62-.109.838.019l2.286 1.328zm3.992 2.32c.22.127.197.324-.047.44l-2.565 1.221c-.245.116-.62.108-.838-.02L72.4 94.777c-.218-.127-.198-.325.048-.442l2.563-1.22c.245-.116.62-.108.84.02l2.287 1.328zm12.13 7.05c.217.129.196.327-.048.442l-2.543 1.313c-.244.117-.64.015-.86-.11l-6.278-3.648c-.216-.128-.195-.325.05-.443l2.563-1.22c.245-.116.62-.107.839.02l6.276 3.647zm-20.36-7.352c.218.128.198.326-.047.442l-2.566 1.22c-.243.118-.621.11-.84-.018l-2.287-1.33c-.218-.126-.195-.323.05-.44l2.564-1.222c.244-.116.62-.106.838.02l2.289 1.328zm16.285 9.462c.22.127.198.324-.048.442l-2.562 1.219c-.245.118-.623.11-.84-.017l-6.278-3.647c-.218-.128-.196-.327.05-.443l2.563-1.22c.246-.117.622-.107.838.02l6.277 3.646zm-12.294-7.142c.22.126.197.323-.048.44l-2.564 1.222c-.245.116-.62.107-.84-.019l-2.287-1.328c-.22-.128-.198-.325.047-.443l2.564-1.22c.245-.117.621-.108.84.019l2.288 1.329z"/><path fill="#9ABEDF" d="M83.665 96.765l2.564-1.22c.122-.059.188-.137.197-.217l.037-.321-.368-.009-2.105-1.224c-.22-.126-.595-.135-.84-.02l-2.362 1.125-.363-.008-.037.321v.003c-.007.08.041.16.15.223l2.287 1.328c.218.129.596.135.84.019m-5.813 2.759l.037-.32-.37-.009-2.103-1.222c-.22-.127-.596-.135-.84-.02l-2.359 1.123-.366-.008-.037.322c-.01.08.038.163.15.227l2.286 1.328c.22.126.596.136.84.019l2.565-1.222c.124-.059.19-.138.197-.218m-1.798-2.15c-.008.08.041.16.15.224l2.288 1.328c.218.127.593.135.838.02l2.565-1.222c.122-.058.189-.137.197-.217l.037-.322-.37-.008-2.103-1.222c-.22-.128-.596-.136-.841-.02l-2.357 1.122-.367-.008-.037.322v.002z"/><path fill="#C8DAE9" d="M86.315 94.78c.217.127.195.325-.05.44l-2.563 1.22c-.244.117-.621.11-.84-.018l-2.287-1.328c-.22-.128-.197-.325.047-.442l2.564-1.221c.246-.116.62-.107.84.02l2.289 1.33zm-4.336 2.18c.22.127.197.324-.047.44l-2.565 1.222c-.245.115-.62.107-.838-.02l-2.288-1.328c-.218-.128-.198-.326.048-.443l2.563-1.22c.245-.116.62-.108.841.02l2.286 1.329zm-4.24 2.018c.22.126.198.324-.047.44l-2.564 1.222c-.245.117-.62.107-.84-.019L72 99.293c-.22-.128-.198-.325.047-.443l2.564-1.22c.245-.116.621-.108.84.019l2.288 1.329z"/><path fill="#E5ECF3" d="M104.63 80.505L54.847 51.84a.287.287 0 0 1-.144-.249V15.035c0-.22.24-.359.43-.249l49.784 28.666a.287.287 0 0 1 .144.25v36.554c0 .221-.24.36-.431.25"/><path fill="#B3CEE2" d="M105.061 46.415L54.703 17.418v-.135l50.358 28.997z"/><path fill="#9ABEDF" d="M57.155 17.384c-.016.184-.172.247-.349.14-.177-.106-.308-.34-.292-.524.016-.183.173-.246.35-.14.177.106.307.34.291.524m1.032.584c-.016.184-.172.247-.35.14-.176-.106-.307-.34-.291-.524.016-.183.172-.246.349-.14.177.106.308.341.292.524m1.031.603c-.015.183-.172.246-.349.14-.177-.106-.307-.34-.292-.524.016-.183.173-.246.35-.14.177.106.307.34.291.524"/><path fill="#67A4D1" d="M76 55.222l-4.006-11.736c-.424-1.246-.925-1.146-.925-1.146l-.863.086 5.132 14.367.661-1.571z"/><path fill="#276796" d="M89.11 40.588c.207.003.505.194.822 1.01 0 0 .267.685.288 1.54 0 0-.006 1.37-.425 1.898L76.725 60.87s-.152.169-.386.169l-.9.133 12.826-20.54.844-.044z"/><path fill="#4087C6" d="M75.365 55.988l12.596-15.224s.522-.633 1.11.879c0 0 .267.685.29 1.539 0 0 .075 1.327-.344 1.854L75.825 61.004s-.153.168-.387.168c0 0-.414-.01-.67-.734l-4.981-14.591s-.3-.936-.234-1.958c0 0 .081-1.387.653-1.463 0 0 .5-.104.893 1.06l4.266 12.502z"/></g></svg>