<svg viewBox="0 0 63 30" xmlns="http://www.w3.org/2000/svg"><g fill="#FFF" fill-rule="evenodd"><path d="M33.541 22c-2.48 0-4.51-.802-6.406-2.496L27 19.415l1.308-1.515.136.133c1.669 1.516 3.203 2.095 5.188 2.095 1.94 0 3.248-.98 3.248-2.407v-.089c0-1.248-.632-2.05-3.88-2.718-3.203-.669-5.323-1.739-5.323-4.546v-.045C27.677 7.827 29.887 6 32.91 6c2.21 0 3.834.58 5.549 1.916l.135.09-1.218 1.604-.135-.09c-1.354-1.113-2.752-1.604-4.331-1.604-1.85 0-3.113.936-3.113 2.273v.045c0 1.292.632 2.095 4.06 2.808 3.61.757 5.143 2.14 5.143 4.501v.045C39 20.173 36.744 22 33.541 22M49.255 22C44.538 22 41 18.597 41 14.044V14c0-4.464 3.68-8 8.35-8 3.207 0 5 1.193 6.414 2.43l.142.134-1.51 1.502-.141-.132C52.65 8.519 51.189 7.9 49.302 7.9c-3.444 0-6.085 2.607-6.085 6.055V14c0 3.403 2.689 6.1 6.085 6.1 2.264 0 3.68-.84 5.094-2.122l.142-.133L56 19.171l-.142.133C54.396 20.63 52.51 22 49.255 22"/><g fill-rule="nonzero"><path d="M58 19.604l1.553-1.23c.68-.528.923-.836.923-1.231 0-.44-.389-.747-.874-.747s-.825.22-1.165.659l-.34-.22c.388-.527.777-.835 1.553-.835.777 0 1.36.484 1.36 1.099 0 .571-.34.923-1.068 1.538l-1.165.923h2.281v.396h-3.01v-.352H58zM62.515 16.484l-.826.22-.097-.352 1.068-.308H63V20h-.485z"/></g><path d="M24.736 4.401S20.676 0 12.509 0C4.343 0 .282 4.356.282 4.356s-.49 3.279-.178 9.836C.55 24.072 12.509 30 12.509 30s11.96-5.928 12.405-15.808c.268-6.557-.178-9.79-.178-9.79zm-6.515 15.45c-1.473-.135-2.99-.54-3.704-.944 1.785-1.167 4.106-3.413 4.106-6.108 0-3.368-2.722-6.152-6.114-6.152-3.391 0-6.113 2.829-6.113 6.332 0 2.92 1.517 5.21 4.551 6.781 1.964 1.033 4.909 1.797 8.033 2.201-.536.764-1.92 2.11-2.722 2.56-3.704-.629-7.006-1.931-9.237-3.862-2.41-2.066-3.66-4.806-3.66-7.86 0-5.074 4.106-9.206 9.148-9.206 5.043 0 9.148 4.132 9.148 9.206 0 2.83-1.294 5.39-3.436 7.051z" fill-rule="nonzero"/></g></svg>