<svg viewBox="0 0 110 54" xmlns="http://www.w3.org/2000/svg"><g fill="none" fill-rule="evenodd"><path d="M32.58 35.206c-2.573-.233-5.223-.935-6.47-1.636 3.118-2.027 7.17-5.846 7.17-10.6 0-5.846-4.754-10.678-10.677-10.678-5.924 0-10.678 4.91-10.678 10.99 0 5.066 2.65 9.04 7.95 11.769 3.43 1.792 8.574 3.117 14.03 3.819-.936 1.325-3.352 3.663-4.755 4.442-6.547-1.09-12.237-3.351-16.134-6.703-4.209-3.585-6.391-8.34-6.391-13.64-.234-8.807 6.703-16.133 15.51-16.445 8.808-.312 16.212 6.625 16.446 15.432v1.014c0 4.832-2.182 9.353-6.002 12.236M44.037 8.395S36.867.756 22.68.756C8.496.756 1.247 8.395 1.247 8.395S.39 14.006.935 25.385c.78 17.148 21.668 27.436 21.668 27.436S43.49 42.533 44.27 25.386c.545-11.38-.234-16.991-.234-16.991M59.235 38.035c-4.286 0-7.794-1.403-11.067-4.364l-.234-.156 2.26-2.65.234.234c2.884 2.65 5.534 3.663 8.963 3.663 3.352 0 5.612-1.715 5.612-4.21v-.155c0-2.182-1.091-3.585-6.703-4.754-5.534-1.17-9.197-3.04-9.197-7.95v-.078c0-4.365 3.82-7.56 9.041-7.56 3.82 0 6.625 1.013 9.587 3.35l.234.157-2.105 2.806-.234-.156c-2.338-1.949-4.754-2.806-7.482-2.806-3.195 0-5.378 1.637-5.378 3.975v.078c0 2.26 1.091 3.663 7.015 4.91 6.235 1.325 8.885 3.741 8.885 7.872v.078c0 4.52-3.897 7.716-9.43 7.716M85.19 38.113c-7.794 0-13.64-6.001-13.64-14.03v-.077c0-7.872 6.08-14.107 13.796-14.107 5.3 0 8.261 2.104 10.6 4.286l.233.234-2.494 2.65-.234-.234c-2.65-2.494-5.066-3.585-8.183-3.585-5.69 0-10.055 4.599-10.055 10.678v.078c0 6.001 4.443 10.756 10.055 10.756 3.74 0 6.08-1.481 8.417-3.741l.234-.234 2.416 2.338-.234.234c-2.416 2.338-5.533 4.754-10.911 4.754" fill="#ED2E26"/><path d="M98.362 28.916h10.054v7.56H98.362z"/><g fill="#ED2E26" fill-rule="nonzero"><path d="M98.83 35.541l2.494-2.182c1.09-.935 1.48-1.481 1.48-2.183 0-.779-.623-1.325-1.403-1.325-.779 0-1.325.39-1.87 1.17l-.546-.39c.624-.935 1.247-1.481 2.494-1.481s2.183.857 2.183 1.949c0 1.013-.546 1.636-1.715 2.727l-1.87 1.637h3.663v.702h-4.833v-.624h-.078zM106.078 30.007l-1.325.39-.156-.623 1.715-.546h.545v7.015h-.78z"/></g></g></svg>