<svg xmlns="http://www.w3.org/2000/svg" viewBox="0 0 658 370"><rect width="100%" height="100%" fill="#DDD"/><path d="M168.27 152.83l-19.09 23.36-2.23 2.76q1.87-.94 4.03-1.45t4.65-.51q3.65 0 7.1 1.2 3.44 1.2 6.07 3.63 2.63 2.42 4.23 6.03 1.6 3.6 1.6 8.41 0 4.49-1.65 8.43-1.64 3.94-4.62 6.88-2.99 2.93-7.19 4.62-4.21 1.7-9.28 1.7-5.16 0-9.26-1.65-4.09-1.65-6.98-4.61-2.89-2.96-4.43-7.12-1.54-4.16-1.54-9.23 0-4.54 1.85-9.32 1.85-4.79 5.72-9.95l15.35-20.6q.8-1.07 2.34-1.83 1.53-.75 3.54-.75h9.79zm-16.6 56.07q2.62 0 4.83-.89 2.2-.89 3.78-2.5 1.58-1.6 2.47-3.76.89-2.15.89-4.69 0-2.76-.85-4.96-.84-2.21-2.4-3.74-1.56-1.54-3.74-2.34-2.18-.8-4.8-.8-2.63 0-4.77.89-2.13.89-3.64 2.47-1.52 1.58-2.36 3.74-.85 2.16-.85 4.65 0 2.67.74 4.87.73 2.21 2.18 3.76 1.44 1.56 3.58 2.43 2.13.87 4.94.87zm46.23-46.11l-2.27 13.4q2.14-.45 4.1-.65 1.96-.2 3.78-.2 5.07 0 8.94 1.52 3.88 1.51 6.5 4.18 2.63 2.67 3.96 6.25 1.34 3.58 1.34 7.72 0 5.12-1.81 9.35-1.8 4.22-5 7.23-3.21 3-7.59 4.65-4.38 1.65-9.54 1.65-3.03 0-5.74-.63-2.72-.62-5.1-1.67-2.38-1.04-4.41-2.4-2.02-1.36-3.62-2.87l3.38-4.67q1.07-1.52 2.8-1.52 1.12 0 2.27.72 1.16.71 2.65 1.55 1.49.85 3.52 1.56 2.02.71 4.87.71 3.03 0 5.34-.98 2.31-.97 3.85-2.73 1.53-1.76 2.31-4.18.78-2.43.78-5.28 0-5.25-3.05-8.21-3.05-2.96-9.01-2.96-4.58 0-9.39 1.69l-6.85-1.95 5.34-31.24h31.77v4.67q0 2.36-1.47 3.83-1.46 1.46-4.98 1.46H197.9zM255 209.3q2.71 0 4.76-.78t3.45-2.16q1.4-1.38 2.11-3.29.71-1.92.71-4.14 0-5.3-2.93-8.01-2.94-2.72-8.1-2.72-5.17 0-8.1 2.72-2.94 2.71-2.94 8.01 0 2.22.71 4.14.71 1.91 2.12 3.29 1.4 1.38 3.45 2.16 2.04.78 4.76.78zm0-48.91q-2.45 0-4.23.76-1.78.75-2.96 2.02t-1.74 2.92q-.55 1.64-.55 3.47 0 1.91.47 3.71.46 1.81 1.58 3.21 1.11 1.4 2.93 2.25 1.83.84 4.5.84t4.49-.84q1.83-.85 2.94-2.25 1.11-1.4 1.58-3.21.47-1.8.47-3.71 0-1.83-.58-3.47-.58-1.65-1.74-2.92-1.16-1.27-2.94-2.02-1.78-.76-4.22-.76zm10.85 23.23q5.88 1.91 8.68 5.85 2.81 3.94 2.81 9.64 0 4.27-1.63 7.74-1.62 3.47-4.56 5.92-2.94 2.45-7.05 3.78-4.12 1.34-9.1 1.34-4.99 0-9.1-1.34-4.12-1.33-7.06-3.78-2.93-2.45-4.56-5.92-1.62-3.47-1.62-7.74 0-5.7 2.8-9.64 2.8-3.94 8.68-5.85-4.67-1.96-7.01-5.56-2.34-3.61-2.34-8.68 0-3.65 1.49-6.81 1.5-3.16 4.17-5.49 2.67-2.34 6.38-3.65 3.72-1.32 8.17-1.32 4.45 0 8.16 1.32 3.72 1.31 6.39 3.65 2.67 2.33 4.16 5.49 1.49 3.16 1.49 6.81 0 5.07-2.34 8.68-2.33 3.6-7.01 5.56zm83.4 18.82l-5.83 5.74-15.09-15.08-15.22 15.17-5.83-5.74 15.22-15.26-14.5-14.51 5.78-5.78 14.51 14.5 14.42-14.41 5.87 5.78-14.46 14.46 15.13 15.13zm37.02-30.66l-5.78-1.02q.66-4.63 2.58-8.12 1.91-3.49 4.78-5.83t6.59-3.52q3.71-1.18 7.99-1.18 4.45 0 8.03 1.27 3.58 1.27 6.12 3.52 2.53 2.25 3.89 5.27 1.36 3.03 1.36 6.54 0 3.07-.69 5.41-.69 2.34-1.98 4.07-1.29 1.74-3.21 2.94-1.91 1.2-4.31 2 5.78 1.83 8.63 5.56 2.85 3.74 2.85 9.39 0 4.81-1.78 8.5-1.78 3.7-4.81 6.21-3.02 2.51-7.01 3.8-3.98 1.3-8.43 1.3-4.85 0-8.45-1.12-3.61-1.11-6.28-3.29-2.67-2.18-4.54-5.34-1.87-3.16-3.2-7.3l4.85-2q1.91-.8 3.58-.42 1.67.37 2.43 1.8.8 1.56 1.75 3.07.96 1.51 2.3 2.69 1.33 1.18 3.13 1.92 1.8.73 4.3.73 2.8 0 4.89-.91 2.09-.92 3.49-2.38 1.41-1.47 2.1-3.27.69-1.81.69-3.63 0-2.31-.49-4.21-.49-1.89-2.05-3.22-1.56-1.34-4.47-2.09-2.92-.76-7.81-.76v-7.83q4.05-.05 6.72-.76t4.25-1.98q1.58-1.27 2.2-3.05.62-1.78.62-3.91 0-4.54-2.53-6.9-2.54-2.36-6.77-2.36-1.96 0-3.6.56-1.65.55-2.96 1.55-1.31 1.01-2.2 2.34-.89 1.34-1.34 2.94-.76 2.04-1.98 2.71-1.22.67-3.45.31zm45.17-18.95h44.45v4.76q0 2.13-.44 3.45-.45 1.31-.89 2.2l-24.39 50.2q-.75 1.55-2.13 2.64t-3.7 1.09h-7.96L461.25 168q.85-1.51 1.67-2.78.83-1.27 1.85-2.43h-30.79q-1.03 0-1.78-.75-.76-.76-.76-1.78v-7.43zM528.32 185q0 8.41-1.81 14.62-1.8 6.21-4.98 10.26-3.18 4.04-7.52 6.03-4.34 1.98-9.37 1.98-5.03 0-9.32-1.98-4.3-1.99-7.45-6.03-3.16-4.05-4.94-10.26-1.78-6.21-1.78-14.62 0-8.46 1.78-14.64 1.78-6.19 4.94-10.24 3.15-4.05 7.45-6.03 4.29-1.98 9.32-1.98t9.37 1.98q4.34 1.98 7.52 6.03 3.18 4.05 4.98 10.24 1.81 6.18 1.81 14.64zm-11.35 0q0-6.99-1.03-11.57-1.02-4.58-2.73-7.3-1.72-2.71-3.94-3.8-2.23-1.09-4.63-1.09-2.36 0-4.56 1.09-2.2 1.09-3.89 3.8-1.69 2.72-2.7 7.3-1 4.58-1 11.57t1 11.57q1.01 4.58 2.7 7.3 1.69 2.71 3.89 3.8 2.2 1.09 4.56 1.09 2.4 0 4.63-1.09 2.22-1.09 3.94-3.8 1.71-2.72 2.73-7.3 1.03-4.58 1.03-11.57z" fill="#999"/></svg>