<svg width="30" height="27" viewBox="0 0 30 27" xmlns="http://www.w3.org/2000/svg"><g fill="none" fill-rule="evenodd"><path d="M16.52 8.334H6.03a.983.983 0 01-.981-.981c0-.54.441-.98.98-.98h10.49c.54 0 .981.44.981.98s-.441.98-.98.98zm4.905 12.205v5.05h.054H1.07V.881h20.41v5.8l-.054 13.857zM22.55 5.245V.981c0-.54-.441-.981-.98-.981H.98C.44 0 0 .441 0 .98v24.51c0 .54.441.98.98.98H21.57c.539 0 .98-.44.98-.98V5.245z" fill="#B5D0E5"/><path d="M12.892 20.91a.48.48 0 00.147.341.479.479 0 00.34.147l3.534.073a.48.48 0 00.34-.146L29.315 9.263a.479.479 0 00.147-.34.481.481 0 00-.147-.341l-3.46-3.436a.472.472 0 00-.682 0l-12.06 12.036a.481.481 0 00-.147.341l-.073 3.387z" fill="#6BA3CF"/></g></svg>