<svg width="28" height="29" viewBox="0 0 28 29" xmlns="http://www.w3.org/2000/svg" xmlns:xlink="http://www.w3.org/1999/xlink"><defs><path id="a" d="M0 .013h25.137V27.46H0z"/></defs><g fill="none" fill-rule="evenodd"><path d="M8.32 2.697l.936 4.493s.702 2.434-.702 3.183c0 0-2.013.89-.89 2.598 0 0 3.184 5.172 5.758 6.857 0 0 1.31 1.357 2.574-.328 0 0 1.265-1.264 2.668-.702l4.821 1.779s1.358.234 1.077 2.527c0 0-.14 4.587-5.617 4.587 0 0-7.114.28-13.34-8.003 0 0-8.378-9.97-3.604-16.383 0 0 1.405-2.2 4.447-1.966 0 0 1.65.289 1.872 1.358" fill="#FFF"/><g transform="translate(0 .77)"><mask id="b" fill="#fff"><use xlink:href="#a"/></mask><path d="M5.97 1.084c-2.375 0-3.504 1.722-3.515 1.74-4.49 6.034 3.481 15.65 3.562 15.747 5.982 7.96 12.846 7.815 12.908 7.812 4.918 0 5.094-3.9 5.099-4.065.214-1.763-.61-1.975-.644-1.984a.98.98 0 01-.08-.022l-4.822-1.779c-.99-.395-1.924.413-2.079.556-.489.638-1.055.98-1.683 1.02-.83.04-1.451-.46-1.633-.63-2.636-1.758-5.745-6.782-5.877-6.995-.5-.76-.464-1.405-.345-1.81.3-1.018 1.355-1.511 1.476-1.564.955-.511.407-2.521.402-2.54l-.946-4.534c-.12-.575-1.104-.876-1.439-.937a5.238 5.238 0 00-.385-.015m12.85 26.377c-1.022 0-7.706-.317-13.645-8.22-.068-.082-2.14-2.564-3.652-5.888-2.045-4.499-2.03-8.351.047-11.14.042-.069 1.585-2.438 4.92-2.18.257.042 2.069.397 2.358 1.783l.936 4.494c.024.077.793 2.824-.975 3.768-.233.106-.782.442-.915.903-.079.275-.007.577.222.924.04.065 3.159 5.102 5.602 6.702a.55.55 0 01.092.077c.001 0 .394.371.846.35.308-.022.614-.233.91-.627a.647.647 0 01.05-.058c.062-.061 1.536-1.504 3.25-.821l4.768 1.759c.652.146 1.728.958 1.463 3.112.003.002-.22 5.06-6.15 5.06-.018 0-.06.002-.127.002" fill="#B5D0E7" mask="url(#b)"/></g><path d="M26.911 11.427a.809.809 0 01-.796-.677 11.878 11.878 0 00-2.535-5.61 11.887 11.887 0 00-5.012-3.575.807.807 0 11.567-1.513 13.5 13.5 0 015.693 4.063 13.499 13.499 0 012.881 6.373.808.808 0 01-.798.939M23.153 12.05a.809.809 0 01-.796-.678 8.067 8.067 0 00-1.723-3.812 8.083 8.083 0 00-3.406-2.43.807.807 0 11.567-1.512 9.69 9.69 0 014.088 2.917 9.683 9.683 0 012.068 4.576.807.807 0 01-.798.938M19.25 12.696a.809.809 0 01-.796-.677 4.076 4.076 0 00-.866-1.956 4.072 4.072 0 00-1.75-1.229.808.808 0 01.565-1.513 5.66 5.66 0 012.434 1.717 5.674 5.674 0 011.212 2.72.808.808 0 01-.798.938" fill="#6BA3CF"/></g></svg>