<svg xmlns="http://www.w3.org/2000/svg" xmlns:xlink="http://www.w3.org/1999/xlink" width="27" height="27" viewBox="0 0 27 27"><defs><path id="a" d="M0 .052h27v16.099H0z"/></defs><g fill="none" fill-rule="evenodd"><g transform="translate(0 .383)"><mask id="b" fill="#fff"><use xlink:href="#a"/></mask><path fill="#B5D0E7" d="M3.617 15.28h19.767a3.942 3.942 0 002.745-3.736c0-2.161-1.758-3.92-3.919-3.92a3.76 3.76 0 00-.51.039.437.437 0 01-.482-.33 3.27 3.27 0 00-4.687-2.15.437.437 0 01-.609-.238C15.048 2.539 12.759.923 10.225.923a6.098 6.098 0 00-6.091 6.091.99.99 0 01.015.137.436.436 0 01-.327.434 3.905 3.905 0 00-2.951 3.78l.005.078-.004.08a3.946 3.946 0 002.745 3.757m19.832.871H3.552a.426.426 0 01-.124-.018A4.817 4.817 0 010 11.543l.003-.079L0 11.365a4.773 4.773 0 013.265-4.523c.092-3.76 3.179-6.79 6.96-6.79 2.744 0 5.237 1.655 6.342 4.163a4.1 4.1 0 011.462-.267 4.138 4.138 0 013.93 2.813A4.795 4.795 0 0127 11.543c-.001 2.104-1.41 3.991-3.428 4.59a.425.425 0 01-.124.018" mask="url(#b)"/></g><path fill="#6BA3CF" d="M17.147 18.397v2.694c-1.334 1.492-5.456 1.346-5.815 3.374-.042.246.072 1.612.072 1.612h15.08s.114-1.366.07-1.612c-.355-2.013-4.426-1.884-5.785-3.342v-2.726h-3.622z"/><path fill="#FEFEFE" d="M11.807 25.641H26.08c.036-.501.06-.991.045-1.106-.158-.893-1.433-1.291-2.782-1.713-1.1-.344-2.237-.7-2.893-1.402a.437.437 0 01-.117-.297v-2.29h-2.75v2.258c0 .107-.04.21-.111.29-.652.729-1.81 1.09-2.929 1.44-1.35.423-2.623.821-2.782 1.72-.014.109.01.598.046 1.1zm14.676.871H11.404a.436.436 0 01-.434-.4c-.036-.426-.113-1.449-.068-1.72.252-1.423 1.843-1.92 3.381-2.402.937-.292 1.903-.594 2.428-1.077v-2.516c0-.24.195-.435.436-.435h3.622c.24 0 .435.195.435.435v2.542c.53.468 1.479.765 2.398 1.052 1.54.48 3.131.978 3.382 2.398.047.273-.031 1.297-.067 1.724a.436.436 0 01-.434.4z"/><path fill="#6BA3CF" d="M21.955 16.896l.075-.867c.179-2.056-1.193-3.905-3.085-3.911-1.89-.006-3.275 1.832-3.11 3.89l.07.868c.172 2.139 1.553 3.672 3.013 3.676 1.46.005 2.851-1.518 3.037-3.656"/><path fill="#FEFEFE" d="M18.936 12.553c-.682 0-1.327.292-1.818.823-.618.667-.927 1.614-.849 2.598l.07.868c.147 1.832 1.28 3.27 2.58 3.275h.006c1.298 0 2.437-1.43 2.596-3.258l.075-.867c.086-.984-.217-1.933-.831-2.605-.49-.535-1.136-.831-1.821-.834h-.008zm-.011 8.435h-.009c-1.749-.006-3.262-1.797-3.445-4.077l-.07-.867c-.098-1.226.294-2.414 1.077-3.26.658-.711 1.53-1.102 2.458-1.102h.01c.932.003 1.806.4 2.462 1.117.777.852 1.162 2.042 1.056 3.268l-.076.867c-.197 2.275-1.718 4.054-3.463 4.054z"/></g></svg>