<svg height="30" viewBox="0 0 30 30" width="30" xmlns="http://www.w3.org/2000/svg"><mask id="a" fill="#fff"><path d="M0 .194h29.774v13.4H0z" fill-rule="evenodd"/></mask><mask id="b" fill="#fff"><path d="M0 .429h29.774v13.4H0z" fill-rule="evenodd"/></mask><mask id="c" fill="#fff"><path d="M0 .402h29.774v13.4H0z" fill-rule="evenodd"/></mask><mask id="d" fill="#fff"><path d="M.29.418h13.257v15.784H.29z" fill-rule="evenodd"/></mask><g fill="none" fill-rule="evenodd"><path d="M14.245 1.131h-.024c-1.089 0-2.03.341-2.039.344C5.176 3.636 1.32 6.674 1.282 6.704a.275.275 0 01-.023.017c-.146.102-.319.257-.321.412-.003.19.22.42.33.5 4.278 2.626 11.059 4.468 11.127 4.486 1.753.567 2.721.535 2.732.537 1.389 0 2.488-.297 2.498-.3 4.432-1.077 10.277-4.767 10.336-4.804.889-.513.877-.923.876-.927-.006-.032-.005-.033-.005-.066-.04-.146-.519-.516-.986-.748-4.262-2.555-11.558-4.397-11.63-4.416-1.19-.25-1.84-.264-1.971-.264zm.835 12.463c-.266 0-1.299-.04-2.951-.577-.26-.068-6.959-1.888-11.384-4.606C.64 8.337-.005 7.847 0 7.128c.003-.305.128-.753.708-1.166C.992 5.74 4.838 2.76 11.882.587a7.56 7.56 0 012.322-.393c.014 0 .742-.024 2.222.288.32.08 7.52 1.898 11.87 4.507.413.203 1.441.79 1.473 1.534.026.245 0 1.069-1.323 1.83-.227.145-6.019 3.8-10.586 4.91-.036.01-1.212.33-2.712.33h-.068z" fill="#b5d0e7" mask="url(#a)" transform="translate(0 16.037)"/><path d="M.99 18.391s3.866-3.093 11.03-5.302c0 0 1.017-.373 2.184-.373 0 0 .683-.026 2.125.278 0 0 7.385 1.847 11.725 4.45 0 0 1.247.616 1.247 1.168 0 0 .145.679-1.09 1.39 0 0-5.917 3.755-10.462 4.86 0 0-1.147.316-2.601.316 0 0-1.022.048-2.875-.553 0 0-6.864-1.846-11.283-4.561 0 0-1.173-.85 0-1.673" fill="#fff"/><path d="M14.245 1.367h-.024c-1.089 0-2.03.34-2.039.344C5.176 3.872 1.32 6.91 1.282 6.94a.44.44 0 01-.023.017c-.146.103-.32.257-.321.413-.002.196.239.433.327.497 4.279 2.626 11.062 4.469 11.13 4.487 1.753.568 2.724.538 2.733.537 1.388 0 2.486-.296 2.497-.3 4.432-1.077 10.277-4.766 10.336-4.804.889-.512.877-.922.876-.927-.006-.032-.005-.033-.005-.066-.039-.144-.528-.521-.985-.747C23.584 3.49 16.289 1.649 16.215 1.63c-1.189-.25-1.839-.264-1.97-.264zm.836 12.462c-.264 0-1.298-.04-2.952-.576-.26-.07-6.959-1.888-11.384-4.607C.64 8.572-.005 8.082 0 7.363c.003-.305.128-.753.708-1.165C.992 5.974 4.84 2.995 11.882.822A7.56 7.56 0 0114.204.43c.013 0 .74-.025 2.222.288.32.08 7.52 1.897 11.87 4.506.413.203 1.441.79 1.473 1.535.026.244 0 1.068-1.323 1.83-.227.144-6.019 3.8-10.586 4.91-.036.01-1.212.33-2.712.33h-.067z" fill="#b5d0e7" mask="url(#b)" transform="translate(0 11.818)"/><path d="M.99 14.614s3.866-3.093 11.03-5.302c0 0 1.017-.373 2.184-.373 0 0 .683-.026 2.125.278 0 0 7.385 1.846 11.725 4.45 0 0 1.247.616 1.247 1.168 0 0 .145.678-1.09 1.39 0 0-5.917 3.754-10.462 4.86 0 0-1.147.315-2.601.315 0 0-1.022.049-2.875-.552 0 0-6.864-1.847-11.283-4.561 0 0-1.173-.85 0-1.673" fill="#fff"/><path d="M14.245 1.34h-.024c-1.089 0-2.03.34-2.039.344-7.006 2.16-10.862 5.198-10.9 5.228a.275.275 0 01-.023.017c-.146.103-.32.258-.321.414-.002.196.239.433.327.496 4.279 2.627 11.062 4.47 11.13 4.488 1.753.568 2.721.537 2.732.537 1.389 0 2.488-.296 2.498-.3 4.432-1.077 10.277-4.766 10.336-4.804.888-.512.877-.922.876-.927-.006-.032-.005-.033-.005-.066-.04-.146-.519-.516-.986-.747-4.264-2.557-11.557-4.398-11.63-4.417-1.19-.25-1.84-.263-1.971-.263zm.835 12.462c-.265 0-1.299-.04-2.951-.576-.26-.07-6.959-1.889-11.384-4.608C.64 8.545-.005 8.055 0 7.336c.003-.305.128-.753.708-1.165.284-.224 4.13-3.203 11.174-5.376a7.56 7.56 0 012.322-.392c.014 0 .742-.024 2.222.287.32.08 7.52 1.897 11.87 4.507.413.203 1.441.79 1.473 1.535.026.244 0 1.067-1.323 1.83-.227.144-6.019 3.8-10.586 4.91-.036.01-1.212.329-2.712.329h-.068z" fill="#b5d0e7" mask="url(#c)" transform="translate(0 8.068)"/><path d="M6.918.417c4.316 0 6.487 2.31 6.487 2.31s.248 1.71.09 5.152c-.24 5.2-6.576 8.323-6.576 8.323S.582 13.08.343 7.88c-.158-3.442.09-5.152.09-5.152S2.6.417 6.918.417" fill="#6ba3cf" mask="url(#d)" transform="translate(7.969 .099)"/><path d="M11.613 7.574c0-1.839 1.454-3.335 3.24-3.335a3.246 3.246 0 013.243 3.243c0 1.428-1.227 2.602-2.173 3.206.367.209 1.176.429 1.952.5a4.68 4.68 0 001.822-3.706c0-2.671-2.173-4.844-4.844-4.844s-4.844 2.173-4.844 4.844c0 1.613.672 3.047 1.942 4.145 1.189 1.026 2.926 1.712 4.905 2.036.429-.237 1.162-.936 1.437-1.346-1.653-.212-3.217-.615-4.265-1.165-1.603-.84-2.415-2.045-2.415-3.578" fill="#fff"/></g></svg>