<svg xmlns="http://www.w3.org/2000/svg" xmlns:xlink="http://www.w3.org/1999/xlink" width="32" height="26" viewBox="0 0 32 26"><defs><path id="a" d="M0 .236h31.895v19.006H0z"/><path id="c" d="M.246.163h14.14V17H.246z"/></defs><g fill="none" fill-rule="evenodd"><g transform="translate(0 -.236)"><mask id="b" fill="#fff"><use xlink:href="#a"/></mask><path fill="#B4CFE4" d="M4.259 18.242h23.377a4.675 4.675 0 003.259-4.434 4.654 4.654 0 00-4.648-4.649c-.183 0-.376.015-.607.046a.505.505 0 01-.553-.379 3.881 3.881 0 00-5.563-2.551.499.499 0 01-.698-.274c-1.036-2.85-3.75-4.765-6.751-4.765a7.156 7.156 0 00-2.899.606c-.53.273-2.098 1.191-2.651 1.994-1.137 1.653-1.667 3.12-1.667 4.617.01.066.016.114.018.164a.5.5 0 01-.377.496A4.633 4.633 0 001 13.597l.006.092-.004.092a4.681 4.681 0 003.258 4.46zm23.452 1H4.184a.506.506 0 01-.142-.02A5.682 5.682 0 010 13.807l.003-.09-.003-.12a5.63 5.63 0 013.86-5.339c.043-1.64.63-3.23 1.84-4.989C6.51 2.093 8.657.985 8.748.94a8.185 8.185 0 013.328-.703c3.243 0 6.19 1.958 7.49 4.926a4.829 4.829 0 011.737-.32 4.877 4.877 0 014.635 3.327 5.655 5.655 0 015.957 5.639 5.681 5.681 0 01-4.041 5.413.5.5 0 01-.142.02z" mask="url(#b)"/></g><g transform="translate(8 8.764)"><mask id="d" fill="#fff"><use xlink:href="#c"/></mask><path fill="#6BA3CF" d="M7.314.163c4.605 0 6.92 2.463 6.92 2.463s.265 1.824.096 5.496C14.075 13.668 7.316 17 7.316 17S.556 13.668.302 8.122C.133 4.45.397 2.626.397 2.626S2.71.163 7.314.163" mask="url(#d)"/></g><path fill="#FFF" d="M11.823 16.455c0-1.961 1.55-3.557 3.456-3.557a3.462 3.462 0 013.46 3.46c0 1.522-1.31 2.774-2.319 3.418.392.223 1.255.458 2.082.534a4.992 4.992 0 001.944-3.953 5.173 5.173 0 00-5.167-5.167 5.173 5.173 0 00-5.167 5.167c0 1.72.717 3.25 2.072 4.42 1.268 1.096 3.121 1.827 5.232 2.173.457-.252 1.239-.998 1.533-1.436-1.763-.226-3.432-.656-4.55-1.243-1.71-.896-2.576-2.18-2.576-3.816"/></g></svg>