<svg xmlns="http://www.w3.org/2000/svg" width="30" height="32" viewBox="0 0 30 32"><g fill="none" fill-rule="evenodd"><path fill="#B5D0E7" d="M1.612 13.19h5.567v-.978H1.612zM1.612 15.341h5.567v-.978H1.612zM1.612 17.492h5.567v-.978H1.612zM22.113 13.19h5.568v-.978h-5.568zM22.113 15.341h5.568v-.978h-5.568zM22.113 17.492h5.568v-.978h-5.568z"/><path fill="#B5D0E7" d="M1.017 25.39h6.757V8.81H1.017v16.58zm7.266 1.016H.508A.508.508 0 010 25.898V8.303c0-.281.227-.509.508-.509h7.775c.28 0 .508.228.508.509v17.595a.508.508 0 01-.508.508zm13.235-1.017h6.757V8.811h-6.757v16.578zm7.266 1.017H21.01a.508.508 0 01-.509-.508V8.303c0-.281.228-.509.509-.509h7.774c.28 0 .508.228.508.509v17.595a.508.508 0 01-.508.508z"/><path fill="#B5D0E7" d="M8.811 25.39h11.69V1.524H8.811V25.39zm12.199 1.016H8.303a.508.508 0 01-.509-.508V1.018c0-.282.228-.51.509-.51H21.01c.28 0 .508.228.508.51v24.88a.508.508 0 01-.508.508z"/><path fill="#B5D0E7" d="M12.32 6.16h4.672V3.45h-4.671V6.16zm5.18 1.018h-5.688a.508.508 0 01-.508-.509V2.94c0-.28.228-.508.508-.508h5.689c.28 0 .508.227.508.508v3.73a.508.508 0 01-.508.508zm-5.557 5.015h1.48v-1.48h-1.48v1.48zm1.988 1.017h-2.496a.508.508 0 01-.509-.509v-2.496c0-.282.228-.509.509-.509h2.496c.281 0 .509.227.509.509V12.7a.508.508 0 01-.509.509zm1.96-1.017h1.479v-1.48h-1.48v1.48zm1.987 1.017h-2.496a.508.508 0 01-.509-.509v-2.496c0-.282.228-.509.509-.509h2.496c.282 0 .509.227.509.509V12.7a.508.508 0 01-.509.509zm-5.935 3.24h1.48v-1.48h-1.48v1.48zm1.988 1.018h-2.496a.508.508 0 01-.509-.509v-2.497c0-.28.228-.508.509-.508h2.496c.281 0 .509.227.509.508v2.497a.508.508 0 01-.509.509zm1.96-1.017h1.479v-1.48h-1.48v1.48zm1.987 1.017h-2.496a.508.508 0 01-.509-.509v-2.497c0-.28.228-.508.509-.508h2.496c.282 0 .509.227.509.508v2.497a.508.508 0 01-.509.509zm-5.935 3.24h1.48v-1.48h-1.48v1.48zm1.988 1.018h-2.496a.508.508 0 01-.509-.509V18.72c0-.28.228-.508.509-.508h2.496c.281 0 .509.227.509.508v2.497a.508.508 0 01-.509.509zm1.96-1.017h1.479v-1.48h-1.48v1.48zm1.987 1.017h-2.496a.508.508 0 01-.509-.509V18.72c0-.28.228-.508.509-.508h2.496c.282 0 .509.227.509.508v2.497a.508.508 0 01-.509.509z"/><path fill="#6BA3CF" d="M24.016 17.161c3.88 0 5.832 2.076 5.832 2.076s.223 1.537.08 4.631c-.215 4.675-5.91 7.482-5.91 7.483-.001 0-5.697-2.808-5.912-7.483-.142-3.094.08-4.63.08-4.63s1.95-2.077 5.83-2.077"/><path fill="#FFF" d="M21.074 23.505c0-1.653 1.306-2.998 2.912-2.998a2.919 2.919 0 012.916 2.916c0 1.283-1.103 2.339-1.954 2.882.33.187 1.058.385 1.755.449a4.207 4.207 0 001.638-3.331 4.36 4.36 0 00-4.355-4.355 4.36 4.36 0 00-4.354 4.355c0 1.45.604 2.739 1.746 3.726 1.068.922 2.63 1.538 4.409 1.83.385-.212 1.044-.841 1.292-1.21-1.486-.19-2.892-.552-3.834-1.048-1.44-.755-2.171-1.837-2.171-3.216"/></g></svg>