<svg xmlns="http://www.w3.org/2000/svg" xmlns:xlink="http://www.w3.org/1999/xlink" width="27" height="30" viewBox="0 0 27 30"><defs><path id="a" d="M0 .417h26.981v29.425H0z"/></defs><g fill="none" fill-rule="evenodd"><path fill="#FEFEFE" d="M3.881 10.923h2.774V8.148H3.881z"/><g transform="translate(0 .057)"><mask id="b" fill="#fff"><use xlink:href="#a"/></mask><path fill="#B5D0E7" d="M4.355 10.392h1.827V8.565H4.355v1.827zm2.3.948H3.881a.474.474 0 01-.474-.474V8.09c0-.261.212-.473.474-.473h2.774c.262 0 .474.212.474.473v2.775a.474.474 0 01-.474.474z" mask="url(#b)"/><path fill="#FEFEFE" mask="url(#b)" d="M3.881 17.006h2.774v-2.774H3.881z"/><path fill="#B5D0E7" d="M4.355 16.533h1.827v-1.827H4.355v1.827zm2.3.947H3.881a.474.474 0 01-.474-.474v-2.774c0-.262.212-.474.474-.474h2.774c.262 0 .474.212.474.474v2.774a.474.474 0 01-.474.474z" mask="url(#b)"/><path fill="#FEFEFE" mask="url(#b)" d="M3.881 23.147h2.774v-2.775H3.881z"/><path fill="#B5D0E7" d="M4.355 22.673h1.827v-1.827H4.355v1.827zm2.3.947H3.881a.474.474 0 01-.474-.473v-2.775c0-.261.212-.473.474-.473h2.774c.262 0 .474.212.474.473v2.775a.474.474 0 01-.474.473z" mask="url(#b)"/><path fill="#B5D0E7" d="M.947 26.47h17.09V4.774H.947v21.694zm17.564.947H.474A.474.474 0 010 26.943V4.301c0-.261.212-.474.474-.474H18.51c.261 0 .473.213.473.474v22.642a.474.474 0 01-.473.474z" mask="url(#b)"/><path fill="#B5D0E7" d="M15.44 9.952h-5.372a.474.474 0 110-.947h5.373a.474.474 0 010 .947m0 6.14h-5.373a.474.474 0 110-.947h5.373a.474.474 0 010 .948m0 6.14h-5.373a.474.474 0 110-.947h5.373a.474.474 0 010 .947" mask="url(#b)"/><path fill="#FEFEFE" d="M12.859 2.766l-1.48-1.48a1.347 1.347 0 00-.953-.396h-2.25c-.358 0-.7.142-.953.395l-1.48 1.48A2.222 2.222 0 003.52 4.988v.465h11.56v-.465a2.222 2.222 0 00-2.222-2.221" mask="url(#b)"/><path fill="#B5D0E7" d="M3.994 4.978h10.613a1.75 1.75 0 00-1.748-1.739.472.472 0 01-.335-.138l-1.48-1.481a.869.869 0 00-.618-.256h-2.25a.866.866 0 00-.618.255l-1.48 1.482a.473.473 0 01-.336.138c-.96 0-1.743.78-1.748 1.74m11.086.947H3.52a.474.474 0 01-.473-.474v-.465c0-1.417 1.1-2.583 2.492-2.687L6.889.95c.342-.343.8-.533 1.286-.533h2.25c.487 0 .944.19 1.288.533l1.35 1.35a2.699 2.699 0 012.491 2.687v.465a.474.474 0 01-.474.474" mask="url(#b)"/><path fill="#6BA3CF" d="M16.265 21.016v2.93c-1.45 1.623-5.935 1.463-6.325 3.67-.046.267.078 1.753.078 1.753H26.42s.125-1.486.078-1.754c-.387-2.19-4.815-2.049-6.294-3.635v-2.964h-3.94z" mask="url(#b)"/><path fill="#FEFEFE" d="M10.456 28.895h15.526c.039-.545.065-1.078.049-1.203-.172-.971-1.559-1.405-3.027-1.863-1.196-.374-2.433-.761-3.146-1.526a.475.475 0 01-.127-.323v-2.49h-2.993v2.455a.474.474 0 01-.12.316c-.709.793-1.968 1.186-3.186 1.567-1.467.459-2.853.892-3.026 1.87-.015.119.011.651.05 1.197zm15.964.947H10.018a.474.474 0 01-.472-.434c-.039-.465-.124-1.577-.074-1.872.274-1.548 2.005-2.09 3.678-2.612 1.019-.318 2.07-.647 2.64-1.172v-2.736c0-.262.213-.474.475-.474h3.94c.26 0 .473.212.473.474v2.765c.577.508 1.609.83 2.609 1.143 1.674.523 3.405 1.064 3.678 2.609.051.297-.034 1.41-.073 1.875a.474.474 0 01-.472.434z" mask="url(#b)"/><path fill="#6BA3CF" d="M21.494 19.382l.082-.943c.195-2.236-1.298-4.247-3.355-4.254-2.056-.006-3.563 1.993-3.383 4.232l.076.944c.187 2.326 1.69 3.993 3.277 3.998 1.588.006 3.101-1.651 3.303-3.977" mask="url(#b)"/><path fill="#FEFEFE" d="M18.21 14.659c-.74 0-1.443.317-1.977.894-.672.726-1.009 1.756-.923 2.826l.076.944c.16 1.993 1.393 3.558 2.806 3.563h.007c1.411 0 2.65-1.555 2.823-3.545l.082-.942c.093-1.07-.237-2.103-.905-2.833-.531-.583-1.235-.905-1.98-.907h-.008zm-.01 9.174h-.01c-1.903-.006-3.55-1.954-3.748-4.434l-.076-.943c-.107-1.334.32-2.627 1.172-3.547.718-.775 1.66-1.192 2.684-1.197 1.014.003 1.964.434 2.677 1.214.846.926 1.265 2.221 1.149 3.554l-.082.944c-.215 2.475-1.869 4.41-3.767 4.41z" mask="url(#b)"/></g></g></svg>