<svg xmlns="http://www.w3.org/2000/svg" xmlns:xlink="http://www.w3.org/1999/xlink" width="30" height="34" viewBox="0 0 30 34"><defs><path id="a" d="M0 .052h29.556v32.534H0z"/></defs><g fill="none" fill-rule="evenodd" transform="translate(0 .466)"><mask id="b" fill="#fff"><use xlink:href="#a"/></mask><path fill="#B5D0E7" d="M5.154 12.113h2.32v-2.32h-2.32v2.32zm2.837 1.034H4.637a.517.517 0 01-.518-.517V9.276c0-.286.232-.518.518-.518H7.99c.286 0 .517.232.517.518v3.354a.517.517 0 01-.517.517z" mask="url(#b)"/><path fill="#FEFEFE" mask="url(#b)" d="M4.637 20.054h3.354V16.7H4.637z"/><path fill="#B5D0E7" d="M5.154 19.537h2.32v-2.32h-2.32v2.32zM7.99 20.57H4.637a.517.517 0 01-.518-.517V16.7c0-.286.232-.518.518-.518H7.99c.286 0 .517.232.517.518v3.354a.517.517 0 01-.517.517z" mask="url(#b)"/><path fill="#FEFEFE" mask="url(#b)" d="M4.637 27.478h3.354v-3.354H4.637z"/><path fill="#B5D0E7" d="M5.154 26.961h2.32v-2.32h-2.32v2.32zm2.837 1.035H4.637a.517.517 0 01-.518-.518v-3.354c0-.286.232-.517.518-.517H7.99c.286 0 .517.231.517.517v3.354a.517.517 0 01-.517.518z" mask="url(#b)"/><path fill="#B5D0E7" d="M1.034 31.552h20.774V5.21H1.034v26.342zm21.291 1.034H.517A.517.517 0 010 32.07V4.692c0-.285.231-.517.517-.517h21.808c.286 0 .517.232.517.517V32.07a.517.517 0 01-.517.517z" mask="url(#b)"/><path fill="#B5D0E7" d="M15.739 10.51h-5.535a.517.517 0 110-1.034h5.535a.517.517 0 110 1.034m4.024 2.103h-9.559a.517.517 0 110-1.034h9.56a.517.517 0 110 1.034m-6.312 4.827h-3.248a.517.517 0 110-1.034h3.248a.517.517 0 110 1.034m3.248 2.026h-6.496a.517.517 0 110-1.035H16.7a.517.517 0 110 1.035m0 6.853h-6.496a.517.517 0 110-1.035H16.7a.517.517 0 110 1.035" mask="url(#b)"/><path fill="#FEFEFE" d="M15.491 2.836l-1.79-1.79A1.627 1.627 0 0012.55.57H9.829c-.432 0-.846.17-1.152.477l-1.79 1.79A2.686 2.686 0 004.2 5.522v.562h13.977v-.562a2.686 2.686 0 00-2.687-2.686" mask="url(#b)"/><path fill="#B5D0E7" d="M4.718 5.567H17.66v-.045a2.17 2.17 0 00-2.169-2.168.518.518 0 01-.365-.152l-1.79-1.79a1.104 1.104 0 00-.786-.326H9.829c-.297 0-.576.116-.786.325l-1.79 1.791a.517.517 0 01-.366.152 2.171 2.171 0 00-2.169 2.168v.045zM18.178 6.6H4.2a.517.517 0 01-.517-.517v-.562a3.208 3.208 0 012.981-3.196L8.312.681A2.13 2.13 0 019.829.05h2.72c.575 0 1.113.224 1.518.63l1.646 1.645a3.208 3.208 0 012.982 3.196v.562a.517.517 0 01-.518.517z" mask="url(#b)"/><path fill="#6BA3CF" d="M23.494 17.703c3.948 0 5.932 2.112 5.932 2.112s.227 1.563.082 4.71c-.219 4.756-6.012 7.612-6.013 7.613 0 0-5.794-2.857-6.013-7.612-.145-3.148.082-4.71.082-4.71s1.983-2.113 5.93-2.113" mask="url(#b)"/><path fill="#FFF" d="M20.5 24.157c0-1.682 1.33-3.05 2.964-3.05a2.969 2.969 0 012.965 2.966c0 1.305-1.122 2.38-1.987 2.931.336.191 1.075.393 1.785.457a4.279 4.279 0 001.667-3.388 4.435 4.435 0 00-4.43-4.43 4.435 4.435 0 00-4.43 4.43c0 1.475.614 2.786 1.776 3.79 1.087.939 2.676 1.565 4.486 1.862.391-.216 1.061-.856 1.313-1.23-1.511-.195-2.941-.563-3.9-1.067-1.465-.768-2.208-1.869-2.208-3.271" mask="url(#b)"/></g></svg>