<svg xmlns="http://www.w3.org/2000/svg" xmlns:xlink="http://www.w3.org/1999/xlink" width="30" height="27" viewBox="0 0 30 27"><defs><path id="a" d="M0 .392h19.891v26.327H0z"/><path id="c" d="M.098.114h12.098v19.103H.098z"/></defs><g fill="none" fill-rule="evenodd"><g transform="translate(0 -.205)"><mask id="b" fill="#fff"><use xlink:href="#a"/></mask><path fill="#B5D0E7" d="M2.24 24.743c4.965 1.378 10.445 1.378 15.412 0a8.97 8.97 0 001.301-4.648c0-3.485-1.957-6.592-5.108-8.111a.47.47 0 01-.11-.77 5.68 5.68 0 001.884-4.212A5.68 5.68 0 009.946 1.33a5.68 5.68 0 00-5.673 5.672c0 1.599.686 3.134 1.883 4.211a.469.469 0 01-.11.77C2.895 13.504.937 16.61.937 20.096c0 1.637.45 3.24 1.302 4.648zm7.705 1.976c-2.78 0-5.517-.378-8.137-1.123a.469.469 0 01-.268-.2A9.91 9.91 0 010 20.094a9.861 9.861 0 015.059-8.653 6.614 6.614 0 01-1.724-4.44 6.618 6.618 0 016.61-6.61 6.618 6.618 0 016.611 6.61 6.614 6.614 0 01-1.723 4.44 9.862 9.862 0 015.058 8.653 9.913 9.913 0 01-1.54 5.3.469.469 0 01-.269.2 29.726 29.726 0 01-8.137 1.124z" mask="url(#b)"/></g><g transform="translate(17.344 3.077)"><mask id="d" fill="#fff"><use xlink:href="#c"/></mask><path fill="#6BA3CF" d="M8.154 8.166a4.603 4.603 0 001.533-3.431 4.62 4.62 0 10-9.241 0c0 1.363.593 2.585 1.533 3.43A7.165 7.165 0 00.098 9.503a9.423 9.423 0 013.135 7.022c0 .893-.132 1.754-.365 2.573.722.071 1.452.12 2.198.12 2.113 0 4.14-.295 6.027-.831a7.093 7.093 0 001.104-3.8 7.124 7.124 0 00-4.043-6.42" mask="url(#d)"/></g></g></svg>