<svg xmlns="http://www.w3.org/2000/svg" xmlns:xlink="http://www.w3.org/1999/xlink" width="27" height="29" viewBox="0 0 27 29"><defs><path id="a" d="M0 .438h23.408v24.406H0z"/></defs><g fill="none" fill-rule="evenodd"><g transform="translate(0 .036)"><mask id="b" fill="#fff"><use xlink:href="#a"/></mask><path fill="#B5D0E7" d="M3.644 1.385A2.7 2.7 0 00.948 4.082V21.2a2.7 2.7 0 002.696 2.696h16.12a2.7 2.7 0 002.697-2.696V4.08a2.7 2.7 0 00-2.696-2.696H3.645zm16.12 23.46H3.645A3.648 3.648 0 010 21.2V4.08A3.648 3.648 0 013.644.439h16.12a3.648 3.648 0 013.644 3.644V21.2a3.648 3.648 0 01-3.643 3.643z" mask="url(#b)"/></g><path fill="#B5D0E7" d="M4.507 12.069a.475.475 0 01-.281-.856l3.722-2.738L4.41 5.914a.474.474 0 01.556-.768l4.064 2.942a.474.474 0 01.003.765l-4.244 3.124a.473.473 0 01-.28.092m12.578 1.352H9.728a.474.474 0 010-.947h7.358a.474.474 0 010 .947"/><path fill="#6BA3CF" d="M16.27 20.104v2.93c-1.45 1.623-5.935 1.464-6.326 3.67-.045.268.079 1.753.079 1.753h16.402s.124-1.485.078-1.753c-.387-2.19-4.815-2.049-6.294-3.635v-2.965h-3.94z"/><path fill="#FEFEFE" d="M10.462 27.983h15.525c.038-.545.065-1.078.048-1.202-.171-.972-1.558-1.405-3.026-1.864-1.196-.374-2.433-.76-3.146-1.525a.475.475 0 01-.128-.323v-2.491h-2.992v2.456a.472.472 0 01-.12.315c-.709.793-1.968 1.187-3.186 1.568-1.467.459-2.853.892-3.026 1.87-.015.118.011.65.05 1.196zm15.963.948H10.023a.474.474 0 01-.472-.435c-.04-.464-.123-1.577-.074-1.871.274-1.548 2.004-2.09 3.678-2.613 1.018-.318 2.07-.647 2.64-1.172v-2.736c0-.261.213-.474.474-.474h3.94c.262 0 .474.213.474.474v2.765c.577.509 1.608.831 2.609 1.144 1.673.523 3.405 1.064 3.678 2.609.051.297-.034 1.41-.073 1.875a.474.474 0 01-.472.434z"/><path fill="#6BA3CF" d="M21.499 18.471l.082-.943c.195-2.237-1.298-4.247-3.355-4.254-2.056-.007-3.563 1.993-3.383 4.232l.076.943c.187 2.327 1.69 3.994 3.277 4 1.588.004 3.101-1.653 3.303-3.978"/><path fill="#FEFEFE" d="M18.216 13.748c-.742 0-1.444.317-1.978.894-.672.726-1.009 1.756-.923 2.826l.076.944c.16 1.993 1.393 3.558 2.806 3.563h.007c1.411 0 2.65-1.555 2.823-3.545l.082-.943c.093-1.07-.237-2.102-.904-2.833-.532-.582-1.236-.904-1.98-.906h-.01zm-.012 9.174h-.01c-1.902-.006-3.548-1.954-3.747-4.435l-.076-.943c-.107-1.334.32-2.626 1.172-3.546.715-.773 1.664-1.198 2.673-1.198h.011c1.013.004 1.964.435 2.677 1.215.846.926 1.265 2.221 1.149 3.554l-.082.944c-.215 2.474-1.869 4.41-3.767 4.41z"/></g></svg>