<svg width="30" height="25" viewBox="0 0 30 25" xmlns="http://www.w3.org/2000/svg" xmlns:xlink="http://www.w3.org/1999/xlink"><defs><path id="a" d="M0 .224h20.808v19H0z"/></defs><g fill="none" fill-rule="evenodd"><path fill="#6BA3CF" d="M22.39 10.407h6.912v10.295h-2.19v3.41l-3.879-3.41H9.546v-4.27h12.845z"/><path d="M10.072 20.176h13.161c.128 0 .251.047.347.13l3.006 2.643v-2.247c0-.291.235-.526.526-.526h1.664v-9.242h-5.86v5.497c0 .291-.235.527-.526.527H10.072v3.218zm17.04 4.462a.522.522 0 01-.347-.13l-3.73-3.28H9.546a.526.526 0 01-.526-.526v-4.27c0-.292.235-.527.526-.527h12.318v-5.498c0-.29.236-.526.526-.526h6.912c.291 0 .526.236.526.526v10.295a.526.526 0 01-.526.526h-1.664v2.884a.526.526 0 01-.526.526z" fill="#6BA3CF"/><path fill="#FFF" d="M.526 4.053h19.756v10.294H6.595l-3.878 3.41v-3.41H.527z"/><g transform="translate(0 -.94)"><mask id="b" fill="#fff"><use xlink:href="#a"/></mask><path d="M1.053 14.76h1.664c.29 0 .526.236.526.527v2.247l3.005-2.642a.528.528 0 01.347-.131h13.16V2.253H1.054V14.76zM2.5 19.179a.528.528 0 01-.31-.48v-2.885H.527A.526.526 0 010 15.287V1.727C0 1.435.235 1.2.526 1.2h19.756c.291 0 .526.236.526.526v13.561a.526.526 0 01-.526.526H6.794l-3.73 3.28a.521.521 0 01-.564.085z" fill="#B5D0E7" mask="url(#b)"/></g><path d="M14.311 6a1.178 1.178 0 100 2.357 1.178 1.178 0 000-2.357zM10.405 6a1.178 1.178 0 10-.002 2.356A1.178 1.178 0 0010.405 6zM6.497 6a1.178 1.178 0 100 2.356 1.178 1.178 0 000-2.356z" fill="#B5D0E7"/></g></svg>