<svg xmlns="http://www.w3.org/2000/svg" width="28" height="26" viewBox="0 0 28 26"><g fill="none" fill-rule="evenodd"><path fill="#B5D0E7" fill-rule="nonzero" d="M11.63 1.723c0-.238.233-.43.52-.43.286 0 .518.192.518.43v17.23c0 .239-.232.432-.519.432-.286 0-.518-.193-.518-.431V1.724z"/><path fill="#B5D0E7" fill-rule="nonzero" d="M2.8 18.805a.43.43 0 11-.862 0v-2.507c0-1.881 1.583-3.4 3.527-3.4h3.5c1.476 0 2.666-1.14 2.666-2.538a.43.43 0 01.861 0c0 1.882-1.583 3.4-3.526 3.4h-3.5c-1.477 0-2.666 1.14-2.666 2.538v2.507z"/><path fill="#FEFEFE" d="M4.492 18.806a1.994 1.994 0 11-3.989 0 1.994 1.994 0 013.989 0"/><path fill="#B5D0E7" fill-rule="nonzero" d="M3.877 18.739a1.507 1.507 0 10-3.014-.002 1.507 1.507 0 003.014.002zm.861 0a2.368 2.368 0 11-4.736 0 2.368 2.368 0 014.736 0zm17.05.066a.43.43 0 01-.861 0v-2.507a2.538 2.538 0 00-2.54-2.538H15.03a3.4 3.4 0 01-3.4-3.4.43.43 0 01.862 0 2.538 2.538 0 002.538 2.538h3.358a3.4 3.4 0 013.4 3.4v2.507z"/><path fill="#FEFEFE" d="M10.23 18.806a1.994 1.994 0 103.989 0 1.994 1.994 0 00-3.99 0"/><path fill="#B5D0E7" fill-rule="nonzero" d="M9.692 18.739a2.369 2.369 0 114.738-.002 2.369 2.369 0 01-4.738.002zm.862 0a1.507 1.507 0 103.014 0 1.507 1.507 0 00-3.014 0z"/><path fill="#FEFEFE" d="M10.861 1.375c-1.59 2.078.765 4.433 2.841 2.839 1.568-2.075-.77-4.407-2.84-2.839"/><path fill="#B5D0E7" fill-rule="nonzero" d="M10.304 1.113a.43.43 0 01.082-.081C12.856-.838 15.7 2 13.83 4.473l-.005-.003a.403.403 0 01-.091.097c-2.473 1.878-5.324-.981-3.431-3.454zm2.758 3.03c-.005.024-.005.04-.005.07a.43.43 0 01.011-.098l-.006.028z"/><path fill="#6BA3CF" d="M17.887 17.38v2.664c-1.32 1.476-5.397 1.332-5.752 3.338-.042.243.071 1.594.071 1.594h14.916s.113-1.351.071-1.594c-.352-1.992-4.379-1.864-5.724-3.306V17.38h-3.582z"/><path fill="#FEFEFE" fill-rule="nonzero" d="M17.456 17.38a.43.43 0 01.43-.431h3.583a.43.43 0 01.431.43v2.517c.402.365 1.014.614 2.355 1.033l.027.008c2.299.719 3.125 1.178 3.335 2.371.026.146.02.427-.007.877a29.806 29.806 0 01-.059.827.43.43 0 01-.43.395H12.207a.43.43 0 01-.43-.395 29.245 29.245 0 01-.058-.827c-.026-.45-.033-.73-.008-.879.211-1.19 1.037-1.65 3.333-2.369l.031-.01c1.364-.426 1.984-.68 2.382-1.057v-2.49zm.861 2.664a.43.43 0 01-.11.287c-.542.607-1.211.898-2.876 1.42l-.03.009c-1.95.61-2.615.98-2.742 1.694a6.63 6.63 0 00.02.68 29.36 29.36 0 00.026.411h14.118a36.666 36.666 0 00.027-.41c.02-.356.027-.631.019-.678-.127-.717-.793-1.088-2.744-1.697l-.027-.009c-1.638-.512-2.298-.796-2.844-1.381a.43.43 0 01-.115-.294V17.81h-2.722v2.234z"/><path fill="#6BA3CF" d="M22.642 15.895l.075-.858c.177-2.034-1.18-3.863-3.051-3.869-1.87-.006-3.24 1.813-3.076 3.849l.068.858c.17 2.115 1.537 3.632 2.98 3.636 1.444.005 2.82-1.502 3.004-3.616"/><path fill="#FEFEFE" fill-rule="nonzero" d="M19.637 19.942c-1.738-.006-3.226-1.77-3.408-4.033l-.012-.156-.028-.344-.029-.358c-.185-2.305 1.396-4.32 3.507-4.313 2.112.006 3.68 2.032 3.479 4.336l-.031.358v.004l-.03.341c-.01.124-.01.124-.014.155-.196 2.261-1.696 4.016-3.434 4.01zm2.576-4.085l.014-.154.03-.341v-.005l.03-.357c.16-1.832-1.05-3.396-2.623-3.4-1.571-.006-2.792 1.55-2.645 3.382l.029.355.027.347.013.156c.149 1.855 1.314 3.237 2.552 3.24 1.238.005 2.412-1.37 2.573-3.223z"/></g></svg>