<svg width="25" height="28" viewBox="0 0 25 28" xmlns="http://www.w3.org/2000/svg"><g fill="none" fill-rule="evenodd"><path d="M11.544 9.298a4.745 4.745 0 001.58-3.536 4.762 4.762 0 00-9.524 0c0 1.405.613 2.664 1.58 3.536a7.342 7.342 0 00-4.166 6.616c0 1.442.42 2.782 1.138 3.916 1.944.553 4.033.857 6.21.857 2.177 0 4.266-.304 6.21-.857a7.304 7.304 0 001.139-3.916 7.342 7.342 0 00-4.167-6.616" stroke="#9BC0E0" fill="#FEFEFE"/><path d="M20.422 9.209a3.57 3.57 0 001.189-2.66 3.583 3.583 0 10-7.166 0 3.57 3.57 0 001.189 2.66 5.55 5.55 0 00-1.459 1.035 7.308 7.308 0 012.43 5.446c0 .693-.101 1.36-.282 1.995.56.055 1.126.093 1.705.093 1.638 0 3.21-.228 4.672-.645.54-.853.857-1.862.857-2.946a5.524 5.524 0 00-3.135-4.978" stroke="#9BC0E0" fill="#FEFEFE"/><path d="M23.035 15.137l.746 4.908-1.976 4.772-3.409 1.159-1.636-1.159-3.697-3.75-1.21-5.93s2.113-1.84 2.317-1.977c.205-.136 7.294-.613 7.294-.613l1.571 2.59z" fill="#FFF"/><path d="M21.16 22.269c-.799-.073-1.632-.3-2.01-.515.974-.621 2.237-1.83 2.237-3.3a3.342 3.342 0 00-3.338-3.337c-1.839 0-3.335 1.54-3.335 3.432 0 1.579.836 2.818 2.486 3.683 1.079.566 2.689.981 4.39 1.2-.283.421-1.038 1.141-1.479 1.385-2.037-.334-3.826-1.04-5.049-2.096-1.308-1.13-2-2.606-2-4.266a4.992 4.992 0 014.987-4.987 4.992 4.992 0 014.986 4.987c0 1.518-.71 2.912-1.876 3.814m3.566-8.378s-2.234-2.378-6.677-2.378-6.675 2.378-6.675 2.378-.256 1.76-.093 5.302c.247 5.353 6.768 8.568 6.769 8.568 0 0 6.522-3.215 6.769-8.568.163-3.543-.093-5.302-.093-5.302" fill="#6BA3CF"/></g></svg>