<svg xmlns="http://www.w3.org/2000/svg" xmlns:xlink="http://www.w3.org/1999/xlink" width="30" height="30" viewBox="0 0 30 30"><defs><path id="a" d="M.033.045h11.341v13.503H.033z"/></defs><g fill="none" fill-rule="evenodd"><path fill="#B5CFE5" d="M4.589 5.457v1.985c0 1.354.423 2.647 1.224 3.74l.696.949a18.927 18.927 0 004.2 4.165l2.969 2.143a1.405 1.405 0 01-.069 2.32l-.14.086A3.4 3.4 0 0012 24.537a2.468 2.468 0 001.711 1.777 4.6 4.6 0 012.72 2.158 13.707 13.707 0 006.728-2.742l.621-3.354a1.564 1.564 0 00-.718-1.622l-2.798-1.737a2.533 2.533 0 00-2.266-.2l-.41.167a2.04 2.04 0 01-2.136-.398l-.333-.306a4.813 4.813 0 01-1.49-2.897l-.193-1.512a.44.44 0 00-.228-.33l-.9-.497a.442.442 0 00-.468.026l-.74.516a1.07 1.07 0 01-.924.15 1.067 1.067 0 01-.69-.627l-.186-.452a3.373 3.373 0 01.2-2.974 3.419 3.419 0 012.63-1.702l1.039-.096a4.479 4.479 0 012.682.594l.99.581c.39.227.752.52 1.069.87l.792.89a.257.257 0 00.448-.174.21.21 0 00-.015-.09l-.392-.951a2.545 2.545 0 00-.315-.564 4.114 4.114 0 01-.806-2.456c0-.373.048-.737.141-1.082.192-.699.787-1.075 1.217-1.298A6.789 6.789 0 0021.09 2.5 13.808 13.808 0 004.59 5.456zm11.565 24.015a.484.484 0 01-.437-.277 3.617 3.617 0 00-2.275-1.951 3.444 3.444 0 01-2.381-2.472 4.37 4.37 0 011.898-4.75l.138-.083a.43.43 0 00.192-.353.427.427 0 00-.177-.362l-2.969-2.143a19.895 19.895 0 01-4.414-4.378l-.697-.95a7.243 7.243 0 01-1.41-4.311V5.27c0-.118.043-.233.122-.322a14.77 14.77 0 0118.312-3.027.487.487 0 01.232.313.486.486 0 01-.075.384 7.736 7.736 0 01-2.788 2.447c-.433.224-.658.437-.728.694-.071.26-.107.539-.107.826 0 .683.213 1.333.616 1.88.174.236.32.497.433.773l.39.944c.06.143.089.296.089.464 0 .51-.308.96-.784 1.144a1.23 1.23 0 01-1.354-.326l-.79-.886a3.51 3.51 0 00-.838-.682l-.992-.584a3.489 3.489 0 00-2.1-.464l-1.039.097a2.448 2.448 0 00-1.882 1.22 2.413 2.413 0 00-.143 2.126l.185.454c.017.04.047.056.07.062a.108.108 0 00.094-.015l.74-.515a1.4 1.4 0 011.49-.08l.9.497c.391.214.661.608.72 1.051l.194 1.514a3.837 3.837 0 001.189 2.311l.331.306c.3.278.737.36 1.117.21l.411-.167a3.506 3.506 0 013.137.276l2.797 1.736a2.524 2.524 0 011.16 2.62l-.653 3.536a.485.485 0 01-.176.292 14.67 14.67 0 01-7.748 3.093z"/><path fill="#B5CFE5" d="M14.77.968C7.16.968.967 7.16.967 14.77c0 7.611 6.191 13.803 13.801 13.803 7.611 0 13.802-6.192 13.802-13.803 0-7.61-6.19-13.802-13.802-13.802m0 28.572C6.625 29.54 0 22.914 0 14.77 0 6.626 6.625 0 14.77 0c8.143 0 14.77 6.626 14.77 14.77 0 8.144-6.627 14.77-14.77 14.77"/><g transform="translate(16.935 16.067)"><mask id="b" fill="#fff"><use xlink:href="#a"/></mask><path fill="#6BA3CF" d="M5.703.045c3.692 0 5.55 1.976 5.55 1.976s.211 1.462.076 4.407c-.205 4.449-5.625 7.12-5.626 7.12 0 0-5.42-2.671-5.625-7.12C-.057 3.483.155 2.02.155 2.02S2.01.045 5.703.045" mask="url(#b)"/></g><path fill="#FFF" d="M19.838 22.15c0-1.574 1.243-2.854 2.772-2.854a2.777 2.777 0 012.774 2.775c0 1.22-1.05 2.225-1.859 2.742.314.179 1.006.367 1.67.428a4.004 4.004 0 001.559-3.17 4.149 4.149 0 00-4.144-4.144 4.15 4.15 0 00-4.145 4.144c0 1.38.576 2.606 1.663 3.545 1.016.879 2.502 1.465 4.195 1.743.367-.203.994-.802 1.23-1.152-1.415-.181-2.753-.526-3.65-.997-1.37-.72-2.065-1.749-2.065-3.06"/></g></svg>