<svg viewBox="0 0 63 65.7" xmlns="http://www.w3.org/2000/svg"><path d="m14.7 23.6c0-5.7 4.6-10.3 10.3-10.3s10.3 4.6 10.3 10.3" fill="#fff"/><path d="m35.3 24.6c-.6 0-1-.4-1-1 0-5.1-4.2-9.3-9.3-9.3s-9.3 4.2-9.3 9.3c0 .6-.4 1-1 1s-1-.4-1-1c0-6.2 5.1-11.3 11.3-11.3s11.3 5.1 11.3 11.3c0 .6-.4 1-1 1z" fill="#b5d0e7"/><path d="m25.1 13.3v-11.4s1.5-1 4.3.2c0 0 2.5 1.5 5.9-.4v6.6c-3.4 1.9-5.9.4-5.9.4-2.8-1.2-4.3-.2-4.3-.2" fill="#fff"/><path d="m25.1 14.3c-.6 0-1-.4-1-1v-11.4c0-.3.2-.6.4-.8.2-.1 2-1.3 5.2.1 0 0 .1 0 .1.1.1 0 2.1 1.2 4.9-.4.3-.2.7-.2 1 0s.5.5.5.9v6.6c0 .4-.2.7-.5.9-3.6 2-6.3.7-6.8.4-1.4-.6-2.3-.5-2.9-.4v4.1c.1.5-.3.9-.9.9zm1.7-7.2c.8 0 1.8.2 3 .7 0 0 .1 0 .1.1.1 0 1.8 1 4.4-.2v-4.5c-2.8 1-4.9 0-5.3-.2-1.4-.6-2.3-.5-2.9-.4v4.6c.2-.1.4-.1.7-.1z" fill="#b5d0e7"/><path d="m4.7 28.1h5.8v17h-5.8zm11.7 0h5.8v17h-5.8zm11.6 0h5.8v17h-5.8zm11.6 0h5.8v17h-5.8zm-38.2 17h47.3l-1.4 4.4h-45.9z" fill="#fff"/><path d="m47.3 50.5h-45.9c-.6 0-1-.4-1-1v-4.4c0-.6.4-1 1-1h47.3c.3 0 .6.2.8.4.2.3.2.6.1.9l-1.4 4.4c-.1.4-.5.7-.9.7zm-44.9-2h44.2l.8-2.4h-45z" fill="#b5d0e7"/><path d="m1.4 23.6h47.3v4.4h-47.3z" fill="#fff"/><path d="m48.7 29h-47.3c-.6 0-1-.4-1-1v-4.4c0-.6.4-1 1-1h47.3c.6 0 1 .4 1 1v4.4c0 .6-.4 1-1 1zm-46.3-2h45.3v-2.4h-45.3z" fill="#b5d0e7"/><path d="m4.7 46.1c-.6 0-1-.4-1-1v-17c0-.6.4-1 1-1s1 .4 1 1v17c0 .6-.4 1-1 1zm5.8 0c-.6 0-1-.4-1-1v-17c0-.6.4-1 1-1s1 .4 1 1v17c0 .6-.4 1-1 1zm5.9 0c-.6 0-1-.4-1-1v-17c0-.6.4-1 1-1s1 .4 1 1v17c0 .6-.4 1-1 1zm5.8 0c-.6 0-1-.4-1-1v-17c0-.6.4-1 1-1s1 .4 1 1v17c0 .6-.4 1-1 1zm5.8 0c-.6 0-1-.4-1-1v-17c0-.6.4-1 1-1s1 .4 1 1v17c0 .6-.4 1-1 1zm5.8 0c-.6 0-1-.4-1-1v-17c0-.6.4-1 1-1s1 .4 1 1v17c0 .6-.4 1-1 1zm5.8 0c-.6 0-1-.4-1-1v-17c0-.6.4-1 1-1s1 .4 1 1v17c0 .6-.4 1-1 1zm5.8 0c-.6 0-1-.4-1-1v-17c0-.6.4-1 1-1s1 .4 1 1v17c0 .6-.4 1-1 1z" fill="#b5d0e7"/><path d="m40 46v6.2c-3.1 3.4-12.5 3.1-13.4 7.7-.1.6.2 3.7.2 3.7h34.6s.3-3.1.2-3.7c-.8-4.6-10.2-4.3-13.3-7.7v-6.2z" fill="#6ca3cf"/><path d="m61.4 65.2h-34.6c-.5 0-1-.4-1-.9-.1-1-.3-3.3-.2-4 .6-3.3 4.2-4.4 7.8-5.5 2.1-.7 4.4-1.4 5.6-2.5v-5.8c0-.6.4-1 1-1h8.3c.6 0 1 .4 1 1v5.8c1.2 1.1 3.4 1.8 5.5 2.4 3.5 1.1 7.2 2.2 7.8 5.5.1.6-.1 3-.2 4-.1.6-.5 1-1 1zm-33.7-2h32.8c.1-1.2.1-2.3.1-2.5-.4-2-3.3-3-6.4-3.9-2.5-.8-5.1-1.6-6.6-3.2-.2-.2-.3-.4-.3-.7v-5.3h-6.3v5.2c0 .2-.1.5-.3.7-1.5 1.7-4.2 2.5-6.7 3.3-3.1 1-6 1.9-6.4 3.9-.1.2 0 1.3.1 2.5z" fill="#fefefe"/><path d="m51 43.1s.1-1.3.2-2c.4-4.7-2.7-9-7.1-9-4.3 0-7.5 4.2-7.1 8.9.1.6.2 2 .2 2 .4 4.9 3.6 8.4 6.9 8.4 3.3.1 6.5-3.4 6.9-8.3" fill="#6ca3cf"/><path d="m44 52.5c-4 0-7.5-4.1-7.9-9.4l-.2-2c-.2-2.8.7-5.5 2.5-7.5 1.5-1.6 3.5-2.5 5.6-2.5s4.1.9 5.7 2.6c1.8 2 2.7 4.7 2.4 7.5l-.2 2c-.4 5.2-3.9 9.3-7.9 9.3zm0-19.4c-1.6 0-3 .7-4.2 1.9-1.4 1.5-2.1 3.7-1.9 6l.2 2c.3 4.2 2.9 7.5 5.9 7.5s5.6-3.3 6-7.5l.2-2c.2-2.3-.5-4.4-1.9-6-1.2-1.2-2.7-1.9-4.3-1.9.1 0 .1 0 0 0z" fill="#fefefe"/></svg>