<svg xmlns="http://www.w3.org/2000/svg" xmlns:xlink="http://www.w3.org/1999/xlink" width="27" height="30" viewBox="0 0 27 30"><defs><path id="a" d="M.157.189h17.222v10.156H.157z"/></defs><g fill="none" fill-rule="evenodd"><path fill="#B5D0E7" d="M1.086 1.034c-.086 0-.155.078-.155.173V7.65c0 .095.07.172.155.172h24.362c.086 0 .155-.077.155-.172V1.207c0-.095-.07-.173-.155-.173H1.086zm24.362 7.824H1.086C.486 8.858 0 8.317 0 7.65V1.207C0 .54.487 0 1.086 0h24.362c.6 0 1.086.541 1.086 1.207V7.65c0 .666-.487 1.207-1.086 1.207z"/><path fill="#B5D0E7" d="M1.086 8.793c-.086 0-.155.075-.155.167v6.39c0 .092.07.167.155.167h24.362c.086 0 .155-.075.155-.166V8.96c0-.092-.07-.167-.155-.167H1.086zm24.362 7.759H1.086c-.6 0-1.086-.54-1.086-1.201V8.96c0-.662.487-1.201 1.086-1.201h24.362c.6 0 1.086.539 1.086 1.2v6.392c0 .662-.487 1.2-1.086 1.2z"/><path fill="#B5D0E7" d="M1.086 16.552c-.086 0-.155.075-.155.166v6.391c0 .092.07.167.155.167h24.362c.086 0 .155-.075.155-.167v-6.39c0-.092-.07-.167-.155-.167H1.086zm24.362 7.758H1.086c-.6 0-1.086-.539-1.086-1.2v-6.392c0-.662.487-1.2 1.086-1.2h24.362c.6 0 1.086.538 1.086 1.2v6.391c0 .662-.487 1.201-1.086 1.201zM1.086 1.034c-.086 0-.155.075-.155.167v6.391c0 .092.07.167.155.167h24.362c.086 0 .155-.075.155-.167V1.201c0-.092-.07-.167-.155-.167H1.086zm24.362 7.76H1.086C.486 8.793 0 8.253 0 7.591V1.201C0 .539.487 0 1.086 0h24.362c.6 0 1.086.539 1.086 1.201v6.391c0 .662-.487 1.201-1.086 1.201z"/><path fill="#B5D0E7" d="M3.808 3.8c-.312 0-.565.282-.565.629 0 .346.253.628.565.628.312 0 .566-.282.566-.628 0-.347-.254-.629-.566-.629m0 2.292c-.825 0-1.496-.746-1.496-1.663s.67-1.663 1.496-1.663 1.497.746 1.497 1.663-.671 1.663-1.497 1.663"/><path fill="#B5D0E5" d="M7.044 4.429c0-.633.462-1.146 1.031-1.146.57 0 1.032.513 1.032 1.146 0 .632-.462 1.146-1.032 1.146-.57 0-1.03-.514-1.03-1.146"/><path fill="#B5D0E7" d="M3.808 19.447c-.312 0-.565.282-.565.628 0 .347.253.629.565.629.312 0 .566-.282.566-.629 0-.346-.254-.628-.566-.628m0 2.291c-.825 0-1.496-.746-1.496-1.663s.67-1.663 1.496-1.663 1.497.746 1.497 1.663-.671 1.663-1.497 1.663"/><path fill="#B5D0E5" d="M7.044 20.075c0-.632.462-1.145 1.031-1.145.57 0 1.032.513 1.032 1.145 0 .633-.462 1.146-1.032 1.146-.57 0-1.03-.513-1.03-1.146"/><path fill="#B5D0E7" d="M8.076 11.624c-.312 0-.566.281-.566.628s.254.628.566.628c.312 0 .565-.281.565-.628s-.253-.628-.565-.628m0 2.29c-.826 0-1.497-.745-1.497-1.662 0-.917.671-1.663 1.497-1.663.825 0 1.496.746 1.496 1.663s-.671 1.663-1.496 1.663"/><path fill="#B5D0E5" d="M4.84 12.252c0 .633-.462 1.146-1.032 1.146-.57 0-1.031-.513-1.031-1.146 0-.632.462-1.146 1.031-1.146.57 0 1.032.514 1.032 1.146"/><path fill="#C5E2E9" d="M18.317 21.994a.443.443 0 01-.341-.165l-2.133-2.547a.559.559 0 01.023-.731.434.434 0 01.658.026l2.134 2.547a.559.559 0 01-.024.731.44.44 0 01-.317.139"/><path fill="#B5D0E7" d="M14.237 21.685a.443.443 0 01-.34-.165l-2.134-2.547a.559.559 0 01.023-.731.433.433 0 01.658.026l2.134 2.547a.559.559 0 01-.024.731.44.44 0 01-.317.139m8.38 0a.443.443 0 01-.342-.165l-2.133-2.547a.559.559 0 01.024-.731.433.433 0 01.658.026l2.133 2.547a.559.559 0 01-.024.731.44.44 0 01-.317.139m-4.19-7.759a.443.443 0 01-.34-.165l-2.134-2.547a.559.559 0 01.024-.73.433.433 0 01.658.026l2.133 2.547a.559.559 0 01-.023.73.44.44 0 01-.317.14m-4.19 0a.443.443 0 01-.34-.166l-2.134-2.547a.559.559 0 01.023-.73.433.433 0 01.658.026l2.134 2.547a.559.559 0 01-.024.73.44.44 0 01-.317.14m8.38 0a.443.443 0 01-.342-.166l-2.133-2.547a.559.559 0 01.024-.73.433.433 0 01.658.026l2.133 2.547a.559.559 0 01-.024.73.44.44 0 01-.317.14m-4.19-7.76a.443.443 0 01-.34-.164l-2.134-2.547a.559.559 0 01.024-.731.434.434 0 01.658.026l2.133 2.547a.559.559 0 01-.023.73.44.44 0 01-.317.14m-4.19 0a.443.443 0 01-.34-.165l-2.134-2.547a.559.559 0 01.023-.731.434.434 0 01.658.026l2.134 2.547a.559.559 0 01-.024.73.44.44 0 01-.317.14m8.38 0a.443.443 0 01-.342-.165l-2.133-2.547a.559.559 0 01.024-.731.434.434 0 01.658.026l2.133 2.547a.559.559 0 01-.024.73.44.44 0 01-.317.14"/><path fill="#6BA3CF" d="M16.158 20.362v3.2c-1.426 1.772-5.833 1.598-6.216 4.007-.045.292.077 1.914.077 1.914h16.119s.122-1.622.077-1.914c-.38-2.391-4.732-2.238-6.186-3.97v-3.237h-3.871z"/><g transform="translate(9.31 19.656)"><mask id="b" fill="#fff"><use xlink:href="#a"/></mask><path fill="#FEFEFE" d="M1.14 9.31h15.257c.038-.595.064-1.177.048-1.313-.169-1.06-1.532-1.534-2.974-2.035-1.176-.408-2.392-.83-3.093-1.665a.551.551 0 01-.125-.353v-2.72h-2.94v2.682a.55.55 0 01-.118.344c-.697.866-1.934 1.296-3.131 1.712-1.442.5-2.804.974-2.974 2.041-.015.13.01.71.05 1.307zm15.688 1.035H.708c-.242 0-.443-.206-.464-.475C.206 9.364.124 8.15.172 7.827c.27-1.69 1.97-2.281 3.614-2.853 1.001-.347 2.034-.706 2.596-1.28V.706c0-.285.208-.517.465-.517h3.872c.257 0 .466.232.466.517v3.02c.567.555 1.58.907 2.564 1.249 1.644.57 3.346 1.161 3.614 2.848.05.325-.033 1.54-.071 2.048-.02.268-.222.474-.464.474z" mask="url(#b)"/></g><path fill="#6BA3CF" d="M21.297 18.58l.08-1.03c.192-2.443-1.275-4.639-3.297-4.646-2.02-.007-3.5 2.176-3.324 4.62l.074 1.031c.184 2.54 1.66 4.361 3.22 4.367 1.561.005 3.049-1.804 3.247-4.343"/><path fill="#FEFEFE" d="M18.07 13.421c-.729 0-1.418.347-1.943.976-.661.793-.992 1.918-.907 3.087l.075 1.03c.157 2.177 1.368 3.886 2.757 3.89h.007c1.387 0 2.604-1.697 2.774-3.87l.08-1.03c.092-1.168-.232-2.295-.888-3.093-.523-.635-1.214-.987-1.946-.99h-.009zM18.06 23.44h-.01c-1.87-.007-3.487-2.133-3.683-4.842l-.074-1.03c-.105-1.457.314-2.868 1.151-3.873.703-.843 1.636-1.307 2.627-1.307h.012c.995.003 1.93.474 2.63 1.327.832 1.01 1.243 2.425 1.13 3.88l-.081 1.03c-.211 2.702-1.837 4.815-3.702 4.815z"/></g></svg>