<svg xmlns="http://www.w3.org/2000/svg" width="31" height="29" viewBox="0 0 31 29"><g fill="none" fill-rule="evenodd"><path fill="#B5D0E5" d="M.969 3.875H30.03V.969H.97v2.906zm29.547.969H.484A.484.484 0 010 4.359V.484C0 .217.217 0 .484 0h30.032c.267 0 .484.217.484.484V4.36a.484.484 0 01-.484.485z"/><path fill="#B5D0E5" d="M.969 7.75H30.03V4.844H.97V7.75zm29.547.969H.484A.484.484 0 010 8.234V4.36c0-.267.217-.484.484-.484h30.032c.267 0 .484.217.484.484v3.875a.484.484 0 01-.484.485z"/><path fill="#B5D0E5" d="M.969 11.625H30.03V8.719H.97v2.906zm29.547.969H.484A.484.484 0 010 12.109V8.234c0-.267.217-.484.484-.484h30.032c.267 0 .484.217.484.484v3.875a.484.484 0 01-.484.485z"/><path fill="#B5D0E5" d="M.969 15.5H30.03v-2.906H.97V15.5zm29.547.969H.484A.484.484 0 010 15.984V12.11c0-.267.217-.484.484-.484h30.032c.267 0 .484.217.484.484v3.875a.484.484 0 01-.484.485z"/><path fill="#B5D0E5" d="M.969 19.375H30.03v-2.906H.97v2.906zm29.547.969H.484A.484.484 0 010 19.859v-3.875c0-.267.217-.484.484-.484h30.032c.267 0 .484.217.484.484v3.875a.484.484 0 01-.484.485z"/><path fill="#B5D0E5" d="M.969 23.25H30.03v-2.906H.97v2.906zm29.547.969H.484A.484.484 0 010 23.734V19.86c0-.267.217-.484.484-.484h30.032c.267 0 .484.217.484.484v3.875a.484.484 0 01-.484.485z"/><path fill="#B5D0E5" d="M.969 27.125H30.03v-2.906H.97v2.906zm29.547.969H.484A.484.484 0 010 27.609v-3.875c0-.267.217-.484.484-.484h30.032c.267 0 .484.217.484.484v3.875a.484.484 0 01-.484.485zM7.266 3.875h.968V.969h-.968zM14.531 3.875h.969V.969h-.969zM22.281 3.875h.969V.969h-.969zM3.875 7.75h.969V4.844h-.969zM10.656 7.75h.969V4.844h-.969zM18.406 7.75h.969V4.844h-.969zM26.156 7.75h.969V4.844h-.969zM7.266 11.625h.968V8.719h-.968zM14.531 11.625h.969V8.719h-.969zM22.281 11.625h.969V8.719h-.969zM3.875 15.5h.969v-2.906h-.969zM10.656 15.5h.969v-2.906h-.969zM18.406 15.5h.969v-2.906h-.969zM26.156 15.5h.969v-2.906h-.969zM7.266 19.375h.968v-2.906h-.968zM14.531 19.375h.969v-2.906h-.969zM22.281 19.375h.969v-2.906h-.969zM3.875 23.25h.969v-2.906h-.969zM10.656 23.25h.969v-2.906h-.969zM18.406 23.25h.969v-2.906h-.969zM26.156 23.25h.969v-2.906h-.969z"/><path fill="#B5D0E5" d="M7.266 27.125h.968v-2.906h-.968zM14.531 27.125h.969v-2.906h-.969zM22.281 27.125h.969v-2.906h-.969z"/><path fill="#FFF" d="M15.513 4.393c5.351.008 9.681 4.351 9.675 9.701-.01 5.35-4.351 9.682-9.702 9.674-5.35-.008-9.68-4.352-9.673-9.702.008-5.35 4.35-9.681 9.7-9.673"/><path fill="#B5D0E5" d="M15.499 4.926c-5.04 0-9.146 4.097-9.154 9.141-.006 5.048 4.095 9.16 9.142 9.168h.014c5.04 0 9.146-4.098 9.154-9.142.007-5.047-4.095-9.16-9.143-9.167H15.5zM15.5 24.3h-.016C9.85 24.29 5.272 19.7 5.28 14.066 5.289 8.436 9.872 3.86 15.499 3.86h.015c5.635.008 10.214 4.6 10.206 10.235-.009 5.63-4.592 10.205-10.22 10.206z"/><path fill="#6BA3CF" d="M15.499 7.794c3.697 0 5.555 1.978 5.555 1.978s.213 1.463.077 4.411c-.205 4.454-5.63 7.128-5.631 7.128 0 0-5.426-2.674-5.63-7.128-.136-2.948.076-4.411.076-4.411s1.857-1.978 5.553-1.978"/><path fill="#FFF" d="M12.696 13.837c0-1.574 1.245-2.855 2.775-2.855a2.78 2.78 0 012.777 2.777c0 1.222-1.051 2.228-1.861 2.745.315.179 1.007.367 1.67.428a4.008 4.008 0 001.562-3.173 4.153 4.153 0 00-4.148-4.149 4.154 4.154 0 00-4.149 4.149c0 1.381.576 2.61 1.664 3.55 1.017.879 2.505 1.465 4.2 1.743.367-.202.994-.802 1.23-1.152-1.415-.182-2.754-.527-3.652-.999-1.372-.72-2.068-1.75-2.068-3.064"/></g></svg>