<svg width="29" height="29" viewBox="0 0 29 29" xmlns="http://www.w3.org/2000/svg" xmlns:xlink="http://www.w3.org/1999/xlink"><defs><path id="a" d="M0 .444h28.554V29H0z"/></defs><g fill="none" fill-rule="evenodd"><path d="M.468 14.745C.468 7.118 6.65.935 14.277.935c7.627 0 13.81 6.183 13.81 13.81 0 7.628-6.183 13.81-13.81 13.81-7.626 0-13.81-6.182-13.81-13.81" fill="#FFF"/><g transform="translate(0 .023)"><mask id="b" fill="#fff"><use xlink:href="#a"/></mask><path d="M14.277 1.38C6.92 1.38.936 7.365.936 14.722S6.92 28.065 14.277 28.065c7.357 0 13.342-5.986 13.342-13.343S21.634 1.38 14.277 1.38m0 27.62C6.405 29 0 22.595 0 14.722S6.405.444 14.277.444c7.873 0 14.277 6.405 14.277 14.278S22.15 29 14.277 29" fill="#B5CFE5" mask="url(#b)"/></g><path d="M4.436 5.742v1.92c0 1.309.409 2.559 1.183 3.614l.673.918a18.326 18.326 0 004.06 4.026l2.87 2.072a1.359 1.359 0 01-.066 2.243l-.136.083a3.286 3.286 0 00-1.42 3.568 2.386 2.386 0 001.654 1.718 4.447 4.447 0 012.63 2.087 13.25 13.25 0 006.503-2.65l.6-3.244a1.512 1.512 0 00-.694-1.567l-2.704-1.68a2.449 2.449 0 00-2.19-.193L17 18.82c-.701.28-1.51.129-2.064-.385l-.322-.296a4.653 4.653 0 01-1.44-2.8l-.187-1.462a.425.425 0 00-.22-.318l-.871-.482a.427.427 0 00-.451.026l-.716.498a1.037 1.037 0 01-.894.145 1.03 1.03 0 01-.667-.605l-.179-.438a3.264 3.264 0 01.193-2.874 3.302 3.302 0 012.542-1.645l1.004-.093a4.311 4.311 0 012.594.574l.956.562c.378.22.727.503 1.034.842l.766.859a.252.252 0 00.274.065.253.253 0 00.144-.32l-.379-.92a2.463 2.463 0 00-.305-.545 3.98 3.98 0 01-.778-2.374c0-.36.046-.712.136-1.045.186-.678.76-1.04 1.177-1.255a6.562 6.562 0 002.04-1.65A13.348 13.348 0 004.436 5.743zm11.18 23.216a.468.468 0 01-.423-.269 3.496 3.496 0 00-2.2-1.886 3.33 3.33 0 01-2.3-2.389 4.224 4.224 0 011.834-4.591l.134-.081a.416.416 0 00.185-.341.413.413 0 00-.171-.35l-2.87-2.072a19.242 19.242 0 01-4.267-4.232l-.674-.918a7.002 7.002 0 01-1.363-4.168V5.562c0-.114.042-.225.118-.31A14.278 14.278 0 0121.32 2.325a.47.47 0 01.226.302.47.47 0 01-.073.37 7.478 7.478 0 01-2.696 2.366c-.418.216-.635.422-.703.671a3.03 3.03 0 00-.104.798c0 .66.206 1.289.596 1.818.169.229.31.48.419.747l.376.913a1.194 1.194 0 01-.671 1.554 1.191 1.191 0 01-1.31-.316l-.763-.856a3.422 3.422 0 00-.81-.66l-.959-.563a3.387 3.387 0 00-2.03-.45l-1.004.095a2.363 2.363 0 00-1.82 1.179 2.334 2.334 0 00-.138 2.055l.18.439a.1.1 0 00.066.06c.018.006.055.011.092-.015l.716-.498c.427-.3.98-.331 1.438-.078l.87.481c.38.208.64.588.698 1.017l.187 1.463a3.71 3.71 0 001.15 2.234l.319.296c.29.269.713.348 1.08.202l.397-.16a3.39 3.39 0 013.033.266l2.704 1.678a2.44 2.44 0 011.121 2.533l-.632 3.418a.468.468 0 01-.17.283 14.181 14.181 0 01-7.489 2.99z" fill="#B5CFE5"/><path d="M21.507 17.571c1.635 0 2.457.875 2.457.875s.094.647.033 1.95c-.09 1.969-2.489 3.15-2.49 3.15 0 0-2.398-1.181-2.488-3.15-.06-1.303.034-1.95.034-1.95s.82-.875 2.454-.875" fill="#6BA3CF"/><path d="M20.268 20.243c0-.696.55-1.262 1.227-1.262a1.23 1.23 0 011.227 1.227c0 .54-.464.986-.822 1.214.14.079.445.162.739.19a1.77 1.77 0 00.69-1.404 1.836 1.836 0 00-1.834-1.834 1.836 1.836 0 00-1.834 1.834c0 .61.255 1.154.735 1.57.45.388 1.108.648 1.857.77.163-.09.44-.354.544-.51-.626-.08-1.217-.232-1.614-.44-.607-.318-.915-.774-.915-1.355" fill="#FFF"/><path d="M16.627 2.609c1.634 0 2.456.874 2.456.874s.094.647.034 1.95c-.09 1.97-2.49 3.151-2.49 3.152 0 0-2.398-1.183-2.49-3.152-.059-1.303.035-1.95.035-1.95s.821-.874 2.455-.874" fill="#6BA3CF"/><path d="M15.388 5.28c0-.696.55-1.262 1.226-1.262.677 0 1.228.551 1.228 1.228 0 .54-.465.985-.823 1.214.14.078.446.162.74.189.428-.332.69-.845.69-1.403a1.836 1.836 0 00-1.835-1.834 1.836 1.836 0 00-1.834 1.834c0 .61.255 1.153.736 1.569.45.388 1.108.648 1.857.77.162-.089.44-.354.544-.508-.626-.08-1.218-.233-1.615-.442-.607-.318-.914-.774-.914-1.355" fill="#FFF"/><path d="M11.608 10.73c1.634 0 2.456.874 2.456.874s.094.647.034 1.95c-.09 1.969-2.49 3.15-2.49 3.151 0 0-2.398-1.182-2.489-3.151-.06-1.303.034-1.95.034-1.95s.82-.875 2.455-.875" fill="#6BA3CF"/><path d="M10.369 13.401c0-.696.55-1.262 1.226-1.262.677 0 1.228.55 1.228 1.227 0 .54-.464.985-.823 1.214.14.079.446.162.74.19.428-.332.69-.845.69-1.404a1.836 1.836 0 00-1.835-1.834 1.836 1.836 0 00-1.834 1.834c0 .61.255 1.154.736 1.57.45.388 1.108.647 1.857.77.162-.09.44-.354.544-.509-.626-.08-1.218-.233-1.615-.441-.607-.318-.914-.775-.914-1.355" fill="#FFF"/><path d="M5.826.936c1.635 0 2.456.875 2.456.875s.094.647.034 1.95c-.09 1.969-2.49 3.15-2.49 3.15S3.429 5.73 3.338 3.762c-.06-1.303.034-1.95.034-1.95S4.192.936 5.826.936" fill="#6BA3CF"/><path d="M4.587 3.608c0-.696.55-1.262 1.226-1.262a1.23 1.23 0 011.228 1.228c0 .54-.464.985-.823 1.213.14.079.446.162.74.19.428-.332.69-.845.69-1.403a1.836 1.836 0 00-1.835-1.835c-1.01 0-1.834.823-1.834 1.835 0 .61.255 1.153.736 1.568.45.389 1.108.649 1.857.772.162-.09.44-.355.544-.51-.626-.08-1.218-.233-1.615-.441-.607-.318-.914-.774-.914-1.355" fill="#FFF"/></g></svg>