<svg xmlns="http://www.w3.org/2000/svg" xmlns:xlink="http://www.w3.org/1999/xlink" width="36" height="22" viewBox="0 0 36 22"><defs><path id="a" d="M.527.193H6.1v5.432H.527z"/><path id="c" d="M.34.164h9.136v11.624H.34z"/></defs><g fill="none" fill-rule="evenodd"><path fill="#6BA3CF" d="M10.102 16.32a.562.562 0 01-.477-.264l-1.82-2.9-4.04-2.138a.565.565 0 01-.226-.777l4.118-7.196a.564.564 0 01.752-.217l4.196 2.22 5.358-1.494a.562.562 0 11.302 1.082l-5.573 1.556a.558.558 0 01-.415-.045l-3.913-2.07-3.56 6.219 3.661 1.936a.56.56 0 01.213.199l1.9 3.027a.562.562 0 01-.476.862m16.137 1.253a.569.569 0 01-.193-.035l-5.404-1.978a.563.563 0 01.386-1.057l4.959 1.816.784-1.371a.563.563 0 11.977.56l-1.02 1.782a.563.563 0 01-.489.283"/><path fill="#6BA3CF" d="M23.863 19.5a.555.555 0 01-.175-.028l-4.434-1.448a.562.562 0 11.349-1.069l3.999 1.306.785-1.371a.562.562 0 11.976.558l-1.012 1.769a.562.562 0 01-.488.283"/><path fill="#6BA3CF" d="M21.239 21.118a.577.577 0 01-.16-.023l-5.049-1.498a.563.563 0 01.32-1.078l4.622 1.37.704-1.23a.562.562 0 11.977.558l-.926 1.618a.562.562 0 01-.488.283"/><path fill="#B4CFE6" d="M28.213 13.035a.566.566 0 01-.263-.066l-4.54-2.4a.562.562 0 11.527-.995l4.276 2.262 2.91-1.54-3.56-6.22-3.912 2.071a.562.562 0 11-.527-.994l4.395-2.325a.564.564 0 01.751.217l4.118 7.196a.564.564 0 01-.225.777l-3.687 1.951a.566.566 0 01-.263.066"/><path fill="#FEFEFE" d="M11.483 13.031l-2.982 3.036-1.756-1.638 2.982-3.036z"/><path fill="#B4CFE6" d="M7.55 14.411l.934.871 2.194-2.233-.934-.87-2.193 2.232zm.95 2.218a.56.56 0 01-.382-.15L6.362 14.84a.564.564 0 01-.018-.806L9.326 11a.563.563 0 01.785-.017l1.756 1.638a.566.566 0 01.017.806l-2.982 3.036a.562.562 0 01-.401.167z"/><path fill="#FEFEFE" d="M8.018 16.539l1.756 1.638 4.631-4.616-1.787-1.667z"/><path fill="#B4CFE6" d="M8.826 16.523l.935.873 3.834-3.821-.962-.897-3.807 3.845zm.949 2.217a.557.557 0 01-.384-.151L7.635 16.95a.566.566 0 01-.18-.4.566.566 0 01.164-.407l4.599-4.645a.564.564 0 01.783-.016l1.788 1.667a.562.562 0 01.013.81l-4.63 4.615a.561.561 0 01-.397.165z"/><path fill="#B4CFE6" d="M11.028 17.727l.932.87 2.627-2.604-.933-.87-2.626 2.604zm.944 2.213a.56.56 0 01-.384-.151l-1.755-1.638a.564.564 0 01-.012-.81l3.425-3.398a.563.563 0 01.78-.012l1.756 1.639a.565.565 0 01.013.81l-3.427 3.397a.561.561 0 01-.396.163z"/><path fill="#FEFEFE" d="M12.339 19.01l1.756 1.638 2.693-2.669-1.757-1.638z"/><g transform="translate(11.25 15.586)"><mask id="b" fill="#fff"><use xlink:href="#a"/></mask><path fill="#B4CFE6" d="M1.9 3.412l.933.87 1.893-1.876-.933-.87L1.9 3.411zm.946 2.213a.56.56 0 01-.385-.151L.705 3.835a.564.564 0 01-.012-.81L3.385.355a.561.561 0 01.78-.011L5.92 1.982a.56.56 0 01.013.81l-2.692 2.67a.561.561 0 01-.396.163z" mask="url(#b)"/></g><path fill="#B4CFE6" d="M11.289 10.96a.563.563 0 01-.488-.283L9.549 8.49a.566.566 0 01.232-.78l8.077-4.116a.57.57 0 01.415-.038l5.273 1.555a.562.562 0 01-.318 1.079l-5.059-1.492-7.35 3.745.707 1.238 4.967-2.169a.561.561 0 01.386-.023l7.72 2.31 2.428-1.1a.563.563 0 01.464 1.026l-2.62 1.185a.558.558 0 01-.393.027l-7.724-2.311-5.24 2.287a.555.555 0 01-.225.047"/><g transform="translate(26.438 .398)"><mask id="d" fill="#fff"><use xlink:href="#c"/></mask><path fill="#B4CFE6" d="M1.674 2.567l4.287 7.911 2.182-1.093-4.288-7.911-2.181 1.093zm4.053 9.221a.563.563 0 01-.495-.295l-4.824-8.9a.563.563 0 01.243-.771L3.838.224a.562.562 0 01.746.235l4.825 8.9a.564.564 0 01-.243.772l-3.188 1.597a.567.567 0 01-.251.06z" mask="url(#d)"/></g><path fill="#6BA3CF" d="M1.334 9.783l2.182 1.093 4.288-7.91-2.182-1.094-4.288 7.911zm2.416 2.403a.566.566 0 01-.251-.06L.31 10.53a.562.562 0 01-.242-.771L4.892.857a.563.563 0 01.746-.235l3.189 1.597a.564.564 0 01.242.772l-4.824 8.9a.563.563 0 01-.495.295zm24.746 3.668a.55.55 0 01-.228-.049l-6.23-2.762a.563.563 0 01.457-1.028l5.765 2.556.632-1.103-5.431-2.874-5.663-1.663a.561.561 0 01-.38-.699.559.559 0 01.698-.38l5.717 1.68c.035.01.07.024.104.041l5.995 3.173a.563.563 0 01.225.776l-1.172 2.049a.562.562 0 01-.49.283"/></g></svg>