<svg width="30" height="30" viewBox="0 0 30 30" xmlns="http://www.w3.org/2000/svg" xmlns:xlink="http://www.w3.org/1999/xlink"><defs><path id="a" d="M.014.194h29.774v13.4H.014z"/><path id="c" d="M.014.43h29.774v13.4H.014z"/><path id="e" d="M.014.402h29.774v13.4H.014z"/><path id="g" d="M.304.418H13.56v15.784H.304z"/></defs><g fill="none" fill-rule="evenodd"><g transform="translate(0 16.036)"><mask id="b" fill="#fff"><use xlink:href="#a"/></mask><path d="M14.259 1.131h-.025c-1.088 0-2.03.341-2.038.344-7.007 2.161-10.862 5.199-10.9 5.229a.275.275 0 01-.024.017c-.145.102-.318.257-.32.412-.003.19.22.42.33.5C5.56 10.26 12.34 12.101 12.408 12.12c1.752.567 2.72.535 2.732.537 1.388 0 2.488-.297 2.498-.3 4.431-1.077 10.277-4.767 10.335-4.804.89-.513.877-.923.877-.927-.007-.032-.005-.033-.005-.066-.04-.146-.52-.516-.986-.748-4.262-2.555-11.558-4.397-11.631-4.416-1.188-.25-1.839-.264-1.97-.264zm.835 12.463c-.266 0-1.3-.04-2.952-.577-.26-.068-6.958-1.888-11.384-4.606-.104-.074-.75-.564-.744-1.283.002-.305.127-.753.708-1.166.283-.223 4.13-3.203 11.174-5.375a7.56 7.56 0 012.322-.393c.014 0 .742-.024 2.221.288.321.08 7.52 1.898 11.87 4.507.413.203 1.442.79 1.474 1.534.026.245 0 1.069-1.324 1.83-.226.145-6.018 3.8-10.585 4.91-.036.01-1.212.33-2.712.33h-.068z" fill="#B5D0E7" mask="url(#b)"/></g><path d="M1.003 18.391s3.867-3.093 11.031-5.303c0 0 1.016-.372 2.184-.372 0 0 .683-.026 2.125.278 0 0 7.385 1.846 11.725 4.45 0 0 1.246.616 1.246 1.168 0 0 .145.678-1.088 1.389 0 0-5.918 3.755-10.463 4.86 0 0-1.147.316-2.601.316 0 0-1.022.048-2.875-.552 0 0-6.865-1.847-11.284-4.561 0 0-1.172-.851 0-1.673" fill="#FFF"/><g transform="translate(0 11.818)"><mask id="d" fill="#fff"><use xlink:href="#c"/></mask><path d="M14.259 1.367h-.025c-1.088 0-2.03.34-2.038.344C5.189 3.872 1.334 6.91 1.296 6.94a.44.44 0 01-.024.017c-.145.103-.32.257-.32.413-.003.196.238.433.327.497 4.278 2.626 11.062 4.469 11.13 4.487 1.753.568 2.723.538 2.732.537 1.388 0 2.487-.296 2.498-.3 4.431-1.077 10.277-4.766 10.335-4.804.89-.512.877-.922.877-.927-.007-.032-.005-.033-.005-.066-.04-.144-.528-.521-.986-.747C23.598 3.49 16.302 1.649 16.23 1.63c-1.189-.25-1.839-.264-1.97-.264zm.836 12.462c-.264 0-1.298-.04-2.953-.576-.26-.07-6.958-1.888-11.384-4.607-.104-.074-.75-.564-.744-1.283.002-.305.127-.753.708-1.165.284-.224 4.13-3.203 11.174-5.376A7.56 7.56 0 0114.218.43c.013 0 .74-.025 2.222.288.32.08 7.52 1.897 11.869 4.506.413.203 1.442.79 1.474 1.535.026.244 0 1.068-1.324 1.83-.226.144-6.018 3.8-10.585 4.91-.036.01-1.212.33-2.712.33h-.067z" fill="#B5D0E7" mask="url(#d)"/></g><path d="M1.003 14.614S4.87 11.52 12.034 9.31c0 0 1.016-.372 2.184-.372 0 0 .683-.026 2.125.277 0 0 7.385 1.847 11.725 4.45 0 0 1.246.616 1.246 1.169 0 0 .145.678-1.088 1.389 0 0-5.918 3.755-10.463 4.86 0 0-1.147.316-2.601.316 0 0-1.022.048-2.875-.552 0 0-6.865-1.847-11.284-4.562 0 0-1.172-.85 0-1.672" fill="#FFF"/><g transform="translate(0 8.068)"><mask id="f" fill="#fff"><use xlink:href="#e"/></mask><path d="M14.259 1.34h-.025c-1.088 0-2.03.34-2.038.344-7.007 2.16-10.862 5.198-10.9 5.228a.275.275 0 01-.024.017c-.145.103-.32.258-.32.414-.003.196.238.433.327.496 4.278 2.627 11.062 4.47 11.13 4.488 1.752.568 2.72.537 2.732.537 1.388 0 2.488-.296 2.498-.3 4.431-1.077 10.277-4.766 10.335-4.804.89-.512.877-.922.877-.927-.007-.032-.005-.033-.005-.066-.04-.146-.52-.516-.986-.747-4.264-2.557-11.558-4.398-11.631-4.416-1.188-.25-1.839-.264-1.97-.264zm.835 12.462c-.266 0-1.3-.04-2.952-.576-.26-.07-6.958-1.889-11.384-4.608-.103-.073-.75-.563-.744-1.282.002-.305.127-.753.708-1.165.283-.224 4.13-3.203 11.174-5.376a7.56 7.56 0 012.322-.392c.014 0 .742-.024 2.221.287.321.08 7.52 1.897 11.87 4.507.413.203 1.442.79 1.474 1.535.026.244 0 1.067-1.324 1.83-.226.144-6.018 3.8-10.585 4.91-.036.01-1.212.329-2.712.329h-.068z" fill="#B5D0E7" mask="url(#f)"/></g><g transform="translate(7.969 .099)"><mask id="h" fill="#fff"><use xlink:href="#g"/></mask><path d="M6.931.417c4.317 0 6.487 2.31 6.487 2.31s.248 1.71.09 5.152c-.24 5.2-6.575 8.323-6.576 8.323 0 0-6.336-3.123-6.575-8.323-.159-3.442.09-5.152.09-5.152S2.614.417 6.93.417" fill="#6BA3CF" mask="url(#h)"/></g><path d="M11.627 7.574c0-1.84 1.453-3.335 3.24-3.335a3.246 3.246 0 013.243 3.243c0 1.428-1.228 2.602-2.173 3.206.367.208 1.176.429 1.951.5a4.68 4.68 0 001.823-3.706 4.85 4.85 0 00-4.844-4.844 4.85 4.85 0 00-4.845 4.844c0 1.613.672 3.046 1.943 4.145 1.188 1.026 2.926 1.711 4.905 2.036.429-.237 1.161-.936 1.437-1.346-1.653-.212-3.217-.615-4.266-1.165-1.602-.841-2.414-2.045-2.414-3.578" fill="#FFF"/></g></svg>