<svg viewBox="0 0 65 59" xmlns="http://www.w3.org/2000/svg"><g fill="none" fill-rule="evenodd"><g transform="translate(1 1)"><g fill-rule="nonzero"><path d="m0 29c.55228475 0 1 .4477153 1 1 0 3.0891792.48579191 6.1059469 1.43029248 8.9886414.17195863.524832-.1141018 1.0896925-.63893385 1.2616511s-1.08969249-.1141018-1.26165111-.6389339c-1.01007919-3.0828458-1.52970752-6.3097378-1.52970752-9.6113586 0-.5522847.44771525-1 1-1z" fill="#b5cfe7"/><path d="m50.7201927 8.27566836c.3945144-.38649292 1.027646-.37999017 1.4141389.0145243 5.6420088 5.75910714 8.8656684 13.48664854 8.8656684 21.70980734 0 3.278533-.5217953 6.5027605-1.5287514 9.6084253-.1703386.5253601-.7343138.8131619-1.2596739.6428233s-.8131619-.7343138-.6428233-1.2596739c.9431023-2.9087258 1.4312486-5.925033 1.4312486-8.9915747 0-7.6942442-3.0147741-14.9210594-8.2943316-20.31019266-.386493-.39451447-.3799902-1.02764606.0145243-1.41413898z" fill="#b5cfe7"/><path d="m51.21 8.78c-5.43-5.42-12.93-8.78-21.21-8.78-16.57 0-30 13.43-30 30h30z" fill="#6aa2cf"/></g><path d="m51.21 8.78c-5.43-5.42-12.93-8.78-21.21-8.78-16.57 0-30 13.43-30 30h30z" stroke="#fff" stroke-linecap="round" stroke-linejoin="round" stroke-width="2"/><path d="m45.62 14.38c-4-4-9.52-6.47-15.62-6.47-12.2 0-22.1 9.89-22.1 22.1h22.1" stroke="#fff" stroke-linecap="round" stroke-linejoin="round" stroke-width="2"/><path d="m16.44 30c0-7.49 6.07-13.56 13.56-13.56 3.74 0 7.13 1.52 9.59 3.97" stroke="#fff" stroke-linecap="round" stroke-linejoin="round" stroke-width="2"/><path d="m50.5028932 8.08289322c.3905243-.39052429 1.0236893-.39052429 1.4142136 0 .3604839.36048396.3882135.92771502.0831886 1.32000622l-.0831886.09420734-21.21 21.21000002c-.3905243.3905243-1.0236893.3905243-1.4142136 0-.3604839-.360484-.3882135-.927715-.0831886-1.3200062l.0831886-.0942074z" fill="#6aa2cf" fill-rule="nonzero"/><path d="m26.6 30c0-1.88 1.52-3.4 3.39-3.4s3.4 1.52 3.4 3.4-1.52 3.4-3.4 3.4-3.39-1.52-3.39-3.4" fill="#6aa2cf" fill-rule="nonzero"/><path d="m26.6 30c0-1.88 1.52-3.4 3.39-3.4s3.4 1.52 3.4 3.4-1.52 3.4-3.4 3.4-3.39-1.52-3.39-3.4z" stroke="#fff" stroke-linecap="round" stroke-linejoin="round" stroke-width="2"/><path d="m23.27 8.47c0-.96.78-1.75 1.75-1.75s1.75.78 1.75 1.75-.78 1.75-1.75 1.75-1.75-.78-1.75-1.75" fill="#fff" fill-rule="nonzero"/><path d="m23.27 8.47c0-.96.78-1.75 1.75-1.75s1.75.78 1.75 1.75-.78 1.75-1.75 1.75-1.75-.78-1.75-1.75z" stroke="#fff" stroke-linecap="round" stroke-linejoin="round" stroke-width="2"/><path d="m17.14 22.65c0-.97.78-1.75 1.75-1.75s1.75.78 1.75 1.75-.78 1.75-1.75 1.75-1.75-.78-1.75-1.75" fill="#fff" fill-rule="nonzero"/><path d="m17.14 22.65c0-.97.78-1.75 1.75-1.75s1.75.78 1.75 1.75-.78 1.75-1.75 1.75-1.75-.78-1.75-1.75z" stroke="#fff" stroke-linecap="round" stroke-linejoin="round" stroke-width="2"/></g><g fill="#b5cfe7" fill-rule="nonzero" transform="translate(1.58 46)"><path d="m3.6 2.92h-3.6v-2.4h9.81v2.4h-3.6v9.44h-2.61z"/><path d="m10.52 3.29h2.57v1.83c.52-1.25 1.37-2.06 2.89-2v2.69h-.13c-1.71 0-2.76 1.03-2.76 3.2v3.35h-2.57z"/><path d="m17.52 9.16v-5.87h2.57v5.06c0 1.22.58 1.84 1.56 1.84s1.61-.63 1.61-1.84v-5.06h2.57v9.07h-2.57v-1.29c-.59.76-1.35 1.46-2.66 1.46-1.95 0-3.08-1.29-3.08-3.37z"/><path d="m28.4.51h5.42c1.51 0 2.67.42 3.45 1.2.66.66 1.01 1.59 1.01 2.71v.03c0 1.91-1.03 3.11-2.54 3.67l2.89 4.23h-3.05l-2.54-3.79h-2.05v3.79h-2.61v-11.85zm5.25 5.75c1.27 0 2-.68 2-1.68v-.03c0-1.12-.78-1.69-2.05-1.69h-2.59v3.4z"/><path d="m40.42 0h2.71v2.29h-2.71zm.07 3.28h2.57v9.07h-2.57z"/><path d="m44.76 11.16 1.1-1.69c.98.71 2.01 1.08 2.86 1.08.75 0 1.08-.27 1.08-.68v-.03c0-.56-.88-.74-1.88-1.05-1.27-.37-2.71-.96-2.71-2.72v-.03c0-1.84 1.49-2.88 3.32-2.88 1.15 0 2.4.39 3.38 1.05l-.98 1.78c-.9-.52-1.79-.85-2.45-.85-.63 0-.95.27-.95.63v.03c0 .51.86.74 1.84 1.08 1.27.42 2.74 1.03 2.74 2.69v.03c0 2.01-1.51 2.93-3.47 2.93-1.27 0-2.69-.42-3.89-1.37z"/><path d="m53.97 0h2.57v6.58l3.01-3.3h3.08l-3.45 3.57 3.57 5.5h-2.98l-2.32-3.72-.91.96v2.76h-2.57z"/></g></g></svg>