<svg width="28" height="28" viewBox="0 0 28 28" xmlns="http://www.w3.org/2000/svg" xmlns:xlink="http://www.w3.org/1999/xlink"><defs><path id="a" d="M.05.005h19.335V6.16H.051z"/><path id="c" d="M0 .06h2.208v6.026H0z"/><path id="e" d="M.265.132H7.97v2.923H.265z"/></defs><g fill="none" fill-rule="evenodd"><path d="M26.03 14.784a.509.509 0 01-.51-.51c0-6.467-5.262-11.728-11.73-11.728-6.467 0-11.729 5.261-11.729 11.728a.509.509 0 11-1.018 0c0-7.029 5.718-12.747 12.748-12.747 7.029 0 12.747 5.718 12.747 12.747 0 .282-.227.51-.509.51" fill="#B5CFE5"/><g transform="translate(4.073 .504)"><mask id="b" fill="#fff"><use xlink:href="#a"/></mask><path d="M17.857 6.161a1.52 1.52 0 01-1.015-.387A10.694 10.694 0 009.718 3.06c-2.63 0-5.16.964-7.124 2.715a1.527 1.527 0 11-2.033-2.28A13.745 13.745 0 019.718.004c3.38 0 6.632 1.24 9.156 3.49a1.527 1.527 0 01-1.017 2.667" fill="#B5CFE5" mask="url(#b)"/></g><path d="M5.2 23.68h-.461c-.91 0-1.656-.745-1.656-1.656v-6.347c0-.911.745-1.656 1.656-1.656h.46c.91 0 1.656.745 1.656 1.656v6.347c0 .91-.745 1.656-1.656 1.656" fill="#6BA3CF"/><g transform="translate(0 15.777)"><mask id="d" fill="#fff"><use xlink:href="#c"/></mask><path d="M2.116.06h-.46C.747.06 0 .806 0 1.717V4.43c0 .91.746 1.656 1.657 1.656h.46c.03 0 .06-.008.091-.01V.07c-.03-.002-.06-.01-.092-.01" fill="#6BA3CF" mask="url(#d)"/></g><path d="M22.406 23.68h.46c.911 0 1.657-.745 1.657-1.656v-6.347c0-.911-.746-1.656-1.657-1.656h-.46c-.91 0-1.656.745-1.656 1.656v6.347c0 .91.745 1.656 1.656 1.656" fill="#6BA3CF"/><g transform="translate(9.673 24.94)"><mask id="f" fill="#fff"><use xlink:href="#e"/></mask><path d="M7.97 2.022v-.857C7.97.597 7.505.132 6.938.132h-5.64C.73.132.265.597.265 1.165v.857c0 .568.465 1.033 1.033 1.033h5.64c.567 0 1.032-.465 1.032-1.033" fill="#6BA3CF" mask="url(#f)"/></g><path d="M25.489 15.838h.46c.91 0 1.656.745 1.656 1.656v2.713c0 .91-.745 1.657-1.656 1.657h-.46c-.032 0-.06-.009-.092-.01v-6.007c.031-.001.06-.01.092-.01M16.655 27.18a.509.509 0 110-1.018c3.513 0 5.194-.854 5.987-1.57.812-.734.858-1.453.86-1.483l-.001-1.684a.51.51 0 011.018 0v1.703c-.004.178-.186 4.052-7.864 4.052" fill="#6BA3CF"/></g></svg>