<svg width="29" height="29" viewBox="0 0 29 29" xmlns="http://www.w3.org/2000/svg"><g fill="none" fill-rule="evenodd"><path d="M14.5 27.885c7.392 0 13.385-5.993 13.385-13.385 0-7.392-5.993-13.385-13.385-13.385-7.392 0-13.385 5.993-13.385 13.385 0 7.392 5.993 13.385 13.385 13.385m0 1.115C22.508 29 29 22.508 29 14.5S22.508 0 14.5 0 0 6.492 0 14.5 6.492 29 14.5 29" fill="#B5D0E5"/><path d="M16.807 8.243c0 .546-.188 1.012-.565 1.396-.376.385-.83.577-1.36.577-.531 0-.986-.192-1.366-.577a1.91 1.91 0 01-.57-1.396c0-.546.19-1.012.57-1.4.38-.389.835-.582 1.366-.582.53 0 .984.194 1.36.581.377.39.565.855.565 1.4M16.618 21.245a33.33 33.33 0 01-1.356.62c-.337.144-.729.214-1.175.214-.686 0-1.22-.204-1.6-.61-.38-.407-.57-.923-.57-1.55 0-.243.014-.492.042-.746.03-.254.075-.541.138-.861l.708-3.047c.063-.292.116-.568.16-.83.043-.26.063-.498.063-.714 0-.389-.066-.662-.197-.814-.132-.154-.384-.23-.758-.23-.183 0-.37.035-.562.104-.193.069-.306-.742-.306-.742.463-.229.906-.426 1.33-.589a3.346 3.346 0 011.204-.246c.681 0 1.207.2 1.575.601.37.4.554.92.554 1.56 0 .133-.012.366-.038.7-.026.334-.073.64-.142.918l-.705 3.036c-.058.244-.11.522-.155.836a5.18 5.18 0 00-.069.71c0 .403.074.677.222.824.15.147.406.219.772.219.171 0 .365-.037.582-.11.217-.073.283.747.283.747" fill="#6BA3CF"/></g></svg>