<svg width="30" height="29" viewBox="0 0 30 29" xmlns="http://www.w3.org/2000/svg" xmlns:xlink="http://www.w3.org/1999/xlink"><defs><path id="a" d="M0 .31h29.86v27.755H0z"/></defs><g fill="none" fill-rule="evenodd"><path fill="#FFF" d="M.484 24.485h24.731V2.518H.484z"/><g transform="translate(0 .174)"><mask id="b" fill="#fff"><use xlink:href="#a"/></mask><path d="M.968 23.826h23.764V2.827H.968v21zm24.247.968H.484A.483.483 0 010 24.31V2.343c0-.267.216-.483.484-.483h24.731c.268 0 .484.216.484.483V24.31a.483.483 0 01-.484.484z" fill="#B5D0E5" mask="url(#b)"/><path fill="#B5D0E5" mask="url(#b)" d="M.68 7.96h24.219V6.92H.679zM4.035.865v2.957a.555.555 0 11-1.11 0V.865a.555.555 0 011.11 0M7.158.865v2.957a.556.556 0 01-1.11 0V.865a.554.554 0 111.11 0M10.282.865v2.957a.556.556 0 01-1.11 0V.865a.554.554 0 111.11 0M13.405.865v2.957a.556.556 0 01-1.11 0V.865a.555.555 0 011.11 0M16.528.865v2.957a.555.555 0 11-1.11 0V.865a.555.555 0 011.11 0M19.652.865v2.957a.555.555 0 11-1.11 0V.865a.555.555 0 011.11 0M22.775.865v2.957a.555.555 0 11-1.11 0V.865a.555.555 0 011.11 0"/><path d="M29.86 21.93a6.134 6.134 0 11-12.27 0 6.134 6.134 0 0112.27 0" fill="#6BA3CF" mask="url(#b)"/><path d="M3.48 21.398a.483.483 0 01-.484-.484V11.23a.484.484 0 11.968 0v9.684a.483.483 0 01-.484.484M8.165 21.398a.483.483 0 01-.484-.484V11.23a.484.484 0 11.968 0v9.684a.483.483 0 01-.484.484M12.85 21.398a.483.483 0 01-.484-.484V11.23a.484.484 0 11.968 0v9.684a.483.483 0 01-.484.484M17.535 18.365a.483.483 0 01-.484-.484V11.23a.483.483 0 11.968 0v6.65a.483.483 0 01-.484.485M22.22 15.147a.483.483 0 01-.484-.484V11.23a.484.484 0 11.968 0v3.433a.483.483 0 01-.484.484" fill="#B5D0E5" mask="url(#b)"/><path d="M22.22 11.714H3.48a.483.483 0 110-.968h18.74a.483.483 0 110 .968M22.22 15.147H3.48a.483.483 0 110-.968h18.74a.483.483 0 110 .968M17.535 18.365H3.48a.483.483 0 110-.968h14.055a.483.483 0 110 .968M15.973 21.498H3.48a.483.483 0 110-.968h12.493a.483.483 0 110 .968" fill="#B5D0E5" mask="url(#b)"/><path d="M27.963 22.833h-4.43a.483.483 0 01-.485-.484v-4.827a.484.484 0 11.968 0v4.343h3.947a.483.483 0 110 .968" fill="#FFF" mask="url(#b)"/></g></g></svg>