<svg width="31" height="34" viewBox="0 0 31 34" xmlns="http://www.w3.org/2000/svg" xmlns:xlink="http://www.w3.org/1999/xlink"><defs><path id="a" d="M0 .559h26.038v25.728H0z"/></defs><g fill="none" fill-rule="evenodd"><g><mask id="b" fill="#fff"><use xlink:href="#a"/></mask><path d="M25.249 2.173v10.86h-3.274c.112-.303.177-.624.177-.955 0-1.537-1.266-2.787-2.821-2.787-1.555 0-2.82 1.25-2.82 2.787 0 .33.064.652.176.956h-3.274V9.12c0-.016-.006-.028-.008-.044A.407.407 0 0013.389 9a.377.377 0 00-.034-.071c-.007-.013-.009-.027-.018-.04-.006-.007-.015-.011-.022-.02a.388.388 0 00-.06-.053c-.02-.014-.038-.029-.06-.04a.375.375 0 00-.069-.024.375.375 0 00-.079-.016c-.01 0-.018-.005-.028-.005-.015 0-.028.006-.043.008a.39.39 0 00-.079.016.398.398 0 00-.072.033c-.013.007-.027.01-.04.018-.35.254-.763.388-1.198.388-1.12 0-2.032-.9-2.032-2.007 0-1.108.912-2.007 2.032-2.007.435 0 .849.133 1.198.387.013.01.027.011.04.019a.334.334 0 00.15.049c.016 0 .029.008.044.008.01 0 .019-.005.028-.006a.354.354 0 00.08-.016c.023-.006.046-.012.068-.024.022-.01.04-.025.061-.04a.355.355 0 00.059-.054c.007-.007.016-.01.022-.02.009-.01.01-.025.018-.038a.362.362 0 00.05-.15c.002-.014.008-.027.008-.042V1.338h10.99a.84.84 0 01.846.835zm0 22.5a.84.84 0 01-.845.835h-10.99v-3.193c.27.085.554.133.844.133 1.555 0 2.82-1.25 2.82-2.787 0-1.538-1.265-2.788-2.82-2.788-.29 0-.573.049-.845.133v-3.193h3.91c.013 0 .025-.006.037-.007a.414.414 0 00.15-.046c.012-.006.025-.008.036-.015.01-.007.015-.018.025-.025a.395.395 0 00.097-.117.401.401 0 00.043-.145c0-.013.007-.023.007-.035 0-.013-.007-.024-.008-.036a.367.367 0 00-.046-.15c-.006-.01-.008-.023-.015-.034-.23-.33-.35-.72-.35-1.125 0-1.107.912-2.008 2.032-2.008s2.032.9 2.032 2.008c0 .406-.121.795-.35 1.125-.007.01-.008.023-.014.034a.376.376 0 00-.047.149c-.001.013-.007.024-.007.037 0 .012.006.022.007.035a.323.323 0 00.016.077.375.375 0 00.026.067.395.395 0 00.098.118c.009.007.014.018.025.025.014.01.03.014.044.021l.041.02a.39.39 0 00.136.027h3.911v10.86zm-24.46 0v-10.86h3.255c-.006.018-.008.038-.014.056-.032.095-.055.191-.076.289-.01.045-.023.09-.03.135a2.733 2.733 0 00-.021.733c.003.034.01.067.015.1.01.063.018.126.032.188.009.043.021.084.033.126.013.05.026.1.042.15.016.047.035.095.053.142.016.04.03.08.048.119a3.147 3.147 0 00.222.403 3.541 3.541 0 00.17.23l.051.058c.045.052.09.104.14.153l.033.03c.052.05.104.1.16.147.12.098.247.182.38.258.034.02.067.041.102.06.044.022.088.042.133.063.046.021.093.042.141.061a2.943 2.943 0 00.588.162l.097.014c.066.009.134.014.202.018.035.002.068.005.103.005.02 0 .039.004.059.004.045 0 .09-.005.135-.008.039-.001.077-.002.116-.005.053-.005.105-.013.157-.02.042-.006.084-.009.126-.017.01-.001.019-.005.028-.006a2.99 2.99 0 00.499-.151l.068-.028a2.785 2.785 0 001.342-1.212l.031-.06a2.782 2.782 0 00.204-.5c.005-.018.013-.035.018-.054.006-.022.007-.043.013-.064.026-.105.046-.212.06-.32l.007-.044a2.75 2.75 0 00.017-.299c0-.017-.004-.035-.004-.052-.002-.069-.009-.137-.016-.205-.006-.066-.011-.132-.022-.197a2.334 2.334 0 00-.046-.205c-.016-.063-.031-.126-.052-.188-.007-.023-.01-.046-.018-.07h3.254v3.79c0 .01.005.018.006.028.002.025.008.05.015.076a.38.38 0 00.027.073c.005.008.005.018.01.026.008.013.021.02.03.032a.358.358 0 00.262.146c.015.002.029.009.045.009.01 0 .019-.005.028-.006.026-.001.05-.008.075-.015a.375.375 0 00.076-.026c.008-.005.018-.005.026-.01a2.006 2.006 0 011.034-.282c1.12 0 2.031.9 2.031 2.008 0 1.106-.91 2.007-2.031 2.007-.37 0-.727-.097-1.034-.282-.009-.006-.018-.006-.027-.01a.36.36 0 00-.073-.026.373.373 0 00-.078-.015c-.009-.001-.018-.006-.027-.006-.016 0-.029.007-.044.009a.35.35 0 00-.146.046.346.346 0 00-.116.1c-.01.011-.023.019-.031.032-.005.009-.006.018-.01.027-.012.023-.019.047-.027.072-.007.026-.013.05-.015.077 0 .01-.006.017-.006.027v3.789H1.634a.84.84 0 01-.845-.835zm0-22.5c0-.46.38-.835.845-.835h10.99v3.264a2.822 2.822 0 00-1.037-.203c-1.556 0-2.82 1.25-2.82 2.787 0 1.536 1.264 2.787 2.82 2.787.36 0 .71-.074 1.037-.204v3.265H8.738c-.015 0-.03.004-.046.005l-.036.005a.426.426 0 00-.054.017l-.033.013c-.013.007-.027.012-.04.02-.002.001-.003 0-.005.002-.005.003-.008.008-.012.011-.015.011-.03.022-.044.035l-.01.008c-.012.012-.021.026-.031.04-.007.01-.015.018-.021.028-.004.007-.01.012-.014.02-.004.006-.006.014-.008.021-.006.01-.01.021-.013.033-.006.016-.013.031-.017.048-.002.004-.001.009-.002.013a.345.345 0 00-.005.054c0 .006-.003.01-.003.016l.001.006c0 .015.003.029.005.044a.383.383 0 00.022.088c.004.011.01.021.015.032.007.013.011.028.02.04v.002c.049.075.091.153.13.231l.028.064c.028.062.053.127.074.192l.02.059a2 2 0 01.056.249l.005.055a1.833 1.833 0 01.015.275c-.002.12-.013.237-.036.351-.002.015-.006.03-.01.046a1.99 1.99 0 01-.535.978l-.018.019c-.18.175-.39.317-.626.417l-.026.012a2.048 2.048 0 01-.75.151l-.044.001a2.052 2.052 0 01-.378-.038l-.027-.005a2.078 2.078 0 01-.364-.112l-.011-.005a2.04 2.04 0 01-.636-.424l-.004-.005a1.981 1.981 0 01-.236-.282l-.019-.026a1.998 1.998 0 01-.171-.313l-.016-.039a1.945 1.945 0 01-.108-.342l-.006-.035a1.951 1.951 0 01-.04-.38c0-.386.115-.764.332-1.094.009-.013.013-.028.02-.042.006-.01.01-.02.015-.032a.357.357 0 00.022-.088c.002-.015.005-.03.005-.044l.001-.006-.002-.016-.006-.054-.001-.013c-.004-.017-.012-.032-.017-.048l-.013-.033-.008-.022-.014-.019-.021-.028c-.011-.014-.02-.028-.031-.04l-.012-.009a.344.344 0 00-.042-.033c-.005-.004-.007-.009-.012-.012l-.006-.002c-.013-.008-.026-.013-.04-.02a.35.35 0 00-.087-.03l-.036-.005c-.015-.001-.03-.005-.046-.005H.789V2.174zM13.02.56H1.634C.733.559 0 1.283 0 2.173v22.5c0 .89.733 1.614 1.634 1.614h22.77c.9 0 1.634-.724 1.634-1.614v-22.5c0-.89-.733-1.614-1.634-1.614H13.019z" fill="#B5D0E5" mask="url(#b)"/></g><path d="M17.79 21.029l2.594 2.754" stroke="#C5E2E9" stroke-width="2" stroke-linecap="round" stroke-linejoin="round"/><path d="M17.759 22.578v3.46c-1.733 1.916-7.092 1.729-7.558 4.333-.055.316.094 2.07.094 2.07h19.6s.148-1.754.093-2.07c-.463-2.585-5.754-2.42-7.521-4.292v-3.5h-4.708z" fill="#76AAD2"/><path d="M17.759 22.578v3.46c-1.733 1.916-7.092 1.729-7.558 4.333-.055.316.094 2.07.094 2.07h19.6s.148-1.754.093-2.07c-.463-2.585-5.754-2.42-7.521-4.292v-3.5h-4.708z" stroke="#FEFEFE" stroke-width="2" stroke-linecap="round" stroke-linejoin="round"/><path d="M24.008 20.65l.098-1.113c.233-2.642-1.551-5.016-4.01-5.024-2.456-.008-4.257 2.354-4.041 4.997l.09 1.114c.223 2.747 2.019 4.716 3.916 4.722 1.897.006 3.706-1.95 3.947-4.696" fill="#76AAD2"/><path d="M24.008 20.65l.098-1.113c.233-2.642-1.551-5.016-4.01-5.024-2.456-.008-4.257 2.354-4.041 4.997l.09 1.114c.223 2.747 2.019 4.716 3.916 4.722 1.897.006 3.706-1.95 3.947-4.696z" stroke="#FEFEFE" stroke-width="2"/></g></svg>