<svg xmlns="http://www.w3.org/2000/svg" xmlns:xlink="http://www.w3.org/1999/xlink" width="30" height="30" viewBox="0 0 30 30"><defs><path id="a" d="M0 .142h14.156v20.187H0z"/><path id="c" d="M.127.106h14.156v20.187H.127z"/></defs><g fill="none" fill-rule="evenodd"><path fill="#FFF" d="M28.252 22.158H17.381A1.162 1.162 0 0116.223 21v-16.9c0-.638.521-1.16 1.158-1.16h10.871c.637 0 1.159.522 1.159 1.16v16.9c0 .638-.522 1.16-1.159 1.16"/><path fill="#B5D0E7" d="M17.381 3.423a.676.676 0 00-.675.675V21c0 .373.303.676.675.676h10.871a.676.676 0 00.675-.676V4.1a.676.676 0 00-.675-.676h-10.87zm10.871 19.22h-10.87a1.645 1.645 0 01-1.644-1.644V4.1c0-.907.737-1.643 1.643-1.643h10.871c.906 0 1.642.736 1.642 1.642L29.895 21c0 .906-.737 1.643-1.643 1.643z"/><path fill="#B5D0E7" d="M26.43 6.839h-7.226a.728.728 0 01-.726-.726c0-.4.327-.726.726-.726h7.225c.4 0 .726.327.726.726 0 .4-.327.726-.726.726m1.047 2.57h-9.318a.5.5 0 01-.499-.498.5.5 0 01.499-.5h9.318a.5.5 0 01.499.5.5.5 0 01-.5.498m0 1.684h-9.317a.5.5 0 01-.499-.499.5.5 0 01.499-.5h9.318a.5.5 0 01.499.5.501.501 0 01-.5.5m0 1.682h-9.317a.5.5 0 01-.499-.499.5.5 0 01.499-.499h9.318a.5.5 0 01.499.5.5.5 0 01-.5.498m0 1.684h-9.317a.5.5 0 01-.499-.499.5.5 0 01.499-.5h9.318a.5.5 0 01.499.5.5.5 0 01-.5.499"/><path fill="#FFF" d="M12.514 24.578H1.642a1.162 1.162 0 01-1.158-1.16v-16.9c0-.638.521-1.16 1.158-1.16h10.872c.636 0 1.158.522 1.158 1.16v16.9c0 .638-.522 1.16-1.158 1.16"/><g transform="translate(0 4.733)"><mask id="b" fill="#fff"><use xlink:href="#a"/></mask><path fill="#B5D0E7" d="M1.643 1.11a.676.676 0 00-.675.675v16.9c0 .373.302.676.675.676h10.87a.676.676 0 00.675-.675V1.785a.676.676 0 00-.674-.675H1.643zm10.87 19.219H1.644A1.645 1.645 0 010 18.686V1.785C0 .879.737.142 1.643.142h10.87c.906 0 1.643.737 1.643 1.643v16.9c0 .906-.737 1.644-1.642 1.644z" mask="url(#b)"/></g><path fill="#B5D0E7" d="M10.69 9.258H3.466a.728.728 0 01-.725-.726c0-.399.326-.725.725-.725h7.226c.399 0 .725.326.725.725 0 .4-.326.726-.725.726m1.046 2.57H2.419a.5.5 0 01-.499-.498.5.5 0 01.499-.5h9.318a.5.5 0 01.499.5.5.5 0 01-.5.499m0 1.683H2.42a.501.501 0 01-.499-.498.5.5 0 01.499-.5h9.318a.5.5 0 01.499.5.5.5 0 01-.5.498m0 1.684H2.42a.5.5 0 01-.499-.5.5.5 0 01.499-.499h9.318a.5.5 0 01.499.5.5.5 0 01-.5.499m0 1.683H2.42a.5.5 0 01-.499-.499.5.5 0 01.499-.499h9.318a.5.5 0 01.499.5.5.5 0 01-.5.498"/><path fill="#FFF" d="M20.383 20.187H9.512a1.163 1.163 0 01-1.159-1.16v-16.9c0-.638.522-1.16 1.159-1.16h10.87c.638 0 1.16.522 1.16 1.16v16.9c0 .638-.522 1.16-1.16 1.16"/><g transform="translate(7.742 .378)"><mask id="d" fill="#fff"><use xlink:href="#c"/></mask><path fill="#B5D0E7" d="M1.77 1.074a.676.676 0 00-.675.675v16.9c0 .373.303.676.675.676h10.87a.676.676 0 00.676-.675V1.749a.676.676 0 00-.675-.675H1.77zm10.87 19.219H1.77A1.645 1.645 0 01.127 18.65V1.749C.127.843.864.106 1.77.106h10.87c.907 0 1.643.737 1.643 1.643v16.9c0 .906-.736 1.644-1.642 1.644z" mask="url(#d)"/></g><path fill="#B5D0E7" d="M18.56 4.867h-7.226a.728.728 0 01-.725-.725c0-.4.327-.726.725-.726h7.226c.399 0 .726.327.726.726 0 .399-.327.725-.726.725m1.046 2.571h-9.318a.5.5 0 01-.499-.499.5.5 0 01.5-.5h9.317a.5.5 0 01.5.5.5.5 0 01-.5.5m0 1.682h-9.318a.5.5 0 01-.499-.499.5.5 0 01.5-.499h9.317a.5.5 0 01.5.5.5.5 0 01-.5.498m0 1.684h-9.318a.5.5 0 01-.499-.499.5.5 0 01.5-.5h9.317a.5.5 0 01.5.5.5.5 0 01-.5.499m0 1.683h-9.318a.5.5 0 01-.499-.498.5.5 0 01.5-.5h9.317a.5.5 0 01.5.5.5.5 0 01-.5.498"/><path fill="#FFF" d="M13.366 19.404l-2.011 2.879 7.101.211-.348-2.023z"/><path fill="#FFF" d="M19.124 20.895v3.765s-.066.561-.482 1.28c0 0-.58.975-.58 1.693v.985s.108.791-.507.791h-3.896s-.522.058-.522-.79v-1.157s-.022-.686-1.013-1.677c0 0-1.353-1.09-1.353-2.423V20.15s0-.924.825-.924c0 0 .768.057.768.877v1.687"/><path fill="#6BA3CF" d="M13.636 29.894a.915.915 0 01-.602-.235c-.253-.226-.38-.576-.38-1.04v-1.156c-.003 0-.077-.535-.857-1.32-.197-.165-1.51-1.32-1.51-2.782V20.15c0-.565.349-1.407 1.309-1.407.525.038 1.252.43 1.252 1.361v1.687a.483.483 0 11-.968 0v-1.687c0-.238-.11-.37-.329-.395-.244.002-.293.28-.296.446v3.207c0 1.08 1.161 2.039 1.174 2.048l.037.034c1.094 1.095 1.151 1.914 1.154 2.003v1.172c0 .192.035.277.051.307h3.884c.026-.023.036-.173.027-.241a.501.501 0 01-.005-.066v-.985c0-.827.583-1.829.65-1.94.307-.532.396-.967.413-1.07v-3.728a.484.484 0 11.968 0v3.765a.43.43 0 01-.004.056c-.007.067-.09.683-.543 1.467-.146.245-.516.974-.516 1.45v.958c.017.162.037.644-.262.987a.932.932 0 01-.728.315h-3.878l-.041.001"/><path fill="#FFF" d="M12.364 21.79v-6.664s.016-1.125.82-1.125c0 0 .963-.07.963 1.092v4.059"/><path fill="#6BA3CF" d="M12.364 22.274a.483.483 0 01-.484-.484v-6.664c.011-.778.424-1.609 1.304-1.609.024-.003.562-.03.986.364.21.195.46.564.46 1.212v4.059a.484.484 0 11-.967 0v-4.06c0-.162-.026-.38-.147-.497-.118-.115-.302-.111-.305-.111-.334 0-.363.643-.363.65v6.656a.483.483 0 01-.484.484"/><path fill="#FFF" d="M14.147 20.644v-2.057s.09-.692.886-.692c0 0 .773 0 .773.692v2.23"/><path fill="#6BA3CF" d="M15.806 21.3a.483.483 0 01-.484-.483v-2.23c0-.133-.1-.203-.295-.208-.27 0-.366.133-.397.255v2.01a.484.484 0 11-.967 0v-2.057l.003-.062c.05-.385.4-1.114 1.366-1.114.506 0 1.258.313 1.258 1.176v2.23a.483.483 0 01-.484.484"/><path fill="#FFF" d="M15.806 20.817V19.26s.09-.692.886-.692c0 0 .773 0 .773.692v1.925"/><path fill="#6BA3CF" d="M17.465 21.668a.483.483 0 01-.484-.484V19.26c0-.133-.1-.203-.295-.208-.308 0-.38.176-.397.248v1.517a.483.483 0 11-.967 0V19.26c0-.021.001-.042.004-.062.05-.385.399-1.114 1.366-1.114.505 0 1.257.313 1.257 1.176v1.924a.483.483 0 01-.484.484"/><path fill="#FFF" d="M17.465 21.184v-1.016s.09-.692.886-.692c0 0 .773 0 .773.692v.865"/><path fill="#6BA3CF" d="M17.465 21.668a.483.483 0 01-.484-.484v-1.016c0-.021.001-.042.004-.062.05-.385.399-1.113 1.366-1.113.505 0 1.257.313 1.257 1.175v.865a.484.484 0 01-.968 0v-.865c0-.133-.1-.203-.295-.208-.27 0-.366.133-.396.255v.97a.483.483 0 01-.484.483"/></g></svg>