<svg xmlns="http://www.w3.org/2000/svg" width="25" height="29" viewBox="0 0 25 29"><g fill="none" fill-rule="evenodd"><path fill="#B5D0E5" d="M4.166 27.974H20.45c.827-1.432 1.335-3.419 1.335-5.258 0-3.695-2.06-6.99-5.374-8.6a.476.476 0 01-.11-.781 6.054 6.054 0 001.983-4.471c0-3.322-2.681-6.023-5.975-6.023-3.296 0-5.976 2.701-5.976 6.023a6.05 6.05 0 001.983 4.47.478.478 0 01-.111.783c-3.315 1.61-5.374 4.905-5.374 8.599 0 1.84.507 3.826 1.335 5.258m16.55.95H3.9a.471.471 0 01-.4-.22c-.995-1.588-1.614-3.882-1.614-5.988 0-3.84 2.023-7.288 5.323-9.15a7.006 7.006 0 01-1.82-4.702c0-3.846 3.103-6.974 6.919-6.974 3.815 0 6.918 3.128 6.918 6.974a7.008 7.008 0 01-1.82 4.703c3.298 1.86 5.321 5.308 5.321 9.149 0 2.106-.618 4.4-1.613 5.987a.472.472 0 01-.4.222"/><path fill="#6BA3CF" d="M20.413 12.524a.473.473 0 01-.472-.476V8.651a7.665 7.665 0 00-2.345-5.545 7.567 7.567 0 00-5.59-2.15c-4.05.154-7.345 3.695-7.345 7.895v3.197c0 .263-.21.476-.472.476a.473.473 0 01-.471-.476V8.851C3.718 4.147 7.42.179 11.97.007a8.466 8.466 0 016.281 2.414 8.61 8.61 0 012.634 6.23v3.397c0 .263-.211.476-.472.476m-10.51 2.611c-.03.535.323 1.049.85 1.13.057.01.117.014.177.014h2.754c.635 0 1.205-.48 1.239-1.12a1.18 1.18 0 00-1.173-1.248H10.917c-.545.006-.973.483-1.004 1.032l-.01.192z"/><path fill="#6BA3CF" d="M10.93 14.386c-.287.004-.528.265-.546.583l-.01.191v.002c-.017.308.185.593.45.634.034.004.07.007.106.007h2.754c.404 0 .749-.3.767-.668a.707.707 0 00-.701-.749h-2.82zm2.754 2.368H10.93a1.65 1.65 0 01-.248-.019c-.746-.115-1.294-.829-1.25-1.625l.01-.192c.046-.823.692-1.474 1.47-1.482h2.838c.45 0 .884.188 1.194.516.314.334.473.771.45 1.233-.046.88-.797 1.569-1.71 1.569z"/><path fill="#6BA3CF" d="M9.81 15.543c-3.06 0-5.396-1.313-6.094-3.426a.476.476 0 01.298-.601.47.47 0 01.596.3c.567 1.713 2.559 2.776 5.2 2.776.26 0 .471.213.471.476s-.21.475-.472.475"/><path fill="#6BA3CF" d="M4.167 11.95v.128l-.549-.003a3.276 3.276 0 01-1.612-.429A3.044 3.044 0 01.472 8.998v-.09c0-1.098.586-2.11 1.535-2.65a3 3 0 011.623-.39l.537.069"/><path fill="#6BA3CF" d="M4.167 12.553h-.003l-.548-.002a3.75 3.75 0 01-1.841-.49A3.526 3.526 0 010 8.997v-.091c0-1.267.68-2.44 1.775-3.063a3.497 3.497 0 011.877-.45l.573.071a.474.474 0 01-.117.943L3.57 6.34a2.515 2.515 0 00-1.332.333A2.572 2.572 0 00.943 8.907v.09c0 .925.497 1.781 1.295 2.235.42.24.898.366 1.382.368h.227a.469.469 0 01.32-.125c.26 0 .471.213.471.475v.128a.477.477 0 01-.471.475m16.242-6.616l.536-.069a3.002 3.002 0 011.624.39 3.045 3.045 0 011.535 2.649v.09c0 1.098-.586 2.11-1.535 2.65a3.274 3.274 0 01-1.612.428l-.548.003v-.128"/><path fill="#6BA3CF" d="M20.41 12.553a.477.477 0 01-.472-.475v-.128c0-.262.21-.475.471-.475.124 0 .236.048.32.126l.226-.001a2.814 2.814 0 001.382-.367 2.574 2.574 0 001.295-2.235v-.091c0-.924-.496-1.78-1.294-2.234a2.53 2.53 0 00-1.371-.33l-.499.065a.475.475 0 01-.118-.943l.536-.068a3.482 3.482 0 011.915.447 3.526 3.526 0 011.775 3.063v.09c0 1.267-.68 2.44-1.775 3.063a3.747 3.747 0 01-1.843.49l-.546.003h-.003z"/></g></svg>