<svg width="29" height="36" viewBox="0 0 29 36" xmlns="http://www.w3.org/2000/svg" xmlns:xlink="http://www.w3.org/1999/xlink"><defs><path id="a" d="M0 35.326h28.477V0H0z"/></defs><g fill="none" fill-rule="evenodd"><path d="M16.189 11.862a3.081 3.081 0 10-4.005 0c-2.663.74-2.667 3.411-2.667 4.516v2.14c0 .392.317.71.71.71h7.918a.71.71 0 00.711-.71v-2.14c.009-1.105.009-3.776-2.667-4.516" fill="#6BA3CF"/><mask id="b" fill="#fff"><use xlink:href="#a"/></mask><path d="M1.35 22.447h25.79V3.937H1.35v18.51zM27.814 2.586H14.92V.676a.675.675 0 10-1.35 0v1.91H.675A.675.675 0 000 3.26v19.87c0 .372.303.675.675.675h8.938l-4.37 9.164a.676.676 0 00.608.965.677.677 0 00.612-.397l4.643-9.728h2.464v10.84a.675.675 0 001.35 0V23.81h2.459l4.636 9.744a.675.675 0 101.23-.559c-.005-.007-.008-.014-.01-.02l-4.37-9.165h8.937a.675.675 0 00.675-.675V3.269a.675.675 0 00-.663-.683z" fill="#B5D0E5" mask="url(#b)"/></g></svg>