<svg height="32" viewBox="0 0 32 32" width="32" xmlns="http://www.w3.org/2000/svg"><mask id="a" fill="#fff"><path d="M0 .201h31.518v26.384H0z" fill-rule="evenodd"/></mask><g fill="none" fill-rule="evenodd"><path d="M16.04 14.251c3.758 0 5.647 2.01 5.647 2.01s.215 1.488.077 4.484c-.208 4.526-5.722 7.244-5.723 7.244 0 0-5.514-2.718-5.723-7.244-.138-2.996.078-4.484.078-4.484s1.887-2.01 5.644-2.01" fill="#6ba3cf"/><path d="M13.191 20.393c0-1.6 1.265-2.902 2.82-2.902a2.826 2.826 0 012.823 2.823c0 1.242-1.068 2.264-1.891 2.79.32.182 1.023.373 1.698.435a4.074 4.074 0 001.587-3.225 4.221 4.221 0 00-4.216-4.217 4.221 4.221 0 00-4.217 4.217c0 1.403.585 2.651 1.69 3.607 1.035.893 2.547 1.49 4.27 1.772.373-.205 1.01-.814 1.25-1.171-1.438-.185-2.8-.535-3.712-1.015-1.394-.731-2.102-1.78-2.102-3.114" fill="#fff"/><g fill="#b5d0e6"><path d="M27.431 4.56l-.023-.001a.493.493 0 01-.47-.515l.014-.281L4.65 3.746l-.017.327a.493.493 0 01-.984-.048l.04-.796a.493.493 0 01.492-.468l23.288.017a.493.493 0 01.491.516l-.037.796a.492.492 0 01-.492.47m-2.753-2.761h-.018a.491.491 0 01-.474-.51l.01-.284L7.408.985l-.012.338a.492.492 0 01-.492.476h-.018a.493.493 0 01-.474-.51L6.44.475A.492.492 0 016.933 0l17.774.021a.49.49 0 01.491.51l-.028.793a.492.492 0 01-.492.475"/><path d="M.986 25.561l29.512.038.035-24.375-29.512-.038zm30.004 1.024l-30.498-.04A.491.491 0 010 26.052L.037.692c0-.27.221-.49.493-.49L31.027.24a.494.494 0 01.492.493l-.037 25.36c0 .272-.22.492-.492.492z" mask="url(#a)" transform="translate(0 4.923)"/><path d="M31.018 11.718H.522a.492.492 0 110-.985h30.496a.492.492 0 110 .985M3.515 8.587c0-.448.372-.81.828-.81a.82.82 0 01.827.813.82.82 0 01-.829.81.819.819 0 01-.826-.813m3.86 0c0-.448.37-.81.826-.81a.82.82 0 01.826.813.818.818 0 01-.828.81.817.817 0 01-.824-.813m3.857 0c0-.448.372-.81.828-.81a.82.82 0 01.826.813c0 .448-.372.81-.828.81a.817.817 0 01-.826-.813"/></g><path d="M3.36 17.885a.492.492 0 01-.493-.492v-3.935c0-.272.22-.492.493-.492h3.62a.492.492 0 110 .985H3.852v3.442c0 .272-.22.492-.492.492m24.969 11.24h-3.623a.492.492 0 110-.985h3.13v-3.442a.492.492 0 11.985 0v3.935c0 .272-.22.492-.492.492" fill="#b5d0e5"/></g></svg>