<svg height="26" viewBox="0 0 27 26" width="27" xmlns="http://www.w3.org/2000/svg"><mask id="a" fill="#fff"><path d="M.425.16h16.111v8.55H.425z" fill-rule="evenodd"/></mask><g fill="none" fill-rule="evenodd"><path d="M2.635 3.048l18.125.027-.023 15.535-18.124-.026z" fill="#fefefe"/><path d="M3.05 18.265l17.396.025.021-14.78L3.07 3.485zm17.83.896l-18.268-.025a.436.436 0 01-.434-.437L2.2 3.048a.435.435 0 01.436-.435l18.268.026a.435.435 0 01.435.436l-.023 15.652c0 .24-.195.434-.435.434z" fill="#b5d0e7"/><path d="M.458.871l18.125.026-.023 15.535-18.124-.026z" fill="#fefefe"/><path d="M.872 16.087l17.396.025.022-14.78L.893 1.307zm17.831.897L.434 16.958A.436.436 0 010 16.522L.023.87A.435.435 0 01.458.435l18.269.027a.435.435 0 01.435.436l-.023 15.651c0 .24-.195.435-.436.435z" fill="#b5d0e7"/><path d="M18.726 5.661H.436a.436.436 0 010-.87h18.29a.436.436 0 010 .87M2.742 3.255a.647.647 0 111.294.002.647.647 0 01-1.294-.002m2.589.003a.647.647 0 111.295.002.647.647 0 01-1.295-.002m2.59.004a.647.647 0 111.294.002.647.647 0 01-1.295-.002M3.05 13.928l4.347.007.007-6.09-4.348-.006zm4.782.879l-5.219-.008a.436.436 0 01-.435-.436l.008-6.96a.436.436 0 01.435-.435h.001l5.218.007c.241 0 .436.196.435.436l-.007 6.96a.437.437 0 01-.436.436zm8.282-.872h-6.097a.436.436 0 010-.87h6.097a.436.436 0 010 .87m0-2.613h-6.097a.436.436 0 010-.87h6.097a.436.436 0 010 .87m0-2.612h-6.097a.436.436 0 010-.871h6.097a.436.436 0 010 .87" fill="#b5d0e7"/><path d="M17.147 16.984v2.693c-1.333 1.493-5.456 1.346-5.815 3.374-.042.246.072 1.612.072 1.612h15.08s.114-1.366.071-1.612c-.356-2.013-4.427-1.884-5.786-3.342v-2.725z" fill="#6ba3cf"/><path d="M1.344 7.839h14.273c.036-.501.06-.991.045-1.106-.158-.893-1.433-1.291-2.782-1.713-1.1-.344-2.237-.7-2.893-1.402a.437.437 0 01-.117-.297V1.03H7.12v2.257c0 .108-.04.21-.111.29-.652.73-1.81 1.091-2.93 1.442-1.348.421-2.622.82-2.781 1.718-.014.11.01.599.046 1.1zm14.676.87H.941a.436.436 0 01-.434-.399C.47 7.883.394 6.86.439 6.59.691 5.166 2.282 4.669 3.82 4.188c.937-.292 1.903-.595 2.428-1.078V.595c0-.24.195-.435.436-.435h3.622c.24 0 .435.195.435.435v2.542c.53.468 1.479.764 2.399 1.052 1.538.48 3.13.978 3.38 2.398.048.273-.03 1.296-.066 1.723a.436.436 0 01-.434.4z" fill="#fefefe" mask="url(#a)" transform="translate(10.452 16.624)"/><path d="M21.943 15.718l.075-.867c.18-2.056-1.193-3.905-3.084-3.911-1.89-.006-3.275 1.832-3.11 3.89l.07.868c.171 2.139 1.553 3.671 3.012 3.676s2.852-1.518 3.037-3.656" fill="#6ba3cf"/><path d="M18.925 11.375c-.682 0-1.328.292-1.819.822-.618.668-.927 1.615-.848 2.599l.07.867c.147 1.833 1.28 3.272 2.58 3.276h.005c1.298 0 2.437-1.43 2.596-3.259l.076-.866c.085-.984-.218-1.933-.832-2.605-.489-.535-1.136-.831-1.82-.834zm-.012 8.435h-.008c-1.75-.006-3.263-1.797-3.446-4.077l-.07-.867c-.098-1.226.295-2.415 1.078-3.26.658-.71 1.53-1.102 2.458-1.102h.01c.932.003 1.806.4 2.461 1.117.778.852 1.163 2.042 1.056 3.268l-.075.867c-.198 2.275-1.718 4.054-3.464 4.054z" fill="#fefefe"/></g></svg>