<svg xmlns="http://www.w3.org/2000/svg" xmlns:xlink="http://www.w3.org/1999/xlink" width="301" height="53"><defs><path id="a" d="M0 51.855h300.686V.33H0z"/></defs><g fill="none" fill-rule="evenodd"><path fill="#44526B" d="M17.01 17.041L0 45.855l15.397-.048L36.904.596zM30.481 27.223l15.932 19.393-31.095 5.506h50.83L38.808 4.078z"/><path fill="#44526B" d="M17.01 17.041L0 45.855l15.397-.048L36.904.596zM30.481 27.223l15.932 19.393-31.095 5.506h50.83L38.808 4.078z"/><g transform="translate(0 .266)"><path fill="#44526B" d="M99.248 44.857h-2.76V28.44c0-1.242 0-2.898.139-4.692a30.325 30.325 0 0 1-.69 2.346L87.52 44.857h-1.379l-8.278-18.626c-.276-.552-.415-1.38-.69-2.484v21.11h-2.76v-24.42h3.726l7.45 16.97c.552 1.241.966 2.345 1.104 2.897h.138c.552-1.38.828-2.345 1.241-3.035l7.588-16.971h3.588v24.56z"/><mask id="b" fill="#fff"><use xlink:href="#a"/></mask><path fill="#44526B" d="M104.49 44.857h2.76V27.335h-2.76v17.522zm1.38-21.937c-.551 0-.965-.138-1.24-.552-.277-.414-.553-.828-.553-1.242 0-.414.138-.966.552-1.242.414-.413.828-.551 1.242-.551.551 0 .966.138 1.241.551.414.414.552.828.552 1.242 0 .552-.138.966-.552 1.242-.275.414-.69.552-1.241.552zm17.937 21.11c-1.38.827-2.897 1.241-4.83 1.241-2.483 0-4.552-.828-6.07-2.484-1.518-1.655-2.346-3.724-2.346-6.346 0-2.898.828-5.105 2.484-6.899 1.932-1.656 4.001-2.621 6.76-2.621 1.519 0 2.898.276 4.14.965v2.898c-1.242-.966-2.621-1.38-4.14-1.38-1.793 0-3.172.69-4.414 1.932-1.104 1.242-1.656 2.897-1.656 4.967s.552 3.587 1.656 4.83c1.103 1.24 2.483 1.792 4.277 1.792 1.518 0 2.897-.551 4.276-1.517v2.622h-.137zm12.555-13.798c-.552-.414-1.242-.552-2.207-.552-1.242 0-2.208.552-3.036 1.656-.828 1.104-1.241 2.621-1.241 4.553v8.968h-2.76V27.335h2.76v3.587c.413-1.242.965-2.207 1.793-2.898.829-.69 1.794-.965 2.76-.965.69 0 1.241.138 1.656.276v2.897h.275zm9.106-.966c-1.794 0-3.173.552-4.277 1.794-1.103 1.242-1.518 2.897-1.518 5.105 0 2.07.553 3.725 1.518 4.83 1.104 1.24 2.483 1.793 4.277 1.793s3.174-.552 4.14-1.794c.965-1.104 1.517-2.76 1.517-4.967s-.552-3.863-1.518-4.967c-.965-1.104-2.345-1.794-4.139-1.794m-.137 16.005c-2.622 0-4.692-.828-6.21-2.483-1.517-1.656-2.345-3.726-2.345-6.485 0-2.898.828-5.243 2.346-6.899 1.517-1.655 3.863-2.483 6.622-2.483 2.622 0 4.691.828 6.071 2.345 1.517 1.656 2.208 3.863 2.208 6.623 0 2.76-.828 4.967-2.346 6.623-1.656 1.793-3.725 2.76-6.346 2.76m11.175-1.105v-3.035c1.518 1.104 3.173 1.656 4.967 1.656 2.484 0 3.725-.828 3.725-2.483 0-.415-.137-.829-.276-1.243l-.828-.827c-.413-.276-.828-.414-1.242-.69-.413-.138-.965-.414-1.517-.552-.828-.276-1.38-.552-2.07-.966a6.125 6.125 0 0 1-1.517-1.103c-.414-.415-.69-.828-.828-1.38-.138-.552-.276-1.104-.276-1.794 0-.828.138-1.518.552-2.208.276-.276.69-.827 1.38-1.242.69-.413 1.38-.69 2.07-.965a7.812 7.812 0 0 1 2.482-.414c1.518 0 2.898.276 4.001.828v2.759c-1.241-.828-2.759-1.242-4.414-1.242-.552 0-.966 0-1.38.138-.414.138-.828.276-1.104.552-.276.276-.552.414-.69.828-.138.276-.276.69-.276.966 0 .414.138.828.277 1.104.137.275.413.551.69.827.275.276.689.415 1.103.69.414.138.966.414 1.517.69.829.276 1.518.552 2.07.966.552.276 1.104.69 1.518 1.104.413.414.828.828.966 1.38a3.82 3.82 0 0 1 .414 1.794c0 .827-.138 1.655-.552 2.207-.415.69-.828 1.104-1.518 1.518-.69.413-1.38.69-2.207.965-.828.138-1.656.276-2.622.276-1.518 0-3.173-.414-4.415-1.104m22.351-14.9c-1.793 0-3.173.551-4.277 1.793-1.103 1.242-1.518 2.897-1.518 5.105 0 2.07.552 3.725 1.518 4.83 1.104 1.24 2.484 1.793 4.277 1.793 1.794 0 3.173-.552 4.139-1.794.966-1.104 1.518-2.76 1.518-4.967s-.552-3.863-1.518-4.967c-.827-1.104-2.345-1.794-4.139-1.794m-.138 16.005c-2.621 0-4.691-.828-6.208-2.483-1.518-1.656-2.346-3.726-2.346-6.485 0-2.898.828-5.243 2.346-6.899 1.793-1.655 3.863-2.483 6.622-2.483 2.621 0 4.691.828 6.07 2.345 1.518 1.656 2.209 3.863 2.209 6.623 0 2.76-.828 4.967-2.346 6.623-1.655 1.793-3.725 2.76-6.347 2.76m30.354-15.454v-2.483h-4.415V22.23l-2.76.966v4.277h-7.588v-2.76c0-2.483.966-3.724 2.898-3.724.69 0 1.241.137 1.794.413V18.92a8.372 8.372 0 0 0-2.07-.276 5.526 5.526 0 0 0-4.002 1.655c-1.104 1.104-1.517 2.484-1.517 4.278v2.759h-3.036v2.346h3.036v15.176h2.759V29.818H201.76v10.348c0 3.45 1.518 5.105 4.553 5.105 1.105 0 1.932-.138 2.622-.552v-2.346c-.552.415-1.104.552-1.793.552-.966 0-1.518-.276-1.932-.69-.414-.551-.552-1.379-.552-2.482v-9.935h4.415zm24.145 5.52l-3.863-10.349c-.138-.276-.276-.828-.414-1.655-.138.69-.276 1.242-.414 1.655l-3.725 10.348h8.416zm6.622 9.52h-3.173l-2.621-6.9h-10.348l-2.484 6.9h-3.173l9.52-24.422h2.898l9.381 24.421zM254.328 28.163l-10.348 14.21h10.21v2.484h-14.211v-.827l10.347-14.212h-9.382v-2.483h13.384zM271.16 44.857h-2.76v-2.76c-1.103 2.07-2.897 3.174-5.38 3.174-4.14 0-6.21-2.484-6.21-7.45V27.334h2.76v9.934c0 3.725 1.38 5.518 4.277 5.518 1.38 0 2.484-.551 3.312-1.517.828-.966 1.38-2.346 1.38-4.001v-9.934h2.759v17.522h-.138zm13.797-14.625c-.552-.414-1.242-.552-2.07-.552-1.241 0-2.207.552-3.035 1.656-.828 1.104-1.241 2.621-1.241 4.553v8.968h-2.76V27.335h2.76v3.587c.413-1.242.965-2.207 1.793-2.898.828-.69 1.794-.965 2.76-.965.689 0 1.24.138 1.655.276v2.897h.138zm12.831 4.14c0-1.656-.413-2.898-1.104-3.726-.827-.828-1.793-1.38-3.173-1.38-1.38 0-2.483.414-3.31 1.38-.967.966-1.519 2.208-1.657 3.726h9.244zm2.897 2.345h-12.279c0 1.932.552 3.45 1.518 4.553.966 1.103 2.345 1.518 4.14 1.518 1.93 0 3.724-.69 5.38-1.932v2.622c-1.518 1.103-3.587 1.655-6.07 1.655-2.484 0-4.416-.827-5.796-2.345-1.379-1.518-2.07-3.863-2.07-6.623 0-2.76.829-4.967 2.346-6.623 1.518-1.655 3.45-2.621 5.657-2.621s4.002.69 5.243 2.208c1.242 1.517 1.931 3.587 1.931 6.07v1.518z" mask="url(#b)"/></g></g></svg>