<svg xmlns="http://www.w3.org/2000/svg" xmlns:xlink="http://www.w3.org/1999/xlink" width="301" height="48"><defs><path id="a" d="M0 .494h55.756v44.872H0z"/><path id="c" d="M0 47.823h300.787V.7H0z"/></defs><g fill="none" fill-rule="evenodd"><g transform="translate(0 .207)"><mask id="b" fill="#fff"><use xlink:href="#a"/></mask><path fill="#44526B" d="M39.886 35.672H27.778l-.017.017v-.085H15.653a6.023 6.023 0 0 1-2.486-.54l.003-.004a6.054 6.054 0 1 1 8.01-8.01l7.023-7.023c-2.353-3.078-5.739-5.126-9.472-5.859.046-.027.097-.068.136-.06 4.311-4.735 11.568-5.286 16.547-1.258h.126a12.083 12.083 0 0 1 4.346 9.506v1.208a6.054 6.054 0 1 1 0 12.108m8.945-19.097A21.829 21.829 0 0 0 42.25 5.963l-.099.099.014-.116c-9.02-7.962-22.788-7.103-30.748 1.917a21.786 21.786 0 0 0-4.692 8.712c.089-.036.186-.038.277-.063C2.756 19.355-.033 24.202 0 29.694a15.751 15.751 0 0 0 6.148 12.389l.017-.017-.017.068a15.653 15.653 0 0 0 9.506 3.163H27.71l.068.068h12.108c8.697.068 15.802-6.928 15.87-15.623a15.746 15.746 0 0 0-6.925-13.167" mask="url(#b)"/></g><path fill="#44526B" d="M181.883 28.31l9.047-3.757a3.127 3.127 0 0 0-1.411-1.548 4.6 4.6 0 0 0-2.33-.595 5.259 5.259 0 0 0-3.656 1.616 5.393 5.393 0 0 0-1.65 4.285zm5.68 10.425a9.656 9.656 0 0 1-7.16-2.908 9.844 9.844 0 0 1-2.873-7.21 9.964 9.964 0 0 1 2.772-7.278 9.115 9.115 0 0 1 6.802-2.84 8.582 8.582 0 0 1 3.401.663c.971.393 1.854.97 2.602 1.7.643.621 1.213 1.312 1.7 2.058.395.631.73 1.298 1.004 1.99l.46 1.156-13.605 5.595a5.106 5.106 0 0 0 4.897 3.063 5.808 5.808 0 0 0 4.983-2.808l3.401 2.296a11.22 11.22 0 0 1-3.265 3.095 9.263 9.263 0 0 1-5.119 1.428zm-16.613-.61h4.437V8.399h-4.437v29.726zm-12.381-3.369a4.949 4.949 0 0 0 3.843-1.7 6.294 6.294 0 0 0 1.547-4.354 6.427 6.427 0 0 0-1.547-4.438 4.935 4.935 0 0 0-3.843-1.701 5.254 5.254 0 0 0-3.98 1.7 6.203 6.203 0 0 0-1.7 4.405 6.096 6.096 0 0 0 1.7 4.355 5.268 5.268 0 0 0 3.98 1.733zm-.306 13.06a8.91 8.91 0 0 1-5.663-1.802 10.428 10.428 0 0 1-3.3-4.184l3.878-1.615a6.526 6.526 0 0 0 1.922 2.534 4.838 4.838 0 0 0 3.18 1.071 5.1 5.1 0 0 0 3.962-1.53 6.202 6.202 0 0 0 1.411-4.422v-1.462h-.153a6.477 6.477 0 0 1-5.322 2.295 9.243 9.243 0 0 1-6.803-2.959 9.773 9.773 0 0 1-2.908-7.125 9.88 9.88 0 0 1 2.908-7.176 9.22 9.22 0 0 1 6.803-2.976 7.321 7.321 0 0 1 3.129.697 6.296 6.296 0 0 1 2.21 1.615h.153v-1.615h4.218v18.113a10.558 10.558 0 0 1-2.704 7.906 9.526 9.526 0 0 1-6.921 2.635zm-25.781-14.812a5.51 5.51 0 0 0 8.044 0 6.052 6.052 0 0 0 1.7-4.387 6.07 6.07 0 0 0-1.7-4.404 5.594 5.594 0 0 0-8.078 0 6.07 6.07 0 0 0-1.7 4.404 6.05 6.05 0 0 0 1.717 4.387h.017zm11.224 2.84a10.408 10.408 0 0 1-14.404 0 9.7 9.7 0 0 1-2.942-7.227 9.713 9.713 0 0 1 2.942-7.227 10.408 10.408 0 0 1 14.404 0 9.707 9.707 0 0 1 2.942 7.227 9.694 9.694 0 0 1-2.942 7.227zm-33.365-2.84a5.51 5.51 0 0 0 8.043 0 6.052 6.052 0 0 0 1.7-4.387 6.07 6.07 0 0 0-1.7-4.404 5.594 5.594 0 0 0-8.077 0 6.07 6.07 0 0 0-1.7 4.404 6.05 6.05 0 0 0 1.717 4.387h.017zm11.223 2.84a10.408 10.408 0 0 1-14.403 0 9.7 9.7 0 0 1-2.942-7.227 9.713 9.713 0 0 1 2.942-7.227 10.425 10.425 0 0 1 14.403 0 9.707 9.707 0 0 1 2.942 7.227 9.692 9.692 0 0 1-2.959 7.227h.017zm-33.569 2.891a15.483 15.483 0 0 1-11.224-4.608 14.967 14.967 0 0 1-4.71-11.088 14.986 14.986 0 0 1 4.71-11.087 15.5 15.5 0 0 1 11.224-4.694 15.029 15.029 0 0 1 10.765 4.336l-3.027 3.078a10.903 10.903 0 0 0-7.738-3.06 10.781 10.781 0 0 0-7.992 3.4 11.106 11.106 0 0 0-3.283 8.078 11.103 11.103 0 0 0 3.283 7.976c4.379 4.365 11.436 4.447 15.917.187a9.05 9.05 0 0 0 2.33-5.289H88.046v-4.353h14.438c.143.877.199 1.765.17 2.653a13.6 13.6 0 0 1-3.724 10.035 14.47 14.47 0 0 1-10.935 4.436zm131.522 0c-7.738.134-14.12-6.03-14.253-13.768-.003-.19-.003-.379.002-.568-.179-7.736 5.947-14.154 13.684-14.334.188-.003.378-.005.567-.001a12.692 12.692 0 0 1 10.084 4.489l-2.449 2.38a9.256 9.256 0 0 0-7.618-3.485 10.394 10.394 0 0 0-7.566 3.027 10.616 10.616 0 0 0-3.08 7.924 10.61 10.61 0 0 0 3.08 7.925 10.38 10.38 0 0 0 7.566 3.027 10.812 10.812 0 0 0 8.503-3.98l2.448 2.45a13.387 13.387 0 0 1-4.71 3.59 14.419 14.419 0 0 1-6.258 1.324"/><mask id="d" fill="#fff"><use xlink:href="#c"/></mask><path fill="#44526B" mask="url(#d)" d="M233.547 38.124h3.52V10.66h-3.52zM245.434 33.668a5.937 5.937 0 0 0 8.622 0 6.796 6.796 0 0 0 1.82-4.931 6.793 6.793 0 0 0-1.82-4.932 5.937 5.937 0 0 0-8.622 0 6.8 6.8 0 0 0-1.82 4.932 6.795 6.795 0 0 0 1.837 4.913l-.017.018zm-2.62-12.074a9.844 9.844 0 0 1 13.877 0 9.952 9.952 0 0 1 2.721 7.143 9.952 9.952 0 0 1-2.72 7.142 9.847 9.847 0 0 1-13.877 0 9.945 9.945 0 0 1-2.721-7.142 9.945 9.945 0 0 1 2.72-7.143zm36.103 16.53h-3.401v-2.602h-.102a6.532 6.532 0 0 1-2.483 2.347 6.93 6.93 0 0 1-3.484.934 6.616 6.616 0 0 1-5.342-2.141 8.5 8.5 0 0 1-1.818-5.748V19.348h3.519v10.92c0 3.5 1.547 5.254 4.644 5.254a4.32 4.32 0 0 0 3.57-1.7 6.417 6.417 0 0 0 1.379-4.065V19.348h3.518v18.776zm12.533-2.602a5.61 5.61 0 0 0 4.235-1.837 6.888 6.888 0 0 0 1.7-4.949 6.883 6.883 0 0 0-1.7-4.948 5.745 5.745 0 0 0-8.503 0 6.805 6.805 0 0 0-1.7 4.931 6.803 6.803 0 0 0 1.7 4.93 5.608 5.608 0 0 0 4.268 1.873m-.578 3.214a8.267 8.267 0 0 1-6.292-2.874 10.209 10.209 0 0 1-2.636-7.126 10.209 10.209 0 0 1 2.636-7.125 8.267 8.267 0 0 1 6.292-2.874 7.972 7.972 0 0 1 3.843.918 6.508 6.508 0 0 1 2.551 2.296h.155l-.155-2.602v-8.69h3.52v27.465h-3.4v-2.602h-.154a6.508 6.508 0 0 1-2.55 2.295 7.985 7.985 0 0 1-3.81.919"/></g></svg>