<svg xmlns="http://www.w3.org/2000/svg" xmlns:xlink="http://www.w3.org/1999/xlink" width="300" height="37"><defs><path id="a" d="M0 0h13.955v28.62H0z"/><path id="c" d="M0 0h15.934v28.001H0z"/><path id="e" d="M0 0h15.035v20.614H0z"/><path id="g" d="M0 0h40.492v20.401H0z"/></defs><g fill="none" fill-rule="evenodd"><path fill="#44536B" d="M100.31 29.506a14.756 14.756 0 0 1-3.356-.38 9.73 9.73 0 0 1-2.517-.878 1.31 1.31 0 0 1-.8-1.22v-1.1c0-.454.167-.682.5-.682.138.002.276.029.405.079l.55.222c.77.34 1.575.596 2.4.76.863.178 1.741.266 2.621.263a5.865 5.865 0 0 0 3.186-.721 2.305 2.305 0 0 0 1.127-2.058 2.11 2.11 0 0 0-.59-1.52 5.624 5.624 0 0 0-2.281-1.155l-3.16-.995a6.754 6.754 0 0 1-3.394-2.203 5.162 5.162 0 0 1-1.088-3.159 4.852 4.852 0 0 1 .59-2.425 5.856 5.856 0 0 1 1.56-1.796 6.893 6.893 0 0 1 2.228-1.127 9.695 9.695 0 0 1 2.74-.38c.491 0 .981.03 1.468.091.498.062.97.145 1.416.25.445.104.86.218 1.245.34.317.1.624.226.918.38.248.134.467.317.642.538.139.214.208.466.197.72v1.037c0 .454-.166.681-.499.681a2.3 2.3 0 0 1-.838-.262 10.15 10.15 0 0 0-4.195-.84 5.727 5.727 0 0 0-2.897.617 2.094 2.094 0 0 0-1.035 1.94 2.07 2.07 0 0 0 .641 1.547 6.472 6.472 0 0 0 2.4 1.206l3.093.93a6.666 6.666 0 0 1 3.37 2.098 4.932 4.932 0 0 1 1.022 3.146 5.52 5.52 0 0 1-.578 2.53 5.77 5.77 0 0 1-1.585 1.927 7.127 7.127 0 0 1-2.426 1.219 10.796 10.796 0 0 1-3.08.38zm-28-.576a1.311 1.311 0 0 1-.839-.21 1.706 1.706 0 0 1-.459-.853L65.913 11.01a3.85 3.85 0 0 1-.196-.878.472.472 0 0 1 .537-.538h2.137c.3-.03.6.044.851.21.217.24.366.535.433.852l3.657 14.42 3.395-14.42c.053-.318.204-.612.433-.839.263-.162.57-.236.878-.21h1.757c.308-.026.615.048.879.21.225.232.373.531.419.852l3.42 14.603 3.776-14.603c.07-.319.224-.613.446-.852a1.31 1.31 0 0 1 .852-.21h2.018a.472.472 0 0 1 .538.538c.011.113.011.227 0 .34a4.78 4.78 0 0 1-.157.538l-5.243 16.858a1.707 1.707 0 0 1-.46.851 1.307 1.307 0 0 1-.838.21h-1.914a1.312 1.312 0 0 1-.879-.222 1.652 1.652 0 0 1-.419-.879l-3.395-14.039-3.356 14.026a1.652 1.652 0 0 1-.419.878 1.31 1.31 0 0 1-.878.224H72.31zm-17.5-2.36a6.992 6.992 0 0 0 2.255-.407 4.76 4.76 0 0 0 2.058-1.402c.338-.378.589-.825.734-1.311a7.383 7.383 0 0 0 .21-1.887v-.918a18.711 18.711 0 0 0-2.006-.367 16.206 16.206 0 0 0-2.045-.131 5.034 5.034 0 0 0-3.238.878 3.069 3.069 0 0 0-1.036 2.425 3.084 3.084 0 0 0 .8 2.307 3.143 3.143 0 0 0 2.268.813zm8.848-3.316c-.02.656.063 1.31.25 1.94.19.538.428 1.06.707 1.56.096.15.15.32.157.497a.839.839 0 0 1-.419.643l-1.31.917c-.17.12-.37.188-.577.197a.906.906 0 0 1-.643-.302c-.304-.3-.569-.64-.786-1.01a12.755 12.755 0 0 1-.669-1.31 8.05 8.05 0 0 1-6.41 3.016 5.951 5.951 0 0 1-4.352-1.56 5.595 5.595 0 0 1-1.6-4.195 5.61 5.61 0 0 1 1.915-4.457 7.946 7.946 0 0 1 5.348-1.691c.772.002 1.543.06 2.307.17.804.114 1.638.271 2.503.472v-1.599a4.783 4.783 0 0 0-1.035-3.487 4.995 4.995 0 0 0-3.553-1.01c-.79.005-1.578.101-2.346.289-.8.191-1.583.44-2.346.747-.247.114-.5.21-.76.289h-.342c-.305 0-.458-.227-.458-.682v-1.036a1.427 1.427 0 0 1 .157-.76c.164-.201.376-.36.616-.459.878-.42 1.796-.75 2.74-.983 1.11-.285 2.25-.426 3.395-.42a7.862 7.862 0 0 1 5.702 1.77 7.195 7.195 0 0 1 1.809 5.362v7.092z"/><path fill="#44536B" d="M100.31 29.506a14.756 14.756 0 0 1-3.356-.38 9.73 9.73 0 0 1-2.517-.878 1.31 1.31 0 0 1-.8-1.22v-1.1c0-.454.167-.682.5-.682.138.002.276.029.405.079l.55.222c.77.34 1.575.596 2.4.76.863.178 1.741.266 2.621.263a5.865 5.865 0 0 0 3.186-.721 2.305 2.305 0 0 0 1.127-2.058 2.11 2.11 0 0 0-.59-1.52 5.624 5.624 0 0 0-2.281-1.155l-3.16-.995a6.754 6.754 0 0 1-3.394-2.203 5.162 5.162 0 0 1-1.088-3.159 4.852 4.852 0 0 1 .59-2.425 5.856 5.856 0 0 1 1.56-1.796 6.893 6.893 0 0 1 2.228-1.127 9.695 9.695 0 0 1 2.74-.38c.491 0 .981.03 1.468.091.498.062.97.145 1.416.25.445.104.86.218 1.245.34.317.1.624.226.918.38.248.134.467.317.642.538.139.214.208.466.197.72v1.037c0 .454-.166.681-.499.681a2.3 2.3 0 0 1-.838-.262 10.15 10.15 0 0 0-4.195-.84 5.727 5.727 0 0 0-2.897.617 2.094 2.094 0 0 0-1.035 1.94 2.07 2.07 0 0 0 .641 1.547 6.472 6.472 0 0 0 2.4 1.206l3.093.93a6.666 6.666 0 0 1 3.37 2.098 4.932 4.932 0 0 1 1.022 3.146 5.52 5.52 0 0 1-.578 2.53 5.77 5.77 0 0 1-1.585 1.927 7.127 7.127 0 0 1-2.426 1.219 10.796 10.796 0 0 1-3.08.38zm-28-.576a1.311 1.311 0 0 1-.839-.21 1.706 1.706 0 0 1-.459-.853L65.913 11.01a3.85 3.85 0 0 1-.196-.878.472.472 0 0 1 .537-.538h2.137c.3-.03.6.044.851.21.217.24.366.535.433.852l3.657 14.42 3.395-14.42c.053-.318.204-.612.433-.839.263-.162.57-.236.878-.21h1.757c.308-.026.615.048.879.21.225.232.373.531.419.852l3.42 14.603 3.776-14.603c.07-.319.224-.613.446-.852a1.31 1.31 0 0 1 .852-.21h2.018a.472.472 0 0 1 .538.538c.011.113.011.227 0 .34a4.78 4.78 0 0 1-.157.538l-5.243 16.858a1.707 1.707 0 0 1-.46.851 1.307 1.307 0 0 1-.838.21h-1.914a1.312 1.312 0 0 1-.879-.222 1.652 1.652 0 0 1-.419-.879l-3.395-14.039-3.356 14.026a1.652 1.652 0 0 1-.419.878 1.31 1.31 0 0 1-.878.224H72.31zm-17.5-2.36a6.992 6.992 0 0 0 2.255-.407 4.76 4.76 0 0 0 2.058-1.402c.338-.378.589-.825.734-1.311a7.383 7.383 0 0 0 .21-1.887v-.918a18.711 18.711 0 0 0-2.006-.367 16.206 16.206 0 0 0-2.045-.131 5.034 5.034 0 0 0-3.238.878 3.069 3.069 0 0 0-1.036 2.425 3.084 3.084 0 0 0 .8 2.307 3.143 3.143 0 0 0 2.268.813zm8.848-3.316c-.02.656.063 1.31.25 1.94.19.538.428 1.06.707 1.56.096.15.15.32.157.497a.839.839 0 0 1-.419.643l-1.31.917c-.17.12-.37.188-.577.197a.906.906 0 0 1-.643-.302c-.304-.3-.569-.64-.786-1.01a12.755 12.755 0 0 1-.669-1.31 8.05 8.05 0 0 1-6.41 3.016 5.951 5.951 0 0 1-4.352-1.56 5.595 5.595 0 0 1-1.6-4.195 5.61 5.61 0 0 1 1.915-4.457 7.946 7.946 0 0 1 5.348-1.691c.772.002 1.543.06 2.307.17.804.114 1.638.271 2.503.472v-1.599a4.783 4.783 0 0 0-1.035-3.487 4.995 4.995 0 0 0-3.553-1.01c-.79.005-1.578.101-2.346.289-.8.191-1.583.44-2.346.747-.247.114-.5.21-.76.289h-.342c-.305 0-.458-.227-.458-.682v-1.036a1.427 1.427 0 0 1 .157-.76c.164-.201.376-.36.616-.459.878-.42 1.796-.75 2.74-.983 1.11-.285 2.25-.426 3.395-.42a7.862 7.862 0 0 1 5.702 1.77 7.195 7.195 0 0 1 1.809 5.362v7.092zm53.882 5.78c-.36 0-.54-.193-.54-.58V10.16c0-.386.18-.58.54-.58h.72c.383 0 .587.194.611.58l.143 1.548c1.08-.877 2.213-1.548 3.4-2.012 1.187-.464 2.344-.696 3.47-.696 2.254 0 3.765.993 4.533 2.978 1.126-.953 2.326-1.689 3.597-2.204 1.27-.516 2.53-.774 3.777-.774 1.654 0 2.912.503 3.776 1.508.863 1.006 1.295 2.463 1.295 4.37v13.576c0 .387-.18.58-.54.58h-.97c-.36 0-.54-.193-.54-.58V15.807c0-1.676-.276-2.894-.827-3.655-.552-.76-1.427-1.14-2.626-1.14-2.28 0-4.449.811-6.51 2.436.072.618.107 1.225.107 1.818v13.188c0 .387-.18.58-.54.58h-.97c-.36 0-.54-.193-.54-.58V15.807c0-1.676-.276-2.894-.828-3.655-.551-.76-1.427-1.14-2.625-1.14-2.23 0-4.365.786-6.402 2.359v15.083c0 .387-.18.58-.54.58h-.971zm35.143-1.586c.91 0 1.893-.199 2.949-.599 1.055-.4 2.122-.96 3.201-1.683v-4.834c-1.606-.464-3.165-.696-4.676-.696-3.357 0-5.035 1.392-5.035 4.177 0 1.187.299 2.088.899 2.708.6.618 1.486.927 2.662.927m-.288 2.012c-1.655 0-2.968-.509-3.94-1.528-.97-1.019-1.455-2.379-1.455-4.081 0-1.882.599-3.365 1.798-4.447 1.199-1.083 2.83-1.625 4.892-1.625 1.606 0 3.32.297 5.143.89v-3.248c0-1.573-.348-2.702-1.043-3.385-.696-.683-1.846-1.025-3.453-1.025-1.63 0-3.381.323-5.251.967a1.672 1.672 0 0 1-.54.117c-.24 0-.36-.169-.36-.503v-.62c0-.206.036-.367.109-.483a.798.798 0 0 1 .36-.29A15.306 15.306 0 0 1 154.66 9c2.11 0 3.675.478 4.695 1.43 1.019.955 1.529 2.399 1.529 4.333v13.691c0 .387-.18.58-.54.58h-.755c-.36 0-.552-.193-.576-.58l-.144-1.663c-2.062 1.779-4.22 2.669-6.474 2.669m14.145-.852c-.36 0-.54-.193-.54-.58V9.735c0-.386.18-.58.54-.58h.683c.384 0 .587.194.611.58l.18 2.244c.911-1.083 1.804-1.85 2.68-2.301.875-.451 1.864-.677 2.968-.677.383 0 .694.013.935.039.36.026.54.232.54.619v.966c0 .104-.037.2-.11.29a.348.348 0 0 1-.286.135 6.85 6.85 0 0 1-.54-.019c-.168-.012-.42-.019-.756-.019-1.103 0-2.08.22-2.93.658-.852.438-1.674 1.147-2.464 2.127v14.233c0 .386-.18.58-.54.58h-.971z"/><g transform="translate(177.59 .435)"><mask id="b" fill="#fff"><use xlink:href="#a"/></mask><path fill="#44536B" d="M.54 28.62c-.36 0-.54-.193-.54-.58V.582C0 .194.18 0 .54 0h.97c.36 0 .54.194.54.581V17.83l8.633-8.276c.239-.258.54-.387.899-.387h1.295c.287 0 .431.116.431.347 0 .13-.131.323-.395.58l-8.705 8.278 9.425 9.36c.215.206.322.373.322.502 0 .258-.143.387-.43.387h-1.548c-.287 0-.552-.117-.79-.349L2.05 19.106v8.935c0 .386-.18.58-.54.58H.54z" mask="url(#b)"/></g><path fill="#44536B" d="M206.02 17.895c.024-.36.037-.785.037-1.276 0-1.856-.42-3.261-1.26-4.216-.84-.954-2.074-1.43-3.705-1.43-3.789 0-5.79 2.308-6.006 6.922h10.935zm-4.424 11.719c-2.854 0-5-.87-6.438-2.61-1.44-1.74-2.158-4.325-2.158-7.755 0-3.249.724-5.769 2.175-7.561C196.626 9.896 198.66 9 201.273 9c2.18 0 3.854.671 5.017 2.011 1.163 1.341 1.745 3.262 1.745 5.763 0 1.031-.049 1.805-.145 2.32-.071.387-.275.58-.611.58h-12.193c.024 2.708.575 4.706 1.654 5.995 1.079 1.29 2.746 1.934 5 1.934 1.726 0 3.37-.322 4.928-.967.31-.128.527-.194.647-.194.095 0 .18.046.252.136.072.09.108.2.108.329v.58c0 .412-.132.684-.396.813-1.726.875-3.621 1.314-5.683 1.314zm16.137-.282c-1.415 0-2.494-.406-3.237-1.218-.743-.812-1.115-1.992-1.115-3.539V11.58h-2.842c-.359 0-.539-.193-.539-.58v-.387c0-.206.036-.36.108-.464.072-.103.215-.167.431-.193l2.914-.271.252-5.105c.024-.206.078-.354.161-.445.084-.09.21-.135.378-.135h.648c.36 0 .54.193.54.58v5.066h5.215c.36 0 .539.194.539.58V11c0 .387-.18.58-.54.58h-5.215v12.879c0 1.057.21 1.805.63 2.243.418.44 1.12.658 2.104.658.695 0 1.306-.065 1.834-.193.264-.052.473-.097.63-.135a1.62 1.62 0 0 1 .342-.059c.263 0 .395.155.395.464v.58c0 .439-.132.71-.395.813-.936.334-2.015.502-3.238.502"/><g transform="translate(223.89 8.68)"><mask id="d" fill="#fff"><use xlink:href="#c"/></mask><path fill="#44536B" d="M7.877 18.448c1.966 0 3.447-.69 4.442-2.07.995-1.378 1.492-3.435 1.492-6.168 0-5.465-1.93-8.199-5.79-8.199-1.99 0-3.98.825-5.971 2.475v11.333c.983.902 1.942 1.565 2.877 1.991a7.047 7.047 0 0 0 2.95.638zM.54 28.001c-.36 0-.54-.193-.54-.58V1.16C0 .774.18.58.54.58h.683c.383 0 .587.194.611.58l.144 1.586C3.08 1.792 4.154 1.096 5.197.658A8.235 8.235 0 0 1 8.417 0c2.325 0 4.16.896 5.502 2.688 1.344 1.792 2.015 4.248 2.015 7.368 0 3.171-.708 5.698-2.123 7.58-1.415 1.882-3.321 2.824-5.718 2.824-2.207 0-4.22-.877-6.043-2.63v9.59c0 .388-.18.581-.54.581H.54z" mask="url(#d)"/></g><path fill="#44536B" d="M247.057 28.737c-.96 0-1.709-.304-2.248-.91-.54-.606-.809-1.45-.809-2.533V.58c0-.387.18-.58.54-.58h.97c.36 0 .54.193.54.58v24.676c0 .567.101.966.306 1.198.203.233.569.348 1.096.348.145 0 .306-.013.486-.038s.33-.04.45-.04c.335 0 .503.181.503.542v.735c0 .31-.156.503-.468.58-.383.104-.839.156-1.366.156m10.627-1.289c.91 0 1.893-.199 2.948-.599 1.056-.4 2.123-.96 3.202-1.683v-4.834c-1.607-.464-3.166-.696-4.676-.696-3.358 0-5.036 1.392-5.036 4.177 0 1.187.3 2.088.9 2.708.599.618 1.486.927 2.662.927m-.288 2.012c-1.655 0-2.968-.509-3.94-1.528-.97-1.019-1.456-2.379-1.456-4.081 0-1.882.6-3.365 1.799-4.447 1.198-1.083 2.83-1.625 4.892-1.625 1.606 0 3.32.297 5.143.89v-3.248c0-1.573-.348-2.702-1.043-3.385-.696-.683-1.847-1.025-3.453-1.025-1.631 0-3.382.323-5.252.967a1.666 1.666 0 0 1-.54.117c-.239 0-.359-.169-.359-.503v-.62c0-.206.036-.367.108-.483a.798.798 0 0 1 .36-.29A15.303 15.303 0 0 1 259.66 9c2.11 0 3.675.478 4.695 1.43 1.018.955 1.528 2.399 1.528 4.333v13.691c0 .387-.18.58-.54.58h-.755c-.36 0-.552-.193-.576-.58l-.143-1.663c-2.063 1.779-4.22 2.669-6.474 2.669m21.093-.155c-2.783 0-4.892-.857-6.33-2.573-1.44-1.714-2.159-4.234-2.159-7.56 0-3.3.731-5.821 2.194-7.561C273.656 9.87 275.779 9 278.56 9c1.318 0 2.578.245 3.777.735.288.103.432.374.432.812v.542c0 .335-.144.503-.432.503a1.18 1.18 0 0 1-.27-.04 39.04 39.04 0 0 0-.521-.115 11.058 11.058 0 0 0-2.878-.387c-2.279 0-3.926.625-4.946 1.875-1.019 1.251-1.528 3.256-1.528 6.015v.464c0 2.682.516 4.66 1.547 5.936 1.03 1.277 2.648 1.916 4.856 1.916.935 0 1.978-.168 3.129-.503.264-.078.45-.13.557-.156a1.22 1.22 0 0 1 .27-.038c.287 0 .431.168.431.503v.541c0 .413-.132.684-.395.812a9.9 9.9 0 0 1-4.1.89"/><g transform="translate(284.144 8.68)"><mask id="f" fill="#fff"><use xlink:href="#e"/></mask><path fill="#44536B" d="M13.02 8.895c.024-.36.037-.785.037-1.276 0-1.856-.42-3.261-1.26-4.216-.84-.954-2.074-1.43-3.705-1.43-3.789 0-5.79 2.308-6.006 6.922h10.935zM8.597 20.614c-2.854 0-5-.87-6.438-2.61C.718 16.264 0 13.679 0 10.249 0 7 .724 4.48 2.175 2.688 3.626.896 5.66 0 8.273 0c2.18 0 3.854.671 5.017 2.011 1.163 1.341 1.745 3.262 1.745 5.763 0 1.031-.049 1.805-.145 2.32-.071.387-.275.58-.611.58H2.086c.024 2.708.575 4.706 1.654 5.995 1.079 1.29 2.746 1.934 5 1.934 1.726 0 3.37-.322 4.928-.967.31-.128.527-.194.647-.194.095 0 .18.046.252.136.072.09.108.2.108.329v.58c0 .412-.132.684-.396.813-1.726.875-3.621 1.314-5.683 1.314z" mask="url(#f)"/></g><path fill="#44536B" d="M11.211 32.606a2.604 2.604 0 0 1-2.606 2.604 2.605 2.605 0 1 1 2.605-2.604m15.001 0a2.604 2.604 0 0 1-2.606 2.604 2.605 2.605 0 1 1 2.605-2.604"/><g transform="translate(0 8.68)"><mask id="h" fill="#fff"><use xlink:href="#g"/></mask><path fill="#44536B" mask="url(#h)" d="M40.492 0H28.843l-4.63 15.835H7.309L4.423 6.533H0l4.573 13.868h22.376l5.232-16.897h8.311z"/></g><path fill="#44536B" d="M16 11.696l5.034 2.341L26.066 6H16z"/><path fill="#44536B" d="M26.034 11.696L21 14.037V8.243L26.034 6zM21.034 3L16 5.536l5.032 2.243 5.034-2.243zM5 11.696l5.034 2.341L15.066 6H5z"/><path fill="#44536B" d="M15.034 11.696L10 14.037V8.243L15.034 6zM10.034 3L5 5.536l5.032 2.243 5.034-2.243zM11 20.9l5.034 2.34L21.066 15H11z"/><path fill="#44536B" d="M16.032 13l5.034 2.341-5.033 2.446L11 15.341z"/><path fill="#44536B" d="M21.034 20.9L16 23.24v-5.793L21.034 15z"/></g></svg>