
<svg width="146px" height="39px" viewBox="0 0 146 39" version="1.1" xmlns="http://www.w3.org/2000/svg" xmlns:xlink="http://www.w3.org/1999/xlink">
    <!-- Generator: Sketch 44.1 (41455) - http://www.bohemiancoding.com/sketch -->
    <desc>Created with Sketch.</desc>
    <defs></defs>
    <g id="25-News-" stroke="none" stroke-width="1" fill="none" fill-rule="evenodd">
        <g id="25.0-Analyst-Reports" transform="translate(-814.000000, -354.000000)">
            <g id="---Quote-" transform="translate(734.000000, 269.000000)">
                <g id="IDC-logo" transform="translate(80.000000, 85.000000)">
                    <path d="M38.9427773,4.51656279 C35.8744097,2.1801907 32.0507881,0.793763372 27.9035989,0.793763372 C23.7619341,0.793763372 19.9398908,2.17860349 16.8731016,4.51180116 L38.9427773,4.51656279 Z" id="Fill-1" fill="#F7FAFC"></path>
                    <path d="M45.9090292,15.8281273 C45.6935805,14.6345459 45.2555805,13.4806448 44.8231049,12.3791215 L10.8856022,12.3648366 C10.4491805,13.4719151 10.1161427,14.6313715 9.89832649,15.8305081 L45.9090292,15.8281273 Z" id="Fill-3" fill="#F7FAFC"></path>
                    <path d="M15.6038486,32.7704756 C18.8537297,35.738557 23.168227,37.547182 27.9033622,37.547182 C32.6755892,37.547182 37.0208649,35.7925221 40.279427,32.7831733 L15.6038486,32.7704756 Z" id="Fill-5" fill="#F7FAFC"></path>
                    <path d="M41.1484822,31.8447358 C42.2154659,30.720198 43.4686984,29.2742503 44.3533795,27.5441922 L11.28872,27.5338753 C12.4204173,29.1187038 13.4518876,30.5710003 14.663293,31.8471166 L41.1484822,31.8447358 Z" id="Fill-7" fill="#F7FAFC"></path>
                    <path d="M44.8439395,26.1930009 C45.3940043,24.9533904 45.7578205,24.1550241 46.0245665,22.7892305 L9.96098811,22.7765328 C10.1961665,23.960591 10.5441989,25.1033817 10.9932476,26.1930009 L44.8439395,26.1930009 Z" id="Fill-9" fill="#F7FAFC"></path>
                    <path d="M46.1152443,20.990843 C46.1752227,20.3829419 46.2060011,19.7671047 46.2060011,19.1433314 C46.2060011,18.6084419 46.1831146,18.078314 46.1373416,17.5545349 L9.65864973,17.5569157 C9.68390378,18.590189 9.60340649,18.461625 9.60340649,19.1433314 C9.60340649,19.6766337 9.62629297,20.5797558 9.65707135,20.9924302 L46.1152443,20.990843 Z" id="Fill-11" fill="#F7FAFC"></path>
                    <path d="M43.7530432,9.80593779 C43.1161676,8.72742907 42.3995838,7.69494942 41.5646216,6.77198721 L14.3565351,6.7704 C13.5286757,7.68780698 12.6826649,8.74330116 12.0489459,9.81625465 L43.7530432,9.80593779 Z" id="Fill-13" fill="#F7FAFC"></path>
                    <path d="M33.6589189,2.16828663 L55.2132541,2.16828663 L33.6589189,2.16828663 Z" id="Fill-15" fill="#F7FAFC"></path>
                    <path d="M33.6589189,2.16828663 L55.2132541,2.16828663 L33.6589189,2.16828663 Z" id="Stroke-17" stroke="#F7FAFC" stroke-width="1.019"></path>
                    <path d="M40.9827524,7.08720698 L54.8772173,7.08720698 L40.9827524,7.08720698 Z" id="Fill-19" fill="#F7FAFC"></path>
                    <path d="M40.9827524,7.08720698 L54.8772173,7.08720698 L40.9827524,7.08720698 Z" id="Stroke-21" stroke="#F7FAFC" stroke-width="1.019"></path>
                    <path d="M44.2339751,12.6831515 L54.9046022,12.6831515 L44.2339751,12.6831515 Z" id="Fill-23" fill="#F7FAFC"></path>
                    <path d="M44.2339751,12.6831515 L54.9046022,12.6831515 L44.2339751,12.6831515 Z" id="Stroke-25" stroke="#F7FAFC" stroke-width="1.019"></path>
                    <path d="M45.9009795,17.9113395 L55.0658335,17.9113395 L45.9009795,17.9113395 Z" id="Fill-27" fill="#F7FAFC"></path>
                    <path d="M45.9009795,17.9113395 L55.0658335,17.9113395 L45.9009795,17.9113395 Z" id="Stroke-29" stroke="#F7FAFC" stroke-width="1.019"></path>
                    <path d="M45.5518422,23.1286552 L55.0386854,23.1286552 L45.5518422,23.1286552 Z" id="Fill-31" fill="#F7FAFC"></path>
                    <path d="M45.5518422,23.1286552 L55.0386854,23.1286552 L45.5518422,23.1286552 Z" id="Stroke-33" stroke="#F7FAFC" stroke-width="1.019"></path>
                    <path d="M43.5091049,27.8449683 L55.0659914,27.8449683 L43.5091049,27.8449683 Z" id="Fill-35" fill="#F7FAFC"></path>
                    <path d="M43.5091049,27.8449683 L55.0659914,27.8449683 L43.5091049,27.8449683 Z" id="Stroke-37" stroke="#F7FAFC" stroke-width="1.019"></path>
                    <path d="M39.2575849,33.1014087 L55.2654984,33.1014087 L39.2575849,33.1014087 Z" id="Fill-39" fill="#F7FAFC"></path>
                    <path d="M39.2575849,33.1014087 L55.2654984,33.1014087 L39.2575849,33.1014087 Z" id="Stroke-41" stroke="#F7FAFC" stroke-width="1.019"></path>
                    <path d="M15.2393222,31.5382456 L7.89189189e-05,31.5382456 L15.2393222,31.5382456 Z" id="Fill-43" fill="#F7FAFC"></path>
                    <path d="M15.2393222,31.5382456 L7.89189189e-05,31.5382456 L15.2393222,31.5382456 Z" id="Stroke-45" stroke="#F7FAFC" stroke-width="1.019"></path>
                    <path d="M10.261827,20.7025265 L0.129427027,20.7025265 L10.261827,20.7025265 Z" id="Fill-47" fill="#F7FAFC"></path>
                    <path d="M10.261827,20.7025265 L0.129427027,20.7025265 L10.261827,20.7025265 Z" id="Stroke-49" stroke="#F7FAFC" stroke-width="1.019"></path>
                    <path d="M10.3551092,15.497591 L0.330038919,15.497591 L10.3551092,15.497591 Z" id="Fill-51" fill="#F7FAFC"></path>
                    <path d="M10.3551092,15.497591 L0.330038919,15.497591 L10.3551092,15.497591 Z" id="Stroke-53" stroke="#F7FAFC" stroke-width="1.019"></path>
                    <path d="M12.7538497,9.4723064 L0.335957838,9.4723064 L12.7538497,9.4723064 Z" id="Fill-55" fill="#F7FAFC"></path>
                    <path d="M12.7538497,9.4723064 L0.335957838,9.4723064 L12.7538497,9.4723064 Z" id="Stroke-57" stroke="#F7FAFC" stroke-width="1.019"></path>
                    <path d="M18.2619957,4.22705581 L0.416060541,4.22705581 L18.2619957,4.22705581 Z" id="Fill-59" fill="#F7FAFC"></path>
                    <path d="M18.2619957,4.22705581 L0.416060541,4.22705581 L18.2619957,4.22705581 Z" id="Stroke-61" stroke="#F7FAFC" stroke-width="1.019"></path>
                    <path d="M64.9305405,5.78331453 C64.8792432,2.03432616 60.7944,3.06125058 60.7944,1.93195116 C60.7944,1.46927965 60.8962054,1.36690465 61.3042162,1.36690465 C63.1943243,1.36690465 65.0323459,1.57244826 66.9216649,1.57244826 C68.5047784,1.57244826 70.0878919,1.36690465 71.6717946,1.36690465 C72.4886054,1.36690465 72.6417081,1.46927965 72.6417081,1.88116047 C72.6417081,3.11283488 68.9648757,1.93195116 68.9648757,5.78331453 L68.9648757,33.359489 C68.9648757,36.8497622 73.5098162,35.6704657 73.5098162,37.2100587 C73.5098162,37.5695616 73.3567135,37.7243145 72.4886054,37.7243145 C71.3135027,37.7243145 69.1179784,37.5187709 66.9216649,37.5187709 C63.8067351,37.5187709 62.734227,37.7243145 62.0200108,37.7243145 C61.0998162,37.7243145 60.9467135,37.466393 60.9467135,36.9521372 C60.9467135,35.4649221 64.9305405,37.1600616 64.9305405,32.0762302 L64.9305405,5.78331453 Z" id="Fill-63" fill="#F7FAFC"></path>
                    <path d="M83.5072649,30.2784776 C83.5072649,31.100652 83.3549514,33.5647945 83.8142595,34.027466 C85.4983892,35.7218119 89.3796216,36.3376491 91.6769514,36.3376491 C98.9280216,36.3376491 105.821589,32.4354951 105.821589,20.5726927 C105.821589,9.17256192 98.2643135,2.7023032 88.5612324,2.6507189 C83.7116649,2.6507189 83.5072649,3.47209971 83.5072649,5.88624506 L83.5072649,30.2784776 Z M79.4713514,6.86158517 C79.4713514,1.62379448 75.2839135,3.2665561 75.2839135,1.88092238 C75.2839135,1.52141948 75.6942919,1.36666657 76.0004973,1.36666657 C77.5836108,1.36666657 79.0641297,1.57221017 80.5967351,1.57221017 C83.9657838,1.57221017 87.2851135,1.36666657 91.6769514,1.36666657 C100.715535,1.36666657 109.601016,8.2480125 109.601016,17.7482538 C109.601016,29.5594718 104.034865,37.7240765 89.8894378,37.7240765 C87.2851135,37.7240765 84.6815784,37.5193265 82.0772541,37.5193265 C81.6163676,37.5193265 76.7162919,37.7240765 76.358,37.7240765 C75.9492,37.7240765 75.8473946,37.5193265 75.8473946,37.2098206 C75.8473946,36.0305241 79.4713514,37.3137828 79.4713514,32.4354951 L79.4713514,6.86158517 Z" id="Fill-65" fill="#F7FAFC"></path>
                    <g id="Group-69" transform="translate(110.486486, 0.783129)" fill="#F7FAFC">
                        <path d="M18.8561762,0.121500872 C28.4590303,0.121500872 31.1122843,4.07603285 32.5935924,4.07603285 C33.0023924,4.07603285 33.3078086,3.56257064 33.8192032,3.56257064 C34.3811059,3.56257064 34.3811059,4.38395145 34.535787,7.72185262 C34.6360141,10.4439166 35.0953222,12.1382625 34.2280032,12.1382625 C33.6148032,12.1382625 33.2573005,10.8026259 33.0529005,10.4439166 C29.8874627,4.94899797 26.2627168,1.6103032 19.6753546,1.6103032 C9.71736541,1.6103032 4.91672757,8.28689913 4.91672757,17.8387247 C4.91672757,26.7739195 10.0235708,35.7091142 19.8276681,35.7091142 C27.8458303,35.7091142 32.8485005,30.5736985 33.6148032,28.2119311 C33.7166086,27.8524282 34.0236032,27.5445096 34.3305978,27.5445096 C34.5855059,27.5445096 34.8404141,27.8524282 34.7891168,28.1087625 L33.6148032,33.2441782 C33.5658735,33.4497218 29.9379708,37.299498 18.4489546,37.299498 C7.98114919,37.299498 0.473592432,30.0602363 0.473592432,19.4306956 C0.473592432,8.80036134 8.08295459,0.121500872 18.8561762,0.121500872" id="Fill-67"></path>
                    </g>
                    <path d="M11.5438649,25.8903994 L0.0666864865,25.8903994 L11.5438649,25.8903994 Z" id="Fill-70" fill="#F7FAFC"></path>
                    <path d="M11.5438649,25.8903994 L0.0666864865,25.8903994 L11.5438649,25.8903994 Z" id="Stroke-72" stroke="#F7FAFC" stroke-width="1.019"></path>
                </g>
            </g>
        </g>
    </g>
</svg>