<svg xmlns="http://www.w3.org/2000/svg" width="40" height="40" viewBox="0 0 40 40"><g fill="none" fill-rule="evenodd"><path fill="#2F53E0" d="M34.222 38.578c-9.481 1.896-18.963 1.896-28.444 0-1.944-.408-3.948-2.412-4.356-4.356-1.896-9.481-1.896-18.963 0-28.444.408-1.944 2.412-3.948 4.356-4.356 9.481-1.896 18.963-1.896 28.444 0 1.944.408 3.948 2.412 4.356 4.356 1.896 9.481 1.896 18.963 0 28.444-.408 1.944-2.412 3.948-4.356 4.356"/><path fill="#FFF" d="M16.33 25.144c1.62 0 2.58-.576 3.444-1.5l-1.176-1.188c-.66.6-1.248.984-2.208.984-1.44 0-2.436-1.2-2.436-2.64v-.024c0-1.44 1.02-2.616 2.436-2.616.84 0 1.5.36 2.148.948l1.176-1.356c-.78-.768-1.728-1.296-3.312-1.296-2.58 0-4.38 1.956-4.38 4.344v.024c0 2.412 1.836 4.32 4.308 4.32zM19.976 25l3.6-8.46h1.704l3.6 8.46h-1.932l-.768-1.884h-3.552L21.86 25h-1.884zm3.312-3.516h2.232l-1.116-2.724-1.116 2.724z"/></g></svg>