<svg xmlns="http://www.w3.org/2000/svg" width="40" height="40" viewBox="0 0 40 40"><g fill="none" fill-rule="evenodd"><path fill="#2FABE1" d="M34.222 38.578c-9.481 1.896-18.963 1.896-28.444 0-1.944-.408-3.948-2.412-4.356-4.356-1.896-9.481-1.896-18.963 0-28.444.408-1.944 2.412-3.948 4.356-4.356 9.481-1.896 18.963-1.896 28.444 0 1.944.408 3.948 2.412 4.356 4.356 1.896 9.481 1.896 18.963 0 28.444-.408 1.944-2.412 3.948-4.356 4.356"/><path fill="#FFF" d="M15.862 25.144c1.62 0 2.58-.576 3.444-1.5l-1.176-1.188c-.66.6-1.248.984-2.208.984-1.44 0-2.436-1.2-2.436-2.64v-.024c0-1.44 1.02-2.616 2.436-2.616.84 0 1.5.36 2.148.948l1.176-1.356c-.78-.768-1.728-1.296-3.312-1.296-2.58 0-4.38 1.956-4.38 4.344v.024c0 2.412 1.836 4.32 4.308 4.32zM20.228 25h1.812v-5.448l2.34 3.552h.048l2.364-3.588V25h1.836v-8.4h-1.992l-2.208 3.552L22.22 16.6h-1.992V25z"/></g></svg>