<svg width="62" height="46" xmlns="http://www.w3.org/2000/svg"><g fill="none" fill-rule="evenodd"><path fill="#FEFEFE" d="M51.15 31.023l-40.3-3V1h40.3"/><path stroke="#B5D0E7" stroke-width="2" stroke-linecap="round" stroke-linejoin="round" d="M51 31l-40-2.998V1h40z"/><path fill="#FEFEFE" d="M6.14 37.876h49.72V7.853H6.14"/><path stroke="#B5D0E7" stroke-width="2" stroke-linecap="round" stroke-linejoin="round" d="M6 38h50V8H6z"/><path fill="#FEFEFE" d="M1 45.584h60V14.56l-60 .002"/><path stroke="#B5D0E7" stroke-width="2" stroke-linecap="round" stroke-linejoin="round" d="M1 45h60V14H1z"/><path d="M45.26 19.702h6.16c0 3.07 2.41 5.58 5.44 5.73v9.29c-3.03.15-5.44 2.66-5.44 5.72 0 .21.01.41.03.61h-6.19" fill="#FEFEFE"/><path d="M17 40h-6.476c0-3.047-2.468-5.526-5.524-5.526v-8.94c3.056 0 5.524-2.477 5.524-5.534H17M45 40h6.476c0-3.047 2.468-5.526 5.524-5.526v-8.94c-3.056 0-5.524-2.477-5.524-5.534H45" stroke="#B5D0E7" stroke-width="2" stroke-linejoin="round"/><path d="M21 30c0-5.523 4.477-10 10-10s10 4.477 10 10-4.477 10-10 10-10-4.477-10-10" fill="#EE3E44"/><path d="M21 30c0-5.523 4.477-10 10-10s10 4.477 10 10-4.477 10-10 10-10-4.477-10-10z" stroke="#EE3E44" stroke-width="2" stroke-linecap="round" stroke-linejoin="round"/><path stroke="#FEFEFE" stroke-width="1.5" stroke-linejoin="round" d="M36 33v3H26v-3"/><path d="M31 22.864v9.465" stroke="#FEFEFE" stroke-width="1.5" stroke-linecap="round" stroke-linejoin="round"/><path d="M46 30c0-1.656 1.343-3 3-3s3 1.344 3 3-1.343 3-3 3-3-1.344-3-3z" stroke="#B5D0E7" stroke-width="2" stroke-linecap="round" stroke-linejoin="round"/><path d="M15.75 27.946h-4.9" fill="#FEFEFE"/><path d="M17 28h-6M17 33h-6" stroke="#B5D0E7" stroke-width="2" stroke-linejoin="round"/></g></svg>