<svg width="62" height="62" xmlns="http://www.w3.org/2000/svg"><g fill="none" fill-rule="evenodd"><path d="M50.92 47.157l-1.372 7.425c-4.387 3.458-9.765 5.715-15.638 6.278-.442-.938-1.042-1.785-1.77-2.505-1.005-.99-2.25-1.733-3.645-2.138-1.065-.307-2.002-.885-2.745-1.657-.735-.773-1.282-1.733-1.552-2.805-.848-3.413.577-6.983 3.547-8.866l.27-.166c1.148-.735 1.2-2.4.098-3.195l-6.233-4.5c-3.465-2.498-6.518-5.53-9.045-8.97l-1.463-1.996c-1.8-2.453-2.767-5.415-2.767-8.453v-4.56C14.095 4.887 22.098 1 31 1c5.378 0 10.426 1.418 14.798 3.9-1.402 2.018-3.285 3.676-5.49 4.816-.982.51-1.777 1.14-2.04 2.092-.18.66-.262 1.335-.262 2.003 0 1.62.51 3.22 1.492 4.554.323.435.585.907.788 1.402l.817 1.988c.083.195.113.39.113.585 0 .62-.375 1.214-.998 1.454-.6.232-1.29.067-1.717-.413l-1.657-1.86c-.585-.644-1.26-1.2-2.01-1.634l-2.078-1.222c-1.515-.893-3.277-1.283-5.025-1.11l-2.175.202c-.99.098-1.935.435-2.745.96-.817.525-1.5 1.245-1.995 2.108-.937 1.635-1.072 3.607-.36 5.355l.39.95c.3.744 1.215 1.006 1.868.55l1.552-1.08c.608-.43 1.403-.474 2.055-.114l1.89 1.043c.548.3.915.84.998 1.454l.405 3.173c.27 2.092 1.267 4.027 2.812 5.467l.698.645c.922.854 2.25 1.102 3.413.637l.87-.353c1.86-.742 3.967-.555 5.67.503l5.872 3.645c1.515.937 2.295 2.707 1.973 4.455z" stroke="#B5D0E7" stroke-width="2" stroke-linecap="round" stroke-linejoin="round"/><path d="M1 31C1 14.433 14.43 1 31 1s30 13.432 30 30c0 16.57-13.43 30.002-30 30.002s-30-13.432-30-30z" stroke="#B5D0E7" stroke-width="2" stroke-linecap="round" stroke-linejoin="round"/><path d="M32.616 30h26.767C60.828 30 62 31.17 62 32.616V59.38c0 1.445-1.172 2.616-2.617 2.616H32.616c-1.445 0-2.616-1.17-2.616-2.616V32.616C30 31.17 31.17 30 32.616 30" fill="#EE3E44"/><path d="M46.035 38.005c-6.886 0-9.76 7.232-9.88 7.54-.117.303-.132.636-.044.95.752 2.652 3.792 7.67 9.925 7.67 6.133 0 9.173-5.018 9.924-7.67.087-.314.072-.647-.045-.95-.12-.308-2.994-7.54-9.88-7.54m0 1.5c5.937 0 8.48 6.58 8.48 6.58s-1.86 6.58-8.48 6.58-8.48-6.58-8.48-6.58 2.543-6.58 8.48-6.58" fill="#FEFEFE"/><path d="M42.355 46.086c0-2.032 1.648-3.68 3.68-3.68s3.68 1.648 3.68 3.68-1.648 3.68-3.68 3.68-3.68-1.648-3.68-3.68z" stroke="#FEFEFE" stroke-width="1.5" stroke-linecap="round" stroke-linejoin="round"/></g></svg>