<svg width="61" height="54" xmlns="http://www.w3.org/2000/svg"><g fill="none" fill-rule="evenodd"><path d="M2.333 1h52.333C55.403 1 56 1.597 56 2.333v12.46c0 .735-.597 1.332-1.334 1.332H2.333c-.736 0-1.333-.597-1.333-1.333V2.332C1 1.598 1.597 1 2.333 1z" stroke="#B5D0E7" stroke-width="2" stroke-linecap="round" stroke-linejoin="round"/><path d="M2.333 16h52.333c.737 0 1.334.592 1.334 1.322v12.356c0 .73-.597 1.322-1.334 1.322H2.333C1.597 31 1 30.408 1 29.678V17.322C1 16.592 1.597 16 2.333 16zM2.333 31h52.333c.737 0 1.334.592 1.334 1.322v12.356c0 .73-.597 1.322-1.334 1.322H2.333C1.597 46 1 45.408 1 44.678V32.322C1 31.592 1.597 31 2.333 31zM2.333 1h52.333C55.403 1 56 1.592 56 2.322v12.356c0 .73-.597 1.322-1.334 1.322H2.333C1.597 16 1 15.408 1 14.678V2.322C1 1.592 1.597 1 2.333 1z" stroke="#B5D0E7" stroke-width="2" stroke-linecap="round" stroke-linejoin="round"/><path d="M5.965 8.563c0-1.224.992-2.216 2.215-2.216 1.224 0 2.216.992 2.216 2.215 0 1.224-.992 2.216-2.216 2.216-1.223 0-2.215-.992-2.215-2.216z" stroke="#ED2E26" stroke-width="2" stroke-linecap="round"/><path d="M15.132 8.563c0-1.224.992-2.216 2.215-2.216 1.224 0 2.216.992 2.216 2.215 0 1.224-.992 2.216-2.216 2.216-1.223 0-2.215-.992-2.215-2.216" fill="#ED2E26"/><path d="M5.965 38.813c0-1.224.992-2.216 2.215-2.216 1.224 0 2.216.992 2.216 2.215 0 1.224-.992 2.216-2.216 2.216-1.223 0-2.215-.992-2.215-2.215z" stroke="#ED2E26" stroke-width="2" stroke-linecap="round"/><path d="M15.132 38.813c0-1.224.992-2.216 2.215-2.216 1.224 0 2.216.992 2.216 2.215 0 1.224-.992 2.216-2.216 2.216-1.223 0-2.215-.992-2.215-2.215" fill="#ED2E26"/><path d="M19.563 23.688c0 1.223-.992 2.215-2.215 2.215-1.224 0-2.216-.992-2.216-2.215 0-1.223.992-2.215 2.216-2.215 1.223 0 2.215.992 2.215 2.215z" stroke="#ED2E26" stroke-width="2" stroke-linecap="round"/><path d="M10.396 23.688c0 1.223-.992 2.215-2.215 2.215-1.223 0-2.215-.992-2.215-2.215 0-1.223.992-2.215 2.216-2.215 1.224 0 2.216.992 2.216 2.215" fill="#ED2E26"/><path d="M34.764 36.597l4.583 4.924" stroke="#C5E2E9" stroke-width="2" stroke-linecap="round" stroke-linejoin="round"/><path d="M25.597 36.597l4.583 4.924" stroke="#B5D0E7" stroke-width="2" stroke-linecap="round" stroke-linejoin="round"/><path d="M43.93 36.597l4.584 4.924" stroke="#C5E2E9" stroke-width="2" stroke-linecap="round" stroke-linejoin="round"/><path d="M34.764 21.226l4.583 4.924M25.597 21.226l4.583 4.924M43.93 21.226l4.584 4.924M34.764 6.1l4.583 4.925M25.597 6.1l4.583 4.925M43.93 6.1l4.584 4.925" stroke="#B5D0E7" stroke-width="2" stroke-linecap="round" stroke-linejoin="round"/><path d="M46.02 24c8.285.012 14.992 6.738 14.98 15.02-.012 8.285-6.738 14.992-15.02 14.98-8.285-.012-14.992-6.738-14.98-15.02.012-8.285 6.738-14.992 15.02-14.98" fill="#ED2E26"/><g stroke="#FEFEFE" stroke-width="1.5" stroke-linecap="round" stroke-linejoin="round"><path d="M52.364 32.636c3.515 3.515 3.515 9.213 0 12.728-3.515 3.515-9.213 3.515-12.728 0-3.515-3.515-3.515-9.213 0-12.728 3.515-3.515 9.213-3.515 12.728 0zM52.364 32.636L39.636 45.364"/></g></g></svg>