<svg width="62" height="56" xmlns="http://www.w3.org/2000/svg"><g fill="none" fill-rule="evenodd"><path d="M2.455 18h57.09c.804 0 1.455.67 1.455 1.5v14c0 .83-.65 1.5-1.454 1.5H2.456C1.65 35 1 34.33 1 33.5v-14c0-.83.652-1.5 1.455-1.5zM2.455 35h57.09c.804 0 1.455.67 1.455 1.5v14c0 .83-.65 1.5-1.454 1.5H2.456C1.65 52 1 51.33 1 50.5v-14c0-.83.652-1.5 1.455-1.5zM2.455 1h57.09C60.35 1 61 1.67 61 2.5v14c0 .83-.65 1.5-1.454 1.5H2.456C1.65 18 1 17.33 1 16.5v-14C1 1.67 1.652 1 2.455 1z" stroke="#B5D0E7" stroke-width="2" stroke-linecap="round" stroke-linejoin="round"/><path d="M6 9.417C6 8.082 7.082 7 8.417 7c1.334 0 2.416 1.082 2.416 2.417 0 1.335-1.082 2.417-2.416 2.417C7.082 11.834 6 10.752 6 9.417z" stroke="#EE3E4A" stroke-width="2" stroke-linecap="round"/><path d="M16 9.417C16 8.082 17.082 7 18.417 7c1.334 0 2.416 1.082 2.416 2.417 0 1.335-1.082 2.417-2.416 2.417-1.335 0-2.417-1.082-2.417-2.417" fill="#EE3E4A"/><path d="M6 43.417C6 42.082 7.082 41 8.417 41c1.334 0 2.416 1.082 2.416 2.417 0 1.335-1.082 2.417-2.416 2.417C7.082 45.834 6 44.752 6 43.417z" stroke="#EE3E4A" stroke-width="2" stroke-linecap="round"/><path d="M16 43.417C16 42.082 17.082 41 18.417 41c1.334 0 2.416 1.082 2.416 2.417 0 1.335-1.082 2.417-2.416 2.417-1.335 0-2.417-1.082-2.417-2.417" fill="#EE3E4A"/><path d="M20.833 26.417c0 1.335-1.082 2.417-2.417 2.417-1.334 0-2.416-1.082-2.416-2.417C16 25.082 17.082 24 18.416 24c1.335 0 2.417 1.082 2.417 2.417z" stroke="#EE3E4A" stroke-width="2" stroke-linecap="round"/><path d="M10.833 26.417c0 1.335-1.082 2.417-2.417 2.417C7.082 28.834 6 27.752 6 26.417 6 25.082 7.082 24 8.416 24c1.335 0 2.417 1.082 2.417 2.417" fill="#EE3E4A"/><path d="M37.833 39.833l5 5.37" stroke="#C5E2E9" stroke-width="2" stroke-linecap="round" stroke-linejoin="round"/><path d="M28 41l5 5.37" stroke="#B5D0E7" stroke-width="2" stroke-linecap="round" stroke-linejoin="round"/><path d="M42.833 39.833l5 5.37M47.833 39.833l5 5.37" stroke="#C5E2E9" stroke-width="2" stroke-linecap="round" stroke-linejoin="round"/><path d="M38 24l5 5.37M28 24l5 5.37M48 24l5 5.37M38 7l5 5.37M28 7l5 5.37M48 7l5 5.37" stroke="#B5D0E7" stroke-width="2" stroke-linecap="round" stroke-linejoin="round"/><path d="M44.832 31.298c6.512 0 9.786 3.484 9.786 3.484s.375 2.58.136 7.772c-.36 7.845-9.92 12.556-9.92 12.556s-9.56-4.71-9.92-12.556c-.24-5.193.135-7.772.135-7.772s3.27-3.484 9.782-3.484" fill="#EE3C39"/><path d="M39.945 41.61c0-2.774 2.193-5.03 4.888-5.03 2.697 0 4.892 2.194 4.892 4.892 0 2.153-1.85 3.925-3.278 4.835.554.316 1.775.648 2.945.755 1.708-1.322 2.75-3.365 2.75-5.59 0-4.03-3.28-7.308-7.31-7.308-4.03 0-7.307 3.278-7.307 7.308 0 2.434 1.013 4.596 2.93 6.252 1.793 1.55 4.415 2.583 7.4 3.073.647-.358 1.753-1.413 2.167-2.03-2.493-.32-4.852-.93-6.434-1.76-2.417-1.267-3.643-3.083-3.643-5.397" fill="#FEFEFE"/></g></svg>