<svg xmlns="http://www.w3.org/2000/svg" width="274" height="286" viewBox="0 0 274 286"><g fill="none" fill-rule="evenodd"><path stroke="#ED2E26" stroke-width="3.2" d="M.052 210h41.196c17.68 0 17.735 20.8 33.2 20.8h26.818c12.624 0 12.108-14.4 27.237-14.4h31.455c21.391 0 24.273-30.4 45.594-30.4h68.396"/><path fill="#ED2E26" fill-opacity=".1" d="M.052 210h41.196c17.68 0 17.735 20.8 33.2 20.8h26.818c12.624 0 12.108-14.4 27.237-14.4h31.455c21.391 0 24.273-30.4 45.594-30.4h68.396v73.6H.052V210z"/><path fill="#E5E7EB" d="M.052 277.2h16.017v8H.052zm257.879 0h16.017v8h-16.017zM.05 259.6h273.897v1.6H.052zm241.862-131.4h32.035v8h-32.035zm-20.822 0h12.814l-6.407 11.2"/><path fill="#30405C" d="M.532 12L5.46.72h1.824L12.212 12h-2.08L8.996 9.296H3.7L2.548 12H.532zM4.42 7.552h3.856L6.34 3.072l-1.92 4.48zm14.56 4.608c2.352 0 4-1.248 4-3.344v-.032c0-1.856-1.232-2.704-3.6-3.28-2.144-.512-2.656-.896-2.656-1.76v-.032c0-.736.672-1.328 1.824-1.328 1.024 0 2.032.4 3.04 1.152l1.056-1.488C21.508 1.136 20.212.64 18.58.64c-2.224 0-3.824 1.328-3.824 3.248v.032c0 2.064 1.344 2.768 3.728 3.344 2.08.48 2.528.912 2.528 1.712v.032c0 .848-.768 1.408-1.984 1.408-1.392 0-2.464-.528-3.536-1.456l-1.184 1.408a6.9 6.9 0 004.672 1.792zm11.2 0c2.352 0 4-1.248 4-3.344v-.032c0-1.856-1.232-2.704-3.6-3.28-2.144-.512-2.656-.896-2.656-1.76v-.032c0-.736.672-1.328 1.824-1.328 1.024 0 2.032.4 3.04 1.152l1.056-1.488C32.708 1.136 31.412.64 29.78.64c-2.224 0-3.824 1.328-3.824 3.248v.032c0 2.064 1.344 2.768 3.728 3.344 2.08.48 2.528.912 2.528 1.712v.032c0 .848-.768 1.408-1.984 1.408-1.392 0-2.464-.528-3.536-1.456l-1.184 1.408a6.9 6.9 0 004.672 1.792zm7.44-.16h8.384v-1.76h-6.416V7.232h5.616v-1.76h-5.616V2.56h6.336V.8H37.62V12zm14.592 0h1.984V2.624h3.552V.8H48.66v1.824h3.552V12zm12.416.16c2.352 0 4-1.248 4-3.344v-.032c0-1.856-1.232-2.704-3.6-3.28-2.144-.512-2.656-.896-2.656-1.76v-.032c0-.736.672-1.328 1.824-1.328 1.024 0 2.032.4 3.04 1.152l1.056-1.488C67.156 1.136 65.86.64 64.228.64c-2.224 0-3.824 1.328-3.824 3.248v.032c0 2.064 1.344 2.768 3.728 3.344 2.08.48 2.528.912 2.528 1.712v.032c0 .848-.768 1.408-1.984 1.408-1.392 0-2.464-.528-3.536-1.456l-1.184 1.408a6.9 6.9 0 004.672 1.792zm16.4-.08h1.696l2.752-8.048 2.752 8.048h1.696L93.828.8h-2.064l-2.672 8.304L86.34.768h-1.664l-2.752 8.336L79.252.8h-2.128l3.904 11.28zM97.076 12h1.968V.8h-1.968V12zm8.832 0h1.984V2.624h3.552V.8h-9.088v1.824h3.552V12zm8.736 0h1.968V7.28h5.344V12h1.968V.8h-1.968v4.656h-5.344V.8h-1.968V12zm19.2 0V.8h4.416c2.608 0 4.256 1.488 4.256 3.744v.032c0 2.512-2.016 3.824-4.48 3.824h-2.224V12h-1.968zm1.968-5.376h2.288c1.488 0 2.416-.832 2.416-2v-.032c0-1.312-.944-2-2.416-2h-2.288v4.032zm14.432 5.552c2.928 0 4.816-1.68 4.816-5.024V.8h-1.968v6.448c0 2.064-1.072 3.12-2.816 3.12-1.76 0-2.832-1.12-2.832-3.2V.8h-1.968v6.448c0 3.248 1.856 4.928 4.768 4.928zm8.64-.176V.8h5.024c1.28 0 2.288.352 2.928.992.496.496.752 1.104.752 1.856v.032c0 1.344-.768 2.064-1.6 2.496 1.312.448 2.224 1.2 2.224 2.72v.032c0 2-1.648 3.072-4.144 3.072h-5.184zm1.936-6.48h2.688c1.264 0 2.112-.496 2.112-1.52v-.032c0-.88-.704-1.424-1.968-1.424h-2.832V5.52zm0 4.736h3.264c1.344 0 2.16-.528 2.16-1.536v-.032c0-.944-.752-1.504-2.304-1.504h-3.12v3.072zM171.556 12h7.856v-1.792h-5.888V.8h-1.968V12zm11.136 0h1.968V.8h-1.968V12zm11.28.192c2.096 0 3.376-.768 4.544-1.984l-1.264-1.28c-.96.896-1.84 1.456-3.216 1.456-2.144 0-3.696-1.792-3.696-3.984v-.032c0-2.192 1.552-3.952 3.696-3.952 1.28 0 2.24.56 3.136 1.392l1.264-1.456c-1.072-1.024-2.32-1.744-4.384-1.744-3.392 0-5.776 2.608-5.776 5.792v.032c0 3.216 2.432 5.76 5.696 5.76zM1.492 36h8.384v-1.76H3.46v-3.008h5.616v-1.76H3.46V26.56h6.336V24.8H1.492V36zm10.992 0h2.256l2.96-4.24L20.644 36h2.32L18.9 30.272l3.904-5.472h-2.256l-2.8 4.016-2.784-4.016h-2.32l3.92 5.504L12.484 36zm13.632 0V24.8h4.416c2.608 0 4.256 1.488 4.256 3.744v.032c0 2.512-2.016 3.824-4.48 3.824h-2.224V36h-1.968zm1.968-5.376h2.288c1.488 0 2.416-.832 2.416-2v-.032c0-1.312-.944-2-2.416-2h-2.288v4.032zM37.924 36h7.856v-1.792h-5.888V24.8h-1.968V36zm15.728.192c-3.44 0-5.84-2.608-5.84-5.76V30.4c0-3.152 2.432-5.792 5.872-5.792s5.84 2.608 5.84 5.76v.032c0 3.152-2.432 5.792-5.872 5.792zm.032-1.808c2.224 0 3.776-1.776 3.776-3.952V30.4c0-2.176-1.584-3.984-3.808-3.984-2.224 0-3.776 1.776-3.776 3.952v.032c0 2.176 1.584 3.984 3.808 3.984zM63.14 36h1.968V24.8H63.14V36zm8.832 0h1.984v-9.376h3.552V24.8H68.42v1.824h3.552V36zm13.696 0l4.928-11.28h1.824L97.348 36h-2.08l-1.136-2.704h-5.296L87.684 36h-2.016zm3.888-4.448h3.856l-1.936-4.48-1.92 4.48zm12.928 4.528h1.728l4.656-11.28h-2.128l-3.36 8.608-3.376-8.608h-2.176l4.656 11.28zm6.864-.08l4.928-11.28h1.824L121.028 36h-2.08l-1.136-2.704h-5.296L111.364 36h-2.016zm3.888-4.448h3.856l-1.936-4.48-1.92 4.48zM124.18 36h1.968V24.8h-1.968V36zm6.08 0h7.856v-1.792h-5.888V24.8h-1.968V36zm10.064 0l4.928-11.28h1.824L152.004 36h-2.08l-1.136-2.704h-5.296L142.34 36h-2.016zm3.888-4.448h3.856l-1.936-4.48-1.92 4.48zM155.044 36V24.8h5.024c1.28 0 2.288.352 2.928.992.496.496.752 1.104.752 1.856v.032c0 1.344-.768 2.064-1.6 2.496 1.312.448 2.224 1.2 2.224 2.72v.032c0 2-1.648 3.072-4.144 3.072h-5.184zm1.936-6.48h2.688c1.264 0 2.112-.496 2.112-1.52v-.032c0-.88-.704-1.424-1.968-1.424h-2.832v2.976zm0 4.736h3.264c1.344 0 2.16-.528 2.16-1.536v-.032c0-.944-.752-1.504-2.304-1.504h-3.12v3.072zM167.716 36h7.856v-1.792h-5.888V24.8h-1.968V36zm11.024 0h8.384v-1.76h-6.416v-3.008h5.616v-1.76h-5.616V26.56h6.336V24.8h-8.304V36z"/><path fill="#2E8BE0" d="M14.372 136.2h4.08V79.8h-3.2l-12.8 4.72 1.12 3.28 10.8-3.68v52.08zm15.68 8.56c4.8-1.84 6.64-4.48 6.64-9.44v-5.92h-5.28v6.8h2.16c.24 3.04-1.04 4.8-4.48 6.56l.96 2zm37.92-7.6c-14.24 0-23.12-13.36-23.12-28.8v-.16c0-15.44 9.04-28.96 23.28-28.96 14.24 0 23.12 13.36 23.12 28.8v.16c0 15.44-9.04 28.96-23.28 28.96zm.16-3.76c11.6 0 18.8-12.08 18.8-25.04v-.16c0-13.04-7.36-25.2-18.96-25.2-11.6 0-18.8 12-18.8 25.04v.16c0 12.96 7.36 25.2 18.96 25.2zm36.4 2.8h4.56l25.52-52.96V80.2h-37.12v4h32.48l-25.44 52zm60.8.96c-14.24 0-23.12-13.36-23.12-28.8v-.16c0-15.44 9.04-28.96 23.28-28.96 14.24 0 23.12 13.36 23.12 28.8v.16c0 15.44-9.04 28.96-23.28 28.96zm.16-3.76c11.6 0 18.8-12.08 18.8-25.04v-.16c0-13.04-7.36-25.2-18.96-25.2-11.6 0-18.8 12-18.8 25.04v.16c0 12.96 7.36 25.2 18.96 25.2z"/></g></svg>