<svg width="62" height="49" xmlns="http://www.w3.org/2000/svg"><g fill="none" fill-rule="evenodd"><path d="M1 28h60v14.59c0 .78-.65 1.41-1.455 1.41H2.455C1.65 44 1 43.37 1 42.59V28zM61 28H1L11 1h40z" stroke="#B5D0E7" stroke-width="2" stroke-linecap="round" stroke-linejoin="round"/><path d="M7 36c0-1.105.896-2 2-2s2 .895 2 2-.896 2-2 2-2-.895-2-2M14 36c0-1.105.896-2 2-2s2 .895 2 2-.896 2-2 2-2-.895-2-2" fill="#EE3E4A"/><path d="M32.833 33.236l5 5.37" stroke="#C5E2E9" stroke-width="2" stroke-linecap="round" stroke-linejoin="round"/><path d="M40.833 33.236l5 5.37" stroke="#B5D0E7" stroke-width="2" stroke-linecap="round" stroke-linejoin="round"/><path d="M27.833 33.236l5 5.37" stroke="#C5E2E9" stroke-width="2" stroke-linecap="round" stroke-linejoin="round"/><path d="M49.833 33.236l5 5.37" stroke="#B5D0E7" stroke-width="2" stroke-linecap="round" stroke-linejoin="round"/><path d="M30.998 24.747c6.512 0 9.787 3.484 9.787 3.484s.375 2.58.136 7.773C40.56 43.848 31 48.56 31 48.56s-9.56-4.712-9.92-12.557c-.24-5.193.136-7.772.136-7.772s3.27-3.483 9.782-3.483" fill="#EE3C39"/><path d="M26.112 35.059c0-2.776 2.193-5.032 4.888-5.032 2.697 0 4.892 2.195 4.892 4.892 0 2.154-1.85 3.925-3.278 4.835.554.316 1.775.648 2.945.755 1.707-1.322 2.748-3.364 2.748-5.59 0-4.03-3.278-7.308-7.308-7.308-4.03 0-7.308 3.28-7.308 7.308 0 2.434 1.013 4.596 2.93 6.252 1.793 1.55 4.415 2.584 7.4 3.074.647-.358 1.753-1.413 2.167-2.032-2.494-.32-4.853-.928-6.435-1.758-2.417-1.268-3.643-3.084-3.643-5.398" fill="#FEFEFE"/></g></svg>