<svg width="55" height="60" xmlns="http://www.w3.org/2000/svg"><g fill="none" fill-rule="evenodd"><path d="M21.5 50.825C8.8 50.825 1 47.74 1 45.53V34.007h41v11.52c0 2.212-7.8 5.297-20.5 5.297" fill="#FEFEFE"/><path d="M43 33.008H0v12.52c0 3.478 9.626 6.297 21.5 6.297S43 49.005 43 45.53V33.007zm-2 2l.002 10.502c-.278 1.188-6.696 4.315-19.502 4.315S2.276 46.698 2 45.53V35.007h39z" fill="#B5D0E7"/><path d="M21.5 37.468C8.8 37.468 1 34.383 1 32.172v-11.52h41v11.52c0 2.212-7.8 5.297-20.5 5.297" fill="#FEFEFE"/><path d="M43 19.652H0v12.52c0 3.478 9.626 6.297 21.5 6.297S43 35.65 43 32.172v-12.52zm-2 2l.002 10.502c-.278 1.188-6.696 4.315-19.502 4.315S2.276 33.34 2 32.172v-10.52h39z" fill="#B5D0E7"/><path d="M21.5 24.113C8.8 24.113 1 21.028 1 18.817V7.297h41v11.52c0 2.21-7.8 5.296-20.5 5.296" fill="#FEFEFE"/><path d="M43 6.296H0v12.52c0 3.478 9.626 6.297 21.5 6.297S43 22.293 43 18.817V6.297zm-2 2l.002 10.502c-.278 1.188-6.696 4.315-19.502 4.315S2.276 19.986 2 18.817V8.297h39z" fill="#B5D0E7"/><path d="M21.5 11.591C8.8 11.594 1 8.508 1 6.296 1 4.085 8.8 1 21.5 1S42 4.085 42 6.295c0 2.212-7.8 5.296-20.5 5.296" fill="#FFF"/><path d="M21.5 0C9.626 0 0 2.82 0 6.296c0 3.477 9.626 6.296 21.5 6.296S43 9.772 43 6.296C43 2.82 33.374 0 21.5 0m0 2c12.806 0 19.224 3.127 19.502 4.277-.278 1.188-6.696 4.315-19.502 4.315S2.276 7.465 1.998 6.315C2.276 5.127 8.694 2 21.5 2" fill="#B5D0E7"/><path d="M15.28 18.167c1.97.175 4.057.268 6.22.268 3.335 0 6.496-.223 9.314-.622M15.28 30.688c1.97.175 4.057.268 6.22.268 3.335 0 6.496-.223 9.314-.622M15.28 44.044c1.97.175 4.057.268 6.22.268 3.335 0 6.496-.223 9.314-.622" stroke="#ED2E26" stroke-width="2" stroke-linecap="round" stroke-linejoin="round" stroke-dasharray="0,6.225"/><path d="M27.49 30l25.064.036c1.352.002 2.448 1.1 2.446 2.454l-.036 25.063c-.002 1.353-1.1 2.45-2.453 2.447l-25.063-.036c-1.353-.002-2.45-1.1-2.447-2.454l.036-25.063c.002-1.353 1.1-2.45 2.454-2.447" fill="#ED2E26"/><path stroke="#FEFEFE" stroke-width="2" stroke-linecap="round" stroke-linejoin="round" d="M33.015 44L47 44.02 46.985 54 33 53.98zM36 43.35l.007-4.632c.003-2.057 1.795-3.72 4.002-3.718 2.207.003 3.993 1.673 3.99 3.728L43.992 44"/></g></svg>