<svg xmlns="http://www.w3.org/2000/svg" width="40" height="40" viewBox="0 0 40 40"><g fill="none" fill-rule="evenodd"><path fill="#2F70E1" d="M34.222 38.578c-9.481 1.896-18.963 1.896-28.444 0-1.944-.408-3.948-2.412-4.356-4.356-1.896-9.481-1.896-18.963 0-28.444.408-1.944 2.412-3.948 4.356-4.356 9.481-1.896 18.963-1.896 28.444 0 1.944.408 3.948 2.412 4.356 4.356 1.896 9.481 1.896 18.963 0 28.444-.408 1.944-2.412 3.948-4.356 4.356"/><path fill="#FFF" d="M15.622 25h1.848v-6.696h2.556V16.6h-6.96v1.704h2.556V25zm5.266 0v-8.4h3.432c2.004 0 3.216 1.188 3.216 2.904v.024c0 1.944-1.512 2.952-3.396 2.952h-1.404V25h-1.848zm1.848-4.164H24.2c.924 0 1.464-.552 1.464-1.272v-.024c0-.828-.576-1.272-1.5-1.272h-1.428v2.568z"/></g></svg>