<svg width="52" height="58" xmlns="http://www.w3.org/2000/svg"><g fill="none" fill-rule="evenodd"><path d="M40.395 11.528C46.81 16.054 51 23.523 51 31.97c0 13.807-11.193 25-25 25s-25-11.193-25-25 11.193-25 25-25h3.206M29.985 6.97l-5.97 5.97M29.985 6.97L24.015 1" stroke="#B5D0E7" stroke-width="2" stroke-linecap="round" stroke-linejoin="round"/><path d="M26.021 16.936h.002c8.303.012 15.025 6.753 15.013 15.056-.012 8.303-6.753 15.025-15.056 15.013h-.002c-8.303-.012-15.025-6.753-15.013-15.056.012-8.304 6.753-15.026 15.056-15.014" fill="#EE3E44"/><path stroke="#FEFEFE" stroke-width="2" stroke-linecap="round" stroke-linejoin="round" d="M19.65 31.38l4.93 4.932 9.047-9.047"/></g></svg>