<svg width="54" height="62" xmlns="http://www.w3.org/2000/svg"><g fill="none" fill-rule="evenodd"><path stroke="#B5D0E7" stroke-width="2" stroke-linecap="round" stroke-linejoin="round" d="M52.962 46V16L26.982 1 1 16v30l25.98 15z"/><path stroke="#B5D0E7" stroke-width="2" stroke-linecap="round" stroke-linejoin="round" d="M1 16l25.98 14.617L52.963 16M27 30.617V61"/><path d="M26.52 15.717c8.142 0 12.236 4.357 12.236 4.357s.468 3.224.17 9.716c-.452 9.807-12.403 15.698-12.404 15.698 0 0-11.95-5.89-12.402-15.698-.3-6.492.17-9.716.17-9.716s4.09-4.357 12.23-4.357" fill="#ED2E26"/><path d="M20.41 28.61c0-3.468 2.743-6.29 6.112-6.29 3.373 0 6.116 2.744 6.116 6.116 0 2.693-2.314 4.908-4.098 6.046.693.395 2.22.81 3.68.944 2.137-1.653 3.44-4.207 3.44-6.99 0-5.037-4.1-9.136-9.138-9.136-5.037 0-9.136 4.1-9.136 9.136 0 3.044 1.267 5.747 3.664 7.818 2.24 1.937 5.52 3.23 9.25 3.84.81-.446 2.192-1.765 2.71-2.537-3.117-.4-6.066-1.16-8.044-2.2-3.022-1.584-4.555-3.855-4.555-6.748" fill="#FEFEFE"/></g></svg>