<svg xmlns="http://www.w3.org/2000/svg" width="40" height="40" viewBox="0 0 40 40"><g fill="none" fill-rule="evenodd"><path fill="#2F8EE1" d="M34.222 38.578c-9.481 1.896-18.963 1.896-28.444 0-1.944-.408-3.948-2.412-4.356-4.356-1.896-9.481-1.896-18.963 0-28.444.408-1.944 2.412-3.948 4.356-4.356 9.481-1.896 18.963-1.896 28.444 0 1.944.408 3.948 2.412 4.356 4.356 1.896 9.481 1.896 18.963 0 28.444-.408 1.944-2.412 3.948-4.356 4.356"/><path fill="#FFF" d="M14.53 25.06h1.632l3.396-8.46h-1.992l-2.196 5.916-2.196-5.916h-2.04l3.396 8.46zM20.3 25h1.812v-5.448l2.34 3.552h.048l2.364-3.588V25H28.7v-8.4h-1.992L24.5 20.152 22.292 16.6H20.3V25z"/></g></svg>