<svg xmlns="http://www.w3.org/2000/svg" width="40" height="40" viewBox="0 0 40 40"><g fill="none" fill-rule="evenodd"><path fill="#2FABE0" d="M34.222 38.578c-9.481 1.896-18.963 1.896-28.444 0-1.944-.408-3.948-2.412-4.356-4.356-1.896-9.481-1.896-18.963 0-28.444.408-1.944 2.412-3.948 4.356-4.356 9.481-1.896 18.963-1.896 28.444 0 1.944.408 3.948 2.412 4.356 4.356 1.896 9.481 1.896 18.963 0 28.444-.408 1.944-2.412 3.948-4.356 4.356"/><path fill="#FFF" d="M9.19 25.06L6.324 16.6h1.98l1.74 5.688 1.884-5.712h1.584l1.884 5.712 1.74-5.688h1.932l-2.868 8.46H14.59l-1.896-5.496-1.896 5.496H9.19zm8.89-.06l3.6-8.46h1.705l3.6 8.46h-1.932l-.768-1.884h-3.552L19.965 25H18.08zm3.313-3.516h2.232l-1.116-2.724-1.116 2.724zM27.727 25h1.848v-3.252h4.008v-1.68h-4.008V18.28h4.548V16.6h-6.396V25z"/></g></svg>