<svg xmlns="http://www.w3.org/2000/svg" width="40" height="40" viewBox="0 0 40 40"><g fill="none" fill-rule="evenodd"><path fill="#2F8EE1" d="M34.222 38.578c-9.481 1.896-18.963 1.896-28.444 0-1.944-.408-3.948-2.412-4.356-4.356-1.896-9.481-1.896-18.963 0-28.444.408-1.944 2.412-3.948 4.356-4.356 9.481-1.896 18.963-1.896 28.444 0 1.944.408 3.948 2.412 4.356 4.356 1.896 9.481 1.896 18.963 0 28.444-.408 1.944-2.412 3.948-4.356 4.356"/><path fill="#FFF" d="M9.347 25.06L6.479 16.6h1.98l1.74 5.688 1.884-5.712h1.584l1.884 5.712 1.74-5.688h1.932l-2.868 8.46h-1.608l-1.896-5.496-1.896 5.496H9.347zm8.89-.06l3.6-8.46h1.704l3.6 8.46h-1.932l-.768-1.884h-3.552L20.12 25h-1.884zm3.312-3.516h2.232l-1.116-2.724-1.116 2.724zm9.202 3.636c1.812 0 3.084-.936 3.084-2.604v-.024c0-1.464-.96-2.076-2.664-2.52-1.452-.372-1.812-.552-1.812-1.104v-.024c0-.408.372-.732 1.08-.732.708 0 1.44.312 2.184.828l.96-1.392c-.852-.684-1.896-1.068-3.12-1.068-1.716 0-2.94 1.008-2.94 2.532v.024c0 1.668 1.092 2.136 2.784 2.568 1.404.36 1.692.6 1.692 1.068v.024c0 .492-.456.792-1.212.792-.96 0-1.752-.396-2.508-1.02l-1.092 1.308a5.345 5.345 0 003.564 1.344z"/></g></svg>