<svg xmlns="http://www.w3.org/2000/svg" viewBox="0 0 246.183 293.111"><path d="M123.073 0c80.158 0 120.462 42.888 120.462 42.888s4.608 31.746 1.667 95.667c-4.444 96.56-122.1 154.55-122.111 154.556S5.425 235.115.981 138.555C-1.96 74.634 2.648 42.888 2.648 42.888S42.916 0 123.073 0zM62.924 126.929c0-34.142 26.992-61.918 60.167-61.918a60.285 60.285 0 0160.217 60.217c0 26.507-22.786 48.316-40.347 59.522 6.812 3.887 21.848 7.97 36.245 9.289a86.906 86.906 0 0033.842-68.811 89.957 89.957 0 10-179.913 0c0 29.957 12.474 56.571 36.073 76.964 22.062 19.066 54.336 31.791 91.081 37.817 7.96-4.4 21.576-17.387 26.681-24.99-30.689-3.948-59.732-11.431-79.2-21.645-29.758-15.609-44.846-37.964-44.846-66.445z"/></svg>