<svg xmlns="http://www.w3.org/2000/svg" viewBox="0 0 268 317"><path fill="#F2F2F3" d="M20.093 103.5c-5.454 0-10.082 1.905-13.886 5.716C2.403 113.026.5 117.598.5 122.935v81.936c0 5.47 1.902 10.102 5.707 13.913 3.804 3.81 8.432 5.716 13.886 5.716 5.45 0 10.05-1.905 13.795-5.716 3.738-3.81 5.612-8.442 5.612-13.913v-81.936c0-5.337-1.902-9.91-5.707-13.72-3.804-3.81-8.372-5.715-13.7-5.715zm156.692-73.986l13.51-24.84c.887-1.645.571-2.906-.95-3.792-1.65-.765-2.918-.378-3.804 1.135l-13.699 25.038c-12.054-5.312-24.802-7.972-38.246-7.972-13.447 0-26.197 2.66-38.247 7.972L81.65 2.017C80.76.504 79.492.12 77.845.882c-1.524.89-1.839 2.147-.949 3.792l13.51 24.84c-13.699 6.963-24.61 16.66-32.727 29.114C49.56 71.088 45.5 84.704 45.5 99.5h176c0-14.793-4.061-28.41-12.179-40.872-8.118-12.453-18.966-22.15-32.536-29.114zm-78.107 36.13c-1.461 1.46-3.206 2.186-5.234 2.186-2.033 0-3.742-.726-5.137-2.186-1.394-1.453-2.092-3.185-2.092-5.213 0-2.022.698-3.758 2.092-5.214 1.395-1.453 3.108-2.18 5.137-2.18 2.028 0 3.773.727 5.234 2.18 1.458 1.46 2.19 3.192 2.19 5.214-.004 2.025-.736 3.76-2.19 5.213zm80.199 0c-1.398 1.46-3.111 2.186-5.136 2.186-2.033 0-3.778-.726-5.236-2.186-1.46-1.453-2.189-3.185-2.189-5.213 0-2.022.729-3.758 2.19-5.214 1.457-1.453 3.202-2.18 5.235-2.18 2.028 0 3.738.727 5.136 2.18 1.395 1.46 2.091 3.192 2.091 5.214 0 2.025-.696 3.76-2.091 5.213zM46.5 232.954c0 5.828 2.02 10.762 6.063 14.81 4.045 4.049 8.97 6.073 14.785 6.073h14.027l.192 43.105c0 5.443 1.896 10.065 5.686 13.862 3.79 3.798 8.342 5.696 13.647 5.696 5.431 0 10.045-1.898 13.836-5.696 3.791-3.797 5.686-8.418 5.686-13.862V253.84h26.158v43.1c0 5.444 1.894 10.066 5.685 13.863 3.791 3.798 8.401 5.696 13.836 5.696 5.432 0 10.046-1.898 13.836-5.696 3.791-3.797 5.686-8.418 5.686-13.862V253.84h14.217c5.686 0 10.548-2.025 14.597-6.073 4.041-4.049 6.063-8.982 6.063-14.81V106.5h-174v126.454zM247.906 103.5c-5.33 0-9.894 1.877-13.7 5.62-3.804 3.752-5.706 8.359-5.706 13.815v81.936c0 5.47 1.902 10.102 5.707 13.913 3.805 3.81 8.373 5.716 13.699 5.716 5.451 0 10.082-1.905 13.887-5.716 3.805-3.811 5.707-8.442 5.707-13.913v-81.936c0-5.457-1.902-10.063-5.707-13.814-3.805-3.744-8.436-5.621-13.887-5.621z"/></svg>