<svg xmlns="http://www.w3.org/2000/svg" viewBox="0 0 238 282"><path fill="#F2F2F3" d="M198.208 270.644c-15.307 14.844-32.195 12.53-48.293 5.531-17.114-7.14-32.76-7.591-50.834 0-22.509 9.709-34.455 6.886-48.01-5.531-76.535-78.738-65.238-198.68 21.745-203.195 21.097 1.13 35.867 11.656 48.293 12.53 18.47-3.753 36.149-14.505 55.918-13.094 23.75 1.919 41.515 11.288 53.376 28.137-48.857 29.35-37.279 93.695 7.597 111.757-8.98 23.565-20.503 46.847-39.82 64.062l.028-.197zM119.415 66.603C117.127 31.608 145.51 2.823 178.157 0c4.49 40.357-36.714 70.554-58.742 66.603z"/></svg>