<svg xmlns="http://www.w3.org/2000/svg" width="20" height="20" viewBox="0 0 20 20"><g fill="#FEFEFE"><path d="M2.358 1.588a.748.748 0 00-.748.746L1.588 17.64c0 .414.333.75.746.75l15.308.022a.747.747 0 00.747-.746l.02-15.308a.745.745 0 00-.744-.748L2.358 1.588zm.002-1.5l15.308.023a2.247 2.247 0 012.243 2.25l-.02 15.308a2.247 2.247 0 01-2.25 2.243l-15.308-.02a2.249 2.249 0 01-2.244-2.25L.11 2.33A2.245 2.245 0 012.36.09z"/><path d="M6.75 14.87v-3.74a.75.75 0 10-1.5 0v3.74a.75.75 0 101.5 0zm4 0V8.13a.75.75 0 10-1.5 0v6.74a.75.75 0 101.5 0zm4 0V5.13a.75.75 0 10-1.5 0v9.74a.75.75 0 101.5 0z"/></g></svg>