<svg xmlns="http://www.w3.org/2000/svg" width="20" height="22" viewBox="0 0 20 22"><g fill="#FEFEFE" fill-rule="evenodd"><path d="M1.78 2.203l-1.26.35-.26-1 1.88-.6H3V8H1.78m4.71 4.78l2.33-1.908c.868-.72 1.208-1.1 1.208-1.68 0-.59-.39-.91-.94-.91-.54 0-.91.3-1.43.94l-1.078-.87c.69-.938 1.36-1.448 2.61-1.448 1.448 0 2.407.85 2.407 2.158v.02c0 1.17-.6 1.75-1.84 2.71l-1.138.88h3.047V14H6.49v-1.22zm7.94 7.11l.86-.8c.5.59 1.06.92 1.84.92.688 0 1.208-.42 1.208-1.058v-.02c0-.69-.63-1.08-1.61-1.08h-.57l-.2-.77 1.89-2.008H14.82v-1.07h4.627v.92l-1.95 1.998c1.06.14 2.06.67 2.06 1.97v.02c0 1.29-1 2.208-2.448 2.208-1.22 0-2.09-.51-2.68-1.23"/><path fill-rule="nonzero" d="M10 2.75h7.29c.53 0 .96.43.96.96V9a.75.75 0 001.5 0V3.71a2.46 2.46 0 00-2.46-2.46H10a.75.75 0 000 1.5zm-1 16.5H2.71a.96.96 0 01-.96-.96V13a.75.75 0 00-1.5 0v5.29a2.46 2.46 0 002.46 2.46H9a.75.75 0 000-1.5z"/></g></svg>