<svg xmlns="http://www.w3.org/2000/svg" xmlns:xlink="http://www.w3.org/1999/xlink" width="61" height="61" viewBox="0 0 61 61"><defs><path id="a" d="M30.781.931V31H.712V.931h30.069z"/></defs><g fill="none" fill-rule="evenodd"><path stroke="#2E8BE0" stroke-width="2" d="M47.492 9.65L12.35 44.791a6.65 6.65 0 01-9.403 0v0a6.648 6.648 0 010-9.404l1.27-1.27" stroke-linecap="round" stroke-linejoin="round"/><path fill="#FEFEFE" d="M48.242 50.15a9.32 9.32 0 00-2.732-6.82 9.333 9.333 0 00-7.922-2.648 9.33 9.33 0 00-2.648-7.922 9.3 9.3 0 00-7.922-2.637 9.324 9.324 0 00-2.642-7.927 9.289 9.289 0 00-7.922-2.637 9.324 9.324 0 00-2.642-7.927 9.329 9.329 0 00-7.127-2.727C18.162-1.855 36.21-1.63 47.419 9.577c11.163 11.163 11.432 29.078.823 40.572"/><path stroke="#B5D0E7" stroke-width="2" d="M48.242 50.15a9.32 9.32 0 00-2.732-6.82 9.333 9.333 0 00-7.922-2.648 9.33 9.33 0 00-2.648-7.922 9.3 9.3 0 00-7.922-2.637 9.324 9.324 0 00-2.642-7.927 9.289 9.289 0 00-7.922-2.637 9.324 9.324 0 00-2.642-7.927 9.329 9.329 0 00-7.127-2.727C18.162-1.855 36.21-1.63 47.419 9.577c11.163 11.163 11.432 29.078.823 40.572z" stroke-linecap="round" stroke-linejoin="round"/><path fill="#FEFEFE" d="M47.419 9.577C30.624 5.658 16.454 19.56 16.454 19.56"/><path stroke="#B5D0E7" stroke-width="2" d="M47.419 9.577C30.624 5.658 16.454 19.56 16.454 19.56" stroke-linecap="round" stroke-linejoin="round"/><path fill="#FEFEFE" d="M47.58 9.739c3.92 16.795-9.982 30.965-9.982 30.965"/><path stroke="#B5D0E7" stroke-width="2" d="M47.58 9.739c3.92 16.795-9.982 30.965-9.982 30.965" stroke-linecap="round" stroke-linejoin="round"/><path fill="#FEFEFE" d="M47.492 9.65L27.018 30.124"/><path stroke="#B5D0E7" stroke-width="2" d="M47.492 9.65L27.018 30.124" stroke-linecap="round" stroke-linejoin="round"/><g transform="translate(30 29.233)"><mask id="b" fill="#fff"><use xlink:href="#a"/></mask><path fill="#2E8BE0" d="M15.768.931c8.303.012 15.025 6.753 15.013 15.056C30.77 24.29 24.028 31.012 15.725 31 7.422 30.988.7 24.247.712 15.944.724 7.641 7.465.92 15.768.931" mask="url(#b)"/></g><path stroke="#FEFEFE" stroke-width="2" d="M45.747 37.468a7.73 7.73 0 107.73 7.73M50.742 46.198l2.735-2.735 2.735 2.735" stroke-linecap="round" stroke-linejoin="round"/></g></svg>