<svg xmlns="http://www.w3.org/2000/svg" xmlns:xlink="http://www.w3.org/1999/xlink" width="34" height="61" viewBox="0 0 34 61"><defs><path id="a" d="M0 .266h24.486v24.486H0V.266z"/></defs><g fill="none" fill-rule="evenodd"><g transform="translate(0 -.266)"><mask id="b" fill="#fff"><use xlink:href="#a"/></mask><path fill="#2E8BE0" d="M12.26.266c6.763.01 12.236 5.499 12.226 12.26-.01 6.762-5.498 12.236-12.26 12.226C5.464 24.742-.01 19.252 0 12.49.01 5.73 5.499.256 12.26.266" mask="url(#b)"/></g><path fill="#FEFEFE" d="M8.94 36.988V8.953h6.586v15.538h17.058v22.968l-3.716 6.417v5.858H11.642V53.37l-8.275-8.276V27.193h5.235"/><path stroke="#B5D0E7" stroke-width="2" d="M8.94 36.988V8.953h6.586v15.538h17.058v22.968l-3.716 6.417v5.858H11.642V53.37l-8.275-8.276V27.193h5.235" stroke-linecap="round" stroke-linejoin="round"/></g></svg>