<svg xmlns="http://www.w3.org/2000/svg" width="62" height="47" viewBox="0 0 62 47"><g fill="none" fill-rule="evenodd"><path fill="#FEFEFE" d="M51.15 31.023l-40.3-3V1h40.3"/><path stroke="#B5D0E7" stroke-width="2" d="M51.15 31.023l-40.3-3V1h40.3z" stroke-linecap="round" stroke-linejoin="round"/><path fill="#FEFEFE" d="M6.139 37.876H55.86V7.853H6.139"/><path stroke="#B5D0E7" stroke-width="2" d="M6.139 37.876H55.86V7.853H6.139z" stroke-linecap="round" stroke-linejoin="round"/><path fill="#FEFEFE" d="M1 45.584h60V14.561H1"/><path stroke="#B5D0E7" stroke-width="2" d="M1 45.584h60V14.561H1z" stroke-linecap="round" stroke-linejoin="round"/><path fill="#FEFEFE" d="M45.26 19.702h6.16c0 3.07 2.41 5.58 5.44 5.73v9.29a5.732 5.732 0 00-5.41 6.33h-6.19"/><path stroke="#B5D0E7" stroke-width="2" d="M45.26 19.702h6.16c0 3.07 2.41 5.58 5.44 5.73v9.29a5.732 5.732 0 00-5.41 6.33h-6.19" stroke-linecap="round" stroke-linejoin="round"/><path fill="#FEFEFE" d="M17.484 40.442H10.87a5.73 5.73 0 00-5.73-5.73v-9.27c3.17 0 5.73-2.57 5.73-5.74h6.614"/><path stroke="#B5D0E7" stroke-width="2" d="M17.484 40.442H10.87a5.73 5.73 0 00-5.73-5.73v-9.27c3.17 0 5.73-2.57 5.73-5.74h6.614" stroke-linecap="round" stroke-linejoin="round"/><path fill="#2E8BE0" d="M21.606 30.147c0-5.48 4.44-9.92 9.92-9.92s9.92 4.44 9.92 9.92-4.441 9.92-9.92 9.92-9.92-4.441-9.92-9.92"/><path stroke="#2E8BE0" stroke-width="2.018" d="M21.606 30.147c0-5.48 4.44-9.92 9.92-9.92s9.92 4.44 9.92 9.92-4.441 9.92-9.92 9.92-9.92-4.441-9.92-9.92z" stroke-linecap="round" stroke-linejoin="round"/><path stroke="#FEFEFE" stroke-width="1.75" d="M36.99 32.797v2.384H25.979v-2.384m5.548-.468l-3.394-3.395m6.788 0l-3.394 3.395m-.042-9.465v9.465" stroke-linecap="round" stroke-linejoin="round"/><path fill="#FEFEFE" d="M45.85 30.072a2.983 2.983 0 115.967 0 2.983 2.983 0 01-5.966 0"/><path stroke="#B5D0E7" stroke-width="2" d="M45.85 30.072a2.983 2.983 0 115.967 0 2.983 2.983 0 01-5.966 0z" stroke-linecap="round" stroke-linejoin="round"/><path fill="#FEFEFE" d="M15.75 27.946h-4.899"/><path stroke="#B5D0E7" stroke-width="2" d="M15.75 27.946h-4.899" stroke-linecap="round" stroke-linejoin="round"/><path fill="#FEFEFE" d="M15.75 31.946h-4.899"/><path stroke="#B5D0E7" stroke-width="2" d="M15.75 31.946h-4.899" stroke-linecap="round" stroke-linejoin="round"/></g></svg>