<svg width="63" height="56" viewBox="0 0 63 56" xmlns="http://www.w3.org/2000/svg"><g fill="none" fill-rule="evenodd"><path stroke="#2C75BE" stroke-width="2.203" stroke-linecap="round" stroke-linejoin="round" d="M2 41.556h59.639V2H2zM2 9.161h59.639"/><path d="M7.291 5.4a.965.965 0 11-1.93 0 .965.965 0 011.93 0M10.589 5.4a.965.965 0 11-1.93 0 .965.965 0 011.93 0M13.885 5.4a.965.965 0 11-1.93 0 .965.965 0 011.93 0" fill="#2C75BE"/><path d="M27.061 19.94h-14.27v-4.21h17.404v1.076a3.133 3.133 0 01-3.134 3.134" fill="#B5D0E5"/><path d="M27.061 19.94h-14.27v-4.21h17.404v1.076a3.133 3.133 0 01-3.134 3.134z" stroke="#B5D0E7" stroke-width="1.102" stroke-linecap="round" stroke-linejoin="round"/><path d="M27.061 27.409h-14.27v-4.21h17.404v1.077a3.133 3.133 0 01-3.134 3.133" fill="#B5D0E5"/><path d="M27.061 27.409h-14.27v-4.21h17.404v1.077a3.133 3.133 0 01-3.134 3.133z" stroke="#B5D0E7" stroke-width="1.102" stroke-linecap="round" stroke-linejoin="round"/><path d="M27.061 34.878h-14.27v-4.21h17.404v1.077a3.133 3.133 0 01-3.134 3.133" fill="#B5D0E5"/><path d="M27.061 34.878h-14.27v-4.21h17.404v1.077a3.133 3.133 0 01-3.134 3.133z" stroke="#B5D0E7" stroke-width="1.102" stroke-linecap="round" stroke-linejoin="round"/><path d="M40.045 25.141c5.881 0 10.65 4.768 10.65 10.649 0 5.88-4.769 10.648-10.65 10.648-5.88 0-10.648-4.768-10.648-10.648 0-5.881 4.767-10.649 10.648-10.649" fill="#FFF"/><path d="M40.045 25.141c5.881 0 10.65 4.768 10.65 10.649 0 5.88-4.769 10.648-10.65 10.648-5.88 0-10.648-4.768-10.648-10.648 0-5.881 4.767-10.649 10.648-10.649z" stroke="#B5D0E7" stroke-width="2.203" stroke-linecap="round" stroke-linejoin="round"/><path fill="#B5D0E5" d="M47.99 43.866l11.365 9.08-1.683 1.864z"/><path stroke="#B5D0E7" stroke-width="2.203" stroke-linecap="round" stroke-linejoin="round" d="M47.99 43.866l11.365 9.08-1.683 1.864-9.682-10.944"/><path stroke="#B5D0E7" stroke-width="1.102" stroke-linecap="round" stroke-linejoin="round" d="M13.052 32.715H6.326v-14.82h2.659"/><path fill="#B5D0E5" d="M8.813 20.171l3.035-2.336L8.813 15.5z"/><path stroke="#B5D0E7" stroke-width=".551" stroke-linecap="round" stroke-linejoin="round" d="M8.813 20.171l3.035-2.336L8.813 15.5z"/><path d="M57.269 21.21L48.578 5.518a1.096 1.096 0 00-1.919 0l-8.69 15.692a1.097 1.097 0 00.96 1.629h17.38c.836 0 1.364-.897.96-1.629" fill="#B5D0E5"/><path fill="#FFF" d="M46.69 19.94h1.87V18h-1.87zM48.617 10.591l-.52 6.228h-.942l-.534-6.228v-.492h1.996z"/></g></svg>