<svg width="64" height="64" viewBox="0 0 64 64" xmlns="http://www.w3.org/2000/svg"><g fill="none" fill-rule="evenodd"><path d="M31.979 43.257c.503 0 1.308.88 1.308.88.88.931 2.485.88 2.485.88 2.794 0 5.027-1.035 5.027-1.035 2.076-.673 3.306-4.555 3.306-4.555 1.45-3.468-2.018-2.588-2.018-2.588-5.798.62-10.108.466-10.108.466s-4.31.155-10.108-.466c0 0-3.468-.88-2.019 2.588 0 0 1.23 3.882 3.307 4.555 0 0 2.232 1.035 5.027 1.035 0 0 1.604.051 2.484-.88 0 0 .805-.88 1.309-.88" fill="#B5D0E7"/><path d="M6.578 31.979c0-14.03 11.373-25.402 25.401-25.402 14.029 0 25.401 11.372 25.401 25.402 0 14.03-11.372 25.401-25.4 25.401-14.03 0-25.402-11.372-25.402-25.401zM31.979 2v9.155M31.979 52.803v9.154M61.958 31.979h-9.155M11.155 31.979H2" stroke="#2C75BE" stroke-width="2.281" stroke-linecap="round" stroke-linejoin="round"/><path d="M31.979 35.147c19.086 0 17.614-3.168 17.614-3.168-.105-1.202-6.781-1.956-6.781-1.956l-1.967-8.54c-1.139-4.194-4.97-1.76-4.97-1.76-1.812 1.19-3.896.986-3.896.986s-2.085.205-3.897-.986c0 0-3.83-2.434-4.97 1.76l-1.966 8.54s-6.677.754-6.781 1.956c0 0-1.472 3.168 17.614 3.168" stroke="#B5D0E7" stroke-width="2.28"/><path d="M26.167 39.192s-2.692 0-2.536.984c0 0 .465 2.174 3.572 2.174 0 0 2.277-.105 2.38-1.812 0 0-.207-1.139-3.416-1.346M37.79 39.192s2.693 0 2.537.984c0 0-.465 2.174-3.572 2.174 0 0-2.277-.105-2.38-1.812 0 0 .206-1.139 3.416-1.346" fill="#FFF"/></g></svg>