<svg width="70" height="76" viewBox="0 0 70 76" xmlns="http://www.w3.org/2000/svg" xmlns:xlink="http://www.w3.org/1999/xlink"><defs><path id="a" d="M.74 24h47.114V.487H.74V24z"/></defs><g fill="none" fill-rule="evenodd"><path d="M29.212 6.667c1.27 0 2.57.121 3.967.368l.475.085V1.867H24.77V7.12l.476-.085a22.657 22.657 0 013.967-.368zM6.314 12.933l3.992 3.955.275-.401a22.444 22.444 0 016.064-6.008l.406-.271-3.993-3.955-6.744 6.68zm35.059-2.725l.405.27a22.45 22.45 0 016.066 6.009l.273.401 3.993-3.955-6.744-6.68-3.993 3.955zM1.885 33.333h5.304l-.085-.47a21.944 21.944 0 01-.373-3.93c0-1.256.123-2.541.373-3.929l.085-.47H1.885v8.8zm49.435-8.329c.25 1.385.373 2.67.373 3.93 0 1.26-.123 2.543-.373 3.929l-.085.47h5.304v-8.8h-5.304l.085.471zM29.212 8.534c-11.358 0-20.596 9.151-20.596 20.4 0 11.249 9.238 20.4 20.596 20.4 11.357 0 20.596-9.151 20.596-20.4 0-11.249-9.239-20.4-20.596-20.4zm-22.898 36.4l6.744 6.68 3.993-3.955-.406-.271a22.444 22.444 0 01-6.064-6.008l-.275-.401-3.992 3.954zm41.53-3.554a22.43 22.43 0 01-6.066 6.008l-.405.27 3.993 3.955 6.744-6.68-3.993-3.954-.273.401zM24.769 56h8.885v-5.252l-.475.084a22.518 22.518 0 01-3.967.368c-1.271 0-2.569-.12-3.967-.368l-.476-.084V56zm-1.884 1.867V50.3l-.286-.088a22.164 22.164 0 01-3.588-1.464l-.261-.132-5.692 5.636-9.41-9.32 5.692-5.636-.135-.26a21.532 21.532 0 01-1.478-3.556l-.089-.281H0V22.667h7.638l.09-.282c.365-1.177.849-2.34 1.477-3.556l.135-.258-5.692-5.638 9.41-9.32L18.75 9.25l.26-.132a22.285 22.285 0 013.59-1.464l.285-.086V0h12.654v7.567l.285.086c1.186.363 2.361.84 3.59 1.464l.261.132 5.69-5.636 9.41 9.32-5.69 5.638.133.258a21.88 21.88 0 011.48 3.556l.087.282h7.638V35.2h-7.638l-.087.281a21.783 21.783 0 01-1.48 3.556l-.133.26 5.69 5.636-9.41 9.32-5.69-5.636-.26.132a22.105 22.105 0 01-3.59 1.464l-.286.088v7.566H22.885z" fill="#B5D0E6"/><path d="M29.212 16.534c-6.903 0-12.52 5.563-12.52 12.4 0 6.837 5.617 12.4 12.52 12.4s12.519-5.563 12.519-12.4c0-6.837-5.616-12.4-12.52-12.4m0 26.667c-7.941 0-14.403-6.4-14.403-14.267 0-7.868 6.462-14.267 14.404-14.267s14.404 6.399 14.404 14.267c0 7.867-6.462 14.267-14.404 14.267" fill="#B5D0E6"/><path d="M29.212 24.534c-2.45 0-4.442 1.973-4.442 4.4 0 2.425 1.992 4.4 4.442 4.4s4.442-1.975 4.442-4.4c0-2.427-1.992-4.4-4.442-4.4m0 10.667c-3.49 0-6.327-2.811-6.327-6.267 0-3.456 2.838-6.267 6.327-6.267s6.327 2.81 6.327 6.267c0 3.456-2.838 6.267-6.327 6.267" fill="#B5D0E6"/><g transform="translate(21.538 51.171)"><mask id="b" fill="#fff"><use xlink:href="#a"/></mask><path d="M18.743.487v8.248C14.62 13.303 1.877 12.855.768 19.066c-.13.752.223 4.935.223 4.935h46.612s.354-4.183.222-4.935c-1.1-6.164-13.683-5.77-17.886-10.232V.487H18.743z" fill="#2C75BE" mask="url(#b)"/></g><path d="M55.143 47.062l.233-2.654c.553-6.296-3.689-11.956-9.535-11.975-5.842-.017-10.124 5.61-9.613 11.912l.216 2.656c.53 6.548 4.8 11.243 9.312 11.256 4.513.015 8.814-4.65 9.387-11.195" fill="#2C75BE"/></g></svg>