<svg width="62" height="59" viewBox="0 0 62 59" xmlns="http://www.w3.org/2000/svg" xmlns:xlink="http://www.w3.org/1999/xlink"><defs><path id="a" d="M.584.57h26.375v24.097H.584z"/></defs><g fill="none" fill-rule="evenodd"><path d="M10.278 10.164C5.213 15.2 2.077 22.172 2.077 29.877c0 15.354 12.45 27.801 27.81 27.801S57.7 45.231 57.7 29.878c0-15.355-12.451-27.8-27.811-27.8" stroke="#B5D0E7" stroke-width="2.167" stroke-linecap="round" stroke-linejoin="round"/><path d="M33.709 29.061a3.82 3.82 0 00-3.82-3.819 3.82 3.82 0 103.82 3.82" fill="#FEFEFE"/><path d="M50.632 29.868c0-11.457-9.287-20.744-20.744-20.744-11.457 0-20.744 9.287-20.744 20.744 0 11.456 9.287 20.744 20.744 20.744 11.457 0 20.744-9.288 20.744-20.744z" stroke="#B5D0E7" stroke-width="2.167" stroke-linecap="round" stroke-linejoin="round"/><path d="M29.888 29.259l10.11-10.032c-2.883-2.697-5.9-4.362-10.162-4.362l.052 14.394z" fill="#2C75BE"/><path stroke="#B5D0E7" stroke-width="2.167" stroke-linecap="round" stroke-linejoin="round" d="M29.269 29.956l10.729-10.729"/><path d="M32.738 29.259a2.849 2.849 0 00-2.85-2.85 2.85 2.85 0 102.85 2.849" fill="#FEFEFE"/><path d="M32.738 29.259a2.849 2.849 0 00-2.85-2.85 2.85 2.85 0 102.85 2.849zM29.888 9.124v2.783M29.888 47.828v2.783M50.631 29.868h-2.783M11.927 29.868H9.144M44.556 15.2l-1.968 1.968M17.188 42.568l-1.968 1.968M44.556 44.536l-1.968-1.968M17.188 17.168L15.22 15.2" stroke="#B5D0E7" stroke-width="2.167" stroke-linecap="round" stroke-linejoin="round"/><path d="M12.455 12.762l1.773-5.97a.38.38 0 00-.466-.474l-6 1.664a.38.38 0 00-.17.633l4.226 4.305c.203.207.554.12.637-.158" fill="#B5D0E7"/><g transform="translate(34.077 33.678)"><mask id="b" fill="#fff"><use xlink:href="#a"/></mask><path d="M26.772 22.474L15.064 1.332a1.478 1.478 0 00-2.585 0L.771 22.474a1.477 1.477 0 001.292 2.193H25.48a1.477 1.477 0 001.292-2.193" fill="#2C75BE" mask="url(#b)"/></g><path fill="#FFF" d="M46.54 54.67h2.636v-2.734H46.54zM49.255 41.496l-.733 8.776h-1.328l-.752-8.776v-.693h2.813z"/></g></svg>