<svg width="67" height="67" viewBox="0 0 67 67" xmlns="http://www.w3.org/2000/svg"><g fill="none" fill-rule="evenodd"><path d="M28.238 66V45.15l19.195-19.686-2.098 16.797a20.36 20.36 0 01-5.797 11.861L28.238 66zM1 38.742h20.835l19.671-19.208-16.784 2.099a20.334 20.334 0 00-11.852 5.801L1 38.742z" fill="#2C75BE"/><path d="M29.046 17.177a54.98 54.98 0 00-13.178 21.178l12.757 12.766a54.927 54.927 0 0021.163-13.187C59.968 27.746 65.334 14.527 65.953 1c-13.518.62-26.727 5.99-36.907 16.177" fill="#FEFEFE"/><path d="M29.046 17.177a54.98 54.98 0 00-13.178 21.178l12.757 12.766a54.927 54.927 0 0021.163-13.187C59.968 27.746 65.334 14.527 65.953 1c-13.518.62-26.727 5.99-36.907 16.177z" stroke="#B5D0E7" stroke-width="2" stroke-linecap="round" stroke-linejoin="round"/><path d="M54.1 20.275a5.235 5.235 0 01-7.408 0 5.244 5.244 0 010-7.413 5.235 5.235 0 017.408 0 5.244 5.244 0 010 7.413" fill="#2C75BE"/><path d="M37.803 29.17L14.098 52.893" stroke="#2C75BE" stroke-width="2"/><path d="M13.571 43.984L3.095 54.468" fill="#FEFEFE"/><path d="M13.571 43.984L3.095 54.468" stroke="#B5D0E7" stroke-width="2" stroke-linecap="round" stroke-linejoin="round"/><path d="M23 53.42L12.524 63.904" fill="#FEFEFE"/><path d="M23 53.42L12.524 63.904M11.476 55.516L1 66" stroke="#B5D0E7" stroke-width="2" stroke-linecap="round" stroke-linejoin="round"/></g></svg>