<svg width="64" height="64" viewBox="0 0 64 64" xmlns="http://www.w3.org/2000/svg"><g fill="none" fill-rule="evenodd"><path d="M51.92 48.157l-1.372 7.425a29.821 29.821 0 01-15.64 6.278 8.79 8.79 0 00-1.768-2.505 8.609 8.609 0 00-3.646-2.138 6.173 6.173 0 01-2.744-1.657 6.324 6.324 0 01-1.553-2.805 8.164 8.164 0 013.547-8.866l.27-.165c1.149-.735 1.2-2.4.098-3.195l-6.232-4.5a40.853 40.853 0 01-9.045-8.97l-1.463-1.995a14.28 14.28 0 01-2.767-8.453v-4.56C15.095 5.886 23.098 2.001 32 2.001a29.866 29.866 0 0114.798 3.9 15.174 15.174 0 01-5.49 4.815c-.983.51-1.778 1.14-2.04 2.092a7.61 7.61 0 00-.262 2.003c0 1.62.51 3.218 1.492 4.553.322.435.585.907.787 1.402l.818 1.988c.083.195.113.39.113.585a1.558 1.558 0 01-2.715 1.042l-1.658-1.86a8.43 8.43 0 00-2.01-1.635l-2.078-1.222a8.296 8.296 0 00-5.025-1.11l-2.175.202a6.177 6.177 0 00-2.745.96 6.1 6.1 0 00-1.995 2.108 6.116 6.116 0 00-.36 5.355l.39.952a1.244 1.244 0 001.868.548l1.552-1.08a1.935 1.935 0 012.054-.113l1.89 1.043c.549.3.916.84.999 1.455l.404 3.173a9.073 9.073 0 002.813 5.467l.698.645a3.245 3.245 0 003.412.638l.87-.353a6.316 6.316 0 015.67.503l5.872 3.645a4.318 4.318 0 011.974 4.455z" stroke="#B5D0E7" stroke-width="2.167" stroke-linecap="round" stroke-linejoin="round"/><path d="M2 32.001C2 15.432 15.431 2 32 2c16.569 0 30 13.432 30 30.001 0 16.569-13.431 30.001-30 30.001-16.569 0-30-13.432-30-30.001z" stroke="#B5D0E7" stroke-width="2.167" stroke-linecap="round" stroke-linejoin="round"/><path d="M47.422 32.88c7.998.012 14.473 6.505 14.46 14.503-.01 7.998-6.503 14.473-14.501 14.461-7.998-.01-14.474-6.505-14.462-14.503.012-7.998 6.505-14.472 14.503-14.46" fill="#2C75BE"/><path d="M47.401 41.024c5.72 0 8.17 6.338 8.17 6.338S53.776 53.7 47.4 53.7c-6.376 0-8.17-6.34-8.17-6.34s2.451-6.337 8.17-6.337m0-1.445c-6.633 0-9.402 6.966-9.517 7.263a1.445 1.445 0 00-.043.914c.724 2.556 3.652 7.39 9.56 7.39 5.907 0 8.836-4.834 9.56-7.39.084-.301.07-.622-.043-.914-.115-.297-2.884-7.263-9.517-7.263" fill="#FFF"/><path d="M43.856 47.362a3.545 3.545 0 117.09.003 3.545 3.545 0 01-7.09-.003z" stroke="#FFF" stroke-width="1.625" stroke-linecap="round" stroke-linejoin="round"/></g></svg>